<?xml version="1.0" encoding="utf-8"?>
<!-- Generator: Adobe Illustrator 23.0.1, SVG Export Plug-In . SVG Version: 6.00 Build 0)  -->
<svg version="1.1" id="Layer_4" xmlns="http://www.w3.org/2000/svg" xmlns:xlink="http://www.w3.org/1999/xlink" x="0px" y="0px"
	 viewBox="0 0 1000 1000" style="enable-background:new 0 0 1000 1000;" xml:space="preserve">
<style type="text/css">
	.st0{fill:#78712B;}
	.st1{fill:#C0B853;}
	.st2{fill:#78732C;}
	.st3{fill:#356520;}
	.st4{fill:#4CAA20;}
	.st5{fill:#4A471C;}
	.st6{fill:#C3E5B5;}
	.st7{fill:#5F6F4C;}
	.st8{fill:#585E60;}
	.st9{fill:#512800;}
	.st10{fill:#9DA3A5;}
	.st11{fill:#CBB89A;}
	.st12{fill:#7F4000;}
	.st13{fill:#351B00;}
	.st14{fill:#FEFEFD;}
	.st15{fill:#434C36;}
	.st16{fill:#FDFDFD;}
	.st17{fill:#3E4446;}
	.st18{fill:#BDE2AE;}
	.st19{fill:#4F2700;}
	.st20{fill:#FEFE80;}
	.st21{fill:#BFBFBF;}
	.st22{fill:#FEFEFE;}
	.st23{fill:#FEFE7F;}
	.st24{fill:#804000;}
	.st25{fill:#A95500;}
	.st26{fill:#EAE39B;}
	.st27{fill:#AFB26F;}
	.st28{fill:#4A4A4A;}
</style>
<g>
	<path d="M470.7,371.7c7.2-0.9,13.9-1.9,20.6-2.5c5.7-0.5,5.9-0.8,3.9-6c-4.8-12.2-4.9-24.2,0.7-36.6c6.1-13.4,15.1-24,28.1-30.3
		c13.4-6.6,27.6-7.7,41.3,0c14.2,8,25.1,19.1,29.6,35.4c4.1,14.8,1.5,28.4-8.4,40.4c-0.6,0.7-1.1,1.5-1.6,2.3c-1.3,2-3,3.7-4.7,5.5
		c-2.6,2.7,0,3.6,1.6,4.8c1.9,1.4,3.9,2.6,5.8,4c10.4,7.2,18.1,16.3,22.1,28.7c3.4,10.5,0,19.1-5.2,27.5
		c-3.9,6.2-9.5,10.6-16.3,13.4c-3.1,1.3-3.4,4.3-4.6,6.7c-1.9,3.7-3.3,7.8-5,11.7c-1.5,3.6-2.6,6.3,1.6,9.6
		c5.3,4.1,4.7,11.1-0.5,16.6c-1.8,2-3.5,4.1-6.1,5.4c-7.4,3.6-5.6,11.2-7.1,17.3c-2.1,8.4-0.4,16.9-0.1,25.4c0.1,2,0.6,3,2.5,4.1
		c8.5,4.8,13.7,12.7,7.3,23.3c-1.9,3.1-2.1,5.7,0,8.6c1,1.4,1.6,3.1,2.2,4.7c1.7,4.1,3.9,6.6,8.9,7.5c6.6,1.1,11.8,9.4,12.4,16.9
		c1,12.8-4.2,23.3-11.8,33.1c-14.1,18.4-34.7,24.8-55.6,30.6c-10.7,3-21.8,4.7-32.9,4.7c-19.9,0.1-39.3-3.8-57.9-11
		c-13.6-5.2-26.7-11.3-37.6-21.2c-7.2-6.6-12.2-14.9-14.1-24.6c-1-5.1,0.8-9.9,3.8-13.8c4.3-5.7,8.3-12,16.7-12.2
		c1.5,0,2.3-0.6,2.8-2.1c0.9-2.7,1.9-5.3,2.9-7.9c1.5-3.6,1.2-6.5-0.6-10.3c-4.3-9.1-3.7-14.1,5.3-20.5c5-3.5,6.7-7.5,7.1-13.1
		c0.5-9.4,1-18.7-0.8-28.1c-0.9-4.4-4.4-4.8-6.7-6.5c-9.4-7.4-9.7-19.1,0.5-23.7c3-1.4,2.4-3.9,2-5.7c-3-12.2-6.6-23.7-16.8-32.7
		c-7.5-6.6-12.7-15.9-11.2-26.6c1.8-12.8,7.2-24,18.2-31.8c6.4-4.5,13.1-8.6,20.6-11.2c2.1-0.7,2.3-1.7,1-3.4
		c-0.3-0.4-0.4-0.9-0.7-1.2c-7.6-10.3-2.9-22.2,9.7-25.3c6.4-1.6,12.6-2.6,19.2-1c7.9,2,11.7,7.4,9.8,15.2
		C472.2,367.7,471.4,369.6,470.7,371.7z"/>
	<path class="st0" d="M462,602.7c14.2,2.5,28.5,3.7,42.9,3.9c10.1,0.4,20-0.8,30-2.1c10.3-1.3,16.6,1.3,20.8,8.9
		c2,3.7,2.8,7.6,1.9,11.8c-2.4,10.7-7,20.2-14.5,28.2c-3.6,3.2-8.3,3.4-12.6,4.7c-1.8-2.2,1-3.8,0.6-6.7c-3.5,2.4-6.9,0.7-10.4,0.1
		c-4.2-0.7-5.5-3.7-2.9-7.2c1.1-1.4,2.5-2.6,3.1-4.3c0.7-1.8,0.4-3.7-1.2-4.8c-1.7-1.2-3.1,0-4.2,1.2c-2.4,2.6-4.5,5.3-6.4,8.5
		c-2.7,4.5-6.2,8.8-9.6,13c-1.4,1.8-4.6,2.1-6.4,4.1c-5.8-1.2-11.9,0.1-17.5-2c0-1,0.6-1.5,1.4-1.8c7.1-2.4,9.4-8.2,9.9-14.8
		c1.2-15.1-4.4-29.1-21.9-33.8c-1.6-0.4-3.2-0.8-4.3-2.1C459.9,605.6,460.5,604,462,602.7z"/>
	<path class="st1" d="M461,607.4c4.8,1.3,9.4,3,13.9,5.3c11.9,5.8,16,26,11.9,37.8c-1.9,5.4-5.9,8.2-11.2,9.6
		c-8.8,0.3-17.1-1.9-25.3-4.7c-0.7-3.9-1.5-7.5-5.9-9.4c-2-0.8-1.9-3.9-2.8-6c-0.9-2.3-2.2-4.2-5-2.6c-3,1.7-4.8,0.3-6.5-2
		c-1.9-2.6-2.9-5.2-0.6-7.9c2.1-2.5,3-4.9,0.5-7.7c-1.4-5.7,0.5-11.2,0.9-16.8c0.1-1.8,0.4-3.6-1-5c-1.3-1.2-2.5-2.9-4.5-2.5
		c-1.8,0.3-2.1,2.3-2.6,3.8c-2.8,9.9-6.8,19.6-4.8,30.3c-0.4,1.5-0.5,3.2-2.7,3.2c-3.7-5.6-4-11.7-1.9-17.9
		c2.8-7.9,6.7-15.4,8.8-23.6c0.5-1.9,1.5-2.9,3.7-1.5c2.8,1.8,5.8,3.3,8.8,4.9c1.7,2.1,1.1,4.6,1.2,7c0.2,2.7-0.4,5.5,1.1,8
		c3.4-4.8,7-4.6,10.1,0.5c2.8,4.6,4.7,9.6,5.3,15c0.4,3.5,1.5,6.8,3.9,10.4c0.7-5.2,0.4-9.4-0.6-13.7c-0.9-3.6-1.2-7,2.3-9.6
		C459.7,611.2,459.4,608.7,461,607.4z"/>
	<path class="st2" d="M432.8,517.7c0-0.7-1.5-2.3,0.5-1.9c11.2,2.4,22.6,2.8,33.9,3.5c10.6,0.6,21.3,0.9,32-0.4
		c6.7-0.8,13.6-0.1,20.4-0.1c5.3,0.3,10.5,0.8,15.5,3.1c10.9,5.2,15.8,13.8,16.1,25.6c0.1,5.4-0.8,10.7-1.5,16
		c-1.6,12.9-9.4,20.5-21.3,24.5c-5.4,1.6-10.9,2.2-16.4,2.9c-12.9,1.6-25.7,0.6-38.4-1.2c1.5-3.4,6-4.6,6.2-8.9
		c0.4-1.1,0.7-2.3,1.5-3.2c2.7-2.1,4.1-0.6,5.1,1.9c2.5,5.9,4.2,7.5,8.9,7c7.4-0.8,9.4-1.5,10.5-7.1c0.8-3.9,2.3-4.1,5.2-1.3
		c1.2,1.1,2.2,2.4,3.5,3.4c4.8,3.6,11.1,1.8,13.3-3.8c0.9-2.3-0.2-3.8-1.9-5c-8.1-5.4-6.3-6.6-1.7-13.6c1.3-2,2.6-4.1,3.6-6.3
		c6.1-13.1,0.3-24.9-13.9-28.3c-12.7-3.1-25.2-1.5-37.6,1.7c-2,0.5-4,1.5-6.2,1.1c-9-4.5-19-5.3-28.6-7.2
		C438.6,519.3,435.4,519.5,432.8,517.7z"/>
	<path class="st2" d="M529.2,406.2c-2.5,11.4,2.5,18.7,14,20.6c1.6,0.3,3.1,0.7,4.7,1.1c0.6,0.3,1.2,0.4,1.8,0.5
		c3.4,0.7,6.1,2.2,6.7,5.9c0.6,3.6-1.8,5.6-4.6,7.1c-4.4,2.1-9.4,2-14,2.6c-5.1,0.7-10.2,2-15.4,1.1c-1-0.6-2.2-0.9-2.9-1.8
		c-7.3-9.2-17.6-10.9-28.4-11.3c-7.1-0.3-14.2-1.3-21.4-1c-1.4,0.1-3-0.1-4-1.4c3.3-1.4,7-1.3,10.1-3.5c7.4-5.2,10.8-9.5,2.6-17.8
		c1.6-1.8,3.8-1.6,5.9-1.6c13.5,0.1,26.9,0,40.3-1.6C526.2,404.9,527.9,404.9,529.2,406.2z"/>
	<path class="st2" d="M429.7,464.8c8.9,1.9,17.5,4.8,26.6,6.2c6.8,1,13.7,2.1,20.5,2.4c11.9,0.6,23.9,1.8,35.9,1.2
		c3.9,2.2,4,6.7,6.6,10.3c0.2-3.9,1.4-6.4,5.6-6.6c2.7-0.1,2.8-3.9,5.3-4.6c4.8-0.5,9.4-0.1,13.9,1.6c10.3,3.9,11.8,13.6,3.3,20.4
		c-4.7,3.8-10.3,5.4-16.2,6.4c-16.2,3-32.6,3.6-49,4.1c-1.3,0-2.6,0.3-3.8-0.4c-3.2-0.1-6.5-0.2-9.7-0.2c-0.3-2.1,1.4-3.2,2.3-4.6
		c6-8.6,3.7-17.8-5.5-22.3c-6.6-3.3-13.9-4.5-20.8-6.6c-4.1-1.2-7.9-2.8-11.9-4.2C431.4,467.4,429.5,467.1,429.7,464.8z"/>
	<path class="st3" d="M552.7,447.2c7.1-2,14.3-3.4,21-6.5c14.2-6.5,17.3-18.6,5.4-30.9c-2.6-2.7-5.4-5.1-8.4-7.4
		c-2.4-1.8-3.5-4-3.3-7c7.2,0.8,11.7,5.8,16.3,10.6c8,8.3,11.3,18.8,13,29.9c0.6,3.7-0.9,6.7-3,9.5c-9.4,9.5-21.7,13-34,16.3
		c-13.7,3.7-27.8,5.2-41.9,6.3c-8.4,0.6-16.9,1.2-25.2,0.6c-23.1-1.5-46.3-2.7-67.9-12.5c1.5-1.6,3.2-1,5-0.7
		c22.4,3.8,45,6.6,67.8,6c15.7-0.5,31.5-1.6,46.9-4.9C551.1,455.1,552.1,453.8,552.7,447.2z"/>
	<path class="st4" d="M552.7,447.2c2.7,4.3,1.6,7.8-3.6,9.5c-7.2,2.4-14.8,3.3-22.3,4c-13.3,1.4-26.7,2.5-40.2,2.1
		c-19.5-0.6-38.9-2.7-58.1-6.4c-1.3-0.2-2.6-0.2-3.8-0.3c-10.9-4.6-20.2-11.2-23.2-23.2c-2.8-11.1,1.7-20.3,9.8-27.8
		c1.3,2.8-1,4.6-2.1,6.6c-7,12.1-6.2,22.1,2.7,32.8c5,6,18.4,10.9,26.8,9.6c-0.6-2.3-2.6-2.7-4.3-3.4c-4.7-1.9-9.2-4.2-13.6-6.6
		c-4.1-2.2-7.5-5.3-9.3-9.6c-0.8-1.8-2.1-3.9-0.1-5.9c5.7,11.8,17,14.9,28.2,17.5c13.6,3.1,27.6,4.2,41.5,5.2
		c18,1.3,35.7,0.5,53.5-2.1C540.6,448.4,546.7,447.9,552.7,447.2z"/>
	<path class="st1" d="M432.8,517.7c11.4,0.6,22.5,3.1,33.5,6.1c1.6,0.4,3,1.8,4.5,2.7c0.2,0.5,0.2,0.9-0.1,1.3
		c-10.8,7.3-14.7,16.6-11.1,26.9c1.8,5,5.3,8.9,8.6,12.8c1.5,1.8,2.4,3.5,0.2,5.4c-2.3,2.1-2.6,4.5-0.4,6.8c2.2,2.3,4.6,4.2,8.1,2.6
		c1.4-0.6,2.6-2.1,4.4-1.2c0.1,4.8-3.7,6.4-6.9,8.5c-15.1-2.4-29.9-5.6-41.6-16.6c-1.9-1.8-2.4-3.4-1.7-6.3c2-7.5,2.4-15.4,3.5-23.1
		C435.2,534.8,433.3,526.3,432.8,517.7z"/>
	<path class="st3" d="M564.5,660.2c-12.2,7.5-25.6,11.9-39.6,14.6c-10,1.9-20.1,3.4-30.2,2.9c-22.5-1.1-44.3-5.5-64.6-15.8
		c-0.8-0.4-1.6-1.1-2.3-1.6c2.7-2.2,5.3-0.4,7.8,0.4c14.3,4.3,28.6,8.5,43.4,10.5c1.9,0.3,3.8,0.9,6.2-0.3c-6.3-2-12.4-2.5-18.3-4.2
		c-2.2-0.6-5-0.3-5.9-3.4c14.1,1.5,28.2,3.6,42.5,2.7c14.7-0.8,29.4-2.1,43-8.1c9.1-4.1,16.5-10.7,23.9-17.2
		c4.6-1.2,6.7,0.5,5.6,4.9C574.3,652.1,569.7,656.5,564.5,660.2z"/>
	<path class="st1" d="M465.7,429.6c11.4,0.1,22.8,0.6,34.1,1.9c9.7,1.1,17.3,5.3,22.5,13.7c-11.9,1.2-23.7,2.6-35.9,1.4
		c-9.2-0.9-18.6-1-27.8-2.3c-7.5-1.1-15.2-1.3-22.2-4.8c-4.6-2.5-7.7-6.3-9.7-11.1c-1.5-3.7-1.1-7.2,1.2-10.1
		c3.6-4.5,8.2-7.6,14.3-8c-1.5,14-0.3,15.3,13.9,18.7C459.4,429.7,462.5,429.5,465.7,429.6z"/>
	<path class="st1" d="M429.7,464.8c6.7,4,14.3,5.7,21.6,7.9c5.6,1.7,11.1,3.3,16.4,5.7c9.6,4.2,9.3,16.5,4.2,23.7
		c-0.9,1.3-2.2,2.4-3.3,3.6c-12.9-0.5-25.6-2.5-38-6.2c-2.3-0.7-3.5-2.3-2.9-4.7c1.3-5.4,1-10.7,0-16.1c-1-5.3-3.1-10.2-5-15.5
		C425.5,462.8,427.6,464,429.7,464.8z"/>
	<path class="st5" d="M528.4,587.9c3-1.9,6-3.8,8.9-5.7c5.7-3.7,9.1-8.9,10.4-15.6c1.5-7.9,3-15.9,1.8-24
		c-2.3-15.5-14.1-20.8-26.8-23.1c-1.1-0.2-2.3,0.1-3.2-0.9c13.3-1.4,26.6-2.4,39.6-5.2c3.1-0.7,3.5-0.2,3,2.9
		c-1.3,8.7-3,17.5-2.5,26.4c0.2,5.3,1.2,10.5,1.8,15.8c-0.5,2.1-0.9,4.2-2.1,5.9c-2.6,3.6-3.7,7.4-2.6,11.7
		c-3.3,4.9-8.8,6.5-13.8,8.5C538.3,586.5,533.5,588,528.4,587.9z"/>
	<path class="st5" d="M543,653.3c2.3-5.7,6.6-10.3,9-15.9c1.3-3.1,2.5-6.3,3.6-9.5c4.2-12.9-5.3-25.3-21.5-22.1
		c-9.5,1.9-19.4,3.1-29.2,0.8c13.2-1.9,26.5-2.9,39.5-5.8c5.5-1.2,9.9-4.7,15.2-6c2,0.5,4,1,6.1,1c4,0,5.5,1.9,4.8,5.9
		c-0.4,2.1,0.2,3.4,1.9,4.4c1.3,0.9,2.2,2.4,1.5,3.8c-3.3,6.1,1.8,10.8,2.4,16.2c-1.4,5.1-5.3,8.7-8.8,11.9
		C560.1,644.2,552.4,650.2,543,653.3z"/>
	<path class="st5" d="M478.4,506c19-1.2,38-1.8,56.7-6c4.8-1.1,9.3-2.9,12.8-6.4c6-6,4.6-13.4-3.4-16.6c-4.8-1.9-10-2.8-15.2-2.3
		c-0.6-1.1,0.1-1.5,0.9-1.9c15.7-1.7,31.2-4.2,46.9-10.7c-4.3,10.8-8.4,20.2-11.1,30.1c-0.9,3.3-4.8,4.6-8,5.8
		c-11.1,4-22.7,5.6-34.4,7c-13.5,1.6-27.1,2-40.7,1.8C481.5,506.8,479.8,507.4,478.4,506z"/>
	<path class="st6" d="M411.3,428.7c0.1,7,4.4,11.3,9.9,14.3c5.6,3.1,11.6,5.5,17.4,8.3c1.3,0.6,2.8,1.5,2.6,3.1
		c-0.3,1.8-2.1,1.8-3.5,1.7c-15-1.4-28.5-6-33.5-23.1c-2.7-9.3,0.9-17.3,5.7-24.9c0.6-1,1.4-1.8,1.4-3c6.9-8,14.9-14.5,24.8-18.6
		c3.1-1.3,3.9-0.2,4.8,2.1c1.4,3.6,1.9,6.2-2.9,8.4c-10.4,4.7-20.2,10.5-25.3,21.6C411.3,421.8,409.6,425,411.3,428.7z"/>
	<path class="st7" d="M549.8,298.8c8.6-0.5,14.8,4.6,21.3,9.1c11.9,8.2,17.7,20.1,19.6,34c0.5,3.9-0.6,7.8-1.8,11.6
		c-2.7-4.2-1.4-9.1-2.4-13.7c1.9,9-0.9,16.9-5.2,24.6c-4.5,8-11.5,13.1-19.9,16.5c-2.4,1-3.3,2.2-2.9,4.7
		c-7.3,2.9-14.8,4.6-22.4,1.2c0-2.5-4.6-3.4-2.2-6.7c5-0.4,10,0.6,15-0.7c15.1-4,27.8-11.2,31.9-27.4c3.3-13.1-0.4-24.8-11-33.8
		c-4.8-4.1-10.1-7.7-15.9-10.3c-1.6-0.7-3.5-1-4.2-3c2.4-2.8,5.1-0.2,7.7-0.5C555.6,301.5,550.8,302.7,549.8,298.8z"/>
	<path class="st4" d="M593.8,445.3c4.1-13.3-1-24.4-8.2-35.1c-4.6-6.8-11.1-11-18.1-14.8c-0.6-3.3-2.9-7,2.4-8.7
		c1.3-0.4,2.3-0.7,3.6,0c14.3,7.9,26.3,17.9,30.3,34.8C606.2,431.9,601.5,439.3,593.8,445.3z"/>
	<path class="st8" d="M465,357.3c3.4,2.3,3.1,5.5,1.5,8.5c-2.6,4.9-3.7,10.2-4.9,15.6c-1.7,7.2,0.3,13.5,4.2,19.2
		c3.2,4.6,6.6,9.1,10.8,13c3.1,2.9,2.7,5.1-0.9,7.3c-7.5,4.5-15.4,5.2-23.5,2.1c0.3-0.6,0.8-1,1.4-1.3c6-3.9,7.3-7.3,4.4-14
		c-3.7-8.6-4.7-17.5-5-26.7c-0.2-5.9,1.6-11,6.9-14.2C463.5,364.6,462.7,360.2,465,357.3z"/>
	<path class="st4" d="M460.9,663.2c7.2,3.4,15.3,3.4,22.8,5.6c1.6,0.5,4.2,0.3,3.9,2.5c-0.3,2.2-2.9,1.6-4.6,1.5
		c-12.8-0.8-24.9-4.7-37.3-7.7c-6.1-1.5-11.7-4.6-18.1-4.9c-14.4-6.7-26.9-15.2-31.4-31.7c-2-7.4,2.5-15.9,9.9-19.1
		c0.6,2.2-1.1,3.2-2.3,4.5c-5.2,5.6-6.8,11.8-3.1,18.7c6.2,11.6,15.3,20,27.8,24.4c0.8,0.3,1.6,0.4,2.4,0.5c0.5,0.1,1,0.1,1.8-0.6
		c-2-2.2-4.8-3-7.3-4.3c-9.1-4.8-15.7-11.8-19.4-21.5c-2-5.3-2.7-10.6-0.7-16.1c0.6-1.7,1.9-3.5,0.7-5.5c1-1.3,2.4-2,4.5-1.8
		c-1.8,6.4-3.5,12.5-1.7,19.2c2.2,8.1,6.2,14.8,12.9,19.7C433.6,654.9,447.2,659.2,460.9,663.2z"/>
	<path class="st9" d="M493.1,662c0.8-2.3,1-5.1,5-4.4c0.7,0.1,4.4-1.8,3.2-5.2c-0.8-2.4,0.2-4.2,3.4-4.3c2.9-0.1,4.1-2.3,4.1-5
		c0-1.7,0.1-4.3,1.2-4.4c3.9-0.4,4.5-4.9,7.6-5.7c1.7-0.4,4,0.6,4.1,1.8c0.1,1.8,2.4,3.2,0.9,5.1c-1.3,1.7-2.5,3.4-3.9,4.9
		c-1.3,1.3-1.8,2.4-0.9,4.2c0.9,1.6,1.6,2.1,3.2,0.8c0.9-0.7,1.7,0.5,2.5,1c1.7,1.1,3.2,1.9,5.2,0.1c0.9-0.8,2.4-2.1,3.8-0.6
		c1.3,1.4,0.5,2.6-0.4,3.8c-0.9,1.2-1.7,2.4-1.6,4C518.1,660.6,505.7,662.2,493.1,662z"/>
	<path class="st10" d="M465,357.3c0.4,5.2-1.7,8.6-6,11.7c-6.2,4.5-5.2,11.6-4.5,18.3c0.8,8.2,2.8,16,6.1,23.6
		c2.2,4.9-2.6,11-8.5,12.1c-6-1.2-8-4.8-6.7-11.9c0.8-4.5,1.4-9.1,2.1-13.7c3.8,2.4,1.9,6.1,1.7,9.2c-0.1,3.1-1.1,6.3,1,9.2
		c2.5-4.3,1.9-8.9,1.3-13.5c-1.4-11-4.1-21.7-11.1-30.7c-0.7-0.9-1.2-1.9-1.1-3.1c1.4-1.9,3.2-0.9,4.9-0.7c4.9,0.5,9.7,0.1,14.2-2.2
		c1.9-1,3.9-2.2,3.5-4.7c-0.5-2.5-2.8-2.8-5-3c-7.3-0.7-15.2,3.3-17.8,9.1c-0.5,1.1-1.3,1.9-2.5,2.3c-1.4-3.8,0.7-8.4,5-10.8
		C449.1,354.3,456.9,352.9,465,357.3z"/>
	<path class="st9" d="M461,607.4c0,3-0.2,5.7-3.6,7.1c-1.9,0.8-1.5,2.8-0.9,4.7c1.8,6.2,1.8,12.6,1.1,19.9
		c-3.8-3.9-5.7-7.9-6.1-12.2c-0.6-5.7-2.4-10.9-5.1-15.8c-0.2-0.3-0.4-0.5-0.5-0.8c-0.9-2.4-3.5-3-5.3-3.5c-2.1-0.5-0.6,2.7-1.8,3.7
		c-0.7,0.6,0,2.2-1.2,2.3c-1.4,0.1-1.6-1.2-1.9-2.3c-1.8-5.2-0.4-10.6-1-15.9c9.1,2.7,18.2,5.3,27.4,8
		C461.6,604.2,461.3,605.8,461,607.4z"/>
	<path class="st1" d="M529.2,406.2c-16.8,2.3-33.8,2-50.8,2.1c-2.1-1.8-4.2-3.6-5.8-6c0.8-1.9,2.6-2.3,4.4-2.5
		c16-2.2,32-4.1,48.2-3.8c1.8,0,3.6,0.1,4.9,1.5C528.5,400.3,529.7,403.3,529.2,406.2z"/>
	<path class="st8" d="M536.3,397.5c0-1.2-0.4-3.3,1.4-2.8c7.4,2.2,14-1.4,20.9-2.2c4.8,10,1.5,24.3-6.8,29.4c-5,2.2-10,1.1-13.9-2
		c-3.6-2.9-4.7-7.4-3-12.2c1.1-3-0.8-6.4,1.1-9.3c1.8,1.5,1.2,3.6,1.3,5.4c0.1,2.3-0.1,4.5,0.2,6.8c0.3,1.6,0.6,3.4,2.8,3.2
		c1.8-0.2,2-1.8,2.2-3.3C543.4,404.8,541.2,400.3,536.3,397.5z"/>
	<path class="st4" d="M564.5,660.2c3.3-4.6,8.1-7.9,9.9-13.6c1.5-4.9,1.1-5.5-4.1-5.9c2.9-3.4,6-6.7,8.6-10.3c5.4-7.5,7.6-15.7,5-25
		c6.2,1.4,10.8,7.4,9.8,14.3c-2.7,18.1-12.7,31.3-28.2,40.5C565.2,660.2,564.8,660.2,564.5,660.2z"/>
	<path class="st5" d="M551.8,441.4c1-2,3.2-3.2,3.6-5.6c0.4-2.5-0.8-4.2-3-5.4c-1.5-0.8-3-1.7-4.5-2.6c5.4-0.6,10.8-1.3,15.7-4.3
		c6.1-3.8,8.5-8.6,6.1-15.8c5.4,4.2,9.8,9,11.1,15.7c0.9,4.7-2.1,8.3-5.7,10.5C567.9,438.3,560.3,441.5,551.8,441.4z"/>
	<path class="st3" d="M522.3,593.9c7.9-2,16.1-2.5,23.8-5.5c8-3.2,14.7-7.8,19.4-15.1c5.6,1.5,2.8,4.9,1.8,7.9
		c-6.8,6.9-15.2,11-24.4,13.9c-14.8,4.6-29.9,6.6-45.2,6.4c-7.8-0.1-15.7-0.6-23.3-2.6c2.1-2.1,4.8-1.6,7.4-1.5
		C495.5,597.6,509,596.6,522.3,593.9z"/>
	<path class="st3" d="M530.2,507.9c12.7-2,25.7-3,37.1-10c3.1,1.9,2,3.9,0.1,5.8c-1.9,2-4.4,3.1-6.9,4.1c-6.2,2.9-13.1,2.8-19.7,3.8
		c-26.4,3.8-53,3.3-79.5,2.8c-6.3-0.1-12.8,0-19.1-1.7c1.8-1.9,4.2-1.6,6.4-1.6c8.8-0.1,17.5-0.1,26.3,0c16.1,0.1,32.1-0.7,48.1-2
		C525.4,509,527.8,508.5,530.2,507.9z"/>
	<path class="st11" d="M533.1,381c0.4,2.2,5.1,2.3,2.9,5.9c-8.4-1.1-15.4-4.9-22.1-10c-7-5.3-11.8-12-14.1-20.2
		c-3.5-12.3-1.5-23.9,6.1-34.4c1.4,2,0,3.7-0.7,5.4c-4.4,11.8-4.9,18.7-3.1,26.3c-1.8-11.9,2.1-26,13-38.2c1.2-1.3,2.4-2.6,4.4-2.8
		c0.5,0,0.9,0.3,1.3,0.7c-0.7,3.9-4.2,6-6.2,9.1c-5.7,8.8-10,18-7.6,28.8c2.7,12.7,10.4,21.3,22,26.7
		C530.5,378.9,532.6,378.8,533.1,381z"/>
	<path class="st12" d="M430.8,620.2c3.7,1.8,2.7,3.9,0.7,6.4c-3.1,3.8-2.6,6.6,1.1,10.1c1.4,1.3,1.9,0.3,2.7-0.3
		c3.2-2.5,5.6-2,6.9,2c1.3,3.8,1.6,7.7,7,9.1c3.3,0.8,0.9,5.1,1,7.8c-14.1-3.8-26.7-9.9-35.1-22.6c0.6-0.9,1.2-1.9,1.8-2.8
		c0.4-0.3,0.8-0.4,1.2-0.1c1.2,1.7,1.2,4,2.8,5.6c0.7,0.7,1.2,1.7,2.3,1.5c1.2-0.2,1.3-1.3,1.5-2.3c1-4.8,2.6-9.3,5-13.6
		C430,620.7,430.3,620.4,430.8,620.2z"/>
	<path class="st4" d="M522.3,593.9c-10.3,3.6-21,4.7-31.8,4.8c-5.4,0-10.7,0.1-16.1,0.1c-12.7-1.3-25.2-3.5-37-8.7
		c0.4-2.1-1.3-3-2.4-4.4c-1.1-1.4-3.2-2.3-2.6-4.7c4.8,2.1,9.7,4.2,14.5,6.3c11.8,5.1,24.4,5.9,36.9,7.7
		C496.9,596.7,509.5,594.2,522.3,593.9z"/>
	<path class="st2" d="M530.1,397.5c-18.7-0.7-37.2,1.7-55.7,4c-0.6,0.1-1.2,0.5-1.8,0.8c-1.4-0.4-1.6-1.9-2.4-2.8
		c-2.2-2.5-1.5-3.6,1.6-4c5.1-0.6,10.1-1.9,15.2-1.8c8.7,0,17.3-1.9,26.1-1.1c4.9,0.5,9.8,1.4,14.7,1.8
		C530,394.6,530.5,395.6,530.1,397.5z"/>
	<path class="st2" d="M442.2,410.3c-2.8,1.4-5.6,2.6-8.3,4.1c-8.2,4.9-9.1,12.2-2.7,19.3c1.7,1.9,3.5,3.8,5.2,5.7
		c-7.4-1-13.1-4.9-17.5-10.8c-1.1-1.4-1.2-3.1-0.5-5c3.7-10.8,12.2-16.5,21.9-20.8c1.8-0.8,2,0.3,2,1.6
		C442.4,406.4,442.3,408.3,442.2,410.3z"/>
	<path class="st13" d="M576.2,626c-0.2,0-0.4,0-0.5-0.1c-2.4-1.6-5.4-12.2-3.8-14.5c1.7-2.4,2-4.1-1.3-5.1c-2.2-0.7-2.4-2.1-1.6-4.2
		c1.5-4.2-0.1-6.3-4.4-5.3c-2.7,0.6-3.9-0.1-5-2.2c2.2-3.2,6.1-4.1,9-6.3c1.7-1.2,2.6,0.2,3.3,1.6c3.6,7,7.1,14.2,8.8,21.9
		C581.9,617.2,579.9,622,576.2,626z"/>
	<path class="st4" d="M530.2,507.9c-5.1,2.3-10.7,2.2-16,2.7c-23.4,2.3-46.9,2.3-70.4,2.1c-0.5,0-1,0-1.5,0.1
		c-1.3-0.1-2.5-0.2-3.8-0.2c0.3-2.4,2.5-1.5,4-2.6c-4.3-1.5-9-1.7-12.7-4.3c-1.7-1.2-4.4-1.8-4.1-4.8c14.5,6.8,30,7.2,45.6,8.2
		c12.2,0.8,24.3,0.6,36.4,0.6C515.1,509.7,522.6,508.5,530.2,507.9z"/>
	<path class="st4" d="M469.6,379.1c4.4-2.6,9.5-1.9,14.2-2.9c3.1-0.6,6.3-0.4,9.5-1c7.6-1.6,13.5,1.1,17.5,7.7
		c-1.5,1.6-3.5,1.4-5.5,1.4c-10.9-0.1-21.6,1.6-32.1,4.3c-2.4,0.6-4.9,1.9-7.5,0.2c-0.9-0.5-0.9-1.3-0.7-2.1
		c3.1-3.3,7.6-3.3,11.5-4.7c2.3-0.8,4.7-1.2,7.8-2.5c-3.5-0.5-6.1-0.2-8.7,0.2C473.5,380,471.4,380.6,469.6,379.1z"/>
	<path class="st14" d="M520.3,313.3c-7.4,5-11.8,12-14.4,20.4c-2.8,9.1-3.7,18.3-2.2,27.9c-3.1-6.9-4.7-14-3.2-21.4
		c1.2-6.1,2.9-12.1,5.4-17.9c1.7-3.1,4.1-5.5,6.8-7.8c5.1-5.9,11.4-10.4,18.6-13.4c1.1-0.4,2.9-1.8,3.8,0.1c0.7,1.4-0.9,2.3-1.9,3
		C528.8,307.1,525.3,311.1,520.3,313.3z"/>
	<path class="st15" d="M558.5,385.6c-1.4-1.5-5.2-3-0.2-4.8c19.2-6.9,28.2-20.6,27.7-40.8c0-0.3,0.1-0.6,0.4-2.3
		c1.8,6,2.5,10.9,2.5,15.9c-0.7,9.1-5.1,16-12.1,21.6C571.2,379.6,565.5,383.7,558.5,385.6z"/>
	<path class="st16" d="M436.5,369.2c-0.1-1.4,0.6-2.1,2-2c0.8-0.2,1.2,0.1,1,1c10,12.7,13.8,27.3,13.6,43.2c0,2.8,0.1,7.1-3,7.1
		c-3.2-0.1-2.8-4.4-2.8-7.3c0.1-4.6,2.3-9.1,0.1-13.7c-0.8-9.6-4.9-18.1-9.9-26.1C437.1,370.6,436.8,369.9,436.5,369.2z"/>
	<path class="st3" d="M465.7,388.8c9.2-1.8,18.3-4.5,27.8-5.4c5.8-0.6,11.6-0.2,17.3-0.6c2.3,1.4,4.6,2.8,7.9,4.9c-2.5,0-4,0-5.5,0
		c-14.8,0-29.6,0.6-44.1,3.7C466.8,391.9,465.7,391.1,465.7,388.8z"/>
	<path class="st11" d="M520.3,313.3c4.1-4.8,9.8-7.7,15.1-12.4c-9.7,2.2-16,8.2-22.7,13.6c4.4-7.4,11.4-11.8,19.1-14.4
		c5.6-1.9,11.9-3.4,18.1-1.2c3.4,2.5,8.4,2.7,11,7.4c-4.2,0.7-7.5-2.1-11.1-1.4c-0.2,0.2-0.5,0.6-0.8,0.5c-9.4-1.2-17.2,3-24.7,7.8
		c-1.1,0.7-2.3,1.3-3.6,0.5L520.3,313.3z"/>
	<path class="st17" d="M551.8,421.9c6.7-7.3,8.8-15.9,6.9-25.5c-0.2-1.3-0.1-2.6-0.1-3.9c1.7-2,3.3-1.6,3.6,0.7
		c0.9,6.8,1.8,13.7,2.1,20.6c0.2,4.7-3.9,5.8-7.4,7.1C555.3,421.6,553.6,422,551.8,421.9z"/>
	<path class="st18" d="M425.6,500.8c3.4,4.2,8.2,5.6,13.2,6.9c1.5,0.4,3.1,0.7,4.6,1.1c0.8,0.2,1.6,0.7,1.4,1.6
		c-0.2,0.8-1,1.1-1.8,1.3c-1.5,0.3-3.2-0.7-4.5,0.8c-5.1,0.5-10-1-13.8-3.9c-5.8-4.5-6.9-7-2.2-13.9
		C423.8,496.7,423.6,499.4,425.6,500.8z"/>
	<path class="st6" d="M432.5,580.9c2,2.1,3.9,4.3,5.9,6.3c1.5,1.5,1.4,2.4-0.9,2.7c-5.3-2.2-10-5.2-14-9.3c-5.6-5.9-5.3-9.2,2.4-17
		C422.5,571.8,426.2,576.9,432.5,580.9z"/>
	<path class="st10" d="M536.3,397.5c2-1.8,3.2-0.3,4.4,1.1c3.5,4.2,3.7,9.2,3.1,14.2c-0.3,2.2-2.5,3.1-4.4,3c-2.4-0.2-3-2.5-3.1-4.3
		c-0.3-4.4-0.2-8.8-0.2-13.1C536.1,398.1,536.2,397.8,536.3,397.5z"/>
	<path class="st19" d="M530.3,472.8c-0.3,0.6-0.6,1.3-0.9,1.9c-1.1,3-1.7,6-6.4,5.1c-2.2-0.4-2.3,2.9-2.4,5c0,1,0.6,2.6-0.8,2.9
		c-1.8,0.3-1.8-1.3-2.1-2.6c-1-3.8-3.2-7-4.9-10.5c1.9-1.8,4.3-0.9,6.5-0.9C522.9,473.8,526.6,473.4,530.3,472.8z"/>
	<path class="st4" d="M560.5,507.8c1.9-1.4,3.7-2.9,5.6-4.3c2.2-1.5,2.8-3.3,1.2-5.6c2-2.2,3.1-4.9,4.3-7.5c1.3-2.6,2-2.5,3.8,0
		c2.9,4.2,1.7,8-1.3,10.9C570.4,504.8,566.1,507.8,560.5,507.8z"/>
	<path class="st6" d="M469.6,379.1c4.7,0.1,9.2-1.8,13.8-1.1c1.3,0.2,3.4-0.9,3.6,1.1c0.2,1.8-2,1.7-3.3,2.1
		c-6.2,1.9-12.4,3.7-18.7,5.5C465.3,383.4,465.2,379.9,469.6,379.1z"/>
	<path class="st4" d="M567.4,581.1c0.3-2.8,1.6-5.9-1.8-7.9c1.4-3.9,0.5-8,1-11.9C573.8,563.7,574.1,572.1,567.4,581.1z"/>
	<path class="st13" d="M556.7,576.2c-2.4-3.4-2.7-6.7,0.4-9.9c2.1-2.2,1.7-5.8,4.4-7.7C564,565.3,562.3,571.4,556.7,576.2z"/>
	<path class="st9" d="M535.8,641.9c-1.4-0.4-2.5,0.6-3.7,1.4c-0.9,0.6-1.7,1.6-2.9,0.4c-0.9-0.9-0.7-1.8-0.1-2.6
		c2.2-2.7,0.3-4.8-1.1-6.9c-0.8-1.3-2.5-2.5-1-4.2c1.3-1.6,3.3-1.4,4.9-0.6c1.3,0.6,2.3,1.6,2.3-0.9c0-0.9-0.2-2.2,1.2-2.1
		c0.8,0,1.4,0.8,1.6,1.6c0.3,2.7,3.1,3.7,4.1,5.9c0.9,2,1.6,4,0.1,5.9C539.9,641.4,538.7,643.4,535.8,641.9z"/>
	<path class="st20" d="M417.9,629.8c-0.3,0.1-0.6,0.1-0.9,0.1c-1.9-6.3-0.9-12.4,0.8-18.5c1.5-5.1,2.9-10.2,4.4-15.3
		c1-3.4,2.7-3.2,5.8-1.7c7.4,3.7,3.7,9.8,3.3,14.8c-0.3,3.7-0.5,7.4-0.5,11.1c-0.1,0.2-0.1,0.5-0.2,0.8c-1.7,2.3-4.3,3.3-6.6,4.6
		C421.8,626.8,419.9,628.3,417.9,629.8z"/>
	<path class="st21" d="M470.6,527.2c0-0.2,0.1-0.5,0.1-0.7c10.9-3.8,22.1-5.6,33.6-4.9c7.7,0.5,15.5,1.8,21.2,7.6
		c8.4,8.5,8.6,14.5,1.3,28.3c-0.1,0.1-0.2,0.2-0.3,0.4c-1.8,2.8-4.9,5.5-5.2,8.5c-0.3,3.3,4.4,4.2,6.8,6.3c2.1,1.9,2.3,3.6,0.9,5.9
		c-4.7,7.7-11.1,8.5-17.4,2.1c-1.2-1.2-2.4-2.6-3.7-4c-0.4,0.5-0.9,0.9-1,1.5c-1.3,7.8-7.1,11.6-15.1,9.7c-3.8-0.9-6.4-2.9-6.6-7.2
		c-0.1-2.6-0.9-4.3-3.8-2.3c-3-4.4-0.4-8.7,0.2-13.1c1.8-2.4,3.8-0.8,5.7-0.1c2.7,1,4.6,0.3,5-2.6c1-7.2,2.3-14.4,0.6-21.7
		c-2.1-9.3-6.2-11.5-15-7.8c-0.6,0.3-1.2,0.5-1.8,0.7c-0.5,0.1-1,0.2-1.5,0.1C472.4,532.2,471,530.1,470.6,527.2z"/>
	<path class="st22" d="M482.4,564.5c0.6,4.6-1.7,9.1-0.9,13.7c-0.3,1,0.4,2.3-1,3c-3.8,2.5-7.3,5-11.9,1.2c-5-4.1-4.9-7.4,0.7-11.7
		c-4.5-5.8-10-10.7-11.5-18.5c-2-10.4,2.1-22.4,12.9-25c1.4,2,2.7,4,4.1,6.1c0.5,1.2,0.1,2.3-0.5,3.2c-4.8,8.4-1.6,15.5,3.7,22.2
		c1.4,1.8,3.4,3,4.3,5.1C482.4,564.1,482.4,564.3,482.4,564.5z"/>
	<path class="st9" d="M495.3,485.4c1.7,0.7,2.4-0.1,3.3-1.9c2.1-3.9,5.5-4,8.4-0.6c0.2,0.2,0.3,0.6,0.5,0.8c1.7,1.3,5.7,1.2,4.8,3.9
		c-1.2,3.5-3.9,6.6-6.4,9.5c-1.3,1.5-3.4,2.6-5.7,1c-0.5-0.4-1.4-0.9-1.7-0.8c-8.7,4.3-6.1-5-8.8-7.7
		C488,487.8,490.8,485.3,495.3,485.4z"/>
	<path class="st9" d="M543.7,489.2c-0.6,1.6-1.2,4.5-3.3,3.6c-2.9-1.1-6.5,1.9-8.1-0.9c-1.2-2.1-3-3.8-3.9-6.1
		c-0.3-0.7,7.7-5.3,9-5.3C538.9,480.6,543.6,486.8,543.7,489.2z"/>
	<path class="st23" d="M434.2,521.5c7.3,4.7,9.6,11.1,9.9,17.7c0.7,14,0.5,28.1,9.3,40.8c-7.9-0.5-13.5-4-18.7-8
		c-1.8-1.4-2.4-3.1-1.6-5.5c2.7-8.1,4.9-16.4,4.3-25.1C437,534.9,436.6,528.5,434.2,521.5z"/>
	<path class="st24" d="M445.1,437.5c2.5-3,5.3-4.2,10-4.3c6.7-0.2,12.8-0.9,19.2,2.2c2.7,1.3,6.7-0.1,9.4,2.7
		c-1.4,1.6-3.3,1.4-5.2,1.4c-3.6,0-7.2-0.6-10.1,2.9c-1.7,2.1-13,1.2-13.6-1.3C453,433.4,447.4,441.7,445.1,437.5z"/>
	<path class="st23" d="M453.6,501.3c-5.9,1-11.1-0.2-16.2-1.6c-3.6-0.9-5.7-3.1-5-7.9c0.8-5.7-0.8-11.5-2.7-17.1
		c-0.6-1.8-1.2-3.5-1.3-5.5C437,479.8,442,493,453.6,501.3z"/>
	<path class="st13" d="M564.7,611.2c-2.3-0.7-4.4-1.5-4.9-3.8c-0.4-2.1,1.1-3.6,3-3.6c2.3-0.1,3.8,1.8,4.3,3.9
		C567.6,609.5,565.9,610.3,564.7,611.2z"/>
	<path d="M520.6,313.6c6.7-3,12.3-7.8,19.8-9.4c3.5-0.7,6.2,1,9.3,0.6c10.9,4.7,21.1,10.4,28,20.5c7.2,10.4,7.6,29.5-2.2,40.1
		c-8.8,9.6-19.6,14.8-32.4,16.4c-3.5,0.4-6.6-1.6-10.1-0.9c-6-2.1-11.8-4.5-16.3-9.2c-7.8-8.1-13.3-17.4-11.8-29
		c1.3-9.9,5.6-18.7,12.7-26C518.7,315.7,519.6,314.7,520.6,313.6z"/>
	<path class="st6" d="M406.2,609.4c2.4,0,2.2,1.3,1.5,2.9c-3,6.8-2.7,13.5,0.3,20.4c3.7,8.3,9.7,14.3,17.5,18.7
		c2.4,1.3,4.9,2.4,7.3,3.7c1.2,0.6,3.1,1,2.2,3c-0.8,1.6-2.4,1.4-3.9,1c-4.4-1-8.6-2.9-12.3-5.3c-8.9-5.8-16.1-13.1-20.2-23.2
		c-2.7-6.8-0.3-12.2,4.1-17.2C403.9,612,405.1,610.7,406.2,609.4C406.3,609.3,406.2,609.4,406.2,609.4z"/>
	<path d="M439.5,368.1c-0.3-0.3-0.6-0.6-1-1c-0.8-1.3-1.2-2.3,0.2-3.7c5.7-5.6,12.5-7.6,20.2-6.9c2.1,0.2,4.6,1.4,4.9,4
		c0.2,2.3-1.3,4.3-3.4,5.5C453.7,369.8,446.7,369.8,439.5,368.1z"/>
	<path class="st25" d="M417.9,629.8c1.9-6.2,8.3-6,12.7-8.8c-1.8,5.3-4.2,10.4-5.1,16c-0.4,2.7-1.9,2.9-4,0.9
		C419.2,635.6,417.6,633.1,417.9,629.8z"/>
	<path class="st2" d="M501,547.8c0.2-3.7-0.2-7.3,0.8-11c2.5-10.2,7.1-9.7,14.5-6.5c7.4,3.2,9.2,7.2,7.1,14.9
		c-2.4,8.7-8.3,15-15.4,20.1c-3.1,2.2-5.7,0.7-5.9-3C501.7,557.4,500.2,552.7,501,547.8z"/>
	<path class="st2" d="M475.5,533.1c2.7-2.2,5.8-3.4,9.2-3.8c3.8-0.4,8.1,3.6,9.3,8.5c2.2,8.5,1.1,17-0.3,25.4
		c-0.7,4.6-2.4,5.1-6.9,3c-1.4-0.7-2.7-1.9-4.4-1.7c0,0,0-0.2,0-0.2c-2-3-1.6-6.6-2-9.9c-0.7-5.8-1.8-11.5-4.5-16.7
		C475.2,536.3,474.6,534.8,475.5,533.1z"/>
	<path class="st1" d="M475.5,533.1c5.1,9.8,7.2,20.3,7,31.2c-6.9-5.3-11.7-11.8-11.7-21c0-4,2.5-6.9,4.1-10.1
		C475,533.2,475.2,533.2,475.5,533.1z"/>
	<path class="st26" d="M509.8,349.7c-2.8-8.6,0.3-16.4,4.4-23.3c4.2-7,10.4-12.3,18-16c9.3-4.5,18.1-3.3,26.6,1.9
		c3.4,2,6.4,4.6,9.6,7c4.9,6,8,12.7,8.8,20.5c0.3,3,1,6.1-1.3,8.8c-2.5,1.3-4.6-0.6-6.9-0.9c-1.1-0.1-2.2-0.5-3.3-0.4
		c-1,0.1-2.1,0.2-2.3,1.2c-0.2,1.2,1,1.4,1.9,1.8c3,1.1,6.3,1.1,9.1,3c1.3,3.8-1.1,6.1-3.6,8.2c-2.4,2.1-4.8,1-7.1-0.4
		c-1.1-0.7-2.3-1.5-3.5-1.5c-9.7-0.6-14.8-7.5-20.2-14.2c-1.8-2.3-4.1-4.1-5.5-6.5c0.6,2.3,3.4,4.2,1.8,7.1c-2.7-3-5.2-6.1-6.9-9.8
		c-1-1.6-0.2-2.9,0.9-3.8c3.7-3.2,7.4-6.6,12.6-7.3c3,2.6,4.9,0.6,6.9-1.5c1.8-1.8,2.9-3.8,3.4-6.3c0.7-2.9-1.3-3.6-3.4-4.2
		c-5-1.4-10.1-1.5-15.1,0.1c-0.4,0.2-0.8,0.4-1.2,0.5c-5.5,3.1-10.5,6.8-14,12.1c-1.3,1.3-2.4,2.8-3.1,4.5
		c-2.7,5.1-3.8,10.6-4.9,16.1C510.8,347.5,510.9,348.8,509.8,349.7z"/>
	<path class="st22" d="M533.2,312.6c6.3-3.6,12.6-2.2,18.9-0.3c2.6,0.8,3.6,2.7,1.5,5.1c-0.4,0.3-0.8,0.4-1.2,0.4
		c-4.1-0.5-5.3,2.8-6.9,5.5c-0.7,0.9-1.5,1.8-2.7,1.8c-3.8,1.8-7.4,4-10.7,6.6c-1.4,1.1-2.9,2.2-2.9,4.3c-0.9-0.5-2.2-1.7-1.8,0.9
		c1.2,6.2-2,11.9-2.2,17.9c-0.2,0.5-0.5,0.9-0.8,1.2c-0.4,0.3-0.8,0.5-1.2,0.7c-1.7,0.8-4.1,1.3-3.8,3.6c0.4,2.2,2.8,0.1,4.1,1
		c0.2,0.2,0.5,0.4,0.6,0.7c0.4,0.9,0.6,1.9,0.5,2.9c-0.1,1.9,0.2,4.2-2.2,4.9c-2.1,0.6-3.3-0.9-4.5-2.3c-3.2-3.9-6-8-7.3-12.9
		c-1.6-1.4-0.3-3.2-0.8-4.7c0.3-7.3,1.7-14.3,5.7-20.6c2.8,0.6,5.1,2.8,8.1,2.6c1-0.1,2,0,2.4-1.1c0.4-1.1-0.5-1.7-1.1-2.4
		c-1.7-1.8-4.7-1.1-6.3-3.1C521.9,319,527.1,315.2,533.2,312.6c-0.6,5.6-0.6,5.6,1.5,8.8C536.4,317.8,536.4,317.4,533.2,312.6z"/>
	<path class="st27" d="M536.1,345.8c-0.7-4-3.6-7.1-4.1-11.4c5.2,6,10.6,11.9,15.7,18.1c1.8,2.2,3.5,3.7,6.6,4.2
		c3.9,0.6,7.9,1.4,11.3,4.1c2.9,2.3,4.9-0.2,6.4-2.1c1.2-1.4,2.2-3.2,2.2-5.3c-0.7-1.8-0.3-3.3,1-4.7c2.8-9.8-1-18.2-5.5-26.4
		c-0.5-1-1.4-1.8-1.3-3c15.4,13.3,14.7,33.8,1.2,47.2c-1.5,1.5-2.3,1.8-4.3,0.3c-5.5-4.2-11.1-8.8-18.8-8.4
		c-1.8,0.1-2.7-1.3-3.5-2.4C540.6,352.7,538.4,349.2,536.1,345.8z"/>
	<path class="st26" d="M524.4,355.3c-0.7-6.4,2.1-12.3,3.1-18.5c3.3,7.6,5.3,15.6,8.1,23.3c0.5,1.4,0.5,1.7-0.9,2.4
		c-3.6,1.7-6.2,4.3-7.5,8.1c-0.8,2.4-2.2,2.9-4.6,1.5c-6.9-4-10.7-10-11.9-17.7c2.3,4.2,4.6,8.4,7.8,12c1,1.1,2,3,3.9,2.4
		c2.1-0.7,1-2.8,1.2-4.2c0.1-1.1,0-2.3,0-3.4c-0.2-0.4-0.2-0.8,0-1.2c0.4-0.5,0.9-0.8,1.5-1.1C527.8,357.3,527.2,356.2,524.4,355.3z
		"/>
	<path class="st10" d="M548.8,376.8c-5,1.5-10.1,1.2-15.1,0.1c-4.1-0.9-4.7-2.3-2.4-5.9c1.1,0.7,1.4,2.2,2.6,2.8
		c1.3,0.7,2.5,0.2,3.5-0.7c0.6-0.6,1-1.4,0.6-2.2c-0.6-1.3-1.8-1.2-2.9-0.9c-0.9,0.2-1.9,0.6-2.8,0c1.1-4,4.7-4.6,7.7-6
		c2.8-0.8,5.4-0.4,7.9,0.8C553.6,367.8,554,373,548.8,376.8z"/>
	<path class="st8" d="M548.8,376.8c4.6-6,3.2-9.8-4.2-11.6c-1.5-0.4-3.1-0.7-4.7-1.1c8.2-4.8,17.4,0.1,21.5,4.4
		c1.8,1.9,2,3.2-0.8,4.5C556.8,374.9,552.9,376.2,548.8,376.8z"/>
	<path class="st16" d="M532.2,370.1c0.4-0.2,0.9-0.4,1.3-0.7c2.5-1.6,5.1-1.9,6.3,1.3c1,2.8-1.6,3.9-3.6,4.7
		c-3.2,1.3-4.3-0.8-4.8-3.4c-0.1-0.3,0-0.6,0-1C531.6,370.7,531.9,370.4,532.2,370.1z"/>
	<path class="st28" d="M537.5,359.8c-1.5-3.7-3-7.5-4.5-11.2c2.6,3.3,5.1,6.6,5.8,10.7C538.4,359.5,538,359.6,537.5,359.8z"/>
	<path d="M566.5,329.4c-0.4,2.6-2.5,4.1-4.4,5.3c-2,1.2-4.2,3.3-7,2c-1.5-0.7-1.7-2-0.9-3.7c1.2-2.6,2.7-5,5-6.8
		c1.2-0.9,2.4-2.3,4.1-1.5C565,325.5,565.6,327.5,566.5,329.4z"/>
	<path d="M575.2,348.7c0.1,1.7,0.2,3.3-1,4.7c-3.5-0.7-7.1-1.3-10.6-2.3c-1.1-0.3-3.1-0.7-2.9-2.6c0.2-1.7,2.1-2.2,3.2-2.4
		C568,345.2,571.7,346.8,575.2,348.7z"/>
	<path class="st28" d="M518.6,325c3.3,0,6.3,0.6,8.6,3.3c0.8,0.9,1.5,1.8,1,3c-0.4,1.1-1.4,1.7-2.6,1.7c-3.9,0-7.7-0.1-10.1-3.9
		C515.6,327.1,517.1,326,518.6,325z"/>
	<path d="M542.8,325.2c0.7-0.7,1.3-1.3,2-2c2.6-2,5.6-3.5,7.9-5.8c0.3,0,0.6,0.1,0.9,0.2c0.3,5.2-4,7.4-7,10.2
		C544.7,329.3,543.1,327.5,542.8,325.2z"/>
	<path class="st28" d="M523.5,344.9c-0.5,0.5-0.8,1-1.3,1.5c-1.3,1.3-2.8,2.1-4.6,2.2c-2.3,0.1-5.2,2.8-6.7-0.6
		c-1-2.3,1.5-3.3,3.3-4.5c3-2,5.8-2.3,8.6,0.2C523.1,343.9,523.2,344.4,523.5,344.9z"/>
	<path class="st28" d="M533.2,312.6c3.4,1.4,5.5,8,3.3,10.7c-1,1.2-1.8,1-2.8,0C530.7,320.2,530.6,316.2,533.2,312.6
		C533.3,312.6,533.2,312.6,533.2,312.6z"/>
	<path class="st28" d="M523.5,360.4c0,0.3,0,0.6-0.1,0.9c-1.7,0.4-2.8,2.8-5,1.3c-1.1-0.8-1.1-2.1-0.7-3.1c1-2.6,3-3.9,5.8-3.9
		C524.9,357.2,524.6,358.8,523.5,360.4z"/>
	<path class="st28" d="M552.7,317.3c-0.9,4.3-4.6,4.8-7.9,5.8C547.1,317.1,548.7,315.9,552.7,317.3z"/>
	<path d="M523.5,360.4c0-1.6,0-3.2,0-4.8c0.3-0.1,0.6-0.2,0.9-0.3c1.6-0.6,3.5-1.8,4.6,0.5c0.9,2-1.2,2.7-2.4,3.5
		C525.7,359.9,524.5,360,523.5,360.4z"/>
</g>
</svg>
