<?xml version="1.0" encoding="utf-8"?>
<!-- Generator: Adobe Illustrator 23.0.1, SVG Export Plug-In . SVG Version: 6.00 Build 0)  -->
<svg version="1.1" id="Layer_4" xmlns="http://www.w3.org/2000/svg" xmlns:xlink="http://www.w3.org/1999/xlink" x="0px" y="0px"
	 viewBox="0 0 1000 1000" style="enable-background:new 0 0 1000 1000;" xml:space="preserve">
<style type="text/css">
	.st0{fill:#FE1F00;}
	.st1{fill:#AF0000;}
	.st2{fill:#FEFEFE;}
	.st3{fill:#FEDD00;}
</style>
<g>
	<path d="M475.8,316.2c15.8,1.6,32.1,2.3,48.4,4c14.4,1.5,28.7,3.2,42.2,8.1c15,5.4,30.2,10.8,43.2,20.5c12,8.9,10.8,30-2.2,36
		c-2.9,1.3-3,3.8-4,6.1c-1.5,3.5,0.6,4.2,2.6,5.8c6.3,5.1,6.8,14.8,1.1,21.1c-1.8,2-3.5,4.2-6.1,5.4c-1.1,0.5-2.6,1.6-2.3,3.4
		c0.6,4.6-1,8.9-1.1,13.4c-0.5,20.8-1.7,41.6-2.2,62.5c-0.2,9.3-0.1,18.7-0.7,28.1c-0.4,6.8-1.4,13.5-0.9,20.3
		c0.3,4.6,0.8,9.3,0.9,13.9c0,1.6,1.1,1.7,2,2.2c9.9,6.2,15.4,17.6,5.1,28c-1.4,1.4-1.4,2.9-1.1,4.5c0.5,3.1,0.9,6.3,2,9.2
		c1.7,4.2,2.7,8.6,8.1,11c7.7,3.6,13.4,9.9,16.2,18.3c3,9.2-1.5,22.2-11.5,28.1c-13.8,8.1-28.2,14.6-43.9,17.4
		c-12.4,2.2-24.9,3.9-37.5,4.2c-6.7,0.1-13.5,1.5-20.3,0.8c-19.2-1.9-38.6-2-57.7-5.5c-9.4-1.8-19.2-2.4-28.4-5.2
		c-10.8-3.3-21.7-7.1-30-15.1c-11.5-10.9-11.9-27.2,0-40.1c2-2.2,4.3-4.4,6.9-5.9c3.6-2.1,4.5-5.4,4.6-9c0.2-3.5,0.9-6.9,1.8-10.2
		c0.4-1.6,0.3-3-1-4.4c-4-4-6.2-9.2-7.3-14.5c-1.3-6.3,1.3-11.9,6.7-15.3c2.9-1.8,3.2-3.9,2.7-6.3c-1.3-6.5-1.2-13-1.9-19.5
		c-1.7-16.1-2.1-32.3-3.7-48.4c-0.9-8.9-1.8-17.9-2.2-26.8c-0.4-10.2-2.9-20.1-4.2-30.2c-0.2-1.8-1.4-3.1-3.1-4.3
		c-6.6-4.5-8.7-12-6.5-20c1-3.5,3.2-6.8,1.3-10.9c-0.7-1.5-1.3-2.8-2.4-3.9c-14.6-14.3-13.3-30.7-1-45.2
		c13.4-15.9,31.2-23.7,51.4-27.4C451.5,318.1,463.4,317.1,475.8,316.2z"/>
	<path class="st0" d="M547.9,596.7c-6.1,2.6-12.7,2.9-19.1,3.8c-6.7,0.8-13.4,1.3-20.1,1.9c-8.2,0.8-16.4-0.8-24.5-2
		c-17.9-2.8-34.5-9.6-50.8-17.5c-3.6-1.7-6.9-4-10.5-5.7c-3-1.4-3.8-4.1-3.9-6.7c-0.3-11.9-2.4-23.6-3.2-35.5
		c-1-14.8-1.7-29.6-2.8-44.3c-1.1-14.6-2.5-29.1-4-43.6c-0.3-2.5-0.9-5-0.9-7.6c1.8-0.9,3.5-0.2,5.2,0.3c21.4,6,43.3,8.3,65.3,10.1
		c4,0.3,8.1,0.6,12,1.6c1.7,1.5,1.6,3.4,1.4,5.4c-1.8,17.8-4.2,35.5-10.1,52.6c-0.4,1.1-0.6,2.2-1.1,3.2c-0.4,0.9-0.8,2-1.9,2
		c-1.1,0-1.6-1-2.1-1.8c-2.4-4.7-3.4-9.8-4.4-14.9c-0.2-0.9-0.1-2-1-2.9c-4.6,4.9-6.4,11.1-8.7,17.2c-6.1,16.4-6.9,32.9-1.2,49.6
		c4.9,14.3,13.6,24.2,29.5,27.3c-2.9-6.3-5.1-12.7-6.3-19.5c-1.4-7.9-0.2-14.9,6.7-19.5c7.6-5.1,15.6-4,23,0.6
		c10,6.2,14.3,19.4,10.5,30.9c-0.5,1.7-1.2,3.3-2.2,5.5c14.6-10.7,22.1-24.7,23.6-41.9c0.1-1.5-0.3-2.9-0.4-4.4
		c-0.5-5.3-1.9-10.6-0.5-16c2.3-8.7,0.1-16.7-3.8-24.5c-1.9-3.8-4.2-7.3-7-11.2c-0.6,8.2-2.2,15.7-4.9,23c-0.7,2-1.5,4-2.7,5.7
		c-1.5,2.4-2.9,2.3-4.1-0.3c-0.9-2.1-1.6-4.3-2.2-6.5c-5.7-19.5-14-37.8-26.6-53.9c-1.2-1.6-2.9-3.2-1.5-5.5
		c8.1-1.7,16.2-0.9,24.3-0.5c3.9,0.2,7.8,0.7,11.7,0.7c7.9,0.1,14,3.4,18.6,9.8c7.8,11,10.8,23.7,12.6,36.6
		c2,14.5,2.7,29.1,3.4,43.7c0.5,11.8,1,23.4-1.4,34.9C560.1,585.4,556.5,592.9,547.9,596.7z"/>
	<path class="st1" d="M491.3,452.3c-26.1-1.9-52.2-3.9-77.7-10.9c-1.9-0.5-3.7-1.3-5.5-1.9c-1.9-1.8-0.1-4.3-2.1-7.2
		c8.2,3.1,15.5,5.1,22.8,7.1c10,2.7,20.2,3.6,30.4,4.8c10.9,1.3,21.9,2.7,32.8,2c17.6-1.1,35.2-2.9,52.6-6.1
		c9.8-1.8,19.5-3.9,29.1-6.4c4.8-1.3,9.5-3.1,14-5c3.6-1.5,4.6-0.4,4,2.9c-2.2,12.7,0.5,25.6-1.9,38.2c-0.1,0.5,0,1,0,1.5
		c0.5,20.5-1.1,40.9-1.2,61.3c0,9.5-0.5,19.1-0.8,28.6c-0.1,3.4,1.4,6.4,0.8,10c-1.5,7.9-7.2,11.7-13.4,15.3
		c-8.5,5-17.5,8.7-27.3,10.2c1.4-3.1,5-3.9,6.9-6.7c4.3-6.4,5.7-13.4,6.9-20.9c2.2-13.6,0.1-27.2-0.5-40.7
		c-0.7-17.3-1.9-34.8-7.7-51.4c-2.8-7.8-6.1-15.6-13.5-20.8c-2.8-1.9-5.9-3-9-3.1c-12.9-0.5-25.9-1.8-38.8-1
		C491.8,452.6,491.6,452.6,491.3,452.3z"/>
	<path class="st0" d="M465.7,652.4c-15.5-1.2-30.5-3.8-44.3-11.8c-6.7-3.9-6.5-10.2-7.2-16.1c-1-8.8,2.1-17.4,3-26.6
		c12.3,6.2,25.3,10.4,38.1,14.9c12.2,4.3,24.9,6.4,37.8,7.6c10.5,1,20.9,0.2,31.3-0.3c4.3-0.2,8.4-2,12.7-1.8
		c2.7,5.7,0,15.1-5.6,20.2c-8.8,7.9-19.3,11.9-30.8,13.3C489,653.3,477.4,653.2,465.7,652.4z"/>
	<path class="st1" d="M465.7,652.4c13.7-0.7,27.5-0.4,41-3.1c9.4-1.8,17.9-5.9,24.7-12.6c4.9-4.9,6.2-11.6,5.6-18.5
		c18.3-3.6,36.3-8.3,52.8-17.3c3-1.6,4.3-1.7,5.1,2.3c1.3,7.1,3.5,13.9,5.3,20.9c1.6,6.5-1.7,13.3-7.8,16.5
		c-12.6,6.4-26.3,9.2-40,11.5c-16.4,2.7-33.1,3.6-49.7,3c-11.9-0.4-23.8-1.3-35.8-2C466.5,653.2,466.1,652.7,465.7,652.4z"/>
	<path class="st1" d="M485.3,660.3c12,0.5,23.9,1.4,35.9,0.8c19.3-0.9,38.5-2.3,56.9-8.8c4.8-1.7,9.7-3.2,14.5-5.1
		c8.9-3.5,12.5-10.1,12.8-19c0-0.9,0.2-1.9,0.3-3.4c8,3.8,14.2,9,15.1,17.7c1,9.2-4.3,15.3-12,19.8c-14.9,8.7-31.2,13-48.2,15.6
		c-16,2.4-32,4.2-48.1,3.6c-14.8-0.5-29.6-1.1-44.2-3.5c-6.7-1.1-13.6-1.2-20.3-3c1.6-1.8,3.8-1.5,5.9-1.5
		c6.2-0.1,12.3,0.4,18.5,0.8c15.6,0.9,31.2-0.5,46.7-1.4c7.5-0.4,14.9-0.9,22.2-3c1.7-0.5,3.5-0.6,5.2-2.2c-2.1-1.2-4.1-0.9-6.1-1
		c-15.9-0.4-31.8-1.5-47.6-3.1C490.2,663.1,486.9,663.7,485.3,660.3z"/>
	<path class="st0" d="M558.6,417c-8.4,3.2-17.3,5-26.1,6.6c-16.1,2.8-32.4,5.8-48.7,4.9c-24.2-1.3-48.4-3.4-70.8-14.3
		c-7.5-3.7-13.3-8.2-14.3-17.2c11.3,4.9,23.4,6.8,35.7,7.4c11.7,0.3,23.3,1,35,2.3c27.4,3,55.2,2.7,82.4,7.8
		C554.3,415,556.8,415,558.6,417z"/>
	<path class="st1" d="M558.6,417c-7-1.1-14-1.8-20.9-3.3c-4.6-1-9.3-0.8-13.9-1.4c-11.3-1.3-22.8-1.3-34.2-2.2
		c-13-1-25.9-2.6-38.9-3.7c-5.4-0.5-10.9,0-16.1-1.9c12.4-1.4,24.8-1.3,37.2-2.2c11.6-0.8,23.2-1.5,34.8-1.9
		c20.2-0.7,67.7-5.5,90.5-12.4c0.8,8-3.1,13.5-9.6,17.1c-8.3,4.6-17,8.5-25.8,11.9C560.7,417.2,559.6,417,558.6,417z"/>
	<path class="st0" d="M417.9,396.6c-7.1,0-13.4-2.5-19.4-6.1c-1.5-2.1-3.3-4.1-4.4-6.4c-7-14.9-4.6-25.5,11.1-37.5
		c12-9.2,26.5-12,41.1-13.9c18.2-2.3,36.5-3.6,54.9-3c20.1,0.6,40.2,2.1,60.2,5c2.7,0.4,5.3,1.5,8,2.1c12.8,4.4,25.2,9.6,36.2,17.5
		c2.4,1.7,4.4,4.6,4.7,8c-1.9,3.2-4.6,4.6-8.2,3.2c-5.7-8.8-14.5-12.6-24.2-15.2c-23.2-6.1-46.6-10.5-70.6-12.1
		c-11.2-0.7-22.3-2.1-33.6-1.8c-15,0.4-29.9,2-44.4,5.6c-11.5,2.8-21.2,8.9-28.9,18.1c-6.3,7.7-5,15.8,3.7,20.9
		c4.1,2.4,8.7,3.6,13.4,4.3c16.5,2.7,33,2.4,49.6,1.3c4.9-0.3,10-1.8,14.7,1.2c-0.7,2.2-2.7,2-4.4,2.3c-15.7,2.6-31.4,5.2-47.3,6.4
		C426,397,421.9,397.5,417.9,396.6z"/>
	<path class="st0" d="M485.3,660.3c4.8,2.2,10.1,2.4,15.1,2.6c14.1,0.6,28.1,2.6,42.2,2.1c2.7-0.1,5.1,0.5,7.7,2
		c-1.7,2.6-4.4,3.1-6.9,3.9c-10.8,3.1-22,3.4-33.1,3.9c-12,0.5-24,1.7-36,0.9c-8.7-0.6-17.5-1.1-26.2-0.8
		c-13.8-1.6-26.8-5.7-39.2-11.9c-1.1-0.5-1.8-1.7-2.7-2.6c1.7-1.6,3.4-0.2,5,0.3c6.5,2.1,12.8,4.8,19.6,5.6c1,0.1,1.9,0.4,2.9,0.4
		c2.5,0,5.2-0.4,6.1-3.1c0.9-3-1.6-4.4-3.8-5.4c-6.3-2.9-13-5-19.2-8.3c-3.2-1.8-6.1-3.8-8-6.9c-2.6-4.3-2.1-8.2,1.2-11
		c0.9,6.2,3.4,10.9,9.4,14c12.6,6.4,25.8,9.5,39.6,11.6C467.8,658.7,476.6,659.2,485.3,660.3z"/>
	<path class="st1" d="M417.9,396.6c15-1.9,30.1-3,45.1-5.7c6.1-1.1,12.4-1.6,18.5-3c4.2-2.7,9.1-2,13.6-2.4
		c17.3-1.6,34.6-3.1,51.9-4.7c11-1,22-1.6,32.9-3.5c8-1.4,14.8-4.7,20.5-10.4c0.7-0.7,1.4-1.4,2.4-1.6c3,0.2,5.1-1.8,7.5-2.9
		c2.2,6.9-0.8,14.2-7.2,17.4c-10,5.1-21,6.7-31.8,8.8c-12.8,2.5-25.8,3-38.8,4.1c-18.3,1.5-36.7,2.3-55.1,3
		c-11.4,0.5-22.9,1.1-34.3,2C434.5,398.4,426.2,398.6,417.9,396.6z"/>
	<path class="st2" d="M569.3,336.8c-6.9,0.1-13.7-1.3-20.5-2.1c-7.1-0.9-14.3-2.1-21.3-2.4c-17-0.8-34-2.2-51-1.1
		c-17.1,1.1-34.5,2.2-51,6.9c-11.7,3.3-22.2,9.2-29.7,19.5c-5.7,7.9-4.7,16-1.3,24.3c1.2,2.9,3.3,5.4,3.9,8.6
		c-4.3-2.7-8-6.1-10.7-10.5c-4.2-6.8-2.8-18.1,2.9-25c13.3-16.1,30.6-25.1,51.1-28.9c12-2.2,24-4.4,36.1-3.6c15,1,30,1.9,44.9,3.5
		c12.8,1.4,25.3,3.7,37.7,7.1C563.5,333.9,566.7,334.8,569.3,336.8z"/>
	<path class="st0" d="M528.3,614.1c-6.4,0.7-12.7,1.9-19.1,2c-20.1,0.5-39.2-3.9-57.9-11c-10.6-4-21.1-8.1-31.2-13.2
		c-5.8-2.9-9-7.6-10.7-13.4c-1.1-4,1.3-7,4.5-10.6c0,9.5,5.5,13.6,12.6,17.1c14.8,7.5,30.2,13.6,46.1,17.9c7,1.9,14.5,2.3,21.7,3.5
		c12.2,2.1,24.3-0.1,36.5-1c2.1-0.1,3.9-1.7,6.1-0.8c2,3.3-0.3,5.1-2.6,6.7C532.7,612.7,530.4,613.2,528.3,614.1z"/>
	<path class="st0" d="M535.1,436.4c-4.6,2.1-9.6,2.3-14.4,2.9c-10.1,1.2-20.3,2.6-30.3,1.9c-25.1-1.8-50.6-2.4-74.6-11.5
		c-7.1-2.7-14.3-5.6-18.7-12.5c-2-3.1-2.3-6.3-0.1-9.7c9.1,14.3,24.6,16.5,39.1,20.1c13.5,3.3,27.4,4.3,41.4,5.4
		c15.9,1.2,31.3-0.6,46.9-3c7.5-1.2,15.1-2.4,22.5-3.9c0.4,4.6-2.6,6.8-6.2,8.6C538.8,435.4,536.9,435.7,535.1,436.4z"/>
	<path class="st2" d="M410,631.8c-3,7.1-1.3,11.8,5.4,15.7c6.2,3.6,12.8,6.2,19.4,8.6c3.8,1.4,7.4,3.2,7.1,7.6
		c-0.2,3.1-6.5,4.8-10.9,3.9c-8.2-1.6-16.1-4.2-23.8-7.5c-0.3-0.1-0.6,0.1-1,0.1c-4.6-3.1-8.3-6.5-10-12.5c-1.9-6.9,0.9-12,4-17.2
		c2.1-3.4,4.5-6.9,9-8.2C408.4,625.7,410.2,628.7,410,631.8z"/>
	<path class="st1" d="M528.3,614.1c0.9-1.7,2.7-2.2,4.3-2.9c2.9-1.3,4.7-3.2,4.5-6.6c5.7-1.7,11.6-2,17.2-4
		c11.1-3.9,21.7-8.5,31.4-15.4c4.6-3.3,6.2-7.5,7.3-12.4c4.7,1.6,7.3,5.1,7.5,9.7c0.2,5.7-4.3,8.8-8.7,11.2
		c-18,9.8-36.8,17.2-57.4,19.6C532.4,613.5,530.5,614.9,528.3,614.1z"/>
	<path class="st1" d="M535.1,436.4c4.4-3,10.3-4.1,11.7-10.4c11.8-2.5,23.4-5.5,34.2-11c6.7-3.4,13.3-7.2,17.7-13.7
		c1.9-2.8,3.4-0.8,4.5,0.5c2.4,2.8,1.4,7.3-2.1,11.4c-5,5.9-11.8,8.8-18.6,11.8c-14.3,6.3-29.7,8.5-44.9,11.6
		C536.8,436.6,535.9,436.4,535.1,436.4z"/>
	<path class="st3" d="M491.3,452.3c0.3-0.1,0.6-0.1,0.8,0c16.1,19.7,26,42.4,32.6,67.5c5.8-11.1,8.6-22.1,8.6-34.9
		c7.6,10.4,14,20,14.5,32.3c0.1,2.7-0.2,5.5-1,8.1c-1.8,5.7,0.4,11.1,0.9,16.6c0.6,6.2-0.9,12.2-2.9,17.9
		c-4.3,12.1-11.4,22.2-23.1,29c-0.4-4.4,2.5-7.5,2.9-11.4c1.9-17.5-7.7-28.2-21.6-29.4c-11.6-1-19,8-17.2,19.4
		c1.3,8.5,4,16.3,8.5,24.6c-8.4-3.1-16.7-4.9-22.6-10.7c-6.4-6.2-9.9-14.4-12.4-23c-7.1-24.4-0.2-46,12.7-67.8
		c2.8,8.6,2.8,16.8,7,23.6C486.6,494.1,489.2,473.2,491.3,452.3z"/>
	<path class="st2" d="M443.5,502.9c-1.4,14.3-2.8,27.9-4,41.6c-0.8,8.7-1.7,17.4-6,25.2c-1.1,2-1.8,4.7-5,4.5
		c-3-0.2-3.8-2.8-4.6-4.9c-2.5-6.4-3.3-13.2-3.8-19.9c-1.1-13.3-1.8-26.7-2.2-40c-0.5-13.8-1.5-27.6-3-41.3
		c-0.6-5.7-0.7-11.2-0.8-16.9c0-5.7,1.9-6.5,7-4.4c8.4,3.5,12.5,10.4,15.1,18.4C440.2,477.7,441.5,490.6,443.5,502.9z"/>
	<path class="st2" d="M448.4,647.3c-6.5-1.1-12.1-2.4-17.5-4.8c-9.6-4.3-13.8-8.3-13.9-19.7c-0.1-5.3,0-10.6,0.8-15.9
		c0.5-3.2,2.2-4.2,4.4-3.4c4.5,1.8,9.6,2.8,10.7,9.3c1.5,9.2,5,17.8,9.3,26.1C443.9,642.1,447.2,643.7,448.4,647.3z"/>
	<path d="M602.7,365.2c-3.9,7.4-10.9,10.8-18.4,12.6c-11.6,2.7-23.4,3.3-35.3,4.2c-12.3,0.8-24.5,2.6-36.8,3.7
		c-10.2,0.9-20.5,1.5-30.8,2.2c-15.9,0-31.7,1.7-47.6,0.7c-10-0.6-20.1-1.2-29.4-5.8c-11.2-5.5-12.5-15.7-4.1-25
		c11.4-12.7,26.2-17.6,42.4-20c13.2-2,26.5-3.6,39.9-2.8c14.7,0.9,29.5,1.6,44.1,3.7c20,2.8,39.9,6.2,59.1,12.7
		C593.1,354,599.3,357.8,602.7,365.2z"/>
	<path class="st1" d="M448.3,383.9c-13.7-0.4-25.9-1.2-37.8-4c-0.6-0.2-1.3-0.1-1.9-0.3c-10.1-4.6-12.5-10.7-3.5-20.2
		c8.1-8.5,18.8-13,30.1-15.4c14-3,28.4-4.9,42.7-4c16.7,1,33.5,1.7,50.1,3.6c16.2,1.8,31.9,5.5,47.7,9c6.2,1.4,11.8,4.2,16.8,8.1
		c3.4,2.7,2.9,5.8-1.3,8.4c-4.9,3-10.5,4-16,4.9c-12.2,2-24.6,2.8-36.9,4c-19.4,1.8-38.9,3-58.4,4
		C468.8,382.6,457.8,382.9,448.3,383.9z"/>
	<path d="M444.3,376c-7.2-0.9-15.7-1.2-22-7.9c-6.1-6.4-5.6-10,2.3-13.9c14.3-7.1,28.7-7.2,43-0.3c9.2,4.5,9.4,10.4,0.9,16.1
		C463.9,373,452.4,376,444.3,376z"/>
</g>
</svg>
