<?xml version="1.0" encoding="utf-8"?>
<!-- Generator: Adobe Illustrator 23.0.1, SVG Export Plug-In . SVG Version: 6.00 Build 0)  -->
<svg version="1.1" id="Layer_4" xmlns="http://www.w3.org/2000/svg" xmlns:xlink="http://www.w3.org/1999/xlink" x="0px" y="0px"
	 viewBox="0 0 1000 1000" style="enable-background:new 0 0 1000 1000;" xml:space="preserve">
<style type="text/css">
	.st0{fill:#7F7F7F;}
</style>
<g>
	<path d="M508.6,325.1c-8.6,0.6-13.6-5.6-17.7-12.5c-4.5-7.6-7.9-15.7-5.6-25c1.6-6.3,4.8-8.1,10.5-7.5c12.5,1.1,18.8,9.8,24.6,19.2
		c1.8,2.9,3.3,5.9,4,9.4c1.5,7.5-0.9,12.1-8,14.5C514.2,324.1,512,325.4,508.6,325.1z"/>
	<path d="M530.3,308.3c-0.4-7,1.1-14.1,3-21.2c1.6-5.8,6.4-8,11.8-5.8c12.9,5.2,18.7,27,7.6,35.6c-4.6,3.6-10,5.2-15.5,6.2
		c-2.6,0.5-6.7-4.5-6.9-8.1C530.2,313,530.3,310.9,530.3,308.3z"/>
	<path class="st0" d="M503.2,287.7c8.2,3.7,13,10.4,16.8,18.1c1.7,3.5-1.7,4.5-3.9,5.4c-3.1,1.2-5.9-0.5-6.1-3.5
		C509.4,300.4,506.2,294.3,503.2,287.7z"/>
	<path class="st0" d="M545.8,286.5c9.1,7.4,11.2,14.3,5,23c-2.1,2.9-2.9,2.2-4.2-0.4c-0.6-1.3-1-2.5-0.7-3.7c0.6-3.1,2.5-6,1.9-9.3
		C547.3,292.9,546.5,289.8,545.8,286.5z"/>
</g>
</svg>
