<?xml version="1.0" encoding="utf-8"?>
<!-- Generator: Adobe Illustrator 23.0.1, SVG Export Plug-In . SVG Version: 6.00 Build 0)  -->
<svg version="1.1" id="Layer_4" xmlns="http://www.w3.org/2000/svg" xmlns:xlink="http://www.w3.org/1999/xlink" x="0px" y="0px"
	 viewBox="0 0 1000 1000" style="enable-background:new 0 0 1000 1000;" xml:space="preserve">
<style type="text/css">
	.st0{fill:#FEFEFE;}
	.st1{fill:#00407F;}
	.st2{fill:#004080;}
</style>
<g>
	<path d="M501.9,382.7c0.2-6.5,0.4-11.8,3-16.5c1.6-2.9,4-5.2,7.6-4.9c3.8,0.3,5.8,3.9,5.8,6.6c-0.2,8.5,0,17.2-3,25.4
		c-0.7,1.8-1.6,4.1-4.1,4.1c-2.7,0-4.9-1.7-6.1-3.8C502.8,389.9,501.2,385.9,501.9,382.7z"/>
	<path d="M526.4,379.1c0.3-4.3-0.9-9.4,1.1-14.1c1-2.5,2.3-5.5,5.3-5.4c2.9,0.1,3.7,3,4.3,5.6c2,9.4,1.3,18.5-2.9,27.3
		c-1,2.2-2.9,3.3-4.9,2.9c-2.2-0.4-2.9-2.7-2.9-4.9C526.3,386.9,526.4,383.3,526.4,379.1z"/>
	<path class="st0" d="M516.6,372.5c0.1,1.8,0.3,3.7-1.6,4.3c-2.1,0.7-3.3-1.1-4.2-2.5c-1.1-1.7-1.8-3.6-2.7-5.5
		c-1.1-2.2,0.6-3.4,2.1-4.3c1.4-0.8,3.4-0.8,4.2,1C515.4,367.9,517.2,369.9,516.6,372.5z"/>
	<path class="st1" d="M511.7,391.7c-0.1,1.2,0.2,3.2-1.8,2.6c-3.7-1.3-4.9-4.8-6-8.2c-0.3-1.1,0-2.3,1.7-2.2
		C508.1,383.9,511.6,388.4,511.7,391.7z"/>
	<path class="st0" d="M536.1,371.3c0,1.2,0.3,3.3-1.7,3.5c-1.8,0.2-3-1.5-3.2-3.4c0-0.3-0.1-0.6-0.2-0.9c-1.7-2.8-0.6-5.2,1.1-7.4
		c0.3-0.4,1.4-0.7,1.6-0.5c1.9,1.7,2.3,4,2.4,6.4C536.2,369.5,536.1,370.2,536.1,371.3z"/>
	<path class="st2" d="M527.3,387.3c0-2.3,0.3-5.4,2.1-4.9c2.7,0.6,3.4,3.9,3.7,6.6c0.2,1.7-0.3,3.6-2.3,3.4
		C527.8,392.1,527.7,389.3,527.3,387.3z"/>
</g>
</svg>
