<?xml version="1.0" encoding="utf-8"?>
<!-- Generator: Adobe Illustrator 23.0.1, SVG Export Plug-In . SVG Version: 6.00 Build 0)  -->
<svg version="1.1" id="Layer_4" xmlns="http://www.w3.org/2000/svg" xmlns:xlink="http://www.w3.org/1999/xlink" x="0px" y="0px"
	 viewBox="0 0 1000 1000" style="enable-background:new 0 0 1000 1000;" xml:space="preserve">
<style type="text/css">
	.st0{fill:#6E3720;}
	.st1{fill:#FB9A7A;}
	.st2{fill:#7F7F7F;}
</style>
<g>
	<path class="st0" d="M504.1,646.4c-24.2,0.6-45.5-1.4-66.1-7.9c-13-4-16.7-11.9-10.6-25.2c3.9-8.4,1.9-16.3-0.2-24.2
		c-2.1-8.2-5.1-16.1-4.3-24.7c0.6-6.8,1.4-13.7,3.1-20.3c1-4,0.1-7.3-1.5-10.4c-5.4-10.4-9.8-21.3-13.9-32.2
		c-3.4-9.1-4.5-18.7,1.6-27.4c1.4-2,0.1-3-0.5-4.2c-3.9-8.1-9-15.6-11.7-24.3c-2.2-7-3.8-14-4.7-21.3c-0.9-7.1-1.4-14.1,0.7-20.9
		c2.8-9.1,9-16.1,16.7-21.4c14.9-10.3,31.7-16,49.4-19.7c15.5-3.2,31.2-4.5,46.9-3.8c26.4,1.3,52.1,5.9,75.3,19.3
		c16.7,9.6,25.8,23.9,24,43.8c-1.4,15.4-6,29.7-14.4,42.8c-2.5,3.9-3.9,7.6-1.2,13.1c4.9,10.2,1.6,20.9-2.3,31
		c-2.4,6.2-5.5,12.1-8.9,17.8c-5.2,8.7-5,17.8-3,27.3c2.3,10.7,1.7,21-1.7,31.5c-3.1,9.8-5.2,19.5-0.5,30.5
		c5.5,12.6,1.1,19.3-13.6,23.9c-11.8,3.6-24.2,4.9-36.6,6.3C517.9,646.6,509.7,646,504.1,646.4z"/>
	<path class="st1" d="M571.7,469c3.1,2.9,6.7,4.1,9.2,7c5.8,6.8,4.5,14.2,2.3,21.8c-3.4,11.4-10.6,20.8-15.7,31.4
		c-2.8,5.8-3.9,11.6-1.5,17.6c2.1,5.4,3.6,11,4.3,16.7c0.8,6.2-0.9,12.1-2.5,18c-1.5,5.9-3,11.8-4.1,17.8
		c-1.1,6.1,1.3,11.7,3.4,17.3c2.8,7.5,0.5,11.7-7.3,13.3c-8.9,1.8-18,3-27,4.2c-13.6,1.8-27.1,1.8-40.7,1.6
		c-16.4-0.2-32.7-2.4-48.7-5.8c-7.6-1.6-10.6-6.2-7.3-12.9c5.5-11.3,3.5-22.2-0.1-33.2c-3.7-11.6-4.3-22.9,0.4-34.3
		c2.9-7.1,2.3-13.7-1.4-20.7c-6-11.5-12.2-22.9-15.6-35.6c-2.8-10.2,1.4-18.3,9.5-22c0.8-0.4,2-0.4,2.2-1.6
		c-0.2-0.2-0.4-0.6-0.5-0.6c-5.4,1-8.2-1.6-10.6-6.3c-7.4-14.4-13.9-29-14.5-45.4c-0.4-12.5,5-22.3,15.3-29.4
		c13.5-9.2,28.7-14.1,44.4-17.6c11.8-2.6,23.8-3.6,35.9-3.9c16.7-0.4,32.8,3.4,48.8,7.5c11.8,3,23.1,7,33.1,13.9
		c11.8,8.2,16.3,19.3,14.3,34.9c-1.6,12.2-6.3,23.1-10.6,34.3c-0.3,0.9-0.9,1.7-1.4,2.6C582.5,465,579.9,470.8,571.7,469z"/>
	<path class="st0" d="M508.8,417c-2.4,15.3,0.3,30,4.3,44.7c0.6,2.1,1,3.1,4.2,2.6c17.1-2.7,32.6-10.1,48.8-15.5
		c14.1-4.7,15.5-15.9,17.9-27.2c3.4-16.2-6.3-25.8-17.4-34.7c-0.7-0.6-1.6-1.1-2.3-1.7c-0.6-0.5-1-1.1-2.1-2.5
		c14.3,5.5,24.1,13.8,27.5,28.2c1.3,5.7-1,11.2-2.2,16.6c-3.3,14.7-11.6,27.1-21,38.8c1.6-3.8,3.1-7.5,4.9-11.9
		c-9.2,3.3-18,6.4-26.8,9.7c-8.9,3.3-18.3,4.3-27.7,7c1.9,2.6,3.7,5.1,5.5,7.6c-5.4-1.9-9.4-5.4-11.6-10.5c-3.9-9-5.9-18.4-7.2-28.2
		c-1.8-13.8,0.7-27.4,1.4-41c0.3-6.2,0.7-12.8,4.4-18.5c1.2-1.8,2.4-3.3,5.4-5.2c-3.4,6.2-4.5,11.7-5.1,17.3
		c0.4,0.5,0.8,1.1,0.5,1.8C508,401.8,506.7,409.3,508.8,417z"/>
	<path d="M508.8,417c-4.7-7.1-2.2-14.2-0.1-21.3c0.3-1.1,0.7-2.1,1.1-3.2c2.8-4,5.9-7.7,8.3-11.9c2.7-4.6,6.9-7.1,11.3-9.1
		c4.6-2.1,14.2,3.5,16.5,8.8c5.8,13.6-2.3,24.5-11.4,32.5c-2.3,2-4.9,3.9-7.7,5.5C520.3,421.8,514.5,421.8,508.8,417z"/>
	<path class="st0" d="M498.9,414c2.7,15,0.3,29.8-2.9,44.4c-1.8,8.3-6.5,15.1-14.5,19.3c1.5-2.1,2.9-4.3,4.6-6.8
		c-18.3-4.7-36.8-8.1-54.7-16.2c1.8,4.5,5.5,6.7,6.9,11.4c-4.4-3.3-8.4-5.7-10.8-10c-6.6-11.7-12.2-23.9-13.2-37.3
		c-0.9-12.8,3.7-24,15.3-31.2c2.7-1.6,4.9-4,8.8-4.1c-1.7,1.5-3.3,3.2-5.1,4.6c-11.5,8.8-16.1,20.3-13.6,34.7
		c0.4,2.5,0.8,5.1,1.1,7.6c1,11.8,9.3,16,18.9,19.4c14.9,5.3,30.2,9.4,45.3,14.1c4.6,1.4,5.4-1,6-4c2.3-10.9,3.5-21.9,3.1-33.1
		c-0.1-2.3-0.1-4.6-0.1-6.8C495.2,417.7,495.9,415,498.9,414z"/>
	<path d="M498.9,414c-1.7,1.9-2.1,4.9-4.8,6c-10.3,3-18.1-2.3-25.6-7.9c-3-2.2-5.8-4.8-8.2-7.9c-7.7-9.8-6.3-15.5,1.1-25.1
		c6.7-8.6,12.8-5.9,21.4,0.6c4.5,3.4,8.3,7.9,11.5,12.7c3.5,1.9,3.6,5.7,4.8,8.9C500.4,405.6,500.4,409.8,498.9,414z"/>
	<path class="st0" d="M441.3,491.9c40.4,16.9,80,17.7,120.7-0.5c-2.6,3.8-5.2,6.4-8.4,8.6c-9.1,6.2-19.6,8.5-30,10.7
		c-15.2,3.2-30.4,3.5-45.8,0.4c-10.2-2.1-19.6-5.5-28.3-11C446.2,497.9,443.6,495.2,441.3,491.9z"/>
	<path class="st0" d="M498.9,401.4c-1.6-3-3.2-5.9-4.8-8.9c0.1-6.3-1.2-12.2-5.9-17.4C495.4,377.5,499.4,387.9,498.9,401.4z"/>
	<path class="st2" d="M543.9,388.8c-0.3,2.6-2.1,5-6,4.7c-4.6-0.4-9.1-1.8-13.1-4.1c-3.7-2.2-4.2-6-1.1-9.2c2.8-3,5.5-6.6,10.6-4.6
		C539.8,377.8,543.9,382.9,543.9,388.8z"/>
	<path class="st2" d="M469.9,380.2c4.6-1.1,8.1,1.2,10.8,3.6c6.3,5.6,11.4,12.1,13.9,20.4c0.7,2.2,1.4,4.6-0.6,6.3
		c-1.9,1.7-3.9-0.1-5.8-0.9c-3.5-1.5-5.6-4.4-7.3-7.5C477.1,395,473.6,387.6,469.9,380.2z"/>
</g>
</svg>
