<?xml version="1.0" encoding="utf-8"?>
<!-- Generator: Adobe Illustrator 23.0.1, SVG Export Plug-In . SVG Version: 6.00 Build 0)  -->
<svg version="1.1" id="Layer_4" xmlns="http://www.w3.org/2000/svg" xmlns:xlink="http://www.w3.org/1999/xlink" x="0px" y="0px"
	 viewBox="0 0 1000 1000" style="enable-background:new 0 0 1000 1000;" xml:space="preserve">
<style type="text/css">
	.st0{fill:#6E3720;}
	.st1{fill:#FB9A7A;}
	.st2{fill:#7F7F7F;}
	.st3{fill:#FEFEFE;}
	.st4{fill:#730000;}
	.st5{fill:#C0FEFE;}
	.st6{fill:#FE0000;}
	.st7{fill:#004080;}
	.st8{fill:#00407F;}
</style>
<g>
	<path class="st0" d="M501.7,131.8c22.5,0.7,43.9,5.5,63.3,17.6c12.2,7.6,20.9,17.8,24.9,31.8c2.3,8,1.7,16,1.1,24.2
		c-0.9,11.9-3.6,23.2-7.1,34.4c-1.8,5.7-3.8,11.4-6.3,16.8c-1.3,2.8-1.1,4.7,0.1,7.5c2.9,6.4,2.8,13.3,1.9,20.2
		c-2,15.4-8.7,29.3-13.3,43.9c-2.5,7.8-3.6,15.9-3.7,24c-0.2,12.9-0.7,25.8-2.3,38.6c-2.1,16.6-6,32.9-10.3,49.2
		c-5.9,22.1-14.3,43.1-24.4,63.5c-3.8,7.7-9.2,14.5-14.5,21.1c-7.8,9.6-15.8,6.9-22.4-1.3c-13.8-17.3-21.9-37.5-29.7-57.9
		c-6.6-17.3-9.6-35.3-12.7-53.4c-2.5-14.8-4.3-29.7-5-44.7c-0.7-14.2-0.2-28.8-5.6-42.5c-3.8-9.5-7.1-19.2-9.9-29.1
		c-3.2-11.2-4.8-22.4,0.4-33.5c1.8-3.9-1.5-7.3-2.7-10.6c-6-15.5-10.6-31.1-11.5-47.8c-0.5-9.4-0.7-18.2,2.9-27.1
		c6.3-16.1,18.6-25.7,33.5-32.6c7.3-3.4,14.7-6.5,22.7-8C481.1,133.7,491.2,131,501.7,131.8z"/>
	<path d="M508.8,110.8c-0.6-6,2.6-11.1,6.5-15c6.5-6.5,13.7-12.6,23.2-14.7c7.7-1.7,14.2,2.5,16.2,10.2c3.3,12.8-3.6,18.3-12.5,24.2
		c-5.4,3.6-11.5,5.8-18,6.5C517,122.8,507.8,119.5,508.8,110.8z"/>
	<path d="M495.1,108.1c0.7,7.2-4.8,10.8-12.7,10.9c-9,0.1-17.2-3.3-24.3-9c-3-2.4-6.1-4.5-7.9-8.1c-4.4-8.7-0.8-18.5,5.9-23.2
		c5.3-3.8,11-1,15.6,1.6c7.3,4,14.6,8.3,19.3,15.7C493.4,99.6,495.2,103.3,495.1,108.1z"/>
	<path class="st1" d="M560.8,256.2c5.6,3.9,8.8,8.7,10.6,14.9c2,6.8-0.3,13-1.8,19.3c-2.6,11.1-7.8,21.3-11.6,32
		c-2.7,7.6-3.9,15.4-4.5,23.5c-2.1,32.5-4.1,65-13.9,96.4c-5.9,18.8-12.3,37.4-21.3,55c-3.2,6.2-7.4,12-11.6,17.7
		c-3.9,5.3-9.5,4.6-13.6-1c-10.1-13.8-17.4-29.2-23.3-45.2c-7.7-20.9-12.2-42.7-15.9-64.6c-2.8-16.8-3.6-33.6-3.9-50.6
		c-0.3-15.7-4-30.8-10.7-45c-4.1-8.8-6.7-18.1-8.4-27.4c-1.8-10,1.8-18.7,11.4-25.1c-7.8,1.7-8.8-3.8-10.6-8.5
		c-5.3-13.8-8.8-27.9-11.1-42.6c-2.9-18.6,2.9-33.3,16.8-45.1c3.8-3.3,8.7-5.3,13.3-7.7c16.5-8.8,34.4-12,52.8-12.3
		c12.2-0.2,24.1,3.2,35.6,7.2c7.9,2.8,15.8,5.5,22.7,10.3c10.3,7.2,18,16.4,20.2,29.3c2.7,15.7-1.6,30.5-5.7,45.4
		c-1.6,5.7-3.8,11.2-5.8,16.8C568.9,253.7,567.2,257.3,560.8,256.2z"/>
	<path class="st2" d="M551.8,96.1c0.1,6.3-3.4,8.3-9.2,5.8c-4.2-1.8-6.9-5.2-9.9-8.3c-2.1-2.2-1.8-4.7,0.9-6.5
		c3.5-2.4,7.4-3.9,11.6-2.3C549.3,86.3,551.7,90.8,551.8,96.1z"/>
	<path class="st2" d="M460.1,83.7c2.1-1.9,4.3-2.4,6.3-1.3c9,5,17.7,10.4,22.7,19.9c0.8,1.5,1.9,3.3,0.5,5c-1.4,1.8-3.4,1.2-5.3,0.7
		c-5.9-1.5-9.1-6.3-12.5-10.7C468.2,92.6,464.7,87.8,460.1,83.7z"/>
	<path class="st3" d="M545.9,257.7c-7.7,3.7-16,6-23.3,10.4c-2.1,1.3-3.2-0.3-4.6-1.4c-7.4-6.6-10.4-15.5-11.9-24.7
		c-2.1-12.1-3.8-24.3-3-36.5c1-15.2,0.6-30.6,3.9-45.7c2.2-10.1,8.9-13.6,19.1-11.4c12.1,2.5,23.1,7.5,32.9,14.4
		c9.8,6.9,16.1,16.8,16.3,29.8c0.3,15.1-4,28.8-10,42.3c-2.2,5-4.6,9.9-7,14.9c-0.7,1.5-1.2,3.5-3.6,3.5c-1.1-2,0.1-3.8,0.8-5.6
		c4-10.8,8.2-21.6,11.6-32.6c2.4-7.8,3.4-15.8,1.9-24c-2.4-13.4-10.3-22.7-21.8-28.9c-7.3-3.9-15.1-6.9-21.9-8.5
		c11.1,5,22.8,11.6,31.8,21.8c6.3,7.2,7.7,16.7,6.3,25.9c-2.7,17.6-7.9,34.5-14,51.2C548.5,254.4,547.3,256,545.9,257.7z"/>
	<path class="st3" d="M452.1,255.9c-1.7,0-2.8-0.6-4-2.1c-10.9-14.6-17.2-31-19.6-49.1c-1.4-10.9,0-21.1,5.1-30.8
		c3.7-7.1,9.8-12.1,16.2-16.4c9.5-6.5,20.5-9.1,31.8-10c8.4-0.6,14.5,4.6,15.3,13.4c0.5,5.4,1.4,10.9,1.2,16.4
		c-0.6,11.6,2.6,23.2,1.8,34.8c-0.9,13.8-1.6,27.7-6,40.9c-1.5,4.4-4.2,8.3-7.2,11.9c-2.2,2.5-4.3,2.9-7.2,1.6
		c-6.2-2.7-12.4-5.3-18.6-7.9c-5.1-5-7.8-11.5-10.7-17.8c-7.8-16.7-11-34.2-7.8-52.7c2.2-13,9.4-22.2,20.4-28.8
		c5.3-3.2,11-5.4,16.4-6.8c-14.6,0.3-26.2,8.3-36.5,18.5c-4.7,4.7-6.4,11.1-7.7,17.6c-2.4,12.5,0,24.6,3.8,36.4
		c2.7,8.5,6.3,16.7,11.4,24.2C451.4,251.2,453.7,253.1,452.1,255.9z"/>
	<path class="st4" d="M561.4,273.5c2.8,8.4-0.7,16.4-2.1,24.4c-2,12-5.3,23.8-9.4,35.3c-1.9,5.1-4.3,10-7.4,14.4
		c-2.4,3.3-5.4,5.4-9.7,2.3c-2.3-1.7-5.2-2.2-7.4-4.1c-3-3.4-5.8-7-10.2-8.7c-3.5-1.3-7.1-2.3-10.9-1.2c-2.2,0.7-4.4,0.5-6.7-0.2
		c-7.6-2.4-11.2-1.2-15.9,5.1c-1.3,1.7-2.4,3.5-3.9,5c-3.2,1.7-6.3,3.5-9.6,5.1c-3.9,1.9-6.1-1.2-7.8-3.7c-4.8-7-7.6-14.9-10.1-23
		c-4.4-14-6.6-28.4-9.6-42.7c-0.6-2.8,0.8-5.3,1.1-8c1-0.1,1.4,0.6,1.9,1.3c1.5,4.5,2.3,9.1,3.4,13.7c3.9,15.8,6.8,18.3,24.3,20.3
		c20.2,2.4,40.6,1.8,60.8,0.2c4.6-0.4,8.9-1.7,13.2-3.2c4.5-1.6,7-5.1,8.6-9.4c2-5.3,3.2-10.9,4.3-16.5c0.4-1.7,0.5-3.5,1.4-5.2
		C559.9,274,560.4,273.3,561.4,273.5z"/>
	<path class="st5" d="M452.1,255.9c-0.9-3.5-3.2-6.3-5-9.3c-9-15.2-14.3-31.5-14.3-49.2c0-9,1.4-18.4,7.4-25.2
		c10.6-12,23.5-20.9,40.6-20.8c0.8,0,1.6,0.1,2.4,0.1c0.1,0,0.2,0.2,0.7,0.7c-4,1.4-7.8,2.6-11.4,4c-11.1,4.3-20.7,10.7-25.6,21.8
		c-4.5,10.4-5.1,21.6-4,32.9c1.7,17.6,9.7,32.8,18.1,47.8C458,257.7,455,256.8,452.1,255.9z"/>
	<path class="st5" d="M545.9,257.7c6.6-16,10.9-32.8,15.1-49.5c2.4-9.7,1.8-19.2-2.3-28.4c-1.9-4.2-5.2-7.1-8.6-9.7
		c-8.4-6.4-17.2-12.1-26.9-16.4c-1-0.5-1.9-1-3.8-2c4.5-0.3,7.7,0.9,10.8,2c13.1,4.3,26,9.4,34.1,21.6c5.5,8.2,7.6,17.2,6.5,27.2
		c-2,18-10.5,33.9-16,50.7C552.1,255.1,549,256.3,545.9,257.7z"/>
	<path class="st0" d="M442.5,274.5c-0.3-0.3-0.6-0.7-0.9-1c-0.2-2,0.4-2.3,2.1-1.2c11.3,7.4,24.4,8.8,37.3,10.9
		c8.6,1.4,17.3,2.5,26,1.8c18.1-1.4,36-3.7,52.2-12.8c1.8-1,2.3-0.8,2.2,1.2c-0.3,0.3-0.6,0.7-0.9,1c-5.6,9.5-15.4,12-24.8,15
		c-10.6,3.3-21.6,5.4-32.6,5.5c-18.5,0.1-36.7-2.2-52.8-12.6C447,280.3,444.2,277.9,442.5,274.5z"/>
	<path class="st6" d="M477.7,345.7c3.1-10,12.2-15.7,20.6-11.1c2.2,1.2,4.4,0.4,6.5-0.1c7.8-1.9,17.7,3.5,20.5,11.2
		C509.4,342.8,493.5,342.8,477.7,345.7z"/>
	<path d="M506.8,182.1c0-3.2-0.3-5.7,0.1-8.1c0.6-3.6,1.8-7.4,6.2-7.8c3.9-0.4,6.7,2.3,7.9,5.8c2.7,8.2,2.1,16.6-0.6,24.7
		c-1.1,3.3-3.8,6-7.4,5.4c-3.5-0.6-4.5-4.4-5-7.4C507.2,190.2,506.2,185.8,506.8,182.1z"/>
	<path d="M496.1,181.2c0.2,5.7-0.1,11.5-2.3,16.8c-0.8,1.8-1.6,4.1-4.1,4.1c-2.7,0-5.2-1.6-6.1-3.8c-3.8-8.8-4.5-18-1.1-27.1
		c1.2-3.3,4.1-5.7,7.8-5c3.9,0.7,5.2,4.3,5.8,7.7C496.4,176.3,496.1,178.7,496.1,181.2z"/>
	<path class="st3" d="M442.5,274.5c8.6,8.5,19.1,13.7,30.6,16.1c14,2.9,28.2,4.5,42.8,1.7c11.2-2.2,22.3-4.3,32.8-8.9
		c4.7-2.1,7.9-5.9,11.8-8.8c-1.8,8.4-2.9,17-6.6,25c-2,4.4-5.1,6.8-9.3,8.1c-6.2,2-12.6,2.5-19.2,3.2c-13.1,1.3-26.2,0.8-39.3,0.6
		c-8.4-0.1-16.9-0.5-25.1-2.7c-6.8-1.8-11.6-5.9-13.6-12.5C445.4,289,443.3,281.9,442.5,274.5z"/>
	<path class="st3" d="M519.5,177c0.1,2.1,0.3,3.9-1.6,4.6c-2.1,0.7-3.2-1.1-4.2-2.6c-1-1.6-1.5-3.4-2.5-5c-1.5-2.5,0.3-3.8,1.9-4.7
		c1.6-0.9,3.6-0.7,4.4,1.5C518.4,172.9,520.3,174.8,519.5,177z"/>
	<path class="st7" d="M516.6,196.4c-0.1,2-1.4,3.8-2.8,3.5c-3.8-0.9-3.8-4.7-4.8-7.6c-0.5-1.4,0.6-2.8,2.1-2.5
		C514.6,190.5,515.3,193.8,516.6,196.4z"/>
	<path class="st3" d="M494.1,176.9c0,1.8,0.5,4-1.7,4.6c-2.3,0.6-3.3-1.3-4.2-3.1c-0.8-1.7-1.8-3.3-2.7-5c-1-2,0.6-3.1,1.8-4
		c1.4-0.9,3.4-1.1,4.3,0.6C492.8,172.2,494.6,174.3,494.1,176.9z"/>
	<path class="st8" d="M490.2,196.7c-0.1,1.1,0.1,2.4-1.6,2.4c-1.9,0-6.2-5.6-6.1-8.1c0-1.3,0.6-2.2,2-2.3
		C486.7,188.5,490.3,193.6,490.2,196.7z"/>
</g>
</svg>
