<?xml version="1.0" encoding="utf-8"?>
<!-- Generator: Adobe Illustrator 23.0.1, SVG Export Plug-In . SVG Version: 6.00 Build 0)  -->
<svg version="1.1" id="Layer_4" xmlns="http://www.w3.org/2000/svg" xmlns:xlink="http://www.w3.org/1999/xlink" x="0px" y="0px"
	 viewBox="0 0 1000 1000" style="enable-background:new 0 0 1000 1000;" xml:space="preserve">
<style type="text/css">
	.st0{fill:#6E3720;}
	.st1{fill:#FB9A7A;}
	.st2{fill:#808080;}
	.st3{fill:#7F7F7F;}
	.st4{fill:#FEFEFE;}
	.st5{fill:#730000;}
	.st6{fill:#C0FEFE;}
	.st7{fill:#FE0000;}
	.st8{fill:#004080;}
	.st9{fill:#00407F;}
</style>
<g>
	<path class="st0" d="M501.3,116.2c22.7,0.5,44.3,5.5,63.8,17.6c12.2,7.6,20.9,17.9,24.8,31.9c2.2,7.8,1.8,15.6,1.1,23.7
		c-0.9,9.4-2.7,18.5-5,27.6c-2.2,8.6-5.8,16.7-8.9,24.9c-0.8,2.2-0.8,3.8,0.2,5.8c3.4,6.7,3.2,13.8,2.2,21.1
		c-1.9,14.7-8,28.2-12.8,42c-2.7,7.9-3.9,16.1-4.1,24.3c-0.6,20-1.9,39.9-5.8,59.7c-5.4,27.4-13.6,53.8-24.6,79.4
		c-5.2,12.2-12.5,23.1-20.2,33.7c-6.7,9.3-16.6,8.7-23.6-0.4c-13.5-17.5-21.7-37.6-29.6-58c-6.6-17.3-9.6-35.3-12.7-53.4
		c-2.6-14.8-4.3-29.7-5-44.8c-0.7-14.2-0.3-28.8-5.6-42.5c-4.2-10.7-8.1-21.6-10.8-32.8c-2.4-10.1-3.6-20.1,1.5-29.8
		c1.5-2.8-0.8-4.6-1.6-6.6c-6.4-17.1-11.4-34.3-13-52.8c-1.5-17.3,2.7-31.8,14.3-43.6c13.5-13.6,30.9-20.6,49.6-24.1
		C484.1,117.5,492.5,115.3,501.3,116.2z"/>
	<path d="M508.8,95.2c-0.5-6,2.6-10.9,6.3-14.7c6.5-6.6,13.7-12.7,23.1-15c7.7-1.9,13.5,1.4,16.2,8.9c3.1,8.5,0.2,15.6-7,21.6
		c-6.8,5.6-14.4,9-22.8,10.3C517.6,107.4,507.7,104.2,508.8,95.2z"/>
	<path d="M495.2,93c1,8.3-9,11.4-15.9,10.4c-8.5-1.3-15.7-5.2-22.9-10.2c-10.6-7.5-10.4-22.4-0.5-29.9c5.3-4,10.8-1.1,15.5,1.3
		c7.4,3.9,14.5,8.4,19.4,15.5C493.4,83.8,495.2,87.7,495.2,93z"/>
	<path class="st1" d="M442.9,239.7c-6.9,2.1-8.6-1.4-10.3-5.7c-6.3-15.3-10.5-31.3-12.4-47.7c-1.6-13.8,2-26.4,11.9-36.9
		c6.7-7.1,15.2-11,23.8-15.1c14.9-7.1,30.9-9.6,47-10.1c12.6-0.3,24.7,3.1,36.5,7.4c7.4,2.7,14.8,5.3,21.4,9.7
		c11.2,7.4,19,16.9,21.3,30.6c2.5,15.4-1.9,29.8-5.6,44.4c-1.6,6.2-4.1,12.1-6.2,18.1c-2,5.6-2.2,5.7-8.9,6
		c-0.5,1.5,0.8,1.9,1.6,2.5c7.4,5.3,10.8,15,8.9,23.8c-2.9,13.7-8.5,26.5-13.4,39.5c-2.6,6.8-4.2,13.8-4.7,21
		c-2.1,33.6-4,67.2-14.1,99.8c-5.9,18.8-12.3,37.4-21.4,54.9c-3.1,6.1-7.2,11.7-11.3,17.3c-3.9,5.3-9.6,4.8-13.7-0.7
		c-10.2-14-17.5-29.5-23.5-45.6c-8.2-22-12.7-44.9-16.5-67.9c-2.4-14.3-3.1-28.8-3.1-43.4c0-16.9-3.6-33-10.6-48.5
		c-4.4-9.6-7.7-19.8-8.7-30.3c-0.8-8.4,2.2-15.8,9.9-20.6C441.3,242,441.5,241.3,442.9,239.7z"/>
	<path class="st2" d="M551.8,79.4c0,7.3-3.5,9.4-9,7c-3.9-1.7-6.5-4.6-9.3-7.5c-3.3-3.5-2.9-6.3,1.4-8.3c3.5-1.6,7.3-3.6,11.3-1
		C550.3,72.1,551.3,76.3,551.8,79.4z"/>
	<path class="st3" d="M460.1,68.1c2.2-1.8,4.5-2.4,6.5-1.2c8.8,5,17.4,10.3,22.4,19.6c0.9,1.7,2.2,3.6,0.6,5.4
		c-1.5,1.7-3.4,1-5.4,0.5c-6.2-1.5-9.2-6.7-12.8-11.1C467.9,76.8,464.6,72.2,460.1,68.1z"/>
	<path class="st4" d="M545.9,242c-7.7,3.7-16,6-23.3,10.4c-2.1,1.3-3.2-0.3-4.6-1.4c-7.4-6.6-10.4-15.5-11.9-24.7
		c-2.1-12.1-3.8-24.3-3-36.5c1-15.2,0.6-30.6,3.9-45.7c2.2-10.1,8.9-13.6,19.1-11.4c12.1,2.5,23.1,7.5,32.9,14.4
		c9.8,6.9,16.1,16.8,16.3,29.8c0.3,15.1-4,28.8-10,42.3c-2.2,5-4.6,9.9-7,14.9c-0.7,1.5-1.2,3.5-3.6,3.5c-1.1-2,0.1-3.8,0.8-5.6
		c4-10.8,8.2-21.6,11.6-32.6c2.4-7.8,3.4-15.8,1.9-24c-2.4-13.4-10.3-22.7-21.8-28.9c-7.3-3.9-15.1-6.9-21.9-8.5
		c11.1,5,22.8,11.6,31.8,21.8c6.3,7.2,7.7,16.7,6.3,25.9c-2.7,17.6-7.9,34.5-14,51.2C548.5,238.8,547.3,240.4,545.9,242z"/>
	<path class="st4" d="M452.1,240.3c-1.7,0-2.8-0.6-4-2.1c-10.9-14.6-17.2-31-19.6-49.1c-1.4-10.9,0-21.1,5.1-30.8
		c3.7-7.1,9.8-12.1,16.2-16.4c9.5-6.5,20.5-9.1,31.8-10c8.4-0.6,14.5,4.6,15.3,13.4c0.5,5.4,1.4,10.9,1.2,16.4
		c-0.6,11.6,2.6,23.2,1.8,34.8c-0.9,13.8-1.6,27.7-6,40.9c-1.5,4.4-4.2,8.3-7.2,11.9c-2.2,2.5-4.3,2.9-7.2,1.6
		c-6.2-2.7-12.4-5.3-18.6-7.9c-5.1-5-7.8-11.5-10.7-17.8c-7.8-16.7-11-34.2-7.8-52.7c2.2-13,9.4-22.2,20.4-28.8
		c5.3-3.2,11-5.4,16.4-6.8c-14.6,0.3-26.2,8.3-36.5,18.5c-4.7,4.7-6.4,11.1-7.7,17.6c-2.4,12.5,0,24.6,3.8,36.4
		c2.7,8.5,6.3,16.7,11.4,24.2C451.4,235.6,453.7,237.5,452.1,240.3z"/>
	<path class="st5" d="M561.4,257.9c2.8,8.4-0.7,16.4-2.1,24.4c-2,12-5.3,23.8-9.4,35.3c-1.9,5.1-4.3,10-7.4,14.4
		c-2.4,3.3-5.4,5.4-9.7,2.3c-2.3-1.7-5.2-2.2-7.4-4.1c-3-3.4-5.8-7-10.2-8.7c-3.5-1.3-7.1-2.3-10.9-1.2c-2.2,0.7-4.4,0.5-6.7-0.2
		c-7.6-2.4-11.2-1.2-15.9,5.1c-1.3,1.7-2.4,3.5-3.9,5c-3.2,1.7-6.3,3.5-9.6,5.1c-3.9,1.9-6.1-1.2-7.8-3.7c-4.8-7-7.6-14.9-10.1-23
		c-4.4-14-6.6-28.4-9.6-42.7c-0.6-2.8,0.8-5.3,1.1-8c1-0.1,1.4,0.6,1.9,1.3c1.5,4.5,2.3,9.1,3.4,13.7c3.9,15.8,6.8,18.3,24.3,20.3
		c20.2,2.4,40.6,1.8,60.8,0.2c4.6-0.4,8.9-1.7,13.2-3.2c4.5-1.6,7-5.1,8.6-9.4c2-5.3,3.2-10.9,4.3-16.5c0.4-1.7,0.5-3.5,1.4-5.2
		C559.9,258.4,560.4,257.7,561.4,257.9z"/>
	<path class="st6" d="M452.1,240.3c-0.9-3.5-3.2-6.3-5-9.3c-9-15.2-14.3-31.5-14.3-49.2c0-9,1.4-18.4,7.4-25.2
		c10.6-12,23.5-20.9,40.6-20.8c0.9,0,1.8,0.1,2.9,0.9c-3.7,1.3-7.5,2.5-11.2,3.9c-11.1,4.3-20.7,10.7-25.6,21.8
		c-4.5,10.4-5.1,21.6-4,32.9c1.7,17.6,9.7,32.8,18.1,47.8C458,242.1,455,241.2,452.1,240.3z"/>
	<path class="st6" d="M545.9,242c6.6-16,10.9-32.8,15.1-49.5c2.4-9.7,1.8-19.2-2.3-28.4c-1.9-4.2-5.2-7.1-8.6-9.7
		c-8.4-6.4-17.2-12.1-26.9-16.4c-1-0.4-1.9-1-3.8-2c4.5-0.3,7.7,0.9,10.8,2c13.1,4.3,26,9.4,34.1,21.6c5.5,8.2,7.6,17.2,6.5,27.2
		c-2,18-10.5,33.9-16,50.7C552.1,239.5,549,240.7,545.9,242z"/>
	<path class="st0" d="M442.5,258.9c-0.3-0.3-0.6-0.7-0.9-1c-0.2-2,0.4-2.3,2.1-1.2c11.3,7.4,24.4,8.8,37.3,10.9
		c8.6,1.4,17.3,2.5,26,1.8c18.1-1.4,36-3.7,52.2-12.8c1.8-1,2.3-0.8,2.2,1.2c-0.3,0.3-0.6,0.7-0.9,1c-5.6,9.5-15.4,12-24.8,15
		c-10.6,3.3-21.6,5.4-32.6,5.5c-18.5,0.1-36.7-2.2-52.8-12.6C447,264.7,444.2,262.3,442.5,258.9z"/>
	<path class="st7" d="M477.7,330.1c3.1-10,12.2-15.7,20.6-11.1c2.2,1.2,4.4,0.4,6.5-0.1c7.8-1.9,17.7,3.5,20.5,11.2
		C509.4,327.2,493.5,327.2,477.7,330.1z"/>
	<path d="M506.8,166.5c0-3.4-0.3-5.7,0.1-7.9c0.6-3.6,1.8-7.4,6-8c4.2-0.6,7,2.4,8.2,5.9c2.6,7.6,1.5,15.4-0.1,23.1
		c-0.3,1.6-1.3,3.6-2.6,4.4c-1.8,1.1-3.3,3.6-5.8,2.5c-3-1.3-4.3-4.4-4.7-7.3C507.4,174.6,505.9,170.1,506.8,166.5z"/>
	<path d="M496.1,165.8c0.1,5.6,0.1,11.2-2.2,16.4c-2.5,5.6-7.7,6.1-10.2,0.7c-4.2-8.8-4.7-18.3-1.1-27.6c1.2-3,4-5.3,7.5-4.8
		c4,0.6,5.3,4.2,6,7.6C496.5,160.6,496.1,163.2,496.1,165.8z"/>
	<path class="st4" d="M442.5,258.9c8.6,8.5,19.1,13.7,30.6,16.1c14,2.9,28.2,4.5,42.8,1.7c11.2-2.2,22.3-4.3,32.8-8.9
		c4.7-2.1,7.9-5.9,11.8-8.8c-1.8,8.4-2.9,17-6.6,25c-2,4.4-5.1,6.8-9.3,8.1c-6.2,2-12.6,2.5-19.2,3.2c-13.1,1.3-26.2,0.8-39.3,0.6
		c-8.4-0.1-16.9-0.5-25.1-2.7c-6.8-1.8-11.6-5.9-13.6-12.5C445.4,273.4,443.3,266.3,442.5,258.9z"/>
	<path class="st4" d="M519.5,161.3c-0.1,2,0.5,4.1-1.9,4.6c-2.1,0.4-3.1-1.3-3.9-2.9c-0.9-1.7-1.7-3.4-2.6-5
		c-1.2-2.2,0.5-3.5,1.9-4.3c1.4-0.9,3.4-0.9,4.2,0.9C518.3,156.8,520.1,158.8,519.5,161.3z"/>
	<path class="st8" d="M510.8,174c1.6,0.7,3.3,1.1,4,3.1c0.6,1.9,2.8,3.4,1.1,5.7c-0.9,1.1-1.9,2.5-3.5,0.9c-2.2-2.1-2.9-4.9-3.4-7.8
		C508.8,174.9,509.7,174.2,510.8,174z"/>
	<path class="st4" d="M494.1,161.3c0,1.8,0.5,4-1.7,4.6c-2.3,0.6-3.3-1.3-4.2-3.1c-0.8-1.7-1.8-3.3-2.7-5c-1-2,0.6-3.1,1.8-4
		c1.4-0.9,3.4-1.1,4.3,0.6C492.8,156.6,494.6,158.6,494.1,161.3z"/>
	<path class="st9" d="M484.3,173c2.4,0.5,3.8,1.9,4.7,3.9c0.8,1.9,1.9,3.8,1,6c-0.1,0.2-0.5,0.5-0.7,0.5c-2.5,0.1-3.8-1.9-4.6-3.6
		c-0.9-1.8-3.2-3.6-1.3-6.1C483.5,173.4,484,173.2,484.3,173z"/>
</g>
</svg>
