<?xml version="1.0" encoding="utf-8"?>
<!-- Generator: Adobe Illustrator 23.0.1, SVG Export Plug-In . SVG Version: 6.00 Build 0)  -->
<svg version="1.1" id="Layer_4" xmlns="http://www.w3.org/2000/svg" xmlns:xlink="http://www.w3.org/1999/xlink" x="0px" y="0px"
	 viewBox="0 0 1000 1000" style="enable-background:new 0 0 1000 1000;" xml:space="preserve">
<style type="text/css">
	.st0{fill:#6E3720;}
	.st1{fill:#FB9A7A;}
	.st2{fill:#FEFEFE;}
	.st3{fill:#7F7F7F;}
	.st4{fill:#C0FEFE;}
	.st5{fill:#00407F;}
	.st6{fill:#004080;}
</style>
<g>
	<path class="st0" d="M500.9,646.6c-16.6-0.6-35.5-1.6-53.7-7.1c-12.2-3.7-18.4-8.3-14.3-25.1c2.7-10.9,1.3-21.4-0.7-31.8
		c-3-15.6-6-31.1-5.4-47c0.4-10.1-2.1-19.3-6.6-28.5c-4.6-9.3-9.6-18.6-10.8-29.2c-0.6-5.6-0.8-11.3,2-16.4c1.5-2.8,1.2-4.8-0.2-7.3
		c-6.4-11.4-11.1-23.4-14-36.1c-3-13.4-4.7-26.9,4.1-39.3c7.9-11,18.3-18.4,30.7-23.4c11.8-4.8,23.9-8.5,36.4-10.3
		c16.4-2.4,32.9-3.3,49.6-1.6c16.7,1.7,33.1,4.1,48.8,10.1c15.8,6.1,29.9,14.8,38,30.7c4.4,8.6,3.8,17.4,2.4,26.5
		c-2.4,15.8-9.1,29.8-16.2,43.8c-0.6,1.1-1.5,2.1-0.3,3.9c5.7,8.4,4.5,17.4,1.9,26.5c-2.7,9.2-7.1,17.6-11.6,25.9
		c-4.9,9.1-5.6,18.8-4.5,28.5c1.1,9.8-0.1,19-2.9,28.2c-3.3,10.8-5.6,21.8-7.1,32.9c-0.6,4.2,0.1,8.2,1.9,12.1
		c7.3,15.9,0.9,22.8-12.8,26.8c-11.9,3.5-24.2,5.1-36.6,6.2C513.7,646.2,508.4,646.3,500.9,646.6z"/>
	<path class="st1" d="M539.1,354.5c14.6,3.3,29,7.7,41.4,16c12.5,8.3,19.4,19.7,16.5,36.1c-2.7,15.5-8.7,29.3-15.9,43
		c-2.3,4.3-5.7,3.3-9,3.6c-0.2,0.8,0.1,1.4,0.7,1.7c7.4,2.4,9.5,8.9,11.9,15.3c0.6,1.7,0,3.4-0.5,5.1c-3.2,12.8-9.8,24.1-15.5,35.7
		c-4.9,10-6.1,20.2-3.8,31.3c2,9.5-0.5,18.8-2.9,28.1c-2.6,9.6-4.4,19.3-5.4,29.2c-0.6,6.2,1.6,11.6,3.7,17.2
		c2.5,6.7,0.4,11.3-6.5,12.8c-8.7,1.9-17.6,3.4-26.5,4.3c-10.3,1-20.5,2.2-30.9,1.9c-15.8-0.5-31.4-1.8-46.7-5.9
		c-7.1-1.9-10-6.2-7.1-12.8c4.5-10.2,1.7-20.1,0.3-30.3c-1.4-10-3.1-19.9-4.6-29.9c-1.4-9.2,1.5-17.9,1.3-26.8
		c-0.2-5.8-1.5-11-3.9-16.2c-4.8-10-10-19.7-14.2-30.1c-6.1-15.2-4.1-20.6,8.7-28.4c0.7-0.4,1.6-0.5,1.8-1.4
		c-0.1-0.2-0.3-0.6-0.4-0.6c-10.9,1.5-12-8.1-15-14.3c-4-8.1-6.5-16.9-8.5-25.9c-4.9-21.8,0-34.8,21.1-46.3
		c14.2-7.8,30-12,46.1-14.2c10-1.4,20.1-3.2,30.2-2.8c8,0.3,15.9,1.8,23.9,2.8c0.3,1-0.3,1.6-1.1,1.9c-7.8,3.4-11.5,10.5-15.9,17.1
		c-0.9,1.4-1,4.6-4.2,2.9c-0.8-1.9-0.3-3.8,0-5.7c-2.8,14-3.9,28.2-3.7,42.4c0.1,9.3,0.3,18.9,3.9,27.8c0.4,0.9,0.6,1.9,0.6,3
		c-0.1,3.5,1.2,6.6,2.8,9.5c2,3.9,5.4,6.7,7.7,10.2c0.2-0.5-0.5-0.8-0.8-1.2c-2.7-4.1-2.2-5.6,2.5-6.8c8.2-2,16.5-3.6,24.7-5.4
		c6-1.4,12-2.7,18-4c1.9-0.4,4.3-1.5,5.2,2.2c1.7-3,3.2-5.8,5.2-8.3c3.1-4,5.1-8.6,6.8-13.3c3.7-6.5,5.1-13.6,6.1-20.9
		c1.8-12.8-4.4-21.5-13.5-28.9c-3-2.4-6.6-4.1-10-6.1c6.4,3.9,12.3,8.1,16.6,14.5c7.8,11.5,6.5,23.3,1.6,35.3
		c-1.3,3.1-3.7,4.8-7,5.4c-20.2,3.5-40.4,7.1-60.8,9.2c-3.2,0.3-5.7-0.2-6.1-3.8c-1.3-10.8-2.8-21.6-1-32.5c1.2-1.5,2.4-0.6,3.3,0.2
		c5.1,4.2,10.4,3.3,15.5,0.5c8.5-4.7,15.5-11.1,19.7-20.1c3.5-7.5,2.3-12.9-3.7-18.9C540.8,357.4,538.8,356.8,539.1,354.5z"/>
	<path d="M508.8,375c3.1-4.4,5.6-9.2,8.9-13.6c3.2-4.1,7-6.8,11.5-8.9c3.5-0.3,6.7,0.4,9.8,2c2.5,2.4,5.5,4.5,7.5,7.3
		c3.2,4.6,3.2,10.2,0.8,15c-5.6,11.3-13.7,20-26.4,23.9c-5.8,1.8-9.3-1.1-13.2-4.2c-1.2-0.6-2.1-1.7-2.3-2.9
		C504.2,387,505,380.7,508.8,375z"/>
	<path d="M495.1,400.4c-17.3,3.7-28.4-6.1-37.1-18.5c-7.7-11.1,0.3-22.9,10.1-27.2c1.2-0.5,2.4-0.2,3.7,0.2
		c6.8,2.5,13,5.7,17.1,12.1c1.2,2,3.5,3.3,5.2,4.9c2.6,1.6,3,4.4,3.8,6.9c1.7,5.4,3.4,10.8,1,16.5
		C498.2,397.6,497.8,399.8,495.1,400.4z"/>
	<path class="st0" d="M441.2,475.7c41,17.4,81.6,19.4,122.1-2.1c-4.4,8.4-12.1,13.1-20.6,16.6c-10.9,4.5-22.5,5.8-34.2,7
		c-16.8,1.8-32.9-0.8-48.4-7.1C453.9,487.6,443.2,481.6,441.2,475.7z"/>
	<path class="st0" d="M508.8,375c-0.7,3.1-1.1,6.3-2.2,9.2c-1.8,4.5-0.1,8.4,1.3,12.4c-0.1,11.1-0.2,22.2,1.8,33.3
		c0.5,2.8,1.2,2.5,3.7,2.2c10.7-1.3,21.3-2.5,31.9-4.3c10.2-1.7,20.5-3.2,30.8-5c4.7-0.8,5.7-5.2,6.8-8.6c4-12.9,2.4-25.2-7.3-35.2
		c-4.5-4.6-10.3-8.1-15.3-12.4c7,3.1,14.4,5.5,19.5,11.7c1.4,1.7,2.9,3.4,4.3,5.2c4.4,5.9,5.7,12.5,4.9,19.6
		c-0.8,8-2.3,15.8-6.9,22.7c-1.4,1.4-3.1,2-5,2.2c-3.9,0.5-7.8,1.4-11.7,2c-14.5,2.2-28.9,5.1-43.3,7.4c-2.2,0.4-4.5,0.5-6.7,1
		c-1.8,0.3-3.7,0.3-5.5,0.9c-0.7,0.2-1.3,0.3-2,0.2c-3.8-3.6-3.1-8.7-3.5-13c-0.7-7.5-2.1-15.1-1.2-22.6c1.3-11.3,0.7-22.7,3.8-33.8
		c0.7-2.5,1.8-4.6,3.5-6.5C509.3,367.4,508.4,371.1,508.8,375z"/>
	<path class="st0" d="M495.1,400.4c1.3-1.7,2.5-3.3,3.8-5c2.2,14.5,1,28.8-1.9,43c-0.6,0.5-1.2,0.9-2,1c-2.3,0.2-4.5-0.8-6.7-0.8
		c-2-0.3-4-0.9-6-0.9c-0.5,0-1.1-0.1-1.6-0.2c-14.4-2.6-28.8-4.6-43.1-7.4c-3.9-0.7-7.8-1.3-11.6-2.1c-1.9-0.3-3.6-0.9-4.9-2.3
		c-7.1-13.8-10.1-27.7-1.9-42.1c4.4-7.9,11.5-12.7,19.6-16.4c0.5,1.6-0.8,2-1.5,2.6c-0.8,0.7-1.8,1.3-2.7,1.9
		c-9.4,6.5-14.5,15.9-16.2,26.8c-1.1,7.2,1.3,14.3,4.4,20.9c0.9,2,2.9,2,4.4,2.3c18.6,4.2,37.4,7.5,56.4,9c1.3,0.1,2.5,0.6,3.7,0.9
		c5.9,1.4,6.2,1,7-5C495.3,417.9,495.1,409.2,495.1,400.4z"/>
	<path class="st2" d="M521.3,436.6c5.8-2.2,11.9-2.3,17.9-3.5c8.7-1.7,17.3-3.5,26.2-4.2c0.6,5.3-2.5,9.1-4.8,13.3
		c-1.3,1.1-2.9,1.4-4.5,1.8c-13.1,3-26.2,5.8-39.3,8.8c-2.1,0.5-4.2,0.8-6-0.6c-1.6-3.1-3.3-6.1-2.9-9.8c1.2-0.2,1.7,0.7,2.3,1.4
		c3.2,3.8,5.7,3.7,8.5-0.5C520.1,441.2,519.9,438.6,521.3,436.6z"/>
	<path class="st2" d="M495.2,438.5c0.6,0,1.2,0,1.8-0.1c-0.3,4.3-2.7,7.8-3.9,11.7c-1.1,0.8-2.3,1.1-3.7,0.9
		c-15.2-2.9-30.6-5-45.6-8.7c-3.6-3.8-6.7-7.8-6.3-13.5c13.8,2.2,27.5,4.4,41.3,6.7c0.9,0.1,1.8,0.7,2.6,1c1.7,1.7,1.3,4.2,2.6,6.2
		c1.3,2,2.8,3.8,5.2,3.9c2.5,0,3.1-2.4,4.1-4.3C493.9,441.1,494,439.5,495.2,438.5z"/>
	<path class="st0" d="M443.4,441.2c15.8,3,31.5,6,47.3,8.9c0.8,0.1,1.6,0,2.4,0c-1.9,5.4-6.1,8.7-10.7,12c1.5-2.6,3-5.1,4.7-8.1
		c-17.1-3.2-34-6.4-51.3-9.7c1.3,2.8,2.5,5.3,3.6,7.8c-4.5-4.1-9.3-7.8-11.6-13.7c0.7-1,1.8-1,2.9-1
		C435,438.5,439.6,438.4,443.4,441.2z"/>
	<path class="st0" d="M510.8,452.2c8.2-0.6,16-3.3,24.1-4.9c8-1.6,16-3.3,24-5c0.6-0.1,1.1-0.6,1.6-1c3-2.3,6.8-2.2,10.2-3.2
		c1.5-0.2,3.1-0.9,4.4,0.6c-2.3,3.8-4.6,7.6-7,11.6c-0.4-0.7-0.7-1.1-0.7-1.2c1.6-3.9,0.7-4.8-3.5-3.7c-13.4,3.5-27,6.3-40.6,8.9
		c-6.7,1.3-6.7,1.6-2.9,7.2c0.3,0.5,0.7,1,1.2,1.9C517.6,461,515,458.3,510.8,452.2z"/>
	<path d="M521.3,436.6c0.2,1.6,0.5,3.2-0.2,4.7c-1.4,3.2-3.4,6.2-6.9,6.9c-4.3,0.8-4.1-3.9-6.3-5.8c-0.1-0.9-0.1-1.9-0.2-2.8
		c0.4-0.3,0.7-0.6,1.1-0.9c1.8,0.5,2,2.3,2.8,3.6c0.6,0.9,1.1,2.2,2.5,1.5c1-0.5,0.8-1.6,0.5-2.5c-0.3-1.2-1.1-2.4,0-3.6
		C516.7,436,519.1,436.6,521.3,436.6z"/>
	<path class="st2" d="M575.1,438.6c-1.4-0.5-2.6,0.3-3.8,0.7c-0.4-5.2,2.2-9,5.8-12.4c1.7-0.1,3-1.6,4.8-1.1
		C580.4,430.4,578.7,435,575.1,438.6z"/>
	<path class="st2" d="M430.6,438.5c-0.9,0-1.9,0-2.8,0.1c-3.6-3.6-5.2-8.2-6.8-12.8c1.8-0.5,3.1,1,4.8,1.1
		C428.5,430.3,431.6,433.6,430.6,438.5z"/>
	<path class="st0" d="M497.9,379c-1.3-2.3-3.2-4.3-3.8-6.9c0.5-3.2-0.9-6.1-1.5-9.2C497.4,367.2,497.6,373.1,497.9,379z"/>
	<path class="st3" d="M536.6,374c-3.8-0.5-8.3-1.5-12.1-4.4c-3-2.3-3.7-4.9-0.8-8.1c3.1-3.4,6.5-6.2,11.3-4.9c4.6,1.2,7.1,5,8.6,9.1
		C545.4,370.2,542.3,374.1,536.6,374z"/>
	<path class="st3" d="M470.1,360.7c4-1.5,7.1,0.9,9.2,3.1c6.1,6.4,12.2,13.1,15.3,21.7c0.7,1.9,1.3,3.9-0.4,5.4
		c-1.8,1.5-3.9,0.8-5.9-0.3c-2.3-1.3-4.3-3.1-5.5-5.3C478.4,377.2,474.3,368.9,470.1,360.7z"/>
	<path class="st4" d="M577.1,426.9c-2,4.1-4.5,8-5.8,12.4c-3.6,0.7-7.2,1.3-10.8,2c1.6-4.1,3.3-8.2,4.9-12.4
		C569.3,427.8,573.1,426.9,577.1,426.9z"/>
	<path class="st5" d="M514.6,437.6c0.2,2.8,4.5,6.5-0.4,8c-3.7,1.1-3.7-3.7-5-6.2c-0.2-0.3-0.3-0.6-0.4-0.8
		C510.6,437.2,512.6,437.4,514.6,437.6z"/>
	<path class="st4" d="M430.6,438.5c-0.7-4.3-3.9-7.5-4.8-11.6c3.9,0.7,7.8,1.3,11.7,2c1.3,4.4,3.9,8.3,5.8,12.4
		C439.1,440.3,434.8,439.4,430.6,438.5z"/>
	<path d="M495.2,438.5c-0.3,5.4-2.9,9.6-5.8,9.7c-4.3,0.1-7.8-5-7.9-11.7c0.3,0,0.7,0,1,0.1c2.4,1.7,2.7,5.2,5.6,6.5
		c1.8-1.9-0.8-3.8,0.3-5.6C490.7,436.9,492.8,438.7,495.2,438.5z"/>
	<path class="st6" d="M488.3,437.6c1.1,2.4,3.8,5.7,1,7.1c-3,1.5-4.4-2.6-5.8-5c-0.6-0.9-0.7-2.1-1.1-3.1
		C484.5,436,486.4,437.2,488.3,437.6z"/>
</g>
</svg>
