<?xml version="1.0" encoding="utf-8"?>
<!-- Generator: Adobe Illustrator 23.0.1, SVG Export Plug-In . SVG Version: 6.00 Build 0)  -->
<svg version="1.1" id="Layer_4" xmlns="http://www.w3.org/2000/svg" xmlns:xlink="http://www.w3.org/1999/xlink" x="0px" y="0px"
	 viewBox="0 0 1000 1000" style="enable-background:new 0 0 1000 1000;" xml:space="preserve">
<style type="text/css">
	.st0{fill:#6E3720;}
	.st1{fill:#FB9A7A;}
	.st2{fill:#FEFEFE;}
	.st3{fill:#7F7F7F;}
	.st4{fill:#808080;}
	.st5{fill:#C0FEFE;}
	.st6{fill:#00407F;}
</style>
<g>
	<path class="st0" d="M500.4,324.2c21.9-0.2,41.3,2.2,60,8.8c10.7,3.7,21.1,8.2,29.6,15.6c13,11.3,18.8,25.1,15.8,43.1
		c-2.2,13-6.1,25.1-11.1,37c-0.5,1.3-1.4,2.5-2.2,3.7c-2.4,3.9-4.2,7.2-0.9,12.3c4,6,2.2,13.2,0.8,20c-2.2,10.3-7.4,19.4-12,28.8
		c-3.3,6.8-4.9,13.9-5.4,21.5c-1,14.7-3.6,29.3-8,43.4c-4.3,13.7-7.9,27.6-10.3,41.8c-0.7,4.1-0.1,8.2,1.8,12.2
		c6.6,13.9,3,22.1-11.4,26.6c-15.6,4.9-31.7,8.1-47.9,7.3c-17-0.8-34.3-2.4-50.2-9.5c-7.7-3.5-10.1-11-8.3-17.6
		c4.7-16.6,2.1-32.6-1.7-48.6c-2.9-12.1-6.7-24.1-9.1-36.3c-1.6-8-1.6-16.3-2.1-24.4c-0.2-3.9-0.9-7.5-2.6-11
		c-5.4-11.1-11.4-21.9-14.5-33.9c-2-7.8-1.9-15.4,2.1-22.6c1.3-2.3,0.9-3.9-0.2-6c-6-11-11.1-22.4-13.4-34.8
		c-2.5-13.5-5-26.9,2.2-40.1c5.1-9.4,13.4-14.5,22.1-19.6c14.2-8.2,29.7-12.8,45.5-15.4C479.9,324.7,491.2,323.2,500.4,324.2z"/>
	<path class="st1" d="M546.9,337.9c6.8,2.8,13.9,4.8,20.7,7.6c9.4,4,18.1,9.2,23.3,17.8c4.4,7.3,6.9,15.5,5,24.8
		c-2.7,13.1-5.6,26-12,37.8c-1.5,2.7-3,5.3-4.6,7.9c-0.9,1.4-0.9,1.4-8.8,1.9c2.8,3.2,7.1,4,9.5,7.3c5.8,7.9,4,15.9,1.2,24.2
		c-2.6,7.5-7,14.1-10.6,21.1c-4.3,8.4-6.9,17-7.4,26.6c-0.7,15.7-3.9,31.1-7.9,46.3c-3.2,12-5.8,24.2-8.3,36.4
		c-1.3,6.2,0.8,12.1,2.9,17.9c3.2,9,1.5,12.1-7.8,14.3c-14.1,3.4-28.4,5.6-42.8,5.6c-14,0-27.8-2.1-41.3-5.8
		c-6.7-1.9-9.2-6.3-6.5-12.8c4.3-10.3,3.1-20.7,1.2-30.9c-3.3-17.1-7.7-34-10.9-51.1c-1.5-8.2-1.7-16.6-2.1-25
		c-0.3-5.4-1.3-10.4-3.7-15.3c-4.8-9.8-10.1-19.4-14.4-29.5c-5-11.7-2.7-20.2,8.3-27.2c0.8-0.5,2-0.5,2.3-2.4c-8.1,2-9.6-4.6-12-9.6
		c-5.7-12.2-11.3-24.4-13-38c-1.7-13.9,2-25.1,13.7-33.5c11.6-8.3,24.6-13.5,38.2-17.6c0.3,0.6,0.3,1.3-0.1,1.8
		c-5.5,7.1-3.1,14.2,1.2,20.3c7.2,10.4,16.9,17.3,30.4,17c1.2,0,2.3,0,3.2,0.9c1.4,4,2,8.2,1.8,12.4c-0.2,4.6-1.3,5.5-5.8,4.7
		c-15.5-2.8-31.1-5-46.4-8.7c-5.5-1.3-11.1-2.5-16.6-3.8c-5.6-1.4-6.4-2.6-4.8-8.3c3-10.7,10.2-18.2,17.5-23.6
		c-11.3,7.1-22.8,15.9-23,33c1.8,16,7.3,30.6,17,43.5c2.9,3.8,6.8,5.8,11.4,6.9c10.8,2.5,21.5,5.3,32.3,7.6c2.5,0.5,6.1,0.8,3.9,4.6
		c1.7-2.2,4.7-3.9,6.7-6.6c6.4-7.6,8.3-17,9.9-26.3c0.6-3.8,1.4-7.6,1.1-11.5c0.3-8.9-1-17.6-1.4-26.4c2.6-9,0.7-17.6-2.7-25.9
		c-0.6-1.6-1-3.7-3.7-2.8c-0.4,0.1-0.9-0.3-1.3-0.6c-3.6-3.8-8.2-6.6-11.3-11c10.3-2.4,20.7-4,31.2-2.5c3.9,0.6,8,0,11.9,1.5
		c-0.4,4.4-3.3,7.4-6.5,9.5c-4.1,2.8-6.1,6.5-6.6,11.2c-0.3,3.2-1,6.4-1.6,9.5c-1,12.4-2.3,24.8-2.3,37.3
		c0.7,13.5,2.5,26.6,10.8,37.9c1.4,1.5,2.7,3.2,4.6,4.5c1.1-2.9,3.8-3.1,6.2-3.6c12.1-2.4,24.1-5.2,36.1-7.6
		c3.4-0.7,6.2-1.9,7.6-5.3c5.3-8.9,10.4-17.9,14.1-27.5c2-5.2,2.7-10.6,2.8-16.1c0.9-19.8-13.6-27.2-28-34.8c2.4,1.6,4.7,2.9,7,4.3
		c2.4,1.4,4.3,3.5,6.5,5.2c5,3.8,7.9,9,9.4,15c1.3,5.4,0.3,7-5.2,8.3c-14.4,3.2-28.8,6.6-43.4,9.3c-6.6,1.2-13.1,2.7-19.6,3.9
		c-4.6,0.8-5.6,0-5.7-4.7c0-5.3,0.6-10.6,1.8-15.9c1.2-1.2,2.5-0.3,3.6,0.2c3.9,1.8,7.8,1.3,11.3-0.4c9.3-4.4,17-10.6,21.5-20.2
		c1.7-3.6,2.4-7.4,1.1-11.3C546.4,340.4,545.8,339.1,546.9,337.9z"/>
	<path d="M505.7,362.2c0.9-4.7,1.6-9.4,2.7-14c0.4-1.9,1.8-3.5,3.4-4.5c4.4-2.6,6.6-6.9,9.6-10.7c4.8-2.5,9-6.2,15.5-4.2
		c5.2,1.6,6.8,5.9,10,9.1c3.4,11.2-0.4,21.3-10.1,28.4c-4.9,3.6-9.4,7.2-15.5,8.9c-4.6,1.3-8,0.1-11.5-2.2
		C505,370.7,505.1,366.6,505.7,362.2z"/>
	<path d="M478.4,334.1c5.4,2.7,9,7.6,13.3,11.5c1.8-0.9-0.2-1.9,0.2-3.2c4.3,5.2,5.5,11.4,7.2,17.4c1.3,4.7,1.3,9-1.2,13.3
		c-0.7,2.3-2.2,3.8-4.8,4c-9.3,2.5-17.2-1.8-24.2-6.6c-6-4.1-10.9-9.9-13.4-17.5c-2.1-6.4-0.8-11.3,3.4-15.9
		c1.1-0.9,2.3-1.8,3.4-2.7c4.2-3.5,8.6-4,13.3-1.2C476.5,333.5,477.5,333.7,478.4,334.1z"/>
	<path class="st2" d="M514.7,439.6c-5.6-4.4-6.8-11.2-8.6-17.4c-1.9-6.7-3.5-13.7-3.1-20.9c1.3-1,2.6-2.1,4.3-0.7
		c1.4,2.7,0.8,5.7,0.9,8.6c0,4.1,0.5,8.1,1.7,12c0.6,2,1.6,3.8,3.8,3.8c2.1,0.1,3.6-1.2,4.6-3.1c2.3-4.3,2.4-9,2.8-13.7
		c0.3-3.7-1.2-7.4,0-11.1c1.7-1.8,4-2.1,6.2-2.6c12.8-2.9,25.7-5.5,38.5-8.4c1.7-0.4,3.5-0.8,5.2,0.1c1.1,0.9,1.3,2.3,1.1,3.5
		c-3,14.1-7.3,27.7-14.5,40.4c-10.9,4.1-22.4,5.7-33.7,8.5C521,439.5,518,441.2,514.7,439.6z"/>
	<path class="st2" d="M499.9,401.4c-0.7,12.9-2.8,25.5-9.9,36.6c-0.4,0.6-1.2,1.1-1.8,1.6c-1,0.5-2.1,0.9-3.3,0.6
		c-11.1-2.3-22.4-3.5-33.3-7.1c-1.1-0.4-2.1-0.8-2.9-1.6c-6.2-9.5-11.4-19.5-15-30.3c-1.4-4.4-3.8-9.1-1-13.9
		c1.4-0.7,2.8-0.4,4.3-0.1c13.3,2.9,26.6,5.7,40,8.3c1.6,0.3,3.2,0.6,4.5,1.6c1.3,1.6,0.9,3.4,0.6,5.1c-0.7,5.7-0.4,11.3,0.6,17
		c0.6,3.2,2.1,5.6,5.4,6c3.8,0.4,4.3-3,5.1-5.5c1.2-4.1,1.6-8.3,1.5-12.5c0-2.1-0.3-4.3,1.2-6.1
		C497.4,400.3,498.7,400.3,499.9,401.4z"/>
	<path class="st0" d="M561.2,457.4c-4,7.4-10.7,11.3-17.9,14c-14.4,5.4-29.5,8.2-44.8,7.8c-14.2-0.3-28.6-1.9-41.5-8.6
		c-5.3-2.7-10-6.4-14.2-10.8c-0.9-0.9-1.4-2.2-2.8-4.4c19.6,12,40.3,14.8,61.1,15C521.9,470.6,542.4,467.8,561.2,457.4z"/>
	<path class="st0" d="M571.3,386.9c-6.5,0.3-12.6,2.5-18.9,3.8c-10.3,2.1-20.6,4.6-30.8,6.9c-0.9,0.8-2,1.4-3.2,1.8
		c-2.1,0.5-4.3,1.1-6.5,1.5c-1.7,0.2-3.5,1-5.1-0.3c-1.2,0.7-2.4,1.2-3.8,0.9c-0.6-12.7,1.6-25.3,2-38c0-0.4,0.5-0.8,0.7-1.2
		c-0.4,4.3,1.7,7.6,4,10.9c0.7,6.6-1.9,13.1-0.7,20.2c11.6-2.2,23.1-4.3,34.6-6.7c11.4-2.4,22.7-5.2,34.1-7.6
		c3.2-0.7,3.4-2.1,2.9-4.8c-1.7-9.9-8.4-15.9-16.1-21.1c-3.4-2.3-7-4.4-10.7-6.8c14.5-2.3,34.3,19.3,33.9,36.4
		c-1.3,1.3-3,1.9-4.7,2.3C579.2,385.6,575.4,387.5,571.3,386.9z"/>
	<path class="st0" d="M481.4,397.5c-10.7-2.1-21.4-4.2-32.1-6.4c-5.6-1.1-11.1-2.2-16.7-3.3c-4.2,0.8-7.7-1.7-11.6-2.2
		c-2.1-0.7-4.5-0.9-5.9-2.8c0.4-10.6,3.9-19.4,12.7-26.2c5.3-4.1,10.6-8.1,17.1-10.3c-2.5,2.3-4.9,4.7-7.6,6.8
		c-7.5,5.9-12.9,13.1-15,22.7c-0.6,2.9,0,3.6,2.7,4.2c13,2.5,25.8,6.1,38.8,8.3c9.3,1.5,18.5,3.3,27.8,5.1c2.3,0.4,2.3-0.8,2.4-2.4
		c0.6-4.7-1.3-9.3-1-14c1.6-1.3,3.2-2.7,4.8-4c2.3,5.2,0.7,10.9,1.9,16.4c0.9,3.8,0.1,8,0.1,12c-1.2,0-2.5,0.1-3.7,0.1
		c-0.9,0.1-1.9,0.2-2.8,0.1c-2.3-0.4-4.7-0.9-7-1.1C484.4,400,482.5,399.4,481.4,397.5z"/>
	<path class="st2" d="M415.1,382.8c2,0.6,3.9,1.3,5.9,1.9c1.5,1.6,1.8,3.7,2.2,5.8c2,11.6,6,22.4,13.3,31.8c1.2,1.6,2.9,3.2,2.1,5.6
		c-2.2,1.2-4-0.3-5.9-1c-8.1-9.6-12.8-20.8-15.6-32.8C416.2,390.4,414.5,386.8,415.1,382.8z"/>
	<path class="st0" d="M432.7,426.9c2.1-0.9,3.8,0.9,5.8,0.7c4.1-0.6,7.6,0.7,10.8,3.2c10.8,4.3,22.3,5.1,33.4,7.7
		c1.8,0.4,3.7,0.7,5.6,1.1c-1.9,3.4-5.5,4.9-9.4,8.4c3.5-5.5,0.2-6-2.7-6.5c-12-2-23.5-5.6-35.4-8.2
		C437,432.5,434.8,429.7,432.7,426.9z"/>
	<path class="st0" d="M514.7,439.6c14.3-3.4,28.6-6.7,42.9-10.1c2.8-2.5,6.5-2.6,9.9-3.6c1.1-0.1,2.1,0,2.8,0.9c-0.1,3.9-3,5-6,5.6
		c-12.8,2.7-25.6,5.3-38.3,7.9c-3,0.6-6.5,0.8-2.8,6.4C518.8,444.7,516.7,442.2,514.7,439.6z"/>
	<path class="st2" d="M570.3,426.9c-0.9,0-1.9,0-2.8-0.1c-0.9-3.9,1.8-6.8,3.2-9.9c4.4-10.1,9.3-20,11.2-30.9
		c0.1-0.8,0.6-1.5,1.2-2.1c1.7-0.1,3-1.6,4.8-1.1c0.3,12.9-5.5,23.8-11.6,34.4C574.4,420.5,573.6,424.6,570.3,426.9z"/>
	<path class="st3" d="M544.9,343.7c0,3.6-2.9,6.3-6.7,5.8c-5.4-0.8-10.6-2.3-14.7-6.2c-0.9-0.9-2.5-1.4-1.6-3.5
		c1.4-3.2,8.7-9,11.5-8.6C538.9,331.9,544.9,338.5,544.9,343.7z"/>
	<path class="st4" d="M469,336c5-0.1,8.8,1.9,11.6,4.8c5.7,5.8,11.1,11.9,13.7,20c0.8,2.5,1.4,4.6-0.8,6.6c-2.4,2.1-4.1-0.2-6-1.1
		c-2.6-1.1-4.6-3.2-5.9-5.6C477.3,352.6,473.3,344.4,469,336z"/>
	<path class="st5" d="M583,384c-0.2,9.6-4.6,18-8.1,26.6c-2.3,5.5-5,10.8-7.5,16.3c-3.1,1.7-6.5,1.9-9.8,2.7
		c5-12.8,10.4-25.3,13.2-38.8c0.3-1.3,0.3-2.5,0.5-3.8C574.9,384.9,579.1,384.9,583,384z"/>
	<path d="M518.6,398.3c0.7-1.1,1.9-0.7,2.9-0.8c1.5,6.8,1.1,13.6,0,20.4c-0.4,2.4-1.5,4.5-2.9,6.3c-3.4,4.2-7.9,3.2-9.8-1.9
		c-2.7-7.1-1.7-14.5-2-21.8c1.7-0.3,3.3-0.7,5-1c0.9,0.9,1.7,1.9,2.4,3c0.7,1.2,1.3,3.1,3,2.5c1.7-0.6,1.1-2.4,1.2-3.8
		C518.3,400.2,518.4,399.2,518.6,398.3z"/>
	<path class="st5" d="M449.2,430.8c-3.6-1.1-7.2-2.2-10.8-3.2c-5.2-7.4-10.5-14.8-13.3-23.6c-2-6.3-3.5-12.7-4.2-19.3
		c4.1,0.3,7.9,1.7,11.6,3.2c0.1,8.4,3.1,16.1,6.6,23.6C442.3,418,445.9,424.4,449.2,430.8z"/>
	<path d="M494.1,400.4c0.9,0,1.7,0,2.1,1c-0.4,5.6,0.1,11.2-1,16.8c-0.9,4.9-3.2,8.6-6.6,8.5c-4.2-0.1-6.2-3.1-7.3-8.4
		c-1.4-7-0.8-13.9,0.1-20.9c1.7,0.7,3.3,1.3,5,2c0.4,0.5,0.9,0.9,1.3,1.4c1.2,1.4,1.4,4.2,3.6,4.1
		C493.8,404.9,492.5,401.6,494.1,400.4z"/>
	<path class="st2" d="M518.6,398.3c0.3,0.2,0.7,0.4,0.7,0.5c-0.2,2.8,2,7.4-1.5,8c-4.4,0.9-4.9-4.1-6-7.4
		C514,399.1,516.3,398.7,518.6,398.3z"/>
	<path class="st2" d="M494.1,400.4c-0.5,2.3,1.7,5.9-2,6.6c-3.1,0.6-3.8-2.7-4.9-5c-0.4-0.8-1.2-1.5-0.9-2.6
		C489.1,398.7,491.5,400.5,494.1,400.4z"/>
	<path class="st6" d="M513.5,424.6c-2.2-0.2-5.6-7.4-4.3-9.3c0.2-0.3,0.4-0.5,0.7-0.7c1.4-0.9,2.7,0.2,3.4,0.9
		c1.8,1.6,3,3.8,3.1,6.3c0,1.4-1.3,2.1-2.4,2.8C513.9,424.7,513.7,424.6,513.5,424.6z"/>
	<path class="st6" d="M490.2,421.3c0,1.5-0.1,3.1-2,3.3c-1.7,0.2-5.7-5.9-5.8-8.4c0-1.4,0.3-2.7,1.9-2.9
		C486.6,413,490.2,418,490.2,421.3z"/>
</g>
</svg>
