<?xml version="1.0" encoding="utf-8"?>
<!-- Generator: Adobe Illustrator 23.0.1, SVG Export Plug-In . SVG Version: 6.00 Build 0)  -->
<svg version="1.1" id="Layer_4" xmlns="http://www.w3.org/2000/svg" xmlns:xlink="http://www.w3.org/1999/xlink" x="0px" y="0px"
	 viewBox="0 0 1000 1000" style="enable-background:new 0 0 1000 1000;" xml:space="preserve">
<style type="text/css">
	.st0{fill:#6E3720;}
	.st1{fill:#FB9A7A;}
	.st2{fill:#808080;}
	.st3{fill:#FEFEFE;}
	.st4{fill:#C0FEFE;}
	.st5{fill:#730000;}
	.st6{fill:#00407F;}
	.st7{fill:#004080;}
</style>
<g>
	<path class="st0" d="M548.8,310.7c13.2,3.5,25.7,8.6,37,16.4c15.5,10.8,21.3,25.2,19,44.1c-1.9,15.3-6.4,29.6-13.9,42.5
		c-4,7.1-2.1,12.2-0.1,18.2c2.1,6.6,0.8,13-1,19.2c-2.7,9.2-6.4,18.2-10.9,26.7c-3.3,6.1-4.4,12.4-4.7,19.2
		c-0.7,11.8-2.3,23.5-4.9,35c-3.1,13.5-5.9,27.1-10.6,40.3c-5.2,14.4-10.2,28.9-17.6,42.4c-3,5.6-4.8,11.7-5.9,17.9
		c-1.1,6.1-4.6,9.8-10.4,11c-10.5,2.2-21,4.1-31.8,2c-3.3-0.6-6.7-0.5-10-0.9c-7.2-0.8-13.9-4.5-15-14c-1-7.8-3.9-14.7-7.2-21.5
		c-7.6-15.8-13.4-32.3-19.4-48.8c-4.3-11.8-6.5-24.1-9.5-36.2c-1.7-6.9-1.4-14.3-2.2-21.5c-1-9.6-1.3-19.1-6.6-28
		c-5.8-9.9-10.1-20.7-11.8-32.3c-0.8-5.4-0.6-11,2.4-15.8c2-3.2,1.5-5.7-0.1-8.9c-5-10.5-10.2-21-12.5-32.6
		c-2.5-12.6-4.3-25.3-0.6-37.9c1.8-6.1,5.6-11.4,10.5-15.7c12.5-10.8,27.5-16.6,43.1-21c0.9-0.3,1.9-0.1,2.9-0.2
		c1.3,3.7-1.1,6.4-2.7,9.3c-3.8,2.9-8.6,3.8-12.9,5.6c-8.5,3.6-16.2,8.1-22.6,14.9c-7.1,7.5-9.9,16.6-9,26.4
		c1.3,15.8,6.8,30.4,14,44.4c1.7,3.4,3.9,6,8.2,5.8c0.9,0,2.1,0.3,2.4,1.3c0.4,1.4-0.8,2.1-1.8,2.5c-10.5,5.5-11.6,14.2-8.9,24.5
		c2.4,9.1,6.4,17.5,11,25.5c5.7,9.7,7.4,20.1,8.2,31.1c1.7,23.8,6.8,46.9,15.1,69.4c6,16.2,12,32.3,20.3,47.5
		c1.2,2.2,1.6,4.6,2.4,6.9c1.4,4.3,4.4,6.8,8.8,7.6c8.4,1.4,16.8,1.4,25.2,0c4.4-0.8,7.3-3.4,8.6-7.7c2.3-7.7,6.2-14.7,9.4-22
		c12.3-28.3,22.2-57.3,26.4-88c1.1-8.4,1.2-16.8,2.1-25.3c0.4-4,1.4-7.6,3.1-11.2c4.2-8.5,8.6-16.8,12.3-25.5c1.6-3.6,3-7.2,3.9-11
		c1.9-8.1-0.9-15.6-7.8-20.4c-0.9-0.6-2-1.1-2.9-1.8c-0.6-0.5-1.4-1-1.3-1.9c0.2-1.1,1.3-1.6,2.2-1.5c5.8,0.4,7.7-3.7,9.6-8
		c5.8-13.1,11.1-26.3,12.8-40.8c1.7-14.3-3.7-25.1-14.5-33.6c-6.5-5.1-14.2-7.8-21.9-10.5c-2.7-0.9-5.8-1.3-7.9-3.6
		C548.6,317.3,547.4,314,548.8,310.7z"/>
	<path d="M548.8,310.7c0.4,3.2,2,6.4,0.1,9.7c1.1,1.4,0.6,2.8,0,4.2c-0.2,0.5-0.4,0.9-0.6,1.4c-4.6,9.4-11.6,16.4-21.2,20.6
		c-5.9,2.6-11.8,3.7-17.7-0.2c-2.6-1.9-3.6-4.8-4.5-7.7c-0.8-9.6,2.6-17.8,8.2-25.3c2.4-3,4.6-6,8.3-7.5
		C530.9,297.4,540.8,297,548.8,310.7z"/>
	<path d="M454,319.4c1-3,2-6,3.1-9c1.9-1.6,3.7-3.4,5.8-4.7c4.5-3,9.1-1.9,13.7,0.1c4.5,1.1,7.5,4.4,10.8,7.4
		c5.2,4.5,9.2,9.9,11.8,16.3c2.1,5.2,2.8,10.2-0.3,15.3c-1.2,1.7-2.7,3-4.4,4.1c-5.8,3.1-11.7,2.3-17.4,0
		c-11.1-4.5-19.9-11.5-23.6-23.5c-0.2-0.7-0.4-1.5-0.4-2.3C452.9,321.8,453.1,320.5,454,319.4z"/>
	<path class="st0" d="M486.4,313.5c-3.3-2.6-6.5-5.1-9.8-7.7c15-1.6,30-1.9,45,0c-2.3,2.6-4.6,5.2-7,7.8c-1.5,0.9-3,0.9-4.7,0.8
		c-6-0.6-12-0.7-17.9,0.2C489.9,314.8,488.1,314.6,486.4,313.5z"/>
	<path class="st1" d="M486.4,313.5c4.8,0.2,9.5-1.4,14.3-1.1c4.6,0.3,9.3,0.1,13.8,1.2c-5.7,7.4-9,15.7-8.5,25.2
		c1.8,7.7-1.3,15.2-0.7,22.8c-2.2,17.4-0.2,34.3,5.2,50.9c0.9,2.6,2,5.1,3.6,7.4c5.9,8.3,9.2,9.3,18.5,5.6c6.1-2.4,12.4-4,18.4-6.6
		c4.2-1.3,8.5-2.6,12.2-5.1c0.5-0.4,0,0.3,0.4-0.2c12.9-17.5,24.3-35.5,20.5-58.8c-2-9.2-8.4-15.1-15.8-20
		c-4.7-3.1-9.7-5.8-15.2-7.5c-2-0.6-4-1.4-5.2-3.3c0.3-1.2,0.7-2.5,1-3.7c10.6,3.1,21.2,6.3,30.2,13.1c11,8.2,17,21.5,15,35.7
		c-2.1,14.6-7.5,27.7-13,41c-2.3,5.5-5,9.8-12.3,7.9c5.7,3,9.7,7,12.4,12.6c3.5,7.4,0.4,13.9-2.2,20.2c-3.5,8.6-7.4,17.2-12.1,25.2
		c-3.8,6.6-5.2,13.6-5.3,20.7c-0.6,31.8-10.3,61.4-20.9,90.9c-4,11.1-9.8,21.3-14.3,32.1c-0.9,2.2-1.5,4.6-2.1,6.9
		c-1.3,4.6-4.8,7.2-9,7.9c-8.9,1.6-18,1.6-26.9,0c-4-0.7-7.9-3.1-8.8-7.5c-1.2-6.3-4.6-11.6-7.3-17.1
		c-12.6-26.4-22.3-53.8-27.8-82.6c-1.8-9.5-3-19.4-3.3-29.2c-0.3-7.3-1.1-14.5-4.9-21.3c-5.6-10.1-11-20.3-14.1-31.6
		c-1.9-6.9-1.8-13.2,1.9-19.5c2.3-3.9,6.5-4.9,10.5-7.9c-13.1,1.9-13.1-9.1-16.4-15.7c-5.3-10.6-8.7-22.1-9.8-33.9
		c-1-10.2,1.4-19.8,8.3-27.8c8-9.2,18.3-14.5,29.6-18.3c2.6-0.9,5.1-1.8,7.6-2.7c0,1.2,0,2.5,0,3.7c-1.9,2.5-4.8,3.2-7.4,4.4
		c-8.8,3.8-16.3,9.2-22.2,16.9c-2.2,2.9-3.8,6-4.5,9.6c-4.5,18.5,2.1,34.4,11.4,49.6c2.2,3.6,5.1,6.7,7.9,9.9c2,2.2,4.4,3.8,7.5,4.1
		c3.3,0.6,6.4,1.6,9.7,2.2c6.7,1.9,13.5,3.8,20,6.4c3.2,1.3,5.6,0.6,7.9-1.7c5.8-6,9.9-13,11.4-21.2c2.5-13.8,4.3-27.6,2-41.6
		c-0.2-5.7-2.5-11.4,0.3-17c4.7-9.8-0.7-17.3-5.7-24.8C490.6,317.5,488.3,315.6,486.4,313.5z"/>
	<path class="st1" d="M509.8,345.7c13,4,25.2-1.3,34.2-14.8c1.3-1.9,2.6-3.8,3.9-5.7c9.4,2.7,17.3,8.1,24.6,14.4
		c1.5,1.3,2.7,2.8,3.7,4.5c2.5,3.7,1.8,5.3-2.5,5.8c-9.7,1-19.4,2-29.1,2.9c-9,0.9-18.1,1.7-27.1,2.7c-0.5,0.1-1,0.2-1.5,0.2
		c-2.7-0.1-6,1-7.6-1.8C506.9,351.2,507.9,348.2,509.8,345.7z"/>
	<path class="st0" d="M509.8,345.7c0,0.6-0.1,1.3,0,1.9c0.5,2.2-2.5,4.7-0.3,6.3c2,1.5,5.1,0.8,7.6,0.4c12.6-1.7,25.2-2.7,37.8-3.9
		c6.7-0.6,13.3-1.9,20.1-1.9c2.2,0,2.5-0.7,1.2-2.5c-5.1-7.1-12.3-11.6-19.5-16c-2.8-1.7-6.2-2.6-8.7-4.8c0-0.4,0.1-0.7,0.1-1.1
		c11,3.9,21.8,8.4,30,17.1c3.5,3.7,6.9,7.6,7,13.2c-1.2,1.5-3,1.4-4.6,1.7c-3.3,1.1-6.7,0.7-10,1.1c-11.5,1.8-23.2,2.4-34.7,3.6
		c-8.5,0.9-17.1,1.7-25.6,2.6c-2.1,0.2-4.2,0.6-6-1c-0.7-7.9,1.3-15.7,2-23.5C507.3,341.1,508.5,343.4,509.8,345.7z"/>
	<path class="st2" d="M538,322.1c-4.5-0.8-9.5-3.5-14.2-6.8c-0.9-0.6-1.4-1.4-0.8-2.9c1.8-4.9,5.4-7.8,10.2-8.4
		c4.1-0.5,7.3,2,9.7,5.3c3.7,5.3,3.6,8.5,0,11.8C541.8,322,540.7,322.4,538,322.1z"/>
	<path class="st1" d="M454.2,325.1c5.2,13.1,14.8,20.8,28.3,24.2c4.1,1,7.9,0.2,11.6-1.4c2.1,5.6-0.2,8.5-6.6,7.9
		c-8.6-0.8-17.1-2-25.7-3c-10.3-1.2-20.7-2.3-31-3.7c-4.8-0.7-5.5-2-2.7-5.9c6.1-8.6,14.8-14,24.2-18.3
		C453,324.5,453.6,324.7,454.2,325.1z"/>
	<path class="st0" d="M454.2,325.1c-10.9,4.9-20.4,11.6-27.6,22.3c13.7,1.5,26.5,2.8,39.3,4.3c6.8,0.8,13.6,1.7,20.4,2.8
		c6,1,7.5-0.2,7.7-6.7c1.3-1,2.6-2.1,3.9-3.1c0.3,5.9,0.7,11.8,1,17.6c-2,1.7-4.2,1.2-6.5,0.9c-18.9-2-37.7-4.4-56.5-6.4
		c-3.9-0.5-7.7-0.9-11.6-1.3c-1.8-0.5-3.8-0.5-5.3-2c0.7-6.5,4.7-11.2,9.1-15.4c7.4-7,16.3-11.6,25.9-15
		C454.1,323.8,454.1,324.4,454.2,325.1z"/>
	<path class="st2" d="M473.3,308.9c2.5,1,5.9,3.3,8.4,6.4c4.7,5.8,9.6,11.5,12.5,18.6c0.7,1.7,1.5,3.2-0.3,4.7
		c-1.6,1.4-3,1.3-4.9,0.5c-6.5-2.8-9.8-8.5-12.6-14.5c-1.9-4.2-3.5-8.6-6.7-12.1c-0.7-0.8-1-1.9-1.5-2.8
		C469.5,309.4,470.5,308.3,473.3,308.9z"/>
	<path class="st3" d="M504,362.3c12-1.2,24-2.4,36-3.6c8.2-0.8,16.5-1.7,24.8-2.2c1.9-0.1,3.8,0.3,5.6-0.8c2.2,3.3,2.4,7,2,10.7
		c-1.4,12.9-6,24.9-11.1,36.6c-1.8,4-3.3,8.1-5.5,12c-1,1.8-1.9,3.8-3.9,4.8c-8.4,4.1-17.4,6.7-26.2,9.5c-4.4,1.4-7.9-2.8-10.8-6.1
		c-5.3-6-7.2-13.7-8.7-21.1c-2.1-9.9-3.4-20-3.1-30.2C503.1,368.7,503.6,365.5,504,362.3z"/>
	<path class="st3" d="M435.6,355.6c7.6,0.6,15.2,1.1,22.8,2c6.1,0.7,12.2,2,18.3,2.7c7.4,0.8,14.9,1.4,22.3,2
		c2.5,14.1,0.4,28-2.1,41.8c-1.7,9.4-6.8,17.3-14.1,23.7c-1.3,1.1-2.9,1.3-4.1,0.8c-7.3-3.3-15.3-4.7-22.7-7.8
		c-0.9-0.4-1.8-0.8-2.4-1.6c-11.8-14.7-20.5-30.7-21.2-50.1C432.2,364.4,432.5,359.6,435.6,355.6z"/>
	<path class="st0" d="M521.6,458.8c-5.9,0.5-11.7,1.6-17.6,1.9c-6.8,0.4-13.8-0.6-20.6-0.9c-9.8-0.3-19.1-2.5-27.9-6.9
		c-5.8-3-10.5-6.8-13.9-12.4c-0.2-2,0.4-2.3,2.1-1.2c11.3,7.4,24.4,8.8,37.3,10.9c7.6,1.2,15.3,2.3,23,1.9
		c18.9-0.8,37.3-3.8,54.3-12.6c1-0.5,2.1-0.8,3.1-1.1c1.4,2.6-0.9,3.9-2.1,5.4c-4.5,5.5-10.7,8.3-17.1,10.7
		C535.6,456.9,528.7,458.7,521.6,458.8z"/>
	<path class="st4" d="M435.6,355.6c-4.9,20.7,1.5,38.6,13.7,55.1c2.4,3.2,4.5,6.7,6.8,10c-3.4,0.2-6.4-1.7-9.7-2
		c-4.5-2.2-6.9-6.4-9.5-10.2c-9.4-13.5-14.9-28.4-15.1-45c0-3.2-0.1-6.5,2.3-9.2C427.8,354.6,431.8,354.2,435.6,355.6z"/>
	<path class="st4" d="M551.8,419.8c6.6-12.3,12-25.2,16.2-38.5c2.6-8.3,4.2-16.9,2.3-25.7c3.2-0.6,6.7,0.6,9.8-1
		c2.9,2.7,3.5,6.4,3,9.9c-2.2,18.4-9.9,34.8-19.7,50.3C560.1,417.8,556,418.9,551.8,419.8z"/>
	<path class="st3" d="M423.9,354.4c-3.9,25.4,6.6,45.8,22.4,64.4c-6.4-0.4-9-5.6-12.4-9.8c-10.5-13-16.4-27.9-16.8-44.7
		c-0.1-3.6,0.6-7.3,2-10.8C420.6,353.9,422.6,352.6,423.9,354.4z"/>
	<path class="st3" d="M563.5,414.9c4.9-10.9,10.6-21.5,14.5-32.9c3.1-8.9,5.8-17.9,2.1-27.3c1.6-0.1,3.2-0.2,4.8-0.3
		c2.1,5.6,1.2,11.4,0.7,17.1c-1.3,16.5-12.2,28.7-19.6,42.4C565.5,414.8,564.6,415.2,563.5,414.9z"/>
	<path class="st5" d="M521.6,458.8c9.9-2.9,20.4-4.2,29.5-9.7c4.4-2.7,8.4-5.8,10.5-10.7c0.5-0.4,1-1.2,1.3-1.1
		c1.1,0.3,0.7,1.4,0.5,2c-1.7,10.2-11,18.7-21.1,20.8C535.1,461.6,528.5,459.4,521.6,458.8z"/>
	<path class="st5" d="M441.6,440.5c8.1,9,18.5,14.2,30.1,17c3.8,0.9,7.9,0.7,11.6,2.3c-7.5-0.4-14.8,2.3-22.4,0.3
		C450.3,457.4,445,450,441.6,440.5z"/>
	<path d="M506.8,383.9c0-3.1-0.2-5.4,0.1-7.6c0.5-3.7,1.9-7.4,6-8c3.9-0.5,6.7,2.2,7.9,5.6c2.9,8.2,2.1,16.5-0.4,24.7
		c-1,3.3-3.7,6-7.3,5.5c-3.6-0.5-4.6-4.3-5.1-7.2C507.2,392.4,506.1,387.8,506.8,383.9z"/>
	<path d="M496.1,383c0.1,5.9,0.1,11.8-2.4,17.3c-2.4,5.2-7.5,5.6-10,0.4c-4.3-9-4.8-18.6-1-28c1.2-2.9,4.2-5.3,7.7-4.4
		c3.9,0.9,5.1,4.4,5.6,7.9C496.4,378.4,496.1,380.7,496.1,383z"/>
	<path class="st3" d="M519.5,379.1c0,1.8,0.5,4-1.7,4.6c-2.3,0.6-3.3-1.3-4.2-3.1c-0.8-1.7-1.8-3.3-2.7-5c-1-2,0.6-3.1,1.8-4
		c1.4-0.9,3.3-1.1,4.3,0.6C518.2,374.3,520,376.4,519.5,379.1z"/>
	<path class="st6" d="M513.5,402.1c-2.2-0.2-5.5-7.5-4.3-9.4c0.2-0.3,0.4-0.6,0.7-0.6c3.3-0.6,4.3,1.8,5.6,4
		c1.4,2.3,1.4,4.2-1.1,5.7C514.2,402,513.8,402.1,513.5,402.1z"/>
	<path class="st3" d="M494.1,379.4c0.1,1.8,0.3,3.6-1.5,4.3c-2.1,0.8-3.3-1-4.2-2.5c-1.1-1.7-1.8-3.6-2.7-5.5
		c-1.1-2.3,0.6-3.5,2-4.3c1.4-0.8,3.4-0.8,4.2,1C492.9,374.7,494.8,376.7,494.1,379.4z"/>
	<path class="st7" d="M490.2,398.9c-0.1,1.1,0.1,2.4-1.6,2.4c-1.9,0-6.2-5.6-6.1-8.1c0.1-1.3,0.6-2.2,2-2.3
		C486.7,390.7,490.3,395.8,490.2,398.9z"/>
</g>
</svg>
