<?xml version="1.0" encoding="utf-8"?>
<!-- Generator: Adobe Illustrator 23.0.1, SVG Export Plug-In . SVG Version: 6.00 Build 0)  -->
<svg version="1.1" id="Layer_4" xmlns="http://www.w3.org/2000/svg" xmlns:xlink="http://www.w3.org/1999/xlink" x="0px" y="0px"
	 viewBox="0 0 1000 1000" style="enable-background:new 0 0 1000 1000;" xml:space="preserve">
<style type="text/css">
	.st0{fill:#6E3720;}
	.st1{fill:#FB9A7A;}
	.st2{fill:#FEFEFE;}
	.st3{fill:#C0FEFE;}
	.st4{fill:#7F7F7F;}
	.st5{fill:#730000;}
	.st6{fill:#004080;}
	.st7{fill:#00407F;}
</style>
<g>
	<path class="st0" d="M544,252.9c17.8,4.3,34.4,11.3,46.2,25.7c7.6,9.2,11.7,20.2,9.7,33.2c-1.1,7.7-1.9,15.5-3.8,23
		c-2.6,10.5-6.6,20.7-11.7,30.4c-1.2,2.2-1.1,3.8,0,6c3.1,6.4,2.7,13.3,2.1,20.2c-1.2,14.4-8.8,26.6-13.4,39.7
		c-1.5,4.2-2.5,8.5-2.8,12.9c-0.9,15.8-2.7,31.4-5.6,47c-4.3,22.3-11.7,43.3-21.9,63.3c-8.2,16.1-18,31.2-31.7,43.4
		c-5.9,5.3-13.8,6.2-19.9,1.2c-9.9-8.2-18-17.9-24.6-29c-7.7-13.1-14.5-26.6-19.5-41c-3.7-10.9-6.1-22.2-8.7-33.4
		c-2.9-12.1-3.7-24.6-4.7-37c-0.6-7.5-0.7-15-2-22.5c-1.1-6.5-5.1-11.5-7.2-17.5c-4.1-12-9.2-23.7-8.6-36.8c0.1-2.9,0.4-5.8,1.9-8.2
		c2.4-3.8,1.4-6.9-0.5-10.5c-6.1-12-10.9-24.7-12.9-37.9c-2-12.7-3.5-26,2.8-38.2c4.7-9.1,11.7-16.3,20.6-21.4
		c8.9-5.1,18.3-9.3,28-12.8c2.9,1.9,7.1,2.7,6.9,7.5c-4.2,3.3-9.4,4.4-14,6.6c-8.5,4.1-17.3,7.6-24,14.6
		c-8.3,8.5-11.2,18.8-10.2,30.4c1.4,16.3,7.3,31.3,13.8,46c1.3,2.8,2.9,5.1,6.4,5.2c1.1,0,2.5,0.3,2.7,1.7c0.1,1.2-0.9,2-1.9,2.7
		c-10,6.5-10.7,15.6-7.7,26.2c3.2,11.2,8.7,21.4,13.2,32c2.8,6.8,4.1,13.8,4.4,20.9c0.8,17.1,2.3,34.1,6,50.8
		c6.1,28.3,16.3,54.8,33.5,78.4c2.7,3.7,5.4,7.3,8.8,10.4c5.7,5.2,8.9,5.2,14.7-0.2c3.5-3.3,6.1-7.2,8.7-11.1
		c18.4-27.5,31.2-57.4,36.7-90.1c2.4-14.2,2.9-28.8,4.4-43.1c0.7-6.9,2.5-13.3,5.6-19.6c5.2-10.5,9.6-21.4,12.2-32.9
		c1.8-7.8-0.6-14.1-6.4-19.2c-0.8-0.8-1.8-1.4-2.6-2.2c-2.5-2.6-2.3-4.1,1.1-4.4c3.8-0.4,5.5-2.7,7.1-5.8
		c7.7-14.8,11.6-30.8,13.1-47.2c1.5-17.3-6.9-29.5-21.7-37.7c-8.3-4.6-17.2-7.6-26.5-9.8c-1.6-0.4-3.2-0.6-4.6-1.5
		c-1.5-1.8,0-3.1,1.1-3.9C538.9,255.7,540.6,252.8,544,252.9z"/>
	<path d="M544,252.9c-2.9,2.7-6.6,4.4-8.9,7.7c-0.8,1.6-2.5,2.1-3.9,3c-2.7,1.7-5.8,2.2-8.9,2.9c-1,0.2-2,0.4-3,0.4
		c-2.4,0-4.6-0.6-6.8-1.4c-5-2.3-6.5-6.7-7-11.7c0-2.5,0.4-4.8,2.1-6.8c4.1-10.5,11-18.7,20.7-24.3c11.3-6.5,16.7-2.8,22.2,8.7
		c3.1,6.5,1.7,13.3-4.1,18.6C545.5,250.8,544.8,251.9,544,252.9z"/>
	<path d="M463,259.6c-1.7-2.9-5.6-3.6-7-6.8c-8.7-10.1-4.4-21.6,4.3-27.8c5.5-3.9,11.4-0.6,16.4,2.2c8.1,4.6,14,11.7,18.6,19.7
		c2.5,1.8,2.8,4.7,3.7,7.3c1.1,5.3-0.5,9.4-5.1,12.4c-3.7,2-7.5,3.7-11.9,2.9c-2.8-0.7-5.6-1.4-8.2-2.9c-1.4-0.8-2.8-1.5-4.3-2.2
		C467.2,263,464.4,262.2,463,259.6z"/>
	<path class="st0" d="M498.1,253.9c-1.8-2-1.7-4.7-2.9-6.9c4.2,0,8.3,0,12.5,0c-0.3,2.3-0.7,4.7-1,7
		C503.8,255.9,500.9,255.8,498.1,253.9z"/>
	<path class="st1" d="M498.1,253.9c2.9,0,5.8,0.1,8.7,0.1c0.6,4.3,1.9,8.3,6.1,10.6c-7.4,11-6,23.9-7.4,36.1
		c-1.6,13.4-1.4,26.9,0.9,40.3c1.7,9.9,2.6,20.1,9.4,28.3c4.8,5.8,6.3,6.4,13.3,3.8c6.7-2.5,13.4-5,20.1-7.6c3.1-1,6.2-1.9,9-3.5
		c1.5-0.7,2.7-1.6,3.6-3.1c6.3-10.1,11.9-20.4,15.8-31.7c2.8-8.1,3.5-16.5,3.1-24.9c-0.3-7-3.3-12.9-8.3-17.6
		c-10.5-9.9-22.7-16.6-36.8-19.7c-1.7-0.4-3.7-0.3-4.3-2.4c1.1-1.1,2.4-1.7,3.9-2c16.6,2.7,32.3,8.1,44.5,20
		c9.1,8.9,11.5,20.6,9.7,33.3c-1.6,11.7-4.1,23-8.3,34c-1.9,4.9-4.5,9.6-6.8,14.4c-1.8,3.8-5.6,0.8-8.2,2.4c0.3,2.2,2.5,2.4,3.8,3.5
		c7.8,6.5,9.8,14.7,7,24.3c-3,10.3-6.6,20.5-11.7,29.9c-4.7,8.7-5.8,18-6.4,27.4c-1.6,23.1-4.2,46-11.7,68
		c-8,23.4-19.4,45-33.8,65.1c-1.7,2.4-3.9,4.4-6.2,6.2c-4.6,3.7-8.6,3.3-13.2-1.1c-7.9-7.3-13.6-16.3-19.1-25.4
		c-10-16.8-16.9-34.9-21.9-53.7c-4.2-16-6.8-32.3-7.7-48.8c-0.5-9.3-0.3-18.7-2.9-27.8c-1.6-5.3-3.9-10.5-6.4-15.5
		c-4.5-9.1-8.3-18.4-10.3-28.4c-2-10,1.1-17.3,10-22.2c0.5-0.3,1-0.7,1.9-1.8c-8.9,1.8-9.3-5-11.9-10.1c-3.8-7.7-6.3-15.8-8.8-23.9
		c-3.3-10.9-5.2-22.1-2.5-33.2c2.7-11,10.1-19,19.8-24.4c9.2-5.2,19.1-9.1,28.9-13.1c2.3,1.3,4.5,2.6,6.8,3.9
		c-2.2,2.1-5.2,1.6-7.8,2.2c-14.6,3.6-26.8,11.1-34.5,24.1c-7.5,12.7-6,26.3-1.7,39.6c3.5,10.9,9,20.8,16,29.9
		c2,2.5,4.2,4.5,7.5,4.9c3.2,0.7,6.3,1.9,9.5,2.6c5.5,1.6,10.8,3.5,16.1,5.5c6.2,2.4,9.3,1.3,13.2-4.3c5.1-7.3,6.9-15.6,8.4-24.2
		c2.9-16.3,2-32.6,0.3-49c-0.6-5.3-0.8-10.7-0.9-16c-0.1-4.7-2.7-8.6-2.8-13.2C497.8,263.1,498.5,258.7,498.1,253.9z"/>
	<path class="st2" d="M549.9,366.3c-8.4,4.5-17.6,6.8-26.3,10.4c-2.4,1-4.6-1.9-6.4-3.6c-5.7-5.4-8.4-12.4-10-19.9
		c-2.7-12.3-4.6-24.8-4-37.3c0.7-13.9,1.2-28,3.7-41.8c0.7-3.9,2.3-7.3,5.9-9.4c2.2,0.4,4.5,0.8,6.7,1.2c11.9,2.1,21.7,9,32.1,14.5
		c5.5,2.9,10.2,6.7,13.6,12.2c4.7,7.7,5,15.9,3.1,24.4c-3.4,15.4-8.2,30.4-15.2,44.5C552.3,363.2,551.3,364.9,549.9,366.3z"/>
	<path class="st3" d="M549.9,366.3c3.2-8.6,7.4-16.9,10.4-25.6c3.7-10.6,6.9-21.3,7.8-32.4c0.8-10.4-4.4-18.7-13.2-24.4
		c-11.1-7.3-23.2-12.9-35.4-18.1c0.9-0.1,1.9-0.1,2.8-0.2c5.6-1.3,11-0.1,16.2,1.8c10.2,3.7,20.3,7.5,28.6,15.1
		c9.7,8.9,11.9,20.1,10.9,32.4c-0.9,11-4.6,21.2-9.8,30.9c-3.1,5.8-5.2,12.3-9.7,17.4C555.9,364.8,553.1,366,549.9,366.3z"/>
	<path class="st2" d="M558.6,363.1c3.6-7.4,7.2-14.8,10.7-22.3c4.2-9,7.2-18.4,7.7-28.3c0.9-16.6-6.3-29-21.2-36.5
		c-10.6-5.3-21.4-9.9-33.4-10.4c2.9-1,5.9-2,8.8-3c8.2,1.7,16.1,4.1,23.5,8c8.2,4.4,15.8,9.7,21.8,17.1c6.6,8.1,6,17.3,5.1,26.6
		c-1.6,17.2-10.5,31.4-18.9,45.8C561.6,361.8,560.2,362.5,558.6,363.1z"/>
	<path class="st4" d="M537.4,223.6c4.8,0.2,7,3.6,8.9,6.9c1.8,3.1,2.7,6.6,0.5,10c-1.4,2.2-3.6,3.2-6.2,2.5c-5-1.4-9.2-4.3-12.9-7.8
		c-2.6-2.4-2.6-5,0.1-7.3C530.5,225.3,534,224.3,537.4,223.6z"/>
	<path class="st2" d="M493.2,265.8c4.9,5.4,4.4,12.5,4.7,18.8c0.6,13.9,3,27.7,2.1,41.6c-0.7,11.5-1.9,23.1-5.9,34
		c-1.3,3.6-3.4,7-5.6,10.1c-3.4,4.8-7.1,5.7-12.7,3.8c-5.9-2-11.8-4.1-17.8-6.1c-3.3-1.9-4.6-5.4-6.5-8.3
		c-8.6-13.3-14.8-27.6-15-43.7c-0.3-20.7,4.5-32,23.9-42.6c6.6-3.6,13.3-6.9,21.3-4.9C485.8,269.2,489.5,267.5,493.2,265.8z"/>
	<path class="st3" d="M481.5,268.5c-16,1.1-29,8.1-38.1,21.2c-5.8,8.4-6.1,18.4-5.6,28.5c0.9,19,10.6,34.4,20.1,49.8
		c-2.9-0.9-5.9-1.8-8.8-2.7c-6.4-5.3-10.5-12.5-14.2-19.6c-7.4-14.1-10.9-29.1-8.5-45.1c1.4-9.5,6.5-16.9,13.8-22.7
		c7.6-6,16.2-10.2,25.8-12.1c2.5-0.5,5.1-1.3,7.6-0.2C476.3,266.5,478.9,267.5,481.5,268.5z"/>
	<path class="st2" d="M473.7,265.6c-12.2,1.7-23.5,5.7-33.1,13.7c-10.9,9-14.9,20.8-13.5,34.4c0.5,4.7,1.2,9.5,2.3,14.3
		c2.9,12.8,9.8,23.4,17.6,33.6c0.9,1.1,1.5,2.5,2.2,3.7c-4.8,0.7-6.9-2.9-9.1-6c-8.4-11.5-14.8-23.9-17.7-38
		c-4.6-22.3,3.5-39,22.9-50.3c7.6-4.4,15.6-7.6,24.6-7.5C471.3,263.8,472.7,264.4,473.7,265.6z"/>
	<path class="st4" d="M488.5,257.8c-3-0.3-6.3-2-8.5-5.1c-4.7-6.6-9-13.5-13.5-20.2c-0.6-0.9-1.5-1.9-1-3c0.7-1.4,2.3-1.2,3.5-0.9
		c2,0.5,3.9,0.9,5.7,2.3c7.7,6,13.7,13.3,18,22.1C494.1,256,493,257.9,488.5,257.8z"/>
	<path class="st5" d="M561.5,382.7c1-1.4,1.9-2.3,2,0.4c0.1,4.5-0.9,9-2.4,13.1c-2.7,7.4-5.4,14.9-9.6,21.8
		c-4.5,7.1-11.6,10.6-19.8,8.8c-10.2-2.3-20.4-4.2-30.9-3.8c-9.1,0.3-18.2,0.6-27,3.7c-9.5,3.4-16.4-1.1-21.5-8.3
		c-7.5-10.5-11.8-22.4-12.6-35.5c1.6-0.2,2.4,1,3,2.2c3.1,11.7,10.6,17.5,22.9,17.4c9.7,0,19.3,1.9,29,1.4c3.9,0,7.9,0,11.8,0
		c12.2,0.8,24.2-0.9,36.3-2.2c10-1,15.3-6.7,16.8-16.4C559.9,384.1,560.7,383.4,561.5,382.7z"/>
	<path class="st0" d="M441.5,384.9c-0.6-0.7-1.2-1.3-1.9-2c0-0.9-0.4-2.4,1.3-1c11.9,9.5,26.4,10.8,40.7,12.7
		c5.1,0.7,10.2,1.8,15.3,1.9c22.5,0.1,44.5-2.6,64.7-13.7c-0.3,0.7-0.7,1.4-1,2.2c-1.3,3.7-3.7,6.4-7,8.4c-10.8,6.5-22.4,10.1-35,11
		c-3.9,0.3-7.7,0.1-11.6,0.9c-4.3,0-8.6,0-12.9,0c-6.1-0.5-12.1-1.1-18.2-1.8c-9.2-1.1-17.5-4.4-25.3-9.2
		C446.8,391.8,443.9,388.6,441.5,384.9z"/>
	<path d="M506.8,314.7c0-3.1-0.3-5.4,0.1-7.6c0.6-3.7,1.7-7.8,6.3-8.2c4.2-0.3,6.8,2.8,8,6.3c2.4,7.5,1.2,15.1-0.1,22.7
		c-0.3,1.6-1.3,3.5-2.6,4.4c-1.7,1.1-3.3,3.6-5.8,2.6c-3.2-1.2-4.4-4.4-4.8-7.2C507.4,323.2,506,318.6,506.8,314.7z"/>
	<path d="M496.1,313.9c0.1,5.7,0,11.5-2.3,16.9c-0.8,1.9-1.7,4.5-4.6,4.1c-2.4-0.3-4.8-1.5-5.7-3.7c-3.7-8.9-4.5-18-1.1-27.2
		c1.2-3.3,4-5.7,7.8-5.1c4,0.6,5.2,4.2,5.8,7.7C496.4,309,496.1,311.5,496.1,313.9z"/>
	<path class="st2" d="M506.9,405.2c5.8-1.9,12-1.5,18-2.8c11.6-2.5,23-5.5,32.1-13.7c1.3-1.1,2.3-2.5,3.4-3.8
		c-1.6,12.3-5.8,17-18.1,18.3C530.6,404.4,518.8,405.9,506.9,405.2z"/>
	<path class="st2" d="M441.5,384.9c8.3,8.5,18.2,14.1,29.8,16.7c5.9,1.3,11.8,2.5,17.9,2.8c1.6,0.1,3.5-1.1,4.9,0.8
		c-13.2,0-26.3-0.9-39.3-2.9c-4.3-0.7-7.4-3.6-9.3-7.4C443.9,391.7,442.8,388.2,441.5,384.9z"/>
	<path class="st2" d="M519.5,309.8c-0.1,2,0.5,4.1-1.9,4.6c-2.2,0.4-3.1-1.3-3.9-2.9c-0.9-1.7-1.7-3.4-2.6-5
		c-1.2-2.2,0.5-3.5,1.9-4.3c1.4-0.9,3.4-0.9,4.2,0.9C518.3,305.2,520.1,307.3,519.5,309.8z"/>
	<path class="st6" d="M513.5,332.8c-2.2-0.2-5.5-7.5-4.3-9.4c0.2-0.3,0.4-0.6,0.7-0.6c3.3-0.6,4.3,1.8,5.6,4
		c1.4,2.3,1.4,4.2-1.1,5.7C514.2,332.7,513.8,332.7,513.5,332.8z"/>
	<path class="st2" d="M494.2,309.8c-0.1,2,0.5,4.1-1.9,4.6c-2.2,0.4-3.1-1.3-3.9-2.9c-0.9-1.7-1.7-3.4-2.6-5
		c-1.2-2.2,0.5-3.5,1.9-4.3c1.4-0.9,3.4-0.9,4.2,0.9C492.9,305.2,494.7,307.3,494.2,309.8z"/>
	<path class="st7" d="M490.3,328.9c-0.1,1.6,0.1,3.5-1.8,2.9c-3.6-1.2-4.7-4.6-5.8-7.8c-0.5-1.4,0.6-2.9,2.1-2.5
		C488.5,322.5,489.3,326,490.3,328.9z"/>
</g>
</svg>
