<?xml version="1.0" encoding="utf-8"?>
<!-- Generator: Adobe Illustrator 23.0.1, SVG Export Plug-In . SVG Version: 6.00 Build 0)  -->
<svg version="1.1" id="Layer_4" xmlns="http://www.w3.org/2000/svg" xmlns:xlink="http://www.w3.org/1999/xlink" x="0px" y="0px"
	 viewBox="0 0 1000 1000" style="enable-background:new 0 0 1000 1000;" xml:space="preserve">
<style type="text/css">
	.st0{fill:#6E3720;}
	.st1{fill:#FB9A7A;}
	.st2{fill:#808080;}
	.st3{fill:#7F7F7F;}
	.st4{fill:#FEFEFE;}
	.st5{fill:#730000;}
	.st6{fill:#C0FEFE;}
	.st7{fill:#FE0000;}
	.st8{fill:#00407F;}
</style>
<g>
	<path class="st0" d="M530.3,211.9c7.6,0,14.8,2.4,21.5,5.6c9.2,4.4,19.2,7.5,26.9,14.9c8.4,8,15.4,16.5,17.1,28.6
		c1.9,13.6-0.1,26.6-3.8,39.6c-3,10.5-7.1,20.5-11,30.7c-0.4,1-1.2,1.6-0.3,3c6.6,11.2,4.5,22.5,0.5,33.9
		c-3.7,10.6-7.1,21.2-11.5,31.5c-2.7,6.3-2.7,13.2-3,19.7c-0.4,8.1-0.7,16.1-1.4,24.2c-0.8,9.8-3,19.4-5.1,29
		c-4.3,19.8-10.5,39-18.4,57.6c-5.8,13.7-12.5,27.1-22.7,38.3c-3.2,3.5-6,7.4-10.1,10.1c-7.8,5-15.8,4.1-21.6-2.9
		c-9.7-11.6-18.2-23.9-24.6-37.8c-8.9-19.5-15.4-39.6-19.6-60.6c-3-15.2-5.1-30.4-5.9-46c-0.5-9.7,0-19.5-2.6-29.1
		c-1.8-6.5-5.3-12.1-7.5-18.3c-3.3-9.2-6.9-18.3-8-28.1c-0.6-5.4-1.2-11.3,1.2-16.2c2.4-5,1.7-9.2-0.5-13.6
		c-5.3-10.7-9-21.9-11-33.6c-2.3-13.7-4.7-27.3,1.2-40.8c3.1-7.2,7.8-13.2,13.6-18.3c11.3-9.8,24.8-15.6,39.1-19.7
		c2.6-0.7,5.2-1.1,7.9-1.6c2.4-1.5,4.8-0.1,7,0.5c6.2,1.8,11.8,1.6,16.4-3.7c0.5-0.6,1.2-1,2.1-0.7c4.2,0,8.4,0,12.5,0
		c1.6,0.1,2.6,1.2,3.9,1.9c4,2.3,8.1,3.3,12.6,2C526.8,211.4,528.6,210.6,530.3,211.9z"/>
	<path d="M530.3,211.9c-6.2,2.1-12.3,3.2-18.2-0.7c-1.4-0.9-2.6-1.7-3.4-3.2c-2.5-8.4,0.6-15.7,5.4-22c4-5.3,9.1-10,15-13.3
		c8.4-4.7,12.9-5,17.9-0.8c4.7,3.8,8.6,11.1,5.7,19.2c-3,8.6-9.7,13.4-16.9,17.7C534,209.8,531.8,210.1,530.3,211.9z"/>
	<path d="M496.1,207.9c-4.3,6-9.8,8.5-17.1,6c-2.7-0.9-5.6-1.4-8.4-2.1c-5.7-3.3-11.4-6.6-15.9-11.5c-8.6-9.5-4-24.6,5.4-28.6
		c5.5-2.3,10.3,0.1,14.2,2.6c6.6,4.2,13.6,8.4,17.8,15.5C495.3,195.4,498.6,201.1,496.1,207.9z"/>
	<path class="st1" d="M563.8,328.3c4.4,5.1,9.8,8.6,11.5,15.2c0.8,3.2,0.9,6.2,0.3,9.4c-2.9,14.4-9.9,27.3-14.7,41
		c-2.3,6.5-3.6,13.2-4.3,20.1c-1.3,13.1-2.1,26.3-3.5,39.4c-2.5,23.4-9.9,45.4-18.2,67c-6.2,15.9-14.2,31.3-25.8,44.4
		c-7.7,8.7-9.9,8.4-17.7-0.6C477.9,548.9,470,530.7,463,512c-5.1-13.7-8.8-27.8-11.4-42c-1.7-8.8-2.8-17.7-3.5-26.7
		c-1.3-15.7,0.6-31.7-4.8-46.9c-3.6-10.3-7.7-20.4-11.8-30.4c-4.1-10.1-5.6-19.9,0.4-30c1.8-3.1,4.8-4.6,7.8-7.9
		c-9.1,2-9.2-5-11.5-9.6c-7.5-15-11.9-30.9-12.1-47.6c-0.2-15.9,7.5-27.9,21.1-36.6c15.1-9.6,31.8-13.7,49.1-16.6
		c28.4-4.8,53.9,3.3,78.3,16.4c17.9,9.6,24.1,25,21.3,44.9c-2.1,14.9-6.1,29.1-12,42.8C572.2,326.3,570,329.9,563.8,328.3z"/>
	<path class="st2" d="M537,172.9c6.7-0.2,13.8,8,12.8,14.2c-0.7,4.1-4.3,6.2-8.1,4.5c-2.9-1.3-5.7-2.7-8.4-4.4c-3.1-2-5.7-4.1-4.5-8
		C529.9,175,533.3,173.3,537,172.9z"/>
	<path class="st3" d="M488.3,204.1c-4.5,0.2-7.5-2.5-10-5.7c-5-6.4-9.8-13-14.7-19.5c-0.5-0.7-1.8-1.1-0.9-2.3
		c0.7-1,1.7-0.9,2.6-0.8c1.2,0.2,2.6,0.5,3.6,1.1c9.6,5.2,18,11.6,22.4,22C493,202.6,492.1,204.1,488.3,204.1z"/>
	<path class="st4" d="M546.9,330.9c-7.8,3.4-15.6,6.8-23.3,10.4c-2,0.9-2.6-0.6-3.6-1.5c-8-6.7-12.6-15.5-14-25.7
		c-1.6-11.8-3.9-23.6-3.1-35.6c0.9-13.5,1.2-27.1,3.2-40.4c1.7-11.2,8.1-15.8,20-14.2c12.4,1.7,23.7,6.5,34,12.9
		c10.9,6.8,18.7,16.3,19.2,30.5c0.7,18.2-5.5,34-14.4,49.3c-1.1,1.9-2.1,4-3.1,6c-0.9,1.7-1.7,3.6-4.1,3.4c-0.6-1.6,0.2-2.9,0.8-4.2
		c4.3-9,8-18.2,11.2-27.6c3.4-10.2,5.9-20.7,2.8-31.6c-2.9-10-8.7-17.7-18-22.6c-9.4-5-19-9.3-28.4-10.5c8.4,4,18,8.5,26.7,14.4
		c10.3,7,14.5,17.3,13.7,29.1c-1.4,19.2-8,37.1-16.3,54.4C549.4,328.8,548.5,330.1,546.9,330.9z"/>
	<path class="st4" d="M450.1,329.2c-3.1-0.2-5.1-1.8-7-4.4c-8.8-11.9-15-25.1-17.7-39.6c-2.6-13.7-2.7-27.5,6.8-39
		c9-10.8,20.8-17.7,34.7-20.6c6.9-1.4,13.8-3.4,20.9-1c4.4,1.5,7.4,4.3,8.4,9.1c1.7,7.9,2.4,15.9,2.8,23.9
		c0.4,8.7,1.7,17.4,1.1,26.2c-0.9,13-0.9,26-4.7,38.7c-2.1,6.9-6,12.3-11.1,17.2c-1.1,1.1-2,1-3.4,0.5c-6.6-2.5-13.2-4.8-19.9-7.2
		c-4.4-2.6-6.7-7-9.2-11.1c-8.4-13.6-13.2-28.5-13.3-44.3c-0.2-22.9,6.5-34.3,30.2-45c3.3-1.5,6.8-2.7,10.2-3.8
		c-8.4,1.3-16.9,2.6-24.7,6.7c-19.1,10-27.8,29-22.4,50c3.4,13.5,8.8,26.2,16.4,37.9C449.2,324.9,451.1,326.6,450.1,329.2z"/>
	<path class="st5" d="M475.6,403.2c-11.2,4.2-12.7,3.5-19-4.4c-2.9-3.6-4.5-7.7-6.2-11.8c-4.1-10-7.6-20.1-9.6-30.8
		c-0.7-3.7-0.9-7.6-1.3-11.4c0-0.1,0.1-0.4,0.2-0.4c0.2,0,0.5,0.1,0.7,0.1c1.5,1.6,2.7,3.3,3.1,5.5c0.2,2.1,0.8,4.1,1.4,6.2
		c4.4,14.1,8.1,17.2,22.8,18.3c22.1,1.6,44.2,1.7,66.2-0.2c16-1.3,20-4.9,24.3-20.4c0.6-2.3,1-4.8,2.1-7c0.5-1,1.3-1.7,2.1-2.4
		c2.9,3.4,0.4,7.1-0.2,10.2c-2.7,13-5.8,26-12,37.9c-1.6,3-3.8,5.5-5.6,8.3c-5,7.8-11.3,3.8-17.3,2c-4.1-1.8-6.7-5.6-10.8-7.4
		c-3.5-1.5-25.4-3-29-1.7c-2.8,1-5.2,2.7-7.1,5C479,400.8,477.5,402.1,475.6,403.2z"/>
	<path class="st6" d="M450.1,329.2c-5-8.7-10.5-17.1-14.2-26.5c-3.3-8.6-6.7-17.3-7.1-26.6c-0.6-14.4,4-26.6,15.9-36.1
		c11.2-9,23.8-12.2,37.9-11.6c-4,1.5-8,3.1-12,4.5c-10.4,3.9-19.7,9.7-25.6,19.1c-5,8.1-6.3,17.7-5.5,27.1
		c1.1,13.8,4.5,27,11.5,39.2c2.9,5.1,6.5,9.6,9.8,14.4C457.1,332.1,453.5,331,450.1,329.2z"/>
	<path class="st6" d="M546.9,330.9c8.3-15.2,13.5-31.5,17.2-48.3c2.8-12.7,1.7-25-8.3-34.7c-4.3-4.2-9.8-6.9-15.1-9.7
		c-6.4-3.4-13-6.6-19.3-10.2c6.9,0.2,13.7,1.6,19.9,4.4c9,4.1,18.5,7.4,25.1,15.8c8.2,10.6,10,22,7.4,34.7c-3,15.3-9.8,29.1-16.2,43
		C554.3,328.2,550.8,330,546.9,330.9z"/>
	<path class="st0" d="M442.5,349.7c-0.7-1.7-2-3.1-2-5.1c1,0.4,2.3,0.5,3.1,1.2c11.2,8.2,24.2,10.1,37.5,11.7c8.3,1,16.6,2.4,25,1.8
		c16.8-1.2,33.4-3.3,48.9-10.7c2.6-1.2,4.6-3.6,7.6-4c-0.3,0.7-0.7,1.4-1,2.2c-5.4,11.5-16.4,14.8-27,18.2
		c-19.3,6.1-38.9,7.5-58.7,2.5c-10.6-2.7-20.9-6.2-29.6-13.3C444.6,352.9,443.4,351.5,442.5,349.7z"/>
	<path class="st7" d="M475.6,403.2c3.7-5.4,8-11.5,14.8-10.9c12.9,1.1,27.7-3.1,36.9,10.9c-8.4-0.8-16.6-2.9-25.1-2.9
		C493.2,400.3,484.4,401.7,475.6,403.2z"/>
	<path d="M506.8,269c0-3.4-0.3-5.7,0.1-7.9c0.5-3.7,1.9-7.4,6-8c4.2-0.6,7,2.5,8.2,6c2.5,7.6,1.5,15.4-0.1,23.1
		c-0.3,1.6-1.3,3.6-2.6,4.4c-1.8,1.1-3.3,3.6-5.8,2.5c-3-1.3-4.3-4.4-4.7-7.3C507.4,277.1,505.9,272.6,506.8,269z"/>
	<path d="M496.1,267.9c0.1,5.7,0.1,11.5-2.2,16.9c-2.5,5.5-7.7,6-10.2,0.6c-4.2-8.8-4.6-18.3-1.1-27.6c1.2-3,4-5.3,7.6-4.8
		c4,0.6,5.3,4.2,5.9,7.6C496.5,263,496.1,265.5,496.1,267.9z"/>
	<path class="st4" d="M442.5,349.7c13.8,11.5,30,16.5,47.7,18.6c19.3,2.3,37.2-2,54.8-8.5c6.8-2.5,11.9-7.5,16.5-13
		c-1.4,4.9-2.8,9.9-4.3,14.8c-2.7,9.1-9.2,11.9-17.5,13.4c-15.4,2.8-30.9,1.7-46.4,1.9c-11.1,0.1-22.2,0.4-33.2-1.8
		c-5.1-1-9.3-3.2-11.9-7.6C444.9,362,442.6,356.2,442.5,349.7z"/>
	<path class="st4" d="M519.5,264.2c0.1,1.8,0.3,3.7-1.6,4.3c-2.1,0.7-3.2-1.1-4.1-2.6c-1-1.6-1.5-3.4-2.5-5
		c-1.4-2.2,0.1-3.5,1.5-4.4c1.6-1.1,3.6-1.1,4.6,0.9C518.4,259.5,520.2,261.6,519.5,264.2z"/>
	<path class="st8" d="M510.8,276.5c1.6,0.7,3.3,1.1,4,3.1c0.6,1.9,2.8,3.4,1.1,5.7c-0.9,1.1-1.9,2.5-3.5,0.9
		c-2.2-2.1-2.9-4.9-3.4-7.8C508.8,277.5,509.7,276.7,510.8,276.5z"/>
	<path class="st4" d="M494.1,263.7c0,1.9,0.5,4.1-1.7,4.7c-2.3,0.6-3.3-1.2-4.2-3.1c-0.7-1.6-1.5-3.1-2.4-4.6
		c-1.4-2.2,0.1-3.5,1.5-4.4c1.6-1.1,3.7-1.1,4.6,0.9C492.9,259.4,494.7,261.3,494.1,263.7z"/>
	<path class="st8" d="M484.2,275.6c3.1-0.1,7.3,7,5.9,9.5c-0.1,0.1-0.1,0.3-0.2,0.4c-0.9,0.8-1.8,0.6-2.6-0.1
		c-2.6-2.1-4.3-4.8-4.7-8.1C482.5,276.4,483.4,275.7,484.2,275.6z"/>
</g>
</svg>
