<?xml version="1.0" encoding="utf-8"?>
<!-- Generator: Adobe Illustrator 23.0.1, SVG Export Plug-In . SVG Version: 6.00 Build 0)  -->
<svg version="1.1" id="Layer_4" xmlns="http://www.w3.org/2000/svg" xmlns:xlink="http://www.w3.org/1999/xlink" x="0px" y="0px"
	 viewBox="0 0 1000 1000" style="enable-background:new 0 0 1000 1000;" xml:space="preserve">
<style type="text/css">
	.st0{fill:#6E3720;}
	.st1{fill:#FB9A7A;}
	.st2{fill:#7F7F7F;}
	.st3{fill:#FEFEFE;}
	.st4{fill:#730000;}
	.st5{fill:#C0FEFE;}
	.st6{fill:#FE0000;}
	.st7{fill:#00407F;}
</style>
<g>
	<path class="st0" d="M497.8,167.7c26.5,0.9,48.6,5.7,68.3,17.9c12.1,7.5,21.9,17.6,26.3,31.6c2.4,7.8,2.5,16,1.2,24.1
		c-1.6,10.3-3.6,20.5-6.7,30.6c-2.2,7.4-5.3,14.5-7.9,21.8c-0.4,1.3-1.1,2.2-0.2,3.9c4.5,8.2,3.3,16.9,1.7,25.6
		c-2.5,13.1-7.1,25.5-12.1,37.8c-2.5,6-3.3,12.6-3.9,19c-1.1,11.2-1,22.5-2.2,33.7c-1.8,16.4-4.2,32.7-8.4,48.7
		c-6.7,25.6-17.3,49.5-29.6,72.7c-3.8,7.2-8.8,13.8-14.9,19.2c-7.4,6.5-15.6,3.7-21.6-3.7c-20.8-25.6-31.9-55.8-39.4-87.4
		c-4-16.7-7.3-33.5-8.1-50.8c-0.5-11.1-1.4-22.2-1.9-33.3c-0.5-10.3-4.1-20.1-7.8-29.7c-4.5-12-9.5-23.9-9.7-37
		c0-1.9-0.1-3.7,0.8-5.6c4.2-8.9,1.4-17.2-2.3-25.6c-5.1-11.8-7.4-24.4-9.5-37.1c-1.6-9.9-1.3-19.7,1.4-29c2.9-9.8,9.1-18,17.5-24.4
		c14.6-11.1,31.2-17.3,48.9-20.5C485.4,168.8,493.3,167.3,497.8,167.7z"/>
	<path d="M554.8,138.1c-0.6,8.4-4.9,14.2-12.2,18.3c-5.5,3-11.1,5.8-17.2,7.3c-5.2,1.3-10.3,0.5-14.3-2.9c-3-2.5-4.3-6.7-3-10.5
		c2.3-7,5.6-13.5,11.7-18c5.3-3.9,10.1-8.4,16.8-10.1c6.1-1.6,12.1,0.3,15.1,5.7C553.4,130.9,555.1,134.2,554.8,138.1z"/>
	<path d="M496.1,152.8c0.9,8.1-9.5,11.6-17.2,10c-9.2-1.8-17.3-6.1-24.4-12.4c-8.4-7.5-6.2-24.3,3.9-29.5c3.9-2,7.8-0.8,11,0.6
		c10.4,4.6,19.5,11,24.6,21.7C495.4,146,496.1,149.1,496.1,152.8z"/>
	<path class="st1" d="M561.3,290.3c2.1,3.9,5.3,4.6,7,6.9c4,5.6,6.7,11.2,5.1,18.7c-3.3,15.5-9.7,29.8-15.2,44.4
		c-3.1,8.3-4.2,17.1-4.4,26c-0.8,28-4.4,55.6-12.3,82.6c-5.8,19.7-12.9,39-22.5,57.2c-3.5,6.7-8.7,12.7-13.6,18.6
		c-2.8,3.4-8.2,2.5-11.2-1.6c-15.5-20.7-25.7-43.8-32.4-68.6c-3.2-12.1-6-24.2-8.2-36.5c-1.8-9.6-2.3-19.4-3.4-29.2
		c-1.8-15.8-0.8-32-5-47.4c-2.7-9.8-7.2-19.1-10.6-28.8c-2.3-6.5-5-13.1-5.5-19.8c-0.6-7.4,3.4-13.9,9.2-18.8c1-0.8,2.2-1.2,2.6-2.6
		c-6.3-0.8-8.3-3.1-10.2-9.6c-2.5-8.1-6.2-15.9-8-24.1c-2.8-12.5-5.3-25.3-2.5-38.2c1.1-5.2,4-9.8,7.5-13.8
		c9.4-10.9,21.3-17.8,34.7-22.3c12.9-4.3,26.2-6.6,39.7-6.6c19,0,37.3,4.5,54.3,13c11.8,5.9,21.3,14.9,26.2,27.8
		c3,7.9,2.6,16,1.5,24.2c-1.7,12.1-5.7,23.6-9.2,35.2c-0.8,2.6-2.2,5-3.3,7.5C569.8,288.8,568.1,293.1,561.3,290.3z"/>
	<path class="st2" d="M550.8,136.4c0,7.4-3.1,9.2-8.7,6.8c-4-1.8-6.9-4.8-9.7-7.9c-3-3.3-2.6-6,1.4-8.1c3.5-1.9,7.4-3.6,11.4-1.1
		C549.4,128.8,550.6,133,550.8,136.4z"/>
	<path class="st2" d="M465.2,125c0.5,0.1,1.6,0,2.4,0.5c9.5,5.2,18.6,10.9,22.8,21.6c1.6,4,0.6,5.6-3.6,5.3
		c-2.4-0.2-4.7-0.7-6.5-2.5c-6.4-6.6-11.6-14.1-17.4-21.1c-0.6-0.7-2.1-1.4-1.2-2.8C462.4,124.7,463.7,125.1,465.2,125z"/>
	<path class="st3" d="M546,293c-7,4.3-14.9,6.7-22.2,10.4c-3.1,1.5-8-2.6-11.4-8.1c-4.5-7.3-6.5-15.4-7.4-23.7
		c-1.1-9.9-2.8-19.9-2-29.9c1.1-14,0.9-28,2.9-41.9c1.8-12.5,7.4-17.2,19.8-15.1c15.1,2.5,29,8.5,40.5,18.9
		c10.3,9.3,11.9,21.7,10.8,34.7c-1.4,17.1-9.7,31.8-17.4,46.6c-1,2-2.2,4-4.9,4c-0.7-2.3,0.9-4,1.7-5.9c5.8-14,11.9-27.8,14.2-42.9
		c2.3-15.7-4.7-31.4-18.3-39.7c-8.9-5.5-18.5-9.5-28.1-10.9c10.7,4.3,21.7,9.7,30.8,18.5c8,7.6,10.5,17.3,9.4,27.6
		c-1.9,18.8-8.8,36.2-15.5,53.7C548.3,290.8,547.2,292,546,293z"/>
	<path class="st3" d="M453.1,291.8c-3.4,0.5-5.7-1.5-7.3-3.9c-8.2-12-14.5-25-17.7-39.3c-2.7-12-4.1-24.1,2-35.7
		c5.9-11.2,15.2-18.6,26.7-23.3c7.4-3.1,15.3-4.6,23.2-5.9c8.6-1.4,15.8,4.2,16.9,13.3c0.6,5.3,1.4,10.5,1.1,15.9
		c-0.6,11.6,2.5,23.1,1.9,34.8c-0.6,12.2-1.4,24.4-4.1,36.4c-1.5,6.8-5.2,12.8-10.7,17.5c-1.8,1.5-3.6,1.6-5.4,0.8
		c-6.7-2.7-13.3-5.5-19.9-8.3c-15.6-22.3-24.3-46.2-17.2-73.8c2.7-10.5,9.1-18.2,18.4-23.4c6.1-3.4,12.4-6.5,19.5-8.1
		c-12.4,0.9-23.3,4.7-32.9,12.6c-12.3,10.2-16.4,23.5-15.1,38.6c1.5,17.6,8.5,33.2,18.6,47.5C452.2,288.8,453.5,290,453.1,291.8z"/>
	<path class="st4" d="M477.7,375c-3.3,1.5-6.5,3.4-9.9,4.2c-3.7,0.9-6.6-1.1-8.8-4.2c-7.2-10.6-10.6-22.7-13.6-34.9
		c-2.5-10.3-5.6-20.7-4.8-31.5c2.2-0.2,2.6,1.5,3.2,3.1c1.4,5.7,2.7,11.4,4.6,16.9c2,5.9,6,9.4,11.8,11.3c7.6,2.4,15.4,2.9,23.1,3.1
		c17.5,0.6,35.1,0.8,52.6-1.6c11.2-1.6,18.2-6.9,20.3-18.4c0.8-4.1,1.7-8.3,3-12.3c0.4-1.3,1.4-2.3,2.2-3.3c2.2,3,1.2,6.5,0.8,9.5
		c-2.3,16.6-6.7,32.6-12.6,48.3c-1.8,4.7-5.1,8.5-8.1,12.3c-2,2.5-5,3-8.3,1.4c-2.5-1.3-4.9-3.1-7.9-3.2c-3.3-5.4-7.8-9.4-14.2-9.7
		c-6.6-0.3-13.1,0.2-19.8-1.1c-4.2-0.8-8.2,2.3-10.9,6.1C479.6,372.4,478.9,373.9,477.7,375z"/>
	<path class="st5" d="M453.1,291.8c-11.8-14.9-19.2-31.6-21.6-50.6c-3.6-29,17.1-49.1,41.8-52.8c3.7-0.6,7.3-1.2,11.6-0.7
		c-2.9,2.4-6.2,2.5-9.1,3.7c-7.6,3.2-15.2,6.1-21.6,11.8c-7.5,6.8-10.4,15.3-11.9,24.8c-3.3,21.1,2.7,39.9,13.7,57.6
		c1.6,2.6,3.4,5.2,3.8,8.3C457.4,293.9,455.2,293,453.1,291.8z"/>
	<path class="st5" d="M546,293c6.9-16.1,12.3-32.7,16.3-49.7c2.3-9.8,2-19.8-3.4-28.7c-4.8-8-12.7-12.9-20.7-17.2
		c-6.1-3.3-12.5-6.1-18.6-9.4c11.6,0.5,22.1,4.4,31.8,10.4c10.8,6.6,18.1,15.8,20.3,28.7c1.6,9.1-0.2,17.8-2.8,26.3
		c-3.6,12.3-8.2,24.2-14.2,35.6C552.2,291.2,549.1,292.2,546,293z"/>
	<path class="st0" d="M442.5,311.6c0-1.4-0.6-2.4-1.9-3c-0.2-0.9-1.6-1.5-0.7-2.5c0.7-0.9,1.5,0,2.1,0.4c4.1,2.5,8.5,4.5,12.8,6.4
		c10.9,4.9,22.5,5.8,34,7.4c19.3,2.6,38-0.6,56.5-5.8c5.7-1.6,10.8-4.5,16.2-7c-0.3,1-0.7,2.1-1,3.1c-5.7,10.1-16.3,12.7-26.1,15.4
		c-20.4,5.8-41.2,7-62.1,1.8c-9.4-2.3-18-6.5-26-11.9C444.6,314.9,443.6,313.2,442.5,311.6z"/>
	<path class="st6" d="M477.7,375c2.4-9.1,11.6-13.9,20-10.3c2.6,1.1,4.5,1.3,7.2,0.2c7.2-3,18.8,3.4,20.5,10.9
		c-12.9-3.9-26-3.4-39.2-1.9C483.4,374.3,480.5,374.7,477.7,375z"/>
	<path d="M522.5,222.6c0.1,5.7-0.6,10.6-2.2,15.2c-1.1,3.3-3.7,4.9-7,4.3c-3.2-0.7-4.8-3.4-5.4-6.5c-1.2-6.4-0.9-12.8-1-19.3
		c0-3.2,1.1-6.1,3.4-8c3.7-3.1,9.9-0.1,11.1,5.6C522,216.9,523.4,220,522.5,222.6z"/>
	<path d="M496.1,222.7c0.1,4.9,0,10.4-2.5,15.6c-2.3,5-7.4,5.5-9.8,0.7c-4.3-8.6-4.9-17.9-1.3-27c1.2-3,4-5.3,7.5-4.8
		c4,0.6,5.3,4.1,6,7.5C496.5,217,496.1,219.5,496.1,222.7z"/>
	<path class="st3" d="M442.5,311.6c14.4,11,30.6,16.2,48.7,17.7c14.6,1.2,28.6-1.1,42.5-4.4c10-2.3,19.6-6.3,26.8-14.3
		c-1.3,5.3-2.7,10.6-3.8,16c-2.2,10.8-10,14.6-19.6,16.1c-17.8,2.8-35.7,2.3-53.6,1.8c-8.3-0.3-16.8-0.7-24.8-3.6
		c-5.8-2.1-9.4-5.7-11.5-11.6C445.1,323.5,443.7,317.6,442.5,311.6z"/>
	<path class="st3" d="M519.7,216.6c-0.3,2.8,0.7,5.3-1.9,5.9c-2.5,0.6-3.5-1.7-4.4-3.6c-0.8-1.6-1.7-3-2.4-4.6
		c-0.9-2.4,0.2-4.3,2.3-5.1c1.9-0.8,3.5-0.4,4.5,2.1C518.5,213.4,520,215.2,519.7,216.6z"/>
	<path class="st7" d="M513.6,241c-2.1-0.7-3.1-2.6-3.6-4.4c-0.5-2-2.4-4.1-0.5-6.4c0.9-1,2.1-1.1,3-0.2c2.3,2.3,4.3,5,3.7,8.5
		C516.1,239.8,515,240.7,513.6,241z"/>
	<path class="st3" d="M494.1,217.6c0,2.1,0.6,4.3-1.6,4.9c-2.3,0.7-3.4-1.1-4.3-3c-0.9-1.8-2.1-3.5-2.8-5.4c-0.8-2.1,0.4-4,2.2-4.8
		c1.9-0.8,3.6-0.6,4.6,1.9C493.2,213.4,494.6,215.4,494.1,217.6z"/>
	<path class="st7" d="M490.2,237c0,1.5-0.3,3-2.2,3c-1.7,0-5.6-6.2-5.6-8.5c0-1.7,0.7-2.8,2.5-2.9
		C487.2,228.6,490.3,233.7,490.2,237z"/>
</g>
</svg>
