<?xml version="1.0" encoding="utf-8"?>
<!-- Generator: Adobe Illustrator 23.0.1, SVG Export Plug-In . SVG Version: 6.00 Build 0)  -->
<svg version="1.1" id="Layer_4" xmlns="http://www.w3.org/2000/svg" xmlns:xlink="http://www.w3.org/1999/xlink" x="0px" y="0px"
	 viewBox="0 0 1000 1000" style="enable-background:new 0 0 1000 1000;" xml:space="preserve">
<style type="text/css">
	.st0{fill:#6E3720;}
	.st1{fill:#FB9A7A;}
	.st2{fill:#730000;}
	.st3{fill:#7F7F7F;}
	.st4{fill:#FEFEFE;}
	.st5{fill:#C0FEFE;}
	.st6{fill:#00407F;}
</style>
<g>
	<path class="st0" d="M509.8,292.9c17.4,4,31.9,12.3,37.3,30.4c2.7,9.2,4,19,1.9,29c-1,5-0.4,10.2-1,15.4c-1.5,11.3-3.1,22.6-7,33.4
		c-1.8,5-1.7,9.3,2,13.8c3.6,4.5,5,10.2,2.8,16.6c4.8,0.3,9.5-0.6,14.2-0.2c14,1.2,23.8,8.6,31.7,19.1c9.9,13.2,13.9,28.5,15.7,44.7
		c1.4,12.6,3.3,25.2,2.8,37.9c-0.2,5.1,0.3,10.7-2.8,15.2c-7.5,10.8-20.6,14.4-32.9,4.3c-4.1-3.4-8.2-6.7-12.1-10.2
		c-3.1-2.7-5.3-0.7-7.6,1c-8.8,6.8-18.1,12.6-29.1,15.3c-17.7,4.4-33.6,1.1-48.3-9.5c-9.1-6.5-15.1-15.2-19.5-25.4
		c-6.6-15.6-14.2-30.6-24.6-44.3c-19.2-25.2-39-50.1-51.6-79.6c-3.9-9.2-6.1-18.9-7.7-28.7c-1.6-9.9-1.2-19.6,1.9-29.3
		c2-6.3,6.4-11,10.5-15.7c12.2-13.9,28.4-21.7,45.3-28.2c7.2-2.8,14.6-5.3,22.4-6c1.5-0.7,2.9,0,4.1,0.7c5.3,3.4,11.1,4.9,17.4,4.9
		c1,0,1.9,0.2,2.7,0.9c0.5,3.5-2.4,2.4-3.8,2.5c-6,0.2-11.9,1.3-17.9,2c-17.7,2-33.3,9.9-48.3,18.7c-7.8,4.5-14.2,11.2-19.1,19.2
		c-7.8,12.6-6.6,25.7-2.8,39.1c5.1,17.9,14.2,33.8,24.1,49.4c6,9.3,12.6,18.2,19.3,27c13.7,18,26.2,36.8,36.1,57.3
		c5,10.3,11.1,19.6,20.3,27.1c14.7,11.9,39.1,11.4,51.3,0.6c2.7-2.4,5.7-4.3,8.5-6.5c2.4-1.9,1.8-3.1-0.9-3.8c-3-0.8-6-1.3-9.1-1.4
		c-1.4,0-3.2,0.1-3.6-1.7c-0.3-1.5,1.2-2.2,2.3-2.9c9.2-6.2,18.4-5.4,26.8,1.9c6.1,5.4,12.4,10.5,18.3,16.2
		c3.2,3.1,7.2,5.5,11.9,3.6c4.8-1.9,5.9-6.3,6.9-11c2.2-10.9-1-21.3-2.3-31.9c-0.9-7.4-2.2-14.8-4-22.1c-2.8-11.4-8-21.7-16.2-30.2
		c-7.6-7.7-17.6-10.1-27.8-9c-16.6,1.8-31,9.3-44,19.6c-0.4,0.3-0.7,0.7-1.1,1c-1.5,1.1-3.3,3.2-5,1.5c-1.5-1.5,0.5-3.2,1.2-4.8
		c1.2-1.7,0.6-2.6-1.3-3.1c-8.5-2-16.8-4.8-25.5-5.7c-5-0.6-8.9,2.3-12.9,4.8c-1.7,1.1-3.2,3.6-5.8,2c0.7-12.3,11.7-21.1,23.9-19
		c9.9,1.7,19.7,4.5,29.7,5.8c3.1,0.4,5.6-0.1,8.1-2.1c4.4-3.6,9.4-6.3,14.8-8.3c4.8-1.7,5.7-3.3,4.9-8.5c-0.7-4.3-2.5-8.1-4.7-11.7
		c-1.8-3-2.1-5.9-0.9-9.3c5.3-15,7.5-30.5,8.3-46.4c0.4-8.6,1.2-17.1-0.2-25.8c-1.5-9.3-6.1-16.4-14-21.3c-9-5.6-18.6-9.1-29.3-10
		c-5.1-0.4-10.4-0.3-15.4-1.7c-0.9-0.7-0.7-1.7,0.1-1.9c5-1.5,8.9-4.8,13.2-7.4c3.6-0.4,7,1.8,10.6,1
		C505.4,290.8,507.8,291.3,509.8,292.9z"/>
	<path d="M478.5,298.8c-9.1,1-17-2.1-24.5-6.9c-3.5-2.6-7.1-4.9-8.7-9.3c-4-11-2.7-14.8,9-17.8c12.8-3.3,24.3,1.3,34.7,8.2
		c6.3,4.2,5.6,10.6,3.1,17C489.3,295.4,483.6,296.7,478.5,298.8L478.5,298.8z"/>
	<path d="M509.8,292.9c-2.6,0.2-5-0.2-7-2c-3.7-8.5-4.7-17,0.6-25.3c3.5-5.4,12.9-9.3,19.1-7.8c4.9,1.2,9.8,2.3,13.5,6.1
		c3,3.1,3.9,6.4,1.7,10.2c-3.7,6.2-9.4,10.2-15.6,13.6C518.2,290,514.1,291.7,509.8,292.9z"/>
	<path class="st1" d="M478.5,298.8c16.5-0.2,32.3,2,46.4,11.5c8.4,5.6,12.7,13.3,14.2,23.2c1.8,12.2-0.2,24.1-0.9,36.1
		c-0.8,13.1-4.1,25.6-8.2,37.9c-0.5,1.4-0.4,2.2,0.4,3.4c2.9,4.8,5.5,9.8,6.5,15.4c0.8,4.1-1.1,7.1-5.1,8.5
		c-6.1,2.1-11.9,4.9-16.5,9.5c-1.9,1.9-3.9,2.3-6.2,1.9c-10.4-1.9-20.7-3.9-31-6c-8.6-1.8-17.3,2-20.9,9.8c-1.2,2.6-1.9,5.4-2.9,8
		c1.2,1.2,1.2,3,1.6,4.5c1.6,5.2,4.8,7.2,10.2,6.5c5.4-0.7,10.3-2.8,14.9-5.4c4.8-2.7,9.9-3.9,15.3-4.3c1.3-0.1,2.6-0.4,3.6,0.8
		c0.5,1.8-1.6,2.3-1.8,4.2c1.5,0.1,2.5-0.6,3.6-1.5c11.4-10.3,24.9-16.7,39.7-20.5c17.4-4.4,35.4,2.9,44.1,19.6
		c6.3,12,9.6,24.7,11.2,38c0.9,7.6,2.7,15.1,3.7,22.7c0.8,6.6,0,13.3-2.4,19.5c-2.8,7.5-11.7,9-18.3,3c-6.3-5.8-12.8-11.3-19.1-17.1
		c-6.9-6.3-13.9-7.6-22.3-3.4c-1.9,1-4.2,1.4-6.1,3.9c6-0.2,11.1,0.4,16.1,2.3c0.8,0.3,1.6,0.9,2.8,1.7c-8.8,6-15.6,14.3-26.3,16.8
		c-15,3.6-28.3,1.4-40.7-8.5c-8.4-6.7-13.8-15.2-18.4-24.4c-11.7-23.7-26.6-45.3-42.6-66.3c-16.1-21.3-30.5-43.7-38.3-69.6
		c-6.6-22-3.1-39,16.4-54.8c13.8-11.2,29.7-17.8,46.5-22.3c8.6-2.3,17.6-3.5,26.7-3.4C475.9,299.8,477.5,300.5,478.5,298.8
		C478.5,298.8,478.5,298.8,478.5,298.8z"/>
	<path class="st2" d="M499.9,460.1c-7.6,0.7-15,2.2-21.6,6.4c-4,2.5-8.6,3.4-13,4.2c-6.8,1.2-11.3-4.2-11-12.6
		c2.2-1.6,4.4-3.3,6.6-4.9c5.5-3.8,11.6-4.4,18-2.7c6.7,1.8,13.5,3.4,20.1,5.2c1.2,0.3,3-0.2,3.4,1.3
		C502.8,458.6,501.1,459.3,499.9,460.1z"/>
	<path class="st3" d="M458.3,269.1c3.3-2.5,6.3-1.2,9.5-0.6c4.4,0.7,8.9,0.8,13,2.7c5.4,2.5,5.8,6.8,1.1,10.2
		c-1.7,1.2-3.4,1.4-4.7-0.2C472.1,275.4,465.1,272.7,458.3,269.1z"/>
	<path class="st3" d="M508.9,265.4c6.9-5.6,18.2-4.6,23.3,1.7c1.1,1.4,3,3.2,1.5,5.1c-1.4,1.7-3.3,3.1-5.9,1.4
		c-0.9-0.6-2.1-0.4-3-1.3C520.5,268.2,515.4,265.5,508.9,265.4z"/>
	<path class="st4" d="M507,389.6c-0.4,11.9-1.7,21.1-6.6,29.4c-4.4,7.3-10.4,11.3-19.8,6.6c-9.6-4.9-15.9-13-22.1-21.2
		c-9.1-11.9-17.3-24.4-22.3-38.7c-2-5.6-3-11.5-3.6-17.4c-1.2-12.6,5.8-20.7,15.1-27.8c9.1-6.9,19.6-9.4,30.4-10.8
		c6.3-0.8,9.4,1.1,12,6.7c6.4,13.8,10.1,28.4,12.7,43.2C504.7,370.3,505.9,381.2,507,389.6z"/>
	<path class="st4" d="M504.9,326.3c0.2-3.5-0.4-8.2,0.9-12.9c1-3.5,3.1-4.3,6.2-3.7c10.1,2.1,17.8,11.8,18.4,22.1
		c0.6,9.6,2.4,19.3,1.8,28.9c-1.1,16.2-2.3,32.3-5.9,48.2c-0.1,0.6-0.6,1.2-0.7,1.8c-0.4,2.7-2,4.8-4.5,5c-2.4,0.2-3.6-2.3-4.7-4.3
		c-4.1-7.3-5.4-15.3-6.6-23.5c-2.5-16.6-3.1-33.3-4.8-49.9C504.6,334.6,504.9,331,504.9,326.3z"/>
	<path class="st5" d="M481.5,421.1c-4.9-3.3-8.9-6.2-12.1-9.9c-14.2-16.1-24.6-34.5-31.1-55c-3.3-10.5-2.5-20.4,5.9-28.2
		c6.3-5.8,14.1-9.1,22.3-11.5c3.6-1.1,7.3-1.2,12.4-0.7c-5.7,2.9-10.4,5.2-15.1,7.6c-11.7,5.9-17.3,17.2-14.2,29.7
		c6,24,15.4,46.4,31.2,65.8C481,419.1,481,419.6,481.5,421.1z"/>
	<path d="M503.9,397.4c-0.1,4.9,0.2,8.9-1,12.8c-1.5,5-4.6,5.8-8.8,2.6c-6.4-5-10-20.6-6.4-28.9c1.5-3.4,4-6.1,7.9-5.8
		c4.4,0.4,6.1,4.3,7.1,7.9C503.9,390,504.4,394.1,503.9,397.4z"/>
	<path class="st5" d="M522.4,379c0.3-9.7,1.7-19.4,1-29.2c-0.5-6.6-0.9-13.2-2.2-19.7c-1.2-5.9-4.3-11.1-10.4-15.6
		c5.9,0.1,8.9,2.2,11.4,5.4c4.3,5.3,5.6,11.7,5.9,18.2c0.7,13.3-0.4,26.5-1.6,39.8c-0.4,4.3-0.2,8.7-2,12.8
		C521.6,387.2,521.4,383.2,522.4,379z"/>
	<path d="M522.4,379c0.7,3.9,1.5,7.8,2.2,11.7c-0.5,4.4-0.8,8.9-1.4,13.3c-0.3,2.4-1.6,5-4.1,5c-2.4,0-3.6-2.2-4.5-4.8
		c-1.5-4.2-2.2-8.6-2.6-12.9c-0.3-3.5-1.7-6.9-1.2-10.4c0.1-1.1-0.2-2.4,0.2-3.4c1-2.3,2.3-5,5-5.3c2.4-0.3,3.7,2.1,4.7,4.1
		C521.1,377.3,521.8,378.1,522.4,379z"/>
	<path class="st4" d="M501,390.9c0.2,1.4,0,2.9-1.6,3.5c-1.4,0.5-2.4-0.4-3.3-1.4c-1.8-2.1-4.1-3.6-5.3-6.2
		c-0.8-1.7-0.4-2.6,0.7-3.8c1.3-1.5,3.2-1.8,4.3-0.8C498.4,384.4,501.4,386.7,501,390.9z"/>
	<path class="st6" d="M499.8,410c-0.4,1.6-1.1,2.5-3,1.5c-2.8-1.4-4.8-3.6-6.2-6.4c-0.5-1.1-0.5-2.1,0.5-3c0.9-0.9,1.7-0.2,2.6,0.1
		C497.1,403.6,498.4,406.8,499.8,410z"/>
	<path class="st4" d="M521.5,384.2c0.2,1.3,0,2.6-1.4,3.2c-1.3,0.6-2.7-0.5-3.3-1.3c-1.3-1.5-2.4-3.3-3-5.2
		c-0.7-2.3-0.2-4.8,2.3-5.7c2.5-0.9,2.6,2,3.2,3.3C520.2,380.3,521.8,381.9,521.5,384.2z"/>
	<path class="st6" d="M514.7,399c-0.1-1.4,0.1-2.8,1.5-3.2c1.3-0.4,2,0.8,2.7,1.6c0.6,0.7,0.9,1.7,1.4,2.5c1.3,2.1,1.8,4.4-0.8,5.7
		c-2.9,1.4-2.8-1.8-3.7-3.1C515.1,401.6,514.4,400.4,514.7,399z"/>
</g>
</svg>
