<?xml version="1.0" encoding="utf-8"?>
<!-- Generator: Adobe Illustrator 23.0.1, SVG Export Plug-In . SVG Version: 6.00 Build 0)  -->
<svg version="1.1" id="Layer_4" xmlns="http://www.w3.org/2000/svg" xmlns:xlink="http://www.w3.org/1999/xlink" x="0px" y="0px"
	 viewBox="0 0 1000 1000" style="enable-background:new 0 0 1000 1000;" xml:space="preserve">
<style type="text/css">
	.st0{fill:#6E3720;}
	.st1{fill:#FB9A7A;}
	.st2{fill:#FEFEFE;}
	.st3{fill:#C0FEFE;}
	.st4{fill:#7F7F7F;}
	.st5{fill:#00407F;}
</style>
<g>
	<path class="st0" d="M612.4,410.1c4,9.1,1.6,17.5-2.7,25.8c-2.9,5.6-2.4,5.9,4.1,6.6c11.6,1.2,21.9,5.9,31,13.2
		c15,12,24.4,27.7,30.2,45.8c1.8,5.6,3.6,11.1,5,16.7c1.9,7.1-0.1,12.3-5.4,16.6c-10.7,8.8-22.4,16.2-36.8,15.7
		c-9.5-0.3-19.2-1.7-28.2-4.4c-10.6-3.2-20.3-1.5-30.1,2c-11.5,4.1-23,7.6-35.4,8.7c-10.8,1-21.5,1.9-32.3,1.7
		c-15.4-0.3-30.4-2.5-45.1-7.3c-13.6-4.5-25.8-11.5-36.1-21.5c-10.3-10.1-14.9-22.9-16.6-36.9c-2.4-19.7-4.5-39.4-9.4-58.8
		c-3.7-14.5-5.6-29.3-6.5-44.4c-1-16.2-0.2-32,4.3-47.4c4-13.8,14.4-26.3,30.7-29c18-3,35.1-0.3,52.4,4c15.8,4,31.2,9.3,45.6,16.8
		c15,7.9,29.8,16.2,42.4,27.9c6.7,6.3,14.1,11.9,21.2,17.8c-2.4,2-4.9,0.3-7.3,0c-2-0.3-4.1-0.3-6.1-0.7c-2.8-0.7-4.9-2.6-7.1-4.3
		c-19.2-15-40.1-27.5-62.4-37c-19.8-8.3-40.6-14.1-62.6-13.2c-4.2,0.2-8.5,0.6-12.6,1.5c-8.5,1.9-15.2,6.4-18.9,14.7
		c-6.2,14-8.1,28.6-6.8,43.8c1.3,15.4,3.4,30.7,6,45.9c0.9,5.1,2.1,10.2,3.6,15.2c3.5,12.1,3.6,24.8,5.3,37.1
		c1.8,13.8,6.1,26.3,15.9,36.5c9.9,10.4,21.7,18.1,35.3,22.8c12.5,4.3,25.4,7.1,38.6,8c14.8,1,28.6-3.1,41.3-10.9
		c7.6-4.7,15.7-8.5,24.8-9.6c3.3-0.4,6.4-0.5,9.7,0.2c14.8,3.1,29.8,5.5,44.6,8.4c9.4,1.9,16.6-2.1,22.7-8.5c4.8-5,3-11.3,0.8-16.6
		c-6.9-16.5-16.7-31.5-29.8-43.6c-12.3-11.4-27.6-16.5-44.5-15c-21.3,1.9-41.8,6.8-60.5,17.5c-13.8,8-26.9,17.2-39.4,27.1
		c-2.3,1.8-4.5,3.7-7.1,5.2c-0.8,0.5-1.9,1.1-2.7,0.3c-1.1-0.9-0.4-2.1,0.2-3.1c2-3.4,4.8-6.2,7.3-9.2c2.5-3.1,2.7-5.5-0.4-8.3
		c-7.4-7-14.3-14.8-24.9-17.4c-3.3-0.8-6.6-1.6-10.1-1.6c-1.6,0-3.8,0.2-4.2-1.5c-0.6-2.1,1.7-2.8,3.2-3.7
		c9.2-5.6,18.2-4.7,27.2,0.5c6.9,3.9,12.3,9.7,18,14.9c2.8,2.5,4.6,2.8,7.3,0.3c3.6-3.3,7.3-6.5,11.5-9c2.9-1.5,5.6-3.2,8.3-5.1
		c1.4-0.8,2.8-1.4,4.2-2.2c1.6-0.8,3.2-1.6,4.9-2.2c3-1,5.7-2.6,8.6-3.6c1-0.4,2-0.9,3.1-1.4c2.3-1,4.8-1.7,7.1-2.6
		c2.7-0.8,5.3-1.8,8-2.4c1.1-0.2,2.2-0.6,3.3-1c1.6-0.5,3.1-1,4.6-1.6c2.8-0.9,5.6-1.7,8.6-2.2c2.5-0.1,4.9-1,7.5-1.2
		c0.8,0,1.6-0.2,2.4-0.4c4-1,8.5-0.3,11.3-4.5c4.2-6.4,8.4-12.7,7.4-21c-0.3-2-1-4.2,1.3-5.7C605,408.6,608.8,407.8,612.4,410.1z"/>
	<path d="M581,377.9c4.8-0.8,9.1,1.6,13.8,1.8c10,3,18.1,8.5,24.3,17c2,2.7,3.9,5.7,2.7,8.6c-1.2,2.9-4.7,3.9-8.1,3.8
		c-0.7,0-1.3,0.1-1.4,0.9c-4,0.1-7.9,0.1-11.9,0.2c-2.5,1.6-5,0-7.5,0.1c-1.5-0.1-2.9-0.7-4.4-0.8c-2.3-0.1-4.5-0.7-6.7-1.3
		c-2.8-0.8-5.4-2-8.1-3.3c-4-2-6.1-5.1-6.7-9.5C567.1,385.2,571.9,379,581,377.9z"/>
	<path class="st1" d="M581,377.9c-5.2,2.8-11,5-12.3,11.8c-0.4,1.9-0.4,3.8-0.5,5.8c-4,9.2-10.2,17.2-14.8,26.1
		c-4.3,8.5-8.9,16.9-12.4,25.8c-0.9,2.4-2,4.8-3.9,6.7c-2.9,1.4-5.6,3.3-8.9,3.7c-0.4-2,0.8-3.5,2-4.7c5.1-5.8,8.4-12.6,11.4-19.6
		c5.7-13.4,10.5-27.1,12.1-41.8c0.4-1.2,1.3-1.8,2.3-2.4c5.6-3.5,6.4-6.5,2.9-12.5c-4-7-9.9-12.5-16.3-17.1
		c-8.8-6.3-17.7-12.5-28.7-14.8c-6.9-1.4-7.2-1.4-10.5,4.9c-0.4,0.9-0.9,1.7-1.8,2.2c-2.1,0.9-4.5,0.9-6.7,1.2
		c-11,1.5-16.5,8.4-19.5,18.5c-3.6,12.2-2.1,24.5-0.4,36.7c2.1,14.7,5.6,29,12.5,42.3c4.5,8.8,10.8,14.5,21.1,14.6
		c1.1,0,2.3,0.2,3.1,1.1c-5.4,4.5-10.8,9-16.2,13.5c-6.8-5.9-12.9-12.6-20.6-17.6c-12.1-7.8-20.4-6.9-31.7,0.9
		c5.2,0.6,9.9,0.4,14.5,1.6c10.9,2.8,18.1,10.7,25.9,17.9c3.8,3.5,4.6,5.9,0.6,9.8c-3.3,3.3-5.9,7.3-8.2,11.7c8-6,15.9-12.1,24-17.9
		c14.5-10.3,29.3-20.2,46.5-25.7c10.1-3.3,20.4-5.3,30.9-6.8c9-1.3,18.1-1.9,26.9,0.5c14.3,3.9,26.3,11.4,35.4,23.5
		c8,10.7,15.8,21.5,20.9,33.9c2.2,5.4,4.1,11.3,0.4,17.1c-3.2,5-14.6,12.6-23.5,10.8c-16.3-3.2-32.6-6.9-49-9.4
		c-7.6-1.2-15.2,1.6-22.2,5.1c-7,3.5-13.8,7.7-21,10.9c-10.4,4.5-21.4,5.7-32.9,4.5c-11.5-1.2-22.8-3.5-33.8-7
		c-11.3-3.6-21.4-9.3-30.5-16.9c-6.4-5.3-11.5-11.5-16-18.5c-5-7.8-6.3-16.4-7.5-25.1c-2.4-16.3-3.9-32.7-8-48.8
		c-3.2-12.4-4.9-25.1-5.8-38c-0.5-7.4-2.2-14.7-1.8-22.1c0.7-12.5,2.3-24.8,8.4-36.2c4.7-8.8,12.3-13,21.6-14.3
		c29.5-3.9,56.6,4.4,82.8,16.7C543.1,351,562.5,363.8,581,377.9z"/>
	<path class="st2" d="M554.6,391.6c0.1,12.1-4.3,23.2-8.3,34.3c-2.8,7.6-5.8,15.3-10.4,22.1c-2.4,3.4-5,6.6-7.5,9.9
		c-1.5,0.8-2.8,2.2-4.7,2c-0.6-2.5,1.4-3.8,2.5-5.5c2.6-4.1,5.4-8.1,6.4-13c0.9-4.6-0.5-8.3-4.1-10.6c-3.5-2.2-7.5-1.9-11.3,1
		c-6.5,4.9-9.1,18.4-5.2,25.5c1.7,3.2,5.4,2.6,7.6,4.8c-1.9,2.7-4.7,3.7-7.6,4.7c-12.2,1.2-20.1-4.4-25.4-15.1
		c-7.2-14.6-11-30-13-46c-0.5-4.1-1.2-8.3-1.5-12.4c-0.7-10.8,0.7-21.5,6.4-31.1c5.3-8.9,14.1-10.3,23.4-10.4
		c1.4,1.2,2.1,2.5,0.9,4.3c-1.3,0.9-2.7,1-4.2,1.2c-9.5,1-14.1,7.1-16.8,15.5c-4.2,13-2.6,26.1-0.5,39.1c1.9,11.9,4.4,23.7,9.1,34.9
		c0.6,1.4,0.6,2.9,1,3.9c-4.6-23.1-5-46.4,0.9-69.7c0.8-3.3,1.9-6.6,3.9-9.4c2.7-3.8,6-6.4,11-5.9c3.9,1.9,6.4,5.4,9.3,8.4
		c9.6,9.8,20.6,16.8,34.9,16.7C552.6,390.4,553.7,390.7,554.6,391.6z"/>
	<path class="st2" d="M537.2,454.1c3.5-10.2,8.1-20,13.3-29.4c5.1-9.3,10.7-18.3,16.1-27.5c0.4-0.7,1.1-1.1,1.7-1.7
		c1.1,8.1,8.2,9.1,13.8,11.9c2,2.3,0.9,4.7,0.1,6.9c-4.3,11.8-11,22-19.6,31.2c-1.3,0.6-2.6,1.2-3.9,1.8c-0.7-0.7-1.4-1.3-1.9-2.1
		c-3.4-5.2-7.3-5.4-11.5-0.7c-2.2,2.6-3.2,6-5.3,8.7C539.1,453.4,538.4,454.4,537.2,454.1z"/>
	<path d="M519.5,462c-6.9-0.3-8.7-1.4-10.3-9.2c-1.5-7.3,0.3-14.2,4.9-20.1c3.3-4.2,9.8-7.3,15.5-2.9c4.6,3.5,6.1,7.7,2.9,15.7
		c-2.1,5.3-5.6,9.7-8.9,14.3C522.5,461.2,521,461.7,519.5,462z"/>
	<path class="st1" d="M592.8,409.3c2.7-0.9,5.1,0.8,7.7,0.9c2.8,9.9-1.1,17.9-6.4,26c-2.4,3.7-5.5,4.3-8.9,5.1
		c-2,0.4-4.1,0.6-6.1,0.9c-0.6-1.8,0.4-3.1,1.3-4.4c5.7-8.3,10.5-17,11.6-27.3C592,410.1,592.4,409.7,592.8,409.3z"/>
	<path class="st3" d="M562.5,445.4c1.3-4.3,4.8-7.1,7.2-10.7c4.6-6.9,9-13.7,11.5-21.7c0.6-1.9,0.9-3.8,0.8-5.7
		c2.4-0.6,4.5,1.4,6.9,1c1,1,1.3,2.3,1.1,3.6c-2.2,12.8-9,22.9-18.6,31.2C568.4,443.9,565.4,444.7,562.5,445.4z"/>
	<path class="st2" d="M571.3,443.2c6.5-9,14.6-17.1,17-28.6c0.4-2.1,0.5-4.1,0.6-6.2c1.6-0.7,2.4,1.3,3.9,1
		c0.5,10-4.4,18.1-9.3,26.1c-1.4,2.3-3,4.5-4.4,6.8C576.4,442,574,444,571.3,443.2z"/>
	<path d="M540,453.1c0.6-4.5,2.7-8.3,6-11.3c5.4-4.8,9.8-2.9,12.6,5.4c-1,0.3-2,0.7-3,1c-0.5-0.6-0.9-1.3-1.4-1.9
		c-2.1-3-3.8-2.9-5.5,0.4c-0.6,1.1-0.8,2.5-1.7,3.4C545,452,542.2,451.8,540,453.1z"/>
	<path class="st2" d="M547,450.1c0-0.8-0.3-1.7-0.1-2.4c0.9-2.5,1.6-5.6,5.1-5.3c3.3,0.3,3.5,3.1,3.6,5.7
		C552.5,447.9,550.1,450.6,547,450.1z"/>
	<path class="st4" d="M587.3,382.4c6.2-0.5,11,2.5,15.9,5.3c4.9,2.8,9.1,6.5,12.2,11.3c1.1,1.8,1.2,3.2-0.1,4.8
		c-1.4,1.7-2.8,1.5-4.7,0.6c-3.7-1.7-7.1-3.6-9.1-7.5C598.3,390.7,593.1,386.3,587.3,382.4z"/>
	<path d="M502.8,355.5c-0.3-1.3-0.6-2.6-1-3.9c0.5-1.5,0.9-3,1.4-4.5c1.3-3.6,4.2-4.9,7.7-4.2c13.7,2.8,25.1,9.9,35.8,18.6
		c4.8,3.9,9,8.1,12.3,13.2c5.7,8.9,4.9,12.5-4.4,16.8c-14.9,1-27-4.9-37.2-15.3c-3.3-3.3-6.5-6.7-9.7-10.1
		C504.2,363.5,501.5,360.4,502.8,355.5z"/>
	<path class="st3" d="M502.8,355.5c0.4,4.1,3.1,7.3,4.9,10.8c-7,0.5-11.4,4.3-13.4,12c-3.9,14.9-6,30.2-4.8,45.6
		c0.8,10.1,1.3,20.2,3.4,30.3c-3.2-5.4-5.7-11.2-7.4-17.2c-4.1-14.1-6.6-28.6-7.7-43.2c-0.7-9.7,1.1-19.3,5.5-28.2
		C487.4,357.2,494.7,355.7,502.8,355.5z"/>
	<path class="st2" d="M531.3,440.8c-0.2,3.1-1.9,4.7-4.3,5.5c-2.3,0.8-3.3-1-4.2-2.9c-1.3-2.7-1.9-5.6-2.4-8.5c-0.3-1.9,1-3,2.3-3.9
		c1.6-1,2.6,0.2,3.7,1.2C529.1,434.6,530.8,437.5,531.3,440.8z"/>
	<path class="st5" d="M510.7,449.1c0.1-1.6-0.1-3.5,2.2-3.5c2.1,0,5.6,6.2,5.6,9.5c0,1.6,0.1,3.5-2.1,3.6
		C513.7,458.9,510.7,453.6,510.7,449.1z"/>
	<path class="st4" d="M523.6,351.5c5.4,0.3,9.1,3.3,12.8,5.8c4.3,3,8.4,6.3,12.6,9.6c0.8,0.6,1.6,1.2,2.1,2.1
		c1.4,2.4,5.2,4.4,2.4,7.6c-2.3,2.7-8.4,1.7-10.8-1.5c-3.8-5.1-7.9-10.1-11.2-15.5C529.5,356.3,525.6,355.5,523.6,351.5z"/>
</g>
</svg>
