<?xml version="1.0" encoding="utf-8"?>
<!-- Generator: Adobe Illustrator 23.0.1, SVG Export Plug-In . SVG Version: 6.00 Build 0)  -->
<svg version="1.1" id="Layer_4" xmlns="http://www.w3.org/2000/svg" xmlns:xlink="http://www.w3.org/1999/xlink" x="0px" y="0px"
	 viewBox="0 0 1000 1000" style="enable-background:new 0 0 1000 1000;" xml:space="preserve">
<style type="text/css">
	.st0{fill:#6E3720;}
	.st1{fill:#FB9A7A;}
	.st2{fill:#FEFEFE;}
	.st3{fill:#C0FEFE;}
	.st4{fill:#7F7F7F;}
	.st5{fill:#00407F;}
</style>
<g>
	<path class="st0" d="M606.5,337.8c6.2,4.6,11.3,16.4,6.5,28c-8.2,19.7-20.4,36.8-34.2,52.9c-0.2,0.2-0.4,0.5-0.7,0.7
		c-7.7,4-9.6,9.3-5.3,17.5c2.2,4.2,0.4,9.3-3.4,12.6c-2.2,1.9-1.3,3,0.4,4.3c10.3,8.6,19.6,18.3,29.5,27.3
		c14,12.7,27,26.2,40.2,39.7c5.8,5.9,12.2,11.5,16.2,19c2.6,4.9,5.7,9.8,4,16c-2.1,7.9-8.4,11.2-15.2,12.9
		c-16.7,4.1-33.6,4.3-50.7,2.6c-7.3-0.7-14.7-1.2-22-2c-14.4-1.5-28.3-5.2-42.3-8.8c-20.3-5.2-39.8-12.4-58.5-21.6
		c-8.8-4.4-17.7-8.9-25.2-15.1c-7.2-6-12.4-14.1-16-22.9c-2.8-6.7-4.1-13.8-3.8-20.9c0.6-15.2-4-29.1-9.8-42.8
		c-8.6-20.3-17.8-40.4-22.9-62c-3-12.7-5.3-25.5-4.4-38.4c1.3-19.6,10-34.1,29.6-41.4c10.5-3.9,21.2-6.1,32.2-7.6
		c15.2-2,30,0.6,45,1.9c7.8,0.7,15.2,3.1,22.9,4.2c-0.5,3.5-2.8,5.6-5.5,7.4c-7-0.2-13.8-2-20.7-2.9c-20.7-2.4-41.4-2.4-61.4,3.6
		c-22,6.6-31.6,21.5-29.8,45.1c2.2,30,13.7,57,25.1,84.2c6,14.4,10.7,29.2,11.9,45.1c1.1,14.8,6.3,28.4,17.9,38.3
		c7.2,6.1,15.6,10.7,24.2,14.5c27.6,12.2,56.3,21.3,85.9,27.1c10.2,2,20.7,2.1,31,3.4c13.1,1.7,26.3,1.5,39.3-0.7
		c1.3-0.2,2.6-0.3,3.8-0.7c7.7-2.6,9-6.5,4.5-13.2c-2.4-3.5-5.1-6.7-8-9.8c-15.9-16.5-32.7-32.1-49.2-48
		c-8.2-7.9-16.9-15.3-25.6-22.6c-4.8-4-9.7-5.7-16.1-4.3c-10.3,2.3-19.9-1.9-29.5-5c-8.8-2.8-17.4-6.4-26.1-9.7
		c-9.4-3.5-19.1-5.4-29.1-5.3c-3.7,0-7.5,0.1-11.2-0.1c-1.4-0.1-3.3,0-3.7-1.7c-0.4-1.6,1.1-2.6,2.2-3.5c7.4-5.4,15.7-6.8,24.6-5.9
		c5.7,0.6,11.2,2,16.5,4c11.4,4.2,22.9,8.5,34.5,12.3c8,2.6,16.4,4.3,24.9,1.6c2.5-0.8,4.8-1.9,7-3.4c3.2-2.3,5-5.4,3.4-9.3
		c-3.6-8.6-0.5-14.5,6.7-19.4c5.9-4,9.5-10.2,13.6-15.9c7.1-9.7,13.6-19.8,18.2-31.1c3.7-9.1,6.4-17.8-0.6-26.5
		C599.5,338.5,602.5,337.1,606.5,337.8z"/>
	<path d="M513.6,300.9c0.9-2.8,3.3-4.5,5-6.8c7.4-5,14.5-2.8,21.8,0.5c6.2,2.7,11.6,6.4,16.3,11.3c5.7,2.7,7.5,8.1,9.8,13.3
		c3.1,12.3-2.3,18.7-15.2,18c-11.1-1.4-21.2-5.5-29.9-12.7c-2.1-1.9-3.6-4.3-5.4-6.4c-1-1.1-1.9-2.2-2.6-3.4
		c-1.5-2.6-2.3-5.4-2.6-8.3C510.6,303.9,511.4,302,513.6,300.9z"/>
	<path d="M606.5,337.8c-3,1.3-5.9,2.5-8.9,3.8c-1.5,1.9-3.9,1.3-5.9,2c-1.8,0.4-3.7,0.4-5.5,0.4c-2.1,0-4.1-0.8-6.1-1
		c-4.8-0.9-8.9-3-11.6-7.2c-2.6-4.9-0.7-9.9-0.1-14.9c1.2-3,1.5-6.6,4.9-8.3c7-6.7,15.2-8.8,24.6-7c8.3,1.6,18.4,15.5,14.3,24.7
		C610.9,333.4,608,335.1,606.5,337.8z"/>
	<path class="st0" d="M573.3,312.7c-1.3,2.6-2.6,5.1-4,7.7c-2,0.8-2.9-0.6-3.8-2c-3-4.2-4.7-9.2-8.8-12.5
		C562.5,307.2,567.6,310.7,573.3,312.7z"/>
	<path class="st1" d="M565.5,318.4c1.3,0.6,2.6,1.3,3.8,2c0.1,5.2-2.4,10.4,0.1,15.6c0.6,2-0.6,3.4-1.6,4.9
		c-12.1,18.6-18.1,39.4-22.5,60.8c-0.6,3-1.2,6.1-1.7,9.1c-0.3,1.6-0.5,3.2-0.2,4.8c0.6,3.2,1,6.9,4.6,8c3.2,1,5.4-1.7,7.4-3.8
		c17-18.4,29.7-39.3,37.2-63.3c0.8-2.6,0.6-5.1,0-7.7c-0.5-2-1.7-3.9-0.9-6.1c1.7-2,4-0.4,5.9-1.1c5.9,5.3,7.2,11.8,4.7,19.2
		c-5.3,15.5-13.7,29.2-23.4,42.3c-4.7,6.4-9.8,12.4-16.2,17.1c-3.4,2.5-4.3,5.4-3.2,9.5c1.1,4.3,4.2,8.8,0,13.1
		c-4.9,5-11.1,7.2-17.8,7.2c-8.9,0-17.3-2.4-25.7-5.5c-11.6-4.5-23.4-8.7-35.4-12.2c-11-3.3-21.9-2.5-31.8,4.3
		c-0.8,0.5-1.4,1.3-3,2.8c4.4,0,7.9,0.2,11.3,0c14.8-0.8,28.6,3,42.1,8.5c11.9,4.9,23.9,9,36.5,11.7c3.1,0.7,6.7,1,9.6-0.2
		c7.3-3,12.7,0.2,17.7,4.7c13.7,12.1,27.1,24.5,40.4,37.1c12.1,11.5,23.8,23.6,35.8,35.2c3.5,3.4,6.2,7.4,8.6,11.6
		c2.5,4.5,1.3,7.1-3.1,9.9c-4,2.6-8.5,2.9-12.9,3.4c-12.8,1.7-25.7,1.3-38.6-0.7c-6.8-1-13.8-1.3-20.6-2c-11.7-1.2-23-4.2-34.3-7.2
		c-22-5.9-43.5-13.4-64-23.4c-6.6-3.2-13.2-6.9-18.8-11.6c-13.3-11.3-18.3-26.6-19.4-43.7c-0.6-9.8-3.3-19.2-6.7-28.4
		c-6.8-18.5-15.4-36.3-21.4-55.1c-4.1-12.8-7-25.9-8.2-39.4c-0.6-7.2-0.5-14,1.1-21c2.3-10,8-17.1,16.6-22.4c11.2-7,23.5-9,36.3-9.6
		c3.6-0.2,7-1.1,10.6-1.2c16.5-0.1,32.8,1.6,48.9,5c-3.5,4.8-0.8,9.2,0.9,13.6c-1,1.1-2.3,1.2-3.6,1c-6.9-1.4-13.6,0.5-20.3,1.2
		c-17.3,1.7-21.9,15.9-21.2,28.2c1.1,18.7,5.9,36.5,13.9,53.5c4.7,9.8,10.8,17.9,21.5,21.2c9.6,2.9,17.8-0.3,24-7.8
		c12.8-15.8,18.8-34.3,20.6-54.3c0.6-6.3,1.6-12.6,0.5-18.9c-0.1-0.8,0.1-1.6,0.8-2.2c2.3-0.1,4.6,0.1,6.8-0.2
		c6.2-1.1,10-7.4,8.2-13.7C565.4,320.9,565.6,319.6,565.5,318.4z"/>
	<path class="st2" d="M550.8,336.1c2.4,13,0.1,25.7-2.7,38.2c-3,13.6-9,26-17.4,37.3c-7.7,10.3-22.9,13.5-33.3,6
		c-7.6-5.4-12.4-12.6-16.1-21.2c-4.8-11.1-9.2-22.3-10.9-34.3c-1.7-11.5-4.7-23,1.1-34.5c3.8-7.5,9.8-11.2,17.8-12.3
		c8.4-1.2,16.8-2.8,25.4-1c0.7,0.9,1.5,1.9,2.2,2.8c-1.8,1.9-4.2,1.4-6.5,1.4c-6.4-0.1-12.7,0.1-19,1.2c-9,1.5-14,6.4-16.2,15.3
		c-2,8-0.8,16,0.4,23.8c2.7,17.4,8.2,33.8,19,48.8c-2.5-8.6-5.2-16.4-6.2-24.7c-1.7-13.2-3.4-26.4-1.1-39.8
		c2.7-15.5,19.7-25.5,34.5-20.1c8.2,5.9,16.6,11.3,27.1,11.9C549.4,335.1,550.1,335.7,550.8,336.1z"/>
	<path class="st3" d="M521.6,323.2c-8.5,0-16.8,0.1-24.3,5.1c-4.1,2.7-6.7,6.4-7.8,10.8c-2.1,9-2.1,18.1-1.6,27.4
		c0.8,15.5,4.4,30.2,8.7,45c-5.9-5.5-9.5-12.4-12.9-19.5c-4.9-10.3-7.9-21.3-9.6-32.4c-1.3-8.2-2.4-16.6-0.4-25.1
		c2.2-9.2,9.1-15,18.8-16.2c8.1-1,16.2-0.6,24.3-0.9C518.3,319.3,519.9,321.2,521.6,323.2z"/>
	<path class="st4" d="M542.6,299.1c8.6,4.3,14.7,10.6,17.4,20c0.3,1.1,1,2.4,0,3.1c-2.6,1.7-5.2,2.5-8.5,1.5
		c-3.4-1.1-6.1-3.3-5.3-6.3c1.6-6.3-1.7-11-3.5-16.3C542.4,300.5,541.8,300,542.6,299.1z"/>
	<path class="st2" d="M591.7,342.8c5.2,8.2,2,16.2-1.2,23.9c-7.2,17.7-16.5,34.2-29.4,48.4c-2.9,3.2-5.3,6.8-9.1,9.2
		c-4.1,2.6-6.2,0.8-8.1-2.6c-2.4-4.4-1.8-8.8-1-13.6c2.4-14.1,5.8-27.9,10.9-41.3c4.1-10.8,8.9-21.4,15.7-30.8c3,3,6.4,5.2,10.6,6
		c3.9,3.8,4.8,8.5,3.5,13.4c-3.9,14-10,27-16.7,39.9c-0.7,1.3-1.6,2.5-3.3,2.5c-2-2.1-0.4-4.3-0.1-6.4c0.6-3.8-0.9-7.9-3.4-8.8
		c-2.4-0.8-7.1,1.4-8.4,4.6c-2.7,6.6-4.2,13.6-5.2,20.7c-0.6,4,3.4,4.5,6,5.9c1.3,2.4-0.8,3.4-2,4.8c15.1-16.6,26.7-35.3,34.7-56.3
		c2.1-5.5,3.4-10.8,0.8-16.5c-0.4-0.9-0.6-1.8-0.2-2.8C587.9,342.9,589.8,342.8,591.7,342.8z"/>
	<path class="st3" d="M586,342.9c6.1,9,1.7,17.5-1.9,25.7c-5.9,13.5-12.8,26.5-21.9,38.1c-3.8,4.8-8.3,9.2-12.8,13.4
		c0.6-2.4,2.8-3.8,3.3-6.2c1.9-4.3,6.3-6.9,7.9-11.4c0.7-1.9,0.5-4.4,3.1-5.1c0.5-0.4,1.1-0.8,1.4-1.3c6.6-13,12.7-26.2,17.1-40.2
		c1.7-5.3-0.8-9.4-2.1-14C582.2,341.2,583.9,343.2,586,342.9z"/>
	<path class="st4" d="M594.8,309.9c8.3,3.4,12.9,11.1,10.8,17.4c-1.5,4.4-5.2,6-9.1,6.6c-3.5,0.6-5.4-2.3-4.2-5.6
		c0.2-0.4,0.4-0.9,0.6-1.3C596.7,318.7,596.7,318.7,594.8,309.9z"/>
	<path d="M515.6,398.6c0-9.9,6.9-19.6,15-21.7c5.9-1.5,11.3,2.7,10.3,8.8c-1.2,7.8-4.2,15.1-9.7,21c-4.3,4.6-6.1,4.5-10.6,0.1
		C518,404.4,516.2,401.5,515.6,398.6z"/>
	<path d="M563.6,397.5c-1.5,4.2-2.8,8.5-5.8,11.9c-1.5,1.7-3.4,3.1-5.2,4.6c-6.6-0.1-7.9-2.2-6.9-8.9c0.9-5.8,2.7-11.3,4-17
		c1-4.4,4.4-6.1,8-7.2c4.1-1.2,8.6,4.6,7.4,9.2C564.6,392.6,563.4,394.9,563.6,397.5z"/>
	<path class="st2" d="M538.1,387.8c0.9,2.9-1.4,4.1-3.7,4.6c-2.8,0.6-6.9-5.3-7-9.4c-0.1-3.1,2.3-3.7,4.3-4
		C535,378.6,538.1,383,538.1,387.8z"/>
	<path class="st5" d="M528.3,404.2c0,1.3-0.3,2.8-2.3,2.8c-2.3,0-7.3-5.7-7.4-8.2c-0.1-1.6,0.4-2.9,2.2-3.1
		C523.5,395.3,528.1,400.5,528.3,404.2z"/>
	<path class="st2" d="M554.6,390.4c0.5-3,1.2-6.2,4.6-6.4c2.2-0.2,4.7,2.2,4.1,4.3c-0.8,2.8,0.2,7.6-4.2,8
		C556,396.5,555.2,393,554.6,390.4z"/>
	<path class="st5" d="M554.7,406.4c-0.2,2.8-1.4,4.7-3.5,4.5c-2.5-0.3-4.5-2.1-4.3-4.9c0.1-2.3,1.4-5.2,3.5-5.2
		C553.9,400.9,553.2,405,554.7,406.4z"/>
</g>
</svg>
