<?xml version="1.0" encoding="utf-8"?>
<!-- Generator: Adobe Illustrator 23.0.1, SVG Export Plug-In . SVG Version: 6.00 Build 0)  -->
<svg version="1.1" id="Layer_4" xmlns="http://www.w3.org/2000/svg" xmlns:xlink="http://www.w3.org/1999/xlink" x="0px" y="0px"
	 viewBox="0 0 1000 1000" style="enable-background:new 0 0 1000 1000;" xml:space="preserve">
<style type="text/css">
	.st0{fill:#6E3720;}
	.st1{fill:#FB9A7A;}
	.st2{fill:#FEFEFE;}
	.st3{fill:#C0FEFE;}
	.st4{fill:#7F7F7F;}
	.st5{fill:#00407F;}
</style>
<g>
	<path class="st0" d="M584.8,298.8c2.9,3.7,7.6,5.6,9.4,10.6c1.8,5,3,9.7,1.6,15.2c-6,24.5-16.9,46.6-32.3,66.4
		c-2.2,2.9-3,5.2-1,8.7c5.7,10.3,2.8,17.1-6.1,23.2c-0.9,0.6-1.7,1.5-2.5,2.2c-6.4,4.9-6.4,4.9-2.1,11.6
		c14.3,21.9,25.9,45.3,37.1,68.9c9.6,20.1,17,41.1,25.3,61.7c1.7,4.4,3.2,9,3.8,13.6c1.3,10-2.5,15-14.9,15.6
		c-14.3,0.7-28-3.3-40.9-9.4c-24.2-11.4-47.6-24.4-69.5-40c-7.1-5-13.3-10.9-20-16.3c-4.7-3.8-9.6-7.6-13.8-11.9
		c-13.2-13.4-25.9-27.3-30-46.7c-0.6-3-1.4-6-1.1-9c1-13.9-4.8-25.8-11.4-37.3c-9.8-17.2-18.7-34.8-25.8-53.3
		c-4.1-10.4-8.1-21-9.4-32.2c-1.7-14.1-2.9-28.3,3.6-41.8c4.1-8.5,11.7-13.3,19.1-18.2c12.6-8.3,27-11,41.7-13
		c13.4-1.8,26.7-2,40.1-1.7c4.7,0.1,9.6,0.3,14.2,1.7c1.1,2.7,0.6,5.3-0.4,7.8c-2,1.9-4.3,1-6.5,0.7c-24.2-2.8-48-0.5-71.3,6.9
		c-8.9,2.8-16,8.6-22.6,14.9c-6.4,6.1-6.9,14.6-7.1,22.7c-0.3,15.5,3.4,30.2,8.4,44.8c7.2,21.3,19.2,40.2,28.7,60.3
		c4.9,10.4,10.3,20.7,11.2,32.6c0.1,0.8,0.3,1.6,0.3,2.4c-1,12.9,4.8,23,12.4,32.9c11.6,15,25.7,27.1,40.3,38.8
		c21.8,17.5,45.5,32,70.9,43.7c10.5,4.8,21.4,8.6,33,10.1c7.6,1,9.5-1.1,7.7-8.6c-3.4-14.5-9.9-27.9-15.8-41.4
		c-7.2-16.5-15-32.9-23.2-48.9c-8.8-17.1-18.2-33.8-29-49.7c-2-2.9-4.2-4.5-7.9-4.6c-8.2-0.4-16.1-2.5-23.9-4.8
		c-10.3-3-20.9-5.2-31.5-6.5c-7.1-0.9-14.2,1-21.4,1c-0.6,0-1.3,0.3-1.9,0.3c-1.8,0.2-4.1,0.7-4.8-1.2c-0.8-2,1.5-3,2.8-4.1
		c8.1-6.6,17.5-8.5,27.5-7.2c13.3,1.8,26,5.9,39,9c7.2,1.7,14.3,3,21.7,1.2c2.7-0.7,5.3-1.4,7.8-2.7c7.1-3.7,8.7-7.3,6.9-15.1
		c-0.2-0.8-0.3-1.6-0.7-2.3c-2.9-5.5-0.6-9.6,3-14c14.6-17.9,24.9-38,29.5-60.9c1.4-7.1,0.2-13.2-4.8-18.5c-0.7-0.7-1.2-1.6-1.3-2.6
		C578.8,301.6,581.3,299.5,584.8,298.8z"/>
	<path d="M498.9,275.5c0.3-2.7-0.4-5.5,1-8c2.5-6.9,6.9-9.1,13.8-7.8c9.7,1.8,17.2,6.6,22.9,14.6c0.3,0.5,1,0.7,1.5,1
		c3.5,3,4.7,7.4,7,11.2c0.4,0.9,0.7,1.8,1,2.7c2.6,9.2-0.6,14.2-10,15.7c-0.8,0.1-1.6,0.2-2.4,0.2c-10.2,2.3-19,0.3-25.9-8
		c-1.7-1.7-2.9-3.8-4.5-5.6c-1-1.3-1.8-2.8-2.6-4.4C499.2,283.4,497.8,279.6,498.9,275.5z"/>
	<path d="M584.8,298.8c-2.5,1.8-4.3,4.7-7.7,5c-1,2.1-3.2,2-4.9,2.7c-1.6,0.4-3.3,0.5-4.9,1c-2,0.4-3.9,0.8-5.9,1.2
		c-4.5,0.5-7.9-1.2-10.3-5c-2.5-4.7-1.1-9.5-0.4-14.3c1-3.2,0.8-6.9,4-9.2c1.5-4.4,2.4-9.2,7.2-11.7c6.5-3.4,11.1-2,17.7,4
		c4.5,4.1,6.8,9.8,8.3,15.6C588.8,292,585.8,295.2,584.8,298.8z"/>
	<path class="st0" d="M554.6,280.2c-1,3-2,6-2.9,9c-3.1,0.3-5.5-1-7.7-3c-2.5-3.4-4.2-7.1-5.9-10.8
		C543.6,276.9,549.1,278.6,554.6,280.2z"/>
	<path class="st1" d="M544,286.1c2.7,0.5,5.3,1.5,7.7,3c0.2,4.8-1.9,9.6,0.1,14.4c0.1,1.5-0.5,2.8-1.1,4.2
		c-8.4,20.1-13.2,41-15.4,62.7c-0.5,4.5-1,9-0.8,13.6c0.1,2.5,0.6,4.9,1.6,7.1c1.8,3.8,4.2,4.3,7.2,1.4c3.3-3.2,6.1-6.9,8.3-10.8
		c10.2-17.5,18-36,22.5-55.8c1.2-5.5,0.3-10.6-1.6-15.7c-0.6-1.5-1.5-3-0.5-4.6c1.2-1.9,3.6-0.3,4.9-1.8c11.4,9.6,8.1,21.3,4.6,32.8
		c-5.9,19.4-15.4,37-28.7,52.3c-2.5,2.9-3.6,5.6-1.8,9.5c1.3,2.8,2.1,6.1,2.4,9.2c0.6,5.4-3.4,8.1-7.3,10.4
		c-10.4,6.2-21.4,5.3-32.6,2.3c-13-3.4-25.9-7.4-39.2-9.1c-8.7-1.1-17.3,0.8-24.6,6.4c-1.4,1.1-2.7,2.2-5.1,4.1
		c6.8-0.6,12.6-0.3,18-1.3c8.6-1.6,16.7,0.3,24.8,2c12.5,2.6,24.9,5.8,37.3,8.8c0.5,0.1,1,0.3,1.4,0.2c7.3-1.7,10.3,3,13.8,8.2
		c15.5,23.2,27.9,48,39.8,73.1c8.4,17.7,16.3,35.6,23.3,53.8c1.8,4.7,3.1,9.8,4.2,14.7c1,4.5-2.8,7.3-8.7,6.3
		c-8.7-1.5-17.2-3.4-25.4-6.7c-30.9-12.6-58.8-30.1-84.6-51c-15.9-12.8-30.6-26.7-42.3-43.5c-3.7-5.3-6.8-11.3-6.6-17.8
		c0.6-15-4.5-28.4-11-41.4c-7-14-14.7-27.6-21.2-41.7c-7.8-17-14.2-34.5-16-53.6c-0.7-7.5-0.5-14.8,0.4-22.1
		c1.1-9,7.3-14.6,14.1-19.8c10.5-8,22.6-11.9,35.4-13.7c13.6-1.9,27.2-3.4,41-2.9c5.6,0.2,11.1,1.3,16.7,2c1.5,3.7,1,8,2.9,11.6
		c-3,2-6.5,1.8-9.8,2.2c-5.9,0.7-11.6,1.9-17.2,3.6c-12.1,3.6-18.1,11.7-18.4,24.5c-0.2,12.6,3,24.6,7.8,36
		c5.3,12.6,11.5,24.8,21.1,34.8c3.5,3.6,7.9,5.8,12.6,7.2c6.2,1.9,11.6-0.3,16.1-4.6c8.6-8.1,12.8-18.6,16-29.7
		c5.1-17.8,6.7-35.7,2.8-54c-0.2-1.1-0.4-2.3,0.4-3.2c2-0.3,4-0.3,6.1-1c6.1-2.2,7.6-4.9,5.9-11.2C544.7,289.8,544.4,288,544,286.1z
		"/>
	<path class="st2" d="M533.2,303.9c5,18.7,3.6,37.2-1.5,55.7c-3.1,11.3-7.1,22-15.2,30.7c-10.3,11-21.2,8.6-30.6-0.1
		c-13-12-19.9-28.2-25.8-44.7c-3.1-8.7-5.1-17.7-4.8-26.9c0.5-17,6.7-24,21.9-27.8c8.1-2,16.3-3.6,24.7-3.8c0.7,1.3,1.5,2.5,2.2,3.8
		c-4.1,2.6-8.8,1.3-13.3,2.1c-4.1,0.8-8.3,1.6-12.4,2.6c-13.4,3.4-17.8,14.6-16.7,26c2.2,22.3,10.2,42.2,23.1,60.3
		c0.7,0.9,1.4,1.8,2.1,2.7c0.7,0.9,1.5,1.7,3,3.1c-2-4.2-3.9-7.6-5.5-11.1c-1.6-3.6-2.5-7.4-4-11c-4.8-12.5-6.1-25.6-6.9-38.7
		c-0.6-9.1,0.5-18.1,8.1-24.6c7.6-6.4,16.6-8.3,26.4-6.6c5.3,5.8,11.6,9.4,19.8,9C529.6,304.7,531.3,303.6,533.2,303.9z"/>
	<path class="st3" d="M507.9,295.8c-4.5,0.1-9,1-13.4,1.8c-13.1,2.1-19.9,11.7-19.8,24.9c0.1,20.6,4.1,40.5,13.4,59.1
		c1.5,3,3.5,5.8,4.2,10.2c-7.2-5.7-11.8-12.2-15.6-19.3c-7.2-13.3-13.4-27-15.3-42.2c-0.7-6.2-2.4-12.3-0.7-18.7
		c2.2-8.6,7.2-13.9,15.4-16.6c9-2.9,18.3-4,27.7-3.9C506,292,506.3,294.4,507.9,295.8z"/>
	<path class="st4" d="M521,267.9c10.2,4.8,16.1,11.9,19.8,20.8c1,2.3-2.6,5.3-6.1,5.3c-3.5,0-6.1-1.9-6.9-5
		C526.2,282.1,524.4,275.5,521,267.9z"/>
	<path class="st2" d="M572.2,305.6c7.5,13.9,2.6,27.1-2.4,40.3c-4.8,12.7-9.7,25.3-17,36.7c-2.3,3.7-5.1,7-7.8,10.4
		c-1.5,1.9-3.5,4-6.1,3.1c-2.5-0.9-3.8-3.3-4.6-5.9c-1.5-5.1-1.3-10.3-0.9-15.4c1.2-14.6,4-28.9,7.8-43c2.6-9.7,4.9-19.6,10.7-28.2
		c2.7,2.7,5.7,4.7,9.7,4.2c4.2,4.6,4.7,10.2,4,15.9c-1.2,10.6-4.2,20.9-7,31.2c-0.7,2.6-1.5,5.3-4.3,6.7c-2.8-1.9-1.2-4.4-0.6-6.6
		c0.9-3.6,1-7-0.6-10.5c-1.6-3.5-3.8-4.1-7-2c-0.4,0.3-0.8,0.6-1.1,0.9c-3.9,3.6-6.9,22.4-4.4,27c0.9,1.8,2.1,2.1,4,1.6
		c1.9-0.5,3.2-2.4,5.3-2.1c1.4,1.6,0.4,3.1-0.2,4.5c-2.2,4.5-4.3,9.1-7.1,13.3c13.3-19.4,22.9-40.4,27-63.7
		c0.8-4.5,0.4-8.7-1.2-12.9c-0.6-1.5-1.7-2.9-0.9-4.6C568.6,304.7,570.6,306.1,572.2,305.6z"/>
	<path class="st3" d="M553.6,361.3c3-3,3.9-7,4.8-10.9c2-8.6,4-17.3,5.8-26c1.2-5.8-1.1-11.2-2.7-16.6c1.7-1.7,3.8-0.9,5.8-1.2
		c4.5,6.7,4.6,14,2.9,21.4c-5.5,23-14.4,44.4-29.5,62.9c2.1-7.3,7-13.5,9.1-20.9C549.1,366.2,550.4,363.3,553.6,361.3z"/>
	<path class="st4" d="M573.6,273c2.6,2.7,4.8,4.6,6.5,6.9c5.2,7,2.5,12.6-4.3,17.2c-1.4,1-2.3,0.6-3.3-0.5c-1-1.2-2.7-2.1-1.9-4.1
		c1.2-2.9,3.2-5.5,3.7-8.8C574.8,280.4,572.7,277.5,573.6,273z"/>
	<path d="M509.5,359.1c0.7-7.3,0.9-13.5,6.1-17.8c3.2-2.6,6.8-4.8,11.1-2.3c3.5,2,5.9,8.9,4.7,12.9c-1.5,5.4-2.8,10.9-5.4,16
		c-1.5,2.9-3.4,5.5-6.8,5c-3.8-0.5-7.5-2.4-8.4-6.6C510.4,363.5,508.7,360.8,509.5,359.1z"/>
	<path d="M553.6,361.3c-1.3,2.9-2.6,5.8-3.9,8.8c-2.6,2-5.2,5.2-8.6,3.4c-3.2-1.7-3.5-5.6-3-9c0.9-5.8,0.9-11.7,2.8-17.3
		c1.6-4.6,5.2-7.9,8.8-7.3c5.1,0.9,5.1,5.5,5.8,9.2C556.4,353.3,553.6,357.1,553.6,361.3z"/>
	<path class="st2" d="M529.3,349.8c0.4,2.2-0.7,4.1-2.9,4.6c-2.5,0.6-7.9-6.3-7.8-9.6c0.1-3.3,2.8-3.6,5-3.8
		C526.4,340.7,529.3,345.4,529.3,349.8z"/>
	<path class="st5" d="M511.7,361.5c0-1.6,0.5-2.9,2.3-3.1c2.8-0.3,7.3,5,7.4,8.5c0,1.7-0.5,2.9-2.3,3.1
		C516.4,370.3,511.8,365,511.7,361.5z"/>
	<path class="st2" d="M552.7,350.9c-0.2,1.7,0.8,4.3-2.4,4.6c-2.1,0.2-5.7-4.5-5.3-7c0.4-2.5,1.4-5.1,4.3-5.6
		C551.4,342.5,552.7,345.6,552.7,350.9z"/>
	<path class="st5" d="M546.9,367.2c0.1,2.2-0.4,4.1-3,3.8c-3.4-0.3-3.6-3.1-3.8-5.7c-0.2-2.3,0.6-4.3,3-4.7
		C544.8,360.4,546.9,364.3,546.9,367.2z"/>
</g>
</svg>
