<?xml version="1.0" encoding="utf-8"?>
<!-- Generator: Adobe Illustrator 23.0.1, SVG Export Plug-In . SVG Version: 6.00 Build 0)  -->
<svg version="1.1" id="Layer_4" xmlns="http://www.w3.org/2000/svg" xmlns:xlink="http://www.w3.org/1999/xlink" x="0px" y="0px"
	 viewBox="0 0 1000 1000" style="enable-background:new 0 0 1000 1000;" xml:space="preserve">
<style type="text/css">
	.st0{fill:#6E3720;}
	.st1{fill:#FB9A7A;}
	.st2{fill:#FEFEFE;}
	.st3{fill:#C0FEFE;}
	.st4{fill:#7F7F7F;}
	.st5{fill:#00407F;}
</style>
<g>
	<path class="st0" d="M540.1,230.4c14.3,10.3,16.9,24.5,14.8,41.1c-1,8.2-1.5,16.5-3.1,24.7c-2.1,11.1-5.8,21.6-10,32
		c-1.5,3.6-2.1,6.8,0.2,10.1c8.3,11.8,4.6,21.4-4.7,31c-1.7,1.8-1.9,3-0.6,5.1c9.4,14.7,12.4,31.2,11.9,48.3
		c-0.2,7.9-1.6,15.9-2.9,23.7c-1.9,11.2-3.4,22.5-6.5,33.6c-5.5,19.8-11.1,39.4-17.3,59c-4.1,13.1-8.9,25.9-15.6,38
		c-7.1,13-18,14.4-28.3,3.2c-3.2-3.5-6-7.5-8.4-11.6c-7.2-12.3-13.8-25-18-38.5c-5.7-18.3-11.4-36.8-14.5-55.9
		c-2.4-14.5-3.8-29-5.8-43.5c-1.8-12.5-7.8-23.6-14.2-34.4c-7.9-13.1-18.1-24.5-26.4-37.2c-8.1-12.4-15.9-25.2-21.7-39
		c-3.4-8.2-4.6-17-6.2-25.7c-2.1-11.7,0.6-22.4,6.4-31.9c7.1-11.8,17.3-20.8,29.8-27c14.6-7.3,29.8-13,45.8-16.3
		c4.1-0.9,8.6-0.7,12.9-1.3c2,2.6,2.6,5.5,1.6,8.7c-1.3,1.6-3.2,1.3-4.9,1.6c-23.9,3.9-46.5,11.1-65.6,26.8
		c-11.6,9.6-15.2,22.4-14.1,36.7c1.3,17.5,9.6,32.7,18.2,47.5c8.7,15.1,19.2,29,29.2,43.2c11.6,16.5,19.2,35,21.5,55.4
		c2.8,24.7,6.4,49.3,13.6,73.3c6.3,21,15,40.9,26.3,59.6c0.8,1.3,1.7,2.4,2.8,3.4c3.8,3.5,6.9,3.3,9.7-0.9
		c4.3-6.5,7.3-13.8,9.7-21.3c9.8-31.2,18.4-62.8,25.7-94.7c3-13.2,4.2-26.7,5.1-40.1c0.8-12.3-3.3-23.7-9-34.5
		c-1.2-2.4-2.9-3.4-5.5-2.7c-11.2,2.9-22.3,0.9-33.5-0.1c-9.7-0.9-19.2,0.4-28.4,3.2c-4.4,1.3-8.6,3-13,4.2
		c-1.2,0.4-2.7,0.9-3.7-0.3c-0.9-1.1-0.1-2.5,0.4-3.7c1.1-2.8,2.9-5.1,5.3-6.9c9.5-7.2,20.1-9.6,32.1-8.8c11.6,0.8,23.3,2.8,35,0.7
		c6.5-1.2,11.5-4.5,15.7-9.2c3.2-3.5,5.1-8.1,1.9-12.5c-6.2-8.5-4.4-16.3-0.4-25.3c6.1-13.8,10.1-28.5,10.2-43.9c0-4.5,0.9-9,1-13.6
		c0.2-9.3-2.5-17.3-9.5-23.6C535.1,235.8,537.2,232.9,540.1,230.4z"/>
	<path d="M459.1,226.4c-0.4-2.9-0.8-5.8-1.2-8.7c3.3-9.7,5.8-11,15.3-9.8c7.6,1,14.2,3.8,19.7,9.1c0.5,0.5,1.4,0.6,2.1,0.9
		c4.2,2.2,5.8,6.6,8.8,9.9c5.5,11.3,3.4,17.5-7.6,22.4c-9.2,3.2-17.9,3.3-25.5-3.8c-1.3-1.3-2.2-3.1-3.5-4.5c-0.9-1-1.8-2.1-2.6-3.2
		C462.1,234.9,458.9,231.4,459.1,226.4z"/>
	<path d="M540.1,230.4c-1.2,3.2-2.8,6.1-5.1,8.7c-0.6,2.4-2.9,2.6-4.5,3.7c-1.4,0.7-2.8,1.4-4.2,2.1c-1.3,0.6-2.6,1.2-3.9,1.6
		c-4.9,1.5-8.5-0.8-11.5-4.3c-2.6-4.3-2.4-9.3-3.4-14c-0.1-3.4-0.7-6.9,2.1-9.6c0.4-3,0.5-6,1.2-8.9c1.1-4.8,7.7-7.7,13.2-6.4
		c9.8,2.2,20,16.2,16,26.1C540,229.7,540.1,230.1,540.1,230.4z"/>
	<path class="st0" d="M509.7,218.7c-1,3.3-0.9,6.6-1,10c-2.2,1.5-4,0.3-5.7-1.1c-3.6-2.4-5.2-6.5-7.9-9.6
		C500,217.1,504.7,219.7,509.7,218.7z"/>
	<path class="st1" d="M503,227.5c1.9,0.4,3.8,0.7,5.7,1.1c1.5,4.4,1.1,9.3,3.1,13.5c2.1,4.3,0.3,8.7,0,13c-1.4,20-2.7,39.9,0.8,59.8
		c0.9,5.1,1.1,10.4,2.5,15.4c0.5,1.9,1,3.8,2.3,5.3c1.9,2.4,4,2.6,6,0.1c1.8-2.3,2.9-5.1,3.8-7.9c4.8-14.9,7.3-30.3,8.2-46
		c0.5-8.1,1.8-16.1,0.2-24.3c-1.1-5.6-4.3-10.2-5.6-15.5c1.6-1,3.2-2,4.9-2.9c7.7,4.1,10,11.5,10.7,19.3c0.5,5.4,0,10.9-0.6,16.4
		c-0.7,6.4-0.7,12.8-2,19.2c-2.1,9.9-4.8,19.5-8.8,28.8c-1.3,3.1-2.6,6.2-4.1,9.2c-0.8,1.5-0.6,2.6,0.1,4c1.5,2.8,2.9,5.7,4.4,8.6
		c3.5,7,1.5,12.6-4.6,17.8c-9.8,8.6-21,7.5-32.8,7c-14.1-0.6-28.7-3.9-42.1,3.9c-5.2,3-9.9,6.5-11.4,13.1c8-1.8,15.3-5.5,23.3-6.9
		c8.2-1.5,16.1-1.7,24.4-0.9c10.5,1,21.2,2.9,31.7-0.6c1.3-0.5,2.9-1.3,4.3,1.3c6.9,12.7,11.8,26,10.3,40.5
		c-1.4,13.5-2.4,27.1-5.6,40.4c-7.8,32.2-16,64.2-26.5,95.6c-2.1,6.3-4.7,12.6-8.6,18.2c-3.6,5.1-6.9,5.5-11.4,1.1
		c-5-4.9-7.8-11.4-11-17.4c-13.6-25.1-21.1-52.5-27.2-80.2c-2.4-10.9-3-22.2-4.1-33.4c-2.5-25.8-12.1-48.5-27.8-69.1
		c-16.1-21.1-30.6-43.3-39.2-68.6c-4.8-14.2-4.5-28.3,2.5-42c3.6-7,9.7-11.7,15.8-15.8c16.4-11.1,34.8-17.4,54.2-21.1
		c3.4-0.6,6.7-0.7,10.1-1c1.9,4.1,3.7,8.3,6.6,11.9c-1.9,2.1-4.6,2.4-7,3.1c-8.7,2.4-15.9,7.2-22.4,13.2c-5.2,4.9-6.6,10.9-5.7,17.8
		c1.9,14.5,8.6,27.2,15.3,39.8c5.6,10.6,13.3,19.6,21.7,28c1.8,1.8,3.8,3.7,6.1,4.8c11,5.2,19.9,5,25.5-7.4
		c5.3-11.8,7.3-24.2,6.1-37.1c-1-10.4-2.3-20.6-4.4-30.9c-0.9-4.5-2.1-8.8-3.7-13.1c-0.9-2.3-2.6-4.7-1.1-7.4c1.9-1.1,4-2,5.6-3.4
		c4.4-3.8,5-8.2,2.4-14.6C503.7,230,502.6,229,503,227.5z"/>
	<path class="st2" d="M496.1,249.2c6,15.7,8.4,32.1,10.1,48.8c1.6,16.2-0.4,31.3-8.9,45.4c-2.6,4.2-6.4,6-10.9,6.1
		c-6.8,0.2-13-2-18.1-6.7c-18.9-17.8-31.2-39.6-38-64.5c-3.8-14-0.6-22,12.5-30.6c7.2-4.7,14.7-7.8,22.9-9.4
		c0.7,0.9,1.5,1.9,2.2,2.8c-3.2,2.8-7.4,3.2-11.1,4.8c-5.1,2.2-9.8,5.1-14.4,8.1c-5.5,3.6-7.6,8.7-7.4,14.9
		c0.3,8.4,2.5,16.4,5.6,24.1c7,16.9,17.2,31.7,29.7,44.9c1.3,1.4,2.7,2.8,4.6,3.8c-12-17.8-21.1-36.7-26.8-57.2
		c-2.9-10.4-3.2-20.6,4.2-29.6c4.3-5.2,10.2-8,16.3-10.4c0.8-0.3,1.6-0.1,2.3,0.4C478.3,252.1,487,252,496.1,249.2z"/>
	<path class="st3" d="M470.8,245c-11.2,4.1-21,9.7-23.2,22.9c-1.3,8,0.9,15.4,3.4,22.8c6,17.9,13.7,35,25,50.3
		c0.6,0.8,0.9,1.7,1.6,3.1c-3.1-0.3-5.1-1.8-6.8-3.6c-16.6-17.3-29.6-36.8-35.8-60.3c-1.1-4.3-1.9-8.9-1.5-13.5
		c0.5-5.4,2.3-9.7,7.1-13.1c8.3-5.9,17.2-10.3,27.1-12.5C469.7,241.8,469.7,243.8,470.8,245z"/>
	<path class="st4" d="M477,213.3c9.4,4,16.6,8.5,21.5,16c1.7,2.6,1.8,4.6-1.4,6.1c-3.1,1.5-6.3,3.7-8.6-0.7
		C485,227.9,481.7,221,477,213.3z"/>
	<path class="st2" d="M530.2,242.1c6,6.4,7.8,14.6,7.7,22.7c-0.2,14.6-1.2,29.1-4.3,43.6c-1.9,9-3.5,17.9-7.5,26.2
		c-1.2,2.4-2.4,5.5-5.7,5.1c-3.1-0.4-4.7-2.9-5.8-5.9c-2.4-6.9-2.9-14.1-3.8-21.2c-1.2-10.1-3-20.2-2-30.4c1.3-13.3,0.6-26.7,3-39.9
		c3.3,1.8,6.1,5.5,10.6,3.1c3.9,3.5,5.3,8.1,6,13c3.3,24.4-0.2,48.1-6.2,69.8c5.7-15.9,9.7-34.1,10.4-52.9
		c0.3-9.8-0.4-19.5-5.5-28.3c-0.5-0.8-0.9-1.7-0.9-2.8C527.3,242.9,528.7,242.3,530.2,242.1z"/>
	<path class="st3" d="M526.3,244.1c4.4,4.3,6.1,9.9,6.8,15.6c2.4,18.9-0.5,37.3-5.5,55.4c-1.9,6.6-3.7,13.2-7.9,19
		c1.7-7.9,3.6-15.8,5.2-23.7c3.7-18.3,4.7-36.8,1.5-55.3c-0.6-3.6-3.3-6.3-4-9.9C523.7,244.9,525,244.5,526.3,244.1z"/>
	<path class="st4" d="M524.4,208.3c3.8,1.6,6.3,4.3,8.7,7c3.5,3.9,3.1,12.6-0.4,16.2c-0.9,0.9-2,1.4-3,0.6c-1.6-1.3-3.7-2.4-3.2-5
		c0.5-3.2,2.6-6.1,1-9.6C526.2,214.7,525.5,211.6,524.4,208.3z"/>
	<path d="M502,286.1c0,3.5,0.3,7.1-1,10.4c-1,2.7-1.8,6-5.1,6.8c-3.2,0.8-5.9-1.1-7.8-3.4c-4.3-5.3-5.5-11.7-4.3-18.3
		c0.4-2.1,0.7-4.3,1.4-6.4c1.4-4.4,3.8-7.1,8.4-6.7c4.4,0.4,6.1,3.8,7.4,7.6C502.2,279.5,501.9,282.8,502,286.1z"/>
	<path d="M525.3,284.3c0.7,3.4-0.4,7.2-1,10.9c-0.5,3.5-2.8,6.2-6.1,6.3c-3.3,0.1-4.2-3.2-4.6-6.2c-0.9-6.1-2.1-12.2-1.9-18.5
		c0.1-3.4,1-6.6,3.3-9.1c3-3.2,5.2-2.8,7.5,1C525.3,273.4,525.6,278.6,525.3,284.3z"/>
	<path class="st2" d="M499.1,279.7c0.4,1.6-0.7,3.3-2.5,4.2c-2.1,1.1-3.1-1-4.3-2.1c-0.4-0.3-0.8-0.7-0.9-1.1
		c-0.9-2.8-3.9-5.4-1.2-8.7c0.9-1,2-2.2,3.3-1.3C496.3,272.8,499,275.1,499.1,279.7z"/>
	<path class="st5" d="M490.6,291c1.6-0.1,5.3,3.3,5.5,6.4c0.1,2.2-0.8,3.4-3.1,3.3c-3-0.1-6.6-3.6-6.6-6.6
		C486.3,292.2,487.2,291.1,490.6,291z"/>
	<path class="st2" d="M523.5,278.3c0,0.4,0.2,1.9-1.4,2.7c-1.9,1-2.9-0.6-4-1.7c-2.6-2.6-3.4-5.6-1.5-9c1.4-2.5,3.3-2.8,4.7-0.2
		C522.5,272.3,523.5,274.6,523.5,278.3z"/>
	<path class="st5" d="M514.6,292.8c0-2.8,0.3-5.1,2.7-4.5c3.5,0.8,4.3,4.2,4.9,7.1c0.4,1.8-1.5,3.7-3.3,3.2
		C515.6,297.9,514.8,295,514.6,292.8z"/>
</g>
</svg>
