<?xml version="1.0" encoding="utf-8"?>
<!-- Generator: Adobe Illustrator 23.0.1, SVG Export Plug-In . SVG Version: 6.00 Build 0)  -->
<svg version="1.1" id="Layer_4" xmlns="http://www.w3.org/2000/svg" xmlns:xlink="http://www.w3.org/1999/xlink" x="0px" y="0px"
	 viewBox="0 0 1000 1000" style="enable-background:new 0 0 1000 1000;" xml:space="preserve">
<style type="text/css">
	.st0{fill:#6E3720;}
	.st1{fill:#FB9A7A;}
	.st2{fill:#FEFEFE;}
	.st3{fill:#C0FEFE;}
	.st4{fill:#7F7F7F;}
	.st5{fill:#00407F;}
</style>
<g>
	<path class="st0" d="M516.7,200.1c10.4,5.5,16.2,14.6,18.3,25.7c1.6,8.8,2.8,17.8,2.1,26.9c-1.4,16.2-2.6,32.4-7,48.1
		c-1,3.6,0.4,5.7,1.9,7.8c8,10.9,8.7,18.9-0.7,30.9c-2.3,3-1.8,5.3,0,8.1c7.3,11.3,12.5,23.6,14.3,36.8c1.1,8.5,2,17.1,0.8,25.9
		c-1.1,8.2-1.9,16.4-3.2,24.7c-1.7,11.3-4.9,22.2-9.4,32.7c-6.5,14.9-13.7,29.5-23.2,43c-8.6,12.2-19.3,21.8-32,29.5
		c-7.1,4.2-14.1,8.7-21.9,11.3c-8.4,2.8-17,5.1-25.9,1c-7.6-3.4-10.8-9.8-11.6-17.3c-0.8-7.3-0.1-14.7,2.5-21.8
		c5.5-15.2,8.5-30.8,9.2-47c0.5-9.5,2.3-18.9,1.7-28.4c-0.7-12.9-0.9-26-5-38.3c-3-9.2-8.5-17.2-14.2-25.1
		c-12.2-16.8-24.8-33.3-36.3-50.7c-9.3-14-16.7-28.7-20.2-45.1c-3.4-15.7,0-29.9,10.1-43c8.7-11.3,20-18.6,32.2-25.4
		c10.6-5.9,21.5-10.5,33.2-13.6c1.4-0.4,2.8-0.4,4.2-0.7c3.5,1.7,3.6,4.8,3.2,8c-6.6,3.3-13.9,4.5-20.5,7.5
		c-16.1,7.2-31.8,15.2-43.4,29c-7.8,9.3-9.9,20.6-8.9,32.6c1.3,16.6,10.5,29.8,18.5,43.6c10.9,18.6,26.3,33.9,38.5,51.6
		c8.4,12.2,16,24.6,18.1,39.6c1.8,13,3.2,26,2.2,39.3c-1.1,13.3-1.7,26.6-3.3,39.8c-1,8.6-3,17-6,25.1c-2,5.4-3.5,10.8-4.3,16.5
		c-1.3,9.8,4.9,15.9,14.5,14.3c1-0.2,2-0.3,2.9-0.6c19-6.8,36.3-16.8,48.7-32.8c15.8-20.5,26.7-43.8,33.6-68.9
		c2.7-9.8,3.7-19.8,4.8-29.8c1.1-10.4,0.3-20.4-1.8-30.5c-2.1-9.9-6.8-18.6-11.7-27.2c-1.1-1.9-2.4-2.2-4.5-1.6
		c-6.9,2.2-13.9,3.3-21.1,3.1c-15.8-0.6-30.6,3.2-44.6,10.4c-2.1,1.1-4.9,3.5-6.6,1.7c-2.2-2.4,0.5-5.2,1.9-7.3
		c4.2-6,9.6-10.4,16.9-12.4c9-2.6,18.3-2.8,27.5-3.6c8.4-0.8,16.8-1.9,24.7-5.2c3.3-1.4,5.8-3.4,7.9-6.3c3.3-4.7,4.7-9.5,0.5-14.3
		c-6.3-7.3-6.1-14.8-3.7-24c5.6-20.7,7.2-41.9,4.5-63.3c-0.9-7.1-4.2-12.9-9.3-17.8c-1-1-2.3-1.8-3.1-3.1
		C512.4,205.7,513.7,202.5,516.7,200.1z"/>
	<path d="M439.5,204c-1-2.6-2-5.2-3-7.7c-1.4-7.9,8.1-14.3,16.8-12.4c6.4,1.4,12.4,4.3,17.4,8.8c4.9,1,7.1,5.1,10,8.5
		c7.6,9.2,6.4,16.3-3.7,23.6c-8.9,4.8-16.6,4.3-23.8-1.6c-1.4-1.3-3-2.3-4.4-3.6c-1.3-1.3-2.5-2.6-3.6-4.1
		C443.1,211.6,439.8,208.6,439.5,204z"/>
	<path d="M516.7,200.1c-1.4,2.9-2.7,5.8-4.1,8.7c-0.2,2-2.1,2.6-3.3,3.8c-1.2,1-2.2,2.1-3.5,3c-1.8,1.1-3.4,2.4-5.5,3
		c-3.2,0.6-6.1-0.3-8.7-2.2c-4.3-4.2-5.2-9.7-5.9-15.3c-0.7-3-1.4-6,0.5-8.9c-2.4-5.1,0.1-13,3.9-16c3.6-2.8,10.6-1.4,14.8,1
		C513.5,182.4,516.4,190.6,516.7,200.1z"/>
	<path class="st0" d="M486.2,192.3c0.4,3-0.5,6.1,1,9c-2.6,1.9-5.1,1.4-7.7-0.1c-2.7-3.2-5.4-6.3-8.8-8.6
		C475.9,192.5,481,192.4,486.2,192.3z"/>
	<path class="st1" d="M479.5,201.2c2.6,0,5.1,0.1,7.7,0.1c0.2,5.4,1.6,10.3,5.1,14.5c1.6,3,0.3,6.1,0.3,9.1
		c-0.2,21.1,3.3,41.7,8,62.2c0.9,3.8,1.9,7.6,2.8,11.4c0.6,2.4,1.3,4.7,2.5,6.9c1.3,2.2,2.3,5.3,5.5,4.7c2.7-0.5,3.4-3.2,3.9-5.7
		c0.7-3.2,1.3-6.4,1.7-9.6c2.4-19.1,3.1-38.2,0.4-57.4c-1.1-7.3-2.9-14.3-6.9-20.7c-0.9-1.5-2.1-2.9-1.7-4.9c1.3-1,2.6-2,4-3.1
		c8.7,5.2,12.5,13.2,13.8,23c0.9,7.3,1.2,14.5,0.8,21.8c-0.7,15.9-2.2,31.7-7.2,46.9c-1.3,4-1.2,7.3,1.5,10.6
		c2.1,2.6,3.7,5.6,5.5,8.5c2.7,4.1,0.7,7.8-1.2,11.3c-4.5,8.2-12.7,9.9-21,11.9c-13.6,3.2-27.9,1.5-41.4,5.7
		c-8.8,2.7-16,9-18.9,18.5c8-3.8,15.6-7.7,23.9-10.1c6.2-1.8,12.5-3,18.8-3.2c8.7-0.2,17.4,0.1,26-2.1c0.2,0,0.4,0.1,0.5,0
		c6.2-4.4,8.3,0,10.9,4.7c5.9,11,10.5,22.3,11.5,34.9c2.1,27.7-3.7,53.8-15.2,78.8c-6,13.2-12.7,25.9-21.1,37.7
		c-6.4,9-14.4,15.9-23.5,21.7c-9.9,6.3-19.6,12.9-31.4,15.2c-11.3,2.3-17.2-6.8-15.9-16c1.8-12.9,8.2-24.5,9.9-37.5
		c0.9-6.5,1.8-13,2.3-19.6c0.9-11.1,2-22.2,1.9-33.3c-0.2-13.5-0.9-27.1-4.8-40.1c-3.6-11.8-10.4-21.9-17.7-31.8
		c-9.3-12.5-19.8-24.1-28.7-36.8c-9.8-14-19.3-28.5-24.5-45.1c-4.5-14.5-2.8-28.8,5-41.8c5.2-8.7,13.9-14.2,22.2-19.6
		c13.9-8.9,28.7-15.7,44.9-19.1c2.2,3.6,4.4,7.3,6.6,10.9c-0.7,2.1-2.7,2.7-4.4,3.6c-7.8,4-14.2,9.7-19.5,16.6
		c-4.1,5.3-5.6,11.1-4.1,17.9c2.8,13.2,8.6,24.8,16.6,35.5c7.2,9.7,14.2,19.4,23.2,27.6c4.7,4.2,9.9,7.4,16.2,8.4
		c5.6,0.9,10.2-0.7,13.6-5.6c5.5-8.1,6.7-17.3,5.9-26.7c-1.5-18.2-4.7-36.1-10.9-53.4c-1.9-5.2-5.5-9.6-6.2-15.3
		C486,217.1,486.9,210.5,479.5,201.2z"/>
	<path class="st2" d="M476.5,223.5c8,12.4,11.6,26.4,14.5,40.5c2.3,11.3,4.3,22.8,4,34.4c-0.2,5.7-1.3,11.3-3.6,16.8
		c-5.7,13.3-16.9,12.9-26.7,7.2c-10-5.7-17-14.7-23.9-23.7c-9-11.9-18.1-23.8-22.1-38.6c-1.9-6.8-4-13.5-0.7-20.6
		c2.8-5.9,7.3-10.2,11.9-14.5c4.8-4.4,10.3-7.6,16.3-10.2c1.1,1.3,2.1,2.5,3.2,3.8c-2.6,2.9-6.6,3.4-9.8,5.2
		c-4.1,2.4-8,4.9-11.2,8.4c-8.7,9.7-7.1,20.5-3.1,31.2c5.4,14.3,14.7,26.2,24.1,38.1c5.3,6.7,12.3,11.3,18.6,16.6
		c-14.4-17.9-25.7-37.7-33.5-59.4c-6-16.6,3.2-33.8,18.8-37.2C459.8,228.3,469.3,227.7,476.5,223.5z"/>
	<path class="st3" d="M453.2,221.6c-2.3,2.4-5.6,3.1-8.3,4.9c-9.9,6.7-13.6,20.2-9.2,32.5c6.4,17.8,15.6,34.1,26.3,49.6
		c2.8,4.1,6.2,7.9,9,12.1c-5.2-1.5-8.7-5.5-12.7-8.6c-10.6-8.3-17.8-19.5-25-30.6c-4.2-6.4-8.2-12.9-10.3-20.3
		c-6.3-21.9,2.4-32.9,22.6-41.4c1.2-0.5,2.5-0.7,3.7-1.1C450.6,219.7,451.9,220.6,453.2,221.6z"/>
	<path class="st4" d="M455.7,190.6c8.1,2.8,16.4,4.5,21.5,12.3c2.5,3.9,0.7,5.7-1.8,7.5c-2.9,2.2-5.5,1.6-7.6-1.6
		C463.7,202.9,460.5,196.2,455.7,190.6z"/>
	<path class="st2" d="M508.7,211.9c7.4,9,9.9,19.8,10.7,30.9c0.7,9,1.7,18.1,1.1,27.2c-0.9,12.2-1.7,24.4-4,36.4
		c-0.5,2.8-2.1,5.6-5,5.9c-2.6,0.3-4.5-1.7-5.9-4.2c-4.8-8.9-6.1-18.9-8.2-28.6c-3.9-17.9-6.3-36.1-6.2-54.6c0-3.1,0.7-6.1,1.2-9.1
		c2.7,1.4,5.5,2.3,8.6,1.9c2.7-0.1,3.5,2.2,4.4,3.9c2.2,4,3.8,8.3,4.6,12.8c2.1,11.7,3.4,23.5,4.1,35.3c0.7,11.3-1.3,22.5-2.7,33.7
		c2.2-14.9,3.9-29.9,3.8-44.9c0-9.9-1.8-19.7-3.6-29.5c-0.7-3.6-2.5-6.7-4.3-9.8c-0.8-1.4-2.1-2.6-1.5-4.4
		C506.5,213.5,507.4,212.6,508.7,211.9z"/>
	<path class="st3" d="M505.8,214.8c5.6,6.3,7.7,14.1,8.8,22.2c1.3,9.8,2.8,19.6,2,29.5c-1.1,13-1.3,26.1-4.9,38.8
		c-0.3,0.9-0.4,1.9-1.8,2.6c0.7-8.4,1.1-16.6,2.3-24.6c1.4-9.8-0.3-19.4-0.8-29c-0.3-5.9-1.6-11.8-2.5-17.7
		c-1.1-7-3.2-13.5-7.9-18.9C502.6,216.8,503.6,214.9,505.8,214.8z"/>
	<path class="st4" d="M498.9,179.2c9.6,3.5,14.7,12.7,12,20.9c-0.7,2.2-1.6,4.3-4.1,3.8c-2.4-0.5-4.2-3.2-3.6-5.1
		C505.2,191.5,501.9,185.6,498.9,179.2z"/>
	<path d="M483.3,256.2c0.2,5.9,0,11.1-5.2,11.8c-4.2,0.6-7.8-2.9-9.6-7c-3.3-7.3-4.6-14.8-1.9-22.7c1.2-3.5,3.5-5.3,6.7-5.8
		c3.3-0.5,4.8,2.1,6.1,4.8C482.6,243.8,482.2,250.9,483.3,256.2z"/>
	<path d="M508,247.9c0.1,4.2-0.6,8.3-2.3,12.1c-1.4,3.1-3.6,3.9-6.3,0.8c-3.4-4-2.9-9.2-4.3-13.8c-1-3.1-1.4-6.4-2-9.7
		c-0.6-3.7,1-6.8,3.2-9.6c1.5-1.9,2.9-1.3,4.5,0.2C506.8,233.3,506.8,240.8,508,247.9z"/>
	<path class="st2" d="M479.5,244.2c0.1,1.6,0.1,3.5-2,3.7c-2.5,0.3-8.1-6.5-7.7-9.3c0.3-1.8,1.5-3.2,3.6-3.2
		C476.6,235.4,479.5,239.7,479.5,244.2z"/>
	<path class="st5" d="M479.4,263.4c-0.1,1.3-0.9,2.1-2.4,2.2c-2.3,0.1-8.2-5.4-8-7.6c0.1-1.6,1.3-2.7,2.8-2.8
		C474,254.9,479.5,260.7,479.4,263.4z"/>
	<path class="st2" d="M504.9,239.8c-0.3,1.7-0.7,3.1-3.6,1.5c-3.8-2.3-6-6.9-4.2-10c1-1.7,1.9-2.5,3.6-0.7
		C501.8,231.8,504.9,237.8,504.9,239.8z"/>
	<path class="st5" d="M498,253.5c0.1-2.1,0-4.6,1.9-4.1c3.1,0.8,4.7,3.6,4.9,6.9c0.1,1.7-0.4,3.7-2.4,3.3
		C499.1,258.9,498.3,256,498,253.5z"/>
</g>
</svg>
