<?xml version="1.0" encoding="utf-8"?>
<!-- Generator: Adobe Illustrator 23.0.1, SVG Export Plug-In . SVG Version: 6.00 Build 0)  -->
<svg version="1.1" id="Layer_4" xmlns="http://www.w3.org/2000/svg" xmlns:xlink="http://www.w3.org/1999/xlink" x="0px" y="0px"
	 viewBox="0 0 1000 1000" style="enable-background:new 0 0 1000 1000;" xml:space="preserve">
<style type="text/css">
	.st0{fill:#6E3720;}
	.st1{fill:#FB9A7A;}
	.st2{fill:#FEFEFE;}
	.st3{fill:#C0FEFE;}
	.st4{fill:#7F7F7F;}
	.st5{fill:#00407F;}
</style>
<g>
	<path class="st0" d="M508.9,191.3c13.1,5.9,18,16.6,19.6,30.3c1.3,11.4,2.1,22.8,1.6,34.2c-0.5,11.8-1.9,23.6-4.4,35.1
		c-0.5,2.4-0.2,4.4,1.1,5.7c2.6,2.6,3.6,6,5.4,9c5.2,8.9,3.2,17.1-2.8,24.6c-2.4,3-2.8,5.3-0.6,8.6c6.6,9.9,10.1,20.9,11.4,32.8
		c0.8,8,2.3,15.9,1.8,24c-1.2,23.3-6.1,45.5-19.5,65.2c-13.5,19.9-30,36.4-51.7,47.3c-9.5,4.8-19.7,7.6-30.4,8.6
		c-7.2,0.6-14.3,2.2-21.5,1.8c-8.9-0.6-17.7-1.5-26-5.1c-10.9-4.7-15.3-20.6-8.4-31.1c6.4-9.9,14.2-18.6,22.3-27
		c12.5-12.9,19.1-28.6,22.9-45.7c0.9-4.3-0.9-8.9-2.3-13c-5.3-15.9-12.9-30.6-24.4-43.1c-10.1-11.1-19.8-22.7-28.1-35.1
		c-10.4-15.6-18.1-32.7-21.1-51.3c-1.6-9.6,1.4-18.9,5.1-27.9c6.5-15.7,19-25.6,32.7-34.1c12.4-7.7,25.7-13.5,40-16.8
		c2.1,2.6,2.7,5.7,2.3,8.9c-2.1,2.1-5.1,2-7.7,2.9c-19.9,6.5-37.4,16.8-51.2,32.6c-10.5,12.1-12.4,26.5-8.5,41.7
		c4.8,18.7,15.3,34.4,27,49.2c11.1,14,23.4,27.1,33.1,42.3c5.9,9.3,10.2,19.2,12.8,29.9c3,12.1,0.3,23.7-3.7,34.9
		c-5.5,15.6-14.5,29-26.6,40.4c-4.6,4.3-9.1,8.9-12.8,14.1c-7,9.9-3.7,19,8.3,20.6c27.4,3.7,53.5,1.2,75.9-17.7
		c18.6-15.7,33.6-33.9,42.2-56.9c9.6-25.6,8.5-51.3-0.1-76.9c-0.5-1.4-1.3-2.6-2-3.9c-4.2-7.1-4.2-7-12.3-5.3
		c-5.7,1.2-11.6,1.6-17.4,1.7c-13.5,0.2-26,3.3-37.5,10.6c-2.4,1.5-5.6,4.6-7.7,2.6c-2.6-2.4,0.6-5.8,2.2-8.1
		c5.2-8,12.2-13.3,22.1-14.3c11.3-1.2,22.7-1.9,33.9-4.1c4.8-1,9.4-2.5,13.5-5.3c6.1-4.2,8-10.7,5.1-17.5c-0.8-1.9-1.5-4.1-2.9-5.6
		c-4-4.5-4-9.5-3-15c2.8-15.4,4.1-31,3.6-46.6c-0.2-8.8-1.5-17.5-3.5-26.1c-1.6-7-5.8-12.6-11.9-16.6
		C504.2,196.6,506.1,193.7,508.9,191.3z"/>
	<path d="M433.5,197.4c-0.9-2.9-1.9-5.9-2-9c1.3-13,7.3-14.1,18.8-11c5.2,1.3,9.1,4.7,13.5,7.4c3.7,1.9,6.8,4.7,9.8,7.5
		c2,2.2,3.6,4.6,4.7,7.3c2.5,6.2,0.6,11-6.6,17.1c-8.2,4.8-16.2,4-24.1-0.7c-1.9-1.3-3.9-2.7-5.7-4.3c-1.1-1.1-2.3-2.3-3.2-3.5
		C436.6,204.7,433.4,201.8,433.5,197.4z"/>
	<path d="M508.9,191.3c-1.4,2.9-2.7,5.8-4.1,8.7c-0.1,1.7-1.5,2.5-2.4,3.7c-1.1,1.1-2.1,2.2-3.4,3.1c-1.5,1-3.1,2-4.9,2.6
		c-3.5,1.3-6.4-0.1-9.2-1.9c-4.7-4.1-5-10-6.6-15.4c-0.3-2.9-1.9-5.8,0.1-8.6c-1.7-3.7-0.8-7.5,0.3-11.1c2-6.6,12.3-9,18.4-3.8
		C504.1,174.5,509.6,181.3,508.9,191.3z"/>
	<path class="st0" d="M478.4,183.5c0.3,3,0.6,6,1,9c-2.3,1.8-4.5,1.2-6.7-0.1c-3.1-2.4-6.6-4.3-8.8-7.7
		C468.7,184.3,473.6,183.9,478.4,183.5z"/>
	<path class="st1" d="M472.7,192.4c2.2,0,4.5,0.1,6.7,0.1c2.2,4.7,2,10.4,6,14.4c1.1,19.8,3.9,39.4,8.2,58.8
		c2.3,10.7,5.8,21,9.8,31.1c0.8,2.1,1.9,4.6,4.6,4.4c2.8-0.1,3.1-2.9,3.7-5.1c1.1-3.8,0.8-7.8,1.1-11.6c1.4-14.4,1.8-28.8,0-43.2
		c-0.4-3.1-0.5-6.2-0.8-9.2c-1-9.6-3.5-18.5-9.4-26.3c-0.6-0.8-0.9-1.7-0.7-2.7c1-1,2-2,3-3.1c8.8,3.1,11.9,10.8,13.5,18.6
		c2.5,12.5,4,25.2,3.1,38c-0.9,12.8-1.6,25.7-4.4,38.2c-0.5,2.4-0.2,4.4,1.1,5.8c2.3,2.4,3.5,5.4,4.9,8.3c4.2,8.4,1.7,16.5-6.6,21.2
		c-6.4,3.6-13.4,5.1-20.6,5.9c-9.7,1-19.6,1.4-29.2,3.2c-8.1,1.5-17.5,8.4-21.3,21.1c5.3-2.8,10.3-5.1,15-7.9
		c7.7-4.7,16.3-5.9,24.9-6.5c9.8-0.6,19.6-0.8,29.1-3.5c2.6-0.7,3.1,0.9,4.1,2.2c4.2,5.8,6.6,12.3,8.2,19.2
		c2.2,9.4,4.5,18.9,4.3,28.4c-0.6,25.9-7.9,49.7-24.3,70.5c-10.7,13.5-22.4,25.6-36.9,34.9c-8,5.2-17,7.5-26.1,9
		c-8.9,1.5-17.9,2.9-27,2.1c-5.1-0.5-10.5-0.4-15.2-2.2c-11.8-4.5-14-12.1-5.4-23.3c8.6-11.1,20.2-19.5,27.8-31.6
		c7.1-11.3,12.3-23.2,14.5-36.3c3.4-19.9-5.1-36.4-15.3-52.2c-7.9-12.1-17.8-22.8-26.9-34c-13.7-16.7-26.3-34.2-31.3-55.7
		c-3.6-15.2-1.5-29.5,9.1-41.5c15.8-17.7,35.4-29.2,58.5-34.7c0.3-0.1,0.6,0,1,0.1c2,3.5,4.1,7.1,6.1,10.6c-0.6,3.5-3.9,4.1-6.3,5.5
		c-6.4,3.8-11.5,9-15.8,15c-3.3,4.5-4.3,9.5-3.6,15.2c1.1,9.2,5.1,17.1,9.5,24.9c5.5,9.6,11.9,18.6,19.5,26.7
		c4.8,5,9.3,10.4,14.8,14.7c4.7,3.7,9.8,6.3,15.8,7c5,0.6,9-1.1,11.6-5.5c3.3-5.6,4.6-11.8,4.8-18.2c0.4-16.4-2.4-32.4-7.3-48
		c-2.6-8.4-5.4-16.7-9.8-24.4c-0.8-1.5-1.9-3.1-1.2-5C482.2,204.7,478.8,201.8,472.7,192.4z"/>
	<path class="st2" d="M471.6,215.8c10,17.6,15.7,36.6,18.5,56.4c1.6,11.4,2.8,23.1-1.2,34.5c-4.7,13.5-13,13.6-23.2,9.5
		c-8.4-3.4-14.6-10.2-20.7-16.9c-7.5-8.3-14.5-16.8-20.3-26.3c-6-9.6-11.1-19.6-12.3-31.1c-0.8-7.7,3.2-13.4,7.9-19
		c5.4-6.4,12.7-10.3,19.4-14.9c1,1,1.9,1.9,2.9,2.9c0.3,2.2-1.6,2.6-3,3.3c-4.1,2-7.8,4.6-11.5,7.4c-12.3,9.2-13.1,17.8-8.1,30
		c7.6,18.4,18.4,35.1,32.6,49.4c4.5,4.5,9.6,8.2,15.9,11.7c-11.1-12.4-20.6-25.1-28.2-39.2c-5.2-9.8-10-19.7-11.5-30.9
		c-1.5-11.4,4.2-23.6,18.6-27.6c2.4,1,4.8,2,7.2,3C460.6,220.1,466.1,217.9,471.6,215.8z"/>
	<path class="st3" d="M447.3,214.8c-4.6,3.3-10,5.5-13.4,10.2c-6.4,9.1-4.9,18.9-1.5,28.3c7.1,19.5,18.2,36.8,31.8,52.4
		c2.3,2.6,4.6,5.4,6.7,8.2c-9.5-2.5-16.4-8.8-22.7-15.6c-12-13-21.2-27.8-28.5-43.8c-6.2-13.5-5.6-24.6,7.5-34.1
		c4.9-3.6,10.3-6,15.1-9.5C443.8,212.5,446.3,212.7,447.3,214.8z"/>
	<path class="st4" d="M447.5,183c10.3,1.1,18.2,6,23.7,14.4c1.3,2-0.2,3.9-1.6,5.1c-1.5,1.3-3.5,2.5-5.7,1.1c-0.7-0.4-1.3-1-1.7-1.7
		C457.7,195.4,454,188.2,447.5,183z"/>
	<path class="st2" d="M501.8,203.1c7.9,8.4,10.6,19,11.7,30c1,10.3,2.2,20.6,1.8,30.9c-0.4,11.2-0.5,22.6-2.7,33.7
		c-0.5,2.6-1.3,5.6-4.2,5.8c-3.2,0.3-5.2-2.2-6.3-5.1c-6.5-17.3-11.4-35.1-14-53.4c-1.5-11.1-3.6-22.2-3.8-33.5c0-1.5-0.7-3.3,1-4.5
		c2.9,0.6,5.4,3.5,8.8,1.3c6.1,2.6,7.4,8.3,8.9,13.7c2.8,9.9,3.7,20.1,4.9,30.3c1.7,14,1.5,28-0.2,42c2.2-20.4,4.1-40.7,0.6-61.1
		c-1.5-8.6-2.7-17.4-8.9-24.3c-0.6-0.7-1-1.7-0.6-2.7C499.7,204.8,500.6,203.8,501.8,203.1z"/>
	<path class="st3" d="M498.9,206c9.2,8.7,9.9,20.6,11.7,32c1.5,9.3,1.5,18.8,0.9,28.1c-0.7,9.6-0.3,19.4-2.8,28.9
		c-0.3,1.1-0.3,2.2-1.7,2.9c-1.3-9.8,1.3-19.3,0.7-29c-1-16.1-2.5-32.2-6.2-47.9c-1.2-4.9-3.7-9.3-7.4-12.9
		C496.2,208.5,496.9,205.6,498.9,206z"/>
	<path class="st4" d="M490.4,171c6.9,1.3,15.6,10.8,13.3,17.9c-0.7,2-1,5.2-3.5,5.1c-2.7-0.1-4.5-2.9-4.8-5.4
		c-0.4-3,1.3-6.2-0.4-9.3C493.5,176.7,492,174,490.4,171z"/>
	<path d="M478.5,249.2c0,1.3,0,2.6,0,3.9c-0.2,4.5-4.6,6.9-8.3,4.6c-6.8-4.3-12.9-21.3-9.9-28.9c1.4-3.5,4.1-6.6,7.9-6.9
		c3.4-0.2,5.3,2.8,6.5,6C477.3,234.7,478.2,241.9,478.5,249.2z"/>
	<path d="M493.1,243.2c-2.4-7.6-6.3-15-3.8-23.4c1.5-4.8,3.7-5.2,7.6-1.7c4.8,4.4,5,10.7,5.9,16.5c0.6,3.6,2.1,7.1,0.5,11.2
		c-1.1,2.8-1.8,6.1-4.9,6c-3.1-0.1-4.2-3.4-4.3-6.5c0.3-0.2,0.6-0.2,0.9-0.2c1.4,0.3,2.5,3.2,3.9,1.3c1.4-1.8-0.6-3.6-1.9-4.9
		C494.6,239.2,494.4,242.6,493.1,243.2z"/>
	<path class="st5" d="M493.1,243.2c0.3-1.6-0.5-4.2,1.7-4.5c2.4-0.3,3.7,2.3,4.9,4c1.1,1.5,2.1,3.4,0.6,5.3
		c-0.9,1.2-2.2,1.3-3.4,0.3c-1-0.9-1.9-2.1-2.9-3.1C493,245,493.2,244,493.1,243.2z"/>
	<path class="st2" d="M474.6,234.1c0.1,1.8-0.4,3.2-2.6,3.2c-2.1,0-8.1-5.7-8.1-7.9c0-2.5,1.9-4.1,4.1-4.6
		C470.4,224.1,474.4,230.1,474.6,234.1z"/>
	<path class="st5" d="M473.3,254.8c-3.3,0.2-8.2-4.2-8.4-7c-0.1-2.1,1.2-3.1,3.1-2.5c3.1,1.1,5.4,3.4,6.9,6.4
		C476.2,254.3,474.2,254.4,473.3,254.8z"/>
	<path class="st2" d="M500,227.9c0,1.7,0,3.4-2.3,3.4c-2.4,0-6.7-5.1-6.4-8c0.2-1.8,0.6-4,2.8-4.5C496,218.5,500,224.8,500,227.9z"
		/>
</g>
</svg>
