<?xml version="1.0" encoding="utf-8"?>
<!-- Generator: Adobe Illustrator 23.0.1, SVG Export Plug-In . SVG Version: 6.00 Build 0)  -->
<svg version="1.1" id="Layer_4" xmlns="http://www.w3.org/2000/svg" xmlns:xlink="http://www.w3.org/1999/xlink" x="0px" y="0px"
	 viewBox="0 0 1000 1000" style="enable-background:new 0 0 1000 1000;" xml:space="preserve">
<style type="text/css">
	.st0{fill:#6E3720;}
	.st1{fill:#FB9A7A;}
	.st2{fill:#FEFEFE;}
	.st3{fill:#C0FEFE;}
	.st4{fill:#7F7F7F;}
	.st5{fill:#00407F;}
</style>
<g>
	<path class="st0" d="M502.1,181.6c9.4,5,16.1,12.9,19.2,22.8c5,15.8,6.7,32.3,5.9,48.8c-0.5,9.8-0.8,19.8-3.5,29.4
		c-0.9,3.2,1.1,5.1,2.6,6.7c10.1,11.1,7.9,23,1,35.5c-1.3,2.3-1.7,3.9-0.4,6.4c6.6,12.3,9.6,25.6,9.2,39.5
		c-0.5,19.4-5.8,37.4-16.5,53.9c-5.6,8.7-12,16.7-19.3,23.7c-16.8,16.3-36.9,27.1-59.9,32.3c-11.7,2.6-23.6,3.8-35.4,2.8
		c-16-1.3-31.8-4.4-45.4-13.6c-12.2-8.2-13.8-18.3-6-30.7c6.6-10.4,17.8-15.3,27.6-21.5c11.1-6.9,19.7-16,27.3-26.4
		c4.3-5.9,7.8-12.1,8.4-19.3c0.7-9.1-2.4-17.2-8.9-23.8c-9.8-9.9-20.3-19.1-28.4-30.5c-10.8-15.2-21.6-30.5-26.5-48.9
		c-5.4-19.9-0.7-37.3,13.2-52.4c16.1-17.5,35.7-29.5,58.4-36.6c2.5,2.9,3.1,6.3,3.2,10c-1.8,2.1-4.5,2.6-6.9,3.5
		c-16.7,6.4-31,16.6-44,28.4c-6.7,6.1-11.7,13.9-14.2,23c-2.4,8.4-0.9,16.6,2.2,24.3c9.1,22.6,21.9,42.8,39.3,60
		c4.7,4.7,9.4,9.4,13.8,14.4c11.5,13.1,12.1,27.6,5.8,42.8c-7.1,17-19.4,29.8-34.6,40c-6.9,4.6-14.7,7.8-21.1,13.2
		c-0.4,0.3-0.8,0.6-1.2,0.9c-10.4,8.7-9.3,18.2,3.1,23.7c10.9,4.8,22.5,7.6,34.4,8.5c27.3,2,51.4-6.2,73.6-21.9
		c19.4-13.8,33-32,41.3-53.7c7.1-18.8,8.9-38.4-1.5-57.1c-2.7-4.9-3.2-5.3-8.4-3.6c-8.1,2.6-16.6,3.5-25,4
		c-10.1,0.6-19,3.6-27.2,9.4c-2.4,1.7-4.8,3.4-7.4,4.8c-2.5,1.3-3.7,0.3-3.6-2.3c0.1-2,0.8-3.8,1.8-5.5c5.2-8.6,12.2-14.7,22.5-16.3
		c8.5-1.3,17.1-2.4,25.6-3.6c4-0.6,8-1.5,11.8-2.9c6.6-2.3,10.8-6.9,12.9-13.6c1.2-3.7,0.7-7.1-1.4-10.2c-1.1-1.6-2.2-3.3-3.4-4.8
		c-3-3.8-4-7.8-2.9-12.7c2.4-11.7,3-23.5,3-35.4c0-11.8-2-23.3-4.3-34.8c-1.4-6.9-5.1-12.6-10.3-17.3c-1.3-1.2-2.9-2.1-3.4-4
		C498.5,187.1,498.8,183.7,502.1,181.6z"/>
	<path d="M427.6,189.6c-1.5-3.2-2.5-6.5-2.9-10c1.4-11.6,12.7-12.2,22.6-8.2c3.3,1.3,6.5,3,9.7,4.5c4.3,2,7.6,5.2,10.8,8.6
		c1.6,2.1,3,4.2,3.9,6.7c2.8,7.1-0.3,12.2-5.5,16.6c-7.7,6.5-15.6,4.9-23.5,0.4c-1.5-1.1-2.8-2.4-4.4-3.4c-1.3-1-2.4-2.1-3.5-3.2
		C432.4,197.6,427.6,195,427.6,189.6z"/>
	<path d="M502.1,181.6c-1,3-2,5.9-3,8.9c-0.7,1.9-2.1,3.1-3.4,4.4c-0.9,0.9-1.9,1.7-3,2.4c-1.5,1-3,2-4.6,2.9c-4,2-7.2,0.4-10.1-2.4
		c-3.7-3.8-4.3-9-6.1-13.7c-0.3-2.8-2-5.6-0.1-8.4c0.2-3.6-1.8-7.2-0.7-10.8c2.7-8.9,10.8-9.6,18.3-5.2
		C497.3,164.5,501,172.4,502.1,181.6z"/>
	<path class="st0" d="M471.6,175.7c0.4,2.9,0.8,5.8,1.2,8.7c-1.9,2-3.9,1.3-5.9,0.1c-3.2-3-7.1-5.1-9.8-8.6
		C461.9,175.9,466.7,175.8,471.6,175.7z"/>
	<path class="st1" d="M466.8,184.6c2,0,3.9-0.1,5.9-0.1c2.4,4.1,2.4,9.3,5.9,12.8c2.3,7.2,2,14.7,3.2,22.1
		c3.7,22.4,8.9,44.3,17.2,65.4c0.9,2.3,1.9,4.5,3.7,6.2c2.6,2.4,4.2,2,5.1-1.5c0.8-3.2,0.9-6.5,1.1-9.7c1.9-21.3,2-42.5-3.6-63.4
		c-1.8-6.7-4.1-13-8.8-18.3c-1-1.1-2-2.2-1.6-3.9c1.1-1.6,2.2-3,4-3.9c12.2,8.8,15.1,21.8,16.8,35.7c1.1,9,2,18,1.8,27
		c-0.3,10.5-0.9,21-3.3,31.1c-1.3,5.6,2.2,8.1,4.3,11.5c7.8,12.1,2.3,25.9-11.8,29.5c-11.5,3-23.3,4-35.1,5.7
		c-10.6,1.5-20.9,9.5-24.1,19.7c-0.4,1.2-0.5,2.2-0.1,3.4c4.9-3.1,9.9-5.9,14.6-9.3c5.6-4,11.9-5.4,18.5-5.9
		c10.5-0.9,21.2-1.6,31.2-5.1c3.2-1.1,4.4,0,5.7,2.4c6.3,11.8,9.4,23.9,8.1,37.9c-1.5,16.7-7.5,31.1-16.1,44.8
		c-13.5,21.6-32.4,37.3-56,46.9c-10.2,4.1-21,6.7-32,8c-17.9,2.1-34.6-2.3-51.2-8.2c-3.4-1.2-6.2-3.5-8.8-5.8
		c-3.9-3.5-4.1-8.9-1-14.1c3.2-5.3,7.8-9.1,13.1-11.9c11.2-5.8,21.7-12.6,30.7-21.4c11-10.9,19.9-23.6,21.9-39.2
		c1.2-9.6-0.6-19.3-7.7-27.4c-9.2-10.4-20.2-19.3-28.6-30.5c-9.3-12.5-17.5-25.7-23.8-40.1c-3-6.8-5.5-13.7-5.8-21.2
		c-0.5-11.5,5.1-20.7,12-29.2c8.2-10.1,19.4-16.6,30-23.7c7.8-5.2,16.2-9,25.2-11.5c1.8,4.4,5.5,7.5,8,11.5c-0.3,1.7-1.7,2.3-3,3
		c-8,4.4-14,11-19.4,18.2c-3.1,4.2-4.2,9-2.9,14.3c2.6,11.3,8.3,21.1,14.3,30.8c8.3,13.4,18.9,24.8,31.1,34.7
		c3.8,3.1,7.9,5.6,12.8,6.7c8.3,1.9,14-1.1,16.9-9.1c2.2-6.2,3.1-12.6,2.6-19.2c-1.9-24.5-8.6-47.5-20.9-68.8
		c-0.8-1.4-1.8-2.7-1.3-4.5C474.8,197.5,472.6,194.9,466.8,184.6z"/>
	<path class="st2" d="M465.7,207c11,16.4,17.1,34.9,21,53.9c2.4,11.9,4.2,24,0.7,36.3c-3.4,11.9-12.2,16.4-23.6,11.4
		c-5.3-2.3-9.6-6-13.8-9.7c-11.7-10.3-21.6-22.1-29.4-35.8c-4.9-8.7-9.7-17.3-11.9-27.3c-1.2-5.6,0.1-10.4,3.2-14.5
		c6.4-8.4,13.6-16,23.5-20.4c1,1,2,2,3,3c-0.6,2.1-2.6,2.9-4.2,3.9c-4.7,2.9-8.9,6.5-13.2,10c-5.6,4.7-7.5,10.8-6.4,17.9
		c1,6.5,3.5,12.5,6.7,18.2c9.3,16.8,20.5,32,35.4,44.3c2.5,2.1,5.4,3.5,8.2,5.5c-10.7-12.7-21-25.4-29.3-39.7
		c-4.7-8.1-8.1-16.6-10.6-25.6c-3.2-11.4,1.8-19.9,9.6-27.3c2.1-2,4.3-4.6,7.8-4.3c5.6,2.4,11,5.5,17.6,3.1
		C462.2,209.3,463.6,207.6,465.7,207z"/>
	<path class="st3" d="M442.5,207c-9,5-14.9,12.2-17.1,22.4c-1.2,5.9,1.4,11.1,3.2,16.3c6,18,17.4,32.7,29,47.3
		c3.5,4.4,7.1,8.7,10.2,13.7c-3.5-2.1-7.4-3.8-10.5-6.4c-17.7-14.7-31.5-32.4-40.5-53.7c-8.6-20.3-1.7-25.8,10.8-35.5
		c3.4-2.7,7.3-4.7,11-7.1C440.6,204,441.5,205.6,442.5,207z"/>
	<path class="st4" d="M441.6,174.5c9.5,2.4,16.5,5.9,22,12.1c2.8,3.1,2.3,5.8-0.7,8c-2.9,2.2-5.8,2.6-7.9-1.4
		C451.6,186.8,447.2,181,441.6,174.5z"/>
	<path class="st2" d="M495,194.3c10.8,10.5,12.7,24.4,14.8,38.3c1.4,9,2.6,18,1.7,27c-1,10.7-0.4,21.6-2.7,32.2
		c-0.8,3.9-2.7,3.4-5.2,2.1c-3.5-1.9-4.9-5.6-6.2-9c-7.4-19.6-12.8-39.6-16.1-60.3c-1.4-9.1-3.4-18.1-2.8-27.3
		c2.8,2.6,5.9,3.8,9.6,1.9c3.8,0,5.1,2.9,6.7,5.5c4.6,7.5,5.9,16.1,7.4,24.6c3.5,19,4.8,38.1,3.1,57.4c0.2,0.6,0.8-0.4,0.3,0
		c-0.2,0.1-0.3,0-0.3-0.4c0.6-9.7,1-19.4,1-29.2c0-15.2-2.6-30-6.3-44.7c-1.1-4.3-3-8.2-5.9-11.6c-1-1.2-2.3-2.4-1.9-4.3
		C493.1,195.7,494.1,195,495,194.3z"/>
	<path class="st3" d="M492.2,196.5c9.3,8.3,10.5,20,12.6,31.2c2.1,11.6,4,23.4,2.8,35.2c-0.9,8.7,0.1,17.4-2.8,26c0-2,0-4.1,0-6.1
		c0.6-22.6-1.4-44.9-6.9-66.8c-1.6-6.5-3.9-12.7-9.8-16.8C489.5,198.2,490.9,197.3,492.2,196.5z"/>
	<path class="st4" d="M483,162.2c10.5,3.3,15.4,12.4,12.1,21c-1.1,2.8-2.2,2.9-4,0.9c-1.9-2.1-3.8-4.2-2.3-7.2
		c1.1-2.2-0.5-3.6-1.3-5.3C486.2,168.6,484.8,165.8,483,162.2z"/>
	<path d="M474.9,236.9c-1.4,3.8-0.3,9.5-5.2,10.8c-4.6,1.3-7.5-3.1-9.6-6.5c-4.2-6.7-7.2-13.9-5-22.1c1-3.6,3.4-6.5,6.9-7
		c3.3-0.5,5.1,2.4,6.7,5.1C472.3,223.3,473.1,230.2,474.9,236.9z"/>
	<path d="M498.1,229.6c-0.2,3.4-0.1,5.5-0.9,7.7c-0.7,2-1.5,3.5-3.6,3.8c-2.5,0.4-3.5-1.4-4.5-3.4c-3-5.9-4.4-12.3-5.6-18.8
		c-0.5-2.8-1.7-5.5-1.1-8.5c0.5-2.3,1.5-4.4,3.6-5.3c2.1-0.9,3.1,1.3,4.3,2.4C496.8,214,497.6,222.4,498.1,229.6z"/>
	<path class="st2" d="M462.8,214.8c2.3,1,4.1,3.1,5.4,5.1c1.1,1.6,2.2,3.9,1.3,6.3c-0.1,0.3-0.4,0.5-0.6,0.7
		c-2.4,1.6-3.9-0.8-5.4-1.6c-2.6-1.5-5.3-3.7-5.2-6.9C458.3,216.6,460.9,215.8,462.8,214.8z"/>
	<path class="st5" d="M470.3,244.2c0,0-0.5,0.4-1.1,0.6c-2.3,0.9-4.1-0.2-5.7-1.6c-1.9-1.6-3.6-3.4-3.3-6.1c0.1-0.6,0.9-1.4,1.6-1.6
		C464.2,234.7,471,240.9,470.3,244.2z"/>
	<path class="st2" d="M486.8,208.1c2.4-0.3,3.2,0.9,3.9,1.9c1,1.4,1.7,3,2.4,4.6c0.8,1.8,2.3,4.1-0.1,5.5c-2.1,1.3-3.6-0.9-5.1-2.2
		c-2.2-2-2.9-4.5-2.6-7.3C485.5,209.1,486.1,208.2,486.8,208.1z"/>
	<path class="st5" d="M488.3,231.1c0-1.5,0-3.1,1.9-3.4c1.6-0.2,5.7,5.3,5.8,7.7c0.1,1.9-1.1,3.1-2.7,3.5
		C491.5,239.4,488.3,234.4,488.3,231.1z"/>
</g>
</svg>
