<?xml version="1.0" encoding="utf-8"?>
<!-- Generator: Adobe Illustrator 23.0.1, SVG Export Plug-In . SVG Version: 6.00 Build 0)  -->
<svg version="1.1" id="Layer_4" xmlns="http://www.w3.org/2000/svg" xmlns:xlink="http://www.w3.org/1999/xlink" x="0px" y="0px"
	 viewBox="0 0 1000 1000" style="enable-background:new 0 0 1000 1000;" xml:space="preserve">
<style type="text/css">
	.st0{fill:#6E3720;}
	.st1{fill:#FB9A7A;}
	.st2{fill:#FEFEFE;}
	.st3{fill:#C0FEFE;}
	.st4{fill:#7F7F7F;}
	.st5{fill:#00407F;}
</style>
<g>
	<path class="st0" d="M502.1,178.6c9.4,5,16.1,12.9,19.2,22.8c5,15.8,6.7,32.3,5.9,48.8c-0.5,9.8-0.8,19.8-3.5,29.4
		c-0.9,3.2,1,5.1,2.6,6.7c10.2,11.1,7.8,23.1,1,35.5c-1.3,2.3-1.7,3.9-0.4,6.4c7.7,14.5,10.2,30.2,9.2,46.3
		c-1.2,20-9.2,37.5-21.1,53.6c-16.4,22.3-39,35.8-64.2,45.1c-7.9,2.9-16.6,4.2-25.3,4.4c-5.6,0.1-11.2,1.2-16.9,1.1
		c-18.6-0.2-35.6-5.8-51.5-15c-5.8-3.4-11-8.1-14.1-14.2c-3.1-6-0.4-11.7,2.5-17.1c4.2-7.8,10.9-12.6,18.7-16.4
		c13-6.3,26-12.8,36.3-23.2c4.8-4.8,9.2-10.1,12.4-16.3c5.7-11.1,4-22.2-4.6-31.1c-8.1-8.4-16.7-16.3-24.2-25.2
		c-7.8-9.3-13.9-19.6-20.3-29.9c-7.3-11.6-11.5-24.3-13.1-37.7c-1-8.4,1.9-16.3,5.2-24c6.1-14,17.2-23.5,29.2-32.1
		c12.1-8.7,25.1-15.8,39.5-19.9c2.5,2.9,3.1,6.3,3.3,10c-1.8,2.1-4.5,2.6-6.9,3.5c-16.7,6.4-30.9,16.7-44,28.4
		c-5.9,5.2-10.2,12.2-13.1,19.8c-3.7,9.4-2.4,18.7,1.2,27.6c9.1,22.6,21.9,42.8,39.3,60c5.3,5.3,10.8,10.4,15.4,16.4
		c8.7,11.2,10.9,23.4,4.6,36.4c-8.8,18.3-22.5,31.7-40.6,40.7c-6,3-11.9,6-17.9,8.9c-1,0.5-2.1,1-3,1.5c-5.1,2.8-9.3,6.9-9.4,12.8
		c-0.1,5.6,4.9,8.6,9.2,11.1c18.8,10.6,38.6,15.6,60.4,12.8c26.8-3.4,49.9-14.1,69-33.2c11.3-11.3,21.9-23.4,27-39
		c6.4-19.4,9.7-38.9-1.3-58.1c-1.3-2.3-2.4-5-5.8-4c-11.1,3.5-22.7,4.2-34.1,5.4c-5.7,0.6-10.7,2.6-15.4,5.6
		c-3.5,2.1-6.8,4.5-10.3,6.6c-1.5,0.9-3.3,3-5.1,1.2c-1.6-1.5-0.6-3.8,0.2-5.5c4.5-9.5,11.4-16.2,22-18.3c5.1-1,10.3-1.6,15.4-2.3
		c7.1-1,14.2-1.7,21.1-3.7c4.1-1.2,8.1-2.8,10.8-6.3c5.6-7.1,7.4-13.9,1.3-20.7c-4.9-5.4-5.5-11.4-4.1-18.5
		c4.2-22.2,3.1-44.3-1.6-66.3c-1.5-7.1-5.1-13-10.5-17.8c-1.3-1.2-2.9-2.1-3.4-4C498.5,184.2,498.8,180.8,502.1,178.6z"/>
	<path d="M427.6,186.6c-1.5-3.2-2.5-6.5-2.9-10c1.4-11.6,12.7-12.2,22.6-8.2c3.3,1.3,6.5,3,9.7,4.5c4.3,2,7.6,5.2,10.8,8.6
		c1.6,2.1,3,4.2,3.9,6.7c2.8,7.1-0.3,12.2-5.5,16.6c-7.7,6.5-15.6,4.9-23.5,0.4c-1.5-1.1-2.8-2.4-4.4-3.4c-1.3-1-2.4-2.1-3.5-3.2
		C432.4,194.6,427.6,192.1,427.6,186.6z"/>
	<path d="M502.1,178.6c-1,3-2,5.9-3,8.9c-0.7,1.9-2.1,3.1-3.4,4.4c-0.9,0.9-1.9,1.7-3,2.4c-1.5,1-3,2-4.6,2.9c-4,2-7.2,0.4-10.1-2.4
		c-3.7-3.8-4.3-9-6.1-13.7c-0.3-2.8-2-5.6-0.1-8.4c0.2-3.6-1.8-7.2-0.7-10.8c2.7-8.9,10.8-9.6,18.3-5.2
		C497.3,161.6,501,169.4,502.1,178.6z"/>
	<path class="st0" d="M471.6,172.8c0.4,2.9,0.8,5.8,1.2,8.7c-1.9,2-3.9,1.3-5.9,0.1c-3.2-3-7.1-5.1-9.8-8.6
		C461.9,172.9,466.7,172.9,471.6,172.8z"/>
	<path class="st1" d="M466.8,181.7c2,0,3.9-0.1,5.9-0.1c2.4,4.1,2.4,9.3,5.9,12.8c2.3,7.2,2,14.7,3.2,22.1
		c3.7,22.4,8.9,44.3,17.2,65.4c0.9,2.3,1.9,4.5,3.7,6.2c2.6,2.4,4.2,2,5.1-1.5c0.8-3.2,0.9-6.5,1.1-9.7c1.9-21.3,2-42.5-3.6-63.4
		c-1.8-6.7-4.1-13-8.8-18.3c-1-1.1-2-2.2-1.6-3.9c1.1-1.6,2.2-3,4-3.9c12.2,8.8,15,21.8,16.8,35.7c1.3,9.8,2.2,19.6,1.7,29.4
		c-0.5,9.9-1,19.9-3.4,29.6c-0.5,2.2,0,3.8,0.9,5.5c1.2,2.1,2.6,4.1,4,6c6.5,9.1,3.9,20.5-6,25.9c-6.5,3.5-13.6,4.4-20.7,5.6
		c-10.5,1.8-21.7,0.9-31.3,6.5c-7.2,4.2-12.7,10.3-13.8,19.7c5.5-3.5,10.5-6.6,15.5-9.9c5.7-3.8,12-5.1,18.6-5.7
		c10.2-0.9,20.5-1.4,30.3-5c3.5-1.3,4.9-0.1,6.5,2.7c7.4,13.4,10.2,27.2,6.9,42.7c-2.1,10-4.2,19.7-9.1,28.7
		c-4,7.2-8.5,13.9-14.2,20c-6.6,7.1-13.2,14.1-20.9,20c-9.7,7.4-20.4,12.7-31.7,17c-9.4,3.5-19.2,4.7-29.1,6
		c-21.5,2.9-40.6-3.5-59-13.6c-3.4-1.8-5.8-4.7-8.1-7.6c-2.5-3.2-1.3-7.9,2.7-12.7c1.9-2.2,4.1-4,6.8-5.4
		c9.9-5.1,20.2-9.3,29.6-15.3c14.8-9.4,26.2-22.1,32.7-38.3c4.4-11,2.4-22.1-5.2-31.1c-8.9-10.5-19-19.9-28-30.3
		c-7.8-9-13.9-19.2-19.4-29.8c-4.5-8.7-8.8-17.3-10.8-27.1c-2.5-12,1.8-21.7,8.3-31c9.3-13.5,23.4-21.2,36.6-29.8
		c6.6-4.3,14-7,21.5-9.2c1.8,4.4,5.5,7.5,8,11.5c-0.3,1.7-1.7,2.3-3,3c-8,4.4-14,11-19.4,18.2c-3.1,4.2-4.2,9-2.9,14.3
		c2.6,11.3,8.3,21.1,14.3,30.8c8.3,13.4,18.9,24.8,31.1,34.7c3.8,3.1,7.9,5.6,12.8,6.7c8.3,1.9,14-1.1,16.9-9.1
		c2.2-6.2,3.1-12.6,2.6-19.2c-1.9-24.5-8.6-47.5-20.9-68.8c-0.8-1.4-1.8-2.7-1.3-4.5C474.8,194.6,472.6,192,466.8,181.7z"/>
	<path class="st2" d="M465.7,204.1c11,16.4,17.1,34.9,21,53.9c2.4,11.9,4.2,24,0.7,36.3c-3.4,11.9-12.2,16.4-23.6,11.4
		c-5.3-2.3-9.6-6-13.8-9.7c-11.7-10.3-21.6-22.1-29.4-35.8c-4.9-8.7-9.7-17.3-11.9-27.3c-1.2-5.6,0.1-10.4,3.2-14.5
		c6.4-8.4,13.6-16,23.5-20.4c1,1,2,2,3,3c-0.6,2.1-2.6,2.9-4.2,3.9c-4.7,2.9-8.9,6.5-13.2,10c-5.6,4.7-7.5,10.8-6.4,17.9
		c1,6.5,3.5,12.5,6.7,18.2c9.3,16.8,20.5,32,35.4,44.3c2.5,2.1,5.4,3.5,8.2,5.5c-10.7-12.7-21-25.4-29.3-39.7
		c-4.7-8.1-8.1-16.6-10.6-25.6c-3.2-11.4,1.8-19.9,9.6-27.3c2.1-2,4.3-4.6,7.8-4.3c5.6,2.4,11,5.5,17.6,3.1
		C462.2,206.4,463.6,204.7,465.7,204.1z"/>
	<path class="st3" d="M442.5,204c-9,5-14.9,12.2-17.1,22.4c-1.2,5.9,1.4,11.1,3.2,16.3c6,18,17.4,32.7,29,47.3
		c3.5,4.4,7.1,8.7,10.2,13.7c-3.5-2.1-7.4-3.8-10.5-6.4c-17.7-14.7-31.5-32.4-40.5-53.7c-8.6-20.3-1.7-25.8,10.8-35.5
		c3.4-2.7,7.3-4.7,11-7.1C440.6,201.1,441.5,202.6,442.5,204z"/>
	<path class="st4" d="M442.6,172.5c8.4,1.5,15.4,4.9,20.9,11.1c2.7,3,2.6,5.6-0.4,8.1c-3.2,2.7-5.6,2.3-8.1-1.6
		C451.2,184,447.6,177.8,442.6,172.5z"/>
	<path class="st2" d="M495,191.4c10.8,10.5,12.7,24.4,14.8,38.3c1.4,9,2.6,18,1.7,27c-1,10.7-0.4,21.6-2.7,32.2
		c-0.8,3.9-2.7,3.4-5.2,2.1c-3.5-1.9-4.9-5.6-6.2-9c-7.4-19.6-12.8-39.6-16.1-60.3c-1.4-9.1-3.4-18.1-2.8-27.3
		c2.8,2.6,5.9,3.8,9.6,1.9c3.8,0,5.1,2.9,6.7,5.5c4.6,7.5,5.9,16.1,7.4,24.6c3.5,19,4.8,38.1,3.1,57.4c0.2,0.6,0.8-0.4,0.3,0
		c-0.2,0.1-0.3,0-0.3-0.4c0.6-9.7,1-19.4,1-29.2c0-15.2-2.6-30-6.3-44.7c-1.1-4.3-3-8.2-5.9-11.6c-1-1.2-2.3-2.4-1.9-4.3
		C493.1,192.8,494.1,192.1,495,191.4z"/>
	<path class="st3" d="M492.2,193.5c9.3,8.3,10.5,20,12.6,31.2c2.1,11.6,4,23.4,2.8,35.2c-0.9,8.7,0.1,17.4-2.8,26c0-2,0-4.1,0-6.1
		c0.6-22.6-1.4-44.9-6.9-66.8c-1.6-6.5-3.9-12.7-9.8-16.8C489.5,195.3,490.9,194.4,492.2,193.5z"/>
	<path class="st4" d="M483,159.3c10.5,3.2,15.5,12.3,12.2,20.9c-1.1,2.7-2.1,2.9-4,0.9c-1.5-1.5-3.4-3.4-2.7-5.3
		c1.6-4.2-1-7-2.3-10.2C485.3,163.6,484.3,161.8,483,159.3z"/>
	<path d="M474.9,233.6c-1.2,4.2-0.4,9.7-5,11.2c-4.8,1.5-7.6-3.1-9.9-6.7c-4.3-6.7-7.1-13.9-4.9-22.1c0.9-3.4,3.3-6.2,6.7-6.8
		c3.4-0.7,5.1,2.3,6.8,4.9C472.4,220.1,472.9,227,474.9,233.6z"/>
	<path d="M498.1,227.5c-0.2,2.6,0.1,5.1-1,7.5c-0.8,1.7-1.6,3-3.6,3.3c-2.2,0.3-3.4-1.1-4.1-2.7c-3-6.2-4.8-12.9-5.8-19.6
		c-0.4-2.6-1.6-5.2-1.1-8c0.5-2.5,1.5-4.7,3.8-5.7c2.1-0.9,3.1,1.4,4.3,2.5C496.7,211.1,497.4,219.3,498.1,227.5z"/>
	<path class="st2" d="M469.8,221.9c-0.4,1.7-0.3,3.6-3.5,2c-2.5-1.3-4.7-2.7-6.4-4.8c-1.2-1.5-2.9-3.2-0.4-5.2c2.1-1.6,3.7-2.5,6,0
		C467.5,216.1,469.4,218.3,469.8,221.9z"/>
	<path class="st5" d="M462,232.5c2.8,0,8.3,5.1,8.5,7.3c0.1,1.7-1,2.2-2.4,2.3c-2.8,0.2-7.7-4-7.9-6.8
		C459.9,233.5,460.9,232.7,462,232.5z"/>
	<path class="st2" d="M487.9,205.1c3.3,1,3.7,4.4,5.2,6.9c0.9,1.5,1.7,3.2,0.5,4.9c-0.3,0.5-1.2,1-1.5,0.9c-2.5-1.1-4.7-2.5-5.9-5.2
		c-1-2.2-1.2-4.3-0.3-6.4C486.1,205.4,486.9,204.9,487.9,205.1z"/>
	<path class="st5" d="M490.1,224.8c2.6,0.2,6.7,7.5,5.5,9.4c-0.8,1.2-1.8,3-3.8,1.3c-2.6-2.2-3.6-5.1-3.5-8.5
		C488.4,225.7,489.3,225.1,490.1,224.8z"/>
</g>
</svg>
