<?xml version="1.0" encoding="utf-8"?>
<!-- Generator: Adobe Illustrator 23.0.1, SVG Export Plug-In . SVG Version: 6.00 Build 0)  -->
<svg version="1.1" id="Layer_4" xmlns="http://www.w3.org/2000/svg" xmlns:xlink="http://www.w3.org/1999/xlink" x="0px" y="0px"
	 viewBox="0 0 1000 1000" style="enable-background:new 0 0 1000 1000;" xml:space="preserve">
<style type="text/css">
	.st0{fill:#6E3720;}
	.st1{fill:#FB9A7A;}
	.st2{fill:#FEFEFE;}
	.st3{fill:#C0FEFE;}
	.st4{fill:#808080;}
	.st5{fill:#7F7F7F;}
	.st6{fill:#00407F;}
</style>
<g>
	<path class="st0" d="M508.9,181.6c11.6,6.2,17.4,16.6,19.3,29c2,13.2,2.6,26.4,1.4,39.8c-1.1,11.5-2.2,22.8-4.8,34
		c-0.4,1.8,0.7,3,1.6,4.2c10.4,13.4,10.6,23.3,0.6,36.6c-2,2.7-2.8,4.8-0.8,8.5c6.1,11.5,8.2,24.1,9.2,37.1
		c1.5,18.3-0.7,35.8-6.9,53c-3.5,9.6-9.7,17.3-15.8,25.2c-5.8,7.5-12.7,13.7-19.9,19.6c-8.4,6.9-18.1,12-28.4,15.9
		c-11.5,4.3-23.1,7.6-35.5,8c-8,0.2-15.9,2-24,1.7c-10-0.3-19.9-2.2-27.9-8.1c-7.4-5.5-12-12.8-5.8-25.6
		c4.8-9.9,11.7-17.9,20.8-23.9c16.2-10.7,23.6-26.3,26.2-44.8c2.9-20.7-4.3-38.4-17.3-54c-12.7-15.1-24-31.2-33-48.8
		c-6.3-12.4-9.9-25.6-11.1-39.5c-1.1-13.4,5-24.2,12.8-34.4c8.5-11.2,20.4-18.1,31.8-25.6c8.9-5.9,19.4-8.2,29.3-11.8
		c0.7-0.3,1.4-0.7,2.1-1c2,2.7,2.5,5.7,2.3,8.9c-5.7,3.6-12.3,4.8-18.3,7.6c-12.9,6.1-25.1,13.1-35.5,23
		c-9.1,8.6-14.5,19.4-15.2,31.8c-0.5,9.2,3.2,17.9,6.7,26.3c8.6,20.7,21.5,38.5,35.7,55.6c8.1,9.7,15.1,20.2,18.7,32.8
		c5.3,18.6,2.7,36.4-4.5,53.8c-5.3,12.8-13.3,23.4-25.1,30.9c-5.6,3.5-10,8.2-14,13.4c-6.5,8.4-4.9,15.5,5,19.2
		c8.9,3.3,18.2,4.9,27.8,3.4c5.1-0.8,10.3-1.3,15.5-2.1c23.3-3.5,43.8-12.4,61.1-28.9c9.2-8.8,16.9-18.5,22.8-29.6
		c8.2-15.5,9.5-32.3,8.2-49.4c-0.8-11.2-2.9-22.3-7-32.8c-2.2-5.6-2.2-5.8-8-4.6c-11.2,2.3-22.6,2.3-33.9,3.7
		c-8.2,1-15.8,3.8-22.7,8.3c-0.8,0.5-1.7,1.1-2.5,1.5c-1.4,0.6-3,2-4.4,0.5c-1.3-1.3-0.6-3.1,0-4.6c2.4-5.8,6.4-10.1,11.7-13.3
		c6.7-4,14.1-4.6,21.6-5.4c9.2-0.9,18.5-1.2,27.6-3.1c7.7-1.6,13.1-6.2,16.4-13.3c1.5-3.2,1.9-6.5-0.6-9.1
		c-7.9-8.2-6.8-17.3-4.7-27.6c2.8-13.3,3.8-27,2.5-40.7c-0.7-7.5-1.4-14.9-2.7-22.3c-1.1-6.8-3.6-12.8-9.4-17c-1.1-0.8-2-1.7-2.3-3
		C505.1,187.1,506.6,184.2,508.9,181.6z"/>
	<path d="M434.5,185.7c-1.1-2.9-2.1-5.8-2-9c0.7-9.3,6.2-12.9,16.7-10.6c5.3,1.2,10.3,3.4,14.7,6.9c4.8,1.1,7.2,5,10.1,8.3
		c1.4,1.8,3,3.4,4.1,5.4c4,7.1,3,12.3-3.5,17.3c-0.9,0.7-1.8,1.3-2.8,1.9c-7.3,4.1-14.6,4.4-22,0.2c-2.2-1.4-3.9-3.5-5.8-5.2
		c-0.8-0.8-1.6-1.6-2.4-2.4C438.8,194.4,434.8,191.1,434.5,185.7z"/>
	<path d="M508.9,181.6c0.2,3.4-2.8,5.7-3,8.9c-0.6,1.7-1.8,2.8-3.3,3.8c-1.3,0.8-2.3,1.9-3.5,2.7c-1.4,0.8-2.8,1.5-4.2,2.2
		c-4.1,2-7.2-0.3-10.2-2.5c-4.1-3.9-3.9-9.4-5-14.3c-0.3-2.9-1-5.7-0.1-8.6c0.7-4.4-0.8-8.9,1.3-13.2c2-4.2,5.2-5.8,9.6-5.2
		c11.3,1.5,19.4,15.1,19.4,24.1C509.7,180.1,509.2,180.8,508.9,181.6z"/>
	<path class="st0" d="M479.4,173.7c1.9,2.7,0.7,5.8,1.2,8.7c-2.8,2.4-5.3,0.3-7.8-0.7c-2.5-3.4-5.5-6.2-8.9-8.7
		C469.1,172.1,474.2,173.7,479.4,173.7z"/>
	<path class="st1" d="M472.8,181.7c2.7-0.8,5.1,1.6,7.8,0.7c1.9,4.5,0.9,10,4.9,13.8c0.5,1,1.1,2.1,0.9,3.2
		c-1.7,11,1.3,21.6,2.6,32.3c1.9,15.3,5.4,30.4,9.4,45.3c1.1,4.3,2.9,8.3,5.4,11.9c1,1.4,2.2,3.2,4.2,3c2.2-0.3,2.1-2.6,2.4-4.3
		c1.4-6.9,1.9-13.8,2.4-20.8c1.3-17.8,2.3-35.6-1.8-53.3c-1.4-6.1-3.6-11.8-7.7-16.6c-0.8-1-1.7-2-1.3-3.5c1.3-1,2.6-2,3.9-3.1
		c10.4,6.8,12.4,17.5,13.7,28.7c0.9,7.8,2,15.7,1.8,23.6c-0.4,14.5-1.5,28.9-5.2,43c-0.7,2.6-0.2,4.4,1,6.3c1.3,2,2.7,4,4,6
		c5.3,7.8,3.5,16.6-4.3,22.2c-5,3.6-10.6,5.2-16.5,5.9c-11.8,1.4-23.8,1.4-35.4,4c-9.1,2-18.8,10.3-19.5,20.1
		c5.8-2.6,10.6-6.6,16.5-8.6c6.1-2.1,12.3-3.4,18.7-3.8c10.6-0.7,21.2-1.1,31.5-3.9c2.2-0.6,3.1,0,4,1.9c3.6,8.3,6,16.8,7.4,25.7
		c1.3,8.5,2.2,17,1.9,25.5c-0.8,18-5.6,34.4-16.5,49.3c-8.5,11.7-18.8,21.4-30.3,29.4c-11.4,7.9-24.7,13.1-38.5,15.5
		c-11.1,2-22.1,4.3-33.4,3.9c-7-0.3-14-1.6-20.5-4.6c-10.1-4.8-10.3-11.6-3.6-20.8c4.9-6.7,11.3-11.8,18.2-16.3
		c11.2-7.4,17-18.7,22-30.5c4-9.4,5.6-19.4,5.9-29.6c0.4-16.6-5.4-31.5-15.2-44.7c-7.2-9.7-15.5-18.5-22.2-28.5
		c-12.2-17.9-23.1-36.8-26.6-58.6c-1.4-8.6,2-16.8,6.3-24.3c10-17.6,27.2-26.4,44.3-34.9c6.1-3,12.4-5.9,19.4-6.9
		c2.7,4.1,5.3,8.3,8,12.4c-1.2,2.2-3.6,2.7-5.5,3.8c-6.8,3.7-12.8,8.2-17.4,14.6c-3.3,4.6-4.6,9.6-4.1,15.2
		c0.9,8.5,3.5,16.5,7.8,23.9c8,13.5,16.9,26.3,27.7,37.6c5.3,5.5,10.6,11.6,18.8,13.3c8.9,1.9,15.4-1.8,17.8-10.7
		c2-7.7,2.8-15.7,2.2-23.7c-1.3-17.6-4.8-34.7-11.4-51.2c-1.5-3.6-3.2-7.1-5.2-10.4c-1-1.6-2.3-3.2-1.6-5.4c2-2.8,5.7-3.7,7-7.4
		c1.9-5.3-0.8-9.1-3.4-13C474.5,183.6,473.6,182.7,472.8,181.7z"/>
	<path class="st2" d="M471.6,205.1c9.7,14.5,14.1,31,17.3,47.7c2.6,13.5,3.6,27.4,0.6,41.3c-3.7,17-18.6,17.9-29.1,9.4
		c-17.7-14.3-30.4-32.7-40.9-52.6c-4.6-8.7-7.4-18.4-4.3-28.4c3-9.6,10.7-15.4,19-20.3c2.6-1.6,5.5-2.6,8.3-3.9c0.7,0.7,1.3,1.4,2,2
		c-3.8,3.6-9.2,4.8-12.8,8.7c-1.4,1.5-3.2,2.7-4.7,4.3c-5.7,5.9-9.1,12.4-6.8,21.1c1.2,4.7,2.5,9.4,4.6,13.8
		c10.2,21.1,23.1,40,43.2,54.4c-10.2-10.6-17.7-22-24.6-33.8c-6.9-11.9-11.5-24.8-13.6-38.4c-1.8-12,7.9-24.3,19.6-25.2
		C456.7,208.7,464.1,208.8,471.6,205.1z"/>
	<path class="st3" d="M449.3,205c-1.3,0.7-2.6,1.4-3.9,2c-13,5.4-16.5,16-13.5,28.9c5.1,21.6,15.7,40.2,29.6,57.2
		c2.9,3.6,5.8,7.3,9.4,11.8c-6.2-2.1-10-6-13.8-9.4c-16.3-14.7-27.7-32.8-36.1-52.9c-6-14.3-2.7-25.2,10-34.8
		c4.2-3.2,8.4-6,13.4-7.6C446.3,201.5,447.9,203.1,449.3,205z"/>
	<path class="st4" d="M449.6,172.4c9,0.8,15.8,5.3,21.2,12c2.1,2.6,3,5.4-0.6,7.8c-3.4,2.2-6.6,1.7-8.4-2
		C458.7,183.7,455.5,177.2,449.6,172.4z"/>
	<path class="st2" d="M501.9,193.5c9.7,9.5,11,22,12.8,34.5c1.7,11.8,0.4,23.6-0.3,35.3c-0.5,9.4-1.1,18.9-3.4,28.2
		c-1.1,4.2-2.9,3.7-5.3,1.7c-4.8-3.8-7-9.4-8.5-14.9c-5-18.9-9-38-11.1-57.6c-0.9-8.2-2.4-16.2-0.7-24.4c3,1.6,5.8,4,9.6,1.9
		c3.2,1.3,4.1,4.4,5.5,7.1c4.3,8.4,5.2,17.7,6.4,26.9c1.6,12.1,2.6,24.2,2.3,36.4c-0.1,6.2-2,12.3-1.7,17.4
		c1.3-12.6,3.1-26.4,2.7-40.2c-0.3-11.4-1.7-22.7-3.9-33.8c-0.8-4.1-2.9-7.6-5.1-11c-0.9-1.5-2.2-2.8-2.4-4.7
		C499.7,195.1,500.5,193.9,501.9,193.5z"/>
	<path class="st3" d="M498.9,196.2c5.9,5.1,8.6,12,9.8,19.5c2,13.6,3.9,27.3,2.9,41c-0.7,10.8-1.1,21.8-4.5,32.3
		c-0.5-11.2,1.7-22.3,0.6-33.4c-1.5-16.2-1.8-32.6-7.7-48.1c-1.3-3.4-3.5-6.2-5-9.4C496.1,197,497.4,196.4,498.9,196.2z"/>
	<path class="st5" d="M490.6,160.4c10.2,1.8,14.3,10.3,13.3,19.2c-0.3,2.3-0.7,5.1-4,4.9c-2.9-0.1-3.3-2.6-3.7-4.8
		c-0.6-3.3-0.7-6.7-1.6-9.8C493.6,166.7,492,163.7,490.6,160.4z"/>
	<path d="M479.5,236c0,0.3,0,0.6,0,1c0.2,3.7,0.1,8-3.9,8.8c-4,0.9-7.8-1.8-9.7-5.5c-3.8-7.7-6-15.8-3.9-24.5
		c0.8-3.1,2.9-5.4,6.3-5.7c2.9-0.3,4.9,1.4,6.4,4C478.7,220.9,478.7,228.5,479.5,236z"/>
	<path d="M491.2,230.6c-1.6-6.5-3.2-12.9-4.9-19.3c-0.4-1.4,0.9-2.3,1-3.6c0.3-2.3,2-3.9,3.9-4.4c2.4-0.6,3.7,1.8,4.7,3.5
		c3.2,5.5,3.9,11.8,5.1,17.9c0.6,3.2,1.5,6.4,0,9.6c-1,2-1.6,4.7-4.1,4.8c-2.7,0.1-3.7-2.4-5-4.4c-0.9-1.4-0.4-2.8-0.7-4.2
		c2.3-0.6,2.3,1.7,3.4,2.7c0.7,0.6,1.5,1.5,2.4,0.8c0.9-0.7,0.4-1.8,0-2.7C495.7,228.3,494.1,228.2,491.2,230.6z"/>
	<path class="st2" d="M475.6,221.7c0,1.8,0.1,3.7-2.4,3.9c-2.6,0.1-8.7-5.7-8.2-8.3c0.4-2.3,2-4.1,4.5-4.3
		C471.8,212.8,475.6,218.4,475.6,221.7z"/>
	<path class="st6" d="M475.5,240.9c0,1-0.6,2-2.1,2.2c-2.3,0.4-7.1-4-7.4-6.7c-0.2-1.8,0.7-2.7,2.4-2.9
		C470.6,233.2,475.3,237.8,475.5,240.9z"/>
	<path class="st2" d="M495.4,218.9c-2.9-1.3-4-4.1-5.6-6.7c-1.4-2.3,0.3-3.5,0.9-5.2c0.1-0.4,0.8-0.9,1-0.9c2.8,0.7,4.3,2.9,4.9,5.3
		c0.6,2.2,3.1,4.6,0.1,6.9C496.5,218.6,496,218.7,495.4,218.9z"/>
	<path class="st6" d="M491.2,230.6c0-1.6-0.1-3.7,2-3.8c2.8-0.2,4,2.2,5.1,4.4c0.8,1.5,1.2,3.1-0.2,4.4c-1.3,1.3-2.6,0.6-3.8-0.5
		c-1.5-1.3-1.4-3.6-3.3-4.6C491.1,230.5,491.2,230.6,491.2,230.6z"/>
</g>
</svg>
