<?xml version="1.0" encoding="utf-8"?>
<!-- Generator: Adobe Illustrator 23.0.1, SVG Export Plug-In . SVG Version: 6.00 Build 0)  -->
<svg version="1.1" id="Layer_4" xmlns="http://www.w3.org/2000/svg" xmlns:xlink="http://www.w3.org/1999/xlink" x="0px" y="0px"
	 viewBox="0 0 1000 1000" style="enable-background:new 0 0 1000 1000;" xml:space="preserve">
<style type="text/css">
	.st0{fill:#6E3720;}
	.st1{fill:#FB9A7A;}
	.st2{fill:#FEFEFE;}
	.st3{fill:#C0FEFE;}
	.st4{fill:#7F7F7F;}
	.st5{fill:#00407F;}
	.st6{fill:#004080;}
</style>
<g>
	<path class="st0" d="M535.2,189.4c9.5,5.9,14.7,14.7,14.5,25.7c-0.3,20.3-1.9,40.5-7.8,60.1c-1.7,5.6-4.2,10.9-6.6,16.2
		c-0.9,1.9-0.9,3.5,0.2,5.2c1.3,2.2,2.3,4.6,3.6,6.7c4.4,7.4,4.3,15.6-1.4,21.1c-7.4,7.1-4.9,13.6-2.6,21.2
		c4.4,14.5,6,29.6,4.9,44.7c-1.5,20.5-5.9,40.4-16.3,58.6c-4.7,8.2-10.1,15.7-16.1,22.9c-7.2,8.7-15.7,15.8-24.7,22
		c-12,8.4-25.4,14.5-40.3,17c-9.8,1.7-19.7,3.3-29.6,2.7c-7.3-0.5-14.4-2.3-19.3-8.7c-6.4-8.3-3.7-16.8-0.6-25.2
		c3.2-8.4,9.3-15.1,14.5-22.2c8.7-11.8,13.9-25.1,17.2-39.2c2.5-10.5,3.4-21.2,3-32c-0.8-19.3-6.9-36.9-17.8-52.9
		c-13.2-19.3-23.2-40.4-31.4-62.1c-3.3-8.8-3.5-18.7-4.8-28.2c-1.4-10.3,0.5-19.8,5.9-28.2c6.4-10,14.7-18.5,25.4-24.4
		c14.2-7.9,28.9-14.1,45.3-15.8c3.2-0.3,6.4-0.6,9.5-0.9c1.9,2.3,2.3,4.9,1.5,7.8c-1.8,2-4.3,2.1-6.7,2.5
		c-11.5,1.7-22.9,3.7-33.3,8.9c-11.7,5.8-22.9,12.2-30.6,23.5c-5.3,7.8-7.2,16.3-6.6,25.5c1.2,17.2,5.5,33.6,13.5,49
		c7.7,14.7,15.2,29.5,24.4,43.3c14.2,21.4,17.2,45.2,15,70.1c-0.6,6.3-1.1,12.6-2.3,18.9c-3.5,17.6-11.9,32.9-22.4,47.2
		c-3.6,5-7.6,9.8-9.9,15.6c-3.8,9.4-1,14.6,8.9,16.7c9.8,2.1,19.5,0.2,29-2c25-5.9,44.9-20,60.9-39.8c16.7-20.8,24.2-44.9,26.8-71
		c1.5-15.5-2.1-30-5.6-44.7c-0.8-3.2-2.5-4.8-6-4.1c-11.7,2.3-23.3-0.1-34.9-1.4c-2-0.2-3.9-0.2-5.8,0.1c-8.2,1.1-16.2,3.3-24.2,5.7
		c-1.8,0.5-4.1,2-5.4,0c-1.1-1.8,0.7-3.7,1.8-5.2c7.7-10.4,18.3-14.2,30.8-13c8.2,0.8,16.5,1.3,24.7,2.5c6.5,0.9,12.6-1.1,18.2-4.2
		c5.8-3.2,8.5-9.9,7-16.2c-0.3-1.3-0.4-2.7-1-3.8c-4.4-7.7-2.9-14.9,0.7-22.6c5.6-12,5.8-25.3,8-38.1c1.1-6.3,1.1-12.6,1.8-18.9
		c1.1-10.7-0.1-20.8-8.4-28.9C530.3,193.4,531.8,190.7,535.2,189.4z"/>
	<path d="M460.8,181.7c-0.3-2.7-0.6-5.3-1-8c4-11.9,15.1-14.4,25.9-5.8c2.5,2,4.9,4,7.3,6c4.2,2,6,6,8.3,9.7
		c1.4,2.6,2.2,5.4,2.6,8.3c1,6.7-1.6,11.6-7.5,14.8c-9.5,4.3-16.1,3.1-23.9-4.4c-1.4-1.6-3-3-4.3-4.7c-0.8-1.1-1.5-2.3-2.3-3.4
		C463.8,190.3,460.4,186.8,460.8,181.7z"/>
	<path d="M535.2,189.4c-1.7,2.3-3.3,4.5-5,6.8c-0.3,2.2-2.1,3.3-3.6,4.6c-1,0.6-2,1.1-3,1.6c-1.8,0.8-3.5,1.5-5.4,1.8
		c-4.1,0.3-6.9-1.8-9.2-4.9c-2.7-4.6-3.4-9.7-3.4-14.9c0.2-3-0.8-6.3,2.2-8.6c0.1-3.5,0-6.9,1.9-10.1c5-8,8.9-8.5,17.4-2.1
		C535.5,169.9,537.8,179.1,535.2,189.4z"/>
	<path class="st0" d="M507.7,175.7c-1.5,2.9-0.6,6-1,9c-2.5,1.9-4.5,0.2-6.6-1c-1.8-3.6-4.5-6.5-7-9.7
		C498,174.6,502.9,175.1,507.7,175.7z"/>
	<path class="st1" d="M500.1,183.7c2.2,0.3,4.4,0.7,6.6,1c0,5.1,1.3,9.9,3.1,14.5c1.3,5.2-0.5,10.3-1,15.4c-1,8.8-1,17.5-0.4,26.2
		c1,13.4,1,26.9,2.8,40.3c0.5,4.2,0.9,8.4,2.3,12.4c0.6,1.7,1.4,3.6,3.4,3.8c2.3,0.2,2.8-2,3.4-3.5c3.8-8.3,5.4-17.3,7.4-26.2
		c3.1-14.1,4-28.6,5-43c0.6-8.8-1.9-17-6.3-24.6c1.3-1.3,2.6-2.6,3.9-3.9c7.2,4.9,9.7,12.3,9.8,20.5c0,17.1-2.6,33.9-5.5,50.7
		c-1.5,8.7-4.4,16.7-8.1,24.5c-0.8,1.7-1,3.1-0.1,5c1.5,3.3,2.6,6.9,3.8,10.3c3.9,11.1-4.8,19.3-13,22.1c-8.4,2.8-16.4,0.7-24.7,0.3
		c-8.6-0.5-17.2-2.6-26-0.4c-7.8,1.9-16.4,8.6-19.6,16.6c9.6-3.1,19-5.9,28.8-7.3c2.8-0.4,5.4,0.1,8.1,0.4
		c11.8,0.9,23.6,3.8,35.4,0.4c3-0.9,3.7,1.7,4.3,3.6c2.3,7.2,4.1,14.5,5,21.9c0.7,5.9,2.4,11.7,2,17.7c-2,29.5-9.4,57.1-28.7,80.6
		c-13.3,16.2-29.6,28.1-48.9,35.7c-7.8,3.1-16.2,4.9-24.8,5.4c-5.6,0.3-11.1,1.1-16.7,0c-10.5-2.1-14.1-8.7-9.9-18.5
		c3-7,8.1-12.7,12.4-18.9c10.7-15.6,19.2-32.1,21-51.4c0.7-7.7,1.8-15.3,1.9-23.1c0.3-23.2-6.2-44-19.1-63.4
		c-12.4-18.6-23.1-38.2-29.8-59.7c-4.1-13.2-6.6-27-3.7-40.8c2.1-10.3,8.6-18.5,16.8-24.7c12-9,25.3-15.7,40.2-18.7
		c6.6-1.3,13.2-2.1,19.9-3.1c2,4.1,4,8.3,6,12.4c-1.2,1.8-3.3,2-5.1,2.7c-6.7,2.3-12.7,5.7-18.1,10.4c-6.8,6-9.5,13.5-8.2,22.3
		c3.8,26.2,15.9,48.6,32.4,68.9c3.4,4.2,7.6,7.5,13.1,8.9c5.8,1.5,9.7,0.1,13.1-4.9c5.7-8.5,7.7-18.1,8.6-28.1
		c2.1-22-1.2-43.4-6.8-64.6c-0.3-1.3-0.7-2.5,0.1-3.7C504,198.5,505,193.6,500.1,183.7z"/>
	<path class="st2" d="M496,206c4.8,14.6,6.6,29.6,8.1,44.8c1.2,12.4-0.2,24.4-2.2,36.4c-1.2,7-4.7,13-8.7,18.6
		c-2.7,3.9-9.7,4.2-15.6,1.8c-6.8-2.8-11.1-8.3-15.2-13.8c-13-17.3-22.5-36.2-27.3-57.4c-4-17.6,0.9-27.6,16.9-36.6
		c4.6-2.6,9.5-4.7,14.8-5.6c1.2,0.6,2.1,1.5,2,3c-1.3,2.1-3.5,2.1-5.5,2.7c-6.8,2.1-13,4.9-18,10.3c-5.3,5.7-7,12.2-6,19.7
		c3.1,22.6,13.5,41.9,26.7,60c2.6,3.5,4.8,7.4,8.6,10.4c-8.6-14.5-15.7-29.2-20.3-45c-2.5-8.5-4.2-17.1-5.2-25.8
		c-1.3-12.4,7.8-25.3,19.8-28.6c1.3-0.4,2.5-0.7,3.8,0.1C479.4,207.8,487,210,496,206z"/>
	<path class="st3" d="M472.7,201.1c-13.1,3.2-20.8,11.3-22.4,24.8c-0.6,5.5,0.9,10.9,2,16.3c4.2,20.5,12.3,39.6,23.4,57.3
		c0.5,0.8,1,1.7,1.4,2.6c0.1,0.2,0,0.6,0,1.4c-3.4-0.9-5.4-3.7-7.1-6c-10.8-14.8-21.4-29.7-27.1-47.4c-2.4-7.2-4.1-14.6-5.2-22.1
		c-1.3-8.4,5.1-19.5,13.5-24.2c5.6-3.1,11.6-5,17.8-6.4C470.1,198.5,471.4,199.8,472.7,201.1z"/>
	<path class="st4" d="M478,169.8c10.2,2.6,15.1,9.5,19.5,16.7c0.7,1.2,2.4,2.6,0.6,4.2c-1.8,1.7-3.8,3.2-6.5,2.2
		c-2.2-0.8-4.2-2-4.7-4.5C485.6,181.9,483,175.8,478,169.8z"/>
	<path class="st2" d="M526.3,200.1c6.9,5,7.6,12.8,7.6,19.9c0,14.6-1.3,29.2-4.1,43.6c-1.9,9.7-3.8,19.5-7.4,28.8
		c-1.1,2.9-1.7,7.3-5.4,7.1c-3.6-0.2-4.7-4-5.5-7.6c-1.5-7.1-2.3-14.2-2.7-21.4c-0.9-16.1-2.6-32.2-1.9-48.4
		c0.3-7.7,0.5-15.4,2.9-22.9c2.5,2.2,5,4.4,8.7,4.1c3.3,1.4,3.8,4.7,4.6,7.6c2.6,10.7,3.1,21.5,2.6,32.4c-0.8,16.5-3.1,32.8-6.9,45
		c2.5-12.1,7.4-27.6,8.5-43.8c0.9-13.9,2.2-27.9-3.7-41.2c-0.3-0.6-0.2-1.3-0.1-1.9C524.4,200.9,525.4,200.5,526.3,200.1z"/>
	<path class="st3" d="M523.5,201.3c5,5.8,5.2,13.2,5.7,20.2c1.9,25-4.4,48.8-11.2,72.5c-0.1,0.4-0.5,0.8-1.2,1.8
		c1.8-9.8,3.8-18.8,5.1-28c2.6-19.1,4.5-38.2-0.2-57.3c-0.6-2.6-1.9-4.8-3-7.1C520.2,202.6,521.8,202,523.5,201.3z"/>
	<path class="st4" d="M521.4,164.3c4.8,4.1,8.8,8.7,10.5,14.8c0.8,2.8-0.6,5.3-1.5,7.8c-0.8,2-1.9,4.3-4.5,3.2
		c-2.3-0.9-3.7-3.3-3.3-5.9c0.5-3.4,2.3-6.3,1.1-10.2C522.8,170.9,522,167.7,521.4,164.3z"/>
	<path d="M497.9,228.2c0.7,5.1-0.9,9.7-1.9,14.3c-0.8,3.9-5.2,5.6-8.4,3.3c-2-1.4-3.4-3.3-4.3-5.7c-2.9-7.9-4-15.9-0.7-23.9
		c1.5-3.6,4.1-5.7,8.2-5.2c4.1,0.5,5.5,3.9,6.1,7C497.6,221.4,498.9,224.8,497.9,228.2z"/>
	<path d="M508.9,226.5c-0.7-4.2,0.3-8.1,0.8-12c0.3-2.3,2.1-3.6,3.9-4.5c1.6-0.7,2.8,0.9,3.5,2c5.6,9.8,5.9,19.9,1.7,30.4
		c-1,2.5-2.9,3.7-5,3.5c-2.6-0.3-3.9-2.9-4-5.3C509.7,235.9,507.9,231.2,508.9,226.5z"/>
	<path class="st2" d="M496.1,222.2c0.2,2.5-1.2,4.1-3.5,4.3c-2.1,0.2-6.4-5.9-6.3-8.8c0.1-2.5,1.6-3.8,4-3.8
		C493.2,213.9,496.1,218.3,496.1,222.2z"/>
	<path class="st5" d="M484.9,233.6c3.5-0.3,8.3,6.1,7.1,8.8c-0.5,1.1-1.3,1.9-2.7,1.2c-3.2-1.6-5.6-3.9-5.9-7.7
		C483.3,234.7,484.3,234,484.9,233.6z"/>
	<path class="st2" d="M518.5,221.2c0.1,1.6,0.4,3.6-1.5,4.1c-1.8,0.6-3-1.4-3.6-2.6c-1.2-2.5-3.2-5.3-0.8-8.3
		c0.6-0.8,1.5-2.4,2.6-1.2C517.3,215.4,518.9,218,518.5,221.2z"/>
	<path class="st6" d="M517.6,240.2c0,2-0.4,4.1-2,3.6c-3.6-1.2-4.5-4.6-4.8-8.1c-0.1-1.5,0.5-3.6,2.1-2.9
		C516.2,234.1,516.7,237.6,517.6,240.2z"/>
</g>
</svg>
