<?xml version="1.0" encoding="utf-8"?>
<!-- Generator: Adobe Illustrator 23.0.1, SVG Export Plug-In . SVG Version: 6.00 Build 0)  -->
<svg version="1.1" id="Layer_4" xmlns="http://www.w3.org/2000/svg" xmlns:xlink="http://www.w3.org/1999/xlink" x="0px" y="0px"
	 viewBox="0 0 1000 1000" style="enable-background:new 0 0 1000 1000;" xml:space="preserve">
<style type="text/css">
	.st0{fill:#6E3720;}
	.st1{fill:#FB9A7A;}
	.st2{fill:#730000;}
	.st3{fill:#7F7F7F;}
	.st4{fill:#FEFEFE;}
	.st5{fill:#C0FEFE;}
	.st6{fill:#010101;}
	.st7{fill:#00407F;}
</style>
<g>
	<path class="st0" d="M525.5,300.9c5.8,3,11.9,5.3,17.2,9.4c8.7,6.8,12.6,15.8,13.9,26.1c3.1,24.8-3.2,48.3-11.1,71.4
		c-1.9,5.7-1.8,10.1,0.9,15.5c3,6,4.1,13,13.4,9.3c25.2,2.2,40.1,17.8,49.1,39.6c3.5,8.5,4.8,18,6.2,27.2
		c1.9,13.2,3.4,26.5,3.1,39.8c-0.4,15.1-13.8,21.2-24,20.1c-8.8-1-15.7-6.3-22.4-11.6c-1.2-1-2.8-2-3.6-3c-3.7-5.1-7-2.9-10.7-0.2
		c-9.8,7.2-20.4,12.8-32.5,14.7c-16,2.5-31.1,0.7-45.5-7.8c-12.4-7.3-20.8-17.3-26.8-30c-12-25.5-28.2-48.4-44.1-71.5
		c-12.9-18.8-23.2-38.9-30.3-60.5c-4.7-14.4-6.4-29.7-2.2-44.8c2.4-8.4,7.9-14.8,14.2-20.6c8.3-7.6,17.5-13.8,27.9-18
		c11.9-4.8,23.9-9.3,36.9-10.2c4.6,0.8,12.6,6.2,13.6,9.2c-1.9,1.3-4.1,0.8-6.2,1c-22.2,2.3-42.4,9.6-60.2,23.1
		c-8.7,6.6-14.5,15.2-16.6,26.2c-1.1,5.8-0.2,11.4,0.8,17c2,11.1,5.1,21.8,10,32c10,20.7,22.1,40.1,35.5,58.8
		c13.2,18.5,24.3,38.5,35.7,58.2c8.8,15.3,21.6,25.1,39.3,27.6c16.3,2.3,30.3-3.4,42.8-14.5c-4-1.7-7.6-1.8-11.3-2
		c-1.5-0.1-3.7,0.2-4.1-1.8c-0.4-1.8,1.4-2.8,2.7-3.6c9.7-6.2,19.7-5.8,29.5,1.5c4.4,3.3,8.7,6.8,12.9,10.4
		c3.9,3.2,7.8,6.5,12.5,8.3c5.3,2,9.6,0.3,12.2-4.7c2.3-4.4,2.4-9.2,1.9-13.8c-1.9-17.8-3.6-35.7-11-52.3
		c-2.8-6.2-5.9-12.2-10.2-17.7c-9.5-12.3-22.3-15.1-36.6-13.4c-17.9,2.2-33.4,10.2-47.3,21.6c-1.7,1.4-3.9,4-5.7,2.4
		c-2-1.8,1-3.9,1.8-5.9c1.2-2.3-0.7-2.8-2.2-3.4c-7.6-2.8-15.4-5.1-23.5-6.4c-5.4-0.9-9.7,1.7-14.1,4.4c-1.7,1-3.2,3-5.6,1.6
		c-0.4-6.6,5.2-14.6,12.1-17.1c6-2.2,12.1-2,18.2-0.2c7.5,2.2,15,4.2,22.6,6.2c3.3,0.9,5.9,0.4,8.5-1.9c5.7-5.3,12.3-9.1,20-10.5
		c3.5-0.6,4.4-2.5,3.6-5.9c-0.9-3.8-2-7.5-3.9-11c-1.4-2.6-1.5-5.1-0.4-7.9c4.5-11.5,9-23.1,10.5-35.4c1.6-12.4,3.7-24.7,1.6-37.3
		c-1.7-10.4-6.6-18.2-15.7-23.3c-8.2-4.6-17.2-6.9-26.4-8.2c-2.4-0.3-4.9-0.6-7-1.8c-0.8-0.6-0.8-1.6-0.3-2.1
		c2.5-2.6,3.3-6.6,6.8-8.3c2.3-0.3,4.3,1.7,6.7,1c3.5,4.8,7.8,6.9,13.7,4.5C523.4,300,524.6,299.9,525.5,300.9z"/>
	<path d="M468.8,304.5c-4.6-2.9-9.2-5.8-13.8-8.7c-3.2-3.1-4.3-7.2-5.6-11.2c-1.5-4.6,2.8-11.2,7.7-12.1c12.8-2.5,25-0.7,36.1,6
		c5.8,3.5,9.8,8.8,8.7,16.4c-1.6,3.8-4.1,6.8-7,9.7c-2.3,3.7-6.4,3.7-9.9,4.1C479.3,309.3,473.5,309.1,468.8,304.5z"/>
	<path d="M525.5,300.9c-1.9,0.4-3.7,0.7-5.6,1.2c-6.4,1.6-8.9,0.2-11.2-6.3c-4.8-18.6,8.7-30.1,26.4-26.5c4.5,0.9,8,2.6,11.1,5.8
		c4.2,4.5,4.3,8.6,0.1,13.1C540.4,294.2,533.4,298.4,525.5,300.9z"/>
	<path class="st1" d="M468.8,304.5c8.7,3.7,17.5,4.2,26.2,0c12.1,1.8,24.1,3.6,34.9,9.8c9.6,5.6,14.6,13.8,16,24.8
		c2.4,19.2-1.2,37.7-6.1,56.1c-1.6,5.8-4.1,11.4-6.4,17.1c-0.8,1.9-1.2,3.5,0,5.3c3.1,4.6,4.1,10,5.3,15.3c0.4,2,0.5,3.2-2.2,3.6
		c-9.8,1.6-18.2,6-25.1,13.3c-1.1,1.2-2.2,1.3-3.9,0.8c-9.7-2.8-19.3-5.8-29.2-7.7c-13.8-2.6-23.1,2.3-26.2,17
		c0.6,0.6,0.8,1.3,1.1,2.1c1.5,5.7,4.4,7.6,10.3,6.7c5-0.8,9.8-2,14.6-3.5c5-1.6,10.2-1.8,15.3-2.6c1.6-0.2,3.3-0.2,4.5,1.2
		c-0.9,1.6-1.8,3.3-3.3,6c6.3-4.5,11.4-8.7,17-12.2c13.4-8.4,27.8-14.3,43.8-14.3c16.4,0,28.3,8,36.1,22.4
		c8.2,15.2,12.4,31.5,14.2,48.5c0.7,6.6,2,13,1.9,19.7c-0.1,3.9-1.1,7.3-2.9,10.5c-2.4,4.2-6.7,5.7-11.4,4.4
		c-8.4-2.4-13.9-9-20.5-14c-6-4.6-11.5-9.7-19.4-10.9c-7.5-1.2-12.7,3.1-18.5,6.4c6.1,0.7,11.9,0.9,17.9,3.3
		c-9,7.9-18.6,14-30.6,16.2c-16.7,3-30.8-2.4-43.4-12.5c-6.4-5.1-10.7-12.4-14.6-19.6c-9.8-17.8-20.3-35.3-31.7-52.1
		c-8.7-12.9-17.8-25.5-25.6-38.9c-9.8-16.9-18-34.4-21.8-53.7c-4-20.4,3.3-36.2,20.3-47.8c14.4-9.9,30.4-15.8,47.3-19.4
		C457.8,304.7,463.4,304.9,468.8,304.5z"/>
	<path class="st2" d="M498,464c-10-0.5-19.4,2.9-28.9,5.1c-2.6,0.6-5.4,1.8-7.9,1.5c-6-0.9-10.1-2-8.8-10.6c2.2-1.4,4.4-2.8,6.4-4.3
		c8.5-6.1,17.1-2.4,25.6-0.4c4.4,1,8.6,2.9,12.9,4.3C500.6,460.6,500.9,462,498,464z"/>
	<path class="st3" d="M464.8,276.7c8.5-2.4,16-0.5,23.3,2.6c2.8,1.2,5,3.6,4.9,6.6c-0.1,2.3-2.4,3.6-4.5,4.6c-3,1.4-4.8-0.7-6.6-2.5
		C476.9,283.3,471.2,279.9,464.8,276.7z"/>
	<path class="st3" d="M517.1,274.9c8-2.7,14.9-3.8,21.7,0.4c1.4,0.9,2.8,1.9,3.6,3.2c1.2,1.8,2.8,4,0.6,6.1c-1.9,1.9-3.9,1.4-6,0.1
		C531,281,525.2,276.8,517.1,274.9z"/>
	<path class="st4" d="M510.7,395c-0.4,11.6-1.9,23-11,31.4c-6.1,5.6-11.1,6.5-18,3c-6.8-3.5-12.1-8.4-16.6-14.5
		c-9.7-13.2-18.4-26.9-24.3-42.1c-4.2-11-6.2-22.6-3-34.1c2.3-8.2,9.3-13.2,16.5-17.5c10.2-6.1,21.4-7.7,32.9-7.7
		c5,0,7.7,3.7,10,7.4c4.7,7.6,5.8,16.3,7.5,24.8c2.5,13.1,4.8,26.2,5.1,39.7C509.9,388.5,511.2,391.7,510.7,395z"/>
	<path class="st4" d="M539.1,354.5c0.4,19.3-4.1,37.9-8,56.6c-0.5,2.5-1.7,4.9-2.9,7.1c-2.7,4.8-6.4,4.8-9.3,0.2
		c-2.3-3.6-3.4-7.7-4.1-11.8c-1-5.8-2-11.8-1.9-17.7c0.2-9.3-1.2-18.4-1.2-27.6c0-6,0.1-11.9-0.7-17.9c-1.1-7.9,0.6-15.7,2-23.5
		c0.8-4,4.1-5.7,8.3-4.2c10.7,4,14.7,9.4,16.9,21.3C539.2,342.9,539,348.7,539.1,354.5z"/>
	<path class="st5" d="M487.6,319.8c-6.7,2.6-12.3,4.3-17.5,6.8c-14.1,6.6-19,17-15.8,32c3.9,18.4,11.3,35.4,20.2,51.9
		c2.5,4.6,6,8.7,9.8,14.2c-4.6-1.7-7.2-3.9-9.7-6.3c-6.6-6.5-11.7-14.2-16.4-22.2c-8.4-14.5-15.6-29.6-17.6-46.5
		c-1.3-11,4.8-18.2,14.1-23.4C463.8,321.2,475.2,318.5,487.6,319.8z"/>
	<path d="M507.9,398.9c-0.3,6.1-0.7,11.3-2.7,16.2c-2.2,5.7-4.9,5.7-9.7,2.1c-7.5-5.7-8.6-20.7-5.5-28c1.7-3.9,3.9-7.5,8.4-7.1
		c4.7,0.3,7,4.4,8,8.4C507.3,393.3,508.5,396.5,507.9,398.9z"/>
	<path class="st5" d="M527.3,386.8c0.7-9.8,1.9-19.6,1.9-29.5c0.1-15,2.5-16.5-9.1-37.1c6,0.5,9.2,4.5,11.5,8.8
		c4,7.2,3.9,15.2,3.4,23.2c-0.4,6.9-1,13.8-1.8,20.7c-1.1,9.2-1.4,18.6-4.7,27.4C526.2,396,525.9,391.5,527.3,386.8z"/>
	<path class="st6" d="M527.3,386.8c1.3,4.5,0.9,9.1,1.2,13.6c-0.1,3.3-0.7,6.5-2.1,9.5c-1.1,2.4-1.8,5.6-5.3,5
		c-3.7-0.6-3.3-4-3.6-6.7c0.6-0.5,1.2-0.1,1.7,0.3c1.1,0.7,2.3,2.7,3.4,0.7c1.1-1.9-0.2-3.7-1.8-5c-0.8-0.6-1.5-0.3-1.9,0.6
		c-0.4,1.2-0.3,2.6-1.4,3.5c-2.8-7.9-3.2-16-2.8-24.2c0.1-2.8,2.1-5.5,5.2-6.1c3.4-0.7,4.1,2.4,5.3,4.6c0.7,1.4,0.9,3,1.4,4.5
		c-2.4,0.3-2.6-2.1-3.8-3.2c-2-1.8-3.2-1.1-3.8,1.2c-0.4,1.7,0.2,3.2,1.1,4.6c1.8,2.6,3.5,2.5,4.9-0.4c0.4-0.9,0.5-1.9,1.4-2.4
		C526.7,386.7,527,386.7,527.3,386.8z"/>
	<path class="st4" d="M504.9,395.3c0,3.6-0.9,5.1-4.1,3.5c-3.3-1.7-5.6-4.2-7.3-7.4c-0.9-1.7-0.4-3.3,1.1-4.8
		c1.6-1.6,2.9-0.7,4.3,0.1C502.6,388.7,504,392.2,504.9,395.3z"/>
	<path class="st7" d="M500.3,416.8c-3.2,0.3-8.9-7.2-7.8-9.9c0.3-0.8,0.8-1.4,1.8-1.4c2.8-0.2,8.4,6.6,7.7,9.4
		C501.6,415.9,501.1,416.6,500.3,416.8z"/>
	<path class="st4" d="M526.5,386.9c-0.2,2.6,0.4,6.1-3.2,6.5c-3.1,0.4-4.5-2.8-5.4-5.2c-0.9-2.5-1-5.8,2.1-7.1
		c3.1-1.3,3.7,1.9,5,3.7c0.5,0.7,0.4,2,1.6,2.1C526.7,387,526.5,386.9,526.5,386.9z"/>
	<path class="st7" d="M517.6,408.3c0-0.3,0-0.7,0-1c0.3-1.8-0.8-4.1,1.2-5.4c1.5-1.1,2.3,0.6,3.2,1.4c2,1.9,3.1,4.3,2.3,7
		c-0.6,1.9-2.2,2.4-3.8,1.1c-1.1-0.9-1.9-2.1-2.9-3.1C517.5,408.2,517.6,408.3,517.6,408.3z"/>
</g>
</svg>
