<?xml version="1.0" encoding="utf-8"?>
<!-- Generator: Adobe Illustrator 23.0.1, SVG Export Plug-In . SVG Version: 6.00 Build 0)  -->
<svg version="1.1" id="Layer_4" xmlns="http://www.w3.org/2000/svg" xmlns:xlink="http://www.w3.org/1999/xlink" x="0px" y="0px"
	 viewBox="0 0 1000 1000" style="enable-background:new 0 0 1000 1000;" xml:space="preserve">
<style type="text/css">
	.st0{fill:#6E3720;}
	.st1{fill:#FB9A7A;}
	.st2{fill:#FEFEFE;}
	.st3{fill:#C0FEFE;}
	.st4{fill:#7F7F7F;}
	.st5{fill:#00407F;}
	.st6{fill:#004080;}
</style>
<g>
	<path class="st0" d="M560.6,205c9,7.6,10.6,17.9,9.6,28.7c-0.8,9.3-2.8,18.5-5.8,27.4c-4,12-9,23.6-14.6,34.9
		c-0.8,1.7-1.6,3.5-2.6,5.1c-3.3,5.2-4.2,9.8-0.8,15.9c4.5,8.1-0.6,15.4-5.8,21.5c-2.5,3-3.8,5.3-2.5,9.2
		c4.4,13.1,6.4,26.8,8.6,40.3c1.6,9.6,1.8,19.4,3.2,29.1c3.4,23.8,6.8,47.7,16,70.2c2.6,6.3,4.6,13,5.1,19.6
		c0.6,7.5-2.6,14.6-8.9,19.2c-12.7,9.4-27.2,13.6-42.9,15.1c-11.1,1.1-22.2,2.5-33.3,1.7c-20.1-1.4-40-4.2-58.7-12.7
		c-12.9-5.8-16.8-17-13.8-30.2c3.8-16.8,11.5-32.4,14.6-49.4c2-11.1,4.8-22,5.6-33.3c1.8-24.7-1.9-48.4-11.9-71.2
		c-8.5-19.5-18-38.6-23.5-59.4c-2.9-10.9-4.9-21.9-6.1-33.2c-1.3-12.2,0-23.9,3.6-35.4c2.9-9.2,9.2-16.1,16.9-21.9
		c15.9-11.9,34-16.7,53.4-18.8c7.7-0.8,15.3-0.9,23,0.1c1.1,2.8,0.7,5.4-0.6,8c-1,0.8-2.1,0.8-3.2,0.7c-14.1-0.7-28,0.8-41.4,5.3
		c-12.9,4.3-25,10.2-33.5,21.6c-6.9,9.2-10.2,19.4-9,31c3.1,30.8,13.2,59.6,25.7,87.6c7.3,16.4,13.9,33,15.9,51
		c1.6,14.7,2.5,29.4,0.1,44.2c-3.7,22.4-7.9,44.5-16.3,65.7c-1.4,3.6-2.3,7.5-3.1,11.3c-1.5,7.7,0.6,12,7.5,15.6
		c13.9,7.4,28.7,11.1,44.3,12.3c18.6,1.4,37,0.9,55.2-3.8c7.9-2,15.4-5.2,22.6-9.1c5.6-3.1,7.7-7.4,6.6-13.8
		c-0.9-5.1-2.2-10.2-4.2-15c-8.6-21.7-12.5-44.4-15.9-67.3c-2.7-17.9-5-35.8-8-53.6c-0.9-5.3-2.6-10.4-4.1-15.6
		c-0.6-2-1.6-3.6-4.1-3.3c-10.6,1.1-20.6-2-30.8-4c-0.6-0.1,0.1,0.1-0.5-0.1c-12.5-4.3-25.1-5-37.8-0.7c-2,0.7-4.8,2.1-6.2-0.4
		c-1.2-2.2,0.9-4.4,2.4-6c7.3-7.4,16.7-9.2,26.5-8.1c10.7,1.1,20.9,4.8,31.4,7.2c6.2,1.4,12.2,1.6,18-1.6c7.2-4,10.9-10,8.5-17.8
		c-2.5-8.1-0.3-14.5,3.1-21.8c9-19.3,17.5-38.8,21.1-60.1c1.4-8.1-0.1-15.5-3.8-22.6c-0.4-0.9-0.9-1.7-1.2-2.7
		C555.3,208.6,557.1,206,560.6,205z"/>
	<path d="M488.2,185.7c0.3-2.7-0.4-5.5,1-8c0.6-2.5,1.6-4.9,3.4-6.6c3.3-3,7-3.9,11.2-1.8c5.6,2.9,11.3,5.7,14.6,11.6
		c0.4,0.8,1.4,1.3,2.1,1.9c3.6,3.1,5.1,7.6,7.2,11.6c4,12.1,1.4,17.8-9.7,21.7c-9.3,2.4-16.9,0.4-22.4-8c-1.2-1.8-2.1-3.8-3.2-5.7
		c-0.5-1.1-1-2.2-1.5-3.3C489.3,194.8,487.1,190.6,488.2,185.7z"/>
	<path d="M560.6,205c-1.9,2.1-3.4,4.6-6,6c-0.9,2.1-3,2.5-4.8,3.5c-1.1,0.4-2.1,0.8-3.2,1.2c-1.6,0.5-3.2,1.1-4.9,1.2
		c-4.8-0.3-7.6-3.1-9.4-7.3c-1.8-4.4-1.2-9-0.4-13.5c0.6-2.9,0.4-6,2.3-8.5c1.5-2.7,2-5.7,3.7-8.4c4.5-7.2,9.2-9,16-2.6
		C562,184.4,564.4,194.1,560.6,205z"/>
	<path class="st0" d="M534.2,187.7c0.4,3-0.8,5.8-1.1,8.7c-2.8,1.4-4.6-0.7-6.6-2c-2-3.9-4-7.8-6-11.7
		C525.1,184.4,529.6,186,534.2,187.7z"/>
	<path class="st1" d="M526.5,194.4c2.2,0.7,4.4,1.3,6.6,2c-0.9,4.5-1,9.1,0.2,13.5c0.9,2.5,0.2,4.8-0.6,7.1
		c-5.5,16.8-7.1,34.3-9.7,51.7c-1.3,8.5-2.2,17.1-2.1,25.7c0,3.6,0.6,7.1,1.4,10.6c0.4,1.6,0.8,3.4,2.6,3.8c1.8,0.4,2.9-1.2,3.9-2.5
		c2.5-3.2,4.7-6.7,6.2-10.5c8.3-20.8,14.6-42.1,18.1-64.2c0.7-4.6-0.1-9.1-2.1-13.3c-0.7-1.4-1.8-2.8-1.3-4.6
		c1.3-1.6,3.3-1.8,4.9-2.8c6.7,8.8,7.7,18.5,5.6,29.1c-4.3,21.4-12.9,41.2-22.3,60.7c-2.6,5.3-3.8,10-1.8,15.8
		c5.9,17.4-12.4,26.3-23.8,23.9c-11.7-2.5-23.3-5.4-35-8.1c-10.3-2.4-24.6,4.1-28.7,13.2c3.7-0.7,7.5-0.9,10.8-2.2
		c10.1-4.1,19.8-2,29.6,0.7c9.8,2.7,19.7,4.3,29.7,5.6c3.1,0.4,6.4-3,8.7-0.2c1.8,2.2,2,5.6,2.9,8.5c3.3,9.9,4.1,20.4,5.8,30.6
		c2.5,14.5,4.2,29.2,6.5,43.7c2.1,13.1,4.7,26.1,8.1,39c2.9,11,7.9,21.3,10.4,32.4c1.6,7.2-1.5,13.9-7.6,16.9
		c-14.7,7.4-30,11.4-46.5,12.7c-22.1,1.7-43.7,0.6-64.7-7.1c-5.3-1.9-10.3-4.5-15.2-7.2c-4.5-2.5-6.1-9.2-4.8-15.2
		c2-9.3,5.8-17.9,8.7-26.9c4.4-14.1,7.2-28.5,9.6-43c1.8-10.5,3.2-21,2.8-31.7c-0.7-21.9-5.4-42.8-14.4-62.9
		c-9.8-21.8-18.8-43.8-24.3-67.2c-2.4-10.5-4.7-21.1-5-31.7c-0.3-10.6,3.2-20.6,10.3-28.8c13.5-15.7,31.5-22.3,51.4-25.3
		c4.6-0.7,9.3-0.5,13.9-1.6c4.2-1,8.7-0.4,12.9,0.9c1.3,4.5,2.6,9.1,3.9,13.6c-2.6,1.9-5.9,1.6-8.8,2.3
		c-11.6,2.7-22.1,6.7-26.6,19.4c-2.5,6.9-1.9,13.8-1,20.7c2.8,21.7,9.7,42.1,20.8,61c1.7,2.9,3.8,5.2,6.5,7.1
		c8.9,6.4,16.6,5,22.9-4.1c4.5-6.6,7-14,8.8-21.6c4-17.2,5.7-34.5,4-52.3c-0.5-5.5-2.2-11.1-1-16.8
		C528.3,211.1,530.5,206.1,526.5,194.4z"/>
	<path class="st2" d="M517.6,215c2.9,14.6,3.5,29.3,2.2,44.2c-1.2,13.1-3.3,25.8-8.1,38c-2.9,7.3-6.6,14-14.5,17.2
		c-2.4,1-4.6,1.4-7,0.5c-6.2-2.3-11.3-5.4-14.8-11.5c-10.4-18-17.6-37-20.4-57.8c-1-7.6-2.8-15.1-0.5-22.9
		c3.6-12.2,14.7-21.2,28.5-22.6c3-0.3,6-1.6,9.1-1c0.5,0.9,1.4,1.6,1.2,2.8c-2.3,2.2-5.4,2-8.2,2.5c-13.7,2.3-24.5,9.5-26.3,24.6
		c-0.4,3.5,0.3,6.8,0.7,10.2c2.8,23,9.8,44.5,22.8,63.5c-4.9-12.4-8.9-25.4-10.7-39c-1.1-8.4-1.9-16.8-2.8-25.2
		c-0.6-5.2,0.6-10.3,2.1-15.4c3.6-11.7,17.2-17.4,25.5-16.2C501.4,214.8,507.7,217.2,517.6,215z"/>
	<path class="st3" d="M496.2,207c-3.6,1-7.2,1.8-10.7,3c-13.8,4.8-16.5,18-15.5,29.3c0.9,11.2,2.3,22.4,4.4,33.5
		c2.1,11.1,6,21.5,10,31.9c0.3,0.7,1.1,1.3,0.3,2.4c-3.4-2.9-5.5-6.6-7.8-10.3c-9.5-15.8-15.2-32.8-17.9-51
		c-0.9-6.1-2.3-12.1-1.4-18.6c2.1-15,15.4-22.3,27.4-24.1c2.7-0.4,5.4-0.7,8.2-1.1C494.2,203.7,495.2,205.3,496.2,207z"/>
	<path class="st4" d="M506,176.4c9.7,4.4,13.6,11.6,16.8,19.5c1.7,4.2-0.6,5.9-3.6,6.9c-3.5,1.1-6-1.4-6.2-4.4
		C512.5,190.9,510.4,184,506,176.4z"/>
	<path class="st2" d="M549.7,213.9c6.2,7.5,5.5,16.1,3.8,24.8c-3.9,19.2-9.3,38-16.5,56.2c-2.2,5.5-5,10.8-9.4,15.1
		c-2.5,2.4-4.1,2-5.4-1c-3.3-7.4-2.9-15.2-2.4-22.9c0.5-8,1.6-16,2.8-23.9c2.7-17.6,5-35.2,10.8-52.1c2.2,3,4.4,5.9,8.7,6
		c4.3,5.7,4.5,12.4,3.8,19c-3,27.4-8.7,43.6-19,68.2c7.9-17.9,14.6-36.2,19.2-55.2c2.4-9.9,3.5-19.8,0.7-29.9
		c-0.3-1.1-0.5-2.2,0.1-3.3C547.4,213.3,548.7,214.1,549.7,213.9z"/>
	<path class="st3" d="M546.8,214.8c4.2,9.1,3.8,18.8,1.8,28.1c-4.8,21.5-11.6,42.4-21.9,62.1c-0.2,0.4-0.6,0.6-1.8,2.1
		c2.1-6.2,3.7-11,5.5-15.8c6.1-15.7,10.7-31.8,13.3-48.5c1.4-9.1,1.2-18-1.7-26.7C543.6,215.6,545.2,215.2,546.8,214.8z"/>
	<path class="st4" d="M549.7,178.1c9.6,8.3,11.8,18.3,4.1,25.5c-2,1.9-3,1.7-4.2-0.8c-1-1.9-1.1-3.8-0.6-5.6
		c0.8-3.2,2.9-6.2,2.7-9.6C551.4,184.5,550.4,181.4,549.7,178.1z"/>
	<path d="M500.9,240.5c1-5.2,0.4-10.8,3-15.7c1.7-3.1,4.2-6.3,8-5.9c4,0.5,6.4,4.4,6.5,7.9c0.2,8.9-1.2,17.8-5.1,25.7
		c-2.8,5.7-7.2,3.3-10.3-2C501.2,247.6,500.7,244.1,500.9,240.5z"/>
	<path d="M541.1,230.9c-0.5,6.6-1.5,13.6-4.5,20.2c-1.3,2.8-3.5,4.4-6.4,3.7c-2.6-0.7-3.1-3.4-2.9-5.9c0.5-7.9,1.2-15.8,2.8-23.6
		c0.8-3.9,3.2-5.8,6.2-6.3c3.8-0.6,3.3,3.4,4.3,5.7C541.4,226.5,540.8,228.4,541.1,230.9z"/>
	<path class="st2" d="M516.6,230.4c0.6,2.2-0.7,4.2-2.4,4.6c-1.8,0.4-3.7-0.8-4.6-3.1c-0.5-1.1-0.6-2.4-1.2-3.5
		c-1.4-2.7-0.2-5.4,2.1-6.5c2.6-1.2,3.7,1.7,4.7,3.6C515.9,227,517,228.5,516.6,230.4z"/>
	<path class="st5" d="M510.7,249.3c0,1.5,0,3.1-1.9,3.4c-1.9,0.3-5.9-5.3-5.9-8c0-1.5,0.2-3,2.1-3.2
		C507.5,241.2,510.7,245.6,510.7,249.3z"/>
	<path class="st2" d="M539,229.3c-0.3,1.4,1,4.9-1.6,4.7c-3.4-0.2-4.1-3.8-4.2-7c-0.1-2.5,0.8-5.4,3-5
		C539.2,222.6,539.2,226,539,229.3z"/>
	<path class="st6" d="M529.4,244.7c0-0.4-0.5-3.4,1.6-3c3.1,0.5,3.6,4,4.1,6.7c0.3,1.7-0.3,3.6-2.4,3.4
		C529.4,251.4,529.1,248.7,529.4,244.7z"/>
</g>
</svg>
