<?xml version="1.0" encoding="utf-8"?>
<!-- Generator: Adobe Illustrator 23.0.1, SVG Export Plug-In . SVG Version: 6.00 Build 0)  -->
<svg version="1.1" id="Layer_4" xmlns="http://www.w3.org/2000/svg" xmlns:xlink="http://www.w3.org/1999/xlink" x="0px" y="0px"
	 viewBox="0 0 1000 1000" style="enable-background:new 0 0 1000 1000;" xml:space="preserve">
<style type="text/css">
	.st0{fill:#6E3720;}
	.st1{fill:#FB9A7A;}
	.st2{fill:#FEFEFE;}
	.st3{fill:#C0FEFE;}
	.st4{fill:#7F7F7F;}
	.st5{fill:#00407F;}
</style>
<g>
	<path class="st0" d="M589.7,228.5c9,13.5,6.4,27,0,40.6c-7.4,15.6-16.2,30.2-27.9,43c-3,3.2-5.8,6.9-8.8,10
		c-3.6,3.7-2.6,7-1.7,10.7c1.8,7.7-1.8,17.3-8.6,21.7c-2.8,1.8-3.3,3.4-2.2,7c5,16.6,11.7,32.6,17.2,49.1
		c8.7,26.1,15.9,52.6,22.1,79.3c1.7,7.2,3.8,14.6,3.2,22.2c-0.4,6.2-1.6,12.2-5.4,17.4c-4.1,5.7-9.5,7.8-16.1,6.2
		c-13.4-3.2-24.4-11.3-35.2-19c-13.2-9.4-25.6-20-36.7-31.8c-19.4-20.7-37.1-42.8-49.5-68.7c-6-12.7-9.4-26.1-11.4-39.9
		c-3.3-22.9-6.2-45.9-11.5-68.5c-1.6-6.8-1.5-14-2.1-21c-1-12.4-2.8-24.7-1.9-37.1c1-12.9,1.4-26,8.6-37.7
		c9.9-16.2,23.3-26.8,42.7-29.4c10.2-1.4,20.3-3.4,30.6-2.7c10.4,0.7,20.8,2,30.4,6.9c1.2,3.1,0.1,5.7-1.9,8
		c-1.8,0.8-3.6,0.2-5.2-0.3c-6.9-2.2-13.9-3-21.1-3.8c-15-1.6-29.6,0.7-43.7,5.1c-9.5,2.9-16.1,10.3-21.3,18.5
		c-6.9,11-9.3,23.4-8.7,36c0.6,13.1,1.9,26.2,3.4,39.3c1.5,13.1,4.2,26,6.2,39c3.2,21.7,5.7,43.6,10.7,65
		c2.5,10.6,6.4,20.8,11.7,30.4c11.6,20.9,27.1,39,43.2,56.5c15.5,16.9,33.6,30.6,53.2,42.4c1,0.6,2,1.2,3,1.6
		c4.2,1.6,8.6,4.1,12.9,0.8c4.7-3.7,6.7-8.9,5.9-14.7c-1.5-10.8-3.4-21.5-6.4-32c-5.2-18.5-10.2-37-16-55.3
		c-5.3-16.4-12.6-32.1-18.1-48.4c-2.6-7.7-5.8-12.7-15.1-13.1c-11.7-0.4-21.4-7.4-31.7-12.1c-10-4.6-20-7.8-31.1-5.5
		c-0.2,0-0.4,0-0.5,0c-1.9,0-4.4,0.6-5.3-1.4c-0.9-2.2,1.5-3.3,3.1-4.4c9.7-7,20-8.2,30.9-3.1c6.5,3,13.2,5.7,19.4,9.2
		c6.1,3.4,12.7,5,19.5,5.8c12.1,1.4,20-6.5,18-18.5c-0.8-5.1,0.1-8.9,3.7-12.8c15.4-17,27.6-36.2,37.1-57c4.1-9,6.4-18.2,0.6-27.5
		C583.2,230.6,586.3,229.4,589.7,228.5z"/>
	<path d="M523.3,194.4c0.7-2.6,1.4-5.2,2.1-7.8c7-10.3,18.6-9,25.3,2.8c1.8,3.1,3.3,6.4,4.9,9.6c2.8,3.4,3.5,7.5,4.3,11.6
		c2.2,11.2-2.1,17.5-13.7,19.9c-10.2,0.2-16.6-3.9-20.8-13.3c-0.5-1.7-1.1-3.4-1.4-5.2c-0.5-1.5-0.8-3.1-1-4.7
		C522.3,203.1,520.9,198.7,523.3,194.4z"/>
	<path d="M589.7,228.5c-2.3,2.2-4.9,3.7-7.8,5c-1.1,1.6-2.8,1.8-4.4,2.2c-1.2,0.3-2.4,0.7-3.6,0.8c-1.5,0.1-3.1,0.1-4.6,0.1
		c-4.2-0.4-7.2-2.2-8.1-6.6c-1.6-5.6,0.5-10.8,2-16c1.7-2.9,2.6-6.4,5.3-8.7c1.8-2.7,3.2-5.9,5.5-8c6.7-6,10.3-5.4,15.8,3.2
		C595.5,209.5,595.2,219.1,589.7,228.5z"/>
	<path class="st0" d="M568.4,205.2c-1.3,2.9-2.7,5.8-4,8.7c-3.1,1.3-3.9-1.7-5.6-2.9c-0.1-4.2-2.7-7.8-3-11.9
		C560.4,200,563.6,204.3,568.4,205.2z"/>
	<path class="st1" d="M558.7,211c2.6-0.5,3.1,3.1,5.6,2.9c-1.2,5.1-3.9,10-2,15.5c-13.6,21.6-21,45.6-28.1,69.8
		c-1.5,5.2-2.4,10.5-3.4,15.7c-0.2,1.1-0.3,2.3-0.1,3.4c0.2,1.8,0.5,3.8,2.5,4.4c1.8,0.5,3-1,4.1-2.1c6.2-6.7,11.1-14.4,16.2-21.9
		c9.3-13.6,15.8-28.7,22.4-43.8c2.2-5.1,2.7-10.7,1.1-16.2c-0.4-1.4-0.9-2.8,0.2-4.2c1.6-0.3,3.2-0.7,4.8-1c4.7,6,5.8,12.3,3.4,19.8
		c-3.8,11.9-9.7,22.7-16.1,33.3c-7.7,12.8-16.3,25-26.9,35.7c-2.1,2.1-1.8,4.7-1.2,6.8c4.7,16-8.7,24-21.6,21.9
		c-12.5-2.1-22.8-8.5-33.8-13.6c-12.4-5.8-23.4-5.3-34.3,2.7c-0.7,0.6-1.7,1-1.7,2.3c3.5,1.3,6.9-0.4,10.3-0.6
		c7.9-0.4,15.3,1.3,22.4,4.5c5.4,2.5,10.9,4.8,16.1,7.6c8.7,4.7,17.8,7.1,27.6,7.3c2.9,0.1,3.5,1.9,4.2,3.8
		c5.4,14,10.9,28,16.2,42.1c10.2,27.3,17.5,55.5,24.7,83.7c1.7,6.6,2.8,13.5,3.6,20.3c0.8,6.1-3.5,15.6-10,16.9
		c-4.6,0.9-8.6-1.2-12.3-3.2c-10.1-5.6-19.7-11.9-28.5-19.5c-6.2-5.4-13.1-9.9-19-15.5c-5.7-5.4-10.8-11.6-15.9-17.6
		c-8.1-9.6-16.3-19-23.5-29.3c-12.5-17.7-21.6-36.8-25.5-58.5c-4.8-26.6-7.8-53.6-12.7-80.2c-2.1-11.3-3.1-22.6-3.8-34
		c-0.5-7.9-2-15.7-1.8-23.6c0.4-16.2,4.7-31.2,16.6-42.9c4.9-4.8,10.7-8.9,18-10.6c9.9-2.4,19.8-4.1,29.9-4.5
		c12.6-0.5,24.9,1.8,36.9,5.8c0.3,4.5-0.3,9.1,0.9,13.6c-1.2,1.1-2.7,1-4.1,0.7c-4.4-0.7-8.7-0.1-13.1,0.3
		c-18.2,1.9-26.3,13.8-28,30.4c-2.3,21.9,0.8,43.4,7.4,64.4c1.8,5.7,4.7,10.7,9.3,14.6c4.5,3.8,7.3,4.2,12.4,1.1
		c10-6,16.3-15.4,20.9-25.7c8.3-18.8,13.4-38.6,15.4-59.2c0.2-1.7,0.1-3.6,1.5-5c6.4-1.2,11.4-3.8,13.3-10.8
		C559.9,216,559,213.6,558.7,211z"/>
	<path class="st2" d="M545.9,229.7c-1.1,18.7-5.1,36.7-11.5,54.4c-3.8,10.4-8.6,19.9-15.7,28.5c-4,4.8-8.7,8.1-14.3,10.4
		c-3.4,1.4-6.3-0.8-8.8-2.7c-5-3.9-8.3-9.1-10.2-15c-3.7-11.3-6.5-22.8-7-34.8c-0.3-7-2.2-14-1.8-21.1c0.6-10.3,1.8-20.4,7.8-29.4
		c5.2-7.7,12.7-10.2,21.1-12c6.3-1.3,12.4-1.1,18.7,0.1c0.3,1.3,0.6,2.6,1,3.9c-1.3,1.3-3,1.2-4.6,0.9c-5.1-1-10-0.2-15,0.5
		c-10.8,1.5-17.2,7.8-20,18c-2.7,9.8-3.3,19.9-2.7,30c0.8,11.8,2.1,23.6,5,35.2c1,3.9,2.1,7.8,3.9,11.3c-0.9-12-2.3-24.1-1.9-36.3
		c0.3-10.9,1-21.8,3.1-32.5c3-15.1,14.2-24.1,29.6-23.6c1.3,0,2.6,0.3,3.6,1.3C530,225.3,536.5,229.6,545.9,229.7z"/>
	<path class="st3" d="M526.2,216.8c-5.7-0.1-11.3,0.8-16.6,2.6c-9.6,3.3-13.6,11.2-15.2,20.3c-2.4,13.7-3.9,27.6-2.9,41.5
		c0.8,10.4,0,21,3.2,31.8c-3.3-2.6-5.9-7.6-7.3-13.2c-2.6-10.7-4.1-21.5-5.1-32.4c-1.1-12.4-1-24.5,2.1-36.5
		c2.9-11.3,10.1-17.3,21.7-19.2c6.5-1,12.8-0.5,19.2,0.1C525.6,213.5,525.9,215.2,526.2,216.8z"/>
	<path class="st4" d="M542.6,189.3c9.3,5.4,11.4,13.9,13,22.6c0.4,2.4-0.8,4.2-3.2,4.7c-2.8,0.5-5.6,0.2-7.4-2.4
		c-1-1.5-1.7-3.3-1.1-5.1C546,202.8,544.5,196.5,542.6,189.3z"/>
	<path class="st2" d="M577.1,234.5c3.4,9,2,17.5-2.2,26c-6.6,13.4-12.2,27.4-20.9,39.7c-4.8,6.8-9.2,13.9-14.7,20.3
		c-1.7,2-3.8,5.2-6.5,4.3c-3.4-1.2-3.9-4.9-3.5-8.3c1-7.8,2.9-15.4,5.2-22.9c5.8-18.9,12.1-37.6,21.2-55.2c1.7-3.3,3.4-6.6,6.7-8.7
		c0.2,4.5,3.4,5.4,7,6c2.2,3.5,1.5,7.3,0.7,10.9c-3.8,16.4-10.2,31.9-18.2,46.7c-4.3,7.9-8.9,15.6-12.6,19.6
		c3.2-3.6,7.7-10.7,12.3-17.7c7.8-11.7,14-24.2,19-37.3c2.3-5.9,4.3-12,2.7-18.5c-0.3-1.3-0.1-2.6,0.9-3.6
		C575.2,235.2,576.2,234.9,577.1,234.5z"/>
	<path class="st3" d="M574.2,235.5c2.9,13.1-2.9,24.3-8.1,35.6c-7.9,17-18,32.5-30.1,46.8c-0.3,0.3-0.8,0.6-1.7,0.5
		c1.5-2.3,2.9-4.8,4.5-7c13.6-18.1,22.1-38.7,28.9-60.1c1.6-5.2,1.8-10.5,1.6-15.9C571,235.5,572.6,235.5,574.2,235.5z"/>
	<path class="st4" d="M585.2,200.4c7.1,9.8,6.4,13.5,2.6,21.4c-0.9,1.9-2.5,3.2-4.5,4.2c-1.3,0.6-2.4,0.9-3.5-0.2
		c-1.1-1-2.1-2-1.4-3.8c0.6-1.5,0.8-3.3,1.8-4.4C584.4,212.7,584.3,206.7,585.2,200.4z"/>
	<path d="M543.1,241c-2.1,8.8-4.4,17.7-10.6,24.7c-3.9,4.4-6.5,3.6-9.3-1.7c-4-7.5,0-14.1,1.9-20.9c1-3.8,3.8-6.7,7.2-8.6
		c2-1.2,4.3-3.4,6.9-1.4C541.6,235,543.5,237.4,543.1,241z"/>
	<path d="M566.5,246.5c-1.8,8.2-4,17.1-11.1,23.7c-1.5,1.4-3.3,3.4-5.8,1.7c-2.2-1.5-2-3.6-1.5-6c1.7-7.8,3.3-15.6,7.1-22.8
		c1.6-3,3.8-5.2,7-4.6C565.7,239.1,566.4,242.4,566.5,246.5z"/>
	<path class="st2" d="M532.2,240.1c-0.1-2.9,1.1-4.9,3.8-4.6c3.9,0.4,5.2,3.5,4.9,6.9c-0.2,3.1-0.3,6.7-4.3,7.6
		C534.4,250.4,532.1,244.8,532.2,240.1z"/>
	<path class="st5" d="M530.3,260.9c-0.1,1.8,0.4,3.9-1.6,4.4c-1.9,0.5-2.7-1.3-3.4-2.8c-0.9-1.7-2-3.3-1.9-5.4
		c0.1-1.6-0.2-3.4,1.9-4c1.9-0.5,3.2,0.9,3.7,2.4C529.6,257.3,530.7,259.1,530.3,260.9z"/>
	<path class="st2" d="M564.5,245.6c0,1.4-0.4,2.7-0.8,4.1c-0.5,2.1-1.4,4.2-3.3,4c-2.2-0.3-3.5-2.8-3.7-5c-0.4-3.4,1.8-6.1,4.5-7.2
		C564.6,240.2,564.4,243.4,564.5,245.6z"/>
	<path class="st5" d="M555.7,263.6c-0.1,3.3-0.3,6.3-3.1,6.5c-2.3,0.1-3.1-2.6-2.7-4.9c0.4-2.3,0.1-5.7,2.9-6
		C555.3,259,555.9,261.9,555.7,263.6z"/>
</g>
</svg>
