<?xml version="1.0" encoding="utf-8"?>
<!-- Generator: Adobe Illustrator 23.0.1, SVG Export Plug-In . SVG Version: 6.00 Build 0)  -->
<svg version="1.1" id="Layer_4" xmlns="http://www.w3.org/2000/svg" xmlns:xlink="http://www.w3.org/1999/xlink" x="0px" y="0px"
	 viewBox="0 0 1000 1000" style="enable-background:new 0 0 1000 1000;" xml:space="preserve">
<style type="text/css">
	.st0{fill:#6E3720;}
	.st1{fill:#FB9A7A;}
	.st2{fill:#FEFEFE;}
	.st3{fill:#C0FEFE;}
	.st4{fill:#7F7F7F;}
	.st5{fill:#00407F;}
</style>
<g>
	<path class="st0" d="M631.7,294.9c0.7,4.7,1.2,9.3,0.2,14.2c-1.4,6.6-5.3,11.4-9.4,16.2c-8.8,10.2-20,17.4-30.7,25.3
		c-9.2,6.8-18.8,13-29.3,17.4c-4.8,2-6.6,5.6-7.6,9.8c-1.1,4.2-2.2,8.3-6.1,10.8c-1.7,1.1-0.2,1.8,0.1,2.7c2.5,8,7.8,14.4,12.5,21.2
		c9.5,13.6,19,27.3,31.2,38.7c6.1,5.7,12.5,11.2,17.6,17.8c5.4,7,8.7,14.7,6.1,23.9c-2.6,9.1-10.4,12.6-18.2,14.4
		c-12.5,2.9-25.4,3.9-38.3,3.3c-21.6-1-41.7-7.3-60.6-17.8c-14.2-7.9-27.3-17.1-38.6-28.8c-16.1-16.8-26.1-37-30.8-59.6
		c-3.2-15.8-2.5-31.8,1-47.6c3.3-15,6.7-30,9.4-45.1c3.3-18.1,9.3-35.3,15.5-52.6c5-13.9,12.1-26.6,21.1-38
		c7.7-9.7,18.3-16.1,31-18.1c14.4-2.2,28,1.5,41.5,5.8c15,4.8,27.7,13.8,40.4,22.7c-0.9,3.4-2.4,6.3-6.3,6.9
		c-8.9-5.6-17.1-12.3-27-16.5c-11.8-5-23.8-9-36.6-9.7c-16.6-0.9-28.8,6.9-38.3,20.1c-12.5,17.1-19.7,36.6-25.2,56.8
		c-7,25.8-12.5,51.9-16.3,78.3c-4.6,32.3,4.6,61.1,24.7,86.5c9.2,11.6,21,20,33.4,27.3c14.2,8.4,29,15.6,45.6,17.9
		c16.9,2.4,33.7,2.1,50.3-2.3c1.7-0.5,3.5-0.9,5.1-1.7c7.4-3.2,9.2-8.2,5.3-15.3c-3-5.5-7-10.1-11.6-14.3
		c-18.5-16.5-34.7-35.2-48.1-56.1c-1.9-3-3.7-6.2-4.8-9.6c-1-3-2.6-4.3-6.1-4.2c-13.6,0.3-24.6-5-33.1-15.6
		c-4.1-5.2-9-9.9-13.1-15.1c-4.9-6.3-11.2-10.3-18.2-13.5c-1.6-0.7-3.2-1.5-4.9-2.3c-2.2-1-5.8-1.4-5.6-3.9c0.2-3.1,4-3.5,6.6-4
		c9.8-1.7,17.6,2.9,24.2,9c7.4,6.8,14.1,14.4,20.4,22.3c4.3,5.3,10,8.4,16.2,10.3c7.3,2.2,13.6-0.4,16.5-7.4
		c3.6-8.9,9.7-14,18.5-17.9c15.3-6.7,28.3-17.3,40.9-28c4.8-4.1,9.9-7.9,13.8-13.1c3.8-5,6.2-10.3,5-16.7c-0.2-1.1-0.2-2.3,0.6-3.2
		C625.1,295.5,628.1,293.7,631.7,294.9z"/>
	<path d="M584.1,238.3c1.9-2.2,3.8-4.5,5.7-6.7c10-5.8,18.7-0.6,20.5,12.2c0.5,3.6,0.7,7.3,1.1,11c2,4.1,1.1,8.2,0,12.4
		c-1,3.4-1.7,7-4.3,9.6c-4.6,4.8-10.2,5.8-16.4,3.7c-9.3-3.7-14.2-10.4-13.9-20.6c0-1.8,0.3-3.6,0.8-5.3c0.2-1.5,0.2-3,0.6-4.5
		C580.1,246.2,580.4,241.4,584.1,238.3z"/>
	<path d="M631.7,294.9c-3.2,0.9-6.3,2.4-9.7,2.1c-1,0.9-2.2,1-3.4,0.7c-1.1-0.3-2.3-0.6-3.4-0.9c-1.8-0.6-3.5-1.4-5.1-2.4
		c-2.6-2.2-5.2-4.4-5.3-8.2c0.9-5.4,4-9.4,7.8-13.1c2.6-2,4.3-5.3,7.7-6.4c3.8-3.6,7.6-7.3,13.5-7c4.1,0.2,6.6,1.9,8.1,6
		C646.2,278.1,641.3,288.2,631.7,294.9z"/>
	<path class="st0" d="M620.1,266.8c-2.2,2.2-4.5,4.5-6.7,6.7c-2.5-1.2-3.7-3-3.1-5.9c0.5-4.3,1.3-8.5,1.1-12.8
		C615.1,258.3,616.8,263.1,620.1,266.8z"/>
	<path class="st1" d="M610.3,267.6c0.2,2.4,2.4,3.8,3.1,5.9c-3.7,3.6-6.3,7.8-8.1,12.6c-11.2,8.7-21.7,18.2-31.6,28.2
		c-10.5,10.7-19.5,22.7-29,34.3c-1.6,2-2.8,4.4-3.6,6.9c-0.5,1.7-1.1,3.6,0.3,5.1c1.6,1.7,3.4,0.6,5,0c5.1-2.1,9.9-5,14.6-7.9
		c15.9-9.9,30.6-21.4,43.8-34.8c5.3-5.4,10.2-11,11.9-18.7c0.2-0.9,0.6-1.9,1.6-2.4c1.2,0,2.4,0.1,3.7,0.1
		c3.7,12.1-3.3,20-11.2,27.2c-12.3,11.3-25.8,21.2-39.8,30.2c-5.5,3.5-11.5,5.6-17.3,8.4c-2.4,1.2-4.2,2.6-5.3,5.2
		c-1.2,3-3.3,5.6-4.3,8.7c-2.3,7.4-11.9,9.5-17.8,7.6c-8-2.6-14.1-7.4-19.7-13.8c-8.1-9.2-14.9-20.3-26.8-25.4
		c-8.5-3.7-10.5-5-20.5,0.2c6.7,3.2,13.4,6.2,19.8,9.7c6.4,3.5,9.9,10,14.9,15.1c6.9,7,11.9,15.8,21,20.4c6.8,3.5,14.1,4.4,21.5,4
		c2.1-0.1,2.8,0.5,3.5,2.1c7.7,18.8,20.8,33.8,34.2,48.6c6.6,7.3,13.4,14.5,20.9,20.9c5.1,4.3,9,9.7,11.8,15.7
		c2.7,6,0.8,10.7-5.2,13.9c-6.5,3.5-13.8,4.2-20.8,5.3c-14.5,2.3-29,1.5-43.2-1.6c-19.1-4.2-35.9-13.6-51.9-24.6
		c-17.3-11.8-29.6-27.6-38.2-46.7c-5.6-12.4-8.1-25.1-9.4-38.5c-1.4-13.3,1-25.9,3.4-38.6c3.4-18.4,7.2-36.7,11.7-54.8
		c4-16.1,8.8-32.2,16.6-47c4.9-9.4,10.2-18.8,18-26c10-9.3,21.9-13.4,36.3-11.5c15.1,2.1,28.9,7.1,42.1,14.1
		c6.5,3.4,12.4,7.9,17.9,12.8c-1.7,3.9-3.3,7.8-5,11.8c-2.1,1.2-3.8-0.1-5.5-1c-6.5-3.3-13.5-4.9-20.6-5.5
		c-8.4-0.7-15.1,2.9-20.3,9.4c-7.7,9.5-12.6,20.4-17.1,31.6c-5.4,13.6-8,27.7-9.4,42.2c-0.3,2.6-0.1,5.2,0.6,7.7
		c3.1,12.4,10.4,16.3,22.1,11.2c14.6-6.5,26.2-16.8,36.1-29.1c9.4-11.8,18.2-24.1,25.8-37.2C599.2,281.4,606.5,280.3,610.3,267.6z"
		/>
	<path class="st2" d="M590.8,279.5c-0.5,5.2-4,9-6.7,13.1c-9.5,14.2-19.1,28.4-32.2,39.7c-7.5,6.5-15.6,12.2-25.2,15.8
		c-13,4.9-17.8-3.5-20.9-11.9c-2.4-6.6-0.5-13.2,0.3-19.6c2.4-19.3,9-37.5,18.6-54.3c5.1-8.9,11-17.9,22.4-19.6
		c9-1.3,17.5,1.5,25.7,4.8c2.1,0.8,4.1,1.8,6.2,2.7c-0.1,1.6-0.1,3.2-0.2,4.7c-1.8,0.6-3.2-0.4-4.5-1.2c-4.7-2.8-9.8-4.3-15-5.8
		c-10.1-2.9-17.5,1.1-24,8.6c-10.2,12-15.7,26.1-19.6,41c-3.1,11.4-5.4,23-5.8,35.2c5.9-24.6,15.4-47.3,30.5-67.3
		c8.3-11,23.7-13.7,35.6-7.2c0.7,0.4,1.2,1,1.8,1.6C577.6,269.4,582.4,275.6,590.8,279.5z"/>
	<path class="st3" d="M578,259.8c-1.8-0.6-3.7-1.1-5.5-1.8c-16-6.2-28.1,2.2-35.7,14.3c-8.5,13.6-15.2,28.2-20.7,43.3
		c-2.4,6.7-3.2,13.8-5.6,20.8c-3.5-5.7-1.2-11.4-0.5-16.7c2.4-16.5,6.6-32.6,13.8-47.8c3.3-6.9,7.8-13.2,12.9-18.7
		c5.1-5.4,11.5-9,19.9-7.3c8.1,1.6,15.5,4.4,22.4,8.9C577.9,256.3,578.3,258.1,578,259.8z"/>
	<path class="st4" d="M603.6,242.1c5.3,7.7,4.1,15.6,3.3,23.3c-0.4,4.1-3.9,5.9-7.2,4.7c-3.6-1.3-5-4.8-3.4-8.6
		c1.6-4,4.7-7.2,5.7-11.5C602.7,247.6,603.8,245.3,603.6,242.1z"/>
	<path class="st2" d="M618.3,296.8c-1,7.7-4.8,13.8-10.1,19.3c-17.4,18-37,33.1-59.3,44.6c-2.5,1.3-5.5,4-8.3,1.4
		c-3-2.8-1.1-6.3,0.3-9.4c2.9-6.6,8.1-11.6,12.7-17c7.3-8.6,13.8-18,22.4-25.5c8.4-7.3,16-15.5,25-22.2c1.3-1,2.6-1.9,4.3-2
		c0.4,3.5,3.4,5.2,5.1,7.7c-0.9,6.7-3.8,12.5-8.4,17.3c-11.7,12-23.6,23.8-37.2,33.6c-5.1,3.7-10.7,6.8-14.8,9.4
		c15-7.9,30.3-17.9,43.7-30.4c8-7.5,16.3-15.1,19.9-26.1c0.3-0.8,0.9-1.3,1.7-1.6C616.3,296,617.6,295.3,618.3,296.8z"/>
	<path class="st3" d="M615.2,296.1c-3.8,13.1-13.6,21.6-23.1,30.5c-8.5,8-18.2,14.5-28,20.8c-5.8,3.7-12.1,6.7-18.4,9.7
		c1.6-3.2,4.7-4.6,7.5-6.2c18.8-11.1,34-26.3,49.1-41.8c3-3.1,5.1-7.1,6.1-11.5c0.3-1.5,0.8-2.8,2-3.7
		C612.3,294,613.7,295.2,615.2,296.1z"/>
	<path class="st4" d="M637.9,268.9c3.8,11.1,0.3,18.9-9,21.7c-1.9,0.6-4,1.2-5.3-0.7c-1.4-2,0.2-4.1,1.5-5
		C630.7,280.6,635.2,275.6,637.9,268.9z"/>
	<path d="M551.8,308.3c-0.2-2.6,0.7-5,1.9-7.2c3.7-6.5,8.7-11.7,15.5-14.9c3.1-1.4,6.5-2.4,9.2,0.7c2.9,3.3,2.1,7.1-0.3,9.9
		c-5.2,6.1-10.4,12.4-17.2,16.7C555.4,317,551.8,314.7,551.8,308.3z"/>
	<path d="M598.6,303.8c0.1,5.6-3,8.7-5.6,11.6c-4.3,5.1-9.6,9.2-15.7,12.1c-1.8,0.9-3.3,0.9-4.8-0.6c-1.5-1.5-1.7-3-0.7-4.8
		c5-8.8,10.9-16.8,20.2-21.4C596.3,298.7,598.6,300.2,598.6,303.8z"/>
	<path class="st2" d="M575.5,288.1c1.1,0.1,2.7,1.4,2.6,4.1c0,3.1-4.3,8.9-6.4,8.5c-3.2-0.6-3.5-3.2-3.3-5.9
		C568.6,290.6,570.7,288,575.5,288.1z"/>
	<path class="st5" d="M560.6,304.6c-0.1,3.8-0.9,6.9-3.8,7.5c-2.3,0.4-3.4-2.2-3-4.5c0.4-2.9,0.3-6.9,4-7.3
		C560.2,300,560.8,303.1,560.6,304.6z"/>
	<path class="st2" d="M587.9,310.3c0.1-3.8,3.5-7.9,6.5-7.5c1.5,0.2,2.3,1,2.3,2.6c-0.1,2.4-5.5,9.4-7.1,9
		C587.6,313.7,587.9,311.9,587.9,310.3z"/>
	<path class="st5" d="M581.1,319.6c-0.5,2.7-1.9,5.4-4.9,6.2c-1.4,0.4-3.1-1.4-2.8-3.2c0.5-3.2,2.7-5.8,5.5-6.8
		C580.9,315.1,581,317.6,581.1,319.6z"/>
</g>
</svg>
