<?xml version="1.0" encoding="utf-8"?>
<!-- Generator: Adobe Illustrator 23.0.1, SVG Export Plug-In . SVG Version: 6.00 Build 0)  -->
<svg version="1.1" id="Layer_4" xmlns="http://www.w3.org/2000/svg" xmlns:xlink="http://www.w3.org/1999/xlink" x="0px" y="0px"
	 viewBox="0 0 1000 1000" style="enable-background:new 0 0 1000 1000;" xml:space="preserve">
<style type="text/css">
	.st0{fill:#6E3720;}
	.st1{fill:#FB9A7A;}
	.st2{fill:#FEFEFE;}
	.st3{fill:#C0FEFE;}
	.st4{fill:#7F7F7F;}
	.st5{fill:#00407F;}
	.st6{fill:#004080;}
</style>
<g>
	<path class="st0" d="M634.6,301.7c1,10.3-1.1,19.9-7.9,27.7c-4.6,5.3-10.2,9.7-15.8,14.1c-9.4,7.3-18.6,14.7-29.1,20.6
		c-5.7,3.2-11.4,6.2-17.5,8.4c-4.6,1.7-6.9,5.1-7.6,9.5c-0.7,4.3-2.4,7.9-5.6,10.7c-2.4,2.1-2.6,4-1,6.6
		c6.1,10.4,12.3,20.7,20.2,29.9c7.5,8.8,13.6,18.7,22.4,26.3c8.2,7,15.9,14.4,21.6,23.7c6.5,10.5,1,27.2-12,30.8
		c-13.9,3.8-28,5.3-42.3,4.6c-15.9-0.7-31.3-3.9-46.1-10.4c-14.8-6.4-28.3-14.8-41.4-23.8c-10-6.8-17.5-16.3-24-26.5
		c-7.9-12.3-14-25.5-17.4-39.7c-2.5-10.3-2.8-20.7-1.8-31.4c1.7-18.5,7.3-36,10.9-54c3.9-19.2,7.7-38.4,14.6-56.8
		c6.1-16.2,13.1-32.1,24.3-45.3c8.1-9.5,18.8-15.5,31.4-17.6c23.9-4,44.4,5.3,64.7,16.1c6.4,3.4,11.4,8.5,17.4,12.4
		c-0.8,3.5-2.7,6-6.4,6.8c-5.7-3.4-10.6-8-16.5-11.3c-13.3-7.5-27.2-14.1-42.4-15.2c-17.1-1.2-32.5,3.7-43.1,18.7
		c-10.2,14.5-17.2,30.6-22.2,47.5c-8.8,29.8-15.7,60.1-20.8,90.8c-4,24.1,1.1,46.3,13,67.5c11.1,19.8,28,33,47,44.3
		c16.5,9.7,34.2,15.4,53.3,17.3c13.5,1.3,26.6-0.3,39.6-3.2c1.3-0.3,2.5-0.7,3.7-1.1c8.8-3.5,10.7-8.6,6.1-16.8
		c-2.4-4.3-5.5-8.1-9.2-11.3c-18.3-16-34-34.5-48.5-53.9c-3-4.1-5.3-8.6-7.7-13c-1.4-2.6-3.2-3.9-6.2-3.9
		c-10.4,0.1-18.8-4.4-25.9-11.7c-3.6-3.7-7.5-7.3-10.5-11.5c-5.4-7.5-12.8-12.4-21.2-15.8c-2.3-0.9-4.6-1.7-6.8-2.8
		c-1.4-0.7-3.5-1.2-3.2-3.2c0.2-1.7,2.2-2.3,3.8-2.7c10.2-2.1,19.4,0.2,27.3,7c5.6,4.8,10.2,10.5,14.5,16.4
		c4.6,6.4,11.1,9.9,18.7,11.5c7.9,1.6,14.9-1.3,17.3-8.9c2.9-9.2,9.2-13.1,17.5-16.4c13.1-5.2,23.9-14.5,35-22.8
		c5.1-3.8,9.9-7.9,14.5-12.3c5.5-5.2,8.7-11.3,9.7-18.6c0.3-1.9,0.2-3.9,1.5-5.6C628,302.2,631,300.4,634.6,301.7z"/>
	<path d="M587.1,244.2c1.9-2.2,3.8-4.5,5.7-6.7c8.8-5.3,11.7-3.6,17.2,5c3.4,5.4,4.7,11.7,4.4,18.2c1.9,4.4,0.5,8.6-0.5,12.9
		c-0.9,3.6-2.2,7.2-4.7,9.9c-4.2,4.6-9.4,6-15.3,3.6c-9-4.7-15.2-11.2-14.8-22.2c0.4-1.9,0.8-3.8,1.2-5.7c0.2-0.9,0.5-1.9,0.7-2.8
		C582.7,252.1,582.4,246.9,587.1,244.2z"/>
	<path d="M634.6,301.7c-3.2,0.8-6.3,2-9.7,2.1c-1.6,1.2-3.2,0.4-4.8,0.2c-1-0.1-1.9-0.3-2.8-0.6c-2-0.8-3.9-1.8-5.8-2.9
		c-3.2-2.3-5.5-5-5-9.3c2-5.1,6-8.8,9-13.3c2.2-2.3,4.5-4.5,7.6-5.4c2.5-1.6,4.8-3.5,7.4-4.9c7.3-3.8,12.9-0.9,15,7.2
		C648.5,286.3,643.2,295.9,634.6,301.7z"/>
	<path class="st0" d="M623.1,272.6c-1.6,2.7-4.7,3.5-6.7,5.8c-2.7-0.5-2.8-3.1-3.9-4.8c1.3-4.2,2-8.5,2-12.9
		C617.3,264.7,620.2,268.6,623.1,272.6z"/>
	<path class="st1" d="M612.4,273.6c2.1,1,2.4,3.4,3.9,4.8c-3,4.2-6.1,8.4-9.1,12.7c-3.2,5.5-8.5,8.9-13,12.9
		c-17.4,15.5-33.9,31.7-47.3,50.8c-1.5,2.1-2.7,4.4-3.6,6.9c-0.5,1.4-1,2.9,0.2,4.1c1.3,1.2,2.7,0.6,4.1,0.1
		c8.9-3.4,16.8-8.4,24.6-13.7c12.1-8.2,23.3-17.6,34.2-27.4c5.8-5.2,10.6-11,12.2-18.9c0.2-1.1,0.6-2.2,1.5-3
		c1.6,0.3,3.2,0.6,4.8,0.9c0.7,13-6.3,21.9-15.5,29.6c-11.2,9.3-23.1,17.7-35.4,25.8c-4.6,3-9.7,5.1-14.8,6.9
		c-4.8,1.7-7.9,4.1-9.6,9.4c-3.6,11.1-7.3,14.3-18.9,14c-5.5-0.2-10.3-3-15-6c-4.9-3.2-7.5-8.3-11-12.6c-8.1-9.9-17.2-18-31.2-17.5
		c-3,0.1-5.7,1-8.8,2.5c5.3,2.3,10.3,4.3,15.2,6.5c8,3.5,13.7,9.7,19.2,16.4c6.3,7.7,12.9,15.3,22.8,18.9c2.2,0.8,4.9,1.6,6.5,1.3
		c8.9-1.7,11.4,4.4,14.6,10.4c5.5,10.4,13.4,19.2,21,28.1c8.6,10.1,17.4,20.2,27.3,29c6.3,5.6,12,11.5,15.9,19.1
		c2.2,4.2,0.1,9.9-3.3,12.3c-4.9,3.5-10.6,4.8-16.2,5.6c-7.3,1.1-14.6,2.4-22.1,2.2c-25.1-0.5-48.3-7.5-69.5-20.9
		c-8.7-5.5-17.2-11.5-24.7-18.3c-7.4-6.7-13.1-15.3-18.4-24c-10.1-16.9-14.8-35.2-14.4-54.6c0.3-12.1,3-24.1,5.5-36
		c3.9-18.5,8-36.9,12.9-55.1c5.9-22.2,13.6-43.8,27.3-62.6c6.7-9.2,16.1-13.8,26.9-16.6c12.2-3.1,23.7-0.9,35.2,3.2
		c13.6,4.8,26.2,11.2,37.5,20.2c1.1,0.9,2.3,1.7,3,3c-2.6,3.9-3.8,8.3-5.2,12.6c-1,0.4-2,0.2-2.8-0.4c-6.7-4.4-14.5-5.5-22.2-6.8
		c-5.7-1-10.8,0.3-15.6,3.8c-10.1,7.5-15.7,18.1-20.3,29.3c-6.3,15-11,30.6-12.6,46.9c-0.6,5.9,0.5,11.4,3.2,16.5
		c2.9,5.5,7.7,7.5,13.9,6.6c7.7-1.2,14-5.2,19.9-9.9c18.5-14.8,33-33.1,45-53.4c0.8-1.4,1.1-3.6,3.5-3.5
		C604.7,288,610.3,284.2,612.4,273.6z"/>
	<path class="st2" d="M593.8,286c-6.7,12.1-14.9,23.2-23.4,34.1c-5,6.4-11.1,11.9-17,17.4c-4.2,3.9-8.7,7.7-13.6,10.7
		c-6.6,4.2-13.7,8-22.1,5.3c-8.6-2.8-11.8-16.4-10.8-24.5c1.3-10.4,3.4-20.6,6.8-30.4c5.2-14.9,10.3-29.7,21.5-41.6
		c8-8.6,17.1-10.5,28-7.7c6.5,1.7,13.1,3.4,18.6,7.5c0.2,0.8,0.4,1.7-0.7,2c-2.1,1.3-3.8-0.1-5.5-0.9c-6.2-3.1-12.8-4.8-19.7-5.4
		c-8.2-0.8-13.7,4.1-18.7,9.7c-8.6,9.7-12.5,21.9-17,33.8c-4.5,11.6-6.4,23.8-8.1,36.1c-0.2,1.8-0.1,3.5,0.3,6.3
		c4.3-22.8,13.3-42.7,25.3-61.2c5.5-8.5,12.1-16,23-17.3c6.9-0.9,13.6-0.2,19.2,4.7C579.8,274.8,585.8,281.1,593.8,286z"/>
	<path class="st3" d="M579.9,264.7c-6.5-2.3-12.8-4.8-20.2-3.3c-9.9,2-15.7,8.8-20.7,16.4c-12.3,18.7-21.2,38.9-25.4,61
		c-0.1,0.7-0.6,1.4-1.2,2.6c-3.5-8.3-0.4-16,0.8-23.5c2.6-16.4,8.7-31.8,16.3-46.6c3.6-7,8.5-13.4,15.7-17.5
		c10.2-5.9,19.7-0.9,29.3,2.2c2.3,0.7,4.5,1.9,6.7,2.9C580.8,260.8,581.6,263,579.9,264.7z"/>
	<path class="st4" d="M607,248.1c3.8,7.8,4.4,15.6,2.4,23.6c-0.5,2.1-0.9,4.6-4,4.7c-2.4,0.1-4.4-0.7-5.8-2.8
		c-1.6-2.4-1.1-4.7,0.4-6.7C604,261.4,605.3,255,607,248.1z"/>
	<path class="st2" d="M620.1,302.9c-0.5,10.2-6.5,17.3-13.6,23.6c-10.6,9.4-21.5,18.4-33.2,26.5c-8.4,5.8-17.1,10.9-26.5,14.7
		c-1.6,0.7-3.1,0.6-4.5-0.7c-1.4-1.4-1.1-2.6-0.6-4.3c2.4-8.2,8.3-14.2,13.3-20.5c6.3-8,12.8-15.9,20.5-22.6
		c10.7-9.4,20.5-19.7,31.7-28.5c-0.2,4,1.9,6.8,5,8.9c1.5,4-1.3,6.7-3.2,9.6c-5.9,9.2-14,16.5-21.7,24.1c-2.3,2.3-4.5,4.6-6.9,6.8
		c-1.5,1.4-3,3.1-5.5,2.4c-1.1-2.1,0.4-3.3,1.4-4.7c1.8-2.5,3.4-5.1,4-8.2c0.3-1.3,0.3-2.6-0.9-3.6c-1.3-1.1-2.5-0.3-3.6,0.2
		c-3.7,1.8-6.8,4.3-9.4,7.5c-3.1,3.7-6.2,7.5-9.3,11.2c-1.1,1.3-2.9,2.7-1.5,4.6c1.2,1.6,3.1,1.5,4.9,0.8c1.2-0.5,2.4-1,3.7-0.2
		c0.6,1.4-0.3,2.2-1.2,2.9c-4.8,3.8-10.4,6.2-14.3,8.6c4-2.1,9.5-4.8,14.5-8.2c14.6-9.8,28.6-20.3,40.7-33.2
		c4.3-4.5,8.3-9.1,10.6-15c0.5-1.2,0.9-2.5,2.4-2.9C618.2,302.7,619.1,302.8,620.1,302.9z"/>
	<path class="st3" d="M617.3,302.7c-4,13.6-14.9,21.9-24.7,30.7c-12.5,11.1-26,21.4-41.5,28.3c-1.4,0.6-2.6,2.1-4.5,1.3
		c5.6-4.7,12.8-7,17.8-12.4c2.6-3.9,6.2-6.5,10.7-7.8c1.4-0.8,3-1.4,4-2.5c9.3-9.8,19.9-18.4,27.8-29.6c2.3-3.3,4.6-6.6,5.4-10.6
		C614,300.7,615.9,301.2,617.3,302.7z"/>
	<path class="st4" d="M641.2,274c0.8,4.3,2,7.4,1.2,10.7c-1.7,6.9-7,9.8-13,12c-1,0.4-1.9,0.2-2.7-0.6c-0.9-1-0.8-2-0.3-3.1
		c0.7-1.7,1.8-3.2,3.2-4.1C634.9,285.5,638.6,280.8,641.2,274z"/>
	<path d="M536.1,336c1.1-9.6,13-22.2,21.7-23.4c2.6-0.4,4.8,1,6.2,2.9c1.4,1.9,2.4,4,0.6,6.5c-5.4,7.8-11.9,14.5-20,19.5
		c-1.7,1-3.6,2.3-5.7,0.6C536.6,340.3,537,337.6,536.1,336z"/>
	<path d="M575.1,342.7c-3.6,2.6-7.2,5.2-10.7,7.8c-2.8,0.1-5,3.6-8.4,1.2c-2-1.4-3.1-2.3-1.4-4.4c6.5-8,11.7-17.2,21.4-22.1
		c1.3-0.6,2.6-1.9,4.4-0.5c1.8,1.5,2.2,3.3,1.7,5.2c-1,3.7-2.8,7-5.3,9.8C575.9,340.7,575,341.4,575.1,342.7z"/>
	<path class="st2" d="M552.5,325.9c0.5-4,1.4-6.5,2.9-8.7c0.8-1.2,2.1-2.6,3.6-1.6c1.6,1.1,4.1,2.3,3.4,4.7
		c-0.7,2.5-1.2,5.2-3.5,7.1c-1.1,0.9-2.1,2.4-3.7,1.5C553.7,328.1,552.3,326.8,552.5,325.9z"/>
	<path class="st5" d="M544.9,332.8c0,2.9-1.1,5-3.1,6.5c-0.8,0.6-1.6,0.3-2.1-0.4c-1.5-2.1-2.3-4.2-0.8-6.7c0.1-0.1,0-0.3,0.1-0.5
		c0.7-1.7,0.8-4.6,3.1-4.2C544.6,328,544.8,330.8,544.9,332.8z"/>
	<path class="st2" d="M571.3,336.3c0-0.8,0-1.2,0-1.5c0.5-3.7,3-5.7,6-7.4c1.2-0.7,2.1,0.1,2.4,0.9c1.2,3-0.7,5.1-2.5,7.2
		c-0.5,0.6-0.6,1.5-1.2,2c-1,0.9-1.7,2.9-3.4,2.2C571.1,339,571,337.3,571.3,336.3z"/>
	<path class="st6" d="M562.8,341c1.3,0.8,2.9,1.7,2.5,3.6c-0.8,3.2-2.9,5.5-6.3,5.8c-1.8,0.2-2.4-1.4-2.3-3
		C556.7,345.8,561.3,340.9,562.8,341z"/>
</g>
</svg>
