<?xml version="1.0" encoding="utf-8"?>
<!-- Generator: Adobe Illustrator 23.0.1, SVG Export Plug-In . SVG Version: 6.00 Build 0)  -->
<svg version="1.1" id="Layer_4" xmlns="http://www.w3.org/2000/svg" xmlns:xlink="http://www.w3.org/1999/xlink" x="0px" y="0px"
	 viewBox="0 0 1000 1000" style="enable-background:new 0 0 1000 1000;" xml:space="preserve">
<style type="text/css">
	.st0{fill:#6E3720;}
	.st1{fill:#FB9A7A;}
	.st2{fill:#FEFEFE;}
	.st3{fill:#C0FEFE;}
	.st4{fill:#7F7F7F;}
	.st5{fill:#00407F;}
</style>
<g>
	<path class="st0" d="M629.7,293.9c1.9,7.9,3.2,15.8,0.2,23.9c-1.1,3-2.7,6.1-4.6,8.2c-6.6,7.4-13.2,14.8-21.1,21
		c-8.5,6.7-17.2,13.1-26.3,18.9c-3.6,2.3-7.3,4.6-11.3,6c-6.1,2.2-9,6.4-10,12.6c-1.3,8.1-6.5,12.9-14.2,14.8
		c-3.1,0.8-2,2.4-1.1,3.7c5.3,8.1,10.6,16.1,16.2,24c11.9,17,24.2,33.7,36,50.8c6.5,9.5,12.7,19.2,15.4,30.7
		c1.3,5.3-0.9,10.2-5.3,13.8c-9.9,7.8-21.5,6.4-32.8,5.4c-4.7-0.4-9.5-0.5-14.3-1.3c-18.2-2.8-35.1-8.7-51.3-17.5
		c-10.3-5.6-20.2-11.8-30.2-17.8c-14.8-9-25.8-21.6-34.7-36.2c-7-11.4-11-23.7-12.7-36.9c-2.2-16.3,0.4-32.2,2.9-48.2
		c4.6-28.8,10.2-57.4,17.9-85.4c5.6-20.3,12.8-40.3,27.2-56.9c9.3-10.7,20.2-16.6,34.3-17.9c24.1-2.1,45.1,6.3,65.1,18.2
		c3,1.8,5.9,3.7,8.8,5.5c-0.7,3.4-2.3,6.2-5.4,8c-6.6-3.1-12.4-7.7-19-10.8c-13.3-6.2-27-10.8-41.6-11.4c-16-0.7-28.8,5.7-38.1,19.4
		c-8.4,12.5-14.2,25.9-18.5,40.2c-10,33.6-16.2,68-22,102.5c-5.2,31.3,2.4,58.9,23.2,83c5.8,6.7,12.7,11.6,19.8,16.5
		c16.7,11.5,33.7,22.8,52.9,29.9c10,3.7,20.3,5.6,30.9,6.5c7.5,0.6,14.8,1,22.3,0c8.8-1.3,11.3-5.1,7.6-13.4
		c-5.1-11.3-12.4-21.4-19.7-31.3c-14-19.2-27.4-38.8-40.5-58.6c-4.6-6.9-8.7-12.6-17.3-14.5c-4.8-1.1-8.9-4.8-12-8.9
		c-7.2-9.7-17.1-15.3-28-19.7c-2.4-1-4.9-1.7-7.2-3.1c-2.3-1.4-2.6-2.9,0.2-4c3.7-1.4,7.5-2.1,11.5-1.6c8.7,1,16.2,4.3,22.2,10.9
		c4.5,4.9,9,9.9,14.9,13.2c5.9,3.3,12,4.9,18.7,2.9c3-0.9,5.5-2.5,6.2-5.6c2.4-11.5,10.2-17.1,20.2-22.3c14.2-7.2,26.9-17,38.4-28.2
		c3.9-3.8,8.6-6.9,11.7-11.7c4.3-6.8,7.4-13.8,5-22c-0.3-1.2-0.5-2.6,0.3-3.8C623.7,294.4,626.4,292.7,629.7,293.9z"/>
	<path d="M579,241.3c1.3-2.8,2.8-5.5,5-7.7c1.8-1.2,3.3-3,5.3-4c6.1-2.9,9.4-2.1,13.2,3.5c4.8,7.1,7.5,14.9,7,23.6
		c1.3,4.1,0.1,8-0.5,12c-3,10.2-8.8,14-18.3,12.1c-7.7-2.4-13.7-6.7-16-15c-0.8-2.3-0.8-4.6-0.8-7c0.1-1.3,0-2.6,0.3-3.9
		c0.7-3,0.8-6.1,1.7-9C576.4,244,576.9,242.1,579,241.3z"/>
	<path d="M629.7,293.9c-2.9,0.6-5.6,2.3-8.7,2.1c-1.5,1.3-3.2,0.8-4.9,0.4c-0.9-0.2-1.9-0.4-2.8-0.7c-1.8-0.6-3.5-1.2-5.2-2
		c-1.7-0.9-3.3-2-4.4-3.6c-2.7-4.8-0.2-8.7,2.2-12.7c0.9-1.5,2.1-2.9,3.4-4.2c2.7-2.1,4.4-5.4,7.9-6.5c3.6-2.6,6.6-5.9,10.6-8
		c3.6-1.9,6.7-1.5,9.3,1.9c5.1,6.7,5.3,13.8,2.2,21.3C637.3,286.9,634.3,291,629.7,293.9z"/>
	<path class="st0" d="M617.2,266.8c-2.2,2.2-4.5,4.5-6.7,6.7c-2.6-0.6-2-3.2-3-4.8c0.7-4,1.3-7.9,2-11.9
		C612.8,259.5,614.1,263.8,617.2,266.8z"/>
	<path class="st1" d="M607.5,268.7c1,1.6,2,3.2,3,4.8c-1.9,2.6-4.1,5.1-5.6,8c-1.4,2.6-2,5.5-0.4,8.4c-1.8,3.2-5.2,4.8-7.9,7
		c-10.5,8.6-18.8,19.3-27.7,29.4c-4.7,5.3-9.4,10.8-13.5,16.6c-1.1,1.4-2.3,2.8-3.2,4.4c-2.2,3.6-4.8,6.9-7.2,10.4
		c-1.1,1.6-2.1,3.3-2.4,5.3c-0.6,3.4,1.1,5,4.5,3.9c6.6-2.3,12.7-5.9,18.4-9.9c16-11.2,30.6-24,43.2-39c5-5.9,7.8-12.6,7.1-20.6
		c-0.1-0.8-0.1-1.6,0.5-2.3c1.5,1,3.2,0.8,4.8,0.9c4.9,13-0.6,23.3-9.3,32.1c-6.2,6.3-13.2,11.8-20.1,17.3
		c-10.8,8.7-22.2,16.4-34.9,22.1c-3.7,1.7-5.8,4.2-6.9,8c-0.7,2.3-1.7,4.5-2.6,6.7c-2.9,7.4-8.7,10.7-16.6,9.3
		c-7.1-1.3-13.2-4.7-18.4-9.8c-4.6-4.5-8.8-9.8-14.1-13.4c-6.9-4.8-17.3-7.1-28.1-2.7c7.3,3.4,14.4,6.5,21.3,9.9
		c6,3,10.8,7.3,14.9,12.7c5.4,7,12.6,11.3,21.3,13c1.6,0.3,2.9,0.4,3.9,2.3c7.4,14.9,18,27.6,27.3,41.3c9.8,14.5,20.3,28.4,30,43
		c4,6.1,8.2,12.3,10,19.6c1.5,6.3-1.6,10.3-8.1,11.2c-16.7,2.3-33.1,0.1-49.2-4.2c-11.6-3.1-22.3-8.9-32.7-15.1
		c-14-8.4-27.9-17.1-40.5-27.6c-6.5-5.4-11.5-12.1-16-19c-6.8-10.4-11.6-21.7-13.8-34.1c-1.7-9.7-2-19.4-1.1-29.3
		c1.6-16.8,5.3-33.2,8.3-49.7c3.2-17.6,7.3-35,12.2-52.3c2.9-10.3,6.3-20.5,10.3-30.4c3.5-8.6,9.1-16.1,14.8-23.6
		c5-6.6,11.3-11.1,18.9-13.3c10.2-3,20.7-2.5,30.9,0c16.8,4.1,32.7,10.4,46.4,21.3c-2.8,4.1-1.8,9.3-4,13.6
		c-6.3-0.8-12.1-3.3-18.3-4.6c-11-2.3-19.3,1.3-26.2,9.8c-8.9,11-13.9,23.7-17.5,37.2c-3,11.5-4.9,23.2-5.9,35
		c-0.4,4.4-0.1,8.8,1.5,13c3,7.5,9.4,10.8,17.2,8.6c5.2-1.5,10-3.9,14.3-7.1c20-15.1,34-35.2,46.1-56.7c1.9-3.4,1.6-7.7,4.4-10.7
		C597.5,282.2,606.1,277.7,607.5,268.7z"/>
	<path class="st2" d="M590.8,279.5c-0.8,7.9-4.9,14.4-8.9,21.1c-6.7,11.2-14.1,22-23.1,31.4c-9.6,10-19.5,20.4-34,23.6
		c-6.9,1.6-12.5-0.9-16.1-7.2c-3.1-5.3-3.2-11.1-2.7-16.9c1.5-16.8,4.8-33.3,10.6-49.2c3.5-9.6,8.7-18.3,15.7-25.8
		c6.3-6.7,13.9-9.4,23.1-7.4c6.7,1.4,13.6,2.2,19.7,6c0,1.3,0,2.6,0,3.9c-1.9,0.7-3.5-0.4-5.1-1.1c-5.7-2.7-11.8-3.7-17.9-4.2
		c-9.5-0.7-16.1,4.7-21,11.9c-9,13.4-13.8,28.7-16.8,44.4c-2,10.3-3.7,20.8-2.9,31.2c5.4-25.2,13.5-49.4,29.1-70.5
		c9.6-13,27.5-11.9,35.6-4.8C577.2,271.7,584,278.1,590.8,279.5z"/>
	<path class="st3" d="M576,265.6c-6.8-2.4-13.5-5-21.1-3.2c-9.9,2.3-14.9,9.8-19.5,17.6c-11.1,18.8-18.2,39.2-22.6,60.6
		c-0.2,0.8-0.4,1.6-0.6,2.3c-0.2,0.6-0.5,1.2-0.8,2.2c-1.7-5.3-1.8-10.3-1.3-15.3c0.6-5,1-10,1.8-14.9c3.1-17.6,8.2-34.6,17.8-49.9
		c4.7-7.5,16.5-15.3,26.3-12.5c6.5,1.8,13.1,3.1,19.2,6.3C575.5,261,574.6,263.5,576,265.6z"/>
	<path class="st4" d="M600.8,241.6c4.5,7.7,6.1,15.5,3.6,23.6c-1.5,4.7-6.3,5.7-10,2.5c-1.3-1.1-2.1-2.3-1.1-4.2
		c1.8-3.5,3.6-7.1,4.9-10.9C599.4,249.1,600,245.3,600.8,241.6z"/>
	<path class="st2" d="M554.7,342.8c1.5-5,5.6-8.1,8.7-11.9c8.7-10.4,17.3-20.9,27.1-30.2c4.3-4,8.4-8.4,14-10.8c1.3,1,2.6,2,3.9,2.9
		c2.5,2.4,2.2,5.1,1.4,8.1c-1.9,6.8-5.9,12.3-10.6,17.3c-7.9,8.4-14.9,17.6-24,24.8c-1.4,1.1-2.6,2.6-4.7,2c-1.3-1.8,0.3-3,0.9-4.3
		c0.9-1.9,2.4-3.5,3.1-5.5c0.7-1.9,2.3-4,0.2-5.8c-2.2-1.9-4.4-0.1-6.1,1.1c-3.4,2.5-6.3,5.6-9,8.9c-1.2,1.5-2.2,3.3-4.3,3.6
		C555.1,342.9,554.9,342.8,554.7,342.8z"/>
	<path class="st2" d="M616.2,295.1c2.8,8.8-0.7,16.3-6,22.7c-12.9,15.8-28.2,29.1-45,40.6c-5.8,4-12,7.4-18.6,9.9
		c-3.9,1.5-5.1-0.2-5.5-3.5c-0.4-3.5,1.6-6.1,3.5-8.7c2.4-3.2,4.2-6.8,7.2-9.5c0.1,0.2,0.3,0.3,0.4,0.5c0.2,0.7,0.2,1.3,0,2
		c-2.8,4.4,1.2,5.5,3.7,7.2c0,2.5-2.5,2.5-3.7,4c21.1-12.6,39.4-28.3,55-47c4.4-5.3,6-11.7,6.2-18.5
		C614.3,294.9,615.2,295,616.2,295.1z"/>
	<path class="st3" d="M613.3,294.8c2.5,8-1.4,14.3-6,20c-12.4,15.5-27.6,28.1-43.6,39.8c-4.3,3.1-9.1,5.4-15,8.1
		c1.9-3.6,5.2-4,6.8-6.3c2-4.2,6.9-5,9.6-8.5c1.2-1.5,2.5-3.5,5.1-3.2c5.7-2.4,10-6.7,13.6-11.3c5-6.4,11.4-11.4,16.4-17.9
		c3.8-4.9,7.1-9.9,8.9-16c0.7-2.4-0.4-4.4-0.7-6.6C610.1,293.3,611.9,293.7,613.3,294.8z"/>
	<path class="st4" d="M635.7,265.9c4.7,9.5-1.1,19.8-9.5,23.5c-3.2,1.4-4.1,0.1-4.2-2.9c0-2.1,0.8-3.9,2.3-5.1
		C629.5,277.7,633.5,273.1,635.7,265.9z"/>
	<path class="st2" d="M551.7,346.7c0-2,1.4-3,2.9-3.9l0,0c0.6,0.6,0.6,1.2,0.4,2C554.4,346,553.6,347.2,551.7,346.7L551.7,346.7z"/>
	<path d="M558.6,324.5c0.6,3.2-2.1,5.2-4,7.4c-4.3,5.2-8.2,10.9-14.5,14.1c-1.9,1-3.9,2.7-6.1,1c-2.3-1.8-3.3-4.3-2.8-7.2
		c1.1-7.2,4.6-13.1,10.4-17.4c2.9-2.2,5.7-5,9.8-5.1C556.2,317.3,558.6,319.5,558.6,324.5z"/>
	<path d="M554.7,344.6c0-0.6,0-1.2,0-1.8c4.2-3,6.5-7.8,10.4-11.1c1.8-1.5,3.7-2.9,5.8-3.9c1.8-0.9,3.2-1,4.8,0.3
		c1.6,1.4,1.6,2.9,1,4.7c-1.4,4.4-4.1,8-6.5,11.8c-4.6,4.2-9,8.8-14.6,11.7c-6.3-0.7-7.2-2.5-3.9-7.8c1.5,0.8,1.3,3.7,3.8,3
		c1.8-0.5,2.3-2.1,2.7-3.7C558.8,344.8,556.3,345.2,554.7,344.6z"/>
	<path class="st5" d="M554.7,344.6c1.5,0,2.4-3,4.1-1c1.7,2.1,1.1,4.5-0.1,6.8c-0.9,1.8-2.1,3.3-4.4,3.1c-3.1-0.4-2.3-2.9-2.6-4.8
		c0-0.6,0.1-1.3,0.1-1.9C552.7,346,553.7,345.3,554.7,344.6z"/>
	<path class="st2" d="M547,327.5c-0.6-1.9,0.2-3.7,1.3-4.9c1.3-1.5,2.6-4.6,5.3-2.8c2.4,1.6,4.1,4.1,2.6,7.4
		c-0.5,1.1-1.2,2.2-2.1,3.1c-1.3,1.2-2.3,3.6-4.7,2.5C547.2,331.8,546.4,329.8,547,327.5z"/>
	<path class="st5" d="M540.1,338.2c-0.3,2.7-0.9,5.9-4.1,6.1c-2.1,0.1-3-2.9-2.7-5c0.3-2.8,0.4-6.6,4-6.8
		C539.6,332.4,539.9,335.7,540.1,338.2z"/>
	<path class="st2" d="M565.4,338.2c0.4-4.1,3-6.7,6.5-7.9c2.4-0.8,3.9,0.8,3,3.2c-1,2.6-2.5,5.1-4.7,7c-1.1,0.9-2,1.7-3.4,1.1
		C565.5,340.9,565.3,339.6,565.4,338.2z"/>
</g>
</svg>
