<?xml version="1.0" encoding="utf-8"?>
<!-- Generator: Adobe Illustrator 23.0.1, SVG Export Plug-In . SVG Version: 6.00 Build 0)  -->
<svg version="1.1" id="Layer_4" xmlns="http://www.w3.org/2000/svg" xmlns:xlink="http://www.w3.org/1999/xlink" x="0px" y="0px"
	 viewBox="0 0 1000 1000" style="enable-background:new 0 0 1000 1000;" xml:space="preserve">
<style type="text/css">
	.st0{fill:#6E3720;}
	.st1{fill:#FB9A7A;}
	.st2{fill:#FEFEFE;}
	.st3{fill:#C0FEFE;}
	.st4{fill:#7F7F7F;}
	.st5{fill:#010101;}
	.st6{fill:#00407F;}
</style>
<g>
	<path class="st0" d="M613.4,281.4c4.8,8.9,7.4,18.2,4.8,28.4c-1.9,7.1-6.5,12.7-11,18.1C593,345,577.7,361,558.5,372.6
		c-4.5,2.7-2.9,7.1-3.6,10.5c-1.9,9.7-6.3,15.3-16.2,17.3c-2.3,0.5-3.4,0.9-2.8,4.2c2.1,12.7,8.1,23.9,12.4,35.7
		c6.5,17.9,13.7,35.6,19.8,53.6c4.2,12.5,10.3,24.1,15.4,36.1c6.4,15.1-2.1,28.5-14.2,32c-5.5,1.6-11,0.1-16.2-0.8
		c-19.8-3.4-37.5-12.2-54.1-23c-19.5-12.6-33.5-30.5-45.8-49.9c-6.4-10.2-12.9-20.3-16.7-31.8c-3.5-10.6-5.4-21.4-6.9-32.5
		c-1.3-9.7-1.1-19.4-0.6-29.1c0.8-17.1,1.2-34.2,2-51.3c0.9-19.5,2.3-39,5.8-58.2c3-16.1,8-31.6,16.4-45.7
		c7.3-12.2,19.1-18.6,32.2-22.9c16.4-5.4,32.2-1.8,48.2,2.5c7.4,2,13.9,5.7,21.1,8.2c1.5,2.9,0.6,5.8-0.4,8.6
		c-2.6,1.6-4.8-0.2-6.8-1.1c-12.4-5.7-25.3-8.9-38.9-10.6c-17.6-2.2-37.2,5.6-46.8,21.8c-8.9,15-13.3,31.3-16.1,48.3
		c-3.3,19.9-3.8,40.1-5,60.2c-1.1,18.5-2.2,37-1.8,55.5c0.5,24.1,6.6,46.7,20.1,66.8c9,13.5,18,27.2,29.3,39
		c7.6,7.9,16.5,14.3,26.1,19.5c14.3,7.9,29.5,13.7,45.9,15.7c11.2,1.4,16.8-4.9,13.5-15.7c-2.1-7-5.4-13.6-8.4-20.3
		c-8.7-19.2-15.1-39.1-22.5-58.8c-6.2-16.3-13.4-32.1-17.8-49.1c-0.7-2.6-2.3-3.7-4.7-4.3c-5.1-1.3-9.9-3.5-13.9-6.9
		c-7.7-6.6-16.6-10.1-26.3-12.2c-2.4-0.5-6.2-0.5-6.3-3.4c-0.2-3.3,3.7-3.6,6.2-4.3c11.4-3.3,21.1,0.8,29.9,7.7
		c3.2,2.5,6.4,5,10.1,6.6c11.5,5,23.2-0.7,25.3-12.9c1.1-6.4,4.4-10.3,9.6-13.7c20.1-13.3,35.6-31.3,49.5-50.6
		c5.9-8.2,5.1-16.7,0.8-25.3c-0.8-1.5-2.5-2.7-1.8-4.8C606.6,281.7,609.8,280.5,613.4,281.4z"/>
	<path d="M553.6,236.4c0.1-3,0.1-6,1-9c2.2-10.2,13.1-13.1,22.1-4.6c6.3,5.9,11.7,12.8,13.9,21.6c0.5,2.1-0.6,4.6,1.3,6.4
		c2.1,4.8,0,8.3-3.5,11.4c-4.4,3.1-9.1,5-14.6,4.2c-1.4-0.4-2.9-0.7-4.3-1c-4.5-1.8-8.4-4.6-11.5-8.3c-1.1-1.4-2-2.9-2.7-4.5
		C553.6,247.4,551.1,242.2,553.6,236.4z"/>
	<path d="M613.4,281.4c-3.2,1.4-6.5,2.1-9.9,2c-0.8,0.8-1.8,0.8-2.8,0.6c-2.2-0.5-4.5-1-6.4-2.2c-5.3-4.6-6.5-10.3-4.5-16.9
		c1.6-3.3,2.1-7.4,6.1-9c6.5-3.7,13.6-4.5,20.9-4.9c3.8-0.2,6.7,1.6,8.2,4.7c4.4,8.9,4.7,15-4.9,22.3
		C618,279.5,615.8,280.7,613.4,281.4z"/>
	<path class="st0" d="M595.8,255.8c-1.7,3-3.4,6-5.1,8.9c-2,0-3.1-0.8-2.8-3c2.8-3.1,4.3-6.6,4-10.9
		C593.9,252,594.3,254.3,595.8,255.8z"/>
	<path class="st1" d="M587.9,261.8c0.6,1.3,1.7,2.2,2.8,3c-1.6,6.2-0.7,11.8,4.1,16.4c-9.5,6-15.8,15.2-22.7,23.7
		c-6.9,8.6-12.9,17.9-18.5,27.4c-0.7,1.3-1.4,2.6-1.7,4c-3.4,5.9-7.1,11.6-9.9,17.8c-2.3,2.7-3.1,6-3.9,9.3c-0.3,1.4-0.8,3,0.6,4
		c1.4,1,2.8,0.3,4.2-0.3c3.4-1.5,6.6-3.6,9.4-6c16.4-14,30.5-29.9,43.6-47c3.2-4.1,5.2-8.9,6.5-14c1.3-4.9,1.2-9.6-1.3-14.1
		c-0.5-1-1.2-2-0.7-3.2c1,0.1,2,0.2,3,0.4c8.6,11,9.1,21.4,0.4,33.3c-10.1,13.8-21.6,26.2-34,37.8c-4.8,4.4-10.3,8.2-15.9,11.7
		c-4.3,2.7-6.3,6.1-7,11c-1.9,13.3-15.3,20.3-27.5,14.5c-4.1-1.9-7.5-4.8-11.1-7.6c-10.1-7.8-23.7-11.5-34.3-3.6
		c3.4,2.1,7.3,2.4,10.9,3.3c7.7,1.8,14.6,4.8,20.5,9.9c5,4.3,10.7,7.3,17,8.5c2.5,0.5,3.2,1.7,3.7,3.6c4.1,17.7,12,34.1,18.2,51
		c6,16.2,12.1,32.4,18.2,48.5c4,10.5,9.6,20.3,12.8,31.1c2.9,9.8-2.3,17-12.5,16.3c-11.1-0.7-21.7-3.9-32-7.9
		c-14.5-5.7-27.6-13.7-39.4-23.8c-6.8-5.9-12.6-13-17.6-20.5c-8.8-12.8-18.7-24.9-25-39.3c-5.6-13.1-9.4-26.4-10.5-40.7
		c-0.9-11.7-0.9-23.4-0.6-35c0.4-14.2,1.1-28.4,2-42.6c0.6-9.3,0.6-18.7,1.8-28c3.1-25,6.2-50.1,20.6-71.8
		c7.2-10.8,17.6-17.3,30.4-19.3c19.1-2.9,36.9,1.9,54.1,9.6c2.3,1,4.7,2.1,7,3.1c0.2,5.6,0.9,11.2,2.9,16.5
		c-4.7,1.3-8.9-1.2-13.2-1.9c-18.9-3.1-26.3,2.3-34.9,21c-5.9,12.7-7.9,26.3-9.1,40.2c-0.9,10.1-1.3,20.1,0.2,30.1
		c0.5,3.6,1.7,6.9,3.6,10c3.3,5.3,8.7,7.4,14.7,5.5c8.2-2.5,14.9-7.4,20.3-13.8c13.3-15.4,23.8-32.5,31.2-51.4
		c3.2-8.2,6.2-16.5,3.4-25.5c-0.2-0.6,0.1-1.3,0.5-1.8C578.6,266.6,583.1,263.8,587.9,261.8z"/>
	<path class="st2" d="M573.1,265.4c4.6,10.5,0.4,20.2-3.4,29.7c-7.4,18.5-17.8,35.3-30.9,50.3c-6,6.8-13.2,12.2-22.5,14.3
		c-5.9,1.3-11.3-1.2-14.6-6.5c-3.4-5.4-4.3-11.5-4.6-17.5c-0.5-10.5,0.4-20.9,1.6-31.4c1.3-11.1,4-21.7,8-32.1
		c2.9-7.5,7.2-14.1,13.4-19.2c5.6-4.6,12.7-4.4,19.5-3.7c5.7,0.6,11.4,1.7,16.8,3.8c0.7,1.3,1.5,2.5,2.2,3.8
		c-1.9,1.5-3.7,0.3-5.6-0.2c-6.3-1.5-12.8-2.4-19.3-2.3c-6.8,0.1-12.2,2.6-16,8.6c-3.8,6.1-6.8,12.6-8.7,19.5
		c-3.8,14.3-6.6,28.8-7.7,43.6c-0.5,6.5,1.2,12.9,2.1,19.7c1.2-16.5,4.4-32.3,9.2-47.8c2.3-7.6,5.1-15,8.5-22.3
		c7.8-16.5,21.6-19,37.2-13.3c3.6,1.3,7,3.3,10.2,5.5c0.7-1.1,0.1-2.2,0.7-3C570.6,264.7,572,264.2,573.1,265.4z"/>
	<path class="st3" d="M569.4,264.8c0.9,1.9,1.7,3.7,1.9,6.5c-4.1-3.1-7.8-5.7-11.9-7.3c-10-3.9-20-5.6-29.4,1.8
		c-5.8,4.5-8.4,11.3-10.8,17.7c-7.9,20.9-13.2,42.6-14.4,65.5c-1.8-1.7-2.3-3.5-2.8-5.6c-2.6-11.1-1.9-22.1,0.1-33.1
		c2.2-12.2,4-24.5,8.7-36.2c2.2-5.4,4.8-10.6,8.4-15.3c3.5-4.5,8.6-5.7,13.8-5.9c8.8-0.4,17.4,1.2,25.8,3.8
		C561.8,260,565.6,262.4,569.4,264.8z"/>
	<path class="st4" d="M574.4,226.2c7.3,5.9,11.7,13.2,13.4,22.1c0.8,3.9-1,6.7-4.6,7.3c-3.3,0.5-5.7-1.9-7-4.8
		c-0.6-1.3-0.9-2.8-1-4.2C575,239.9,575.7,233.1,574.4,226.2z"/>
	<path class="st2" d="M600.4,282.9c4.9,6.2,4.8,12.9,2.5,20.1c-2.7,8.9-8.6,15.8-14.3,22.7c-7.9,9.4-16.2,18.5-25.1,27
		c-6.1,5.9-12,12.2-20.1,15.6c-1.8,0.8-3.6,2.4-5.7,0.9c-2.4-1.7-1.4-3.8-0.8-6.1c0.9-3.4,1.5-6.9,4.1-9.5c2.3,1.4-1.7,5.8,2.6,6
		c2.6,0.1,4.6-2.1,6.9-3.2c7.6-6.1,15.1-12.3,21.5-19.7c7.4-8.6,14.6-17.4,21.2-26.7c3.1-4.3,5.4-8.9,6.1-14.2
		c0.5-3.9,0.1-7.5-3.8-10.3c3.9,10.8-1.8,19.1-6.9,27.2c-6.6,10.4-14.5,19.9-23,28.9c-1.1,1.2-2.1,2.6-4,2.2
		c-1.4-2.2,0.2-4.1,0.5-6.1c0.4-2.2,0.3-4.3-1.8-5.6c-2-1.3-3.3,0.7-4.7,1.5c-1.5,0.8-2.5,2.7-4.6,2.3c2.4-6.7,6.7-12.3,10.5-18.1
		c7.7-11.9,16.7-22.7,26.4-33c1.9-2.1,4.1-3.6,7-3.7C596.6,281.7,598.5,282.3,600.4,282.9z"/>
	<path class="st4" d="M613.9,254.9c6.3,0,10.2,3.9,10.1,10.2c0,3-1.3,4.6-4.2,2.6c-4.1-2.8-8-5.8-11.8-9c-1.1-0.9-0.9-2.1,0.7-3.1
		C610.4,254.7,612.2,255,613.9,254.9z"/>
	<path class="st5" d="M550.7,357.4c-0.3,0.2-0.5,0.3-0.8,0.5c-2.6,1.6-5.1,4.7-8.4,3c-3.6-1.8,0.3-4.9-0.4-7.3
		c2.6-6.3,6.3-11.9,9.9-17.7c2.1-0.9,2.9-3.3,5.2-4.1c1.5-0.5,2.5-2.9,4.4-1.3c1.7,1.4,3.3,2.8,3.1,5.5c-0.3,2.7-1.7,5-2.1,7.6
		C559.7,349.7,555.2,353.6,550.7,357.4z"/>
	<path d="M536.5,323.2c4.4,0,7.5,3.3,6.4,7.2c-2.9,9.8-8.1,18.2-16.8,23.7c-4.4,2.8-10.3-1.1-9.3-6.3c1.8-9.7,6.5-18,15-23.5
		C533.3,323.5,534.9,322.9,536.5,323.2z"/>
	<path class="st3" d="M550.7,357.4c3.6-4.6,7.2-9.1,10.8-13.7c7-6.7,13.5-13.9,19.2-21.7c4.5-6.3,9.1-12.5,12.4-19.7
		c2.9-6.3,3.6-12.3,0-18.7c6.6,2,8.8,6.4,7.2,13.8c-1.6,7.2-5.7,12.9-10.1,18.5c-7.8,9.9-15,20.4-24.5,28.8
		C560.7,349,556.9,354.7,550.7,357.4z"/>
	<path class="st2" d="M553.7,341.2c0-3.9,3.2-8.4,5.8-8.1c1.8,0.2,2.1,1.7,2,3.2c-0.5,5.1-3.4,9.8-5.6,9.4
		C554.2,345.4,553.7,344.6,553.7,341.2z"/>
	<path class="st6" d="M548.8,353.1c-0.3,2.4-0.9,5.3-4.1,5.9c-1.4,0.2-3-1.6-2.6-3.4c0.7-2.8,1.5-6.1,4.7-6.6
		C549,348.7,548.8,351.1,548.8,353.1z"/>
	<path class="st2" d="M532.2,331.6c0.1-1.7-0.2-5.2,4.1-5.3c3,0,4.1,2.3,3.6,5c-0.6,3.2-0.4,7.9-4.4,8.2
		C532.1,339.8,532.2,335.8,532.2,331.6z"/>
	<path class="st6" d="M525.4,347c-0.1,1.1,0.3,2.6-0.8,3.9c-1.5,1.7-2.8,2.2-4-0.2c-0.6-1.2-1.1-2.3-1-3.7c0.1-2.7-0.1-6.5,3.1-6.6
		C525.3,340.4,525.4,344.1,525.4,347z"/>
</g>
</svg>
