<?xml version="1.0" encoding="utf-8"?>
<!-- Generator: Adobe Illustrator 23.0.1, SVG Export Plug-In . SVG Version: 6.00 Build 0)  -->
<svg version="1.1" id="Layer_4" xmlns="http://www.w3.org/2000/svg" xmlns:xlink="http://www.w3.org/1999/xlink" x="0px" y="0px"
	 viewBox="0 0 1000 1000" style="enable-background:new 0 0 1000 1000;" xml:space="preserve">
<style type="text/css">
	.st0{fill:#6E3720;}
	.st1{fill:#FB9A7A;}
	.st2{fill:#7F7F7F;}
	.st3{fill:#808080;}
	.st4{fill:#FEFEFE;}
	.st5{fill:#C0FEFE;}
	.st6{fill:#00407F;}
</style>
<g>
	<path class="st0" d="M602.6,277.4c8.4,13.7,10.6,27.9,3.4,42.9c-5.4,11.2-13.4,20.4-21.2,29.9c-3.4,4.2-6.7,8.6-10.6,12.4
		c-5,4.9-10.5,9.4-15.9,14c-2.4,2.1-3.6,4.3-3.9,7.8c-0.6,9.5-2.4,18.9-12.3,23.6c-2.4,1.1-5.1,1.7-7.7,2c-2.1,0.2-2.5,1-2.2,2.7
		c4,23.6,4.7,47.5,3.7,71.4c-0.6,14.2-1.3,28.5-3.5,42.6c-1.7,10.7-1.9,21.7,0.5,32.6c1.2,5.4,0.8,11.3-1.1,16.7
		c-2.9,8.3-10.8,10.3-19,8.4c-11.5-2.5-19.8-10.5-26.8-19.1c-16.3-20.1-29.4-42.5-40.3-65.9c-9-19.4-16.3-39.7-19.1-61.3
		c-1.3-9.5-2.6-19-1.5-28.4c1.6-13.4,2.3-26.8,1.6-40.1c-0.7-13-0.9-25.9-0.7-38.8c0.3-20.2,1.8-40.3,6.8-59.9
		c5.3-20.4,17.6-34.9,37.5-42.3c11.4-4.3,23.2-4.4,35.4-3.2c11.1,1.1,21.8,3.4,32.4,7c3.7,4.3,6.4,9.4,10.3,13.4
		c0.7,0.7,1.5,1.9-0.1,2.8c-2.1,0.4-3.8-0.8-5.5-1.6c-15.7-8-32.7-11-50-12.1c-20.7-1.3-37.8,9.7-46.2,28.6c-6.2,14-8.3,29-9.6,44.1
		c-1,11.2-1.7,22.5-0.8,33.6c1.2,15.1,0.5,30.2,0.8,45.4c0.1,8.3-1.6,16.5-1.9,24.8c-0.6,22.3,4.8,43.5,12,64.4
		c8.2,23.8,20.4,45.4,33.9,66.3c6.8,10.5,14.3,20.6,25.4,27.3c2.5,1.5,5.2,2.7,8,3.5c6,1.8,8.7-0.1,8.6-6.5c0-4.7-0.4-9.5-1.1-14.1
		c-1.9-13.9,0.1-27.6,1.5-41.3c2.3-21.4,3.6-42.7,0.9-64.2c-1.2-9.3-2.4-18.7-3.2-28.1c-0.4-4.5-2.3-7.2-6.8-8.3
		c-5.3-1.3-9.9-4.3-14-7.7c-5.2-4.4-11.1-6.7-17.6-7.7c-1.5-0.2-3.7,0-4.1-1.8c-0.5-2,1.2-3.3,2.6-4.3c5.3-3.9,10.8-5.7,17.2-2
		c3.9,2.3,7.9,4.6,11.5,7.4c3.7,2.8,7.8,4.7,12.2,5.9c12,3.2,23.1-5.9,21.9-18.2c-0.5-4.7,1-7.6,4.5-10.4
		c18.2-14.2,32.2-31.9,44.6-51.2c9-14,8.5-27.1-1.5-40.2c-1.3-1.7-3.5-3.2-2.9-5.9C593.9,273.4,598.4,274.7,602.6,277.4z"/>
	<path d="M548.8,248.1c-3.9-5.1-9.2-9.1-10.8-15.7c-0.9-6.4-4.2-12.6-1.8-19.3c1.8-5.1,6.4-7.8,11.6-7c8.6,1.3,14.7,6.6,20,12.7
		c4.2,4.7,7.2,10.2,8.5,16.6c1.5,7.4,1,9.3-4.9,13.6c-3.8,4.6-9.2,4-14.3,4.2C553.8,252.2,550.2,252,548.8,248.1z"/>
	<path d="M602.6,277.4c-4.6-1-9.2-2-13.8-3c-7-1.8-12.9-5-16.3-11.8c-0.7-4.7,1.4-7.8,5.6-9.5c3.4-1.8,6.7-3.9,10.3-5.4
		c7.7-3.2,14.5-0.8,21.2,2.4c4.2,2,5.4,6.6,6.4,10.6c0.8,3.1,0.7,6.5,0,9.7c-1,5-5.2,6.3-9.6,6.9
		C605.2,277.5,603.9,277.4,602.6,277.4z"/>
	<path class="st0" d="M578.2,253.1c-2.2,2.9-5.7,5.1-4.8,9.5c-1.6,0.9-2.8-0.3-3.9-1c-3.7-2.3-7.2-4.9-11-7
		c-0.9-0.5-2.1-1.1-1.7-2.5c5.2,0.3,10-0.9,14.7-3C573.6,250.3,575.9,251.7,578.2,253.1z"/>
	<path class="st1" d="M556.6,252c5.6,3.5,11.1,7.1,16.7,10.6c3.4,6.3,10.2,8.2,15.5,11.9c5.4,6.8,10.3,13.7,12.1,22.6
		c1.2,5.7-0.2,10.5-2.3,15.3c-5.9,13.2-14.8,24.3-23.8,35.5c-8.2,10.1-17.7,18.6-27.8,26.6c-1.7,1.3-2.5,3-2,5.1
		c1.8,7.3-0.1,13.5-5.8,18.1c-6.3,5.3-13.4,5.7-21.2,2.7c-7.2-2.8-12.4-8.5-19.2-11.8c-8.2-3.9-13.8-2.8-19.9,4.6
		c6.2,1.1,12.4,1.2,17.6,5.1c6.8,5.1,13.4,10.3,22.1,12.2c3.1,0.7,3.6,4.1,3.8,6.7c0.6,9.8,2.5,19.4,3.2,29.2
		c0.7,9.8,2.1,19.6,1.7,29.4c-0.6,14.8-1.6,29.5-3.7,44.2c-2.1,14.1-1.4,28.3,0.7,42.4c0.3,1.9,0.3,3.9,0.1,5.8
		c-0.6,6.3-3.2,7.7-9.5,6.1c-12.8-3.2-20.8-12.5-28.3-22.2c-14.6-18.7-25.8-39.6-35.2-61.2c-7.4-17.1-13.2-35-15.9-53.7
		c-1.4-9.8-2.9-19.7-1.6-29.4c2.5-19.1,1.9-38.2,1.5-57.3c-0.2-10-1-20.1-0.7-30.1c0.5-16.6,2.1-33.1,7-48.9
		c4.1-13.3,11.3-25.1,24-32c9.9-5.4,20.7-7.1,32.2-5.5c7.9,1.1,16,1.8,23.8,3.5c8.6,1.9,16.6,5.8,24.6,9.6c0.9,0.4,1.8,0.6,2.7,1
		C551.4,249.4,554,250.7,556.6,252z"/>
	<path class="st2" d="M551.7,214.3c3.6-0.9,5.9,0.1,7.9,2c4.7,4.5,8.7,9.5,11.8,15.2c1.3,2.5,1.4,4.6-1,6.4c-2.4,1.8-4.8,1.8-7-0.2
		c-0.9-0.8-1.8-1.9-2.2-3.1C558.8,227.5,556.4,220.6,551.7,214.3z"/>
	<path class="st3" d="M590.6,250.4c5.5-0.6,10.6-0.1,15.5,2.3c3.4,1.7,4.6,4.7,6,7.7c0.5,1.1,0.5,2.6-0.8,3.5
		c-1.2,1-2.4,0.6-3.5-0.3c-0.8-0.6-1.7-0.9-2.4-1.6C601.1,257.6,596.7,253,590.6,250.4z"/>
	<path class="st4" d="M489.1,324.1c1.8-15.9,1.8-32,7.6-47.4c6.7-17.7,21.5-22.2,36.8-20.6c6.2,0.7,12.4,1.8,18.1,4.5
		c12.3,5.7,15.1,12.2,12.4,25.5c-5.3,26-17.7,48.4-33.5,69.3c-3.1,4.1-6.9,8-11,11c-9.5,6.8-17.5,3.7-24.7-6.8
		c-3.4-5.1-4.1-11.3-4.4-17.1C490.2,336.4,488.9,330.3,489.1,324.1z"/>
	<path class="st4" d="M594.7,297.7c-0.9,8.6-3.4,16.6-8.4,23.7c-6.6,9.5-12.5,19.5-20,28.3c-7.5,8.9-14.1,18.6-24.4,24.6
		c-2,1.2-4.2,3.8-6.9,1.8c-2.8-2-1.7-4.7-1.2-7.5c2.6-14.5,9.6-27.2,16.7-39.9c6.5-11.6,13.1-23.3,20.6-34.4
		c2.1-3.1,4.2-6.1,6.9-8.7c5.6-5.4,13.1-3.7,15.4,3.8C594.2,292.1,595.4,294.8,594.7,297.7z"/>
	<path class="st5" d="M555.7,269.9c-4.4-0.7-7.7-1.4-11-1.8c-13.4-1.7-25.4,1.3-32.1,15.1c-6,12.4-8.5,25.7-10.7,39.1
		c-1.2,7.6-2.2,15.4-2,23.1c0.1,4.7,1.7,9.3,0.6,14.4c-4.3-5.6-4.3-12.2-5.5-18.3c-1-4.9-1.3-9.9-2-14.8c-0.8-5.7,0.7-11.3,1.1-16.9
		c0.8-11.9,3.6-23.5,8.2-34.7c4.5-10.9,18.5-18.4,30.8-15.4C545.4,262.5,550.4,263.9,555.7,269.9z"/>
	<path d="M507.8,358.2c0.1-8.6,8.5-22.1,14.9-24.2c5.5-1.8,10.3,1.5,9.4,7.2c-1.4,9.2-5.8,17-12.9,23.2c-2.1,1.8-4.4,4.1-7.1,2.5
		C508.8,365,507.6,361.6,507.8,358.2z"/>
	<path class="st5" d="M557.5,347.6c9.9-11.6,17.8-24.6,24.4-38.2c3-6.1,4-12.9,2.3-19.8c-0.3-1.1-0.7-2.3,0.6-3
		c1.3-0.7,2.1,0.3,3,1.1c4.5,3.9,5,11.6,1.6,19c-6.7,14.3-15.7,27.1-25.6,39.3c-2.5,3.2-4.8,6.5-8.4,8.7
		C554.8,351.8,554.5,349.2,557.5,347.6z"/>
	<path d="M557.5,347.6c-1.7,2-0.5,4.9-2,6.9c-3.8,6.7-7.6,13.5-15.4,16.6c-1.2,0.5-2.4,1.8-3.9,0.5c-1.5-1.1-1.3-2.7-1-4
		c2.4-9,5.5-17.7,12.6-24.4c1.8-1.7,3.7-4.3,6.4-3C557,341.5,558,344.4,557.5,347.6z"/>
	<path class="st4" d="M530.3,340.7c-0.2,4-3.1,10.5-5,9.8c-3.6-1.4-3.4-5.2-3.6-8.1c-0.2-3,1-6.2,4.9-6.4
		C529.8,335.9,529.6,339,530.3,340.7z"/>
	<path class="st6" d="M510.8,356.6c0.4-1.6-0.9-5,2.1-4.6c2.8,0.4,3.7,3.7,3.7,6.6c0,2.4-0.4,5.5-3,5.1
		C510.4,363.3,510.7,359.7,510.8,356.6z"/>
	<path class="st4" d="M555.9,347.4c-0.6,1.8-1.1,3.6-1.8,5.3c-0.8,1.9-1.8,4.3-4.3,3.6c-2.3-0.6-2.9-3-3-5.4
		c-0.1-2.2,1.4-3.8,2.2-5.6c0.6-1.4,1.8-3,3.7-2.4C554.7,343.5,556,345,555.9,347.4z"/>
	<path class="st6" d="M543.9,363.9c-0.9,2.5-1.9,5.4-5.2,5.9c-1.3,0.2-2-1.6-1.4-3c1.2-2.6,1.1-6.5,4.8-7
		C544.1,359.5,543.9,362,543.9,363.9z"/>
</g>
</svg>
