<?xml version="1.0" encoding="utf-8"?>
<!-- Generator: Adobe Illustrator 23.0.1, SVG Export Plug-In . SVG Version: 6.00 Build 0)  -->
<svg version="1.1" id="Layer_4" xmlns="http://www.w3.org/2000/svg" xmlns:xlink="http://www.w3.org/1999/xlink" x="0px" y="0px"
	 viewBox="0 0 1000 1000" style="enable-background:new 0 0 1000 1000;" xml:space="preserve">
<style type="text/css">
	.st0{fill:#6E3720;}
	.st1{fill:#FB9A7A;}
	.st2{fill:#7F7F7F;}
	.st3{fill:#FEFEFE;}
	.st4{fill:#C0FEFE;}
	.st5{fill:#00407F;}
</style>
<g>
	<path class="st0" d="M592.9,280.4c6.7,9.1,12.7,18.6,14.4,30c1,6.6-1.1,12.9-3.5,19c-4.5,11.4-12.3,20.7-19.6,30.2
		c-8.4,11-17.7,21.4-27.9,30.8c-2.1,1.9-1.4,4.1-1.6,6.3c-0.8,7.8-1.4,15.6-8.1,21.2c-3.3,2.7-7.2,4-11.1,4.8
		c-2.9,0.6-3.4,1.9-3.1,4.3c1.5,11.1,1.3,22.1,0,33.2c-0.6,4.9-0.6,10-0.9,14.9c-0.7,11.7-2.6,23.2-3.9,34.8
		c-2.1,19.2-8.1,37.4-11.6,56.2c-1.5,7.9-1.7,16-1.3,24.1c0.2,3.4-0.6,6.6-1.8,9.7c-4.2,11.4-13,12.2-21.9,8.2
		c-12.5-5.6-20.8-15.6-27-27.4c-9.2-17.3-17.8-35-24.7-53.4c-4.5-12-7.7-24.4-10.2-36.9c-2.8-14.2-5.9-28.6-5-43.2
		c0.7-11.8,2.7-23.5,3.6-35.3c0.4-4.6,0.5-9.3-0.4-14c-1.3-6.5-0.7-13.2-1.1-19.7c-0.5-9.5-1.5-19-1.4-28.6
		c0.1-4.4-1.1-8.9-0.9-13.5c0.7-15.2,1.7-30.3,4.6-45.3c2.1-10.6,6.1-20,11.9-28.6c8.3-12.2,20.5-18.6,34.9-21.2
		c6.5-1.2,12.9-2.2,19.6-1.9c13.1,0.6,26,2,38.4,6.4c1,0.4,1.9,0.3,2.8,0.3c1.9,0.3,3.1,1.7,4.3,3c4.8,5.7,10.9,7.9,18.1,7.2
		c0.8-0.1,1.6,0,2.2,0.7c3.2,1.9,6.4,3.8,9.6,5.7c-1.6,7.2,3.4,9.3,8.6,11.6C583.5,276.3,588.6,277.3,592.9,280.4z"/>
	<path d="M560.6,256.9c-11.1,2.9-18.4-2.8-24.6-10.9c-5.1-8.4-8.2-17.3-5.8-27.3c1.1-4.4,4.4-6.2,8.6-5.8
		c8.7,0.8,16.1,4.9,21.6,11.4c3.6,4.2,6.7,8.8,9.2,14.1C573.8,247.2,569.3,254.2,560.6,256.9z"/>
	<path d="M592.9,280.4c-7.6-1.4-14.4-4.8-21-8.3c-4.1-2.1-3.9-5.8-1.6-9.5c4.9-6.8,11.7-10.7,19.9-11.5c10.1-1,24.9,6.9,20.4,21.2
		C607.9,280.9,603.7,283.2,592.9,280.4z"/>
	<path class="st1" d="M479.5,408.1c9.8-0.3,17.4,3.3,24.7,8.4c4.3,3,8.7,6,14.3,6.4c3,0.2,2.9,2.8,3.1,5.1
		c1.3,10.8,1.2,21.6,0.1,32.4c-0.1,1.1-0.3,2.3-0.3,3.4c0.1,29.1-4.4,57.6-12,85.6c-3,11-3.7,22.2-3.6,33.5c0,1.6,0,3.3,0,4.9
		c0.1,4.3-0.3,9.1-4.2,11.2c-4.3,2.4-8.3-1-11.9-3.4c-11-7.3-16.9-18.7-23.1-29.8c-11.2-20.1-18.9-41.7-25.5-63.7
		c-4-13.5-5.3-27.6-6.8-41.7c-2.2-21.3,2.4-42.3,1.2-63.4c-1-16.3-0.9-32.7-2.1-48.9c-1.7-22.2-0.3-44,6.2-65.3
		c5.2-17,16-28.5,33.2-33.1c7.6-2,15.8-2,24-1.1c9.3,1,18.5,2.1,27.4,4.8c15.4,4.6,29.9,11.3,43.6,19.9c6.9,4.3,13.9,8.2,19.2,14.5
		c10.9,12.9,14.1,24.9,6.5,40.3c-7.3,14.7-17,27.5-27.2,40.1c-5.7,7-12.8,12.3-19,18.7c-1.7,1.8-2.7,3.5-2.2,6
		c2.7,13.3-9.9,25.2-23.2,22c-7-1.7-12.8-5.7-18.7-9.7C493.7,398.7,486.9,399.5,479.5,408.1z"/>
	<path class="st2" d="M545.6,219.9c4.5-0.1,7,2.5,9.5,4.8c3.5,3.1,6.2,6.9,8.9,10.7c1.5,2.1,3.5,4.1,1.7,6.9
		c-1.2,1.8-3.1,3.2-5.3,2.7c-3-0.7-5.2-2.8-5.6-6c-0.5-3.4-1.9-6.4-3.5-9.4C549.7,226.5,547.8,223.6,545.6,219.9z"/>
	<path class="st2" d="M585.7,255.5c6.1-1.4,11.5,0.2,16.6,3.2c1.2,0.7,2.3,1.4,2.9,2.4c1.4,2.1,3.5,4.9,1.6,6.9
		c-1.7,1.7-3.9-0.7-5.6-2.2C596.5,261.8,591.6,257.9,585.7,255.5z"/>
	<path class="st3" d="M487.2,332.2c0.4-15.7,2.3-29.3,6.7-42.6c4.1-12.4,13.5-19.4,27.6-20.1c10.7-0.5,20.8,1.7,30.4,6.4
		c6.1,3,9.7,9.4,8.7,16.2c-3.7,24.1-10.9,46.8-24.7,67.2c-5.1,7.6-10.3,15.1-17.8,20.7c-8.4,6.2-12.7,4.1-19.1-0.8
		c-6.6-5.1-8.5-12.8-9.5-20.5C488.2,349.3,487.8,339.8,487.2,332.2z"/>
	<path class="st3" d="M534.3,380c-0.5-6.9,3.2-12.7,5.5-18.8c7.2-19.2,17.9-36.7,27.9-54.5c2.7-4.8,5.7-10.2,11.4-12.8
		c2.5-1.1,4.3-1.1,6.5,0.9c6.1,5.6,6.6,12.1,4.9,19.8c-2.2,9.8-7.4,18.1-12.1,26.6c-7.3,13.1-17.2,24.3-26.5,36.1
		c-3.5,4.4-8,7.9-12.9,10.9c-3.7,2.3-5.6,1-5.7-3.4C533.3,383.1,532.3,381.1,534.3,380c2.4,3.6,3.5,3.9,7.1,1.1
		c4.6-3.5,7.7-8.2,10.8-12.9c10.7-13.9,21.4-27.8,29.3-43.5c2.4-4.7,3.7-9.7,4.7-14.8c0.8-4.1-0.3-7.6-3.9-11.1
		c0,4.7,1.4,8.6,0.6,12.6c-1.1,6.3-3.4,12.1-6.4,17.8c-4.6,8.8-9.6,17.3-14.9,25.7c-1.5,2.3-2.5,5.4-6.1,5.7c-0.5-0.5-0.8-1-1-1.6
		c-0.5-1.8-0.3-4.3-2.7-4.7c-2.5-0.4-4.2,1.5-5.5,3.3c-3.5,4.9-5.9,10.3-8.1,15.9C537.4,375.8,537.5,379,534.3,380z"/>
	<path class="st4" d="M499.6,373.5c-4.1-5.6-5.5-11.7-6.2-17.7c-1.2-9.1-2.8-18.3-2.1-27.5c1-13,2.3-26.1,7-38.5
		c4.7-12.5,15-18.1,27.5-17.2c7.6,0.6,15.5,1.7,22.2,6.2c0.7,0.5,2,0.5,2,1.9c-3.2,1.5-6.2-0.4-9.3-0.6
		c-23.4-1.5-31.4,8.3-36.3,29.2c-3.9,16.5-5.8,33.4-5.3,50.5C499.2,364.3,500.8,368.6,499.6,373.5z"/>
	<path d="M528.3,355.7c-2.9,8-6,17.5-14.4,24.1c-2.1,1.6-4.2,1.1-6-0.4c-2.6-2.1-3.5-5.1-3-8.1c1.3-7.2,4.8-13.5,8.3-19.8
		c1.9-3.3,5.7-4.5,9.4-4.8C526.1,346.4,528.3,349.4,528.3,355.7z"/>
	<path class="st4" d="M555.8,360.3c10.9-15.1,21.3-30.4,25.8-48.9c1-4,0-7.7-1-11.4c-0.2-1-0.8-2,0.1-2.7c1.1-0.8,2.2,0,3,0.8
		c3.3,3.5,4.7,7.5,3.7,12.4c-2.4,12-8.3,22.4-15.2,32.3c-5.9,8.5-12,16.8-18.1,25.2c-0.4,0.5-1,0.7-1.6,1.1
		C551.9,365.6,552.6,362.5,555.8,360.3z"/>
	<path d="M555.8,360.3c-1.1,2.9-2.2,5.9-3.2,8.8c-3.2,5.9-7.1,11.1-13,14.4c-4.2,2.3-5.3,1.5-5.2-3.7c0,0-0.1,0.1-0.1,0.1
		c3.6-7.5,5.7-15.7,10.7-22.6c1.9-2.7,4.2-5.5,7.6-4.6C556.3,353.6,555.5,357.5,555.8,360.3z"/>
	<path class="st3" d="M518.6,355.7c-0.3-3.8,0.7-6.3,4-6c3.5,0.2,3.9,3.2,3.7,6c-0.2,3.1-1.2,7.4-4.4,7.2
		C517.8,362.7,519.4,357.8,518.6,355.7z"/>
	<path class="st5" d="M513.8,371.9c-0.3,2.6,0.3,5.7-2.7,5.7c-2.6,0-3-2.9-3.2-5.2c0-0.2,0-0.3,0-0.5c0.5-2.2-1.3-6,1.8-6.2
		C512.9,365.6,513.3,369.5,513.8,371.9z"/>
	<path class="st3" d="M553.6,360.1c-0.5,1.2-1.2,3.1-1.9,5c-0.6,1.6-1.6,3.3-3.2,2.9c-1.8-0.5-2.9-2.2-2.7-4.5
		c0.3-2.4,1.6-4.4,2.8-6.3c0.8-1.2,2-2.3,3.6-1.5C553.8,356.3,553.8,357.9,553.6,360.1z"/>
	<path class="st5" d="M541.1,372.3c0.6,0,0.7,0.9,1.2,1.5c1.4,2.1,0.4,4-0.7,5.8c-1,1.7-3,3.5-4.6,2.8c-2.3-1,0-3.1,0.4-4.6
		C537.9,375.8,538.1,373.2,541.1,372.3z"/>
</g>
</svg>
