<?xml version="1.0" encoding="utf-8"?>
<!-- Generator: Adobe Illustrator 23.0.1, SVG Export Plug-In . SVG Version: 6.00 Build 0)  -->
<svg version="1.1" id="Layer_4" xmlns="http://www.w3.org/2000/svg" xmlns:xlink="http://www.w3.org/1999/xlink" x="0px" y="0px"
	 viewBox="0 0 1000 1000" style="enable-background:new 0 0 1000 1000;" xml:space="preserve">
<style type="text/css">
	.st0{fill:#6E3720;}
	.st1{fill:#FB9A7A;}
	.st2{fill:#730000;}
	.st3{fill:#FEFEFE;}
	.st4{fill:#7F7F7F;}
	.st5{fill:#C0FEFE;}
	.st6{fill:#00407F;}
</style>
<g>
	<path class="st0" d="M548.9,318.3c10.5,6.1,18.1,14.6,20.4,26.7c3.2,17.5-1.4,34.1-6.7,50.5c-3.4,10.6-8.8,20.3-13.7,30.2
		c-2.3,4.6,1.6,7.4,3.1,10.7c1,2.3,3.8,1.2,5.7,0.9c14.4-2.4,27.2,1.3,39.2,9.4c17.9,12,24.2,30.6,29.1,50
		c3.2,12.7,5.3,25.5,5.9,38.6c1,19.2-17,26.1-29.9,23.4c-11.4-2.4-20.6-8.7-29.9-14.8c-2.3-1.5-3.8-1.4-6.2-0.3
		c-10,4.6-19.3,10.7-30.3,13.3c-24.2,5.6-46.9,2.2-68.1-10.4c-8.7-5.2-14.3-13.5-19.2-22.3c-5.2-9.4-10.5-18.8-15.6-28.3
		c-9-16.5-18.5-32.8-27.8-49.1c-11.4-20.1-21-41.2-25.7-64c-2.7-12.9-3.3-26.1,1.1-38.8c5.4-15.6,17.3-25.2,32-31.7
		c10.1-4.5,20.9-7.2,31.6-9.5c5.6-1.2,11.3-1.6,17-2.4c3.1,2.9,6.6,5.5,6.7,10.3c-4.6,1.7-9.6,1.8-14.4,2.6
		c-11.7,1.9-23.3,4.4-34.3,9.3c-8.6,3.8-16.3,8.7-22.4,16c-5.2,6.2-7.4,13.3-7.5,21.2c-0.3,17.6,4.3,34.2,11.5,50
		c16.2,35.6,36.2,69.1,55.8,102.9c8.8,15.2,21.2,26.1,37.5,32.7c15.5,6.2,30.7,4,45.6-2c4.7-1.9,9-4.5,13.9-6.7
		c-4.6-0.9-8.8-0.4-12.9-0.7c-1.1-0.1-2.6-0.2-3-1.3c-0.6-1.5,0.9-2.3,1.9-3c10-6.6,20.4-8.5,31.3-2.5c8.1,4.5,15.9,9.6,23.7,14.5
		c4.8,2.9,9.7,5.3,15.6,3.6c3.6-1.1,6.1-3.2,7-6.8c1.2-4.5,2.1-9.1,1.1-13.9c-3.2-15-6.8-29.8-12.6-44c-4.5-10.7-11-19.9-20.3-27
		c-8.8-6.7-19.2-8.1-29.7-7c-21,2.1-39.2,11.1-55.9,23.6c-1.8,1.4-3.5,2.9-5.4,4.1c-0.9,0.6-1.9,1.6-3,0.5c-0.9-0.9-0.6-2.1-0.3-3.2
		c0.6-1.9,2.1-3.3,3.2-4.9c0-0.7,2.2-1.1,0.4-1.9c-8-3.9-16.2-7.5-25-9.4c-5.1-1.1-9.5,1-14.1,2.9c-2,0.8-3.9,2.6-6.4,1.3
		c-1.4-2.2-0.1-4.1,0.9-5.9c4.7-8,15-12.4,24.4-10.6c8.7,1.7,16.6,5.7,24.6,9.2c4.1,1.7,7.2,1.8,10.6-1.3c7.1-6.4,15.7-10.3,24.8-13
		c4.9-1.5,5.4-2.4,3.1-6.9c-2.1-4.1-1.8-7.7,0.5-11.4c12-19.6,16.8-41.5,20-63.7c2.1-14.6-6.2-23.8-17.6-31
		c-2.4-1.5-5.5-2.3-6.5-5.5C538.4,318.6,543.3,317.1,548.9,318.3z"/>
	<path d="M467.8,310.4c-2.7-3-5.2-6.1-7-9.7c0-0.9,0.1-1.8-0.3-2.8c-1.9-6.1-0.4-8.8,5.8-11c9.7-3.5,18.9-1.4,28.2,2
		c6.5,2.3,12.6,5.2,17.2,10.4c1.4,1.6,2.7,3.1,3,5.3c2.8,3.6,2.6,5.2-1.3,11.2c-3.5,4.6-8.6,6.2-14,7.4c-3.9,0.6-7.8,0.6-11.6-0.8
		c-5.8-2.2-11.3-4.8-16.4-8.3C470,313.1,468.2,312.4,467.8,310.4z"/>
	<path d="M548.9,318.3c-5,1-10,2-14.8,3.8c-5.1,2.3-9.9,0.3-13.5-5.7c-1.1-3.7-3-7.5,0.8-10.8c1.4-12.7,13.9-19.3,25.2-16.9
		c7.2,1.5,12.7,4.2,17.5,9.3c3.2,3.4,3.2,7.1,0,10.5C559.8,313,554.4,315.7,548.9,318.3z"/>
	<path class="st0" d="M521.4,305.6c-1.9,3.6-0.4,7.1,0.2,10.7c-3.2,2.1-6.1,1-8.9-1c1.8-3.3,4.4-6.5,2.1-10.7
		C517,304.9,519.2,305.3,521.4,305.6z"/>
	<path class="st1" d="M512.6,315.3c3,0.3,6,0.7,8.9,1c2.9,4.8,7.3,6.2,12.6,5.9c6.3,3.3,12.1,7.3,17.3,12.1c7.1,6.7,9.2,15.5,8,24.8
		c-1.4,11.2-3.9,22.3-7,33.2c-3.1,10.9-7.4,21.5-13.6,31.1c-2.1,3.4-2.1,6.1-0.2,9.6c3.4,6,3,6.6-3.3,8.5
		c-10.3,3-19.7,7.7-27.5,15.1c-2.6,2.5-4.9,1.3-7.5,0.2c-8.8-3.6-17.4-8-26.8-10.1c-7.7-1.8-23.4,4-24.1,15.3
		c5.3,4.5,11.8,5.1,18.3,5.3c7.6,0.2,15.3-0.3,22.9,1c1.6,0.3,3.3,0.2,4.5,1.5c-1.2,2.3-4.1,3.8-3.7,7.5c4.8-3.5,9.1-7.1,13.7-10.4
		c12.5-8.8,26.4-14.9,41.1-18.1c13.7-3,27.8-2.9,39.7,6c10.9,8.2,17.8,19.4,22.6,32.3c5.1,13.7,8.2,27.9,11.5,42.1
		c2.1,9.1-3.6,18.7-12.1,20.3c-5.4,1-10-1.7-14.4-4.4c-7.4-4.5-14.6-9.3-22-13.8c-10.8-6.4-23.1-5.2-33.9,3.5
		c6.3,0.8,12.5-0.7,18.7,1.8c-11.1,5.9-22,11.4-34.6,13.3c-17.4,2.7-31.8-3.4-45.6-12.7c-11.2-7.5-18-18.6-24.5-29.8
		c-13.3-23.1-26.5-46.2-39.2-69.6c-10.3-18.9-19.5-38.5-23.3-59.8c-1.9-10.8-3.5-22.1,1.8-32.8c5.7-11.6,15.8-18.4,27.1-23.4
		c15.8-7.1,32.8-9.6,49.9-11.4c6.2,4.2,12.6,7.8,19.5,10.7c-2.1,2.2-5,2.2-7.7,2.4c-9.2,0.8-17.4,4.4-24.8,9.5
		c-9.2,6.4-10.7,16-10,26.5c1.8,25.3,13.4,46.2,28.7,65.5c2.9,3.6,6.6,6.3,10.3,8.9c6.5,4.4,12.2,3.9,18.3-1.2
		c7.7-6.5,10.6-15.4,11.9-24.9c1.8-13.8,1.4-27.5,0.4-41.4c-0.6-7.9-0.8-15.9-2.1-23.8c-1.4-8.6-3.7-16.5-12.5-20.5
		C504.6,320.7,509.4,319.3,512.6,315.3z"/>
	<path class="st2" d="M495.1,469.8c-12.1-1.9-24.4,0.1-36.5-2.1c-3.7-0.7-8.2-0.5-9.2-5.8c0.2,0,0.4,0,0.5-0.1
		c16.2-10.7,30.5-2.8,45.1,4.3C497.7,467.5,495.5,468.6,495.1,469.8z"/>
	<path class="st3" d="M500,322.1c7.2,0.2,9.6,5.6,11.7,11.2c2.6,7,3.2,14.5,3.8,21.7c1.3,14.9,1.9,29.8,1,44.7
		c-0.8,12.2-2.8,24.4-12.6,33.5c-6.6,6.1-13,6.6-20.5,1.9c-8.9-5.6-14.7-13.7-20.3-22.3c-7.7-11.8-14.2-24.2-17.2-38
		c-2.2-10.3-4.4-20.8-0.7-31.4c2.1-5.8,6-9.9,11-13c9.5-5.9,20.1-8.4,31.1-9.3C491.5,322.4,495.7,322.5,500,322.1z"/>
	<path class="st4" d="M476,289.8c10.7-1.7,19.3,3,27.9,7.8c2,1.1,4.1,3.5,2.1,6.5c-2.2,3.2-6.6,4.7-8.5,2.2
		C491.7,298.8,484.4,293.8,476,289.8z"/>
	<path class="st4" d="M532.3,294.7c9.9-5.4,23.2-2.4,27.1,5.7c0.8,1.7,2.2,3.6,0.4,5.3c-1.8,1.7-4.1,1.2-6.3,0.3
		c-3.7-1.5-5.5-5.3-9-7.2C540.9,296.8,537.2,294.9,532.3,294.7z"/>
	<path class="st3" d="M518.4,399.4c1.3-13.6,2-28.1,3.9-42.5c0.9-6.8,1.5-13.7,2.9-20.5c2.3-10.8,5.6-12.2,16.1-4.5
		c9.7,7.1,10.3,17.9,9.4,28.6c-1,12.5-3,24.8-6.7,36.9c-3,9.8-5.2,19.9-9.7,29.2c-1.6,3.3-3.5,6.3-7.4,5.8c-3.8-0.5-4.5-4.3-5.3-7.4
		C519.2,417,518.8,408.6,518.4,399.4z"/>
	<path class="st5" d="M500.4,327.6c-10.2,3-19.3,5-27.5,9.2c-9.3,4.8-13,13.5-11.4,23.9c1.6,10.7,3.4,21.3,6.7,31.7
		c3.8,11.7,8,23.2,14.5,33.8c0.7,1.1,1.1,2.3,2.2,4.5c-5.8-3.6-9-8.4-12.2-12.6c-11.4-15.2-19.3-32.2-23-50.9
		c-1.3-6.7-2.6-13.7-0.5-20.7c1.7-6,5.1-10.6,10.5-13.2C472.1,327.2,485.2,324.6,500.4,327.6z"/>
	<path d="M513,405c-0.8,7.3-1.2,13.1-4.1,18.3c-3.1,5.5-6.8,6-10.6,1.2c-4.8-6-7.7-21.3-1.9-29.5c2-2.8,5.1-4.7,8.5-4.2
		c3.4,0.6,6,3.3,6.7,6.7C512.1,400.4,513.7,403.3,513,405z"/>
	<path class="st5" d="M534.1,394.6c5-20.3,12.3-40.6,0.7-61c2.4-0.5,3-0.3,5.6,2.2c6.5,6.3,8.2,14.6,7.2,22.8
		c-1.8,15.4-5.8,30.4-10.2,45.3c-0.5,1.6-0.8,3.1-2,4.3C533.1,403.8,532.9,399.3,534.1,394.6z"/>
	<path d="M534.1,394.6c1.3,4.5,1,9.1,1.2,13.6c-1,3.8-2.1,7.5-3.1,11.3c-0.6,2.2-1.7,4.1-3.7,5.3c-2.8,1.8-5.2,1-6-2
		c-2.3-8.5-2.7-17.3-1.7-26.1c0.4-3.7,2.4-7.3,6.8-8C532.1,388,531.9,392.7,534.1,394.6z"/>
	<path class="st3" d="M509.7,403.7c0.1,1.7,0.3,3.6-1.4,4.4c-1.8,0.8-2.9-0.7-4-1.9c-1.4-1.5-3-2.9-4.2-4.6
		c-1.5-2.1-1.9-4.5,0.7-6.3c2.7-1.9,5.2-0.5,6.6,1.6C508.8,398.8,510.4,401,509.7,403.7z"/>
	<path class="st6" d="M503.5,424.7c-3.4-0.1-8.4-6.9-7.3-9.8c0.7-1.8,2.1-2.5,3.8-1.2c2.7,2,4.4,4.7,5.5,7.7
		C506.3,423.4,505.2,424.5,503.5,424.7z"/>
	<path class="st3" d="M533.5,402.3c0.1,0.6-1.2,1.8-2.5,2.6c-1.8,1.1-2.6-0.9-3.3-1.8c-2.2-3-4.8-6.1-2.1-10.1
		c1.1-1.6,2.8-2.2,3.9-0.5C531.2,395.1,532.9,397.8,533.5,402.3z"/>
	<path class="st6" d="M529.3,417.7c0.1,2.9-0.9,5-3,4.7c-2.6-0.4-3.5-3.1-3.8-5.6c-0.3-2.2,0.8-4.5,2.8-4.3
		C528.2,412.8,528.8,415.7,529.3,417.7z"/>
</g>
</svg>
