<?xml version="1.0" encoding="utf-8"?>
<!-- Generator: Adobe Illustrator 23.0.1, SVG Export Plug-In . SVG Version: 6.00 Build 0)  -->
<svg version="1.1" id="Layer_4" xmlns="http://www.w3.org/2000/svg" xmlns:xlink="http://www.w3.org/1999/xlink" x="0px" y="0px"
	 viewBox="0 0 1000 1000" style="enable-background:new 0 0 1000 1000;" xml:space="preserve">
<style type="text/css">
	.st0{fill:#6E3720;}
	.st1{fill:#FB9A7A;}
	.st2{fill:#7F7F7F;}
	.st3{fill:#FEFEFE;}
	.st4{fill:#C0FEFE;}
	.st5{fill:#00407F;}
</style>
<g>
	<path class="st0" d="M592.9,300.9c6.7,9.1,12.7,18.6,14.4,30c1,6.6-1,12.9-3.5,19c-4.5,11.4-12.3,20.7-19.6,30.2
		c-8.4,11-17.6,21.4-27.8,30.8c-2.1,1.9-1.4,4.1-1.6,6.2c-0.8,7.4-1.1,15-7.4,20.5c-3.6,3.1-7.7,4.9-12.3,5.7
		c-2.4,0.4-3.1,1.8-2.6,3.7c2.7,10,0.1,19.9-0.3,29.8c-0.4,10.3-2.2,20.6-3.7,30.8c-2.1,14.7-5,29.3-9.4,43.6
		c-4,13.1-8.7,26.1-10.9,39.6c-0.9,5.2-0.8,10.6-1.1,15.9c-0.4,5.4-1,10.8-3.1,15.8c-4.9,11.8-14.2,11.1-24.5,5.5
		c-11.2-6.1-18.1-16.6-24.2-27.2c-11.3-19.5-19-40.6-24.8-62.3c-2.8-10.3-4.1-21.2-5.5-31.9c-1.4-11.1-2.9-22.3-2.8-33.5
		c0.1-11.6,2.7-22.8,4.3-34.2c1-7.2,2.1-14.1,0.8-21.4c-1.1-6.1-0.6-12.5-0.9-18.8c-0.4-9.5-1.2-19-1.5-28.6
		c-0.1-5.8-1.1-11.6-0.7-17.4c1-13.8,1.8-27.7,4.5-41.4c2.1-10.6,6.1-20,12-28.6c8.3-12.2,20.5-18.5,34.9-21.2
		c6.8-1.3,13.6-2.3,20.5-1.9c12.7,0.8,25.4,2,37.5,6.4c1,0.4,1.9,0.3,2.8,0.3c1.9,0.3,3.1,1.7,4.3,3c4.8,5.7,10.9,7.9,18.1,7.2
		c0.8-0.1,1.6,0,2.2,0.7c3.2,1.9,6.4,3.8,9.6,5.7c-1.6,7.2,3.4,9.3,8.6,11.6C583.5,296.8,588.6,297.8,592.9,300.9z"/>
	<path d="M560.6,277.4c-11.1,2.9-18.4-2.8-24.6-10.9c-5.1-8.4-8.2-17.3-5.8-27.3c1.1-4.4,4.4-6.2,8.6-5.8
		c8.7,0.8,16.1,4.9,21.6,11.4c3.6,4.2,6.7,8.8,9.2,14.1C573.8,267.8,569.3,274.7,560.6,277.4z"/>
	<path d="M592.9,300.9c-7.6-1.4-14.4-4.8-21-8.3c-4.1-2.1-3.9-5.8-1.6-9.5c4.9-6.8,11.7-10.7,19.9-11.5c10.1-1,24.9,6.9,20.4,21.2
		C607.9,301.4,603.7,303.8,592.9,300.9z"/>
	<path class="st1" d="M479.6,428.7c9.6-0.3,17.1,3.1,24.3,8.1c4.4,3.1,9,6.1,14.7,6.7c4.3,0.5,3.6,4.9,3.7,7.4
		c0.2,8.1-0.1,16.2-1.2,24.2c-0.7,5.1-0.9,10.3-1.3,15.4c-1.8,21.7-5.6,42.8-12.4,63.5c-4.5,13.8-8.7,27.7-9.5,42.5
		c-0.4,6.8-0.8,13.8-2.7,20.4c-1,3.5-2.5,4.9-6.7,3.5c-10.1-3.5-16.4-10.9-21.8-19.4c-14.1-21.9-22.1-46.2-27.7-71.3
		c-3-13.4-5-27.1-6.6-40.8c-1.8-14.6,1.3-28.4,3-42.6c1.2-9.6,2.1-19.2,0.4-28.9c-1.1-6.2-0.7-12.6-0.9-18.8
		c-0.3-9.5-1.2-19.1-1.5-28.6c-0.2-6.8-1-13.6-0.7-20.3c0.8-19.6,2.2-39.3,11.6-57c7.1-13.4,18.4-21.3,33.9-23.1
		c21-2.4,40.7,2,60.2,9.4c15.1,5.8,29,13.7,41.9,23.2c10.4,7.6,17.4,18,17.4,31.8c0,4.3-1.3,8.2-3,12c-7.2,15.8-17.5,29.4-28.5,42.8
		c-5.7,7-12.9,12.2-19,18.7c-1.5,1.6-2.8,3.2-2.2,5.5c1.9,7.8-1.1,14.3-6.7,18.8c-6.5,5.2-14.3,5-21.9,1.9c-6-2.5-10.8-6.9-16.6-9.8
		C491.7,419.7,486,420.9,479.6,428.7z"/>
	<path class="st2" d="M566.4,260.1c0.1,3.5-4,6-6.9,4.9c-2.5-0.9-4.2-2.8-4.6-5.2c-1.1-6.4-4.4-11.6-7.7-16.9
		c-0.5-0.8-1.8-1.3-0.9-2.4c0.7-0.8,1.8-0.4,2.7,0.2c1.6,1,3.5,1.8,4.8,3c4.5,4.1,8.3,9,11.6,14.1
		C565.9,258.7,566.2,259.7,566.4,260.1z"/>
	<path class="st2" d="M584.4,275.9c7.4-1.3,12.6,0.3,17.7,3.2c1.5,0.8,3,1.7,3.6,3.1c1,2,3.1,4.7,1.1,6.5c-1.5,1.4-3.7-0.8-5.3-2.1
		C596.5,282.4,591.7,278.4,584.4,275.9z"/>
	<path class="st3" d="M487.2,352.8c0.4-15.6,2.3-29.4,6.7-42.8c4.2-12.6,13.9-19.5,28.1-20c10.7-0.3,20.8,1.9,30.3,6.7
		c5.7,2.9,9.1,9.4,8.2,16c-3.6,25.5-12.1,49.2-26.7,70.4c-4.4,6.4-9.1,12.8-15.8,17.5c-8.3,5.7-12.4,4.2-19.1-1
		c-6.6-5.1-8.5-12.8-9.5-20.5C488.2,369.9,487.8,360.5,487.2,352.8z"/>
	<path class="st3" d="M534.3,400.5c-0.5-6.9,3.2-12.7,5.5-18.8c7.2-19.2,17.9-36.7,27.9-54.5c2.7-4.8,5.7-10.2,11.4-12.8
		c2.5-1.1,4.3-1.1,6.5,0.9c6.1,5.6,6.6,12.1,4.9,19.8c-2.2,9.8-7.4,18.1-12.1,26.6c-7.3,13.1-17.2,24.3-26.5,36.1
		c-3.5,4.4-8,7.9-12.9,10.9c-3.7,2.3-5.6,1-5.7-3.4C533.3,403.6,532.3,401.6,534.3,400.5c2.4,3.6,3.5,3.9,7.1,1.1
		c4.6-3.5,7.7-8.2,10.8-12.9c10.7-13.9,21.4-27.8,29.3-43.5c2.4-4.7,3.7-9.7,4.7-14.8c0.8-4.1-0.3-7.6-3.9-11.1
		c0,4.7,1.4,8.6,0.6,12.6c-1.1,6.3-3.4,12.1-6.4,17.8c-4.6,8.8-9.6,17.3-14.9,25.7c-1.5,2.3-2.5,5.4-6.1,5.7c-0.5-0.5-0.8-1-1-1.6
		c-0.5-1.8-0.3-4.3-2.7-4.7c-2.5-0.4-4.2,1.5-5.5,3.3c-3.5,4.9-5.9,10.3-8.1,15.9C537.4,396.3,537.5,399.5,534.3,400.5z"/>
	<path class="st4" d="M550.8,301.5c-5.7,0.7-10.4-1-15.3-0.9c-14.9,0.3-23.5,6.4-28.5,20.3c-4.4,12.3-5.3,25.2-7.1,37.9
		c-1.6,11.6-0.5,23.1,0.3,35.8c-4.7-6-6-12.1-6.7-18c-1.2-9.6-3-19.3-2.1-29c1.1-12.5,2.4-25.1,6.8-37c4-10.9,12.2-16.3,23.5-17.6
		C529,292.2,543.7,296.3,550.8,301.5z"/>
	<path d="M528.3,376.1c-2.8,8.1-6.1,17.4-14.1,24.1c-1.9,1.6-4.1,1.4-6.1,0c-2.9-2.1-3.8-5.3-3.2-8.5c1.3-7,4.8-13.2,8.1-19.3
		c1.9-3.5,5.8-4.7,9.7-5.1C526.2,366.9,528.3,370,528.3,376.1z"/>
	<path class="st4" d="M555.8,380.8c10.9-15.1,21.3-30.4,25.8-48.9c1-4,0-7.7-1-11.4c-0.2-1-0.8-2,0.1-2.7c1.1-0.8,2.2,0,3,0.8
		c3.3,3.5,4.7,7.5,3.7,12.4c-2.4,12-8.3,22.4-15.2,32.3c-5.9,8.5-12,16.8-18.1,25.2c-0.4,0.5-1,0.7-1.6,1.1
		C551.9,386.1,552.6,383,555.8,380.8z"/>
	<path d="M555.8,380.8c-1.1,2.9-2.2,5.9-3.2,8.8c-3.2,5.9-7.1,11.1-13,14.4c-4.2,2.3-5.3,1.5-5.2-3.7c0,0-0.1,0.1-0.1,0.1
		c3.6-7.5,5.7-15.7,10.7-22.6c1.9-2.7,4.2-5.5,7.6-4.6C556.3,374.1,555.5,378,555.8,380.8z"/>
	<path class="st3" d="M526.6,376.2c-1,2.7-1,7.4-4.7,7.3c-3.9-0.1-2.6-4.9-3.2-7.7c-0.6-2.7,0.3-5.4,3.6-5.5
		C526.1,370,525.9,373.3,526.6,376.2z"/>
	<path class="st5" d="M507.8,391c0.4-1.8-0.8-5.2,2.1-4.8c3.1,0.4,3.9,3.9,3.8,7c-0.1,2.1-0.2,5.2-2.5,4.9
		C507.5,397.7,507.9,394,507.8,391z"/>
	<path class="st3" d="M545.8,384c0.9-3,1.6-6.2,4.6-7.8c2.4-1.3,4.2,2.1,2.9,5.5c-0.4,1-1.4,1.9-1.5,2.8c-0.2,2.2-1.4,4.1-3.3,3.9
		C546.8,388.2,545.4,386.3,545.8,384z"/>
	<path class="st5" d="M540.8,392.8c0.9-0.1,1.1,0.8,1.5,1.5c1.4,2.1,0.4,4-0.7,5.8c-1,1.7-3,3.5-4.6,2.8c-2.3-1,0-3.1,0.4-4.6
		C537.9,396.3,538.1,393.7,540.8,392.8z"/>
</g>
</svg>
