<?xml version="1.0" encoding="utf-8"?>
<!-- Generator: Adobe Illustrator 23.0.1, SVG Export Plug-In . SVG Version: 6.00 Build 0)  -->
<svg version="1.1" id="Layer_4" xmlns="http://www.w3.org/2000/svg" xmlns:xlink="http://www.w3.org/1999/xlink" x="0px" y="0px"
	 viewBox="0 0 1000 1000" style="enable-background:new 0 0 1000 1000;" xml:space="preserve">
<style type="text/css">
	.st0{fill:#6E3720;}
	.st1{fill:#FB9A7A;}
	.st2{fill:#730000;}
	.st3{fill:#FEFEFE;}
	.st4{fill:#C0FEFE;}
	.st5{fill:#7F7F7F;}
	.st6{fill:#00407F;}
</style>
<g>
	<path class="st0" d="M568.4,337.8c11.2,9.7,16.3,21.5,13.7,36.5c-3.3,19.4-10.7,37.3-20.6,54.1c-2.6,4.3-5.9,8.2-9.3,12.8
		c4.2-0.7,7.6-1.4,11.1-1.8c17.3-1.9,32.8,2.1,46.8,12.8c17.4,13.3,24.4,32.3,29.5,52.4c2.6,10.3,5,20.7,5,31.5
		c0,8.8-5.8,15.9-14,19.6c-13,5.9-24.9,2.9-36.8-2.6c-5.6-2.6-11-5.6-16.4-8.7c-2.4-1.4-4.1-1-6.4,0.1
		c-10.3,4.8-20.3,10.3-31.6,12.4c-14.2,2.6-28.4,3.5-42.9,1c-11.8-2.1-22.5-6.2-32.6-12.1c-10.9-6.3-18.5-15.6-25.6-25.9
		c-14.5-21.1-21.6-45.5-32.3-68.4c-7.5-16.2-14.4-32.6-19.4-49.8c-3.3-11.5-5.9-23.2-5.5-35.2c0.3-9.8,1.8-19.6,5.8-28.7
		c5.3-12.2,16.1-18.4,27.6-23.4c13.7-5.9,28.2-7.1,42.9-7.9c4.5-0.2,8.9-1.5,13.4-0.8c1.9,3.2,2.2,6.7,1.5,10.3
		c-1.9,2.2-4.5,1.5-6.9,1.6c-9.9,0.2-19.8,1.1-29.6,3c-7.2,1.4-14.1,3.8-20.8,6.9c-11.4,5.4-18.1,14.3-20.7,26.6
		c-2,9.5-0.5,18.7,0.7,28.1c2.5,19.1,9.4,36.8,17.5,54.1c7.7,16.3,15.1,32.8,22.1,49.5c5.6,13.5,14.1,25.1,23.3,36.4
		c14.1,17.3,32.8,24.8,53.9,26.8c13,1.2,26-1.1,37.7-7.7c1.7-1,3.3-2.2,5.3-2.4c-3.6,0.4-7.1,1.4-10.7,1.2c-1.3-0.1-2.8-0.1-3.3-1.6
		c-0.3-1.2,0.6-2.2,1.5-2.8c10.3-6.2,21-10.5,33.2-5.6c9.4,3.8,18.2,8.7,27.3,13.1c2.9,1.4,5.9,2.7,9.1,3.4
		c11.5,2.8,18.5-3.5,17.2-15.3c-0.7-5.7-2.1-11.2-3.7-16.6c-3.5-11.9-7.3-23.6-13-34.7c-5.4-10.5-13.5-18.4-23.7-23.9
		c-9.2-4.9-19.3-5.4-29.5-4.4c-22.1,2.2-40.9,12.2-58.8,24.4c-2.7,1.8-5.2,4-7.9,5.8c-1.3,0.9-2.9,2.4-4.3,1.1
		c-1.6-1.4,0.1-2.9,0.9-4.2c0.8-1.2,1.7-2.4,2.5-3.6c0.9-1.2,0.5-2.2-0.7-2.8c-8.7-4-16.6-9.5-26.1-11.7c-5.1-1.2-9.6,0.1-14.3,1.7
		c-1.5,0.5-3,1.5-4.6,0.4c1.3-7.1,6.8-10.3,12.7-12.7c4.6-1.9,9.5-1.7,14.3-0.1c8.8,3,17.3,6.8,25.4,11.2c2.8,1.5,5,1.5,7.4-0.9
		c8.2-8.1,18.4-12.7,29.2-16.1c2.8-0.9,5.2-1.6,5.4-5.1c0.1-1.6,1.4-2.9,2.4-4.2c13.5-18,21.6-38.4,26.1-60.3
		c2.5-12-0.9-21.8-10.7-29.3c-1.7-1.3-4.3-2-3.8-5.1C559,338,563.4,336.5,568.4,337.8z"/>
	<path d="M471.8,316.3c-0.2-3.5-1.6-6.9-1-10.4c4-6.1,9.4-7.1,16.6-6.3c8.2,0.8,15.7,2.9,22.8,6.4c4.4,2.2,8.2,5.7,12.3,8.7
		c4.5,2.5,6.8,6.4,6.8,11.6c-1.2,4.7-4.2,8-8,10.8c-4.7,2.2-9.7,2.7-14.8,1.9c-4.4-1.1-9-1.5-13-3.9c-2.5-1.4-5-2.7-7.3-4.3
		c-3.7-2.7-7-5.8-10.5-8.6C473.7,320.6,471.6,319.1,471.8,316.3z"/>
	<path d="M568.4,337.8c-4.6,1-9.2,2.1-13.8,3.1c-1.4,1.4-3.4,1.1-5.1,1.8c-3,0.7-5.8,0-8.6-0.8c-6.2-2.9-8.2-6.5-7.6-13.6
		c0.9-2.9,0.6-6.3,2.9-8.8c6.5-11.9,15.6-11.9,27.3-9.5c6,1.2,10.6,4.6,14.7,8.9c5.7,5.8,5.1,11-2,15.1
		C573.7,335.4,571,336.6,568.4,337.8z"/>
	<path class="st0" d="M536.2,319.5c-0.1,3-0.7,5.9-2,8.6c-2.5,1.2-4.3,0.3-5.7-1.8c-0.2-4.8-3.1-8.3-6-11.7
		C527.3,315.4,531.7,317.5,536.2,319.5z"/>
	<path class="st1" d="M528.4,326.3c1.9,0.6,3.8,1.2,5.7,1.8c-0.3,5.7,1.3,10.3,6.9,12.8c0.4,1,0.2,1.9-0.2,2.8
		c-8.2,19.9-10.8,41.1-13.9,62.2c-1.3,8.9-3.6,17.9-1.2,27c0.3,1.1,0.3,2.3,0.6,3.3c0.8,2.5,1.6,5.3,4.6,5.7
		c2.9,0.4,4.2-2.2,5.4-4.2c13.2-21.8,21.5-45.5,25.5-70.7c1.3-8.4-2.1-15.6-8.6-21.2c-1.4-1.2-3.6-1.8-3.6-4.2
		c1.4-1.8,3.2-0.7,4.9-0.8c7.8,5.4,14.8,11.4,16.3,21.5c0.6,4.2,0.3,8.3-0.5,12.5c-4.6,22.6-13,43.5-27.2,61.9
		c-0.8,1-2.2,2.5-1.9,3.2c2.3,5.3-2.4,4.5-4.6,5.1c-11.6,3.4-22.3,8.4-30.7,17.2c-2,2.1-3.5,2.3-6.1,1c-7.3-3.7-14.7-7.1-22.2-10.4
		c-13.4-5.9-24.8-1.7-31.1,10c1.6,1.8,3.6,1,5.4,0.9c14.2-1,26.9,4.1,39.5,9.7c0.9,0.4,1.6,1.1,1.7,2.2c-1.5,2.2-2.7,4.7-4.6,6.9
		c4.5-1.5,7.7-4.8,11.4-7.4c15.9-11.1,33-20.1,52.1-23.8c12.2-2.4,24.9-2.6,36.4,3.1c14.4,7,23.7,19,29.5,33.6
		c4.6,11.4,8.4,23.1,11.2,35.1c1.3,5.4,2.8,10.9,0.7,16.6c-2.7,7.2-8.5,10.6-16,8.8c-3.9-0.9-7.6-2.2-11.3-4
		c-8.5-4.2-17-8.4-25.5-12.5c-8.8-4.2-17.2-3-25.6,0.4c-3.5,1.4-7.4,2.8-10.5,6.2c5.7,1.4,10.7-1.7,15.9-0.2
		c-9.5,6.9-20.1,9.9-31.6,11.6c-16.7,2.4-31.7-2.4-46.5-8.9c-9.9-4.3-16.9-12.2-23.7-20.1c-8-9.2-15.2-19.2-19.8-30.6
		c-11.6-28.7-26.8-55.8-36.7-85.2c-3.6-10.7-4.7-22.2-6.2-33.5c-1.3-9.9,0.1-19.1,4-28.1c4.2-9.4,11.8-14.7,21-18.7
		c11.4-4.9,23.2-7,35.4-8c6.3-0.5,12.6-0.3,18.9-0.9c2.8,4.7,7.7,7.2,11.6,10.8c1,0.9,2.2,1.7,3,2.9c-1.1,2-3.1,2.1-5,2.5
		c-3.8,0.7-7.7,1.2-11.4,2.6c-14,5.3-20.1,15.1-18.3,31.1c2.9,25.9,12.3,49.4,28.8,69.7c8.7,10.7,20.7,10.5,29.4-0.1
		c4.2-5.1,7.5-10.6,9.2-17c1.7-6.6,3-13.3,3.9-20.1c1.1-8.2,1.5-16.5,1.8-24.7c0.4-11-1.2-22-3.2-32.9c-0.3-1.7-1.3-3.4-0.2-5.2
		C524,332.9,526.9,330.1,528.4,326.3z"/>
	<path class="st2" d="M493.1,475.7c-11.7-5.5-23.6-10.1-36.7-10.8c-1.9-0.1-3.7-0.2-5.7,0.6c-1.9,0.8-4.3,0.7-4.2-2.6
		c11.1-5.7,21.8-4.2,32.3,1.9c4.5,2.6,9.2,4.8,13.9,7C495,473,495,474.2,493.1,475.7z"/>
	<path class="st3" d="M521.4,335.9c2.9,7.9,3,16.3,4.1,24.6c2,15.4-0.3,30.6-2.2,45.7c-1.5,11.8-5.2,23.1-13.8,32.2
		c-9.8,10.3-22.4,8.1-30.7-2.4c-14-17.6-22.2-37.9-27.1-59.6c-1.6-7-2.4-14.4-1.1-21.7c2.5-14,12.8-19.9,25-22.7
		c3.6-0.8,7.2-1.4,10.8-2.1c2.3,1.3,4.6,2.7,6.9,4c-3.6,2.3-7.9,1.4-11.8,2.3c-7.2,1.5-14.2,3.2-19.6,8.9c-4.2,4.5-5.9,9.7-5.3,15.6
		c2.5,26.6,10.5,51.1,27,71.1c-8.3-16.4-13.4-34.9-15-54.4c-0.4-5.3-1.2-10.5-0.6-16c1.4-11.5,8.2-18.1,18.4-21.7
		c6.3-2.3,12.9-3,19.7-1.9C511.2,338.3,516.4,337.7,521.4,335.9z"/>
	<path class="st4" d="M505.9,337.8c-6.1,0.7-12.3,0.8-18.1,2.8c-15.7,5.4-19.4,13.3-18.9,28.8c0.4,11.4,2.1,22.8,5.2,33.9
		c2.5,9.1,5.6,17.9,9.8,26.4c1.1,2.3,2.2,4.6,3,7c-6-4.5-9.4-10.8-13.2-16.9c-10.5-16.6-15.4-35-17.8-54.4
		c-1.2-9.5,0.1-17.2,7.5-23.6c4.6-4,10.4-5.4,16-6.6c4.5-1,9.2-1.7,14-1.3C497.5,335.2,501.7,336.5,505.9,337.8z"/>
	<path class="st5" d="M488.7,305.6c9.9-0.6,18.9,1.9,26.8,7.5c2.4,1.7,5.7,4.1,2.9,7.8c-2.3,3.2-7.3,3.3-10.2,0.2
		c-3-3.3-5.6-7-9.5-9.4C495.3,309.7,492,307.6,488.7,305.6z"/>
	<path class="st3" d="M549.7,341.8c9.6,5.9,14.9,14.3,13.6,25.6c-0.9,7.7-3.1,15.4-5.1,22.9c-4.5,16.7-11.3,32.4-20.1,47.3
		c-1.7,2.9-3,6.5-7,6.5c-3.3,0-5.7-5.1-6.7-10.2c-2.1-10.9,0.7-21.4,2-32c1.9-15.6,5-31,8.8-46.2c1.3-5.2,3.2-10.1,5.9-14.7
		C544,340.8,546.7,342.5,549.7,341.8z"/>
	<path class="st5" d="M547.4,315.1c10.8-4.1,23.9,1,27.9,8.7c1.8,3.4,0.8,5.3-2.9,5.3c-2.6,0-5.2-0.5-7-2.5
		C560.7,321.4,555.3,317.3,547.4,315.1z"/>
	<path d="M518.6,410.1c-0.6,7.9-2.3,15.1-6.3,21.4c-3.3,5.2-8.4,5.5-11.4,0.2c-3.9-6.9-6.4-20.9,1.5-28.3c2.7-2.6,5.3-5.4,9.5-3.4
		C516.2,402.1,518.5,405.6,518.6,410.1z"/>
	<path class="st4" d="M541.2,408.2c5.6-12.8,9.6-26,11.4-39.9c0.7-5.4-1.2-10.5-3.2-15.5c-0.9-2.2-2.1-4.3-3.3-6.7
		c9.1,2.7,14.1,12,12.8,20.9c-2.8,18.1-9.9,34.8-16.3,51.7c-0.3,0.8-1.1,1.5-1.7,2.3C538.9,416.6,538.9,412.4,541.2,408.2z"/>
	<path d="M541.2,408.2c-0.1,4.2-0.2,8.5-0.3,12.7c-1,3.6-2.1,7.1-4,10.3c-1.5,2.5-2.7,6.1-6.5,5.2c-3.4-0.8-4.8-4.5-4.9-7.4
		c-0.4-8.1,0.8-16.1,3.4-23.8c1-2.9,3.3-4.8,6.4-4.7c3.1,0,3.8,2.9,4.7,5.2C540.4,406.5,540.8,407.3,541.2,408.2z"/>
	<path class="st3" d="M515.6,410.6c0.1,3.2-0.6,5.4-2.9,6.3c-2.4,0.9-3.8-1.1-5.2-2.6c-0.5-0.6-0.9-1.3-1.1-2
		c-0.8-2.9-3.3-5.7-0.3-8.7c0.8-0.8,1.4-1.5,2.8-0.7C512.3,404.9,515,407.3,515.6,410.6z"/>
	<path class="st6" d="M508.8,430c0,1.5,0,3.1-1.9,3.3c-2.5,0.4-6.8-5.2-6.8-8.9c0-1.5,0-3.1,1.9-3.3
		C504.5,420.8,508.7,426.4,508.8,430z"/>
	<path class="st3" d="M539.1,412.5c-0.2,1.7,0.7,4.3-2.6,4.4c-2.6,0.1-6.7-5.3-6.1-8.4c0.4-2.3,1.5-4.7,4.2-5.1
		C537.1,403,539.1,407.2,539.1,412.5z"/>
	<path class="st6" d="M527.3,427.9c0.1-2.6-0.1-5.3,2.6-4.8c3.3,0.6,4.1,3.5,4.3,6.6c0.1,2.3-0.9,4.9-3.1,4.4
		C528,433.5,527.3,430.3,527.3,427.9z"/>
</g>
</svg>
