<?xml version="1.0" encoding="utf-8"?>
<!-- Generator: Adobe Illustrator 23.0.1, SVG Export Plug-In . SVG Version: 6.00 Build 0)  -->
<svg version="1.1" id="Layer_4" xmlns="http://www.w3.org/2000/svg" xmlns:xlink="http://www.w3.org/1999/xlink" x="0px" y="0px"
	 viewBox="0 0 1000 1000" style="enable-background:new 0 0 1000 1000;" xml:space="preserve">
<style type="text/css">
	.st0{fill:#6E3720;}
	.st1{fill:#FB9A7A;}
	.st2{fill:#FEFEFE;}
	.st3{fill:#730000;}
	.st4{fill:#C0FEFE;}
	.st5{fill:#808080;}
	.st6{fill:#010101;}
	.st7{fill:#00407F;}
</style>
<g>
	<path class="st0" d="M584.1,356.6c9,11.6,10.7,24.3,6.2,38.1c-5.3,16.4-12.6,31.7-23.6,45c-0.5,0.6-1.5,1.1-1,2
		c0.6,1.1,1.6,0.6,2.5,0.4c21.4-4.4,39.8,1.4,55.7,16.2c14.7,13.7,22.3,31.3,27.5,50.2c1.9,6.8,3.7,13.8,4.8,20.8
		c1.1,7.6-1.5,14.4-7.7,19.1c-7.9,6-16.8,9.9-26.9,9.2c-9.8-0.7-19-4.3-28.2-7.9c-3.7-1.5-7.3-3-10.8-4.9c-4.1-2.2-7,0.7-10.2,2.1
		c-14.2,6.3-28.9,9.7-44.5,11c-16.1,1.3-32,1.3-47.6-3.2c-12-3.5-23.6-8.6-32.9-17.2c-5.7-5.3-9.7-12.1-14.1-18.6
		c-11.1-16.5-15.3-35.9-22.1-54.2c-6.4-17.3-13.7-34.2-18.8-52c-4.4-15.5-8.3-31.1-7.6-47.4c0.6-13.4,3.4-26.2,12.1-36.8
		c5.8-7.1,14-10.9,22.4-13.9c7.4-2.6,15.1-3.3,22.9-4.2c8.7-0.9,17.5-1.2,26.1-0.5c6.3,0.5,12.8-0.4,19,1.9c-2.7,3-6.3,5.3-8.1,9.2
		c-3.1,1.4-6.1-0.2-9.1-0.2c-14.5-0.1-28.9,0.9-43,4.9c-15.5,4.5-26.2,13.3-28.9,30.5c-1.9,12.2-0.6,24,1.7,35.8
		c4.6,23.7,14.2,45.9,22.2,68.6c4.9,13.9,9.3,28.1,16.6,41.1c8.2,14.7,17.9,27.9,33,36.3c16.2,9,33.6,11.5,51.9,10.3
		c11.2-0.8,22.1-3.2,31-7.6c-1.4,0.4-4,1.3-6.8,1.8c-1.2,0.2-2.8,0.8-3.6-0.6c-0.8-1.4,0.5-2.5,1.5-3.2c8.6-6.4,17.9-10.9,28.9-8.9
		c9.7,1.7,18.7,5.4,27.5,9.8c5.8,2.9,11.7,4.8,18,5.8c12.6,2,21.1-6,18.5-18.5c-4-19.3-11.1-37.7-23.4-53.1
		c-13.1-16.5-31-22.5-52.1-19.8c-27.2,3.5-50.4,15.5-71.4,32.5c-1.8,1.5-4,4.5-6.1,2.7c-2.3-2,0.4-4.6,1.7-6.7
		c0.7-1.1,1.6-2,2.2-3.2c0-0.5,0-1.1-0.4-1.3c-7.8-5.2-15.2-11.2-24.3-14.3c-4.7-1.6-9.6-1.7-14.4-0.3c-1.7,0.5-3.4,1.2-5.2,0.1
		c0.9-5.9,5.6-8.4,10.3-10.4c6.7-2.9,13.4-2,19.9,1c7.1,3.3,13.6,7.6,20.1,12c3.1,2.1,5.2,1.9,8-0.7c7.8-7.1,17-11.9,26.8-15.7
		c4.5-1.2,9-2.4,13.4-3.9c4.6-1.3,7.8-4.2,10.6-8.1c8.3-11.5,15.3-23.7,20.8-36.7c5.8-13.6,6.7-26.6-2.8-39
		c-0.8-1.1-2.2-2.2-0.7-3.8C575.8,356.9,579.7,354.4,584.1,356.6z"/>
	<path d="M479.4,320.4c0-5.3,3.9-7.1,7.9-8.7c7.5-0.4,14.6,1.6,21.6,3.9c1.5,0.5,3.5,0.2,4.7,1.7c7.9,3.2,15.5,7,21.4,13.4
		c1.5,1.7,3,3.3,3.9,5.5c2.1,7.3,0.6,10.8-6.8,15.3c-11.3,4.7-21.6,1.6-31.8-3.7c-3.3-2.3-7-4.1-9.7-7.2c-1.1-1.2-2.3-2.3-3.5-3.5
		c-3.2-3.1-6.3-6.4-7.7-10.8C479,324.5,478,322.4,479.4,320.4z"/>
	<path d="M584.1,356.6c-4.3,0.7-8.6,1.3-12.9,2c-1.6,1.5-3.7,1.6-5.7,2c-1.3,0.2-2.6,0.1-3.9,0.1c-1.3,0-2.6-0.1-3.9-0.3
		c-3.2-0.8-6.5-1.4-9.5-3c-6.1-4.9-6.5-7-3.3-17.1c1.8-3.1,3.1-6.7,6.9-8.1c13.9-6.5,28.1-4.2,38,6.2c1.4,1.5,2.7,3.1,3.8,4.9
		c2.5,4,1.2,8-3.2,10.3C588.3,354.6,586.2,355.6,584.1,356.6z"/>
	<path class="st0" d="M551.8,332.2c-2,2.6-3.9,5.1-5.9,7.7c-3.4,0.3-5.8-1.3-7.7-3.9c-5.5-6.8-12.1-12.2-20.1-15.9
		c-1.5-0.7-3.4-1.1-4.4-2.7c11.5,3.4,22.7,7.4,33.4,12.8C548.6,330.9,550.2,331.5,551.8,332.2z"/>
	<path class="st1" d="M538.1,335.9c2.6,1.3,5.2,2.6,7.7,3.9c0.6,1.8-0.5,3.5-1.1,5c-2,5.2-0.3,8.9,4,11.8c1.3,2.2-0.1,4.1-0.9,6
		c-9.1,23.1-14.6,47.1-19.1,71.4c-1,5.6,1.1,10.9,1.5,16.4c-10.2,4.8-20.5,9.4-28.3,17.9c-2.2,2.4-3.7,0.8-5.4-0.3
		c-6.8-4.5-13.6-9.2-21-12.7c-11.5-5.5-22.7-3.6-30.3,7.8c4.6,0.8,9.1-0.7,13.8,0c12.2,2.1,21.9,9.1,31.8,15.6
		c-0.9,3.8-5.1,5.7-5.6,10.3c4.3-1.2,6.7-4.9,9.8-7.3c18.3-13.9,38.3-24.2,60.9-28.3c12-2.2,24.3-2.3,36.3,1.5
		c6.1,2,10.3,6.3,15.2,9.9c13.3,9.7,19.2,24.3,24.9,38.8c3,7.5,6,15,7.4,23.3c2.2,13-7.6,22.3-20.8,19.9
		c-12.1-2.2-22.5-8.4-33.6-12.8c-16.1-6.5-31.3-1.9-41.6,8c4.8-1,9.2-2,15-3.2c-7.2,5.4-14.3,7.7-21.4,9c-8.5,1.6-17.2,2.6-26,2.2
		c-16.6-0.8-32.6-4.5-46.3-14.1c-11.6-8.1-20-19.4-26.9-31.8c-8.7-15.7-13.8-32.8-19.8-49.5c-7.7-21.2-16.3-42.1-20.4-64.4
		c-2.6-14.1-3.9-28.3,0.7-42.3c4.4-13.4,15.1-19.6,27.4-23.3c14.3-4.3,29.1-5.3,44-5c3,0.1,6.1,0.7,9.1,1c0.5,6.8,4.4,11.7,8.9,16.4
		c-2,2.1-4.8,1.9-7.2,2.4c-17.3,3.8-25.2,16.1-23.4,33.7c1.7,16.4,6.1,31.8,12.6,46.8c4,9.2,9,17.6,16.4,24.6
		c7.6,7.2,16.7,7.3,24.5,0.3c7.7-6.9,12.6-15.5,15.4-25.5c4.9-18,6.4-36.4,6.4-55c0-4.5-2-8.9-0.8-13.5
		C537.7,347.1,540.3,342.5,538.1,335.9z"/>
	<path class="st2" d="M530.3,450.3c-3.8-6.3-3.2-13-2.1-19.9c3.3-19.6,8.3-38.8,14.4-57.7c1.8-5.5,4.1-10.8,6.2-16.1
		c2.9,1,5.8,2,8.8,2.9c4.3,5.4,5.6,11.9,5,18.3c-1.4,14.9-7.5,28.4-15.2,41.1c-2.7,0.7-2.7-1.8-3.5-3.1c-2.8-4.2-5.8-4.2-8.6,0
		c-2.5,3.8-2.7,8.3-3.3,12.6c-0.5,3.7-1.5,7.3-1.3,11.1c0.1,2,0.6,4.1,2.6,4.8c1.9,0.7,3.3-0.8,4.6-2.1c3.7-3.6,5.4-8.4,7.4-13
		c8-14.8,17.2-29.1,21.7-45.6c2-7.5,0.3-14.1-3.7-20.3c-0.8-1.2-2-2.2-1.6-3.9c1.3,0,2.6,0,3.9,0c6.1,3.3,10.1,12.3,8.7,20.1
		c-2,11.4-6,22.2-10.9,32.7c-4.6,10-9.3,20-15.4,29.2c-1.2,1.8-2.3,3.5-4,4.9C539.6,448.4,535,449.6,530.3,450.3z"/>
	<path class="st1" d="M543.9,446.4c6.3-11.2,12.7-22.4,18-34.1c4.9-10.8,9.2-22,11.2-33.7c1.2-7.4-2.5-13.7-7.6-19.1
		c1.9-0.3,3.7-1.7,5.8-1c11.7,12.1,11.7,27.3,5.7,41.5c-6,14.2-13.6,27.6-22.9,39.9C551.4,443.5,548.3,445.8,543.9,446.4z"/>
	<path class="st3" d="M491.1,478.6c-5.5-1.8-10.1-5.3-15.1-8.2c-8-4.6-16.4-6.9-25.7-6.7c-1.6,0-3.6,1.1-4.9-0.9
		c13-4.7,24.2-0.6,34.7,7.1c3.2,2.4,6.7,4.3,10.1,6.5C491,477,492.3,477.3,491.1,478.6z"/>
	<path class="st2" d="M532.1,350.6c1.6,3.9,1.9,8.1,2,12.3c0.5,19.9-1.4,39.6-6.9,58.8c-3,10.6-8.9,19.6-17.7,26
		c-7.1,5.2-15.4,5.4-23.3-1.9c-10.7-10-16.3-22.9-21.5-36.2c-4.8-12.4-7.7-25.2-8.6-38.4c-1.1-17.1,6.2-29.8,25-33.2
		c2.4-0.4,4.8-0.7,7.1-1.1c1,1,2,2,3,3c-1.7,1.8-4.2,1.7-6.3,2.2c-16.2,3.4-22.8,9.4-21.5,30.4c1.2,19.2,7,36.9,15.4,54
		c1.7,3.5,3.7,6.9,5.6,9.3c-3.2-7.5-5.3-16.2-7-25c-2.6-12.9-3.6-26.1-3.2-39.3c0.5-14.6,7.1-20.8,20.2-25.3
		c1.9-0.7,3.8-0.5,5.6,0.5c5.6,2.2,11,5,17.1,5.8C522.4,353.1,527.3,352.1,532.1,350.6z"/>
	<path class="st4" d="M500.1,346.6c-13.9,1.4-24.5,9.7-24.6,25.2c-0.2,20.1,2.5,39.6,8.4,58.7c1,3.4,2.7,6.5,3.8,10.1
		c-3.2-2.4-5.8-5.5-7.6-9c-6.6-13.2-12.9-26.5-15.7-41.1c-1.7-9-2.9-18.2-2.4-27.4c0.6-12.1,8.1-19.8,21.2-22.2
		c2.7-0.5,5.4-0.7,8.1-1.1C494.2,342.1,497.2,344.3,500.1,346.6z"/>
	<path class="st5" d="M500.3,317.9c10.3,1.2,19.7,4.1,27,11.8c1.5,1.6,4.3,3.2,1.9,5.9c-2.5,2.8-5.7,4.6-9.2,2
		c-2.4-1.8-4-4.5-6.1-6.7C509.6,326.3,505.1,321.9,500.3,317.9z"/>
	<path class="st4" d="M546.8,419c3.6-9.2,8.5-17.7,11.7-27c3.8-11.1,3.2-21.7-0.9-32.4c1.3,0,2.6,0,3.9,0
		c10.2,10.2,8.9,22.1,3.8,33.7c-5.2,11.9-11.7,23.2-17.6,34.7c-0.4,0.7-1.1,1.2-1.6,1.7C544.5,426,545.2,422.5,546.8,419z"/>
	<path class="st5" d="M560.3,332.6c9.4-1.2,17.9,0.4,24.6,7.6c1.3,1.5,2.2,3.1,3.1,4.8c0.7,1.4,1.5,2.7,0,3.9
		c-1.2,0.9-2.7,2.2-4.3,1.5c-1.9-0.8-4.2-1.6-5.3-3.1C573.7,340.7,567.9,335.7,560.3,332.6z"/>
	<path class="st6" d="M546.8,419c0.3,3.6,0,7.2-0.8,10.7c-1.5,5.4-4,10.3-8,14.2c-1.4,1.4-3,2.8-5,2.2c-2.2-0.7-3.7-3-3.7-5.2
		c0.3-8.4,1.2-16.7,4.1-24.7c1.1-3,3.3-5.3,6.7-5.1c3.3,0.2,4.5,3.2,5.6,5.8C546.1,417.7,545.8,418.7,546.8,419z"/>
	<path d="M500.9,426c-0.3-5.3,1.7-9.9,4.2-14.3c2.2-3.9,6.2-4.9,10.4-4.4c3.6,0.4,7.7,5.5,7.9,9.6c0.4,9.1-3.3,17-8.8,23.8
		c-4,5-10.6,2.3-12.4-4.9C501.3,432.7,501.3,429.3,500.9,426z"/>
	<path class="st2" d="M536.1,419.7c-0.3-3,1.8-4.8,3.9-5.4c2.3-0.7,3.7,1.3,4,3.7c0,0.2,0,0.4,0,0.5c1.9,3,1,5.8-0.8,8.4
		c-0.7,1.1-2,1.2-3,0.5C537.6,425.5,536.5,422.8,536.1,419.7z"/>
	<path class="st7" d="M531.3,437.4c0.2-1.5-0.7-4.8,2.3-4.5c3.7,0.3,3.9,4.2,4.5,7.1c0.5,2.7-1.9,4.2-3.8,4
		C530.9,443.5,531.2,440.4,531.3,437.4z"/>
	<path class="st2" d="M520.6,420.2c0.3,2.3-1.1,3.6-2.7,4.4c-1.5,0.7-3,0.2-4.3-1.2c-2.4-2.5-3.5-5.6-4.8-8.6
		c-0.6-1.4,0.2-2.7,1.4-3.8c1.3-1.2,2.3-0.8,3.8-0.1C518.3,412.9,519.3,416.6,520.6,420.2z"/>
	<path class="st7" d="M502.9,431.1c-0.1-1.4,0.3-2.6,1.7-3.2c1.2-0.5,2.4,0.1,2.9,1.1c1.5,2.5,2.9,5,4,7.6c0.5,1.2,0.2,2.6-1.2,3.4
		c-1.4,0.8-2.6,0.1-3.4-1C505.3,436.6,503,434.4,502.9,431.1z"/>
</g>
</svg>
