<?xml version="1.0" encoding="utf-8"?>
<!-- Generator: Adobe Illustrator 23.0.1, SVG Export Plug-In . SVG Version: 6.00 Build 0)  -->
<svg version="1.1" id="Layer_4" xmlns="http://www.w3.org/2000/svg" xmlns:xlink="http://www.w3.org/1999/xlink" x="0px" y="0px"
	 viewBox="0 0 1000 1000" style="enable-background:new 0 0 1000 1000;" xml:space="preserve">
<style type="text/css">
	.st0{fill:#6E3720;}
	.st1{fill:#FB9A7A;}
	.st2{fill:#FEFEFE;}
	.st3{fill:#C0FEFE;}
	.st4{fill:#004080;}
	.st5{fill:#7F7F7F;}
	.st6{fill:#00407F;}
</style>
<g>
	<path class="st0" d="M603.4,387.7c5.3,12.6,3.4,24.3-3.6,35.8c-3.4,5.5-6.1,11.4-9.2,17.5c8.7,1.7,17.1,2.4,25.2,5.2
		c17.2,6,29.9,17.1,38.3,33c7.3,13.9,13.2,28.2,16.2,43.8c1.2,6.4,0.4,12.1-4.1,16.3c-11.6,10.7-24.8,16.3-41.3,13.8
		c-11.7-1.8-22.6-5.9-34-8.6c-2.3-0.5-4.2-0.6-6.5,0.4c-14.1,6.3-28.9,10-44.2,12c-9.6,1.2-19.2,2.3-28.8,1.8
		c-23.4-1.3-45.9-5.6-65.7-19.4c-11.2-7.8-18.2-18.3-22.8-30.8c-4.3-11.8-5.9-24.2-9.1-36.3c-3.6-13.5-8.3-26.8-12.2-40.3
		c-4-13.4-6.8-27-8-41c-0.6-7.7-2.1-15.3-1.8-23c0.6-16.2,4.4-31.3,15.4-44c4.9-5.6,11.5-8,18.4-9.1c9-1.5,18.1-3.3,27.1-3
		c29.2,1,57.2,6.8,83.1,21.1c14.1,7.8,28.3,15.4,41.6,24.5c-3,2.9-6.9,3.4-10.6,4.5c-8.2-3.9-15.5-9.5-23.8-13.4
		c-2.1-1-4-2.1-6.3-2.6c-4.3-1.6-7.6-5-11.4-7.3c-7.3-4.4-15.7-5.1-23.5-7.5c-12.5-3.8-25.4-5.3-38.4-6.6c-7.7-0.7-15.2-0.9-22.8,0
		c-18.6,2.4-29.5,10.2-33.8,29c-2.9,12.5-1.9,24.9-0.5,37.3c2.5,23.4,8.6,46,16.4,68.2c3.7,10.5,6,21.3,8.5,32.1
		c4.9,21.4,17.3,36.3,36.9,45.7c13.4,6.4,27.5,9.5,42.2,11c15.9,1.7,31.2-1.4,46.6-4.1c-2,0.3-4,1-6,1.2c-1.2,0.1-2.8,1.4-3.5-0.2
		c-0.8-1.6,0.7-2.7,1.8-3.7c4.8-4.3,10.5-7.1,16.7-8.8c8.8-2.4,17.6-2.8,26.5-0.3c9.6,2.7,19.2,4.9,28.6,8.1
		c8.3,2.8,16.4,3.8,24.4-1.1c6-3.7,8.4-8.4,7.6-15.5c-0.9-7.2-4.5-13.2-7.4-19.6c-4.1-9-8.3-18-14.5-25.9
		C617.2,460,599,452.9,577,454.8c-31.1,2.6-57.5,16.3-82.1,34.5c-3.7,2.7-7.2,5.6-11,8.1c-1,0.7-2.4,1.5-3.5,0.2
		c-0.9-1-0.1-2.2,0.5-3.1c1.1-1.8,2.2-3.7,3.6-5.2c2.9-3.2,2.1-5.7-0.9-8.3c-4.4-3.8-8.8-7.7-13.6-11.1c-6.7-4.8-13.9-7-22.1-4.9
		c-1.5,0.4-3.5,1.3-4.4-0.5c-0.8-1.6,0.9-3,2-4.1c5.8-5.3,12.4-7.6,20.2-5.7c8.8,2.2,15.7,7.6,22.7,12.9c9.9,7.6,7,8.4,17.4-0.1
		c7.5-6.1,16.4-9.9,25-14.1c0.9-0.4,1.8-0.8,2.6-1.2c0.8-0.4,1.7-0.8,2.6-1.1c2-0.7,3.9-1.3,5.8-2c3.1-1,6.2-2.1,9.3-3.1
		c1.8-0.5,3.6-1.2,5.4-1.7c1.9-0.4,3.8-1,5.7-1.3c7.5,0,12-4.3,15.9-10.2c4-6.1,8.1-12.1,11.3-18.8c3.1-6.6,5.2-13.3,2.3-20.6
		c-0.7-1.7-1.5-3.8,0.4-5.4C595.9,387,599.6,385.1,603.4,387.7z"/>
	<path d="M566.3,361.2c3.5-1.7,7.1-3.1,10.9-3.9c12.7,1.3,23.8,5.5,31.5,16.5c4.8,6.8,3.4,10.5-5.4,13.9c-4-0.5-7.7,1.2-11.7,1.1
		c-1.9,1.6-4.2,1.2-6.4,1.2c-1.6,0-3.2,0-4.8-0.1c-1.8-0.2-3.5-0.8-5.3-0.9c-5.9-0.3-11-2.4-15.2-6.6
		C555.5,375.3,559,363.7,566.3,361.2z"/>
	<path class="st1" d="M566.3,361.2c-6.8,6.1-9.1,14.3-5.7,20.5c0,1.2-0.3,2.2-0.9,3.2c-12.5,21-20.2,43.9-26.5,67.3
		c-0.2,0.6-0.5,1.2-0.9,1.7c-7.2,3.9-14.6,7.5-21.6,11.7c-3.7,2.2-7.2,5-10.1,8.2c-2.9,3.3-4.8,1.8-7-0.2c-5.9-5.2-12.2-10-18.9-14
		c-11.1-6.6-22.9-5.9-31.3,5.4c14.6-5.6,25.1,1,35,9.8c3,2.7,6,5.4,9,8.1c1.8,1.6,1.4,2.9,0.3,4.5c-2.4,3.2-4.8,6.4-6.9,9.9
		c4.4-1.6,7.8-4.8,11.4-7.6c20.5-16.1,43.1-28,68.4-33.9c17.4-4.1,35-4.7,51.7,4.2c11.8,6.3,20.1,15.9,26.4,27.4
		c4.7,8.6,9.1,17.4,12.7,26.5c5.9,14.5,4,22.7-10.6,28.6c-6.7,2.7-13.1,1-19.3-0.9c-12.5-3.9-25-8.2-38-9.9
		c-10.9-1.4-21.4,1.5-30.5,7.8c-2,1.4-4.7,2.3-5.6,5.2c4.2-1,8.4-1.9,12.5-2.9c-5,4.5-11.5,4.7-17.4,5.8c-7.7,1.4-15.6,2.5-23.5,2.2
		c-22.1-0.8-43.3-5.5-62.1-17.7c-14.5-9.3-23.1-23.1-26.8-39.6c-4-18.3-10.2-36-15.3-53.9c-4.3-14.8-8-29.6-9.4-45
		c-0.7-8-1.9-16-1.9-24.1c0-9.3,2.3-18.1,5.4-26.7c3.5-9.5,11.5-14.4,20.2-17.3c13.9-4.4,28.2-3.5,42.5-1.4
		c10.2,1.5,20.6,2.3,30.4,6c-0.6,1.1-1.7,1.5-2.7,1.9c-4.1,1.6-4.9,4.7-4.4,8.6c0.3,2.2,1.7,4.3,0.3,6.6c-1.6,1.1-3.4,0.8-5.2,1
		c-12.8,1.1-20.7,9.1-21.7,22c-2.1,25.2,3.1,49.1,13.6,71.9c2.8,6.1,7.2,10.7,12.7,14.5c6.4,4.4,13,3.7,19.4,0.4
		c9.8-5,16.2-13.2,19.5-23.4c5.2-15.6,10.5-31.1,11.9-47.7c0.3-3.7-0.2-7.5,0.8-11.2c0.3-0.8,0.8-1.4,1.4-1.9
		c6.2-5.8,6.4-7.8,1.4-14.6c-2.3-3.1-5.1-5.7-8.2-8.1c-1.7-1.3-4-2.4-3.5-5.2C547.7,348.8,557.2,354.6,566.3,361.2z"/>
	<path d="M537.1,344.7c2,3.9,6.3,5.2,8.9,8.4c1.5,1.8,3.2,3.4,4.5,5.5c4.9,7.5,4.2,10.9-3.8,15.6c-3,3.8-7.2,3.3-11.2,2.7
		c-10.7-1.6-19.9-6.5-28.1-13.4c-1.6-1.4-3.3-2.6-4.9-4c-2.9-2.8-5.4-5.9-7.2-9.4c-0.5-1.1-1-2.1-0.6-3.3c-0.6-2.1-1.4-4.2-1.7-6.3
		c-1.1-6.1,1.4-9,8.6-10.4c8.6,1.9,17.2,3.4,25,8C530.4,340.1,533,343.6,537.1,344.7z"/>
	<path class="st2" d="M532.3,454c-0.8-3.8,0.9-7.3,2-10.8c6.9-21.3,13.3-42.8,26.3-61.5c4.2,3.6,9,5.9,14.6,6.2
		c2.8,4.6,1,9.3-0.3,13.6c-3.8,12.9-10.6,24.4-18.3,35.3c-0.6,0.9-1.4,1.8-2.7,1.9c-1.7-1.2-1.3-3.2-1.9-4.8c-1.9-5.4-4.8-6.1-8.9-2
		c-2.8,2.9-4.2,6.5-5.2,10.3c-1,3.7-1.3,7.7-3.8,10.9C533.5,453.4,532.9,453.7,532.3,454z"/>
	<path class="st1" d="M584.9,388.8c2.2,0,4.5,0,6.7-0.1c7.3,15.4-1.5,27.3-8.8,39.5c-1.4,2.3-3.3,4.4-4.6,6.7
		c-3.6,6.1-8.6,9.4-15.8,9.3c-0.3-2.8,1.8-4.4,3.2-6.3c8.4-11.5,15.2-23.7,18.6-37.7C585.2,396.4,583.2,392.5,584.9,388.8z"/>
	<path class="st3" d="M553.9,438.5c7.7-10.8,14.5-22,19-34.5c1.8-5.2,2.7-10.6,2.3-16.1c1.9-0.8,3.2,1,4.9,1
		c2.6,2.6,2.3,5.9,2.1,9.1c-0.3,3.6-1.3,7-2.8,10.3c-5.6,12-12,23.6-20,34.2c-0.8,1.1-1.7,1.9-2.8,2.7c-1.6,0.7-3.2,1.4-4.9,2
		C550.4,443.8,552,441.1,553.9,438.5z"/>
	<path class="st2" d="M556.7,445.2c3.8-7.9,10.1-14.1,13.8-22c3.5-7.2,7.9-14,9.9-22c1.1-4.3,0.3-8.3-0.3-12.4c1.6,0,3.2,0,4.9,0
		c2.7,9.3-0.6,17.7-4.2,26c-4.7,10.6-10.9,20.4-18.2,29.4C560.4,443.9,558.8,445.9,556.7,445.2z"/>
	<path d="M553.9,438.5c0.2,3.1-1.7,5.7-2.1,8.7c-3.3,1-6.6,1.9-9.8,2.9c-2.7-1.5-4.3,0.2-5.8,2c-0.7,0.4-1.3,0.7-2,1.1
		c1.4-6.1,2.2-12.4,5.1-18c1.9-3.8,4.6-7.9,9.2-7.1C553.5,428.9,553.5,434.2,553.9,438.5z"/>
	<path class="st4" d="M536.1,452c2-5.7,2.3-5.8,5.8-2C540.2,451.1,538.2,451.8,536.1,452z"/>
	<path class="st5" d="M576.7,361.8c11.1,1.1,21.7,3.3,27.7,14.1c1,1.9,1.8,3.7-0.1,5.7c-2.1,2.3-3.8,0.8-5.6-0.2
		c-1.4-0.7-2.8-1.7-3.8-2.8C589.3,372.6,584.7,365.4,576.7,361.8z"/>
	<path class="st2" d="M495,346.7c0.5,0.9,1.4,1.6,1.2,2.8c-0.6,0.9-1.6,1.2-2.5,1.3c-15.8,2.1-20.6,12.4-20.4,26.2
		c0.2,23.8,4,47,16.3,68.2c-1.9-4.4-2.8-8.8-4-13.2c-1.1-4.4-1.5-9-2.1-13.5c-1.8-13.8-2.1-27.5,0.9-41.2
		c1.8-8.1,4.9-15.2,13.1-18.7c1.8-0.8,3.6-1.6,5.6-0.4c8.2,6.6,16.3,13.2,26.9,16c5.7,1.5,11.3,2.8,17-0.1c0.2,16.4-3,32.2-8.6,47.6
		c-2.4,6.6-3.5,13.7-7.1,19.9c-3.7,6.4-8.5,11.7-14.9,15.5c-13.9,8.3-25.9,2.2-33.6-10.9c-8.6-14.5-13.1-30.6-14.9-47.4
		c-0.8-7.2-2.3-14.4-1.8-21.6c0.5-8.3,0.9-16.5,7.4-23.2C479.6,347.6,486.9,346.5,495,346.7z"/>
	<path class="st3" d="M503,358.3c-10.3,1.9-15.7,9.3-17.8,21.4c-4.1,23.9-0.7,46.9,7.1,70.9c-4.9-5.3-7.3-10.4-9.5-15.6
		c-6.1-14.2-8.9-29.2-10.3-44.6c-0.7-7.6-1.2-15.1,0.3-22.6c2.5-12.6,12.5-18.5,23.3-18.3C498.5,352.5,500.7,355.4,503,358.3z"/>
	<path class="st5" d="M513.6,337.9c7.4-0.5,12.3,3.6,17.6,6.4c4.7,2.5,9.9,4.9,12.4,10.2c0.9,2,2.7,4.1,0.4,6.1
		c-2.4,2-5.2,2.1-8.1,0.5c-3.6-2-4.7-6-7.1-9c-3.8-4.9-8.6-8.6-13.4-12.2C514.9,339.6,514.5,339.1,513.6,337.9z"/>
	<path class="st2" d="M552,439.9c0.3,1.2-0.7,3.3-2.9,4.3c-2,0.9-3.4-1-4.2-2.4c-1.5-2.5-3.1-5.3-1.3-8.2c0.8-1.2,1.8-2.9,3.6-2.8
		c2,0.1,2.7,1.8,3.7,3.3C552,435.5,551.6,437,552,439.9z"/>
	<path d="M519.8,419.9c6.7,0,11.4,6.6,10,12.8c-1.9,8.6-5.6,15.9-13.2,21.1c-2.9,2-4.7,1.3-6.5-0.9c-3.1-4-5-8.6-4.1-13.7
		c1.2-7.1,1.6-14.7,9.6-18.3C517,420.1,518.5,419.8,519.8,419.9z"/>
	<path class="st2" d="M526.3,432.7c0.6,2.3,0,4.6-2.1,5.4c-2.1,0.8-3.9-1-5.1-2.6c-1.6-2.3-3.1-4.8-4.2-7.3c-1-2.3,0.3-4.4,2.4-5.1
		c3.2-1,6.3,0.3,7.8,3.2C526,428.1,527,430.4,526.3,432.7z"/>
	<path class="st6" d="M507.9,442.7c-0.2-2.2,0.2-3.4,1.6-4c1.2-0.5,2.1,0.2,3,1c3.3,2.8,4.8,7.8,3.1,10.6c-1.1,1.8-2.1,2.1-3.7,0.5
		C509.2,448.4,508.5,445.2,507.9,442.7z"/>
</g>
</svg>
