<?xml version="1.0" encoding="utf-8"?>
<!-- Generator: Adobe Illustrator 23.0.1, SVG Export Plug-In . SVG Version: 6.00 Build 0)  -->
<svg version="1.1" id="Layer_4" xmlns="http://www.w3.org/2000/svg" xmlns:xlink="http://www.w3.org/1999/xlink" x="0px" y="0px"
	 viewBox="0 0 1000 1000" style="enable-background:new 0 0 1000 1000;" xml:space="preserve">
<style type="text/css">
	.st0{fill:#6E3720;}
	.st1{fill:#FB9A7A;}
	.st2{fill:#FEFEFE;}
	.st3{fill:#C0FEFE;}
	.st4{fill:#7F7F7F;}
	.st5{fill:#00407F;}
</style>
<g>
	<path class="st0" d="M607.5,398.5c7.3,16.4-0.7,29.3-9.4,42.5c7.5,1.8,15.3,2.1,22.7,4.9c10.1,3.9,18.9,9,26.1,17.4
		c6,7.1,12.1,14,16.3,22.3c5.7,11.3,10.4,23.1,12.5,35.6c1.2,7-0.8,13.2-7,18.1c-6.4,5-12.9,8.9-20.8,10.8
		c-8.8,2.1-17.5,1.9-26.2,0.3c-9.3-1.7-18.6-3.4-27.7-6.4c-2.7-0.9-5.5,0.9-8.3,1.6c-11.1,2.9-21.8,7.4-33.2,9.4
		c-6.5,1.1-13,1.6-19.4,2.4c-7.7,1-15.4,1.6-23.2,1.2c-23.6-1.4-46.2-5.6-66.1-19.5c-11.1-7.8-18.1-18.3-22.7-30.9
		c-5.7-15.7-7.6-32.2-11.6-48.3c-2.8-11.3-5.9-22.6-8.2-34.1c-2-10.1-3.5-20.4-4.7-30.7c-0.8-6.9-1.1-13.7-1.6-20.6
		c-0.7-10,1.4-19.9,4-29.7c2-7.3,5.1-13.9,10-19.7c6.6-7.8,16-10,25.4-11.6c4.7-0.8,9.5-1.3,14.4-1.2c17.3,0.3,34.2,3.2,50.8,8
		c23.1,6.7,44.1,18,64.5,30.5c7.9,4.8,14.8,11.4,22.2,17.2c-4,1.8-8.6,0.2-12.6,2.1c-2.8-0.1-4.7-2.1-6.8-3.6
		c-30.6-22.6-64.7-36.6-102.4-41.7c-7-0.9-14.1-1.8-21.4-0.6c-25.7,4.3-32.2,16.7-34.4,37.8c-2.2,21,0.6,41.6,5.3,61.9
		c5.3,23,10.3,46,15.8,69c4.7,19.6,16.3,33.5,34.2,42.7c13.4,6.9,27.6,10.2,42.4,12c12.3,1.5,24.3,0.3,36.4-1.1
		c2.9-0.3,5-1.5,7.2-3.4c12.6-11.2,27.4-14.9,44-11.8c9.4,1.8,18.7,4.2,28,6.7c7.1,1.9,14.2,3.6,21.6,1.4c3.1-1,6.2-2.1,8.8-4
		c4.3-3.1,6.4-7.3,5.3-12.7c-0.9-4.3-2-8.5-4-12.5c-6.4-13.4-12.9-26.8-23.8-37.2c-16.1-15.4-34.8-22.2-57.5-18.4
		c-23.6,3.9-44,14.5-64,26.5c-8.4,5-16,11.2-23.6,17.3c-1.7,1.4-3.9,4-5.8,2.4c-2.2-1.9,0.7-4,1.9-5.8c6.5-9.1,6.6-9.1-1.7-16.4
		c-8.6-7.5-17.7-13.8-29.7-14.3c-1.5-0.1-3.7,0.1-4-1.9c-0.2-2,1.7-3.1,3.3-3.8c8-3.8,16.1-3.2,24.1,0.2c6.3,2.7,11,7.5,16.2,11.6
		c1.1,0.9,2.3,1.8,3.3,2.9c3,3,5.7,3,8.8,0c9.2-8.7,20.2-14.7,32-19.1c1.2-0.3,2.3-0.8,3.4-1.2c3.6-1.6,7.5-2.6,11.1-4.3
		c2-0.6,3.9-1.6,5.9-2.2c0.7-0.2,1.4-0.3,2.1-0.4c2.3-0.4,4.5-1.4,6.8-1.9c2.6-0.6,5.2-1.1,7.9-1.7c6.7,0.2,11.7-2.3,15.5-7.9
		c4.2-6.2,8-12.5,10.3-19.7c1.2-3.8,1.6-7.6,0.4-11.4c-0.5-1.5-1.1-3.2,0.6-4.5C600.5,398,604,397,607.5,398.5z"/>
	<path d="M607.5,398.5c-3.6,1.1-7.3,0.8-10.9,1c-2.2,1.7-4.6,1-6.9,0.4c-1.5-0.1-3.1-0.2-4.6-0.5c-2-0.5-4-0.8-6-1
		c-6.4-1.7-13.2-2.7-16.4-9.8c-1.3-8.9,2.9-16.8,10.5-19.5c4.1-2.5,8.5-1.6,12.8-1.1c6.9,2.4,14.1,3.7,20,8.7
		c4.2,3.6,8.1,7,10.2,12.2c1.8,4.3,0.7,7.4-3.8,8.3C610.8,397.6,609.2,398.4,607.5,398.5z"/>
	<path class="st1" d="M573.2,369.2c-6.5,4.9-10.6,10.9-9.6,19.5c0.3,2.3-0.8,4.1-1.9,5.9c-11,17.7-19.6,36.5-25.5,56.5
		c-0.4,1.4-1.2,2.6-2,3.9c-13.4,4.6-25,12.2-35.5,21.6c-1.7,1.5-2.4,1.7-4.2,0.1c-5.3-4.7-10.8-9.1-16.3-13.5
		c-8.1-6.5-21.8-7.8-30-3.1c-1,0.6-1.9,1.1-2.4,3c17.6-1.2,28.8,10.4,40.9,20.2c2.4,1.9,2,3.5,0.5,5.4c-2.9,3.8-5.8,7.6-8.5,11.6
		c5.2-2.2,9-6.2,13.3-9.5c14.5-11.4,30.7-19.9,47.2-27.9c12.4-6,25.8-8.9,39.2-10.5c15.3-1.8,29.3,2.5,42.3,11.4
		c18.2,12.5,27.3,31.3,36,50.3c2.2,4.8,4.2,10.6,1.5,16.3c-3.2,6.7-9.3,8.9-15.8,10.6c-9.6,2.6-18.3-1.2-27.2-3.5
		c-10.2-2.7-20.5-5.5-31-6.1c-11-0.6-21.8,2.4-29.9,9.9c-6.5,6-13.6,7.3-21.6,7.5c-4.5,0.1-8.9,1.1-13.5,1
		c-22.8-0.6-44.7-5.1-64.1-17.7c-12.8-8.3-21.3-20-25.5-34.9c-6.8-23.9-10.7-48.3-17-72.3c-3.4-13.1-4.8-26.8-5.6-40.5
		c-0.8-12.4,0.2-24.3,2.9-36.3c3.1-14,13.4-20,25.7-24c11.6-3.7,23.3-1.9,34.9,0.1c15.3,2.7,30.4,6.1,44.8,12.2
		c19.9,8.4,39.1,18,55.9,31.7C571.6,368.8,572.5,368.9,573.2,369.2z"/>
	<path class="st2" d="M534.2,454.9c1.7-11.4,6.9-21.5,11.1-32c4.8-12.1,12-23,18.3-34.3c2.8,4.8,7.4,6.8,12.5,7.8
		c1.2,0.2,2,0.7,3,1.2c1.5,1.5,1.2,3.3,0.7,5.1c-4.3,14.5-11.7,27.4-21.2,39.2c-0.4,0.5-1,0.8-1.7,0.8c-1.6-0.8-2-2.5-2.9-3.8
		c-3.1-4.9-6.9-5-10.4-0.4c-2.1,2.8-2.9,6.1-3.9,9.4c-0.6,2.2-1.2,4.4-2.7,6.2C536.1,454.3,535.2,454.6,534.2,454.9z"/>
	<path class="st1" d="M589.8,398.6c2.1,1.3,4.5,0.6,6.7,0.9c5.2,11.1-0.7,20.1-5.4,29.4c-2.1,4.1-5.3,7.2-8,10.8
		c-3.2,4.2-8.1,3.9-12.8,3.5c-0.4-1.8,0.9-3,1.8-4.3c8.5-11.4,15.1-23.7,16.6-38.2C588.8,399.9,589.3,399.2,589.8,398.6z"/>
	<path class="st3" d="M556.8,442.4c7.8-9.5,13.8-20.1,18.9-31.3c1.9-4.3,3.5-8.7,3.4-13.4c2.1-0.2,4.1-0.6,5.9,1
		c2.6,3.3,2.3,7.1,0.9,10.6c-5,12.6-12.2,24-21,34.2c-0.6,0.7-1.4,1.3-2.3,1.7c-2.3,0.7-4.5,1.4-6.8,2
		C554.5,445.2,555.2,443.7,556.8,442.4z"/>
	<path class="st2" d="M562.5,445.2c6.7-9.3,13.9-18.2,18.9-28.7c2.7-5.8,5.5-11.3,3.6-17.9c1.6,0,3.2,0,4.9,0
		c0,14.7-7,26.8-14.8,38.5c-1.4,2.1-3.2,4.1-4.7,6.1C567.9,444.9,565,444.3,562.5,445.2z"/>
	<path d="M556.8,442.4c-0.4,1.6-0.7,3.2-1.1,4.8c-0.7,0-1.4,0-2,0c-1.6-1.5-0.9-3.7-1.5-5.5c-0.5-1.6-1.1-3.3-3.2-3
		c-2.1,0.3-2.6,2.1-2.7,4c-0.2,2.4,2.1,4,1.7,6.5c-3.1,2.9-7.5,2.7-10.9,4.9c0.7-4.8,2.1-9.3,4-13.8c1.5-3.5,3.8-6.5,7.8-6.6
		c4,0,5.8,3.1,7.1,6.5C556.2,440.9,556.5,441.7,556.8,442.4z"/>
	<path class="st2" d="M548,449.1c-1.8-2.2-3.3-4.4-3.1-7.6c0.2-2.7,2-4.3,3.9-4.9c2.4-0.7,3.3,1.7,4.3,3.5c1.3,2.3,0.3,4.7,0.6,7
		C551.8,448.1,550.2,449.6,548,449.1z"/>
	<path class="st4" d="M581.9,372.2c8.5-0.4,15.1,1.9,20.6,7.2c2.8,2.8,6.2,5.2,7.8,9.1c0.5,1.3,1.8,2.5,0.5,4
		c-1.4,1.6-3.4,1.4-4.9,0.7c-2.6-1.2-5.5-2.4-7-4.9C594.8,381.7,588.8,377.1,581.9,372.2z"/>
	<path class="st2" d="M551.6,382.8c0.1,10.6-2.6,20.7-5.9,30.6c-3.7,11.2-7,22.8-13.6,32.8c-4.6,7.1-10.1,13.1-18.7,16
		c-12.4,4.2-19.3,0-25.8-8.4c-8.7-11.3-13.2-24.5-15.1-38.5c-1.3-9.8-3-19.7-3.8-29.6c-0.7-9.8,0.9-19.2,6.8-27.5
		c4.9-6.9,15.1-10.9,22.4-8.7c2,0.5,1.8,1.8,1.2,3.2c-1.1,1.1-2.6,1.2-4.1,1.5c-12.2,2.8-16.7,8-18.3,20.6
		c-2.3,17.3,0.7,34,4.8,50.7c1.8,7.6,4.5,15,8.1,21c-2.2-5.2-2.7-11.5-3.5-17.8c-2.2-17.3-1.5-34.4,2.7-51.3
		c1.6-6.4,3.9-12.6,11.1-15c1.7-0.6,3.4-1.3,5.2-0.8c2.8,1.1,4.6,3.6,6.6,5.6c8.1,8,17.6,12.9,28.8,15.1
		C544.4,383,548.1,381.1,551.6,382.8z"/>
	<path d="M551.6,382.8c-15.3,3.1-27.4-3.6-38.6-12.9c-2.7-2.2-4.9-5.1-7.4-7.6c-3.6-2.4-6-5.5-6.6-9.8c-0.3-1,0.5-2.4-1-3
		c0-1.3-0.1-2.6,0-3.9c0.3-6.5,4.1-9.8,10.4-8.6c9,1.8,17.7,4.6,25.3,10c6.1,4.3,12.2,8.7,17.5,14.2c3.2,3.3,4.9,7.4,7,11.2
		c1.2,2.1,0,4.1-1.4,5.7C555.4,379.8,553.4,381.2,551.6,382.8z"/>
	<path class="st3" d="M499.1,352.5c2.2,3.3,4.4,6.6,6.6,9.8c-8.8,0.6-13.2,6.2-15.1,14.1c-3,12.3-4.9,24.9-4.1,37.5
		c0.8,11.9,1.3,23.9,5.2,35.4c0.3,0.8,0.6,1.5-0.6,2.8c-2.6-5.4-5.8-10.4-7.6-15.8c-4.4-12.9-7-26.1-8.2-39.7
		c-0.8-9.2-1.2-18.2,1.3-26.9C480.7,356,484.1,353.8,499.1,352.5z"/>
	<path d="M506.6,443.9c1.7-6.5,2.1-13.8,9.4-18.2c3.8-2.4,7.4-2.2,10.7-0.6c3.4,1.7,5.7,5.2,5.4,8.9c-0.8,9.5-5.2,17.4-13,23
		c-4.4,3.1-9.4,1-11-4.2C507.3,450.1,507.1,447.2,506.6,443.9z"/>
	<path class="st4" d="M519.1,345c7.2,1.6,13.4,5,19.2,9.2c3.4,2.5,6.6,5.2,9.3,8.4c1.3,1.5,3.2,3.3,1.5,5.5
		c-1.5,1.8-3.9,2.6-6.2,1.9c-2.6-0.9-5.4-1.8-6.8-4.3C531.7,357.9,526.4,350.7,519.1,345z"/>
	<path class="st2" d="M529.4,435.7c-0.3,3-1.2,5.3-4,6.1c-2.9,0.8-3.8-1.7-4.8-3.4c-1.3-2.3-2.1-4.8-2.8-7.3
		c-0.8-2.8,2.3-5.2,5.2-4.2C527.2,428.4,528.4,432.2,529.4,435.7z"/>
	<path class="st5" d="M517.5,452c0.1,1.8,0,2.9-1.1,3.6c-1.4,0.8-2-0.5-2.8-1.1c-2.8-2.1-3.7-5.2-4.6-8.2c-0.4-1.3-0.2-2.6,1.1-3.4
		c1.4-0.8,2.4-0.1,3.4,0.8C516.2,446,516.9,449.3,517.5,452z"/>
</g>
</svg>
