<?xml version="1.0" encoding="utf-8"?>
<!-- Generator: Adobe Illustrator 23.0.1, SVG Export Plug-In . SVG Version: 6.00 Build 0)  -->
<svg version="1.1" id="Layer_4" xmlns="http://www.w3.org/2000/svg" xmlns:xlink="http://www.w3.org/1999/xlink" x="0px" y="0px"
	 viewBox="0 0 1000 1000" style="enable-background:new 0 0 1000 1000;" xml:space="preserve">
<style type="text/css">
	.st0{fill:#6E3720;}
	.st1{fill:#FB9A7A;}
	.st2{fill:#FEFEFE;}
	.st3{fill:#C0FEFE;}
	.st4{fill:#7F7F7F;}
	.st5{fill:#00407F;}
</style>
<g>
	<path class="st0" d="M611.4,406.4c3.8,8.3,1.2,16.1-2.2,23.7c-1.7,3.9-3.8,7.6-5.9,11.7c8.4,1.7,16.6,2.8,24.4,6.2
		c7.7,3.3,14.1,8.3,20.7,13.3c13.5,10.3,18.7,25.6,24.4,40.5c2.5,6.6,4.7,13.5,5.7,20.4c1.2,8.1-3.9,14-10,18.5
		c-12.7,9.4-27.1,11.4-42.6,9.3c-9.5-1.3-18.6-4-27.8-6c-4.3-0.9-8.3,0.7-12,2.3c-10.8,4.9-22.3,7-33.7,9.2
		c-15.1,2.9-30.4,3.9-45.7,2.9c-24.5-1.7-48.3-6.6-67.8-22.8c-11.7-9.7-20.2-22.3-22.7-37.7c-4.3-26.1-8.9-52.1-15.4-77.8
		c-2.1-8.1-2.8-16.7-3.1-25.1c-0.2-8.9-1.8-17.7-1.2-26.6c1.2-16.4,4.4-32,16.3-44.6c7.6-8,17.1-10.1,27.4-11.5
		c22-2.9,42.5,3.7,63,10c18.8,5.8,36,15.1,52.6,25.8c12.5,8,23.8,17.4,35.1,26.9c-4.4,1.9-8.9-0.1-13.3,0.8
		c-2.9-0.8-5.1-2.9-7.4-4.7c-18-14.2-37.5-25.9-59-33.9c-19.1-7.2-38.7-12.5-59.3-12.7c-4.9-0.1-9.7,0.8-14.5,1.6
		c-13.6,2.3-20.9,11.4-24.3,23.8c-3.1,11.3-3.8,22.9-3.1,34.8c1.6,26.7,8.8,52.2,13.7,78.3c2.1,10.9,3.2,21.9,5.7,32.7
		c2.4,10.4,8.3,18.7,15.7,26c16.7,16.6,37.8,23.5,60.4,26.9c13.1,1.9,25.9,0.5,38.8-1.8c2.1-0.4,3.6-0.9,5.1-2.9
		c2.7-3.7,7.1-5.6,11.2-7.5c13.7-6.4,27.7-7.3,42.4-3.9c10.9,2.5,21.9,4.9,33,6.8c5,0.8,9.8,0,14.3-1.8c9.1-3.6,12.4-12,8.5-22.2
		c-4.8-12.6-12.2-23.6-19.9-34.5c-13.7-19.2-33-27.1-55.6-26.8c-13.1,0.2-25.9,3.7-38.2,9.1c-20.8,9.2-40.5,20-58.2,34.4
		c-1.5,1.2-2.9,2.6-4.5,3.8c-1.4,1-3.1,2.9-4.7,1.6c-1.7-1.4,0.1-3.2,0.9-4.7c1.3-2.3,3-4.2,4.6-6.3c3.3-4.2,3.3-5.2-0.7-8.4
		c-3.8-2.9-7.1-6.2-10.5-9.5c-6.1-6.1-13.8-7.6-21.8-8.6c-1-0.1-2,0-2.9-0.2c-1.3-0.2-2.9-0.2-3.2-1.7c-0.3-1.4,0.8-2.4,1.8-3.2
		c4.8-3.7,10.3-4.9,16.1-4.1c7.6,1.1,14.4,4.1,20,9.4c3.5,3.4,7.5,6.2,10.9,9.8c2.2,2.3,4.3,2.3,6.7,0.2c4.7-4.1,9.4-8.1,14.8-11.1
		c4.2-2.3,8.1-4.9,12.4-7c2.8-1.2,5.6-2.3,8.4-3.4c1.1-0.4,2.2-0.7,3.2-1.1c2.7-1.1,5.5-2.1,8.2-3.4c2.8-1,5.6-1.9,8.5-2.8
		c0.7-0.2,1.3-0.4,2-0.5c0.9-0.2,1.8-0.5,2.7-0.8c2.5-0.9,5.1-1.5,7.6-2.2c3.1-0.9,6.4-1.1,9.6-1.7c5-0.6,9.8-0.8,13.3-5.7
		c5.2-7.4,9.4-14.8,8.7-24.2c-0.1-1.9-1.1-3.9,0.5-5.6C603.6,406,607.5,404.9,611.4,406.4z"/>
	<path d="M611.4,406.4c-4,0.9-7.9,1.6-11.9,0c-1.9,1.5-4.1,1.2-6.2,1c-1.5-0.2-3-0.7-4.5-0.8c-2.2-0.2-4.4-0.9-6.7-1.1
		c-7-1.9-13.9-4-16.5-12c-1-9.2,4-17,11.7-18.4c4.5-1.9,9.1-0.6,13.6,0c9.9,2.6,18.2,7.7,24.8,15.6c1,1.2,2.1,2.3,2.8,3.8
		c3.7,7.3,3.4,8.2-4.6,11C613.1,405.6,612.3,406,611.4,406.4z"/>
	<path class="st1" d="M577.3,375.1c-7.5,3.8-11.3,9.9-10.9,18.3c-1.2,4.2-4.2,7.3-6.1,11.1c-7,14.6-15.4,28.6-20.7,44.1
		c-0.8,2.3-1.8,4.5-3.5,6.4c-3,1.1-6,2.1-8.9,3.2c-0.5-1.5,0.4-2.5,1.1-3.5c13-20.1,21.6-41.8,24.4-65.6c0.6-2.1,2.6-2.8,4.1-4
		c3.6-3,4.5-6.1,1.7-9.8c-12.1-16.4-26.9-29.1-47.8-32.7c-3.8-0.7-6.1,1.4-7.9,4.5c-0.8,1.4-0.8,3.2-2.2,4.3c-1,0.6-2.2,0.6-3.3,0.8
		c-13.6,1.5-22.6,10.9-24.4,24.3c-2.1,15.3,0.7,30.1,3.8,44.9c2.2,10.5,4.6,21,10.5,30.2c5.7,8.9,13.1,14.3,24.3,12.5
		c1.5-0.2,2.9-0.3,4.1,0.9c-5.6,4-11.3,7.9-16.2,12.7c-2.2,2.2-4,1.9-6.4-0.3c-6.6-6.1-12.5-13.1-20.9-17
		c-7.8-3.5-15.6-4.8-23.6-0.4c-1.6,0.9-2.9,1.9-3.8,3.7c3.6,0.9,7.1,0.7,10.5,1c8.7,0.9,14.9,5.4,20.8,11c3.4,3.2,6.9,6.3,10.4,9.4
		c1.6,1.4,1.9,2.4,0.3,4.3c-3.3,4-6.8,8-8.8,13.2c6.2-4.8,12.3-9.7,18.7-14.4c17-12.6,35.8-22.3,55.5-29.6
		c20.2-7.4,41.2-9.8,61.8-0.2c11.7,5.5,21.3,13.3,28.4,24.4c6.6,10.3,13.1,20.5,17.8,31.9c5.1,12.5-1.7,23.6-15.1,25.6
		c-9.8,1.5-18.6-2-27.8-3.6c-9.6-1.7-19.1-4.6-28.8-5.1c-13.8-0.7-27.4,3-37.4,12.5c-5.2,5-10.6,4.7-15.8,5.5
		c-18.4,3-36.4,0.2-54.2-5.1c-14-4.2-26.2-11.5-36.6-21.4c-9.7-9.3-16-20.5-17.9-34.3c-2.2-16-5.1-31.9-8.7-47.7
		c-3.3-14.3-6.6-28.7-7.9-43.4c-0.7-8.3-2.3-16.7-1.7-25c0.8-12.7,2.2-25.3,9.7-36.2c5.5-8,13.7-10.8,22.6-12.1
		c20.2-2.9,39.4,1.8,58.6,7.6c18.3,5.5,35.2,13.8,51.4,23.7C560,361.3,568.7,368.1,577.3,375.1z"/>
	<path class="st2" d="M515.7,464.8c-5.7,0.7-11.3,1.8-17-0.9c-9.1-4.4-14-12.2-17.2-21.2c-5.5-15.1-8.5-30.8-10-46.9
		c-1-10-1.1-19.6,2.9-28.8c4.9-11.4,13.8-17,26.4-16.3c1.4,1.2,2.1,2.5,0.9,4.3c-2.3,1.4-5.1,0.9-7.6,1.5c-5.1,1.1-8.9,3.7-11.1,8.5
		c-4.2,9.1-5.6,18.7-4.9,28.5c0.9,13.9,3.3,27.7,7.3,41.2c1.6,5.3,4.4,10.1,5.9,15.4c-3.6-14.7-5.3-29.6-4-44.7
		c0.8-9.4,1.8-18.8,4.7-27.8c2.1-6.8,5.4-12.6,13.2-14.1c2.4,0.1,3.4,2.2,4.9,3.6c9.7,9.7,20.1,18.2,34.1,21
		c3.2,0.6,6.4-1.6,9.4,0.6c0,9.7-2.5,19-5.6,28c-4.5,13-9.7,25.7-17.6,37.2c-1,1.4-2.1,2.8-3.1,4.3
		C523.4,460.3,519.6,462.5,515.7,464.8z"/>
	<path class="st2" d="M536.2,454.9c7-21.4,17.6-40.9,28.8-60.3c0.3-0.5,1-0.8,1.5-1.2c2.8,7,9.3,8.9,15.6,11
		c1.4,2.3,0.3,4.5-0.5,6.5c-5.3,13.1-12.2,25.1-21.9,35.5c-0.3,1-1.2,0.8-1.9,0.8c-1.1-0.9-1.2-2.2-1.7-3.4c-2.2-5.7-7-6.5-11-1.8
		c-1.6,1.9-2.5,4.2-3.1,6.5c-0.6,2.1-1.3,4-2.8,5.6C538.1,454.3,537.1,454.6,536.2,454.9z"/>
	<path class="st1" d="M592.8,406.4c2.2,0,4.5,0,6.7-0.1c3.8,13.7-2.7,24.2-11.1,33.7c-2.7,3-7.4,2.2-11.4,2.4
		c-1.2-1.9,0-3.4,0.9-4.9c5.7-9.4,11.1-18.9,13.8-29.6C591.8,407.3,592.3,406.8,592.8,406.4z"/>
	<path class="st3" d="M559.6,446.4c2.6-6.2,7.7-10.6,11-16.4c4.7-8.2,9.5-16.2,11.5-25.6c2.5-0.9,4.5,1.1,6.9,1
		c1.5,1.8,0.6,3.8,0,5.5c-4,12.1-10.8,22.6-19.4,32c-0.5,0.6-1.3,0.9-2.1,1.2C565,445.6,562.3,445.9,559.6,446.4z"/>
	<path class="st2" d="M567.4,444.2c7.5-9.6,15.2-19.1,19.4-30.9c0.9-2.6,1.7-5.2,2-7.9c1.5-0.5,2.7,0,3.9,1
		c-0.2,4.5-1.5,8.8-3.6,12.8c-4,7.8-8.1,15.5-12.1,23.3C574,443.8,570.6,443.6,567.4,444.2z"/>
	<path d="M539,454c1-3.3,1.7-6.6,3-9.8c1.9-4.6,6.7-7.8,10.3-6.7c4.5,1.5,5.1,5.5,5.3,9.6c-0.6,0-1.2,0-1.8,0
		c-0.8-0.4-1.1-1.2-1.3-1.9c-0.7-1.8-1.4-3.9-3.9-3.2c-2.4,0.6-3.1,2.5-3.1,4.8c0,1.1,0.4,2.2-0.4,3.2
		C544.8,452.5,541.5,452.4,539,454z"/>
	<path class="st2" d="M547,450.1c-0.1-1.7-1.9-3.2-1-5c1.2-2.3,2.1-5.2,5.7-4.7c4.3,0.5,3.7,4,4.2,6.8
		C553.1,448.8,550.2,450,547,450.1z"/>
	<path class="st4" d="M584.4,378.5c11.5,0.7,20.9,5.4,27.5,14.5c1.3,1.8,4.1,4.3,1,7.2c-3,2.8-5-0.4-7.3-1.3c-1.4-0.5-2.6-2-3.5-3.3
		C597.7,388.4,591.8,382.7,584.4,378.5z"/>
	<path d="M553.6,388.7c-15.1,2.7-26.2-4.8-36.9-13.9c-3.9-3.3-7.6-6.7-10.8-10.6c-2.8-2.6-5.7-5.2-4.2-9.7c-0.3-1.3-0.6-2.6-1-3.9
		c0.7-7.8,4.6-10.2,12.2-8.9c20.2,3.6,34,16.6,46.2,31.6C564,379.2,562.2,383.1,553.6,388.7z"/>
	<path class="st3" d="M501.8,354.5c-0.1,3.9,3.3,6.3,4.2,9.7c-6.6,1.4-10.3,6-12.3,12c-2.4,7.4-3.4,15.1-4.4,22.7
		c-2.4,18.3-0.1,36.3,4,55.3c-5.5-8.6-8.7-16.8-10.8-25.5c-3.2-13.2-5.7-26.5-5.7-40.1c0-8,1.4-16,4.7-23.6
		c3.3-7.8,9.4-10.2,17-10.5C499.5,354.4,500.7,354.5,501.8,354.5z"/>
	<path d="M534.2,436.8c-0.5,6.2-8.3,21.8-15.4,23.6c-3.3,0.8-5.5,0-7.2-2.1c-7.2-8.9-3.4-28.3,9-31.3
		C527,425.5,534,430.4,534.2,436.8z"/>
	<path class="st4" d="M521.9,350c7.4,1,13.8,4.1,19.2,9c3.6,3.4,8,5.9,10.6,10.4c1.5,2.7,0.8,3.6-1.6,4.8c-4.2,2-8.1,0.1-9.8-2.7
		C535.2,363.5,529.6,356.1,521.9,350z"/>
	<path class="st2" d="M530.3,438.6c0,3.1-1.2,5.6-3.7,6.5c-2.7,1-3.7-1.8-4.7-3.7c-1-1.9-2-3.9-2.9-5.9c-0.9-1.8-0.7-3.3,0.9-4.8
		c1.6-1.4,2.9-1.2,4.8-0.5C528.6,431.9,529.7,435.2,530.3,438.6z"/>
	<path class="st5" d="M509.8,447.9c-0.1-2.1,0.6-3.5,2.9-3.5c2.3,0,5.8,5.9,5.8,9.6c0,1.8,0.1,3.8-2.5,3.9
		C513.5,458,509.8,451.9,509.8,447.9z"/>
</g>
</svg>
