<?xml version="1.0" encoding="utf-8"?>
<!-- Generator: Adobe Illustrator 23.0.1, SVG Export Plug-In . SVG Version: 6.00 Build 0)  -->
<svg version="1.1" id="Layer_4" xmlns="http://www.w3.org/2000/svg" xmlns:xlink="http://www.w3.org/1999/xlink" x="0px" y="0px"
	 viewBox="0 0 1000 1000" style="enable-background:new 0 0 1000 1000;" xml:space="preserve">
<style type="text/css">
	.st0{fill:#21201F;}
	.st1{fill:#46423A;}
</style>
<g>
	<path class="st0" d="M338.7,360.3c6.1-3.9,12.1-7.8,18.3-11.5c5.6-3.4,12.2-3,18.4-4c11.1-1.7,22.3-3.3,33.4-4.8
		c8-1.1,16.1-2,24.1-3.1c11.2-1.5,22.3-3.2,33.5-4.7c6.6-0.9,13.3-1.9,20-2c23.1-0.2,46.2-0.2,69.3,0c4.9,0,9.8,0.6,14.6,2
		c0.4,0.5,1,1,1,1.6c-0.4,8.6,1.2,17.6-5.5,24.8c-1.3,1.4-2.2,3.2-3.6,4.6c-10.5,6.3-22.1,10.1-33.7,13.9
		c-16.4,5.3-33.4,6.5-50.4,8.1c-15.4,1.4-30.7,3-46.1,3.5c-17.3,0.7-34.7,2.9-52.1,0.5c-5.2-0.7-10.2-1.9-14.9-4.4
		c-9.3-5-17.3-11.4-23.9-19.7C340,363.6,338.9,362.2,338.7,360.3z"/>
	<path d="M338.7,360.3c5.3,6.5,11.3,12.2,17.8,17.5c9.2,7.4,19.7,10.2,31,10.8c14.4,0.8,28.9-0.7,43.3-1.1
		c16.3-0.5,32.5-2.2,48.8-3.8c18-1.7,36-3.3,53.2-9.5c9.7-3.5,19.5-6.9,28.6-11.9c6.1-4.6,13.5-7.1,19.5-11.9
		c4-3.2,7.4-6.7,10.3-10.9c1.2-1.7,2.3-3.6,4.4-4.4c2.8,0.5,5.5,1.3,8.9,0.6c-4.6,13.3-13.4,22.3-25,28.2
		c-20,10.2-40.6,19-62.7,23.5c-8.7,1.8-17.6,2.5-26.5,3.3c-13.8,1.3-27.7,1.7-41.5,3.7c-5.5,0.8-11.2,0.7-16.8,0.9
		c-15.4,0.6-30.7,2.1-46.1,1.2c-12.1-0.7-23.9-3.2-34-10c-7.9-5.3-14.1-12.6-20.2-19.9c-0.8-1-1.4-1.6,0.4-2.4
		C334.6,363.2,336.6,361.6,338.7,360.3z"/>
	<path class="st1" d="M595.7,335.1c-7.8,13.6-19.9,21.8-34.2,27.2c2.2-4.3,7.2-7.1,7.6-12.2c0.4-4.7,1-9.3,1.2-14
		c0.1-1.3,0-2.6,0-3.9c6.8,0.7,13.6,1.2,20.3,2.3C592.3,334.7,594.1,334.6,595.7,335.1z"/>
</g>
</svg>
