<?xml version="1.0" encoding="utf-8"?>
<!-- Generator: Adobe Illustrator 23.0.1, SVG Export Plug-In . SVG Version: 6.00 Build 0)  -->
<svg version="1.1" id="Layer_4" xmlns="http://www.w3.org/2000/svg" xmlns:xlink="http://www.w3.org/1999/xlink" x="0px" y="0px"
	 viewBox="0 0 1000 1000" style="enable-background:new 0 0 1000 1000;" xml:space="preserve">
<style type="text/css">
	.st0{fill:#4D5A66;}
	.st1{fill:#7C8C9B;}
	.st2{fill:#363F49;}
	.st3{fill:#1F2429;}
	.st4{fill:#BCCFF1;}
	.st5{fill:#37414A;}
	.st6{fill:#FEFEFE;}
	.st7{fill:#243D6E;}
	.st8{fill:#B5BEC8;}
	.st9{fill:#111224;}
	.st10{fill:#292C58;}
	.st11{fill:#13213D;}
	.st12{fill:#487BDA;}
	.st13{fill:#FE0000;}
	.st14{fill:#7F0000;}
	.st15{fill:#301F29;}
	.st16{fill:#0A0B1F;}
</style>
<g>
	<path d="M537.4,439.2c1.7-8.4,4.9-15.5,10.4-21.4c3.6-3.9,8.6-5.6,13.7-6.1c5.6-0.6,11.2-0.7,16.8-1c0.9,0,1.3-0.3,1.7-1.2
		c3.7-9.6,8-18.9,12.9-28c5.2-9.7,10.6-19.3,16.7-28.5c4-6.1,7.7-12.5,12-18.4c4.6-6.4,8.8-13.1,14.6-18.5
		c3.8-3.5,12.3-5.1,17.2-3.3c3.5,1.3,4.4,4.4,5.2,7.4c2.5,10.3,4.5,20.6,6.4,31c1.6,8.6,3.4,17.2,4.8,25.8
		c1.9,11.9,4.4,23.7,6.8,35.5c0.4,1.9,1.1,2.4,3,2.5c2.7,0.2,4.6-0.8,6.4-2.5c7.9-7.1,16.9-12.8,25.7-18.6
		c9.4-6.2,18.7-12.6,28.4-18.2c9.9-5.7,20.2-10.9,30.6-15.8c7.3-3.4,14.8-6.4,22.1-9.9c12.8-6.2,25.7-12.5,39.1-17.3
		c4.9-1.8,10.2-3.4,15.6-1.9c3.9,1.1,6.1,5.7,5.4,9.7c-1.3,7.5-5.2,13.8-8.7,20.2c-4.5,8.1-9.3,16.1-14.6,23.7
		c-4.4,6.4-9.3,12.4-14.2,18.5c-5.4,6.9-11,13.6-17.3,19.7c-2.5,2.4-5.2,4.6-7.6,7.2c3.2,2.9,6.2,6,8.3,9.9c2,3.6,2.8,7.7,3.4,11.7
		c1.1,6.9,1.6,13.9,1.5,20.9c-0.1,8.2-1.9,16.2-4.1,24c-2.4,8.4-5.6,16.5-11.2,23.4c-2.3,2.9-5.5,4.8-8.7,6.5
		c-6.5,3.6-13.3,6.1-20.8,6.3c-4.7,0.2-8.7,1.9-11.8,5.5c-2,2.3-4.6,3.9-7.4,5.6c3.6,1.3,7,2.6,10.5,3.9
		c10.9,3.8,21.9,7.5,32.4,12.4c7.9,3.7,15.3,8,22.4,12.9c3,2.1,5.2,5.2,6,8.9c0.6,2.7-1.9,7.1-5.3,8.8c-3.9,2-8.2,3.2-12.5,3.9
		c-5.8,0.9-11.6,1.7-17.4,2.4c-2.6,0.3-5.3,0.3-7.9,0.4c-4.2,0.2-8.4,0.5-12.6,0.7c-9.3,0.4-18.6,0.6-27.8,1
		c-6.1,0.3-12.2,0.5-18.2,0.2c-5.7-0.3-11.3,0-17-0.4c-7.1-0.4-14.2-0.6-21.2-1c-7.2-0.4-14.4-1-21.6-1.5c-4.3-0.3-8.6-0.5-12.9-1
		c-7.2-0.8-14.4-1-21.5-1.7c-4.8-0.5-9.6-0.8-14.4-1.2c-5.9-0.5-11.7-1-17.6-1.8c-5.4-0.7-10.9-1.3-16.3-2.1
		c-6.9-1-13.7-2.4-20.6-3.3c-7.6-1-15.1-2.5-22.6-4c-7.7-1.5-15.3-3.1-22.9-4.7c-2.8-0.6-5.5-1.3-8.3-1.9c-1.3-0.3-2.3,0.6-3.4,1.1
		c-9.5,3.8-19.3,6.9-29.2,9.5c-7.1,1.9-14.2,2.9-21.6,3.5c-4.7,0.3-9.4,0.7-14.2,1c-3.3,0.2-6.6,0.6-9.9,0.4c-8-0.7-16-1.1-23.9-1.8
		c-9.7-0.9-19-3-28.5-5c-3.5-0.8-7-2.1-10-3.9c-2.6-1.6-5.5-2-8.4-2.3c-2.4-0.3-4.8-0.3-7.2-0.5c-8.1-0.5-16.1-1.3-24-2.4
		c-10.9-1.5-21.5-4.2-31.7-8c-6.7-2.5-13.2-5.6-18.6-10.5c-2.7-2.5-6.3-3.6-9.4-5.4c-0.4-0.2-1-0.2-1.3-0.5
		c-2.9-3.2-6.6-3.1-10.4-2.9c-14.1,0.7-28.3,0.1-42.4,0.6c-11.7,0.5-23.4-0.2-35,0.5c-7.4,0.4-14.7,0.3-22.1,0.3
		c-3.4,0-6.7-0.7-9.8-2.3c-3.3-1.8-3.5-3.2-0.7-5.7c2.2-2,5-2.3,7.7-2.6c6.1-0.5,12.1-1.2,18.2-1.6c7.7-0.6,15.3-1.3,23-1.9
		c5.7-0.5,11.5-0.9,17.2-1.5c7.6-0.7,15.1-1.3,22.7-2c7.2-0.7,14.3-1.7,21.5-1.8c4.7-0.1,7.6-3.2,11.2-5.5
		c5.4-3.5,8.8-8.7,12.6-13.6c6.4-8.2,14.1-15.1,22.8-21c2.7-1.8,5.3-3.9,8.1-5.7c1-0.6,1-1.5,1.3-2.3c1.4-4,3.5-5.7,7.7-5.7
		c1.2,0,1.9-0.5,2.7-1.3c4.7-4.9,9.6-9.6,14.2-14.6c6.5-7.1,13.7-13.5,20.9-19.9c7.7-6.9,16-13,24.3-19.1
		c11.2-8.2,23.2-14.9,35.7-20.7c8-3.7,16.3-6.5,25-7.9c6.4-1.1,12.8-1.8,19.3-1.9c6.5,0,12.9,1,19.3,1.8c2.7,0.3,5.6,0.2,8.3,1.1
		c2.9,0.9,5.2,2.5,6.9,5.1c1.1,1.8,3.3,2.2,5,3c11.4,5.5,22.5,11.4,32.8,19c6.7,5,11.8,11.4,17.3,17.5c0.3,0.3,0.6,0.5,0.8,0.9
		C537.2,438.4,537.3,438.9,537.4,439.2z"/>
	<path class="st0" d="M619.7,482.4c1.3,4,1.5,8.3,2.9,12.3c1.4,3.9,2.8,7.7,4.7,11.4c1.9,3.6,3.9,7,6.5,10.6
		c-12.4-2.2-24.4-4.4-36.7-5.1c3.5,0.8,7,1.6,10.5,2.5c4,1,8.2,1.5,12.1,2.9c-0.6,0.7-1.4,0.8-2.2,0.7c-5.4-0.5-10.9-0.7-16.3-1.1
		c-3.7-0.3-7.5-0.4-11.2-0.6c-5.3-0.3-10.7-0.9-16.1-0.6c-3,0.2-6-0.5-9-0.5c-15.6,0.1-31.1,1.5-46.6,3.6
		c-9.8,1.4-19.4,3.2-28.8,6.2c-2.5,0.8-4.9,1.9-6.9,3.5c-3.5,2.7-3.4,5,0.2,7.4c1.7,1.1,3.6,1.9,5.5,2.7c0.9,0.4,1.9,0.6,2,1.8
		c-1.2,1.3-2.8,1-4.6,1.4c6.4,1.9,12.4,4,18.6,5.9c6.2,1.9,12.3,4.1,18.6,6c20.4,6.2,41.1,11.2,61.9,16.1
		c18.5,4.4,37.3,7.6,56.2,9.8c13.8,1.6,27.6,3.1,41.5,4c15.4,1,30.8,1.7,46.3,2c11.5,0.2,22.9,0.4,34.4,0.2c6.2-0.1,12.3,0,18.5-0.6
		c4.8-0.3,9.5-0.7,14.2-1.8c3-0.7,5.9-1.7,8-4.2c2.9,3.4,2.6,5.6-1.4,7.5c-5.3,2.6-11,3.8-16.8,4.7c-7.9,1.2-15.9,1.5-23.8,2
		c-6.5,0.4-13.1,0.6-19.6,1c-5.2,0.3-10.4-0.1-15.5,0.4c-5.3,0.5-10.7,0.7-16,0.3c-6.4-0.4-12.8,0-19.2-0.5
		c-6.4-0.5-12.8-0.3-19.1-0.9c-9.7-0.9-19.5-1.4-29.2-2c-6.4-0.4-12.9-0.9-19.3-1.4c-4.7-0.4-9.3-1-13.9-1.5
		c-28.7-2.9-57-8-85.1-13.9c-17-3.6-34-7.7-50.9-11.7c-9-2.1-18-2.3-27.1-1.3c-10.3,1.1-20.6,1.9-30.8,2.8
		c-8.7,0.7-17.5,1.5-26.2,2.2c-8.8,0.8-17.7,1.5-26.5,1.7c-5.2,0.1-10.4,0.8-15.6,0.5c-10.2-0.6-20.5-0.4-30.6-1.9
		c-11.8-1.8-23.2-5.2-34.2-9.8c-3.6-1.5-6.5-4-8.6-7.3c-1.7-2.6-2.5-5.5-2-8.6c0.1-0.8,0.3-1.6,0-2.4c0.1-3.3-0.3-6.5-1.1-9.8
		c1-0.4,1.7,0.2,2.4,0.7c7.7,6.2,17,8.5,26.3,10.8c10.5,2.6,21.3,3.5,32,4.5c0.3,0,0.6,0.1,1,0.2c9.5,1.9,19,3.1,28.7,2.3
		c8.2-0.7,16.3-1.6,24.3-3c1-0.2,1.9-0.5,2.8-0.8c5.7-0.8,11.5-1,17.2-1.2c8.8-0.3,17.7-0.6,26.4-2.3c5.8-1.1,11.3-3.1,16.5-5.8
		c1.2-0.6,2.3-1.6,3.9-1.1c0.7,0.7,0.3,1.4,0,2c-1.1,2.2-1.4,4.4-0.9,6.7c1.1-6.1,5.8-9.2,10.8-11.5c11.7-5.4,23.9-9.4,36.5-12.1
		c11.2-2.4,22.6-4.2,34-5.4c7.5-0.8,15.1-1.9,22.2-1.2c0.9-0.1,0.4-0.6,0.6-0.3c0.1,0.1,0,0.2-0.2,0.2c-3.4,0-6.8-0.1-10.2,0
		c-0.7,0-1.5-0.1-1.9-0.8c0-1.5,1.1-1.4,2-1.4c4.2,0.1,8.4-0.5,12.7-0.6c9.7-0.2,19.5-0.3,29.2-1c3-0.2,5.7-1.1,8.3-2.7
		c2.6-1.6,3-3.5,1-5.8c-2.4-2.8-5.7-4.2-9.1-5.5c-5.9-2.3-12-4.1-17.8-6.7c-10.5-4.6-20-10.8-28.8-18.1c-4.5-3.8-7.9-8.4-11.1-13.2
		c-7.6-11.5-15.4-23-24.1-33.7c-1.5-1.8-3-3.6-4.5-5.5c-0.5-0.7-1.4-1.3-0.7-2.3c4.9,2.2,9.3,5.4,13.6,8.5
		c7.3,5.1,12.6,12.1,18.6,18.5c7,7.5,14.5,14.5,23.9,19.1c1.7,0.8,3.3,1.8,5,2.8c12,8.5,25.5,13.5,39.8,16.3c5.3,1,10.6,1.3,16,1.9
		C618.2,481.8,619,481.8,619.7,482.4z"/>
	<path class="st1" d="M452.7,533.7c-4.9,1.9-9.4,4.7-14.5,6.1c-4.8,1.3-9.7,2.2-14.7,2.7c-6.7,0.7-13.4,0.9-20.1,1
		c-4.9,0.1-9.8,0.6-14.7,1c-5.1,1.1-10.3,1.4-15.5,1.6c-8.5,0.3-17,1.3-25.5,1.1c-5-0.1-10-0.6-15-1.2c-16.1-0.9-32-3.2-47.3-8.6
		c-4.4-1.6-8.6-3.8-12.2-6.8c-0.6-0.5-1.4-0.9-2-1.3c-1.1-2.4-2.3-4.7-3.9-6.8c-0.2-0.3-0.4-0.8-0.7-0.9c-3.3-1.2-1.5-2.9-0.4-4.5
		c2.1-3.2,4.8-6,7.4-8.9c6.9-7.9,15.5-13.5,23.9-19.5c1.2-0.8,1.9-1,2.7,0.5c1.8,3.3,5.4,4.3,8.2,6.5c12.4,7.4,25.7,12.4,40.2,14.1
		c11.5,1.4,23.1,2.7,34.7,2.3c11.8-0.4,23.7-0.6,35.5-2.2c5-0.7,10-1,15-1.8c5.2-0.8,10.2-2.3,15.1-4c8.4-2.9,15.7-7.9,22.5-13.4
		c7.2-5.8,12.6-13.1,16.8-21.3c3.6-7,5.2-14.6,6.5-22.4c1.3-8.4,0.8-16.5-1.4-24.6c-1.3-4.7-3.9-8.7-6.5-12.7
		c-0.6-0.9-1.8-1.8-1.1-3.2c4.5,2.2,9.1,4.3,13.4,6.9c0.6,0.4,1.1,0.9,1.7,1.3c1.2,2.7,3.4,4.6,5.2,6.9c9,11.1,17.1,22.9,24.9,34.9
		c6.8,10.7,16.6,17.8,27.2,24.3c9.5,5.8,20,9.2,30.2,13c3.2,1.2,6.3,2.6,8.7,5.2c2.8,3,2.3,5.5-1.2,7.4c-3.4,1.8-6.9,2.4-10.7,2.6
		c-10.6,0.5-21.2,0.7-31.8,1.1c-3.1,0.1-6.4-0.3-9.5,0.9c-0.7,0.7-1.6,0.6-2.5,0.7c-21.5,1.2-42.7,4.3-63.2,10.8
		c-8.3,2.6-16.4,5.7-23.5,11C453.8,533.6,453.3,533.9,452.7,533.7z"/>
	<path class="st1" d="M803.8,579c-0.2,1.5-1.1,2.3-2.5,3c-3.5,1.7-7.2,2.3-10.9,2.8c-2.9,0.4-5.8,0.7-8.7,0.6
		c-0.8,0.4-1.6,0.2-2.4,0.2c-10.3,0-20.6-0.2-30.9-0.6c-10.9-0.4-21.8-0.7-32.6-1.5c-11.3-0.7-22.7-1.1-34.1-2
		c-8.7-0.7-17.5-1.8-26.2-2.9c-25.2-3.4-50.4-7.5-75.1-13.6c-21.9-5.4-43.3-12.3-65-18.5c-7.1-2-14.2-4.2-21.6-5.2
		c-1.3-0.2-2.6-0.2-3.5-1.4c-2.8-1.7-6.1-2.4-8.8-4.5c-2.8-2.2-3.2-3.9-0.8-6.6c1.9-2.2,4.5-3.4,7.2-4.4c8.1-3,16.6-4.5,25.1-5.9
		c7.1-1.2,14.3-2.1,21.5-2.9c5-0.6,10-0.9,15-1c4.5-0.1,9-0.8,13.6-0.6c9.1,0.4,18.3,0.5,27.4,1.1c5.6,0.3,11.3,0.7,16.9,1
		c4.1,0.2,8.2,0.7,12.3,0.9c5,0.5,9.8,2,14.7,3.1c10.5,2.4,21,5,31.5,7.7c12.9,3.3,25.8,6.3,38.5,10.4c4,1.3,8.1,2.1,11.9,3.8
		c-0.6,0.7-1.6,0.9-2.4,1c-6.2,0.7-12.3,2-18.5,2.8c6.2,1.7,12.4,3.6,18.6,5.3c12.6,3.5,25,7.5,37.4,11.6c2,0.7,2,0.7,2.2,2
		c-0.9,0.5-1.9,0.4-2.9,0.4c-14.6,0.3-29,1.7-43.4,4.3c-3.1,0.6-6.3,0.9-9.4,1.4c19.5-3.3,39.2-4.6,58.9-6
		c9.6,3.7,19.2,7.3,28.8,11.2c2.2,0.9,4.3,1.1,6.6,0.7c2.7-0.5,5.3-1.7,8.1-0.7C801.4,577.2,802.9,577.7,803.8,579z"/>
	<path class="st2" d="M677.7,423.3c0.4,5,4.3,6.7,8.1,8.3c2.7,1.1,5.7,1.7,8.5,2.5c20.1,3.9,40.4,6.8,60.7,9.1
		c5.8,0.6,11.7,0.8,17.5,1.7c2.5,2,3.4,4.9,4.3,7.7c-0.6,5.8-4,10.2-7.2,14.7c-5.4,7.3-11.7,13.8-18.6,19.5c-5,4.1-10.6,7.4-16.1,11
		c-11.7,7.5-24.4,12.1-38,14.6c-6.1,1.1-12,2.8-18.2,3.6c-1,0.1-2.1,0.5-3-0.4c5-9.3,7.2-19.4,7.9-29.8c0.7-5.9,1.7-11.8,1.5-17.6
		c-0.4-13.6-2.6-26.8-10.3-38.5c-0.4-0.6-0.8-1.2-1.1-1.9c-0.5-1.2-0.9-2.4,0.2-3.4C675,423.4,676.1,422.4,677.7,423.3z"/>
	<path class="st3" d="M772.9,445.3c-6.9-0.5-13.8-0.9-20.7-1.9c-7.5-1-15.1-1.6-22.6-2.6c-7.4-1-14.8-2.4-22.2-3.6
		c-4.4-0.8-8.9-1.6-13.1-3.1c12.9,1.2,25.9,1.8,38.9,1.4c8.5-0.3,16.9-0.9,25.4-1.8c4.7-0.5,9.5-0.7,14.3-1.1
		c2.9-0.2,5.8-0.5,8.7-0.8c2.9-0.3,4.3,2,6.9,3.6c-3.8,0.5-6.9,0.8-10,1.2c-0.8,0.1-2,0.1-2.3,1c-0.2,0.8,0.8,1.3,1.4,1.8
		c5,4.3,8.4,9.6,9.5,16.1c0.1,0.6,0.4,1.2,0.4,1.9c0.2,1.5,0.9,1.8,2.1,1.1c1.6-1,3.5-1.4,5.3-1.8c2.3-0.5,3.2,0.3,3.4,2.6
		c0.2,2.3,0.5,4.6,0.9,7c0.2,1.5-0.2,2.2-1.8,2c-1.8-0.2-3.7,0.1-5.6-0.4c-3-0.7-3.9,0.4-3.4,3.5c0.8,4.9,1.4,9.7-0.4,14.6
		c-0.9,2.4-2.5,4.1-3.8,6.2c-1,1.7-0.3,2.2,1.1,2c2.1-0.3,4.2-0.2,6.2-1.1c1.1-0.5,2-0.2,2.8,0.3c0.9,0.6,0.5,1.6,0.1,2.4
		c-0.6,1.5-1.2,3-1.8,4.5c-0.3,0.7-0.8,1.1-1.6,1.2c-2,0.1-4,0.4-6,0.5c-1.9,0.1-3.2,1.1-4,2.7c-2.6,5-5.6,9.7-9.7,13.6
		c-1.2,1.2-0.8,1.7,0.5,2.2c1.1,0.5,2.1,1.1,3.3,1.7c-1.5,1.7-3.4,2.4-5.1,3c-5.6,2.1-11.5,3.2-17.5,3.6c-8.1,0.6-16.3,1.1-24.5,1.5
		c-5.2,0.2-10.3,0.6-15.5,1c-3.4,0.3-6.8,0.2-10.1,0.7c-2.9,0.4-5.6-1.2-8.4-1.9c-7.7-2-15.4-4.4-23.3-5.8c-0.4-0.1-0.7-0.3-1.4-0.6
		c2.6-2.4,4.2-5.5,6.3-8.1c5.5-0.2,10.8-1.7,16.2-2.9c5.6-1.2,11.3-2.1,16.8-3.8c9.5-3,18.7-6.7,27-12.4c4.3-2.9,8.8-5.5,12.9-8.7
		c7.1-5.5,13.6-11.8,19-19c3-4.1,6.6-7.8,7.9-12.9c0.3-1.1,0.6-2.2,0.9-3.3c1,0,1,0.9,1.2,1.6c2,6.2,3.5,12.6,3.7,19.1
		c0.2,6.5-0.9,13-3.1,19.2c-3.8,10.8-8.9,21-14.6,29.9c3.1-4.5,7-9.5,10.4-14.8c2.5-3.8,4.4-7.8,5.7-12.1c3.2-10.4,5-21.1,2.8-32
		c-1.6-7.6-4.5-14.6-9.1-20.8c-1.4-1.8-3.5-2.9-4.8-4.2C769.8,440.7,772.5,442.3,772.9,445.3z"/>
	<path class="st0" d="M708,432.1c-2.5,0.4-4.9-0.5-7.3-0.5c-0.2-0.8,0.2-1.4,0.8-1.9c5.1-3.9,10.2-7.8,15.2-11.9
		c5-4,10.4-7.4,15.8-11c25.4-17,51.4-33.1,77.2-49.4c7.3-4.7,14.7-9.3,22.5-13.1c0.7-0.4,1.4-0.8,2-1.4c2.8-1.9,5.9-3,9.2-3.8
		c2.2-0.5,3.2,0.6,2.8,2.9c-0.2,0.9-0.4,1.8-0.8,2.6c-3.4,6.6-6.4,13.5-10.5,19.8c-11,16.9-23.5,32.7-36.5,48.1
		c-3.5,4.2-6.9,8.4-11,12.1c-0.3,0.3-0.5,0.7-0.6,1c-1.8,1.8-3.7,3.2-6.3,3.3c-2.5-0.2-3.4-1.5-2.7-3.8c0.7-2.6,2.3-4.9,3.8-7
		c5.5-7.7,11-15.3,16.6-23c0.8-1.2,2-2.3,0.9-3.9c-1.1-1.5-2.6-1.7-4.3-1.4c-3.8,0.8-7.3,2.3-10.6,4.3c-8.6,5.4-17.2,10.8-25.5,16.7
		c-3.4,2.4-6.5,5.2-9.8,7.7c-6.6,5.1-13.6,9.4-21.7,11.9c-4.3,1.3-8.6,1.5-13,1.6C712,431.9,710,431.6,708,432.1z"/>
	<path class="st0" d="M600.6,412c-1.3,0-2.6,0-3.9,0c-0.7-0.9-0.2-1.7,0.1-2.5c3.2-6.8,5.9-13.7,8.8-20.6
		c3.4-8.2,7.7-15.9,12.1-23.6c6.1-10.6,11.5-21.5,17.9-31.9c1.5-2.4,3.1-4.8,4.3-7.3c1.2-2.1,2.6-3.9,4.6-5.3c2.5-1.8,5.2-1.4,7,1.1
		c1.3,1.8,2.1,3.8,2.5,6c5,24.1,9.7,48.3,13.6,72.7c0.6,3.9,1.4,7.7,2,11.5c0.1,0.9,0.5,1.9-0.2,2.8c-1.3,0-2.6,0-3.9,0
		c-0.9-0.3-1.4-1.1-1.9-1.8c-3.7-5.4-7.1-10.9-9.1-17.2c-1.3-4.1-2.9-8.1-4.9-11.9c-0.5-1-1.1-2-1.9-2.8c-4-3.8-7-3.4-9.7,1.5
		c-3,5.5-5.4,11.3-8.8,16.6c-4.7,7.2-11.4,11-19.6,12.3C606.6,412,603.6,411.7,600.6,412z"/>
	<path class="st4" d="M389.2,425.8c-4.8,7.9-6.8,16.5-5.9,25.6c0.5,5.2,0.9,10.4,3.5,15.1c0.7,1.3-0.1,1.4-0.9,1.9
		c-3.6,2.2-7.7,3.1-11.7,4.2c-4.6,1.3-9.4,2.1-13.9,3.6c-3.1,1-5.6-0.7-8.3-1.2c-6.2-1.3-12.2-1.5-18.5-0.5
		c-7,1.2-13.8,2.6-20.3,5.4c-0.9,0.4-1.7,0-2.3-0.8c-0.8-1,0.3-1.2,0.6-1.7c0-0.1,0.1-0.1,0.2-0.2c7.3-7.5,14.4-15.2,22-22.4
		c8-7.5,16-14.9,24.8-21.6c7.1-5.5,14.3-10.8,21.8-15.6c11.5-7.4,23.5-13.7,36.5-18.1c6.5-2.2,13-3.7,19.8-4.4c4-0.4,8-0.9,12-0.9
		c3.2,0.1,6.5,0.7,9.7,1c-1.8,2.1-4.8,2.6-6.5,4.7c-0.3,0.4-0.7,0.5-1.1,0.4c-11.7-1.1-23,1.1-34,5c-9.3,3.2-18.2,7.5-26.7,12.5
		c-12.5,7.4-24,16.2-34.9,25.7c-8.4,7.4-16.8,14.8-24.6,23c-1.2,1.3-2.6,2.5-4,3.6c19.7-15,39.7-29.5,60.1-43.6
		C387.4,425.9,388.1,425.1,389.2,425.8z"/>
	<path class="st3" d="M666.5,429.1c6.3,8.2,9.5,17.8,11.7,27.7c1.2,5.2,1.6,10.5,2,15.8c0.3,3.4,0.5,6.8,0.4,10.2
		c-0.5,12.2-2.7,24-9.8,34.2c-1.4,2-3.4,3.7-5.2,5.4c-0.4,0.4-1,0.4-1.6,0.3c-6.4-1.3-12.8-2.7-19.2-3.9c-2.7-0.5-4.3-2.4-5.7-4.2
		c-6.8-8.8-11.5-18.6-14-29.4c-0.1-0.5-0.1-1-0.1-1.5c-1.1-6-0.3-11.9,0.4-17.9c1-8.4,2.4-16.7,6-24.5c2.5-5.6,6-10.6,11.5-13.5
		C650.7,423.7,658.8,423.8,666.5,429.1z"/>
	<path class="st1" d="M786.6,425.4c0.4-2.4,2.5-3.6,3.9-5.1c6.7-7.4,13.1-15.1,19.3-23c13-16.6,26.1-33.2,34.7-52.7
		c0.7-1.5,2-3.4,0.7-4.7c-1.3-1.4-3.2,0-4.7,0.6c-2.1,0.8-4.4,1.2-6.1,2.8c-3.1,1.8-6.5,2.9-9.7,4.5c-9.1,4.6-18,9.7-26.7,15.2
		c-16.8,10.7-33.8,21.2-50.8,31.5c-12.6,7.7-24.6,16.2-36.8,24.4c-2.6,1.8-4.7,4.3-6.8,6.6c-1.2,1.3-1.2,3.1-2,4.7
		c-0.3,0.5-0.7,0.9-1,1.4c-6.5-0.6-13-1.4-18.4-5.8c-1.4-1.2-1.5-2.2,0-3.3c1.4-1,2.4-2.5,4.2-3c6.6-3.6,13.3-7.1,19.7-11.1
		c10.4-6.5,20.7-13.2,31.2-19.5c10.3-6.2,20.9-11.9,31.6-17.4c19.4-9.9,38.9-19.6,58.4-29.3c4.6-2.3,9.5-3.9,14.3-5.6
		c1.6-0.6,3.3-1.2,4.9-0.1c1.3,1.1,1.5,2.3,1.2,4c-1.2,6.1-4.8,11.1-7.6,16.5c-4.4,8.5-9.5,16.6-15.1,24.4
		c-5.1,7-10.3,13.9-15.8,20.5c-4.5,5.4-8.9,10.8-13.9,15.8C792.7,420.3,789.6,422.8,786.6,425.4z"/>
	<path class="st5" d="M272,539.1c1,1.7,0.3,3.6,0.6,5.5c1.3,6.4,5.6,10.1,11.1,12.5c9,3.8,18.3,6.4,27.8,8.5
		c4.3,0.9,8.6,1.5,12.9,1.7c10.3,0.5,20.6,1.3,30.9,1c9.3-0.3,18.6-0.8,27.9-1.5c5.6-0.4,11.3-1,16.9-1.4c6.7-0.5,13.3-1.3,20-1.9
		c4.5-0.4,9-0.6,13.5-1c6.2-0.6,12.4-1.4,18.5-1.8c4.9-0.4,9.9-0.4,14.8,0.6c16.8,3.3,33.4,7.5,50.1,11.3c13.3,3,26.7,5.5,40.1,8
		c11.8,2.2,23.7,4,35.6,5.8c5.2,0.8,10.4,1.2,15.6,2.1c0.5,0.1,1,0,1.3,0.4c-5-0.1-10-0.8-14.9-1.2c-3.9-0.4-7.7-0.7-11.6-1.1
		c-6.2-0.6-12.3-1.8-18.4-2.6c-6.4-0.8-12.7-1.8-19.1-2.9c-7.1-1.2-14.2-2.7-21.3-4.1c-13.5-2.7-27-5.4-40.5-8.1
		c-6-1.2-12-2.3-18.1-2.8c-4-0.4-8,0.7-12,1.1c-3.8,0.3-7.5,0.9-11.3,1.3c-6.3,0.7-12.7,1.5-19,1.9c-4.5,0.3-9,1-13.5,1.1
		c-6.3,0.2-12.7,0.1-19,0.6c-5.1,0.3-10.2,0-15.3,0.4c-8.1,0.6-16.2,1-24.3,0.8c-8.6-0.2-17.2-1-25.8-1.7
		c-9.8-0.8-19.3-2.7-28.7-5.1c-9.6-2.4-18.9-5.8-27.3-11.1c-0.9-0.6-1.8-1.3-2.8-2C270.7,549.2,271,544,272,539.1z"/>
	<path class="st0" d="M485.4,406.3c1.7,3.8,4.6,6.8,6.3,10.6c2.2,4.6,3.2,9.5,3.8,14.4c1.2,9.9-0.6,19.6-3.3,29.1
		c-2.6,8.9-7.5,16.6-13.5,23.6c-5.9,6.9-13.2,11.8-20.9,16.3c-9,5.3-19,7.6-29.2,8.9c-6.2,0.8-12.3,1.3-18.5,2
		c-7,0.7-14.1,0.7-21.1,1.1c-4.9,0.3-9.7,0.6-14.6,0.3c-7.2-0.4-14.3-0.9-21.5-1.7c-7.9-0.9-15.7-2.2-23.2-4.6
		c-7.7-2.5-15.2-5.6-21.6-10.7c3,1.2,5.9,2.6,8.9,3.7c6.2,2.3,12.6,3.6,19.1,4.6c7.9,1.3,15.8,1.1,23.7,1.5
		c11.1,0.7,22.2,0.4,33.3,0.3c8.4,0,16.8-0.7,25.1-1.4c11.9-1.1,23.6-3.2,34.3-8.7c6.4-3.3,12.2-7.5,17.7-12.1c3-2.6,5-6.1,6.8-9.6
		c3.5-6.8,7.8-13.2,10.2-20.5c1.4-4.2,1.9-8.4,2.5-12.7c1.4-9.5-0.8-18.6-3-27.6c-0.7-2.7-2.3-5.1-3.7-7.6
		C484.1,405.4,484.7,406,485.4,406.3z"/>
	<path class="st2" d="M471,397.2c2.1,0.8,3.9,2,5.2,3.7c5.5,7.4,8.6,15.7,10.2,24.8c2,12.1-0.2,23.5-5.5,34.3
		c-3.1,6.2-6.6,12.2-10.5,18c-2,3-5.1,4.9-7.8,7.2c-5.3,4.5-11.2,8-17.7,10.3c-6.6,2.4-13.4,4.1-20.4,5c-9.9,1.3-19.8,1.4-29.7,2
		c-10,0.7-20,0.5-30,0.2c-4.9-0.1-9.9-0.1-14.8-0.4c-16-0.9-31.4-3.9-45-13c-1.4-1-2.4-2.2-3.2-3.6c-1-1.8-1.5-3.6,0.5-5.2
		c2.3-1.7,4.1-1.6,6.1,0.3c8,7.8,17.9,11.6,28.7,13.6c6.7,1.2,13.4,1.6,20.2,2.1c5.1,0.3,10.2,0.6,15.3,0.3c6.3-0.4,12.7,0,19-0.4
		c7.4-0.5,14.7-0.5,22.1-1c7.5-0.6,15-2.2,22.3-4.2c4.7-1.3,9.3-2.6,13.7-4.6c4.4-1.9,8.1-4.7,11.6-7.8c8-7,13-16.1,17.6-25.6
		c3.5-7.2,4.9-14.7,4.5-22.3C482.6,418.7,479.5,406.9,471,397.2z"/>
	<path class="st5" d="M708,432.1c0.8-0.7,1.9-0.4,2.8-0.4c11.7,0.2,22.3-3.1,32-9.6c5.8-3.9,10.7-8.8,16.5-12.7
		c9.5-6.4,18.8-13,28.9-18.3c2.3-1.2,4.9-1.7,7.4-2.3c1.8-0.4,3,0.8,4,2.2c1,1.5,0.2,2.5-0.7,3.7c-6.4,9-13.3,17.8-19.3,27.1
		c-0.6,0.9-1,1.9-1.4,2.8c-1,2.2-0.3,3.6,2,4.2c-2.1,1-4.4,0.6-6.6,0.8c-5.7,0.7-11.4,0.7-17.1,1.1c-8.2,0.6-16.4,1.5-24.5,1.8
		c-5,0.2-10,0.4-15-0.3C714.1,431.8,711,432.1,708,432.1z"/>
	<path class="st3" d="M359,576.8c7.9,0.3,15.8-0.6,23.6-0.7c9.1-0.1,18.3-0.8,27.4-1.4c8-0.5,15.9-1.1,23.9-2
		c7.3-0.8,14.6-1.4,21.8-2.8c6.1-1.2,12.2-0.8,18.2,0.5c2.6,0.6,5.2,0.9,7.9,1.3c0.7,0.1,1.3,0.2,1.8,0.7
		C442,590.6,391,588.2,359,576.8z"/>
	<path class="st2" d="M596.7,454.6c-0.7-5.5-1.2-11.1-2.4-16.6c-0.1-0.6-0.1-1.3-0.1-1.9c-0.8-3.4-1.5-6.8-2.2-10.2
		c-0.6-3,0.2-4.4,3.1-5.3c2.9-0.9,5.9-1.3,8.9-1.3c9.6-0.1,19.2,1.1,28.8,1c0.7,0,1.5,0.1,2,0.7c-6.1,4.8-9.1,11.5-11.8,18.5
		c-1.5,4.1-2.4,8.3-3,12.7c-1.7,2-4.2,2.3-6.5,2.9c-3.8,1-7.8,1.6-11.7,2.1C598.9,457.5,597.7,456.8,596.7,454.6z"/>
	<path class="st5" d="M600.6,412c2.1-0.9,4.4-0.5,6.7-0.8c5.3-0.8,10.5-1.9,14.9-5.3c4-3,6.8-7.1,9.2-11.5c2.4-4.5,4.6-9.2,7.1-13.6
		c2-3.5,4.1-3.7,7.5-1.8c3.8,2.2,5.3,6,6.6,9.7c3.2,9.3,7.1,18.3,13,26.2c-6.7-0.4-13.4-0.6-20-1.3c-0.3,0-0.7-0.1-1-0.1
		c-6.3,0.4-12.5-0.5-18.7-0.6C617.4,412.9,609,412.4,600.6,412z"/>
	<path class="st0" d="M800.3,576.1c-3.3,0.5-6.5,0.9-9.7,1.6c-1.4,0.3-2.4,0.1-3.7-0.4c-9.1-3.6-18.2-7-27.3-10.6
		c-0.8-0.3-1.6-0.8-2.3-1.3c1.2-1.3,2.8-0.7,4.2-0.9c3.5-0.3,7-0.3,10.5-0.5c-3.5,0.2-7,0.2-10.4,0.4c-2.1,0.1-4.2-0.1-6.3,0.3
		c-0.5,0.1-1-0.1-1.3-0.5c-8.6-3.4-17.4-5.9-26.2-8.6c-11-3.4-22.1-6.4-33.2-9.5c-0.3-0.1-0.5-0.3-1-0.7c7.8-1.4,15.3-2.6,22.8-3.5
		c7,1.5,13.7,4.2,20.5,6.4c7.3,2.3,14.4,5.1,21.6,7.5c14.2,4.7,27.4,11.2,40.1,19.1C799.1,575.4,799.7,575.8,800.3,576.1z"/>
	<path class="st6" d="M389.2,425.8c-3.3,1.3-5.9,3.6-8.7,5.6c-16.3,11.5-32.5,23.1-48.5,35.1c-2.2,1.7-4.5,3.4-7,5.2
		c-0.1-0.8,0.4-1.1,0.7-1.4c5.2-5.2,10.1-10.6,15.6-15.5c7.5-6.7,15-13.2,22.7-19.7c8.1-6.8,16.9-12.5,25.8-18.1
		c5.7-3.6,12-6.4,18.3-9.1c6.7-3,13.7-5.4,20.9-6.8c6.4-1.3,12.9-2,19.5-1.7c1,0,2.1,0.3,3.1,0.4c1.6,0.2,3.2,0.4,4.8,0.5
		c2.4-0.1,4.1,1.2,5.5,2.9c0.9,1.1,0.5,1.9-0.8,2c-3.7,0.1-7.3,0.5-11,0c-1.7-0.5-3.2,0.5-4.8,0.5c-3.3,1.5-6.9,1.5-10.4,2.3
		c-4.7,1.1-9.5,2-14.1,3.6c-2.1,0.7-4.3,0.6-6.3,1.4c-8.9,2.2-16.6,6.8-24.2,11.6C389.8,425,389.7,425.6,389.2,425.8z"/>
	<path class="st2" d="M264.2,524.9c4.1,4.2,5.6,9.2,4.6,15.1c-0.5,2.9-1,5.7-2.3,8.3c-0.9,1.8-2.1,2.3-3.9,1.5
		c-3.9-1.7-7.5-3.8-11-6.2c-1.2-0.8-2.4-1.2-3.8-1.2c-4.9,0-9.8-0.3-14.6,0.1c-12.3,0.9-24.5-0.1-36.8,0.5
		c-11.9,0.6-23.7-0.1-35.6,0.5c-7.1,0.4-14.3,0.2-21.4,0.4c-0.9,0-1.8,0.3-2.6-0.4c1.8-1.5,4-1.1,6.1-1.2c9-0.6,18-1.4,26.9-2.1
		c14.3-1.1,28.6-2.2,43-3.4c10.6-0.9,21.2-1.8,31.8-2.4c4-0.3,7.3-2.2,10.2-4.7c1.4-1.2,2.8-2.5,4.3-3.6
		C260.5,524.9,262.1,523.9,264.2,524.9z"/>
	<path class="st7" d="M442.4,468.3c-3.1,0-3.3-0.5-2.9-3.8c0.6-5.7,1.1-11.4,1.4-17.1c0.1-2-0.6-4.1-0.8-6.2
		c-0.4-3.4-2.4-5.1-5.5-5.9c-5.3-1.4-10.6-2.8-16.1-2.7c-2.4-4.8-6.9-4.8-11.3-5.2c-1.2-0.1-2.7,0.5-3.4-1.1
		c2.9-1.2,5.9-1.1,8.9-0.3c0.3,0.1,0.6,0.2,0.9,0.2c1.1-0.1,2.5,0.6,3.1-0.6c0.5-1-0.7-1.8-1.3-2.6c-0.8-1.2-1.9-2.1-2.4-3.5
		c0.2-0.3,0.6-0.4,1-0.5c2.3,0,4.4-0.9,6.5-1.6c3.9-0.4,7.7-0.3,11.6,0.1c6.2,0.2,11.9,2.2,17.3,5.3c2.4,1.4,5,2.6,6.2,5.4
		c0.5,0.9,0,1.7-0.4,2.5c-1,1.9-2.2,3.6-3.7,5.1c-5.1,5.4-6.6,12.1-7.5,19.1c-0.5,3.7-0.3,7.4-0.9,11.1
		C443,466.8,443.1,467.7,442.4,468.3z"/>
	<path class="st3" d="M571.8,416.5c6.1,0.4,9.8,4.3,13.3,8.8c5,6.4,6.7,13.9,7.8,21.6c0.5,3.9,1.1,7.9,0.9,11.8
		c-0.1,2.7,0.7,5.3,0.6,8c-0.1,1.5-0.5,1.8-1.8,1.5c-2.2-0.5-4.4-1-6.6-1.5c-1.1-0.2-0.8-1-0.9-1.7c-0.7-6.1-1.1-12.2-2.9-18.1
		c-2.1-6.9-5-13.4-10-18.7c-3.6-3.7-7.9-4.8-12.9-3.1c-8.6,2.9-13.1,9-14.8,17.6c-0.1,0.6-0.1,1.4-0.8,1.6c-0.6,0.1-0.9-0.6-1.2-1.1
		c-0.2-3,1.2-5.6,2.3-8.2c2.5-6,6.4-11.1,11.7-14.9C561,416.8,566.1,415.5,571.8,416.5z"/>
	<path class="st8" d="M846.7,336.4c-3.9-0.2-7.2,1.6-10.7,2.9c-16.2,6.4-31.2,15.1-46.9,22.7c-10.9,5.2-21.6,10.8-32.2,16.6
		c-12.2,6.7-24.2,13.8-35.9,21.2c-9.1,5.8-18.2,11.7-27.8,16.8c-2.1,1.1-4.4,1.9-6.7,2.9c3.3-3.3,7.2-6,10.9-8.8
		c12.5-9.1,25.6-17.2,38.5-25.7c12.5-8.2,26.1-14.7,39.6-21.2c11-5.2,22.1-10.1,33.2-15.2c9.1-4.2,18.3-8.2,27.6-11.8
		c2.3-0.9,4.9-1.3,7.3-1.8C844.9,334.8,846,335.2,846.7,336.4z"/>
	<path class="st9" d="M429.2,437c1.9,0.1,3.6,0.7,5.4,1.4c1.3,0.5,2.2,1.4,2.6,2.7c1.9,7.1,2.5,14.3-0.8,21.1
		c-2,4.2-4.9,7.9-9.7,9.4c-4.1,1.2-7.6-0.7-10.8-3c-2-1.4-3.8-3.2-5.6-5c-1.8-1.8-3.7-2-6-1.4c-3.5,0.9-6.1,3.4-8.8,5.5
		c-1.5,1.2-2.4,0.9-3.3-0.5c-0.1-1.1,0.9-1.2,1.5-1.6c3.4-2.2,7.2-3.7,10.9-5.4c7.6-3.4,14.3-8,19.9-14.3c1.7-1.9,2.9-4.3,3.8-6.8
		C428.5,438.5,428.5,437.6,429.2,437z"/>
	<path class="st10" d="M429.2,437c0,3.6-1.9,6.4-4,8.9c-3.8,4.7-8.8,8.3-14,11.5c-5.7,3.5-12.2,5.2-17.8,8.8
		c-0.5,0.3-0.9,0.6-1.4,0.9c-2.4-1.4-3.1-3.9-3.9-6.3c-1.9-6.1-2.5-12.3-1.5-18.6c0.3-2,1.3-3.1,3.1-4c4.3-2.1,8.9-2.8,13.5-3.4
		c8.4-1,16.6,0.2,24.8,1.5C428.4,436.6,428.8,436.9,429.2,437z"/>
	<path class="st1" d="M669.5,415c-2.5-14.4-4.8-28.7-7.4-43.1c-2.5-13.5-5.3-26.9-8-40.3c-0.6-2.9-1-5.9-2.5-8.5
		c-1.8-3-4.3-3.6-7-1.5c-1.8,1.4-3,3.4-4.4,5.1c-1.3,2.1-2.6,4.1-4.1,6c-10.5,14.3-19.9,29.3-27.8,45.2c-3.6,7.3-6.6,14.8-8.4,22.8
		c-0.7,3-1.6,6-2.6,8.9c-0.2,0.8-0.4,1.6-0.6,2.4c-3.6,0.5-7.2-0.5-10.8-0.4c-1.4,0-1.1-0.8-0.5-1.5c3.1-4.1,5.7-8.4,8.2-12.8
		c6.5-11.1,11.7-22.9,18.2-33.9c7.6-12.9,15.7-25.5,25.1-37.2c1.4-1.8,2.9-3.6,4.4-5.2c2.6-2.6,5.6-4.5,9.5-3.6
		c3.3,2.7,3.9,6.7,4.8,10.4c1.9,8,3.4,16.2,4.9,24.3c1.4,7.7,2.5,15.4,4,23c2.4,12.5,4.4,25,7.2,37.4c0.2,0.7,0.2,1.5,0.3,2.4
		C671.2,415,670.3,415,669.5,415z"/>
	<path class="st7" d="M465.3,397.5c3.2,0.6,4,3.7,5.7,5.7c2.7,3.1,4.1,7,5.5,10.8c1.1,6.2-0.3,12.3-1.2,18.3c-0.2,1.5-0.7,3-1.1,4.5
		c-0.5,1.7-1,3.4-3.1,3.6c-2.2,0.2-4-0.7-5.2-2.5c-0.4-0.6-0.7-1.3-1.1-1.9c-2.1-4.5-4.5-8.8-8.1-12.3c-0.7-0.7-1.4-1.3-2.1-1.9
		c-0.7-1,0-1.9,0.4-2.7c2.1-4.4,4.4-8.7,7.7-12.3c2-2.1,2.7-4.5,2.2-7.4C464.8,398.8,464.7,398,465.3,397.5z"/>
	<path class="st0" d="M565.9,459c-1.3-0.2-2.3-1-3.8-1.8c1.1-0.1,1.8-0.1,3-0.2c-3-1.1-5.9-0.6-8.3-2.4c-2.1-1.6-4.7-2.6-7-4.8
		c5.6,0.8,10.9,1.3,16.2,1.3c-2.5-1.1-5.3-0.9-8-1.3c-2.9-0.4-5.8-0.5-8.6-1c-2.6-0.5-3-1.3-2.5-4c0.8-5.1,2.5-10,6.5-13.3
		c3.6-3,7.6-5.1,12.7-3.7c3.5,1,5,3.9,6.9,6.4c0.7,0.9,1.2,1.9,1.7,2.9c-0.1,0.7-0.5,1.2-0.9,1.7c-4.6,4.5-6.2,10.1-6.7,16.3
		C566.9,456.3,567,457.8,565.9,459z"/>
	<path class="st11" d="M409.6,466.4c2.5,2,5.1,4,7.2,6.5c2.3,2.7,2.4,6.2,2,9.5c-0.7,6.2-2.2,8.6-9,10.2c-1.5,0.4-2.9,0-4.3-0.4
		c-3-0.9-6.1-0.3-9.2-0.8c-2.1-0.3-3.3-1-4-2.9c-0.3-0.7-0.8-1.2-1.3-1.8c0.6-2.6,0.9-5.3,3.4-6.9c2.9,1.2,4.8,5.5,4.1,9.2
		c1-4-0.8-7-3.2-9.9c-0.2-0.8,0.3-1.4,0.8-1.9c3.9-3.5,7.7-7.1,11.8-10.3C408.5,466.6,409.1,466.5,409.6,466.4z"/>
	<path class="st11" d="M442.4,468.3c0.4-6.7,0.6-13.4,2-20c1.2-5.8,4.2-10.6,8.2-14.9c1.4-1.5,2.5-3.2,3-5.2c2.4,1.5,3.3,4,4.5,6.3
		c2.7,5.3,4.3,11.1,4.2,17c-0.2,7.6-2,14.7-7.1,20.7c-0.4,0.4-0.8,0.8-1.2,1.2c-2.5,2.5-3.7,2.7-6.3,0.4
		C447.4,471.7,445,469.9,442.4,468.3z"/>
	<path class="st7" d="M375.5,493.6c-5,0.8-10,0.6-15,0.2c-3.7-0.3-7.4-0.4-11.1-0.6c-9.5-0.5-18.6-2.7-27.2-6.9
		c0.3-1.3,1.5-1.4,2.5-1.6c11.3-2.9,22.6-3,33.8,0.4c5.3,1.6,10.3,4,15.2,6.5C374.6,492,375.6,492.4,375.5,493.6z"/>
	<path class="st3" d="M596.7,454.6c1.2,1.8,3,2.2,4.9,1.9c6.3-1,12.6-1.7,18.5-4.4c-0.8,5.7-1.5,11.5-1.4,17.3
		c0,1.3-0.3,1.4-1.7,1.4c-5.2-0.2-10.3-0.5-15.4-1.1c-1-0.1-2.1-0.4-3.1-0.5c-1.1-0.1-1.4-0.7-1.3-1.6
		C597.6,463.3,596.5,458.9,596.7,454.6z"/>
	<path class="st0" d="M634.8,420.9c-7.2,0.3-14.5-0.2-21.6-0.6c-5.6-0.3-11.1-0.4-16.6,0.6c-3.7,0.7-4.5,1.8-3.7,5.4
		c0.8,3.2,1.5,6.5,1.4,9.8c-1.7-4-3.3-8-5.5-11.7c-2.4-4-6-6.6-10-9.2c9.9-0.7,57.9,0.7,66.1,2.1C640.7,417.6,638,419.8,634.8,420.9
		z"/>
	<path class="st11" d="M464.8,436c1.6,0.8,2.1,2.8,3.9,3.5c2.6,0.9,3.9,0.5,4.6-2.1c1.5-5.3,2.4-10.7,2.7-16.2
		c0.1-2.4,0.5-4.8,0.5-7.2c2.1,4.8,2.8,9.9,3.4,15c1.1,9-1.1,17.3-5.4,25.1c-2.1,3.8-3.5,8.1-6.5,11.2c-2.4-3.7-2.1-7.7-1.3-11.7
		c1.1-5.4-0.1-10.6-1.6-15.7C465.1,437.3,465,436.7,464.8,436z"/>
	<path class="st12" d="M375.5,493.6c-4.2-2.8-8.8-5.1-13.6-6.8c-5.7-2-11.6-3-17.6-3.9c-2.8-0.4-5.5,0.4-8.2,0.5
		c-4.7,0.2-9.4,0.9-13.8,2.8c-1.9-1-3.8-2-5.7-3c-0.7-0.4-1-0.9,0.3-1.3c6-2,12-3.7,18.3-4.3c2.5-0.2,5.1-1,7.6-0.9
		c3.6,0.2,7.1,0.8,10.6,1.8c9.3,2.8,17.3,7.7,24.4,15.1C376.7,493.6,376.1,493.6,375.5,493.6z"/>
	<path class="st0" d="M666.5,429.1c-3.2-1.2-6.3-2.9-9.8-3.2c-5.9-0.4-11.3,0.4-16.1,4.4c-7.6,6.3-10.6,14.8-12.6,23.9
		c-2.1,9.7-3.1,19.6-3,29.6c-1-2.6-1-5.4-1.5-8.2c-1.6-9.4,0.1-18.7,2.1-27.8c1.8-8.2,5.4-16,11.9-21.7c5.2-4.6,11.4-6,18.3-3.9
		C660.1,423.7,663.5,425.9,666.5,429.1z"/>
	<path class="st8" d="M650.9,317.4c-4.5,0.3-7.8,2.4-10.8,6c-6.7,8-12.8,16.5-18.4,25.2c-6.2,9.6-12.2,19.5-17.2,29.8
		c-5.2,10.6-10.8,21-17.5,30.8c-0.4,0.5-0.6,1.2-1.1,1.6c-0.4,0.3-0.3-0.3-0.4-0.6c4-10.5,9.4-20.2,14.6-30.1
		c7.4-14.1,16.3-27.3,25-40.6c4.7-7,9.5-14,15.6-19.9c2.7-2.5,5.8-3.9,9.5-2.7C650.5,316.9,650.7,317.2,650.9,317.4z"/>
	<path class="st0" d="M677.7,423.3c-4.2,0.9-4.7,2-2.5,5.5c5.9,9.2,9.1,19.3,9.9,30.3c0.2,2.3,0.5,4.6,0.9,6.9
		c0.4,2.5-0.3,5-0.5,7.5c-0.4,4.1-0.3,8.4-1.8,12.3c0-5.3-0.2-10.5-0.6-15.8c-1-14.4-4.6-28-12.1-40.5c-2.7-4.5-6.8-7.2-11.9-9.5
		c7,0,13.6-1,20.4-0.4C678.5,420.8,678.4,422.2,677.7,423.3z"/>
	<path class="st1" d="M619.7,482.4c-10.9-0.4-21.6-2.4-32.1-5.5c-8.8-2.6-16.8-6.7-24.2-11.9c-0.7-0.5-1.4-0.8-1.8-1.6
		c4.7,1.9,9.2,4.3,14.1,5.8c5.5,1.6,11,3.2,16.7,3.9c5.2,0.7,10.5,1.4,15.7,1.9c3.2,0.3,6.5-0.2,9.7,0.5c0.7,0.2,1.5,0,1.4,1.1
		C619,478.6,619.9,480.5,619.7,482.4z"/>
	<path class="st12" d="M465.3,397.5c-0.1,1.7,0.7,3.3,0.4,5c-0.4,2.6-2.1,4.4-3.7,6.3c-3.4,3.9-5.5,8.4-7.4,13.1
		c-3.2-2.1-6.4-4.5-10.3-5.2c-1.8-0.3-2-0.9-0.9-2.5c2.1-3.1,4.5-6,6.8-8.9c3.9-1.1,7.9-0.3,12-0.6c-1.1-2.5-3.6-3.2-5.7-4.3
		c2-1.1,3.9-2.2,6-3.2C463.4,396.8,464.4,396.7,465.3,397.5z"/>
	<path class="st1" d="M264.2,524.9c-3.5-0.1-5.8,2.3-8,4.4c-4.1,3.8-8.6,5.7-14.3,6c-7.3,0.3-14.6,1-21.9,1.7
		c-5.1,0.5-10.1,0.8-15.2,1.2c-7.2,0.5-14.4,1.3-21.7,1.8c-2.4,0.2-4.8,0.3-7.2,0.5c-7.6,0.7-15.1,1-22.7,1.6
		c-5.5,0.4-10.9,1-16.4,1.5c-0.6-0.2-1.3,0.1-2-0.5c0.8-0.8,1.9-0.9,2.8-1c4.6-0.5,9.3-0.6,13.9-1.1c6.5-0.7,13.1-1.1,19.6-1.8
		c4.3-0.5,8.6-0.7,13-1.1c7.3-0.6,14.6-1.1,21.8-1.9c4.7-0.5,9.5-0.6,14.2-1c6.8-0.6,13.6-1.3,20.3-1.9c1.7-0.2,3.4-0.1,5.1-0.2
		c4.3-0.3,6.4-3.9,9.5-6c1.5-1,2.8-2.2,4.3-3C261.1,523,262.8,523,264.2,524.9z"/>
	<path class="st13" d="M576.1,440c2.7,6.4,4.6,13,4.9,20c0.1,1.4,0.7,2.6,0.5,4c-0.1,1-0.2,1.6-1.4,1.1c-3.9-1.4-7.8-2.5-11.4-4.7
		c-0.4-0.5-0.6-1.2-0.6-1.8c0.6-6,1.3-11.9,4.9-17C573.8,440.7,574.4,439.3,576.1,440z"/>
	<path class="st12" d="M403.8,426.3c2.6,1,5.3,0.3,8,0.8c4,0.8,6.1,2.2,6.6,5.4c-8.9-1-17.6-0.4-26.2,2.1c-1.3,0.4-2.6,1.2-4,1.8
		c1.6-6.7,5.1-11.8,10.9-15.4c1.2-0.8,1.8-0.3,2.2,0.9c0.3,0.9,0.3,1.9,0.6,2.8C402.1,425.6,402.5,426.4,403.8,426.3z"/>
	<path class="st11" d="M442.3,478.2c-1.7,2.9-3.2,5.6-4.3,8.6c-0.3,0.8-1,1.1-1.7,1.3c-5.6,1.3-11.1,2.8-16.7,3.6
		c-0.4,0.1-0.8,0-1.2-0.1c-0.1-0.9,0.8-1.1,0.9-1.7c0.8-3.6,3.7-4.4,6.7-5.5c4.4-1.7,8.5-3.9,12.8-5.8
		C439.8,478.1,440.8,477.9,442.3,478.2z"/>
	<path class="st4" d="M414.6,413.1c4.4-1.9,9.1-3.1,13.8-4.2c5.6-1.3,11.2-2.9,17-3.1c-1.8,2-3.4,4.2-4.9,6.4
		c-2,3.1-2.1,3.1-5.6,2.3c-2.4-0.6-4.9-0.8-7.3-0.9C423.3,413.4,418.9,412.7,414.6,413.1z"/>
	<path class="st7" d="M394.5,480c-1.8,1.9-1.8,4.7-3.3,6.7c-3-3-2.6-5.4-0.3-8.9c1.9-3,4.1-5.9,6.7-8.5c1.6-1.5,3.3-2.8,5.3-3.8
		c3.6-1.7,3.9-1.7,6.8,0.8c-4.8,4.1-9.7,8.1-14.1,12.6c-1.1,0.6-1.9-0.3-2.9-0.4C393.3,478.9,394.3,479,394.5,480z"/>
	<path class="st7" d="M374.5,481.5c-2.3-0.8-4.5-2.1-7.2-1.1c-1.2,0.4-2.5-0.9-4-1.6c4.1-1.1,7.9-2.2,11.7-3.1
		c4.7-1.1,9.2-2.9,13.8-4.4c0.8-0.2,1.6-0.9,2.2-0.1c0.6,0.8-0.4,1.4-0.8,2.1c-0.9,1.5-1.9,3-2.9,4.4c-2.4,1.9-5.4,2.2-8.1,3.1
		C377.6,481.1,376.2,482.2,374.5,481.5z"/>
	<path class="st5" d="M742.8,534.4c-3.2,2.8-6.3,5.6-10.4,6.8c-0.3,0.1-0.6,0.1-0.9,0c-5.6-1.8-11.1-3.5-17.3-5.5
		C724.1,535.2,733.4,534.2,742.8,534.4z"/>
	<path class="st11" d="M445.3,472.7c3.1,1.6,4.8,4.8,7.7,6.6c0.6,0.4,0.6,1,0.1,1.4c-0.8,0.5-1.5,1.9-2.8,1.1
		c-1.9-1.2-3.4-3-5.1-4.5c-2.6-2.5-4.8-2.7-7.8-0.8c-0.7,0.4-1.4,0.9-2.1,1.2c-4.5,1.7-8.5,4.7-13.7,5.6c1.2-1.3-1.3-3.7,1.8-4.2
		c3.2-0.7,6.2-1.7,9.1-3.3c2.8-1.7,6-2.4,9.1-3.3C442.8,472.1,444.1,472.1,445.3,472.7z"/>
	<path class="st0" d="M571.8,416.5c-7.4-0.3-13.8,2.1-18.9,7.5c-4.4,4.7-7.6,10.2-9.5,16.4c-0.3,1-0.6,2-0.9,3
		c-0.9-0.9-0.4-1.9-0.3-2.9c1.3-6.9,4.6-12.8,8.9-18.1C554.8,417.9,565.9,413.6,571.8,416.5z"/>
	<path class="st14" d="M576.1,440c-3.3,1.4-4.2,4.6-5.2,7.5c-1.4,4.2-2.1,8.6-2.1,13.1c-1.1-0.3-2.1-0.7-2.9-1.5
		c0.9-4.9,0.7-10.1,3-14.7c1.4-2.8,3.2-5.4,5.8-7.3C575.4,437.8,576,438.8,576.1,440z"/>
	<path class="st11" d="M374.5,481.5c4.3-1.3,8.5-2.6,12.8-3.9c-0.1,0.4-0.1,0.8-0.2,1.2c-0.3,3.1-1.4,5.2-5,5
		c-1.8-0.1-3.1,1.1-4.4,2.5C376.9,484.3,375.8,482.9,374.5,481.5z"/>
	<path class="st15" d="M415.1,424.6c-3.7-0.2-6.8-1.1-10.2-0.2c-2.4,0.6-1.4-2.1-2-3.2c-0.7-1.4,0.5-1.3,1.4-1.3
		c1.1,0,2.3,0.2,3.4,0C411.6,419.1,413,421.9,415.1,424.6z"/>
	<path class="st7" d="M445.3,472.7c-4.2,0.2-8.1,1.3-11.7,3.2c-3.2,1.7-6.5,3.1-10.2,3.1c5.4-1.4,9.6-5.3,14.7-7.5
		C441,470.3,443.1,470.9,445.3,472.7z"/>
	<path class="st11" d="M387.2,487.8c2.7,0.9,2.9,3.5,4.4,5.8c-3.4,0-6.3,0-9.3,0C382.2,490.9,384.3,488.4,387.2,487.8z"/>
	<path class="st12" d="M432.1,417.5c-4.1-0.3-8.2,0.4-12.3,0.5c-1.9,0.4-3.8,0.9-5.7,1.5c-0.4,0-0.7,0-1.1,0c-1.9-2-4.3-0.5-6.6-1.2
		c2.4-1.6,5.1-1.5,7.5-1.7c5.9-0.5,11.8,0.3,17.7,0.5C431.8,417.1,432,417.3,432.1,417.5z"/>
	<path class="st7" d="M387.2,487.8c-2.4,1.3-4.1,3.1-4.9,5.8c-2.7-2.1-3.1-3.7-1.4-5.8C382.4,485.9,384.5,485.9,387.2,487.8z"/>
	<path class="st11" d="M463.1,468.1c1.2,2.5,0.3,4.3-1.7,5.8c-1.6,1.2-3,2.6-4.5,4c-0.4,0.4-0.9,0.8-1.4,0.2c-0.5-0.6-0.2-1,0.3-1.4
		C458.9,474.5,461.2,471.5,463.1,468.1z"/>
	<path class="st11" d="M445.1,480.1c1.2,1,3,1.9,2.9,3.2c-0.1,1.4-2.2,1.6-3.5,2.1c-0.6,0.2-1.2,0.5-1.9,0.8
		C442.9,483.8,444.1,482.1,445.1,480.1z"/>
	<path class="st11" d="M434.1,470.7c0.7-0.9,0.9-1.6,1.8-1.6C436.1,470.3,435.3,470.3,434.1,470.7z"/>
	<path class="st7" d="M374,485.2c-1.1,0-1.3-0.6-1.7-1.1C373.2,483.9,373.4,484.6,374,485.2z"/>
	<path d="M490.3,540c13.9,2.2,27.2,6.5,40.6,10.4c15.5,4.5,31,9.1,46.6,13.2c11.3,3,22.8,5.1,34.2,7.6c7.2,1.6,14.6,2.4,22,3.6
		c5.5,0.9,11,2,16.5,2.8c3.4,0.5,6.9,0.7,10.3,1.1c5.2,0.6,10.5,1.3,15.7,1.9c1.7,0.2,3.4,0.4,5,0.4c3.6,0,7.1,0.5,10.6,0.6
		c9.9,0.3,19.8,1.1,29.7,1.5c6.1,0.2,12.2,0.9,18.4,0.9c6.2,0,12.3,0.4,18.4,0.6c4.4,0.2,8.8-0.1,13.1,0.4c3.4,0.4,6.8,0.3,10.2,0.5
		c-0.2,0.4-0.6,0.4-1,0.4c-15.8,0.4-31.7,0.9-47.5,0.4c-8.1-0.3-16.2,0-24.3-0.4c-8.5-0.5-17-1.3-25.6-1.9c-2.9-0.2-5.8-0.2-8.7-0.4
		c-6.3-0.6-12.6-1.3-19-1.9c-5.9-0.6-11.8-1.2-17.7-2c-10.7-1.4-21.5-3-32.1-5c-15.7-3-31.2-6.7-46.7-10.7
		c-16.9-4.3-33.8-8.5-50.2-14.3c-7.8-2.8-15.7-5.1-23.6-7.6c-0.5-0.2-1.1-0.3-1.6-0.9C485.9,540.7,488.1,540.3,490.3,540z"/>
	<path d="M452.7,533.7c7.7-6.5,17-9.8,26.5-12.7c7.4-2.2,14.8-4.2,22.4-5.6c5.9-1.1,11.9-2.1,18-2.7c5.8-0.6,11.6-1.3,17.4-1.9
		c2.2-0.2,4.4,0,6.6,0c0.7,0.8,1.7,0.5,2.5,0.4c3.5-0.2,6.9,0.5,10.3,0.8c-3,0.4-6,0.3-8.9,0.6c-7.9,0.8-15.9,1.4-23.8,2.4
		c-10.9,1.5-21.8,3.3-32.4,6c-10,2.6-19.8,5.9-29,10.4c-4.2,2-8.3,4.7-9.7,9.8c-0.3,0.9-0.1,1.9-0.5,2.8
		C449.5,540.4,450.8,537,452.7,533.7z"/>
	<path d="M332.6,545.9c7-0.4,13.9,0.9,20.8,0.4c9.6-0.6,19.3-1.2,28.9-1.6c2.1-0.1,4.1-0.4,6.2-0.3c-3.3,1.7-7,1.7-10.4,2.3
		c-8.7,1.3-17.4,2.5-26.2,2C345.5,548.4,338.9,548,332.6,545.9z"/>
	<path d="M610.2,507.4c-3.5-7.4-6.7-14.9-11.4-21.7C606.4,490.9,608,499.3,610.2,507.4z"/>
	<path class="st8" d="M372.6,534.2c-7.7,0.5-15.2,1.2-22.8,1c-2.7-0.1-5.5,0.5-8.2,0.4c-14.2-0.2-28.4-0.9-42.4-4
		c-4.9-1.1-10-2.4-14.3-5.2c-4-2.6-6.6-6.3-7.4-11c-0.3-1.9,0.7-3.9,1.9-5.6c2.8-4.1,7-6.7,10.6-9.9c1.5-1.3,3.1-2.6,4.8-3.7
		c1.5-1,2.2-0.5,3,0.6c1,1.6,2,3.3,2.6,5.2c1.7,5.6,4.8,10.5,9,14.4c4.1,3.7,9,6.4,14.2,8.2c8.5,3,17.2,4.9,26.1,6
		C357.4,531.7,365,533.1,372.6,534.2z"/>
	<path class="st8" d="M550.3,498.5c-5-0.3-9.8-2-14.6-3.2c-4.2-1-8.5-2.1-12.8-2.1c-4.9,0-9.8,1-14.5,2.3c-2.1,0.6-4.6,2.3-6.3,0.1
		c-1.4-1.8,0.9-3.7,1.7-5.4c3.8-8.1,8.3-16,11.3-24.5c0.6-1.8,1.6-3.4,3.1-4.6c1.7-1.3,3-1,3.9,0.9c2.2,4.7,5.6,8.8,8.9,12.7
		c2.8,3.3,6.3,6,9.8,8.6c3.8,2.9,8,5.5,12,8.3c0.7,0.5,1.4,0.9,1.8,1.6c0.6,1.1,2.3,2.1,1.4,3.6c-0.8,1.5-2.5,1.6-4.1,1.6
		C551.3,498.5,550.8,498.5,550.3,498.5z"/>
	<path class="st8" d="M569.3,519c-3.4,1.7-7.1,2.1-10.6,2.9c-10.3,2.1-20.5,4.4-30.5,7.5c-0.5,0.2-1,0.5-1.5,0.7
		c-0.9,0.4-1.7,1-1.7,2.1c0.1,1.3,1.1,1.8,2,2.1c1.8,0.6,3.7,1.1,5.6,1.6c21.5,5.8,43,11.6,64.5,17.4c20.3,5.5,40.8,9.7,61.2,14.8
		c6.3,1.6,12.7,3,19,4.9c-3.3-0.5-6.7-0.9-10-1.4c-7-1.1-14-2.3-21-3.3c-8.8-1.3-17.4-3.4-26.1-5.1c-12.7-2.5-25.5-4.8-38.1-7.9
		c-23.4-5.6-46.8-11.2-69.8-18.2c-3.8-1.2-7.6-2.1-11.4-3.2c-0.2,0-0.3,0-0.5-0.1c-1.1-0.6-2.8-0.8-3-2.2c-0.1-1.5,1.2-2.3,2.6-2.9
		c4.8-2.1,9.9-2.8,15-3.9c6.3-1.3,12.7-2.1,19.1-3.1c3.3-0.5,6.7-1,10.1-1.3c7.9-0.8,15.8-1.3,23.7-1.5
		C568.2,519,568.8,519,569.3,519z"/>
	<path d="M605.9,531.3c4.3,2,9,2.8,13.5,4.3c7.9,2.6,15.8,4.7,23.8,7c1.8,0.5,3.6,1.2,5.4,1.8c3.2,1.1,6.3-0.2,9.4-0.6
		c4.2-0.5,8.4-1.1,12.6-1.7c4.4-0.6,8.8-1.3,13.3-1.9c0.5-0.1,0.9,0,1.5,0.4c-6.2,1.5-12.3,3-18.5,4.4c-4.3,1-8.6,1.6-12.8,2.7
		c-1.4,0.4-2.6,0-3.7-0.3c-16-4.6-31.9-9.3-47.8-14c-2.4-0.7-4.9-1.3-7.4-2c-1.2-0.4-1.8-0.9-0.5-2.1c2.2-2.1,5.1-2,7.7-2.2
		c7.2-0.5,14.3-1.4,21.5-1.1c3,0.2,5.9,0.8,8.9,0.5c-0.3,1.4-1.4,1.1-2.3,1.1c-9,0.4-18,1.1-26.9,2.5
		C604.3,530.4,605.4,530.4,605.9,531.3z"/>
	<path d="M753.9,564.4c6.2-0.8,12.4-0.2,18.7,0c-5.1,0.4-10.2,0.8-15.3,1.1c-7,0.6-14,1.3-21.1,1.8c-2.7,0.2-5.5,0.3-8.2,0.6
		c-5.5,0.6-11,1.3-16.5,1.9c-4.8,0.5-9.7,1-14.5,1.3C715.7,566.7,734.7,564.6,753.9,564.4z"/>
	<path class="st0" d="M605.9,531.3c-3-0.5-3.5-0.6-5.1-1.8c5.2-0.6,10.2-1.1,15.3-1.6c5.3-0.6,10.6-0.9,15.9-1
		c0.3,0,0.5-0.3,0.8-0.4c3.8,0.3,7.5,0.4,11.3,1.2c-2.3-0.1-4.5,0.6-6.8,0.7c-7.4,0-14.8,0.9-22.2,1.9
		C612,530.6,609,530.9,605.9,531.3z"/>
	<path d="M772.9,445.3c-2.1-2.9-4.1-5.8-6.4-8.6c3.8,2.1,7.1,4.7,9.5,8.6c3.7,6,6,12.5,7.4,19.4c1.1,5.5,1,11.1,0.2,16.7
		c-0.9,5.9-2.3,11.7-4.4,17.3c-2.5,6.8-6.8,12.5-10.9,18.3c-2,2.8-4.1,5.4-6.3,8c0.5-2.7,2.2-4.8,3.5-7.1c6-10.5,11.5-21.3,14-33.2
		c1.3-6.5,1.5-13.1,0.1-19.7c-0.9-4.2-1.8-8.3-3.2-12.4C775.5,450.1,774.1,447.7,772.9,445.3z"/>
	<path d="M701.7,430.2c-0.4-2.6,1-4.4,2.5-6.2c3.7-4.3,8.5-7.2,13.2-10.4c13.4-9.3,27.1-18,40.9-26.5c15.2-9.4,30.4-18.7,45.5-28.2
		c6.9-4.3,14.1-8.2,21.4-11.8c3-1.5,6.2-2.5,9.3-3.7c-2.1,2.2-4.9,3-7.4,4.3c-8,4.3-15.6,9.4-23.3,14.2c-13.7,8.6-27.4,17.1-41,25.9
		c-13.2,8.5-26.4,17-39.3,25.8c-6.6,4.5-12.8,9.8-19.1,14.7C703.5,428.9,702.6,429.5,701.7,430.2z"/>
	<path d="M597.2,409.6c1-6.1,2.4-12,4.5-17.7c3.6-10,8.1-19.5,13.7-28.6c4.7-7.8,9.5-15.5,14.4-23.1c3.1-4.7,6.6-9.1,10.3-13.4
		c-0.7,2.7-2.7,4.7-4,7.1c-3.1,5.5-6.4,11-9.5,16.5c-5.4,9.6-10.9,19.2-15.9,29c-4.6,9-8.3,18.5-12.1,27.8
		C598.2,408,598,409,597.2,409.6z"/>
	<path d="M671.5,475.7c-1.3,7.8-0.7,16.5-3.5,24.8c-1,3-2.4,5.9-3.9,8.6c-3,5.4-10,6.4-15.4,2.5c-10.4-7.4-15.6-17.8-17.7-30.1
		c-1.2-7.1,0-14.2,1.2-21.2c0.9-5.1,2.3-10,5-14.6c6-10,20.1-11.9,27.5-0.7c3.1,4.7,4,10,5.2,15.3
		C670.9,465.3,671.2,470.1,671.5,475.7z"/>
	<path d="M428.8,421.6c-2.8,1.5-6,1.9-9,2.6C422.5,422.3,425.6,421.6,428.8,421.6z"/>
	<path d="M414.1,419.5c1.8-1.1,3.6-1.8,5.7-1.5C418.1,419.2,416.2,419.6,414.1,419.5z"/>
	<path class="st6" d="M422.5,437.6c-8,4.7-15.5,9.2-22.9,13.7c-2.5,1.5-4.7,3.6-6.7,5.7c-1.4,1.5-2.4,1-3.2-0.5
		c-1.4-2.6-1-5.4-0.9-8.2c0.4-6.3,5-8,9.9-9.4c5.1-1.5,10.4-2,15.7-2.4C417.1,436.4,419.6,437.3,422.5,437.6z"/>
	<path d="M551.7,436c5.7,2.1,11.3,4.2,17,6.3c-6.1-0.7-11.9-2.6-17.2-5.7C551.6,436.3,551.6,436.1,551.7,436z"/>
	<path d="M567.1,446.8c-5.9-0.8-11.6-2.3-17-4.4c0.1-0.2,0.1-0.4,0.2-0.6C555.8,443.4,561.5,445.1,567.1,446.8z"/>
	<path d="M556.4,433c5.1,1.5,9.8,3.7,14.3,6.3c-0.1,0.2-0.2,0.4-0.3,0.6C565.7,437.6,561.1,435.3,556.4,433z"/>
	<path d="M561.5,429.1c3.5,2.1,7,4.3,10.6,6.4c-4.2-1-7.3-3.7-10.9-5.8C561.3,429.5,561.4,429.3,561.5,429.1z"/>
	<path d="M394.5,480c-0.9-0.6-1.9-1-3.1-1.2c1.5-1.5,2.8-0.2,4.1,0.1c4,3.3,5,7,2.8,11.5C398.6,486.3,397.9,482.7,394.5,480z"/>
	<path d="M403.2,482.6c3.2-2.1,6.3-4.5,10-5.8C410.2,479.4,406.9,481.4,403.2,482.6z"/>
	<path d="M462.9,453.6c-0.4,3.5-0.5,7-2.1,10.2c-1,2.1-2.3,4.4-5,4.4c-2.7,0.1-4.1-2.1-5-4.1c-2.8-6.9-3.1-13.9,0.1-20.9
		c1-2.1,2.2-4.2,4.9-4.2c2.8,0.1,4,2.4,5.1,4.7C462.4,446.8,462.5,450.2,462.9,453.6z"/>
	<path class="st0" d="M665,500.1c-0.9,3.8-3,7.1-5.5,10c-1.4,1.6-3.4,1.4-5.2,0.9c-4.1-1.3-7.2-4.1-10.1-7.2
		c-5.5-6.1-8.4-13.4-10.2-21.3c-1.2-5.2-0.7-10.4-0.2-15.6c0.1-1.3,1.1-1.7,2.3-1.5c4.5,0.9,9,0,13.5,0.9c1.4,0.3,2.8,0,4.2-0.1
		c-5.8-1-11.7-1.6-17.6-1.3c-1.7,0.1-2.2-0.2-1.8-2.2c0.7-4,1.5-8,3.2-11.8c2.2-5,5.4-8.9,11.1-10.1c3.9-0.8,7,0.5,9.8,2.9
		c1.9,1.6,3.8,3.4,4.7,6.2c-4.3-1.8-8-4.5-12.3-6c3.6,2.3,7.2,4.5,10.8,6.7c0.7,0.4,1.4,0.8,1.8,1.6c-0.1,0.6-0.6,1-1,1.3
		c-3.1,2-5,4.9-5.7,8.4c-2.6,12-1.4,23.5,5.4,34c0.5,0.7,1.2,1.4,1.1,2.4c-3.7,2.2-7.7,3.7-11.2,6.2c-0.7,0.5-1.5,0.9-2,1.4
		c4-2.8,8.3-5.2,12.9-7.3C664.3,498.3,664.7,499.1,665,500.1z"/>
	<path class="st13" d="M665,454.2c2.1,8.1,3.8,16.4,3.4,24.9c-0.3,6-0.4,12.2-2.4,18c-1.2,0.2-1.7-0.7-2.3-1.4
		c-3.9-5.4-5.9-11.4-6.6-18c-0.5-5-0.4-9.8,0.7-14.7c0.7-2.9,2.1-5.4,4.1-7.6C662.7,454.4,663.5,453.3,665,454.2z"/>
	<path class="st14" d="M665,454.2c-3.7,1-5.3,4.2-6.1,7.3c-2.7,9.9-1.9,19.7,2.4,29c1.1,2.4,2.3,5,4.7,6.6c0.1,1.1-0.2,2.1-0.9,3.1
		c-0.7-0.5-1.3-1-2-1.5c0,0,0,0,0,0c-1.1-1.8-2.1-3.6-3.2-5.3c-3.1-4.8-3.9-10.3-4.7-15.8c-0.7-4.8-0.5-9.5,0.5-14.2
		c1-4.9,3-9,7.8-11.2C664.7,452.3,664.9,453.2,665,454.2z"/>
	<path class="st16" d="M450.6,453.1c0.6-3.6,0.5-7.4,2.9-10.6c1.6-2.1,3.6-2.2,5.1,0c2.7,4,3.1,8.5,2.7,13c-0.3,2.9-0.7,5.9-2.6,8.5
		c-1.7,2.2-3.6,2.3-5.2,0C451.1,460.8,451.1,456.9,450.6,453.1z"/>
	<path d="M654.5,478.5c-6.6,1.1-13.2,2.2-19.9,3.4C637.1,480,649.6,477.8,654.5,478.5z"/>
	<path d="M637.6,490.6c5.9-1.5,11.7-2.9,18-4.5C653.4,488,640.9,491.3,637.6,490.6z"/>
	<path d="M642.6,446.7c5.4,1.8,10.9,3.7,16.3,5.5C653,451.8,647.6,449.7,642.6,446.7z"/>
	<path d="M663.1,498.5c-4.7,2.8-9.4,5.6-14.1,8.4C653,503,657.5,499.8,663.1,498.5C663.1,498.6,663.1,498.5,663.1,498.5z"/>
	<path d="M656.9,455.6c-5.7,0-11.2-0.8-16.4-3.1C646,453.5,651.5,454.5,656.9,455.6z"/>
	<path d="M635.6,473.4c5.9-0.6,11.8-1.7,17.7-1C647.5,473.3,641.6,473.8,635.6,473.4z"/>
	<path d="M637.2,458.5c6.1,0.7,12.2,1.3,18.2,2C649.2,460.6,643.1,460.1,637.2,458.5z"/>
	<path d="M656.7,493.6c-3.9,3-8.5,4.4-13.3,5C647.8,496.9,652.3,495.2,656.7,493.6z"/>
</g>
</svg>
