<?xml version="1.0" encoding="utf-8"?>
<!-- Generator: Adobe Illustrator 23.0.1, SVG Export Plug-In . SVG Version: 6.00 Build 0)  -->
<svg version="1.1" id="Layer_4" xmlns="http://www.w3.org/2000/svg" xmlns:xlink="http://www.w3.org/1999/xlink" x="0px" y="0px"
	 viewBox="0 0 1000 1000" style="enable-background:new 0 0 1000 1000;" xml:space="preserve">
<style type="text/css">
	.st0{fill:#30373D;}
	.st1{fill:#1E2328;}
	.st2{fill:#21272C;}
	.st3{fill:#4A4F55;}
	.st4{fill:#1F2429;}
	.st5{fill:#7F0000;}
	.st6{fill:#15191D;}
	.st7{fill:#15181C;}
	.st8{fill:#0C0E10;}
	.st9{fill:#2F363C;}
	.st10{fill:#FE0000;}
	.st11{fill:#4E5A87;}
	.st12{fill:#4D5A66;}
	.st13{fill:#FEFEFE;}
	.st14{fill:#070D18;}
	.st15{fill:#0E182B;}
	.st16{fill:#243D6E;}
	.st17{fill:#C90000;}
	.st18{fill:#07070E;}
	.st19{fill:#D8CB2F;}
	.st20{fill:#A3991E;}
	.st21{fill:#292C58;}
	.st22{fill:#04040C;}
	.st23{fill:#301F29;}
	.st24{fill:#736B15;}
	.st25{fill:#4E1463;}
	.st26{fill:#782098;}
</style>
<g>
	<path d="M788,351.3c7.6-1.3,14.8-1.3,22.3-0.3c7.3,1,14.2,2.7,20.7,6c1.8,0.9,3.8,3.2,5.2,2.5c1.6-0.8,3-2.8,4.4-4.4
		c5.6-6.5,11.4-12.8,17.7-18.6c5.9-5.4,12.2-10.6,18.5-15.5c5.8-4.6,11.7-9.2,17.9-13.2c7.6-4.9,15.1-10,23.4-13.6
		c9.4-4,18.6-8.8,28.8-10.7c4.1-0.8,8.3-1.2,12.5-1.8c4.8-0.6,9.4,0,14,0.5c6.5,0.8,10.2,4.6,12.4,10.4c2,5.4,2.8,11,3,16.7
		c0.2,3.4,0.6,6.8,0.3,10.1c-0.6,8.6-1.2,17.1-2.7,25.7c-2,11.2-4.6,22.1-8.4,32.8c-3.8,10.7-8.3,21-13.7,30.9c-2.7,5-7,8.1-12,10.5
		c-12,5.7-25.1,7.3-37.7,10.7c-7.1,1.9-14.2,3.4-21.4,4.8c-6.9,1.4-13.9,2.4-20.8,3.5c-7.6,1.2-15.3,1.9-23.1,2.6
		c-7.4,0.7-14.6,0.4-21.5-1.8c-4.6-1.4-6.5,1.8-9.1,3.6c-7.3,5.3-14.3,11-21.5,16.4c-8.7,6.5-17.4,12.9-26.1,19.4
		c-0.4,0.3-1.1,0.3-1.4,1c14.9,4.3,29.5,9.5,44.2,14.5c15.5,5.3,31.1,10.7,46.5,16.2c12.3,4.4,24.3,9.7,36.4,14.6
		c2.9,1.2,5.8,2.4,8.3,4.4c5.5,4.2,4.5,14.5-1.6,19c-6.1,4.5-12.8,7.3-20.1,8.7c-4.4,0.8-9,0.9-13.5,1.6c-7.5,1.1-15,1.1-22.5,1.9
		c-0.2,0-0.3,0-0.5,0c-5.2-0.3-10.3,0.6-15.5,0.5c-8.1-0.2-16.2,0.4-24.3,0.7c-5.8,0.2-11.7,0.4-17.5,0.3
		c-8.8-0.2-17.7-0.7-26.5-1.5c-5.3-0.5-10.5-0.9-15.8-1.4c-8.3-0.8-16.5-1.5-24.8-2.5c-9.4-1.1-18.7-2.5-28.1-3.9
		c-3.8-0.5-7.5-1.3-11.2-1.9c-1.4-0.2-2.6,0.5-3.5,1.2c-2.6,1.9-5.5,3.5-8.5,4.5c-4.3,1.4-7.5,4.2-10.8,7c-5.4,4.6-11.7,8-17.6,11.8
		c-8.7,5.6-17.7,10.7-26.8,15.8c-6.2,3.5-12.8,6.3-19.2,9.5c-0.3,0.2-0.7,0.4-1,0.6c5,4.6,10.3,9,14.9,13.9
		c8.8,9.5,17.4,19.2,22.6,31.2c2.3,5.3,4.3,10.6,5.5,16.2c0.4,1.6-0.8,1.3-1.3,1.5c-5.3,2.2-10.6,4.3-15.9,6.4
		c-2,0.8-4.2,1.4-6.1,2.4c-4.8,2.5-9.1,0.3-13.5-1.1c-6.8-2.2-13.8-3.7-20.9-4.7c-6.5-0.9-13-1.5-19.5-2c-5-0.4-10.1-0.7-15.1-1
		c-4.9-0.3-9.8-1.1-14.7-0.9c-9,0.4-18,0.6-27,1.5c-9.7,1-19.3,2.4-28.9,4.2c-5.6,1-11.3,1.5-16.8,2.9c-1.8,0.4-2.7-1.7-4-2.7
		c-1.7-1.2-3-3-4.5-4.4c-6.7-6.4-13.3-12.7-20-19.1c-3.5-3.4-7.8-5.6-11.8-8.3c-2.7-1.9-5.6-3.6-8.3-5.4c-1.1-0.7-2.1-1-3.3-1
		c-6.4-0.3-12.8,0.4-19.2,0.7c-4.3,0.2-8.7-0.2-12.9,0.8c-1.8,0.4-3.3,1.4-4.9,2.2c-5.6,3.1-11.1,6.2-17.4,7.6
		c-6.1,1.4-12.2,2.6-18.5,3c-3.9,0.2-7.8,0.8-11.6,0.3c-10.8-1.4-20.9,2.2-31.2,4.1c-9.3,1.7-18.4,4.2-27.6,6.2
		c-9.9,2.2-19.6,5-29.3,8c-6.1,1.9-12.4,3.2-18.3,6c-0.8,0.4-1.1-0.1-1.5-0.3c-4.1-2.4-8.1-4.8-11.9-7.7c-0.8-0.7-0.8-1.5-0.8-2.4
		c0.3-7.3,1.9-14.3,5-20.8c4.1-8.8,8.8-17.2,15.2-24.8c-7.1-3.5-14-7-21-10.3c-8.6-4.1-16.5-9.2-24.3-14.5c-1.5-1-3-1.2-4.6-1.5
		c-8.8-1.7-16.2-5.3-19.8-14.2c-1.1-2.8-1.6-5.8-1.3-8.9c0.1-1.1-0.2-2-1.1-2.7c-9.8-8.3-17.4-18.4-23.2-29.9
		c-1.7-3.4-4.1-6.5-5.9-9.9c-2.2-4.4-3.4-9.3-4-14.2c-0.2-1.5-0.7-2.1-2.3-2.2c-5.4-0.3-10.9-0.1-16.2-0.5c-6.2-0.5-12.5,0-18.7-0.4
		c-14.4-1-28.7,0-43.1-0.6c-6-0.3-12.1,0.1-18.1-1c-3.4-0.6-7,0.1-10.4-1.3c-2-0.8-4.7-1-4.8-3.4c-0.2-2.7,2.8-3.4,4.7-3.9
		c5.9-1.5,12-2.4,18.1-2.6c9.7-0.4,19.4-1.2,29.2-1.5c6.5-0.2,13-0.9,19.5-0.9c7.4,0.1,14.7-0.4,22.1-0.6c4.9-0.2,9.9-0.1,14.8-0.4
		c1.9-0.1,3.8-0.5,5.7-0.5c1.7,0,1.2-1.9,1.3-2.6c0.4-6.1,2.8-11.5,5.4-17c2.6-5.3,3.9-11.2,6.8-16.5c4.9-8.9,10.4-17.3,18-24.1
		c2.2-2,4.7-3.8,7.1-5.6c0.7-0.5,1.1-1.1,1.2-1.8c1-5.9,4.2-10.4,9.3-13.4c1.5-0.9,0.7-1.9,0.4-2.5c-2.9-6.4-3.7-13.2-3.3-20
		c0.4-6.5,0.9-13.1,5.7-18.4c2.9-3.2,6.2-5.2,10.3-6c6.1-1.1,12-0.2,18.1,0.9c5.2,0.9,10.5,1.4,15.7,2.6c9.5,2.1,19,4.5,28.5,6.7
		c0.2,0.1,0.5,0.1,0.7,0.1c2.1-0.1,4.3,2.1,6.2,0.7c1.7-1.2,2.8-3.4,4.2-5.1c1.1-1.3,2.2-2.6,3.4-3.7c3.6-3.4,6.6-7.2,10.3-10.5
		c6.2-5.4,12.7-10.2,19.8-14.3c8.2-4.7,16.8-8.4,25.8-11.2c7.6-2.3,15.3-4.1,23.2-5.3c7.7-1.2,15.4-2,23.2-2.9
		c3.9-0.4,7.7-0.9,11.6-1.5c3.1-0.5,5.3-3,8.1-4.2c4-1.7,8.2-2.4,12.5-3.2c4.7-0.8,9.2,0,13.7,1.1c2.3,0.5,4.4,1.7,6.3,3.1
		c1.2,0.9,2.4,1.3,3.9,1.4c8.1,0.2,16.2,1.1,24.3,1.5c5.9,0.3,11.7,1.1,17.6,1.9c6,0.8,12.1,1.5,18.1,2.8c1.2,0.3,2.4,0,3.5,0.6
		c0.3,0.1,1,0,1.1-0.2c2.1-4,6.2-3.9,9.7-4.5c5.6-0.9,11.3-1.2,17.1-1.1c14.2,0.2,27,4.3,38.3,13c1.6,1.3,3.2,2.9,4.1,4.7
		c0.8,1.5,1.9,2,3.1,2.3c12.4,2.9,24.7,6.3,37,9.2c11.4,2.6,22.8,5.5,34.2,7.9c4.3,0.9,8.7,1.6,13,2.5c0.7,0.1,1.1-0.1,1.4-0.8
		c4.4-8.3,9.9-15.9,15.6-23.3c4.3-5.6,8.8-11.1,13.7-16.4c4.1-4.4,7.8-9.1,12.2-13.1c8-7.3,16-14.7,24.6-21.4
		c6-4.6,11.7-9.4,18.7-12.4c8.2-3.6,16.6-6.7,25.4-8.3c9.4-1.7,18.9-3.6,28.5-2.9c6.3,0.4,12.7,0.6,17.8,5.3c2,1.9,2.8,4.3,3.9,6.6
		c1.9,3.8,1.5,8.1,1.9,12.1c0.6,5.4-0.1,10.9-0.5,16.2c-0.7,7.7-2,15.4-3.2,23.1c-1.6,9.9-4.9,19.3-7.7,28.9
		C788.5,349.5,789,350.5,788,351.3z"/>
	<path class="st0" d="M620.6,407.7c-4.2-0.6-8.2-2.3-12.3-3.4c-9.7-2.8-19.6-5.2-29.7-6.3c-6.5-0.7-13-1.3-19.6-1.1
		c-1.1,0-2.2,0.3-3.3,0.5c-1.3-1.4-2.3-3-3.9-4.1c-2.4-3.2-5.4-4.9-9-3.6c1.4-0.3,3.2-0.4,5,0.5c0.8,0.4,1.7,0.7,1.7,1.8
		c-1.6,1.1-3.8,1.2-5.3,2.6c-0.9,0.3-1.7-0.1-2.8-0.6c0.9,0.7,1.8,0.9,2.4,1.6c0.5,1.1,2.3,0.9,2.5,2.3c-1.9,1.1-4.1,0.7-6.2,0.9
		c-11.2,1.2-22.4,2.7-33.3,5.7c-1.1,0.3-2.2,0.3-3.3-0.1c-6.4-2.3-12.2-0.7-17.5,3.3c-4,3-7.3,6.6-10.6,10.3
		c-2.1,1.5-4.7,1.7-7.1,2.4c-6.6,1.8-13.2,3.4-19.8,5.4c-8.1,2.5-16.1,5.1-23,10.2c-5.3,3.9-9.8,8.4-13.3,14.1
		c-2.6,4.2-5.2,8.4-9.3,11.5c-1.4,0.1-1.6-1.2-2.1-2c-2.8-4.6-5.7-9.3-8.8-13.7c-2.1-3-4.2-5.9-5.7-7.4c5.2,6,9.6,14.2,14.4,22.2
		c0.5,0.8,0.7,1.7,0.1,2.5c-5.1,4-11,6.3-17.2,7.7c-7.4,1.7-15,1.7-22.5,2.1c-6.7,0.3-13.3,1.1-19.9,1.6c-8.4,0.7-16.8,1.5-25.2,2.3
		c-7.4,0.7-14.9,1.2-22.3,2c-1.4,0.1-2-0.8-2.6-1.8c-5.5-9.3-11.7-18.1-18.9-26.2c-4.9-5.4-9.8-10.6-15.4-15.2
		c-4.4-3.5-9-6.7-13.9-9.5c3.1,2.5,6.1,5.1,9,7.8c5.1,4.7,10.5,9.2,15.4,14.2c8.2,8.4,15.7,17.3,21.5,27.6c0.5,0.9,1.6,1.8,0.7,3.1
		c-3.8,1.4-7.8,1.2-11.8,1.8c-7,1-14.1,1.4-21.1,1.9c-4.4,0.3-8.1-1.5-11.2-4.6c-1.7-1.7-3.2-3.7-4.2-5.9
		c-5.6-11.9-12.3-23.1-19.4-34.1c-3-4.6-6.2-9-9.9-13c-1.9-2-3.5-4.3-5.3-6.4c-3.6-2.8-7-6-11-8.3c-1.7-1-3.5-1.7-5.4-2.6
		c8.8-4.1,17.8-7.1,26.8-10.1c0.3-0.1,0.6-0.2,0.9-0.3c1.4-0.5,2.9-1.5,4.3-1.4c1.6,0.1,1.5,2.3,2.4,3.4c2.2,2.4,5.1,3.7,7.7,5.4
		c0.7,0.4,1.4,0.8,2.1,1.3c11.2,6.8,23.5,10.2,36.2,12.4c6.3,1.1,12.4,2.6,18.8,3.2c6.6,0.6,13.3,1.2,19.9,1.8
		c10.4,1,20.8,1.3,31.1,1.8c10.6,0.5,20.9-1,31.1-3.9c9.6-2.8,18.8-6.6,27.2-12c9.5-6,18.7-12.4,25.4-21.8c4.7-6.7,7.1-14.1,8-22.2
		c0.7-6.4,0.4-12.7-0.6-18.9c-1.3-8.7-5-16.3-10.7-22.9c-1.1-1.3-2.7-2.4-2.8-4.4c6.7,0.6,13.5,1.5,20.2,1.8
		c6.4,0.3,12.7,1.1,19,2.1c7.5,1.1,15.1,1.4,22.3,3.9c11.1,7.2,22.8,13.2,35.2,17.6c2.5,0.9,5,2.1,7.8,1c0.6-0.3,1.6-0.3,1.9,0.6
		c0.3,0.9-0.5,1.4-1.2,1.9c-0.6,0.3-1.2,0.5-2-0.2c0.3,0.6,0.8,0.6,1.1,0.8c2.1,1.2,4.5,1.4,6.6,0.5c4.4-1.8,9-2.5,13.7-2.8
		c5.7-0.4,11.3-1.4,16.7-3.2c0.5-0.2,1.1-0.1,1.7-0.2c6.8,1.6,13.6,3.3,20.4,4.9c12.3,2.9,24.6,6,37,8.5c11.6,2.3,23.2,4.8,35,6.1
		c7.8,0.9,15.4,2.4,23.2,3.2c2.7,0.3,5.5,0.6,8.2,0.6c10.1,0.2,20.2,1.2,30.4,0.9c8.3-0.2,16.7-0.4,25-1c12-0.8,23.7-3.7,35.3-7
		c7.9-2.3,15.9-4.5,24.2-4.6c11.9-0.1,23.1,2.6,33.2,9.6c-4.6,6.3-7.9,13.6-11.5,20.6c-1.5,1.4-3.3,2.4-5.1,3.3
		c-7.5,3.9-15.5,6.7-23.4,9.7c-8.6,3.2-17.6,4.7-26.4,6.9c-0.5,0.1-1,0.2-1.4,0.1c-0.9-0.2-1.2-1-1.6-1.7c-2.1-4.2-4.2-8.4-6.3-11.2
		c2.1,2.5,3.5,6.6,5.1,10.6c0.4,1,0.9,2.2-0.6,2.9c-6,1.8-12.2,2.1-18.3,2.5c-13.4,1-26.7,1.8-40.2,2.1c-9.3,0.2-18.5,0.5-27.8,0.2
		c-12-0.3-24-0.4-36.1-1C633,409,626.7,409.4,620.6,407.7z"/>
	<path class="st1" d="M402.8,461.4c5.6-5.4,8.8-12.6,13.9-18.4c4.7-5.4,10.4-9.7,16.9-12.5c13.5-5.9,27.8-9,42-12.6
		c-1.8,2.6-3.9,4.9-5.1,7.9c-1.1,2.7-3.2,3.2-5.8,3.4c-6.4,0.5-12.2,2.7-17.8,5.8c6.5-1,13-1.9,19.9-2.9c-0.9,2-1.6,3.7-2.4,5.5
		c-1.5,1.3-3.5,1.3-5.3,1.6c-6.1,0.9-11.9,2.7-17.3,5.5c-1.3,0.7-2.5,1.5-3.6,2.4c-2.3,1.9-2.4,4.7-0.3,6.8c1.2,1.2,2.6,1.9,4.2,2.4
		c4.8,1.4,9.6,2.9,14.6,3.9c1,0.2,2.1,0.4,2.9,1.2c-0.3,4.8,0,9.7-1.5,14.4c-0.6,1.9,0.1,3.9-0.9,5.7c-0.6,0.6-1.4,0.4-2.1,0.3
		c-7.9-1.4-15.8-2.9-23-6.7c-4.7-2.5-7.2-6.3-8.2-11.4c-0.7-3.8-0.7-7.6-0.5-11.4c2.5-7.1,6.4-13,12.6-14.8
		c-3.8,0.4-10,4.9-12.7,10.1c-2.9,5.7-4.3,11.9-5,18.2c-0.5,4.5-1.3,9-1,13.6c0.2,4.6,0.6,9.2,1.2,13.8c0.5,3.8,2.3,7.1,4,10.4
		c2.8,6.6,4.1,13.7,7.8,19.9c3.9,6.7,9.2,11.9,16.3,15.2c2.5,1.2,4.9,2.5,7.3,3.9c4.8,3,6,5.8,4.6,11.2c-0.2,0.9-0.5,1.9-0.9,2.8
		l0,0c-2.3,5.1-4.7,10.2-8.7,14.3c-4,4.1-8.9,6.7-14.2,8.8c-5.3,2.1-10.8,3.6-16.3,5c-10.2,2.6-20.5,5.1-30,10.1
		c-1.1,0.6-2.4,0.9-3.6,1.4c-4.2,1.7-8.2,3.7-11.4,7.1c-3.2,3.5-2.9,6.7,1.3,9c2,1.1,4,2.2,6.1,3c1.6,0.6,1.5,1.3,0.6,2.4
		c-3.6,4.5-7.8,8.5-12.7,11.5c-7,4.2-14.3,8-22.4,9.6c-1.8,0.4-3.7,0.6-5.5,0.8c-14-0.9-27.7-3.7-40.8-8.9c-5-2-9.8-4.3-14.7-6.6
		c-0.9-0.4-2.1-0.7-2.2-2c7.9-5,16.4-8.9,24.7-13.1c12.2-6.3,23.8-13.5,34.5-22c5.8-4.6,10.4-10.4,15.2-16
		c8.6-9.8,16-20.5,23.9-30.9c4.7-6.3,9-12.8,13.9-19c2.4-3,4.6-6.1,6.9-9.1c0.5-0.7,1.4-1.6,1.1-2.3c-0.4-0.9-1.6-0.7-2.5-0.9
		c-7-1.3-13.9,0.1-20.7,1.1c-8.8,1.3-17.5,2.9-26.1,5.3c-13.3,3.7-26.3,7.9-39,13.5c-16.1,7.1-31,16.3-45.8,25.6
		c-13.8,8.7-27.8,17.1-42.7,23.8c-7.1,3.2-14.1,6.5-21.8,8.1c-0.9,0.2-1.8,0.3-2.6,0.3c-4.7,0.6-9.4-0.3-14.2-0.4
		c-0.5,0-1.1-0.2-1.5-0.7c8.3-3.5,15.6-8.6,21.5-15.4c8.2-9.4,14.9-19.9,17.4-32.4c1.3-6.8,2.5-13.6,2.7-20.6
		c0.3-7.1,1.1-14.2,0.8-21.3c-0.3-7.8-1-15.6-1.8-23.4c-0.9-9-3.3-17.6-6-26.1c-3-9.6-7.6-18.4-13.9-26.2c-0.4-0.5-0.7-0.9-0.7-1.5
		c4.2,4.2,8.4,8.5,11.8,13.4c9,12.8,16.8,26.3,23.7,40.4c2.5,5.1,6.4,8.6,12.2,9.4c3.2,0.4,6.5-0.2,9.7-0.4
		c3.9-0.3,7.9-0.5,11.8-1.2c4.6-0.8,9.3-1.1,13.9-1.6c1.1-0.1,1.4,0.7,1.8,1.4c4.8,8.9,9.8,17.7,12.8,27.5
		c-0.9-3.7-7.7-20.6-9.5-23.8c-0.8-1.6-2.4-2.9-1.7-5c3.2-1.5,6.6-1.1,10-1.4c9-0.9,18-1.5,27-2.5c4.7-0.5,9.4-0.5,14-1.1
		c7.5-0.9,15.1-1.4,22.7-1.8c6.1-0.3,12.3-0.6,18.3-2c5.8-1.4,11.2-3.8,16-7.4c1.6,0.2,1.7,1.6,2.1,2.7c4.9,11,7.4,22.7,10.3,34.3
		c2.5,10,4,20.1,3.8,30.4c-0.3,16.7-4.2,32.6-11.2,46.6c6.4-11.5,10.3-24.8,12-39c1.6-12.9-0.8-25.3-3.6-37.6
		c-1.9-8.7-4.5-17.3-7.1-25.9c-1-3.4-2.8-6.6-4.1-9.9C402.8,463.1,402.2,462.4,402.8,461.4z"/>
	<path class="st2" d="M535.7,492.7c0.1-13.3-1.9-26.4-4.3-39.4c-2-11.1-6.9-20.9-12.2-30.6c-3-5.4-6.6-10.3-10.8-15.2
		c4.4-1.5,8.7-2.4,13.1-3.1c6.7-1.1,13.4-2.1,20.1-2.9c4.5-0.5,9-0.7,13.5-1.1c3-0.3,6-0.7,9-0.5c8.1,0.6,16.3,1.1,24.3,2.7
		c18,3.6,35.3,9.5,52.3,16.1c9.4,3.7,18.5,8.3,26.8,14.3c6.8,4.9,12.9,10.4,18.7,16.5c4.4,4.8,8.4,9.8,12.4,15
		c0.3,0.5,0.7,0.9,0.7,1.7c-2.2,0.2-4.4,0.5-6.6,0.5c-6.3-0.1-12.6,0.5-19,0.7c-9.5,0.3-19.1,0.9-28.6,1.4
		c-6.2,0.4-12.4,0.7-18.6,1.5c-14.1,1.7-28.2,3.3-41.3,9.7c-4.2,2.1-8.3,4.1-11.8,7.1c-3.8,3.2-5.8,7.8-7.2,12.5
		c-1.2,3.6-1.8,7.4-1.8,11.2c-0.7,7-1.5,14-3.3,20.9c-1.2,4.6-2.7,9.2-5.6,13.2c-0.9,1.2-2,2.1-3.2,2.9c-5.4,3.6-10,0.4-11.7-3.8
		c-1.5-3.7-2.3-7.6-2.7-11.6c-1.1-12.8-2.3-25.6-2-38.4C535.9,493.4,535.9,493,535.7,492.7z"/>
	<path class="st0" d="M714.9,470.7c6.9,1.2,13.7,3,20.4,4.8c12.5,3.4,25.1,6.7,37.5,10.4c10.1,3,20.1,6.4,30.1,9.9
		c2.4,0.8,5,1.2,7.1,2.8c-0.9,0.9-2.1,0.8-3.2,0.6c-1.9-0.3-3.8-0.4-5.7-0.3c-10-1-20-0.4-29.9,0.5c-4.3,0.4-8.6,1.4-13.2,2.9
		c10.2,3,19.9,5.8,29.8,8.4c17.9,4.7,35.2,11,52.6,17.3c9.1,3.3,17.8,7.5,26.7,11.2c1.6,0.7,3.2,1.5,4.7,2.4
		c0.6,0.4,1.9,0.6,0.9,1.8c-2.9,0.7-5.9,0.6-8.7,0.2c-5.3-0.6-10.6-0.4-15.8-0.7c-7.9-0.5-15.7-1.3-23.6-1.9
		c-8.5-0.6-17-1.5-25.5-2.1c-8.6-0.7-17.1-2.1-25.7-3.1c-38.4-4.7-75.7-14.3-113.1-23.8c-8.9-2.2-17.8-4.5-26.8-6.7
		c-1.2-0.3-2.4-0.5-3.5-1.2c-3.5-1.9-7.4-3-11-4.5c-3.9-1.6-7.8-3.4-11.2-5.8c-1.9-1.3-3.7-2.9-3.2-5.6c0.5-2.6,2.7-3.2,4.8-3.9
		c8-2.5,16.3-3.2,24.5-4.4c12.5-1.9,25-3.9,37.7-5.2c11.4-1.1,22.8-2.5,34.2-3.7C708.8,470.7,711.8,470.3,714.9,470.7z"/>
	<path class="st1" d="M873,542.9c-2-1.1-3.9-2.2-5.9-3.3c-18.1-8.6-36.5-16.5-55.7-22.6c-12.3-3.9-24.6-7.8-37.1-11.4
		c-1.1-0.3-2.9-0.2-2.8-1.7c0.1-1.4,1.9-1.2,3.1-1.4c8-1.6,16-2.9,24.1-4c0.7-0.1,1.5,0,2.1-0.5c3.1-0.3,6.2,0.7,9.3,0.5
		c5.6,1.3,10.9,3.6,16.4,5.4c17.5,5.8,34.8,12.2,51.9,19.2c6,2.4,12,4.9,18,7.4c2,0.8,3.7,2,5.3,3.3c2.7,2.3,2.6,5.7-0.1,8.7
		c-2.2,2.5-5.1,3.9-8,5.3c-6.6,2.8-13.6,3-20.5,3.6c-12.5,1.1-25,1-37.5,1.7c-11.4,0.6-22.7-0.2-34.1-0.3
		c-10.1-0.1-20.1-0.7-30.1-1.9c-6.9-0.8-13.8-2.1-20.8-3c-19.1-2.7-38.1-6-57-9.9c-14.4-3-28.5-7.3-42.8-10.9
		c-16.2-4.1-32-9.3-48-14.1c-7.3-2.2-14.3-5.4-21.2-8.6c-3.3-1.6-6.3-3.7-8.4-6.9c-0.6-0.9-1.3-1.7-1-2.9c1.2-4.2,4.7-6,8-8.1
		c7.1-4.4,14.9-7.7,23-9.5c6.7-1.6,13.6-2.8,20.5-3.4c6.6-0.6,13.2-1,19.8-1.5c9-0.7,18.1-1.2,27.1-1.5c7.7-0.3,15.4-0.4,23-1
		c6.9-0.6,13.6,0.2,20.3,0.7c0.3,0,0.6,0.3,0.8,0.4c-7,0.8-13.9,1.6-20.9,2.4c-5,0.5-10,1-14.9,1.6c-8.7,0.9-17.5,1.7-26.2,3.1
		c-7.2,1.2-14.5,2.1-21.8,3.2c-7.5,1.1-15.1,1.9-22.3,4.2c-1.7,0.5-3.4,1.2-3.6,3.2c-0.2,1.8,0.9,3.1,2.3,4.2
		c5.2,4,11.3,5.9,17.2,8.4c1.9,0.8,4.1,1.1,5.8,2.5c-0.8,0.7-1.7,0.5-2.5,0.3c-9.4-2.3-18.7-4.7-28-7.3c7.3,2,14.6,3.9,21.9,5.9
		c16.7,4.6,33.3,9.6,50,14.1c24,6.5,48.3,11.9,72.8,16.5c13.4,2.5,27,3.9,40.6,5.8c11.6,1.7,23.3,2,35,3c18.1,1.6,36.2,1.9,54.3,1.9
		c2.3,0,4.6,0,6.6-0.1C878.6,543.2,875.7,544.6,873,542.9z"/>
	<path class="st1" d="M773,354.5c-1,0.6-1.9,0.6-3,0.3c-6.1-1.8-11.7-4.6-17-8c-1.9-3.5-1.9-7.5-2.5-11.3c-0.7-4.3-0.6-8.6-0.1-12.9
		c0.5-4.1-0.2-8.3-1.1-12.3c-0.8-3.5-4.2-5.6-7.8-5c-3.6,0.7-6.3,2.8-8.8,5.4c-8.3,8.9-15.6,18.5-22.9,28.2
		c-6.9,9.2-16,15.8-25.8,21.6c-1,0.6-2.2,0.5-3.2,0.9c-5.6-0.7-11.1-1.3-16.7-2c-4.4-0.6-8.7-1.2-13.1-1.9c-0.2-1,0.5-1.7,1.1-2.4
		c6.6-9,12.9-18.2,20.5-26.4c7.1-7.6,14.2-15.2,21.9-22.3c7-6.4,14.3-12.5,21.6-18.6c10.6-8.8,22.9-13.5,36.1-16.3
		c5.3-1.2,10.6-2.4,16-3.2c3.8-0.6,7.5-0.3,11.1,0.9c3.5,1.2,5.8,3.6,7.2,6.8c2.5,5.9,2.9,12.1,1.7,18.4c-0.1,0.3-0.3,0.6-0.5,0.8
		c-2.9,1-6.1,0.7-8.9,1.4c2.9-0.5,5.9-1,9.1-0.9c0.8,1.3,0.3,2.6,0,3.8c-1.9,9.4-3.2,18.9-6.1,28.1c-0.3,0.9-0.5,1.9-1.3,2.6
		c-4.9,1.4-10,1.4-14.8,2c4.6-0.3,9.3-1.1,14.1-1.5c1,0.9,0.5,2,0.2,2.9c-1.9,6.1-3.6,12.3-5.4,18.4
		C774.1,353.1,773.7,353.9,773,354.5z"/>
	<path class="st1" d="M947.8,416c-6,3.2-12.7,4.1-19.2,5.8c-10.6,2.7-21.3,5.4-32.1,7.6c-9.9,2-19.8,4-29.8,5.3
		c-6.2,0.8-12.3,1.9-18.5,1.9c-4-0.2-7.9-1.2-11.5-2.9c-5.7-2.7-8.1-7.7-8.6-13.8c-0.3-3.5,0.1-7,0.7-10.4
		c1.8-10.4,5.7-20,10.8-29.1c4.6-8.2,10.6-15.3,16.9-22.2c13.7-15.1,29.4-27.6,45.9-39.2c7.9-5.6,16.5-10.5,25.4-14.5
		c8.2-3.7,16.6-6.5,25.3-8.7c2.1-0.5,4.3-0.8,6.5-1.1c1-0.2,2-0.3,2.7,0.7c0.9,4,0,7.9-0.3,11.9c-0.5,8.5-1.8,17-3.3,25.4
		c-0.5,2.9-1.1,5.7-1.8,8.6c-0.6,2.4-1.2,2.7-3.4,1.7c-1.5-0.6-3-0.6-4.5-0.4c-5.6,0.8-11,2.2-16.4,3.5c-0.6,0.1-1.1,0.5-1.7,0.6
		c-2.1,0.3-3.8,1.6-5.7,2.5c-0.8,0.4-1.5,0.9-2.5,0.9c-1.4-0.8-2.2-2.1-3.2-3.3c-8.4-9.9-21.8-9.8-30.3,0c-2.8,3.2-4.4,7-6.6,10.5
		c-0.8,0.3-1.2-0.2-1.6-0.7c-0.6-0.7-1-1.4-1.5-2.2c-2.4-3.8-2.4-3.8-5.8-0.6c-0.9,0.9-1.8,1.9-2.9,2.6c-1.7,1.1-1.5,2.2-0.3,3.5
		c3,3.4,5.8,7,8.6,10.5c0.7,0.8,1.3,1.6,1.5,2.7c0.3,1.6,0.8,3.2,0.2,4.9c-0.5,1.1-1.5,1.9-2.4,2.8c-5.5,5.5-10.9,11.2-15.8,17.3
		c-3.6,4.6-6.6,9.5-8.4,15c-1.7,5-0.5,8.9,3.9,11.9c5,3.5,10.7,4.4,16.5,3.7c16.5-2,32.3-6.5,47.7-12.6c2.2-0.9,3.9-2.6,6.3-3
		c1,0.6,1.3-0.4,1.7-0.9c0.4-0.4,0.8-0.8,1.3-1.2c4.1-3,8.3-5.9,11-10.4c0.4-0.6,0.9-1.2,1.6-1.4c4.2-0.1,8.2-1.5,12.4-1.8
		c0.9,0.6,0.8,1.4,0.5,2.1C954.7,405.3,951.9,411,947.8,416z"/>
	<path class="st3" d="M626.5,644.5c2.3,3.4,3.6,7.2,5,11c0.4,1.1,0.1,1.3-0.9,1.1c-6.8-1.5-13.6-3-20.6-3.9c-5-0.7-10-1.5-15.1-1.8
		c-11.5-0.8-23.1-1-34.6-1.6c-9.8-0.5-19.6-0.4-29.4-0.2c-8.9,0.2-17.9,1-26.8,1.9c-7.7,0.8-15.5,1.8-23.1,3.3
		c-3.5,0.7-7.2,1-10.7,1.6c-1.5,0.2-2.4-0.6-3.4-1.5c-2.7-2.4-5.2-4.9-7.6-7.5c-6.9-7.4-13.8-14.7-19.6-23c-1.8-2.5-3.4-5.2-3.9-8.3
		c-1-5.7,2.1-8.9,7.7-8c7.4,1.1,13.9,4.3,20.3,8.1c12.9,7.7,24.9,16.6,35.8,26.9c0.5,0.4,1,0.9,1.5,1.2c1,0.7,1.8,1.7,2.5,2.6
		c-3.5-3.8-5.4-8.6-8.9-12.4c-3.3-4.6-6.7-9.2-10.6-13.4c-1.3-1.4-2.3-2.9-3.1-4.7c-1-2.3-0.5-4.1,1.7-5.4c1.9-1.2,4-1.2,6.1-0.8
		c6.3,1.2,12.3,3.2,18,6c8.6,4.3,17.3,8.3,25.3,13.7c5.9,4,11.3,8.6,17,12.7c-0.8-2.8-2.7-4.9-4.1-7.3c-1.1-2.2-2.6-4.1-3.8-6.3
		c-1.8-3.1-3.3-6.4-0.9-9.8c2.3-3.2,6-4,9.6-3.4c6,1.1,11.8,3.1,16.9,6.6c8.2,5.6,15.6,12.2,22.9,18.9c0.9,0.8,1.9,1.5,2.8,2.3
		c0.4,0.3,0.5,0.8,0.9,1c-1-1.5-1.2-3.4-2-5.1c-2.2-5-4.6-9.9-5.7-15.3c-0.3-1.4-0.4-2.7,0-4.1c0.8-3.4,3.3-5,6.7-4.3
		c5.2,0.9,9.4,3.8,13.5,6.9c7.1,5.4,12.5,12.5,18.5,19C625.1,642.3,625.6,643.5,626.5,644.5z"/>
	<path class="st4" d="M592.3,643.6c-4.3-3-8-6.8-11.9-10.3c-6.3-5.5-12.6-10.9-20.3-14.3c-3.9-1.7-8-3.3-12.3-3.2
		c-4.2,0-7.4,2.3-8,5.7c-0.5,2.7,0.9,5,2.3,7.2c1.2,2,2.8,3.8,3.4,6.1c-1,0.3-1.5-0.5-2.1-1c-9.8-9.6-20.8-17.7-31.9-25.6
		c-0.3-0.2-0.2,0.3-0.1,0c0-0.1,0.1,0,0.2,0.1c9.4,6.4,17.6,14.4,26.2,21.8c3.7,3.1,7.1,6.5,10.1,10.2c0.6,0.7,1.6,1.2,1.3,2.4
		c-3.4-1.7-6.2-4.3-9.1-6.7c-5.2-4.2-10.7-7.9-16.5-11.1c-8.3-4.5-16.7-9.1-25.7-12.2c-3.2-1.1-6.5-1.8-9.8-2.6
		c-0.9-0.2-2-0.2-2.9-0.1c-3.7,0.4-5.1,3.1-3.4,6.4c1.6,3.1,4.2,5.3,6.3,8c2.5,3.1,4.9,6.2,6.9,9.6c-1,0.3-1.5-0.4-2.1-1
		c-9.9-10.2-21.8-17.7-33.7-25.1c-3.7-2.3-7.8-3.9-11.5-6.2c-0.3-0.1-0.1,0.5-0.1,0.2c0-0.1,0.1-0.1,0.2,0
		c12.3,6.7,24.1,14.2,34.9,23.1c6.3,5.2,12.1,10.9,17.1,17.3c0.5,0.6,1.3,1.1,0.9,2.1c-2.7-1-4.2-3.5-6.3-5.2
		c-6.7-5.6-13.5-11.1-20.7-16c-4.6-3.1-9.3-6.2-14.2-8.9c-5.2-2.9-10.8-5.2-16.8-6c-5-0.7-7.4,1.7-6.7,7.3c0.7,5.1,4.2,8.6,7.1,12.5
		c6.2,8.4,13.6,15.7,20.7,23.2c1,1,1.8,2.3,2.7,3.4c-2.4-0.7-3.8-2.8-5.4-4.3c-9.5-8.8-19.4-17.1-29.8-24.8
		c-12.9-9.4-25.9-18.7-40.2-25.9c-0.3-0.2-0.8-0.3-0.9-1c7.4-1.1,14.7-3.1,22.3-3.6c8.6-0.6,17.2-1.8,25.8-2c4-0.1,8.1-0.1,12.1-0.4
		c17.4-1,34.8-0.5,52.2-0.4c7.9,0.1,15.8-0.1,23.6,0.5c8.7,0.6,17.4,1,26.1,1.8c8,0.8,16.1,1.2,24,3c3.5,0.8,6.7,2.3,9.8,4.2
		c5.2,3.3,9.7,7.5,14.2,11.7c6.9,6.2,13,13.1,18.7,20.4c2.7,3.4,5.8,6.8,7.1,11.2c-2.8-3.1-5.9-6-8.4-9.3c-4-5.1-8.8-9.4-13.9-13.4
		c-3.3-2.7-6.9-4.5-11.1-5.7c-5.6-1.6-7.8,2.8-7,7.1c1,5,3.1,9.6,5.2,14.3c0.2,0.5,0.4,1.1,0.6,1.6c-1.2,0.2-1.6-0.8-2-1.5
		c-5.5-9.1-13.8-15.3-22.1-21.5c-2.1-1.6-4.2-3.3-6.9-5.1c5.6,4.2,10.7,8.1,15.5,12.4c6,5.4,11.3,11.4,15.7,18.2
		C592.4,642.3,592.8,642.9,592.3,643.6z"/>
	<path class="st5" d="M240.1,598.6c-5.3-4.2-9.8-9.1-13.7-15.4c14.8,4.7,29.2,8.7,44.9,9.6c-6.6-8.3-13.2-15.8-16-25.8
		c1.2-0.6,2.2,0.1,3.2,0.6c8.4,4.3,17,7.8,26.1,10.1c3.9,0.9,7.7,2.2,12.2,1.6c-6.7-8.5-14.9-16.1-15-28.1c3.4,2.1,6.6,4.2,10,5.7
		c7,3.3,14.4,4.7,22.1,4.5c2.1-0.1,1.5-1.1,1-2.2c-2.9-5.3-5.3-10.9-6.5-16.9c-0.3-1.8-0.5-3.6-0.8-5.7c2.5,1.1,4.7,1.9,6.8,3
		c6.2,3.2,12.8,4.7,19.5,6c0.8,0.2,1.7,0.4,2.3-0.3c0.5-0.7-0.1-1.4-0.4-2.1c-1.2-3-2.9-5.8-4.1-8.8c-0.8-2-1.1-4-1.6-6.1
		c-0.2-0.7-0.4-1.6,0.3-2c0.6-0.4,1.2,0.3,1.7,0.6c6.4,3.5,13.2,5.9,20.4,7.2c2.4,0.4,4.8,0.5,7.2,0.7c1.3,0.1,1.5-0.3,1.1-1.5
		c-1.1-3.4-2.5-6.8-3.1-10.4c-0.2-1.1-0.4-2.2-0.7-3.3c-0.2-0.8-0.5-1.6,0.3-2.2c0.8-0.6,1.7-0.7,2.7-0.2c4,2,8,3.9,11.9,6
		c1.3,0.7,2,0.7,2.6-0.8c0.9-2.4,2-4.7,3.1-7.1c1.2-2.8,3-3.6,5.8-2.2c1.7,0.8,3.2,1.8,4.9,2.7c0.6,0.3,1.3,0.5,1.5-0.4
		c0.7-5.3,4.5-4.5,8.4-4.2c-1.6,3.1-3.7,5.8-6.2,7.9c-1.3,1.1-3.9,0.5-5.9,0c-0.3-0.1-0.6-0.2-0.9-0.2c-4.5-0.5-4.6-0.4-3.2,3.9
		c0.7,2.1,1.2,4.2,1.8,6.3c0.5,2-0.3,3-2.3,3c-3.3,0-6.6,0.1-9.9,0.9c-1.2,0.3-1.7,0.6-1.3,1.9c1,3.3,1.5,6.7,2.2,10.1
		c0.2,1.3-0.1,1.9-1.5,1.7c-3.9-0.4-7.9-0.6-11.8-1.2c-1.8-0.3-3.6-0.2-5.3-0.3c-1.2-0.1-1.3,0.4-0.9,1.4c2,5,3.9,10.1,5.9,15.1
		c0.3,0.9,0.7,1.6-0.1,2.4c-0.7,0.6-1.2,0.9-2.3,0.7c-6.7-1-13.2-3-20.1-2.6c-0.3,0-0.6,0-1.4,0.1c3.3,6.1,7.6,11.6,8.5,18.7
		c-8.4-1-16.8-2.1-25.1-3.5c-0.5-0.1-1-0.2-1.5-0.1c-1.1,0.2-2.6-1.2-3.2-0.2c-0.6,1.1,0.7,2.3,1.3,3.4c2.6,5.2,5.3,10.3,8.1,15.8
		c-13.5-2.3-26.7-4.6-40.6-6.4c5.5,6.6,10.6,13,17.4,18.4c-4.3-0.3-8.1-0.4-11.9-0.9c-5.8-0.8-11.7-1.2-17.4-2.4
		c-3.9-0.8-7.8-1.4-11.6-2.1c-0.5-0.1-1.1-0.6-1.5,0.1c-0.4,0.6,0.1,1.1,0.3,1.6c0.6,1.3,1.2,2.6,1.9,3.9c-1.1,0.6-1.9-0.1-2.7-0.6
		C251.4,605.1,245.6,602.1,240.1,598.6z"/>
	<path class="st6" d="M535.7,492.7c0.7,0.7,0.5,1.5,0.5,2.3c-0.1,9.2,1.1,18.3,1.6,27.4c0.4,6.9,0.8,13.9,3.2,20.5
		c1.1,3,3,5.3,6,5.7c2.9,0.4,5.6-1.2,7.5-3.6c4.3-5.4,5.7-11.9,7.1-18.4c1-4.9,1.6-9.9,2.5-14.8c0.1-0.4,0.3-0.7,0.5-1.1
		c0,4.6,1,9,4.9,11.8c3.1,2.2,6.8,3.4,10.4,4.7c13,4.6,26.5,7.3,40,9.8c9.6,1.8,19.2,3.8,28.8,5.6c6.1,1.1,12.2,2.1,18.4,3.2
		c0.7,0.1,1.4,0.3,2.1,0.5c0.1,1.4-1,1.8-1.9,2.2c-10.1,5-20.3,9.4-31.4,11.8c-10.9,2.4-21.9,4.3-32.9,5.5
		c-7.1,0.8-14.2,1.1-21.4,1.7c-14.3,1.2-28.7,1.4-43.1,1.5c-2,0-4,0.2-6-0.3c-6.3,0-12.4-1.8-19.1-2.6c8-3.9,10.2-11.3,13.1-18.2
		c2.9-7,5.5-14.2,6.7-21.7c0.8-5.1,1.5-10.2,1.8-15.3C535.2,504.9,535.7,498.8,535.7,492.7z"/>
	<path class="st1" d="M620.6,407.7c10.2,0.2,20.4,1,30.6,1.1c3,0,6.1,0.3,9.2,0.3c12.3,0.2,24.7,1,37,0.4c9-0.4,18-0.3,27-0.9
		c6.6-0.5,13.2-0.9,19.8-1.5c6-0.5,12-1.2,18-2.4c1.4,0.2,1.5,1.4,1.7,2.4c2.2,7.6,3.5,15.2,2.2,23.1c-0.4,2.4-0.7,4.8-0.9,7.3
		c-0.1,1.1-0.3,2.3-1.1,3.2c-4.8,1.9-9.8,2.8-14.9,3.4c-8.6,0.9-17.3,1.9-26,2.6c-5.1,0.5-10.2,0.7-15.3,0.8
		c-5,0.1-10.1,0.3-15.1,0.5c-1.2,0.1-2.5,0.1-3.5-0.7c-3.2-2.5-5.9-5.5-8.9-8.3c-6.3-6-13.6-10.5-20.9-14.9
		c-7.3-4.4-15.2-7.6-23.1-10.6C631.2,411.5,625.8,409.8,620.6,407.7z"/>
	<path class="st6" d="M384.8,596.2c5.6-3.5,11.7-5.8,18-7.9c11.1-3.7,22.8-5.4,33.7-10c8.4-3.6,14.4-9.4,18.7-17.2
		c0.8-1.5,1.3-3.2,2.5-4.4c-1.9,5.3-4.1,10.6-6.9,15.5c-0.9,1.5-1.8,3-2.9,4.7c2.4-1.4,5.5-5.5,8.1-10.8c2-4.2,4-8.3,5.8-12.6
		c1.7-4.1,3.4-8.3,5-12.8c1.1,2.1,2,4.2,3.2,6.2c5.5,8.7,12.1,16,22.4,19.1c2.3,0.7,4.8,1.4,7.1,1.4c5.9-0.2,11.3,1.7,17,2.7
		c6,1.1,12,1.7,18,2.4c11.7,1.3,23.4,1.4,35.2,1.4c-0.1,1.3-1.3,1.3-2.1,1.7c-4.3,2.4-5,6.2-1.4,9.7c3.1,3,7.1,4.7,10.9,6.8
		c1,0.5,2.5,0.7,2.4,2.3c-6-1.7-12.3-1.9-18.4-2.4c-8-0.7-15.9-1.3-23.9-1.9c-3.1-0.2-6.1-0.4-9.2-0.5c-23.2-0.8-46.4-0.6-69.7-0.5
		c-8.9,0-17.8,0.4-26.7,1c-15.3,1.1-30.5,2.5-45.5,6.3C385.4,596.2,385.1,596.2,384.8,596.2z"/>
	<path class="st6" d="M572.3,494.6c2.4,5.1,6.8,7.9,11.6,10.2c16.1,7.4,33.3,11.8,50.2,16.9c18.1,5.4,36.3,10.1,54.7,14.5
		c12.5,3,25.1,5.3,37.8,7.3c9.1,1.4,18.1,3,27.3,4.2c8.6,1.1,17,2.8,25.7,3.2c6.3,0.3,12.6,0.6,18.9,1c4.7,0.3,9.4,0,14.1,0.4
		c5.3,0.5,10.5,0.7,15.8,0.4c7.4-0.4,14.8-0.2,22.2-0.5c7.9-0.3,15.8-0.8,23.7-1.5c6.5-0.5,13-1.3,19.4-2.9
		c-3.9,2.3-8.1,3.6-12.5,4.4c-7.5,1.4-15,2.2-22.6,2.9c-5.2,0.5-10.5,1-15.7,1c-7.4,0-14.8,0.5-22.1,0.7c-5.1,0.1-10.2-0.1-15.3,0.4
		c-5.3,0.6-10.6,0.6-15.8,0.3c-8.5-0.4-17.1-0.7-25.6-1.8c-4.7-0.6-9.5-0.7-14.3-1.1c-7.2-0.6-14.3-1.2-21.4-2.3
		c-5.4-0.8-10.9-1.6-16.3-2.1c-5.9-0.5-11.7-1.7-17.5-2.6c-9.2-1.4-18.3-3.1-27.4-4.8c-15.3-2.8-30.6-5.7-45.9-8.6
		c-10.6-2-21.1-4.3-31.4-7.1c-5.9-1.6-11.7-3.6-17-6.6c-4.3-2.5-5.5-7.1-5.3-11.8c0.2-4.6,1.7-9,3.8-13.2
		C571.5,495.3,571.9,495,572.3,494.6z"/>
	<path class="st7" d="M186.5,412.1c4,0.4,6.9,3.1,9.9,5.3c10.2,7.6,15.7,18.4,19.8,29.9c3.7,10.3,6.3,20.9,7,31.9
		c0.5,6.9,1.6,13.7,1.3,20.6c-0.5,11.8-0.8,23.6-3.5,35.2c-1.5,6.5-4,12.7-7.5,18.4c-3.9,6.3-8.3,12.2-13.8,17.2
		c-6.3,5.6-13.1,10.3-21.6,12.2c-2.4,0.5-4.6,0.3-6.8-0.6c-3.2-3.5-6.5-7-9-11.1c-0.3-0.5-0.6-1-0.2-1.6c3.4,1.4,6.7,3.2,10.6,3
		c3.4-0.2,6.4-2.2,7.3-5.4c0.3-1.2,0.9-1.8,1.8-2.4c7-4.4,11.8-10.6,15.6-17.9c3.7-7,5.7-14.4,7.5-22c0.4-1.4,0.9-2.3,2.4-2.7
		c5.7-1.5,6.9-9,3.8-13.5c-0.3-0.5-0.9-1-1.5-1.2c-2.4-0.7-2.7-2.3-2.7-4.6c0.2-11.2-0.5-22.4-3.9-33.1
		c-4.3-13.6-10.2-26.5-21.2-36.3c-2-1.7-3.3-3.5-4-6c-1.5-5.1-5.8-6.4-10.4-6.9c0.1-1.8,1.2-3,2.5-3.9
		C174.9,413,180.3,410.8,186.5,412.1z"/>
	<path class="st8" d="M508.3,416c8.9,11.6,15,24.6,18.6,38.7c1.6,6.3,2.2,12.9,3,19.4c1,8.2,1.8,16.4,1.3,24.7
		c-0.7,11.8-1.1,23.8-5.2,35.1c-2.4,6.8-4.6,13.6-8.2,20c-4.9,8.7-11.1,10.2-20.6,8.4c-4.5-0.9-8.5-2.9-11.9-6.1
		c-3.5-3.7-6.5-7.8-9-12.3c-1.9-3.5-3.4-7.2-4.8-10.9c-0.4-0.9-0.7-1.9,0.1-2.7c3,4.6,5.2,9.8,9,13.8c4.7,5.1,9.4,8.6,16.5,6.6
		c5-1.4,8.1-5.2,10.5-9.5c4.2-7.4,6.2-15.5,7.4-23.7c1.2-8.6,2.4-17.3,2-26.1c-0.5-11.6-2-23.2-5.3-34.4c-1.7-6-3.6-11.9-6.6-17.5
		c-2.3-4.3-5.2-8.1-8.3-11.6c-4.7-5.3-12.3-4.5-16.7,1.5c-6.5,8.7-10.9,18.4-12.8,29.1c-0.3,1.4-0.5,2.9-0.5,4.3
		c0,1.2-0.5,2-1.5,2.6c-0.5-0.4-0.5-1-0.4-1.6c1.5-13.3,5.4-25.8,12.6-37.1c3.2-5.1,7.8-8.9,13.1-11.4
		C496.5,412.5,502.6,412.4,508.3,416z"/>
	<path class="st7" d="M405.3,315.9c3.3,1.3,5.7,3.6,7.4,6.6c3.3,6,5.6,12.3,6.3,19.2c0.9,8.5,0,16.8-1.7,25
		c-1.1,5.4-3.9,10-7.5,14.2c-4.6,5.4-10.4,8.9-16.2,12.6c-8.1,5.2-16.2,10.5-25,14.6c-7.7,3.5-15.8,5.7-24.2,6.8
		c-9.3,1.2-18.7,1.8-28.1,1.4c-9-0.5-18.1-1-27.1-1.7c-10.4-0.8-20.7-2.8-30.8-5.1c-9.3-2.1-18.6-4.7-26.9-9.6
		c-1.2-0.7-2.6-1.2-3.5-2.5c1.6-2.3,4-2.8,6.5-2.5c4.7,0.6,9.2,1.5,13.7,3.4c9.9,4,20.3,6.3,31,7.3c8.6,0.8,17.2,2,25.8,1.3
		c5.4-0.4,10.9,0.5,16.3-0.2c12.3,0,24.4-1.5,35.9-5.9c6.2-2.4,12.2-5.4,17.7-9.1c4.8-3.1,10-5.7,14.3-9.5
		c8.6-7.5,16.8-15.5,19.1-27.3c1.9-10.1,0.9-20-4.7-29c-1.6-2.6-4.6-3.8-7.1-5.4c-0.7-0.4-1.4-0.8-2-1.3c-0.1-0.3,0-0.7,0.3-0.9
		C398,316.5,401.4,315,405.3,315.9z"/>
	<path class="st6" d="M689.4,447.3c25-0.7,50.1-1.4,74.7-6.9c1.1,1.2,0.2,2.5-0.1,3.6c-0.2,1.1-0.5,2.2-0.9,3.3
		c0.9-2.6,1.2-5.3,2.8-7.7c2.6-1.5,5.6-1.8,8.4-2.5c8.5-2.3,16.9-4.6,25.5-6.7c0.9-0.2,1.7-0.5,2.6-0.4c1.7,0.1,2.9,0.8,3.8,2.3
		c0.9,1.5,0,2.6-0.9,3.7c-2.9,3.8-6.6,6.7-10.4,9.5c-13,9.7-26.4,18.8-39.8,27.8c-1.5,1-2.9,2.1-4.7,2.5c-11.2-2.7-22.4-5.4-33.7-8
		c-3.8-0.9-7.8-1.2-11.7-1.8c-0.8-0.1-1.5-0.2-2-1c-3.8-6.2-8.3-11.9-13.4-17.2C689.5,448,689.5,447.6,689.4,447.3z"/>
	<path class="st1" d="M750.5,476.1c5.6-3.9,11.2-7.8,16.8-11.5c10-6.7,19.8-13.8,29.4-21c2.9-2.2,5.9-4.5,8-7.7
		c0.6-1,1.9-1.6,0.9-3.1c-1-1.6-2.4-2.2-4.1-1.9c-1.5,0.2-3,0.7-4.5,1.1c-10.3,2.7-20.6,5.4-31,8.1c-0.9-0.9-0.5-2-0.3-3
		c0.8-3.9,1.3-7.8,1.8-11.8c0.4-3-0.1-5.8-0.6-8.7c-0.6-3.3-1.3-6.5-2.4-9.7c-0.3-0.8-0.7-1.7,0-2.5c12.9-2.7,25.7-5.9,37.9-10.9
		c5.7-2.3,11.4-4.7,16.7-7.9c0.6-0.4,1.3-0.6,2-0.8c-2.8,6.5-5.4,13-7.1,19.9c-1.9,7.7-2.3,15.5,0,23.2c0.7,2.5,2.6,4.5,4.3,6.4
		c0.8,0.9,0.8,1.2-0.2,2c-17.3,13.6-35,26.6-52.6,39.8c-3.3,2.5-6.2,2.2-9.6,1.3C754.1,476.9,752.3,476.5,750.5,476.1z"/>
	<path class="st9" d="M961.9,294.9c-8.4,0.7-16.3,3.3-24.2,6.1c-10.6,3.7-20.3,9-29.7,15c-10.5,6.6-20.3,14.2-29.7,22.3
		c-6.1,5.2-12.2,10.5-17.7,16.3c-6.1,6.5-12.4,12.8-17.2,20.4c-3.8,6-7.1,12.4-9.7,19.1c-3,8.1-5.3,16.3-5.1,25
		c0.2,8.6,4.4,13.3,12.1,15.6c2.5,0.7,5.1,0.7,7.4,2c-3.4,0.9-6.9,0.6-10.3,0c-4.4-0.8-9-0.9-12.9-3.7c-0.7-0.5-1.4-0.8-1.8-1.5
		c-4.2-5.4-3.9-11.5-2.8-17.7c2-11.3,6.1-21.9,12-31.8c6.4-10.7,14.1-20.4,22.6-29.6c11.9-13.1,25.9-23.7,40.2-33.8
		c15.5-10.9,32.2-19.7,50.1-26c6.3-2.2,12.9-3.2,19.6-3.5c6.8-0.3,11.4,3,14.5,8.9c3.5,6.7,4.7,13.9,5.2,21.4c0,0.4,0.1,0.8-0.2,1.2
		c0.1,8.4-1.2,16.5-2.8,24.7c-1.6,8.2-3.1,16.5-5.8,24.4c-4.1,12-8.8,23.8-14.9,35.1c-2.9,5.4-7.5,9-13,11.4c1-2.8,3-5,4.4-7.5
		c1.9-3.5,3.8-7.1,4.9-11c0-0.1,0-0.3,0-0.4c1-4.2,2.7-8.2,4.2-12.2c2.4-6.3,3.9-12.8,5.8-19.3c0.2-0.8,0.4-1.6,0.8-2.3
		c0.1-0.5,1.7-0.6,0.5-1.6c0.5-5.1,1.8-10,2.9-15c1.1-5,1.7-10.1,2.2-15.1c0.1-1.3,0.3-2.6,0.8-3.8c0.8-1.3,2.5-0.9,3.6-1.6
		c-1.2,0.3-2.3,1.1-3.5,0.3c-0.7-1.6-0.4-3.4-0.3-5c0.6-7.7,0.4-15.3-3.8-22.2c-0.1-0.2-0.1-0.5-0.2-0.7c1.4-1.7,3.6-0.9,5.1-1.9
		c-1.8,0.5-3.7,1.2-5.7,1c-2-1.2-4.1-2-6.4-2.4C962.6,295.3,962.3,294.9,961.9,294.9z"/>
	<path class="st6" d="M423.8,452.1c0,4.4-0.2,8.8,1,13c1.1,4.1,3.5,7.2,7.3,9.2c6.8,3.6,14.3,5.1,21.8,6.5c1,0.2,2.1,0.3,3.1,0.5
		c0.3,2.3-0.5,4.5-0.5,6.8c0.1,5.4,0.9,10.8,2.5,16c0.7,2.1,0.8,4.3,1.1,6.4c0.2,1.7-1.1,1.1-1.8,1.1c-7.4,0.1-14.6,1.7-21.6,3.9
		c-0.5,0.1-0.9,0.2-1.3,0.9c2.3-0.2,4.4-0.2,6.5-0.6c5.4-0.9,11-0.7,16.4-1.4c1.5-0.2,2.1,0.3,2.2,1.9c0.6,6.4,2,12.6,3.6,18.8
		c0.8,2.8-0.5,5.5-1.4,8c-1.6,4.5-2.9,9.1-5.2,13.3c0.2-1.4,0.2-2.9,0.6-4.3c1.1-3.8-0.6-6.3-3.5-8.3c-1.9-1.3-4-2.6-6.1-3.5
		c-4.4-2-8.6-4.4-12-7.7c-3.8-3.6-7-7.9-9-12.9c-2.1-5.2-3.8-10.7-5.6-16c0.4-0.2,1.1,0,0.7-0.9c-2.8-6.4-3-13.2-3.5-20
		c-0.8-9.6,0.6-18.8,3-28C422.3,453.9,422.2,452.5,423.8,452.1z"/>
	<path class="st10" d="M496.8,443c-2.6,1.5-4.2,4-6,6.3c-1.3,1.7-2.4,3.6-3.5,5.4c-0.5,0.8-0.7,1.3-1.9,0.8c-2.7-1.2-2.6-1-1.5-3.9
		c2-5.8,4.7-11.2,8.2-16.2c-2.2,2-3.9,4.4-5.2,6.9c-1.8,3.4-3.4,6.9-4.4,10.5c-0.2,0.8-0.3,1.6-1.5,1.8c-1.7,0.3-1.9,0.3-1.7-1.7
		c0.5-5.2,1.7-10.2,2.6-15.2c-2.2,5.3-3.5,10.8-3.7,16.4c-0.1,1.8-1.5,1.8-2.2,2c-1.1,0.3-0.9-1-0.8-1.7c0.1-1.2-0.6-2.3-0.8-3.4
		c-0.1,1.6-0.5,3.2,0.2,4.8c0.4,1,0.1,2-0.8,2.8c-0.9,0.9-2.3,1.6-2.1,3.3c0.1,0.5-0.6,1-1.3,0.8c-1-0.3-0.2-0.8-0.2-1.3
		c1.1-9.3,4.6-17.7,9.4-25.5c1.5-2.4,3.3-4.6,5.5-6.5c3.9-3.2,7.3-1.6,10.2,1.7c8,9.2,12.2,20.4,14.9,32.1
		c1.8,7.6,2.7,15.4,3.5,23.2c0.9,8.4-0.3,16.7-1,25c-0.5,6.3-1.7,12.5-3.6,18.5c-1.8,5.8-4.5,11.4-9.2,15.5c-3.9,3.4-8.1,4.3-13-0.2
		c-7.4-6.7-11.7-15.4-15.5-24.4c-0.2-0.4-0.2-0.8-0.1-1.3c1.4,1,2.8,1.8,2.2,4c1.7-1.5,3.3-1,3.5,0.8c0.1,1,0,2,0.2,3.3
		c0-3.4,1.6-3.2,4.4-3c7.3,0.7,10.9-2,13.9-8.9c1.7-4.1,2.4-8.5,2.6-13.1c0.1-2.2,0.4-4.3,0.4-6.5c0.1-6-1.3-11.8-2.2-17.6
		c-0.5-3.5-1.3-7-2.1-10.5c-1-4.2-2.7-7.8-5.9-10.7c-0.9-0.9-1.1-1.4-0.2-2.5C490.9,450.8,493.8,446.9,496.8,443z"/>
	<path class="st1" d="M418,318.9c4.1,4.7,8.1,9.5,10.6,15.3c2.3,5.3,3.8,10.8,4.1,16.6c0.1,2.7,0.5,5.5,0.4,8.2
		c-0.1,14-4.5,26.2-14.9,35.9c-7.1,6.6-14.9,12.2-23.3,16.9c-8.9,5-18.3,8.6-28.2,11.1c-8.6,2.1-17.4,3.2-26.2,2.6
		c-7-0.5-13.9-0.1-20.9-0.9c-8.6-1-17.2-1.5-25.8-2.3c-11.7-1.1-23.1-3.5-34.6-6c-7.5-1.6-14.6-4.3-21.3-7.9
		c-1.4-0.7-2.6-1.6-3.6-2.8c8.6,2.9,17.3,5.5,26.1,7.5c7.4,1.6,14.9,2.8,22.4,3.8c6.8,0.9,13.5,1.1,20.3,1.5c9,0.5,18,1.3,27,0.8
		c12.7-0.6,25.3-2.2,37.2-7c7.7-3.1,14.8-7.3,21.8-11.8c6.4-4.2,13.1-8.1,19-13.1c4.8-4,8.4-8.9,10.8-14.7
		c2.2-5.4,2.9-11.1,2.9-16.8c0-1.6,0.4-3.2,0.4-4.8c0.3-11.3-1.6-22.1-7.5-32C415.9,318.6,417,318.9,418,318.9z"/>
	<path class="st11" d="M328.6,338.9c-7.3,7.4-8.6,16.6-7.4,26.4c0.2,1.5-0.3,2.6-1.5,3.6c-5.4,4.4-11.6,7.1-18,9.5
		c-1,0.4-1.9,0-2.7-0.4c-4.7-2.2-9.7-2.9-14.9-3.6c-8.5-1.1-16.7,0.4-24.8,2.6c-3.7,1-7.1,2.7-11.3,4.3c2.7-3.5,4.8-6.7,7.3-9.5
		c4-4.6,8.1-9.3,12.5-13.5c10.5-10.2,22.5-18,36.2-23.5c7.2-2.9,14.4-5.6,21.9-7.3c7.3-1.7,14.7-3.1,22.3-3.8
		c6.1-0.6,12.3-1.6,18.4-2.3c0.8-0.1,1.6,0,2.6,0c-0.3,2.1-2.4,3.2-2.6,5.3c-0.8,1-2,1.1-3.1,1.2c-10.1,0.7-20.1,1.8-30,3.8
		c-9.1,1.8-17.8,5.2-26.5,8.3c-12.3,4.3-22.4,12.1-32.1,20.5c-3.2,2.8-6.2,5.7-8.4,8.3c1.8-1.5,4.4-3.4,7.1-5.1
		c8.3-5.3,16.2-11.1,25.2-15.4c9-4.3,18.7-6.6,28.2-9.4C327.6,338.5,328.2,338.4,328.6,338.9z"/>
	<path class="st0" d="M787.6,294.9c0.1-4.6,0.5-9.1-0.3-13.7c-1.9-10.4-8.7-13.5-17.8-12.4c-10.7,1.3-21.1,4-31.4,7.2
		c-8.1,2.6-15.1,7.1-21.6,12.3c-7.4,5.8-14.6,11.8-21.4,18.3c-3.5,3.4-7,6.7-10.5,10.2c-10.8,10.8-20.6,22.4-29.3,34.9
		c-1.4,2-2.9,3.9-4.4,5.8c-1.5-0.3-3-0.2-4.4-0.9c0.8-2.5,2.6-4.5,4-6.6c8.7-13.2,18.6-25.5,29.8-36.6c7.9-7.8,16.2-15.2,24.9-22.3
		c3-2.5,6-5,9.1-7.4c7.5-5.9,15.9-10,24.9-13.2c9.4-3.4,19.1-5.4,29-6.2c4.4-0.4,8.9-1.2,13.3-0.3c9.2,1.9,12.4,5.1,13.9,14.4
		c0,0.2,0,0.4,0.1,0.5c0.5,0.7-0.1,1.7,0.4,2.4c0.2,7.9-0.7,15.8-1.8,23.6c-0.9,7-2,14-3.7,20.9c-2.2,8.7-4.9,17.2-8,25.6
		c-0.3,0.9-0.9,1.3-1.7,1.5c-2.6,0.6-5.2,1.1-7.8,1.7c2.3-7.8,4.6-15.6,6.8-23.4c0.1-0.2,0.2-0.4,0.4-0.6c0.2-0.1,0.4-0.2,0.6-0.1
		c-0.1-0.2-0.5-0.1-0.5-0.4c3.3-11.2,5.3-22.6,7.3-34.1c0.5-0.8,1.4-0.5,2.1-0.8C789,295.2,788.2,295.7,787.6,294.9z"/>
	<path class="st6" d="M680.7,361.3c7.8-4.1,14.9-9.2,21.5-15.2c7.3-6.7,12.2-15.2,18.5-22.7c2.8-3.3,5.6-6.7,8.6-9.9
		c2.2-2.4,4-5.1,6.8-6.9c3.9-2.4,7.7-3.4,11.5-0.6c2.6,2,2.4,4.9,2.9,7.7c0.8,4.3,0.4,8.5,0.1,12.8c-0.5,6.8,1.2,13.5,2.4,20.1
		c-2.3-1.6-4.8-3.1-6.9-4.9c-4.5-3.7-9.2-4.1-14.4-1.6c-5.6,2.7-10.9,5.9-15.4,10c-3.2,2.9-5.5,6.8-7.6,10.6
		c-0.8,1.5-1.6,2.4-3.4,1.5c-0.3-0.1-0.6-0.1-1-0.1C696.3,362.4,688.5,361.9,680.7,361.3z"/>
	<path class="st1" d="M579.1,594.2c-2.5-2.3-6-3.1-8.7-5.1c-1.6-1.2-3.5-1.9-4.9-3.4c-4-4.1-3.2-8.6,2-11c0.6-0.3,1.3-0.6,1.9-0.9
		c9.4-0.5,18.8-0.8,28.1-1.5c16.3-1.3,32.4-3.8,48.1-8.3c2.8-0.8,5.4-2.3,8.9-2.9c-4.8,4.3-9.9,7-14.9,10
		c-12.5,7.6-24.8,15.3-38.1,21.6c-3.7,1.7-7.3,3.4-11,5.3c-1.1,0.5-1.9,0.4-2.9-0.1C584.8,596.4,582.2,594.7,579.1,594.2z"/>
	<path class="st3" d="M632.2,660.9c-4.2,1.6-8.4,3.1-12.5,4.7c-1.8,0.7-3.8,1.1-5.4,2c-2.6,1.4-4.9,0.9-7.6,0.1
		c-8.8-2.6-17.6-4.8-26.8-5.7c-10.1-0.9-20.2-2.1-30.4-2.5c-6-0.2-12.1-1.1-18.2-0.8c-8.8,0.3-17.6,0.7-26.4,1.5
		c-9.4,0.9-18.9,1.9-28.2,3.7c-5.3,1-10.6,1.6-16.4,2.4c3.7-3.5,6.5-7.1,11.9-7.8c8.8-1.1,17.4-2.9,26.2-4.2
		c4.1-0.6,8.2-0.8,12.3-1.1c13.8-1,27.6-1.8,41.5-1.5c8.1,0.2,16.2,0.5,24.2,1c5.5,0.4,11,0.4,16.4,1c10.1,1,20.3,2.1,30.2,4.6
		c3,0.8,6,1.3,9.1,1.9C632.2,660.5,632.2,660.7,632.2,660.9z"/>
	<path class="st0" d="M168.9,381.8c0.6-10.8,8.6-18.6,18.1-17.9c6.3,0.5,12.6,1.7,18.8,2.8c10.5,1.9,20.7,4.7,31.7,7.1
		c-5.4,1.1-10.2,1.6-14.8,3.6c-3.2,1.4-5.9,3.4-8.5,5.5c-0.5,0.4-0.9,1-1.8,0.8c-10.2-2.9-20.5-5.7-30.7-8.5
		c1.7-1.7,3.9-2.2,6.1-2.7c7.8-1.5,15.8-2.1,23.7-2.1c-5.8-0.9-11.5-2.1-17.3-2.5c-3.1-0.2-6.1-0.4-9.2-0.1
		c-12.3,1.4-14.9,15.2-9.3,23.3c-0.1-3.4,0-6.2,0.7-9c0.7-2.7,1.6-5.3,4.4-6.6c6,3.4,12.8,4.4,19.2,6.8c3.5,1.3,7.2,2.3,10.9,3.5
		c-1.9,3.3-3.8,6.5-5.6,9.6c-0.3,0.5-0.6,0.9-1.2,1.1c-6.9,2.2-13.5,5.5-20.3,7.9c-3.2,0.6-5.2-1.6-7.1-3.4
		C171.1,395.7,168.6,389.3,168.9,381.8z"/>
	<path class="st4" d="M270.8,635.6c-3.4,3.4-5.6,7.4-7.8,11.5c3-3.1,5.9-6.1,8.9-9.2c1.3-1.3,2.3-1.6,4.1-0.9
		c6.7,2.4,13.5,4.4,21,6.3c-8.1,1.8-15.7,3.4-23.3,5.1c-12,2.7-23.9,5.6-35.7,9c-5.2,1.5-10.4,3.1-15.6,4.7
		c-0.5,0.1-1.1,0.7-1.5,0.1c-0.4-0.5,0.1-1.1,0.3-1.6c2.6-8,7.4-14.7,12.3-21.3c3.5-4.7,7.5-9,11.6-13.1c0.7-0.7,1.3-1.3,2.5-0.7
		c7.4,3.6,14.9,6.7,22.5,9.6C270.4,635.2,270.5,635.4,270.8,635.6z"/>
	<path class="st12" d="M984.4,320.3c-1.2-9.2-2.1-18.5-8.2-26.2c-2.4-3.1-5.7-4.5-9.5-4.5c-9.3,0-18.2,2.2-26.9,5.6
		c-15.5,5.9-29.8,13.9-43.4,23.3c-9.2,6.3-18.3,13-26.7,20.5c-6.1,5.4-12,11.1-17.5,17.2c-8,8.9-15.2,18.5-21,29.1
		c-4.3,7.9-7.5,16.2-9.5,24.9c-1.6,6.9-2.6,13.9,1.4,20.5c0.1,0.2,0.1,0.5,0.1,0.7c-4.9-4.8-6.2-10.6-5.6-17.4
		c1.3-14,8-26.1,14.2-38.2c2.7-5.2,6.3-9.9,10.3-14.3c5.5-6,11.1-12,16.9-17.8c8.5-8.5,18.1-15.8,27.6-23.1
		c9.1-7,18.8-13.2,28.8-18.9c6.4-3.6,13.3-6.1,20-9c6.1-2.7,12.4-4.5,18.9-5.6c6.4-1,12.9-1.2,19.2,0.3c5.5,1.3,7.4,6,8.9,10.6
		c1.5,4.5,2,9.2,2.1,14c0,2.2,0.4,4.5,0.4,6.8C984.8,319.2,985.1,319.9,984.4,320.3z"/>
	<path class="st3" d="M464.8,658.1c-2.2,1.4-3.8,3.2-5.6,4.9c-0.9,0.9-1.7,1-2.6,0c-1.5-1.7-3.2-3.2-4.8-4.9
		c-6.7-6.7-13.5-13.3-20.9-19.3c-4.8-3.9-10.3-6.9-15.5-10.3c-8.3-5.5-17.1-10.4-25.9-15.1c-3.3-1.7-6.8-3-10.2-4.4
		c-3.5-1.5-3.7-2.5-1.1-5.2c0.4-0.4,0.8-0.8,1.2-1.2c2.9-2.9,5-3.2,8.7-1.4c7,3.4,13.4,7.7,20,11.8c8.5,5.3,16.5,11.3,24.7,17
		c3.8,2.7,7.2,6,10.7,9.1C450.6,645.4,457.6,651.7,464.8,658.1z"/>
	<path class="st13" d="M328.6,338.9c-12.3,3.3-24.6,6.4-35.7,12.9c-8.3,4.9-16.3,10.2-24.1,15.8c-1.4,1-3,1.8-4.1,3.1
		c-0.1-0.2-0.3-0.3-0.4-0.5c2.6-2.8,5-5.7,7.8-8.2c4.8-4.3,9.8-8.5,15.1-12.2c6.8-4.8,14.1-8.9,22.1-11.5c6.9-2.2,13.8-4.7,20.8-6.7
		c3.6-1.1,7.5-1.5,11.3-2c4.7-0.7,9.5-1.4,14.2-1.9c3.7-0.4,7.5-0.4,11.2-1.1c1.5-0.1,3,0.5,4.4-0.4c3.8-1.2,7.6-1.6,11.5-0.6
		c2.1,0.9,4,2.2,5.2,4.2c1.5,2.3,0.5,4.6-2.2,5.2c-2.3,0.5-4.7,0.8-7,0.6c-3-0.2-6,0.6-9-0.1c-3.9,0-7.8-0.1-11.8-0.1
		c-0.4,0-0.8,0-1,0.5c-0.9,0.9-2.1,0.8-3.2,0.7c-3.7-0.3-7.3,0.5-11,0.2C338,337,333.2,337.6,328.6,338.9z"/>
	<path class="st12" d="M795.4,278.3c-1.1-2.6-1.5-5.4-3.1-7.8c-2-3.1-4.9-4.4-8.1-5.3c-3.7-1.1-7.4-0.8-11.3-0.6
		c-9.1,0.4-18,1.9-26.7,4.3c-12.1,3.4-23.5,8.3-33.2,16.5c-6.5,5.5-13,10.9-19.4,16.5c-5.8,5-11.3,10.2-16.7,15.7
		c-5.5,5.6-10.2,12-15.2,17.9c-5.3,6.2-9.5,13.3-14.2,20c-0.3,0.4-0.7,0.7-1,1c-0.4,0-0.8,0-1.2-0.1c-1.7-0.1-2.3-0.5-1.2-2.3
		c5.1-8.4,11-16.2,17.1-23.9c6.6-8.3,13.5-16.3,21-23.7c11.3-11.1,23.1-21.7,36.3-30.4c9.1-6,19.4-9.2,29.9-11.9
		c6.6-1.7,13.4-2.5,20.2-3.2c6.1-0.7,12.3-0.6,18.1,2.1C793,266,794.9,271.8,795.4,278.3z"/>
	<path class="st3" d="M243,623.3c-2.4,2.2-4.5,4.1-6.5,6.1c-6.2,6.2-11.2,13.3-15.5,20.9c-2,3.6-3.1,7.6-4.3,11.5
		c-0.5,1.5-0.9,2.3-2.6,0.9c-1.7-1.4-3.6-2.5-5.5-3.5c-1.5-0.8-1.8-2-1.5-3.4c1.7-9.1,5.6-17.3,10.1-25.2c2.5-4.4,5.3-8.6,8.4-12.6
		c1.1-1.5,2.1-2.1,4-1C233.8,619.2,238,621.4,243,623.3z"/>
	<path class="st14" d="M166.9,526.4c2.9,0.1,5.8-0.2,8.7-0.5c3.4-0.4,5.5-2.5,7.1-5.3c0.6-1.1,1.3-1.7,2.7-1.5
		c5,0.8,10,1.7,15.1,2.3c1.4,0.2,1.4,0.6,1.2,1.8c-1.3,8.5-4,16.5-8.5,23.9c-0.6,1-1.1,1.3-2.1,0.6c-5.5-4-12-5.6-18.4-7.3
		C168.7,536.7,166.5,532.1,166.9,526.4z"/>
	<path class="st15" d="M321.8,403.8c-6.4-0.5-12.9-0.9-19.3-1.3c-7.2-0.4-14.3-1.3-21.3-2.7c-9.6-1.8-19.5-3.3-27.8-9.2
		c0.2-1.3,1.4-1.3,2.2-1.4c9.3-2,18.8-3,28.3-2.6c10.5,0.4,20.2,3.1,28.7,9.5c2.5,1.9,5.1,3.5,7.5,5.5
		C320.9,402.1,321.9,402.6,321.8,403.8z"/>
	<path class="st8" d="M504.7,319.8c11.6,0,21.7,3,30.7,9.2c2.8,1.9,5.9,3.4,8.3,5.9c0.5,0.5,1.4,0.9,1,1.8c-0.3,0.8-1.2,1.1-2,1.1
		c-2.4,0.1-4.7,0.3-7.1,0c-11.1-1.2-22.2-2.9-33.1-5.8c-5.4-1.4-10.8-2.7-15.9-5.2c-1-0.5-2.6-0.8-2.6-2.2c0.1-1.5,1.4-1.9,2.7-2.4
		c3.6-1.2,7.2-1.8,10.9-1.9C500.3,320.2,502.7,319.5,504.7,319.8z"/>
	<path class="st16" d="M321.8,403.8c-6.4-5.1-12.8-10.2-20.5-13.3c-4.2-1.7-8.6-2.4-13.2-2.9c-4.2-0.4-8.4-0.6-12.6-0.4
		c-7.5,0.4-14.9,1.1-22.1,3.4c-2.1-0.7-3.6-2.4-5.3-3.6c-1.1-0.8-0.9-1.6,0.4-2.2c8-3.6,16.3-6.3,25.1-7.4
		c9.1-1.1,17.6,0.4,25.8,4.3c3.2,1.5,5.7,4,8.4,6.1c3.6,2.9,6.9,6.1,10.3,9.2c1.6,1.5,3.1,3.3,4.6,5c0.4,0.4,1.1,0.7,0.9,1.3
		C323.2,404.2,322.4,403.7,321.8,403.8z"/>
	<path class="st14" d="M399.4,326.6c4.1,3.1,4.7,7.7,5.8,12.2c3.2,12.9-1.5,23.4-10,32.8c-4.4,4.9-9.6,8.7-14.7,12.5
		c-0.7,0.5-1.5,1.3-2.4,0.1c-1-1.3,0.3-1.6,0.8-2.1c5.9-5.1,8.1-11.9,8.7-19.2c0.4-5.2-1.6-10.3-3.7-15.2c-0.2-0.5-0.4-1.1-0.6-1.6
		c1.5-0.2,2.1,1,2.9,1.8c4.3,4,7.1,3.5,9.2-2c2.1-5.4,2.8-11.1,3.3-16.9C398.8,328.3,398.7,327.3,399.4,326.6z"/>
	<path class="st17" d="M240.1,598.6c3.2,0.8,5.7,2.9,8.6,4.3c3.7,1.9,7.1,4.4,11,6c3,5.4,5.9,10.8,8.9,16.2c0.4,0.8,1.6,1.5,0.4,2.5
		c-0.9,0.7-1.8,1.1-3.1,0.5c-3-1.5-6.2-2.7-9.2-4.1c-12.4-5.8-24.8-11.7-37.2-17.6c-4.8-2.3-9.5-4.6-14.3-6.9
		c-0.8-0.4-1.6-1-2.3-1.7c7.5,2.4,15.2,4.3,22.8,6.2c7.7,1.9,15.5,3,24.1,4.1C246.5,604.4,242.8,602,240.1,598.6z"/>
	<path class="st1" d="M149.9,481.9c2,4.2,2.6,8.8,2.8,13.4c0.4,7.4-0.1,14.9-1.5,22.2c-1,5.5-4.2,9.8-10.2,11.1
		c-2.9,0.6-5.4,0-7.8-1.7c0-1.6-0.5-3.2-1-4.7c-1.7-4.8-3-9.7-4-14.7c-0.2-0.9-0.5-1.7,0.1-2.5c2.6,0,5.1-0.3,7.6-0.9
		c4.4-1,6.3-4.3,5.2-8.7c-0.1-0.4-0.1-0.8-0.1-1.2c1.2-0.1,1.4,1,1.9,1.6c1,1.3,1.7,2.8,2.6,4.1c0.9,1.3,1.6,2.8,2.7,4.1
		c0.9-0.4,0.8-1.2,0.9-1.9c1.2-5.6,1.2-11.3,0.3-17C149.4,484,149,482.9,149.9,481.9z"/>
	<path class="st1" d="M522.9,347.6c0.4-0.5,0.8-1,1.2-1.5c-0.3-0.7-1-0.5-1.3-0.3c-2.7,1.6-5.2,0.2-7.6-0.7
		c-10.8-3.8-21-8.7-30.7-14.6c-1.8-1.1-3.5-2.3-4.9-3.9c4.7,2,9.3,4.1,14.2,5.5c8.6,2.5,17.4,4.3,26.2,5.7
		c7.7,1.2,15.4,2.6,23.1,1.8c6.4-0.6,12,1.8,17.9,3.1c-2.9,1.9-6.2,2.2-9.4,2.9c-5.4,1.2-10.9,1.3-16.3,1.9c-2.2,0.3-4,1.7-6.2,2.1
		c-2.7,0.5-5.3,0.7-7.6-1.1c0.6-0.6,1.3-0.5,2.1-0.3c0.6,0.1,1.1,0.2,1.7,0.1c2-0.2,4.2-1.9,4.1-3.2c-0.1-2.2-1.9-2.5-3.6-3
		c-1.9-0.5-3.7-0.2-5.9,0.8c2.7-1.1,4.9-1,7.2,0c0.9,0.4,1.7,1,1.7,2.2c0,1.2-0.7,2-1.7,2.4C525.7,348.1,524.3,348.8,522.9,347.6z"
		/>
	<path class="st1" d="M532.2,568.8c8.3-0.6,16.5-0.1,24.8-0.6c6.5-0.4,13.1-0.3,19.6-0.8c10-0.9,20.2-1.3,30.1-2.6
		c12.7-1.7,25.5-3.5,37.7-7.4c8.1-2.6,16-5.9,23.4-10c0.4-0.2,0.7-0.6,1-1c1.8,0.3,3.6,0.7,5.5,1c0.4,0.1,0.9,0.1,1,0.6
		c0.2,0.6-0.4,0.7-0.8,1c-3.8,2.7-8.3,4.1-12.6,5.7c-11.2,4.2-22.5,8.1-34.3,10.5c-7.4,1.5-14.7,2.7-22.2,3.3
		c-10.7,0.9-21.4,1.7-32.2,2c-5.7,0.2-11.4,0.4-17,0.3c-7.7-0.2-15.5-0.9-23.2-1.4C532.8,569.3,532.5,569,532.2,568.8z"/>
	<path class="st8" d="M487.8,461.9c2.9,2.9,3.4,6.9,4.3,10.6c1.6,6.7,2.8,13.6,3.3,20.5c0.6,8.1-0.2,16.2-4,23.6
		c-2.1,4.1-6.4,6-10.5,4.9c-1.8-1.4-3.8-2.7-3.9-5.3c3,0,5.2-1.5,6.8-3.9c2.7-4,3.9-8.4,4.5-13.1c1.1-8.7-0.3-17.2-2.6-25.5
		c-1-3.5-2.9-6.5-5.3-9.2C481.7,462.2,485.2,461,487.8,461.9z"/>
	<path class="st0" d="M283.2,622.1c5.7,3.3,11.8,5.7,17.8,8.3c10.7,4.5,22,6.4,33.3,8.2c2.2,0.4,4.5,0.2,6.6,1.1
		c-3.1,1.1-6.3,1.3-9.5,1.3c-12.2,0.3-24.4-0.2-36.3-3.4c-7.9-2.1-15.7-4.5-23.5-7.6C275.4,627.2,278.8,623.9,283.2,622.1z"/>
	<path class="st15" d="M342.7,336.9c3.7-1,7.5-0.9,11.3-1c1,0,1.9,0,2.9,0c3.6,0.7,7.3,0.9,10.8,2.4c3.8,1.6,7.5,3.2,10.3,6.4
		c-0.7,2.4-2.2,4.4-3.7,6.2c-3.7,4.3-5,9.3-5.4,14.8c-0.2,2.7-0.6,5.5-0.5,8.2c0,0.7,0,1.5-0.6,2c-2.5,0.5-2.7-1.1-2.4-2.9
		c0.6-4.8,1-9.7,1-14.5c0-6.1-2-8.4-8.1-9.5c-2.6-0.4-5.2-0.9-7.9-1c-0.5,0-1.1-0.3-1.6-0.5c-1.6-2.3-3.9-3.2-6.7-3.4
		c-1.2-0.1-2.9,0.3-3.6-1.4c1.9-0.9,3.8-0.4,5.7,0.1c0.7,0.2,1.4,0.4,2.1,0.2c1-0.3,1.8-0.6,0.8-2c-0.6-0.9-1.7-1.5-1.8-2.8
		c1.4-0.9,2.9-1.5,4.5-1.6c-1.7,0.1-3.2,0.6-4.5,1.6C344.3,338.1,343.9,336.9,342.7,336.9z"/>
	<path class="st15" d="M185,460.4c-5.9-0.2-11.6,0.5-17.2,2.4c-2.7,0.9-5.1,2.5-7.2,4.5c-1.5-2-0.9-4.3-0.7-6.3
		c0.5-4.7,0.3-9.4,0.4-14.1c0-1.2,0-2.4,0.8-3.5c2.4-3,5.6-5.3,8.8-7.4c2.6,0.4,3.5,2.7,4.8,4.4c4.2,5.7,7.3,12.2,10.3,18.6
		C185.2,459.5,185.3,460,185,460.4z"/>
	<path class="st0" d="M321.2,406.8c-0.3,0.5-0.8,0.5-1.3,0.5c-8.6-0.3-17.2,1.1-25.8,0.4c-13.4-1.1-26.8-2-39.8-6.3
		c-4.5-1.5-8.5-3.9-13.2-4.7c-4.4-0.7-8.9-2.4-13.1,0.7c-1.6-2-1.1-4,0.3-5.8c3.4-4.4,8.1-6.5,13.5-7.2c0.7-0.1,1,0.3,1.3,0.8
		c2.5,6.4,8.3,9.1,13.9,11.6c8.2,3.7,17.2,4.8,26,6.4c6.9,1.2,13.8,2.1,20.8,2.5C309.6,406.2,315.4,406.6,321.2,406.8z"/>
	<path class="st15" d="M399.4,326.6c-0.1,6.8-1.1,13.4-3.5,19.8c-0.3,0.8-0.6,1.7-1.1,2.4c-1.7,2.6-4.2,3-6.8,1.4
		c-1.8-1.1-2.9-3-4.7-4.1c-1.9-2.7-3.8-5.3-6.3-7.3c-0.1-1.7,0.5-2.9,2-3.8c2.3-0.2,4.6-0.3,6.9-0.6c1.8-0.2,2.6-2.2,1.7-3.8
		c-1.1-2.1-3.1-3.1-4.8-4.4c-0.6-2.1-0.5-4.1,1-5.9C389.5,321,395.1,322.3,399.4,326.6z"/>
	<path class="st7" d="M138.2,496.1c0.1,4.1-1.2,5.5-5.3,5.4c-7.4-0.2-14.9-0.8-22.3-0.9c-9.6-0.1-19.1-0.3-28.7-0.7
		c-9.3-0.3-18.7-0.3-28-0.3c-9.4,0-18.8-0.4-28.2-0.7c-3.6-0.1-7.4,0.3-11-0.8c0.7-0.7,1.6-0.8,2.5-0.8c6.8,0.1,13.6-0.5,20.4-0.6
		c13.4-0.2,26.8-0.6,40.1-1.3c5-0.3,10.1-0.3,15.1-0.4c7.3-0.2,14.6-1,21.9-0.6c7.1,0.4,14.1,0.3,21.2,1
		C136.7,495.4,137.4,495.6,138.2,496.1z"/>
	<path class="st0" d="M459.4,461.4c-6.5-1.1-12.9-3-19.2-5.1c-1.9-0.6-3.6-1.9-4.4-4.2c-0.8-2.5-0.2-4.3,1.8-5.7
		c6.3-4.5,13.5-6.7,21.1-7.9c1.8-0.3,3.6-0.6,5.5-1c-1.1,4.7-2.9,9.2-3.5,14.1c-0.1,1.3-1.1,1.7-2.3,1.6c-4.1-0.6-8.1-1.1-12.2-1.7
		c-0.9-0.1-1.7-0.3-3.3,0c4.6,1.1,8.7,2,12.7,3c4.3,1,4.3,1.1,3.6,5.5C459.4,460.4,459.5,460.9,459.4,461.4z"/>
	<path class="st0" d="M479.5,511.7c-3.5,3-9,1-11.4-2c-4.7-5.7-6.5-12.3-6.6-19.5c-0.1-5.3-0.1-10.7,1.9-15.8
		c1.5-3.8,3.8-6.9,7.9-8.3c3.2-1.1,6-0.2,8.1,2.3c1.9,2.1,3.2,4.7,3.6,7.6c0.9,2.6,0.1,5-0.8,7.3c-1.5,3.9-3.6,7.6-4.8,11.7
		c-1.1,3.6-1.8,7.2-1.2,11C476.4,508.5,478.4,509.8,479.5,511.7z"/>
	<path class="st18" d="M356.9,351.6c1.5,0.3,3,0.6,4.4,1.4c1.2,0.7,2.3,1.6,2.4,2.9c0.1,4.1,1.6,8.3,0.1,12.3
		c-1.6,4.3-4.1,8.1-8.6,10.1c-1.2,0.6-2.4,0.5-3.7-0.1c-3.4-1.5-6.3-3.7-9-6.2c-1.9-1.7-3.8-2.1-6.2-0.9c-2.1,1.1-4,2.4-5.8,4
		c-1.2,1.1-2.1,0.9-2.9-0.5c2.6-2.3,5.8-3.5,8.9-4.8c5.2-2.3,10-5.1,14.2-8.9c2.2-2,3.9-4.4,5-7.1
		C356.1,353,356.3,352.2,356.9,351.6z"/>
	<path class="st19" d="M232,594.2c4.5,3,7.6,7.7,12.7,11c-2.9,0.5-5-0.5-7-0.9c-14.6-2.6-28.7-7.4-43.1-11.2c-2.4-0.6-4.4-2-6.7-3.8
		c2.8,0.4,5.3,0.9,7.8,1c4.7,0.2,9.3-1,13.8-2.2c0.5-0.1,0.9-0.1,1.4-0.1c5.3-0.1,10.2,1.7,15.1,3.4
		C228.1,592.1,230.2,592.8,232,594.2z"/>
	<path class="st20" d="M266.5,590.4c-13.4-1.3-25.7-5.5-38.3-8.6c-0.2-0.7,0.4-0.7,0.7-0.9c7.6-4.1,15.7-7.3,23-12
		c0.5-0.3,0.8-0.4,1.2,0.5c1.9,4.1,4,8.2,6.3,12.1c1.1,1.9,2.8,3.5,4.4,5.1C264.7,587.7,265.7,588.7,266.5,590.4z"/>
	<path class="st18" d="M189.5,479c6.5,0.9,7.9,5.4,7.7,11.7c-0.2,4.6-1.7,8.8-4.8,12.4c-0.7,0.8-1.3,1.4-2.4,1.3c-4-0.2-8-1-11.9-2
		c-1.3-0.3-2.2-1.4-3.1-2.3c-2.4-2.2-4.6-2-7-0.3c-0.8,0.6-1.5,1-2.4,0.2c1.9-1.9,4.4-2.7,6.7-3.8c5.6-2.8,10.4-6.6,14.3-11.5
		C188,483,188.4,480.8,189.5,479z"/>
	<path class="st0" d="M149.9,481.9c0.3,2.7,0.5,5.4,0.8,8.2c0.5,5-0.5,9.8-1.4,14.6c-0.1,0.4-0.2,0.8-0.7,0.9
		c-0.5,0-0.6-0.5-0.8-0.8c-2.3-3.5-4.5-7.1-6.8-10.6c-1.5-3-4.1-4.4-7.3-4.9c-0.3-2.9,1.4-5.1,2.7-7.3c1.3-2.2,2.8-4.4,4.9-6
		c1.2-0.9,1.1-1.8,0.3-2.9c-3.5-4.8-8.3-4.5-11.5,0.8c-2.2,3.6-3.4,7.5-4.4,11.6c-0.3,1.2-0.4,2.4-1.3,3.3c-1.2,0.2-1.6-0.3-1.4-1.5
		c1-5.2,2.5-10.3,5.3-15c3.2-5.3,9.7-7.6,14.6-1.8C145.9,473.8,148.4,477.6,149.9,481.9z"/>
	<path class="st20" d="M257.9,565.3c7.4-4.5,14.4-8.8,21.9-13.4c-0.1,10.5,6.2,17.7,12.6,25.2C279.8,575.5,269.2,570.2,257.9,565.3z
		"/>
	<path class="st21" d="M356.9,351.6c-0.3,4.2-3,7.2-5.8,9.8c-6.7,6.3-15.3,9.4-23.5,13.2c-1.9-1.5-2.6-3.6-3.1-5.8
		c-0.9-4.2-1.9-8.5-0.8-12.9c0.4-1.4,1.1-2.4,2.4-3.1c6.5-3.5,13.5-3.4,20.6-3C350.1,350,353.6,350.4,356.9,351.6z"/>
	<path class="st1" d="M757.3,358.8c-7.4,1.6-14.9,2.8-22.5,2.9c-4.5-2.5-7.7-6.1-8.3-11.4c-0.2-1.3-0.3-2.6,0.5-3.7
		c2.9-2.2,6.2-3.6,9.7-4.6c1.2-0.4,2.4-0.4,3.5,0.3c1.5,1.7,2.3,3.9,3.6,5.7c2.8,4,6.7,6.5,11,8.5
		C755.9,357,757.3,357.2,757.3,358.8z"/>
	<path class="st15" d="M169.9,471.1c2.1-1.6,4.3-0.6,6.5-0.3c0.6,0.1,1.3,0.3,1.9,0.3c1.4,0,2.3-0.3,1.1-2c-1.8-2.5-3.3-5.3-7.3-4.4
		c4.9-1.5,9.7-1.8,14.6-1.1c3.1,0.4,6.2,0.6,9.4,1.1c1.8,0.3,2.5,1.2,3,2.7c1.6,4.8,2.6,9.8,3.5,14.8c0.1,0.6,0.3,1.1,0.5,1.6
		c-1.2,5.6-2.1,11.3-2.7,17c-0.1,0.9,0,1.8-0.7,2.5c-2,0.2-1.9-0.7-1.8-2.4c0.3-5.4,2.1-10.8,0.9-16.4c-0.9-4.4-3.6-7.3-8.1-8
		c-3.2-0.5-6.4-0.7-9.6-1.1c-2.1-3.1-5.3-3.3-8.5-3.7C171.7,471.8,170.6,472,169.9,471.1z"/>
	<path class="st21" d="M189.5,479c0.1,3.8-2.4,6.2-4.6,8.7c-5.3,6-12.2,9.3-19.4,12.4c-2.4,0.1-4.6-0.8-6.9-1
		c-0.8-0.1-1.1-0.7-1.3-1.3c-1.4-4.7-2.1-9.4-1.1-14.3c0.3-1.4,1-2.2,2.2-2.9c3.9-2.2,8.3-2.7,12.6-2.9c6-0.4,12.1-0.1,18.1,1.1
		C189.3,478.7,189.4,478.9,189.5,479z"/>
	<path class="st7" d="M155.8,505c0-0.4,0-0.6,0-0.8c-0.2-2,0-2.9,2.6-2.3c9.1,1.9,18.3,3.7,27.5,5.3c5,0.8,10.1,1.2,15.1,1.6
		c1.9,0.2,3.9,0.4,5.7,1c2.3,0.7,3.3,3,2.6,5.6c-0.7,2.5-2.6,3.9-5,3.6c-11.7-1.4-23.2-3.7-34.6-6.8c-4.3-1.2-8.5-2.8-12.7-4
		C154.8,507.6,156.1,506,155.8,505z"/>
	<path class="st20" d="M305.6,537.3c0.6,7.9,3.1,15.1,7.1,21.9c-2.9,0.9-5.5,0-8-0.3c-7-1-13.4-4.1-19.3-7.8c-2.1-1.3-2-1.4,0.1-2.7
		c5.8-3.6,11.8-7,17.9-10.1C304.1,537.9,304.8,537.6,305.6,537.3z"/>
	<path class="st0" d="M138.2,496.1c-9.8-0.3-19.6-1-29.4-0.8c-10.4,0.1-20.9,0.6-31.3,1c-4.1,0.2-8.2,0.1-12.4,0.4
		c-12.2,0.6-24.4,0.8-36.7,1.1c-4.6,0.1-9.2,0.1-13.8,0.4c-1,0-1.9,0-3.1,0c1.1-1.4,2.4-0.8,3.4-1.1c4.3-1.1,8.7-1.1,13-1.3
		c5.3-0.2,10.7-0.5,16-0.7c8.1-0.3,16.2-0.7,24.2-1c3.5-0.1,7.1-0.2,10.7-0.3c7-0.3,14.1-0.3,21.1-0.6c5.3-0.3,10.7,0.1,16-0.4
		c4.7-0.5,9.4-0.2,14.1-0.4c1.7-0.1,3.3,0.5,5,0.7C136.9,493.1,137.7,494.4,138.2,496.1z"/>
	<path class="st7" d="M168.9,423.9c2.7-0.1,3.9,1.9,5.3,3.7c0.8,1.1-0.3,1.4-0.8,1.8c-2.7,1.8-5.6,3.5-8.2,5.6
		c-9.3,7.3-17.2,15.8-22.4,26.6c-1.6,3.3-1.7,3.3-5.1,2.3c-0.6-0.8,0-1.5,0.3-2.3c3.3-7.7,7.2-15.1,12.1-21.9
		c4.1-5.7,8.8-10.8,15-14.3C166.3,424.7,167.5,424,168.9,423.9z"/>
	<path class="st14" d="M185,460.4c-3.2-6.4-6.2-12.9-10.2-18.8c-1.4-2.1-3-4-4.9-5.6c1.4-1.4,3.1-2.2,4.8-3.1c0.8-0.4,1.3-0.1,2,0.4
		c5.7,4.5,10.4,10,13.9,16.4c2.1,3.8,4.7,7.4,6.3,11.9C192.8,461.2,188.9,460.8,185,460.4z"/>
	<path class="st14" d="M341.8,375c5.3,3.2,7.8,5.8,7.3,12.1c-0.4,5.2-4.8,8.2-11.1,7.3c-2.1-0.3-4.2-0.5-6.2-0.7
		c-2.2-0.3-3.2-1.2-3.7-3.1c-0.6-2.2,0.7-3.7,1.8-5.4c2-0.1,2.5,1.5,3,2.9c0.4,1,0.7,2,0.5,2.7c0-1.7-0.3-3.6-1.7-5.2
		c-0.4-0.5-0.9-1-0.9-1.7C333.7,380,337.2,376.8,341.8,375z"/>
	<path class="st15" d="M175.4,544.9c5.1,0.7,9.6,2.5,13.9,5.4c1.1,0.7,1.2,1.3,0.5,2.3c-2.9,4.2-7,7.2-11.2,9.9
		c-0.6,0.4-1.2,0.5-1.8,0.2c-4-2-7.8-4.2-11.2-7.1c-0.1-0.2-0.2-0.5,0-0.7C168.4,551.2,171,547.2,175.4,544.9z"/>
	<path class="st12" d="M180.7,375.4c-4.9,4.6-4.4,10.8-4.5,16.8c-1.1-0.2-1.5-0.9-1.9-1.6c-3.7-6-3-14.2,1.6-19.5
		c1.3-1.5,3-2.3,4.7-2.9c3.7-1.3,7.4-1.7,11.4-1.3c5.7,0.5,11.4,1.5,17,2.2c1.5,0.2,3,0.5,4.4,1.5c-10.7,0.8-21.7,0.3-31.9,4.4
		C181.2,375,180.9,375,180.7,375.4z"/>
	<path class="st7" d="M135.7,531.8c1.8-0.3,3,0.5,4,2c3.8,5.6,8.3,10.8,13.1,15.6c6.5,6.5,13.6,12.5,22.2,16.4
		c0.7,0.3,1.7,0.4,1.7,1.5c0,1-1,1.2-1.7,1.5c-2.4,1.2-4.8,0.4-7-0.5c-2.8-1.1-5-2.9-7.3-4.8c-4.4-3.7-8.9-7.2-12.7-11.7
		c-4.5-5.3-8.1-11.2-11.5-17.2C136,533.7,135,533,135.7,531.8z"/>
	<path class="st20" d="M263.1,611.3c-1.2-1.9-2.5-3.8-3.4-6.4c12.4,3.3,24.8,4.6,37.7,5.5c-6.2,3.5-12.1,6.7-18.2,9.6
		c-3.9-1.3-7.3-3.7-11-5.6C266.5,613.5,264.6,612.7,263.1,611.3z"/>
	<path class="st20" d="M286.8,592.5c4.4,0.7,8.1,1.2,11.8,1.9c6.5,1.1,12.9,2.2,19.4,3.2c0.6,0.1,1.3-0.1,1.5,0.5
		c0.3,0.9-0.7,0.9-1.2,1.2c-4.8,3-9.8,5.8-14.9,8.2c-0.8,0.4-1.3,0.8-2.3,0C296.1,603.2,291.6,598.3,286.8,592.5z"/>
	<path class="st14" d="M331.6,396.5c3.2,0.6,6,1,8.9,1c4.4,0,7.3-2.1,9.4-5.7c0.5-0.9,0.9-1.8,1.9-2.1c3.7-1,6.9-3.2,10.4-4.7
		c0.5-0.2,1-0.6,1.6-0.7c0.8-0.2,1.8-1.1,2.5-0.2c0.6,0.7-0.4,1.4-0.6,2.2c-0.2,0.8-0.6,1.5-0.7,2.3c-1.2,7.3-7.3,8.9-13,10.7
		c-4.5,1.4-9.2,2.3-13.9,3.4c-1.7,0.4-2.9,0.3-3.5-1.8C334.2,399.3,332.8,398.1,331.6,396.5z"/>
	<path class="st1" d="M479.5,511.7c-3.8-2.6-4.7-5.8-4.2-10.4c0.7-6.3,3.6-11.8,6-17.5c1.1-2.5,1.4-5.1,1.6-7.7
		c1.6,2,1.4,4.4,1.7,6.7c0.6,3.9,1.4,7.8,1.2,11.8c-0.3,5.6-1.4,11-4.8,15.7C480.6,510.8,480.2,511.4,479.5,511.7z"/>
	<path class="st3" d="M124.5,488.7c1-5.4,2.4-10.6,5.3-15.3c1.5-2.4,3.4-4.7,6.4-4.6c3.3,0.1,5.2,2.6,6.9,5.2
		c0.6,0.9-0.1,1.4-0.6,1.8c-4.5,3.4-7,8.2-8.8,13.4C130.7,489,127.6,488.9,124.5,488.7z"/>
	<path class="st14" d="M367.7,376c0-6.2,0.2-12.4,2-18.4c0.6-1.9,1.4-3.8,2.8-5.3c2.1-2.3,3.3-5.3,5.5-7.6
		c5.6,7.3,8.2,15.2,5.5,24.4c0.2-3,0.7-6-0.1-9c-0.5-1.9-0.9-3.8-2.1-5.4c-1.9-2.7-4.7-2.8-6.5,0c-2.3,3.5-2.9,7.5-2.4,11.6
		c0.3,2.3,0.6,4.6,1.9,6.7c2.3,3.6,4.8,3.7,7.3,0.3c0.1-0.2,0.3-0.3,0.9-0.7c-1.1,3.3-3,5.5-5.1,7.6c-1,1-2.2,0.9-3.1-0.1
		C372.3,378.2,370,377.2,367.7,376z"/>
	<path class="st1" d="M508.3,416c-4.1-1.3-8.1-2.3-12.6-1.7c-4.9,0.7-8.4,3.5-12,6.4c-7,5.7-10,13.8-13.2,21.7
		c-2.9,7.4-4.2,15.1-5.2,22.8c-1.3,1.3-1.6,0.5-1.5-0.8c0.4-5.5,1.2-10.9,2.6-16.2c2.8-10.9,7.6-20.7,15.2-29.1
		c3.2-3.5,6.6-6.6,10.6-9.1c4.8-3,9.3-2.1,13,2.1C506.3,413.5,507.3,414.8,508.3,416z"/>
	<path class="st20" d="M332,525.1c7.7-2.4,15.2-4.6,22.9-7c0.3,5.3,2.3,10,3.8,15C349.2,532.6,340.6,529.4,332,525.1z"/>
	<path class="st20" d="M309.6,534.9c5.9-3.1,12.2-5.4,18.3-8c0.8,5.4,2.5,10.2,5,14.8c0.2,0.4,0.9,1,0.4,1.5
		c-0.2,0.3-0.9,0.3-1.4,0.2c-7.4-1.9-14.8-4-21.5-7.8C310.1,535.4,309.9,535.2,309.6,534.9z"/>
	<path class="st20" d="M341.7,583.1c-3.5,2.7-6.5,4.9-9.5,7.2c-1.8,1.4-3.7,2.8-5.6,4.1c-0.6,0.4-1.4,1.6-2.2-0.1
		c-2.3-4.4-4.7-8.7-7-13.1c-0.2-0.4-0.9-0.9-0.3-1.5c0.4-0.3,0.9,0.1,1.3,0.1c4.3,0.6,8.6,1.1,12.8,1.7
		C334.6,582,337.8,582.5,341.7,583.1z"/>
	<path class="st6" d="M727,346.7c-0.4,5.8,1.7,10.4,6.6,13.7c0.5,0.3,0.9,1,1.3,1.4c-7.7,0.3-15.3,0.7-23.1,1
		C714.9,355.4,720.3,350.4,727,346.7z"/>
	<path class="st11" d="M153.9,545.4c-3.9-3.9-7.3-8-10.3-12.4c-0.5-0.8-1.6-1.2,0.4-1.9c5.7-2.2,9.2-6.6,10.2-12.7
		c0.2-1.3,0.8-2.5,0.6-3.8C157.6,521.2,155.5,535.7,153.9,545.4z"/>
	<path class="st11" d="M155.3,449.3c-0.7,4.9-1,9.5-1,14.2c0,2.5-0.5,5-0.5,7.5c0,2.2-2.3,1.5-3.4,2.4c-0.9,0.7-1.1-0.3-1.5-0.9
		c-0.8-1.1-1.6-2.2-2.6-3.2c-1.6-1.6-2-3.4-0.9-5.4c2.7-4.8,5.2-9.6,8.8-13.7C154.4,449.8,154.7,449.6,155.3,449.3z"/>
	<path class="st0" d="M128.4,504.9c1.3,6.4,2.9,12.7,5,19c0.3,0.8,1.7,2.1-0.2,3c-4.5-1.2-6.5-5-8.1-8.7c-1.7-3.8-2.6-7.9-3.5-12
		c-0.3-1.6,0.4-1.9,1.7-1.8C125,504.6,126.7,504.7,128.4,504.9z"/>
	<path class="st20" d="M356.6,567c-3.8,4.4-7.4,8.5-11.1,12.8c-1.3-5.7-4.5-10.2-7.3-15.3C344.5,564.5,350.4,565.7,356.6,567z"/>
	<path class="st0" d="M168.9,423.9c-1.4,0.9-2.9,1.7-4.3,2.6c-6.6,3.9-11.2,9.6-15.4,15.8c-4.7,6.8-8.2,14.1-11.5,21.6
		c-1.3,0.1-2.2,0.1-1.6-1.8c3.1-9.8,8-18.6,14.8-26.4c3.8-4.4,8-8.1,13.1-11C165.5,423.8,167,422.6,168.9,423.9z"/>
	<path class="st14" d="M162.6,513.7c2.2,1.3,2.4,3.7,3.1,5.8c0.9-1.2,1-1.3,0.5-3.3c-0.3-1.4,0.3-1.6,1.4-1.4
		c4.1,1,8.1,2.1,12.2,3.1c1,0.3,1,0.5,0.5,1.4c-0.9,1.5-2.1,2.6-3.7,3c-3.7,1-7.4,1.7-11.2,0.5c-2-0.6-3.8-1.5-4.8-3.4
		C159.8,516.4,160.4,514.6,162.6,513.7z"/>
	<path class="st16" d="M338.3,342.8c1.7,0.5,3.4,0.8,5.1,1c2.4,0.3,4.7,0.9,5.1,3.8c-2,0.3-3.8-0.5-5.8-0.4
		c-5.5,0.2-10.9,0.5-16,2.8c-0.4,0.2-0.9,0.2-1.6,0.3c2-4.9,4.6-9.1,9.2-11.8C336.2,339.5,333.6,344.5,338.3,342.8z"/>
	<path class="st22" d="M381.8,364.5c0.1,2.5-0.4,5-1.3,7.3c-0.4,1-1.2,1.9-2.3,1.9c-1.1,0-1.9-0.8-2.3-1.9c-1.9-4.9-1.9-9.8,0-14.6
		c0.4-1,1.1-2.2,2.4-2.1c1.1,0.1,1.8,1.1,2.2,2.1C381.4,359.5,381.9,361.9,381.8,364.5z"/>
	<path class="st1" d="M471.7,530.3c0.8,4.9,3.1,9.1,5.3,13.4c2.2,4.2,4.8,8,7.9,11.5c0.2,0.3,0.3,0.7,0.4,1.1
		c-14.3-11.2-18.9-26.9-20.3-44c2.3,2.5,1.7,6,3,8.9C469.4,524.1,470.5,527.2,471.7,530.3z"/>
	<path class="st16" d="M169.9,471.1c2.8,0,5.6,0.3,8.2,1.1c1.6,0.5,2.8,1.5,3,3.3c-7.7-1.1-15.2-0.1-22.5,2.4
		c0.4-3.6,3.4-7.8,8.1-11.3C168.4,467.7,166.6,471.2,169.9,471.1z"/>
	<path class="st20" d="M355.5,547.3c4.8,0.4,9.1,1,13.5,1.1c0.3,0,1.8,0,1,1.2c-2.9,3.9-5.9,7.7-9.2,12
		C359,556.6,357.3,552.1,355.5,547.3z"/>
	<path class="st0" d="M757.3,358.8c-1.6-1.7-3.8-2.3-5.8-3.3c-5.5-2.9-9.2-7.4-11.3-13.2c1.6,0.6,2.9,1.7,4.2,2.8
		c6.2,5.2,13.3,8.8,21.1,11.7C762.6,357.5,760,358.2,757.3,358.8z"/>
	<path class="st16" d="M309.5,384.7c-0.7-0.6-1.4-1.3-2.2-1.9c-2.6-2.2-2.6-2.2,0.8-3.5c4.5-1.8,8.8-3.9,12.4-7.2
		c0.9-0.8,1.8-1.6,2.3,0.5c0.3,1.2,1.2,2.2,1.8,3.4c-0.8,1.6-2.4,2.3-3.7,3.3C317.5,381.7,313.8,383.8,309.5,384.7z"/>
	<path class="st8" d="M380.4,627.5c2.2-2.6,3.5-5.5,5.3-8.1c0.4-0.5,0.5-1.5,1.6-1c4.7,2.3,9.2,4.9,14.1,7.8
		C394,626.7,387.2,627.1,380.4,627.5z"/>
	<path class="st15" d="M309.5,384.7c5.4-2.4,10.5-5.2,15.2-8.8c2,1.6,2.2,3.3,0.2,5.1c-0.1,0.1-0.1,0.3-0.2,0.4
		c-2.4,4.2-3.6,5.4-8.1,7.9C315.2,386.4,312.8,384.8,309.5,384.7z"/>
	<path class="st0" d="M186.5,412.1c-5.5-0.1-10.6,1.2-15.4,4.2c-1.7,1-2.4,2.7-3.7,4.1c-1.3-0.1-2.6,0.3-3.8,0.7
		c-1.1,0.4-1.2-0.2-0.9-0.9c2.4-5.6,7.6-12.2,15.4-10.1C181,410.7,183.9,411,186.5,412.1z"/>
	<path class="st19" d="M263.1,611.3c3.8,1.1,7,3.5,10.4,5.3c1.9,1.1,4.2,1.6,5.7,3.4c-2.1,1.6-4.2,3.1-6.3,4.7
		c-1,0.8-1.8,0.8-2.5-0.5C267.9,620,265.2,615.8,263.1,611.3z"/>
	<path class="st15" d="M161.6,524.5c1.8,0.7,2,1.8,1.7,3.8c-0.7,4.8-0.1,9.5,2.9,13.6c0.7,0.9,0.8,1.4-0.1,2.2
		c-2,1.9-3.9,3.9-5.8,5.8c-0.6,0.6-1.2,0.9-1.6-0.1c-0.6-0.8-0.5-1.7-0.3-2.6c1.5-6.8,2.1-13.8,2.5-20.7
		C161,525.8,161,525,161.6,524.5z"/>
	<path class="st16" d="M330.1,385.3c-0.5,1.8-1.8,3.4-2,5.3c-3-3.8-3.1-4.6-0.4-8.6c2.2-3.2,4.6-6.1,8.1-8.1c3-1.8,3.8-1.7,6,1.1
		c-3.9,2.5-7.4,5.6-10.7,8.9c-0.7,0.6-1.5,0.2-2.3-0.1c-0.2-0.1,0,0.5,0,0.2C329.5,384.1,330.2,384.3,330.1,385.3z"/>
	<path class="st16" d="M161.1,443.4c0.4,8-0.6,16-0.4,23.9c-1.1,1.6-2.3,3.1-4.1,4.8c0.7-4.2,0.5-8.1,0.7-12
		c0.2-3.3,0.6-6.5,0.9-9.8c0.2-1.6,0.3-3.2,0.5-4.8C158.9,444.2,160.1,443.9,161.1,443.4z"/>
	<path class="st20" d="M232,594.2c-6.8-2.7-13.8-4.9-21-6.3c3.9-1.2,7.7-2.8,11.5-4.5c1.1-0.5,1.6-0.2,2.2,0.8
		C226.9,587.7,229.1,591.2,232,594.2z"/>
	<path class="st8" d="M236.3,377.9c1.9-0.1,3.8-0.8,5.8-0.5c0.8,0.1,2.1-0.1,2.1,1c-0.1,0.9-0.8,1.8-2.1,2c-3.8,0.5-7.5,1.2-10.9,3
		c-2.1,1.1-4.1,2.3-5.6,4.2c-2.2,2.7-5.1,3.5-8.2,4c-0.3-0.6,0.1-1.1,0.5-1.5C222.9,384.5,228.7,379.9,236.3,377.9z"/>
	<path class="st0" d="M162.1,569.3c1.5,3.2,3.9,5.8,6.2,8.4c1.2,1.3,2.3,2.7,3.1,4.3c-8.4-2.1-16-9.8-15.4-17.9
		C158.2,565.9,160.4,567.3,162.1,569.3z"/>
	<path class="st1" d="M168.9,381.8c0.6,6.5,2.4,12.6,6.8,17.6c2,2.3,4.6,4.4,7.9,4.9c-1.6,1.1-3.3,1.2-5.1,0.7
		c-0.5-0.1-1-0.3-1.4-0.2c-3.4,1.3-4.3-1.2-5.3-3.5c-2.3-5.8-3.6-11.9-3.4-18.2C168.5,382.6,168.5,382.2,168.9,381.8z"/>
	<path class="st0" d="M405.3,315.9c-3.8,0.4-7.5,1.1-10.7,3.4c-4.4-0.9-8.6-2.3-13.2-2.1c3.8-2.3,8-2.6,12.2-3.4
		c3.9-0.7,7.5-0.3,11,1.5C404.8,315.5,405,315.7,405.3,315.9z"/>
	<path class="st1" d="M236.3,377.9c-3,1.2-5.8,2.8-8.5,4.4c-4.1,2.4-7.4,5.7-10.5,9.2c-1.7,1-3.5,1.4-5.8,2.2
		C217.3,383.9,225.5,378.9,236.3,377.9z"/>
	<path class="st16" d="M161.6,524.5c0,8.6-1.2,17-2.9,25.3c-1.7-1.1-2-2.5-1.7-4.5c0.8-4.7,1.2-9.4,1.7-14.1
		c0.3-2.7,0.4-5.5,0.6-8.6C159.9,523.6,160.8,524,161.6,524.5z"/>
	<path class="st14" d="M369.6,379.4c3.1,1.2,4.9,3.8,7.2,6c0.4,0.4,0.5,0.8,0,1.2c-0.6,0.5-1.1,1.2-2.1,0.6
		c-1.5-0.9-2.6-2.2-3.8-3.3c-3.5-3.5-4-3.5-8.4-1.4c-2.9,1.4-5.8,2.8-8.8,4.1c-0.6,0.3-1.5,1.2-2,0c-0.3-0.8-0.6-2,0.9-2.3
		c2.3-0.6,4.5-1.6,6.7-2.6C362.5,380,365.8,378.5,369.6,379.4z"/>
	<path class="st14" d="M199.7,503.4c0.4-6.6,0.7-13.3,3.4-19.5c0,6.5,1.2,13,1,19.5c0,0.7,0.3,1.6-0.3,2.1c-0.8,0.6-1.2-0.6-1.8-0.8
		C201.3,504.2,200.5,503.8,199.7,503.4z"/>
	<path class="st16" d="M383.7,320.4c-0.3,2-0.6,3.9-1,5.9c-3.9-1.2-7.8,0.3-11.7,0c1.7-4.2,4.2-5.9,8.5-5.9
		C381,320.3,382.4,320.3,383.7,320.4z"/>
	<path class="st20" d="M376.3,513.5c-0.9,2.4-1.6,4.6-2.4,6.8c-0.4,1.1-0.9,1.8-2.4,1c-2.8-1.6-5.8-3-8.7-4.5
		c-0.1-0.1-0.1-0.3-0.2-0.5C367.1,515.4,371.6,514.5,376.3,513.5z"/>
	<path class="st16" d="M175.4,544.9c-3.6,3.3-6.9,6.8-9.8,10.8c-0.9,0.1-1.3-0.6-1.9-0.9c-1.5-0.7-1.9-1.6-0.4-2.8
		c2.4-2.1,4.5-4.4,6.8-6.5C172,543.6,173.5,544,175.4,544.9z"/>
	<path class="st1" d="M487.8,461.9c-2.7,0-5.1,0.8-7.3,2.4c-1-0.5-2-1-3.2-1c-2.1-0.1-2-1.2-1.1-2.7c2-3,6.6-3.5,9.5-1.1
		C486.5,460.3,487.1,461.1,487.8,461.9z"/>
	<path class="st20" d="M374.2,544.3c-0.6-3.3-1.1-6-1.7-8.6c-0.2-0.9,0-0.9,0.8-1.1c2.6-0.8,5.1-0.2,8.3-0.5
		C379,537.6,376.8,540.7,374.2,544.3z"/>
	<path class="st0" d="M135.7,531.8c3,5.8,6.2,11.4,10.1,16.7c0.8,1.1,2,1.9,2.2,3.4c-4.6-4.5-8.4-9.8-11.9-15.2
		c-1.1-1.7-2.6-3.3-3.1-5.5C133.9,531.2,134.9,531.2,135.7,531.8z"/>
	<path class="st16" d="M166.9,526.4c0.4,5.4,2.7,9.9,5.9,14.1c-1.2-0.4-2.6,1-3.6-0.1c-1.5-1.5-2.3-3.4-2.7-5.6
		C166,532,165.7,529.2,166.9,526.4z"/>
	<path class="st20" d="M385.6,528.2c-0.4-1.3-0.8-2.4-1.1-3.5c-0.3-1.2-0.6-2.3-0.9-3.5c2.3-0.8,4.4,0.7,7.2,0.1
		C388.9,523.9,387.6,526.3,385.6,528.2z"/>
	<path class="st23" d="M177.5,469.5c-1,0.5-1.9-0.2-2.8-0.4c-1.3-0.3-2.5-0.5-3.8,0.1c-1.1,0.5-1.6,0-1.8-1c-0.2-1-0.3-1.8,0.8-2.2
		C172.9,464.7,176.1,466.2,177.5,469.5z"/>
	<path class="st14" d="M332.2,403.1c-3.5,1.2-5.6-0.6-7.1-3.4C328.9,397.4,330.4,398.1,332.2,403.1z"/>
	<path class="st1" d="M546.3,397.9c-0.8-0.8-2.4-0.6-2.9-1.9c0.5-0.5,1.2-0.6,1.8-0.4c2.9,0.7,5.2-0.1,7-2.5c1.5,1.1,3,2.3,3.4,4.4
		C552.6,397.2,549.5,398.2,546.3,397.9z"/>
	<path class="st23" d="M344.9,341.7c-2.3-0.8-4.4-1.2-6.7-0.4c-1.4,0.5-1.4-0.8-1.7-1.5c-0.3-0.8-0.1-1.6,0.9-1.9
		C340.2,337,343.7,338.7,344.9,341.7z"/>
	<path class="st0" d="M186.5,585.4c5.2,0,10.5,0.4,15.7,1c-3.1,1.3-6.4,1.1-9.7,0.9c-2.1-0.1-4.1-0.6-6.2-0.9
		c-0.3,0-0.9,0.2-0.8-0.5C185.6,585.5,186.1,585.5,186.5,585.4z"/>
	<path class="st14" d="M366.3,392.8c0.7-2.5,1.3-4.4,2.1-6.2c0.6-1.3,1.1-1.2,2.1-0.3c2.7,2.5,2.7,2.5-0.6,4.4
		C368.9,391.3,367.9,391.9,366.3,392.8z"/>
	<path class="st16" d="M369.6,379.4c-3.8,0.4-7.4,1.3-10.9,3c-2,1-3.9,1.9-6.2,1.9c3.8-1.4,7.3-3.6,10.9-5.5
		C365.8,377.6,367.7,377.9,369.6,379.4z"/>
	<path class="st16" d="M378.9,335c-0.7,1.3-1.3,2.5-2,3.8c-2.6-0.8-4.8-2.3-7.3-3.3C372.7,335.2,375.8,334.6,378.9,335z"/>
	<path class="st14" d="M324.3,391.1c0.2,0.1,0.4,0.3,0.6,0.4c0.8,1.2,2.3,2.4,1.5,3.9c-0.7,1.3-4.3,0.6-5.6-0.8
		C321.1,392.6,322.5,391.7,324.3,391.1z"/>
	<path class="st1" d="M477,516.1c1,2,2.6,3.6,3.9,5.3c-2.4-0.3-4.1-1.8-5.9-3.2c-0.6-0.4-1.3-1.1-1-1.8c0.3-0.7,1.1-0.2,1.7-0.3
		C476.2,516.1,476.6,516.1,477,516.1z"/>
	<path class="st16" d="M324.3,391.1c-1.1,1.2-2.7,2-3.5,3.5c-0.8-1-2.9-1.4-1.8-3.3C319.9,389.8,322.1,389.8,324.3,391.1z"/>
	<path class="st16" d="M162.6,513.7c-1.8,1.5-1.8,3.7-1.9,5.8c-1-1.1-1.6-2.4-1.9-3.7c-0.3-1.1-0.1-2.7,0.7-3.1
		C160.3,512.3,161.8,512.6,162.6,513.7z"/>
	<path class="st11" d="M135.2,456.5c-1.5,2.8-0.8,6.4-3.7,8.5C132.4,462,133.2,459,135.2,456.5z"/>
	<path class="st15" d="M153.9,476c0.9,1.9,0.5,3.6-0.4,5.8c-0.2-1.9-1.1-3-1.6-4.4C152.3,476.7,153,476.2,153.9,476z"/>
	<path class="st20" d="M385.4,512.3c1.4-0.1,2.6,0,3.8-0.7C388.7,514,389.4,514.9,385.4,512.3z"/>
	<path class="st16" d="M153.9,476c-0.4,0.9-1.2,1.1-2,1.4c-0.6-0.8-0.6-1.5,0.4-1.9C153,475.3,153.7,474.7,153.9,476z"/>
	<path class="st16" d="M172.6,501.3c-1.1,0.3-1.8,0-2.4-0.6C171.2,500.3,171.9,500.6,172.6,501.3z"/>
	<path class="st12" d="M795.8,281.2c-0.8-0.7-0.3-1.6-0.4-2.4C796.3,279.5,795.8,280.4,795.8,281.2z"/>
	<path class="st12" d="M564.4,345.7c7.6,1.8,15.2,3.6,22.8,5.5c15.7,4,31.7,6.8,47.6,10c11.1,2.3,22.5,3.4,33.7,5
		c7.7,1.1,15.4,1.4,23.2,1.9c7.5,0.5,15.1,0.9,22.6,0.9c9.5,0,19-0.2,28.4-1c11.7-1,23.4-2.3,34.9-5.4c6.6-1.8,13.3-3.3,20.1-4.6
		c8.4-1.7,16.4-0.3,23.8,4.1c0.4,0.2,1.1,0.4,0.9,1c-0.3,0.9-1.4,0.8-2.1,1c-8.1,2-16.2,3.8-24.2,6.1c-9.5,2.7-19.3,3.7-29.1,5.1
		c-6.2,0.9-12.6,0.5-18.9,1.2c-11.9,1.3-23.8,1.1-35.8,0.8c-9.4-0.2-18.9-1.4-28.3-1.8c-6.5-0.3-12.8-1.4-19.3-2.1
		c-10.4-1.1-20.7-3-31-5c-13.8-2.7-27.2-7.3-40.7-11.1c-9.4-2.7-18.5-5.9-27.2-10.4c-0.5-0.3-1.1-0.6-1.6-0.9
		C564.4,345.9,564.4,345.8,564.4,345.7z"/>
	<path class="st12" d="M395.6,436.5c4.7-5.6,9.9-10.5,15.4-15.3c2.6-2.3,5.1-4.7,7.7-7.1c6.9-6.4,13.7-13,21.9-18
		c10.6-6.5,21.2-6.3,31.9-0.2c2.4,1.4,4.1,3.3,5.6,5.5c1.4,2.1,1.1,3-1.1,4.2c-3.9,2.2-8.3,2.8-12.5,3.9c-6.7,1.8-13.6,3-20.2,5.1
		c-11.3,3.6-22.3,7.8-32.6,13.7C406.4,431.4,400.9,433.8,395.6,436.5z"/>
	<path class="st12" d="M425.1,321.8c5.5,0.4,10.3,0.6,15.1,1.1c5.8,0.6,11.6,1.9,17.5,2.3c11.9,0.8,22.5,4.7,32.3,11.3
		c1.7,1.1,3.3,2.3,4.7,3.8c0.3,0.3,0.8,0.6,0.6,1.2c-0.2,0.4-0.7,0.4-1.1,0.3c-4.8-0.3-9.7-0.5-14.5-0.8c-3.2-0.2-6.5-0.3-9.7-0.5
		c-7.6-0.6-15.2-0.8-22.9-0.6c-6.9,0.2-11.8-2.6-14.8-8.8C430.7,327.7,428.1,324.9,425.1,321.8z"/>
	<path class="st12" d="M240.7,456.8c-2.7-4.6-5.3-9.2-8-13.8c-3.2-5.6-7.5-10.5-11.3-15.7c-4.7-6.7-11.2-11.6-17.5-16.7
		c-0.9-0.7-2.2-1.3-2-2.5c0.2-1.2,1.6-1.6,2.6-2c4.7-1.9,9.5-3.6,14.3-5.5c1.1-0.4,1.9-0.1,2.6,0.7c1.3,1.5,2,3.3,1.4,5.1
		c-1.2,3.9-0.1,7.4,1.9,10.6C232.3,429.3,236.8,442.9,240.7,456.8z"/>
	<path d="M402.8,461.4c1.1,2.6,2.4,5.2,3.3,7.8c5.3,14.4,8.9,29.2,11.7,44.2c0.9,4.9,1.6,10,1.5,14.9c-0.3,9.4-1.7,18.8-4.3,27.9
		c-2.4,8.1-5.7,15.8-10.4,23.4c0-2.2,1-3.5,1.5-5c0.5-1.5,1.3-3,1.9-4.5c3.3-8.1,5.7-16.5,7.1-25.1c0.8-4.8,1.2-9.6,1.3-14.5
		c0.3-10-1-19.8-3.4-29.5c-2.1-8.4-4-16.8-6.5-25.1c-1.4-4.7-3.2-9.3-5.7-13.6c-2.4-5.1-5.5-9.8-8.6-14.6c-2.6-4.1-5.1-8.2-8.4-11.9
		c2.2,1.9,4.5,3.7,6.2,6.1C394.7,448.3,398.8,454.9,402.8,461.4z"/>
	<path d="M293,478.5c0.3,1.6,1.1,2.9,1.9,4.2c4.7,7.8,6.7,16.6,9.7,25c-1.5-1.3-1.8-3.2-2.6-4.8c-0.8-1.7-1.4-3.4-2.2-5.1
		c-3.1-6.6-6.3-13.1-10.2-19.3c-5-8.7-10.5-17.1-17.6-24.2c-2.1-2.1-4-4.5-6.1-6.6c-7.7-7.5-15.6-14.6-23.8-21.4
		c-0.4-0.3-0.8-0.5-1.1-1c3.7,0.8,6.4,3.1,9.4,5c5.3,3.3,10,7.5,14.5,11.7c3.5,3.3,6.4,7,9.7,10.6c6,6.5,10.6,14,15.5,21.3
		C291.1,475.4,291.3,477.4,293,478.5z"/>
	<path d="M764.6,404.3c1,3.6,2,7.1,2.9,10.7c1.8,6.9,0.5,13.6-0.7,20.4c-0.3,1.5-0.9,3-0.8,4.5c-1,2.6-1.6,5.4-3.3,7.8
		c0.4-2.4,0.9-4.9,1.3-7.3c0.7-4.9,1.8-9.7,1.8-14.6c0-7.2-0.6-14.3-3.8-21c-1.7-5.4-3.9-10.5-7.1-15.2
		C759.6,393.6,762,399,764.6,404.3z"/>
	<path d="M496.7,346.1c10.9,6.9,22.2,38.6,20.6,52.8c-1.6-9.4-3.7-18.7-7.2-27.6C506.6,362.4,502.3,354,496.7,346.1z"/>
	<path d="M386.2,463.4c-0.9,0-1.8,0-2.6,0c-8.4-0.1-16.8,0.9-25.2,1.4c-5.2,0.3-10.5,0.7-15.7,1.1c-5.9,0.5-11.7,1.3-17.5,1.8
		c-4,0.4-8,0.8-12.1,1c-1.7,0.1-3.3,1-5.7,0.2C334,465.5,359.9,461.4,386.2,463.4z"/>
	<path d="M627.6,405.3c-2.6-13.7-6.9-26.8-14.1-39.3C620.7,370.1,628.5,391.9,627.6,405.3z"/>
	<path d="M531.2,373.6c-1-0.7-2.5-0.9-3.2-2.3c1-0.2,1.5,0.6,2.2,0.7c1-0.7,2.1-0.2,3.1-0.1c3.4,0.2,4-0.4,3.8-3.7
		c-2.4-2.3-3.5-2.4-8.4-1.2c2.5-3.5,7.7-3,10.8,1.2c1.8,2.8,0.1,5.9-3.6,6.3C534.3,374.7,532.7,374.3,531.2,373.6z"/>
	<path d="M552.2,393.1c-0.5,2.5-3.1,3.9-6.2,3.4c-0.9-0.1-1.7-0.3-2.6-0.4c-1-1-2.6-1.2-3.2-2.9c1.3,0.5,2.5,1,3.6,1.4
		c0.9-0.6,1.9-0.2,2.8-0.1c1.6,0.1,2.7-0.4,2.6-2.3c-2.4-2.6-5.3-2.1-8.3-1.6c3.1-2.8,7.4-2,9.5,0.5
		C551.1,391.8,551.7,392.4,552.2,393.1z"/>
	<path d="M522.9,347.6c1.3,0.1,2.6,0,3.8-0.5c0.9-0.4,1.5-0.9,1.5-2c0-1-0.8-1.3-1.5-1.7c-2.9-1.4-5.6-0.6-8.6,0.9
		c2.5-3.4,8.1-4,10.8-1.6c1.6,1.4,1.6,2.8,0.1,4.4c-2.2,2.4-4.9,2-7.6,1.5c-0.2-0.2-0.6-0.7-0.5-0.7
		C521.5,347.4,522.3,347.8,522.9,347.6z"/>
	<path class="st1" d="M531.2,373.6c1.9,0.1,3.7,0.9,5.7,0.1c2.8-1.3,3.5-2.5,2.6-5.5c0.9,0.6,1.8,1.1,2.6,1.8c2,1.9,1.6,4.4-1,5.1
		C537.7,376,534.3,375.7,531.2,373.6z"/>
	<path class="st1" d="M537.1,368.2c0.9,0.8,1.3,2,0.8,3.1c-0.5,1.1-1.7,1.3-2.9,1.4c-1.6,0.1-3.2-0.3-4.8-0.5
		C531.9,369.6,534.3,368.5,537.1,368.2z"/>
	<path class="st1" d="M549.3,392.1c1.6,1.6,0.6,2.3-0.9,2.8c-1.5,0.5-3-0.3-4.5-0.4C545.2,392.6,547.2,392.2,549.3,392.1z"/>
	<path d="M423.8,452.1c-1.9,4.1-2.6,8.6-3.3,13.1c-0.7,4.4-1.4,8.8-1,13.2c0.6,6.9,0.2,13.9,2.3,20.6c0.6,2,1.6,3.8,2.4,5.9
		c-1.2,0.3-1.6-0.7-2.4-1c-4-5.9-4.4-12.6-5-19.4c-0.8-9.8,0.4-19.3,2.6-28.8c1-4.4,2.8-8.5,5.5-12.1c2.8-3.6,9.9-7.3,13.7-6.6
		C430.8,439.2,426.5,444.9,423.8,452.1z"/>
	<path class="st12" d="M555.1,402.3c11-1.2,21.7,0.4,32.5,2.2c15.2,2.5,29.4,8.2,43.9,13c1.8,0.6,3.4,1.6,5,2.5
		c0.5,0.2,1.2,0.4,1,1.1c-0.2,0.6-0.8,0.7-1.4,0.7c-2.6,0.1-5.1-0.7-7.6-1.2c-12.1-2.5-24.1-5.2-36.2-7.4
		c-5.9-1.1-11.9-1.4-17.8-1.6c-3.5-0.1-6.9-0.7-10.4-0.4c-0.5,0.1-0.9-0.2-1.2-0.6c-1.8-2.2-4-4.2-6.2-6
		C555.8,404.1,554.9,403.5,555.1,402.3z"/>
	<path class="st12" d="M561.6,411.1c-7.2,0.6-14.5,1.3-21.7,1.9c-6.7,0.5-13.4,0.8-19.8-1.9c-2.1-0.9-3.9-2.2-6.3-3.8
		c13.7-2.9,27-4.1,40.3-5C556.8,405.1,560.2,407.3,561.6,411.1z"/>
	<path d="M585.9,439.4c10-2.7,20.2-3.6,30.5-4.4c10.3-0.8,20.5,0.1,31,1.1c-2.1-4.8-4.2-9.2-6.2-13.7c0.1-0.1,0.3-0.1,0.4-0.2
		c2.9,5.1,5.7,10.2,8.9,15.8c-11.2-0.8-21.9-2-32.6-1.4C607.2,437.2,596.6,437.9,585.9,439.4z"/>
	<path d="M561.6,411.1c-2.5-2.9-5-5.9-7.5-8.8c0.3,0,0.7,0,1,0c1.3,2,3.5,3,5.1,4.8c1.2,1.4,2.5,2.7,3.7,4.1
		c3.4,4.3,6.2,9.1,8.5,14.1c1.6,3.4,2.7,6.9,2.6,10.7C571.7,427.1,566.8,419,561.6,411.1z"/>
	<path d="M557.9,416.5c1.8-0.2,3.4,0.4,3.5,2.3c0.1,1.6-1.5,2.4-2.7,2.3c-1.6-0.2-3.3-1.1-3.4-3.1
		C555.2,416.2,556.7,416.6,557.9,416.5z"/>
	<path d="M625.3,447.3c-2.1,0-3.6-0.5-4.6-1.8c-0.3-0.4-0.1-0.9,0.3-1.3c1.2-1.2,2.7-0.8,4.1-0.5c1.2,0.3,2.9,0.4,2.6,2.2
		C627.5,447.3,626.1,447.4,625.3,447.3z"/>
	<path d="M568.6,433.1c1.4-0.1,2.5,0.3,2.5,1.7c0,1.1-0.6,2.3-2.1,2.1c-1.3-0.1-2.6-0.4-2.6-2.2
		C566.4,433.1,567.5,433.1,568.6,433.1z"/>
	<path d="M577,445.8c1.1,0,2.1,0.6,2.1,2.2c0,1.4-1.1,1.7-2.1,1.7c-1.5,0-2.5-0.9-2.6-2.2C574.3,446.3,575.4,445.8,577,445.8z"/>
	<path d="M600.4,448.8c-1.1-0.1-2.6,0.3-2.6-1.2c0-1.5,1.3-1.8,2.6-1.8c1.3,0,2.5,0.3,2.5,1.7C602.9,449.2,601.3,448.5,600.4,448.8z
		"/>
	<path d="M666.5,446c0,1.3-0.8,1.7-1.6,1.7c-1.1,0-1.9-0.8-2.1-1.8c-0.2-1,0.8-1.6,1.8-1.5C665.7,444.4,666.2,445.2,666.5,446z"/>
	<path d="M644.6,442.4c1.1,0,2,0.3,1.8,1.3c-0.2,1.5-1.5,1.1-2.5,1.1c-0.7,0-1.7-0.1-1.6-1C642.5,442.5,643.6,442.3,644.6,442.4z"/>
	<path d="M658.9,433.1c-0.8-0.3-2-0.4-2.1-1.6c-0.1-1.1,0.8-1.3,1.7-1.2c1.1,0,1.9,0.6,2,1.7C660.6,432.8,659.8,433.1,658.9,433.1z"
		/>
	<path class="st12" d="M842.8,535.1c-4.4-0.5-8.8-1.1-13.1-1.6c-5.8-0.7-11.7-1.5-17.5-2.2c-6-0.8-12-1.5-18-2.3
		c-5.7-0.7-11.4-1.3-17-2.1c-7.1-1-14.2-1.9-21.3-3c-9.3-1.5-18.6-3.1-27.9-4.8c-9.6-1.8-19.1-3.8-28.7-5.8
		c-17-3.6-33.9-7.5-50.7-11.7c-4.5-1.1-9.2-1.9-13.3-4.4c-0.7-0.4-1.4-0.8-2-1.4c-2.5-2.5-2.2-4.2,0.9-5.8c4.1-2.2,8.6-2.7,13-3.8
		c6.3-1.5,12.6-3,18.9-4.2c7.3-1.4,14.6-2.7,22-3.4c7.9-0.8,15.7-1.9,23.5-2.9c0.3,0,0.6,0,1,0.4c-3.8,0.8-7.6,1.7-11.5,2.5
		c-12.5,2.7-25.1,4.5-37.3,8.3c-2.2,0.7-4.5,1.3-6.5,2.7c-2.4,1.7-2.3,3.3,0.3,4.6c4.2,2.1,8.6,3.6,13.2,4.7c13,3.3,25.9,7,39,10.1
		c11.5,2.7,23.1,4.9,34.6,7.2c9,1.9,18,3.8,27,5.5c11.4,2.2,22.9,4.1,34.3,6.2c9.3,1.7,18.6,3.4,27.8,5.1c3.1,0.6,6.3,1.1,9.4,1.7
		C842.8,534.8,842.8,534.9,842.8,535.1z"/>
	<path d="M873,542.9c2.8,0.8,5.8,0.4,8.7,0.8c-3.1,0.1-6.2,0.6-9.3,0.7c-7,0.1-14,0.2-21,0c-9.5-0.3-19.1-0.8-28.6-1.5
		c-6.3-0.5-12.6-0.9-18.8-1.4c-8.3-0.6-16.5-1.5-24.8-2.8c-7.7-1.2-15.5-2-23.3-3.1c-9.5-1.3-18.9-3.4-28.3-5.3
		c-13-2.6-25.9-5.4-38.8-8.7c-17.1-4.4-34.2-9.1-51.2-14c-13-3.8-26.1-7.4-39.2-11.1c-0.3-0.1-0.6-0.3-0.8-0.8
		c3.6,0.9,7.1,1.8,10.7,2.7c6.8,1.7,13.6,3.4,20.5,5c0.5,0.1,1,0.1,1.5,0.1c6.6,2.2,13.4,3.6,20.1,5.3c18.5,4.7,37.1,9.4,55.7,13.8
		c13.2,3.1,26.5,5.6,39.7,8.3c10.5,2.1,21.2,3.4,31.8,4.8c7.9,1,15.8,2.1,23.8,2.7c9.5,0.6,19,1.7,28.5,2.4
		c6.7,0.5,13.3,1.2,20.1,1.5C857.7,542.4,865.3,543.1,873,542.9z"/>
	<path class="st6" d="M800.8,498c-2,2.1-4.8,1.4-7.3,1.9c-7.2,1.4-14.4,2.5-21.7,4.2c3.2,1,6.4,2.1,9.7,3c8.5,2.3,16.7,5.1,25.1,7.7
		c11.8,3.6,23.3,7.9,34.7,12.5c3.8,1.5,7.4,3.2,11.1,4.9c4.3,2,8.5,4,12.7,6.1c0.7,0.3,1.6,0.5,2,1.3c-4.1-1.2-8-3.1-11.9-4.9
		c-13.8-6.1-28.1-10.9-42.3-15.8c-17-5.9-34.4-10.1-51.7-15.1c-1.5-0.4-3.1-1-4.9-1.5c3-1.8,6.1-2.2,9.1-2.8
		c5.4-1.1,10.9-1.6,16.4-1.5c2,0,3.8-0.5,5.8-0.6C792.1,497.3,796.4,498.2,800.8,498z"/>
	<path d="M875.5,523.9c-9.1,1.5-18.2,2.9-27.4,4.4C851.2,525.6,868.1,522.8,875.5,523.9z"/>
	<path d="M831,507.4c-9.8,1.9-19.8,3-29.8,3.7C810.9,507.7,821.1,508.5,831,507.4z"/>
	<path d="M772.6,272c4.9,25.9-2.3,49.4-14.6,71.8C767.8,320.9,773.2,297.1,772.6,272z"/>
	<path d="M780.3,330c0.4,0,0.7,0.1,1.4,0.2c-0.8,0.4-1.3,0.6-1.8,0.9c-4.2,0.6-8.4,1.6-12.7,1.4c-0.6,0-1.3,0-1.9-0.2
		C770.1,330.8,775.3,331.1,780.3,330z"/>
	<path d="M787.6,294.9c0.8,0,1.6,0,2.7,0c-1,0.8-1.8,1-2.7,1.1c-3.3,0.3-6.5,1.1-10,0.9C780.9,295.1,784.4,295.8,787.6,294.9z"/>
	<path class="st6" d="M961.9,294.9c0.2-0.3,0.4-0.4,0.6,0c1.8,3.4,1.8,7.2,1.5,10.9c-0.5,7.8-1.7,15.6-2.8,23.4
		c-0.8,5.5-2.2,10.9-3.3,16.4c-1.7,7.8-4,15.4-6.3,23c-2.2,7.2-5,14.1-8,20.9c-2.6,5.9-5.3,11.9-8.9,17.3c-1,1.5-1.9,3.1-3.1,4.4
		c-0.3,0.3-0.6,0.6-1,1c-0.7,0-0.6,1.2-1.5,1c-4.4,1.9-8.6,4-13.1,5.7c-10.6,4-21.6,6.8-32.7,9c-4.1,0.8-8.3,1.5-12.5,1.5
		c-5.5,0-10.6-1.5-14.8-5.2c-2.6-2.3-4.1-5.3-3.2-9.1c1.5-6.1,4.4-11.4,8.3-16.3c5.8-7.4,12.2-14.3,19.1-20.7
		c1.5,0.7,1.3,2.3,1.6,3.6c1.9,6.9,5.3,12.9,11.2,17.3c8.6,6.4,19.1,4.3,25.9-3.2c4.8-5.3,7.4-11.6,8.6-18.5
		c0.8-2.7,2.7-4.6,4.3-6.7c3.1-4.4,6.4-8.8,9.5-13.2c1.7-2.3,1.6-2.3-0.7-4.1c-2.5-1.9-5.1-3.8-7.6-5.7c-0.7-0.5-1.6-0.9-1.5-2
		c5.8-1.2,11.6-2.9,17.5-3.7c1.9-0.3,3.7-0.3,5.3,0.9c1.3,1,1.4,0.3,1.6-0.8c1.3-5.7,2.4-11.5,3.3-17.3
		C960.8,314.6,961.8,304.8,961.9,294.9z"/>
	<path class="st24" d="M931.6,345.2c3.6,2.7,7.1,5.6,10.7,8.2c1.6,1.1,1.3,1.8,0.3,3c-4.7,6.4-9.4,12.9-14,19.4
		c-0.2,0.3-0.3,0.7-0.5,1.1c-1.3,2.4-2.7,4.6-4.5,6.7c-0.9,1.2-1.8,2.5-2.7,3.8c-0.8,1.1-1.7,1.1-2.7,0.2c-1.1-1.1-2.1-2.2-3.1-3.4
		c-2.5-2.9-5.5-5.3-7.8-8.4c-1-1.3-1.7-1-2.7,0.2c-3.1,3.7-6.1,7.4-9.2,11.1c-1.9,2.3-2.5,2.4-4.2,0.1c-2.7-3.5-5.5-6.8-8.3-10.3
		c-1.1-1.4-2.3-2.7-3.1-4.3c-1.3-2.6-3.4-4.6-5.2-6.9c-1.8-2.3-3.7-4.6-5.6-6.9c-0.7-0.8-0.8-1.4,0.1-2.2c2.5-2.1,4.9-4.2,7.3-6.3
		c1-0.9,1.1-0.1,1.5,0.5c1.5,2,2.4,4.4,4.2,6.1c1.2,0.8,1.6,2.2,2.4,3.2c3.5,5.6,7.2,11,10.6,16.6c2.8-4,5.6-8.1,8.5-12
		c1.9-2.6,2.1-2.7,4.5-0.7c3,2.5,5.8,5.1,8.7,7.8c2.1,1.9,2.4,1.8,3.5-0.7c1.3-3.3,2.5-6.7,3.9-10c0.6-1.3,1-2.6,1.6-3.9
		c1.2-2.9,2.2-5.9,3.4-8.8c0.3-0.8,0.5-1.7,1.4-2.2C931,345.9,931.3,345.6,931.6,345.2z"/>
	<path class="st6" d="M931.7,411.1c0.8-2.7,2.7-4.8,4.1-7.1c4.9-8.6,8.7-17.7,12.2-27c3.9-10.2,6.9-20.7,9.1-31.4
		c1.4,0.1,1.7,1.4,2.1,2.4c2,5.6,1.7,11.2-0.7,16.7c-1.5,1.5-3.7,1.1-5.4,1.8c1.4,0,2.9-1.2,4.5-0.5c0.6,0.8,0.3,1.6,0,2.3
		c-3.4,9.4-6.7,18.8-11.1,27.8c-0.4,0.9-0.8,1.8-1.5,2.5c-1,0.5-2.2,0.3-3.4,0.7c-0.1,0,0.3,0.4,0.2,0.1c-0.1-0.1,0-0.2,0.1-0.2
		c0.7,0,1.4-0.5,2.1,0.2C941,404.6,936.7,408.3,931.7,411.1z"/>
	<path class="st25" d="M923.3,383.2c1.9-1.9,2.7-4.6,4.8-6.3c-1.5,9.5-5.4,17.7-13.6,23.2c-6.4,4.3-15.7,3.9-21.8-0.8
		c-6.6-5.1-10.2-11.9-11.9-19.9c-0.1-0.5-0.4-1.1-0.5-1.6c0.2-1.8-0.1-3.6-0.4-5.4c1.5,0.9,2.4,2.5,3.4,3.9c1.6,2.7,1.7,5.9,3,8.7
		c1.9,3.9,4.1,7.6,7.6,10.3c7.5,5.6,16.8,4.8,23-2.2C919.7,390.3,921.8,386.9,923.3,383.2z"/>
	<path class="st25" d="M926.3,357.4c-0.4,1.4-0.8,2.7-1.6,3.9c-1.2-0.1-0.9-1.2-1.2-1.9c-1.9-5.4-4.4-10.3-9.1-13.8
		c-7.6-5.7-17.5-4.5-23.5,3c-2.1,2.6-3.8,5.4-5,8.6c-0.4,1.1-0.7,2.4-1.7,3.2c-0.8-1.1-1.7-2.1-2-3.4c2.5-6.2,5.9-11.6,11.6-15.4
		c6.6-4.3,15.7-4,22,0.7c2.8,2.1,4.7,4.8,7,7.3C925,351.8,926.4,354.3,926.3,357.4z"/>
	<path class="st6" d="M926.3,357.4c-0.6-2.8-2.3-5.2-3.5-7.8c2.1-1.6,4.6-2.4,6.8-3.7c0.4-0.2,0.8-0.1,1,0.3
		C929.4,350,928,353.8,926.3,357.4z"/>
	<path d="M943.9,399.4c-0.8,0-1.6,0-2.4,0c1-0.7,2.1-1.1,3.3-1c0.5-0.8,1.2-1,2-1.1c2.5-0.3,4.9-0.7,7.4-0.9c1-0.1,2.3-0.5,2.7,1.1
		c0,0,0,0,0,0C952.7,398.3,948.4,399.6,943.9,399.4z"/>
	<path d="M929.2,413.1c0.6-0.1,0.4-1.5,1.5-1C929.8,413.8,929.8,413.8,929.2,413.1z"/>
	<path d="M501,644c-8.1-10.2-17.6-18.8-28.2-26.4c-8.2-5.9-17.1-10.8-25.6-16.2c-0.2-0.1-0.3-0.3-0.5-0.5c0.2-0.5,0.5-0.2,0.8-0.1
		c11.5,5.3,22.1,12.2,32.3,19.6c5.5,4,10.3,8.8,15.4,13.3c1.8,1.3,2.7,3.3,3.9,5.1c1.9,2.9,3.9,5.7,5.5,8.9
		C503.3,646.6,502.1,645.3,501,644z"/>
	<path d="M549.3,642.6c-4.4-5.3-9.2-10.2-14.6-14.5c-4.2-3.3-8.1-6.9-12.1-10.5c-3.8-3.5-7.8-6.5-12-9.5c-0.3-0.2-0.4-0.5-0.5-0.8
		c3.7,1.9,7,4.4,10.3,6.8c8.9,6.3,17,13.4,25,20.8c2.2,2.5,3.5,5.6,5.4,8.4C549.9,643.6,549.7,642.9,549.3,642.6z"/>
	<path d="M592.3,643.6c-1.1-2.8-3.1-5.2-4.9-7.4c-6.3-7.8-13.5-14.6-21.6-20.5c-2.1-1.5-4-3.3-6.1-5.1c1.2-0.2,1.9,0.7,2.6,1.2
		c7.2,4.9,14.3,10,20.5,16.2c2.7,2.7,4.9,5.6,7,8.7c0.6,0.9,0.9,1.9,1.9,2.4c0.8,2,1.6,3.9,2.5,6.2
		C593.2,644.9,592.8,644.2,592.3,643.6z"/>
	<path d="M757.7,436.5c-6.7,3.4-26.9,4.9-38.5,3.9C732.1,439.1,744.9,437.8,757.7,436.5z"/>
	<path d="M499,587.4c1.9-3.8,3.8-7.6,5.7-11.5c0.2,0.1,0.4,0.2,0.6,0.3C504.7,580.7,502.5,584.3,499,587.4z"/>
	<path class="st0" d="M213.6,497.9c-0.9-5.4-1.7-10.4-2.6-15.4c-1.5-8.4-3.7-16.5-6.8-24.5c-4-10.3-10.2-19.3-16.9-27.9
		c-0.5-0.7-0.9-1.5-1.4-2.3c-0.7-1.2-0.1-2.2,0.6-3.1c0.7-1,1.8-1.1,2.8-0.7c3.7,1.2,6.6,3.7,8.5,6.9c8.6,13.8,13.4,29.1,15.9,45
		C214.9,483,214.7,490.3,213.6,497.9z"/>
	<path class="st1" d="M958,364.7c1.4-4.8,2.5-9.6,1-14.7c-0.5-1.6-1-3-2-4.3c1.5-6.5,3.1-13,3.9-19.6c0.8-6.7,1.6-13.4,2.4-20.1
		c0.4-3.7-0.4-7.4-0.9-11.1c2.5,0.2,5,0.4,6.8,2.5c-1.1,1.7-2.9,0.7-4.3,1.2c1.8,0.1,3.5-0.8,5.3-0.1c3,3.6,3.8,8,4.5,12.6
		c0.8,5.3-0.3,10.5-0.1,15.7c-0.6,0.8-1.5,0.9-2.4,1.1c-3.2,0.7-6.3,1.7-9.9,2.9c4.4-1.2,8.1-3,12.3-2.9c-0.7,8.9-2.2,17.7-4.2,26.4
		c-0.6,2.7-1.1,5.5-1.7,8.2C965.4,363.9,961.9,365.3,958,364.7z"/>
	<path class="st1" d="M957,397.5c-1.7-1.2-3.4-0.2-5.1,0c-2.4,0.2-4.8,0.3-7.1,1c1.9-4.5,3.9-9,5.8-13.6c2.6-6.1,4.7-12.4,6.9-18.6
		c3.5-1.3,6.9-2.8,10.8-2.9c-2.9,11.3-6.5,22.4-10.8,33.3C957.4,397,957.2,397.2,957,397.5z"/>
	<path d="M968.3,363.3c-3.6,0.9-6.9,2.8-10.8,2.9c-1.6-0.2-3.2,1-5.2,0.2c2-0.6,3.8-1.1,5.6-1.7c3.6-0.8,7.2-1.6,10.8-2.5
		c0.2,0.1,0.4,0.2,0.6,0.3C969,362.8,968.7,363.1,968.3,363.3z"/>
	<path d="M974.6,327.7c-4.1,1.1-8.2,2.2-12.3,3.4c3.7-2.7,8-3.6,12.3-4.4c1.2-0.1,2.3-0.8,3.6-0.2
		C977.2,327.4,975.7,327.1,974.6,327.7z"/>
	<path d="M970.2,298.4c-1.9,0.6-3.9,0.5-6.1,0.4c1.6-1.3,3.6-0.7,5.1-1.4c2.1-0.3,4.2-0.6,6.7-0.9
		C974.1,297.9,972.2,298.2,970.2,298.4z"/>
	<path d="M500.8,539.8c-5.9-3-10.7-7-13.4-13.2C491.8,531.1,495.6,536.2,500.8,539.8z"/>
	<path d="M493.6,543.2c-4.2-3.4-10.2-12.3-9.5-16.3C486.8,532.8,490.4,537.9,493.6,543.2z"/>
	<path d="M492.5,523.6c3.4,4.3,7.5,7.9,12.3,11.4C500.6,534.3,494.7,528.7,492.5,523.6z"/>
	<path d="M499.7,447.4c-1.7,1.7-3,3.8-4.7,5.5c-1.7,1.7-3,3.7-4.6,5.4C492.1,453.5,495,449.7,499.7,447.4z"/>
	<path d="M480.8,526.2c0.9,5.2,2.9,10.1,5.2,15.1C483,539.4,480.3,531.6,480.8,526.2z"/>
	<path d="M507.5,462.7c-2.1,1-4.2,1.8-6.2,2.9c-1.9,1-3.6,2.3-5.5,3.4C498.9,465.4,502.5,462.8,507.5,462.7z"/>
	<path d="M496,520.4c3.8,2.5,7.5,5,11.3,7.5C502.9,526.4,498.8,524.4,496,520.4z"/>
	<path d="M496.5,516c4.3,1.7,7.8,4.2,12,6.1C505.7,522.3,498.9,518.8,496.5,516z"/>
	<path d="M510.9,484.4c-3.7,0.6-7.4,1.3-11.1,1.9C503.1,483.7,507,483.8,510.9,484.4z"/>
	<path d="M495.2,463.6c2.5-3.4,5.4-6.2,9.9-6.8C501.6,458.7,498.2,460.9,495.2,463.6z"/>
	<path d="M498.8,502.2c4.4,0.7,8.6,1.7,12.7,3.4C507,505.2,502.9,503.6,498.8,502.2z"/>
	<path d="M499.3,491.8c4.2-0.5,8.3-1,12.5-1.6C507.9,492.2,503.6,492,499.3,491.8z"/>
	<path d="M499.2,507.5c3.5,1.7,7.3,2.8,10.8,4.6C506,511.4,502.4,510.2,499.2,507.5z"/>
	<path d="M498.8,511.7c3.2,1.5,6.5,3.1,9.7,4.6C504.7,516.1,501.6,514.3,498.8,511.7z"/>
	<path d="M508.3,477.2c-3.6,1.4-7.1,2.5-10.7,4.4C499.5,479.1,504.6,477.1,508.3,477.2z"/>
	<path d="M500.4,453.5c-2.7,2.3-5.3,4.6-8,6.9C494.4,457.2,496.9,454.9,500.4,453.5z"/>
	<path d="M508,471.5c-3.4,1.2-6.8,2.4-10.2,3.6C500.7,472.5,504.3,471.6,508,471.5z"/>
	<path d="M499.9,497.1c3.9,0.3,7.8-0.6,11.6,0.8c-1.9,0.1-3.8,0.3-5.8-0.1c-1.9-0.3-3.8-0.1-5.8-0.1
		C499.9,497.5,499.9,497.3,499.9,497.1z"/>
	<path d="M356.9,339.8c-2.2,0.5-4.4,1-7,1.6C352.7,339.5,353.7,339.3,356.9,339.8z"/>
	<path d="M345.2,338.4c1.1-1.8,2.9-2.1,5.2-1.8C348.6,337.7,346.9,338.1,345.2,338.4L345.2,338.4z"/>
	<path class="st12" d="M462.3,486.7c0.1-3.4,0.6-6.3,1.3-9.1c1-4.4,4.2-7.2,7.8-9.5c0.8-0.5,1.7-0.6,2.5,0.1
		c1.5,1.4,2.5,3.1,2.1,5.2c-0.3,1.7-0.8,3.5-1.4,5.1c-2.8,7.8-4.4,15.8-5.4,24c-0.1,1-0.4,1.9-1.4,2c-0.9,0.1-1.3-0.8-1.7-1.5
		c-2-3.6-2.7-7.6-3.2-11.6C462.7,489.8,462,488.1,462.3,486.7z"/>
	<path class="st13" d="M325.2,362.2c-0.3-5.9,3-8.5,7.8-9.7c4.2-1,8.4-1.8,12.7-1.9c1.7,0,3.5,0.3,5.2,0.4c0.5,0,1,0.4,0.9,0.6
		c-0.1,0.4-0.4,0.9-0.8,1.1c-1.9,1.1-3.8,2.2-5.8,3.1c-5.6,2.6-10.4,6.3-15.2,10c-0.9,0.7-1.7,2.2-3.2,1.5c-1.3-0.7-1.5-2.2-1.6-3.5
		C325.2,363.4,325.2,362.8,325.2,362.2z"/>
	<path d="M191,466.6c-2.9,1.9-6.2,2.5-10,3.7C184.1,467.2,187.5,466.7,191,466.6z"/>
	<path d="M182.1,464.9c-1.3,0.4-2.6,0.9-4,1.3C179.2,465,180.5,464.2,182.1,464.9z"/>
	<path class="st13" d="M185,479.7c-3,2.3-6,3.5-8.8,5.1c-5,2.8-9.9,5.7-14.1,9.5c-2.1,2-3.3,1.6-4.2-1.2c-1.7-5.8,1.2-10.8,7.3-12.6
		c3.8-1.1,7.8-1.5,11.7-2C179.6,478.2,182,479.2,185,479.7z"/>
	<path class="st0" d="M158,504.4c2.6,0.2,5.2,0.3,7.8,0.7c9.7,1.5,19.4,3.3,29.2,4.2c3.1,0.3,6.1,0.6,9.1,1c1.4,0.2,3.7,0.9,3.5,2
		c-0.4,1.7-2.4,0.8-3.7,0.6c-2.6-0.4-5.3-0.3-8-0.6c-7.1-0.7-14-2.2-21-3.3c-4.9-0.8-9.8-2.1-14.7-3.1c-0.8-0.2-1.5-0.5-2.3-0.7
		C158,504.9,158,504.6,158,504.4z"/>
	<path d="M330.1,385.3c-0.7-0.9-1.8-0.8-2.8-1.2c1.2-1.6,2.5,0,3.7-0.2c1.4,1.5,2.7,3.1,2.9,5.2c0.1,1.3,0.2,2.7-1.1,3.7
		C333.1,389.8,332.8,387.1,330.1,385.3z"/>
	<path d="M336.9,387c2.3-2.2,4.9-3.9,8.3-5.2C342.6,384.5,339.8,385.8,336.9,387z"/>
	<path d="M548,404.8c1,0,2.2-0.2,2.2,1.2c0,1.2-1,1.7-2.2,1.7c-1.3,0-2.4-0.9-2.4-1.9C545.6,404.3,547.1,405,548,404.8z"/>
	<path class="st26" d="M884.2,360.4c2.4-8.3,6.6-15.2,15.1-18.2c5.3-1.9,10.4-0.7,14.9,2.5c5.8,4.1,8.6,10.1,10.5,16.6
		c-1.5,4.1-3,8.1-4.5,12.2c-0.4,1.1-0.9,1.1-1.7,0.3c-2.4-2.2-4.9-4.2-7.3-6.4c-1.5-1.3-2.9-2.5-4.3-3.9c-0.7-0.7-1-0.7-1.6,0.2
		c-2.4,3.5-4.9,7-7.4,10.4c-0.8,1.2-1.7,2.3-2.6,3.5C891.5,371.9,887.9,366.2,884.2,360.4z"/>
	<path class="st20" d="M894.9,380.7c3.7-5.1,7.4-10.2,11.2-15.4c4.3,3.7,8.5,7.2,12.6,10.8c1.3,1.2,1.8,0.9,2.4-0.5
		c3.3-7.6,6.7-15.3,10.1-22.9c0.1-0.2,0.2-0.5,0.3-0.7c1.4-3.4,1.7-3.4,4.4-0.9c1.3,1.1,2.5,2.4,3.9,3.2c1.3,0.8,0.9,1.4,0.3,2.3
		c-6.1,8.6-12.1,17.2-18.1,25.8c-1.7,2.4-1.7,2.4-3.7,0.4c-3.5-3.4-6.9-6.9-10.3-10.4c-1-1.1-1.6-1.2-2.6,0
		c-3.6,4.3-7.3,8.6-11,12.9c-0.6,0.7-0.9,0.9-1.6,0c-6.7-8.3-13.4-16.6-20.1-24.9c-1-1.2-1.5-2.3,0.2-3.4c0.5-0.3,0.9-0.9,1.4-1.4
		c2.8-2.8,2.7-2.7,4.8,0.6c5.1,8,10.2,15.9,15.4,23.9C894.3,380.4,894.6,380.5,894.9,380.7z"/>
	<path class="st26" d="M923.3,383.2c-1.8,6.5-5.5,11.6-11.5,14.7c-9.4,4.9-18.9-0.1-24-8.6c-2.4-4-3.8-8.3-4.5-12.9
		c3.1,3.4,6.1,7,8.8,10.9c0.9,1.4,1.6,1.3,2.5,0.1c3.4-4.3,6.9-8.5,10.3-12.7c0.8-1,1.4-1,2.2-0.1c3.7,4.1,7.4,8.1,11.1,12.1
		c0.4,0.5,0.9,0.9,1.5,1.4C921,386.4,922.2,384.8,923.3,383.2z"/>
</g>
</svg>
