<?xml version="1.0" encoding="utf-8"?>
<!-- Generator: Adobe Illustrator 23.0.1, SVG Export Plug-In . SVG Version: 6.00 Build 0)  -->
<svg version="1.1" id="Layer_4" xmlns="http://www.w3.org/2000/svg" xmlns:xlink="http://www.w3.org/1999/xlink" x="0px" y="0px"
	 viewBox="0 0 1000 1000" style="enable-background:new 0 0 1000 1000;" xml:space="preserve">
<style type="text/css">
	.st0{fill:#FB9A7A;}
	.st1{fill:#6E3720;}
	.st2{fill:#FEFEFE;}
	.st3{fill:#C0FEFE;}
	.st4{fill:#7F7F7F;}
	.st5{fill:#00407F;}
</style>
<g>
	<path class="st0" d="M538.9,477.5c-5.1,4.2-11.5,5.4-17.4,7.8c-23,9.3-46.2,18.4-69.3,27.5c-1.3-1-1.3-2.5-1.4-4
		c-0.9-13.6-4.9-26.4-10.7-38.8c-9.3-19.9-18.8-39.7-26.3-60.3c-5.2-14.3-8.5-29.1-8.8-44.3c-0.4-19.8,9-34.2,26.3-43.4
		c13.4-7.1,27.9-10.6,42.9-11.9c5-0.4,10-1.2,15.1-0.9c3.1,0.2,6.2,0.3,8.9,2c2.2,4.1,3.3,8.4,3.1,13.1c-1.4,1.9-3.6,1.9-5.7,2.4
		c-6.7,1.3-13.3,3.1-19.3,6.6c-9,5.3-13,13.3-12,23.7c1.5,17.5,5.7,34.3,12.9,50.3c3.9,8.7,8,17.5,16.1,23.4c9.7,7.1,18.2,5.8,25-4
		c7.8-11.3,10.5-24.4,12.5-37.6c2.1-14.2,1.2-28.5-0.5-42.7c-0.1-1.1-0.2-2.3,0.4-3.3c0.7-1,1.8-1.3,2.8-1.8c7-3.5,8.3-6.6,6.2-14.1
		c-0.7-2.5-3.1-4.8-1.7-7.8c4.4-0.3,8.1,1.5,11.4,4.3c0.7,5.2-0.9,10.1-1.6,15.2c-5.9,16.3-8.9,33.2-11.3,50.3
		c-1.1,7.9-1.5,15.8-2.6,23.7c-0.7,4.9-0.5,9.7,0.7,14.5c0.5,1.7,0.9,3.8,2.9,4.2c1.9,0.4,3.3-1,4.6-2.4c1.2-1.3,2.1-2.9,3-4.4
		c11.4-20.9,18.1-43.4,22.6-66.7c1-4.9-1-9.3-1.6-13.9c1.7-2.8,4.1-4.3,7.5-3.4c3.9,5.7,5.7,12.1,4.3,18.9
		c-4.9,24.1-13.5,46.7-27,67.4c-1.6,2.5-2.2,4.9-1.5,7.8c0.7,2.5,1.2,5.1,1.9,7.6c1.8,6.1-0.3,10.7-5.2,14.5c-8,6.2-17.1,7.6-26.8,6
		c-8.3-1.4-16.5-3.9-24.9-4.9c-9.1-1.1-17,1.1-22.5,8.9c0.3,0.7,0.6,0.8,0.9,0.7c10.9-3.8,21.7-4.1,33-1.1
		c8.2,2.2,16.8,3.6,25.5,2.6C536.8,468.3,537.5,473.6,538.9,477.5z"/>
	<path class="st1" d="M497.9,311.6c-17.6-3.1-34.6,0.4-51.3,5.3c-12.9,3.8-24.8,10-32.7,21.6c-6.6,9.7-8.9,20.7-7.5,32.2
		c1.3,10.4,3,20.8,6.2,31c3.5,11,7.8,21.7,12.4,32.2c6.9,15.9,14.7,31.4,21.4,47.3c4.2,9.9,5.8,20.6,5.8,31.5
		c-1.5,1.2-1.7-0.2-2.1-1.1c-6.8-14.9-13.5-29.9-20.6-44.8c-4.4-9.3-8.6-18.6-13-28c-8.1-17.4-14.5-35.4-17.2-54.4
		c-1.8-12.2-3.4-24.4,0-36.7c2.7-9.7,8.4-16.9,15.8-23.8c14-12.9,31.3-17,48.9-20c8.1-1.4,16.5-2.7,24.9-2.2c4.3,0.2,8.6,0.7,13,1.1
		C501.6,306.2,500.3,309.2,497.9,311.6z"/>
	<path class="st1" d="M538.9,477.5c-2.9-7.5-8.9-6.9-15.5-7c-7.9-0.2-16-1.6-23.6-3.9c-9.1-2.7-17.3-0.2-25.8,2
		c-1.5,0.4-2.9,1.7-4.6,0.9c1.8-9.9,16.2-14.6,25.4-13.1c10.3,1.6,20.2,5.2,30.7,5.6c8.1,0.3,15.3-2.1,21.3-7.4
		c3-2.7,5.2-6,3.3-10.7c-3.4-8.7-2.9-16.1,3.7-24.1c6.2-7.4,8.4-17.5,12.6-26.4c5.3-11.3,7.5-23.4,10.4-35.3c1.2-4.9-1.3-9.4-2.5-14
		c-0.3-1.1-0.7-2.1-1.1-3.2c0.1-3.4,2.6-5.2,5-6.9c8.4,8.3,9.9,18.1,7.4,29.3c-4.3,18.8-11,36.8-20.1,53.8c-1.9,3.5-4,7-6.7,9.7
		c-3.4,3.5-2.8,6.3-0.7,9.9c6,10.3,3,17-4.6,23.9c-1.2,1.1-2.5,1.9-3.8,2.8c-3.2,2.2-6.7,3.8-7.1,8.7
		C542.5,474,540.2,475.7,538.9,477.5z"/>
	<path d="M497.9,311.6c0.8-3.2,1.8-6.3,4-8.7c8.3-4.8,16-4,22.7,2.6c1.4,1.4,3.1,2.2,4.6,3.3c4.2,2.5,6.7,6.4,8.8,10.6
		c0,3.1,2.2,5.5,3.1,8.3c2.6,7.8-0.8,13.4-10,15.3c-5.1,3.4-14.2,2.6-19.4-1.8c-2.5-2.1-4.8-4.3-6.4-7.2c-1-2.1-2.4-4-3.4-6.1
		c-0.6-1.2-1.2-2.4-1.1-3.8C500,319.9,499,315.8,497.9,311.6z"/>
	<path d="M578.2,333.9c-0.9,2.9-3.5,4.5-5,6.9c-2.7,0.2-4.6,2-6.8,3.1c-0.8,1-2,1.2-3.2,1.7c-1.9,0.5-3.8,1.1-5.8,1.3
		c-7.2-0.6-9.7-2.4-10.7-8c0.7-5.2,1.3-10.4,2-15.5c-1.1-3.1,0.2-5.5,2.1-7.8c2.5-3.2,3.2-7.8,8.1-9.1c2.3-0.6,4-0.9,6.2,0.1
		c8.9,3.9,13.3,11,14.9,20.2C580.5,329.3,579.1,331.6,578.2,333.9z"/>
	<path class="st1" d="M550.8,315.6c-0.7,2.6-1.4,5.2-2.1,7.8c-3.5-1.3-7.1-2.7-10.6-4c-3.9-2.7-5.6-7.3-8.8-10.6
		C536.7,310.1,543.9,312.3,550.8,315.6z"/>
	<path class="st2" d="M501,324.1c1.2,0.7,1.2,2,1.8,3.1c-1.2,2-3.2,2-5.1,2.4c-5.5,0.9-10.7,2.8-15.8,4.8
		c-10.2,3.9-14.2,11.4-13.5,23.4c1.3,21.3,7.9,41.1,18.5,59.5c1,1.7,1.9,3.4,3.1,4.9c1.2,1.4,2.2,2.8,3.3,4.3
		c-5.7-14.7-10.8-29.4-12.5-45.1c-1-9.2-2.7-18.3-0.8-27.6c2.7-13.2,12.2-20.8,26-20.8c7.4,9.9,12.6,12.5,25.3,10
		c1.8,12,2.8,24.2,1.9,36.2c-1.3,17.4-4.3,34.4-14.4,49.3c-6.5,9.7-16.5,9.8-25.2,4c-9.1-6.1-13.5-15.6-17.6-24.9
		c-4.7-10.7-8.6-21.8-10.5-33.4c-1-6-1.9-12.1-2.5-18.1c-1.1-12.8,6.7-22.5,19-27C488.2,326.8,494.6,325.6,501,324.1z"/>
	<path class="st2" d="M563.4,344.6c0.7-1.5,1.9-0.8,3-0.7c5.4,7.8,2.3,15.9,0.6,23.8c-4.4,20.3-11.1,39.8-21.1,58.1
		c-2,3.6-4.3,7.8-8.6,7.4c-4.3-0.4-3.9-5.3-4.6-8.6c-1.6-6.9,0-13.9,0.7-20.7c1.1-11.1,2.3-22.3,4.7-33.3
		c2.3-10.7,3.9-21.7,8.7-31.8c2,4.8,5.8,6.9,10.9,7c2.8,4,2.7,8.6,2.2,13.1c-1.3,11.4-3.8,22.6-6.9,33.7c-0.4,1.5-0.9,3.1-2.4,4
		c-2.5-1.2-1.4-3.2-1.2-5c0.4-3.6,0.7-7.1-1-10.5c-1.3-2.5-2.8-3.2-5.3-1c-3.6,3.3-4.1,7.6-4.5,12c-0.3,3.7-0.2,7.4-0.1,11.2
		c0.1,5.2,0.7,5.6,5.6,3.8c0.6-0.2,1.2-0.3,1.9-0.1c1.8,4.4-1.3,7.7-2.6,11.4c-0.9,2.6-2.7,4.8-3.3,6.2
		c11.3-20.2,18.6-41.1,22.5-64.7c0.6-3.4,0.8-6.8,0.1-10.2C562.3,348,562.1,346.2,563.4,344.6z"/>
	<path class="st3" d="M505.9,332.9c-1.2,1.6-3.3,1.4-4.9,1.8c-13.4,3.1-19.9,9.9-20.5,23.3c-0.6,14.3,1.5,28.3,5.2,42.1
		c2.7,10.1,6.3,19.9,10.6,30.8c-6.6-5.3-10.2-11.4-13.3-17.7c-7.9-16-14.4-32.5-15.5-50.6c-0.3-4.2-1-8.2-0.3-12.5
		c1.6-10,7.8-15.1,16.7-18.2c6.1-2.1,12.4-3.6,18.7-4.8C503.5,329.2,505.7,330.6,505.9,332.9z"/>
	<path class="st4" d="M519.5,308.2c9,3.6,13.8,10.8,17.5,18.8c1,2.2-0.5,4.3-2.8,4.8c-3.4,0.7-7.5,0-8.2-3.3
		C524.3,321.6,522.6,314.8,519.5,308.2z"/>
	<path class="st3" d="M550,396.5c3.9-10.3,5.5-21.1,7.7-31.8c1.3-6.3,0.7-12.5-0.1-18.8c1.9-0.4,3.7-1.5,5.8-1.2
		c2.2,31.4-10.3,58.4-25.5,84.5c2.4-7.4,6.6-14.1,7.9-21.9C545.2,402.8,547.4,399.6,550,396.5z"/>
	<path class="st4" d="M566.3,311.7c8.9,6.8,11,13.6,6.9,20.4c-1.4,2.4-3.6,4.5-6.1,3.5c-2.8-1.1-3.3-4.2-1.7-6.9
		C568.5,323.4,566.5,317.8,566.3,311.7z"/>
	<path d="M510.6,395.9c1.1-5.2,1.8-10.6,5.4-14.8c2.1-2.5,4.5-5.4,8.5-3.6c4.1,1.8,6.2,5.4,5.7,9.5c-0.8,6.8-2.2,13.6-5.1,20
		c-2.4,5.3-6.4,5-9.6,1.6C512,405,511.4,400.5,510.6,395.9z"/>
	<path d="M550,396.5c-1.4,3.6-2.8,7.1-4.1,10.7c-0.9,0.7-1.7,1.4-2.7,2c-3.4,1.9-6.1,0.6-6-3.3c0.2-6.2-0.7-12.4,0.7-18.7
		c0.7-3.2,1.9-5.6,4.1-7.7c3.6-3.5,6-3,7.8,1.7c1.4,3.7,1.5,7.6,0.6,11.3C550,393.8,549.9,395.1,550,396.5z"/>
	<path class="st2" d="M528.4,387.3c-0.4,2.2-0.7,4.4-2.8,5.2c-2.1,0.8-3-1.4-4.3-2.6c-0.4-0.4-0.6-1.1-0.9-1.6
		c-1.1-2.2-3.2-4.1-1-6.9c1.2-1.5,2.8-2.2,4.2-1.4C526.4,381.6,528.2,384,528.4,387.3z"/>
	<path class="st5" d="M521.5,404.8c0,1.8-0.6,3.8-2.5,3.2c-3.4-1.1-5.5-3.8-6.2-7.3c-0.3-1.8,0.6-3.2,2.7-3.1
		C518.3,397.7,521.5,401.6,521.5,404.8z"/>
	<path class="st2" d="M548.9,387.5c-0.2,1.9,0.8,4.3-1.8,5c-1.5,0.4-5.2-4.6-5-6.8c0.2-2.5,1.8-5.8,3.6-5.4
		C549,380.9,548.7,384.7,548.9,387.5z"/>
	<path class="st5" d="M540,397.6c2.7,1.4,4.4,3.5,4.9,6.3c0.4,2.3-1.1,4.2-3.1,4.1c-3.1-0.1-3.5-2.9-3.6-5.4
		C538,400.8,537.6,398.6,540,397.6z"/>
</g>
</svg>
