<?xml version="1.0" encoding="utf-8"?>
<!-- Generator: Adobe Illustrator 23.0.1, SVG Export Plug-In . SVG Version: 6.00 Build 0)  -->
<svg version="1.1" id="Layer_4" xmlns="http://www.w3.org/2000/svg" xmlns:xlink="http://www.w3.org/1999/xlink" x="0px" y="0px"
	 viewBox="0 0 1000 1000" style="enable-background:new 0 0 1000 1000;" xml:space="preserve">
<style type="text/css">
	.st0{fill:#FB9A7A;}
	.st1{fill:#6E3720;}
	.st2{fill:#FEFEFE;}
	.st3{fill:#C0FEFE;}
	.st4{fill:#7F7F7F;}
	.st5{fill:#00407F;}
	.st6{fill:#004080;}
</style>
<g>
	<path class="st0" d="M538.1,479.6c-10,5.4-20.9,8.9-31.3,13.4c-18,7.6-36.2,14.7-54.4,22c-0.7,0.3-1.5,0.4-2.3,0.5
		c-2.2-3.9-1.1-8.3-1.6-12.4c-1.5-14.8-6.8-28.4-12.8-41.7c-9.7-21.3-18.9-42.8-23.8-65.9c-2-9.5-4-19.2-2.9-29
		c2.2-19.7,13.2-32.8,31.6-39.6c18.1-6.7,36.8-9.1,56-7.1c4,0.4,8.2-0.6,11.6,2.5c1.4,4,1.4,8.1,1.1,12.3c-1.1,1.8-3.1,1.6-4.8,1.9
		c-5.8,0.9-11.5,2.2-17,4.2c-11.9,4.2-17,10.8-16.3,25.6c0.8,16.3,4.2,32.2,10.3,47.4c3.9,9.7,8.8,18.9,17.3,25.5
		c9,7,16.9,5.9,24.1-3.1c8.6-10.6,13.4-23,15.5-36.3c2.1-13.3,4.3-26.6,2.5-40.2c-0.1-0.7,0.2-1.3,0.4-1.9c0.6-0.9,1.5-1.2,2.3-1.7
		c6.9-3.4,7.7-5.5,5.4-12.6c-0.9-2.8-2.1-5.4-3.5-8c-0.8-1.4-1.9-2.7-0.8-4.5c6.1,0.9,12.1,1.9,16.4,7c-0.6,6-2.6,11.6-3.8,17.4
		c-9.1,21.6-14.8,44-17.2,67.3c-0.5,4.8-1.5,9.7-0.4,14.5c0.5,1.9,0.8,4.1,3,4.7c2.3,0.6,3.5-1.4,4.7-2.8
		c10.9-13.2,18.3-28.3,24-44.4c0.2-0.6,0.4-1.2,0.6-1.9c3.4-10.3,7.7-20.4,5.5-31.7c2.2-2.6,5.1-2.6,8.1-2.3c4,3.9,3.5,8.8,2.7,13.7
		c-2.6,15.5-8.7,29.6-16.8,42.9c-4.6,7.6-8.7,15.7-14.9,22.3c-2.1,2.2-2.7,4.8-1.8,7.7c0.1,0.3,0.1,0.6,0.2,0.9
		c4.1,12.5,1,19.7-15.3,24.2c-7.1,2-14.2,1.5-21.2-0.2c-4.4-1.1-8.9-2.1-13.2-3.4c-10.4-3.1-17.3-0.6-24.3,9.3
		c4.3-1.3,7.7-2.2,11.2-3.1c5.1-1.2,10-1,14.9,0.7c5.7,2,11.6,3.1,17.5,4.5c2.6,0.6,5.1,0.7,7.7,0.3
		C534.6,478.4,536.6,477.8,538.1,479.6z"/>
	<path class="st1" d="M507.8,322.3c-22.8-3.7-45.1-2-66.8,5.9c-14.5,5.2-24.3,15.1-29.1,29.9c-2.9,8.9-1.8,17.9-0.5,26.8
		c2.1,14.8,6.3,29.1,11.6,42.9c5.1,13.5,11,26.6,16.9,39.8c6.8,15.3,11.1,31.1,10.3,48c-3.7-2.4-4.1-6.7-5.5-10.1
		c-9.6-23.8-19.7-47.4-29.6-71.1c-5.6-13.4-9.7-27.3-11.8-41.8c-1.2-8.3-2.3-16.6-1.8-24.9c0.4-7.8,1.7-15.5,5.2-22.5
		c5-9.9,13.8-16.2,23.2-21.4c10.8-5.9,22.6-8.6,34.8-10.3c6.7-0.9,13.3-2.5,20-1.8c9.7,1,19.6,0.6,29.1,3.7
		C512.5,318.4,510.7,320.8,507.8,322.3z"/>
	<path class="st1" d="M538.1,479.6c-11.3,2-21.8-1.4-32.3-4.9c-6.8-2.3-13.3-0.2-19.8,1.6c-2.3,0.6-4.5,1.4-6.9,2.1
		c3.8-10.8,14.8-16.5,25.7-13.1c7.2,2.3,14.5,4.3,21.9,5.2c9.4,1.1,18.3-1.3,25.8-7.2c3.4-2.6,4.6-7.5,2.8-11.1
		c-4-8.6-0.1-14.2,4.7-20.9c13.1-18.1,23.7-37.7,27.7-60.1c0.7-4-0.2-8-1.8-11.7c1.1-3.3,3.9-5.3,6-7.9c8.4,9.4,7.6,20,3.6,30.7
		c-5.7,15.2-11.6,30.4-20.5,44.2c-3.2,4.9-6.7,9.6-10.3,14.3c-1.2,1.6-1.2,2.9-0.8,4.8c1.3,6.1,4.1,12.1,1,18.5
		c-4.2,8.5-12.4,11.2-20.3,14.5C542.7,479.3,540.3,479.3,538.1,479.6z"/>
	<path d="M507.8,322.3c1.4-2.8,3.4-5.1,6-6.9c5.4-2,10.3,0,15.2,2c2.1,0.8,4.2,1.9,6.2,2.9c3.9,3,8.4,5.6,9.8,10.9
		c1.9,4.1,4.1,8.1,5.6,12.4c3,8.2,0.3,12.4-8.6,14.2c-3,2.9-6.6,2.3-10.1,1.5c-8.2-2-15-6.2-19.6-13.4c-1.4-2-2.6-4.1-3.4-6.4
		c-0.4-1.4-1.1-2.8-0.2-4.2C507.5,330.8,507.9,326.5,507.8,322.3z"/>
	<path d="M591.9,351.5c-0.4,3.8-3.4,5.7-6,7.9c-2.5,1.2-5.5,0.3-7.8,2.1c-0.8,0.8-1.8,1-2.8,1.2c-2.3,0.5-4.6,1-7,0.9
		c-7.9-0.2-10.5-2-11.7-8.3c0.5-6,2.1-11.7,4-17.4c0.1-3.7,1-7,4.8-8.7c4.4-5.5,9.4-4.1,14.8-1.5c6.6,3.2,13.1,13.9,12.5,21.1
		C592.7,349.7,592.2,350.6,591.9,351.5z"/>
	<path class="st1" d="M565.5,329.3c-2.3,2.5-3.2,5.8-4.8,8.7c-4.7-3.7-10.6-4.2-15.7-6.9c-3.3-3.6-6.5-7.2-9.8-10.9
		c9.9,2,19.4,5.3,28.9,8.8C564.5,329.2,565,329.2,565.5,329.3z"/>
	<path class="st2" d="M512.8,344.7c4.9,6.5,10.8,11.1,19,13.1c3.6,0.9,6.8,0.2,10.2-0.2c2.7,18.7,0,37-5.2,54.8
		c-3.3,11.3-8,22.4-18.4,29.8c-5.2,3.7-10.4,3.7-15.8,1c-5.5-2.7-9.6-7-13-11.9c-9.2-13.2-13.7-28.2-16.8-43.7
		c-1.4-6.7-2.6-13.6-2.9-20.5c-0.4-14.5,3.1-23.1,17.6-27.9c6.9-2.3,13.8-4.2,21.1-4.3c-0.3,1.4,1.7,2.3,1,3.9
		c-3.3,2.3-7.2,1.6-10.8,2.1c-16.4,2.3-24,11.3-22.7,27.6c1.2,16.1,4.3,31.9,11,46.8c3,6.7,6.5,13,11.6,19.3
		c-5-12.7-8.7-24.9-10.9-37.6c-1.8-10.3-2.3-20.7-1.6-31.1c0.8-11.4,8.9-20.2,20-22.1C508.5,343.4,510.7,343.4,512.8,344.7z"/>
	<path class="st2" d="M556.7,355.3c2.3,5,5.9,7.8,11.7,7.1c2.9,2.9,2.7,6.6,2.1,10c-1.9,10.5-5.2,20.6-8.6,30.7
		c-0.5,1.4-1.1,2.7-2.6,3.3c-1.5-0.4-1.4-1.6-1.5-2.7c-0.1-1.1,0.5-2.2,0.5-3.4c0-3.3-0.3-7-4-8c-3.5-0.9-5,2.3-6.3,4.9
		c-2.5,4.9-3.2,10.2-3.5,15.5c-0.3,5.1,1.4,6.3,6.5,5.5c0.7-0.1,1.3,0,1.9,0.3c1.5,2.8-0.2,5.1-1.3,7.3c-1.7,3.5-3.8,6.7-5.6,10.1
		c10.9-17.4,19.6-35.7,25.9-55.3c1.8-5.6,3.8-11.1,2.7-17.1c-0.2-0.8,0.1-1.6,0.8-2.2c1,0,1.9,0,2.9,0c3.5,6.8,1.1,13.4-0.8,20
		c-5.1,18.1-12.5,35.1-22.6,50.9c-2.2,3.5-5.1,6.6-8,9.6c-3.2,3.4-6.2,2.5-7.6-2.1c-1.2-3.9-1.3-8-0.9-12
		c2.1-22.4,7.6-44.1,14.7-65.4C553.7,359.9,554.8,357.4,556.7,355.3z"/>
	<path class="st3" d="M512.8,344.7c-15.5-0.6-25.7,9.9-25.7,26.1c0,22.4,4.9,43.6,13.1,64.2c0.3,0.9,1.1,1.7,0.3,3
		c-4.7-3.2-7.4-8.1-9.9-12.7c-7.2-13.1-12.3-27-14.1-42c-0.8-6.4-1.4-12.8-2-19.2c-1.1-12.6,10.5-22.6,21.6-24
		c4.5-0.5,8.9-1.6,13.5-1.1C510.7,340.8,511.7,342.7,512.8,344.7z"/>
	<path class="st4" d="M529.6,323.5c8.3,4.4,13.8,10.9,17,19.5c0.5,1.5,0.3,2.7-1.1,3.3c-1.9,0.9-3.4,3.2-6.1,2
		c-2.7-1.2-5.1-3.1-5.1-5.9C534.5,335.7,532.6,329.6,529.6,323.5z"/>
	<path class="st3" d="M575.2,361.5c2.2,7.5-0.5,14.3-2.8,21.2c-6.3,19.5-15.1,37.8-26.6,54.9c-0.3,0.5-0.8,0.9-1.4,1.2
		c2-7,6.9-12.7,8.2-19.9c1.3-4.5,2.2-9.3,6.1-12.6c4.7-9.3,6.5-19.6,9.5-29.4c1.5-4.8,1.4-9.6,0.1-14.3
		C570.6,362.1,572.9,361.8,575.2,361.5z"/>
	<path class="st4" d="M578.9,332.1c5.7,2.3,7.8,6.9,8.9,11.6c0.9,4.3-1.7,7.8-5,10.3c-1.6,1.2-3.4,2.2-5.6,0.1
		c-2-1.9-2.5-3.8-0.9-5.9C580.1,343.6,581.1,338.4,578.9,332.1z"/>
	<path d="M537,401.2c-0.6,4.3-1.9,10.1-5,15.3c-2.5,4.2-8.1,4.6-11.5,1c-6.3-6.7-4.7-20.2,2.8-25.5c3.1-2.2,6.2-3.4,9.6-1.4
		C536.2,392.6,537.3,395.8,537,401.2z"/>
	<path d="M558.8,406.2c-2.3,4.1-2.9,9-6.1,12.6c-1,0.4-2.2,0.5-3.1,1.1c-2.9,2-4.4,0.3-5.6-2c-2.7-5.4,1.2-21.1,5.1-25.1
		c1.6-1.7,3.8-3.1,6-2c3,1.5,4.2,4.5,4.6,7.9C560,401.4,557.8,403.6,558.8,406.2z"/>
	<path class="st2" d="M535.1,397.8c0.3,3.4-0.9,5-3.2,5.5c-1.9,0.4-6.4-4.9-6.5-7.4c-0.1-2.7,1.5-4.5,4-4.2
		C533.3,392.2,534.4,395.4,535.1,397.8z"/>
	<path class="st5" d="M525.7,417.9c-3.2,0-7.2-6.2-5.9-9.1c0.3-0.8,0.9-1.3,1.8-1.4c2.7-0.2,7.6,6.6,6.5,9
		C527.6,417.4,526.8,418,525.7,417.9z"/>
	<path class="st2" d="M557.6,399.4c0.2,3.1-1.3,5-3.4,4.7c-3.8-0.5-4-4.1-4.2-7c-0.1-1.8,0.6-4.7,3.1-4.5
		C557.2,393.1,556.7,397.1,557.6,399.4z"/>
	<path class="st6" d="M544.9,413.7c0.1-2.4,1.2-4.6,3.2-4.1c2.4,0.5,3.5,3.1,3.6,5.6c0,2-1.3,3.6-3.2,3.5
		C545.4,418.6,545.3,415.8,544.9,413.7z"/>
</g>
</svg>
