<?xml version="1.0" encoding="utf-8"?>
<!-- Generator: Adobe Illustrator 23.0.1, SVG Export Plug-In . SVG Version: 6.00 Build 0)  -->
<svg version="1.1" id="Layer_4" xmlns="http://www.w3.org/2000/svg" xmlns:xlink="http://www.w3.org/1999/xlink" x="0px" y="0px"
	 viewBox="0 0 1000 1000" style="enable-background:new 0 0 1000 1000;" xml:space="preserve">
<style type="text/css">
	.st0{fill:#FB9A7A;}
	.st1{fill:#6E3720;}
	.st2{fill:#FEFEFE;}
	.st3{fill:#C0FEFE;}
	.st4{fill:#7F7F7F;}
	.st5{fill:#00407F;}
</style>
<g>
	<path class="st0" d="M544,488.4c-6.1,3.3-12.9,4.5-19.5,6.5c-18.8,5.8-37.8,11.2-56.7,16.7c-5.8,1.7-11.7,3.4-17.5,5
		c-2.6-3.7-1.8-8.2-2.3-12.2c-1.1-10.3-3.9-20.1-7.6-29.7c-7.8-20.7-16.7-40.9-21.8-62.5c-2.5-10.8-4.7-21.7-4.9-32.7
		c-0.4-23,9-38.6,33-46.5c8.6-2.8,17.6-3,26.4-4.1c12.5-1.6,24.9-1,37.3,1.2c2.5,0.4,5.3,0.1,7.2,2.3c0.3,0.8,0.3,1.7-0.2,2.3
		c-3.1,3.3-2.1,7.5-2.9,11.4c-4.5,1.9-9.5,2.4-14.2,2.8c-17.6,1.6-23.7,16.2-22.6,28.1c0.7,6.9,1.4,13.9,2.4,20.8
		c2.1,15.5,9.1,29.1,16.3,42.5c3.4,6.4,9.8,10.2,17,11.2c7.8,1,13-4.6,17.5-9.9c8.4-9.9,12.6-21.9,15.4-34.4
		c2.4-11.1,4.1-22.3,3.7-33.7c1.3-1.9,3.6-2,5.4-2.8c4.3-2,5.2-4,3.6-8.5c-2-5.5-5.1-10.3-8.6-15c-1-1.3-2.8-2.4-1.8-4.6
		c0.6-0.3,1.2-0.6,1.8-0.4c7.8,2.5,15.6,4.8,22.6,9.3c0.6,1.3,0.1,2.6-0.6,3.6c-3.4,5-4.9,10.7-6.5,16.4
		c-10.3,22.9-18.4,46.5-20.7,71.7c-0.1,1-0.2,1.9-0.1,2.9c0.3,2.3,0.8,4.7,3.1,5.8c2.6,1.2,4.3-0.8,5.8-2.5
		c9.1-9.7,16-20.8,21.5-32.8c5.4-11.6,10.2-23.5,13.8-35.8c2.6-1.1,5-2.8,8.1-1.9c1.9,2.1,2.3,4.7,1.6,7.3
		c-1.4,5.8-2.9,11.7-5.5,17.1c-6.5,13.7-14.4,26.6-23.3,38.8c-2.1,2.9-4.7,5.4-7.3,7.9c-2.4,2.3-3.2,4.8-2.2,7.9
		c0.2,0.6-0.1-0.2,0.1,0.5c3.1,10.5,1.8,15.5-12,20.7c-10,3.8-19.9,1.3-29.7-1.2c-2.4-0.6-4.6-1.5-6.9-2.3c-9-2.9-16.4,0.1-21.4,8.8
		c1.8-0.3,3.2-1.1,4.6-1.7c6.5-2.6,12.9-2.8,19.5-0.2c7.8,3.1,16,4.2,24.3,4.7C541.1,487.1,542.8,486.9,544,488.4z"/>
	<path class="st1" d="M573.2,351.6c-6.9-2.6-13.8-5.2-20.7-7.9c-1.2-0.5-2.3-1-3.6-0.8c-2.4,0.6-3.5-1.4-4.8-2.6
		c-2.5-2.4-5.3-4.3-8.3-6c-4.6-2.5-9.3-3.8-14.4-1.3c-1.1,0.6-2.4,1.1-3.7,0.2c-5.2-2.5-10.9-2.2-16.3-2.9
		c-17.7-2.1-35.3-0.2-52.6,3.8c-17.2,4-31.1,16.8-33,36.1c-1.6,16.2,1.9,31.6,5.6,46.9c5,20.3,13.7,39.2,20.9,58.7
		c3.4,9.1,6.1,18.5,7,28.3c0.4,4.2,0.5,8.4,0.9,12.5c-2.7,1.4-2.3-1.6-2.7-2.4c-5.3-9.9-8.4-20.7-12.3-31.2
		c-4.9-13.1-10.8-25.9-16-38.9c-5.6-14.1-9.4-28.8-11.9-43.7c-2.3-13.5-3.5-27.2,0.7-40.8c3.8-12.4,11.2-20.9,22.9-26.9
		c12.5-6.3,25.5-9,39.2-10.5c29.4-3.4,57.2,3.3,84.5,13.1c8.8,3.2,17.2,7.2,25.4,11.5C578.9,350,576.5,351.5,573.2,351.6z"/>
	<path class="st1" d="M544,488.4c-10.7,0-21.1-1.5-31.1-5.5c-8.6-3.4-15.8,0.6-23.4,3.6c-0.8-2.3,0.5-4.1,2-5.9
		c5.3-6.2,13.3-10.3,22.3-6.3c8.2,3.6,17.2,5.3,26.3,5.1c6.1-0.2,11.6-2.4,16.7-5.5c5.7-3.5,5.6-9.1,3.5-14.1
		c-2.2-5.5-0.6-8.7,3.4-12.4c7.8-7.1,13.1-16.2,18.4-25.2c6.7-11.3,13.3-22.7,16-35.8c0.6-2.8-0.8-5-0.4-7.5c1.2-4.4,3.6-8.5,5-12.8
		c6.9,8.1,7.7,17.2,4.6,27c-4.7,14.4-12.5,27.2-20.9,39.7c-4.8,7.1-10.4,13.3-15.9,19.7c-1.4,1.6-2.2,2.6-1,4.9
		c6.6,12.4,0.3,21.2-9.6,26C554.7,485.9,549.4,487.2,544,488.4z"/>
	<path d="M602.6,366.1c0.6,5.2-1.9,9.1-5,12.8c-2.7,0.3-4.9,2.5-7.8,2.1c-0.9,1.6-2.4,2-4.1,2.1c-2.1,0.1-4.3,0.1-6.4-0.2
		c-3.5-0.7-7.1-1.1-10-3.3c-2.8-2.1-5.3-4.4-4-8.5c0.9-7.2,4.2-13.5,7.9-19.5c2.3-1.6,4.6-3.2,6.9-4.7c9.7-0.4,19.3,6.8,21.5,16.2
		C601.8,364.1,602.3,365.1,602.6,366.1z"/>
	<path class="st2" d="M550.8,373.2c2.6,10.7-0.6,21.2-2.4,31.5c-2.4,13.7-6.9,27-16.3,37.7c-9.9,11.2-17,15-30.9,4.8
		c-7.1-5.2-8.8-13.3-12.7-20.2c-6.4-11.5-9.4-24.3-10.6-37.3c-0.7-7.6-2.9-15.3-0.4-23.1c3-9.1,7.7-16.2,18-18
		c6.3-1.1,12.6-2.7,19-2.9c1.2,0.9,2,1.8,0.9,3.3c-2.1,1.4-4.6,1.6-7,1.9c-4.5,0.6-9,1.4-13.3,2.9c-6.2,2.1-10,6.3-11.3,12.8
		c-2.2,10.8-0.3,21.4,1.2,32c2.2,15.4,8.9,29.1,17,42.3c-3.1-10-5.8-20.1-7.3-30.4c-1.8-12.8-3.3-25.8-0.4-38.8
		c2.5-10.7,12.8-18.8,23-17.9c1.5,0.7,2.5,2.1,3.3,3.5c5.1,10.2,14.3,13.4,24.8,14.4C547.2,371.9,549.3,371.4,550.8,373.2z"/>
	<path class="st2" d="M565.3,371.1c1.1,5.5,4.6,9,9.9,9.7c1.4,0.2,2.8,0.2,3.9,1.2c1.3,1.4,0.7,3.1,0.4,4.6
		c-2.2,10-6.4,19.4-9.7,29.1c-0.5,1.5-1.2,3.1-3.1,3.5c-1.6-1-1.1-2.5-0.9-3.9c0.2-1.6,0.3-3.2-0.2-4.8c-0.7-2.1-1.4-4.1-3.8-4.6
		c-2.5-0.6-4.5,0.7-5.8,2.6c-3.9,5.7-4.4,12.4-4.5,19c0,3.4,2.8,4.3,6,2.7c1.3-0.7,2.2-1.9,3.9-1.7c1.6,2,0.1,3.7-0.7,5.4
		c-1.7,3.5-4.4,6.4-5.9,8.9c10.6-14.1,19.5-30.2,26.2-47.6c1.7-4.4,1.8-9.3,5-13.1c1.3-0.3,2.6-0.7,3.9-1c-0.3,7.6-3.5,14.3-6.3,21
		c-5.4,13.2-11.4,26.2-19.9,37.9c-3,4.2-6.2,8.2-10,11.7c-4,3.7-6.7,2.7-8.9-2.5c-2.1-4.8-0.1-9.3,0.4-13.8
		c2.6-21.5,10-41.6,18.4-61.5C563.9,372.9,564.7,372.1,565.3,371.1z"/>
	<path d="M515.5,348.6c-0.3-1-0.6-1.9-1-2.9c-1.7-4.9-0.8-9.2,3.2-12.6c10.9-6.1,19.3-1,27.2,6.2c1.3,1.2,2.7,2.3,4,3.5
		c4.7,5.4,8.5,11.4,11.4,17.9c2.8,6.4,1.4,9.2-5.4,11.4c-1.3,0.4-2.7,0.8-4.1,1.1c-6,0.1-11.9-0.8-17.6-2.7
		c-7.9-2.6-11.9-9.3-15.7-16C515.4,353,514,351.3,515.5,348.6z"/>
	<path class="st3" d="M585.9,382c-4.1,17-11.3,32.5-20.5,47.3c-3.8,6.2-8.4,11.7-13,17.4c2-6.5,7.6-11.2,9-18c0.2-4,1.6-7.4,5.1-9.7
		c5.5-11.8,9.9-24.1,12.5-36.9C581.4,382,583.7,382,585.9,382z"/>
	<path class="st4" d="M591,353.6c1.6,1.8,3.3,3.6,4.8,5.4c4.3,5.3,2.1,13.4-4.2,15.6c-2.1,0.7-4,0.7-5.7-1.2
		c-1.5-1.6-0.9-3.3,0.2-4.3c4.4-4.3,6.3-9.1,3.4-15.2C589.9,353.8,590.5,353.7,591,353.6z"/>
	<path class="st3" d="M515.5,348.6c-0.2,2.2,1.4,3.9,2,5.9c-10.6,0.3-21.2,9.2-22.5,20.8c-2.1,19.4,0.9,37.9,6,56.4
		c1.2,4.3,2.5,8.6,4,13.8c-2.8-2.4-4.8-4.1-6.2-6.6c-7.9-14.3-14.4-29.1-16-45.5c-0.8-8.1-2-16.3-0.8-24.6
		c1.5-10.5,7.6-15.4,17.3-17.4C504.6,350.2,510.1,349.5,515.5,348.6z"/>
	<path d="M522.5,417.8c0.4-5.7,2.7-11.1,7.9-14.9c3.4-2.5,7.3-2.4,10.7,0c3.1,2.2,5,5.2,3,9.4c-1.5,3.2-2.5,6.7-3.9,10
		c-2.5,5.7-5.9,8.2-9.7,7.4C526.3,428.8,522.5,423.4,522.5,417.8z"/>
	<path d="M566.6,418.9c-1.7,3.2-3.4,6.5-5.1,9.7c-2.6,1.8-4.9,5.7-8.6,3.4c-3.5-2.1-3.3-5.8-2.3-9.8c0.9-3.4,1.1-7.1,2.2-10.6
		c1.6-5.1,6-8.4,9.7-7.4c3.6,1,5.8,7,4.3,11.8C566.4,417.1,566.5,418,566.6,418.9z"/>
	<path class="st4" d="M538.7,340.2c8.2,4,12.7,11.4,16.6,19.4c0.7,1.4,0.1,2.4-0.9,3.4c-2.7,2.7-5.5,0.6-8.1-0.1
		c-2.5-0.7-4.9-2.9-4.1-5.1c2-5.6-1.2-9.5-3.1-14C538.7,342.9,537.4,342.1,538.7,340.2z"/>
	<path class="st2" d="M542,410.4c0.2,2.5-0.9,4.1-3.2,4.6c-2.5,0.5-6.5-4.3-6.5-7.6c0-2.5,1.3-3.9,3.8-4.1
		C538.5,403.2,541.9,407.2,542,410.4z"/>
	<path class="st5" d="M527.8,418c2.6-0.2,7.2,5.7,6.2,8c-0.3,0.6-1.1,1.4-1.7,1.5c-2.1,0.2-3.7-1-5-2.5c-1.2-1.5-2.2-3.3-1.6-5.3
		C525.9,418.7,526.7,418.1,527.8,418z"/>
	<path class="st2" d="M565.5,412c0,3.2-1.3,5.2-3.6,4.8c-3-0.5-4-3.2-4.2-6.1c-0.2-2.5,1.1-4,3.4-4.4C563,406,565.5,409.8,565.5,412
		z"/>
	<path class="st5" d="M558.6,426.7c-0.3,2.1-1.4,4-3.2,3.6c-2.3-0.5-3.6-2.9-3.5-5.2c0.1-1.6,0.8-4.2,2.8-3.8
		C557.4,421.7,558.1,424.4,558.6,426.7z"/>
</g>
</svg>
