<?xml version="1.0" encoding="utf-8"?>
<!-- Generator: Adobe Illustrator 23.0.1, SVG Export Plug-In . SVG Version: 6.00 Build 0)  -->
<svg version="1.1" id="Layer_4" xmlns="http://www.w3.org/2000/svg" xmlns:xlink="http://www.w3.org/1999/xlink" x="0px" y="0px"
	 viewBox="0 0 1000 1000" style="enable-background:new 0 0 1000 1000;" xml:space="preserve">
<style type="text/css">
	.st0{fill:#FB9A7A;}
	.st1{fill:#6E3720;}
	.st2{fill:#FEFEFE;}
	.st3{fill:#C0FEFE;}
	.st4{fill:#7F7F7F;}
	.st5{fill:#004080;}
</style>
<g>
	<path class="st0" d="M545.9,497.2c-8.8,3.5-18.2,4.5-27.4,6.6c-20.6,4.6-41.3,8.7-62,13c-2.8,0.6-5.6,1.1-8.4,1.6
		c-0.7-1.7-1-3.4-0.8-5.2c1.1-8.6-0.5-16.9-2.5-25.1c-3.1-12.3-7.5-24.2-12.1-36.1c-8.2-21.2-14-43.2-14.9-65.9
		c-0.9-21.6,6.9-36.9,29.9-44.8c13.1-4.5,26.8-5.6,40.5-4.5c10.3,0.8,20.8,1.7,31,3.8c5.2,1.1,10.5,2,15,5.2
		c0.2,1.1-0.6,1.5-1.4,1.6c-6.2,0.7-10.2,4.5-13.4,9.4c-5.1,1.8-10.5,1.7-15.8,2.6c-10,1.7-15.7,7.1-17.9,17.3
		c-2.5,11.7-0.8,23.3,1.4,34.8c2.3,12.4,6.4,24.2,13.5,34.7c9.1,13.5,22.1,19.7,37,2.9c9.5-10.7,14.1-23.5,17.8-36.9
		c1.9-7.1,2.2-14.5,4.2-21.5c0.2-0.4,0.5-0.9,0.9-1.2c6.3-5,6.8-8.1,3-15.7c-4.6-9-11.3-16-19.7-21.6c-1.6-1-4.2-1.3-3.8-4.2
		c1.9-1.2,3.8-0.3,5.6,0.4c13,4.8,25.7,10.4,38,16.9c1.4,0.7,3,1.3,3.5,3.1c0,0.3,0,0.7-0.3,0.9c-7,5.4-11.2,12.5-14.1,20.7
		c-6.8,12.8-12.7,25.9-16.8,39.8c-2.1,7.2-3.8,14.4-4.7,21.9c-0.1,0.5-0.2,1-0.2,1.4c-0.2,3.5-0.6,7.3,3.2,9
		c3.4,1.5,5.9-1.5,7.8-3.7c12.7-14.7,24.1-30.2,31.4-48.4c1.3-3.3,2.5-6.7,5-9.4c3.3-1,6.4-3.1,10.1-2.5c1.5,3.9-0.3,7.4-1.8,10.7
		c-8.8,19.8-21.3,37.2-37.4,51.8c-2.5,2.3-3.5,4.5-2.7,7.7c0.4,1.6,0.7,3.2,0.8,4.8c0.3,5.1-1.4,9.2-6,11.9
		c-6.4,3.8-13.1,5.2-20.6,3.7c-7.4-1.4-14.5-3.6-21.7-5.5c-8.1-2.1-12.7,0.1-17.1,7.4c0.1,0.3,0.4,0.6,0.7,0.5
		c8.5-2.9,16.8-2.7,25,1.6c4,2.1,8.7,2.6,13.3,2.8C542.7,495.9,544.6,495.5,545.9,497.2z"/>
	<path class="st1" d="M586.8,369c-14.9-8.4-30.2-15.7-46.7-20.4c-2.6,1.2-4.6,0.4-6-2.1c-10.3-4.2-21-5.9-32.1-6.8
		c-8.2-0.7-16.3-2.3-24.5-1.8c-14.3,0.7-28.4,2.6-41.1,10.3c-10.1,6.2-14.9,15.6-16.4,26.8c-2.6,19.2,2.5,37.5,7.3,55.7
		c5,19,13.8,36.8,18.7,55.9c2.7,10.5,4.4,21,2.2,31.8c-5.5-8.9-8.5-18.9-11.3-28.8c-4.2-14.6-10.1-28.5-15.1-42.8
		c-4.2-11.9-8.3-23.9-9.7-36.5c-0.8-6.8-3-13.6-2.7-20.3c0.7-15.9,1.4-32.1,14.6-44c8.9-8,19.8-11.8,31.2-13.9
		c11.9-2.3,24.1-2.7,36.1-1.9c14.9,1,29.6,3.7,43.9,8.2c15.7,4.9,31.1,10.6,45.6,18.2c12.4,6.4,23.5,14.9,31.9,26.3
		c6.7,9.1,7.9,18.6,2.7,29.2c-8.6,17.6-19.1,34-33.6,47.1c-6.3,5.7-7.5,10.1-4.8,17.4c1.9,5.4-1.9,11.7-7.2,14.8
		c-7.4,4.4-15.4,5.9-23.8,5.8c-8.5,0.2-16.5-1.6-24.2-5.3c-7.6-3.6-14.9-0.3-22.2,2c1.2-8,10.4-14.8,19-12.1
		c7.6,2.3,15.3,4.4,23.2,5.9c8.2,1.5,15.3-0.6,21.7-5.5c2.8-2.2,3.3-5.8,2.9-9.2c-0.3-2.5-0.8-5-1.6-7.5c-0.6-2,0.4-3.1,1.6-4.1
		c17.7-14.4,29.9-32.9,39.5-53.3c1.4-3,2.2-6.3,2.5-9.7c-0.2-0.4-0.5-1-0.3-1.4c2.6-5.5,2.3-10.9-1.1-15.7
		c-3.9-5.7-9.4-9.4-16.2-10.8C589.4,370.3,587.8,370.4,586.8,369z"/>
	<path class="st2" d="M560.5,390.8c-1.7,16.5-5.3,32.6-13.1,47.4c-3.7,7-9,13.1-15.1,18.1c-8.3,6.8-18.4,6.1-26.1-1.5
		c-10.2-9.9-15.2-22.5-18.7-35.9c-3-11.6-4.9-23.4-4-35.4c0.9-12.4,5.2-22.1,16.8-24.8c6.2-1.4,12.6-2.5,19.1-2.4c1,0.9,1,1.9,0.5,3
		c-2.8,1.9-6.2,1.7-9.4,2.1c-14.6,1.8-20.1,6.1-21.3,20.5c-2,23.7,4.3,45.6,16.7,65.8c-3.4-12.3-5.7-24.9-6.8-37.6
		c-0.9-10-0.7-19.8,2.4-29.4c3.1-9.5,10.1-15,19.7-15.4c2.1,0.5,3,2.4,3.8,4.1c6,11.6,15.6,17.6,28.3,19.2
		C555.7,389,558.5,388.7,560.5,390.8z"/>
	<path d="M560.5,390.8c-9.3-0.7-18.3-2.4-26.3-7.9c-6.1-4.2-8.9-10.9-12.7-16.7c-2-1.9-2.5-4.2-2-6.8c-0.1-0.9-0.2-1.9-0.2-2.8
		c2.5-6.8,6.6-9.5,14.7-9.9c2,0.7,4,1.4,6,2.1c6.8,4.1,13.2,8.8,18.3,15c3.6,4.4,6.7,9.1,8.1,14.8
		C568.3,386.5,567.9,387.3,560.5,390.8z"/>
	<path class="st2" d="M598.6,401.5c-7,17.6-15.5,34.3-27.9,48.7c-3.5,4.1-6.2,9-10.9,12.1c-1.9,1.2-3.6,3.5-5.9,2
		c-2.5-1.6-4.2-4-4.1-7.3c0.2-6.6,1.5-13.1,2.9-19.5c3.6-16.1,10.7-30.9,17.5-45.8c0.4-0.9,1-1.7,1.9-2.1c3.1,6.4,9.3,8.3,15.1,10.7
		c0.2,0.4,0.5,0.9,0.3,1.4c-2.9,10.3-6.9,20.2-12.6,29.3c-0.4,0.6-1,0.8-1.7,0.8c-1.6-1.5-0.6-3.3-0.5-5c0.2-3.2-0.8-6-3.9-7.1
		c-3.1-1.1-5.3,1-6.9,3.3c-3.1,4.8-3.8,10.3-4,15.8c-0.1,2.8,1.9,3.5,4.3,3c1.6-0.3,3-1.4,4.7-0.8c1.5,2-0.3,3.3-1.2,4.7
		c-2.7,4.3-5.8,8.2-9.1,12c15-15.5,27-33,34.8-53.2c0.6-1.5,1.1-3.1,2.7-3.9C595.9,400.2,597.5,400.1,598.6,401.5z"/>
	<path d="M586.9,400.6c-4.7-0.1-8.6-2.4-12.3-5.1c-2-1.5-2.6-3.4-2.5-5.8c2.2-6.2,4.4-12.5,9.7-17c1.6-1.3,3.1-2.7,5-3.6
		c12,0.4,21,7.6,24.1,18.5c1.2,4.4-0.9,7.5-2.5,10.9c-3.1,1.5-6.2,3-9.8,3.1c-1.6,0-3.2,0-4.9,0C591.2,403.1,589,402.2,586.9,400.6z
		"/>
	<path class="st3" d="M519.6,359.3c1.3,2.1,1.6,4.5,2,6.8c-12.6,2.2-18.9,9.2-20.6,22.1c-2.6,19.2,0.9,37.7,5.8,56
		c0.6,2.3,1.2,4.6,2.1,7.8c-6.8-5-9.4-11.7-12.1-18.4c-6.3-15.3-9.6-31.2-9.4-47.7c0.1-6.3,1.6-12.2,4.8-17.6
		c3.2-5.5,8.9-6.8,14.5-7.9C510.8,359.7,515.3,359.7,519.6,359.3z"/>
	<path d="M541.6,414.1c7.3,0,10.4,4.5,8.3,11.6c-1,3.4-2.6,6.5-4.3,9.3c-1.8,2.9-4.4,6-8.5,5.3c-4.1-0.7-6.5-3.4-8-7.7
		C526,423.5,532,413.3,541.6,414.1z"/>
	<path class="st4" d="M545.2,358c7.2,5.1,13.5,11,16.6,19.7c1.2,3.2,0,4.3-3,4.2c-3.6-0.1-6.9-1.2-9.6-3.8c-1-0.9-2-2-1.4-3.4
		C550.4,368.5,547.4,363.5,545.2,358z"/>
	<path class="st3" d="M586.9,400.6c2.4-0.6,4.5,1.4,6.9,1c-7.7,22.9-21.3,42-38.6,58.6c3-7,8.6-12.2,12.2-18.8
		c1.1-3.8,2.7-7.3,6.1-9.7C579.4,421.9,583.3,411.3,586.9,400.6z"/>
	<path d="M573.4,431.6c-1.9,3.3-3.3,7-6.1,9.7c-10.6,3.7-11.4,3-9.8-8.4c0.5-3.8,1.2-7.5,3.3-10.7c2-3,5-5.3,8.9-4.1
		c3,0.9,5.3,6.3,4.2,9.8C573.7,429.2,573,430.3,573.4,431.6z"/>
	<path class="st4" d="M598.9,376.1c3.7,2.8,5.8,6.2,7.6,9.8c2.2,4.4-1.1,6.5-3.9,8.5c-2.9,2.2-6,2.9-8.9-0.4
		c-1.2-1.3-1.2-2.3-0.2-3.8C598.4,383.5,598.3,383.5,598.9,376.1z"/>
	<path class="st2" d="M542,416c3.4,0,7,3.7,6.8,7c-0.1,2.2-1.5,3.6-3.6,3.7c-2.8,0.1-7.2-4.9-7.2-7.8
		C538.1,416.1,539.9,415.9,542,416z"/>
	<path class="st5" d="M539,435.2c-0.2,1.3-0.9,2.2-2.5,2.2c-2,0-6.4-5.3-6.1-7.4c0.1-1.3,0.8-2.1,2.1-2.1
		C534.7,428,539.1,432.8,539,435.2z"/>
	<path class="st2" d="M572.1,424.7c0.3,3.8-0.9,5.8-3.2,5.8c-3.2-0.1-4.3-3.1-4.4-5.8c-0.2-2.5,2.1-4.8,3.9-4.5
		C571.1,420.5,571.8,423.6,572.1,424.7z"/>
	<path class="st5" d="M565.5,437.7c-0.8,2.3-1.9,3.7-4.2,3.6c-2.4-0.1-2.8-1.8-2.7-3.8c0.1-2.2,1.3-3.9,3.5-3.8
		C564.7,433.8,564.5,436.4,565.5,437.7z"/>
</g>
</svg>
