<?xml version="1.0" encoding="utf-8"?>
<!-- Generator: Adobe Illustrator 23.0.1, SVG Export Plug-In . SVG Version: 6.00 Build 0)  -->
<svg version="1.1" id="Layer_4" xmlns="http://www.w3.org/2000/svg" xmlns:xlink="http://www.w3.org/1999/xlink" x="0px" y="0px"
	 viewBox="0 0 1000 1000" style="enable-background:new 0 0 1000 1000;" xml:space="preserve">
<style type="text/css">
	.st0{fill:#FB9A7A;}
	.st1{fill:#6E3720;}
	.st2{fill:#FEFEFE;}
	.st3{fill:#C0FEFE;}
	.st4{fill:#7F7F7F;}
	.st5{fill:#00407F;}
	.st6{fill:#004080;}
</style>
<g>
	<path class="st0" d="M537.2,503.8c-25.4,4.9-50.8,9.8-76.2,14.7c-4.2,0.8-8.5,1.3-12.8,2c-1.2-1.8-1.1-3.7-0.6-5.6
		c2.4-9.4,0.3-18.4-2.5-27.3c-5.4-17.6-11.4-34.9-16-52.7c-3.8-14.7-6.6-29.6-7.2-44.7c-1-25.2,11.6-42.1,37.5-45.5
		c25.2-3.3,49.8,0.8,74.1,7.7c21.5,6.1,41.3,15.7,60,27.6c3.9,2.5,8.4,4.4,10.4,9.1c-0.6,1.9-2,1.2-3.1,0.9c-3.8-1.1-7.7-3-11.6-0.3
		c-4.8,3.2-8.5,7.3-10.7,12.7c-0.5,1.3-0.9,2.8-1.5,4.1c-10.5,16.7-17.6,34.8-22,54c-0.3,1.1-0.7,2.2-0.6,3.3c0,3,0.4,6.2,3.2,7.7
		c2.9,1.7,5.3-0.6,7.3-2.4c14-12.9,26.1-27.2,34.6-44.4c1.1-2.3,1.9-4.9,4.3-6.3c3.2-0.5,6.3-1.9,9.6-1.5c1.4,1.7,0.6,3.4-0.1,5
		c-4.7,10.8-11.4,20.3-19,29.3c-6.3,7.5-13.6,14-21.7,19.4c-3,2-3.6,4.5-3.1,7.9c2.1,13.8,0.6,15.8-13,18.2
		c-8.4,1.5-16.5,0.1-24.3-3.2c-2.8-1.2-5.5-2.7-8.6-3.4c-6.4-1.4-11.6,1.3-14.2,7.8c0.5,0.7,1.2,0.5,1.7,0.2
		c9.4-4.6,17.3-0.3,25.2,4.1C536.9,502.5,537.2,503.1,537.2,503.8z"/>
	<path class="st1" d="M537.2,503.8c-2-0.9-4.1-1.7-6-2.8c-7-4.1-14-4.7-21.4-1c-0.7,0.4-1.6,1.5-2.5,0.5c-0.8-0.8-0.2-1.7,0.2-2.7
		c3.5-7.8,11.1-12.7,21.5-7.2c7.2,3.8,14.6,5.5,22.6,5.5c4.4,0,8.6-1.3,12.7-2.4c3.2-0.8,5-3.4,5.1-6.9c0-0.8,0.3-1.7,0-2.4
		c-4.5-10,1.8-14.4,8.8-19.7c15.9-11.9,27-27.7,35.1-45.7c0.2-0.5,0.1-1.3,0.1-1.9c-0.3-0.6-0.3-1.3,0-1.8c5-7,1.5-12.5-3.2-17.7
		c-1.5-1.7-3.2-3.2-4.9-4.7c-0.9-0.8-2.2-1.5-1.6-3.2c-5.7-6.9-13.8-10.3-21.1-14.8c-22.1-13.6-46.3-22-71.6-26.8
		c-14.2-2.7-28.8-4.4-43.3-3.2c-12.9,1-25.4,3.6-34.8,13.9c-5.1,5.6-7.3,12.4-8.8,19.4c-2.8,12.5,0.6,24.6,2.5,36.7
		c4,25.7,13.3,50,20.8,74.7c2.6,8.7,4.5,17.7,1.2,26.9c-0.4,1.2-0.2,2.6-0.2,3.9c-3.3-2.4-4.3-6.2-5.3-9.7
		c-6.3-22.5-14.3-44.4-21.1-66.8c-4.2-13.8-7-27.9-8-42.5c-0.8-11.3-1-22.3,2.2-33.2c5-17.5,17.6-25.6,34.9-28.5
		c9.5-1.6,18.9-3.3,28.6-2.8c19.1,1,38.1,2.8,56.5,8.8c21.7,7.2,42.2,17,61.5,29.3c10.5,6.7,19.3,15.4,26.2,25.8
		c4,5.9,4.1,12.6,1.2,19c-4.2,9.6-9.6,18.6-16.4,26.6c-4.2,5-8.1,10.3-12.8,15c-5,5-10.4,9.5-16.1,13.7c-1.5,1.1-1.4,1.4-0.8,2.8
		c1,2.6,1.6,5.4,2.2,8.2c1.2,5.7-1.7,10.9-7.3,13.8c-6,3-12.5,4.7-19,5.5c-4.4,0.6-9.1-1.1-13.7-1.7
		C539.8,503.8,538.5,503.8,537.2,503.8z"/>
	<path class="st2" d="M565.4,404.5c-1.4,14-4.7,27.4-11.9,39.7c-4.6,8-10.2,14.7-17.9,19.7c-8.4,5.5-16.1,4.6-24-1.4
		c-8.2-6.2-11.9-15.1-15.3-24c-4.7-12-7.1-24.5-8.2-37.4c-0.7-8.4-0.8-16.3,3.1-23.9c3.5-6.8,8.6-10.7,16.7-11.2
		c5.5-0.3,10.9-0.7,16.4-0.8c1.2,1.5,0.3,2.5-0.8,3.4c-2.8,1.2-5.8,0.7-8.7,0.8c-12,0.4-18.3,5.8-20.6,17.4
		c-1.6,8.3-0.7,16.6,0.5,24.7c1.8,12.1,5.2,23.8,10.3,35c1.3,2.8,3,5.4,5.1,7.8c-4.7-12.6-6.3-25.8-7.2-39.1
		c-0.8-12-0.2-23.8,8-33.7c3.4-4.1,7.6-6.4,13-6.5c1.8,0.4,2.5,2,3.1,3.5c6,13.8,16.7,21.4,31.5,23.8
		C560.9,402.7,563.6,402.4,565.4,404.5z"/>
	<path d="M565.4,404.5c-19.5-1.1-33.8-9.7-40.9-28.6c-2.2-2.3-3-4.8-1.2-7.7c0.4-0.9,1.6-1.6,1-2.9c6-7,9.2-7.6,17.4-3.7
		c13,6.2,22.4,15.9,28.6,28.8C573.9,398,572.9,400.9,565.4,404.5z"/>
	<path class="st2" d="M603.5,419.1c-4.9,9.6-9.8,19.2-16.5,27.8c-6.8,8.7-14.4,16.7-22.5,24.1c-1.9,1.7-4.8,4.2-7.8,2
		c-3-2.2-4.5-6.1-3.7-9.5c4.4-20,11.2-39.2,22.3-56.6c0.2-0.2,0.5-0.4,0.8-0.5c4.5,5,10.4,7.8,16.2,10.8c0.7,3.9-2.3,6.6-3.4,9.9
		c-2,5.5-4.7,10.7-8.1,15.4c-1.1,1.5-2,3.4-4.5,3.2c-1.4-2.1,0.1-3.7,0.8-5.5c1.3-3.2,1.4-6.1-1.5-8.4c-2.2-1.7-6.4-0.6-8.7,2.2
		c-3.4,4.1-4.3,9.1-4.6,14.1c-0.2,2.7,2,4.2,5.1,3.5c2.1-0.5,3.5-2.5,5.8-2.4c1.7,1.7,0.2,3-0.6,4.2c-2.9,4.1-6.5,7.6-9.5,11.4
		c10.5-7.2,17.4-17.9,24.8-28.2c4.3-5.9,6.6-13,11.2-18.8C600.6,417.5,602.3,417.5,603.5,419.1z"/>
	<path d="M591.8,417.2c-6.6-1.7-12.7-4.1-15.8-10.9c0.9-7.7,5.9-12.8,11.5-17.4c3.9-3.2,8.2-2.1,12.5-0.4c1.1,0.5,2.1,1.6,3.5,1.2
		c3.2,3.3,7.1,5.9,9.8,9.8c5.2,7.7,5.3,10,0,17.7c-3.1,1.6-6.4,2.1-9.8,2.1c-1.6-0.3-3.4,0.1-4.9-1
		C596.1,419.7,593.9,418.8,591.8,417.2z"/>
	<path class="st3" d="M523.3,368.2c0.4,2.6,0.8,5.2,1.2,7.7c-11.5,0.8-18.5,12.4-19.7,23.7c-1.9,18.8,0.9,37,6.8,54.8
		c0.4,1.1,0.6,2.2,0.9,3.3c0,0.1-0.1,0.3-0.4,0.9c-4.8-3.7-7.5-8.8-9.6-14c-6.5-16.2-10.6-32.9-10.4-50.5c0.2-17,7.5-26.5,25.7-25.8
		C519.7,368.2,521.5,368.2,523.3,368.2z"/>
	<path d="M546.1,423.8c7.1,0,10.6,4.9,8.2,11.5c-1.2,3.3-2.4,6.4-4.9,9c-3.4,3.5-6.5,5.2-11.2,2c-4.2-2.9-7-8.1-5.7-12.5
		C534.6,426.6,538.7,424.1,546.1,423.8z"/>
	<path class="st4" d="M549.8,372.1c9.1,4.2,13,11.7,16.3,19.8c1,2.6-0.5,3.9-2.9,3.5c-3.1-0.5-6.2-1.3-9-3c-1.1-0.6-1.8-1.7-1.4-2.8
		C555,383.4,551.4,378.3,549.8,372.1z"/>
	<path class="st3" d="M591.8,417.2c2.4-0.6,4.5,1.4,6.9,1c-8.7,19.5-20.5,36.7-37.8,49.6c-0.4-0.3-0.8-0.6-1.2-0.9
		c2.5-3.1,4.9-6.2,7.6-9.2c2.3-2.6,4.8-5.1,6-8.6c-0.1-2.1,0.6-3.6,2.9-3.9c4-3,6.2-7.4,8.3-11.7
		C587.1,428.2,589.4,422.6,591.8,417.2z"/>
	<path d="M576.1,445.3c-1,1.3-1.9,2.6-2.9,3.9c-1,0.8-1.8,2.1-2.9,2.4c-2.3,0.7-4.5,2.8-7,0.8c-2.5-2-3.5-4.2-2-7.5
		c1.3-3.1,1.2-6.7,3.1-9.8c2.8-4.5,7.9-7.2,11.5-5.1c2.7,1.5,5.3,6.6,1.6,11.8C576.7,442.7,576.5,444.1,576.1,445.3z"/>
	<path class="st4" d="M604.6,394c3,4,5.1,7,6.8,10.2c1.6,3.1,0.5,5.5-1.8,7.1c-2.8,1.8-5.8,4.6-9.5,1.8c-2.4-1.8-3.5-3.7-0.5-6.2
		C603.1,403.8,604.9,399.8,604.6,394z"/>
	<path class="st2" d="M552.7,432.2c0.1,2.1-0.5,3.4-2.9,3.4c-2.9,0-7.9-4.4-7.8-7.2c0.1-2.9,2.2-2.6,4.2-2.6
		C550.3,425.9,552.8,428.3,552.7,432.2z"/>
	<path class="st5" d="M543.9,443.7c0,1.3-0.5,2.2-1.9,2.4c-2,0.3-7.7-5.4-7.6-7.5c0.1-1.4,1-2,2.3-2
		C539,436.6,543.8,441.4,543.9,443.7z"/>
	<path class="st2" d="M577.1,436.5c0.3,3-1.1,4.9-3,4.7c-2.8-0.3-4.6-2.6-4.7-5.6c-0.1-2.5,1.4-4,3.8-3.9
		C576.8,431.7,576.5,434.8,577.1,436.5z"/>
	<path class="st6" d="M570.2,448.2c0,1.9-0.8,2.8-2.6,2.9c-2.6,0.1-4.3-1.7-4.8-3.8c-0.3-1.4,0.7-3.7,2.8-3.8
		C568.7,443.5,569.2,446.3,570.2,448.2z"/>
</g>
</svg>
