<?xml version="1.0" encoding="utf-8"?>
<!-- Generator: Adobe Illustrator 23.0.1, SVG Export Plug-In . SVG Version: 6.00 Build 0)  -->
<svg version="1.1" id="Layer_4" xmlns="http://www.w3.org/2000/svg" xmlns:xlink="http://www.w3.org/1999/xlink" x="0px" y="0px"
	 viewBox="0 0 1000 1000" style="enable-background:new 0 0 1000 1000;" xml:space="preserve">
<style type="text/css">
	.st0{fill:#FB9A7A;}
	.st1{fill:#6E3720;}
	.st2{fill:#FEFEFE;}
	.st3{fill:#C0FEFE;}
	.st4{fill:#7F7F7F;}
	.st5{fill:#00407F;}
</style>
<g>
	<path class="st0" d="M536.2,507.7c-11.5,1.9-23,3.8-34.5,5.6c-11.7,1.8-23.4,3.5-35.1,5.3c-6.1,0.9-12.3,1.9-18.4,2.8
		c-0.9-1.7-0.9-3.5-0.5-5.2c2.3-10.2-0.1-20-2.7-29.8c-4.8-18.1-11-35.8-15.3-54c-2.8-11.7-4.3-23.7-5.1-35.7
		c-0.6-9.7,0.2-19.6,4.9-28.5c6.9-13.1,19-18.5,32.9-19.7c31.1-2.7,60.8,3.4,89.4,15.5c15,6.4,29.5,13.8,43.3,22.4
		c9.3,5.8,16.9,13.1,22.9,22.2c5.3,8.2,5.5,16.2,0.1,24.6c-10.9,17.1-24.3,31.8-40.6,43.7c-3.7,2.7-5.3,5.5-4.4,10.3
		c1.6,8.5-1.1,12.2-9.1,15.2c-8.5,3.3-16.3,0.9-24.2-2.1c-2.6-1-5-2.4-7.4-3.8c-7.7-4.5-13.3-2.4-17.1,7
		C523.7,499.6,530.8,500.1,536.2,507.7z"/>
	<path class="st1" d="M536.2,507.7c-2.6-1.6-5.2-3.1-7.8-4.7c-3.2-2.1-6.2-0.4-9.2,0.6c-1.9,0.7-3.9,1.4-5.8,2.1
		c0.8-10.5,11-15.9,19.5-10.4c6.3,4.1,13.3,6.5,20.6,7.5c5.7,0.8,11.2-1.3,15.9-4.5c4.1-2.8,3.3-7.5,2.4-11.6
		c-0.9-4-0.8-6.8,3.1-9.4c8-5.4,14.9-12.3,22-18.8c8.7-8,14.6-18,21.1-27.5c5.4-7.9,3.7-14.7-2.9-24.4
		c-8.3-12.2-20.4-19.5-32.7-26.2c-14.8-8.1-29.9-15.6-46-20.9c-17-5.5-34.4-8.5-52.3-10c-10.8-0.9-21.1-0.1-31.5,2.3
		c-14.6,3.4-24.8,16.7-26,31.6c-2,24.7,3.8,48,10.6,71.3c4.1,14.1,8.1,28.3,11.8,42.5c2.1,8.1,0.8,16.3-0.9,24.3
		c-4.5-7-6.3-15-8.3-22.8c-3.5-13.6-8-26.9-12.2-40.3c-4.1-13.1-8.2-26.3-10.4-39.8c-2.5-15.7-3.2-31.5,1-47.1
		c3.9-14.5,14-22.7,27.9-26.5c10.7-2.9,21.6-4.7,32.7-4c25.5,1.7,50.3,5.9,73.9,16.5c14.9,6.7,29.7,13.4,43.4,22.4
		c10.6,7,20.3,14.8,28.5,24.6c8.2,9.8,8.9,20.9,2.2,31.9c-7,11.5-15.7,21.7-25,31.4c-5.6,5.8-12.5,10.4-19,15.2
		c-1.4,1.1-1.7,1.3-1.1,3.1c4.8,13.5,1.7,19-12.5,23.6C558.1,513.3,547,511.8,536.2,507.7z"/>
	<path class="st2" d="M570.3,414.2c-3,19.3-10.8,36.6-24.7,50.1c-13,12.6-26.5,10.6-37.4-2.9c-9.1-11.3-12.4-25.2-14.9-39.1
		c-1.3-7.3-2.2-14.6-2.1-22.1c0.1-5,0.9-10,2.3-14.7c2.6-8.6,9.3-12.5,17.7-14.5c6.1-1.4,12.1-0.8,18.2,0.2c0.3,2-1,2.9-2.5,3.7
		c-2.9,0.8-5.8,0.4-8.7,0.5c-10.4,0.4-17.5,6.1-19.5,16.4c-3,14.9,0,29.4,3.8,43.8c2.1,8,4.6,16,10.2,23.5
		c-1.7-8.6-3.6-16.4-4.6-24.3c-1.5-12.1-2.4-24.2,0.8-36.3c2.7-10.3,8.2-16.1,17.2-17.4c1.7,0.3,2.3,1.6,2.7,3.1
		c3.9,16.3,16.5,23.1,30.9,27.9C563,413.2,566.7,413.3,570.3,414.2z"/>
	<path d="M570.3,414.2c-5.2,2.1-9.9-0.6-14.4-2.2c-9.3-3.2-17.9-7.8-23.7-16.2c-3-4.2-4.1-9.3-5.7-14.1c-2-2.8-2-5.4,0.7-7.7
		c0.7-0.9,1.4-1.9,2.1-2.8c7.6-4.8,14.1-0.8,20.2,3.2c11.8,7.7,20,18.4,24.2,31.9C574.8,409.7,575,413.1,570.3,414.2z"/>
	<path class="st2" d="M605.5,432.8c-8.9,17.4-22.1,31.3-36.7,43.8c-1.6,1.3-3.7,1.9-5.5,3c-3,1.8-4.5,0.2-5.6-2.3
		c-1.1-2.4-1.5-5.1-0.9-7.6c4.2-19.7,11.8-38,22.4-55.1c0.2-0.2,0.5-0.4,0.8-0.5c0.1,8,5.6,11.3,12.1,13.7c1.4,0.5,2.8,1.1,3.1,2.8
		c-2.5,6.9-6,13.3-9.8,19.6c-0.7,1.2-1.5,2.6-3.4,2.1c-1.4-1.8-0.2-3.8-0.3-5.6c-0.2-3.2-0.7-6.3-4.3-7.4c-3.3-1-5.7,0.8-7.4,3.4
		c-2,3-3.6,6.2-4.1,9.8c-0.6,5,1.5,7.1,6.6,6.8c0.8-0.1,1.6-0.1,2.4,0.3c1.4,1.3,0.3,2.5-0.5,3.3c-2.9,3-5.5,6.3-8,8.6
		c11.4-8.6,21-19.8,29-32.7c1.7-2.7,2.7-6,5.6-7.7C602.8,430.6,604.4,431,605.5,432.8z"/>
	<path d="M605.5,432.8c-1.7,0-3-1.8-4.9-1c-2.2,1-4.2,0.7-5.8-1.2c-2.6-2.3-6.1-2.7-9.1-4.4c-5.5-3.2-7.2-6.3-5.8-12.1
		c2.7-5.4,6.3-10,11.8-12.6c5.8-2.7,11-0.3,15.3,3.3c4.2,3.5,9.1,6.4,11.1,12.1c3.3,9.7-0.6,15.7-10.8,15.8
		C606.7,432.6,606.1,432.7,605.5,432.8z"/>
	<path class="st3" d="M527.2,374c-1.3,2.5-0.8,5.1-0.7,7.7c-12.7,2.6-16,12.2-17.7,23.2c-2.6,16.8,0.9,33.1,4.2,49.4
		c0.5,2.5,0.4,5.1,1.4,7.7c-5-3.2-7.2-8.4-9.2-13.5c-6.3-16-9.5-32.6-9.1-49.8c0.1-5.4,1.1-10.8,4.1-15.3c4-6,9.8-9.3,17.2-9.5
		C520.7,374,523.9,374,527.2,374z"/>
	<path d="M548.8,430.8c2.4,0.5,6.7,0.6,8.9,5c2.2,4.2,0,7.6-2,10.9c-1.5,2.6-3.1,5.2-6.1,6.4c-4.8,2-9.8,0.3-13.6-4.6
		c-2.6-3.3-2.4-8.1,0.8-12.1C539.5,433.1,542.5,430.3,548.8,430.8z"/>
	<path class="st4" d="M553,381.8c6.8,5.9,11.3,12.6,15.4,19.7c1.9,3.3,0.8,4.8-2.9,4.8c-6.2,0-10.1-4.8-10-10.9
		C555.5,391.1,553.9,386.7,553,381.8z"/>
	<path class="st3" d="M594.8,430.6c1.9,0.4,3.9,0.8,5.8,1.2c-9.2,16.9-20.7,31.9-37.6,42.1c4-4.7,8.1-9.3,12.1-14
		c1-3.7,3.1-6.5,6.8-7.8c3.8-3.5,5.5-8.4,8-12.8C591.5,436.4,592.4,433.1,594.8,430.6z"/>
	<path d="M582,452.1c-2.3,2.6-4.5,5.2-6.8,7.8c-1.5,0.4-3,0.9-4.5,1c-4,0.3-6.5-3.1-6.1-8.3c0.4-4.3,2.4-8.1,4.8-11.5
		c2.2-3,5.2-5,9.4-2.8c4.5,2.3,4.5,6.1,4.1,10.1C582.7,449.6,582,450.8,582,452.1z"/>
	<path class="st4" d="M607.3,408.5c3.5,4.3,6.4,7.2,7.4,11.4c1,3.9-0.6,5.7-6.2,6.8c-3.5,0.7-6.4-0.3-7.9-3.8
		c-0.6-1.4,0.6-2.6,1.7-3.2C606.6,417.6,607.9,414.2,607.3,408.5z"/>
	<path class="st2" d="M549.5,432.7c2.9,0.3,5.7,2.6,6.7,6.1c0.8,2.8-1.5,4-4,3.6c-4.2-0.6-5.9-4.2-7-7.5
		C544.5,432.9,546.8,432.6,549.5,432.7z"/>
	<path class="st5" d="M539.5,442.5c2.7-0.2,7.6,4.8,7.3,7.4c-0.1,0.9-0.6,1.8-1.3,1.9c-2.3,0.1-4.3-1.2-5.9-2.6
		c-1.5-1.2-2.6-2.9-2.2-5C537.5,443.1,538.4,442.5,539.5,442.5z"/>
	<path class="st2" d="M578.3,449.4c-2.6-1.6-5.7-2.5-5.9-5.5c-0.2-2.8,2.7-3.3,4.8-3.4c3.2-0.1,3.4,2.8,3.8,5
		C581.4,447.7,579.3,448.2,578.3,449.4z"/>
	<path class="st5" d="M574.1,456c-0.8,1.6-1.8,3.2-3.6,2.8c-2.3-0.5-5-1.4-5-4.4c0-2,2-4,3.7-3.8C572,450.9,573.1,453.7,574.1,456z"
		/>
</g>
</svg>
