<?xml version="1.0" encoding="utf-8"?>
<!-- Generator: Adobe Illustrator 23.0.1, SVG Export Plug-In . SVG Version: 6.00 Build 0)  -->
<svg version="1.1" id="Layer_4" xmlns="http://www.w3.org/2000/svg" xmlns:xlink="http://www.w3.org/1999/xlink" x="0px" y="0px"
	 viewBox="0 0 1000 1000" style="enable-background:new 0 0 1000 1000;" xml:space="preserve">
<style type="text/css">
	.st0{fill:#FB9A7A;}
	.st1{fill:#6E3720;}
	.st2{fill:#FEFEFE;}
	.st3{fill:#C0FEFE;}
	.st4{fill:#7F7F7F;}
	.st5{fill:#00407F;}
</style>
<g>
	<path class="st0" d="M539.9,476.5c-5.1,4.1-11.6,5.3-17.4,7.7c-21.9,8.8-44,17-66,25.4c-0.4,0.2-1,0-1.4,0c-0.9-1.6-1.7-3.2-2-5
		c-2.7-19.1-10.2-36.6-18.7-53.7c-7.9-15.9-15.6-31.9-21.4-48.6c-5.5-16.1-9.6-32.6-9.8-49.6c-0.2-16.8,8.5-29.7,22.3-39
		c14.7-9.9,31.7-13.2,48.9-15.2c5.6-0.6,11.2-2.4,16.8-0.1c2,4.6,3.8,9.2,3.9,14.2c-1.8,1.7-4.1,1.9-6.3,2.4
		c-4.5,1-8.7,2.6-12.9,4.5c-11,5-16.8,15.1-15.6,27.2c2.4,23.7,9.6,45.7,21.8,66.2c2.1,3.6,4.8,6.6,7.9,9.2
		c6.3,5.3,13.7,5.2,19.9-0.2c4.7-4.1,7.5-9.5,9.1-15.3c4.9-18,7.6-36.1,6.1-54.9c-0.6-7.4-1.8-14.8-1.6-22.3
		c0.2-0.6,0.6-1.2,1.1-1.6c6.8-4.7,7.2-10.8,3.9-17.7c-0.7-1.5-1.8-3.2-0.1-4.9c3.6-0.5,7,0,10,2.4c1.3,2.3,0.4,4.7,0.1,7.1
		c-0.4,3.4,0.1,6.8,0.5,10.1c-4.3,15.2-6.6,30.8-8,46.5c-1.2,14-3.6,28-1.6,42.2c0.2,1.1,0.2,2.3,0.6,3.3c0.6,1.6,1.3,3.1,3.1,3.5
		c2,0.4,2.9-1.2,3.7-2.6c2.3-4.1,4.5-8.3,6.3-12.7c7.7-19.2,13.3-39,15.6-59.7c0.7-6.4-1-12.2-3.5-17.9c0.5-3.1,2.6-3.9,5.3-4
		c6.5,3.6,9.9,12.3,8.6,21.7c-2.9,21.1-9.3,41.2-18.7,60.3c-0.6,1.2-1,2.4-1.8,3.5c-4.4,6.6-5.2,13.2-2.9,21.1
		c3.3,11.2-4,20.5-15.5,22.5c-9.3,1.6-18.1-0.2-27-2.1c-6.8-1.5-13.5-3.9-20.5-4.3c-9.4-0.5-17.3,2.9-24.6,9.9
		c2.7,0.8,4.6,0.1,6.3-0.4c12.6-3.6,25-3,37.5,0.4c8.9,2.5,18,4.6,27.4,3.9c2.3-0.2,3.6,1.2,4.6,3.1
		C536.5,467.4,538.9,471.7,539.9,476.5z"/>
	<path class="st1" d="M491.1,298.9c-20.1,0-39.7,3.1-57.9,11.9c-15.9,7.6-25.8,20.4-28.8,38c-0.9,5.3,0.6,10.6,1.1,15.9
		c0.9,9.9,3.4,19.5,6.2,29c4.5,15,10.2,29.6,17.3,43.7c7.2,14.2,14.4,28.3,19.3,43.5c3,9.4,6.2,18.8,6.6,28.8
		c-2.3-0.7-2.9-2.8-3.8-4.6c-12-24.4-23.2-49.2-35-73.7c-7.6-15.8-13.9-32.6-17.2-49.9c-3-15.7-4.7-31.7,0.5-47.5
		c2.9-8.9,8.9-15.5,15.9-21.6c11-9.6,24.2-14.2,37.8-17.8c6-1.6,12.1-2.4,18.4-2.7c6.9-0.3,13.8-1.3,20.8-0.7
		C494,294.1,493,296.6,491.1,298.9z"/>
	<path class="st1" d="M539.9,476.5c-2.9-4.1-4.6-8.8-6.9-13.1c-0.5-1-0.8-2.7-2.6-2.4c-12.3,2-23.8-2.2-35.3-5.1
		c-11-2.8-21.3-0.4-31.8,1.5c-2.3,0.4-4.6,1-7.5,1.6c2.5-6.8,7.9-9.1,13.2-11.7c9.6-4.5,19.1-2.3,28.6,0.4c7.1,2,14.3,3.5,21.6,4.4
		c5.9,0.7,12.1,0.4,17.3-2.8c9.2-5.7,11.3-11.3,7.6-21.6c-2-5.5-1.4-9.8,1.3-14.8c9.5-17.6,16.7-36.1,20.5-55.7
		c1.3-6.9,3.7-13.9,1.6-21.4c-1.3-4.7-3.1-8.7-7-11.6c0.4-3.2,2.6-5.1,5-6.8c12.3,9,12.9,21.4,10.4,34.8
		c-2.8,14.6-6.5,28.9-12.4,42.5c-3.2,7.4-5.8,15-10.4,21.7c-1.9,2.7-2.2,5.2-0.4,8.6c6.1,11.7,2.4,21.8-7.5,29.2
		c-5.4,4-6.2,5.4-4.4,12.1C541.8,469.8,539.9,473,539.9,476.5z"/>
	<path d="M491.1,298.9c0.4-2.6,0.7-5.2,1.1-7.8c5.9-7.7,7.6-8.8,17.9-4.3c4.6,2,8.4,5,11.5,8.9c3.8,2.2,6.1,5.5,6.8,9.9
		c1,2.6,2.2,5.2,2.9,7.9c2,8.1,0.4,11.4-6.8,15.7c-6,4.3-13.1,3.9-19.6-1.2c-2-1.6-3.9-3.4-5.3-5.6c-1-1.8-2.1-3.7-3.2-5.4
		c-0.6-1.4-1.8-2.8-1.2-4.5C493,308.2,491.5,303.7,491.1,298.9z"/>
	<path d="M565.5,317.3c-1,2.8-3.3,4.5-5,6.8c-2.1,0.2-3.2,2-4.9,2.9c-0.6,1.3-1.7,1.7-2.9,2.1c-1.7,0.4-3.3,0.9-5.1,1.1
		c-4.2,0.2-7.7-0.8-9.5-5.1c-2.6-5.8-0.2-11.6-0.2-17.5c-1.7-2.9-0.7-5.5,1-8c0.7-2.4,1.2-4.9,2.2-7.1c3.3-7,9.4-8.5,15.5-4
		c7.9,5.8,11.5,16.9,8.8,26.7C565.3,316,565.5,316.7,565.5,317.3z"/>
	<path class="st1" d="M539,299.7c0.6,2.8-1.3,5.3-1,8c-3.2-0.7-6.4-1.4-9.6-2c-2.3-3.3-4.5-6.6-6.8-9.9
		C527.7,295.8,533.2,298.2,539,299.7z"/>
	<path class="st2" d="M495,312.5c0.6,1.3,1.3,2.6,1.9,3.9c-1.8,1.7-4.2,1.6-6.4,2.1c-1.7,0.4-3.5,0.8-5.2,1.2
		c-17,3.7-22.6,16.1-20.9,30.7c2.6,22.8,10.5,43.8,23.2,63c0.4,0.5,0.8,1.1,1.1,1.6c0.2,0.3,0.4,0.5,0.8,0.5
		c-9.2-21.7-15.4-44.1-15.2-67.9c0.1-13.5,7.4-23.3,19.5-26.5c2-0.5,4.1-1.3,6,0.3c6.3,8.4,14.2,12.1,24.6,8
		c1.9,11.6,3.5,23.4,2.7,35.1c-1.1,17.5-1.9,35.3-10.4,51.5c-5.8,11.1-18.9,17.1-29.9,5.1c-8.1-8.9-12.4-19.8-17.1-30.6
		c-6.5-15-10.2-30.9-10.5-47.1c-0.2-10.5,4.4-19.2,14.8-24C480.7,316.1,487.6,313.7,495,312.5z"/>
	<path class="st2" d="M552.8,328.3c1-0.4,1.9-0.8,2.9-1.3c4.8,5.3,5.4,12,4.7,18.5c-1.4,12.4-4,24.7-7.6,36.7
		c-3.8,12.6-8.3,25-14.7,36.6c-1.1,1.9-2.4,4.6-5,3.7c-2.7-0.8-4.2-3.4-4.7-6.3c-2.1-11.9,0.1-23.8,0.7-35.6
		c0.5-10,2.2-19.8,3.2-29.7c0.9-8.8,3.2-17.3,5.9-25.7c2.7,2.6,5.7,4.5,9.6,4.1c4.3,4.6,4.6,10.4,4.2,16
		c-0.7,10.8-1.8,21.6-4.8,32.2c-0.6,2-0.7,4.2-2.6,5.6c-2.5-0.9-1.9-3.2-1.9-5c0-3.1-0.3-6.1-1-9.2c-0.3-1.3-0.7-2.5-2.2-2.9
		c-1.5-0.3-2.4,0.8-3.2,1.7c-1.5,1.9-2.6,4.2-2.9,6.6c-0.9,6.3-1.8,12.5-1.7,18.8c0,1.1,0.2,2.2,0.7,3.3c1.6,3,3.5,3.2,5.4,0.4
		c1.9-2.7,2.2-6.1,3.2-9.1c0.6-1.8,0.2-4.4,3-4.9c1.6,1.7,1.1,3.6,0.7,5.5c-2.2,9.5-5.9,18.5-10.2,27.2c0,0.1-0.3,0-0.5,0
		c0.1,0,0.1,0.1,0.3,0.2c8.8-15.5,13.2-32.5,17-49.7c1.6-7.1,2.6-14.4,3.7-21.6c0.6-3.8-0.4-7.4-1.4-11
		C553.2,331.8,552.1,330.2,552.8,328.3z"/>
	<path class="st3" d="M499.8,321.3c-15.6,1.6-23.8,10.7-24.1,25.8c-0.5,20.5,4.2,40.1,11.6,59.1c1.6,4.2,3.2,8.4,5.1,13.6
		c-6-3.9-8.4-9.4-11.2-14.4c-9.7-16.9-16-35.1-18.1-54.5c-1.8-17.4,4.4-29.6,25.6-33.5c2.7-0.5,5.3-1.6,8.1-1.1
		C498,318,499.5,319.3,499.8,321.3z"/>
	<path class="st4" d="M527.3,313.1c-0.3,2.5-2.7,3.5-5,4.1c-2.9,0.8-5.2-1.5-5.5-3.7c-0.8-6.7-3.5-12.6-6.5-18.4
		c-0.3-0.6-0.8-1.2-0.2-1.7c0.4-0.3,1.2-0.5,1.8-0.3C516.4,294.2,527.1,307.9,527.3,313.1z"/>
	<path class="st3" d="M543.8,382.8c3-6.1,3.7-12.8,4.9-19.4c1-5.3,1.4-10.8,1.9-16.2c0.7-6.2-1-12.1-2.8-17.9c1.7,0,3-1.8,4.9-1
		c4.3,7.3,4.3,15.1,2.8,23c-3.3,17.5-6.9,34.9-13.5,51.5c-2.1,5.2-5.3,9.8-8.7,14.3c2.5-6.8,5.1-13.5,7.5-20.3
		C542.5,392.3,544.1,387.7,543.8,382.8L543.8,382.8z"/>
	<path class="st4" d="M555,293.2c7,6.1,9.3,15.9,5.2,21.8c-0.9,1.4-1.9,3.9-4.3,2.9c-2-0.8-2.4-2.9-2.2-5c0.4-3.3,1.8-6.4,2.1-9.8
		C556,299.8,554,296.8,555,293.2z"/>
	<path d="M505.6,385.3c1.5-5.4,0.3-12,5.3-16.9c2-1.9,4-3.9,7.1-3c3.5,1,5.3,4.2,5.3,7.1c-0.1,9-0.5,18.1-4.7,26.4
		c-2.1,4.2-3.6,4.3-7.3,1.5C506.3,396.7,506.4,391.1,505.6,385.3z"/>
	<path d="M543.9,382.7c-2.5,4.4-1.9,9.7-4.5,14c-1.2,2-2.1,4.1-4.9,3.6c-2.6-0.4-4-2.8-4-4.8c-0.2-9-0.3-18.1,3.4-26.6
		c1.1-2.5,2.6-5.1,5.9-4.6c3,0.5,2.7,3.2,3.4,5.5C544.4,374.2,543.7,378.5,543.9,382.7C543.8,382.8,543.9,382.7,543.9,382.7z"/>
	<path class="st2" d="M521.5,376.7c0,2.1,0.6,4.2-1.6,5c-2.4,0.9-3.8-1.3-4.6-2.8c-1.4-2.8-4.1-5.6-1.8-9.1c1-1.6,3-2.4,4.2-1.5
		C520.3,370.4,521.9,373.4,521.5,376.7z"/>
	<path class="st5" d="M510.1,387.7c2.2,0.3,3.5,1.9,4.3,3.6c1.1,2,2.9,4,1.9,6.7c-0.1,0.1-0.2,0.3-0.3,0.4c-0.9,1.2-1.9,0.8-3,0.2
		c-3.5-1.9-4.8-5-5.1-8.7C507.8,388.7,508.9,388,510.1,387.7z"/>
	<path class="st2" d="M542,375.2c-0.2,1.8,0.7,4.7-2.5,4.5c-2.9-0.2-4.5-3.1-4.1-5.4c0.4-2.5,0.7-7,3.7-6.7
		C542.2,367.9,542,372.1,542,375.2z"/>
	<path class="st5" d="M532.2,392.1c0.4-1.9-0.8-5.2,2.1-4.9c2.6,0.3,3.2,3.7,3.7,6.1c0.4,2.2-1.1,4-3.2,3.9
		C531.3,397.1,532.5,394.1,532.2,392.1z"/>
</g>
</svg>
