<?xml version="1.0" encoding="utf-8"?>
<!-- Generator: Adobe Illustrator 23.0.1, SVG Export Plug-In . SVG Version: 6.00 Build 0)  -->
<svg version="1.1" id="Layer_4" xmlns="http://www.w3.org/2000/svg" xmlns:xlink="http://www.w3.org/1999/xlink" x="0px" y="0px"
	 viewBox="0 0 1000 1000" style="enable-background:new 0 0 1000 1000;" xml:space="preserve">
<style type="text/css">
	.st0{fill:#FB9A7A;}
	.st1{fill:#6E3720;}
	.st2{fill:#FEFEFE;}
	.st3{fill:#C0FEFE;}
	.st4{fill:#808080;}
	.st5{fill:#7F7F7F;}
	.st6{fill:#00407F;}
</style>
<g>
	<path class="st0" d="M539.1,476.6c-6.9,4.5-14.9,6.5-22.4,9.5c-20,8.2-40.2,15.7-60.3,23.5c-0.4,0.2-1,0-1.4,0
		c-1-1.7-1.9-3.4-2.1-5.4c-2.1-20.6-9-39.9-16.4-59c-8.8-23-16.7-46.2-19.5-70.8c-1-9-1.8-18-0.5-27.2c2.3-15.2,10.3-25.9,23.7-33.1
		c11.2-6.1,23.2-9.1,35.9-9.8c9.7-0.5,19.4-1.6,29.2,0.1c1.6,0.3,3.3,0.1,4.6,1.2c1,4.5,1,9.1,0.3,13.7c-2.2,2.1-5.1,1.9-7.7,2.5
		c-20.9,4.4-27,11.3-26.5,32.8c0.5,22.3,4.8,43.9,16.2,63.5c1.1,2,2.5,3.8,4,5.5c8.8,9.9,17.4,10.4,27.5-0.8
		c5.2-5.7,8.3-12.9,10.7-20.1c4.9-14.9,6.7-30.4,8.2-46c0.4-4.6-1.3-9-0.4-13.6c7.3-7.4,6-15.4,1.8-23.7c-0.8-1.5-1.9-3.1-1.1-5
		c6-0.2,11,2,15.2,6.3c0.6,3.5-1,6.6-1.3,10c-0.4,3.4-0.7,6.7-0.3,10.1c-5.2,15.6-10.3,31.2-13.6,47.3c-2,9.7-3.2,19.6-4.4,29.4
		c-0.4,2.8,0.3,5.5,0.9,8.2c0.4,1.6,0.8,3.3,2.7,3.7c1.9,0.4,2.9-1.2,3.9-2.4c3.9-5,7.7-10.1,10.6-15.7
		c7.9-15.1,13.9-30.8,18.6-47.1c2-6.9,3.6-13.9,0.4-21c0.8-2.9,2.8-4.3,5.7-4.7c6.5,4.1,7.2,10.5,6.3,17.1
		c-1.7,12-6.1,23.3-11.1,34.2c-5.9,12.7-12.1,25.3-20.9,36.3c-1.8,2.3-2.6,4.8-1.9,7.7c0.1,0.3,0.1,0.6,0.2,1
		c0.9,6.2,3,12.9-2.7,17.9c-6.5,5.7-14.2,8.6-23,7.4c-9.1-1.2-17.7-4.3-26.2-7.4c-3.5-1.3-6.9-2.8-10.5-4.1
		c-10.9-3.8-20.3-0.8-28.7,6.5c11.2-1.4,22.2-1.7,33.2,1.6c7.9,2.4,15.9,4.8,23.8,7.2c3.6,1.1,7.2,2,10.9,2.5
		C537.1,467.3,539,469.7,539.1,476.6z"/>
	<path class="st1" d="M509.7,305.7c-7.6,0.1-15.1-1.6-22.7-1c-15.5,1.2-31,2.1-45.1,9.9c-14.2,7.9-22.5,18.9-24.1,35.6
		c-1.4,14.2,1.2,27.8,3.7,41.4c5.1,27.8,17.2,53.4,26.2,80c3.3,9.9,4.7,20.2,6.4,30.4c0.4,2.5,0.6,5.1,0.9,7.6
		c-4.5-3.7-6.1-9-8-14.1c-9.2-24.8-18.7-49.5-27.4-74.5c-4.7-13.3-7.8-27-9.5-41c-0.9-7-2.1-14-1.7-21c0.6-11.7,1.7-23.6,8.3-33.8
		c6.7-10.3,17-16.3,27.9-20.9c10.7-4.5,22.1-6.3,33.7-7.5c13-1.4,25.6-0.5,38.4,1.3C514.8,301,513.2,304.2,509.7,305.7z"/>
	<path class="st1" d="M539.1,476.6c-1.4-5.5-3.9-8.5-10.5-9.4c-13-1.8-25.1-7.2-37.8-10.5c-9.1-2.3-17.9-0.9-26.8-0.1
		c-1.4,0.1-2.8,0.4-4.3,0.3c4.1-7.2,18.1-13.2,26.3-11.3c11.1,2.6,21.2,7.8,32.2,10.9c10.8,3,20.7,3.5,30.3-3.2
		c4.4-3.1,6.5-7.9,5-14.3c-0.2-0.9-0.4-1.9-0.7-2.8c-3.4-8.6,3.8-13.4,7.5-19c7.7-11.8,13.6-24.4,19-37.2c3.4-8,5.9-16.2,7.3-24.8
		c1.1-6.3-0.3-12.1-5.5-16.5c0.4-3.4,2.1-6.1,4.1-8.7c10.4,9.3,13,21,9.3,33.9c-6.5,22.6-16.4,43.8-31.1,62.4
		c-2.4,3.1-2.2,5.7-1.6,9c0.8,4.4,3.5,8.3,2.1,13.3c-2.4,8.8-9.5,12.6-16.5,15.8c-4.5,2-6.6,4.3-7.2,8.8
		C539.9,474.3,540.8,475.8,539.1,476.6z"/>
	<path d="M509.7,305.7c2.1-2.7,3.6-6,6.9-7.7c6.3-1.2,11.3,2.2,16.6,4.6c4.5,2.9,8.1,6.6,9.8,11.8c1.7,4.4,4.2,8.2,5.2,13.1
		c1.3,6.6,0.3,11.5-5.3,15.4c-6.5,5.8-17,4.9-23.5-2c-3.1-3.3-5.6-7.1-7.4-11.3c-0.7-2-1.6-4-2.2-6.1c-0.3-1.4-0.8-2.7-0.2-4.2
		C509.8,314.8,508.4,310.2,509.7,305.7z"/>
	<path d="M585.1,330c-0.2,3.5-2.1,6.1-4.1,8.7c-1.6,1.3-3.2,2.6-4.9,3.9c-0.5,1.2-1.6,1.7-2.7,2.3c-1.6,0.7-3.2,1-4.9,1.3
		c-6.9,1.3-9.9,0.1-12.7-5.4c-2.4-7.1,0.7-13.6,1.7-20.4c-1.1-3.7,0.5-6.4,3.1-8.7c2.2-3.4,4.1-7,8.5-8.3c1.6-0.5,2.8-0.7,4.4,0
		C582.1,307.4,588.1,321,585.1,330z"/>
	<path class="st1" d="M560.6,311.7c-1,2.9-2,5.8-3.1,8.7c-4.6-2.6-9.4-4.6-14.5-5.9c-3.3-3.9-6.5-7.9-9.8-11.8
		C542.7,304.6,551.4,308.9,560.6,311.7z"/>
	<path class="st2" d="M509.6,319.4c0.9,1.1,1.5,2.4,1,3.9c-2.8,2.1-6.2,1.6-9.3,2.3c-17.5,3.7-21.8,10.3-22,28.1
		c-0.2,14.9,3.3,29.6,8.2,43.9c2.7,7.9,6.2,15.3,10.9,23c-7-20.1-9.2-40.3-9.5-60.8c-0.1-4.3,0.5-8.5,1.5-12.6
		c1.9-8.2,6.9-14.3,14.6-17.8c2.5-1.2,5.2-2.2,7.9-0.3c1.3,2.1,2.4,4.3,3.8,6.3c7.8,10.9,14.2,12.4,26.4,7.6c2.6,20.4-1.7,40-7,59.3
		c-2.2,8.2-5.9,16.3-12,22.4c-11.5,11.4-20.6,10.6-30.5-2.6c-9-12-12.9-26.4-15.8-41c-2.3-11.4-3.8-23-2.8-34.6
		c1-11.1,4.2-18.9,18-23.5C498.3,321.2,503.8,319.6,509.6,319.4z"/>
	<path class="st2" d="M573.3,343.9c1-0.4,1.9-0.9,2.9-1.3c5,6.2,2.7,12.8,1,19.3c-5.3,20-12.6,39.2-23.4,56.8
		c-2.4,3.9-5.6,7.5-8.5,11.1c-2.4,3.1-4.6,1.8-6-0.9c-1.6-3.2-2.4-6.8-2.1-10.3c2.6-26.1,8.3-51.6,17.7-76.1c0.2-0.6,0.6-1.1,1-1.7
		c3.6,3.2,7,6.8,12.6,4.1c2.5,3,2.7,6.6,2,10.1c-2.3,12.8-6.2,25.1-10.7,37.3c-0.5,1.3-1,2.8-2.5,3.4c-2.5-1.4-1.5-3.6-1.2-5.5
		c0.5-2.9,0.6-5.8-0.7-8.6c-1.1-2.2-2.5-2.8-4.6-1.1c-2.9,2.3-4.7,5.4-5.7,8.8c-1.5,5-2.2,10.1-3.2,15.2c-0.5,2.4-0.3,4.6,1.6,6.2
		c2.1,1.7,3.5-0.5,5.1-1.3c0.7-0.4,1.5-0.7,2.3-0.5c1.6,3-1,4.8-2,7c-1.1,2.5-2.9,4.7-4.3,7c13-18.1,20.4-38.8,27.1-59.7
		c1.8-5.5,3.4-11.3,1.2-17.2C572.5,345.4,572.7,344.6,573.3,343.9z"/>
	<path class="st3" d="M512.8,329c-11.1,0.5-20.5,9.9-21.6,21.1c-2.6,25.4,1.7,49.8,9.6,73.8c-2.1-1.4-4.7-4.3-6.1-6.9
		c-8.2-15.3-13.2-31.5-15.2-48.8c-1-8.4-2.3-16.6-0.4-25.4c2.7-12,9.5-15.8,20.9-18.6c3.4-0.8,6.9-1.7,10.6-1.1
		C511.6,325.1,512.9,326.8,512.8,329z"/>
	<path class="st4" d="M527.8,306.7c6.8,2,17.2,15.1,17.1,20.8c-0.1,2.6-2.3,3.4-4.1,4.2c-2,0.8-4.1,0.8-5.7-1.2
		c-1.3-1.7-1.9-3.6-1.9-5.8C533,318.5,531.3,312.8,527.8,306.7z"/>
	<path class="st3" d="M556.6,395.4c6.2-16.3,14-32.3,11.8-50.6c1.6-0.3,3.4,0.1,4.9-1c3.4,7,1.4,13.9-0.7,20.7
		c-5.8,18.3-12.6,36.1-22.5,52.6c-2,3.3-4.4,6.3-8.1,9.8c2-7.3,7.2-11.7,8.7-18C550.5,403.6,552.5,399.1,556.6,395.4z"/>
	<path class="st5" d="M575.1,309.9c8.4,6.8,8.7,17.7,1.2,24.4c-0.9,0.8-1.6,2.4-3.2,1c-1.1-1-2.4-2.1-1.7-3.7
		C574.5,324.8,575.7,317.7,575.1,309.9z"/>
	<path d="M516.5,397.9c1.7-6.5,0.3-14,6.5-19.2c5.1-4.3,10-3.6,11.3,2.9c1.9,9.7-0.8,19-5.6,27.5c-1,1.9-2.9,3.8-5.6,2.9
		c-2.6-0.9-5.1-2.7-5.3-5.5C517.6,403.6,515.9,400.9,516.5,397.9z"/>
	<path d="M556.6,395.4c-1.9,4.6-3.9,9.1-5.8,13.7c-0.7,0.6-1.4,1.3-2.2,1.8c-1.6,1.2-3.3,3.1-5.4,1.7c-2-1.3-3.5-3.5-3-6.1
		c1.3-6.7,1.9-13.6,4.5-20.1c1.2-2.9,3.1-5.2,5.3-7.2c2.6-2.4,5.2-1.6,6.8,1.7C558.9,385.8,556.6,390.6,556.6,395.4z"/>
	<path class="st2" d="M533.1,387.1c-0.2,0.8-0.4,2.4-1.1,3.8c-1.2,2.3-3.1,2.5-4.4,0.3c-1.2-2-1.7-4.3-2.8-6.4
		c-1.1-2.3-0.3-4.1,1.6-5.4c2.4-1.6,3.5,0.6,4.7,1.9C532.5,382.7,533.4,384.4,533.1,387.1z"/>
	<path class="st6" d="M526.3,406.3c-0.1,1.4-0.5,2.6-2.2,2.7c-2.1,0.1-5.8-5.1-5.6-7.7c0.1-1.7,0.9-2.8,2.7-2.7
		C523.3,398.7,526.4,403.7,526.3,406.3z"/>
	<path class="st2" d="M555.6,385.8c0.2,3.6-0.8,7-4,7.4c-1.9,0.3-2.8-2.9-2.8-5.3c-0.1-3.1,1-6.3,3.9-6.8
		C554.8,380.8,556.1,383.5,555.6,385.8z"/>
	<path class="st6" d="M541.9,404.9c0.3-2.2,0.6-5,2.8-5.1c2.7-0.1,4,2.8,3.8,5.1c-0.2,1.8-0.1,5.2-3.2,5
		C542.5,409.8,542.4,407,541.9,404.9z"/>
</g>
</svg>
