<?xml version="1.0" encoding="utf-8"?>
<!-- Generator: Adobe Illustrator 23.0.1, SVG Export Plug-In . SVG Version: 6.00 Build 0)  -->
<svg version="1.1" id="Layer_4" xmlns="http://www.w3.org/2000/svg" xmlns:xlink="http://www.w3.org/1999/xlink" x="0px" y="0px"
	 viewBox="0 0 1000 1000" style="enable-background:new 0 0 1000 1000;" xml:space="preserve">
<style type="text/css">
	.st0{fill:#FB9A7A;}
	.st1{fill:#6E3720;}
	.st2{fill:#FEFEFE;}
	.st3{fill:#C0FEFE;}
	.st4{fill:#7F7F7F;}
	.st5{fill:#00407F;}
</style>
<g>
	<path class="st0" d="M540.1,475.7c-10.1,5.7-21.3,8.8-31.9,13.2c-17.1,7.2-34.5,13.8-51.8,20.6c-0.4,0.2-1,0-1.4,0
		c-3.5-6.2-3.4-13.2-3.9-19.9c-1.2-15.2-5.2-29.8-9.1-44.3c-5.5-20.6-11.3-41.1-13.3-62.4c-1.1-11.3-2-22.6,0.3-33.9
		c4.1-20.8,15.9-33.9,36.8-38.8c19.5-4.5,39-3.3,58.5,0.4c2.5,0.5,5.1,1.1,7,3.2c-0.3,4.7-2.4,9-3.7,13.5c-4.1,1.8-8.6,1.5-12.9,2
		c-13.9,1.6-21.9,8.7-24,22.7c-2.7,17.8-0.4,35.3,3.9,52.6c1.5,6.1,3.3,12.2,6.7,17.7c0.4,0.7,0.8,1.4,1.2,2.1
		c8.4,13.9,21.2,14.9,31.8,2.6c5.9-6.9,9.6-15.1,13.2-23.2c6.4-14.4,9.4-29.7,11.2-45.3c0.1-0.5,0.2-1,0.5-1.3
		c7.3-7.9,5.3-16.2,1.3-24.7c-1.3-2.7-3.5-5.1-3-8.5c0.3-0.2,0.6-0.5,0.8-0.4c7.2,2.1,14,4.9,19.5,10.2c0.4,2.5-0.9,4.7-1.7,6.9
		c-1.9,5-3.7,10-3.4,15.4c-10.6,19.6-17,40.7-23.2,61.9c-1.1,3.6-1.5,7.3-2.1,11c-0.3,1.6-0.2,3.2,0.3,4.8c1.4,4.7,4.2,5.6,7.8,2.2
		c3-2.8,5.4-6,7.9-9.3c11.3-14.8,20.3-31,27.4-48.2c2.4-5.8,4.2-12,3.5-18.5c1.5-2.7,3.1-5.2,6.8-4.9c5.2,7.7,4.7,15.8,1.1,23.7
		c-9.3,20.6-21.3,39.5-36.9,55.9c-2.6,2.7-4.2,5.3-3.6,9.4c2.4,15.2-10,25.7-25.4,22c-9.1-2.2-17.3-6.4-25.8-10.1
		c-5.8-2.5-11.6-5.2-17.7-7c-8.3-2.5-16.3-2.4-24.1,1.9c-0.8,0.5-1.7,0.9-2.2,2.3c5.7,0.5,11.3,0.2,17,0.9
		c10.6,1.3,20,5.8,29.4,10.1c7.7,3.6,15.1,7.5,23.6,8.9C537.9,473.7,539.4,474.2,540.1,475.7z"/>
	<path class="st1" d="M577.3,334c-6.3-3.8-12.8-7.2-19.6-9.8c-2.8,0.1-3.6-2.5-5.1-4c-3.5-3.3-7.1-5.9-11.9-7.2
		c-3.5-0.9-6.2,1.7-9.4,1.4c-6.7-3.4-14.2-4-21.4-4.8c-15.6-1.6-31.1-1.5-46.4,2.7c-18.4,5-28.6,17.2-32.7,35.3
		c-3.3,14.7-0.9,29.3,0.7,44c2.8,24,10.9,46.7,16.3,70c2.6,11.4,4.6,22.9,5.5,34.6c0.3,4.5,1.2,8.9,1.8,13.3
		c-5.4-4.2-7.1-10.5-8.5-16.4c-6.6-28.6-15.5-56.6-22.1-85.1c-1.9-8.3-2.9-16.9-3.6-25.5c-0.5-6.3-1.5-12.6-0.8-18.8
		c0.9-8.5,1-17.1,3.6-25.4c3.6-11.8,11-19.9,21.4-26.2c10.9-6.6,22.5-9.2,35.1-10.5c27.4-2.8,53.1,3.1,78.2,13.1
		c8.2,3.3,16,7.6,23.9,11.6C581.5,329.5,580.6,332.6,577.3,334z"/>
	<path class="st1" d="M540.1,475.7c-14.5-1.9-26.6-10-39.8-15.2c-9.3-3.7-18.7-5.5-28.6-5.4c-2.7,0-5.4,0-8.4,0
		c4.9-7,15.2-10.2,23.9-8.4c11.3,2.3,21.5,7.3,31.7,12.3c6.1,3,12.5,5,19,6.6c8.4,2.1,21.1-3.1,23.3-12.5c0.8-3.6-0.5-6.7-1.1-10
		c-0.5-2.8-0.2-4.5,1.7-6.4c16.6-16.5,28.8-36.1,38.9-57.1c3.9-8.1,3.2-16.1-0.1-24.1c-1.1-3.9,1-6.9,3-9.9
		c9.5,10.4,11.8,21.7,6.5,35.3c-6,15.2-15.1,28.4-23.8,41.8c-3.9,6-9.6,10.8-14.8,15.9c-2.2,2.2-3.1,4.1-2.3,7.3
		c3.5,14.1-0.3,21-14,26.4C550.4,474.4,545.3,475.3,540.1,475.7z"/>
	<path d="M603.6,345.6c0,3.6-2.4,6.5-3,9.9c-2,1.6-3.9,3.1-5.9,4.7c-0.5,1.2-1.7,1.7-2.8,2.3c-2.1,0.9-4.4,1.1-6.5,1.7
		c-4.4,0.8-8.4,0.3-11.7-3.1c-1.2-1.3-2.6-2.6-1.6-4.7c-2.2-5.8,1.4-10.6,2.8-15.8c0.6-2.3,1.6-4.4,2.4-6.6c1.6-2.6,3.2-5.1,4.8-7.7
		c8.4-7.4,15.5-5.5,19.3,5.4C602.9,336.2,603.8,340.9,603.6,345.6z"/>
	<path class="st2" d="M559.5,358.4c-0.6,14.7-4.1,28.8-9.5,42.5c-3.6,9.3-7.8,18.4-14,26.3c-4,5.1-9.1,9.1-15.5,10.1
		c-7.6,1.1-13.2-3.5-17.4-9.3c-6.5-9-9.6-19.7-11.7-30.3c-2.5-12.5-3.6-25.2-3-38c0.4-9.2,2.4-18.1,9.5-25c4.1-4,9.2-5.5,14.4-6.2
		c4.9-0.6,9.9-1.9,14.9-1.2c1.2,0.9,2.1,1.9,0.8,3.4c-4.2,1.4-8.6,1.3-13,2c-12.4,1.8-18.2,6.7-20.1,19
		c-3.9,25.1,0.4,49.2,10.8,72.2c-4.6-21.1-5.5-42.3-1.9-63.7c0.9-5.4,2.9-10.4,5.8-14.9c4.2-6.5,10.3-9.7,18.2-9.2
		c2.3,0.7,2.6,2.7,3.2,4.6c1.5,4.7,3.7,9,7.1,12.6c4.4,4.6,9.7,7,16.2,5.3C556,358,557.7,357.1,559.5,358.4z"/>
	<path class="st2" d="M572.1,356.5c2.5,6.6,7.8,7.4,13.8,6.7c1.5,2,0.5,4.1,0,6.1c-3.2,12-8.1,23.3-13.8,34.2
		c-0.7,1.4-1.6,2.9-3.5,3c-2.3-1.9-0.6-4.2-0.6-6.3c0-2.3,0.4-4.9-2.1-5.9c-2.2-0.8-4,1-5.3,2.6c-6.2,7.1-8.7,15.7-10.2,24.7
		c-0.5,3,1.1,4.3,4.1,2.8c1-0.5,2-1.2,3.2-0.8c1.3,4.4-3.2,5.9-4.3,8.5c14.3-15,23.7-33.7,32.8-52.6c1.7-3.5,2.8-7.2,3.6-11.1
		c0.5-2.3,0.4-4.9,2-6.9c1-0.4,1.9-0.9,2.9-1.3c2.9,6.8-0.4,13-2.7,18.9c-7,17.7-16.6,34.1-28,49.4c-2.6,3.5-5.6,6.7-8.7,9.7
		c-3.6,3.4-6.4,2.4-8.5-2.1c-2.1-4.4-0.8-8.8,0.3-12.8c5.9-22.4,12.6-44.5,23.4-65.1C570.8,357.5,571.5,357,572.1,356.5z"/>
	<path d="M559.5,358.4c-15.1,4.7-27-3-30.1-19.6c-0.1-0.8,0.1-1.6-0.9-2c-1.8-2.2-1.8-4.5-0.3-6.8c-0.3-1-0.6-1.9-1-2.9
		c0.3-4.6,1-9,4-12.7c5.9-5.5,14-2.3,19.5,2.4c2.5,2.2,4.6,4.9,6.9,7.3c1.8,4.4,4.3,8.4,6,12.9C566.7,345.2,565.9,352.3,559.5,358.4
		z"/>
	<path class="st3" d="M591.8,361.5c0.1,5.9-1.3,11.6-3.8,16.9c-7.7,16.4-15.9,32.6-27,47.1c-2.4,3.2-5.8,5.6-9,8.6
		c0.4-4.3,4.8-6.3,5.4-10.3c3.5-5.9,5.2-12.9,10.7-17.6c1.7-0.4,2.1-2,2.7-3.2c6.4-12.7,12.3-25.6,14.9-39.7
		C587.5,361.3,590.1,363.1,591.8,361.5z"/>
	<path class="st4" d="M595.3,328.4c1.3,2.5,2.4,4.7,3.4,6.8c2.9,6.3,1.5,12.8-3.5,17.3c-1.1,1-2.4,2.4-4.2,1.5c-2-1-2.5-2.9-2.1-5
		c0.8-3.6,3.1-6.5,4.2-10.1C594.1,335.4,592.4,331.6,595.3,328.4z"/>
	<path class="st3" d="M528.2,330.1c0.1,2.3,0.2,4.5,0.3,6.8c-11.4,0.5-17.3,5.2-21.6,16.9c-1.7,4.8-2.3,9.8-2.8,14.7
		c-1.9,19.7-1.2,39.3,4.6,58.5c0.1,0.3-0.1,0.6-0.3,1.3c-6-5.5-8.1-12.8-10.2-19.9c-4.6-15.1-6.2-30.6-6-46.4
		c0.1-6,1.2-11.9,3.2-17.5c3.1-8.7,10.3-12.1,18.8-13.2C518.8,330.6,523.4,329.5,528.2,330.1z"/>
	<path d="M526.5,410.5c1.7-6.6,1.4-15,8-20.7c2.4-2.1,5.4-3,8-1.8c2.9,1.4,5.2,4.3,4.4,7.8c-1.9,8.2-2.8,16.7-7.7,24
		c-1.5,2.3-3.4,4.3-6,3.8c-3.1-0.5-5.5-2.9-5.7-6.2C527.4,415.3,526,413.5,526.5,410.5z"/>
	<path d="M568.3,406.2c-4,5.6-5.5,12.7-10.7,17.6c-0.9,0.7-1.7,1.5-2.7,1.9c-1.3,0.6-2.6,1.9-4.3,0.4c-1.5-1.3-2.1-2.9-1.7-4.7
		c1.8-8.1,3.9-16.1,8.8-23.1c0.1-0.1,0.1-0.3,0.2-0.4c2.6-2.5,5-6.8,9-4.9c3.6,1.8,3.3,6.1,1.7,9.8
		C568.1,403.8,568.3,405.1,568.3,406.2z"/>
	<path class="st4" d="M546.8,321.2c6.4,1.5,7.9,6.8,10.7,10.8c1.6,2.3,2.4,5.1,3.5,7.8c1.4,3.5,0,6.6-3.7,7.4
		c-3.8,0.9-6.2-1.6-6.3-4.8C550.7,335.3,549.1,328.5,546.8,321.2z"/>
	<path class="st2" d="M543.9,398.6c0.4,2.1-0.1,4.3-2.4,5.5c-1.1,0.6-2.2,0.2-3-0.8c-1.7-2.4-4.1-4.9-3.2-8c0.6-2.1,1.8-5.3,4.7-4.4
		C543.3,391.8,544.2,395,543.9,398.6z"/>
	<path class="st5" d="M528.4,413.4c-0.1-2.3,0.3-4.4,2.3-4c4.4,0.7,4.4,5,5.4,8.2c0.5,1.7-0.4,3.7-2.4,3.2
		C529.7,419.7,529.5,415.9,528.4,413.4z"/>
	<path class="st2" d="M567.4,399.7c0.6,1.8-0.8,3.3-1.2,4.9c-0.4,1.5-1,4.3-3.6,3.6c-2.4-0.7-3.3-3.1-2.9-5.3c0.3-1.9,0.6-4,2.4-5.4
		c1.1-0.9,1.9-2.4,3.6-1.8C567.6,396.3,567.5,398,567.4,399.7z"/>
	<path class="st5" d="M556.6,418c0.2,3-0.4,5.4-3.5,5.6c-2.1,0.1-2.5-1.8-2.3-3.5c0.4-2.7,0.6-6.3,3.7-6.6
		C557.5,413.2,556.3,416.5,556.6,418z"/>
</g>
</svg>
