<?xml version="1.0" encoding="utf-8"?>
<!-- Generator: Adobe Illustrator 23.0.1, SVG Export Plug-In . SVG Version: 6.00 Build 0)  -->
<svg version="1.1" id="Layer_4" xmlns="http://www.w3.org/2000/svg" xmlns:xlink="http://www.w3.org/1999/xlink" x="0px" y="0px"
	 viewBox="0 0 1000 1000" style="enable-background:new 0 0 1000 1000;" xml:space="preserve">
<style type="text/css">
	.st0{fill:#FB9A7A;}
	.st1{fill:#6E3720;}
	.st2{fill:#FEFEFE;}
	.st3{fill:#C0FEFE;}
	.st4{fill:#7F7F7F;}
	.st5{fill:#00407F;}
</style>
<g>
	<path class="st0" d="M540.1,477.7c-18.6,7.8-37.9,14-56.7,21.3c-9.4,3.6-18.9,7.1-28.4,10.7c-3.8-7-3.2-14.9-4.1-22.4
		c-1.5-12.8-3.1-25.5-6.4-38c-5-19.2-8.7-38.7-11-58.4c-1.5-12.8-1.9-25.6,0-38.4c2.5-17.3,10.2-31,27.1-38.4
		c6.6-2.9,13.6-3.5,20.5-3.8c16.1-0.7,32.2,0.8,48,4c3.8,0.8,7.7,1.6,10.8,4.2c0.4,5-2.9,8.7-4.7,12.9c-5.1,1.8-10.6,1-15.9,1.7
		c-15.8,2.3-22.3,8.3-24,24.3c-2.2,20.4-0.7,40.5,6.4,60c1.7,4.6,3.7,9,6.7,12.9c6.9,8.9,17,10,25.6,2.7c2.5-2.1,4.9-4.3,6.7-7
		c0.3-0.4,0.6-0.9,0.9-1.2c7.4-9.4,12.3-20.1,15.9-31.5c3.1-9.6,4.7-19.5,7-29.3c0.2-0.5,0.3-1,0.7-1.3c10-6.7,6.4-15.3,3.3-23.9
		c-1.1-3-3.7-5.4-3.2-9c0.5-0.4,1.2-0.7,1.8-0.5c6.4,2.5,12.6,5.2,17.3,10.5c0.2,2.3-1.1,4-2,5.9c-3,6.1-4.8,12.4-5.1,19.2
		c-3.7,9.3-9,17.9-12.7,27.2c-3.3,8.2-7.2,16.2-9.6,24.8c-1.1,3.5-2.3,6.9-3.2,10.5c-1.1,3.3-1.9,6.6-1.6,10c0.5,4.8,3,5.9,6.9,3.2
		c6.9-4.9,11.2-12.1,16.7-18.3c10.3-11.8,16.9-25.8,23.6-39.7c2.3-4.9,3.6-10.1,2.8-15.6c1-2.8,2.3-5.5,5.8-5.9
		c4.6,4.8,5.6,10.6,4.1,16.7c-2.7,11-7.9,21.1-14.6,30.1c-8.4,11.4-17.1,22.6-27.5,32.2c-3,2.8-4.1,5.7-3.5,9.9
		c1.5,9.1-2.5,14.8-11.2,17.9c-10.1,3.6-19.6,1.4-28.8-2.9c-10.4-4.9-20.5-10.7-31.4-14.6c-8.5-3-16.6-2.2-25.1,1.9
		c4.2,0.8,7.9,1.3,11.7,1.6c10.3,0.9,19.4,5.1,28.5,9.5c9.8,4.8,19.3,10.1,30,12.7C538.9,476.5,539.6,476.9,540.1,477.7z"/>
	<path class="st1" d="M583.9,339.9c-6-3.5-11.6-7.8-18.4-9.8c-2.1,0.6-2.7-1.2-3.7-2.4c-1.7-1.9-3.5-3.7-5.4-5.4
		c-4.8-4.3-10.2-5.4-16.3-3c-10.9-4.7-22.5-5.8-34.2-6.9c-7.9-0.7-15.8-1.4-23.7-0.9c-8.4,0.6-16.8,1.3-24.6,5.5
		c-12.5,6.6-18.7,17.5-21.7,30.3c-2,8.7-2.6,17.9-2.1,26.9c0.9,14.7,2.7,29.3,5.3,43.9c3.4,19,9.5,37.5,12.1,56.7
		c1.3,9.2,2.2,18.5,3,27.7c0.2,2.4,1.7,4.6,1,7.1c-4.4-3.1-6.2-8.2-7.5-12.8c-3.2-11.2-5.4-22.7-8-34.1c-2.8-12.3-5.7-24.6-8.3-37
		c-2.4-11-5.3-21.9-5.6-33.3c-0.2-9.1-2.3-18.2-1.6-27.4c0.9-11.8,2.2-23.7,7.9-34.5c7.1-13.5,19-20.4,33.1-24.3
		c13-3.7,26.4-4.4,39.7-3.2c18.5,1.7,36.3,6.6,53.4,14.1c10.4,4.6,20.6,9.5,30,15.9C587.9,336.1,586.5,338.3,583.9,339.9z"/>
	<path class="st1" d="M540.1,477.7c-6-0.4-11.5-2.8-16.9-5.2c-9.3-4.1-18.2-8.9-27.4-13.1c-6-2.8-12.6-3.5-19.1-4.3
		c-4.1-0.5-8.1-0.9-13.3-1.5c9.4-5.6,18.1-8,28.1-4.8c11.9,3.8,22.5,10.2,33.7,15.4c9.2,4.3,18.5,6.2,28.4,2.5
		c7.8-2.9,11.5-9.4,9.4-17.5c-0.9-3.4-0.3-5.8,2.3-8.2c11.6-10.6,21.3-22.9,30.4-35.5c6.3-8.8,11.2-18.7,13.5-29.5
		c1.1-5.2-1.2-10.1-3.7-14.6c-0.1-3.9,1.1-7.5,3-10.9c6.1,7.1,11.1,14.8,10.5,24.6c-0.4,7.8-3.7,14.9-7.5,21.7
		c-10.4,18.3-23.1,34.8-38.5,49.2c-1.1,1-1.9,2-1.6,3.7c2.9,15.8-0.5,21.5-16,26.8C550.4,478.2,545.3,479.4,540.1,477.7z"/>
	<path d="M608.5,350.5c0.2,4-1.2,7.5-3,10.9c-1.6,1.9-3.3,3.8-4.9,5.7c-0.5,1.2-1.7,1.8-2.8,2.3c-2.4,1-4.9,1.3-7.4,1.8
		c-2.6,0.3-5.1,0.4-7.7,0c-3.4-0.6-6.1-2.1-6.4-6c-0.8-9.4,3.7-17.2,7.6-25.3c1.4-2.3,2.7-4.7,4.1-7c8.4-8.5,16.6-1.3,19.2,8.2
		C607.9,344.2,608.1,347.4,608.5,350.5z"/>
	<path class="st2" d="M565.3,364.2c-3.2,20.6-8.1,40.7-20.2,58.2c-0.9,1.3-1.6,2.7-3.3,3.3c-1.2-2.1,0.2-3.8,1-5.4
		c2.5-5.2,3.9-10.6,5.2-16.2c0.2-0.8,0.3-1.6,0.3-2.4c0-2.9-0.6-5.6-3.4-7.1c-2.7-1.4-4.9,0.4-7.1,1.7c-1,0.6-1.8,1.4-2.3,2.5
		c-3.3,6.8-5.8,13.7-4.2,21.5c1.3,6.5,3,7.4,9.1,5.3c0.5-0.2,1-0.1,1.4,0c-4.1,7.6-10.2,13-19,13.6c-8.2,0.5-14.1-4.4-17.8-11.2
		c-6.5-12.2-10-25.2-11.1-39.1c-0.7-8.4-1.1-16.8-0.7-25.2c0.2-5.6,0.5-11.2,2.6-16.5c3.9-9.8,11.8-13.9,21.7-15.2
		c5.8-0.8,11.6-1.2,17.4-0.9c1,0.9,1,1.9,0.4,3c-1.6,1.4-3.7,1.3-5.6,1.2c-4.4-0.1-8.8,0.7-13,1.6c-9.5,2-15.5,8-16.9,17.7
		c-3.5,24.5-0.7,48.3,9.6,72.2c-1.5-14.6-3.1-28-3-41.6c0.1-7.5,0.7-15,2.2-22.3c2.3-11.5,8-20.2,20.3-22.9c2.2-0.5,4.5-0.8,6.7,0
		c2.5,1.3,2.7,3.9,3.3,6.2c1.3,4.6,3.1,9,6.5,12.4c4,4,8.9,5.9,14.6,5.1C562,363.4,563.8,362.7,565.3,364.2z"/>
	<path d="M535,334c0-1,0-1.9,0-2.9c0.6-4.4,2.5-8.2,5-11.7c5.6-3.8,8.3-3.7,14.1-0.2c4.6,2.8,7.6,7.2,11.4,10.9
		c2.7,6,6.2,11.5,7,18.4c1,8.2,0.9,9.5-6,14.2c-0.5,0.3-0.8,1-1.2,1.5c-3.9-0.1-7.6,1.7-11.7,0.5c-10.6-3.1-14.2-11.5-16.4-20.9
		c-0.3-1.1-0.7-2.1-1.2-3C534.6,338.7,533.6,336.5,535,334z"/>
	<path class="st2" d="M576.3,365.2c3.2,6.4,9.3,4.6,14.5,5.1c2,2.2,0.9,4.7,0.2,6.9c-3.1,10.9-8.6,20.7-14.1,30.5
		c-2,3.5-4.1,7-6.5,10.3c-1,1.4-1.8,3.2-4,3.1c-1.6-2-0.1-3.7,0.7-5.3c1.3-2.8,2.5-5.6,3.3-8.6c0.6-2.2,1.1-4.7-1.5-5.9
		c-2.5-1.2-4.3,0.4-5.9,2.2c-2.4,2.8-3.8,6.3-5.6,9.6c-0.9,1.6-1.2,3.9-3.7,4c0.8-6.3,4.1-11.7,6.3-17.5
		C564.7,387.7,570.3,376.4,576.3,365.2z"/>
	<path class="st2" d="M597.7,368.3c1-0.4,1.9-0.9,2.9-1.3c2.7,5.4,0.2,10.4-1.8,15.1c-8.1,19-18.8,36.3-32.8,51.5
		c-2.7,3-5.3,6-8.6,8.4c-1.6,1.1-3.1,2.8-5.1,1.9c-2.2-1-3.3-3.1-3.4-5.5c-0.2-3.7-0.1-7.4,1.8-10.7c1.8,3.3,5.1,3.3,8.2,3.8
		c0.9,1.6-0.1,2.6-1,3.7c9.9-10.7,18.3-22.6,25.9-35C589.8,390.2,594.4,379.5,597.7,368.3z"/>
	<path d="M558.5,431.6c-5.7,1.8-6.9,1.3-7.9-3.8c0.4-3.8,2-7.2,3.2-10.7c2.6-4.6,5.1-9.2,7.7-13.8c1.9-3.2,5-5,8.4-3.4
		c3.3,1.6,2.2,4.7,1.5,8c-1.1,4.7-4,8.5-5.2,13C565,425.4,563.2,429.5,558.5,431.6z"/>
	<path class="st3" d="M558.5,431.6c3.3-3,4.9-7.3,7.8-10.7c4.4-3.7,6.7-9,9.5-13.8c5.8-10,11.5-20.1,14.4-31.5
		c0.4-1.8,0.6-3.5,0.6-5.2c1.9-2,4.8-0.4,6.9-2c-0.6,10.6-5.8,19.4-10.6,28.4c-6.5,12-14.7,22.8-23,33.6c-2.1,2.7-4.6,5-8.1,6.7
		C555.9,434.6,559.1,433.9,558.5,431.6z"/>
	<path class="st4" d="M599.8,337.5c7.5,9.4,7.1,15.9-1,23.2c-1.3,1.1-2.4,2.3-4.1,1c-1.7-1.3-2.2-2.7-1-4.9
		C596.7,350.7,601,345,599.8,337.5z"/>
	<path class="st3" d="M535,334c-0.1,2.3,1.9,4.4,1,6.9c-16.1-0.4-23.5,9.2-26,22.2c-2.2,11-3,22.2-2,33.3c1,11.2,1.1,22.5,3.3,33.6
		c-4.5-4.2-6.6-9.9-8.2-15.5c-4.7-15.7-7-31.9-5.9-48.3c0.5-6.8,0.3-13.9,4.1-20.2c3-4.9,6.8-8.6,12.5-9.9
		C520.8,334.4,527.8,333.6,535,334z"/>
	<path d="M541.9,425.7c-6.7,5.2-9.9,3.5-11.8-5.1c-1.7-7.7,1.1-14.2,3.4-21c1.5-4.4,5.5-6,9.5-7c3.7-0.9,7.9,4.9,6.6,10.1
		c-1.5,6-2.5,12.3-5.7,17.8C543.1,422.2,542.6,424,541.9,425.7C541.9,425.8,541.9,425.7,541.9,425.7z"/>
	<path class="st4" d="M554.8,326.7c3,0.3,4.7,2.4,6.1,4.3c3.2,4.6,5.8,9.5,7.7,14.8c0.6,1.9,1.7,3.7-0.2,5.2c-2,1.5-4.3,2.2-6.8,1
		c-2.1-1-4.6-2.2-3.8-4.9C559.9,339.9,556.6,333.5,554.8,326.7z"/>
	<path class="st2" d="M569.3,406.8c0.5,2.1-0.5,3.7-1.5,5.4c-0.7,1.2-0.9,3.3-2.7,2.7c-1.3-0.5-2.6-1.7-2.6-3.7
		c0-2.3,0.2-4.5,1.9-6.2c1-1.1,1.8-3.2,3.7-2.4C569.8,403.3,569.4,405.3,569.3,406.8z"/>
	<path class="st5" d="M558.6,423.6c-0.3,2.6-0.3,5.5-3.6,5.9c-2,0.2-2.6-1.8-2.2-3.4c0.6-2.7,0.4-6.4,4-6.7
		C559.1,419.2,558.4,422,558.6,423.6z"/>
	<path class="st2" d="M546.8,403.5c0.4,2.7-0.2,5.2-3,5.6c-2.9,0.4-3-2.5-3.8-4.5c-1-2.7-2-5.4,0.4-7.9c1-1.1,2.2-1.6,3.4-0.7
		C546.2,397.8,547.3,400.3,546.8,403.5z"/>
	<path class="st5" d="M539,421.3c0.1,2.6-0.3,4.6-2.3,4.3c-4.3-0.8-4.4-5-5.4-8.2c-0.5-1.7,0.5-3.6,2.5-3.1
		C537.8,415.2,537.8,419.2,539,421.3z"/>
</g>
</svg>
