<?xml version="1.0" encoding="utf-8"?>
<!-- Generator: Adobe Illustrator 23.0.1, SVG Export Plug-In . SVG Version: 6.00 Build 0)  -->
<svg version="1.1" id="Layer_4" xmlns="http://www.w3.org/2000/svg" xmlns:xlink="http://www.w3.org/1999/xlink" x="0px" y="0px"
	 viewBox="0 0 1000 1000" style="enable-background:new 0 0 1000 1000;" xml:space="preserve">
<style type="text/css">
	.st0{fill:#FB9A7A;}
	.st1{fill:#6E3720;}
	.st2{fill:#FEFEFE;}
	.st3{fill:#C0FEFE;}
	.st4{fill:#7F7F7F;}
	.st5{fill:#808080;}
	.st6{fill:#00407F;}
</style>
<g>
	<path class="st0" d="M541.1,476.7c-8.8,5-18.7,7.5-28,11.3c-18.9,7.5-38,14.5-57.1,21.7c-0.3,0.1-0.6,0-1,0c-1-1.9-1.9-3.8-2.2-5.9
		c-3.8-29.6-12-58.2-19.5-87c-5.8-22.2-9.2-44.9-5.3-68c3.2-18.7,14.7-30.2,32.2-35.4c19-5.7,38.5-5,57.9-1.6
		c4.3,0.8,8.8,0.8,12.7,3.1c1,5-2.4,9-3.4,13.5c-3.6,1.7-7.5,1.8-11.4,2.1c-19.1,1.5-28,9.9-28.4,28.9c-0.5,21.4,2.3,42.4,11.2,62.3
		c1.9,4.3,4.2,8.4,8.1,11.4c6.9,5.3,13.5,5.4,20.5,0.2c2-1.4,3.8-3.1,5.5-4.8c3.7-2.7,5-7,7.3-10.7c4.9-7.8,7.7-16.5,10.3-25.2
		c3.2-10.8,5.2-21.8,6.1-33c0.3-1,0.9-1.8,1.7-2.3c8.2-4.8,7.6-11.7,4.2-20.4c-1.3-3.2-4.3-5.8-3.3-9.8c1.4-1.1,2.8-0.5,4,0.1
		c4,2.2,8.5,3.5,12.1,6.6c0.1,4.2-2.1,7.7-3.4,11.5c-1.9,5.2-3.9,10.3-2.2,16c-9.9,20.4-17.5,41.5-22.1,63.7
		c-0.7,3.3-1.7,6.7-0.7,10.1c1.3,4.6,3.3,5.1,6.8,2c7-6.1,11.7-13.9,16.7-21.4c8.8-13.1,15.7-27.3,20.7-42.3
		c1.4-4.2,2.3-8.5,1.7-12.9c1.1-2.5,1.6-5.4,4.9-6.1c7.1,6.4,7.2,14.4,4,22.4c-8.3,21.1-20.2,40-35.3,56.9
		c-4.4,4.9-7.2,9.6-5.2,16.5c1.5,5.1-0.8,9.5-5.1,12.7c-6.8,5.1-14.1,7.5-22.8,5c-11.4-3.2-21.6-9-32.5-13.3
		c-9.2-3.5-18.3-6.9-28.4-3.5c-2.6,0.9-5.2,1.8-7.6,4.5c20.6-3.3,37.3,6.6,54.8,13.5c5.6,2.2,11.2,4.4,17.2,5.3
		C538.6,474.7,540.2,475,541.1,476.7z"/>
	<path class="st1" d="M575.1,334.1c-5.5-1.6-9.9-5.5-15.5-6.9c-3.2-0.3-4.2-3.2-5.8-5.2c-2.5-3.1-5.6-5.2-9-7.1
		c-4.8-2.7-9.1-1-13.6,0.6c-14.2-2.7-28.5-5.6-43-4.8c-12.4,0.7-25.2,1.1-36.4,7.5c-12,6.8-20,16.3-22.3,30.7
		c-2.5,15.4-1.1,30.3,0.9,45.5c3.3,24.7,12.3,48,17.3,72.2c2.5,12.2,4.7,24.5,6.3,36.9c0.3,2.1,1.6,4,1,6.1
		c-5.8-4.8-7.7-12-9.5-18.6c-5.3-19.2-10.5-38.3-16.3-57.3c-4.4-14.7-7.9-29.7-9.5-45c-0.8-7.3-1.9-14.8-1.5-22
		c0.6-12.1,1-24.5,7.5-35.6c5.9-10.1,14.3-17.1,24.9-21.4c17-6.9,35-8,52.9-6.7c19,1.4,37.4,6.1,54.8,14.3
		c6.9,3.3,14.4,5.5,20.9,9.8C579.1,330.2,577.7,332.5,575.1,334.1z"/>
	<path class="st1" d="M541.1,476.7c-16.4-2.3-30.6-11-46-16.3c-9.3-3.2-18.7-5.9-28.7-3.4c-1.2,0.3-2.5,0-4,0
		c4.5-6.3,15-9.9,22.5-8.6c11.6,2,21.9,7.1,32.3,11.9c6.7,3.1,13.7,5.5,20.8,7.3c5.6,1.4,17.5-3.7,20.6-8.5c1.9-3,2.9-6.3,1.6-9.7
		c-2.4-6-0.3-10.5,3.8-14.9c14.1-15,25-32.2,33.7-50.8c3.2-6.8,6.5-13.6,4.1-21.6c-0.9-2.9-3.1-4.9-4-7.6c-1.3-4,0.1-7.5,2.1-10.9
		c6.9,6.6,12.6,14.1,12.5,24.2c-0.1,5.3-1.3,10.6-3.7,15.5c-6,12.6-12.4,24.9-20.6,36.2c-4.2,5.8-8.2,12-13.9,16.4
		c-5.2,4.1-6.9,8.9-4.6,15c3,8.2-1.2,14-7.1,18.1C556.1,473.5,548.9,476.2,541.1,476.7z"/>
	<path d="M599.7,343.7c0.2,3.8-1.3,7.2-2.1,10.9c-1.3,1.9-2.7,3.9-4,5.8c-0.7,1.7-2.2,2.4-3.6,3.2c-2,1.1-4,1.9-6.2,2.3
		c-3.7,1-7.4,1.2-11-0.4c-1.7-0.8-3.7-1.5-3.6-4c-2.7-4-1.4-8,0.1-12c1.9-5.1,3.8-10.2,5.8-15.3c1.4-2.3,2.7-4.7,4.1-7
		c8-6.5,16.8-2.8,19.4,8.2C599.2,338,599.3,340.9,599.7,343.7z"/>
	<path class="st2" d="M557.5,359.4c0,14.8-3.8,28.8-8.6,42.7c-2,5.9-4,11.8-7.9,16.8c-1.6-1.8-0.8-3.7-0.2-5.5
		c0.9-3.3,1.9-6.6,2.5-9.9c0.8-4.2-0.9-8-4-9c-3.9-1.3-6.3,1.1-8,3.9c-3.8,6.1-4.7,13.1-4.4,20.1c0.2,4.8,4.2,7.4,7.3,10.4
		c-7.9,9.2-15.4,11.8-23.5,8.1c-7.1-3.2-10.6-9.4-13.6-16.2c-6.1-14.2-8.5-29.1-10-44.3c-0.9-9.6-1.2-18.9,1.1-28.2
		c2.4-9.7,10.8-17,20.8-18.1c6.1-0.7,12-2.1,18.2-1.9c1.4,1.2,2.1,2.5,0.9,4.3c-5,1.9-10.3,0.9-15.4,1.8
		c-11.6,1.9-18.1,8.3-20.1,19.9c-1.5,8.3-0.8,16.5-0.1,24.7c1.2,13.9,4.2,27.3,9.5,40.1c0.9,2.1,2,4.1,3.3,6.2
		c-4.8-21.8-6.4-43.5-2.8-65.4c2-12,9.4-20.2,21.1-22.6c1.8-0.4,3.5-0.7,5.3,0.1c3.6,3.1,4.1,7.9,6.3,11.8
		c4.2,7.4,9.2,10.5,16.7,9.8C553.8,358.7,555.8,357.7,557.5,359.4z"/>
	<path class="st2" d="M569.2,361.4c4.2,4.6,9.3,4.7,14.8,3.1c1.4,1.5,1.2,3.3,0.7,5c-3.1,12.1-7.1,23.9-13.2,34.9
		c-0.9,1.6-1.6,3.6-3.8,4.1c-2-1.4-1.4-3.5-1.5-5.3c-0.2-2-0.2-4.1-2.5-4.8c-2.2-0.6-3.8,0.9-4.9,2.5c-3.7,5.4-5.9,11.5-8,17.7
		c-0.6,1.7-0.6,3.5-1.1,5.2c-1.1,3.8,0.4,5.6,4.2,5.7c0.4,0.5,0.6,1.1,0.4,1.8c0.7,0.1,0.5-0.5,0.8-0.8
		c12.8-15.7,23.6-32.5,30.7-51.6c1.4-3.8,2.4-7.8,2.9-11.8c0.2-1.6,0.1-3.3,1.3-4.6c1.3-0.7,2.5-1.4,3.8-2.1c2,3.5,0.8,7.1-0.3,10.3
		c-8.1,24.9-20.2,47.6-38.2,66.8c-1.7,1.8-3.5,4.8-6.2,3.3c-3.1-1.7-4.4-5.6-3.8-8.9c4.1-23.8,11.8-46.5,22.2-68.4
		C567.7,362.5,568.3,361.8,569.2,361.4z"/>
	<path d="M528.2,332c-0.3-1.3-0.6-2.6-1-3.9c-0.2-4.7,2.1-8.7,4-12.7c6.6-5.1,16.5-3.1,22.7,4.7c1.9,2.4,3.8,4.7,5.7,7.1
		c0.9,5.2,4.6,9.2,6,14.3c2.3,8.6-0.8,14-8.1,17.9c-4.3,0.4-8.5,1.5-13,0.1c-6.3-1.8-8.8-6.6-11.2-11.7c-1.5-3.2-2.8-6.6-4.1-9.9
		C526.9,336.3,526.7,334.3,528.2,332z"/>
	<path d="M534.2,428.9c-5.7-1.2-8.4-5.6-8.6-10.5c-0.3-7.2,0.5-14.4,4.7-20.8c3.1-4.8,6.1-6,10.2-4.1c3.9,1.8,5.2,5.9,4.1,10.9
		c-1,4.9-3.3,9.5-3.5,14.5C539,422.4,538.1,426.7,534.2,428.9z"/>
	<path class="st3" d="M567.3,408.1c9-13.3,14.2-28,16.7-43.7c2.2,0.2,3.9-1.4,5.9-2c0.7,8.2-2.2,15.7-5.4,22.9
		c-8,18-18.5,34.4-31.5,49.3c-0.1,0.2-0.5,0.1-1.1,0.2c0.6-1.8,1.2-3.4,1.7-5c1.4-4,5.2-6.1,6.9-9.8c1.3-2.8,2.8-5.5,3.9-8.4
		C565.1,410.2,565.1,408.2,567.3,408.1z"/>
	<path class="st4" d="M591.2,331.3c8.9,8.9,5.8,18.3-2.2,24.4c-2.1,1.6-3.5,0.6-4.1-1.8c-0.4-2,0.4-4,1.3-5.5c1.4-2.7,2.8-5.3,4-8.1
		C591.3,337.4,590.2,334.5,591.2,331.3z"/>
	<path class="st3" d="M528.2,332c0.4,1.9-0.3,4.1,1,5.9c-14.4,0.3-23.9,9.4-25.3,23.5c-0.8,7.6-2.1,15-1.9,22.7
		c0.4,14.4,1.6,28.7,5.4,42.6c0.2,0.8,0.6,1.5-0.3,2.5c-4.8-4.9-7-11.1-9.2-17.3c-5.4-15.9-7.6-32.4-7.5-49.1
		c0-7.2,1.1-14.5,5.5-20.8c3.7-5.3,8.7-8,14.9-9.1C516.5,332.1,522.3,331.9,528.2,332z"/>
	<path d="M567.3,408.1c-3.5,7.9-6.1,16.3-13.6,21.7c-4.2,1.3-6.6-0.7-5.8-4.8c1.5-8.4,4.7-16.2,8.8-23.6c1.6-2.9,4.1-5.6,7.5-4.8
		c3.8,0.9,3.2,4.6,3.2,7.6C567.4,405.5,567.3,406.8,567.3,408.1z"/>
	<path class="st5" d="M546.9,321.3c3.7,0.7,5.6,2.8,7.2,5.5c2.7,4.3,5.5,8.5,7.7,13.2c2.3,5-1.2,6-4.2,7.2c-3.9,1.5-5.4-2.1-5.4-4.3
		C552,335.4,548.9,328.7,546.9,321.3z"/>
	<path class="st2" d="M541.9,403.5c0.6,2.3-0.2,4.9-2.5,5.4c-2,0.5-3.4-2-4.3-3.8c-0.8-1.7-1.7-3.5-1.8-5.2
		c-0.1-2.1,1.9-3.5,3.6-4.2c2-0.9,3.1,1.1,4.1,2.6C542,399.8,542.1,401.5,541.9,403.5z"/>
	<path class="st6" d="M534.2,421.8c-0.1,1.6-0.1,4.2-2,3.6c-3.2-1-4.9-3.9-4.9-7.6c0-1.5-0.1-3.1,1.8-3.5
		C531.1,414,534.2,418.6,534.2,421.8z"/>
	<path class="st2" d="M565.4,405.1c0,0.5,0,1,0,1.5c0.1,2.6-1.2,4.6-3.1,6.1c-1.4,1.1-2.1-0.3-2.7-1c-1.7-2.1-1.4-4.4-0.3-6.6
		c0.3-0.6,0.3-1.4,0.8-1.7c1.2-1,1.9-3.2,3.7-2.7C566,401.2,565.3,403.4,565.4,405.1z"/>
	<path class="st6" d="M555.7,422.8c0.1,2.1-0.5,4.5-3.6,4.7c-2.1,0.1-2.6-1.9-2.2-3.5c0.5-2.6,0.5-6.2,3.8-6.5
		C555.6,417.3,555.6,420.3,555.7,422.8z"/>
</g>
</svg>
