<?xml version="1.0" encoding="utf-8"?>
<!-- Generator: Adobe Illustrator 23.0.1, SVG Export Plug-In . SVG Version: 6.00 Build 0)  -->
<svg version="1.1" id="Layer_4" xmlns="http://www.w3.org/2000/svg" xmlns:xlink="http://www.w3.org/1999/xlink" x="0px" y="0px"
	 viewBox="0 0 1000 1000" style="enable-background:new 0 0 1000 1000;" xml:space="preserve">
<style type="text/css">
	.st0{fill:#FB9A7A;}
	.st1{fill:#6E3720;}
	.st2{fill:#FEFEFE;}
	.st3{fill:#C0FEFE;}
	.st4{fill:#7F7F7F;}
	.st5{fill:#00407F;}
</style>
<g>
	<path class="st0" d="M539.1,476.6c-6.9,4.5-14.9,6.5-22.4,9.5c-20,8.2-40.2,15.7-60.3,23.5c-0.4,0.2-1,0-1.4,0
		c-0.9-1.6-1.8-3.2-2-5c-1.6-15.2-8.4-28.6-14.4-42.3c-9.5-21.6-19.6-42.9-25.9-65.8c-3.2-11.5-5.1-23.2-5.8-35.1
		c-1-17.5,7.2-30.6,21-40.6c8.5-6.2,18.4-9,28.5-11c11.5-2.4,23.1-4,34.9-3.6c2.1,0.1,4.3-0.3,6.1,1.2c1.4,4.4,2.1,8.8,2.2,13.4
		c-1.1,1.9-3.2,2-5,2.6c-4.5,1.3-8.9,3-13.3,4.7c-11,4.2-15,12.8-15,23.8c0,9.9,1.5,19.7,4.2,29.3c3.8,13.3,8.8,26.1,15.9,38
		c2.3,3.8,5.2,7.1,8.8,9.7c8.5,6.2,17.5,3.8,24.3-6.3c1.4-2.4,2.8-4.9,4.5-7.1c5-11.3,6.4-23.4,7.9-35.5c1.5-12.1,1-24.2,0.4-36.4
		c0.3-0.9,0.7-1.8,1.4-2.5c7-6.6,6.1-12,1-20.7c-1.1-1.9-3.7-3.4-2.2-6.3c5.9-0.2,11.1,1.4,15.8,5.1c0.5,2.9-0.8,5.3-1.7,7.9
		c-1.9,5.3-2.8,10.5-0.6,15.9c-3.8,14.8-7.6,29.5-9.6,44.7c-1.2,8.7-1.5,17.4-2.5,26.1c-0.4,3.6,0.7,7.1,1.7,10.5
		c0.5,1.7,1.1,3.7,3,4.1c2.2,0.5,3.6-1.2,4.7-2.8c3.6-5.3,6.4-11,8.7-16.8c5.5-14,11.1-28.1,14.1-43c1.6-7.8,3-15.6,0.9-23.6
		c0.5-2.9,2-4.9,5-5.6c6.3,4.7,7.1,11.5,6.2,18.4c-2,15.4-6.6,30.1-13.3,44.2c-4,8.4-7.6,16.9-13.2,24.4c-2.4,3.2-3.1,6.7-1.6,10.6
		c0.2,0.6,0.3,1.3,0.5,1.9c2.9,11.8-0.3,18.1-11.8,22.1c-6,2.1-12.2,2.7-18.7,1.6c-12-2.1-23.4-7-35.5-8.6
		c-9.2-1.2-16.7,2.5-23.6,8.3c4.4,0.3,8.8-0.4,13.1-1c7.4-1.2,14.6-0.4,21.7,1.4c8.5,2.1,17.1,3.9,25.6,6.1c3,0.8,6,1.5,9.1,1.5
		C537.1,467.3,539,469.3,539.1,476.6z"/>
	<path class="st1" d="M497,307.7c-18.5-0.9-36.7,1.4-54.2,7.2c-19.8,6.6-36.2,24-34.5,47.3c1,14.1,3.7,27.9,7.9,41.4
		c6.6,20.8,15.9,40.5,24.8,60.4c5.1,11.4,10.4,22.7,12.7,35.1c0.6,3.5,0.9,7,1.4,10.5c-4.9-3.1-6.1-8.8-8.5-13.4
		c-12.6-23.9-22.9-49-33.9-73.6c-5.1-11.5-8.5-23.7-10.9-36.2c-0.7-3.4-1-7-1.3-10.5c-0.8-9.9-1-19.7,0.8-29.6
		c1.7-9.4,5.8-17.2,12.8-23.3c12.3-10.8,26.7-17.3,42.8-20.3c12.3-2.3,24.6-4.1,37.2-3.8c3.8,0.1,7.5,0.6,11.1,1.8
		C502.2,303,499.8,305.6,497,307.7z"/>
	<path class="st1" d="M539.1,476.6c-0.6-1.5-1.3-2.9-1.8-4.4c-1-3.1-2.5-4-6.2-3.6c-7.2,0.7-14-2.7-21.1-4
		c-9.7-1.8-19.1-5.8-29.2-5.4c-6.7,0.3-13.4,1-20,2.5c-1.2,0.3-2.7,1-3.4-0.3c-0.7-1.2,0.8-2,1.6-2.7c9-8.2,19.3-10.9,31.1-7.9
		c10.5,2.6,20.8,6.1,31.5,8c8.1,1.4,24-2.6,27.6-10c1.8-3.7,1.7-7,0.3-10.1c-3.4-7.6-1.2-13.7,3.3-20.2c9-13.2,14.8-27.9,19.4-43.1
		c2.1-6.7,3.7-13.6,4.6-20.5c0.8-6.4-0.6-12.7-5.5-17.6c-0.4-3.7,1-6.7,3.9-9c12.1,10.5,13.7,23.4,9.3,38.1
		c-6.2,20.8-13.5,41.1-25.8,59.2c-1.5,2.3-2.2,4.5-0.7,7.7c1.9,4.3,2.8,9.1,2.1,14.3c-1.1,7.8-6.9,11.6-12.4,14.6
		c-5.5,3.1-7.3,7-7.7,12.5C540,475.4,540.2,476.2,539.1,476.6z"/>
	<path d="M497,307.7c1.6-3.5,3.9-6.3,8-7c3.6-0.3,7.1,0.9,10.6,1.2c7.3,1.9,12.7,6.2,16.7,12.5c1.8,3,3.8,5.8,5.4,8.9
		c4.3,8.4,3.2,13-4.5,19.6c-6.8,6.1-17.7,4.8-24.4-3.1c-2.2-2.6-4.1-5.4-6.2-8.1c-1.2-2-2.1-4.3-3.3-6.3c-0.5-1.3-1.3-2.6-0.4-4.1
		C497.9,316.8,496.6,312.4,497,307.7z"/>
	<path d="M575.3,328c-1.3,3-2.6,6-3.9,9c-1.3,1.5-2.7,3.1-4,4.6c-0.9,1.7-2.6,2.2-4.2,2.9c-1.7,0.5-3.5,0.7-5.2,1.2
		c-4.6,0.1-9.5,1.7-12.9-3c-3.5-4.2-2-8.8-0.8-13.2c0.9-3.5,2.3-6.8,3.5-10.2c-1-3.4,0.8-5.7,3.1-7.8c1-0.2,0.7-1.4,1.2-1.9
		c3.4-3,6.7-7.6,11.7-5.8c5.3,1.9,9,6.4,10.5,12.1C575.2,320.1,575.3,324.1,575.3,328z"/>
	<path class="st1" d="M550.8,311.7c-1,2.6-2,5.2-3.1,7.8c-5-2.3-10.2-3.7-15.5-5c-5.2-4.6-10.3-9.4-16.7-12.5
		c8.8,0.2,16.9,3.5,25.1,6C544.1,309,547.5,310.4,550.8,311.7z"/>
	<path class="st2" d="M498.9,321.3c0.4,1.3,0.8,2.5,1.2,3.8c-1.4,1.6-3.5,1.6-5.4,2c-3,0.6-5.9,1.7-8.9,2.6
		c-13,4.1-16.1,13.2-15.7,24.4c0.5,12.2,2.7,24.2,6.8,35.8c2.1,5.8,4.5,11.5,7.3,17c2.6,5.4,4.9,11,9.1,15.2
		c-5.1-13.7-9.8-27.8-11.6-42.7c-0.9-7.9-1.9-15.8-1.5-23.8c0.5-11.9,6.7-21.5,15.9-24.7c2.3-0.8,4.7-1.7,7,0.1
		c3.5,2.2,4.6,6.3,7.4,9c6.9,6.8,14.6,6.6,22.8,2.9c1.3,8.7,1.4,17.4,0.9,26.1c-0.8,15.2-2.6,30.3-7.7,44.7
		c-0.4,1.2-0.7,2.5-1.9,3.1c-2.3-5.6,0.1-11.1,0.3-16.6c0.1-3.1,0.7-6.1-1-9c-2-3.4-4.6-3.9-7.6-1.5c-1,0.8-2,1.8-2.4,3
		c-2.8,7.6-3.8,15.3-1.1,23.2c1.4,3.9,4.9,4.9,7.7,6.8c-6.3,12.7-18.6,13.6-27.5,6c-8.8-7.5-12.9-18-17.2-28.2
		c-6.4-15-10.3-30.7-10.9-47.1c-0.5-12.8,4.1-22.6,17-27.2C487.5,324.4,493,322.2,498.9,321.3z"/>
	<path class="st2" d="M563.4,343.7c1-1.2,2.4-1.8,3.9-2c3.9,6.9,2,14.3,0.6,21.1c-4.4,20.6-11.4,40.4-21.1,59.2c-0.5,1-1,2-1.6,3
		c-1.8,2.7-3.5,6.2-7.2,5.5c-3.6-0.8-3.9-4.8-4.7-7.8c-2.3-8.1,0-16.3,0.5-24.4c0.5-9.6,2.4-19.1,4.2-28.5c1.8-9.1,3.9-18.1,7-26.9
		c4.2,2.6,8.9,2,13.5,1.9c2.5,2.8,2.7,6.3,2.2,9.6c-1.6,11.7-3.2,23.5-6.7,34.9c-0.5,1.7-0.9,3.5-2.5,4.6c-2,0.6-2.5-0.9-3.1-2.2
		c-1.5-3.4-3.6-2.5-5.8-0.8c-1.8,1.5-2.8,3.6-3.4,5.8c-1.7,6.6-2.4,13.3-2.9,20.1c-0.2,2.3,0.5,4.1,2.4,5.4c0.8,1.7,1,1.8,1.4,0.9
		c0.3-0.7,0.6-1.4,1-2.1c4.5-4.7,5.1-11.2,7.7-16.7c7.3-16,12.2-32.6,15-49.9C564.6,350.7,562.9,347.3,563.4,343.7z"/>
	<path d="M520.4,422.8c-4,0.4-6.7-1.4-8.3-5c-3.9-8.7-3-17.3,0.6-25.7c1.5-3.5,4.3-6.1,8.2-5.1c4,1,5.6,4.7,5.5,8.5
		c-0.3,7.2-1.2,14.3-1.9,21.5C523.1,418.9,521.7,420.8,520.4,422.8z"/>
	<path class="st3" d="M503,331c-13.8,0.2-20.9,11.1-21.4,24.2c-0.8,21.8,3.8,42.7,11.6,63c1,2.5,1.8,5.1,3.1,8.8
		c-4.1-3.3-6.6-6.5-8.4-9.9c-7.3-13.6-13.8-27.6-16.6-42.9c-1.8-9.8-4.1-19.7-1.7-29.8c1.4-5.9,4.2-10.8,10-13.5
		c6.5-3,13.1-5.6,20.4-5.8C501.5,326.9,502.6,328.7,503,331z"/>
	<path class="st4" d="M516.1,308c7.9,2.6,13.1,8.1,17.7,14.4c2.7,3.7,0.5,5.8-2.5,7.7c-3.5,2.2-5.1,0.1-6.2-2.7
		C522.5,320.7,519.5,314.3,516.1,308z"/>
	<path class="st3" d="M550.7,393.6c4.3-8.5,5.2-17.9,6.8-27c1.3-7.2,3.2-14.6,1-22c1.3-1.9,3.3-0.4,4.9-1c3.6,5.9,2.2,12.3,0.8,18.3
		c-3.2,14.2-7.5,28-13.1,41.5c-0.3,0.7-1,1.2-1.5,1.8C547.7,401.2,549.2,397.4,550.7,393.6z"/>
	<path class="st4" d="M566.7,311.9c7,6.4,4.9,20.6-3.2,24.6c-1.2,0.6-1.8,0-2.5-0.6c-1.2-1.1-1.4-2.1-1-3.8
		c1.3-4.9,4.9-8.9,5.8-14.1C566.1,316,566,314.1,566.7,311.9z"/>
	<path d="M550.7,393.6c0.8,4-1.1,7.7-1,11.6c-2,5.7-3,12-7.7,16.5c-0.9,0.7-1.6,1.6-2.9,1.3c-3.8-0.6-4.1-3.4-3.9-6.5
		c0.6-6.9,1.1-13.8,3-20.5c0.5-1.8,1.2-3.6,2.3-5.1c1.4-2,3.4-3.4,6-3.2C550.2,387.9,549.1,391.8,550.7,393.6z"/>
	<path class="st3" d="M539.1,423c1-0.4,2-0.8,2.9-1.3c-0.8,1.7-1.3,3.6-3.3,4.4C537.8,424.9,539.4,424.1,539.1,423z"/>
	<path class="st2" d="M524.4,397.6c-0.1,2,0.5,4.1-1.9,4.6c-2.1,0.4-3.1-1.3-3.9-2.9c-0.9-1.7-1.7-3.4-2.6-5
		c-1.2-2.2,0.5-3.5,1.8-4.3c1.4-0.9,3.4-0.9,4.2,0.8C523.1,393.1,525,395.1,524.4,397.6z"/>
	<path class="st5" d="M517.7,419.8c-2.4-0.3-6.6-7.2-5.8-9c0.5-1.1,1.3-1.6,2.7-1.1c2.2,0.8,6.2,6,5.5,7.8
		C519.7,418.7,518.7,419.5,517.7,419.8z"/>
	<path class="st2" d="M548.9,397.1c-0.1,2.9-0.4,6-3.5,6c-2.8,0.1-3.5-2.9-3.3-5.3c0.2-2.8,1.4-6.7,3.8-6.8
		C548.9,390.9,548.2,395,548.9,397.1z"/>
	<path class="st5" d="M543.1,415.7c-0.7,2.2-0.8,5.1-3.6,5c-2.7-0.1-3.3-2.9-3.2-5.1c0.1-2.3,0.1-5.8,2.7-5.9
		C542.3,409.5,541.9,413.5,543.1,415.7z"/>
</g>
</svg>
