<?xml version="1.0" encoding="utf-8"?>
<!-- Generator: Adobe Illustrator 23.0.1, SVG Export Plug-In . SVG Version: 6.00 Build 0)  -->
<svg version="1.1" id="Layer_4" xmlns="http://www.w3.org/2000/svg" xmlns:xlink="http://www.w3.org/1999/xlink" x="0px" y="0px"
	 viewBox="0 0 1000 1000" style="enable-background:new 0 0 1000 1000;" xml:space="preserve">
<style type="text/css">
	.st0{fill:#FB9A7A;}
	.st1{fill:#6E3720;}
	.st2{fill:#FEFEFE;}
	.st3{fill:#C0FEFE;}
	.st4{fill:#808080;}
	.st5{fill:#7F7F7F;}
	.st6{fill:#00407F;}
	.st7{fill:#004080;}
</style>
<g>
	<path class="st0" d="M539.1,476.4c-25.5,10.2-51,20.3-76.5,30.5c-2.5,1-5.1,1.8-7.6,2.7c-2.9-5.1-2.9-11.2-5.6-16.5
		c-8.8-16.9-20.2-32.2-29.8-48.6c-12.5-21.2-24.3-42.6-29.9-66.9c-3.6-15.4-2.5-29.6,7.2-42.6c4.6-6.2,10.2-11.5,16.9-15.2
		c14.6-8,30.1-13.8,46.6-16.6c1.6-0.3,3.2-0.8,4.7,0.3c1.5,4.8,3.5,9.5,4.1,14.6c-1.2,2-3.5,2.2-5.3,3.1
		c-9.6,4.9-18.5,10.4-20.7,22.3c-0.7,3.9-0.1,7.5,0.7,11.1c4.9,23.7,15.8,44.6,30.5,63.6c1.9,2.4,4.1,4.7,6.7,6.3
		c8.7,5.3,18.6,6.1,24.7-5.5c0.8-1.6,1.6-3.2,2-5c0.1-0.5,0.3-1,0.5-1.5c3.7-14.2,3.2-28.6,2.5-43c-0.6-12.4-3.5-24.3-5.8-36.4
		c0.1-1.6,1.2-2.6,2.1-3.7c5.5-6.8,5.4-11-0.4-17.7c-1.4-1.6-3.1-2.9-4.3-4.7c-0.6-0.9-1.5-1.9-0.1-2.9c5.5,0,10.9,0.5,16,2.9
		c1.2,1.8,0.4,3.5-0.3,5c-3.1,6.3-3.8,12.5,0.6,18.5c0.2,5.8-0.4,11.7-0.9,17.5c-1.4,15.8-1,31.5,0.3,47.2c0.4,5.3,0.9,10.7,2,15.9
		c0.4,2.1,1,4.1,2.2,5.9c2,2.8,3.5,2.9,5.6,0c1.3-1.7,2-3.7,2.6-5.7c7-22.7,10.3-45.9,10.1-69.6c0-4.8-1.6-9.3-2.4-13.9
		c0.8-3.3,2.3-5.8,6.1-5.9c6.3,5.1,8.3,12.2,7.6,19.6c-1.6,18.9-3.6,37.9-9.6,56.1c-1.7,5.1-3.9,10-6,14.9c-1.2,2.8-1.3,5.3,0.2,7.9
		c0.6,1.1,1.2,2.3,1.7,3.5c5.5,11.5,0.1,23.3-12.1,27.4c-8.7,2.8-17.4,1.6-26.1,0.6c-6.1-0.7-12.3-1.3-18.4-1.3
		c-10.4,0.1-19.7,3.7-26.3,13.2c3.7-1.5,7.2-2,10.4-3.3c11.6-4.9,23.5-3.8,35.5-2.7c8.4,0.8,16.7,2.7,25.2,0.4
		c1.4-0.4,3.2-0.6,4.2,0.6C534.4,464.3,539.2,469.2,539.1,476.4z"/>
	<path class="st1" d="M464.7,303.8c-20.3,3.3-39.7,9.1-56.4,21.4c-12.3,9.1-19.7,21.5-19.5,37c0.2,12.3,3.8,24.2,8.4,35.8
		c12.1,30.7,31.2,57.4,48.2,85.2c4.9,8,9.5,16.4,9.5,26.4c-0.9-0.7-2.2-1.2-2.5-2.1c-6.2-14.3-17.3-25.4-25.7-38.2
		c-9.9-15.1-20.5-29.7-28.4-46c-6.7-13.8-13-27.7-16.1-42.8c-3-14.5-4.3-29.1,3.9-42.6c6.5-10.7,15.1-19.4,26-25.5
		c10.8-6,21.9-11.4,34-14c9-2,18.1-3.8,27.4-3.4C470.7,298,467.6,300.8,464.7,303.8z"/>
	<path class="st1" d="M539.1,476.4c-1.8-5.9-5.7-10.7-8.6-16c-0.9-1.5-1.7-1.4-3.1-1c-8.8,2.8-17.5,0.4-26.2-0.2
		c-11.3-0.8-22.7-2.6-33.8,2.3c-4.3,1.9-9.1,2.8-14,4.2c3.1-8.3,9.7-11.9,17.1-14.5c10-3.5,20-1,30-0.3c8.6,0.6,17.2,1.9,25.8-0.7
		c10.3-3.2,16.4-15.5,10.8-24.7c-4-6.7-2.9-12.2,0-18.7c6-13.2,9.2-27.2,10.8-41.6c0.8-7.2,2-14.3,2.8-21.4
		c0.9-8.1-1.7-15.2-6.7-21.5c-0.9-3.6,0.1-6.6,3-8.9c7.5,6.5,13,14.6,12.4,24.6c-0.7,10.6-1.7,21.3-3.4,31.9
		c-2.4,15.6-6.4,30.6-12.6,45.1c-0.7,1.7,0.3,2.5,0.7,3.4c1.3,3.1,3.3,5.8,4.4,8.9c2.7,7.3,0.7,13.7-4.5,19.3c-1.8,2-3.7,4-5.2,6.3
		c-1.8,2.7,0.3,5.4,0.7,8.1C540.6,466.2,542.3,471.4,539.1,476.4z"/>
	<path d="M464.7,303.8c1.6-4.3,4.4-7.4,8.9-8.7c2.6,0,5.2,0,7.8,0c8.2,0.4,15.1,3.4,20.6,9.6c2.6,2.9,5.5,5.5,7.7,8.6
		c5,7.4,3.4,13.3-3.8,18.9c-4,5.1-9.9,7-15.9,4.7c-6-2.3-10.7-6.6-15.5-10.6c-1.2-1.3-2.5-2.6-3.5-4.2c-0.7-1.3-2-2.3-2.2-3.9
		C467.1,313.5,464.4,309.1,464.7,303.8z"/>
	<path d="M547,313.4c-1,3-2,5.9-3,8.9c-2.1,1.2-3.6,3-5,4.8c-0.9,1.9-2.5,2.9-4.3,3.7c-1.7,0.5-3.5,0.7-5.2,1.2
		c-4.1,0.1-8.4,1.6-11.8-2c-5.9-4.7-3.7-10.3-1.9-15.9c0.7-2.2,1.8-4.3,2.7-6.5c-0.4-3.5,1.5-5.9,3.9-8c0.1-0.1,0.1-0.3,0.2-0.4
		c2.9-4,4.7-10.2,10.8-9c6,1.2,9.4,6.2,11.7,12C546.5,305.9,546.9,309.6,547,313.4z"/>
	<path class="st1" d="M522.4,299.7c-1.3,2.7-2.6,5.3-3.9,8c-5.5-1-11-2-16.5-3c-3.1-0.6-5-3.3-7.6-4.8c-4.1-2.3-8.5-3.5-12.9-4.8
		c13-0.1,25.9,1.4,38.5,4.6C520.7,299.9,521.6,299.7,522.4,299.7z"/>
	<path class="st2" d="M474.7,325.1c4.3,3.2,8.5,6.6,13,9.5c6.7,4.4,12.5,1.3,18.2-2.5c2.8,11.3,5.2,22.7,6.1,34.4
		c0.7,8.9,1,17.8,0.5,26.6c-0.4,7,0.3,14.4-3.8,20.8c-1.3-1.4-0.8-3-0.5-4.6c1-6.4,0.1-12.7-1-18.9c-0.9-4.9-3.8-7.9-6.9-7.7
		c-3,0.2-5.8,3.5-6.4,8.1c-1,6.6,0.2,13,2.4,19.1c2.2,6,5.7,6.9,12.5,3.9c-1.2,6.7-4.5,12.2-11,14.6c-7.3,2.7-13.9,0.1-19.5-4.7
		c-6.8-5.8-11.6-13.4-16.1-21c-9.9-16.8-18.2-34.4-20.5-54c-1.1-9,3.3-16.7,10.6-22.1c5-3.7,10.3-7.1,16.6-8.6
		c1.1,0.8,2.4,1.6,2.7,3.1c-3,2.6-6.9,3.5-10.4,5.1c-12,5.6-16.3,18.8-13.6,29.8c6.1,24,16.5,45.7,33.9,63.6
		c-12.1-20.5-20.5-42.5-24.2-66.2C455.3,341.3,463.8,327.5,474.7,325.1z"/>
	<path class="st2" d="M517.7,330.1c4.1,1.6,8.3,0.9,12.5,0.9c2,0.7,2.5,2.5,2.8,4.3c2.8,15.6,2.1,31.2-0.6,46.8
		c-0.1,0.6-0.5,1.2-0.9,1.7c-1.4,0.9-2.5,0.3-3.4-0.7c-2.7-2.9-4.5-1.2-6.1,1.3c-1,1.5-1.4,3.3-1.6,5c-0.8,7.5,0.4,14.8,1.6,22.1
		c0.2,1.2,0.7,2.7,2.2,2.9c1.8,0.3,2.5-1.1,3.2-2.4c2.5-4.7,2-10.1,3.1-15.1c4.5-18.2,5.9-36.7,6.2-55.4c0.1-4-2.3-7.4-1.6-11.4
		c0.7-1.8,2.6-1.9,3.9-2.9c4.4,11,2.7,22.4,2.3,33.8c-0.5,13.5-3.1,26.5-6.2,39.4c-1.4,5.9-2.8,11.9-5.7,17.3c-1,1.9-2.2,3.9-4.5,4
		c-2.5,0.1-3.1-2.4-4.2-4.2c-2.2-3.7-2.5-8-3-12.1c-2.1-16.9-2.9-33.9-1.9-50.9C516.3,346.4,516.1,338.2,517.7,330.1z"/>
	<path class="st3" d="M474.7,325.1c-6.8,3.2-11.9,8-14.5,15.3c-2.9,8-1.6,15.8,0.3,23.8c4.5,19.4,11.8,37.7,22,54.8
		c0.7,1.2,1.2,2.5,2.5,5.1c-7.6-5.7-12.4-12.1-17-18.6c-11-15.7-18.5-33.1-22.2-51.8c-2-10.3,2.1-21.7,13.2-27.4
		c4-2.1,7.9-4.6,12.6-4.9C472.6,322.6,473.6,323.8,474.7,325.1z"/>
	<path class="st4" d="M482,300.1c9.5,1.6,17.1,6.5,23.3,13.4c2,2.2,0.1,4.3-1.8,5.7c-1.8,1.4-3.6,3.3-6.3,0.8
		c-2-1.8-2.6-4.4-4.3-6.4C489.3,309.2,486.2,304.3,482,300.1z"/>
	<path class="st3" d="M535.1,330c4.7,7.3,3.4,15.5,2.8,23.2c-0.7,9.3-0.6,18.7-2.7,27.9c-1.2,5.5-1.6,11.1-3.7,16.4
		c-2.1-4.4-2.5-8.9-1.2-13.6c2-1.7,1.3-4.3,1.6-6.4c1.7-14.8,2.7-29.6-0.6-44.3c-0.2-0.8-0.6-1.5-0.9-2.2
		C531.5,329.1,533.5,330.6,535.1,330z"/>
	<path class="st5" d="M538.3,298c6.8,8.8,6,17.4-1.9,23.4c-1.2,0.9-2.5,2.4-4.2,1.2c-1.6-1.1-1-2.7-0.5-4.4
		c1.7-5.4,5.4-10.1,6.1-15.9C538,301,538.1,299.8,538.3,298z"/>
	<path d="M508.7,414c-3.5,5-9.6,4.8-12.6-0.8c-3.7-7.1-4.7-14.9-3.8-22.7c0.6-5.2,5.2-9.8,8.4-9.6c3.6,0.3,7.4,6.1,8,11.3
		C509.7,399.5,510.4,406.8,508.7,414C508.7,414,508.7,414,508.7,414z"/>
	<path d="M530.2,383.9c1.3,4.5,1,9.1,1.2,13.6c-0.5,5.3-0.4,10.7-3.1,15.6c-1,1.8-2.1,3.1-4.5,2.9c-2.4-0.2-3-2.4-3.1-3.7
		c-1-8.7-3.7-17.5-1.1-26.3c0.8-2.8,2.2-5.4,5.4-6.1C528.1,379.2,528.6,382.3,530.2,383.9z"/>
	<path class="st2" d="M506.8,392.3c0,1.9,0.3,4.1-2.6,4.1c-2.5,0-8.2-5.6-8-8.1c0.2-2.4,1.7-3.6,4.2-3.6
		C503.6,384.8,506.7,388.4,506.8,392.3z"/>
	<path class="st6" d="M504.9,412c-0.1,1.7-0.6,2.8-2.2,2.9c-2.1,0.1-6.6-4.8-6.5-7c0.1-1.8,1.2-2.8,2.9-2.3
		C502.4,406.4,504.4,408.7,504.9,412z"/>
	<path class="st2" d="M529.3,391.1c0,1.3,0.6,3.7-1.4,4.2c-2.2,0.5-3-1.8-3.8-3.5c-0.3-0.6-0.4-1.3-0.8-1.7c-2-2.3-0.3-4.2,0.6-6.1
		c0.4-0.9,1.4-1.3,2.5-1.1c2.7,0.6,1.8,3.4,2.9,5C529.7,388.5,529.3,389.7,529.3,391.1z"/>
	<path class="st7" d="M527.3,408.5c0.1,2.7-0.2,4.6-2.3,4.5c-4.2-0.4-3.4-4.4-4.3-7.1c-0.4-1.1,0.6-3.6,2-3.1
		C525.5,403.7,526.9,406.4,527.3,408.5z"/>
</g>
</svg>
