<?xml version="1.0" encoding="utf-8"?>
<!-- Generator: Adobe Illustrator 23.0.1, SVG Export Plug-In . SVG Version: 6.00 Build 0)  -->
<svg version="1.1" id="Layer_4" xmlns="http://www.w3.org/2000/svg" xmlns:xlink="http://www.w3.org/1999/xlink" x="0px" y="0px"
	 viewBox="0 0 1000 1000" style="enable-background:new 0 0 1000 1000;" xml:space="preserve">
<style type="text/css">
	.st0{fill:#7F7F7F;}
</style>
<g>
	<path d="M558.6,301.5c0,13-6,17.4-17,20.6c-7.1,2.1-11.2-1.5-11.4-9.2c-0.3-8.7,0.5-17.2,3-25.5c2.1-6.9,8-9,14.1-5.1
		C554.9,287.2,557.8,294.6,558.6,301.5z"/>
	<path class="st0" d="M545.6,286c10,8.9,11.1,14.9,5.2,23.7c-1.8,2.6-2.8,2-4-0.4c-0.8-1.5-1.4-3.3-0.7-4.6
		C549.2,298.7,547.3,292.9,545.6,286z"/>
</g>
</svg>
