<?xml version="1.0" encoding="utf-8"?>
<!-- Generator: Adobe Illustrator 23.0.1, SVG Export Plug-In . SVG Version: 6.00 Build 0)  -->
<svg version="1.1" id="Layer_4" xmlns="http://www.w3.org/2000/svg" xmlns:xlink="http://www.w3.org/1999/xlink" x="0px" y="0px"
	 viewBox="0 0 1000 1000" style="enable-background:new 0 0 1000 1000;" xml:space="preserve">
<style type="text/css">
	.st0{fill:#7F7F7F;}
</style>
<g>
	<path d="M509.5,325.2c-6.7-0.2-11.9-2.7-15.8-8.6c-5.9-8.8-10.7-17.7-8.3-28.8c1.4-6.5,4.8-8.3,10.4-7.8
		c12.9,1.2,19.2,10.4,25.2,19.9c1.6,2.6,3,5.4,3.6,8.6c1.5,7.9-0.7,12-8.3,14.8C514,324.1,512,325.3,509.5,325.2z"/>
	<path class="st0" d="M503.2,287.7c8.2,3.6,13,10.4,16.8,18.1c1.7,3.5-1.7,4.5-3.9,5.4c-3.1,1.2-5.9-0.5-6.2-3.5
		C509.4,300.4,506.1,294.3,503.2,287.7z"/>
</g>
</svg>
