<?xml version="1.0" encoding="utf-8"?>
<!-- Generator: Adobe Illustrator 23.0.1, SVG Export Plug-In . SVG Version: 6.00 Build 0)  -->
<svg version="1.1" id="Layer_4" xmlns="http://www.w3.org/2000/svg" xmlns:xlink="http://www.w3.org/1999/xlink" x="0px" y="0px"
	 viewBox="0 0 1000 1000" style="enable-background:new 0 0 1000 1000;" xml:space="preserve">
<style type="text/css">
	.st0{fill:#FEFEFE;}
	.st1{fill:#C0FEFE;}
</style>
<g>
	<path class="st0" d="M520.5,365.7c0.2,15.3-1.8,29.2-6,42.6c-1.8,5.8-5,11.5-10.1,15.3c-7.7,5.8-18.7-0.1-23.7-7.1
		c-13.3-19.1-22.1-40.3-26.5-63.2c-1.7-8.8-1.5-17.5,2.6-26c2-4,5.2-5.9,8.5-7.9c8.1-4.7,16.2-9.7,26.1-8.8
		c8.7,0.8,17.5,1.8,22.6,10.6c2.9,5.1,3.7,10.8,4.3,16.4C519.3,347.3,521,357,520.5,365.7z"/>
	<path class="st0" d="M523.4,386.4c0-21.8,2.6-43.3,6.9-64.7c0.7-3.7,3.3-6.8,6.9-7.1c4.7-0.3,8.1,2.8,10.7,6.9
		c5.1,8,5.4,16.7,3.9,25.7c-1.8,10.3-2.3,20.9-5.1,31c-3.8,13.4-6.8,27.2-14.2,39.4c-2.3,3.8-4,2.5-5.7,0.1
		c-3.2-4.5-2.7-10-3.2-15.2C523,397.2,523.4,391.8,523.4,386.4z"/>
	<path class="st1" d="M488.4,419c-5.9-4.6-8.8-10.7-12.2-16.5c-10-16.7-15.6-34.9-18.9-53.9c-1-5.5-0.5-11.1,1.2-16.4
		c1.2-3.9,3.4-7.2,7.2-9.5c10.6-6.5,21.6-11.1,34.5-8.3c0.8,0.2,1.6,0.4,2.3,0.7c0.4,0.2,0.8,0.5,2.1,1.4c-8.6-1-15.3,2.2-22,5
		c-7.7,3.2-11.3,10-12.8,17.8c-2.2,11.9,1.3,23.4,3.5,35c2.6,14.3,8.5,27.5,14.5,40.7C488.2,416,489,416.9,488.4,419z"/>
	<path class="st1" d="M529.8,413.8c2.7-11.3,6.4-22.2,9-33.4c2.6-11.1,2.9-22.5,4.1-33.7c0.6-5.5,1.4-10.8-0.6-16.3
		c-1.3-3.4-2.3-6.7-5-9.3c-0.8-0.7-2.2-1.5-1.3-2.8c0.9-1.4,2.3-0.7,3.5-0.1c3.7,1.9,5.5,5.3,7.1,8.9c3.4,7.6,1.4,15.4,0.7,23
		c-1.6,17.3-5.7,34.2-11.3,50.7C534.6,405.5,532.4,409.7,529.8,413.8z"/>
</g>
</svg>
