<?xml version="1.0" encoding="utf-8"?>
<!-- Generator: Adobe Illustrator 23.0.1, SVG Export Plug-In . SVG Version: 6.00 Build 0)  -->
<svg version="1.1" id="Layer_4" xmlns="http://www.w3.org/2000/svg" xmlns:xlink="http://www.w3.org/1999/xlink" x="0px" y="0px"
	 viewBox="0 0 1000 1000" style="enable-background:new 0 0 1000 1000;" xml:space="preserve">
<style type="text/css">
	.st0{fill:#FB9A7A;}
	.st1{fill:#6E3720;}
</style>
<g>
	<path class="st0" d="M538.2,415.9c-25.9,0-51.7,0.2-77.6,0c-4.5,0-5.7,1.1-5.6,5.6c0.2,28.1,0,56.3,0,84.4
		c-2.3-0.4-1.9-2.3-2.2-3.8c-1.5-10.1-5.3-19.4-9.5-28.6c-8.9-19-19.9-37-28.1-56.3c-6.7-15.7-12.9-31.7-15.5-48.7
		c-2.3-14.6-2.1-28.8,6.7-41.7c6.5-9.5,15.3-16,25.7-20.2c17-6.8,34.4-12.4,53.1-11c15.3,1.1,30.5,2.5,45.1,7.6
		c9.8,3.4,18.5,8.9,25.4,16.8c5.3,6.1,6.7,13.5,6,21.5c-1.7,19.3-6.8,37.7-13.3,55.8C546,403.9,543.6,410.8,538.2,415.9z"/>
	<path class="st1" d="M538.2,415.9c9.5-16.6,14.5-34.9,19.1-53.2c1.9-7.4,2.6-15.2,3.2-22.8c1-13.4-6.5-21.8-17-28.6
		c-12.5-8.1-26.5-10.9-40.9-12.5c-7.4-0.8-14.7-1.8-22.1-1.9c-17-0.4-32.7,4.9-48,11c-14.4,5.8-25.3,15.7-30.5,31
		c-3.9,11.6-2.6,23.4,0,34.7c6.1,25.9,16.6,50.1,29.4,73.4c8,14.6,16,29.4,20.7,45.5c1.3,4.4,1.9,9,2.9,13.4c0,1.1,0,2.2,0,3.5
		c-2.4-0.7-2.9-2.8-3.7-4.5c-7.5-14.9-14.8-29.8-22.5-44.6c-6-11.5-12.7-22.7-18-34.5c-7.4-16.4-14.2-33.2-16.9-51
		c-1.7-11.6-3.6-23.3-0.7-35.3c3.1-12.6,10.9-21.7,20.3-29.4c13.9-11.4,31-16.4,48.2-19.7c10.3-2,21-1.8,31.7-0.5
		c12.9,1.6,25.9,2.6,38.3,7c12.9,4.6,24.9,10.9,32.6,22.8c4.2,6.5,5.2,13.6,4.4,21.7c-2,20-7.4,39.1-13.9,58
		c-1.8,5.1-4.4,9.8-7,14.5C545.5,418.2,541.4,415.3,538.2,415.9z"/>
</g>
</svg>
