<?xml version="1.0" encoding="utf-8"?>
<!-- Generator: Adobe Illustrator 23.0.1, SVG Export Plug-In . SVG Version: 6.00 Build 0)  -->
<svg version="1.1" id="Layer_4" xmlns="http://www.w3.org/2000/svg" xmlns:xlink="http://www.w3.org/1999/xlink" x="0px" y="0px"
	 viewBox="0 0 1000 1000" style="enable-background:new 0 0 1000 1000;" xml:space="preserve">
<style type="text/css">
	.st0{fill:#FB9A7A;}
	.st1{fill:#6E3720;}
</style>
<g>
	<path class="st0" d="M539.1,476.5c-5.7,3.7-12.4,5.2-18.6,7.6c-20.6,8.1-41.4,15.6-62.1,23.6c-3.2,1.2-3.4,0.3-3.4-2.5
		c0.1-15.4,0.1-30.9,0.2-46.3c2.3-2.4,5.6-2.3,8.5-3.3c11.3-4.2,22.7-3.7,34.4-1.5c9.7,1.8,19.4,4.2,29.4,3c1.3-0.2,2.7,0.2,3.5,1.3
		C534.7,464,539,469.3,539.1,476.5z"/>
	<path class="st0" d="M455.2,458.1c0-13.2,0-26.3-0.2-39.5c0-2.8,0.9-3.6,3.6-3.6c26.5,0.1,53,0.1,79.5,0.2
		c3.9,6.6,7.8,13.8,4.9,21.3c-3.1,8.1-9.6,13.1-18.8,14.1c-5.2,0.6-10.3,0.6-15.4-0.3c-8-1.5-16-2.8-24-4
		c-10.4-1.6-19.2,1.4-26.1,9.4C457.8,456.8,456.9,458.1,455.2,458.1z"/>
	<path class="st1" d="M455.2,458.1c7.7-12.3,21-15.4,34.4-12.6c8.6,1.8,17.2,3.4,25.9,4.6c10.5,1.5,22.2-4.7,26.3-13.3
		c1.2-2.4,1.4-4.8,0.5-7.4c-1.6-4.7-2.8-9.5-4.2-14.2c5.8-1.4,8.7,0.8,11.2,6.4c4.5,9.9,4,19.8-4.4,25.9c-6.9,5-6.4,11.2-4.6,17.8
		c1.1,4.1,0.5,7.6-1.2,11.2c-2.2-6.1-5.4-11.6-8.6-17.1c-0.7-1.3-1.6-1.7-2.7-1.3c-8.4,2.4-16.5-0.7-24.6-1.9
		c-7.1-1-14.2-2.5-21.4-2.9c-6.7-0.4-13,3-19.6,4.1c-2.3,0.4-4.6,1-7,1.5C455.1,458.6,455.1,458.3,455.2,458.1z"/>
</g>
</svg>
