<?xml version="1.0" encoding="utf-8"?>
<!-- Generator: Adobe Illustrator 23.0.1, SVG Export Plug-In . SVG Version: 6.00 Build 0)  -->
<svg version="1.1" id="Layer_4" xmlns="http://www.w3.org/2000/svg" xmlns:xlink="http://www.w3.org/1999/xlink" x="0px" y="0px"
	 viewBox="0 0 1000 1000" style="enable-background:new 0 0 1000 1000;" xml:space="preserve">
<style type="text/css">
	.st0{fill:#FEFEFE;}
	.st1{fill:#00407F;}
</style>
<g>
	<path d="M501.9,382.1c0-6.1,0.3-11.4,3-16c1.6-2.8,4.1-5.2,7.7-4.6c3.6,0.6,5.7,4,5.6,6.8c-0.2,8.4-0.1,16.9-3,24.9
		c-0.7,2-1.6,4.5-4.5,4.3c-2.7-0.2-4.6-1.8-6-4C502.6,389.7,501.4,385.6,501.9,382.1z"/>
	<path class="st0" d="M516.6,372.6c0.1,1.9,0.3,3.7-1.7,4.2c-2,0.6-3-1-3.9-2.3c-1.2-1.8-2.1-3.9-3-5.9c-0.9-2,0.6-3.1,1.9-4
		c1.4-0.9,3.4-1.1,4.3,0.7C515.4,367.7,517.3,369.9,516.6,372.6z"/>
	<path class="st1" d="M511.8,391.4c-0.2,1.4,0.2,2.5-1.1,3c-1.1,0.3-1.8-0.3-2.6-0.9c-1.7-1.4-2.6-3.3-3.5-5.2
		c-0.6-1.4-1.5-2.9-0.2-4c1.5-1.3,3.2,0.1,4.2,1.2C510.4,387.2,511.3,389.5,511.8,391.4z"/>
</g>
</svg>
