<?xml version="1.0" encoding="utf-8"?>
<!-- Generator: Adobe Illustrator 23.0.1, SVG Export Plug-In . SVG Version: 6.00 Build 0)  -->
<svg version="1.1" id="Layer_4" xmlns="http://www.w3.org/2000/svg" xmlns:xlink="http://www.w3.org/1999/xlink" x="0px" y="0px"
	 viewBox="0 0 1000 1000" style="enable-background:new 0 0 1000 1000;" xml:space="preserve">
<style type="text/css">
	.st0{fill:#6E3720;}
	.st1{fill:#FB9A7A;}
	.st2{fill:#808080;}
	.st3{fill:#7F7F7F;}
	.st4{fill:#FEFEFE;}
	.st5{fill:#C0FEFE;}
	.st6{fill:#00407F;}
</style>
<g>
	<path class="st0" d="M562.6,376.1c3,2.2,6.2,4.2,9.6,5.7c0.6,0.7,0.5,1.5,0.2,2.3c-1.5,4.1,0.7,6.4,4,8.2c4.7,2.5,9.7,4.5,14.6,6.6
		c1.5,0.6,3.3,0.7,3.8,2.6c3.4,6,7.7,11.4,10.1,18.1c5.5,15.4,1.6,29.1-7.3,41.8c-10.7,15.1-23,29-36.7,41.5
		c-5.8,5.2-8.9,10.9-9.1,18.5c-0.4,11.3-9.2,17.8-18.7,19.6c-2.4,0.4-3.2,1.1-2.7,3.2c1.8,7.3,1.9,14.9,2.7,22.3
		c1.7,15.2,1.1,30.4,1.1,45.7c0,15-2.9,29.9-1.9,45c0.8,11.8,1.4,23.6,3.7,35.3c1.2,6.1-0.6,12.1-2.9,17.7
		c-1.6,3.8-8.7,6.8-12.8,5.8c-9.3-2.4-17.7-6.8-24.7-13.6c-17.6-16.8-30.6-37-43.5-57.4c-11.9-18.8-19-39.4-24.6-60.7
		c-3.4-12.9-5.4-26.1-4.5-39.4c0.7-9.7,3.6-19.3,2.7-29.1c-1.6-18.6-3.5-37.3-2.7-56c0.9-20.7,1.7-41.5,8.6-61.3
		c4.6-13.1,11.3-24.9,23-33.1c5.6-3.9,12.1-6.3,18.7-7.6c6.1-1.1,12.4-2.1,18.6-2c15.2,0.3,29.9,3.2,44.3,8.2
		c0.6,0.2,1.2,0.3,1.8,0.4c2.1-0.3,2.8,1.4,3.7,2.6c4.5,6.6,10.6,9.8,18.6,8.6C561.2,375.3,562,375.4,562.6,376.1z"/>
	<path d="M562.6,376.1c-10.7,3-17.8-2-23.4-10.4c-0.3-0.5-0.8-1-1.2-1.4c-3.9-7.2-5.9-14.9-5.8-23.1c0.1-7.4,5.6-11.7,12.8-10
		c15.4,3.7,26.2,18.4,29.1,31.7C575.3,368.5,570.7,373.4,562.6,376.1z"/>
	<path d="M594.8,401.5c-6.2-2.1-12.3-4.6-18.1-7.7c-6.8-3.5-7.5-5.3-4.5-12c8.3-10.7,19.3-12.8,30.4-8.8
		c10.3,3.7,13.3,16.1,8.4,25.3c-1.8,3.4-7.7,5.2-12,3.7C597.5,401.5,596.2,401.5,594.8,401.5z"/>
	<path class="st1" d="M476.9,524.2c10.8,1.2,19.8,5.8,28.1,11.6c2.8,1.9,5.7,3.8,9,4.3c5.2,0.9,6.2,4.6,6.5,9
		c0.7,9.8,2.4,19.4,3.2,29.2c1,12.1,2.3,24.2,1.5,36.3c-0.8,12.2-3.1,24.4-2.6,36.6c0.5,11.4,1.9,22.7,3.3,34
		c0.7,5.3,2.6,10.7,0.7,16.2c-1.4,4.1-3.5,4.9-7.6,4c-13.9-3.1-23.1-12.5-31.2-23c-10.9-14-21.1-28.6-30-44
		c-9.4-16.1-15.4-33.4-20.3-51.2c-4.3-15.4-6.7-31.2-5.8-47.2c0.6-10.9,2.7-21.9,1.7-32.8c-1.7-19.1-0.9-38.3-0.7-57.4
		c0.2-17.8,2-35.5,8.5-52.5c7-18.2,19.8-29,39.2-32.2c13.9-2.3,27.1,1.6,40.2,4.7c22.1,5.3,41.3,16.4,59.1,30.1
		c9.6,7.3,16.3,16.9,17.7,29.4c0.5,4.9-0.7,9.6-2.5,14.1c-5.1,12.5-13.1,23.2-21.7,33.4c-5.3,6.3-10.2,13-16.4,18.4
		c-4.2,3.6-8.3,7.2-12.1,11.2c-1,1.1-2.2,1.9-1.8,3.7c1.7,7.4-1.1,13.4-6.5,17.9c-6.6,5.5-14.1,7-22.3,2.6c-5.5-2.9-11-6.1-16.1-9.6
		C488.8,514.5,485.8,515.8,476.9,524.2z"/>
	<path class="st2" d="M569.3,359.2c0,3.1-2.5,4.2-4.7,4.8c-2.6,0.7-5-0.3-6.2-3.1c-1.4-3.2-2-6.7-3.2-9.9c-1.4-3.7-3.7-7-5.5-10.5
		c-0.4-0.7-1.2-1.3-0.5-2.1c0.4-0.4,1.2-0.4,1.8-0.3C555.6,338.9,569.3,354.7,569.3,359.2z"/>
	<path class="st3" d="M587,375.5c7.1-1.6,12.6,0.6,17.9,3.7c1.1,0.6,2.3,1.6,2.8,2.7c1,2.4,3.3,5.5,0.9,7.4c-1.9,1.5-4.4-1.1-6-2.9
		C598.6,381.3,593.2,378.4,587,375.5z"/>
	<path class="st4" d="M486.2,453.8c1.6-17.4,1.8-35.1,10.2-51.1c7-13.3,17.8-16.8,33.3-15.5c8.9,0.7,16.9,3.3,24.7,7.5
		c5.4,2.9,9.2,10.4,8.1,16.3c-4.6,23.6-13.5,45.4-26.7,65.6c-4.5,6.9-9.9,12.7-15.6,18.4c-9.2,9.1-21.4,7.4-27.9-3.9
		c-3.2-5.6-4.4-11.9-4.7-18C487.3,466.7,485.8,460.4,486.2,453.8z"/>
	<path class="st4" d="M532.3,498.1c-0.3-3.6,0.7-7,2.1-10.3c9.3-22.2,20.9-43.1,34.2-63.1c3-4.5,6.1-9.5,11.7-11.9
		c2-0.8,3.4-0.6,5,0.3c5,2.9,8.3,11.1,6.9,16.8c-4.3,18.2-14.3,33.2-26,47.3c-4.9,6-9.7,12-14.5,18c-3.7,4.6-8.3,8.1-13.2,11.2
		c-4.6,2.8-7.3,0.9-7.2-4.5C531.3,500.6,530.6,498.9,532.3,498.1c2.6,4.1,3.6,4.2,7.3,1.1c4.9-4.1,8.2-9.5,12.5-14
		c11.6-13.6,22.6-27.6,30.5-43.8c1.9-3.8,3.3-7.8,4.4-11.9c1.1-4.1,0-7.5-4.1-10.4c2.8,14.3-3.6,25.5-10.3,36.4
		c-4.4,7.2-9.1,14.2-14.2,21c-1,1.3-1.6,3.3-3.9,3.2c-0.6-0.6-0.9-1.4-1-2.2c-0.3-1.9-0.3-4.2-2.4-4.9c-2.6-0.8-4.3,1.3-5.7,2.9
		c-5,5.7-7.3,13-10.7,19.6C534.1,496.2,534.4,498.1,532.3,498.1z"/>
	<path class="st5" d="M497.5,490.2c-2.7-5-4-10.4-4.9-15.9c-1.1-7-2.3-14.1-2.3-21.1c0.1-15.1,2.9-29.9,7.9-44.2
		c5.2-14.5,17.2-20.5,32.5-17.8c8.1,1.4,15.5,3.9,23.5,9.1c-7.1-0.3-12.6-2.1-18.4-1.8c-5,0.3-9.9,1.2-14.6,3.1
		c-8.5,3.3-11.2,11.3-14.3,18.7c-5.4,13.1-6.6,27.2-8.1,41.2C497.8,471,498.5,480.5,497.5,490.2z"/>
	<path d="M527.2,473.3c-2.2,8.3-6.2,17-14,23.6c-2.2,1.8-4.7,1.6-7,0c-2.7-1.9-4-4.8-3.2-8c1.8-8.1,5.9-15.1,10.9-21.6
		c2-2.6,5.5-4.5,8.9-3.1C525.7,465.4,527.6,468.2,527.2,473.3z"/>
	<path class="st5" d="M554.8,479.5c7.5-10.6,15.2-20.9,21.4-32.4c3.2-6,5.4-12.4,6.6-19.2c0.5-2.8-0.8-5.1-1.5-7.5
		c-0.3-1.1-0.7-2.3,0.5-3.1c1.2-0.7,2.2,0.2,3,1c3.1,3.4,4.8,6.9,3.4,11.9c-4.3,14.3-12.2,26.4-21,38.1c-4.7,6.2-8.9,12.7-14.6,18
		C551.6,483.5,552.6,481.3,554.8,479.5z"/>
	<path d="M554.8,479.5c-0.8,2.3-1.5,4.6-2.3,6.8c-4.2,5-8,10.2-12.9,14.5c-1.7,1.5-3.7,2.8-6,1.9c-2.1-0.8-1.5-2.9-1.4-4.6
		c0,0-0.1,0.1-0.1,0.1c2.9-7.7,6.4-15.1,10.9-22c1.9-2.9,4.8-6.6,8.9-5.1C555.6,472.2,554.5,476.4,554.8,479.5z"/>
	<path class="st4" d="M517.7,473.8c-0.4-2.1,0-3.8,0.9-5.3c1.5-2.5,4.2-2.5,5.8,0c2,3,1,10.1-1.7,12.3c-1.6,1.3-3.3,0.9-3.8-0.9
		C518.3,477.8,516.7,475.8,517.7,473.8z"/>
	<path class="st6" d="M512.8,489.4c-0.1,1.2,0.1,2.1-0.2,2.8c-0.6,1.4-0.8,3.5-2.7,3.6c-1.6,0.1-2.4-1.4-3-2.8
		c-0.4-1-0.9-2.1-0.9-3.2c0-2.8-0.9-6.9,3-6.9C511.9,483,512.7,486.8,512.8,489.4z"/>
	<path class="st4" d="M552.7,478.1c-0.3,2-0.9,3.9-1.8,5.7c-0.9,1.6-1.5,4.2-3.8,3c-2.1-1.1-4.4-3.1-2.7-6.3c0.8-1.5,1.6-3,2.6-4.4
		c0.8-1.1,1.7-3,3.2-2.3C551.7,474.5,553.2,475.9,552.7,478.1z"/>
	<path class="st6" d="M542,493.7c-1.1,3.3-3.1,5.4-5.8,7.1c-0.2,0.1-0.6,0.1-0.9,0c-1.1-0.2-1.2-1.1-0.9-1.9
		c1.2-2.9,1.5-6.4,4.3-8.4c1-0.7,2,0.8,2.7,1.6C541.7,492.6,541.8,493.3,542,493.7z"/>
</g>
</svg>
