<?xml version="1.0" encoding="utf-8"?>
<!-- Generator: Adobe Illustrator 23.0.1, SVG Export Plug-In . SVG Version: 6.00 Build 0)  -->
<svg version="1.1" id="Layer_4" xmlns="http://www.w3.org/2000/svg" xmlns:xlink="http://www.w3.org/1999/xlink" x="0px" y="0px"
	 viewBox="0 0 1000 1000" style="enable-background:new 0 0 1000 1000;" xml:space="preserve">
<style type="text/css">
	.st0{fill:#6E3720;}
	.st1{fill:#FB9A7A;}
	.st2{fill:#7F7F7F;}
	.st3{fill:#FEFEFE;}
	.st4{fill:#C0FEFE;}
	.st5{fill:#00407F;}
</style>
<g>
	<path class="st0" d="M566.5,378.9c3.4,0.8,6,3,8.8,4.9c0.2,0.2,0.5,0.6,0.4,0.8c-2.6,7,2.1,9.6,7.2,12c4.2,2,8.3,4.4,12.9,5.6
		c1.3,0.3,2.5,0.8,2.9,2.3c2.4,4.6,5.2,9,7.3,13.7c4.9,11,5.6,21.9,0,33.3c-5.8,11.8-14.3,21.4-22.7,31.2
		c-8.4,9.8-17.5,19-27.8,26.7c-4,3-3,7.1-3.5,10.5c-1.7,12.1-7.7,19.8-19.9,22.2c-1.9,0.4-2.1,1.3-1.8,2.6
		c4.7,24.9,3.9,50.1,3.9,75.2c0,4.8-1,9.6-1.1,14.4c-0.3,19.7,3.2,38.7,8,57.6c3.3,12.8-6.3,23-19,19.9c-11.4-2.7-20.9-9-29.5-16.6
		c-23-20.3-39.4-45.5-52.4-73c-7.7-16.3-13.4-33.5-16.1-51.3c-1.8-12.2-1.7-24.5,0.5-36.9c2.2-12.8,0.1-25.9-0.5-38.8
		c-0.4-8.7-1.3-17.5,0.7-26.1c0.2-0.9,0.1-1.9,0.1-2.9c0-23.1,2.1-46.1,9.1-68.1c6.6-21,20.1-36.1,43.1-40.6
		c22.5-4.3,43.9-0.7,64.5,8.7c0.4,0.2,1,0,1.4,0.1c2-0.3,2.9,1.4,3.7,2.6c3.9,5.8,9.4,8.7,16.3,8.9
		C564.2,377.7,565.5,377.8,566.5,378.9z"/>
	<path d="M566.5,378.9c-10.9,1.4-18-4.2-23.5-12.7c-3.6-6.6-5.5-13.6-5.8-21.1c-0.3-9,5.5-16.5,16.8-11.2
		c13.3,6.1,21.3,16.8,24.1,31.1c1,5.3-3.2,10.6-9.7,12.9C567.6,378.1,566.7,377.7,566.5,378.9z"/>
	<path d="M598.7,404.4c-6.2-1.7-11.9-4.5-17.6-7.4c-7.7-3.9-8.4-5.5-5.8-13.3c6.8-6.1,14.4-10.2,23.9-9.7
		c9.6,0.4,22.2,10.8,16.7,24.4c-2.8,7-7.4,7.4-13.9,6.5C600.9,404.8,599.8,404.3,598.7,404.4z"/>
	<path class="st1" d="M476.1,524.6c11.8-1.6,19.1,5.4,26.9,11.2c3.8,2.9,7.9,4.9,12.7,5.1c4.5,0.2,4.4,4,4.6,6.6
		c1.1,14.4,2.9,28.8,4.3,43.2c1.4,14.2-1.5,28-1.1,42c0.6,19.7,2.5,39.4,8.1,58.5c2.1,7.3-1.9,10.6-9.5,9.4
		c-11.8-1.8-20.7-8.5-28.7-16.4c-23.3-22.7-39.9-49.7-50.9-80.3c-5.4-15-8.1-30.5-10.1-46.3c-1.4-10.8,0.1-21.2,1-31.7
		c0.4-5,0.1-10.1,0.1-15.1c0-14.5-0.5-29,0.1-43.4c0.8-19.3,0.7-38.7,5.8-57.5c3.5-13,8.1-25.3,18.6-34.7c6.4-5.7,13.6-9,21.9-9.9
		c21.7-2.3,41.8,3.1,61.6,11.5c15,6.4,28.5,15.5,41.2,25.5c9.9,7.8,17.2,18.4,16.8,32.2c-0.2,6.2-2.2,12-5.2,17.3
		c-9.9,17.2-22.4,32.3-37.7,44.9c-4.2,3.5-8.4,7.1-12.6,10.5c-1.7,1.4-2.3,3-2.1,5.1c2.3,17.4-12.2,22.7-22.8,20.4
		c-8.4-1.8-14.2-7.2-20.4-12.1C490.7,514.4,481.8,516.1,476.1,524.6z"/>
	<path class="st2" d="M554.5,339.9c9.7,3.8,15.2,11.3,18.6,20.6c1,2.6-1.3,3.9-3.5,5c-2.3,1.2-4,0.7-5.5-1.2c-0.5-0.6-1-1.3-1.1-2.1
		C561.3,354.4,557.6,347.4,554.5,339.9z"/>
	<path class="st2" d="M591.6,378.4c7.3-0.8,14,0.5,19.1,6.2c0.8,0.9,1.6,2,2.1,3.1c0.8,1.8,1.3,4-0.6,5.3c-2,1.3-2.8-1-3.7-2
		C603.4,386.1,598.2,381.5,591.6,378.4z"/>
	<path class="st3" d="M488.6,458.1c-0.3-15.2,1.4-30.3,5.9-44.7c2.4-7.7,5.9-15.3,13.2-20.3c7.2-4.9,15.3-6,23.5-5.3
		c8.1,0.8,15.9,3.3,23.5,6.6c8,3.4,10.8,13.7,9.6,19.9c-3.5,18-9.6,35.1-19.1,50.7c-7.6,12.5-16.5,24.2-28.2,33.4
		c-7.9,6.1-13.6,3.6-20.1-2.2c-4.6-4.1-6.7-9.7-7.5-15.8c-0.5-3.7,0.1-7.4-0.6-11.1C488,465.6,488.6,461.8,488.6,458.1z"/>
	<path class="st3" d="M594.8,429.4c-0.8,7.8-3.5,15.2-7.6,22c-8.8,14.3-19.3,27.3-30.6,39.7c-5,5.6-10.4,10.6-16.3,14.9
		c-2.2,1.6-4.9,4.3-7.8,2.1c-2.8-2-2.1-5.2-1.3-8.4c2.8-11.2,8.5-21.2,14-31.1c8.5-15.1,17.6-29.9,28.2-43.7
		c2.3-2.9,4.9-5.7,7.7-8.1c3.3-2.8,6.7-2.4,9.2,1.1C592.6,421.2,594.7,424.8,594.8,429.4z"/>
	<path class="st4" d="M554.8,401.3c-3.8-0.5-7.6-1.3-11.4-1.5c-8.8-0.5-18-0.9-24.6,6c-5.7,5.9-9.8,13.3-11.9,21.5
		c-5.2,19.9-8.1,40.2-7.9,60.8c0,0.7-0.1,1.5-0.2,3.4c-3.6-6.8-4.6-13.1-5.5-19.4c-2.8-19.2-0.3-38,5.7-56.4c0.8-2.5,2-4.8,2.8-7.2
		c4.4-12.9,19.6-20.6,33.6-16.3C542.3,394.2,548.8,396.9,554.8,401.3z"/>
	<path d="M502.9,490c1.1-4.9,4-9.9,6.9-15c2.1-3.8,4.2-7.7,8.6-9.1c2.3-0.7,5.1-2.8,7.6,0c2.4,2.6,3.1,5.9,2.1,8.9
		c-1.7,5.2-3.9,10.2-7.3,14.7c-2.1,2.8-4.1,5.8-7.2,7.6C507.9,500.4,503.1,497.6,502.9,490z"/>
	<path class="st4" d="M555.8,480.5c8.2-9.4,15.7-19.2,21.3-30.4c2.9-5.7,6.2-11.3,7.3-17.9c0.6-3.5-0.4-6.3-1.1-9.4
		c-0.3-1.4-0.4-2.6,1-3.3c1.3-0.7,2.1,0.5,2.8,1.3c2.8,3.4,4.4,7.2,3.2,11.6c-3.3,13-10.7,23.8-18.6,34.3
		c-4.4,5.9-9.4,11.5-14.2,17.1c-1.5,1.7-2.9,3.5-5,4.5C551.6,484.8,553.5,482.5,555.8,480.5z"/>
	<path d="M555.8,480.5c-1.1,2.6-2.2,5.2-3.2,7.8c-4.3,5.9-8.5,11.8-15.4,15.1c-1.4,0.7-2.8,0.9-4,0c-1.4-1.1-1.2-2.6-0.7-4
		c3-8.3,6.3-16.4,12.8-22.7c2.2-2.1,4.4-5,7.7-3.7C556.1,474.1,555.6,477.6,555.8,480.5z"/>
	<path class="st3" d="M526.5,473.9c-0.8,3.1-1.5,7.8-4.9,8.1c-3.4,0.3-3.9-4.3-4-7.5c-0.1-3.2,1-6.4,4.6-6.7
		C526.1,467.6,526,471,526.5,473.9z"/>
	<path class="st5" d="M512.7,490.8c0.2,2.6-0.6,4.9-3.3,5c-2.7,0.2-2.9-2.5-3.5-4.4c0-0.1,0-0.3,0-0.5c0.1-3.1-0.8-7.8,3.1-7.9
		C512.4,482.9,512.3,487.7,512.7,490.8z"/>
	<path class="st3" d="M553.7,479.6c-0.5,2.8-1.9,5.9-4.7,7.9c-2.6,1.7-3.7-0.7-4-2.7c-0.7-4.3,2.3-7,5.4-8.9
		C552.7,474.5,553.8,476.6,553.7,479.6z"/>
	<path class="st5" d="M542,494.9c-0.1,3.1-3.5,7.2-5.8,6.9c-1.3-0.2-1.9-1.1-1.9-2.4c0-2.3,4.2-8.1,5.8-7.9
		C542,491.8,542,493.4,542,494.9z"/>
</g>
</svg>
