<?xml version="1.0" encoding="utf-8"?>
<!-- Generator: Adobe Illustrator 23.0.1, SVG Export Plug-In . SVG Version: 6.00 Build 0)  -->
<svg version="1.1" id="Layer_4" xmlns="http://www.w3.org/2000/svg" xmlns:xlink="http://www.w3.org/1999/xlink" x="0px" y="0px"
	 viewBox="0 0 1000 1000" style="enable-background:new 0 0 1000 1000;" xml:space="preserve">
<style type="text/css">
	.st0{fill:#6E3720;}
	.st1{fill:#FB9A7A;}
</style>
<g>
	<path class="st0" d="M494.8,555.6c-16.2,2.3-34.9,2.7-53.7,1.9c-16.6-0.7-33.2-1.7-49.7-4.5c-8.9-1.5-17.8-3-26.6-5.1
		c-13.4-3.2-11.2-11.3-8.4-19.7c2-6,7.1-9.8,10.7-14.6c6.6-8.7,10.7-18.5,13.8-28.9c4.4-15.2,15.7-23.2,30-27.7
		c16.5-5.2,33.5-7.2,50.6-8.9c9.3-0.9,18.7-1,27.9-2.1c10.6-1.3,20.6-0.3,30.5,3.1c18.7,6.4,32.6,25.2,34.9,44.5
		c1.4,11.4-0.7,21.7-5.6,31.7c-7.3,14.7-19.3,23.7-34.9,28.2C508.9,555.3,503.1,555.9,494.8,555.6z"/>
	<path class="st1" d="M424.1,531.2c-0.1,6.2,3.4,10.4,5.8,15.3c-10.2,1.4-19.9,0-29.5-0.8c-9.7-0.9-19.3-3.1-28.9-4.6
		c-8.9-1.4-10.9-5.9-4.7-12.6c10.9-11.9,17.8-25.6,22.5-40.9c4.2-13.7,15.6-20.1,28.7-23.6c17.4-4.7,35.1-7.2,53.2-8
		c9-0.4,18-2.2,27-1.7c16.9,0.9,31.6,6.9,40.6,21.8c6.9,11.2,7.6,23.9,4.8,36.8c-3.4,15.8-21.2,30-36.4,31.3
		c-13.6,1.2-27.2,2.6-41,3c-6.1,0.2-12,1-18.2,0.1c-9.6-1.3-16.2-6.3-21.6-13.8C425.8,532.7,425.2,532.2,424.1,531.2z"/>
</g>
</svg>
