<?xml version="1.0" encoding="utf-8"?>
<!-- Generator: Adobe Illustrator 23.0.1, SVG Export Plug-In . SVG Version: 6.00 Build 0)  -->
<svg version="1.1" id="Layer_4" xmlns="http://www.w3.org/2000/svg" xmlns:xlink="http://www.w3.org/1999/xlink" x="0px" y="0px"
	 viewBox="0 0 1000 1000" style="enable-background:new 0 0 1000 1000;" xml:space="preserve">
<style type="text/css">
	.st0{fill:#6E3720;}
	.st1{fill:#FB9A7A;}
</style>
<g>
	<path class="st0" d="M454.8,557.4c-11.9,1.3-23.7-0.3-35.5-0.9c-16.4-0.9-32.8-3.1-49.2-4.7c-9.3-0.9-18.7-1.7-27.7-4.6
		c-9.9-3.1-11.9-7.6-7.4-17.1c4.4-9.3,12-15.9,19.8-21.9c16.9-12.9,35.3-23.5,54.3-32.9c15.3-7.6,30.4-15.6,46.7-20.9
		c11.6-3.8,23.5-6.3,35.6-8.2c15.3-2.4,28.9,1.3,41.1,9.8c13,9.1,20.2,21.9,22.4,37.8c1.6,11.7-0.8,22.4-6,32.6
		c-7.2,14.1-19.1,22.7-34,27.3c-3.6,1.1-7.5,2-11.2,2C487.3,555.4,471.1,558.9,454.8,557.4z"/>
	<path class="st1" d="M442.4,548c-8.5,0.6-20.2-0.7-31.8-1.4c-17.4-1.1-34.9-2.7-52.2-5.4c-3.6-0.6-7.3-0.9-11-1.2
		c-5.4-0.5-6.8-3.5-4.5-8.3c2.8-5.8,8.4-8.9,13-12.8c22.6-19.1,49.2-31.4,75.5-44.1c16.6-7.9,33.8-14.2,51.9-18.5
		c19.1-4.5,35.6-0.4,50,12.3c5.9,5.2,8.9,12.5,10.3,20.2c1.8,10.2,2.3,20.5-2.5,30.2c-6.9,13.9-17.9,22.5-33.2,24.8
		c-13.9,2-27.9,2.6-41.9,3.2C459.2,547.4,452.4,547.6,442.4,548z"/>
</g>
</svg>
