<?xml version="1.0" encoding="utf-8"?>
<!-- Generator: Adobe Illustrator 23.0.1, SVG Export Plug-In . SVG Version: 6.00 Build 0)  -->
<svg version="1.1" id="Layer_4" xmlns="http://www.w3.org/2000/svg" xmlns:xlink="http://www.w3.org/1999/xlink" x="0px" y="0px"
	 viewBox="0 0 1000 1000" style="enable-background:new 0 0 1000 1000;" xml:space="preserve">
<style type="text/css">
	.st0{fill:#6E3720;}
	.st1{fill:#FB9A7A;}
</style>
<g>
	<path class="st0" d="M454.4,557.4c-12,1.2-23.8-0.3-35.6-0.9c-15.7-0.7-31.4-2-46.9-3.9c-10.8-1.3-21.8-1.9-32.4-5.3
		c-9.9-3.2-11.8-7.5-7.5-17.1c2.5-5.6,7-9,11.4-12.7c6.7-5.6,13-11.9,20.5-16.5c20.1-12.4,40.6-23.8,62.2-33.3
		c16.2-7,32.1-14.8,49.4-18.8c15.3-3.5,30.7-5.8,45.9,0.8c16.8,7.2,27.6,19.7,32.2,37.2c4.5,16.9,1.1,32.6-9.4,46.7
		c-7.8,10.6-18.3,16.9-30.8,20.4c-3.3,0.9-6.7,1.5-9.8,1.5C487.1,555.5,470.8,558.9,454.4,557.4z"/>
	<path class="st1" d="M440.3,548.1c-7.2,0.5-19.4-0.8-31.5-1.5c-17.8-1.1-35.5-2.7-53.2-5.4c-3.4-0.5-7-0.9-10.5-1.2
		c-6.1-0.6-7.6-3.3-4.8-8.7c3.1-5.8,9-8.7,13.8-12.5c19.3-15.1,41.2-25.9,63.1-36.7c16.7-8.3,33.8-15.5,51.2-21.9
		c9.6-3.5,19.9-5.6,30.1-5.9c12.1-0.4,22.4,5,32.2,12.1c15.5,11.2,17.9,42.8,8.4,56.8c-9.7,14.3-23.2,20.8-40.2,21.8
		C481,546.2,463.2,547.6,440.3,548.1z"/>
</g>
</svg>
