<?xml version="1.0" encoding="utf-8"?>
<!-- Generator: Adobe Illustrator 23.0.1, SVG Export Plug-In . SVG Version: 6.00 Build 0)  -->
<svg version="1.1" id="Layer_4" xmlns="http://www.w3.org/2000/svg" xmlns:xlink="http://www.w3.org/1999/xlink" x="0px" y="0px"
	 viewBox="0 0 1000 1000" style="enable-background:new 0 0 1000 1000;" xml:space="preserve">
<style type="text/css">
	.st0{fill:#6E3720;}
	.st1{fill:#FB9A7A;}
</style>
<g>
	<path class="st0" d="M495.4,555.5c-16.9,2.6-36.4,2.9-55.7,1.9c-17.7-0.9-35.6-0.7-52.8-5.7c-7.3-2.2-14.6-5-16.1-14.2
		c-0.9-5.9,2.3-10.1,5.2-14.5c1.2-1.9,2.8-3.5,4.2-5.2c3.1-3.9,1.1-7.9,0.2-11.8c-3.5-15.1-4.6-30.2-1.7-45.6
		c2.8-14.9,13.2-20.9,26.3-23.6c6.4-1.3,13-1.7,19.5-2c11.6-0.6,22.8,2.8,34.1,4.2c8.4,1,16.7,2.2,25,3.6
		c12.8,2.1,25.9,2.6,38.1,7.5c16.9,6.8,27.2,19.6,31.8,36.8c4.5,16.9,1.1,32.6-9.4,46.7c-7.9,10.7-18.5,17.2-31.2,20.4
		C508,555.2,502.9,556,495.4,555.5z"/>
	<path class="st1" d="M414.6,508.6c-1.1,14.1,2.2,26.8,12.3,37.9c-8,0.9-15.1,0.3-22.2-1c-5-0.9-10.2-0.8-15.1-2.5
		c-10.1-3.4-11.8-9-4-15.9c6.1-5.3,6.9-11,4.6-18.1c-3.7-11.9-5.1-24.3-4.5-36.7c1-18.1,10.6-27.3,29.2-29.1
		c18.6-1.9,36.2,3.4,54.2,5.8c13.8,1.8,27.7,3.6,41.1,7.2c17.9,4.8,32,16.8,33.8,37c1,10.8,0.6,20.9-5.2,30.1
		c-9.3,14.5-23.1,20.8-40.1,21.8c-15.8,0.9-31.5,2.7-47.3,2.6c-11.7-0.1-20.5-6.5-26.8-16.4C420.3,524.2,417.7,516.4,414.6,508.6z"
		/>
</g>
</svg>
