<?xml version="1.0" encoding="utf-8"?>
<!-- Generator: Adobe Illustrator 23.0.1, SVG Export Plug-In . SVG Version: 6.00 Build 0)  -->
<svg version="1.1" id="Layer_4" xmlns="http://www.w3.org/2000/svg" xmlns:xlink="http://www.w3.org/1999/xlink" x="0px" y="0px"
	 viewBox="0 0 1000 1000" style="enable-background:new 0 0 1000 1000;" xml:space="preserve">
<style type="text/css">
	.st0{fill:#6E3720;}
	.st1{fill:#FB9A7A;}
</style>
<g>
	<path class="st0" d="M453.5,557.4c-11.8,1.2-23.8-0.4-35.7-0.9c-16.5-0.8-33-2-49.4-3.9c-11.3-1.3-22.8-1.8-33.8-5.4
		c-9.7-3.2-11.5-7.2-7.5-16.7c3.5-8.4,11.1-12.6,17.7-17.7c14.5-11.1,30.8-19.3,46.8-27.9c20.9-11.2,42.8-20.1,65.2-27.9
		c10-3.5,19.9-7,30.1-9.9c19.1-5.6,45.7,3.8,56.8,19.6c7.1,10,11.8,20.6,11.8,32.5c0.1,17.8-6.5,33-21,44.4
		c-10.9,8.6-23.2,12-36.7,12.3C483,556.1,468.4,558.6,453.5,557.4z"/>
	<path class="st1" d="M446.3,547.8c-17.9,0.4-34.1-1.1-50.2-2.1c-18.9-1.2-37.7-3.7-56.6-5.8c-1.9-0.2-4.2-0.5-5.1-2.9
		c-1.1-2.7,0.5-4.4,2.1-5.9c9.5-9.2,20.5-16.5,32-23c11.3-6.4,22.8-12.7,34.6-18.1c16.7-7.7,33.2-16,50.7-22.1
		c9.7-3.4,19.5-6.4,29-10.1c18-7.1,33.2-2,48,8.9c15.3,11.2,18,42.5,8.2,56.8c-9.7,14.3-23.2,21.1-40.3,21.6c-9,0.3-17.9,1.9-27,1.9
		C462.7,546.8,453.7,548.9,446.3,547.8z"/>
</g>
</svg>
