<?xml version="1.0" encoding="utf-8"?>
<!-- Generator: Adobe Illustrator 23.0.1, SVG Export Plug-In . SVG Version: 6.00 Build 0)  -->
<svg version="1.1" id="Layer_4" xmlns="http://www.w3.org/2000/svg" xmlns:xlink="http://www.w3.org/1999/xlink" x="0px" y="0px"
	 viewBox="0 0 1000 1000" style="enable-background:new 0 0 1000 1000;" xml:space="preserve">
<style type="text/css">
	.st0{fill:#7F7F7F;}
	.st1{fill:#808080;}
</style>
<g>
	<path d="M470.7,269.5c10.7,0.9,20.6,3.9,29,11c5.5,4.7,5.5,12.9,0,19c-5.2,5.8-11.5,8.4-19.5,6.2c-10.6-2.8-19.4-8.3-25.8-17
		c-5.2-7.1-1.5-15.3,7.1-17.3C464.6,270.7,467.5,269.3,470.7,269.5z"/>
	<path d="M508.8,286.9c0.8-8.1,2.8-15.5,11.2-19.1c8.5-3.7,16.7-2.3,24.2,2.7c5.1,3.3,6.1,10,2.3,14.6c-7.1,8.3-16.4,13.3-26.9,15.7
		c-5.3,1.2-10.1-4.1-10.7-10.8C508.7,288.9,508.8,287.9,508.8,286.9z"/>
	<path class="st0" d="M467.3,275.1c6.7-2.9,22.2,0.3,26.1,4.9c2.3,2.7,2,4.9-0.8,7.4c-2.5,2.2-4.4,2.4-6.6-0.1
		C481.1,281.8,474.6,278.7,467.3,275.1z"/>
	<path class="st1" d="M518.7,273.2c7.6-6,19.6-4,24.1,3.9c0.7,1.3,2.1,2.9,0.4,4.3c-1.4,1.1-2.9,2.2-5.2,1.4
		c-3.3-1.2-5.5-3.8-8.2-5.7C526.6,274.7,523.1,273.6,518.7,273.2z"/>
</g>
</svg>
