<?xml version="1.0" encoding="utf-8"?>
<!-- Generator: Adobe Illustrator 23.0.1, SVG Export Plug-In . SVG Version: 6.00 Build 0)  -->
<svg version="1.1" id="Layer_4" xmlns="http://www.w3.org/2000/svg" xmlns:xlink="http://www.w3.org/1999/xlink" x="0px" y="0px"
	 viewBox="0 0 1000 1000" style="enable-background:new 0 0 1000 1000;" xml:space="preserve">
<style type="text/css">
	.st0{fill:#7F7F7F;}
</style>
<g>
	<path d="M473.5,298.9c-11.3-1.8-22.3-5.3-27.8-16.4c-4.6-9.2-3.8-14.2,7.4-17.3c13.9-3.9,26.3,0.4,37.1,8.8
		c7,5.4,3.3,20.2-5.4,22.5C481.1,297.5,477.7,299.9,473.5,298.9z"/>
	<path d="M500,278.4c-0.3-9.4,3.5-16,11.5-19c8.2-3.1,19-0.7,24.3,4.5c3.2,3.2,4.3,6.6,1.5,10.9c-3.6,5.5-8.4,9.4-14.2,12.3
		c-4.2,2.1-8,4.7-13,5.2c-4.5,0.5-7.9-0.8-9.1-5c-0.4-1.5-0.8-3-1-4.6C499.9,281.3,500,279.8,500,278.4z"/>
	<path class="st0" d="M458.3,269.1c3.2-2.5,6.3-1.1,9.4-0.6c4.4,0.7,8.9,0.8,13,2.7c5.4,2.5,5.8,6.8,1.1,10.2
		c-1.7,1.2-3.4,1.4-4.7-0.2C472.1,275.3,465.1,272.8,458.3,269.1z"/>
	<path class="st0" d="M509,265.3c7-5.5,18.1-4.5,23.2,1.9c1.1,1.4,2.9,3.2,1.4,5.1c-1.4,1.6-3.2,2.5-5.9,1.5
		c-2.5-0.8-4.3-2.4-5.9-3.8C518.2,266.6,513.8,266.2,509,265.3z"/>
</g>
</svg>
