<?xml version="1.0" encoding="utf-8"?>
<!-- Generator: Adobe Illustrator 23.0.1, SVG Export Plug-In . SVG Version: 6.00 Build 0)  -->
<svg version="1.1" id="Layer_4" xmlns="http://www.w3.org/2000/svg" xmlns:xlink="http://www.w3.org/1999/xlink" x="0px" y="0px"
	 viewBox="0 0 1000 1000" style="enable-background:new 0 0 1000 1000;" xml:space="preserve">
<style type="text/css">
	.st0{fill:#FEFEFE;}
	.st1{fill:#C0FEFE;}
</style>
<g>
	<path class="st0" d="M512,393.8c-2,10.7-2,22.6-11,31.5c-5.4,5.4-11.6,5.2-17.7,1.7c-9.8-5.5-15.8-14.7-22.2-23.5
		c-8.6-11.8-15.6-24.7-19.9-38.5c-2.8-8.9-4.4-18.7-1.1-28.2c2.6-7.6,8-13.1,14.4-17.4c10.2-6.9,21.9-8.8,34-8.9
		c4.4-0.1,7.2,2,9.1,5.8c5,9.8,6.6,20.7,9.3,31.2c2,7.9,2.5,16,3.1,24.2C510.3,378.8,511.2,386,512,393.8z"/>
	<path class="st0" d="M538.2,350.8c-0.2,19.9-2.6,39.8-7,59.5c-0.8,3.6-2.2,7.8-6.1,8.4c-3.6,0.5-4.7-3.8-6-6.5
		c-3.6-7.2-4.6-15.1-5.3-23c-1.4-14.9-1.7-29.9-2.3-44.9c-0.3-8.5-0.9-16.9,0.2-25.4c0.8-6.5,5.1-9.2,10.9-6.3
		c8.8,4.3,13.8,10.9,14.7,21.1C537.8,339.3,537.8,344.9,538.2,350.8z"/>
	<path class="st1" d="M484.4,420.4c-7.6-3.4-12.2-9.1-16.4-14.9c-12.3-17.4-21.8-36.1-25.3-57.4c-1.3-8.1,2.5-14.2,7.7-19.6
		c9.2-9.5,20.8-12.6,33.8-11.3c-4.9,2.2-9.9,4.3-14.7,6.8c-7.5,3.9-12.8,9.8-14.8,18.3c-0.4,2-0.5,3.7-0.1,5.7
		c4.7,25.4,14.2,48.8,28.6,70.3C483.5,418.7,483.7,419.2,484.4,420.4z"/>
	<path class="st1" d="M524.5,412c0.7-7.6,0.9-14.2,2.1-20.6c1.3-6.9,0.4-13.9,1.6-20.8c2.1-12.4,1-24.8-0.7-37.2
		c-0.8-6.2-2.9-11.2-8.1-14.8c-0.5-0.3-0.7-1-1.2-1.6c6.5-0.7,12.1,3.8,13.9,11c2.7,10.5,2.3,21.3,1.7,31.9
		c-0.5,9.3-1.5,18.7-2.8,28C530.1,395.8,530.1,404.1,524.5,412z"/>
</g>
</svg>
