<?xml version="1.0" encoding="utf-8"?>
<!-- Generator: Adobe Illustrator 23.0.1, SVG Export Plug-In . SVG Version: 6.00 Build 0)  -->
<svg version="1.1" id="Layer_4" xmlns="http://www.w3.org/2000/svg" xmlns:xlink="http://www.w3.org/1999/xlink" x="0px" y="0px"
	 viewBox="0 0 1000 1000" style="enable-background:new 0 0 1000 1000;" xml:space="preserve">
<style type="text/css">
	.st0{fill:#FEFEFE;}
	.st1{fill:#C0FEFE;}
</style>
<g>
	<path class="st0" d="M515.8,387.9c-0.6,13-2.2,24.7-9,35c-5.8,8.7-14,9.7-22.4,3.5c-11.1-8.2-18-19.6-24.5-31.4
		c-5.4-9.8-11.9-19.2-13.8-30.5c-1.4-8.4-4.2-16.8-1.4-25.4c3.2-10.1,11.2-16,19.9-21c7.4-4.2,15.5-6.5,24-6.7
		c12.1-0.2,16.5,3.4,19.3,15.3c2.8,12.1,4.8,24.3,6,36.6C514.7,371.9,514.5,380.5,515.8,387.9z"/>
	<path class="st0" d="M517.5,378.4c0.4-14.2-1.5-26.3-1-38.5c0.3-6.9,1.2-13.7,2.1-20.5c0.8-5.7,4.8-7.3,10.2-4.8
		c9.6,4.3,12.8,12.4,14.2,22c2.2,15-0.4,29.7-1.8,44.5c-1,10.4-4,20.2-6.1,30.2c-0.4,2-1.6,3.8-2.4,5.6c-1,2.1-2.3,4.6-4.4,4.6
		c-2.5-0.1-4.4-2.2-5.8-4.6c-2.8-4.6-3.5-10-3.7-15C518.4,393.4,516.6,385,517.5,378.4z"/>
	<path class="st1" d="M493.7,317.9c-5.8,1.9-11.5,3.8-16.8,6.7c-8.3,4.6-14.6,10.9-16.5,20.5c-1.1,5.4,0.8,10.6,2,15.8
		c4,17.5,10,34.2,18.6,50c2,3.8,4.7,7.2,7.4,11.2c-6.4-2.5-9.5-7.6-13-12.1c-12.3-16-21.5-33.5-25.6-53.5c-1.7-8.6-2.7-17,3.4-24.6
		c2.7-3.4,5.9-6.2,9.6-8C472.5,319.2,482.8,316.7,493.7,317.9z"/>
	<path class="st1" d="M524.7,319.9c7-0.7,11.9,3.2,14,10.6c2.6,9,2.5,18.2,1.2,27.4c-2.3,17-4.7,34-8.6,50.7
		c-0.6,2.4-1.7,4.5-3.3,6.3c1.1-8.4,2.4-16.7,3.3-25.1c1.1-9.6,1.5-19.4,2.9-28.9c1.3-8.7,0.2-17-0.9-25.6
		C532.6,329.2,529.4,324.4,524.7,319.9z"/>
</g>
</svg>
