<?xml version="1.0" encoding="utf-8"?>
<!-- Generator: Adobe Illustrator 23.0.1, SVG Export Plug-In . SVG Version: 6.00 Build 0)  -->
<svg version="1.1" id="Layer_4" xmlns="http://www.w3.org/2000/svg" xmlns:xlink="http://www.w3.org/1999/xlink" x="0px" y="0px"
	 viewBox="0 0 1000 1000" style="enable-background:new 0 0 1000 1000;" xml:space="preserve">
<style type="text/css">
	.st0{fill:#FB9A7A;}
	.st1{fill:#6E3720;}
	.st2{fill:#730000;}
</style>
<g>
	<path class="st0" d="M524.5,457.2c-19.3,19.7-38.7,39.4-58.6,58.5c-2.5,0-3-2.3-3.8-3.9c-10.3-21-23.6-40-37.9-58.4
		c-13.3-17.2-24.9-35.4-34-55.1c-4.9-10.7-8.6-21.9-9.5-33.7c-1.2-16.2,6.1-28.8,18.1-38.6c18.3-15,39.5-23.5,63-26.4
		c13.7-1.7,27.5-3,41.2,0.1c10.2,2.3,19.5,6.4,27.4,13.2c8.2,7.1,10.8,17,10.9,27.3c0.1,21.7-1.4,43.2-8.7,63.9
		c-1.2,3.3-1.1,6.3,0.8,9.3c1.1,1.8,1.9,3.8,2.9,5.7c5.8,11.7-2.4,26.2-14.2,27.8c-7.4,1-14.6,0.4-21.8-0.9c-6.3-1-12.5-2.4-18.6-4
		c-14.3-3.7-23,3.2-25.9,16.3c0.2,9,3.9,12,12.8,10.2c2.4-0.5,4.9-0.9,7-2.2c9.7-6.2,20.8-7.2,31.7-8.6c1.5-0.2,2.9-0.5,4.3-0.8
		C515.7,457.1,520.1,454.8,524.5,457.2z"/>
	<path class="st1" d="M454.3,458c3.5-14.1,10.8-18.7,21-18.4c5.3,0.1,10.6,2.3,16,3.2c10.1,1.8,19.9,4.2,30.5,2.8
		c10.4-1.4,19.3-15.1,13.4-25.2c-4.9-8.4-4.5-15.6-1.5-24.5c3.9-11.6,5.2-24.1,5.6-36.5c0.2-5.8,1.1-11.6,0.8-17.4
		c-0.4-9.6-1.7-18.8-8.7-26.3c-4.5-4.8-10.1-7.7-15.9-10.5c-10.4-5.1-21.6-6.3-32.8-6.2c-27,0.4-52.6,7-75.4,21.6
		c-12.6,8-22.2,19.3-25.1,34.7c-1.6,8.5,0.6,17,2.9,25.2c5.6,19.5,16,36.6,26.8,53.6c10,15.6,22.5,29.2,32.4,44.8
		c7.7,12,14.9,24.3,21.5,36.9c-2.4,2.6-4.8,5.2-7.4,7.9c-4-6.2-6.2-12.8-9.3-19.1c-7.1-14.5-17.1-27.1-26.9-39.7
		c-16.1-20.7-30.7-42.4-41.2-66.5c-4-9.1-5.8-18.9-7.2-28.9c-1.3-9.6-0.8-18.7,2.1-27.8c2-6.3,6.4-11,10.5-15.7
		c12.3-13.9,28.4-21.6,45.3-28.2c12-4.7,24.4-6.4,37.3-7.1c6.9-0.4,13.9-0.8,20.8-0.7c17.4,0.4,33.8,4.5,47.1,16.2
		c5.8,5.1,9.7,12.1,10.9,20.1c1,6.5,2.3,12.9,1.9,19.5c-1.1,19.2-2.8,38.4-9,56.8c-1.4,4.2-1.5,7.6,1.3,10.7c7.2,8,5.8,22.6-3,29.5
		c-5.3,4.2-9.8,9.4-14.7,14.2c-4.5,0.6-9.1,1.1-13.6,0.9c-4.2,0.4-8.3-0.2-12.4-1.2c-6.9-1.8-13.9-3.4-20.8-5.2
		c-6.7-1.7-12.4,0-17.8,3.9C458.2,456.8,456.7,458.4,454.3,458z"/>
	<path class="st2" d="M454.3,458c2.2-1.6,4.4-3.3,6.6-4.9c5.4-3.7,11.2-4.5,17.5-2.8c10.7,2.8,21.5,5.7,32.4,7.7
		c-5.2,2.3-10.9,1.8-16.3,2.7c-4.1,0.7-8.1,1.5-11.9,3.4c-4.8,2.4-9.5,4.9-15.1,5.8C458.5,471.4,453.9,467.7,454.3,458z"/>
</g>
</svg>
