<?xml version="1.0" encoding="utf-8"?>
<!-- Generator: Adobe Illustrator 23.0.1, SVG Export Plug-In . SVG Version: 6.00 Build 0)  -->
<svg version="1.1" id="Layer_4" xmlns="http://www.w3.org/2000/svg" xmlns:xlink="http://www.w3.org/1999/xlink" x="0px" y="0px"
	 viewBox="0 0 1000 1000" style="enable-background:new 0 0 1000 1000;" xml:space="preserve">
<style type="text/css">
	.st0{fill:#FB9A7A;}
	.st1{fill:#6E3720;}
	.st2{fill:#730000;}
</style>
<g>
	<path class="st0" d="M520.6,461.1c-18.2,18.2-36.4,36.4-54.6,54.6c-2.4-0.7-3.1-2.8-3.9-4.7c-11.2-27.5-29-51.1-44-76.4
		c-11.2-18.9-20.6-38.8-25.2-60.6c-3.7-17.4-1.3-33.3,12.3-46.2c2.9-2.7,6.2-4.8,9.5-6.8c18.1-11.2,37.4-18.6,58.8-20.5
		c16.9-1.5,33.5-0.3,49.4,5.6c8.3,3.1,16.6,6.5,22.6,13.8c6,7.2,7.3,15.6,7.4,24.2c0.1,17.4-3.4,34.3-8,50.9
		c-1.5,5.3-2.9,10.7-5.5,15.6c-1.7,3.3-1.2,6.1,0.9,9.1c3,4.3,4.4,9,3.3,14.3c-1,4.7-3.4,8.1-7.7,10.7c-9.3,5.6-19.1,6.8-29.5,4.1
		c-7.2-1.9-14.4-4-21.8-5.2c-13.2-2.1-18.3,0.5-24.2,12.4c-0.5,1-1,2-1.3,3.1c-0.8,6.8,3.3,11.4,10,10.9c4.2-0.3,8.3-1.2,12.3-2.7
		c10.6-4.2,21.4-7.3,32.9-7.9C516.4,459.7,518.8,459.1,520.6,461.1z"/>
	<path class="st1" d="M520.6,461.1c-2.3-0.1-4.6-0.2-7-0.3c-9,0.3-17.2-2.8-25.5-5.5c-9.5-3.1-18.7-4.5-27.1,2.9
		c-0.8,0.7-1.9,1.3-3.1,0.7c1.2-4.1,3.4-7.6,5.9-11c4.4-6.1,11-7.5,17.7-6.3c10.8,1.9,21.4,5.3,32.3,7c9.9,1.5,19.3-1.4,26.3-8.9
		c3.8-4.2,4.6-12-0.2-18.3c-3.3-4.2-3.3-7.8-1.1-12.5c6.2-13.5,8.8-28,11.1-42.5c1.2-7.8,2.3-15.6,2-23.6
		c-0.4-10.7-3.2-20.6-12.2-27.1c-6.6-4.8-14.3-7.8-22.2-10.2c-11-3.3-22.4-4.8-33.7-4.5c-17.3,0.6-34.2,4-50.2,11.4
		c-10.7,5-21.4,10.1-29.5,18.7c-8.8,9.4-12.2,20.7-10.6,34c3.5,30.8,18.4,56.7,34.3,82.2c10.3,16.6,21.8,32.5,29.9,50.4
		c2.7,6,5.7,11.9,8.5,17.8c-2.6,2.7-5.1,5.3-8,8.4c-4.5-8.2-6.8-16.8-10.9-24.5c-9-16.5-18.1-33-28.7-48.6
		c-11.1-16.4-20.7-33.8-27.5-52.4c-3.4-9.3-5.8-18.9-6.4-29.1c-0.6-9.6-0.7-18.8,2.1-27.9c4.5-14.9,15.4-24.5,28.4-31.9
		c15.5-8.8,32.3-14.5,49.8-17.3c9.7-1.6,19.7-1.8,29.8-0.6c10.6,1.2,21.2,2.2,31.2,6.2c11.1,4.4,22.3,8.5,29.3,19.3
		c3.2,4.9,4.7,10.3,5.5,15.9c2.5,20-1,39.4-6.3,58.5c-1,3.6-1.7,7.5-3.5,10.8c-4.9,8.7-2.5,16.8,1.2,24.9c2.3,4.9-0.3,9.5-0.4,14.2
		c-0.1,3.3-4.5,2.6-6.4,2.6c-6.2,0.1-10.5,2.7-14.5,7.1C527.5,454.7,523.9,457.8,520.6,461.1z"/>
	<path class="st2" d="M457.9,458.9c0.5-0.3,1.2-0.6,1.6-1c6.6-5.9,14.1-8.3,22.9-5.6c10.3,3.1,20.5,6.6,31.2,8.5
		c-11.2,0.8-21.9,4-32.4,8c-5.7,2.1-11.4,4.2-17.6,2C458.9,469,456.4,463.7,457.9,458.9z"/>
</g>
</svg>
