<?xml version="1.0" encoding="utf-8"?>
<!-- Generator: Adobe Illustrator 23.0.1, SVG Export Plug-In . SVG Version: 6.00 Build 0)  -->
<svg version="1.1" id="Layer_4" xmlns="http://www.w3.org/2000/svg" xmlns:xlink="http://www.w3.org/1999/xlink" x="0px" y="0px"
	 viewBox="0 0 1000 1000" style="enable-background:new 0 0 1000 1000;" xml:space="preserve">
<style type="text/css">
	.st0{fill:#FEFEFE;}
	.st1{fill:#00407F;}
</style>
<g>
	<path d="M512.8,397c-0.1,6.6-1.3,12.2-3.1,17.6c-1.6,4.8-5,5.6-8.6,2c-5.8-5.9-10.1-22.5-3.7-31.7c1.5-2.2,3.6-4.5,6.7-4
		c3.2,0.5,5.3,3.2,6.4,5.9C512,390.3,513.2,394,512.8,397z"/>
	<path d="M533.2,393.8c0.4,5.5-1.2,10.4-2.1,15.4c-0.3,2-1.5,4.6-4.1,4.8c-2.4,0.2-3.2-2.2-4.6-3.7c-1.3-1.5-1.2-3.4-1.3-4.9
		c-0.6-8-2.9-16.1-0.6-24.2c0.6-2,2.1-3.3,3.8-4c1.9-0.8,3.4,0.5,4.5,2C532.5,383.5,533.5,388.6,533.2,393.8z"/>
	<path class="st0" d="M509.8,393.9c-0.1,1.8,0.6,4.1-2.3,4.5c-2.8,0.3-8.5-6.2-8.5-9.7c0.1-2.5,1.4-3.9,3.9-3.9
		C506,384.7,509.7,389.8,509.8,393.9z"/>
	<path class="st1" d="M505.7,415.8c-2.9-0.1-8.2-6.5-7.6-9.2c0.3-1.6,1.1-2.7,3-1.7c3.6,1.7,5.8,4.5,6.5,8.4
		C508,414.7,507.1,415.7,505.7,415.8z"/>
	<path class="st0" d="M526,379.9c1.1-0.1,1.8,0.7,2.2,1.6c1.1,2.4,2.2,4.8,3,7.3c0.7,2-0.5,3.5-2.1,4.4c-1.9,1.1-2.6-0.9-3.3-1.8
		c-2.1-2.8-4.7-5.7-2.3-9.7C524,380.7,524.6,379.8,526,379.9z"/>
	<path class="st1" d="M524.4,400.5c3,1.4,3.9,4.3,4.7,6.9c0.5,1.7-1.3,3.6-2.6,3.3c-3.1-0.6-3.9-3.4-4-6.3
		C522.4,402.9,522.3,401.2,524.4,400.5z"/>
</g>
</svg>
