<?xml version="1.0" encoding="utf-8"?>
<!-- Generator: Adobe Illustrator 23.0.1, SVG Export Plug-In . SVG Version: 6.00 Build 0)  -->
<svg version="1.1" id="Layer_4" xmlns="http://www.w3.org/2000/svg" xmlns:xlink="http://www.w3.org/1999/xlink" x="0px" y="0px"
	 viewBox="0 0 1000 1000" style="enable-background:new 0 0 1000 1000;" xml:space="preserve">
<style type="text/css">
	.st0{fill:#FEFEFE;}
	.st1{fill:#00407F;}
</style>
<g>
	<path d="M508.7,395.4c0.3,5.9-1.3,10.9-2.2,16.1c-0.8,5-5,6-8.9,2.7c-4.8-4-5.8-9.6-6.3-15.2c-0.4-3.9-0.3-7.9,0.7-11.9
		c1.1-4.3,3.4-7.5,7.6-7.9c4.8-0.5,7,3.7,7.8,7.5C508.2,389.5,509.8,392.6,508.7,395.4z"/>
	<path d="M515.6,385.3c-0.2-3.8-0.1-7.3,3.2-10.1c1.7-1.5,2.8-1.4,4.5,0c4.9,3.7,5.1,9.4,5.8,14.5c0.8,5.9,0.4,12.1-2.4,17.7
		c-0.9,1.7-1.7,3.9-3.9,3.6c-2.1-0.3-3.6-2.1-4.2-4.1C516.8,399.8,516.1,392.6,515.6,385.3z"/>
	<path class="st0" d="M505.9,392c0.1,2.5-1.1,4.2-3.2,4.3c-2.6,0.2-7.7-6.5-7.6-9.4c0.1-2.5,1.3-4.1,3.7-4.1
		C502.1,382.8,506,388.2,505.9,392z"/>
	<path class="st1" d="M496.4,402.4c2.7,0,8.2,7.7,7.2,10c-0.4,0.9-1,1.5-2.2,1.4c-2.5-0.4-7.3-5.9-7.3-8.4
		C494.2,403.7,494.8,402.6,496.4,402.4z"/>
	<path class="st0" d="M526.3,386.8c0.2,1.5,0.1,2.9-1.2,3.6c-1.6,0.8-2.2-0.9-3.1-1.7c-1.7-1.3-3.1-3-3.4-5.1
		c-0.4-2.4-0.7-5.4,2.2-6.3c2.9-0.9,2.6,2.4,3.6,3.9C525.6,383,526.8,384.7,526.3,386.8z"/>
	<path class="st1" d="M518.5,402c0.1-2-0.1-4.5,1.9-4.1c3.4,0.7,4,4.3,4.8,7.2c0.5,1.5-0.5,3.3-2.2,3
		C519.6,407.5,519,404.5,518.5,402z"/>
</g>
</svg>
