<?xml version="1.0" encoding="utf-8"?>
<!-- Generator: Adobe Illustrator 23.0.1, SVG Export Plug-In . SVG Version: 6.00 Build 0)  -->
<svg version="1.1" id="Layer_4" xmlns="http://www.w3.org/2000/svg" xmlns:xlink="http://www.w3.org/1999/xlink" x="0px" y="0px"
	 viewBox="0 0 1000 1000" style="enable-background:new 0 0 1000 1000;" xml:space="preserve">
<style type="text/css">
	.st0{fill:#FB9A7A;}
	.st1{fill:#6E3720;}
</style>
<g>
	<path class="st0" d="M459.9,503.9c11.4-11.5,22.7-23,34.1-34.5c1.5-1.5,2.8-3.1,4.2-4.6c14-14.8,31.6-23.3,51.5-25.1
		c12.9-1.1,25,3.6,33,15.3c7.6,11.1,12.3,23.2,14.3,36.4c1.3,8.4,2.2,16.8,3.8,25.1c1.3,6.6,1,13.2,0.1,19.9
		c-0.8,5.5-2.8,10.1-8.1,12.5c-5.4,2.4-10-0.2-14-3.3c-4.2-3.3-7.8-7.3-12-10.8c-2.3-1.9-4.5-3.7-6.7-5.7
		c-8.2-7.3-14.1-7.8-23.9-2.1c4.5-0.2,8.7,0.8,12.7,2.6c2.4,1.1,3.1,2.9,1,4.9c-14.4,13.6-30.5,21.7-50.9,15.5
		c-11.1-3.4-19.8-10.5-26.4-19.9c-4.9-6.9-8.8-14.4-12.4-22.1C459.6,506.7,458.9,505.4,459.9,503.9z"/>
	<path class="st1" d="M459.9,503.9c4.6,11.2,10,22.1,18.1,31c9.6,10.5,21.5,16.7,36.3,15.9c10.9-0.6,20.1-4.7,28.2-11.8
		c2.6-2.3,5.4-4.4,8.5-6.9c-5.8-3.5-11.9-4-18.3-3.9c8.4-8,19.3-8.5,27.4-0.9c6.4,6,13.2,11.4,19.5,17.4c3.5,3.3,8.2,5.6,13.2,3
		c4.6-2.4,6.3-6.9,6.8-12c2-20-2.9-39.2-7.4-58.3c-2.6-11.3-8.8-21.9-18.2-29.6c-4.9-4-11.2-5.5-17.4-6.3
		c-16.3-2.3-29.8,5.1-43.3,12.4c-5.6,3-9.7,7.9-15.2,10.9c-0.7-1.9,1-2.7,1.9-3.6c8-9.1,15-19.4,26.7-24.4c7.2-3.1,14.9-4,22.6-5.3
		c9.1-1.5,17.7,0.2,25.8,4.1c9,4.4,15.5,11.8,20.6,20.3c7,11.9,10.4,25,11.8,38.7c1.4,12.8,3.3,25.5,2.8,38.4
		c-0.2,5.1,0.3,10.7-2.8,15.2c-7.5,10.8-20.6,14.4-32.9,4.2c-4.1-3.4-8.2-6.7-12.1-10.2c-3.1-2.7-5.3-0.7-7.6,1
		c-8.8,6.8-18.1,12.6-29.1,15.4c-17.7,4.4-33.6,1.1-48.3-9.5c-9.1-6.5-15.5-15-19.4-25.5c-0.5-1.3-1.2-2.6-1.9-3.8
		C451.6,510.8,451.6,510.8,459.9,503.9z"/>
</g>
</svg>
