<?xml version="1.0" encoding="utf-8"?>
<!-- Generator: Adobe Illustrator 23.0.1, SVG Export Plug-In . SVG Version: 6.00 Build 0)  -->
<svg version="1.1" id="Layer_4" xmlns="http://www.w3.org/2000/svg" xmlns:xlink="http://www.w3.org/1999/xlink" x="0px" y="0px"
	 viewBox="0 0 1000 1000" style="enable-background:new 0 0 1000 1000;" xml:space="preserve">
<style type="text/css">
	.st0{fill:#FB9A7A;}
	.st1{fill:#6E3720;}
</style>
<g>
	<path class="st0" d="M459.9,503.9c11.6-11.7,23.1-23.4,34.7-35.1c1.6-1.6,3.1-3.3,4.6-5c13.9-13.8,30.9-21.7,50-24.2
		c10-1.3,29,5.1,35.3,19.1c5.9,13.2,9.4,26.5,9.6,40.9c0.1,8.4,1.1,16.9,0.9,25.3c-0.1,5.1-0.7,10.1-2,15
		c-2.9,11.5-11.3,14.3-20.4,6.6c-5.4-4.6-10.5-9.8-15.1-15.3c-1.3-1.5-2.5-3-3.9-4.4c-7.6-7.7-13.3-8.7-23.7-3.8
		c6.5,0.9,12.3,2.8,17.3,6.7c3.3,2.5,3.4,3.8,0.3,6.5c-23.5,21.2-53.7,19.6-73.8-4.9c-6-7.3-9.4-15.9-13.7-24.1
		C459.7,506.2,459.5,505.1,459.9,503.9z"/>
	<path class="st1" d="M459.9,503.9c4.1,7.3,6.9,15.3,11.7,22.1c7.4,10.5,16.5,18.9,29.3,22.2c16,4.1,30.1,0,42.6-10.3
		c2-1.6,4.6-2.5,5.8-5.1c-6.4-5.5-13.8-8.6-22.8-8.5c9.3-7.9,20-7.3,26.6,0.1c6.1,6.8,12.4,13.3,18.8,19.7c1.4,1.4,2.9,2.6,4.6,3.5
		c7.4,3.8,13.1,1.6,15-6.5c2.7-11.5,3-23.3,1.4-35.1c-0.8-6.5-0.1-13.2-1.1-19.8c-2-13.2-5.9-25.6-15-35.8c-5.2-5.8-12.6-7.8-19.8-9
		c-15.5-2.6-28.7,4.3-41.7,11.5c-5.7,3.1-10.9,7.2-16.3,10.8c4-7.8,9.9-14.1,16.4-19.7c11.1-9.7,24.8-13.6,39.2-13.2
		c11.7,0.3,23,2.8,31.5,12.3c8.6,9.6,13.2,20.8,15.5,33.5c3,16.5,3.1,33,2.6,49.6c-0.2,7.7-1,15.4-4.6,22.6
		c-5.6,11.1-20.3,13.6-30.3,6.4c-4.2-3-7.8-6.8-11.4-10.5c-1.6-1.6-2.5-2.1-4.6-0.4c-7.7,6.4-16.5,10.8-26.4,13.2
		c-18.1,4.3-34.5,1.6-49.7-9.5c-10.5-7.6-16.7-18.1-22.3-29.4c-3-6-2.1-10.2,3.3-13.8C458.9,504.7,459.4,504.3,459.9,503.9z"/>
</g>
</svg>
