<?xml version="1.0" encoding="utf-8"?>
<!-- Generator: Adobe Illustrator 23.0.1, SVG Export Plug-In . SVG Version: 6.00 Build 0)  -->
<svg version="1.1" id="Layer_4" xmlns="http://www.w3.org/2000/svg" xmlns:xlink="http://www.w3.org/1999/xlink" x="0px" y="0px"
	 viewBox="0 0 1000 1000" style="enable-background:new 0 0 1000 1000;" xml:space="preserve">
<style type="text/css">
	.st0{fill:#FB9A7A;}
	.st1{fill:#6E3720;}
</style>
<g>
	<path class="st0" d="M459.9,503.9c11.4-11.5,22.7-23,34.1-34.5c1.5-1.5,2.8-3.1,4.2-4.6c7.8-9.4,18.4-14.8,29.3-19.6
		c5.3-2.4,11-3.9,16.8-5c18.7-3.5,35.5,6.9,40.4,23.2c2.5,8.2,3.7,16.4,4.6,24.8c1.7,14.6,0.8,29.2-1.1,43.7
		c-0.6,4.7-1.7,9.3-3.9,13.5c-3.4,6.4-9.9,8.1-16.1,4.3c-6.1-3.8-9.9-9.8-14.1-15.3c-1.9-2.5-3.7-5-5.7-7.3
		c-6.1-6.8-13.2-9.2-22.2-5c7.5,1.5,13.8,4.7,18.6,10.6c2.1,2.5,2.2,4.6-0.7,6.5c-14.8,9.7-30.7,14.9-48,7.7
		c-12.4-5.1-22.7-13.2-28.9-25.7c-2-4.1-4.1-8.1-6.1-12.2C460.3,507.4,459.3,505.8,459.9,503.9z"/>
	<path class="st1" d="M459.9,503.9c5,8.8,7.7,19.1,14.9,26.3c11.7,11.7,24.5,20.9,42.9,17.9c9.3-1.5,17.4-5,25.3-9.7
		c2.5-1.5,3.2-2.5,0.8-5.2c-4.9-5.4-10.8-8.5-17.8-9.9c-1.1-0.2-2.1-0.8-3.2-1.2c13.8-6.9,20.4-3.7,29.9,8.1
		c4.7,5.8,8.6,12.2,14.5,17.2c6.7,5.9,15.1,3.4,17.7-6.5c1.9-7.1,3-14.4,3.3-21.9c0.2-6,1.2-12,0.7-17.9
		c-1.1-13.7-0.9-27.6-6.6-40.6c-4.8-10.9-12.7-17.4-24.5-19.2c-16.7-2.5-30.5,4.7-44.3,12.4c-5.5,3.1-9.7,7.9-15.2,10.9
		c0-4.1,3.8-5.7,5.7-8.5c10-14.3,23.7-22.2,41-24.8c11.4-1.7,22.5-0.6,32.3,5c10.9,6.2,16.1,17.2,19.4,28.9
		c3.5,12.1,5,24.6,3.7,37.1c-1.4,14.4-0.9,29.1-5.7,43c-3.6,10.5-10.9,16.3-21.2,15.9c-7.5-0.3-13.1-4.7-17.6-10.3
		c-4.2-5.1-3.7-5-9.1-1.9c-7.8,4.6-16.2,7.5-25.4,8.5c-10,1.1-19.8,1.5-29.3-2.1c-14-5.3-24.9-14.4-32.1-27.6
		c-2.2-4.2-4.2-8.5-6.2-12.8c-1.5-3.3-1-5.1,1.5-7.1C456.9,506.8,458.3,505.3,459.9,503.9z"/>
</g>
</svg>
