<?xml version="1.0" encoding="utf-8"?>
<!-- Generator: Adobe Illustrator 23.0.1, SVG Export Plug-In . SVG Version: 6.00 Build 0)  -->
<svg version="1.1" id="Layer_4" xmlns="http://www.w3.org/2000/svg" xmlns:xlink="http://www.w3.org/1999/xlink" x="0px" y="0px"
	 viewBox="0 0 1000 1000" style="enable-background:new 0 0 1000 1000;" xml:space="preserve">
<style type="text/css">
	.st0{fill:#6E3720;}
	.st1{fill:#FB9A7A;}
</style>
<g>
	<path class="st0" d="M492.1,556c-13.8,2.1-33.1,2.3-52.3,1.5c-14.9-0.7-29.8-1.5-44.6-3.5c-9.3-1.3-18.8-2-28.1-3.1
		c-7.4-0.9-14.8-2.1-21.9-4.2c-6.1-1.8-7.9-8.5-4.4-15.9c3.8-8,9.7-14.3,16.2-20.4c14.5-13.4,31.5-23.1,48.3-33
		c18.2-10.8,37.7-19.3,58.1-25.3c12.1-3.5,24.4-6.8,36.9-6.6c17.4,0.3,32.3,6.8,43.4,21.2c7.7,10,11.9,21.2,11.8,33.4
		c-0.2,17.5-6.9,32.2-21.2,43.4C523.3,552.2,511,555.4,492.1,556z"/>
	<path class="st1" d="M472,547.3c-9.2,0.5-18.5,0.9-27.7,0.6c-18.8-0.7-37.7-1.3-56.4-3.7c-11.3-1.4-22.6-3-33.9-4.1
		c-6.3-0.6-8.1-3.6-4.5-9c4.4-6.5,9.8-12.2,16-17.3c17.6-14.5,36.8-26.4,57.3-36.1c19.7-9.4,40.1-16.9,61.5-21.5
		c15.3-3.4,29.5-1.6,42.7,7.5c10.4,7.1,15.6,16.6,17.2,29c1.2,9,1.1,17.7-2.7,25.9c-6.4,13.9-17.4,22.7-32.4,25.2
		C496.8,545.8,484.3,546.2,472,547.3z"/>
</g>
</svg>
