<?xml version="1.0" encoding="utf-8"?>
<!-- Generator: Adobe Illustrator 23.0.1, SVG Export Plug-In . SVG Version: 6.00 Build 0)  -->
<svg version="1.1" id="Layer_4" xmlns="http://www.w3.org/2000/svg" xmlns:xlink="http://www.w3.org/1999/xlink" x="0px" y="0px"
	 viewBox="0 0 1000 1000" style="enable-background:new 0 0 1000 1000;" xml:space="preserve">
<style type="text/css">
	.st0{fill:#6E3720;}
	.st1{fill:#FB9A7A;}
</style>
<g>
	<path class="st0" d="M455.1,557.5c-11.5,1.1-23-0.4-34.4-1.1c-16.1-0.9-32.2-2.6-48.2-4.5c-9-1-18-2.3-26.8-4.2
		c-8.1-1.7-13.3-5.4-9.1-15.6c3.5-8.4,9.7-14.7,16.4-20.8c10.9-9.9,23.5-17.3,36-24.9c19.5-11.8,40-21.6,61.4-29.5
		c16.3-6,33.2-10.5,50.5-10.5c15.3,0,29.7,4.6,40.9,16.4c10.5,11,16.1,23.9,16,39.1c-0.2,14.3-5.3,26.9-15.2,36.9
		c-9,9.1-20.3,14.4-33.3,15.8c-9.9,1.1-19.9,1.1-29.8,2.1C471.2,557.7,463.2,557.2,455.1,557.5z"/>
	<path class="st1" d="M471.6,546.9c-10.2,0.9-20.4,1.4-30.6,0.9c-18.3-0.9-36.7-1.2-55-3.7c-11.3-1.5-22.6-2.4-33.9-4.1
		c-2.9-0.4-6.2-0.6-7.2-3.9c-0.9-3,1.5-5,3.4-7.1c14.2-15.7,31.6-26.9,49.5-37.7c20.7-12.5,42.9-21.6,65.9-28.9
		c9.7-3.1,19.8-3.8,29.7-5.4c14.1-2.4,26.6,1.8,38,9.9c8.7,6.2,13,15.1,14.6,25.6c1.5,9.5,1.7,18.9-3.3,27.2
		c-8,13.3-19.1,22.6-35.6,24.4C495.3,545.4,483.4,546,471.6,546.9z"/>
</g>
</svg>
