<?xml version="1.0" encoding="utf-8"?>
<!-- Generator: Adobe Illustrator 23.0.1, SVG Export Plug-In . SVG Version: 6.00 Build 0)  -->
<svg version="1.1" id="Layer_4" xmlns="http://www.w3.org/2000/svg" xmlns:xlink="http://www.w3.org/1999/xlink" x="0px" y="0px"
	 viewBox="0 0 1000 1000" style="enable-background:new 0 0 1000 1000;" xml:space="preserve">
<style type="text/css">
	.st0{fill:#6E3720;}
	.st1{fill:#FB9A7A;}
</style>
<g>
	<path class="st0" d="M454.4,557.5c-12.3,1.1-24.6-0.6-36.9-1.1c-14.5-0.5-29.1-2.1-43.5-3.8c-10.6-1.3-21.2-2.1-31.6-4.7
		c-16.1-4.1-13.9-10.9-7.3-21.1c7.8-12.1,19.5-20,31.4-27.4c14.1-8.8,28.5-17.1,43.5-24.2c21-9.9,42.4-19,65.3-23.7
		c9.5-1.9,19.2-3.5,29-3.3c26.3,0.6,51.4,20.7,55.2,46.5c2.3,15.8-1.1,29.5-12.7,41.1c-9,9-19.3,15.5-31.8,18.1
		c-3.3,0.7-6.6,1.8-9.8,1.7c-8.4-0.3-16.8,0.8-25.2,1.3C471.5,557.5,463,557.3,454.4,557.5z"/>
	<path class="st1" d="M444.6,547.9c-11.5,0.7-23-0.7-34.5-1.3c-20-1.1-40.1-2.5-59.9-5.7c-3.7-0.6-8.6-0.8-10-4.7
		c-1.2-3.5,2.8-6.2,5-8.8c7.2-8.4,16.5-14.4,25.5-20.5c23-15.6,48.1-26.9,74.2-36.1c11-3.9,21.9-8.3,33.5-10.2
		c11.3-1.9,22.6-5.5,34.1-1.6c14.9,5,28.4,12.2,33.7,28.3c3.9,11.7,4.1,23.7-2.2,35c-5.1,9.2-13.7,14.3-22.7,18.7
		c-7.2,3.5-15.1,3.5-23,4.2C480.4,546.8,462.5,547.2,444.6,547.9z"/>
</g>
</svg>
