<?xml version="1.0" encoding="utf-8"?>
<!-- Generator: Adobe Illustrator 23.0.1, SVG Export Plug-In . SVG Version: 6.00 Build 0)  -->
<svg version="1.1" id="Layer_4" xmlns="http://www.w3.org/2000/svg" xmlns:xlink="http://www.w3.org/1999/xlink" x="0px" y="0px"
	 viewBox="0 0 1000 1000" style="enable-background:new 0 0 1000 1000;" xml:space="preserve">
<style type="text/css">
	.st0{fill:#6E3720;}
	.st1{fill:#FB9A7A;}
</style>
<g>
	<path class="st0" d="M452.8,557.5c-11.8,1.2-24.5-0.3-37-1.1c-16.4-1-32.9-2.1-49.2-4.5c-8.1-1.2-16.3-1.4-24.4-2.1
		c-4-0.3-7.8-1.4-11.4-2.8c-7.4-2.8-7.6-6.5-4.5-13.6c4.9-11.2,14-18.6,23.7-25.2c25.5-17.3,53-30.7,81.8-41.5
		c15.9-6,32.1-10.5,48.8-13.3c8.5-1.4,17.1-2.8,25.9-2.2c16,1.1,30.3,6.7,42.1,17.7c11.7,10.8,16.4,24.4,15,40.1
		c-1.6,17.7-12.3,29.1-26.8,37.7c-11.5,6.8-24.3,8.7-37.5,9.1C483.9,556.2,468.8,558.3,452.8,557.5z"/>
	<path class="st1" d="M472.4,547.3c-11.7,0.9-23.3,0.8-35,0.5c-15.2-0.4-30.4-0.8-45.5-2c-17.7-1.4-35.4-3.8-53.1-5.8
		c-4.6-0.5-5.5-2.2-3-6.3c4.6-7.5,11.4-13.1,18.5-18c29-20,60.5-34.5,94.4-44.5c16.3-4.8,32.9-8,49.6-11.1
		c6.6-1.2,13.2,0.9,19.4,2.9c11,3.7,22.1,8.1,28.2,18.9c6.7,11.9,9.2,25.1,2.7,37.3c-7.6,14.4-19.8,23.7-37.1,24.7
		C498.4,544.8,485.4,546.2,472.4,547.3z"/>
</g>
</svg>
