<?xml version="1.0" encoding="utf-8"?>
<!-- Generator: Adobe Illustrator 23.0.1, SVG Export Plug-In . SVG Version: 6.00 Build 0)  -->
<svg version="1.1" id="Layer_4" xmlns="http://www.w3.org/2000/svg" xmlns:xlink="http://www.w3.org/1999/xlink" x="0px" y="0px"
	 viewBox="0 0 1000 1000" style="enable-background:new 0 0 1000 1000;" xml:space="preserve">
<style type="text/css">
	.st0{fill:#6E3720;}
	.st1{fill:#FB9A7A;}
</style>
<g>
	<path class="st0" d="M500.1,555.4c-21.1,2.5-42.8,2.9-64.5,2.1c-17.5-0.7-35-1.4-52.4-3.5c-8.2-1-16.6-1.2-24.9-2.3
		c-10.6-1.3-21.5-0.4-31.7-4.2c-9.6-3.6-10.5-9.4-4.3-17.9c7.4-10.1,17.4-16.9,27.6-23.4c22.9-14.6,47.9-25,73-35
		c19.1-7.6,39.3-12,59.4-15.9c15.8-3.1,31.7-3,47.1,2.7c17.9,6.7,31.4,17.6,36.5,37c3.8,14.6-2.2,33.5-15,43.9
		c-10.4,8.5-21.9,13.2-34.6,15.5C511.3,555.3,505.9,556.6,500.1,555.4z"/>
	<path class="st1" d="M473.5,547.1c-12.9,1.1-25.9,0.9-38.9,0.7c-17.6-0.4-35.3-0.8-52.9-2c-15.2-1.1-30.4-2.3-45.5-4.8
		c-2.7-0.4-5.9-0.7-6.8-3.6c-0.9-2.8,1.6-4.7,3.5-6.4c10.7-9.9,22.3-18.4,35.1-25.3c25.3-13.7,51.9-24.5,79.5-32.8
		c15.9-4.8,32.2-8.1,48.8-10c18.8-2.1,35.2,3.8,48.5,16.4c14.3,13.6,14.3,32.5,1.6,48.1c-10.1,12.5-24,16.3-39.1,17.5
		C496,545.8,484.7,546.4,473.5,547.1z"/>
</g>
</svg>
