<?xml version="1.0" encoding="utf-8"?>
<!-- Generator: Adobe Illustrator 23.0.1, SVG Export Plug-In . SVG Version: 6.00 Build 0)  -->
<svg version="1.1" id="Layer_4" xmlns="http://www.w3.org/2000/svg" xmlns:xlink="http://www.w3.org/1999/xlink" x="0px" y="0px"
	 viewBox="0 0 1000 1000" style="enable-background:new 0 0 1000 1000;" xml:space="preserve">
<style type="text/css">
	.st0{fill:#6E3720;}
	.st1{fill:#FB9A7A;}
</style>
<g>
	<path class="st0" d="M502.3,555.5c-22.4,2.2-44.9,2.6-67.4,2c-17.4-0.5-34.7-1.5-52.1-2.9c-14.2-1.2-28.3-3-42.6-3.8
		c-5.6-0.3-11.1-1-16.6-2c-4.7-0.8-9.1-3.1-10.6-7.9c-1.6-5.1,1.9-9.1,5-12.6c7.5-8.5,16.8-14.9,26.5-20.3
		c26.6-14.6,54.1-27.3,83.1-36.8c16.9-5.5,34.1-9.5,51.4-12.8c21.9-4.2,43.8-3.6,64,6.7c17.3,8.8,27.6,23.3,27.3,43.7
		c-0.2,9.9-4.4,18-10.9,25.1c-12.1,13.3-27.2,19.9-45.1,21C510.3,555.1,506.3,555.6,502.3,555.5z"/>
	<path class="st1" d="M471.2,548.1c-12.9,1.1-25.9,0.8-38.9,0.7c-14.5-0.2-29-1.6-43.6-2.1c-14.3-0.5-28.5-2.4-42.7-3.7
		c-5.7-0.5-11.5-1.4-17.2-1.9c-2.2-0.2-4.5-0.6-5.3-2.7c-1-2.6,0.5-4.8,2.5-6.4c5.1-4.2,9.9-8.9,15.5-12.2
		c22.4-13.2,45.4-25.2,70-34.1c22.1-8,44.7-14.4,67.9-18.7c8.2-1.5,16.6-3.1,24.8-2.9c14.7,0.3,28.1,5.6,40.4,13.7
		c8,5.3,11.5,13,13.1,22c3,17.6-5.8,29-19.9,37.5c-10.2,6.1-21.5,8-33.1,8.7C493.4,546.6,482.3,547.4,471.2,548.1z"/>
</g>
</svg>
