<?xml version="1.0" encoding="utf-8"?>
<!-- Generator: Adobe Illustrator 23.0.1, SVG Export Plug-In . SVG Version: 6.00 Build 0)  -->
<svg version="1.1" id="Layer_4" xmlns="http://www.w3.org/2000/svg" xmlns:xlink="http://www.w3.org/1999/xlink" x="0px" y="0px"
	 viewBox="0 0 1000 1000" style="enable-background:new 0 0 1000 1000;" xml:space="preserve">
<style type="text/css">
	.st0{fill:#6E3720;}
	.st1{fill:#FB9A7A;}
</style>
<g>
	<path class="st0" d="M502.2,555.5c-23.4,2.3-46.9,2.6-70.4,2c-17-0.4-34.1-1.4-51.1-3c-12.8-1.1-25.6-1.8-38.4-2.9
		c-9.2-0.8-18.4-1.6-27.3-4c-8.7-2.4-9.4-9.8-3.8-16.3c8.1-9.4,18.2-16.5,29.2-22.3c32.4-16.9,66.4-30.3,101.4-40.7
		c11.9-3.6,24.3-5.9,36.8-7.4c9.2-1.2,18.4-3,27.7-2.7c18.7,0.5,36.7,4.6,51.4,17c18.9,16.1,21.8,40.4,4.8,58.5
		c-12.7,13.5-29,20-47.6,21.1C510.5,555.1,506.4,555.7,502.2,555.5z"/>
	<path class="st1" d="M471,548.1c-13.3,1.1-26.6,0.9-39.9,0.6c-15.7-0.4-31.4-0.8-47-2c-15.9-1.3-31.7-2.7-47.6-3.9
		c-4.4-0.3-9-0.2-13.3-1.8c-5.2-2-5.8-4.3-1.9-8.2c6.7-6.8,14.8-11.9,23.2-16.3c32.2-16.8,65.5-31,100.7-40.2
		c14.9-3.9,30-6.2,45.2-8.7c15.6-2.6,30.2-0.7,44.6,5.2c15.7,6.4,25.7,19.2,25.5,35.5c-0.1,12.2-6.9,20.5-16.7,27
		c-12,8-25.6,9.7-39.4,10.6C493.2,546.6,482.1,547.4,471,548.1z"/>
</g>
</svg>
