<?xml version="1.0" encoding="utf-8"?>
<!-- Generator: Adobe Illustrator 23.0.1, SVG Export Plug-In . SVG Version: 6.00 Build 0)  -->
<svg version="1.1" id="Layer_4" xmlns="http://www.w3.org/2000/svg" xmlns:xlink="http://www.w3.org/1999/xlink" x="0px" y="0px"
	 viewBox="0 0 1000 1000" style="enable-background:new 0 0 1000 1000;" xml:space="preserve">
<style type="text/css">
	.st0{fill:#6E3720;}
	.st1{fill:#FB9A7A;}
</style>
<g>
	<path class="st0" d="M490.6,556.4c-17.4,1.8-35.6,1.4-53.7,1.1c-15.3-0.2-30.6-1.1-45.9-1.9c-13.5-0.8-27-1.4-40.3-3
		c-12.6-1.5-25.5-1.8-37.9-4.7c-7.5-1.8-10.1-7.9-5.7-14.4c4.5-6.8,11-11.5,17.7-15.9c21.2-14.2,45.1-22.7,68.4-32.3
		c22-9.1,44.7-15.5,68-20.1c10.6-2.1,21.4-3.2,32.2-4.4c9.6-1,19.1-0.8,28.4,0.5c13.9,2,26.7,6.7,38.1,15.7
		C570,485,575,495.3,575.1,508c0.1,11.8-5.5,21.3-14.1,29.2c-8.3,7.5-18,12.3-28.7,14.9c-8.2,2-16.4,3.8-25,3.7
		C501.9,555.7,496.6,557.2,490.6,556.4z"/>
	<path class="st1" d="M492.3,547.2c-21.9,0.7-43.7,2.1-65.6,1.5c-15.5-0.4-31-1.1-46.5-2c-13.2-0.7-26.4-1.6-39.5-3
		c-6.8-0.7-13.8-0.8-20.5-2.6c-2-0.5-4.1-0.9-4.6-2.9c-0.6-2.2,0.8-4.2,2.6-5.4c7.6-5.1,15-10.4,22.9-15
		c24.3-14,50.3-24.1,76.8-32.9c19.6-6.5,39.7-10.9,60.1-14.5c10.3-1.8,20.7-3.3,31.2-2.7c17,0.9,32.7,5.9,44.8,18.4
		c11.8,12.2,11,28,0,41.3c-10,12-23.9,15.5-38.5,17.3C507.7,545.8,500,546.5,492.3,547.2z"/>
</g>
</svg>
