<?xml version="1.0" encoding="utf-8"?>
<!-- Generator: Adobe Illustrator 23.0.1, SVG Export Plug-In . SVG Version: 6.00 Build 0)  -->
<svg version="1.1" id="Layer_4" xmlns="http://www.w3.org/2000/svg" xmlns:xlink="http://www.w3.org/1999/xlink" x="0px" y="0px"
	 viewBox="0 0 1000 1000" style="enable-background:new 0 0 1000 1000;" xml:space="preserve">
<style type="text/css">
	.st0{fill:#7F7F7F;}
	.st1{fill:#808080;}
</style>
<g>
	<path d="M495.1,322.5c-0.4,13.8-7.7,23.3-19.1,30.2c-4.3,2.6-9,2.9-13,0.2c-4.2-2.9-6.4-7.8-5.8-12.9c1.1-8.7,2.8-17.3,7.6-25
		c1.6-2.7,3.1-5.5,5.8-7.4c4.5-3.3,9-5.2,14.7-2.1C492,309.3,495.5,314.6,495.1,322.5z"/>
	<path d="M513.2,294.8c14.4,1.7,23.1,7.4,25.8,20.9c1,5.1-0.7,10.1-4.1,14.2c-2.5,3-5.3,3.9-9.2,1.9c-7.9-4-15.1-9-22.1-14.4
		c-3.2-2.5-4.7-6-6.1-9.5c-1.2-2.9,0.3-5.7,2.8-7.6C504.1,297.2,508.6,295,513.2,294.8z"/>
	<path class="st0" d="M493.2,323.5c-0.3,2.8-1.1,5.6-4.1,6.4c-3.1,0.9-4.7-1.6-5.2-3.9c-1.3-5.6-4.3-10.2-7.4-14.9
		c-0.6-0.9-2.6-1.7-1.4-3.1c1-1.1,2.7-1.8,4.5-1.3c5.1,1.4,9,4.2,11.3,9C492,318.2,493.3,320.6,493.2,323.5z"/>
	<path class="st1" d="M513.9,297.9c8-0.2,17.5,6,19.9,12.8c0.6,1.7,1.1,3.7-0.5,5c-1.8,1.5-3.2-0.4-4.5-1.3
		c-5.4-4.2-10.8-8.5-17.2-11.3c-1.3-0.6-3.6-0.7-3.5-2.6c0.2-2,2.7-1.3,4-2.2C512.7,297.8,513.6,297.9,513.9,297.9z"/>
</g>
</svg>
