<?xml version="1.0" encoding="utf-8"?>
<!-- Generator: Adobe Illustrator 23.0.1, SVG Export Plug-In . SVG Version: 6.00 Build 0)  -->
<svg version="1.1" id="Layer_4" xmlns="http://www.w3.org/2000/svg" xmlns:xlink="http://www.w3.org/1999/xlink" x="0px" y="0px"
	 viewBox="0 0 1000 1000" style="enable-background:new 0 0 1000 1000;" xml:space="preserve">
<style type="text/css">
	.st0{fill:#7F7F7F;}
</style>
<g>
	<path d="M433.5,344.9c0.4-7.9,1.2-15.5,6.6-22.2c6.6-8.3,17.5-8.3,23.4,0.8c9.7,15,1.8,39.2-15.8,44.7c-4.7,1.5-7.9,0.4-10.3-4
		C434.2,358.3,433.3,351.7,433.5,344.9z"/>
	<path d="M508.9,324.3c0.7,9.4-5.8,12-13.2,9.9c-9.8-2.7-19.1-6.3-26.7-13.3c-4.6-4.2-4.4-7.7,0.1-12.2c10.3-10.3,20.4-9.7,30.9-3.8
		C507.1,308.8,508.3,316.8,508.9,324.3z"/>
	<path class="st0" d="M444.4,322.7c5.6-3.7,10.5-3,15.7,2.1c2.4,2.4,4,5.4,5.4,8.4c1.2,2.8-0.4,5.1-2.4,6.8
		c-2.5,2.1-4.1-0.3-5.1-1.8C454.5,332.3,449.3,327.9,444.4,322.7z"/>
	<path class="st0" d="M475.9,308c6.3-6.5,24.6-3.5,27.4,6.2c0.3,1.1,0.9,2.1,0.1,3.1c-0.8,1-1.8,1.3-3,0.7
		c-7.2-3.4-14.5-6.5-22.3-8.3C477.1,309.5,476.3,309.1,475.9,308z"/>
</g>
</svg>
