<?xml version="1.0" encoding="utf-8"?>
<!-- Generator: Adobe Illustrator 23.0.1, SVG Export Plug-In . SVG Version: 6.00 Build 0)  -->
<svg version="1.1" id="Layer_4" xmlns="http://www.w3.org/2000/svg" xmlns:xlink="http://www.w3.org/1999/xlink" x="0px" y="0px"
	 viewBox="0 0 1000 1000" style="enable-background:new 0 0 1000 1000;" xml:space="preserve">
<style type="text/css">
	.st0{fill:#7F7F7F;}
</style>
<g>
	<path d="M411.1,357.5c-0.3-5.1,1.1-10.2,3.7-15c3.1-5.8,6.9-7,13.3-5.9c13.5,2.3,15.4,10.9,16.1,20.9c0.6,7.9-1,15.3-5.7,22
		c-2.9,4.2-6.8,6.9-11.3,7.9c-5.1,1.1-8-3.1-10.3-7C412.8,373.2,411.1,366.4,411.1,357.5z"/>
	<path d="M470.2,342.8c-9-1.6-19.8-1.3-28.9-7.8c-4-2.8-4.5-5.2-2.4-9.7c6-13,23.8-16.5,33.8-8.8c6.5,5,8.4,12.4,8.6,20.1
		C481.4,340.8,477.5,342.8,470.2,342.8z"/>
	<path class="st0" d="M417.8,342.7c3.7-4.8,7.8-4.4,12.3-2.9c6,2.1,10.5,7.9,10.3,13c-0.1,3.5-1.9,4.1-4.8,3.2
		c-0.9-0.3-2-0.8-2.4-1.5C429.7,348.7,424.2,345.4,417.8,342.7z"/>
	<path class="st0" d="M445.4,322.3c7.5-9.1,22-9,27.5-0.5c0.6,1,2.4,1.6,1.2,3.2c-1,1.4-2.6,1.4-4,0.8
		C462.4,322.6,454.3,321.9,445.4,322.3z"/>
</g>
</svg>
