<?xml version="1.0" encoding="utf-8"?>
<!-- Generator: Adobe Illustrator 23.0.1, SVG Export Plug-In . SVG Version: 6.00 Build 0)  -->
<svg version="1.1" id="Layer_4" xmlns="http://www.w3.org/2000/svg" xmlns:xlink="http://www.w3.org/1999/xlink" x="0px" y="0px"
	 viewBox="0 0 1000 1000" style="enable-background:new 0 0 1000 1000;" xml:space="preserve">
<style type="text/css">
	.st0{fill:#FEFEFE;}
	.st1{fill:#C0FEFE;}
</style>
<g>
	<path class="st0" d="M497.3,363.4c-1.7-5.2-4.5-8.8-5.5-13.5c-1.6-7.3,1.1-11.8,8.4-13c13.1-2.3,22.6,3.1,31,12.9
		c11.8,13.6,18.8,29.5,24.5,46.2c2.2,6.5,4,13.3,5.7,19.9c0.9,3.3-1,5.8-3.4,8c-2.3,2.1-4.2,0.4-6.1-0.5c-5-2.2-9-5.8-13.1-9.5
		c2.8,5.6,4.6,11.4,6.3,17.3c3,10.3-5.7,25.1-19.4,24.7c-13.8-0.3-26.9-3.8-39.7-8.8c-16.5-6.5-30.8-15.9-39.2-32.2
		c-8.2-16-5.3-36.6,8-49.2c4.6-4.3,8.9-8.3,15.4-9.9c3.4-0.8,6,0.2,8.8,0.8C485.1,358.3,491.1,360,497.3,363.4z"/>
	<path class="st1" d="M467.9,362.6c-0.3,2.1-1.8,2.9-2.9,3.9c-10.9,9.9-10.4,20.8-5.4,32.9c5.7,13.8,16.9,22.7,28.5,31.1
		c9.8,7.1,21.1,10.6,32.5,13.8c4.5,1.3,8.9,2.7,14.3,4.3c-9.2,2.8-17.5,1.5-25.7,0.1c-15.3-2.7-29.4-8.8-41.4-18.4
		c-11.4-9.1-19.5-21-21.2-36c-1.3-11.5,4.8-19.8,13.1-26.8C461.9,365.5,464.4,363.3,467.9,362.6z"/>
	<path class="st1" d="M556.3,418c-2-1.7-2.3-3.8-3-5.8c-5.2-13.7-11.5-26.9-18.6-39.6c-8.3-14.8-20.7-25.7-37.3-31
		c8.1-5.2,15.6-2.7,24.4,4.9c13,11.3,21.5,25.8,27.3,41.9c2.9,8.1,5.4,16.3,7.3,24.7C556.5,414.6,556.8,416,556.3,418z"/>
</g>
</svg>
