<?xml version="1.0" encoding="utf-8"?>
<!-- Generator: Adobe Illustrator 23.0.1, SVG Export Plug-In . SVG Version: 6.00 Build 0)  -->
<svg version="1.1" id="Layer_4" xmlns="http://www.w3.org/2000/svg" xmlns:xlink="http://www.w3.org/1999/xlink" x="0px" y="0px"
	 viewBox="0 0 1000 1000" style="enable-background:new 0 0 1000 1000;" xml:space="preserve">
<style type="text/css">
	.st0{fill:#FEFEFE;}
	.st1{fill:#C0FEFE;}
</style>
<g>
	<path class="st0" d="M515.9,357.8c1.7-3,0-5.4-0.5-7.5c-1.5-5.4-0.9-10.5,2.8-14.2c4.1-4,9.9-4.1,15.2-2c9,3.7,15.8,10.1,20.7,18.4
		c8,13.4,10.8,28.5,13.3,43.7c0.9,5.6,2.2,11.2,2.8,16.9c0.6,5.4-0.5,10.9-2.2,16c-0.9,2.7-3.3,4.6-6.7,2c-4.9-3.7-9.2-8-13.3-12.7
		c2.2,5.1,2.9,10.4,2.7,15.9c-0.4,10.3-4.9,17.9-11.8,19.9c-6.2,1.8-12.5,1.3-18.4-0.5c-17.7-5.4-33.4-14.5-46.5-27.8
		c-10.6-10.8-17.5-23.7-19-38.9c-0.5-5.2,1.5-9.9,3.8-14.5c4.2-8.2,10.4-14.7,18-19.9c11.6-7.8,26.8-5.5,36.8,3.6
		C514.3,356.6,515,357,515.9,357.8z"/>
	<path class="st1" d="M535.8,449.8c-8.3-0.2-16.5-1.6-24.1-4.8c-21.4-9-38.3-22.8-46.9-45.3c-6-15.9-2.1-31.7,11.3-42.3
		c3.8-3,8.4-4,13.2-4.7c-0.3,2-2,2.5-3.1,3.1c-14.2,6.6-15.5,24.5-11.1,37c6.3,18.2,19,30.9,34.3,41.7
		C517.8,440.3,526.7,445.3,535.8,449.8z"/>
	<path class="st1" d="M564.6,425.4c-2-8.6-3.9-17.3-6-25.8c-3-11.9-5.3-24.1-11.2-35.2c-5.6-10.7-12.8-19.9-23.8-25.5
		c4.2-2.6,9.2-1.6,14.3,2.3c10.7,8.3,16.9,19.5,20.3,32.3C562.7,390.4,566.7,407.4,564.6,425.4z"/>
</g>
</svg>
