<?xml version="1.0" encoding="utf-8"?>
<!-- Generator: Adobe Illustrator 23.0.1, SVG Export Plug-In . SVG Version: 6.00 Build 0)  -->
<svg version="1.1" id="Layer_4" xmlns="http://www.w3.org/2000/svg" xmlns:xlink="http://www.w3.org/1999/xlink" x="0px" y="0px"
	 viewBox="0 0 1000 1000" style="enable-background:new 0 0 1000 1000;" xml:space="preserve">
<style type="text/css">
	.st0{fill:#FEFEFE;}
	.st1{fill:#C0FEFE;}
</style>
<g>
	<path class="st0" d="M477.5,371.3c-2.3-4.1-4.7-7.4-6.9-10.8c-4.5-7,0.4-16.8,9.2-17.6c10.2-0.9,19.6,1.7,28.2,8.1
		c11.3,8.5,20,19.3,28,30.5c6.7,9.3,12,19.7,15.3,30.8c1.4,4.6-1.1,6.6-6.1,5.9c-7.1-1.1-13.1-4.2-19.1-8.3c2.4,3,5,5.8,7.3,8.9
		c5.3,7.2,8.5,15,5.3,24c-2.9,8.2-9.8,11.9-17.8,13.2c-16.7,2.6-33.1,0.6-49.3-3.8c-11.1-3-20.5-8.9-28.9-16.7
		c-7.5-6.9-11.7-15.8-13-25.8c-0.7-5.5,1.1-11.1,2.9-16.3c2.2-6.6,5-13.1,10-18.2c7-7.3,16.1-6.6,25.1-5.6
		C470.9,370,474,370.7,477.5,371.3z"/>
	<path class="st1" d="M532,446.3c-6.7,4.9-13.5,5.4-19.9,5.6c-20.9,0.6-41.2-2-58.6-15.3c-11-8.4-18.9-18.9-18.9-33.5
		c0-7.8,3-14.9,8-21c1.2-1.5,2.5-3.5,5.4-3.4c-1.6,3.7-3.4,7.1-4.6,10.7c-2.8,8.4-0.1,16.2,4.3,23.2c8,12.7,19.9,20.6,33.7,25.9
		c11.2,4.3,22.9,5.6,34.7,6.8C521,445.9,525.9,446.3,532,446.3z"/>
	<path class="st1" d="M546.8,412.4c-7.1-9.8-14-19.8-21.3-29.4c-9-11.8-19.9-21.7-33.3-28.6c-5.5-2.8-11.2-4.1-18.4-4
		c3.2-3.9,6.8-4.9,10.6-4.6c9.8,0.6,17.9,5.4,25,11.8c12.8,11.5,23.3,24.8,31.9,39.7c2.7,4.6,4.5,9.6,6.5,14.5
		C547.5,412,547.1,412.2,546.8,412.4z"/>
</g>
</svg>
