<?xml version="1.0" encoding="utf-8"?>
<!-- Generator: Adobe Illustrator 23.0.1, SVG Export Plug-In . SVG Version: 6.00 Build 0)  -->
<svg version="1.1" id="Layer_4" xmlns="http://www.w3.org/2000/svg" xmlns:xlink="http://www.w3.org/1999/xlink" x="0px" y="0px"
	 viewBox="0 0 1000 1000" style="enable-background:new 0 0 1000 1000;" xml:space="preserve">
<style type="text/css">
	.st0{fill:#FEFEFE;}
	.st1{fill:#00407F;}
</style>
<g>
	<path d="M528.3,416.6c-0.1,3.5-4.6,6.6-8.2,5c-10.3-4.7-17.4-12.6-21-23.3c-1-2.9,0.6-5.7,3.2-7.5c2.1-1.5,4.4-1.9,6.6-0.3
		c8.3,6.1,15.3,13.2,18.8,23.2c0.2,0.6,0.4,1.2,0.6,1.8C528.4,416,528.3,416.3,528.3,416.6z"/>
	<path d="M561.5,389.5c0.4,2-0.5,3.5-2,4.6c-1.9,1.4-3.6-0.1-4.7-1.1c-7.3-6.6-12.4-14.7-14.7-24.4c-0.7-2.9,0.8-5.5,3.3-7
		c2.2-1.3,4.5,0.1,6,1.7C556.3,370.7,560,379.6,561.5,389.5z"/>
	<path class="st0" d="M509.4,405.3c-3.2,0-8.1-3.7-8.3-6.7c-0.2-2.8,1.5-4.7,4-5.7c2.6-1,4.8,0.1,6.3,2c1.7,2.1,4.5,4.2,3.7,7.1
		C514.6,404.1,511.9,405.2,509.4,405.3z"/>
	<path class="st1" d="M516.8,411.1c1.6-0.3,3.1,0.6,4.4,1.4c1.7,1,4.6,1.5,3.6,4.2c-1,2.8-3.9,2.5-6.3,2.1c-1.5-0.3-3-1.2-4.1-2.4
		c-1-1.1-2.3-2.1-1.5-3.7C513.7,411,515.2,411.1,516.8,411.1z"/>
	<path class="st0" d="M543,367.1c0-1.4-0.1-2.4,1-3.3c1.5-1.3,2.6,0.3,3.3,0.7c2.9,2,4.6,5.1,6.2,8.1c0.7,1.2,0.6,2.9-0.8,3.9
		c-1.3,0.9-2.2,0.2-3.4-0.5C545.6,373.9,543.2,371.2,543,367.1z"/>
	<path class="st1" d="M554.1,381.7c3.7,1.5,4.5,4.7,5.4,7.8c0.4,1.4-0.3,3.3-2.3,2.8c-3.3-1-5.6-3.4-6.2-6.8
		C550.6,383.3,552.6,382.5,554.1,381.7z"/>
</g>
</svg>
