<?xml version="1.0" encoding="utf-8"?>
<!-- Generator: Adobe Illustrator 23.0.1, SVG Export Plug-In . SVG Version: 6.00 Build 0)  -->
<svg version="1.1" id="Layer_4" xmlns="http://www.w3.org/2000/svg" xmlns:xlink="http://www.w3.org/1999/xlink" x="0px" y="0px"
	 viewBox="0 0 1000 1000" style="enable-background:new 0 0 1000 1000;" xml:space="preserve">
<style type="text/css">
	.st0{fill:#FEFEFE;}
	.st1{fill:#00407F;}
</style>
<g>
	<path d="M493.6,396.5c3.8-0.3,6.7,1.8,9.5,3.7c6,4,11.3,8.8,14.5,15.5c0.9,1.9,2,4-0.2,6.1c-2.2,2.1-4.7,4-7.6,3
		c-10.2-3.5-18.3-9.8-23.6-19.2C483.7,401.2,487.8,396.5,493.6,396.5z"/>
	<path d="M524.6,359.4c2,1.3,4.5,1.2,6.3,3c6.4,6.4,12.4,13.1,14.6,22.3c0.5,2.2,0.4,3.7-1.2,5.1c-1.9,1.6-3.9,1-5.2-0.3
		c-7.6-6.8-15.5-13.4-19-23.4C518.9,363.1,521.6,359.4,524.6,359.4z"/>
	<path class="st0" d="M494.3,398.4c3.8,0.1,9.1,4.4,8.5,7.4c-0.7,3.2-3.5,4.3-6.5,4.3c-3.9,0-7.1-3.6-7-7.4
		C489.3,399.3,491.3,398.3,494.3,398.4z"/>
	<path class="st1" d="M509.9,414c3.1-0.1,5.4,1.8,5.4,4.4c0,3.2-3.2,3.5-5.8,3.4c-2.9,0-6.3-1.1-6.1-4.1
		C503.6,415,507,414.1,509.9,414z"/>
	<path class="st0" d="M532.7,374c-5.1,0.1-9.5-4.6-9.3-8.7c0.1-1.3,0.4-2.3,1.4-2.8c1.1-0.5,2.1-0.2,3,0.8c2,2.3,5.3,3.3,6.7,6.5
		C535.9,373.1,534.7,373.9,532.7,374z"/>
	<path class="st1" d="M537.2,379c2.7,0.1,6.8,4.8,6.5,6.8c-0.2,1.3-1.2,2.1-2.4,1.8c-2.9-0.9-5.7-2.2-6.1-5.8
		C535,380,536.1,379.1,537.2,379z"/>
</g>
</svg>
