<?xml version="1.0" encoding="utf-8"?>
<!-- Generator: Adobe Illustrator 23.0.1, SVG Export Plug-In . SVG Version: 6.00 Build 0)  -->
<svg version="1.1" id="Layer_4" xmlns="http://www.w3.org/2000/svg" xmlns:xlink="http://www.w3.org/1999/xlink" x="0px" y="0px"
	 viewBox="0 0 1000 1000" style="enable-background:new 0 0 1000 1000;" xml:space="preserve">
<style type="text/css">
	.st0{fill:#FEFEFE;}
	.st1{fill:#00407F;}
</style>
<g>
	<path d="M484,404.2c6.2,1.6,12.5,4.3,18.4,7.9c1.3,0.8,2.6,1.8,3.8,2.8c2.5,2.3,4.8,5,4.2,8.5c-0.4,2.5-7.4,5.1-10.5,4.2
		c-3.7-1.1-7.5-2.2-11-4c-3.9-2-8-4-10.9-7.6c-1.7-2.1-3.4-4-1.8-7.2C477.9,405.7,480.1,404.4,484,404.2z"/>
	<path d="M505.4,362.3c5.5,0.4,9.6,3.7,13.6,7c4.3,3.6,8,7.7,10.4,12.9c0.7,1.5,1.3,2.5,0.1,3.9c-1,1.2-2.3,2.2-3.8,1.5
		c-9.7-4.4-19.1-9.5-24.2-19.5C499.8,364.9,501.8,362.3,505.4,362.3z"/>
	<path class="st0" d="M492.2,412.7c-0.4,3-3.9,3.4-6.5,4.2c-2.7,0.8-7.3-3-7.2-5.5c0.1-3,2-4.7,4.8-5
		C487,405.9,492,409.3,492.2,412.7z"/>
	<path class="st1" d="M503.1,418.9c1.8,0.2,4.8-0.6,4.5,2.5c-0.3,3.1-3.3,4.4-6.1,4.2c-2.2-0.1-6-0.2-5.8-2.8
		C496,419.4,499.7,418.9,503.1,418.9z"/>
	<path class="st0" d="M506.9,364.3c3.1,1.7,7,2.7,9.3,5.9c1.2,1.7,0.4,3.2-1.4,3.8c-3.2,1-9.7-3-10.6-6.2
		C503.5,365.6,504.6,364.1,506.9,364.3z"/>
	<path class="st1" d="M528.2,383.5c-0.3,1.7-1.4,2.2-2.8,2.2c-2.5,0-6.9-3.4-6.7-5.4c0.1-1.5,1.1-2.6,2.6-2.2
		C524.4,378.7,526.4,381.1,528.2,383.5z"/>
</g>
</svg>
