<?xml version="1.0" encoding="utf-8"?>
<!-- Generator: Adobe Illustrator 23.0.1, SVG Export Plug-In . SVG Version: 6.00 Build 0)  -->
<svg version="1.1" id="Layer_4" xmlns="http://www.w3.org/2000/svg" xmlns:xlink="http://www.w3.org/1999/xlink" x="0px" y="0px"
	 viewBox="0 0 1000 1000" style="enable-background:new 0 0 1000 1000;" xml:space="preserve">
<style type="text/css">
	.st0{fill:#6E3720;}
	.st1{fill:#730000;}
	.st2{fill:#FB9A7A;}
</style>
<g>
	<path class="st0" d="M580.1,461.8c6.8-1.7,13.7,2.5,15.4,9.6c2,8.5,0.7,16.9-0.3,25.3c-0.3,2.2-0.4,4.5-0.5,6.7
		c-1.1,19-2.3,37.9-5.6,56.8c-5.2,30-15.5,58.5-25.1,87.2c-2.5,7.5-4.8,15-8.6,22c-2.5,4.7-6.3,8.1-11.2,10.1
		c-6.4,2.6-14.5-0.3-19.4-6.6c-14.6-18.9-23.9-40.3-30-63.3c-2.9-10.8-6.4-21.5-8.1-32.6c-1.3-8.7-3.3-17.2-3.5-26.1
		c-0.2-8.3-2.3-16.5-2-24.9c0.2-5,1.3-9.9,1.2-14.9c-0.1-3.2-0.9-5-3.9-6.2c-11.5-4.8-23.2-9.4-34-15.7
		c-15.4-8.9-29.5-19.8-39.5-34.9c-4.2-6.4-5.6-13.9-6.8-21.5c-3.4-22.7,7.9-40.5,19.5-58c12.3-18.6,29.4-32.1,48.2-43.8
		c12.4-7.8,25.6-13.3,40.5-13.6c3.6-0.1,6.9,0.9,10.1,2.4c12.4,5.6,20.6,15.6,27.3,27c4.5,7.5,8.4,15.2,12.8,22.7
		c4.4,7.6,7.8,15.6,9.5,24.1c1.3,6.6,5.1,10.4,10.8,13.2c7.8,3.8,13.2,10.2,15.6,18.5c3,10-1.3,20.7-10.1,26.8
		c-1.7,1.2-3.5,2.1-5.3,3.1c-1.4,2.4-3.8,3.4-6.3,4.2c-7.4,2.4-14.9,4.2-22.7,4.8c-8.1,0.6-14.9,3.8-20.6,9.5
		c-1.7,1.8-3.1,4.3-6.2,4c-1.9-2.9-0.2-5.3,1.2-7.7c4.9-8.1,12.2-12.9,21.2-15.2c5.2-1.3,10.6-1.8,15.8-2.9c9-1.8,15-7.7,19.2-15.3
		c3.6-6.5,1.6-13.7-4.4-18.2c-0.5-0.4-1-0.8-1.6-1.1c-9.5-4-13.8-11.8-16.9-21.2c-4.8-14.7-11.3-28.7-19.1-42.2
		c-2.8-4.8-6-9.3-9.5-13.6c-10.1-12.3-23.1-14-37.6-9.8c-6.1,1.8-11.8,4.5-17.2,8c-16.7,10.9-32.6,23-44.7,38.9
		c-9.7,12.7-18.4,26.7-19.7,42.9c-1.4,17.4,4.8,32.7,18.9,43.9c15.9,12.6,32.9,23.2,52.2,30c6.5,2.2,12.7,5,18.7,8.3
		c1.2,0.7,3,1.2,2.9,2.9c-0.1,1.5-1.7,1.9-2.9,2.2c-3.2,0.9-4,3.1-4.6,6.1c-1.6,7.5-0.2,14.9,0.5,22.3c2.2,24.8,7.2,49.2,13.4,73.4
		c3.6,14,9.5,27,16.4,39.5c2.7,5,5.2,10.1,8.9,14.5c6.7,7.8,11.1,7.2,15.2-2.1c5.3-12.3,8.4-25.3,12.5-38
		c5.8-17.9,11.8-35.9,15.6-54.4c2.5-12.4,3.7-25.1,5-37.7c1.5-14.1,2.7-28.1,4.4-42.2c0.7-5.8,0.6-11.3-0.9-16.9
		C583.6,468.5,579.3,466.1,580.1,461.8z"/>
	<path class="st1" d="M580.1,461.8c1.2,3.4,4.3,6,4.8,9.7c-0.1,1.2-0.5,2.3-1.2,3.2c-7.6,9.3-13.9,19.7-22.6,28
		c-6.4,6.1-14.1,9.3-22.7,10c-5.1,0.4-9.8-1.5-13.2-5.2c-7.5-8.3-9.5-17.7-5.5-28c0.4-0.9,0.9-1.7,2-1.9c3.2-2.9,6.4-6,9.7-8.8
		c6.6-5.7,14.9-5.5,22.8-6.8c8-1.3,15.8-3.1,23.1-6.8C577.3,457.8,579.2,459.6,580.1,461.8z"/>
	<path class="st2" d="M521.6,477.6c-6.2,12.9-1,26.4,7.5,31.4c9.1,5.5,17.7,1.6,25.6-2.9c6.5-3.7,11.1-9.8,15.6-15.7
		c4.8-6.3,9.8-12.6,14.6-18.9c2.4,4.8,2.5,10,1.9,15c-2,15.3-3.3,30.7-4.8,46c-2.3,22-5.4,43.8-12.4,65
		c-5.8,17.4-10.7,35.2-16.3,52.7c-1.6,5.2-3.8,10.2-6.2,15.1c-2.9,6-7.3,6.9-12.3,2.6c-3.1-2.6-5.6-5.9-7.5-9.4
		c-6.6-11.8-13.5-23.5-17.6-36.4c-4.2-13.2-7.6-26.8-10.4-40.4c-3.5-17-5.9-34.1-7.2-51.4c-0.5-6.5-0.4-12.8,0.2-19.2
		c0.2-2.5,1.2-3.9,3.6-4.4c1.6-0.3,3.1-0.8,5-1.3c-9.1-5.2-18.4-8.7-27.8-12.3c-16.5-6.4-31-16-45.1-26.5
		c-14.8-11.1-21.2-26.1-21.5-43.7c-0.2-9.6,3.9-18.6,8.4-27.3c7-13.7,15.9-25.9,27.5-35.8c14.7-12.4,29.1-25.4,48.2-31
		c16.2-4.7,29.9-0.7,40.2,13.6c12.4,17.3,20.8,36.5,27.5,56.4c2.7,8,7.5,12.9,14.3,16.7c12.3,6.7,10.8,19.2,3.2,27.8
		c-7.4,8.5-17,10.2-27.1,11.6c-10.6,1.4-19.2,6.2-25,15.2C522.3,472.4,520.8,474.7,521.6,477.6z"/>
</g>
</svg>
