<?xml version="1.0" encoding="utf-8"?>
<!-- Generator: Adobe Illustrator 23.0.1, SVG Export Plug-In . SVG Version: 6.00 Build 0)  -->
<svg version="1.1" id="Layer_4" xmlns="http://www.w3.org/2000/svg" xmlns:xlink="http://www.w3.org/1999/xlink" x="0px" y="0px"
	 viewBox="0 0 1000 1000" style="enable-background:new 0 0 1000 1000;" xml:space="preserve">
<style type="text/css">
	.st0{fill:#6E3720;}
	.st1{fill:#FB9A7A;}
	.st2{fill:#730000;}
</style>
<g>
	<path class="st0" d="M495.1,644.3c-0.7-17.1-0.6-33.3-2.1-49.4c-1.4-14.8-5-29.4-7.9-44c-2.3-11.2-4.9-22.4-4.6-34.1
		c0.1-3.2,1.2-6.3,1.2-9.5c0-3.5-1.3-5.5-4.1-7.4c-16.4-11.5-32.9-22.9-46.3-38.1c-7.8-8.8-15.8-17.5-21-28.3
		c-4.2-8.7-4.4-18-3.8-27.3c0.6-9.1,4-17.5,8.6-25.4c3.4-6,7.7-11.4,12.2-16.4c18.1-20.5,40.8-34.4,66.5-43.3
		c11.7-4,23.8-5.8,36.2-5.7c9.9,0.1,18,4.6,23.7,12.4c14.3,19.4,21.3,41.7,25.6,65.1c1.1,5.8,1.5,11.7,1.9,17.6
		c0.1,1.8,1,2.5,2.3,3.7c6.3,5.8,13.2,11.2,15.4,20.3c2,8.2,1,15.5-4.9,21.7c-2.5,2.6-2.9,4.7-1.1,7.8c4.7,8.5,4.7,17.6,3.1,27
		c-0.8,4.9-0.3,9.9-0.9,14.9c-1.3,9.7-1,19.6-2.3,29.3c-2.1,16.1-2,32.5-5.6,48.5c-4.9,22-15.9,40.8-28.9,58.7
		c-6.5,9-14,17.3-22,24.9c-6.3,6-13,11.5-22,13.6c-8.3,2-15.8-0.7-16.9-11.7c-0.4-4.3-1.3-8.6-1.2-12.9
		C496.1,651.9,494.4,647.7,495.1,644.3z"/>
	<path class="st1" d="M583,471.7c2.9,9.2,3.9,18.4,2.2,28c-1,5.7-0.7,11.6-1,17.4c-1.2,20.6-3.8,40.9-7.2,61.2
		c-1.6,9.5-5,18.5-8.8,27.4c-4.3,10.3-9.7,19.9-16.4,28.8c-2.4,3.3-5.4,6.1-8.1,8.9c-9.1,9.7-16.8,21-29.3,27
		c-5,2.4-6.2,1.7-7.8-3.7c-1.4-4.9-1.7-10-1.6-14.8c0.1-15.1-1-30.2-1.4-45.2c-0.5-18.9-2.9-37.7-7.1-56.3
		c-3.2-14.3-5.9-28.7-5.4-43.4c0.1-3.2,0.1-5.9,4.6-6.2c-12.9-9.2-25.7-18.5-38.6-27.6c-11.1-7.8-19.9-17.9-28.5-28.2
		c-6.7-8-11.7-16.9-13.2-27.3c-1.6-11.2,0.8-21.7,7-31.2c5.6-8.5,11.7-16.6,18.9-23.7c7.7-7.6,16.3-14,25.9-19
		c5.1-2.7,10.4-5.2,15.4-8.1c12.4-7.1,26.2-9.6,40-11.3c11.3-1.4,20.6,4.3,27.1,13.6c9.9,13.9,14.1,30,17.6,46.4
		c2.3,10.8,4.2,21.7,4.9,32.8c0.2,3.1,3.1,3.7,4.9,4.9c6.9,4.7,10.8,10.9,9.5,19.2c-1.4,9.2-8.4,14-16.5,16.5
		c-6.7,2-13.6,2.9-20.9,1.4c-11-2.3-27.3,5.9-32.8,15.4c-1,3.5-3.5,6.2-4.5,9.6c-1.1,3.6-1.6,7.1,1.4,10c3.2,2.9,7,3.1,10.9,1.5
		c3.3-1.4,6.4-3.2,9.3-5.3c13.6-9.9,28.7-16.4,45.3-19.1C580.3,471,581.7,470.5,583,471.7z"/>
	<path class="st2" d="M583,471.7c-18.8,2.7-35.7,9.9-51,21.1c-4.6,3.4-9.6,7.1-16.3,4.4c-3.8-1.5-5.9-3.9-5.8-7.8
		c0.2-5.8,2.3-10.8,6.7-14.8c4.9-2,9.6-4.4,14.5-6.4c7.8-3.2,15.7-2.1,23.3-1c7.4,1,14.5,0.1,21.6-0.8
		C581.2,465.7,582.1,466,583,471.7z"/>
</g>
</svg>
