<?xml version="1.0" encoding="utf-8"?>
<!-- Generator: Adobe Illustrator 23.0.1, SVG Export Plug-In . SVG Version: 6.00 Build 0)  -->
<svg version="1.1" id="Layer_4" xmlns="http://www.w3.org/2000/svg" xmlns:xlink="http://www.w3.org/1999/xlink" x="0px" y="0px"
	 viewBox="0 0 1000 1000" style="enable-background:new 0 0 1000 1000;" xml:space="preserve">
<style type="text/css">
	.st0{fill:#6E3720;}
	.st1{fill:#730000;}
	.st2{fill:#FB9A7A;}
</style>
<g>
	<path class="st0" d="M576.2,461.1c5.8-1.1,10.8,1.2,15.3,4.2c4.4,2.8,4.8,8.3,5,12.8c0.4,6.9-0.2,13.9-0.9,20.8
		c-0.9,8.7-2.4,17.3-3.8,26c-2.3,14.6-4.5,29.1-8.1,43.4c-2.7,10.7-4.3,21.5-4.6,32.6c-0.5,16.6-0.8,33.3-2.1,49.8
		c-0.5,7.2-0.5,14.6-2.6,21.8c-1.9,6.4-7.9,10.4-14.1,9c-8-1.8-14.5-6.2-20.4-11.5c-14.1-12.6-26-27.1-36.1-43
		c-10.1-15.8-17-33.1-19.5-52c-2.2-16.8-2.9-33.7-2.8-50.6c0-1.1,0-2.3,0.2-3.4c2-8.6,1-10.1-7.7-11.3
		c-20.9-2.9-39.7-11.3-57.4-22.4c-14.3-9-20.2-22.9-23.1-38.7c-2.9-16.1,2.7-30.6,7.8-45.3c5.4-15.7,14.8-29,24.9-41.8
		c10-12.6,21.9-23.4,35.9-31.5c16.4-9.5,30.5-7.1,46.5,5.3c15.1,11.8,27.2,26.5,38.6,41.6c3.3,4.4,5.5,9.6,7.8,14.6
		c1.3,2.9,3.2,4.3,6.2,4.9c7.3,1.5,14.3,3.9,19.1,9.8c9.9,12.1,9.8,21,0,33.2c-3.7,4.7-8.7,8-14,10.7c-4.1,5-10.3,6-15.9,7.7
		c-8.7,2.7-16.1,6.8-20.6,15.1c-0.8,1.4-1.5,3.5-4,2.3c-2.1-5.2,0.6-9.2,3.6-12.9c5.4-6.5,12.1-11.2,20.1-14.1
		c8.1-2.9,15.2-7.5,20-14.9c2.3-3.6,4.1-7.4,3.7-11.9c-0.7-7.7-4.5-12.9-12.8-14.7c-7.2-1.5-11.5-5.4-15.1-11.6
		c-10-17.4-21.8-33.5-36.7-47.2c-2.3-2.1-4.6-4.1-7.2-5.9c-13.8-9.9-27.3-8.5-40.7,1.3c-18.1,13.3-33.9,29-44.4,49.2
		c-7.5,14.4-13.4,29.7-14.4,45.8c-0.9,14.2,4.7,27.4,15.8,37c14.4,12.4,32,18.4,50.1,23.1c13.7,3.5,27.8,5.6,41.7,8
		c2,0.4,4.2,0.5,6,2.7c-2.7,2.6-6.2,2.6-9.4,2.6c-15.7,0.1-14.5,2.6-14.5,15.1c0,30.6,3.3,60.8,18,88.5c4.8,9.1,10.7,17.6,17.5,25.2
		c8.2,9,15.5,18.9,25.8,25.8c0.8,0.5,1.6,1.2,2.4,1.7c6.3,3.9,9.1,2.3,9.5-5.1c1-18.8,1.4-37.7,2.1-56.5c0.7-21.5,4-42.6,9-63.6
		c4.7-19.8,6.5-40.1,9.4-60.3c0.4-3.1,0-6.2-1.2-9.1c-1.3-3.7-3.1-6.9-6.3-9.3C577,463.4,575.8,462.7,576.2,461.1z"/>
	<path class="st1" d="M526.3,475.5c3.2-2.2,4.1-6,6.5-8.9c5.8-6.7,13.9-8.6,21.7-11.3c4.2-1.4,8.1-3.3,12.1-5.1
		c1.1,5.5,5.5,8.1,9.7,10.9c3.8,3.1,7.8,6.1,8.8,11.4c-1.8,12.9-6.3,24.7-15.5,34.1c-6.8,7-15.7,9.2-25.2,6.2
		c-9.7-3-17.1-8.8-19.6-19.2c-1-4.1-2.1-8.3-1.3-12.5C523.7,479,523.4,476.3,526.3,475.5z"/>
	<path class="st2" d="M526.3,475.5c-6.7,19.4,7.1,37.4,25.9,37.1c11.7-0.2,18.5-7.7,23.9-17.1c4.1-7.2,5.1-15.6,8.8-23
		c4.2,6.6,1.4,13.5,0.6,20.2c-1.5,12.7-3.4,25.4-5.6,38c-1.8,10.1-4.2,20-6.3,30c-2.4,11.7-3.8,23.4-4.4,35.3
		c-0.9,18.9-1.7,37.8-2.1,56.8c-0.1,4.6-0.3,9.4-0.9,14c-0.6,5.1-2.1,5.6-7.2,4.3c-5.1-1.3-9-4.7-12.4-8.1
		c-14.7-14.5-29.2-29.3-38.4-48.1c-7.8-16-13.9-32.7-15.2-50.8c-0.9-12-2.7-24-2.7-36.1c0-4,0.4-8.1,1-12c0.7-4.5,4.8-5,8.1-5.2
		c5.2-0.2,10.3-0.3,16.6-1.7c-10.5-1.9-19.9-3.7-29.4-5.2c-21.5-3.5-42.3-9.6-61.1-20.8c-14.2-8.4-21.7-21.5-24.5-37.9
		c-1.2-7.2,0.6-13.6,2.2-20.3c5.5-23.4,15.9-44.5,32.9-61.6c9.5-9.6,19.2-19.6,31.8-25.6c11.2-5.3,22-5,32.4,2
		c13.3,9,23.3,21.3,32.8,34c6.5,8.6,11.9,17.9,17.3,27.1c1.5,2.6,3.8,2.8,6,3.3c4.6,1.1,9.2,2.2,12.7,5.4c7.1,6.4,7.7,16.4,1,25.6
		c-6,8.3-14.7,12.5-24,16.1c-8,3-13.7,8.9-18.4,15.8C526.2,469.4,526.2,472.6,526.3,475.5z"/>
</g>
</svg>
