<?xml version="1.0" encoding="utf-8"?>
<!-- Generator: Adobe Illustrator 23.0.1, SVG Export Plug-In . SVG Version: 6.00 Build 0)  -->
<svg version="1.1" id="Layer_4" xmlns="http://www.w3.org/2000/svg" xmlns:xlink="http://www.w3.org/1999/xlink" x="0px" y="0px"
	 viewBox="0 0 1000 1000" style="enable-background:new 0 0 1000 1000;" xml:space="preserve">
<style type="text/css">
	.st0{fill:#FB9A7A;}
	.st1{fill:#6E3720;}
	.st2{fill:#FEFEFE;}
	.st3{fill:#C0FEFE;}
	.st4{fill:#808080;}
	.st5{fill:#7F7F7F;}
	.st6{fill:#004080;}
	.st7{fill:#00407F;}
</style>
<g>
	<path class="st0" d="M539.1,476.6c-6.9,4.5-14.9,6.5-22.4,9.5c-20,8.2-40.2,15.7-60.3,23.5c-0.4,0.2-1,0-1.4,0
		c-2.8-4.7-2.9-10.3-5.4-15.1c-7-13.5-16.4-25.4-25.3-37.5c-11.6-15.9-23.1-31.8-31.6-49.7c-5.4-11.3-9.7-23-11.5-35.5
		c-2.9-19.9,4.2-35.7,19.9-47.2c13.7-10.1,29.2-16.9,45.7-21.3c2.2-0.6,4.4-1.3,6.6,0.2c1.6,4.5,3.6,8.8,4.2,13.6
		c-0.9,2.1-3,2.8-4.9,3.8c-5.3,2.7-10,6.3-14,10.5c-5,5.3-6.4,12.4-5.4,19.5c1.8,13.1,7.2,24.9,13.7,36.2c6,10.4,13,20.2,20.8,29.4
		c2.4,2.9,5.1,5.6,8.3,7.4c11.7,6.7,21.4,3.8,24.6-10.1c0.3-1.8,0.9-3.5,1.3-5.2c3.8-13.9,1.8-27.8,0-41.6
		c-1.6-11.9-4.5-23.6-8.3-35.1c-0.4-2,0.9-3.3,2-4.8c5.7-7.7,5-13.7-2.4-19.8c-1.6-1.3-3.5-2.4-4.8-4.1c-0.5-0.7-0.6-1.5,0.3-2
		c5.9-0.3,11.7,0.1,17.1,3.1c1.6,2.8-0.1,5.4-0.9,7.8c-1.7,5.3-2.2,10.3,1.8,14.9c0.9,4.1-0.7,8-0.5,12.1
		c0.7,15.1,1.5,30.1,3.4,45.1c0.8,6.4,1,12.9,2.7,19.2c1.2,2.9,1.9,6.1,3.4,8.9c1,1.7,2,3.6,4.4,3.1c2.2-0.5,2.7-2.7,3.3-4.5
		c3-10.3,4.5-21,5.2-31.7c0.8-12.6,1.6-25.3,1.1-38c-0.2-5.5-0.8-11-2.8-16.2c0.5-3.6,1.6-6.7,5.6-7.6c3.6,2.4,4.5,6.2,5.6,10
		c3,11,2.5,22.3,1.8,33.5c-0.9,15-4.6,29.6-9.2,43.8c-1.5,4.6-1.6,8.9,1.2,13c0.4,0.7,0.7,1.5,1.1,2.2c7.7,13.3-0.3,23.3-10.3,27.8
		c-4.7,2.1-9.6,3.1-14.7,3c-7.6-0.1-15.2,0-22.9-0.7c-12.7-1.1-23.2,3.3-30.5,13.6c0.1,1,0.3,1.2,0.7,1c12.4-6.2,25.5-8.5,39.3-7.9
		c9.1,0.4,18.2-0.5,27.2-1.7c1.6-0.2,3.4-0.6,4.7,0.6C532.8,461.3,538.6,467.4,539.1,476.6z"/>
	<path class="st1" d="M453,303.8c-8.1,0-15.2,3.3-22.5,6.3c-11,4.6-22,9.4-31.1,17.1c-8.5,7.2-15,16-16.8,27.7
		c-2.4,15.6,1.7,29.7,7.6,43.9c9.4,22.6,23.8,42,38.1,61.5c8.4,11.5,17.5,22.6,23.3,35.8c1.9,4.3,3,8.8,3.3,13.4
		c-4.7-4.1-7.5-9.7-11-14.7c-9.9-13.9-20.9-26.8-31.2-40.4c-14.4-19.1-26.4-39.5-34.7-61.9c-3.3-9-5.7-18.5-6-28.2
		c-0.4-13.3,5.1-24.5,13.3-34.7c13.3-16.6,31.8-24.8,51.2-31.3c8-2.7,16.6-4.3,25.2-4.3C458.9,297.3,454.9,299.6,453,303.8z"/>
	<path class="st1" d="M539.1,476.6c-2.4-7.3-6.5-13.6-11.8-19.1c-1.1-1.1-1.9-2-4-1.6c-10.8,2.2-21.8,2.5-32.8,2.1
		c-13.6-0.5-26,3.2-38.2,9.7c0.3-6.2,4.4-9.8,8.4-12.6c8.3-5.8,17.5-7.5,27.9-6.5c12.2,1.3,25.1,2.9,36.5-3.8
		c9.1-5.4,13.4-13.2,7.4-22.9c-4.8-7.8-4.2-14.7-1.5-22.9c3.8-11.7,6.5-23.7,7.3-36.2c0.8-11.7,1.4-23.1-1.2-34.6
		c-0.9-4-2.5-7.6-4.9-10.8c-1.3-3.4-0.1-6.3,2.1-8.9c7.7,6.2,11.6,14.2,12.7,24.1c2,16.9-0.4,33.5-2.9,50.1
		c-1.4,9.1-3.2,18-6.9,26.5c-0.6,1.3-0.8,2.6,0.6,4.2c8.7,9.9,9.4,21.4,0.6,31.7c-4.4,5.2-3.5,9-0.9,13.7
		C540.7,464.5,542.6,470.2,539.1,476.6z"/>
	<path d="M453,303.8c0.2-5.8,4.5-7.8,8.9-9.7c1.6-0.1,3.2-0.2,4.8-0.3c8.3-0.5,16,1,21.6,7.9c3,3.3,7.5,5,9.9,9.2
		c3.8,6.6,3.8,10.7-1.2,16.7c-0.9,1.1-1.9,2.1-2.9,3.2c-3.8,4.1-8.6,4.6-13.7,3.8c-6.1-0.9-10.9-4.5-15.5-8.4
		c-1.9-1.7-3.6-3.6-5.4-5.3c-1-1.2-2.4-2.1-2.5-3.8C455.6,312.8,453,308.7,453,303.8z"/>
	<path d="M534.3,308.5c-0.7,3-1.4,5.9-2.1,8.9c-1.6,2.2-3.3,4.4-4.9,6.7c-0.3,1.7-1.8,2.2-3,3c-1.8,1-3.8,1.2-5.8,1.7
		c-4.5,0.7-9.1,1.8-12.6-2.4c-3.5-2.5-4.6-5.4-3.2-9.9c1.2-3.8,2.4-7.8,3.1-11.8c0-3.5,1.5-6.3,4-8.6c1.9-3.4,4.3-6.4,7.7-8.5
		c3.2-1.9,5.7-1.6,8.6,0.7C532.6,293.5,534.6,300.5,534.3,308.5z"/>
	<path class="st1" d="M509.8,296.1c-1.3,2.9-2.6,5.8-4,8.6c-5.7-1.5-11.6-2.3-17.5-2.9c-6.5-4.5-13.6-7.3-21.6-7.9
		c6.6-1.9,13.4-1.2,20-0.6c6.2,0.5,12.4,0.8,18.5,1.6C506.9,295,508.2,296,509.8,296.1z"/>
	<path class="st2" d="M464.9,325.1c4,1.9,6.9,5.3,11.1,7.1c6.5,3,12.2,1,18.1-1.3c4.2,6.3,4.6,13.8,6.5,20.9
		c3.5,13.1,4.7,26.5,5.1,40c0.2,5.8-0.5,11.8-2.6,17.4c-2.5-4.2-1.4-9.1-2.4-13.7c-0.7-3.5-0.7-7.1-2.5-10.3
		c-2.6-4.7-6.9-4.9-10-0.6c-1.2,1.6-2.2,3.5-2.1,5.4c0.5,7.5,1.3,14.8,5.8,21.3c2.7,4,6.4,2.8,10,2.8c-0.9,6.5-4,11.6-10.4,13.9
		c-6,2.2-11.4-0.2-16.4-3.3c-8.2-5-13.1-13.2-18.6-20.7c-9.8-13.5-18-28.1-22.8-44.3c-2.4-7.9-2.7-15.8,0.3-23.5
		c3-7.7,10.4-11.1,16.6-15.5c1.9-1.4,4.3-2.2,6.4-3.3c1,1,2,2,3,3c-2.1,2.7-5.4,3.5-8.2,5c-8,4.3-13.9,10.3-14.6,19.9
		c-0.5,6.3,1.6,12.2,3.8,18c6.5,16.7,14.4,32.7,25.8,46.7c3.1,3.8,6.2,7.5,9.6,10c-11.5-18.2-21.2-37.9-26.5-59.6
		c-2.2-9.1-3.7-18.4,1.9-26.9C454.8,328.6,458.5,324.6,464.9,325.1z"/>
	<path class="st2" d="M505.9,326.3c4.1,1.7,8.3,2.8,12.7,1c3,1.1,3.8,3.8,4.3,6.5c2.3,12.1,2.7,24.4,1.6,36.6
		c-0.3,3.8,0,7.8-1.2,11.5c-1.9,2.3-2.7,0-3.6-1c-2.8-2.9-4-2.8-5.9,0.8c-2.3,4.5-1.9,9.4-1.3,14.2c0.3,2.8,1.5,5.7-0.9,8.2
		c-2.9-6.7-2.7-14.1-3.5-21.1c-1.8-15.5-3.2-31.1-3.1-46.8C504.9,333,505.5,329.7,505.9,326.3z"/>
	<path d="M501.8,414c-6.2,3.4-12.5,0-14.5-8c-1.1-4.6-2.1-9.2-2.9-13.8c-0.8-4.4,3.3-11,7.3-12.2c3.4-1,7.3,1.9,8.9,6.8
		c0.7,2.2,1.1,4.6,1.3,7c0.5,5.1,0.8,10.2,1.2,15.3C502.7,410.8,502.3,412.4,501.8,414z"/>
	<path class="st2" d="M524.3,326.1c1-0.7,2-1.4,3-2c4.5,4.1,3.4,9.9,3.8,14.9c0.9,13.7,0.1,27.5-0.9,41.2
		c-0.8,10.6-2.3,21.3-5.5,31.6c-0.8,2.7-1.4,6-4.6,6c-2.6,0-4.7-2.5-5.4-5.4c5.7-0.3,6.5-1.3,7.5-7c0.9-5.1,0.8-10.2,1.5-15.3
		c1.8-12.2,2.3-24.5,3.2-36.8c0.5-7.6-0.5-15.2-2.1-22.7C524.4,329,524,327.6,524.3,326.1z"/>
	<path d="M524.3,390.7c0.4,6.4-0.2,12.8-1.9,18.9c-1.2,4.1-4.2,4.9-7.7,2.6c-1.7-2.4-2-5.3-3.1-8c1-5.4-1.4-10.7-0.9-16.2
		c0.3-3,1-5.9,2.7-8.3c2.8-4.1,4.8-3.8,7.3,0.5c0.5,0.9,1.2,1.7,1.8,2.6C525,385,524.3,387.9,524.3,390.7z"/>
	<path class="st3" d="M464.9,325.1c-13.6,3.6-16.9,16.7-15.2,26.6c4.2,25.4,15.3,47.9,29.2,69.2c0.4,0.7,0.7,1.4,1.5,3.1
		c-4.9-2.8-8.5-5.7-11.5-9.3c-13.7-16.5-23.7-35.1-30.5-55.4c-1.7-5-3.4-10-2.4-15.6c2.3-13.8,12.8-19,24-23.4
		C462,321.6,463.6,323.2,464.9,325.1z"/>
	<path class="st4" d="M469,299.3c9,0.4,16.4,4.2,22.9,9.6c3,2.5,2,5.2-0.5,7.7c-2.7,2.7-4.9,2-6.9-0.6C480,310,475.3,304,469,299.3z
		"/>
	<path class="st3" d="M524.3,390.7c-1.2-2.5-1.5-5.2-1.9-7.8c0.1-10.6,1.8-21.2,1-31.9c-0.4-6.1-1.3-12.1-2.1-18.1
		c-0.3-2-1.2-4-2.7-5.6c1.9-0.4,3.9-0.8,5.8-1.2c3.9,5.8,3.5,12.7,3.8,19.1c0.7,14.8-1.4,29.6-2.9,44.3
		C525.1,390,524.6,390.3,524.3,390.7z"/>
	<path class="st5" d="M525.4,293.9c9.9,8.6,5.7,19.4-2.1,25c-1.6,1.2-3.3,0.3-3.6-1.6c-0.3-1.9-0.3-3.8,0.8-5.6
		c1.6-2.5,3.6-4.9,4-8.1C524.8,300.6,525.8,297.7,525.4,293.9z"/>
	<path class="st2" d="M499,391.6c0,1.3,0.3,2.6-1,3.5c-1.7,1.2-2.9-0.5-3.7-1.1c-1.7-1.3-3.3-2.8-4.4-5c-1.1-2.4-0.8-3.9,1.1-5.5
		c2.2-1.9,4.3-0.2,5.3,1.2C497.8,386.6,499.4,388.8,499,391.6z"/>
	<path class="st6" d="M491.3,403.4c2.9-0.2,7.6,4.4,7.7,7c0,1.6-0.8,2.4-2.3,2.6c-2.5,0.2-7.2-4.4-7.3-7
		C489.3,404.4,490.2,403.7,491.3,403.4z"/>
	<path class="st2" d="M521.5,389.4c0.1,1.5,0.3,3.1-1.2,3.9c-1.8,0.8-2.7-1-3.4-2c-2-2.9-4.8-5.8-2.1-9.8c0.5-0.8,1.2-2,2.2-1.4
		C520.3,382.2,521.7,385.5,521.5,389.4z"/>
	<path class="st7" d="M520.5,406.9c0,2.5-0.5,4.5-2.6,4c-3.1-0.7-4.1-3.4-4.2-6.3c-0.1-2.1,1.1-4.1,2.8-3.9
		C520.2,401.3,519.5,405.2,520.5,406.9z"/>
</g>
</svg>
