<?xml version="1.0" encoding="utf-8"?>
<!-- Generator: Adobe Illustrator 23.0.1, SVG Export Plug-In . SVG Version: 6.00 Build 0)  -->
<svg version="1.1" id="Layer_4" xmlns="http://www.w3.org/2000/svg" xmlns:xlink="http://www.w3.org/1999/xlink" x="0px" y="0px"
	 viewBox="0 0 1000 1000" style="enable-background:new 0 0 1000 1000;" xml:space="preserve">
<style type="text/css">
	.st0{fill:#FB9A7A;}
	.st1{fill:#6E3720;}
	.st2{fill:#BFBFBF;}
	.st3{fill:#730000;}
	.st4{fill:#FEFEFE;}
	.st5{fill:#FE0000;}
	.st6{fill:#7F7F7F;}
	.st7{fill:#C0FEFE;}
	.st8{fill:#808080;}
	.st9{fill:#00407F;}
</style>
<g>
	<path class="st0" d="M539.1,476.6c-6.9,4.5-14.9,6.5-22.4,9.5c-20,8.2-40.2,15.7-60.3,23.5c-0.4,0.2-1,0-1.4,0
		c-2.3-4.7-1.5-9.9-2-14.9c-2.1-21.5-8.4-41.6-17.4-61.2c-10.1-21.9-19-44.4-23.7-68.1c-3-14.8-4.7-30-1.8-45.1
		c3.3-17.4,12.3-31.3,27.7-40c20-11.3,41.6-17.5,64.8-16.9c1.1,0.1,2.3,0.4,3.1,1.2c6.7,5.8,14.2,6.5,22.3,3.8
		c8.8,1.1,16.8,3.9,23,10.6c-2.9,4.8-6.9,8.8-9.5,13.9c-3.4,6.5-6.1,13.2-6,20.7c-1.2,13.6-2.4,27.1-3.4,40.7
		c-1,13.1-2.2,26.1-0.3,39.2c0.4,2.9,1,5.8,2.6,8.3c3.6,3,5.8,2.6,7.4-1.6c1.3-3.3,1.4-6.9,2.5-10.2c4.9-15.7,8.4-31.6,10.9-47.8
		c1.3-8.3,1.9-16.7,3.2-25c1.9-4.5,5.5-7.8,7.7-12.1c0.3-0.6,1.1-0.5,1.6,0c2.3,7.4,0.3,14.8-0.5,22.2c-2.5,22.1-9.2,43.2-18.1,63.5
		c-2.4,5.5-3,10.7-1,16.5c1.9,5.7,2.8,11.7,1.1,17.7c-2.8,9.9-13.3,17-23.5,15.6c-11.2-1.5-21.9-4.1-31.8-10.1
		c-12-7.3-24.1-6.3-35.7,1.6c-0.9,0.8-1.8,1.7-2.5,2.7c-1.2,1.7-1.5,3.6-1.2,5.6c1.4,10.4,2.2,21,5.3,31.2c1.3,4.2,2.8,8.4,6.9,10.8
		c3.5,1.4,6.2-1,9.3-1.8c1.7-0.5,3.2-1.6,4.9-2.1c15.9-4.5,32.1-7.7,48.3-10.6C538.7,466,539.7,467,539.1,476.6z"/>
	<path class="st1" d="M503,264.5c-21.9,0-42.7,5.3-61.9,15.6c-17.4,9.4-27.5,24.1-29.9,43.8c-3.1,25.1,2.7,48.7,10.9,72.1
		c6.7,18.9,15.2,37,22.8,55.6c4.6,11.2,7.2,23.2,8.4,35.4c0.8,7.5,2.2,15,1.8,22.6c-4.2-3.1-4-7.9-5.1-12.3
		c-4.5-17.5-11-34.2-18.2-50.7c-7.6-17.2-15.8-34.1-21-52.2c-4.5-15.7-8.2-31.5-9.5-48c-1.1-12.6-1-24.9,3.2-36.9
		c4.5-12.8,12.6-22.9,23-31.7c9.9-8.3,21.1-14,33.1-18.2c10.6-3.7,21.6-5.2,32.7-5.9C497.5,256.4,501.2,259.6,503,264.5z"/>
	<path class="st1" d="M457.1,431.5c8.7-7.9,23.1-9.8,34.1-4.3c7.3,3.6,14,8.5,22.3,9.7c8.1,1.1,15.8,4.3,24.3-0.1
		c9.4-4.8,12.3-15.2,10.6-23.6c-0.6-3-1.3-5.9-2.4-8.7c-2.7-6.7,1.3-12.2,3.5-17.8c5.4-13.5,10.4-27.1,13.3-41.5
		c2.7-13.4,5.2-26.8,4.7-40.5c-1.6-1.7-0.7-3.7-0.5-5.6c0.5-4.1,0-8.1-2-11.8c-3-5.7-7.2-9.4-14.2-8.1c-6.8-4.9-14.1-8.6-22.4-9.8
		c2.4-3.6,5.1-7.1,8.7-9.6c5.9,2.8,12.2,4.6,17.6,8.7c10.8,8.3,20.6,17.2,22.3,31.8c0.5,4.3,0.6,8.8,0.2,13.1
		c-2,23-7,45.3-14.7,67.1c-2,5.6-4.8,11-7.5,16.4c-1.1,2.2-1.2,4,0,6.2c10.5,18.5,1.6,31.9-11,43.7c-3.1,2.9-7.6,2.7-11.6,3.7
		c-2,1.1-4.2,1.4-6.4,0.9c-10.9-1.2-20.5-5.7-29.7-11.2c-3.6-2.2-7.5-3.9-11.3-5.7c-6.3-3-12.9-4.1-19.9-2.7
		C462.4,432.1,459.7,433.6,457.1,431.5z"/>
	<path d="M537,259.7c-2.2,3.9-4.9,7.2-8.7,9.6c-8.7,3.6-16.6,2.6-23.5-4.3c-0.4-0.4-1.2-0.4-1.8-0.6c-3.3-3.6-6.6-7.1-9.9-10.7
		c-2.2-3.4-2.9-7.3-3.8-11c-1.4-6.4,3.7-12.2,10.5-12.3c14.3-0.2,24.7,7.8,34.1,17.2C537.1,250.8,537.8,255.3,537,259.7z"/>
	<path class="st1" d="M539.1,476.6c-0.2-0.6-0.3-1.2-0.5-1.9c-2.2-7.4-2.1-7-10.4-5.5c-16,2.9-31.8,6.8-47.7,10.1
		c-0.3-1.6,0.8-2.5,1.9-3c13.4-6.7,27.4-11.6,42.3-13.6c0.3,0,0.5,0.1,0.8,0.1c4.8,0.6,9.4-1.5,14.3-1c2.5,0.3,5,0.4,6,2.9
		c1,2.4-0.9,4-2.6,5.2C540.9,471.6,540.7,474.5,539.1,476.6z"/>
	<path class="st2" d="M525.4,450.2c2.3,0.1,4.6,0.1,6.8,0.2c-1.7,3.5-3.4,7.1-7.9,7.7c-2.3,2-5.1,1.1-7.7,1.4
		c-2.7,0-5.3,0.1-7.9-0.3c-9.1-1.1-18.3-1.1-27.4-2.6c-5.4-0.9-10.9-1.2-16.3-2.2c-2-0.4-4.8-0.1-5-3.4c5.1-1.7,10.2-0.1,15.3,0.1
		c13.6,0.5,27.2,1.8,40.8,1.5C519.5,452.6,522.1,450,525.4,450.2z"/>
	<path class="st3" d="M516.6,458.2c2.6,0,5.2-0.1,7.7-0.1c0.4,1.6,0.8,3.2,1.1,4.8c0,0-0.2,0-0.2,0C522,462,518.8,461,516.6,458.2z"
		/>
	<path class="st4" d="M515.6,407.4c-8.7,12.4-21,5.3-27.4-4.4c-14.2-21.3-21.1-45.4-25.9-70c-1.6-8.2-2.4-16.9-0.4-25.5
		c2.4-10.2,9.6-16,17.8-21.1c10.5-6.5,21.6-9.6,34-7.2c5.5,1.1,8.1,4.7,9.7,9.5c2.5,7.2,2.9,14.8,3.7,22.3
		c1.7,15.7,1.7,31.5,0.9,47.2c-0.6,11.3-1.1,22.7-5.5,33.5c-2.4-2.6-1.3-5.9-1.4-8.8c-0.1-3.6-1.2-6.6-3.7-9.2
		c-2.3-2.4-4.5-2.2-6.8,0c-1.3,1.3-2.2,2.8-2.9,4.5c-3.9,9.2-0.8,21.8,6.9,28.2C515.2,406.5,515.4,406.9,515.6,407.4z"/>
	<path class="st4" d="M525.4,450.2c-3.3,3.4-7.3,4-11.9,4c-15.9,0-31.6-1.5-47.5-2.1c-2.1-0.1-4-1.4-6.2-0.9c-1.8,0.1-2.8-1-3.2-2.4
		c-1.5-4.9-3.5-9.8-1.7-15.2c0.4-1,1.1-1.7,2.1-2.2c3.6-0.6,7.1-1.4,10.7-1.8c6.2-0.6,12,0.8,17.6,3.3c9.2,4.2,17.7,9.7,27,13.7
		C516.7,448.6,521.4,448.1,525.4,450.2z"/>
	<path class="st4" d="M534,403.3c-3.2-2.6-3.2-6.6-3.6-10.1c-1.9-13.8-1.2-27.6,0.8-41.4c0.6-4.6,0.5-9.3,0.8-14
		c0.6-8.5,1.8-16.9,2.3-25.4c1.1-0.2,1.9,0.5,2.5,1.2c2.7,3.2,6.2,4.4,10.3,4.4c1.6,0,3.3,0.1,4.4,1.6c0.5,1,0.8,2.2,0.7,3.3
		c-1.6,15.5-3.6,31-7.1,46.2c-0.2,1-0.7,1.8-1.3,2.6c-0.5,0.5-1.1,0.6-1.7,0.3c-4.7-2.3-5.5-2.1-7.6,2.7c-1.6,3.8-2.3,7.8-1.4,11.9
		c1,4.8,0.1,9.8,1.8,14.4C535,401.9,534.7,402.7,534,403.3z"/>
	<path d="M550.8,319.5c-6.5,0.1-12.9-0.2-16.5-7c1-13.3,6.8-24.2,16.4-33.3c7.2-2.5,14.2,1.9,16.7,10.2c1.6,5.2,0.7,10.2,0,15.3
		c-2,4.3-4.6,8.2-7.9,11.7c-0.5,1.2-1.4,1.9-2.6,2.3C554.9,319.2,552.9,320.2,550.8,319.5z"/>
	<path class="st3" d="M455,433.7c0.9,6.1,0.3,12.5,4.9,17.6c4.1,2.7,8.9,2.2,13.3,2.7c11.1,1.4,22.2,3.6,33.5,3.1
		c0.7,0,1.4,0.7,2.1,1c0.1,1.3-0.9,1.6-1.9,1.8c-14.4,3-25.7,11.2-36.2,20.8c-1.2,1.1-2.2,2.4-4,2.6c-5.1-1.5-6.2-6.3-7.6-10.3
		c-3.8-10.7-4.4-22.1-5.9-33.3C452.9,437.6,452.9,435.3,455,433.7z"/>
	<path class="st5" d="M466.7,483.4c11.7-12.4,25.2-21.6,42.1-25.2c2.6,0,5.2,0,7.8,0c3.2,0.9,6.2,2.3,8.6,4.7
		c-9.7,2.9-19.4,5.7-29,8.8c-5.6,1.8-11.3,3.6-15.8,7.7C476.2,481.7,472,484.5,466.7,483.4z"/>
	<path d="M515.6,407.4c-3.8-0.8-6.3-3.1-7.6-6.5c-2.6-7.2-4.4-14.5-2.1-22.2c1.5-4.7,5.9-8.9,9.1-8.6c3.2,0.4,7.3,6.6,7.4,11.2
		c0.1,3.4,0.1,6.8,0.2,10.2c-0.4,3.1-0.2,6.3-1,9.5C520.8,404.7,519.1,406.7,515.6,407.4z"/>
	<path d="M534,403.3c-2.1-6.7-2.1-13.6-2.7-20.5c-0.3-3.5,0.9-6.8,2.5-9.9c3.2-6.1,5.3-6.3,9.1-0.8c2.4,1.5,2.2,4.3,3.1,6.6
		c0.7,4,0,8-0.9,11.9c-0.7,3.6-1.1,7.2-2.2,10.6C541.3,405.8,537.7,406.5,534,403.3z"/>
	<path class="st4" d="M545.1,390.6c-0.1-4.2-0.2-8.4-0.2-12.6c1.3-12.4,5.2-24.4,7.1-36.7c0.9-5.6,2.1-11.2,2.6-16.8
		c0.2-2.4,0.5-4.9,2.1-6.9c0.9-0.4,1.9-0.8,2.8-1.2c-0.3,11.3-2.4,22.3-4,33.5c-1.8,12.7-5.7,25-8.6,37.4
		C546.5,388.5,546.1,389.7,545.1,390.6z"/>
	<path class="st6" d="M503.1,235.3c9.8,1.1,16.7,5.1,23.2,9.6c4.3,2.9,5,5.2,1.6,9c-2.3,2.6-4.5,2.9-6.8,0.1c-1.8-2.1-3.7-4-5.2-6.2
		C512.7,243.1,508.4,239.6,503.1,235.3z"/>
	<path class="st7" d="M519.5,289.2c-6.9-0.5-12.8,0.4-18.7,1.5c-15.7,2.9-21.7,13.1-22,28.2c-0.5,26.2,5,51.6,13.8,76.3
		c1.3,3.8,2.8,7.5,3.6,11.6c-2.6-3.5-5.8-6.8-7.8-10.6c-10.6-19.5-17.7-40.2-20.5-62.3c-0.7-5.1-1.4-10.2-1.9-15.3
		c-1.1-12.3,3.8-21.9,14.1-28.4c9.6-6.1,20.1-9.5,31.8-7.1C514.9,283.8,517.1,285.7,519.5,289.2z"/>
	<path class="st7" d="M556.7,317.5c-0.8,12.9-3.6,25.5-6.1,38.2c-1.2,5.8-2.4,11.7-3.7,17.5c-0.4,1.7-0.6,3.5-2,4.8
		c-0.6-1.9-1.3-3.9-1.9-5.8c3.8-17.4,6.6-34.9,7.9-52.6C552.4,317.7,554.9,318.9,556.7,317.5z"/>
	<path class="st8" d="M560,286.4c7.9,7.1,5.4,20.4-4.1,24.5c-2.8,1.2-3.9,0.3-4.2-2.5c-0.2-1.8,0.5-3.3,1.5-4.5
		c2-2.6,3.4-5.5,4.4-8.5C558.5,292.5,559.2,289.6,560,286.4z"/>
	<path class="st4" d="M510.7,377.5c-0.4-2,0.9-3.1,2.2-4c1.6-1.1,2.4,1,3.7,1.1c0.1,0,0.2,0.2,0.3,0.3c2.1,2.9,4.7,5.8,3,9.7
		c-0.4,0.9-1.2,2.6-3.3,1.7C512.6,384.6,511.7,381,510.7,377.5z"/>
	<path class="st9" d="M508.8,396.8c0-1.8,0.7-3.7,2.7-3c3.3,1.2,5.5,3.9,6,7.5c0.3,1.9-0.8,3.1-2.8,2.9
		C511.8,403.9,508.7,400,508.8,396.8z"/>
	<path class="st4" d="M542.9,380.9c0.2,1.6,0.1,3.1-1.5,3.8c-1.6,0.7-2.6-0.7-3.7-1.6c-1.6-1.4-2.3-3.4-3.1-5.2
		c-1.2-2.9,0.6-5.2,2.8-6.3c2.1-1,3,1.4,3.8,3.2C542.1,376.7,543.2,378.6,542.9,380.9z"/>
	<path class="st9" d="M541,398.3c0.2,2.7-1,5-2.9,4.6c-3-0.6-3.8-3.6-3.9-6.5c-0.1-2.2,0.8-4.6,2.7-4.4
		C540.6,392.4,540.1,396.2,541,398.3z"/>
</g>
</svg>
