<?xml version="1.0" encoding="utf-8"?>
<!-- Generator: Adobe Illustrator 23.0.1, SVG Export Plug-In . SVG Version: 6.00 Build 0)  -->
<svg version="1.1" id="Layer_4" xmlns="http://www.w3.org/2000/svg" xmlns:xlink="http://www.w3.org/1999/xlink" x="0px" y="0px"
	 viewBox="0 0 1000 1000" style="enable-background:new 0 0 1000 1000;" xml:space="preserve">
<style type="text/css">
	.st0{fill:#FB9A7A;}
	.st1{fill:#6E3720;}
	.st2{fill:#730000;}
	.st3{fill:#FE0000;}
	.st4{fill:#BFBFBF;}
	.st5{fill:#FEFEFE;}
	.st6{fill:#7F7F7F;}
	.st7{fill:#C0FEFE;}
	.st8{fill:#00407F;}
</style>
<g>
	<path class="st0" d="M539.1,476.6c-6.9,4.5-14.9,6.5-22.4,9.5c-20,8.2-40.2,15.7-60.3,23.5c-0.4,0.2-1,0-1.4,0
		c-1-1.7-1.4-3.7-1.3-5.6c1.3-29.3-6.7-56.6-17.4-83.4c-6.7-16.9-13-34.1-17.4-51.8c-5.4-21.1-7.2-42.7-4-64.3
		c2.6-17.4,11.8-31.2,26.2-41.3c15.1-10.6,31.9-18.1,50.3-19.9c19.6-1.8,38.6,1.6,55.9,11.6c1.8,1,3.7,2.1,4.7,4.1
		c0.5,2.7-1.8,3.9-3.1,5.7c-6.7,9-12.8,18.3-12.6,30.2c-1.1,13.6-2.5,27.2-3.3,40.8c-0.5,8.1-1.2,16.2-1.5,24.3
		c-0.2,6.6-1.8,13.2-0.1,19.8c0.6,2.3,0.9,4.8,1.9,7c0.5,1,1,2,1.7,2.9c2.8,4.2,4.5,4.2,7.3,0c0.7-1,0.8-3.2,3-1.9
		c2.7,6,4.2,12.4,4.5,18.8c0.6,12.8-9.9,21.4-22.6,19.9c-13.7-1.6-24.5-9.2-35.5-16.4c-3.4-2.2-6.9-4.3-10.6-5.9
		c-9.6-4.1-18.7-3.5-27,3.1c-1.3,1.2-2,2.7-2.4,4.4c-0.9,6.7,0.6,13.2,1.7,19.7c2.4,14.4,4.9,28.7,9,42.7c1.5,5.2,3.4,10.1,6.5,14.5
		c2.9,3.3,6.2,3.3,9.9,1.2c1.8-1,3.5-2.2,5.4-3c15.2-6.6,30.6-12.7,46-18.8c1.2-0.5,2.4-0.9,3.7-1.3c5.8-1.8,7.3-0.6,5.8,5.3
		C539.5,473.7,539.9,475.2,539.1,476.6z"/>
	<path class="st1" d="M453.2,407.1c9.1-8,18.6-9,31.5-2.5c7.5,3.8,14.5,8.7,21.6,13.4c7.3,4.8,15.4,7.1,23.9,7.7
		c11.3,0.9,20.9-11,18.3-22.1c-1.2-5.3-2.4-10.6-3.6-15.9c-1.6-2.1-0.4-4.2,0.2-6.2c10.4-26.6,19.2-53.5,21.1-82.3
		c0.3-4.2,0.9-8.4,0.8-12.6c1.1-6.1,1.7-12.1-1.5-18c-3-5.6-7.1-9-13.6-8.8c-10.1-8.4-22.2-11.7-34.7-13.7c-6-1-12-2.1-18.2-2
		c-17.6,0.3-33.4,6.7-48.6,14.9c-10.9,5.9-19.9,13.9-26.4,24.6c-4.1,6.6-6.4,13.9-7.8,21.5c-1.5,7.8-1.2,15.8-1,23.7
		c0.6,17,2.9,33.7,8.1,50.1c7,22.3,16.2,43.8,23.3,66c4,12.3,6.8,24.9,7.8,38c0.7,8.9,0.4,17.8,0.7,26.7c-4.8-4.1-4.6-10.2-5.6-15.5
		c-4.1-21.8-10-43-18.4-63.6c-9.6-23.4-17.5-47.4-22.6-72.1c-3-14.8-4-30-3.1-45.2c1-16.2,6.2-30.6,17.2-43.3
		c15.9-18.4,35.5-29.5,58.9-34.4c7.6-1.6,15.5-2.8,23.4-2.2c0.6-0.3,1.3-0.3,1.9,0.1c6.7,4,13.7,5.7,21.3,3.3
		c0.4-0.1,0.9,0.3,1.3,0.5c12.4,2.3,23.4,7.4,32.8,15.9c8.9,8.1,14.7,18,15,30.3c0.4,16.7-2.7,33-6,49.3
		c-2.8,13.8-7.2,27.1-11.4,40.4c-1.3,4.3-3.6,8.1-5.7,12c-1,1.9-1.1,3.5,0.1,5.2c8.1,11.2,3.9,26.7-2.5,36
		c-2.6,3.8-4.3,8.8-9.4,10.4c-1.7,2.3-4.2,2.1-6.7,2.2c-14.2,0.1-25.8-6.9-37.4-13.8c-5-3-9.7-6.6-14.6-9.7
		c-7.1-4.6-14.8-7.3-23.4-6.9C457.7,408.6,455.1,409.2,453.2,407.1z"/>
	<path class="st2" d="M468.7,490.4c-3.6-3.6-5.3-8.3-6.7-13c-4.6-15.2-7.5-30.8-9.9-46.6c-0.8-5.5-1.4-11.1-1.9-16.6
		c-0.1-1-0.6-2.3,0.8-3c2.2,0.6,2.2,2.6,2.6,4.3c1.3,5.3,2.6,10.7,4,16c0.9,3.4,2.4,6.4,5.6,8.1c5.3,2.5,11,2.5,16.6,3.3
		c14.7,1.9,29.6,2.9,44.4,4c1.5,0.1,2.9,0.2,4,1.4c-1,1.6-2,3.2-3,4.9c-6.8,0.5-13.5,1.1-20.1,3.2c-10.5,3.4-17.8,11-24.7,19.1
		c-3.3,4-6.5,8.1-9,12.7C471,489.2,470.4,490.6,468.7,490.4z"/>
	<path d="M529.3,237.2c-9,4-17,1.5-24.5-3.9c-7.5-6.5-13.9-13.6-14.7-24.3c-0.4-6.4,4.4-9.3,8.9-9.7c11.3-1,21.3,2.3,29.5,10.4
		c3.3,3.2,7,6.1,8.6,10.7c2.1,6-0.2,11.3-6.9,15.9C529.9,236.6,529.6,236.9,529.3,237.2z"/>
	<path class="st3" d="M468.7,490.4c5.4-9.2,11.7-17.7,19.5-25.1c7.3-6.9,15.7-11,25.7-12.2c3.8-0.5,7.5-2.1,11.3,0
		c1.3,1.4,1.4,3.1,1,4.9c-1.1,3-5.1,4.4-4.4,8.4c-0.6,1.5-2,2.1-3.3,2.7c-11.8,5.7-23.3,11.8-34.1,19.1c-4.3,2.7-8.2,6.7-14,3.9
		C469.7,491.7,469.3,490.9,468.7,490.4z"/>
	<path class="st1" d="M484.4,488.1c8.5-8.2,19.2-12.8,29.5-18.1c2.6-1.3,5.4-2.1,7.5-4.2c3.6-4.2,9.2-3.7,13.7-5.8
		c1-0.3,2.1-0.3,3.2-0.7c2.2-0.8,4.8-1.3,6.6,1.1c1.9,2.5,1.5,5.4-0.2,7.5c-2.3,2.7-3.4,6-5.6,8.6c-0.6-2.1-1.6-4.2,0.1-6.3
		c0.6-0.8,1-1.6,0.1-2.6c-1.1-1.2-2-0.4-3,0c-10.1,4-20.2,7.8-30.3,11.8C498.8,482.3,491.6,485.2,484.4,488.1z"/>
	<path class="st4" d="M528.3,448.3c-14.9-0.8-29.8-1.7-44.6-3.8c-6.9-1-13.9-1.5-20.8-3.2c-0.4-0.1-0.7-0.5-1.1-0.8
		c1.1-1.3,2.6-1.4,4-1.2c13.5,2,27.2,2.1,40.8,3.3c7.2,0.6,14.3,0.3,21.4-0.9c3-0.5,4.7-2.8,7.1-4.1c2.3-0.4,4.8,0.3,7-1
		C538.9,446.1,539.2,447.7,528.3,448.3z"/>
	<path class="st2" d="M535.1,460.1c-4.3,2.6-9.1,4-13.7,5.8c-2.4-5.1,2.6-5.6,4.8-7.9C528.4,462.1,532,460.2,535.1,460.1z"/>
	<path class="st5" d="M514.8,397.4c-7.3,10.5-18.2,5-24.5-3.8c-4.7-6.6-7.6-14.2-10.4-21.7c-5.8-16-11.3-32.1-13.9-49
		c-1.9-12-1.9-24.1,1-36.1c2.4-10,10.1-15.3,18.2-20.2c7.9-4.7,16.6-6.8,25.8-6.9c8.2-0.1,13.9,4,15.2,11.8
		c1.4,8.4,3.2,16.7,3.3,25.3c0.1,5.1,1.1,10.3,0.7,15.5c-1.4,20.1-1.3,40.3-4.9,60.2c-0.3,1.5-1.1,2.9-1.7,4.4
		c-2.3-2.3-1.3-5.5-2.2-8.2c-1.1-3.2-1.9-6.5-5.8-6.8c-4-0.3-6.1,2.6-7.7,5.7c-3.5,7.2-1.1,20.5,4.7,26.3
		C513.5,395,514.9,395.7,514.8,397.4z"/>
	<path class="st5" d="M535.1,437.6c-0.8,4.6-4.1,5.3-8.1,5.8c-18.1,2.2-36.1-0.5-54.1-2c-3.7-0.3-7.4-0.6-11.1-0.9
		c-6.3-4.2-5.6-11.5-7.7-17.6c-1.4-3.8-1.3-8-3.1-11.7c0.1-1.7,0.2-3.4,2.1-4.1c9.9-0.1,19.8-0.1,28.6,5.7c5.6,3.8,11.2,7.6,17,11.2
		C510,430.8,521.4,437.4,535.1,437.6z"/>
	<path class="st5" d="M533,388.7c-3.5-6.6-4.7-13.9-3.5-21c1.1-6.7,1-13.5,1.4-20.2c0.8-15.2,2.7-30.2,3.3-45.4
		c0.1-2.7,0.7-5.4,1-8.1c1.1-0.2,1.9,0.5,2.5,1.2c3,3.6,6.8,4.7,11.3,4.3c1.2-0.1,2.6-0.4,3.4,1.1c0.3,9.9-1.2,19.7-2.6,29.5
		c-1.2,8.5-3.1,16.9-4.7,25.4c-0.3,1.5-0.7,2.8-1.8,3.9c-7.8,0.2-9.7,2.3-9.8,10.9c-0.1,4.8-0.4,9.7,0.5,14.5
		C534.5,386.1,534.4,387.6,533,388.7z"/>
	<path d="M551.7,300c-7.2,2.3-11.9,0.6-16.5-6c0-11.9,6.3-21.2,13-30.2c1.1-1.4,2.4-2.6,3.6-3.9c5.5-1.7,8.6-0.7,12.1,4
		c5.1,6.8,6.6,14.2,4.3,22.3c-1,4.7-3.7,8.3-7.3,11.3c-1.3,1.1-2.8,1.8-4.4,2.4C555,300.4,553.4,301.1,551.7,300z"/>
	<path d="M514.8,397.4c-9.7-5.1-12-23.1-8-30.8c1.7-3.4,4.2-6,8.3-6.3c2.8-0.2,5.3,1.2,6.2,3.6c1.1,3,2.3,6.2,2.2,9.6
		c0,1.1,0.1,2.3,0.1,3.4c0,5.4-0.7,10.7-2.2,15.8C520.4,395.7,518.7,398.2,514.8,397.4z"/>
	<path d="M533,388.7c-0.9-6.5-0.8-13.1-0.9-19.7c0-3,0.9-5.7,2.2-8.1c2.3-4.2,4.5-4.4,8.5-1.4c2.2,1.4,2.7,3.8,3.4,6.1
		c0.8,3.2,1.1,6.4,1,9.7c-0.3,2.2-0.4,4.4-1.2,6.5c-0.4,2-0.7,4-1.1,6c-0.2,0.1-0.4,0.1-0.4,0.2c-1.2,2.6-1.4,6.3-5.2,6.6
		C535.6,394.7,534.7,391.1,533,388.7z"/>
	<path class="st0" d="M546,381.7c0-2.3,0-4.5,0.1-6.8c2.9-17.4,8-34.4,10.3-51.9c0.8-5.6,1.6-11.2,1.9-16.9c0.1-3.2,0.6-6.5,2.2-9.4
		c3.3-3.1,5.5-6.9,7.9-10.7c-0.5,20.5-3.8,40.4-9.5,60.1c-3.2,11.1-7.9,21.6-11.1,32.7C547.4,380,546.6,380.8,546,381.7z"/>
	<path class="st6" d="M506.2,204.5c9.5,1.9,18.9,3.4,24.3,12.8c1.9,3.3-0.6,4.5-2.2,5.9c-1.7,1.4-3.9,2.6-5.8,0
		C517.5,216.4,513.2,209.4,506.2,204.5z"/>
	<path class="st7" d="M521.5,270.5c-7-0.3-13,0.6-18.9,2c-11.1,2.5-17.7,9.4-20,20.6c-2.2,11.1-0.4,22.2,0.4,33.3
		c1.8,23.5,8.7,45.8,15.3,69.7c-7.8-9.5-12.3-19.1-16-29.1c-6.7-18-11-36.4-12.8-55.5c-0.7-7.4-0.6-14.5,0.8-21.6
		c3.1-15.2,17.2-22.2,30.2-25.2c2.3-0.5,4.8-0.7,7.2-1C513.2,263.1,517.5,265.2,521.5,270.5z"/>
	<path class="st7" d="M545.1,365.2c-0.7-1.9-1.5-3.9-2.2-5.8c4.3-19.6,7.3-39.4,8.8-59.5c1.6-0.3,3.3-0.7,4.9-1
		c1.5,1.4,1.4,3.2,1.3,5c-1.4,19.6-5.7,38.7-10.1,57.7C547.5,363.2,547.2,365,545.1,365.2z"/>
	<path class="st5" d="M545.1,365.2c3.6-9.9,5-20.2,7.1-30.4c2.4-11.8,4.2-23.7,4.5-35.8c1.3-0.7,2.5-1.4,3.8-2.1
		c-0.7,10.9-1.9,21.7-3.7,32.5c-2.5,14.9-5.8,29.5-9.8,44c-0.2,0.6-0.6,1.1-0.8,1.6C545.7,371.7,545.4,368.5,545.1,365.2z"/>
	<path class="st6" d="M560.8,267.7c5,3.5,5.2,8.1,4.4,12.8c-0.9,5.1-4.2,9-8.9,11.1c-2.5,1.1-3.4-0.6-3.6-2.9
		c-0.2-2.9,1.7-4.9,3.2-6.8C559,277.8,560.2,273.2,560.8,267.7z"/>
	<path class="st5" d="M520.5,372.2c0.6,2-0.7,3.7-2.4,4.5c-1.6,0.8-2.3-1.4-3.4-2.1c-2.1-1.4-2.7-3.9-3.8-5.9c-1.1-2,0-3.9,1.8-4.9
		c1.9-1.2,3.9-0.6,5,1.3C519.1,367.1,520.7,369.2,520.5,372.2z"/>
	<path class="st8" d="M518.4,390.6c-0.4,1.5-1.4,2.7-3.2,2.9c-2.5,0.2-6.2-3.6-6.3-6.5c-0.1-1.7,0.5-2.9,2.3-3.1
		C513.3,383.6,518.3,388.1,518.4,390.6z"/>
	<path class="st5" d="M542.9,369.6c0.1,1.7,0.4,3.6-1.5,4.2c-1.7,0.6-2.4-1.3-3.3-2.3c-2.5-2.4-4.2-5.1-2.1-8.8
		c0.7-1.2,1-2.3,2.5-2.4c1.7-0.1,3.1,1.3,3.2,2.4C541.9,365.2,543.5,367.3,542.9,369.6z"/>
	<path class="st8" d="M541,386.9c0,2.4,0,4.7-2.4,4.5c-3.2-0.3-4.1-3.1-4.4-5.9c-0.3-2.2,0.9-4.5,2.8-4.2
		C540.1,381.7,540.8,384.7,541,386.9z"/>
</g>
</svg>
