<?xml version="1.0" encoding="utf-8"?>
<!-- Generator: Adobe Illustrator 23.0.1, SVG Export Plug-In . SVG Version: 6.00 Build 0)  -->
<svg version="1.1" id="Layer_4" xmlns="http://www.w3.org/2000/svg" xmlns:xlink="http://www.w3.org/1999/xlink" x="0px" y="0px"
	 viewBox="0 0 1000 1000" style="enable-background:new 0 0 1000 1000;" xml:space="preserve">
<style type="text/css">
	.st0{fill:#FB9A7A;}
	.st1{fill:#6E3720;}
	.st2{fill:#730000;}
	.st3{fill:#FE0000;}
	.st4{fill:#BFBFBF;}
	.st5{fill:#FEFEFE;}
	.st6{fill:#7F7F7F;}
	.st7{fill:#C0FEFE;}
	.st8{fill:#808080;}
	.st9{fill:#00407F;}
</style>
<g>
	<path class="st0" d="M539.1,476.6c-6.9,4.5-14.9,6.5-22.4,9.5c-20,8.2-40.2,15.7-60.3,23.5c-0.4,0.2-1,0-1.4,0
		c-2-3.7-1.2-7.6-1.3-11.5c-0.2-21.6-2.6-42.9-9.7-63.4c-5.3-15.2-11-30.3-15.7-45.7c-7.4-24-12.6-48.5-12.6-73.8
		c0-7.8,1-15.6,2.8-23.2c4.7-19,16.1-33.1,32.6-43.2c16.4-10,34.4-15.8,53.6-15.8c13.5,0.1,26.9,2.6,39.1,9c3.4,1.8,6.9,3.7,9.2,7.1
		c0.4,1.5-0.4,2.5-1.3,3.4c-6.8,6.4-10.3,14.7-13.8,23c-1.6,3.7-1,7.6-1.1,11.5c-2.4,23.8-4.1,47.7-5.1,71.7
		c-0.3,7.5,0.7,14.8,2,22.1c0.3,0.9,0.7,1.8,1.1,2.6c2.4,5.3,3.4,5.4,7.5,1.2c0.7-0.7,1.3-1.5,2.4-1.2c5.2,7.9,7.2,16.3,3.6,25.3
		c-3,7.6-10.6,11.9-18.7,11.1c-8.3-0.8-16.2-3-23.4-7.5c-7-4.4-14-8.8-20.6-13.8c-10.5-7.9-20.8-7.7-31.3,0.2
		c-1.8,1.9-1.7,4.5-2.3,6.8c-1.4,7.9,0.7,15.5,1.8,23.2c2.5,16.4,4.9,32.8,10,48.6c1.3,4.1,3,7.9,5.2,11.5c3.7,5.3,5.1,5.6,10.8,2.6
		c1.6-0.8,3-1.9,4.7-2.6c15.3-6.7,30.9-12.8,46.4-19c1.1-0.4,2.1-0.8,3.2-1.1c2-0.5,4.1-1.7,5.9,0.3c1.6,1.8,0.3,3.7-0.2,5.5
		C539.5,475.3,539.5,476,539.1,476.6z"/>
	<path class="st1" d="M453.2,398.3c9.5-9,23-8.3,32-1.4c8.6,6.5,17.5,12.3,27,17.5c5.9,3.2,12.2,4,18.5,4.5
		c11.3,0.9,19.7-9.5,18-21.1c-0.7-4.8-1.9-9.6-4.6-13.8c-2-3.6,0-6.8,0.9-10.2c10.2-25.1,17.2-51.1,20.7-78c0.7-5.6,1.6-11.3,1.4-17
		c-0.1-2.3,0.4-4.5,0.7-6.8c0.7-4.9,0.2-9.7-2-14.3c-2.6-5.4-7.1-7.6-12.9-7.6c-11-9.9-24.6-12.9-38.8-14.8
		c-24.2-3.2-46,4.1-65.7,16.9c-16,10.5-26.5,25.6-29.6,45.4c-2.5,16.1-1.4,31.9,0.9,48c3.9,27.5,13.1,53.4,22.3,79.3
		c3.9,10.9,7.5,21.8,9.6,33.1c1.1,5.7,1.9,11.4,2.4,17.1c1.1,11.5,1.3,23,1,34.5c-4.4-3.4-3.8-8.7-4.8-13.3
		c-2.4-12.1-3.6-24.5-6.5-36.5c-3.8-15.7-9.7-30.6-15.5-45.6c-5.7-14.7-10.9-29.6-14.5-45c-2.1-9.1-4-18.3-4.7-27.7
		c-0.6-8.8-2.1-17.6-1.8-26.4c0.7-17.2,3.9-33.5,13.5-48.4c11.3-17.5,27.6-28,46.2-35.8c14.4-6.1,29.6-7.9,45-7.1
		c17.8,1,33.9,6.1,48,18.1c13.4,11.3,18.2,25.5,17,42c-1.7,23.3-6.5,46.1-12.9,68.6c-1.7,5.8-3.5,11.5-6.2,16.8
		c-4.2,8.3-3.6,16.3-1.2,25c2.9,10.7-0.4,20.4-6.9,29.1c-2,2.7-3.6,6.2-7.7,6.6c-1.7,2.3-4.2,2.1-6.6,2.2
		c-14.2,0.1-25.8-6.9-37.4-13.7c-5.2-3.1-9.8-6.9-14.5-10.8c-6.7-5.5-14.3-8.1-23-7.8C458.1,399.8,455.3,400.5,453.2,398.3z"/>
	<path class="st2" d="M468.7,490.4c-5.5-5.8-6.9-13.5-8.7-20.8c-4.1-17-7.3-34.2-9-51.7c-0.4-4.2-1.8-8.4,0-12.6
		c2.2,0.6,2.2,2.6,2.6,4.3c1.3,5.3,2.6,10.7,4,16c0.9,3.4,2.4,6.4,5.6,8.1c5.3,2.5,11,2.5,16.6,3.3c14.7,1.9,29.6,2.9,44.4,4
		c1.5,0.1,2.9,0.2,4,1.4c-1.6,2.4-2.8,4.9-3,7.8c-6.9,0.6-13.9,0.9-20.5,3.4c-14.8,5.5-23.7,17-31,30.2
		C472.4,486.2,472.3,489.7,468.7,490.4z"/>
	<path d="M506,182.6c6.9,0.5,14.3,4.2,21.4,9.2c4.2,3,8,6.5,10.5,11c3.9,7.1-2,17.8-10.3,19.9c-13.6,3.4-22.1-3.8-30.3-13.2
		c-2.7-3.1-5.3-6.5-6.2-10.9C489,187.9,493.1,182.6,506,182.6z"/>
	<path class="st3" d="M468.7,490.4c4.4-6.9,7.4-14.6,12.8-21c8.8-10.2,18.8-18,32.9-19.3c3.6-0.3,7.2-1.9,10.8,0.1
		c1.6,2,1.6,3.9,0,5.9c-0.2,0.8-0.4,1.6-1,2.2c-3.2,2.8-3.9,6.1-2.4,10c-0.5,1.5-1.9,2.1-3.2,2.8c-11.8,5.7-23.3,11.8-34.2,19.1
		c-2.2,1.3-4.3,2.8-6.6,3.9C473.5,496.2,471.1,495.1,468.7,490.4z"/>
	<path class="st1" d="M484.4,490.1c8.5-8.2,19.2-12.8,29.5-18.1c2.6-1.3,5.4-2.1,7.5-4.2c3.7-3.9,8.9-4.4,13.7-5.8
		c0.9-0.2,1.9-0.2,2.8-0.6c2.7-1,5.6-1.5,7.4,1.4c1.6,2.7,0.8,5.6-1.1,8c-1.6,2-3.3,3.8-5,5.7c0-0.2,0-0.3,0-0.5
		c0-8.1,0-8.1-8.2-4.7c-15.2,6.3-30.4,12.5-45.6,18.7C485.1,490.2,484.7,490.1,484.4,490.1z"/>
	<path class="st4" d="M528.3,442.4c-14.9-0.8-29.8-1.7-44.6-3.8c-6.9-1-13.9-1.5-20.8-3.2c-0.4-0.1-0.7-0.5-1.1-0.8
		c1.1-1.3,2.6-1.4,4-1.2c13.5,2,27.1,2.1,40.6,3.2c7.1,0.6,14.2,0.3,21.3-0.8c3.5-0.5,5.1-3.2,7.4-5.1c2.3-0.4,4.8,0.3,7-1
		c-0.3,0.8-0.6,1.5-0.8,2.3C539.4,439.9,538.7,442,528.3,442.4z"/>
	<path class="st2" d="M535.1,462.1c-4.3,2.6-9.1,4-13.7,5.8c-3-4.9-2.6-6.2,3.8-11.8C526.9,460.7,530.7,461.9,535.1,462.1z"/>
	<path class="st5" d="M514.8,391.6c-7.5,10.3-16.5,5.5-23.5-3.8c-7.6-10.2-10.9-22.4-14.7-34.3c-3.7-11.5-6.7-23.1-8.3-35
		c-1.9-13.8-4.1-27.6,0.6-41.5c3.3-9.7,10.3-15.6,18.6-20.6c6.7-4.1,14.2-6,21.8-7.2c8.6-1.3,16.7,6.5,18.1,17
		c2.7,19.8,3.5,39.6,2.7,59.5c-0.6,16.3-2.3,32.6-6.5,48.5c-2.4-3-1.3-6.8-2.3-10.2c-0.5-1.5-0.6-3.2-1.5-4.5c-3-4.3-7.2-4.3-10.2,0
		c-1.1,1.6-2,3.5-2.1,5.4c-0.2,9-1.3,18.3,6.7,25.1C514.7,390.2,514.9,390.9,514.8,391.6z"/>
	<path class="st5" d="M535.1,430.8c-0.3,5.2-3.7,6.3-8.2,6.8c-20.7,1.9-41.2-0.4-61.7-2.9c-1.1-0.1-2.3,0-3.4,0
		c-6.3-4.2-5.6-11.5-7.7-17.6c-1.4-3.8-1.3-8-3.1-11.7c0.2-2.5-0.2-5.2,2.1-7c5.2,0.2,10.4,0,15.5,0.6c9.5,1.2,16,7.9,23.1,13.3
		c11.2,8.5,23.3,15,37.1,18.2C530.8,430.9,533,430.7,535.1,430.8z"/>
	<path class="st5" d="M533,382.8c-3.2-12.1-3.4-24.3-2.1-36.6c0.7-6.9,0.8-13.8,1.3-20.7c1-12.8,2-25.6,3.1-38.4
		c0-0.4,0.5-0.7,0.8-1.1c5.1,2.7,10.9,3.1,16.2,5.3c1.8,4.4,0.1,8.7-0.4,12.9c-1.5,15-4,29.9-6.6,44.7c-0.3,1.6-0.6,3.2-1.8,4.4
		c-8.4,1-9.8,2.6-9.9,11.6c-0.1,3.4,0.2,6.7,0.6,10.1C534.6,377.7,535.4,380.5,533,382.8z"/>
	<path d="M551.7,291.2c-5.8,0.1-11.3-0.6-15.6-5.2c-2.6-5.6,0.3-10.6,2.4-15.3c3.5-7.6,7-15.5,14.3-20.7c6-1.9,10.1-0.2,13.5,5.8
		c3.1,5.4,3.7,11.3,2.5,17.2c-0.3,1.8-0.4,3.5-0.5,5.2c-1,4.1-3,7.7-6.4,10.4c-1.3,1.1-2.8,1.8-4.5,2.3
		C555.6,291.5,553.7,292.5,551.7,291.2z"/>
	<path d="M514.8,391.6c-8-4.3-8-12.2-8.8-19.7c-0.4-4.1-0.5-8.2,1.7-12.1c1.9-3.3,4.4-6,8.3-5.1c3.8,0.8,6,4,6.5,7.9
		c0.5,3.8,0.8,7.6,1.2,11.4c-0.5,4.1,0.6,8.4-1.4,12.2C520.7,389.3,519.1,392.3,514.8,391.6z"/>
	<path d="M533,382.8c0.8-6.6-1.5-13.1-0.9-19.7c0.2-2.7,0.8-5.3,2.1-7.6c2-3.9,5.2-4.5,8.7-1.9c2,1.2,2.5,3.2,3.2,5.2
		c0.9,3.1,1.4,6.3,0.8,9.5c-0.2,1.9-0.4,3.8-1,5.6c-0.6,3.3-1.3,6.7-1.9,10c-0.2,0.3-0.4,0.5-0.5,0.8c-1.2,2.2-2.4,5.1-5.2,4.8
		c-2.6-0.3-4.1-2.7-4.5-5.5C533.8,383.5,533.3,383.2,533,382.8z"/>
	<path class="st0" d="M546,373.9c0-1.9,0-3.8,0.1-5.8c4.9-24.3,10.7-48.5,13.1-73.2c0.2-2.5,1-4.8,2.2-6.9c3-2.7,4.6-6.5,6.9-9.7
		c-0.5,14.5-2.7,28.7-5.8,42.8C558.5,339.2,553.4,356.9,546,373.9z"/>
	<path class="st6" d="M506.2,188.2c10,1.3,17.7,4.8,24.1,10.8c3.9,3.6,0.2,6.2-2.2,8.7c-2.9,2.9-5.5,0.6-6.8-1.5
		C517.6,199.8,512.4,194.6,506.2,188.2z"/>
	<path class="st7" d="M497.6,388.8c-8.4-10.8-13.1-23.2-17.1-36.1c-4.9-15.5-7.4-31.4-9.5-47.4c-0.9-7.3-1.4-14.6,0.4-22.1
		c4-16.8,15.4-24.7,31-28.4c4.6-1.1,9.3-1.7,13.8,0.3c2.7,1.2,5,2.9,5.8,6.4c-9.4-1.5-18.1,0.1-25.9,4.7c-7.8,4.6-10.8,12.6-12.6,21
		c-2.4,11.7-0.8,23.5,0.4,35.3C486.3,345.1,491.1,367.1,497.6,388.8z"/>
	<path class="st7" d="M545.1,358.4c-0.8-1.6-2.1-2.9-2.2-4.8c3.9-20.7,7.3-41.4,8.8-62.4c2.1,0.2,3.7-1.7,5.9-1
		c2.7,3.5,0.8,7.2,0.4,10.8c-2.2,17.5-4.9,35-9.6,52C547.8,355,547.9,357.7,545.1,358.4z"/>
	<path class="st5" d="M545.1,358.4c4.4-11.3,6.6-23.3,8.4-35.1c1.7-11,4-21.9,4.1-33.1c1.3-0.7,2.5-1.4,3.8-2.1
		c-2.3,17.2-4,34.6-8.1,51.5c-1.9,8.1-3.7,16.2-5.4,24.3c-0.3,1.6-0.7,3.1-1.9,4.3C545.7,364.9,545.4,361.6,545.1,358.4z"/>
	<path class="st8" d="M560.7,257c8.4,8,6.5,20.3-3.3,25.2c-1.2,0.6-2.2,1.3-3.4-0.1c-1-1.2-1.8-2.2-0.9-3.8c0.7-1.3,1.1-2.7,2-3.8
		C559.1,269.5,560.3,263.6,560.7,257z"/>
	<path class="st5" d="M520.5,366.4c-0.3,1.7,0.9,4.3-2.3,4.7c-3.1,0.3-7.4-5.2-7.4-9.2c0-2.8,1.3-4.3,4-4.4
		C517.8,357.4,520.5,361.6,520.5,366.4z"/>
	<path class="st9" d="M518.5,385.6c0,1.7-0.6,2.8-2.4,2.9c-2.4,0.2-7.2-4.3-7.2-6.9c0-2.1,1.3-3.3,3.2-3.6
		C514.2,377.7,518.5,383,518.5,385.6z"/>
	<path class="st5" d="M543.9,364.5c0.5,2-0.6,3.4-2.2,4.3c-2,1.1-2.9-1.1-3.6-2.2c-1.7-2.6-4.3-5.1-2.1-8.9c1.7-3,3.3-2.8,5-0.6
		C542.6,359.2,544.2,361.4,543.9,364.5z"/>
	<path class="st9" d="M538,375.1c2.6,1.2,4,3.3,3.9,5.7c-0.1,2.1-0.2,5.5-2.6,5.5c-3-0.1-3.8-3.3-4.1-6.1
		C534.9,377.7,536,376.2,538,375.1z"/>
</g>
</svg>
