<?xml version="1.0" encoding="utf-8"?>
<!-- Generator: Adobe Illustrator 23.0.1, SVG Export Plug-In . SVG Version: 6.00 Build 0)  -->
<svg version="1.1" id="Layer_4" xmlns="http://www.w3.org/2000/svg" xmlns:xlink="http://www.w3.org/1999/xlink" x="0px" y="0px"
	 viewBox="0 0 1000 1000" style="enable-background:new 0 0 1000 1000;" xml:space="preserve">
<style type="text/css">
	.st0{fill:#FB9A7A;}
	.st1{fill:#6E3720;}
	.st2{fill:#FEFEFE;}
	.st3{fill:#C0FEFE;}
	.st4{fill:#7F7F7F;}
	.st5{fill:#00407F;}
</style>
<g>
	<path class="st0" d="M539.1,476.6c-6.9,4.5-14.9,6.5-22.4,9.5c-20,8.2-40.2,15.7-60.3,23.5c-0.4,0.2-1,0-1.4,0
		c-7.8-20.7-21.1-38-34-55.6c-13.4-18.3-25.8-37.2-33.6-58.7c-4.2-11.7-7.1-23.6-5-36.3c2.2-13.4,9.6-23.3,20.6-30.6
		c14.2-9.5,29.8-15.9,46.5-19.7c2.4-0.6,5-1.8,7.6-0.4c0,5.8,1.8,11.2,3.2,16.8c-0.4,1-1.3,1.6-2.3,2c-4.2,0.7-8.1,2.3-11.7,4.6
		c-9,5.6-12.5,13.5-11,24.1c2.1,15.4,9.5,28.6,17.1,41.7c4.9,8.3,10.3,16.2,16.9,23.3c4,4.3,8.5,8.1,14.4,9.7c8,2.1,13.9-0.4,18-7.7
		c4-7.2,4.7-15.2,4.8-23.2c0.1-18.9-2.1-37.6-7.3-55.9c-0.5-1.7-1-3.4-1-5.3c0.1-1.4,0.9-2.4,1.6-3.5c4-6.3,3.7-10.6-1.1-16.4
		c-2.4-2.9-5.5-5-8.4-7.4c-1.2-1-3.3-2-1.4-4.1c7.1-0.7,14.1,0,20.7,3.1c1.4,1.4,0.7,3,0.3,4.6c-0.5,1.7-0.9,3.5-1.6,5.1
		c-2.3,5.6-1.9,11,1.6,16c-1.6,23.1,1.1,46,3.3,68.9c0.2,2.6,0.9,5.1,2.1,7.5c0.6,1.2,1.1,2.5,1.7,3.8c0.4,1.3,1.3,2.2,2.2,3.2
		c2.2,2.4,3.9,1.7,5.4-0.7c1.3-2.1,2-4.4,2.6-6.8c5.4-21.9,7.1-44.1,6.7-66.6c-0.1-4.6-1.4-9-2.3-13.4c0.7-3.2,1.1-6.6,5-7.7
		c3.5,1.5,4,4.9,4.9,8c4.1,14.1,3.2,28.3,0.6,42.5c-2.2,12.2-4.7,24.3-9.1,35.9c-1.6,4.1-1.3,7.6,1,11.5c10,16.7,1.4,26.9-13.5,31.4
		c-10.5,3.2-21.2,0.9-31.9,0.1c-12.5-1-24.4,1.1-32.6,12.3c-0.4,0.5-0.8,1.1-1,2.3c7.3-3.4,14.6-5.4,22.3-6.5
		c3.9-0.5,7.8-0.7,11.7-0.6c11.2,0.2,22.4-0.2,33.6-1.6c1.3-0.2,2.6-0.2,3.9,0.1C531,460.3,539,471.2,539.1,476.6z"/>
	<path class="st1" d="M509.7,310.6c-7-1.6-14.1-3.1-21.3-3c-1.8,1.3-3.4,0.1-4.9-0.5c-3.9-1.6-8-2.2-12.1-2.9
		c-5.6-1-9.8,2.1-14.3,4.5c-20.8,3.3-40,10.8-56.7,23.4c-13.5,10.1-18.9,24.3-16.7,41.7c2.2,17.1,9.1,32.2,17.1,47
		c12.4,22.7,29.8,42.1,43.3,64c4.8,7.7,10,15.4,11,24.9c-6.7-5.1-11.3-12.2-16-18.9c-5.9-8.3-12.6-16-18.7-24.1
		c-12.3-16.1-24.4-32.4-33.1-50.8c-6.6-13.9-11-28.4-13.4-43.7c-2.2-14.2,3.1-25.2,11.1-36c10.6-14.3,25.5-22,41.4-28.7
		c12.8-5.4,26.2-6.9,39.9-7.9c8.4-0.7,16.8-0.9,25.1-0.6c7.8,0.3,15.5,1.7,23.2,2.7C514.9,305.8,512.6,308.3,509.7,310.6z"/>
	<path class="st1" d="M539.1,476.6c-2.6-6.2-6.9-11.1-11.5-15.8c-1.1-1.1-2.5-1-3.7-0.7c-14.1,2.4-28.4,1.4-42.6,2.1
		c-10.1,0.5-19.9,2.9-29.7,9.1c2.2-7.7,6.6-12.2,12.4-15.1c8.2-4,16.7-5.5,26.1-4.2c11.3,1.6,22.9,3.4,33.8-1.6
		c15.7-7.3,15.6-15.6,8.8-27.8c-2.6-4.6-3.2-8.2-1.3-12.8c5.9-15.2,8.4-31.1,10.7-47.1c1.5-10.3,0-20.1-2.1-30
		c-0.7-3.2-1.7-6.1-4.1-8.4c-1.6-3.8-0.8-7.3,1.2-10.7c12.8,10.9,15.8,25,13.7,40.9c-0.7,5.4-0.3,10.9-1,16.4
		c-2,14.9-3.4,29.9-10,43.7c-1,2-0.6,3,0.6,4.6c8,10.7,8.7,20.1,0.3,29.6c-4.3,4.8-4.5,8.8-1.9,14.2
		C541,467.1,542.6,471.9,539.1,476.6z"/>
	<path d="M537.2,313.4c0.3,3.6-0.9,7.1-1.2,10.7c-1.3,2.3-2.6,4.6-3.9,7c-0.4,1.7-1.6,2.8-3,3.8c-1.9,1.1-3.9,2-6,2.7
		c-5.1,0.9-10.2,2-14.2-2.5c-6.3-4.8-3-10.7-1.7-16.3c0.6-2.7,1.6-5.3,2.5-8c1.6-3,3.3-6,4.9-9c1.3-2.5,3.9-3.7,6-5.3
		c3.2-2.3,6.4-2,9.5,0.6C534.9,301.4,536.6,307.2,537.2,313.4z"/>
	<path class="st2" d="M498.9,337.9c4.5,14.5,6.6,29.3,8.1,44.4c1.1,11.2,1.2,22.3-1.3,33.1c-1.7,7.3-4.7,14.1-13.1,16.5
		c-5.6,1.6-10.5,0.1-15.1-2.8c-9.9-6.2-16.4-15.6-22.6-25.3c-6.6-10.2-12.5-20.7-16.9-32c-3.4-8.7-5.9-17.7-3.5-27.2
		c2.4-9.6,13.3-18.3,23.4-18.4c-0.2,2.5-2.4,2.9-4,3.7c-13.7,7.2-18,13.5-13.1,30.6c6.2,21.4,17.3,40.2,30.8,57.7
		c1.8,2.3,4.5,3.7,6.9,6c-12.1-18.9-21.6-38.6-26.7-60.2c-2-8.3-3.3-16.6,1.5-24.6c2.7-4.5,6.2-7.9,11.4-9.2
		c2.9,0.5,4.7,2.8,6.8,4.5c7.7,6.4,15.8,8.7,25,3.3C497.3,337.8,498.1,337.6,498.9,337.9z"/>
	<path d="M498.9,337.9c-9.5,7.2-18.1,5.9-27-1.2c-2.4-1.9-4.7-3.8-7-5.7c-2.6-1.2-5-2.5-5.1-5.8c-2.2-5.3-5.3-10.4-2.9-16.5
		c5.6-8,13.4-6.3,21-4.7c3.6,0.8,6.9,2.4,10.4,3.6c3.5,3,7.2,5.7,10.3,9C504.7,322.9,506.7,329.6,498.9,337.9z"/>
	<path class="st3" d="M459.8,325.2c1.7,1.9,3.4,3.8,5.1,5.8c-12.3,5.9-15.8,16.2-12.2,31.6c5,21.7,14.3,41.5,26.3,60.2
		c0.7,1.1,1.4,2.2,2,3.3c0.1,0.2,0,0.6-0.1,1.3c-4.8-3.3-9.2-6.4-12.6-11.1c-12.7-17.7-23.8-36.3-29.3-57.6c-1-3.7-1.8-7.4-1.4-11.4
		c0.9-9.2,7.3-13.6,14.4-17.5c2-1.1,3.9-2.2,5.9-3.3C458.6,326,459.2,325.6,459.8,325.2z"/>
	<path class="st2" d="M508.9,334.9c4.7,1.9,9.5,3.1,14.5,1.2c1.4,1.3,1.8,3,2.2,4.8c2.6,13.7,3,27.4,1,41.1
		c-0.2,1.5-0.6,2.9-1.4,4.1c-2,1.9-2.7-0.3-3.7-1.3c-2.6-2.8-4.2-2.6-5.8,1.1c-2.3,5.2-1.8,10.8-1.4,16.3c0.3,3.6,2.2,7.2,0.2,10.8
		c-3.4-4.2-2.8-9.4-3.5-14.2c-1.3-9.2-1.9-18.5-2-27.8c-0.1-6.1-1.5-12.1-1.2-18.3C508.1,346.8,507.4,340.8,508.9,334.9z"/>
	<path class="st2" d="M529.2,333.9c0.7-1.2,1.6-2.2,2.9-2.9c2.3,4,2.8,8.6,2.9,13c0.6,23.1-1.2,46-6.8,68.6
		c-0.3,1.4-0.6,2.9-1.3,4.1c-1.3,2.3-1.8,6.3-5,5.8c-3-0.4-5.5-3-6.2-6.6c6.3,1.5,7.3,0.8,8.4-6c0.5-3.2,0.9-6.4,1.5-9.6
		c2.3-11.1,2.8-22.5,4.1-33.7c1.1-9.7,1.3-19.4-1.1-29C528.4,336.4,528.4,335.1,529.2,333.9z"/>
	<path d="M526.5,401.4c-0.6,3.9-0.7,8-1.8,11.8c-1.7,6.5-4.1,7.1-9,2.9c-0.4-1-0.8-2-1.2-2.9c-0.7-6.6-2.2-13.1-1.8-19.9
		c0.2-3.4,0.8-6.6,2.6-9.4c2.7-4.2,4.9-3.9,7.3,0.4c0.5,0.9,1.2,1.8,1.8,2.6C528.1,391.2,527.2,396.3,526.5,401.4z"/>
	<path class="st3" d="M526.5,401.4c0.2-5-1.5-9.7-2.2-14.6c2.8-16.1,2.8-32.2-0.8-48.3c-0.2-0.8-0.1-1.6-0.1-2.4
		c1.9-0.7,3.9-1.5,5.8-2.2c4,12.8,3,25.8,1.4,38.9c-1.1,9-1.8,18-3.3,26.9C527.2,400.3,526.8,400.8,526.5,401.4z"/>
	<path class="st4" d="M528.5,303c10,8.3,5.4,19.7-2.6,24.8c-1.7,1.1-3.1,0-3.4-2.1c-0.3-1.9,0-3.8,1-5.6
		C527.5,312.9,528.1,310.6,528.5,303z"/>
	<path d="M504.9,409.1c0,1.3,0.1,2.6,0,3.9c-0.2,3.1-2,5.6-4.7,6.7c-2.6,1.1-4.8-0.9-6.6-2.8c-4.3-4.6-5.4-10.4-6.3-16.4
		c-0.5-3.5-1.7-7.1,0.2-10.6c1.9-3.5,4.3-6.7,8.7-6.1c3.8,0.6,5.9,3.8,6.6,7.3c1.1,5.9,1.6,11.9,2.3,17.9
		C505.1,409.1,505,409.1,504.9,409.1z"/>
	<path class="st4" d="M472,308.1c9.1,0.5,16.6,4.2,23.2,10c3.1,2.7,1.3,5.4-1.1,7.7c-2.3,2.2-4.4,1.8-6.2-0.5
		C483.1,319.1,478.3,312.9,472,308.1z"/>
	<path class="st2" d="M523.4,394c0.1,1.7,0.4,3.4-1.2,4.1c-2,0.9-2.9-1.2-3.7-2.3c-1.6-2.1-3.3-4.4-2.8-7.3c0.3-1.8,0.7-4.3,2.8-4.5
		c1.8-0.1,3.7,1.9,3.9,3.7C522.5,390,524.2,391.9,523.4,394z"/>
	<path class="st5" d="M522.5,411.7c0,2.4-0.3,4.6-2.7,4.1c-3-0.7-4.1-3.4-4.1-6.3c0-2.1,0.7-5.1,2.9-4.7
		C522.2,405.4,521.9,409.3,522.5,411.7z"/>
	<path class="st2" d="M501.6,394.1c0.7,2.9-0.6,3.7-1.6,4.8c-1.4,1.5-2.6-0.2-3.3-0.7c-1.9-1.4-3.6-2.9-4.8-5.2
		c-1.2-2.3-0.9-3.8,0.8-5.5c2-2,3.7-0.3,5.1,0.6C500.3,389.7,501,392.6,501.6,394.1z"/>
	<path class="st5" d="M498.6,417.9c-2.2-0.1-7.6-6.3-7.2-8.4c0.1-0.7,0.7-1.7,1.3-1.8c2.7-0.8,4.5,1,6.1,2.8
		c1.6,1.8,3.1,3.8,1.7,6.5C500.1,417.6,499.3,418,498.6,417.9z"/>
</g>
</svg>
