<?xml version="1.0" encoding="utf-8"?>
<!-- Generator: Adobe Illustrator 23.0.1, SVG Export Plug-In . SVG Version: 6.00 Build 0)  -->
<svg version="1.1" id="Layer_4" xmlns="http://www.w3.org/2000/svg" xmlns:xlink="http://www.w3.org/1999/xlink" x="0px" y="0px"
	 viewBox="0 0 1000 1000" style="enable-background:new 0 0 1000 1000;" xml:space="preserve">
<style type="text/css">
	.st0{fill:#FB9A7A;}
	.st1{fill:#6E3720;}
	.st2{fill:#FEFEFE;}
	.st3{fill:#C0FEFE;}
	.st4{fill:#7F7F7F;}
	.st5{fill:#00407F;}
</style>
<g>
	<path class="st0" d="M539.1,476.6c-6.9,4.5-14.9,6.5-22.4,9.5c-20,8.2-40.2,15.7-60.3,23.5c-0.4,0.2-1,0-1.4,0
		c-9.3-17.6-21-33.7-32.6-49.7c-13.8-19.1-26.1-38.9-34.1-61.2c-3.6-9.9-5-20.3-4.3-30.7c1.1-16.4,10.7-27.7,24.4-35.4
		c16.6-9.2,34.3-15.7,53.3-18.2c3-0.4,6.1-1,9.1,0.6c0.5,2.5-1.8,2.3-3,2.9c-5.8,3-7.1,6.4-5.6,12.7c0.6,2.5,3.2,4.7,1.4,7.7
		c-4.5,1.5-9.3,1.5-13.9,2.5c-8.2,1.4-13.9,11-12.4,20.7c1.7,11.4,5.9,22,11.6,31.9c6.9,12.2,14.4,24,24.2,34.1
		c2,2.1,4.3,3.9,6.7,5.6c9.3,6.6,19.3,4.5,24.7-5.7c5.5-10.2,6.4-21.5,5.8-32.7c-0.5-9.2-1.4-18.5-2.9-27.6
		c-0.9-5.6-2.6-11.1-4.1-16.5c0-0.7,0.2-1.3,0.5-1.9c4.1-9.3,2.7-15.1-5.3-21.8c-6.6-5.5-13.8-9.7-22.7-10.4
		c-1.5-0.1-3.8,0.5-4.2-2.1c3.3-2.6,7.2-1.7,10.8-1.4c9.7,0.7,19.4,1.7,28.8,3.9c1.9,0.5,3.8,0.9,5.2,2.4c1.3,2,0.1,3.7-0.7,5.4
		c-1.2,2.6-2.1,5.4-2.9,8.2c-1.6,5.3-1.9,10.4,1.1,15.4c0.6,3.3-0.5,6.4-0.5,9.6c0.1,19,0.1,38.1,3.9,56.9c0.9,3,1.6,6.1,3.4,8.8
		c3.6,4.8,5.9,4.7,8.4-0.9c3.6-8,4.9-16.5,6.1-25c1.9-13.5,3.3-27.1,3.5-40.8c0.1-4.8-1.1-9.4-1.3-14.1c1.1-3.3,0.8-7.5,4.8-9.2
		c3.6,2,4.1,5.7,4.6,9.2c2.7,17.3,1,34.3-3.3,51.2c-2.1,8.2-4.8,16.2-8,24c-1.4,3.5-1.2,6.5,0.6,9.8c1.8,3.1,3.1,6.4,4.1,9.9
		c1.4,4.7,0.2,8.6-2.8,12.2c-4.5,5.4-10.4,8-17.2,9.2c-10.3,1.9-20.4,0.8-30.6-0.5c-9-1.1-17.5,0.4-25.7,4c-3.6,1.6-6.6,4.1-8.8,9
		c7.1-3.4,13.8-4.5,20.6-5.7c5.3-0.9,10.7-1.2,16-0.5c10.3,1.4,20.4,0.6,30.6-0.6C530.4,464.1,537,468.6,539.1,476.6z"/>
	<path class="st1" d="M470.7,315.4c-16-0.1-31,4.5-45.5,10.6c-9.8,4.1-19.6,8.2-27.3,15.9c-9.9,9.9-13.7,21.4-12.4,35.7
		c2,22.5,12.3,41.3,23.5,59.8c10.6,17.6,23.5,33.6,34.9,50.7c3.8,5.7,7.2,11.8,10.8,17.6c0.8,1.2,0.4,2.5,0.5,3.8
		c-7.6-5.7-13.2-13.2-19.5-20.1c-11.2-12.4-20.9-26.1-30.2-39.9c-10-14.7-18.8-30-24.6-46.9c-3.2-9.3-5.9-18.8-6.5-28.6
		c-0.8-12.1,3.9-22.7,11.6-31.9c16.1-19.3,38.1-28.2,61.7-33.5c11.7-2.6,23.8-3.9,35.9-3.1c13.2,1,26.3,2.7,39.1,5.9
		c-0.9,3.6-3.1,6.4-6,8.7c-7.4-3.3-15.5-3.9-23.3-4.8c-5.9-0.7-11.8-1.8-17.8-1.1c-1.2,0.1-2.6-0.6-3.5,0.9
		C471.4,315.7,471.1,315.7,470.7,315.4z"/>
	<path class="st1" d="M539.1,476.6c-1.7-2.1-3.1-4.5-5.1-6.4c-3-2.9-6.2-4.6-11.1-3.9c-9.8,1.5-19.7,2-29.9,0.8
		c-11.9-1.5-23.7,0.4-35,5c-1.5,0.6-3,1.4-5.2,2.4c2-8.5,7.7-12.1,14.6-14.6c10.6-3.9,21.5-2.9,32.3-1.5c10.2,1.3,20.6,1.5,29.6-3.6
		c11-6.3,13.2-11.1,7.9-21c-4.3-8.1-3.9-14.5-0.5-22.6c7.3-17.8,11-36.6,9.9-55.9c-0.4-7.2,0.3-14.9-4.7-21.2
		c-2.2-3.9-2.2-7.7,0-11.6c7.9,6.2,12.9,13.4,14,24.2c1.6,17-1.3,33.3-4.5,49.7c-1.8,9-4.9,17.6-8.7,25.9c-0.8,1.8-0.3,2.4,0.7,3.7
		c8.7,11,8.4,21.8-1,30.9c-4.3,4.1-4.5,7.9-3.1,12.6C540.1,471.8,540.7,474.2,539.1,476.6z"/>
	<path d="M542,322.4c0,3.9,0,7.7,0,11.6c-1.3,2.9-2.6,5.7-3.9,8.6c-0.4,2.3-2.3,3.5-3.9,4.8c-1.7,1-3.5,1.9-5.5,2.4
		c-3.7,1.1-7.5,1.4-11.3,0.7c-1.9-0.3-3.7-0.9-4.6-3c-4.5-3.9-2.7-8.7-1.8-13.3c1-5,3.1-9.5,5.5-14c1.4-3.3,3.5-6.1,6-8.7
		c7.9-6.9,15.9-3.4,18.5,8.3C541.2,320.9,540.7,322,542,322.4z"/>
	<path class="st2" d="M503.8,350.6c4.3,7.1,4.7,15.3,5.8,23.2c1.3,9.1,1.9,18.3,2,27.5c0,7.7-1.2,15.4-3.9,22.7
		c-5.9,16.2-20.3,19.4-33.2,7c-14.1-13.6-24.1-30.1-32.3-47.8c-3.1-6.8-5.2-13.9-6.3-21.1c-1.3-8,1.5-14.9,7.3-20.5
		c1.5-1.5,3.7-2.1,5.9-1.5c0.4,2.5-1.7,3.7-2.8,5.4c-3.5,5-5.1,10.2-4,16.5c1.2,7,3.5,13.5,6.4,19.9c5.9,13.2,12.9,25.8,21.4,37.6
		c2.5,3.5,5.8,6.1,8.7,9.7c-8.8-16.9-17.1-33.7-22.5-51.6c-1.8-5.8-3.1-11.7-3.2-17.7c-0.1-8.8,3.4-16,11.5-20.5
		c1.9,0,2.8,1.5,3.8,2.7c4,4.6,8.9,7.8,14.1,10.8c6,3.4,11.7,3,17.3-0.7C501.1,351.3,502.1,350.1,503.8,350.6z"/>
	<path d="M503.8,350.6c-10.9,9.1-17.2,6.8-28.7-1c-4-2.7-7.3-6-10.2-9.8c-0.8-0.4-1.6-0.8-1.2-1.9c-0.7-2.7-2.4-5-3-7.9
		c-1.4-7.5,1.2-12.1,8.5-13.6c0.7-0.1,1.3-0.2,1.4-1c0.4,0,0.7-0.1,1.1-0.1c14.2-0.1,25.1,6.3,33.2,17.5
		C508.7,337.9,509.7,342.7,503.8,350.6z"/>
	<path class="st3" d="M463.7,337.9c0.4,0.6,0.8,1.2,1.2,1.9c-10.2,7.5-12.2,17.5-9.4,29.2c3.6,15,9.3,29.2,16.2,43
		c3.2,6.5,6.5,13,9,20.1c-3.1-3.1-6.7-5.8-9.3-9.2c-12.5-16.7-22.5-34.7-29-54.6c-3.6-10.9-1.4-20.3,6.8-28.3
		C453.9,338.4,458.8,337.8,463.7,337.9z"/>
	<path class="st2" d="M512.8,347.6c5.3,3.1,10.9,1.9,16.5,1.2c3.8,5.2,3.1,11.6,3.1,17.3c-0.1,9.9-0.7,20-3.3,29.7
		c-1,1.5-1.9,0.8-2.6-0.3c-0.9-1.3-1.5-2.9-2.4-4.3c-1.5-2.4-3.1-2.1-4.5-0.1c-1.7,2.3-2.5,4.9-2.6,7.7c-0.1,4.1-0.3,8.1,0.4,12.2
		c0.3,1.7,0.8,3.6-1,4.9c-3.3-7.3-3.1-15.4-3.5-23c-0.5-11.1-2-22.2-1.2-33.4C512,355.6,512.4,351.6,512.8,347.6z"/>
	<path class="st2" d="M534.1,346.6c1.3-1.3,2.6-2.7,3.9-4c2.8,8.4,2.1,17.2,1.7,25.8c-0.2,5.3-1.3,10.5-1.7,15.8
		c-0.8,12.9-3.3,25.5-7,37.8c-0.2,0.8-0.6,1.5-1,2.2c-1.2,2.3-2.4,5.4-5.2,5.2c-2.7-0.2-4.7-2.5-5.4-5.5c5,0,6.2-1.1,7.5-6.3
		c0.8-3.4,0.9-7,1.6-10.4c2.4-10.3,3.5-20.7,5.1-31.1C535.3,366.3,534.1,356.5,534.1,346.6z"/>
	<path d="M529.5,408.2c-0.4,4.8-0.6,9.5-2.8,14.1c-1.9,4-4,4.3-7.1,1.7c-2.1-2.2-2.6-5.1-3.1-8c-0.6-5.6-1-11.1-0.8-16.7
		c0.1-3.6,1.2-6.8,3.4-9.6c2.5-3.2,4.6-2.2,6.3,0.7c1.1,2,2,4.1,2.9,6.2C531.1,400.2,530.2,404.2,529.5,408.2z"/>
	<path class="st3" d="M529.5,408.2c-0.4-3.9-0.8-7.8-1.2-11.6c1-8.6,2.1-17.2,2.8-25.8c0.6-7.4-1.2-14.7-1.8-22
		c1.6-0.8,2.9-2.1,4.8-2.2c2.8,7.6,2.5,15.5,1.8,23.3c-1.1,10.8-3.1,21.6-4.6,32.4C531,404.4,530.6,406.4,529.5,408.2z"/>
	<path class="st4" d="M533.4,316c10.3,6.4,4.7,20.4-2.2,25.3c-1.9,1.3-2.5-0.8-3.5-1.6c-2.4-1.9-1.6-4.4-0.2-6
		c3.2-3.5,4.2-7.7,5.1-12.1C533.1,319.7,532.8,317.8,533.4,316z"/>
	<path d="M507.8,415.9c0.2,4.3-0.3,8.7-4.9,10.8c-2.7,1.3-7.5-2.7-9.7-7.8c-2.4-5.4-3-11.1-3.9-16.8c-0.4-2.6,0.9-4.7,2-6.6
		c1.6-2.7,3.8-4.7,7.2-4.8c3.4,0,4.9,2.6,6.4,5.1c1.3,2.1,2.3,4.5,1.9,7.1C506.2,407.2,508.2,411.4,507.8,415.9z"/>
	<path class="st4" d="M476,320.8c9.4,0.5,17.4,3.9,24.2,10.1c2.7,2.5,2,5.6-0.7,7.9c-2.5,2.1-5.4,3.5-7.8,0
		C487.2,332.2,482.9,325.6,476,320.8z"/>
	<path class="st2" d="M526.4,401.3c0,1.2,0.4,3.2-1.5,3.8c-1.7,0.6-2.6-1.2-3.3-2.3c-2-3-4.2-5.8-2.2-9.9c1.6-3.3,3.1-2.4,4.4-0.3
		C525.4,395,526.6,397.8,526.4,401.3z"/>
	<path class="st5" d="M518.7,417.4c-0.3-3.5,0.5-6.1,2.8-5.9c2.8,0.3,3.6,3.2,3.9,6c0.2,2.3-0.5,5-2.7,4.9
		C519.4,422.3,519.1,418.9,518.7,417.4z"/>
	<path class="st2" d="M505,402.5c0.3,1.4-1,2.4-2.3,3.4c-1.4,1-2.5-0.4-3.3-1c-2.2-1.6-4.2-3.5-5.1-6.2c-0.5-1.4-0.2-2.7,1-4
		c1.2-1.2,2.8-1.8,3.9-1.1C502.1,395.6,504.7,398,505,402.5z"/>
	<path class="st5" d="M503.8,421.7c0,1-0.8,1.9-2.3,2.1c-2.5,0.2-7.2-4.4-7.3-7c0-1.6,0.8-2.4,2.3-2.6
		C499,413.9,503.8,418.6,503.8,421.7z"/>
</g>
</svg>
