<?xml version="1.0" encoding="utf-8"?>
<!-- Generator: Adobe Illustrator 23.0.1, SVG Export Plug-In . SVG Version: 6.00 Build 0)  -->
<svg version="1.1" id="Layer_4" xmlns="http://www.w3.org/2000/svg" xmlns:xlink="http://www.w3.org/1999/xlink" x="0px" y="0px"
	 viewBox="0 0 1000 1000" style="enable-background:new 0 0 1000 1000;" xml:space="preserve">
<style type="text/css">
	.st0{fill:#FB9A7A;}
	.st1{fill:#6E3720;}
	.st2{fill:#FEFEFE;}
	.st3{fill:#C0FEFE;}
	.st4{fill:#7F7F7F;}
	.st5{fill:#00407F;}
</style>
<g>
	<path class="st0" d="M539.1,476.6c-6.9,4.5-14.9,6.5-22.4,9.5c-20,8.2-40.2,15.7-60.3,23.5c-0.4,0.2-1,0-1.4,0
		c-1.5-3.3-3.9-6-6.1-8.8c-10.7-13.3-20.2-27.5-30.2-41.4c-11.8-16.5-21-34.4-28.1-53.3c-3-8.1-4.8-16.6-5-25.2
		c-0.3-10.6,4.7-19.4,11.4-27.2c6.1-7.2,14.2-11.3,22.6-14.9c15.3-6.4,31.2-9.7,47.7-11.2c19.3-1.8,37.9,0.6,56.3,5.8
		c1.7,0.5,3.5,0.8,4.8,2.2c0.7,2.4-0.9,4-2,5.7c-2.1,3.3-3.6,6.9-5.1,10.5c-2.2,5.4-3,10.9-0.5,16.4c-0.9,11.8-0.8,23.6-0.7,35.4
		c0.1,5.8,0.7,11.6,1.3,17.4c1.4,3.6,1.1,7.6,2.2,11.2c0.2,1.5,0.6,2.9,1.4,4.1c2.5,3.8,5.5,4,8,0.1c2.2-3.4,3.6-7.3,4.7-11.2
		c4.8-16.8,7.2-34,8.7-51.3c0.3-3.6-0.2-7.1-0.7-10.7c1.6-4.4,1.1-9.6,5.2-13.1c3.7,1.6,4,5.3,4.8,8.5c2.8,11.6,0.3,23-1.8,34.3
		c-2.4,12.3-6.7,24.1-11.9,35.6c-2.1,4.6-2.3,8.7,0.2,13.4c7.9,14.7-1.7,24.1-13.6,26.9c-8.6,2-17.1,1.1-25.7-0.1
		c-3.9-0.6-7.8-0.9-11.6-1.7c-10.1-2.2-19.3,0.9-28.2,5.1c-2.8,1.3-4.9,3.5-6.6,6.1c5.8-1.6,11.6-3.1,17.5-4.2
		c10.7-1.9,21.1,0,31.5,1.3c9.7,1.2,19.1,0.2,28.6-1.3C538.3,473.5,538.3,473.4,539.1,476.6z"/>
	<path class="st1" d="M528.2,336c-11.8-3.4-23.8-5.9-36.2-7.2c-20.2-2.1-39.8,0.8-59,6.3c-12.5,3.6-25.2,8.2-34.3,18.5
		c-8.2,9.3-13.3,19.3-11.4,32.8c1.7,12,5.7,23,10.3,33.8c10,23.4,25.5,43.3,40.1,63.8c5.1,7.2,10.6,14.1,16.1,21
		c1.2,1.5,1.1,2.9,1.1,4.5c-22.2-16.1-38.3-37.4-52.8-60.3c-10.7-16.8-19.3-34.5-23.9-53.9c-4.2-17.6-0.6-33.2,12.4-46.7
		c12-12.5,27.1-18.6,42.9-23.4c15.2-4.6,31-6.9,46.9-5.9c18.5,1.2,37.2,2.1,54.6,9.8C533.8,332.5,531.2,334.5,528.2,336z"/>
	<path class="st1" d="M539.1,476.6c-0.2-2.2-1.3-1.9-3-1.5c-12.7,2.9-25.3,3-38.2,0.8c-13.6-2.4-27.2-1-40.3,3.9
		c-1.3,0.5-2.6,0.9-4.1,1.4c1.6-5.7,8.6-11,15.8-13.4c11.1-3.7,22-2.2,33.1-0.3c10.3,1.7,20.6,2.8,30.9-1.4
		c9.3-3.8,13.6-12.4,8.5-21.3c-4-7-2.9-12.5,0.1-19.2c6.7-15.1,11.4-30.8,13-47.4c0.9-9.6,1.4-18.8-4-27.3c-1.8-4.8-3.6-9.7-4-14.9
		c9.6,4.8,14.9,12.9,17.5,23c2.7,10.2,0.2,20.4-1.3,30.5c-2.4,15.7-7.1,30.7-14.5,44.9c-1.1,2.2-0.1,3,0.9,4.6
		c4,6.1,6.6,12.8,4.1,20.1c-1.6,4.8-5.1,8.7-9.1,11.5C542,472,540.5,474.1,539.1,476.6z"/>
	<path d="M546.8,335.8c2.6,4.6,4.2,9.5,4,14.9c-1.4,4.2-2.7,8.4-4.1,12.6c-0.8,1.9-2.1,3.5-3.7,4.8c-2,1.5-4.1,2.5-6.5,3.3
		c-3.3,1-6.6,1.4-9.9,0.8c-3.1-0.5-5.8-1.7-7-5c-3.4-4.1-1.9-8.4-0.6-12.7c2-6.7,5.3-12.7,9.2-18.5c1.8-2.8,4.3-4.9,7-6.8
		C541,328,543.8,332.1,546.8,335.8z"/>
	<path class="st2" d="M512.6,372.1c3.5,13.9,4.5,28,3.9,42.2c-0.4,9.3-2.4,18-7.8,26.3c-5.3,8.1-16.4,9.4-24.3,4.7
		c-6.8-4-11.7-10.1-16.5-16.2c-11-13.8-19.6-29-24.7-46c-2.2-7.4-3.8-14.9-0.7-22.5c1.8-4.4,4.4-7.6,9.7-6.9c0.3,0.9,0,1.7-0.5,2.3
		c-6.4,7.5-5.6,15.9-3,24.5c5.9,19,15.1,36.3,27.9,51.6c1.8,2.1,3.9,4,6.5,6.3c-7.6-12.4-12.7-25.1-17.6-38
		c-3-7.9-5.4-16.1-6.4-24.5c-0.9-8-0.3-15.7,6.8-21.2c1.5,0.7,3.1,1,4.8,0.8c3.4,1.9,4.7,5.6,7.1,8.3c4.9,5.3,10.1,9.9,17.3,11.9
		c5.3,1.5,10.2,0.9,14.6-2.6C510.4,372.4,511.3,371.7,512.6,372.1z"/>
	<path d="M512.6,372.1c-8.8,9.3-19.6,5.8-27.6,0.1c-6.2-4.4-10.9-10-14.5-16.7c-0.6-2.1-1.4-4.2-1.7-6.3
		c-1.2-7.7,4.7-12.6,12.3-12.1c13.2,0.7,24,6.9,32.3,17C518.3,360,517.7,365.4,512.6,372.1z"/>
	<path class="st3" d="M465.8,354.6c-9.1,11.7-6,24.2-2.1,36.5c4.8,15.1,10.6,29.9,18.8,43.6c1.1,1.8,1.8,3.7,3.3,6.6
		c-10.2-6.3-15.9-15.1-21.4-23.8c-7.4-11.8-13.6-24.3-17.3-37.9c-2.6-9.6-2.8-18.5,5.1-26C456.8,352.8,461.2,354.7,465.8,354.6z"/>
	<path class="st2" d="M519.6,367.2c5,5.4,11.3,4,17.5,3.1c2.1,1.3,2.4,3.4,2.3,5.5c-0.6,12-1.9,23.9-4.5,35.6
		c-2.2,2-2.4-0.3-2.7-1.4c-0.5-1.7-0.6-3.5-1.6-5c-1-1.6-1.8-3.9-4-3.7c-2.1,0.2-2.9,2.4-3.6,4.2c-1.3,3.1-1.1,6.3-1.2,9.5
		c-0.1,2.3,0.7,4.9-1.4,6.8c-2.1-4.5-1-9.5-1.4-14.1c-0.9-10.4-0.6-21-0.1-31.5C519,373.3,519.3,370.2,519.6,367.2z"/>
	<path class="st2" d="M542.9,367.1c1-1.5,2.3-2.9,3.9-3.8c1.7,5.4,0.7,10.7,0.4,16.2c-0.5,8.4-1.9,16.6-3.3,24.8
		c-1.8,10.7-3.8,21.4-8.7,31.3c-1.3,2.7-2.7,6.5-6.2,5.7c-3.9-0.9-6.4-4.1-6.3-8.6c2.5,0.5,4.6,4.2,7.5,0.7c1.1-1.3,1.5-2.8,1.8-4.4
		c0.3-1.9,0.6-3.8,1.6-5.6c4.8-17.5,9.6-35,8.7-53.4C542.1,368.9,542.4,368,542.9,367.1z"/>
	<path d="M534.1,424.8c-2.1,1.7-0.7,4.1-1.4,6.3c-1,3-2.7,4.7-5.3,5.4c-2.8,0.7-3.2-2.5-4.8-3.8c-1.9-3.3-0.7-7.3-2.2-10.7
		c0.8-5.4-0.9-11,1.2-16.3c0.5-1.3,1.2-2.6,2-3.7c2.2-3.3,4.3-3,6.9,0c2.6,3.1,2.2,7,3.8,10.3C536.9,416.4,534.6,420.6,534.1,424.8z
		"/>
	<path class="st3" d="M534.1,424.8c0-4.2,0-8.4,0.1-12.6c1.1-9.4,2.1-18.8,3.4-28.1c0.7-4.7,0.9-9.2-0.5-13.8
		c1.9-1.1,3.9-2.1,5.8-3.2c2.7,14.3-1.2,27.9-4.2,41.6C537.5,414.1,536.8,419.8,534.1,424.8z"/>
	<path class="st4" d="M542.2,338.2c6.8,5.4,7.5,13.4,2,19.4c-1,1.1-2,2.1-3.1,3.1c-1.3,1.1-2.2,3.2-4.3,2.4
		c-2.4-0.9-1.5-3.2-1.7-5.1c-0.2-1.9,0.7-3.4,1.8-4.8C540.5,349,541.6,343.9,542.2,338.2z"/>
	<path d="M512.7,424.4c-0.2,2.7,0.6,6.2-1.6,9.5c-2.5,3.7-5.6,4.7-9,2.2c-2.4-1.7-3.9-4.3-4.7-7c-1.8-6-2.7-12.1-2.1-18.4
		c0.5-5.2,4.6-10.1,8.3-10.3c3-0.2,7.3,4.9,8.2,9.9c0.4,2.2,0,4.4,0.8,6.6C513.3,418.9,512.7,421.4,512.7,424.4z"/>
	<path class="st4" d="M483.9,341.5c11,1.1,18.8,5.8,25.1,12.9c2.2,2.5-0.5,4.6-2.2,6.5c-1.7,1.9-3.6,2.1-5.4,0.2
		c-2-2.1-3.9-4.2-5.6-6.6C492.6,350.1,488.4,346.6,483.9,341.5z"/>
	<path class="st2" d="M531.2,411.7c0,1.6,0.4,3.3-1.2,4c-2.1,0.9-2.9-1.2-3.7-2.3c-1.9-2.8-4.4-5.7-1.8-9.4c0.6-0.9,1.2-2.3,2.6-1.3
		C530.2,404.9,531.5,408,531.2,411.7z"/>
	<path class="st5" d="M525.7,422.9c3.6,0.6,3.8,3.7,4.5,6.2c0.6,2.2-0.8,4.2-2.9,4.3c-4,0.2-4-3.6-4.7-6.2
		C522,424.9,523.7,423.6,525.7,422.9z"/>
	<path class="st2" d="M509.8,412.1c0,5-1.6,5.9-5.1,3.9c-4.9-2.8-6.8-7.5-4.2-10.7c1.6-2.1,3.3-2.9,5.5-0.5
		C508.1,407.2,509.5,409.9,509.8,412.1z"/>
	<path class="st5" d="M507.8,431.6c0,1.7-0.7,2.8-2.5,2.9c-2.5,0.1-7.2-4.6-7.1-7.1c0.1-1.8,1.2-3.1,3-3.3
		C503.5,423.8,507.8,428.9,507.8,431.6z"/>
</g>
</svg>
