<?xml version="1.0" encoding="utf-8"?>
<!-- Generator: Adobe Illustrator 23.0.1, SVG Export Plug-In . SVG Version: 6.00 Build 0)  -->
<svg version="1.1" id="Layer_4" xmlns="http://www.w3.org/2000/svg" xmlns:xlink="http://www.w3.org/1999/xlink" x="0px" y="0px"
	 viewBox="0 0 1000 1000" style="enable-background:new 0 0 1000 1000;" xml:space="preserve">
<style type="text/css">
	.st0{fill:#FB9A7A;}
	.st1{fill:#6E3720;}
	.st2{fill:#FEFEFE;}
	.st3{fill:#C0FEFE;}
	.st4{fill:#7F7F7F;}
	.st5{fill:#00407F;}
</style>
<g>
	<path class="st0" d="M522.5,483.5c-22.4,9-44.8,18-67.5,26.1c-6-10.1-13.6-19-20.9-28.2c-13.6-17.3-26.4-35.1-35.9-55.1
		c-5.7-12-9.5-24.7-10.6-37.9c-1.2-14.1,5.5-25,16.3-33.6c5.4-4.3,11.5-7.4,18-9.7c21.2-7.6,43-11.7,65.6-10.5
		c15.3,0.8,30.3,3.6,44.9,8.6c1.4,0.5,2.8,0.9,3.8,2.1c0.8,1.9-0.6,3.1-1.5,4.3c-4.3,5.8-7.3,12.2-9.6,19.1
		c-0.4,1.2-0.6,2.9-1.9,3.2c-1.6,0.3-1.7-1.6-2.3-2.7c-6.8-13.8-18.8-19.3-33.2-20.1c-9.2-0.5-13.2,5.4-10.8,14.3
		c0.5,1.9,2.1,3.8,0.6,6c-4,1-7.5-1.2-11.2-1.8c-4.6-1.2-9.3-2.1-14-2.9c-3.4-0.2-5,1.8-5.8,4.7c-0.9,3.3-1.1,6.7-0.5,10.1
		c3.7,20.4,13,38.3,25.5,54.5c3.9,5.1,7.7,10.4,13.2,14.2c12.3,8.3,25,4.3,29.9-9.7c0.1-0.5,0.3-1,0.5-1.5
		c3.9-12.6,4.6-25.3,3.3-38.4c-0.5-5.4-1.3-10.9-1.1-16.4c0.2-1,0.5-1.9,1.1-2.7c1.1-1.6,1.4-4.7,3.8-4.3c2.1,0.4,2.2,3.2,2.5,5.3
		c-0.4,10.2-1.1,20.4-0.9,30.6c0.1,2.4-0.2,4.9,0.5,7.2c1,7.1,0.8,14.3,3.1,21.2c0.3,1.1,0.6,2.2,1.2,3.2c2.3,3.9,4.7,4.1,7.6,0.7
		c2-2.4,3.3-5.2,4.3-8.1c6.8-19.3,9.2-39.4,11.1-59.6c2.5-4.9,3.2-10.5,5-15.6c4,1,4.1,4.6,4.9,7.6c2.1,7.2,1.2,14.5-0.2,21.7
		c-3.3,16.3-7.8,32.2-15.9,46.9c-2.4,4.4-2.9,8.5,0,12.7c0.8,1.2,1.3,2.6,1.9,3.9c3,7.1,1.5,12.4-4.9,16.9
		c-8.7,6.1-18.5,6.7-28.5,5.5c-8.4-1-16.7-2.6-25-4c-9-1.5-17.4,0.7-25.4,4.9c-2.6,1.4-4.6,3.4-6.9,6.6c6.8-2.1,12.7-3.2,18.6-4
		c11.3-1.7,22.3,0.8,33.5,1.6c2.4,0.2,4.8,0.4,7.3,0.6C518.3,481.3,520.8,481.3,522.5,483.5z"/>
	<path class="st1" d="M536.1,345.7c-11.5-3.9-23.3-7.2-35.3-8.5c-11.8-1.3-23.7-1.7-35.8-0.5c-15,1.4-29.3,5.3-43.4,10
		c-12,4-21.9,11.4-28.5,22c-3.9,6.3-5,14-4,21.8c3.5,26.8,16.5,49.2,31.6,70.8c9.8,13.9,21,26.8,30.9,40.6c1.7,2.4,3.5,4.6,3.4,7.8
		c-8.3-6.7-17-13.1-24.4-20.9c-12.5-13.1-22.9-27.6-31.8-43.4c-7.4-13.3-14.4-26.7-17.4-41.8c-2.5-13-5-26,2.3-38.5
		c4.9-8.4,12-14.6,20.2-19.3c16.1-9.1,33.5-14.7,52-16.7c9.3-1,18.6-2.3,27.9-1.8c11.3,0.7,22.5,2.1,33.7,4.2
		c9.5,1.7,18.8,4.3,27.5,8.5c9.7,4.7,18.1,11.3,23,21.4c3.4,7.1,2.8,14.8,2.3,22.3c-0.9,12.2-3.8,24-7.7,35.6
		c-2.5,7.7-5.9,15-10.1,21.9c-1.2,1.8-1,2.9,0.3,4.8c8,11.1,7.5,17.3-0.3,26.7c-8.1,9.7-18.6,11-29.9,10.8c-9.4-1-18.8-1.9-28.2-3.1
		c-13.6-1.7-26.7,0.1-39.7,4.9c1-5.3,6.3-9.9,13.3-12.6c10.7-4.2,21.3-2.6,32.2-0.6c10.2,1.9,20.6,4,31.1,1.6
		c4.8-1.1,9.1-3.2,12.7-6.4c4.2-3.7,5.7-8.2,2.3-13c-6.3-8.7-3.6-15.8,0.6-24.2c7.4-14.5,11.3-30.1,13.8-46.2
		c1.3-8.5,0.6-16.1-4-23.4c-1.5-1.1-1.3-2.9-1.7-4.4c-0.9-3.2-2.2-6-4.5-8.4c-4.5-4.8-5.6-5.1-11.7-2.3
		C538,345.7,537.1,346.2,536.1,345.7z"/>
	<path class="st2" d="M515.6,438.4c-1.5,11.7-14.9,18.8-26.1,13.8c-6.2-2.7-10.8-7.2-15.1-12.4c-11.7-14.2-20.7-29.8-26.5-47.2
		c-2.5-7.7-5.1-15.6-2.6-24c1.1-3.6,3-5.6,6.9-5.3c0.8,0.8,0.7,1.9,0.3,2.7c-3.6,7.9-1.7,15.7,0.7,23.3
		c5.6,18.2,14.5,34.7,26.5,49.5c1.8,2.3,4,4.3,5.8,5.5c-10.1-19.4-19.9-39.6-22.4-62.3c-0.6-5.6-0.8-11.3,3.8-15.8
		c3.6,0.9,7.2,1.8,10.8,2.6c2.2-0.3,3,1.7,4.1,2.9c4.4,4.8,9,9.5,15,12.2c6.4,2.9,12.8,3.7,18.7-1.3c0.9-0.7,1.8-1.5,3.1-1.1
		c1,11.2,2.8,22.4,2,33.6C519.8,423.3,519.6,431.3,515.6,438.4c-1.6-1.6-1.4-3.6-0.9-5.5c1.4-5.4,0.1-10.6-0.4-15.9
		c-0.1-1.1-0.6-2.2-0.9-3.3c-0.8-2.7-2.6-4.6-5.4-4.9c-3.1-0.4-5.1,1.6-6.6,4.1c-2,3.5-2.2,7.4-1.8,11.3c0.5,4,1.5,8,2.9,11.8
		c2.3,6,6,7.1,11,3.2C514,438.7,514.7,438.2,515.6,438.4z"/>
	<path d="M518.4,381.8c-10.4,10.8-22.5,5.2-31.7-3.1c-3.3-3-6.1-6.5-9.2-9.8c-1.3-4.5-4.3-8.7-2.4-13.6c2.4-6.3,9.3-9.3,17.1-7.7
		c8.2,1.7,15.7,5,22.1,10.2c4.1,3.4,7.5,7.8,8.4,14.3c2.6-10.3,7.1-18.8,13.3-26.5c9-6.2,18.9-0.5,20.5,11.9c0.1,1,0.1,1.9,0.1,2.9
		c0.4,5.6-1.4,10.7-4.1,15.5c-0.9,1.9-2.1,3.5-3.7,4.8c-2,1.5-4.1,2.5-6.4,3.4c-4.6,1.5-9.3,1.2-13.9-0.2c-2.3-0.7-4.2-1.8-5.1-4.1
		c0.2-1.6-1.7-2.6-1.3-4.5C521.3,377.9,520,379.9,518.4,381.8z"/>
	<path class="st3" d="M466.8,366.4c-5.4,11.3-2.3,22.6,0.9,33.5c3.8,12.7,8.9,25,14.8,36.9c1.8,3.7,5,6.7,6.4,11.4
		c-6.6-3.1-10.8-8.2-14.5-13.5c-10.3-14.8-18.9-30.5-23.5-48.1c-2.1-7.9-2.6-15.6,1.2-23.1C457,364.4,461.9,365.4,466.8,366.4z"/>
	<path class="st2" d="M523.5,379.9c5.9,4.6,12.5,4.6,19.4,3.1c1.1,0.9,1.4,2.2,1.3,3.5c-0.8,10.8-1.8,21.5-5.3,31.9
		c-2.1,1.9-2.5-0.1-2.8-1.4c-0.5-2-0.7-4.1-1.7-6c-0.8-1.6-1.8-3.1-3.9-3.2c-2,0-2.6,1.6-3.5,2.9c-1.7,2.5-1.4,6-3.8,8.2
		c-1.5-1.3-0.8-3.1-0.8-4.6C522.3,402.8,522.4,391.3,523.5,379.9z"/>
	<path class="st2" d="M548.8,379.8c1-1.5,2.3-2.9,3.9-3.8c0.1,11.5-2.4,22.6-4.1,33.8c-1.4,9.4-3.9,18.4-7.2,27.3
		c-0.8,2-1.5,3.8-2.8,5.5c-1.7,2.3-3.2,6-6.2,5.3c-3.2-0.7-5.6-3.7-5.9-7.5c6.3,1.5,6.7,1.3,8.4-5.3c0.4-1.4,0.8-2.8,1.8-4
		c5-10.7,7-22.2,8.8-33.7C546.4,391.5,546.4,385.4,548.8,379.8z"/>
	<path d="M537,432.6c-1.8,1.2-0.6,3.2-1.1,4.8c-2,5.9-4.8,6.9-9.4,3c-2.8-6.9-2.7-14.2-3.2-21.5c0-3.6,1.5-6.7,3.1-9.8
		c0.9-1.8,2.2-3,4.5-2.9c2.3,0.1,3.2,1.5,4.4,3.1c2,3,1,6.7,2.8,9.7C541.3,423.8,538.3,428.2,537,432.6z"/>
	<path d="M515.6,438.4c-1.8,2.7-3.8,5.5-7.4,4.9c-3.8-0.7-6.2-3.5-7.2-7.4c-1.7-6.7-4.5-13.2-2.1-20.3c2.1-6.1,5.1-8.9,9.3-8.4
		c4.2,0.6,6.5,5,7.6,10.8C517.1,424.9,516,431.6,515.6,438.4C515.5,438.5,515.6,438.4,515.6,438.4z"/>
	<path class="st3" d="M537,432.6c0.3-4.5,1.7-9,1-13.6c2.1-12,5-23.8,4.9-36c1.9-1.1,3.9-2.1,5.8-3.2c-0.9,16.7-3.8,33-9.2,48.8
		C539,430.1,538.5,431.7,537,432.6z"/>
	<path class="st4" d="M490.7,352.9c9.5,0.6,17.9,3.4,24,10.8c1.6,1.9,3.2,4.3,0.1,6.6c-3,2.3-6.1,2.4-8.6-0.5
		C501.3,364.2,497.2,357.6,490.7,352.9z"/>
	<path class="st4" d="M548.2,350.9c8.2,7.1,5.7,20.7-4.2,24.6c-2.9,1.1-3.8-0.1-4-2.8c-0.2-2.4,1-4.6,2.4-6.1
		C546.5,362.2,547,356.6,548.2,350.9z"/>
	<path class="st2" d="M535.3,418.8c0.3,1.4-1.2,4.1-2.8,3.7c-3.4-0.8-5.1-3.8-5.2-7.5c-0.1-2.6,0.5-6,2.9-5.5
		C533.9,410.2,534.8,414.2,535.3,418.8z"/>
	<path class="st5" d="M533.2,436.2c0,2.5-0.5,4.5-2.6,4c-3.1-0.7-4.1-3.4-4.3-6.3c-0.1-2.1,1.1-4.1,2.8-3.9
		C532.9,430.6,532.2,434.5,533.2,436.2z"/>
	<path class="st2" d="M513.7,418.2c0.2,2.4-0.9,4.2-3.2,4.5c-2.3,0.3-7.7-6.3-7.5-9c0.2-2.1,1.5-3.5,3.8-3.5
		C510.4,410,513.6,413.7,513.7,418.2z"/>
	<path class="st5" d="M511.6,438.1c0,1.4-0.9,2.2-2.6,2.3c-3.1,0.2-6.6-3.2-6.9-6.7c-0.2-1.7,0.6-2.8,2.4-2.9
		C506.9,430.6,511.5,435.1,511.6,438.1z"/>
</g>
</svg>
