<?xml version="1.0" encoding="utf-8"?>
<!-- Generator: Adobe Illustrator 23.0.1, SVG Export Plug-In . SVG Version: 6.00 Build 0)  -->
<svg version="1.1" id="Layer_4" xmlns="http://www.w3.org/2000/svg" xmlns:xlink="http://www.w3.org/1999/xlink" x="0px" y="0px"
	 viewBox="0 0 1000 1000" style="enable-background:new 0 0 1000 1000;" xml:space="preserve">
<style type="text/css">
	.st0{fill:#FB9A7A;}
	.st1{fill:#6E3720;}
	.st2{fill:#FEFEFE;}
	.st3{fill:#C0FEFE;}
	.st4{fill:#7F7F7F;}
	.st5{fill:#00407F;}
</style>
<g>
	<path class="st0" d="M519.6,484.4c-6.5,3.8-13.8,5.8-20.7,8.6c-14,5.8-28.3,11.1-42.5,16.6c-0.4,0.2-1,0-1.4,0
		c-8.8-13.7-18.7-26.6-28.4-39.7c-12.2-16.3-22.1-33.8-29.6-52.6c-4.6-11.6-7.9-23.6-6-36.6c1.4-9.8,6.5-16.8,13.7-22.8
		c6.6-5.5,14.2-9.3,22.2-12c12.8-4.4,25.9-7.4,39.5-8.5c24.7-1.9,48.6,2.1,71.9,10c2,0.7,4.1,1.1,5.7,2.7c0.7,1.2,0.1,2.2-0.6,3.1
		c-4.9,5.8-8.2,12.5-11,19.4c-0.5,1.3-0.8,3.2-2.6,3.1c-1.5-0.1-1.5-1.9-2-3c-4.6-10.9-21.8-22.1-33.5-21.9
		c-9,0.2-12.8,5.5-10.8,14.2c0.8,3.4,3.8,6.2,3,10.1c-3.1,1.1-5.5-1.1-8.2-2c-2.9-1-5.7-2.3-8.6-3.2c-4.4-1.3-8.7-3.1-13.3-3.4
		c-5.8,1.1-8.5,5.6-7.6,12.9c1,8.6,3.1,16.9,6.8,24.8c6.5,13.5,14,26.4,23.6,37.9c4.4,5.3,9.9,9.3,16.7,11.3
		c8.4,2.4,14.1,0.2,18.9-7.5c1.6-2.6,2.8-5.3,4.2-7.9c4.1-11.6,4.7-23.6,3.8-35.7c-0.4-4.6-1-9.3-1.2-13.9c0.5-2.7,2.4-4.5,4.2-6.3
		c2.1-2.1,3.4-1.5,3.4,1.5c-0.9,15.8-1.7,31.5-1.1,47.3c0.2,0.5,0.3,1,0.4,1.5c0.4,2,0.2,4,0.9,5.9c0.4,1.4,0.9,2.8,1.4,4.1
		c1,2.7,2.2,5.4,5.4,5.5c3.2,0.1,4.6-2.7,5.8-5.2c6.9-14.6,10.6-30.2,12.5-46.2c0.5-4,1.1-8,1.4-12.1c3.4-6,4-12.9,5.7-19.4
		c3.4,0.5,3.4,3.5,4,5.9c2.2,7.9,1.1,15.8-0.3,23.7c-2.8,15.7-8.2,30.4-16.1,44.3c-2.4,4.2-2.5,8-0.2,12.4
		c5.9,11.8,1.4,21.1-11.4,25c-7.6,2.3-15.1,1.2-22.7,0.1c-8.9-1.2-17.7-3-26.5-4c-11-1.2-21,0.9-29.4,10.8
		c16.7-6.7,32.8-3.5,48.8-1.8c2.6,0.3,5.2,0.4,7.8,0.6C517,482.3,519.2,481.8,519.6,484.4z"/>
	<path class="st1" d="M519.6,484.4c-4.1-2.5-8.8-1.1-13.1-1.6c-7.7-0.8-15.3-2.4-23-2.4c-9.2,0-18.1,1.5-27.7,5.4
		c5-8.2,11.3-12.3,19.6-14.2c11.1-2.5,21.6,1.5,32.4,2.5c9,0.8,17.9,3.8,27.2,1.6c5-1.2,9.4-3.4,12.7-7.2c3.7-4.2,4.5-9.1,1.3-13.7
		c-4.6-6.8-3.7-12.7,0.4-19.4c9.3-15.3,13.6-32.5,15.9-50c0.9-6.8,0.3-13.8-3.6-19.9c-1.8-1.5-1.5-3.9-2.2-5.8
		c-2.7-7.7-6.2-9.9-14.1-8.7c-0.5,0.1-1,0-1.4-0.3c-13.2-4.5-26.4-8.8-40.3-10.3c-11.4-1.2-22.8-3-34.6-1.8
		c-12.9,1.3-25.4,3.5-37.6,7.3c-13.5,4.2-26.2,10.1-34.4,22.4c-5.1,7.6-5.7,16.2-4.6,25.3c2.7,23.4,14,43.2,26.2,62.4
		c10.2,16,22.2,31,33.4,46.4c1.6,2.2,3.3,4.4,3.1,7.4c-21.9-15.1-36.9-36.1-50.7-58.3c-9.1-14.7-17.1-29.9-20.9-47
		c-2.9-12.8-4.8-25.7,2.6-38c5.1-8.5,12.5-14.5,20.7-19.5c12-7.2,25.3-11.3,39-13.9c13.8-2.7,27.8-3.9,41.8-2.8
		c22.6,1.8,45.3,4.2,65.6,15.7c10.1,5.7,18.8,13.1,21.6,25.3c1,4.3,0.8,8.8,0.3,13.1c-1.2,11.2-3.5,22.2-6.6,33
		c-2.6,8.7-6.5,16.8-10.9,24.6c-1.8,3.2-3.5,5.4,0.1,9.3c5.8,6.1,4.3,15.5-1,22.1c-7,8.7-16.3,10.5-26.4,11.1
		C526.8,484.5,523.2,484.4,519.6,484.4z"/>
	<path class="st2" d="M522.3,387.7c1.2,9,2.9,18,1.9,27c-0.8,8.3-0.3,17-4.8,24.7c-1.8-1.9-1.2-4.3-1.3-6.5
		c-0.1-5.3,0.2-10.7-1.1-16c-0.7-2.8-1.9-5.6-5-6c-3-0.4-5.5,1.4-7.3,4c-0.9,1.4-1.4,2.9-1.5,4.6c-0.3,6.4,0.7,12.6,2.4,18.7
		c1.3,5.1,6.3,5.6,9.7,8.1c-2.5,6.4-10.4,10.6-16.6,9.3c-11.3-2.4-18.8-9.4-25.4-18.5c-9.5-13.1-17.8-26.9-22.9-42.2
		c-2.5-7.5-4.9-15.4-2.3-23.6c1.2-3.7,3.4-6.2,7.7-5.9c0.3,0.6,0.4,1.3,0.1,1.9c-3.8,6.5-2.1,13.2-0.7,19.9
		c3.7,18.3,19.5,46.3,33.5,59.1c-10.4-16.3-17.2-33.7-21.6-52c-1.1-4.6-1.4-9.3-1.7-14c-0.3-4.2-0.2-8.6,4.1-11.2
		c5.8,1,10.8,4.6,16.5,5.8c2.1-0.4,3.2,1.2,4.4,2.4c2.8,2.7,5.9,5,8.9,7.4c5.6,4.3,11.7,6,18.5,3.2
		C519.5,387.4,520.9,386.5,522.3,387.7z"/>
	<path d="M522.3,387.7c-12.6,6.8-21.9,0.1-30.7-7.9c-1.8-1.6-3.5-3.3-5.3-5c-1.8-3.3-3.4-6.6-4.4-10.4c-2.2-8.7,1.8-14.1,11.2-14.8
		c9.6-0.7,17.5,3.9,24.7,9.5c5.5,4.3,11.3,8.4,11.7,17.1c3.7-9.8,7.7-18.6,14.4-25.8c8.7-5.9,15.4,1.9,17.5,11.4
		c0.2,1.1,0.1,2.2,0.2,3.4c0.4,7-1.3,13.5-5.1,19.4c-0.8,1.7-1.9,3.2-3.6,4.1c-2.1,1.2-4.4,2.1-6.8,2.7c-4.1,0.8-8,0-11.8-1.2
		c-3.5-1.1-6.2-3.3-6.2-7.5c0-0.5,0.2-1,0-1.4c-0.3-0.6-0.8-0.2-1,0.1C526.2,384.1,523.7,385.4,522.3,387.7z"/>
	<path class="st3" d="M469.8,369.1c-5.3,7.4-3,15.5-1.5,23.1c3.6,18.4,10.5,35.7,20.6,51.6c0.9,1.4,1.5,2.9,2.6,5.1
		c-6.8-2.7-10.3-8-13.8-12.9c-10.3-14.1-18.2-29.5-22.9-46.3c-2.3-8-4.5-16.4,1.4-24.2C460.9,365.5,465.4,367.1,469.8,369.1z"/>
	<path class="st2" d="M528.2,382.8c3.9,8.3,11.3,7.9,18.6,7.7c0.7,0.5,1.1,1.3,1.1,2.1c-1,9.3-2.2,18.6-6.4,27.1
		c-2.8,0.5-2.4-1.8-2.8-3.3c-0.7-2.6-0.9-6.3-4.1-6.2c-3,0.1-4.3,3.4-5.2,6.3c-1,3-0.6,6.1-0.8,9.1c-0.1,2.4,0.6,4.9-1.1,7
		c-1.9-1.1-1.1-2.9-1.1-4.4c-0.1-9.1-0.5-18.2,0.1-27.3C527,394.9,526.5,388.8,528.2,382.8z"/>
	<path d="M515.5,446.3c-5.1,0-9.1-2-10.6-7c-2.3-7.5-4.3-15.2-2-23.1c1.1-3.7,5.9-7.3,9.2-6.9c4.6,0.6,5.7,4,6.6,8
		c1.5,7.3,0.6,14.7,0.9,22.1C518.1,441.6,517.5,444.3,515.5,446.3z"/>
	<path class="st2" d="M552.7,387.9c1.3-1,2.5-2.1,3.8-3.1c-0.7,17.8-4.2,35-10.6,51.6c-1,2.5-2.1,5.1-3.2,7.5
		c-1.5,3.2-3.8,6.6-7.4,5.9c-3.2-0.6-5.6-3.7-5.9-7.5c7.3,1.8,7.8,1.5,9.5-6.4c0.3-1.3,0.6-2.5,1.3-3.6c5.3-12.1,7.8-24.9,10.1-37.7
		C550.8,392.2,551.2,389.8,552.7,387.9z"/>
	<path d="M540.9,433.6c-1.7,1.4-0.5,3.2-0.9,4.9c-1.4,6.6-5.7,8.2-10.6,3.9c-1-1.1-1.2-2.5-1.2-3.9c-0.9-1.9,0.3-4.1-0.8-5.9
		c0,0,0.1,0.1,0.1,0.1c0.1-5.7-1.1-11.5,0.9-17.1c1.2-3.4,3.1-7.4,6.6-7c3.9,0.4,4.9,4.7,5.1,8.5c0,1-0.6,2.3,0.9,2.9
		C544,424.5,541.8,429.1,540.9,433.6z"/>
	<path class="st2" d="M527.4,432.5c2,1.7,0.6,3.9,0.8,5.9C526.5,436.7,527.7,434.5,527.4,432.5z"/>
	<path class="st4" d="M497.6,354.8c8.8,1.8,16.8,4.5,23.1,11c2.6,2.7,1.4,4.5-0.2,6.7c-1.8,2.5-3.8,3.2-6.6,1.3
		c-2.2-1.5-3.4-3.9-4.9-5.9C505.6,363.2,501.2,359.4,497.6,354.8z"/>
	<path class="st3" d="M540.9,433.6c0-4.5,0-9.1,0.1-13.6c2.4-9.7,5.4-19.3,5.9-29.5c2-0.9,4-1.8,5.9-2.7
		C550.3,403.5,547.8,419.1,540.9,433.6z"/>
	<path class="st4" d="M553.8,356.5c6.8,6.1,6.8,17.1-1.6,23.3c-1.4,1.1-3,2.8-5.1,1.5c-2-1.3-1.2-3.5-1-5.4c0.1-1.2,0.9-2.4,1.8-3.3
		C552,368.3,553.9,363.1,553.8,356.5z"/>
	<path class="st2" d="M516.6,421c-0.1,1.5,0.6,3.6-1.2,4.3c-1.7,0.7-3.2-0.6-4.4-1.8c-0.7-0.7-1.7-1.3-1.9-2.1
		c-0.7-2.5-3.8-4.6-1.3-7.8c1.2-1.5,2.8-2.2,4.2-1.3c2.6,1.6,4.7,3.8,4.6,7.3C516.6,420.1,516.6,420.5,516.6,421z"/>
	<path class="st5" d="M507,432.7c3.7-0.1,8.4,5.9,7.5,8.7c-0.4,1.4-1.7,2.5-2.9,1.8c-3-1.9-5.8-4.2-6.6-7.9
		C504.7,433.5,506.1,432.7,507,432.7z"/>
	<path class="st2" d="M539.1,420.4c0.4,1.6-0.6,3.1-2.2,4c-2.1,1.2-2.5-1.4-3.7-2.1c-0.1-0.1-0.3-0.2-0.4-0.3c-1.5-3-4-5.9-1.3-9.5
		c0.8-1,1.8-1.8,2.9-1.2C537.7,413.1,538.9,416.3,539.1,420.4z"/>
	<path class="st5" d="M529.2,435.7c0.4-2.3,1.5-4.2,3.7-3.9c3.4,0.5,3.6,3.8,4.1,6.4c0.4,2.2-1.2,4.1-3.3,3.9
		C529.9,441.8,530.3,438.1,529.2,435.7z"/>
</g>
</svg>
