<?xml version="1.0" encoding="utf-8"?>
<!-- Generator: Adobe Illustrator 23.0.1, SVG Export Plug-In . SVG Version: 6.00 Build 0)  -->
<svg version="1.1" id="Layer_4" xmlns="http://www.w3.org/2000/svg" xmlns:xlink="http://www.w3.org/1999/xlink" x="0px" y="0px"
	 viewBox="0 0 1000 1000" style="enable-background:new 0 0 1000 1000;" xml:space="preserve">
<style type="text/css">
	.st0{fill:#FB9A7A;}
	.st1{fill:#6E3720;}
	.st2{fill:#FEFEFE;}
	.st3{fill:#C0FEFE;}
	.st4{fill:#7F7F7F;}
	.st5{fill:#00407F;}
</style>
<g>
	<path class="st0" d="M532.3,479.6c-24,9.4-47.9,18.8-71.9,28.1c-1.7,0.7-3.3,2.2-5.4,1.9c-11.4-21.8-25.6-41.9-38.2-62.9
		c-9.7-16.2-17.6-33.4-21.7-52c-1.7-7.6-2.6-15.3-1-23.2c1.8-8.9,6.2-16,13-21.7c6.9-5.8,14.4-10.5,23.1-13.2
		c17.3-5.2,34.8-10.2,53-9.7c19.2,0.5,38.3,2.6,56.1,10.8c2.1,1,4.3,1.6,5.7,3.6c0.6,1.6-0.5,2.8-1.3,4
		c-5.8,8.3-10.4,17.2-12.9,27.1c-2.1,6.6-1,13.5-1.6,20.3c-1,10.5-1,21-0.2,31.5c0.6,3.7,0.6,7.5,2,11c0.4,1.1,0.6,2.2,1.2,3.2
		c1,2,2.3,3.6,4.7,3.8c2.3,0.1,3.4-1.7,4.3-3.4c3.6-6.2,5.6-13.1,7.4-20c3.7-14.1,6.3-28.4,8-42.9c3.9-5.6,4.6-12.4,7-18.6
		c2.4,0.7,2.3,3,2.8,4.7c2.8,10.4,0.8,20.7-1.6,30.9c-3.2,13.7-8.1,26.8-14.8,39.1c-2.6,4.8-3,8.9-0.5,14.1
		c6.3,13.3,0.3,23.6-14.3,25.6c-8.3,1.2-16.5-0.5-24.8-1.1c-6.8-0.5-13.5-2.1-20.3-2.9c-9.5-1-18.5,0.5-26.2,6.8
		c-0.9,0.7-1.8,1.4-2.5,2.3c-0.3,0.4-0.5,0.8-0.3,1.8c18.2-6.6,36.6-2.1,55-0.9c3.6,0.2,7.1,0.3,10.7,0.4
		C528.8,478.2,530.8,477.9,532.3,479.6z"/>
	<path class="st1" d="M532.3,479.6c-16.5,0.5-32.8-2.9-49.2-3.1c-7.8-0.1-15.4,0.9-22.5,4.1c-0.7,0.3-1.4,1.2-2.1,0.3
		c-0.7-0.9-0.3-1.8,0.3-2.7c3.5-5.6,9-8.5,15-10.5c9.5-3,18.9-0.8,28.4,0.4c11.7,1.5,23.5,3.8,35.5,1.7
		c10.3-1.8,16.9-10.5,11.1-21.9c-3.5-6.9-2.4-11.8,0.9-18c7.5-14.2,12.9-29.3,15.6-45.2c1.6-9.1,2.6-18.4-1.6-27.3
		c-2.4-3.5-1.9-8-4.7-11.5c-4.8-5.9-5.4-6.3-12.6-4c-0.5,0.2-1,0.1-1.4-0.1c-12.9-6.5-26.4-10.5-40.8-11.8
		c-7.4-0.7-14.7-1.6-22.1-1.7c-14.9-0.3-29.2,3.8-43.5,7.2c-11.7,2.8-22.5,7.8-31.4,15.9c-9.9,9-13.6,20.3-12.1,33.8
		c2.1,19.6,10,37.1,19.1,54c7,12.9,15.4,25.1,23.1,37.7c5.7,9.3,11.9,18.3,16.4,28.3c0.7,1.5,1.7,2.8,1.3,4.6
		c-7-5.1-12.1-12.1-17.7-18.4c-11.3-12.8-20.7-27.2-29.2-42.1c-10.3-17.9-18-36.7-22.7-57c-4.3-18.6,1-33.7,14.4-46.2
		c12-11.2,26.8-16.7,42.5-20.8c15.4-4,31-5.6,46.7-4.6c21.2,1.3,42.4,3.6,61.8,13.6c7.9,4.1,15,9.3,20.4,16.5
		c5,6.7,5.7,14.6,4.8,22.4c-1.1,9.9-2.5,19.9-4.9,29.6c-3,11.9-7,23.6-14,34c-1.5,2.2-1.8,4.2-0.3,6.6c11.7,18.2-1.1,32.3-16.6,35.5
		C537.7,479,535,479.3,532.3,479.6z"/>
	<path class="st2" d="M476.5,354.7c3.8-0.7,7,1.8,10.6,1.8c2.3,0.3,3.5,2.2,5,3.6c3.2,3.3,6.6,6.2,10.3,8.9
		c5.4,3.9,11.1,6.2,17.7,3.4c1-0.4,2.1-0.9,3.2-0.1c1.4,11.4,2.8,22.7,1.9,34.2c-0.7,8.8-0.7,17.9-4.6,26.2
		c-2.2-2.1-1.3-4.9-1.4-7.4c-0.4-4.8,0.7-9.7-1-14.5c-1-2.6-2.5-4.7-5.4-4.9c-3.1-0.3-5.1,1.6-6.6,4.1c-3.4,6-1.5,21.3,2.9,26.5
		c2.4,2.8,5.7,1.8,8.4,2.9c-6.3,12.4-17.7,13.6-28.7,5.8c-9.8-7-15.8-17.4-21.7-27.4c-6.8-11.4-12.4-23.6-15.3-36.8
		c-1.7-7.6-2.7-15.1,1.2-22.6c1.8-3.5,4.1-5.2,7.9-5.1c0.8,2.5-1.1,3.9-2.1,5.6c-2.5,4.2-3.6,8.4-2.4,13.4
		c4.9,21.5,12.7,41.6,26.1,59.3c1,1.3,2,2.5,3.2,3.7c1,1,2.3,1.8,3.4,3c-11.1-20.1-19.2-41.1-21.2-64
		C467.2,366.7,469.1,359.2,476.5,354.7z"/>
	<path d="M523.4,372.2c-8.1,4.7-15.5,2.6-22.4-2.6c-5.1-3.8-9.7-8.3-13.8-13.1c-0.9-2.8-2.2-5.6-2.7-8.5c-1.6-9.9,6.7-16,17.3-13.8
		c9.5,1.9,16.9,7,23.7,13.2C534.2,355.4,534.8,363,523.4,372.2z"/>
	<path class="st3" d="M476.5,354.7c-9.9,10.1-7.9,22-5.3,34.1c3.9,18.7,11.4,36,20.9,52.7c-5.8-2.7-8.6-5.2-15.3-15.3
		c-11.7-17.5-18.5-36.9-22.5-57.4c-0.7-3.7,1.5-6.9,3.2-10c1-1.8,2.3-3.5,3.4-5.3C466.3,351.3,471.4,353.2,476.5,354.7z"/>
	<path d="M544.9,341.8c7.3-5,13.3-2.5,17.3,7.2c1.1,2.7,1.4,5.6,1.4,8.5c0.3,6.9-1.9,13-6.1,18.4c-0.8,1.8-1.9,3.3-3.8,4.2
		c-2.1,1-4.2,1.7-6.5,2c-4.3,0.3-8.4,0.2-12.3-2c-3.5-1.9-5.9-4.6-4.9-9C532.6,360.1,538.3,350.7,544.9,341.8z"/>
	<path class="st2" d="M530.1,371.1c0.6,6.3,5.4,8.9,11.5,9.7c2.1,0.3,4.2,0.1,6.3,0.2c1.1,1.1,1.3,2.6,1.2,4.1
		c-1.1,9.5-2.5,19-4.7,28.4c-0.2,1-0.6,1.9-1.4,2.5c-3-0.2-2.1-3.1-3-4.7c-1.3-2.2-1.4-6.2-4.6-6c-2.9,0.2-3.6,3.7-4.6,6.2
		c-1.7,4.1-0.5,8.6-1.9,12.8c-0.2,0.2-0.4,0.3-0.5,0.5c-1.8-1.4-0.8-3.3-0.9-4.9c-0.7-14,0.7-28,0.9-42
		C528.4,375.5,529.2,373.3,530.1,371.1z"/>
	<path d="M517.5,439.4c-5.4,1.7-8.6,0.5-11-4.8c-3.1-7-4.8-14.4-2.6-22c1.8-6.1,5.1-8.9,9.3-8.3c4.2,0.6,7.2,5,7.3,10.8
		c0.1,5.8,0.1,11.7,0.2,17.5C520,435.1,519.2,437.5,517.5,439.4z"/>
	<path class="st2" d="M553.7,379.1c1.3-1,2.5-2.1,3.8-3.1c-0.6,10.6-2.3,20.9-4.7,31.2c-2.4,10.4-4.6,21-9.5,30.6
		c-1.4,2.8-2.5,6.9-6.3,6.2c-3.9-0.8-6.6-3.9-6.7-8.4c0.2-0.1,0.4-0.1,0.6-0.2c6,4.8,6.6,4.6,9-3c0.4-1.4,1-2.7,1.7-4
		c5-13.6,7.9-27.7,9.8-42C551.7,383.7,552,381.2,553.7,379.1z"/>
	<path class="st2" d="M530.3,435.6c-2.1-3.3-2-7-2-10.7c0,0,0,0,0,0C531.3,427.3,532,431.3,530.3,435.6L530.3,435.6z"/>
	<path class="st4" d="M500.5,339.2c8.6,1.1,16.4,3.7,22.5,10.3c2.7,3,2.7,5.5-0.3,8.1c-3.1,2.7-6.3,1.9-8.2-1.1
		C510.5,350.2,505.8,344.7,500.5,339.2z"/>
	<path class="st3" d="M553.7,379.1c-1.6,15.8-4.9,31.2-9.5,46.3c-0.5,1.6-0.8,3.1-2,4.3c-2.7-4.6-0.3-9.1,0-13.7
		c3.1-11.5,4.7-23.2,5.7-35C549.8,380.4,551.8,379.7,553.7,379.1z"/>
	<path class="st4" d="M555.7,348c5.8,4.2,6.5,13.2,1.7,18.8c-1.2,1.4-2.5,2.6-3.8,3.8c-1.5,1.3-2.6,3.7-5.2,1.6
		c-2.8-2.3-1.8-5,0-6.8c3.1-3.1,4.8-6.8,6.1-10.7C555.3,352.6,556,350.5,555.7,348z"/>
	<path d="M542.2,416c2.5,4.6-1.1,9.1,0,13.7c-1.7,1.2-1,3.3-1.5,4.9c-0.9,2.5-1.9,5.2-4.5,5.7c-3.2,0.6-3.9-3.1-5.8-4.7
		c-0.1-3.7-0.5-7.3-2-10.7c0-6-0.5-12,2.9-17.5c1.1-1.8,2.2-3.8,4.4-3.9c2.5-0.1,3.2,2.3,4.1,4.1C541.1,410.2,542.1,413,542.2,416z"
		/>
	<path class="st2" d="M512,407.2c3.4-0.4,4.2,2.3,5.4,4.5c1.3,2.3,1.7,4.8,0.5,7.3c-0.1,0.1-0.2,0.2-0.4,0.3c-1.3,0.8-2.9,1.1-4-0.1
		c-2.6-2.7-6.5-4.8-5.7-9.4C508.3,408.4,509.9,406.9,512,407.2z"/>
	<path class="st5" d="M508.8,426.9c2.6,0,6.9,5,6.8,7.7c-0.1,1.7-0.8,2.8-2.6,2.8c-2.6,0-7.2-4.7-7-7.2
		C506.1,428.4,507.3,427.4,508.8,426.9z"/>
	<path class="st2" d="M540,415.5c0,1.7,0.5,3.8-1.9,4.3c-2.1,0.4-3.1-1.3-4-2.8c-0.1-0.1,0-0.3-0.1-0.5c-1.1-3-3.6-5.9-0.6-9.1
		c0.6-0.6,1.1-1.5,2.4-1C537.8,407.4,540,411.9,540,415.5z"/>
	<path class="st5" d="M538.1,434.1c0.1,2.1-0.7,3.6-3,3.3c-3.4-0.4-3.6-3.1-3.8-5.7c-0.2-2.3,0.6-4.2,3-4.7
		C535.9,426.8,538.1,431.1,538.1,434.1z"/>
</g>
</svg>
