<?xml version="1.0" encoding="utf-8"?>
<!-- Generator: Adobe Illustrator 23.0.1, SVG Export Plug-In . SVG Version: 6.00 Build 0)  -->
<svg version="1.1" id="Layer_4" xmlns="http://www.w3.org/2000/svg" xmlns:xlink="http://www.w3.org/1999/xlink" x="0px" y="0px"
	 viewBox="0 0 1000 1000" style="enable-background:new 0 0 1000 1000;" xml:space="preserve">
<style type="text/css">
	.st0{fill:#FB9A7A;}
	.st1{fill:#6E3720;}
	.st2{fill:#FEFEFE;}
	.st3{fill:#C0FEFE;}
	.st4{fill:#730000;}
	.st5{fill:#FE0000;}
	.st6{fill:#7F7F7F;}
	.st7{fill:#00407F;}
</style>
<g>
	<path class="st0" d="M539.1,476.7c-9.4,5-19.5,8.1-29.3,12c-17.9,7.2-35.9,14-53.8,21c-0.3,0.1-0.6,0-1,0c-2.7-11-7.7-21-13.1-30.9
		c-7.1-13-14.7-25.7-21.8-38.7c-11.9-21.5-21.8-43.8-22.7-68.8c-0.6-15.7,5-29,18.1-38.5c4.4-3.2,9-5.9,14.1-7.8
		c15.3-5.7,30.7-10.8,47-12.5c4.2-0.4,8.4-1.1,12.5,0.6c-2.1,6-1.8,12.2-1,18.4c-2.9,1.3-6,1.5-9,1.9c-17.5,0.9-26.8,12.5-24.1,29.8
		c3.7,24.4,14.4,45.7,28.4,65.5c2.6,3.7,6,6.4,9.8,8.7c7.9,4.8,15.7,3.3,22.6-4.3c3.4-2.5,4.6-6.2,5.2-10.2
		c4.5-21.2,5.3-42.5,1.6-63.9c-0.5-2.7-1.2-5.4-1-8.2c0.2-2.2,1.9-3.2,3.6-4.2c9.1-5.7,10.2-11.5,3.9-20c-1.4-1.8-2.9-3.5-4.6-5
		c-1-0.9-2.6-1.7-1.6-3.5c9.3,0.5,17.7,3.5,24.7,9.8c0.1,1.6-0.9,2.7-1.8,3.8c-7.2,8.7-12.1,18.4-13.6,29.7
		c-1.8,18.6-2.8,37.2-2.1,55.8c0.2,0.5,0.3,1,0.4,1.5c0.5,2.2-0.1,4.5,1,6.6c0.9,1.7,1.5,3.6,2.3,5.4c3.1,4.3,5,4.2,7.7-0.5
		c5.3-9.1,7.7-19.3,10.2-29.4c3.1-12.7,4.6-25.6,6.2-38.5c2-4.5,5.2-8.4,6-13.5c0.2-1,0.9-1.7,2.1-1.6c4,3.3,3.2,8,2.8,12.2
		c-0.8,6.9-1.9,13.9-3.4,20.7c-3.3,15-8,29.5-15.4,43c-2.3,4.2-2.6,7.8-0.5,12.3c6.8,14.9,0.6,26.3-15.4,29.8
		c-8,1.7-15.9,0.5-23.7-1c-8.6-1.7-17.2-3.7-25.9-4.6c-10.8-1-19.6,3-27.1,10.4c0.6,4.3,3.8,4,6.9,4.1c22.1-0.1,44.3-0.3,66.4-0.2
		C533.4,474.1,536.9,473.4,539.1,476.7z"/>
	<path class="st1" d="M547,328.2c-7.4-5.2-15.9-7.7-24.5-9.8c-1.6,0.7-2.8-0.2-4.1-0.9c-8.7-4.6-17.5-7.6-27.3-3.8
		c-0.6,0.2-1.3,0.1-1.9-0.2c-23.4-0.6-45.1,6.2-65.8,15.9c-16.6,7.8-25.2,22.1-24.8,40.3c0.4,16.9,5.1,33,12.1,48.6
		c11.7,26,28.2,49.4,40.2,75.1c2.4,5.2,4,10.4,4.1,16.1c-5.4-4.2-8-10.4-11.6-15.9c-13.2-20.1-26.8-39.9-37.4-61.6
		c-8.1-16.7-14.5-34-17.3-52.4c-1.8-12-1.7-24.1,5.2-34.6c10-15.2,23.9-25.6,41.3-31.7c18.5-6.5,37.4-9.9,56.8-8.6
		c18.3,1.2,36.9,2.6,53.8,10.7c11.3,5.5,22.1,12.2,27.8,24.3c3.5,7.4,3.7,15.1,2.7,23.3c-1.6,12.8-4.3,25.3-8.1,37.5
		c-3,9.7-7.3,18.8-12.1,27.8c-1,1.9-0.9,2.8,0.3,4.8c8.2,13.1,6.7,23.3-5.2,33.2c-2.9,2.4-5.7,5.2-9.5,6.2c-2.3,0.6-1.2,3.2-2.8,4.1
		c-2.4-1.1-5-1.1-7.6-1.1c-23.2,0-46.4-0.1-69.7-0.1c-0.2-0.6,0-1.1,0.5-1.4c7-2.2,14.3-1.7,21.4-2.6c1.7-0.2,3.5,0,5.2-0.6
		c5.4-1,10.7,0.1,14.9,0.5c-1.3,0.2-3.6-0.8-6-0.7c-10.8-2.4-21.6-3.4-32.6-0.9c-3.4,0.2-6.5,2.6-10.1,1.1c-0.3-1.1,0.1-2,0.9-2.6
		c9-6.4,18-11.3,30.1-9.6c13.7,1.9,26.9,6.7,40.8,6.2c5.8-0.2,11.6-1.2,16.3-4.9c7.9-6.3,9.8-13.3,4.7-23.1c-3-5.7-2.2-9.8,0.6-14.9
		c9.9-18.3,14.9-38,17.8-58.5c0.8-5.5,1.7-10.7-1.2-15.8c-1.3-1.3-1-3-1.2-4.5c-0.4-3.2-1.1-6.3-2.7-9.2c-3.7-6.7-5.3-7.4-13-5.5
		C548,328.4,547.5,328.4,547,328.2z"/>
	<path class="st2" d="M522.3,349.6c2.2,14,4.8,27.9,3.9,42.1c-0.7,10.8-1.3,21.7-4.6,32.1c-2.3-2.3-1.3-5.2-1.4-7.8
		c-0.3-4.3,0.6-8.8-1.4-12.9c-1.1-2.4-2.4-4.8-5.4-5c-3.1-0.2-5.1,1.8-6.4,4.4c-3.3,6.2-1.5,21.7,3,27.1c1.8,2.1,4.7,2.2,6.5,4.1
		c-5.9,9.1-17.8,9.8-26.2,3.6c-7.7-5.7-13.1-13.3-17.3-21.6c-7.5-14.5-15.4-29-18.3-45.4c-1.3-7.4-2.8-14.9-0.1-22.4
		c3.4-9.2,13.2-15.5,23.9-15.6c-0.4,2.9-3.2,2.9-5.1,3.8c-7,3.6-13.4,7.6-14.7,16.3c-0.3,2.1-0.5,4.2-0.1,6.3
		c4.9,26.3,14.1,50.7,31,70.9c-8.7-20-17.2-40.7-19-63.5c-0.5-6.3,0.2-12.4,2.6-18.2c3.3-7.8,10.6-12.3,18.9-11.9
		c3.8,1.4,6.1,4.7,9.2,7.1c5.3,4.1,10.9,7,17.9,5.7C520.3,348.5,521.5,348.7,522.3,349.6z"/>
	<path d="M522.3,349.6c-13.4,3.7-21.5-5.1-30.1-12.8c-2.4-1.2-4.6-2.5-4.2-5.8c-3.1-6.1-3.9-12,1.1-17.6c10.5-5.9,20.1-2,29.6,2.7
		c1.3,0.6,2.5,1.4,3.7,2.2c3.2,2.6,5.9,5.6,8.5,8.9c5.2,6.9,3.7,15.1-3.8,19.5C525.5,347.6,523.9,348.6,522.3,349.6z"/>
	<path class="st3" d="M488.1,331.1c1.4,1.9,2.8,3.9,4.2,5.8c-14.4,0.6-20.2,10.3-20.4,23.5c-0.2,14.8,3.3,29.2,8.6,43
		c4,10.2,7.2,20.7,12.4,30.5c-6.8-5.1-11-12.2-15.3-19.1c-10.6-17-16.3-35.9-20.3-55.3c-1.9-9.3,2.9-17.9,12.6-23
		c2.8-1.5,5.8-2.8,8.7-4.2C481.7,332.1,484.8,330.5,488.1,331.1z"/>
	<path d="M547,328.2c6.6-4.2,9.1-4.8,14.8,3.7c3.1,4.7,4,10,3.6,15.6c-1.3,5.4-3.1,10.5-6.9,14.8c-0.8,1.9-2.2,3-4,3.8
		c-2,1-4.2,1.4-6.3,2c-4.1,0.7-8.1,0.4-11.8-1.5c-2.6-1.4-5.1-3-5.1-6.4c0.5-11.3,6.3-20.2,12.8-28.8C545,330.2,546,329.2,547,328.2
		z"/>
	<path class="st2" d="M531.3,360.2c4,6.8,10.5,7.5,17.5,6.9c1.4,1.2,1.4,2.9,1.2,4.5c-1.5,9.7-2.7,19.5-4.9,29.1
		c-0.2,1-0.6,1.8-1.4,2.5c-2.8,1-2.5-1.6-3.3-2.9c-1-1.7-1.7-3.9-3.9-3.8c-2.1,0.1-3,2.3-3.7,4.1c-1.4,3.8-2.2,7.8-2.2,11.9
		c0,2.2,0.5,4.6-1.1,6.5c-1.9-1.1-1.1-2.9-1.1-4.4c-0.1-9.4-0.6-18.9,0.1-28.2C529.1,377.6,529,368.8,531.3,360.2z"/>
	<path d="M516.5,433.6c-5.5,0.3-8.3-2.7-10.5-8.6c-2.1-5.7-2.6-11.8-2.1-17.9c0.5-6,5-10.8,9.6-10.6c3.9,0.2,7.7,5.5,7.9,11.3
		c0.2,5.3,0.1,10.7,0.2,16C521.5,427.9,520.4,431.5,516.5,433.6z"/>
	<path class="st2" d="M554.6,365.1c1.3-1,2.6-1.9,3.9-2.9c-0.6,12.2-2.6,24.2-5.3,36.1c-2.5,11.3-5.3,22.5-11,32.7
		c-1.2,2.1-2.4,4.6-5.3,4.3c-2.5-0.3-4.3-2-4.6-4.8c6,0.4,7-0.3,8.5-6.4c1-3.9,1.2-8,2.5-11.8c4-12.9,6.9-26.1,9.1-39.4
		C552.8,370.3,552.9,367.5,554.6,365.1z"/>
	<path d="M544.1,413.1c-0.9,4.9-1.2,9.9-3,14.6c-1.8,4.8-4.7,5.9-8.7,2.9c-0.7-1.6-1.5-3.3-2.2-4.9c-0.9-2.2,0.4-4.7-0.8-6.9
		c0,0,0.1,0.1,0.1,0.1c-0.2-5.9-0.5-11.7,1.7-17.5c1.2-3.1,2.3-6.9,5.7-6.6c3.4,0.3,5.2,3.8,5.2,7.6c0,0.3,0.6,0.7,0.8,1
		C545.1,406.4,544.9,409.7,544.1,413.1z"/>
	<path class="st4" d="M497.9,469.7c3,0.4,5.9,0.9,8.9,1.3c0,0.2,0,0.5,0,0.7c-5.9,0-11.7,0-17.6,0c-9.1,0.9-18.3,0.8-27.2,2.8
		c0,0.3-0.1,0.6-0.1,0.9c-3.6,0.4-5.7-1.3-6.7-4.7c3.2-0.8,6.3-2.1,9.7-2.1C476,467.2,487,468.5,497.9,469.7z"/>
	<path class="st2" d="M529.3,418.9c1.9,2.1,0.7,4.6,0.8,6.9C528.4,423.6,529.7,421.1,529.3,418.9z"/>
	<path class="st2" d="M497.9,469.7c-11,0.8-22-1-33-1c6.8-2.2,13.9-2.6,20.9-1.5C489.9,467.8,494.2,467.3,497.9,469.7z"/>
	<path class="st5" d="M462,474.6c8.9-3,18-3,27.2-2.8c-3.7,2.3-8,0.9-12,1.5C472.2,474,467.1,474.8,462,474.6z"/>
	<path class="st6" d="M501.4,315.9c9.5,0.2,17.4,4,24.1,10.1c3.3,3,0.6,5.6-1.6,8c-1.9,2-3.6,2.7-5.6,0.2
		C513.1,327.9,508.4,321,501.4,315.9z"/>
	<path class="st3" d="M544.1,413.1c-0.2-3.3-1.7-6.4-1.2-9.7c2.8-12,4.8-24,5.9-36.3c1.9-0.7,3.9-1.3,5.8-2
		c-0.9,12.9-4,25.5-7.2,37.9C546.5,406.5,546.6,410.2,544.1,413.1z"/>
	<path class="st6" d="M557,333.4c9.8,7.4,4.5,21.2-2.7,25.1c-1.7,0.9-2.9,1.1-4.3-0.4c-1.5-1.5-1.4-3-0.7-4.8c1.8-4.5,6-7.7,6.7-13
		C556.3,338.2,556.2,335.9,557,333.4z"/>
	<path class="st2" d="M519.5,408.6c0.3,2.3-1,3.9-2.9,4.3c-2.5,0.6-8-6.2-7.8-9.6c0.1-2.5,1.5-3.8,3.9-3.9
		C515.5,399.4,519.5,404.8,519.5,408.6z"/>
	<path class="st7" d="M516.6,427c0.1,1.7-0.2,3.3-2.4,3.5c-2.5,0.3-7.3-5.1-7.3-8c0-1.8,1.2-3.1,2.9-3.3
		C512.3,418.9,516.5,423.9,516.6,427z"/>
	<path class="st2" d="M541,407.4c0,1.9,0.5,4-1.8,4.6c-2.1,0.6-3.2-1.2-4-2.7c-1.3-2.3-2.6-4.8-1.9-7.6c0.4-1.6,0.9-3.9,2.6-4.1
		c1.9-0.2,3.7,1.9,3.9,3.5C540.1,403.3,541.6,405.3,541,407.4z"/>
	<path class="st7" d="M539.1,425.1c0,2.3,0.1,4.7-2.3,4.4c-3.5-0.4-4.3-3.5-4.5-6.5c-0.2-2.3,0.7-5,3-4.6
		C538.7,419,538.4,422.7,539.1,425.1z"/>
</g>
</svg>
