<?xml version="1.0" encoding="utf-8"?>
<!-- Generator: Adobe Illustrator 23.0.1, SVG Export Plug-In . SVG Version: 6.00 Build 0)  -->
<svg version="1.1" id="Layer_4" xmlns="http://www.w3.org/2000/svg" xmlns:xlink="http://www.w3.org/1999/xlink" x="0px" y="0px"
	 viewBox="0 0 1000 1000" style="enable-background:new 0 0 1000 1000;" xml:space="preserve">
<style type="text/css">
	.st0{fill:#FB9A7A;}
	.st1{fill:#6E3720;}
	.st2{fill:#FBFBFB;}
	.st3{fill:#FEFEFE;}
	.st4{fill:#730000;}
	.st5{fill:#FE0000;}
	.st6{fill:#C0FEFE;}
	.st7{fill:#7F7F7F;}
	.st8{fill:#00407F;}
</style>
<g>
	<path class="st0" d="M539.1,476.6c-6.9,4.5-14.9,6.5-22.4,9.5c-20,8.2-40.2,15.7-60.3,23.5c-0.4,0.2-1,0-1.4,0
		c-2.4-5.6-2.6-11.7-3.8-17.6c-3.1-15-10.3-28.3-17.6-41.6c-11.9-21.5-22.7-43.6-27.7-67.9c-2.7-12.9-5.5-26-2.8-39.1
		c3.1-15.6,12.5-26.9,26.3-34.6c16.3-9.1,34-13.7,52.4-16c2.1-0.3,4.2-0.4,6.2,0.4c3.2,3.6,4.9,8.2,8,11.9c0.6,0.7,0.7,1.8,0.1,2.7
		c-2,1.3-4.2,1.6-6.5,1.9c-9.1,1.4-17.1,5.2-23.9,11.3c-6.7,6.1-8.9,14.1-8.1,23c1.7,18.9,8.6,36.2,16.5,53.2
		c3.6,7.7,7.7,15,13.2,21.6c1,1.2,2,2.5,3.2,3.7c8.8,9,17,8.8,25.3-0.5c4.8-2.8,4-8.3,5.9-12.5c2.5-5.8,2.6-12.1,3.1-18.2
		c2.1-23.2,1.9-46.4-4.1-69.2c-0.2-0.6-0.2-1.3-0.1-1.9c0.1-1.4,0.8-2.5,2.1-3c7.2-2.8,10.7-8.5,12.3-15.7
		c5.9-0.2,10.4,2.6,14.3,6.8c-4.7,6.1-9,12.5-12.1,19.6c-2,4.5-3.5,9-3.5,14c-2,14.8-2.3,29.7-3.6,44.5c-0.7,7.2,0.9,14.2,1,21.3
		c0.2,0.5,0.3,1,0.3,1.5c0.3,3.9,0.6,7.7,3.4,10.8c2.1,2.3,4,2.8,5.3-0.8c0.5-1.7,1.3-3.1,2.3-4.6c7-15.4,10.4-31.8,13.1-48.3
		c1.2-7.4,2.1-14.8,3.2-22.2c3.7-4.6,4.6-10.7,8.3-15.3c3.4,2.8,2,6.7,1.8,10c-1.5,19.2-5,38-12.4,55.9c-2.6,6.3-5.2,12.6-8.1,18.8
		c-1.2,2.5-1.5,4.9-0.1,7.4c1.5,2.6,2,5.4,2.5,8.3c2.5,15-6,25.6-21.3,26c-7,0.2-13.9-0.9-20.6-3.2c-5.2-1.8-10.4-3.8-15.7-5.4
		c-13.4-3.8-24.9-0.1-35.3,8.4c-1.1,1.6-2.2,3.1-2.6,5c-0.7,7.2,1.2,13.7,5.7,19.3c1.8,1.6,3.9,1.5,6.1,1.4
		c20.7-4.9,41.7-8.1,63-9.6c1.8-0.1,3.6-0.2,5.4,0C538.1,471.8,540,473.1,539.1,476.6z"/>
	<path class="st1" d="M488.2,294.1c-15.5,0.6-30.5,3.7-44.8,9.7c-9.2,3.8-18.5,7.6-25.5,15.2c-10.7,11.7-16.3,24.6-14,41.2
		c1.6,11.3,3,22.5,6.1,33.5c2.9,10.3,6.8,20.3,11.2,30.1c6.8,14.8,15.1,28.7,22.5,43.2c6.8,13.4,10.3,27.8,11.2,42.9
		c-2.9-1.6-3.6-4.8-4.6-7.4c-5.1-13.9-12.8-26.4-20-39.2c-9.7-17.4-19.1-35-26.1-53.7c-3.5-9.3-6.6-18.8-8.2-28.6
		c-1.8-11.3-3.1-22.7-1.9-34.4c2.4-23.6,17.8-36.7,36.3-47.5c14.1-8.2,29.5-12,45.8-12.9c3.7-0.2,7.3-1.1,11-0.7
		C489,288.1,489.6,291,488.2,294.1z"/>
	<path class="st1" d="M456.1,455.1c5.6-7,13.7-8.9,21.8-10.7c11.6-2.6,21.3,3.9,31.8,6.7c10.8,2.8,21.6,5.8,32.4-1.2
		c6.7-4.4,8.5-12.2,7.5-18.4c-0.7-4.1-1.3-8.3-3.8-11.8c-1.3-1.8-0.6-3.3,0.2-4.9c7.8-16.2,14.4-32.8,17.9-50.5
		c2.1-10.9,3.6-21.9,3.5-33c0-0.8,0.1-1.6-0.9-2.1c-1.9-1.6-1.2-3.9-1.4-5.9c-0.3-3.8-1.2-7.2-3.5-10.4c-3.4-4.6-7.9-4.9-12.9-4.4
		c-4.2-2.8-8.6-5.1-13.4-6.6c-3.3-4.2-7.1-8.1-9.9-12.6c14.2,1.9,26.5,8,37.3,17.1c6.9,5.8,12,12.8,14,21.7c1.1,5,0.9,10.1,0.4,15
		c-2,18.6-5.5,36.9-12.5,54.4c-2.5,6.2-5.8,11.9-8.6,18c-0.8,1.7-1.9,3.1-0.4,5.2c12.6,17.8-0.8,39.2-18.5,43.6
		c-8.1,2.5-16.1,0.8-24-0.8c-5.9-1.2-11.6-3-17.2-5.3c-10-4-20.2-5.8-30.9-3.2C462.2,455.6,459.1,456.9,456.1,455.1z"/>
	<path d="M525.4,289.2c4.4,3.3,8.2,7.2,9.9,12.6c0.3,9.7-6.2,14.1-13.9,17.5c-5.1,3-9.6,0.3-14.1-1.8c-2.9-1.9-5.7-4.1-8.5-6.2
		c-1.1-1.1-2.5-2.1-2.7-3.9c-2.6-4.5-6.8-8.1-8-13.4c-0.7-2.9-1.1-5.8-0.8-8.7c4.5-6.5,11-8.2,18.9-6.3
		C513.7,280.7,519.7,284.5,525.4,289.2z"/>
	<path class="st2" d="M456.1,455.1c5.1-0.9,10.2-2.1,15.3-2.8c7.3-1,14.5,0.4,21.1,3.1c14.4,5.8,29,9.1,44.5,8.8
		c-0.3,0.8-0.6,1.6-0.9,2.4c-0.4,0.7-1.1,1.3-1.9,1.3c-9.4,0-18.6,2.3-28,2c-6.1-1-12.3-1.1-18.4-1.6c-8.4-0.7-16.9-0.9-25.2-2.2
		c-3.8-0.6-7.3-1.8-8.5-6.2C453.5,457.7,455.3,456.6,456.1,455.1z"/>
	<path class="st1" d="M506.1,468.7c10-1.1,20-2.1,30-2.2c5.2,0.6,7.7,0.9,3,10c-1.1-6.6-6.3-3.9-9.6-3.7c-8.6,0.4-17.1,1.8-25.7,2.7
		c-12,1.3-23.8,4.1-35.6,6.7c-0.8,0.2-1.6,0-2.4,0c-0.1-1.6,1.2-2.3,2.3-2.8c12-5,23.8-10.6,37.2-10.7
		C505.6,468.7,505.9,468.7,506.1,468.7z"/>
	<path class="st3" d="M506.9,316.3c4.6,1.8,9.3,3.8,14.5,3c5.6,18.9,6.6,38.4,5.7,57.8c-0.5,11.3-0.2,23-4.7,33.9
		c-2.3-3.2-1-6.9-1.2-10.4c-0.2-3.6-0.6-7.2-2.7-10.2c-2.8-4.1-6.4-4.1-9.6-0.3c-1.4,1.7-2.2,3.6-2.7,5.7
		c-2.6,10.6,1.1,20.3,10.2,27.1c-7.3,11.7-20.9,9.6-29.9-2.3c-15.2-20.3-24.2-43.3-29.3-67.9c-2-9.4-2.5-19.3,3.7-27.9
		c6.8-9.4,16.8-13.6,27.6-16.1c2.5-0.6,5.1-0.8,7.6-1.2c1,1,2,2,3,3c-2,2-4.7,1.9-7.2,2.4c-8.4,1.6-16.2,4.4-22.4,10.9
		c-5.7,6-8,12.9-7,20.9c3.3,26.8,12.9,51.2,28.6,73.2c0.3,0.4,0.5,0.8,0.7,1.3c-9.8-24.1-17.9-48.7-18.4-75.1
		c-0.3-15.7,7.7-24.9,23.1-27.6C499.9,315.9,503.4,314.4,506.9,316.3z"/>
	<path d="M548.7,308.5c8.1-6.1,17.4,4.8,17.7,13.5c0.1,2.4,0.1,4.8,0.1,7.3c-1.3,5.3-2.6,10.7-7.1,14.5c-0.8,1.9-2.2,3-4,3.8
		c-1.8,0.9-3.7,1.3-5.6,1.6c-9,1.8-15-1.1-17.6-8.3C534.1,328.1,539.4,317.3,548.7,308.5z"/>
	<path class="st3" d="M532.3,340.8c4.8,7,10.5,9.3,17.5,7c1.4,1.4,1.4,3.2,1.2,5c-1.5,11.4-3,22.7-5.3,34c-0.3,1.4-0.5,2.9-1.8,3.9
		c-2.4,0.4-3-1.6-3.8-3c-1.7-2.9-3.4-2.4-5.2-0.2c-3.1,3.8-2.9,8.4-3.3,12.9c-0.2,3,1,6.2-1.4,8.8c-1.1-8.5-2.8-17-1.2-25.7
		c0.1-0.6,0.3-1.3,0.3-1.9C529.1,367.9,530.6,354.4,532.3,340.8z"/>
	<path d="M516.5,422.8c-3.7,0.3-6.5-2-7.8-4.7c-4.1-8.6-7.1-17.5-2-27c1.8-3.4,4.3-5.9,8.2-5.3c3.7,0.6,5.6,3.8,6.6,7.4
		c1.7,5.9,0.7,11.8,1,17.8c-1.2,0.5-1,1.6-0.9,2.5C522.1,417.8,519.9,420.7,516.5,422.8z"/>
	<path class="st4" d="M454.1,459.8c4.3,5.5,10.7,5.1,16.5,5.7c11.1,1.1,22.3,1.4,33.5,2.1c0.8,0,1.6,0.1,1.9,1.1c0,0-0.4,0-0.4,0
		c-6.5,1-13.1,1.2-19.7,2.2c-7.8,1.2-15.2,3.3-21.6,8.1c-1.3,1-2.7,1.8-4.5,1.6C455.3,474.4,452.2,467.8,454.1,459.8z"/>
	<path d="M530.1,409.2c0.5-5.7-0.5-11.6,1.1-17.3c0.2-0.7,0.2-1.6,0.5-2.3c1.1-2.6,2.9-5.4,5.5-5.6c4-0.4,3.9,4.4,5.9,6.6
		c2.4,2.6,1.9,6.1,2.9,9.1c0.6,5.7-2,10.8-3.1,16.2c-1.2,1-1.8,2.4-2,4c-3.1,3.4-4,3.4-6.8,0.4c-2.6-2.9-3-6.6-3.7-10.2
		C530.3,409.8,530.2,409.5,530.1,409.2z"/>
	<path class="st3" d="M542.9,415.9c0.7-5.5,1.4-11,2.1-16.5c-0.2-4.5,1.3-8.6,2.3-12.9c2.6-11.4,5.1-22.8,6.5-34.4
		c0.2-1.9,0.4-3.9,1.7-5.5c1.3-1,2.6-1.9,3.9-2.9c-0.2,10.4-2.5,20.6-4.2,30.8c-2.2,13.7-6.1,27-11.3,39.9
		C543.7,415.1,543.7,415.7,542.9,415.9z"/>
	<path class="st5" d="M459.9,480.6c11.1-9.6,24.4-12,38.5-11.9c2.4,0,4.8,0,7.3,0c-9.3,1.9-18.4,4.4-27.3,7.8
		c-4.3,1.7-8.8,3-12.6,5.8C463.6,482.7,461.6,482.3,459.9,480.6z"/>
	<path class="st3" d="M530.4,410.1c1,2.8,1.7,5.8,3.1,8.4c1.7,2.9,4.2,4.9,7.4,1.4c-1.8,4.2-3.4,4.7-6.3,1.9
		C531.3,418.6,530,414.7,530.4,410.1z"/>
	<path class="st6" d="M506.9,316.3c-5.2,0.8-10.6,1.3-15.7,2.6c-10,2.6-16.5,11.9-16.6,23.1c-0.1,16.3,3.4,32,7.9,47.6
		c3.3,11.3,7.2,22.5,12.5,33.2c-4-2-6.7-5.3-11.8-14c-9.9-17.2-17.4-35.5-21-55.1c-1.4-7.7-3.1-15.7,0.8-23.3
		c5.9-11.7,16.2-16.6,28.3-18.9c2.5-0.5,5.1-0.7,7.7-1.1C502,312.1,504.6,314,506.9,316.3z"/>
	<path class="st7" d="M503.5,283.4c8.1,2.1,16.2,4.1,22.2,10.4c3.2,3.3,3,5.8-0.6,8.8c-3.3,2.7-6.2,0.8-7.8-1.7
		C513.5,294.5,508.6,289,503.5,283.4z"/>
	<path class="st6" d="M555.6,346.6c-0.6,12.4-3.2,24.5-6.1,36.6c-1.3,5.4-1.8,11.1-4.4,16.2c-1.4-2.8-1.8-5.8-2-8.8
		c3.5-14.1,5.5-28.4,6.7-42.8C551.7,347.4,553.7,347,555.6,346.6z"/>
	<path class="st7" d="M557.7,315.1c4,0,4.6,3.4,5.5,5.9c2,5.7-2.2,15-7.5,17.9c-3.3,1.8-4.7,0.9-4.9-2.8c-0.2-2.6,1.1-4.8,2.4-6.7
		C556.2,325.1,558,320.4,557.7,315.1z"/>
	<path class="st3" d="M512.8,388.6c2.5,0.2,3.6,2.2,4.8,3.8c1.3,1.7,2,3.8,2.7,5.8c0.2,0.6,0,1.7-0.5,2.2c-1.1,1.3-2.2,2.7-4.4,1.5
		c-3.9-2.1-5.5-5.4-5.7-9.5C509.7,390.3,511.3,389.4,512.8,388.6z"/>
	<path class="st8" d="M509.9,409.3c3.4,0.1,8.3,6.2,7.5,8.8c-0.5,1.4-1.3,3-3.5,2.5c-2.7-0.6-6.5-6.3-6.1-9
		C508.1,410,509,409.3,509.9,409.3z"/>
	<path class="st3" d="M542,396.5c-0.1,1.8,0.5,3.7-1.3,4.6c-2.1,1.1-3.1-0.9-4.4-2c-1.6-1.4-2.9-3-3.1-5.2c-0.3-3,0.8-6,3.4-6.8
		c2.8-0.8,3.7,2.5,4.3,4.6C541.4,393.3,542.8,394.9,542,396.5z"/>
	<path class="st8" d="M540.1,415.7c0.2,1.5-0.7,3.5-2.7,3.9c-2,0.4-3-1.5-3.3-3.4c0-0.2,0-0.3-0.1-0.5c-1.1-2.3-1.5-4.7,0.2-6.8
		c0.7-0.8,1.8-0.8,2.7-0.2C539,410.2,540,412.3,540.1,415.7z"/>
</g>
</svg>
