<?xml version="1.0" encoding="utf-8"?>
<!-- Generator: Adobe Illustrator 23.0.1, SVG Export Plug-In . SVG Version: 6.00 Build 0)  -->
<svg version="1.1" id="Layer_4" xmlns="http://www.w3.org/2000/svg" xmlns:xlink="http://www.w3.org/1999/xlink" x="0px" y="0px"
	 viewBox="0 0 1000 1000" style="enable-background:new 0 0 1000 1000;" xml:space="preserve">
<style type="text/css">
	.st0{fill:#FEFEFE;}
	.st1{fill:#C0FEFE;}
</style>
<g>
	<path class="st0" d="M520.6,367c-0.8,16.4-1.7,32.8-9.3,47.9c-4.2,8.2-10.1,12.4-16.5,10.7c-5.6-1.5-10.8-4.3-14.2-9.4
		c-10.9-16.3-19.6-33.6-23.8-52.8c-1.9-8.5-4.6-16.9-2.9-26.1c1.5-8,4.5-14.1,11.7-18.2c9.2-5.2,18.7-9.6,29.5-9.4
		c10.8,0.2,18.7,1.9,21,16.1c1.4,8.7,2.9,17.4,3.6,26.2C520.1,357,520.5,362,520.6,367z"/>
	<path class="st0" d="M523.4,386.2c0-21.8,2.6-43.3,6.9-64.6c1.6-7.9,8.1-9.8,14.3-3.8c6.3,6,8.9,14,7.9,22.5
		c-1.4,12.4-3,24.9-5.9,37c-3.3,13.8-6.8,27.7-14.2,40.2c-2.1,3.7-3.9,2.8-5.8,0.2c-3.2-4.6-2.7-10.2-3.2-15.4
		C523,397,523.4,391.6,523.4,386.2z"/>
	<path class="st1" d="M505.9,315.5c-8.5-0.1-16.1,2.8-23.5,6c-7.6,3.3-11.2,10.1-12.6,17.9c-2.2,12.9,1.7,25.3,4.1,37.7
		c2.6,13.1,8.2,25.2,13.6,37.3c0.6,1.2,1.8,2.3,1,4.6c-3.7-2.8-6.2-6.3-8.4-9.9c-11.5-18.3-19-38.1-22.5-59.5
		c-1-6-0.6-11.9,1.1-17.7c1.3-4.6,4.4-8,8.5-10.2c11.4-6.4,23.4-10.3,36.7-7.2C504.5,314.7,505.2,315.2,505.9,315.5z"/>
	<path class="st1" d="M529.6,414.1c3.1-11.9,6.9-23.5,9.6-35.5c2.4-10.5,2.7-21.1,3.6-31.7c0.4-4.4,1.8-8.7,0.4-13.4
		c-1.7-5.6-2.9-11.2-9.3-14.8c5.1-0.6,8.5,0.4,10.6,3.9c2.8,4.6,4.8,9.8,4.3,15.2c-2,18.7-3.8,37.5-10.4,55.4
		C535.8,400.3,534.3,407.9,529.6,414.1z"/>
</g>
</svg>
