<?xml version="1.0" encoding="utf-8"?>
<!-- Generator: Adobe Illustrator 23.0.1, SVG Export Plug-In . SVG Version: 6.00 Build 0)  -->
<svg version="1.1" id="Layer_4" xmlns="http://www.w3.org/2000/svg" xmlns:xlink="http://www.w3.org/1999/xlink" x="0px" y="0px"
	 viewBox="0 0 1000 1000" style="enable-background:new 0 0 1000 1000;" xml:space="preserve">
<style type="text/css">
	.st0{fill:#46423A;}
	.st1{fill:#21201F;}
	.st2{fill:#EEEAE7;}
	.st3{fill:#A8A8A8;}
</style>
<g>
	<path class="st0" d="M583.9,348.6c-5.2-0.1-10.4-0.1-15.6-0.2c-13.5-8.2-28.1-6.6-42.7-4.8c-16,2-31.7,6.2-47.7,7.6
		c-22,2-43.3,7.2-64.1,14.3c-1.7,0.6-3.5,0.9-5.3,0.6c-12.8-4.2-19.2-12.9-19.2-27c0-10.4,2.2-20.6,6.2-30.3
		c1.2-1.8,3.1-2.2,4.9-2.8c7.2-2.6,14.7-4.1,21.9-6.8c21.7-8.2,40-22.1,58.6-35.4c11.9-8.5,23.5-17.4,34.8-26.7
		c8.4-6.9,18.1-11.2,28-15.6c11.8-5.2,21.4-1.9,30.2,6.4c7.9,7.5,14.6,16.1,22,24.1c4.4,11.1,6.2,22.8,8.1,34.5
		c1.8,11.1,0.2,22-1.3,32.9c-1.5,10.7-7,19.4-13.8,27.4C587.6,348.3,586.3,349.9,583.9,348.6z"/>
	<path d="M583.9,348.6c6-2.5,8.2-8.3,11.4-13.2c5.7-8.6,6.2-18.7,7.3-28.7c2.2-19.1-2.8-37-8-54.9c-1.6-2.1-2.5-4.5-3.2-7
		c-5.5-18.2-12.8-35.4-25.3-50.1c-0.6-0.7-1.2-1.5-1.9-2.2c-7-7.4-10.2-7.7-18.2-1.6c-15.5,11.8-31.8,22.7-46,36.1
		c-12.7,11.9-26.3,22.7-39.4,34.1c-8.9,7.6-19.5,12.3-30.2,16.6c-9.3,3.7-18.8,7.2-28.5,9.9c-20.4,5.5-40.9,10.4-62,12.4
		c-5.5,0.5-11,0.8-16.5,1.2c-8.3,0.6-9.4,2.1-7.5,10.5c1.5,6.7,4,13,7.2,19.1c6,12.9,14,24.6,22.4,35.9c1.9,2.6,6.3,3.3,6.1,7.5
		c-2.3,2.1-5.4,3.2-7.5,5.9c-15.6-16-26.9-34.5-34.6-55.2c-2.2-6-3.8-12.1-3.9-18.4c-0.1-10,2.6-13.4,12.3-14.3
		c4.5-0.4,8.9-1.3,13.4-1.2c12.2,0.3,23.9-2.9,35.7-5.2c5.3-1.1,6.8-6.3,9.6-9.9c8.8-11.4,18.7-21.5,30.6-29.8
		c11.5-8,24.3-12.1,37.9-14.7c12.7-2.4,25.6-3,38.3-4.8c3.1-0.4,5.2-2.8,7.3-4.9c15.7-15.7,33.6-28.8,51.6-41.6
		c10.1-7.2,13.5-6.4,24.6,0.7c7.5,4.8,11.6,12.5,16,19.8c12.5,21,20.2,43.7,24.5,67.7c2.1,11.5,4.5,23,3.7,34.6
		c-1,14.2-2,28.4-10.1,41c-1,1.5-2.3,2.7-3.2,4.1C591.8,357.8,592.2,358.1,583.9,348.6z"/>
	<path class="st1" d="M351.6,374.1c-12.9-11.9-21.4-26.9-29.3-42.2c0.8-2.7,3-4.1,5.3-5.4c3.8-2.2,8.1-3.3,12.3-4.5
		c17-4.8,34-9.3,51.2-13.4c1.6-0.4,3.1-0.9,4.8-0.4c0.2,0.2,0.4,0.3,0.6,0.5c-2.3,8.4-4.4,16.8-5.8,25.5c-2.1,13.4,3.7,24,17.5,31.1
		c0.2,2.1-1.6,2.2-2.8,2.7c-6.4,2.6-12.9,5.1-19.6,6.9c-10.3,0.1-20.7,0.1-31,0.1C353.7,375,352.7,374.4,351.6,374.1z"/>
	<path d="M385.8,374.8c5.7-3.8,12.4-5.1,18.6-7.8c1.3-0.6,2.9-0.5,3.9-1.8c7.8-0.8,14.8-4.3,22.3-6.4c14.5-4.1,29-7.1,44-8.4
		c10.9-1,21.6-3.5,32.4-5.2c13.2-2.2,26.4-5,39.8-4.2c7.7,0.4,16,0.3,21.6,7.5c-3.6,1-6.9-1.1-10.4-0.9c-14.4,1-28.8,1.6-43.1,4.7
		c-11.7,2.5-23.8,3.6-35.7,5.1c-16.8,2.1-33.5,4.3-50,8.2c-13.1,3.1-26.2,6.3-39.3,9.4C388.4,375.2,387.1,374.9,385.8,374.8z"/>
	<path class="st2" d="M402.4,286.3c14.2-5,28.5-9.5,42-16.3c8.4-4.2,15.7-10,22.8-16.1c12-10.3,24.2-20.4,35.9-31.1
		c14.2-13,30.4-23.4,45.4-35.5c4.7-3.7,9.3-2.9,15.1,2.8c5.6,5.5,9.9,11.9,13.9,18.6c8,13.4,13.1,28,17.1,43
		c-7.7-6.8-13.4-15.6-21-22.5c-3-2.7-6.2-4.9-9.7-6.9c-5.1-3-10-2.8-15.5-1.1c-14,4.4-26.2,11.7-37.5,21.1
		c-15,12.4-30.6,23.8-46.6,34.8c-8.9,6.1-17.9,12-27.5,17c-12.2,6.3-25.2,10.2-38.3,13.5c-0.8,0.2-1.4,0.7-2.1,1l0.1-0.2
		c-0.5-0.5-0.8-1.1-0.7-1.7C397.6,299.8,398.1,292.4,402.4,286.3z"/>
	<path class="st2" d="M519.4,277.1c0.1-0.7,0.2-1,0.2-1.4c0.1-2.8-0.7-6.8,3.2-6.9c3-0.1,5.3,2.6,6.6,5.9c3.9,9.9,10.8,17.5,19,24.2
		c0.8,0.6,1.2,0.5,2,0.1c8.6-4.5,17.9-8.1,20-19.4c0.5-2.6,1.7-5.1,3-7.5c1-1.9,2.7-2.5,4.3-0.6c4.4,5.4,5.1,17.9,1.5,24.3
		c-1.9,3.3-4.2,4.4-6.4,0.8c-1.1-1.8-2.1-1-2.8-0.5c-4.1,2.1-8,4.5-12.5,7c4.6,2.1,8.7,3.9,12.8,5.9c3,1.5,4.4-0.2,5.7-2.4
		c0.8-1.4,1.3-3.2,3.4-2.7c2.4,0.6,1.8,2.7,2,4.4c0.2,1.4-0.6,2.5-1.1,3.6c-1.7,3.8-7,5.2-6.5,10.6c0.1,0.8-2.5,2.3-4.1,1.7
		c-1.9-0.7-4.2-2.2-3.8-4.5c0.7-4.4-2.4-5.5-5.3-6.8c-3.6-1.6-7.6-2.6-11-4.5c-3-1.7-5.4,0-7.8,0.6c-6,1.5-11.7,3.7-17.6,5.7
		c-2.5,0.8-3.9,2.7-4.4,5.2c-0.5,2.6-2.1,4.1-4.4,5.3c-2.2,1.1-3.8,0.8-5.6-0.6c-2-1.6-2.6-3.9-1.4-5.6c3-4.3,0.8-7.5-1.4-10.9
		c-1.9-3-0.5-6.3,2.9-7.7c1.2-0.5,1.9-0.4,2.5,0.5c4.4,7.5,11,6.4,17.7,4.6c10-2.7,10.1-3.3,2.7-10.6c-0.8-0.8-1.7-1.5-2.4-2.4
		c-1.8-2.4-3.5-3.5-6-0.7c-1.3,1.4-3.3,1.3-5.2,0.4c-3.2-1.4-8-10.9-7-14.3C513.2,273.9,514.9,273.6,519.4,277.1z"/>
	<path class="st2" d="M538,253.7c0.4-9.3,3.5-16.9,9.3-23c2.8-2.9,6.9-4,11.1-2.8c6.2,1.7,9.9,5.9,11.9,11.9
		c2.5,7.4-1.2,14-2.4,20.9c-1.4,8.1-5.1,15.6-6.5,23.7c-0.7,4.1-5.6,9.1-8.1,8.4c-4.5-1.2-7.4-3.9-7.5-9.2
		c-0.1-7.3-5.4-13.1-6.4-20.2C538.9,260,538.4,256.5,538,253.7z"/>
	<path class="st3" d="M402.4,286.3c-2,7.4-3.9,14.8-5.9,22.2c-19.9,5.2-39.8,10.5-59.7,15.7c-5.5,1.4-10.3,4-14.5,7.7
		c-4.6-7.2-6.8-15.3-8.8-23.4c-1.3-5.6,0.8-8.5,6.8-8.6C348.4,299.2,375.4,293.1,402.4,286.3z"/>
	<path class="st1" d="M477,235.6c-24.3,30.2-58.2,40.4-93.1,48.7C405.4,249.8,437.8,236.5,477,235.6z"/>
	<path class="st0" d="M556.1,252.5c-0.8,4.3-1.6,8.7-2.3,13.1c-0.2,1.2-0.4,2.6-1.6,2.5c-0.8,0-1.9-0.5-2.6-1.7
		c-3.3-6.1-4.6-12.4-2.4-19.1c0.6-1.8,1.6-4.1,4.2-4.1c2.8,0,3.4,2.4,4,4.4c0.4,1.5,0.2,3.2,0.3,4.8
		C555.8,252.5,556,252.5,556.1,252.5z"/>
	<path class="st0" d="M558.6,261c0-5.6,0.9-11.1,3.6-16.1c0.3-0.6,0.2-1.8,1.4-1.6c1,0.2,1.6,0.9,1.8,2c0.3,1.5,1.2,3.2,0.9,4.6
		c-0.9,5.4-1.1,11.1-4.3,15.8c-0.6,0.9-0.5,2.9-2.4,2.3c-1.3-0.4-1-1.9-1-3C558.6,263.6,558.6,262.3,558.6,261z"/>
</g>
</svg>
