<?xml version="1.0" encoding="utf-8"?>
<!-- Generator: Adobe Illustrator 23.0.1, SVG Export Plug-In . SVG Version: 6.00 Build 0)  -->
<svg version="1.1" id="Layer_4" xmlns="http://www.w3.org/2000/svg" xmlns:xlink="http://www.w3.org/1999/xlink" x="0px" y="0px"
	 viewBox="0 0 1000 1000" style="enable-background:new 0 0 1000 1000;" xml:space="preserve">
<style type="text/css">
	.st0{fill:#FB9A7A;}
	.st1{fill:#6E3720;}
</style>
<g>
	<path class="st0" d="M539.1,476.6c-5.6,3.6-12.1,5.1-18.1,7.5c-21.8,8.5-43.8,16.6-65.8,24.8c-1.7-1.3-2.1-3.2-2.3-5.2
		c-1.1-10.7-5.1-20.5-9.6-30.1c-5.6-11.8-11.6-23.3-17.8-34.8c-9.9-18.4-17.4-37.8-23.3-57.8c-3.1-10.4-4.5-21.1-3.6-31.8
		c2-21.6,15.1-35.1,34.3-43c17.1-7,34.8-12.2,53.6-10.6c16.7,1.4,33.3,3.5,49,9.9c7.9,3.2,14.6,8,20,14.4c5.3,6.3,6.8,13.8,6,22
		c-1.7,18.8-6.9,36.7-12.8,54.5c-1.7,5.1-4.3,9.8-6.8,14.6c-1.7,3.2-2.2,6.4-0.9,9.8c0.5,1.2,0.7,2.5,1.1,3.8
		c3.9,12.9-2.9,23.6-16.4,25.8c-5.8,1-11.6,1.1-17.4-0.1c-8.3-1.6-16.7-2.9-25-4.2c-9.4-1.4-20.4,3.3-24.8,10.6
		c2.6-0.1,5-0.7,7.1-1.6c10.5-4,21-3.1,31.7-1.1c7,1.3,14.1,2.4,21.2,3.3c1.5,0.2,3,0.6,4.4,0.2c6.6-2.1,9.7,1.7,11.9,6.9
		C536.6,468.4,539.9,471.8,539.1,476.6z"/>
	<path class="st1" d="M539.1,476.6c-2.2-6.1-5.5-11.6-8.6-17.2c-0.7-1.3-1.7-1.6-2.7-1.3c-8.3,2.3-16.2-0.7-24.2-1.7
		c-7.3-1-14.5-2.7-21.9-3c-6.7-0.3-13.1,2.8-19.6,4.2c-2,0.4-4.1,0.3-6.2,1.4c1.5-3.7,3.3-6.8,6.7-9.1c10.6-7.3,21.9-5.4,33.4-3.1
		c6.6,1.3,13.2,2.6,19.8,3.4c10.3,1.2,21.5-4.5,25.7-12.7c1.4-2.7,1.7-5.2,0.7-8.3c-4.3-13.1-3.7-12.9,1.8-25.5
		c6.3-14.5,11.4-29.5,13.6-45.3c0.8-5.9,2.2-11.7,2.8-17.5c1.1-11.7-4.3-20.4-13.4-27.3c-11.1-8.4-24.2-11.4-37.5-13.7
		c-9.7-1.7-19.3-2.9-29.2-3.1c-17-0.2-32.6,4.9-48,11.1c-14.4,5.8-25.4,15.7-30.5,30.9c-3.9,11.7-2.6,23.7,0.1,35.2
		c6,25.9,16.7,50,29.5,73.4c7.8,14.2,15.4,28.6,20.3,44.1c1.8,5.7,2,11.7,3.4,17.4c-3,0.9-3-2-3.8-3.4
		c-7.7-15.1-14.9-30.5-22.8-45.5c-5.7-10.8-11.9-21.3-17-32.4c-7.9-16.9-14.9-34.3-17.7-52.8c-1.8-11.7-3.7-23.5-0.6-35.7
		c3.3-12.8,11.2-21.7,20.9-29.5c13.6-11.1,30.2-15.9,46.9-19.2c12.7-2.5,25.8-1.7,38.9,0.3c11.9,1.9,24,2.6,35.3,7.2
		c11.5,4.7,21.8,11.4,28.9,21.8c4.4,6.4,5.3,13.6,4.5,21.7c-2,20.1-7.4,39.1-13.9,58c-1.4,4.1-3.4,7.9-5.5,11.6
		c-2.2,3.8-2.5,7-0.1,10.9c3.3,5.6,4.3,11.6,1.7,18.1c-1.2,3-3,5.5-5.4,7.1c-6.9,4.7-7.5,11.1-5.2,18.2
		C541.6,469.4,540.9,472.9,539.1,476.6z"/>
</g>
</svg>
