<?xml version="1.0" encoding="utf-8"?>
<!-- Generator: Adobe Illustrator 23.0.1, SVG Export Plug-In . SVG Version: 6.00 Build 0)  -->
<svg version="1.1" id="Layer_4" xmlns="http://www.w3.org/2000/svg" xmlns:xlink="http://www.w3.org/1999/xlink" x="0px" y="0px"
	 viewBox="0 0 1000 1000" style="enable-background:new 0 0 1000 1000;" xml:space="preserve">
<style type="text/css">
	.st0{fill:#FEFEFE;}
	.st1{fill:#004080;}
</style>
<g>
	<path d="M526.4,379.1c0.3-4.2-0.9-9.3,1.1-14c1-2.5,2.3-5.5,5.3-5.5c2.9,0,3.8,3,4.4,5.5c2.1,9.4,1.3,18.5-2.8,27.3
		c-1.1,2.2-2.9,3.3-4.8,3c-2.3-0.3-2.9-2.7-3-4.8C526.3,387,526.4,383.4,526.4,379.1z"/>
	<path class="st0" d="M536.1,370.1c-0.2,1.8,0.8,4.5-1.9,4.7c-2,0.1-3.1-1.9-3.1-4.1c0-0.2-0.5-0.5-0.6-0.7
		c-0.9-2.5-0.2-4.7,1.3-6.7c0.4-0.6,1.2-1.3,2-0.6c1.6,1.6,2,3.8,2.3,6C536.2,369.1,536.1,369.6,536.1,370.1z"/>
	<path class="st1" d="M533.2,388.7c0,2.2-0.5,4.1-2.6,3.7c-2.9-0.6-3.2-3.2-3.3-5.6c-0.1-1.9,0.5-4.9,2.2-4.4
		C532.1,383.2,532.7,386.5,533.2,388.7z"/>
</g>
</svg>
