<?xml version="1.0" encoding="utf-8"?>
<!-- Generator: Adobe Illustrator 23.0.1, SVG Export Plug-In . SVG Version: 6.00 Build 0)  -->
<svg version="1.1" id="Layer_4" xmlns="http://www.w3.org/2000/svg" xmlns:xlink="http://www.w3.org/1999/xlink" x="0px" y="0px"
	 viewBox="0 0 1000 1000" style="enable-background:new 0 0 1000 1000;" xml:space="preserve">
<style type="text/css">
	.st0{fill:#2B485D;}
	.st1{fill:#FEFEFE;}
	.st2{fill:#A1BDD0;}
</style>
<g>
	<path class="st0" d="M466.8,435.4c-0.2,18.2-5.2,34.4-16.3,47.9c-8.3,10.1-19.4,17.3-32.9,18.5c-8.4,0.8-16.3-2.7-23.2-7.4
		c-4.1-2.8-7-3.4-11.2-0.2c-10.4,7.7-22.5,12.7-35.1,13.3c-14.3,0.6-28.4-3-37.5-15.8c-5.5-7.8-6.1-16.9-3.4-25.9
		c1.1-3.6,0.8-5.5-3.3-6.8c-8-2.5-15.9-5.7-22.4-11c-8.8-7.1-16.7-22.6-8.8-37.3c2.3-4.2,2-6-2.2-8.9c-11.4-7.9-17.4-19.3-19.8-32.9
		c-1.9-11-1.8-22.4,4.5-30.9c6.4-8.6,4.9-15.6,2.6-24.3c-2.3-8.9-3-18.2-4.3-27.3c-1.4-9.9-1-19.6,1.5-29.1
		c3.7-14.2,17.6-17.7,28.4-7.4c5.8,5.6,9.7,12.6,13.6,19.5c13.2,23,26.7,45.8,43.7,66.2c11.1,13.3,25.3,22.7,39.6,31.9
		c13.9,9,29.7,13.1,45.1,18.1c9.4,3,18.7,6.5,26.1,13.1c6.9,6.2,10.6,14.6,12.9,23.5C465.9,426.8,467.3,431.3,466.8,435.4z"/>
	<path class="st0" d="M485.3,437.1c-0.3-17.2,2.3-33,9.9-47.6c4.3-8.2,10-15.5,16-22.5c17.2-19.9,35.1-39.2,46.7-63.2
		c6.2-12.8,9.2-26.5,12.3-40.2c1.7-7.6,3.3-15.1,4.9-22.7c3.5-17.4,21.1-18.5,31.5-10.8c14,10.4,14.6,24.9,13.5,40.2
		c-0.6,8.3-1.4,16.6-3.2,24.7c-2.2,10.3-5.1,20.5-8,30.7c-0.6,2.1,0,3,1,4.6c5,7.5,7,15.5,5.6,24.8c-1.5,9.3-4.7,17.7-8.8,25.9
		c-0.8,1.6-0.8,2.9-0.2,4.3c6.6,14.7,4.1,28.7-3.4,42.3c-0.7,1.3-2.4,2.4-0.7,4.6c6.7,8.5,9.3,18.2,6.9,29
		c-4.3,19.4-17,26.1-34.5,29.9c-4.5,1-8.8-1.1-13.1-2.4c-2.6-0.8-3.7,0.2-4.8,1.7c-7.9,10.6-18.9,13.3-31,10.6
		c-20.2-4.4-33.7-16.5-38.1-37.2C485.9,454.8,485.1,445.5,485.3,437.1z"/>
	<path class="st1" d="M385.8,447.2c4.4,0.5,8.5,2.6,13.9,1.8c-6.7-3.1-13.2-5.1-18.8-9c-9.7-6.6-17.4-14.8-20.3-26.5
		c-1.5-5.9,1.5-11.2,2.9-16.7c0.2-0.9,1.3-1.5-0.1-2.2c-6.4,2.1-12.2-1-17.9-2.9c-15.5-5.4-29.1-14.4-40.7-25.6
		c-14.8-14.2-28-29.9-36.4-49.1c-2.4-5.5-2.5-11.7-4.7-17.3c-1.9-7.4-2-15.1-2.9-22.7c-0.8-6.8,0.9-13.7,3.3-20.1
		c3-7.9,9.7-5.2,15.4,0.9c3.4,3.6,5.8,8.3,8.4,12.6c12.3,19.7,23,40.5,37.3,58.9c8.4,10.9,17.9,20.9,28.9,29.5
		c10.7,8.4,21.8,15.8,33.9,21.8c12.3,6.1,25.8,9.4,38.7,13.8c12.2,4.2,22.8,10.3,27.3,23.4c2,11-0.6,21.4-4.4,31.4
		c-4.3,11.3-10.9,21.4-21.3,28.4c-6.9,4.6-14.3,6.2-22.3,3.5c-11-3.7-20.4-10-27.6-19.2c-1.2-1.5-2-3.3-2.8-5.1
		c-2.4-5.6,1.8-12,7.8-10.1C384.2,447,385.1,446.7,385.8,447.2z"/>
	<path class="st2" d="M317.3,461.8c2.3-2.3,4.6,0.2,6.8,0.3c7.2,0.5,14.3,2,21.4,2.6c6,0.6,11.8-0.5,17.2-3.4
		c-10.3,1.8-20.2-0.6-30-2.5c-12.6-2.4-25.3-5.2-36.8-11.5c1.2-1.3,2.7-1,4.1-0.6c5.7,1.3,11.6,1.7,17.3,2.6
		c6.3,1,12.3-0.3,18.3-1.7c2.2-0.5,4.1-1.9,5.8-3.4c2.8-2.5,3.7-5.3,1.1-8.5c-0.9-1.1-2-2.2-1.6-3.9c7.3,1.3,14.5,2.6,21.8,4
		c0.1-0.3,0.1-0.6,0.2-1c-6.1-1.7-12.1-3.5-18.3-5c-20.8-4.9-39.7-14.1-57.7-25.3c-7.4-4.6-14.2-9.8-19.6-16.7
		c-0.7-0.9-1.6-1.6-1.6-2.9c1.7-0.8,2.7,0.5,3.8,1.4c8.5,7,17.9,12.4,27.9,16.8c14,6.1,28.5,10.9,43.5,14.4c4.1,1,7.7,0.9,10.8-2.2
		c3.7,0.9,6,3,6.7,7c0.9,5.4,4.9,9,8.7,12.4c2,1.8,2.4,3.3,1,5.7c-5.8,10.1-4.5,20,1.9,29.3c3.2,4.8,6.1,9.9,10.6,13.7
		c2.2,1.8,1.4,2.7-0.8,4.2c-10.4,6.8-21.7,11.2-33.9,12.3c-5.3,0.5-10.7-1.2-15.6-3.6c1.2-1.6,3.1-1.6,4.8-2.1
		c2.2-0.6,4.2-1.5,6.1-2.8c8.6-6.2,8.1-15-1-20.2c-5.4-3.1-11.1-5.2-17.1-6.6C320.7,464,318.5,463.9,317.3,461.8z"/>
	<path class="st1" d="M351.5,415.2c-1.1,3.8-3.4,4.9-7.2,4.1c-21.8-4.4-42.5-11.7-61.9-22.4c-6-3.3-11.2-8-16.8-12
		c-6.5-9.1-8.7-19.2-7.3-30.1c0.8-6.3,1.8-12.6,7-17.5c4.1,8.3,8.4,16.6,13.6,24.3c6.2,9.2,14.1,16.6,22.9,23.4
		C317.3,396.8,334.1,406.4,351.5,415.2z"/>
	<path class="st1" d="M340.8,431.8c1,1.1,2,2.1,2.9,3.2c2.7,3.1,2.6,6.2-0.3,9c-2.4,2.4-5.1,4.3-8.6,5.2
		c-12.1,3.4-23.9,0.8-35.8-1.4c-1.1-0.2-2.2-0.3-3.3-0.5c-11.5-4.7-17.9-13.1-18.5-25.7c-0.2-3.9,1.9-7,3.2-10.3
		c0.9-2.2,2-2.3,3.9-1.2c7.4,4.3,15.1,7.9,23,11.3c9.5,4.1,19.6,5.9,29.3,9.2C338,431.1,339.4,431.4,340.8,431.8z"/>
	<path class="st2" d="M263.8,299.8c1.1,1.2,1.5,2.7,1.9,4.3c3.5,14.9,11.1,27.8,20.8,39.5c5.5,6.6,10.5,13.6,16.7,19.4
		c10.8,10.2,22.9,18.9,36.6,25.1c7.5,3.4,15.3,5.9,23.6,6.5c-2.4,4.7-5.3,9.1-6.1,14.5c-0.3,2-1.2,3.4-3.9,2
		c-19.2-9.8-36.7-22-53.1-36c-19.1-16.3-29-37.4-34.3-61.2C264.9,309.3,264.5,304.5,263.8,299.8z"/>
	<path class="st2" d="M385.8,447.2c-1.3,0-2.6,0-3.9,0.1c-4.7,0.5-6.5,3.6-5.3,8.2c1.2,4.4,4,7.9,7.2,10.7
		c5.1,4.4,10.4,8.6,16.7,11.5c13.3,6.2,21.7,4.1,32-4.7c4.1-3.6,7.6-8.2,10.6-13.1c8.1-12.9,10.2-27.3,11.1-42
		c6.8,13.5,5.4,27.1,0.6,40.8c-2.3,6.7-5.1,13.3-9.6,18.7c-7.1,8.5-15.9,15.4-27.2,16.5c-8.7,0.9-16.4-3.4-23.6-8.2
		c-10.1-6.7-17.7-15.8-23.1-26.6c-2.7-5.4-2.6-11,0.6-16.4c1.1-1.9,1.6-2.3,3.4-0.8C378.4,444.4,382,446,385.8,447.2z"/>
	<path class="st1" d="M317.3,461.8c7.6,2,15.2,3.8,22.3,7.7c5,2.8,9.4,6.3,8.8,12.1c-0.6,6.4-5.1,11-11.3,13.3
		c-2.2,0.8-4.7,0.9-7.1,1.3C313.8,491.4,309.3,474.9,317.3,461.8z"/>
	<path class="st1" d="M559.6,380.9c-1.9,1.1-1.1,3-0.9,4.3c2.4,11.8-0.2,23.2-3.4,34.3c-3.4,11.8-10.4,21.3-22.4,26.8
		c5.7,2.3,15-3.6,19.2-10.3c3.3,5.5,5.9,19.2,5.4,28.7c-0.6,3-1.1,6-1.8,9c-2,9.2-7.2,13.2-16.6,12.8c-19.5-0.9-30.7-10.1-35.6-29.2
		c-2.5-9.6-3.2-19.5-3.9-29.4c-0.6-7.6-1.3-15.1-0.1-22.8c0.6-3.7,1.6-7.2,2.4-10.9c2.6-7.5,7.5-13.6,12.5-19.5
		c15.9-18.5,31.9-36.8,44.9-57.7c8.5-13.6,13.2-28.6,17-44c2.6-10.6,4-21.4,7.5-31.8c1.4-4.2,3.4-7.5,7.8-8
		c5.3-0.6,10.4,1.1,13.7,5.3c7.7,9.7,8.6,20.8,7.3,32.9c-1.6,14.4-5.1,28.4-8.5,42.4c-0.1,0.5-0.4,0.9-0.7,1.3
		c-4.6,9.8-8.9,19.7-14.9,28.8c-8,12.2-16.3,24.1-26.2,34.9C561.6,379.9,560.8,380.7,559.6,380.9z"/>
	<path class="st2" d="M501.8,394.4c0.4,4.2-0.7,8.3-1,12.5c-1.5,18.7,0.8,37,5.3,55c3.2,12.8,14.4,21.4,27.4,22.5
		c1.6,0.1,3.1,0.7,4.7,0.9c9.3,1,15.7-4.4,17.4-14.6c0.3-2.1,0.8-4.1,1.9-5.9c0.5,5.5-1.1,10.8-2.5,16
		c-3.4,12.2-19.2,14.7-28.1,12.9c-18.1-3.6-33.3-21.8-32.6-41.5c0.3-7.9-1.7-15.8-1-23.7C494.2,416.7,496.1,405,501.8,394.4z"/>
	<path class="st1" d="M576.2,447.4c5.9-2.1,12-3.9,16.7-8.5c1.6-1.5,3.8-2.1,5.1,0.5c6.4,11.7,6.2,26.7-4.9,35.7
		c-0.3,0.3-0.9,0.3-1.4,0.5c-4.1,2.9-8.9,3.8-13.8,4.1c-6.2,0.3-11.6-3.8-11.7-9.9C566.2,461,568.1,452.8,576.2,447.4z"/>
	<path class="st1" d="M580.1,378.9c5.7-9.7,12.4-18.8,17-29.2c2.2-4.9,4.5-9.8,6.9-15c5.9,8.2,5.1,16.9,3,25.5
		c-3,12.3-10,22.4-17.5,32.3c-4.5,5.9-9.3,11.4-15.2,15.8c-4.5-0.5-4.4-3.7-3.6-6.7C572.8,393.6,575.4,385.8,580.1,378.9z"/>
	<path class="st1" d="M575.2,415c10.2-6,16.8-15.7,24.7-24.8c4.2,11.8,3.3,22.5-3.2,32.7c-4.3,5.9-9,11.1-16.5,13
		c-1.3,0.3-2.5,0.7-3.8,0.8c-3.9,0.3-7.8,0-10.1-3.5c-2.4-3.6-0.5-7.3,1.5-10.5C569.6,419.6,572.1,417,575.2,415z"/>
	<path class="st2" d="M559.6,380.9c10.5-12.6,20.9-25.3,29.2-39.5c4.2-7.1,7.8-14.4,11.7-21.7c0.8-1.5,1.2-3.4,2.9-4.3
		c-6.2,17.9-12.5,35.8-22.8,52c-4.5,7-9.9,13.3-14.6,20.2c-1.5,2.2-3.1,3-4.2-0.3C561,385.1,560.3,383,559.6,380.9z"/>
	<path class="st2" d="M575.2,415c-2.5,4.4-7.1,7.5-8.4,12.8c-0.9,3.6-0.2,5.8,3.7,7c7.3,2.1,13.2-0.8,18.7-5c2.7-2,5-4.6,7.5-6.9
		c-3.7,9-10.7,14.6-19.3,18.3c-3.9,1.7-8.2,2.6-12.4,3.8c-2.7,0.8-4.6,0.2-4.5-3.1c0.1-1.9-1.1-3.3-1.8-4.9c-3.5-9-0.5-15.6,8.8-19
		C570.2,417.1,572.7,416,575.2,415z"/>
	<path class="st2" d="M576.2,447.4c-4.4,5.3-7.5,11-8.7,17.9c-1.4,8.4,4.7,14.7,13.1,12.9c3.7-0.8,7.5-1.7,11.2-2.6
		c-7,6.6-15,9-24.4,6.4c-6.3-1.7-6-1.6-5.1-8.2c0.8-6,2.2-11.9,0.4-18.1c-1-3.3-0.8-6.9,4.7-6.5C570.3,449.2,573.3,448,576.2,447.4z
		"/>
	<path class="st2" d="M580.1,378.9c-2.4,7.8-6.1,15.1-8.2,23.1c-0.8,3.2-0.1,4.9,2.5,6.4c-3.4,2.7-6.9,5.5-11.9,6.7
		c2-5.5,2.2-10.7,2-15.9c-0.2-3.9,3.7-5,5.4-7.6C572.9,387,576,382.6,580.1,378.9z"/>
</g>
</svg>
