<?xml version="1.0" encoding="utf-8"?>
<!-- Generator: Adobe Illustrator 23.0.1, SVG Export Plug-In . SVG Version: 6.00 Build 0)  -->
<svg version="1.1" id="Layer_4" xmlns="http://www.w3.org/2000/svg" xmlns:xlink="http://www.w3.org/1999/xlink" x="0px" y="0px"
	 viewBox="0 0 1000 1000" style="enable-background:new 0 0 1000 1000;" xml:space="preserve">
<style type="text/css">
	.st0{fill:#FE0000;}
	.st1{fill:#7F0000;}
	.st2{fill:#800000;}
	.st3{fill:#90AFC3;}
	.st4{fill:none;}
	.st5{fill:#596E76;}
	.st6{fill:#B6FDF9;}
	.st7{fill:#FEFEFE;}
	.st8{fill:#2B5260;}
	.st9{fill:#0BFE0A;}
	.st10{fill:#262718;}
	.st11{fill:#625048;}
	.st12{fill:#162C34;}
	.st13{fill:#5F6F4C;}
	.st14{fill:#BDAE6D;}
	.st15{fill:#B9AA6C;}
	.st16{fill:#CAB79A;}
	.st17{fill:#7F7F7F;}
	.st18{fill:#FD0000;}
	.st19{fill:#BDAE6E;}
	.st20{fill:#030000;}
	.st21{fill:#808080;}
</style>
<g>
	<path d="M827.3,546.1c-3.6-18.6-12.2-33.1-31.2-39.8c1.7-1,3.1-1.4,4.8-1.5c10.4-0.7,21.6-8.7,24.1-18.1
		c4.2-16.3,6.2-32.9,2.3-49.6c-3.6-15.5-12.3-26.8-27.1-33c-9.3-3.9-19.3-5.1-29.2-5.5c-11.7-0.6-23.5,1.1-35.2,1.7
		c-11.6,0.6-23.1,1.4-34.7,1.9c-14.4,0.6-28.7,2.3-43,3.9c-12.9,1.5-25.5,4.7-38.4,6.4c-2.5,0.3-4.5,0.4-6.2-0.8
		c-13.2-9.7-28-11.3-43.8-9.5c-14.2,1.6-26.1,7.7-37.2,16.1c-4.6,3.5-7.6,3.8-11.5-0.5c-2.7-2.9-5.5-6-6.3-10.5c1.9,0,3.5,0.1,5.1,0
		c7.6-0.5,14.5-2.6,19.2-9.2c7.4-10.5,17.5-15.2,30.3-14.3c3,0.2,6,0.4,9.1-0.5c10.8-3.4,11.7-13.5,15.4-21.7
		c-2.9-1.6-5.8-0.3-8.7-0.1c0,0-0.1,0-0.1,0c-0.2,0.1-0.4,0.1-0.6,0.2c-0.3,0.1-0.5,0.3-0.7,0.4c0,0,0,0.1-0.1,0.2
		c0,0.1-0.1,0.2-0.1,0.3c-3.6,7.3-9.2,11.5-17.6,11.2c-6.2-0.2-12.3,0.9-18.1,3c-2.7,1-3.4,0-3.8-2.5c-0.5-2.5-0.3-5.5-2.6-7.3
		c0,0-0.1,0-0.1-0.1c0,0-0.1,0-0.1-0.1c-0.1-0.1-0.2-0.1-0.2-0.2h0c-0.1-0.1-0.1-0.1-0.2-0.2c-1.8-0.7-3.7-0.8-5.4,0.3
		c-0.1,0.2-0.2,0.3-0.3,0.5c0,0,0,0.1-0.1,0.1v0c-1,2.2-0.1,4.4,0.4,6.5c0.1,0.3,0.2,0.7,0.2,1c0,0,0,0,0,0
		c1.2,14.2-10.6,26.4-21.2,21.9c0.3-1.3,1.5-1.6,2.4-2.2c4.3-3,8.4-6.1,11.8-10.1c2.8-3.3,4.9-6.9,2.5-11.4c0,0,0-0.1-0.1-0.1
		c-0.1-0.1-0.1-0.2-0.2-0.3c-0.8-1.3-1.5-2.7-2.4-3.8v0c-0.2-0.2-0.3-0.4-0.5-0.6c-0.2-0.2-0.4-0.4-0.6-0.6c-0.3-0.2-0.6-0.3-1-0.4
		c-0.2,0-0.3-0.1-0.5-0.1c-0.1,0-0.2,0-0.3,0c-1.8-0.1-3.3,0.2-4.4,1.8c0,0.1,0,0.2-0.1,0.3c0,0.1,0,0.1,0,0.2
		c-0.1,0.7,0,1.3,0.3,1.9c2.3,7.3,1.6,9-4.8,13.1c-3.6,2.3-7.5,4-11.1,6.1c-6.4,3.9-7.6,9.2-3.8,15.6c1.2,2,3.1,3.6,3.4,6.5
		c-3.5,0.2-6.7,0.7-9.7,1.6c-0.1,0-0.1,0-0.2,0c-0.1,0-0.2,0.1-0.3,0.1c-1.8,0.6-3.5,1.3-5.2,2c-1.4,0.6-2.7,0.4-3.3-1
		c-3.7-8.2-9.5-15.6-10.5-24.9c0-0.1,0-0.1,0-0.2c0-0.1,0-0.2,0-0.4c-0.1-3.3,1.5-5.7,4.2-7.6c4.1-3,8.2-5.7,12.7-8.2
		c1-0.5,3.2-1,2.3-2.7c0,0,0-0.1,0-0.1c-0.1-0.3-0.4-0.5-0.7-0.8c-5.6-0.2-11,0.7-16.5,1.3c-0.7,0.1-1.4,0.1-2.1,0.2
		c-0.2,0-0.4,0-0.6,0c-1,0.2-2,0.7-2.8,1.4c-0.3,0.3-0.6,0.5-0.9,0.8c-0.2,0.2-0.5,0.5-0.7,0.7c0.7-0.2,1.4-0.4,2-0.6
		c-1.9,3-5,4.8-7,7.9c-3.6,5.7-0.8,11,0.7,16.3c2.4,8.5,7.1,16,11.1,23.9c0.9,1.8,1.1,3.1-0.6,4.9c-10.2,10.5-25.2,10.6-36.2,0.4
		c-6-5.6-11.9-11.4-17.9-17c-5.7-5.4-13-7.1-20.5-7.1c-3.7,0-4.5-2.1-4.6-4.4c-0.1-3,2.6-1.4,4-1.5c11.5-0.9,18-3.2,22.2-19.5
		c0.1,0.1,0.2,0.2,0.3,0.3c0-0.1-0.1-0.2-0.2-0.3c-0.1-0.1-0.2-0.2-0.3-0.3c-0.1-0.1-0.2-0.1-0.3-0.2c-0.1,0-0.2-0.1-0.3-0.1
		c-3.2,0.3-6.5-0.3-9.7,0.8c0,0-0.1,0-0.2,0c0,0-0.1,0.1-0.1,0.1c-0.4,0.2-0.7,0.5-0.9,0.9c0,0,0,0,0,0.1c-0.1,0.2-0.2,0.3-0.3,0.5
		c-4.9,8.1-10.5,8-15.5-0.2c-0.5-0.8-1-1.7-1.3-2.6c-3.4-9.4-3.4-18.7,1.2-27.7c0.2-0.2,0.3-0.5,0.5-0.7v0c0.4-0.5,0.8-1,1.2-1.4
		c4.6-4.9,9-4,13.4,2.6c0.3,0.5,0.7,1.1,1.1,1.5c0,0.1,0.1,0.1,0.2,0.2c0.4,0.4,0.8,0.7,1.3,0.9c3.4,0.2,7.2,2,9.8-2
		c-0.2-0.9-0.1-1.9-0.5-2.8c-4-9.4-11.3-14.6-21.4-15.6c-9.8-1-22.8,1.6-27.5,12.6c-0.3,0.7-0.9,1.8-1.2,1.8
		c-5.3-0.4-10.8,3.4-16-1.3c-3.6-3.2-8-5.6-13.1-4.1c-16.3,4.6-26.6,17.4-26.7,34.8c0,5.9,1.8,11.8,4.4,17.3
		c0.2,0.3,2.9,2.6-0.3,3.4c-10,2.4-15.1,9.9-19.1,18.3c-8.1,17-9,35.5-10.3,53.7c-0.8,9.9,0.7,19.9,1.8,29.8
		c1.5,14,3.9,27.8,7.9,41.4c5.5,18.5,11.4,36.8,19.6,54.3c12.7,26.8,29.4,50.3,55.1,66.3c8.2,5.1,15.6,5.3,23.5-2
		c7.1-6.5,8.2-15.2,9.5-24.9c2.2,5.5,3.7,10.4,6,15c7.3,14.5,15,28.7,25.3,41.4c7.8,9.5,16.2,18.3,26,25.4c16.4,12,34.2,13.7,52.6,5
		c5.8-2.7,10.8-7,16.1-10.7c14.2-10,25.3-22.9,35.3-36.8c7.2-10,13.7-20.4,16.7-32.5c0.9-3.6,1.8-6.6,5.1-8.9
		c8.4-5.9,14.7-13.3,16.4-24c0.6-4.2,7-10.1,9.5-9.6c10.2,1.7,20.5,2.5,30.7,4c14.7,2.1,29.2,5.3,43.9,7.6c13.9,2.2,28,3.6,41.9,6
		c14.1,2.5,28.3,2.7,42.5,3.7c8.2,0.6,16.5,0.7,24.6-0.9c8.9-1.8,16.6-5.4,21.2-14.1c4.7-8.9,5.7-18.7,6.6-28.3
		C830.9,565.7,829.2,555.9,827.3,546.1z M493.3,591.3c-1.9,0.3-1.5-1.4-1.8-1.9c-1.1-1.9-4.1-3.7-2.2-6.3c3.4-4.7,2.9-8.9,0.5-13.9
		c-1.8-3.7-1.2-8.5,2.4-10.8c3.5-2.3,7.8-0.2,10.9,2.1c3.9,2.8,4.9,7.5,5.7,11.1C508.6,580.6,500.6,590.1,493.3,591.3z M457.9,637.3
		c-4.7-9.6-9.5-19-12.7-29.3c-0.5-1.7-1.6-3.2,0.2-4.5c2.2-1.5,4.7-2.9,7.3-0.8c3.7,3,7.4,6,11.1,9c6.8,5.4,14.5,9.1,23,10.1
		c6,0.7,12.2-1.6,17.8-4c9.5-4,18.8-8.7,28.6-13.3c-0.2,7.9,1.5,14.6,6.3,20.4c3.1,3.7,1.5,8,0.5,11.9c-2.6,9.2-7.8,17-13.9,24.4
		c-4.6,5.4-9.7,9.9-15.3,14.3c-10.7,8.5-19.2,5.6-27.9-2.1C471.8,663.5,464.4,650.6,457.9,637.3z"/>
	<path class="st0" d="M596.8,345.6c19,0.7,37.9-0.9,56.8-1.2c10.3-0.2,20.7,0.3,31-0.8c11.8-1.2,23.7,0.1,35.4-1.1
		c10.5-1,21.1,0.2,31.5-0.9c11.7-1.2,23.3,0,34.9-1c6.6-0.6,13.2-0.5,19.8,0c-6.2,0.7-12.4,1.5-18.7,2.2
		c-12.5,1.3-25.1,2.9-37.6,3.8c-7.3,0.5-14.7,1.3-22,2.1c-12.5,1.3-25.1,2.3-37.7,3.7c-7.3,0.8-14.6,1.4-22,2.1
		c-12.6,1.2-25.1,2.3-37.6,3.7c-7.1,0.8-14.3,1.7-21.5,2c-4.8,0.2-9.5,1.9-14.4,1c-2-5.2,0.7-10,1.4-15
		C596.3,346,596.6,345.8,596.8,345.6z"/>
	<path class="st0" d="M498,348.8c-4.4-0.8-8.6,0.7-12.9,0.8c-19.8,0.4-39.5,0.7-59.3,1c-0.3,0-0.7,0.1-1,0.1c-0.8,1-0.7,2,0,2.8
		c0,0,0,0,0,0c0.1,0.1,0.2,0.3,0.4,0.4c1.5,0.9,3.1,0.9,4.7,1c14.4,0.3,28.8-1.2,43.3-1.3c0.4,0,0.8,0,1.1,0
		c-14.7,0.9-29.3,2.1-44,3.3c-1.8,0.1-3.4,0.4-4.6,1.9c0,0-0.1,0.1-0.1,0.1c0,0,0,0,0,0c0,0,0,0,0,0c0,0.1,0,0.1-0.1,0.2
		c-1.8,4.4-1.3,9.1-2.3,13.6c-0.4,1.6-0.7,3.3,0.3,4.7c0.1,0.1,0.2,0.3,0.3,0.4l0.2,0.1c0.1,0.1,0.2,0.2,0.3,0.3
		c0-0.1-0.1-0.2-0.2-0.3c13.5-0.9,26.9-2.3,40.3-3.9c2.3-0.3,4.6,0,6.9,0c-0.2,0.2-0.5,0.5-0.7,0.7c0.7-0.2,1.4-0.4,2-0.6h0
		c0.6-0.4,1.2-0.9,1.9-1.3c1.1-0.4,2.1-0.8,3.2-1.2C488,367.5,495.6,360.7,498,348.8L498,348.8z"/>
	<path d="M499,348.5c5.1-4.7,11.6-7.1,17.8-5.4c7.5,2,11.1-2.7,15.8-6.1c8.1-6,15.7-12.4,25.5-15.9c14-5,27.1,3.3,33.4,13.1
		c2.3,3.6,3.9,7.4,5.2,11.4c0,0-0.3,0.1-0.3,0.1c-3,1.8-6.4,1.4-9.6,1.7c-0.5-0.1-0.9-0.4-1.3-0.7c-1.4-2.2-2.2-4.7-3.4-7
		c-5.4-10.2-15.6-13.1-25.6-7.2c-5.9,3.5-11.1,7.9-16.4,12.2c-1.8,1.4-3.5,2.9-5.7,3.8c-0.5,0.2-1.1,0.3-1.6,0.3
		c-9.2,0.5-18.3,1.7-27.5,1.2C503.1,350,500.8,350.4,499,348.5z"/>
	<path class="st1" d="M499,348.5c11.8,1,23.5-1,35.3-0.7c-1.5,2.9-0.8,5.1,1.5,7.5c2.9,3.2,5.4,6.9,5.6,11.6
		c-0.1,0.2-0.2,0.4-0.3,0.6c-2-0.1-3.9-0.1-5.9-0.2c-0.4,0.2-0.9,0.2-1.3-0.1c-2.1-2.5-3.3-5.5-5.5-8c-7-7.9-19.2-7.1-25.4,2.8
		c7-4.1,13.1-3.4,18.9,0.2c2.1,1.3,4.5,2.6,4.5,5.7c-1.7,0.1-3.5,0-5,1.2c-0.2,0.1-0.4,0.2-0.7,0.3c-0.2,0-0.5-0.1-0.7-0.1
		c-3.8-3.5-8.1-2.7-12.6-1.4c-3.6,1-6.9,2.3-10.3,3.7c-0.7,0.1-1.5,0.1-2.1-0.5c-6.9,0.5-13.7,2.1-20.6,1.7c3.9-3.7,9-5.5,13.4-8.4
		c2.4-1.5,3.7-3.1,4.6-5.7c1.3-3.6,2.9-7.1,5.5-10.1C498.4,348.7,498.7,348.6,499,348.5z"/>
	<path class="st1" d="M586,346.7c3.5-0.8,7-1.4,10.5-1c1,5.3-1.7,10.2-1.8,15.4c-0.3,0.1-0.6,0.2-0.9,0.3c-2.9,0.9-5.9,1.1-8.9,0.7
		c-1-1.1-1.1-2.4-0.7-3.6C585.4,354.7,585.2,350.7,586,346.7z"/>
	<path class="st2" d="M424.8,350.7c0,0.9,0.1,1.8,0.1,2.7c-0.2,0.2-0.3,0.4-0.5,0.6c-3,1.3-6.1,0.7-9.2,0.7c-0.5,0-1-0.2-1.5-0.4
		c-0.7-0.3-1.2-0.9-1.3-1.7c0-0.5,0.1-1,0.4-1.4c3.7,0.2,7.5,1.1,11-0.8C424.2,350.6,424.5,350.7,424.8,350.7z"/>
	<path class="st3" d="M380.9,547.9c-6.6-14.1-10.3-29-13.7-44c-4.7-20.9-5-42.1-4.8-63.3c0-3.3,0.9-6.7,0.9-10
		c0-4.7-2.7-7.1-7.4-6.7c-10.4,0.8-18.8,10.1-20,19.4c-1,8.1-2.4,16.2-1.9,24.4c1.4,20.8,4.1,41.4,10,61.6
		c3.5,11.8,7.1,23.6,11,35.3c0.3,0.9,0.3,1.9,0.5,2.8c-4.3,1.5-7-1.5-9.7-3.8c-3-2.6-4.7-6.1-5.9-9.8c-4.6-11.8-7.1-24.2-9.7-36.5
		c-2.5-12.1-5.1-24.2-6.6-36.4c-2-15.7-2.2-31.4,4.6-46.3c1.8,1.9,0.8,4,0.4,6c-1.3,7.3-2.9,14.6-3.3,22.1c3.9-6,6.5-12.4,7.6-19.5
		c1.7-11.2,8.1-18.5,19.2-21.6c8.9-2.5,13.6,1,13.6,10.2c0,2-0.3,3.9-0.6,5.8c-0.3,2.3-0.7,4.9,2.5,5.3c3,0.4,6,0.3,7-3.5
		c0.6-2.4,0.9-4.8,1.1-7.2c0.7-7.1,3.1-9.7,10.1-11c11.9-2.3,20,3.2,21.9,14.8c0.9,5.5,1.8,6.5,7.5,7.1c9.7,1.1,19.3,2.6,29.1,3.2
		c1,0.1,1.9,0.2,2.9,0.5c-10.1-3.2-18.1-9.4-25.6-16.6c-6.5-6.2-14.4-9.7-23.4-11.2c-9.8-1.7-19.7-2.5-29.5-3.3
		c-7.7-0.7-15.2,0.8-22.8,2.3c-3.1,0.6-5.6,2.5-8,4.5c-1.4,1.2-2.6,3.1-4.9,2.5c2.4-5.2,6.4-9.3,11.8-10.5
		c11.3-2.7,22.8-3.8,34.7-2.4c7.9,0.9,15.9,1.2,23.9,2.1c6.6,0.7,12.3,3,16.9,7.8c5.2,5.3,10.5,10.4,16.6,14.6
		c11.9,8.4,24.6,10.6,38.7,6.7c13.9-3.9,27.8-8.2,42.6-7.5c1,0.1,1.9,0.1,3,0.1c-2.7,10.6-3.9,21.4-5.5,32.1c-1.1,2.4-0.2,5-0.5,7.4
		c-0.2,1.3,0.8,3-1.3,3.6c-8.7-8.5-19.6-5.4-29.8-5.2c-2.9,0.1-5.7,0.9-8.6-0.1c-2.1-1.4-0.5-2.5,0.4-3.4c1.6-1.7,2.5-3.6,2.4-6
		c0-1.1,0.1-2.2-0.2-3.3c-0.7-2.9-2.4-5-5.5-5.1c-3.3-0.1-5.3,1.8-6.2,4.9c-0.3,1.1-0.2,2.2-0.2,3.3c-0.1,2.6,0.7,4.7,2.9,6.3
		c0.9,0.7,2.5,1.2,1.6,3c-8.9,2.3-10.3,8.8-9.3,16.6c0.1,0.9,0,1.9,0,2.9c-1.1,5.1,2.4,7.5,5.7,10.1c0.3,1.1-0.3,1.8-1,2.4
		c-2.9,2.5-3.1,5.6-1.9,9c0.9,3.2,3,5.2,6.3,4.7c3.5-0.5,4.9-3.2,4.9-6.7c0.9-3.1-3.1-5.7-1.1-9c3.4-1.1,6.9-1,10.4-0.1
		c2.8,2.8-1.4,4.8-0.8,7.4c-0.2,1.7,0.3,3.2,1.4,4.5c1.5,1.7,3.4,2.7,5.6,2c3-1,3.4-3.5,3.1-6.3c0.5-2.6-3.2-4.6-1.1-7.4
		c3.6-1.3,7.4-0.5,11.1-0.7c2.3-0.1,4.6-0.3,5.8-2.7c1.1-4.6,1.5-9.2,1.8-13.9c0.1-1.7-0.6-4.4,2.7-4.2c0.7,7.9,1.7,15.8,0.6,23.8
		c-0.5,1.5-1.7,1.7-3,1.8c-6.2,0.5-7.3,1.7-7.3,8.1c0.6,3.7,2.7,5.9,6.4,6.2c2.6,0.2,4.4,1.2,4.7,3.9c0.3,2.7-1,4.3-3.6,4.9
		c-11.5-0.7-22.9-2.2-34.3-3.1c-2.9-0.2-5.8-0.4-8.7-0.9c-3.4-0.6-5.3,0.6-5.8,4.1c-2,13.2-0.8,12.6,10.5,11.6
		c2.7-0.2,5.5-0.7,8.2-0.5c11.2,0.6,22.3-1.4,33.5-0.9c2.7,5.1,0.8,11.2-4.7,14.6c-4.2-0.6-7.5-3.7-11.7-4.3
		c-10.6-1.5-21.2-2.5-31.8-1.2c-2.9,0.3-5.8,0.8-8.7,0.5c-2.2-1.4-2.4-3.7-2.6-5.9c-0.8-6.3-2.8-12.2-5.6-17.9
		c-4.2-11-10.5-20.2-21.5-25.4c-9.6-4.5-19.3-6-29.1-0.1c-0.9,0.6-2.1,0.7-3.1,1.1c0.6-4,4.4-5.1,6.8-7.5c1.5-1.5,3.5-2.4,3.5-4.9
		c-1.3-17.3-1.7-34.6-3.1-51.8c-0.7-8.6-7.8-13.7-16.4-12.3c-4.8,0.8-6.3,2.4-6.8,7.3c-0.2,1.9-0.1,3.9-0.5,5.8
		c-1.2,7.1-0.8,14.3-0.4,21.3c0.8,12.7,1.5,25.5,4.3,38.1c0.8,3.6,1.4,7.3,3,10.7c-6.1,7-8.8,15-7.7,24.3c0.3,3.5,1.2,6.9,2.1,10.3
		C381.6,545,382.3,546.5,380.9,547.9z"/>
	<path class="st4" d="M539.9,636.8c-2.6,9.2-7.8,17-13.9,24.4c-4.6,5.4-9.7,9.9-15.3,14.3c-10.7,8.5-19.2,5.6-27.9-2.1
		c-11-9.9-18.4-22.7-24.9-36.1c-4.7-9.6-9.5-19-12.7-29.3c-0.5-1.7-1.6-3.2,0.2-4.5c2.2-1.5,4.7-2.9,7.3-0.8c3.7,3,7.4,6,11.1,9
		c6.8,5.4,14.5,9.1,23,10.1c6,0.7,12.2-1.6,17.8-4c9.5-4,18.8-8.7,28.6-13.3c-0.2,7.9,1.5,14.6,6.3,20.4
		C542.5,628.7,541,633,539.9,636.8z"/>
	<path class="st5" d="M789.1,496.9c-36.4,1.7-72.8,1.4-109.1,0.9c-10.3-0.2-20.7-0.2-31.1-0.7c-15.1-0.8-30.3-1.6-45.4-3
		c-5.8-0.5-11.1-3.4-14.2-8.8c-2.2-3.9-4-8-4.3-12.6c2.4-1.6,4.7-0.2,7,0.3c5.2,4.8,11.3,5.7,18.1,4.7c4.8-0.7,9.7-0.8,14.5-1.3
		c5.4-0.5,10.6-1.4,15.2-4.5c3.7-0.8,7.5-1,11.2,0.1c3.3,3.6,7.4,4.8,12.2,4.2c8.2-1.1,16.4-1.1,24.6-2c6.3-0.7,12.4-2.3,18.3-4.5
		c3.5-0.3,7-0.8,10.5,0.5c2.6,2.5,5.8,3.1,9.3,3.2c10.7,0.3,21.3-1.5,31.9-1.2c2.9,0.1,5.7-1,8.4-2.1c3.3-0.9,6.5-0.4,8.4,2.2
		C780.5,479.9,784.5,488.6,789.1,496.9z"/>
	<path class="st6" d="M587.8,442.4c3.1-11.9,13-14.8,23-17.6c15.1-4.2,30.6-6.3,46-8.7c10.1-1.6,20.3-2,30.5-3.1
		c12.3-1.4,24.7-1.5,37.1-2.1c13.8-0.6,27.7-2.4,41.5-1.6c10.8,0.7,21.9,0.1,32.1,5.6c10.2,5.4,17.1,12.7,20,24.3
		c3.3,13.1,2.8,26.1-0.1,38.8c-2.1,9.3-8,16.4-18.8,17.1c-1.1,0.1-1.8,1.5-3.1,0.8c-2.9-1-4.3-3.3-5.1-6c-3.1-11.8-6-23.5-6.1-35.9
		c0-10.2,3.1-19,9.9-26.2c-4.4,1-5.9,7-11.4,7c-13.1-6.2-27.2-6-41.1-6.5c-20.9-0.8-41.9-0.4-62.8,0.9c-29.3,1.7-58.4,5.3-86.9,12.7
		C591,442.4,589.5,443.1,587.8,442.4z"/>
	<path class="st6" d="M587.8,534.2c4.6-9.5,12.8-13.6,22.7-15.7c5.2-1.1,10.5-0.8,15.7-1.6c5.5-0.8,11-0.7,16.4,2.9
		c7.3,4.8,16,4.2,24.6,3.3c6.1-0.7,12.2-1.4,18.1-3.4c1.3-0.5,3.2-0.4,4-1.3c6.3-7.6,14.8-5.2,22.8-5.5c4.1-0.2,7.6-0.1,10.7,4.1
		c3.4,4.5,9.5,5.6,14.8,6.5c10.1,1.8,20.3,1.5,30.4-0.7c4.3-0.9,6.9-3.5,9-6.5c1.4-1.9,2.5-2.5,4.6-2.4c12.3,0.1,21.7,5.6,29,15.3
		c6.8,9.1,8.1,19.8,9.9,30.6c2,11.5,0.2,22.5-3.1,33.3c-2,6.5-4.6,12.9-12.5,14.6c-4.8,0.2-7.4-3.1-10-6.4c-1.6-2.4-3.9-4.3-5.8-6.5
		c-11.6-13.3-11.9-28.4-6.8-44.3c1.7-5.4,4.5-10.3,7.1-15.1c-2.1,1.9-3.8,4.6-7.3,4.8c-11.5-1-22.9-2.8-34.4-3.9
		c-7.1-0.7-14.3-1-21.4-1.3c-22.2-0.9-44.5-2.2-66.7-3.4c-22.1-1.3-43.8,0.2-65.6,3.4C591.8,535.2,589.7,535.9,587.8,534.2z"/>
	<path class="st5" d="M796,609.2c-7.5,2.4-15.1,1.1-22.6,0.9c-7.8-0.3-15.6-1.6-23.4-2.7c-12.6-1.7-25.1-3.4-37.6-5.2
		c-10.3-1.5-20.6-3-30.9-4.6c-13.3-2.1-26.6-4.3-39.9-6.4c-9.7-1.5-19.3-2.8-29-4.4c-9.6-1.6-18.6-4.2-22.5-14.7
		c1.8-1.6,3.8-1.2,5.8-0.7c8,4.6,17.1,3,25.7,4.2c3.3,0.5,6.8-0.1,10.2,0.7c3.7,0.8,7.1,0.2,9.8-2.7c3.7-1.6,7.3,0,10.9,0.5
		c7.8,5.2,16.9,3.2,25.4,4.4c4.9,0.6,10-0.1,15,0.9c4,0.8,7.2-1,10.4-3.1c3.1-0.9,6.3-0.9,9.4-0.1c4.8,4.3,10.7,4.9,16.8,5.5
		c9.2,0.9,18.3,2.6,27.7,1c3-0.5,5.7-1.2,7.8-3.5c3.8-1.9,5.3,1.2,6.8,3.5c2.2,3.4,3.6,7.2,6.2,10.4c4.6,5.8,9.8,10.7,16.5,14
		C795.1,607.6,796,608,796,609.2z"/>
	<path class="st3" d="M712.7,577.1c-3.2,0-6.3,0-9.5,0c-2.8-9.2-5.1-18.4-1.7-28c2.4-6.8,1.3-8.4-5.8-9.9c-11.9-2.5-23.6-1-35.3,0.9
		c-5,0.8-7.4,3.7-8.5,8.7c-1.4,7-1.3,13.9,0.3,20.8c0.4,1.8,1.3,3.7,0,5.6c-3.5-0.4-7.1-0.7-10.6-1.1c-2.1-1.9-1.5-4.5-1.8-6.8
		c-1-7.7-2.1-15.3-0.9-23.2c1.2-7.8-1.5-10-9.3-8.9c-9.6,1.3-19.4,1.9-28.7,5c-6.8,2.2-9.2,5.4-8.7,12.6c0.3,4.7,0.9,9.4,2.5,13.9
		c0.6,1.8,1.7,3.6,0.8,5.6c-1.9,0-3.7,0-5.6,0c-5.9-12.1-9.8-24.4-2.9-37.5c0.1-0.2,0.5-0.4,0.7-0.5c8.9-1.2,17.8-2.8,26.8-3.4
		c13.9-1,27.7-2.8,41.6-0.6c1.6,0.3,3.2,0.1,4.9,0.2c16.5,0.7,33,1,49.5,2.1c10.8,0.7,21.6,1.3,32.4,2c9.9,0.6,19.8,2.2,29.7,3.4
		c3.5,0.4,7,0.9,10.5,1.4c0.4,1.4-0.4,2.5-1.1,3.6c-7.1,10.9-7.6,22.8-5.2,35.1c0.9,5,3.9,8.9,7.1,12.5c3.5,3.8,7.4,7.3,11.7,10.2
		c2,3.6,5.4,5.4,9,7c-2.8,1.3-5.7,2.2-8.8,1.7c-10.7-4.7-18.5-12.5-23.8-22.9c-1.5-3-2.5-6.4-6.4-7.3c-2.7-6.3-2.7-12.9-2.2-19.5
		c0.3-3.7,0.9-7.4,1.8-11.1c0.8-3.5-0.9-5.4-4.2-5.8c-13.1-1.6-26.3-1.4-39.5-1c-3.8,0.1-5.8,2.7-6.7,6.1
		c-2.3,7.9-3.4,15.9-2.2,24.1C713.1,573.6,713.8,575.3,712.7,577.1z"/>
	<path class="st7" d="M471.3,374.1c-0.2,0.2-0.5,0.5-0.7,0.7c0.7-0.2,1.4-0.4,2-0.6h0v0C472.2,374.2,471.8,374.2,471.3,374.1z
		 M423.9,378c0.1,0.1,0.2,0.2,0.3,0.3c0-0.1-0.1-0.2-0.2-0.3C424,378,424,378,423.9,378z"/>
	<path class="st4" d="M476.8,427.2c-10.2,10.5-25.2,10.6-36.2,0.4c-6-5.6-11.9-11.4-17.9-17c-5.7-5.4-13-7.1-20.5-7.1
		c-3.7,0-4.5-2.1-4.6-4.4c-0.1-3,2.6-1.4,4-1.5c11.5-0.9,18-3.2,22.2-19.5c0.1,0.1,0.2,0.2,0.3,0.3c0,0,0,0,0,0
		c-1,13-9.3,19.3-19.7,20.3c-1.6,0.2-4.5-0.8-4.6,1.4c-0.1,2.6,2.9,2,4.6,2.2c9.4,0.8,17.1,4.7,23.4,11.8c4.2,4.8,9.1,8.9,14,12.9
		c6,4.9,13.2,7.1,20.8,7.3c6,0.2,9.7-4.1,13-8.4c1.4-1.8,0-3.7-0.9-5.5c-3.8-8.1-8.1-15.9-10.7-24.5c-2.5-8.1-0.9-14.3,5.2-19.8
		c0.4-0.4,0.8-0.8,1.2-1.2c0.7-0.2,1.4-0.4,2-0.6c-1.9,3-5,4.8-7,7.9c-3.6,5.7-0.8,11,0.7,16.3c2.4,8.5,7.1,16,11.1,23.9
		C478.3,424.1,478.5,425.3,476.8,427.2z"/>
	<path class="st4" d="M471.3,374.1c-0.2,0.2-0.5,0.5-0.7,0.7c-6.8,1.9-14,1.4-20.9,2.4c-6.2,0.9-12.5,1.3-18.8,2
		c-2.3,0.3-4.6,0.5-6.6-0.9c0-0.1-0.1-0.2-0.2-0.3c13.5-0.9,26.9-2.3,40.3-3.9C466.7,373.8,469,374,471.3,374.1z"/>
	<path class="st4" d="M475.7,425.8c-3.3,4.3-6.9,8.6-13,8.4c-7.6-0.3-14.8-2.4-20.8-7.3c-4.9-4-9.8-8.1-14-12.9
		c-6.2-7-14-11-23.4-11.8c-1.8-0.1-4.8,0.4-4.6-2.2c0.1-2.2,2.9-1.3,4.6-1.4c10.4-1,18.8-7.3,19.7-20.3c0,0,0,0,0,0
		c2,1.5,4.4,1.2,6.6,0.9c6.3-0.7,12.6-1.1,18.8-2c7-1,14.1-0.5,20.9-2.4c-0.4,0.4-0.8,0.8-1.2,1.2c-6.1,5.4-7.7,11.7-5.2,19.8
		c2.6,8.7,6.9,16.5,10.7,24.5C475.7,422,477.1,424,475.7,425.8z"/>
	<path class="st3" d="M791.9,490.1c0.8,2.3,2.6,4,4,5.8c-2.3,0.3-4.5,0.7-6.8,1c-6-6.1-8.8-14.1-13.1-21.2c-2-3.4-4.5-5.3-8.5-5
		c-2.7-6.6-2.7-13.6-2-20.5c0.3-3.4,0.7-6.8,1.3-10.2c0.6-3.5-0.7-5.9-4.4-6.2c-12.3-1.1-24.5-3-36.8-0.5c-3.2,0.7-5.3,2.4-5.8,5.7
		c-1.3,8.8-3.1,17.6-2,26.6c0.2,1.8,0.6,3.6-1.1,5c-3.5,0-7.1,0.1-10.6,0.1c-0.7-10.9-4-21.7-1.2-32.8c0.8-3.3-1-4.8-4-5.4
		c-3.9-0.8-7.8-0.6-11.6-0.4c-8.1,0.4-16.2,1.1-24.1,3c-12.4,2.9-16.4,8.5-15,21.4c0.4,3.9,0.7,7.7,1.6,11.6c0.3,1.5,1,3.2-0.4,4.6
		c-3.8,0-7.6,0-11.4,0c-0.7-8-2.3-16-1-24.1c1.4-9-2-12.5-11.1-11.3c-8.2,1.1-16.4,1.7-24.5,3.7c-5.5,1.4-8.9,4.3-9.3,10.2
		c-0.5,6.3-1.9,12.5-1.2,18.8c0.1,1.3,0.2,2.6-0.9,3.6c-2.4,0.5-4.4-1.1-6.7-1.1c-1.6-1.6-1.2-3.6-1.1-5.5
		c0.5-8.4,0.9-16.7,3.8-24.7c8.7-3.7,18-5.1,27.1-6.7c12-2.2,24.1-3.9,36.2-5.7c4.1-0.6,8.4-1.1,12.5-1.1c9.7-0.1,19.5-0.6,29.1-1.3
		c16.9-1.2,33.8-0.8,50.6-0.5c10.9,0.2,21.9,0.5,32.6,3.6c3,0.9,5.8,1.9,8.1,4c0.3,4.3-2.7,7.8-3,12.1c-0.2,2.6-0.4,5.1,0,7.7
		C783.1,466.8,786.5,478.8,791.9,490.1z"/>
	<path class="st5" d="M512.6,529.4c2.2-1.1,2.4-2.8,1.6-4.9c-0.8-2.2-2.3-1.1-3.8-1.3c-4.2-0.6-6.8-3.3-7.4-7.6
		c1.3-0.4,2.2,0.4,3,1.1c2.3,1.8,4.6,2.2,7,0.2c2.4-2.1,2.8-4.5,1.2-7.3c-0.5-0.8-1.1-1.6-0.7-2.7c0-8.5,0.1-17,0.1-25.4
		c-0.8-1-0.8-2,0.1-3c2.3-3.3-0.8-7.4,1.8-10.7c-0.7,12.8,0.3,25.6,1.1,38.4c1.3,21.5,3.2,43,7.9,64c1.8,8.2,5.8,15.9,12,23
		c-14.8,3.7-26.8,12.4-40.4,17.5c-9.4,3.6-17.6-0.9-25.5-5c-4.1-2.2-8-5.1-10.8-9.4c-3.3-4.8-9-5.8-15.6-2.8
		c-3.1,1.4-4.2,0.5-4.5-2.1c-0.9-8.2-1.5-16.3-2.3-24.5c-0.2-2.1,1.3-3.2,2.5-4.5c7.7-8.1,11-18,11.1-28.9c0-2.4-0.6-4.8-0.9-7.1
		c4.9,4.3,5.4,10.5,6.8,16.3c0.6,2.3,0.8,4.7,1.1,7c-0.1,0.1-0.1,0.3-0.2,0.4c-8.4,5.7-9.5,9.2-4.6,22.1
		c3.9,10.4,10.5,18.8,20.7,24.3c15.9,8.4,32.3,0.6,39.5-12.8c4.7-8.8,5.4-17.3-1.3-25.4c-0.8-1-1.7-2-1.4-3.5
		c3.6-3.8,5.4-8.3,4.9-13.6C515.3,537,514.8,533,512.6,529.4z"/>
	<path class="st8" d="M617.1,510.6c-8.9,0.9-18,1.4-25.2,7.9c-7.4,6.7-13.5,13.9-14,24.7c-0.2,4.8-0.9,9.5,0.1,14.2
		c-2.8-0.2-2.9-2.7-3.6-4.5c-1.9-4.8-2.1-10.2-4.6-14.8c-1.6-5.7-2.1-11.5-2.6-17.3c-1.7-20.1-1.9-40.2,1.3-60.3
		c2.2-13.7,6.8-26.4,14.9-37.7c3.7-5.3,8.9-7.1,15.1-6.9c2,0.2,3.6,1.3,5.5,2.5c-2.4,0.9-4.6,1.7-6.8,2.6
		c-9.7,3.6-13.4,12-16.2,20.9c-2.5,7.9-4.1,16.2-3.6,24.2c1,17.7,6,32.5,27.1,35c4.2,0.5,8.4,0.5,12.5,0.9
		C619.2,504.9,619.2,507.8,617.1,510.6z"/>
	<path class="st3" d="M598.6,416c-4.7,2-10.5,1.8-13.7,6.8c-10.1,8.3-14.3,19.9-16.9,32.1c-3.4,16.4-5,33.1-4.1,49.9
		c0.4,7.6,1.2,15.2,0.9,22.8c-0.3,6.2,0.6,12.5-0.9,18.6c-0.5,2-0.7,4.1-2.4,5.6c-2.8-0.6-2.7-3.1-3-5c-3.1-22.1-4.5-44.2-2.8-66.5
		c0.6-8.3,0.8-16.5,2.3-24.7c0.7-3.7,1.2-7.4,3-10.7c5.2-3,7.8-8,10.3-13.2c3.5-7.2,9.6-11.7,16.6-15.7c-9.2-1.8-18-0.4-26.6,2
		c-10,2.8-19.2,7.2-26.4,15c-2.7,3-4.4,6.4-5.4,10.2c-0.8,2.9-0.5,4.5,3.2,3.3c1.7-0.6,3.7-1.6,5.5,0c-0.7,5.7-3,11.4-1,17.3
		c0.1,0.8,0.1,1.6,0,2.4c-1.8,4.9-2.6,10.1-4.7,15c-2.4,5.7,0.1,12,1.7,17.9c0.3,1.6,0.3,3.2,0.3,4.8c1.9,7.1-1.4,13.9-0.9,21
		c-0.2,3.1,0.3,6.1,0.8,9.1c0.3,2.2,0.4,4.5-0.3,6.7c-0.5,1.6-1.3,3-3.3,3c-1.7-0.1-3-1-3.7-2.6c-0.3-0.9-0.1-1.9-0.6-2.8
		c-1.5-10.6-2.7-21.2-3.1-32c-0.3-8.9-1-17.7-0.9-26.6c0.2-11.8,1.1-23.6,3.8-35.2c2.3-9.8,8.2-16.5,17-21.8
		c12.3-7.4,25.3-11,39.5-10.4C588.2,412.4,593.7,413.2,598.6,416z"/>
	<path class="st5" d="M526.5,538c0.3,0.5,0.7,1.1,0.8,1.6c0.5,2.1,2.3,3.1,3.9,2.8c1.6-0.2,1.8-2.3,2-3.9c0.4-4.8-1.7-9.5-0.9-14.3
		c5,6.4,11,10.4,19.7,10c2.8-0.1,3.5,3,3.5,5.6c0,2.6-2,3.2-4,3.3c-2.6,0.2-5.1,0.8-7.6,1.7c-3.4,1.3-5.3,0-5.6-2.1
		c0.8,3,1.3,7.5,1.4,12.2c0.1,8.4,4.9,13.5,13.1,15.2c0.6,0.1,1.3,0.3,1.9,0.4c7.1,1.2,11,5.6,11.2,13c0,1.2-0.1,2.2-1.3,2.9
		c-3.6,2.2-16.9-1.1-19.2-4.8c-0.2-0.4-0.4-0.9-0.4-1c0.1,3.8,2.6,5.8,6.3,6.8c3.8,1,7.7,1.5,11.5,2.1c6.3,1,7.4-0.2,5.4-6.5
		c-2.6-8.1-4.8-16.2-6.9-24.4c-0.6-2.3-1.9-4.7,0.1-7c2.1-8.1,2.1-16.3,2.1-24.5c2.6,0.7,2,3,2.2,4.8c1.9,13.8,3.7,27.6,9,40.8
		c2.5,6.3,6.5,11.6,10.5,16.9c2,3.2,4.5,5.8,7.8,7.7c1.1,0.7,2.9,1.1,2.5,3c-17.8,4-35,2.9-50.4-7.4c-6.5-4.3-9.8-12-12.4-19.2
		C528.6,562.4,526.9,550.3,526.5,538z"/>
	<path class="st9" d="M357.4,451.6c-1,28.5,3.4,56.3,12.2,83.2c5.8,17.9,13.3,35.2,22.3,51.7c1.8,3.3,2.1,5.4-1.7,7.2
		c-2,0.9-3.6,2.6-5.5,3.9c-5.6,3.7-8.4,3-11.4-3.2c-5.5-11.6-10.5-23.6-14.4-35.8c-5.3-16.8-10.6-33.7-14.4-50.9
		c-2.4-10.9-4.4-21.9-5-33.1c-0.3-5.6-0.7-11.3-0.8-16.9c0-5.8,1.6-11.3,2.8-16.9c1.4-6.6,6.7-8.7,11.8-10.8c2.7-1.1,4.1,0.8,4,3.7
		C357.3,439.6,357.4,445.6,357.4,451.6z"/>
	<path class="st6" d="M332.9,424.8c3.2-1.7,4.8-5.2,8.3-6.6c9.2-3.6,18.8-4.8,28.5-3.9c9.8,0.8,19.5,1.7,29.2,3.4
		c9,1.6,16.9,5,23.1,11.2c7.7,7.6,16.3,13.2,26.2,17.1c1,0.4,2,1,3.2,1.7c-3.4,1.8-6.4-0.3-9.4-0.5c-9.8-0.7-19.5-2.1-29.3-3
		c-5-0.5-6.1-3.8-6.5-7.9c-1.3-12.2-15.1-18.8-25.7-12.3c-2.5,1.6-3.2,4.1-3.4,6.6c-0.2,2.7-0.6,5.4-1,8.1
		c-0.8,4.8-7.4,7.9-11.4,5.1c-2.3-1.6-1.6-4.3-1.1-6.3c0.7-2.6,0.7-5.1,0.7-7.7c0-6.1-3.9-9.1-9.8-7.8c-12,2.5-18.9,10.4-20.4,22.7
		c-0.9,7.4-4.6,13.7-7.9,20.2c-0.3,0.7-0.8,1.6-1.8,1.1c-1-0.5-1.2-1.6-1-2.5c0.8-5.1,1.6-10.2,2.4-15.2c0.8-4.6,1.6-9.2,2.4-13.8
		C328.9,430.9,330.4,427.5,332.9,424.8z"/>
	<path class="st5" d="M339.8,553.7c4.2,5.8,7.5,12.5,15.7,13.7c5,11.2,9.6,22.6,16,33.2c3.2,5.4,6.9,6.7,12.8,4
		c5.8-2.6,10.7-6.3,15.1-11.4c2.4,9.7,4.6,18.6,6.7,27.6c0.1,0.6,0.2,1.5-0.2,1.9c-4.2,4.3-7.9,9-12.9,12.4c-2,1.4-3.4-0.2-4.7-1.1
		c-10.5-7.7-18.9-17.2-26.3-27.9c-10.5-15.3-16.9-32.3-22.1-49.8C339.7,555.4,339.8,554.5,339.8,553.7z"/>
	<path class="st9" d="M408.2,545.7c-1.8,0.7-3.5,1.4-5.3,2c-0.3-7.6,3.9-14,9.4-14.6c8.5-0.9,14.9,4.2,16.5,12.6
		c1.1,5.6,0.6,11.2,1,16.9c1.1,16.7,1.7,33.7,7,49.7c4.9,14.8,11,29.2,19.2,42.6c6.4,10.4,12.4,20.9,22.6,28.2
		c11.7,8.5,23,7.7,35.1,1.9c2.8-1.4,5.3-3.5,7.9-5.3c0,0-0.1-0.1-0.1-0.1c0.9,1.3,1.9,2.7,2.8,4c-5.3,5.6-10.9,10.6-19.2,10.7
		c-0.6-1.1-1.3-2.1-1.9-3.2c-0.1-0.2-0.5-0.3-0.7-0.4c-1,1.4,1.1,2.2,0.6,3.4c-3.4,3.4-9,3.5-14.5,0.2c-0.2-0.8-0.4-1.7-0.6-2.5
		c-0.2,0.5-0.5,1-0.7,1.5c-1.2,1.1-2.4,0.4-3.6-0.1c-6.5-2.5-12.2-6.2-16.6-11.6c-0.2-0.9,1.4-1.6,0.4-2.5c-0.2-0.1-1,0.5-1.6,0.7
		c-1.1,0.3-1.9-0.3-2.5-1.1c-5.1-5.5-8.9-11.9-12.7-18.3c-0.6-1-0.9-2.1-0.5-3.3c0.6-0.8,1.2-1.7,1.9-2.5c-1.4-0.9-2.2,1.1-3.5,0.6
		c-3.9-5.3-7.8-10.6-8.1-17.6c0.3-1.4,2-0.5,2.7-1.7c-1.3-0.1-2.4-0.3-3.5-0.4c-4.2-5.7-7.3-12-7.8-19.2c1.1-0.1,2.2-0.2,4.2-0.4
		c-2.2-0.8-3.7-1.3-5.2-1.9c-3.9-7.6-6-15.5-4.9-24.1c1.1-0.1,2.2-0.2,3.8-0.4c-1.5-0.8-2.7-1.4-3.8-1.9c-1.8-5.7-3.7-11.3-1-17.3
		c0.9-0.1,1.7-0.3,2.7-0.5c-1.4-1-2.7-1.8-3.9-2.6c-1.6-4.7-3-9.4-1.8-14.5c1.3,0.9,2.7,1.9,4.8,3.4c-1.3-3.4-3.3-5.3-4.9-7.4
		c-0.3-0.7-0.9-1.3-1.2-2.1C416.8,538.5,413,539.2,408.2,545.7z"/>
	<path class="st10" d="M337.9,605.5c-4.8-6.6-7.8-14.2-10.6-21.7c-6.5-16.8-12.7-33.8-16.8-51.5c4.3-4.3,5.6-9.8,5.4-15.5
		c-0.3-8.4,1.3-16.7,1.1-25.2c0-1.6,0-3.3,1.5-4.4c0.9,5.4,2.2,10.7,2.6,16.1c1.1,13.9,5.2,27.2,8.6,40.6
		c4.7,18.3,10,36.5,19.6,53.1c0.6,1.1,0.9,2.4,1.3,3.6c-2.3,0.5-3.1-1.3-4.1-2.6c-1.8-2.2-4-3.7-6.5-4.8c-2.6-1.1-3.6-0.2-3.1,2.6
		C337.3,599,339.8,602,337.9,605.5z"/>
	<path class="st11" d="M318.5,487.2c0.4,10.7-1.5,21.2-1.2,31.9c0.1,3.4-0.7,7-2.3,10.2c-1,2-2.3,3.1-4.5,3
		c-4.3-10-5.2-20.8-6.6-31.4c-1.5-10.9-2.7-21.9-2-32.9c1-15.2,1.5-30.6,7.8-44.9c2.5-5.7,4.9-11.6,10.4-15.3c7.2-4.9,12-4.8,20,0.5
		c-6.4,3.3-10,9-13.6,14.7c-8.6,13.8-11.3,28.8-9.2,44.8C318,474.3,318.1,480.8,318.5,487.2z"/>
	<path class="st11" d="M337.9,605.5c-0.4-3.6-1.5-6.9-2.7-10.3c-0.4-1.3-0.5-2.6,0.6-3.6c1.2-1.1,2.3-0.3,3.6,0
		c5.1,1.3,7.5,5.8,11.1,9c7.1,10.4,14.5,20.6,23.8,29.1c3.2,2.9,6.7,5.5,10,8.3c5,4.2,10.1,4.7,15.8-0.9c-0.6,2.9-0.8,4.7-1.4,6.4
		c-3.7,11.8-9.4,13.6-19.6,7.4C361.2,639.9,347.8,624.2,337.9,605.5z"/>
	<path class="st3" d="M495.2,415.1c-0.2,0.2-0.4,0.7-0.6,0.7c-3-0.1-5.5,4-8,2.3c-2.1-1.4-2.9-4.8-4-7.4c-2.7-6.7-7.7-12.4-7.9-20.1
		c5.1-3.7,11-5.9,16.5-9.1c6.6-3.8,12.6-8.5,19.1-12.4c3.4-1.3,6.7-2,10.1-0.1l0.1,0.3c0.5,3.6-2.2,5.2-4.6,6.9
		c-5.5,4-11.5,7.4-16.9,11.6c-6.3,4.8-7.8,9.8-5.8,17.5C494.1,408.5,495.9,411.6,495.2,415.1z"/>
	<path class="st5" d="M495.2,415.1c-1.9-5.1-3.8-10.2-4-15.7c-0.2-7.1,4.3-11,9.5-14.5c4.7-3.1,9.2-6.4,14-9.3
		c2.6-1.6,4.5-3.6,5.8-6.3c0.3-0.1,0.6-0.1,0.9-0.1c4.6,8.7,3.8,11.4-4.9,16.5c-3.2,1.8-6.4,3.6-9.7,5.3c-6.6,3.5-8,8.7-3.9,14.8
		c1.6,2.4,3.1,4.8,5,7.7C503.5,414.1,499.4,414.6,495.2,415.1z"/>
	<path class="st5" d="M725.5,508.9c-1.7-3.1-1-5,2.7-4.9c3.4,0.1,6.7,0.7,10.1,0.9c9.6,0.7,19.1-1.2,28.6-0.9
		c2.1,0.1,5.3-1.4,6.1,1.1c1,2.9,1,6.5-1,9.4c-1.4,1.9-3.4,2.8-5.7,3.2c-11.9,2.3-23.4,0.2-34.8-2.5c-2.3-0.5-4.8-1.2-5-4.4
		c1.8-0.8,3.5,0.2,5.2,0.6c9.9,2.2,19.4,0.5,29-1.9c-8.7-0.5-17.4,0.3-26.1-1.1C731.6,507.8,728.5,508.6,725.5,508.9z"/>
	<path class="st5" d="M659.9,517.4c-4.4,0.9-8.6-0.5-13-0.9c-4.2-0.4-7.2-5.8-6.3-10.4c0.8-3.7,4.2-5.7,8.6-5.1
		c11.1,1.5,22.3,2.8,33.6,2.9c5,0,6,1.9,3.8,6.5c-2.3,5-7.2,5.4-11.4,5.9C670.2,516.9,665.1,518.5,659.9,517.4z"/>
	<path class="st10" d="M584,362.5c-4.1,10.7-5.9,11-16.7,12.3c-7.4,0.9-14.8,0.9-21.6,4.2c-1.9,1-2.7,0.3-2.7-1.7
		c0-3.4-0.8-6.7-1.9-9.9c0,0,0-0.5,0-0.5c1.3-2.2,3.3-2,5.4-1.5c1.8,1,2.5,2.4,2.1,4.5c0.3-1.8,1-3.4,2.3-4.7c3.1-2,6.4-1.6,9.7-0.9
		c1.9,2,2.4-1.5,3.9-1.1c2.9-0.4,5.7-0.4,8.6-0.7c0.5,0.1,0.9,0.2,1.3,0.5c0.5,0.8,1,1.7-0.4,3.1c1.6-1.3,1.8-2.9,3.2-3.5
		c0.4-0.2,0.9-0.4,1.3-0.5C580.4,362.2,582.3,360.9,584,362.5z"/>
	<path class="st12" d="M595.6,600.5c-3.7-3-8.9-4.5-10.6-9.6c-9.3-14.4-11.8-30.9-14.8-47.3c-0.3-1.9-0.4-3.9,1.2-5.5
		c2.5,4.8,2.4,10.3,4.6,15.2c0.6,1.5,0.7,3.2,2.1,4.2c3.4,16.6,11.6,29.4,28.7,35.7C603.2,596.8,599.8,599.3,595.6,600.5z"/>
	<path class="st11" d="M551.8,605.5c8.3,2,16.7,3.6,25.2,2.9c7.4-0.6,14.9-1.4,22.6-3.5c-1.1,8-5.2,13.6-11.1,18.1
		c-1.4,1.1-2.4,1.9-3.7-0.6c-3.4-6.8-12.9-10.5-20.9-8.8c-5.5,1.2-10.3,3.4-14.1,7.7c-3.9-3-4.5-7.1-3.7-11.5
		C546.6,606.9,548.6,605.2,551.8,605.5z"/>
	<path class="st8" d="M378.8,404.2c-9.6,0.4-19.4-0.7-28.9,1.8c-1,0.3-2.4,0.1-1.9-1.2c1.5-4.1,0.4-9.2,4.5-12.3
		c4.2-2.3,8.8-3.5,13.4-4C374.5,387.6,381.9,396.7,378.8,404.2z"/>
	<path class="st9" d="M526.2,682.6c-1.8-0.8-2.4-3.2-4.8-3c0,0,0.1,0.1,0.1,0.1c6.9-5.7,12.4-12.7,17.7-19.8
		c6.3-8.6,10.1-18.2,12.7-28.4c1.3-5.1,2.3-11,9.5-11.3c0.7,4.8-0.2,9.1-3.6,12.7c-3,2.2-3,2.2-1.1,3.1c1.5,4.5-1.4,7.4-3.9,10.4
		c-1.8,0.4-3.4,1.2-5,2.8c1.3,0.2,2.2,0.4,3.1,0.5c0.5,5.3-2.4,9-5.9,12.4c-1.2,0.5-2.3,1.1-3.5,1.6c0.5,0.2,1,0.5,1.6,0.7
		c0.2,3.3-2.4,5.2-4.1,7.4C535.5,676.2,531.1,679.7,526.2,682.6z"/>
	<path class="st7" d="M526.2,682.6c5.6-6.1,12.7-10.8,16.8-18.4c4,0.2,7.7,1.1,10.9,3.7c0,0.2,0.2,0.4,0.1,0.5
		c-5.3,9.5-11.5,18.3-21.9,23C530.1,688.5,528.2,685.5,526.2,682.6z"/>
	<path class="st5" d="M408.1,491.1c-2.9,4.7-8.2,6.7-11.6,10.9c-3.2,2.3-6.5,4.5-9.7,6.8c-2,0-2.7-1.2-3-3
		c-1.8-11.7-4.7-23.2-4.9-35.2c-0.2-9.2-1.3-18.3-0.9-27.5c0.1-1.6-0.5-3.3,0.8-4.6c2.4,3.4,2.1,7.4,2.4,11.1
		c1,13.7,2.6,27.4,5.6,40.8c0.3,1.6,0.8,3.1,1.2,4.7c0.7,3,2.2,3.7,4.9,1.9c3.1-2.1,6.4-3.8,9.8-5.3
		C404.3,491,406.1,489.9,408.1,491.1z"/>
	<path class="st8" d="M340.9,375.9c-0.7-2.7,0.9-5.2,1-7.8c8.8-3.6,18.1-4.3,27.4-5.1c1.3-0.1,2.6,0.2,3.6,1.2c0,2,0,3.9,0,5.9
		c-0.2,0.5-0.3,1-0.6,1.3c-5.1,6.4-22.1,10.1-29.3,6.4C342.2,377.4,341.6,376.6,340.9,375.9z"/>
	<path class="st7" d="M467,681.6c6.7,4,12.2,10,20.2,11.7c-0.9,3.9-0.4,8-2,11.7c-1.9,1.3-3.8,0.4-5.5-0.2
		c-7.3-2.6-13.8-6.5-18.8-12.6C462.9,688.7,465,685.2,467,681.6z"/>
	<path class="st7" d="M450,657.2c4.5,8,9.4,15.9,15.8,22.6c-2.3,2.9-4.7,5.8-7,8.6c-1.1,0.3-2-0.2-2.6-0.9
		c-4.9-6.2-10-12.3-13.7-19.3c-0.5-1-0.9-2.1-0.3-3.2C444.5,662.1,446.2,658.6,450,657.2z"/>
	<path class="st11" d="M343.8,356.4c-4,4.3-7,8.9-8.1,15c-1.3,7.2,1.5,15.4,7.7,19c3.6,2.1,1.5,3.6-0.3,4.9
		c-2.9,2.2-9.2,0.5-11.8-3.4c-4.4-6.6-6.6-13.9-4-21.9c4-3,6.9-7,10.1-10.9C339,357.2,340.7,355.1,343.8,356.4z"/>
	<path class="st7" d="M425.8,590c1.6,8,3.3,16.1,4.9,24.1c-3.7,0-7.1,1.2-10.6,2.1c-4.8-6.7-6.7-14.3-6.2-22.5
		C417.4,591,421.4,589.9,425.8,590z"/>
	<path class="st0" d="M526.4,368c-7.5-8.5-12.3-9.4-24.9-4.4c1.8-8.2,8.7-12.2,16.8-10.8c8.5,1.4,13.2,6.5,15.8,14.2
		c-1.9,2.6-4.2,2.8-6.8,1.3C527,368.2,526.7,368.1,526.4,368z"/>
	<path class="st8" d="M388.7,527.3c-1.6,3.8-0.6,7.9-1.2,12.1C381,527,392.3,510.1,408,506c15.5-4.1,31.4,4.9,35.4,23.2
		c0.4,1.8,1.2,3.7-1.1,4.9c-1.4-3.7-2.1-7.7-4.9-10.8c-3.2-3.5-5.1-8.1-9.6-10.3c-9.5-6.4-24.3-4.3-31.5,4.5
		C393.4,520.5,391.5,524.3,388.7,527.3z"/>
	<path class="st13" d="M537,374.9c1.7,12.4-5.6,21.7-17.7,24.1c-1.3,0.3-2.6,0.4-3.8,0.3c-1.5,0-3.1-0.5-3.5-2
		c-0.6-2,1.5-2.2,2.6-2.8c5.3-2.9,9.7-6.9,13.7-11.4c2.5-2.8,3.9-6.3,2-10.2C533.1,371.5,534.9,373.9,537,374.9z"/>
	<path class="st6" d="M509.7,370.3c-10.7,8.3-22,15.8-35,20.3c-0.6-4,0.8-6.6,4.2-9.1c5.1-3.9,10.7-6.8,16.1-10.2
		c0.6-0.1,1.3-0.2,1.9-0.3c2.7-0.5,5.1-1.8,7.8-2.1C506.7,368.7,508.5,368.7,509.7,370.3z"/>
	<path class="st9" d="M532.1,691.4c8.9-6.3,15.7-14.6,21.8-23.4c6.5,3.1,7.1,5.2,2.1,9.9c-5.6,5.2-9.6,12-16.2,16.4
		C534.4,697.9,534.6,698.3,532.1,691.4z"/>
	<path class="st12" d="M340.9,375.9c11.8,4.5,22.3,1.2,32-5.8c0.8,3.4,1.7,6.9,2.5,10.5c-8.9,0.6-17.5,2.3-25.7,5.2
		c-4,1.4-6.6-0.5-7.8-4.2C341.3,379.8,341.2,377.8,340.9,375.9z"/>
	<path class="st7" d="M424.8,570.5c0.3,5.8,0.7,11.5,1,17.3c-4.3,0-8.6,0.4-12.7,2c-2.9-5.5-3.3-11.4-2.1-17.4
		C415.3,569.7,419.8,568,424.8,570.5z"/>
	<path class="st7" d="M431.6,616.4c2.6,6.4,5.2,12.8,7.8,19.2c-3.9,0.7-7.8,1.6-11.6,3.1c-4.3-5.1-6.1-11.2-7.2-17.6
		C423.9,618.5,427.2,616.1,431.6,616.4z"/>
	<path class="st7" d="M440.3,637.7c2.7,5.9,5.4,11.7,8.1,17.6c-2.7,2-5.3,4-8,6c-0.5,0.1-1.1,0.2-1.4-0.2c-4-5.6-8-11.3-8.5-18.5
		C433.2,639.9,436,637.4,440.3,637.7z"/>
	<path class="st5" d="M380.9,547.9c0.1-5-2.6-9.7-1.8-14.8c3.2,12.3,8.4,23.5,17.3,32.7c0.5,0.5,1.1,1.4,1.1,2.1
		c-0.2,6.1,0.4,12.2,0.9,18.3C391,574,385.2,561.3,380.9,547.9z"/>
	<path class="st7" d="M421.9,552.9c0.9,4.8,2.5,9.5,1.8,14.5c-4.5-1.5-9-1-13.5-0.2c-2.7-4.9-4-9.9-2.1-15.5
		C413,548.1,417.4,550.6,421.9,552.9z"/>
	<path class="st11" d="M386.7,357.4c0.4,11.8-1.7,14.6,10.1,31.6c-6.5,0.9-15.6-3.9-16.1-10.6c-0.3-3.8-1.7-7.5-1.7-11.3
		c1.8-2,3.2-4.3,4.5-6.7C384.2,359.1,384.5,357.2,386.7,357.4z"/>
	<path class="st7" d="M505,694.3c7.5-1.7,12.9-7,19.2-10.7c1.4,2.9,2.8,5.9,4.2,8.8c0.2,0.9-0.1,1.7-0.7,2.2
		c-5.5,3.8-10.6,8.6-18,8.7C507.6,700.6,506.4,697.4,505,694.3z"/>
	<path class="st12" d="M378.8,404.2c-0.3-10.4-7.1-17.4-16.9-13.7c-3,1.1-6.3,1.4-9.4,2c6.5-5.6,14.6-6.1,22.6-6.7
		c0.6,0,1.4,0.2,1.8,0.6c4.9,5.2,12.5,8.6,11.8,17.8C385.5,404.2,382.2,404.2,378.8,404.2z"/>
	<path class="st11" d="M412.9,379.9c-3.8,11.5-11.5,8.6-16.7,2c-6.2-7.8-6.4-24.9-0.7-33.3c2.6-1.5,5.1-3.5,8-0.7
		c0.2,0.9-0.3,1.5-0.9,2.1c-6.5,7-7.9,19.3-3.1,27.7c2.1,3.7,3.8,4,8.4,1.6c0.5-0.2,0.9-0.4,1.5-0.5
		C410.6,378.7,411.9,378.9,412.9,379.9z"/>
	<path class="st9" d="M509.8,703.3c6.8-2.7,13.3-5.9,18.7-10.9c0.2,0.2,0.6,0.4,0.7,0.6c2.8,8.6,2.7,9-5.1,13.7
		c-3.3,2-6.8,3.5-10,5.5c-1.9,1.1-2.8,0.2-3.1-1.4C510.3,708.4,510.1,705.8,509.8,703.3z"/>
	<path class="st1" d="M425.9,359.5c0.3,6.3-1.4,12.3-2.2,18.5c-3.3,2-7,0.5-10.5,1.1c-1.2-6.2,0.9-12.3,0.9-18.5
		c0.2-0.6,0.5-1.1,0.9-1.5c3.4-1.5,6.9-1.4,10.3-0.2C425.5,359,425.7,359.2,425.9,359.5z"/>
	<path class="st3" d="M372.9,364.2c-8.5,0.4-17,1.2-25.2,3.6c-2,0.6-3.8,0.4-5.8,0.3c2.5-6.1,7.9-8.4,13.8-9.5c3.4-0.6,7-0.9,10.5-1
		C374.4,357.3,373,356.2,372.9,364.2z"/>
	<path class="st3" d="M725.5,508.9c2.6-3.9,6.7-2.3,9.8-1.9c9.2,1.3,18.4,0.4,27.6,0.8c0.6,0,1.3,0.1,2,0.1
		c-5.1,6.2-28,7.8-38.3,2.8C726.2,510.1,725.8,509.5,725.5,508.9z"/>
	<path class="st7" d="M544.9,661.9c2-4.1,4.5-7.9,5.9-12.4c5.5-2.7,10.1,0,14.6,2.6c-1.4,4.7-3.9,8.7-7.8,11.7
		C553.6,662.1,549.5,660,544.9,661.9z"/>
	<path class="st7" d="M488.4,694.3c3.4-0.1,6.5,1.5,10,1c1.6-0.2,3.2,0,4.5-1.2c1.9,3.4,2.9,7,2.8,10.9c-4,4-10,4.3-16.3,1
		C489.1,702.1,488.8,698.2,488.4,694.3z"/>
	<path class="st9" d="M460.9,692.2c6.2,3.6,11.2,9.2,18.4,11.3c1.9,0.6,3.9,1.1,5.9,1.6c-0.7,2.9-1.4,5.8-2.1,9
		c-9.1-4.2-16-10.7-22.9-17.2C458,694.9,459.8,693.6,460.9,692.2z"/>
	<path class="st9" d="M489.4,706.1c5.5,0.6,11,2,16.3-1c0.1,0.5,0.2,1,0.3,1.4c2.3,6.8,1.5,8.3-5.5,9.3c-0.5,0.1-0.9,0.2-1.4,0.4
		c-4,1.5-7.8-0.2-11.7-1C488.1,712.2,488.8,709.1,489.4,706.1z"/>
	<path class="st7" d="M557.8,632.8c1.2-4.2,2.4-8.5,3.6-12.7c4.1-2.5,8.4-2.9,12.9-0.8c1.8,4.3,0.7,8.1-2.1,11.6
		C567.2,630.3,562.7,632.9,557.8,632.8z"/>
	<path class="st9" d="M442.2,665c4.3,8.7,10.2,16.2,16.6,23.4c-1,1.6-2,3.2-3.3,5.1c-4.9-6.1-9.6-11.9-14.1-17.9
		C438.6,672,439.6,668.4,442.2,665z"/>
	<path class="st9" d="M430.5,642.6c3,6.4,5.4,13.1,9.9,18.7c-1.5,2.4-2.9,4.9-4.4,7.4C430.8,660.7,422.4,653.4,430.5,642.6z"/>
	<path class="st7" d="M552.7,646.3c0.5-3.8,4.1-6.4,3.9-10.4c4.6-0.8,9.1-2.5,13.7,0c1.3,4.7-0.3,8.4-3.9,11.4
		C561.9,646.6,557.5,644.4,552.7,646.3z"/>
	<path class="st9" d="M413.9,593.7c1.5,7.6,3.4,15.2,6.2,22.5c-1.7,1.3-3.4,2.7-5.6,4.4c-1.8-7-3.9-13.4-5.1-20
		C408.8,597.5,411.5,595.5,413.9,593.7z"/>
	<path class="st14" d="M386.7,357.4c-1.9,1.6-2.4,4.1-3.6,6.2c-1,1.7-1.7,3.5-4.1,3.5c0.4-6.7,1.3-13.2,4.7-19.2
		c2.3-4,6-5.2,11.6-6.6C389.9,346.4,387.9,351.7,386.7,357.4z"/>
	<path class="st3" d="M485.5,432.5c4.1-5.2,8.7-9.6,15.7-10.7c7.7-1.2,14.2,0.8,19.3,6.8c-1.2,1.2-2.5,0.3-3.6-0.1
		c-8.6-2.8-16.6-0.8-24.6,2.6C490.1,432,488.1,433.8,485.5,432.5z"/>
	<path class="st9" d="M420.7,621.1c2.4,5.9,4.8,11.7,7.2,17.6c-1.5,1.8-2.9,3.7-4.5,5.6c-1.9-4.6-3.6-8.9-5.4-13.2
		C416.4,627.1,416.8,623.6,420.7,621.1z"/>
	<path class="st8" d="M434.6,523.4c-1.4,3.1-5.2,3.7-6.9,6.6c-1.1,1.9-1.8-0.3-2.6-0.6c-9-4.4-19.2-2.3-25.2,5.2
		c-0.6-1.1-1.1-2.2-1.6-3.2c0.2-1.4,1.1-2.2,2.2-3c6.1-2.7,12.4-4.8,19.2-3.9c3.7,0.5,3.6-3.7,6.2-4.6
		C429.5,519.3,432.9,519.3,434.6,523.4z"/>
	<path class="st8" d="M485.5,432.5c4-1.6,8-3.2,12-4.8c7.8-3.1,15.4-2.2,22.9,0.9c-0.3,0.9-1.1,1.1-1.9,1.1
		c-10.8-0.4-21.2,1.6-31.5,4.6C485,434.9,484.5,434.3,485.5,432.5z"/>
	<path class="st14" d="M343.8,356.4c-5.3,0.6-6.8,5.5-9.7,8.8c-2,2.2-3.6,4.5-6.8,4.8c2.1-9.2,8-14.8,16.5-18
		c2.6-0.9,5.1-0.9,7.8,1.5C348.7,354.6,346.2,355.5,343.8,356.4z"/>
	<path class="st9" d="M411,572.3c0.7,5.8,1.4,11.6,2.1,17.4c-6.4,3.8-6.4,3.8-6.8-3.9c-0.1-1.1-0.4-2.2-0.7-3.3
		C404.2,577.3,405.5,574.8,411,572.3z"/>
	<path class="st0" d="M584,362.5c-2-0.2-3.7,1.5-5.8,0.7c-1.4-5.8,0.4-11.3,1.7-16.8c2-1.2,4-1.2,6,0.3c0,0,0.1,0.1,0.1,0.1
		c1.9,3.3,0.7,6.5,0,9.8c-0.4,1.9-0.7,3.8-1.1,5.6C584.6,362.3,584.3,362.4,584,362.5z"/>
	<path class="st9" d="M408,551.8c0.7,5.2,1.4,10.3,2.1,15.5c-1,0.4-2.2,0.6-3.1,1.2c-2.4,1.8-3.1-0.2-3.5-1.7
		c-0.6-2.3-0.7-4.7-1.2-7C401.4,554.9,403.5,552.5,408,551.8z"/>
	<path class="st9" d="M557.6,663.9c2.6-3.9,5.2-7.8,7.8-11.7c4.9,0.8,5.4,3.2,2.9,7.2c-1.7,2.8-3.1,5.9-5.1,8.3
		C561.3,666.4,559.5,665.1,557.6,663.9z"/>
	<path class="st12" d="M617.1,510.6c0-2.9,0-5.7,0-8.6c2.4,0,4.9,0,7.3-0.1c2.7-0.1,4.6,0.1,4.6,3.8c-0.1,3.2-1.1,4.5-4.2,4.1
		C622.1,509.4,619.8,511.3,617.1,510.6z"/>
	<path class="st9" d="M566.4,647.3c1.9-3.6,3.4-7.3,3.9-11.4c6.8,0.6,7.6,2.1,5.1,8.1c-0.1,0.1-0.1,0.3-0.2,0.5
		C572.5,650.8,572.5,650.8,566.4,647.3z"/>
	<path class="st9" d="M572.1,630.9c0.5-3.9,2.2-7.6,2.1-11.6c3.5-0.5,5.6,1.3,6.6,4.3c1,2.9,0,6.2-1.5,8.2
		C577.3,634.3,574.5,631.8,572.1,630.9z"/>
	<path class="st3" d="M400.5,529.2c-0.4,1-1.2,1.7-2.2,2.2c-3.1-1.6-5.9-4-9.7-4.1c1.1-4.1,3.4-7.4,6.9-9.9
		C399.9,520.3,400.5,524.6,400.5,529.2z"/>
	<path class="st10" d="M551.8,605.5c-7,2.8-5.5,9.5-1.9,15.7c-1.4,2.9-1.7,0.2-2.1-0.5c-3.9-6.3-4.8-13.4-5.5-21
		C546,601.3,548.9,603.4,551.8,605.5z"/>
	<path class="st15" d="M403.4,348.5c-2.7-2.3-5.3,0.6-7.9,0.1c1.8-4.4,5.4-6.2,9.8-5.8c4.9,0.5,6.7,4.1,7.5,8.4c0,0-0.3,0-0.3,0
		l-0.2,0.2c-0.9,1.2-2,1-3.2,0.7C407.3,350.8,404.9,350.3,403.4,348.5z"/>
	<path class="st9" d="M430.5,534.2c-0.6-3.2,0.6-4.7,4.4-6c3.2-1.1,2.9,1.9,3.4,3.2c2,5.5,1.1,10.9-0.8,16.3c-0.3,0.9-0.5,2-1.8,1.7
		c-1-0.3-1.3-1.3-1-2.4c2.3-3.5,1-7.1,0.4-10.6C434.6,533.4,432.3,534.4,430.5,534.2z"/>
	<path class="st0" d="M414.9,360.3c0.5,6.3,0,12.6-1.7,18.7c-0.1,0.3-0.2,0.6-0.3,0.8c-1.2,0-2.5-0.1-3.7-0.1
		c-0.5-0.5-0.8-1.1-0.6-1.8c1.7-5.7,1.5-11.8,3.2-17.5C412.8,359.6,413.8,359.5,414.9,360.3z"/>
	<path class="st7" d="M408.2,545.7c0.6-3.7,2.8-6.5,6.3-6.5c3.6,0,5.7,2.9,6.4,6.5c0.2,1.1,1.5,1.8,0.8,3.1
		C417.7,545.8,413.4,543.7,408.2,545.7z"/>
	<path class="st3" d="M434.6,523.4c-2.5-2.3-5.5-2.8-8.7-3c-1.4-3.4,0.7-5.6,2.9-7.6c4.7,2,7.2,5.9,8.7,10.6
		C436.5,523.4,435.6,523.4,434.6,523.4z"/>
	<path class="st12" d="M442.4,534.2c1-1.5,1-3.2,1.1-4.9c3,4.2,2.2,8.8,0.6,13c-1.9,4.9-4.2,9.8-8.3,13.7
		C439.9,549.2,443.2,542.2,442.4,534.2z"/>
	<path class="st7" d="M430.5,534.2c4.8-3.1,5.6-2.7,6,3.1c0.2,3.3,3.1,7.2-1.8,9.6C435.1,542.1,432.4,538.2,430.5,534.2z"/>
	<path class="st7" d="M396.3,536.1c-0.1,3.9,1,7.9-0.7,11.7c-4.1-2-4.6-6-4.7-9.8C390.9,534.8,393.2,534,396.3,536.1z"/>
	<path class="st16" d="M537,374.9c-2.6,0.7-4.3-1.9-6.7-1.9c-0.8-1.7-3-2.5-2.9-4.7c2.3-0.1,4.7-0.3,6.8-1.3c0.3,0.1,0.6,0.2,1,0.3
		C535.8,369.8,536.4,372.4,537,374.9z"/>
	<path class="st9" d="M396.3,536.1c-3.7-2.5-4.4,0.2-4.7,2.9c-0.3,3.6,1.6,6.3,4,8.8c-2.3,0.9-3.4-1.2-3.7-2.3
		c-1-3.3-2.4-6.6-2.3-10.1c0-1.2-0.5-2.8,1-3.5c1.2-0.5,2.5,0.2,3.3,1.2C394.7,534.2,397.1,533.9,396.3,536.1z"/>
	<path class="st7" d="M424.9,353.4c20.3,0.6,40.5-1.8,60.8-0.9c1.6,0.1,3.2,0,5.6,0c-7.3,3-14.4,2.2-21.1,2.7
		c-14.1,1.1-28.1,3.1-42.2,3.2c-0.7,0-1.4,0.7-2.1,1c0,0-0.2-0.3-0.2-0.3c-1.4-1.6-2.4-3.3-1-5.5L424.9,353.4z"/>
	<path class="st0" d="M546.9,366.2c-2-0.1-4-0.2-5.8,0.8c-2.1-5.3-4.6-10.3-9-14.2c-3.9-3.5,2.4-3,2.2-5.1c0.3-0.1,0.6-0.2,0.9-0.3
		c1.3-0.6,2.6-0.9,4-1.1c3-0.1,6-0.2,9.1,0c0.8,0.1,1.6,0.2,2.3,0.5c5.6,2.8,9,7.6,10.9,13.4c0.5,1.6,1.4,3.3,0,5
		c-3.6,0.4-7.3-1-10.7,1c-0.2-0.2-0.3-0.3-0.5-0.5c-1.1-2.2-1.4-4.7-2.5-6.8c-1.3-2.6-2.9-4.7-6.4-5.1c3.1,3.6,6.5,6.8,5.9,11.9
		C547.2,365.9,547.1,366.1,546.9,366.2z"/>
	<path class="st11" d="M539.1,347.5c-1.3,0-2.6,0-3.9,0c6.3-5.2,12.7-10.3,19.4-15c14-9.9,28.4-1.2,31.4,14.2
		c-1.9,0.1-3.8,0.1-5.8,0.2c-0.5,0.2-0.9,0.2-1.3-0.1c-0.9-1.2-1.2-2.5-1.1-4c1.1-2.3-0.1-4-1.6-5.6c-4.1-4.3-10.5-5.7-16-3.4
		c-5.3,2.2-9.8,5.6-14.1,9.3C543.8,344.8,541.6,346.4,539.1,347.5z"/>
	<path class="st0" d="M509.7,370.3c-4.3-1.2-8.4,1.3-12.7,0.7c4.9-3.7,10.9-4.3,16.6-5.6c2.8-0.6,5.2,1,6.7,3.7
		C516.8,369.2,513.2,369,509.7,370.3z"/>
	<path class="st17" d="M424.7,353.7c0.3,1.8,0.7,3.7,1,5.5c-3.5,0.1-7,0.2-10.5,0.2c-1.8-1.6-2.5-3.5-1.2-5.8
		C417.6,353.7,421.1,353.7,424.7,353.7z"/>
	<path class="st7" d="M414,353.6c0.4,1.9,0.8,3.9,1.2,5.8c-0.1,0.3-0.2,0.6-0.3,0.9c-0.9,0-1.8,0.1-2.7,0.1
		c-0.2-0.1-0.4-0.1-0.6-0.2c-1.8-1.7-2-3.9-2-6.2c0.2-0.4,0.5-0.8,0.9-1c0.9-0.4,1.8-0.2,2.6,0.4C413.4,353.5,413.7,353.6,414,353.6
		z"/>
	<path class="st0" d="M413.1,353.4c-1,0-2,0.1-3.1,0.1c-0.6-0.6-1.8-1.1-0.4-2.1c0.9,0,1.8,0,2.7,0
		C412.6,352.1,412.8,352.7,413.1,353.4z"/>
	<path d="M510.9,555.1c-0.1-0.1-0.2-0.2-0.3-0.3c-3.9-2.9-8.2-4.8-12.9-5.6c-3-0.5-6.1-0.3-9.1-0.7c-10.3-1.4-20.4-0.8-30.6,1.2
		c-0.1,0-0.2,0.1-0.3,0.1c-6.8,2.5-9.9,7.5-8.4,13.9c2.7,11.6,7.6,22,17.3,29.5c11.2,8.7,25,12.3,38.7,1.7
		C516.4,586.5,525.1,568.7,510.9,555.1z M493.3,591.3c-1.9,0.3-1.5-1.4-1.8-1.9c-1.1-1.9-4.1-3.7-2.2-6.3c3.4-4.7,2.9-8.9,0.5-13.9
		c-1.8-3.7-1.2-8.5,2.4-10.8c3.5-2.3,7.8-0.2,10.9,2.1c3.9,2.8,4.9,7.5,5.7,11.1C508.6,580.6,500.6,590.1,493.3,591.3z"/>
	<path class="st5" d="M453,519.6c-1.6-0.9-2-2.6-2.8-4c-1.6-2.6-2.8-5.4-4.4-8c-3.3-5.2-7.3-9.4-14-9.6c-3.8-1.3-7.1-2.8-5.9-7.8
		c-0.2-8.7-0.4-17.4,1.7-25.9c1.1-4.5,0.9-9.7,4.9-13.1c0.9,4.7-1.3,9.2-0.9,13.8c5.6-0.6,11,1,16.4,2.2c1.1,0.2,2.1,1,3-0.1
		c3.1-3,3-7.8,5.8-10.9c1.4,3.2,0.2,6.3-0.3,9.4c-1.6,11-2.6,22.1-3.9,33.2c-0.5,4.7,1,9.3,0.9,14C453.7,515,454,517.3,453,519.6z"
		/>
	<path d="M408.1,491.1c-5.8,1.6-11.1,4.2-15.8,7.9c-3,2.3-4.7,1.5-5.4-1.7c-2.8-12.3-5.4-24.6-6.1-37.3c-0.4-7.2-1.3-14.4-2-21.6
		c0-0.8,0.1-1.6,0.1-2.4c0.1-9.5,1.5-11.4,8.9-12.1c8.3-0.8,14.6,3.5,16.6,10.3c1.6,5.3,1.3,10.9,1.5,16.1
		C406.4,463.9,407.7,477.5,408.1,491.1z"/>
	<path d="M513.8,478.4c0,1-0.1,2-0.1,3c-1.9,4.7-0.6,9.8-1.9,14.6c-0.4,1.6,0.4,3.5-1,5c-5.8,2.7-11.9,1.8-17.8,1.3
		c-7.8-0.7-15.6-0.5-23.4-0.8c-6.8-0.2-8.4-1.7-9.5-8.4c0-3.4-0.1-6.7-0.1-10.1c0-6.2,1.4-7.9,7.6-9.4c1.1-0.3,2.1-0.7,3.1-1.1
		c1.4-1.1,2.7-1.1,4.1,0c9-0.1,18-1.3,27-0.9C507,471.9,511.5,473.2,513.8,478.4z"/>
	<path class="st6" d="M505.9,452.3c-12.5-1.1-25.1-0.9-38.6-4.7c9.7-2.2,18.2-4.3,26.8-6.1c6.1-1.2,12.4-1.9,18.6-2.8
		c4-0.6,5.2,0.6,4,4.7c-1,3.6,0,8.7-6,8.9C509.1,453.5,507.5,453.5,505.9,452.3z"/>
	<path d="M512.6,529.4c3.7,2,4.9,7,3,11.8c-0.9,0.3-1.8,0.8-2.7,0.8c-9.1-0.4-18.1,1.8-27.1,1c-7.1-0.6-14.1,1.4-21.3,1.1
		c-2.7-0.1-3.7-0.7-3.6-3.5c0.1-4.2,0.2-8.3,1-12.5c0.6-3,2-4,5-3.6c14,1.7,27.9,3.3,41.9,4.9C510,529.4,511.3,529.4,512.6,529.4z"
		/>
	<path d="M453,519.6c0.9-3.3-0.6-6.4-0.9-9.5c-1.8-17.4,1.6-34.3,4.8-51.2c0.2-0.9,0-1.9,0-2.9c0.5-1.4,1-2.9,1.5-4.3
		c0.1,5.2,0.2,10.5-0.7,15.5c-0.9,5.2-0.5,10.5-1.5,15.7c-1.6,8.5-1.6,17.3-1.1,26c0.2,3.8-1.1,7.2-1.1,10.9c0,0.1-0.3,0.3-0.4,0.3
		C453.4,519.9,453.2,519.7,453,519.6z"/>
	<path class="st5" d="M460.1,493.1c2.4,6.7,2.7,7.1,10.4,6.9c13.4-0.4,26.8,1.8,40.2,1c-1.3,2.4-3.6,2.9-6.1,3
		c-4.2,0-8.3,0.1-12.5,0.1c-2.3,0.4-4.5,0.4-6.8,0c-3.9,0-7.8,0-11.8,0c-2.5,1.1-4.7,0.4-6.8-1C461.9,501.5,459.2,498.5,460.1,493.1
		z"/>
	<path class="st18" d="M466.8,503c2.4-0.5,4.6,0.2,6.8,1c2.2,2.5,3.6,5.2,2.8,8.7c-3.1,7.4-8.5,8.2-13.6,1.8
		C460.7,509.4,462.3,505.7,466.8,503z"/>
	<path class="st18" d="M505.9,452.3c1.6,0,3.2,0,4.7,0c3.7,2.4,6.3,5.3,4.3,10.1c-1.2,3-3.5,4.5-6.6,4.5c-3.1,0-5.3-1.5-6.7-4.5
		c-1.4-3.1-0.6-5.6,1.4-7.9C503.8,453.6,505,453,505.9,452.3z"/>
	<path class="st0" d="M465,463.8c-0.2-6.1,2.4-9.7,7.2-9.7c4.8,0,7.4,3.6,7.2,9.7c-0.8,3.9-3.3,6-7.2,6
		C468.2,469.8,465.8,467.7,465,463.8z"/>
	<path class="st0" d="M482.6,462.9c-0.2-6.1,2.4-9.7,7.2-9.7c4.8,0,7.4,3.6,7.2,9.7c-1,3.6-3.2,6-7.2,6
		C485.8,468.8,483.6,466.5,482.6,462.9z"/>
	<path class="st0" d="M513.6,506.9c2.4,2.4,4.4,5.2,2.6,8.4c-1.4,2.5-3.6,4.8-7.4,4.3c-2.8-0.3-3.6-3.1-5.7-4
		C502.7,507.2,506.4,504.1,513.6,506.9z"/>
	<path d="M432.5,451.1c-3.7,10.4-5.1,21.2-5.8,32.1c-0.1,2.3,1,4.8-0.8,6.9c-0.7-6.1-2.4-12.1-2.1-18.4c0.4-7.8,2.7-14.8,7.1-21.2
		C431.8,449.3,432.7,448.7,432.5,451.1z"/>
	<path class="st0" d="M485.4,504c2.3-1.6,4.5-1.6,6.8,0c1.3,2.1,3.4,3.8,2.8,6.7c-0.8,3.2-2.2,5.8-5.9,5.9c-4,0.2-5.4-2.8-6.5-5.9
		C481.9,507.8,484,506.1,485.4,504z"/>
	<path d="M431.8,498c4.1-2.4,6.9,0.5,9.7,2.7c4.9,3.8,7.4,9.1,8.8,15c-2.9-3.4-5.7-6.7-8.6-10C438.8,502.4,435.7,499.7,431.8,498z"
		/>
	<path class="st5" d="M465,463.8c4.7,6.7,9.7,6.7,14.4,0c0.7,4.1-1.7,6.6-4.6,8.7c-1.4,0-2.7,0-4.1,0
		C466.8,470.9,464.3,468.4,465,463.8z"/>
	<path d="M451.1,466.9c0.3,0.8,1.2,2.1-0.6,1.8c-6.3-1.1-12.5-2.5-18.8-3.8c5.3-3.9,10.4-1.2,15.6,0.4
		C448.5,465.7,449.8,466.4,451.1,466.9z"/>
	<path class="st5" d="M482.6,462.9c4.7,6.7,9.7,6.7,14.4,0c-0.6,5.1-3.1,7.8-7.2,7.8C485.7,470.7,483.1,467.9,482.6,462.9z"/>
	<path class="st5" d="M482.6,510.7c4.9,7,7.6,7,12.4,0c0.6,4.1-0.5,7.3-5.1,7.8C485.9,518.9,483.2,515.9,482.6,510.7z"/>
	<path d="M437.5,456c4-3.8,11.1-3.7,14.2,0.2c0.6,0.8,0.3,1.5-0.6,1.9C446.6,458.2,441.9,458.1,437.5,456z"/>
	<path class="st5" d="M437.5,456c4.7-0.1,9.3,0.1,13.7,2.1c-5,3.4-9.5,1.4-14-1.4c-0.1-0.1-0.1-0.3-0.1-0.4
		C437.2,456.2,437.4,456.2,437.5,456z"/>
	<path class="st5" d="M462.8,514.5c6.1,4.7,9.4,4.2,13.6-1.8c0.2,4.3-2.1,7.1-5.9,7.6C466.6,520.8,463.9,518.4,462.8,514.5z"/>
	<path d="M651.2,472.6c-1.5-8.4-3.6-16.6-2-25.4c1.2-6.6,4.5-10.4,10.3-12.2c6.1-1.9,12.4-2.6,18.8-3.4c6.3-0.8,12.6-0.7,18.8-1
		c2.5-0.1,4.7,0.8,7,1.3c1.9,0.4,3.3,1.8,2.4,4.8c-2.5,8.5-1.7,17.1,0.1,25.6c0.6,2.8,1,5.7-0.7,8.4c-5.3,3.2-11.5,4-17.4,4.7
		c-9.7,1.2-19.5,1.3-29.2,2.2C655.2,478,652.6,476.4,651.2,472.6z"/>
	<path d="M716.7,470.6c-1-7-0.9-13.9,0-21c0.6-4.6,1.3-9.1,2.1-13.6c0.6-3.2,3.8-3.9,5.8-4.1c8.1-0.9,16.2-2.3,24.4-0.4
		c4.6,1.1,9.5,0.1,14.4,0.9c4.3,0.8,5.9,2.6,5.1,6.3c-2.2,10.6-2.2,21.3-0.9,32c-2.3,2-5.2,2.9-7.9,2.8c-12.6-0.3-25.2,1.7-37.8,1.1
		C718.9,474.5,717.2,473.5,716.7,470.6z"/>
	<path d="M591.8,473.6c-2.1-8.5,0.3-16.8,1-25.2c0.3-4.4,3.3-6.7,7.2-8c7-2.4,14.3-2.8,21.5-3.9c2.8-0.4,5.7-0.9,8.6-0.9
		c8.6-0.1,11.6,2.8,10.4,11.3c-0.8,5.8-1.1,11.4,0,17.2c0.5,2.7,0.8,5.8-0.7,8.5c-2.1,3.9-6.1,3.9-9.7,4.3
		c-10.2,1-20.2,3.3-30.6,1.8C595.9,478.1,593.8,476.3,591.8,473.6z"/>
	<path d="M816.6,458.7c-1.2,8.1-1.1,16.7-5.9,24.3c-1.4,2.2-3.1,4-5.3,4.1c-2.5,0.1-4.4-1.6-5.8-4.2c-5.2-10.1-6.5-20.5-4.9-31.7
		c0.9-6,1.9-11.8,4.9-17.1c1.3-2.3,2.4-4.5,5.6-4.5c3.1,0,4.2,2.3,5.6,4.5C815.3,441.7,815.7,450.1,816.6,458.7z"/>
	<path d="M791.9,490.1c-4.5-4.4-6-10.2-7.6-15.8c-2-6.9-3.8-14-4.8-21.1c-0.9-6.5,1.3-12.8,4.7-18.5c4.4-3.7,8.1-8.5,14.8-9.8
		c-4.1,4.4-7.7,8.6-10,13.6c-3.6,7.9-3.1,16.1-2.5,24.4C787.3,472.2,790.4,481,791.9,490.1z"/>
	<path d="M815.7,565.3c-1.3,8.7-1.2,17.8-5.9,26c-1.6,2.7-3.5,5-6.3,5.2c-2.9,0.1-5.2-2.1-6.5-4.9c-5-10.7-6.7-21.9-5.1-33.7
		c0.9-6.5,1.7-12.8,4.6-18.7c1.5-3,3.6-5.8,7-5.8c3.3,0,5.4,2.9,6.9,5.9C814.4,547.4,814.7,556.3,815.7,565.3z"/>
	<path d="M795.8,600.5c-7.5-1.7-19.8-16.4-20.6-24.4c-1.1-10.2-0.9-20,3.3-29.4c1.2-2.7,3.2-5,4.9-7.5c2.7-2.5,5.4-5.1,8.1-7.6
		c0.2,0.1,0.4,0.2,0.7,0.3c-1.9,3.8-3.7,7.5-5.6,11.3c-6.2,12.3-8.3,25.2-4.2,38.6c1.6,5.4,5.5,9.5,9,13.8
		C792.7,597.2,794.3,598.8,795.8,600.5z"/>
	<path d="M712.7,577.1c-3.6-11-1.7-21.7,1.7-32.3c1-3,3.4-4.7,6.5-4.7c13.6,0,27.2-0.4,40.7,1c4.5,0.4,6.2,3,4.9,7.5
		c-2.8,10.1-1.7,20.3-1,30.5c-0.4,3.1-2.8,4.5-5.3,4.8c-9.5,1.3-19.1,1.5-28.6-0.6c-3.4-0.8-7-0.6-10.5-1
		C717.5,581.7,714.8,580.2,712.7,577.1z"/>
	<path d="M652.4,575.2c-2.4-8.5-3.8-17-2-25.9c1.6-7.9,4.4-10.3,13.2-11.4c5.2-0.6,10.5-0.9,15.7-1.6c7-1,14,0.9,20.8,2.3
		c4.3,0.9,5.8,5.1,3.7,8.9c-4,7-2.8,14.3-1.2,21.4c0.6,2.8,0.1,5.5,0.7,8.1c-2.6,4.5-6.9,4.5-11.1,3.9c-9.4-1.4-18.9-1.1-28.4-1.7
		C659.4,578.9,655.6,578.3,652.4,575.2z"/>
	<path d="M595.6,572.2c-3.3-7-4.7-14.4-4.7-22.1c0-5.7,3.4-9.4,8.6-11.1c10.5-3.4,21.5-3.9,32.3-5.7c7.3-1.2,10.9,3.4,8.7,12.3
		c-1.8,6.9,0.3,13.4,0.6,20.1c0.1,2.7,0.2,5.7,0.8,8.6c-1.1,5.5-5.6,4.3-9,3.8c-8.6-1.1-17.3-0.9-25.9-1.9
		C602.9,575.6,598.4,576.2,595.6,572.2z"/>
	<path d="M571.3,538.1c0.8,16.4,5.4,31.8,11.3,47c0.8,1.9,2.2,3.6,2.4,5.8c-9.5-9.5-13.7-21.7-16.5-34.4c-1.9-8.9-3.5-17.9-4-27
		c0-0.8-0.1-1.6-0.9-2.1c0-13.7-2.2-27.5-1-41.2c1.6-18.1,2.6-36.5,11.9-52.9c2.4-4.3,4.7-9.2,10.5-10.3
		c-5.3,7.9-9.7,16.4-12.3,25.6c-2.3,8.5-4.1,17.2-4.3,26.1c-0.2,9.1-1.8,18.1-0.9,27.2C568.6,513.8,568.2,526.2,571.3,538.1z"/>
	<path d="M561.5,551.8c1.3,9.6,4.6,18.6,7.1,27.9c0.6,2.3,1.2,4.7,2,6.9c1.4,3.9-0.9,5.4-4,5.1c-4.8-0.4-9.5-1.3-14.1-2.5
		c-8.9-2.4-8.9-2.6-8.1-12.4c1.5,4.1,3.1,8.1,8.3,8.2c4.1,0.1,8.2,2,12.5,0.5c-0.3-1.1-0.7-2.2-0.8-3.3c-1-6.8-4.3-10.7-11.8-11
		c-10-0.4-13.7-8.3-14.4-16.3c-0.3-3.6,0.3-7.1-0.9-10.7c-0.7-2.2-1-5.2,1.3-7.3c0.9,0.8,0.4,1.7,0.5,2.6c0.3,5.4,0.5,5.5,5.7,3.7
		c1.9-0.7,3.9-1.4,6.1-1.2c1.6,0.1,4.2,0.8,3.7-2.2c-0.4-2.1-0.3-4.9-4.1-4.6c-4,0.3-7.8,0.1-11.6-2.2c-3.4-2.2-5-5.2-6.5-8.5
		c0-3.9-0.5-7.6,1.8-11.5c1.4-2.3-1.9-5.7-0.8-8.8c0.7-1.1,0.4-3.4,2.4-2.9c1.7,0.4,1.7,2.3,1.6,3.7c-0.4,4.2,1.2,4.8,4.6,3
		c1.7-0.9,3.7-1.1,5.6-1.7c0.9-0.3,2.1-0.5,2-1.7c-0.1-1.1-1.3-1.4-2.2-1.6c-3.9-0.8-8-0.4-11.9-2.1c-1-0.4-1.7-0.8-2.1-1.7
		c-2.2-7.4-5.6-14.6,0-22.3c2-2.8,1.2-7.3,2.9-10.7c2.7,0.4,1.8,2.5,1.8,4.1c0,1.9,0.6,3.4,2.7,3.2c3.4-0.4,7-0.3,11.1-2
		c-5.7-2.6-12.8-0.7-15.5-7.4c-2.2-6.1-1.2-11.9,2-17.4c0.7-3.8,2.7-6.6,6.2-8.1c0.3,0.1,0.5,0.4,0.8,0.6c1.7,1-1.8,4.2,2,4.3
		c5.4,0.2,9.1-1.4,10.3-4.6c0.9-2.6,0.4-3.7-2.5-3.3c-2.8,0.4-5.7,1.7-8.3-0.7c3-5.3,14.6-8.6,19.7-5.6c2,1.1,2.2,2.8,1.4,4.6
		c-1.6,3.7-2.6,7.7-5.1,10.9c-2.4,5.4-3.3,11.3-4,17c-1.7,15.9-2.6,31.9-2,47.9c0.5,14.1,1.8,28.1,4.1,42.1
		C560.8,551.5,561.3,551.6,561.5,551.8z"/>
	<path class="st6" d="M544.1,438.6c-2,2.6-3.9,5.2-5.9,7.8c-2.3,0.6-4.6,1.2-6.9,1.9c-1,0.3-2,1.3-3.1,0.2c-0.9-1-0.6-2-0.4-3.1
		c2.3-13.2,12.1-19.8,23-24.8c9.9-4.5,20.4-7,31.4-6.4c2.9,0.2,5.7,0.7,9.1,1.1c-3.4,2.2-6.3,4.2-9.3,6.2
		c-6.3,4.2-9.7,10.6-12.7,17.2c-1.3,3-3.2,5.3-6.6,5.7c0.2-3.8,2.1-7.1,3.7-10.4c1.1-2.3,2.1-3.8-2.1-4.4c-6.9-1-12.4,0.8-17.4,5.1
		C546.6,436.4,545.6,437.6,544.1,438.6z"/>
	<path class="st5" d="M533.3,498.9c4.8,2.7,10.4,1.3,15.5,2.9c1.6,0.5,3.1,0.4,3,2.7c-0.1,2.1-1.3,2.1-2.8,2.4
		c-4.2,1.1-8.4,2-12.7,4.9c0-3.9,0-7,0-10c-2.3-0.5-1.8,1.8-3,2.2C533.3,502.3,533.3,500.6,533.3,498.9z"/>
	<path class="st5" d="M536.2,463.8c3.8,4.2,8.8,4.7,14,5.1c1.1,0.1,3.4-1.1,3,1.5c-0.2,1.4-0.3,3.8-3.1,3.3c-3.1-0.5-6,0.7-9,0.9
		c-3.2,0.2-6.3,0.1-4.2-4.7c0.5-1.1,0.9-2.9-0.7-3.9C536.2,465.2,536.2,464.5,536.2,463.8z"/>
	<path class="st7" d="M349.2,434.1c1,6.3-0.5,11.9-0.5,17.4c0,14.4,1.7,28.7,3.6,43c1.9,14.7,5.8,28.8,10.7,42.6
		c6.4,18,13.1,35.9,22.3,52.6c2.2,4-0.1,5.2-2.7,6.9c-3.3,2.1-4.4,0-5.8-2.5c-11.6-20.7-18.8-43-25.3-65.6
		c-3.7-12.8-6.3-25.8-7.8-39.1c-1.2-10.3-3.1-20.6-2.8-31c0.2-5.8,1.2-11.6,2.8-17.3C344.5,438.3,346.1,436.2,349.2,434.1z"/>
	<path class="st19" d="M308.3,511.9c-2.5-6.9-2.6-14.1-3.5-21.2c-2.3-18.6-0.4-37,3.8-55.1c2.2-9.3,4.7-18.5,12-25.4
		c3.8-3.6,7.8-4.7,12.8-3c2.6,0.9,2.4,1.9,0.7,3.2c-15.7,13-19.1,31.2-21.7,49.9c-1.9,13.3-2.7,26.6-3,40
		C309.3,504.1,308.4,508,308.3,511.9z"/>
	<path class="st19" d="M346.8,610.3c1.9,2.1,3.7,4.2,5.6,6.3c9.7,10.4,20.9,18.6,33.9,24.4c2.5,1.1,5.1,2,7.8,2.4
		c2.9,0.5,2.1,1.7,1.3,3.2c-2.1,4-5.9,5.6-10.1,3.5c-9-4.5-17.1-10-23.6-18c-5.6-6.8-10.6-13.9-16-20.8
		C346.1,611,346.5,610.6,346.8,610.3z"/>
	<path class="st3" d="M681.1,508.4c-13,4.9-24.6,7.6-36.6,1.9c-1.6-0.8-3.6-1.5-2.6-3.9c0.9-2,2.6-2.9,4.8-2.3
		C657.5,507,668.8,506.4,681.1,508.4z"/>
	<path class="st0" d="M574.2,363.1c-3.1,1.5-6.4,1.2-9.6,1c-1.3-1-1.3-2.5-1.4-3.9c-0.3-4.1-1.6-7.8-4.4-10.9
		c-0.7-0.8-2.2-1.7-0.7-3.2c4.4-1.5,8.9-0.9,13.4-0.4c0.6,0.2,1.1,0.5,1.5,0.9C576,351.9,576.9,357.4,574.2,363.1z"/>
	<path class="st2" d="M557.7,346.8c6.1,4.3,7,10.6,6.9,17.3c-1.1,0-1.5,2.3-3,1.1c-1.2-7.3-4.8-13.1-10.8-17.4
		c1-1.4,2.7-1.5,4.1-1.9C555.9,345.8,556.9,345.8,557.7,346.8z"/>
	<path class="st1" d="M574.2,363.1c0.1-5.5,0.5-11.1-1.9-16.4c2.2-1.9,4.5-1.7,6.8-0.2c0.3,0.1,0.7,0.2,1,0.2
		c0.6,5.6-1,10.9-1.9,16.4c-0.4,0.1-0.8,0.2-1.1,0.2c-0.9,0.5-1.9,0.8-2.9,0.2L574.2,363.1z"/>
	<path d="M550.8,366.2c-0.3,2-1.1,3.6-2.5,5.2c-0.6-1.8-0.2-3.7-1.3-5.2c0,0-0.1-0.1-0.1-0.1c1.3-1,2.7-1,4,0L550.8,366.2z"/>
	<path d="M574.2,363.6c1-0.1,1.9-0.1,2.9-0.2c-0.7,1-0.8,3-2.1,2.9C573.5,366.3,574.5,364.5,574.2,363.6z"/>
	<path class="st19" d="M587.3,620.9c-1.7-4.2-4.7-7-8.9-9.1c5-1.5,9.8-1.6,14.2-3.4c0.8-0.3,1.7-1.3,2.6-0.4c0.8,0.9,0.6,2.1,0,3.2
		C593.4,614.8,591.1,618,587.3,620.9z"/>
	<path d="M428.8,512.8c-0.3,2.8-3,4.7-2.9,7.6c-1.6,3.8-3.2,6.4-8.7,5.2c-5.6-1.2-11.1,2.1-16.7,3.6c-1.9-3.8-2.4-8.2-4.9-11.8
		c2.1-6,7.7-6.9,12.7-8.1C415.5,507.5,422.8,506.5,428.8,512.8z"/>
	<path class="st20" d="M409.6,351.4c-1.1,0.9,0.1,1.4,0.4,2.1c0,0,0,0.1,0,0.1c-1,0.9-2.2,1-3.5,0.6c-2.3-1.4-4.1-0.9-5.7,1.4
		c-4,5.8-2,18.1,3.7,22.4c1.2,0.7,2.7,0.7,3.6,2c-4.5,4.1-7.4,3.8-9.8-1.3c-3.1-6.6-3.7-13.7-2.6-20.8c0.7-4.3,3.2-7.7,7.5-9.4
		C405.8,348.7,408.2,349,409.6,351.4z"/>
	<path class="st1" d="M408.2,380c-1.3-0.3-2.9,0.4-4-1c2.7-6,2.9-12.5,4.8-18.7c1-0.8,2-0.6,3-0.2c0,0,0.2,0.3,0.2,0.3
		c0.3,6.6-1,13-3,19.3C408.9,379.8,408.5,379.9,408.2,380z"/>
	<path class="st19" d="M539.1,347.5c7-6.4,13.8-12.9,23.2-15.8c5.6-1.7,14.3,2.2,16.9,7.4c1,1.9,0.6,3-1.2,3.8
		c-3.4-1.1-5.1-4.8-8.8-5.6c-1.7-0.4-3.3-1.2-5.2-1.1c1.3,2.1,5.3,2.3,4.1,6c-5.6,2.2-11.8,1.9-17.3,4.5c-0.7,0.2-1.4,0.5-2,0.8
		C545.6,347.5,542.3,347.5,539.1,347.5z"/>
	<path class="st1" d="M550.8,366.1c-1.3,0-2.7,0-4,0c-0.6-5.6-3.5-9.7-8.6-12.6C545.4,350.1,550.2,357.7,550.8,366.1z"/>
	<path d="M548.8,347.5c0.3-0.3,0.6-0.6,0.9-0.9c1.7-0.4,3.4-1.4,4.9,0.3c-1.1,1.4-2.7,0.6-4,1C550.1,347.7,549.4,347.6,548.8,347.5z
		"/>
	<path d="M568.4,341.8c-1.5-3.2-5.4-3.7-7.9-6.7c7.7-0.5,13.5,1.7,17.6,7.8c0.9,1.1,1.2,2.3,1,3.7c-2.3,0.1-4.5,0.1-6.8,0.2
		c0,0,0-0.1,0-0.1C570.8,345.1,568.9,344,568.4,341.8z"/>
	<path class="st21" d="M412,360.2c-0.9,0.1-1.8,0.3-2.7,0.4c-0.2-0.1-0.4-0.1-0.6-0.2c-1.7-1.8-2.4-4.2-2.9-6.6
		c0.1-0.5,0.4-0.7,0.9-0.5c1.1,0.1,2.2,0.2,3.3,0.2C410.7,355.8,411.4,358,412,360.2z"/>
	<path class="st4" d="M508.8,571.6c-0.2,9-8.2,18.5-15.5,19.7c-1.9,0.3-1.5-1.4-1.8-1.9c-1.1-1.9-4.1-3.7-2.2-6.3
		c3.4-4.7,2.9-8.9,0.5-13.9c-1.8-3.7-1.2-8.5,2.4-10.8c3.5-2.3,7.8-0.2,10.9,2.1C507.1,563.3,508,567.9,508.8,571.6z"/>
	<path class="st10" d="M485.3,595.5c-7.2-0.3-11.8-3.6-16-6.8c-9.1-7-12.7-17.3-15.1-28c-0.2-1,0.3-2.2,0.6-3.3
		c0.3-0.9,0.7-2.1,1.8-2.1c1.1,0,1.3,1.2,1.5,2.2c1.2,6,1.8,12.2,5.2,17.5c3.2,4.9,6.8,9.1,13,9.9c1.2,0.2,2.3,0.3,2.9,1.5
		C480.7,589.3,482.1,592.4,485.3,595.5z"/>
	<path class="st11" d="M478.6,579.9c-4,0.5-6.3-2.3-8.4-4.9c-4.2-5.1-5.8-11.4-7.2-17.7c-0.5-2.3,0.4-3.9,2.7-4.4
		c2.3-0.5,4.7-0.7,7.1-1c1,1.1,1,2.3,0.8,3.7c-1.4,6-0.2,11.6,2.6,17C477,575,479.1,577,478.6,579.9z"/>
	<path class="st19" d="M472.5,555.8c0.1-1.3,0.1-2.6,0.2-3.9c3.1-0.9,5.9,1.2,8.9,0.9c2-0.2,1.9,1.2,1.4,2.6
		c-2.3,6.1-4.1,12.1-0.9,18.7c1.1,2.2,0.2,5.4-3.6,5.9c-1.2-2.2-2.6-4.3-3.1-6.8C473.8,567.5,471.9,561.8,472.5,555.8z"/>
	<path d="M446.6,480.9c-5.5,0-10.8-0.7-16-4.2C437.2,474.8,441.9,478,446.6,480.9z"/>
	<path d="M434.1,492.1c3.7-2.6,7.2-2.6,10.9,0.2C441.1,496,437.7,492.8,434.1,492.1z"/>
	<path class="st9" d="M385.7,433.6c-0.5-3.2,1.8-4.4,4.2-4.8c3.2-0.5,6.5-0.1,8.5,2.9c2.7,4,2.9,8.9,2.8,13.4
		c-0.2,10.9,1.4,21.7,1.1,32.5c0,1.3,0.6,2.5,0.8,3.7c0.6,3.4,0.6,6.5-3.9,7.8c-2.9,0.8-5.5,3.1-8.2,4.7c-2.9-8.2-3.1-16.7-4.1-25.1
		c-1.3-10.2-1.5-20.5-2.1-30.8C384.8,436.5,383.9,434.7,385.7,433.6c2.1,3.2,2,7.1,2.3,10.7c1,12.8,2.3,25.5,4.1,38.2
		c0.1,0.8,0.2,1.6,0.4,2.4c0.3,1.1,0.6,2.4,2.1,2.3c1.6-0.2,2.1-1.5,2-2.9c-0.3-3.4-0.5-6.8-0.8-10.2c-1-10.8-2.8-21.5-2.7-32.4
		c0-0.8,0-1.6-0.1-2.4C392.3,433.6,391,432.6,385.7,433.6z"/>
	<path class="st9" d="M506.8,476.7c2.9-0.1,2.8,2.2,2.9,4c0.1,5.2,0,10.4,0.1,15.6c0,2.2-0.8,3-2.8,2.7c-12.7-2.2-25.5-2.9-38.4-3
		c-3,0-5.1-1.6-4.7-5.3c0.3-2.4,0.1-4.9,0.2-7.3c1.3-2.2,3.1-3.4,5.7-2.3c1.9,2.7,1.2,6,2.4,8.9c0.1,0.3,0.2,0.6,0.5,0.8
		c0.1-0.1,0.2-0.2,0.2-0.4c0.9-2.3,1.3-4.6,1.7-6.9c0.4-2.2,1.6-3.4,4-2.4c2.3,2.9,0.4,6.6,2,9.5c2-2.2,1.3-5.2,2.3-7.6
		c0.7-1.6,1-4.1,3.8-2.5c1.8,3.1,0,6.7,1.5,9.7c2.4-1.9,1.3-4.7,1.8-7.1c0.7-3.7,1.8-4.1,5.5-2c0.9,3.3-1,6.7,0.4,10
		c3.4-1.7,2.1-5.2,2.9-7.8c0.6-2.2,0.9-4.7,3.8-1.7c1.4,3.3-0.3,6.9,1.2,10.2c2.4-1.8,1.4-4.5,1.7-6.8
		C505.9,482.3,504.7,479.3,506.8,476.7z"/>
	<path class="st7" d="M486.2,480.5c-3,1.1-2.1,4-2.6,6.1c-0.7,2.5-1,5-2.6,7.2c0,0-0.3-0.1-0.4-0.1c-0.1-0.1-0.2-0.3-0.2-0.4
		c-1.6-3.7,0.4-8.1-2-11.7c-2-0.3-3.1,0.3-2.8,2.5c0.5,3.2-0.8,5.8-2.8,8.2c-1.5-2.5-1.9-5.3-2.1-8.1c-0.1-0.9,0.6-2.3-1.1-2.6
		c-2.2-0.3-3.8,1.1-5.5,2c-0.3-5.7,3.8-6.7,7.9-6.7c9.3-0.2,18.6-1.6,27.9-1.2c2.4,0.1,4.6,1.2,7,1.2c0,3.8,0,7.6,0,11.5
		c0,3-1,5.5-3.9,6.8c-1-2.7,0.6-5.3,0.4-7.8c-0.2-1.9,0.5-4.2-1.5-5.7c-0.7-0.2-2-1.6-1.7,0.5c0.4,3-1,5.7-1.1,8.5
		c-0.1,2.4-1.7,3.3-4,2.7c-0.5-2.4,0.8-4.7,0.7-7.1c0-1.5,1.2-3.4-0.7-4.6c-2.9-1.9-4-1.1-3.8,2.3c0.2,2.5,0.2,5.1-1,7.5
		c-0.6,1.3-1.3,2.2-2.9,1.8C486.7,488.8,488.3,484.5,486.2,480.5z"/>
	<path class="st9" d="M465.8,531.1c-0.1-1.6,0.9-1.8,2.2-1.8c4.1,0,8.2-0.6,12.2,0.2c7.1,1.4,14.2,0.4,21.3,0.9
		c3.5,0.2,7.1,0.4,10.5,1c3.9,0.7,2.7,4.7,3.4,7.1c0.7,2.5-2.2,1.5-3.5,1.5c-9.5,0.2-19-1.3-28.6-1.1c-5.5,0.1-10.9,1.5-16.4,1.2
		c-2.2-0.1-3.5-0.5-2.8-3c2-1.8,4.6-1.6,6.9-1.4c10.8,0.5,21.5-1.3,32.3-1.3c-5.7-1.9-11.7-1.6-17.6-1.6c-4.9,0-9.7,0.1-14.6,0
		C469.3,532.6,467.2,532.8,465.8,531.1z"/>
	<path class="st7" d="M465.8,531.1c8.3,0.1,16.6,0.4,24.8,0.1c4.9-0.2,9.5,1.4,14.4,1.1c1.7-0.1,2.9,0.8,2.7,2.6
		c-0.2,2.1-2,1.2-3,1.2c-13.6-0.1-27.1,1.7-40.7,1C464.3,535,464.6,532.9,465.8,531.1z"/>
	<path class="st7" d="M470.7,507.3c-0.2,1.5-0.9,2.4-2.5,2.4c-1.5,0-2.4-0.9-2.4-2.4s0.9-2.4,2.4-2.4
		C469.8,504.9,470.6,505.8,470.7,507.3z"/>
	<path class="st7" d="M509.8,457.4c-0.3,1.7-1,2.6-2.6,2.5c-1.5-0.1-2.4-1-2.3-2.5c0.1-1.5,1-2.3,2.5-2.3
		C509,455.1,509.6,456.2,509.8,457.4z"/>
	<path class="st7" d="M472.9,457c1.7,0.2,2.7,1,2.7,2.5c0,1.5-0.9,2.4-2.4,2.4c-1.5,0-2.4-0.9-2.4-2.4
		C470.7,457.9,471.8,457.3,472.9,457z"/>
	<path class="st7" d="M491.2,458.4c-0.1,1.5-0.8,2.5-2.4,2.5c-1.5,0.1-2.4-0.8-2.5-2.3c-0.1-1.5,0.8-2.4,2.3-2.5
		C490.2,456,491,456.9,491.2,458.4z"/>
	<path class="st7" d="M510.8,510.4c-0.2,1.4-1,2.3-2.5,2.3c-1.5-0.1-2.4-1-2.3-2.5c0.1-1.5,1-2.4,2.5-2.3
		C509.9,507.9,510.7,508.8,510.8,510.4z"/>
	<path class="st7" d="M487.5,504.9c1.6,0,2.6,0.7,2.7,2.2c0.1,1.5-0.7,2.5-2.2,2.6c-1.5,0.1-2.4-0.7-2.6-2.2
		C485.2,506,486.2,505.2,487.5,504.9z"/>
	<path class="st9" d="M654.5,448.2c1.4-5.4,6-8.2,13.5-8.8c8.3-0.7,16.5-1.8,24.8-2.9c6.2-0.8,8.5,1.5,7.2,7.4
		c-1.2,5.4-1.2,10.9,0,16.3c1.1,5.2,0.5,6.3-4.6,7.5c-10.4,2.6-21.1,3-31.6,4.8c-4.4,0.8-7.4-1.1-8.2-5.8c4.8-3.1,10.3-2.5,15.6-3.1
		c13.3-1.5,13.2-1.3,12.2-14.3c-0.3-3.4-1.5-4.6-4.9-4.2c-6.6,0.8-13.3,1.3-19.7,3.2C657.3,448.8,655.8,449.3,654.5,448.2z"/>
	<path class="st7" d="M654.5,448.2c8.2-3.2,16.9-3.4,25.5-4.9c3.1-0.5,5.2,0.5,4.6,4.1c-0.5,3.7,0.5,7.3,1,10.9
		c0.5,3.4-1.4,4.9-4.2,5.3c-5.3,0.9-10.7,1.8-16.1,1.9c-3.4,0.1-6.5,1.7-9.9,1.1C655.5,460.6,653.5,454.5,654.5,448.2z"/>
	<path class="st9" d="M722.8,443.4c-0.5-5,3.1-6.6,6.7-6.6c9.7,0,19.4-1.1,29,0.7c3.6,0.7,4.8,2.9,4,5.9c-2,7-2.1,13.7,0,20.7
		c0.5,1.7,0.8,3.7-2.5,3.9c-9.5,0.7-19,0.7-28.4,1.8c-8,0.9-8.3,0.4-10.8-7.7c1.7-1.6,3.9-1.4,6-1.4c5-0.1,10,0,15,0
		c3.6,0,5.3-1.8,5.6-5.3c0.1-1.1,0.1-2.3,0.1-3.4c0-5.9-0.9-6.8-6.7-6.9c-4.2-0.1-8.4,0-12.6-0.1
		C726.4,444.8,724.4,444.9,722.8,443.4z"/>
	<path class="st7" d="M722.8,443.4c6.8,0,13.6,0.1,20.4,0c4.1-0.1,5.8,1.3,5.8,5.6c0,13,0.2,13-12.7,13c-5.2,0-10.4,0-15.6,0
		C720.1,455.6,722.2,449.6,722.8,443.4z"/>
	<path class="st9" d="M596.8,452.1c-0.1-3.3,1.9-5,4.7-5.8c4.1-1.2,8.2-2.4,12.5-2.9c5.2-0.7,10.6-0.6,15.8-1.1
		c4.1-0.4,5.2,1.8,4.9,5.1c-0.4,4-1.3,7.9-0.9,12c0.1,1.3,0,2.6,0.2,3.9c1.5,6.8,0.9,8.1-6.2,8.3c-8.5,0.2-17,1.4-25.6,1.2
		c-4.6-0.1-6.1-1.7-5.4-6c1.7-1.6,3.9-1.4,6-1.4c4.7-0.1,9.4,0,14.1,0c2.8,0,4.4-1.1,4.7-4.2c1.1-11,0.3-11.7-10.5-10.2
		C606.4,451.6,601.7,453.6,596.8,452.1z"/>
	<path class="st7" d="M596.8,452.1c7.3-1.3,14.5-2.7,21.8-3.9c2.9-0.5,4.7,0.5,4.4,3.9c-0.2,3.4-0.2,6.8,0,10.2
		c0.2,3.4-1,4.6-4.4,4.5c-7.3-0.2-14.6-0.1-21.8-0.1C594.5,461.9,596.2,457,596.8,452.1z"/>
	<path class="st9" d="M800.8,439.3c0.6-2.6,1.4-5.3,4.4-5.6c2.7-0.2,3.5,2.6,4.3,4.6c3.8,9,4.8,18.4,3.3,28.1
		c-0.7,4.4-0.8,8.9-3.1,12.9c-1.2,2-1.7,5.2-4.6,4.9c-2.9-0.3-3.7-3.2-4.4-5.7c-0.1-1.2,0-2.3,0.6-3.3c6.1-10.8,4.8-21.7,0.5-32.7
		C801.3,441.5,800.9,440.4,800.8,439.3z"/>
	<path class="st7" d="M800.8,439.3c4.6,4.9,5.1,11.3,5.8,17.4c0.9,7.9-1.1,15.3-5.9,21.8c-4.3-8.7-4.4-18-3.2-27.3
		C798,447.2,797.7,442.7,800.8,439.3z"/>
	<path class="st9" d="M797,544.9c0.3-0.9,0.4-1.9,0.9-2.7c1.1-2.3,2.3-4.9,5.1-5c3.2-0.1,4.6,2.6,5.5,5.1c5.4,15.3,5.4,30.7,0,46
		c-0.9,2.6-2.4,5.6-5.3,5.2c-2.9-0.5-5.4-2.7-5.4-6.4c0.1-0.5,0.1-1,0.3-1.4c7.9-13.3,6.6-26.4-0.5-39.4
		C797.4,545.8,797.2,545.4,797,544.9z"/>
	<path class="st7" d="M797,544.9c5.7,4.2,6.4,10.6,7.2,16.8c1.2,9.2,0.6,18.1-6.4,25.3c-4.1-9.6-4.6-19.5-3.3-29.7
		C795.1,553.1,795.5,548.9,797,544.9z"/>
	<path class="st9" d="M717.9,552.7c1.5-6.4,1.9-6.8,12.1-6.8c10.1,0,20.2,1,30.3,2.1c-1.8,9-2.1,17.8,0.1,26.6
		c0.6,2.4,0.1,3.1-2.6,3.6c-12.1,2.1-24-0.3-35.9-1.1c-3.7-0.3-4-3-4-5.8c3.7-2.5,7.8-1.4,11.8-1c3.1,0.3,6.1,0.6,9.2,0.6
		c3.2,0,4.8-1.3,4.8-4.7c0-2.3,0.1-4.5,0.3-6.8c0.7-5.5,0.2-6.1-5.6-6.1c-4.4-0.1-8.7-0.1-13.1,0.6
		C722.8,554.3,720.2,554.7,717.9,552.7z"/>
	<path class="st7" d="M717.9,552.7c7.9,0.1,15.7-1.3,23.6-1.1c4.3,0.1,5.4,2.1,4.4,5.4c-1.1,3.7-0.9,7.3-0.8,11
		c0.2,3.6-1.4,4.3-4.6,4.4c-7.6,0.2-15.1-1.8-22.6-1.1C716.2,565.1,716.2,558.9,717.9,552.7z"/>
	<path class="st9" d="M657.2,548.7c0.2-3.8,3.2-4.2,6-4.7c1.4-0.2,2.9-0.2,4.3-0.3c10.2-0.6,20.3-3.3,30.7-0.3
		c-4.1,9-3.6,18.1-1.3,27.3c0.8,3.1,0.4,4.9-3.5,4.6c-10.6-0.8-21.2-1.3-31.7-2.1c-3.2-0.2-4.6-2.4-4.5-5.6c1.6-1.9,3.8-1.5,5.9-1.6
		c4.5-0.1,9.1,0,13.6-0.1c5.1-0.1,5.9-0.8,6.5-5.8c0.1-1.1,0.2-2.3,0.4-3.4c1.3-7.3,1.2-7.4-6.5-7.5c-4.7-0.1-9.3,1.3-14,1
		C661,550.1,658.8,550.6,657.2,548.7z"/>
	<path class="st7" d="M657.2,548.7c8.2,1,16.3-1.3,24.5-0.9c4,0.2,5.7,1,4.1,5.4c-1,2.9-1.7,6.1-1.4,9.4c0.3,3.5-1.6,4.9-5,4.8
		c-7.4,0-14.9,0.1-22.3,0.1C655.2,561.3,654.2,555,657.2,548.7z"/>
	<path class="st9" d="M595.9,549.8c-0.9-3.5,1.8-4.1,4-4.8c7-2.4,14.3-3.1,21.5-3.8c3.3-0.3,6.7-0.9,10-1.2c3.5-0.3,4.9,1.4,4.3,4.6
		c-1.4,7.7-1.5,15.3,0,23c0.7,3.8-0.8,5.5-4.7,4.7c-8.8-1.8-17.7-0.8-26.6-0.9c-4.4,0-4.3-3.5-5.7-5.9c3.5-2.5,7.6-1,11.3-1.4
		c3.7-0.4,8,1.4,10.9-1c3.2-2.6-0.5-6.6-0.1-10.1c0.5-3.9-1.7-4.8-5.1-4.3c-5,0.7-10,1.3-15,1.8
		C599.2,550.7,597.4,551.2,595.9,549.8z"/>
	<path class="st7" d="M595.9,549.8c6.7-1,13.4-1.8,20.1-2.9c5.1-0.9,6.6,0.7,6.3,5.9c-0.2,2.4,1.1,4.9,1.6,7.3
		c0.7,3.4,0.2,5.6-4.2,5.4c-6.9-0.3-13.9-0.1-20.9-0.1C597.1,560.4,595.7,555.2,595.9,549.8z"/>
	<path class="st7" d="M537.1,478.7c4.5-2,9.2-0.8,13.8-1.1c0.8,0,1.9,0,1.7,1.1c-0.4,3.6,1.3,7.3-0.9,10.8
		c-2.9,2.7-6.5,2.8-10.1,2.6c-3.6-0.2-5.1-3.1-5.7-6.3C535.6,483.3,535.8,480.9,537.1,478.7z"/>
	<path class="st9" d="M537.1,478.7c0.4,3.1-0.8,6.3,0.9,9.3c1.4,2.5,2.8,3.9,6,2.7c2.4-0.9,5.2-0.9,7.8-1.3c0,8.2,0,8.2-8.4,7.7
		c-3.3-0.2-7.1,0.8-8.2-3.8C533.9,488.2,532.6,483,537.1,478.7z"/>
	<path class="st7" d="M537.9,515.6c3.9-3.2,9-3,13.3-5c1.2,4,2,7.8,1.4,11.8c-1.6,1.6-3.8,1.8-5.9,2.1
		C540,525.4,537.1,522.5,537.9,515.6z"/>
	<path class="st5" d="M544.1,438.6c0.6-1.5,0.9-3.3,2.8-4c4.5,0.8,8.8-1.9,13.4-0.6c-2.9,10.2-4,10.9-16.4,10.2
		C542.8,442.2,546.5,440.6,544.1,438.6z"/>
	<path class="st7" d="M544.8,549.8c1.1-1.6,2.4-2.6,4.5-3.2c3.7-1,6.8-2.3,6.5,3.8c-0.1,2.7,1.1,5.5,1.7,8.2
		c-3.1,2.3-6.4,3.1-9.7,0.8C544.3,557.1,543.2,553.8,544.8,549.8z"/>
	<path class="st9" d="M544.8,549.8c-0.1,3.5,0.8,6.5,3.6,8.9c3.1,2.6,6-0.9,9.1-0.1c0.3,1.7,1.1,3.3,1.2,5.1c0.5,5.1,0,5.7-5.3,4
		C543.9,564.6,540.3,557.3,544.8,549.8z"/>
	<path class="st7" d="M545.9,448.4c0.2,0,0.3-0.1,0.5-0.1c10.4-0.4,11.7,1.8,7.2,11.6c-4.7,2.1-9.3,1.7-11-1
		C540.8,456.2,542.2,451.8,545.9,448.4z"/>
	<path class="st9" d="M537.9,515.6c0.7,7.3,2.9,8.8,10.4,7.1c1.4-0.3,2.9-0.2,4.3-0.2c0.1,0.6,0.1,1.3,0.2,1.9
		c0.1,5.8-3.8,8.3-9.2,6C536.7,527.5,534.9,522.8,537.9,515.6z"/>
	<path class="st9" d="M545.9,448.4c-0.2,0.3-0.3,0.5-0.5,0.8c-4.6,9.1-3.7,10.7,6.2,10.7c0.6,0,1.3,0,1.9,0c0.6,2.7,0.1,4.4-3.3,3.9
		c-0.9-0.1-1.9-0.1-2.9,0c-3.6,0.1-7.1-0.3-8.2-4.3C537.9,454.7,541.2,449.6,545.9,448.4z"/>
	<path class="st11" d="M568.4,341.8c1.7,1.2,3.7,2.3,3.9,4.8c-4.9,0.1-9.7,0.1-14.6,0.2c-1,0-2,0-3,0c-1.6-0.1-3.3-0.2-4.9-0.3
		C555.3,342.4,562,342.7,568.4,341.8z"/>
	<path class="st9" d="M406.3,524.6c-1.9,1.6-3.1,2.3-4.1-1.1c-2.1-7.2-0.8-9.4,6.5-10.8c4.6-0.9,9.1-1.2,13.6,0.1
		c1.8,0.5,2.6,1.1,1.5,2.9c-1.7,2.5-0.9,6.7-4.9,7.8c-1.4-2-0.1-5.5-4.1-6.2C408.6,515.9,405.5,518.4,406.3,524.6z"/>
	<path class="st7" d="M406.3,524.6c-3.9-6.1-3.8-6.1,2.7-8.4c1.8-0.6,3.5-0.6,5.1-0.5c5.3,0.4,5.8,1.4,4.9,7.6
		C414.4,520.8,410.5,524.2,406.3,524.6z"/>
	<path class="st0" d="M409.3,360.6c0,4.9-0.7,9.6-2.2,14.2c-0.5,1.7-1.1,3.4-2.9,4.2c-1.7,0-3-1.1-3.4-2.3
		c-2.6-6.8-5.2-13.7-1.5-20.9c2.3-4.5,4-5.1,7.4-2.5c-0.3,0-0.5,0.1-0.6,0.3c-2.3,2.8-4.5,5.6-3.1,9.7c1.9-1.2,3.2-3.8,6-3.1
		L409.3,360.6z"/>
	<path class="st7" d="M409,360.2c-2.5,1.3-4.8,3-6.2,5.6c-3-5.8-1.8-10.1,3.2-12.2C407.7,355.5,408.1,358,409,360.2z"/>
	<path d="M472.5,555.8c0.8,5.8,3.1,11.4,2.9,17.4C471.8,567.8,470.5,562.1,472.5,555.8z"/>
	<path class="st7" d="M385.7,433.6c1.3-1.4,2.1-3.7,4.8-3c2.3,0.6,2.3,2.8,3.1,4.5c0.8,1.8,1,3.6,1,5.6c-0.1,14.4,2.1,28.6,3.8,42.9
		c0.3,2,0.2,4.1-2,5c-2.1,0.9-4.2,3-5-1.9c-1.6-10.4-2.9-20.7-3.8-31.2C387.1,448.2,386.4,440.9,385.7,433.6
		C385.8,433.6,385.7,433.6,385.7,433.6z"/>
	<path d="M501.8,481.4c3.6,1.2,2.8,4.2,2.6,6.7c-0.2,2.3-0.9,4.5-1.4,6.8C500.7,490.6,502.7,485.9,501.8,481.4z"/>
	<path d="M495,481.4c0.1-0.3,0.1-0.6,0.2-0.9c0.3-1,0.5-0.8,0.9,0c2.2,4.5,0.3,8.5-1.1,12.6C493.1,489.3,494.4,485.4,495,481.4z"/>
	<path d="M469.6,481.4c0.1-0.5,0-1.2,0.3-1.4c0.9-0.6,0.9,0.4,1,0.8c0.7,3.8,1.3,7.5,2,11.3c-3.5-1-1.7-4.4-3-6.5
		C469.2,484.6,469.6,482.9,469.6,481.4z"/>
	<path d="M486.2,480.5c0.1-0.3,0.2-0.6,0.2-0.9c0-0.7,0.8-0.6,0.8-0.4c0.3,4.6,2.4,9.3,0.1,13.9C485.1,489,487.1,484.6,486.2,480.5z
		"/>
	<path d="M478.4,481.4c0.1-0.3,0.1-0.6,0.2-0.9c0.3-0.9,0.6-0.9,0.9,0c1.5,4.1,1,8.4,0.8,12.7C477.6,489.6,478.9,485.4,478.4,481.4z
		"/>
</g>
</svg>
