<?xml version="1.0" encoding="utf-8"?>
<!-- Generator: Adobe Illustrator 23.0.1, SVG Export Plug-In . SVG Version: 6.00 Build 0)  -->
<svg version="1.1" id="Layer_4" xmlns="http://www.w3.org/2000/svg" xmlns:xlink="http://www.w3.org/1999/xlink" x="0px" y="0px"
	 viewBox="0 0 1000 1000" style="enable-background:new 0 0 1000 1000;" xml:space="preserve">
<style type="text/css">
	.st0{fill:#D4002C;}
	.st1{fill:#85001C;}
	.st2{fill:#CBB89A;}
	.st3{fill:#2B5260;}
	.st4{fill:#90AFC3;}
	.st5{fill:#5F6F4C;}
	.st6{fill:#3E4831;}
	.st7{fill:#FEFEFE;}
	.st8{fill:#FEFE00;}
	.st9{fill:#162C34;}
	.st10{fill:#FE0000;}
	.st11{fill:#5E6E4B;}
	.st12{fill:#C5B496;}
	.st13{fill:#CB0000;}
	.st14{fill:none;}
	.st15{fill:#7F7F00;}
	.st16{fill:#181C13;}
	.st17{fill:#808000;}
</style>
<g>
	<path d="M734.3,532.5c-0.4-4.2-1.3-8.4-2.2-12.6c-2.6-11.5-3.8-23.2-4.4-35c-0.5-10.4,1.8-20.7,2.6-31c0.8-9.1,2-18,3.6-26.9
		c1.3-7.4-0.3-14-5.9-18.5c-11-8.8-23.5-11.4-37.2-6c-6.9,2.7-5.7,3.6-8.2-3.8c-0.2-0.6,0.1-1.3-0.1-1.9c-1.7-6-4.2-11.4-11.1-12.7
		c-5.3-1-10.7-1.9-16-2.2c-11.3-0.5-22.5,0.9-33.7,1.7c-13.1,0.9-25.8,3.6-38.8,5.3c-14.4,1.8-28.6,5.1-42.9,7.6
		c-12.9,2.3-25.7,4.6-38.1,8.8c-4.7,1.6-9,4.8-14.5,4c-10.4-1.6-20.8-1.2-31.3-1.9c-2-0.1-2.8-1.3-4-2.4
		c-10.2-9.6-21.7-16.7-36-18.2c-1.2-0.1-2.1,0-2.3-1.7c-1.1-9.5-8.1-17.2-6.3-28c1.3-7.7-3.9-14.6-11.8-18.3
		c-5.1-2.4-5.4-3.6-2.8-8.7c4-7.7,3-19.1-2.3-24.6c-7.8-8.1-18.4-8.8-29-2.5c-7,4.1-9.5,16.9-5.5,25.9c3.8,8.4,11,10.8,19.3,11.2
		c-3.2,7.3-1.9,12,3.9,14.6c4.6,2.1,10.3-0.4,12.9-6.2c1.7-3.8,3.5-2.9,5.4-0.8c1.7,1.8,3.1,4,4.2,6.3c1.1,2.4,2.5,5.4,0.1,7.4
		c-1.4,1.1-3.4-1.1-5.1-1.9c-0.2-0.1-0.3-0.1-0.5-0.2c-4.1-1.5-7.9-1.5-10.7,2.3c-2.6,3.7-4.4,7.6-1.8,12.3
		c2.4,4.2,5.6,6.6,10.5,5.9c3.8-0.5,6.6-3,9.2-5.8c0.6,1.2,1.2,2.1,1.4,3.1c2.1,8.6,2.1,8.7-6.7,8.6c-13.7-0.2-25.1,4.3-33.2,16
		c-1.8,2.6-4.5,3.9-7.5,4.6c-5,1.2-10.2,2.1-15,4c-8.9,3.4-15.2,9.5-16.8,19.4c-3.7-1.8-7.1-2.8-10.9-2.9
		c-20.1-0.6-33.6,9.8-42.7,26.5c-3.9,7.1-5.5,15.2-7.2,23.3c-2.9,13.7-1.6,27.1,0.6,40.5c2.3,13.8,8,26.7,15.3,38.6
		c6.8,11.1,16.3,18,29.9,16.5c8.4-0.9,16.8-2.6,24.3-6.9c1.1-0.6,2-1.8,3.7-1c9.4,4.5,19.4,2,28.8,0.8c5.5-0.7,8.4,0.8,12.2,3.9
		c4,3.3,6.4,6.9,6.4,11.9c0.1,9.6-3.4,18.6-5.4,27.8c-1.9,9.1-5.8,17.9-5.3,27.4c0.5,10.2,5.8,18.3,13.8,20.1
		c15.9,3.7,30.9-1.9,40.9-15.7c6.6-9.1,11.4-19.2,16.5-29.1c2.1-4.1,4.1-6.7,9.3-5.9c3.4,0.5,7-0.3,10.5-0.7
		c10.3-1.2,18.9-5.5,26.4-12.5c9-8.4,14.7-19,20.3-29.6c1.1-2,2.2-3.4,4.7-4c5.5-1.3,10.9-2.9,15.7-6.7c0.9,6.4,3.7,11.8,7,16.9
		c3.2,4.9,6.5,9.9,11.8,12.9c17.7,9.9,37.1,13,56.9,14c12.8,0.7,25.6-1,37.7-5c14.6-4.8,26.4-13.5,30.9-29.3c0.9-3.2,2-6.4,2.2-9.6
		c0.2-3.1,1.9-3.4,4.3-3.9c9.8-2.1,19.3,0.5,28.8,1.9C726,551.5,735.3,543.6,734.3,532.5z M387.6,344.3c-0.8,3-3.3,4.6-6.2,5.2
		c-1.7,0.3-2.8-1.1-2.4-2.8c0.7-3,3-4.2,6.2-4C386.1,343,388.2,342.2,387.6,344.3z M394.3,373c-2.5-0.2-5.5-1.3-5.4-4.2
		c0.1-2.3,2.4-4.5,4.8-4.3c2.8,0.2,5.1,2.2,6.8,4.7C399,371.4,397.1,373.2,394.3,373z M484.3,555.7c-3.3,6.3-5.4,13.6-13.2,16.5
		c-2.2,0.8-4.1,1.8-6-0.7c8.6-2.9,12.2-10,15.2-17.6c0.6-1.7,0.4-3.5,3.2-2.5C486.6,552.5,485.2,554.2,484.3,555.7z M459.4,559.2
		c1,3.1-0.3,6.6,1.7,9.7C455.4,566.4,459.5,562.5,459.4,559.2z"/>
	<path class="st0" d="M345.8,490.2c0.9-17.8-5.6-34.3-9.3-51.3c-1.8-8,0.5-13.3,7.6-17.1c9.1-5,19-6.5,29-7.7c8.2-1,16.3-2,24.5-1.8
		c16.1,0.4,32.1,1.8,48.1,3.7c5.9,0.7,12,0.7,17.9,0.8c11.7,0.2,23.3,0.9,35,1.4c20.4,0.8,40.8,2.6,61.2,1.6
		c13.8-0.7,27.7-0.7,41.5-2.7c2.2-0.3,4.5,0,7.3,0c-1.8,3.7-3.4,6.9-5.1,10.1c-3.7,7.1-0.7,13.7,1.7,20.3c1.9,5,2.9,10.1,3.4,15.4
		c1.8,17.1,0.5,34-3.2,50.8c-1.1,5-3.6,9.4-6.4,13.6c-4.3,6.2-10.8,8.1-17.9,8.3c-6.7,0.2-13.3-0.6-19.9-1.5
		c-13.2-1.7-26.6-2.1-39.8-3.2c-5-0.4-10,0.8-15,1.4c-2.6,0.3-5.2,0.6-7.8,0.8c-1.1,0.1-2.6,0.3-3-0.9c-0.5-1.6,1.1-2.2,2.1-2.7
		c15.8-7.5,17.7-21.5,17-36.7c-0.3-5.7-0.3-11.4-1.8-16.9c-0.6-5.3-0.7-10.7-1.5-16c-2.2-15-8.2-20.6-23.2-21.9
		c-9.2-0.8-18.4-2.2-27.7-1.9c-20.7,0.8-41.1,3.6-60.9,9.4c-10.3,3-17.2,9.3-20.6,20c-4.8,15-7.2,29.9-3.4,45.5
		c0.4,5.6,3.7,9.2,8.3,11.8c6.1,3.4,12.6,5.1,19.6,5.1c24.5,0.2,49,1.8,73.5,3.9c1.9,0.2,3.9,0.1,5.6,1.7c-0.9,2-2.8,2.1-4.4,2.4
		c-26.6,4.7-53.1,9.4-80.3,9.7c-9.9,0.1-19.8,1.5-29.7,0c-11.2-1.6-18.2-7.9-20.5-19.1c-2.1-10.1-1.7-20.3-1.5-30.6
		C346.1,494,346.5,492.1,345.8,490.2z"/>
	<path class="st1" d="M513.8,475.5c3,14,4.2,28-1.5,41.7c-2.6,6.2-7.4,10.1-13.3,12.9c-1.1,0.5-2.5,0.4-3.1,1.8
		c8.9-0.7,17.6-3.3,26.4-2.5c13.5,1.2,27,1.7,40.5,3.4c7.8,1,15.9,2.6,24.1,0.6c5.1-1.3,8.8-3.9,11.6-8c5.1-7.6,6.6-16.4,7.8-25.2
		c1.7-12.4,2.3-24.8,2.1-37.3c1.8,4.1,1.5,8.6,1.7,12.8c0.7,17.1,0.1,34.3-2.6,51.3c-0.9,5.4,0.3,10.9,0.9,16.5
		c-20.2-4.5-40.2-5.6-60.3-6.5c-11-0.5-22.1-1.1-33-0.5c-15.1,0.7-30.2,1.6-45.2,4.4c-13.6,2.6-27.3,4.1-41,6.2
		c-15.6,2.4-31.1,5.1-46.6,7.5c-7,1.1-14.1,1.7-21.1,2.2c-2.6,0.2-5.1,0.8-7.6,1.1c-13.9,1.7-16.5-7.9-15.2-18.4
		c2-16.4,6.2-32.5,7.5-49.1c1.3,7,1.5,14.1,1.7,21.1c0.2,6.5,0.4,12.9,2.6,19.1c3.8,10.5,12.1,14.3,22.4,14.4
		c17.8,0.3,35.5-1.3,53.3-2.6c18.7-1.4,36.9-6,55.4-8.6c-3.6-0.7-7.3-1-10.9-1.3c-13.9-1.1-27.9-0.8-41.6-2.4
		c-12.7-1.5-25.6,1-38.2-2.6c-9.7-2.8-15.5-8.4-16.5-16.8c1.7,0,2.6,1.2,3.4,2.4c3.4,4.8,8.3,7.2,13.8,8.6c5,1.3,10.2,2.3,15.4,2.2
		c24.5-0.4,49.1,1.7,73.6,1.1c5.1-0.1,10.1-0.7,15-1.9c7.7-1.9,12.5-6.6,13.9-14.5c1.6-8.6,2.7-17.3,3-26.1
		C512.4,480,511.7,477.4,513.8,475.5z"/>
	<path class="st2" d="M325.2,438.4c2.6,0,2.3,2.3,3,3.9c0.5,5.8-1.8,10.8-4.6,15.5c-5.3,8.9-10.4,17.9-13,28
		c-0.3,1.1-0.8,2.1-1.9,2.7c-1.6,0.2-2.3-1-2.9-2.1c-3.7-7-10-7.7-16.8-7.2c-0.4,0.4-0.3,0.8,0,1.3c6.6,9.5,6.7,16.8,0.3,26.2
		c-0.3,0.4-0.5,0.8-0.6,1.3c1.7,1.3,3.7,0.3,5.5,0.6c12.2-0.4,17.4,5.8,22.3,16c2.2,4.7,0,7.7-6.2,9.5c-4.5,1.2-9.6,1.3-12.5,5.9
		c3.1,1.1,6.3,0.1,9.4,0.8c5.4,1.2,9.7,4.4,10,7.9c0.3,3.9-3.5,9.1-8.3,10.9c-3.3,1.3-6.7,2.5-10.3,1.1c-8.2-5-11.8-13.5-15.8-21.5
		c-4.7-9.5-7.8-19.7-8.6-30.4c-1.9-20.1,1.8-39.1,14.4-54.9C297.7,442.8,310.3,436.9,325.2,438.4z"/>
	<path class="st3" d="M714.9,479.8c-0.6,15.4-3.3,30.1-12.8,42.8c-8.4,11.1-23.7,11.2-32.1-0.1c-7.1-9.6-10.3-20.4-11.9-32.2
		c-1.8-13.6-0.4-26.8,4.2-39.4c3.1-8.4,6.9-16.8,16-20.9c7.8-3.5,18.4-1.1,23.4,5.8c7.1,9.7,11.1,20.6,12.3,32.6
		C714.4,472.1,714.9,475.9,714.9,479.8z"/>
	<path class="st4" d="M644.7,479.4c-1.7-10.4-3.3-20.8-5-31.1c-0.7-4.4-2.2-8.6-2.8-13c-1.2-9.4,6.9-20.4,18.3-16.4
		c14.3,5,28.7,2,42.9-0.3c5.9-1,11.8-2.5,17.7-3.4c5.4-0.8,10,4.9,8.8,10.8c-2.7,13-4.7,26.1-4.8,39.4c0,2-0.8,4-1.5,5.9
		c-0.3-10.6-3.4-20.4-8.3-29.5c-4.9-9.2-11.7-16.9-23-17.8c-4.3-0.3-8.8,1-12.5,3.8c-10,7.4-14.9,17.9-18,29.5
		c-2.8,10.1-3.5,20.5-2.8,31c0.3,6.6,1.4,13.2,1.3,19.8c0,1.5,0,2.9-0.5,4.3c-0.4,1.1-1,2.1-2.3,2.2c-1.1,0-1.6-1-2-1.8
		c-2.3-4.6-3-9.6-3.4-14.6C645.9,491.9,645.4,485.6,644.7,479.4z"/>
	<path class="st3" d="M407.2,645.5c-5.9,3.5-11.8,4.5-17.7-0.1c-2.5-4.1-2.5-8.6-1.9-13.2c0.9-7.3,3.5-14.2,5.4-21.2
		c2.8-10.4,3.9-21,2.6-31.8c-0.3-5.1-1.8-9.7-5-13.8c0.8-2,2.6-2.2,4.3-2.7c9.6-2.9,19.6-4.2,29.5-5.3c5.5-0.6,11,0.6,15.9,3.3
		c1.9,1,4.3,1.9,4.1,4.8c-7.8,4.3-12.4,10.3-11.9,19.8c0.3,5.1,3,8.7,6,12.3c-6.9,16-15.4,31-26.7,44.4
		C410.6,643.4,408.8,644.3,407.2,645.5z"/>
	<path class="st3" d="M644.7,479.4c2.7,7.5,2.2,15.4,3.7,23.1c0.8,4.1,2.2,7.8,4,11.7c1.8-8.6,0.5-17.3,1.1-25.9
		c1.5,4.5,1.4,9.4,2.6,14c2.2,8.9,6,17.2,11.7,24.1c8,9.5,20.6,14.2,32,3.9c0.9-0.8,2.2-1.3,3.3-2c1,1.1,0.6,2.2-0.2,3
		c-2.2,2.2-1.9,4.9-1.6,7.6c-16.9-3-32.1,2.8-46.8,9.9c-4.4,2.2-6.5,1.5-9.4-2.5c-4.5-6.1-3.1-12.6-2.4-19
		c1.3-12.9,4.2-25.7,1.9-38.8C644.1,485.6,644.6,482.5,644.7,479.4z"/>
	<path class="st3" d="M452.2,595.7c-4.9,0.3-9-1.6-12.1-5c-3.5-3.8-2.8-8.2-0.6-12.6c2.3-4.7,5.8-7.6,10.9-8.7
		c2.3-0.5,3.7,1.2,5.2,2.2c12.2,8.4,18.6,7.5,27.4-4.4c1.4-1.9,3.5-3.8,3.9-6c1.3-6.6,5.1-7.2,10.5-5.5c2.1,0.6,4.5,0.6,6.6,1.2
		c1.1,0.3,0.7,1.2-0.1,1.7c-9.6,14.9-22.2,26.6-38.2,34.5C461.5,595.3,456.9,596.3,452.2,595.7z"/>
	<path class="st5" d="M310.5,534c7.2-4.4,7.2-5.9,2.7-13.6c-4.5-7.6-10.6-11.2-19.3-10.8c0.4-2.2,2.3-1.9,3.7-2.2
		c8.2-2,11.2-6.1,10.4-14.5c-0.1-1.6-0.8-3.2,0.5-4.6c2.9-11.2,7.8-21.5,14.1-31.2c2.9-4.5,3.9-9.7,5.6-14.7
		c0.1,0.1,0.3,0.2,0.4,0.3c4.3,6.5,3.2,11.7-2.1,17.8c-8.6,10-10.3,22.9-9.9,35.4c0.4,11.9,4.2,23.4,11.7,33.1
		c3.3,4.2,2.9,8.5,2.4,13.7C324.7,537.8,318.1,534.6,310.5,534z"/>
	<path class="st6" d="M546.8,558.7c-3.3-3.9-3.4-8.9-4.7-13.5c-0.6-2.1,0.5-3.4,2.9-3.2c7.2,0.5,14.4,1,21.7,1.6c8,0.6,16,1,24,2.3
		c6.8,1.1,14.2,1.2,20,4.9c7.3,4.6,17.4,6.8,19.3,17.6c-1,0.9-2.2,0.6-3.1,0c-4.5-2.8-9.7-4.1-14.5-6.3c-5.2-7.6-8.5-8-15.6-2.1
		c-1.7,0.6-3.3,0-4.9-0.5c-2.4-1-2.9-3.8-4.9-5.2c-4.3-3.1-7.6-2.3-11.9,2.8c-2,0.8-3.8,0.1-5.6-0.7c-1.8-1-2.3-3.1-3.7-4.4
		c-4.2-4.2-7.7-3.3-10.9,2.9C552.5,556.7,549.7,557.8,546.8,558.7z"/>
	<path class="st2" d="M653.2,394.5c-0.6,1.3-1.3,2.6-1.9,3.9c-1.2,2.8-3.8,3.3-6.4,3.9c-13.8,3.4-27.9,4.8-41.9,6.3
		c-19.2,2.1-38.5,4.1-57.8,5.3c-5,0.3-10,1.2-15,0.3c-6.9,0-13.8,0-21.4,0c2.1-1.8,4.5-0.5,5.8-2.1c44.2-8.5,89-12.4,133.5-18.5
		C649.9,393.4,651.7,393,653.2,394.5z"/>
	<path class="st6" d="M334.6,460.3c6.7,27.3,4.3,40.3-1.3,61.4C317.4,504.2,322.7,472,334.6,460.3z"/>
	<path class="st2" d="M669.8,552.8c-0.9,11.2-7.1,19-16.3,24.6c-9.1,5.6-19.2,7.4-29.8,8.7c-18.5,2.2-36-1.9-53.4-7.1
		c-5.1-1.5-10.2-3.4-13.8-7.8c2.5-1.4,4.5,0.3,6.7,1c3.3,1.4,6.9,1.4,10.2,2.5c0.4,0,0.9,0.1,1.3,0.2c2,0.4,3.9,0.9,5.9,1.2
		c2.3,0.5,4,2.9,6.7,2c2.5-0.4,4.7,0.1,7,1.2c0.9-0.6,1.1,3.4,2.3,0.3c2.4-1.3,4.7-0.2,7.1,0.2c0.5,0.1,0.9,0.2,1.3,0.4
		c0.6,0.3,1.3,0.5,1.9,0.7c3.9,0.3,7.8-1.2,11.7-0.9c1,0.3,2,1,3,0c5.9-1.2,11.7-3.4,17.9-3.1c2,0.7,4,1.3,6.1,2
		c0.2-1.7-1.3-2.1-2.2-3c-0.3-0.7-0.2-1.4,0.3-1.8c8.5-5.8,14.4-14.5,22.8-20.4C667.7,553.2,668.5,552.3,669.8,552.8z"/>
	<path class="st7" d="M653.2,394.5c-12.1,1.5-24.2,3.1-36.3,4.6c-8.6,1.1-17.2,2.2-25.8,3.3c-11.9,1.5-23.9,3.3-35.8,4.5
		c-13.6,1.3-26.9,4.5-40.6,5.2c7.8-3.2,16.2-4.2,24.5-5.8c16.3-3.1,32.5-6.4,48.9-8.6c11.8-1.6,23.4-4,35.2-5.2
		c10.8-1.1,21.7-2.1,33.1-1.7C655,392.2,654.1,393.3,653.2,394.5z"/>
	<path class="st4" d="M701.3,538.9c-2.6-2.3-2.3-4.6-0.2-7c0.9-1.1,2.3-1.9,2-3.6c8.9-11.6,14.3-24.6,14.9-39.4
		c2,1.2,1.8,3.1,1.8,4.9c0.1,11.9,2.4,23.5,4.7,35c1.4,7-1.8,10.9-10.2,11.2C709.9,540.1,705.6,539.3,701.3,538.9z"/>
	<path class="st8" d="M614.1,451.4c3.2,1.2,5.4,3.1,7.7,4.9c3.1,2.4,6.5,4.6,10.3,5.6c5.4,1.5,7,5.5,7.5,10.4
		c0.3,2.9-0.3,5.7,0.6,8.6c0.8,2.7,0.4,5.8,0.6,9.2c-6.5-3-11.1-7.7-16.3-11.7c-1.4-1-2.6-2.3-4.1-3.3c-2.9-1.9-4.8-4.4-4.3-8.4
		C616.8,461.7,615.2,456.7,614.1,451.4z"/>
	<path class="st9" d="M444.4,565.5c-5.2-5.8-12.3-7.3-19.4-6.7c-11.7,1-23.3,2.8-34.5,6.7c-0.6-0.3-1.2-0.6-1.7-0.9
		c-1.6-0.9-3.7-1.9-3.4-3.7c0.3-1.9,2.7-1.1,4.2-1.3c18.2-3.2,36.4-6.2,54.5-9.7c5.2-1,8,2.2,11.3,4.6c1.7,1.2-1.5,8.2-4.1,9.1
		C449.1,564.3,446.8,564.8,444.4,565.5z"/>
	<path class="st7" d="M325.2,438.4c-13.3,1-25.5,5-34.6,14.9c-5.2,5.6-8.7,12.7-10.9,20.3c-3.4,11.5-5.3,23.2-5.3,35.2
		c-1.3-5-2.4-10.2-1.8-15.3c1.1-9.7,1.6-19.6,4.9-28.9c4.7-13.1,12.5-23.5,26.9-27.5C311.6,435.2,318.5,434.7,325.2,438.4z"/>
	<path class="st5" d="M298.7,560.7c5.2-0.9,10.7-1.1,14.5-5.4c1.8-2.1,4.2-4.8,2.8-7.7c-1.5-3.4-5-4.9-8.6-5.5
		c-3.2-0.5-6.5-0.5-9.5-2.1c9.1-2.3,17.9-2.4,26.4,2.6c4.2,2.5,7.7,8.6,7.2,13.2c-0.1,0.5-0.4,1.2-0.8,1.6
		c-5.5,5.2-24.7,7.4-31.6,3.7C298.9,561,298.8,560.8,298.7,560.7z"/>
	<path class="st5" d="M530.2,414.2c16.1-1.7,32.3-3.7,48.5-4.8c10.9-0.8,21.8-2,32.7-3.2c12.1-1.3,24.2-3,36-5.9
		c1.4-0.3,2.6-1.3,3.9-1.9c0.2,2.8,0.4,5.6,0.6,8.5c-2.6-0.5-5.2-1.3-7.9-1.5c-5.7-0.3-11.3,0.6-16.7,2.1c-9.9,2.6-20,2.7-30.1,3.7
		c-12.5,1.3-24.9,3-37.4,3.6C549.9,415.3,540,416.1,530.2,414.2z"/>
	<path class="st9" d="M456.1,548.4c8.4-3,16.7-3.6,24.8-4.3c14.6-1.2,29.3-1.5,44-2.1c1.3-0.1,3.4-0.8,3.8,0.9
		c0.4,1.5-1.4,2.3-2.7,3c-8.7,5.2-18.1,5.4-27.7,4.4c-5.1-0.6-10.1-2.3-15.1-3.1c-5.5-0.9-11,1.9-16.5,3
		C463.3,551,459.9,551.4,456.1,548.4z"/>
	<path class="st10" d="M363.2,327.2c-3.8-6-3.1-15.4,1.9-18.9c6.4-4.3,13.5-5.3,20.6,1.2c1.1,2.9,2.4,5.6,1.8,8.9
		C385.9,329.1,372.6,334,363.2,327.2z"/>
	<path class="st8" d="M639.9,417.8c-5,6.1-9.3,12.6-5.7,21.5c-8.1-3.1-14.6-7.7-20.9-12.5c-1.3-1-1.1-1.8-0.6-2.8
		c3.3-6.3,7.4-10.9,15.8-8.3C632,416.7,636,415.8,639.9,417.8z"/>
	<path class="st4" d="M378.8,408.1c-1.4,0-2.9,0-4.4,0c13.2-21.4,52.6-14.8,65.8,1.9c-2.6-0.3-5.1-0.6-7.5-1
		c-7-1.3-13.5-4.5-20.5-6.1C400.4,400.3,389.3,402.2,378.8,408.1z"/>
	<path class="st11" d="M669.8,552.8c-9.6,6.7-16.5,16.6-26.1,23.2c-6-3.1-9.8-7.6-9.9-14.8c8.1,1.1,15.7-0.5,22.9-5.2
		c3.7-2.4,7.8-4.5,12.3-5.3C672.7,550,669.6,552.1,669.8,552.8z"/>
	<path class="st8" d="M618.2,499c2.6,0.8,2.9,3.6,4.7,5.2c4.3,3.8,7.7,8.5,13.4,10.7c2.7,1,4.8,3.2,2.8,6.7
		c-0.2,0.4-0.3,0.9-0.3,1.4c-0.1,2.6,0.2,5.3-0.3,7.8c-0.9,4.6-2.9,2-5.2,0.7c-2.2-1.3-4.3-2.6-6.3-4.2c-5.2-7-7.5-15.3-9.4-23.7
		C617.2,502.1,617.4,500.5,618.2,499z"/>
	<path class="st4" d="M452.2,595.7c11.2-1.4,20.4-6.9,29-13.8c7.7-6.2,14.4-13.2,20.2-21.1c0.6-0.9,1.7-1.5,2.5-2.2
		c-6.7,16.7-16.2,30.8-34.7,36.3C463.6,596.5,458,597.9,452.2,595.7z"/>
	<path class="st5" d="M639.7,577c-5.9,2.4-12.2,3.2-18.5,4.1c-5-5.6-9.8-11.2-8.8-19.5c6.5,0.5,11.7,4.3,17.5,6.8
		C632.1,572.4,636.5,574.1,639.7,577z"/>
	<path class="st3" d="M378.8,408.1c7.1-7.1,16.2-8,25.3-7.5c10,0.6,19.6,3.7,28.6,8.5c-13.2,0-26.3-2.4-39.5-1.9
		C388.4,407.4,383.6,407,378.8,408.1z"/>
	<path class="st4" d="M407.2,645.5c11.9-13.2,21-28.2,28.5-44.2c0.7-1.4,1.1-3.1,2.9-3.7c2.3,1.3,2.7,2.7,1.3,5.3
		c-5.8,11.3-11.1,22.8-18.9,32.9C417.3,640.4,413.1,644.1,407.2,645.5z"/>
	<path class="st4" d="M395.6,579.2c3.7,10.5,1.5,20.8-1,31c-2.3,9.1-6,17.9-6,27.6c0,2.6,1.2,5,1,7.6c-3.9-4-5.3-8.6-4-14.1
		c3.1-12.9,6.4-25.7,8.7-38.8C395.1,588.3,395.7,583.7,395.6,579.2z"/>
	<path class="st12" d="M674.7,409.1c0,0.7,1.4,1.7,0.3,1.9c-6,0.6-11.6-1.2-17-3.4c-2.4-1-1.2-4.1-1.2-6.3c0.1-2.4-0.5-5.3,2.4-6.8
		c6.9-0.5,10,4.6,13.3,9.4C673.5,405.4,673.8,407.4,674.7,409.1z"/>
	<path class="st13" d="M363.2,327.2c4.7,1.1,9.1,2.6,14.2,1c7.5-2.3,9.5-7.3,9.1-14.9c-0.1-1.3-0.5-2.5-0.7-3.8
		c4.7,5.9,4.9,12,1,18.5c-2.8,4.6-7.6,5.9-11.9,5.7C370.5,333.4,365,333,363.2,327.2z"/>
	<path class="st5" d="M563.4,573.3c-2.3-0.7-4.5-1.4-6.8-2.1c-5.9-2.2-7-8.1-9.9-12.6c1.8-2.9,5-3.1,7.8-3.9
		c2.3,0.6,2.5,2.8,3.1,4.6c1.3,3.8,2.7,7.6,5.1,10.9c0.4,0.5,0.8,1.1,1,1.8C563.9,572.5,563.7,573,563.4,573.3z"/>
	<path class="st3" d="M476.5,552.6c-2.3,4.7-4.2,9.6-7.9,13.3c-1.2,1.2-2.7,2.8-4.5,1.8c-1.6-0.9-0.5-2.9-0.7-4.4
		c-1.3-8,4.8-8.8,9.9-10.6C474.2,552.5,475,551.5,476.5,552.6z"/>
	<path class="st14" d="M484.3,555.7c-3.3,6.3-5.4,13.6-13.2,16.5c-2.2,0.8-4.1,1.8-6-0.7c8.6-2.9,12.2-10,15.2-17.6
		c0.6-1.7,0.4-3.5,3.2-2.5C486.6,552.5,485.2,554.2,484.3,555.7z"/>
	<path class="st15" d="M618.2,499c0.8,8.6,4.1,16.4,7.3,24.3c0.5,1.3,1.6,2.4,1.5,4c-2.6-2.1-5.2-4.3-7.8-6.3
		c-2.2-1.7-3.1-3.8-3-6.7c0.3-5.5-0.4-11,1.1-16.3c0-0.1,0.4-0.1,0.4-0.1C617.9,498.2,618,498.6,618.2,499z"/>
	<path class="st7" d="M674.7,409.1c-2.7-1.6-2.8-5-4.6-7.1c-3-3.4-6.3-6.4-10.9-7.5c4.7-4.5,9-3.9,11.8,1.8
		C672.8,400.4,675.1,404.4,674.7,409.1z"/>
	<path class="st8" d="M661.7,414.3c9.1,2.3,17.9,2.1,26.7-1c2.6-1,5.5,0.2,8.2,2.7C684.4,415.8,672.8,421.2,661.7,414.3z"/>
	<path class="st14" d="M400.6,369.1c-1.6,2.3-3.5,4.1-6.3,3.8c-2.5-0.2-5.5-1.3-5.4-4.2c0.1-2.3,2.4-4.5,4.8-4.3
		C396.5,364.7,398.8,366.6,400.6,369.1z"/>
	<path class="st14" d="M387.6,344.3c-0.8,3-3.3,4.6-6.2,5.2c-1.7,0.3-2.8-1.1-2.4-2.8c0.7-3,3-4.2,6.2-4
		C386.1,343,388.2,342.2,387.6,344.3z"/>
	<path class="st14" d="M461.1,568.9c-5.7-2.5-1.6-6.4-1.7-9.7C460.4,562.3,459.1,565.8,461.1,568.9z"/>
	<path d="M513.8,475.5c0,10.8-1.1,21.5-3,32.2c-2,10.9-7.9,16.3-19.2,17.7c-15.4,1.9-30.8,1.4-46.1,0.7c-13.1-0.6-26.2,0-39.3-0.8
		c-8.8-0.5-17.6-1.5-25.3-6.6c-3.1-2.1-4.5-5.4-6.8-8c-4.7-17.6-0.8-34.3,5.3-50.7c3.7-9.9,12.2-14,21.2-16.4
		c16.1-4.3,32.4-7,49.1-8.3c15.1-1.1,29.8,0.2,44.7,2.2c8.8,1.1,13.6,6.4,16.3,14.3C513.3,459.5,513.7,467.5,513.8,475.5z"/>
	<path class="st7" d="M348.1,464.3c-3-9.2-6-17.2-8.1-25.6c-1.2-4.8,1-9.3,5.4-11.9c7-4.2,14.8-6.6,22.7-7.8
		c11.3-1.7,22.7-2.8,34.2-2.1c16.8,1.1,33.6,2.8,50.4,3.7c8.3,0.5,16.6,1.1,24.9,2c7.6,0.9,15.2,1.4,22.8,3c-5,0-10.1-0.2-15.1,0
		c-17.8,0.6-35.6-1.1-53.4-1.1c-17.1,0-34.3,0.4-51,3.4c-14.1,2.5-27,8.6-31.5,24.6C348.3,456.3,349.3,459.8,348.1,464.3z"/>
	<path d="M568.5,471.6c-0.2-0.2-0.4-0.5-0.7-0.7c-7.8-4.2-9-7.6-5.3-15.6c1.6-3.3,2.8-6.8,3.9-10.3c1.6-5,5.6-8.6,10-8.5
		c4.6,0.2,8.1,2.7,10.2,7c2.2,4.5,3,9.4,3.4,14.4c0.8,3.4,0,6.8-0.7,10c-1.1,4.4-3.9,7.5-8.5,8.4
		C575.7,477.5,571.6,475.7,568.5,471.6z"/>
	<path class="st7" d="M534.6,425.9c2.7-1.5,4.5-1.1,6.2-1c16.3,0.6,32.5-1.3,48.8-2.1c3.1-0.1,6.2-1.3,9.3-1.8
		c1.5-0.2,3.7-0.7,2,2.4c-1.1,1.9-2,4.1-2,6.2c-0.1,6.1-2.7,5.5-7.6,4.4c-11.4-2.6-23-4.2-34.6-6.2
		C549.7,426.6,542.8,425.3,534.6,425.9z"/>
	<path class="st1" d="M568.5,471.6c3.9,1.5,7.1,5.1,11.9,3.8c7.8-1.9,7.9-8.7,9.4-14.6c0.2-0.9,0.1-1.9,0.2-2.9
		c2.1,9.3,0.9,17.9-5.5,25.3c-3.7,4.3-10.6,3.3-13.2-2.1C569.8,478.2,568.4,475.1,568.5,471.6z"/>
	<path class="st5" d="M286.3,508.9c2.6-3.8,5.3-7.1,6.1-12.1c1.1-6.9-0.4-12.1-5.7-16.5c-0.4-0.3-0.6-0.9-0.9-1.4
		c0.8-0.1,1.5-0.3,2.3-0.4c8.5-0.8,15.2,4.8,16.7,13.9c1.3,7.7-2.8,13.5-11,15.6C291.3,508.6,288.9,509.7,286.3,508.9z"/>
	<path d="M286.3,508.9c3.2-0.9,6.5-1.5,9.7-2.6c5-1.8,7.7-5.6,7.8-10.9c0-5.7-2.1-10.8-7.1-13.8c-2.5-1.5-5.3-3-8.5-3
		c6.5-2.5,15.5,0.5,18.4,6.3c0.6,1.2,0.9,2.7,2.1,3.5c-0.2,2.4,1.1,4.6,1.1,7.1c-0.3,7.7-4.5,12.6-12.2,13.4
		c-1.2,0.1-2.6-0.4-3.6,0.8C291.3,509.4,288.6,510.7,286.3,508.9z"/>
	<path class="st16" d="M321.6,447.9c-7.5,8-16.6,14.4-29.7,8.6C302.1,453.5,311.9,450.7,321.6,447.9z"/>
	<path d="M710,479.4c-0.3,9.1-1.8,17.9-5.3,26.3c-2.6,6.3-9.9,12.6-14.2,11.8c-7.2-1.4-11.2-6.7-13.7-13.1
		c-6.3-16.4-6.4-32.9-0.1-49.4c1.7-4.4,4.3-8,7.9-10.8c4.8-3.9,9-3.4,13.9,0.9c6.8,6.1,8.9,14.5,10.3,22.9
		C709.4,471.6,710.2,475.5,710,479.4z"/>
	<path class="st7" d="M694,421.4c6.4-0.4,12.2-1.8,18-3.1c6.2-1.3,9.9,2.6,9,9c-1.1,7.9-1.7,15.9-2.6,25
		C712,440,709.2,425.8,694,421.4z"/>
	<path class="st7" d="M662.3,425.2c-9.5,1.3-15.8,6.4-18.8,15.7c-3.2-6.2-2.5-12.3,1.7-16.4C651.1,419,656.6,423.5,662.3,425.2z"/>
	<path class="st9" d="M401.4,567.4c0.7-1.8,2.2-2.1,3.9-2c7.3-3,14.7-3.9,22.4-2c2.5,2.3-0.6,4.6-0.1,7c-2,13-4,25.9-8.5,38.4
		c-2.6,7.4-5.6,14.5-10,21c-1.3,1.6-1.9,3.8-3.9,4.9c-2.9,2.2-6,4-9.7,2c-1.7-2.9,1.6-5.2,1.1-7.9c2.4-12.5,3.9-25.2,5.6-37.9
		C403.2,582.9,401.8,575.2,401.4,567.4z"/>
	<path d="M409.2,629.9c2.5-7,6-13.5,8.5-20.5c3.8-11,6-22.3,8.1-33.6c0.3-1.9,0.6-3.8,1.9-5.3c0.5,16.6-2.1,32.6-9.6,47.6
		C415.8,622.5,412.6,626.2,409.2,629.9z"/>
	<path d="M401.4,567.4c4.9,12.1,1.9,24.4,0.6,36.6c-0.7,6.7-2.3,13.3-3.5,19.9c-0.3,1.7-0.6,3.5-1.8,4.8c1-9.9,2.2-19.7,3.1-29.6
		c0.8-8.7,3-17.4,0.9-26.3C400.2,571.1,399.6,569,401.4,567.4z"/>
	<path d="M427.7,563.5c-7.6-0.4-15,0.4-22.4,2C412.4,561,419.9,559.9,427.7,563.5z"/>
	<path d="M395.5,636.7c3.5,0.6,6.6-1,9.7-2C401.5,639.3,399.9,639.6,395.5,636.7z"/>
	<path d="M596.7,580.1c-0.1,0.6-0.3,1.1-0.4,1.7c-0.5-0.5-1.1-1.1-1.6-1.6c-1-1-2.2-1.8-2.8-3.2c-2.5-4.3-3.4-9.1-4.1-13.9
		c-0.2-1.6-0.4-3.2-1.1-4.7c-1-2.4-3.1-3-5.3-2.6c-2.6,0.4-1.8,2.7-1.5,4.4c0.8,5.7,1.7,11.3,5.4,16c0.7,0.9,1.5,1.8,1.7,3.1
		c-2.8,1.8-3.9-1.1-5.8-2c-5.7-5.7-7-12.7-6-20.4c0.7-2.5,1.5-5.7,4.4-5.7c3.6,0,7.5,0.5,10,3.9c0.8,1.2,1.5,2.4,2.3,3.6
		C594.3,565.6,595.6,572.8,596.7,580.1z"/>
	<path d="M612.4,561.6c0.8,7.5,5.6,13.2,8.8,19.5c-0.8,1.6-1.3-0.3-2-0.2c-1.1-0.6-2.2-0.9-3-2c-4.1-4.6-6.9-9.8-8.1-15.8
		c-0.5-2.6-1.6-4.9-4.9-3.9c-3.1,0.9-2.3,3.5-1.8,5.7c0.9,3.9,1.8,7.9,3.5,11.6c0.7,1.4,1.7,2.9,0.4,4.5c-0.3,0-0.6-0.1-0.9-0.2
		c-5.7-3.6-9.9-14.7-8-21.3c1.7-4.3,5.4-4.9,9.4-4.9C610.5,554.7,611.6,558,612.4,561.6z"/>
	<path d="M562.5,571.2c-3.4-3-4.3-7.2-5.9-11.2c-0.7-1.8-1.4-3.5-2.1-5.3c0.4-3,1.1-6.5,4.5-6.6c3.3-0.1,7.1,0.8,8.9,4.6
		c0.5,1,1.1,2,1.6,3c3.3,6.4,5.9,12.9,4.7,20.3l-0.4,0.1l-0.4-0.1c-1.1-1.3-2.3-2.4-2.9-4c-1.9-4.5-3.4-9.1-4.5-13.9
		c-0.4-1.7-0.7-3.6-2.4-4.7c-1-0.7-2.1-1.1-3.2-0.6c-1.4,0.6-1.1,1.9-0.9,2.9c0.6,3.7,1.4,7.3,2.7,10.9
		C562.7,568.1,563.7,569.6,562.5,571.2z"/>
	<path class="st5" d="M596.5,559.6c1,7.7,2.7,15.2,8,21.3c-2.7,0.4-5.2-1.5-7.9-0.8c-3.2-6.8-4.6-14-4.9-21.5
		C593.4,558.9,594.9,559.3,596.5,559.6z"/>
	<path class="st5" d="M574.1,576.1c-1.6-6.8-3.1-13.5-4.7-20.3c1.9,0.3,3.7,0.7,5.6,1c1.1,7.1,2.3,14.1,6,20.4
		C578.6,577.6,576.5,576,574.1,576.1z"/>
	<path class="st6" d="M605.5,581.1c-2.2-5.5-4.3-11.1-5.5-16.9c-0.6-2.8-1.1-5.6,2.8-6.4c3.4-0.7,6.1,0,6.5,4.1
		c0.6,6.7,4.5,11.8,7.9,17.2c-0.6,0.6-1.5,0.8-2.2,0.4c-3.7-1.8-6.4-0.5-8.6,2.6C606.1,581.8,605.8,581.4,605.5,581.1z"/>
	<path class="st11" d="M606.4,582.1c1.8-5.5,2.9-6,8.1-3.9c0.9,0.4,1.8,0.6,2.7,0.8c0.7,0.6,1.3,1.2,2,1.8
		C615,581.4,610.8,582.6,606.4,582.1z"/>
	<path class="st11" d="M571.3,572.3c1,1.1,1.8,2.3,2,3.8c-3.1-1.7-6.9-0.6-9.9-2.7c0-0.3,0-0.7,0-1
		C566.4,568.3,568,568.3,571.3,572.3z"/>
	<path class="st11" d="M592.8,577.1c0.6,1,1.2,2,1.8,3c-2.6-0.2-5-1.6-7.7-1.1c-0.7-0.6-1.4-1.3-2.1-1.9
		C587.3,573.3,588.8,573.3,592.8,577.1z"/>
	<path class="st7" d="M370.4,319.3c-3,0.2-5.1-0.9-5.1-4.2c0-3.6,3.9-6.7,8-6.5c3.1,0.2,6.2,1,6.6,4.8
		C380.2,316.6,375.5,319.4,370.4,319.3z"/>
	<path class="st6" d="M571.3,572.3c-2.6-2.4-5.3-2.5-7.8,0.1c-0.3-0.4-0.7-0.7-1-1.1c-1.6-4.9-3.6-9.6-4.2-14.8
		c-0.2-2.1-1.7-4.7,1-5.3c2.3-0.5,5.7-0.3,6.8,3.1C568,560.2,569.6,566.3,571.3,572.3z"/>
	<path class="st3" d="M505.9,501.9c-0.2,11.8-5.9,16.5-19.5,17.7c-12.2,1-24.4,1.5-36.4,0.7c-14.1-1-28.2-0.1-42.3-0.9
		c-6.2-0.4-12.6-0.3-18.5-2.8c-4.8-2-9-4.4-9.5-10.4c-0.3-3.7-1.1-7.4-1.4-11.2c3.2,9.2,7.2,12.3,16.5,12.8
		c27.7,1.5,55.4,2.5,83.2,1.9c15.4-0.3,19-5.2,21.3-17.9c0.9-5.1,2.2-10.1,2.1-15.3c1.7,0.2,2,1.6,2,2.9
		C503.4,486.9,505.1,494.4,505.9,501.9z"/>
	<path class="st4" d="M505.9,501.9c-3.5-6.1-2.9-12.9-3.9-19.5c-0.3-2,0.8-4.2-0.8-6c-0.2-5.9-1.5-11.6-4.1-17
		c-2-4.1-5.2-6.4-9.5-7.3c-13.9-3.1-27.8-3.5-42-2.1c-16,1.6-31.8,3.9-47.2,8.9c-5.1,1.7-9.9,4.2-14.2,7.6
		c1.2-9.8,8.1-13.8,16.3-16.3c16.7-5,33.8-7.2,51.1-9c14.2-1.5,28.1,0.6,42,2.5c8.5,1.2,11.8,8.6,13.1,15.8c2.6,13.9,1.1,28,0,41.9
		C506.6,501.6,506.1,501.8,505.9,501.9z"/>
	<path class="st8" d="M426.9,496c3.6-6.3,7.9-12.2,12.7-17.7c6.6-7.6,13.2-15.4,21.5-21.3c4.7-3.4,12.5-4,18.5-1.6
		c-16,10-26.8,24.3-35.3,40.6C438.4,498.5,432.7,498.5,426.9,496z"/>
	<path class="st8" d="M397.6,495c1.5-11.3,6.7-20.8,14.1-29.3c7.9-9,18.1-11.2,29-10.7c-4.4,3.6-9.5,7.4-14.2,11.6
		c-6.6,6.1-10.8,14-15.4,21.6c-1.4,2.3-2.6,4.6-3.8,7C404,497.1,400.8,497.3,397.6,495z"/>
	<path class="st15" d="M480.5,495.1c2.1,1.1,3.4,3.5,6.1,3.7c0.1-2.3-2.9-2.7-3-4.8c8.4-6.2,9.7-15.4,10.4-24.8
		c0.1-1.3,0.2-2.6,1.4-3.5c3.8,12.5,1.5,24.3-3.9,35.8c-2.4,5.1-7.9,3.8-12,4.2c-7.1,0.7-14.3,0.2-22.4,0.2c2.9-3.3,5.4-6,7.9-8.8
		C469.9,495.1,475,493.8,480.5,495.1z"/>
	<path class="st8" d="M495.2,465.7c0.1,6.3-0.7,12.6-2.6,18.5c-1.4,4.5-4,8.4-9.1,9.8c-6.1-9.2-1.8-27.2,5.7-31.2
		C494,460.3,494.1,460.1,495.2,465.7z"/>
	<path class="st8" d="M382,491.1c-3.3-8.8,1.7-24.5,17.8-28.1c-8.5,8.7-11.5,19.6-15,30.2C383.3,493.3,382.5,492.3,382,491.1z"/>
	<path class="st17" d="M426.9,496c5.8,0,11.6,0,17.3,0c-1.8,6.9-5.7,10.5-13.3,9c-2.3-0.5-4.8-0.1-7.3-0.1
		C423.4,501.3,425.6,498.8,426.9,496z"/>
	<path class="st8" d="M480.5,495.1c-5.2,1-10.3,2.1-15.6,2c3.2-4.8,6.5-9.5,11.3-13.5C476.9,487.8,478.5,491.5,480.5,495.1z"/>
	<path class="st15" d="M397.6,495c3.2,0.1,6.5,0.1,9.7,0.2c-1.5,7.3-3.2,8.9-8.8,8.7c-2.6-0.1-3.6-0.6-2.4-3.4
		C396.9,498.8,396.2,496.6,397.6,495z"/>
	<path class="st17" d="M382,491.1c0.9,0.7,1.9,1.4,2.8,2c-0.2,1.5,0.6,3.3-1.4,4.4C382.2,495.5,381.5,493.5,382,491.1z"/>
	<path class="st4" d="M582.1,458.9c-0.9-3.8-2.3-7.3-5.5-9.7c-2.1-1.5-4.2-2.9-7.1-1.1c-0.3-3.9,1.8-6,4.9-6.6
		c3.2-0.6,6.3-0.2,8,3.5c1.3,2.9,2.6,5.7,2.7,9C585.7,456.6,585.7,458.8,582.1,458.9z"/>
	<path class="st8" d="M567.3,466.9c-3.7-4.2-3.8-10.5-0.1-14.1c3.2-3.2,7.7-1.8,10.1,3.1C578.9,463.3,575.2,467.3,567.3,466.9z"/>
	<path class="st3" d="M582.1,458.9c2.1-0.9,3-2.6,3-4.8c2.1,5.3,0,10.1-1.9,14.7c-1.1,2.6-4.2,3.3-8.5,2.5
		C580.5,468.5,582.4,464.2,582.1,458.9z"/>
	<path class="st15" d="M567.3,466.9c7.5-1.4,9.6-3.8,10-11c2.7,3,2.6,6.4,0,9C574.6,467.7,571.1,468.9,567.3,466.9z"/>
	<path class="st6" d="M592.8,577.1c-2.7-1.4-5.3-3.2-7.9,0.1c-5.4-5.7-5.6-13.1-6.7-20.2c-0.2-1.6,0.7-3.6,2.2-3
		c2.5,1.1,6.7-1.1,7.6,3.5C589.2,564.1,589.9,570.9,592.8,577.1z"/>
	<path class="st7" d="M571,452.2c1.4,0.3,2.3,1,2.1,2.3c-0.1,1.1-0.6,2.1-1.1,3.1c-1,2-2,4.4-4.4,4.8c-1.2,0.2-1.3-1.9-1.2-3.2
		C566.6,455.9,568.7,454,571,452.2z"/>
</g>
</svg>
