<?xml version="1.0" encoding="utf-8"?>
<!-- Generator: Adobe Illustrator 23.0.1, SVG Export Plug-In . SVG Version: 6.00 Build 0)  -->
<svg version="1.1" id="Layer_4" xmlns="http://www.w3.org/2000/svg" xmlns:xlink="http://www.w3.org/1999/xlink" x="0px" y="0px"
	 viewBox="0 0 1000 1000" style="enable-background:new 0 0 1000 1000;" xml:space="preserve">
<style type="text/css">
	.st0{fill:#FE9E00;}
	.st1{fill:#1D2329;}
	.st2{fill:#3D4856;}
	.st3{fill:#FEFEFE;}
	.st4{fill:#8292A6;}
	.st5{fill:#878A9A;}
	.st6{fill:#512800;}
	.st7{fill:none;}
	.st8{fill:#7F4000;}
	.st9{fill:#0F1215;}
	.st10{fill:#D86C00;}
	.st11{fill:#FEFE00;}
	.st12{fill:#331A00;}
</style>
<g>
	<path d="M736.7,489.5C736.7,489.5,736.7,489.5,736.7,489.5c-0.3,0.1-0.6,0.1-0.8,0.2c0,0,0,0,0,0c-7.2,1.5-14.3,3.3-21.8,1.2
		c-6.4-1.8-9.5-5.5-9.5-11.7c0-5.9,3.1-9.8,9.1-11.7c6-1.9,12-1.5,17.9-0.4c0.1,0,0.2,0,0.3,0.1c0.7,0.1,1.4,0.3,2,0.4
		c0.3,0,0.5,0.1,0.8,0.2c0,0,0.1,0,0.1,0c3.8-1.4,6.7-3.5,7.5-7.7c-9.8-5.6-20-4.4-30.5-2.5c-4.2,0.8-7.2,4.1-11.2,4.4
		c-4.3,0.4-8.3,1.6-12.3,3c-5.3,1.9-10.6,3.9-15.9,5.6c-1.5,0.5-4.3,1-3.3-1.9c1.3-3.5,1.9-7.1,2.2-10.6c0.8-7.9,3-15.8,0.5-23.8
		c-3.2-10-10.4-15.8-21.3-9.9c-5.3,2.8-10.3,6.3-14.6,10.5c-7.1,7-14.4,13.9-20.2,22.1c-0.5,0.8-1.1,1.3-2.4,0.8
		c-13.6-5-27.7-8.3-42.1-10c-9-1.1-18.1-2.5-26.9-1c-6,1-8.1-0.4-10.3-5.4c-3.2-7.1-6.9-14.1-13-19.1c-11.7-9.6-25.9-13-40.3-15.9
		c-9.5-1.9-19.1-3-28.7-4.2c-21.2-2.7-31,1.8-40.2,19.6C406,433,402,445,398.5,457.2c-0.5,2-0.7,3-3.4,2.1
		c-14.4-4.8-29.5-5.7-44.5-7c-12.6-1.1-25.2-1.5-37.8-1.1c-17.7,0.6-24.5,6.9-30.5,22c-4,10-4.1,20.8-4.8,31.4
		c-0.6,10.2,0,20.5-0.2,30.8c-0.1,5.8,0.7,11.5,2.1,17c1.8,7.2,8.7,12.6,16.7,5.7c8.1-6.9,16.5-13.5,24.5-20.7
		c1.9-1.7,3.7-3.3,5.7,0.2c0.8,1.4,2.6,3,4.1,3.1c9,0.8,17.8,0.4,25.7-4.7c1.7-1.1,3.7-2.3,4.8-3.9c7.9-11.3,19.8-13.9,32.3-14.9
		c-1.7,3.7-4.3,7-7.6,9.8c-8,6.7-16.2,13.1-23.4,20.6c-6.2,6.4-7.5,15.6-3.8,23.7c2.2,4.8,5,9.1,8.1,13.3c5.5,7.3,11.9,13.6,21,16.3
		c8.8,2.7,18.9-6.3,17.1-15.4c-0.5-2.4,0.4-2.9,2.5-2.2c8,2.6,11.7,1.1,14.5-6.7c1-2.8,2.4-2.8,4.1-2.3c10.6,2.8,20.9,3,31.2-2.3
		c0,16,2.4,31.2,5.9,46.3c3.9,16.4,12.7,28.5,29.3,33.5c13,4,26.4,4,38.9-0.9c14.8-5.7,19.9-13.8,13.4-28.4
		c-9.1-20.5-17.4-41.2-23.4-62.8c-1.2-4.2-3-8.4-3.3-12.7c-0.5-7.7-0.1-15.3-1.9-22.9c-0.4-1.5,0.8-3,2-4.1c0.7-0.6,1.2-0.3,1.8,0.6
		c7.9,11,19.8,13.7,32.1,14.6c13,0.9,25.7-2,38.4-4.3c12.5-2.2,23.8-7.8,35.7-11.6c3.1-1,6.2-2.6,8.6-4.7
		c8.3-7.5,17.7-13.1,28.1-17.1c6.1-2.4,12.2-2.4,18.7-1.6c6.6,0.9,13.3,3.8,20.2,1.4c1-0.3,2.7-0.4,3.3,0.2c3.2,3,7.3,3.8,11.3,4.1
		c10.5,1,21.1,1.7,30.2-5.6C744.1,492.2,740.5,490.6,736.7,489.5z M448.2,432.2c2.5-2.8,5.9-1.8,8.7-1.3c7.2,1.2,14.6,0.8,21.6,2.8
		c3.2,0.9,6.5,1.2,9.5,2.4c3.6,1.3,6.9,3.3,6.9,8.3c-8.6-2.4-19.2,0.4-22.3,10c-0.8,2.3-6,2.8-8.4,0.8c-4.5-4-9-8-14.1-11.3
		C446.2,441.1,445.4,435.2,448.2,432.2z M644,464.2c0.4,2,1.3,4.3-1.1,5.5c-0.8,0.4-2.2,0.4-2.5-0.7C639.8,466.2,643,466,644,464.2z
		 M459.5,544.7c-1.4,5.4-11.1,11.1-17.4,10.6c1.7-4.6,3.4-9.1,5.1-13.5c0.3-0.9,0.8-1.7,1.3-2.5c2.1-2.9,6.9-4.1,9.8-2.2
		C461.5,539,460.2,542.3,459.5,544.7z"/>
	<path class="st0" d="M735.3,467c2.3-2.3,4.7-4.7,7-7c13.5-13.4,27-26.8,40.5-40.2c11.5-11.5,23-23,34.5-34.5
		c1.1-1.1,2.3-2.2,4.1-3.9c-6.2,20.4-12.1,39.9-18.1,59.3c0.3,0.3,0.6,0.6,0.9,0.9c16.2-8.5,32.4-17,49.5-25.9
		c-2.9,7.8-7.5,13.7-11,20.2c-3.6,6.7-7.8,13.1-11.6,19.7c-1.1,1.9-0.9,3.1,1.8,3.4c15,1.5,29.9,3.1,44.9,4.9
		c7.3,0.8,14.5,2,21.8,3.1c-0.9,1.8-2.7,1.4-4.2,1.9c-19.2,5.6-38.3,11.2-57.5,17c-0.9,0.3-2.6-0.2-2.8,1.2c-0.3,1.3,1.1,1.6,2,2.3
		c12.2,9.7,24.4,19.6,37.7,30.4c-23.3-4.3-45.1-8.3-68.1-12.5c9.3,16.4,17.8,31.5,27,47.8c-5.7-2.1-9-5.5-12.8-8
		c-23.1-15.8-46.2-31.7-69.2-47.6c-1.8-1.3-3.8-2.3-5.7-3.4c-2.9-2-5.9-3.9-8.8-5.9c-4.2-0.8-7-3.6-9.6-6.6c-0.6-0.7-1-1.8-0.3-2.6
		c0.7-1,1.7-0.4,2.6,0c26,13.1,50.2,29.4,76.3,44.3c-5.5-9.3-10.9-17.5-16-25.9c-0.7-1.1-1.5-2.1-2-3.3c-1.3-3.2-0.6-4.3,2.9-3.7
		c5.8,1,11.4,2.7,17.1,4c10.7,2.5,21.5,4.8,31.9,7.7c-8.9-6.7-18.7-12.5-27.8-19.3c-1.4-1-3.4-1.9-3.1-4c0.3-2.3,2.7-2.1,4.3-2.5
		c12.6-2.9,25.3-5.4,36.2-7.6c-10-1-21.7-2.3-33.4-3.8c-2.3-0.3-4.5-0.3-6.8-0.7c-4.3-0.7-5-2.3-2.4-5.8c3.9-5.2,8.5-9.9,12.5-15
		c-10.3,4.5-20.6,9.1-31,13.4c-1.5,0.6-3.1,1.7-4.5,0.3c-1.4-1.3-0.6-3.1-0.1-4.6c3.4-11.2,7.9-22,11.6-34.1
		c-8.3,7-15.9,13.6-23.6,20c-13.5,11.2-26.3,23.3-40.4,33.7c-1.2,0.9-2.1,2.1-3.8,1.9c-1.9-3.2,1.3-4.4,2.7-6.2
		C731.7,468.1,733.6,467.7,735.3,467z"/>
	<path class="st1" d="M326.1,505.9c16.3,2,32.6,0.3,48.9,0.5c-24.9-3.9-50.1-4.7-75.2-5.6c-4-6.3-2.5-22.2,2.5-27.4
		c0.7-0.7,1.5-1.2,2.6-1.1c2,1.3,4.2,1.3,6.5,0.9c13.1-2.2,26.1-0.4,39.1,0.7c2.3,0.2,4.5,0.3,6.7-0.4c0.3-0.1,0.6-0.2,0.9-0.2
		c9.4,1,18.5,0.2,27.3-3.3c0.8-0.3,1.6-0.1,2.2,0.5c-7.8,7.6-9.6,16.3-6,26.6c1.7,5,5.8,7.1,9.8,10.4c-4.7,2.6-9.4,4.3-14.5,3.9
		c-5.4-0.4-9.2,1.5-12.8,5.4c-4.2,4.4-8,9.4-13.9,12.1c-4.4,2-9,2.4-13.6,3.2c-3.9,0.6-5.6-1.1-5.7-5.1c-0.1-2.6,1.6-6.5-1.2-7.6
		c-2.7-1.1-5,2.5-7.1,4.2c-10.3,8.6-20.4,17.4-30.6,26.2c-0.9-0.6-1.3-1.6-1.2-2.5c0.9-9.7,1.7-19.4,6.9-27.9c5.5-9,14-13,24.4-13.1
		C323.5,506.3,324.9,506.7,326.1,505.9z"/>
	<path class="st2" d="M499.1,643.6c-1.4,0-2.8-0.1-4-1c-6.6-3.5-9.8-9.8-12.9-16.1c-5.5-11.6-7.9-24-9-36.7
		c-0.7-8.2-1.5-16.5,0-24.7c0.4-2.1,0-4.3,2.1-5.6c2.7,0.2,2.3,2.4,2.4,4c1.4,21,6.8,41,14.3,60.5c1.7,4.4,8.3,7.1,12.6,5.3
		c2.3-1,1.4-2.7,0.9-4.1c-1.9-5-4-10-5.7-15.1c-6-17.7-11.9-35.5-15.3-53.9c-0.5-2.4-0.8-4.8,0.1-7.2c3.3-4.8,8.2-5.3,13.4-5.1
		c1,0.1,2,0.1,3,0.2c1.3,1.9,1.9,4,2.3,6.3c3.9,22.5,9.3,44.5,17.1,66c1.7,4.6,4.2,8.8,6.2,13.2c2.6,5.8,1.2,9.8-4.7,12
		C514.6,644.3,506.9,645.2,499.1,643.6z"/>
	<path class="st1" d="M599.7,486.5c0,10,2.9,18.7,11.5,24.7c0.9,0.6,2.4,1.6,1.7,2.6c-1.1,1.8-3.3,2.4-5.4,2.8
		c-2.5,0.4-3.4-1.5-4.4-3.1c-2.3-3.3-4-7-5.3-10.8c-0.4-1.4-0.8-2.8-1.8-3.9c-1.3-1.3-3-2.3-4.8-1.4c-1.6,0.8-0.9,2.6-0.6,4
		c1.1,5.2,2.3,10.4,5.8,14.7c0.8,1,1.8,1.9,1.2,3.4c-3.4,1.6-7,2.5-10.7,2.9c-5.3-3.6-7.4-9.2-8.8-15.1c-0.7-3-1.1-6.1-1.4-9.1
		c-0.3-2.4-1.6-3.8-4-4.3c-2.7-0.6-4.1,0.4-3.8,3.2c1,7.8,2.5,15.4,7.6,21.7c1.2,1.6,3.1,3,2.6,5.5c-3.3-0.1-6.4,1.6-9.7,1
		c-5.9-3.5-8.4-9.3-10.4-15.3c-1.4-4-2.1-8.2-3-12.3c-0.9-4.5-2.6-6-6-5.1c-4.2,1.1-2.6,4.3-2.1,6.8c1.5,7.6,5,14.4,9.5,20.6
		c1.4,1.9,3.6,3.4,3.2,6.3c-3.9,0.2-7.8,0-11.7-1c-9.1-7.7-16.9-16.2-16.7-29.2c0-1.9,0.2-3.6-2.5-3.7c-2.6,0-4,1.2-3.8,3.8
		c0.5,6.5,2.8,12.2,6.7,17.5c2,2.7,5.5,4.7,5.6,8.7c-12.2-4.1-18.1-13.3-20.5-25.3c-0.8-4-1.3-8-0.9-12c1.3-1.1,2.8-1.3,4.4-1.3
		c17.7-0.4,35.4-1.6,53.1-1.1c6.7,0.2,13.2,1.7,19.9,1.2C596.2,484.1,598.4,484.3,599.7,486.5z"/>
	<path class="st2" d="M425.8,496.2c0.8-0.4,0.8-0.8,0-1.2c-5.3-1.9-9.5-5.6-13.4-9.4c-4.1-4-6.2-9-4.3-15c0.1-1,0.4-2.2,1.3-2.5
		c7.3-2.1,14.5-5.5,22.2-1.4c3.1,1.6,6.6,1.8,9.2-0.3c7.2-5.8,15.9-4.4,24-5.4c4.7-0.6,9.5-0.8,14,2.3c2.3,1.6,6.1,1.3,8.2-1
		c3.1-3.4,6.2-1.9,9.2-0.7c2.5,1,4.9,2.5,7.2,4c1,0.7,3.2,0.3,2.6,2.6c-0.6,2.2-2.2,2.6-4.2,2.4c-5.6-0.5-11.3-1.5-16.9-0.9
		c-12,1.3-24.1,1.3-36,3.7c-9.2,1.9-14.8,6.6-16.4,15.8c-1.4,7.6,1.2,11.5,8.7,13.4c7.3,1.8,14.7,1.7,22.1,2.9
		c1.6,0.2,3.3,0,4.5,1.4c-2.5,2-4.9,4.2-6.8,6.8c-9.1,11.9-21.6,16.6-36.2,16.9c-3.9,0.1-6.4-1.8-7.3-5.7
		c-1.4-6.4-2.9-12.7-0.6-19.2C418.4,501.1,420.9,497.5,425.8,496.2z"/>
	<path class="st3" d="M735.3,467c-2.5,2.9-6.8,4.3-7.9,8.5c4.8-0.7,8.3-3.9,12.2-6.3c8.4-5.2,16.9-10.4,25.3-15.6c1-0.6,2-1.1,3-1.6
		c1.1-0.5,2.4-1.7,3.5-0.4c1,1.1,0.3,2.5-0.3,3.7c-1.8,3.7-3,7.6-5,11.1c-1.5,2.5-0.7,3.4,2,3.6c7.4,0.5,14.9,1,22.3,2
		c1.9,0.2,5-0.3,5.1,2.3c0,2-2.9,2.2-4.8,2.6c-5.9,1.2-11.7,2.8-17.6,4c-4.5,0.9-4.6,1.5-1.7,5.2c2.4,3.1,5.2,5.9,7.4,9.1
		c0.7,1,1.9,2.2,1.2,3.5c-1,1.6-2.7,0.6-4,0.1c-10.2-3.7-20.4-7.6-30.6-11.4c-5.3-1.9-10.5-4.3-16-5.9c-0.4-0.2-0.9-0.7-1.2-0.7
		c-1.3,0.4-0.5,1.1-0.1,1.6c2.6,3.1,6.1,5,9.1,7.5c-9.3,4-18.8,4.4-28.1,0.7c-5.2-2.1-5.9-7.4-6-12.3c-0.1-5.3,3.1-10.1,7.6-11.5
		C718.9,464.2,727.2,463.9,735.3,467z"/>
	<path class="st2" d="M508.8,430.8c3.2,7.8,5.6,15.8,6.7,24.2c-6.7-0.1-11.6-4.1-13.1-9.7c-3.1-11.6-11.1-16-21.8-17.7
		c-12.8-2-25.7-3.4-38.7-3c-0.7,0-1.3,0-1.9-0.3c-2.4-3.1,1.1-5.9,0.3-8.9c-0.3,2.8-1.7,5.6-0.8,8.5c-4.7,3.8-6,9.7-8.6,14.8
		c-4.9,0.5-10.1,0.5-13.9,5c4.4-1.2,8.2-4,12.8-3.5c1.1,1.9,0.1,3.5-1,4.8c-5.5,6.3-11.7,11.9-18.7,16.5c-0.6,0.4-1.2,0.5-1.8,0.2
		c0.2-5.6,2-10.7,4-15.8c3.4-8.5,6-17.3,11-25.2c5.4-8.6,13.3-11.5,22.7-10.6c12.4,1.3,24.7,3.7,37,6.4c2.6,0.6,4.7,2,7.3,2.3
		c5.5,1.7,11.2,3.2,15.5,7.5C507.1,427.8,508.6,428.8,508.8,430.8z"/>
	<path class="st4" d="M599.7,486.5c-1.7-0.2-3.1-1.5-4.9-1.1c-24.8-4.6-49.6-4.3-74.4,0c-1.3,0-2.5-0.1-3.8-0.1
		c0.4-11.9,5.8-20.7,15.8-26.9c1.6-1,3.5-1.7,5.5-1.3c0.6,2.4-1.6,2.9-2.7,4.1c-3.3,3.4-7.4,6.3-8.6,11.7c4.4,0.4,7-1.5,9.2-4.7
		c3.7-5.4,8-10.3,14.1-13c2.5,0.4,5.3-1.1,7.6,0.9c-1.1,3.3-4,5.4-5.9,8.1c-1.4,2-2.8,3.9-3.6,6.5c4.3,0.5,7.4-0.7,9.7-4.2
		c2.7-4.2,6.3-7.3,10.8-9.4c3-0.7,5.7,0.8,8.5,1c0.7,2.2-1.1,3.2-2.2,4.4c-2.3,2.4-4.3,5.1-6.1,8.1c1.7,0.1,3.3,0,4.9,0.5
		c3,0.9,5.1-0.3,7.1-2.6c2.7-3.3,5.3-7,10.1-7.6c2.8,0.3,5.5,0.6,8,2.1c0.2,2.7-2.4,3.2-3.7,4.7c-1.2,1.5-2.9,2.5-3.5,4.8
		c3.6,1.7,6.6,2.2,9.2-1.7c1.5-2.2,3.8-4,6.6-4.7c1.7,0.1,4.9,0,2.5,2.4C604.8,473.5,601.8,479.7,599.7,486.5z"/>
	<path class="st3" d="M499.1,643.6c7.6,0.4,15-0.7,22.1-3c5.7-1.8,6.9-5,4.2-10.4c-9.6-19.4-15.2-40-19.7-61.1
		c-1.8-8.3-3.4-16.7-4.7-25.1c7.8,3.2,10,10.4,11.4,17.4c4.7,21.9,12.9,42.5,21.7,62.9c1,2.4,2.2,4.9,2.8,7.4
		c1.1,4.1-3,9.1-9.4,10.7c-9.2,2.3-18.6,4.2-28.1,1.9C499.3,644.3,499.2,643.8,499.1,643.6z"/>
	<path class="st1" d="M497.9,508.8c-1.5,7.5-1.3,15.1-0.2,22.5c0.9,6.4,0,7.5-6.4,6.3c-7.4-1.4-14.8-0.6-22.1,0.8
		c-1.9,0.4-3.1,0.7-3.6-1.6c-1.2-6-2.3-12.1-1.6-18.2c0.4-3.1,2.8-5.3,5.2-6.8c8.9-5.7,18.5-7.7,28.8-4
		C498.4,508.3,498.3,508.6,497.9,508.8z"/>
	<path class="st1" d="M475.6,559.6c-1.4,6.5-2.5,13.1-1.9,19.7c0.9,10.1,1.4,20.3,3.9,30.2c3.2,12.4,8.2,23.9,17.4,33.1
		c-10.8-2-17.6-8.3-20.7-18.7c-4.3-14.4-7.7-29-8.7-44.1c-0.5-6.9-1.2-13.8-1.9-20.7c-0.5-4.4,1-8.7,1-13c0-3,2.6-3.6,4.4-3.6
		c9.6-0.3,19.4-1.8,28.8,1.4c-4.4,1.3-9.1,1.7-12.7,5c-1,0.1-1.9-0.2-2.9-0.4c-4.7-0.6-5.4,0-5.6,4.7
		C476.8,555.4,477.3,557.7,475.6,559.6z"/>
	<path class="st5" d="M697.1,476.5c0.1,3.1,0.1,6.2,1.6,8.9c2,3.3-0.3,3.6-2.6,3.9c-4.9,0.8-9.5-1.3-14.2-2.2
		c-9.3-1.8-17.7,0-26,3.9c-5.9,2.7-11.7,5.5-18.3,6.7c-4.4,0.8-8.4,0.7-11.5-2.8c-3.2-3.5-3.7-7.2-1.6-11.8
		c2.1-4.6,5.3-6.5,10.1-6.5c6.7-1.3,13.3-0.8,19.6,1.9c2.7,1.5-0.4,4,1.1,5.7c-0.1-2.2,0.5-4.1,2.9-4.7c3.5-0.8,6.6,1.2,10,1
		c7.8-0.3,15.2-2,22.7-3.9C693.1,476.1,695.1,475,697.1,476.5z"/>
	<path class="st6" d="M408.2,530.3c4.7,5.2,10.7,6.9,17.4,6.8c2.5,0,3.3,0.7,2.1,3.1c-0.9,1.7-1.7,3.5-2.2,5.4
		c-1.3,5.1-2.2,10.1-8.1,12.4c-3.4,1.3-3.7,5-3.3,8.4c0,6.3-1.8,7.7-7,5.2c-5.6-2.7-10.2-0.6-11.5,5.5c-0.5,2.2-0.7,4.5-1.6,6.6
		c-2.2,5.5-6.2,6.2-9.9,1.6c-1.6-2-3.3-4.1-2.8-7c2.9-2.4,5-5.3,7-8.5c3.4-5.2,7.3-9.9,11.7-14.3c6.6-6.5,6.8-8.1,3.3-16.7
		c-0.4-0.9-0.7-1.8-0.7-2.8C403.7,533.4,404.4,530.3,408.2,530.3z"/>
	<path class="st7" d="M495,444.2c-8.6-2.4-19.2,0.4-22.3,10c-0.8,2.3-6,2.8-8.4,0.8c-4.5-4-9-8-14.1-11.3c-4.1-2.6-4.8-8.5-2-11.6
		c2.5-2.8,5.9-1.8,8.7-1.3c7.2,1.2,14.6,0.8,21.6,2.8c3.2,0.9,6.5,1.2,9.5,2.4C491.7,437.2,494.9,439.2,495,444.2z"/>
	<path class="st1" d="M458.2,496.1c-4.3-0.2-10.5,0.6-16.6-0.9c-4.1-1-5.7-3.2-4.8-7.3c1.2-5.5,4.7-8.6,9.9-10.3
		c5.1-1.7,10.5-2.4,15.7-2.6c12.7-0.6,25.4-2.7,38.2-0.4c2.6,0.5,2.7,1.2,2.3,3.3c-0.9,4.6-2.4,9.1-1.7,13.8
		c0.3,2.1-1.2,1.5-2.1,1.6C486.1,495,473.1,496.3,458.2,496.1z"/>
	<path class="st1" d="M425.8,496.2c-9.4,8.5-11.5,18.1-6.8,30.1c0.8,2,2.3,3,4.5,3c11.8-0.2,22.7-2.7,31.6-11.3
		c1.7-1.7,3.8-2.9,5.8-4.4c-1.6,5-3,9.9-1.3,15.2c0.7,2.2-1,2.4-2.6,2.4c-12.8-0.2-25.5,2.3-38.3,0.1c-4.2-0.7-6.8-2.6-6.6-6.8
		c0.2-4.8-1.7-8-5.8-10.4c-2.9-1.7-4.6-4.6-5-8c-0.6-4.8,2.3-8.2,8-8.9C414.8,496.6,420.4,496.5,425.8,496.2z"/>
	<path class="st2" d="M304.6,472.6c-6.6,7.5-6.3,16.4-5.3,25.5c0.1,0.9,0.3,1.9,0.4,2.8c-2,0-3.9,0-5.9,0c-2.6-1.6-2.3-4.1-2-6.5
		c0.7-5.2,1.4-10.3,2.7-15.4c2.6-10.4,8.1-14.9,18.9-15.5c9.5-0.5,18.9,0.4,28.2,1.3c12.1,1.2,24.2,2.3,36.4,0.7
		c0.9-0.1,2-0.2,2.8,0.4c2.2-0.4,4,0.8,6.1,1c1.2,0.1,2.8,0.4,3,1.7c0.1,0.6-1.4,1.4-2.2,2.2c-9.8,4-19.8,5.9-30.4,4
		c-2.8,0.8-5.4-0.2-8-0.8c-12.3-2.8-24.9-3.2-37.5-3.7C309,470,306.9,471.6,304.6,472.6z"/>
	<path class="st5" d="M626.1,475.5c-6.1,5.1-8.4,11.4-5.7,18.1c2.8,6.8,8.8,8.7,16.8,8.4c-3.6,2.2-5.5,4.9-8.5,6.5
		c-8.9,4.8-15,1.5-19.6-6.3c-6.2-10.4-4.1-20.3,3.2-29.5C618,470.3,623.2,471.4,626.1,475.5z"/>
	<path class="st5" d="M380.9,465.8c-8.1,1.3-16.3,2.8-24.6,1.9c-13.8-1.5-27.6-3-41.5-2.9c-3,0-5.9,0.4-8.6,1.4
		c-4.9,1.8-8.3,4.8-9.6,10.5c-1.4,6-2.2,12-3.5,18c-0.4,2-0.4,4.2,0.8,6.2c-7.3,0.3-7.7,0.2-6.6-6.4c1-6.2,1.8-12.5,3.6-18.7
		c3.4-11.5,10.6-15.1,20.9-15.6c15.7-0.7,31.5,0.4,47.1,2.6c6.6,1,13.4,1.4,20,2C379.7,464.9,380.5,464.8,380.9,465.8z"/>
	<path class="st1" d="M408.3,461.8c6.5-4.7,12.6-9.8,18.1-15.6c1.6-1.6,3.1-3.3,3.3-5.7c0-0.9,0.7-1.4,1-2.2
		c2.3-5.3,3.3-11.3,8.9-14.6l-0.1,0.1c17.5-1.5,34.6,0.4,51.4,5.3c4.9,1.4,8.8,4.9,10.2,10.2c2.1,7.8,6.9,13,14.5,15.6
		c0.9,4.5-3.2,5.7-5.5,7.8c-2,1.8-3.4-1.4-5.2-2.1c-5-1.8-6.4-4.8-5-9.9c0.7-2.4,0.2-5.2-0.2-7.7c-1-7-5.7-10.5-12.1-12.4
		c-6.8-2-13.9-3.2-20.9-3.8c-7.2-0.7-14.5-0.9-21.8-1c-8.2-0.1-14.1,7.6-11.7,15.4c0.9,3,0.6,4.6-2.1,6.3c-3.1,1.9-4.8,5.2-5,8.6
		c-0.3,3.8-2.5,4.8-5.3,4.8C416.5,460.8,412.6,463.6,408.3,461.8z"/>
	<path class="st8" d="M381.9,578.1c0.4,2.8,1.8,5.2,3.7,7.2c3,3.2,5.5,2.7,7.1-1.4c0.9-2.2,1.3-4.7,1.9-7c1.9-7.5,6.6-9.9,13.1-6.2
		c5.5,3,5.3-1.4,6.4-4.3c1.8,1.6,0.8,3.7,0.9,5.5c0.1,2-0.6,4-2.5,5c-2.1,1.1-3.1-1.1-4.4-2.2c-2-1.8-3.4-4.5-7-2.8
		c-3.3,1.6-4.8,4.2-4.7,7.8c0,0.5-0.1,1,0,1.5c1.6,4.9,0.5,8.5-4.8,10.2c-3.3,1.1-9-1.2-11.7-5c-0.7-1-1.4-2.2-2.1-3.2
		c-2.7-3.6-5.3-7.3-7.4-11.3c-3.3-6.4-3.3-12.3,1.2-18.2c5.5-7.3,12.5-13,19.7-18.6c5.9-4.6,10.3-10.1,12.1-17.5
		c4.1,3.3,3.2,8.5,4.8,12.8c-2.6,1.2-3.3,3.9-4.9,5.9c-8.5,0.8-14.8,5.2-19.8,11.8c-2.3,3.1-5.2,5.8-7.5,9
		c-3.2,4.7-3.1,7.1-0.1,12.1C377.8,572.1,381.5,574,381.9,578.1z"/>
	<path class="st1" d="M396.5,472.6c3.7,0.2,6.1,1.4,5.9,5.9c-0.1,4-0.6,8.1,0.7,12.1c0.6,1.6,0.2,3.2-1.7,4c-2.9,1.2-4.3,3.2-4,6.4
		c0.3,2.9-1.4,3.4-3.7,2.5c-2.6-1-4.8-2.4-6-5.2c-2.8-7-2.7-13.9,0.9-20.6C390.3,474.6,392.8,472.7,396.5,472.6z"/>
	<path class="st1" d="M467.8,506.8c-9.3-0.3-18.7-1-27.8-3.1c-7.1-1.6-12.3-7.7-7.5-14.6c0,5.3,2.7,8.6,7.7,9.8
		c7.6,1.8,15.2,2.8,23,1.3c5.4-1,10.9-0.4,16.4-1.1c6.5-0.9,13.2-1,19.7-2.1c1.8-0.3,3.6-0.2,4.4,2c1.5,4.6,3.8,8.6,7.6,11.7
		c1.1,1,1.5,2,0.3,3.3c-1.3,1.4-1.7,0.3-2.5-0.6c-11.4-13.1-24.1-15.5-39.6-7.7C468.9,506.2,468.3,506.5,467.8,506.8z"/>
	<path class="st2" d="M326.1,505.9c-1.8,1.8-4.3,1.2-6.4,1.5c-14.6,2.1-22.6,10.7-25.2,24.8c-1.1,5.8-2.9,11.6-2.4,17.7
		c-3.2,3-4.5,1.4-4.9-2.1c-0.1-1.3,0-2.5,0-3.8c-0.6-10.6,0.8-20.9,4.7-30.8c2.5-6.1,8.2-6.6,13.7-7.2
		C312.4,506,319.2,506,326.1,505.9z"/>
	<path class="st9" d="M560.5,526.3c-6.6-8.3-12.3-17-14.3-27.7c-1.3-6.6,1.5-9.3,8.1-7.4c1.7,0.5,2.1,1.7,2.4,3.2
		c0.6,3.5,1.4,6.9,2.1,10.4c1.5,7.9,5.5,14.4,10.6,20.4C566.4,525.7,563.6,526.9,560.5,526.3z"/>
	<path class="st5" d="M657.1,451.3c-2.7,5.1-3.1,10.9-4.7,16.3c-0.5,1.7-0.8,3.5-2.8,3c-2.3-0.6-0.6-2.2-0.4-3.5
		c1.1-5.8,2.1-11.6,3.1-17.4c0.4-2.1-0.8-3.9-1.3-5.9c-7.4,4.4-13.1,10.7-19,16.6c-3.2,3.2-3.2,3.2-7.6,1.3
		c8-9.6,16.4-18.6,26.1-26.5c0.8-0.7,2-0.9,3-1.4C658.4,437.9,660,445.6,657.1,451.3z"/>
	<path class="st3" d="M508.8,430.8c-5-5.7-11.9-8.6-18.5-11.8c14.3,1.3,25.4,7.8,32.1,20.8c2.2,4.3,4.5,8.6,6.8,12.9
		c0.8,1.5,0.8,2.5-1.2,3.5c-5.8,2.7-9.6,0.5-10.5-5.7C516.4,443.3,513.7,436.5,508.8,430.8z"/>
	<path class="st9" d="M579.1,524.4c-7.1-7.5-10.4-16.6-11.5-26.7c-0.2-1.8-1.5-4.8,1.5-5.3c3-0.5,6.4-0.5,8.3,3.1
		c1.2,2.3,0.8,4.8,1,7.2c0.7,7.6,4.3,13.8,8.5,19.8C584.6,524.1,581.4,522.8,579.1,524.4z"/>
	<path class="st9" d="M538.1,522.5c-3-3.8-6-7.6-8.9-11.5c-3.3-4.5-4.1-9.8-4.8-15.1c-0.7-5.1,2.8-4.7,6.2-4.8
		c4.3-0.2,3,2.2,2.7,4.7c-1,8.4,3.6,14.8,8.4,21c2.3,2.9,4.7,5.7,7.1,8.6C545.1,525.2,541.4,524.5,538.1,522.5z"/>
	<path class="st1" d="M518.1,510.4c-7.2-2.6-13.2-15.3-12.2-26.2c1-11.1,6.5-21.5,16.1-23.1C510.3,476.7,510.1,493,518.1,510.4z"/>
	<path class="st1" d="M438.6,567.4c-5.7,0.2-11.2-1.1-16.7-2.1c-1.2-0.2-2.7-0.7-2.7-2.3c0-1.6,1.2-2,2.5-2.5
		c3.8-1.5,7.8-1.4,11.5-0.6c8.9,1.8,17,1.1,23.8-5.5c0.7-0.6,1.4-1.7,2.4-1c0.8,0.6,0.5,1.8,0.3,2.7c-1,6.1-7.9,10.8-16.3,11.3
		C441.8,567.5,440.2,567.4,438.6,567.4z"/>
	<path class="st3" d="M657.1,451.3c0.8-6.3-0.4-12.1-3.7-17.6c6.6-3.3,9.9,0.1,10.4,8.3c0.5,7.9-1.6,15.7-3.1,23.5
		c-0.2,1.2-0.2,2.6-0.6,3.7c-0.5,1.3,0.1,3.7-2.8,3c-2.4-0.6-3.3-1.5-2.7-4.2C655.7,462.5,657,457,657.1,451.3z"/>
	<path class="st9" d="M597.6,519.5c-4.7-4.8-7-10.7-8.1-17.1c-0.4-2.4-2-5.3,0.8-6.9c2.2-1.3,7.1,1.9,8.1,5.1
		c1.4,4.7,3.3,9.1,6.1,13.1c0.8,1.2,1.7,2.4,3,3C604.5,518.6,601,519,597.6,519.5z"/>
	<path class="st7" d="M459.5,544.7c-1.4,5.4-11.1,11.1-17.4,10.6c1.7-4.6,3.4-9.1,5.1-13.5c0.3-0.9,0.8-1.7,1.3-2.5
		c2.1-2.9,6.9-4.1,9.8-2.2C461.5,539,460.2,542.3,459.5,544.7z"/>
	<path class="st5" d="M497.9,508.8c0.1-0.3,0.2-0.6,0.2-0.9c5.4,1.7,7.8,6.1,8.6,11.1c1.1,6.6,1.4,13.4,2.1,20.1
		c0.2,1.7,0.6,3.4,0.9,5.2c-7.8-3.4-7.9-3.4-7.7-11.3C502.2,524.5,499.6,516.8,497.9,508.8z"/>
	<path class="st10" d="M403.4,517.5c-0.5,10.6-8.2,16-15.7,21.5c-5.9,4.4-10.8,9.6-15.2,15.4c-4.1,5.4-4,10.7-1.2,16.3
		c2.1,4.2,4.4,8.2,6.6,12.3c-6.1-5.2-10-12-12.5-19.4c-1.3-3.8,0.7-7.4,3.4-10c7.6-7.2,15.4-14.2,23.4-20.8c4.8-4,9.2-8.6,10.1-15.3
		c0-0.1,0.2-0.3,0.3-0.3C403,517.2,403.2,517.4,403.4,517.5z"/>
	<path class="st3" d="M655.4,479.6c-6.8-1.3-13.5-3.7-20.6-3c7.9-3.1,15.8-2.2,23.4,0.6c10.2,3.8,19.7,2.6,29.1-2.4
		c3.5-1.9,7.1-4.2,12-3.9c-1.7,1.8-0.2,4.2-2.2,5.7c-9.4,2.6-18.9,4.9-28.7,4.9c-3.7,0-7.3-0.6-11-1
		C657,479.4,656.3,479.1,655.4,479.6z"/>
	<path class="st9" d="M590.8,460.8c-3.9,2.8-7.9,5.6-10.3,9.9c-1.2,2.2-3.5,2.5-5.5,1.9c-2.6-0.8-5.3-0.8-8-1
		c2.1-5.7,6.8-9.1,10.1-13.5C581.6,458.9,586.4,459.1,590.8,460.8z"/>
	<path class="st5" d="M305.5,506c-1.2,1.6-3,0.6-4.5,1.2c-5.3,1.9-8.5,5.3-9.8,10.8c-2,8.6-3.2,17.3-4.2,26c-1.5-0.6-0.9-1.9-1-2.9
		c0-10,0-20-0.1-30c0-3.8,1.4-5.5,5.4-5.2C296.2,506.1,300.9,505.9,305.5,506z"/>
	<path class="st9" d="M549.9,455.1c-5.7,4.9-11.2,10-15.3,16.5c-1.6,2.6-5.8,3.2-10,2.4c1.8-7.7,8.1-11.9,13.3-16.9
		C541.9,456.3,545.8,454.9,549.9,455.1z"/>
	<path class="st9" d="M568.5,457.1c-4.3,4.4-9.1,8.3-12.6,13.5c-1.6,2.3-5.9,1.8-8.9,1.8c-1.9,0-0.4-1.7,0-2.5
		c2.4-5.5,6-10.1,10.6-13.9C561.2,456.1,564.9,455.7,568.5,457.1z"/>
	<path class="st1" d="M408.1,470.7c-0.8,10,5.8,15.4,12.8,20.6c1.7,1.2,3.7,1.9,4.9,3.8c-5.7,0-11.2-3-17.1-1.3
		c-1.4,0.4-2.4-0.6-2.4-1.8C406.8,484.9,404.5,477.5,408.1,470.7z"/>
	<path class="st2" d="M445.3,456.2c-0.1,4.6-4.5,8.7-9.4,8.6c-3.8-0.1-7.3-3.6-7.2-7.1c0.2-4.9,4.7-10.3,8.6-10.4
		C441.2,447.2,445.4,451.9,445.3,456.2z"/>
	<path class="st9" d="M607.5,465.9c-2.4,3.1-6.4,4.8-8.2,8.5c-0.9,1.9-2.5,0.5-3.8,0.2c-2-0.5-4-0.9-6-1.3c1.6-4.8,6-7.2,9.4-10.5
		C601.9,463.3,604.9,464,607.5,465.9z"/>
	<path class="st3" d="M626.1,475.5c-4.1-3.2-9-2.8-13.8-2.8c5.6-6.3,13.7-8.4,22.6-1.2C631.9,472.9,628.5,473.2,626.1,475.5z"/>
	<path class="st2" d="M488.3,452.4c0,4.9-3,8.6-7.1,8.3c-3-0.2-5.6-1.6-5.6-5.4c-0.1-4.6,3.2-8,7.8-8.1
		C487.5,447.2,487.9,450.1,488.3,452.4z"/>
	<path class="st1" d="M446.1,536.4c-2.8,5.3-6,9.6-7,15c-0.2,1-0.8,2.4-2.2,2.1c-1.6-0.3-1.4-1.8-1.2-2.8c1.1-4,2.1-8.1,3.7-12
		C440.3,536,442.9,535.9,446.1,536.4z"/>
	<path class="st1" d="M443,446c7.5,1.6,10.7,7,16,10.4c-2.2,0.6-3.7,1.3-5.2,1.5c-2.9,0.4-5.7,0.8-5.9-3.8
		C447.8,451.4,445.8,449.1,443,446z"/>
	<path class="st5" d="M444.8,429.5c-2,4.2-3.2,7.4-1.8,11.3c0.8,2.3-2.1,2-3.4,2.7c-2.2,1.2-2.4-0.7-2.8-1.8
		C435.3,437.3,438.6,431.9,444.8,429.5z"/>
	<path class="st5" d="M647.3,451.1c-1.2,7-10.2,15.1-14.6,13.1C637.5,459.9,642.2,455.8,647.3,451.1z"/>
	<path class="st1" d="M489.8,447.7c5.8,0,7.7,2.6,5.5,6.9c-0.4,0.8-0.8,1.9-2,1.8c-1.2-0.2-2.2-0.9-2.1-2.2
		C491.5,451.9,490.3,449.9,489.8,447.7z"/>
	<path class="st7" d="M642.9,469.6c-0.8,0.4-2.2,0.4-2.5-0.7c-0.6-2.7,2.6-2.9,3.6-4.7C644.5,466.2,645.3,468.5,642.9,469.6z"/>
	<path class="st11" d="M729.5,481.6c5.7-0.1,10.7,2.7,15.9,4.5c11.5,4.1,22.8,8.5,35.4,13.2c-4.5-5.4-8.3-9.8-12-14.3
		c-1.8-2.2-3.4-3.9,1.5-4.8c8.4-1.5,16.6-3.8,24.9-6.6c-10.6-1-21.3-2.1-32.2-3.1c2.9-6.4,5.7-12.5,9-19.9
		c-13,8-25.1,15.4-37.1,22.9c-2.3,1.5-4.7,2.5-7.5,2.8c-0.1,0-0.3-0.2-0.3-0.3c0.1-0.2,0.3-0.5,0.4-0.7
		c13.1-9.7,25.3-20.5,37.7-31.1c10.5-9,21.2-17.9,32.6-26.5c-4.6,13.4-9.2,26.8-14.3,41.7c13.9-6,26.4-11.5,40.3-17.5
		c-6,7.2-10.8,13.3-16.1,19.2c-2.3,2.6-0.9,3.3,1.3,3.6c9.6,1.1,19.2,2,28.8,3c5.3,0.6,10.5,1.4,15.9,2.8c-7.5,1.7-14.9,3.4-22.4,5
		c-6.5,1.4-12.9,2.6-19.4,4c-0.7,0.2-1.8-0.1-1.9,1c-0.1,0.9,0.6,1.4,1.3,1.8c4.3,2.9,8.5,5.9,12.8,8.8c6.7,4.6,13.5,9.2,19.9,14.6
		c-18.5-4.4-36.9-8.7-56.4-13.3c7.4,11.9,14.3,22.9,21.1,33.9c-0.3,0.3-0.6,0.6-0.9,1C781.6,512.3,756.3,495.7,729.5,481.6z"/>
	<path class="st9" d="M326.9,483.4c13.5,1.2,28,2.6,42.4,3.8c2.7,0.2,3.8,1.4,3.7,4c-0.1,2.7,1.1,5,2.2,7.4c0.8,1.8,0,2.7-1.7,2.3
		c-16.4-4.1-33.4-5.5-49.2-12.1c-1.7-0.7-4.4-0.8-4.5-3.6C319.8,484,322.5,483.4,326.9,483.4z"/>
	<path d="M304.6,472.6c0.8-3.1,2.7-4,6-3.9c15.8,0.4,31.5,1.2,46.7,6c-2.2,1.7-4.8,1.2-7,0.7c-7.8-1.8-15.8-0.2-23.7-1.6
		c-5.9-1-11.9,0.4-17.8,1.6C306.5,475.8,304.5,475.8,304.6,472.6z"/>
	<path class="st9" d="M475.6,559.6c0-2.3-0.2-4.6,0-6.8c0.2-1.9-1.2-4.9,1.4-5.5c2.7-0.6,6.2-1.8,8.4,1.6c-0.2,11,3.7,21.2,6.5,31.6
		c4.3,15.7,9.3,31.2,15.8,46.2c1.3,3.1,0.5,4.2-2.7,4.2c-1.6,0-3.2,0-4.9,0c-4.9-0.1-8-1.9-9.8-7.2c-5.4-15.1-9.8-30.3-12.5-46.1
		c-0.7-4.3-0.9-8.6-1.3-13C476.4,562.9,477.3,561,475.6,559.6z"/>
	<path d="M520.4,485.3c4.6-2.9,10-2.8,15-3.4c19.2-2.5,38.4-2,57.3,2.4c0.8,0.2,1.6,0.1,2,1C570,483.6,545.2,484.6,520.4,485.3z"/>
	<path d="M419.9,518.6c-2-7.2-0.2-10.2,6.7-9.7c5.6,0.5,11.3,1.1,16.9,0.8c3.1-0.1,2.7,2,2.9,3.9c1.3,3.9-0.6,5.7-4.3,6.4
		c-5.3,1.1-10.7,0.9-16,1.6C423.5,522,421.4,520.8,419.9,518.6z"/>
	<path class="st1" d="M419.9,518.6c6.9,3.8,13.9,0.3,20.8,0.2c3.6-0.1,6.2-0.7,5.7-5.1c1.4,4.5,0.2,7.5-4,9.3
		c-6.3,2.6-12.6,2-18.9-0.2C421.6,522,420.1,520.8,419.9,518.6z"/>
	<path d="M732,488.9c-8.2,0.7-12.6-3.1-13.3-10.8c-0.5-5.3,5.3-10.5,13.3-11.1c-4.8,3.1-10.4,5-9.3,11.3
		C723.6,483.1,725.4,487.7,732,488.9z"/>
	<path d="M430.6,438.4c1.3,1.4-0.3,1.6-1,2.2c-4.6,1.8-9.5,2.9-13.9,5.4C415.7,440.2,423.6,436.3,430.6,438.4z"/>
	<path d="M433.6,421.7c-1.1,1.9-2.2,3.7-4.2,3.9c-1.8,0.2-3.4-1.2-3.2-2.8c0.2-1.9,1.9-3.4,3.9-3.7
		C431.9,418.8,432.6,420.6,433.6,421.7z"/>
	<path d="M439.5,423.8c-1.9-2.9-0.9-6.1-0.6-9.2c0.1-0.8,0.5-2.5,2.1-2c1.2,0.4,1.7,1.6,1.4,2.7C441.4,418.2,440.4,421,439.5,423.8
		C439.4,423.8,439.5,423.8,439.5,423.8z"/>
	<path d="M655.4,479.6c1.1-1,2-1.3,2,0.8c-2.2,2.3-0.3,4.3,0.5,6.5C653.1,484.9,652.6,483.3,655.4,479.6z"/>
	<path class="st12" d="M381.9,578.1c-2.3-2.7-4.7-5.3-6.8-8.2c-2.4-3.4-4.5-7.1-1.6-11.1c5.2-7.4,10.3-15,18.1-19.9
		c3.4-2.1,7.1-5,11.7-2.6c5.7,11.5,5.5,12.5-3.7,21.8c-4.8,4.9-9.4,10.2-12.5,16.5C386,576.7,384.3,577.8,381.9,578.1z"/>
	<path class="st2" d="M481.4,477.6c4.4,0,8.8-0.2,13.1,0.1c2,0.1,5.4-0.1,5.1,2.9c-0.3,2.5,1.8,6.8-4,7.3c-4.9,0.5-10,1-14.9,1.2
		c-9.7,0.5-19.3,1.9-29,1.3c-3.4-0.2-8,0-8.6-3.6c-0.6-3.5,3.9-4.8,6.8-5.8C460.1,477.4,470.7,477.5,481.4,477.6z"/>
	<path d="M432.3,460.7c-2.2-0.1-1.8-1.6-1.5-2.4c0.7-2.1,3.1-3.6,2.1-6.4c-0.2-0.6,1.2-1.9,2.1-1.2c1.6,1.3,3,1.4,4.8,0.7
		c0.8-0.3,1.6,0.3,2,1.1c0.8,1.3-0.4,1.7-1.2,2.1c-2.4,1.1-2.8,2.5-0.9,4.4c0.9,0.9,0.5,1.8-0.3,2.5c-0.6,0.5-1.4,0.6-1.7,0
		C436.1,458.5,434.4,457.5,432.3,460.7z"/>
	<path d="M486.1,451.8c-2.3,1.5-3.1,3.6-2.6,6.3c0.1,0.6-1.2,0.8-2,0.3c-0.9-0.7-1.2-2.5-3.2-1.1c-1,0.7-1.9-0.8-1.2-2.1
		c0.7-1.1,1.4-2,1.5-3.4c0.2-2.1,1.1-3.2,2.8-0.8c1,1.4,1.5-0.1,2.2-0.4C484.9,450,485.4,450.7,486.1,451.8z"/>
	<path class="st1" d="M429.8,516.6c-1,0-1.3,0.1-1.6,0c-1.8-0.5-5,1.4-5-1.9c0-3.4,3.2-1.8,5-1.9c4.2-0.2,8.4-0.1,12.7,0
		c1,0,2.1,0,2.3,1.2c0.2,1.7-1.3,1.5-2.4,1.6C436.8,516,433,516.3,429.8,516.6z"/>
</g>
</svg>
