<?xml version="1.0" encoding="utf-8"?>
<!-- Generator: Adobe Illustrator 23.0.1, SVG Export Plug-In . SVG Version: 6.00 Build 0)  -->
<svg version="1.1" id="Layer_4" xmlns="http://www.w3.org/2000/svg" xmlns:xlink="http://www.w3.org/1999/xlink" x="0px" y="0px"
	 viewBox="0 0 1000 1000" style="enable-background:new 0 0 1000 1000;" xml:space="preserve">
<style type="text/css">
	.st0{fill:#FE9E00;}
	.st1{fill:#9A4C14;}
	.st2{fill:#5B4B43;}
	.st3{fill:#4C2502;}
	.st4{fill:#AD9F66;}
	.st5{fill:#252618;}
	.st6{fill:#74463C;}
	.st7{fill:#231916;}
	.st8{fill:#905020;}
	.st9{fill:#F7A320;}
	.st10{fill:#302825;}
	.st11{fill:#DAA442;}
	.st12{fill:none;}
	.st13{fill:#FEFE00;}
	.st14{fill:#FEFEFE;}
	.st15{fill:#A08368;}
	.st16{fill:#432E2B;}
</style>
<g>
	<path d="M603,400.1c-3.5-0.3-7.1-1.3-10.7-1.8c-12.8-1.9-24.8-1-34.4,9.1c-1.1,1.2-1.9,1.5-3.9,1.2c-10.7-1.7-21.5-3.1-32.4-3.2
		c-16.8-0.3-33.4,1.1-50.1,2.8c-9.2,0.9-16.6,3.8-20.7,12.6c-1.6,3.4-4.6,4.3-7.8,5.1c-10.9,3-18.5,10-21.9,20.4
		c-2.3,7.1-3.4,14.6-6.5,21.5c-1.1,2.6-1.1,5.5-1.7,8.3c-1,4.8-0.2,9.7-6,13.6c-18.9,13-29.1,31.4-29.1,54.9c0,11,0.5,21.9,2.1,32.7
		c2,13.6,6.3,19.1,19.1,23c8.2,2.5,17,2.7,25.5,3.2c8.7,0.5,17.5,0.4,26.1-1c7.6-1.2,15.2-2.4,22.1-6.3
		c10.1-5.7,13.3-11.8,11.6-23.3c-0.4-2.6,0.3-3.7,3.3-3.7c3,0,5.7,1,8.5,1.1c10.6,0.2,21.1-0.1,31.4-2.9c15.7-4.4,26.5-15.8,27-30.8
		c0.3-10.1,6.8-17.4,17.3-17.1c4.8,0.1,9.5,1.6,14.4,1c7-0.8,13.1-3,17.3-9.1c6.8-9.9,7.8-20,1.1-30.2c2.9-1.9,5.7-3.8,8.6-5.8
		c-2.5-4.4-6.8-4.9-11.2-5.3c-0.1,0-0.3,0.1-0.4,0.1c-0.2,0.1-0.3,0.1-0.5,0.2c-4.9,1.8-10.1,2-15.3,1.8h0c-0.6,0-1.2,0-1.7-0.1
		c-6.2-0.3-12.3-0.9-18.6-1c-7.9-0.1-15.8-1.1-23.7-1.8c-14.6-1.2-24.2-18.6-15.1-31.2c0.2-0.3,0.4-0.5,0.6-0.7
		c0.4-0.5,0.8-0.9,1.3-1.3c4.8-4.5,11.2-5.8,17.5-6.9c12.6-2.2,25.4-2.5,38.1-3.2c5.9-0.3,11.6,0.4,17,2.4c0.3,0.1,0.6,0.2,1,0.4
		c0.3,0.1,0.7,0.3,1,0.4c4.7-0.5,9.5-0.8,13-4.7C619.6,414.8,614.3,401,603,400.1z M492.4,540.5c2.4-1.7,4.9-1.7,7.5-1.1
		C497.1,544.9,496.6,545,492.4,540.5z"/>
	<path class="st0" d="M613.3,475.4c-3.2-2.4-7-3.4-10.6-4.7c-6.9-1-13-3.6-17.8-8.8c-1.5-1.6-3.2-3.4-2-6c1.3-0.7,2.6-0.1,3.7,0.5
		c5.9,2.9,11.8,5.8,17.7,8.3c-1.1-1.4-2.5-3.1-3.7-4.8c-1.9-2.6-1.1-4.4,1.8-5c9.5-2.2,19-3.9,27.6-5.2c-8.7-0.6-18.3-2.4-28.1-3.5
		c-4.6-0.5-5.3-2.4-2.8-6.2c1.5-2.1,3.4-3.9,5.1-6.2c-5.4,2.4-10.9,4.2-16.2,6.3c-1.3,0.5-2.7,1.2-4.1,0.1c-0.8-3.3,1.3-5.4,3.4-6.9
		c4.9-3.3,10.3-5.2,16.4-5c4.2-1.3,8.4-2.6,12.7-3.9c3.4-0.9,6.9-1.8,11-2.8c-2.7,2.9-5,5.4-7.2,7.9c-1.2,3.3-4.2,5.1-6.3,7.6
		c-0.8,0.9-1.9,1.7-2.8,3c1.7,1,3.6,0.8,5.4,0.8c3,0.5,6.1,0.4,8.8,2c6.3,2.1,12.9,1.8,19.3,2.9c8.6,1.5,17.4,2.1,26.1,3.9
		c-15.1,2.7-30.3,5.4-45.4,8.1c-3.2,2.2-6.9,2.2-10.5,2.9c-0.7,0.5-2.8-0.8-2.1,1.6c1.9,2.7,5.4,4.2,5.6,8c2.9,3,5.7,6.1,9.4,10
		C622,478.9,617.9,476.2,613.3,475.4z"/>
	<path d="M613.1,436.5c2.3-2.3,4.6-4.6,6.8-6.8c1.6,4.6,4.5,8.6,5,13.5c-3.4,0.9-6.5-0.9-9.7-1C612.9,441,612.3,439,613.1,436.5z"/>
	<path d="M618,470.7c-2.2-2.6-4.4-5.1-6.7-7.7c0-1.4,1-2.2,2-2.9c3.9-0.6,7.8-1.3,11.7-1.9C623.2,462.6,621.6,467.2,618,470.7z"/>
	<path class="st1" d="M447.1,526.3c0.7,7.7,1.9,15.3,7.1,21.5c3.9,9.7,8.5,18.8,19.5,22.4c4.3,13.4-2.2,20.7-15.8,18.9
		c-15.1-2-29.6-6.7-44.5-9.4c-0.4-0.1-0.8-0.5-1.2-0.8c-3.5-5.8-2.6-12.3-3.2-18.6c0.3-1.3,1.1-2.3,2.1-3.2
		c7.5-7.4,8.8-18.3,2.3-25.4c-0.5-0.6-0.9-1.4-1.1-2.2c0.9-9,5.7-16,12.1-22c1.1-0.3,2,0.1,2.6,0.9
		C432.7,515.6,439.8,521.1,447.1,526.3z"/>
	<path class="st2" d="M586,473.5c-15.3-1-30.6-0.8-45.8-2.9c-14.6-2-24.3-19.7-14.7-33.2c1.4-0.8,3-1.4,4.6-1.3
		c13.5,0.5,26.9-1.6,40.3-1c6.3,0.3,7.1,1.2,6,7.3c-1.8,10.5,0,20,7.7,27.9C585,471.2,586.1,472,586,473.5z"/>
	<path class="st3" d="M424.9,507.7c-5.1,6.6-10.1,13.2-11.9,21.7c-1.1,0.8-2.1,0.4-3.2,0.1c-6.5-1.5-12,1.2-14.5,7.3
		c-2.1,5.1-1.8,10.2,0,15.2c1.7,4.6,6,7.3,11,7.2c1.3,0,2.6-0.6,3.7,0.4c0.7,6.5,1.4,13,2.2,19.5c-2.9-0.3-5.7-0.6-8.6-0.9
		c-2.8-0.3-5.9,0.3-7.8,2c-4.6,4-5.3,1.1-5.9-2.7c-2.1-14.7-5.1-29.4-2-44.2c1.8-8.7,5.2-16.8,11.2-23.9
		c5.2-6.2,11.1-11.1,17.7-15.6c1.1-0.7,2.6-3.1,3.2,0.4C421.9,498.6,424.6,502.7,424.9,507.7z"/>
	<path class="st2" d="M501,493.3c2.6-1.2,4-3.1,3.8-6c-0.7-16.4,1.5-32.6,1-49c-0.2-6.8-2.6-9.1-9.3-9.6c-7.4-0.5-14.8-1-22.2-0.9
		c-4.5,0.1-8.9,1.4-13.5,1c-3.5-0.3-2.5-1.4-1-3c1.3-1.1,2.9-1.5,4.5-1.5c9.1,0,18.2-1.6,27.3-1c5.2,0.4,10.4-1,15.6-1
		c6.9,0.1,8.2,1.4,8.3,8.3c-2.1,11.6-3.4,23.4-2.8,35.1c0.8,14.6,1.4,29.3,5.2,43.6c0.5,1.8,0.2,3.1-0.5,4.6
		c-0.6,1.3-1.5,1.7-2.6,0.5c-7-7.8-16.8-7.6-25.9-8.4c-10.6-0.9-21.3,0.2-31.9,1.8c-3.7,0.6-6.1,2.9-7.5,6.2c-1,2.3-1.8,2.4-3.8,0.9
		c-4.5-3.2-8.9-6.5-12.1-11c0.9-1.1,2.2-1.3,3.5-1.3c8.4,0,16.8-0.6,25.2,0.4c9.2,1.1,18.1,0.8,26.3-4.2
		C492.5,496.4,496.9,495,501,493.3z"/>
	<path class="st4" d="M586,473.5c-9.9-5.7-13.5-21.8-11-30.8c1.7-6.2,1.6-6-4.9-6.2c-14.9-0.5-29.7,1.9-44.6,0.9
		c5-6.7,12.7-8.4,20-9.5c15-2.2,30.3-3.4,45.5-3c4.4,0.1,8.7,1,12.5,3.7c-3.7,1.1-7.4,2.1-11.1,3.3c-4.2,1.4-7.3,4-8.5,8.4
		c0.4,1.9-0.5,3.6-0.8,5.3c-0.7,2.3-1.1,4.7-0.2,7.1c0.3,1.1,0.7,2.2,0.2,3.3c0.6,4.7,4,7.2,7.7,9.3c3.8,2.1,7.8,3.6,11.8,5.4
		C597.6,474.5,591.7,473.6,586,473.5z"/>
	<path class="st5" d="M501,493.3c-12,8.2-24.4,13.7-39.8,11.2c-9-1.5-18.4-0.4-27.7-0.5c-12.6-13.1-14.6-17.7-8.2-35.6
		c2.3,11.9,10.1,19.1,19.9,24.3c3.6,1.9,7.6,2.5,11.7,2.5C471.7,495.2,486.4,494.3,501,493.3z"/>
	<path class="st6" d="M585.2,511.7c-7.7,0.2-15-7.1-14.7-16.1c0.3-10.2,4.8-16.1,14.3-16.9c7.6-0.7,15,7.1,14.7,16
		C599.1,504.8,594.6,510.4,585.2,511.7z"/>
	<path class="st4" d="M501.9,448.4c0.3,12.3-1.7,24.5-1,36.8c0.2,3.4-1.4,5.3-4.9,5c-3.3-0.3-3.9-2-3.1-5.3c0.9-4.2-1.8-6.9-5.7-8.3
		c-1.5-0.5-3.1-1.1-4.6-1c-2,0.1-2.6-1.4-3-2.5c-0.5-1.5,1-2,2.2-2.6c7.7-4.4,8.8-14.1,2.1-19.9c-1.2-1-1.7-1.3-0.9-2.9
		c0.7-1.4,0.6-3.2,2.8-3.3c1.3,0,2.6,0.1,3.9-0.1c3.6-0.5,6.7-1.7,6.3-6.2c-0.1-1.6,0.5-2.8,1.7-3.8c0.8-0.7,1.5-2.1,2.8-1.4
		c1.1,0.5,1.4,1.6,1.4,2.9C501.9,440,501.9,444.2,501.9,448.4z"/>
	<path class="st2" d="M536,512.6c-3.9,0.7-7.6-1.4-11.5-0.9c-1.9,0.2-2.5-1.5-2.8-2.8c-2-9.6-3.4-19.3-3.9-29.1
		c-0.3-6.8-1.8-13.5-1.1-20.3c0.7-7.7,0.7-15.5,2.1-23.1c2.4-13.1,14.3-22,29.1-19.4c1.8,0.3,3.2,1.6,5.5,0.8
		c-1.2,3.8-4.2,4.3-6.9,5c-4.3,1.2-8.7,1.9-12.9,3.8c-20.4,9.4-18.3,33.6-3.5,44.9c1,0.8,2.2,1.3,2.7,2.7
		c-7.8,2.4-10.5,8.6-11.1,15.9c-0.6,7.2,2.2,12.9,9.2,16c1.2,0.5,2.3,1.2,3.5,1.8C535.4,509.2,536.9,510.4,536,512.6z"/>
	<path class="st5" d="M476.5,472.6c0.5,2.9-0.5,4.2-3.6,4c-5.5-0.3-11,0.5-16.3,1.8c-2.2,0.6-5.2,1.6-5.2,4.5c0,2.9,2.8,4.4,5.2,5.1
		c8.1,2.5,16.5,3,24.9,1.7c3.3-0.5,6.6-1.2,10.7,1.3c-14.8,1.2-28.5,2.7-42.2-0.8c-14.5-3.6-25.3-22-21.3-35.1
		c1.3-4.3,1.6-9,5.8-11.9c1.4,1.5,0.6,3.1,0.2,4.6c-3.5,14.9,4,24.5,19.5,24.8c6.5,0.1,12.9-0.8,19.4-0.5
		C474.6,472.2,475.6,472,476.5,472.6z"/>
	<path class="st4" d="M515.6,430.7c-1.6-2-1-5.8-3.3-6.5c-3.2-0.9-6.9-0.7-10.1-0.1c-2.9,0.6-5.8,0.8-8.7,0.7
		c-11.2-0.6-22.3,1.6-33.5,1c1.1-5.5,5.1-8.1,10.1-8.7c17.9-2,35.8-3.3,53.8-3c1.7,0,3.6-0.7,5.3,1.5
		C522,418.3,519.3,424.8,515.6,430.7z"/>
	<path class="st7" d="M567.3,494c0.3,6,1.8,11.4,6.6,16.1c-2.8,1-5.3,0.9-7.7,0.3c-2.1-0.5-4.1-0.7-6.2-0.7
		c-11.1,0-17.9-8.1-16-19.1c0.3-1.8,0.3-3.9,1.8-5.3c6.3-3.1,12.6-0.6,18.8,0.4c1.5,0.2,1.9,2.1,1.9,3.6
		C566.5,491,566.5,492.5,567.3,494z"/>
	<path class="st2" d="M444.3,464.8c-2.4-1.6-3.5-3.8-2.5-6.6c1-2.8,3.1-4.8,6-5c9.5-0.8,19-1.4,28.4-2c4.7-0.3,6.9,2.7,8.5,6.6
		c1.3,3.3,0.6,5.9-2.3,8c-2,1-4.1,1.2-6.2,1c-8.1-0.8-16.2-0.2-24.3-0.5C449.3,466.2,446.7,466.1,444.3,464.8z"/>
	<path class="st2" d="M514.9,548.6c2.4-5.7,5.6-10.6,5.7-16.7c0-2.2,2.2-1.9,3.4-1.6c6,1.8,12.3,0.1,18.3,1.7
		c2.1,0.6,2.5,1.2,2.7,3.1c0.6,10.8-5.5,16.3-16,14.9C524.5,549.6,520,549.4,514.9,548.6z"/>
	<path class="st2" d="M514.6,525.5c0.1,0.3,0.1,0.6,0.1,0.9c-1.7,2.2-2.5,4.7-3.2,7.5c-2.4,9.3-6.6,17.6-14.3,23.7
		c-21,7.9-47.9-8.3-46-33.2c0.1-1.9,0.7-3.8,1-5.7c1-1.4,1.9-3.1,4.2-1.8c0.8,2.5-0.2,4.8-0.6,7.2c-2.1,10.4,2.9,18.1,10.3,24.3
		c7,5.9,15.2,7.9,24.2,4.2c3.1-1.3,5.5-3.4,7.8-5.7c9.3-5.6,6.9-14.1,5.4-22.3c-0.4-2.3-1-4.7-1.5-7
		C507.2,516.8,511.1,519.3,514.6,525.5z"/>
	<path class="st3" d="M450.7,592.9c-9.9,2.2-19.8,2.2-29.9,1.2c-6.9-0.7-13.9-0.5-20.5-3.1c-0.3-0.1-0.7-0.1-0.9-0.2
		c-2.2-1-5.2-2-4.9-4.6c0.3-2.2,3.3-2.5,5.5-3.2c5.1-1.6,9.8-0.2,14.7,1C426.6,586.7,438.5,590.4,450.7,592.9z"/>
	<path class="st5" d="M554.1,517.3c-2.7,3.1-5,6.9-8.2,9.2c-3.4,2.3-8,1.2-11.9,0.7c-3.6-0.5-7.1-1-10.6-0.7
		c-3.7,0.3-4.7-2.1-4.6-4.7c0.1-2.8,0.7-6.1,4.7-6.1c10.1,0,20.2,0,30.4,0C553.9,516.2,554,516.7,554.1,517.3z"/>
	<path class="st5" d="M492,545.6c-9.8,2.8-18.5,1.3-25.8-4.9c-6.1-5.1-6.6-14.9-2.1-24.8c1.5,4,2.7,7.7,4.5,11.1
		c2.9,5.6,7,9.8,13.2,11.2C486,539.2,488.9,541.7,492,545.6z"/>
	<path class="st2" d="M476.5,472.6c-8.2,0.4-16.4,1-24.7,1c-10,0-17.8-6.1-19.9-15.2c-1.2-5.4,1.8-10,2.6-15.1
		c1.1-2,3.1-2.8,4.9-3.9c3.3,5.8,8.7,6.5,14.6,6.5c6.2,0,12.3,0,18.5,0c2.1,0,4.3-0.3,6,1.3c-0.3,0.9-1.1,1.1-2,1
		c-7.6-0.6-15.2,1.5-22.8,1c-2.2-0.1-4.1,0.5-6.2,1c-6.5,1.6-9.1,4.3-9,9.6c0.1,5.8,3.7,9.7,9.7,11c7.7,1.6,15.5,0.6,23.3,1
		C473.1,471.8,475,470.9,476.5,472.6z"/>
	<path class="st4" d="M498,546.9c-2.5,5.8-11.7,10.2-19.7,8.7c-13.1-2.4-26-15.8-24.2-29.5c0.4-3.2,1.3-6.3,2-9.4
		c1.2-1.2,2.5-1.1,3.7,0c-5.8,18.4,2.5,30.8,20.2,33.9c5.4,0.9,10.9-1.5,16.1-3.3C496.8,547.1,497.4,547,498,546.9z"/>
	<path class="st2" d="M592.7,419.8c-0.3,0.3-0.6,0.9-1,0.9c-11.4,0.5-22.8-0.5-34.4,0.9c4.2-3.6,7.1-8.3,12.1-10.5
		C580,406.1,587.8,409,592.7,419.8z"/>
	<path class="st4" d="M478.4,447.2c-10.8-0.3-21.5,0.8-32.3-0.6c-4.8-0.6-6.3-3.1-6.7-7.2c5.5-5.2,12.6-7.2,19.6-7.5
		c12.1-0.5,24.4-3.1,36.7,0.2c-3.7,2.7-7.8,1.7-11.5,1.3c-9.7-1.2-19.3-1.4-28.8,0.3c-2.9,0.5-5.9,2.3-5.9,5.4
		c0,3.9,3.5,4.9,6.8,5.2c1.1,0.1,2.3,0,3.4,0c5.7,0,11.4,0.1,17.1,0C479.2,444.3,480.3,444.8,478.4,447.2z"/>
	<path class="st6" d="M567.3,494c-2.1-10.4-10.6-7.9-17.5-8.6c-1.3-0.1-2.6,0-3.9,0c1-6.1,5.9-8.2,13.2-8.8
		c5.5-0.4,10.9,0.1,16.8,1.4C571.4,482.5,567.4,487.3,567.3,494z"/>
	<path class="st2" d="M471.8,441.5c-5.1-0.6-10.7,0.8-16.1-0.8c-1.3-0.4-3.3-0.3-3.2-2.2c0-1.9,1.8-1.8,3.3-2
		c11.7-1.9,23.4-1,35.2,0c1.3,0.1,2.2,0.4,2.2,2c0,1.5-1,1.7-2.2,2C484.7,442.1,478.4,441.1,471.8,441.5z"/>
	<path class="st8" d="M485.4,513.5c-0.7-4.9,2.7-4,5.2-3.4c4,0.9,10.5,10.6,10.3,14.8c-0.1,1.5-1,2.1-2.4,2.5
		c-8.9,2.8-11.2,1.3-12.1-8.3C486.2,517.1,484.9,515.4,485.4,513.5z"/>
	<path class="st4" d="M525.5,493c0.3-10.8,5.6-16.5,14.9-16.5c1.8,0,3.5,0.4,5,1.2c-0.8,1.4-1.5,2.7-2.3,4.1c-0.3,0.6-0.7,1-1.1,1.6
		c-1,1.3-1.1,3-1.7,4.5C537.4,494.9,532.6,496.6,525.5,493z"/>
	<path class="st8" d="M471.8,525.5c-2-3.7-3.3-7.5-4.4-11.6c-1.2-4.4,0.8-4.2,3.7-4.1c3.1,0.1,6.7-0.9,9.1,0.4
		c2.5,1.4,1.4,5.5,2.3,8.3c0.6,2,1.2,4,1.7,6C480.2,526.3,476.1,527.5,471.8,525.5z"/>
	<path class="st4" d="M497.2,557.5c5.6-7.6,11.6-15,13.4-24.6c0.5-2.9,0-6,4.1-6.5c3.7,8.7-2.8,23.9-11,28.3
		C501.6,555.8,499.7,557.4,497.2,557.5z"/>
	<path class="st9" d="M424.9,507.7c-2.5-4.2-4.3-8.6-5-13.5c2.1,0.4,2.5,2.5,3.2,3.8c4.8,9.2,13.1,15,20.8,21.1
		c2.7,2.2,3.7,4,3.2,7.1c-8.7-3-14.4-9.9-20.3-16.4C426.2,509.1,425.5,508.4,424.9,507.7z"/>
	<path class="st10" d="M525.5,493c0.2,0,0.3,0,0.5,0.1c6.5,0.8,12.7,0.9,14.2-7.7c0.1-0.7,1.2-1.3,1.9-2c-0.5,6.2-2,12.5,0.1,18.7
		c0.6,1.7-0.5,1.8-1.7,1.9C533.7,504.6,527.1,499.8,525.5,493z"/>
	<path class="st3" d="M473.7,570.2c-5.1,0.5-8.3-2.6-11.5-5.9c-4.4-4.6-7.2-10.1-8-16.5c2.8,4.3,6.7,7.7,11.3,9.5
		C471.8,559.7,475,563.3,473.7,570.2z"/>
	<path class="st4" d="M594,407.4c12.5,1.8,15.7,4.1,12,17.2c-2.2-0.9-4.3-2.1-6.6-2.6c-2.3-0.5-2.7-1.8-2.7-3.8
		C596.8,414.4,595.6,411,594,407.4z"/>
	<path class="st11" d="M471.8,525.5c4.2,0.3,8.2-1.7,12.4-1c2,3.2,4.9,6.2,3.2,10.6c0.3,0.4,0.2,0.8-0.1,1.1
		C479.8,536,475.3,531.5,471.8,525.5z"/>
	<path class="st4" d="M444.3,464.8c12.7,0,25.4-0.4,38.1,1c-1.4,2.5-4.3,2.4-6.4,2.5c-9.8,0.6-19.6,1.2-29.3-1.5
		C445.6,466.5,444.8,466,444.3,464.8z"/>
	<path class="st4" d="M592.7,419.8c-0.7-0.6-1.7-1.1-2.2-1.9c-5.6-7.8-9.7-9.3-19.2-7c-0.6,0.2-1.3,0.1-1.9,0.1
		c5.7-4.8,12.7-5.3,19.5-4.2C593.3,407.6,594.7,413.8,592.7,419.8z"/>
	<path class="st4" d="M457.4,485.6c11.6-1.8,22-3,33.1-2.1C486.2,487.6,470.4,488.6,457.4,485.6z"/>
	<path class="st5" d="M514.6,525.5c-3.8-3.3-7-7.4-12.6-7.9c-1.8-1.8-2.6-4-3.3-6.4C508.1,510.9,514.3,516.5,514.6,525.5z"/>
	<path class="st8" d="M487.3,536.2c0-0.4,0.1-0.7,0.1-1.1c2.9-4.2,6.9-5.7,12-4.8c1.1,0.2,2.5-0.1,2.5,1.6c0,1.2,0.7,2.9-1.2,3.2
		C496.3,535.9,492,538.6,487.3,536.2z"/>
	<path class="st5" d="M536,512.6c-0.6-1.6-1.2-3.2-1.9-4.8c5.4,0.5,11.3-0.5,15.5,5.8C544.7,513.2,540.3,512.9,536,512.6z"/>
	<path class="st5" d="M459.9,516.7c-1.2,0-2.5,0-3.7,0c-1.3,0.6-2.6,1.3-3.9,1.9c0.8-5.8,4.9-7.1,9.9-7.8
		C462.2,513.3,460.6,514.8,459.9,516.7z"/>
	<path class="st12" d="M499.9,539.3c-2.7,5.6-3.3,5.7-7.5,1.1C494.8,538.8,497.3,538.8,499.9,539.3z"/>
	<path class="st13" d="M583.2,456.1c-0.5-0.9-1.4-1.7-1-2.9c4.2-1.5,7.7,1.5,11.5,1.8c-2.1-4.1,0.6-5.5,10.5-5.3
		c-3.5-0.1-6.9-0.2-10.4-1c-2.9-0.7-4-2-2-4.8c-3.4,0-6.1,3.2-9.6,1.5c0.1-1.8,0.6-3.5,1.8-5c7.5-2.8,15-5.5,23-8.5
		c-1.8,3.3-4.1,5.8-6.4,8.3c-1,1-2.7,2.4-1.8,4c0.7,1.2,2.5,1,4,1.2c10,1.2,20.1,2.5,30.1,4.2c-6.3,2.7-13.1,3.1-19.7,4.5
		c-3.6,0.8-7.3,1.4-10.9,2c-2.4,0.4-2.7,1.3-1,3.1c2.3,2.5,4.3,5.2,7.3,8.7C599.2,464.1,591.1,460.3,583.2,456.1z"/>
	<path class="st4" d="M613.1,436.5c0.7,1.9,1.4,3.8,2.1,5.7c-2.3,0.5-4.2-0.4-6.4-1.3C609.9,439,611.5,437.7,613.1,436.5z"/>
	<path class="st4" d="M613.3,460.1c0.1,1.5-0.8,2.3-2,2.9c-0.7-0.5-1.9-0.9-1.3-2C610.7,459.7,612.1,460,613.3,460.1z"/>
	<path d="M410,559.5c-8.4,2.6-14.5-1-16.6-9.7c-2.8-11.3,1.2-18.9,10.8-22c3.5-1.1,5.9,1,8.8,1.6C421.9,539.7,420.7,552,410,559.5z"
		/>
	<path class="st14" d="M582.2,445.3c4-1.3,8.1-2.6,12.5-4c-1.3,2-2.3,3.6-3.5,5.5c5.1,1.7,10.6,1,16.1,3c-3,0.5-5.5,1.1-8.1,1.3
		c-2.1,0.2-4.4-0.3-5.7,1.5c-0.3,0.4,1.8,2.7,3.1,4.4c-5.1-1.4-9.7-2.7-14.4-3.9C580,450.5,581.4,447.9,582.2,445.3z"/>
	<path class="st1" d="M401.4,537.1c-0.1,0.9-0.1,1.9-0.4,2.8c-2.2,6.6,1,14.9,10.9,13.7c-3.5,5.1-8.6,5.6-12.8,1.2
		c-4-4.1-4.8-12.6-1.7-17.8C398.7,536.1,400.1,535.9,401.4,537.1z"/>
	<path class="st3" d="M401.4,537.1c-1.3,0-2.7-0.1-4-0.1c2.3-6,7.4-8.1,13.3-5.3C407.1,533,404.1,534.8,401.4,537.1z"/>
	<path class="st15" d="M404.6,544.1c3.6,1.4,7,2.8,10.7,4.2C408.9,552.5,405.4,551.1,404.6,544.1z"/>
	<path class="st16" d="M405.2,537.9c2.1-2.8,5.2-3.7,8-2.4c2.8,1.3,2.9,4.6,2.7,7.5C412.5,541,408.8,539.5,405.2,537.9z"/>
	<path class="st15" d="M405.2,537.9c4.7-0.6,8.2,1.1,10.7,5.1c-4.2,0.7-7.6-1.6-11.1-3.2C404,539.5,404.4,538.5,405.2,537.9z"/>
</g>
</svg>
