<?xml version="1.0" encoding="utf-8"?>
<!-- Generator: Adobe Illustrator 23.0.1, SVG Export Plug-In . SVG Version: 6.00 Build 0)  -->
<svg version="1.1" id="Layer_4" xmlns="http://www.w3.org/2000/svg" xmlns:xlink="http://www.w3.org/1999/xlink" x="0px" y="0px"
	 viewBox="0 0 1000 1000" style="enable-background:new 0 0 1000 1000;" xml:space="preserve">
<style type="text/css">
	.st0{fill:#1D2329;}
	.st1{fill:#90AFC3;}
	.st2{fill:#AE10A3;}
	.st3{fill:#2B5260;}
	.st4{fill:#360534;}
	.st5{fill:#650A5F;}
	.st6{fill:#302725;}
	.st7{fill:#182E35;}
	.st8{fill:#F18EE9;}
	.st9{fill:#878A9A;}
	.st10{fill:#38464F;}
	.st11{fill:#F392EC;}
	.st12{fill:#76A5A2;}
	.st13{fill:#394852;}
	.st14{fill:none;}
	.st15{fill:#3D4856;}
	.st16{fill:#B5FBF8;}
	.st17{fill:#FE28C3;}
	.st18{fill:#FEC5EE;}
	.st19{fill:#FEFEFE;}
	.st20{fill:#620047;}
</style>
<g>
	<path d="M652.3,432.1c-4.9-1.5-9.9,0.2-14.8,0.5c-9.2,0.7-18.3,2.2-26.8,5.4c-3.3,1.3-4.8,0.6-6.7-1.5c-3.8-4.2-8.4-7.6-13.9-8.6
		c-4.1-0.8-5.8-2.9-5.9-6.2c-0.1-2.8-0.8-5.4-1.2-8c-1.4-9.5-9.5-16.6-17.2-15.2c-8.6,1.6-16,5.5-21.1,12.7c-2.7,3.8-6.2,4.9-10,4.8
		c-7.7-0.3-15.4-0.6-22.9-2c-7.7-1.5-14.7-0.1-21.7,2.8c-3.5,1.5-6.2,4.9-10,5.1c-11.7,0.5-23.3,1.5-34.9,3
		c-10.8,1.4-21.5,3-31.7,7.1c-19.5,7.8-39.3,11.9-60.1,5c-5.5-1.8-16.6,3.2-18.5,10c-1.7,6.3-1.7,12.6-1.8,19
		c-0.1,4.9,1.2,9.2,5.1,12.3c2.2,1.7,3.4,4.1,3.6,6.5c0.5,5,2.5,9.3,4.7,13.7c1.5,3,2.9,6.2,2.2,9.6c-1.9,8.7-5.6,16.5-11.2,23.6
		c-7.4,9.2-14.8,18.6-19.6,29.5c-3.5,7.8-3.8,15.7,3.5,22.6c10.9,10.4,24.1,15.2,38.5,15.8c16.1,0.8,32.1-0.1,48.1-2.6
		c15.3-2.4,26.1-13,25.8-28.7c0-1.3,0.1-2.1,1.6-3c5.7-3.5,11.3-7.3,15.5-12.6c2.2-2.8,4.1-2.2,6-0.5c10,9.2,22.4,12.8,35.3,14.2
		c13.8,1.5,27.7,1.6,41.5,2.3c9.8,0.2,19.6-1,29.3-2.1c7.3-0.9,13.8-3.9,18.5-9.6c6.9-8.2,13.5-16.7,18.3-26.4
		c3.6-7.5,7.3-15,11.5-22.2c1.8-3.1,3.7-4.6,7.3-4.3c4.6,0.5,9.3,0.2,13.4-2.4c17.1-10.9,29.8-25.4,33.9-45.6
		C667.9,444.9,665,436.1,652.3,432.1z M421.7,535.3c1.9-4.9,3.6-9.3,5.3-13.7C431,525.3,429.7,528.7,421.7,535.3z"/>
	<path class="st0" d="M557.3,557c-5,2.7-10.3,2.1-15.1,2.4c-13.9,0.9-27.8-0.4-41.7-1.5c-6.1-0.5-12.3-0.7-18.3-2.2
		c-5.4-1.3-10.2-3.9-14.5-7.9c27.3,1.4,54.6,2.7,81.9,4.1c0-0.3,0-0.7,0.1-1c-10.6-1-21.1-2.1-31.7-3c-15.6-1.3-31.2-3.4-46.8-3.5
		c-11.3-0.1-18.1-6.8-25.6-13.1c-4.1-3.4-8.2-6.9-12.2-10.4c-1-0.9-2.8-1.7-2.3-3.4c0.5-1.5,2.3-0.8,3.5-0.9
		c20.3-1.4,40.6-0.2,60.9-1.2c15.3-0.8,30.6,0.2,45.8-1c6.9-0.6,13.9,0.1,20.8-1.5c5.4-1.3,6.5,0.1,5.1,5.7
		c-2.4,9.1-4.4,18.2-9.1,26.6C556,548.8,554.2,552.8,557.3,557z"/>
	<path class="st1" d="M401.4,491.2c-7-15.6-4.3-30,5.1-43.6c4.6-6.8,12.1-8.2,19.2-10.1c11.1-3,22.4-4.3,34-5.1
		c26.9-1.7,53.9-0.8,80.8-0.5c9.7,0.1,19.6-0.4,29.3,1.6c1.1,0.2,2.5-0.2,3,1.1c0.5,1.5-1.2,1.4-1.9,2.1
		c-5.7,5.7-9.8,12.2-11.3,20.4c-1.5,8-0.3,15.5,1.3,23.2c1.5,6.3,2,12.5-2.8,17.8c-2.3,0.2-2.9-1.8-3.8-3.2c-5.1-8.3-7-17.5-7.4-27
		c-0.4-7.6,2.8-14.2,7.8-20c1.1-1.3,2.8-2.2,3.3-4.4c-1.5-1.2-3.3-0.8-5-0.8c-19.4,0-38.7-0.5-58,0.1c-18.3,0.6-36.6,2.2-54.8,4.6
		c-17.6,2.2-29.2,23.5-26,38.1c0.8,3.8,2.5,7,5,9.9c1.3,1.4,2.9,2.7,3.2,4.8c-0.9,2.3-2.7,1.3-4,0.8
		C412.1,498.7,406.1,495.9,401.4,491.2z"/>
	<path class="st2" d="M353.4,579.2c-6.9,0.4-13.6-1.6-20.4-1.9c-0.1-0.3-0.1-0.5-0.2-0.8c2.5-2.7,5.8-1.9,8.7-1.4
		c6.5,1.1,12.8,0.3,17.8-0.9c-6.4,2.3-14,1.1-21.5-1.4c-6.7-2.2-8.1-5.6-5.4-12c2.4-5.5,5.4-10.8,9.1-15.6c1.2-1.5,2.3-3.2,4.4-3.6
		c2.8,1.7,0.5,3.2-0.4,4.6c-2.5,3.9-5.2,7.7-7,12c-0.7,1.5-1.7,3.1-1.1,4.9c1.2-2.2,1.2-5.1,4.4-5.7c1.3,1.3,1.8,3.2,3,4.5
		c1.6,2.6,4.2,3.8,6.9,4.9c1.3,0.5,3.5,0.5,2.7,3c-3.7,2.8-7.1,1-9,0.4c3.2,1.9,21.3,0.5,30.3-3.4c0.6-0.3-0.3-0.7,0.1-0.2
		c0.1,0.1,0,0.2-0.3,0.4c-3.5,1.3-7,2.3-10.7,2c-1.6-2.2,0.6-2.6,1.8-3.1c2.4-1.2,4.8-2.4,6.3-4.8c2.4-4.2,2.1-5.3-2.1-7
		c-1.2-0.5-3-0.4-2.7-2.5c4.3-2.1,8.4-4.6,13.1-5.4c1.2,2.7-1.3,4.8-1.1,7.3c-1.5,1.4-0.1,3.5-0.7,4.4c0.3-0.7-0.3-2.3,0.2-3.7
		c3.6-10.6,9.3-20.3,14.4-30.2c3.2-6.1,4.8-11.9,2.3-18.5c-0.3-0.8-0.4-1.7-0.4-1.7c4.1,8.8-0.2,16.9-5,25
		c-2.2,3.8-4.1,7.8-5.8,11.8c-0.7,1.6-1,3.6-3.3,3.7c-0.6-0.5-0.9-1.1-1.1-1.9c-0.5-4.5-4.2-5-7.4-5.6c-4.2-0.8-8.3,0.2-12.2,2
		c-1.4,0.7-2.7,1.9-4.5,1.6c-0.7-0.6-0.9-1.5-0.4-2.2c2.3-3.6,4.2-7.5,7.9-10c0.4,0.2,0.8,0.5,1.1,0.9c4.7,6.1,16.9,5.2,21.2-1.7
		c1.2-2.3,0.4-4.6-0.2-6.9c0.7-3.8,5.5-5.4,5.2-9.7c0-4.4-3.8-4.2-6.5-5.5c-0.2-3.1,2.9-2.6,4.4-4c0.5-0.4,0.3,0.1,0.3-0.3
		c0-0.6-0.6,0.2-1,0c-6.2,0.2-12.5,0.5-18.2,3.1c2.8,1,5.6,0.4,8.3,0c1.8-0.3,3.5-0.7,5.2,0.6c0,2.8-2.5,2.4-4.1,2.9
		c-3.8,1.2-7.7,1.9-11,4.3c-2.5,0.4-2.6-1.7-3.2-3.2c0.4,10.6-4.8,18.8-11,26.5c-1.9,2.3-2.9,6-7,5.9c-1.2-2.5,0.8-3.9,2-5.5
		c5.1-7.5,10.4-14.9,11.3-24.3c0.5-5.1,1-10.3-3.5-14.2c-1.3-0.7-0.7-2-0.9-3c3.3-2.2,7.2-2.1,10.8-2.1c7.8,0,15.6-0.3,23.3,0.8
		c2.9,0.4,5,1.7,6.8,4c6.7,8.4,8.1,17.1,2.6,26.6c-2.3,3.9-3.9,8.2-6.2,12.2c-3.9,6.8-6,14-6.7,21.7c-0.3,3.9-1.8,7.5-4.8,9.8
		c-7.6,5.9-15.8,10.7-25.5,12.4C355.7,579.7,354.5,579.8,353.4,579.2z"/>
	<path class="st3" d="M557.6,498c2.7-5.6,3.1-11.6,3.1-17.6c3,6.5,5,13.4,8.8,19.5c0.5,3.2-1.4,4.8-3.9,6c-1.9,0.9-4,1.4-6.2,1.3
		c-9.4-0.3-18.8,1.2-28.2,1.1c-19.2-0.1-38.3,0.8-57.5,1.2c-16.2,0.4-32.5,0.4-48.7,0.7c-3.1,0.1-6.2-0.1-9.1-1.5
		c-6.7-4.4-12.2-9.8-14.6-17.7c6.5,2.9,12.2,7.5,19.1,9.6c0.5,0.1,1,0.1,1.4,0.2c1-0.8,2.1-0.8,3.2-0.8c20.5,0.7,41-0.4,61.4-1.1
		c22.9-0.7,45.8,0,68.7-0.8C556.1,498.4,556.9,498.4,557.6,498z"/>
	<path class="st4" d="M400.5,547c-2.8,9.2,1.4,16.1,10.9,17.5c1.6,0.2,3.1,0.7,4.7,1c-0.8,3.5-4.3,5-5.8,8c-1.7,0.9-3.2-0.6-4.7-0.5
		c4.4,1.4,8.6,4,13.4,4.5c1,0.2,1.7,0.6,2,1.7c-5.2,8.3-14.3,8.3-22.3,9.4c-9.7,1.4-19.6,1.8-29.4,2.1c-13.1,0.5-25.3-3-36.6-9.5
		c-3.3-1.9-6.6-4.1-7.4-8.4c2.9,0.4,5.1,2.2,7.4,3.8c0.1,0.2,0.2,0.5,0.4,0.6c5.7,4,12.6,3.5,19,4.6c12.8,2.2,25.4,0.4,37.8-2.8
		c1.1-0.3,2.2-0.6,3.2-1c11.5-4.7,11-5.9,6.1-15c-2.8-5.3-3.7-10.6-1.7-16.3C398.6,546.1,399.6,546,400.5,547z"/>
	<path class="st5" d="M353.4,579.2c10.6-1.4,19.4-6.9,27.9-12.8c4.8-3.4,4.6-9.1,5.2-14.1c0.6-5.3,2.6-9.9,4.8-14.6
		c3.5-7.5,8.3-14.3,10.3-22.5c1.5-6.1-2-16.9-7.2-19.9c-3.5-2-7.8-1.8-11.8-2c-8.8-0.5-17.5,0.3-26.2,0.9c-2.3-3-4.6-7.3-3.1-9.9
		c1.2-2,4.7,2.4,7.6,3.3c7.7,2.4,15.3,4.9,23.6,2.8c2.7-0.7,5.5,0.1,8.1-1c1.7-0.7,2.5,0.9,3.1,2.3c3,6.3,7.3,11.8,12,16.9
		c1.4,1.6,1.4,2.9,0.6,4.8c-3.1,7.4-7.9,14.1-10.1,21.9c-1.6,5.7-3.6,11.3-5.5,17c-0.9,2.5,0.9,4.7,0.9,7.1
		c1.8,6.3,2.3,12.3-4.1,16.6c-11.2,2.5-22.5,4.2-34,4C354.8,580,354.1,579.5,353.4,579.2z"/>
	<path class="st0" d="M558.6,551c0.6-1.4,1.2-3.8,2.3-5.9c4.6-9,8.9-18,10.6-28c0.6-3.4,2-4.9,6-3.7c4.2,1.3,8.4,2.4,12.2,4.6
		c2.2,1.3,2.9,2.5,1.7,5.4c-4.3,9.9-10.6,18.5-17.3,26.8c-2.4,2.9-5.8,4.8-9.3,6C561.3,557.6,558.5,555.5,558.6,551z"/>
	<path class="st6" d="M378.2,486.2c-12.3,0.9-21.4-4.3-29.6-12.1c-7.4-6.9-8.9-15.5-3.9-24c1.9-3.2,4.5-4.7,8.1-3.6
		c14.9,4.4,29.7,2.4,44.6,0.2c1.1-0.2,2.4-0.9,3.2,0c1.1,1.2-0.2,2.4-0.8,3.4c-6.6,9.7-8.6,20.4-6.5,31.9c0.3,1.8,0.2,3.4-2.2,3.3
		C386.6,485.1,382.2,487.3,378.2,486.2z"/>
	<path class="st1" d="M582.1,474.5c1.4-11.9,8.4-19.2,19-23.5c11.2-4.5,22.7-7.7,35.5-8.6c-9.6,7.3-14.8,17.4-21.5,26.3
		c-3.6,4.5-7,9.3-13.8,9c-1.2-6,2.2-10.7,4.7-15.7c0.6-1.3,2.6-2,1.7-3.8c-10.9,0.9-14,3.5-16.8,14c-0.5,1.9-0.7,3.9-1.9,5.5
		C585.6,479.2,583.6,477.5,582.1,474.5z"/>
	<path class="st7" d="M415.9,508.9c2.3,0,4.5-0.1,6.8-0.1c27.8,0.7,55.5-0.9,83.2-1.3c11.1-0.1,22.4,0.1,33.5-0.9
		c6.8-0.6,13.6-0.6,20.4-0.9c4.1-0.2,8.1-1.1,9.6-5.9c2.4,2.6,4.7,5.3,7.4,8.3c-4.7,1.2-9.2,0.9-13.5,1.2
		c-6.6,0.5-13.2,1.1-19.8,1.4c-28.6,1.1-57.2,0.5-85.7,1.2c-6.8,0.2-13.8,0.4-20.7,1.4C429.8,514.3,422.2,514.1,415.9,508.9z"/>
	<path class="st2" d="M564.6,477.4c-4-13.3-2.4-25.5,6.6-36.4c3.4-4.2,12.3-6.3,17.5-4.2c4.3,1.7,7.2,4.3,11.7,10.3
		c-13.5,5.2-24.3,12.7-23.3,29.4C573.2,480.4,569.1,480.7,564.6,477.4z"/>
	<path class="st8" d="M332.7,576.7c-2.8-0.6-4.9-2.5-7.4-3.8c-1.1-5.8,2.5-10.2,5.1-14.6c7.1-11.9,16.9-22,22.9-34.6
		c4-8.5,7-17.1,4-26.6c1.7-3.9,2.6,0.2,2.8,0.6c2.2,4.6,2.7,9.5,2,14.6c-1.5,9.9-7.1,17.7-12.7,25.6c-0.7,1.1-1.8,1.9-1.8,3.3
		c0.3,0.7,0,1-0.7,0.7c-7.3,6.3-11.3,14.7-14.6,23.5c-0.9,2.4,0.8,4,2.9,5c7.4,3.3,15,4.7,23,3.4c1.8-0.3,3.5-0.6,6.6-0.2
		c-8.6,1.9-15.5,5.1-23.4,2.8C338.7,575.6,335.5,575.7,332.7,576.7z"/>
	<path class="st5" d="M564.6,477.4c4.3,2.1,8.4,0.8,12.4-0.9c1.4,1.6,0.9,3.7,1.4,5.5c1.9,6.2,5,11.4,10.5,15.1
		c0.7,0.5,1.4,0.7,2.2,1c4.7,2,6.2,4.7,4.8,8c-1.7,3.8-5.5,5.3-9.7,3.7c-0.8-0.3-1.5-0.6-2.2-1c-4.5-1.6-7.2-5.2-9.7-8.9
		C569.5,493.1,566.5,485.5,564.6,477.4z"/>
	<path class="st3" d="M582.1,474.5c2,1.5,3.8,3.4,6.6,2.9c0.9,0.5,1.2,1.5,1.6,2.3c2.6,5.1,3,5.2,8.5,2.7c1.9-1.1,1-3.8,2.8-4.9
		c5.6-1.3,9.1-5.7,13.5-8.8c-0.6,4-3.4,7.2-4.3,11.2c-1.1,4.5-2.1,8.7-0.4,13.1c0.9,2.3,0.5,3.4-2.1,3c-4.7-0.7-9.5-1.2-14.2-2.3
		C585.9,491.8,582.3,485.9,582.1,474.5z"/>
	<path class="st6" d="M420,560.6c-4.7,1.7-9.3,1.6-13.3-1.3c-5.2-3.7-4.3-10,1.4-12.4c6.3-2.6,12.4-5.4,17.8-9.7
		c2.7-2.2,4-5,5.9-7.6c0.9-1.3,2-3.3,3.5-0.9c1.2,1.9,6.4,1.4,3.6,5.7c-6,9.2-13.6,16.4-24.5,19.4c-0.6,0.2-1.2,0.5-1.8,0.8
		c-0.3,0.1-0.4,0.4-0.8,0.9c5.4-0.3,10-2.8,15-3.7c0.3,2.6-1.8,3.1-3.4,3.8c-2.8,1.2-5.7,1.9-8.8,3.2
		C416.3,559.9,418.7,558.8,420,560.6z"/>
	<path class="st0" d="M495.2,427.7c-0.8,0-1.6,0.3-2.5-0.6c3.6-2.5,7.6-3.2,11.8-3.4c9.4-0.4,18.8,0.8,28.2,1.2
		c10.2,0.4,17-3.9,22.7-11.4c2.9-3.9,7-5,11.4-5.3c3.1-0.3,5.4,1.5,6.2,4.5c1.3,5,2.2,10.1,3.2,15.1c0.3,1.3,0,3-1.8,2.7
		c-2.4-0.4-5.7-0.1-5.9-3.7c-0.2-3.9-0.1-7.8-0.6-11.7c-0.5,3.7-1,7.5-1.3,11.3c-0.2,2.5-1.4,3.6-3.7,3.4c-4-0.3-8-0.7-12.1-1.1
		c0.6-3.4,3.9-3.5,6.1-4.9c2.5-1.5,5.3-2.5,6.8-5.3c0.8-1.6,1.8-3.4-0.1-4.8c-1.7-1.3-3.1,0.1-4.3,1.2c-2.3,2.1-4.8,3.9-6.9,6.2
		c-6.2,6.7-14,7.1-22.4,6.6C518.4,426.8,506.8,424.6,495.2,427.7z"/>
	<path class="st9" d="M495.2,427.7c5.9-3.7,12.5-3.3,19-2.8c8.5,0.6,17,1.6,25.5,1.5c6.8,0,10.6-6.2,15.5-9.8c1.7-1.2,3-2.9,4.5-4.4
		c1.5-1.5,3.1-1.7,4.8-0.5c1.8,1.2,2.6,3,1.7,5.1c-1.3,3-2.7,5.8-6.1,7.2c-3.3,1.4-6.3,3.2-9.4,4.8
		C532.2,429.5,513.7,427.3,495.2,427.7z"/>
	<path class="st10" d="M420,560.6c-2.8-0.6-7.8,1-7.9-1c-0.2-3.3,4.7-2.6,7.2-3.9c2.5-1.3,5.8-1.1,7.5-4c5.2-3.9,10.3-7.7,14.1-13.2
		c0.7-1.1,1.6-4.1,4.4-1.9c2.4,1.9,2.6,3.6,0.7,5.9C438.9,550.9,431.9,559.2,420,560.6z"/>
	<path class="st5" d="M652.4,465.8c-6.1,10.9-13.9,20.3-24.7,26.9c-1.7,1.1-3.9,1.5-5.9,2c-5,1.3-8.4-1.2-8.4-6.3
		c0-7.8,2.9-14.6,7.7-20.8c2.7,1.9,1.9,4.4,1.4,6.9c-0.8,2.8-2,5.4-3.2,8c-1.2,2.2-1.2,4.5,0.5,6.3c1.9,1.9,4.1,0.4,5.8-0.5
		c7.2-3.8,12.8-9.6,18.2-15.7C646.2,470,647.9,466.2,652.4,465.8z"/>
	<path class="st11" d="M630.8,454c2.6-5.6,13.9-13,19.4-12.6c4.1,0.3,6.8,3.5,7,8.2c0.1,3.6-0.4,7.2-1.9,10.5
		c-2.6,0.1-3.1-1.9-3.9-3.7c-0.2-0.6-0.2-1.2-0.3-1.9c-0.9-5.8-2.5-6.6-8-4.2c-1.9,0.9-3.5,2.2-5.5,2.8
		C635.4,453.2,633.4,455.7,630.8,454z"/>
	<path class="st2" d="M652.2,456c1,1.4,1.3,3.3,3.1,4.1c-0.3,2.2-1.6,4-3,5.7c-3.1,2.3-5.6,5.3-8.1,8.2
		c-5.4,6.3-11.1,12.2-18.8,15.8c-2,0.9-4.6,2.8-6.7,0.2c-1.7-2.2-2.6-4.9-0.8-7.6c1.1,0.6,1.2,1.8,1.7,2.8c1.1,2.1,2.7,2.5,4.9,1.5
		c2.1-1,3.8-2.4,5.6-3.9c8.6-7.1,16.1-15,20.2-25.6C650.8,456.6,651.2,455.9,652.2,456z"/>
	<path class="st4" d="M583.9,508.9c1.6,0.3,3.1,0.8,4.7,0.8c3.2,0,5.5-1.7,6.5-4.7c0.9-2.9-1.1-4.3-3.4-5.5c-1.1-0.6-2.4-1-2.8-2.4
		c4.3,0.7,8.5,1.3,12.8,2.2c1.1,0.2,2.8,0.5,2,2.5c-1.9,4.6-4.5,8.8-9.3,10.6C590.2,513.8,586.8,511.9,583.9,508.9z"/>
	<path class="st5" d="M421,579.2c-0.7-0.3-1.4-0.7-2.1-1c-3.3-1-5.9-3.1-8.6-5.1c0-4,3.8-5.2,5.8-7.6c2.2,0.3,5.2-1.5,6.6,1.1
		C425,571.1,423.8,575.3,421,579.2z"/>
	<path class="st5" d="M400.5,547c-1-0.1-1.9-0.1-2.9-0.2c1.6-7.8,5.3-14.7,9.2-21.6c-0.8,5.9-2.1,11.8,4.2,15.9
		C407.7,544.1,403.2,544,400.5,547z"/>
	<path class="st2" d="M630.8,454c2.5,0.1,4.4-2.4,7-2c0.3,0.6,0.3,1.3-0.1,1.9c-4.8,6.9-10.2,13.4-14.9,20.4
		c-0.4,0.5-1.1,0.6-1.8,0.3c1-2.3,0.9-4.7-0.1-7C623.1,462.3,626.9,458.1,630.8,454z"/>
	<path class="st12" d="M423,519.6c-1,2.6-2,5.2-3.1,7.7c-1.1,2.7-1.8,5.5-3.4,8c-0.7,1.1-1.8,2.2-3.2,1.7c-1.2-0.4-1.3-1.8-1.1-3
		c0.6-4.2,1-8.4,2.1-12.5c1-3.8,3.9-5.4,7.4-4.6C423.3,517.5,423.6,518.3,423,519.6z"/>
	<path class="st13" d="M423,519.6c-2.7-3.2-6.2-2.5-7.4,2c-1.3,4.8-1.7,9.8-2.7,15.6c4.2-2.7,4.2-7.3,7-9.8c0.3,3-0.9,5.6-2.2,8.2
		c-0.7,1.4-1,3.4-3,3.4c-2.2,0-3.3-1.6-3.7-3.7c0.2-7-0.4-14.3,4-20.4c2.2,1,4.2,2,6.8,1.9C423.9,516.7,425.8,517.4,423,519.6z"/>
	<path class="st4" d="M389.6,576.1c4.4-4.8,4-10.7,4.1-16.6c1,1.8,1.9,3.7,3,5.4c4,6.2,3,7.7-4.4,10.5
		C391.5,575.7,390.5,575.8,389.6,576.1z"/>
	<path class="st6" d="M415.1,514.8c-1.3,6.8-2.7,13.6-4,20.4c-2.3-7.1-0.6-14.3,0.4-21.2C411.9,511.5,413.8,514.6,415.1,514.8z"/>
	<path class="st14" d="M421.7,535.3c1.9-4.9,3.6-9.3,5.3-13.7C431,525.3,429.7,528.7,421.7,535.3z"/>
	<path class="st3" d="M593.7,515.6c0.8,0.1,1.5,0.2,2.3,0.3c-0.1,0.3,0,0.7-0.2,0.8C594.7,517.9,594.3,516.2,593.7,515.6z"/>
	<path class="st15" d="M465.1,519.5c23.2-0.8,46.4-1.1,69.6-1.1c4.1,0,8.3-1,12.6-0.9c3.8,0,6.5,1.8,8.3,5c1.9,3.3-0.8,5.4-2.4,7.7
		c-10,14.3-24.6,16-40.2,14.2c-2.6-0.3-5.2-0.5-7.7-0.5c-13.2,0-26.2-1.2-38.8-5.1c-8.8-2.7-17.4-6.4-23.8-13.6
		c-1.2-1.3-2.7-2.9-2-4.7c0.7-2,2.8-1,4.3-1.1C451.8,519.5,458.5,519.5,465.1,519.5z"/>
	<path d="M557.6,498c-0.1,2.6-2.2,1.9-3.6,1.9c-4.7,0.1-9.4,0.1-14.1,0c-28.7-0.7-57.4,1.1-86.1,1.2c-8,0-16.1,0.5-24.2,0.7
		c-2.6,0.1-5.2-0.1-7.6-1c-3.1-4.5-7.9-7.6-9-13.8c-1.9-10.3,0.4-19.2,6.1-28c6.5-10.1,16.2-12.6,26.8-13.9
		c13.2-1.6,26.5-2.4,39.8-3.2c23.7-1.4,47.4-0.2,71-0.8c1.7,0,3.7,0.2,4.2,1.4c0.5,1.3-1.5,2.3-2.5,3.2
		c-6.5,5.8-10.7,13.1-10.3,21.8C548.4,478.6,551,489,557.6,498z"/>
	<path class="st16" d="M566.4,437.3c-16.2,1.3-31.3,2.7-46.5,2c-8.7-0.4-17.5-1-26.2-0.7c-15,0.5-30,1.4-44.8,3.6
		c-4.9,0.7-9.8,1.6-14.7,2.7c-13.9,3.2-21.6,12.8-26.8,25.1c-1.1,2.5-2.2,5-3.5,7.5c-0.5,0.9-1.3,2-2.7,1.7
		c-1.3-0.3-1.5-1.5-1.6-2.7c-1.2-11.3,6.9-30.4,17.8-35c7.9-3.4,16.4-4.7,24.9-5.8c10.4-1.4,20.9-1.6,31.4-2.2
		c8.8-0.5,17.5-0.9,26.2-0.7c17.2,0.4,34.3,0.9,51.4,2.1C555.8,435.2,560.9,434.4,566.4,437.3z"/>
	<path class="st16" d="M556.3,487.7c-6.8-9.2-7.2-26.2-0.9-34C550.7,464.9,557.9,475.7,556.3,487.7z"/>
	<path class="st5" d="M365.4,506.8c0.9,1.6,1.8,3.3,2.7,4.9c1,0.7,1.2,1.7,1.3,2.8c0.1,3.2-1.5,5.9-2,9c-0.7,1.9-1.2,3.9-3.2,5
		c-2.1,4.2-6.1,7.2-7.7,11.7c0.6,2.1-1.1,2.8-2.2,3.9c-3.3,3.6-6.9,7-9.4,11.3c-0.8,1-1.1,2.7-3,2.3c-2.4,2.2-2.7,5.6-4.8,7.9
		c-1.2-4.7,1.6-8.3,3.7-12c4.6-8,11.1-14.7,16.4-22.3c4.9-7,9.3-14.1,7.7-23.2C364.7,507.5,365,507.1,365.4,506.8z"/>
	<path d="M341.8,557.6c0.6-1,1.3-1.9,1.9-2.9c5.1-3.5,11.2-2.8,16.8-4.3c2.6,0,5.3-0.7,7.5,1.3c0.3,1,1.2,0.9,2,1
		c5.8,0.8,7.2,3.9,3.9,8.8c-9.7,6.5-21.4,6.9-30.3,1C342.6,561.1,341.4,559.7,341.8,557.6z"/>
	<path d="M381.8,544c4.4-9.9,10.6-18.8,14-29.1c1.7-5.2-1.1-10-0.8-15.1c1.5,6.7,6.6,12.7,2.2,20.5c-6.2,10.9-11,22.6-17.5,33.3
		l0.1,0.1c-0.6-2.7,1-5.2,1-7.8C380.8,545.1,381.1,544.4,381.8,544z"/>
	<path d="M365.4,506.8c2.7,13.2-5.6,21.9-12.3,31.4c-5.5,7.7-12.4,14.4-15.3,23.7c-0.4,1.2-0.9,2.4-0.7,3.7
		c-2.5-1.2-1.1-3.3-0.7-4.7c1.8-6,5.3-11.1,9-16c0.7-0.9,1.4-1.7,1.5-2.9c0.2-0.2,0.5-0.5,0.7-0.7c9.1-9.5,17.4-19.3,16.7-33.6
		C364.2,506.4,364.3,506.4,365.4,506.8z"/>
	<path d="M353.5,543c1.3-0.6,2.3-1.6,2.9-2.9c6.4-4.7,13.4-6.5,21-3.6c2.3,0.9,4.9,2,4.2,5.5c-0.7,1.8-1.8,3.5-3.7,4.3
		c-6.3,2.7-12.9,3.8-19.8,2.4c-2.1-0.4-4-1.3-5.1-3.3C352.8,544.5,353,543.7,353.5,543z"/>
	<path d="M368.2,514.6c0-1-0.1-2-0.1-3c3.6-4.5,9.1-4.2,13.9-5.7c0.7-0.2,1.6,0,1.9-1c0.3-0.3,0.7-0.4,1.1-0.1c4,0,7.5,0.7,7.6,5.9
		c-4.5,7.6-15.9,10.5-23.1,5.9C368.9,516,368.6,515.2,368.2,514.6z"/>
	<path class="st5" d="M353.6,544.8c7,5.2,20.4,3.8,28.1-2.9c0,0.7,0.1,1.4,0.1,2.1c0,0.8,0,1.6-1,1.9c-3.5,3.6-8.1,4.7-12.7,5.9
		c-2.6,0-5.3-0.1-7.9-0.1C354,550.8,352.5,549.2,353.6,544.8z"/>
	<path class="st5" d="M343.8,562.5c10.2,4.4,20.3,2.6,30.3-1c-2,4-6.3,4.8-9.7,6.7c-3.1,3-6.4,2.9-9.9,1
		C350.5,567.5,346,566.8,343.8,562.5z"/>
	<path d="M364.1,528.4c0.7-1.6,1.4-3.3,2.1-4.9c1.3-2.4,3.7-3.2,6.1-4.2c2.9-0.9,6-0.9,8.9-1.4c2.4-0.4,4.4,0.2,5.4,2.7
		c2.3,1.9,2.5,4.2,1.1,6.7c-6,6.2-18,7.1-23.3,1.9C364.3,528.9,364.2,528.7,364.1,528.4z"/>
	<path d="M354.4,569.2c3.4,0.3,6.7,0.3,9.9-1c4.4-0.6,8.7-1.2,13.1-1.7c-11.4,4-22.8,8.4-35,3.3C346.4,569.3,350.5,572,354.4,569.2z
		"/>
	<path class="st5" d="M386.6,520.6c-4.8-4.1-9.7-0.7-14.6-0.2c-2.1-1-4.2-1.9-2.7-4.9c7,3.9,15,2.2,23.2-4.9
		C393.1,515.5,388.5,517.3,386.6,520.6z"/>
	<path class="st5" d="M364.4,529.2c8.1,3.7,15.8,2.2,23.3-1.9c-2.7,7.2-9,6.7-14.8,6.7C369.4,534.1,365.2,534.2,364.4,529.2z"/>
	<path class="st5" d="M384.9,504.8c-0.4,0-0.7,0.1-1.1,0.1c-5.1,0.3-10.2,1.5-15.3,1c-2.8-0.3-1.7-1.1-0.3-2
		c7-2.2,14.3-2.6,21.5-3.9c0.4-0.9,1.3-1.2,2-0.8c0.9,0.5,0,1-0.3,1.5C389.8,503.1,386.9,503.3,384.9,504.8z"/>
	<path d="M389.6,500c-6.9,2.8-14.2,3.3-21.5,3.9C374.9,500,382.2,499.7,389.6,500z"/>
	<path d="M379.8,553.6c0,1.8,0,3.5,0,5.3C379.2,557.1,378.1,555.3,379.8,553.6C379.9,553.7,379.8,553.6,379.8,553.6z"/>
	<path d="M410.2,573.1c3.9-0.1,5.9,3,8.6,5.1c-5.9,0.7-9.9-3.3-15.3-5.2C406.3,571.4,408.2,573.2,410.2,573.1z"/>
	<path class="st13" d="M344.9,468.2c6.8-1.2,12.7,0.2,18.7,0.6c8.1,0.6,16.2-0.7,24.3-1c3-0.1,4.5,0.6,3,3.9
		c-0.3,0.6-0.2,1.3-0.2,1.9c-0.6,10.3-0.6,9.9-11,10.9C365,485.8,354.8,478.2,344.9,468.2z"/>
	<path class="st12" d="M358.3,460.9c-3.3,0-5.6-0.4-8-0.8c-4.6-0.8-5.1-3.9-4.4-7.1c0.8-3.5,3.3-5.4,7.3-4.5
		c11.2,2.7,22.4,2.1,33.6,0.7c2.9-0.3,5.8,0.3,8.6-0.8c1.7-0.7,2.2,0.7,1.7,2.3c-1.3,4.2-4.1,6.7-8.6,7.2
		C378.2,459,367.9,460,358.3,460.9z"/>
	<path d="M599.6,483.6c-7.5,3.3-9.2,2.3-10.8-6.1c0.3-3.8,1.4-7.4,2.8-10.9c2.7-6.9,7.2-9.6,17.8-9.3c-0.3,2.5-2.5,2-4,2.5
		c-2.2,0.9-4.7,0.8-6.5,2.7c-1,1.2-1.9,2.5-2.6,3.9c-1.7,3.4-3.5,6.7-3.1,10.6c0.4,1.6,0.5,3.3,1.8,4.6
		C596.3,482.6,598.5,481.8,599.6,483.6z"/>
	<path class="st17" d="M597.8,461.9c2.2-3.6,6.4-2.5,9.5-3.9c0.7-0.3,1.6,0.1,2-0.9c2.6-0.2,1.3,0.8,0.6,1.7
		c-4.4,5.5-7.2,11.7-8.2,18.6c-0.5,2.1,0.8,4.8-2.1,6c-1.9-0.7-4.1,0.7-5.9-1c3.4-1.5,4.9-4,5.2-7.8c0.3-4.6,3.2-8.4,5-12.7
		C601.8,461.1,599.7,463.6,597.8,461.9z"/>
	<path class="st11" d="M596.5,444.2c-11-1.9-16.3,0.9-22.4,11.2c-0.7,1.2-1.4,2.6-2.4,3.6c-1.4,1.3-3.4,2.3-5.1,1.4
		c-1.9-1-0.8-3-0.5-4.7c1.4-7.7,6.2-12.9,12.5-16.8C583.6,435.6,590.5,437.7,596.5,444.2z"/>
	<path class="st12" d="M420,544.6c4.2-5.3,10.2-8.4,13.9-14.6C435,537.1,430.4,541.8,420,544.6z"/>
	<path d="M621.1,474.6c5.6-7.5,11.2-15.1,16.8-22.6c1.5-0.9,2.8-1.9,4.4-2.7c7.2-3.5,10.3-1.4,10,6.7c-4.8,13.7-14.5,23.3-26,31.4
		c-4.5,3.2-7.6,1.1-8.2-4.9C619,479.9,620.1,477.3,621.1,474.6z"/>
	<path class="st9" d="M510.8,524.6c-12.8,1.3-25.5,2.5-38.3,3.8c-4.2,0.4-8.3,1.3-12.5,1c-1.6-0.1-3.2-0.3-4.7-0.8
		c-1.8-0.6-3.8-1.2-3.6-3.2c0.2-2.5,2.7-1.6,4.3-1.9c8.8-1.5,17.8-1.1,26.7-0.9c9.4,0.2,18.7,1.4,28.1,0.8
		C510.7,523.7,510.7,524.2,510.8,524.6z"/>
	<path class="st17" d="M499,456.2c1.8-0.4,3.5-0.3,1.9,2c-1.7,2.4-3,4.8-4.1,7.4c-3.2,7.2-1.4,14.2,5.4,19.9c-1.4-4-3.1-7.3-3.8-11
		c-0.9-5.1,3.4-15.8,8.1-18.3c0.6-0.3,1.6,0,2.4,0c0.4,2.5-1.8,3.7-3,5.2c-2.7,3.4-4.4,7.1-4.4,11.5c0,2.7,1.1,4.3,4,4.2
		c1.3,0,2.6-0.1,3.9,0c3.4,0.3,5-0.9,5.3-4.5c0.3-4.2,1.6-8.2,3.7-12c1-1.8,2.1-3.7,4.2-4.5c1.1,0,2.2,0,4.1,0
		c-9.3,8.7-10,17.9-2.3,28.7c-0.4-2.5-0.6-4-0.9-5.5c-0.4-1.7-0.9-3.3-1.5-4.9c-1.9-4.9,4.3-17.1,10.4-18.3c0.2,3-2.1,4.6-3.5,6.7
		c-2.3,3.6-3.6,7.3-2.4,11.5c0.7,2.6,2.2,3.9,4.9,3.6c0.8-0.1,1.6-0.2,2.4-0.3c6.7-1,6.7-1,7-8c0.1-2.9,0.6-5.8,1.5-8.6
		c0.6-1.7,1-3.9,3.5-4.1c-3.4,10.7-0.3,20.9,2.9,31.6c-17.4-2-34.5-1.6-51.6-1.2c-17.2,0.4-34.4,1.9-51.7,1.8
		c-5.3,0-10.2,0.2-13-6.3c-2.9-7-1.4-12.6,2.7-18.1c0.5-0.6,1.2-1.1,1.8-1.6c1.2,3-0.9,5.6-1.2,8.4c-0.4,2.6-1.1,5.3,2.5,6.2
		c3,0.8,5.2-1,6.1-4.5c1.3-5.2,1.5-11,6.9-14.2c0.8,0.4,4-2.1,1.6,1.9c-3.8,6.3-5.8,13.3-3.5,20.8c0.6,2.1,1.3,4.1,4.1,5.3
		c-4.4-10.8-1.3-19.7,5.8-27.8c0.7-0.8,1.5-1.8,2.9-1.2c0.5,1.9-1,3-1.8,4.3c-1.3,2-2.6,4.1-3.5,6.3c-3.1,7.8-2.6,8.5,5.6,8.5
		c3.6,0,5.1-1.1,5.4-4.9c0.5-5.5,0.9-11.4,6-15.2c3.2-0.7,3.1,0.6,2,2.9c-4.3,8.8-3.7,17.2,2.7,24.9c-2.9-5.7-4.1-11.8-1.6-17.7
		c1.8-4.3,1.9-10.4,8.6-11.1c0.5,2-0.8,3.4-1.8,4.8c-2,2.9-2.9,6.2-3.3,9.6c-0.7,5.4,0.6,6.6,6.1,6.6c3.3,0,4.5-1.2,4.8-4.5
		C491.5,466.2,493.5,460.4,499,456.2z"/>
	<path class="st3" d="M432.1,451.5c40.4-8.8,80.6-5.3,120.6-6.3c-1,5.7-3.6,7.9-8.8,7.9c-17.9,0-35.8-0.3-53.6,0.1
		c-16.9,0.4-33.8,1-50.5,4.6C435.1,458.8,434.7,454.5,432.1,451.5z"/>
	<path class="st3" d="M553.6,497.3c-42.6-1.3-83.8,1.5-126,0.6c3.3-3.6,6.7-5.2,10.8-5.7c1.3-0.2,2.6-0.1,3.9,0
		c17.5,0.7,35-1,52.5-1.2c7.4-0.1,14.9-0.4,22.3-0.7c10.2-0.4,20.4,1.7,30.6,1C551.5,490.9,551.3,494.1,553.6,497.3z"/>
	<path class="st3" d="M421.9,495.1c-6.5-3.5-8.7-15.4-4.7-25.4c2.3-5.6,5.2-11.1,10.5-14.6c2.6,2.9,3,6.4,1.9,9.8
		c-0.8,2.6-1.2,5.2-1.8,7.8l0,0c-1.1,5.9,0.1,12.2-2.7,17.9C424.2,492.2,424,494.3,421.9,495.1z"/>
	<path class="st18" d="M545.7,457c-4,5.2-3.9,11.4-3.7,17.5c0.1,3.2-0.9,4.5-4.1,4.1c-1.4-0.2-2.8,0.2-4.3,0.6
		c-6.2,1.6-8.9-0.6-9.3-7c-0.5-6.8,4.2-11.1,7.8-15.9c1,0,1.9,0,2.9,0c0.7,2.8-1.7,4.8-2.1,7.2c-0.3,1.9-2.7,4.6,0.6,5.7
		c2.9,0.9,3.7-1.7,4.3-4c0.4-1.7,1-3.4,1.6-5.1c0.6-1.8,1.5-3.2,3.4-3.8C543.9,456.3,545.2,455.3,545.7,457z"/>
	<path class="st18" d="M522.5,456.2c-4,6.1-7,12.6-6.9,20.1c0,0.5,0,1.3-0.3,1.4c-4.2,1.7-8.6,0.9-12.9,0.6
		c-2.4-0.2-2.4-2.9-2.5-5.1c-0.3-7.4,4.2-12.2,8.8-17c1,0,1.9,0,2.9,0c0.4,2.1-1.3,3.2-2.3,4.6c-1.2,1.8-2.1,3.7-2.5,5.8
		c-0.3,1.4-1.1,3.1,1.1,3.6c1.8,0.4,2.7-0.9,3.1-2.4c0.8-2.7,1.7-5.2,3.3-7.6c1.1-1.6,2.2-3.2,4.1-4
		C519.8,456.2,521.1,456.2,522.5,456.2z"/>
	<path class="st18" d="M499,456.2c-3.8,6.2-7.8,12.3-6.9,20c0.2,1.7-0.8,2.3-2.4,2.2c-1.6,0-3.2,0-4.9,0c-5.1,0-7.2-2.6-6.3-7.7
		c0.9-5.5,3.2-10.3,6.8-14.6c1,0,1.9,0,2.9,0c0.1,3.2-2.3,5.2-3.2,8c-0.4,1.2-1.7,2.6-0.2,3.5c1.6,0.9,3.1-0.1,4.1-1.6
		c0.8-1.3,0.9-2.8,1.3-4.2c0.8-2.6,2.1-4.7,4.8-5.7C496.4,456.2,497.7,456.2,499,456.2z"/>
	<path class="st18" d="M473.6,457.2c-3.2,5.5-5.2,11.4-4.8,17.9c0.2,2.9-1.1,3.6-3.7,3.5c-2.4-0.2-4.9-0.2-7.3,0
		c-4.3,0.4-5.4-1-4.1-5.3c1.7-5.7,4.3-10.7,8.2-15.1c0.6,0,1.3,0,1.9,0c0.7,3.7-3.5,5.7-3.3,9.4c3.5,0.6,5.1-1.2,5.9-4.3
		c0.6-2.6,1.4-5.1,4.2-6.1C471.7,457.2,472.6,457.2,473.6,457.2z"/>
	<path class="st18" d="M451.2,459.1c-3.7,4.7-5.2,10.1-5.8,15.9c-0.3,2.8-4,5-7.8,4.4c-3.6-0.5-4.2-3.3-3.7-6.1
		c0.7-3.4,2-6.7,3.1-10.1c0.9-1.2,2.2-1.7,3.6-2.2c1.7,2.3-0.9,4.6,0.1,7.1c4.2-1.1,3.3-6.5,6.7-8.1
		C448.7,460.4,449.6,458.4,451.2,459.1z"/>
	<path class="st19" d="M542.9,456.2c-2.4,3-3.2,6.6-3.9,10.2c-0.7,3.5-2.5,4.7-6,4.3c-2.5-0.3-2.9-1.3-2.5-3.5
		c0.9-4,2.6-7.6,4.6-11.1C537.8,456.2,540.3,456.2,542.9,456.2z"/>
	<path class="st19" d="M518.5,456.2c-2.7,3.8-5.6,7.5-6.3,12.4c-0.5,3.4-3,3.5-5.5,3c-3.1-0.7-1.4-2.8-1.2-4.6
		c0.5-4.5,3.3-7.6,6.1-10.8C514,456.2,516.3,456.2,518.5,456.2z"/>
	<path class="st19" d="M495.1,456.2c-2.9,2.6-4,6.1-4.7,9.7c-0.3,1.5-0.6,2.8-2.5,2.9c-1.7,0.1-3.5,1.9-4.9,0.2
		c-1.4-1.6,0-3.4,0.8-4.9c1.4-2.7,3-5.3,4.5-7.9C490.6,456.2,492.8,456.2,495.1,456.2z"/>
	<path class="st7" d="M421.9,495.1c2.5-6.6,5-13.2,4.9-20.4c0-0.8,0.2-1.6,1-2.1c-0.3,5.6,0,10.9,3.8,15.5c0.5,0.6,0.8,1.5,0.7,2.2
		C431.9,492.2,424.1,495.7,421.9,495.1z"/>
	<path class="st19" d="M470.7,457.2c-1.6,2-2.7,4.2-3.2,6.9c-0.3,1.6-0.4,4-2.4,4.3c-2.1,0.3-4.8,2.1-6.3,0.6
		c-1.3-1.3,0.9-3.4,1.7-5.1c0.9-2,2.3-3.9,3.4-5.8C466.2,458.3,468.2,456.3,470.7,457.2z"/>
	<path class="st19" d="M447.2,460.1c-1.6,3.2-2,7.2-5.4,9.4c-0.8,0.5-1.7,1.3-2.6,0.7c-0.9-0.6-0.7-1.7-0.5-2.6
		c0.5-2.2,1.2-4.3,1.8-6.5C442.8,461.2,444.8,459.2,447.2,460.1z"/>
	<path class="st7" d="M427.7,472.7c-0.3-5.9,2.2-11.7,0-17.6c4.3,1.8,5.7,4.9,4,8.6C430.4,466.6,429.1,469.7,427.7,472.7z"/>
	<path class="st2" d="M353.6,544.8c-0.7,5.1,4.1,4.9,6.6,6.8c-5.5,1-11,2.1-16.5,3.1c2.6-4.5,6.4-7.9,9.8-11.7
		C353.6,543.6,353.6,544.2,353.6,544.8z"/>
	<path class="st2" d="M369.2,515.5c-0.4,2.4,2.1,3.1,2.7,4.9c-1.9,1-3.8,2.1-5.8,3.1c0.7-2.9,1.3-5.9,2-8.8
		C368.5,514.9,368.9,515.2,369.2,515.5z"/>
	<path class="st17" d="M373.1,556.5c2.3,1.7,0.2,2.5-0.9,3c-8.4,3.9-17,5.4-25.9,1.2c-1-0.5-2.4-0.7-2.4-2c0-1.5,1.1-2.1,2.6-2.1
		c7.5,3.2,14.9,3.2,22.3-0.1C370.2,556,371.7,555.7,373.1,556.5z"/>
	<path class="st18" d="M373.1,556.5c-4.1,1.3-8.1,2.9-12.3,3.7c-5.1,0.9-10.2,0.6-14.2-3.6c1.1-1.7,2.7-0.8,4.1-0.8
		c5.7,1.4,11.1-1.1,16.6-1.2C369.2,555.1,371.9,553.7,373.1,556.5z"/>
	<path class="st19" d="M367.3,554.6c-5.4,2.1-10.8,4.8-16.6,1.2C356.1,554.8,361.5,552.4,367.3,554.6z"/>
	<path class="st17" d="M378.1,539c3.7,2.3,0.9,4.3-0.9,4.6c-5.8,1-11.4,3-17.5,2.3c-1.6-0.2-3.5-0.4-4-1.8c-0.5-1.4,1.4-2.3,2.5-3.1
		C365,542.3,371.7,541.9,378.1,539z"/>
	<path class="st18" d="M378.1,539c-4.1,4.5-15.5,5.6-19.8,2c0.7-1.2,2-1.3,3.1-1.8c4.6,0,9-2,13.7-1.2
		C376.1,538.3,377.5,537.5,378.1,539z"/>
	<path class="st19" d="M375.1,538c-4.6,0-8.9,3.7-13.7,1.2C365.7,536.3,370.3,536.4,375.1,538z"/>
	<path class="st18" d="M386.7,507c1.1-0.1,2.4-0.7,3.1,0.8c-3.7,6.9-14,9-18.7,3.8c0.6-1.4,1.9-0.6,2.9-0.9
		C378.4,510.1,382.7,509.1,386.7,507z"/>
	<path class="st17" d="M371.1,511.6c7.3,3.3,13.5,2.1,18.7-3.8c1.7,1,0.5,1.9-0.3,2.6c-4.6,4-9.9,6.1-16,5.1
		C372,515.2,368.3,515,371.1,511.6z"/>
	<path class="st19" d="M386.7,507c-3.5,3.8-8.1,3.9-12.8,3.7C378.1,509.2,382.2,507.3,386.7,507z"/>
	<path class="st17" d="M385.9,522.4c2.2,3-0.5,4-2.2,4.9c-4.8,2.5-10.2,2.4-15.4,1.8c-2.8-0.3-2.7-2.3-0.3-3.7
		C374.1,525.5,380.1,524.3,385.9,522.4z"/>
	<path class="st18" d="M385.9,522.4c-5.5,4-11.4,5.2-17.9,2.9c0.6-1.2,1.5-2.1,3-2c4.3-0.6,8.4-2.6,12.9-2
		C384.7,521.5,385.6,521.3,385.9,522.4z"/>
	<path class="st19" d="M383.9,521.4c-4.2,1.1-8.4,2.5-12.9,2C375.1,521.6,379.1,518.9,383.9,521.4z"/>
	<path class="st18" d="M597.8,461.9c2.7-0.3,4.9-2.3,8.2-1.8c-1.6,5.1-5.2,9.2-5.9,14.5c-0.1,0.8-0.5,1.6-0.4,2.3
		c0.8,4.9-1.9,5.9-5.9,5.6c-1.8-1.3-0.5-3.6-1.8-5c4.2-3.4,5.3-6.9,3.6-11.8C595.3,463.9,597.3,463.3,597.8,461.9z"/>
	<path class="st19" d="M595.6,465.7c0.8,0.2,2.1,0.2,2.2,0.5c0.8,3.3-1.1,6.3-1.5,9.5c-0.3,2.2-2.7,1.7-4.4,1.8
		C591.3,473,593.2,469.3,595.6,465.7z"/>
	<path class="st20" d="M644.4,451.3c1.6-0.9,3.3-1.8,4.9-0.4c1.7,1.4,0.9,3.1,0.3,4.9c-4.6,13-13.5,22.3-25.1,29.3
		c-0.8,0.5-2.1,2.2-3.2,0.3c-0.5-0.7-0.1-1.6,0.8-2c2.1-4.6,6.9-6.7,10-10.4C637.6,466.5,642.1,459.5,644.4,451.3z"/>
	<path class="st17" d="M644.4,451.3c0.7,6.9-3.4,11.9-6.9,17c-4.1,6-9.3,11.1-15.4,15.1c0.3-1.4-0.8-3,0.9-4
		c6.6-7.6,12.8-15.6,16.6-25.1C641.5,453.7,641.9,450.8,644.4,451.3z"/>
	<path class="st18" d="M639.6,454.3c-0.8,8-5.9,13.7-10.6,19.6c-1.7,2.1-3.4,4.3-6,5.5c0.3-2.3,1.5-4,2.9-5.8
		c3.3-4.4,6.3-8.9,8.8-13.7C635.2,457,637.4,455.6,639.6,454.3z"/>
	<path class="st19" d="M634.7,459.9c-1.5,5.5-4.3,10.1-8.8,13.7C627.8,468.4,631.2,464.1,634.7,459.9z"/>
</g>
</svg>
