<?xml version="1.0" encoding="utf-8"?>
<!-- Generator: Adobe Illustrator 23.0.1, SVG Export Plug-In . SVG Version: 6.00 Build 0)  -->
<svg version="1.1" id="Layer_4" xmlns="http://www.w3.org/2000/svg" xmlns:xlink="http://www.w3.org/1999/xlink" x="0px" y="0px"
	 viewBox="0 0 1000 1000" style="enable-background:new 0 0 1000 1000;" xml:space="preserve">
<style type="text/css">
	.st0{fill:#FE9E00;}
	.st1{fill:#1D2329;}
	.st2{fill:#3D4856;}
	.st3{fill:#647283;}
	.st4{fill:#878A9A;}
	.st5{fill:#DBDCE5;}
	.st6{fill:#512800;}
	.st7{fill:none;}
	.st8{fill:#7F4000;}
	.st9{fill:#0F1215;}
	.st10{fill:#D86C00;}
	.st11{fill:#FEFE00;}
	.st12{fill:#FEFEFE;}
	.st13{fill:#331A00;}
</style>
<g>
	<path d="M736.1,489.8L736.1,489.8c-0.1,0-0.1,0-0.2,0c-0.1,0-0.2,0-0.4,0.1c0,0,0,0,0,0c-7.2,1.5-14.3,3.2-21.7,1
		c-6.1-1.8-9.1-5.3-9.3-11.4c-0.2-5.9,2.9-10,8.8-11.9c6.7-2.2,13.4-1.6,20.1-0.1c0.2,0,0.3,0.1,0.5,0.1c0,0,0.1,0,0.1,0h0
		c4-1.3,8-2.5,10.2-6.6c-8.8-6.1-18.6-5.2-28.5-4.4c-7,0.6-12.5,5.3-19.6,6.1c-8.1,0.9-15.1,5.9-23.1,7.5c-3,0.6-5.3,1.8-3.4-3.1
		c1.1-2.9,1.5-6.1,1.7-9.3c0.4-7.8,2.8-15.5,0.4-23.3c-3.2-10.3-10.7-16.1-21.5-10.1c-11.3,6.2-20.3,15.1-28.2,25.1
		c-6.6,8.3-6.6,8.9-16.5,5.7c-11.9-3.9-24.1-6.1-36.5-7.8c-8.3-1.1-16.9-2.1-25.1-0.6c-5.8,1.1-8-0.5-10-5.1
		c-3.2-7.1-6.8-14.1-12.8-19.2c-11.5-9.8-25.9-13.2-40.2-16c-9.7-1.9-19.4-3.1-29.2-4.3c-21.1-2.5-30.5,1.7-39.7,19
		c-6.1,11.5-10.3,23.8-13.7,36.4c-0.6,2.1-1,2.7-3.6,1.8c-14.3-4.6-29.2-5.6-44-7c-13.4-1.3-26.8-1.6-40.3-1
		c-7.9,0.3-15.5,2.2-20.9,8.6c-7.6,9-10.2,20.1-11.4,31.5c-1.5,14.9-0.8,29.8-1.1,44.7c-0.1,5.7,0.8,11.2,2.1,16.5
		c1.9,7.2,8.8,12.4,16.5,5.7c8.1-7,16.3-13.8,24.5-20.7c2.1-1.8,4-3.7,6.1,0.3c1,1.8,2.9,3.1,5.1,3.2c11.4,0.5,23-0.4,30.4-10.2
		c8.2-10.7,19.7-12,31.4-13.9c-2.1,3.9-4.6,7.4-7.9,10.2c-8,6.7-16.2,13.1-23.4,20.7c-5.8,6-7.4,13.4-4.5,21.1
		c4.4,11.7,11.8,21.4,22,28.6c5.4,3.8,11.6,6.1,18.3,1.5c5.3-3.5,7.4-7.1,6.5-13.6c-0.4-2.5,0.8-2.6,2.9-1.9
		c7.4,2.7,11.1,1.2,14-6.2c1.3-3.2,2.7-3.3,5.6-2.6c3.5,0.9,7.2,1.1,10.8,1.5c6.7,0.7,13-1.2,19.3-4.1c-0.1,16.1,2.4,31.3,5.9,46.4
		c3.8,16.4,12.9,28.5,29.4,33.3c12.1,3.5,24.4,3.6,36.6-0.4c14.7-4.8,22.4-13.8,15-30.1c-6.9-15.3-14.2-30.4-18.4-46.7
		c-3.1-12-9.1-23.3-8.1-36.3c0.3-4.6-0.5-9.3-1.4-13.8c-0.4-2.2,0.7-3.2,1.6-4.5c0.5-0.7,1.2-0.7,1.9,0.2
		c7.7,11.2,19.7,13.8,31.9,14.8c13,1,25.7-1.9,38.4-4.2c12.6-2.3,24.1-7.8,36-11.9c3.2-1.1,6.4-2.5,9-5c7.1-6.7,15.4-11.6,24.2-15.4
		c7.3-3.2,14.6-4.1,22.7-2.7c6.4,1.1,13,3.6,19.7,1.3c1-0.3,2.5-0.2,3.3,0.3c8.3,5.9,17.8,4.7,26.9,4.2c4.7-0.2,10-1.5,13.5-5.6
		C743.3,492.3,739.9,490.8,736.1,489.8z M446.5,435.5c0.6-2.8,2.2-5.2,6-4.9c10.9,0.9,21.8,1.5,32.5,4.3c4.5,1.2,9.7,2.5,10.1,9.3
		c-10.5-2.8-17.5,0.6-22.3,10.5c-0.9,1.8-6.3,2.1-8.3,0.4c-4.5-4-9-7.9-14.1-11.3C447.7,442,445.8,438.8,446.5,435.5z M642.9,469.6
		c-0.8,0.4-2.2,0.4-2.5-0.7c-0.7-2.7,2.5-2.9,3.5-4.7C644.5,466.2,645.3,468.4,642.9,469.6z M460,540.7c0,6.7-9.5,15.3-15.9,14.9
		c-1.4-0.1-2-0.3-1.3-2c1.8-4.5,2.9-9.2,5.4-13.5c1.5-2.6,3.5-4,6.4-4.1C458.1,536,460.8,536.7,460,540.7z"/>
	<path class="st0" d="M745.3,496.1c-2.9-2-5.9-3.9-8.8-5.9c-4.4-2-8.9-4-9.1-9.8c0.4-0.3,0.9-0.4,1.4-0.3
		c9.3,4.9,18.3,10.4,28.2,14.1c0,0.1-0.2-0.1-0.5-0.4c-6.8-8-6.5-8.6,3.7-10.6c7.8-1.5,15.5-3.2,22.9-4c-9.4-0.6-19.2-2.5-29.1-3.5
		c-4.3-0.5-5-2.4-2.7-5.9c1.4-2.1,3.5-3.7,4.8-6c-9.3,3.2-18.1,7.3-27.3,10.2c-1.4-5,3-5.3,5.7-6.9c3.3-2,6.6-4,9.9-6
		c5-0.1,9.5-2.6,14.2-3.9c6.8-1.8,13.5-3.9,20.9-5c-6.2,5.9-12.4,11.8-19.7,18.6c21.9,2.8,42.4,5.4,64,8.1
		c-6.5,2.3-12.2,2.7-17.9,3.6c-14,2.4-28,4.6-41.9,6.9c-2.9,0.5-1.7,1.9-0.4,3.2c5.5,5.2,9.8,11.6,15.5,16.8
		C767.5,505.5,756.8,499.8,745.3,496.1z"/>
	<path class="st1" d="M387.7,470.7c-7.8,7.6-9.6,16.3-6,26.6c1.7,5,5.8,7.1,9.8,10.4c-4.7,2.6-9.4,4.3-14.5,3.9
		c-5.4-0.4-9.2,1.5-12.8,5.4c-4.2,4.4-8,9.4-13.9,12.1c-4.4,2-9,2.4-13.6,3.2c-3.9,0.6-5.6-1.1-5.7-5.1c-0.1-2.6,1.6-6.5-1.2-7.6
		c-2.7-1.1-5,2.5-7.1,4.2c-10.3,8.6-20.4,17.4-30.6,26.2c-0.9-0.6-1.3-1.6-1.2-2.5c0.9-9.7,1.7-19.4,6.9-27.9c5.5-9,14-13,24.4-13.1
		c1.3,0,2.6,0.3,3.8-0.4c16.3,2,32.6,0.3,48.9,0.5c-24.9-3.9-50.1-4.7-75.2-5.6c-4-6.3-2.5-22.2,2.5-27.4c0.7-0.7,1.5-1.2,2.6-1.1
		c2,1.3,4.2,1.3,6.5,0.9c13.1-2.2,26.1-0.4,39.1,0.7c2.3,0.2,4.5,0.3,6.7-0.4c0.3-0.1,0.6-0.2,0.9-0.2c9.4,1,18.5,0.2,27.3-3.3
		C386.2,469.9,387,470.1,387.7,470.7z"/>
	<path class="st2" d="M499.1,643.6c-1.4,0.1-2.8-0.1-4-1c-6.6-3.5-9.8-9.8-12.9-16.1c-5.5-11.6-7.9-24-9-36.7
		c-0.7-8.2-1.5-16.5,0-24.7c0.4-2.1,0-4.3,2.1-5.6c2.7,0.2,2.3,2.4,2.4,4c1.4,21,6.8,41,14.3,60.5c1.7,4.4,8.3,7.1,12.6,5.3
		c2.3-1,1.4-2.7,0.9-4.1c-1.9-5-4-10-5.7-15.1c-6-17.7-11.9-35.5-15.3-53.9c-0.5-2.4-0.8-4.8,0.1-7.2c3.3-4.8,8.2-5.3,13.4-5.1
		c1,0.1,2,0.1,3,0.2c1.3,1.9,1.9,4,2.3,6.3c3.9,22.5,9.3,44.6,17.1,66c1.7,4.6,4.2,8.8,6.2,13.2c2.6,5.8,1.2,9.8-4.7,12
		C514.6,644.3,506.9,645.2,499.1,643.6z"/>
	<path class="st1" d="M579.1,524.4c-3.3-0.1-6.4,1.6-9.7,1c-5.9-3.5-8.4-9.3-10.4-15.3c-1.4-4-2.1-8.2-3-12.3c-0.9-4.5-2.6-6-6-5.1
		c-4.2,1.1-2.6,4.3-2.1,6.8c1.5,7.6,5,14.4,9.5,20.6c1.4,1.9,3.6,3.4,3.2,6.3c-3.9,0.2-7.8,0-11.7-1c-9.1-7.7-16.9-16.2-16.7-29.2
		c0-1.9,0.2-3.6-2.5-3.7c-2.6,0-4,1.2-3.8,3.8c0.5,6.5,2.8,12.2,6.7,17.5c2,2.7,5.5,4.7,5.6,8.7c-12.2-4.1-18.1-13.3-20.5-25.3
		c-0.8-4-1.3-8-0.9-12c1.3-1.1,2.8-1.3,4.4-1.3c17.7-0.4,35.4-1.6,53.1-1.1c6.7,0.2,13.2,1.7,19.9,1.2c2.2,0.1,4.3,0.3,5.6,2.5
		c0,10,2.9,18.7,11.4,24.7c0.9,0.6,2.4,1.6,1.7,2.6c-1.1,1.8-3.3,2.4-5.4,2.8c-2.5,0.4-3.4-1.5-4.4-3.1c-2.3-3.3-4-7-5.3-10.8
		c-0.4-1.4-0.8-2.8-1.8-3.9c-1.3-1.3-3-2.3-4.8-1.4c-1.6,0.8-0.9,2.6-0.6,4c1.1,5.2,2.4,10.4,5.8,14.7c0.8,1,1.8,1.9,1.2,3.4
		c-3.4,1.6-7,2.5-10.7,2.9c-5.3-3.6-7.4-9.2-8.8-15.1c-0.7-3-1.1-6.1-1.4-9.1c-0.3-2.4-1.6-3.8-4-4.3c-2.7-0.6-4.1,0.4-3.8,3.2
		c1,7.8,2.5,15.4,7.6,21.7C577.8,520.5,579.6,521.9,579.1,524.4z"/>
	<path class="st2" d="M425.8,496.2c0.8-0.4,0.8-0.8,0-1.2c-5.3-1.9-9.5-5.6-13.4-9.4c-4.1-4-6.2-9-4.3-15c0.1-1,0.4-2.2,1.3-2.5
		c7.3-2.1,14.5-5.5,22.2-1.4c3.1,1.6,6.6,1.8,9.2-0.3c7.2-5.8,15.9-4.4,24-5.4c4.7-0.6,9.5-0.8,14,2.3c2.3,1.6,6.1,1.3,8.2-1
		c3.1-3.4,6.2-1.9,9.2-0.7c2.5,1,4.9,2.5,7.2,4c1,0.7,3.2,0.3,2.6,2.6c-0.6,2.2-2.2,2.6-4.2,2.4c-5.6-0.5-11.3-1.5-16.9-0.9
		c-12,1.3-24.1,1.3-36,3.7c-9.2,1.9-14.8,6.6-16.4,15.8c-1.4,7.6,1.2,11.5,8.7,13.4c7.3,1.8,14.7,1.7,22.1,2.9
		c1.6,0.2,3.3,0,4.5,1.4c-2.5,2-4.9,4.2-6.8,6.8c-9.1,11.9-21.6,16.6-36.2,16.9c-3.9,0.1-6.4-1.8-7.3-5.7
		c-1.4-6.4-2.9-12.7-0.6-19.2C418.4,501.1,420.9,497.5,425.8,496.2z"/>
	<path class="st2" d="M508.8,430.8c3.2,7.8,5.6,15.8,6.7,24.2c-6.7-0.1-11.6-4.1-13.1-9.7c-3.1-11.6-11.1-16-21.8-17.7
		c-12.8-2-25.7-3.4-38.7-3c-0.7,0-1.3,0-1.9-0.3c-2.4-3.1,1.1-5.9,0.3-8.9c-0.3,2.8-1.7,5.6-0.8,8.5c-4.7,3.8-6,9.7-8.6,14.8
		c-4.9,0.5-10.1,0.5-13.9,5c4.4-1.2,8.2-4,12.8-3.5c1.1,1.9,0.1,3.5-1,4.8c-5.5,6.3-11.7,11.9-18.7,16.5c-0.6,0.4-1.2,0.5-1.8,0.2
		c0.2-5.6,2-10.7,4.1-15.8c3.4-8.5,6-17.3,11-25.2c5.4-8.6,13.3-11.5,22.7-10.6c12.4,1.3,24.7,3.7,37,6.4c2.6,0.6,4.7,2,7.3,2.3
		c5.5,1.7,11.2,3.2,15.5,7.5C507.1,427.8,508.6,428.8,508.8,430.8z"/>
	<path class="st3" d="M520.5,485.3c-1.3,0-2.5-0.1-3.8-0.1c0.4-11.8,5.8-20.7,15.7-26.9c1.7-1,3.5-1.7,5.5-1.3
		c0.6,2.4-1.6,2.9-2.7,4.1c-3.3,3.4-7.4,6.3-8.6,11.7c4.4,0.4,7-1.5,9.2-4.7c3.7-5.4,7.9-10.3,14.1-13c2.5,0.4,5.3-1.1,7.6,0.9
		c-1.1,3.3-4,5.4-5.9,8.1c-1.4,2-3,3.8-3.4,6.5c4.1,0.5,7.2-0.8,9.5-4.2c2.7-4.2,6.3-7.3,10.8-9.4c3-0.6,5.7,0.6,8.5,1
		c0.7,2.2-1.1,3.2-2.2,4.4c-2.3,2.4-4.3,5.1-6.1,8.1c1.7,0.1,3.3,0,4.9,0.5c3,0.9,5.1-0.2,7.1-2.6c2.7-3.3,5.3-7,10.1-7.6
		c2.8,0.3,5.5,0.6,8,2.1c0.3,2.7-2.4,3.2-3.7,4.7c-1.2,1.5-2.9,2.5-3.5,4.8c3.6,1.7,6.6,2.2,9.2-1.7c1.5-2.2,3.8-4,6.6-4.7
		c1.7,0.1,5,0,2.4,2.5c-5.2,5.2-8.1,11.3-10.2,18c-1.6-0.4-3.3-0.8-4.9-1.1C570,480.8,545.2,481.1,520.5,485.3z"/>
	<path class="st4" d="M645,474.5c6.8,0.5,12.7,2.5,18.6,4.1c7.4,2,14.2,0.3,20.9-2.5c3.4-1.4,6.4-3.6,10-4.6c1.4-0.4,2.9-1.5,4-0.4
		c0.5,0.5,0.1,2.4-0.4,3.5c-1.8,3.7-1,7.4,0.6,10.6c1.6,3.3,0.1,3.7-2.5,4c-5.1,0.7-9.9-1.4-14.7-2.3c-9-1.7-17.2,0.1-25.1,3.6
		c-6.2,2.8-12.4,5.7-19.1,7.1c-6.5,1.4-11.9-1.5-14-7.8c-1.4-4.3,2.8-11.8,8-13.1C635.9,475.7,640.7,475.2,645,474.5z"/>
	<path class="st5" d="M499.1,643.6c7.2,0.2,14.3-0.5,21.2-2.8c6.9-2.3,8.2-4.9,5-11.1c-9.9-19.1-15-39.6-19.5-60.4
		c-1.8-8.4-3.4-16.7-4.7-25.2c7.8,3.2,9.9,10.4,11.5,17.5c4.7,21.9,13,42.6,21.8,63.1c1,2.3,2,4.6,2.7,7c1.1,4.2-2.9,9.1-9.3,10.8
		c-9.2,2.4-18.6,4.3-28.2,2C499.3,644.3,499.2,643.8,499.1,643.6z"/>
	<path class="st1" d="M497.9,508.8c-1.5,7.5-1.3,15.1-0.2,22.5c0.9,6.4,0,7.5-6.4,6.3c-7.4-1.4-14.8-0.6-22.1,0.8
		c-1.9,0.4-3.1,0.7-3.6-1.6c-1.2-6-2.3-12.1-1.6-18.2c0.4-3.1,2.8-5.3,5.2-6.8c8.9-5.7,18.5-7.7,28.8-4
		C498.4,508.3,498.3,508.6,497.9,508.8z"/>
	<path class="st1" d="M475.6,559.6c-1.4,6.5-2.5,13.1-1.9,19.7c0.9,10.1,1.4,20.3,3.9,30.2c3.2,12.4,8.2,23.9,17.4,33.1
		c-10.8-2-17.6-8.3-20.7-18.7c-4.3-14.4-7.7-29-8.7-44.1c-0.5-6.9-1.2-13.8-1.9-20.7c-0.5-4.4,1-8.7,1-13c0-3,2.6-3.6,4.4-3.6
		c9.6-0.3,19.4-1.8,28.8,1.4c-4.4,1.3-9.1,1.7-12.7,5c-1,0.1-1.9-0.2-2.9-0.4c-4.7-0.6-5.4,0-5.6,4.7
		C476.8,555.4,477.3,557.7,475.6,559.6z"/>
	<path class="st6" d="M408.2,530.3c4.7,5.2,10.7,6.9,17.4,6.8c2.5,0,3.3,0.7,2.1,3.1c-0.9,1.7-1.7,3.5-2.2,5.4
		c-1.3,5.1-2.2,10.1-8.1,12.4c-3.4,1.3-3.7,5-3.3,8.4c0,6.3-1.8,7.7-7,5.2c-5.6-2.7-10.2-0.6-11.5,5.5c-0.5,2.2-0.7,4.5-1.6,6.6
		c-2.2,5.5-6.2,6.2-9.9,1.6c-1.6-2-3.3-4.1-2.8-7c2.9-2.4,5-5.3,7-8.5c3.4-5.2,7.3-9.9,11.7-14.3c6.6-6.5,6.8-8.1,3.3-16.7
		c-0.4-0.9-0.7-1.8-0.7-2.8C403.7,533.4,404.4,530.3,408.2,530.3z"/>
	<path class="st7" d="M495,444.2c-10.5-2.8-17.5,0.6-22.3,10.5c-0.9,1.8-6.3,2.1-8.3,0.4c-4.5-4-9-7.9-14.1-11.3
		c-2.6-1.7-4.5-4.9-3.8-8.2c0.6-2.8,2.2-5.2,6-4.9c10.9,0.9,21.8,1.5,32.5,4.3C489.5,436.1,494.6,437.5,495,444.2z"/>
	<path class="st2" d="M634.5,471.7c-9.8,3.2-16,10.2-15.3,16.9c0.9,8.6,5.4,12.3,17.2,13.8c-2.1,1.8-3.8,3.7-5.9,5.1
		c-8.3,5.7-17.2,3.1-21.8-5.9c-5.7-11.1-3.1-20.3,3.8-29.3C617.8,465.2,626.8,465.1,634.5,471.7z"/>
	<path class="st1" d="M462,496.2c-8.3-0.3-14.5,0.4-20.6-1c-4.1-1-5.5-3.3-4.7-7.4c1.4-6.5,6-9.4,11.9-10.7c6-1.3,12.1-2.1,18.2-2.4
		c8.6-0.4,17.1-1.3,25.7-1.1c3.1,0.1,6,1.2,9.1,1.1c1.8-0.1,1.5,1,1.3,2.3c-0.7,4.9-2.7,9.7-1.8,14.8c0.3,1.6-0.9,1.4-1.8,1.5
		c-4.9,0.6-9.9,1.7-14.8,1.8C476.3,495.2,468.1,497,462,496.2z"/>
	<path class="st1" d="M425.8,496.2c-9.4,8.5-11.5,18.1-6.8,30.1c0.8,2,2.3,3,4.5,3c11.8-0.2,22.7-2.7,31.6-11.3
		c1.7-1.7,3.8-2.9,5.8-4.4c-1.6,5-3,9.9-1.3,15.2c0.7,2.2-1,2.4-2.6,2.4c-12.8-0.2-25.5,2.3-38.3,0.1c-4.2-0.7-6.8-2.6-6.6-6.8
		c0.2-4.8-1.7-8-5.8-10.4c-2.9-1.7-4.6-4.6-5-8c-0.6-4.8,2.3-8.2,8-8.9C414.8,496.6,420.4,496.5,425.8,496.2z"/>
	<path class="st2" d="M387.7,470.7c-9.8,4-19.8,5.9-30.4,4c-2.8,0.8-5.4-0.2-8-0.8c-12.3-2.8-24.9-3.2-37.5-3.7
		c-2.8-0.1-4.9,1.4-7.2,2.4c-6.6,7.5-6.3,16.4-5.3,25.5c0.1,0.9,0.3,1.9,0.4,2.8c-2,0-3.9,0-5.9,0c-2.6-1.6-2.3-4.1-2-6.5
		c0.7-5.3,1.5-10.6,2.8-15.8c2.5-9.7,7.7-14.2,17.8-15c4.7-0.3,9.5-0.4,14.1,0c9.5,0.8,19.1,1.3,28.6,2.5c7.3,0.9,14.6-0.1,21.9-0.5
		c1.3-0.1,2.6-0.4,3.8,0.3c2.2-0.4,4,0.8,6.1,1c1.2,0.1,2.8,0.4,3,1.7C390,469.2,388.5,470,387.7,470.7z"/>
	<path class="st4" d="M656.4,451.8c-1.4,5.4-2.8,10.7-4,16.1c-0.4,1.6-0.9,3.1-2.6,2.7c-2.5-0.5-0.8-2.1-0.6-3.3
		c1.1-5.8,2.1-11.6,3.2-17.4c0.4-2.2-0.9-4-1.2-6.2c-7.5,4.5-13.4,10.7-19.3,16.9c-2.4,2.5-4.6,3.2-7.4,0.8
		c8-9.1,15.9-18.3,25.5-25.8c2.9-2.3,6.7-4.7,10.1-2.4c4.2,2.9,4.6,8,4,12.7c-1,7.6-2.5,15.1-3.8,22.6c-0.3,1.6,0.3,4.1-2.9,3.6
		c-3.1-0.5-3.1-1.9-2.4-4.7c1.3-5.1,1.7-10.3,2.5-15.5C657,451.9,656.7,451.8,656.4,451.8z"/>
	<path class="st4" d="M734.4,467c-1.1,2.9-5.7,2.8-5.9,6.6c0.1,0.9,0.1,1.7-0.1,2.5c-0.5,1.4-0.1,3-0.7,4.4c1.1,4.9,6,6.4,8.8,9.8
		c-9.2,3.9-18.5,4.2-27.6,0.3c-4.4-1.9-5.3-6.6-5.6-10.8c-0.4-4.8,1.1-9.6,5.7-11.8C717.2,464.1,725.8,463.3,734.4,467z"/>
	<path class="st4" d="M380.9,465.8c-8.1,1.3-16.3,2.8-24.6,1.9c-13.8-1.5-27.6-3-41.5-2.9c-3,0-5.9,0.4-8.6,1.4
		c-4.9,1.8-8.3,4.8-9.6,10.5c-1.4,6-2.2,12-3.5,18c-0.4,2-0.4,4.2,0.8,6.2c-7.3,0.3-7.7,0.2-6.6-6.4c1-6.2,1.8-12.5,3.6-18.7
		c3.4-11.5,10.6-15.1,20.9-15.6c15.7-0.7,31.5,0.4,47.1,2.6c6.6,1,13.4,1.4,20,2C379.7,464.9,380.5,464.8,380.9,465.8z"/>
	<path class="st1" d="M439.4,423.8c17.5-1.5,34.6,0.4,51.4,5.3c4.9,1.4,8.8,4.9,10.2,10.2c2.1,7.8,6.9,13,14.5,15.6
		c0.9,4.5-3.2,5.7-5.5,7.8c-2,1.8-3.4-1.4-5.2-2.1c-5-1.8-6.4-4.8-5-9.9c0.7-2.4,0.2-5.2-0.2-7.7c-1-7-5.7-10.5-12.1-12.4
		c-6.8-2-13.9-3.2-20.9-3.8c-7.2-0.7-14.5-0.9-21.8-1c-8.2-0.1-14.1,7.6-11.7,15.4c0.9,3,0.6,4.6-2.1,6.3c-3.1,1.9-4.8,5.2-5,8.6
		c-0.3,3.8-2.5,4.8-5.3,4.8c-4.2,0-8.2,2.8-12.5,1c6.5-4.7,12.6-9.8,18.1-15.6c1.6-1.6,3.1-3.3,3.3-5.7c0-0.9,0.7-1.4,1-2.2
		C432.9,433.1,433.9,427.1,439.4,423.8L439.4,423.8z"/>
	<path class="st8" d="M381.9,578.1c0.4,2.8,1.8,5.2,3.7,7.2c3,3.2,5.5,2.7,7.1-1.4c0.9-2.2,1.3-4.7,1.9-7c1.9-7.5,6.6-9.9,13.1-6.2
		c5.5,3,5.3-1.4,6.4-4.3c1.8,1.6,0.8,3.7,0.9,5.5c0.1,2-0.6,4-2.5,5c-2.1,1.1-3.1-1.1-4.4-2.2c-2-1.8-3.4-4.5-7-2.8
		c-3.3,1.6-4.8,4.2-4.7,7.8c0,0.5-0.1,1,0,1.5c1.6,4.9,0.5,8.5-4.8,10.2c-3.3,1.1-9-1.2-11.7-5c-0.7-1-1.4-2.2-2.1-3.2
		c-2.7-3.6-5.3-7.3-7.4-11.3c-3.3-6.4-3.3-12.3,1.2-18.2c5.5-7.3,12.5-13,19.7-18.6c5.9-4.6,10.3-10.1,12.1-17.5
		c4.1,3.3,3.2,8.5,4.8,12.8c-2.6,1.2-3.3,3.9-4.9,5.9c-8.5,0.8-14.8,5.2-19.8,11.8c-2.3,3.1-5.2,5.8-7.5,9
		c-3.2,4.7-3.1,7.1-0.1,12.1C377.8,572.1,381.5,574,381.9,578.1z"/>
	<path class="st1" d="M396.5,472.6c3.7,0.2,6.1,1.5,5.9,5.9c-0.1,4-0.7,8.1,0.8,12.1c0.1,0.3,0.2,0.7,0.1,1c-2.4,3.9-6.6,6.7-7.2,12
		c-0.1,0.8-5.4-1-7.2-3.3c-4.7-6.1-4.1-18.5,0.9-24.3C391.5,474,393.6,472.5,396.5,472.6z"/>
	<path class="st1" d="M467.8,506.8c-9.3-0.3-18.7-1-27.8-3.1c-7.1-1.6-12.3-7.7-7.5-14.6c0,5.3,2.7,8.6,7.7,9.8
		c7.6,1.8,15.2,2.8,23,1.3c5.4-1,10.9-0.4,16.4-1.1c6.5-0.9,13.2-1,19.7-2.1c1.8-0.3,3.6-0.2,4.4,2c1.5,4.6,3.8,8.6,7.6,11.7
		c1.1,1,1.5,2,0.3,3.3c-1.3,1.4-1.7,0.3-2.5-0.6c-11.4-13.1-24.1-15.5-39.6-7.7C468.9,506.2,468.3,506.5,467.8,506.8z"/>
	<path class="st2" d="M326.1,505.9c-1.8,1.8-4.3,1.2-6.4,1.5c-14.6,2.1-22.6,10.7-25.2,24.8c-1.1,5.8-2.9,11.6-2.4,17.7
		c-3.2,3-4.5,1.4-4.9-2.1c-0.1-1.3,0-2.5,0-3.8c-0.6-10.6,0.8-20.9,4.7-30.8c2.5-6.1,8.2-6.6,13.7-7.2
		C312.4,506,319.2,506,326.1,505.9z"/>
	<path class="st9" d="M560.5,526.3c-6.6-8.3-12.3-17-14.3-27.7c-1.3-6.6,1.5-9.3,8.1-7.4c1.7,0.5,2.1,1.7,2.4,3.2
		c0.6,3.5,1.4,6.9,2.1,10.4c1.5,7.9,5.5,14.4,10.6,20.4C566.4,525.7,563.6,526.9,560.5,526.3z"/>
	<path class="st5" d="M508.8,430.8c-5.1-5.7-11.9-8.6-18.5-11.8c14.7,1.3,25.7,8.2,32.5,21.3c2,3.9,3.7,8.1,6,11.8
		c2,3.1,0.1,4-2,4.7c-5.5,2-8.6-0.4-9.5-6.2C516.4,443.3,513.7,436.5,508.8,430.8z"/>
	<path class="st9" d="M579.1,524.4c-7.1-7.5-10.4-16.6-11.5-26.7c-0.2-1.8-1.5-4.8,1.5-5.3c3-0.5,6.4-0.5,8.3,3.1
		c1.2,2.3,0.8,4.8,1,7.2c0.7,7.6,4.3,13.8,8.5,19.8C584.6,524.1,581.4,522.8,579.1,524.4z"/>
	<path class="st9" d="M538.1,522.5c-3-3.8-6-7.6-8.9-11.5c-3.3-4.5-4.1-9.8-4.8-15.1c-0.7-5.1,2.8-4.7,6.2-4.8
		c4.3-0.2,3,2.2,2.7,4.7c-1,8.4,3.6,14.8,8.4,21c2.3,2.9,4.7,5.7,7.1,8.6C545.1,525.2,541.4,524.5,538.1,522.5z"/>
	<path class="st1" d="M518.3,510.5c-7.3-2.5-13.4-15.2-12.4-26.2c1-11,6.3-21.4,16.5-23.2c-6.4,7.2-9.2,15.2-9.7,24
		C512.2,493.9,513.8,502.3,518.3,510.5z"/>
	<path class="st1" d="M438.8,567.4c-5.7,0.3-11.2-1.1-16.7-2.1c-1.2-0.2-2.7-0.6-2.9-2.2c-0.2-1.9,1.4-2.2,2.8-2.7
		c3.8-1.4,7.8-1.3,11.5-0.5c8.8,1.8,16.7,1,23.4-5.4c0.7-0.6,1.4-1.8,2.4-1.1c1.2,0.7,0.6,2,0.4,3.1c-1.2,5.9-7.8,10.5-16,11
		C442,567.5,440.4,567.4,438.8,567.4z"/>
	<path class="st9" d="M597.6,519.5c-4.7-4.8-7-10.7-8.1-17.1c-0.4-2.4-2-5.3,0.8-6.9c2.2-1.3,7.1,1.9,8.1,5.1
		c1.4,4.7,3.3,9.1,6.1,13.1c0.8,1.2,1.7,2.4,3,3C604.5,518.6,601,519,597.6,519.5z"/>
	<path class="st7" d="M460,540.7c0,6.7-9.5,15.3-15.9,14.9c-1.4-0.1-2-0.3-1.3-2c1.8-4.5,2.9-9.2,5.4-13.5c1.5-2.6,3.5-4,6.4-4.1
		C458.1,536,460.8,536.7,460,540.7z"/>
	<path class="st4" d="M497.9,508.8c0.1-0.3,0.2-0.6,0.2-0.9c5.4,1.7,7.8,6.1,8.6,11.1c1.1,6.6,1.4,13.4,2.1,20.1
		c0.2,1.7,0.6,3.4,0.9,5.2c-7.8-3.4-7.9-3.4-7.7-11.3C502.2,524.5,499.6,516.8,497.9,508.8z"/>
	<path class="st10" d="M403.4,517.5c-0.5,10.6-8.2,16-15.7,21.5c-5.9,4.4-10.8,9.6-15.2,15.4c-4.1,5.4-4,10.7-1.2,16.3
		c2.1,4.2,4.4,8.2,6.6,12.3c-6.1-5.2-10-12-12.5-19.4c-1.3-3.8,0.7-7.4,3.4-10c7.6-7.2,15.4-14.2,23.4-20.8c4.8-4,9.2-8.6,10.1-15.3
		c0-0.1,0.2-0.3,0.3-0.3C403,517.2,403.2,517.4,403.4,517.5z"/>
	<path class="st9" d="M590.8,460.8c-3.9,2.8-7.9,5.6-10.4,10c-1.3,2.2-3.6,2.4-5.6,1.8c-2.5-0.7-5.1-0.8-7.7-1
		c1.7-5.7,6.7-9,9.9-13.5C581.6,458.9,586.4,459.1,590.8,460.8z"/>
	<path class="st4" d="M305.5,506c-1.2,1.6-3,0.6-4.5,1.2c-5.3,1.9-8.5,5.3-9.8,10.8c-2,8.6-3.2,17.3-4.2,26c-1.5-0.6-0.9-1.9-1-2.9
		c0-10,0-20-0.1-30c0-3.8,1.4-5.5,5.4-5.2C296.2,506.1,300.9,505.9,305.5,506z"/>
	<path class="st9" d="M549.9,455.1c-5.7,4.9-11.1,10.2-15.4,16.5c-2.1,3.2-6.1,2.9-10,2.8c1.7-7,6.5-11.3,11.5-15.3
		c0.7-0.6,1.7-1,1.9-2C541.9,456.3,545.8,454.9,549.9,455.1z"/>
	<path class="st9" d="M568.5,457.1c-4.4,4.3-9,8.5-12.8,13.5c-1.5,2-6.1,1.6-10,2.4c2.7-7.3,6.6-12.6,11.9-17
		C561.2,456.1,564.9,455.7,568.5,457.1z"/>
	<path class="st1" d="M408.1,470.7c-0.8,10,5.8,15.4,12.8,20.6c1.7,1.2,3.7,1.9,4.9,3.8c-5.7,0-11.2-3-17.1-1.3
		c-1.4,0.4-2.4-0.6-2.4-1.8C406.8,484.9,404.5,477.5,408.1,470.7z"/>
	<path class="st2" d="M445.3,456c0,4.7-4.2,8.8-9.1,8.9c-3.7,0.1-7.4-3.3-7.4-6.9c0-4.9,4.8-10.8,8.9-10.7
		C441.3,447.4,445.3,451.9,445.3,456z"/>
	<path class="st9" d="M607.5,465.9c-2.4,3.2-6.4,4.8-8.3,8.6c-0.9,1.9-2.6,0.4-3.9,0.2c-1.9-0.4-3.8-0.8-5.8-1.3
		c1.5-4.9,6-7.2,9.3-10.5C601.9,463.3,604.9,464,607.5,465.9z"/>
	<path class="st2" d="M488.3,452.7c-0.1,4.8-3.4,8.5-7.3,8c-3-0.4-5.5-1.9-5.4-5.7c0.1-4.6,3.5-7.9,8.1-7.8
		C487.8,447.3,487.9,450.4,488.3,452.7z"/>
	<path class="st1" d="M446,536.4c-2.8,5.3-6,10-7.2,15.6c-0.2,0.9-0.9,1.8-2.1,1.4c-1.2-0.4-1.2-1.5-1-2.4c0.8-4.3,1.8-8.6,3.8-12.5
		C440.6,536,443.1,535.9,446,536.4z"/>
	<path class="st1" d="M444.1,446.7c6.3,1.1,9.6,6.3,15,9.7c-2.3,0.7-3.9,1.4-5.5,1.6c-2.7,0.3-5.4,0.9-5.6-3.6
		C447.9,451.5,445.9,449,444.1,446.7z"/>
	<path class="st4" d="M444.4,430c-1.5,3.7-2.9,7-1.4,11c0.6,1.7-2.3,1.8-3.8,2.5c-2.2,1-2.1-1-2.4-1.7
		C435.1,437.3,438.9,431.4,444.4,430z"/>
	<path class="st4" d="M647.4,451.3c0,5.1-3.9,7.3-6.7,9.9c-1.9,1.7-3.5,6.8-6.8,3.3c-1.3-1.4,2.8-4.4,4.9-5.8
		C641.9,456.6,643.9,453.4,647.4,451.3z"/>
	<path class="st1" d="M496,452.7c-0.5,1.2-0.4,3.6-2.6,3.7c-2.1,0.1-2.3-1.9-2.2-3.6c0-0.5-0.1-1-0.1-1.4c-0.1-1.3-2-2.5-0.6-3.8
		c0.8-0.7,2.1,0.1,3.2,0.5C495.7,448.9,496.3,450.3,496,452.7z"/>
	<path class="st7" d="M642.9,469.6c-0.8,0.4-2.2,0.4-2.5-0.7c-0.7-2.7,2.5-2.9,3.5-4.7C644.5,466.2,645.3,468.4,642.9,469.6z"/>
	<path class="st11" d="M727.7,475.6c-0.2-0.8-0.2-1.7,0.8-2.1c8.2-4.6,17.3-7,25.9-10.6c1.5-0.6,2.9-1.2,4.8-1.9
		c-1.7,4.3-5.2,6.8-7.5,10.1c-1.7,2.4-0.5,3.3,1.5,3.4c8.2,0.5,16.3,2.1,24.4,3c2.6,0.3,5,1,8.7,1.4c-7.5,2.6-14.4,3-21,4.5
		c-1.3,0.3-2.5,0.6-3.8,0.9c-3.1,0.6-6.4,0.4-9.1,2.4c2.1,2.6,4.1,5.3,6.2,7.9c0.5,0.6,1.1,1.2,1.4,2.1c-11-4.5-21.9-9-31.6-16
		c1.8-1.9,3.7-0.7,5.4-0.1c3.7,1.3,7.4,2.4,11.1,3.5c0.2-4.4,1.6-5,12.3-5.3c0.7,0-0.2-0.7,0-0.1c0.1,0.2,0,0.3-0.3,0.3
		c-3.5-0.4-7.1-0.1-10.6-1c-3-0.8-4.4-1.9-2.2-5C738.6,474.1,733.4,476.6,727.7,475.6z"/>
	<path class="st12" d="M727.7,475.6c6.2-1.9,12.8-2.1,19.5-5.3c-1.5,2.5-2.5,4.1-3.5,5.8c5.1,1.9,10.7,0.9,15.7,2.9
		c-4.4,1.8-9.4,0.8-14.3,2.7c1.5,1.6,2.6,2.8,4.2,4.5c-6.5-1.2-12-3.1-17.5-5.1c-1.1-0.4-2.1-0.7-3.3-0.4c-0.3-0.1-0.5-0.2-0.8-0.2
		C726.3,478.8,726.3,477.2,727.7,475.6z"/>
	<path class="st9" d="M327.1,483.4c13.6,1.2,28,2.6,42.4,3.9c2.1,0.2,3.5,0.8,3.5,3.1c0,2.9,1,5.4,2.1,7.9c1.2,2.5-0.1,2.9-2.1,2.5
		c-14-3-28-6-42-9.2c-2.9-0.7-5.7-2.3-8.4-3.7c-1.1-0.5-2.9-0.9-2.7-2.4c0.2-1.7,2-1.9,3.4-2C324.2,483.3,325.2,483.4,327.1,483.4z"
		/>
	<path d="M304.6,472.6c0.8-3.1,2.7-4,6-3.9c15.8,0.4,31.5,1.2,46.7,6c-2.2,1.7-4.8,1.2-7,0.7c-7.8-1.8-15.8-0.2-23.7-1.6
		c-5.9-1-11.9,0.4-17.8,1.6C306.5,475.8,304.5,475.8,304.6,472.6z"/>
	<path class="st9" d="M475.6,559.6c0-2.3-0.2-4.6,0-6.8c0.2-1.9-1.2-4.9,1.4-5.5c2.7-0.6,6.2-1.8,8.4,1.6c-0.2,11,3.7,21.2,6.5,31.6
		c4.3,15.7,9.3,31.2,15.8,46.2c1.3,3.1,0.5,4.2-2.7,4.2c-1.6,0-3.2,0-4.9,0c-4.9-0.1-8-1.9-9.8-7.2c-5.4-15.1-9.8-30.3-12.5-46.1
		c-0.7-4.3-0.9-8.6-1.3-13C476.4,562.9,477.3,561,475.6,559.6z"/>
	<path d="M520.5,485.3c4.5-2.9,9.7-2.6,14.6-3.3c19.5-2.8,38.9-2,58.2,2.3c0.6,0.1,1,0.6,1.5,0.9C570,483.6,545.2,484.6,520.5,485.3
		z"/>
	<path d="M419.9,518.6c-2-7.2-0.2-10.2,6.7-9.7c5.6,0.5,11.3,1.1,16.9,0.8c3.1-0.1,2.7,2,2.9,3.9c1.3,3.9-0.6,5.7-4.3,6.4
		c-5.3,1.1-10.7,0.9-16,1.6C423.5,522,421.4,520.8,419.9,518.6z"/>
	<path class="st1" d="M419.9,518.6c6.9,3.8,13.9,0.3,20.8,0.2c3.6-0.1,6.2-0.7,5.7-5.1c1.4,4.5,0.2,7.5-4,9.3
		c-6.3,2.6-12.6,2-18.9-0.2C421.6,522,420.1,520.8,419.9,518.6z"/>
	<path d="M430.6,438.4c1.3,1.4-0.3,1.6-1,2.2c-4.6,1.8-9.5,2.9-13.9,5.4C415.7,440.2,423.6,436.3,430.6,438.4z"/>
	<path d="M430.4,419c1.5,0.6,3.4,1.5,2.8,3.3c-0.5,1.7-2,3.5-4.2,3.4c-1.7-0.1-3.4-1.4-2.8-3.1C426.7,420.8,428.2,419.3,430.4,419z"
		/>
	<path d="M439.5,423.8c-1.9-2.9-0.9-6.1-0.6-9.2c0.1-0.8,0.5-2.5,2.1-2c1.2,0.4,1.7,1.6,1.4,2.7C441.4,418.2,440.4,421,439.5,423.8
		C439.4,423.8,439.5,423.8,439.5,423.8z"/>
	<path d="M657.6,478.3c-1.1,3.6-2,6.3,0.3,8.9C652.2,483.6,652.2,482.7,657.6,478.3z"/>
	<path class="st13" d="M381.9,578.1c-2.3-2.7-4.7-5.3-6.8-8.2c-2.4-3.4-4.5-7.1-1.6-11.1c5.2-7.4,10.3-15,18.1-19.9
		c3.4-2.1,7.1-5,11.7-2.6c5.7,11.5,5.5,12.5-3.7,21.8c-4.8,4.9-9.4,10.2-12.5,16.5C386,576.7,384.3,577.8,381.9,578.1z"/>
	<path class="st2" d="M456.1,490.2c-2.6-0.2-6.5,0.7-10.3-0.9c-3.7-1.6-4.1-3.3-1-5.8c3.5-2.8,7.8-4.1,12.1-4.6
		c12.7-1.7,25.5-1.5,38.3-1.1c1.7,0,5.1,0,4.4,3c-0.5,2.4,1.9,6.4-3.7,7.1c-4.9,0.6-10,0.9-14.9,1.2
		C473.1,489.4,465.3,490.6,456.1,490.2z"/>
	<path d="M731.7,467.1c-4.3,3-10,4.9-9,11.1c0.8,4.7,2.4,9.3,8.6,10.5c-7.3,1-11.5-2.6-12.5-10.3C718.1,473,723.9,467.6,731.7,467.1
		z"/>
	<path d="M442.1,452.7c0,1.2-0.7,1.3-1.2,1.6c-2,1-3.4,2.1-1.3,4.3c1,1.1,0.8,2.1-0.4,2.8c-1.1,0.7-1.9-0.1-2.4-0.9
		c-0.9-1.7-1.6-2.9-3.4-0.9c-0.6,0.6-1.4,1.7-2.4,0.7c-0.7-0.7-0.7-2-0.1-2.7c1.5-1.6,2.3-3.2,1.8-5.5c-0.2-0.7,1.1-1.8,1.5-1.5
		c2.1,1.8,4.5,0.7,6.7,1.1C441.5,451.6,441.8,452.4,442.1,452.7z"/>
	<path d="M480.4,449.2c0.6,4.5,6.3,0.4,5.1,2.2c-1.5,2.4-0.8,5.6-3.2,7.4c-0.8-3.1-5.6-0.3-5.2-2.7
		C477.4,454.2,477.8,451.2,480.4,449.2z"/>
	<path class="st1" d="M433.4,512.7c2.6,0,5.2,0,7.8,0c1,0,2,0.3,1.9,1.6c-0.1,1-1,1.3-1.8,1.2c-5-0.3-9.9,1.6-15,1
		c-1.4-0.2-3.2,0.4-3.3-1.8c-0.1-2.6,2-2,3.5-2.1C428.8,512.6,431.1,512.7,433.4,512.7C433.4,512.7,433.4,512.7,433.4,512.7z"/>
</g>
</svg>
