<?xml version="1.0" encoding="utf-8"?>
<!-- Generator: Adobe Illustrator 23.0.1, SVG Export Plug-In . SVG Version: 6.00 Build 0)  -->
<svg version="1.1" id="Layer_4" xmlns="http://www.w3.org/2000/svg" xmlns:xlink="http://www.w3.org/1999/xlink" x="0px" y="0px"
	 viewBox="0 0 1000 1000" style="enable-background:new 0 0 1000 1000;" xml:space="preserve">
<style type="text/css">
	.st0{fill:#BB8170;}
	.st1{fill:#FEEABA;}
	.st2{fill:#1E363A;}
	.st3{fill:#650A5F;}
	.st4{fill:#AE10A3;}
	.st5{fill:#BD8270;}
	.st6{fill:#FE0000;}
	.st7{fill:none;}
	.st8{fill:#385E65;}
	.st9{fill:#CB0000;}
	.st10{fill:#88A9D8;}
	.st11{fill:#753045;}
	.st12{fill:#1F373B;}
	.st13{fill:#F291EB;}
	.st14{fill:#FEFEFE;}
	.st15{fill:#F392EC;}
	.st16{fill:#FEFEEA;}
</style>
<g>
	<path d="M638.7,456.7c-5.9-7.7-17.4-11.7-26.7-9.8c-6.4,1.3-11.6,4.5-16.6,8.4c-5-9.7-6.6-11.1-18.3-14.9c-1.4-0.5-2.1-1.8-3-2.9
		c-4.7-6-10.4-10.7-18.4-11.6c-2.3-0.3-4.3-0.7-6.3-1.7c-13.1-6.4-25.6-6.2-36.8,4.2c-1.3,1.2-2.3,1.1-3.2,0.3
		c-3-2.6-7-3.5-10.6-6.2c9.1-5.7,14.8-22.6,11.4-34.5c-1-3.4,0-5.3,2.2-7.5c6.1-6.1,6.6-16.7,2.9-23.5c-2.8-5.1-13-8.4-19.9-6.3
		c-2.5,0.7-3.4-0.6-4.7-1.9c-6.7-6.9-13.8-13-23.4-15.6c-14.3-3.9-24.2,1-31.2,9.6c-10.2,12.5-12.6,27.3-8.9,43
		c1,4.1-1.2,7.1-5.3,7.7c-3,0.4-5.8,1.3-8.1,3.5c-6.7,6.3-7.7,16.8-2,24.1c1.6,2,2,4.1-0.2,5.4c-7.3,4.2-13.4,9.5-17.4,16.8
		c-2.8-1.1-1.7-3.5-2.5-5.3c-7.3-15.2-24.1-16.8-36.6-9.3c-12.6,7.6-15.9,21-18.2,34.3c-1.2,6.7-1.4,13.7-2.3,20.5
		c-1.5,10.7-1.1,21.2,2.8,31c5.9,14.6,24.6,17.7,39.1,7.8c6.3-4.3,10-10.3,12.6-18.1c0.3,2,0.1,3.4,0.7,4.2
		c4.1,5.6,4.6,11.2,1.8,17.8c-2.3,5.5-2.1,11.9-7.5,16.3c-3.3,2.8-5.7,7.1-5.7,12c0,4.9-2.5,8.8-4.9,12.9c-2.8,4.7-4,10-0.6,15.2
		c0.6,1,0.6,1.8-0.2,3.2c-6,10-3.3,20.6,5.8,27.8c3.5,2.8,7.9,3.3,11.1,6c10.7,8.9,22.9,8.3,35.2,5.6c8.1-1.8,14.6-6.9,21.2-11.9
		c8.6-6.5,12.9-14.1,10.1-25c-0.8-3,2.4-8.4,4.6-8c10,1.8,19.8,0.6,29.5-1.5c8.5-1.8,16.6-5,21.6-13.1c3-4.9,3.4-10.5,3.7-15.9
		c0.4-6.2,0.2-12.5-0.7-18.8c-0.7-4.8,0-5.2,4.4-2.8c10.3,5.5,20.2,5.8,29.4-2.2c0.9-0.8,1.4-0.6,2.5-0.1c8.6,3.7,18.7-0.3,24.1-8.3
		c1.4-2.1,2.8-4.3,5.5-5c6.6-1.8,11.6-5.6,15.2-11.4c0.9-1.5,1.8-2.3,3.7-1c6.1,4.1,12.9,5.2,20,4.5c7.5-0.7,14.8-2.5,19.2-9.3
		C647.5,482.1,648.3,469.2,638.7,456.7z M365.7,449c3-1.7,4.2-0.5,5.4,2c2.1,4.2-0.1,8.4,0,12.6c0,0.8-0.5,1-1.1,1.3
		c-9.8,4.6-8.5,14-4.7,20.9c2.5,4.3,1.6,12.6-2,15.5c-1.2,1-2.7,2.2-4.7,1.3c-1.8-0.8-3-2.2-3-3.8c0.2-3.4-1.9-6.5-1.4-8.6
		c1.3-11.9,1.6-22.6,5.2-32.7C360.6,454.1,362.2,451,365.7,449z M473.7,539.8c0-0.9-0.4-2.5,0.6-2.5c3.6-0.1,6.5,2,9.4,3.7
		c1.9,1.1,1.9,2.7,1.4,4.6c-1.2,4.6-3.9,7.9-8.3,9.7C474.7,550.4,473.8,545.2,473.7,539.8z"/>
	<path class="st0" d="M506.9,443.4c-2.4,6.9-6,13.2-7.1,20.7c-1.7,11.7-0.1,22.9,3.2,34c1.8,6.1,4.4,11.9,8.4,17
		c2.1,2.7-0.7,4.7-2.2,6.3c-1.9,2-2.5-0.9-3.5-1.6c-2.7-2.1-5.1-4.4-7.7-6.6c-4-3.3-8.1-4.4-13.1-1.5c-5.9,3.4-12.8,3.7-19.3,4.8
		c-8.2,1.4-16.5,1.5-24.7,0.9c-9.9-0.6-19.8-1.5-28.6-6.7c-3.2-1.9-5.8-2.6-7.3,2.2c-6.4-6.6-8.6-14.5-10.3-22.6
		c-2.8-13.3,0.1-25.7,5.9-37.6c0.3-0.7,1.1-1.1,1.7-1.7c0.9,0.6,1.2,1.6,1,2.6c-1.6,8.2,0.6,15.6,3.9,22.2c-0.2-1-0.4-2.6,0.7-4.1
		c2.1-0.6,2.4,1.3,3,2.4c4.4,8.8,11.9,12.4,21.2,12.8c3.5,0.1,7.1,0.3,10.6-0.3c1.6-0.3,3.2-0.6,4.6,0.6c-1.9,5.7-7.1,5.5-10.7,6.9
		c14.7,3.7,32.6,4.9,48.2,1.4c9.2-2.1,10-2.8,8.7-11.9c-1.8-12.4,1.2-23.8,6.8-34.7C501.6,446.2,503,443.2,506.9,443.4z"/>
	<path class="st1" d="M506.9,443.4c-8.1,6.2-9.5,15.6-11.8,24.6c-1.9,7.6-0.5,15,0.7,22.5c0.3,2-0.1,3-2.1,3.7
		c-12.2,4.3-24.6,5.8-37.5,4.2c-7.3-0.9-14.8-1-21.9-3.7c3.8-3.2,9.8-3,13-7.3c0.9-4,4.6-4.6,7.7-5.7c3.4-1.3,6.7-2.5,9.7-4.5
		c4.9-3.4,6.1-7.5,3.1-12.6c-2.1-3.5-3-7.1-3.8-10.9c-3.8-19.6-26.8-28.2-42.5-15.8c-6.4,5.1-11.6,11.3-13.3,19.8
		c-0.6,2.8-0.3,5.4,0.3,8.2c0.5,2,1.5,4.1-0.1,6c0,2.1,0,4.1,0,6.2c-5.5-6.7-8-14.1-6.5-22.4c0.3-1.4,0.5-2.8,0.4-4.2
		c4.4-9.3,12.5-14.5,21-19.2c10.7-5.9,22.3-9.3,34.4-10.8c6.7-0.8,13.7,1,20.1,3c9.7,3,19,7.3,27.7,12.7
		C507.5,438.1,511.2,440.1,506.9,443.4z"/>
	<path class="st1" d="M492.3,414.6c1.7-1.8,3.4-3.6,5.1-5.4c-8.6,5.6-17,6.8-26,1.3c-3.5-2.2-6-5.3-8.9-8.1c-2-2,0.4-4.2,0.7-6.3
		c0.4-2.4,1.1-4.5-0.2-6.8c-1.7-3.1-0.5-5.1,2.5-6.6c6.7-3.6,13.5-6.7,20.7-9.1c1.5-0.5,2.3-0.1,2.7,0.8c1.9,3.8,5.1,5.9,9.1,7.1
		c0.7,0.2,1.6,0.4,2,1.7c3,9.4,2.8,24.2-5.9,31.4c-0.3,0.3-0.8,0.4-1.2,0.6C492.7,414.9,492.5,414.8,492.3,414.6z"/>
	<path class="st2" d="M413.6,587.9c6.1-0.4,12.3,1.4,17.9,4.9c8,4.8,7.8,12,1.6,17.3c-9.5,8.1-26.9,12.3-39.1,2.5
		c-9.3-7.4-10.1-14.8,0.6-20.7C399.3,589.1,405.2,587.9,413.6,587.9z"/>
	<path class="st3" d="M437.6,537.2c-4.2-5.2-8.8-9.5-15.9-11c-7.9-1.7-14.3,0.1-19.7,5.8c-0.3,0.3-0.8,0.4-2,1.1
		c2.3-6.4,4.5-11.9,7.9-17c1.1-1.7,1.9-1,3.1-0.5c15.7,6.2,31.8,6.7,48.4,5.1c8.4-0.8,16.6-1.5,24.6-4.2c8.2-2.8,8.2-2.9,9.9,5.8
		c0.4,1.9,0.2,3.9,0.3,5.8c-0.2,0.4-0.5,0.8-0.9,1.1c-1.7,1.5-5.1,0.6-5.7,2.8c-0.5,2,2,3.8,2.8,5.9c1.8,5.4,0.7,9.7-3.3,11.8
		c-0.8-0.9-1-2.1-0.7-3.2c2.6-11.1-9.6-20.1-20.9-18.6c-5.3,0.7-10,2.7-13.6,6.9c-0.8,1-1.8,1.9-3.1,2.3
		C445.1,538,441.4,539.5,437.6,537.2z"/>
	<path class="st3" d="M520.6,490.1c2.1,2.2,2.6,5.2,3.6,7.8c2.6,6.4,7.6,9.7,13.8,12c1.4,0.5,3.2,0.4,4.1,2.1
		c0.9,1.8,3.6,3.3,2.1,5.4c-2.2,3.3-5.4,5.8-9.6,5.9c-9.7,0.1-16.9-4.8-21.9-12.7c-5.9-9.2-8.4-19.5-10-30.4
		c-2.3-15.5,2.6-28.5,11-40.9c2.6-3.8,6.2-6.5,10.7-7.8c0.6,1.7-0.6,2.7-1.5,3.8c-8.2,9.8-13,21.1-13.4,33.9
		c-0.5,14,2.6,27.2,12.8,37.7c0.5,0.5,1,0.9,1.5,1.2c0.3,0.2,0.6,0.3,1.4,0c-2-4.1-3.8-8.2-4.8-12.7
		C519.9,493.8,518.9,491.9,520.6,490.1z"/>
	<path class="st3" d="M551.8,496.1c4.2,3.8,8.3,7.5,15,5.2c2.1-0.7,5,2.1,4.3,4.6c-2.7,9.1-10.7,16.2-20.5,10.5
		c-3.6-2.1-5.6-5.8-7.7-9.2c-4.9-7.9-6.8-16.8-7.9-26.1c-1.2-9.4-0.7-18.3,2.2-27.1c2.6-7.8,6.8-14.6,15.2-17.8
		c2.5-0.9,4.9-1.5,7.4-0.1c-0.1,0.5-0.3,0.8-0.7,1.1c-5.7,2.3-8.3,7.4-11,12.3c-1.1,2.1-1.9,4.4-3.1,6.5c-3.2,13.1-3.8,26.2,1.3,39
		c1.6,4,3.7,7.5,7.6,10.5C554.1,501.9,549.9,499.5,551.8,496.1z"/>
	<path class="st4" d="M520.6,490.1c0.6,6.2,2.7,11.9,5.6,17.4c0.5,1,1.8,2.3,0.3,3.4c-1.3,1-2.1-0.6-2.8-1.1
		c-7.2-5.5-11.5-13.2-13.6-21.7c-2.6-10.7-2.7-21.5,0.5-32.4c2.7-9.3,8.3-16.6,13.9-24.1c3.6-2.5,7.4-4.2,11.8-1.9
		c-11.8,2.3-16.2,11.8-20.5,21.3c-1.3,2.8-2,5.8-2.5,8.9c-0.1,1-0.2,2.1,0.8,2.6c1.4,0.6,2-0.6,2.6-1.6c1.1-2,1.8-4.2,2.7-6.3
		c3.3-8.3,8.2-15.5,16.2-19.9c3.2-1.8,0.5-3.4,0.7-5c4.7-0.3,8.7,1.5,12.4,4.5c-5.1,3.9-9.5,8.5-15.5,11.4
		c-8.7,4.2-11.7,12.7-13.5,21.8C517.9,475.2,518.9,482.6,520.6,490.1z"/>
	<path class="st5" d="M458,380.9c-2.6-1.7-5.1-3.4-7.7-5c-0.9-0.9-1.1-2-1-3.1c0.8-10.7,4.6-20.3,11.3-28.6c0.4-0.5,1-0.8,1.6-1
		c10,1.2,16.5,7.5,21.9,15.3c0.9,1.3,0.4,2.6-0.7,3.4c-8,6.1-15.3,13.1-23.6,18.9C459.3,381.1,458.6,381.1,458,380.9z"/>
	<path class="st6" d="M603.5,459.9c10-7.5,20.6-4.8,26.5,0.9c6.4,6.2,10.3,17.7,1,28.5c-13.2,4.9-27.1-2.6-30.2-16
		C599.7,468.4,600.7,464,603.5,459.9z"/>
	<path class="st1" d="M458,380.9c8.1-6.5,16.3-13.1,24.5-19.5c1.2-1,1.8-1.4,0.6-2.9c-5.4-6.8-11.2-12.9-20.2-14.7
		c-2-0.7-3.9,1.3-5.9,0.2c-5.6,0.6-10.7,6.1-11.7,12c-3,17.6,3.4,32.5,13.3,46.5c4.8,6.8,10.9,11.8,18.6,14.9c2.3,0.9,4.5,0,7.7,1.5
		c-3.5,0-5.8,0-8.2,0c-6.2-1.2-11.5-4.1-16.1-8.3c-11.9-11-20.3-24.1-21.1-40.7c-0.3-7.1,1.5-14.2,5.9-20.2c3.3-4,6.9-7,12.3-8.3
		c2.9-0.7,5.3,0,7.3,0.8c9.7,3.6,17.7,9.8,23.7,18.3c1.4,1.9-1.8,10.2-4,10.8c-7.6,1.8-14.3,5.3-21,9.3
		C462.3,381.2,460.2,384.5,458,380.9z"/>
	<path class="st2" d="M366.1,504.8c3.6-5.4,5-11.5,5.9-17.8c0.4-2.7,1.2-5,4-5.3c3.2-0.3,3.6,2.4,4.1,4.9c2,10.1-1.1,19-7.4,26.6
		c-4.3,5.2-10.9,6.1-17.4,4.7c-7.3-1.5-10.3-7.1-11.3-13.7c-3-20.1,0.1-39.6,8.2-58.2c1.8-4,4.3-8.1,9-9.6c0.4,0.8,0.1,1.6-0.4,2.3
		c-10.9,17.4-12.8,37.1-13.9,56.9c-0.2,3.8,1,7.4,2.8,10.7c3.2,6.1,8.1,8.1,14.6,5.7c4.2-1.5,7.7-3.9,10.2-8.1
		C371.5,503.9,369,507.2,366.1,504.8z"/>
	<path class="st7" d="M371.1,463.6c0,0.8-0.5,1-1.1,1.3c-9.8,4.6-8.5,14-4.7,20.9c2.5,4.3,1.6,12.6-2,15.5c-1.2,1-2.7,2.2-4.7,1.3
		c-1.8-0.8-3-2.2-3-3.8c0.2-3.4-1.9-6.5-1.4-8.6c1.3-11.9,1.6-22.6,5.2-32.7c1.2-3.4,2.8-6.5,6.3-8.5c3-1.7,4.2-0.5,5.4,2
		C373.2,455.3,371,459.4,371.1,463.6z"/>
	<path class="st3" d="M446.3,600.6c-1.6,2.4-3.6,4.3-6.4,6.3c1.4-10.5-4.7-18.3-15.8-20.8c-11.2-2.5-22.1-1.1-32.3,4.1
		c-6.9,3.5-9,9.2-6.3,16.3c-7.8-4.4-8.8-13-2.3-20.5c3.1-3.5,6.9-5.8,11.4-7c1.2,3,3.4,3.2,6.3,2.5c12.3-2.9,24.4-1.8,36.1,2.8
		C444.7,587.4,447.8,593.2,446.3,600.6z"/>
	<path class="st4" d="M551.8,496.1c0.5,3.1,2.6,5.5,3.7,8.4c0.4,0.9,1.8,1.9,0.4,3c-1.1,0.9-2.1-0.2-3.1-0.6
		c-2.8-1.3-4.3-4.1-5.6-6.5c-5.1-9.9-7.4-20.5-5.6-31.8c0.7-4.5,0.2-9.3,2.4-13.5c1.9,2.3,3.6,2.5,5.1-0.4c2.4-4.6,5.1-9,9.6-11.9
		c2.8-1.8,0.6-4.1,0.8-6.1c0-0.2,0-0.4,0.1-0.6c5.6,2.8,7.8,8.8,11.9,12.9c0.6,0.6,0.3,1.1-0.3,1.6c-1,0.9-2.3,0.8-3.2,0.3
		c-2.5-1.2-4.8-0.6-7.4,0c-7.2,1.6-10.5,6.7-11.7,13.1C546.9,474.9,547,485.8,551.8,496.1z"/>
	<path class="st4" d="M487.3,549.8c4-5.9,4-10.8-0.6-15.6c-3.1-3.2-1.9-3.9,1.5-4.4c2-0.3,4-1,6-1.6c2.4,8.8,2.3,17.6,0.7,26.5
		c-0.3,1.8-2,3-3.6,3.8c-10.3,5-21.1,8.1-32.7,6c-0.5-0.1-1-0.1-1.5-0.1c-4.9,0.1-8-0.7-9.9-6.7c-2.2-7.1-6.6-13.6-9.7-20.5
		c3.9,0.4,7.7-0.9,11.6-1.1c0.8,2.1,0.1,3.9-1.1,5.5c-2.7,2.2-2.5,4.9-1.4,7.9c4.2,11.4,17.1,15.8,28.1,9.3c3.4-2.6,7.4-4.5,9.9-8.3
		C485.2,549.8,486.2,549.3,487.3,549.8z"/>
	<path class="st5" d="M445.3,349.6c-1.3,4.3-3,8.5-3.8,12.8c-2.7,15.2,3.2,27.8,12.4,39.3c6.1,7.7,13.6,13.4,22.7,17.1
		c-9.5-0.3-17.5-4.3-24.5-10.2c-9.9-8.4-16.2-19.2-17.2-32C434,366.3,437.2,356.8,445.3,349.6z"/>
	<path class="st3" d="M580.2,486.2c1.8,0.7,3.6,2,5.4,1.9c4.9-0.4,4.3,2.2,3.3,5.2c-0.4,1.2-0.8,2.5-1.4,3.6
		c-1.9,3.5-4.3,6.7-8.6,6.9c-4.3,0.2-6.9-2.8-8.4-6.3c-5.7-12.6-8.5-25.5-1.5-38.7c1.9-3.5,4.7-6,8.3-7.8c2.4-1.2,4.3-1,5.9,1
		c-2.9,3-6,5.8-8.1,9.5c-1.3,1.3-1.7,3-2.2,4.7c-1.3,4.9-1.8,9.9-1.3,14.9c0.6,5.7,3.1,10.3,8.5,13.3
		C581.5,491.3,578,488.8,580.2,486.2z"/>
	<path class="st3" d="M445.2,581.2c-5.5-3.1-9.1-8.8-15.2-11.1c-12.3-4.5-24.4-5.3-36.4,1.1c-2.2,1.2-3.1,3.2-4.1,5.2
		c-1.4,2.9-4.5,5.6-6.8,4.4c-2.1-1.1-2.8-5.1-1.1-8.3c3.7-6.8,9.8-10.4,16.8-12.8c0.3,3.3,2.4,3.3,4.9,2.7c9-2.1,17.8-1.4,26.4,1.8
		c4.6,1.7,8.8,4.3,12.4,7.6C444.5,574.3,447.3,577,445.2,581.2z"/>
	<path class="st8" d="M366.1,504.8c2.7,0,5.1-0.7,7.1-2.5c0.9-0.8,1.7-1.6,2.9-0.5c1.2,1.1,0.3,2.1-0.2,3.1
		c-2.4,4.8-12.2,10.3-17.1,9.7c-6.2-0.8-10.3-5.2-12.2-12.9c-1.7-6.7-1.1-13.5,0-20.2c1.9-11.3,3.7-22.6,7.7-33.4
		c1.6-4.4,4-8.1,7-11.6c1.3-0.6,2.7-1.2,4-1.8c2.5,1.1,5,2.1,7.8,2.6c3.7,0.6,6.2,2.8,7,6.5c1.1,5.5,2.7,11-0.5,16.3
		c-2.4-0.7-1.7-2.8-1.9-4.4c-0.2-2.1,0-4.2-0.4-6.3c-0.9-4.1-4.2-7.1-8.4-7.6c-4.2-0.5-7.4,1.6-9.5,6.4c-0.3,1-1,1.6-2,2
		c-4.5,5.8-5.1,12.8-6.4,19.6c-2,10.7-3,21.5-0.5,32.3c1.1,4.6,3.5,7.4,7.4,8c2.6,0.4,5,0.1,5.3-3.3
		C364.2,506.1,365.1,505.4,366.1,504.8z"/>
	<path class="st4" d="M445.2,581.2c-0.9-9.7-8.9-12.5-15.9-15.6c-8.7-3.9-18-4-27.3-1.5c-1.7,0.5-3.6,1-4.9-0.7
		c-1.3-1.7,1-2.4,1.4-3.7c15.4-5.2,30-4.4,43.3,5.7c6.2,4.7,8.2,11.2,6.2,18C446.5,583.4,446,582.1,445.2,581.2z"/>
	<path class="st4" d="M446.3,600.6c-0.2-9.7-5.3-15-16.8-17.5c-10.4-2.3-20.7-2.5-31.1,0.3c-4.2,1.2-4.9,0.3-3.9-4.4
		c15.4-5.7,30.6-5.3,45.4,1.9C448,585,450.2,592.6,446.3,600.6z"/>
	<path class="st9" d="M603.5,459.9c-1.4,5.3-2.7,10.5-0.7,16.1c3,8.2,9.8,13,19.9,13.2c2.8,0.1,5.5,0.1,8.3,0.1
		c-5.8,6.1-13.1,7.9-20.9,5.5c-7.3-2.2-11.9-7.5-13.5-15.4C595,471.4,597.8,465.2,603.5,459.9z"/>
	<path class="st3" d="M503.8,561.4c-3.7,7-10.9,7.3-17.3,8.8c-10.3,2.4-20.7,2.7-31.1,1c-1.1-0.2-2.2-0.5-3.2-1
		c-1.4-0.7-3.2-1.8-2.7-3.6c0.8-2.6,2.7-0.6,4-0.3c11.8,2.9,23.1,1.2,34.3-2.9c3.6-1.3,6.4-3.7,9.2-6
		C499.7,558,502.3,558.8,503.8,561.4z"/>
	<path class="st2" d="M534.2,451.1c-1,6.8-3,13.5-3,20.5c0.1,12.1,1.8,23.7,7.5,34.6c-7.6-0.3-13.6-10.8-15.3-20.8
		c2.1-2,2.8-4.5,2.6-7.3c-0.3-5.1,0.5-10.2,1.7-15.2c0.6-3.1,1.6-6.1,3.2-8.9C531.6,452.7,532.1,451,534.2,451.1z"/>
	<path class="st3" d="M440.3,559.7c-2.7-0.5-4.5-2.4-6.4-4.1c-9.8-8.7-21.2-10.1-33.4-7.2c-3.8,0.9-6.8,3.7-8.5,7.4
		c-1,2.2-2.4,3.8-4.9,4.1c-1-7.3,5.6-16.4,13.2-18.1c2.1,1.1,4.2,1.1,6.5,1c9-0.4,17.7,0.9,25.8,5c3.1,1.6,5.6,3.8,7.2,6.9
		C440.7,556.3,441.8,557.9,440.3,559.7z"/>
	<path class="st2" d="M564.4,458c-1,3.6-1.9,7.1-2.9,10.7c-2.4,8.9,0.1,17.2,2.8,25.6c0.4,1.2,1.8,2.7,0.2,4c-1.5,1.3-2.9,0.5-4.5,0
		c-5-1.6-6.6-6-8.1-10.3c-0.8-2.4-0.7-5.1-1-7.6c4.1-1.7,6-4.6,5.7-9.2c-0.1-2.2,0.8-4.4,1.5-6.5C559.5,461.7,560.2,458.2,564.4,458
		z"/>
	<path class="st4" d="M440.3,559.7c-1.2-7.3-6.5-10.7-12.7-12.6c-7.5-2.3-15.2-4.4-23.3-2.3c-2.3,0.6-3.8-0.4-4.1-2.9
		c19.2-8.9,45.2,4.9,44.9,22.2C443,563.1,441.7,561.4,440.3,559.7z"/>
	<path class="st4" d="M503.8,561.4c-2.3-1.3-5-1.9-6.8-3.9c3-7.5,2.3-15.3,1.6-23c-0.1-1.7-0.5-3.4-0.4-5.1c3.8-1.2,5.4,2,7.7,3.8
		c2.1,5.5,1.2,11.3,0.6,16.8C506.1,553.7,506.5,558.1,503.8,561.4z"/>
	<path class="st10" d="M363.2,506.7c2.4,1.4,2.6,2.6,0,4.1c-5,2.8-12.3-0.9-13.6-6.7c-3-13.3-1.9-26.4,1.5-39.5
		c1.2-4.6,1.4-9.6,4.8-13.4c0.4-0.5,1-0.7,1.6-1.1c-5.4,13.7-7,27.9-6.8,42.5c0,3.2,0.4,6.4,1.1,9.5
		C352.7,506.8,356.2,508.1,363.2,506.7z"/>
	<path class="st11" d="M391.1,494.3c-7.2-5-9.9-11.3-9-18.6c0.8-6.7,2.7-13.4,11.3-15.8C388.6,471.1,387.4,482.1,391.1,494.3z"/>
	<path class="st2" d="M430.7,411.4c-0.1,4.5-3.4,8.6-6.9,8.5c-3.6-0.1-7-4.7-6.7-9.2c0.2-4.5,3.7-8.5,7.2-8.3
		C427.5,402.6,430.8,407.1,430.7,411.4z"/>
	<path class="st4" d="M580.2,486.2c0.2,2.3,1.1,4.3,2,6.4c0.4,1,1.3,2.1,0.1,3c-1,0.8-2.2,0.5-3.2-0.1c-5.3-2.8-8-7.7-8.6-13.3
		c-0.7-5.5-0.6-11.3,1.6-16.6c0.2,0.1,0.4,0.2,0.5,0.4c0.7,2.1,2.1,3.4,4.4,3.7C575.4,475.7,575.9,481.3,580.2,486.2z"/>
	<path class="st10" d="M378.9,460c1.9-6.2,1.3-12.3-0.9-18.2c-1-2.7-3.3-3.3-5.9-3.3c-3,0-5.3-1.1-6.8-3.8c9.8-3.4,18,1.4,19.3,13.5
		c0.7,6.6-0.1,13.2-4.8,18.7C377.6,464.9,377,462.6,378.9,460z"/>
	<path class="st11" d="M457,343.9c2-1,3.9-2.2,5.9-0.2c-6.7,6.4-9.8,14.8-11.7,23.6c-0.6,2.8-1.5,5.6-0.9,8.5
		c-3.7-1.3-2.1-4.9-2.5-7.2c-1.3-6.9-0.6-13.7,3.3-20C452.6,346.2,455.2,345.7,457,343.9z"/>
	<path class="st8" d="M417,528.4c9.5,1,16.4,5.6,20.9,15.7c-9.2-6.4-18.7-8.4-28.6-8.1C409.8,531.3,413.6,530.1,417,528.4z"/>
	<path class="st12" d="M378.9,460c-0.7,2.4,0.2,4.7,0.9,6.9c-0.1,1,0.5,2.7-1.2,2.5c-1.4-0.1-2.9-0.9-3.4-2.4
		c-0.3-1.2-0.5-2.7-0.1-3.8c1.1-3.2,0.8-6.4,0.8-9.6c0-4.2-1.4-7.6-5.5-9.5c-3.9-1.8-6.4,1-9.2,2.7c-0.7,0.4-1.3,1-1.9,1.4
		c-0.8-3.3,2.5-7.2,6.7-7.8c6.5-0.9,12.4,3.7,12.8,10.3C379.1,453.8,378.9,456.9,378.9,460z"/>
	<path class="st8" d="M529.2,462.8c-1.8,6-2.2,12.2-1.8,18.5c0.2,3.1-0.9,4.5-4,4.2c-3-8-1.8-15.8,0.9-23.6
		C526,461.6,527.7,461.5,529.2,462.8z"/>
	<path class="st2" d="M429.8,555.4c-11.6-3.1-23-2-34.3,2.1c1.2-4.4,5.4-7.1,12-7.6C415.3,549.3,422.8,551.2,429.8,555.4z"/>
	<path class="st6" d="M506.8,363.4c2.5,2.3,2.7,4.9,1,7.7c-3,3-6.4,2.6-9.8,1c-4.3-2-4.9-5.8-2-10.9c2.9-2.5,5.8-3,8.7,0.1
		c-0.6,1.3-3.3,2.2-1.4,3.8C504.7,366.4,505.7,364.1,506.8,363.4z"/>
	<path class="st8" d="M559.5,464.7c-0.8,2.7-2.2,5.5-1.8,8.3c0.7,5.4-1.8,7.4-6.8,7.4c-0.4-5.6-0.1-11.1,1-16.6
		C554.6,462.2,557.1,463.1,559.5,464.7z"/>
	<path class="st3" d="M505.9,533.2c-3.1-0.2-4.6-3.6-7.7-3.8c-1.5-4.8-3-9.6-4.6-14.9C501.2,518.9,507.3,523.6,505.9,533.2z"/>
	<path class="st2" d="M368.6,483.1c-0.8-1.7-1.7-2.9-2.1-4.2c-1-3.5,0.4-7.3,3.1-8.4c2.2-0.9,5.9,1.1,7.9,3.2
		c1.1,1.2,1.6,4.4-2.1,4.9C372.7,479.1,370.1,480.1,368.6,483.1z"/>
	<path class="st10" d="M559.5,464.7c-2.7,0.7-5-1.3-7.6-1c2.1-4.3,3.4-9.1,9.3-10.1c1.9-0.3,4-1.4,5.2,0.2c1.3,1.7-1.6,2.5-2,4
		C561.9,459.6,560.1,461.7,559.5,464.7z"/>
	<path class="st9" d="M496.1,361.3c-2.3,9.2,1.6,12.4,11.8,9.9c-1.1,3.9-4,5.9-7.8,5.7c-3.8-0.1-6.3-2.7-7.4-6
		C491.3,367,492.4,363.6,496.1,361.3z"/>
	<path class="st2" d="M393.3,575.6c6.8-7.2,26.2-7.8,36.4-1.7C417.8,571.6,406,571.4,393.3,575.6z"/>
	<path class="st2" d="M592.7,477.5c0,2.8,3.4,6.5-2.7,7.5c-5.3,0.8-7.5-0.3-9.7-6.5C584.2,476.6,588.3,475.1,592.7,477.5z"/>
	<path class="st8" d="M592.7,477.5c-4.2,0.3-8.3,0.7-12.5,1c0-2.3,0-4.6,0-6.9c4.2-1.9,8.3-2.2,12.5,0
		C592.7,473.5,592.7,475.5,592.7,477.5z"/>
	<path class="st10" d="M529.2,462.8c-1.7-0.1-3.6,0.9-4.9-0.9c1.5-6.5,4.7-11.8,11.5-14.4c0.6,1.9-1.3,2.5-1.7,3.7
		C531.6,454.6,529.8,458.5,529.2,462.8z"/>
	<path class="st10" d="M592.7,471.6c-4.2,0-8.3,0-12.5,0c2-5.5,8.1-7.8,12.8-4.6C595.2,468.5,592.3,470,592.7,471.6z"/>
	<path class="st4" d="M572.1,465.7c0.2-1.8,0.5-3.6,2.2-4.8c2.1,1.7,3.7,1.1,5.3-0.9c1.7-2.1,3.2-4.4,5.3-6.1
		c2.1,2.2,3.6,4.6,4.7,8.1c-5.6-1-9.6,1.1-12.2,5.8c-1.5-1-3.1-1.6-4.9-1.9L572.1,465.7z"/>
	<path class="st13" d="M584.9,453.9c-1,3.9-3.8,6.5-6.5,9c-2.2,2-3.8,0.8-4-2.1c2.3-3.6,3.8-8,8.9-8.8
		C583.8,452.7,584.3,453.3,584.9,453.9z"/>
	<path class="st5" d="M439.4,405.5c5.6,0.6,12,7.4,11.8,11.9c-0.1,1.4-0.9,1.5-1.9,1.5c-1.4,0-2.6,0.3-3.1-1.9
		C445.1,412.7,443.1,408.8,439.4,405.5z"/>
	<path class="st2" d="M417,528.4c-2.5,2.6-5.9,4.3-7.8,7.6c-2.4,0.8-4.9,1.4-7.9,1.3C405.2,531.5,410,528.1,417,528.4z"/>
	<path class="st11" d="M434.9,391c2.3,3.9,4.4,7.2,6.5,10.7C434.2,402.7,432.9,400.7,434.9,391z"/>
	<path class="st5" d="M434.3,423.1c3-3.9,7.1-6.3,5.9-12.2c2.5,3,4.8,6.5,3.6,8.2C442.2,421.6,438.3,422.2,434.3,423.1z"/>
	<path class="st11" d="M458.7,397.7c-1.5-3.5-5.6-4.8-3.9-8.7c0.4-0.9,2.5-2,3.3-1C460,390.6,460.8,393.6,458.7,397.7z"/>
	<path class="st8" d="M432.7,415c-0.5-2.8,2.2-5.4,0.7-8.4c2.7,2.7,5.6,5.1,3,9.4C434.8,417.3,433.7,416.1,432.7,415z"/>
	<path class="st14" d="M506.8,363.4c0.2,2.2-0.3,3.8-3,3.8c-2,0-2.9-0.9-2.9-2.9c0-2.7,1.6-3.1,3.8-3
		C505.4,362,506.1,362.7,506.8,363.4z"/>
	<path class="st15" d="M572.4,465.9c2.6-1.8,4.3-1.3,4.9,1.9c-0.1,0.6-0.2,1.3-0.3,1.9C572.4,472.2,572.2,469.3,572.4,465.9z"/>
	<path class="st2" d="M432.7,415c1.2,0.3,2.5,0.6,3.7,1c-1.5,2.8-3.6,4.6-7.6,5C430.4,418.5,431.6,416.8,432.7,415z"/>
	<path class="st5" d="M420.9,428.7c0.6-8.1,5.6-2.5,8.4-3.3C426.6,426.4,424,427.4,420.9,428.7z"/>
	<path class="st11" d="M449.4,380.1c3.6,0.8,5.6,2,6,4.5c0.2,1-1.9,1.8-2.6,1.5C450.3,385.2,451.2,382.5,449.4,380.1z"/>
	<path d="M408.3,471.6c0.1-5-2.8-9.4-1.3-14.9c3.3-12.1,10.8-20.1,21.9-24.6c14.8-6,32,4.8,35.4,17.1c1.5,5.5,2.4,11.1,5.3,16.4
		c3.4,6-1.1,10.8-5.7,13.8c-5.2,3.3-11.8,3.7-16.6,7.9c-6.5,1-13,1.5-19.6,0.5C417.8,486.3,411.7,480.6,408.3,471.6z"/>
	<path class="st16" d="M485.1,456c-6.5-0.3-13-3.6-17.7-9.9c-5.1-6.8-1-16,8.2-17.1c6.8-0.8,14,0.2,19.9,4.6
		c4.5,3.3,7.7,8.2,5.6,13.2C498.6,452.7,493.8,456.1,485.1,456z"/>
	<path d="M480.6,530.3c-10.7-6.6-24.3-4.3-31.3,5.8c-0.4,0.3-0.6,0.7-0.7,1.1c-0.4,1.3,0.1,2.9-1.3,3.8c-0.4,1-0.7,1.9-0.9,2.8
		c0,0,0,0,0,0c-0.7,3.9,1.1,7.2,3.8,10c5.3,5.5,11.4,8.1,18.3,7.5c2.3-0.2,4.6-0.8,7-1.7c4.5-2.6,8.7-5.6,11.8-9.9c0,0,0,0,0,0
		c0-1,0-2,0.2-2.9C488.8,540.4,486,533.7,480.6,530.3z M476.8,555.3c-2.1-4.9-3-10.1-3.1-15.5c0-0.9-0.4-2.5,0.6-2.5
		c3.6-0.1,6.5,2,9.4,3.7c1.9,1.1,1.9,2.7,1.4,4.6C483.9,550.1,481.2,553.4,476.8,555.3z"/>
	<path class="st15" d="M559.6,436.7c3.6,2.9,3,5.4-0.8,7.6c-4.7,2.7-6.8,7.5-9.1,12c-0.7,1.4-1.8,2.9-3.7,2.5
		c-2.1-0.4-2.1-2.1-1.9-3.8c2-5.2,4.4-10.2,8-14.5C553.9,438.2,555.9,435.7,559.6,436.7z"/>
	<path class="st15" d="M536.1,429.6c0.7,1.7,4,0.6,3.7,3.1c-0.2,1.9-2.3,2-3.7,2.8c-9.3,5.3-13.9,14-17.5,23.5
		c-0.3,0.7-0.5,1.5-0.8,2.3c-0.8,1.8-1.8,3.9-4.1,3.3c-2.9-0.7-2.2-3.4-1.8-5.3c2-9.2,6.2-17.5,12.2-24.9
		C527.2,430.7,531.4,429.5,536.1,429.6C536.2,429.7,536.1,429.6,536.1,429.6z"/>
	<path class="st14" d="M631.8,468.7c-0.7,5.3-4.2,9.5-10.4,9.7c-5.2,0.2-10.6-5.2-10-9.9c0.7-5.5,4-9.3,10-9.4
		C627.6,459,631.1,463.4,631.8,468.7z"/>
	<path class="st15" d="M447.3,541.1c-1.3,13.6,13.5,21.3,24,18.6c1.4-0.3,2.9,0,4.3,0c-6,4.6-12.6,4.8-19.3,1.8
		c-6.6-2.9-10.4-8.4-11.8-15.4C444.1,544.1,445.1,542.1,447.3,541.1z"/>
	<path class="st4" d="M437.5,466.6c-5.9,3.2-11.6,6.6-18.9,4.1c-9.1-3.2-11.5-8.6-7.6-17.4c2.4-5.4,5.4-10.1,10.8-13
		c8.5-4.9,13.4-3,17.8,1.1c5,4.7,5.3,13.2,1.3,20.4C439.9,463.6,438.6,465,437.5,466.6z"/>
	<path class="st3" d="M453.2,465c-2.3,4.5-5.9,8.7-2.3,14.2c0.7,1,0,2.2-1.1,2.9c-9.2,5.9-34.2,4.7-38.3-11.7
		c11.1,8.2,21.7,3.6,30.5-3.8c2.5-2.1,4.7-4.5,7-6.7C451.6,460.6,452.6,462.7,453.2,465z"/>
	<path class="st15" d="M437.5,466.6c0.5-3.7,3.2-6.5,4-10.2c2.7-12.7-4.5-20-17-16.9c-0.9,0.2-1.8,0.5-2.7,0.7
		c6.7-5.3,14-8.8,22.7-5.6c4.9,1.8,9.3,6.9,6.9,14.2C448.8,456.7,443.4,461.7,437.5,466.6z"/>
	<path class="st4" d="M453.2,465c-2.1-1.1-2.7-3.5-4.1-5.1c4.4-5.1,6.4-11.1,6-18.7c3.8,3.3,4.7,7.1,5.7,10.9
		c0.1,0.5-0.3,1.1-0.5,1.6c-5.9-2.2-3.6,3.1-4.7,5.2C454.6,460.8,455.3,463.5,453.2,465z"/>
	<path class="st4" d="M465.7,465.8c0.9,1.2,1,2.1-0.7,3c-3.7,1.9-7.5,3-12,3.7c1.6-4.5,4.2-8.2,5.1-12.5
		C462.1,460,463.8,463,465.7,465.8z"/>
	<path class="st3" d="M468.1,470.2c-2.8,5.2-7.7,7.5-12.9,9.2c-1.5,0.5-1.9-0.7-2.5-1.7c-1.1-2,0.8-2.3,1.8-2.6
		C459,473.5,463.6,472,468.1,470.2z"/>
	<path class="st15" d="M465.7,465.8c-2.5-1.9-5-3.9-7.5-5.8c-0.1-1.7-1-3.9,2.4-2.1C463.9,459.7,464.9,462.5,465.7,465.8z"/>
	<path class="st7" d="M485.1,545.6c-1.2,4.6-3.9,7.9-8.3,9.7c-2.1-4.9-3-10.1-3.1-15.5c0-0.9-0.4-2.5,0.6-2.5c3.6-0.1,6.5,2,9.4,3.7
		C485.6,542.2,485.6,543.7,485.1,545.6z"/>
	<path class="st2" d="M453.2,547.9c0.1-6.2,3.6-10.1,8.7-12.8c2.5-1.3,4-1.2,3.9,2.1c-0.1,2.3-0.1,4.5-0.1,6.8
		c-0.9,0.8-1.9,1.3-3.1,1.7C459.5,546.4,456.9,549.4,453.2,547.9z"/>
	<path class="st3" d="M450.8,545.2c-0.7-6.6,2.3-11.6,8.9-14.2c7.7-3,17.2-2.1,23.7,6.1c-4.3-1.5-8.1-2.2-11.6-3.6
		c-6.5-2.5-13.3-1-17.4,5.1C453,540.6,451.2,542.5,450.8,545.2z"/>
	<path class="st8" d="M453.2,547.9c3.2-1,6.3-2,9.5-3.1c2.8,3.8,3.9,8,3.2,12.6c-3.3-1.1-6.8-1.3-9.8-3.6
		C454,552.2,452.7,550.7,453.2,547.9z"/>
	<path class="st2" d="M475,556.2c-3,1.1-4.7,0-5.2-2.7c-1-5.1-2.2-10.1-2-15.3c0-1.1-0.9-3.1,1-3.1c2.1-0.1,2.8,1.7,2.9,3.7
		C471.9,544.6,473,550.3,475,556.2z"/>
	<path class="st10" d="M465.9,557.5c-1.1-4.2-2.1-8.4-3.2-12.6c0.7-1.3,1.9-0.9,3-0.8c0.9,3.3,0.7,6.9,2.7,9.9
		C470.7,557.4,469.1,558,465.9,557.5z"/>
</g>
</svg>
