<?xml version="1.0" encoding="utf-8"?>
<!-- Generator: Adobe Illustrator 23.0.1, SVG Export Plug-In . SVG Version: 6.00 Build 0)  -->
<svg version="1.1" id="Layer_4" xmlns="http://www.w3.org/2000/svg" xmlns:xlink="http://www.w3.org/1999/xlink" x="0px" y="0px"
	 viewBox="0 0 1000 1000" style="enable-background:new 0 0 1000 1000;" xml:space="preserve">
<style type="text/css">
	.st0{fill:#647F38;}
	.st1{fill:#47652F;}
	.st2{fill:#4C482F;}
	.st3{fill:#2F2D21;}
	.st4{fill:#86834D;}
	.st5{fill:#2E2B1A;}
	.st6{fill:#4F4A2C;}
	.st7{fill:#A4C950;}
	.st8{fill:#395522;}
	.st9{fill:#312F22;}
	.st10{fill:#2B4155;}
	.st11{fill:#87854D;}
	.st12{fill:#514B3B;}
	.st13{fill:#493D2D;}
	.st14{fill:#9CA064;}
	.st15{fill:#7C6D32;}
	.st16{fill:#4F4220;}
	.st17{fill:none;}
	.st18{fill:#A4A16D;}
	.st19{fill:#02027F;}
	.st20{fill:#45667F;}
	.st21{fill:#242F1F;}
</style>
<g>
	<path d="M648.4,490.4c-0.1-5.1-3.1-9.2-7.8-10.9c-4.6-1.7-9.5-1.4-14.1-1.7c-4.6-0.3-5.1-2.2-4.4-5.5c1.1-5.9,2.5-11.7,3.2-17.7
		c1.5-11.6,1.2-23-3.9-33.6c-4.5-9.4-11.8-17.1-17.6-25.7c-8.4-12.4-20.7-18-35.2-18.2c-15.6-0.2-31,1.9-46.4,3.7
		c-12,1.4-24.2,1.3-36.1,3.8c-2,0.4-1.9-0.9-1.6-1.9c1.8-5.9,1.1-12,1.7-18c1.1-11-1-22-3.9-32.6c-1.9-6.9-4.8-13.6-13-15.3
		c-4.8-1-9.7-2.1-14.6-2.1c-25.9-0.1-51.9-0.9-77.7,3.7c-14.9,2.6-29.5,6.5-43.8,11.2c-5.1,1.7-8.1,5.7-10.1,10.6
		c-2.5,6.2-2.2,12.8-2.7,19.2c-1.4,16.1,1,31.8,6.7,46.9c2.8,7.4,7,14,15.1,15.5c7.8,1.5,15.9,1.7,23.9,2c2.8,0.1,4.1,0.8,5,3.6
		c2.9,8.6,8,15.3,17.3,18.5c-2.9,3.5-5-0.1-7.3-0.6c-10.8-2.2-21.6-4.1-32.7-1.8c-5.5,1.1-11.3,2.3-15.5,6.3
		c-9.1,8.9-14.4,19.8-14.8,32.8c-0.3,7.6,0.9,15,3.1,22.1c5.1,16,17.4,29.6,37.2,29.7c10.6,0.1,20.4-3.2,30.5-4.9
		c8.6-1.4,17-0.7,25.4-1.2c1.9-0.1,2.7,0.6,2.4,2.5c-0.4,2.8-0.9,5.7-1,8.5c-0.3,10.3,0.9,20.5,1.7,30.8c1,11.7,3,23.2,6,34.5
		c2.2,8.3,7,12.4,15.3,12.6c6.5,0.2,12-3.6,18.6-3.5c5.5,0.2,11.1-2.3,15.8,2.4c1.2,1.2,2.9,1,4.5,1c9.6,0,18.8-3.1,28.2-4.2
		c5-0.6,9.3-6.2,8.2-9.6c-1-3.2-2-6.5-4-9.5c-4.5-6.8-8.4-14-12.4-21.1c-0.9-1.6-1.2-2.8,1.6-3.5c5.3-1.3,10.2,0.8,15.3,1.1
		c17.6,0.8,35.2,1.6,52.8,1.9c15.3,0.3,30.6,0,45.9,0.1c16.2,0.1,28.2-9.4,30.7-25.8C647.2,528,648.8,509.2,648.4,490.4z
		 M449.1,423.3c-2.3-2.9-3.6-4.6-4.6-5.9c1.5,0.6,3.5-2.6,5.2-0.9C451.4,418.1,448.7,419.9,449.1,423.3z M487.3,549.3
		c-0.2,0-0.6,0.2-0.7,0.1c-0.8-0.5-2.5-13.4-1.8-13.7c0.8-0.4,1.8-0.4,1.4-0.3c3.6-0.3,5.1,0.2,5.2,2.9c0,1.7,0.6,3.4,1,5
		C493.1,546.5,490.6,549.4,487.3,549.3z"/>
	<path class="st0" d="M549.7,516.5c1.4,6.3,2.5,12.6,4.2,18.7c1.6,5.9,1.9,5.9-4.1,5.6c-5.7-1.1-10.5-4.2-15.1-7.5
		c-15.6-11-26.4-25.8-34.5-42.8c-2.4-5.1-1.7-6.4,4-6.4c12.2,0,24.4-0.5,36.5,0.6c-14-1-27.7-4-41.4-6.3c-3.5-0.6-5-3.1-6.2-6.2
		c-6.4-16.2-9.1-33.2-12-50.2c-1.1-6.7-1-13.3,0.2-19.9c0.5-2.7,0.7-5.5,3.2-7.4c1.4,0.1,2.4-1.5,3.9-1c-0.7,5.7,0,7,5.8,7
		c9.9,0,19.8-0.6,29.7-1.4c5.5-0.4,11.1-1,16.2,1.7c2.3,1.2,4.6,2.5,5.7,5.1c-3,11.5-5,23.3-4.6,35.1c0.5,14.6,2.7,29.1,3.5,43.6
		c0.3,5.8,1.5,11.4,2,17.1c-1.5,1.3-3.3,1.5-5,1.1c-6.9-1.3-13.9-0.3-20.8-1.5c-2.2-0.4-5.4-1.4-6.5,1.3c-0.9,2.2,1.6,4,3.1,5.7
		c2.6,2.9,6,4.1,9.9,4.7c5.9,0.9,11.9,0.7,17.8,1.8C546.7,515.4,548.4,515.3,549.7,516.5z"/>
	<path class="st0" d="M406.4,401.3c-2.6-10.8-9.8-13.7-20.2-12.8c-8.3,0.7-16.6,0.7-24.9,2.2c-10.3-2.3-18-7.4-21.3-18.1
		c-3-9.7-4.6-19.5-2.3-29.6c0.6-2.6,1.2-5,3.1-6.9c8.9-3.7,18.4-5.7,27.7-7.4c14.6-2.8,29.4-5.1,44.4-5.5c3.9-0.1,7.7,1.2,11.5,1.1
		c1.7-0.1,2.4,0.9,2.1,2.4c-2.5,11.2-2,22.7-3.7,34c-1,6.9,1.1,13.3,3.7,19.7c3.9,9.7,8.6,18.9,15.6,26.8c1.5,0.7,2.1,1.7,1,3.3
		c-8.8,1.2-16.9-1.6-25-4.1C414.2,405,409.6,404.7,406.4,401.3z"/>
	<path class="st1" d="M484.4,394.7c-4.8,13.6-2.7,27.2,0.2,40.6c2.6,12.3,4.8,24.8,9.6,36.6c1.5,3.8,3.7,5.1,7.4,5.7
		c12.6,1.9,25.2,4,37.8,6.1c0.9,0.1,1.8,0.7,2.6,1.6c-14,0-28,0-42.9,0c2.9,5.6,5.3,10.5,8,15.3c10.2,17.8,24.5,31.3,42.9,40.4
		c-12,0.3-24,1.7-36.1,1.2c-5.4,0-8.5-3.2-11.1-7.6c-5.6-9.6-8-20.2-10.2-30.9c-2.4-11.5-4.3-23.2-6.1-34.8
		c-1.9-4.4-0.9-9.2-1.6-13.7c-0.6-3.9-2.3-5.6-5.6-6.8c-8.3-3-16.9-5.5-24.7-9.6c-2.4-1.2-2.9-2.1-2.4-5.1
		c0.9-5.6,2.3-10.9,3.9-16.3c3.7-12.9,13.8-17.8,25-21.7C481.9,395.1,483.2,395,484.4,394.7z"/>
	<path class="st2" d="M612.1,552.7c-7,0-9.9-2-12.3-8.6c-3.1-8.7-5.1-17.6-5.9-26.7c-0.5-5.5,3.5-9.9,4.3-15.2
		c0.4-3,1.9-5.8,2.4-8.8c0.4-2.5,1.8-3.3,4-3.1c8.1,0.9,16.3,2,24.4,2.8c2.4,0.2,3.3,1.2,2.9,3.3c-1.4,8.3-0.4,16.7-1.7,25.1
		c-0.8,5.1-0.5,10.3-1,15.4C627.6,551.3,625.5,552,612.1,552.7z"/>
	<path class="st3" d="M433.6,540.3c0-10.1,0.1-10.4,7.1-8.9c3.2,0.7,6.4,0.8,9.6,1.2c4.1,0.4,5.5,2.7,5.7,6.2
		c0.9,12.7,2.7,25.3,5,37.8c1.4,7.9,2.7,15.9,6.5,23.2c1.6,3.1,0.9,3.8-2.4,3.9c-4.8,0-9.7,0.5-14.5,0.9c-2.5,0.2-4-0.9-4.8-3.2
		c-4.4-11.8-8-23.8-9.2-36.4C435.6,555.8,434.3,546.7,433.6,540.3z"/>
	<path class="st4" d="M435.6,451.3c3.8,0.3,7.4-2.2,11.7-0.6c-2.2,4.8-5.4,9-6.6,14.2c-3.6,16.2-2.5,32,3.8,47.4
		c1,2.5,3.5,4.2,3.7,7.2c-1.9,1.8-4.3,1.5-6.5,1.1c-13.9-2.6-24.4-9.6-28.7-23.8c-3.1-10.2-4.5-20.6-1.8-31.2
		c2-7.9,7.6-12.9,15.7-13.6C429.8,451.8,432.7,451.9,435.6,451.3z"/>
	<path class="st0" d="M560.7,545.9c0.7-2.4,2.7-1.9,4.4-1.9c5.2,0,10.4-0.1,15.6-0.1c0.1,0,0.3-0.1,1.3-0.6
		c-6.9-0.2-12.8-1.7-18.9-1.3c-1.5,0.1-3.1,0.4-3.6-2c-1.7-7.4-4-14.8-4.6-22.5c2.6-2,5.6-1.3,8.5-1c2.7,0.3,5.5,0.9,8.2,0.6
		c2.2-0.2,5.2,0.9,5.7-2.8c0.5-3.6-1.5-7.3-4.6-8.1c-4.4-1.1-9-1.3-13.5-1.9c-2.6-0.3-5.2-0.4-7.3-2.3c-0.5-2.5-0.7-5.1-1.5-7.5
		c-0.7-2,0.1-2.4,1.7-2.3c8,0.9,15.9,2,23.9,2.8c1.7,0.2,2,1,2.2,2.5c2.4,16.7,4.9,33.3,9.7,49.5c1.5,5,3.4,9.7,7.1,13.5
		c-0.8,0.8-1.8,0.8-2.7,0.5C581.1,557.1,570.3,552.8,560.7,545.9z"/>
	<path class="st4" d="M333.9,463.8c5.4-9,19-14.7,29.7-12.4c4.6,1,9.2,2,14.7,3.2c-10.8,3.1-16.2,10.1-18,20
		c-1.1,6.9-0.3,13.9-1.4,20.8c-0.4,2.3-0.9,4.4-1.9,6.5c-2.9,6.5-7.6,7.6-13.2,3.1c-2.6-2.1-4.1-5-5.3-8c-2.4-6-4.3-12.2-5.8-18.5
		C331.4,473.3,331.5,468.5,333.9,463.8z"/>
	<path class="st5" d="M480.8,460.2c-14-11.9-26.8-1.2-29.8,11c-4.2,17.4-0.6,32.7,11.8,45.7c5.3,5.6,7.9,5.7,14.3,1.5
		c4.7-3,12.3,0.4,13,5.8c0.8,5.9,0.8,6-5.2,5.9c-5.5-0.1-10.9-1.2-16.5-1.1c-2.6,0-5.2-1.4-7.5-3.1c-9.8-7.3-15-17-16.6-29
		c-1.5-10.8-1.8-21.6,0.9-32.3c0.7-2.9,1.8-5.5,3.1-8.1c3-5.8,7.2-8.1,13.5-7.3c3.7,0.5,7.3,1.2,10.9,2.1
		C477.3,452.5,481.9,453.7,480.8,460.2z"/>
	<path class="st6" d="M333.9,463.8c-2.4,12.9,2.5,24.4,7.3,35.9c0.7,1.7,1.8,3.1,3.2,4.3c5.3,4.3,9,3.5,11.5-2.9
		c2.9-7.2,2.2-14.9,3.5-22.4c0.2-1.4-0.4-3,0.9-4.1c0,11.7,0.6,23.2,4.9,34.3c2.1,5.4,4.8,10.4,9.6,15.1c-12.7,2.3-24,3.1-33.8-5.4
		c-6.3-5.4-9.1-12.8-11.2-20.4c-2.8-10.6-2.1-21.1,1.9-31.3C332.1,465.6,332.6,464.4,333.9,463.8z"/>
	<path class="st6" d="M406.3,455.1c2.8,0.4,1.9,1.8,1,3.4c-6.9,11.6-6.5,24.3-5.2,37.1c0.8,8.8,4.2,16.4,9.7,23.3
		c-15.2,2.3-31-5.8-33.9-25.7c-1.5-10.4-0.2-19.8,4.8-28.9c3.3-6.1,7.9-10,14.9-11c0.3,2.2-1.5,3-2.8,4.2c-7.8,7-10.8,21.6-6.3,30.9
		c1.1,2.3,2.6,4.3,5.5,3.9c3.2-0.5,3.1-3.2,3.2-5.7c0.5-9.7,0.3-19.5,5.6-28.2C403.6,457,403.8,454.8,406.3,455.1z"/>
	<path class="st7" d="M443.2,410.2c0.3-1.2-0.5-2.1-1-3.1c-3-6.8-6.2-13.6-9.1-20.4c-1.9-4.4-3.7-8.8-5.4-13.2c-2.6-7,0-14.1,0.3-21
		c0.2-5.5,0.9-11.1,1.5-16.7c0.3-3,1-6,1.4-9c0.4-2.9,3.3-3.3,5.5-3.5c9.2-0.6,18.3,0.5,27.3,2.3c5.9,1.2,9.5,5,10.5,10.8
		c1.5,8,3.6,16,3.1,24.2c-0.6,9.4-1.8,18.8-3,28.2c-0.4,3.4-2,6.3-6.8,6.6c4.9-4.4,4.4-10.1,4.9-15.5c0.7-6.9,1.6-13.7,1.9-20.6
		c0.4-7.7-1.2-15.3-3.9-22.5c-1.7-4.4-4.8-6.7-9.9-6.9c-6-0.3-11.9-0.9-17.9-0.9c-4.3,0-6.7,2.2-8.3,6c-1.1,2.6-1.4,5.4-1.4,7.9
		c0,11.8-4,23.7,0.5,35.4c2.6,6.8,5.7,13.6,10.5,19.2c3.8,4.5,9.1,3,14,2.2c1.5-0.2,2.9-0.8,4.5-1c-6.3,4.3-8.8,14.4-19.1,12.2
		c-0.4-0.1-0.5-0.2-0.5-0.5C443.1,410.3,443.1,410.2,443.2,410.2z"/>
	<path class="st8" d="M486.3,468.8c3,9,3.8,18.5,5.9,27.7c2.5,11,4.5,22.1,9.1,32.5c2.6,6,6,11,12.5,13.1c-2.7,2.1-6,0.1-9.9,1.8
		c16.1,0.4,31,0.8,46,1.2c-0.2,2.2-2.2,2.3-3.6,2.5c-8.2,1.1-16.4,2.5-24.1,3.5c9.8,3.9,20.5,6.9,31.3,9.3c1.1,0.2,2.3,0.4,2.3,2
		c-16,0.6-32-0.2-47.9-2.6c-4-0.6-5.5-2.9-6.7-6c-3.7-9.7-5.2-19.9-6.9-30.1c-2.7-15.5-5.1-31.1-7.5-46.7
		C486.2,474.3,486.4,471.5,486.3,468.8z"/>
	<path class="st7" d="M633.8,513.8c-0.9-5.7,1.7-11.7,0.9-17.8c-0.3-2.1,0.8-3.3,2.4-3.5c2.1-0.3,2.5,1.8,2.4,3.3
		c-0.2,6-0.7,11.9-0.9,17.9c-0.3,11.9-1.8,23.6-4.1,35.2c-1.9,9.5-10.9,13.3-19.2,14.5c-3,0.5-6.2,0.3-9.2-0.1
		c-8.9-1.2-12.2-8-14.3-15.4c-4.7-16.3-7.1-33.2-10.8-49.8c-0.8-3.7,1.6-4.5,4.1-4.8c3.6-0.5,3.5,2.4,3.6,4.8
		c0.9,14.4,2.7,28.5,5.6,42.7c3.2,16,11.9,16.2,25.6,14.3c10-1.4,11.1-7.4,11.8-14.8C632.6,531.6,633.8,523,633.8,513.8z"/>
	<path class="st1" d="M340.9,336.1c-4.2,12.6-3.5,25,0.8,37.5c2.5,7,7.1,11.4,13.7,14c2.1,0.8,4.3,1.4,5.9,3.1
		c-2.5,5.1,1.8,9,2.4,13.5c0.2,1.3,1.6,2.4,1.3,4c-0.8,0.9-1.8,0.7-2.7,0.3c-8.3-4-16.9-7.6-24.2-13.5c-3-2.5-5.6-5.4-7-9.2
		c-2-7.7-3-15.4-1.3-23.3c1-4.6,0.2-9.3,0.8-14C331.6,341.8,334.6,337.9,340.9,336.1z"/>
	<path class="st9" d="M581.2,406.1c-4-0.7-8-1.8-11.8,0.1c-7.4,3.7-9.8,10.9-11.6,18.2c-0.8,3.5-1.6,7.3-1.2,11.1
		c0.2,1.9,0.7,3.4,2.3,4.5c3.6,2.5,3.8,7.2,0.5,10.2c-1.1,0.9-1.9,1.8-1.7,3.2c1.1,10.3,3.1,20.1,12.6,26.6c8.1,5.5,16,3,24,0.1
		c1.6-0.6,3.2-1.5,5.2-2.5c-0.9,9.1-3,17.3-5.2,25.6c-2.5-1.3-1.4-3.5-1.5-5.2c-0.4-5.9-2.4-8-8.2-8.8c-7.5-1.1-15-2.5-22.7-1.9
		c-2.2,0.2-3.2-0.6-3.5-2.9c-0.8-6.5-2.1-13-2.6-19.6c-0.8-11-2.3-21.9-2-32.9c0.2-10.2,2.2-20,9.1-28c5.5-6.3,11.9-9.1,17-2.4
		C580.6,402.7,580.7,402.7,581.2,406.1z"/>
	<path class="st7" d="M545.8,406.2c-7.3-6-15.4-6.1-24.5-5.1c-8.6,0.9-17.3,1.1-26,1.3c-1.4,0-2.8-0.2-4.3-0.5
		c-6.5-1.8-6.9-3-2.6-8.1c12.8-1.7,25.6-3.3,38.5-5c4-0.5,8-0.1,12-0.7c7.2-1.1,14.6-1,22.2-1C553.2,391.4,549.9,399.1,545.8,406.2z
		"/>
	<path class="st1" d="M555.6,562.4c-12.3-3-24.6-5.9-36.4-12c5.2-0.8,10.4-1.5,15.6-2.6c5-1,10.3-0.3,15-2.8
		c5.7-1.3,8.9,0.6,10.1,6.8c0.6,3,2.2,6.2,5.9,9.2c-1.9-5.9-3.5-10.5-5-15.2c9.6,3.9,18.4,9.5,28.3,12.8c2,0.7,4,1.3,6,1.9
		c1,0.6,1.8,1.2,2.2,3.1C583.2,562.7,569.4,564.9,555.6,562.4z"/>
	<path class="st10" d="M434.3,366.6c1.1-9.2,2-19,3.4-28.7c0.8-5.4,3.7-7,9.1-5.6c2,0.5,4,1.4,6,1.9c9.3,2.5,9.9,10.2,11.1,17.8
		c2.1,12.6-0.2,25.1-1.1,37.6c-0.2,2.6-0.7,5.8-3.9,6.6c-4,1-8.9,3-11.8-0.9C440.7,387.1,434.8,378.3,434.3,366.6z"/>
	<path class="st6" d="M435.6,451.3c-4,0.9-8.1,1.6-12.1,2.8c-5.8,1.7-9.6,5.2-11,11.6c-2.9,13.5-1.5,26.6,5.3,38.4
		c6.5,11.2,17.6,15.6,30.4,15.5c3.6,2.3,5.2,6.4,8.9,9.6c-13.6-0.9-26.2-2.7-37.1-9.7c-7.1-4.5-11.1-11.6-12.7-19.9
		c-1.9-9.6-1.7-19.4,0.1-28.9c1.4-7.3,4.9-14,10.7-19.2c2.2-1.9,4.8-1.7,6.9-1.1C428.5,451.3,432.1,450.9,435.6,451.3z"/>
	<path class="st7" d="M600.5,411.7c-5.5-1.5-9.9-3.5-12.4-9.2c-1.2-2.8-4.2-5.2-7.2-7c-7.5-4.3-14.8-2.3-20.9,6
		c-5.9,8-9.6,16.6-9.5,27c0,5.7-1,11.6-0.7,17.3c0.5,10.5,1.9,21,3.7,31.4c0.5,2.7-0.6,5.5,1,8.1c0.5,0.8,0.2,2.1-1.2,2
		c-1.3-0.1-2.8,0.9-3.6-1.3c-1.4-3.8-1-7.9-1.7-11.8c-0.7-3.7-0.8-7.7-0.9-11.5c-0.2-8.6-2.1-17.1-1.1-25.6
		c1.4-11.9,0.1-24.4,7-35.3c3.8-6,8.6-11,15.1-14.2c3.6-1.8,7.1-0.5,10.1,0.9c9.7,4.6,17.7,11.4,22.4,21.5
		C600.7,410.2,600.5,410.8,600.5,411.7z"/>
	<path class="st11" d="M576.2,408.3c0.6,0,1.3,0,1.9,0c6.7,7.4,10.9,16,11.5,26.1c-2.2,11.2,0.6,21.6,5.2,31.6
		c0.9,2,2.5,3.7,3.8,5.5c-11.3,7.3-28.4,5.1-31.9-8.8c-1.3-5.2,0.3-8.3,5.4-9.4c3-0.7,5.9-1.6,8.9-2.1c5.5-1.2,7.8-6,5.2-11.1
		c-0.7-1.4-1.6-1.9-3-1.7c-6.3,0.6-12.5-1.3-18.8-1.1c-2.1-3.2-0.4-4.9,2.5-5.7c2.5-0.7,5.1-0.2,7.7,0.1c2.2,0.3,4.5,0.7,6.5-1.4
		c-2.7-2-5.5-1.1-8.1-0.8c-6.4,0.7-8.6-1.5-7.1-7.7C567.4,416,569.4,410.3,576.2,408.3z"/>
	<path class="st12" d="M474.5,534.3c3.4,0,5.5,2,5.9,6c0.2,3-0.2,6.1,1,9.1c0.5,1.3-0.4,2.4-1.6,3.2c-4.2,2.7-3.1,6.4-2.3,10.3
		c0.7,3.9,3,4.5,6.3,4.4c2.1-0.1,2.7,1.7,3.3,3.1c3.9,9.8,9,19,15,27.6c2.7,3.8,1.6,5.2-2.9,6.4c-8.3,2.2-10-4.8-12.6-9.2
		c-7.2-12-10.9-25.4-12.8-39.2c-0.9-6.2-1.7-12.4-2.7-18.6C470.5,534.9,471.3,533.9,474.5,534.3z"/>
	<path class="st6" d="M403.8,410.4c-6.6-4.8-11.9-3.4-17.1,1.5c-4.4,4.2-13,2.3-15.7-3c-1.6-3.3-3.4-6.5-4.3-10.2
		c-0.7-2.8,0-4.3,2.8-4.1c7.9,0.4,15.7-1.6,23.7-1.1c3.1,0.2,5.3,1.1,6.3,4.2C400.9,401.7,403.1,405.4,403.8,410.4z"/>
	<path class="st7" d="M549.7,516.5c-9.8-1.2-20,0-29.5-3.9c-3.9-1.6-5.7-5.1-7.7-8.4c-1.6-2.5-0.4-4.3,2.4-4.2
		c7.9,0.3,15.8,0.5,23.7,1.4c2.7,0.3,5.5,0.3,8.2,0.6C547.7,506.9,548.7,511.7,549.7,516.5z"/>
	<path class="st7" d="M551.9,502c7.5,1,15,1.8,22.4,2.9c2.9,0.4,5.2,5.8,4.8,10.5c-0.3,3.8-3.1,3.1-5.4,3c-6.3-0.2-12.5-0.7-18.8-1
		C553.9,512.3,552.9,507.2,551.9,502z"/>
	<path class="st8" d="M331.2,385.7c8.6,11.6,21.3,17,33.9,22.4c0.9,1.7,1.7,3.4,3,5.9c-8.1-0.1-15.5-0.7-22.8-1.7
		c-4.5-0.6-6-4.7-7.7-8C334.4,398.5,332.2,392.3,331.2,385.7z"/>
	<path class="st11" d="M615.2,440.7c0.1,9.6-0.5,18.1-5,25.7c-3.3,5.4-9.1,5.2-12.5-0.3c-2-3.3-2.7-7.2-3.4-10.9
		c-2.1-10.7-2.7-21.3,2.4-31.5c1.7-3.4,3.9-6.9,8.1-6.5c4.3,0.5,7,3.8,8.4,7.9C615.1,430.4,615.6,436,615.2,440.7z"/>
	<path class="st2" d="M581.1,451.3c-3.4,1.3-6.9,2.6-10.3,3.8c-2.8,0.9-3.9,2.9-3.3,5.6c2.4,10.8,9.4,14.4,19.5,13.7
		c3.9-0.3,7.8-1.7,11.7-2.7c0.9,0.4,3.6,0.7,1.7,1.8c-6.6,3.9-13.7,7.9-21.7,6.5c-9.7-1.6-15.7-8.8-17-19c-0.2-1.4,0-2.9-0.6-4.3
		c-0.8-1.9,0-3.3,2-3.5C569,452.5,575.1,451.9,581.1,451.3z"/>
	<path class="st4" d="M367.2,500c-3-10.8-4.8-21.5,0-32.3c3.1-6.9,9.4-9.2,16.4-11.7c-1.2,1.9-2.1,3.4-3.1,4.8
		c-1.1,1.4-2.3,2.7-3.5,4.1c-5.2,7.9-5.6,16.7-4.3,25.7c0.4,2.6,0.5,5.2,0.6,7.7c0,1.7-0.6,3.3-2.3,4
		C368.9,503,368.1,501.3,367.2,500z"/>
	<path class="st6" d="M367.2,500c4.2,2.5,4.8,2.2,4.9-2.6c0.1-7.2-1.9-14.3-0.1-21.5c1-4.1,1.7-8.1,5-11c-5.9,13-4.7,26-0.1,39
		c2,5.7,5.2,10.3,10.1,13.8c1,0.7,2.5,1.4,2.3,2.9c-0.3,1.5-2.1,1.3-3.2,1.6c-4.7,1.3-11.1-1.4-13.7-6.2
		C369.7,511,367.3,505.8,367.2,500z"/>
	<path class="st4" d="M406.3,455.1c-6.4,7.9-7.1,17.4-7.8,26.9c-0.2,2.4,0.1,4.9-0.1,7.3c-0.2,3.7-3.2,5.7-6.7,4.4
		c-2.5-0.9-3.9-2.8-4.8-5.2c-4.2-10.8-1.1-27.1,9-33.4c0.7-0.4,1.1-1.2,1.6-1.8C400.6,453.2,403.8,452.2,406.3,455.1z"/>
	<path class="st5" d="M419.2,416.4c-2.4,13.5-11,20.8-23.6,20.2c-7.1-0.4-15.6-9-15.5-15.7c0-1.5,0.9-2,2-2.4c1.9-0.6,1.6,0.9,1.8,2
		c0.8,3.8,1.5,7.7,4.9,10.2c3.6,2.7,7.4,3.8,11.8,1.9c5-2.2,7.3-6.7,7.5-11.5c0.2-3.4,1.1-4,4.1-4.3
		C414.5,416.5,416.8,415.7,419.2,416.4z"/>
	<path class="st13" d="M484.4,606.3c-1.7,0.2-3.1,1.5-4.9,1c-5.7-5.4-7.7-12.7-9.9-19.8c-3.6-11.2-5.1-23-6.7-34.6
		c-0.6-4.6-0.5-9.4-1.7-14c-0.4-1.6-0.5-3.2,0.7-4.6c1,0,2,0,3,0c2.4,11.7,3.1,23.6,5.6,35.2c2.4,10.6,5.5,20.9,11.6,30.1
		C483.4,601.6,485,603.6,484.4,606.3z"/>
	<path class="st2" d="M576.2,408.3c-6,3.9-8.7,9.8-9.6,16.6c-0.5,4.2,3,4.2,5.7,3.5c2.6-0.7,5.1-0.6,7.7-0.7c1.8,0,3.3,1,3.6,2.7
		c0.3,2-1.7,1.8-3,2.5c-3.9,2-7.6-0.6-11.4-0.4c-3.5,0.2-5.2,1.2-4.6,4.9c-3.9,0.7-5.6-1-4.9-4.8c1.1-6.3,2-12.6,5.6-18.2
		C567.9,410.4,571,407.5,576.2,408.3z"/>
	<path class="st5" d="M435.2,430.7c4.2,0.1,8.1,4.5,8.1,8.8c0,4.6-4.5,9-8.7,8.7c-4.1-0.3-8-4.7-7.9-9.1
		C426.9,434.8,431.1,430.6,435.2,430.7z"/>
	<path class="st9" d="M464.9,393.6c2.2-9,1.6-17.7,2.6-26.3c1-8.6-1-17-2.9-25.4c-0.4-1.7-1.6-3.7,0.8-4.6c2.5-0.9,2.8,1.6,3.3,3.1
		c2.7,9.1,3.6,18.2,2.3,27.8c-0.9,6.7-1.1,13.5-2.3,20.2C468.4,390.5,468,392.4,464.9,393.6z"/>
	<path class="st14" d="M589.7,434.5c-1-0.9-1.5-2.1-1.7-3.3c-1.1-6.9-2.7-13.5-8.4-18.4c-1.2-1-1.7-2.7-1.4-4.5
		c7,1.3,13.7,3.5,20.7,6.5C593.6,420.4,592.1,427.7,589.7,434.5z"/>
	<path class="st13" d="M441.4,606.5c-1.1,1.4-2.6,0.8-4,0.8c-5.2-6.7-6-14.9-7.6-22.7c-3.6-18.2-4.9-36.7-3.5-55.3
		c0-0.3,0.2-0.6,0.4-0.9c0.7,0.3,1.3,0.7,2,1c1.4,7.6,1.2,15.4,1.7,23.1c1.1,16.9,3.8,33.4,9.9,49.3
		C441,603.3,441.8,604.8,441.4,606.5z"/>
	<path class="st15" d="M461.1,505.8c-2.2-2.8-0.6-5.3,0.8-7.8c8.4-1.3,16.6-0.4,24.4,3.1c-0.2,2.6,1.7,5,1,7.7
		c-0.2,0.2-0.5,0.6-0.8,0.6C477.8,509.3,469.2,509.2,461.1,505.8z"/>
	<path class="st5" d="M403.3,420.3c0,4.3-3.3,8.2-7.1,8.4c-4,0.1-7.6-3.9-7.5-8.4c0.1-4.4,3.5-8.1,7.4-8.1
		C399.9,412.1,403.3,416,403.3,420.3z"/>
	<path class="st12" d="M484.4,606.3c-7.2-11.3-12.6-23.2-15-36.5c-2.1-11.8-3.9-23.5-4.5-35.5c3.1,5.3,3,11.4,3.7,17.1
		c2.3,17.6,6.2,34.5,16.5,49.3C486.6,602.9,487.2,604.8,484.4,606.3z"/>
	<path class="st15" d="M482.3,473.7c-0.2,2.6,1.7,5,1,7.7c-0.5,0.4-1,1-1.6,1c-7.6-0.5-15.4,0.5-22.6-2.9c-0.6-2.2-2.1-4.4,0-6.7
		c1.7-1.2,3.6-1.7,5.6-1.5C470.6,471.9,476.7,471,482.3,473.7z"/>
	<path class="st12" d="M461.9,534.3c2.7,25.1,4.6,50.4,17.5,73c-4-0.5-4.7-4.1-6.2-6.7c-5.9-10.2-7.4-21.8-9.3-33.2
		c-1.6-9.2-2.7-18.4-3.8-27.6C459.9,538,458.3,535.2,461.9,534.3z"/>
	<path class="st1" d="M443.2,410.2c0.1,0.3,0.2,0.5,0.2,0.8c-10.4,2.8-20.9-0.2-31.4,0.1c-2,0.1-2.8-1.4-3.4-2.9
		c-0.9-2.3-1.6-4.6-2.3-6.8C418.5,404.9,430.5,409.2,443.2,410.2z"/>
	<path class="st12" d="M441.4,606.5c-6.3-12.9-9.2-26.7-10.8-40.9c-1.4-12-2.2-24.1-1.9-36.2c1.5,3.4,1.7,7.1,1.9,10.7
		c0.6,15.6,2.3,31.2,6,46.4c1.3,5.3,3.4,10.4,5.1,15.6C442.2,603.7,443,605.1,441.4,606.5z"/>
	<path class="st6" d="M423.1,444.9c-5.3,0.5-4.7,0.6-4.3-6.3c0.6-11.7,16-17.4,24.2-13.6c3.9,1.8,6.5,3.5,3.4,8.7
		c-4.2-6-9.4-9.3-16.6-5C423.6,432.4,421.7,436.9,423.1,444.9z"/>
	<path class="st12" d="M426.7,528.4c-0.4,15.3,0.3,30.5,2.1,45.6c1.4,11.4,4.3,22.5,8.6,33.3c-4.8-2-4.9-6.7-6-10.8
		c-4.6-18-6.7-36.4-6.6-54.9C424.9,537.2,425.3,532.7,426.7,528.4z"/>
	<path class="st5" d="M454.3,480.1c7.6,12.1,20.4,6.4,30.8,11.6c-10.5,1.5-21.9-5.4-28.7,6.9C454.7,492.7,453.7,487.1,454.3,480.1z"
		/>
	<path class="st2" d="M564.5,444.9c-0.7-3.5,0.8-5,4.2-4.4c4.3,0.7,8.6,1.2,12.9,1c2-0.1,2.4,1.1,2.4,2.8c0,1.5,0,2.8-2.1,3.1
		c-4.9,0.5-9.8,1.4-14.7,1.9C563.6,449.5,564.7,446.7,564.5,444.9z"/>
	<path class="st16" d="M461.1,505.8c8.7,1,17.4,2,26.1,2.9c1.5,5.3,1.4,5.3-4.1,4.4c-4.9-0.8-9.8-0.9-14.7-1.4
		C464.7,511.3,461.2,510.5,461.1,505.8z"/>
	<path class="st12" d="M483.8,562.6c-1.1,0.2-1.7-1.5-2.2-3c-0.4-1.5,0-2.5,1.9-3.1c3.1-0.8,6-2.2,8.9-3.5c1.9-0.8,2.6-0.9,3.9,1.4
		c2.2,4.2,0.8,5.4-3.1,6C490.4,560.9,487.6,561.7,483.8,562.6z"/>
	<path class="st16" d="M482.3,473.7c-7.8,0.5-15.4-1.7-23.2-1c4.1-4.3,16.9-6.6,22.1-3.8C483.3,470.1,482.1,472.1,482.3,473.7z"/>
	<path class="st16" d="M459.1,479.4c8.1,0.7,16.1,1.3,24.2,2c0.5,2.8-0.3,4.2-3.4,4c-4.9-0.3-9.8-1.1-14.8-1.3
		C462.6,484.1,459.8,482.6,459.1,479.4z"/>
	<path class="st17" d="M487.3,549.3c-0.2,0-0.6,0.2-0.7,0.1c-0.8-0.5-2.5-13.4-1.8-13.7c0.8-0.4,1.8-0.4,1.4-0.3
		c3.6-0.3,5.1,0.2,5.2,2.9c0,1.7,0.6,3.4,1,5C493.1,546.5,490.6,549.4,487.3,549.3z"/>
	<path class="st16" d="M486.2,501.1c-8.1-1-16.3-2.1-24.4-3.1c2-2.5,4.9-2.6,7.8-2.9c4.5-0.5,8.9,1.1,13.4,1.1
		C486.3,496.1,485.7,499,486.2,501.1z"/>
	<path class="st5" d="M421.4,425.4c2.1-4.1,1.8-8.5,5.4-9.1c3.6-0.6,8.5-2.1,11.1,3.5C432.2,419.8,427.3,421.7,421.4,425.4z"/>
	<path class="st5" d="M478.2,463.9c-6.8-0.1-12.9-0.5-19,2.7C463.3,459.4,470.9,457.8,478.2,463.9z"/>
	<path class="st7" d="M609.9,471.8c1.4,4-0.6,7.2-0.7,10.5c0,1-0.4,3.3-2.4,2.9c-2.5-0.5-0.8-2.1-0.6-3.3
		C606.8,478.4,606.3,474.6,609.9,471.8z"/>
	<path class="st7" d="M635.7,489c-6.8,1.1-12.7-1.5-18.8-1.1C623,487.5,629.1,486.4,635.7,489z"/>
	<path class="st7" d="M563.2,490.5c5.5-0.1,11-1.1,16.8,1.4C574,492.6,568.6,492.1,563.2,490.5z"/>
	<path class="st17" d="M449.1,423.3c-2.3-2.9-3.6-4.6-4.6-5.9c1.5,0.6,3.5-2.6,5.2-0.9C451.4,418.1,448.7,419.9,449.1,423.3z"/>
	<path class="st6" d="M446.6,445.9c2.8-6.1,5.9-1.3,9.5-1.4C452.7,446.3,449.9,446.7,446.6,445.9z"/>
	<path class="st9" d="M457.1,332c2.1,0.6,4.1,1.1,7.2,1.9C460.4,336.5,458.7,334,457.1,332z"/>
	<path class="st7" d="M422.8,331.3c-0.9,5.6-1.8,12.3-3,18.9c-0.5,2.9-1.8,4.1-4.4,1.3c-2.6-2.8-4.2-6.1-6-9.3
		c-1.3-2.3-3.1-3.9-5.6-4.2c-10.4-1.4-20.9-1.2-31.3,0.5c-7.1,1.1-14.4,1.6-21.6,2.3c-1.5,0.1-3.6,0.4-3.9-1.8
		c-0.2-1.8,1.7-2.3,3-2.7c10.3-3.1,20.8-5.5,31.5-7.3c10-1.7,20.1-2.3,30.2-3.8c3-0.4,5.8,0.3,8.6,0.9
		C422.7,326.7,422.9,328.3,422.8,331.3z"/>
	<path class="st7" d="M395.4,371c4.3-0.5,8.7-0.7,12.9-1.5c4.1-0.8,7.7,0.2,11.3,1.5c1.4,0.5,2.8,1.4,2.9,3c0,1.6-1.4,2.6-2.8,3
		c-2.8,0.8-5.6,1.7-8.4,1.8c-15.8,0.9-31.6,2.9-47.5,1.9c-4.8-0.3-9.7-0.2-14.3-1.7c-1.1-0.4-2.3-0.6-2.4-2
		c-0.1-1.4,1.2-1.9,2.2-2.2c2.4-0.8,4.9-1.6,7.5-1.7c8.4-0.3,16.8-0.7,25.2-1.1C386.4,370.8,390.9,371.2,395.4,371z"/>
	<path d="M395.4,371c-4.3,2.8-8.9,1.8-13.5,1c-1.3-1.2-2.8-2.1-3.8-3.5c-2.6-3.4-4.1-7.2-1.9-11.5c2.5-4.9,6.9-7.4,12-7.2
		c6.2,0.3,10.2,2.2,12.4,9.1C401.9,363.1,400,367.6,395.4,371z"/>
	<path class="st18" d="M438.4,504.9c-4.2-3.2-6.5-7.4-7.9-12.1c-3-10-4.5-20.1-4.7-30.5c-0.1-4.4,2.1-7,6.4-7.9
		c2.3-0.5,4.8-0.9,6.4,1c1.6,1.8-0.9,3.1-1.6,4.5c-4.2,9.1-3.9,18.5-2,28C436,493.6,437.3,499.2,438.4,504.9z"/>
	<path class="st18" d="M339.1,466.1c1,0.3,1.6,1.1,1.9,2c1.5,4.5,4.9,7,9.1,8.7c4.3,1.7,6.5,4.6,4.4,9.5c-0.7,1.6-0.7,3.5-1.1,5.2
		c-0.6,2.4-1.4,5.1-4.2,5.3c-2.5,0.2-4.5-1.5-5.6-3.9c-3.6-7.1-4.9-15-6.7-22.6c-0.2-0.9,0-1.9,0.3-2.9
		C337.5,466.6,338.1,466.1,339.1,466.1z"/>
	<path class="st19" d="M439.5,366.3c-0.8-0.1-1.5-0.2-2.3-0.3c0-0.2,0-0.3,0-0.5c0.8-0.1,1.5-0.2,2.3-0.3c1.1-0.9,2.6-2,2.7-3.4
		c0.3-7.6,6-13,7.9-19.9c0.5-1.4-1.4-2.6-0.5-4.2c1.5,1.1,1.5,2.6,1.6,4.2c5.5,6.5,8.5,14,9.6,22.3c0.7,0.6,1.5,1.1,2.2,1.7
		c-0.7,0.2-1.5,0.3-2.2,0.5c-0.4,8.5-3.4,16.1-7.7,23.3c-0.5,1.1-1,2.1-1.8,3.7c-0.2-1.6-0.2-2.7-0.3-3.7c-0.4-3.1-1.7-5.6-3.8-8
		c-2.4-2.6-3.7-6.1-4.3-9.7C442.6,369.5,441.6,367.6,439.5,366.3z"/>
	<path class="st20" d="M450.1,341.8c0.3,3.1,1,5.8-2.5,8.2c-2.6,1.8-2.9,5.5-3.4,8.8c-0.4,2.7,0.2,6.7-4.7,6.3
		c-0.7-4.9,0.6-9.6,1.1-14.4C441.2,345.8,444.8,342.7,450.1,341.8z"/>
	<path class="st20" d="M439.5,366.3c2-0.2,3.5-0.3,4.1,2.6c1.1,5.8,2.4,11.6,8,15.3c1.9,1.3-0.3,3.6-0.5,5.4
		c-8.1-1.9-8.5-9.2-10.3-15.3C440,371.8,439.9,369,439.5,366.3z"/>
	<path class="st20" d="M460.9,364.2c-1.3-8.3-7-14.6-9.6-22.3c5,0.7,6.8,4.5,7.6,8.7C459.9,355,460.3,359.6,460.9,364.2z"/>
	<path class="st20" d="M453.2,389.6c0.4-3.2,0.9-6.2,3.2-8.8c2.7-3.1,2.9-7.4,3.5-11.4c0.2-1.1-0.3-2.3,0.9-3
		c0.3,5.3-0.9,10.5-1.7,15.7C458.5,385.8,456.7,388.3,453.2,389.6z"/>
	<path class="st14" d="M585.7,472.6c-7.4,0.1-12.5-3.9-14-10.1c-0.7-2.9,1.5-4.1,3.3-5.3c3.1-1.9,6.6-2.4,10.1-3.1
		c2-0.4,3.3,0.4,3.9,2.7c0.9,3.3,1.8,6.6,3.3,9.6c1.8,3.6,0.9,5-2.8,5.4C587.8,471.9,586.3,472.5,585.7,472.6z"/>
	<path d="M595.7,443.1c-0.1-6,1.3-11.7,3.5-17.3c0.9-2.4,2.3-4.9,5.4-4.9c2.8,0,4.2,2.2,5.1,4.5c5,11.9,5,23.9,0,35.8
		c-0.9,2.3-2.3,4.5-5.1,4.5c-3.3,0-4.6-2.8-5.6-5.3C596.9,454.9,595.6,449.1,595.7,443.1z"/>
	<path class="st18" d="M387.7,475.4c0.9-7.4,2.8-13.8,8.4-18.4c1.4-1.2,3.2-2.8,5.2-1.2c1.9,1.5,0,2.9-0.5,4.3
		c-1.8,4.9-2.9,9.9-4,14.9c-0.1,0.5-0.2,1-0.3,1.4c-0.7,2.7-1.5,6.2-4.8,5.6C388.7,481.5,388.3,477.8,387.7,475.4z"/>
	<path class="st21" d="M388.2,368.2c-4.6,0-8.4-3.3-8.3-7.1c0.2-3.7,3.8-6.6,8.3-6.6c4.6,0,8.4,3.3,8.3,7.1
		C396.3,365.3,392.6,368.2,388.2,368.2z"/>
	<path class="st20" d="M451.8,381.1c-2.8,0-3.7-2.1-4.3-4c-0.6-2-0.9-4.1-1.3-6.1c-0.2-1.4-2.3-3.7,0.6-3.8c2.3-0.1,6.9-2.1,6.4,3.6
		c-0.1,1.8,0.1,3.6-0.1,5.3C452.8,377.9,452.2,379.5,451.8,381.1z"/>
	<path class="st20" d="M449.3,364.3c-3.7,0.4-4.6-0.8-3.4-4.5c0.8-2.7,0.7-5.7,2.3-8.2c0.5-0.8,1-1.8,2.1-1.6
		c1.3,0.2,1.7,1.3,1.8,2.5c0.2,3.2,0,6.4,0.8,9.6C453.6,364.8,450.9,364,449.3,364.3z"/>
	<path class="st20" d="M457.3,365.9c1.6,4.8-0.3,8.3-1.6,12C455.1,374,454.3,370.1,457.3,365.9z"/>
	<path class="st20" d="M454.2,352.6c3.2,3.1,3,7.2,4,12.4C453.6,360.9,456.4,356.1,454.2,352.6z"/>
</g>
</svg>
