<?xml version="1.0" encoding="utf-8"?>
<!-- Generator: Adobe Illustrator 23.0.1, SVG Export Plug-In . SVG Version: 6.00 Build 0)  -->
<svg version="1.1" id="Layer_4" xmlns="http://www.w3.org/2000/svg" xmlns:xlink="http://www.w3.org/1999/xlink" x="0px" y="0px"
	 viewBox="0 0 1000 1000" style="enable-background:new 0 0 1000 1000;" xml:space="preserve">
<style type="text/css">
	.st0{fill:#FE9E00;}
	.st1{fill:#9A4C14;}
	.st2{fill:#AD9F66;}
	.st3{fill:#4C2502;}
	.st4{fill:#5B4B43;}
	.st5{fill:#252618;}
	.st6{fill:#74463C;}
	.st7{fill:#FEFEFE;}
	.st8{fill:#905020;}
	.st9{fill:#F7A320;}
	.st10{fill:#DAA442;}
	.st11{fill:none;}
	.st12{fill:#FEFE00;}
	.st13{fill:#A08368;}
	.st14{fill:#432E2B;}
</style>
<g>
	<path d="M607.2,414.5C607.2,414.5,607.3,414.5,607.2,414.5c3.8-1.1,6.5-3.2,7.2-7.2c-2.9-3.8-6.5-6.2-11.3-7.1
		c-3.6-0.7-7.1-1.3-10.7-1.9c-12.8-1.9-24.8-1-34.4,9.1c-1.1,1.1-1.8,1.6-3.9,1.2c-10.7-1.8-21.5-3-32.4-3.2
		c-16.8-0.3-33.4,1.1-50.1,2.8c-9.1,0.9-16.6,3.8-20.7,12.5c-1.5,3.1-4.2,4.4-7.3,5.1c-11.1,2.6-18.6,9.7-22.2,20
		c-2.6,7.5-3.7,15.5-7,22.8c-1,2.1-1,5-1.4,7.4c-0.9,4.8-0.2,9.7-5.9,13.7c-18.9,13-29.1,31.3-29.2,54.8c0,11,0.5,21.9,2.1,32.7
		c2,13.4,6,19.2,19,23c7.7,2.2,16,2.9,24,3.2c13.9,0.6,27.8-0.2,41.5-3.7c14.3-3.6,21.3-12.7,19.9-27.2c-0.2-2-0.1-3.2,2.7-3.3
		c3.1-0.1,6,1,9,1.1c10.8,0.3,21.5,0.1,31.9-3c15.4-4.5,26.1-15.7,26.6-31.1c0.3-9.7,6.6-16.7,16.7-16.8c4.8,0,9.5,1.2,14.4,1.1
		c18.9-0.2,28-22,21.4-34.8c-2.1-4.1-2-6.1,2.3-7.5c-1.7-4.4-5.3-6.3-9.6-7.2c0,0,0,0-0.1,0c-0.2,0-0.3,0.1-0.5,0.1
		c-5,1.1-10.1,1-15.3,0.9c-0.6-0.1-1.3-0.1-2-0.2c-0.8-0.1-1.5-0.1-2.3-0.2c-10.7-0.8-21.4-0.5-32.1-1.7c-8.3-0.9-16.6-2-21.2-10.2
		c-0.2-0.3-0.3-0.6-0.5-0.9c0,0,0-0.1-0.1-0.1c-4.6-7.3-3.3-14.2,1-21c0.2-0.2,0.3-0.3,0.5-0.5c0.3-0.3,0.6-0.6,1-1
		c3.3-3,7.4-4.5,11.6-5.6c13.5-3.4,27.3-3.7,41.1-4.3c0.8,0,1.6-0.1,2.4-0.1c0.5,0,1,0,1.5-0.1c3.3-0.1,6.6,0,9.9,0.3
		c0.2,0,0.3,0,0.5,0h0c2.6-0.4,4.3-1.8,4.7-4.5c0-0.1-0.1-0.1-0.1-0.2c0,0,0-0.1-0.1-0.1c-2.6-3.8-1.8-8.5-3.7-12.6
		C600.8,409.2,604.1,411.5,607.2,414.5C607.1,414.4,607.2,414.4,607.2,414.5z M492.5,540.5c2.2-1.8,4.6-1.6,7.2-1.2
		C497.7,544.9,496.5,545.1,492.5,540.5z"/>
	<path class="st0" d="M607.4,414.2c2.3-2.3,4.7-4.7,7-7c16.7-16.6,33.5-33.2,50.1-49.9c1.3-1.2,2.3-2.7,4.3-3.4
		c-5.9,19.6-11.9,39.1-18.3,60.1c17.6-9.2,33.8-17.7,50.4-26.5c-0.7,4.2-3.1,7.2-4.9,10.3c-5.6,9.6-11.2,19.2-16.9,28.8
		c-2.1,3.6-0.3,3.7,2.7,4c17.5,1.8,35,3.7,52.4,6c4.4,0.6,8.9,0.4,13.6,2.5c-7.1,2.1-13.8,4.1-20.6,6.1
		c-14.1,4.2-28.2,8.4-42.4,12.6c-0.8,0.2-2.2-0.3-2.3,1.1c0,1,1.1,1.4,1.8,2c12,9.5,24,19.1,36,28.7c0.3,0.3,0.5,0.8,0.9,1.5
		c-22.1-4.1-43.9-8.1-67-12.3c9.2,16.4,17.8,31.6,26.4,46.8c-0.3,0.2-0.6,0.5-0.8,0.7c-5.6-3.7-11.2-7.4-16.8-11.2
		c-12.4-8.6-24.8-17.3-37.2-26c-5.5-3.8-10.7-8-16.7-10.9c-2.7-2.5-5.6-4.7-8.8-6.5c-6.6-2.1-12.2-5.9-16.7-11
		c-1.4-1.6-2.5-3.5-1.1-5.8c3.4-0.8,5.3,1.9,7.7,3.4c20.5,13.2,41.7,25.1,62.7,37.6c-4.7-8.6-10-16.7-15.1-25
		c-0.5-0.8-1.1-1.6-1.6-2.5c-0.8-1.4-2-3-0.8-4.5c1-1.3,2.8-0.6,4.1-0.3c16.1,4,32.2,7.4,47.8,11.4c-8.5-6.4-18.2-12.2-27.2-18.9
		c-1.5-1.1-3.8-2-3.6-4.2c0.3-2.6,2.9-2.3,4.7-2.7c12.3-2.8,24.6-5.3,35.8-7.5c-12.7-1.2-26.5-3-40.3-4.5c-4.3-0.5-4.9-2.3-2.2-5.8
		c3.8-5.1,8.2-9.6,12.3-14.8c-10.3,4.2-20.2,8.9-30.3,13.1c-1.6,0.6-3.4,2.1-5,0.7c-1.8-1.6-0.6-3.7-0.1-5.5
		c3.4-11,7.8-21.7,11.4-33.3c-8.1,6.9-15.9,13.5-23.7,20.1c-11.2,9.4-22.1,19.2-32.9,29c-1,0.9-1.9,1.8-3.4,1.7
		c-1.3-1.1-0.8-2.4-0.2-3.5c3.1-5.5,7.1-10.1,12.7-13.2c1.3-1.3,2.6-2.6,3.9-3.9C601.2,418.4,603.9,415.9,607.4,414.2z"/>
	<path class="st1" d="M473.7,570.2c4.3,13.4-2.2,20.7-15.8,18.9c-15.1-2-29.6-6.7-44.5-9.4c-0.4-0.1-0.8-0.5-1.2-0.8
		c-3.5-5.8-2.6-12.3-3.2-18.6c0.3-1.3,1.1-2.3,2.1-3.2c7.5-7.4,8.8-18.3,2.3-25.4c-0.5-0.6-0.9-1.4-1.1-2.2c0.9-9,5.7-16,12.1-22
		c1.1-0.3,2,0.1,2.6,0.9c5.7,7.1,12.8,12.6,20.1,17.8c0.7,7.7,1.9,15.3,7.1,21.5C458.1,557.5,462.8,566.6,473.7,570.2z"/>
	<path class="st2" d="M583,455.2c0.2,4.8,3.7,7.3,7.2,9.7c3.4,2.4,7,4.6,10.5,6.9c-5.3,2.7-11,1.7-16.5,1.7
		c-4.3-1.1-7.8-3.3-10.1-7.1c-1.9-3.1-4.6-4.2-8.2-4.1c-10.2,0.1-20.3-1.3-30.6-1.1c-3.6,0.1-7.5-0.2-10.7-2.3
		c-5.1-7.4-3.1-14.5,1-21.4c6.5-3.1,13.6-2.9,20.5-3.1c7.8-0.2,15.5-1.4,23.3-1.2c1.8,0,3.6-0.3,4.9-1.8c2.8-3.4,6.6-5.1,10.7-6.4
		c3.6,0.2,7.4-1.2,10.8,1c-3.3,4.3-8,7.3-10.8,12.1c-0.8,1.4-1.9,2.6-1.7,4.3c0.5,1.1,0.1,2.2-0.2,3.3c-1,2.5-0.7,5,0,7.6
		C583.1,453.9,583,454.5,583,455.2z"/>
	<path class="st3" d="M424.9,507.7c-5.1,6.6-10.1,13.2-11.9,21.7c-1.1,0.8-2.1,0.4-3.2,0.1c-6.5-1.5-12,1.2-14.5,7.3
		c-2.1,5.1-1.8,10.2,0,15.2c1.7,4.6,6,7.3,11,7.2c1.3,0,2.6-0.6,3.7,0.4c0.7,6.5,1.4,13,2.2,19.5c-2.9-0.3-5.7-0.6-8.6-0.9
		c-2.8-0.3-5.9,0.3-7.8,2c-4.6,4-5.3,1.1-5.9-2.7c-2.1-14.7-5.1-29.4-2-44.2c1.8-8.7,5.2-16.8,11.2-23.9
		c5.2-6.2,11.1-11.1,17.7-15.6c1.1-0.7,2.6-3.1,3.2,0.4C421.9,498.6,424.6,502.7,424.9,507.7z"/>
	<path class="st4" d="M501,493.3c2.6-1.2,4-3.1,3.8-6c-0.7-16.4,1.5-32.6,1-49c-0.2-6.8-2.6-9.1-9.3-9.6c-7.4-0.5-14.8-1-22.2-0.9
		c-4.5,0.1-8.9,1.4-13.5,1c-3.5-0.3-2.5-1.4-1-3c1.3-1.1,2.9-1.5,4.5-1.5c9.1,0,18.2-1.6,27.3-1c5.2,0.4,10.4-1,15.6-1
		c6.9,0.1,8.2,1.4,8.3,8.3c-2.1,11.6-3.4,23.4-2.8,35.1c0.8,14.6,1.4,29.3,5.2,43.6c0.5,1.8,0.2,3.1-0.5,4.6
		c-0.6,1.3-1.5,1.7-2.6,0.5c-7-7.8-16.8-7.6-25.9-8.4c-10.6-0.9-21.3,0.2-31.9,1.8c-3.7,0.6-6.1,2.9-7.5,6.2c-1,2.3-1.8,2.4-3.8,0.9
		c-4.5-3.2-8.9-6.5-12.1-11c0.9-1.1,2.2-1.3,3.5-1.3c8.4,0,16.8-0.6,25.2,0.4c9.2,1.1,18.1,0.8,26.3-4.2
		C492.5,496.4,496.9,495,501,493.3z"/>
	<path class="st4" d="M478.4,447.2c-0.3,0.9-1.1,1.1-2,1c-7.6-0.6-15.2,1.5-22.8,1c-2.2-0.1-4.1,0.5-6.2,1c-6.5,1.6-9.1,4.3-9,9.6
		c0.1,5.8,3.7,9.7,9.7,11c8,1.7,16.2,0.6,24.2,1c1.8,0.1,4.2-0.8,4.2,2.5c0,3.3-2.5,2.3-4.2,2.4c-5.8,0.1-11.6,0.4-17.1,2.4
		c-1.8,0.7-3.9,1.6-3.9,3.9c0,2.3,2.1,3.6,4,4.5c4.3,2.1,9,2.7,13.6,2.8c4.8,0.1,9.7,0.4,14.5-0.7c2.5-0.6,5.5-1,8.5,1.6
		c-14.3,1.1-27.9,2.5-41.6-0.8c-14.5-3.5-25.4-22-21.7-35.2c1.8-6.7,4.3-12.5,10.8-15.8c3.3,5.8,8.7,6.5,14.6,6.5
		c6.2,0,12.3,0,18.5,0C474.5,445.9,476.7,445.5,478.4,447.2z"/>
	<path class="st5" d="M501,493.3c-12,8.2-24.4,13.7-39.8,11.2c-9-1.5-18.4-0.4-27.7-0.5c-12.6-13.1-14.6-17.7-8.2-35.6
		c2.3,11.9,10.1,19.1,19.9,24.3c3.6,1.9,7.6,2.5,11.7,2.5C471.7,495.2,486.4,494.3,501,493.3z"/>
	<path class="st6" d="M575.8,478c-12.6,11.7-9.2,24.3-1.3,33c-8.6-1.3-16.5,0.3-23.7-3.2c-5.3-2.6-8.2-11.7-6.5-18.4
		c2.8-11.6,6.7-11.8,14.3-12.7C564.2,475.9,569.9,476.7,575.8,478z"/>
	<path class="st6" d="M584.8,478.6c7.7-0.2,15,7.2,14.6,16.2c-0.4,10.4-5,16.1-14.4,16.9c-7.6,0.7-15-7.1-14.6-16.1
		C570.9,485.1,575.5,479.8,584.8,478.6z"/>
	<path class="st7" d="M501.9,448.2c0.3,12.4-1.7,24.8-1,37.2c0.2,3.5-1.6,5.1-5,4.8c-3.3-0.3-3.8-2.1-2.9-5.3c1-3.7-1.9-7.6-6.1-8.2
		c-1.6-0.2-2.9-1.4-4.6-1.1c-2.2,0.4-2.3-1.6-2.7-2.6c-0.5-1.1,0.8-1.7,1.9-2.3c8.7-5.2,9.5-13.1,1.8-20.4c-1.4-1.3-0.2-1.8-0.1-2.7
		c0.2-1.7,0.5-3.2,2.7-3.3c1.3,0,2.6,0.1,3.9,0c3.5-0.5,6.7-1.6,6.2-6.1c-0.2-1.9,0.7-3,2-4.1c0.7-0.6,1.2-1.8,2.4-1.3
		c1.1,0.5,1.6,1.4,1.5,2.7C501.9,439.7,502,443.9,501.9,448.2z"/>
	<path class="st2" d="M536,512.6c-4.1,0.8-7.9-1.5-12-0.9c-1.8,0.2-2.2-1.6-2.3-2.6c-1-7.1-2.8-14.1-3.2-21.3
		c-0.6-9.8-2.6-19.6-1.7-29.4c0.7-7.5,0-15.1,1.8-22.5c3.3-13.7,16.5-22.1,30.6-18.7c1.3,0.3,2.6,0.8,4.1,1.2
		c-3.2,5.4-9.2,4.8-14,6.1c-10.9,2.9-18.8,9.2-20.6,20.2c-1.8,11.1,2.3,20.9,12.3,27.3c0.7,0.4,1.3,0.9,2.8,1.9
		c-6.3,1.4-9.4,5.1-11.1,9.8c-1.9,5.2-2,10.6,0.5,15.8c2.2,4.5,6.9,5.9,10.8,8.2C535.4,509.1,536.9,510.4,536,512.6z"/>
	<path class="st2" d="M515.6,430.7c-1.6-2-1-5.8-3.3-6.5c-3.2-0.9-6.9-0.7-10.1-0.1c-2.9,0.6-5.8,0.8-8.7,0.7
		c-11.2-0.6-22.3,1.6-33.5,1c1.1-5.5,5.1-8.1,10.1-8.7c17.9-2,35.8-3.3,53.8-3c1.7,0,3.6-0.7,5.3,1.5
		C522,418.3,519.3,424.8,515.6,430.7z"/>
	<path class="st4" d="M524.5,458.9c14.8,1.2,29.7,1.7,44.6,2.1c1.3,0,2.9-0.3,3.5,1.1c2.5,5.2,6.9,8.4,11.4,11.5
		c-15.5-1.6-31.2-0.2-46.5-3.7C531.3,468.4,526.9,464.8,524.5,458.9z"/>
	<path class="st4" d="M444.3,464.8c-2.4-1.6-3.5-3.8-2.5-6.6c1-2.8,3.1-4.8,6-5c9.5-0.8,19-1.4,28.4-2c4.7-0.3,6.9,2.7,8.5,6.6
		c1.3,3.3,0.6,5.9-2.3,8c-2,1-4.1,1.2-6.2,1c-8.1-0.8-16.2-0.2-24.3-0.5C449.3,466.2,446.7,466.1,444.3,464.8z"/>
	<path class="st4" d="M514.9,548.7c2.5-5.7,5.7-10.8,5.8-17c0-2.1,2.4-1.7,3.6-1.3c5.8,1.8,11.9,0.2,17.8,1.7
		c2.3,0.6,2.8,1.3,2.9,3.4c0.3,11-5.4,15.9-16.3,14.7C524.2,549.7,519.8,549.2,514.9,548.7z"/>
	<path class="st4" d="M498,546.9c9.3-5.6,6.9-14.1,5.4-22.3c-0.4-2.3-1-4.7-1.5-7c5.3-0.8,9.2,1.7,12.6,7.9c0.1,0.3,0.1,0.6,0.1,0.9
		c-1.7,2.2-2.5,4.7-3.2,7.5c-2.4,9.3-6.6,17.6-14.3,23.7c-21,7.9-47.9-8.3-46-33.2c0.1-1.9,0.7-3.8,1-5.7c1-1.4,1.9-3.1,4.2-1.8
		c0.8,2.5-0.2,4.8-0.6,7.2c-2.1,10.4,2.9,18.1,10.3,24.3c7,5.9,15.2,7.9,24.2,4.2C493.3,551.3,495.7,549.1,498,546.9z"/>
	<path class="st7" d="M584.9,424.9c-3.2,3.5-8.8,4.2-10.8,9.1c-0.2,0.4-1.5,0.6-2.2,0.5c-7.6-0.6-15.1,1.1-22.8,1.1
		c-7.9,0.1-15.7,1.1-23.5,1.8c4.8-6.9,12.6-8.3,19.7-9.5C558.3,425.8,571.6,425,584.9,424.9z"/>
	<path class="st3" d="M450.7,592.7c-7.3,2.7-14.9,2.4-22.3,1.9c-9.4-0.6-19-0.2-28.1-3.7c-0.2-0.1-0.3-0.1-0.5-0.1
		c-2.4-0.9-5.7-1.9-5.4-4.6c0.2-2.4,3.6-2.5,5.9-3.3c6.4-2.1,12,0.7,17.9,2C429.1,587.3,439.7,590.6,450.7,592.7z"/>
	<path class="st2" d="M557.3,421.8c7.1-8.2,14.8-14.7,26-15.5c5.2-0.4,8.7,1.4,10.3,6.4c1.5,4.8-1,8.3-5.9,8.3
		C577.5,420.9,567.4,420.6,557.3,421.8z"/>
	<path class="st5" d="M554.6,516.5c-2.9,4.2-5.8,7.1-8.7,9.7c-3,2.7-7.8,1.3-11.7,0.9c-3.5-0.4-7.1-1-10.6-0.7c-4,0.4-5-2.2-4.8-5
		c0.2-2.7,0.9-6,5-5.8c5.6,0.3,11.3-0.4,16.9,0.7C544.9,517.2,549.4,516.5,554.6,516.5z"/>
	<path class="st5" d="M464.2,515.9c2,6.5,4,12.4,8.6,17.1c2.6,2.6,5.5,4.6,9.1,5.3c4.3,0.8,7.1,3.5,9.6,6.7c-7,3.6-20,1.3-25.5-4.4
		C460.3,534.8,459.5,525.1,464.2,515.9z"/>
	<path class="st2" d="M498,546.9c-2.5,5.8-11.7,10.2-19.7,8.7c-13.1-2.4-26-15.8-24.2-29.5c0.4-3.2,1.3-6.3,2-9.4
		c1.2-1.2,2.5-1.1,3.7,0c-5.8,18.4,2.5,30.8,20.2,33.9c5.4,0.9,10.9-1.5,16.1-3.3C496.8,547.1,497.4,547,498,546.9z"/>
	<path class="st2" d="M478.4,447.2c-10.8-0.3-21.5,0.8-32.3-0.6c-4.8-0.6-6.3-3.1-6.7-7.2c5.5-5.2,12.6-7.2,19.6-7.5
		c12.1-0.5,24.4-3.1,36.7,0.2c-3.7,2.7-7.8,1.7-11.5,1.3c-9.7-1.2-19.3-1.4-28.8,0.3c-2.9,0.5-5.9,2.3-5.9,5.4
		c0,3.9,3.5,4.9,6.8,5.2c1.1,0.1,2.3,0,3.4,0c5.7,0,11.4,0.1,17.1,0C479.2,444.3,480.3,444.8,478.4,447.2z"/>
	<path class="st4" d="M471.8,441.5c-5.1-0.6-10.7,0.8-16.1-0.8c-1.3-0.4-3.3-0.3-3.2-2.2c0.1-1.9,1.9-1.7,3.3-2
		c11.7-1.9,23.4-1,35.2,0c1.3,0.1,2.1,0.5,2.1,2c0,1.5-1,1.6-2.2,1.9C484.7,442.1,478.3,441.1,471.8,441.5z"/>
	<path class="st2" d="M525.5,493.1c0.1-10.7,5.5-16.6,14.9-16.6c1.8,0,3.5,0.4,5,1.2c-0.8,1.4-1.5,2.7-2.3,4.1
		c-0.3,0.6-0.8,1-1.1,1.6c-0.9,1.4-1.1,3-1.7,4.5C537.4,494.9,532.7,496.6,525.5,493.1z"/>
	<path class="st8" d="M487.8,509.8c4.5-0.1,6.6,2.6,8.8,5.2c0.6,0.7,0.9,1.7,1.3,2.5c4.4,8.8,3.1,11.1-6.7,11.7
		c-1.8,0.1-2.2-1.1-2.7-2.2c-2.4-4.5-2.7-9.4-3.3-14.3C485.1,510.5,486,509.3,487.8,509.8z"/>
	<path class="st8" d="M471.8,525.5c-2-3.7-3.3-7.5-4.4-11.6c-1.2-4.4,0.8-4.2,3.7-4.1c3.1,0.1,6.7-0.9,9.1,0.4
		c2.5,1.4,1.4,5.5,2.3,8.3c0.6,2,1.2,4,1.7,6C480.2,526.3,476.1,527.5,471.8,525.5z"/>
	<path class="st2" d="M497.2,557.5c5.6-7.6,11.6-15,13.4-24.6c0.5-2.9,0-6,4.1-6.5c3.7,8.7-2.8,23.9-11,28.3
		C501.6,555.8,499.7,557.4,497.2,557.5z"/>
	<path class="st9" d="M424.9,507.7c-2.5-4.2-4.3-8.6-5-13.5c2.1,0.4,2.5,2.5,3.2,3.8c4.8,9.2,13.1,15,20.8,21.1
		c2.7,2.2,3.7,4,3.2,7.1c-8.7-3-14.4-9.9-20.3-16.4C426.2,509.1,425.5,508.4,424.9,507.7z"/>
	<path class="st4" d="M525.5,493.1c0.3,0,0.6,0,1,0.1c6.4,0.7,12.2,0.6,13.6-7.7c0.1-0.8,1.2-1.4,1.9-2.1c-0.5,6.3-1.9,12.7,0.3,19
		c0.5,1.6-0.6,1.4-1.5,1.5C534.1,504.8,527.1,499.8,525.5,493.1z"/>
	<path class="st3" d="M473.7,570.2c-5.1,0.5-8.3-2.6-11.5-5.9c-4.4-4.6-7.2-10.1-8-16.5c2.8,4.3,6.7,7.7,11.3,9.5
		C471.8,559.7,475,563.3,473.7,570.2z"/>
	<path class="st4" d="M458,485.4c-1.4-0.1-2.8-0.5-2.6-2.1c0.3-1.9,2.2-2.4,3.7-2.6c3.8-0.6,7.6-1.1,11.4-1.1
		c5.3,0,10.6-0.7,15.8,0.8c1.9,0.5,3.2,1.3,3.8,3.1c-0.5,0.4-1.1,0.8-1.7,0.9C478.3,484.5,468.2,486.8,458,485.4z"/>
	<path class="st10" d="M471.8,525.5c4.2,0.3,8.2-1.7,12.4-1c2,3.2,4.9,6.2,3.2,10.6c0.3,0.4,0.2,0.8-0.1,1.1
		C479.8,536,475.3,531.5,471.8,525.5z"/>
	<path class="st2" d="M444.3,464.8c12.7,0,25.4-0.4,38.1,1c-1.4,2.5-4.3,2.4-6.4,2.5c-9.8,0.6-19.6,1.2-29.3-1.5
		C445.6,466.5,444.8,466,444.3,464.8z"/>
	<path class="st7" d="M607.4,414.2c-2.6,2.6-5.2,5.2-7.8,7.8c-2.6-0.2-3.1-1.8-3-4c0.2-3.7-1.1-7.1-3-11.1
		C598.9,408.8,605,407.8,607.4,414.2z"/>
	<path class="st2" d="M458,485.4c10.7-1,21.3-2.6,32.1-1.9c0.5,1.6-0.8,2.1-1.8,2.2C478.2,487.1,468.1,489.3,458,485.4z"/>
	<path class="st5" d="M514.6,525.5c-3.8-3.3-7-7.4-12.6-7.9c-1.8-1.8-2.6-4-3.3-6.4C508.1,510.9,514.3,516.5,514.6,525.5z"/>
	<path class="st8" d="M487.3,536.2c0-0.4,0.1-0.7,0.1-1.1c2.9-4.2,6.9-5.7,12-4.8c1.1,0.2,2.5-0.1,2.5,1.6c0,1.2,0.7,2.9-1.2,3.2
		C496.3,535.9,492,538.6,487.3,536.2z"/>
	<path class="st4" d="M536,512.6c-0.6-1.6-1.2-3.2-1.8-4.8c5.4,0.5,11.3-0.5,15.5,5.8C544.7,513.3,540.4,512.9,536,512.6z"/>
	<path class="st5" d="M459.9,516.7c-1.2,0-2.5,0-3.7,0c-1.3,0.6-2.6,1.3-3.9,1.9c0.8-5.7,4.8-7.2,9.9-7.7
		C462.2,513.3,460.6,514.8,459.9,516.7z"/>
	<path class="st11" d="M499.7,539.3c-2,5.6-3.3,5.8-7.2,1.2C494.7,538.7,497.2,538.9,499.7,539.3z"/>
	<path class="st12" d="M582.2,445.3c-0.4-1.2,0.5-2,1-2.9c19.9-18.5,40.8-35.8,62.3-52.9c-4,11.7-8,23.4-12,35
		c-0.2,0.6-0.5,1.2-0.6,1.8c-0.2,1.2-1.7,2.5-0.5,3.6c1.2,1.2,2.4-0.3,3.4-0.8c11.4-4.9,22.8-9.9,34.7-14.4
		c-5.6,6.7-11.1,13.4-17.4,20.9c16.5,1.9,32.2,3.8,48,5.7c0,0.3,0.1,0.5,0.1,0.8c-5.6,1.3-11.2,2.7-16.8,3.9c-8,1.7-16.1,3.3-24.1,5
		c-0.9,0.2-2.2-0.3-2.6,0.8c-0.5,1.5,1,1.8,1.9,2.4c10.2,7.1,20.5,14.1,30.7,21.2c0.5,0.3,1,0.7,1.2,1.9
		c-18.4-4.4-36.9-8.7-56.3-13.3c7.4,11.9,14.3,22.9,21.1,33.8c-1.3,1.4-2.2,0.5-2.9,0.1c-19.9-11.9-39.7-23.7-59.5-35.6
		c-3.7-2.2-6.7-5.6-10.9-7.2c-0.3-0.4-0.5-0.7-0.8-1.1c1.9-1.6,3.7-0.3,5.5,0.3c12.2,4.5,24.3,9.1,37.1,13.8
		c-3.5-3.8-6.3-7.3-9.1-10.8c-2.7-3.5-2.1-5.7,2.2-6.6c7.7-1.7,15.3-4.3,22.4-4.7c-7.8-0.3-16.4-1.1-25.1-2.1c-5.6-0.6-6-1.8-3.5-7
		c1.7-3.5,2.9-7.3,5.3-11.5c-9.8,5.8-18.8,11.5-27.8,17C587.1,444,585.1,446,582.2,445.3z"/>
	<path d="M410,559.5c-8.4,2.6-14.5-1-16.6-9.7c-2.8-11.3,1.2-18.9,10.8-22c3.5-1.1,5.9,1,8.8,1.6C421.9,539.7,420.7,552,410,559.5z"
		/>
	<path class="st7" d="M582.2,445.3c12.2-7.4,24.3-14.8,37.4-22.7c-3.2,7-6,13.2-8.9,19.7c11,1.1,21.7,2.1,32.4,3.1
		c0,0.2,0.1,0.5,0.1,0.7c-8.4,2-16.8,4.3-25.3,5.9c-4.5,0.8-3.2,2.5-1.5,4.6c3.8,4.6,7.7,9,12.3,14.5c-12.5-4.6-23.8-8.9-35.2-13.1
		c-3.7-1.4-7.2-3.3-11.2-3.8C581.2,451.2,580.1,448.2,582.2,445.3z"/>
	<path class="st1" d="M401.4,537.1c-0.1,0.9-0.1,1.9-0.4,2.8c-2.2,6.6,1,14.9,10.9,13.7c-3.5,5.1-8.6,5.6-12.8,1.2
		c-4-4.1-4.8-12.6-1.7-17.8C398.7,536.1,400.1,535.9,401.4,537.1z"/>
	<path class="st3" d="M401.4,537.1c-1.3,0-2.7-0.1-4-0.1c2.3-6,7.4-8.1,13.3-5.3C407.1,533,404.1,534.8,401.4,537.1z"/>
	<path class="st13" d="M415.3,548.8c-7.2,3.2-9.7,2.1-10.7-4.5C408.2,545.6,411.9,546.4,415.3,548.8z"/>
	<path class="st14" d="M405.2,537.9c2.1-2.8,5.2-3.7,8-2.4c2.8,1.3,2.9,4.6,2.7,7.5C412.5,541,408.8,539.5,405.2,537.9z"/>
	<path class="st13" d="M405.2,537.9c4.7-0.6,8.2,1.1,10.7,5.1c-4.2,0.7-7.6-1.6-11.1-3.2C404,539.5,404.4,538.5,405.2,537.9z"/>
</g>
</svg>
