<?xml version="1.0" encoding="utf-8"?>
<!-- Generator: Adobe Illustrator 23.0.1, SVG Export Plug-In . SVG Version: 6.00 Build 0)  -->
<svg version="1.1" id="Layer_4" xmlns="http://www.w3.org/2000/svg" xmlns:xlink="http://www.w3.org/1999/xlink" x="0px" y="0px"
	 viewBox="0 0 1000 1000" style="enable-background:new 0 0 1000 1000;" xml:space="preserve">
<style type="text/css">
	.st0{fill:#053E4F;}
	.st1{fill:#5093C2;}
	.st2{fill:#141F25;}
	.st3{fill:#31444E;}
	.st4{fill:#032A36;}
	.st5{fill:#7F4000;}
	.st6{fill:#512800;}
	.st7{fill:#090F12;}
	.st8{fill:#FDFDFE;}
	.st9{fill:#502800;}
	.st10{fill:#585858;}
	.st11{fill:#373737;}
	.st12{fill:#7C939F;}
	.st13{fill:none;}
	.st14{fill:#502700;}
	.st15{fill:#A0A0A0;}
	.st16{fill:#595959;}
	.st17{fill:#A2A2A2;}
	.st18{fill:#FEFEFE;}
	.st19{fill:#7D94A0;}
	.st20{fill:#020101;}
	.st21{fill:#040202;}
	.st22{fill:#F7F9FA;}
	.st23{fill:#D66B00;}
	.st24{fill:#A1A1A1;}
	.st25{fill:#C40202;}
	.st26{fill:#FBF0F0;}
	.st27{fill:#CC0E0E;}
</style>
<g>
	<path d="M639.5,460.7c-1.7-10.8-3.2-21.8-8.8-31.6c-9-15.6-21.8-24.9-40.3-24.8c-13.3,0.1-26.5,1.9-39.5,4.1
		c-10.6,1.8-21.1,4.9-30.2,11.4c-1.9,1.3-4.3,2.9-6.3,2.8c-7.6-0.3-15.1,1.2-23.7,1.2c2.9-4.5,2.6-8.7,1.5-12.9
		c-2-8.2-4.1-16.7-12.8-20.3c-13-5.3-26.4-4.2-38.4,2.5c-5.4,3-10.2,4.6-16,4.3c-2.1-0.1-4.3-0.2-6.3,0c-5.8,0.7-12.1,0.5-16.7,4.2
		c-6.6,5.4-12.7,10.3-22.2,8.8c-2.7-0.4-6.5,0.4-9.7,1.5c-10.4,3.5-20.1,8.5-27.2,17c-10.1,12.2-16.8,26.1-19.3,41.9
		c-1.5,9.2-1.8,18.3,0.4,27.5c2.8,12,7.9,22.4,15.5,32.4c14.7,19.4,34.3,25.1,57,22.7c12.8-1.3,25.3-4,38.1-6.1
		c-3.9,11-7.7,21.7-10,33c-2.6,12.8,2.7,22.1,14.9,26.1c8.9,2.9,17.9,3.7,27.2,2c9.9-1.8,18.3-6,25.9-12.5c7-6.1,9.8-13.4,9.4-22.4
		c-0.2-3.6,1.5-5.3,5.7-5.3c8.8,0,17.5-0.8,26.1-2.8c9.5-2.2,18.6-4.9,23.5-14.7c0.6-1.3,1.7-1.9,3.9-1.3c4.1,1.1,8.5,1.1,12.9,1.3
		c8,0.3,15.9-1,23.9-1.7c13.9-1.1,23.3-8.6,29.4-19.9C638.8,507.8,643.3,484.8,639.5,460.7z M532.2,542.5
		c-3.2,8.4-10.4,10.3-18.2,11.1c-2.9,0.3-5.8,0.1-8.8,0c-0.8,0-2,0.4-2.3-1c-0.1-0.5-0.1-1.1,0.2-1.4c1-1.2,1.6,0.1,2.4,0.4
		c4,1.8,8.1,1.4,12-0.1c2.4-0.9,4.1-2.8,1.9-5.6c-3.2-4.2-3.6-8.7-1.5-13.5c4.1,2.6,8,5.5,12.8,6.7
		C532.4,539.7,532.8,540.8,532.2,542.5z"/>
	<path class="st0" d="M508.9,514.6c-6.4-12.2-8.1-25.6-7.6-38.9c0.7-18.1,5.1-35.2,19-48.3c6.4-6,14.4-8.5,22.4-10.8
		c15.9-4.5,32.2-6.4,48.6-6.4c17.3,0.1,28,9.2,33.8,22.4c-1.3,2.6-2.5,0.3-3.4-0.3c-3.6-2.5-7.4-4.4-11.8-5
		c-7.3,1.3-10.9,6.8-13.7,12.7c-6.5,13.9-7.9,28.7-6.5,43.8c0.8,8.4,3.1,16.6,3.9,25c-2.2,7-8,9.2-14.3,9.9
		c-12.3,1.3-24.6,0.5-36.9-0.5c-8.2-0.7-16.5-1.4-24.7-1.5C514.5,516.7,511.5,516.4,508.9,514.6z"/>
	<path class="st0" d="M398.4,436.5c9.6,5.5,20,2.8,31.1,2.9c-14.9,21.4-17.2,43.8-7.5,67.3c0.7,5.2-1.9,9.2-7.9,11.6
		c-5.1,2.1-10.7,2.7-16.1,3.3c-12.7,1.5-25.3,3.7-38.1,4.7c-4.2,0.3-8.4,0.3-12.6,0.3c-1.9,0-3.5-0.7-4.6-2.2
		c-3.8-2.4-5.6-6.4-7.1-10.2c-7.9-19.8-10.3-40-1.6-60.2c5-11.5,11.6-22.2,22.3-29.3c8-5.3,17-8.4,26.8-8.8c1.8-0.1,3.7,0.1,5.3-0.4
		c4.3-1.6,3.6,1,3.1,3.5c-2.2,1.6-4.9,1.5-7.4,1.7c-12.3,0.9-22.9,5.2-31,14.8c-8.9,10.8-16.5,22.2-18.4,36.4
		c-0.2,1.3-0.4,2.6-0.5,3.9c-0.6,8,1.4,9.8,9.4,9.1c19.2-1.6,38.5-3,57.8-3.7c6.3-0.2,8.8-1.8,9.1-7.6c0.4-7.4,2.4-14.3,4.9-21.3
		c1.9-5.3,1.3-6-4.4-6.7c-3.7-0.4-7.5-1.1-10.3-3.8C399.2,440.4,397.2,439.1,398.4,436.5z"/>
	<path class="st1" d="M398.4,436.5c2.5,6.7,8.4,7.4,14.2,7.9c5.5,0.5,6.5,1.5,4.5,6.8c-2.7,7.3-5.1,14.6-5.2,22.6
		c-0.1,6.3-2.7,8-9.4,8.4c-19.6,1.2-39.3,2.5-58.9,3.9c-9.9,0.7-11.5-0.6-10.7-10.5c1.2-16.2,8.8-29.5,19.6-41.1
		c4.9-2.5,10.2-1,15.3-1.8c8-1.2,16.1-1.5,24.2-1.9c1,0,1.9,0,2.7,0.7C396.9,432.6,397.1,435,398.4,436.5z"/>
	<path class="st2" d="M496.1,482.4c0.7,13.1,2.7,25.8,9.8,37.1c0.9,2.7-1.2,2.9-2.8,3.1c-25.4,2.6-49.7-0.6-72-14.2
		c-1.9-1.2-3-2.9-4.3-4.6c-4.8-8.5-6.2-17.7-5.8-27.4c8.9,6.3,19.1,5.7,29.3,5.5c13.8-0.2,27.5,0,41.3-0.7
		C493.1,481.3,494.7,481.2,496.1,482.4z"/>
	<path class="st3" d="M496.1,482.4c-19.8,1.5-39.6,1.1-59.4,0.9c-5.8-0.1-12.1-0.6-15.7-6.7c1.1-8.5,2.7-16.8,6.7-24.5
		c4.1-7,10.4-8,17.7-6.9c7.4,1.1,14.7,2.2,22.3,1.1c9.6-1.4,17.5-4.8,22.5-13.4c0.8-1.3,1.9-2.2,3-3.2c6.2-1.9,12.7-0.4,19.7-2.1
		C500.2,444.3,495.7,462.6,496.1,482.4z"/>
	<path class="st4" d="M508.9,514.6c16.2,1,32.3,2.3,48.5,3c9.3,0.4,18.7,1.5,27.9-1.8c3.8-1.3,5.4-4.3,7.5-7c2.5,0.1,2.3,2.3,3,3.8
		c1.8,4.2,3.6,8.4,6.5,11.9c2.4,2.9,5,5.7,9.2,5.4c3.4,1,6-3,9.5-1.6c-4.7,8.3-11.7,13.3-21.2,14.6c-15.1,2-30.2,3.6-45.3-0.5
		c-14.2-3.8-28.2-8.3-39.1-19C512.9,521,511,517.6,508.9,514.6z"/>
	<path class="st4" d="M342.6,524.5c4.7,1.8,9.7,1.2,14.5,0.8c11.7-1.1,23.4-2.3,35-4.3c5.7-1,11.5-1.4,17.3-2.4
		c7.1-1.3,11.3-5.2,12.5-11.7c4,5.8,6.8,12.6,12.5,17.1c0.9,0.7,1.7,1.5,2.6,2.2c1.9,1.5,5.7,1.6,4.7,5.1c-1.2,4-2,8.2-7.5,9.6
		c-19.8,5.2-39.9,8.2-60.4,6.9c-9.4-0.6-16.8-6.4-23.3-13C347.7,531.5,344.2,528.8,342.6,524.5z"/>
	<path class="st2" d="M621,528.3c-3.2,1-5.9,3.9-9.7,2.9c-3.8-1.3-6.7-3.8-9.1-7c-1.3-1.8-1.2-3.5,0.8-4.5
		c9.6-4.5,11.7-13.4,13.1-22.5c2.5-16.1,2.9-32.3-1.4-48.3c-1.4-5.1-3.6-9.7-7.9-13c-4.8-3.7-4.7-5.2,0.7-8.2c1-0.6,2-1,2.8-1.9
		c5.5,1,9.9,4.3,14.7,6.7c5,8.2,7.1,17.3,8.6,26.6c3.6,23.2-0.1,45.4-10.5,66.5C622.6,526.7,621.7,527.5,621,528.3z"/>
	<path class="st5" d="M483.3,557.6c-0.9,7.3-2.2,14.6-2.7,21.9c-0.4,6.1-2.7,10.5-8,13.2c-5.5,2.7-10.3,6.6-16.5,7.9
		c-3.7,1-7.4,0.7-10.8-1.2c-3.9-2.2-4.2-6.8-0.5-9.5c2.4-1.7,5.3-2.3,7.9-3.7c2.4-1.3,5.2-1.5,7-4c4.4-6.1,3-12.9-5.4-16.1
		c-7.8-2.6-8.4-4-5.7-12c1.4-4.2,3.4-8.1,6.1-11.6c4.4-5.7,16.2-9.3,22.6-6.9c2.6,1,4,3.2,4.8,5.8c1.1,3.8,1.7,7.6,1.2,11.6
		C483,554.5,482.6,556.1,483.3,557.6z"/>
	<path class="st6" d="M483.3,557.6c-1.7-4.4-0.6-9.2-1.8-13.8c-1.6-6.4-4.1-8.5-10.6-7.6c-12.6,1.8-21.1,10.6-22.7,23.2
		c-0.3,2.8,0.5,4.4,3.4,4.5c1.4,0,2.5,0.3,3.4,1.4c-0.9,1.2-2.3,1.1-3.5,1.4c-4.9,1.2-7.6,4.3-7.9,9.1c-0.3,4.4,1.6,7.2,6.2,9.2
		c1.2,0.5,2.5,0.7,3.2,2c-1.8,1.8-4.4,1.9-6.6,3c-2,1.1-3.4,2.1-3.4,4.7c0,2.8,2.1,3.6,4,4.2c2.9,0.8,5.9,1.1,8.8,1.6
		c-10.2,6.3-20,0.4-24.7-5.9c-3.1-4.1-2.4-9-1.5-13.5c2-10.3,5.2-20.2,9-30c2.2-5.7,4.5-11.4,6.8-17.2c0.7-1.7,1.3-3.2,3.9-2.3
		c11.8,4.1,23.9,2.2,36.4,2.1C484.9,541.7,484.1,549.7,483.3,557.6z"/>
	<path class="st0" d="M452.3,396.7c2.7-2.7,6.2-1.9,9.4-2.2c19.5-1.5,30,13.1,22.6,31.2c-0.4,0.3-0.8,0.3-1.2,0
		c-1.2-2.4,0.1-4.8,0.3-7.1c0.5-5.4-0.6-10.3-3.8-14.7c-1.3-1.7-3-2.9-5.3-3.1c-6.3,1.3-9.7,5.4-10.1,12.4c-0.2,3.1,0.3,6.2,1.3,9.1
		c0.6,1.7,1.5,3.3,0.8,5.2c-1,2-2.9,2.5-4.8,2.9c-7.1,1.4-14.1,1.7-21.2,0.3c-2-0.4-3.6-1.3-4.9-2.9c-6.4-10.7-1.2-26,10.4-30
		C447.8,397.1,449.8,394.5,452.3,396.7c-0.9,4.1-5.3,2.6-7.5,4.6c-2.2,1.4-4.2,3.1-5.6,5.3c-1.5,2.3-1.3,4.2,1.9,4.3
		c5.7,0.2,11.3-0.3,16.9-1.3c2-0.4,3-1.8,3.8-3.4c1.3-2.8,3.1-5.3,5.4-7.4c0.5-0.7,1.8-1.6-0.1-1.9c-2.4-0.4-4.8,0-7.2,0.4
		C457.3,397.7,454.7,398.3,452.3,396.7z"/>
	<path class="st7" d="M426.8,503.9c14.7,10.4,31.1,15.9,49,17.7c8.8,0.9,17.5-0.2,26.3-0.2c1.5,0,3.4,0.5,3.8-1.9
		c2.1,2.6,3.5,5.8,7,8.2c-6.1,1.8-11.6,0.8-16.9,1.3c-11,0.9-22.1,0.5-33.2,0.3c-8.2-0.1-16-1.9-22.8-6.8
		C433.5,517.8,429.2,511.5,426.8,503.9z"/>
	<path class="st8" d="M394.7,431.7c-14.1,1.3-28.1,3.1-42.3,2.9c8.2-10.1,19.2-14.4,31.9-15.1c2.4-0.1,4.7-1,7.2-0.5
		C391.8,423.5,392.9,427.7,394.7,431.7z"/>
	<path class="st2" d="M401.3,431.7c-3.4-2.4-4.9-5.7-4.9-9.8c4-2.5,8.5-1.5,12.8-2c6.1-0.7,12.3-0.9,18.4-0.1
		c0.3,4.1,0.6,8.2,3,11.8c-0.4,0.7-1,1.4-1.8,1.5C419.6,433.9,410.3,435.8,401.3,431.7z"/>
	<path class="st4" d="M435.4,427.8c9,3.5,18.2,2.9,27.4,0.9c1.4-0.3,2.4-0.8,3-2.1c3.7,0.2,4.7,5,8.5,5c2.8,0.3,4.4-1.5,6-3.3
		c0.9-1,1-2.9,3-2.6c0.3,0,0.6,0,1,0c-2.4,6.7-6.3,11.3-14.1,11.9c-8,0.6-16,1.7-23.9,0C440.9,436.5,437.2,433.2,435.4,427.8z"/>
	<path class="st2" d="M493.1,429.7c-4.5,10.7-12.6,16.1-24,17.7c-8,1.2-15.8,0.5-23.5-1.1c-7.1-1.4-13,0.7-18,5.7
		c1.2-5.2,5.5-8.3,8.4-12.3c1.4-1.9,2.9,0.2,4.3,0.6c14.5,4.7,28.7,6.4,42.2-3.2c1.5-1.1,2.7-2.2,3.6-3.8
		C487.5,430.5,489.8,429.1,493.1,429.7z"/>
	<path class="st9" d="M485.4,564.5c1-9.6,2-19.2,2.8-28.8c0.2-2.6,2.2-2.2,3.5-2.3c1.5-0.2,3.9-1.1,4.4,1.6c1,5.4,3.6,10.4,3,16.1
		c-0.2,1.6,0.1,3.4-2.6,2.9c-4.7-0.8-6,1.6-5.5,5.9c0.3,2.5-0.3,5.1,1.3,7.4C488.6,569.8,487,567.2,485.4,564.5z"/>
	<path class="st3" d="M427.6,419.8c-1.1,0.8-2.3,1-3.7,1c-9.2,0.3-18.3,0.7-27.5,1c0.1-3.5-0.9-7.4,3-9.8c6.2-1,12.5-1.5,18.8-1.3
		c4.1,0.1,7.8,0,9.5-4.6c0.3-0.7,1.1-1.2,2-0.9c-0.9,3.6-1.6,7.3-2.6,10.9C426.8,417.6,427.1,418.7,427.6,419.8z"/>
	<path class="st10" d="M545,545.1c3,0.5,0.9,2.4,0.6,3.1c-1,2.4-1.7,5.2-4.4,6.6c-5.4,5.6-12.9,6.3-19.7,8.8
		c-9.1,1.1-18.1,1.3-27.2,0.7c-0.1-3.3,2.8-3.7,4.8-4.5c5.6-2.3,11.8-2.5,17.7-2.8c8.2-0.5,15.1-3.5,21.6-7.8
		C540.5,547.7,542.5,546,545,545.1z"/>
	<path class="st11" d="M545,545.1c-7.5,7.5-16.2,11.8-27,13.1c-8,1-17.1-0.5-23.7,6.2c-2.5-6.2-1.7-7.5,4.4-7.7
		c6.6-0.2,13.2-0.4,19.8-1.1c6.4-0.6,11.9-3.5,15.1-9.3c2.3-4.3,5-4.8,8.9-2.5C543.2,544.2,544.1,544.6,545,545.1z"/>
	<path class="st12" d="M429.7,405.3c-1.9,7.3-7.6,7-13.4,6.9c-4.1,0-8.3,0.5-12.4,0.7c-1.6,0.1-3.2,0.6-4.5-0.8
		c2.5-5.3,7.5-7,12.5-7.9c5.4-1,10.9-0.7,16.4-1C429.8,403.2,430.4,403.8,429.7,405.3z"/>
	<path class="st13" d="M532.2,542.5c-3.2,8.4-10.4,10.3-18.2,11.1c-2.9,0.3-5.8,0.1-8.8,0c-0.8,0-2,0.4-2.3-1
		c-0.1-0.5-0.1-1.1,0.2-1.4c1-1.2,1.6,0.1,2.4,0.4c4,1.8,8.1,1.4,12-0.1c2.4-0.9,4.1-2.8,1.9-5.6c-3.2-4.2-3.6-8.7-1.5-13.5
		c4.1,2.6,8,5.5,12.8,6.7C532.4,539.7,532.8,540.8,532.2,542.5z"/>
	<path class="st5" d="M485.4,564.5c2.1,1.4,3.8,3.7,6.9,2.8c3.9-0.6,6,0.4,4.9,5c-1,4.6,0.1,9.6-3,13.7c-2.4,1.6-4.9,3.1-7.9,3
		c-1.6,0-3.7,0.5-4-2.2C483.4,579.4,484.4,572,485.4,564.5z"/>
	<path class="st14" d="M482.3,586.9c4.2,2.7,7.9-0.7,11.9-0.9c-9.8,11.9-23.9,18.6-37,16.9c6.8-2.5,12.5-5.6,18.2-9
		C478.4,592.1,480.6,589.8,482.3,586.9z"/>
	<path class="st11" d="M512.7,549.9c-7.2-0.3-13.7-7.1-13.6-14.1c0-1.8,0.8-2.7,2.5-2.8c3.8-0.2,7.6-0.3,11.4-0.3
		c0.3,0,0.5,1,0.8,1.6c-6.4,5.3-6.4,5.3-1.8,12.7C512.4,547.7,513.4,548.6,512.7,549.9z"/>
	<path class="st7" d="M401.3,431.7c8.2,1,16.4,1.2,24.6,0.7c1.7-0.1,3.1-0.7,4.7-0.8c2.2,2.5,1.1,3.8-1.7,3.8
		c-6.9,0.1-13.8,0.1-20.8,0.1C405.2,435.5,402.9,434.2,401.3,431.7z"/>
	<path class="st15" d="M541.1,559.6c2.6-4,5.6-7.2,7.2-11.3c1.1-2.7,3.4-2,4.9-1.1c2.5,1.4,0.1,2.7-0.7,3.8
		C549.6,554.8,546.6,558.5,541.1,559.6z"/>
	<path class="st16" d="M512.7,549.9c-1.1-1.5-2.2-3.1-3.3-4.7c-4.6-6.9-4.1-8.3,4.3-11c0,0.7,0,1.3-0.1,2c-2.6,2.8-1.3,5.6,0.1,8.4
		c0.7,1.5,2.9,2.3,1.9,4.5C514.9,550.2,513.7,549.9,512.7,549.9z"/>
	<path class="st17" d="M521.5,563.6c6.6-2.9,13.1-5.9,19.7-8.8C536.8,562.6,528.9,562.5,521.5,563.6z"/>
	<path class="st17" d="M515.6,549c-1.7-2.6-4.4-4.6-4.8-8c-0.3-2.3-0.5-4.6,2.8-4.9c0.3,3.7,0.8,7.3,3.2,10.3
		C518.2,548.3,517,548.6,515.6,549z"/>
	<path class="st1" d="M587.6,422.6c-7.8,12.1-10.6,25.9-12.4,39.9c-0.9,6.6-1.2,6.9-7.7,7.3c-16.4,1.1-32.7,2.3-49.1,3.5
		c-2.2,0.2-4.5,0.2-6.7,0.2c-3.9,0-6.2-2.8-5.9-7.8c0.5-8.7,3.3-16.8,7.9-24.2c2.5-3.9,4.4-8.3,8.7-10.9c2.3-1.5,4.8-1.9,7.4-2.2
		c17-1.6,33.8-4.6,50.7-6.6C583,421.6,585.4,420.9,587.6,422.6z"/>
	<path d="M610.3,425.9c0.2,3.4-3.3,2.5-4.7,4.2c-1.1,1.3-2.6,2.2,0,3.6c7.9,4.2,9.9,11.8,11.5,19.8c3.8,18.4,2.7,36.7-2.1,54.7
		c-1.5,5.6-4.9,10-10.3,12.1c-3.6,1.4-2.2,2.3-0.7,4.2c2.1,2.7,5.1,4.3,7.4,6.8c-5,0.2-7.9-3.2-10.6-6.6c-3.7-4.7-5.4-10.5-8-15.9
		c-3.5-13.8-5.9-27.9-4.8-42.2c1-12.1,3.4-24,11.1-34C602,428.8,605.5,426.3,610.3,425.9z"/>
	<path class="st18" d="M587.6,422.6c-16.9,2-33.9,4.1-50.7,6.7c-4.8,0.7-9.6,0.9-14.5,1.3c5.9-7.9,14.9-10.3,23.6-12.4
		c14.5-3.4,29.4-4.9,44.3-5.2c3-0.1,5.7,0.8,8.7,1.4C594.2,415.7,590.7,418.8,587.6,422.6z"/>
	<path class="st19" d="M434,457.9c3.7-7,8.5-9.1,15.9-8.1c7.9,1,16.2,1,24.2-0.8c7.3-1.7,13-5.6,17-11.9c1.8-2.9,3.9-4.8,7.8-4.5
		c2.8,0.3,5.6-0.2,8.7-0.4c-4.1,7.3-10,13.3-10.6,21.8c-0.3,3.5-3.7,2.5-5.5,2.5c-10.5,0.5-21,0.3-31.4,0.7
		C451.5,457.6,443,458.3,434,457.9z"/>
	<path class="st20" d="M453.2,587.1c-5.2-0.5-9.5-2.8-10.6-8.2c-1-4.7,0.5-8.9,4.7-11.8c2.4-1.8,5.1-1.6,7.9-1.7
		c5.8,2.4,8.6,6,8.4,11C463.3,580.8,459,585.3,453.2,587.1z"/>
	<path class="st1" d="M467.8,399.4c-1,1.3-2.5,2.4-2.9,3.9c-2.3,8.3-8.9,8.5-15.7,8.8c-2.9,0.1-5.8,0.3-8.7,0.5
		c-1.4,0.1-2.7-0.2-3.4-1.4c-0.8-1.3-0.9-2.7,0.1-4.1c1.9-2.7,4.1-5,6.9-6.7c4.6-0.7,9.2-1.4,13.8-2
		C461.2,398,464.7,397.1,467.8,399.4z"/>
	<path class="st2" d="M483.4,425.8c-2.2,3.2-3.4,7.7-8.8,6.8c-1.6-1.1-4.3-0.9-4.6-3.7c0.1-1.9,1.6-3,2.7-4.4
		c2.2-2.7,3.4-5.7,2.5-9.3c-0.1-0.4-0.1-0.9-0.1-1.3c1.5-4.8-2.8-7.1-4.7-10.5c0-2.8,2.4-3,4.1-3.9c6.7,0.2,10.6,10.3,10.3,17.3
		C484.6,419.8,483.9,422.8,483.4,425.8z"/>
	<path class="st21" d="M470.7,428.5c0,2.6,2.9,2.4,3.9,4.1c-4.5,0.3-6-3.7-8.7-5.9c-2.7-6.5-4.4-13-1.3-20c2-4.4,5.1-6.9,9.9-7.2
		c-1.3,1.1-2.5,2.3-3.8,3.4c0,0.7-0.1,1.4-0.4,2C465.6,412.8,467.2,420.7,470.7,428.5z"/>
	<path class="st22" d="M467.8,399.4c-7.1-0.6-14,1.3-21,1.6c-1,0-1.9,0.2-2.7-0.6c2.2-2.5,6.1-1.2,8.3-3.7c0,0,0,0,0,0
		c4.8-0.4,9.6-0.9,14.5-1.1c1.6-0.1,4.2-1,4.6,1.3C471.7,398.8,468.6,398,467.8,399.4z"/>
	<path class="st23" d="M495.2,575.5c0.3,1.5-0.6,3.5-1,5.5c-0.2,1-0.6,1.9-1.8,1.7c-1.1-0.1-1.7-0.9-1.9-1.9
		c-0.4-2.5-0.8-5.1-1.1-7.6c-0.2-1.9-0.4-3.9,2.7-4c3.2,0,3.3,1.9,3.2,4.1C495.2,573.9,495.2,574.4,495.2,575.5z"/>
	<path class="st10" d="M455.1,568.6c1.4,0.7,3,1.2,3.9,2.7c0,3.7-0.4,7.3-1.9,10.8c-1,1.3-2.6,1.1-3.9,1.8
		C447.3,578.8,448.3,571.1,455.1,568.6z"/>
	<path class="st11" d="M455.1,568.6c-5.5,4.1-5.9,7.8-2,15.3c-5.1-0.3-8.1-3.4-7.8-8.2C445.6,570.7,449.1,568.2,455.1,568.6z"/>
	<path class="st24" d="M457.1,582.1c-0.2-3.7,0.3-7.4,1.9-10.8C461.3,575.4,460.8,579,457.1,582.1z"/>
	<path class="st25" d="M470.7,428.5c-5.7-6.5-6.1-17.2-0.9-24.2c0.4,0.3,0.6,0.7,0.8,1.1c0.6,2.7,1.2,5.3,1.3,8.1
		c0.2,3.9,1.7,3.6,3.9,1.3c2.5,4,0.1,7.1-2,10.2C472.9,426.3,471.7,427.4,470.7,428.5z"/>
	<path class="st26" d="M475.8,414.8c-0.1,2-0.4,4.2-2.9,4.1c-2.5-0.1-1.9-2.5-2.1-4.1c-0.4-3.1-0.6-6.3-1-9.4c4.1,0.2,6.2,3.2,6,8.9
		C475.6,414.5,475.6,414.6,475.8,414.8z"/>
	<path class="st27" d="M475.8,414.3c-0.7-3.8-1.4-7.7-6-8.9c0-0.4,0-0.7,0-1.1c0.3-0.5,0.6-1,1-1.4
		C474.1,405.9,478.1,408.7,475.8,414.3z"/>
</g>
</svg>
