<?xml version="1.0" encoding="utf-8"?>
<!-- Generator: Adobe Illustrator 23.0.1, SVG Export Plug-In . SVG Version: 6.00 Build 0)  -->
<svg version="1.1" id="Layer_4" xmlns="http://www.w3.org/2000/svg" xmlns:xlink="http://www.w3.org/1999/xlink" x="0px" y="0px"
	 viewBox="0 0 1000 1000" style="enable-background:new 0 0 1000 1000;" xml:space="preserve">
<style type="text/css">
	.st0{fill:#A76800;}
	.st1{fill:#5F4200;}
	.st2{fill:#352000;}
	.st3{fill:#BB6F22;}
	.st4{fill:#3A3828;}
	.st5{fill:#FDAB5D;}
	.st6{fill:#7F0000;}
	.st7{fill:#B5AD8E;}
	.st8{fill:#7D4800;}
	.st9{fill:#302825;}
	.st10{fill:#5B4B43;}
	.st11{fill:#FCFCD3;}
	.st12{fill:#FE0000;}
	.st13{fill:#967B67;}
	.st14{fill:#A76700;}
	.st15{fill:#373626;}
	.st16{fill:none;}
	.st17{fill:#800000;}
</style>
<g>
	<path d="M757.6,487.1c1.1-3.3,0.8-7.6-0.2-11.1c-1-3.4-0.1-4.3,2.8-5.4c17.4-6.7,35.1-12.3,53-17.8c-1.2-1.2-2.8-0.9-4-1.2
		c-15.5-4.6-30.8-9.7-45.9-15.2c-16.7-6.1-33.3-12.8-49.8-19.5c-2.8-1.2-4.7-0.6-6.5,0.8c-4.5,3.5-8.9,7.3-13.2,11.1
		c-6.2,5.6-12.5,9-21.6,8.9c-51.8-0.5-103.5-0.2-155.3-0.3c-8.4,0-17.8,2.1-25.1-0.8c-7.1-2.9-12.2-10.9-17.8-17
		c-8.2-8.9-18.2-12.5-30.1-12.6c-9.2,0-18.4,1.3-27.6,1.1c-6.6-0.1-13.2,0.9-19.8,1.3c-4.5,0.2-9.3,0-13.6,1.7
		c-1.7,0.7-4.8,1.2-2.1,4.1c3.5,3.6,7,7.2,10.8,10.5c5.7,4.9,12.2,8.9,17.9,14.5c-3,1.5-5.5,2.8-8,4.1c-3.6,2-4.8,5.3-5,9.1
		c-0.1,3.7,2.2,5.8,5.2,7.2c3.3,1.6,6.7,3.1,10.6,4.8c-12.6,1.3-24.6,2.4-36.6,4c-11.3,1.6-22.4,3.3-33.4,6.7
		c-10,3.1-19.6,7.6-30.1,9.1c-17.4,2.4-34.8,4.7-52.3,5.7c-10.9,0.7-21.8,1.3-32.7,2.3c-6.8,0.6-13.8,1.3-19.7,5.7
		c-4,3.1-7,9.5-5.3,14.5c1.5,4.7,4.3,8.3,9.8,10c10.5,3.3,21.4,1.4,32,2.5c12,1.3,24.2,0.7,36.4,1c10.5,0.3,21,1.3,31.5,1.3
		c5.5,0,11.3,0.5,16.5,2.1c15.6,4.7,31.4,7.8,47.8,7.5c0.8,0,9.6,8.6,9.5,9.3c-0.1,0.6-0.4,1.2-0.7,1.7c-4.3,6.9-8.6,13.9-13,20.8
		c-3.3,5.2-1.7,11.3,3.7,14.4c7,4.1,14.1,2.8,21.1,0.7c15.3-4.6,25.6-15.2,33.9-28.3c1.4-2.2,2.4-4.9,5.1-6
		c9.3-3.5,16.6-9.1,20.6-18.4c0.5-1.2,1.2-2.2,2.5-2.5c11-2.8,21.9-6.1,33.6-3c8.8,2.4,17.9,4.3,26.9,5.2
		c14.5,1.5,29.1,2.7,43.7,2.9c29.9,0.4,59.9,0.2,89.8,0.1c4.5,0,8.5-1.4,11.9-4.9c4-4,6.3-8.6,7.1-14.1c0.2-1.4,0.4-3.4,2.6-3.4
		c3.9,0.2,7.8-0.6,11.7,1.7c5.5,3.3,11.5,6,18.2,6c15.5,0,30.9,0.2,46.4-0.1c5.2-0.1,10-2,12.9-6.7c3.4-5.5,2.3-12.7-2.2-17.4
		C759,493.7,755.9,492,757.6,487.1z M487.3,466.8c6.4-5,12.5-2,18.1-2.3C499.8,465.2,494.2,465.9,487.3,466.8z"/>
	<path class="st0" d="M472.8,483.3c-0.6-2.6-1.3-5.2-1.9-7.8c2.7-1.5,5.7-1.1,8.5-1.3c10.8-0.8,21.7-1.3,32.5-1.9
		c18.7-1,37.1-3.7,55.6-6.7c13.2-2.1,26.4-3.2,39.7-4.1c11.1-0.7,22,1,32.5,4.9c2.8,1,5.5,2.1,6.7,5.2c1.2,1.4,1.1,3.2,1.2,4.9
		c0.8,7.1-1,10.7-7.1,13.9c-6.2,3.3-13.1,3.9-19.9,4.2c-18.7,0.7-37.3-1.3-55.9-2.5c-12.5-0.8-24.9-1.9-37.4-2.4
		c-14.6-0.7-29.2-0.9-43.7-2.1C479.8,487.2,475.2,487.7,472.8,483.3z"/>
	<path class="st0" d="M214.8,514.8c-2.2-0.5-3.8-1.5-3.7-4.1c1.5-3,4.3-3.8,7.3-4.2c12.2-1.9,24.5-3.1,36.8-3.9
		c33.1-2.1,66.1-4.4,98.2-13.5c10.8-3,21.8-5.3,32.9-6.6c2.2-0.3,4.5-1,6.4,1c-1.5,2.5-5.8,4.2-4.3,7.4c1.4,2.9,5.3,1.1,8.1,1.2
		c11.4,0.6,22.6,3.2,33.9,3.5c8.6,0.2,14.6,6.4,22.7,6.9c3.9,0.2,7.9,1.4,11.3-0.9c6.6-4.4,13.7-2.2,20.6-2.2c0.9,0,1.9,0.6,2.8,0.5
		c14.2-0.2,28.4,1.4,42.6,2.1c11.8,0.6,23.6,2.6,35.4,4c0.2,0,0.3,0.5,0.5,0.7l0.1-0.1c-8.6,0-17.3,0.7-25.8-0.1
		c-14.1-1.3-28.2,0.2-42.3-1c-18.3-1.5-36.7-1.2-55-0.5c-14.9,0.5-29.8,0-44.7,0.8c-12.6,0.7-25.1,1.3-37.7,2
		c-13.2,0.7-26.4,1.3-39.7,1.9c-17.3,0.8-34.6,1.1-51.8,2.1c-11,0.6-22,0.2-33,0.8c-1.6,0.1-3.6-0.9-4.9,0.9
		C226,516.3,220.4,515.7,214.8,514.8z"/>
	<path class="st1" d="M214.8,514.8c5.6-0.4,11.1-0.7,16.7-1.1c26.3,0,52.7-0.2,79,0.1c15.9,0.2,31.8-0.7,47.7-1.2
		c14.7-0.5,29.4-0.9,44.1-1.9c46.9-3.2,93.8-1.2,140.7-1.7c1.7,0.8,3.5,0.4,5.3,0.4c16.4,0,32.8,0.2,49.2,1.6
		c11.1,0.9,22.2,2.5,33.4,2.3c4.5-0.1,9.1-0.5,13.5,0.8c2,0.6,4.5,1.2,4.4,3.8c-0.1,2.5-2.4,3.3-4.4,4c-2.3,0.8-4.7,1.2-7.2,1.2
		c-17.1,0.4-34.1-0.6-51.2-1.6c-8.8-0.5-17.5-0.6-26.3-1.1c-16.9-0.8-33.7-2.2-50.6-3.9c-18.4-1.8-36.5-0.4-54.7,3
		c-14.7,2.7-29.5,5-44.4,6.4c-24.7,2.3-49.4,2-73.5-5c-5.5-1.6-11.2-1.6-16.9-1.9c-23.5-1.3-47.1-2.1-70.6-1.7
		c-0.3,0-0.6,0.2-0.9,0.4C236.8,517.6,225.6,518.2,214.8,514.8z"/>
	<path class="st2" d="M248,517.5c1.5-1.5,3.4-0.9,5.1-0.9c16.1,0,32.2-0.5,48.3,0.1c17.2,0.7,34.5,1.5,51.4,5.8
		c15.2,3.8,30.7,2.9,46.3,2.2c17.4-0.8,34.3-4.2,51.4-6.2c11-1.3,22-3.4,33-4.6c8.9-1,17.8,0.7,26.6,1.3c5.1,0.4,10.3,0.7,15.4,1.1
		c11.9,0.9,23.8,2,35.8,2.4c15,0.5,30.1,1,45.1,2c10.1,0.7,20.1,0.3,30.1,0.7c2,0.1,3.8-0.2,5.7-0.8c2.1-0.7,5.4-0.5,5.2-3.2
		c-0.2-2.3-3.6-2.3-5.7-2.8c-9.4-2-19-1.5-28.5-1.8c-14.9-0.6-29.7-2.2-44.6-2.5c-7.1-0.1-14.2-0.4-21.4-0.7
		c-1.6-0.1-3.3,0.5-4.6-0.9c15.1,0,30.3-0.5,45.4,0.1c10.6,0.4,21.1,2.4,31.7,3.6c8.2,0.9,16.2-0.4,24.1-2.1
		c5.8-1.2,11.7-0.3,17.5-0.6c1.9-0.1,2.6,0.8,2,2.8c-0.9,3.1-1.6,6.3-3.1,9.2c-1.6,3.1-4,4.6-7.4,4.6c-28.8,0-57.6,0.5-86.4-0.2
		c-12.9-0.3-25.9-0.2-38.8-1.8c-9.6-1.2-19.2-2.7-28.6-5c-12.9-3.2-25.5-2.6-38.2,0.6c-11.1,2.8-22.3,5.1-33.6,7.2
		c-4.1,0.8-8.4,1.1-12.5,1c-13-0.1-25.9,2-38.9,1.1c-12.7-0.9-25.5-0.7-37.6-6.2c-6.8-3.1-14.6-2.7-21.9-3.3
		c-10-0.9-20.1-0.3-30.1-1.2C273.6,517.2,260.8,517.9,248,517.5z"/>
	<path class="st1" d="M472.8,483.3c3.1,2.6,7.1,2.6,10.6,2.8c6,0.4,11.9,1.1,17.9,1.1c16-0.1,32,1.3,48,2.2
		c13.8,0.8,27.7,1.7,41.5,3c10.1,0.9,20.1,0.7,30.1,0.7c6.2,0,12.5-0.8,18.4-3.5c5.7-2.7,8.3-6.9,8.3-13c1.8,8.6,0,16.8-3.2,24.8
		c-1.1,2.6-4.3,3-6.7,3.4c-10.7,1.8-21.5,1.4-32.3,0.1c-11-1.3-22-2.5-33.1-3.8c-10.7-1.2-21.4-2.5-32.1-3.7
		c-7.2-0.8-14.4-2.1-21.6-2c-14.3,0.1-28.5-1.8-42.7-1.1c-2.5,0.1-4.5,0.2-3.3-3.5C473.2,488.4,472.7,485.8,472.8,483.3z"/>
	<path class="st3" d="M423.7,453.2c-2.2-0.1-4.1-0.7-5.6-2.6c2.6-3.1,6-4.3,9.8-4.3c73.5-0.1,147,0,221.1,0
		c-2.5,4.1-4.3,8.1-0.3,12.3c-15.6-12.3-33.4-10.8-51.3-9.6c-10.1,0.7-20,2.5-29.9,4.2c-6.9,0.9-13.8,1.5-20.8,1.5
		c-37.1-0.1-74.3,0-111.4,0C431.3,454.7,427.5,454.5,423.7,453.2z"/>
	<path class="st4" d="M784.2,453.3c-14.8,5.1-29.9,9-44.8,13.7c-8,2.5-15.6,6.2-23.3,9.5c-2.5,1.1-4.4,1-6.7-0.7
		c-5.9-4.6-12-8.8-17.8-13.3c-3.1-2.4-6.5-3.5-10.3-3.5c-6.8,0-13.7,0-20.5,0c-4.1,0-6.9-1.5-7.3-6c1.9-1.7,4.2-1.4,6.5-1.4
		c39.1,0,78.2-0.1,117.4,0.2c1.8,0,3.6,0.2,5.3,0.6C783.2,452.5,783.8,452.8,784.2,453.3z"/>
	<path class="st5" d="M646.3,471.6c-6.9-4.9-15-6.2-23.1-7.8c-10-2-20-0.4-29.9,0.2c-10.6,0.7-21.1,2.2-31.6,3.9
		c-12.4,2-24.8,3.7-37.3,4.8c-17.9,1.6-35.7,2.9-53.7,2.8c1.6-3.9,5.6-2.5,8-2.6c18.5-0.9,36.7-4.3,55-6.9
		c15.1-2.2,29.9-5.4,44.7-8.6c6.2-1.3,12.6-2,19-2.2c7.2-0.3,14.4-1.8,21.7-1.1c8.8,0.9,17.5,2,23.6,9.5
		C644.7,465.9,646.6,468.3,646.3,471.6z"/>
	<path class="st5" d="M392.6,483.5c-9.2,0.2-18.2,2.1-27.1,4.1c-16.7,3.8-33.2,8.8-50.3,11.1c-11.1,1.5-22.4,2.6-33.6,3.4
		c-14.3,1-28.6,1.5-42.8,3.5c-6.5,0.9-13.1,1.4-19.7,2c-3.1,0.3-5.4,1.9-8.1,3c-0.5-3.7,1.6-5.8,4.8-6.7c3.2-0.9,6.5-2,9.7-1.9
		c6.3,0.1,12.5-0.9,18.8-1.3c15.5-0.9,31-1.5,46.4-3.6c11.8-1.6,23.7-2.9,35.4-5c7.7-1.4,14.6-5,22-7.2c13.8-4,27.6-7.2,42-7.5
		c3.5-0.1,6.9-1.8,10.8-0.7C398.2,479.1,395.4,481.3,392.6,483.5z"/>
	<path class="st6" d="M479.6,441.3c-16.3,0-32.5,0.1-48.8,0.1c-0.9,0-2.1,0-2.8-0.5c-7.9-5.3-16-10.2-22.8-17
		c3.9-2.9,8.5-1.5,12.7-1.9c11.8-0.9,23.8-2.4,35.3,1.2C463.6,426.5,472.3,433.1,479.6,441.3z"/>
	<path class="st7" d="M783.3,453c-43.3,0-86.6,0-129.9,0c-0.4-1.5,0.3-2.7,1-3.9c3.2-1.8,6.7-1.6,10-1.2c15.2,1.8,28.9-1.6,41.1-11
		c4.4-3.4,9-3.4,14.3-1.7c12,3.7,24,7.1,36.2,10.1c1.7,0.4,4.9-0.2,4.4,3.4c-4.1,1.3-8-0.4-11.9-1c-12.5-1.9-25.1-2.9-37.7-3.2
		c-3.9-0.1-7.7,0.6-11.6,0.3c6.3,0.4,12.6-0.2,19,0.1c12.7,0.4,25.1,2.4,37.6,4.1c4.1,0.6,8.3,0.9,12.5,0.4
		C773.6,449.1,778.6,450.3,783.3,453z"/>
	<path class="st8" d="M423.7,453.2c47.9,0,95.8,0,143.7,0c-11.2,2.7-22.2,6-34,5.9c-30.1-0.4-60.1-0.3-90.2,0
		C436,459.1,429.8,456.8,423.7,453.2z"/>
	<path class="st9" d="M750.9,498.1c3.9,2.1,6,5.4,4.7,9.6c-1.3,4.1-5.3,4-9,4c-9.7-0.1-19.5-0.6-29.2,0.1c-11.9,1-22.3-2.6-32.5-7.8
		c-6.2-3.2-12.5-5.9-19-8.9c-0.1,2.7,3,2.4,3.4,4.6c-3.7,0.2-7,0.2-7.2-4.7c1.4-4,2.8-4.7,7.3-3.2c6.8,2.3,13.4,4.9,20.2,7.2
		c19.1,6.6,38,5,57-0.1C748,498.7,749.4,498.3,750.9,498.1z"/>
	<path class="st10" d="M750.9,498.1c-5.8,4.7-13,4.7-19.7,5.6c-11.2,1.5-22.6,2.1-33.7-0.9c-9.7-2.6-19.1-6-28.4-9.8
		c-3.2-1.3-5.3-1-6.9,2c-1.3-0.7-0.9-1.9-0.8-3.1c1.1-7.2,3.9-7.8,8.2-8.7c3.7-0.8,7.5-0.4,9.4,4c-0.5,0.5-0.9,1.1-1.4,1.6
		c0.5,0.1,0.9,0.3,1.4,0.4c12.1,1.5,24.4,2.1,36.5,3.4c9.3,1,18.6,1.6,27.8,3.3C746,495.9,748.5,496.8,750.9,498.1z"/>
	<path class="st11" d="M760.8,448.1c-15.3-4.2-30.7-8.4-46-12.7c-2-0.6-3.4-0.1-5,0.7c-6.6,3.7-13.2,7.5-19.7,11.3
		c-2.3,1.4-4.7,1.9-7.4,1.9c-9.4-0.1-18.9-0.1-28.3-0.1c1.2-2.6,3.5-2.9,6-2.9c5.8,0,11.7-0.4,17.5,0.1c7,0.7,12.2-2.1,17.3-6.3
		c4.6-3.8,9.8-6.9,14.4-10.8c2.3-2,4.2-1.7,6.5-0.6c22.3,10.8,46.4,15.8,69.7,23.4c0.6,0.2,1.2,0.1,2,0.2c-1.1,1.4-2.5,0.4-3.6,0.9
		c-0.3-0.1-0.6-0.2-1-0.3c-4.9-1-9.6-2.9-14.7-2.8C765.4,451.3,763,450.2,760.8,448.1z"/>
	<path class="st12" d="M479.6,441.3c-5.5-3.9-11-7.8-16.4-11.8c-6.5-4.7-13.8-6.5-21.7-6.7c-12.1-0.3-24.2,0.8-36.3,1.2
		c-2.9-1.1-4.6-3.8-7.6-5.8c7.1-0.4,13.6-0.9,20.1-1.2c9.5-0.4,19-0.7,28.6-1c6.3-0.2,11.5,2.5,15.9,6.6c6,5.6,12,11.3,18,17
		C481.1,440.5,482,441.5,479.6,441.3z"/>
	<path class="st9" d="M430.7,541.1c-12.5,3-24.9,2.7-37.2-0.7c-2.7-0.7-6.4-2.1-6.1-5.3c0.2-2,4.2-1.3,6.4-1.7
		c5.7-0.9,11.6-0.7,17.4-1c11.2-0.6,22.2-1.5,32.9-4.9c1.2-0.4,2.9-0.8,3.7-0.2c1,0.7-0.3,2-0.7,3c-3.8,2.2-8.2,1.9-12.2,3
		c-1.1,0.3-2.2,0.5-3.3,1c-1.9,0.8-4.6,1.1-5,3.3C426.3,540.2,429.9,539.3,430.7,541.1z"/>
	<path class="st9" d="M380.9,576.2c-2.1-1.8-0.4-3.4,0.5-4.7c5.3-7.5,10.5-15.1,14.5-23.5c0.7-1.4,1.4-2.2,3.4-1.8
		c6.5,1.3,13.1,1.9,19.7,1.7c-11.2,7.2-17.3,20.1-29.7,26C386.6,575.3,384.2,577.5,380.9,576.2z"/>
	<path class="st0" d="M713.8,485.3c9.1-4.9,17.8-10.9,28.4-12.6c3.6,1.1,4.4,4.4,5.4,7.4c0.6,1.7,0.4,3.5,1.2,5.1
		c0.4,1.2-0.4,2-1,2.9c-1.1,1.1-2.5,1.6-4,1.3c-9.7-1.8-19.6-2.2-29.3-3.6C714.3,485.9,714.1,485.6,713.8,485.3z"/>
	<path class="st2" d="M681.6,476.5c0.3,1,1.6,2,0.7,3.1c-0.8,0.9-1.7-0.3-2.6-0.5c-5.8-1.9-11.7-2.7-17.3,0.4
		c-3.4,1.9-5.2,4.6-5.1,8.7c0.2,5.6-1.3,11.6,6,15.5c-4.7,0-8.2,0-11.9,0c1-4,1.9-8,3-12c2.1-7.1,0-14-0.9-21c1-1.1,2.3-1.2,3.6-1.2
		c6.3,0,12.6,0.7,18.7,2.4C678.2,472.5,680.4,473.9,681.6,476.5z"/>
	<path class="st10" d="M380.9,576.2c10.6-3.5,19.1-10.1,25.8-18.8c3.4-4.4,6.9-8,12.3-9.5c2-0.1,4,0,6.1-1c0,2.5-1.4,3.8-3.2,4.8
		c-7.4,5.4-12.3,13.6-20.1,18.6c-3.9,2.5-7.8,5.1-12.1,6.8C386.5,578.9,383.5,578.7,380.9,576.2z"/>
	<path class="st0" d="M446.3,476.5c1.5,1.3,2,3,2,4.8c1,3.5-0.6,5-3.9,4.8c-5-0.4-10.1-0.8-14.5-3.5c-1.7-1.3-2.3-3.1-2.2-6.1
		c0,0.3-1,1.1-0.3,1.1c0.1,0,0.1,0.2,0.1,0.5c0.1,0.7-0.1,1.2-0.3,1.8c-2.4,2.3-4.7,5.4-8.2,1.6c-1.3-1.1-0.9-2.6-0.8-4
		c1.4-4.8,5.4-5.4,9.3-5C433.9,473,440.2,474.1,446.3,476.5z"/>
	<path class="st9" d="M464.9,477.5c1.8,3.7,2.2,7.7,1.9,11.7c-0.7,7.3-6.1,10.4-14.4,8.5c-3.4-0.8-5.2-1.5-1.6-4.8
		c2.4-2.2,2.4-5.5,2.5-8.6c3.3,1.4,1.7,3.7,1.6,5.4c1.4-2.1,1.9-5.3,2.9-8.3C459.2,477.2,460.7,476.3,464.9,477.5z"/>
	<path class="st1" d="M429.8,481.4c4.8,2.8,10.2,2.6,15.4,3.7c2.8,0.6,3-1.8,3.1-3.7c2.8,5.8-0.1,12.3-9.1,10.7
		c-3.8-0.7-7.5-1.3-11.3-1.8c-5.6-0.7-8-3-9-8.8c3.3,2.1,5.4-0.4,7.7-2c1.8,1.4,1.5,3.7,2.3,5.4c0.1,0.7,1,0.1,0.3,0.2
		c-0.1,0-0.2-0.1-0.2-0.3C428.7,483.5,428.6,482.3,429.8,481.4z"/>
	<path class="st1" d="M713.8,485.3c9.6,0.9,19.2,1.9,28.7,2.8c1.8,0.2,3.6,0,5.3,0c0.2,2,0.6,3.9-2.7,3.1c-11-2.7-22.2-3.7-33.4-4.8
		c-6.1-0.6-12.3,0.1-18.4-1c-2.7-0.5-3.8-0.9-4.1-3.9c-0.3-3-1.8-5.8-1.7-9c0.7-0.2,1.3-0.1,1.7,0.5c3.5,5.9,9,8.4,15.5,9.2
		c0.8,0.1,1.5,0.5,2.2,1C709,484.8,711.4,485,713.8,485.3z"/>
	<path class="st7" d="M442.3,464.9c1.6,2.5-1,2.5-2,2.7c-1.1,0.2-2.4-0.5-3.7-0.9c-10.9-2.4-21-7.2-31.3-11.2
		c-1.7-0.6-3.2-1.6-3.9-3.4c1.2-4.8,5.9-4.5,9.5-7.6c-0.9,3.2-2.6,5.8-1.9,7.3c0.7,1.5,3.8,1.9,5.8,2.7
		C424,458,433.2,461.4,442.3,464.9L442.3,464.9z"/>
	<path class="st1" d="M681.6,476.5c-6.8-5.3-15-4.9-22.8-5.7c-1.8-0.2-3.5-0.1-5.3-0.1c-1-1.4-1.2-2.9-1.4-4.8
		c6.8,0,13.5-0.1,20.1,0C677.1,466,680.6,470.1,681.6,476.5z"/>
	<path class="st13" d="M743.2,496.1c-15,0.1-29.7-2.2-44.6-3.8c-6.7-0.7-13.4-0.8-19.8-2.9c17,0.4,33.9,0.8,50.7,3.6
		C734.2,493.8,739,493.5,743.2,496.1z"/>
	<path class="st10" d="M464.9,477.5c-3.7-0.3-5.5,1.2-6.1,5c-0.6,3.2-1.1,6.6-4,9.1c-1.5-2.4,0.4-5.3-1.5-7.3
		c0.2-3.1-1.5-5.8-2.2-8.6c0.5-4.2,3.6-4.4,6.8-4.2c2.1,0.2,4,1.2,5.9,2C464.5,474.8,465,476.1,464.9,477.5z"/>
	<path class="st13" d="M389.6,577.2c5.2-4.1,10.9-7.4,16.2-11.3c3.6-2.7,5.6-6.6,8.9-9.5c2.2-1.9,4.2-4,7.2-4.6
		c-3.6,8-10.2,13.3-16.8,18.6C400.6,574,395.7,576.9,389.6,577.2z"/>
	<path class="st10" d="M430.7,541.1c-1-0.1-2,0.1-2.9-0.2c-1.5-0.5-3.5-0.8-3.6-2.6c-0.2-1.8,1.6-2.6,3-3.3c6.2-3.2,13-4.2,19.9-4.6
		c-0.7,1.4-1,3.2-2.8,3.8c-2.9,1.9-7.6,1.2-8.8,5.7C434,540.3,432.4,540.7,430.7,541.1z"/>
	<path class="st14" d="M706.9,483.3c-8.7,0.5-15.2-3-19.4-10.7c-1-1.1-2-2.3-2-3.9c-0.2-0.9,0.1-1.3,1.1-1.1
		C693.6,472.5,700.8,477.3,706.9,483.3z"/>
	<path class="st6" d="M413.5,488.3c-5.3-0.1-10-1.9-16-0.5c4.7-5,9.4-8.1,14.1-11.9C412.2,480.1,412.8,484,413.5,488.3z"/>
	<path class="st15" d="M401.5,452c10.9,5.7,22.6,9.4,34.1,13.9c0.4,0.2,0.7,0.5,1.1,0.8c-8.7,0.5-16.1-4-24-6.6
		c-3-1-5.9-2.6-8.9-3.9C401.8,455.5,401.2,454,401.5,452z"/>
	<path class="st5" d="M446.3,476.5c-5.2,0.1-10.1-1.8-15.1-2.5c-4.8-0.7-9.7-1.3-13.1,3.5c-0.5-5,3.3-6.6,6.8-6.6
		c6.6,0.1,13.1,1.4,19.4,3.7C445.3,474.9,445.9,475.6,446.3,476.5z"/>
	<path class="st13" d="M678.8,487.4c-7.6-5.3-13.6-3.8-17.5,4.7c-0.5-3.7-0.4-7.5,3.3-9.2c4.2-2,9-2.5,13.3-0.2
		C679.1,483.3,682.7,485,678.8,487.4z"/>
	<path class="st13" d="M463.7,473.6c-1.6,0.2-3.2-0.3-4.7-0.7c-3.1-0.7-6.1-0.4-7.9,2.8c-1.7-1.7-5.2-3.3-4.2-5.1
		c1.3-2.4,5.1-2.4,7.9-1.7C458,469.7,461.6,470.4,463.7,473.6z"/>
	<path class="st6" d="M461.9,463.9c6.7,0,12.3,0,18,0c0.2,0,0.5,0.3,0.7,0.4C477.1,469.3,473.4,469.3,461.9,463.9z"/>
	<path class="st5" d="M748.9,485.3c-2.9-3.8-2.6-9.3-6.6-12.5c4.9-2.3,5-2.2,5.8,3.1C748.6,479,749.5,482.1,748.9,485.3z"/>
	<path class="st13" d="M435.6,539.9c-1.8-2.4-0.2-3.6,1.7-4.5c2.2-1,4.6-1.5,7.1-1.2C442.2,537.2,439.3,539.2,435.6,539.9z"/>
	<path class="st16" d="M505.3,464.5c-5.6,0.7-11.1,1.4-18.1,2.3C493.7,461.8,499.7,464.8,505.3,464.5z"/>
	<path class="st0" d="M566.3,506.9c2.4,0,4.7,0,7.1,0C571.1,507.5,568.7,508.7,566.3,506.9C566.4,506.8,566.3,506.9,566.3,506.9z"/>
	<path class="st17" d="M442.3,464.9c1.5-1.9,3.3-0.6,5.9-1.4C445.9,465.8,444,465.1,442.3,464.9
		C442.3,464.9,442.3,464.9,442.3,464.9z"/>
	<path class="st5" d="M686.5,467.7c-0.4,0.4-0.7,0.7-1.1,1.1c-0.9-0.8-1.8-1.5-3.2-2.7C684.4,465.9,685.6,466.6,686.5,467.7z"/>
	<path d="M697.4,459.6c23.7-0.5,47.4-2.7,71.1-4C745,460.5,721.4,464.4,697.4,459.6z"/>
	<path d="M760.8,448.1c2.5,1.1,5,1.9,7.7,2.1c-4.3,2.5-8.6-0.3-12.9-0.3c-7.6-0.2-15.2-1.9-22.8-2.6c-11.3-1-22.7-1.6-34.7-2.5
		c13.8-1.8,26.8-1.7,40,0.2C745.6,446.1,753.1,448.3,760.8,448.1z"/>
	<path d="M689.6,494c15.3,1.7,30.5,3.4,47.1,5.2C722.5,501.8,697.4,499.1,689.6,494z"/>
	<path d="M671.8,488.1c-1.2,2.3-2.8,2.2-4,2.7C668.2,489.1,669.7,488.9,671.8,488.1z"/>
	<path d="M429.8,481.4c-0.6,2.1,0.6,4.1,1.1,7.1c-3.3-3-4.2-5.8-4.3-9c0.1-1.1,0.2-2.2,0.3-3.4C429,477.4,428.4,479.9,429.8,481.4z"
		/>
</g>
</svg>
