<?xml version="1.0" encoding="utf-8"?>
<!-- Generator: Adobe Illustrator 23.0.1, SVG Export Plug-In . SVG Version: 6.00 Build 0)  -->
<svg version="1.1" id="Layer_4" xmlns="http://www.w3.org/2000/svg" xmlns:xlink="http://www.w3.org/1999/xlink" x="0px" y="0px"
	 viewBox="0 0 1000 1000" style="enable-background:new 0 0 1000 1000;" xml:space="preserve">
<style type="text/css">
	.st0{fill:#585E60;}
	.st1{fill:#90AFC3;}
	.st2{fill:#B5FBF8;}
	.st3{fill:#9B6734;}
	.st4{fill:#3E4446;}
	.st5{fill:#FEAA59;}
	.st6{fill:#76A5A2;}
	.st7{fill:#322700;}
	.st8{fill:#302725;}
	.st9{fill:#394852;}
	.st10{fill:#7D4800;}
	.st11{fill:#FDAA58;}
</style>
<g>
	<path d="M354.4,132c18.4,48.5,49,83.7,101.1,96.7c-7.8-10.8-10.9-23.3-5-34.2c7.7-14.2,13.6-31.3,31-37.6
		c17.4-6.3,31.3-1.1,42.1,13.9c1.7,2.3,4.6,3.7,6.9,5.6c17.6,14.3,20,31.9,7.1,50.4c-0.4,0.6-0.5,1.4-1.2,3.3
		c28.5-1.1,50.6-14.2,70.3-32.4c19.7-18.2,33.8-39.9,41.8-66c23.9,20.6,41,45.4,54.8,72.7c15.2,30,24.7,61.5,28.7,95
		c2.8,23.4,6,46.9,4.5,70.4c-2.2,34.4-3.8,69.1-21.3,100.5c-22.1,39.7-46.5,64.6-80.8,82.6c-12.8-54.7-47.3-90.8-97.5-114.3
		c0,28.1,0.2,55.3-0.2,82.5c-0.1,6.6,4.3,9.3,8,12.6c8.8,7.8,12.4,17.5,12.2,28.9c0,2.4-0.1,4.7-1.4,7.1
		c-6.3,10.8-9.4,22.8-12.3,34.9c-0.5,2.1-1.2,3.6-0.3,6c2.2,6.4,3.9,13,0.8,19.7c-3,6.6,0.4,13.6-0.5,19.9
		c-2,14.2,1.4,27.1,5.3,40.2c0.5,1.5,0.6,3.6,0,4.9c-4.6,9.1-2.1,17.5,1.5,26.1c2,4.6,3.1,9.6,0.4,14.9c-2.3,4.4-2.1,9.4-0.1,14
		c4.1,9.4-0.1,17.3-4.4,25.2c-2,3.6-3.3,5.8,1.9,8.7c8.8,5,11.7,19.4,8.3,31.1c-2.3,7.8-5.5,15-11,21.2c-2.7,3.1-4.2,6.9-5.1,11.5
		c-2.7,13.6-10.9,21.2-27.1,23.7c-16.1,2.4-31-1.1-41.8-14.8c-0.3-0.4-1-0.8-1.1-1.2c-1.7-13.3-14.6-18.6-20.6-28.8
		c-5.6-9.6-6-32.9,4.6-41.6c7.4-6.1,9.7-15.3,5.4-25.3c-4.4-9.9-6-20.4,1.1-29.7c4.4-5.7,2.4-11.5,1.3-16.8c-2.4-11-2.1-21.6,2-32
		c3.7-9.4-0.4-18.2-2-27c-1.9-10-1.4-19.4,2.1-28.7c2.2-5.8,0.7-11.1-0.5-16.5c-0.2-0.8-1.3-1.5-1.1-2.1c2.9-14.5-4.2-26.2-9.1-39
		c-4.8-12.6,0.5-25.2,9.2-35.4c3.4-4,4.9-8.1,4.9-13.3c-0.2-26.7-0.1-53.3-0.1-80.9c-50.3,23.5-84.8,59.6-97.7,115.1
		c-18.9-12.3-37.6-24.2-52.3-42c-12.6-15.3-23.4-31.6-32.1-49.2c-9.1-18.3-13-38-14.7-58.3c-1.4-17.2-3.8-34.4-3.2-51.7
		c2-55.6,10.7-109.5,39-158.6c4-7,7.8-14.1,12.4-20.6C328.6,158.1,340,144.1,354.4,132z"/>
	<path class="st0" d="M433.4,438.4c-13.5,9.4-27,18.9-38.4,30.9c-2.3,2.4-3.7,1.5-5.2-0.5c-4.1-5.2-9-9.9-12-15.6
		c-13-24.6-19.5-50.9-21.3-78.8c-0.9-13.5-2-27.1-1.2-40.5c2.3-38.8,7-77.1,26.2-112c2.8-5.1,3.9-5.3,8.5-1.6
		c12.5,10.3,25.6,19.7,38.5,29.5c20.2,17.4,29.7,41,37.5,65.4c7.6,23.7,8.3,47.8,2.7,72.1C463.7,409.2,449.2,424.3,433.4,438.4z"/>
	<path class="st0" d="M575,249.9c13.4-10.5,27.9-19.5,40.3-31.2c3.5-3.3,4.4-0.8,5.8,1.7c11.5,20.6,18.2,42.8,22.1,66
		c4.1,24.2,6.1,48.7,5,73.2c-1.4,32-6.3,63.3-21.6,92.1c-0.9,1.7-1.6,3.6-2.8,5c-3.7,4.5-6.8,10.7-11.5,12.6
		c-6.2,2.5-8.5-5.8-12.6-9.1c-9.6-7.8-19.7-14.8-29.7-22c-31.7-24.9-42.5-57.8-37.8-97.1c3.1-26.1,12.6-49.8,26-72
		C562.6,261.9,568.2,255.3,575,249.9z"/>
	<path class="st1" d="M634.9,501.7c-5.7-7.2-11.4-14.4-17.2-21.5c-1.9-2.3-0.2-3.4,1.1-4.8c20.4-21.3,28.7-47.8,33.1-76.2
		c2.7-17.6,5.5-35.3,4.7-53.1c-2-46.4-6.8-92.2-31.4-133.4c-0.7-1.1-2-1.9-0.4-3.3c7.9-6.9,11.3-17.2,18.5-24.6
		c2.7,0.5,4.1,2.6,5.7,4.5c27,34,41,73.1,46.7,115.7c4.3,31.9,3.7,63.6-2,95.1c-6.8,37.5-22.2,70.7-50.4,97.2
		C640.9,499.6,638.9,502.7,634.9,501.7z"/>
	<path class="st1" d="M360.1,184.8c7.2,7.4,10.5,17.7,18.5,24.6c1.6,1.4,0.3,2.2-0.4,3.3c-11.3,19.3-18.5,40.1-23.8,61.8
		c-3.3,13.5-5.1,27.4-5.7,41.1c-0.6,14.3-3.2,28.6-2,43c2.8,33.9,6.1,67.6,23.2,98.2c3.8,6.8,9.9,11.6,14.1,18
		c1.1,1.7,4,2.6,1.7,5.4c-5.8,7.1-11.5,14.3-17.2,21.5c-4.4,1-6.5-2.5-8.9-4.9c-31.1-29.7-45.9-67.1-51.7-109
		c-6.3-45.6-2.2-90,11.5-133.8c7.7-24.4,20.6-45.9,36.2-66C356.7,186.5,358.1,185.1,360.1,184.8z"/>
	<path class="st2" d="M360.1,184.8c-15.2,21.1-29.8,42.4-37.9,67.5c-7.9,24.5-11.8,49.5-14.3,75.1c-2.7,27.3,0.4,54,5.7,80.3
		c7.6,37.1,24.8,69.5,54.8,93.9c-2.6,6.1-5.9,12.1-7.5,18.5c-1.6,6.2-4.4,4.9-7.5,2.3c-12.7-10.6-24.5-21.9-34.9-34.8
		c-15.8-19.8-24.7-42.7-29.7-67c-3-14.8-4.2-30.1-6-45.2c-1.9-15.5-0.3-30.7,0.8-45.9c2.5-34.2,9-67.7,23.5-99.2
		c5.4-11.7,10.3-23.6,17.7-34.3c7.7-11.1,15.8-21.8,24-33.2C352.9,170.8,356.5,177.8,360.1,184.8z"/>
	<path class="st2" d="M634.9,501.7c26.1-21,42.1-48.7,51.5-80.3c7.7-25.7,10.9-52.5,10-79.1c-1.4-44.7-9.3-88.3-32.5-127.5
		c-6.2-10.4-13.7-19.9-20.6-29.9c3.6-7,7.3-14,11.1-21.4c18.2,22.2,33.7,45.5,44.2,72.1c8,20.3,13.9,41.1,17.8,62.5
		c1.8,9.8,3.4,20.1,3.3,29.9c-0.2,14.5,3.2,28.6,1,43.4c-2.2,14.7-2.9,29.7-5.6,44.5c-4.5,24.6-12.2,47.6-27.6,67.9
		c-10.5,13.9-22.4,26.1-35.6,37.2c-4.7,3.9-7.9,5.9-10.2-2.1C639.9,512.9,637.2,507.4,634.9,501.7z"/>
	<path class="st3" d="M515.1,548.1c-5.4,2.3-8.5,2.8-9-5.3c-0.8-14.4-3.2-28.7-5.9-43c-0.6,14.5-1.2,28.9-2,43.4
		c-0.1,2.4,2.2,6.7-3.4,6.6c-2.5-3.7-2.5-7.8-2.5-12c0-20.5-0.2-40.9,0-61.4c0.2-18.6-0.3-37-6-54.9c0.1-51.4,0.2-102.9,0.1-154.3
		c0-7.1-1.9-13.8-7.5-19.3c-2.9-2.8-6.5-6.2-5.4-11.3c3.6-0.9,6.5,0.9,9,2.9c7.3,5.8,14.9,10.8,23.9,13.7c0.6,6.2,2.7,12.3,3.8,18.7
		c0-6.8,0-13.6,0-20.3c2.8-2.5,5.3-5.7,9.8-4.8c-3.8,15.7-3.5,31.6-3.4,47.6c0.1,42.4,0.1,84.8,0.2,127.2c0.4,3.3,0.9,6.6,0.9,9.9
		c-0.1,34.3,0,68.7,0,103C517.7,539.1,517.9,543.9,515.1,548.1z"/>
	<path class="st4" d="M575,249.9c-5.6,10.1-14.3,18.1-19.7,28.5c-9.9,19.3-17.6,39-20.6,60.8c-2.1,15.1-0.6,29.5,1.5,44.4
		c2.3,16,11.3,27.8,21.1,39.6c4.2,5.1,8.4,10.2,12.7,15.3c-14.1-7.4-28.5-14.2-43.9-18.7c-4-1.2-4.4-4.1-4.4-7.8
		c0.1-46.3,0.1-92.7,0-139c0-3.9,0.9-6.6,5-7C543.9,264.1,559.3,256.7,575,249.9z"/>
	<path class="st4" d="M433.4,438.4c6.8-8.3,13.8-16.5,20.5-24.9c15.8-19.8,17.1-43.4,15.8-66.9c-1.2-22.2-8.8-43.1-18.7-63.1
		c-6-12.2-15.1-22.4-22.6-33.5c12.5,5,24.5,11.2,37.8,14.1c15.6,3.4,15.5,3.8,15.5,20.5c0,41.9-0.1,83.8,0.1,125.7
		c0,6.1-1.9,8.7-7.7,10.4C459.9,425,446.5,431.4,433.4,438.4z"/>
	<path class="st5" d="M486.5,421.5c6,3.4,5.8,9.9,6.6,15.3c1.5,10.9,2.2,21.9,2,33c-0.4,26.6-0.2,53.3-0.2,80
		c-10.7-3-13.6-10.3-13.4-21c0.6-32.3,0.3-64.6,0.1-97C481.6,427.3,482.3,423.7,486.5,421.5z"/>
	<path class="st5" d="M515.1,548.1c0-39.9-0.1-79.9-0.1-119.8c0-2.4-0.9-5.1,1.8-6.8c3.7,2.1,4.9,5.2,4.9,9.6
		c-0.2,35-0.1,70-0.1,105C521.7,541.3,520.1,545.6,515.1,548.1z"/>
	<path class="st6" d="M494.8,581.5c-8.6,0.5-16-3.1-22.9-7.4c-7.3-4.6-7.1-19.8-0.2-28.2c1.2-1.4,2.7-2.6,4.3-4.2
		c5.4,9.3,13.3,13.6,23.7,13.4c-1.7,5.5-6.4,3.1-9.9,3.7c-4.7,0-8.8-1.8-14-5.3c5.6,9.6,15.2,8,21.7,12.3
		C505.6,574,504.9,578.1,494.8,581.5z"/>
	<path class="st7" d="M488.2,590.2c10-0.9,17.3,5.1,25.2,9.9c2.4,3,4.4,6.1,1.7,9.9c-7.2,6.2-15.2,10.6-25.2,9.9
		C483,609.8,482.3,598.2,488.2,590.2z"/>
	<path class="st8" d="M491.6,210c11.3,0.4,21.4-2.4,29.9-10.2c6.4,4.1,3.1,9.4,1.8,14.5c-0.8,3-2.8,5.2-4.9,7.4
		c-20.9,12.4-45.3,6.6-53.4-11.8c-1.4-3.3-3.2-6.6,0.1-9.8c3.7,9.2,8.4,17.3,18.8,20.4c3.6,1.1,7.6,3.6,10.6-0.3
		c2.9-3.7-1.8-5.7-2.9-8.5C491.4,211.1,491.4,210.6,491.6,210z"/>
	<path class="st9" d="M523.2,549.9c3.3-1.6,2.1-9,8.4-6.5c6,2.4,11.1,11.4,9.5,17.5c-4.6,18.2-7.6,19.3-31,22.3
		c4.1-7.3,10.3-13.3,12.2-21.8c1.5-2.7,4.7-2.8,5.5-3.1c-0.3,0.3-1.9-0.3-3.5-1.5C522.6,554.7,521.6,552.5,523.2,549.9z"/>
	<path class="st7" d="M516.8,804.8c-9,5-18,3.1-27,0c-0.9-2-3.6-3.6-1.7-6.3c10.1-5.5,19.4-12.9,31.6-13.6
		C523.7,792.3,520.4,798.6,516.8,804.8z"/>
	<path class="st8" d="M471.9,801.6c15.5,12.6,32.3,17.4,51.4,8.4c4.6,0.1,4.7,3.6,5.1,6.9c-17.4,10.7-34.7,5.8-52-0.3
		C473.7,811.9,468.5,808.1,471.9,801.6z"/>
	<path class="st10" d="M516.5,679.9c2.4-4.6,4.9-9.2,7.7-14.4c2.9,8.5,5.5,16.4,8,24.3c2.4,7.7-0.7,13.1-4.2,18.4
		c-2.4,3.7-6.5,5.5-9.9,0.1C517.2,698.9,516,689.5,516.5,679.9z"/>
	<path class="st6" d="M491.6,210c2.9,2.9,8.2,4.4,6.5,10.1c-1,3.3-4.2,4.5-7.1,4.7c-12,0.7-25.4-12.3-25.9-24.8
		c1.8-1.1,1.4-4.3,4.5-4.7C473.1,205.7,482.3,208,491.6,210z"/>
	<path class="st8" d="M508.4,199.8c-9.1,4.9-17.9,3.9-26.6-1.4c-2.7-1.6-5.2-3.3-5.2-6.9c4.8-0.6,7.9,3.5,12.2,4.5
		c1.6,0.4,3.3,1.4,4.8,0.3c1.7-1.3,0.6-3.1,0-4.5c-2.7-6.3-4.3-13.2-8.7-18.8c3.7-2.3,7.6-3.5,11.9-2.9
		C506.5,176.6,511.8,190.2,508.4,199.8z"/>
	<path class="st7" d="M486.9,734.9c10.5,7.1,23.1,7.8,35.9,10.6c-10.5,7.4-21.7,9.9-32.9,12.7C482.3,749.4,481.4,742.8,486.9,734.9z
		"/>
	<path class="st4" d="M524.9,259.3c4.4-8,8.6-13.2,19-13.1c13.7,0.1,26.6-5.8,39.8-9.9C566,247.8,547.5,257.7,524.9,259.3z"/>
	<path class="st4" d="M478.5,259.4c-22.9-1.7-41.4-11.7-59.2-23.3c11.2,3.7,22.3,7.1,33.8,9.6c1.6,0.3,3.2,1,4.8,0.9
		C472.6,245.6,469.8,247.3,478.5,259.4z"/>
	<path class="st7" d="M489.8,650.2c4.3-2.2,8.6-4.3,12.9-6.6c2.5-1.4,4.9-2,7.4-0.1c2.3,4.2,4.8,8.3,1.5,13.1
		c-5.5,6.3-12.6,10.1-20.2,13.2C487.8,663.5,486.3,657.1,489.8,650.2z"/>
	<path class="st7" d="M490.5,791.5c4.1-10.5,7.4-18.9,10.8-27.3c1.8-4.4,4-5.2,6.5-0.3c0.7,1.5,1.8,2.8,2.7,4.1
		c2.5,3.5,8.9,5.9,7.9,9.3c-0.9,2.8-7.3,3.9-11.3,5.9C502.2,785.6,497.3,788.1,490.5,791.5z"/>
	<path class="st5" d="M506.4,253.2c-6.2,1-11.3-1.6-15.9-5.2c-5.4-4.2-10.7-8.4-17-11.4c4.3-7.9,10.5-1.5,15-0.9
		c6,0.8,11.6,1.1,17.9-0.6C506.4,241.3,506.4,247.2,506.4,253.2z"/>
	<path class="st6" d="M484.9,173.1c4.3,0,5.5,3.6,6.4,6.6c1.5,4.7,3.1,9.3,5.3,13.7c0.8,1.5,2.6,3.2,0.6,5.2c-1.9,1.9-3.7,1.2-6,0.5
		c-5.3-1.6-10.1-4.1-14.5-7.4C475.4,183.6,478.6,177.7,484.9,173.1z"/>
	<path class="st10" d="M486.9,734.9c-3.9,8.4,0.7,15.7,3,23.3c-4.5-0.3-9.5,5.3-13.2-2.7c-5.5-11.8-6.3-18.8,0.7-24.7
		C481.7,727.1,484,732.6,486.9,734.9z"/>
	<path class="st10" d="M486.6,786.7c-0.2,2.2-0.2,4.4-0.8,6.5c-0.6,2.2-2.1,4-4.5,4.2c-3,0.3-3.3-2.7-3.9-4.5
		c-3.1-8.2-3.1-16.5-0.5-24.9c2.1-7,8.8-3.7,13-6.2c2.9,3,0.9,6.1,0.2,9.1C488.9,776.2,486,781,486.6,786.7z"/>
	<path class="st8" d="M523.4,561.8c-1.3,9-5.4,16.4-13.3,21.4c-5.2,0.5-10.4,0.2-15.4-1.7c8.7-6.1,8.7-6.6,1.7-14.7
		C505.1,563.4,514,560.9,523.4,561.8z"/>
	<path class="st10" d="M515.2,618.5c0.9-0.6,1.8-1.3,2.8-1.6c3-0.9,5.1-5.8,8.3-3.5c3.3,2.4,2.4,7.1,1.9,10.9
		c-0.9,6.1-2.4,12.1-3.7,18.3c-3.9-1.6-7.5-3-11-4.4C509.3,631.2,511.9,624.8,515.2,618.5z"/>
	<path class="st7" d="M486.5,711.8c6.2-1.2,12.5-1.8,18.4-3.8c5.3-1.8,7,1,8.8,4.7c2.3,4.8-2.3,4.9-4.5,5.9c-6,2.7-12.4,4.5-19,4.9
		C485.5,720.7,484.9,716.6,486.5,711.8z"/>
	<path class="st10" d="M486.5,704.8c-11.8-1.6-11.8-1.6-9.9-13.1c0.2-1.4-0.1-2.9,0.5-4.1c1.7-3.4,0.3-9.3,4.1-10.1
		c4.2-1,6.2,4.4,9,7.3C491.9,692.1,490.2,698.7,486.5,704.8z"/>
	<path class="st6" d="M498.1,838.2c-9.1-1.5-17.7-4-25.5-9.3c-4.9-3.4-8.7-7.1-10.7-13.1c9.1,6.1,18.9,10.3,29.5,12.7
		c2.3,0.9,4.8,1.5,6.9,2.9C501.7,833.6,502.1,836,498.1,838.2z"/>
	<path class="st10" d="M488.2,590.2c-3.3,10.1-0.9,19.9,1.7,29.7c-13.7-7.1-15.2-10.6-11.5-25.3
		C479.8,588.5,482.6,586.4,488.2,590.2z"/>
	<path class="st10" d="M523.1,753.2c3.5-1.3,6.2-7.5,9.8-4.5c3.4,2.9,4,8.2,2.4,13.6c-1.4,4.8-4.1,8.9-5.9,13.9
		c-2.2-1.7-4.1-3.2-6-4.7C521,765.5,522.1,759.3,523.1,753.2z"/>
	<path class="st10" d="M523.1,726.6c1.1-4.6,3.7-8.5,6.2-12.9c3.9,4.9,5.7,10.2,5.6,16.1c-0.2,10.2-3.2,12-13.5,8.6
		C518.7,734,522.1,730.5,523.1,726.6z"/>
	<path class="st9" d="M508.4,199.8c-0.1-11.4-4.5-21-11.6-29.7c12.2,1.7,19.7,9.5,19.7,21C516.5,196.2,513.3,199,508.4,199.8z"/>
	<path class="st7" d="M513.3,673.3c-1.1,6.2-6.3,10-10.2,13.4c-4.3,3.7-6.8-3.5-9.7-6.1c-3.3-2.9,0.4-4,2.3-5.1
		c5.2-3,10.5-6,15.7-8.9C514,668.3,515.1,670.4,513.3,673.3z"/>
	<path class="st10" d="M488.2,643.2c-4.1,1.5-10.1,5.4-11.8,4c-3.6-3.1-0.8-8.5,0.1-13.1c2-10,1.9-10,9.7-3.8c1.3,1,2.6,1.9,4,2.9
		C492.1,637.1,490.8,640.3,488.2,643.2z"/>
	<path class="st10" d="M489.8,650.2c0.6,6.6,1.1,13.1,1.7,19.7c-4.5,3.1-9.1,5.3-11.6-1.9c-1.8-5.3-5.8-11.4,3.2-14.6
		C485.5,652.5,487.6,651.2,489.8,650.2z"/>
	<path class="st7" d="M491.3,730.8c9.2-3.4,18.7-5.4,27.9-11.5c-0.5,8.5-5.2,14.4-9.9,17.2C503.5,739.9,497.6,732.9,491.3,730.8z"/>
	<path class="st8" d="M498.1,838.2c5-8.2-5.1-6-6.7-9.7c12.2,3.5,23.7,0.5,35.1-3.6c1.5,6.8-4.4,8.4-8.1,11.6
		C511.9,839.1,505,838.3,498.1,838.2z"/>
	<path class="st7" d="M516.5,679.9c3.4,9.3,4.5,18.8,1.7,28.5c-1.2-1.5-2.2-3.1-3.5-4.5C503.8,691.5,503.8,691.5,516.5,679.9z"/>
	<path class="st9" d="M528.4,816.8c-1.7-2.3-3.4-4.6-5.1-6.9c5.8-3.7,8.7-9.4,10.7-16.1c3.9,2.7,8,5.8,6.9,10.3
		C539.4,810.4,535.7,815.7,528.4,816.8z"/>
	<path class="st11" d="M520,246.7c-3.3,1.6-5.7,4.9-9.8,4.8c-0.1-2.7-0.4-5.5-0.2-8.2c0.3-3.5-2.1-8.7,3.4-9.6
		c2.7-0.4,6.5-4.3,8.8-0.4C524.9,237.9,523.8,242.7,520,246.7z"/>
	<path class="st6" d="M503.1,856.5c-15.2-2-19.4-4.6-22.9-14.4c6.4-1.3,12.2,1.1,18,2.9C502.1,847.9,505.8,850.9,503.1,856.5z"/>
	<path class="st7" d="M486.5,704.8c0.2-6.8,1.9-13.4,3.7-19.9c4.5,5.1,9.1,10.2,14.2,15.8C498.6,703.9,492.8,705.5,486.5,704.8z"/>
	<path class="st7" d="M515.2,618.5c0.6,6.7-2.9,13-1.7,19.7c-6.4-3.1-12.7-6.2-20.7-10.1C501.7,625.4,508.9,622.9,515.2,618.5z"/>
	<path class="st10" d="M516.8,804.8c0.1-6.8,3.6-13.1,3-20c3.2-2.5,7-2.7,9.5-0.1c2,2.1,0.4,5.5-0.8,8.4
		C526,798.6,522.6,802.8,516.8,804.8z"/>
	<path class="st6" d="M471.9,801.6c-0.1,5.5,4,9.7,4.5,14.9c-3.1-1.7-6.3-3.1-9.1-5.1c-1.9-1.4-3.3-3.4-4.5-5.7
		c-2.9-5.3,0.6-8.3,3.7-11.1C468.2,793,468.9,793.7,471.9,801.6z"/>
	<path class="st9" d="M518.3,221.7c1.1-7.3,8.2-13.7,3.2-21.8c0.8-2.3,1.5-4.7,2.3-7.1C533.8,202.8,531.3,215.9,518.3,221.7z"/>
	<path class="st8" d="M503.1,856.5c-0.1-4.5-3.4-7.6-4.9-11.5c5.5-0.1,11.1-0.1,16.6-0.2c4.2,1.9,3.7,5,1.9,8.3
		C512.6,855.8,508.2,857.4,503.1,856.5z"/>
	<path class="st8" d="M523.2,549.9c0.6,2.3,1.2,4.5,1.8,6.8c-0.1,3.6-3.2,3.3-5.3,3.9c-8,2-16.2,2.7-24.3,0.8
		c-2.7-0.7-6.3-0.5-7.1-4.4c3.7-1.3,8.1,1.6,11.5-1.8C507.9,554.8,516.4,556.2,523.2,549.9z"/>
	<path class="st10" d="M486.5,711.8c1.2,3.9,2.5,7.7,3.7,11.6c-4.4,2.3-9,3.6-11.6-2.1c-1.4-3.1-3.6-7-1.1-10.1
		C480.1,707.9,483.4,711.7,486.5,711.8z"/>
	<path class="st7" d="M523.1,753.2c3.1,6,1.3,12.2,0.4,18.3c-1.3-0.9-2.8-1.7-3.9-2.8C509.1,758.8,509.4,757.6,523.1,753.2z"/>
	<path class="st10" d="M510.7,592.7c4.8-3.1,9.5-2.1,13.6-3.3c2.1-0.6,3.7-1,4.9,1c1.9,3-0.5,5.2-1.7,7.5c-1.1,2-2.8,2-4.9,0.9
		C518.9,596.7,515,594.9,510.7,592.7z"/>
	<path class="st7" d="M486.6,786.7c-4.1-5.1,0.4-9.8,0.8-14.6c0.3-3.4,2.8-6.5,2.4-10.2c4.2-0.5,7.1-0.6,4.3,5.3
		C491.1,773.4,489.1,780.1,486.6,786.7z"/>
	<path class="st9" d="M518.5,836.5c2.4-4.1,7-6.7,8.1-11.6c3.1-2.8,6.9-4.1,10.7-5.7C534.2,828.9,529.6,833.1,518.5,836.5z"/>
	<path class="st10" d="M513.3,673.3c-0.6-2.3-1.2-4.5-1.9-6.8c3.6-3.8,7.2-7.6,10.9-11.3c0.5-0.5,1.3-0.7,3.4-1.7
		C522.6,661.8,520.5,669.1,513.3,673.3z"/>
	<path class="st10" d="M511.7,656.6c-0.5-4.4-1-8.8-1.5-13.1c3.6,1.8,7.2,3.6,10.9,5.4C518.9,653,515.5,655,511.7,656.6z"/>
	<path class="st7" d="M488.2,643.2c0.7-3.3,1.3-6.6,2-10c3.6,0.7,5.9,3.4,10,5.8C495.4,640.7,491.8,641.9,488.2,643.2z"/>
	<path class="st10" d="M515,610c-0.6-3.3-1.1-6.6-1.7-9.9c3.7,0.2,6.4,2.5,10,4.5C520.9,607.2,518.8,609.8,515,610z"/>
	<path class="st9" d="M516.8,853.2c0-2.9-0.2-5.8-1.9-8.3c2.5-3.1,6.3-0.2,9.7-3.4C523.8,847.8,520.7,850.8,516.8,853.2z"/>
	<path class="st7" d="M523.1,726.6c1.1,4.2-1.7,7.8-1.7,11.9c-4.4,0.1-7.5-0.6-3.4-5.6C519.8,730.8,520.4,727.8,523.1,726.6z"/>
	<path class="st10" d="M488.2,798.5c0.6,2.1,1.1,4.2,1.7,6.3c-2-1.2-4.9-1.3-5.5-3.9C484.2,800.4,486.8,799.3,488.2,798.5z"/>
	<path class="st0" d="M329.5,330c-5.6,0.1-9.9-1.8-14-4c-2.1-1.2-4.4-3-3.6-5.9c0.8-2.8,2.8-4.8,5.9-5c5.3-0.3,10.6,0.6,14.8,3.7
		c2.3,1.7,6.5,3.4,4.7,7.6C335.8,329.9,332.4,330.4,329.5,330z"/>
	<path d="M488.3,556.9c12.3,4.5,24.5,4.1,36.7-0.2c1.7,0,3.3,0,5.6,0c-1.8,3.2-5.1,3.3-7.1,5.1c-8.8,2.6-17.6,5.5-27,5
		c-4.1-1.2-8.2-2.4-12.4-3.5c-6.1-1.7-9.9-5.3-10.9-12.5C479.1,551.4,482.5,557.6,488.3,556.9z"/>
</g>
</svg>
