<?xml version="1.0" encoding="utf-8"?>
<!-- Generator: Adobe Illustrator 23.0.1, SVG Export Plug-In . SVG Version: 6.00 Build 0)  -->
<svg version="1.1" id="Layer_4" xmlns="http://www.w3.org/2000/svg" xmlns:xlink="http://www.w3.org/1999/xlink" x="0px" y="0px"
	 viewBox="0 0 1000 1000" style="enable-background:new 0 0 1000 1000;" xml:space="preserve">
<style type="text/css">
	.st0{fill:#0E579F;}
	.st1{fill:#9EA3A5;}
	.st2{fill:#00006C;}
	.st3{fill:#555A5E;}
	.st4{fill:#414447;}
	.st5{fill:#7F0000;}
	.st6{fill:none;}
	.st7{fill:#D60000;}
	.st8{fill:#B3D5FD;}
	.st9{fill:#FE8787;}
	.st10{fill:#D5D5D5;}
</style>
<g>
	<path d="M713.7,430.8c-4.6-11.3-10.3-21.9-23.9-24.8c-3.9-0.8-7.7-1.7-11.7-1.8c-7,0-14-0.1-21,0c-1.9,0-2.4-0.4-3-2.5
		c-1.2-4.3-0.5-6.6,3.5-9.5c10.7-7.8,10.2-28.7-2.9-37.6c-5.9-4-13.8-1.8-18.2,4.1c-4.7,6.2-5.5,13.3-4.6,20.4
		c1,7.1,3.6,14,11.8,15.9c3.4,0.8,3.1,2.9,2.6,4.8c-0.7,2.3-0.3,5.5-4.5,5.5c-8.7-0.1-17.4,0.3-26.1,0.7c-21.9,1-43.8,1-65.7,1.1
		c-2.9,0-5.5,2.3-8.6,0.6c0.4-0.2,0.6-0.4,0.9-0.4c8.9-1.7,13.7-8.2,11.2-16.6c-2.2-7.4-6-14.1-10.2-20.6c-2.1-3.2-4.6-5.8-8.1-7.8
		c-7.7-4.5-16.3-3-24.3-3.5c-12.7-0.8-25.5-0.2-38.3,0.3c-20.6,1-41.2,1.8-61.8,3.1c-7.7,0.5-15.1,1.5-22.3,4.1
		c-11.8,4.3-19.1,18.2-9.9,30c6,7.6,13.2,13.4,20.4,19.5c-11.2,1.9-22.6,1.6-33.8,3.1c-13.3,1.8-26,4.7-37,12.8
		c-8.7,6.5-14.6,15.2-17.4,25.4c-1.9,7.1,2.2,11.9,12.7,12.6c6.8,0.4,13.7,0.1,20.5,0c2.3,0,3.4,0.1,4,3.1c1.5,7.6,6,10.6,14,10.7
		c4.7,0,9.2-0.9,13.6-2.1c3.7-1,5.4,1.9,6.9,3.5c1.4,1.5-1.5,2.8-3.1,3.7c-0.4,0.2-0.7,0.6-1.1,1c-12.8,11.5-25.5,23-38.4,34.4
		c-9.2,8.1-17.3,17.5-28.2,23.6c-3,1.7-5.5,4.7-7,8.4c-2.3,5.7,0.7,12,6.7,13.3c8.6,1.9,17.3,2.9,26.1,2.8c18.8-0.2,37.6,1,56.4-0.8
		c7.5-0.7,14.8-1.5,21.8-4c8.4-3,13.2-13.8,7.7-19.2c-4.4-4.2-3.4-7-1.5-11.3c1.2-2.6,2-5.1,4.1-7.3c2.5-2.6,2.8-5.8,1.1-9.1
		c-4.5-3.3-4.8-7.2-0.8-11.2c1.5-1.5,3.4-2.4,4.4-4.4c3.3-2.4,4.1-5.8,3.9-9.7c-8.4-1.9-21.5,2.9-19.8,13.4c0.3,2.2,0,4.5,0,6.8
		c0.1,1.7,0.2,3.3,0.1,4.9c0,1.4-0.2,2.7-0.3,4.1c-0.5,3.8-1.3,7.4-2.4,11.1c-2,6.4-3.3,7.6-8.9,6.8c-0.3,0-0.6-0.1-0.9-0.1
		c-0.4-0.1-0.7-0.1-1.1-0.2c-4.1-0.8-8.4,0-12.5-0.7c-0.3,0-0.5-0.1-0.8-0.2c-0.1,0-0.3-0.1-0.4-0.1c-6.4-0.4-12.8-0.8-19.2-1
		c-5.5-0.2-11.1-0.2-16.7,0c-5.3,0.2-10.6,0.6-16.1,1.2c5.4-4.3,9.6-8.6,14.1-12.6c17-15.1,33.7-30.4,51.2-45
		c4.9-4.1,10.1-6,16.5-5.9c9.1,0.1,18.2,0.5,27.3-0.3c2.6-2.1,4.3-4.9,5.9-7.8c-1.2-1.3-2.9-1.5-4.5-1.5c-9.4,0-18.8-0.4-28.2,0.2
		c-2,0.4-4,0.7-5.9,1.1c-2.2,0.5-4.3,1.1-6.4,1.8c-3.4,1.2-6.6,2.9-9.6,5.3c-2.8,2.3-5.6,1.1-7.9-1.2c-0.3-0.3-0.6-0.6-0.9-1
		c0,0,0-0.1,0-0.1c-0.4-0.8-0.6-1.7-0.6-2.6c0,0,0-0.1,0-0.1c0-0.5,0.1-0.9,0.2-1.2c0.8-2.7,3.2-3.5,5.9-3.4c0.2,0,0.4,0,0.6,0
		c4.1,0,8-0.5,12-1.1c0.3-0.1,0.6-0.1,0.9-0.2c5.1-1.6,8.8-5.3,12.4-9c3.5-3.6,7.3-6.8,12.1-8.4c0.5-0.2,1-0.4,1.5-0.6
		c0.3-0.1,0.5-0.2,0.8-0.3c2.4-0.7,4.8-1.1,7.3-1.4c0.5-0.1,1-0.1,1.5-0.1c4.9-0.4,9.8-0.4,14.8-0.5c0.3,0,0.7,0,1,0
		c11.4-0.2,22.9,1.4,34.2-1.3c3.2,0,6.6,0.4,9.7-0.2c3.1-0.6,6.6-0.6,8.7-3.7c-3.7-2.5-8.1-2.5-12.2-2.4
		c-17.4,0.3-34.7-1.2-52.1-1.3c-12.5,0-23.3,3.5-32.2,12.4c-0.3,0.3-0.6,0.5-0.8,0.8c-0.4,0.4-0.9,0.9-1.3,1.3
		c-2.8,3-5.6,6.2-10.5,6.1c-12.2-0.3-24.3,1.5-36.5,1.1c-7.3-0.3-14.6-0.2-21.9,0.7c-5.1,0.7-10.4,0.2-15.6,0.1
		c-1.8,0-3.7-0.2-3.8-2.4c0-0.2,0-0.4,0-0.7c0.1-0.1,0.2-0.3,0.3-0.4c5.8-10.2,13.5-17.8,25-21.9c13-4.7,26.4-5.4,39.8-6.7
		c8.6-0.8,17.2-0.7,25.8-1.3c12.2-0.8,24.3-1.7,36.5-2.5c16.7-1.1,33.4-2.4,50.1-3.3c15.4-0.8,30.8-1.7,46.2-2.5
		c14.1-0.8,28.3-0.3,42.4-0.8c16.9-0.5,33.9-1.7,50.9-1.4c0.3,0,0.5,0,0.8,0h0.1c2.8,0.2,5.5,0.1,8.3-0.2c0.7-0.1,1.5-0.2,2.2-0.3
		c0.6-0.1,1.1-0.2,1.7-0.3c2.7-0.1,5.5-0.2,8.2-0.2c0.5,0,1,0,1.5,0c0.5,0,1,0,1.6,0c3.2,0.1,6.4,0,9.6-0.1c0.5,0,1,0,1.5,0
		c0.3,0,0.5,0,0.8,0c8,0.1,15,2.5,20.4,8.8c10.5,12.2,13.7,26.9,12.9,42.3c-0.8,14.6-6,28.2-12.7,41.2c-7.4,14.2-18.9,21.4-35,21.3
		c-0.2,0-0.3,0-0.5-0.1c-0.6-0.1-1.3-0.2-1.9-0.3c-3.6-0.5-7.2-0.8-10.8-0.6c-0.3,0-0.7,0-1,0c-0.4,0-0.9,0-1.3-0.1
		c-3.4-0.3-6.8-1.2-10.3-0.9c-0.1,0-0.1,0-0.2,0c-0.3,0-0.7,0-1.1,0c-2.3,0-4.5,0-6.7-0.3c-12.6-1.3-25.3-1.4-37.9-2.8
		c-17.2-1.9-35.2,0.5-50.9-9.4c-5.8,2.1-6.2,3.9-1.5,7.8c1.8,1.5,4,2.4,6.3,3.1c15.6,4.4,31.8,4.5,47.8,5.6
		c7.2,0.5,13.9,2.2,20.6,4.4c2.5,0.8,4.7,2.7,7.5,2.6c15.9-0.7,31.8,1.6,47.6,0.9c10.3-0.5,19.6-3.9,27.3-11.3
		c8-7.6,13.1-16.8,17.4-26.9c4.7-11.2,7.4-22.8,7.6-34.9C719.9,453.2,718.2,441.6,713.7,430.8z M639.1,382.1c1.8,0,3.3-1.5,5.4-1.3
		c2.3,0.3,4.1-1.4,3.8-3.3c-0.3-1.8-2.3-2.8-4.6-2.6c-6.4,0.6-6.3,0.5-4.9-6.2c0.9-4.6,2.9-8.2,7.8-10.3c0,3.6,0,6.8,0,10
		c0,2.4,0.6,5.1,2.9,5.3c2.6,0.2,2.3-3.1,2.8-4.8c0.6-2.4,0.2-5.2,0.2-7.8c0-0.6-0.3-1.3,0.6-1.6c0.8-0.3,1.2,0.2,1.6,0.7
		c2.5,3.2,4,6.7,4.6,10.7c0.3,1.7-0.5,2.1-2.2,2.2c-1.8,0.2-4.2,0.6-4.5,2.8c-0.3,2.5,2.6,1.8,3.9,2.6c1.3,0.8,3.2,0.4,2.7,2.9
		c-0.6,3.3-1,6.7-5.9,7.2c0-1.5-0.1-2.6,0-3.7c0.3-2.4-0.7-4.7-2.9-4.8c-2.2,0-2.8,2.6-3,4.7c-0.1,1.8,0,3.5,0,5.4
		C642.8,389.3,640.1,386.5,639.1,382.1z"/>
	<path class="st0" d="M509.8,440.5c-12.4-1.5-24.9-0.5-37.2-1.3c-8.7-0.6-17.4-0.3-26.1-0.8c-12.6-0.7-23.3,3.2-32.3,11.9
		c-3.3,1.6-6.8,2-10.4,2.4c-24.7,2.6-49.6,2.9-74.4,4.7c-2.7,0.2-5.6,0.7-7.9-1.4c8.1-16.6,22.4-24.3,39.7-27.2
		c16.9-2.9,33.9-3.5,51-4.2c14.5-0.5,28.9-1.9,43.4-2.9c14.5-1,28.9-2.2,43.4-3c12.4-0.6,24.9-1,37.2-2c13.5-1.1,26.9,0.1,40.3-0.9
		c12.6-0.9,25.3-0.2,37.9-1.1c8.8-0.6,17.5-0.6,26.2-0.6c0.3,1.9-1,2.8-2.4,3.6c-0.5,0.2-1,0.3-1.5,0.4c-12.2-0.3-24.3,1.4-36.5,1.2
		c-4.4-0.1-8.8,0.6-13,1.9c-2.4,0.7-4.7,1.9-4.9,4.8c-0.2,2.7,1.9,4,3.9,5.1c9.3,5.1,19,8.5,29.8,7.3c1.2-0.1,2.3,0,3.3,0.7
		c1.1,1.6,0.4,3.2-0.3,4.6c-3.8,7.8-5.3,16.3-6.8,24.8c-1,5.4,0.5,10.6,1.4,15.9c0.4,2.7,1.5,5.3,0.6,8.1c-0.3,0.5-0.6,0.9-1.2,1.2
		c-4.2,1-8.4,2.5-12.7,0.9c-3.3-4-3-8.8-2.7-13.4c0.2-3.6,0.9-7.1,1.6-10.6c0.9-4.4,0.3-5-4.3-5.3c-10.1-0.6-20.1-1.4-30.2-1
		c-5.4,0.2-10.7-1.2-16-1.1c-1.5,0-3.4,0-3.7-2.3c1.9-3.9,5.2-6.4,8.7-8.6c2.8-1.8,3.7-4.2,3-6.9c-0.7-2.7-3.3-3.6-6-4
		C537,439.5,523.4,440.7,509.8,440.5z"/>
	<path class="st1" d="M386.7,541.9c-5.3-0.1-10.6,0.3-15.9-0.4c-12.7-1.6-25.3,0.8-38.7,0.9c4.8-3.3,8.5-7.6,12.6-11.4
		c7.9-7.1,16-13.9,23.8-21c11.6-10.6,23.5-20.8,35.7-30.7c2.4-2,5.6-2.5,8.5-2.6c9.9-0.2,19.8-0.1,29.7-0.1c0.8,0,1.6-0.1,2,0.9
		c-1.3,1.6-2.6,3.3-3.9,4.9c-3.8,6.4-9.6,10.1-16.8,11.3c-6.6,1.1-10.4,4.5-11.3,11.4c-0.5,3.5-1.8,6.9-2.3,10.4
		c-1,8-5,14.2-11.5,19C394.8,537.3,391.3,540.6,386.7,541.9z"/>
	<path class="st2" d="M600.5,494.3c4.2-0.4,8.4-0.7,12.6-1.1c2,0.4,2.3,2.1,2.8,3.6c3.4,9.7,9.3,17.7,16.4,25
		c1.5,1.5,3.8,2.7,3.4,5.5c-13.8-0.5-27.7-1.3-41.5-2.7c-5.8-0.6-11.6-0.5-17.4-1c-9.3-0.8-18.6-1.6-27.8-3.2
		c-4.3-0.7-7.7-3.2-10.1-6.8c2.6-1.6,5.2-3.2,7.8-4.9c3.8-2.1,8-1.6,11.9-1.1c7.1,0.9,14.2,0.9,21.3,0.7c6.5-0.2,12.9,1.3,19.4,1
		c4.3-0.2,4.3-0.5,3-4.6C601.3,501.4,598.2,498.3,600.5,494.3z"/>
	<path d="M600.5,494.3c0,4,2.1,7.4,3.7,10.9c2.6,5.6,2.7,5.8-3.7,5.6c-17.9-0.6-35.8-1.3-53.6-2c1.2-1.8,2.8-3.4,3.1-5.7
		c1.8-1.8,4.2-1.5,6.4-1.5c8.9-0.1,17.7,0,26.6,0c7.7,0,7.7,0,5.8-7.4c-1.1-6.9,0.1-13.7,1.8-20.3c0.9-3.6,0.2-4.8-3.5-4.6
		c-14.6,0.6-29.2-1.5-43.9-0.9c-1.5-0.2-3-0.2-4.1-1.5c1.4-2.4,3.5-4.1,5.6-5.8c5.3,2.1,11.1,1.5,16.5,1.7c12,0.4,23.9,0.9,35.9,1.2
		c3.7,0.1,4.8,1.3,3.8,5.1C598.9,477.3,597.2,485.7,600.5,494.3z"/>
	<path class="st1" d="M543,466.9c16.7-1,33.2,1.9,50.3,0.6c-2,9-4.1,17.6-3.5,26.6c-4.7,2.9-9.8,1.6-14.7,1.3
		c-6.3-0.4-12.6-0.8-18.9-0.8c-2,0-3.9-0.1-5.5-1.5c-2.6-5.5-7.4-8.5-12.8-10.9C536.2,476.8,538.4,470,543,466.9z"/>
	<path class="st3" d="M385.7,474.6c-1-0.4-0.9-1.1-0.8-1.9c2.3-4,6.2-5.5,10.5-5.7c3.7-0.2,7.3-1,10.8-1.9c5.4-3,9.8-7.2,13.9-11.6
		c2.4-2.5,5.1-4.3,8.4-5.2c13-2.9,26.1-3,39.2-1.8c4.2,0.4,8.9-1,12.8,2c-1.1,1.2-2.4,1.8-3.9,2c-3.1,1.1-6.3,1.3-9.5,1.4
		c-11.2,0.2-22.3,0.7-33.4,2.5c-2.3,0.4-6,0.4-5.9,3.1c0.1,3,3.8,2.9,6.3,3.1c6.1,0.4,12.3,0.1,18.5,0.2c2.2,0,4.6-0.4,6.4,1.4
		c-2.1,3.6-5.8,5.3-8.8,7.8c-11.4,0-22.8,0-34.2,0c-8.1,0.2-15.6,3.4-23.4,5.2C390.4,475.5,388,476.4,385.7,474.6z"/>
	<path class="st3" d="M386.7,541.9c3.7-2.8,7.3-5.9,11.1-8.4c6.9-4.5,10.1-11,11.2-18.9c0.6-4.3,2.3-8.4,2.9-12.7
		c0.7-4.9,3.6-7.7,7.6-8.3c8.4-1.4,15.1-5.3,20.9-11.2c-1.3,4.6-4,8.5-6,12.8c-2.6,0.5-5.3,0.8-7.9,1.6c-10,3-10.5,3.6-10.5,14
		c0,1.6-0.1,3.2-0.1,4.8c-0.2,9.9-5.1,17.6-11.1,24.9c-0.9,1.1-1.8,2.3-3.4,2.5C396.5,542.4,391.4,544.2,386.7,541.9z"/>
	<path class="st1" d="M459,461.9c-8,0-15.9-0.1-23.9,0c-2.2,0-4.2-0.3-6.1-1.1c-1.7-0.7-4.2-0.9-4-3.5c0.3-2.6,2.7-3.6,4.9-4.1
		c4.2-0.9,8.5-1.9,12.8-2c11.3-0.2,22.6-1.9,34-1C470.8,454.2,464.9,458,459,461.9z"/>
	<path class="st3" d="M550.8,493.2c13.1-0.7,26,1.6,39.1,1c1.7,2.6,1.7,5.6,2.4,8.9c-14.3,0-28.3,0-42.4,0
		C550.3,499.7,551.2,496.5,550.8,493.2z"/>
	<path class="st4" d="M480.6,448.3c-17.3-1.3-34.6-1.4-52-0.1c4.7-3.3,10.3-3.6,15.6-3.7c15.7-0.4,31.4-0.1,47.1-0.1
		C487.9,446.1,484.5,447.9,480.6,448.3z"/>
	<path class="st4" d="M426.9,520.4c-2.3,0.4-4.2-0.1-4.8-2.7c-0.8-3.8,0.6-7,3.2-9.6c1.5-1.4,3.5-2.2,5.3-3.3
		C429.3,510,428.1,515.2,426.9,520.4z"/>
	<path class="st3" d="M543,466.9c-3.7,4.5-4.6,9.8-5,15.4c-4-0.6-4.3-2.7-2.9-6.2c1.3-3.2,2.4-6.4,4.1-9.4
		C540.5,466.8,541.8,466.9,543,466.9z"/>
	<path class="st0" d="M396.4,401.5c-4.4-3.4-7.7-7.8-10.7-12.3c-3.2-4.9-1.6-9.4,3.5-12.4c7.2-4.2,15.3-5,23.2-5.5
		c12.7-0.8,25.5-1.4,38.2-2.3c19.2-1.4,38.5-1.7,57.7-1.7c1.6,0,3.3-0.7,4.7,1.3c5.9,8.4,11.8,16.7,16.4,25.9c-2,2-4.8,2.1-7.3,2.2
		c-15.4,0.9-30.7,2.4-46.1,3.3c-11.7,0.7-23.3,1.8-35,2.4c-11.3,0.5-22.7,1.8-34,1.4C403.3,403.6,399.8,402.8,396.4,401.5z"/>
	<path class="st3" d="M676.6,413.2c10.6-0.5,18.6,4.8,24,13c7.6,11.4,10.9,24.7,10,38.2c-0.9,13.7-5.3,26.6-11.2,39.1
		c-4.6,9.7-10.5,17.6-20.5,22.1c-5.4,2.4-10.9,4-16.8,3.4c-7.5-3.5-12.2-9.9-16.6-16.5c-3.2-4.7-5.3-10-7.8-15
		c-0.6-1.3-1.1-2.7-0.4-4.2c2.2-2.2,4.9-2.6,7.8-2.1c1.8,0.8,2.6,2.4,3.2,4.1c4.1,10.6,10.9,19.1,15.8,23.5
		c-3.6-3.1-6.8-11.6-10.5-19.7c-5.8-12.9-8.8-26.6-6.3-40.8c2-11.3,8.2-20.8,14.5-30.1c2.5-3.6,5.4-6.9,8-10.5
		C671.7,415.7,673.7,413.9,676.6,413.2z"/>
	<path class="st2" d="M396.4,401.5c3.6-0.8,7,0.9,10.6,0.8c17-0.4,33.9-1,50.8-2.8c4.6-0.5,9.4-0.6,14-0.8
		c19.2-0.9,38.3-2.8,57.5-4.2c2.5,0.9,2,4.3,5.4,5.8c-2.7-6.4-5-12-7.4-17.6c0.7-0.3,1.4-0.3,1.8,0.2c4.2,5.2,9.2,9.9,13,15.6
		c-4.8,4-10.9,4.2-16.5,4.5c-11,0.6-21.9,2-32.9,2.3c-21.4,0.6-42.7,1.6-64.1,2c-5,0.1-10,0.3-15,0.9
		C406.5,409.1,401,406.6,396.4,401.5z"/>
	<path class="st2" d="M396.4,548.9c2.3,1.2,4.7,0.8,7.1,0.9c2.1,0.1,4.3-0.1,6.3,0.4c2.9,0.7,6.7,1.5,6.8,5.2c0,3.5-3.9,3.9-6.5,4.7
		c-5.4,1.5-11,2.2-16.6,2.6c-17,1.3-34,0.8-50.9,0.7c-8.3,0-16.7-1.2-25-1.8c-0.8-0.1-1.6-0.2-2.1-1c0.5-3.3,3.4-3.7,5.7-4.4
		c8.1-2.6,16.4-4,24.8-4.8c12.8-1.3,25.6-0.9,38.4-1C388.4,550.3,392.4,549.9,396.4,548.9z"/>
	<path class="st1" d="M645.4,492.1c-2.7,0.2-5.4,0.6-7.7,2c-0.9,0.2-1.5-0.4-1.9-1c-7.6-23.7-5.4-45.7,11.2-65.3
		c3.6-4.2,7.3-8.2,11.6-11.7c1.7-1.4,3.5-2.4,5.5-2.9c4.2,0,8.4,0,12.6,0c-2,1.6-3.9,3.2-5.9,4.9c-7.5,6.6-14.1,13.9-19.1,22.6
		c-8.3,14.4-10.8,29.7-6.3,45.9C645.9,488.3,646.9,490.3,645.4,492.1z"/>
	<path class="st0" d="M664.1,413.2c-13.4,10.5-24.8,22.4-29.2,39.6c-3.4,13.7-2.1,27.1,1.7,40.4c-3.4,2.2-7.1,1.3-10.8,0.8
		c-0.5-0.2-1-0.5-1.4-0.9c-3.5-7.9-3.9-16.4-3.5-24.8c0.6-11,3.5-21.5,9.6-30.8c0.4-0.6,1-1.2,1.6-1.6c3.3-1.4,6.2-3.2,9.1-5.4
		c4.2-3.2,6.4-7.1,5.7-12.4c0.5-3.2,3.7-3.2,5.5-4.9C656.3,413.2,660.2,413.2,664.1,413.2z"/>
	<path class="st2" d="M321.4,456c17.2-0.9,34.5-1.7,51.7-2.6c10.5-0.6,20.9-1.9,31.4-2.2c3.2-0.1,6.3-1.7,9.6-0.9
		c-4.5,6.5-10.3,8.8-18.5,9c-15.5,0.3-31.1,0.1-46.6,0.9c-7.9,0.4-15.8,0.4-23.7,0.8C321.3,461.1,319.6,460,321.4,456z"/>
	<path class="st2" d="M625.2,493.2c3.8,0,7.6,0,11.4,0c0.4,0.3,0.7,0.6,1.1,0.9c5.1,12.2,10.6,24.1,21.9,32.2c1,0.7,1.7,1.9,2.6,2.8
		c-4.6-0.3-9.1-0.6-13.7-0.9c-5-2.2-7.6-7-11-10.8c-5.1-5.7-9.1-12.3-12.1-19.3C624.7,496.6,623.5,494.9,625.2,493.2z"/>
	<path class="st5" d="M625.2,493.2c2,9.2,7.4,16.4,13.1,23.5c3.2,4,6.7,7.7,10.1,11.5c-4.2-0.3-8.4-0.7-12.7-1
		c-7.2-7.8-14.8-15.2-19-25.2c-1.2-2.9-2.4-5.9-3.7-8.8c0,0,0.3-0.1,0.3-0.1c3.8-2.1,7.7-2.1,11.5,0L625.2,493.2z"/>
	<path class="st3" d="M424.8,415c6.2-2.9,13.1-3.6,19.6-3.6c17.2,0,34.4-1.8,51.6-1.2c3.8,0.1,3.8,0.1,5.3,3.5
		c-9.5,1.8-19.2,1.5-28.8,2.3c-12.8,1.1-25.8,1.3-38.6,2.9c-1.1,0.1-2.3,0-3.4-0.1C428.6,417.6,425.2,418.6,424.8,415z"/>
	<path class="st6" d="M659.2,381.4c-0.6,3.3-1,6.7-5.9,7.2c0-1.5-0.1-2.6,0-3.7c0.3-2.4-0.7-4.7-2.9-4.8c-2.2,0-2.8,2.6-3,4.7
		c-0.1,1.8,0,3.5,0,5.4c-4.6-1-7.3-3.7-8.4-8.2c1.8,0,3.3-1.5,5.4-1.3c2.3,0.3,4.1-1.4,3.8-3.3c-0.3-1.8-2.3-2.8-4.6-2.6
		c-6.4,0.6-6.3,0.5-4.9-6.2c0.9-4.6,2.9-8.2,7.8-10.3c0,3.6,0,6.8,0,10c0,2.4,0.6,5.1,2.9,5.3c2.6,0.2,2.3-3.1,2.8-4.8
		c0.6-2.4,0.2-5.2,0.2-7.8c0-0.6-0.3-1.3,0.6-1.6c0.8-0.3,1.2,0.2,1.6,0.7c2.5,3.2,4,6.7,4.6,10.7c0.3,1.7-0.5,2.1-2.2,2.2
		c-1.8,0.2-4.2,0.6-4.5,2.8c-0.3,2.5,2.6,1.8,3.9,2.6C657.7,379.3,659.7,378.9,659.2,381.4z"/>
	<path class="st0" d="M396.4,548.9c-3.6,2-7.5,2.8-11.5,2.8c-7.5,0-15-0.2-22.4,0c-13.2,0.4-26.4,1.4-39.2,5
		c-2.7,0.8-5.6,1.5-7.8,3.7c-2.2-2.5-0.4-4.1,1.3-5.6c3.9-3.3,8.3-5.7,13.4-6c14.6-1,29.3-1.9,44-0.2
		C381.4,549.5,388.9,548.9,396.4,548.9z"/>
	<path class="st0" d="M542.1,398.6c-4.6-3.6-8.4-8-11.7-12.8c-0.8-1.2-1.7-2.4-3-3c-3-4.4-5-9.2-7.3-14.1c9.4-1.5,12.1,0,16.7,8.3
		c2.6,4.6,5,9.3,7.2,14.1C545.3,394.3,544.7,396.6,542.1,398.6z"/>
	<path class="st4" d="M401.4,543c6.7-8.1,12.5-16.8,14.5-27.4c0.6,8-0.7,15.7-3.7,23.1C409.7,544.7,408,545.3,401.4,543z"/>
	<path class="st4" d="M376.6,465.8c1.3,0.7,3.9-1.2,4.3,1.1c0.4,2.2-2.1,3.2-3.9,3.6c-5,1.2-10,2.1-15.1,3.1c-1,0.2-2.5,0.5-3.1-0.6
		c-0.6-1.1,0.4-2.2,1-3c1.1-1.4,2.1-2.9,4.1-3.1C368.2,466.5,372.3,466.1,376.6,465.8z"/>
	<path class="st1" d="M385.7,474.6c5-0.5,9.8-1.5,14.5-3.2c5.1-1.9,10.4-1.8,15.8-1.6c-1.4,2-3.5,0.6-5.3,1.1
		c-5.2,1.3-10,3.4-14.1,7C393,481,387.9,479.4,385.7,474.6z"/>
	<path class="st4" d="M406.3,465c-1.9,2.1-4.8,2.5-7.1,2.5c-5.5,0.1-9.9,2.3-14.2,5.2c0.1-5,1.7-7,6.5-6.8
		C396.4,466.2,401.3,464.9,406.3,465z"/>
	<path class="st1" d="M424.8,415c1.9,1.3,3.8,2.5,5.7,3.8c-4.7,0.3-9.3,0.7-14.9,1.1C418.8,417.2,421.6,415.8,424.8,415z"/>
	<path class="st7" d="M652.3,413.2c-0.8,2.5-4,2.5-5,4.7c-0.4,0.4-0.8,0.7-1.3,0.8c-2.6,0-5.2,0-7.3-2c0.7-0.9,1.3-1.7,2-2.6
		C644.5,413.8,648.5,414.6,652.3,413.2z"/>
	<path class="st8" d="M619.1,439.6c-12.2,2.1-23.2-1.6-33.8-7.2c-2.7-1.4-5.3-3.2-5.1-6.4c0.2-3.3,2.8-5.3,6-6.1
		c3.2-0.8,6.5-2,9.8-1.9c13.9,0.4,27.7-2,41.6-0.9c0.3,1.1-0.2,2-0.9,2.6c-6.4,5.9-10.8,13.3-16.4,19.8
		C620,439.8,619.6,439.8,619.1,439.6z"/>
	<path class="st7" d="M619.1,439.6c0.3-0.1,0.6-0.2,0.9-0.3c3.7-1.8,7.4-3.5,11.6-1.8c-3.6,7-7.1,14.1-8.6,21.9
		c-2.2,11.4-0.7,22.5,1.8,33.7c-3.8,0-7.7,0-11.5,0c-1-6.3-2.8-12.5-2.9-18.8c-0.2-10.2,2.4-20.1,6.5-29.5
		C617.8,443.1,618.4,441.4,619.1,439.6z"/>
	<path class="st8" d="M349,445.4c-2-0.6-5.3,1.2-5.8-1.8c-0.4-2.2,2.3-3.5,4.4-4.5c10.8-5.5,22.5-7.8,34.4-9.4
		c5.9-0.8,11.7-2,17.7-2c1.3,0,2.8-0.1,3.4,1.3c0.7,1.8-1,2.6-2.1,3.4c-9.6,6.4-20.6,9.1-31.8,10.9
		C362.4,444.3,355.7,444.7,349,445.4z"/>
	<path class="st9" d="M631.7,437.5c-3.9,0.2-7.6,2.2-11.6,1.8c4.7-8.3,11.1-15.3,17.6-22.2c0.3-0.1,0.7-0.2,1-0.3
		c2.6,0.4,5.2,0.9,7.9,1.3c-0.1,3.5-3.2,5-4.9,7.5c-2.5,3.9-5.7,7.3-8.9,10.8C632.4,436.7,632.1,437.1,631.7,437.5z"/>
	<path class="st10" d="M380.8,504.5c9-9,17.8-17,27.5-24c4.8-3.5,10-1.5,15-0.7c1.3,0.2,2.5,0.7,4.5,1.3c-7.7,1.7-14.5,3.7-20,8.4
		c-3.8,3.2-7.9,6.1-12,9C391.5,501.6,387.1,504,380.8,504.5z"/>
	<path class="st10" d="M364.1,520.6c-3,3.6-5.2,6.4-7.4,9c-2.3,2.7-2.6,4.7,1.6,5.6c5,1.2,9.9,2.6,14.7,4.8c-10.2,0-20.4,0-30.6,0
		c-0.8,0-1.8,0.1-2-0.8c-0.3-1.1,0.7-1.7,1.3-2.4c5.1-5,11-9,16.6-13.2C359.6,522.6,360.6,520.9,364.1,520.6z"/>
	<path d="M377.9,509.9c0.9-2.5,3.6-1.6,5-1.8c5.5-0.9,11.2-1,16.8-1.2c3.8-0.2,4.4,1.9,3.1,5c-3,7.2-9.8,10.7-15.2,15.5
		c-0.7,0.6-1.5,1.1-2.7,2c0.9-4.1,4.9-5.6,5.9-8.9c1.2-2.4,4.9-4.6,3.8-6.7c-1.2-2.3-5.2-1.8-8.1-1.8
		C383.3,512,380.5,511.2,377.9,509.9z"/>
	<path class="st3" d="M377.9,509.9c5.8,0.6,11.7,1.2,17.5,1.8c2.6,0.3,2.5,1.7,1.2,3.2c-1.8,2-3.9,3.7-5.9,5.6
		c1.4-5.2,0.6-6.3-5-6.8C382.6,513.3,379.7,512.8,377.9,509.9z"/>
	<path class="st10" d="M567.2,470.7c6,0,12-0.1,18.1,0c1.5,0,3.9-0.9,4.2,1.1c0.3,2.1-0.3,4.5-2.7,5.7c-1.3,0.7-2.7,1-4.2,0.9
		c-11.7-0.3-23.3-0.7-35-1c-2.4-0.1-3.6-1-3.6-3.5c0-2.6,1.4-3.4,3.7-3.4C554.2,470.7,560.7,470.7,567.2,470.7z"/>
	<path class="st2" d="M404.4,394.4c-3.6-2.2-6.1-5.5-8.9-8.5c4.6-3.4,10.2-2,15.3-2.9c3.3-0.6,6.7-0.4,10-1
		c14.7-0.4,29.5-0.7,44.2-1.1c3.1-0.1,5.7,0.5,8,2.8c1.8,1.9,4.2,2.2,6.7,2.2c8.8-0.1,17.6,0,26.3,0c1.5,0,3.3,0,3.3,1.9
		c0,2-1.8,2-3.3,1.9c-13.5-0.6-26.9,1.9-40.3,0.9c-4.5-1.2-9.1-0.2-13.5,0.3c-13.2,1.6-26.5,0.9-39.8,2.2
		C409.7,393.3,406.9,393.1,404.4,394.4z"/>
	<path class="st8" d="M424.5,373.1c10.4-0.7,20.8-1.4,31.2-2c15.6-0.8,31.3-2,47-2c6.1,0,10.8,2.5,13.5,8.1
		C485.8,372.3,455.1,374.7,424.5,373.1z"/>
	<path d="M404.4,394.4c0.1-2.8,2.1-2.8,4.1-2.8c12.4-0.1,24.8-1.3,37.3-1.1c5.1,0.1,10.2-1.2,15.4-0.8c1.5,0.1,3.3-0.6,4.6,0.8
		c-12,1.3-24.1,2.9-36.1,3.8c-7.3,0.6-14.7,1.8-22.1,1.2C406.3,395.4,405.3,395,404.4,394.4z"/>
	<path d="M420.8,382c-5.4,2.4-11.3,1.6-16.8,2.8c-2.8,0.6-5.7,0.8-8.5,1.2c-2.7-1.9-1.4-3,0.9-3C404.5,383,412.6,381,420.8,382z"/>
	<path d="M703.2,461.2c0,17.2-3.5,32.3-11.6,46.1c-2.9,4.9-5.8,10.9-12,10.9c-6.6,0-9.8-6.1-12.6-11.5c-4.6-8.8-6.3-18.5-7.9-28.2
		c-2.3-14.4,1-27.9,7.3-40.6c3.3-6.5,7.3-12.9,14.8-16c4.1-1.7,7.3-1.1,10.6,1.8c6.7,5.8,9.4,13.6,10,21.8
		C702.4,451.2,704.1,456.8,703.2,461.2z"/>
	<path d="M645.4,492.1c-1.3-6.5-3-13-3.6-19.6c-0.8-8.6,1.8-16.7,4.9-24.6c3.1-7.9,8.1-14.8,13.4-21.3c2.8-3.5,6.4-6.6,10.7-8.5
		c-0.6,3.4-3.6,5.2-5.4,7.7c-6.5,9.1-12.9,18.3-15.8,29.1c-4.1,15.2-0.9,30,5.3,44c3.8,8.5,7.5,17.2,14.6,23.8
		c0.5,0.5,0.7,1.4,1,2.3C664,521,657.4,517.8,645.4,492.1z"/>
	<path class="st8" d="M632.8,436.4c2.3-6.1,7.6-10.1,11.2-15.4c0.7-1.1,1.7-1.9,2.6-2.9c0.2-0.1,0.5-0.2,0.8-0.1
		c2.6,3.6,0.5,7.1-1.4,9.6C642.6,431.7,638.4,435.3,632.8,436.4z"/>
</g>
</svg>
