<?xml version="1.0" encoding="utf-8"?>
<!-- Generator: Adobe Illustrator 23.0.1, SVG Export Plug-In . SVG Version: 6.00 Build 0)  -->
<svg version="1.1" id="Layer_4" xmlns="http://www.w3.org/2000/svg" xmlns:xlink="http://www.w3.org/1999/xlink" x="0px" y="0px"
	 viewBox="0 0 1000 1000" style="enable-background:new 0 0 1000 1000;" xml:space="preserve">
<style type="text/css">
	.st0{fill:#A76800;}
	.st1{fill:#5F4200;}
	.st2{fill:#352000;}
	.st3{fill:#FDAB5D;}
	.st4{fill:#302825;}
	.st5{fill:#5B4B43;}
	.st6{fill:#967B67;}
</style>
<g>
	<path d="M725.7,520.5c-8-0.6-17.7,0.8-27.4-0.9c-4.5-0.8-8.3-3.1-12-5.2c-3.9-2.2-7.8-1.5-11.7-1.7c-2.2-0.1-2.4,2-2.6,3.3
		c-0.8,5.5-3.1,10-7.1,14.1c-3.5,3.6-7.7,5-12.4,5c-29.8,0.1-59.6,0.7-89.3-0.2c-24.2-0.7-48.4-2-72-8.5c-11-3.1-21.6,0.7-32.2,3.3
		c-1.9,0.5-2.3,2.2-3,3.8c-3.2,6.7-8.3,11.9-14.9,14.8c-5.6,2.5-9.2,6.3-12.4,11.4c-7.6,12.2-18.1,21.2-32,25.5
		c-6.8,2.1-13.9,3.2-20.8-0.8c-5.6-3.2-7.1-9.3-3.6-14.8c4.3-6.7,8.4-13.6,12.7-20.4c0.4-0.7,0.9-1.3,0.8-2.2c-0.1-0.6-9.2-9-9.8-9
		c-15.9,0.4-31.3-2.7-46.4-7.1c-5.7-1.7-11.7-2.2-17.4-2.4c-9-0.3-18-1.3-27.1-1.3c-13.6,0-27.2-0.3-40.7-1.2
		c-10.6-0.7-21.4,0.8-32-2.4c-5.2-1.6-9.3-6.2-10-10.3c-1-5.5,0.5-10.4,5.1-14.1c5.6-4.5,12.5-5.2,19.1-5.9
		c15-1.5,30.1-1.7,45.1-3.2c17.8-1.8,35.8-2.8,53.1-7.9c10.8-3.2,21.2-7.8,32.3-9.8c7.9-1.5,16-2.4,23.9-3.7
		c18.5-3,37.2-2.7,55.9-3.2c6.9-0.2,13.8-0.5,20.8-0.7c3.8-0.1,7.4,0,11-2.1c3.6-2.2,8.5-1.6,12.3-0.5c5.3,1.4,9.7-0.4,14.4-1.4
		c4.7-1.1,9.2-1.1,13.7-0.1c5.8,1.3,11.6-0.4,17.2-0.9c9.6-0.9,19.1-2.4,28.6-4.5c5.5-1.2,10.8-3.1,16.3-4.5
		c8.6-2.3,17.4-3,26.2-4.4c7.4-1.2,14.8-1.1,22.2-0.8c10.6,0.5,21.3,1.7,29,10.4c1,1.1,2.1,1.2,3.5,1.2c5.4,0,10.8-0.3,16.1,0.1
		c3.2,0.2,4.6-2.2,6.4-3.6c7.9-6.1,16.8-8.2,26.6-8.2c11.7,0,23.2,0.9,34.6,3.9c10.8,2.8,19.7,12.9,21,24.1
		c0.7,5.7,1.4,11.3,0.1,17.1c-0.6,2.8,2.7,4.1,4.4,5.9c4.5,4.8,5.6,11.9,2.2,17.5c-3,5-8,6.6-13.4,6.8
		C742.6,520.7,735,520.5,725.7,520.5z"/>
	<path class="st0" d="M459,481.4c2.1,6.2,4.8,11.9,12.1,13.4c2.4,0.5,4.8,0.8,7.2,0.6c8.8-0.5,15.3,6.1,23.6,7.1
		c3.2,0.4,7.1,1.6,9.5-0.1c8-5.9,16.1-1.4,24.1-1c8.8,0.4,17.4,2.3,26.2,3.5c5.2,0.7,10.4,1.5,15.6,2.6c-3.6,0.2-7.3,0.8-10.9-0.1
		c-1.1-0.3-2.2-0.5-3.3-0.5c-21.1,0.4-42.2-0.8-63.2-1.3c-16.9-0.4-33.7-0.9-50.6-0.5c-16.9,0.5-33.7,0.3-50.6,0.9
		c-12.6,0.5-25.1,1.3-37.7,2c-13.4,0.7-26.8,1.3-40.2,1.9c-17,0.7-33.9,1.1-50.9,2.1c-11.7,0.7-23.3,0.3-35,0.8
		c-1.2,0-2.7-0.6-3.5,1c-5.4,2.7-11.1,2-16.7,1.1c-2.2-0.5-3.8-1.5-3.7-4.1c1.5-3,4.3-3.8,7.3-4.3c12.4-1.9,24.8-3.1,37.3-3.9
		c31.4-2.1,62.9-3.9,93.5-12.4c24.3-6.8,49-10.1,74.2-9.1c9.8,0.4,19.5-0.9,29.2-1C454.7,480,457.1,479.8,459,481.4z"/>
	<path class="st1" d="M214.8,514.8c5.6-0.4,11.1-0.7,16.7-1.1c26.3,0,52.7-0.2,79,0.1c15.9,0.2,31.8-0.7,47.7-1.2
		c14.7-0.5,29.4-0.9,44.1-1.9c46.9-3.2,93.8-1.2,140.7-1.7c1.7,0.8,3.5,0.4,5.3,0.4c16.4,0,32.8,0.2,49.2,1.6
		c11.1,0.9,22.2,2.5,33.4,2.3c4.5-0.1,9.1-0.5,13.5,0.8c2,0.6,4.5,1.2,4.4,3.8c-0.1,2.5-2.4,3.3-4.4,4c-2.3,0.8-4.7,1.2-7.2,1.2
		c-17.1,0.4-34.1-0.6-51.2-1.6c-8.8-0.5-17.5-0.6-26.3-1.1c-16.9-0.8-33.7-2.2-50.6-3.9c-18.4-1.8-36.5-0.4-54.7,3
		c-14.7,2.7-29.5,5-44.4,6.4c-24.7,2.3-49.4,2-73.5-5c-5.5-1.6-11.2-1.6-16.9-1.9c-23.5-1.3-47.1-2.1-70.6-1.7
		c-0.3,0-0.6,0.2-0.9,0.4C236.8,517.6,225.6,518.2,214.8,514.8z"/>
	<path class="st0" d="M521.6,483.3c-0.6-2.6-1.3-5.2-1.9-7.8c1.3-1.2,2.9-1.3,4.5-1.3c5.8,0,11.7-0.9,17.5-0.8
		c15.9,0.3,30.9-3.6,45.8-8.1c17.3-5.3,34.6-4.9,51.7,1c2.9,1,5.9,2.1,7.2,5.3c1.2,1.4,1.1,3.2,1.2,4.9c0.8,7.1-0.9,10.9-7.1,13.9
		c-10.3,5-21.4,4.9-32.5,3.8c-19.9-1.8-39.7-4.2-59.6-5.6c-7.1-0.5-14.3-0.2-21.3-1.8C524.8,486.3,522.6,485.8,521.6,483.3z"/>
	<path class="st2" d="M248,517.5c1.5-1.5,3.4-0.9,5.1-0.9c16.1,0,32.2-0.5,48.3,0.1c17.2,0.7,34.5,1.5,51.4,5.8
		c15.2,3.8,30.7,2.9,46.3,2.2c17.4-0.8,34.3-4.2,51.4-6.2c11-1.3,22-3.4,33-4.6c8.9-1,17.8,0.7,26.6,1.3c5.1,0.4,10.3,0.7,15.4,1.1
		c11.9,0.9,23.8,2,35.8,2.4c15,0.5,30.1,1,45.1,2c10.1,0.7,20.1,0.3,30.1,0.7c2,0.1,3.8-0.2,5.7-0.8c2.1-0.7,5.4-0.5,5.2-3.2
		c-0.2-2.3-3.6-2.3-5.7-2.8c-9.4-2-19-1.5-28.5-1.8c-14.9-0.6-29.7-2.2-44.6-2.5c-7.1-0.1-14.2-0.4-21.4-0.7
		c-1.6-0.1-3.3,0.5-4.6-0.9c15.1,0,30.3-0.5,45.4,0.1c10.6,0.4,21.1,2.4,31.7,3.6c8.2,0.9,16.2-0.4,24.1-2.1
		c5.8-1.2,11.7-0.3,17.5-0.6c1.9-0.1,2.6,0.8,2,2.8c-0.9,3.1-1.6,6.3-3.1,9.2c-1.6,3.1-4,4.6-7.4,4.6c-28.8,0-57.6,0.5-86.4-0.2
		c-12.9-0.3-25.9-0.2-38.8-1.8c-9.6-1.2-19.2-2.7-28.6-5c-12.9-3.2-25.5-2.6-38.2,0.6c-11.1,2.8-22.3,5.1-33.6,7.2
		c-4.1,0.8-8.4,1.1-12.5,1c-13-0.1-25.9,2-38.9,1.1c-12.7-0.9-25.5-0.7-37.6-6.2c-6.8-3.1-14.6-2.7-21.9-3.3
		c-10-0.9-20.1-0.3-30.1-1.2C273.6,517.2,260.8,517.9,248,517.5z"/>
	<path class="st1" d="M521.6,483.3c3.3,2.5,7.4,2.7,11.1,2.8c11,0.3,21.9,1.3,32.8,2.2c14.3,1.2,28.4,3.4,42.7,4.5
		c10.5,0.8,21,0.9,31-3.4c5.8-2.5,8.3-6.9,8.3-13c1.8,8.6,0.1,16.9-3.3,24.8c-1.2,2.8-4.5,3.1-7.1,3.5c-12.4,2.1-24.7,0.9-37-1.1
		c-9.2-1.5-18.5-2.5-27.7-3.7c-12.3-1.6-24.6-3-36.8-4.6c-4.2-0.5-8.4,0.1-12.5-1.1c-1.6-0.5-2.5-0.4-2-2.7
		C521.7,488.9,521.5,486.1,521.6,483.3z"/>
	<path class="st3" d="M459,481.4c-19,0.7-37.9,0.8-56.9,1.2c-19.5,0.4-38.4,5.1-57.3,10c-13.7,3.6-27.5,6-41.6,7.5
		c-16.8,1.8-33.7,2.8-50.6,3.9c-11.7,0.8-23.3,2.5-35,3.8c-2.5,0.3-4.4,1.9-6.6,2.8c-0.5-3.7,1.6-5.8,4.8-6.7c3.2-0.9,6.5-2,9.7-1.9
		c5.5,0.2,10.9-1,16.4-1.2c16.3-0.8,32.6-1.5,48.9-3.6c11.8-1.5,23.7-2.8,35.4-5c7.8-1.5,14.9-5.2,22.4-7.4
		c13.5-3.8,27.1-6.4,41.1-7.4c15.5-1.2,30.9-1.6,46.4-2c5.3-0.2,10.6-0.6,15.9-0.7C459,474.5,459,474.6,459,481.4z"/>
	<path class="st0" d="M687.5,472.7c-1-1.1-2-2.3-2-3.9c-0.1-3,2.4-3.7,4.4-4.5c12-5.2,24.5-4.6,36.9-1.8c7.4,1.7,13.9,5.3,18.4,11.9
		c2.3,3.4,2.6,7.3,3.7,11c0.4,1.2-0.4,2-1,2.9c-1.4,1.4-3.2,1.5-5,1.2c-12.9-2.2-26.1-2.7-39.1-4.6
		C696.2,483.7,689.7,481.1,687.5,472.7z"/>
	<path class="st3" d="M646.3,471.6c-7.1-4.9-15.3-6.3-23.6-7.8c-17.6-3.3-33.7,2.9-50.2,7.1c-9,2.3-18.2,3.9-27.7,3.9
		c-8.4,0-16.8,1.1-25.2,0.7c0.2-2-1.3-3.6-1.6-5.6c11.8-0.8,23.5-1.6,35-4.1c7.6-1.6,14.6-4.8,22.1-6.8c8.5-2.3,17-3.8,25.8-4.1
		c6.1-0.2,12.2-1.1,18.3-0.7c8.8,0.6,17.5,1.9,23.6,9.4C644.7,465.9,646.6,468.3,646.3,471.6z"/>
	<path class="st4" d="M750.9,498.1c3.9,2.1,6,5.4,4.7,9.6c-1.3,4.1-5.3,4-9,4c-9.7-0.1-19.5-0.6-29.2,0.1c-11.9,1-22.3-2.5-32.5-7.8
		c-6.2-3.2-12.5-5.9-19-8.9c-0.1,2.7,3,2.4,3.4,4.6c-3.7,0.2-7,0.2-7.2-4.7c1.4-4,2.8-4.7,7.3-3.2c6.8,2.3,13.4,4.9,20.2,7.2
		c19.1,6.6,38,5,57-0.1C748,498.7,749.4,498.3,750.9,498.1z"/>
	<path class="st5" d="M750.9,498.1c-5.8,4.7-13,4.7-19.7,5.6c-11.2,1.5-22.6,2.1-33.7-0.9c-9.7-2.6-19.1-6-28.4-9.8
		c-3.1-1.3-5.3-1-6.9,2c-1.3-0.7-0.9-1.9-0.8-3.1c1.1-7.2,3.8-7.8,8.2-8.7c3.7-0.8,7.5-0.4,9.4,4c-0.5,0.5-0.9,1.1-1.4,1.6
		c0.5,0.1,0.9,0.3,1.4,0.4c12.3,1.5,24.7,2.1,37,3.4c9.1,1,18.3,1.6,27.3,3.3C746,495.9,748.5,496.8,750.9,498.1z"/>
	<path class="st3" d="M748.9,485.3c-2.9-3.1-2.7-7.7-5.4-11.1c-5.4-6.8-12.5-9.7-20.6-11.3c-8.3-1.6-16.7-1.5-25,0
		c-4.6,0.8-9,2.3-12.4,5.9c-2.9-1.7-4.4-5-7.6-6.4c5.7-6.4,13.5-7.6,21.2-8.1c10.5-0.7,21.1-0.1,31.4,2.8c9.1,2.6,16,7.7,17.5,17.8
		C748.5,478.3,749.8,481.7,748.9,485.3z"/>
	<path class="st4" d="M430.7,541.1c-12.5,3-24.9,2.7-37.2-0.7c-2.7-0.7-6.4-2.1-6.1-5.3c0.2-2,4.2-1.3,6.4-1.7
		c5.7-0.9,11.6-0.7,17.4-1c11.2-0.6,22.2-1.5,32.9-4.9c1.2-0.4,2.9-0.8,3.7-0.2c1,0.7-0.3,2-0.7,3c-3.8,2.2-8.2,1.9-12.2,3
		c-1.1,0.3-2.2,0.5-3.3,1c-1.9,0.8-4.6,1.1-5,3.3C426.3,540.2,429.9,539.3,430.7,541.1z"/>
	<path class="st4" d="M380.9,576.2c-2.1-1.8-0.4-3.4,0.5-4.7c5.3-7.5,10.5-15.1,14.5-23.5c0.7-1.4,1.4-2.2,3.4-1.8
		c6.5,1.3,13.1,1.9,19.7,1.7c-11.2,7.2-17.3,20.1-29.7,26C386.6,575.3,384.2,577.5,380.9,576.2z"/>
	<path class="st2" d="M681.6,476.5c0.3,1,1.6,2,0.7,3.1c-0.8,0.9-1.7-0.3-2.6-0.5c-5.8-1.9-11.7-2.7-17.3,0.4
		c-3.4,1.9-5.2,4.6-5.1,8.7c0.2,5.6-1.3,11.6,6,15.5c-4.7,0-8.2,0-11.9,0c1-4,1.9-8,3-12c2.1-7.1,0-14-0.9-21c1-1.1,2.3-1.2,3.6-1.2
		c6.3,0,12.6,0.7,18.7,2.4C678.2,472.5,680.4,473.9,681.6,476.5z"/>
	<path class="st5" d="M380.9,576.2c10.6-3.5,19.1-10.1,25.8-18.8c3.4-4.4,6.9-8,12.3-9.5c2-0.1,4,0,6.1-1c0,2.5-1.4,3.8-3.2,4.8
		c-7.4,5.4-12.3,13.6-20.1,18.6c-3.9,2.5-7.8,5.1-12.1,6.8C386.5,578.9,383.5,578.7,380.9,576.2z"/>
	<path class="st0" d="M467.8,481.5c-1.3-1.1-0.9-2.6-0.8-4c1.4-4.8,5.4-5.4,9.3-5c6.4,0.5,12.8,1.7,18.9,4.1c1.5,1.3,2,3,2,4.8
		c1,3.5-0.6,5-3.9,4.8c-5-0.4-10.1-0.8-14.5-3.5c-1.7-1.3-2.3-3.1-2.2-6.1c0,0.3-1,1.1-0.3,1.1c0.1,0,0.1,0.2,0.1,0.5
		c0.1,0.7-0.1,1.2-0.3,1.8C473.6,482.2,471.3,485.2,467.8,481.5z"/>
	<path class="st4" d="M513.7,477.5c1.8,3.7,2.2,7.7,1.9,11.7c-0.7,7.3-6.1,10.4-14.4,8.5c-3.4-0.8-5.2-1.5-1.6-4.8
		c2.4-2.2,2.4-5.5,2.5-8.6c3,1.5,2.2,3.6,1.4,5.7c1.7-2.5,2.1-5.7,3.1-8.7C508,477.2,509.6,476.3,513.7,477.5z"/>
	<path class="st1" d="M467.8,481.5c3.3,2.1,5.4-0.4,7.7-2c1.8,1.4,1.5,3.7,2.3,5.4c0.1,0.7,1,0.1,0.3,0.2c-0.1,0-0.2-0.1-0.2-0.3
		c-0.3-1.3-0.4-2.5,0.8-3.4c4.8,2.8,10.2,2.6,15.4,3.7c2.8,0.6,3-1.8,3.1-3.7c2.8,5.8-0.1,12.3-9.1,10.7c-3.8-0.7-7.5-1.3-11.3-1.8
		C471.2,489.6,468.8,487.3,467.8,481.5z"/>
	<path class="st1" d="M687.5,472.7c4,7.9,11.2,9.8,19.4,11.3c13.6,2.5,27.4,3.1,41.1,4.2c0.2,2,0.6,3.9-2.7,3.1
		c-11-2.7-22.2-3.7-33.4-4.8c-6.1-0.6-12.3,0.1-18.4-1c-2.7-0.5-3.8-0.9-4.1-3.9C688.9,478.6,687.4,475.8,687.5,472.7z"/>
	<path class="st1" d="M681.6,476.5c-6.8-5.3-15-4.9-22.8-5.7c-1.8-0.2-3.5-0.1-5.3-0.1c-0.9-1.4-1.4-2.9-1.2-4.8
		c6.7,0,13.3-0.1,20,0C677.1,466,680.6,470.1,681.6,476.5z"/>
	<path class="st6" d="M743.2,496.1c-15,0.1-29.7-2.2-44.6-3.8c-6.7-0.7-13.4-0.8-19.8-2.9c17,0.4,33.9,0.8,50.7,3.6
		C734.2,493.8,739,493.5,743.2,496.1z"/>
	<path class="st5" d="M513.7,477.5c-3.7-0.3-5.5,1.2-6.1,5c-0.6,3.2-1.1,6.6-4,9.1c-1.5-2.4,0.4-5.3-1.5-7.3
		c0.2-3.1-1.5-5.8-2.2-8.6c0.5-4.2,3.6-4.4,6.8-4.2c2.1,0.2,4,1.2,5.9,2C513.4,474.8,513.9,476.1,513.7,477.5z"/>
	<path class="st6" d="M389.6,577.2c5.2-4.1,10.9-7.4,16.2-11.3c3.6-2.7,5.6-6.6,8.9-9.5c2.2-1.9,4.2-4,7.2-4.6
		c-3.6,8-10.2,13.3-16.8,18.6C400.6,574,395.7,576.9,389.6,577.2z"/>
	<path class="st5" d="M430.7,541.1c-1-0.1-2,0.1-2.9-0.2c-1.5-0.5-3.5-0.8-3.6-2.6c-0.2-1.8,1.6-2.6,3-3.3c6.2-3.2,13-4.2,19.9-4.6
		c-0.7,1.4-1,3.2-2.8,3.8c-2.9,1.9-7.6,1.2-8.8,5.7C434,540.3,432.4,540.7,430.7,541.1z"/>
	<path class="st3" d="M495.1,476.5c-5.2,0.1-10.1-1.8-15.1-2.5c-4.8-0.7-9.7-1.3-13.1,3.5c-0.5-5,3.3-6.6,6.8-6.6
		c6.6,0.1,13.1,1.4,19.4,3.7C494.1,474.9,494.8,475.6,495.1,476.5z"/>
	<path class="st6" d="M678.8,487.4c-7.6-5.3-13.6-3.8-17.5,4.7c-0.5-3.7-0.4-7.5,3.3-9.2c4.2-2,9-2.5,13.3-0.2
		C679.1,483.3,682.7,485,678.8,487.4z"/>
	<path class="st6" d="M512.6,473.6c-1.6,0.2-3.2-0.3-4.7-0.7c-3.1-0.7-6.1-0.4-7.9,2.8c-1.7-1.7-5.2-3.3-4.2-5.1
		c1.3-2.4,5.1-2.4,7.9-1.7C506.8,469.7,510.4,470.4,512.6,473.6z"/>
	<path class="st6" d="M435.6,539.9c-1.8-2.4-0.2-3.6,1.7-4.5c2.2-1,4.6-1.5,7.1-1.2C442.2,537.2,439.3,539.2,435.6,539.9z"/>
	<path d="M735.4,499.1c-15.7,1.2-31.3,1.7-46-5.1C704.7,495.7,720.1,497.4,735.4,499.1z"/>
	<path d="M667.2,491.1c0.9-2,2.6-1.9,3.9-2.5C670.5,490.4,669.1,490.6,667.2,491.1z"/>
	<path d="M478.6,481.4c-0.8,2.1,0.9,4,0.6,6.6c-2.8-2.5-3.7-5.4-3.8-8.6c0.1-1.1,0.2-2.2,0.3-3.4
		C477.8,477.4,477.2,479.9,478.6,481.4z"/>
</g>
</svg>
