<?xml version="1.0" encoding="utf-8"?>
<!-- Generator: Adobe Illustrator 23.0.1, SVG Export Plug-In . SVG Version: 6.00 Build 0)  -->
<svg version="1.1" id="Layer_4" xmlns="http://www.w3.org/2000/svg" xmlns:xlink="http://www.w3.org/1999/xlink" x="0px" y="0px"
	 viewBox="0 0 1000 1000" style="enable-background:new 0 0 1000 1000;" xml:space="preserve">
<style type="text/css">
	.st0{fill:#9A4C14;}
	.st1{fill:#5B4B43;}
	.st2{fill:#4C2502;}
	.st3{fill:#252618;}
	.st4{fill:#231916;}
	.st5{fill:#AD9F66;}
	.st6{fill:#74463C;}
	.st7{fill:#905020;}
	.st8{fill:#F7A320;}
	.st9{fill:#302825;}
	.st10{fill:#DAA442;}
	.st11{fill:none;}
	.st12{fill:#232114;}
	.st13{fill:#A08368;}
	.st14{fill:#432E2B;}
</style>
<g>
	<path d="M617.9,428c-1.5-1.8-1.7-3.1-1.2-5.5c1.8-8.5-1.8-20.6-13.1-22.3c-3.7-0.6-7.4-1.4-11.2-2c-12.8-1.9-24.8-1-34.4,9
		c-1.3,1.3-2.2,1.6-4.4,1.2c-11.2-1.7-22.5-3.1-33.9-3.2c-16.1-0.1-32.1,1.2-48.1,2.8c-9.3,1-16.9,3.9-21.1,12.8
		c-1.4,2.9-3.7,3.8-6.6,4.6c-13.2,3.5-21.2,12.1-24.3,25.5c-0.8,3.6-0.7,7.4-2.8,10.9c-2.6,4.4-3.4,9.3-4.2,14.4
		c-0.8,4.6-0.1,9.4-5.8,13.3c-19,12.9-29.2,31.3-29.3,54.8c0,11,0.5,21.9,2.1,32.7c2,13.1,5.7,19.1,18.9,23.2
		c8.2,2.5,17,2.8,25.5,3.2c7.7,0.4,15.5,0.1,23.2-0.8c9-1.1,17.8-2.2,25.8-6.9c9.6-5.6,12.9-11.9,11-22.6c-0.4-2.2-0.4-4,3-3.9
		c2.9,0.1,5.7,1,8.5,1.1c10.8,0.4,21.5,0,31.9-2.9c15.5-4.4,26.3-15.7,26.7-31c0.3-9.8,6.6-17,17-16.9c5,0.1,9.8,1.6,14.9,1
		c6.8-0.8,13-3,17-8.9c6.7-9.9,8.3-20.2,1.1-30.5c5-3.3,9.8-6.1,13.8-10.8C629,457.9,627.2,439.2,617.9,428z M491.7,540.8
		c3.3-1.9,6-2.8,8-1.1c1.1,0.9-1.2,2.4-2.2,3.2C494.4,545.5,494.3,541.2,491.7,540.8z"/>
	<path class="st0" d="M447.1,526.3c0.7,7.7,1.9,15.3,7.1,21.5c3.9,9.7,8.5,18.8,19.5,22.4c4.3,13.4-2.2,20.7-15.8,18.9
		c-15.1-2-29.6-6.7-44.5-9.4c-0.4-0.1-0.8-0.5-1.2-0.8c-3.5-5.8-2.6-12.3-3.2-18.6c0.3-1.3,1.1-2.3,2.1-3.2
		c7.5-7.4,8.8-18.3,2.3-25.4c-0.5-0.6-0.9-1.4-1.1-2.2c0.9-9,5.7-16,12.1-22c1.1-0.3,2,0.1,2.6,0.9
		C432.7,515.6,439.8,521.1,447.1,526.3z"/>
	<path class="st1" d="M521.6,451.1c-0.4-5.1,1.5-9.4,3.9-13.7c1.4-0.9,3-1.3,4.6-1.3c12.5,0.6,25-1.5,37.5-1c7.1,0.2,7.3,0.4,7,8.5
		c2.9-6.7,6.1-12.2,11.8-15.8c2.6-1.6,5.1-2.6,8.2-2c12.2,0.8,20.6,9.1,21.3,22.6c0.6,10.2-5.3,20.8-17.1,24.2
		c-2.6,0.7-5.3,1.4-8.1,0.9c-9.2-0.3-14-6.2-16.8-14c-1.8-4.8-4.6-6.3-9.5-6.1c-12.7,0.6-25.3-1.5-38-0.9
		C524.8,452.6,522.9,452.5,521.6,451.1z"/>
	<path class="st2" d="M424.9,507.7c-5.1,6.6-10.1,13.2-11.9,21.7c-1.1,0.8-2.1,0.4-3.2,0.1c-6.5-1.5-12,1.2-14.5,7.3
		c-2.1,5.1-1.8,10.2,0,15.2c1.7,4.6,6,7.3,11,7.2c1.3,0,2.6-0.6,3.7,0.4c0.7,6.5,1.4,13,2.2,19.5c-2.9-0.3-5.7-0.6-8.6-0.9
		c-2.8-0.3-5.9,0.3-7.8,2c-4.6,4-5.3,1.1-5.9-2.7c-2.1-14.7-5.1-29.4-2-44.2c1.8-8.7,5.2-16.8,11.2-23.9
		c5.2-6.2,11.1-11.1,17.7-15.6c1.1-0.7,2.6-3.1,3.2,0.4C421.9,498.6,424.6,502.7,424.9,507.7z"/>
	<path class="st1" d="M501,493.3c2.6-1.2,4-3.1,3.8-6c-0.7-16.4,1.5-32.6,1-49c-0.2-6.8-2.6-9.1-9.3-9.6c-7.4-0.5-14.8-1-22.2-0.9
		c-4.5,0.1-8.9,1.4-13.5,1c-3.5-0.3-2.5-1.4-1-3c1.3-1.1,2.9-1.5,4.5-1.5c9.1,0,18.2-1.6,27.3-1c5.2,0.4,10.4-1,15.6-1
		c6.9,0.1,8.2,1.4,8.3,8.3c-2.1,11.6-3.4,23.4-2.8,35.1c0.8,14.6,1.4,29.3,5.2,43.6c0.5,1.8,0.2,3.1-0.5,4.6
		c-0.6,1.3-1.5,1.7-2.6,0.5c-7-7.8-16.8-7.6-25.9-8.4c-10.6-0.9-21.3,0.2-31.9,1.8c-3.7,0.6-6.1,2.9-7.5,6.2c-1,2.3-1.8,2.4-3.8,0.9
		c-4.5-3.2-8.9-6.5-12.1-11c0.9-1.1,2.2-1.3,3.5-1.3c8.4,0,16.8-0.6,25.2,0.4c9.2,1.1,18.1,0.8,26.3-4.2
		C492.5,496.4,496.9,495,501,493.3z"/>
	<path class="st3" d="M521.6,451.1c15.7,0.4,31.4,0.8,47.1,1c3.1,0,4.6,1,5.5,3.9c2.6,8.6,7.4,15.4,16.8,17.6
		c-16.7-0.7-33.5-0.7-50.2-2.9C530.3,469.2,524.5,463.1,521.6,451.1z"/>
	<path class="st3" d="M501,493.3c-12,8.2-24.4,13.7-39.8,11.2c-9-1.5-18.4-0.4-27.7-0.5c-12.6-13.1-14.6-17.7-8.2-35.6
		c2.3,11.9,10.1,19.1,19.9,24.3c3.6,1.9,7.6,2.5,11.7,2.5C471.7,495.2,486.4,494.3,501,493.3z"/>
	<path class="st4" d="M599.6,495c-1.2,10.5-5.4,15.7-14.5,16.5c-7.8,0.7-15-7.7-14.8-16.6c0.2-9,6.8-16.4,14.7-16.4
		C592.9,478.6,599.5,486.1,599.6,495z"/>
	<path class="st1" d="M502,449c0.3,11.8-1.7,24-1,36.3c0.2,3.1-1.3,5.1-4.6,4.9c-3.2-0.2-4.2-1.7-3.4-5.2c0.9-4-1.5-6.7-5.3-8.2
		c-1.2-0.5-2.5-0.7-3.7-0.9c-1.7-0.3-3.7-0.3-4.1-2.6c-0.5-2.6,2-2.6,3.3-3.5c6.2-3.8,7.1-13.4,1.4-18.7c-1.6-1.5-1.9-2.4-1.2-4.3
		c0.7-2.3,2.3-2.5,4.1-2.4c5.1,0.1,8.9-1.1,8.8-7.5c0-2,1.9-3.9,3.7-3.9c2.5,0,1.9,2.5,1.9,4.2C502,441,502,444.7,502,449z"/>
	<path class="st1" d="M536,512.6c-3.9,0.7-7.6-1.4-11.5-0.9c-1.9,0.2-2.5-1.5-2.8-2.8c-2-9.6-3.4-19.3-3.9-29.1
		c-0.3-6.8-1.8-13.5-1.1-20.3c0.7-7.7,0.7-15.5,2.1-23.1c2.4-13.1,14.3-22,29.1-19.4c1.7,0.3,3.4,0.8,5.3,1.3
		c-1.1,3.3-4,3.8-6.7,4.5c-4.3,1.2-8.7,1.9-12.9,3.8c-20.4,9.4-18.3,33.6-3.5,44.9c1,0.8,2.1,1.4,2.9,2.6c-8,2.4-10.6,8.6-11.3,15.9
		c-0.6,7.2,2.2,12.9,9.2,16c1.2,0.5,2.3,1.2,3.5,1.8C535.4,509.2,536.9,510.4,536,512.6z"/>
	<path class="st3" d="M476.5,472.6c0.5,2.9-0.5,4.2-3.6,4c-5.5-0.3-11,0.5-16.3,1.8c-2.2,0.6-5.2,1.6-5.2,4.5c0,2.9,2.8,4.4,5.2,5.1
		c8.1,2.5,16.5,3,24.9,1.7c3.3-0.5,6.6-1.2,10.7,1.3c-14.8,1.2-28.5,2.7-42.2-0.8c-14.5-3.6-25.3-22-21.3-35.1
		c1.3-4.3,1.6-9,5.8-11.9c1.4,1.5,0.6,3.1,0.2,4.6c-3.5,14.9,4,24.5,19.5,24.8c6.5,0.1,12.9-0.8,19.4-0.5
		C474.6,472.2,475.6,472,476.5,472.6z"/>
	<path class="st5" d="M515.6,430.7c-1.6-2-1-5.8-3.3-6.5c-3.2-0.9-6.9-0.7-10.1-0.1c-2.9,0.6-5.8,0.8-8.7,0.7
		c-11.2-0.6-22.3,1.6-33.5,1c1.1-5.5,5.1-8.1,10.1-8.7c17.9-2,35.8-3.3,53.8-3c1.7,0,3.6-0.7,5.3,1.5
		C522,418.3,519.3,424.8,515.6,430.7z"/>
	<path class="st5" d="M594.7,425.8c-11.1,2.2-15.7,11-19.9,20.2c-1.3-1.5-2.1-2.9-1.6-4.3c2-5.9-1.9-5.1-5.5-5.1
		c-14.1-0.3-28.2,1.9-42.3,0.9c4.8-6.7,12.5-8.3,19.6-9.4c15.6-2.4,31.3-3.4,47.1-3.2C593.2,424.8,594.3,424.5,594.7,425.8z"/>
	<path class="st4" d="M567.3,494c0.3,6,1.8,11.4,6.6,16.1c-2.8,1-5.3,0.9-7.7,0.3c-2.1-0.5-4.1-0.7-6.2-0.7
		c-11.1,0-17.9-8.1-16-19.1c0.3-1.8,0.3-3.9,1.8-5.3c6.3-3.1,12.6-0.6,18.8,0.4c1.5,0.2,1.9,2.1,1.9,3.6
		C566.5,491,566.5,492.5,567.3,494z"/>
	<path class="st1" d="M515,548.6c2.4-5.6,5.6-10.6,5.7-16.6c0-2.2,2.2-2,3.3-1.6c6,1.8,12.3,0.1,18.3,1.8c2,0.5,2.6,1.1,2.7,3.1
		c0.7,10.8-5.5,16.4-16,15C524.6,549.6,520,549.4,515,548.6z"/>
	<path class="st1" d="M497.2,557.5c-21,7.9-47.9-8.3-46-33.2c0.1-1.9,0.7-3.8,1-5.7c1-1.4,1.9-3.1,4.2-1.8c0.8,2.5-0.2,4.8-0.6,7.2
		c-2.1,10.4,2.9,18.1,10.3,24.3c7,5.9,15.2,7.9,24.2,4.2c3.1-1.3,5.5-3.4,7.8-5.7c9.3-5.6,6.9-14.1,5.4-22.3c-0.4-2.3-1-4.7-1.5-7
		c5.3-0.8,9.2,1.7,12.6,7.9c0.1,0.3,0.1,0.6,0.1,0.9c-1.7,2.2-2.5,4.7-3.2,7.5C509.1,543.1,504.9,551.4,497.2,557.5z"/>
	<path class="st2" d="M450.6,592.8c-9.9,2.3-19.8,2.3-29.8,1.2c-6.9-0.7-13.9-0.5-20.5-3.1c-0.4-0.2-1-0.2-1.4-0.4
		c-2-1-4.9-2-4.6-4.3c0.3-2.2,3.2-2.6,5.5-3.3c4.9-1.4,9.5-0.3,14.3,0.8C426.3,586.7,438.3,590.4,450.6,592.8z"/>
	<path class="st3" d="M554.6,516.5c-2.9,4.2-5.8,7.1-8.7,9.7c-3,2.7-7.8,1.3-11.7,0.9c-3.5-0.4-7.1-1-10.6-0.7c-4,0.4-5-2.2-4.8-5
		c0.2-2.7,0.9-6,5-5.8c5.6,0.3,11.3-0.4,16.9,0.7C544.9,517.2,549.4,516.5,554.6,516.5z"/>
	<path class="st3" d="M464.2,515.9c2,6.5,4,12.4,8.6,17.1c2.6,2.6,5.5,4.6,9.1,5.3c4.3,0.8,7.1,3.5,9.6,6.7
		c-6.9,3.6-19.9,1.4-25.5-4.4C460.3,534.8,459.5,525.1,464.2,515.9z"/>
	<path class="st1" d="M476.5,472.6c-8.2,0.4-16.4,1-24.7,1c-10,0-17.8-6.1-19.9-15.2c-1.2-5.4,1.8-10,2.6-15.1
		c1.1-2,3.1-2.8,4.9-3.9c3.3,5.8,8.7,6.5,14.6,6.5c6.2,0,12.3,0,18.5,0c2.1,0,4.3-0.3,6,1.3c-0.3,0.9-1.1,1.1-2,1
		c-7.6-0.6-15.2,1.5-22.8,1c-2.2-0.1-4.1,0.5-6.2,1c-6.5,1.6-9.1,4.3-9,9.6c0.1,5.8,3.7,9.7,9.7,11c7.7,1.6,15.5,0.6,23.3,1
		C473.1,471.8,475,470.9,476.5,472.6z"/>
	<path class="st5" d="M498,546.9c-2.5,5.8-11.7,10.2-19.7,8.7c-13.1-2.4-26-15.8-24.2-29.5c0.4-3.2,1.3-6.3,2-9.4
		c1.2-1.2,2.5-1.1,3.7,0c-5.8,18.4,2.5,30.8,20.2,33.9c5.4,0.9,10.9-1.5,16.1-3.3C496.8,547.1,497.4,547,498,546.9z"/>
	<path class="st3" d="M443.4,456.1c1-2,2.8-2.7,4.8-2.9c8.4-0.7,16.7-1.5,25.1-2c7.5-0.4,8.7,0.4,12.1,7.9c-0.9,0.8-1.9,1.2-3.1,1.2
		c-9.7,0-19.4,2-29.1,0.9C449.4,460.9,444.7,461.4,443.4,456.1z"/>
	<path class="st1" d="M592.7,419.8c-0.3,0.3-0.6,0.9-1,0.9c-11.4,0.5-22.8-0.5-34.4,0.9c4.2-3.6,7.1-8.3,12.1-10.5
		C580,406.1,587.8,409,592.7,419.8z"/>
	<path class="st5" d="M478.4,447.2c-10.8-0.3-21.5,0.8-32.3-0.6c-4.8-0.6-6.3-3.1-6.7-7.2c5.5-5.2,12.6-7.2,19.6-7.5
		c12.1-0.5,24.4-3.1,36.7,0.2c-3.7,2.7-7.8,1.7-11.5,1.3c-9.7-1.2-19.3-1.4-28.8,0.3c-2.9,0.5-5.9,2.3-5.9,5.4
		c0,3.9,3.5,4.9,6.8,5.2c1.1,0.1,2.3,0,3.4,0c5.7,0,11.4,0.1,17.1,0C479.2,444.3,480.3,444.8,478.4,447.2z"/>
	<path class="st1" d="M443.4,456.1c1.9,3.3,5.6,3.4,8.5,3.7c5.3,0.6,10.8,0.8,16,0c5.8-0.9,11.6-0.5,17.4-0.7
		c0.3,2.8-0.2,5.2-2.8,6.8c-2,1-4.1,1.2-6.2,1c-8.1-0.8-16.2-0.2-24.3-0.5c-2.6-0.1-5.2-0.2-7.6-1.4
		C441.1,462.2,440.2,459.4,443.4,456.1z"/>
	<path class="st6" d="M567.3,494c-2.1-10.4-10.6-7.9-17.5-8.6c-1.3-0.1-2.6,0-3.9,0c1-6.1,5.9-8.2,13.2-8.8
		c5.5-0.4,10.9,0.1,16.8,1.4C571.4,482.5,567.4,487.3,567.3,494z"/>
	<path class="st7" d="M485.4,514.5c-0.5-6.2,3.1-5.1,5.4-4.3c3.8,1.3,6.1,4.5,7.6,8.2c1.1,2.6,3.8,5.8,1.7,7.8c-2.2,2-6.1,2.2-9.3,3
		c-1.5,0.4-1.7-1.3-2.2-2.1C486,522.8,486.5,517.8,485.4,514.5z"/>
	<path class="st7" d="M471.8,525.5c-2-3.7-3.3-7.5-4.4-11.6c-1.2-4.4,0.8-4.2,3.7-4.1c3.1,0.1,6.7-0.9,9.1,0.4
		c2.5,1.4,1.4,5.5,2.3,8.3c0.6,2,1.2,4,1.7,6C480.2,526.3,476.1,527.5,471.8,525.5z"/>
	<path class="st5" d="M497.2,557.5c5.6-7.6,11.6-15,13.4-24.6c0.5-2.9,0-6,4.1-6.5c3.7,8.7-2.8,23.9-11,28.3
		C501.6,555.8,499.7,557.4,497.2,557.5z"/>
	<path class="st8" d="M424.9,507.7c-2.5-4.2-4.3-8.6-5-13.5c2.1,0.4,2.5,2.5,3.2,3.8c4.8,9.2,13.1,15,20.8,21.1
		c2.7,2.2,3.7,4,3.2,7.1c-8.7-3-14.4-9.9-20.3-16.4C426.2,509.1,425.5,508.4,424.9,507.7z"/>
	<path class="st9" d="M542,483.4c-0.5,6.2-2,12.4,0.1,18.6c0.6,1.7-0.5,1.8-1.7,1.9c-6.7,0.6-13.3-4.1-14.9-10.8
		c6.2-1,12.4-2.1,14.8-9.4C540.4,483.2,541.3,483.2,542,483.4z"/>
	<path class="st2" d="M473.7,570.2c-5.1,0.5-8.3-2.6-11.5-5.9c-4.4-4.6-7.2-10.1-8-16.5c2.8,4.3,6.7,7.7,11.3,9.5
		C471.8,559.7,475,563.3,473.7,570.2z"/>
	<path class="st1" d="M594.2,407.2c2.3,0.5,4,0.8,5.7,1.2c6.5,1.8,9,7.1,6.9,13.7c-0.7,2.2-1.6,2.3-3.3,1.7
		c-3.9-1.5-7.9-2.5-7.1-8.4C596.7,412.9,595.1,410.2,594.2,407.2z"/>
	<path class="st3" d="M455,436.6c12-2.1,24-1.1,36-0.1c2.1,0.2,2.2,1.4,2.1,3c-10.7,1.6-21.4,0.8-32.1,0.7
		C458.6,440.3,455.5,440.2,455,436.6z"/>
	<path class="st10" d="M471.8,525.5c4.2,0.3,8.2-1.7,12.4-1c2,3.2,4.9,6.2,3.2,10.6c0.3,0.4,0.2,0.8-0.1,1.1
		C479.8,536,475.3,531.5,471.8,525.5z"/>
	<path class="st5" d="M444.3,464.8c12.7,0,25.4-0.4,38.1,1c-1.4,2.5-4.3,2.4-6.4,2.5c-9.8,0.6-19.6,1.2-29.3-1.5
		C445.6,466.5,444.8,466,444.3,464.8z"/>
	<path class="st1" d="M542,483.4c-2.2,1-3,3.2-3.4,5c-0.9,4.3-3.6,5.2-7.4,4.7c-1.9-0.2-3.9-0.1-5.8-0.1c-0.3-3.1,0.7-6,2-8.8
		c1-0.6,2-1.2,3.2-1.1c4.3,0.2,8.3-0.6,11.6-3.6c0.5-0.4,1.2-0.3,1.8,0C543.9,481.1,543,482.3,542,483.4z"/>
	<path class="st5" d="M592.7,419.8c-0.7-0.6-1.7-1.1-2.2-1.9c-5.6-7.8-9.7-9.3-19.2-7c-0.6,0.2-1.3,0.1-1.9,0.1
		c5.7-4.8,12.7-5.3,19.5-4.2C593.3,407.6,594.7,413.8,592.7,419.8z"/>
	<path class="st5" d="M544,479.6c-4.4,5.5-10.5,5.1-16.6,4.7c1.9-6.5,9.9-8.4,15.4-7.6C543.5,476.8,547.6,477.1,544,479.6z"/>
	<path class="st5" d="M457.5,485.6c11.5-1.7,21.9-3,32.5-2.1C487.2,487.6,470.3,488.8,457.5,485.6z"/>
	<path class="st3" d="M514.6,525.5c-3.8-3.3-7-7.4-12.6-7.9c-1.8-1.8-2.6-4-3.3-6.4C508.1,510.9,514.3,516.5,514.6,525.5z"/>
	<path class="st1" d="M455,436.6c2.6,2.7,6,2.8,9.3,2.8c9.6,0.1,19.1,0.1,28.7,0.1c-4.1,2.1-8.6,1.9-13.1,1.9
		c-6.6,0-13.2-0.1-19.9,0c-2,0-3.8-0.4-5.6-1c-1.2-0.4-2.3-0.8-2.1-2.2C452.6,437,453.7,436.5,455,436.6z"/>
	<path class="st7" d="M487.3,536.2c0-0.4,0.1-0.7,0.1-1.1c2.9-4.2,6.9-5.7,12-4.8c1.1,0.2,2.5-0.1,2.5,1.6c0,1.2,0.7,2.9-1.2,3.2
		C496.3,535.9,492,538.6,487.3,536.2z"/>
	<path class="st3" d="M536,512.6c-0.6-1.6-1.2-3.2-1.9-4.8c5.4,0.5,11.3-0.5,15.5,5.8C544.7,513.2,540.3,512.9,536,512.6z"/>
	<path class="st3" d="M459.9,516.7c-1.2,0-2.5,0-3.7,0c-1.3,0.6-2.6,1.3-3.9,1.9c0.8-5.7,4.8-7.2,9.9-7.7
		C462.2,513.3,460.6,514.8,459.9,516.7z"/>
	<path class="st11" d="M497.5,543c-3.1,2.6-3.2-1.8-5.8-2.1c3.3-1.9,6-2.8,8-1.1C500.8,540.7,498.5,542.1,497.5,543z"/>
	<path d="M410,559.5c-8.4,2.6-14.5-1-16.6-9.7c-2.8-11.3,1.2-18.9,10.8-22c3.5-1.1,5.9,1,8.8,1.6C421.9,539.7,420.7,552,410,559.5z"
		/>
	<path d="M586.8,462c-8.2-7.5-6.1-24.6,3.6-29.2c4.3-2.1,9.8-1,12.6,2.9c2.9,4,5.1,8.3,4.3,13.5c-2,1.9-4.6,1.4-6.9,1.7
		c-3.8,0.4-6.2,1.8-7.1,5.9C592.6,459.8,590.8,462.5,586.8,462z"/>
	<path class="st12" d="M586.8,462c2.8-1.2,5.1-2.9,5.5-6.2c0.4-3.9,1.9-5.8,6.4-6.1c2.8-0.1,5.7-0.4,8.6-0.6c0,1,0,1.9,0,2.9
		c-0.3,6.3-4.1,10.3-9,13.5c-1.6,1-3.5,1.8-5.5,0.4C590.3,465.5,588.3,464.2,586.8,462z"/>
	<path class="st5" d="M592.9,465.9c6.5-0.8,10.4-4.8,12.7-10.7c0.4-1.1,1.2-2.2,1.8-3.2c4,3.5,3.2,10.1-1.9,14.2
		c-1.5,1.2-3.2,2.1-4.9,3C596.2,471.5,595.1,471,592.9,465.9z"/>
	<path class="st0" d="M401.4,537.1c-0.1,0.9-0.1,1.9-0.4,2.8c-2.2,6.6,1,14.9,10.9,13.7c-3.5,5.1-8.6,5.6-12.8,1.2
		c-4-4.1-4.8-12.6-1.7-17.8C398.7,536.1,400.1,535.9,401.4,537.1z"/>
	<path class="st2" d="M401.4,537.1c-1.3,0-2.7-0.1-4-0.1c2.3-6,7.4-8.1,13.3-5.3C407.1,533,404.1,534.8,401.4,537.1z"/>
	<path class="st13" d="M415.9,548.6c-7.9,3.4-10.4,2.3-11.4-4.5C408.2,545.5,411.6,546.9,415.9,548.6z"/>
	<path class="st14" d="M405.2,537.9c2.1-2.8,5.2-3.7,8-2.4c2.8,1.3,2.9,4.6,2.7,7.5C412.5,541,408.8,539.5,405.2,537.9z"/>
	<path class="st13" d="M405.2,537.9c4.7-0.6,8.2,1.1,10.7,5.1c-4.2,0.7-7.6-1.6-11.1-3.2C404,539.5,404.4,538.5,405.2,537.9z"/>
</g>
</svg>
