<?xml version="1.0" encoding="utf-8"?>
<!-- Generator: Adobe Illustrator 23.0.1, SVG Export Plug-In . SVG Version: 6.00 Build 0)  -->
<svg version="1.1" id="Layer_4" xmlns="http://www.w3.org/2000/svg" xmlns:xlink="http://www.w3.org/1999/xlink" x="0px" y="0px"
	 viewBox="0 0 1000 1000" style="enable-background:new 0 0 1000 1000;" xml:space="preserve">
<style type="text/css">
	.st0{fill:#90AFC3;}
	.st1{fill:#7D4800;}
	.st2{fill:#422100;}
	.st3{fill:#2B5260;}
	.st4{fill:#BB6F22;}
	.st5{fill:#B5FAF8;}
	.st6{fill:none;}
	.st7{fill:#FEFEFE;}
	.st8{fill:#B5FBF8;}
	.st9{fill:#322700;}
	.st10{fill:#FE0000;}
	.st11{fill:#CE0000;}
</style>
<g>
	<path d="M727.3,473.8c-3.4-11-9.3-21-18.7-28.3c-5.2-4.1-11.4-4.8-17.5-4.9c-10.2-0.2-20.4-0.9-30.5,0.9c-9,1.6-18.7,2.5-25,9.7
		c-5,5.8-10.8,7.7-17.6,7.7c-15.5,0.2-30.9,2.3-46.4,2.3c-6.8,0-11.7-1.4-14.5-7.7c8.5-0.8,15-3.8,19.1-8.7
		c9.2-11.1,10.8-23.7,6.6-37c-2.3-7.1-6.4-13.9-14.4-14.9c-12.4-1.6-24,1.3-33.8,9.6c-1.8,1.5-3.9,2-6.2,2c-5.4-0.1-10.8-0.4-16.1,0
		c-14.5,1.1-29,2.3-43.5,3.9c-7,0.8-14.2,1.6-20.2,5.7c-10.4,7-13.7,16.8-4.1,27.3c4.3,4.7,9.8,4.5,15.1,5.9
		c1.4,0.3,2.5,0.2,2.3,2.1c-0.5,3.2-4.9,5.8-8.1,5.1c-8-1.8-15.9-3.9-24-5.4c-19.7-3.6-39.5-5-59.3-6.8c-4.5-0.4-9-0.5-13.4-0.9
		c-16.3-1.3-32.4-4.5-48.8-1.9c-6,0.9-11.3,3-15.4,8c-6.7,8.2-9,17.6-10.9,27.7c-2.6,13.7-1.7,27.2,0.5,40.5
		c2.5,14.7,6.6,29.1,14.5,42c4.6,7.5,10.3,14.1,18.1,18.6c9.1,5.3,17.2,2.6,25.1-2.9c8.3-5.7,16-12.2,26.5-16.2
		c-0.8,1.9-1.2,2.9-1.5,3.9c-1.8,4.9-4.4,9.7-3.7,15c1.6,11.5,7.4,19.6,18.9,23.6c10.6,3.7,21.1,5.5,31.8,1.2
		c2.1-0.9,3.6-0.3,5.1,1.3c8.5,9,18.4,15,31.3,16.2c8.5,0.8,16.8,0.8,25.1-1.2c10.1-2.4,17-9.6,24.2-16.1c3-2.7,4.7-5.4,9.5-1.7
		c7.3,5.6,16.7,5.4,25.5,5.9c17.7,0.9,35.4-0.5,53-2.8c9.4-1.2,18.9-2.8,27.5-6.6c13.6-5.9,25.3-14.9,34.8-26.5
		c1.9-2.3,3.6-6.1,7.7-4.8c4.5,1.4,9.2,1.4,13.7,1.6c10.1,0.4,20.4,1.2,30.5-0.8c9-1.8,17.6-4.5,22.8-12.9
		c6.8-10.9,8.5-23.3,9.6-35.7C733.6,502.2,731.7,487.7,727.3,473.8z M475.8,569.4c-0.8-2.1,1.2-2.7,2.5-4.1
		C478.7,567.7,476.8,568.3,475.8,569.4z M471.2,573.3c1.4-1.3,2.3-3.3,4.4-3.6c-4.2,7.2-9.3,13.1-18.2,14
		C463.3,582,467,577.3,471.2,573.3z M452.6,554.9c0.8-1.5,2-4.5,4.5-2.9c2,1.2,1.2,3.8,0.4,5.6c-2.1,4.7-5.4,8.5-9.1,12.1
		c-2.3,2.3-5.4,4.5-3.6,8.5c1.8,4,4.8,6.3,9.4,5.9c0.4,0,0.9,0.2,1.7,0.4c-7.9,1.4-12.7,0.3-21.2-4.7
		C441.2,571.8,447.9,564.1,452.6,554.9z"/>
	<path class="st0" d="M435.4,497c-0.2-8.8,2.9-16.7,8.5-23.2c4.1-4.7,10.4-6.1,16.3-6.9c8-1,16.1-1.5,24.2-1.1
		c17.4,1,34.9,1.4,52.3,2.2c7.7,0.4,15.5,0.5,23.2,0.7c7.4,0.2,14.8,1.6,22.2,1c13.8-1.1,27.6-1.2,41.3-2.9c2-0.2,4.6-1,6.1,0.5
		c1.4,1.5-1.8,3.6-0.3,5.8c5.6-9.8,12.9-17.7,23.8-21.3c5.5-1.8,11.2-2.7,16.9-2.6c9.2,0.3,18.5-1.2,27.5,1c3.7,0.9,7.4,2.3,8.5,6.7
		c-0.4,0.2-0.9,0.3-1.4,0.1c-7.1-3.1-7.1-3.1-12.6,2.4c-1.6,1.6-3.1,3.3-4.8,4.7c-1.1,0.9-2.1,2.7-4,1.3c0.7-3.5,0.7-3.5,6.2-8.7
		c-3.5,3.1-7.3,5.8-10.5,9.3c-9.5,10.8-10.8,23.5-9.4,37c0.8,7.2,2.9,13.9,6.1,20.4c0.8,1.7,2.8,3.6,0.1,5.6
		c-2.9,0.9-5.9,0.9-8.7,0.5c-8.3-1.2-16.5-0.8-24.8-0.8c-14.9-0.1-18.1-2.7-21-17.2c-0.5-2.1-0.7-4.2-0.4-6.3
		c0.9-7.3,1.3-14.8,3-21.8c-1.9,3.6-3.3,7.8-5,11.8c-0.2,0.5-0.4,0.9-0.5,1.4c-5.3,14.5-5.3,14.3-20.5,14.6
		c-29.5,0.5-59,1.2-88.5,2.7c-15.5,0.8-31.1,1.7-46.7,1.2c-9.7-0.3-18.2-3-24.3-11.1C436.7,501.9,435.2,499.8,435.4,497z"/>
	<path class="st1" d="M372,572.2c0.2-4.9,2.6-9,4.8-13c4.9-8.8,6.9-18,5.9-27.9c-1.3-1.3-1-3-1.4-4.6c-1.1-4.4-2.5-5.1-6.5-2.8
		c-4,2.2-7.8,4.7-11.6,7.2c-11.5,7.6-24,13.7-35.7,21.1c-7.7,4.9-19.5,0.2-25.2-9.2c-0.6-1-0.8-2.1-1.6-3
		c-5.6-7.8-7.2-17.2-9.4-26.2c-2.1-8.7-2.9-17.8-2.4-26.9c0.1-1-0.1-2,0.9-2.6c2.4,2.7,1.3,5.8,1.4,8.9c1.6-7.7,4.2-15,7.8-22
		c4.2-8.1,10.7-12.8,19.8-14.2c10.7-1.6,21.4-1.8,32.1-0.7c2.6,0.3,5.2,0.4,7.8,0.3c16.6-0.4,33.2,0.8,49.7,1.6
		c5.3,0.2,10.6,0.7,15.3,1.3c-11.8-1-24.2-2.2-36.6-3.5c-21.7-2.3-43.2-5.6-65.1-5.3c-7.6,0.1-15,0.5-21.5,5
		c-0.8,0.5-1.8,0.9-2.8,0.5c0.9-4.4,4.7-5.7,8.2-6.7c6.8-2,13.8-3.2,21-1.3c1.4,0.4,2.9,0.2,4.4,0.2c16.1,0.1,32.2,1.7,48.2,3.8
		c10.8,1.4,21.8,1.8,32.7,3.1c12.7,1.6,25.2,4.2,37.8,8c-11,4.4-16.3,13.2-20.2,23.2c-3.6,9-4.4,18.3-2.8,27.9
		c0.4,2.2,1.1,4.4,0.4,6.7c-3,2-3.2-1.2-3.9-2.4c-3.8-7.5-4.5-15.5-3.5-23.7c1.4-10.4,6.1-19.4,12.1-27.3
		c-18.2,11.3-19.6,43.5-3.8,58.4c0.3,0.3,0.6,0.7,0.9,1.1c0.9,1.6,2.2,2.9,3.3,4.4c1.6,2.8,0.1,5.3-1.2,7.6c-1.8,3-3.5,6.1-5.8,8.8
		c-6.4,7.1-11.7,15.1-18.9,21.5c-7.3,6.4-14.9,12.1-25.2,12.1C374,579.6,371.8,577.5,372,572.2z"/>
	<path class="st1" d="M483.5,543.9c1.4-9.9,5.7-17.5,16-20.1c5.1-1.3,10.5-2.3,15.7-2.2c9.3,0.2,18.4-1.1,27.7-1.2
		c15.2-0.2,30.5-0.5,45.7-1c2.8-0.1,5.5,0.5,8.1,1.2c3.1,0.9,5.7,2.5,7.1,6c1.1,3,3.1,5.6,4.8,8.4c0.4,0.9,1,1.6,1.6,2.4
		c5.8,8.4,5.9,14.5,0.1,22.2c-4.8,6.4-14.5,9.2-22.2,6.6c-0.8-0.3-1.5-0.5-2.3-0.8c-5.4-3.6-7-9.6-9.2-15.1
		c-3.2-7.8-3-16.1-2.1-24.1c-4.3,9.9-2,19.8,1.9,29.5c1.2,2.9,2.8,5.5,4,8.4c0.8,2.5,2,4.8,2.5,7.4c0.9,4.5-0.3,9.1-3,10.6
		c-3.9,2.1-6.3-1.1-9-3c-4-4.4-5-10.1-6.8-15.5c-1-2.9-1.4-6-2.4-9c-1.7-5.2-4.8-7.7-8.5-7.1c-4.5,0.7-8.7,5.2-8.7,9.8
		c0,5.2,1.1,10.3,2.6,15.3c0.4,1.4,0.9,2.8,1.1,4.2c0.1,0.5,0.1,1,0.2,1.4c0.4,2.2,1.2,4.7-1.6,5.8c-2.4,0.9-3.8-1.1-5.1-2.7
		c-0.8-1-1.5-2-2.3-3c-2.8-6.6-3.2-13.8-5-20.6c-1.6-5.9-4-8.2-8.7-7.5c-5.2,0.7-7.8,4.1-7.5,10c0.2,5.3,1.7,10.5,2.7,15.7
		c-0.6,6.4-2.4,7.6-7.5,5c-5.4-6.2-5.4-14.3-7.5-21.7c-0.3-0.9-0.2-1.9-0.4-2.9c-0.9-4.8-3.3-6-8-5c-3.4,0.8-5.3,3.5-7.9,5.3
		c-3.7-1.1-4-4.5-5-7.4C483.8,547.7,484.2,545.7,483.5,543.9z"/>
	<path class="st2" d="M483.5,543.9c1.8,4.3,2.5,9,5.7,12.7c3.8,5.4,4.1,12.2,7.7,17.1c-1.1-2.3-2.7-5.1-3.6-8.1
		c-0.6-2-1.2-4.1-1.1-6.2c0.1-3.9,2.9-7,6.5-7.4c3-0.3,5.7,2,6.3,6.2c0.8,6.2,2.8,12,4.7,17.9c1.2,3.9,3.1,7.5,5.6,10.9
		c-1.1-2.3-3.5-4.1-1.5-6.9c4.3,2.6,5.4,1.9,6-4c3.1,1.8,2.8,5.5,4.8,7.8c-3.9-6.6-5-13.9-5.2-21.5c-0.1-2,0.1-3.9,0.8-5.8
		c1-3,2.9-5.1,6.3-5.1c3.5,0,5.3,2,6.2,5.1c1.5,5.6,2.9,11.3,4.5,17c1.7,6.1,4.1,12,6.8,17.6c-1.5-3.2-3-6.4-4.2-9.8
		c-0.4-1.3-0.7-2.5,0.5-3.6c1.6,0.7,1.8,2.7,3,3.7c1,0.8,1.7,2.7,3.5,1.7c1.6-1,1-2.4,0.5-3.9c-0.3-0.7-0.2-1.6-0.3-2.4
		c1.2-0.4,1.9,0.5,2.3,1.3c2.2,4.1,4.5,8.1,6.6,10.1c-4.4-4.8-7.5-12.2-9.2-20.2c-0.8-3.5-1-7.1-0.8-10.6c0.3-4.7,3.3-8.3,7.1-8.7
		c3.4-0.4,6.1,1.9,7.6,6.9c1.4,4.7,2.4,9.5,4,14.1c2,5.9,5.7,10.9,9,14.7c-1.8-3.2-2.2-4.3-2-6.5c0.3,0.2,0.6,0.3,0.8,0.5
		c2.1,1.6,4.1,4.7,6.9,2.7c2.8-2.1,3.6-5.5,2.5-9.1c-0.8-2.6-1.5-5.2-2.3-7.8c2.5-0.3,3.2,1.8,4.5,3.2c7,7.3,15.1,12.5,25.1,14.5
		c-8.6-2-15.3-7.2-21.4-13.3c-1.1-1.1-2.2-2.5-1.4-4.3c13.4,3.8,23-0.7,26.6-12.2c1.1-3.5,0.7-6.5-0.9-9.7c-1.2-2.4-3-4.6-3.2-7.5
		c4.5,3.6,8.6,8.1,15.1,8c0.7,0,1.6,0.6,2,1.2c4.6,6.7,10.8,11.1,18.6,13.5c-4.6,8.3-11.3,14-18.4,19.5
		c-13.1,10.3-28.4,14.3-44.5,16.4c-16.9,2.2-33.8,2.8-50.8,3.1c-13.6,0.2-23.3-6.5-31.9-15.8c-2.6-2.8-4.9-6-7.1-9.2
		C485.6,563.4,482.7,554.2,483.5,543.9z"/>
	<path class="st3" d="M622.2,510.6c0.9,3,2,6,2.8,9c1.6,5.8,6.2,7.7,11.4,7.6c13.4-0.3,26.8,0.8,40.2,1c2.7,1.2,4,3.8,5.6,5.9
		c3.3,4.2,7.2,7.4,12.9,9.4c-3.1-2.3-5.8-4.1-7.8-6.6c-1.2-1.4-2.8-2.8-1.6-5.1c1.4-0.6,2.5,0.2,3.6,0.9c1.3,0.9,2.7,1.7,4.2,2.5
		c12.4,6.5,15.5,5.5,23.4-6.2c2.1-3.1,2.2-7.4,5.7-9.7c0,8.7-2.4,17-6,24.7c-3.7,7.8-11.3,11-19.6,12.5c-12,2.2-23.8-0.2-35.7-0.8
		c-8.1-0.4-15.3-3.1-22.3-7.1c-6.6-3.8-11.5-8.7-13.8-16.1c-0.3-0.9-0.9-1.7-1.3-2.6c-1.2,0.8-0.4,1.9-0.7,2.7
		c-0.6,1.4,1.5,3.4-0.4,4.2c-1.7,0.8-3.5-0.6-4.8-1.7c-3.2-2.8-5.9-5.9-7.5-10c-3.6-9.2-10.8-12.6-20.3-12.5
		c-9.1,0.1-18.2-0.4-27.3,0.1c-16.2,1-32.4,1-48.5,2c-6.8,0.4-13.8,1.3-20.4,3.7c-2.3,0.8-4.9,1.5-6.3,3.4c-3.1,4.2-7.3,4.9-12,4.5
		c-7.3-0.7-14.7,0.3-21.6,2.3c-5.1,1.5-8.2,0.5-11.1-3.4c-6.3-8.5-9.7-17.6-7.4-28.3c5.9,11.8,15.5,16.6,28.6,16.8
		c18,0.2,36-0.8,54-1.3c23.2-0.7,46.3-1.6,69.5-1.9c6.4-0.1,12.9-0.6,19.4-0.8c3-0.1,5.3-1.4,6.5-4.2c1.6-3.8,3.2-7.6,4.8-11.4
		c1.7,1.8,1.2,3.9,0.9,6c-1.2,6.4,0.7,12.3,2.5,18.2C620.6,515.7,620,513.1,622.2,510.6z"/>
	<path class="st2" d="M426.8,521.5c-1.7-8.8-3.1-17.5-0.9-26.4c0.8-3.1,1.5-6.3,3.9-8.7c-0.3,2.7-0.5,5.5-1.1,8.1
		c-2.7,14.4,2.2,26.3,11.4,36.9c0.8,1,2.4,1.4,1.2,3.5c-6,10.4-5.2,12.8,5.6,17.5c-4.3,8.4-10,15.8-16,23c-2,2.4-2.9,0.2-4.2-0.8
		c-7.6-5.6-16.9-4.1-19.2,6c-0.7,3.2,0.4,6.1,1.7,8.9c1.4,3.1-0.3,3.6-2.5,4.2c-8.8,2.2-17,0-24.9-3.5c-7.6-3.4-11.3-9.5-10.6-16.3
		c0.1-0.6,0.5-1.1,0.8-1.7c0.9,5.8,5.3,7,10,8c7,0.6,13.5-0.6,19.2-4.9c10-7.6,17.3-17.5,23.5-28.3c2.1-3.3,4.5-6.5,6.4-10
		c0.9-1.7,2.1-3.7,0.6-5.8c-0.9-1.4-2-2.6-3-3.9l0.1,0.1C428,525.4,425.1,524.2,426.8,521.5z"/>
	<path class="st0" d="M722.5,519.4c-1.9,6.9-5.9,12.7-10.6,17.9c-2.7,3-6.2,4.6-10.8,2.9c-5.6-2.1-10.4-5.4-15.6-8
		c-2.9-0.6-4.4-2.8-5.4-5.2c-6.4-14.6-9.9-29.6-5.9-45.5c1.3-5.2,2.8-10.7,7.9-14c2.4,1.6,0,3.5,0.2,5.2c3-3.3,6.2-6.1,10.3-8
		c6.8-3,11.1-2.2,16,3.5c7,8,9.6,17.8,11.3,28c0-2.4-0.4-4.8-0.7-7.1c-0.3-2.6-1.2-5-1.7-7.6c-0.4-2-1.5-4.1,0.3-6
		c3.6,5.3,3.7,11.6,4.7,17.6c0.8,5.3,1.6,10.8,1.3,16.3C723.5,512.8,723.3,516.2,722.5,519.4z"/>
	<path class="st2" d="M300.8,540c3.4,3.4,6.2,7.3,10.4,10c6.2,4,11.9,4.4,18.3,0c14.1-9.7,29.7-16.9,43.8-26.6c1.9-1.3,4.3-4,6.8-2
		c3,2.4,2.8,6.3,2.6,9.9c-1.8,8.3-7.2,11.7-15.3,14.4c-10.8,3.6-20,11-29.6,17.4c-12.5,8.4-15.8,8.2-26-3
		C306.6,554.5,302.6,547.8,300.8,540z"/>
	<path class="st4" d="M297.8,456c5.9-5.3,13-6.7,20.6-6.9c18.5-0.5,36.8,1.6,55.1,3.8c12.5,1.5,25,2.5,37.5,4.1
		c5.2,0.7,10.6,0.4,16.6,2.6c-7.6,0.5-14.3-0.6-21-0.6c-17.9-0.1-35.7-1.3-53.6-1.4c-7.7,0-15.5-0.8-23.3-0.6
		c-5.6,0.1-11.3,0.9-16.7,2.6c-8.1,2.7-12.1,9.4-15.2,16.8c-2.1,5.1-4,10.3-5,15.7c-0.3,1.5-0.7,2.8-3.1,3.3c0-3.9,0-7.5,0-11.2
		c0.4-9,1.5-18,6.1-26C296.5,457.5,297.2,456.8,297.8,456z"/>
	<path class="st0" d="M413.1,584c-2.2-2.5-0.6-4.8,1.1-6.3c1.7-1.4,3.8-2.3,6.5-0.4c5.1,3.6,10.1,7.4,16.1,9.9
		c14.6,6.2,32.2,1.3,40.7-13c0.5-0.9,1-1.6,2-1.9c3.8,2.5,3.5,6.3,2.9,10c-0.6,3.9-2.4,7.4-5.1,10.3c-11.4,9.5-24.4,12.3-38.7,8.9
		c-2.4-0.6-4.7-1.3-7.1-1.5C424.2,595.9,418,590.6,413.1,584z"/>
	<path class="st0" d="M448.4,429.6c1.3-7.5,6.9-10.1,13.4-11.6c4.2-0.9,8.4-1.6,12.7-2c17.3-1.4,34.5-2.7,51.9-3c0.8,0,1.6,0,2.4,0
		c-0.8,5-1.6,9.8-2.4,14.5c-1.4,1.4-3.2,1.6-4.9,1.7c-19.2,1.5-38.4,3.6-57.6,3.7C458.4,433.1,452.9,433.1,448.4,429.6z"/>
	<path class="st3" d="M413.1,584c5.9,4.9,11.8,9.9,17.7,14.8c5.8,2.1,11.6,3.8,17.7,4.8c9.3,1.5,17.2-0.8,24.6-6.5
		c3.3-2.6,6.4-5.5,9.5-8c-2,0.5-2.8,4.3-6,2.7c4.3-6,6.9-12.3,2.9-19.5c0.8-1.2,0.9-2.8,2.6-3.5c3.4,6.6,8.7,11.8,13.1,17.8
		c0.7,1,2.2,1.7,0.6,3.1c-7.3,6.5-13.7,14-23.1,18c-10.7,4.6-21.1,2.5-31.6-0.1c-12.2-3-19.8-12.1-27.4-21.2
		C413.3,585.7,413.3,584.7,413.1,584z"/>
	<path class="st3" d="M448.4,429.6c7.9,1.6,15.9,2.6,24,2c15.9-1.2,31.7-2.6,47.6-3.8c2.1-0.2,4.2-0.1,6.3-0.2
		c0.7,3.1,1.5,6.2,2.2,9.4c-0.2,0.1-0.4,0.4-0.6,0.4c-22.3-0.2-44.7,1.9-67,1C452.2,438.1,448.1,435.4,448.4,429.6z"/>
	<path class="st3" d="M473.2,540c2.7-0.3,3.5,0.9,3.4,3.4c-0.3,5,0.1,10,1.7,14.8c0.3,1,0.1,1.9-0.6,2.7c-5.9,7.2-11.3,14.9-20.1,19
		c-3.4,1.6-6.2,1.3-8.4-1.8c-2.4-3.4,0.7-4.4,2.7-6.3c6.5-5.9,11.5-12.6,9.1-22.3c-0.7-2.6,0.4-5,3-6.5
		C466.9,541.2,470.1,540.8,473.2,540z"/>
	<path class="st3" d="M463.6,461.4c5.2-5.5,12.1-5.8,18.7-6.3c14.4-1.1,28.8,0.9,43.3,1c6.6,0,13.1,1.2,19.7,1.9
		c0.8,0.1,1.5,0.5,2.3,0.8c1.7,0.9,4.1,2.2,3.7,4c-0.5,2-3.1,1-4.7,0.9c-15.8-1-31.7-1-47.5-2.2
		C487.2,460.7,475.5,461.7,463.6,461.4z"/>
	<path class="st5" d="M717.8,475.5c0.2,6.8,3.9,13.1,2.9,20c-0.1,0.8,0,1.6,0,2.9c-2.7-2-2.2-4.9-2.8-7.1c-2-7-3.9-13.8-8.3-19.9
		c-7.6-10.3-13.1-8.5-22.3-1.8c-2.5,1.8-4.3,4.5-7.2,7.6c-0.4-4.6,2.6-6.6,2.6-9.6c-0.6-1.1-0.6-1.9,0.9-1.9c3.2-2,5.5-5,8.1-7.6
		c6.6-6.5,7.3-6.6,14.5-1.2C711.5,462.2,715.7,468.2,717.8,475.5z"/>
	<path class="st0" d="M533.3,432.5c-2.5-7-1.3-18.4,5.9-22.9c3.6-2.2,7-5.1,11.5-5.4c0.2,2.6-2.2,2.9-3.7,3.9
		c-3.3,2.4-6.9,4.3-9.3,7.8c-0.5,0.7-1,1.4-0.7,2.2c0.5,1.2,1.7,0.8,2.6,0.5c4.1-1.1,8.3-1.4,12.3-3.1c1.1-0.4,2.3-1.7,3.3,0.1
		c-0.8,6-0.8,12.2-1.5,18.2C546.7,437.4,539.9,436.5,533.3,432.5z"/>
	<path class="st3" d="M475.3,450.9c0.7-5.1,3.4-7,8.6-6.6c13.8,1,27.5-1.5,41.3-0.9c1.6,0.1,3.4-0.8,4.2,2c1.5,5.2,1.2,6.3-4.2,5.7
		c-13.1-1.5-26.3-0.4-39.4-1C482.2,450,478.9,452.1,475.3,450.9z"/>
	<path class="st3" d="M470.5,532.2c1.9,0,3.2-0.1,4.5,0c1,0.1,2.8-1,2.7,1.3c-0.1,1.7-0.8,2.6-2.7,2.6c-4.5-0.1-8.5,1.4-12.4,3.5
		c-1.5,0.8-3.2,1.6-3.7,3c-2,5.6-6.6,4.2-10.5,4c-3.6-0.1-4.8-2.8-3.2-6.2c2.5-5.3,7.6-6.6,12.5-7.1
		C462.1,533,466.5,531.5,470.5,532.2z"/>
	<path class="st0" d="M557.6,402.3c7.7-2.8,11.4-1.6,14.6,5.9c4.6,10.5,5,20.8-2.9,30.2c-2.6,1.7-5.1,3.9-8.6,2.7
		c-3.6-2.1-3.9-5.8-4.2-9.3c-0.6-7.6,0.1-15.2,2.4-22.9c-0.7,1.5-1.2,2.9-2.7,3.3c-2.4-1.2-1.1-3-0.6-4.5
		C556.3,406,557.5,404.4,557.6,402.3z"/>
	<path class="st5" d="M557.6,402.3c2.6,0.3,1,1.8,0.7,2.7c-0.9,2.4-2.8,4.4-2.6,7.2c0.9,1.5,0.3,2.3-1.2,2.8
		c-3.8,4.2-9.5,3.3-14.2,4.8c-1.4,0.4-3.6,2.4-4.8,0.2c-1.2-2.1,0.5-4,1.8-5.6c3.6-4.5,9.1-6.6,13.4-10.1
		C552.6,402,555.2,402.7,557.6,402.3z"/>
	<path class="st6" d="M444.8,578.1c1.8,4,4.8,6.3,9.4,5.9c0.4,0,0.9,0.2,1.7,0.4c-7.9,1.4-12.7,0.3-21.2-4.7
		c6.5-7.9,13.2-15.6,18-24.8c0.8-1.5,2-4.5,4.5-2.9c2,1.2,1.2,3.8,0.4,5.6c-2.1,4.7-5.4,8.5-9.1,12.1
		C446.1,571.9,443.1,574.2,444.8,578.1z"/>
	<path class="st3" d="M560.6,440.4c3.2,0.8,5.8-1.4,8.8-2c-4.5,6.9-18,7.6-25.7,3.7c-4.3-2.1-9.6-3.5-10.3-9.6
		c6.7,1.5,13.4,3.3,20.3,1C556.9,434.8,557.4,439,560.6,440.4z"/>
	<path class="st3" d="M538.5,451.8c-5.4,0.1-7.6-1.8-7.9-6.7c-0.1-1,0.1-1.5,1.1-1.6c1.6-0.2,3.4-0.3,4.2,1.6
		C536.9,447.2,537.7,449.5,538.5,451.8z"/>
	<path class="st6" d="M475.7,569.7c-4.2,7.2-9.3,13.1-18.2,14c5.9-1.7,9.5-6.5,13.8-10.4C472.6,572,473.5,570,475.7,569.7z"/>
	<path class="st7" d="M475.9,569.6c-0.1,0-0.2,0-0.2,0c0,0,0.1-0.1,0.1-0.2C475.8,569.5,475.9,569.6,475.9,569.6z"/>
	<path class="st6" d="M475.8,569.4c-0.8-2.1,1.2-2.7,2.5-4.1C478.7,567.7,476.8,568.3,475.8,569.4z"/>
	<path class="st7" d="M475.9,569.6c0,0-0.1-0.1-0.1-0.1c0,0,0,0,0,0c0,0,0,0,0.1-0.1C475.8,569.5,475.9,569.6,475.9,569.6z"/>
	<path class="st8" d="M582,483.4c0.3-0.3,0.9-0.6,1-1c0.7-2.1,3.8-4.9,0.9-6.2c-2.3-1.1-5.5,0.9-7,3.9c-1.1,2.2-1.5,4.5-1.9,7
		c-0.9,5.8-1.3,5.9-6.8,3.7c-8.5-3.5-17.1-6.9-26.2-8.6c-17-3.1-34.1-5.8-51.1,0.3c-3.5,1.3-7,2.5-10.4,4.1c-3.6,1.7-4.4,0-4-3.1
		c0.3-2.4,0.4-4.9,1.3-7.1c1.5-4-0.9-3.9-3.3-3.3c-5.1,1.2-5.1,5.9-5.7,9.7c-1.2,8-4.6,11.4-12.7,11.5c-2.9,0.1-5.9,0.1-8.8,0
		c-4.9-0.2-7-2.5-7-7.4c0-7.4,5.8-14.6,13.2-15.9c9.5-1.7,19-3.8,28.8-3c18.4,1.5,36.8,2.2,55.2,3.2c21.1,1.1,42.1,2,63.2,1.5
		c7.3-0.2,14.7-2,22-3.2c1-0.2,1.9-0.8,2.7,0.2c0.7,0.9,0,1.8-0.3,2.7c-3.4,8.9-3.4,8.9-12.9,8.3c-12.3-0.7-22.7,3.1-30.5,13.7
		C579.8,490,582.5,486.7,582,483.4C582,483.4,582,483.4,582,483.4z"/>
	<path class="st8" d="M687.6,451.2c-7.7,6.8-13.8,14.2-18.1,23.1c-1.2,2.5-3.7,3.8-6.7,4.3c-11.6,2.1-22.1,7-32,13.3
		c-1.2,0.8-2.4,2.3-3.8,1.5c-1.8-1.1-1.2-3.3-0.9-4.9c1.9-8.3,5.9-15.5,11.4-22.1c9.3-11.1,21.2-15.2,35.1-15.2
		C677.6,451.2,682.6,451.2,687.6,451.2z"/>
	<path d="M683.5,465.8c-0.9,0.3-0.7,1.3-0.9,1.9c-7.6,9.2-9.9,20-8.5,31.3c1,7.9,1.7,16,5.4,23.5c1.7,3.5,3.4,6.8,6,9.6
		c2.3,5.7,7.9,8.1,12.2,12c-7.3,1.6-15.2-6.4-21.1-16c-7.1-12.2-9.7-25.5-8.6-39.5c0.9-11.9,6.6-21.3,15.6-28.8
		c2.8-2.3,5.3-5.1,9.4-5.8C690.6,458.9,685.1,460.8,683.5,465.8z"/>
	<path d="M622.2,510.6c0,2.9,0,5.8,0,9c-3.6-3.7-6.2-13.3-4.7-18.8c0.6-2.3,0.6-4.5,0.7-6.7c1.9-5.3,3.8-10.6,7.9-16.5
		C624.2,489.5,622,499.9,622.2,510.6z"/>
	<path d="M582,483.4c-2.8,4.7-3,9.9-3,15.2c-5.7-5-3.7-14.6,4.7-21.9C584,479.3,581.4,480.9,582,483.4
		C582,483.4,582,483.4,582,483.4z"/>
	<path d="M472.6,490.8c-3.4-7.7-2.7-12.3,2.8-16.9C476.6,480.1,471,484.8,472.6,490.8z"/>
	<path d="M341.2,459c19.3-0.4,36.9,1.4,54.4,3c3.4,0.3,6.9,1.1,10.3,2.6c4.3,1.8,6.5,5.1,4.9,9.5c-2.9,8.1-7.8,14.6-15.4,19.2
		c-8.3,5-18,6.9-26.4,12c-10.4,6.4-19.4,14.4-28.3,22.6c-4.4,4-8.6,8.3-14.3,10.6c-6.9,2.8-13.7,1.1-17.8-5.1
		c-5.1-7.8-7.9-16.3-9.1-25.7c-0.6-4.6-0.9-9.3-1.5-13.9c-1.2-9.2,0.4-18,6-25.8c2.2-3.1,5.4-4.9,9-6.2
		C322.9,458.4,332.9,458.9,341.2,459z"/>
	<path class="st4" d="M406.3,533c0.8,3.7-1.2,7.4-3.1,10.9c-5,9.5-10.9,18.3-18,26.3c-1.4,1.6-3.1,3.8-5.7,2c-2.7-1.8-1-3.9-0.1-6
		c5.1-11.1,8.4-22.7,11-34.6c1.1-4.8-0.9-9.6-1.4-14.4c-0.5-4.7-1.5-9.4,2.7-13.1c1.6-1.5,3.2-1.9,4.4,0.2
		C401.2,513.2,406.2,521.9,406.3,533z"/>
	<path d="M426.8,521.5c0.6,2,1.3,3.9,1.9,5.9c-12.4-10.9-14.4-24.9-11.2-40c2.3-10.4,7.9-18.8,18.3-23.2
		c-5.1,5.8-8.9,12.4-11.6,19.5C419.4,496.6,418.8,509.4,426.8,521.5z"/>
	<path d="M424.7,547c-5.2,13.6-14.5,23.9-26.6,31.6c-4.8,3-10.5,3.7-16.2,1.6c9.6-0.4,16.8-5.6,23.6-11.6
		C412.9,562.2,418.2,554,424.7,547z"/>
	<path d="M428.6,527.3c1.6,0.8,2.9,1.9,3,3.9C430,530.4,428.7,529.3,428.6,527.3z"/>
	<path class="st4" d="M567.4,541.4c-4-1.3-6.6-3.9-9.6-5.7c-9.5-5.5-20.1-5-30.4-4.3c-10.7,0.8-21.6,1.7-32,4.6
		c-0.6,0.2-1.3,0.2-1.9,0.4c-1.6,0.4-3.2,2.6-4.7,0.3c-1.3-2,0.3-3.8,1.6-5.2c4.7-5,11-5.6,17.3-6.3c17.4-2,34.9-2,52.4-2
		c2.2,0,4.5-0.7,6.7-0.9c2.5-0.3,3.4,0.3,2.7,3.2C568.2,530.7,567.2,535.8,567.4,541.4z"/>
	<path d="M571.3,578.1c0.5,4.3,4.8,6.7,5.9,12.1c-6.9-6.9-12.1-13.5-14.6-21.8c-1.3-4.3-2.4-8.7-3.6-13c-0.8-3-2.2-5.9-5.8-5.4
		c-4,0.5-6.1,3.4-6.3,7.5c-0.4,11.6,3.3,21.9,10.1,31.2c0.5,0.7,1.7,1.1,1.2,2.5c-5.7-3.1-7.9-9-11.2-14c-2-6.1-3.2-12.4-4-18.8
		c-0.8-6.8,5.7-11.3,10.2-12.3c4.3-1,8.5,2.7,10,9.1c1.7,7.4,3.7,14.6,7,21.4C570.4,577.1,570.9,577.6,571.3,578.1z"/>
	<path d="M585.9,564.5c4.6,7.7,11.8,12.2,19.8,15.6c1.6,0.7,3.3,1.1,5.1,2.9c-7.1,0.4-12.5-2.6-17.7-5.9c-5.4-3.4-10-7.6-13.9-12.6
		c-4.8-7.5-7.7-15.7-8.6-24.4c-0.6-6.3,0.6-12.7,5.8-18.9C573.5,537.7,575.1,552.2,585.9,564.5z"/>
	<path d="M540.1,578c0.5,5.7,4.1,10.4,5.6,16.8c-5.3-6-7.4-12.5-9.5-18.9c-1.9-6.1-3.5-12.4-4.9-18.7c-0.6-2.8-1.7-4.4-4.7-4.5
		c-3.1-0.1-4.8,1.3-5.5,4.3c-1.8,8.2,0,16,2.5,23.7c0.8,2.5,2.3,4.8,3.1,7.4c-4-3.1-4.9-8-7.3-12c-1.6-5.9-3.1-11.8-3-17.9
		c0.1-5.5,3.8-9.1,9.6-9.4c5.4-0.3,7.9,2,9,7.8C536.7,563.8,538.5,570.9,540.1,578z"/>
	<path d="M513.7,580.1c-0.2,3.8,3,6.3,3.8,10.9c-4.3-4.2-7.1-8.3-8.6-13.2c-2.1-6.4-4.7-12.7-5.1-19.6c-0.2-2.5-1.5-5.6-4.6-5.2
		c-3,0.4-6,2-5.9,5.9c0.1,4.1,1.4,7.9,3,11.6c0.8,1.9,1.8,3.7,3,6.2c-4.7-4.1-8.6-12.2-10.1-20.2c1.2-2.6,2.9-4.6,5.7-5.6
		c8.2-3.1,10.9-1,12.2,7.7C508.1,566,509.1,573.7,513.7,580.1z"/>
	<path d="M716.9,507.8c0.4,4.3-1.1,10.3-3,16.3c-1.2,3.6-3.8,5.9-6.6,8c-3,2.2-5.7,0.8-8.1-1.4c-5.7-5.4-8.2-12.2-10-19.6
		c-2.8-11.5-4.5-22.8,1.1-34c2-4,4.3-8,9.1-8.2c5.3-0.2,8.1,4.1,10.6,8C715.5,485.7,716.7,495.6,716.9,507.8z"/>
	<path d="M476.5,591.8c3.6-0.8,5.7-4.2,9.7-6.2c-16.4,21.1-34.6,24.9-55.5,13.1c4.4-0.7,8.4,1.3,12.5,2.1
		C456.1,603.3,466.6,599,476.5,591.8z"/>
	<path class="st8" d="M512.8,415c4.2,0,7.3,0,10.4,0c1.4,0,3.4-0.4,2.9,2c-0.3,1.5-0.2,4-2.8,3.8c-3.6-0.3-7,1-10.6,1.1
		c-18.3,0.4-36.4,1.8-54.6,3.8c-1.5,0.2-3.8,0.9-4.4-0.8c-0.6-1.8,1.6-3,3.1-3.8c3.6-2,7.7-2.4,11.7-2.9c7.5-1.1,15.1-2,22.6-2
		C498.7,416.2,506.2,414.2,512.8,415z"/>
	<path d="M560.6,440.4c-3.8-0.8-5.3-4-7-6.9c-2-6.3,0-12.4,0.9-18.5c0.4-0.9,0.8-1.9,1.2-2.8c2.4-2.1,2.2-6,5.9-7.8
		c-3.1,8.8-4.4,17.4-4,26.3C557.8,434.2,558.4,437.5,560.6,440.4z"/>
	<path d="M560.5,424.1c-0.2-4.8,0.7-9.5,1.9-14.1c0.6-2.4,2-4.3,4.3-4.5c2.3-0.2,3.7,2,4.5,3.8c3.4,8.3,3.1,16.4-1.4,24.2
		c-1,1.8-3,3.1-5.2,2.9c-2.4-0.2-2.3-2.7-3.1-4.3C560.2,429.5,560.6,426.8,560.5,424.1z"/>
	<path class="st9" d="M345.1,463.9c18.7-0.3,37.2,1.6,55.6,4c5.7,0.7,6.1,2.4,4.1,7.9c-4,11-13.7,14.5-23.1,18.3
		c-12,4.9-22.6,11.8-32.4,20.2c-7.3,6.3-13.4,14.2-22.3,18.6c-8.8,4.3-12.6,2.9-17.1-5.9c-4.1-7.9-5.3-16.5-6.2-25.2
		c-0.8-7.3-1.4-14.4,0-21.7c1.9-10,7.5-15.1,17.7-15.1c4.1,0,8-1.4,12.1-1.1C337.3,464.1,341.2,463.9,345.1,463.9z"/>
	<path class="st10" d="M563.5,430.7c-2.4-7.5-0.4-14.7,1.2-22c0.2-1,1.1-1.6,2.2-1.5c1.8,0.1,2.5,1.2,2.5,2.9
		c-3.2,2.7-3.3,3.3-0.8,9.1c1.8-3-1.6-6.3,0.8-9.2c3.5,7.4,2.8,14.6-0.9,21.7c-2-2.1,0.1-4.3,0-6.5c0.2-0.6-1-0.4-0.4-0.3
		c0.1,0,0.2,0.1,0.2,0.2C567.9,428.2,566,429.8,563.5,430.7z"/>
	<path class="st11" d="M563.5,430.7c1.7-2.1,3.3-4.2,5.2-6.5c1.7,2.9-0.8,5.2-0.3,7.6c-0.9,1.2-1.6,3-3.4,2.5
		C563.4,433.9,563.4,432.2,563.5,430.7z"/>
	<path d="M337.4,473.1c4.3-0.9,7.5-0.2,9.5,1c5.2,3.1,8.4,0.5,11.6-2.9c0.3,0.4,0.6,0.7,0.6,0.8c-5,7.4-4.5,4.7,1.8,10.2
		c0.7,0.6,1.8,1,2.3,1.7c2.4,2.9,3.7,1.8,5.3-0.8c1.4-2.3,3.4-4.3,5.1-6.4c0.5-0.6,1.1-1,2-1.7c-0.4,6.2-9.3,8.6-6.5,16
		c-1.5-0.4-3.9-3.3-5.5,1.4c1.4-3.9,0.1-5.7-2.6-7.1c-1.6-0.8-3-1.9-4.4-3c-2.5-1.9-4.3-2.1-6.3,0.9c-3.1,4.5-6.6,8.8-10,13.1
		c-1.2,1.5-0.8,2.2,0.6,2.9c3,1.6,5.9,3.4,9.3,5.4c-3.9,0.7-6.6-1.2-9.4-2.2c-2.9-1-4.7-0.9-6.3,2.1c-2.2,4.1-4.9,7.8-7.8,11.5
		c1.3-4.8,2.6-9.6,5.5-13.7c1.3-1.8,1.6-2.9-0.7-4.6c-9.1-6.8-9-6.9-15.4,1.8c-0.9-1.4,0.2-2.5,0.6-3.5c2.4-7.8,2.5-7.8-2.5-13.7
		c0.2-0.2,0.6-0.5,0.6-0.4c5.9,4,5.7,3.9,10.6-0.8c3.1-3.1,5-7.2,9.5-9.2c-2.8,4-5.5,8.2-8.6,12.1c-2.4,3.1-2.9,4.9,1.1,7.4
		c8.3,5,8.1,5.3,13.7-2.3c2-2.7,4.2-5.4,6.6-7.8c2.3-2.3,1.2-3.1-1-4.1C344,475.9,341.3,474.8,337.4,473.1z"/>
	<path class="st7" d="M569.3,410.1c-0.1,3.4,1.6,6.5,1.1,10c-0.2,1.1-0.5,2.2-1.3,2.3c-0.9,0.2-1.4-1-1.8-1.9
		c-1.1-2.7-1.9-5.4-1.8-8.3C565.5,409.1,566.9,408.6,569.3,410.1C569.4,410.2,569.3,410.1,569.3,410.1z"/>
</g>
</svg>
