<?xml version="1.0" encoding="utf-8"?>
<!-- Generator: Adobe Illustrator 23.0.1, SVG Export Plug-In . SVG Version: 6.00 Build 0)  -->
<svg version="1.1" id="Layer_4" xmlns="http://www.w3.org/2000/svg" xmlns:xlink="http://www.w3.org/1999/xlink" x="0px" y="0px"
	 viewBox="0 0 1000 1000" style="enable-background:new 0 0 1000 1000;" xml:space="preserve">
<style type="text/css">
	.st0{fill:#4D576A;}
	.st1{fill:#898B9C;}
	.st2{fill:#B1B6A6;}
	.st3{fill:#585858;}
	.st4{fill:#5D6652;}
	.st5{fill:#512800;}
	.st6{fill:#373737;}
	.st7{fill:none;}
	.st8{fill:#E6EADD;}
	.st9{fill:#7F4000;}
	.st10{fill:#CACED7;}
	.st11{fill:#E2E6D9;}
	.st12{fill:#CDD1DA;}
	.st13{fill:#969FB2;}
	.st14{fill:#804000;}
	.st15{fill:#DF6F00;}
</style>
<g>
	<path d="M666.2,458c-1.6-13.3-4.2-26.2-11-37.7c-3.9-6.6-9.9-10.9-18.3-11.1c-7.3-0.2-12.1,4.3-16.9,8.6
		c-8.3,7.4-16.4,15-24.5,22.5c-0.8,0.7-1.3,1.3-2.8,0.7c-8.1-3.1-15.1-1.8-19.8,6.3c-2.8-2.4-4.6-5.5-8-6.6c-1.9-0.6-1.5-2-1.3-3.1
		c1.8-11.2,3.1-22.5,2.9-33.9c-0.1-9.1-7.6-13.9-16.1-10.2c-9.4,4-11.1,12.9-13.1,21.2c-1.5,6.5-1.5,13.3-2.1,20
		c-0.1,1.4-0.5,2.5-1.9,2.9c-3.9,1.2-6.4,4.2-7.6,7.5c-2,5.6-5.8,4.3-9.7,4c-10.5-0.8-21-2.7-31.6-1.1c-1.1,0.2-1.7,0.1-2.5-0.6
		c-5.3-5.5-12.1-9.1-18.2-13.6c-1.6-1.2-1.5-1.9-1-3.8c2.5-9.9,4.7-19.8,4.1-30.1c-0.3-6.1-3.9-9.9-9.6-11.1
		c-4.8-1.1-9.6-1.1-14.4-0.8c-11.7,0.9-17.1,6.3-18,17.9c-0.7,9.3,0.8,18.6,2.4,27.7c0.4,2.1-0.2,2.8-1.6,3
		c-14.2,2.8-27.6,8.2-41.2,13c-3,1.1-3.9,0.1-4.5-1.9c-1.5-4.9-4-9.2-7-13.2c-8.6-11.5-19.3-13.8-30.4-7.3c-8.8,5.1-16,12.3-20.3,22
		c-6.8,15-9.8,30.3-8,47c1.5,14,6.3,25.6,16.5,35.2c10.3,9.7,25.4,9.6,35.4-0.4c4.4-4.4,8.3-9.3,10.9-14.9c1-2.1,2.5-2.7,4.5-2.3
		c5.1,1.1,10.3,1.6,15.6,1.9c3.5,0.2,5.5,1.3,5.4,5.7c-0.2,7.7-1.6,15.2-3.5,22.5c-2.1,8.1-7.9,14.2-12.9,20.7
		c-5.2,6.7-3.7,15,0.7,19c5.1,4.6,11.3,7.3,17.8,9.3c6.9,2.2,14.2,2.2,21.2,2.7c9.3,0.6,17.6-2.3,23.4-10.8
		c2.7-3.9,5.3-7.8,7.8-11.8c8.9-14.1,14.1-29.3,16.2-46c0.5,7.5,3.4,14.3,7.4,20.5c0.6,0.9,1,1.7,0.8,2.6c-1.4,7.4-3.4,14.7-8,20.9
		c-3.6,4.8-7.9,9.2-11.8,13.9c-3,3.6-4.3,7.2-2.8,12.2c2.5,7.9,8.5,11.6,15.4,13.2c14.2,3.2,28.8,4.5,43.3,2
		c9-1.5,19-12.6,19.5-20.9c0.6-9.8,2.4-19.4,2-29.3c-0.1-1.6,0.2-2.9,1.9-3.4c8.8-2.3,16.2-6.9,21.6-14.3c5.9-8,11.4-16.3,12.5-26.5
		c0.4-3.5,2-2.9,4-2.1c3.1,1.1,6.2,1.7,9.2,0c3.5-2,6.3-0.8,8.7,1.7c2.4,2.5,5.3,4,8,6c7.6,5.9,15.1,12,23.5,16.8
		c6.3,3.6,11.5,3.7,17.7-0.2c6.2-3.9,10.2-9.8,12.7-16.2c5.4-13.8,7.5-28.4,8.1-43.1C667.2,473.1,667.1,465.6,666.2,458z
		 M529.2,516.1c4.7-4.3,9.2-8.5,16.6-7.1c-5.5,9.8-10.1,20.1-19.1,28C525.8,529.6,522.5,522.4,529.2,516.1z"/>
	<path class="st0" d="M475.6,455.1c2.1,2.4-0.8,3.6-1.6,4.7c-5.6,7.1-7.3,15.2-7.2,24c0,5.1,1.2,9.9,4.8,13.8
		c2.4,2.5,1.5,4.3-0.9,5.8c-7.2,4.8-14.9,7.9-23.7,8.5c-8.2,0.6-16.3,0.9-24.5,0.2c-10.9-1-15.8-7.5-19.4-16.7
		c-3-7.7-1-14.9,0.6-22.2c1.3-5.9,3.8-11.5,7.3-16.6c4.2-6.1,9.4-10,16.7-11c-0.2,3.6-3,5.6-5,7.9c-8,9-11.8,19-9.3,31.1
		c0.3,1.4,0.7,2.9-0.5,4.1c-1,0.6-2.2,0.4-3.2,1c-0.3,0.2-0.4,0.5-0.5,1.2c2.6,2.5,6,2,9.4,1.7c11.8-1.2,23.7-1.2,35.3-3.9
		c0.8-0.2,1.6,0,2.3,0.6c-0.5,3.7-3.6,4.3-6.4,4.8c-9.9,1.8-19.9,2.4-30,2c11.8,0.4,23.4-0.4,35-2.8c5.6-1.1,5.5-1.6,5.2-7.1
		c-0.7-12.2,4.6-22,13-30.4C473.6,455.1,474.6,454.7,475.6,455.1z"/>
	<path class="st1" d="M496.1,457c18,0.7,35.8,3.3,53.9,3c5.1-0.1,10.2-1.8,15.4-0.9c0.7,1.7-0.1,3.2-0.7,4.7c-2.9,7-4,14.3-3.4,21.9
		c0.4,4.8-0.4,5.6-5.3,5.9c-20.3,1.3-40.6,1.3-60.8,0c-11.4-0.7-17.3-8.6-14.1-19.7C483.2,464.3,488.1,459,496.1,457z"/>
	<path class="st1" d="M475.6,455.1c-8.7,7.5-13.7,16.9-14.7,28.4c-0.1,1.1-0.1,2.4,0.3,3.3c2.6,4.9-0.1,6.6-4.4,7.3
		c-12.1,2.1-24.3,3.1-36.6,2.9c-1.3,0-2.6-0.2-3.6-1.9c5.7,0,11.2,0.3,16.6-0.1c5.6-0.4,11.2-1,16.8-2.1c2.2-0.4,4.8-1.2,5.9-3.8
		c-12.4-0.5-24.9-0.1-37.3,1.2c-2,0.2-4.7,1.1-5.6-2.1c-4.1-13.7-0.8-25.5,8.9-35.8c2.1-2.2,3.9-4.7,5.8-7
		c9.1-1.6,18.1-2.6,27.5-1.3C463.8,445.2,470.5,448.3,475.6,455.1z"/>
	<path class="st2" d="M658.3,476.2c-0.5,16.1-1.5,32.3-9.3,46.9c-6.3,11.9-11.8,14.5-22.2,6c-9.9-8.1-20.8-15-29.6-24.4
		c-8-8.6-9.9-19.1-8.7-30.6c0.9-8.3,3.2-16.2,8.5-22.3c7.4-8.6,15.9-16.2,24.1-24.1c2.5-2.4,5.7-4.1,8.3-6.3
		c8-6.8,13.7-2.4,17.9,4.4c6.5,10.4,8.7,22.3,10,34.4C657.9,465.6,658.2,470.9,658.3,476.2z"/>
	<path class="st0" d="M372.9,457.9c-4,3.7-9.5,5-13.4,9.1c-9.9,10.5-5.8,34.1,7.1,39.7c2.7,1.2,3,2.8,1.9,4.9
		c-3,6.2-7.3,11.3-13.1,15.1c-3.4,2.2-6.2,1.5-9.1-1.1c-6.2-5.6-8.5-13.1-10-20.9c-1.3-6.8-3-13.5-2.3-20.5c0.8-1,1.9-1.8,3-2.4
		c5.8-3.3,10.9-7.4,14.3-13.5c3.3-6,8.2-10.5,15.5-11.3C369,456.9,371.1,456.4,372.9,457.9z"/>
	<path class="st3" d="M423.9,516.7c8.3,0,16.6,0,24.8-0.2c3.4-0.1,3.8,1.6,3.3,4.2c-3,14.8-7,29.3-12.9,43.3
		c-2.8,6.7-6.9,12.7-11.4,18.4c-1.9,2.4-4.9,2.9-7.8,3.4c-5.3-0.8-10.4-2.1-14.9-5.3c-4.6-3.3-5.7-6.5-4-11.7
		c1.1-3.4,2.5-6.7,3.9-9.9c0.6-1.3,1.1-3.1,2.7-3c1.4,0,1.8,1.7,2.3,2.9c1.1,3,3.1,4.8,6.2,5.5c6.4,1.5,10.9-0.2,14.7-5.5
		c3.8-5.3,4.4-13.3,1.4-17.9c-1.8-2.8-4.5-3.5-7.6-3.2c-2.3,0.3-4.3,1.3-6.5,1.8c-2.2,0-4.3,3.1-6.2,1.2c-1.7-1.7,0.1-4.3,0.5-6.5
		c0.6-3,1.7-5.9,2.8-8.8C416.9,521.2,419.3,517.9,423.9,516.7z"/>
	<path class="st0" d="M496.1,457c-4.3,3.3-9.5,5.7-12.1,10.8c-1.9,3.7-3.1,7.6-2.3,11.7c1.4,7.4,5,10.6,12.7,10.7
		c14.1,0.2,28.2,2,42.3,0.9c7.1-0.5,14.2-0.8,21.3-0.9c1.8,0,2.7-0.5,2.3-2.6c-1.9-10.1,0.3-19.6,5.1-28.5c1.4,0,2.9,0,4.6,0
		c-1.4,5.2-3.4,9.8-4.6,14.8c-1.7,7.4-0.2,14.4,1.3,21.4c0.5,2.5,0.3,2.7-2.1,2.4c-14.6-1.9-29.2-2.5-43.9-0.7
		c-5.3,0.6-10.6,0.2-15.9,0.8c-7,0.8-14.2,0.3-21.3,1.2c-4.2,0.5-6.7-1.8-8.8-5.4c-6.6-11.5-0.4-28.1,7.1-34.4
		C486,455.7,490.9,454.9,496.1,457z"/>
	<path class="st2" d="M496.9,504c1.6,9.3,1.6,18.7,2.8,28.1c1.3,10.7,19.1,16.8,27.8,10.1c11.9-9.2,18.7-21.8,23.2-35.8
		c0.3-1.1,0.6-2.1,1-3.2c0.5-1.4,0.9-2.8,3-1.7c1.5,0.8,2.2,1.4,1.5,3.3c-4.3,11.1-8.4,22.3-16,31.7c-2.7,3.3-5.7,6.5-8,10.1
		c-3,4.5-7.9,3.8-11.7,4c-8.5,0.4-17.1-0.8-25.3-3.8c-4.9-2.7-6.5-7.4-7.4-12.4c-1.6-9.5-2-19,3.8-27.5
		C492.9,505.1,494,502.8,496.9,504z"/>
	<path class="st1" d="M372.9,457.9c-10.5-0.8-17.4,4.6-22.1,13.3c-3.7,6.8-9.8,10.4-16.7,13c-0.3-14.1,3.7-26.9,11.6-38.6
		c3-4.4,5.5-9,10.7-11.2c1.8,6.5,5.9,11.7,9.7,17.1c1.5,2.1,3.1,2.7,5,0.5C372.4,453.8,372.5,455.9,372.9,457.9z"/>
	<path class="st4" d="M569.2,481.6c1.5-11.4,4.1-22.1,12.4-30.4c0.9-0.9,2-1.5,3.1-2.2c2.3-1.5,4,0.1,5.6,1.3c2,1.4,0.5,2.8-0.2,4.2
		c-7.7,14.5-7.7,29.5-2.6,44.8c0.8,2.4,2,4.7-1.2,6.6c-3,1.7-5.2,0.5-7.3-1.5C572.3,498.1,570.6,489.8,569.2,481.6z"/>
	<path class="st3" d="M497.1,552.7c7,0.7,14,2.4,21.1,2c1.7-0.1,2.3,0.7,2.3,2.4c0.3,12.7-2.2,24.6-9.7,35.2
		c-0.9,1.3-2.1,2.5-2.8,3.9c-3.2,5.9-7.9,8.7-14.7,7.3c-5.2-1.3-8.8-4.6-11.4-9.2c-0.9-1.5-1.8-3.3-0.6-5c1.3-1.9,3.2-1,4.9-0.6
		c1.6,0.4,3.1,1,4.7,0.9c5.9-0.3,10.4-3.3,13.9-7.7c5.4-6.8,3.2-14-5.3-18.4C492.2,559.9,491.6,557.4,497.1,552.7z"/>
	<path class="st5" d="M403.3,453.2c1.5-0.5,2.9-1.1,5.3-2c-2,3.8-3.7,6.6-5.2,9.6c-6.7,14-8.6,28.4-2,43c0.9,2.1,0.7,3.2-1.7,2.9
		c-9.1-1.4-18.4-1.5-27.2-4c-8.5-2.4-12.1-7.2-13.9-17.4c-1.4-7.8,3.1-15.9,10.2-19.3c6.4-3.1,12.9-5.9,20.1-7
		c1.9,0.5,0.4,1.2,0,1.7c-18.7,8.5-17.2,26.6-8.5,38c1.4,1.9,2.9,4.3,5.8,1.6c6.3-0.4,6.3-0.4,5.3-6.9c-0.5-3-1.5-5.9-0.7-9
		c0.7-2.3,2.9-2.7,4.8-3.6c0.5,0-0.2-0.8,0-0.2c0.1,0.3-0.1,0.3-0.4,0.3c-1.5,0.4-2.4-0.4-3.1-1.5c-0.2-9.5,3.4-17.5,9.6-24.4
		C402.2,454.4,402.8,453.9,403.3,453.2z"/>
	<path class="st6" d="M423.9,516.7c-7.5,6.7-7.5,6.7-11.5,23.6c2.1-0.5,3.5-2.3,5.6-2.2c0.5,1.3-0.3,2.2-1,3.1
		c-5.2,7-6.5,14.3-1.4,22c0.5,0.7,0.7,1.4,0.4,2.3c-5.2-0.7-6.9-4.7-8.3-10c-2.2,5.6-4.2,10.4-5.9,15.2c-1.2,3.5,0.4,6.2,3.3,8.4
		c4.5,3.3,9.7,5,14.9,6.8c-8.3,0.1-16-1.9-22.9-6.5c-5.1-3.4-5.7-5.9-2.2-10.8c5.3-7.6,10.7-15.1,13.1-24.2c2.2-7.9,3.9-16,4-24.3
		c0.1-4.8,2.3-5.1,5.7-4.4C419.7,516.3,421.8,516.6,423.9,516.7z"/>
	<path class="st0" d="M348.3,434.8c-24.3,29.5-26.7,60.3-8.2,91.9c-6.8-3.2-15.5-16.4-16.9-26.6c-1.5-11.2-1.5-22.2,2-32.9
		c3.8-11.5,8.4-22.6,18.6-30.3C345.2,435.9,346.4,434.9,348.3,434.8z"/>
	<path class="st6" d="M497.1,552.7c-0.1,0.2-0.1,0.3-0.2,0.5c-3.3,6.8-4.3,5.6,3.2,9.2c-0.9,1.4-2.6,1.2-3.9,1.7
		c-5.8,2.3-9.6,6.4-11.1,12.5c-1,4.3,0.3,7.9,3.4,11c1,1,2.8,1.2,2.7,3.1c-2.2,0.5-4.1-0.5-6.2-1.1c-1.1-0.3-2.1-1.3-3.1-0.2
		c-1,1.1,0,2.1,0.4,3.1c2,5.2,6.7,7.7,10.9,10.8c-6,0.6-11.9-0.7-17.7-2.1c-7.1-1.7-10.5-9.3-4-14.9c10.2-8.8,16.7-19.8,18.9-33.3
		C491.2,548.5,494.8,552.3,497.1,552.7z"/>
	<path class="st4" d="M496.9,504c-4.6,1.2-6.3,5.4-7.1,8.9c-2.8,11.8-3.1,23.6,5.3,33.8c-8.7-1.4-10.7-8.5-12.5-15.3
		c-2.2-8.2-1.5-16.5,0.5-24.7c0.7-2.9,2.1-3.9,4.6-3.7C490.8,503.3,494.1,501.8,496.9,504z"/>
	<path class="st7" d="M545.8,509c-5.5,9.8-10.1,20.1-19.1,28c-0.9-7.5-4.3-14.7,2.4-21C533.9,511.8,538.4,507.6,545.8,509z"/>
	<path class="st8" d="M568.2,506.9c0.3,11.1-4.9,20.3-10.9,29c-3.9,5.6-8.2,10.8-15.3,12.8c-0.3-2.8,1.8-4.4,3.3-6.2
		c7.3-9.4,13.1-19.4,14.3-31.5c0.1-1.3,0.7-2.5,1-3.8c0.5-2,1.7-3.6,3.8-3.9C567,502.9,567.6,505,568.2,506.9z"/>
	<path class="st6" d="M464.8,518.6c0,0.4-0.1,0.7-0.1,1.1c-1,1.5,0.2,3.3-0.9,4.8c-1.8,16.6-7.3,31.9-16.6,45.9
		c-0.9,1.4-2.2,2.5-2.9,4l0.1-0.1c-1.1,1.3-2.3,1.7-2.5-0.5c-0.2-1.8,0.9-3.4,1.8-5c6.4-12.1,10.3-25,13.4-38.3
		c0.9-4-0.3-8.1,0.9-12l-0.1,0.1c0.8-0.8,1.1-2,2-2.7c1.2-0.8,2.2-2.3,3.8-1.4C465.5,515.3,465.8,516.9,464.8,518.6z"/>
	<path class="st4" d="M502,504.4c1.1,0.3,1.7,0.4,2.3,0.6c6.4,2.2,6.8,2.9,5.3,9.8c-2,9.9-0.1,17.7,6.4,25.5
		c-6.9,0.2-12.2-4.7-12.9-12.8c-0.3-3.8-0.8-7.7-1.1-11.5C501.8,512.4,502,508.7,502,504.4z"/>
	<path class="st2" d="M568.2,506.9c-1.2-1.1-1.6-3.6-4-2.7c-1.8,0.7-2.6,2.2-2.8,4.2c-1.1,11.7-5.7,22.1-12.6,31.5
		c-2.2,3-4.5,5.9-6.8,8.8c-0.7,0.4-1.4,0.8-2.1,1.1c-1.7,0.9-3.9,2.1-5.1-0.1c-0.9-1.7,1.5-2.5,2.4-3.5
		c10.5-11.7,18.9-24.5,22.2-40.2c0.5-2.6,1.1-4.5,4.4-4.2C567.1,502.2,568.6,503.6,568.2,506.9z"/>
	<path class="st3" d="M522.5,598.6c-3.8,3.9-8.6,5.1-15.3,6.2c6.3-7.7,11.4-14.8,13.9-23.2c2.6-8.5,2.9-17.3,3.5-26.1
		c5-0.9,5.9,1.6,5.7,5.9c-0.3,8.6,0.2,17.3-3,25.6c-1.9-1.9-1.1-4.2-0.9-6.5c0.7-6.5,2.1-13,0.7-19.7
		C527.2,573.6,525.5,586.2,522.5,598.6z"/>
	<path class="st3" d="M458,518.5c2.7,16.5-4.9,30.7-10.5,45.3c-1.2,3.2-3,6.1-4.5,9.1c-1.1,2.2,0.2,1.6,1.4,1.3
		c-3.1,6.9-6.3,9.7-13.6,11.4c3.1-5.4,7-9.8,10-14.9c7-11.4,9.8-24.1,13.2-36.6C455.6,529,455.5,523.4,458,518.5z"/>
	<path class="st9" d="M403.3,453.2c-3.1,5.8-7.5,11-9,17.7c-0.6,2.8-1.7,5.5-1.8,8.4c-0.5,0.7-1.2,0.8-2,0.8
		c-3.9-1.4-7.7,1.8-11.6,0.6c-1.2-1.5-0.7-3.1-0.1-4.6c2.2-6,4.5-12.1,9.9-16.2c0.6-0.2,0.9-0.5,0.2-1
		C393.1,455.7,398.5,455.4,403.3,453.2z"/>
	<path class="st2" d="M440.5,397.6c2.4-2,5.3-0.8,7.9-1.1c1.6-0.2,1.8,0.9,1.8,2.2c-0.6,10.8-1.6,21.6-3.2,32.4
		c-0.1,0.8-1,0.5-1.6,0.5c-1.3-0.3-2.2-1.3-2.9-2.4c-5.2-8.2-7.2-17.1-5.4-26.7C437.4,400.2,438.4,398.5,440.5,397.6z"/>
	<path class="st4" d="M551.3,404.2c1.5,11-0.8,21.1-0.6,31.3c0.1,2.8-2.7,2.2-4.3,2.8c-1.4,0.6-2.6-0.3-2.4-2
		c1.4-9.8-0.1-20.1,4.9-29.3C549.4,406.2,550.2,405.6,551.3,404.2z"/>
	<path class="st4" d="M440.5,397.6c-4.6,6.4-2.8,13.3-1.6,20.2c0.8,5.2,3.8,9.4,6.5,13.7c-2.4,0.8-4.8,1.7-7.4,2.6
		c-2.6-9.3-4.6-18.6-4.4-28.3C433.7,401.2,435.6,398.2,440.5,397.6z"/>
	<path class="st2" d="M525.5,507.9c2-0.3,3.8-0.2,5.4,1.5c-2.3,3.5-6.3,5.9-8.5,10c-2.1,3.9-2.1,7.4-0.2,11.2
		c0.8,1.6,2.7,3.5,0.3,5.5c-8.4-4.8-10.3-19-3.6-25.7C520.7,508.5,523.2,508.7,525.5,507.9z"/>
	<path class="st10" d="M371.1,452.1c0,1.5,0.1,3.1-1.6,3.6c-1.3,0.4-2-0.8-2.7-1.6c-4.3-5-7.8-10.5-10.7-16.5
		c-0.7-1.3,0.1-2.1,0.4-3.1c2.1-1.9,4-0.1,4.9,1C365.4,440.5,369.7,445.5,371.1,452.1z"/>
	<path class="st8" d="M453.5,396.7c5.8,3.5,4.9,9.2,4.3,14.1c-0.9,7.3-2.7,14.5-5.8,21.5C451.2,420.4,454.2,408.6,453.5,396.7z"/>
	<path class="st6" d="M522.5,598.6c-1.3-0.9-1-2.2-0.7-3.5c2.7-10.8,3.9-21.8,3.6-33c0-0.6,0-1.3,0-1.9c0.1-1.5,0.1-3.2,2.1-3.1
		c1.6,0.1,1.7,1.6,1.8,3c0.4,7-0.3,13.9-1.4,20.7c-0.3,2.1-0.4,4.2-0.5,6.2c0,0,0-0.1,0-0.1c-1.2,3.3-1.8,6.9-4,9.8
		C523.4,597.5,523.3,598.3,522.5,598.6z"/>
	<path class="st4" d="M512.3,502.4c0.4-1.1,1.3-1.4,2.3-1.4c10.2,0.4,20.3-1.7,30.5-1c1.2,0.1,3.3-1,3.3,1.3c0,1.7-1.5,2.3-3.4,2.6
		c-5.8,1.1-11.4,0.9-17.2,0.1C522.7,503.4,517.4,503.9,512.3,502.4z"/>
	<path class="st2" d="M545.9,443.4c4.4-2.5,8,0.4,11.8,1.9c-5.9,3.2-1.4,6.4,0,9.6c-4.1,2.2-8.4,0.7-12.6,1
		C541.8,451.4,542.1,448.1,545.9,443.4z"/>
	<path class="st4" d="M525.5,507.9c-12.2,3.8-11.1,18.8-5.1,25.6c0.7,0.8,1.4,1.7,2.1,2.6c-3.5,1.7-5.1-1.3-6.3-3.2
		c-5.2-7.9-4.1-16.1-0.8-24.4c0.9-2.3,3-2,4.5-1.4C521.7,507.9,523.6,507.6,525.5,507.9z"/>
	<path class="st4" d="M545.9,443.4c-1.3,4.1-2.7,8.2-0.9,12.6c-3.5,0.1-6.9,0.2-10.5-0.7c-2.8-0.7-2.4-1.6-1.5-3.6
		C535.4,445.7,540.3,444,545.9,443.4z"/>
	<path class="st2" d="M557.3,403.8c0.3,11.7,0.6,23.3-3.7,34.5C554.1,426.7,553.8,415.1,557.3,403.8z"/>
	<path class="st11" d="M557.6,454.9c-0.9-0.7-1.9-1.2-2.6-2c-1.3-1.4-2.7-3-2-5c0.7-2,2.5-2.8,4.6-2.6c3.9,0.9,5.2,4.4,5.4,7.4
		C563.5,457,559.6,454.4,557.6,454.9z"/>
	<path class="st2" d="M444.4,435.7c5-0.7,9.1,1.3,14.4,4.6c-5.3,0-9.4,0-13.4,0C443.1,439.2,443,437.6,444.4,435.7z"/>
	<path class="st4" d="M444.4,435.7c-0.2,1.7-0.2,3.3,1,4.6c-2.5-0.3-6.8,1.5-7.2-0.9C437.7,436.6,442.2,436.9,444.4,435.7z"/>
	<path class="st3" d="M464.8,518.6c0-1.4,0.1-3.1-1.6-3.6c-1.5-0.4-2.1,1.1-3.1,1.8c-0.7,0.6-1.5,1.1-2.2,1.7
		c-0.3-4.2,3.5-5.6,5.8-5.4C467.3,513.3,466,516.4,464.8,518.6z"/>
	<path class="st3" d="M523.4,596.7c1.2-3.3,2.1-6.8,4-9.8C527.1,590.6,526.7,594.2,523.4,596.7z"/>
	<path class="st3" d="M444.4,574.3c0-2,1.3-3.1,2.9-4C447.3,572.4,445.8,573.3,444.4,574.3z"/>
	<path class="st3" d="M463.9,524.4c0.3-1.6-0.7-3.4,0.9-4.8C464.6,521.3,465.6,523.1,463.9,524.4z"/>
	<path d="M413.1,488.3c1.8,1.7,4,1.1,6,0.8c12.1-1.5,24.2-2.7,36.3-0.7c0.2,0,0.4,0.5,0.6,0.7c-8.4,3.1-17.3,2.9-26,3.9
		c-4.4,0.5-9,0.2-13.4,1c-2.2,0.4-4.4,0.1-6.6-0.8c-1.7-0.7-3.8-1.5-3.2-3.4c0.6-2.1,2.5-3.4,5-1.7
		C412,488.3,412.6,488.2,413.1,488.3z"/>
	<path class="st12" d="M510.5,468.7c-4.6,0-9.1,0-13.7,0c-1.7,0-3.9,0.4-4.4-1.9c-0.6-2.4,0.5-4.4,2.6-5.8c1.4-0.9,3-1.1,4.7-1.1
		c19.1-0.1,38.2,2.7,57.3,2c1.5-0.1,3.1,0.2,3.4,2c0.3,1.9-1.1,3-2.7,3.6c-0.7,0.3-1.6,0.2-2.4,0.2
		C540.4,467.1,525.5,468.9,510.5,468.7z"/>
	<path class="st13" d="M521.5,480.5c9.9,0,19.8,0,29.7,0c1.6,0,3.7-0.4,4,1.8c0.3,2.3-2.1,2-3.5,2.6c-0.7,0.3-1.6,0.4-2.4,0.5
		c-18.6,1.3-37.2,1-55.9,1c-1.3,0-2.6-0.3-3.7-0.8c-1.5-0.6-3.3-1.4-2.9-3.4c0.4-2.1,2.5-1.7,4-1.7
		C501.1,480.5,511.3,480.5,521.5,480.5z"/>
	<path class="st12" d="M428.2,459c-1.2-0.1-3.1,0.4-4-1.4c-0.8-1.7,0.4-3.2,1.3-4.4c0.9-1.1,2-2.3,3.3-2.9c13.5-5.8,26.9-5,40.1,1.4
		c1.1,0.5,2.9,0.9,2.5,2.5c-0.4,1.4-2.1,1.8-3.6,1.9c-4.5,0.2-9,0.4-13.5,0.7C445.5,457.4,437,458,428.2,459z"/>
	<path class="st13" d="M439.1,474.6c4.4,0.5,9.4-0.9,14.3,0.9c1.6,0.6,3.3,1.2,3.2,3.1c0,1.6-1.5,2.5-2.9,2.9
		c-11.2,3.4-22.5,5.5-34.2,1.9c-1.8-0.6-3.6-1.5-3.4-3.6c0.3-2.6,2.7-3.5,4.9-4.1C426.8,474.1,432.6,474.7,439.1,474.6z"/>
	<path class="st4" d="M653.4,472.6c1.9,4.2,1.1,8.7,0.7,12.9c-1.2,11.2-2.4,22.4-6.7,32.9c-0.4,0.9-0.7,1.8-1.2,2.7
		c-3.5,7.1-7.9,8.7-14.8,5.1c-3.4-1.8-6.6-3.9-9.3-6.6c-2.7-3.8-4.1-8.2-5-12.6c-4.8-22.9-4.7-45.8,1.9-68.4
		c0.7-2.3,0.7-5.3,4.1-5.9c3.4-2.2,6.7-4.3,10.1-6.5c3-2,5.7-1.1,7.6,1.4c7.6,9.9,11.1,21.2,11.5,33.5c-2.7-0.8-2.2-3.3-2.7-5.2
		c-0.9-3-1.4-6-3.5-8.5c-1.9-2.2-3.8-2.2-5.7,0c-1.6,1.8-2.3,3.9-2.9,6.1c-4.2,15.7-4.2,31.5,0,47.2c0.9,3.3,1.8,7.6,5.7,7.6
		c3.9,0,4.8-4.3,5.7-7.6c2-7.2,2.8-14.7,3.2-22.1C652.1,476.4,651.6,474.2,653.4,472.6z"/>
	<path d="M653.4,472.6c-0.1,10.2-0.9,20.2-3.8,30.1c-1.1,3.6-2.9,7.6-6.4,7.7c-3.8,0.1-5.6-4-6.7-7.8c-5-17.2-4.9-34.3,0.1-51.4
		c1.1-3.6,2.9-7.4,6.6-7.4c3.3,0,5.3,3.7,6.3,7.2c0.9,3.4,1.8,6.7,2.8,10.1C652.6,464.9,653,468.7,653.4,472.6z"/>
	<path class="st4" d="M617.2,513.7c-11.6-5.7-20.8-13-22.6-27.2c-1.6-12.4,0.5-23.7,7-34.2c3-4.9,7.7-8.2,12.7-10.9
		c1.4,1.6,0.7,3.4,0.4,5.1c-1.8,10.6-2.9,21.2-2.9,32c0,10.5,1.4,20.7,5.1,30.6C617.5,510.6,618.4,512.1,617.2,513.7z"/>
	<path d="M617.2,513.7c-6-13.5-7.6-27.8-6.7-42.3c0.6-10,1.3-20.1,3.8-29.9c3.1-5,5.8-10.4,10.4-14.6c0.6,2.5-2,3.7-1.6,5.8
		c-3.7,5.4-4.5,11.9-5.6,18.1c-1.4,7.7-2.2,15.5-2.2,23.5c-0.1,15.5,2.1,30.6,6.9,45.4C619.3,518.5,619,515.4,617.2,513.7z"/>
	<path class="st6" d="M425.2,581.2c5-9.2,8.8-18.8,12.2-28.6c2.2-6.4,3.6-13,4.8-19.7c0.6-3.4-0.6-6-4.9-7
		c-3.5-0.8-7.3-1.5-10.5-3.5c-0.8-0.5-1.9-0.9-1.5-2.1c0.3-1,1.3-0.9,2.1-0.8c6.2,0.6,12.2-1.3,18.4-1.1c3.7,0.1,4.7,1.3,3.9,5.1
		c-3.5,17.1-9.3,33.3-17.2,48.8C430.8,575.9,428.5,579,425.2,581.2z"/>
	<path d="M416,565.4c-7.2-9.1-6.7-16.7,2-27.3c0.5-0.1,1-0.2,1.4-0.4c4.3-1.7,9-3.3,12.7,0.5c4,4.1,4.4,9.4,2.8,14.8
		C431.7,563.3,424.6,567.9,416,565.4z"/>
	<path d="M491.3,590.7c-8.7-4.2-10.6-13.8-4-21.7c3.2-3.9,7.2-7,12.8-6.6c5.1,1.6,8.2,5.1,8.7,10.5c0.6,6.8-3.4,11.3-8.4,14.8
		C497.7,589.5,494.7,590.9,491.3,590.7z"/>
	<path class="st6" d="M515.3,574.6c-2.2-5.5-2.1-11.6-6-16.3c-0.6-0.7-0.1-1.6,0.7-2c2.6-1.6,5,0.3,7.5,0.6c1.5,0.2,2.2,1.5,2,2.9
		C518.9,564.8,518.3,569.9,515.3,574.6z"/>
	<path d="M388.6,460c-3.9,6.5-8.6,12.6-9.6,20.4c1.3,1.6,1.3,3.7,1.9,5.6c0.4,5.4,4,9.7,5,14.9c1.2,3.1,0.1,3.6-2.5,2.2
		c-4.4-2.2-6.3-6.4-8-10.5C369.6,479,374.3,465,388.6,460z"/>
	<path class="st9" d="M363.3,485.4c-2.9-7.7,2.7-16.9,12.6-19.6c-6.6,10.9-6.1,21.5-0.4,32.2c-6.3-1-9.2-3.1-12.2-8.8
		c1.1-1.4,3.2-1,4.3-2.6C366.4,485.1,364.4,486.8,363.3,485.4z"/>
	<path class="st14" d="M385.9,500.9c-3.3-4.3-5.6-9-5.9-14.5c1.3-1.5,3.3-1.3,4.9-2c2.2-0.5,4.5-1.9,6.7,0
		c-0.2,4.2,0.9,8.2,1.7,12.3c0.3,1.5,1.9,3,0.4,4.5c-1.4,1.4-3.2,0.9-5,0.4C387.8,501.2,386.8,501.1,385.9,500.9z"/>
	<path d="M391.6,484.3c-2.3,0.4-4.5,0.8-6.8,1.1c-1.7,0.7-2.9,0-3.3-1.7c-0.4-1.4,0.5-2.5,1.8-3.1c2.3-1.1,4.8-1.9,7.4-1.4
		c0.6,0,1.2,0,1.9,0c1.1,0.5,2.2,1.1,3.4,1.6C395.2,483,392.6,482.7,391.6,484.3z"/>
	<path d="M363.3,485.4c2-0.3,3.9-2,6-0.2c0.5,0.4,0.9,1.1,0.5,1.7c-1.6,2.2-3.9,2.6-6.5,2.4C362.3,487.9,362.4,486.6,363.3,485.4z"
		/>
	<path class="st15" d="M392.9,461.4c1.5,0.5,1.9,1.6,1.4,2.7c-1.2,3-2.4,6-3.9,8.9c-1.1,2-2.9,2.4-4.2,0.3c-1.4-2.3,0.5-4.3,1.5-6.3
		C388.9,464.6,390.9,463,392.9,461.4z"/>
	<path class="st5" d="M390.6,479.4c-2,0.6-4.1,1.1-6,1.7c-1,0.4-2.3,0.8-2.4,2.1c-0.1,1.7,1.3,2,2.6,2.3c-1.4,1.4-3.2,0.6-4.8,0.9
		c-1.4-1.8-1.2-3.9-1-6C382.9,480.1,386.5,477,390.6,479.4z"/>
	<path class="st8" d="M445.6,424.1c-2.8-6.5-3.6-13.1-3.1-19.8c0.1-1.1,0.6-2.2,1.1-3.2c0.7-1.2,1.5-2.8,3.3-2.2
		c1.4,0.5,1.4,2,1.4,3.3C448.4,409.6,447.5,416.9,445.6,424.1z"/>
	<path class="st1" d="M427.9,558c-2.4-5.4-4.6-10.4-6.8-15.4c-0.6-1.5,0.8-1.5,1.5-1.8c3.8-2,8.4,0.4,8.9,4.7
		C432.1,549.8,431.3,553.9,427.9,558z"/>
	<path class="st1" d="M417.2,545.4c2.8,5.5,5.2,10.5,7.7,15.4c-3.3,1.9-6.1,2.3-8.7-0.6C413.2,556.9,413.4,551.8,417.2,545.4z"/>
	<path class="st1" d="M488.5,581.1c-0.3-6.8,2.6-11.7,7.3-14c2-1,3.7-1,5.1,0.8c1.8,2.2-0.8,2.7-1.7,3.6c-1.6,1.7-3.1,3.6-5.3,4.9
		C492.1,577.4,490.6,579.2,488.5,581.1z"/>
	<path class="st1" d="M503.6,572.4c0.2,5.6-5.1,12.7-9.9,13.3c-0.8,0.1-2-0.3-2.6-0.9c-1.2-1.1,0.4-1.6,0.9-2
		C495.7,579.3,499.6,575.9,503.6,572.4z"/>
</g>
</svg>
