<?xml version="1.0" encoding="utf-8"?>
<!-- Generator: Adobe Illustrator 23.0.1, SVG Export Plug-In . SVG Version: 6.00 Build 0)  -->
<svg version="1.1" id="Layer_4" xmlns="http://www.w3.org/2000/svg" xmlns:xlink="http://www.w3.org/1999/xlink" x="0px" y="0px"
	 viewBox="0 0 1000 1000" style="enable-background:new 0 0 1000 1000;" xml:space="preserve">
<style type="text/css">
	.st0{fill:#870606;}
	.st1{fill:#4D576A;}
	.st2{fill:#898B9C;}
	.st3{fill:#585858;}
	.st4{fill:#06853D;}
	.st5{fill:#B1B6A6;}
	.st6{fill:#5D6652;}
	.st7{fill:#512800;}
	.st8{fill:#043F1D;}
	.st9{fill:#373737;}
	.st10{fill:#06C961;}
	.st11{fill:none;}
	.st12{fill:#E6EADD;}
	.st13{fill:#06CB63;}
	.st14{fill:#7F4000;}
	.st15{fill:#049945;}
	.st16{fill:#DEDCA8;}
	.st17{fill:#C5C27B;}
	.st18{fill:#CACED7;}
	.st19{fill:#7F7849;}
	.st20{fill:#C5C27C;}
	.st21{fill:#033217;}
	.st22{fill:#065A2A;}
	.st23{fill:#032B14;}
	.st24{fill:#D7D59C;}
	.st25{fill:#E2E6D9;}
	.st26{fill:#DEDCA7;}
	.st27{fill:#055025;}
	.st28{fill:#065C2B;}
	.st29{fill:#F80606;}
	.st30{fill:#ED0606;}
	.st31{fill:#CDD1DA;}
	.st32{fill:#969FB2;}
	.st33{fill:#804000;}
	.st34{fill:#DF6F00;}
	.st35{fill:#FEFEFE;}
</style>
<g>
	<path d="M703.3,515.3c-0.2,0.1-0.4,0.3-0.5,0.4c-0.2,0.2-0.4,0.4-0.5,0.6c0,0,0,0,0,0c-1.5,1.6-2,3.8-2.8,5.8c0,0,0,0,0,0
		c-0.2,0.4-0.3,0.8-0.5,1.2c-0.2,0.3-0.3,0.6-0.5,0.9c-5.3,10.8-14.7,15.5-25.9,17.3c-1.6,0.3-3.5,0.3-4-1.7
		c-0.5-1.7,1.1-2.6,2.4-3.3c2.5-1.3,5.1-2.3,7.2-4c2.8-2.3,5.7-4,9.7-3.3c1.9,0.4,5,0,5.4-2.1c0.4-2.2-2.8-2-4.3-3
		c-0.2-0.1-0.3-0.2-0.5-0.3c-0.1-0.1-0.2-0.1-0.4-0.2c0,0,0,0,0,0c-1.8-1.2-1.6-2.9-1.1-4.6c0.5-2.2,1-4.4,1-6.6c0-0.3,0-0.5,0-0.8
		v-0.1c-0.2-2.1-0.2-4.4-2.8-4.9c-2.3-0.4-3.2,1.6-4.4,3.1c-0.2,0.3-0.4,0.5-0.5,0.8c-0.3,0.5-0.5,0.9-0.9,1.4
		c-0.2,0.3-0.4,0.5-0.6,0.8c-0.6,0.8-1.3,1.4-2,2.1c0,0-0.1,0.1-0.1,0.1c0,0.1-0.1,0.1-0.2,0.2c-0.1,0.1-0.1,0.1-0.2,0.2
		c0,0-0.1,0.1-0.1,0.1c-1.9,1.7-4.1,2.7-6.5,3.4c-0.2,0.1-0.3,0.1-0.5,0.1c-0.1,0-0.3,0.1-0.5,0.1c-12.9,3.3-12,5.3-15.9-9.2
		c-0.1-0.3-0.1-0.6-0.2-0.9c0,0,0,0,0,0c0-0.1,0-0.2,0-0.3c-0.1-2.5,2-2.1,3.6-2.5c4-0.8,8.1-1,11.8-3c0.1,0,0.2-0.1,0.3-0.2
		c0,0,0.1,0,0.1-0.1c0.5-0.4,1.1-0.7,1.7-1c0.1-0.1,0.2-0.1,0.3-0.2c0.9-0.5,1.9-1.1,2.7-1.8c3.3-2.7,6.8-5.4,8-9.4c0,0,0,0,0,0
		c0.2-0.5,0.3-1,0.4-1.6c0.1-0.8,0.1-1.6,0.1-2.4c-0.2-0.5-0.5-0.8-0.9-1.1c0,0-0.1,0-0.1-0.1c-0.1-0.1-0.2-0.1-0.3-0.1
		c-1.7-0.6-3.3,0.1-4.7,1c-2.3,1.5-4.8,2.3-7.4,2.9c-0.3,0.1-0.6,0.1-0.8,0.2c-0.1,0-0.2,0-0.3,0.1c-4.6,1.3-9.3,0.9-14,1
		c-2.4,0-3.8-0.8-4.1-2.8c0-0.1,0-0.3,0-0.5c0-0.3,0-0.5,0-0.8c-0.9-4.6-0.9-9.3-0.9-14v-0.4c0.1-3.2,2.1-4,5-4
		c5.5,0,10.9,0,16.4-0.1c1.4,0,2.8,0,4.3-0.1c0,0,0,0,0,0c0.6,0,1.2,0,1.8,0c1.4-0.2,2.6-0.7,3.4-1.6c0.5-0.6,0.8-1.3,0.8-2.2
		c0.1-0.8,0-1.6-0.3-2.2c-0.5-1.2-1.5-2.1-2.7-2.9c-1.5-1-3.2-1.8-4.9-2.3c0,0,0,0,0,0c-0.8-0.3-1.6-0.5-2.4-0.8h0
		c-0.4-0.1-0.9-0.2-1.3-0.3c0,0,0,0,0,0h0c-0.2-0.1-0.4-0.1-0.6-0.2c-0.1,0-0.3-0.1-0.4-0.1c-0.2-0.1-0.4-0.1-0.6-0.2
		c-0.8-0.2-1.5-0.4-2.3-0.4c-1,0-2-0.1-3-0.3c0,0,0,0,0,0c-0.8-0.2-1.6-0.3-2.4-0.5c0,0,0,0,0,0c-0.6-0.1-1.1-0.2-1.7-0.2
		c-9.1-0.6-9.1-0.7-8-9.4c0.1-0.3,0.2-0.7,0.2-1c0.1-0.3,0.1-0.6,0.2-0.9c0.3-1.5,0.4-3,1.2-4.3c0,0,0,0,0,0c0.3-0.5,0.7-1,1.3-1.4
		h0c0.4-0.3,0.9-0.5,1.5-0.7c8.7,0.5,17,2.2,23.6,8.4c1.2,1.2,2.8,1.8,4.4,0.7c0.6-0.4,1.1-0.8,1.5-1.4c0,0,0,0,0,0
		c0.4-0.6,0.7-1.3,0.7-2.1c0,0,0,0,0,0c0-0.3,0-0.7,0-1.1c-0.1-1.3-0.6-2.5-1.2-3.7c-3.4-6.8-7.9-12.5-15.1-15.6
		c-0.2-0.1-0.4-0.2-0.6-0.2c0,0,0,0,0,0c-2.2-1-4.4-1.8-6.8-2.4c-2.5-0.6-2-1.8-1-3.1c0.1-0.1,0.1-0.2,0.2-0.3
		c0.1-0.1,0.2-0.1,0.3-0.2c4.5-4.1,9.1-8.2,16-6.2c0.1,0,0.2,0.1,0.3,0.1c0,0,0,0,0.1,0c6.3,1.4,11.7,4.2,15.5,9.8
		c2.1,3.1,3.5,6.4,5.2,9.7c0.1,0.2,0.2,0.3,0.3,0.5c0,0,0,0,0,0c0.3,0.5,0.6,0.9,0.9,1.3c0.1,0.2,0.3,0.3,0.5,0.4
		c0.2,0.2,0.5,0.3,0.7,0.4c4.4,0.2,8.8,0.4,13.2-0.9c-0.7-3.5-1.1-7.2-2-10.7c-4.1-15.6-11.9-28.2-28.5-32.8
		c-5-1.4-10.2-2.4-15.6-0.8c-5.9,1.8-7.2,6.6-8,12.3c-4.5-7.7-4.7-7.9-7.8-9c-8.3-2.9-19.2,1.5-25.1,9.4c-3.8,5.1-6.2,10.9-9.4,16.3
		c-5.5,9.2-10.2,19-19.5,25.3c-1.3,0.9-1.9,1.8-4,1c-7.4-2.7-14.4-1.5-19.2,6.5c-2.7-2.2-4.6-5.5-8.1-6.7c-2-0.6-1.3-2.1-1.1-3.2
		c1.9-11.5,3.1-23.2,2.9-34.9c-0.1-3.8-1.3-7-4.7-8.8c-5.3-2.8-12.6-1.4-16.6,3.2c-4.5,5-7,11.2-7.9,17.8c-1,6.6-1.4,13.3-2,20
		c-0.1,1.5-0.7,2.4-2.1,2.8c-3.8,1.2-6.4,4.3-7.5,7.6c-1.8,5.4-5.7,4.3-9.3,4c-10.7-1-21.3-2.9-32-1.1c-1.2,0.2-1.7-0.2-2.5-0.8
		c-4.4-3.5-8.6-7.4-13.7-10.2c-3-1.7-7.1-3.5-4.8-10c3-8.7,4.3-18.3,3.5-27.9c-0.5-5.7-4.1-9.2-9.8-10.5c-4.8-1.1-9.6-1.1-14.4-0.8
		c-8.6,0.5-15.1,4.4-17,13.4c-2.3,10.8,0.4,21.3,1.5,31.9c0.2,2.2,0.2,3-1.7,3.4c-14,2.9-27.3,8.1-40.7,12.9c-3.3,1.2-4.1,0.3-5-2.4
		c-1.4-4.5-4-8.5-6.8-12.3c-8.5-12-20-13.9-30.7-7.5c-8.7,5.2-15.9,12.4-20.2,22.1c-6.7,14.9-9.7,30-8,46.6
		c1.4,14,6.1,25.6,16.2,35.3c10.4,9.9,25.6,9.9,35.8-0.3c4.4-4.4,8.1-9.3,11-14.9c0.7-1.4,1.5-2.7,3.6-2.3
		c5.8,1.1,11.7,1.7,17.5,2.1c2.5,0.2,4.2,1.3,4.2,4.8c-0.1,16.8-5,31.6-16.4,44.3c-5.6,6.2-3.6,15,0.9,18.9
		c5.2,4.5,11.2,7.4,17.8,9.2c5.9,1.6,12,1.5,17.9,2.3c9.5,1.3,18.1-0.7,24.6-8c6-6.7,10.4-14.6,14.5-22.6c6-11.8,10-24.3,11.4-37.7
		c0.5,7.5,3.3,14.1,7.2,20.3c1,1.6,0.9,2.8,0.7,4.4c-1.9,12.7-9.2,22.3-17.6,31.2c-7.9,8.4-6.2,19.5,4,24.5
		c4.4,2.2,8.8,3.7,13.9,4.2c11.8,1.2,23.5,2.7,35.4,0.8c8.9-1.5,19.3-11.5,20.3-20.2c0.9-8.6,1.6-17.2,1.9-25.9
		c0.2-4.1,0.1-6.8,5.3-8.7c18.2-6.8,26.8-21.8,30.9-39.9c0.6-2.9,1.7-2.8,3.7-2c3.1,1.2,6.3,1.8,9.2,0.3c3.9-2.1,6.8-0.8,9.5,2
		c1.9,2,4.1,3.4,6.5,4.7c3.6,2,6.1,4.8,8.1,8.6c2.7,5.2,5.5,10.6,11.7,13.2c2,0.8,3.5,3.1,4.7,5.3c3.1,6,7.5,10.6,14.5,11.5
		c3,0.4,6.2,0.1,9.2,0.3c5.9,0.4,10.2-1.7,12.2-7.6c2.3,2.6,3.9,5.8,7.7,6.8c9.7,2.5,17.8-1,24.8-7.1c11.6-10.3,17.1-23.9,20-38.8
		C712.3,513.8,707.9,515.9,703.3,515.3z M529.2,516.1c4.7-4.3,9.2-8.5,16.6-7.1c-5.5,9.9-10.2,20.2-19.1,28.1
		C525.9,529.6,522.4,522.4,529.2,516.1z"/>
	<path class="st0" d="M698.4,429.7c4.5-0.2,9-1.7,13.5-0.1c13.1,5.9,19,16.5,20.6,30.4c0.9,7.4,1.1,14.8,0.7,22.1
		c-0.4,7.5-1.1,15.1-4.8,22c-2.6,4.9-6.4,8.6-11.7,10.7c-4.5,1.4-9,3-13.7,1c-1.6,1.2-3.3,0.8-5,0.3c-1.7-0.4-3.3-0.8-4.8-1.7
		c-1.4-1-2.6-2.2-3.8-3.5c-5.4-7.3-8.6-15.4-8.8-24.6c-0.1-0.3-0.1-0.6-0.2-0.9c-1.5-2.2-1.4-4.8-2-7.2c-0.9-8.9,1-17.5,1.8-26.3
		c0.5-5,2.9-9.4,4.3-14.2c1.5-3,3.7-5.3,6.7-6.8C693.5,429.7,695.9,429.2,698.4,429.7z"/>
	<path class="st1" d="M475.6,455.1c2.1,2.4-0.8,3.6-1.6,4.7c-5.6,7.1-7.3,15.2-7.2,24c0,5.1,1.2,9.9,4.8,13.8
		c2.4,2.5,1.5,4.3-0.9,5.8c-7.2,4.8-14.9,7.9-23.7,8.5c-8.2,0.6-16.3,0.9-24.5,0.2c-10.9-1-15.8-7.5-19.4-16.7
		c-3-7.7-1-14.9,0.6-22.2c1.3-5.9,3.8-11.5,7.3-16.6c4.2-6.1,9.4-10,16.7-11c-0.2,3.6-3,5.6-5,7.9c-8,9-11.8,19-9.3,31.1
		c0.3,1.4,0.7,2.9-0.5,4.1c-1,0.6-2.2,0.4-3.2,1c-0.3,0.2-0.4,0.5-0.5,1.2c2.6,2.5,6,2,9.4,1.7c11.8-1.2,23.7-1.2,35.3-3.9
		c0.8-0.2,1.6,0,2.3,0.6c-0.5,3.7-3.6,4.3-6.4,4.8c-9.9,1.8-19.9,2.4-30,2c11.8,0.4,23.4-0.4,35-2.8c5.6-1.1,5.5-1.6,5.2-7.1
		c-0.7-12.2,4.6-22,13-30.4C473.6,455.1,474.6,454.7,475.6,455.1z"/>
	<path class="st2" d="M496.1,457c18,0.7,35.8,3.3,53.9,3c5.1-0.1,10.2-1.8,15.4-0.9c0.7,1.7-0.1,3.2-0.7,4.7c-2.9,7-4,14.3-3.4,21.9
		c0.4,4.8-0.4,5.6-5.3,5.9c-20.3,1.3-40.6,1.3-60.8,0c-11.4-0.7-17.3-8.6-14.1-19.7C483.2,464.3,488.1,459,496.1,457z"/>
	<path class="st2" d="M413.1,488.3c-4.1-13.7-0.8-25.5,8.9-35.8c2.1-2.2,3.9-4.7,5.8-7c9.1-1.6,18.1-2.6,27.5-1.3
		c8.5,1.1,15.2,4.2,20.3,10.9c-8.7,7.5-13.7,16.9-14.7,28.4c-0.1,1.1-0.1,2.4,0.3,3.3c2.6,4.9-0.1,6.6-4.4,7.3
		c-12.1,2.1-24.3,3-36.6,2.9c-1.4,0-2.5-0.5-4.1-2c6.2,0,11.7,0.3,17.1-0.1c5.6-0.4,11.2-1,16.8-2.1c2.2-0.4,4.8-1.2,5.9-3.8
		c-12.4-0.5-24.9-0.1-37.3,1.2C416.7,490.6,414,491.5,413.1,488.3z"/>
	<path class="st1" d="M372.9,457.9c-4,3.7-9.5,5-13.4,9.1c-9.9,10.5-5.8,34.1,7.1,39.7c2.7,1.2,3,2.8,1.9,4.9
		c-3,6.2-7.3,11.3-13.1,15.1c-3.4,2.2-6.2,1.5-9.1-1.1c-6.2-5.6-8.5-13.1-10-20.9c-1.3-6.8-3-13.5-2.3-20.5c0.8-1,1.9-1.8,3-2.4
		c5.8-3.3,10.9-7.4,14.3-13.5c3.3-6,8.2-10.5,15.5-11.3C369,456.9,371.1,456.4,372.9,457.9z"/>
	<path class="st3" d="M423.9,516.7c8.3,0,16.6,0,24.8-0.2c3.4-0.1,3.8,1.6,3.3,4.2c-3,14.8-7,29.3-12.9,43.3
		c-2.8,6.7-6.9,12.7-11.4,18.4c-1.9,2.4-4.9,2.9-7.8,3.4c-5.3-0.8-10.4-2.1-14.9-5.3c-4.6-3.3-5.7-6.5-4-11.7
		c1.1-3.4,2.5-6.7,3.9-9.9c0.6-1.3,1.1-3.1,2.7-3c1.4,0,1.8,1.7,2.3,2.9c1.1,3,3.1,4.8,6.2,5.5c6.4,1.5,10.9-0.2,14.7-5.5
		c3.8-5.3,4.4-13.3,1.4-17.9c-1.8-2.8-4.5-3.5-7.6-3.2c-2.3,0.3-4.3,1.3-6.5,1.8c-2.2,0-4.3,3.1-6.2,1.2c-1.7-1.7,0.1-4.3,0.5-6.5
		c0.6-3,1.7-5.9,2.8-8.8C416.9,521.2,419.3,517.9,423.9,516.7z"/>
	<path class="st1" d="M496.1,457c-4.3,3.3-9.5,5.7-12.1,10.8c-1.9,3.7-3.1,7.6-2.3,11.7c1.4,7.4,5,10.6,12.7,10.7
		c14.1,0.2,28.2,2,42.3,0.9c7.1-0.5,14.2-0.8,21.3-0.9c1.8,0,2.7-0.5,2.3-2.6c-1.9-10.1,0.3-19.6,5.1-28.5c1.4,0,2.9,0,4.6,0
		c-1.4,5.2-3.4,9.8-4.6,14.8c-1.7,7.4-0.2,14.4,1.3,21.4c0.5,2.5,0.3,2.7-2.1,2.4c-14.6-1.9-29.2-2.5-43.9-0.7
		c-5.3,0.6-10.6,0.2-15.9,0.8c-7,0.8-14.2,0.3-21.3,1.2c-4.2,0.5-6.7-1.8-8.8-5.4c-6.6-11.5-0.4-28.1,7.1-34.4
		C486,455.7,490.9,454.9,496.1,457z"/>
	<path class="st4" d="M646.6,418.1c-6.7,9.7-7.6,20.9-9,32.1c-1,7.8-1,15.5-0.9,23.3c0.1,13.6,1.7,26.9,4.8,40.2
		c-2,3-2.9,6.8-5.9,9.2c-4.1-1.6-5.9-6.1-10.2-7.7c-3.1-1.2-6.5-1.9-9-4.4c0.1-1.4-1.7-2.5-0.8-4.1c11.2,3.5,17.4,0.3,18.3-9.5
		c2.8-7.9,1-14.7-4.8-20.6c-0.5-0.5-0.5-1.2-0.5-1.8c1.8-3.3,3.5-6.6,5.2-10c-1.7-11.4-10.4-14.3-23.4-5c1.5-4.4,0.5-8.5,2.1-12.4
		c0.6-1.5,1.9-2.1,3.4-2.2c4-0.3,7.2-2.2,10.4-4.4c4.5-1.7,7.6-5.5,11.5-8.2c2.4-6.3-0.6-11.2-7.8-12.7
		C633.6,415.3,642,414.4,646.6,418.1z"/>
	<path class="st5" d="M496.9,504c1.6,9.3,1.6,18.7,2.8,28.1c1.3,10.7,19.1,16.8,27.8,10.1c11.9-9.2,18.7-21.8,23.2-35.8
		c0.3-1.1,0.6-2.1,1-3.2c0.5-1.4,0.9-2.8,3-1.7c1.5,0.8,2.2,1.4,1.5,3.3c-4.3,11.1-8.4,22.3-16,31.7c-2.7,3.3-5.7,6.5-8,10.1
		c-3,4.5-7.9,3.8-11.7,4c-8.5,0.4-17.1-0.8-25.3-3.8c-4.9-2.7-6.5-7.4-7.4-12.4c-1.6-9.5-2-19,3.8-27.5
		C492.9,505.1,494,502.8,496.9,504z"/>
	<path class="st2" d="M372.9,457.9c-10.5-0.8-17.4,4.6-22.1,13.3c-3.7,6.8-9.8,10.4-16.7,13c-0.3-14.1,3.7-26.9,11.6-38.6
		c3-4.4,5.5-9,10.7-11.2c1.8,6.5,5.9,11.7,9.7,17.1c1.5,2.1,3.1,2.7,5,0.5C372.4,453.8,372.5,455.9,372.9,457.9z"/>
	<path class="st6" d="M569.2,481.7c1.4-11.6,4.1-22.4,12.6-30.8c1.8-1.8,3.7-3.6,6.8-1.9c2.4,1.3,3.2,2.5,1.7,5.2
		c-7.9,14.6-8,29.8-2.7,45.2c0.8,2.2,1.8,4.5-1.2,6.2c-2.7,1.6-4.8,1-7-0.9C572.5,498.6,570.7,490.2,569.2,481.7z"/>
	<path class="st3" d="M497.1,552.7c7,0.7,14,2.4,21.1,2c1.7-0.1,2.3,0.7,2.3,2.4c0.3,12.7-2.2,24.6-9.7,35.2
		c-0.9,1.3-2.1,2.5-2.8,3.9c-3.2,5.9-7.9,8.7-14.7,7.3c-5.2-1.3-8.8-4.6-11.4-9.2c-0.9-1.5-1.8-3.3-0.6-5c1.3-1.9,3.2-1,4.9-0.6
		c1.6,0.4,3.1,1,4.7,0.9c5.9-0.3,10.4-3.3,13.9-7.7c5.4-6.8,3.2-14-5.3-18.4C492.2,559.9,491.6,557.4,497.1,552.7z"/>
	<path class="st7" d="M403.3,453.2c1.4-0.8,2.8-1.4,4.9-1.3c-1.7,3.1-3.4,6-4.8,9c-6.7,14-8.6,28.4-2,43c0.9,2.1,0.7,3.2-1.7,2.9
		c-9.1-1.4-18.4-1.5-27.2-4c-8.5-2.4-12.1-7.2-13.9-17.4c-1.4-7.8,3.1-15.9,10.2-19.3c6.4-3.1,12.9-5.9,20.1-7
		c1.9,0.5,0.4,1.2,0,1.7c-18.7,8.5-17.2,26.6-8.5,38c1.4,1.9,2.9,4.3,5.8,1.6c6.3-0.4,6.3-0.4,5.3-6.9c-0.5-3-1.5-5.9-0.7-9
		c0.7-2.3,2.9-2.7,4.8-3.6c0.5,0-0.2-0.8,0-0.2c0.1,0.3-0.1,0.3-0.4,0.3c-1.5,0.4-2.4-0.4-3.1-1.5c-0.2-9.5,3.4-17.5,9.6-24.4
		C402.2,454.4,402.8,453.9,403.3,453.2z"/>
	<path class="st8" d="M685.6,437.5c-1.4,4.6-2.7,9.1-4.1,13.7c-3.4,4.6-8.2,5.1-13.3,4.2c-1.8-4,0.1-7.9,0.4-11.7
		c-2,3.4-0.7,7.5-1.4,11.3c-0.4,0.4-0.8,0.3-1.2,0c-0.7,0-1.4-0.1-2.1-0.1c-7.2-1.2-10.7-6.3-13-12.5c-1.2-3.2-0.9-6.1,1.4-8.8
		c9.3,0.8,18.4,1.9,25.3,9.1c0.9,0.9,1.8,2,3.3,0.8c1.8-1.4,2.2-3.2,1.1-5.2c-3.4-6.5-6.8-12.9-14.1-16c-0.7-0.3-1.3-0.9-2-1.3
		c3.2-3.5,6.6-2.5,10-0.2c0.8,1.1,0.8,2.2,0,3.1c1-0.2,1.8-2.1,3.4-1.2C684.2,426.5,687.9,430.7,685.6,437.5z"/>
	<path class="st8" d="M628.9,474.6c1.9,3,4.8,5.1,6.2,8.5c2.1,5,2,9.6-1.3,14c-1.7-2.7-4.1-4.2-7.3-3.9c-4.1,0.4-8-1-12.1-1.1
		c-3-0.1-4.2-2-4.2-4.9c0-4.6,0.1-9.1,0.1-13.7C615.9,469.4,623.1,469.8,628.9,474.6z"/>
	<path class="st9" d="M423.9,516.7c-7.5,6.7-7.5,6.7-11.5,23.6c2.1-0.5,3.5-2.3,5.6-2.2c0.5,1.3-0.3,2.2-1,3.1
		c-5.2,7-6.5,14.3-1.4,22c0.5,0.7,0.7,1.4,0.4,2.3c-5.2-0.7-6.9-4.7-8.3-10c-2.2,5.6-4.2,10.4-5.9,15.2c-1.2,3.5,0.4,6.2,3.3,8.4
		c4.5,3.3,9.7,5,14.9,6.8c-8.3,0.1-16-1.9-22.9-6.5c-5.1-3.4-5.7-5.9-2.2-10.8c5.3-7.6,10.7-15.1,13.1-24.2c2.2-7.9,3.9-16,4-24.3
		c0.1-4.8,2.3-5.1,5.7-4.4C419.7,516.3,421.8,516.6,423.9,516.7z"/>
	<path class="st1" d="M348.9,434.1c-24.8,30.3-27.5,61.1-8.5,92.7c-9.7-6.1-14.8-15.5-17.2-30.9c-2.8-18.2,2.2-34.3,11.8-49.5
		C338.1,441.3,342.2,437.2,348.9,434.1z"/>
	<path class="st9" d="M491.3,590.7c-2.2,0.5-4.1-0.5-6.2-1.1c-1.1-0.3-2.1-1.3-3.1-0.2c-1,1.1,0,2.1,0.4,3.1
		c2,5.2,6.7,7.7,10.9,10.8c-6,0.6-11.9-0.7-17.7-2.1c-7.1-1.7-10.5-9.3-4-14.9c10.2-8.8,16.7-19.8,18.9-33.3
		c0.8-4.6,4.3-0.8,6.6-0.4c-0.1,0.2-0.1,0.3-0.2,0.5c-3.3,6.8-4.3,5.6,3.2,9.2c-0.9,1.4-2.6,1.2-3.9,1.7c-5.8,2.3-9.6,6.4-11.1,12.5
		c-1,4.3,0.3,7.9,3.4,11C489.5,588.6,491.3,588.9,491.3,590.7z"/>
	<path class="st10" d="M693.4,513.6c1.6,0.4,3.2,0.8,4.8,1.2c0.2,3.3,1.9,6.4,1.1,9.7c-4.1,10.4-12.9,14.8-22.9,17.4
		c-2.3,0.6-4.7,1.9-7.5,0.7c-3.5-1.6-4.2-4-0.8-5.9c4.9-2.7,9.6-5.5,14.3-8.6c2.4-1.6,7,0.5,10.4-1.1c-1.8-0.8-3.5-1.7-5.3-2.5
		C689.1,520.7,690.8,516.9,693.4,513.6z"/>
	<path class="st5" d="M603.5,503.9c2.1,2-0.3,5.2,2,7.1c-24.2-11.9-21.4-51.4-2.3-65.4c1.1,2-1.3,3.5-0.8,5.4c-2,5-4.1,9.8-5.4,15
		C593.5,479.7,594.7,492.5,603.5,503.9z"/>
	<path class="st4" d="M647.6,486.3c-1.4-4.8-1.2-9.6-1-14.5c6.7-2.3,13.4-4.1,20.5-3.2c0.8,5.6,0.1,11.3,0.2,16.9
		C661.5,489.6,652.8,489.9,647.6,486.3z"/>
	<path class="st6" d="M496.9,504c-4.6,1.2-6.3,5.4-7.1,8.9c-2.8,11.8-3.1,23.6,5.3,33.8c-8.7-1.4-10.7-8.5-12.5-15.3
		c-2.2-8.2-1.5-16.5,0.5-24.7c0.7-2.9,2.1-3.9,4.6-3.7C490.8,503.3,494.1,501.8,496.9,504z"/>
	<path class="st6" d="M603.5,503.9c-9.2-6.9-9.9-17.1-9.6-27.1c0.4-9.1,2.4-18.2,8.4-25.7c-1,9.6-2.5,19.2-1.7,28.9
		C601.3,488,602.5,495.9,603.5,503.9z"/>
	<path class="st11" d="M545.8,509c-5.5,9.9-10.2,20.2-19.1,28.1c-0.8-7.5-4.3-14.7,2.5-21C533.9,511.8,538.4,507.6,545.8,509z"/>
	<path class="st12" d="M568.2,506.9c0.3,11.1-4.9,20.3-10.9,29c-3.9,5.6-8.2,10.8-15.3,12.8c-0.3-2.8,1.8-4.4,3.3-6.2
		c7.3-9.4,13.1-19.4,14.3-31.5c0.1-1.3,0.7-2.5,1-3.8c0.5-2,1.7-3.6,3.8-3.9C567,502.9,567.6,505,568.2,506.9z"/>
	<path class="st9" d="M464.8,518.6c0,0.4-0.1,0.7-0.1,1.1c-1,1.5,0.2,3.3-0.9,4.8c-1.8,16.6-7.3,31.9-16.6,45.9
		c-0.9,1.4-2.2,2.5-2.9,4l0.1-0.1c-1.1,1.3-2.3,1.7-2.5-0.5c-0.2-1.8,0.9-3.4,1.8-5c6.4-12.1,10.3-25,13.4-38.3
		c0.9-4-0.3-8.1,0.9-12l-0.1,0.1c0.8-0.8,1.1-2,2-2.7c1.2-0.8,2.2-2.3,3.8-1.4C465.5,515.3,465.8,516.9,464.8,518.6z"/>
	<path class="st13" d="M646.6,418.1c-5.9-2.3-11.3-0.5-16.8,1.7c-0.3,0.1-0.6,0.2-0.9,0.3c-2.1,0.7-3.3-0.1-4-2.1
		c4.7-8.7,19.8-14.8,28.9-11.5c3.1,1.1,3.6,2.6,0.8,4.8C651.9,413.4,649.3,415.8,646.6,418.1z"/>
	<path class="st6" d="M502.3,504.4c0.9,0.3,1.5,0.4,2.1,0.6c6.3,2.2,6.7,2.6,5.2,9.4c-2.2,9.8,0.1,18.4,6.4,26
		c-7.2-0.3-12.3-4.6-12.9-12.6C502.5,520.3,501,512.6,502.3,504.4z"/>
	<path class="st5" d="M568.2,506.9c-1.2-1.1-1.6-3.6-4-2.7c-1.8,0.7-2.6,2.2-2.8,4.2c-1.1,11.7-5.7,22.1-12.6,31.5
		c-2.2,3-4.5,5.9-6.8,8.8c-0.7,0.4-1.4,0.8-2.1,1.1c-1.7,0.9-3.9,2.1-5.1-0.1c-0.9-1.7,1.5-2.5,2.4-3.5
		c10.5-11.7,18.9-24.5,22.2-40.2c0.5-2.6,1.1-4.5,4.4-4.2C567.1,502.2,568.6,503.6,568.2,506.9z"/>
	<path class="st3" d="M522.5,598.6c-3.8,3.9-8.6,5.1-15.3,6.2c6.3-7.7,11.4-14.8,13.9-23.2c2.6-8.5,2.9-17.3,3.5-26.1
		c5-0.9,5.9,1.6,5.7,5.9c-0.3,8.6,0.2,17.3-3,25.6c-1.9-1.9-1.1-4.2-0.9-6.5c0.7-6.5,2.1-13,0.7-19.7
		C527.2,573.6,525.5,586.2,522.5,598.6z"/>
	<path class="st3" d="M458,518.5c2.7,16.5-4.9,30.7-10.5,45.3c-1.2,3.2-3,6.1-4.5,9.1c-1.1,2.2,0.2,1.6,1.4,1.3
		c-3.1,6.9-6.3,9.7-13.6,11.4c3.1-5.4,7-9.8,10-14.9c7-11.4,9.8-24.1,13.2-36.6C455.6,529,455.5,523.4,458,518.5z"/>
	<path class="st4" d="M666,455.1c0.4,0,0.7-0.1,1.1-0.1c0.3-0.4,0.5-0.4,0.8,0c5,0.5,9.4-1.4,13.6-3.7c-0.9,9.1-2.2,18.1-1.9,27.3
		c-2.6,2.5-6.1,3.6-8.6,6.1c-2,1.9-2.7,0-3.1-1.6c-1.4-4.6-0.7-9.2-0.2-13.9c1.7-3.7,5.6-1.7,8.3-3.2c3.6-2,4-4.6,0.6-6.5
		C673.1,457.6,669.5,456.5,666,455.1z"/>
	<path class="st8" d="M680.7,486.3c2.3,8.5,4.3,17.1,9.8,24.4c-1,1.4-2.2,2.1-3.9,1.2c-0.3-1.6,0.5-4.2-1.7-4.5
		c-2.6-0.3-2.8,3-4.4,4.4c-1.6,1.1-3.3,1-4.8-0.1c-2.3-2.1-3.2-5-4.4-7.8c0-0.5-0.6,0.6,0,0.5c0.1,0,0.1,0.1,0.1,0.5
		c-0.1,0.5-0.3,0.9-0.6,1.3c-2.5-0.3-3.4-1.7-2.9-4.1c2.5-3,6.4-4.1,8.8-7.2C678.7,492.2,680.5,489.6,680.7,486.3z"/>
	<path class="st14" d="M388.6,460c0.6-0.2,0.9-0.5,0.2-1c4.3-3.3,9.7-3.6,14.5-5.8c-3.1,5.8-7.5,11-9,17.7c-0.6,2.8-1.7,5.5-1.8,8.4
		c-0.5,0.7-1.2,0.8-2,0.8c-3.9-1.4-7.7,1.8-11.6,0.6c-1.2-1.5-0.7-3.1-0.1-4.6C381,470.1,383.3,464.1,388.6,460z"/>
	<path class="st5" d="M440.5,397.6c2.4-2,5.3-0.8,7.9-1.1c1.6-0.2,1.8,0.9,1.8,2.2c-0.6,10.8-1.6,21.6-3.2,32.4
		c-0.1,0.8-1,0.5-1.6,0.5c-1.3-0.3-2.2-1.3-2.9-2.4c-5.2-8.2-7.2-17.1-5.4-26.7C437.4,400.2,438.4,398.5,440.5,397.6z"/>
	<path class="st15" d="M675.7,407.4c8,0.7,13.6,5,17.6,11.6c1.6,2.7,2.7,5.8,4.1,8.7c-2.7,2.3-5.6,1.2-8.5,0.4
		c-3.1-1.7-6.1-3.4-7.6-6.9c0.9-2.4,3.1-2.9,5-3.6c-3-1.2-5.3,2.5-8.4,1.3C675.4,415.4,673.6,411.8,675.7,407.4z"/>
	<path class="st16" d="M665.9,399.4c1.1-6.2,2-6.5,7.9-5c14.4,3.7,22.4,13.4,26.3,27.1c0.3,0.9,0,1.9,0,3.3
		c-1.6-2.5-3.5-4.2-3.9-6.8c-4.9-9.7-13.4-14.3-23.6-16.4C670.3,401.2,667.8,401.2,665.9,399.4z"/>
	<path class="st6" d="M551.3,404c1.5,11.2-0.8,21.3-0.6,31.4c0.1,2.8-2.7,2.2-4.3,2.9c-1.4,0.6-2.6-0.3-2.4-2c1.3-9.3,0-19.1,4.3-28
		C548.9,407,550,405.9,551.3,404z"/>
	<path class="st8" d="M669,519.6c-3.3,2.3-7.3,1.9-10.9,3.1c-1.7,0.5-2.4-0.3-2.9-1.6c-1.5-4-3.5-7.9-3.6-12.4
		c6.4-2.5,11.5-0.1,16.1,4.3C668.9,515,670.7,516.9,669,519.6z"/>
	<path class="st6" d="M440.5,397.6c-4.6,6.4-2.8,13.3-1.6,20.2c0.8,5.2,3.8,9.4,6.5,13.7c-2.4,0.8-4.8,1.7-7.4,2.6
		c-2.6-9.3-4.6-18.6-4.4-28.3C433.7,401.2,435.6,398.2,440.5,397.6z"/>
	<path class="st8" d="M635.7,522.4c1.4-3.3,2.4-6.9,5.8-8.8c1.8,8.4,4.4,16.4,10.9,22.5c-0.6,3-3.1,2.3-4.9,2.1
		c-2.8-0.2-5.7-0.6-8.5-1.2c-0.6-0.2-1-0.6-1.3-1.1c1.2-2.3,1.9-4.6,2-7.2c0.1-2.9-0.9-4.6-4-4.5C635.2,523.7,635.1,523,635.7,522.4
		z"/>
	<path class="st17" d="M646.4,422.8c3.5-3.4,7.5-1.7,11.3-0.8c10,2.4,18,7.7,22.5,17.4c0.4,1,0.9,2.3,0.2,2.6
		c-1.2,0.7-1.9-0.7-2.6-1.5c-5.7-6.6-13.2-10.1-21.3-12.6c-2.2-0.7-4.4-1-6.5-1.8C648.4,425.4,646.3,425.2,646.4,422.8z"/>
	<path class="st5" d="M525.5,507.9c2-0.4,3.8-0.1,5.4,1.4c-2.4,3.5-6.4,5.9-8.5,10.1c-2.1,3.9-2.1,7.4-0.2,11.2
		c0.8,1.6,2.7,3.5,0.3,5.5c-8.4-4.8-10.3-19-3.6-25.7C520.7,508.5,523.2,508.7,525.5,507.9z"/>
	<path class="st18" d="M371.1,452.1c0,1.5,0.1,3.1-1.6,3.6c-1.3,0.4-2-0.8-2.7-1.6c-4.3-5-7.8-10.5-10.7-16.5
		c-0.7-1.3,0.1-2.1,0.4-3.1c2.1-1.9,4-0.1,4.9,1C365.4,440.5,369.7,445.5,371.1,452.1z"/>
	<path class="st17" d="M681.6,515.6c0.8-1.4,1.6-2.8,2.2-4c1.3,4.6-3.1,15.9-7.7,18.6c-4.3,2.5-8.9,4.2-13.7,4.9
		c-2.9,0.4-6.3,0.6-7-3.7c1.6-1.7,3.8-1.7,5.9-2C670,527.6,677,523.3,681.6,515.6z"/>
	<path class="st4" d="M667,513.7c-4.3-4.3-9.8-5.1-15.5-5c-1-1.7-2.4-3.6,1.3-3.8c5.2-0.2,10.2-1.5,15.2-2.9c0.8,1.4,1.2,3.1,2.8,4
		c2.1,1.9,3.9,4,2.8,7.2C671.5,514.6,669.3,515.2,667,513.7z"/>
	<path class="st13" d="M675.7,407.4c0,4.2,1,8.1,3.1,11.7c-0.1,1-0.7,1.2-1.5,1.2c-4.8-1.8-9.7-3.6-14.8-4.2c-1.6-0.2-3.2-0.6-4.3-2
		C663.9,407.3,670.1,404.9,675.7,407.4z"/>
	<path class="st19" d="M644.4,498.9c1.5-4.2,4.6-5.9,8.8-5.7c7.7,0.3,15.2-0.5,22.5-3c0.5,2.1-1.1,2.9-2.4,3.8
		c-6.8,4.5-14.2,7.1-22.4,7.3C648.5,501.3,646,501.4,644.4,498.9z"/>
	<path class="st12" d="M452.8,395.6c6.5,4.2,5.6,9.7,5.1,14.5c-0.8,7.6-2.8,15-5.8,22.3C451.2,420.5,454.3,408.7,452.8,395.6z"/>
	<path class="st9" d="M522.5,598.6c-1.3-0.9-1-2.2-0.7-3.5c2.7-10.8,3.9-21.8,3.6-33c0-0.6,0-1.3,0-1.9c0.1-1.5,0.1-3.2,2.1-3.1
		c1.6,0.1,1.7,1.6,1.8,3c0.4,7-0.3,13.9-1.4,20.7c-0.3,2.1-0.4,4.2-0.5,6.2c0,0,0-0.1,0-0.1c-1.2,3.3-1.8,6.9-4,9.8
		C523.4,597.5,523.3,598.3,522.5,598.6z"/>
	<path class="st6" d="M549,500.3c-2.1,5.1-6.3,4.3-9.6,4.5c-9.1,0.4-18.2-1-27.2-2.8C524.3,501.2,536.2,499.2,549,500.3z"/>
	<path class="st5" d="M557.6,454.9c-4.1,2.2-8.4,0.7-12.6,1c-3.2-4.6-3-7.8,0.9-12.6c4.4-2.5,8,0.4,11.8,1.9
		C551.8,448.5,556.3,451.7,557.6,454.9z"/>
	<path class="st19" d="M646.4,422.8c4.9,3.9,11.3,3.3,16.6,6c5.7,2.9,11.9,5.2,14.7,11.7c-7-5.6-15-8.3-23.9-8.8
		C649.2,431.4,646,427.5,646.4,422.8z"/>
	<path class="st6" d="M525.5,507.9c-12.2,3.8-11.1,18.8-5.1,25.6c0.7,0.8,1.4,1.7,2.1,2.6c-3.5,1.7-5.1-1.3-6.3-3.2
		c-5.2-7.9-4.1-16.1-0.8-24.4c0.9-2.3,3-2,4.5-1.4C521.7,507.9,523.6,507.6,525.5,507.9z"/>
	<path class="st20" d="M642.7,459.9c-1.3-1.5-1.5-3.6,0.6-3.6c11.2,0,22.6-0.3,32.9,5.6c0.1,0.1,0.2,0.3,0.2,0.4
		c-0.1,0.2-0.3,0.5-0.5,0.7C664.8,462.4,653.5,463.4,642.7,459.9z"/>
	<path class="st6" d="M545.9,443.4c-1.3,4.1-2.7,8.2-0.9,12.6c-3.5,0.1-6.9,0.2-10.5-0.7c-2.8-0.7-2.4-1.6-1.5-3.6
		C535.4,445.7,540.3,444,545.9,443.4z"/>
	<path class="st21" d="M668.2,468.8c-0.3,5.2-0.3,10.5,1.2,15.8c2.8-3.3,5.8-5.8,10.1-6.1c1.7,2.1,1.1,4.5,1,6.9
		c-4.7,0.4-7.9,4.5-12.6,4.8c-1.2-1.4-0.8-3.2-1.1-4.8c-1.7-5.5-1-11-0.1-16.5c0-0.6,0.1-1.2,0.9-1.1
		C668.2,467.9,668.1,468.4,668.2,468.8z"/>
	<path class="st19" d="M681.6,515.6c-2.4,9.4-10.4,11.9-18.2,14.5c-2.5,0.8-5.4,0.8-8.1,1.2c0-3.7,2.3-5.4,5.6-5.9
		C668.8,524.1,675.9,521.3,681.6,515.6z"/>
	<path class="st17" d="M644.4,498.9c12.1,3,22.2-1.1,31.3-8.7c0.8-0.7,1.2-2,2.9-1.6c-0.9,3.9-3.7,6.4-6.7,8.3
		c-7.6,4.9-16.1,6.6-25.1,6C644.3,502.7,642.5,502,644.4,498.9z"/>
	<path class="st22" d="M635.7,522.4c0,0.6,0,1.3,0,1.9c-3.9-1.3-7.8-2.6-11.7-3.8c-4.8-1.5-7.2-4.9-7.6-9.8
		C624.3,512.1,630.8,516,635.7,522.4z"/>
	<path class="st22" d="M668.2,468.8c-0.5-0.8-0.9-0.7-1.4,0c-6.8,0.8-13.3,3-20.2,2.9c-1-4.6,0.6-6.3,5.5-6
		c7.9,0.4,15.8,0.2,23.7,0.2C673.6,467.8,670.5,467.2,668.2,468.8z"/>
	<path class="st23" d="M627,441.4c-3.9,4.4-9.6,4.3-14.6,6c0.3-7.8,0.6-8.2,7.6-9.7c3.3-0.7,6.6-1.4,9.9-2.1
		C630.5,438.4,628.7,439.9,627,441.4z"/>
	<path class="st22" d="M638.6,536.2c3-0.3,5.9,0.2,8.9,0.8c1.6,0.3,3.5,0.7,4.9-0.9c2.8,1.2,7.5,1.4,7.2,4.8c-0.3,2.9-5,2.2-7.9,3
		c-0.1,0-0.3,0-0.5,0c-3.5-0.8-7.3-0.7-10.1-3.4C639.9,539.2,638.2,538.3,638.6,536.2z"/>
	<path class="st4" d="M652.3,442.4c1.8,6.1,5.8,10.1,11.6,12.6c-4.6-1-9.4-1-14.1-1.6c-3.8-0.5-3.7-2.4-3.2-4.8c0.5-2,0.8-4,0.9-6.1
		C649.2,441.2,650.7,441.2,652.3,442.4z"/>
	<path class="st19" d="M634.9,430.8c-4.9,3.7-10.9,4.1-16.5,5.7c-1.7,0.5-2.1,0-2.2-1.9c3-3.3,6.3-6.2,10.4-7.9
		C630.9,424.8,633.2,425.9,634.9,430.8z"/>
	<path class="st22" d="M628.9,474.6c-6.1-2.2-12.1-3.9-18.5-1c-0.6-4.1,0.5-5.5,5-4.4c6.6,1.6,13.1,1,18.2-4.4
		C633.2,468.6,632.6,472.4,628.9,474.6z"/>
	<path class="st16" d="M701.1,528.2c0.2-0.7-0.1-1.9,1.1-1.7c1.2,0.2,0.7,0.9,0.4,1.7c-2.6,7.6-7.4,13.3-14.1,17.7
		c-3.4,2.3-7.3,3.6-10.9,5.3c-2.7,1.3-3.7-0.6-4.7-2.5c0.8-0.9,1.7-1.5,2.9-1.7C687.3,544.8,695,537.6,701.1,528.2z"/>
	<path class="st22" d="M666.9,485.3c2.8,1.1,0.7,3.2,1.1,4.8c-5.2,1.4-10.6,0.7-15.8,1.1c-4.1,0.3-5.2-1.3-4.5-5
		C654.1,488.1,660.5,487.5,666.9,485.3z"/>
	<path class="st4" d="M658.2,414.1c6.7,1.5,13.9,1.2,19.6,5.9c0.2,1.5-0.3,2.3-2,1.9c-3.1-2.5-6.4-2.2-9.8-0.9
		c-2-0.7-3.9-1.8-5.9-1.9C654.5,419,655.3,417,658.2,414.1z"/>
	<path class="st5" d="M557.2,403.9c0.5,11.7,0.4,23.3-3.5,34.5C553.8,426.7,554.1,415.1,557.2,403.9z"/>
	<path class="st20" d="M665.9,399.4c11.1,1.4,21.5,4.4,28.5,14.3c0.9,1.3,1.8,2.7,1.9,4.4c-2.7-2.9-5.3-5.9-8.1-8.7
		c-5.4-5.2-12.4-5.7-19.4-5.9c-1.1,0-2.6,1.6-3.4,0.2C664.7,402.5,664.3,400.6,665.9,399.4z"/>
	<path class="st19" d="M642.7,459.9c11.1,0.6,22.2,1.1,33.2,3.1c-7,1.9-14.1,0.4-21.1,0.9c-2.9,0.2-5.8,0-8.5-1.2
		C644.9,462.1,643,461.9,642.7,459.9z"/>
	<path class="st19" d="M630,464.9c-5.9,3-11.9,2.2-18,0.9c-1.4-0.3-2.3-0.7-0.7-2c3.3-2.6,7.1-3.9,11.2-4
		C626.1,459.7,629.3,460.6,630,464.9z"/>
	<path class="st20" d="M634.9,430.8c-4-4.9-5.2-5.1-10.8-1.6c-2.7,1.7-5.3,3.6-7.9,5.4c2.7-6,8.1-9.2,13.3-12.4
		c2.1-1.3,4.4,0.3,5.1,2.3C635.2,426.3,638.8,428.5,634.9,430.8z"/>
	<path class="st20" d="M701.1,528.2c-5.7,11.9-15.1,18.7-28.1,20.6c-0.7-2,0.3-3.3,2-3.5c10.6-1.6,18.5-7.4,24.6-15.9
		C700,528.9,700.6,528.6,701.1,528.2z"/>
	<path class="st24" d="M629.9,409.3c1.8-5.3,10.6-11.9,15.2-11.9c1.6,0,3,0.2,3.3,2c0.3,1.7-0.8,2.5-2.5,2.9
		C640.3,403.7,634.8,405.2,629.9,409.3z"/>
	<path class="st25" d="M557.6,454.9c-0.9-0.7-1.9-1.2-2.6-2c-1.3-1.4-2.7-3-2-5c0.7-2,2.5-2.8,4.6-2.6c3.9,0.9,5.2,4.4,5.4,7.4
		C563.5,457,559.6,454.4,557.6,454.9z"/>
	<path class="st4" d="M686.6,511.8c1.3-0.4,2.6-0.8,3.9-1.2c1,1,1.9,2,2.9,3c-1,4.1-2.4,8.1-5.9,10.8c-2.5-0.3-3.2-1.4-2.5-3.9
		C685.9,517.7,686.8,514.8,686.6,511.8z"/>
	<path class="st19" d="M621.1,527.3c-0.9-0.4-0.8-1.2-1-2c-0.3-1.2-1.7-2.4-0.3-3.5c1-0.7,2,0.6,3,0.9c4.7,1.5,9.3,3,13.9,4.5
		c-0.3,4-3.5,3.9-6,3.9C627.1,531.2,623.6,530.2,621.1,527.3z"/>
	<path class="st20" d="M629.9,498c2.3,3.5-0.8,5.1-2.6,6.9c-2,1.9-4.5,2.9-7.4,1.3c-3.2-1.9-5.7-4.4-6.7-8.1
		c0.5-0.4,1.2-0.8,1.8-0.4C619.9,500.8,624.9,500.8,629.9,498z"/>
	<path class="st19" d="M629.9,498c-6.4,5.1-7.4,5.1-14.4,0.8c-0.7-0.4-1.5-0.5-2.2-0.8c-1.8-2.3-0.7-3.2,1.6-2.9
		C619.9,496,624.9,497,629.9,498z"/>
	<path class="st20" d="M621.1,527.3c4.4,0.9,8.3,4.3,13.2,2c1.1-0.5,2-0.9,2.4-2c1.2,3.9-1.1,7.8-4.8,7.8
		C627.9,535.2,622.9,531.7,621.1,527.3z"/>
	<path class="st20" d="M630,464.9c-2.8-3.9-6.3-5-10.9-3.2c-2.5,1-5.2,1.4-7.8,2.1c2.6-4.4,7-5.8,11.5-6.7
		C628.4,456,631.6,459.7,630,464.9z"/>
	<path class="st13" d="M638.6,536.2c3,4.6,8,5.8,12.7,7.6c-7.8,0.7-15.1-0.6-21-6.4c2.9,1.3,5.2,0.3,7.4-1.4
		C637.9,536.1,638.3,536.2,638.6,536.2z"/>
	<path class="st5" d="M444.4,435.7c5-0.7,9.1,1.3,14.4,4.6c-5.3,0-9.4,0-13.4,0C443.1,439.2,443,437.6,444.4,435.7z"/>
	<path class="st26" d="M655.4,549.8c-0.9,3.4-3.7,3.3-6,2.8c-4.8-1.1-9.5-2.7-12.4-7.2c1-0.6,1.9-0.7,2.7,0.4
		c3.6,1.6,7.4,2.1,11.2,2.6C652.5,548.6,654.2,548.5,655.4,549.8z"/>
	<path class="st20" d="M655.4,549.8c-5.5-0.1-11.1,0-15.7-4c4.9-0.2,9.5,1.8,14.7,0.3C657.4,545.3,656.4,548.1,655.4,549.8z"/>
	<path class="st22" d="M667,513.7c2.2-0.4,4.5-0.7,6.7-1.1c1.5,0.2,2.3,1.2,2.9,2.3c0,0.2,0.1,0.4,0.1,0.6c-1.9,2.6-4.6,3.7-7.8,3.9
		C669.2,517.3,667.9,515.6,667,513.7z"/>
	<path class="st4" d="M699.3,524.5c-0.6-3.2-3.6-6.2-1.1-9.7c1.6,0.3,3.3,0.6,4.9,1C702,518.8,701.3,521.9,699.3,524.5z"/>
	<path class="st22" d="M627,441.4c1-1.9,2-3.9,3-5.8c2.6-1,5.1-2.1,7.7-3.1C634.9,436.4,631.7,439.9,627,441.4z"/>
	<path class="st13" d="M688.5,426.8c2.9,1.1,5.9,1.1,8.9,0.9c0.9,0.4,0.8,1.3,1,2c-2,1.8-4.9,0.6-7,2
		C689.2,430.8,687.9,429.4,688.5,426.8z"/>
	<path class="st27" d="M625,418c1.4,0.6,2.2,2.2,4,2.1c-2.6,1.7-5.3,3.5-8.5,5.6C621,422,622.8,419.9,625,418z"/>
	<path class="st6" d="M444.4,435.7c-0.2,1.7-0.2,3.3,1,4.6c-2.5-0.3-6.8,1.5-7.2-0.9C437.7,436.6,442.2,436.9,444.4,435.7z"/>
	<path class="st22" d="M652.3,442.4c-1.6,0-3.2,0-4.7,0c1.2-3.1,0.9-7.1,4.7-8.8C651.5,436.6,650.6,439.5,652.3,442.4z"/>
	<path class="st3" d="M464.8,518.6c0-1.4,0.1-3.1-1.6-3.6c-1.5-0.4-2.1,1.1-3.1,1.8c-0.7,0.6-1.5,1.1-2.2,1.7
		c-0.3-4.2,3.5-5.6,5.8-5.4C467.3,513.3,466,516.4,464.8,518.6z"/>
	<path class="st28" d="M675.8,510.8c1.5,0.9,3.1,1.1,4.8,1c-0.9,1.7-2.2,2.9-3.8,3.8c0,0,0,0,0,0C676,514.1,674.1,512.8,675.8,510.8
		z"/>
	<path class="st3" d="M523.4,596.7c1.2-3.3,2.1-6.8,4-9.8C527.1,590.6,526.7,594.2,523.4,596.7z"/>
	<path class="st3" d="M444.4,574.3c0-2,1.3-3.1,2.9-4C447.3,572.4,445.8,573.3,444.4,574.3z"/>
	<path class="st3" d="M463.9,524.4c0.3-1.6-0.7-3.4,0.9-4.8C464.6,521.3,465.6,523.1,463.9,524.4z"/>
	<path class="st29" d="M689.4,441.3c1.9-5.2,4.3-6.6,9.5-5.4c2,0.4,4.1,0.8,6.2,1.1c9.7,1.6,13.9,8.8,16.4,17.2
		c4,13.4,3.9,27.1,1,40.7c-0.5,2.3-1.7,4.5-3.5,6.3c-4.7,5-10.9,7.5-17.3,9.4c-4.8,1.4-8.1-0.8-10.4-5.6c-1.1-2.3-0.4-4.4,0.3-6.6
		c1.6-4.8,2.5-9.8,3.9-14.6c1.8-6.2,1-12.2-1.1-18.1c-1.8-5-3.5-10.1-5.1-15.3C688.4,447.3,688.1,444.3,689.4,441.3z"/>
	<path class="st30" d="M689.4,441.3c-0.2,8.5,3.6,16,6.2,23.8c2.2,6.5,3,12.7,1.1,19.3c-1.9,6.8-3.6,13.7-5.4,20.6
		c-4.5-6.4-5-14.1-6.5-21.4c-2.7-13.2-1.1-26.2,2.7-39C687.9,443.5,688.8,442.4,689.4,441.3z"/>
	<path class="st4" d="M688.5,426.8c1,1.6,2,3.3,2.9,4.9c-2.3,1.5-4.3,3.5-5.9,5.8c0.6-6.2-3-10.5-6.8-14.6c0.4-1.5,1-2.6,2.9-1.9
		C683.9,423,686.2,424.9,688.5,426.8z"/>
	<path d="M413.1,488.3c1.8,1.7,4,1.1,6,0.8c12.1-1.5,24.2-2.7,36.3-0.7c0.2,0,0.4,0.5,0.6,0.7c-8.4,3.1-17.3,2.9-26,3.9
		c-4.4,0.5-9,0.2-13.4,1c-2.2,0.4-4.4,0.1-6.6-0.8c-1.7-0.7-3.8-1.5-3.2-3.4c0.6-2.1,2.5-3.4,5-1.7
		C412,488.3,412.6,488.2,413.1,488.3z"/>
	<path class="st31" d="M542.8,467.8c-14.9,0.5-29.8,1.4-44.8,0.9c-2.2-0.1-5.5,1.1-5.7-2.6c-0.2-3.6,2.1-5.8,5.7-6
		c5.2-0.3,10.4-0.5,15.6,0c13.1,1.2,26.1,2,39.3,1.8c0.8,0,1.6-0.1,2.4,0c2,0.2,4.9-0.8,5,2.3c0.1,3.1-2.6,3.6-5.3,3.6
		C551,467.7,546.9,467.8,542.8,467.8z"/>
	<path class="st32" d="M521.2,480.5c9.9,0,19.8,0,29.7,0c1.7,0,4.1-0.6,4.2,2c0.1,2.1-2.3,1.8-3.7,2.5c-0.7,0.3-1.6,0.4-2.4,0.4
		c-18.4,1.3-36.9,1-55.4,1c-1,0-2,0-2.9-0.3c-1.8-0.7-4.2-1.4-4.1-3.6c0.2-2.8,2.9-1.9,4.7-1.9C501.4,480.4,511.3,480.5,521.2,480.5
		z"/>
	<path class="st31" d="M446.2,446.1c7.4,1.9,15.8,0.5,22.6,5.6c1,0.7,2.9,0.9,2.4,2.6c-0.5,1.5-2.2,1.8-3.7,1.8
		c-4.9,0-9.7,0.5-14.5,0.8c-7.9,0.5-15.8,1-23.6,2c-1.8,0.2-4.2,0.8-5.2-1.4c-0.9-2,0.7-3.7,1.9-5.2c2.6-3,6.3-3.9,9.9-4.7
		C439.3,446.9,442.7,446.6,446.2,446.1z"/>
	<path class="st32" d="M439.1,474.6c4.4,0.5,9.4-0.9,14.3,0.9c1.6,0.6,3.2,1.2,3.2,3.1c0,1.6-1.5,2.5-2.9,2.9
		c-11.2,3.4-22.5,5.5-34.2,1.9c-1.8-0.6-3.6-1.5-3.4-3.6c0.3-2.6,2.7-3.5,4.9-4.1C426.8,474.1,432.6,474.7,439.1,474.6z"/>
	<path class="st9" d="M425.3,581.3c5-9.3,8.7-18.9,12.1-28.6c2.2-6.4,3.6-13,4.9-19.7c0.6-3.4-0.6-6-4.9-7
		c-3.5-0.8-7.3-1.5-10.5-3.5c-0.8-0.5-1.9-0.9-1.5-2.1c0.3-1,1.3-0.9,2.1-0.8c6.2,0.6,12.2-1.3,18.4-1.1c3.7,0.1,4.7,1.3,3.9,5.1
		c-3.5,17.1-9.3,33.3-17.2,48.8C430.8,575.9,428.3,578.8,425.3,581.3z"/>
	<path d="M416,565.4c-7.2-9.1-6.7-16.7,2-27.3c0.5-0.1,1-0.2,1.4-0.4c4.3-1.7,9-3.3,12.7,0.5c4,4.1,4.4,9.4,2.8,14.8
		C431.7,563.3,424.6,567.9,416,565.4z"/>
	<path d="M491.3,590.7c-8.7-4.2-10.6-13.8-4-21.7c3.2-3.9,7.2-7,12.8-6.6c5.1,1.6,8.2,5.1,8.7,10.5c0.6,6.8-3.4,11.3-8.4,14.8
		C497.7,589.5,494.7,590.9,491.3,590.7z"/>
	<path class="st9" d="M515.6,575.1c-2.8-3.1-1.4-6.6-2.8-9.3c-0.7-1.4-1.3-3-1.6-4.5c-0.4-1.6-3.2-2.8-1.5-4.6
		c2.2-2.4,4.9-0.2,7.3,0.1c2,0.2,2.8,1.7,2.5,3.5C518.7,565,518.4,570.1,515.6,575.1z"/>
	<path d="M388.6,460c-3.9,6.5-8.6,12.6-9.6,20.4c1.3,1.6,1.3,3.7,1.9,5.6c0.4,5.4,4,9.7,5,14.9c1.2,3.1,0.1,3.6-2.5,2.2
		c-4.4-2.2-6.3-6.4-8-10.5C369.6,479,374.3,465,388.6,460z"/>
	<path class="st14" d="M363.3,485.4c-2.9-7.7,2.7-16.9,12.6-19.6c-6.6,10.9-6.1,21.5-0.4,32.2c-6.3-1-9.2-3.1-12.2-8.8
		c1.1-1.4,3.2-1,4.3-2.6C366.4,485.1,364.4,486.8,363.3,485.4z"/>
	<path class="st33" d="M385.9,500.9c-3.3-4.3-5.6-9-5.9-14.5c1.3-1.5,3.3-1.3,4.9-2c2.2-0.5,4.5-1.9,6.7,0
		c-0.2,4.2,0.9,8.2,1.7,12.3c0.3,1.5,1.9,3,0.4,4.5c-1.4,1.4-3.2,0.9-5,0.4C387.8,501.2,386.8,501.1,385.9,500.9z"/>
	<path d="M391.6,484.3c-2.3,0.4-4.5,0.8-6.8,1.1c-1.7,0.7-2.9,0-3.3-1.7c-0.4-1.4,0.5-2.5,1.8-3.1c2.3-1.1,4.8-1.9,7.4-1.4
		c0.6,0,1.2,0,1.9,0c1.1,0.5,2.2,1.1,3.4,1.6C395.2,483,392.6,482.7,391.6,484.3z"/>
	<path d="M363.3,485.4c2-0.3,3.9-2,6-0.2c0.5,0.4,0.9,1.1,0.5,1.7c-1.6,2.2-3.9,2.6-6.5,2.4C362.3,487.9,362.4,486.6,363.3,485.4z"
		/>
	<path d="M681.7,421.1c-1,0.6-1.9,1.3-2.9,1.9c-1.1,0.7-2.1,1.4-3.4,2.3c-0.8-1.3,0.7-2.3,0.4-3.4c1-0.3,1.6-1,2-1.9
		c0.4-0.3,0.7-0.6,1.1-0.9c2.8-2.1,5.4-4.7,9.2-1.5C685.8,418.8,683.8,419.9,681.7,421.1z"/>
	<path d="M667.9,455l-0.4,0.1c0,0-0.4-0.1-0.4-0.1c-1.6-5.2-1.1-10.2,2.3-15.9C670.7,445.3,668.3,450.1,667.9,455z"/>
	<path d="M675.8,510.8c0.3,1.6,0.7,3.3,1,4.9c-1.4-0.6-2.3-1.7-3.1-3c-1-2.2-1.9-4.5-2.9-6.7c-0.3-1.4-0.5-2.7-1-5.1
		C673.2,504.1,674,507.8,675.8,510.8z"/>
	<path class="st34" d="M394.7,463.4c-1.7,3.6-3.2,7-4.8,10.3c-0.5,0.9-1.6,1.1-2.6,0.7c-1.4-0.6-1.8-1.9-1.5-3.3
		c1-3.8,3.3-6.7,6.2-9.1C394,460.5,394,462.5,394.7,463.4z"/>
	<path class="st7" d="M390.6,479.4c-2,0.6-4.1,1.1-6,1.7c-1,0.4-2.3,0.8-2.4,2.1c-0.1,1.7,1.3,2,2.6,2.3c-1.4,1.4-3.2,0.6-4.8,0.9
		c-1.4-1.8-1.2-3.9-1-6C382.9,480.1,386.5,477,390.6,479.4z"/>
	<path class="st12" d="M445.6,424.1c-2.9-6.6-3.6-13.3-3.1-20.3c0.1-0.9,0.5-1.9,1-2.7c0.7-1.2,1.5-2.8,3.3-2.3
		c1.4,0.4,1.4,2,1.4,3.3C448.5,409.6,447.3,416.9,445.6,424.1z"/>
	<path class="st35" d="M715,447.9c4.5,5.6,5.1,11.7,6.3,17.4c2.1,10.3,1.7,20.6-1.5,30.7c-0.6,1.9-1.3,3.7-3.1,3.8
		c-2.5,0.2-2-2.6-2.5-4c-0.7-1.9-0.6-4.2-0.4-6.2C715.8,476,714.3,462.4,715,447.9z"/>
	<path class="st0" d="M712.9,501.8c-4.5-1.3-6.6-5-7.7-8.8c-3.8-14.2-5-28.6,0-42.9c0.8-2.3,1.5-5,4.1-6.2
		C703.8,463.6,702.2,482.9,712.9,501.8z"/>
	<path class="st35" d="M696.1,437.4c2.1,0.3,4.3,0.7,6.4,1c2,0.3,4.8,0.2,4.3,2.9c-0.5,2.6-3.2,4.3-5.8,3.7c-2.3-0.5-5-1.1-6.7-3.2
		c-0.9-1.1-2.5-1.9-1.8-3.6C693.2,436.7,694.8,437.9,696.1,437.4z"/>
	<path class="st35" d="M710.1,502.9c-3.5,4.5-7.5,5.9-12.2,5.8c-1.9,0-3.2-1.3-3.4-2.8c-0.2-1.8,1.6-1.7,3-2.1
		C701.5,502.7,705.4,503,710.1,502.9z"/>
	<path class="st2" d="M427.9,557.9c-2.4-5.4-4.6-10.4-6.8-15.4c-0.6-1.5,0.8-1.5,1.5-1.8c3.6-1.9,8.3,0.2,8.8,4.3
		C432.2,549.5,431.4,553.8,427.9,557.9z"/>
	<path class="st2" d="M417.1,545.3c2.5,5,4.7,9.5,7,14c0.3,0.7,1.1,1.8,0,1.9c-1.7,0.3-3,1.8-5,1c-4.3-1.8-5.3-5.4-5-9.4
		C414.3,550.4,415.2,547.9,417.1,545.3z"/>
	<path class="st2" d="M488.5,581.2c-0.3-6.8,2.5-11.7,7.3-14.1c2-1,3.7-1,5.1,0.7c1.8,2.2-0.8,2.7-1.6,3.6
		C496,574.6,492.4,577.6,488.5,581.2z"/>
	<path class="st2" d="M490.6,584.4c3.4-4.7,8.8-7.4,13.2-12.6c0.2,5.7-2.4,9-5.7,11.5C496.1,584.8,493.6,587.3,490.6,584.4z"/>
</g>
</svg>
