<?xml version="1.0" encoding="utf-8"?>
<!-- Generator: Adobe Illustrator 23.0.1, SVG Export Plug-In . SVG Version: 6.00 Build 0)  -->
<svg version="1.1" id="Layer_4" xmlns="http://www.w3.org/2000/svg" xmlns:xlink="http://www.w3.org/1999/xlink" x="0px" y="0px"
	 viewBox="0 0 1000 1000" style="enable-background:new 0 0 1000 1000;" xml:space="preserve">
<style type="text/css">
	.st0{fill:#FADE18;}
	.st1{fill:#302725;}
	.st2{fill:#A4910D;}
	.st3{fill:#162C34;}
	.st4{fill:#FEFE00;}
	.st5{fill:#394852;}
	.st6{fill:#596E76;}
	.st7{fill:#CBB89A;}
	.st8{fill:#FE0000;}
	.st9{fill:#5F6F4C;}
	.st10{fill:#FEFEFE;}
	.st11{fill:#3E4831;}
	.st12{fill:#B5FBF8;}
	.st13{fill:#CB0000;}
	.st14{fill:#76A5A2;}
</style>
<g>
	<path d="M726.3,519.2c10.8,0.8,13.1,2.5,16.1,11.7c1.6,4.9-0.5,10.4-5,13c-3.4,2-7.3,3.5-11,3.7c-14.5,0.8-28.9,3.3-43.4,2.1
		c-5.4-0.4-10.2-2.9-15-5.3c-6-3-12.2-5-18.9-1.6c-2,1-3.4,2.1-5.1,3.7c-9.1,8.7-18.9,16.3-32.4,16.9c-81,3.9-162.1,1.3-243.2,1.7
		c-13.3,0.1-26.8,0.2-40-1.8c-7.1-1-14.3-1.8-21-5.2c-3.9-2-6.9-4.6-8.6-8.4c-1.1-2.6-2.6-3-5.1-2.9c-8.5,0.1-16.9,0.1-25.4,0
		c-8.2,0-12-4.3-9.5-12c4.3-13.7,9.1-27.4,16.9-39.7c2.3-3.6,2.8-8.5,6.3-10.9c5.4-3.8,8-9.1,11-14.6c2.7-4.9,7.4-7.7,13.4-7.7
		c7.5,0.1,15-0.1,22.5,0.1c2.8,0,4.5-0.7,6.1-3.3c9.9-16.4,19.9-32.8,30-49c5.4-8.7,11.4-17.2,22.6-18.4c9.6-1,19.4-1.8,28.9,0.5
		c7.7,1.9,9.6,6.1,7.2,13.6c-0.7,2.1-1.3,4.2-2,6.6c4.6,0.4,9.2,1.2,13.7,1.2c14.4,0.1,28.6,2.3,43,2c0.5,0,1,0.1,1.4,0.2
		c8.1,2,8.5,1.6,12.4-5.7c3.8-7,7.4-14.5,16.3-16.5c4.3-1,8.8-0.9,13-0.3c10.2,1.5,20.7,1.2,30.8,3.7c1.8,0.4,3.2-0.1,3.6-2
		c2.5-12.4,12.2-15.3,22.5-16.3c9.2-0.9,18.6-0.4,25.8,7.1c2.4,2.5,3.8,5.5,4.8,8.6c1.7,5.6,5.7,9,10.6,10.3
		c7.1,1.9,12.1,6.4,17.8,10.4c3.1,2.2,6.2,4.3,9.3,6.5c6.9,4.8,14.1,4.3,21.6,1.7c2.7-0.9,5.2-1.8,7.3-4.1c2.3-2.5,5.4-3.7,9-3.6
		c7.8,0.2,15.6,0,23.4,0.1c1.2,0,2.6-0.5,3.7,0.5c5.3,4.5,11.7,3.1,17.9,3.5c5.3,0.3,10.2,1.9,13.4,6.8c5.1,7.7,0,19.5-12.3,20.3
		c-4.5,0.3-5,1.3-3.8,5.4c1.5,4.9,0,10.2,1.2,15.3c0.6,2.7,1.5,3,3.6,2.9c4.2-0.2,8.2,0.2,12.1,1.9c5,2.2,8.3,6,8.8,11.4
		c0.6,5.9-3.4,9.4-8.1,11.8c-2.5,1.3-4.9,2.6-7.7,3.4c-7.4,2.2-9.2,4.9-9.4,12.8C727.5,513.7,728,516.5,726.3,519.2z"/>
	<path class="st0" d="M441.6,480.4c0-1.3,0-2.6,0-3.9c2-2,4.6-1.9,7.2-2.4c7.9-1.4,16-1.2,23.9-2.4c11-0.6,11.2-0.5,13.8-11.4
		c3.2-13.5,6-27,11.5-39.8c1.9-4.4,3.9-8.7,6.6-12.5c4.4-6.2,10.8-8,17.9-6.6c10.5,2,21.2,2.2,31.8,4.1c-1.7,2.4-3.6,5-5.4,7.5
		c-5.4,8.3-1.2,16,6.4,20.5c16,9.5,33.3,11.1,51.1,5.1c1.9-0.7,3.8-2,6-1.2c-2.4,5.6-4.6,11.3-5.8,17.3c-1.6,7.5-1.8,15.1-2.2,22.7
		c-0.7,2.4,0.5,4.5,1,6.6c1,4.1,2.4,8.1,3.3,12.2c2.6,11.1-1.6,18.7-12.5,22.2c-8.2,2.6-16.6,4.5-25.2,5.3
		c-22.8,2.1-45.6,3.8-68.5,4.2c-16.9,0.3-33.7,1.1-50.6,1.9c-10.2,0.5-20.5,1.3-30.7,0.7c-19.1-1.1-38.3-0.4-57.4-2
		c-8.4-0.7-16.7-2-24.6-5.6c-11.4-5.2-14.7-12.8-9.9-24.4c0.2-0.6,0.5-1.2,0.7-1.8c2.8-4.3,7.1-6.5,11.7-8.2c4-1.4,8.2-2.3,12.3-2.5
		c14.3-0.7,28.7-1.7,43-2.3c1.1,0.5,1.5,1.6,2.1,2.6c4.1,6.8,6.1,7.7,13.9,6.1c1.4-0.3,2.9-0.7,4.3-0.3c9,2.8,17.3-0.5,25.7-2.9
		c6.7-1.9,13.1-5,20.3-4.4c8.3,0.6,16.5-1.1,24.8-1c1.9,0,2.7,1.5,3.8,2.7c9.8,10.7,22.8,11,33.1,0.7c5.1-5.1,9.8-10.6,15.9-14.8
		c6-4.1,7.1-11.3,6.3-18.5c-0.4-3.2-1-6.4-2.2-9.4c-1.8-7.1-4.7-13.5-10.4-18.7c-9.8-9-27.1-6-32.1,5.1c-0.3,0.6-0.7,1.1-1.1,1.6
		c-3.9,6.3-3.9,13.4-4.4,20.4c-2.5,4.7-5.5,9.1-6.1,14.5c-1.6,3.8-1.3,7.8-1.2,11.8c0,1.6,1,3.6-1.2,4.6c-13.6,1-27.3,1.3-40.9,0.7
		C445.1,484,442.6,483.2,441.6,480.4z"/>
	<path class="st1" d="M589.6,556.6c-72.5,0-145.1,0.4-217.6-0.3c-16.7-0.2-33.7,0.8-50.4-2.6c-4.3-0.9-8.7-2.1-11.7-5.4
		c-5.4-6-2.7-17,4.7-20.7c1.3-0.7,2-0.8,2.7,0.5c2.5,4.6,7.2,5.8,11.7,7.1c9.7,2.8,19.7,3.4,29.7,4c29.2,1.8,58.4,1.2,87.6,2.1
		c15.6,0.5,31.2,0.8,46.7,0.5c13.6-0.3,27.3-0.2,40.9-1c13.1-0.8,26.2-0.4,39.3-1.7c10.4-1,20.9-1.6,31.3-3.1
		c6.8-1,11.3-6.1,15.4-11.2c1.4-1.8,1.8-1.5,3.6-0.5c5.3,2.9,7.6,8.8,12.4,12.2c2,1.4,0.2,3.4-0.9,4.6c-6.4,7.4-14.5,12.1-24.1,13.5
		C603.9,555.6,596.7,556.4,589.6,556.6z"/>
	<path class="st2" d="M331,497c-0.1,2.5-1.7,4.4-2.2,6.9c-1.3,6.8,1.3,13.2,7.3,16.2c9.4,4.8,19.5,6.4,29.8,7.2
		c15.1,1.2,30.2,0.2,45.2,1.2c9.7,0.6,19.5,1,29.1,0.6c18.4-0.7,36.9-1.6,55.3-2c4.5-0.1,9-0.7,13.5-0.8c18.7-0.4,37.4-1.7,56-3.6
		c9.7-1,19.1-2.6,28.5-4.9c10.5-2.6,17.6-10,13.2-22.6c-1.1-3.2-2-6.5-2.9-9.7c-0.7-2.7-1.2-5.3,0.3-7.9c1.5,5.4,5.2,9.5,8.5,13.8
		c7.4,9.4,8.2,21.5,1.3,31.1c-4.9,6.7-12.5,8.2-20.3,9c-18.5,1.9-37,2.6-55.5,3.2c-6.6,0.2-13.2,0.4-19.8,0.7
		c-20,0.8-40.1,2.6-60.1,1.8c-13.8-0.5-27.6,0-41.3-1c-10.2-0.7-20.4-0.2-30.6-0.8c-15.6-0.9-31.2-1.6-46.7-3.1
		c-5.3-0.5-10.6-2.4-15.6-4.3c-5.9-2.2-6.8-7.8-6.7-13.2c0-3.7-0.8-5.1-4.8-4.9c-6.3,0.4-12.7,0-19,0.1c-4.3,0.1-6-1.8-5.6-5.9
		c0.3-3.1,0.6-6.3,2.8-8.9c0.3,0.2,0.6,0.4,0.7,0.7c3.6,8.3,6.3,9.8,15.5,8.6c5.1-0.7,10-2.3,15.1-3c0.8-0.4,1,2.8,2.6,0.2
		C326.1,499.5,327.8,496.8,331,497z"/>
	<path class="st3" d="M609.3,474.8c0.9-15.8,3.5-30.1,12.4-42.6c4.8-6.8,11.9-8.7,18.9-4.4c4.8,3,9.2,6.7,15.5,5.9
		c2-0.3,2,1.1,1.2,2.6c-3.9,7.3-7.3,14.8-8.2,23.2c-0.1,1.3-1.1,2.3-2.4,2.9c-11.2,4.8-17.7,14.2-24,23.9c-3.2,4.9-4.2,5.1-7.5,0.4
		C612.5,482.8,607.7,479.8,609.3,474.8z"/>
	<path class="st4" d="M323.1,501.9c-6.8,2.3-13.8,4.3-21.1,3.9c-9-0.4-11-2.6-11.1-10.8c2.2-5.5,4.8-10.7,7.9-15.7
		c4.2-3.9,9.4-3.1,14.4-3.2c27.9,0.1,55.9,0,83.8,0c1.7,0,3.5-0.8,5.2,0.4c0,1.3,0,2.6,0,3.9c-0.5,2-1.3,3.6-3.7,3.7
		c-15.5,0.8-31.1,0.5-46.6,0.8c-9.8,0.2-17.1,5.4-23.4,12.4C326.9,499.1,325.7,501.3,323.1,501.9z"/>
	<path class="st5" d="M433.7,443.3c-1.3-3.6,1.9-5.8,2.9-8.7c0.6-1.8,1.7-3.4,2.5-5.2c0.3-0.7,0.2-1.3-0.8-0.8
		c-0.4,0.2-0.6,0.7-0.9,1.1c-1,0.9-2.3,1.2-3.6,1.3c-6,0.8-11.2,3.3-15.8,7.1c-1.4,1.2-2.6,3-5,2.5c0.5-5.2,4.8-8.3,7.1-13.6
		c-1.7,1.2-2.9,2-4.1,2.8c-3-2.9-7.4-1.9-10.8-3.9c6.4-7.2,15-5.4,22.7-4.5c7.5,0.8,15.1,0.8,22.6,1.3c12.8,0.9,25.7,2.1,39,2.4
		c-1,4.8-1.8,9.4-4.2,13.5c-3.9,3.6-6.4,8.7-11.7,10.7c1.7-6.5,6.5-11.4,8.7-17.8c-1.7-0.1-2.2,1.2-2.9,2.2
		c-2.1,1.8-4.7,2.9-7.2,3.9c-5.9,2.3-11.8,4.6-16.7,8.8c-1.2,1-2.5,2.3-4.3,1c2.4-6,6.7-10.9,9.9-17.4c-1.4,0.8-2.2,1.3-3,1.8
		c-1.4,1.2-3.1,1.6-4.8,2.1c-5.1,1.5-9.9,3.7-14.1,7C437.6,442.1,436.1,443.9,433.7,443.3z"/>
	<path class="st6" d="M701.3,427.9c-3.4,10.5-4.4,21.4-6.1,32.2c-6.5,8.1-13.4,15.7-21,22.8c-0.6,0.6-1.4,0.8-2.2,0.6
		c-0.6-8.1-0.2-16.2,1.7-24.2c1.2-2.7,0.7-5.7,1.1-8.6c0.9-5.9,2.9-11.3,6.1-16.3C686,426.7,693.9,424.2,701.3,427.9z"/>
	<path class="st1" d="M284.6,498.4c1,2-0.2,3.1-0.4,4.3c-0.8,7.2,2.2,10.8,9.4,11c5,0.1,10.1-0.1,15.1,0.1c1.8,0,4.6-1.1,5.3,1.1
		c0.9,2.8,1.8,6.7-0.6,8.8c-4.4,4-8.6,7.8-10.8,13.4c-0.5,1.3-1.9,1-3,1c-8.6,0-17.2,0.1-25.9,0c-4,0-5.3-2-3.7-5.7
		C274.7,521.2,279.5,510.1,284.6,498.4z"/>
	<path class="st6" d="M673,503.8c-0.3-2.3-0.6-4.6-1-6.9c4.7-9.8,12.3-17.4,20-24.8c0.6-0.6,1.4-0.8,2.2-0.6
		c0.5,8.5-0.6,17.1,1,25.6c-1.2,2.4-3.7,3.6-5.3,5.7c-5.5,7.2-4.7,11.6,3.1,16.2c1.5,0.9,3.3,1.5,4.1,3.3c0.8,3.6,2.1,7.1,2,10.8
		c-1,2.2-2.9,1.8-4.6,1.3c-13.2-3.6-17.9-7.8-20.2-20.3C673.7,510.8,673.6,507.3,673,503.8z"/>
	<path class="st3" d="M670.6,536.1c-7-0.8-11.8-4.7-14.9-10.9c-5-10-5.7-20.7-5.4-31.6c0.1-1.8,1.1-2.6,2.5-3.1
		c4.3-1.5,8.8-1.9,13.2-2.7c1.8-0.4,1.8,0.9,1.8,2c0.7,8,1.5,16,1.9,24.1c0.3,6.3,1.2,12.5,2.8,18.6
		C673,533.8,674.5,536.6,670.6,536.1z"/>
	<path class="st7" d="M385.7,407.4c2.6-0.9,4.9,0.6,7.4,0.9c3,0.4,4.5,1.7,2.3,4.8c-6.8,13.3-14.6,26.1-24.6,37.2
		c-6,6.6-12,13.3-21.2,15.4c-1.1,0-2.2,0.2-3.4,0.1c-0.9,0-2.2,0.5-2.3-0.9c-0.1-1,0.8-1.6,1.8-2c11.3-14.5,21.3-29.8,31.6-45
		C379.8,414.2,381.8,410,385.7,407.4z"/>
	<path class="st8" d="M570.2,416.1c-9.1-3-9.5-3.1-7.6-12.4c3-14.3,8.7-18.3,24.7-16.5c8.4,1,11.9,5.6,13.4,13
		c1.1,3.9-1,6.6-3.9,8.6C588.9,414.5,580.4,418.5,570.2,416.1z"/>
	<path class="st6" d="M624.1,505.7c-5.6-12.3,4.3-19.3,9.7-27.7c7.2-11.1,18.8-13.5,30.7-15.2c3.2-0.4,5,0.5,4.4,4.1
		c-0.4,2.8,0.9,5.9-1.1,8.5c-1.1,1.4-2.8,1.7-4.4,1.9c-14.7,1.8-24.8,10.3-32.7,22.2C629.2,502.1,628.3,505.8,624.1,505.7z"/>
	<path class="st2" d="M612.4,437.5c-20.2,9.5-39.8,7.4-58.9-3.1c-6.2-3.4-9.6-12.3-7.7-17.8c0.6-1.7,1.5-2.8,3-3.5
		c-1.4,9.9,5.2,16.9,15.6,19.6c7.6,2,15.1,4,23,3.8c5.7-0.2,11.4-1.3,16.8-3.3c6.8-2.4,9.6-8.5,12.5-14.4c0.9-1.9-1.3-3.1-1.4-4.8
		c6.1,0.7,8.9,3.5,8.7,8.7C619,426.7,616,432.3,612.4,437.5z"/>
	<path class="st9" d="M349.5,465.7c18.1-9.2,28.4-25.5,38.7-41.9c2.3-3.6,4.8-7.2,7.1-10.8c-4.4,13.4-8.7,26.8-13.1,40.2
		c-1.4,4.1-1,10-4.2,11.9c-3.4,2-8.8,0.7-13.4,0.7C359.6,465.8,354.6,465.7,349.5,465.7z"/>
	<path class="st10" d="M402.2,476.6c-1.4-0.4-2.3,1.5-3.7,0.8c-7.3-0.4-14.5-0.8-21.8-0.8c-20.4,0-40.8-0.2-61.3,0.5
		c-1,0-2-0.1-2.9,0.3c-4.7-0.3-9.2,0.7-13.7,2c2.4-5.8,6-8.9,12.9-8.8c28.3,0.3,56.5,0.3,84.8,0
		C401.5,470.5,403.3,471.7,402.2,476.6z"/>
	<path class="st1" d="M558.4,407.2c0,7,3.8,10.1,9.4,11.4c8.4,2,16.7,3.2,25.4,1.6c5.6-1,9.3-3.5,11.1-8.7c1.5-4,3.2-3.1,5.3-0.5
		c4.3,5.5,2.2,13.3-4.7,17c-9.2,4.9-19.1,5.6-29.2,3.4c-4.5-1-9.1-1.7-13.5-3.6C552.6,423.7,551.3,415.8,558.4,407.2z"/>
	<path class="st1" d="M451.2,447.3c7.1-4.6,14.2-9.2,22.4-11.7c2-0.6,3.9-1.4,5.9-2.1c-6.4,9.1-12.6,18.4-15.6,29.3
		c-0.6,2.2-1.9,3.1-4.3,3c-4.4-0.1-8.8-0.1-13.1,0c-1.9,0-3.3-0.2-2.2-2.7C446.5,457.8,447.7,452,451.2,447.3z"/>
	<path class="st3" d="M645.3,497c0.6,9,1.1,18,5.1,26.3c3.8,7.9,3.9,7.7-4.8,9.8c-4.5,1.1-7.5,0.1-10.1-4c-2.1-3.2-5.3-5.7-7.9-8.5
		c-0.8-0.8-2.4-2.1-0.3-2.9c8.9-3.1,12.5-10.8,16.2-18.4C643.9,498.5,644,497.4,645.3,497z"/>
	<path class="st1" d="M405.3,425.8c3.8,0.6,8.8-1.9,10.8,3.9c-1.7,2.8-3.6,5.4-6.1,7.5c-7.5,6.6-7.2,16.4-10.4,24.8
		c-0.5,1.4,0.4,3.6-2,3.7c-2.9,0.1-5.8,0-8.7-0.2c-0.8-0.1-0.4-1.1-0.2-1.6c4-13.2,7-26.9,16.2-37.9
		C404.9,425.9,405.1,425.8,405.3,425.8z"/>
	<path class="st11" d="M413,400.4c2.4,1.9-0.1,3.9-0.2,5.8c-0.1,2.7-1.3,5.3-1.8,8c-0.6,3.6-2.5,5.8-5.8,7.5
		c-5,2.6-7.8,7.7-10.3,12.5c-4.5,8.5-8,17.6-10.2,27.1c-0.3,1.1-0.7,2.1-1,3.2c-0.4,1.5-1.5,1.7-2.6,1.3c-2-0.6-0.6-1.8-0.3-2.7
		c5.7-15.1,11.8-30,17-45.2c2.3-6.5,5.9-11.5,11.3-15.5C409.6,399.9,411.2,399.8,413,400.4z"/>
	<path class="st2" d="M399.3,483.3c1-0.9,1.9-1.9,2.9-2.8c0.6,6.5,8.8,11.7,14.8,9.3c3.1-1.2,4.8-3.5,4.9-6.9
		c0.1-2.4,0.1-4.8,0.2-7.2c0.2,0,0.4,0,0.7,0c0.1,1.1,0.1,2.2,0.1,3.4c0.1,8.3,8.6,13.2,15.9,9.2c3-1.7,2.5-4.9,2.8-7.7
		c1.6,0.9,3.2,1.9,4.8,2.8c3.8,2.2,7.9,0.6,11.9,1.1c1.7,0.2,4-0.9,4.8,1.8c-9.4-0.7-17.3,4.6-26.1,6.3c-6.6,1.3-13,3.8-19.7,0.8
		c-1.8-0.8-3.5,0.5-5.2,0.8c-7.8,1.7-12.9-1.6-14.6-9.7C397.6,483.4,399.3,484.6,399.3,483.3z"/>
	<path class="st10" d="M385.7,407.4c-11.5,16.7-21.9,34.2-34.8,49.9c-1.6,2-2.6,4.5-5.2,5.6c4.8-9.7,11-18.5,16.6-27.7
		c5.5-9.1,11.1-18.1,16.7-27.2c3.4-5.5,8.2-8.5,14.7-8.6c5.5-0.1,11,0.1,16.5,0.1c-0.5,2.5-2.7,1.9-4.2,2.1
		c-6.2,1-12.4,1.9-18.2,4.4C387.3,407,385,404.9,385.7,407.4z"/>
	<path class="st1" d="M433.7,443.3c7.4-5.4,14.8-10.7,24.4-11.5c-0.4,3-3.2,4.4-4.9,6.4c-5.7,6.8-8.9,14.9-12,23.3
		C436.8,455.9,434.2,450,433.7,443.3z"/>
	<path class="st3" d="M673,503.8c1.7,6.8,2.3,13.9,5.9,20.1c3,5.2,14.3,10.6,20.3,9.2c1.8,2.1,4.2,4.8,3.1,7.1
		c-0.9,2-4.4,0.6-6.8,0.7c-3.4,0.2-6.8-0.1-10.2,0.1c-3.4,0.1-5.5-1.5-6.6-4.6C674.9,525.9,673.2,515,673,503.8z"/>
	<path class="st1" d="M413,440.5c4.7-3.7,8.9-7.8,14.9-9.5c3.2-0.9,6.3-1.4,9.5-1.4c-3.3,4-5.4,8.6-10.9,11c-4.6,2-2.8,7.8-3.5,11.9
		c-0.7,3.9-0.2,8.1-0.2,12.8C418.8,456.9,415.4,448.9,413,440.5z"/>
	<path class="st1" d="M473.6,449.2c4-3.5,6.6-8.5,11.7-10.7c-1.7,8.3-3.4,16.7-5.3,25c-0.5,2.3-2.1,3.5-4.6,3.3
		c-2.9-0.2-5.8,0-9.3,0C468.7,460.6,470.2,454.5,473.6,449.2z"/>
	<path class="st3" d="M671.8,430.8c2-0.1,1.4,1.2,1.1,2.2c-2.1,7.1-2.9,14.4-3.8,21.7c-0.4,2.9-1.6,3.5-4,3.3
		c-3.8-0.3-7.3,0.7-10.9,1.8C656.1,447.8,660.5,437.2,671.8,430.8z"/>
	<path class="st12" d="M694.2,471.6c-8,7.1-15,15.2-20.7,24.3c-0.3,0.5-1,0.7-1.5,1.1c0-4.5,0-9,0-13.5c7.3-6,12.6-14,19.6-20.3
		c1.2-1.1,2.4-2.1,3.6-3.1C694.9,463.9,694.5,467.7,694.2,471.6z"/>
	<path class="st3" d="M624.1,505.7c5.3-3.6,7.3-9.7,11.4-14.3c7-7.9,15.3-13.1,25.7-14.9c2.2-0.4,4.4-0.7,6.7-1.1c0,1.7,0,3.4,0,5.1
		c-1.1,1.4-2.6,1.8-4.3,1.9c-14.5,0.7-23.9,8.8-30.2,21.2c-1.8,3.5-4.2,6.1-7.6,8c-0.9,0.5-1.7,1-2.7,0.2
		C624.2,509.9,624,507.8,624.1,505.7z"/>
	<path class="st12" d="M701.3,427.9c-15.2-1.9-18.6,3.9-23.5,16.5c-1.9,4.8-2.7,10-4.1,15c-0.7-10.9,1.6-21.3,5.1-31.5
		c0.8-2.4,2.7-4.2,5.8-4c5,0.2,10,0.2,15,0C704.8,423.5,703,425.6,701.3,427.9z"/>
	<path class="st7" d="M429.6,485.2c-2.8-0.9-3.9-2.8-3.8-5.7c0.3-11.4,0.9-22.8,2-34.1c0.1-0.9-0.1-2,1.4-2c1.3,0,1.3,0.8,1.6,1.9
		c1.5,5.8,2.6,11.5,6.5,16.5c2.2,2.8,1.4,7.1,1.1,10.8c-2.7-0.4-1.9-3-2.7-4.5c-1-1.7-1.5-3.6-3.2-5.6c-1.5,3.4-1.2,6.7-1.5,10
		C430.6,476.7,432.2,481.2,429.6,485.2z"/>
	<path class="st7" d="M409.1,484.5c-2.5-0.4-2.8-2.3-2.8-4.3c0-11.7,0.9-23.4,1.9-35.1c0.1-0.8,0.1-1.6,1.2-1.7
		c0.9-0.1,1.6,0.1,1.7,1.2c0.4,7.6,5,13.8,7.2,20.8c0.8,2.5,0.4,4.8,0.5,7.1c-2.3,0-2-2.2-2.6-3.5c-1-2.4-1.8-5-4-7.8
		c-1.4,6.4-0.4,12.2-0.9,17.9C411.2,481,412.5,483.8,409.1,484.5z"/>
	<path class="st12" d="M697.2,522.4c-1.7-0.8-3.5-1.5-5.1-2.6c-7.7-5.4-9.6-7.9-4.1-16c1.9-2.8,4-5.3,7.2-6.6
		C695.1,505.6,696.1,514,697.2,522.4z"/>
	<path class="st6" d="M698.4,474.7c0.3-9.5,0.4-19.1,2.8-28.4c2.5,1.7,4.6,3.9,6.7,5.9c-0.7,5.9-1.3,11.7-2,17.6
		C703.2,471.2,701.2,473.6,698.4,474.7z"/>
	<path class="st6" d="M623.1,511.8c4.5-1.9,7.4-5.1,9.6-9.5c4.3-8.5,10.4-15.4,19.6-18.9c5-1.9,10.4-1.5,15.5-2.8
		c0.4,2.1-0.4,2.8-2.6,2.9c-2.5,0.1-5,0.8-7.6,1.1c-11,1.5-16.8,9-21,18.3c-2.3,5.2-6.6,8-11.6,10.2
		C623.4,513.9,623.1,513.4,623.1,511.8z"/>
	<path class="st12" d="M706.9,509.9c0.6,4.9,0.9,10,3.4,15.4c2.9-5.4,3-10.4,3.7-15.4c2.4-0.6,3,1.2,3.7,2.9
		c0.9,3.5-1.1,6.8-0.9,10.3c0.1,1.8-1.2,2.4-2.9,2.4c-1.6,0-3.2,0.1-4.8,0.1c-3,0.6-5.4-0.5-7.8-2.2c0.4-3.3-1.7-6.3-1-9.6
		C701.8,511.3,703.6,509.3,706.9,509.9z"/>
	<path class="st3" d="M707.9,452.3c-3.4-0.7-5.5-2.8-6.7-5.9c0-5.2,0.9-10.1,3-14.8c1.1-1.1,1.5-3.2,3.7-2.9c0,1.8,0.1,3.5,0.1,5.3
		c0,5.6,1.2,6.8,6.8,7.5c0.8,0.1,1.6,0.3,1.9,1.1c-1.2,1.7-1.2,4.4-4,4.8c-1.3-0.8-0.4-3.4-2.3-3.3c-2,0.2-1.6,2.5-2.1,3.9
		C707.8,449.2,708,450.8,707.9,452.3z"/>
	<path class="st13" d="M570.2,416.1c9.5,0.6,17.8-2.7,25.5-7.9c2.8-1.9,4.7-4.4,4.9-7.9c4.2,10.3,0.9,15.4-10.7,17.4
		C583.5,418.8,576.6,418.4,570.2,416.1z"/>
	<path class="st9" d="M409.1,484.5c2.3-5.2,0.6-10.7,1-16c0.3-3.5-0.3-7,2.3-10.2c3.3,4.4,4.6,9.4,6.5,14.2c-0.3,4,1.2,8-0.9,11.9
		c-2.5-4.1-1.4-9.1-3-13.8c-1.5,5.1,1,10.3-1.8,14.8C411.8,485.1,410.2,485.9,409.1,484.5z"/>
	<path class="st9" d="M429.6,485.2c0.5-8.5-1-17.1,1.7-25.6c3.8,3.2,4.1,3.7,7,12.9c-0.3,4,1.2,8-0.9,11.9c-2.8-3.8-1.8-8.3-3-12.5
		c-0.7,2.5-0.4,5-0.5,7.6c-0.1,2,0.4,4.2-1.3,5.9C431.6,485.3,430.6,485.3,429.6,485.2z"/>
	<path class="st10" d="M472.7,471.8c-7.5,2.8-15.5,2.2-23.1,3.7c-2.6,0.5-5.3,0.7-8,1c-1.1-4.8,0.6-6,5.6-6
		C455.7,470.5,464.1,472,472.7,471.8z"/>
	<path class="st6" d="M727.4,488.2c1.5,3.3,0.6,4.4-3.1,4.3c-6.1-0.3-12.3-0.2-18.4,0c-3.4,0.1-4.3-1.3-3.7-4.3
		C710.7,486,719,486,727.4,488.2z"/>
	<path class="st6" d="M709.1,535c0-1.3,0-2.6,0-3.9c7.7-2.2,15.5-2.1,23.2,0c0.6,1.4,2.1,2.7,0.2,4.1
		C724.7,537.5,716.9,537.8,709.1,535z"/>
	<path class="st6" d="M711,434.5c0.1-1.3-0.8-2.9,0.9-3.8c7.4-2.5,14.9-2.1,22.3-0.1c0.6,1.4,2.1,2.7,0.2,4.1
		C726.6,436.9,718.8,437.2,711,434.5z"/>
	<path class="st12" d="M716.8,446.3c1.8,2.8,1.3,6.2,1.8,9.3c0.7,4.3-0.1,8.8,1,13.1c-1,2.6-0.2,6.5-4.6,6.8c-0.1-4.8,0-9.7-1-14.4
		c1-3.2,1.3-6.5,1.5-9.8C715.5,449.5,715.3,447.7,716.8,446.3z"/>
	<path class="st3" d="M711,434.5c7.8,0.1,15.6,0.2,23.4,0.2c-0.7,3.2-3.3,3.7-5.9,3.7c-4.2,0.1-8.4,0-12.6,0
		C713.2,438.5,711.2,437.6,711,434.5z"/>
	<path class="st3" d="M709.1,535c7.8,0.1,15.6,0.2,23.4,0.2c-0.7,3.2-3.3,3.7-5.9,3.7c-4.2,0.1-8.4,0-12.6,0
		C711.2,539.1,709.3,538.2,709.1,535z"/>
	<path class="st12" d="M698.4,474.7c1.8-2.7,3.8-5.2,7.6-4.9c0,1.4,0,2.8,0.1,4.3c0.4,3.6,0,6.8-3.9,8.5c-1.5,0.2-2,2.4-3.9,1.8
		C698.3,481.1,698.3,477.9,698.4,474.7z"/>
	<path class="st11" d="M413.1,485.4c0-5,0-10,0-15c0-1.1-0.1-2.6,1.2-2.9c1.7-0.3,2.1,1.5,2.3,2.6c0.6,4.7,1,9.5,1.4,14.3
		C416.5,485.5,415.2,487.4,413.1,485.4z"/>
	<path class="st6" d="M671.8,430.8c-2.8,4.1-7.5,6.3-9.9,11c-3.1,5.8-6,11.7-7.6,18.1c-2.3-1.9-0.2-3.9,0.2-5.7
		c1.7-7.2,4.6-13.9,9.4-19.7C665.7,432.1,668.5,430.7,671.8,430.8z"/>
	<path class="st7" d="M387.7,406.1c5.2-5.4,12.4-4.2,18.8-5.7c1.2-0.3,2.6,0.4,3.6-0.8c1,0.1,2.4-0.9,3,0.8
		c-1.6,0.1-2.9,0.7-3.9,1.9C402.2,404.4,395.4,407.8,387.7,406.1z"/>
	<path class="st11" d="M432.6,485.4c0-4.7,0-9.3,0-14c0-1.3,0-2.9,1.6-3.1c1.8-0.2,1.7,1.8,1.9,2.8c0.7,4.4,1,8.9,1.4,13.3
		C436,485.5,434.7,487.4,432.6,485.4z"/>
	<path class="st3" d="M698.3,484.3c1.6,0.1,2.2-2.1,3.9-1.8c-1.4,2.3-2.8,4.4-3.1,7.3c-0.5,5.4,1.9,8.6,6.8,10.2
		c-1.5,3.7-2,8.1-6.6,9.7C699.5,501.3,697.5,492.9,698.3,484.3z"/>
	<path class="st6" d="M729.4,485.5c-2.4-3.3-6.6-2.3-9.6-4.1c7.4-2.2,14.8-2,22.2,0c0.6,1.4,2.1,2.7,0.2,4.1
		C738,487.6,733.7,487.3,729.4,485.5z"/>
	<path class="st12" d="M727.4,488.2c-8.4,0-16.8,0-25.2,0c0.4-0.5,0.6-1.2,1.1-1.5C706.6,483.9,724.3,485.1,727.4,488.2z"/>
	<path class="st12" d="M732.3,531.1c-7.7,0-15.5,0-23.2,0c0.9-2.2,2.6-3,5-2.9c4.2,0.2,8.5,0.1,12.7,0
		C729.1,528.3,731.1,528.9,732.3,531.1z"/>
	<path class="st12" d="M734.3,430.6c-7.4,0-14.9,0.1-22.3,0.1c-0.2-1.3,0.5-2.7,1.4-2.7c6.3,0,12.7-1.3,19,0.7
		C733.3,429,734,429.6,734.3,430.6z"/>
	<path class="st12" d="M742.1,481.3c-7.4,0-14.8,0-22.2,0c0.9-1.9,2.2-3,4.5-2.9c4.1,0.2,8.1,0.1,12.2,0
		C738.9,478.5,740.9,479.1,742.1,481.3z"/>
	<path class="st6" d="M717.7,512.8c-1.2-1-2.5-1.9-3.7-2.9c-0.2-2.9-0.1-5.7,0.8-8.5c0.4-1.4,0.6-2.4,2.3-2.3
		c1.6,0.1,1.7,1.2,1.6,2.4C718.4,505.2,719.7,509.2,717.7,512.8z"/>
	<path class="st6" d="M699.3,509.9c3-2.7,4-6.8,6.6-9.7c0.7,3.2,1.5,6.4,1,9.8c-2.2,1.3-4.4,2.6-6.6,3.9
		C700,512.5,699.7,511.2,699.3,509.9z"/>
	<path class="st6" d="M716.8,446.3c-0.1,5.1,0.7,10.3-2.8,14.7c-0.4-4.6-0.8-9.1-1.2-13.7c1.5-1.5,1.9-3.8,4-4.8
		C716.7,443.8,716.8,445,716.8,446.3z"/>
	<path class="st0" d="M624.1,422.7c-1.3-4.5-4.2-7.4-8.7-8.7c2.9-2.1,5.4,0.1,7.6,1.2c2.9,1.5,5.2,4,8.1,6.3
		C628.4,422.3,626,421.3,624.1,422.7z"/>
	<path class="st3" d="M729.4,485.5c4.3,0,8.5,0,12.8,0c-1.3,4.4-5,3.4-8.3,3.8C730.7,489.8,730.5,487.3,729.4,485.5z"/>
	<path class="st6" d="M701.3,523.3c2.8,0,5.3,0.9,7.8,2.2c-2.5,2.4-3.1,5.8-4.1,9.2C702.4,531.1,702.5,527,701.3,523.3z"/>
	<path class="st6" d="M715,475.5c2.6-1.6,3.2-4.5,4.6-6.8c1,4.8-0.6,8.9-4,12.8C714.3,479.5,715,477.4,715,475.5z"/>
	<path class="st6" d="M707.9,428.6c-1.2,1-2.5,1.9-3.7,2.9c0.4-2.1,0.7-4.3,2.5-5.9c1-0.8,1.8-2.8,3.4-1.1c1.4,1.5-0.9,1.9-1.3,2.9
		C708.6,427.9,708.2,428.2,707.9,428.6z"/>
	<path class="st10" d="M422.7,475.6l-0.3,0c0,0-0.3,0-0.3,0c-0.1-1.5-0.5-3.1,0.3-4.6C423.2,472.5,422.8,474,422.7,475.6z"/>
	<path class="st10" d="M599,500.3c-9.4,5.3-19.5,8.5-30,10.5c-15.7,3-31.7,3.1-47.6,3.9c-22.3,1.1-44.7,1.4-67,2.1
		c-10.4,0.3-20.8-0.3-31.1,0.9c-9.4,1-18.8,1.1-28.1,0.7c-13.3-0.7-26.8-0.3-39.9-2.9c-2.9-0.6-5.9-1.7-8.4-3.3
		c-5.9-3.8-5.1-11.5,1.9-15.1c7.3-3.7,15.2-3.4,23.1-2.6c5.6,0.5,10.3,3.4,15,6.1c8.4,5.1,17.9,6.5,27.1,6.9
		c16.7,0.8,33.4,2.5,50.1,1.1c13.5-1.1,26.9-0.1,40.3-0.9c16.6-1,33.3-0.8,49.9-2C569.2,504.6,584.2,503.4,599,500.3z"/>
	<path d="M500.8,431.6c3.7-8.8,11.1-12.4,19.7-12.4c9.6,0,16.6,5.3,21.5,13.6c2.1,3.6,3.4,7.4,4,11.5c1.5,9.3-0.8,14.8-9,18.9
		c-4.8,2.4-7.4,5.6-8.7,10.8c-2.3,9.2-13.7,16.1-22.3,14.2c-9.7-2.1-17-11.8-16-21.4c0.4-5.3,2.5-9.7,6.1-13.5
		c1.6-2.3,2.1-4.8,1.8-7.7C497.5,440.7,499.1,436.1,500.8,431.6z"/>
	<path class="st2" d="M490.1,466.7c1.6,9.1,5.3,16.7,15,19.7c8.2,2.6,20.7-4,22.1-12.6c1-5.9,3.5-9.4,9-11.6c8-3.2,9.7-10.3,9.9-18
		c3.9,9.5,4.3,18.7-2.1,27.4c-0.6,0.8-1.1,1.9-1.9,2.2c-8.3,2.8-12.4,10.3-17.7,16.2c-10.2,11.3-30.9,4.9-35.1-5.8
		c-0.4-0.2-0.5-0.4-0.4-0.6c0.1-0.2,0.2-0.3,0.4-0.3C488,477.8,487.2,472.2,490.1,466.7z"/>
	<path class="st10" d="M600.8,451.7c-1.6,5-3.4,8.9-3.9,12.9c-0.6,5.2-4,5.8-7.6,5c-5.4-1.1-10.9-0.7-16.2-1.7
		c-2.1-0.4-3.8-0.9-4.7-2.8c-2.7-5.7-5.3-11.5-7.7-17.8C573.3,454.2,586.3,456.2,600.8,451.7z"/>
	<path d="M399.3,483.3c0.6,2.3-1.5,0.5-2,1.3c-5.2,0.6-10.4,1.6-15.6,1.7c-10.5,0.2-20.9,0.9-31.3,2c-7.5,0.8-14.2,3.2-19.5,8.8
		c-2.7,2.5-5.5,5-8.2,7.5c-1.1-1.2,0.6-1.8,0.3-2.7c4-4.1,7.2-8.8,11.9-12.4c5.5-4.2,11.5-5.9,18.1-6
		C368.5,483.2,383.9,483.3,399.3,483.3z"/>
	<path class="st10" d="M546.6,409c-15,1.9-29.5,4.1-43.2,10.3c1.6-10.1,8.6-15.5,18.9-13.8c6.7,1.1,13.5,0.1,20.1,1.7
		C543.8,407.5,545.2,407.7,546.6,409z"/>
	<path d="M533.8,484.1c9.9-1.4,19.8-2.6,29.7-2.7c9.9,0,19.7,1.5,29.6,2.7C573.3,484.1,553.6,484.1,533.8,484.1z"/>
	<path d="M489.3,483.4c0,0.3,0,0.6,0,0.9c-8.8-0.1-17.3,3.4-26.3,1.9c-1.1-1.5-2.7-0.9-4.1-0.8c-5.3,0.2-10.6-0.3-15.9-1.3
		c0.8-1.3,2.3-0.3,3.3-0.8C460.7,483.3,475,483.4,489.3,483.4z"/>
	<path class="st2" d="M500.8,431.6c-0.4,5.9-3.1,11.7-1,17.9c0.8,2.4-2.4,2.6-3.7,3.8C495.8,445.6,496.3,438.2,500.8,431.6z"/>
	<path class="st14" d="M477.4,546.7c6-1.3,12.2-1.2,18.3-1.5c9.2-0.5,18.4-1.8,27.6-1.3c12,0.7,24-0.5,35.9-1.2
		c16.6-1.1,33.5-0.5,49.9-4.5c4.8-1.2,8.4-4,11.7-7.2c2.9-2.7,4.8-1.7,6.1,1c1.4,3,5,6,1.8,9.6c-3.9,4.4-9.3,6.3-14.9,5.1
		c-11.4-2.6-22.7-0.7-34,0.1c-0.8,0.1-1.6,0.1-2.4,0.1c-32.5,0-65,0-97.5,0C478.9,546.9,478.1,546.8,477.4,546.7z"/>
	<path class="st14" d="M345.7,551.1c-8.9-0.8-17.9-1.2-26.8-2.5c-3.9-0.6-7.7-2.9-9.2-6.9c-1-2.8,0.9-5.2,2.9-7.2
		c1.9-1.9,3.7-1.6,4.8,0.4c3.5,6.2,9.7,8,15.7,10.2c4.3,1.6,8.5,3.2,12.8,4.8C345.9,550.3,345.8,550.7,345.7,551.1z"/>
	<path class="st6" d="M627.6,460.4c2.4-10.3,7.4-18.6,17.5-22.8c2.6-1.1,6.3-2.4,7.5-0.2c1.6,2.8-2.1,4.7-4.3,5.9
		C640.3,447.6,633.4,453.2,627.6,460.4z"/>
	<path d="M640.2,437.3c-14.2,8.1-17.8,22.9-23.7,36.4c1.1-9.6,3.3-18.7,8.4-27.1c3.1-5.1,6.6-9.1,12.7-9.9c0.5-0.1,1-0.1,1.4,0
		C639.4,436.6,639.6,436.9,640.2,437.3z"/>
	<path d="M312.5,477.4c0.4-0.3,0.7-0.7,1.1-0.8c23.1-1.4,46.3-1.3,69.4-0.8c5,0.1,10.4-0.3,15.4,1.5
		C369.8,477.4,341.1,477.4,312.5,477.4z"/>
	<path class="st14" d="M282.3,512.2c-1.2,7.7-3.1,14.1-3.2,20.9c0,4-3.8,1.8-5.8,1.9c-2.8,0.2-1.7-1.7-1.1-3.3
		C274.7,525.1,277.8,519,282.3,512.2z"/>
	<path class="st10" d="M593.9,391.8c-7.7,5.4-15.5,1.2-23.3,0.7C575.6,387.6,587.3,387.2,593.9,391.8z"/>
	<path class="st10" d="M566.4,398.3c3,3.5,2.9,7.3,3.8,10.7c0.5,1.7,0.3,3.7-2.1,4.1c-2,0.3-3.1-0.6-3.9-2.5
		C562.4,405.9,564.8,402.4,566.4,398.3z"/>
	<path d="M568.9,396.4c8.6,3.5,17.1,2.1,26.7-1.5C587.6,401.6,576.5,401.9,568.9,396.4z"/>
	<path class="st14" d="M588.6,424.5c2-1.9,4.8-1.5,7.1-2.5c3.3-1.4,6.6-2.3,8.4-5.9c0.7-1.4,2-3.2,4.1-2.9c1.3,0.2,2,1.1,2,2.3
		c0,2.2-0.8,4.1-2.7,5.3C601.8,424.4,595.5,425.7,588.6,424.5z"/>
	<path class="st5" d="M575.2,426.4c-6,0.1-12.1,0.8-16.7-4.2c-1.1-1.2-2.5-2.4-1.1-4.2c1.3-1.7,3.1-1,4.3,0
		C565.8,421.4,570.6,423.6,575.2,426.4z"/>
	<path class="st1" d="M524.4,467.2c0.1,8-6.9,15.2-14.7,15.2c-7.8-0.1-15.2-7.4-14.5-15.2c0.8-9.4,5.1-13.8,14.3-14.8
		C517.2,451.5,524.3,459.1,524.4,467.2z"/>
	<path class="st1" d="M540.9,440.3c2.5,9-0.6,16-8.6,18.3c1.6-4.8,4.4-9.4,1.2-14.3c-2.2-3.4-4.7-6.5-8.7-8.1
		c-9.2-3.8-13.2-2.3-20.8,8.5c-0.7-5.6,1.1-10,3.8-14.2c9.4-3.9,18.4-2.7,27.1,2.2C538,434.4,538.8,437.9,540.9,440.3z"/>
	<path class="st14" d="M540.9,440.3c-3.4-1.2-3.9-5.2-7-6.9c-7-3.6-14.1-4.6-21.7-3c-1.4,0.3-2.9,0.1-4.3,0.1
		c2.3-4.4,6.3-6.7,10.9-6.6C529.7,424.2,536.8,427.6,540.9,440.3z"/>
	<path class="st7" d="M517.6,449.2c-3.4,0.6-6.5-1.7-10-0.9c2-8.3,8.5-11.9,16.7-8.7C523.9,444,521,446.8,517.6,449.2z"/>
	<path class="st9" d="M517.6,449.2c2.2-3.2,4.5-6.4,6.7-9.7c2.8,1.5,4.8,3.7,5.8,6.7c-1.7,2.9-2.6,6.5-6.8,7
		C521.4,451.9,519.5,450.6,517.6,449.2z"/>
	<path class="st11" d="M523.4,453.2c3.1-1.6,3.7-5.4,6.8-7c1.7,4.3,1.5,5.4-2.2,12.2C525.4,457.6,525.1,454.8,523.4,453.2z"/>
	<path class="st14" d="M504.1,457.4c5.7-2.4,11.2-0.9,15.3,3.9c4,4.8,4,6.7-0.1,12.9c-2.8-2.7-2.6-7-5.4-9.7
		C511.1,461.7,507.9,459.7,504.1,457.4z"/>
</g>
</svg>
