<?xml version="1.0" encoding="utf-8"?>
<!-- Generator: Adobe Illustrator 23.0.1, SVG Export Plug-In . SVG Version: 6.00 Build 0)  -->
<svg version="1.1" id="Layer_4" xmlns="http://www.w3.org/2000/svg" xmlns:xlink="http://www.w3.org/1999/xlink" x="0px" y="0px"
	 viewBox="0 0 1000 1000" style="enable-background:new 0 0 1000 1000;" xml:space="preserve">
<style type="text/css">
	.st0{fill:#6E3720;}
	.st1{fill:#FB9A7A;}
</style>
<g>
	<path class="st0" d="M495.2,555.6c-16.2,2.2-34.9,2.7-53.6,1.9c-18.3-0.7-36.7-1.9-54.8-5.5c-4.5-0.9-9.1-1.1-13.5-2.5
		c-14.7-4.8-13.9-12.7-8.3-25c1.2-2.7,3.6-4.9,5.9-6.9c5.2-4.8,7-10.7,7.2-17.5c0.2-8.1-0.6-16.1,0.8-24.2
		c2-12.1,8.6-20.1,19.7-24.6c11-4.4,22.6-6.1,34.3-7c7-0.5,14-2.2,21-1.8c16.7,0.8,33.5,1.2,50.1,3.1c26,2.9,43.3,16.5,50.2,43.1
		c4.1,16,0.3,31.4-9.9,45c-7.9,10.5-18.2,17-30.8,20.3C508.2,555.1,503,555.8,495.2,555.6z"/>
	<path class="st1" d="M416,520.6c1.9,10,5.3,18.5,11.8,26.2c-9.7,0.3-18.4-0.3-27.2-1.5c-7.6-1.1-15.3-1.4-22.8-3.2
		c-8-1.9-9.8-6.3-5-12.8c2.9-3.9,5.9-7.6,9.2-11.2c2.3-2.5,3.4-5.4,3.8-8.6c0.9-7.2,1.1-14.5,1.1-21.8c0-3.8,0.5-7.7,1.2-11.5
		c2-10.6,10.1-15.2,19.2-18.1c16.1-5.1,32.8-6.8,49.6-5.8c17.8,1.1,35.9-0.5,53.5,3.8c17.6,4.4,32,16.5,34,36.4
		c0.9,9.2,1.1,18-2.9,26.4c-6.7,14-17.8,22.7-33.1,25c-14,2.1-28.2,2.9-42.4,3.2c-6.1,0.1-12,0.8-18.2,0c-8.7-1.1-14.8-5.9-20.2-12
		C423.4,530.7,420,525.8,416,520.6z"/>
</g>
</svg>
