<?xml version="1.0" encoding="utf-8"?>
<!-- Generator: Adobe Illustrator 23.0.1, SVG Export Plug-In . SVG Version: 6.00 Build 0)  -->
<svg version="1.1" id="Layer_4" xmlns="http://www.w3.org/2000/svg" xmlns:xlink="http://www.w3.org/1999/xlink" x="0px" y="0px"
	 viewBox="0 0 1000 1000" style="enable-background:new 0 0 1000 1000;" xml:space="preserve">
<style type="text/css">
	.st0{fill:#6E3720;}
	.st1{fill:#FB9A7A;}
</style>
<g>
	<path class="st0" d="M455.6,557.6c-12.7,1-25.2-0.7-37.8-1.2c-11.7-0.5-23.6-0.9-34.9-4.7c-7.3-2.4-14.5-5.2-16-14.4
		c-0.7-4.4,1.5-7.8,3.3-11.4c1.9-3.8,5.6-6.3,6.9-10.6c2-6.6,0-13-0.8-19.4c-1.5-11.9-1.9-23.5,1.3-35.2c3.6-13,13.9-18.2,25.7-20.1
		c11.2-1.9,22.7-2.8,34.2-2.1c17.1,1,34.2,1.7,51.1,4.6c10.3,1.8,20.8,2.3,30.7,6c21,7.8,32.1,23,35.6,44.8
		c2.1,13.4-1.2,25.4-8.1,36.3c-8.8,13.9-21.9,22.3-38.6,24.5c-9.6,1.3-19.3,0.9-28.8,2.1C471.4,557.8,463.5,557.2,455.6,557.6z"/>
	<path class="st1" d="M415.8,512.3c-1.4,12.9,2.2,24.1,11,34.4c-9.3,0.3-17.7,0.5-26.1-1.2c-5.3-1-10.9-0.9-16.1-2.7
		c-8.7-3-10-8.4-3.7-15.2c7.4-7.8,6.9-17,5.3-26.6c-1.8-11.4-4.2-22.7-0.8-34.3c2.9-9.7,10.5-17.1,20.4-18.5
		c10.1-1.4,20.2-2.5,30.4-2c17.3,0.9,34.6,2.1,51.7,5.6c7.3,1.5,14.9,2.1,22.1,4.2c16.6,4.9,29.5,13.7,33.2,32.1
		c2.4,12.1,2.6,24-4.3,34.8c-9.2,14.6-22.9,21.2-40,22c-14.2,0.6-28.3,2.3-42.4,2.7c-17.6,0.5-32.2-10.3-37.9-27.1
		C417.9,517.9,416.9,515.1,415.8,512.3z"/>
</g>
</svg>
