<?xml version="1.0" encoding="utf-8"?>
<!-- Generator: Adobe Illustrator 23.0.1, SVG Export Plug-In . SVG Version: 6.00 Build 0)  -->
<svg version="1.1" id="Layer_4" xmlns="http://www.w3.org/2000/svg" xmlns:xlink="http://www.w3.org/1999/xlink" x="0px" y="0px"
	 viewBox="0 0 1000 1000" style="enable-background:new 0 0 1000 1000;" xml:space="preserve">
<style type="text/css">
	.st0{fill:#6E3720;}
	.st1{fill:#FB9A7A;}
</style>
<g>
	<path class="st0" d="M455.1,557.4c-11.5,1.2-23.1-0.4-34.7-0.9c-14.4-0.6-28.8-2-43-3.9c-10.8-1.5-21.8-2-32.3-5.5
		c-9.2-3.1-11.2-7-7.3-16.4c3.2-7.7,9.1-13.2,15.1-18.5c12.6-11.2,26.8-20.3,41.3-28.7c14.4-8.3,29.2-15.9,44.5-22.4
		c11.9-5,24.1-9.3,36.8-12.2c17.3-4,34.4-5.8,51,3.2c14.2,7.7,23,19.5,27.1,34.7c4.5,16.9,1.1,32.6-9.4,46.8
		c-7.9,10.8-18.6,17-31.2,20.6c-3.1,0.9-6.5,1.3-9.4,1.4C487.5,555.5,471.5,558.8,455.1,557.4z"/>
	<path class="st1" d="M472.1,547.3c-11.3,1-22.7,1-34,0.5c-17.4-0.8-34.7-1.5-52-3.6c-11.6-1.4-23.2-2.9-34.9-4.1
		c-6.7-0.7-8-3.3-4.7-9.3c2.2-4.1,5.9-6.9,9.2-9.9c15-13.7,32.4-23.9,50-33.9c15.6-8.8,32-15.7,48.4-22.4
		c12.1-4.9,25.1-7.4,38.1-9.6c16.4-2.7,29.6,3.8,41.3,13.9c5.6,4.8,8.5,11.9,9.9,19.3c2,10.3,2.6,20.5-2,30.2
		c-6.5,13.8-17.4,22.7-32.4,25.3C496.9,545.8,484.5,546.2,472.1,547.3z"/>
</g>
</svg>
