<?xml version="1.0" encoding="utf-8"?>
<!-- Generator: Adobe Illustrator 23.0.1, SVG Export Plug-In . SVG Version: 6.00 Build 0)  -->
<svg version="1.1" id="Layer_4" xmlns="http://www.w3.org/2000/svg" xmlns:xlink="http://www.w3.org/1999/xlink" x="0px" y="0px"
	 viewBox="0 0 1000 1000" style="enable-background:new 0 0 1000 1000;" xml:space="preserve">
<style type="text/css">
	.st0{fill:#6E3720;}
	.st1{fill:#FB9A7A;}
</style>
<g>
	<path class="st0" d="M455.7,557.4c-11.4,1.2-22.9-0.2-34.3-1c-17.7-1.2-35.3-3.5-52.8-5.8c-5.4-0.7-10.8-2.5-16-4.3
		c-5.8-2-6.8-6.7-4.4-15.3c1.5-5.4,4.6-9.9,8.2-13.7c8.5-9,15.2-19.3,22.7-29c6.7-8.7,15.4-15,24.6-20.1c16.9-9.5,35.6-14.4,54.6-18
		c14.3-2.7,28.7-5.3,43.2-4.7c16.8,0.7,31.2,7.1,42,21.1c8.2,10.6,12.5,22.4,11.9,35.3c-0.7,16.8-7.4,31.2-21.3,41.8
		c-10.3,7.9-21.7,11.7-34.4,11.9C485.1,555.8,470.5,558.7,455.7,557.4z"/>
	<path class="st1" d="M430,543c0.8,2.2,2.7,3,3.9,4.6c-18.7-1.4-37.3-1.1-55.7-4.4c-6-1.1-12.1-1.4-17.9-3.1c-5.1-1.5-6-3.8-3.5-8.6
		c2.2-4.2,5.3-7.7,8.5-11c6.3-6.5,11.1-14.2,16.6-21.2c7.7-9.8,17.7-16.7,27.9-23.5c9.2-6.1,19.9-8.7,30.3-11.8
		c16.9-5.1,34.3-7.7,51.8-9.6c14.5-1.6,27.1,3.5,39,12.3c15.1,11.2,17.9,42.5,8.2,56.8c-9.7,14.3-23.2,21-40.3,21.6
		c-12.5,0.5-25,1.9-37.5,2.8C450.6,548.6,440.4,546,430,543z"/>
</g>
</svg>
