<?xml version="1.0" encoding="utf-8"?>
<!-- Generator: Adobe Illustrator 23.0.1, SVG Export Plug-In . SVG Version: 6.00 Build 0)  -->
<svg version="1.1" id="Layer_4" xmlns="http://www.w3.org/2000/svg" xmlns:xlink="http://www.w3.org/1999/xlink" x="0px" y="0px"
	 viewBox="0 0 1000 1000" style="enable-background:new 0 0 1000 1000;" xml:space="preserve">
<style type="text/css">
	.st0{fill:#6E3720;}
	.st1{fill:#FB9A7A;}
</style>
<g>
	<path class="st0" d="M453.8,557.4c-12,1.2-23.9-0.3-35.9-0.9c-16.2-0.7-32.3-2-48.4-3.9c-11.1-1.3-22.4-1.9-33.3-5.5
		c-9-3-11.3-6.9-7.4-16c2.3-5.4,5.4-10.4,10.6-13.7c10.6-6.6,20-15,31-21.2c21.9-12.3,43.9-24.6,67.5-33.4
		c8.3-3.1,16.3-6.8,24.7-9.6c12.5-4.3,25.2-8.4,38.5-7.8c17,0.8,31.5,7.1,42.4,21.2c8.2,10.6,12.5,22.4,11.9,35.3
		c-0.8,16.8-7.4,31.2-21.4,41.8c-10.3,7.9-21.7,11.6-34.4,11.9C484.3,556,469.1,558.7,453.8,557.4z"/>
	<path class="st1" d="M447,547.8c-18.5,0.5-34.3-1.1-50.1-2c-16.5-1-32.9-3.1-49.4-4.8c-1.3-0.1-2.5-0.8-3.7-0.9
		c-3.1-0.2-6.7-0.1-7.5-3.7c-0.9-3.7,1.4-7,4.3-9.1c6.5-4.9,13.2-9.7,20-14.1c15.4-9.9,31.2-19.1,47.9-26.8
		c24.7-11.4,49.5-22.6,75.9-29.8c17.3-4.8,32.5-1.1,46.3,10c8.5,6.8,11.9,15.7,13.5,26c1.4,9.2,1.1,18-2.9,26.3
		c-6.7,13.9-17.8,22.7-33.1,24.9c-14,2-28.2,2.6-42.4,3.3C458.6,547.5,451.4,547.5,447,547.8z"/>
</g>
</svg>
