<?xml version="1.0" encoding="utf-8"?>
<!-- Generator: Adobe Illustrator 23.0.1, SVG Export Plug-In . SVG Version: 6.00 Build 0)  -->
<svg version="1.1" id="Layer_4" xmlns="http://www.w3.org/2000/svg" xmlns:xlink="http://www.w3.org/1999/xlink" x="0px" y="0px"
	 viewBox="0 0 1000 1000" style="enable-background:new 0 0 1000 1000;" xml:space="preserve">
<style type="text/css">
	.st0{fill:#FEB515;}
	.st1{fill:#7D7489;}
	.st2{fill:#EEFAFC;}
	.st3{fill:#F1FEFE;}
	.st4{fill:#FEE1C4;}
	.st5{fill:#D1D9F0;}
	.st6{fill:#936000;}
	.st7{fill:#CBDDD7;}
	.st8{fill:#956100;}
	.st9{fill:#682000;}
	.st10{fill:#CADED2;}
	.st11{fill:#FC0000;}
	.st12{fill:#800000;}
	.st13{fill:#FEFEFE;}
</style>
<g>
	<path d="M563.7,418.9c21.1,2.7,38.3,12,51.5,28.2c4.8,5.9,7.8,13.2,10.8,20.3c2,4.6,4.8,7.2,10,8.5c12.2,3.1,15.1,11.1,11,22.2
		c-2.7,7.2-3.8,13.6-2.7,21c0.5,3.5,1,7.4-0.7,10.9c-0.9,1.9,1.1,2.9,1.9,4.1c6.2,9.8,3.4,22.5-6.7,28.3c-3.6,2.1-7.3,4.4-11.5,5.2
		c-5.7,1.2-7.8,6.4-11,10.1c-8.1,9.7-17.3,17.9-27.7,24.9c-16.7,11.2-35.2,17.6-54.8,21.5c-13.5,2.7-27.1,3.3-40.8,2.7
		c-19.8-0.9-39.1-4.9-57.5-12.5c-15.3-6.4-29.3-14.7-41.3-26.3c-3.3-3.2-6.5-6.8-8.7-10.7c-3.9-6.8-11-7.3-17-9.9
		c-8.1-3.5-15.8-7.2-19-16.4c-2.2-6.3-0.4-11.8,3.5-16.8c1.7-2.1,2-3.7,1.8-6.6c-0.3-7.9-3-15.9-0.7-23.9c0.3-0.9,0-1.4-0.6-2.1
		c-9.1-11.5-3.1-25.2,11.6-27.3c5.7-0.8,6.5-5,7.7-8.8c4.4-14,14.1-23.3,26-31c9.3-6,19.4-10.2,30.2-12.8c1.5-0.4,2.3-1,1.7-3.1
		c-1.3-4.2-2.1-8.5-2.8-12.9c-1.3-7.7,1.8-14.2,5.7-20.5c5.3-8.5,14.1-11.9,22.5-15.9c1.5-0.7,3.1-1.7,4.7-2c4.8-1,2.2-4.5,1.9-6.6
		c-0.5-3.4-2.7-0.5-4-0.3c-6,1.1-11.9,3.2-18,3.7c-14.3,1.3-22.5-7.7-27.4-18.6c-4.2-9.3-6-19.5-5-29.8c1-10.6,3.5-20.6,13.4-26.9
		c3.5-2.2,7.3-3.6,11.5-3.7c5.5-0.1,11.1-0.1,16.6,0c3.1,0.1,3.7-0.7,3.1-3.9c-1.2-5.7-1.9-11.6-2.6-17.4
		c-1.3-11.1,3.9-18.2,13.9-22.4c12.7-5.4,25.7-9.7,39.6-10c9.4-0.2,17.7,3.5,23.7,11.2c2.3,3,2.9,6.6,2.9,10.3
		c0,8.2,0.4,16.5-1,24.7c-0.5,3.2,0.9,3.9,3.8,3.6c7.3-0.8,14.6-1.8,22-1.9c15.3-0.3,20.2,5.2,24.8,17.6c6.8,18.2,3.4,36.2-5.8,53
		c-4.2,7.6-16.7,12-25.2,10c-6.1-1.4-12.4-2.4-18.6-3.4c-2.6-0.4-2.8,1.9-2.8,3.5c0,1.4-2.3,3.4,1.3,4.4c8.5,2.3,16,6.9,23.6,11.4
		c14.7,8.6,18.4,26.6,12.3,40.6C564.4,417,564.1,417.8,563.7,418.9z"/>
	<path class="st0" d="M568.2,339.8c-0.6,1-1.2,2-1.8,2.9c-5.3,4.1-10.9,4.5-16.7,1.1c-6.7-1-13.5-2-20.2-2.9
		c-3.7-0.5-6.8-0.5-7.2,4.8c-0.3,4.1-3,8.1-3.3,12.2c-0.5,5.8-3.9,5.9-7.9,5.2c-11.6-2-23.1-0.7-34.5,0.7c-2.6,0.3-3.2-0.3-3.9-2.6
		c-2.1-6.5-3.2-13.4-6.6-19.4c-1.9,1.3-3.8,2.6-6.1,1c-8.7,0.3-17.3,1.7-25.9,2.7c-2.1,0.2-4.2,0-6.2,0c-6.3-8.1-8.9-27.1-2.5-36
		c5.5-7.7,14.1-10.7,23.2-11.8c4.5-0.5,9-1.4,13.6-1.2c4,0.1,5.4-1.8,5.4-5.7c0.1-8.1-0.5-16.2,0.9-24.3c1.1-6.1,4.1-10,10.1-11.8
		c4.5-1.4,9-2.7,13.7-3.4c12.6-2,21.6,4.9,23,17.7c0.7,6.3,1.4,12.6,1,19c-0.2,3.8,1,5.6,5,6c8.4,0.8,16.8,1.2,25.2,2.6
		c12.7,2.2,17,7,17.6,19.9c0.1,2.8,0.4,5.6-0.2,8.3C562.2,330.6,563,335.9,568.2,339.8z"/>
	<path class="st1" d="M403.2,582.1c-2.8-2.7-5.6-5.4-8.4-8.1c-0.5-0.5-1.5-1.1-1-2c0.6-1.1,1.6-0.6,2.5-0.3
		c12.5,3.6,25.5,4.3,38.3,6.3c4.7,0.7,9.7,1,14.4,1c9.6-0.1,19.1,0.7,28.6,1.4c11.7,0.8,23.4,1.1,35,0.5c17-0.9,34.1-1.9,51.1-3.5
		c14.4-1.3,28.6-3.1,42.8-6.1c0.5-0.1,1.1,0.2,2.6,0.5c-3.9,4.2-7.3,8-11.4,11.2c-13.2-0.8-23.2,7.1-34.1,12.8
		c-18.8,9.8-38,18.9-59.8,18.7c-21-0.2-40.6-6.8-59.1-16.4c-8.1-4.2-15.9-8.8-24.1-12.8C415.1,582.6,409.4,580.8,403.2,582.1z"/>
	<path class="st2" d="M550.8,425.9c6.9,0,13.2,2.7,19.7,4.4c10.9,2.8,20.9,7.5,29.6,14.8c4.8,4,7.9,9.3,11,14.5
		c3.2,5.5,5.6,11.5,8,17.4c1.6,3.8,0.5,7-3.8,8.4c-3.9,1.3-7.8,2.5-11.9,2.1c-0.5,0-1-0.1-1.6-0.3c-1.7-0.7-3.5-0.6-5.3-0.9
		c-16.7-3.7-31.1-12-44.1-22.8c-7-5.8-11.6-13.1-13.2-22.1C537.6,431.9,541.4,426.8,550.8,425.9z"/>
	<path class="st3" d="M384.7,485.4c-5.6-1.1-6.1-2.6-5.3-8.1c1.7-10.8,7.1-19.5,14.6-26.9c9-8.9,20-14.4,32.2-17.8
		c6.6-1.9,12.9-5.2,20-4.9c8.4-1.1,11.9,2.4,10.9,10.6c-1.2,9.9-6.9,16.8-14,23.1c-12.2,11-26.7,17.6-41.8,23.1
		C395.9,486.6,390.3,487.1,384.7,485.4z"/>
	<path class="st4" d="M568.2,339.8c-6.1-2.2-8.2-6-6.5-13c1.6-6.5,0.8-12.8-0.7-19.1c-1.2-5.2-5.2-7.7-9.9-8.8
		c-7.8-1.9-15.8-2.6-23.9-3c-3.5-0.2-7-0.7-10.6-0.9c-2.2-0.1-2-1.6-2.1-3.1c-0.1-7.1-0.4-14.2-0.8-21.3
		c-0.8-12.9-9.1-19.8-21.7-17.8c-5,0.8-9.7,2.2-14.4,3.6c-5.1,1.5-7.2,5.1-8,10.2c-1.3,7.8-0.7,15.5-0.8,23.3c-0.1,8.1,0,7.8-8,8.2
		c-7.8,0.4-15.7,0.9-23.1,3.8c-11,4.3-17.2,15.6-14.4,27.1c1.4,5.6,3,11.1,4.5,16.7c-3.5,0.3-5.6-1.3-7.1-4.4
		c-6.1-12.8-6.2-25.6-0.2-38.4c2.9-6,8.4-8.5,14.7-8.8c8.8-0.3,17.6-0.2,26.3,0c3.2,0.1,3.6-0.9,3-3.9c-1.8-8.5-3-17.1-4.5-25.7
		c-1.1-6.1,1.8-10.5,6.7-13.3c10.4-5.9,22-8.4,33.7-9.8c3.6-0.4,7.3,0.5,10.7,1.8c7.9,3.2,11.5,11.2,9.4,20.8
		c-1.2,5.3-1.4,10.7-1.9,16.1c-0.1,1.6,0,3.3-0.3,4.8c-1.5,6.4-0.8,7.2,5.6,6.2c7.9-1.2,15.9-2,23.9-1.9c4.2,0,8.2-1.8,12.4-0.8
		c8.5,2.2,11.3,9.1,12.9,16.5c2.1,9.5,1.1,18.9-1.7,28.2C570.6,335.5,569.3,337.6,568.2,339.8z"/>
	<path class="st0" d="M450.1,417.8c-1,0.1-2.1-0.2-2.9,0.2c-4.6,2.5-6-0.3-7-4c-0.9-12.9,7-20.2,16.7-26.3c8.6-5.4,18.4-6.1,28-7.7
		c17.6-2.8,35-2.1,51.9,4c8.4,3,14.8,8.7,19.5,16.2c1.1,1.8,1.9,3.8,1.4,6c0.2,4.4-2.9,7.6-4.4,11.4c-0.4,1.1-1.8,1.8-2.8,1.2
		c-2.1-1.4-4.4-0.5-6.6-1c-10.6-7.9-22.1-13.3-35.4-14.8c-11.9-1.3-23.6-1.6-35.3,0.9c-7.1,1.5-12.6,5.8-17.9,10.4
		C453.7,415.7,452.1,417,450.1,417.8z"/>
	<path class="st0" d="M627.9,543c2-1.5,4-3.1,6.1-4.6c2-1.4,3.5-1.3,3.8,1.6c1.4,5-1.2,8.5-4.6,11.5c-4.6,4.1-10.3,6.2-16.1,7.8
		c-18.5,5.1-37.3,8.5-56.3,10.3c-5.3,0.5-10.6,1-15.9,1.5c-21,2.2-42.2,2.8-63.3,1.9c-14.4-0.6-28.9-0.9-43.2-2.9
		c-1.9-0.9-4.1,0.3-5.9-0.8l0.1,0.1c-15.2-2.2-30.3-4.4-45.2-8.1c-10.2-2.5-19.1-7.1-25-16.4c-1.3-2.1-2.3-4.3-1.3-6.9
		c3.5-2.2,3.3,2.1,5,2.9c10.7,8.1,23.3,11.6,36.1,13.9c23.4,4.3,46.9,6.5,70.7,7.4c13.4,0.5,26.6,0.4,39.9-0.4
		c18.5-1.1,37-2.4,55.4-4.3c15.7-1.6,31.3-4,46.4-8.5C619.5,547.7,624,546,627.9,543z"/>
	<path class="st0" d="M637.8,494.1c-0.6,3.3-3.2,4.2-5.9,5c-15.7,3.5-31.7,5-47.8,6.3c-25.1,2.2-50.3,2.6-75.4,3.7
		c-11.4,0.5-22.8,0.9-34.1-0.5c-4.7-0.6-9.4-0.2-14.1-0.3c-27.9-0.6-55.8-1.9-83.4-7c-3.7-0.7-7.3-1.3-10.9-2.3
		c-2-0.5-3.9-1.1-4.9-3c1.8-4.1,5-6,9.8-4.7c12.8,3.5,25.8,4.8,38.8,6.7c12.1,1.8,24.2,2.4,36.4,3.4c5.6,0.4,7.4-1.4,8.7-7.6
		c3.5-18,7.4-36,13.6-53.3c2-5.7,4.3-11.2,7.1-16.6c1-1.9,2-3.7,4-4.8c1.1-0.1,2.3-0.7,3.1,0.7c0.8,2.2-0.7,3.8-1.5,5.5
		c-9.2,19.9-14.8,40.9-18.4,62.5c-0.7,4.4-0.3,8.4,2.3,12.1c23,1.7,46.1,1.5,69.1,0c2.6-5.1,3.2-10.4,1.8-16
		c-5-20.3-11.6-40-19.2-59.4c-0.7-1.7-2.2-3.3-1-5.4c0.9,0,1.9,0,2.8,0c3.7,3.5,5.3,8.1,7.1,12.6c6.6,16.6,11.3,33.9,15,51.4
		c0.9,4.3,2,8.6,2.9,12.8c0.9,4.1,3.3,5.5,7.3,5.6c5.1,0.2,10.1-0.7,15.1-1.2c13.4-1.3,26.8-2.3,40.2-4.2c6.9-1,13.7-2.6,20-5.8
		C631.6,487.5,636,489.1,637.8,494.1z"/>
	<path class="st5" d="M403.2,582.1c4.9-4.5,10-1.4,14.4,0.4c9.5,3.9,18.4,9.3,27.4,14.2c15.1,8.2,31.2,13.1,48.2,15.7
		c20.1,3.1,38-3.3,55.9-10.9c9.4-4,18-9.2,26.7-14.3c6.7-3.9,13.8-7.1,22-4.2c-10.8,10.5-23.7,17.5-37.3,23.5
		c-12.8,5.6-26.4,8.3-40.1,10.4c-12.8,2-25.8,1.6-38.8-0.5c-10.9-1.7-21.9-3.3-32.3-7.1c-15-5.5-29.4-12.2-41.3-23.2
		C406.4,584.7,404.1,584.2,403.2,582.1z"/>
	<path class="st6" d="M627.9,543c-5.2,6.7-13.2,7.6-20.5,9.7c-15,4.4-30.6,5.5-46.1,7.1c-18.8,1.9-37.7,2.3-56.4,4.1
		c-16,1.5-31.8,0.2-47.5-0.7c-21.1-1.1-42.3-3.3-63-8.5c-9.1-2.3-18.1-4.7-25.5-10.8c-1-0.8-2.1-1.6-2.6-2.8
		c10.9,5.8,22.8,8.3,34.8,10.1c9.2,1.4,18.4,2.7,27.7,3.5c16.2,1.5,32.4,3.3,48.6,3.7c15.5,0.4,31.1,1.1,46.7-0.6
		c6.4-0.7,12.9-1,19.3-1.1c13.4-0.1,26.6-2.5,39.8-3.8c11.7-1.1,23.1-3.7,34.5-5.9C621.4,546.3,624.2,543.4,627.9,543z"/>
	<path class="st4" d="M557.8,406.3c-5.1-13.2-15.5-20.1-28.6-23.3c-16.6-4-33.4-4.1-50.2-0.5c-6.2,1.3-12.5,2-18.5,4.9
		c-11.4,5.6-18.5,14-20.2,26.7c-1.6-5.1-3.6-10-2.4-15.6c2.7-12.5,13.2-16.9,23-21.4c14.7-6.7,30.5-8,46.4-6.9
		c16.2,1.1,31.3,6.1,43.9,16.7C555.4,390.4,560.6,399.3,557.8,406.3z"/>
	<path class="st6" d="M472.6,551.6c-8.2,1.4-14.2-1.8-18.8-8.5c-4.4-6.4-2.9-16.5,3.9-21.4c1.5-1.1,2.6-3.5,5.2-3.1
		c4.6,0.3,8.8,1.6,12.9,3.8c6.5,3.5,13.1,3.2,19.6-0.1c4.5-2.3,9.2-4,14.5-2.9c3.7,2.3,6.6,5.5,8.5,9.4c4.1,8.6-2.8,20.4-13.4,23
		c-8.6-0.2-13.5-5.5-12-12.7c1.9-5.4,0.4-8.2-5.1-9.3c-3.6-0.8-7-0.3-10.1,1.9c-2.3,1.7-2.6,3.9-1.8,6.4
		C478.2,546.3,477.7,548.2,472.6,551.6z"/>
	<path class="st6" d="M556.9,517.5c5.6,0.7,11.9-0.7,18.2-0.9c8.6-0.2,15.6,7.2,14.7,15.9c-0.7,6.4-3.4,12.5-9.5,15.3
		c-3.9,1.8-8.7,1.8-13.2,1.9c-10.2,0.3-20.3,1-30.4,1.8c-4.4,0.3-11.8-8.1-12.2-13.9c-0.8-11,5.3-17.7,16.3-19.2
		C545.9,517.7,551,517.8,556.9,517.5z"/>
	<path class="st5" d="M384.7,485.4c10.3,0.6,19.7-2.7,28.9-7c12.7-5.9,24.6-12.9,34.3-23.2c4.9-5.2,7.4-11.3,8.2-18.2
		c0.7-6.4-2.2-9-9.8-9.3c6.3-2.4,13-1.5,20.2-3.4c-6.9,17.5-11.7,34.5-17.1,51.3c-2.9,7.4-9.4,10.2-16.1,12.9
		c-5,2-10.2,1.3-15.3,1.6C406.7,489.5,395.4,489.6,384.7,485.4z"/>
	<path class="st6" d="M447.3,535.7c0,9.6-5.2,13.9-14.7,13.2c-9.9-0.7-19.8-2.2-29.7-2.9c-12.6-0.9-13.8-5.3-15.1-16.2
		c-0.7-5.7-0.2-11.3,5.8-14.7c2.6-1.5,5.2-1.8,7.9-1.4c10.6,1.8,21.4,2.3,32.1,2.9c4.1,0.2,11.2,6.5,12.5,11.5
		C446.7,530.7,447.9,533.3,447.3,535.7z"/>
	<path class="st7" d="M601.5,486.3c0.4,0,0.7,0.1,1.1,0.1c2.9,1.2,6-0.4,8.9,0.9c-3.9,2.4-8.4,2.3-12.6,2.8
		c-7.1,0.8-14.4,0.8-21.6,1.2c-6,0.7-11.8,0.4-17.4-2c-5.1-2.2-9-5.5-10.9-10.9c-6.2-17.9-12.6-35.8-17.4-54.7
		c6.5,0.6,12.9,0.8,19.3,2.2c-10.5,3.6-13.3,10.8-8.9,21.4c4.1,9.7,12,15.6,20,21.8c10.5,8.1,22.5,12.4,34.8,16.3
		C598.2,486.5,600.1,485.2,601.5,486.3z"/>
	<path class="st6" d="M366.1,499.1c9.1-0.7,17.8,2.3,26.8,3.3c6.8,0.8,13.7,1.8,20.6,2.2c7.9,0.5,15.8,1,23.7,1.4
		c12.1,0.7,24.3-0.1,36.4,1c11,1,22.1,1.1,33,0.5c11.8-0.7,23.7-0.1,35.4-0.9c15.4-1.1,30.9-1.5,46.3-2.9
		c12.3-1.1,24.6-2.3,36.8-4.6c2.2-0.4,4.5-0.1,6.8,0c-6.5,3.3-13.6,4.5-20.6,5.7c-15.1,2.6-30.4,2.9-45.5,4.8c-4.5,0.6-9,0.9-13.5,1
		c-24.5,0.2-49,2.4-73.5,0.9c-15.3-0.9-30.7,0.1-46-1.7c-15.6-1.9-31.3-3-47-5.1C379.1,503.9,372.2,502.5,366.1,499.1z"/>
	<path class="st8" d="M450.1,417.8c8.7-10,19.3-15.5,32.9-16.8c13.4-1.2,26.3,0.5,39.1,3.4c8.6,2,16,6.7,21.9,13.3
		c-3.5-1.4-7.3-0.9-10.9-1.2c-5.5-0.5-8.9-5.6-14.4-6c-1.9-0.1-4.1-1-5.7-0.2c-7.7,3.6-16.1,0.2-23.9,2.7c-10-5.1-18.4,1.7-27.6,3.5
		C457.8,417.4,453.9,417.4,450.1,417.8z"/>
	<path class="st4" d="M479.5,419.1c-9.8,18.1-15.6,37.5-19.5,57.6c-1.3,6.6-2.6,13.2-4.1,19.7c-1.3,5.7-5.5,8.1-13,6.3
		c-6.2-1.4-12.5-0.7-18.7-1.5c-9.4-1.3-18.7-2.9-28.1-3.8c-8.8-0.8-17.3-2.9-25.9-5c-3.5-0.9-6.5,1-8.9,3.7
		c-3.3-5.5-2.3-9.2,3.2-11.7c6.3-2.9,6.7-2.4,10.8,3.2c3.7,5.1,9.9,5.7,15.7,6.6c16.2,2.3,32.4,3.6,48.7,4.1
		c11.8,0.4,11.2,1.1,13.7-10.2c4.7-21.8,11-43.1,19.6-63.7C474.1,421.5,475.9,419.1,479.5,419.1z"/>
	<path class="st4" d="M637.8,494.1c-4.3-4.8-7.1-5-12.6-1.8c-5.2,3-11.2,3.9-17,4.7c-15.6,2.2-31.2,3.8-46.9,5.1
		c-4.3,0.4-8.7,0.8-13,0.7c-2.9,0-4.8-1.1-5.6-4.6c-3.6-15.9-7.4-31.8-11.6-47.5c-2.4-8.8-5.9-17.2-9.9-25.5c-1-2-2.4-3.8-2.7-6.1
		c5.3,0.6,6.6,5.1,7.7,8.9c6.6,22.7,15.6,44.7,20.7,67.9c0.4,1.9,1.3,3.2,3.9,3.2c14.5-0.2,28.8-1.2,43.2-2.9
		c7.1-0.8,14.2-1.3,21.2-3.1c4.8-1.2,9-3.3,9.8-8.9c0.1-0.8,0-1.8,1.1-1.7c3.8,0.2,7.7,1.1,10.6,3.5
		C639,488,639.7,491.1,637.8,494.1z"/>
	<path class="st0" d="M621.1,539.9c-4.9,1.4-9.7,2.8-14.6,4.2c-2.6,0.3-4.2-1.1-5.7-2.9c-6.9-8.7-8.3-15-2.2-24.6
		c1.7-3.3,5.2-3.4,7.9-3.6c4.1-0.4,8.2-1.9,12.4-1.2c2.3,2.9,4.4,5.9,7.3,8.3c2.8,2.2,3.3,5.4,1.8,8.8
		C626.3,532.8,623.5,536.2,621.1,539.9z"/>
	<path class="st4" d="M475.4,481.4c6.1-10.6,15.5-16,27.5-14.4c10.6,1.4,18.7,7.5,22.3,18.3c-1.3,3.2-3.7,3.4-6.4,2.4
		c-3.1-1.2-5.7-3.1-8.2-5.2c-8.1-6.9-13.3-7.3-22.5-1.9c-2.1,1.2-4,2.8-6,4.2C478.3,487.4,476.1,486.2,475.4,481.4z"/>
	<path class="st0" d="M475.4,481.4c2.3,4.7,3,4.7,6.8,1.7c6.6-5.1,13.5-9.7,22.4-6.5c4.5,1.6,7,6,11.1,8.3c3,1.6,6.1,4.2,9.5,0.5
		c0.5,2.8,1.1,5.5,1.7,8.7c-2.8,0-5.6,0-8.3,0c-2.4-0.8-4-2.7-5.8-4.3c-9-8.3-18.3-8.2-27,0.3c-1.6,1.6-3.2,3.2-5.4,4
		c-8.4,0.4-8.5,0.3-6.1-7.7C474.8,484.7,473.6,482.7,475.4,481.4z"/>
	<path class="st6" d="M465,499.9c-4.7-2.2-4.5-6.6-3.9-10.5c4-24.2,9.8-47.8,21.5-69.6c2,0.2,1.7,1.1,1.1,2.6
		c-8.5,21-12.4,43.2-16.8,65.2C466,491.7,464.9,495.7,465,499.9z"/>
	<path class="st6" d="M515.7,419.1c4.2,10.6,8.7,21.1,12.1,32c3.5,11.5,7.5,22.9,9.9,34.7c1,5,1.2,10.3-3.6,14.1
		c-0.8-11.7-4.1-22.9-7.3-34.1c-4.1-14.3-7-28.9-12-42.9C514.4,421.8,512.8,419.7,515.7,419.1z"/>
	<path class="st4" d="M621.1,539.9c-0.2-4.5,3.8-6.9,5.5-10.5c2-4.4,1.4-7.4-2.6-9.9c-2.9-1.8-4.8-4.3-5-7.8
		c3.2-0.9,6.4-2.6,9.6-2.7c4.2,0,5.4,4,6.1,7.3C637.3,530.6,635.7,533.2,621.1,539.9z"/>
	<path class="st0" d="M377.9,540.1c-2-0.7-3.9-1.4-5.9-2.1c-1.8-2.2-3.5-4.5-3.1-7.7c3.9-3.9,1.9-7.3-0.8-10.6
		c4.2-2.7,4.7-6.4,2.9-10.7c2.6,0.2,4.9,1,6.8,2.8c5.4,7,6.5,14.7,3.8,23C381.1,536.9,380.4,539.1,377.9,540.1z"/>
	<path class="st9" d="M472.6,551.6c4-4,4.2-8.6,2-13.6c1-0.5,1.9,0,2.8,0.5c4.5,2.8,9.2,2.9,14,0.7c0.9-0.4,1.8-0.7,2.8-0.1
		c-1.9,4.7,0.3,7.7,4.2,9.9c2.1,1.1,4.4,2,6.6,3c-2.5,1.7-5.3,0.9-7.9,0.8C488.9,552.5,480.7,553.7,472.6,551.6z"/>
	<path class="st8" d="M459.8,342.9c2-0.3,4.1-0.6,6.1-1c1.1,5.3-1.6,7.1-6.5,7.9c-5.8,0.9-11.4,2.8-17.1,4.3
		c-5.6,1.4-11.5-0.6-15-5.2C438.5,348.1,449.5,347.3,459.8,342.9z"/>
	<path class="st4" d="M361.2,538.1c1.5,8.4,7.5,13.2,14.2,17.3c9.4,5.8,20.2,6.9,30.7,9.1c8.8,1.8,17.9,2.3,26.6,5
		c-18.2-0.8-35.9-4.9-53.5-9.2c-4.7-1.2-9.2-3-13.4-5.4C358.6,550.7,357,545,361.2,538.1z"/>
	<path class="st4" d="M544.9,571.1c6.1-2.5,12.6-1.9,18.9-2.6c16.8-1.8,33.2-5.1,49.5-9.5c5.8-1.5,11.3-3.5,16.4-6.6
		c4.9-2.9,7.3-7,8.1-12.5c3.1,5.2,0.8,11.1-5.3,14.7c-9.7,5.7-20.7,7.3-31.4,9.6c-12.2,2.6-24.6,4.6-37,5.7
		C557.8,570.6,551.4,571.9,544.9,571.1z"/>
	<path class="st6" d="M480.4,494c2.9-2.8,5.3-6.3,8.6-8.4c9-5.9,15.6-3.6,23.9,2.5c2.2,1.6,3.8,3.9,5.7,5.9
		c-1.6,0.4-3.1,0.9-4.7,1.1c-3.9,0.4-7,0.3-8.8-4.7c-2.2-6.3-10.2-7-12.7-1.3c-2.3,5.2-4.9,7.2-10.2,5.1
		C481.7,493.9,481,494,480.4,494z"/>
	<path class="st9" d="M509.8,519.4c-5,0-9.5,1.8-13.8,4.1c-7.1,3.7-14.1,3.9-21.2,0c-3.8-2-7.7-4-11.9-4.9c14.6,0,29.2-0.1,43.8-0.1
		C507.8,518.6,509,518.4,509.8,519.4z"/>
	<path class="st6" d="M510.8,453.2c-7.4,4.6-14.9,5.1-22.7,1c2.1-2.7,3.1-5.6,1.4-9c-0.7-1.5-0.7-3.2,0.3-4.7
		c1.1-0.8,1.7,0.1,2.5,0.6c5.4,3.6,8.2,3.4,13.1-1c0.5-0.4,1-0.8,1.6-0.9c2.5,1.2,1.9,3.4,1,4.9
		C505.4,448.4,506.7,451.1,510.8,453.2z"/>
	<path class="st0" d="M510.8,453.2c-6.1-0.6-7.3-2.9-4.4-8.3c1-1.7,2.4-3.6,0.5-5.6c-1.9-1.3-2.8-3.2-3.4-5.4c0.1-0.4,0.4-0.8,0.8-1
		c2.1-0.6,4.1-1.7,6.4-1.5c2.1,0,2.4,1.8,2.9,3.2c0.8,2.5,1.3,5.2,2.1,7.7C517.6,448.4,516.7,450.4,510.8,453.2z"/>
	<path class="st0" d="M490.4,440.3c-0.3,2.3,0,4.4,1,6.5c1.7,3.5,0.6,6.1-3.2,7.4c-6.6-2.5-7.4-3.5-5.7-9.9
		c1.1-4.3,1.3-8.9,3.8-12.8c3.5,0.2,7-0.2,10.5-0.7c2.7-0.4,5.9-1.1,7.2,2.7l-0.2,0.2c-0.6,0.7-1.4,1-2.2,0.8
		C496.3,433.4,492.7,435.6,490.4,440.3z"/>
	<path class="st8" d="M549.7,343.9c5.7,1.1,11.3,1.3,16.7-1.1c-2.1,2.2-4.2,4.5-6.3,6.7c-3.6,4-8,1.1-11.9,0.9
		c-7.1-0.5-14.2-2.1-21.3-3.2c0-2.4,1.7-2.5,3.6-2.5c4.9,0.1,9.7,0.1,14.6,0C546.7,344.6,548.4,345.5,549.7,343.9z"/>
	<path class="st1" d="M417.9,490.1c3.9-1.7,8.1-0.8,12.1-1.9c7.8-2.2,14.2-6.3,19.2-12.6c-0.1,5-2.4,9.6-3.1,14.5
		c-0.4,2.5-2.5,2.2-4.3,2.1C433.9,491.5,425.9,490.8,417.9,490.1z"/>
	<path class="st4" d="M371.1,509c4.5,6,3.9,8.2-2.9,10.7c-8.8-1.3-4.9-8.2-6-13.3C365.3,507.3,368.2,508.1,371.1,509z"/>
	<path class="st6" d="M598.6,516.6c-2.5,6.2-4.3,12.4-0.4,18.6c2.2,3.5,4.1,7.2,8.3,8.9c-7.3,2.3-7.7,2.2-10.9-4.3
		C591.1,530.7,592.1,523.4,598.6,516.6z"/>
	<path class="st1" d="M548.9,478.4c6.8,10.1,16.9,13,28.3,12.9c-0.9,1.3-2.4,0.9-3.6,0.8c-5.8-0.1-11.5,0.2-17.3,1
		c-2.7,0.4-4.5-0.2-4.8-3.7C551.2,485.7,549.9,482.1,548.9,478.4z"/>
	<path class="st4" d="M504,433.5c-3.5-3.6-7.5-1.4-11.2-0.7c-2.6,0.5-4.5,0.1-6.5-1.3c8.1-5,16.3-5,24.4,0
		C508.7,432.8,506.6,434.1,504,433.5z"/>
	<path class="st6" d="M377.9,540.1c5.9-9.4,4.3-18.9,0-28.4c7.4,3.7,8.8,20.1,3.8,27.7C380.7,540.8,379.6,542,377.9,540.1z"/>
	<path class="st4" d="M369,530.3c1.6,2.3,2.4,4.9,3.1,7.7c-3.2-1.2-5.6-3.5-8.1-5.9C365.6,530.6,367.8,531.9,369,530.3z"/>
	<path class="st10" d="M611.4,487.3c-2.9-0.5-6.1,0.9-8.9-0.9c4.2-0.3,8.5-0.7,12.7-1C614.3,486.6,613,487.2,611.4,487.3z"/>
	<path class="st4" d="M432.5,569.3c2,0.3,4.1-0.7,5.9,0.8C436.5,570,434.3,571.3,432.5,569.3z"/>
	<path class="st11" d="M467.7,308.6c3.1-9.2,10.5-13.3,19.1-15.5c10.1-2.6,19.6-0.6,28,5.8c3.9,3,6.7,6.8,7.8,11.6
		c1.8,10.2-3.2,20.2-12.6,24.3c-17.6,7.6-32.6,1.3-40.9-14C467.1,317.1,466.4,312.9,467.7,308.6z"/>
	<path class="st12" d="M467.7,308.6c0.6,15.8,11.5,27.2,25.5,27.9c15.3,0.8,28.1-4.4,29.4-26c2.4,2.9,1.6,6.4,2,9.7
		c1.4,7.6-5.3,18.2-15.5,22.5c-12.5,5.3-24.6,4.3-35.4-4.2c-6.4-5-10.2-11.7-8.9-20.3C464.8,314.8,465.3,311.4,467.7,308.6z"/>
	<path class="st8" d="M464.7,318.3c0.7,12.5,9.8,22.8,22,25.4c10,2.1,19.1,0.5,27.5-5.6c6.1-4.5,9-10.7,10.3-17.9
		c3.4,11-5.7,26.2-17.4,29.4c-8.5,2.4-16.8,2.3-25.1-0.3C469.4,345.4,460.8,332.2,464.7,318.3z"/>
	<path class="st10" d="M601.5,486.3c-1.6-0.2-3.4,0.6-4.8-0.9C598.4,485.6,600.2,484.7,601.5,486.3z"/>
	<path d="M494.1,539c-6.7,4.4-13.3,4.1-19.5-1c-1.6-3.4-0.2-5.9,2.7-7.7c4.6-2.7,9.3-3.1,14.1-0.5
		C495.9,532.4,496.5,534.3,494.1,539z"/>
	<path class="st0" d="M509.8,546.7c-1.5-0.6-2.2-1.3-1.4-2.9c2.5-5,3.7-10,0.6-15.2c-0.5-0.9-0.1-1.9,0.8-2.6c1-0.8,1.7-0.2,2.5,0.5
		c5.3,4.4,4.5,16-1.3,19.6C510.6,546.3,510.2,546.5,509.8,546.7z"/>
	<path class="st0" d="M460.2,527.6c1.4,0.5,2,1.6,1.5,3c-1.3,4.3-1.1,8.5,0.1,12.8c0.3,0.9,0.7,2.5-0.6,3c-1.3,0.6-2-0.8-2.7-1.6
		c-4.2-4.4-4.6-12.1-0.7-15.8C458.4,528.4,459,527.5,460.2,527.6z"/>
	<path class="st0" d="M576,518.6c1.3-0.1,2.5,0.2,3.7,0.8c3.1,1.6,8.5,10.7,8.1,13.7c-0.8,5.8-6.2,11.7-11.7,12.7
		c-2.6,0.5-4.8-0.4-6.6-2.2c-2.1-2,0.1-3.5,0.7-5.1c1.6-3.6,1.6-7.1-0.2-10.7C567.6,522.7,570.3,518.7,576,518.6z"/>
	<path d="M559.8,527.3c4.1,0.3,6.5,2.4,7.5,6c1,3.6-1.5,5.2-4.2,6.6c-3.7,1.9-7.4,2.7-11.4,0.7c-4.6-2.3-5.1-5.2-1.6-9.1
		C552.8,528.4,556.5,528.3,559.8,527.3z"/>
	<path class="st0" d="M545.6,545.9c-7.4-0.2-13.1-8.1-10.4-14.4c1.5-3.4,4.6-4.7,7.7-5c3-0.2,4.2,2.3,3.2,5
		c-1.7,4.3-2.2,8.1,2.5,10.9c0.7,0.4,1.3,1.2,0.9,2.1C548.7,546.1,547.1,545.9,545.6,545.9z"/>
	<path class="st0" d="M398.8,516.6c2-0.3,3.9,0.3,5.5,1.5c2.2,1.6,3.9,3.3,1.2,6.2c-3.6,3.8-3.9,8.1-1.2,12.9c2.3,4,0.1,6.8-4.5,6.8
		c-1.3,0-2.5-0.2-3.7-0.8c-7.3-3.6-8.9-20.4-2.2-25.1C395.2,517,396.8,516.3,398.8,516.6z"/>
	<path class="st0" d="M441.4,534.6c-0.2,5.2-5.8,10.5-10.9,10.3c-1.8-0.1-3.6-0.8-4.5-2.4c-0.9-1.6,0.6-2.6,1.5-3.7
		c2.4-3,3.9-6.3,1.1-9.9c-1.6-2-0.4-2.9,1.5-3.3C435.4,524.2,441.6,529.3,441.4,534.6z"/>
	<path d="M418.3,539.1c-1.9,0.3-3.5-0.7-5.1-1.4c-2.8-1.3-5.5-3.4-4.8-6.4c0.9-3.4,4.1-5.2,7.9-4.9c1.2,0.1,2.4,0.6,3.7,0.9
		c4,1,7.1,3.3,6.4,7.6C425.8,539,421.5,538.5,418.3,539.1z"/>
	<path d="M624,525.8c0,4.3-5.4,11.2-8.3,11.3c-2.5,0-7.3-4.6-7.3-6.9c0.1-2.5,6.8-8.9,9.5-8.7C620.9,521.8,623.5,522.9,624,525.8z"
		/>
	<path d="M490.4,440.3c0.7-6,4.2-8.5,9.8-7.2c1.2,0.3,2.5,0.4,3.7,0.5c1.3,1.8,2.8,3.4,3.1,5.7C502.8,446.7,495.2,447.2,490.4,440.3
		z"/>
	<path class="st13" d="M498.3,317.2c-3.6,0.7-6.8-0.4-9.7-1.3c-3.6-1-6-3.9-6.3-8.1c-0.2-4.6,1.8-7.8,5.9-9.4
		c6.1-2.5,12.5-2,18.6,0.1c3.9,1.3,5.9,4.5,5.9,8.9c0,4.5-2.6,7.4-6.3,8.6C503.8,316.9,501,318.3,498.3,317.2z"/>
</g>
</svg>
