<?xml version="1.0" encoding="utf-8"?>
<!-- Generator: Adobe Illustrator 23.0.1, SVG Export Plug-In . SVG Version: 6.00 Build 0)  -->
<svg version="1.1" id="Layer_4" xmlns="http://www.w3.org/2000/svg" xmlns:xlink="http://www.w3.org/1999/xlink" x="0px" y="0px"
	 viewBox="0 0 1000 1000" style="enable-background:new 0 0 1000 1000;" xml:space="preserve">
<style type="text/css">
	.st0{fill:#BBB166;}
	.st1{fill:#706930;}
	.st2{fill:#880801;}
	.st3{fill:#FEFEFD;}
	.st4{fill:#F60000;}
	.st5{fill:#5F5F61;}
	.st6{fill:#BBB165;}
	.st7{fill:#FA0000;}
</style>
<g>
	<path d="M549.1,541c-4.5,0.5-9.1-1.3-14-1.1c-3.2,0.1-3.8,1-4,4.1c-0.6,13.3-10.2,29.9-23.9,33.4c-7.5,1.9-14,0-19.5-4.4
		c-9.5-7.6-14.6-17.8-15-30.1c-0.1-2.4-0.8-2.9-3-3c-6.5-0.3-12.8,1.4-19.3,1.2c-3.7-0.2-4.8-2.1-5-5c-0.2-2.5-0.9-5.1-0.9-7.6
		c0-5.5-1-10.9-1.2-16.4c-0.1-3.3,1.1-5.6,4.1-7.4c6.7-4.1,13.3-8.3,19.8-12.8c1.8-1.2,3.6-2.3,3.6-5.5c-0.1-13.6,2.8-26.7,6.8-39.6
		c2.2-7.1,6.1-13.5,11-19.1c9.4-10.6,21.1-7.9,28.6,2.2c7.3,9.9,11.1,21.3,13.1,33.4c1.4,8.2,2.9,16.3,2.8,24.6c0,2.7,2.3,3,3.6,3.9
		c5.9,4.1,12,8.1,18.3,11.6c5.3,2.9,6.6,7.6,5.3,12.5c-1.4,5.5-0.6,11.1-1.5,16.7C557.4,540.9,558.1,541,549.1,541z"/>
	<path class="st0" d="M511.7,498.1c-6.1,3.1-12.3,2.2-18.6,0.9c-0.2-0.2-0.6-0.5-0.6-0.7c-0.1-10-0.1-19.9,3.5-29.4
		c5.2,0,10.4-0.1,15.6-0.1C517.4,477.2,517.4,491.4,511.7,498.1z"/>
	<path class="st0" d="M510.6,461.8c-4.4,1.9-9,0.9-13.6,1c-2-2.2-0.2-4.7-0.3-7c-0.1-1.9,0.4-4.4-1.8-5.1c-2.3-0.8-3.1,1.7-4.2,3.2
		c-1.1,1.4-0.8,4-3.4,4.1c-2.2-1.1-2.2-2.8-1.5-4.8c2.2-7,5.4-13.5,9.7-19.4c3-4.1,9.4-4.4,12.5-0.4c4.8,6,7.9,12.9,10.3,20.2
		c0.9,2.6-0.5,4.3-2.7,5.4c-4.3-4.3-4.6-10.5-7.6-14.6c1.1,4,2,8.9,3.2,13.7C511.6,459.4,511.8,460.7,510.6,461.8z"/>
	<path class="st1" d="M470.6,505.8c0.3,7.3-0.1,14.5,1.1,21.7c0.6,3.4-0.4,4.9-4.3,4.8c-4.1,0-8.2,1.1-12.3,1.7
		c-3-5.1-2.5-10.8-2.6-16.4c0-1.1,0.5-2.4,1.4-3C459,510.9,463.9,506.8,470.6,505.8z"/>
	<path class="st1" d="M548.9,534c-4.1-0.6-8.2-1.7-12.3-1.7c-3.9,0-4.9-1.5-4.3-4.8c1.2-7.2,0.8-14.5,1.1-21.7
		c6.6,1,11.6,5.1,16.8,8.8c0.9,0.6,1.4,1.9,1.4,3C551.4,523.2,552,528.9,548.9,534z"/>
	<path class="st2" d="M524.1,499.4c1.1,10.6,0.1,20.7-0.9,30.7c-0.7,6.5-6.2,9.3-12.4,11.5c1.4-6.5,0.8-12.7,1-18.9
		c0.1-4.4-0.4-8.7-2.3-12.7c-1.1-2.3-1.2-3.8,2.1-4.3C516.2,504.9,520,502.1,524.1,499.4z"/>
	<path class="st3" d="M496.1,468.8c-1,10.1-2,20.1-2.9,30.2c0,0,0,0.1,0,0.1c-4.6,0.2-7.3-2.7-9.7-6c-0.1-0.3-0.1-0.5-0.2-0.8
		c-2.6-6.3,0.1-12.6,0.4-18.9c0.1-2.6,0.3-5.5,2.7-7.5l0-0.1c3.6-0.3,6.7,1.3,9.8,2.9L496.1,468.8z"/>
	<path class="st0" d="M498.9,568.5c-8.8-2.3-12.4-9.4-15.4-16.8c-1.2-2.8-2.8-5.8-2-8.9c7.7,2.9,12.7,9.9,20.3,13
		c1.4,0.6,2.6,1.3,3.3,2.7c1.3,2.3,2.4,4.7,0.9,7.3C504.5,568.6,501.8,568.7,498.9,568.5z"/>
	<path class="st4" d="M492.1,505.8c2.5,0.2,2.1,2,1.5,3.3c-4.4,10.2-1.7,20.8-2.8,31.2c-1.6-0.7-3.9-1.2-5.5-3.2
		c-2.3-2.6-2.5-5.8-2.9-9c-0.8-8.4-1-16.7,0-25.1C486.8,500.1,489.3,503.5,492.1,505.8z"/>
	<path class="st0" d="M499,548.9c-2.2-2.3-2.9-5.2-2.9-8.2c-0.1-7.5-0.1-14.9,0-22.4c0-5.4,2.4-9.4,5.4-9.4c3,0,5.3,4,5.4,9.4
		c0,7.5,0.1,14.9,0,22.4c0,3-0.7,5.9-2.9,8.2c-1.7-1.7-1.4-3.9-1.5-5.9c-0.3-10.2,0.7-20.4-1-29.7c-1.7,9.6-0.7,20.1-1,30.6
		C500.4,545.7,500.5,547.5,499,548.9z"/>
	<path class="st1" d="M498.9,568.5c8.4-1.8,8.8-4.8,3-12.7c2.6-0.6,4.4-1.9,6.1-4.1c2.6-3.5,7.3-4.1,10.7-6.6c1.3,2-0.1,3.7-0.6,5.5
		c-0.6,2-1,4-0.5,6.1C514.8,565,505.9,570.6,498.9,568.5z"/>
	<path class="st1" d="M511.7,498.1c5.2-9.8,1.9-19.6,0-29.3c1.3-1.3,3.1-1.5,4.8-2c1.8,1.3,2,3.3,2.2,5.2c0.4,4,2,7.5,4.6,10.5
		c2,3,1.4,5.8-0.8,8.3C519.5,493.9,516.2,496.8,511.7,498.1z"/>
	<path class="st1" d="M499,548.9c0-9.4,0-18.8,0-28.2c0-3,0.3-6,2.4-8.5c2.1,2.4,2.4,5.4,2.4,8.5c0,9.4,0,18.8,0,28.2
		C502.3,550.3,500.7,550.3,499,548.9z"/>
	<path class="st0" d="M470.6,505.8c-4.6,2.6-9.1,5.4-13.7,7.9c-3.6,2-3.9,5-3.4,8.5c0.6,3.9,1,7.9,1.5,11.8c-1.5,0.2-2.4,0.3-3-1.9
		c-1.6-5.6,0.1-11.5-1.8-17.1c-0.6-1.9,0.4-3.1,2.1-4.2c5.9-3.6,11.7-7.3,17.7-11.1C471.1,502,470.6,503.9,470.6,505.8z"/>
	<path class="st0" d="M548.9,534c0.5-3.9,0.9-7.9,1.5-11.8c0.6-3.8,0.2-6.8-3.8-8.7c-4.6-2.3-8.9-5.1-13.3-7.7
		c-0.1-1.9-0.6-3.8,0.5-6c6.1,3.9,11.9,7.9,18,11.4c1.9,1.1,2.2,2.5,1.7,3.9c-1.8,5.6-0.2,11.5-1.8,17.1
		C551.3,534.3,550.4,534.3,548.9,534z"/>
	<path class="st2" d="M483.5,501.9c0,11.8-0.8,23.6,1.9,35.2c-3-1.5-4.6-4.3-4.7-7.4c-0.5-9.9-2-19.9-0.8-30
		c1.2,0.4,2.3,0.8,3.5,1.2c0.3,0.2,0.4,0.4,0.4,0.6C483.6,501.8,483.5,501.9,483.5,501.9z"/>
	<path class="st3" d="M487.3,458.1c1.1-2.2,2.1-4.6,3.4-6.7c1-1.7,2.9-3.2,4.7-2.8c1.9,0.5,2.3,2.8,2.7,4.7c0.5,3.3-1.2,6.3-1,9.5
		c0,0,0,0.1,0,0.1c-4.2,1-7.3-0.6-9.7-4.1C487.3,458.6,487.3,458.4,487.3,458.1z"/>
	<path class="st0" d="M486.3,465.9c-1.7,8.7-2.6,17.5-3.1,26.4c-3.3-2.4-3.9-5.2-3.2-9.4c1-6.4,1.6-12.8,2.6-19.3
		C484.4,463.3,484.8,465.6,486.3,465.9z"/>
	<path class="st0" d="M523.3,482.3c-4.6-0.8-4.5-5-5.6-8.1c-0.8-2.4-0.9-5-1.2-7.5c1.5-1.1,2.9-2.2,4.8-3.6
		C521.8,469.7,524,475.8,523.3,482.3z"/>
	<path class="st1" d="M510.6,461.8c-1.6-7.1-3.1-14.3-4.7-21.4c4.5,5.6,7.4,12,9.6,18.7C514.3,460.5,512.4,461,510.6,461.8z"/>
	<path class="st5" d="M483.5,501.9c-0.1-0.3-0.1-0.6-0.2-1c0.1-2.6,0.2-5.3,0.2-7.9c3.3,1.8,6,4.7,9.7,6c-0.3,2.2-0.7,4.5-1,6.7
		C489.2,504.5,486.4,503.2,483.5,501.9z"/>
	<path class="st5" d="M487.4,458.9c3,1.9,6.2,3.3,9.7,4.1c-0.3,1.9-0.7,3.8-1,5.8c-3.7,0.4-6.7-1.4-9.8-2.9
		C485.8,463.3,487.5,461.2,487.4,458.9z"/>
	<path class="st6" d="M517.6,556.7c-2.1-1-2.2-2.3-1.3-4.3c1-2.3,1.6-4.8,2.4-7.3c1.1-0.9,2.1-1.8,3.8-3.2
		C522.3,547.8,520.6,552.4,517.6,556.7z"/>
	<path class="st7" d="M521.1,506.7c-0.3,9.3,0.4,18.8-3.3,28.5C515.8,529.8,517.7,512.3,521.1,506.7z"/>
</g>
</svg>
