<?xml version="1.0" encoding="utf-8"?>
<!-- Generator: Adobe Illustrator 23.0.1, SVG Export Plug-In . SVG Version: 6.00 Build 0)  -->
<svg version="1.1" id="Layer_4" xmlns="http://www.w3.org/2000/svg" xmlns:xlink="http://www.w3.org/1999/xlink" x="0px" y="0px"
	 viewBox="0 0 1000 1000" style="enable-background:new 0 0 1000 1000;" xml:space="preserve">
<style type="text/css">
	.st0{fill:#8B8B8B;}
	.st1{fill:#F1F1F1;}
	.st2{fill:#B0B0B0;}
	.st3{fill:#C5C5C5;}
	.st4{fill:#F0F0F0;}
	.st5{fill:#C6C6C6;}
	.st6{fill:#F9F9F9;}
	.st7{fill:#F5F5F5;}
	.st8{fill:#F6F6F6;}
	.st9{fill:#F8F8F8;}
	.st10{fill:#939393;}
	.st11{fill:#AFAFAF;}
	.st12{fill:#A1A1A1;}
	.st13{fill:#CDCDCD;}
	.st14{fill:#CBCBCB;}
	.st15{fill:#EFEFEF;}
	.st16{fill:#BEBEBE;}
	.st17{fill:#C7C7C7;}
	.st18{fill:#B2B2B2;}
	.st19{fill:#9B9B9B;}
	.st20{fill:#FEFEFE;}
	.st21{fill:#F4F4F4;}
	.st22{fill:#8C8C8C;}
	.st23{fill:#E4E4E4;}
	.st24{fill:#929292;}
	.st25{fill:#959595;}
	.st26{fill:#909090;}
	.st27{fill:#D1D1D1;}
	.st28{fill:#E6E6E6;}
	.st29{fill:#CCCCCC;}
	.st30{fill:#BDBDBD;}
	.st31{fill:#A8A8A8;}
	.st32{fill:#C4C4C4;}
	.st33{fill:#FCFCFC;}
	.st34{fill:#8D8D8D;}
	.st35{fill:#FBFBFB;}
	.st36{fill:#D3D3D3;}
	.st37{fill:#E0E0E0;}
	.st38{fill:#CFCFCF;}
	.st39{fill:#9C9C9C;}
	.st40{fill:#DBDBDB;}
	.st41{fill:#A3A3A3;}
	.st42{fill:#D4D4D4;}
	.st43{fill:#E3E3E3;}
	.st44{fill:#CECECE;}
	.st45{fill:#C9C9C9;}
	.st46{fill:#F3F3F3;}
	.st47{fill:#ABABAB;}
	.st48{fill:#C0C0C0;}
	.st49{fill:#DADADA;}
	.st50{fill:#DCDCDC;}
	.st51{fill:#B5B5B5;}
	.st52{fill:#B4B4B4;}
	.st53{fill:#B9B9B9;}
	.st54{fill:#F7F7F7;}
	.st55{fill:#EDEDED;}
	.st56{fill:#AEAEAE;}
</style>
<g>
	<path class="st0" d="M570.9,452.7c0.6,3.6,1.2,7.3,1.8,10.9c1.7,12.3-0.5,24.3-1.8,36.5c-1.4,13.6-8.1,25-13.7,37
		c-7.7,16.3-21.3,26-37,33.2c-11.5,5.3-23.5,8-36.1,3.7c-6-2-11.4-5.1-16.1-9.3c-13.2-11.8-24.5-25.2-31.9-41.4
		c-4.9-10.8-7.2-22.1-5.9-34.2c0.9-8.3,0.5-16.6,2.3-24.9c2.1-9.8,4.8-19.4,9.6-28.3c4-7.4,11.4-10.4,18.3-13.8
		c3.2-1.6,4.1-3.6,3.7-6.9c-0.2-2.4-1.4-3.8-3.4-4.9c-2.3-1.2-3.8-3.2-3.5-5.9c0.4-3,2.5-4.5,5.3-4.8c4.7-0.5,7.8-3.1,10.8-6.7
		c7.5-8.9,17.3-13.5,28.8-15.3c6.9-1.1,13.4-4.2,20.1-6.1c11.5-3.1,23.1-4.4,32.3,5.3c4.2,4.4,7.5,9.6,10.6,14.8
		c8.8,14.9,17.8,29.8,25.2,45.4c4.5,9.4,8,19.2,11.9,28.9c0.1,0.1,0.1,0.3,0.1,0.5c1.3,4.8,0.2,10.9-2.8,11.9
		c-4.2,1.5-7.7-0.4-10.7-3.6c-5-5.3-8.4-11.7-13.1-17.2C574.5,455.9,572.5,454.7,570.9,452.7z"/>
	<path class="st1" d="M558.6,459.2c3.8-2,4.4-6.2,6.6-9.8c2.3,5,2.9,10.2,3.2,15.3c1.6,27.5-4,53.3-18.4,77
		c-1.6,2.6-3.5,5.1-5.6,7.3c-8.9,9.2-20.1,14.6-31.6,19.7c-0.7-1-0.3-1.9,0-2.9c4.6-8,5.9-17,7.9-25.9c1-1.6,2.2-3.2,2.8-5.1
		c1.5-1.5,3.6-1.5,5.4-2.2c0.8-0.3,1.7-0.7,2.5-0.9c0.7-0.1,1.4-0.1,2,0.2c3.7,2.1,7.4,4.3,10.6,6.4c-2.2-2.6-6.3-3.4-8.4-6.9
		c0.1-1.6,1.3-2.1,2.5-2.7c5.7-3.1,11-6.8,16.4-10.4c-1.6,1-3.1,2-5.1,2c-2.5,0.1-5-0.2-3.8-3.6c3.4-9.2,5-18.7,4.6-28.5
		c0-0.3,0.2-0.6,0.4-0.9c4.8,0.1,8,2.8,10.7,6.4c1,3.1-0.1,6.1,0,9.2c-0.2,0.9-0.7,1.7-0.8,2.7c-0.1,0.6,0.1-0.2,0,0.5
		c-0.1,0.6-0.1,0.6,0,0c3.1-11.7,2.7-25-1.1-37.5c1.5,6.8,3.1,13.8,1.9,21c-1.8,2.4-3.3,0.2-4.8-0.4c-2.5-1-4.5-3.7-7.7-2.6
		c-1,0.6-1.3,2.4-3,2c-0.8-0.7-1.2-1.8-2.3-2.2c-4.3-1-8.8-0.1-13.1-1.3c-1.5-0.4-3.5-0.6-3.3-2.7c0.3-2,2.3-1.9,3.8-2
		c0.9-0.1,1.9-0.1,2.9,0.1c0.8,0.1,1.5,0.4,2.2,0.8c-1.2,2.2,0.2,1.5,1.4,1.3c2.5-0.5,5.1,0,7.5-0.7c1.6,0.1,1.5,0.1,1.4-0.9
		c-0.3-3.5-2.4-7.3,1.7-10.1c1.5,1.9,0.8,3.9,0.5,5.1c-0.1,1.5,1,0.8,0.4,0.9c-0.2,0-0.4-0.1-0.3-0.3c0.5-3-0.2-6.2,1.3-9
		c0.9-1.7,2.2-2.9,3.8-4c0.9-0.6,1.8-1.2,2.6-1.9C557.1,460.7,557.4,459.5,558.6,459.2z"/>
	<path class="st2" d="M550.8,379.9c6.4,5.1,9.9,12.3,13.9,19.1c12.2,21.1,23.8,42.5,32.8,65.1c0.8,2,1,4.1,1.6,6.1
		c0.5,1.8,0.2,3.4-1.5,4.1c-1.5,0.7-3.3,0.4-4.5-1c-2-2.3-4.1-4.6-5.9-7.1c-8.2-11.3-16.7-22.3-26.3-32.5
		c-7.6-8.1-16.1-15.8-28.4-16.1c-4.7-0.1-9.3,0.2-14,0.3c-0.2-2,1.4-1.8,2.6-2.1c9-2.2,18-2.3,27-0.5c2.7,0.5,6.1,2.7,8.1-0.5
		c1.8-2.8-0.1-6-1.7-8.7c-2.8-4.8-6.2-9.1-10.9-12.3c-1.2-0.8-2.6-1.4-2.9-3.1c5.2-3.2,8.8,0.6,12.3,2.3c-2.9-2.3-6.6-4.1-11.3-3.5
		c-1.4,0.2-2.9,0.4-3.9-1.1c0.5-2.1,2.4-1.9,3.9-2.2C545.8,385.6,549.3,384.2,550.8,379.9z"/>
	<path class="st3" d="M541,390.7c8.2,5.1,14.7,11.5,17,21.3c1.1,4.6-1.1,6.9-5.8,5.7c-10.8-2.9-21.6-2.7-32.5-0.4
		c-0.4,0.1-0.8,0.5-1.2,0.8c-3.5,0.1-7,1.3-10.6,1.1c-3.3-0.2-5.3-1.7-5.1-5.1c0.3-4.7-1.4-9.8,3-13.5c1.5,1.8,0.3,3.7,0,5.5
		c-0.2,1.9-1.2,3.7-0.1,6.3c2.3-6.7,5.5-12.2,11.3-15.6c0.8-0.5,0.5-1.4,0.3-2.2c2.7-1.8,5.9-2.3,8.9-3.2
		c-5.9-2.8-9.8-8.4-16.2-10.6c10.2-4.9,20.6-7.8,31.9-6.4c3.7,0.5,6.4,2.8,8.7,5.6c-0.1,5.5-1,6.3-8.1,7.7c-1.5,0.3-3.3-0.4-4.5,1.1
		C538.5,390.1,540.4,389.4,541,390.7z"/>
	<path class="st3" d="M493.1,439.5c-5.2-0.7-10.1-2.3-15-4c-6.6-2.3-10.8-9.5-10.5-16.4c0.1-2.7,1.1-3.7,3.5-2.2
		c3.8,2.3,8,2.5,12.2,2.1c2.2-1.4,4.6-2.4,5.8-4.9c2.2-4.8,0.1-9.6-5.2-12.4c-1.6-0.9-4.5-0.3-4.5-3.4c9.4-5.7,20.1-7.4,30.9-9.5
		c-4.1-2.9-8.3-4-13-3c-2.6,0.6-5.1,2.3-8,1.2c-0.4-0.4-0.4-0.8-0.1-1.3c9.1-5,17.9-4.4,26.4,1.6c1,0.7,2.5,1.5,2.4,2.9
		c-0.2,1.6-2,1.2-3.2,1.5c-13,3.4-17.4,13-14.7,25.2c0.6,2.6,2.4,4.1,4.8,5.1c2.6,1.2,6.7-0.2,7.5,3.8c0.8,3.7-1.7,6.3-4.1,8.8
		C504.1,438.9,499.2,441.1,493.1,439.5z"/>
	<path class="st4" d="M513.7,566.3c-0.3,0.8-0.6,1.5-0.9,2.3c-6.9,5.1-26.3,4.9-32.4-1.1c-2.9-2.3-4-5.6-5.8-8.6
		c-1.9-3.2-3.1-6.7-3.8-10.4c0-2.6,1.4-3.9,3.9-4.2c5.1,0.1,9.6,2.7,14.6,3.3c7.3,0.8,14.4,1.4,21.6-0.9c2.9-0.9,5.5-0.9,6.5,2.8
		c0.6,4.2-1.4,7.9-2.5,11.7C514.4,562.9,513.1,564.4,513.7,566.3z"/>
	<path class="st1" d="M437.6,513.6c-4.1-6.1-3.7-13.2-3.6-19.8c0.2-12.9,0.7-26,4.5-38.6c1.8-5.8,4-11.3,6.7-16.7
		c2.8-5.5,7.6-8.6,13.6-12c-2.1,4.2-2.5,7.7-0.3,11.2c1.2,2-1.2,2.7-2.3,3.6c-5,3.7-9.9,7.4-13.4,12.7c0.2,1.4-1,2.4-1,3.7
		c0.4,2.8,2.1,5.2,2.5,8c-0.6,8.3-1.5,16.6,0,25c0.5,2.7,1.5,5.3,2.1,7.9c0.6,2-0.5,3.7-0.8,5.6c-0.2,0.9-0.7,1.7-1.2,2.4
		c-1.4,1.5-2.4,3.3-3.5,5.1C440.4,512.9,439.9,515,437.6,513.6z"/>
	<path class="st1" d="M523.3,450.1c5.1-2.7,11-3.9,14.9-8.7c1.3-1.6,2.3,0,3.1,0.9c2.6,2.9,5.1,5.8,7.7,8.8
		c1.6,4.2,1.5,8.5,0.9,12.8c-1.4,3-3.9,4.2-7.1,4.4c-0.4-0.3-1.4-0.3-0.6-1.2c-5,1.9-6.6-2.4-9.1-5c-1.8-1.9-3.7-3.7-5.9-5
		C524.5,455.5,522.7,453.5,523.3,450.1z"/>
	<path class="st4" d="M558.6,459.2c-1,0.7,0.4,2.9-1.9,2.8c-1.4-0.5-1.3-2-1.9-3c-0.9-7.1-4.8-12.6-10.1-17c-3-2.5-4.2-4.6-1.9-8.3
		c1.4-2.3,1.9-5.2,0.3-7.8c-0.4-0.4-0.6-0.9-0.3-1.5c0.3-0.5,0.7-0.3,1-0.2c5.2,3,9.3,7.4,14,11.2c6.2,5.1,5.3,11,3.1,17.5
		C560,454.9,558,456.6,558.6,459.2z"/>
	<path class="st1" d="M444.5,454.2c4.4-3.3,8.9-6.4,13.1-9.9c3.1-2.6,5.4-2.6,8.2,0.3c1.4,1.5,3.3,2.5,4.9,3.7
		c1.8,2.7-0.1,4.3-1.8,5.6c-4.7,3.5-8.8,7.6-12.2,12.2c-2.6,3.5-5.2,0.6-7.7,0.3c-3.8-1.6-5.5-5-7.2-8.4
		C441.5,455.9,442.9,455,444.5,454.2z"/>
	<path class="st4" d="M476.5,565.4c-16.1-11.5-28.1-26.4-37.2-43.8c-0.5-1-0.5-1.8,0.7-2.3c2,0.2,3.1,1.7,4.2,3
		c4.3,4.8,9.7,8,15.1,11.3c1.8,1.8,2.6,4.1,3.6,6.3c-0.2-1-1.2-2.1,0.2-3c0.3,0,0.6,0.1,0.9,0.2c1.1,0.2,1.1,3.3,3,1.1
		c1.1,1.4,0.9,3.1,0.7,4.7c-0.5,1.5-0.2,2.9,0.9,4c3,4.1,3.6,9.4,6.8,13.3C475.7,561.9,478.2,563.3,476.5,565.4z"/>
	<path class="st5" d="M482.4,448.4c-5.8-1.5-11.9-2.3-15.7-7.8c2-1.6,3.7-0.1,5.4,0.7c5.6,2.7,11.5,4.7,17.3,6.2
		c-5.9-1.9-12.1-3.9-17.6-7.4c-5.4-3.4-7.1-6.9-5.9-11.3c13.3,15.9,30.5,16.6,48.9,12.5c1.7-0.5,3.7-1.2,4.5,1
		c1.2,3.2-1.3,4.6-3.5,5.9c-1.3,0.6-2.6,1.2-3.9,1.9C501.7,453.9,491.9,453.3,482.4,448.4z"/>
	<path class="st2" d="M493.1,439.5c7.4,1,12.2-3.3,16.5-8.3c3.6-4.2,2.6-6.8-2.6-8.3c-0.7-0.2-1.4-0.7-2.1-1
		c7.7,0.1,15.5,0.1,23.2-1c4.5-0.6,4.7,1.8,3,4.8c-2.1,3.7-5.2,6.6-8.9,8.7C513.1,439.5,503.6,442.2,493.1,439.5z"/>
	<path class="st6" d="M513.8,452.3c4,1.4,1.6,5.5,3.4,7.9c1.6,1.1,0.4,2.8,1,4.2c-0.6,2.8-2.3,3.3-4.6,2.1c-8.8-4.5-18-4.5-27.3-2.2
		c-4.6,1.1-4.7-1.7-4.8-4.8c0-0.5,0-1.1,0.1-1.6c2.1-5.1,3.9-6.4,8.7-5.7c6,0.8,11.9,1,17.9-0.1
		C510.1,451.6,511.9,452.6,513.8,452.3z"/>
	<path class="st7" d="M449.1,466.1c0.3-0.3,0.9-0.9,1-0.9c3.8,3.4,5.3,0.4,7.5-2.3c3-3.5,6-7.1,10.1-9.5c1.8-1.1,3.3-2.7,2.9-5.2
		c2-0.6,3.6,1.2,5.5,1.1c0.7,0.3,1.5,0.4,2.3,0.6c5.3,1.7,5.3,1.7,2.8,7c-0.7,1-1.2,2.1-2.7,2.2c-0.8,0.1,0.1-2.9-2.2-0.9
		c-5,4.5-11.1,7.8-14.4,14.1c-1.5,2.8-4.1,0.6-6.2,0.7C452.6,471.8,450,469.8,449.1,466.1z"/>
	<path class="st8" d="M523.3,450.1c0.6,0.4,2.7,0.1,2,0.8c-2.8,2.6-0.2,3.3,1.2,4.2c4,2.6,7.6,5.5,10.1,9.5c1,1.6,2.3,2.6,4.5,1.7
		c1.9-0.7,1,0.8,0.9,1.5c-1.5,3.9-5.8,4.1-8.5,6.4c-1.1,0.5-2.1,0.9-3.3,0.9c-7.2-1.2-9-6.3-9.3-12.7c-0.4-0.2-0.6-0.4-0.8-0.8
		c-0.2-1,0-2-0.4-2.9C517.5,451.9,517.7,451.5,523.3,450.1z"/>
	<path class="st2" d="M515.6,448.3c0.5-0.6,0.9-1.3,1.4-1.9c2.6-3.5,2.1-4.5-2.4-5c8.2-3.1,16.1-6.7,20.4-15.1
		c0.5-1,1.2-1.6,2.3-1.2c1.8,0.7,2.9,2.1,2.8,4.1c-0.1,5.1-3,8.8-6.8,11.7C528.1,445,522,447.1,515.6,448.3z"/>
	<path class="st9" d="M465.7,428.8c0,5.7,3.7,9,8.1,11.2c6.1,3,12.4,5.4,18.5,8.4c-7.1-0.1-13.6-2.6-19.9-5.5
		c-1.9-0.9-3.6-2.3-5.8-2.3c-2-1.4-3.7-3.1-5.1-5.1c-1.4-2.2-0.8-4.3,0.7-6.3C463.3,427.9,464.4,426.9,465.7,428.8z"/>
	<path class="st10" d="M480.4,456.8c3.6-5.2-1.1-5.9-4.1-7.5c1.7-0.4,3.1,0.5,4.7,0.8c1.4,0.3,2.2-0.1,1.5-1.8
		c9.6,2.9,19.4,3.3,29.3,1.8c0.4,1,1.1,1.7,2.1,2.1c-7.2,2.1-14.7,2.7-21.9,1.3c-5.4-1-8.3,0.2-9.6,5.4
		C480.1,459.8,479.8,458.8,480.4,456.8z"/>
	<path class="st6" d="M517.5,394.5c0.9,0.3,2.1-0.2,2.5,1c0.3,1-0.5,1.5-1.2,1.8c-6.3,3.1-9.6,8.5-11.6,14.9c-0.3,1-0.6,2.6-2.1,2.1
		c-1.3-0.4-1.1-1.8-1.1-3c-0.3-3.8,1.7-7.2,2-11C509,396.9,513.3,395.8,517.5,394.5z"/>
	<path class="st2" d="M489.2,385.7c0,0.4,0,0.7,0.1,1.1c-1.3,2.6-3.9,3.7-6,5.4c-2,1.7-3.8,3.5-3.8,6.3c2.2,1.9,5.3,2.1,7.7,3.7
		c4.1,2.7,4.6,6.6,3.8,10.6c-0.7,3.9-3.5,6.1-7.6,6.1c0.4-0.5,0.7-1.1,1.1-1.6c6-6.7,4.6-12.6-3.7-15.8c-7.3-2.8-7.4-3.5-1.6-9.3
		C482.1,389.4,485.1,386.8,489.2,385.7z"/>
	<path class="st5" d="M466.7,402.3c3.2-1.7,6,0.3,8.9,1c3.7,1.6,5,4.8,5.6,8.5c0.7,4.1-0.1,4.8-4.7,4.4c-3.2-1.2-6.5-2.2-8.8-4.8
		c1.6-1.5,2.9-0.3,4.4,0.3C469.2,409,467.5,405.9,466.7,402.3z"/>
	<path class="st9" d="M466.7,402.3c3.1,3.2,3.8,8,9,10.9c-3.9,0.3-5.6-2.3-8.1-1.9c-0.8-0.5-1.7-0.9-2.5-1.4c-2-1.2-5-2.3-4.4-5
		C461.3,402.2,464.4,402.4,466.7,402.3z"/>
	<path class="st10" d="M458.9,534.3c-7.3-3.5-13.5-8.4-18.5-14.8c-1-0.8-2.5-1.2-1.8-3c0.3-0.3,0.6-0.6,0.8-0.9
		c0.3-0.4,0.7-0.5,1.2-0.3c3.4,3.9,7.6,6.9,11.6,10.1c0.8,0.7,1.6,1.5,2.4,2.2c1.5,1.2,3.2,2.2,4.9,3.1c1.1,0.8,2.6,1.3,2.6,3
		C461.3,535.2,460.1,534.9,458.9,534.3z"/>
	<path class="st11" d="M476.5,416.1c3.4,0.2,4.3-0.9,3.4-4.5c-0.8-3.2-2.4-5.8-4.3-8.3c3.7,0,7,1.1,9,4.4c1.5,2.4,0.2,4.7-1.2,6.7
		C481.7,416.8,479.5,418.2,476.5,416.1z"/>
	<path class="st12" d="M519.7,458.8c0.9,0.8,0.7,2,0.9,3.1c0.7,4.3,2.6,8.7-0.5,12.9c-2.9-2.8-4.3-5.9-2.5-9.9
		c-0.1-1.6-0.2-3.2-0.4-4.7c1.6,0.3,1.1,2.1,2.1,3.4C519.5,461.5,519.6,460.1,519.7,458.8z"/>
	<path class="st13" d="M440.3,515.7c-0.3,0-0.6,0-0.9,0.1c-0.6-0.7-1.2-1.4-1.8-2.1c3.7-1.3,3-6.4,6.7-7.8c1-0.2,1.3,0.4,1.5,1.1
		C444.8,510.4,444.6,514.3,440.3,515.7z"/>
	<path class="st14" d="M548.7,464.7c0.1-4.5,0.1-9.1,0.2-13.6c0.9,1.4,1.8,2.8,2.7,4.2c0.1,2.6,0.8,5.2,0.6,7.8
		C551.5,464.6,550.6,465.6,548.7,464.7z"/>
	<path class="st15" d="M551.8,463c-1.7-2.5-1.4-5.1-0.3-7.7c1,1.5,2.1,3,3.1,4.5c1.3,1.9-0.1,2.6-1.5,3.4
		C552.7,463.3,552.3,463.3,551.8,463z"/>
	<path class="st2" d="M476.5,565.4c0.2-2-1.5-3.2-1.9-4.9c0.5-0.6,0.1-1.6,1-2c1.6,3,3.1,6,4.7,9C478,568.8,477.8,566.2,476.5,565.4
		z"/>
	<path class="st16" d="M552.7,462.8c0.9-0.9,2.4-1.3,2-3c0-0.3,0-0.6,0.1-0.8c1.2,0.6,1.9,1.6,1.9,3c-0.5,0.8-1,1.7-2.2,1.8
		C553.9,463.4,553,463.7,552.7,462.8z"/>
	<path class="st17" d="M438.6,516.6c0.6,1,1.2,2,1.8,3c-1,0.4-0.9,1.2-1.1,2c-0.7-1.6-1.9-3.2-2.1-4.8
		C437,515.1,438,516.2,438.6,516.6z"/>
	<path class="st18" d="M543.8,424.1c-0.9,0.3-0.7,1-0.7,1.6c-1-0.8-3.2-1.4-2-2.9C541.8,421.7,543.2,422.8,543.8,424.1z"/>
	<path class="st19" d="M444.5,454.2c-0.7,1.3-2.5,2-2.4,3.8c-0.8,0.2-1.2-0.2-1.5-0.9c0.3-1.4,1.2-2.3,2.3-3.1
		C443.5,454.1,444,454.1,444.5,454.2z"/>
	<path class="st20" d="M517.6,464.8c-0.7,3.5,2.5,6.1,2.1,9.6c1.3-1.4,1.3-1.4,1.4-1.9c0.3-3.5-0.5-7,0.4-10.5c1-0.5,1.1,0.3,1,0.9
		c-1.1,6.4,2.6,9.5,7.8,11.7c-0.1,0.4-0.3,0.8-0.6,1.2c-0.4,0.6-1.1,0.9-1.6,1.6c0.9-0.5,1.7-1,2.6-1.4c1.3-0.8,2.8-1.1,4.1-2
		c0.8-0.4,1.7-0.8,2.6-0.3c1.7,3.8-2.5,5.1-3.2,7.9c-2.1,0.2-4.3-0.4-6.5,0.6c0.8,1.9,2.6,1.5,3.6,2.4c4.3,9.3,1.6,26.3-5,33.2
		c-1.5,1.5-2.2,0.8-2.7-0.6c-0.4-1.1-0.4-2.2-0.4-3.3c0.3-9.2-0.5-18.3-1.3-23c1.6,8.4,0.4,21.1,0,33.9c0,1.1-0.3,2.2-1.1,3.1
		c-3.2,1.8-6.6,0.9-10,1.1c-5.5-0.2-11-0.3-16.4,0.9c-2.1,0.5-4.2,0.7-5.6-1.6c-0.3-0.5-0.4-1.1-1.3-0.7c-4.8,2.4-7.9-1.3-11.3-3.4
		c-3.7-2.3-5.8-6.5-9.6-9c-1.6-1-0.9-3.6-1.1-5.5c-0.1-5.7,0.3-11.4,2.5-16.8c0.2-0.4,0.3-0.9,0.4-1.3c0.2-0.6,0.1,0.2,0.2-0.4
		c-0.2,0-0.1,0.2-0.2,0.3c-0.3,1.1-0.6,2.1-1.9,2.3c-5.3-2.7-2.8-7.5-2.9-11.5c0.2-1,2.7-1.3,0.9-2.9c1.6-3.9,5.4-5.2,8.5-7.3
		c0.8-0.5,1.3,0.6,1.6,1.3c0.1,0.6,0-0.2,0.1,0.4c0,0.3,0,0.6,0,0.9c0.4,0,0.1-0.4,0.3-0.5c0.8-2.5,1.9-4.9,2.8-7.3
		c1.3-2.5,2.1-5.3,5-6.5c0.2,2.4,0.4,4,4,3.1c9.5-2.4,19-2.7,27.8,2.7C515.9,466.6,516.6,465.6,517.6,464.8z"/>
	<path class="st6" d="M466.8,509.7c-0.7,3.1,1.1,4.7,3.2,6.6c3.9,3.5,7.2,7.7,12.2,10c2.7,1.3,5,1.9,5.8-2.8
		c1.3,7.2,5.5,4.9,9.7,4.2c3.9-0.7,8.1-0.3,12.1-0.4c-0.5,3-2.8,1.4-4.4,1.8c5.2,0.2,10.4-0.8,15.4,0.6c0.4-0.1,0.9-0.1,1.3-0.1
		c2.4,1,5.3-1.8,7.4,1.1c-0.2,1-1,1.4-1.7,2c-1.4,0.9-3.4,0.6-4.4,2.3c0.9,2,0.5,3.4-1.9,3.9c-0.7-2.2-0.7-2.2-2.4-0.7
		c-2.7-2.1-5.7-2.4-8.9-1.3c-2,0.4-4.1,0.4-6.1,1.1c-4.5,0.6-9,0.3-13.6,0.3c-5.6,0.1-11.1-0.4-16.5-1.9c-1.2-0.7-2.4-1.2-3.7-1.5
		c-3.5-0.6-4.9-3-5.5-6.2c-0.4-2.2-0.3-4.5-0.4-6.8c0-2.7-0.1-5.5,0.1-8.2C464.6,512.2,464.3,510.1,466.8,509.7z"/>
	<path class="st21" d="M529.3,531.1c-2.4-1.8-5.3,1.6-7.7-0.8c-0.8-0.9-0.6-1.7,0.3-2.4c2.3-0.7,5,0.4,6.9-1.8
		c5.9-7.2,8.7-15.8,12-24.3c1.7-4.5,2.1-9.5,5.1-13.5c0.6-1,1.3-2,1.9-2.9c1.2,0.2,3-0.4,2.9,1.9c2,9.7-0.1,19.1-3.5,28
		c-1.3,3.5-0.3,3.9,2.5,4.2c-0.2,1.8-1.5,2.9-2.9,3.6c-5.5,2.7-10.5,6.4-16.3,8.5C530,531.6,529.6,531.4,529.3,531.1z"/>
	<path class="st6" d="M529.3,527.3c-2.1,2.1-4.4,1.9-6.9,1c-1.6-5.2-0.6-12.3,2-14.7c0,1.3,0,2.6,0,3.8c1.7-4.1,5.1-7.1,6.3-11.6
		c1.3-4.5,1.8-8.7,0.8-13.3c-0.6-2.6-0.2-5.5-0.2-8.3c4.6,0.4,9.2-1,13.7,1c1,1.4,0.2,3-0.2,4.2
		C540.1,502.3,536.2,515.4,529.3,527.3z"/>
	<path class="st21" d="M534.2,481.4c-1.4-3.5,3-4.6,2.9-7.6c3.1-2.9,6.3-5.6,10.9-5.3c0.4,0.7,0.4,1.4-0.2,2.1
		c-1.2,4.4-2.7,8.8,2.2,12.3c-1.8,0.8-3.3-1.1-5.1-0.5c-3,0.6-6,0.4-8.8-1C535.5,481.4,534.8,481.4,534.2,481.4z"/>
	<path class="st22" d="M560.5,490.2c0.4-8-1.4-15.7-1.5-23.6c7.9,13.2,4.9,27.1,2.4,41c-2.2-0.8-1-2.4-1-3.7c0-3.5,0.1-7.1,0.1-10.6
		C559.9,492.2,559.6,491.2,560.5,490.2z"/>
	<path class="st23" d="M529.3,527.3c4.5-12,9.1-24,13.6-36.1c0.7-1.9,1.3-3.9,2-5.9c1.2,0.7,0.9,1.9,1,2.9
		C542.4,502.2,538.3,515.8,529.3,527.3z"/>
	<path class="st24" d="M519.6,538.1c0.4-0.6,1.1-1.9,1.2-1.8c1.3,0.5,0.2,1.9,0.8,2.8c-1,9.6-3,18.8-7.9,27.3
		c-2.1-1.6-0.4-3.2-0.1-4.8c0.9-3.9,1.9-7.9,2.9-11.8C516.6,545.6,516.7,541.5,519.6,538.1z"/>
	<path class="st25" d="M530.2,531.1c6.3-4.2,13.5-7,19.6-11.7c2.4-1.2,4.7-2.4,7.1-3.6c-5.8,6.8-13.3,11.1-20.9,15.2
		c-0.6,1.2-1.7,1.1-2.8,1.1c-0.6,0.1-1.2,0.1-1.8,0.2C530.3,532.6,530,532.1,530.2,531.1z"/>
	<path class="st26" d="M547.9,468.7c-3.6,1.7-7.2,3.5-10.8,5.2c-0.6,0.3-1.2,0.6-1.8,0.8c-1.3,0.5-2.3,0.6-2.3-1.3
		c3-1.9,6-3.7,9-5.6c2.4-0.7,4.7-1.7,6.7-3.2c1.1-0.4,2.3-0.7,3.1-1.7c0.3-0.1,0.5-0.1,0.8-0.2c0.6,0.3,1.2,0.6,1.8,0.9
		c-1.2,1.1-2.4,2.1-3.6,3.2C550,467.7,549.4,469,547.9,468.7z"/>
	<path class="st27" d="M533.2,532.2c0.7-1,1.8-0.9,2.8-1.1c4.2,2.5,8.2,5.1,11,9.4C542.1,538.2,537.2,536,533.2,532.2z"/>
	<path class="st13" d="M560.5,490.2c0,1,0,2,0,3c-3.3-1.9-6-4.7-9.7-5.9c-1-0.6-1.9-1.3-2.9-1.9c3.2-2.1,5.2,1.2,7.7,2
		C557.3,487.9,558.8,489.2,560.5,490.2z"/>
	<path class="st13" d="M547.9,468.7c1-0.6,2-1.2,3-1.8c-0.7,3.5-1.3,7.1-2,10.6c-0.3,0-0.7,0-1-0.1c0-2.3,0-4.5,0-6.8
		C547.8,470,547.8,469.3,547.9,468.7z"/>
	<path class="st28" d="M536.1,481.5c3-0.5,5.8,0.7,8.8,1c-3.4,2.1-7.1,0.4-11.4,1.2C534.8,482.5,535.5,482,536.1,481.5z"/>
	<path class="st29" d="M523.4,535.2c-0.8-3.5,3.2-1.2,3.8-3c0.9,0.1,1.8,0.2,2.2,1.2C527.4,533.9,525.4,534.6,523.4,535.2z"/>
	<path class="st30" d="M560.3,503.8c0.5,1.2-0.3,2.7,1,3.7c0.1,1,0,1.8-1.3,2.8C559.4,508,559.3,505.9,560.3,503.8z"/>
	<path class="st31" d="M529.4,533.3c-0.9-0.2-1.7-0.3-2.2-1.2c0.7-0.4,1.4-0.7,2.1-1.1c0.3,0,0.6,0.1,0.9,0.1
		c0.4,0.4,0.8,0.8,1.2,1.2C530.7,532.7,530.1,533,529.4,533.3z"/>
	<path class="st32" d="M594.2,469.1c-7.8-10.2-13.7-21.4-19.3-32.8C582,446.8,589.3,457.2,594.2,469.1z"/>
	<path class="st24" d="M541,390.7c-1.1,0-2.2,0.2-3.2-0.2c-2.1-0.8-0.6-1.3,0.3-1.8c5.1,0.1,10.4-1,14.9,3c1.6,1.4,3,2.8,3.7,5.8
		C551.6,393.3,547.1,389.9,541,390.7z"/>
	<path class="st33" d="M533.4,375.7c3,0.3,6.1,0.5,9.1,0.8c0.9,0.1,2,0.5,2.1,1.6c0.2,1.3-0.8,1.5-1.8,1.9c-6.2,2.5-12.6,3.9-19.1,5
		c-3.4,0.6-5.7-2.1-8-3.9c-1.7-1.4,0.4-1.9,1.5-2.3C522.5,377,527.8,375.4,533.4,375.7z"/>
	<path class="st34" d="M525.3,414c-1.1,0.4-2.1,0.8-3.2,1.1c-3.8,1-8.3-1-9.3-4.1c-1.3-4.1,0.7-8,5-9.6c0.9-0.3,1.8-0.6,2.7-0.9
		c4.4,0,5.8,3.3,7.2,6.6C529,410,527.7,412.2,525.3,414z"/>
	<path class="st2" d="M525.3,414c2.8-6.1,1.8-9-4.8-13.6c4.5-1.5,8.6,0.5,10.3,5C532.1,408.9,530,412.1,525.3,414z"/>
	<path class="st35" d="M479.5,398.4c-2.7-1.3-1.2-2.9-0.1-4.2c2.7-3.2,6.2-5.5,9.9-7.5c6.8-2.4,13.6-4.1,20.6-0.8
		c1.2,0.6,3.2,0.7,3,2.5c-0.2,1.6-1.8,2.1-3.3,2.4c-6.6,1.3-13.4,1.8-19.9,3.9C486.3,395.9,483.6,399.2,479.5,398.4z"/>
	<path class="st21" d="M519.6,538.1c-0.5,4-1.6,7.9-3.1,11.7c-1-2.9-3-2.5-5.3-1.9c-12.6,3.8-24.7,1.4-36.6-3c0.1-3.6,2.9-5,5.4-6.6
		c1.3-0.4,2.6-0.2,3.9,0c9,1,17.8,0.1,26.7-1.2c1.5,0,3,0,4.4-0.8c-1.5,0.5-2.9,1.2-4.3-0.3C514.3,534.2,517.2,534.8,519.6,538.1z"
		/>
	<path class="st24" d="M475.7,558.5c-0.1,0.8-0.2,1.6-1,2c-3.2-4.1-4.5-9.1-6.9-13.6c-0.6-0.8-0.9-1.7-0.6-2.8
		c0.2-0.9-0.1-2,1.2-2.4c1.3,0.4,1.7,1.5,2.3,2.6c0.9,1.4,0.1,3.2,1,4.6C473,552.1,474.3,555.3,475.7,558.5z"/>
	<path class="st36" d="M471.6,548.9c-1.2-1.1-1.1-2.8-1.7-4.1c1.5-3.5,4.4-5.5,7.7-7.1c1,0,1.8,0.5,2,1.5c-1.7,1.9-3.3,3.8-5,5.6
		C472.8,545.6,471.3,546.6,471.6,548.9z"/>
	<path class="st7" d="M477.4,538.2c-2.5,2.2-5,4.4-7.5,6.6c-0.4-0.9-0.8-1.8-1.2-2.7c-1.7-0.8-1-2.6-1.7-3.9
		c-2.5,4.1-2.5-1.7-4.1-1.1c-3.7-0.1,0.5-3-1.3-3.8c-0.9-0.6-1.8-1.3-2.8-1.9c-4.4-7.9-8-16.2-11.6-24.5c-0.2-1.3-0.7-2.4-2-3
		c-1.2-1.7,0.8-2.6,0.9-4c-2.4-10.2-1.3-20.5-1.3-30.7c1.9-1.7,3.4-0.2,4.5,0.9c2.4,2.2,5.2,3.7,7.5,5.8c0.3,0.4,0.5,0.8,0.6,1.2
		c2,5.7-1.6,10.8-1.7,16.3c0,1.7-1,3.3-1.3,5.1c-0.5,1.9-2.2,2.5-3,2.8c0.2-0.1,1-0.2,2-0.2c0.6,0.1,1.5,0.3,1.7,0.8
		c2.3,7.8,7.7,14.5,7.4,23.1c0,0.1,0.2,0.2,0.4,0.3c0.1,0,0.3-0.1,0.5-0.2c0.4,0.1,0.8,0.3,1,0.7c0.4,1.8,0.9,3.6,0.8,5.3
		c0.5-0.3-0.1-1.5,0.8-1.7c0.5,2.6,2.2,4.1,4.7,4.8c-1.1,1.3,0.2,1.1,0.8,1.3C473.4,536.4,475.8,536.6,477.4,538.2z"/>
	<path class="st27" d="M446.2,468.8c0,10.4,0.1,20.7,0.1,31.1c-5-9.5-4.1-19.7-3.5-29.8c0.1-1.8,0.4-3.5,0.6-5.3
		C445.8,465.1,446.7,466.5,446.2,468.8z"/>
	<path class="st26" d="M446.2,468.8c-0.9-1.3-1.9-2.7-2.8-4c-1.1-2.5-2.8-4.8-2.8-7.7c0.5,0.3,1,0.6,1.5,0.9c2.3,2.7,4.7,5.4,7,8.1
		c2.1,2.4,4.2,4.8,6.9,6.6c1.7,0.5,3.4,1,3.3,3.2c-0.6,1.1-1.3,1.4-2.4,0.6C452.7,474.9,449.6,471.7,446.2,468.8z"/>
	<path class="st37" d="M445.3,503.9c2.1-1.1,2.8,0,2.9,2c-0.3,0.3-0.5,0.5-0.8,0.8c-0.7,0.4-1.3,0.8-2.1,0.2c-0.3-0.3-0.7-0.7-1-1
		C444.7,505.2,445,504.5,445.3,503.9z"/>
	<path class="st38" d="M461.6,533.4c2.6,0.5-0.8,3,1.3,3.8c0.2,1,0.5,2.1,0.7,3.1c-0.2,0.1-0.4,0.2-0.7,0.3
		c-1.3-2.1-2.6-4.2-3.9-6.3C459.9,534.1,461,534.5,461.6,533.4z"/>
	<path class="st2" d="M466.9,538.2c0.6,1.3,1.1,2.6,1.7,3.9c-0.4,0.7-0.7,1.4-1.1,2.1l-0.4,0.1l-0.3-0.4
		C466.9,542,466.9,540.1,466.9,538.2z"/>
	<path class="st7" d="M466.9,543.9c0.2,0.1,0.5,0.1,0.7,0.2c0.1,0.9,0.1,1.8,0.2,2.7C466.7,546.1,465,545.5,466.9,543.9z"/>
	<path class="st39" d="M482.5,460c-1.3,2.3-2.7,4.6-4,6.8c-1.5,0.3-1.7-0.9-2-1.9c-0.1-2.2,0.1-4.2,2.1-5.6c0.6-0.8,1.1-1.6,1.7-2.5
		c0.1,1.2,0.6,2.1,2,2.1C482.4,459.3,482.5,459.6,482.5,460z"/>
	<path class="st6" d="M478.7,459.3c-0.4,1.8-0.8,3.6-1.3,5.3c-0.5,3.1-1,6.1-2.5,8.9c-0.4,0.4-0.8,0.4-1.3,0.1
		c-0.2-0.4-0.4-0.8-0.6-1.2c-2.6,2.5-6,4-8.2,6.9c-0.3,0.3-0.7,0.4-1.2,0.4c-1.9-1-3.4-2.5-4.7-4.3c-1-0.9-2-1.9-3-2.8
		c4.8,0.8,6.5-2.8,8.6-6c2.8-4.3,7.9-5.9,11.5-9.3C478.3,455.4,478.5,457.7,478.7,459.3z"/>
	<path class="st40" d="M521.5,462c0,4.4,0,8.8-0.1,13.1c0,0.7-0.2,1.9-1.3,1.5c-0.9-0.3-0.4-1.4-0.4-2.2c2-4.1,0.4-8.4,1-12.5
		C520.9,461.9,521.2,461.9,521.5,462z"/>
	<path class="st41" d="M533,473.4c0.5,1,1.4,1.1,2.3,1.3c-1.3,0.6-2.7,1.3-4,1.9c-0.7,0.5-1.5,0.5-2.1-0.2c-0.5-0.5-0.3-1.1,0.2-1.6
		c0.3-0.1,0.6-0.2,0.8-0.4C531.2,474.1,532.1,473.8,533,473.4z"/>
	<path class="st1" d="M445.3,506.8c0.6-0.3,1.3-0.6,1.9-1c1.9,6.6,5.2,12.7,6.4,19.5c-0.3,0.8-0.7,1.4-1.7,1.1
		c-4.3-3.2-9.1-5.8-11.7-10.8C442.8,513.2,443.6,509.7,445.3,506.8z"/>
	<path class="st42" d="M453.2,525.4c-2.7-6.3-5.8-12.4-6-19.5c0.3,0,0.7,0,1,0c3,6.7,6.1,13.4,9.1,20.1c0.8,1.7,2,3.3,1.5,5.4
		c-1.9-0.6-3.4-1.7-4.8-3.1C454,527.3,453.5,526.3,453.2,525.4z"/>
	<path class="st43" d="M453.2,525.4c1,0.8,2.7,1.4,0.9,3c-0.7-0.6-1.4-1.2-2.1-1.9C452.4,526.1,452.8,525.7,453.2,525.4z"/>
	<path class="st6" d="M462.9,525.3c0,0.2,0,0.4-0.1,0.5c-0.2,0.2-0.4,0.4-0.6,0.6c0-7.9-5.7-13.9-6.8-21.4c-0.2-1.6-0.6-2.8-2.4-3
		c0.7-3.5,4.3-3.7,6-5.3c1-0.6,0-1,0.5-0.6c0.1,0.1,0,0.2-0.3,0.3c-1.6,0.8-3,2.5-5.2,1.7c0.7-4.4,0.9-9,2.1-13.3
		c0.7-2.5,1.2-4.8,1-7.3c3-1.1,4.7,1,6.7,2.6c0.3,0.4,0.3,0.8,0.1,1.2c0.5,1.3,1.4,2.8,0.7,4.1c-1.7,3.3,0.1,5.5,2.1,7.7
		c1.1,4.7-1.3,9.1-1.7,13.6c-0.4,5.1-1.7,10.2-1,15.4C464.2,523.3,463.8,524.4,462.9,525.3z"/>
	<path class="st36" d="M475.7,482.1c14.1-0.8,28.2,0.1,42.3-1.4C504,484.9,490,487.5,475.7,482.1z"/>
	<path class="st44" d="M524.4,513.6c-1.5,4.8-1.2,9.8-2,14.7c-0.7,0.5-0.9,1.2-0.8,2c-0.1,0.3-0.1,0.6-0.1,0.9
		c-2.5-0.7-1.8-2.3-1.1-3.9c0.6-14,0.9-28,0.3-42C524.9,494.4,524.5,504,524.4,513.6z"/>
	<path class="st45" d="M462.9,525.3c-1.2-11,1.1-21.6,3.8-32.1c0.4-0.9,0.7-1.9,1.1-2.8c0.9-0.2,1.3-0.1,0.9,0.9
		c-1,6.1-2.3,12.2-2,18.5c-2,4.1-0.5,8.5-1,12.7c-2.9-1.8-0.7-4.4-1.2-6.5c-1.1,3,1.3,6.5-0.7,9.5
		C463.5,525.4,463.2,525.4,462.9,525.3z"/>
	<path class="st46" d="M520.4,527.3c0.3,1.3-0.4,2.9,1.1,3.9c-6.4-1.9-13.2-0.1-20.3-1.9c3-2.1,6.3,0.3,8.6-2
		C513.3,527.3,516.8,527.3,520.4,527.3z"/>
	<path class="st47" d="M474.4,473.5c0.7-3.1,1-6.2,3-8.9c0.1,0.8,0.2,1.7,1.1,2.2c-1,2.6-2,5.1-3,7.7
		C474.6,474.8,474.2,474.5,474.4,473.5z"/>
	<path class="st48" d="M529.4,474.9c-0.1,1.4,0.8,1.7,1.9,1.8c-1.9,0.9-3.9,1.9-5.8,2.8c-0.2-0.3-0.4-0.5-0.6-0.8
		C526.4,477.4,527.9,476.1,529.4,474.9z"/>
	<path class="st49" d="M463.9,481.3c0-0.3,0-0.7-0.1-1c-0.3-0.2-0.4-0.4-0.2-0.6c0.1-0.2,0.2-0.3,0.3-0.3c0.3,0,0.6,0,0.9-0.1
		c1,0.2,2.7,0.3,2.2,1.7C466.5,483,465,481.1,463.9,481.3z"/>
	<path class="st13" d="M474.4,473.5c0.4,0.3,0.7,0.7,1.1,1c-0.3,0.9-0.6,2.4-1.4,2.1c-1.1-0.4-0.2-1.9-0.4-3
		C473.9,473.6,474.2,473.6,474.4,473.5z"/>
	<path class="st50" d="M468.8,491.2c-0.3-0.3-0.6-0.6-0.9-0.9c0.4-0.8,0.8-1.6,1.3-2.6C470.1,489.3,469.8,490.3,468.8,491.2z"/>
	<path class="st51" d="M511.6,537.9c-7.8,1.5-15.6,2.8-23.7,2.1c-1.6-0.1-3.3,0.3-4.7-0.8c1.9-2.3,5.1,0.2,7-2
		c4.8,0,9.7-0.1,14.5-0.1C507.1,537,509.6,535.2,511.6,537.9z"/>
	<path class="st52" d="M490.2,537.2c0.3,0.9,0.7,1.9-0.9,1.9c-2,0-4.1,0.1-6.1,0.1c-1.2,0-2.4,0.1-3.6,0.1c-0.7-0.3-1.5-0.7-2.2-1
		c-2.2-0.7-4.5-1.4-6.7-2.1c0.3-2.4,1.8-1.2,3-1C479.1,536.7,484.7,536.9,490.2,537.2z"/>
	<path class="st53" d="M463.8,525.5c0-3.6,0-7.2,0-12c2,3.6,0,6.6,2,8.9c0.1,2.3,0.2,4.6,0.3,6.8c-0.1,0.6-0.2,1.3-0.4,2.3
		C464,529.6,463.9,527.6,463.8,525.5z"/>
	<path class="st17" d="M511.6,537.9c-2.1-1.7-4.6-0.4-6.8-0.9c1.8-1.5,4-0.5,6-1c1.6,0,3.2,0,5.7,0
		C514.5,537.5,513.1,538,511.6,537.9z"/>
	<path class="st48" d="M473.7,535.1c-1.1,0.1-2.3-0.2-3,1c-0.9-0.1-2.2-0.2-2.2-1.2c0-1.3,1.4-0.5,2.2-0.8
		C471.8,534.3,472.9,534.2,473.7,535.1z"/>
	<path class="st32" d="M517.6,404.3c2.5-2.1,4.1-0.5,5.5,1.4c1.3,1.9,1.8,4,0,5.7c-1.8,1.7-4,2.9-6.3,0.6
		C518.4,409.6,519.6,407.1,517.6,404.3z"/>
	<path class="st54" d="M517.6,404.3c1.2,0.2,3.5,0.1,2.6,1.6c-1.2,2,1.4,6.3-3.4,6.1C514.4,409.1,515.1,406.6,517.6,404.3z"/>
	<path class="st55" d="M454.1,498c2.6-1.3,5.1-2.6,7.7-3.8c-1.9,3.9-6.1,4.9-8.7,7.7c-1.3,0.3-2.7,0.6-4.5,1
		C449.9,500.1,453.3,500.5,454.1,498z"/>
	<path class="st56" d="M463.9,479.5c-0.1,0.3-0.1,0.6-0.1,0.8c-2.2-0.9-4.4-1.9-6.7-2.8c-0.1-0.3-0.2-0.6-0.2-0.9
		c0.8-0.1,1.7-0.2,2.1-1.1C461.2,476.1,462.8,477.5,463.9,479.5z"/>
</g>
</svg>
