<?xml version="1.0" encoding="utf-8"?>
<!-- Generator: Adobe Illustrator 23.0.1, SVG Export Plug-In . SVG Version: 6.00 Build 0)  -->
<svg version="1.1" id="Layer_4" xmlns="http://www.w3.org/2000/svg" xmlns:xlink="http://www.w3.org/1999/xlink" x="0px" y="0px"
	 viewBox="0 0 1000 1000" style="enable-background:new 0 0 1000 1000;" xml:space="preserve">
<style type="text/css">
	.st0{fill:#FEFEFE;}
	.st1{fill:#8DB4CC;}
	.st2{fill:#7F0000;}
	.st3{fill:#DD3800;}
	.st4{fill:#7F7F7F;}
	.st5{fill:#FEAF65;}
	.st6{fill:#3B3B3B;}
	.st7{fill:#670026;}
	.st8{fill:#800000;}
	.st9{fill:#585858;}
	.st10{fill:none;}
	.st11{fill:#1A6787;}
</style>
<g>
	<path d="M632.8,455.1c4.2-14.8,5.6-30,6-44.4c-0.4-6.1-0.7-11.2-0.9-16.3c-0.6-17.5-5.8-33.8-11-50.2c-2.4-7.6-6.1-10.3-14-10.2
		c-7.9,0.1-15.7,0.6-23.4,1.9c-3.2,0.5-5-0.5-6.6-3.8c-6.4-12.7-16.1-22.4-28.6-29.1c-8.1-4.3-17-6.6-26.2-7.2
		c-8.8-0.6-8.7-0.6-9.6-9.4c-0.3-3.1-1.2-6.2-2.3-9.1c-3.8-9.1-17.7-11.9-25.1-5.3c-5.1,4.5-6.2,10.4-6.6,16.7
		c-0.3,3.3-0.2,6.4-5.3,6.3c-4.7,0-9.4,1.1-14.1,2.2c-20.9,4.7-35.7,17.3-45.7,35.9c-0.8,1.5-1.4,3.3-3.3,2.7
		c-5.8-1.7-11.8-0.7-17.7-1.4c-12.6-1.4-18-1.6-21.7,8.2c-7.2,19-11.7,38.7-12.3,59.1c-0.3,8.4-0.2,16.8,0.8,25.2
		c1.2,9.3,2.2,18.5,4.8,27.5c3.4,11.7,9,22.3,15.9,32.3c1.6,2.4,2.4,4.2,1.1,7.3c-2.2,5.3-3.6,11-5,16.6c-3.1,12-5.1,24.1-6.2,36.5
		c-0.9,10.4,0,20.4,1,30.6c0.7,6.7,3.4,13.1,3.1,19.7c-1,17.9,5.6,33.5,14.1,48.5c4.9,8.6,11.1,16.3,20,21.4c1.9,1.1,3.9,2,5.5,4.1
		c9.7,12.2,20.8,23,34.5,30.7c5.4,3,10.3,6.2,13.7,11.8c2.3,3.8,6.4,6.3,11,7.9c12,4.1,24.1,6.2,36.7,2.8c8.7-2.3,17-4.9,22-13.3
		c1.8-3,4.4-5.1,7.6-6.8c13.3-6.8,24.5-16.3,34.1-27.4c4.3-4.9,8.2-9.8,14.4-12.3c1-0.4,1.6-1.5,2.5-2.3
		c10.5-9.3,16.6-21.6,21.9-34.1c3.7-8.7,5.9-18.1,5.3-27.8c-0.1-2.1-0.2-4.3,0.2-6.3c3.3-15.8,5.3-31.5,3.9-47.9
		c-1.5-18-5.6-35.2-11.1-52.1c-1-3-0.8-4.9,0.9-7.4C623.8,477.1,629.5,466.7,632.8,455.1z M578,433.1c-0.5-3.9-7.4-7.8,0-12V433.1z
		 M425,420.4c1.7,2.5,5,3,3.1,6.6c-1,2-2.5,3.8-3.1,6.1V420.4z"/>
	<path class="st0" d="M461.9,521.3c-7.1,2.1-14.4,3.6-21.2,6.4c-19.5,8-36.7,19.2-47.2,38.4c-2.2,4-4.7,7.7-7.4,12
		c-2.4-5.3-2.2-10.7-2.1-15.6c0.6-28.6,5.5-56.3,20.1-81.4c8.6-14.8,21-26.1,36.3-34c12.4-5.3,24.3-4.5,34.6,4.4
		c13,11.2,20.2,25.7,21.2,42.8c0.5,8.4-3.4,14.9-10.9,19.2C477.9,517.9,470.1,520.1,461.9,521.3z"/>
	<path class="st1" d="M461.9,521.3c7.9-2.6,15.9-4.9,23.3-8.9c6.1-3.3,10.9-12.7,9.4-20.6c-1.6-8.8-3.1-17.6-8.4-24.9
		c-5.9-8.2-11.5-16.9-22.1-20.1c-8-2.4-15.9-1.2-23.8,0.4c12.3-8,25.9-12,40.4-13.8c8.6-1.1,17.2-2.3,25.9-1.8
		c20.2,1.3,39.7,5.1,57.3,15.8c0.6,0.4,1,1.2,1.5,1.8c-1.2,1.3-2.9,1.5-4.4,1.7c-5.4,0.8-8.2,4.2-9.2,9.3
		c-4.6,24.5,0.2,46.6,16.6,65.9c1.3,1.5,3.4,2.7,2.8,5.2c-9.4-4-19.1-7.3-29.2-9.2c-6.4-1.2-12.8-2.1-19.4-2.7
		c-9.2-0.8-18.3-1.2-27.5-0.8c-9.5,0.4-19.1,0.6-28.5,2.8C465.2,521.7,463.5,521.4,461.9,521.3z"/>
	<path class="st2" d="M563.5,610.4c-6.9-2.7-13.1-6.8-19.9-9.7c-10.5-4.4-21.4-6.7-32.6-7.9c-24.6-2.6-47.1,3.9-68.1,16.3
		c-0.4,0.2-0.9,0.2-1.4,0.3c-0.3-3.2,2.3-4.4,4.2-6.1c6-5.5,12.7-10.2,19.1-15.2c8.1-6.3,14.3-14.1,17.9-23.9
		c2.2-5.9,1.6-11.6-0.5-17.2c-2.7-7.3-7.9-11.6-15.8-12.9c-2.8-0.5-5.9,0.1-8.3-2.1c6.5-2.4,13.5-3,20.2-3.7
		c21.6-2.2,43.3-1.7,64.6,2.9c10.5,2.3,20.8,5.7,29.6,12.4c-1.5,1.6-3.3,0.7-5.1,0.6c-12-0.7-17.4,4-16.7,17
		c0.8,14.8,5.8,28.9,11.7,42.6C563.1,606.1,564.9,607.9,563.5,610.4z"/>
	<path class="st3" d="M457.9,532.1c5.7,0.1,11.4,0.6,16.4,3.5c9.1,5.2,13.2,19,9.4,29.3c-4.9,13.2-14.6,22-25.7,29.9
		c-6,4.3-11.9,8.8-16.6,14.6c-14,11.8-24.4,25.7-26.1,45.6c-12.6-11.7-19-25.5-23.7-40.3c-3.6-11.2-0.8-21.3,3.8-31.4
		c3.9-8.5,8.4-16.6,14.4-23.7c6.3-7.3,14.5-12.6,22.8-17.5C440.5,537.4,449,534.1,457.9,532.1z"/>
	<path class="st0" d="M571.3,531.3c-4.4-5.3-9.3-10.2-12.7-16.4c-7.5-14-10.6-29-9.7-44.8c0.2-4.3,1.1-8.6,2.3-12.8
		c1.8-6.1,5.6-8,14.3-8.1c12.5,6.3,22.3,15.7,30.1,27.1c10.6,15.4,16.2,32.8,19.6,50.9c2.1,11.6,4.1,23.2,3.8,35.1
		c-0.1,5.2-1.1,10.3-2.3,15.8C606.9,557.2,591.5,541.9,571.3,531.3z"/>
	<path class="st3" d="M563.5,610.4c-5.2-11.3-9.4-23-12.1-35.1c-1.4-6.5-3.1-12.9-1.9-19.9c1.9-11.1,9.8-13.2,19.5-12
		c1.1,0.1,2.2,0.3,3.3,0.5c22.9,11.9,34.5,32.1,40.7,56c1.6,6.3-1.4,12.6-2.8,18.9c-2.2,10.1-13.6,28.1-22.7,35.9
		C586.4,635.7,575.7,622.6,563.5,610.4z"/>
	<path class="st0" d="M425.7,647.4c2.8-13,9.4-23.5,20.4-31.1c7.2-4.9,14.6-9.6,23.6-10.9c7-1.6,12.5,1.6,17.2,5.9
		c11.1,10,17.2,27.3,7,42c-2.3,3.3-5.6,4.8-8.5,7c-6.5,3.7-12.7,7.8-16.5,14.6c-7.7,5.5-15.5,3.4-23.1,0c-7.9-3.6-13.5-10-18.2-17.2
		C425.6,654.5,425.1,651,425.7,647.4z"/>
	<path class="st3" d="M409.3,459.1c-1.7,2.8-4.8,4.3-6.3,7.3c-0.8,1.8-2,1.3-3.5,0.2c-13.2-10.6-22.7-23.6-25.2-40.5
		c-1.3-9.3-1.6-18.8-0.7-28.4c1.1-11.7,3.3-23.1,6.3-34.3c1.3-4.9,3.2-9.7,4.8-14.5c1.2-3.8,3.8-5.1,7.7-5.1c8.5,0.1,17,1,25.4,2.1
		c1.2,7.4,0.3,14.8-0.2,22.2c-0.8,12.9-1.1,25.9-2,38.8c-1.2,15.3-1.4,30.7-4,45.9C411.2,455,410.2,457,409.3,459.1z"/>
	<path class="st3" d="M585.1,345.8c8.4-1.1,16.9-2,25.4-2.1c3.9,0,6.4,1.4,7.7,5.1c4.4,12.2,8,24.5,9.7,37.4
		c1.2,8.8,2.2,17.6,1.9,26.5c-0.5,16.2-4.7,31.3-15.6,43.8c-3.4,3.9-7.6,7-11.3,10.5c-1.1,1-2.2,1-2.8-0.2c-1.2-2.8-4-4.2-5.5-6.7
		c-3-5.7-2.5-12.1-3-18.2c-1.6-21.1-3.8-42.1-5.4-63.2c-0.7-9.1-0.9-18.1-1.7-27.2C584.4,349.7,583.9,347.6,585.1,345.8z"/>
	<path class="st1" d="M485.3,660.2c1.3-3.2,5-3.9,6.9-6.7c8.7-13,6.8-23.8-1.2-35.9c-5-7.6-12.4-11.5-21.4-12.3
		c28.4-8,55.9-6.8,82.2,7.8c-1.1,1.5-2.8,1.5-4.4,1.8c-7,1-11,5.4-12.9,11.8c-4.5,15.2-1,29.3,7.5,42.2c3.4,5.1,10.7,6.8,16.7,4.8
		c7.4-2.4,12.6-7.1,15.4-14.4c1-2.5,1.4-5.4,4-7c1.9,5.8-0.8,10.8-3.9,14.8c-9.4,12.2-21.1,21.7-34.7,29c-0.3,0.1-0.6,0.1-1.2,0.2
		c-0.8-5.3-1.2-10.7-2.6-15.8c-3.4-12.8-14.8-19.6-26.2-22.2C501.3,656.2,493.4,658.1,485.3,660.2z"/>
	<path class="st4" d="M428.6,338.8c5.4-13.4,15.6-22.1,28.3-28.1c7.1-3.3,14.7-5.2,22.5-5.9c1.2,1.1,1.2,2.5,1.2,4
		c-0.7,15.6-3.3,30.9-8,45.9c-1.2,3.9-2.8,7.6-5.9,10.5c-13.3,3.2-23.4,11.7-33.1,20.7c-3.8-3-4.4-7.6-4.8-11.8
		c-1-10.5-2.4-20.9-1-31.5C427.9,341.2,428.1,340,428.6,338.8z"/>
	<path class="st4" d="M523.5,304.8c16.6,2,31.2,7.8,42.5,20.6c3.5,4,6.6,8.2,8.2,13.4c1.1,3.6,1.3,7.3,1.3,11
		c0.1,9.2-0.5,18.4-2.1,27.6c-0.5,3.1-1.2,6.4-4.2,8.5c-8.5-7.9-17.4-15.1-28.3-19.6c-6.5-5.4-9.5-13.1-12.2-20.6
		c-4.4-12.1-4.8-25-6.4-37.7C522.3,306.7,522.6,305.6,523.5,304.8z"/>
	<path class="st0" d="M578.2,652.3c-2.8,7.1-4.8,14.6-11.9,19.3c-10.3,6.9-22.6,5.3-28.2-6.1c-5.5-11.5-8.9-23.3-5.8-35.9
		c2.7-11,6.5-15.7,19.5-16.3C567.2,621.8,575.7,635,578.2,652.3z"/>
	<path class="st3" d="M506.9,422.7c-3.6,0-7.2,0-10.8,0c-2.7-6.1-2.1-12.8-2.3-19.1c-0.4-20.6-2.1-41.2-1.1-61.8
		c0.7-15.2,0.8-30.5,3.8-45.6c0.7-3.3,0.7-7.9,4.9-8c4.2-0.1,4.6,4.5,5.4,7.7c1.9,8.1,3,16.4,3.3,24.6c0.8,16.5,1.9,33,0.5,49.6
		c-0.9,11.6-0.8,23.3-1.3,35C509.1,411,509,417,506.9,422.7z"/>
	<path class="st5" d="M506.9,422.7c0.7-17.9,1.7-35.9,2.2-53.8c0.3-9.7,1.1-19.5,0.5-29.1c-1-15.8-0.7-31.9-5.4-47.3
		c-0.5-1.6-0.9-3.7-2.5-3.7c-2-0.1-2.5,2.1-2.8,3.9c-0.9,4.7-2.2,9.4-2.6,14.1c-1.9,23.1-2.9,46.3-1.8,69.4c0.4,9.2,0,18.5,0.9,27.7
		c0.6,6.3,0.9,12.6,0.8,18.9c-2.7,0.3-2.7-2-2.8-3.4c-0.5-9.1-2.3-18-3.2-27.1c-1.6-15.1-2-30.3-1.6-45.4c0.3-13,0.9-26.1,2-39.1
		c0.6-7.7,2.5-15.3,3.8-23c0.7-4.1,3.7-6.2,7.3-6.2c3.6,0,6.6,2.1,7.3,6.2c1.9,10.3,3.4,20.7,4.1,31.2c1.1,18.1,2.4,36.1,1.6,54.2
		c-0.7,15-1.4,30-4.6,44.7c-0.5,2.3,0.4,4.8-1,7.1C508.3,422.8,507.7,422.8,506.9,422.7z"/>
	<path class="st6" d="M501.5,689.6c6.4-0.6,12.5,0.5,18.4,1.9c5.7,1.4,10.2,6.3,10.3,11c0.1,4.5-4.8,9.8-10.4,11.4
		c-12.3,3.5-24.5,3.5-36.7,0c-5.6-1.6-10.6-6.9-10.4-11.4c0.1-4.7,4.6-9.6,10.3-11C489.1,690,495.3,688.9,501.5,689.6z"/>
	<path class="st6" d="M461,404.2c-8.6,3.7-15.8,9.4-22.7,15.5c-2.1,1.8-3.4,1.6-5.3,0.2c-2-1.4-4-2.8-5.5-4.7
		c-1.5-2-2.5-4.2-0.9-6.7c10.9-17.1,23.7-31.9,44.2-37.6c0.2,0,0.3-0.1,0.5-0.2c8.7-2.2,8.6-2.2,9.2,6.4c0.1,1.3,0.5,2.5,0.8,3.8
		c-4.9,4.1-10.7,7.2-14.6,12.6C464.4,396.9,463,400.7,461,404.2z"/>
	<path class="st6" d="M521.6,380.9c0.7-1.5,0.9-3.1,0.9-4.7c0.1-6.9,0.2-7.4,6.8-5.9c8.7,1.9,16.7,5.5,23.8,11.3
		c8.3,6.7,15,14.6,21.1,23.2c4.7,6.7,1.6,14.3-6.3,16.4c-1.8,0.5-2.3-0.8-3.2-1.5c-7.1-5.9-14.1-11.8-22.7-15.5
		C538.3,393.7,530.5,386.8,521.6,380.9z"/>
	<path class="st7" d="M573.7,442.9c-7.5-4.2-15.1-8-22.8-11.5c-10-4.5-20.8-5.8-31.4-7.6c-2.4-0.4-3.1-1.1-2.6-3.4
		c0.9-4.2,1.7-8.5,1.8-12.9c0.1-2.2,0.3-4.3,3.6-3.3C541.7,409.8,562.9,423.8,573.7,442.9z"/>
	<path class="st7" d="M428.9,442.7c4.2-8,10.5-14.2,17.2-19.9c9.8-8.4,21.1-14.3,33.4-18.1c4-1.2,4.7,0.1,4.9,3.6
		c0.3,4,0.8,8,1.6,11.9c0.5,2.5-0.1,3.3-2.7,3.7c-10.6,1.8-21.4,3-31.4,7.6c-6.9,3.2-13.8,6.4-20.3,10.4
		C430.9,442.4,430.5,443.6,428.9,442.7z"/>
	<path class="st4" d="M481.5,683.6c-2.5,2.3-6.2,2.7-8.5,6.1c-0.3-14.8,12.4-24.1,27.7-24.6c15.4-0.4,29.4,9.1,29.3,24.1
		c-2.9-2.8-6.4-4-9.5-5.9c-2-1-4-2.1-5.8-3.4c-9.8-7.6-17.9-7.5-27.6,0.2C485.4,681.6,483.6,682.8,481.5,683.6z"/>
	<path class="st1" d="M425.7,647.4c3.7,20.4,23.2,32.8,43.1,27.4c-2.5,6.9-3.4,14.1-4.3,21.7c-7.2-3.8-13.6-7.9-19.7-12.8
		c-5.7-4.6-10.8-9.7-15.2-15.4C424.8,662.1,422.3,655.3,425.7,647.4z"/>
	<path class="st2" d="M585.1,345.8c0.9,10.4,1.8,20.9,2.7,31.3c0.7,8.7,1.3,17.4,2.1,26.1c1.2,13.8,2.6,27.6,3.8,41.4
		c0.4,5.1,0.7,10.3,1,15.5c-5.9-4-7.5-9.6-7.9-16.6c-1-21.8-1.5-43.7-2.1-65.6c-0.2-9.2-0.4-18.4-0.6-27.7
		C584,348.8,583.2,346.9,585.1,345.8z"/>
	<path class="st6" d="M523.5,304.8c2.1,19.6,2.8,39.5,14.5,56.6c1.1,1.5,3.1,2.5,3,4.8c-5.1-0.6-9.8-3-15-3.3
		c-2.1-0.1-2.7-1.9-2.6-4c0.7-9.6-0.6-19.1-1.3-28.5c-0.6-7.5,0.4-15.2-1.5-22.6C520.1,305.4,521.2,304.4,523.5,304.8z"/>
	<path class="st8" d="M409.3,459.1c0.6-9.3,2.6-18.5,3.3-27.8c0.5-6.2,0.5-12.5,1.2-18.8c1.4-13.5,1.5-27.1,2.2-40.6
		c0.5-8.7,1.2-17.4,1.8-26c1.7,0.9,1,2.6,1,3.9c0.3,20.8-1,41.5-1.2,62.3c-0.1,11.7-0.9,23.6-1.7,35.3
		C415.7,452.5,413.3,456.2,409.3,459.1z"/>
	<path class="st6" d="M466.7,365.1c6.9-13.5,9.1-28.3,11.6-43c1-5.7,0.8-11.5,1.1-17.3c1.9-0.3,3.5,0.2,2.9,2.5
		c-2,7.1-0.6,14.4-1.6,21.6c-1.3,9.5-1.1,19.3-1.1,29c0,3.7-1.2,5.2-4.9,5.5C472,363.5,469.3,364.5,466.7,365.1z"/>
	<path class="st9" d="M428.6,338.8c0,10.6,0.2,21.2,1,31.8c0.4,5.3,2.2,10.3,3.9,15.3c-2.6,3.8-5.1,7.5-7.7,11.3
		c-0.4-0.1-0.8-0.3-1.2-0.4c0.6-11.8-0.8-23.6,0.9-35.4c0.9-6-0.4-12.2,1.1-18.3C427.1,341.4,427.5,340,428.6,338.8z"/>
	<path class="st9" d="M569.3,385.8c6-15.2,4.5-31.2,5-47c2.5,2.7,2.6,6.3,2.7,9.5c0.8,16.1,1.7,32.2,0.9,49.4
		C574.4,393.5,571.6,389.9,569.3,385.8z"/>
	<path class="st9" d="M521.6,380.9c10.1,3.3,19.8,14.4,20.3,23.2c-6.1-3-12.3-5.6-18.6-7.8c-1.7-0.6-2.7-1.3-2.1-3.8
		C522,388.8,521.5,384.8,521.6,380.9z"/>
	<path class="st9" d="M461,404.2c-0.3-5.4,3-9.2,6.1-12.9c3.8-4.5,8.1-8.8,14.2-10.4c0.5,4.2-0.6,8.5,0.6,12.6
		c0.7,2.4-1.2,2.4-2.3,2.8C473.3,398.7,467.1,401.2,461,404.2z"/>
	<path class="st9" d="M481.5,683.6c3.6-3.5,7.5-6.4,12.1-8.7c7.4-3.6,13.8-1.6,20.1,2.5c2.5,1.6,4.6,4,6.9,6
		C507.5,681.1,494.5,681.1,481.5,683.6z"/>
	<path class="st3" d="M381.3,458.5c3.7,4.3,7.6,8.3,12.1,11.7c4.3,3.3,4.1,3.5-0.4,10.4C388.6,473.3,383.2,466.9,381.3,458.5z"/>
	<path class="st3" d="M610,480.7c-4.9-7.4-4.8-7.3,1.8-12.2c3.7-2.8,6.7-6.5,9.8-10.1C619.9,466.9,614.2,473.1,610,480.7z"/>
	<path class="st10" d="M578,421.1v12C577.5,429.2,570.5,425.3,578,421.1z"/>
	<path class="st10" d="M428.1,427c-1,2-2.5,3.8-3.1,6.1v-12.7C426.7,422.9,430,423.4,428.1,427z"/>
	<path class="st11" d="M549.5,445.3c-24-2.4-47.4-6.2-71.2-6.1C504,433.2,539.9,439.4,549.5,445.3z"/>
	<path class="st11" d="M546.1,518.6c-15-2.9-29-4.2-43.3-4.4c4.3-0.5,8.4-1.5,12.6-2.4c1.8-0.4,3.7-0.9,4.8-2.1
		c3.5-3.9,6.3-2.8,9.6,0.2C534.2,514,540.4,514.6,546.1,518.6z"/>
	<path class="st5" d="M423.1,553c-2.9,5.5-5.7,10.4-8,15.4c-6.4,14.3-4.4,28.1,2.2,41.9c3.2,6.7,4.1,13.8,0.2,20.7
		c-4.5,7.8-9.8,6.8-15,0c-4.5-5.8-6.6-12.8-7.9-20c-2.5-13.3,2.3-25,8.7-36.1C408.1,566.5,413.6,558.5,423.1,553z"/>
	<path class="st5" d="M598,579.1c8,12.3,10.5,25.4,6.3,39.7c-1.5,5.1-3.4,10-6,14.6c-0.8,1.3-1.8,3-3.6,3c-1.9-0.1-2.2-2.2-2.7-3.6
		c-2.8-7.3-0.1-14.3,1.4-21.3C595.7,600.9,598.2,590.3,598,579.1z"/>
	<path class="st5" d="M389.6,345.9c-7.5,39.7-8.4,78.5,10.1,115.8c-8.9-7-16.5-14.9-19.8-25.9c-4-13.5-4.3-27.4-3.3-41.6
		c0.9-12.1,3-23.9,6.2-35.5C384.1,353.9,386.4,349.7,389.6,345.9z"/>
	<path class="st5" d="M613,345.9c3.7,3.3,5.7,7.7,7,12.1c5.2,17.1,7.6,34.6,6.8,52.4c-0.5,11.7-1.2,23.5-7.6,34
		c-4.2,6.8-9.9,12.2-16.1,17.4c9.8-17.8,13.3-37.1,14.7-56.9C619.1,385,617.5,365.4,613,345.9z"/>
	<path class="st11" d="M527.7,661.8c-8.2-5.4-17.3-7.3-26.9-7.8c5.3-1.3,12-0.6,12.3-9C514.9,653.4,522.7,656.2,527.7,661.8z"/>
</g>
</svg>
