<?xml version="1.0" encoding="utf-8"?>
<!-- Generator: Adobe Illustrator 24.1.2, SVG Export Plug-In . SVG Version: 6.00 Build 0)  -->
<svg version="1.1" id="Layer_4" xmlns="http://www.w3.org/2000/svg" xmlns:xlink="http://www.w3.org/1999/xlink" x="0px" y="0px"
	 viewBox="0 0 1000 1000" style="enable-background:new 0 0 1000 1000;" xml:space="preserve">
<style type="text/css">
	.st0{fill:#C57400;}
	.st1{fill:#DD2500;}
	.st2{fill:#A60000;}
	.st3{fill:#FEB618;}
	.st4{fill:#3B3B3B;}
	.st5{fill:#7F7F7F;}
	.st6{fill:#FEFEFE;}
	.st7{fill:#B56B00;}
</style>
<g>
	<path d="M442.51,386.43c-16.24,2.38-30.01-4-43.45-10.69c-8.8-4.38-16.35-10.78-21.75-19.34c-1.6-2.54-1.75-5.5-2.12-8.16
		c-2.08-15.22-0.63-30.41,0.58-45.65c0.59-7.51,0.8-15.13,1.32-22.68c0.69-10.04,0.98-20.37,6.83-29.17
		c8.38-12.6,17.89-24.15,30.6-32.81c8.59-5.85,16.48-12.7,25.57-17.87c3.73-2.12,7.63-3.88,11.74-4.54
		c8.08-1.3,11.96,2.64,14.74,11.78c3.31,10.89,4.64,22.29,5.32,33.77c0.38,6.46,0.19,13.1,2.12,19.43
		c22.02-4.49,44.11-7.46,66.71-0.81c0.41-5.11,0.7-10.31,1.28-15.48c1.64-14.56,3.18-29.12,9.66-42.64
		c5.92-12.35,18.47-17.39,31.99-10.95c12.87,6.13,21.15,16.32,28.67,27.82c9.85,15.07,14.72,31.74,17.57,49.25
		c1.67,10.28,3.71,20.5,5.63,30.74c0.72,3.81,0.52,7.73,0.63,11.52c0.36,12.09,4.81,24.77-4.27,35.88
		c-2.31,2.83-5.19,4.55-8.08,6.47c-11.78,7.82-23.24,16.22-36.08,22.27c-8.01,3.77-15.91,8.17-25.94,8.49
		c4.31,5.22,8.2,9.77,11.9,14.47c14.07,17.84,27.17,36.21,36.17,57.35c5.02,11.79,11.19,23.1,15.53,35.23
		c4.06,11.33,5.59,23.06,4.28,34.86c-1.46,13.12-5.74,25.69-9.51,38.34c-7.95,26.72-17.6,52.85-26.55,79.22
		c-13.73,40.45-30.41,79.71-51.28,116.99c-8.13,14.51-17.43,28.52-28.27,41.34c-2.35,2.78-4.31,5.9-6.73,8.61
		c-8.89,9.99-16.16,11.3-23.87-1.62c-10.77-18.06-20.81-36.53-30.98-54.94c-13.98-25.3-26.01-51.46-36.96-78.16
		c-7.24-17.65-15.29-34.98-21.11-53.19c-5.77-18.05-11.8-36.03-16.16-54.49c-2.78-11.75-4.32-23.67-5.39-35.72
		c-0.54-6.01-0.67-12.08-1.61-18.11c-2.01-12.84,3.22-23.47,10.2-34.09c15.4-23.43,32.13-45.93,47.45-69.4
		c2.94-4.5,6.36-8.71,9.78-12.87C441,394.05,441.38,390.66,442.51,386.43z"/>
	<path class="st0" d="M554.7,709.98c-4.2,12.51-11.11,23.74-16.88,35.5c-6.13,12.49-13.6,24.21-21.99,35.37
		c-5.27,7.01-10.13,14.35-15.68,21.17c-3.76,4.62-7.15,4.29-9.81-0.93c-2.03-3.99-4.04-8-6.06-11.99c4.35-12.2,4.7-24.65,3.77-37.5
		c-0.76-10.5-0.88-21.11-1.32-31.66c-0.9-21.43-1.35-42.88-2.74-64.29c-0.55-8.43-0.54-16.9-0.83-25.34
		c-0.4-11.85-1.68-23.69-1.26-35.57c0.23-6.51-1.75-12.93-0.75-19.46c0.04-0.57,0.17-1.12,0.36-1.66c1.62-2.81,3.58-5.39,5.88-7.68
		c8.69-8.61,12.55-19.57,14.52-31.19c0.98-5.81-1.2-11.5-3.26-17c-3.37-9-5.84-18.2-5.78-27.91c0.02-2.74,0.03-5.6,2.91-7.27
		c2.67-0.93,5.47-0.87,8.17-0.56c9.95,1.15,19.99,0.88,29.95,1.93c1.94,0.21,3.85,0.46,5.57,1.47c1.76,1.23,1.67,3.04,1.38,4.83
		c-0.42,2.57-0.5,5.17-0.9,7.74c-1.29,8.43-0.2,16.54,3.83,24.1c7.7,14.46,13.23,29.62,15.32,45.94c0.42,3.24,1.56,3.75,4.42,1.9
		c8.85-5.76,13.81-14.16,15.97-24.13c1.61-7.41,2.77-15.01,1.66-22.69c-0.23-1.61-0.53-3.53,1.1-4.44c1.59-0.89,3.15,0.29,4.41,1.3
		c3.49,2.82,7.87,4.73,9.8,9.22c0.28,0.77,0.43,1.56,0.48,2.37c-2.74,21.75-6.1,43.36-11.04,64.78
		c-7.34,31.85-17.46,62.92-25.48,94.57C558.77,697.37,557.38,703.86,554.7,709.98z"/>
	<path class="st1" d="M482.46,573.25c-0.02,0.33-0.04,0.65-0.06,0.98c-1.55,3.64-4.77,5.65-7.74,7.9c-2.18,1.65-3.53,1.08-4.16-1.53
		c-0.91-3.79-1.84-7.58-2.82-11.36c-1.79-6.91-4.86-12.81-10.69-17.5c-7.49-6.02-15.36-11.49-23.06-17.2
		c-2.74-2.04-5.55-3.99-7.12-7.21c-1.14-2.33-2.48-2.07-4.06-0.28c-5.73,6.49-9.24,17.16-2.79,26.46c3.8,5.47,7.12,11.24,8.46,17.96
		c0.98,4.87-0.48,8.61-4.27,11.62c-1.15,0.91-2.27,1.88-3.55,2.58c-7.91,4.31-11.04,11.4-12.14,19.95
		c-0.67,5.23-0.63,10.68-3.32,15.51c-6.18-18.7-12.83-37.28-17.63-56.39c-3.86-15.36-6.96-30.92-6.7-46.94
		c0.09-5.39-1.45-10.64-0.31-16.24c1.5-7.4,6.86-12.18,10.69-17.93c8.49-12.76,17.55-25.14,26.51-37.59
		c11.29-15.69,21.3-32.21,31.83-48.39c0.87-1.34,1.79-2.69,1.65-4.43c-0.71-8.43,1.31-16.77,0.95-25.18
		c-0.58-13.62,1.29-27.16,1.09-40.79c-0.22-14.29,12.36-29.86,23.33-32.1c5.55,1.61,8.61,5.9,10.29,10.88
		c4.07,12.11,7.72,24.22,6.13,37.47c-1.14,9.44-1.13,19.04-2.33,28.51c-0.29,2.25-0.56,4.5-1.63,6.55
		c-1.05,1.51-2.76,1.52-4.32,1.79c-9.05,1.6-17.57,4.42-24.65,10.76c7.52-2.6,14.98-5.35,22.99-5.9c1.89-0.13,3.93-0.9,5.16,1.41
		c0.54,1.41,0.53,2.87,0.4,4.34c-2.11,25.7-4.08,51.4-5.78,77.13c-0.19,2.9-0.58,5.82-1.42,8.63c-0.99,2.05-3.06,2.19-4.91,2.66
		c-14.78,3.75-29.04,8.91-42.17,15.26c12.79-3.28,25.96-7.66,39.65-9.97c2.33-0.39,4.9-1.21,6.47,1.65
		c1.01,5.59,1.44,11.31,1.4,16.89c-0.1,15.06,1.64,30.06,1.16,45.11c-0.19,6.02,1.29,11.91,1.03,17.92
		C483.89,568.69,483.81,571.09,482.46,573.25z"/>
	<path class="st2" d="M480.43,477.4c1.3-15.87,2.63-31.74,3.9-47.62c0.33-4.17,0.57-8.38,0.76-12.52
		c0.49-10.47,1.83-20.87,2.17-31.33c2.54-2.59,5.88-2.36,9.09-2.5c11.36-0.51,22.64,0.5,33.91,2.05
		c-8.04-4.64-16.99-5.38-25.93-6.06c-3.55-0.27-7.13-0.1-10.68,0.5c-1.89,0.32-3.91,0.66-5.41-1.13
		c2.57-13.19,3.12-26.63,3.66-39.95c0.53-13.3-2.61-26.27-9.43-38.07c-1.47-2.54-4.65-3.04-5.91-5.64c9.91-4.2,20.44-5.86,31-5.78
		c6.25,0.05,12.91-0.13,18.88,2.84c4.86,2.25,6.23,6.94,7.46,11.44c1.67,6.1,2.76,12.32,2.64,18.75
		c-0.2,10.23,0.14,20.48-0.11,30.71c-0.23,9.48,0.96,18.8,2.25,28.13c0.5,3.61,1.98,6.71,3.93,9.82
		c18.2,29.04,37.05,57.73,50.11,89.63c1.9,4.65,5.21,9.09,4.09,14.65c-1.75,1.18-3.4,0.41-5.07-0.23
		c-14.54-5.57-29.31-10.35-44.81-12.45c-1.47-0.2-2.85-0.61-4-1.6c-2.16-3.44-1.85-7.5-2.79-11.24
		c-3.27-13.07-9.88-24.25-18.89-34.13c-3.72-4.07-7.28-8.28-10.93-12.47c3.65,8.65,4.69,17.77,4.64,27.1
		c-0.05,11.16-5.9,19.21-13.77,26.24c-5.58,0.72-11.19,1.24-16.77,1.94C482.97,478.65,481.49,478.73,480.43,477.4z"/>
	<path class="st3" d="M405.15,621.11c1.05-7.47,1.69-15.03,3.28-22.38c1.43-6.59,6.18-11.03,11.87-14.47
		c8.97-5.42,8.65-9.29,5.03-18.62c-1.5-3.87-3.56-7.67-6.08-10.96c-7.77-10.16-3.52-22.77,4.3-30.47c1.2-1.18,2.37-2.12,3.17,0.16
		c2.59,7.37,9.46,10.34,15.14,14.27c6.89,4.78,13.18,10.27,19.79,15.38c3.18,2.46,4.49,6.41,5.73,9.97
		c2.05,5.88,3.24,12.06,4.9,18.53c3.32-2.72,6.72-5.51,10.12-8.29c0.58,18.94,1.55,37.87,2.15,56.81
		c0.5,15.68,1.33,31.37,1.92,47.06c0.63,16.66,1.16,33.33,2.02,49.98c0.65,12.6,1.08,25.2,1.59,37.8
		c0.23,5.72-0.99,11.55-2.04,17.25c-0.41,2.23-1.34,4.74-3.77,5.99c-6.28-11.7-12.54-23.42-18.84-35.1
		c-8.51-15.76-17.63-31.22-25.04-47.54c-7.51-16.54-14.33-33.38-21.46-50.09c-4.58-10.75-9.58-21.33-13.2-32.47
		C405.45,623,405.34,622.04,405.15,621.11z"/>
	<path class="st0" d="M625.97,336.04c-0.64,3.19-3.18,4.61-5.64,6.15c-14.88,9.32-29.43,19.19-45.02,27.29
		c-4.33,2.25-8.78,4.65-13.97,4.6c-1.98-0.02-3.89-0.33-3.66-2.75c0.4-4.1-0.98-7.97-1.12-12.01c-0.5-14.84-1.14-29.68-1.95-44.51
		c-0.32-5.77-3.46-11.35-1.82-17.24c3.19-11.45,2.03-22.36-2.61-33.23c-1.83-4.29,0.63-8.89,0.74-13.37
		c2.15-7.26,5.47-13.89,11.01-19.15c5.1-4.85,9.41-5.18,15.39-1.54c3.39,2.06,5.97,4.96,8.24,8.16
		c7.16,10.14,11.28,21.47,13.34,33.65c1.76,10.4,3.22,20.85,5.02,31.24c1.37,7.91,3.8,15.39,8.73,21.94
		c2.72,3.62,5.84,6.45,10.28,7.75C624.33,333.44,626.29,333.7,625.97,336.04z"/>
	<path class="st0" d="M463.73,257.81c1.49,3.66,0.37,6.22-2.3,9.26c-4.13,4.71-5.63,10.48-3.65,17.01
		c0.99,3.28,0.37,6.96,1.07,10.49c0.62,3.11-2.56,4.97-4.27,7.13c-4.53,5.71-6.7,12.04-7.4,19.3c-1.5,15.48-1.22,31.11-3.72,46.51
		c-0.18,1.11-0.07,2.27-0.08,3.4c-0.04,6.6-2.07,8.12-8.72,7.02c-14.99-2.49-28.11-8.82-39.74-18.54
		c-3.81-3.19-8.03-5.89-9.97-10.76c1.78-1.66,4.13-1.73,6.31-2.3c6.49-1.7,10.82-5.51,12.41-12.27c1.08-4.6,1.51-9.29,2.12-13.94
		c2.67-20.36,10.15-38.8,21.72-55.67c2.6-3.79,5.77-7.06,9.41-9.77C444.81,248.78,457.37,250.34,463.73,257.81z"/>
	<path class="st1" d="M596.57,495.24c-4.22-13.99-10.21-27.26-17.12-40.08c-11.13-20.64-22.87-40.99-36.15-60.29
		c-6.86-9.98-7.29-20.85-7.93-31.7c-0.88-14.89,0.01-29.88-0.32-44.82c-0.16-7.08-1.42-14.15-4.85-20.55
		c-1.06-1.98-2.49-3.75-3.76-5.62c12.12,1.32,18.4,7.62,19.43,19.68c1.3,15.14,2.25,30.31,1.92,45.51
		c-0.17,7.79,0.28,15.63,1.58,23.17c1.33,7.7,8.16,12.77,12.69,18.89c12.74,17.22,26.44,33.83,35.68,53.32
		c7.66,16.15,15.31,32.36,21.23,49.25c3.5,9.98,2.62,20.4-0.1,30.36c-3.67,13.46-8.25,26.68-12.45,40
		c-3.51-1.25-2.68-4.63-2.92-7.02c-1.15-11.72-3.97-23.01-7.8-34.1c-0.03-0.62-0.05-1.24-0.08-1.86c-0.5-3.56,0.26-7.07,0.67-10.55
		c0.73-6.24,0.73-12.46,0.41-18.7c1.08-2.71,3.02-1.47,4.78-1.02C599.8,497.91,596.95,498.14,596.57,495.24z"/>
	<path class="st3" d="M463.73,257.81c-3.93-1.88-7.83-3.71-12.07-5c-6.53-2-11.49,0.33-15.92,4.47c-9.79,9.16-15.69,20.87-20.82,33
		c-5.52,13.06-7.81,26.92-9.41,40.87c-1.41,12.3-9.15,16.63-20.57,17.48c-2.95-14.98-2.11-29.95-0.3-44.99
		c0.73-6.05,1.09-12.3,0.89-18.32c-0.57-16.84,6.1-30.09,17.18-42.12c11.02-11.96,23.8-21.73,36.66-31.43
		c3.62-2.73,8.05-4.42,12.23-6.34c3.11-1.42,4.49,0.95,5.27,3.3c2.19,6.6,4.57,13.31,4.86,20.23
		C462.13,238.61,464.58,248.1,463.73,257.81z"/>
	<path class="st3" d="M625.97,336.04c-0.49-0.4-0.91-1.03-1.46-1.18c-13.94-3.68-18.03-15.26-20.91-27.14
		c-3.82-15.79-4.36-32.25-8.95-47.9c-2.76-9.41-7.1-18.14-14.03-25.21c-9.14-9.32-15.47-6.48-22.24,3.36
		c-2.82,4.1-5,8.65-7.48,12.99c0.8-11.4,1.62-22.75,5.47-33.7c1.63-4.63,2.91-9.24,5.72-13.41c4.71-6.98,12.46-8.58,19.38-3.59
		c10.79,7.77,18.32,18.1,25.12,29.44c9.88,16.48,12.61,34.87,16.46,53.08c3.16,14.93,4.38,30.02,4.81,45.22
		C627.97,330.84,627.43,333.56,625.97,336.04z"/>
	<path class="st3" d="M595.71,531.27c5.18,7.11,6.01,15.63,7.79,23.85c1.24,5.71,0.63,11.74,2.93,17.27
		c-2.3,10.69-6.81,20.67-10.28,30.97c-7.7,22.89-15.42,45.8-24.12,68.32c-5.04,13.04-9.71,26.38-17.33,38.31
		c3.13-15.65,6.93-31.14,11.72-46.36c9.25-29.4,16.25-59.39,23.06-89.39C592.67,560.16,593.7,545.6,595.71,531.27z"/>
	<path class="st4" d="M545.89,287.16c0.62,4.64-0.58,5.02-4.66,2.74c-7.68-4.29-16.43-5.17-24.98-6.69
		c-17.18-3.06-33.17,1.25-48.9,7.37c-0.91-1.49-0.39-2.98-0.54-4.39c1.4-6.43,7.05-8.53,11.91-11.1c4.72-2.49,9.93-3.91,15.35-4.43
		c11.49-1.1,22.94-2.37,34.23,1.45c6.46,2.18,12.27,5.16,16.1,11.1C545.19,284.43,546.24,285.52,545.89,287.16z"/>
	<path class="st5" d="M545.89,287.16c-10.12-15.1-25.08-17.35-41.55-15.7c-4.15,0.42-8.3,0.19-12.5,0.93
		c-10,1.77-18.74,5.45-25.03,13.79c-2.93-7.8-1.1-11.67,5.98-14.65c16.15-6.81,33.16-7.48,50.15-6.57
		c10.16,0.54,19.2,4.99,23.4,15.48C547.19,282.58,547.63,285.03,545.89,287.16z"/>
	<path class="st2" d="M597.68,499.19c1.66,9.45,0.22,18.79-1.07,28.13c-0.1,0.73-0.64,1.39-0.98,2.09
		c-3.34-4.73-8.41-7.21-13.24-10.78c1.16,22.56-0.68,43.23-23.53,55.79c-1.42-11.1-3.82-21.52-7.22-31.71
		c-2.06-6.18-4.67-12.12-7.94-17.68c-6.59-11.22-6.42-23.01-3.98-35.16c0.22-1.1,0.19-2.25,0.28-3.38c1.3-1.49,2.96-0.96,4.53-0.79
		c16.96,1.87,33.36,6.26,49.67,11.08C595.6,497.21,596.99,497.71,597.68,499.19z"/>
	<path class="st2" d="M482.46,573.25c-0.01-14.12-0.72-28.23-1.27-42.32c-0.59-15.2-0.51-30.44-1.71-45.63
		c-0.03-0.94,0.52-1.66,1.33-1.72c4.77-0.33,9.56-3.14,14.33-0.01c-2.72,9.49,0.24,18.47,2.61,27.46c0.94,3.56,2.44,6.99,3.71,10.46
		c3.09,8.4,1.97,16.7-0.79,24.88C497.09,556.99,490.51,565.63,482.46,573.25z"/>
	<path d="M495.15,483.57c-5.32-0.29-10.51,0.55-15.67,1.73c-11.38,0.73-22.03,4.75-33,7.33c-5.38,1.26-10.67,2.89-16.13,4.39
		c3.39-5.34,36.41-18.19,50.08-19.62c7.16-0.21,14.16-2.42,21.39-1.76c9.79-1.51,19.31,1.07,28.93,2.04
		c4.12,0.41,8.49,0.09,12.19,2.64c13.81,1.71,26.9,6.32,40.27,9.83c4.69,1.23,8.5,4.51,13.37,5.08c2.84,1.62,5.69,3.24,8.53,4.86
		c-0.06,0.19-0.12,0.38-0.18,0.57c-2.41-0.49-4.83-0.99-7.24-1.48c-18.93-5.55-37.95-10.72-57.68-12.69
		C525.13,484.33,510.14,483.83,495.15,483.57z"/>
	<path class="st6" d="M452.84,402.68c-2.72,12.27-4.76,23.3-7.67,34.09c-3.53,13.09-8.49,25.72-14.5,37.91
		c-5.55,11.26-14.08,19.34-25.56,24.47c-2.68,1.2-5.13,1.3-7.12-0.47c-2.16-1.93-1.72-4.47-0.36-6.98
		c7.1-13.06,14.89-25.7,22.67-38.34c10.02-16.28,20.13-32.5,30.22-48.74C450.75,404.25,451.22,404.02,452.84,402.68z"/>
	<path d="M488.24,378.79c5.65,0.24,11.2-1.5,16.88-0.83c9.52,1.13,19.25,1.42,27.6,7.08c0.53,0.36,1,0.83,1.43,1.3
		c0.2,0.21,0.24,0.57,0.55,1.37c-15.92-2.16-31.61-4.62-47.44-1.78c-10.68,0.67-20.73,4.04-30.8,7.41
		C464.92,383.73,475.92,379.8,488.24,378.79z"/>
	<path class="st7" d="M542.94,480.33c-6.18-0.6-12.39-0.99-18.53-1.87c-6.82-0.98-13.6-2.02-20.51-1.9
		c-0.82,0.01-1.62-0.08-2.07-0.92c2.26-3.13,4.45-6.33,6.8-9.39c5.93-7.73,5.42-16.56,4.71-25.52c-0.58-7.28-2.93-14.09-5.77-21.64
		c4.04,2.1,5.38,5.57,7.73,8.01c8.88,9.19,17,19,22.24,30.84C540.68,465.07,542.44,472.55,542.94,480.33z"/>
	<path class="st6" d="M476.57,719.17c0,0.81,0.07,1.63-0.01,2.44c-0.35,3.65-1.3,7.37-5.18,8.35c-3.5,0.88-6.13-1.33-8.09-4.43
		c-11.6-18.36-21.97-37.32-29.8-57.65c-4.23-10.98-9.14-21.7-13.61-32.59c-2.12-5.16-3.89-10.49-3.81-16.16
		c0.09-5.82,4.23-8.34,9.49-5.91c11.78,5.44,20.19,14.56,26.54,25.52c9.27,16,13.31,33.99,18.61,51.48
		C473.57,699.68,475.47,709.34,476.57,719.17z"/>
	<path class="st6" d="M391.33,308c1.43-14.15-0.87-28.47,4.01-42.16c3.13-8.77,9.74-14.89,14.9-22.12
		c7.01-9.83,17.12-16.52,25.81-24.64c2.93-2.74,7.1-4.31,10.92-5.87c3.04-1.24,5.06,1.22,5.98,3.59c2.68,6.89,0.15,14.25-6.71,17.54
		c-11.07,5.31-20.69,12.69-30.13,20.27c-6.58,5.28-10.98,12.53-13.72,20.55c-3.44,10.08-6.55,20.27-9.84,30.41
		C392.28,306.42,391.74,307.19,391.33,308z"/>
	<path class="st6" d="M613.26,257.02c-8.97-2.87-14.14-9.69-19.78-15.67c-8.14-8.63-15.68-17.8-22.73-27.38
		c-2.17-2.95-5.97-6.06-3.68-9.55c2.83-4.32,7.53-1.43,11.4-0.4c7.34,1.94,10.73,8.51,15.12,13.66
		C603.13,228.9,608.52,242.38,613.26,257.02z"/>
</g>
</svg>
