<?xml version="1.0" encoding="utf-8"?>
<!-- Generator: Adobe Illustrator 23.0.1, SVG Export Plug-In . SVG Version: 6.00 Build 0)  -->
<svg version="1.1" id="Layer_4" xmlns="http://www.w3.org/2000/svg" xmlns:xlink="http://www.w3.org/1999/xlink" x="0px" y="0px"
	 viewBox="0 0 1000 1000" style="enable-background:new 0 0 1000 1000;" xml:space="preserve">
<style type="text/css">
	.st0{fill:#FEEC1E;}
	.st1{fill:#FEF7A6;}
	.st2{fill:#5F6F4C;}
	.st3{fill:#A19020;}
	.st4{fill:#CBB89A;}
	.st5{fill:#FEFDFD;}
	.st6{fill:#FEFEFE;}
</style>
<g>
	<path d="M579.5,488.2c2.2,6.4,1.6,12.1,0.5,17.9c-2.8,15.6-3.7,31.6-10.7,46.3c-5.9,12.3-14.8,21.9-25.8,29.3
		c-6.9,4.6-11.8,10.2-15.3,17.6c-4.3,9.2-13.7,12.3-23,8.2c-4.8-2.1-9.5-4.3-12.1-9.4c-3.8-7.4-11.1-9.5-18.3-11.1
		c-14.4-3.1-24.6-12.3-33.9-22.7c-7.7-8.6-13.2-18.8-15.7-30.2c-1.3-5.9-1.8-11.9-2.5-17.9c-0.8-6.9-1-13.8-0.9-20.8
		c0.3-22.1,7.7-41.5,21-59.1c6.5-8.6,15.2-14.5,23.5-21c3.8-3,5.8-7,8.1-10.8c3.7-6,5.5-13,9.4-18.9c9.5-14.2,24-18.2,38.8-7.7
		c5.6,4,11.5,5.3,17.9,6.2c13.9,2,22.6,11.3,29.3,22.5c11.2,18.6,22.8,37,35.3,54.7c4.5,6.4,6.4,13.7,6,21.5c-0.1,3-1.4,5.1-4.1,6.5
		C594.2,496,591.4,496.1,579.5,488.2z"/>
	<path class="st0" d="M452.1,441.3c1.7-5.2,6.9-6.9,10.4-10.3c3.2-3.2,7.3-5.5,11.3-7.7c4.2-2.4,6-6.4,7.6-10.5
		c2.8-7.1,8.4-9.8,15.6-10.3c2.7,0.1,4,1.9,4.8,4.1c1.2,3.2,2,6.5,2.4,9.9c0.9,8.2,5,13.8,13.1,16.5c6.5,2.2,12.8,4.8,18.8,8
		c12.2,6.5,22.3,15,28.3,27.7c3.7,6.1,4.7,13,5.7,19.8c2.7,18.6-1.6,36.4-6.8,54.1c-0.3,1.2-1.2,2.2-1.9,3.2
		c-7.7,12.9-18.8,22.3-32.1,29.1c-4.1,2.1-7.9,4.5-11.6,7.1c-4.9,3.5-10,4.3-15.5,0.8c-4.6-3-9.8-4.4-15.1-5.3
		c-11.8-1.9-22.4-6.5-32.2-13.2c-12.7-12.8-19.9-28.1-22.5-45.9c-1.2-8.3-2.1-16.5-1.9-24.9c0.4-14.2,4.3-27.4,12-39.4
		c1.8-2.7,2.2-6.4,5.5-8.1c1.2,4.6-1,8.4-2.7,12.4c-3.1,7.3-7.9,13.9-9.5,21.8c-0.6,2.7-1,5.4-1,8.2c0,5.4,0,10.7-0.8,16.1
		c-0.7,5.2-0.1,10.3,2,15.3c2.6,6.3,5,12.7,7.5,19.1c2.7,6.7,6.9,12.1,13.6,15.2c3.4,1.6,6,4.5,9.3,6.2c6.1,3,10.3,0.7,10.6-6.1
		c0.2-4.3-0.1-8.5-1.7-12.5c-3-7.2-1.3-14.3,1.3-21.1c1.3-3.3,1.9-6,0.4-9.2c-4-8.5-3.5-16.7,1.8-24.5c1.3-1.9,2.4-3.9,2.8-6.2
		c1.1-6.1,3.9-11.3,7.9-16c3.3-3.9,4.6-8.1,1.6-13c-1.3-2.2-1.1-4.6-0.7-7.1c0.9-6,0.6-11.7-3.6-16.8c-2.1-2.6-4.3-3.1-7.2-2.3
		c-4,1.1-7.6,3-10.8,5.5c-4.4,3.6-9.9,5.7-14.1,9.5C454.1,441.4,453.2,441.9,452.1,441.3z"/>
	<path class="st1" d="M452.1,441.3c7.1-5.5,14.6-10.5,22.4-14.9c1.9-1.1,4.1-2.1,6.3-2.4c2.7-0.4,4.5,0.5,7.1,2.9
		c4.5,4.2,2.4,9.6,5,13.7c0.4,0.6-0.3,2.2-0.8,3.2c-1.4,3.1-1.4,6,0.7,8.7c3.5,4.6,1.4,8.9-1.4,12.3c-4.2,5.1-7.6,10.3-8.4,17
		c-0.3,2.1-1.6,4.3-2.9,6.1c-5.7,7.6-5.5,15.5-1.6,23.7c1.6,3.5,2,6.3-0.6,9.7c-1.7,2.2-1.1,6.1-1.9,8.4c-2.9,8.3,3.3,14.9,2.8,22.7
		c-0.7,11-5.2,14.1-14.4,8.1c-4.6-3-9.5-5.3-13.8-8.9c-6.1-5.1-8.5-12.4-11.1-19.5c-3-8.3-8.4-16.1-6.7-25.4
		c1.8-9.9-0.7-20,2.7-29.8c1.9-5.4,4.6-10.3,7.2-15.3c2.5-4.9,4-10.1,5.5-15.3C448.4,443.8,450.4,442.6,452.1,441.3z"/>
	<path class="st2" d="M590.7,477.4c0.1,1.3,0.5,2.9-1,3.4c-1.3,0.5-1.9-1-2.6-1.8c-11.3-14.1-22.4-28.1-33.7-42.2
		c-4-5-8.1-10-12-15.1c-1.6-2-3.6-1.8-5.7-1.9c-5.5-0.3-11.4,1.5-16.2-2.9c-5.3-4.7-6.9-11.1-7.6-17.7c-0.3-2.7,2.6-2.7,4.7-2.8
		c6-1.2,11.6-1,15.8,4.3c-1,2.5-2.9,1.2-4.5,1.1c-3.2-0.1-5.4,1.1-5.9,4.3c-0.4,3,2.2,5.5,5.3,5.5c3.4,0,5.3-1.8,5.4-5.4
		c0-1.3-0.5-2.5,0.1-3.8c3.9-1.3,5.5,1.9,7.4,4c5.5,6.2,10.7,12.6,15.5,19.3c9.9,13.8,19.6,27.9,29.2,41.9
		C587.2,470.9,588.8,474.2,590.7,477.4z"/>
	<path class="st3" d="M564.5,468.7c-2.8-3.6-5.6-7.4-8.6-10.9c-10-11.8-23.3-18.3-37.5-23.1c-9.8-3.3-14.7-9.4-15.7-19.6
		c-0.4-4.6-0.9-9.8-5.7-12.7c6-2.5,7.4-1.8,9,4.1c0.8,2.9,1.5,5.9,3.2,8.4c1.7,2.6,1.8,4.3-3.6,4.1c8.8,2.5,16.2,3.8,23.2,6.5
		c6.3,2.4,11.7,5.6,16.3,10.5c8.3,8.7,14.7,18.5,18.8,29.7C564.3,466.8,564.3,467.8,564.5,468.7z"/>
	<path class="st3" d="M455.1,564.5c7.4,2.2,13.7,6.9,21.2,9.3c6,1.9,12.3,2.2,18.2,4.3c2.9,1,6.1,1.6,8.4,3.6c4,3.6,9,3.2,12.1,0.8
		c7.7-6,16.7-9.7,24.7-15c8.8-5.8,14.6-14.3,21.9-21.6c-4.5,12.5-13.6,21-24.8,27.4c-7.3,4.2-13.2,9.6-15.6,18.1
		c-1.3,4.5-4.6,7.6-9.2,8.1c-4.6,0.5-9.3-1.5-11-5.6c-4.8-10.8-13.7-13.8-24.2-16C468.3,576.1,460.8,571.4,455.1,564.5z"/>
	<path class="st4" d="M590.7,477.4c-6.6-9.4-13.3-18.9-19.9-28.3c-9.9-14.1-19.5-28.4-30.8-41.4c-1.9-2.2-3.9-4.4-6.8-5.4
		c-0.9,0.2-1.2-0.1-1-1c-4.4-4.1-9.9-4.9-15.6-4.9c8.7-4.3,16-0.2,22.6,4.7c11,8.1,16.7,20.6,24.3,31.5
		c8.1,11.7,15.7,23.8,23.6,35.7C588.8,471.1,590.2,474.1,590.7,477.4z"/>
	<path class="st5" d="M599.1,471.2c-1.1,0.2-2.3,0.3-3.4,0.5c-4.2-2.8-6-7.5-8.6-11.5c-11.2-17-22-34.2-33.8-50.8
		c-1.2-1.7-3.4-3.3-2.5-6c0.2-0.2,0.4-0.4,0.6-0.6c-7.6-1.6-13-7.9-21.1-9.6c8.3-1.5,20.8,4.3,24.5,10.2
		c13.7,21.6,27.9,42.9,41.9,64.3C597.5,468.9,598.3,470.1,599.1,471.2l-0.1,0.5L599.1,471.2z"/>
	<path class="st4" d="M550.8,403.5c10,15,20.1,30,30,45.1c5.1,7.7,9.9,15.5,14.9,23.2c-1.9,1.8-2.9,0.7-4-1
		c-9.4-14.9-18.7-29.8-28.3-44.5c-4.3-6.6-9.1-13-13.6-19.5C548.9,405.4,547.1,403.6,550.8,403.5z"/>
	<path class="st6" d="M492.1,397.3c-1.1,0.4-2.3,0.7-3.5,1.1c3.7-13.8,16.6-23.9,31.7-9.3c-1.5,0.8-2.8,2-4.6,1.3
		c-1.3-0.3-2.5-0.4-3.8-0.8c-7.2-2.5-10.7-1.6-15.8,4.3C495,395.3,493.9,396.7,492.1,397.3z"/>
	<path class="st4" d="M492.1,397.3c0.8-1.2,1.5-2.4,2.4-3.5c5.4-6.6,11.7-10,21.1-3.3c-1.1,0.9-2.4,1.3-3.9,1.3
		c-5.2,1.8-10.5,3.2-15.8,4.6C494.9,397.3,493.6,397.8,492.1,397.3z"/>
	<path class="st2" d="M496,396.4c4.8-3.2,10-4.7,15.8-4.6C507.6,396.9,501.9,397,496,396.4z"/>
	<path class="st4" d="M598.7,480.6c-1.7,1.2-3.3,2.7-5.7,2.5c0.5-2.5,0.8-5.1,1.5-7.6c0.2-0.8,1.3-1.3,2-1.9
		C598.7,475.5,599,477.9,598.7,480.6z"/>
	<path class="st6" d="M598.7,480.6c-1.6-2.1-1.7-4.6-2.1-7c0.9-0.8,1.7-1.5,2.6-2.3c0,0,0,0,0,0c0.5,2.3,0.8,4.7,1.7,6.9
		C601.8,480.6,600.1,480.3,598.7,480.6z"/>
	<path class="st1" d="M562.7,487.6c-0.2,2.4,0,3.8-0.5,4.9c-2.8,6.4-1.4,12.4,2.2,17.8c2.9,4.3,1.7,8.6,0.5,12.5
		c-2.6,8.7-4.8,17.8-11.2,24.9c-1,1.1-1.9,2.1-3,3c-3,2.4-6.1,4.3-8.1,8c-2.6,4.9-11,5.3-15.1,1.4c-4.8-4.6-9.4-9.3-12-15.6
		c-3.6-8.8-4.5-17.4,1.4-25.6c3.4-4.7,4.4-9.2,1.5-14.7c-2.2-4.2,0.6-8.1,2.5-11.7c2.3-4.3,4.7-8.5,7.3-12.5c3-4.7,3.4-9.5,1.4-14.6
		c-0.6-1.5-0.9-3.1-1.2-4.7c-0.6-3.5,0.6-6.5,3.5-8.5c2.4-1.7,4.7,0.1,6.6,1.3c7.3,4.6,13.5,10.4,17.2,18.4
		C558.2,477.4,562.2,482.3,562.7,487.6z"/>
	<path class="st1" d="M525.4,463.7c0.3,3.6-1.3,6.5-3.6,9.1c-0.7,0.8-1.5,2-2.8,1.5c-1.4-0.5-1.9-2-1.4-3.2c1.1-3,0.3-5.9,0-8.9
		c-0.3-2.9,0.8-6.1,3.6-6.6c2.8-0.5,2.8,3.3,4,5.3C525.6,461.6,525.4,462.7,525.4,463.7z"/>
	<path class="st1" d="M492.2,491.1c-0.7,2.5-1.3,5.6-4.7,5.7c-2.1,0.1-3.8-2-3-4.1c1-2.8,0-7.5,4-7.9
		C490.9,484.7,492,488.2,492.2,491.1z"/>
	<path class="st1" d="M492.1,411.1c-0.4,4.8-4.4,4.2-7.1,5.5c-1.3,0.6-1.8-0.6-1.4-1.6c1.2-3.1,0.6-7.7,5-8.5
		C491.2,406.1,490.9,409.8,492.1,411.1z"/>
	<path class="st3" d="M504.2,458.7c0.7,3.5,1.4,6.9-0.7,9.8c-0.7,0.9,0.2,3.6-2.3,2.6c-1.8-0.7-2.5-2.5-2.1-4.4
		C499.7,463.4,502.5,461.5,504.2,458.7z"/>
	<path class="st1" d="M485.4,550.3c-0.1,1.9,0,4.6-1.9,4c-3.3-1-3.2-4.7-3.9-7.6c-0.3-1.4,0-3.6,1.7-3.3
		C485.1,544.1,484.6,547.8,485.4,550.3z"/>
	<path class="st3" d="M518,573.2c-1-0.2-2-0.4-1.7-2.1c0.4-2.4,5.2-6.7,7.6-6.6c0.9,0.1,1.4,0.4,1.3,1.5
		C524.9,568.5,520.5,573.2,518,573.2z"/>
	<path class="st3" d="M500.5,536.4c1.1,3.6,2.2,6.8,3.1,9.9c0.2,0.5,0.1,1.4-0.2,1.8c-0.6,0.9-1.4,0.1-2.1-0.2
		C497.4,546.2,496.9,541.3,500.5,536.4z"/>
	<path d="M482.4,421.3c4.2-5.4,11.2-5.9,16.6-1.5C493.3,420.1,488,419.5,482.4,421.3z"/>
	<path class="st6" d="M439.3,506.8c3.9-7.2-2-14.5-1.8-22.3c0.1-5.9,1.4-11.2,6-15.4c0.8-0.7,1.8-1.7,2-2.7
		c1.5-7.4,7.3-10.6,12.9-14.2c1.7-1.1,2.7-0.7,3.7,0.6c3.5,4.6,5.2,9.6,2.7,15.4c-6,13.7-9.5,28.4-15.7,42.1c-1,2.2-1,4.4-0.1,6.6
		c0.6,1.6,0.7,3.3-1,4.3c-1.9,1-3.1-0.5-4.1-1.8C441,515.9,439.5,512.1,439.3,506.8z"/>
	<path class="st6" d="M481.1,431.1c-0.4,7.5-2.6,14-8.6,18.8c-2.1,1.7-4.3,3-6.9,1.1c-2.3-1.7-2.5-3.8-1.9-6.8
		c1.6-7.9,6.3-12.8,13.5-15.8C480,427.2,481.4,428,481.1,431.1z"/>
	<path class="st6" d="M450.3,536.8c0.2,1.4-0.6,3.6-2.7,3.8c-2.3,0.2-3.1-1.8-3.2-4c0-1.3,0.2-2.6-0.8-3.7c-1.7-1.7-0.6-2.9,0.8-4
		c1.8-1.3,3.2-0.3,4.1,1.2C449.5,531.9,450.1,533.9,450.3,536.8z"/>
	<path class="st6" d="M462.3,437.6c1.4,0.1,1.6,1,1,2c-2.6,3.9-5.1,7.8-7.9,11.6c-1.1,1.4-2.4,0.7-3-0.7
		C451.4,447.9,459.4,437.5,462.3,437.6z"/>
	<path d="M532.2,401.4c0.3,0.3,0.6,0.6,1,1c1.9,6.7,0.1,10.4-5.3,10.7c-2.5,0.1-5.1-0.3-6.2-2.8c-1.2-2.5-2-5.3,0.2-7.7
		c1.9-2.1,4.3-2.7,7.1-1.9C530,401,531.1,401.2,532.2,401.4z"/>
	<path class="st6" d="M561.6,523c-0.8,4.3-2.6,9.7-6.4,12.4c-5.9,4.2-9.8,9.8-14,15.2c-2.1,2.6-2.9,2.5-4.2-0.5
		c-1.4-3.3-0.5-6.3,0.1-9.5c2-9.7,4.5-19.2,10.8-27.2c3.6-4.6,5-4.7,8.7-0.3C558.9,515.8,561.7,518.1,561.6,523z"/>
	<path class="st6" d="M557.5,487.6c0,0.3,0,0.7-0.1,1c-1.7,3.6-0.5,9.8-5.8,10c-4.2,0.2-5.4-5.1-6.5-8.6c-2.3-7.4-4-14.9-5.9-22.5
		c-0.3-1.4-0.4-3,1-4c1.3-1,2.5-0.5,3.4,0.6c5.8,6.7,11.6,13.5,13.6,22.6C557.3,486.9,557.4,487.2,557.5,487.6z"/>
	<path class="st2" d="M530.3,409.2c-2.5,1.9-4.9,1.3-6.3-1.2c-1.4-2.5,0.6-3.6,2.5-4.6C528.5,404.9,530.5,406.3,530.3,409.2z"/>
	<path class="st4" d="M530.3,409.2c-1.1-2-3.2-3.4-3.8-5.7C531.1,403.5,532,404.8,530.3,409.2z"/>
</g>
</svg>
