<?xml version="1.0" encoding="utf-8"?>
<!-- Generator: Adobe Illustrator 23.0.1, SVG Export Plug-In . SVG Version: 6.00 Build 0)  -->
<svg version="1.1" id="Layer_4" xmlns="http://www.w3.org/2000/svg" xmlns:xlink="http://www.w3.org/1999/xlink" x="0px" y="0px"
	 viewBox="0 0 1000 1000" style="enable-background:new 0 0 1000 1000;" xml:space="preserve">
<style type="text/css">
	.st0{fill:#4CAA20;}
	.st1{fill:#5E6E4B;}
	.st2{fill:#CBB89A;}
	.st3{fill:#356520;}
	.st4{fill:#FEFEFE;}
	.st5{fill:#5F6E4C;}
	.st6{fill:#C3E5B5;}
	.st7{fill:#5F6F4C;}
</style>
<g>
	<path d="M559,531.1c-3,7.7-6.9,14.6-12.4,20.3c-9.1,9.3-20,15.7-33.1,18c-19.8,3.6-37.2-2.8-53.7-12.6
		c-10.7-6.3-19.8-14.5-24.5-26.4c-5.1-12.8-8.1-25.9-5.7-39.9c1.1-6.4,1.8-12.9,4.6-18.7c6.3-13.1,16.3-23.1,28.8-30.2
		c4.1-2.4,5.5-5.2,4.9-9.6c-0.2-1.2-0.3-2.2-1.3-3c-11.3-9.7-9.9-30.4,1.5-39.6c9.1-7.4,19.3-8.7,30.1-9.5c6.2-0.4,12.3-1.8,18.6-2
		c6.5-0.2,10.3,3.3,13.5,8.1c3,4.4,4.6,9.4,5.6,14.4c1,5,3.7,8.7,6.9,12.1c4.6,4.8,9.3,9.4,14.4,13.6c11.2,9.2,16.9,21.8,21.9,35
		c4.7,12.5,4.5,25.2,3,38.2c-1.4,12.1-5.6,22.9-14.1,31.8C565.1,534.2,562.2,535.7,559,531.1z"/>
	<path class="st0" d="M479.4,543.1c-12.3-2.2-24-6-33.5-14.6c-2.2-1.9-3.4-4.3-3.7-7.1c1.1-2.8-0.8-5.2-1.2-7.8
		c-0.2-1.7-0.8-3.4-0.8-5.2c0-4.6,0.8-5.1,5.2-3.8c-2.6-2.4-6.1-3.9-7.8-7.4c2.3-21.5,12.2-38.2,31.5-48.6c3.7-2,6.6-2.6,10.6,1.1
		c5.4,5.1,13,4.8,20.2,4.4c6.5-1.2,11.8,2.3,17.4,4.7c3.5,1.8,4.9,5.3,7,8.4c0,0.2,0.1,0.5,0.1,0.7c-4.4,2.6-9,4.2-14.2,5
		c-9.4,1.4-18.6,0.5-28-0.1c-3.2-0.2-6.3-1.8-10.7-0.7c3.7-6,6.8-11.1,10.6-17.4c-5.2,3.7-8.6,7.5-11,11.7c-2.7,4.8-5.9,4.3-9.9,2.6
		c-1.8-0.8-3.8-1.3-5.9-1.4c3.2,2,6.4,4.1,9.5,6.1c-2.1,7.3-5.7,14-9.1,20.7c-1.4,2.7-3.6,2.5-6.2,2.2c-2.7-0.3-5.1-2.9-8.1-1.4
		c7.6,10.4,19,14.2,30.7,16.4c10.9,2.1,21.9,3,33.2,1.4c7.6-1,15.3-1.1,22.9-3c9.1-2.3,16.8-7.1,24.5-12c2.4-0.1,2.7,1.9,3.2,3.5
		c0.8,2.7,1.2,5.5,0.9,8.4c-1,3-1.8,6.1-3.2,9c-6.8,14.6-19.1,21.8-34.1,25c-2.8,0.6-5.7,0.8-8.6,1.1c-9.7,1.2-12.3-0.5-15.1-9.3
		c-0.7-2.3-1.1-4.7-2.3-6.9c-0.9-3.3-2.9-6.4-2.1-10.1c-0.9,3-0.6,6.3-1.3,9.4c-0.6,2.1-0.4,4.2-0.4,6.3
		C489.4,541.9,487.1,543.9,479.4,543.1z"/>
	<path class="st0" d="M494,482.3c0.4-3.1,3.6-2.5,5-2.5c11-0.6,21.3-3.5,31.3-8.1c10.6,4.4,18.7,11.3,22.5,22.5
		c-4.3,3.8-9.5,6.2-14.6,8.6c-1.3-0.6-3-0.4-3.6-2.1c0.2-5.1,0.6-10.3-1.5-15.2c-1.1-2.7-2-5.4-5.2-7.4c0.8,3.8,2.4,6.9,3.4,10.2
		c1.3,4.1,3.5,8,2.4,12.6c-1.5,2.6-4.2,3.9-6.8,4.4c-6.6,1.4-13.2,3-20.2,1.8c-9.9-1.6-13.9-6.1-13.5-16.2
		C493.4,488.1,493.4,485.2,494,482.3z"/>
	<path class="st1" d="M567.4,516.6c-0.2,2.3-1.6,4-3.9,5.5c0-2.7-0.4-5.4,0.1-7.9c2.9-15.6-2-29.4-9.5-42.8
		c-3.6-6.3-8.2-11.6-14.4-15.2c-9.5-5.6-15.3-14.4-21.3-23.1c-2-2.9-4.1-5.8-6.4-8.5c-1.5-1.8-2.3-3.7-1.5-6.4
		c-8.9,1.8-17.5,3.6-26.3,3.6c-0.1-1.4,0.9-2.1,2-2.4c9.5-2.5,18.6-6,27.3-10.4c2.2,2.3,1.1,6,3.4,8.3c1.2,1.4,2.2,3,3.5,4.4
		c2.7,3.2,5.1,6.7,7.7,10c5.3,7,10.6,13.8,18.8,17.9c5.7,2.9,8.7,8.4,11.9,13.7c5.2,8.6,8.8,17.7,9.7,27.7c0.2,2.5,1.3,4.7,1.8,7
		C571.2,504.5,569.6,510.6,567.4,516.6z"/>
	<path class="st2" d="M519.6,422c-1.9-0.7-2.2-2.7-3.2-4.1c-0.7-0.9-0.6-1.9-0.3-2.8c1.8-4.4,0.6-8.2-2.6-11.5
		c0.3,1.8,1.7,3.7-0.1,5.5c-7.1,6.4-16.2,8.1-24.9,10.7c-1.6,0.5-3.1,0.8-4.3,1.9c-2.6,0-5.2,0-7.8,0c-1-0.6-2.2-1.1-1.9-2.6
		c1-0.1,1.9-0.2,2.9-0.3c1-0.5,2.2-0.5,3.2-1c4.9-2.2,5.9-4.7,3.8-9.6c-0.8-1.8-1.8-3.4-3-5c-1.1-0.8-2.3-1.6-4.5-3.2
		c5.2-0.6,9.4-1.7,13.6-1.6c5.9,0.2,11.6-1.8,17.7-0.9c2.9,0.4,4.2-4.6,6.4-7c1.6-0.6,2.4,0.7,3.2,1.6c1,1.3,2.2,2.6,2.4,4.2
		c1.8,15.3,12.4,24.7,22.5,34.6c1.4,1.3,3,2.5,3.6,4.5c-4.1,4.9-8.4,5.3-12.5,0.6C529.3,431.1,524.9,426.2,519.6,422z"/>
	<path class="st3" d="M464.6,543.2c-1.2,1.7,0.2,2.6-0.1,4.4c-4.9-3.2-9.7-6.1-13.5-10.6c2.4-1.1,3.5,0.4,4.8,1
		c15.8,7.5,32.4,11.7,49.9,11.8c13,0.1,24.7-4,35.3-11.8c-1,5.1-9.1,13.7-16.2,17.2c0-2,1.2-3.7,0.2-5.8c-1.9,0.5-2.6,2.4-3.2,3.7
		c-3.5,8-11.1,7-17.7,8.3c-2.5,0.5-2.9-2.1-4.2-3.4c-1.3-1.4-1.3-3.7-3.4-4.8c-0.2,0.5-0.5,0.9-0.4,1.3c0.4,6.2,0.3,6.4-5.7,4.9
		c-5.9-1.5-11.7-3.6-17.2-6.4C469.1,550.9,467.4,546.7,464.6,543.2z"/>
	<path class="st4" d="M546,435.6c-8.3-7.8-17-15.2-22.9-25.2c-2.1-3.5-2.4-7.6-3.4-11.4c-0.9-3.4-2.4-6.2-5.1-8.4c0,0,0,0,0,0
		c-7,0.7-13.7,2.4-20.7,3.4c-5.2,0.7-10.6,1-15.4,3.5c-3.2,1.8-6.3,3.7-10.2,5.9c3.3-7.3,8.5-11.4,15.2-12.7
		c8.1-1.6,16.4-2.1,24.6-3.1c1-0.1,2,0.2,2.9-0.1c9.2-3,9.2,0.7,12.4,7.9c1.2,2.7,1.6,5.7,2.4,8.6c3.2,11.1,11.3,18.8,19.8,25.2
		c14.9,11.3,22.4,26.3,26.7,43.7c2.1,8.7,2.3,17.3,0.8,26.1c-0.1,0.4-0.6,0.7-0.9,1c-2.6-5-1.8-10.5-2-15.7
		c-0.8-16.6-8.2-29.7-19.2-41.4c-1.3-1.4-2.8-2.7-4-4.3C546.3,437.9,546.6,436.6,546,435.6z"/>
	<path class="st0" d="M459,501c2.6-7.6,5.3-15,9.1-22.2c1.4-2.7,2.8-3.8,6.1-2.6c4.5,1.7,9.3,2.2,14.1,2.4
		c0.8,7.7,0.9,15.4-0.7,23.1c-0.5,2.5-1.9,5.1-4.6,5.1C474.5,506.7,466.1,506.5,459,501z"/>
	<path class="st3" d="M459,501c6,2.2,12.2,3.6,18.5,4.7c6.2,1.1,7.8,0.1,8.9-6c1.2-7,2.3-13.9,1.8-21c2.1,5.6,0.9,11.6,1.9,17.4
		c0.5,2.9,0.1,5.9,0.4,8.9c2-7.5,1-15.3,3.5-22.6c0.1,5.8-0.2,11.6,2,17.2c0.6,1.4,0.9,2.7,2.3,3.5c8.8,5,26.9,5,34.9-3.2
		c1-0.4,1.1,1.1,2,1c0.9,0.6,1.9,1.2,2.8,1.9c-10.4,4.3-21.4,5.1-32.5,6.2c-14.8,1.5-29.2,0.1-43.3-4.1c-5.9-1.7-11.2-4.9-16.5-7.9
		c-1.4-0.8-2.7-1.8-4.4-1.9c-0.6-0.4-1-1.1-0.4-1.5c0.9-0.7,1.8,0,2.7,0.2c9.8,2.2,9.8,2.2,14.3-6.8c2.2-4.5,4.5-8.9,6.7-13.4
		c2.1,1.8,0.2,3.3-0.5,4.7c-3.4,6.7-4.7,13.9-6.3,21.1C458.1,499.8,458.7,500.4,459,501z"/>
	<path class="st2" d="M481.4,428.9c5.5-0.1,11-0.2,16.6-0.3c1.8-0.8,3.3,0.1,4.4,1.3c3.9,4.4,6.4,9.4,4.6,15.5
		c-5.2,3.3-10.6,5.2-16.8,2.9C484.1,444.4,479.7,434.6,481.4,428.9z"/>
	<path class="st2" d="M546.8,437.5c14.3,12.5,24,27.3,24.7,47.2c0.2,5.1,0.6,10.3,0.8,15.4c-0.7,5.8-1.2,11.7-4.9,16.6
		c0.9-6.5,2.5-13,1.8-19.7c-2.2-9.9-2.5-20.1-6.6-29.7c-3.6-8.3-8.1-15.5-16.1-20.1c-0.7-0.4-1.4-0.8-2-1.4
		c-1.5-1.4-4.2-2.2-3.4-4.7C541.9,438.7,544.1,437.3,546.8,437.5z"/>
	<path class="st3" d="M552.8,494.2c-0.4-0.3-1-0.4-1.2-0.8c-3.9-10.4-12.9-15.7-21.3-21.7c0.6-0.5,1.2-1,1.8-1.6
		c6.2-5.8,8.9-5.5,13.8,1.4c3.7,5.3,7.4,10.6,9.3,16.8C555.9,490.7,557.5,493.8,552.8,494.2z"/>
	<path class="st3" d="M517.6,459.9c-5.9-2-11.3-5.5-17.7-5.9c5.6-1.5,11.2-3,15.2-7.6c0.9-1,1.7-1.1,2.6,0.3
		c4.7,7.4,12.4,11.6,19.7,17.3c-4.8,1.3-8.7,3.3-13.1,3.8c0,0,0.1,0.1,0.1,0.1c-1.2-1.6-1.2-3.6-1.7-5.5c-1.2-4.5-3.7-7.8-8.5-9
		C515.2,455.7,518.1,457,517.6,459.9z"/>
	<path class="st3" d="M494.3,528.2c1.7,1.5,1.7,3.8,2.2,5.8c2.8,9.5,4.3,10.6,14.3,11c-4.3,1.9-8.8,0.8-13.2,0.8
		c-6.1-0.1-12.3-0.6-18.2-2.7c7.8-0.7,8.8-1.9,8.9-9.8c0-2-0.7-4.2,0.8-6c2.3,2.6,1.8,6,2.8,9c0.5,1.7,0.9,3.4,1.8,4.7
		C494.9,536.8,491.7,532.5,494.3,528.2z"/>
	<path class="st4" d="M481.4,428.9c0.8,7.4,3.9,13.9,8.8,19.4c-9.3-0.6-15.9-9.4-13.6-18.1C477.4,427.1,479.8,429.3,481.4,428.9z"/>
	<path class="st5" d="M507,445.4c-1.3-6.5-1.2-13.8-9-16.8c4-1.9,7.3-1.2,9.8,2.6c0.5,0.8,1,1.7,1.5,2.4
		C513.8,439.7,513.5,441.5,507,445.4z"/>
	<path class="st6" d="M437.6,497.1c3.8,3,7.7,5.9,12,9.2c-3.6,0.9-5.2-1.8-7.9-1.8c-1.2,5.3,1,10.1,2.3,15.1c0.5,1.9,0.6,3-1.7,1.7
		C438.7,513.6,437.2,505.6,437.6,497.1z"/>
	<path class="st2" d="M478.5,397.5c2-3.5,5.9-3.1,9-3.7c8.1-1.7,16.4-2.8,24.6-4.1c0.9-0.1,2-0.2,2.5,1
		C503.1,395.8,490.5,394.8,478.5,397.5z"/>
	<path class="st7" d="M481.4,403.3c1.5,0.7,2.3,2,3.2,3.4c1.7,2.6,3.6,4.9,1.8,8.2c-2,3.6-5.2,4.4-8.9,3.9
		C483.6,414.5,484.2,412,481.4,403.3z"/>
	<path class="st3" d="M556.7,509.9c-1.7-3.9-1-8.5-4.1-11.9c1-1.1,1.9-2.2,3.3-3.7C557.8,499.7,558.5,504.7,556.7,509.9z"/>
	<path class="st2" d="M476.6,406.2c2.9,0.3,2.6,3,2.5,4.6c-0.3,2.2-1.2,4.7-4.5,4.1C471.7,409.9,472.2,407.9,476.6,406.2z"/>
	<path class="st4" d="M476.6,406.2c-4.1,2.1-2.3,5.6-2.1,8.7c-3.9-1.2-4.1-4.1-2.8-7.2C472.6,405.5,474.3,404.3,476.6,406.2z"/>
	<path class="st4" d="M474.6,419.1c0.6,0.9,1.3,1.8,1.9,2.6c-4.3,0.7-6.6-1.3-8.1-6C470.8,417.4,472.4,418.8,474.6,419.1z"/>
	<path class="st6" d="M519.2,469c-14.8-4.6-28.5-13-42.7-1.1c2.3-3.7,4.7-7.4,7-11.2c1-1.6,1.9-1.4,3.6-1c2.9,0.8,5.9,1.6,9,1.3
		C505.8,456.1,512.2,461.8,519.2,469z"/>
	<path class="st6" d="M525,537.7c-0.7-3.1-1.1-5-1.6-6.8c-3.2-12.1-1.7-9.3-13.3-12.2c-2.7-0.7-5.6-0.9-8.4-1.6
		c8-0.1,15.8-0.6,23.6-2.3c2.8-0.6,3.3,1.2,3,3.4C527.3,524.2,526.2,530.4,525,537.7z"/>
	<path class="st6" d="M482.4,516.1c-4.9,1.5-9,2-13.4,0.7c-2.3-0.7-4.4-0.3-4.2,3.2c0.3,4.5-1.8,8.8-1.2,13.5
		c-3.2-7.1-3.7-14.5-3.6-22.9C467.3,513.6,474.8,513.6,482.4,516.1z"/>
	<path d="M494.3,528.2c0.6,5.2,1.3,10.5,0.6,16.8c-4.5-5.7-5.1-11.8-5.7-17.8c0-3.4,0.4-6.7,1.6-10.5
		C492.6,520.7,493.3,524.5,494.3,528.2z"/>
	<path d="M461,535.1c-7.1-5.9-12.1-21.3-4.1-27.1C456.9,517.2,458.3,525.9,461,535.1z"/>
	<path class="st6" d="M480.2,454.3c-9.7-1.1-16.3,2.4-22.5,8c1.4-4.9,11.9-13.9,16.1-14C477.1,448.3,477.2,451.7,480.2,454.3z"/>
	<path class="st6" d="M441.3,487.9c0.4-6.5,3-12.1,6.5-17.2c1.2-1.7,2.6-2.7,4.9-1.2c2.5,1.6,5.3,2.7,8.6,4.4
		c-3,1.3-5.2,0.1-6.6-0.5c-3.9-1.6-5,0.8-6.5,3.2C445.9,480.4,443.6,484.2,441.3,487.9z"/>
	<path d="M529.7,538.2c1.2-8.3,0.7-16.9,4.1-24.8C537.2,522.4,533.8,530.4,529.7,538.2z"/>
	<path class="st6" d="M545.5,525.7c2-5.9,0.5-12.1,2.2-18c0.4-1.6,0.9-2.9,2.8-2.7c1.9,0.3,1.2,2,1.2,3.2c0.2,5.6-2.4,10.6-3.3,15.9
		C548.3,524.9,547.4,525.8,545.5,525.7z"/>
	<path d="M517.6,459.9c-1.8-2.4-3.6-4.8-5.5-7.3c7.8-0.8,12.3,4.9,12.3,15.2C521.1,466.1,520.5,462,517.6,459.9z"/>
	<path class="st6" d="M527.6,497.8c-5.4-11.7-15.1-15.2-27-14.6c6.1-1.8,12.4-2.2,18.2-4.4c2.4-0.9,2.8,0.9,3.5,2.2
		C525.1,486.2,527.3,491.6,527.6,497.8z"/>
	<path d="M535.3,500.9c-1.5,1.4-1-1.2-2-1c-1.3-8.3-5.2-15.8-7.9-24.3c3.7,0.8,5.7,2.7,7.1,5.5C535.7,487.4,537.1,493.9,535.3,500.9
		z"/>
	<path d="M546.8,437.5c-1.8,1.5-4.3,2.3-5.8,4.8c14.6,6.8,22.6,18.9,25.8,34.3c1.4,6.7,1.6,13.6,2.4,20.4c-2.5-3.1-2.1-7-2.6-10.5
		c-1.9-12.8-8.6-23-16-33c-0.4-0.5-0.9-1-1.5-1.2c-13.7-6.3-21.1-18.7-29.5-30.3c5.6,1.6,9,6,12.3,10.1c5.6,7,5.3,7.3,14.1,3.5
		C548.7,435.2,547.1,436.6,546.8,437.5z"/>
	<path d="M513.5,409.1c0.6-2.5-2-4.7-0.5-7.3c6.6,5.7,6.5,8.1,3.4,16C512.9,415.8,514.3,412.1,513.5,409.1z"/>
	<path class="st7" d="M508.2,404.1c-6.8,0-13.4,0-19.9,0C490.9,399.1,500,399,508.2,404.1z"/>
	<path class="st6" d="M463.5,498.6c1.1-6.5,2.5-12.7,5.8-18.3c1.1-1.8,1.6-3,4.3-2c3.6,1.3,7.5,1.8,11.8,3.8
		c-1.3,0.2-1.7,0.4-2.1,0.3c-9.2-2.1-13.9,2.9-16.9,10.7C465.6,495,464.5,496.7,463.5,498.6z"/>
</g>
</svg>
