<?xml version="1.0" encoding="utf-8"?>
<!-- Generator: Adobe Illustrator 23.0.1, SVG Export Plug-In . SVG Version: 6.00 Build 0)  -->
<svg version="1.1" id="Layer_4" xmlns="http://www.w3.org/2000/svg" xmlns:xlink="http://www.w3.org/1999/xlink" x="0px" y="0px"
	 viewBox="0 0 1000 1000" style="enable-background:new 0 0 1000 1000;" xml:space="preserve">
<style type="text/css">
	.st0{fill:#6BC3F3;}
	.st1{fill:#ABDDF8;}
	.st2{fill:#9AD5F8;}
	.st3{fill:#FEFEFC;}
	.st4{fill:#FCFDFC;}
	.st5{fill:#ACDDF8;}
	.st6{fill:#FBFDFC;}
	.st7{fill:#F6FBFC;}
	.st8{fill:#69C2F3;}
	.st9{fill:#6AC2F3;}
	.st10{fill:#F8FBFC;}
</style>
<g>
	<path class="st0" d="M452.1,506.5c1.9-11.2,0.3-22.5-0.1-33.9c-0.5-14.5,9.1-19,20.2-18.3c8.7,0.6,17.1,0.3,25.4-2.3
		c8.5-2.7,16.7-2.7,24.9,1.7c4.1,2.2,9.3,2.6,14,3.8c9.7,2.5,14.1,7.8,14.3,18c0.1,4-0.4,8.1-1.1,12.1c-1.7,9.6-0.2,19.1,1.5,28.5
		c0.5,3.1,0.7,6.1,0,9.2c-1.2,5.5-4.1,8.5-9.6,8.6c-13.2,0.3-25.6,4-37.8,8.5c-11.4,4.2-21.6,3.5-30.3-5.9c-1.9-2.1-4.7-3.6-7.2-4.9
		C456.2,526.3,449.7,519.1,452.1,506.5z"/>
	<path class="st1" d="M455.1,515.6c-1.7-12.7,0.9-25.4,0-38.1c2.7,0.5,1.8,2.7,1.8,4.3c0.2,6-0.2,12,0.3,18
		c-0.6-7.4-0.3-14.7-0.2-22.1c0-4.9,3.1-6.5,7.5-4.6c2.2,1,4.4,2.2,6.5,3.4c1.8,1,3.6,1.5,5.3-0.1c3.8-0.4,6.2,2.5,9,4.3
		c2.7,1.8,5,2.2,8.1,0.9c7.6-3.1,15.8-3.3,23.9-4.2c7.8-0.8,15.3-2.3,19.3-3.5c-6.7,2.5-17.4,2.8-28,4c-1.6,0.2-3.3,0.1-4.6-1
		c-0.5-2,1.1-2.1,2.2-2.4c8.7-1.8,17.2-4.1,25.1-4.8c-6.2,0.2-13.2,0.8-20,3.3c-0.9,0.3-1.9,0.6-2.9,0.6c-1.2,0-2.4-0.1-2.9-1.4
		c-0.5-1.3,0.5-2.1,1.4-2.8c1.4-1.1,3.2-1.6,5.1-3.2c-3.9-0.1-7.1,0.8-10.3,1.4c-6,1-11.9,1.2-17.8-0.7c-2-0.7-4.3-1.6-3.9-4.2
		c0.3-2.4,2.4-3.3,4.7-3.5c2.3-0.2,4.5-0.6,6.4-2c9.7-3.7,19.4-7.1,29.6-1.2c4,2.3,9.2,1.6,13.2,4.2c-0.6,0.7-1.5,0.5-2.2,0.6
		c3.4,0.8,6.9,1.5,8.4,5.4c1.1,3,3.2,0.8,4.9,0.7c4.6,5.5,3.9,11.7,2.7,18c-1.9,10.5-0.9,21,0.7,31.4c0.4,2.9,0.5,5.8,0.3,8.7
		c-0.3,4.1-3.4,6.2-8.8,6.3c5.7-5.3,4.9-12.2,4.4-18.8c-0.7-9.5,0.5-18.9,0.1-29.4c-1,11.5,0,22-0.2,32.5c-0.1,4.4-0.5,8.9-5.3,11.2
		c-4.2,0.5-7.5-0.9-10.2-4.2c-4.2-4.2-7.9-8.8-13.2-11.7c-1.1-0.6-2.2-1.1-2.3-2.6c1.7-7.4,2-14.9,0-23.3c-1,8.7,0.4,16.5-0.7,24.3
		c-6.1,3.8-13,4.5-19.9,5.2c-2.4,0.2-3.5-1.2-3.8-3.4c-0.2-2.1-0.1-4.2-0.2-6.3c-0.1-4.4,0.6-8.9-0.5-13.6c-1.1,1.3-0.8,2.7-1.3,3.8
		c-0.8,5-0.3,10.1-0.4,15.1c0,3.7-1.5,5.8-5,6.7c-6,1.4-12,2.9-18.2,3c-2.4-0.2-3.9-1.7-5-3.6c0-0.1-0.3-0.1-0.4,0
		c-0.1,0.1-0.2,0.2-0.3,0.4C455.7,519.3,455.8,516.3,455.1,515.6z"/>
	<path class="st2" d="M529.4,521.5c2,3.1,5.5,3.7,8.7,4.7c-0.9,2.9-3.5,3.2-5.8,3.7c-5.5,1.3-11.1,2.1-16.7,2.9
		c-3.3,0.5-6.5,1.4-9.5,3.1c-0.5,0.5,0.7,0.5,0.1,0.1c-0.2-0.1-0.1-0.3,0.3-0.4c4-0.6,7.7-3.6,12-1.5c-7.4,4.3-15.5,6.1-23.7,8
		c-8,1.8-13.4-1.8-18.9-6.8c-3.9-3.6-8.9-5.8-13.2-9c-3.5-2.7-7.6-5.3-7.7-10.6c0.7-0.3,1.4,3.1,2-0.1c3.2,2.3,4.4,6.9,8.6,7.5
		c-1.1-1.2-4.1-1.5-3.9-4.4c6.9-0.2,13.6-1.9,20.4-3.4c2.4-0.5,3.2-1.9,3.3-4.5c0.2-5.6-1.2-11.2,0.8-16.7c1.5,1.4,1.4,3.2,1.4,5
		c0.1,8.8,0.1,17.6,0,26.3c-0.1,6.5-2.1,7.6-7.3,4.9c3.2,0.8,5,4.3,7.6,7.6c1.3-2.7,1.1-5.2,0.7-7.5c-1.2-7.3-0.6-14.6-0.7-21.9
		c0-1.8-0.5-4.1,2.2-4.7c0.1,10.6,0.1,10.6,10.4,8.1c4.1-1,8.1-2.2,12.2-3.2c0.3-0.4,0.5-0.4,0.7,0c1,0.4,2.1,0.7,3.1,1.1
		c2.7,3.1,5.2,6.4,8.3,9.1C526.3,520.1,527.3,521.6,529.4,521.5z"/>
	<path class="st3" d="M491.2,457.1c-0.8,3.2-3.6,2.5-5.9,3c-1.8,0.4-4.4,0.4-4.4,2.9c0,2,2.4,2.3,4.1,2.8c6.9,2,13.8,1.2,20.7-0.3
		c2.4-0.5,4.8-0.7,7.2-1.2c1.1-0.2,2.1,0,2.4,1c0.4,1.2-0.9,1.6-1.7,2c-2.5,1.3-5,2.6-7.3,4.7c9.7-1.6,19.1-4.9,29-2.6
		c-10.4,2.9-21.1,4-31.4,7.1c-2.1,1.9-4.8,2-7.4,2.3c-5.7,0.6-10.4-1.2-14.6-5.1c-3-2.8-6.9-4.3-10.5-6.2c-2.2-1.2-5.2-2.5-4.6-5.6
		c0.7-3.4,3.6-4.2,6.9-4C479.5,458,485.4,457.9,491.2,457.1z"/>
	<path class="st4" d="M518.5,534.1c-4.4-0.4-8.2,3.3-13.5,1.5c3.3-3.8,7.6-3.5,11.5-4.3c7.2-1.4,14.8-1.4,21.5-5.1
		c3.7-1.8,4.9-5.1,4.9-8.8c-0.1-8.4,0.5-16.8-0.5-25.2c-0.4-3.4,0.6-7,1.1-10.5c0.1-0.9,0.6-2,1.9-1.7c1.1,0.3,1.5,1.4,1.2,2.4
		c-1.8,6.3-0.7,12.9-1.4,19.3c-0.7,6.3,0.6,12.9,0.8,19.3c0.2,5.1-1.5,8.4-6.1,10.3C532.9,532.3,525.5,531.9,518.5,534.1z"/>
	<path class="st5" d="M473.6,458c-0.6,0.3-1.1,0.7-1.7,0.8c-2,0.5-4.1,1.4-4.3,3.4c-0.3,2.2,2.1,3,3.8,3.9
		c5.2,2.6,10.5,5.2,14.7,9.3c2.9,2.9,6.6,2,10.1,2.2c-2.8,3.1-7.2,3.5-12.1,1c-5.2-2.7-9.9-6.3-15.1-8.9c-1.6-0.8-3.2-1.6-4.8-2.5
		c3,2.3,8,2.4,8.6,7.6c-3.8,1.2-6.5-1.3-9.4-2.9c-4.7-2.5-4.7-2.6-7,2.3c-0.3,0.6-0.7,1.1-1.3,1.4c-1.1-5.4-0.7-10.6,3.5-14.5
		C462.8,457.2,467.9,455.6,473.6,458z"/>
	<path class="st6" d="M455.1,475.6c2.2-8.5,2.2-8.5,10.1-4c2.4,1.3,4.8,2.5,7.5,3c1.9-0.4,3.2,0.2,3.7,2.2c0.2,3.8-2,3.1-4.1,2
		c-2.7-1.4-5.4-3.1-8.1-4.4c-4.1-2.1-5.9-1.3-6,3.1c-0.3,6.5-0.3,13,0.2,19.5c0.2,2.7,0,5-0.9,7.4c-2.1-0.5-1.4-2.1-1.4-3.2
		c-0.1-6.3,0-12.7-0.1-19c0-1.6,0.5-3.3-0.9-4.6C455.1,476.9,455.1,476.2,455.1,475.6z"/>
	<path class="st7" d="M545,466.7c-3.7,4.1-4.3,4.1-6.1-0.8c-1.4-3.7-5.2-3.4-8-5.3c1-1,2.1-0.4,3-0.5
		C538,461.9,543.3,461.3,545,466.7z"/>
	<path class="st8" d="M476.4,476.7c-1.2-0.7-2.5-1.5-3.7-2.2c-3-4.4-8.5-5.4-12.3-8.9c5.4,0.2,9.5,3.2,14,5.5c3,1.6,5.8,3.5,8.6,5.4
		c4.2,3,8.6,3,13.1,0.9c2.6-0.3,5.2-0.7,7.8-1c13.2-0.7,26.4-1.6,40-6.7c-1.6,3.6-3.7,4.1-5.7,4.8c-9,2.9-18.4,3.5-27.6,4.9
		c-6.4,1-13.3,0.5-19.1,4.4c-1.7,1.2-3.6,0.3-5.3-1.1C483.2,480.5,480.1,478.1,476.4,476.7z"/>
	<path class="st9" d="M490.2,503.9c-1.8,8.1-1.1,16.3-0.4,24.5c0.3,3.2,0.5,6.5,0.2,9.7c-0.1,1-0.4,2.4-1.8,2.5
		c-1.1,0.1-1.6-1-2-1.9c-1.5-4.1-4.3-6.8-8.3-8.3c-1.4-0.5-3-1.6-1.9-3.2c1-1.4,2.2,0.2,3.3,0.7c0.4,0.2,0.7,0.6,1.1,0.9
		c1.4,1.1,2.7,2.8,4.6,1.8c1.9-1,1.2-3.2,1.2-4.9c0-10.5,0-21.1,0-31.6c0-2.3,0.3-4.5,1.9-6.8C491.3,492.8,489.9,498.4,490.2,503.9z
		"/>
	<path class="st10" d="M513.6,508.7c-0.2,0-0.5,0-0.7,0c-2-8.9-1.1-17.7,0.3-26.6C516.1,491,518.3,499.8,513.6,508.7z"/>
	<path class="st9" d="M529.4,521.5c-0.2,1.9-1.5,1.6-2.3,0.8c-4-3.7-8.7-6.8-10.4-12.4C521.6,513,525.5,517.2,529.4,521.5z"/>
	<path class="st9" d="M461.8,518.6c1.5,2.6,5.5,2.8,6.5,6.5c-5.7-1.3-9.5-4.2-11.2-9.5c0-0.6-0.1-1.4,0.2-1.9
		c0.5-0.9,1.1-0.1,1.4,0.3C459.7,515.6,459.9,517.7,461.8,518.6z"/>
</g>
</svg>
