<?xml version="1.0" encoding="utf-8"?>
<!-- Generator: Adobe Illustrator 23.0.1, SVG Export Plug-In . SVG Version: 6.00 Build 0)  -->
<svg version="1.1" xmlns="http://www.w3.org/2000/svg" xmlns:xlink="http://www.w3.org/1999/xlink" x="0px" y="0px"
	 viewBox="0 0 1000 1000" style="enable-background:new 0 0 1000 1000;" xml:space="preserve">
<style type="text/css">
	.st0{fill:#0F0D13;}
	.st1{fill:#FB0000;}
	.st2{fill:#F49B05;}
	.st3{fill:#D76600;}
	.st4{fill:#890801;}
	.st5{fill:#762501;}
	.st6{fill:none;stroke:#000000;stroke-width:10;stroke-miterlimit:10;}
	.st7{fill:none;stroke:#000000;stroke-width:8;stroke-miterlimit:10;}
	.st8{opacity:0.5;fill:#FFFFFF;}
</style>
<g id="Layer_4">
	<polygon class="st0" points="420.9,477.4 421.9,562.4 462,594.6 500.8,602.5 546.7,589.2 579.9,559.1 579.9,475.1 544.4,503.8 
		494.5,511.3 451.2,500.6 	"/>
</g>
<g id="Layer_5">
	<polygon class="st1" points="561.8,416.7 522.9,447.3 474.6,447.3 438.8,417.7 420.8,473.7 460.9,507.4 526.8,510 581.4,478 	"/>
</g>
<g id="Layer_6">
	<polygon class="st2" points="498.1,364.8 456.8,384.9 438.3,419.3 473.5,446.4 520.2,448.4 564.2,416.7 537.5,380.5 	"/>
</g>
<g id="Layer_7">
	<polygon class="st2" points="577.9,567.6 528.8,599.7 473,600.6 424,564.1 442.9,614.5 496.3,638.4 553.9,619.6 	"/>
</g>
<g id="Layer_8">
	<path class="st3" d="M538.6,435.7c4-2.2,6-4,10.1-6c-2.8-12.9-35.9-45.3-35.8-45.2c3,7.9,18.9,34.7,20.6,54.8L538.6,435.7z"/>
</g>
<g id="Layer_9">
	<path class="st4" d="M548.7,429.8l9.5,16.5c4,7,8.9,13.5,14.4,19.4v0c2.9,3.1,3.2,7.8,0.7,11.2l-13.5,18.6l-49.7,15.3l17.7-10.7
		c4.5-3,8.9-9.7,9.9-15l0,0c2.1-11,1.9-22.3-0.5-33.3l-2.7-12L548.7,429.8z"/>
</g>
<g id="Layer_10">
	<path class="st5" d="M557.9,582.6L517.2,601c-0.1,0.1-0.2,0.1-0.4,0.1l-21.3,2.5c-1.2,0.1-1.5,1.7-0.5,2.3l0,0
		c-1.1-0.2,7.7,1.7,9.3,2.3c5.3,2.1,6.4,3.9,6.8,4.3c1.7,1.4,1,4.8-0.4,7.6c-1.7,3.5-4.8,6.1-8.4,7.6l-8.3,3.5
		c-1.3,0.5-0.8,2.5,0.5,2.4l29.2-1.5c0.1,0,0.3,0,0.4-0.1l23.7-9.1c0.3-0.1,0.5-0.3,0.6-0.5l10.9-17.4c0.7-1.1-0.6-2.4-1.7-1.7
		l-6.6,4c-4.1,3.2-0.6-15.5,6.5-21.4c0.1-0.1,0.1-0.1,0.2-0.2l1.3-1.8C560.5,580.8,552.7,585,557.9,582.6z"/>
</g>
<g id="Layer_2">
	<path class="st6" d="M535.5,380.1c-14.1-13.7-40.2-19-56.3-9.6c-24.9,14.5-60.1,50.8-60.6,136.5c-0.3,42.1,3.1,65.6,11.9,84.6
		c18.5,40.3,52.5,43.7,69.5,43.7c33,0,57.7-16.2,70.5-43.8c10-21.5,11.8-49.7,10.7-83.8C578.7,431.5,560.1,404,535.5,380.1z"/>
</g>
<g id="Layer_3">
	<path class="st7" d="M561.8,411.5c-1,11.4-31.1,38.3-61.8,38.3c-33.5,0-57-23-60.4-37.5"/>
	<path class="st7" d="M578.3,470.9c0,0-13.5,38.8-78.7,40.4c-59.2,1.4-78.7-40.4-78.7-40.4"/>
	<path class="st7" d="M579.9,554.9c0,0-23,46-79.1,47.6s-79.8-47.6-79.8-47.6"/>
</g>
<g id="Layer_11">
	<path class="st8" d="M475.8,404c-7.8-2-23.7,7.5-34.6,49.7c-6.2,24.1-4.8,43.8-4.5,64.7c0.4,23.9,1.7,55.1,13.2,53.5
		c8.6-1.2,7.9-9.5,13.2-46c1.9-13.2,10.8-53.3,13.9-68.4C481.9,434,496.1,409.2,475.8,404z"/>
</g>
</svg>
