<?xml version="1.0" encoding="utf-8"?>
<!-- Generator: Adobe Illustrator 23.0.1, SVG Export Plug-In . SVG Version: 6.00 Build 0)  -->
<svg version="1.1" id="Layer_4" xmlns="http://www.w3.org/2000/svg" xmlns:xlink="http://www.w3.org/1999/xlink" x="0px" y="0px"
	 viewBox="0 0 1000 1000" style="enable-background:new 0 0 1000 1000;" xml:space="preserve">
<style type="text/css">
	.st0{fill:#FEFEFE;}
	.st1{fill:#FEEC1E;}
	.st2{fill:#FEF7A6;}
	.st3{fill:#A19020;}
</style>
<g>
	<path d="M499.3,559.6c-16.8-0.4-33.1-3.3-48-11c-9.2-4.7-16.8-11.7-23.7-19.7c-5.3-6.2-10.1-12.6-13.7-19.9
		c-5.3-10.7-6.8-22.4-9.5-33.9c-2.1-9.1,0.1-17.5,2.9-26c1.8-5.4,6.4-8.9,11.8-7.7c3.1,0.7,6.4,0.1,9.4,1.6c1.2,0.6,3,0.6,4.3,0.1
		c5.2-1.9,9.9,0.2,14.9,0.9c10.1,1.4,20.1,2.4,30.5,1.4c13.5-1.2,27.1-2,40.8,0.4c5.4,1,11.2,0.4,16.8-0.5c8.3-1.4,16.9-0.3,25,1.2
		c6.5,1.2,12.4-1.2,18.6-0.5c3.3,0.4,6.6,0.8,9.7,1.8c8.6,2.8,10.4,7.3,9.2,16.8c-1,7.9-3,15.8-4.2,23.7
		c-1.8,11.7-7.9,21.1-14.8,30.1C572,528.2,564,537.2,554,544c-9.7,6.6-20.4,11.1-31.8,13.5C514.7,559.1,507,559.9,499.3,559.6z"/>
	<path class="st0" d="M575.2,457.2c2.4-1.9,5.2-1,7.8-1c2.4,2.3,2.3,5.4,2.3,8.4c-2.2,11.5-4.7,23-11,33.1
		c-4.8,7.5-10.1,14.7-18.1,19.3c-6.8,3.9-13.5,7.8-20.4,11.5c-7.7,4.2-16,5-24.4,6.1c-12.2,1.6-24.2,0.5-35.8-2.3
		c-20.6-5-38.7-14.5-48.3-35.2c-1.2-2.7-2.4-5.4-3.9-7.9c-6.3-10.1-6.8-20.8-3.4-31.9c0.7-1.6,1.3-3.4,3-4.3
		c1.9,0.4,3.8,0.8,5.7,1.1c1.1,1.2,0.3,2.5,0,3.6c-3.5,11.2-0.6,21.4,4.9,31.2c2.2,4,4.1,4.4,7.9,1.8c14-9.4,27.7-19.2,41.4-29
		c2.3-1.6,4.2-3.6,2.5-6.8c8.8-0.6,17.6-2.2,26.4,0c0.3,1.9,1.4,3,3.3,3.7c15,5.9,30.3,10.4,46.2,13.1c9,1.6,13.6-2.8,13.1-11.7
		C574.2,459.2,574.3,458.1,575.2,457.2z"/>
	<path class="st1" d="M423,453.1c-0.3,1.5-0.9,3-2.1,4.1c-1.7,4.2-2.7,8.6-4.1,12.8c-0.8,2.9-0.6,5.7,0.5,8.6
		c1.7,4.2,1.8,9,3.8,13.1c4.6,9.6,10.4,18.9,17.8,26c13.4,13,29.4,21.7,49.1,21.1c5.7-0.2,11.3,1.5,16.9,2.4c6.2,1,12,0.3,17.5-2.5
		c6.1-3.2,12.4-5.7,19-7.6c6.4-1.8,10.5-7,15.3-11c9.2-8,17.3-17,22.5-28.4c3.2-7,4.2-14.2,4.9-21.7c-0.1-1.7,1-3.4,0.1-5.1
		c-0.4-2.9-0.8-5.8-1.1-8.6c5.2,1.3,6.4,3.2,5,8.3c-2.5,8.7-1.8,18-5,26.5c-3.7,9.7-9.4,18.2-15.8,26.3
		c-5.9,7.5-13.1,13.6-20.5,19.5c-7.6,6-16.7,8.8-25.9,10.9c-6.5,1.5-13.2,2.4-19.8,2.9c-8.5,0.6-16.7-1.9-24.9-3.7
		c-22.2-4.7-36.3-20.1-49.3-37.1c-7.9-10.4-10.6-22.8-13.2-35c-1.3-6.2-0.9-13.8,3.1-19.9C418.1,452.6,420,450.9,423,453.1z"/>
	<path class="st2" d="M432.5,454.1c3.4-2.1,7.2-1.2,10.7-0.8c9.9,1.2,19.8,2.7,29.9,2.9c2.6,0,4.9-1.5,7.5-0.9
		c0.7,0.4,1.6,0.2,2.4,0.4c3.6,1.1,4,2.8,1.2,5.5c-2.1,2-4.7,3.5-7,5.2c-10.7,7.9-21.6,15.6-33.4,22c-5.6,3.1-8.3,2.5-11-3.1
		C427.7,474.9,426.2,464.5,432.5,454.1z"/>
	<path class="st2" d="M516.6,455.2c6.7,1.5,13.5,1.1,20.2,0.4c6.4-0.7,12.8-0.9,19.2,0.1c5.1,0.7,10.2,1,15.3,1.5
		c4,3.5,4.1,8,0,11.5c-3.4,3-7.4,3.6-11.8,3.1c-9.7-1.1-18.9-4.4-28.2-7.1c-5.1-1.5-10.3-2.8-15.1-5.2c-1.2-0.6-3.2-0.7-2.8-2.7
		C513.7,454.9,515.6,456,516.6,455.2z"/>
	<path class="st1" d="M432.5,454.1c-1.9,7.3-4.2,14.6-1.8,22.2c0,0.1,0,0.3,0,0.5c2.1,11.9,5.7,13.8,15.9,8.4
		c12.8-6.8,24.5-15.4,36-24.1c3.6-2.7,3.3-3.4-2.2-5.8c1.6,0,3.3,0,4.9,0c2.9,1.5,3.6,3,0.7,5.6c-6.1,5.5-13.2,9.5-19.7,14.4
		c-8,6-16.4,11.5-24.7,17.1c-4.2,2.9-6.6,2.4-9-2.1c-6.3-11.4-9.5-23.3-4-36C430,454.2,431.2,454.1,432.5,454.1z"/>
	<path class="st1" d="M516.6,455.2c-0.9,0.5-1.8,1-3.3,1.9c9.4,4.4,19.2,6.3,28.4,9.7c5.4,2,11.1,3,16.8,3.8c2.1,0.3,4.3,0.5,6.3,0
		c7.6-1.8,11-7.7,6.4-13.4c1.3,0,2.6,0,3.9,0c-0.4,3.3,2,6.3,0.1,9.8c-3,5.3-7.8,7.8-14.6,6.6c-9.9-1.8-19.4-4.9-29.1-7.5
		c-6.5-1.7-12.6-4.3-18.9-6.6c-2.1-0.8-4.6-1.9-1-4.2C513.3,455.2,515,455.2,516.6,455.2z"/>
	<path d="M584.1,464.8c1.6,1.4,0.5,3.2,0.7,4.8c-1.5,21.1-11.5,38.2-28.1,50.2c-18.9,13.6-39.7,23.4-64.5,18.7
		c-14.3-2.7-28.4-5.5-41.2-12.7c-6.9-3.9-12.9-8.6-17.6-15c-7.4-10-14.2-20.1-16.7-32.6c-0.6-2.9-1-5.7-0.9-8.6
		c0.9-4.5,2.4-8.7,5-12.5c-0.4,3.1-0.6,6.3-1.4,9.3c-1.4,5.2-0.5,10.3,1.5,14.8c5.1,11.9,10.9,23.6,19.9,33
		c4.1,4.3,9.8,6.8,15.1,9.5c13.3,6.9,27.7,9.4,42.4,10.2c20.5,1,38.6-5.8,55.6-17c15.8-10.4,23.8-25.3,28-43
		C582.8,471,583.4,467.9,584.1,464.8z"/>
	<path class="st1" d="M493.1,466.8c-2.7,11.1-2.7,22.7-4.6,34.1c-1,6.1-1.3,12.4-2.3,18.6c-0.6,3.6-1.7,5.5-6.5,4.3
		c-9.5-2.5-18.6-5.7-27.2-10.4c-1.3-0.7-2.5-1.5-3.6-2.4c-7.4-6.7-7.4-7.8-0.3-14.9c11.3-11.3,23.9-21,36.6-30.6
		c1-0.8,2.3-1.2,3.4-1.7C492,462.4,493.3,463.2,493.1,466.8z"/>
	<path class="st1" d="M492,509.9c1-13.1,2-26.3,3.2-39.4c0.2-2.3,0.4-5.9,3.2-6.4c3-0.6,4.3,2.4,5.7,4.9
		c7.7,13.6,16.2,26.8,24.9,39.8c6.3,9.5,5.9,11.2-5.1,13.3c-7.5,1.4-15.2,2.6-23,2.3c-6.5-0.3-8.3-2.1-8.6-8.6c-0.1-1.9,0-3.9,0-5.9
		C492.1,509.9,492.1,509.9,492,509.9z"/>
	<path class="st1" d="M567.4,487.8c-1,2.1-1.3,4.6-2.8,6.8c-4.5,6.5-9.7,12.3-16.8,16.1c-4.5,2.4-8.4,1.6-11.7-2.5
		c-9.3-11.8-18.6-23.6-27.7-35.6c-1.7-2.2-2.8-5.1-3.4-7.8c-0.8-3.3,1.2-4.5,4.3-3.6c11.9,3.6,23.6,7.7,35.2,12.3
		c5.6,2.2,11.4,4.1,17.1,6.1C565.5,480.9,567,483.8,567.4,487.8z"/>
	<path class="st3" d="M415.9,469.7c1.6,9.3,4.2,18.2,8.9,26.6c10.3,18.3,24.9,30.8,45.6,36.1c11.5,2.9,23,5.6,34.9,5.8
		c12.9,0.2,24.7-3.5,35.5-10.3c6.3-4,13.6-6.3,19.2-11.7c11.2-10.9,20.1-23,23.1-38.7c0.5-2.6,0.5-5.3,1.8-7.7
		c0.8,15.5-6,28.2-15.6,39.5c-6.5,7.6-14.1,14.3-22.1,20.4c-1.9,1.4-3.7,2.2-6,2.9c-5.4,1.5-10.8,3.4-15.7,6.2
		c-7,3.9-14.3,5.7-22.3,3.5c-9.5-2.6-19.5-1.4-29.2-3.6c-9.9-2.2-18.4-6.3-26.8-12.3c-12.3-8.8-19.6-21.1-26.8-33.5
		c-2.9-5-3.8-11.2-5.2-17C414.7,473.9,414.3,471.5,415.9,469.7z"/>
	<path class="st2" d="M490.2,468.4c-1.6,11.6-3.1,22.9-4.5,34.2c-0.6,4.9-0.5,9.9-2.9,14.5c-1.1,2.1-2.5,2.8-4.7,2.2
		c-9.3-2.6-18.6-4.6-26.4-11.1c-5.1-4.2-5.8-6.1-0.8-11.2c4.7-4.8,9.8-9.4,14.9-13.9c6.4-5.6,13.4-10.6,20.3-15.5
		c1-0.7,2.1-1.7,3.4-1.4C490.7,466.5,490.1,467.9,490.2,468.4z"/>
	<path class="st2" d="M510.6,520.5c-11.8,0-15-1.7-15.2-10.2c-0.3-13.7-2.2-27.6,2.6-41c0.4-1-0.1-2.5,1.6-2.4c1.3,0,1.9,1,2.4,2.1
		c7.9,15.4,18.3,29.3,25.5,45.1c1.3,2.7,1.2,3.9-1.9,4.6C519.9,519.8,513.9,520.3,510.6,520.5z"/>
	<path class="st2" d="M512,463.8c5.4,1.9,10.9,3.8,16.3,5.8c9.8,3.7,19.9,6.6,29.1,11.7c5.3,2.9,6.8,8.7,3.5,13.7
		c-3.5,5.3-8.1,9.5-13.2,13.2c-3.7,2.7-7.1,0.9-9-1.5c-10.2-12.4-21.7-23.8-29.2-38.3C508.2,465.7,508.8,464.2,512,463.8z"/>
</g>
</svg>
