<?xml version="1.0" encoding="utf-8"?>
<!-- Generator: Adobe Illustrator 23.0.1, SVG Export Plug-In . SVG Version: 6.00 Build 0)  -->
<svg version="1.1" id="Layer_4" xmlns="http://www.w3.org/2000/svg" xmlns:xlink="http://www.w3.org/1999/xlink" x="0px" y="0px"
	 viewBox="0 0 1000 1000" style="enable-background:new 0 0 1000 1000;" xml:space="preserve">
<style type="text/css">
	.st0{fill:#2D5325;}
	.st1{fill:#3F6F2E;}
	.st2{fill:#220300;}
	.st3{fill:#D09D72;}
	.st4{fill:#7F0000;}
	.st5{fill:#806851;}
	.st6{fill:#4D3F34;}
	.st7{fill:#600404;}
	.st8{fill:#69A45A;}
	.st9{fill:#7C6A56;}
	.st10{fill:#E6D6C1;}
	.st11{fill:#BDA586;}
</style>
<g>
	<path d="M526.5,302.5c3.4-0.9,5.8-3.6,9.4-3.7c5.3-0.1,8,4.8,7,11.3c-2.6,16.2-9.4,30.8-16.9,45.2c-1,1.8-1.4,3.4-0.1,5
		c7.2,8.9,6.2,17.9,0.6,27c-1.5,2.5-1.2,4.5-0.2,7.2c3.7,9.8,5.5,19.8,3.2,30.3c-0.4,1.8-0.1,3.2,1.8,4.7c15.2,12.2,24.6,28.5,29,47
		c4.9,20.8,2.2,41.5-5.9,61.6c-6.1,15.1-16.9,25.4-31.6,31.3c-11.4,4.6-23.5,4.4-35.8,3.2c-7.7-0.8-15.1-1.7-21.9-5.4
		c-12.1-6.6-19.6-17-25.4-29.2c-6.2-12.9-8.8-26.5-8-40.6c1.1-20.6,6.9-39.7,20.1-56c3.2-4,6.4-8,9.9-11.7c1.8-1.9,1.6-4.1,1.1-5.9
		c-2.4-9.7-0.1-19,1.8-28.3c0.4-2.1-0.5-2.9-1.5-4.1c-7-7.9-7.4-17-2.6-25.7c2.9-5.2,1.1-8.2-1.8-12c-3.8-4.9-7.1-10.1-8.7-16.5
		c-1.7-6.8,1.6-13,8-14.7c3-0.8,2.8-1.6,2.1-4.2c-2.3-9.4-4-18.9-4.1-28.7c0-4.2,0.9-8.2,2.1-12.1c1.5-5.1,5.1-6.6,10.3-5
		c6.8,2.1,12.9,5.8,19.1,9.1c3.2,1.7,4.2,0.5,5.5-1.7c3.9-6.5,8.1-12.9,13.6-18.3c3.3-3.3,6.9-5.9,12.2-4.1c2.1,0.7,3.9-1.6,5.5-3
		c2.4-2.2,5-3.9,7.8-5.4c4.3-2.2,6.8-0.8,6.9,4.1c0.3,6.7-0.9,13.3-2.6,19.8c-2.6,9.5-6.3,18.7-10,27.8
		C526.3,301.1,526.4,301.7,526.5,302.5z"/>
	<path class="st0" d="M494.1,359.5c4.3-0.4,8.6-0.1,12.9,1c10.6,4.4,13.5,10.2,8.5,20.7c-3.3,6.9-4.3,12.6-1,19.9
		c4.1,9,3.2,18.8,0.5,28.2c-1.2,4.2-0.5,7.1,2.4,10.1c7.4,7.7,12.9,16.7,17.1,26.5c1,2.4,2.8,5,0.2,7.6c-5.6,2.3-11.7,2.9-17.6,3.8
		c-6.7,1-13.6,1.7-20.4,1.7c-1.9,0-3.9,0.1-5.6-1.1c-1.1-1.3-1.3-2.9-1.2-4.5c0.6-10.2,1.1-20.5,4-30.5c2.7-4.1,7.8-3.1,11-5.2
		c-3.1,0.5-6.6,2.8-10.4,0.5c-3.1-8.7-3.9-17.7-3.2-26.8c0.4-5.6,0.7-11.4,3.3-16.6c3.5-2.5,7.6-2.9,11.2-3
		c-3.7-0.5-8.2,0.4-12.1-2.1c-3.7-9-3.5-18.2-1.5-27.5C492.3,360.9,493,360.1,494.1,359.5z"/>
	<path class="st1" d="M495.1,394.7c-3.5,14.6-3.2,29.1,0,43.7c-1.5,1.7-3.3,1-5,0.6c-3.9-0.9-7.9-1.7-11-2.9
		c4.3,3.4,10.4,4.1,16,6.2c-2.5,11.6-3.8,23.3-3.9,35.1c-5.7,2.4-11.1,0.8-16.6-0.7c-1.6-2-1.2-4.3-1.2-6.5c0.1-5-0.2-10-1.1-15
		c-0.5-2.7-0.9-5.9-4-6.7c-2.9-0.7-4.6,2-6.2,4c-6.5,8.4-11.6,17.6-14.6,27.8c-0.6,2-1.3,4-2.1,6c-0.9,1.6-1.6,3.3-4,2.9
		c4-21,14.7-38.3,29.4-53.4c1.2-1.3,2.9-2,2.1-4.8c-3.7-12.1-2.7-24.2,0.8-36.2c0.9-2.9,0.1-4.4-1.7-6.3c-3.7-4-6.1-8.4-5-14.4
		c2-10.7,9.6-12.9,21.6-14.7c1.7-0.3,3.6,0,5.4,0.1c-3.1,10-2,20,0,30c-3.9,2.4-8.2,2-13.2,1.6c3.8,0.7,6.9,0.4,9.9,1.1
		C492.5,392.6,494.4,392.5,495.1,394.7z"/>
	<path class="st1" d="M535.1,472.8c-2.1-10.7-8.2-19.3-14.5-27.7c-2.2-3-4.9-5.6-7.4-8.4c-0.9-1-1.5-1.9-0.9-3.4
		c5.1-13.8,4.4-27.3-2.5-40.4c-0.9-1.6-0.9-2.8,0.5-4.3c2.4-2.7,3.6-6.1,4.8-9.5c2.8-8.3,1.4-12.2-6.1-16.6
		c-0.8-0.5-1.4-1.3-2.1-1.9c5.8-0.1,10.3,2.3,13,7.6c3.3,6.7,1.2,12.7-3.2,17.8c-2.3,2.7-2.8,4.5-1.2,7.9
		c5.5,11.4,7.7,23.5,3.8,35.9c-1,3,0,4.2,2.1,5.9c16.4,13.2,26.6,30.2,31.2,50.7c0.1,0.6,0,1.3-0.1,1.9c-5-1-9.4-3.3-13.9-5.5
		C537.1,479.5,534,476.9,535.1,472.8z"/>
	<path class="st2" d="M519.5,559.5c-7,4.6-15,4.9-22.8,4.8c-11.3-0.2-22.3-2.3-31.3-9.9c-5.6-4.7-10.4-10.3-13.8-16.8
		c-6.7-12.6-11.2-25.9-11.1-40.3c0-1.8,0-3.6,1-5.2c1.6-0.3,2.3,0.8,2.8,2.1c1.1,13.4,3.9,26.3,10.8,38c5.3,9,10.8,17.7,20.5,22.8
		c1.6,0.8,3.1,1.7,4.9,2.2c5.3,1.5,7.7,0.2,9.5-5.1c0.4-1.1,0.5-2.2,1.6-2.9c3.5-1.4,7.3-1,11-1.3c9.2-0.8,18.1-2.6,26.9-5.3
		c2.5,0.9,1.3,2.7,0.7,3.9C527.4,551.5,524.5,556.4,519.5,559.5z"/>
	<path class="st3" d="M482.5,354.5c-8.5,3.4-8.7,3.6-14.7-4.6c-3.3-4.6-6.1-9.6-8-15.1c-1.1-3.1-1-4.3,2.6-4.8
		c15.7-2.5,30.9-6.7,46.2-10.7c5-1.3,9.9-3.2,14.8-4.9c0.6,2.5-1.1,4-2.5,5.5c-7.8,9-13.8,19.2-19.6,29.6c-0.9,1.6-1.5,3.3-3.4,3.9
		c-1.4,0-2.9,0-4.6,0c2.5-5.9,5.9-11.3,9.2-16.5c3.3-5.2,6-10.8,11.5-15.4c-3.5,0.2-4.7,3.4-7.2,3.7c-8.2,5.7-17.9,7.3-27.2,9.8
		c-9.3,2.4-9.7,3.5-3.4,11C478.5,348.7,481.2,351.1,482.5,354.5z"/>
	<path class="st4" d="M519.5,559.5c3.8-5.4,8.7-10,10.8-16.5c0-0.7,0.2-1.3,0.5-1.8c7.8-13.2,11.5-27.4,10.5-42.7
		c3.5-3.1,7.8-4.8,12.1-6.2c0.3,16.7-3.2,32.8-11.6,47.1C536.9,548.1,530,556.1,519.5,559.5z"/>
	<path class="st5" d="M482.5,354.5c-4.6-3.8-8-8.6-11.3-13.6c-2.3-3.5-0.6-5,2.6-5.8c6.3-1.7,12.7-3.6,19.1-4.9c5-1,9-4.3,14-5
		c-2.5,2.9-4.9,5.9-7.4,8.8c-3.5,4.2-6.8,8.7-7.2,14.2c-0.3,5.2-2.5,7.1-7.4,6.3C484.1,354.4,483.3,354.5,482.5,354.5z"/>
	<path class="st6" d="M527.3,312.5c1.4-1.5,3.2-2.1,5.4-2.8c-0.4,10.4-4.8,19.3-8.9,28.3c-2.2,4.9-5.2,9.3-7.8,14
		c-1.7,3-3.1,4.2-6.4,2.7c-1.4-0.6-3.2-0.3-4.8-0.3c-0.6-2.7,1-4.7,2.3-6.7c6-9.8,11.5-19.9,16.4-30.3
		C524.5,315.5,525.5,313.7,527.3,312.5z"/>
	<path class="st6" d="M508.8,276.3c1.3-3.3,3.3-6,7-8.8c-0.8,6.2,1.1,11.3,0.9,16.6c-0.3,7.4,0.1,14.9,1,22.3
		c0.4,3.7-0.2,6.4-4.8,6.6c-2,0.1-3.8,1.7-6.1,1.3c-1.3-1.3-1.4-2.9-1.3-4.5C506.5,298.6,506.5,287.4,508.8,276.3z"/>
	<path class="st5" d="M508.8,276.3c2.5,3.9,0,7.8-0.1,11.7c-0.3,8.8-1.2,17.5-1.9,26.3c-2.6,1.9-5.9,1.8-8.8,2.9
		c-2.4-3.6-2.5-7.6-2-11.6c0.8-6.4,2.1-12.7,5-18.6C502.6,282.8,505.4,279.4,508.8,276.3z"/>
	<path class="st3" d="M477.6,321.4c-3.7,1.5-5.9,1.7-7.4-3.5c-2.5-8.4-3.8-17-5.3-25.5c-0.6-3.7-0.4-7.6,2.2-10.8
		c0-0.1,0.3,0,0.4,0.1c0.1,0.1,0.2,0.3,0.3,0.4c0.8,1.1,1.2,2.3,1.3,3.6c0.8,8,3.6,15.3,7.7,22.2c0.1,0.6,0.2,1.3,0.2,1.2
		c1.4-3.2,4.6-6.2,6.3-10c0.4-0.9,1.1-2.2,2.5-0.8c0.7,1.4,0.8,2.9,0.2,4.2C483.7,309,481.4,315.5,477.6,321.4z"/>
	<path class="st5" d="M527.3,312.5c-6.7,14.4-14.6,28.1-22.5,41.9c-2.1-1.3-4.6-0.6-6.8-1c6.9-14,15.8-26.7,25.4-39
		C524.5,313.2,525.8,312.6,527.3,312.5z"/>
	<path class="st5" d="M477.6,321.4c0.9-4.8,3-9.1,5.1-13.5c1.6-3.2,2.9-6.5,2.6-10.1c-0.3-0.5-0.2-0.9,0.2-1.2
		c2.3-0.7,3.7,0.3,4.6,2.3c-0.5,3.6-2.3,7.3,1,10.6c3.1,2.3,3.3,5.4,2.1,8.7C488,319.3,482.8,320.3,477.6,321.4z"/>
	<path class="st5" d="M476.4,308.7c-6-7.8-8.5-16.8-8.5-26.5c0.6,0.4,1.2,0.7,1.9,1.1c5.4,4.4,11.6,8.2,13.4,15.7
		C481.9,302.8,479.6,306.1,476.4,308.7z"/>
	<path class="st7" d="M443.4,494.2c-0.7-0.7-1.3-1.4-2-2.1c0-1,0-1.9,0.1-2.9c1.3-0.6,2.2-1.6,2.9-2.9c4-3.2,8.3-5.8,13.8-4.1
		c0.5,5.7-1,11-2.5,16.4C450.6,499.9,446.7,498,443.4,494.2z"/>
	<path class="st7" d="M553.6,492.3c-3.3,2.9-7.2,4.8-11.5,5.8c-2.1-5-4.2-10.1-2.9-15.7c4.7,1.4,9.5,2.7,13.5,5.8
		C553.4,489.5,553.9,490.8,553.6,492.3z"/>
	<path class="st3" d="M493.2,318.2c-0.8-2.9-0.7-6-2.1-8.7c0.9-8.5,5.2-15.5,9.9-22.4c-1,4.7-1.8,9.4-2.9,14
		c-1.4,5.4-0.6,10.8,0,16.1C496.4,317.6,494.8,317.9,493.2,318.2z"/>
	<path class="st6" d="M520.7,291.1c-0.4-5.7,0.3-10.4-1.1-15c-0.9-3,1.5-4.6,3.2-6.5c2.2-2.5,3.8-5.6,7.3-7.6
		C527.8,271.8,525,281,520.7,291.1z"/>
	<path class="st6" d="M482.5,298.9c-2.4-6.8-8.9-10.2-12.8-15.7c7.1,3.2,13.6,7.3,20.1,11.5c2.4,1.5,0,2.8,0.3,4.2
		c-1.5-0.8-2.8-1.9-4.6-1.9C484,296.8,484.1,299.2,482.5,298.9z"/>
	<path d="M539.2,482.4c0.8,5.3,3.2,10.2,2.9,15.7c2.1,10.4,0.2,20.4-3.6,30c-2.1,5.2-3.2,11.2-8.1,15c-7.8,3.9-16.1,5.1-24.6,5.9
		c-4.8,0.4-9.6,1.2-14.4,0.9c-8.5,1.1-16.4-1.4-24.2-4.1c-2-0.7-3.4-2.4-4.5-4.3c-6.2-11.5-9.6-23.7-9.9-36.8c0-2.1-0.1-4.3,2.2-5.5
		c0.5-5.6,1.5-11.2,2.9-16.7c-1.7-7.1,1.1-10.4,8-9.3c3,0.5,6.2,0.5,8.7,2.6c5.4,1.4,11,1.4,16.6,1.8c14.1,0.7,27.8-1.7,41.5-4.5
		c0.8-0.2,1.6-0.1,2.4-0.2C536.5,476,537.8,479.2,539.2,482.4z"/>
	<path d="M495.1,442.3c-7.1,0.5-13-2.2-18.8-7.6c7,0.5,12.6,3.7,18.8,3.6c3.9-0.6,7.9-1.2,12.8-2
		C503.6,439.9,499.3,440.9,495.1,442.3z"/>
	<path d="M495.1,394.7c-4.7-2.2-10.2-0.8-15.2-3.9c5-0.5,9.6-0.9,14.2-1.3c4.3,0.4,8.5,0.8,13.5,1.3
		C503.4,393.5,499.2,394.1,495.1,394.7z"/>
	<path class="st8" d="M474.6,475.6c-3.3-0.4-6.9-0.1-9.9-1.3c-4.4-1.6-5.5,0.1-5.8,3.9c-0.1,1.4-0.7,2.8-1,4.1c-4.9,0-9,2.8-13.5,4
		c3-12.4,8.5-23.7,16-33.9c2-2.8,4.5-6.8,8.3-5.8c4,1.1,4.4,5.6,5.1,9.6C474.9,462.7,474.4,469.2,474.6,475.6z"/>
	<path class="st8" d="M485.3,413.3c0.1,4.2,0.2,8.4-1.1,12.5c-0.9,2.8-2.7,5.6-5.6,5.3c-3.1-0.3-3.6-3.5-4.1-6.3
		c-1.4-8.2-1.4-16.4,1-24.5c0.7-2.3,1.3-5,3.6-5.4c2.7-0.5,3.2,2.7,4.3,4.5C485.9,403.9,485.3,408.6,485.3,413.3z"/>
	<path class="st8" d="M482.4,363.3c2.5,0,4,1.8,2.5,4.6c-3,5.5-3.2,10.5-0.1,16c1.5,2.7-1.5,5.3-5,4.7c-5.4-1-10.4-7.3-10-12.7
		C470.3,368.8,475.3,363.6,482.4,363.3z"/>
	<path class="st4" d="M455,499c-2.4,8,0.2,15.7,1.6,23.4c0.7,3.8,2.5,7.3,3.5,11.1c2.8,10.3,10.6,13.2,20,14.5
		c3.8,0.5,7.7,0.3,11.3,1.8c-0.5,8.9-4.9,11.6-13.2,8.1c-6-2.6-11.3-6.4-15.3-11.6c-9.7-12.9-17.2-26.8-18.6-43.4
		c-0.3-2.9-1-5.7-0.8-8.6C447.3,495.8,451.1,497.4,455,499z"/>
	<path d="M482.5,298.9c1.3-0.2,0.6-3.4,3-2c-0.1,0.3-0.1,0.6-0.1,0.9c-2.4,5.8-6.8,10.3-10.2,16c-0.8-2.4,1.1-3.5,1.3-5.1
		C478.5,305.4,480.5,302.2,482.5,298.9z"/>
	<path class="st9" d="M508.7,481.3c7-1.6,14.2-1.4,21.1-3.5c1.6-0.5,2,1.1,2.7,2.2c3.3,5.4,3.3,11.7,4.5,17.6
		c2.5,12.5,0.1,24.4-5.3,36c-2.5,5.4-6.6,7.5-11.6,9c-2.7,0.8-5.7,0.8-8.5,1.2c-1.3-3.5,1.6-5.7,2.5-8.5c0.5-1.5,2-3.2,0.9-4.5
		c-1.2-1.6-3-0.1-4.4,0.4c-1.6,0.6-3.2,1.3-4.7,0.6c-3.7-1.6-7.3-2.6-11.3-1c-0.9,0.4-2,0.1-2.5-1c-0.3-0.8,0.2-1.6,0.7-2.2
		c2.9-2.7,6.2-5.4,10.4-4c5.3,1.8,9.6-2.1,14.7-1.6c2,0.2,2.3-2.9,1.9-4.8c-0.5-2.5-2.5-1.8-3.9-1.1c-3.5,1.6-6.9,1.7-10.4,0.3
		c-0.6-0.2-1.4-0.5-1.9-0.2c-5.5,2.6-11.2-0.4-16.7,0.4c-3,0.4-5.2-1.7-7.7-2.7c-1.5-0.6-3.1-0.7-4.7-1c-1.6-0.3-3.2-0.9-3.5-2.8
		c-0.3-2.1,1.3-3.1,3-3.8c1.2-0.5,2.5-0.6,3.7-0.3c1.8,0.4,3.2,1.6,4.7,2.5c1.1,0.7,2.4,1.8,3.5,1.5c5.1-1.7,10.1,1.5,15.2,0.1
		c1.4-0.4,3-0.5,4.3,0.1c4.7,2.1,8.5-0.9,12.5-2.4c2.5-0.9,2.4-4-0.3-5.2c-3.9-1.7-7.9-4.1-12.5-2.1c-0.6,0.2-1.3,0.6-1.9,0.5
		c-7.1-2-14.3,1.3-21.4-0.6c-1.9-0.5-3.9-0.1-5.8-0.6c-1.7-0.7-3.3-1.6-3.1-3.7c0.2-1.4,1.4-1.5,2.6-1.6c5.8-1.3,11.8,0.8,17.6-0.9
		c1.3-0.4,2.6-0.4,3.8,0.2c3.1,1.3,6,1.3,8.9-0.4c3.2-1.9,6.3,0.6,9.8,0.4C515.6,488,510.2,485.8,508.7,481.3z"/>
	<path class="st10" d="M478.5,506.8c-1.1,0.1-2.4-0.2-3.3,0.3c-1.3,0.6-3.6,0.8-3.3,2.9c0.3,2.1,2.3,1.7,3.9,1.7
		c1.6,0,3.2-0.1,4.5,1.1c1.8,1.9,2.8,4.3,3.6,6.7c2.1,6.8,5.1,13.2,7.6,19.8c0.6,1.7,2.1,3.4,0.6,5.4c-7.1-0.5-14.3-0.9-21-3.2
		c-3.8-1.3-5.9-5.3-7-9c-2.8-9.7-6-19.5-5.1-29.8c0.6-6.9,1.8-13.8,3.1-20.7c0.4-2.1,1.3-4.7,5-2.8c2.1,1.1,4.9,0.9,7.4,1.3
		c2.1,4.6,3.6,9.4,2,14.5c-0.9,0.2-2.4,0.2-2.6,0.6c-0.6,2.2,1.9,2,2.7,3.2C478.6,501.3,480,503.7,478.5,506.8z"/>
	<path class="st11" d="M492.1,544.8c-3.8-10.7-8.6-21-11.8-32c2.9,1.7,5.6,3.9,9.3,2c1.1-0.5,2.6-0.2,3.7,0.5c2.4,1.6,4.8,1.5,7.3,0
		c1.5-0.9,3.5-1.2,4.7-0.5c4.2,2.6,8,1.1,11.9-0.5c1.4-0.6,3.3-1.3,3.8,0.3c0.8,2.4,0.8,5.1-0.5,7.5c-0.7,1.4-1.8,2.7-3.4,2
		c-3.1-1.4-5.7-0.6-8.1,1.3c-1.2,1-2.2,0.7-3.6,0.3c-5.6-2-8.4-1.1-12.8,4.6c5-3.2,9.4-1.7,14.1,0.6c1.9,0.9,3.8-1.3,5.7-2.1
		c1.3-0.5,2.5-0.8,3.7-0.1c1.6,1,0.6,2.5,0.2,3.5c-1.4,3.9-3.2,7.7-4.9,11.6C505.2,544.9,498.7,545.3,492.1,544.8z"/>
	<path class="st11" d="M476.6,495.1c-0.6-4.9-2.1-9.6-2-14.5c11.3,2,22.7,2.1,34.1,0.7c4,2.7,6.6,6.5,8.9,10.7c1.3,2.4,0.4,3.7-2,3
		c-4.6-1.5-8.9-1.6-13.2,0.9c-1.4,0.8-3.2-0.1-4.6-1c-1.3-0.8-2.8-1.3-4.2-0.5c-2.9,1.8-5.7,2-8.6,0c-1.3-0.9-2.5,0.1-3.6,0.6
		C479.8,495.8,478.2,497,476.6,495.1z"/>
	<path class="st11" d="M478.5,506.8c-0.6-2.6-1.2-5.3-1.8-7.9c2.2-0.6,4.3-0.9,6.5,0.1c2.8,1.4,5.5,0.3,8.4,0.1
		c6.8-0.5,13.6,0,20.4-0.3c2.1-0.1,4.2,1.6,6.4,2.1c2.8,0.6,2.8,2.7,3.1,4.8c0.3,2.4-1.1,3.2-3,3.6c-4.8,0.9-9.2,2.4-14.5,2.3
		c-5.2-0.1-10.7-2.6-16.4-0.2C484.6,512.7,481.2,509.1,478.5,506.8z"/>
	<path class="st9" d="M471,529.2c4-2.4,6.8-3.8,10.2-1.9c1,0.5,2.2,1,2,2.3c-0.3,1.5-1.7,1.7-3,1.7
		C477.2,531.3,475.1,528.8,471,529.2z"/>
</g>
</svg>
