<?xml version="1.0" encoding="utf-8"?>
<!-- Generator: Adobe Illustrator 23.0.1, SVG Export Plug-In . SVG Version: 6.00 Build 0)  -->
<svg version="1.1" id="Layer_4" xmlns="http://www.w3.org/2000/svg" xmlns:xlink="http://www.w3.org/1999/xlink" x="0px" y="0px"
	 viewBox="0 0 1000 1000" style="enable-background:new 0 0 1000 1000;" xml:space="preserve">
<style type="text/css">
	.st0{fill:#FB9A7A;}
	.st1{fill:#6E3720;}
</style>
<g>
	<path class="st0" d="M539.1,476.6c-5.6,3.6-12.1,5.1-18.1,7.5c-21.8,8.5-43.8,16.6-65.8,24.8c-1.7-1.3-2.1-3.2-2.3-5.2
		c-1.1-10.7-5.1-20.5-9.6-30.1c-5.9-12.5-12.4-24.7-18.9-36.9c-9.5-17.9-16.5-36.8-22.3-56.1c-3-10.2-4.4-20.8-3.5-31.3
		c2-21.8,15.3-35.3,34.7-43.2c16.8-6.8,34.2-11.9,52.7-10.5c17,1.4,33.9,3.5,50,10.1c7.9,3.2,14.5,8.1,19.9,14.6
		c5.1,6.2,6.5,13.6,5.8,21.5c-1.7,18.9-6.9,37-12.9,54.9c-1.7,5.1-4.4,9.8-6.8,14.6c-1.5,2.9-1.9,5.7-1,8.9
		c1.3,4.4,2.6,8.7,3.6,13.2c1.7,7.1-1.1,12.6-7.8,15.4c-5.8,2.5-11.8,3.3-18.1,2.2c-7.5-1.4-14.8-3.7-22.2-5.6
		c-7.8-1.9-12.8,0.5-16.5,7.5c1.5,0.6,2.8-0.2,4.1-0.6c6.5-1.9,12.7-1.4,18.9,1.6c6.2,3,13,4.3,19.9,3.7c6.3-0.6,10.3,2.1,12.5,7.7
		C536.8,469,539.9,472.1,539.1,476.6z"/>
	<path class="st1" d="M539.1,476.6c-0.8-1.9-1.8-3.8-2.4-5.7c-2.9-9.6-8.9-13.5-19-12c-5.2,0.8-10.6-1.1-15.2-3.7
		c-7.8-4.3-15.4-2.7-23.1,0c-0.6,0.2-1.2,0.5-1.8,0.7c-0.1,0-0.3-0.1-0.4-0.1c1.1-7.7,10.3-14.6,19-11.9c7.6,2.3,15.3,4.5,23.2,5.9
		c7.4,1.4,14.2-0.1,20.3-3.9c3.7-2.3,5-6.6,3.9-11.1c-1.1-4.7-1.9-9.5-3.7-13.9c-1.6-3.9-0.9-6.8,1-10.2
		c8.3-15.2,12.3-31.9,16.6-48.4c1.8-7.1,2.4-14.5,3.1-21.9c1-11.6-4.5-20.1-13.4-26.8c-11.1-8.4-24.2-11.4-37.5-13.7
		c-9.7-1.7-19.3-2.9-29.2-3.1c-17-0.2-32.6,4.9-48,11.1c-14.4,5.8-25.4,15.7-30.5,31c-3.9,11.7-2.6,23.7,0.1,35.2
		c6,25.9,16.7,50,29.5,73.3c7.8,14.2,15.4,28.6,20.3,44.1c1.8,5.7,2,11.7,3.4,17.4c-3,0.9-3-2-3.8-3.4
		c-7.7-15.1-14.9-30.4-22.8-45.4c-5.6-10.6-11.7-21-16.8-31.9c-8-17-15-34.5-18-53.1c-1.8-11.7-3.7-23.5-0.6-35.7
		c3.2-12.7,11-21.7,20.4-29.3c13.8-11.3,30.7-16.3,47.8-19.5c12.7-2.4,25.8-1.6,38.8,0.4c11.9,1.8,24,2.6,35.3,7.2
		c11.3,4.6,21.5,11.2,28.5,21.6c4.4,6.6,5.6,13.8,4.6,22.1c-1.6,14.9-5.1,29.3-9.1,43.6c-2.6,9.3-6,18.3-10.4,26.9
		c-1.5,3-1,5.4,0.3,8c2.6,5.3,4,11,5,16.7c1.2,7.1-0.9,13.7-8.8,17.3c-7.4,3.4-7.6,3.7-5.4,11.1
		C541.5,469.4,540.9,472.9,539.1,476.6z"/>
</g>
</svg>
