<?xml version="1.0" encoding="utf-8"?>
<!-- Generator: Adobe Illustrator 23.0.1, SVG Export Plug-In . SVG Version: 6.00 Build 0)  -->
<svg version="1.1" id="Layer_4" xmlns="http://www.w3.org/2000/svg" xmlns:xlink="http://www.w3.org/1999/xlink" x="0px" y="0px"
	 viewBox="0 0 1000 1000" style="enable-background:new 0 0 1000 1000;" xml:space="preserve">
<style type="text/css">
	.st0{fill:#FB9A7A;}
	.st1{fill:#6E3720;}
</style>
<g>
	<path class="st0" d="M539.1,476.6c-5.6,3.6-12.1,5.1-18.1,7.5c-21.8,8.5-43.8,16.6-65.8,24.8c-1.7-1.3-2.1-3.2-2.3-5.2
		c-1.1-10.7-5.2-20.5-9.6-30.1c-7.1-15.3-15.7-30-23-45.2c-9.2-19.1-17-38.8-20.6-59.8c-2.5-14.3-2.2-28.5,6.4-41.3
		c6.7-10,16-16.7,26.9-21c17.2-6.8,34.8-12.2,53.6-10.6c16.9,1.4,33.6,3.5,49.5,10.1c7.9,3.3,14.5,8.1,19.8,14.6
		c5.1,6.2,6.4,13.6,5.7,21.6c-1.7,18.8-6.9,36.7-12.8,54.5c-1.7,5.1-4.3,9.8-6.8,14.6c-1.7,3.2-2.1,6.3-0.8,9.8
		c1.8,5.1,2.9,10.3,3.6,15.7c0.9,6.2-0.9,9.3-6.5,12.1c-8.8,4.4-17.4,2.7-26-0.7c-3-1.2-5.9-2.8-8.7-4.4c-7.2-4.2-13.2-1.8-16.1,6.6
		c1.2,0.6,2.2-0.2,3.2-0.6c4.6-2,8.7-1.4,12.9,1.4c6.8,4.5,14.7,6.1,22.7,6.8c3.5,0.3,6,1.7,7.4,4.7
		C535.8,466.9,539.7,470.9,539.1,476.6z"/>
	<path class="st1" d="M539.1,476.6c-1.6-4.9-4.6-9.2-6.6-13.9c-2.4-5.9-7.9-3.5-11.8-4.3c-6.1-1.2-12.2-2.3-17-6
		c-5.3-4-10.1-2.7-15.3-0.7c-1.1,0.4-2.2,1-4,1.8c1.5-6.9,5.2-11,10.9-13.6c2.7-1.2,5.1,0.1,7.3,1.5c6.3,4.1,13,6.6,20.3,8.2
		c6.9,1.5,12.6-1,18.2-4.2c2.5-1.5,3.3-4.5,2.7-7.3c-1.3-6.2-2.1-12.6-4.5-18.6c-0.9-2.2-1-4.3,0.3-6.7
		c8.9-15.6,13.2-32.9,17.6-50.1c1.9-7.4,2.6-15.2,3.2-22.8c1.1-14.1-7.2-22.8-18.2-29.5c-12-7.3-25.7-9.4-39.3-11.5
		c-8.1-1.3-16.3-2.3-24.5-1.9c-19.2,0.8-37.1,6.2-54,15.3c-15.3,8.3-23.7,21.5-24.6,38.3c-0.7,13.6,2.6,26.9,6.8,40.1
		c8.5,27.4,22.9,51.9,35.5,77.3c4.9,9.9,9.4,20,11.5,31c0.6,3.3,1.1,6.6,1.7,9.9c-3,0.9-3-2-3.8-3.4c-7.7-15.1-14.9-30.5-22.9-45.5
		c-5.8-10.9-12.1-21.6-17.3-32.8c-7.7-16.8-14.7-34-17.5-52.3c-1.8-11.7-3.7-23.5-0.6-35.7c3.3-12.8,11.2-21.7,20.9-29.5
		c13.6-11.1,30.2-15.9,46.9-19.2c12.7-2.5,25.8-1.9,38.9,0.3c10,1.7,20.2,2.3,30,5.2c13.9,4.3,25.8,11.8,34.2,23.7
		c4.5,6.3,5.3,13.6,4.5,21.7c-2,20.1-7.2,39.2-13.9,58c-1.5,4.3-3.2,8.6-5.4,12.6c-1.7,2.9-1.1,5.4,0,8c2.6,5.8,4.3,11.8,5.4,18.1
		c1.7,9.7-0.2,13.2-9.5,17.3c-6.5,2.9-6.9,3.1-4.9,9.9C541.5,469.4,540.9,472.9,539.1,476.6z"/>
</g>
</svg>
