<?xml version="1.0" encoding="utf-8"?>
<!-- Generator: Adobe Illustrator 23.0.1, SVG Export Plug-In . SVG Version: 6.00 Build 0)  -->
<svg version="1.1" id="Layer_4" xmlns="http://www.w3.org/2000/svg" xmlns:xlink="http://www.w3.org/1999/xlink" x="0px" y="0px"
	 viewBox="0 0 1000 1000" style="enable-background:new 0 0 1000 1000;" xml:space="preserve">
<style type="text/css">
	.st0{fill:#FB9A7A;}
	.st1{fill:#6E3720;}
</style>
<g>
	<path class="st0" d="M539.1,476.6c-5.6,3.6-12.1,5.1-18.1,7.5c-21.8,8.5-43.8,16.6-65.8,24.8c-1.7-1.3-2.1-3.2-2.3-5.2
		c-1.1-10.7-5.1-20.5-9.6-30.1c-5.7-12.1-11.9-23.9-18.2-35.6c-9.8-18.1-17-37.3-22.9-57c-3.1-10.4-4.5-21.1-3.5-31.8
		c2-21.6,15.1-35.1,34.4-42.9c17-6.9,34.5-12.1,53.2-10.6c16.9,1.4,33.6,3.5,49.5,10c7.9,3.2,14.5,8,20,14.5
		c5.2,6.2,6.7,13.6,6,21.5c-1.7,19.3-7.1,37.7-13.2,55.9c-1.6,4.8-4.1,9.2-6.4,13.7c-1.5,2.9-2,5.7-0.8,8.9c0.8,2.3,1.3,4.7,1.8,7.1
		c2.4,9.6-0.9,16.9-10,21.1c-5.8,2.7-12.1,3.8-18.6,2.8c-9.3-1.5-18.5-3.8-27.9-4.9c-10.2-1.2-19,1.4-25.9,10.8
		c5.5-1.4,10.2-2.4,14.7-3.7c4.7-1.4,9.3-1.4,13.9-0.2c7.6,2,15.3,2.9,23,4.2c4.4,0.7,8.8,0.7,13.1-0.1c3.1-0.5,5.5,0.3,7,3.1
		C535.1,465.5,539.4,470.1,539.1,476.6z"/>
	<path class="st1" d="M539.1,476.6c-2.2-6.1-5.5-11.6-8.6-17.2c-0.9-1.6-2.1-1.6-3.2-1.3c-11.7,2.8-23.1-0.3-34.2-3.2
		c-10.4-2.8-19.5,0.3-29.1,2.6c-1.8,0.4-3.6,0.9-5.6,1.4c4.8-11.8,17.9-15.7,28.1-14.3c10,1.4,19.7,4.4,29.7,5.4
		c9,0.9,17.8-1.1,23.8-9c2.4-3.1,3.9-6.4,2.4-10.7c-1.5-4.2-1.6-8.8-3.7-12.9c-0.9-1.8,0.1-2.8,0.8-4c8.9-15.8,13.3-33.3,17.8-50.6
		c1.9-7.4,2.6-15.2,3.2-22.8c1.1-14.1-7.1-22.9-18.1-29.5c-12-7.3-25.7-9.4-39.3-11.6c-8.1-1.3-16.3-2.3-24.5-1.9
		c-19.2,0.8-37.1,6.1-54.1,15.3c-15.3,8.3-23.7,21.5-24.7,38.3c-0.8,13.6,2.6,26.9,6.7,40.1c8.5,27.4,22.9,51.9,35.5,77.4
		c4.9,9.9,9.4,20,11.5,31c0.7,3.3,1.1,6.6,1.7,9.9c-3,0.9-3-2-3.8-3.4c-7.7-15.1-14.9-30.5-22.8-45.5c-5.9-11.2-12.3-22.2-17.6-33.7
		c-7.6-16.5-14.4-33.5-17.2-51.5c-1.8-11.7-3.7-23.5-0.5-35.7c3.3-12.7,11.3-21.6,20.9-29.5c13.7-11.1,30.3-15.9,46.9-19.2
		c12.7-2.5,25.8-1.7,38.9,0.3c11.9,1.9,24,2.6,35.3,7.2c11.4,4.6,21.5,11.2,28.6,21.5c4.5,6.6,5.5,13.8,4.7,22.1
		c-1.9,20.2-7.5,39.5-14,58.5c-1.6,4.8-4.3,9.2-6.7,13.7c-1.1,2-1.1,3.8,0,5.8c1.2,2,2.3,4.2,3.3,6.3c4.4,10.1,3.3,14.8-6.4,23.3
		c-6,5.3-6.1,10.2-4.5,16.2C541.4,469.4,540.9,472.9,539.1,476.6z"/>
</g>
</svg>
