<?xml version="1.0" encoding="utf-8"?>
<!-- Generator: Adobe Illustrator 23.0.1, SVG Export Plug-In . SVG Version: 6.00 Build 0)  -->
<svg version="1.1" id="Layer_4" xmlns="http://www.w3.org/2000/svg" xmlns:xlink="http://www.w3.org/1999/xlink" x="0px" y="0px"
	 viewBox="0 0 1000 1000" style="enable-background:new 0 0 1000 1000;" xml:space="preserve">
<style type="text/css">
	.st0{fill:#FB9A7A;}
	.st1{fill:#6E3720;}
</style>
<g>
	<path class="st0" d="M539.1,476.6c-5.6,3.6-12.1,5.1-18.1,7.5c-21.8,8.5-43.8,16.6-65.8,24.8c-1.7-1.3-2.2-3.2-2.3-5.2
		c-0.8-9.6-4.3-18.4-8.2-27c-4.9-10.8-10.3-21.4-16.1-31.8c-11.5-20.7-20.4-42.5-26.9-65.3c-2.8-9.9-4.1-20.2-3.2-30.4
		c2-21.8,15.3-35.4,34.7-43.2c16.8-6.8,34.2-12,52.7-10.5c17,1.4,34,3.4,50,10.1c7.7,3.2,14.2,7.9,19.6,14.2
		c5.4,6.3,6.8,13.8,6.1,21.9c-1.7,18.9-6.9,37-12.9,54.9c-1.1,3.3-2.4,6.5-4.2,9.3c-4.2,6.5-5.3,13.1-2.2,20.3
		c0.6,1.5,0.8,3.2,1.2,4.7c1.6,5.5-0.3,9.9-4.6,13.4c-8.1,6.7-17.5,8.2-27.6,6.5c-8.3-1.4-16.5-3.9-24.9-4.9c-8.9-1-16.7,1.2-23,9.7
		c6-1,10.8-2.6,15.8-3.4c2.9-0.4,5.8-0.5,8.7,0.2c8.5,2.1,17.2,3.5,25.9,4.7c3.3,0.5,6.5,0.2,9.7-0.4c4.3-0.8,7.7,0.3,9.7,4.5
		C535.5,466.4,539.5,470.6,539.1,476.6z"/>
	<path class="st1" d="M539.1,476.6c-2.2-6.1-5.5-11.6-8.7-17.2c-1.4-2.4-3.6-1.7-5.2-1.3c-10,2.6-19.7,0-29-2.5
		c-11.5-3-22-1.8-32.8,2.1c-0.6,0.2-1.2,0.2-1.9,0.3c1.1-9.6,16.2-14.9,25.7-13.3c10.4,1.8,20.5,5.4,31.2,5.6
		c7.9,0.1,14.9-2.5,20.7-7.7c2.8-2.6,4.9-5.9,3.1-10.4c-1.1-2.7-1.4-5.6-2.2-8.3c-1.8-5.6-0.9-10.4,1.7-15.8
		c8.7-17.8,14.5-36.5,16.8-56.3c0.7-6.2,2.8-12.3,1.5-18.6c-2.8-14.1-13.2-21.2-25.2-26.4c-12.9-5.6-26.8-7-40.6-9
		c-23.4-3.4-45,2.5-65.9,12c-14.3,6.5-24,17.5-27.7,33.2c-2.5,10.4-1.2,20.9,1.2,31c6.1,25.9,16.7,50,29.5,73.4
		c7.8,14.2,15.4,28.6,20.3,44.1c1.8,5.7,2,11.7,3.4,17.4c-3,0.9-3-2-3.8-3.4c-7.7-15.1-14.9-30.5-22.8-45.5
		c-5.6-10.6-11.7-21-16.8-31.9c-8-17-15-34.5-18-53.1c-1.8-11.7-3.7-23.5-0.6-35.7c3.3-12.8,11.2-21.7,20.8-29.6
		c13.6-11.1,30.2-16,46.9-19.2c12.7-2.5,25.8-1.9,38.8,0.3c10,1.7,20.2,2.3,30,5.2c13.9,4.2,25.8,11.7,34.3,23.7
		c4.6,6.4,5.5,13.8,4.6,22.1c-1.6,14.9-5.1,29.3-9.2,43.6c-2.8,9.7-6.2,19.3-11.4,28c-1.3,2.1-1.4,4-0.1,6.2
		c1.3,2.2,2.6,4.4,3.5,6.8c3.8,9.7,3,15.9-6.6,22.9c-6.7,4.9-6.2,10.1-4.6,16.1C541.4,469.4,540.9,472.9,539.1,476.6z"/>
</g>
</svg>
