<?xml version="1.0" encoding="utf-8"?>
<!-- Generator: Adobe Illustrator 23.0.1, SVG Export Plug-In . SVG Version: 6.00 Build 0)  -->
<svg version="1.1" id="Layer_4" xmlns="http://www.w3.org/2000/svg" xmlns:xlink="http://www.w3.org/1999/xlink" x="0px" y="0px"
	 viewBox="0 0 1000 1000" style="enable-background:new 0 0 1000 1000;" xml:space="preserve">
<style type="text/css">
	.st0{fill:#FB9A7A;}
	.st1{fill:#6E3720;}
</style>
<g>
	<path class="st0" d="M539.1,476.6c-5.6,3.6-12.1,5.1-18.1,7.5c-21.8,8.5-43.8,16.6-65.8,24.8c-1.7-1.3-2.1-3.2-2.3-5.2
		c-1.1-10.7-5.2-20.5-9.6-30.1c-6-12.8-12.7-25.3-19.4-37.8c-9.3-17.6-16.2-36.3-21.9-55.3c-3-10.2-4.4-20.8-3.4-31.3
		c2-21.6,15.1-35.1,34.4-42.9c17-6.9,34.5-12.1,53.2-10.6c17,1.4,34,3.5,50,10.2c7.7,3.2,14.2,8,19.5,14.3c5.2,6.2,6.7,13.6,6,21.5
		c-1.7,19.3-7.1,37.7-13.2,55.9c-1.5,4.5-3.8,8.7-6,12.8c-2,3.7-2.6,7.1-1,11.2c1.4,3.6,2.1,7.5,3,11.3c1.5,6.3-0.1,10.2-5.7,13.6
		c-7.2,4.4-15,6-23.4,4.9c-7-1-13.7-2.7-20.4-5c-8.8-3-16-0.1-21,8.4c1.4,0.3,2.5-0.6,3.6-1.1c6.9-2.9,13.8-3,20.9-0.3
		c8.9,3.4,18.3,4.8,27.8,4.3c3.4-0.2,5.6,1,7,3.9C535.5,466.4,539.5,470.6,539.1,476.6z"/>
	<path class="st1" d="M539.1,476.6c-2.1-5.9-5.2-11.4-8.5-16.7c-0.4-0.6-0.4-1.3-1.7-1.2c-12.4,1.4-24.2-1.7-35.9-5.5
		c-7.8-2.6-14.3,1.4-21.2,4.2c-0.9-3.7,1.7-5.8,4-8c5.5-5.3,11.6-7.7,19.3-4.7c8.7,3.4,17.8,5.7,27.2,5.4c6.9-0.3,13.3-2.4,18.5-7.1
		c2.7-2.5,3.9-5.2,2.4-9.1c-1.2-3.1-0.9-6.9-2.4-9.7c-3.5-6.6-0.7-11.8,1.9-17.8c7.7-17.4,13.8-35.4,15.9-54.6
		c0.8-7.3,3.2-14.5,0.7-21.9c-4-12-13.5-18.4-24.4-23.1c-12.9-5.6-26.8-7-40.6-9c-23.4-3.5-45,2.5-65.9,12
		c-14.3,6.5-24,17.5-27.8,33.2c-2.5,10.4-1.2,20.9,1.2,31c6.1,25.9,16.7,50,29.5,73.4c7.8,14.2,15.4,28.6,20.3,44.1
		c1.8,5.7,2,11.7,3.4,17.4c-3,0.9-3-2-3.8-3.4c-7.7-15.1-14.9-30.5-22.8-45.4c-5.8-10.9-12.1-21.6-17.2-32.8
		c-7.7-16.8-14.7-34-17.5-52.3c-1.8-11.7-3.7-23.5-0.6-35.7c3.2-12.7,11-21.7,20.4-29.3c13.8-11.3,30.7-16.3,47.8-19.5
		c12.7-2.4,25.8-1.6,38.8,0.4c11.9,1.8,24,2.6,35.3,7.2c11.3,4.6,21.5,11.2,28.5,21.6c4.4,6.6,5.6,13.8,4.6,22.1
		c-1.6,14.9-5.1,29.3-9.1,43.6c-2.6,9.3-6,18.3-10.4,26.9c-1.4,2.8-1.1,5.2,0.1,7.6c2.6,5.3,3.9,11,5.4,16.6
		c1.2,4.6-3.5,12.7-8.9,15.8c-1.4,0.8-2.6,2-4,2.6c-2.7,1.1-2.7,2.7-2.1,5.3C540.7,465.5,542.5,471.1,539.1,476.6z"/>
</g>
</svg>
