<?xml version="1.0" encoding="utf-8"?>
<!-- Generator: Adobe Illustrator 23.0.1, SVG Export Plug-In . SVG Version: 6.00 Build 0)  -->
<svg version="1.1" id="Layer_4" xmlns="http://www.w3.org/2000/svg" xmlns:xlink="http://www.w3.org/1999/xlink" x="0px" y="0px"
	 viewBox="0 0 1000 1000" style="enable-background:new 0 0 1000 1000;" xml:space="preserve">
<style type="text/css">
	.st0{fill:#FB9A7A;}
	.st1{fill:#6E3720;}
</style>
<g>
	<path class="st0" d="M539.1,476.6c-5.6,3.6-12.1,5.1-18.1,7.5c-21.8,8.5-43.8,16.6-65.8,24.8c-1.7-1.3-2.1-3.2-2.3-5.2
		c-1.1-10.7-5.2-20.5-9.6-30.1c-5.9-12.7-12.5-25-19.1-37.4c-9.5-17.8-16.3-36.5-22.1-55.7c-3-10.2-4.4-20.8-3.4-31.3
		c2-21.6,15.1-35.1,34.4-42.9c17-6.9,34.5-12.1,53.2-10.6c17,1.4,34,3.5,50,10.2c7.7,3.2,14.2,8,19.5,14.3c5.2,6.2,6.7,13.6,6,21.5
		c-1.7,19.3-7,37.7-13.2,55.9c-1.7,5-4.3,9.5-6.7,14.1c-1.5,2.9-1.8,5.8-0.7,8.9c1.9,5.4,3,11,3.8,16.6c1,7.1-1.4,10.8-8.2,12.7
		c-11,3-21.6,2-31.8-2.9c-5.9-2.9-11.9-4.9-17.7,0.4c-1.4,1.3-3,2.5-3.1,4.6c0.2,0.4,0.5,0.6,0.9,0.5c7.6-3.3,14.8-2.3,21.9,1.8
		c4.9,2.9,10.6,3.4,16.1,3.5C533.4,457.9,537.1,465.5,539.1,476.6z"/>
	<path class="st1" d="M539.1,476.6c-1.5-4.8-4.2-9-6.4-13.5c-1-1.9-2.5-2.9-5.2-3.3c-8.5-1.3-17.3-1.3-24.9-6.2
		c-5.7-3.7-11.6-2.2-17.5,0.2c-1,0.4-2.2,2.1-3.4,0.7c-1-1.2,0.2-2.5,0.8-3.5c4.5-8,11.3-11.1,20.7-6.2c7.2,3.7,14.7,5.4,22.6,5.6
		c4.4,0.1,8.6-1.3,12.7-2.3c4-1,6.1-5.1,5.2-9.7c-1.3-6.3-2.1-12.6-4.5-18.6c-1-2.5-0.9-4.6,0.5-7.2c8.8-15.5,13-32.7,17.4-49.7
		c1.9-7.4,2.6-15.2,3.2-22.8c1.1-14.1-7.2-22.8-18.2-29.5c-12-7.3-25.7-9.4-39.3-11.5c-8.1-1.3-16.3-2.3-24.5-1.9
		c-19.2,0.8-37.1,6.1-54,15.3c-15.3,8.3-23.7,21.5-24.7,38.3c-0.7,13.6,2.6,26.9,6.7,40.1c8.6,27.4,22.9,51.9,35.5,77.3
		c4.9,9.9,9.4,20,11.5,31c0.6,3.3,1.1,6.6,1.7,9.9c-3,0.9-3-2-3.8-3.4c-7.7-15.1-14.9-30.5-22.8-45.4c-5.8-10.9-12.1-21.6-17.2-32.8
		c-7.7-16.8-14.7-34-17.5-52.3c-1.8-11.7-3.7-23.5-0.6-35.7c3.2-12.7,11-21.7,20.4-29.3c13.8-11.3,30.7-16.3,47.8-19.5
		c12.7-2.4,25.8-1.6,38.8,0.4c11.9,1.8,24,2.6,35.3,7.2c11.3,4.6,21.5,11.2,28.5,21.6c4.4,6.6,5.6,13.8,4.6,22.1
		c-1.6,14.9-5.1,29.3-9.1,43.6c-2.7,9.6-6.5,18.8-10.7,27.8c-0.8,1.7-0.8,3-0.1,4.9c2.7,6.9,4.6,14,6.5,21.2
		c2.1,8.2-2.1,12.9-8.1,15.8c-2.5,1.2-7.1,1.3-7.5,3.4c-0.5,2.2,0.4,5.5,1.3,8.3C541.7,469.9,540.9,473.4,539.1,476.6z"/>
</g>
</svg>
