<?xml version="1.0" encoding="utf-8"?>
<!-- Generator: Adobe Illustrator 23.0.1, SVG Export Plug-In . SVG Version: 6.00 Build 0)  -->
<svg version="1.1" id="Layer_4" xmlns="http://www.w3.org/2000/svg" xmlns:xlink="http://www.w3.org/1999/xlink" x="0px" y="0px"
	 viewBox="0 0 1000 1000" style="enable-background:new 0 0 1000 1000;" xml:space="preserve">
<style type="text/css">
	.st0{fill:#FB9A7A;}
	.st1{fill:#6E3720;}
</style>
<g>
	<path class="st0" d="M539.1,476.6c-5.6,3.6-12.1,5.1-18.1,7.5c-21.8,8.5-43.8,16.6-65.8,24.8c-1.7-1.3-2.1-3.2-2.3-5.2
		c-1.1-10.7-5.1-20.5-9.6-30.1c-5.9-12.5-12.4-24.7-18.9-36.9c-9.6-17.9-16.5-36.8-22.3-56.1c-3-10.2-4.4-20.8-3.5-31.3
		c2-21.8,15.3-35.3,34.7-43.2c16.8-6.8,34.2-11.9,52.7-10.5c17.2,1.4,34.3,3.5,50.4,10.3c7.7,3.2,14.2,8,19.4,14.4
		c5.1,6.2,6.5,13.6,5.8,21.6c-1.7,18.9-7,37-12.9,54.9c-1.8,5.3-4.5,10.1-7,15c-1.4,2.8-1.7,5.5-0.7,8.4c1.3,3.5,2.2,7.2,2.9,10.8
		c1.3,6.9-0.8,11.7-6.9,15.2c-7.7,4.4-16,6.1-24.9,4.7c-7.3-1.1-14.3-3.2-21.3-5.1c-8.6-2.3-16.6,1.3-21.2,9.4
		c1.5,0.2,2.8-0.6,4.2-1c8.3-2.6,16.4-2.7,24.8,0.2c8.2,2.9,16.8,5.3,25.8,3.2c4.9-1.1,8.1,1,10,5.5
		C536,467.6,539.8,471.2,539.1,476.6z"/>
	<path class="st1" d="M539.1,476.6c-2.1-5.9-5-11.5-8.5-16.7c-1.9-2.8-5.3-1.2-7.4-0.7c-8.5,2.1-16.4-0.4-23.9-3.2
		c-11.4-4.2-22-2.3-32.7,2.1c3.2-10.7,14.7-16.7,25.5-13.3c7.2,2.3,14.5,4.3,21.9,5.2c9.4,1.1,18.3-1.3,25.8-7.1
		c3.5-2.8,3.8-7.3,3-11.6c-0.5-2.5-0.7-5.3-1.9-7.4c-3.5-6.2-0.9-11.2,1.7-16.9c8.1-17.5,13.8-35.8,16.2-55
		c0.9-7.3,3.2-14.5,0.8-21.9c-3.9-12.1-13.5-18.5-24.4-23.2c-12.9-5.6-26.8-7-40.6-9c-23.4-3.4-45,2.5-65.9,12
		c-14.3,6.5-24,17.5-27.8,33.2c-2.5,10.4-1.2,21,1.2,31c6.1,25.9,16.7,50.1,29.5,73.4c7.8,14.2,15.4,28.6,20.4,44.2
		c1.8,5.7,2,11.7,3.4,17.4c-3,0.9-3-2-3.8-3.4c-7.7-15.1-14.9-30.5-22.8-45.5c-5.7-10.8-11.9-21.3-17-32.4
		c-7.9-16.9-14.9-34.3-17.7-52.7c-1.8-11.7-3.7-23.5-0.6-35.7c3.3-12.8,11.2-21.7,20.9-29.5c13.6-11.1,30.2-15.9,46.9-19.2
		c12.7-2.5,25.8-1.9,38.9,0.3c10,1.7,20.2,2.2,30,5.2c13.9,4.3,25.8,11.8,34.2,23.7c4.5,6.3,5.3,13.6,4.5,21.7
		c-2,20.1-7.2,39.2-13.9,58c-1.5,4.3-3.3,8.6-5.4,12.6c-1.3,2.5-1.5,4.8-0.4,7.1c2.1,4.3,3.1,8.9,4,13.6c1.4,8.1-0.5,13.7-7,18
		c-7.8,5.3-8.1,5.4-5.6,14.6C541.5,469.4,540.9,472.9,539.1,476.6z"/>
</g>
</svg>
