<?xml version="1.0" encoding="utf-8"?>
<!-- Generator: Adobe Illustrator 23.0.1, SVG Export Plug-In . SVG Version: 6.00 Build 0)  -->
<svg version="1.1" id="Layer_4" xmlns="http://www.w3.org/2000/svg" xmlns:xlink="http://www.w3.org/1999/xlink" x="0px" y="0px"
	 viewBox="0 0 1000 1000" style="enable-background:new 0 0 1000 1000;" xml:space="preserve">
<style type="text/css">
	.st0{fill:#7F7F7F;}
</style>
<g>
	<path d="M518.5,212.2c-0.5-2.5,0.4-5.4,1.4-7.9c3.8-9.2,9.7-11.1,19.3-4c10.5,7.7,14.7,19.4,16.4,32c0.9,7-3.4,11-12.5,12.7
		c-8.3,1.5-16.1-2.7-20-11.2C520.4,227.6,518.8,217.8,518.5,212.2z"/>
	<path d="M590.8,225.4c0,15.2-12.5,25.8-25,23.6c-4.3-0.8-7-4.6-6.2-10.3c1.2-8.4,2.6-16.8,6.9-24.3c2.1-3.7,4.4-7.2,9.2-7.4
		c5-0.1,8.5,2.7,11,6.5C589.5,217.9,590.8,222.8,590.8,225.4z"/>
	<path class="st0" d="M537.9,206.5c4.3,0.6,5.3,4,7.1,6.6c2.7,3.8,4.7,7.9,6.2,12.3c0.8,2.3,1.2,4.5-0.9,6.1
		c-1.6,1.3-3.8,2.4-5.7,1.6c-2.3-0.9-3.6-3.3-3.5-5.9C541.3,220.3,539.8,213.6,537.9,206.5z"/>
	<path class="st0" d="M580.2,214.1c7.9,7.7,9.3,15.3,1.8,22.7c-1,1-1.6,3.2-3.8,2c-2.2-1.3-2.5-3.4-1.9-5.5c0.7-2.4,2.2-4.5,2.9-7.1
		C580.2,222.3,579.9,218.5,580.2,214.1z"/>
</g>
</svg>
