<?xml version="1.0" encoding="utf-8"?>
<!-- Generator: Adobe Illustrator 23.0.1, SVG Export Plug-In . SVG Version: 6.00 Build 0)  -->
<svg version="1.1" id="Layer_4" xmlns="http://www.w3.org/2000/svg" xmlns:xlink="http://www.w3.org/1999/xlink" x="0px" y="0px"
	 viewBox="0 0 1000 1000" style="enable-background:new 0 0 1000 1000;" xml:space="preserve">
<style type="text/css">
	.st0{fill:#7F7F7F;}
</style>
<g>
	<path d="M517.1,242.2c-5.6-0.4-11.4-3.7-15.4-11.2c-3.9-7.4-6-15.2-6.5-23.4c-0.4-5.4,0.8-10.3,6.1-13.4c5.9-3.4,10.8-0.6,15.7,2
		c5.9,3.2,8.8,8.9,12.1,14.3c2.7,4.4,4.2,9.4,5.7,14.3C537.5,233.8,530.1,242.2,517.1,242.2z"/>
	<path d="M569.3,222.1c-0.9,15.4-6.4,20.5-20.5,22.9c-8.2,1.4-12.2-4-10.9-12.4c1.2-7.9,2.4-15.8,6.1-23c0.5-1,1-2,1.7-2.8
		c6.9-8.4,12.1-7.1,19.3,1.6C568,212.1,569.6,217,569.3,222.1z"/>
	<path class="st0" d="M514.9,203c8.3,3.1,11.9,9.6,14.3,17c1,3.2,2.6,7.1-2.8,8.4c-3.2,0.7-6.7-2.1-7.7-6.4
		C517.4,215.9,516.2,209.7,514.9,203z"/>
	<path class="st0" d="M556.4,208.2c8.9,7.1,10.6,14.9,6.2,22.8c-1.3,2.4-3.2,4-5.7,2.9c-2.8-1.3-3-4-1.6-6.6
		C558.5,221.6,559.6,215.7,556.4,208.2z"/>
</g>
</svg>
