<?xml version="1.0" encoding="utf-8"?>
<!-- Generator: Adobe Illustrator 23.0.1, SVG Export Plug-In . SVG Version: 6.00 Build 0)  -->
<svg version="1.1" id="Layer_4" xmlns="http://www.w3.org/2000/svg" xmlns:xlink="http://www.w3.org/1999/xlink" x="0px" y="0px"
	 viewBox="0 0 1000 1000" style="enable-background:new 0 0 1000 1000;" xml:space="preserve">
<style type="text/css">
	.st0{fill:#7F7F7F;}
</style>
<g>
	<path d="M610.3,282.9c0.6,4,0.1,8.6-1.3,12.7c-3.5,10.1-13.7,10.9-22,6.6c-7.3-3.7-8.8-10.9-9.7-17.9c-0.8-6.8-0.3-13.8,1.9-20.4
		c1.7-5.1,4.8-9.3,10.3-11c4.7-1.5,9.7-0.1,12.6,3.9C607.4,264.2,611,270.8,610.3,282.9z"/>
	<path d="M644.5,294.8c0.2,14.7-12.9,26.3-25.5,21.7c-1.3-0.5-3,0.1-4.3-0.3c-5.9-1.8-8.2-5.3-6.2-11.4c3.6-11,10.8-19.4,20.7-25
		c6.1-3.5,12.4-0.1,14.1,7C643.9,289.4,645.1,292.2,644.5,294.8z"/>
	<path class="st0" d="M600.1,265.3c4.9,7.5,7.9,15.3,5.5,24.5c-1,3.7-3.5,4.7-6.4,3.8c-3.2-1-5.3-3.1-3.7-7.3
		C598,279.6,599.9,272.7,600.1,265.3z"/>
	<path class="st0" d="M637.2,287.5c5.8,7.6,2,20.4-6.7,22.8c-1.9,0.5-4.1,1.1-5.2-1.1c-1.1-2.1-0.1-4.6,1.6-5.6
		C633.2,299.9,634.6,293.3,637.2,287.5z"/>
</g>
</svg>
