<?xml version="1.0" encoding="utf-8"?>
<!-- Generator: Adobe Illustrator 23.0.1, SVG Export Plug-In . SVG Version: 6.00 Build 0)  -->
<svg version="1.1" id="Layer_4" xmlns="http://www.w3.org/2000/svg" xmlns:xlink="http://www.w3.org/1999/xlink" x="0px" y="0px"
	 viewBox="0 0 1000 1000" style="enable-background:new 0 0 1000 1000;" xml:space="preserve">
<style type="text/css">
	.st0{fill:#808080;}
	.st1{fill:#7F7F7F;}
</style>
<g>
	<path d="M448.7,210c-7.4-0.8-14.4-5.6-19.8-12.4c-2.9-3.7-6.3-7-7.3-12.4c-1.8-9.7,5.5-17.4,15.2-15.2c9.5,2.2,18,6.3,25.4,12.6
		c4.9,4.1,9,11.5,7.1,15.6C466.3,204.9,460.6,209.9,448.7,210z"/>
	<path d="M503.9,186.3c0,11.3-8.4,20.6-19.5,21.7c-5.2,0.5-9.4-2.5-10.7-11.4c-0.9-6.5,6.5-19.7,12.4-22.7c9.4-4.9,16.6-1.3,17.8,10
		C504,184.7,503.9,185.5,503.9,186.3z"/>
	<path class="st0" d="M436.8,176.3c9.2,1.3,17.8,3.8,24.2,10.9c1.9,2,4.2,4.4,2.2,7.1c-2.2,3.1-5.3,1.9-8,0.1
		c-0.7-0.4-1.4-0.8-1.9-1.4C447.8,187.4,443.3,180.9,436.8,176.3z"/>
	<path class="st1" d="M488.8,176.2c3.6-1.8,6.9-2.5,9.7,1.4c2.7,3.7,3.4,11.3,1.3,14.2c-1.4,1.9-2.8,1.9-4.4,0.3
		c-1.5-1.5-1.8-3.4-2.1-5.2C492.1,180.7,492.2,180.6,488.8,176.2z"/>
</g>
</svg>
