<?xml version="1.0" encoding="utf-8"?>
<!-- Generator: Adobe Illustrator 23.0.1, SVG Export Plug-In . SVG Version: 6.00 Build 0)  -->
<svg version="1.1" id="Layer_4" xmlns="http://www.w3.org/2000/svg" xmlns:xlink="http://www.w3.org/1999/xlink" x="0px" y="0px"
	 viewBox="0 0 1000 1000" style="enable-background:new 0 0 1000 1000;" xml:space="preserve">
<style type="text/css">
	.st0{fill:#7F7F7F;}
	.st1{fill:#808080;}
</style>
<g>
	<path d="M497.7,230.4c-11,0.4-16-6.6-21.1-13.3c-4.2-5.6-5.9-12.1-6.8-18.8c-1.3-9.4,6-15.9,15-13.7c11.9,3,18.9,11.5,23.9,22
		c2.1,4.4,4.4,9.1,2.5,14C508.4,227.7,504.9,229.7,497.7,230.4z"/>
	<path d="M515.6,214.3c1.5-8.1,0.1-16.8,4.8-24.4c3.4-5.5,6.3-6.3,12.1-3.7c14.2,6.2,15.6,27.7,7.1,35.4c-4.6,4.2-10.3,5.9-16.2,6.8
		c-3.8,0.6-7.3-4.2-7.8-9.7C515.5,217.2,515.6,215.7,515.6,214.3z"/>
	<path class="st0" d="M488.3,192.6c7.6,0,17.1,13.5,18.4,18.5c0.6,2.5-1,3.8-3.1,4.8c-2.4,1.2-4.6,1.7-6.5-0.6
		c-0.9-1.1-1.8-2.4-1.9-3.8C494.4,204.8,491.8,198.7,488.3,192.6z"/>
	<path class="st1" d="M531.1,191.9c9.4,3.4,12.9,14.7,7.2,22.1c-0.9,1.1-1.9,3.3-3.7,2.5c-1.7-0.9-3.6-2.3-3.5-4.8
		c0.1-1.2,0.5-2.2,0.8-3.2c0.5-2.8,1.8-5.6,1.2-8.5C532.6,197.2,531.8,194.7,531.1,191.9z"/>
</g>
</svg>
