<?xml version="1.0" encoding="utf-8"?>
<!-- Generator: Adobe Illustrator 23.0.1, SVG Export Plug-In . SVG Version: 6.00 Build 0)  -->
<svg version="1.1" id="Layer_4" xmlns="http://www.w3.org/2000/svg" xmlns:xlink="http://www.w3.org/1999/xlink" x="0px" y="0px"
	 viewBox="0 0 1000 1000" style="enable-background:new 0 0 1000 1000;" xml:space="preserve">
<style type="text/css">
	.st0{fill:#7F7F7F;}
</style>
<g>
	<path d="M616.2,296.5c0.1-12.8,4.7-22.9,14-30.7c7-5.8,18.2-4.5,20.9,6.7c3.2,13-0.8,25.3-7.6,36.4c-2.5,4-6.9,6.5-12,5.4
		c-6.6-1.4-13-3.4-14.3-11.5C616.8,300.5,615.5,298.3,616.2,296.5z"/>
	<path d="M678.7,311.7c-0.3,13.7-7,21-19.6,24.1c-5.5,1.4-17.9-4.2-21.2-9c-2.7-3.9-0.6-7.2,1.8-9.8c7.4-8.1,16.3-14,26.9-17
		C672.8,298.2,678.7,304.2,678.7,311.7z"/>
	<path class="st0" d="M644.9,278.3c3.5,6.8,1.4,21.1-3.6,26c-1.4,1.4-2.9,2.9-5.4,1.4c-2.8-1.7-3.5-4.1-3-6.9
		c0.3-1.7,1.1-3.5,2.3-4.7C639.3,289.6,642.3,284.3,644.9,278.3z"/>
	<path class="st0" d="M672.4,310.8c1.2,11.4-1.9,16.3-11.3,18.8c-2.3,0.6-4.6,1.1-5.4-1.8c-0.7-2.6,0.4-4.8,3-5.6
		C664.7,320.3,669,316.3,672.4,310.8z"/>
</g>
</svg>
