<?xml version="1.0" encoding="utf-8"?>
<!-- Generator: Adobe Illustrator 23.0.1, SVG Export Plug-In . SVG Version: 6.00 Build 0)  -->
<svg version="1.1" id="Layer_4" xmlns="http://www.w3.org/2000/svg" xmlns:xlink="http://www.w3.org/1999/xlink" x="0px" y="0px"
	 viewBox="0 0 1000 1000" style="enable-background:new 0 0 1000 1000;" xml:space="preserve">
<style type="text/css">
	.st0{fill:#7F7F7F;}
	.st1{fill:#808080;}
</style>
<g>
	<path d="M641.7,303.8c-0.9,5.5-0.8,12.2-3.9,18.4c-3.8,7.6-10.2,10.4-14.5,9.8c-8.6-1.1-13.4-5.8-14.9-14
		c-2.3-11.9-0.7-22.7,6.7-32.8c6.9-9.3,17.4-8.9,22.6,1.3C640.4,291.6,641.6,297,641.7,303.8z"/>
	<path d="M649,350.6c-5.3,0.2-9.9-1.8-14.2-4.4c-4.1-2.5-5.1-7.1-2.9-11.3c4.9-9.4,13.2-15.8,22.3-20c11.7-5.3,17.7,2.7,16.5,14.4
		c-1.1,10-6.6,17.6-17,20.6c-0.6,0.2-1.1,0.7-1.7,0.7C651,350.7,650,350.6,649,350.6z"/>
	<path class="st0" d="M633.7,295c4.7,8.3,3.3,16.5,0,24.4c-0.9,2.2-3.3,3.7-6,2.1c-2.4-1.5-5.5-2.3-3.9-6.9
		C626.2,307.7,631.3,302.1,633.7,295z"/>
	<path class="st1" d="M663.9,323.7c2.5,3.2,2.7,5.9,1.3,9c-2.2,5-5.2,9-10.4,11.3c-2.9,1.2-4.8,0.7-6.5-1.7c-2.1-3,0.4-3.8,2.3-5
		C655.7,333.8,660.6,330,663.9,323.7z"/>
</g>
</svg>
