<?xml version="1.0" encoding="utf-8"?>
<!-- Generator: Adobe Illustrator 23.0.1, SVG Export Plug-In . SVG Version: 6.00 Build 0)  -->
<svg version="1.1" id="Layer_4" xmlns="http://www.w3.org/2000/svg" xmlns:xlink="http://www.w3.org/1999/xlink" x="0px" y="0px"
	 viewBox="0 0 1000 1000" style="enable-background:new 0 0 1000 1000;" xml:space="preserve">
<style type="text/css">
	.st0{fill:#7F7F7F;}
</style>
<g>
	<path d="M494.2,163.5c-0.1,9.2-5.6,13.9-11.7,18.1c-5.6,3.8-11.5,6.7-18.2,8.2c-9.6,2.1-16.2-4.1-14.2-13.6
		c3.3-15.9,13.9-24.2,28.4-29.2c4.8-1.7,8.1,0.4,10.8,3.8C492.2,154.8,493.7,159.4,494.2,163.5z"/>
	<path d="M528.1,180.7c-7.8-0.4-15.4-1.2-22.6-4.7c-7.5-3.7-8.2-5.5-4.1-12.8c4-7.1,9.4-12.9,18.5-12.7c11.6,0.2,20.3,10.2,22,20.7
		c0.8,5-3.3,9.1-8.9,9.6C531.4,180.8,529.7,180.7,528.1,180.7z"/>
	<path class="st0" d="M472.3,153.6c3.8-1.6,6.6-4.6,10.6-2.4c4.8,2.7,6.3,7.3,7.3,12.2c0.2,0.9,0,1.9,0,2.9c0.2,2.3-0.9,3.9-3,4.4
		c-2.1,0.5-3.1-1.3-3.9-2.9c-0.6-1.3-1.4-2.5-1.9-3.9C480,159.4,477.6,155.7,472.3,153.6z"/>
	<path class="st0" d="M516.9,155c8.1-1.8,18.4,7.2,21.1,15.8c0.4,1.2,0.3,2.6-1,3.5c-1.1,0.7-2,0.3-3.1-0.2c-2.2-0.9-4-2.5-5-4.4
		C525.9,164.1,523,158.4,516.9,155z"/>
</g>
</svg>
