<?xml version="1.0" encoding="utf-8"?>
<!-- Generator: Adobe Illustrator 23.0.1, SVG Export Plug-In . SVG Version: 6.00 Build 0)  -->
<svg version="1.1" id="Layer_4" xmlns="http://www.w3.org/2000/svg" xmlns:xlink="http://www.w3.org/1999/xlink" x="0px" y="0px"
	 viewBox="0 0 1000 1000" style="enable-background:new 0 0 1000 1000;" xml:space="preserve">
<style type="text/css">
	.st0{fill:#7F7F7F;}
</style>
<g>
	<path d="M547.9,277.2c0,10.7-5.4,14.1-16,12.3c-19.1-3.3-24.7-22.9-18.8-38.3c3-7.9,12.7-10.4,19.4-5.4
		C541.3,252.6,547.8,265.9,547.9,277.2z"/>
	<path d="M561.2,299.8c-9.9,0-13.4-4.1-11.3-12.3c2.5-9.8,5.8-19.3,13.1-26.7c4.3-4.3,8.4-4.1,12.9,0.1c12.3,11.3,6.9,33.1-7.4,37.3
		C565.6,299,562.7,299.5,561.2,299.8z"/>
	<path class="st0" d="M530.7,253.6c7.8,5.4,11.2,12.4,13.1,20.2c1.1,4.5-0.6,7-4.4,7.5c-4,0.5-7.3-2.2-7.1-6.5
		C532.7,267.9,534.2,261.1,530.7,253.6z"/>
	<path class="st0" d="M572.3,265.5c9.7,9,7.4,18.2,1.6,24.3c-1.4,1.4-3.2,3.1-5.5,1.6c-2.2-1.5-2.4-3.4-1.2-5.9
		c1.5-3,2.7-6.1,3.7-9.3C571.9,273,572.6,269.7,572.3,265.5z"/>
</g>
</svg>
