<?xml version="1.0" encoding="utf-8"?>
<!-- Generator: Adobe Illustrator 23.0.1, SVG Export Plug-In . SVG Version: 6.00 Build 0)  -->
<svg version="1.1" id="Layer_4" xmlns="http://www.w3.org/2000/svg" xmlns:xlink="http://www.w3.org/1999/xlink" x="0px" y="0px"
	 viewBox="0 0 1000 1000" style="enable-background:new 0 0 1000 1000;" xml:space="preserve">
<style type="text/css">
	.st0{fill:#7F7F7F;}
</style>
<g>
	<path d="M483.5,216.8c-0.3-3.4,0.5-6.1,1.5-8.8c3.9-10.7,13.8-9.7,21.3-3.7c8.7,7,15.3,15.9,17.8,27.3c1.2,5.5-1.3,9.5-4.7,13.2
		c-3.4,3.6-7.4,5.1-12.5,3.9c-13-3.1-18.7-12.9-22.3-24.4C483.9,221.9,482.4,219.1,483.5,216.8z"/>
	<path d="M527.3,233.6c1.5-7.4,1.7-17.4,9.5-24.9c3.1-3,6.2-3.6,9.9-1.4c8,4.8,13.2,13,11.8,21.7c-2.1,13-9,19.3-19.3,20.9
		C531.9,251,527.3,245.4,527.3,233.6z"/>
	<path class="st0" d="M503,210.9c9.5,2.6,13.2,9.8,16.2,17.2c1.2,2.9,1.5,6.6-3.5,7.8c-4.8,1.2-5.8-1.9-6.5-5
		C507.6,224.4,506.4,217.6,503,210.9z"/>
	<path class="st0" d="M546.1,214.1c10.2,6.2,10.2,14.1,5.4,21.7c-1.1,1.7-2.4,4.4-5.2,3.1c-2.6-1.2-2.5-3.6-2-6.2
		C545.3,226.6,547.9,220.8,546.1,214.1z"/>
</g>
</svg>
