<?xml version="1.0" encoding="utf-8"?>
<!-- Generator: Adobe Illustrator 23.0.1, SVG Export Plug-In . SVG Version: 6.00 Build 0)  -->
<svg version="1.1" id="Layer_4" xmlns="http://www.w3.org/2000/svg" xmlns:xlink="http://www.w3.org/1999/xlink" x="0px" y="0px"
	 viewBox="0 0 1000 1000" style="enable-background:new 0 0 1000 1000;" xml:space="preserve">
<style type="text/css">
	.st0{fill:#7F7F7F;}
</style>
<g>
	<path d="M413.6,174.8c6.3,1.4,13.7,2.3,19.1,8.3c4,4.4,8.7,8.1,12.1,13.1c3.7,5.4,4.2,10.8,0.6,16.5c-5.7,8.8-16.6,10.1-25.1,4
		c-10-7.2-14.8-17.3-17.7-28.7C400.8,180.9,405.4,174.8,413.6,174.8z"/>
	<path d="M448.1,178.2c0.2-2.4-0.2-5.1,0.7-7.1c3.1-7.2,5.2-8.4,12.9-5.6c12.9,4.6,20.5,23,13,34.4c-3.3,5-7.7,8.7-13.1,10.6
		c-4.2,1.5-6.5-2.5-8.5-5.4c-2.5-3.7-3.4-8.2-3.7-12.5C449.1,187.8,447.5,183.1,448.1,178.2z"/>
	<path class="st0" d="M418,181.6c6.1,0.3,10.5,3.1,14.6,6.4c2.4,1.9,4.5,4.2,6.5,6.5c1.4,1.6,3.2,3.3,1.7,5.9
		c-1.1,2-2.3,4.4-4.6,4.5c-2.6,0.1-4.7-1.7-5.8-4.3c-1.4-3.4-3-6.7-4.6-9.9C424.1,187.2,420.6,185.5,418,181.6z"/>
	<path class="st0" d="M459.6,170.1c11.7,4.4,15.6,14.8,11.6,23.3c-0.5,1.1-0.8,2.8-2.4,2.7c-1.6-0.1-2.4-1.4-2.9-2.8
		c-0.8-2.3-1.2-4.6-1-7.1C465.1,180.5,462.4,175.7,459.6,170.1z"/>
</g>
</svg>
