<?xml version="1.0" encoding="utf-8"?>
<!-- Generator: Adobe Illustrator 23.0.1, SVG Export Plug-In . SVG Version: 6.00 Build 0)  -->
<svg version="1.1" id="Layer_4" xmlns="http://www.w3.org/2000/svg" xmlns:xlink="http://www.w3.org/1999/xlink" x="0px" y="0px"
	 viewBox="0 0 1000 1000" style="enable-background:new 0 0 1000 1000;" xml:space="preserve">
<style type="text/css">
	.st0{fill:#7F7F7F;}
</style>
<g>
	<path d="M460.6,199.2c-6.4,0.5-12.8-1.1-18.6-4.7c-9.9-6.3-9.8-14.1-1.4-20.1c10.8-7.9,23.4-9.9,36.5-7.3
		c4.8,0.9,11.1,9.1,8.9,16.4C482.6,195,477.3,199.2,460.6,199.2z"/>
	<path d="M512.9,199.2c-4.4,0.2-8.4-0.8-12.3-2.1c-8.4-2.9-10.9-12.8-5-20.2c5.3-6.6,12.6-9.9,21.1-8.8c8.2,1.1,13,6.6,16.1,13.8
		c1.8,4.4-3.7,13.3-9.5,15.3C519.9,198.3,516.5,199.7,512.9,199.2z"/>
	<path class="st0" d="M451.4,173.4c8.4-3,15.6-4.7,23.2-2.4c3.1,0.9,5.3,3,6.5,6c0.8,2,0.8,4.1-1.2,5.7c-1.9,1.6-3.8,1.1-5.3-0.2
		C468.2,177.3,460.5,175.5,451.4,173.4z"/>
	<path class="st0" d="M511.6,172.1c9.3-0.5,14.3,3.9,17.1,10.1c0.8,1.9,0.6,3-0.8,4.2c-1.6,1.4-3.2,1.5-4.8,0.1
		c-1.2-1.1-2.7-2.1-3.3-3.5C518.2,178.9,515.3,175.7,511.6,172.1z"/>
</g>
</svg>
