<?xml version="1.0" encoding="utf-8"?>
<!-- Generator: Adobe Illustrator 23.0.1, SVG Export Plug-In . SVG Version: 6.00 Build 0)  -->
<svg version="1.1" id="Layer_4" xmlns="http://www.w3.org/2000/svg" xmlns:xlink="http://www.w3.org/1999/xlink" x="0px" y="0px"
	 viewBox="0 0 1000 1000" style="enable-background:new 0 0 1000 1000;" xml:space="preserve">
<style type="text/css">
	.st0{fill:#7F7F7F;}
</style>
<g>
	<path d="M492.2,210.9c0.7,9.4-9.8,14.9-17.4,13.4c-14.7-3-21-13.7-24.6-26.9c-0.8-3-1.5-5.9-0.3-9.3c3.6-10.3,6.4-11.6,16.8-8.5
		C479.9,183.4,492.6,200.8,492.2,210.9z"/>
	<path d="M525.4,201.3c0.2,13.4-11.8,20.3-22.2,20.4c-2.8,0-3.9-2-5.1-3.8c-1.8-2.6-2.8-5.8-2.9-8.8c-0.1-7.9,0.4-15.9,3.2-23.4
		c3.3-8.9,9.8-10.2,17.5-4.2C522.4,186.6,525.4,193.2,525.4,201.3z"/>
	<path class="st0" d="M468,187c9.2,2.6,14.8,8.9,18.2,17.3c1.1,2.6,0.2,5.6-3.2,6.4c-3,0.7-5.4-0.3-6.6-3.3c-1-2.5-1.9-5.1-2.5-7.7
		C472.8,195,470.7,190.9,468,187z"/>
	<path class="st0" d="M511.1,185.1c8.2,1.9,13,12.6,8.3,22.2c-0.9,1.8-2.6,3.2-5.1,2.1c-2.9-1.3-4-3.6-3.3-6.6
		C512.9,193.4,512.9,193.4,511.1,185.1z"/>
</g>
</svg>
