<?xml version="1.0" encoding="utf-8"?>
<!-- Generator: Adobe Illustrator 23.0.1, SVG Export Plug-In . SVG Version: 6.00 Build 0)  -->
<svg version="1.1" id="Layer_4" xmlns="http://www.w3.org/2000/svg" xmlns:xlink="http://www.w3.org/1999/xlink" x="0px" y="0px"
	 viewBox="0 0 1000 1000" style="enable-background:new 0 0 1000 1000;" xml:space="preserve">
<style type="text/css">
	.st0{fill:#7F7F7F;}
</style>
<g>
	<path d="M490.2,225.9c-0.1-4.4,1.4-8.1,3.3-11.5c3-5.6,8-6.7,14.7-3.6c11.7,5.5,18,15.3,21.2,27.5c0.8,3.1,1.5,6.3,0.7,9.4
		c-3.5,13.7-18.3,15-26.7,6.9C495.2,246.8,491.2,236.8,490.2,225.9z"/>
	<path d="M533.1,250.7c1.4-8,1.4-16.2,5.7-23.6c2.7-4.7,5.7-8.8,11.5-9.3c6.2-0.6,8.6,4.7,10.9,8.6c6.7,11.1,3.6,31.7-15,33.5
		c-2.5,0.2-5.1,1.4-7.5,0.6C534.2,259.1,532.6,255.5,533.1,250.7z"/>
	<path class="st0" d="M510.5,220.6c7.3,2.7,14.9,13.3,14.8,20c0,3.2-1.1,5.5-5.1,5.5c-4.7,0.1-6.5-2.7-6.5-6.6
		C513.8,233.3,513,227.2,510.5,220.6z"/>
	<path class="st0" d="M551.6,225.5c6.8,2.3,8.3,6.5,8.9,11c0.7,5.4-1.1,10.1-5.5,13.7c-1,0.8-2,1.1-3.1,0.4c-1.4-1-2.5-2.2-2.1-4
		c0.5-2.2,1.3-4.2,1.9-6.4C552.9,235.6,555.1,231.1,551.6,225.5z"/>
</g>
</svg>
