<?xml version="1.0" encoding="utf-8"?>
<!-- Generator: Adobe Illustrator 23.0.1, SVG Export Plug-In . SVG Version: 6.00 Build 0)  -->
<svg version="1.1" id="Layer_4" xmlns="http://www.w3.org/2000/svg" xmlns:xlink="http://www.w3.org/1999/xlink" x="0px" y="0px"
	 viewBox="0 0 1000 1000" style="enable-background:new 0 0 1000 1000;" xml:space="preserve">
<style type="text/css">
	.st0{fill:#7F7F7F;}
</style>
<g>
	<path d="M676.8,243.3c-1.1,12.4-6.2,22.7-15.8,31c-8.5,7.2-21.8-0.2-23.1-10c-1.9-14.5,9.4-30.7,21.6-35.6
		c9-3.7,17.1,0.2,17.4,12.2C676.8,241.7,676.8,242.5,676.8,243.3z"/>
	<path d="M682.8,271.5c8.1,0,13,5,12.5,11.3c-0.8,9.7-5.9,16.2-15,20c-11.3,4.8-19.7,0.2-25.7-6.3c-4.8-5.3-4.7-11.2,2-15.5
		C665.3,275.6,674.7,273.1,682.8,271.5z"/>
	<path class="st0" d="M670.5,244.6c0,8.2-1.2,16-6.5,22.4c-2,2.4-5.1,4.9-8.7,1.9c-2.4-2-3.1-7.8-0.6-9.7
		C660.4,254.8,665.9,250.4,670.5,244.6z"/>
	<path class="st0" d="M689,282.9c1.2,10-8.4,18.7-16.7,16.1c-2.4-0.7-4.4-1.5-4.3-4.3c0.1-3,2.7-4.2,5-4.5c3.4-0.4,6.4-1.7,9.5-3
		C684.8,286.3,686.4,284.4,689,282.9z"/>
</g>
</svg>
