<?xml version="1.0" encoding="utf-8"?>
<!-- Generator: Adobe Illustrator 23.0.1, SVG Export Plug-In . SVG Version: 6.00 Build 0)  -->
<svg version="1.1" id="Layer_4" xmlns="http://www.w3.org/2000/svg" xmlns:xlink="http://www.w3.org/1999/xlink" x="0px" y="0px"
	 viewBox="0 0 1000 1000" style="enable-background:new 0 0 1000 1000;" xml:space="preserve">
<style type="text/css">
	.st0{fill:#7F7F7F;}
	.st1{fill:#808080;}
</style>
<g>
	<path d="M420.5,174.8c6.7-0.2,12.3,2.4,17,6.9c6.3,5.9,13.8,10.9,15.7,20.4c1.5,7.6-2.5,14.6-9.9,16.7c-11,3.1-17.8-1.9-23.5-8.9
		c-5.4-6.6-9.4-13.5-10.7-22.1C407.7,178.6,410.8,174.8,420.5,174.8z"/>
	<path d="M454.1,180.7c0-2.5-0.1-4.6,0-6.7c0.5-6.7,7.7-10.8,13.8-8c11.1,5.1,14.6,15.2,16.3,25.9c1,6.5-10.7,19.1-17.4,20
		c-2.9,0.4-8.7-4.8-9.6-9.5C455.8,195.1,453.6,187.9,454.1,180.7z"/>
	<path class="st0" d="M424.7,181.6c4.5,0.2,7.6,1.4,10.4,3.8c4,3.5,9.1,5.9,11.4,11.3c1.2,2.9,0.7,4.7-1.6,6.1
		c-2.3,1.5-4.8,2.1-6.8-0.6c-0.6-0.8-1.3-1.5-1.6-2.4C434.3,193,429.5,187.8,424.7,181.6z"/>
	<path class="st1" d="M466.1,170.6c8,4.7,12.3,10.3,12.4,18.6c0,0.6,0.1,1.4-0.1,1.9c-0.7,2.1-1.4,4.8-3.9,4.9c-2,0-2.8-2.3-3.1-4.3
		C470.4,184.9,470.1,177.9,466.1,170.6z"/>
</g>
</svg>
