<?xml version="1.0" encoding="utf-8"?>
<!-- Generator: Adobe Illustrator 23.0.1, SVG Export Plug-In . SVG Version: 6.00 Build 0)  -->
<svg version="1.1" id="Layer_4" xmlns="http://www.w3.org/2000/svg" xmlns:xlink="http://www.w3.org/1999/xlink" x="0px" y="0px"
	 viewBox="0 0 1000 1000" style="enable-background:new 0 0 1000 1000;" xml:space="preserve">
<style type="text/css">
	.st0{fill:#7F7F7F;}
</style>
<g>
	<path d="M512.8,206.8c0,6.1-3.2,10.3-7.5,12.6c-6.8,3.5-13.9,5.3-21.2-0.2c-7.2-5.5-14.4-10.9-17.7-19.8c-0.6-1.8-1.2-3.6-1.5-5.4
		c-1.3-8.1,6.4-15.1,14.7-13.2c12.4,2.8,23.1,8.5,30.4,19.3C511.4,202.2,513,204.4,512.8,206.8z"/>
	<path d="M528.8,218.7c-2.9,0.6-5.6-0.5-8-1.3c-3.6-1.2-5.7-4.2-5-8.2c1.9-10.8,7.9-19.7,14.1-28.4c2.6-3.7,7.4-4.4,10.6-1.9
		c6.3,4.8,10,11.6,9.1,19.3c-0.9,8-4,15.8-12.6,19.1C534.4,218.3,531.6,219.3,528.8,218.7z"/>
	<path class="st0" d="M480.1,185.4c10.4,2.1,18.7,5.8,24.5,14c0.8,1.1,1,2.3,1.5,3.4c1,2,1.1,3.7-0.9,5.1c-2.1,1.5-4,0.8-5.6-0.7
		c-1.8-1.8-3.4-3.8-5-5.9C490.7,195.7,485.3,191.2,480.1,185.4z"/>
	<path class="st0" d="M534.9,181.3c7.8,3,8.5,9.4,9.9,15.3c0.8,3.2-0.4,6.3-1,9.5c-0.3,1.4-1.4,2.6-3,2.9c-1.8,0.3-2.5-1-3-2.5
		c-0.9-2.6-1.9-4.9-1-8.2C538.2,193,536.3,187.6,534.9,181.3z"/>
</g>
</svg>
