<?xml version="1.0" encoding="utf-8"?>
<!-- Generator: Adobe Illustrator 23.0.1, SVG Export Plug-In . SVG Version: 6.00 Build 0)  -->
<svg version="1.1" id="Layer_4" xmlns="http://www.w3.org/2000/svg" xmlns:xlink="http://www.w3.org/1999/xlink" x="0px" y="0px"
	 viewBox="0 0 1000 1000" style="enable-background:new 0 0 1000 1000;" xml:space="preserve">
<style type="text/css">
	.st0{fill:#7F7F7F;}
</style>
<g>
	<path d="M536.3,253.2c-0.4,7.3-1.7,12.9-7.9,15.7c-7.4,3.3-13.8,1-19.6-3.9c-7.1-6-8.8-14.5-10.8-23c-1.7-7.3-0.4-13.4,4.8-18.8
		c5-5.2,7.7-4.8,13.6-1.5C528.7,228.8,534.6,240.4,536.3,253.2z"/>
	<path d="M539,261c1-8.7,3.4-17.6,8.4-25.6c3.8-6.2,10.5-6.6,16-1.7c6.2,5.6,9.9,16.2,6.7,25.7c-3,8.7-11.4,14.5-21.1,15
		C543.1,274.8,539.6,271.8,539,261z"/>
	<path class="st0" d="M518,231.3c6.7,3.2,9.4,8.4,12.1,13.6c0.9,1.7,1.2,3.6,1.8,5.4c1.2,4-0.5,5.8-4.3,7c-3.8,1.2-5.5-0.1-6.2-3.6
		c-0.1-0.6-0.7-1.2-0.7-1.7C520.7,245.2,520.5,238.5,518,231.3z"/>
	<path class="st0" d="M560.7,239.7c8.6,6.3,8.5,18.1,0.1,24.2c-1,0.8-2.1,1.2-3,0.3c-1.6-1.5-2.5-3.4-2-5.6c0.6-2.1,1.4-4.2,2.2-6.3
		C559.4,248.2,560.7,244.2,560.7,239.7z"/>
</g>
</svg>
