<?xml version="1.0" encoding="utf-8"?>
<!-- Generator: Adobe Illustrator 23.0.1, SVG Export Plug-In . SVG Version: 6.00 Build 0)  -->
<svg version="1.1" id="Layer_4" xmlns="http://www.w3.org/2000/svg" xmlns:xlink="http://www.w3.org/1999/xlink" x="0px" y="0px"
	 viewBox="0 0 1000 1000" style="enable-background:new 0 0 1000 1000;" xml:space="preserve">
<style type="text/css">
	.st0{fill:#7F7F7F;}
</style>
<g>
	<path d="M575.2,252.2c0,10.2-5,16.6-12.5,18.2c-5.1,1.1-14.2-2.4-17.2-8.5c-5.1-10.1-8-20.5-5.4-31.9c1.9-8.3,9-14.2,14.9-12
		c4.8,1.8,9.4,4.7,12,9C572,235.4,575,244.7,575.2,252.2z"/>
	<path d="M588,277.3c-9.4,0-13.9-5.6-11.8-13.9c2.3-8.8,6.1-16.8,12.5-23.4c6.4-6.6,12.6-6.2,17.3,1.3c7.2,11.4,6,25.7-7.2,33.1
		C595.2,276.5,591.1,276.8,588,277.3z"/>
	<path class="st0" d="M559.5,229.9c7.3,3.8,12.9,14.7,11.8,22.3c-0.5,3.3-2.4,5.4-5.7,5.5c-3.6,0.1-5.8-2.2-5.9-5.7
		c-0.1-3.2-0.4-6.4,0.6-9.6C561.4,238.4,560.2,234.2,559.5,229.9z"/>
	<path class="st0" d="M601,244.5c7.8,7.3,5.6,20.1-3.8,24.3c-1.9,0.8-2.5,0.3-3.4-1.1c-1.6-2.7-1.3-5.3,0.4-7.7
		C597.4,255.3,599.7,250.2,601,244.5z"/>
</g>
</svg>
