<?xml version="1.0" encoding="utf-8"?>
<!-- Generator: Adobe Illustrator 23.0.1, SVG Export Plug-In . SVG Version: 6.00 Build 0)  -->
<svg version="1.1" id="Layer_4" xmlns="http://www.w3.org/2000/svg" xmlns:xlink="http://www.w3.org/1999/xlink" x="0px" y="0px"
	 viewBox="0 0 1000 1000" style="enable-background:new 0 0 1000 1000;" xml:space="preserve">
<style type="text/css">
	.st0{fill:#7F7F7F;}
</style>
<g>
	<path d="M487.3,196.3c-11.3,0.1-19.6-1.1-26.1-7.2c-10.5-9.8-6.6-13.5,2.9-20c10.4-7.1,22.5-7.6,34.5-3.9
		c8.4,2.6,11.2,9.9,7.5,18.6C502,193.6,497.2,196.3,487.3,196.3z"/>
	<path d="M531.9,196.3c-7,0-18.4-8.5-20-15.3c-0.9-3.7,1.6-6.1,4.3-7.9c7-4.7,15.1-6.6,23.3-8c1.1-0.2,2.1-0.5,3.2-0.8
		c6.6-1.7,12.7,3,12,9.6C553.5,183.6,545,196.8,531.9,196.3z"/>
	<path class="st0" d="M480,167.7c6.5-0.7,12.9-1.4,18.7,2.1c2.9,1.8,5.1,3.9,5.2,7.5c0.1,2.9-0.6,5.3-3.6,6.6
		c-3,1.4-3.8-1.4-4.9-2.7C491,176,486.8,170.5,480,167.7z"/>
	<path class="st0" d="M533.6,171.2c3.6-2.1,7.6-3.3,11.8-3.3c4.5,0.1,7,3.2,5.9,7.6c-0.2,0.8-0.4,1.5-0.6,2.3
		c-0.6,2.5-1.4,5.1-4.4,5.6c-3.1,0.5-4-2.1-5.1-4.2C538.7,174.5,538.8,174.5,533.6,171.2z"/>
</g>
</svg>
