<?xml version="1.0" encoding="utf-8"?>
<!-- Generator: Adobe Illustrator 23.0.1, SVG Export Plug-In . SVG Version: 6.00 Build 0)  -->
<svg version="1.1" id="Layer_4" xmlns="http://www.w3.org/2000/svg" xmlns:xlink="http://www.w3.org/1999/xlink" x="0px" y="0px"
	 viewBox="0 0 1000 1000" style="enable-background:new 0 0 1000 1000;" xml:space="preserve">
<style type="text/css">
	.st0{fill:#7F7F7F;}
</style>
<g>
	<path d="M479.6,148.4c7.3,2,15.2,2.8,20.2,10.7c4.1,6.5,9.2,12.2,11.1,20c1.4,5.8-1,11.9-6.5,14c-12.2,4.7-20.3,0.7-26.9-9.5
		c-4.1-6.3-6.4-13.2-7.8-20.4C468.6,157,474.1,148.3,479.6,148.4z"/>
	<path d="M516.6,176c-0.3-5.5,0.3-11.4,1.8-17.1c2.5-9.8,8.9-12.3,17-6.5c9.1,6.6,14.2,26.3,4,34.4c-4.7,3.7-10.2,5.5-15.9,6.5
		c-2.9,0.5-6.6-4.7-6.8-9C516.5,181.6,516.6,179,516.6,176z"/>
	<path class="st0" d="M488.5,156.6c9.4,3.4,14.5,10.7,18.2,19.2c1.3,2.9-3.3,6.6-6.4,5.4c-1.8-0.7-3.6-1.6-4.2-3.7
		C494.2,170.4,491.9,163.3,488.5,156.6z"/>
	<path class="st0" d="M532.2,155.5c8,5.8,10.6,13.2,7.5,21c-0.9,2.2-2.4,5.2-4.7,4.7c-2.7-0.6-3-3.9-2.7-6.5
		c0.4-3.3,2.3-6.4,1.8-9.8C533.7,161.9,532.9,158.9,532.2,155.5z"/>
</g>
</svg>
