<?xml version="1.0" encoding="utf-8"?>
<!-- Generator: Adobe Illustrator 23.0.1, SVG Export Plug-In . SVG Version: 6.00 Build 0)  -->
<svg version="1.1" id="Layer_4" xmlns="http://www.w3.org/2000/svg" xmlns:xlink="http://www.w3.org/1999/xlink" x="0px" y="0px"
	 viewBox="0 0 1000 1000" style="enable-background:new 0 0 1000 1000;" xml:space="preserve">
<style type="text/css">
	.st0{fill:#7F7F7F;}
</style>
<g>
	<path d="M476.5,136.5c0.8-13.9,7.5-17.3,18.6-12.3c11.6,5.2,18.4,15,22.1,26.8c1.5,4.8,0.5,10.1-3.6,13.6c-4.4,3.7-9.7,5.6-15.5,4
		c-9.8-2.7-14.6-10.6-18.5-19C477.6,145.3,477,140.5,476.5,136.5z"/>
	<path d="M522.5,151.9c-0.4-7.6,1.7-14.8,3.1-22.1c1-5.7,7.4-7.9,12.8-5.8c10,3.9,18,24,9.5,34.3c-3.3,3.9-13.8,9-18.5,7.6
		c-4.2-1.2-6.4-4.4-6.9-8.7C522.3,155.5,522.5,153.7,522.5,151.9z"/>
	<path class="st0" d="M495.5,130.2c8.4,3.8,14.6,9.8,18,18.2c1.7,4.1-3,5-5.7,6.4c-2.6,1.4-4.3-0.6-4.7-2.6
		C501.6,144.5,498.3,137.5,495.5,130.2z"/>
	<path class="st0" d="M537.9,129.2c8.2,3.5,14.3,17.7,5.4,24.4c-2.4,1.8-3.3,1.9-4.5-0.9c-0.6-1.5-1.1-3-0.5-4.2
		C541,142.2,539.5,136,537.9,129.2z"/>
</g>
</svg>
