<?xml version="1.0" encoding="utf-8"?>
<!-- Generator: Adobe Illustrator 23.0.1, SVG Export Plug-In . SVG Version: 6.00 Build 0)  -->
<svg version="1.1" id="Layer_4" xmlns="http://www.w3.org/2000/svg" xmlns:xlink="http://www.w3.org/1999/xlink" x="0px" y="0px"
	 viewBox="0 0 1000 1000" style="enable-background:new 0 0 1000 1000;" xml:space="preserve">
<style type="text/css">
	.st0{fill:#808080;}
	.st1{fill:#7F7F7F;}
</style>
<g>
	<path d="M468.3,186.3c-12.1,0.8-16.6-7-15.1-13.6c3.1-13.9,11.4-24.3,24.5-29.9c9.4-4,15.1,2.2,18.3,10.9
		c2.9,7.8-1.1,13.6-5.8,19.2C483.5,180.7,475.2,185.6,468.3,186.3z"/>
	<path d="M528.5,182.6c-8.8-0.5-16.9-3-20.5-11.8c-2.5-6-4-12.7-0.2-19.2c2.1-3.7,4.9-4.8,9.1-3.6c9,2.6,16.2,8.1,23.3,13.8
		c3.7,2.9,6,7.2,4.3,11.8c-2.2,5.8-7.7,7.9-13.5,9C530.2,182.7,529.3,182.6,528.5,182.6z"/>
	<path class="st0" d="M475.9,149.8c5.7-4.3,7.9-4.4,11.6-0.7c4.6,4.6,5.7,11.2,2.8,15.6c-1.8,2.7-3.7,2.7-5.5,0.1
		c-0.7-1-1.2-2.3-1.4-3.5C482.2,153.5,482.2,153.5,475.9,149.8z"/>
	<path class="st1" d="M516.2,152.7c8.5,2.7,16.6,5.8,21.8,13.6c0.5,0.8,0.9,1.7,1.3,2.5c1.1,2.2,1.1,4-1,5.4c-2.3,1.5-4.4,0-5.4-1.6
		C528.1,165.2,521.9,159.2,516.2,152.7z"/>
</g>
</svg>
