<?xml version="1.0" encoding="utf-8"?>
<!-- Generator: Adobe Illustrator 23.0.1, SVG Export Plug-In . SVG Version: 6.00 Build 0)  -->
<svg version="1.1" id="Layer_4" xmlns="http://www.w3.org/2000/svg" xmlns:xlink="http://www.w3.org/1999/xlink" x="0px" y="0px"
	 viewBox="0 0 1000 1000" style="enable-background:new 0 0 1000 1000;" xml:space="preserve">
<style type="text/css">
	.st0{fill:#808080;}
	.st1{fill:#7F7F7F;}
</style>
<g>
	<path d="M673.8,248.7c-1.4,12.6-4.5,24.3-15.6,32c-6.4,4.5-11.2,4.4-17.4,0.2c-4.8-3.3-8.3-12.3-6.8-17.9
		c3.2-11.8,10.3-21,20.2-27.9c3.6-2.5,8-2.6,12.3-0.7c5.4,2.4,6.7,7.1,7.4,12.3C673.9,247.4,673.8,248.1,673.8,248.7z"/>
	<path d="M693.4,287.5c-0.8,13.6-7.5,19.9-18.8,22.9c-8.1,2.1-21.2-5.9-23.9-13.7c-1.2-3.5,1.4-8.6,6.2-11.4
		c7.5-4.4,15.6-7.2,24.1-8.8C688.3,275,693.4,279.7,693.4,287.5z"/>
	<path class="st0" d="M667.9,254.4c-1.9,5.4-2,12.6-7.1,17.9c-2.6,2.7-5.5,4.4-8.7,1.2c-3.2-3.2-1.2-6.1,1.4-8.7
		c4.1-3.9,8.1-7.9,11.3-12.6c0.5-0.8,0.8-2.1,1.9-1.8C668,250.8,668.1,252.2,667.9,254.4z"/>
	<path class="st1" d="M687.3,287.1c0.4,9.6-3.2,15-10.6,17.1c-0.6,0.2-1.2,0.4-1.9,0.4c-2.9-0.2-6.7-0.4-7.4-3
		c-0.9-3.2,2.8-4.6,5.4-5.6c2.6-1.1,5.5-1.4,7.8-3.4C682.6,290.8,684.7,289.2,687.3,287.1z"/>
</g>
</svg>
