<?xml version="1.0" encoding="utf-8"?>
<!-- Generator: Adobe Illustrator 23.0.1, SVG Export Plug-In . SVG Version: 6.00 Build 0)  -->
<svg version="1.1" id="Layer_4" xmlns="http://www.w3.org/2000/svg" xmlns:xlink="http://www.w3.org/1999/xlink" x="0px" y="0px"
	 viewBox="0 0 1000 1000" style="enable-background:new 0 0 1000 1000;" xml:space="preserve">
<style type="text/css">
	.st0{fill:#7F7F7F;}
	.st1{fill:#808080;}
</style>
<g>
	<path d="M517.9,187.5c-7-0.8-12.7-3.2-16.2-10.2c-3.8-7.6-7-15.1-6.7-23.8c0.1-3.3,1.1-6.2,3.2-8.7c4.6-5.6,8.5-6.8,18.4,0
		c10.3,7.1,16.5,18.2,17.5,31.2c0.4,5.3-3.8,9.9-9.1,10.4C522.7,186.7,520.5,188.3,517.9,187.5z"/>
	<path d="M568.4,168.2c-0.9,12.8-4.5,15.7-16.3,19.2c-8.6,2.5-14.2-2.2-12.9-11.4c1.1-7.6,2.4-15.2,4.6-22.6c1.2-4.1,3.4-7,7.3-7.8
		c4-0.9,7.5,1.2,10.1,4.1C566,154.9,568.5,161.1,568.4,168.2z"/>
	<path class="st0" d="M513.9,149.7c8.6,3.9,12.8,11.4,16.2,19.2c1.4,3.3-2,4.8-4.6,5.7c-2.7,0.9-5.2-0.2-5.5-3
		C519.2,164,517.4,156.7,513.9,149.7z"/>
	<path class="st1" d="M556.3,151.5c8,5.4,10.4,14.6,6.2,22.2c-1.1,2-2.5,5.1-5.3,3.6c-2.4-1.3-3.4-4.1-1.6-7.1
		C559.3,164.4,558.6,158.2,556.3,151.5z"/>
</g>
</svg>
