<?xml version="1.0" encoding="utf-8"?>
<!-- Generator: Adobe Illustrator 23.0.1, SVG Export Plug-In . SVG Version: 6.00 Build 0)  -->
<svg version="1.1" id="Layer_4" xmlns="http://www.w3.org/2000/svg" xmlns:xlink="http://www.w3.org/1999/xlink" x="0px" y="0px"
	 viewBox="0 0 1000 1000" style="enable-background:new 0 0 1000 1000;" xml:space="preserve">
<style type="text/css">
	.st0{fill:#7F7F7F;}
</style>
<g>
	<path d="M658.2,273.6c-0.1,9.5-3.7,17.9-8.8,25.5c-3.3,4.9-8.8,7.8-15,6.4c-6.7-1.5-10.4-6.3-12.4-12.9c-3.9-13.2,6-29.2,14-35.2
		c4.1-3,9.5-3.5,14.8-0.7c5.6,3,6.3,8.3,7.3,13.5C658.4,271.2,658.2,272.4,658.2,273.6z"/>
	<path d="M682.6,304.8c-1.6,14.7-5.2,21.2-20.9,24.1c-6.1,1.1-12.3-1.1-17.1-5.2c-5.3-4.5-4.8-11.8,1.1-16.7
		c7.4-6.1,16-10.4,25.3-13C677.7,292.3,682.6,297.2,682.6,304.8z"/>
	<path class="st0" d="M651.4,271.8c2.9,9.3-0.8,21.5-7.1,24.8c-2.3,1.2-4.2,1.3-6-0.6c-1.8-2-2.1-4.3-0.4-6.5
		c2.3-2.9,4.8-5.6,7.2-8.4C647.6,278.3,648.2,274.4,651.4,271.8z"/>
	<path class="st0" d="M676.3,304.8c2.2,5.2,0.6,10.8-3.9,14.5c-2.5,2.1-5.6,3.1-8.7,3.9c-2.2,0.5-4.4-0.5-5.3-2.5
		c-1-2.2,1.2-2.9,2.7-3.8C666.5,313.4,672.8,311.2,676.3,304.8z"/>
</g>
</svg>
