<?xml version="1.0" encoding="utf-8"?>
<!-- Generator: Adobe Illustrator 23.0.1, SVG Export Plug-In . SVG Version: 6.00 Build 0)  -->
<svg version="1.1" id="Layer_4" xmlns="http://www.w3.org/2000/svg" xmlns:xlink="http://www.w3.org/1999/xlink" x="0px" y="0px"
	 viewBox="0 0 1000 1000" style="enable-background:new 0 0 1000 1000;" xml:space="preserve">
<style type="text/css">
	.st0{fill:#7F7F7F;}
</style>
<g>
	<path d="M495.2,230.5c-9.2,0.1-13.7-5.7-17.7-12.2c-3.4-5.5-5.6-11.4-7.2-17.7c-1.5-6.2,0.2-10.9,4.7-14.9
		c4.2-3.8,8.8-2.2,12.8-0.1c12.6,6.5,20.8,16.7,23.9,30.7c1.1,5.2-3.7,11.7-9.5,13.1C499.7,230,497.2,230.2,495.2,230.5z"/>
	<path d="M516.6,210.4c-0.3-5.1,0-11,2-16.6c4.1-11.2,9.5-11.5,17.8-5.2c8.8,6.8,10.5,18.4,6.8,28.4c-1.5,4.2-13.3,11.7-18.6,11.5
		c-4.2-0.1-7.7-4.1-8-9C516.5,216.7,516.6,214,516.6,210.4z"/>
	<path class="st0" d="M487.7,190.8c10.1,4.5,15.2,11.7,19,20.1c0.9,2.1-0.6,3.8-2.4,4.7c-1.8,1-3.7,2.1-5.7,0.2
		c-1.3-1.2-3-2.6-3-4.2C495.4,204.3,490.9,198.6,487.7,190.8z"/>
	<path class="st0" d="M531.7,191.1c8.8,4.6,11.8,15.9,6.8,22.6c-0.9,1.2-1.9,3.6-4,2.6c-2-0.9-3.7-3.3-3.1-5
		C533.8,204.8,535.1,198.4,531.7,191.1z"/>
</g>
</svg>
