<?xml version="1.0" encoding="utf-8"?>
<!-- Generator: Adobe Illustrator 23.0.1, SVG Export Plug-In . SVG Version: 6.00 Build 0)  -->
<svg version="1.1" id="Layer_4" xmlns="http://www.w3.org/2000/svg" xmlns:xlink="http://www.w3.org/1999/xlink" x="0px" y="0px"
	 viewBox="0 0 1000 1000" style="enable-background:new 0 0 1000 1000;" xml:space="preserve">
<style type="text/css">
	.st0{fill:#7F7F7F;}
</style>
<g>
	<path d="M611.3,304.2c-0.1-10.8,3.1-20,9.6-28c3.7-4.5,9.1-6.2,14.5-5.5c5,0.7,7.4,5.2,9.1,9.5c3.6,9.4,1.6,18.6-0.9,27.8
		c-2,7.3-5.5,12.9-13.7,14.3c-5.7,1-12.6-1.7-15.6-7C612.2,311.8,610.8,308,611.3,304.2z"/>
	<path d="M651.1,343.8c-6.2-0.9-11.6-3.2-15.8-7.9c-2.8-3.1-2-6.9,0-9.7c7.2-10.1,17.4-16.2,29.2-19.5c3.1-0.9,5.4,1.2,7.4,4
		c6.6,9.3-0.7,24.3-8.3,28.3C659.6,341.1,655.6,343,651.1,343.8z"/>
	<path class="st0" d="M638.7,285.9c3.2,4.3,3.3,8,2.1,12.4c-1.2,4.4-1.6,9.1-3.6,13.3c-1.9,3.8-5.9,3.9-8.2,0.3
		c-1.6-2.6-1.5-5.4-0.1-8.2C631.8,297.7,636.1,292.7,638.7,285.9z"/>
	<path class="st0" d="M668.6,316.6c3.9,9-5.2,22.1-14.5,21.2c-2.8-0.3-4.5-1.8-2.7-4.9c0.9-1.6,2.1-3,3.7-3.7
		C661.1,326.9,664.9,322.3,668.6,316.6z"/>
</g>
</svg>
