<?xml version="1.0" encoding="utf-8"?>
<!-- Generator: Adobe Illustrator 23.0.1, SVG Export Plug-In . SVG Version: 6.00 Build 0)  -->
<svg version="1.1" id="Layer_4" xmlns="http://www.w3.org/2000/svg" xmlns:xlink="http://www.w3.org/1999/xlink" x="0px" y="0px"
	 viewBox="0 0 1000 1000" style="enable-background:new 0 0 1000 1000;" xml:space="preserve">
<style type="text/css">
	.st0{fill:#7F7F7F;}
	.st1{fill:#808080;}
</style>
<g>
	<path d="M466.9,181.6c-3.7,0.2-6.2-0.9-8-4.2c-3.5-6.3-4.5-12.8-2.9-19.9c2.1-9.3,6.7-17.1,13.8-23.2c5-4.2,15.4-2.3,18.9,3.5
		c3.1,5,5.6,10.3,3.6,16.9c-3,9.8-8.1,18-16.4,24.1C473.2,180.7,470.2,181.9,466.9,181.6z"/>
	<path d="M524.5,175.8c-10.2-0.8-21.2-8-23.5-19.9c-1.2-6.3,5-17.2,10.4-19.5c4.2-1.8,7.3,0.3,9.8,2.7c7.4,7.4,13.3,15.9,16.4,26.1
		c1,3.4-1.3,7.3-5.4,8.9C529.9,175,527.3,176,524.5,175.8z"/>
	<path class="st0" d="M471.8,138.5c5.8-3.3,12.7-1.1,15.6,4.4c2.9,5.4,2.1,10.8-0.1,16.1c-0.6,1.5-1.6,3-3.5,3c-1.8,0-2.6-1.6-3.5-3
		c-1.3-2.1-0.6-4.4-1-6.6C478.4,147,476.8,141.9,471.8,138.5z"/>
	<path class="st1" d="M515.1,139.9c4.1,0.8,6.1,3.4,7.7,5.7c3.2,4.7,6.2,9.7,8.6,15c1.5,3.2,0.7,5.7-1.8,7c-2.7,1.4-4.3-0.9-5.5-3.2
		c-1-1.9-1.5-3.8-2-5.9C520.6,152.2,519,146,515.1,139.9z"/>
</g>
</svg>
