<?xml version="1.0" encoding="utf-8"?>
<!-- Generator: Adobe Illustrator 23.0.1, SVG Export Plug-In . SVG Version: 6.00 Build 0)  -->
<svg version="1.1" id="Layer_4" xmlns="http://www.w3.org/2000/svg" xmlns:xlink="http://www.w3.org/1999/xlink" x="0px" y="0px"
	 viewBox="0 0 1000 1000" style="enable-background:new 0 0 1000 1000;" xml:space="preserve">
<style type="text/css">
	.st0{fill:#7F7F7F;}
	.st1{fill:#808080;}
</style>
<g>
	<path d="M663.1,266.3c-0.6,8.9-2.6,18.5-10.1,26.8c-9.6,10.5-22.3,5-26-6.9c-4.3-13.9,6.6-33.9,20.9-38.2
		c6.3-1.9,10.1-0.5,12.9,5.2C662.1,255.7,663.1,260.7,663.1,266.3z"/>
	<path d="M686.5,300.3c0.8,9.7-8,19.1-18.5,21.2c-7.9,1.6-13.2-1.8-18.5-5.8c-8.4-6.3-5.4-13.1,1.3-17.4c6.5-4.2,13.9-7.1,21.4-9.4
		C682,285.9,687.4,291.7,686.5,300.3z"/>
	<path class="st0" d="M656.6,262.3c3.3,9.7,0.5,17.5-3.9,24.8c-2.1,3.5-6.6,4-9.2,1.4c-2.8-2.9-2.6-6.2,0.3-8.9
		C649,274.8,652.9,269.3,656.6,262.3z"/>
	<path class="st1" d="M681.4,298.9c0.6,10.3-5.2,17-14.5,17.5c-2.3,0.1-3.9-0.8-4.6-2.8c-0.8-2.1,0.2-3.8,2.5-4.4
		C671.2,307.4,676.1,303,681.4,298.9z"/>
</g>
</svg>
