<?xml version="1.0" encoding="utf-8"?>
<!-- Generator: Adobe Illustrator 23.0.1, SVG Export Plug-In . SVG Version: 6.00 Build 0)  -->
<svg version="1.1" id="Layer_4" xmlns="http://www.w3.org/2000/svg" xmlns:xlink="http://www.w3.org/1999/xlink" x="0px" y="0px"
	 viewBox="0 0 1000 1000" style="enable-background:new 0 0 1000 1000;" xml:space="preserve">
<style type="text/css">
	.st0{fill:#FEFEFE;}
	.st1{fill:#C0FEFE;}
</style>
<g>
	<path class="st0" d="M528.4,381.1c1.6-11.1,4-25.4,9.5-39c3.9-9.7,8.3-19.1,13.9-27.9c9-14.3,17.5-19,35.3-14.8
		c10.3,2.4,18.8,8,27.3,13.8c6,4.1,6.6,10.5,4,18.4c-3.9,11.8-11.7,21-19.1,30.4c-6.5,8.2-13.5,16-21.1,23.3
		c-7.9,7.7-16.4,14.3-27.2,16.9C536.3,405.9,527.9,397.8,528.4,381.1z"/>
	<path class="st0" d="M642.6,355.1c-0.8,8.1-4.3,14.9-10.6,20.1c-9.4,7.8-18.3,16.3-28.7,22.9c-11.8,7.6-23.7,15-37.4,19.1
		c-2,0.6-3.6,1.1-5.2-0.6c-1.7-1.7-0.8-3.2-0.3-5.2c1.6-6.3,6.5-10.1,10.3-14.7c14.5-17.3,31.5-32.1,49.1-46.2
		c2.8-2.3,6-4.1,9.2-5.8c7.1-3.9,12.5-0.9,13.6,7.5C642.7,353.2,642.6,354.2,642.6,355.1z"/>
	<path class="st1" d="M616.1,325.1c-6.3-3.7-11.4-7.4-17.2-10.1c-10.9-5.2-24.6-1.8-32.2,7.6c-13.4,16.4-21.3,35.5-28.6,55
		c-1.6,4.2-3.1,8.5-5.1,14.1c-1.8-6.9-0.2-12.3,0.6-17.6c3.3-23.1,11.8-44.2,26.3-62.5c5.6-7.1,12.8-12.2,23.2-9.7
		c11.3,2.7,21.6,6.9,29.3,16.1C613.9,319.7,615.2,321.6,616.1,325.1z"/>
	<path class="st1" d="M564.4,413.4c6-4.2,12.8-6.9,18.7-11c12.4-8.7,24-18.2,35.4-28c4.9-4.2,9.1-8.8,12-14.4c1.5-2.9,2.4-6,2.3-9.4
		c0-1-0.6-2.5,0.9-2.9c1.2-0.3,2.2,0.6,2.9,1.5c2.1,3.2,3.4,6.2,1.6,10.3c-3.8,9-11.1,14.7-18.2,20.6c-11.2,9.4-22.7,18.2-35.6,25.3
		C578.1,408.9,571.2,411,564.4,413.4z"/>
</g>
</svg>
