<?xml version="1.0" encoding="utf-8"?>
<!-- Generator: Adobe Illustrator 23.0.1, SVG Export Plug-In . SVG Version: 6.00 Build 0)  -->
<svg version="1.1" id="Layer_4" xmlns="http://www.w3.org/2000/svg" xmlns:xlink="http://www.w3.org/1999/xlink" x="0px" y="0px"
	 viewBox="0 0 1000 1000" style="enable-background:new 0 0 1000 1000;" xml:space="preserve">
<style type="text/css">
	.st0{fill:#FEFEFE;}
	.st1{fill:#C0FEFE;}
</style>
<g>
	<path class="st0" d="M488.2,270.9c1,13.5-1,27.4-5.8,41c-1,2.8-2.2,5.6-4,8c-8.3,10.7-18.9,6-25.6-1.6
		c-10-11.3-17.6-24.4-23.7-38.2c-5.2-11.6-9-23.7-10-36.3c-1-12.4,5.4-21.2,16.1-27c11.6-6.4,23.9-9.5,37-6.5
		c7.2,1.7,9.5,8,11.1,14.1C487.2,239.3,488.8,254.6,488.2,270.9z"/>
	<path class="st0" d="M520.6,238.1c-0.5,18.2-3.9,34.6-8.3,50.9c-2.3,8.5-4.2,17.2-8.6,25c-1.3,2.3-2.4,5.6-5.6,5.1
		c-3.1-0.5-4.4-3.8-4.8-6.6c-1-6.6-1.7-13.3-2-20c-0.3-6.8-0.3-13.7,0-20.5c0.6-17.1,1.7-34.2,4.9-51.1c0.7-4,2.9-7.1,7.1-8
		c3.9-0.9,9.9,2.5,12.3,6.8C519.1,225.8,520.8,232.3,520.6,238.1z"/>
	<path class="st1" d="M475.2,215.2c-5.3,2.1-10.2,1.6-14.7,2.7c-15.6,3.4-25.6,14-23.2,34.1c2.6,22.1,10.3,42.5,20.5,62.1
		c0.9,1.8,2.4,3.5,2.3,6.2c-7.8-5.5-12.6-12.9-16.8-20.8c-7.6-14.2-14.3-28.8-17.7-44.7c-0.7-3.5-1.4-7-1.7-10.5
		c-0.8-11.5,3.7-20,14.2-25.4c8.1-4.1,16.7-6.2,25.6-6.9C467.6,211.7,470.9,213.4,475.2,215.2z"/>
	<path class="st1" d="M498.7,314.4c1.2-10.3,4.9-20.1,6.7-30.2c2.4-13.2,4.4-26.5,4.3-40c0-9.1-0.9-18.2-8-25.2
		c-0.5-0.5-1.4-1.2-0.5-2c0.9-0.8,2-1.2,3.1-0.8c4.9,1.9,8.9,4.4,10.3,10c1.8,7.3,2,14.6,1.2,22.1c-1.4,11.7-2.4,23.5-5.2,35
		C508,294.1,503.9,304.5,498.7,314.4z"/>
</g>
</svg>
