<?xml version="1.0" encoding="utf-8"?>
<!-- Generator: Adobe Illustrator 23.0.1, SVG Export Plug-In . SVG Version: 6.00 Build 0)  -->
<svg version="1.1" id="Layer_4" xmlns="http://www.w3.org/2000/svg" xmlns:xlink="http://www.w3.org/1999/xlink" x="0px" y="0px"
	 viewBox="0 0 1000 1000" style="enable-background:new 0 0 1000 1000;" xml:space="preserve">
<style type="text/css">
	.st0{fill:#FEFEFE;}
	.st1{fill:#C0FEFE;}
</style>
<g>
	<path class="st0" d="M562.6,306.7c-5.6,0.3-10.7-1.4-15.5-4c-4.4-2.4-7.1-7.8-6.1-12.5c2.2-10,6.5-19,12.8-27.2
		c6.8-8.9,14.5-16.8,22.6-24.5c6.8-6.5,14.3-12.3,22.5-16.8c8.7-4.7,17.8-4.3,26.7,0.9c9.7,5.6,16.7,13.8,23.2,22.5
		c8.7,11.6,6.4,17.2-4.6,26.2c-12.4,10.1-26.3,17.5-40.7,24C590.5,301.1,577,305.7,562.6,306.7z"/>
	<path class="st0" d="M574.3,327.4c-3.6-0.8-6.4,0.3-9.4-0.9c-1.9-0.8-3.9-1.2-4.3-3.2c-0.4-2.2,1.1-3.9,2.8-5.3
		c7.8-6.4,16.6-11.2,25.9-14.8c16.8-6.6,33.7-13.3,51.3-17.4c4.9-1.1,9.7-3,15-2.5c5.9,0.5,8.8,3.4,8.4,9.2
		c-0.2,3.3-1.3,6.2-3.7,8.9c-8.7,9.5-20.1,13.5-31.9,16.9C610.5,323.3,592.1,325.7,574.3,327.4z"/>
	<path class="st1" d="M545.1,288.2c1.6-7.1,5.3-12.9,9.2-18.6c10.3-15,22.9-27.7,37.5-38.3c9.1-6.6,19.4-12.5,31.1-6.2
		c6.8,3.7,12.6,8.9,17.8,14.9c4.2,4.8,6.6,10.3,7.5,16.5c0.1,0.8,0.2,1.6,0.1,2.4c0,0.2-0.3,0.5-0.7,1c-4.5-5.3-8.3-11.1-13.3-15.9
		c-8.5-8.1-17.9-10.7-28.9-6.1c-9.9,4.1-18.8,9.9-27,17c-11.6,10.1-22.7,20.7-32.1,33C546.2,288.1,545.8,288.1,545.1,288.2z"/>
	<path class="st1" d="M565.9,322c19.8-2.1,39.2-5.8,58-11.9c9.6-3.1,18.7-8.2,26.2-15.5c1-1,1.6-2.5,2.6-3.4c1.4-1.2-1-5.2,2.8-4.1
		c3.7,1.1,5.4,6.4,3.3,9.2c-2.5,3.2-5.4,6.1-8.7,8.5c-4.1,3-8.8,4.9-13.6,6.5c-16.3,5.5-32.7,10.2-50.1,11.1
		C579.6,322.8,572.8,323.6,565.9,322z"/>
</g>
</svg>
