<?xml version="1.0" encoding="utf-8"?>
<!-- Generator: Adobe Illustrator 23.0.1, SVG Export Plug-In . SVG Version: 6.00 Build 0)  -->
<svg version="1.1" id="Layer_4" xmlns="http://www.w3.org/2000/svg" xmlns:xlink="http://www.w3.org/1999/xlink" x="0px" y="0px"
	 viewBox="0 0 1000 1000" style="enable-background:new 0 0 1000 1000;" xml:space="preserve">
<style type="text/css">
	.st0{fill:#FEFEFE;}
	.st1{fill:#C0FEFE;}
</style>
<g>
	<path class="st0" d="M554,329.1c-3.2,0.1-7.8-0.3-11.4-3.8c-5.8-5.9-5.1-12.7-2.9-20c4.2-13.8,12.3-25.3,21-36.4
		c7.8-10,16.4-19.3,26.8-26.7c10.6-7.6,19.1-9.7,30.8-1.3c8,5.7,16.6,10.9,22.2,19.3c6.3,9.4,5.1,17.6-2.4,25.9
		c-12.7,14.1-29.3,22.7-45.9,31.2c-7,3.6-14.2,6.8-21.7,9.3C565.6,328.2,560.6,329.2,554,329.1z"/>
	<path class="st0" d="M570.4,349.6c-0.5,0-1,0-1.5,0c-3.2-0.2-7-0.3-8.1-3.8c-0.9-3,2-5.3,4.3-7c19.6-15.1,40.8-27.7,64.2-36.1
		c5.2-1.9,10.4-3.7,15.8-4.9c7.5-1.7,13.5,4.8,12,12.3c-1.5,7.7-6.7,12-12.8,15.6c-17.8,10.7-37.6,16-57.6,20.8
		c-5.4,1.3-10.8,2.3-16.3,3.4C570.4,349.9,570.4,349.8,570.4,349.6z"/>
	<path class="st1" d="M541.4,314.8c1.4-11.5,6.1-20.4,11.6-28.8c7.9-12.1,16.8-23.5,27.8-33.1c5.6-4.9,11.1-9.9,18.8-11.6
		c4.1-0.9,7.9-1,11.8,0.7c12.7,5.3,23,13.2,29,25.9c1.1,2.3,1.1,2.3,0.8,6c-4.9-3.3-7.2-9.1-12.2-11.8c-2.5-1.4-4.7-3.5-7.2-4.9
		c-8-4.3-16.3-3.9-24.3-0.1c-12.3,5.9-22.1,15.2-31,25.4C557.6,292.4,549.4,302.8,541.4,314.8z"/>
	<path class="st1" d="M565.8,343.8c3.4-0.8,6.8-1.8,10.3-2.4c16.8-2.8,32.3-9.6,48-15.8c6.2-2.5,11.8-6.3,17-10.3
		c4.6-3.5,8-8.1,7.5-14.6c8.9,7.2,3.8,15.6-4.1,20.4c-11.2,6.9-23.5,11.8-36.1,15.6c-11,3.3-22.3,5.8-33.6,7.6
		c-2.9,0.5-5.8,0.3-8.7,0.5C565.9,344.5,565.9,344.1,565.8,343.8z"/>
</g>
</svg>
