<?xml version="1.0" encoding="utf-8"?>
<!-- Generator: Adobe Illustrator 23.0.1, SVG Export Plug-In . SVG Version: 6.00 Build 0)  -->
<svg version="1.1" id="Layer_4" xmlns="http://www.w3.org/2000/svg" xmlns:xlink="http://www.w3.org/1999/xlink" x="0px" y="0px"
	 viewBox="0 0 1000 1000" style="enable-background:new 0 0 1000 1000;" xml:space="preserve">
<style type="text/css">
	.st0{fill:#FEFEFE;}
	.st1{fill:#C0FEFE;}
</style>
<g>
	<path class="st0" d="M533.4,334.8c1.3-8.1,4.6-18.8,9.8-28.8c7.7-14.8,18-27.7,29.1-40c4.6-5.1,10.5-8.1,17-10
		c3.7-1,7.4-0.1,10.9,1.1c12.1,4.2,22.5,11.4,30.8,21.1c4,4.6,5.1,10.6,2.3,16.9c-4.4,9.6-11.6,16.6-19.3,23.4
		c-8.9,7.8-18.6,14.5-28.3,21c-9.5,6.4-19.3,12.5-31,14.6C545.9,355.8,532.4,351.2,533.4,334.8z"/>
	<path class="st0" d="M563.9,372.1c-2.4,0.1-4.9,0.2-5.9-2.4c-1-2.6,1.1-4.4,2.7-6.1c11.9-13.1,26.8-22.5,41.8-31.5
		c12.1-7.3,23.5-16.1,37.6-19.6c3.3-0.8,6.6-3.9,9.9,0.1c3.4,4,3.8,7.9,1.8,13.1c-3.6,9.4-11,14.9-18.7,19.9
		c-13,8.4-27.1,14.8-41.7,19.8C582.4,368.4,573.3,371.1,563.9,372.1z"/>
	<path class="st1" d="M536.5,339c2.8-19.6,12.2-36,23.4-51.5c5.6-7.8,11.3-15.4,19.1-21.2c10.4-7.7,20.1-8.2,31.1-1.5
		c6.7,4.1,13.3,8.2,17.7,14.9c2.5,3.7,3.5,7.9,4.4,12.9c-4.4-1.8-5.9-5.3-8-7.9c-5.5-6.8-12.6-11-21-11.8c-8-0.7-15.1,3-21.3,8.1
		c-18.7,15.3-31.4,35.2-43.2,55.8C538.2,337.5,538.1,338.7,536.5,339z"/>
	<path class="st1" d="M563.6,367c8.6-3.3,17.2-6.7,25.8-9.9c16.3-5.9,32-12.7,44.6-25c5.1-4.9,9.6-10.5,10.8-18.5
		c4.2,4.6,4.4,8.7,1.7,13.4c-4.9,8.6-12.9,13.6-21.1,18.2C606.2,356.2,585.8,364.4,563.6,367z"/>
</g>
</svg>
