<?xml version="1.0" encoding="utf-8"?>
<!-- Generator: Adobe Illustrator 23.0.1, SVG Export Plug-In . SVG Version: 6.00 Build 0)  -->
<svg version="1.1" id="Layer_4" xmlns="http://www.w3.org/2000/svg" xmlns:xlink="http://www.w3.org/1999/xlink" x="0px" y="0px"
	 viewBox="0 0 1000 1000" style="enable-background:new 0 0 1000 1000;" xml:space="preserve">
<style type="text/css">
	.st0{fill:#FEFEFE;}
	.st1{fill:#C0FEFE;}
</style>
<g>
	<path class="st0" d="M514.7,270c-0.4,19.3-2,38.5-8.9,56.7c-2.8,7.3-6.3,14.4-13.5,18.4c-7.4,4.1-15.5,2-20.5-4.9
		c-9.8-13.7-15.9-29-19.5-45.3c-2.1-9.3-3.9-18.6-4.8-28.1c-0.9-10-0.1-20.1,8.6-27.1c5.5-4.5,12.4-5.9,19.1-7.7
		c9-2.3,18.1-2.3,27.1-0.5c5.7,1.1,9.5,5.6,10.4,11.5C514,252,515,261,514.7,270z"/>
	<path class="st0" d="M511.7,328.1c1.4-12.6,2.4-25.3,4.6-37.9c2.3-12.8,4.7-25.5,8.2-37.9c1.3-4.5,2.3-9.1,4.4-13.4
		c1.5-3,3.1-3,5.7-1.7c11.7,6,15.6,18.6,13.8,29.9c-1.7,10.9-4,21.7-7.4,32.2c-4.1,12.5-9.3,24.4-15.5,35.9
		c-1.1,2.1-2.1,4.3-3.4,6.2c-1.5,2.2-3.8,3.9-6.5,3.1c-2.4-0.7-3.1-3.1-2.9-5.5C513.1,335.3,510.9,331.9,511.7,328.1z"/>
	<path class="st1" d="M507.4,239c-6.7,0.7-12.4,0-18,1.1c-19.1,3.7-26,15.8-25.3,33.9c0.6,15.4,3.4,30.5,7.7,45.3
		c2,6.8,4.3,13.5,6.7,21c-2.7-1.4-3.9-3.2-5.1-5c-11.2-17.2-17.2-36.1-20.3-56.3c-1.3-8.8-1.1-17.4,0.8-26c1.1-4.9,3.4-8.8,7.9-11.1
		c11.1-5.8,22.4-10.2,35.3-7.6C500.5,235.1,503.7,236.4,507.4,239z"/>
	<path class="st1" d="M530.7,240.4c9.2,1.9,11.9,8.7,14.1,15.8c2.4,7.7,0.1,15.1-1.8,22.4c-4.5,17.3-9.5,34.4-18.5,50.1
		c-2,3.4-4.1,6.8-7,9.8c3.3-9.1,6.2-18.4,10.1-27.1c5.5-12,6.9-24.9,9.4-37.6C539.4,262.1,536.4,251.4,530.7,240.4z"/>
</g>
</svg>
