<?xml version="1.0" encoding="utf-8"?>
<!-- Generator: Adobe Illustrator 23.0.1, SVG Export Plug-In . SVG Version: 6.00 Build 0)  -->
<svg version="1.1" id="Layer_4" xmlns="http://www.w3.org/2000/svg" xmlns:xlink="http://www.w3.org/1999/xlink" x="0px" y="0px"
	 viewBox="0 0 1000 1000" style="enable-background:new 0 0 1000 1000;" xml:space="preserve">
<style type="text/css">
	.st0{fill:#FEFEFE;}
	.st1{fill:#C0FEFE;}
</style>
<g>
	<path class="st0" d="M540.3,290c6.8,0.1,12-0.1,17.3,0.9c4.8,0.9,8.9,6.4,9.8,13.2c3,21.1-3.6,40.4-10.6,59.7
		c-4.1,11.2-9.5,21.7-16.9,31c-4,5.1-9.4,8.6-15.6,10.3c-4.4,1.2-10.5-2.8-13.6-8c-6.2-10.5-8.4-22-9.7-33.9
		c-1-8.6-2.5-17.2-1.8-25.9c0.8-9.8,1.1-19.7,4-29.3c3.2-10.6,11.3-15.2,21.3-17C530.1,290,535.9,289.6,540.3,290z"/>
	<path class="st0" d="M601.5,323.8c0.5,9.3-2.8,17.7-6.4,25.7c-8.3,18.4-19,35.4-32.1,50.8c-2.4,2.8-4.2,6.1-7.8,7.6
		c-1.5,0.6-3,2.3-4.8,0.5c-1.8-1.8-3.1-3.8-2.6-6.4c4.7-25.3,14.1-49,25.7-71.8c2.9-5.6,6.4-10.9,9.4-16.4c1.9-3.5,4.9-6.2,8.5-5.9
		c4.1,0.3,6.8,4.1,8.6,7.7C601.4,318.1,602,321,601.5,323.8z"/>
	<path class="st1" d="M515.4,397.8c-5.6-8.1-7.8-15.9-9-24.2c-1.7-12-3.6-24.1-3.3-36.2c0.2-9.5,1.1-19.1,4.9-28.1
		c2.6-6.3,6.5-11.6,13.1-13.6c12.7-3.9,25.5-4.6,38,1.3c0.7,0.3,1.4,0.8,2.1,1.2c0.2,0.1,0.2,0.6,0.5,1.5c-3.2,0-6.2,0-9.2,0
		c-3.6,0.1-7.2-0.3-10.7,0.4c-15.9,2.9-23.5,10.7-25.9,27.6c-1.8,12.5-3.5,25.1-3,37.7c0.3,9.3,1.7,18.7,2.6,28
		C515.5,394.4,515.4,395.4,515.4,397.8z"/>
	<path class="st1" d="M553.8,403.7c4.9-9,10.2-17.5,17-25c5-5.5,6.9-12.7,9.5-19.5c3.8-10.2,8.7-19.8,10.1-30.8
		c0.7-5.7,0.3-11.2-1.2-16.9c5.9,2,9.3,7.5,8.4,14.3c-1,7.6-2.7,14.9-6.2,21.9c-7.6,15.1-14.9,30.3-26.1,43.2
		C561.5,395.2,557.6,399.4,553.8,403.7z"/>
</g>
</svg>
