<?xml version="1.0" encoding="utf-8"?>
<!-- Generator: Adobe Illustrator 23.0.1, SVG Export Plug-In . SVG Version: 6.00 Build 0)  -->
<svg version="1.1" id="Layer_4" xmlns="http://www.w3.org/2000/svg" xmlns:xlink="http://www.w3.org/1999/xlink" x="0px" y="0px"
	 viewBox="0 0 1000 1000" style="enable-background:new 0 0 1000 1000;" xml:space="preserve">
<style type="text/css">
	.st0{fill:#FEFEFE;}
	.st1{fill:#C0FEFE;}
</style>
<g>
	<path class="st0" d="M463,296.8c-0.1,6.5-0.4,11.6-2,16.5c-5,15.7-17.9,16-28.4,7.4c-19.2-15.9-32.4-36.6-42.7-59
		c-4.3-9.3-7.4-19.5-3.3-30.3c1.3-3.5,3.4-6.2,5.7-8.6c9.2-9.7,20.3-16.1,33.5-18.5c4-0.7,10,3.5,13,8.4c11.5,19,16.8,40,21.3,61.3
		C461.7,281.9,461.7,290.1,463,296.8z"/>
	<path class="st0" d="M485.3,266.9c0.2,13.5-0.8,26.1-2,38.6c-0.1,1.4-0.5,2.8-1,4.1c-1.2,2.8-4.3,3.3-6.3,0.9
		c-3.7-4.6-5.6-10.2-7.3-15.8c-4.4-14.2-7.5-28.7-10.4-43.2c-1.7-8.4-3-16.9-3.4-25.6c-0.2-4.9-1.1-9.6-0.1-14.7
		c0.7-3.8,1.4-7.5,4.9-8.6c3.8-1.3,7.8,0.4,11,3.1c6.6,5.5,9.5,13.2,10.6,21.3C483,240.5,486.3,254,485.3,266.9z"/>
	<path class="st1" d="M432.9,210.5c-12.6,2.4-22.7,7.1-28.4,18.6c-4.2,8.5-3.4,16.9-0.4,25.5c5.1,14.6,12.4,28.2,20.2,41.5
		c5.1,8.7,11.4,16.5,16.6,25.2c-6.1-3.6-11.5-8-16.1-13.2c-11.7-13.1-22-27.2-29.6-43.1c-4.6-9.7-8.1-19.8-5.7-31
		c0.4-2,1.1-3.7,2.3-5.3c7.6-9.6,17-16.4,28.9-19.4C424.6,208.3,428.5,208.8,432.9,210.5z"/>
	<path class="st1" d="M478,306.1c-1.5-7.3,0.7-13.5,0.6-19.8c-0.5-20.8-3.4-41.3-8-61.5c-1.6-6.9-4.5-13.5-10.4-18.1
		c4.6-0.9,8.1,0.9,11.3,5c5.1,6.5,5.6,14.3,6.9,22c2.6,14.9,3.6,30,2.8,45C480.9,287.5,481,296.5,478,306.1z"/>
</g>
</svg>
