<?xml version="1.0" encoding="utf-8"?>
<!-- Generator: Adobe Illustrator 23.0.1, SVG Export Plug-In . SVG Version: 6.00 Build 0)  -->
<svg version="1.1" id="Layer_4" xmlns="http://www.w3.org/2000/svg" xmlns:xlink="http://www.w3.org/1999/xlink" x="0px" y="0px"
	 viewBox="0 0 1000 1000" style="enable-background:new 0 0 1000 1000;" xml:space="preserve">
<style type="text/css">
	.st0{fill:#FEFEFE;}
	.st1{fill:#C0FEFE;}
</style>
<g>
	<path class="st0" d="M507,269.8c-1.5,13.9-0.3,29-6.1,43.1c-2.7,6.5-4.8,13.5-12.4,16.6c-5.4,2.2-11.5,1.2-16.5-3.5
		c-7.4-6.8-12.2-15.5-16.9-24.1c-8.8-16.4-13.9-34.2-16.5-52.6c-1.6-10.8,2.5-19.9,12.2-25.6c10.7-6.3,22.2-10.1,34.8-9.9
		c7.7,0.1,13.1,5.4,15.3,11.7C505.7,239.7,506.2,254.4,507,269.8z"/>
	<path class="st0" d="M508.7,292.6c1.2-18.8,1.5-37.7,5.8-56.2c0.8-3.5,1.5-7.1,1.9-10.7c1-8.2,6-9,13.1-4
		c8.4,5.9,10.5,15.2,9.4,24.8c-0.8,6.6-1.5,13.3-2.6,19.9c-2.2,14.3-6,28-10.6,41.7c-1.7,5.1-3.5,10.2-6.9,14.4
		c-1,1.3-2.1,3.4-4.2,2.7c-2.3-0.7-3.6-2.9-3.8-5.1C509.9,310.9,508.5,301.8,508.7,292.6z"/>
	<path class="st1" d="M492.8,221.1c-7.6,0.8-15,1.5-22.2,4.6c-7.1,3.1-11.2,8.5-13.6,15.6c-2.5,7.3-1.5,14.7-0.6,22.1
		c2.5,21,10.9,39.9,19.2,59c0.2,0.6,0.4,1.1,0.9,2.5c-6.8-4.5-10.4-10.5-13.8-16.7c-7.9-14.6-14.5-29.8-17.8-46.2
		c-1.1-5.4-1.9-10.9-1.6-16.4c0.4-8.9,3.9-16,11.9-20.4C467.2,218.4,479.4,214.7,492.8,221.1z"/>
	<path class="st1" d="M515.6,318.1c0.8-2.5,1.7-5.1,2.5-7.6c5.3-16.2,8.6-32.9,10.3-49.9c0.7-7.1,0.9-14.1,0.2-21.3
		c-0.6-5.8-3.3-9.6-7.1-13.3c-0.8-0.8-2.7-1.6-1.8-3c0.9-1.5,2.8-1.5,4.4-0.9c5.8,2.1,8.4,6.8,10,12.3c2.3,7.7,0.8,15.6-0.3,23.2
		c-1.6,11.2-3.1,22.5-6.5,33.4C524.4,300.3,521.5,309.8,515.6,318.1z"/>
</g>
</svg>
