<?xml version="1.0" encoding="utf-8"?>
<!-- Generator: Adobe Illustrator 23.0.1, SVG Export Plug-In . SVG Version: 6.00 Build 0)  -->
<svg version="1.1" id="Layer_4" xmlns="http://www.w3.org/2000/svg" xmlns:xlink="http://www.w3.org/1999/xlink" x="0px" y="0px"
	 viewBox="0 0 1000 1000" style="enable-background:new 0 0 1000 1000;" xml:space="preserve">
<style type="text/css">
	.st0{fill:#FEFEFE;}
	.st1{fill:#C0FEFE;}
</style>
<g>
	<path class="st0" d="M534.2,293.3c-0.7,21.4-4.8,42.6-14.7,62.4c-3.5,6.9-7.6,13.6-12.5,19.5c-3.1,3.7-7.1,7.2-11.4,9.3
		c-6.6,3.2-14.2,1.7-19.8-8.1c-6-10.6-8.5-22.3-9.9-34.3c-0.6-5.5-1.8-11.1-1.8-16.6c-0.1-11,1-22.1,3.1-32.9c2-10,8-16.3,18.1-19.2
		c13.1-3.8,26.1-3.3,39.2-0.3c6.6,1.6,9.3,6.1,9.7,14.9C534.2,289.5,534.2,291.1,534.2,293.3z"/>
	<path class="st0" d="M567.6,307.1c-0.9,6.1-1.8,12-4.3,17.3c-8.3,17.6-17.1,34.9-29.1,50.4c-3.1,4-6.3,8.1-10,11.6
		c-1.8,1.7-3.7,4.3-6.5,2.7c-2.9-1.6-3.7-4.9-3-8.1c1.7-7.5,3.1-15.1,5.8-22.4c6.7-18.7,13.5-37.3,22.6-55c2.1-4.2,5-8.1,7.6-12
		c1.6-2.4,3.6-3.2,6.5-1.5C564,293.9,566.1,300.4,567.6,307.1z"/>
	<path class="st1" d="M480.6,377.3c-4.4-6.6-6.8-13.5-8.3-21.1c-3.6-18.1-5.1-36.3-2.4-54.6c2.2-15.1,8.1-24.3,24.7-26.8
		c13.9-2.1,25.8-0.6,35,6.7c-2.4,1-4.5,0.7-6.6,0.3c-7.6-1.3-15.3-1.3-22.7,0.8c-8.4,2.4-13.9,8.3-16.7,16.3
		c-2.8,8.1-3.3,16.8-4.1,25.3c-1.8,17.3-0.7,34.6,1.8,51.8C481.3,376.4,481,376.6,480.6,377.3z"/>
	<path class="st1" d="M519.8,383.5c2.1-3.2,4-6.5,6.3-9.5c12.6-17.4,21.9-36.4,28.7-56.7c2.5-7.5,3.1-14.9-2.5-21.7
		c7.1-0.6,12.1,5.2,11,12.5c-1.1,6.9-3.3,13.6-6.2,19.9c-7.9,17.2-17.5,33.3-29.1,48.3c-2.2,2.9-5,5.3-7.5,7.9
		C520.3,384,520.1,383.8,519.8,383.5z"/>
</g>
</svg>
