<?xml version="1.0" encoding="utf-8"?>
<!-- Generator: Adobe Illustrator 23.0.1, SVG Export Plug-In . SVG Version: 6.00 Build 0)  -->
<svg version="1.1" id="Layer_4" xmlns="http://www.w3.org/2000/svg" xmlns:xlink="http://www.w3.org/1999/xlink" x="0px" y="0px"
	 viewBox="0 0 1000 1000" style="enable-background:new 0 0 1000 1000;" xml:space="preserve">
<style type="text/css">
	.st0{fill:#FEFEFE;}
	.st1{fill:#C0FEFE;}
</style>
<g>
	<path class="st0" d="M524.5,282.2c-0.3,12.6-1.3,26.9-5,40.9c-4.2,15.5-11.8,29-23.7,40c-5.4,4.9-16.1,3.3-20.2-2.7
		c-9.1-13.2-13-28.2-15.7-43.7c-2-11.6-3.2-23.2-2.8-34.9c0.2-4.6,0.6-9.2,1.9-13.6c2.7-9.3,10-13.5,18.4-16.1
		c9.1-2.8,18.5-3.1,28-3c12.5,0.1,15.8,5.7,18,15.5C524.6,269.8,524.3,275.1,524.5,282.2z"/>
	<path class="st0" d="M558.8,283.2c-1.3,8.3-3.5,16.6-6.6,24.8c-5.4,14-11.5,27.7-18.9,40.7c-2.8,5-6.3,9.5-9.8,14
		c-1.5,2-3.7,4.4-6.4,3.1c-3-1.4-3.9-4.7-3.3-7.9c1.3-7.3,1.8-14.8,3.8-22c4.2-14.9,7-30.1,11.7-44.8c2.8-8.9,6.7-17.3,10.6-25.8
		c2.5-5.5,5.2-6,9.3-1.7C554.3,269,558.3,275,558.8,283.2z"/>
	<path class="st1" d="M479,358c-5.2-5.5-7-12.1-9.1-18.3c-5.6-16.7-9.2-33.8-8.9-51.5c0.1-6.7,1.6-13.2,3.4-19.6
		c2.2-7.9,8.7-11,15.7-13.1c9.4-2.7,19-3.7,28.8-1.8c2.8,0.6,5.1,1.7,7.8,3.4c-7,1.9-13.8,1.7-20.4,2.3c-12,1.1-18.2,8.4-21.8,18.7
		c-3,8.7-2.9,17.6-2.4,26.8c0.8,15.8,4.4,31.1,6.2,46.6C478.7,353.6,479.9,355.4,479,358z"/>
	<path class="st1" d="M520.4,358.4c4.7-9.3,9-18.9,12.9-28.6c3.8-9.5,7.9-18.9,11.5-28.4c4.4-11.8,3.8-23.5-2.4-34.9
		c7.9,1.1,13.8,9,12.1,17.6C548.9,311.4,537.7,336.3,520.4,358.4z"/>
</g>
</svg>
