<?xml version="1.0" encoding="utf-8"?>
<!-- Generator: Adobe Illustrator 23.0.1, SVG Export Plug-In . SVG Version: 6.00 Build 0)  -->
<svg version="1.1" id="Layer_4" xmlns="http://www.w3.org/2000/svg" xmlns:xlink="http://www.w3.org/1999/xlink" x="0px" y="0px"
	 viewBox="0 0 1000 1000" style="enable-background:new 0 0 1000 1000;" xml:space="preserve">
<style type="text/css">
	.st0{fill:#FEFEFE;}
	.st1{fill:#C0FEFE;}
</style>
<g>
	<path class="st0" d="M474.8,291.4c-1.1,9.3-1.2,18.9-6,27.6c-4.2,7.7-9.7,9.6-18.1,6.4c-5.1-2-8.7-5.5-12-9.3
		c-11.2-13.4-21.7-27.3-28.9-43.4c-4.3-9.7-8.3-19.5-9.2-30.1c-0.5-5.8,0.9-12,5-16.4c6.9-7.5,14.4-14.3,24.4-17.9
		c9.6-3.4,26,3.3,30,12.7c5.2,12.3,8.5,25,10.9,38.1C472.8,269.7,473.6,280.5,474.8,291.4z"/>
	<path class="st0" d="M500,248.2c-1.5,19.6-1.2,39.3-5.9,58.6c-0.8,3.2-1.3,8-4.5,8.2c-3.7,0.3-5.1-4.3-6.1-7.6
		c-3.5-11-4.9-22.5-6.9-33.9c-2.2-12.7-3.5-25.6-4.7-38.4c-0.8-8.3-0.4-16.7,1.9-24.8c2-6.9,8.7-8.5,13.8-3.5
		c7.1,7,10.5,15.7,11.4,25.4C499.4,237.5,500.9,242.8,500,248.2z"/>
	<path class="st1" d="M450.2,322.3c-6.3-5.2-11.3-11-16.2-16.9c-9.3-11.2-16.4-23.8-22.3-37c-3.8-8.5-6.1-17.5-7.1-26.7
		c-0.6-5.7,1.9-11.2,5.7-15.6c6.4-7.5,14.3-12.6,23.7-15.4c3.8-1.1,6.9,0.6,11.6,1.9c-7.9,1.5-13.6,4.5-18.7,8.6
		c-9.7,7.9-11.5,18.4-8.4,29.9c6.3,23.4,16.2,45.2,29.2,65.6C448.7,318.2,450.5,319.4,450.2,322.3z"/>
	<path class="st1" d="M488.3,310.9c0.7-8.4,1.4-16.7,2.2-25.1c1.1-10.5,0.9-21,0.1-31.6c-0.7-8.1-1-16.1-2.1-24.2
		c-1-7.3-2.9-14-9.5-18.3c-0.3-0.2-0.4-0.8-0.6-1.2c6.3-1.3,8.9,0,11.7,4.9c3.4,6.1,4.1,13,4.9,19.7c1.2,9.3,1.6,18.8,1,28.2
		c-1,15.2-2.2,30.4-6,45.2c-0.2,0.9-0.7,1.8-1,2.6C488.8,311.1,488.6,311,488.3,310.9z"/>
</g>
</svg>
