<?xml version="1.0" encoding="utf-8"?>
<!-- Generator: Adobe Illustrator 23.0.1, SVG Export Plug-In . SVG Version: 6.00 Build 0)  -->
<svg version="1.1" id="Layer_4" xmlns="http://www.w3.org/2000/svg" xmlns:xlink="http://www.w3.org/1999/xlink" x="0px" y="0px"
	 viewBox="0 0 1000 1000" style="enable-background:new 0 0 1000 1000;" xml:space="preserve">
<style type="text/css">
	.st0{fill:#FEFEFE;}
	.st1{fill:#C0FEFE;}
</style>
<g>
	<path class="st0" d="M557.2,318.4c-13,0-19.2-8.7-16.7-20.7c2.8-13.4,11.3-23.1,19-33.4c8.1-10.7,17.8-19.7,28.2-28.1
		c5.3-4.3,11-8.1,17.8-9.4c2.4-0.5,5-0.4,7.5,0.7c14.3,5.8,25.9,14.7,33.6,28.2c4.2,7.3,2.7,15.5-3.5,21.5
		c-13.3,13.1-29.1,22.4-45.7,30.5c-10.8,5.3-21.9,9.1-33.9,9.7C561.2,317.5,559,319.2,557.2,318.4z"/>
	<path class="st0" d="M574.2,337.9c-6-0.1-11.7,0.9-13-3.4c-1.2-4.1,3.8-6.7,7.2-8.9c16.4-10.6,34-18.5,52-25.8
		c8.9-3.6,18.2-6.1,27.3-8.9c4.9-1.5,9-1,11.9,3.2c3,4.3,0.9,8.6-1.1,12.5c-2.4,4.7-6.6,7.7-11.1,10.2
		c-13.9,7.7-28.7,12.9-44.2,16.3C593.1,335.3,582.8,337.3,574.2,337.9z"/>
	<path class="st1" d="M644.8,267.8c-2.4-1.8-3.7-4.4-5.4-6.6c-4.9-6.6-10.4-12.9-18.5-15c-10-2.6-19.5,0.3-28.3,5.5
		c-14.9,8.9-25.4,22.5-37.1,34.8c-4.1,4.3-7.7,9-11.9,13.4c4-11.3,9.3-21.7,17-31c7.6-9.1,15.4-17.9,24.6-25.5
		c5.2-4.3,10.6-8.1,16.8-10.5c7.2-2.8,14.4-1.9,20.8,2.7c10.1,7.3,19.8,15,22.2,28.3C645.3,265.1,645.9,266.4,644.8,267.8z"/>
	<path class="st1" d="M653.9,293.1c3.8,7.1,1.3,15.1-5.8,19.6c-9.2,5.9-19.6,8.6-29.6,12.2c-16.5,6-33.7,7.4-51,9.1
		c-0.6,0.1-1.2-0.1-1.9-0.5c10.9-2.3,21.9-4,32.6-7.2c16.3-5,32.4-10.6,47.1-19.5c3.7-2.2,4.9-5.9,6.6-9.4
		C652.7,296,652.7,294.2,653.9,293.1z"/>
</g>
</svg>
