<?xml version="1.0" encoding="utf-8"?>
<!-- Generator: Adobe Illustrator 23.0.1, SVG Export Plug-In . SVG Version: 6.00 Build 0)  -->
<svg version="1.1" id="Layer_4" xmlns="http://www.w3.org/2000/svg" xmlns:xlink="http://www.w3.org/1999/xlink" x="0px" y="0px"
	 viewBox="0 0 1000 1000" style="enable-background:new 0 0 1000 1000;" xml:space="preserve">
<style type="text/css">
	.st0{fill:#FEFEFE;}
	.st1{fill:#C0FEFE;}
</style>
<g>
	<path class="st0" d="M526.4,216.9c-1.2,18.7-2.9,37.4-10.9,54.7c-1.6,3.4-3.5,6.7-6.1,9.6c-8.2,9-14.9,6.4-23.3,0.3
		c-4.8-3.5-7.2-8.8-9.6-14.1c-5.4-11.6-10.4-23.3-13-35.9c-1.9-9-3.6-18.1-4.4-27.2c-1.2-13.6,9.3-27.2,22.7-30.3
		c8.8-2.1,17.5-3.9,26.9-2.3c7.6,1.3,11.5,5.6,13.6,12.1c1.9,5.7,3.3,11.6,3.1,17.7C525.2,206.6,527.3,211.6,526.4,216.9z"/>
	<path class="st0" d="M525.3,262.3c0.6-12,2.1-26.3,4.8-40.5c2.2-11.7,4-23.4,8-34.6c3.2-9,8.2-9.7,15-3.6c6.7,6,7.1,14.5,6.3,22.7
		c-1,10.6-3.4,20.9-6.7,31c-4.9,15-10.3,29.8-18.7,43.3c-1,1.6-2.3,4.1-4.8,3.4c-2.2-0.6-2.4-3-2.9-5
		C525.1,274.2,525.5,269.4,525.3,262.3z"/>
	<path class="st1" d="M513.3,178.4c-6.9,0-13.6,0.4-20.2,2.5c-11.2,3.5-18.7,15.9-17.4,30.1c1.1,12.2,1.9,24.5,4.6,36.6
		c2.1,9.2,4.8,18.2,8,27c0.5,1.5,1.1,3,2,5.6c-3.7-3-5.8-6.1-7.5-9.1c-9.9-17.5-15.5-36.3-18-56.2c-0.8-6.2-1.2-12.2-0.1-18.4
		c1.5-8.7,6-14.9,14.1-17.8C493.9,173.4,501.6,171.9,513.3,178.4z"/>
	<path class="st1" d="M542.8,183.8c8.7,0.7,12.6,5.7,12.8,15.2c0.2,10.8-2.6,21.2-5.1,31.6c-3.8,15.9-10.9,30.5-18.4,44.9
		c-0.2,0.4-0.6,0.7-1.5,0.8c1.1-2.9,2.2-5.8,3.4-8.6c8.7-19.7,13.2-40.6,16.4-61.8C551.6,198.2,550.1,190.3,542.8,183.8z"/>
</g>
</svg>
