<?xml version="1.0" encoding="utf-8"?>
<!-- Generator: Adobe Illustrator 23.0.1, SVG Export Plug-In . SVG Version: 6.00 Build 0)  -->
<svg version="1.1" id="Layer_4" xmlns="http://www.w3.org/2000/svg" xmlns:xlink="http://www.w3.org/1999/xlink" x="0px" y="0px"
	 viewBox="0 0 1000 1000" style="enable-background:new 0 0 1000 1000;" xml:space="preserve">
<style type="text/css">
	.st0{fill:#FEFEFE;}
	.st1{fill:#C0FEFE;}
</style>
<g>
	<path class="st0" d="M526.3,374.5c0.6-11.3,4.1-22.7,8-33.9c5.4-15.5,13-30,23.2-42.7c7.5-9.4,18.5-11.5,30.3-8.5
		c10.2,2.6,19.2,7.7,26.8,14.5c7.7,6.8,9.2,15.3,1.7,26.5c-10.6,15.7-22.7,30-37.7,41.8c-7.5,5.9-14.6,12.5-23.5,16.1
		c-6.9,2.8-14,5.2-21.5,1.2C529.4,387.2,526.7,384.6,526.3,374.5z"/>
	<path class="st0" d="M641.6,349.3c0.1,6.2-2.9,11-7.3,14.9c-7.8,6.8-15.6,13.7-24.2,19.4c-13.1,8.6-26.2,17-41.3,21.9
		c-3,1-6,2.8-9.6,1.1c-2.6-1.2-3.2-2.8-2.1-4.9c0.9-2,2-3.9,3.4-5.6c9.3-11.2,20.1-20.9,30.9-30.7c11.6-10.5,24.3-19.5,37.2-28.2
		c7-4.7,11.6-1.2,13,9.2C641.7,347.3,641.6,348.3,641.6,349.3z"/>
	<path class="st1" d="M617,317.1c-6-3.5-10.2-8.1-15.9-10.7c-12.1-5.6-27-2.3-35.3,8.2c-13.6,17.2-23.6,36.4-31.6,56.8
		c-0.9,2.2-1.7,4.5-3.7,6.9c-1.2-8.1,1.3-15.1,3-22.2c3.2-12.8,7.8-25.1,14.3-36.6c4.8-8.5,10.6-16.5,18.3-22.5
		c10.8-8.4,21.9-4.6,32.5,0.6C607.9,302,614.9,309.6,617,317.1z"/>
	<path class="st1" d="M561,402.2c2.6-1.3,5-2.6,7.5-3.8c20.8-10.3,39.6-23.5,56.4-39.5c2.3-2.2,4.2-4.9,6-7.6
		c1.9-2.9,1.9-6.1,0.9-9.3c-0.3-1.1-1.6-2.6,0-3.4c1.4-0.7,2.2,1,3.1,1.9c4.6,4.7,5,9.2,1.3,15c-5.8,8.8-13.7,15.5-22.3,21.4
		c-15.6,10.8-31.8,20.3-50.1,25.5C563,402.6,562.3,403.3,561,402.2z"/>
</g>
</svg>
