<?xml version="1.0" encoding="utf-8"?>
<!-- Generator: Adobe Illustrator 23.0.1, SVG Export Plug-In . SVG Version: 6.00 Build 0)  -->
<svg version="1.1" id="Layer_4" xmlns="http://www.w3.org/2000/svg" xmlns:xlink="http://www.w3.org/1999/xlink" x="0px" y="0px"
	 viewBox="0 0 1000 1000" style="enable-background:new 0 0 1000 1000;" xml:space="preserve">
<style type="text/css">
	.st0{fill:#FEFEFE;}
	.st1{fill:#C0FEFE;}
</style>
<g>
	<path class="st0" d="M513.7,207c-0.1,15.8-1.2,29.9-6,43.4c-2.2,6.2-5.4,11.9-10.5,16.2c-5.8,5-16.6,2.2-22.9-5.7
		c-4.9-6.1-8.8-12.8-12.4-19.6c-7.4-13.8-12.8-28.6-15.4-44c-1.5-8.7-3.4-18,2-26.6c2.2-3.5,4.8-6.8,8.3-8.6
		c11.8-6.5,24.3-10.8,38.1-10c5.9,0.4,9.2,4.1,11.3,8.9c4,9.1,5.5,18.8,6.3,28.6C513.1,196,514.6,202.2,513.7,207z"/>
	<path class="st0" d="M515.6,229.1c-0.4-15.1,1.9-30.6,3.7-46.2c0.8-6.8,2-13.4,4.1-19.9c1.4-4.3,4-5.5,8.9-4
		c10.7,3.4,14.6,14.4,13.3,24.7c-1.2,9.7-2.6,19.5-4.4,29.1c-2.4,12.8-6.4,25-10.5,37.2c-1.2,3.6-2.8,7-5,10.1
		c-1.1,1.6-1.8,3.7-4.1,3.4c-2.3-0.3-3.4-2.6-3.8-4.5c-1-5.1-1.7-10.4-2.1-15.6C515.4,239,515.6,234.4,515.6,229.1z"/>
	<path class="st1" d="M481.7,263c-4.9-3.5-8.2-8.4-10.9-13.3c-8.7-16-16.4-32.5-20-50.5c-1.4-7.1-2.5-14.3-0.4-21.7
		c2.6-9.1,9-14,17.3-17.1c6.7-2.5,13.7-4,20.8-5c4.7-0.7,8.9,0.9,13.2,4.1c-5.3,1.5-10.1,0.4-14.8,1.4c-15.7,3.3-22.2,9.3-24.6,24.7
		c-1,6.8,1.1,13.5,2.1,20.2c2.8,19.1,9.7,37,17,54.7C481.6,261.2,482.3,261.8,481.7,263z"/>
	<path class="st1" d="M522.4,255.5c2.1-7.1,4-14.2,6.2-21.3c3-9.9,3.8-20.3,5.5-30.5c1-5.9,1.4-11.9,1.9-17.8
		c0.5-5.9-0.4-11.5-2.7-17.1c-1.2-2.9-4-3.9-6.3-6c6.7-1.3,12.3,2.8,14,9.7c1.8,7.4,1,14.8-0.1,22.2c-2.4,15.9-5.6,31.6-11.2,46.7
		c-1.8,4.9-4.1,9.6-6.2,14.4C523.1,255.8,522.7,255.6,522.4,255.5z"/>
</g>
</svg>
