<?xml version="1.0" encoding="utf-8"?>
<!-- Generator: Adobe Illustrator 23.0.1, SVG Export Plug-In . SVG Version: 6.00 Build 0)  -->
<svg version="1.1" id="Layer_4" xmlns="http://www.w3.org/2000/svg" xmlns:xlink="http://www.w3.org/1999/xlink" x="0px" y="0px"
	 viewBox="0 0 1000 1000" style="enable-background:new 0 0 1000 1000;" xml:space="preserve">
<style type="text/css">
	.st0{fill:#FEFEFE;}
	.st1{fill:#C0FEFE;}
</style>
<g>
	<path class="st0" d="M507,236.5c-0.6,15.3-1.6,31.6-9,46.7c-1.4,2.8-3.3,5.4-5.4,7.8c-4.9,5.6-8.3,6.2-15.2,3.2
		c-8.4-3.6-12.8-10.9-17.4-18.2c-10.2-16.1-15.8-34-20.3-52.2c-1.9-7.7-1.5-15.5,1-23.1c1.9-5.9,6.1-10.1,11.3-13.1
		c9.7-5.6,20.4-9.1,31.6-8.7c15.2,0.5,15.7,0.5,19.2,15.5C505.8,207.8,506.7,221.6,507,236.5z"/>
	<path class="st0" d="M508.8,258c0.9-22.8,2-45.6,7.8-67.8c0.8-3,1.5-6.4,4.7-7.3c3.3-0.9,5.9,1.5,8.4,3.5
		c9.1,7.3,9.8,16.5,8.8,27.6c-1.2,12.9-3.1,25.6-6.4,38c-3.3,12.2-6.3,24.7-13.2,35.7c-2,3.2-3.2,2.7-5.5,0.7
		c-2.7-2.5-3.3-6-3.4-9.1C509.6,272.1,507.8,265.1,508.8,258z"/>
	<path class="st1" d="M474.9,288.1c-6.5-5.1-10.6-12.1-14.3-19.3c-8.3-15.9-15.1-32.6-16.9-50.5c-1.9-18.4,2.9-27.1,19.3-32.3
		c4.6-1.5,9.5-2.3,14.1-3.6c6.4-1.8,12.1,0,18.6,3.6c-5.5,0.6-10,1-14.5,1.5c-15.6,2-27.7,13.3-25.6,32.5c2,17.7,5.9,34.8,12.1,51.4
		C469.9,277.1,473.1,282.2,474.9,288.1z"/>
	<path class="st1" d="M515.7,283c2.4-7.7,5-15.3,7.1-23c3.4-12.5,5.2-25.3,5.6-38.3c0.2-5.5,1.7-11,0.6-16.4
		c-1.3-6.1-2.4-12.5-8.9-17.4c6.4,0,9.7,2.8,12.1,6.7c2.7,4.3,3.4,9.1,2.9,14.1c-2,20.3-4.3,40.6-11.5,59.9
		C521.7,273.6,519,278.4,515.7,283z"/>
</g>
</svg>
