<?xml version="1.0" encoding="utf-8"?>
<!-- Generator: Adobe Illustrator 23.0.1, SVG Export Plug-In . SVG Version: 6.00 Build 0)  -->
<svg version="1.1" id="Layer_4" xmlns="http://www.w3.org/2000/svg" xmlns:xlink="http://www.w3.org/1999/xlink" x="0px" y="0px"
	 viewBox="0 0 1000 1000" style="enable-background:new 0 0 1000 1000;" xml:space="preserve">
<style type="text/css">
	.st0{fill:#FEFEFE;}
	.st1{fill:#C0FEFE;}
</style>
<g>
	<path class="st0" d="M488.4,276.6c-1,13.2-0.4,26.5-5,39.2c-3.4,9.5-12.9,16.3-24.5,9c-10.1-6.3-15.9-15.9-21.4-25.6
		c-7.1-12.3-13.2-25.1-16.8-39c-3-11.8-4.7-23.5,3.1-34.1c6.6-9,16.4-13,27-15.1c4.5-0.9,8.9-1.2,13.7-0.3c5.3,1,8.1,4,10.6,8
		c4.7,7.6,7.6,16,9,24.8C485.7,254.5,488.9,265.3,488.4,276.6z"/>
	<path class="st0" d="M516.6,241.2c-0.9,17.4-2.2,34.7-5.7,51.9c-1.7,8.1-3.2,16.1-6.6,23.6c-1.6,3.5-3.1,3.2-5.7,0.9
		c-4.2-3.7-4.6-8.7-5.3-13.4c-1.4-9.2-1.5-18.6-2.3-27.8c-1.3-15.2-0.5-30.5-0.7-45.7c-0.1-4,0.4-8,1.1-12c0.6-3.2,2.2-6.2,5.9-6.6
		c4.8-0.5,9.3,0.5,12.6,4.4c4.4,5.3,6.4,11.6,6.8,18.4C516.7,236.9,516.6,239,516.6,241.2z"/>
	<path class="st1" d="M461.1,321.9c-4.2-0.7-6.4-4.1-8.8-7c-15-18.1-24.7-39-29.3-61.9c-4.5-22.6,4.6-31.1,24.5-37.9
		c10.1-3.5,13.2-2.7,20.6,1.3c-4.6,0.6-8.8,0.3-12.8,1.4c-13.8,3.8-23.6,20-21.3,34.1c3.9,24.3,13.6,46.3,26.4,67.1
		C460.8,319.8,461.9,320.4,461.1,321.9z"/>
	<path class="st1" d="M497.6,216.4c6.3-0.7,10.7,2.6,13.1,9.5c2.9,8.4,2.5,17.1,1.8,25.6c-0.9,11.1-1.6,22.3-3.6,33.3
		c-1.8,9.5-3.7,18.9-8.8,27.4c1.4-8.1,3-16.2,4-24.3c2.3-18.7,4.2-37.4,1.7-56.2C505,225.8,501.8,220.9,497.6,216.4z"/>
</g>
</svg>
