<?xml version="1.0" encoding="utf-8"?>
<!-- Generator: Adobe Illustrator 23.0.1, SVG Export Plug-In . SVG Version: 6.00 Build 0)  -->
<svg version="1.1" id="Layer_4" xmlns="http://www.w3.org/2000/svg" xmlns:xlink="http://www.w3.org/1999/xlink" x="0px" y="0px"
	 viewBox="0 0 1000 1000" style="enable-background:new 0 0 1000 1000;" xml:space="preserve">
<style type="text/css">
	.st0{fill:#FEFEFE;}
	.st1{fill:#C0FEFE;}
</style>
<g>
	<path class="st0" d="M506.9,272.6c0,15-1.6,27.6-5.1,39.9c-1.4,4.7-4.1,9.2-7.5,13.1c-7,8.2-16.4,6.4-23.2,0.3
		c-10.4-9.3-15.4-22-20.8-34.3c-3.9-8.8-7.2-17.8-9.3-27.2c-1.9-8.8-4.2-18-1.1-26.9c4-11.6,13.2-17.8,24.7-20.7
		c7.9-2,16-3.2,24.1-1c6.2,1.7,11,5.3,13.3,11.8c1.8,5,2.2,10.2,2.7,15.4C505.9,253.5,506.3,264.2,506.9,272.6z"/>
	<path class="st0" d="M508.7,289c1.3-20.2,1.8-40.5,6.8-60.4c1-4,1.6-7.9,6.5-8.8c4.1-0.8,9.6,2.5,12.2,7c4.6,8.1,5.2,16.5,4.1,25.7
		c-1.6,13.3-3.7,26.4-7.1,39.3c-2.8,10.5-6.2,20.9-11.7,30.4c-2.4,4.1-4.4,4-6.9,0c-1.9-3.1-2.8-6.6-2.7-9.9
		C510.1,304.4,508,296.8,508.7,289z"/>
	<path class="st1" d="M489.2,221.4c-6.8,0.7-13.2,1.8-19.3,4.5c-11.2,4.9-15.7,19.4-14.7,28.5c1.4,12.9,3.9,25.6,7.7,38
		c3.3,10.8,7.4,21.4,13,32.7c-4.8-3.1-6.9-7-9.1-10.5c-11.9-18.3-20-38.1-22.5-60c-0.5-4.3-0.8-8.6-0.4-13
		c1.3-14.3,14.3-20.4,25.2-22.7c5-1.1,10.2-2.2,15.4-0.2C486.1,219.3,487.9,219.6,489.2,221.4z"/>
	<path class="st1" d="M516.7,319.2c2.2-10.8,4.9-21.5,7.3-32.2c3-13.3,4.8-26.8,6.1-40.3c0.9-8.9-2.7-16.8-9-23.4
		c6-0.5,11.5,4.4,13.1,10.8c1.9,7.6,1.1,15.2-0.1,22.7c-2.9,17.4-5.6,34.9-12.5,51.3C519.9,311.9,518.3,315.5,516.7,319.2z"/>
</g>
</svg>
