<?xml version="1.0" encoding="utf-8"?>
<!-- Generator: Adobe Illustrator 23.0.1, SVG Export Plug-In . SVG Version: 6.00 Build 0)  -->
<svg version="1.1" id="Layer_4" xmlns="http://www.w3.org/2000/svg" xmlns:xlink="http://www.w3.org/1999/xlink" x="0px" y="0px"
	 viewBox="0 0 1000 1000" style="enable-background:new 0 0 1000 1000;" xml:space="preserve">
<style type="text/css">
	.st0{fill:#FEFEFE;}
	.st1{fill:#C0FEFE;}
</style>
<g>
	<path class="st0" d="M465.9,293.4c0.2,6.6-0.7,13.1-2.1,19.5c-3.1,14.1-13.5,16-24.5,9.8c-10.5-6-17.1-15.9-24-25.2
		c-9.9-13.4-17.6-28-23.4-43.7c-5.5-14.9-1.1-28.8,12-37.9c3.8-2.6,7.4-5.4,11.7-7.1c15.8-6.3,24.5-5.1,32.5,10.7
		c6.3,12.5,9.2,26.1,12.8,39.5C464,270.2,465.4,281.7,465.9,293.4z"/>
	<path class="st0" d="M489.3,267.1c-0.6,13.6-0.2,27.2-3.9,40.5c-0.6,2-0.8,4.6-3.2,4.7c-2.5,0.2-3.6-2.1-4.7-4.1
		c-5.3-9.7-7-20.6-9.5-31.1c-2.9-12.3-5.4-24.8-6.2-37.6c-0.4-7.3-2-14.6-1.8-22c0.1-3.5,0.4-7,1-10.5c1.1-5.7,7.9-7.6,12.4-3.7
		c7.4,6.6,11.7,15.2,12.8,24.9C487.6,241.2,490,254,489.3,267.1z"/>
	<path class="st1" d="M437.7,211.3c-5.6,2.1-11.3,1.3-16.3,4.3c-14.6,8.8-17.7,22.8-13.2,36.9c7.4,23.1,18.7,44.1,33.3,63.4
		c0.8,1.1,2.2,1.9,1.8,4.1c-6.8-2.5-10.8-8.2-15.3-13.1c-9.8-10.7-16.9-23.3-24.2-35.8c-5.5-9.3-9-19.4-10.1-30.2
		c-0.6-5.8,1-11.2,5.3-15.6c7-7.1,14.6-13.3,24.7-15.8C428.6,208.5,432.9,209.5,437.7,211.3z"/>
	<path class="st1" d="M481,305.1c-0.9-10.7,0.9-21.1,0.5-31.7c-0.6-15.9-2.1-31.6-5.3-47.2c-1.6-7.7-5.2-14.5-11.3-20.9
		c5.5-0.1,8.6,2.6,11.2,5.9c4.8,6.1,6.5,13.4,7.2,20.9c1.5,15.5,2.8,31,2,46.6C484.8,287.6,483.7,296.5,481,305.1z"/>
</g>
</svg>
