<?xml version="1.0" encoding="utf-8"?>
<!-- Generator: Adobe Illustrator 23.0.1, SVG Export Plug-In . SVG Version: 6.00 Build 0)  -->
<svg version="1.1" id="Layer_4" xmlns="http://www.w3.org/2000/svg" xmlns:xlink="http://www.w3.org/1999/xlink" x="0px" y="0px"
	 viewBox="0 0 1000 1000" style="enable-background:new 0 0 1000 1000;" xml:space="preserve">
<style type="text/css">
	.st0{fill:#FEFEFE;}
	.st1{fill:#C0FEFE;}
</style>
<g>
	<path class="st0" d="M547.3,366.2c-13.7,0.3-18.2-9.5-16.4-20.1c3.4-20.2,12.8-37.4,24.7-53.6c5.5-7.6,10.8-15.2,18.1-21.4
		c7.8-6.5,16-6.3,24.5-3.2c8.5,3.1,15.8,8.6,23,14c7.5,5.6,8.1,18.2,4.4,26.3c-5.7,12.5-15.1,21.9-26,30
		c-10.8,8-21.1,16.8-33.4,22.6C560.3,363.7,554.1,366.1,547.3,366.2z"/>
	<path class="st0" d="M562.9,384c-2.2,0.2-4-0.5-4.9-2.4c-1.2-2.6,0.2-4.7,2-6.4c7.3-7.3,14.3-14.9,22.8-20.9
		c11.6-8.2,22.8-17.2,34.7-24.9c6.4-4.1,13.4-7,20.5-9.6c6.4-2.3,12.5,4.1,11.3,11c-1.8,9.8-8.2,16.1-15.6,21.3
		c-19.1,13.3-39.6,24.2-62.2,30.2C568.6,383,565.7,383.4,562.9,384z"/>
	<path class="st1" d="M533.6,351.3c1.5-17.3,9.7-32,17.8-46.8c5.7-10.4,13.1-19.2,21.6-27.4c7.2-7,15.6-9.1,24.9-5.3
		c8.3,3.4,15.8,8.2,22.1,14.7c2.8,2.9,3.9,6.5,5.3,11.4c-4.1-3.4-7.1-6.1-10.2-8.5c-14.2-10.7-22.4-8.8-36.5-0.1
		c-8.9,5.5-15,14.3-20.9,22.8c-8.3,12-15.8,24.5-22.6,37.5C534.8,350.4,534.6,351.2,533.6,351.3z"/>
	<path class="st1" d="M561.7,379.2c10.5-3.8,20.6-8.5,30.5-13.7c13-6.7,25.3-14.6,36.9-23.6c4.5-3.4,8.2-10.3,11-19.9
		c4.1,2.5,5.9,5.5,4.4,10.4c-2.6,8.2-8.9,12.9-15.7,17.2c-8.6,5.4-17.3,10.9-26.2,15.9C589.9,372.6,576.3,377.2,561.7,379.2z"/>
</g>
</svg>
