<?xml version="1.0" encoding="utf-8"?>
<!-- Generator: Adobe Illustrator 23.0.1, SVG Export Plug-In . SVG Version: 6.00 Build 0)  -->
<svg version="1.1" id="Layer_4" xmlns="http://www.w3.org/2000/svg" xmlns:xlink="http://www.w3.org/1999/xlink" x="0px" y="0px"
	 viewBox="0 0 1000 1000" style="enable-background:new 0 0 1000 1000;" xml:space="preserve">
<style type="text/css">
	.st0{fill:#FEFEFE;}
	.st1{fill:#C0FEFE;}
</style>
<g>
	<path class="st0" d="M506.8,270c0.1,16.5-1.5,31.5-6.8,45.9c-1.9,5.2-4.9,9.8-9.4,13c-6.5,4.6-17.4,1-22.9-6.5
		c-9.6-13.3-17.7-27.3-22.7-42.9c-2.7-8.6-4.6-17.4-5.8-26.4c-0.7-5.1-0.2-9.8,0.6-14.6c1.7-10.3,9.7-14.7,18-18.7
		c10.2-4.8,20.8-6.1,31.8-2.9c9.6,2.8,12.8,10.5,14.1,19C505.6,247.6,507.1,259.4,506.8,270z"/>
	<path class="st0" d="M508.7,295.5c1.6-15.6,1.1-31.4,3.8-46.9c1.1-6.5,1.8-13.2,2.9-19.8c0.8-4.7,3-7.7,7.3-9
		c3.7-1,9.8,2.2,12.2,6.3c4.2,7.2,4.6,14.9,3.7,23.1c-1,7.9-1.8,15.8-3.5,23.6c-3.4,15.9-6.1,31.9-13.7,46.6
		c-0.6,1.1-1.1,2.3-1.9,3.3c-2.9,3.7-4.7,3.4-7-0.8c-1.6-2.8-2.6-6.1-2.6-9C510,307,508.1,301.3,508.7,295.5z"/>
	<path class="st1" d="M486.6,221.5c-5.1,1.4-9.8,2.6-14.4,4.1c-12.4,4-17.8,16.1-16.9,27.2c1.1,12.7,3.5,25.4,6.9,37.7
		c3.1,10.9,6.7,21.7,12.8,31.5c0.5,0.7,1.6,1.3,0.5,3c-5.2-3.3-7.6-8.7-10.5-13.5c-11.7-18.7-18.9-39.2-21.3-61.1
		c-1.7-15,1.5-20.5,14.3-27.3c6-3.2,12.5-4.5,19.1-5.3C480.6,217.4,483.8,218.1,486.6,221.5z"/>
	<path class="st1" d="M516.1,319.1c4.4-15.6,8.9-31,11.6-46.8c1.8-11.1,3.9-22.4,1.7-33.7c-1.1-5.8-4-10.8-8.3-15.2
		c5.3-1,9,0.9,12.1,6.2c2.4,4.2,3.7,8.8,2.8,13.6c-2.9,15.7-4,31.8-8.7,47.2C524.3,300.2,521.3,310.1,516.1,319.1z"/>
</g>
</svg>
