<?xml version="1.0" encoding="utf-8"?>
<!-- Generator: Adobe Illustrator 23.0.1, SVG Export Plug-In . SVG Version: 6.00 Build 0)  -->
<svg version="1.1" id="Layer_4" xmlns="http://www.w3.org/2000/svg" xmlns:xlink="http://www.w3.org/1999/xlink" x="0px" y="0px"
	 viewBox="0 0 1000 1000" style="enable-background:new 0 0 1000 1000;" xml:space="preserve">
<style type="text/css">
	.st0{fill:#FEFEFE;}
	.st1{fill:#C0FEFE;}
</style>
<g>
	<path class="st0" d="M523.5,249.6c-0.4,14.8-2.8,29.4-5.6,44c-1.8,9.7-4.1,19.2-8.4,28c-2.9,6-6.5,12-12.5,15.9
		c-5.6,3.6-11.1,3-16-1.5c-6.5-5.8-10.3-13.1-13.3-21.1c-5-13.2-8.1-26.9-10.5-40.7c-1.6-9.5-2.1-19.2-0.1-28.8
		c2-9.7,8.6-15.6,17.6-18.8c12-4.3,24.3-5,36.8-2.9c3.6,0.6,6.3,2.7,8.1,6C523.1,236,523.9,242.6,523.5,249.6z"/>
	<path class="st0" d="M515.6,327.6c0.7-9.8,2.7-20.4,5-30.9c2.6-11.8,5.5-23.6,8.7-35.3c2.4-8.6,5.6-17,9.8-25
		c3-5.7,8.9-5.5,12.8,0.9c4.2,6.7,6.1,13.8,5,22.5c-3.3,27.2-15.8,50.3-29.6,73.1c-0.4,0.7-0.7,1.5-1.3,1.9c-2,1.4-3,5.3-6,3.7
		c-2.9-1.4-4.8-4.3-4.4-8C515.7,329.9,515.6,329.2,515.6,327.6z"/>
	<path class="st1" d="M482.3,332c-7.3-7-10.7-14.9-13.2-23.1c-5.2-16.8-8.8-33.9-9-51.5c-0.1-9.2,2.8-17.5,10-23.9
		c5-4.5,11.4-5,17.5-6.5c9.3-2.3,18.2-1.6,27.7,3.1c-6.6,0.8-12.3,1.3-18,2.2c-16.1,2.3-23,12.7-24.7,27.4
		c-2.5,22.7,2.4,44.5,8.2,66.1C481.3,327.4,481.6,329.1,482.3,332z"/>
	<path class="st1" d="M541.9,237.6c3.7-0.8,6.1,0.9,8,3.9c4.4,6.8,4.3,14,2.7,21.6c-5.2,25.4-14.4,49.1-30.7,69.6
		c-0.2,0.2-0.5,0.2-1.2,0.5c1.8-5.5,5.1-9.9,7.6-14.8c9.4-18.4,15.3-37.9,18.2-58.2c1-6.8-0.7-13.5-3.8-19.7
		C542.4,239.7,541.8,238.9,541.9,237.6z"/>
</g>
</svg>
