<?xml version="1.0" encoding="utf-8"?>
<!-- Generator: Adobe Illustrator 23.0.1, SVG Export Plug-In . SVG Version: 6.00 Build 0)  -->
<svg version="1.1" id="Layer_4" xmlns="http://www.w3.org/2000/svg" xmlns:xlink="http://www.w3.org/1999/xlink" x="0px" y="0px"
	 viewBox="0 0 1000 1000" style="enable-background:new 0 0 1000 1000;" xml:space="preserve">
<style type="text/css">
	.st0{fill:#FEFEFE;}
	.st1{fill:#C0FEFE;}
</style>
<g>
	<path class="st0" d="M520.1,225.8c3.2,0,6.6-0.6,9.7,0.1c10.1,2.2,13.6,5.7,14,17.2c0.9,27.5-3.5,54.2-15.2,79.3
		c-2.5,5.3-6,10.1-10.3,14.2c-9.2,8.9-17.7,5.4-23.8-1.9c-4.9-5.9-7-13.2-9.3-20.5c-4.7-15.3-6.2-31-8-46.8
		c-0.8-7.3,0.1-14,1.6-20.7c2.6-11.4,10.8-17,21.8-19.1C507,226.3,513.5,225.1,520.1,225.8z"/>
	<path class="st0" d="M533.7,329.6c1.8-9.3,3.3-18.7,5.4-28c4.2-18.8,9.7-37.2,18.5-54.5c1.4-2.7,3-5.2,5-7.5
		c2.8-3.4,5.6-2.7,8.2-0.2c7.2,6.8,8.8,16.1,6.8,24.8c-5.2,23.3-15.6,44.6-27.9,64.9c-2.4,3.9-5.4,7.5-8.5,10.9
		c-2.6,2.9-4.8,2.4-5.8-1.3C534.8,335.7,533.6,332.8,533.7,329.6z"/>
	<path class="st1" d="M536.8,234c-7.3,1.2-13.9,0.3-20.6,1.1c-16.3,2-22.6,14.7-24.1,28.5c-2.5,23.5,1.6,46.4,6.7,69.3
		c-2.3-1.8-4.4-5.1-7-11.6c-5.2-12.9-7.9-26.3-9.5-40c-0.6-5.5-0.9-11-1.5-16.4c-1-9.2,1.6-18.1,6-26.2c2.2-4,6.5-6,10.7-7.1
		c10.9-2.8,21.9-4,33.1-1.1C532.6,231.1,534.6,231.8,536.8,234z"/>
	<path class="st1" d="M541.2,332.7c2.3-4.6,4.5-9.3,6.9-13.8c8.3-16.1,14.5-32.9,19-50.4c1.9-7.3,1.2-14.1-0.7-21.1
		c-0.5-1.9-1.2-3.6-1.1-5.7c6.3,4,10,13.2,8.3,20.3c-5.5,23.8-15,45.9-28.5,66.3c-1.1,1.6-2,3.2-3.1,4.9
		C541.8,333,541.5,332.9,541.2,332.7z"/>
</g>
</svg>
