<?xml version="1.0" encoding="utf-8"?>
<!-- Generator: Adobe Illustrator 23.0.1, SVG Export Plug-In . SVG Version: 6.00 Build 0)  -->
<svg version="1.1" id="Layer_4" xmlns="http://www.w3.org/2000/svg" xmlns:xlink="http://www.w3.org/1999/xlink" x="0px" y="0px"
	 viewBox="0 0 1000 1000" style="enable-background:new 0 0 1000 1000;" xml:space="preserve">
<style type="text/css">
	.st0{fill:#FEFEFE;}
	.st1{fill:#C0FEFE;}
</style>
<g>
	<path class="st0" d="M513.6,355.6c0.2-20.9,2.8-40.3,10-58.7c3.4-8.7,6.8-17.9,16.7-22.3c7-3.1,14.1-2.1,21.1-1.1
		c7.3,1.1,14.4,3.4,21.3,6c9.5,3.7,11,13,9.6,20.6c-3.3,18.1-12.3,34-21.7,49.6c-4.8,8-10.2,15.5-17.1,21.7
		c-5.5,5-11.2,9.4-18.7,11.6c-8.6,2.6-17.5-4.3-19.3-11.8C514.3,365.8,513.2,360.1,513.6,355.6z"/>
	<path class="st0" d="M622.2,319.7c-0.2,7.4-2.7,12.9-6.8,18.1c-8.8,11.1-17,22.9-27.3,32.6c-8.8,8.3-17.4,16.9-28.7,22
		c-2,0.9-3.9,2.4-6.1,0.2c-1.9-1.9-1.5-3.8-0.7-6.2c4.6-13.8,12.7-25.7,20.8-37.5c9.2-13.6,19.3-26.6,30.8-38.3
		c1.1-1.1,2.2-2.2,3.7-3.1c6.9-4.3,10.7-3.3,13.1,4.5C621.6,314.6,622.8,317.4,622.2,319.7z"/>
	<path class="st1" d="M588.5,292.3c-7.6-4.1-14.4-6.9-22.1-7.2c-11.2-0.4-19.3,5.5-24.5,14.2c-10.6,18-15.2,38.2-18.5,58.6
		c-0.8,5.2-1.5,10.5-2.6,15.7c-2.2-8.5-4.1-17.1-3.2-25.8c1.2-11.2,1.5-22.6,4.8-33.6c2.9-9.8,6.4-19.3,12.5-27.8
		c5.6-7.8,13.1-10.4,21.9-10.1c7.9,0.3,15.8,1.7,22.9,5.7C583.6,284.2,586.7,286.9,588.5,292.3z"/>
	<path class="st1" d="M555.7,387.9c8.2-4.6,13.5-11.3,19.9-17c8.8-7.7,15.7-17.2,22.6-26.6c5.3-7.1,10.5-14.4,12.5-23.4
		c0.6-2.8,0.5-5.5,0.7-8.2c0.1-1.1-0.8-2.9,1.1-3.2c1.3-0.2,2.4,0.9,3.1,2c3.7,5.6,3,11.4,0.3,17.1c-3.4,7.4-8.6,13.7-13.5,20.1
		c-11.7,15.1-25,28.4-41.8,37.8C559.4,387.3,558.2,388.4,555.7,387.9z"/>
</g>
</svg>
