<?xml version="1.0" encoding="utf-8"?>
<!-- Generator: Adobe Illustrator 23.0.1, SVG Export Plug-In . SVG Version: 6.00 Build 0)  -->
<svg version="1.1" id="Layer_4" xmlns="http://www.w3.org/2000/svg" xmlns:xlink="http://www.w3.org/1999/xlink" x="0px" y="0px"
	 viewBox="0 0 1000 1000" style="enable-background:new 0 0 1000 1000;" xml:space="preserve">
<style type="text/css">
	.st0{fill:#FEFEFE;}
	.st1{fill:#C0FEFE;}
</style>
<g>
	<path class="st0" d="M520.8,269.5c-1.8,12.8-2.3,25.3-4,37.6c-1.4,10.6-3.8,20.9-9.2,30.1c-3.4,5.8-6.5,11.9-12.5,16
		c-9.4,6.4-16.3,2.2-21.1-3.9c-6.2-7.8-10.3-16.8-13.3-26.4c-5.2-16.7-8.1-33.7-8.4-51c-0.4-19.1,9.6-26,26.5-30.5
		c5.8-1.6,11.9-2.1,17.8-3c12.7-2,20.5,4.3,22,17.5C519.1,260.5,520.1,265.2,520.8,269.5z"/>
	<path class="st0" d="M513.7,344c1.1-12,2.3-24,4.4-36c2.3-12.9,5.8-25.5,9.3-38.2c1.5-5.7,4.5-10.8,7.4-15.9
		c2.2-3.9,6.6-4,10.2-0.6c8.2,7.5,10.1,16.6,7.7,27.4c-4.7,21.1-12.4,41-22.8,59.9c-2.3,4.3-4.1,9-8.1,12.2c-1.5,1.2-2.9,3-4.8,2.1
		c-1.9-0.9-2.9-2.9-3.1-5.1C513.6,347.9,513.7,346,513.7,344z"/>
	<path class="st1" d="M481.3,351.5c-6.1-4.9-10-10.3-12.5-16.8c-6.2-16.3-10.8-32.9-12.1-50.4c-0.4-5.6-0.6-10.9,0.3-16.4
		c1.8-10.5,6.8-18.5,17.5-21.9c10.3-3.3,20.7-5.5,31.4-1.9c2.1,0.7,4.3,1.3,6.3,3.7c-5,0.5-9.6,1.2-14.2,1.3
		c-17,0.2-26.6,8.9-29.3,25.7c-1.5,9.3,0.5,18.4,0.8,27.5c0.4,11.2,3.2,21.8,6.1,32.4C477.1,340,479.2,345.2,481.3,351.5z"/>
	<path class="st1" d="M517.8,350.4c3.6-7.9,7-15.9,10.8-23.7c7.8-15.9,11.7-32.9,14.2-50.3c0.9-6.1-0.6-11.9-4.4-17
		c-0.8-1.1-2.3-2.6-1.2-3.9c1.2-1.3,3-0.4,4.5,0.4c4.9,2.5,8.8,10.5,7.9,16.7c-2.2,15-6.5,29.4-11.5,43.6
		C533.8,328.9,527.4,340.4,517.8,350.4z"/>
</g>
</svg>
