<?xml version="1.0" encoding="utf-8"?>
<!-- Generator: Adobe Illustrator 23.0.1, SVG Export Plug-In . SVG Version: 6.00 Build 0)  -->
<svg version="1.1" id="Layer_4" xmlns="http://www.w3.org/2000/svg" xmlns:xlink="http://www.w3.org/1999/xlink" x="0px" y="0px"
	 viewBox="0 0 1000 1000" style="enable-background:new 0 0 1000 1000;" xml:space="preserve">
<style type="text/css">
	.st0{fill:#FEFEFE;}
	.st1{fill:#C0FEFE;}
</style>
<g>
	<path class="st0" d="M596.5,245.1c10.8,0.6,19.6,5.6,27.6,12.4c3.5,3,7,5.9,10,9.6c9.8,12.4,7.2,17.8-1,29
		c-7.5,10.1-18.9,15.3-28.6,22.6c-10,7.5-20.9,13.7-32.4,18.6c-7.9,3.4-16.6,6-25.4,3.4c-10-3-13-10.5-10.9-19.7
		c3.9-16.9,13.4-30.8,23.2-44.6c8-11.1,17-21.2,28.6-28.6C590.3,246.2,593.2,244.8,596.5,245.1z"/>
	<path class="st0" d="M568,360.6c-3.1-0.1-7-0.1-8.1-2.9c-1-2.7,1.4-5.7,3.8-7.7c10.2-8.4,21.2-15.5,32.1-22.8
		c13.1-8.9,28-13.8,42.1-20.4c1.6-0.7,3.1-1.5,4.8-2c2.8-0.7,5.6-3.6,8.7-0.6c3.5,3.4,5.7,7.2,4.4,12.3c-2.3,9.1-9.1,14-16.5,18.6
		c-17.6,11-37,17.3-56.7,23C577.8,359.5,572.8,359.8,568,360.6z"/>
	<path class="st1" d="M636.3,284.3c-5.2-7.3-9.7-13.4-16.9-17.3c-10.6-5.8-21.4-5.5-31.4,1.9c-17.4,12.9-30.4,29.6-41.7,47.7
		c-2,3.2-4,6.3-6,9.4c-0.1,0.1-0.3,0.1-0.8,0.2c-1.3-5.6,1.4-10.4,3.4-15.2c7.3-17.6,18.9-32.5,31.8-46.3c4.3-4.6,9.5-8.2,15.1-11.4
		c6.3-3.6,12.6-4.1,19.1-1.1c10,4.6,19.3,10.1,24.5,20.4C635,276,637,279.2,636.3,284.3z"/>
	<path class="st1" d="M646.5,305.8c8.1,7.3,4.4,17-1.8,21.2c-14.8,10.3-31.3,17-48.4,22.5c-9.3,3-18.8,4.7-28.4,6.6
		c-1.1,0.2-2.2,0.6-3.6-0.3c2.4-1.8,5.3-1.8,7.8-2.5c20.8-6,40.8-14.1,59.4-25.3C639.5,323.3,647.4,317.9,646.5,305.8z"/>
</g>
</svg>
