<?xml version="1.0" encoding="utf-8"?>
<!-- Generator: Adobe Illustrator 23.0.1, SVG Export Plug-In . SVG Version: 6.00 Build 0)  -->
<svg version="1.1" id="Layer_4" xmlns="http://www.w3.org/2000/svg" xmlns:xlink="http://www.w3.org/1999/xlink" x="0px" y="0px"
	 viewBox="0 0 1000 1000" style="enable-background:new 0 0 1000 1000;" xml:space="preserve">
<style type="text/css">
	.st0{fill:#FEFEFE;}
	.st1{fill:#C0FEFE;}
</style>
<g>
	<path class="st0" d="M506.8,273.4c-0.3,9.9-0.9,23.9-4.9,37.6c-1.6,5.3-4,10.3-7.6,14.6c-6.3,7.5-15.3,7.8-24.9-1.2
		c-7.4-6.9-11.7-15.8-15.9-24.7c-5.5-11.7-10.2-23.8-12.4-36.6c-1.3-7.8-2.6-15.6-1.3-23.5c2-12.4,11.9-17.4,22-21.5
		c7.2-2.9,15.1-3.5,22.9-4.2c10.9-1,16.1,5.2,18.2,14.8C505.7,242,506.9,255.5,506.8,273.4z"/>
	<path class="st0" d="M508.7,294.6c1-14.7,1.8-29.4,3.8-44c1.2-8.5,2.2-17,4-25.4c0.6-2.8,0.7-6.1,3.7-7.2c3.1-1.2,5.9,0.8,8.3,2.6
		c10.3,7.5,11.7,18,9.9,29.6c-1.1,7.4-2.2,14.8-3.3,22.1c-1.3,8.9-3.5,17.7-6.2,26.2c-2.4,7.3-4,14.9-7.9,21.7
		c-1.3,2.2-2.4,5.3-5.3,4.7c-2.7-0.5-4.4-3.2-4.9-6C509.4,310.9,508.5,302.8,508.7,294.6z"/>
	<path class="st1" d="M495.8,220.7c-9,0.7-17.4,2.4-25.6,5.9c-10.6,4.4-14,12.7-14,22.9c0,14.6,2.3,29.1,7,43
		c3.7,10.7,6.9,21.7,13.3,31.6c-4.5-1.7-5.7-2.6-7.9-5.9c-13.3-20.2-22.7-41.9-25.2-66.2c-0.4-4.2-0.3-8.4,0.8-12.6
		c1.4-5.2,3.3-9.7,8.2-12.7c12.9-7.7,26.3-11.8,41.3-7C494.5,220,495.1,220.4,495.8,220.7z"/>
	<path class="st1" d="M519.8,223.5c5.7-1.2,9.3,0.7,12.4,6c1.9,3.1,3.1,6.6,2.9,10.2c-1.3,26.7-5.4,52.9-17.7,77.1
		c-0.3,0.6-0.7,1-1.6,1.3c2.1-6.9,4.3-13.8,6.4-20.7c3.9-12.8,5.7-25.9,6.2-39.2c0.2-4.5,1.1-9,1-13.6
		C529.2,236.3,528.2,228.5,519.8,223.5z"/>
</g>
</svg>
