<?xml version="1.0" encoding="utf-8"?>
<!-- Generator: Adobe Illustrator 23.0.1, SVG Export Plug-In . SVG Version: 6.00 Build 0)  -->
<svg version="1.1" id="Layer_4" xmlns="http://www.w3.org/2000/svg" xmlns:xlink="http://www.w3.org/1999/xlink" x="0px" y="0px"
	 viewBox="0 0 1000 1000" style="enable-background:new 0 0 1000 1000;" xml:space="preserve">
<style type="text/css">
	.st0{fill:#FEFEFE;}
	.st1{fill:#C0FEFE;}
</style>
<g>
	<path class="st0" d="M528.3,359.8c0.5-9.9,4.7-20.7,8.8-31.5c4.6-11.9,11-22.8,18.5-33c4.3-5.8,8.7-11.5,14.8-15.5
		c7.2-4.7,14.9-3.6,22.3-0.9c7.4,2.8,14.4,6.5,21,11c16.1,11,13.7,18.5,6.6,30.9c-8.3,14.5-21.4,24.5-33.5,35.5
		c-8.5,7.8-17.7,14.6-28.2,19.3c-6.4,2.8-13.2,3.9-20.1,3.3C532,378.2,528.3,371.5,528.3,359.8z"/>
	<path class="st0" d="M644.6,339.8c-0.1,8.5-5.2,14.4-11.2,19.1c-14.7,11.6-30.6,21.3-47.6,29.3c-7,3.3-14.2,6-21.9,7.2
		c-2.3,0.4-4.9,0.8-6.7-1.7c-1.8-2.6,0.4-4.3,1.4-6c4.5-7.6,11.2-13.5,17.8-19.1c11.7-9.8,23.4-19.7,35.9-28.4
		c7.4-5.1,15.3-9.5,23.3-13.6c2.8-1.4,5.2-0.8,6.5,2.5C643.6,332.6,644.7,336.1,644.6,339.8z"/>
	<path class="st1" d="M621.9,308.2c-6.6-3.6-11.3-8.6-17.2-11.9c-11.7-6.5-24.5-1.7-31.4,5c-17,16.4-29,36.1-38.1,57.7
		c-0.5,1.2-1,2.4-1.6,3.6c-0.4,0.9-0.9,1.7-2.1,3.8c-0.2-4.1-0.4-6.9,0.2-9.7c4.9-21.7,13.7-41.6,27.3-59.2
		c5.6-7.2,12.1-13.6,21.7-15.6c4-0.8,7.7-0.5,11.5,0.5C601.9,284.9,618,295,621.9,308.2z"/>
	<path class="st1" d="M561.5,390.8c3-2.8,7-3.2,10.4-4.9c17.8-8.5,34.7-18.6,49.9-31.1c6.9-5.7,14.5-11.6,14-22.2
		c0-0.8,0.1-1.8,1.2-1.7c1.2,0.1,2,1,2.6,2c3.3,5.1,2.1,11.7-3,17.3c-7.2,7.9-16.2,13.6-25.1,19.1c-10.2,6.4-20.9,11.9-31.9,16.7
		C573.7,388.6,567.6,389.8,561.5,390.8z"/>
</g>
</svg>
