<?xml version="1.0" encoding="utf-8"?>
<!-- Generator: Adobe Illustrator 23.0.1, SVG Export Plug-In . SVG Version: 6.00 Build 0)  -->
<svg version="1.1" id="Layer_4" xmlns="http://www.w3.org/2000/svg" xmlns:xlink="http://www.w3.org/1999/xlink" x="0px" y="0px"
	 viewBox="0 0 1000 1000" style="enable-background:new 0 0 1000 1000;" xml:space="preserve">
<style type="text/css">
	.st0{fill:#FEFEFE;}
	.st1{fill:#004080;}
	.st2{fill:#00407F;}
</style>
<g>
	<path d="M490.3,273.1c-0.4,6.3-1.6,12.5-2.9,18.7c-0.6,3.2-2.8,4.5-5.1,4.9c-2.4,0.4-4.6-1.3-5.7-3.6c-4.4-8.7-5.3-17.6-1.3-26.8
		c1.6-3.8,4.9-5.3,8.3-6.5c2.4-0.8,3.6,1.1,4.8,3.1C490.3,266.2,490.3,269.6,490.3,273.1z"/>
	<path d="M509.8,281.1c-0.2-5.7,0-11.5,3-16.6c1-1.7,2.2-3.9,4.6-3.7c2.4,0.2,3.4,2.5,3.9,4.4c2.5,9.6,1.6,19.2-1.7,28.4
		c-0.9,2.4-2.6,4.8-5.7,4.1c-2.9-0.6-2.7-3.3-3.2-5.7C509.8,288.4,509.9,284.8,509.8,281.1z"/>
	<path class="st0" d="M488.3,270.8c-0.2,2.3,0.7,4.6-1.8,5.4c-2.4,0.7-3.7-1.5-4.6-2.9c-1.5-2.6-3.9-5.4-1.9-8.8
		c0.9-1.5,2.5-2.6,4.1-1.8C487.5,264.5,488.1,267.9,488.3,270.8z"/>
	<path class="st1" d="M483.4,290.3c0.1,1.4-0.1,2.8-1.4,3.3c-1.3,0.5-2-0.8-2.8-1.5c-0.2-0.2-0.5-0.5-0.7-0.7
		c-2.2-2.1-3.6-4.6-2.6-7.7c0.3-0.9,1.2-1.8,2.2-1.1C480.7,284.6,483.1,286.8,483.4,290.3z"/>
	<path class="st0" d="M520.5,272.3c-0.3,1.7,1,4.4-1.9,5c-2.9,0.6-2.9-2.3-3.9-3.9c-0.6-0.9-1.1-1.8-1-3.1c0.2-2.9,1.2-6,3.9-6.3
		c2.6-0.3,1.9,3.4,2.9,5.2C520.8,269.9,520.5,271.1,520.5,272.3z"/>
	<path class="st2" d="M511.8,288.9c-0.1-1.8,0-3.2,0.8-4.5c0.5-0.8,0.9-1.2,1.9-0.8c2.1,1,4.1,8.3,2.6,10.1c-1.3,1.6-2.8,1.5-4-0.2
		C512.1,292.1,511.4,290.5,511.8,288.9z"/>
</g>
</svg>
