<?xml version="1.0" encoding="utf-8"?>
<!-- Generator: Adobe Illustrator 23.0.1, SVG Export Plug-In . SVG Version: 6.00 Build 0)  -->
<svg version="1.1" id="Layer_4" xmlns="http://www.w3.org/2000/svg" xmlns:xlink="http://www.w3.org/1999/xlink" x="0px" y="0px"
	 viewBox="0 0 1000 1000" style="enable-background:new 0 0 1000 1000;" xml:space="preserve">
<style type="text/css">
	.st0{fill:#FEFEFE;}
	.st1{fill:#00407F;}
</style>
<g>
	<path d="M501,341.1c-0.1-7.7,3.5-13.2,9-17.4c3.3-2.5,7.4-3.7,11.6-1.4c4.2,2.4,5.5,7.2,4.5,10.7c-2,7.2-5.2,14.2-11.9,18.6
		c-4.6,3-9,1.4-11.4-3.6C501.6,345.7,500.6,343.4,501,341.1z"/>
	<path class="st0" d="M516,324.2c3.6-0.1,7.5,3.2,7.4,6.6c-0.1,2.8-1.2,5.5-4.3,6c-2.4,0.4-6.3-5.9-6.4-9.6
		C512.6,324.9,513.9,324.1,516,324.2z"/>
	<path class="st1" d="M503.9,342.1c0-1.8,0.6-3.3,2.7-3.1c2,0.1,5.2,5.7,5,8.7c-0.1,1.4-0.5,2.6-2.2,2.6
		C507.3,350.4,503.8,345.3,503.9,342.1z"/>
</g>
</svg>
