<?xml version="1.0" encoding="utf-8"?>
<!-- Generator: Adobe Illustrator 23.0.1, SVG Export Plug-In . SVG Version: 6.00 Build 0)  -->
<svg version="1.1" id="Layer_4" xmlns="http://www.w3.org/2000/svg" xmlns:xlink="http://www.w3.org/1999/xlink" x="0px" y="0px"
	 viewBox="0 0 1000 1000" style="enable-background:new 0 0 1000 1000;" xml:space="preserve">
<style type="text/css">
	.st0{fill:#FEFEFE;}
	.st1{fill:#00407F;}
</style>
<g>
	<path d="M548.8,311.2c0.3,8.9-9.9,19.8-17.2,21.7c-3.1,0.8-6.8-2.6-6.1-6.1c1.2-5.8,1.6-11.7,4.7-17c2.5-4.2,6.2-6.3,10.6-7
		C545.4,302.1,548.9,305.9,548.8,311.2z"/>
	<path class="st0" d="M544.9,313.3c0.3,2.4-0.7,5.1-3.1,4.8c-3-0.4-5.6-2.9-5.5-6.2c0-3,2.4-5.3,5.2-5
		C544.9,307.1,545,310.4,544.9,313.3z"/>
	<path class="st1" d="M533.2,325.6c-0.1,2,0.1,4.4-2,4.1c-2.3-0.3-2.7-2.8-2.8-5c-0.1-1.5,0.2-3.4,2.1-3.1
		C532.5,322,533.4,323.9,533.2,325.6z"/>
</g>
</svg>
