<?xml version="1.0" encoding="utf-8"?>
<!-- Generator: Adobe Illustrator 23.0.1, SVG Export Plug-In . SVG Version: 6.00 Build 0)  -->
<svg version="1.1" id="Layer_4" xmlns="http://www.w3.org/2000/svg" xmlns:xlink="http://www.w3.org/1999/xlink" x="0px" y="0px"
	 viewBox="0 0 1000 1000" style="enable-background:new 0 0 1000 1000;" xml:space="preserve">
<style type="text/css">
	.st0{fill:#FEFEFE;}
	.st1{fill:#00407F;}
	.st2{fill:#004080;}
</style>
<g>
	<path d="M595.5,271.3c4.3,0.6,6.7,2.5,8.4,5.8c1.6,3.1-0.6,4.7-2.2,6.5c-5.8,6.3-12.8,10.5-20.8,13.5c-3.2,1.2-5.2,0.5-7.3-1.4
		c-2.1-1.9-1.6-4.4-0.7-6.7c3.2-9,10.3-13.6,18.8-16.4C593,272.1,594.5,270.9,595.5,271.3z"/>
	<path d="M595,331c-1.7,0-2.8,0.2-3.9,0c-1.9-0.3-3.1-2-3.9-3.4c-0.8-1.6,1.1-2.6,2.2-3.3c7.3-4.6,15.2-8.1,23.4-10.7
		c3-1,6.5,0.2,7.9,3.2c1.4,3.1-1.4,5.4-3.7,7C610.4,328.8,602.6,330.7,595,331z"/>
	<path class="st0" d="M596.1,274.3c1.8,0.6,3.5,1.4,4.8,2.9c1.6,1.7,0.3,3.3-0.5,4.3c-1.5,1.9-2.3,4.4-4.8,5.8
		c-2.9,1.6-4.7-0.5-4.6-1.9c0.3-3.6,1.4-7.4,3.7-10.4C595,274.6,595.6,274.5,596.1,274.3z"/>
	<path class="st1" d="M581.9,286.9c-0.5,1.3-1.1,3.6-2.2,5.7c-0.6,1.1-1.5,2.9-3.3,1.8c-1.5-0.8-2.6-2.2-2-4
		c0.7-2.3,1.6-4.6,3.4-6.3c0.8-0.8,1.5-2,2.8-1.6C582,283.1,582.1,284.4,581.9,286.9z"/>
	<path class="st0" d="M614.6,316.4c1.7-0.1,3.4,0,3.5,2.2c0.1,2.3-5.6,6.5-8.6,6.6c-1.6,0-3-0.4-3-2.3
		C606.6,320.5,611.6,316.5,614.6,316.4z"/>
	<path class="st2" d="M593,329.1c-1.4,0-3.2-0.4-2.8-1.8c0.8-3,3.7-4.1,6.4-4.9c1.1-0.3,2.3,0.1,2.5,1.5
		C599.4,325.7,595.5,329,593,329.1z"/>
</g>
</svg>
