<?xml version="1.0" encoding="utf-8"?>
<!-- Generator: Adobe Illustrator 23.0.1, SVG Export Plug-In . SVG Version: 6.00 Build 0)  -->
<svg version="1.1" id="Layer_4" xmlns="http://www.w3.org/2000/svg" xmlns:xlink="http://www.w3.org/1999/xlink" x="0px" y="0px"
	 viewBox="0 0 1000 1000" style="enable-background:new 0 0 1000 1000;" xml:space="preserve">
<style type="text/css">
	.st0{fill:#FEFEFE;}
	.st1{fill:#00407F;}
</style>
<g>
	<path d="M491.1,316.5c1.5-7.3,1.6-15.2,10.2-18.8c3.5-1.5,7-1.6,9.7,1c2.5,2.3,2.9,5.4,2.2,9.1c-1.2,6.2-3.5,11.9-6.7,17.3
		c-1.9,3.3-4.5,4-7.8,4c-3.3,0-4.8-2.2-5.8-4.8C492,321.9,491,319.3,491.1,316.5z"/>
	<path d="M521.4,330.1c1.8-7.1,1.3-14.8,4.6-21.6c1.7-3.5,4.3-6.3,8.5-5.6c3.1,0.5,4.9,6.5,4.2,10.6c-1.2,7-4.8,12.9-7.6,19.1
		c-1.2,2.7-3.2,5.7-6.1,4.8C522.1,336.7,521.1,333.3,521.4,330.1z"/>
	<path class="st0" d="M510.8,307.5c0.5,1.8-0.4,3.9-2.4,4.7c-2,0.8-2.7-1.9-4.1-2.8c-0.3-0.2-0.6-0.4-0.7-0.7
		c-0.6-2.4-3.9-4.1-1.9-7.2c1.3-2,3.4-2.3,5.2-1.6C509.8,301.1,510.8,303.8,510.8,307.5z"/>
	<path class="st1" d="M496.2,316.4c2.5,0.4,3.4,2.1,4.2,3.9c0.9,1.8,2.3,3.6,0.9,5.8c-0.5,0.7-1.2,1-2.1,1c-2.8-0.2-6.3-7-4.7-9.3
		C495,317.1,495.7,316.8,496.2,316.4z"/>
	<path class="st0" d="M537.3,312.3c-1.5,1.8,0.2,6-3.7,5.9c-2.8-0.1-4.1-3-4.1-5.5c0-2.7,1.2-5.7,4.3-5.9
		C536.7,306.7,536.7,309.8,537.3,312.3z"/>
	<path class="st1" d="M528.3,329c-0.2,2.4-0.3,5.5-3.2,5.5c-2,0-2.9-2.9-2.6-5c0.4-2.2,0-5.7,2.9-5.8
		C528.1,323.6,528.5,326.5,528.3,329z"/>
</g>
</svg>
