<?xml version="1.0" encoding="utf-8"?>
<!-- Generator: Adobe Illustrator 23.0.1, SVG Export Plug-In . SVG Version: 6.00 Build 0)  -->
<svg version="1.1" id="Layer_4" xmlns="http://www.w3.org/2000/svg" xmlns:xlink="http://www.w3.org/1999/xlink" x="0px" y="0px"
	 viewBox="0 0 1000 1000" style="enable-background:new 0 0 1000 1000;" xml:space="preserve">
<style type="text/css">
	.st0{fill:#FEFEFE;}
	.st1{fill:#00407F;}
</style>
<g>
	<path d="M596.8,295.9c4.1,0.5,7.6,2.5,8.4,6.5c0.9,4.3-1.7,7.9-5.2,9.9c-5.8,3.2-11.8,6.4-18.5,7.9c-5.4,1.3-9.6-3.1-7.9-8.5
		c2.3-7.2,8-11.1,14.5-13.8C590.8,296.8,593.9,296.6,596.8,295.9z"/>
	<path d="M599.5,340c-2.6-0.4-4.8-0.7-5.7-2.9c-0.7-1.8,0.3-3.3,1.8-4.6c4.8-4.3,9.8-8.2,16.4-9.7c3.3-0.8,5.4-0.2,7.1,2.6
		c2.2,3.3,0.6,6-1.9,7.9C612,337.4,605.3,338.2,599.5,340z"/>
	<path class="st0" d="M602.5,304.3c0,3.7-4.9,8.5-8.4,8.2c-1.8-0.1-2.4-1.3-2.3-3c0-3.7,3.9-9.9,6.4-9.6
		C600.4,300.2,603,301,602.5,304.3z"/>
	<path class="st1" d="M582.9,308.6c0.3,3-0.6,5-2.3,6.7c-0.8,0.8-1.6,2.4-3.1,1.7c-1.5-0.7-2.4-2-2.4-3.9c0.1-3.7,2.3-6.5,5.1-7.7
		C583.6,304,582.7,307.5,582.9,308.6z"/>
	<path class="st0" d="M618.1,327.9c-0.1,2.5-5.3,7.6-7,6.9c-1.6-0.6-4-0.9-3.7-3.6c0.2-1.9,5.6-6.2,7.5-6
		C616.8,325.5,617.3,327,618.1,327.9z"/>
	<path class="st1" d="M603.5,332.7c-0.9,2.1-1.5,4.7-4.4,5c-1.5,0.2-2.5-1-2.3-2.5c0.4-2.6,2-4.5,4.6-4.9
		C602.8,330.1,603.3,331.3,603.5,332.7z"/>
</g>
</svg>
