<?xml version="1.0" encoding="utf-8"?>
<!-- Generator: Adobe Illustrator 23.0.1, SVG Export Plug-In . SVG Version: 6.00 Build 0)  -->
<svg version="1.1" id="Layer_4" xmlns="http://www.w3.org/2000/svg" xmlns:xlink="http://www.w3.org/1999/xlink" x="0px" y="0px"
	 viewBox="0 0 1000 1000" style="enable-background:new 0 0 1000 1000;" xml:space="preserve">
<style type="text/css">
	.st0{fill:#FEFEFE;}
	.st1{fill:#00407F;}
</style>
<g>
	<path d="M503.1,276.1c-0.3,8.3-1.7,14.6-3,21c-0.6,2.9-2.8,4-4.9,4.5c-2.3,0.6-4.5-1.1-5.5-3.1c-5-9.1-5.6-18.5-1.3-28.1
		c1.5-3.3,4.8-4.6,7.9-5.7c2.3-0.8,3.8,0.9,4.8,2.9C502.6,270.9,503.4,274.3,503.1,276.1z"/>
	<path d="M511.7,282.9c-0.1-5.6,0.1-11.1,2.9-16.1c1.1-2,2.3-4.2,4.8-4c2.3,0.2,3.3,2.6,3.8,4.5c2.4,9.6,1.5,19.2-1.8,28.4
		c-0.8,2.2-2.4,4.4-5.3,4c-3-0.5-3-2.9-3.5-5.4C511.8,290.5,511.8,286.7,511.7,282.9z"/>
	<path class="st0" d="M501,275.7c-0.2,2.3,0.7,4.6-1.8,5.4c-2.4,0.7-3.7-1.5-4.6-2.9c-1.5-2.6-3.9-5.4-1.9-8.8
		c0.9-1.5,2.5-2.6,4.1-1.8C500.2,269.4,500.8,272.8,501,275.7z"/>
	<path class="st1" d="M488.3,290.6c0-1.2,0.1-2.3,1.2-3c1.4-0.8,2,0.5,2.8,1.1c0.3,0.2,0.5,0.5,0.7,0.7c2.3,2.2,3.9,4.8,2.7,8.1
		c-0.3,0.9-1.4,1.7-2.3,0.8C490.9,296.3,488.4,294.2,488.3,290.6z"/>
	<path class="st0" d="M522.5,273.7c0,1.1,0.1,2.3,0,3.4c-0.1,1.2-0.8,2-2.1,2.2c-1.1,0.2-1.9-0.3-2.4-1.2c-0.8-1.5-1.9-3-2.2-4.6
		c-0.6-3.2,0.5-7,3.5-7.5c3.1-0.5,2.3,3.7,3.2,5.8C522.7,272.3,522.5,273,522.5,273.7z"/>
	<path class="st1" d="M513.7,290.4c0-1.9-0.1-4.4,2.1-4.8c1.8-0.4,1.9,2.2,2.8,3.4c0.1,0.1,0.1,0.3,0.2,0.5c1.1,2.1,1.3,4.3,0.2,6.4
		c-0.5,0.9-1.7,1.3-2.5,0.8C514,295.3,513.6,292.9,513.7,290.4z"/>
</g>
</svg>
