<?xml version="1.0" encoding="utf-8"?>
<!-- Generator: Adobe Illustrator 23.0.1, SVG Export Plug-In . SVG Version: 6.00 Build 0)  -->
<svg version="1.1" id="Layer_4" xmlns="http://www.w3.org/2000/svg" xmlns:xlink="http://www.w3.org/1999/xlink" x="0px" y="0px"
	 viewBox="0 0 1000 1000" style="enable-background:new 0 0 1000 1000;" xml:space="preserve">
<style type="text/css">
	.st0{fill:#FEFEFE;}
	.st1{fill:#00407F;}
</style>
<g>
	<path d="M511.7,215c-1.5,6.3-0.7,13.4-3,20.1c-0.9,2.7-2.3,5.9-5.4,5.9c-3,0-5.3-2.5-6.6-5.4c-3.9-8.6-3.2-17.2,0-25.7
		c1.4-3.9,4.5-6.3,8.9-5.7C508.7,204.6,511.8,210.1,511.7,215z"/>
	<path d="M531.2,218.5c-0.9,4.2,0.2,10.2-2.8,15.6c-1.4,2.5-3.3,4.1-5.9,4c-2.7-0.2-3.4-3.1-3.6-5c-0.4-6.3-0.4-12.6,0-18.8
		c0.1-1.8,0.3-3.8,0.6-5.6c0.4-3.4,2.7-5.6,5.6-6.4c3.3-0.9,3.3,2.7,4.4,4.5C531.6,210,531.3,213.5,531.2,218.5z"/>
	<path class="st0" d="M509.6,215.5c0.7,2.3-0.4,4.1-2.2,4.9c-2.1,0.9-3-1.6-4-2.8c-1.4-1.6-2.8-3.6-3.3-5.6
		c-0.6-2.6,1.8-4.1,3.8-4.9c2.1-0.9,4,0.6,4.6,2.5C509.1,211.5,510.5,213.4,509.6,215.5z"/>
	<path class="st1" d="M504.9,234.8c0,1.8-0.3,3.3-2.5,3.4c-2.2,0-6.2-5.7-6.2-8.6c0-1.7,0.6-2.9,2.5-2.9
		C501.2,226.5,504.9,231.4,504.9,234.8z"/>
	<path class="st0" d="M529.3,214.1c-0.1,1.7,0.6,3.9-1.6,4.5c-1.8,0.4-2.4-1.8-3.7-2.7c-0.3-0.2-0.4-0.9-0.6-1.3
		c-1.8-3-1-5.8,0.5-8.5c0.4-0.6,1.1-1.4,2-0.9c2.5,1.6,3,4.3,3.4,6.9C529.4,212.8,529.3,213.4,529.3,214.1z"/>
	<path class="st1" d="M519.6,228c0-0.5-0.4-2.6,1.6-3c1.8-0.3,2.6,1.4,3.3,2.9c0.2,0.4,0.5,0.8,0.7,1.3c0.9,1.9,2,3.8,0.1,5.7
		c-0.7,0.7-1.3,1.7-2.4,1.1c-2-1.1-2.9-3-3.3-5.1C519.5,230.3,519.6,229.6,519.6,228z"/>
</g>
</svg>
