<?xml version="1.0" encoding="utf-8"?>
<!-- Generator: Adobe Illustrator 23.0.1, SVG Export Plug-In . SVG Version: 6.00 Build 0)  -->
<svg version="1.1" id="Layer_4" xmlns="http://www.w3.org/2000/svg" xmlns:xlink="http://www.w3.org/1999/xlink" x="0px" y="0px"
	 viewBox="0 0 1000 1000" style="enable-background:new 0 0 1000 1000;" xml:space="preserve">
<style type="text/css">
	.st0{fill:#FEFEFE;}
	.st1{fill:#00407F;}
</style>
<g>
	<path d="M594.3,312.5c2.7,0.2,6.4,1.3,7.9,4.5c1.7,3.6-0.3,7.3-2.9,9.9c-5.1,5.1-11.3,8.4-18.4,10c-3,0.7-5.2-1.4-6.9-3.6
		c-1.7-2.2-2.3-4.4-1.1-7.4C576,318.2,585.6,312.7,594.3,312.5z"/>
	<path d="M601.4,351.6c-4.7,0-6.2-2.5-4.9-6.3c2-5.9,6.2-9.4,11.4-12.1c4.1-2.1,8.4-1.3,10.8,1.8c3.4,4.3,0,7.6-2.4,9.8
		C612.1,348.8,606.4,350.6,601.4,351.6z"/>
	<path class="st0" d="M599.6,319.8c0,2.4-5.2,8.1-7.4,8.2c-1.9,0.1-2.4-1.2-2.3-2.9c0.1-2.9,1.1-5.5,2.7-7.9
		c1.1-1.7,2.8-2.4,4.6-1.5C598.7,316.4,600,317.8,599.6,319.8z"/>
	<path class="st1" d="M578.9,321.4c2.3,0.6,3,2.6,3,4.4c0.1,2.7-1.1,5.2-3.9,6c-2,0.5-2.7-1.2-2.8-3
		C575,325.7,576.1,323.2,578.9,321.4z"/>
	<path class="st0" d="M617.2,339.1c-0.7,2.3-1.2,5.1-4.5,5.6c-1.8,0.3-3.6-0.3-3.2-2.4c0.5-2.9,2.1-5.4,5.2-6.2
		C616.3,335.6,617.2,337,617.2,339.1z"/>
	<path class="st1" d="M600.1,349.6c-1.6-0.3-2.7-1.2-2.2-2.7c0.6-2.3,1.5-4.8,4.4-5c1.5-0.1,2.5,1.1,2.1,2.6
		C603.7,346.8,602.8,349.1,600.1,349.6z"/>
</g>
</svg>
