<?xml version="1.0" encoding="utf-8"?>
<!-- Generator: Adobe Illustrator 23.0.1, SVG Export Plug-In . SVG Version: 6.00 Build 0)  -->
<svg version="1.1" id="Layer_4" xmlns="http://www.w3.org/2000/svg" xmlns:xlink="http://www.w3.org/1999/xlink" x="0px" y="0px"
	 viewBox="0 0 1000 1000" style="enable-background:new 0 0 1000 1000;" xml:space="preserve">
<style type="text/css">
	.st0{fill:#FEFEFE;}
	.st1{fill:#00407F;}
</style>
<g>
	<path d="M487,285.1c1.8-5.9,0.8-12.7,6.4-17.3c4.3-3.5,8.5-2.5,10.5,2.7c2.5,6.9-0.3,13.6-0.5,20.4c-0.1,3.3-0.7,7-3.6,9.9
		c-2.7,2.7-4.7,2-7,0.1C487.9,296.7,488.5,290.6,487,285.1z"/>
	<path d="M511.7,285.2c0.1-5.1-0.2-9.5,0.9-14c0.8-3.1,2.6-5.2,4.9-6.9c2.8-2.1,4,0.5,5,2.4c3.2,6,2,12.5,1.6,18.8
		c-0.2,3.7-1.5,7.3-2.7,10.9c-0.7,2.3-2.2,4.4-5.1,4.2c-2.4-0.2-3-2-3.8-4.2C511,292.5,512.4,288.6,511.7,285.2z"/>
	<path class="st0" d="M502.9,277.5c-0.2,1.7,0.9,4.3-2.3,4.7c-2.6,0.3-6.5-5.3-6.5-8.9c0-2.9,1.1-4.7,4.1-4.7
		C500.8,268.6,502.9,272.6,502.9,277.5z"/>
	<path class="st1" d="M498,296.2c0,1.5,0,3.1-1.9,3.4c-1.7,0.3-5.7-5.4-5.9-8.2c-0.1-1.6,0.2-3,2.2-3.1
		C494.2,288.3,498,293.8,498,296.2z"/>
	<path class="st0" d="M522.4,275c-0.3,1.6,1,4.2-1.7,5.1c-1.7,0.6-5.2-4.5-5.1-7.2c0.1-2.8,1.5-6.5,4-5.9
		C522.6,267.7,522.5,271.7,522.4,275z"/>
	<path class="st1" d="M513.7,290.4c0.1-1.1-0.7-3.4,1.7-3.9c2.1-0.4,2.3,2,3,3.3c1.3,2.3,1.9,4.8,0.3,7.3c-0.6,0.9-1.8,1-2.6,0.4
		C513.9,295.9,513.5,293.5,513.7,290.4z"/>
</g>
</svg>
