<?xml version="1.0" encoding="utf-8"?>
<!-- Generator: Adobe Illustrator 23.0.1, SVG Export Plug-In . SVG Version: 6.00 Build 0)  -->
<svg version="1.1" id="Layer_4" xmlns="http://www.w3.org/2000/svg" xmlns:xlink="http://www.w3.org/1999/xlink" x="0px" y="0px"
	 viewBox="0 0 1000 1000" style="enable-background:new 0 0 1000 1000;" xml:space="preserve">
<style type="text/css">
	.st0{fill:#FEFEFE;}
	.st1{fill:#00407F;}
</style>
<g>
	<path d="M514.6,286.4c-1,5.2-0.1,12-3.8,18c-1.4,2.2-2.8,4.9-5.3,5c-2.9,0.1-5-2.2-6.5-4.9c-4.8-8-3.5-22.5,2.9-27.7
		c2.4-2,4.8-4.3,8-3.2c3.4,1.2,4.5,4.6,4.8,8.1C514.7,282.8,514.6,284,514.6,286.4z"/>
	<path d="M527.4,299.9c0.5-7.2,0.8-14.5,2.8-21.6c0.7-2.4,2.1-4.4,4.2-4.7c2.5-0.4,4,1.9,4.7,4c2.6,8,3.7,15.9-0.9,23.7
		c-1,1.7-2,3.6-2.6,5.5c-0.7,2.3-2.7,3.7-4.5,3.5c-2.1-0.2-3.1-2.7-3.6-4.6C527.1,303.8,527.4,301.8,527.4,299.9z"/>
	<path class="st0" d="M512.7,283.8c-0.1,2.7,0.6,5.1-2.7,5.3c-2.8,0.2-7-4.9-7-8.9c0-2.7,1.8-4,4.4-3.8
		C512.7,276.8,511.8,281.2,512.7,283.8z"/>
	<path class="st1" d="M499,299.1c0.1-2.1,0.1-4.3,2.3-3.8c3.9,0.9,4.9,4.3,5.5,7.8c0.3,1.7-0.3,3.8-2.3,3.4
		C500.4,305.7,500.2,301.7,499,299.1z"/>
	<path class="st0" d="M539.1,285.1c-0.4,1.7,1,5.1-2.5,4.8c-3.7-0.4-3.9-4.1-4.2-7c-0.3-2.4,0.5-5.6,3.3-5.3
		C539.6,278,539,281.8,539.1,285.1z"/>
	<path class="st1" d="M535.2,302.1c-0.5,2.4-0.5,5.4-3.7,5.3c-2.7-0.1-3.3-2.9-3.1-5.1c0.2-2.2,0.1-5.7,2.8-5.9
		C534,296.3,534.7,299.5,535.2,302.1z"/>
</g>
</svg>
