<?xml version="1.0" encoding="utf-8"?>
<!-- Generator: Adobe Illustrator 23.0.1, SVG Export Plug-In . SVG Version: 6.00 Build 0)  -->
<svg version="1.1" id="Layer_4" xmlns="http://www.w3.org/2000/svg" xmlns:xlink="http://www.w3.org/1999/xlink" x="0px" y="0px"
	 viewBox="0 0 1000 1000" style="enable-background:new 0 0 1000 1000;" xml:space="preserve">
<style type="text/css">
	.st0{fill:#FEFEFE;}
	.st1{fill:#00407F;}
</style>
<g>
	<path d="M489.3,273c0,5.9-0.9,11.7-2,17.5c-0.6,3-2.2,5.9-5.1,6.2c-2.9,0.3-5.2-2.1-6.5-4.8c-4.6-9.3-3.3-18.7,0-27.9
		c1.3-3.5,4.4-4.7,7.8-4.1c4,0.8,5.1,4.3,5.8,7.7C489.5,269.3,489.3,271.2,489.3,273z"/>
	<path d="M519.4,276.9c0.7,5.4-0.6,10.2-1.9,14.9c-0.4,1.7-1.3,3.3-2.7,4.4c-3.5,2.8-6.8,1.7-6.9-2.8c-0.2-8.8-2.5-17.5-0.1-26.3
		c0.8-3.2,2.7-6,5.8-6.1c2.5-0.1,4.1,2.9,4.8,5.4C519.3,269.9,520.2,273.5,519.4,276.9z"/>
	<path class="st0" d="M487.3,270.3c-0.1,2.6,0.5,4.8-2.4,5c-2.2,0.1-6.4-5.6-6.4-8.6c0-2.4,1.4-4.2,3.8-4
		C487.3,263.3,486.6,267.7,487.3,270.3z"/>
	<path class="st1" d="M483.4,290.6c0,1.5-0.2,3.1-2.2,3.2c-2.3,0.1-6.5-5.3-6.6-8.3c-0.1-1.7,0.5-2.9,2.3-3.1
		C479.3,282.1,483.4,287.5,483.4,290.6z"/>
	<path class="st0" d="M517.6,271.9c-0.3,2.2,0.8,4.6-1.9,5.3c-1.7,0.5-5.2-4.6-5-7.3c0.2-2.2,0.7-5.3,3.1-5
		C518.2,265.3,517.1,269.5,517.6,271.9z"/>
	<path class="st1" d="M508.8,290c0-2.7,0.3-5.7,2.1-5.3c3,0.5,3.9,4,4.5,6.7c0.4,1.9-1.4,3.6-3.2,3.4
		C509.1,294.4,509.3,291.5,508.8,290z"/>
</g>
</svg>
