<?xml version="1.0" encoding="utf-8"?>
<!-- Generator: Adobe Illustrator 23.0.1, SVG Export Plug-In . SVG Version: 6.00 Build 0)  -->
<svg version="1.1" id="Layer_4" xmlns="http://www.w3.org/2000/svg" xmlns:xlink="http://www.w3.org/1999/xlink" x="0px" y="0px"
	 viewBox="0 0 1000 1000" style="enable-background:new 0 0 1000 1000;" xml:space="preserve">
<style type="text/css">
	.st0{fill:#FEFEFE;}
	.st1{fill:#00407F;}
</style>
<g>
	<path d="M517.5,304.4c0.6-6.4,1.7-12.7,5-18.4c2-3.4,8.2-6.8,10.8-5.6c3.3,1.6,5.4,4.9,4.6,8.1c-1.5,6.2-2.2,12.7-5.4,18.4
		c-1.4,2.5-2.2,5.2-4.4,7.2c-3.6,3.2-6.1,3-8.4-1.2C518.3,310.4,517.2,307.5,517.5,304.4z"/>
	<path d="M540.1,311.6c1.5-7.7,2.7-16.4,6.7-24.4c0.6-1.2,1.5-2.1,2.4-2.9c3.8-3.3,6.1-2.6,7.4,2.2c2.3,8.2-1.5,15.3-4.1,22.6
		c-1,2.6-2.4,5.2-4.8,7c-1.6,1.2-3.3,3.1-5.4,1.9C540.5,316.9,539.9,314.7,540.1,311.6z"/>
	<path class="st0" d="M535.1,289.8c0,1.2,0.4,2.5-0.1,3.4c-0.7,1.4-0.8,3.6-3.1,3.7c-1.9,0-2.8-1.4-3.5-2.9c-0.5-1-0.6-2.1-1.1-3
		c-1.3-2.5-1.7-4.7,0.6-6.9c1.3-1.2,2.8-1.3,4-0.5C533.9,285,536,286.7,535.1,289.8z"/>
	<path class="st1" d="M526.4,309.1c-0.1,1.5,0.2,4.5-2,3.9c-3.5-1-5.1-4.2-4.9-8c0.1-1.6-0.4-3.5,1.8-4
		C523.4,300.6,526.4,305.5,526.4,309.1z"/>
	<path class="st0" d="M551.4,286.3c1.6-0.4,2.2,0.2,2.8,0.8c1.8,1.9,0.8,9.7-1.5,11.2c-0.4,0.2-1,0.6-1.3,0.4
		c-2.7-1.9-3.2-5.1-3.5-7.9C547.7,288.3,550.2,287.3,551.4,286.3z"/>
	<path class="st1" d="M547.8,310.3c0.3,2.1-0.4,4.6-2.8,4.7c-2.5,0.2-3.3-2.2-3.1-4.6c0.3-2.4,0.1-6.2,3-6.2
		C547.5,304.2,547.9,307.6,547.8,310.3z"/>
</g>
</svg>
