<?xml version="1.0" encoding="utf-8"?>
<!-- Generator: Adobe Illustrator 23.0.1, SVG Export Plug-In . SVG Version: 6.00 Build 0)  -->
<svg version="1.1" id="Layer_4" xmlns="http://www.w3.org/2000/svg" xmlns:xlink="http://www.w3.org/1999/xlink" x="0px" y="0px"
	 viewBox="0 0 1000 1000" style="enable-background:new 0 0 1000 1000;" xml:space="preserve">
<style type="text/css">
	.st0{fill:#FEFEFE;}
	.st1{fill:#00407F;}
</style>
<g>
	<path d="M481.5,277.8c0.9,3.6-0.7,7.8-1.1,12c-0.3,2.8-2.1,5.7-5.3,6c-3.5,0.3-6.1-2-7.3-5.1c-2.9-8.1-4.2-16.5-2-25.1
		c1-4.2,3.3-6.8,7.8-6.8c4.6,0.1,5.6,3.9,6.9,7.2C481.8,269.6,481.4,273.3,481.5,277.8z"/>
	<path d="M505.7,274.9c0.6,5.7-0.2,10.8-3,15.4c-1,1.7-2.2,4-4.7,3.5c-2-0.4-2.8-2.1-3.1-4.3c-1.2-8.7-3.9-17.3-1.8-26.2
		c0.8-3.2,2.2-6.4,6-6.4c4,0.1,4.8,4.1,5.5,6.9C505.5,267.5,506.7,271.3,505.7,274.9z"/>
	<path class="st0" d="M469.7,266c-0.1-2.5,1.2-4,3.6-4.2c2.7-0.2,6.4,5.3,6.2,8.9c-0.2,2.2-1.5,3.6-3.6,3.7
		C473.6,274.4,469.7,268.9,469.7,266z"/>
	<path class="st1" d="M467.8,286.2c0-2.1,0.2-3.6,2.1-3.7c1.4-0.1,6.6,6.2,6.6,7.9c0,1.8-1.1,2.9-2.7,2.5
		C470.1,291.9,468.1,289.4,467.8,286.2z"/>
	<path class="st0" d="M502.9,267.7c-0.2,1.8,0.5,5-1.9,4.5c-2.9-0.5-4.7-3.5-4.9-6.8c-0.1-2.4,0.9-5.6,2.8-5.2
		C502.4,260.7,503.1,264.3,502.9,267.7z"/>
	<path class="st1" d="M495.1,284.3c0-2.2,0.4-4.2,2.4-3.8c3.4,0.7,3.8,4,4.3,6.7c0.4,1.8-1.3,3.7-2.6,3.4
		C496,289.8,496,286.4,495.1,284.3z"/>
</g>
</svg>
