<?xml version="1.0" encoding="utf-8"?>
<!-- Generator: Adobe Illustrator 23.0.1, SVG Export Plug-In . SVG Version: 6.00 Build 0)  -->
<svg version="1.1" id="Layer_4" xmlns="http://www.w3.org/2000/svg" xmlns:xlink="http://www.w3.org/1999/xlink" x="0px" y="0px"
	 viewBox="0 0 1000 1000" style="enable-background:new 0 0 1000 1000;" xml:space="preserve">
<style type="text/css">
	.st0{fill:#FEFEFE;}
	.st1{fill:#00407F;}
</style>
<g>
	<path d="M486.2,283.9c0.5,3.4,0.1,6.7-1.2,9.8c-1.7,4.4-5.3,5.2-8.9,2.2c-5.5-4.5-6.4-11-7.3-17.4c-0.4-2.9-0.2-5.8,0-8.7
		c0.4-5.9,3.8-10.1,8.1-10c5,0.1,7.4,2.9,8.2,9.2C485.7,273.9,487,278.8,486.2,283.9z"/>
	<path d="M508.8,276.9c0.3,3.7,0,8.1-2,12.2c-0.9,1.8-2.1,4-4.5,3.8c-2.6-0.1-3.8-2.7-4.1-4.7c-1.5-8.9-3.2-17.8-3.1-26.9
		c0-1.4,0.5-2.5,1.1-3.6c2.6-4.7,5.8-4.9,8.5-0.3c2.6,4.4,4.2,9.1,4.1,14.3C508.8,273.1,508.8,274.6,508.8,276.9z"/>
	<path class="st0" d="M483.4,271.4c0,1.8,0.2,3.7-2.3,4c-2.8,0.3-8.5-5.6-8.4-8.7c0-2.5,1.4-3.9,3.9-4
		C479.4,262.6,483.4,267.7,483.4,271.4z"/>
	<path class="st1" d="M481.5,292.1c-0.4,1.7-0.8,3.4-3.1,2.2c-3.2-1.6-5.5-3.9-6.6-7.3c-0.3-1.1-0.2-2.2,0.8-3.1
		c1.2-1.1,2.2-0.1,3,0.4C478.5,286.1,480.9,288.4,481.5,292.1z"/>
	<path class="st0" d="M498,262.2c0.2-2.2,0.7-4.4,2.5-5.1c2.4-0.9,2.6,1.9,3.2,3.2c1.1,2.2,2.2,4.5,2.2,7.1c0,1.3-0.3,2.3-1.4,2.8
		c-1.4,0.7-2.5,0-3.3-1.1C499.6,267,498.1,264.8,498,262.2z"/>
	<path class="st1" d="M502.4,289.1c-3.5-1.3-4-4.2-4.3-7c-0.2-1.4,0.5-4,2.2-3.3c2.7,1.1,5,3.6,5.3,6.9
		C505.9,287.6,504.1,288.5,502.4,289.1z"/>
</g>
</svg>
