<?xml version="1.0" encoding="utf-8"?>
<!-- Generator: Adobe Illustrator 23.0.1, SVG Export Plug-In . SVG Version: 6.00 Build 0)  -->
<svg version="1.1" id="Layer_4" xmlns="http://www.w3.org/2000/svg" xmlns:xlink="http://www.w3.org/1999/xlink" x="0px" y="0px"
	 viewBox="0 0 1000 1000" style="enable-background:new 0 0 1000 1000;" xml:space="preserve">
<style type="text/css">
	.st0{fill:#FEFEFE;}
	.st1{fill:#00407F;}
</style>
<g>
	<path d="M548.3,345.7c6.1,0,9.2,4.6,7.4,10.5c-1.9,6.1-4.9,11.5-8.4,16.7c-1.8,2.7-4.4,5.8-8.2,4.9c-3.7-0.9-5.7-3.8-7.1-7.6
		C528.8,360.7,537.1,345.3,548.3,345.7z"/>
	<path d="M579.2,359.8c-1.3,9-5.2,16.9-12.3,22.7c-3.7,3.1-8.8,0.3-8.1-4.9c1.1-8.2,2.3-16.6,8.8-22.9c2.3-2.3,4.9-4.3,8-2.8
		C578.6,353.2,579.5,356.4,579.2,359.8z"/>
	<path class="st0" d="M547.8,347.6c4.2,0.5,5.7,3.7,5.7,6.9c0,2.7-0.5,7.1-4.3,6.6c-4.5-0.6-4.6-5.3-5.2-9
		C543.6,349.4,545.3,348,547.8,347.6z"/>
	<path class="st1" d="M541.9,370.4c0.3,2.1-0.7,3.2-1.9,4c-1.6,1.1-2.3-0.5-3.2-1.3c-1.7-1.4-2.3-3.4-3.2-5.3
		c-0.9-2.1,0.3-3.9,1.8-5c1.7-1.2,2.4,0.9,3.5,1.7C541,366.1,541.2,368.6,541.9,370.4z"/>
	<path class="st0" d="M577.2,359.7c-0.1,3.6-1.1,7.1-4,7.1c-2.5,0.1-3.6-3.3-3.9-6.2c-0.4-3.8,2.2-5.7,4.8-5.8
		C576.8,354.7,576.9,358,577.2,359.7z"/>
	<path class="st1" d="M567.4,376.3c-0.1,2.6-1.2,4.5-3.6,4.4c-2.7-0.2-3.4-2.5-3.3-5c0.2-2.3,0.6-5.3,3.1-5.1
		C566.3,370.8,567.1,373.8,567.4,376.3z"/>
</g>
</svg>
