<?xml version="1.0" encoding="utf-8"?>
<!-- Generator: Adobe Illustrator 23.0.1, SVG Export Plug-In . SVG Version: 6.00 Build 0)  -->
<svg version="1.1" id="Layer_4" xmlns="http://www.w3.org/2000/svg" xmlns:xlink="http://www.w3.org/1999/xlink" x="0px" y="0px"
	 viewBox="0 0 1000 1000" style="enable-background:new 0 0 1000 1000;" xml:space="preserve">
<style type="text/css">
	.st0{fill:#FEFEFE;}
	.st1{fill:#00407F;}
</style>
<g>
	<path d="M591.5,248.1c3.3-0.5,4.7,1.7,6.3,4.1c1.7,2.7,1.3,5.6-0.6,7.5c-6.3,6.2-13.2,11.8-21.3,15.4c-4.7,2.1-9.3-1.9-8.4-6.9
		C568.9,260.7,581.7,247.4,591.5,248.1z"/>
	<path d="M598.2,324.2c-3.1-0.1-7.3,0.8-8.1-3.1c-0.6-3.2,3.1-4.9,5.7-6.2c6.7-3.4,13.3-6.9,20.6-8.9c3.4-0.9,6.2-0.3,7.9,3.2
		c1.8,3.6-0.6,5.5-2.9,7.1C615.4,320.7,604.6,324.2,598.2,324.2z"/>
	<path class="st0" d="M595.7,255.2c0.1,3.1-4.6,8.9-7.3,9.3c-1.7,0.2-2.4-0.8-2.4-2.2c0-3.4,0.9-6.5,2.5-9.4c1-1.7,2.8-2.5,4.6-1.7
		C594.7,251.8,596.1,253.1,595.7,255.2z"/>
	<path class="st1" d="M577.2,264.4c0.2,3.4-1.6,5.8-4.2,7.6c-0.8,0.6-1.6,0-2-0.7c-1.5-2.9-0.3-5.7,0.9-8.3c0.6-1.4,1.9-3.5,4-2.9
		C577.6,260.7,577.1,262.8,577.2,264.4z"/>
	<path class="st0" d="M618.5,309.6c1.7-0.1,3.3,0.1,3.6,2.2c0.2,1.7-6.7,6.6-9.2,6.5c-1.5,0-2.4-0.8-2.5-2.3
		C610.2,313.8,615.5,309.6,618.5,309.6z"/>
	<path class="st1" d="M600.5,314.5c0.7,0,1.7,0.6,2,2.1c0.3,2-3.9,5.5-6.5,5.6c-1.7,0.1-2.9-0.5-3.1-2.3
		C592.7,318.1,597,314.7,600.5,314.5z"/>
</g>
</svg>
