<?xml version="1.0" encoding="utf-8"?>
<!-- Generator: Adobe Illustrator 23.0.1, SVG Export Plug-In . SVG Version: 6.00 Build 0)  -->
<svg version="1.1" id="Layer_4" xmlns="http://www.w3.org/2000/svg" xmlns:xlink="http://www.w3.org/1999/xlink" x="0px" y="0px"
	 viewBox="0 0 1000 1000" style="enable-background:new 0 0 1000 1000;" xml:space="preserve">
<style type="text/css">
	.st0{fill:#FEFEFE;}
	.st1{fill:#00407F;}
</style>
<g>
	<path d="M496.1,326.2c-0.1-7.4,1.9-13.4,7.5-17.7c3.2-2.4,6.7-4.3,10.8-1.6c3.6,2.4,5.1,7,3.7,11.4c-1.8,5.6-4,11.1-6.7,16.4
		c-1.4,2.7-3.3,5.4-6.3,4.9c-2.9-0.5-5.9-1.8-7.3-5.3C496.7,331.5,495.8,328.7,496.1,326.2z"/>
	<path d="M526.4,330.4c1-5.9,0.9-13,6.6-18.2c2-1.8,4.3-4,7.1-2c2.8,2,4.9,4.9,3.6,8.6c-2.3,6.6-5.5,12.7-10.5,17.6
		c-1.2,1.2-2.3,3.3-4.3,2.2c-1.7-0.9-2.5-2.8-2.4-4.9C526.4,333,526.4,332.2,526.4,330.4z"/>
	<path class="st0" d="M515.7,315.7c0.3,2.8-0.5,5-3.4,5.5c-2.8,0.4-6.5-4.8-6.4-8.7c0.1-2.7,1.8-4.1,4.5-3.9
		C514.8,309,515.4,312.3,515.7,315.7z"/>
	<path class="st1" d="M506.9,333.6c0,1.2-0.2,2.3-1.4,2.9c-1.2,0.6-2.2,0.3-3.1-0.6c-0.3-0.3-0.7-0.7-1-1c-2.5-2.3-4.3-4.9-2.9-8.5
		c0.4-1.1,1.8-1.6,2.9-0.9C504.2,327.5,506.7,329.8,506.9,333.6z"/>
	<path class="st0" d="M533.2,318.4c0.4-2.2,1-5.3,4.4-5.7c2.2-0.3,3.5,1.8,3.5,4.2c-0.1,3.5-1.9,5.8-5.2,6.2
		C533,323.5,533.2,321,533.2,318.4z"/>
	<path class="st1" d="M530.2,327.2c1.9,1,3.3,2.2,2.9,4.3c-0.4,1.8-0.7,4.4-3.1,4.1c-2-0.2-2.8-2.3-2.7-4.5
		C527.5,329,528.8,328.1,530.2,327.2z"/>
</g>
</svg>
