<?xml version="1.0" encoding="utf-8"?>
<!-- Generator: Adobe Illustrator 23.0.1, SVG Export Plug-In . SVG Version: 6.00 Build 0)  -->
<svg version="1.1" id="Layer_4" xmlns="http://www.w3.org/2000/svg" xmlns:xlink="http://www.w3.org/1999/xlink" x="0px" y="0px"
	 viewBox="0 0 1000 1000" style="enable-background:new 0 0 1000 1000;" xml:space="preserve">
<style type="text/css">
	.st0{fill:#FEFEFE;}
	.st1{fill:#00407F;}
	.st2{fill:#004080;}
</style>
<g>
	<path d="M445.3,268.9c0.2-2.5,0.1-4.8,0.8-7.2c1-3.4,2.7-6.1,6-6.6c3.3-0.6,5.6,2.9,6.4,5c3.7,9.1,6,18.7,3.4,28.6
		c-1.3,5.1-4.3,5.8-8.3,2.4C446.9,285.1,445.3,277.2,445.3,268.9z"/>
	<path d="M481.6,274.2c-0.5,3.3,0.3,6.1-0.9,9c-0.8,2-1.6,3.5-3.7,3.8c-2.5,0.4-3.5-1.4-4.5-3.5c-2.8-5.9-3.7-12.3-4.6-18.7
		c-0.4-3-1.4-5.9-1.1-9c0.3-3,1.1-5.7,3.8-6.7c3-1.2,4.6,1.5,6.1,3.6C481.2,259.4,481.1,267.1,481.6,274.2z"/>
	<path class="st0" d="M459,267.6c0,1.6,0.2,3.5-1.9,3.8c-2.3,0.4-8-6-7.8-8.8c0.1-2.5,1.6-3.8,4-3.8
		C456.2,258.8,459,263.2,459,267.6z"/>
	<path class="st1" d="M459,287.7c0,1.5-0.2,3-2.2,3.1c-1.5,0-7.4-7.5-7.3-9.2c0.1-1.6,1.1-2.2,2.6-2.1
		C455.1,279.6,459.1,284.4,459,287.7z"/>
	<path class="st0" d="M477.5,261.6c0.2,1.4,0.2,3.2-1.3,3.8c-1.7,0.7-2.5-1.2-3.4-2.2c-1.1-1.3-1.8-2.9-2.6-4.4
		c-1.4-2.8-0.2-5.6,2-6.5c2.2-0.9,3.3,2.1,3.9,3.9C476.8,257.9,478,259.6,477.5,261.6z"/>
	<path class="st2" d="M471.7,277.2c0-1.9,0.4-4,2.1-3.4c3.2,1.1,3.9,4.4,4.6,7.4c0.4,1.6-0.6,3.2-2.4,2.8
		C472.2,283.3,472.5,279.6,471.7,277.2z"/>
</g>
</svg>
