<?xml version="1.0" encoding="utf-8"?>
<!-- Generator: Adobe Illustrator 23.0.1, SVG Export Plug-In . SVG Version: 6.00 Build 0)  -->
<svg version="1.1" id="Layer_4" xmlns="http://www.w3.org/2000/svg" xmlns:xlink="http://www.w3.org/1999/xlink" x="0px" y="0px"
	 viewBox="0 0 1000 1000" style="enable-background:new 0 0 1000 1000;" xml:space="preserve">
<style type="text/css">
	.st0{fill:#FEFEFE;}
	.st1{fill:#00407F;}
</style>
<g>
	<path d="M498.1,276.9c-0.2,6.5-1.5,12.8-2.9,19.2c-0.6,2.9-2.8,4-5,4.5c-2.3,0.5-4.4-1.1-5.5-3.1c-4.9-9.1-5.6-18.5-1.3-28.1
		c1.5-3.3,4.8-4.7,7.9-5.7c2.4-0.8,3.7,1,4.8,3C497.8,270,498.4,273.4,498.1,276.9z"/>
	<path d="M510.7,283.3c-0.1-5.7,0-11.4,2.9-16.6c1-1.8,2.2-3.9,4.4-3.9c2.7,0,3.7,2.6,4.2,4.6c2.4,9.6,1.5,19.2-1.9,28.4
		c-0.8,2.2-2.5,4.4-5.4,3.9c-3-0.5-3-3-3.5-5.5C510.8,290.6,510.8,287,510.7,283.3z"/>
	<path class="st0" d="M496.1,275.2c0,2.1,0.5,4.2-1.6,5c-2.2,0.8-3.3-1.2-4.3-2.5c-1.6-2.1-3.1-4.4-2.9-7.3c0.2-2.1,1.4-3.3,3.2-3.7
		c1.7-0.4,2.9,0.2,3.7,2.1C495.2,271,496.6,273,496.1,275.2z"/>
	<path class="st1" d="M491.2,294.2c0.1,1.4,0,2.8-1.4,3.3c-1.3,0.5-2-0.7-2.8-1.5c-0.2-0.2-0.5-0.5-0.7-0.7
		c-2.2-2.1-3.6-4.6-2.6-7.7c0.3-0.9,1.2-1.8,2.2-1.1C488.5,288.5,490.9,290.7,491.2,294.2z"/>
	<path class="st0" d="M521.5,274.3c-0.3,1.7,1,4.4-2.1,4.9c-2.9,0.5-2.8-2.4-3.8-4.1c-0.3-0.5-0.8-1.1-0.9-1.6
		c-0.4-3.3,0.6-7,3.5-7.5c3.2-0.6,2.2,3.7,3.2,5.7C521.7,272.4,521.5,273.3,521.5,274.3z"/>
	<path class="st1" d="M512.7,291.3c0-2.6,0.1-6,2.1-5.5c2.8,0.6,3.5,4.1,3.8,7.1c0.1,1.8,0,4.1-2.3,3.9
		C512.9,296.3,512.9,293.3,512.7,291.3z"/>
</g>
</svg>
