<?xml version="1.0" encoding="utf-8"?>
<!-- Generator: Adobe Illustrator 23.0.1, SVG Export Plug-In . SVG Version: 6.00 Build 0)  -->
<svg version="1.1" id="Layer_4" xmlns="http://www.w3.org/2000/svg" xmlns:xlink="http://www.w3.org/1999/xlink" x="0px" y="0px"
	 viewBox="0 0 1000 1000" style="enable-background:new 0 0 1000 1000;" xml:space="preserve">
<style type="text/css">
	.st0{fill:#FEFEFE;}
	.st1{fill:#00407F;}
</style>
<g>
	<path d="M504.9,242c0.8-5,1.7-11.5,7.1-16.3c4.2-3.7,8.5-2.5,10.4,2.7c1.4,3.8,1.2,7.6,0.1,11.6c-1.4,5.1-1.1,10.5-3.8,15.4
		c-1.4,2.5-3.3,4.2-5.8,4.1c-2.5-0.1-4.6-1.9-5.5-4.5C506.2,251.3,504.7,247.7,504.9,242z"/>
	<path d="M543.1,235c-0.8,7.5-2,14.9-5.9,21.6c-1.2,2.1-2.9,3.1-4.9,3c-1.7-0.2-2.6-1.8-3.1-3.7c-2.2-7.4,0.5-14.4,1.6-21.5
		c0.4-2.8,1.3-5.6,3-7.8c1-1.3,2-3.4,4.1-2.9c1.9,0.4,3.2,2.1,4.1,3.8C543.2,229.9,543,232.5,543.1,235z"/>
	<path class="st0" d="M521.5,233.3c0.1,3.5-0.5,6.1-2.7,6.6c-1.7,0.5-3-2-4.1-3.5c-0.1-0.1,0-0.3-0.1-0.5c-1.4-2.5-3.1-4.9-1-7.8
		c1.1-1.5,2.9-2.3,4.2-1.4C520.5,228.4,521,231.5,521.5,233.3z"/>
	<path class="st1" d="M514.6,252.7c0.1,2.3-0.3,4.4-2.3,4c-3.9-0.8-4.6-4.5-5.4-7.7c-0.4-1.8,0.1-4.2,2.5-3.6
		C513.3,246.2,513.5,250.2,514.6,252.7z"/>
	<path class="st0" d="M541,234.2c-0.3,1.9,0.9,5-2.3,4.9c-4-0.1-4.1-4-4.5-6.7c-0.3-2.4,1.7-5.8,3.5-5.5
		C541.2,227.5,540.9,231.3,541,234.2z"/>
	<path class="st1" d="M536.1,251.8c0.2,2.7-0.9,5-2.9,4.7c-2.8-0.4-3.7-3.3-3.9-6c-0.1-2.3,1.1-4.2,3.2-4.1
		C536.2,246.4,535,250.1,536.1,251.8z"/>
</g>
</svg>
