<?xml version="1.0" encoding="utf-8"?>
<!-- Generator: Adobe Illustrator 23.0.1, SVG Export Plug-In . SVG Version: 6.00 Build 0)  -->
<svg version="1.1" id="Layer_4" xmlns="http://www.w3.org/2000/svg" xmlns:xlink="http://www.w3.org/1999/xlink" x="0px" y="0px"
	 viewBox="0 0 1000 1000" style="enable-background:new 0 0 1000 1000;" xml:space="preserve">
<style type="text/css">
	.st0{fill:#FEFEFE;}
	.st1{fill:#00407F;}
</style>
<g>
	<path d="M599.6,334.7c-0.5,2.9-2.7,5.3-5.4,6.9c-4.9,2.8-10,5.1-15.3,6.8c-3.1,1-5.1-0.8-7.1-2.7c-1.9-1.7-1.2-3.3-0.6-5.5
		c2.4-8.5,14.2-14.2,20.7-14.9C595.5,324.9,599.7,330,599.6,334.7z"/>
	<path class="st0" d="M589.1,336.3c-1-1.3-3.3-0.6-3.1-2.6c0.2-3.7,3.4-4.5,6-5.4c1.6-0.5,2.6,0.7,2.7,2.5
		C595,334.9,590.7,333.9,589.1,336.3z"/>
	<path class="st1" d="M573.3,341.4c0.6-2,1.2-4.5,3.9-5.1c1.2-0.3,2.3,1.3,1.8,2.2c-1.1,2.1,0.4,5.7-3.2,6.1
		C574,344.8,573.3,343.4,573.3,341.4z"/>
</g>
</svg>
