<?xml version="1.0" encoding="utf-8"?>
<!-- Generator: Adobe Illustrator 23.0.1, SVG Export Plug-In . SVG Version: 6.00 Build 0)  -->
<svg version="1.1" id="Layer_4" xmlns="http://www.w3.org/2000/svg" xmlns:xlink="http://www.w3.org/1999/xlink" x="0px" y="0px"
	 viewBox="0 0 1000 1000" style="enable-background:new 0 0 1000 1000;" xml:space="preserve">
<style type="text/css">
	.st0{fill:#FEFEFE;}
	.st1{fill:#00407F;}
</style>
<g>
	<path d="M459,283.2c0,0.8,0,1.6,0,2.4c-0.1,3.1-0.3,6.8-3.3,7.8c-2.7,0.9-5.7-1.5-7.4-4c-6.1-8.4-9.7-17.5-6.9-28.2
		c0.9-3.4,2.9-5.8,6.3-6.3c3.3-0.4,5.5,1.8,6.9,4.7C458.3,267.1,457.9,275.3,459,283.2z"/>
	<path d="M477.7,275.4c-0.2,2.4-0.2,4.7-1,7.1c-0.7,2.2-2.2,4.1-3.9,4.4c-1.7,0.3-3.1-1.9-4-3.6c-1.8-3.7-2.5-7.7-3.3-11.6
		c-1.1-5.4-2.8-10.7-2.6-16.3c0.1-3,0.9-6,3.5-6.8c2.3-0.7,4.1,1.6,5.6,3.9C476.7,259.5,476.3,267.6,477.7,275.4z"/>
	<path class="st0" d="M455.1,267.9c0.1,1.7,0,3.4-2.2,3.5c-2.1,0.1-8.6-6.8-8.5-9c0.2-2.9,2.7-3.3,4.8-3.5
		C452,258.6,455,263.3,455.1,267.9z"/>
	<path class="st1" d="M456,288.8c-0.4,1.7-1.2,2.6-3.3,1.5c-2.5-1.3-4.3-3.4-5.9-5.5c-0.7-0.8-1.9-2-0.8-3.4c1-1.4,2.5-1.2,3.9-0.8
		C452.4,281.4,456.1,286.2,456,288.8z"/>
	<path class="st0" d="M465.8,255.5c-0.1-1.7-0.4-3.7,1.4-4.3c1.9-0.6,2.8,1.5,3.7,2.6c1.5,2,2.3,4.4,2.6,6.9
		c0.2,1.5,0.1,3.3-1.4,3.7c-1.3,0.4-3-0.5-3.7-1.7C467.1,260.5,465.3,258.4,465.8,255.5z"/>
	<path class="st1" d="M474.6,280c0,1.9-0.1,4.2-1.7,3.8c-3.6-0.8-4.2-4.4-5-7.4c-0.4-1.5-0.1-4.1,1.9-3.6
		C473.2,273.8,473.5,277.5,474.6,280z"/>
</g>
</svg>
