<?xml version="1.0" encoding="utf-8"?>
<!-- Generator: Adobe Illustrator 23.0.1, SVG Export Plug-In . SVG Version: 6.00 Build 0)  -->
<svg version="1.1" id="Layer_4" xmlns="http://www.w3.org/2000/svg" xmlns:xlink="http://www.w3.org/1999/xlink" x="0px" y="0px"
	 viewBox="0 0 1000 1000" style="enable-background:new 0 0 1000 1000;" xml:space="preserve">
<style type="text/css">
	.st0{fill:#FEFEFE;}
	.st1{fill:#00407F;}
</style>
<g>
	<path d="M590.6,237.3c2.5-0.4,4,0.9,5.3,3.4c1.7,3.4,0.7,6.5-1.3,8.7c-5.9,6.4-12.7,11.9-21.2,14.6c-4.6,1.5-8.8-1.9-7.9-6.3
		C567.8,246.6,582.9,237.4,590.6,237.3z"/>
	<path d="M600.1,322.3c-0.6-0.1-1.4,0.1-1.9-0.2c-2.4-1.5-7-0.1-7.2-4.1c-0.2-3.3,3.6-4.2,6.2-5.7c6.2-3.6,12.9-5.6,19.6-7.4
		c1.4-0.4,2.9-0.2,4.3-0.1c2.3,0.2,4.4,1.3,5.5,3.4c1.2,2.3-1.2,3.4-2.5,4.7c-5.3,5.1-12.1,6.9-19,8.5
		C603.5,321.7,601.8,322,600.1,322.3z"/>
	<path class="st0" d="M593.8,244.4c0,3.5-4.1,8.4-7.2,8.5c-1.8,0-2.5-1-2.6-2.7c-0.2-3.4,3.8-10,6.2-9.9
		C592.6,240.4,593.7,242.1,593.8,244.4z"/>
	<path class="st1" d="M568.4,257.8c-0.3-1.8,0.6-3.3,1.4-4.8c0.9-1.6,1.7-4.3,3.8-3.5c2.6,1,1.7,3.8,1.2,5.9
		c-0.3,1.4-1.1,2.7-1.9,3.8c-0.8,1.1-1.5,2.8-3.3,2C568.3,260.7,568.3,259.2,568.4,257.8z"/>
	<path class="st0" d="M624,309.2c0.1,2.4-8.1,8-10,7.1c-1.3-0.6-1.8-1.7-1.6-3.2c0.3-3.5,7.8-7.1,10.6-5.1
		C623.4,308.3,623.7,308.9,624,309.2z"/>
	<path class="st1" d="M601.6,311.6c1.6,0.1,2.5,0.6,2.7,1.9c0.2,2.1-4.4,6.6-6.8,6.7c-2.1,0.1-3-1.3-2.7-3.1
		C595.5,313.2,599.3,313.1,601.6,311.6z"/>
</g>
</svg>
