<?xml version="1.0" encoding="utf-8"?>
<!-- Generator: Adobe Illustrator 23.0.1, SVG Export Plug-In . SVG Version: 6.00 Build 0)  -->
<svg version="1.1" id="Layer_4" xmlns="http://www.w3.org/2000/svg" xmlns:xlink="http://www.w3.org/1999/xlink" x="0px" y="0px"
	 viewBox="0 0 1000 1000" style="enable-background:new 0 0 1000 1000;" xml:space="preserve">
<style type="text/css">
	.st0{fill:#FEFEFE;}
	.st1{fill:#00407F;}
</style>
<g>
	<path d="M471.7,283.8c0,0.6,0,1.3,0,1.9c0.2,3.8,0.1,8-4.4,8.9c-4.1,0.8-6.6-2.6-8.3-5.9c-4.5-8.8-6.8-17.8-2.1-27.4
		c1.3-2.8,3.3-4.3,6.2-4.4c3.1-0.1,4.7,2.1,5.7,4.8C471.4,268.8,470.8,276.4,471.7,283.8z"/>
	<path d="M491.3,273.5c0.3,4.5-0.8,8.8-2,13.1c-0.5,1.9-1.5,3.3-3.5,3.4c-1.8,0-2.6-1.5-3.4-3c-2.1-4.1-3.1-8.7-3.5-13.1
		c-0.5-5.9-2.8-11.8-0.6-18c0.9-2.4,2.1-4.4,4.2-4.7c2.4-0.4,3.7,2,4.8,4C490.7,260.8,490.9,267.2,491.3,273.5z"/>
	<path class="st0" d="M468.7,269.1c0.1,1.6,0.3,3.5-1.5,4.2c-1.9,0.8-2.9-0.9-4-2c-2.3-2.3-5.1-4.4-3.3-8.3c1.9-4,4-4.3,6.7-0.9
		C468.2,264.1,468.9,266.5,468.7,269.1z"/>
	<path class="st1" d="M461,281.3c2.9-0.1,7.6,6.8,6.5,9.1c-0.5,1.1-1.3,1.8-2.7,1.1c-3.2-1.6-5.5-3.8-5.8-7.6
		C458.9,282.4,459.9,281.6,461,281.3z"/>
	<path class="st0" d="M488.3,264.3c0,1.4,0.4,3.2-1.2,3.9c-2.1,1-2.9-1.2-3.7-2.3c-1.9-2.7-4.2-5.5-2.3-9.1c0.4-0.9,1.2-2.4,3-1.8
		C485.9,255.8,488.3,261,488.3,264.3z"/>
	<path class="st1" d="M488.3,283.6c0.1,1.4-0.1,2.7-1.6,3.2c-1.3,0.4-1.9-0.9-2.7-1.6c-0.2-0.2-0.4-0.5-0.5-0.8
		c-1.1-2.6-3.2-5-1.4-8c0.4-0.7,1.2-1,2.1-0.6C485.6,276.5,488.3,281.5,488.3,283.6z"/>
</g>
</svg>
