<?xml version="1.0" encoding="utf-8"?>
<!-- Generator: Adobe Illustrator 23.0.1, SVG Export Plug-In . SVG Version: 6.00 Build 0)  -->
<svg version="1.1" id="Layer_4" xmlns="http://www.w3.org/2000/svg" xmlns:xlink="http://www.w3.org/1999/xlink" x="0px" y="0px"
	 viewBox="0 0 1000 1000" style="enable-background:new 0 0 1000 1000;" xml:space="preserve">
<style type="text/css">
	.st0{fill:#6E3720;}
	.st1{fill:#E00000;}
	.st2{fill:#CBB89A;}
	.st3{fill:#7F0000;}
	.st4{fill:none;}
	.st5{fill:#7898AB;}
	.st6{fill:#800000;}
	.st7{fill:#B0F3F2;}
	.st8{fill:#2B5260;}
	.st9{fill:#FB9A7A;}
	.st10{fill:#FEFEFE;}
</style>
<g>
	<path d="M808.7,548.1c-1.9-15.5-19.7-23.6-32.8-21.1c-8.6,1.6-16.3,5.5-24.4,8.3c-1.4,0.5-2.2,1.7-3.5-0.3
		c-2.6-4.2-6.6-4.6-10.9-3.1c-2.2,0.8-3.2,0.4-4-2.2c-4.6-14.7-8.2-29.6-11.5-44.7c-0.8-3.8,2-3.3,3.3-3.5c3.3-0.3,5.7-1.9,7.1-4.3
		c5.2-9,8.7-18.6,8.2-29.2c-0.5-10.5-4.4-16.2-13.1-18.1c-3-0.7-6.1-0.2-9.2-0.3c-6.6-0.1-13,0.7-18.9-4.3c-5.6-4.7-13.3-6-20.6-7.5
		c-1.9-0.4-4.3-0.2-4.7-3.9c-1.5-13.2-3.9-26.3-5.6-39.5c-1.8-14.1-3.5-28.3-5.9-42.4c-0.3-1.7-0.2-3.3,1.8-3.9
		c1.9-3.6,2.8-7.4,1.4-11.5c-0.2-0.1-0.3-0.2-0.5-0.3c-0.6-0.3-1.2,0-1.6,0.6c-3.8,5.6-9.8,6.7-15.9,7.6c-3.2,0.5-6.6-0.6-9.5,1.2
		c-0.1,0.1-0.2,0.1-0.3,0.2c-0.1,0.1-0.3,0.2-0.4,0.3c-0.9,2.4-0.2,4.4,1.4,6.2l0,0c0,0,0.1,0,0.2,0.1c3.1,1.4,6.3,0.9,9.4,0.6
		c5.3-0.5,5.8-0.2,6.4,5.2c1.1,9,2.5,18,3.7,27c2,15.3,4.1,30.6,6.3,45.9c0.5,3.5-0.1,5.7-4.1,6c-3.2,0.2-6.5,0.6-9.7,1.2
		c-3.7,0.7-5.5-0.8-5.8-4.5c-1.4-16.8-3.3-33.6-5.2-50.4c-0.7-6.3,0.3-13.1-3.3-18.9c-0.3,0-0.6,0-0.9,0c0,0-0.1,0-0.1,0
		c-3.9,0.4-5.2,3.5-6,7c0.6,7,1.5,13.9,2.2,20.9c0.6,5.8,1.3,11.7,2,17.6c1.2,9.8,2.4,19.5,3.7,29.3c0.4,3-1.9,3.7-3.7,4.3
		c-2.9,0.9-5.6,2-7.8,4.2c-6,5.9-13.3,8.2-21.6,7.7c-5.5-0.3-11.1-0.2-16.6,0c-7.4,0.1-10.3,2.2-12.5,9c-2.4,7.1-1.8,14.5-0.9,21.6
		c0.9,7.7,3.4,15.3,12.1,18.1c1.7,0.6,1,1.8,1.4,2.7c4.5,11.6,4.8,23.9,5.5,36.1c0.9,13.8-1.8,27.3-4.8,40.7
		c-2.2,9.6,2.1,15.4,12,15.4c15.3,0.1,30.6-1.3,45.9-1.9c11.6-0.5,23.3,0,34.9,0.8c9.4,0.6,18.9,0.2,28.3,0.1
		c9.1-0.1,18.3,0.9,26.8-3.6c1.2-0.6,2.1,0.2,3.1,0.5c7.4,2.3,15.1,3.5,22.8,4c12.2,0.7,23.8-2.3,34.6-8.3
		C806.2,565.6,809.9,558.4,808.7,548.1z M745,554.6c1,0,2.2-0.6,3-1.4c9.4-8.9,22.1-10,33.6-14c4.2-1.5,11.5,3.6,13.2,8.2
		c1.3,3.4-1.8,9.7-5.7,12.2c-7.6,4.8-16.3,5.3-25.1,7c-6.3-1.1-12.8-2.1-19.3-3.4c-2.8-0.5-3-3.3-3.4-5.5
		C740.9,555,742.8,554.7,745,554.6z"/>
	<path class="st0" d="M635.8,344.6c-2,2.3-4,4.7-6.1,7c-8.4,4.5-17.1,7.5-26.9,4.9c-1.6-0.4-3.4-0.2-5.1,0.8
		c-8.3,5.3-17.2,6.4-26.4,2.9c-3.4-1.3-6.5-0.6-9.3,0.3c-6.5,2.1-12.2-0.1-17.1-3.3c-13.3-8.7-24.2-19.5-28-35.9
		c-2.5-11.2-1.1-21.8,3-32.2c3.1-8,7.2-15.6,13.2-21.8c7.9-8.2,17.6-13.3,29.2-14.4c4.4-0.4,8.6,0.9,12.7,2.1
		c7.6,2.3,15.3,3,23.2,2.8c13.2-0.4,22.6,5.2,27.8,17.6c0.8,1.9,0.2,4.2,1.9,5.8c1.5,1.9,1.3,4.2,1.1,6.4
		c-2.2,8.1,0.3,15.5,3.6,22.6c1.7,3.7,3.5,7.4,4.7,11.2c0.5,1.5,1.5,3,0.3,4.6c0.3,2,0.7,3.9,1,5.9C640.8,337,639.1,341,635.8,344.6
		z"/>
	<path class="st0" d="M664,328.2c0.3-3.9,0.7-7.9,1-11.8c-0.3-0.4-0.5-0.9-0.5-1.4c0-0.3,0-0.7,0.1-1c2.5-9,3.1-18,0.3-27
		c-1-5.2-1.5-10.4,0.5-15.5c3.8-9.8,10.9-16.4,20.8-19.5c9.5-2.9,18.9-5.6,28.1-9.5c16.1-6.8,30.4-1.6,43.1,8.9
		c4.7,3.9,9.6,7.8,13.2,13.2c5.2,7.8,7.6,16,8.8,25.2c1.6,11.9-0.7,22.9-6.4,33c-5.7,10-12.8,18.9-24.8,22.6c-3,0.9-5.2-1.2-7.9-0.2
		c-3.1,1.2-6.3,2.1-9.2,3.6c-4.7,2.5-9.3,3.9-14.6,1.9c-6.7-2.6-13-0.7-19.6,1.4c-13.6,4.5-25.4-1.7-30.9-14.2
		C664.8,334.9,664.7,331.4,664,328.2z"/>
	<path d="M665,287c4.5,7.4,4.2,15.1,1.7,22.9c-0.6,1.8,0.2,4-1.5,5.4c-2.2-2-1.2-4.9-1.9-7.3c-0.3-0.9-0.4-1.9-0.5-2.9
		c-1.9-14-9.2-17.8-23.9-17.4c-3.6,0.1-7.2,2.1-10.9,0.3c0-2.3,0-4.6,0-6.9c8.4-1.6,16.9-2.7,25.4-0.8c3.6,0.8,6.1,3.7,9.1,5.7
		C663.2,286.6,663.8,287.4,665,287z"/>
	<path class="st1" d="M711,484.3c3.5,14,7.1,27.9,10.6,41.9c0.2,0.8,0.4,1.6,0.6,2.3c2.1,6.8,1.6,7.7-5.7,7.6
		c-12.3-0.1-24.5-0.7-36.8-1.1c-10.5-0.2-21.1-0.1-31.6,0.3c-11,0.5-22,0.8-33,2.1c-6.7,0.8-9.7-2.8-8.8-9.4
		c0.7-5.2,1.7-10.3,3.5-15.2c4.5-12.5,14.1-19.2,26.5-22.2c13.9-3.3,28-5.4,42.4-5.9c8.1-0.3,16.2-0.5,24.3-1.5
		C705.8,482.9,708.6,482.5,711,484.3z"/>
	<path class="st1" d="M605.5,444.5c22.2-1.9,44.6-1.5,66.8-2.3c14.6-0.6,29.1-0.4,43.7-0.7c10.1-0.2,12.7,2.2,10.8,12.9
		c-0.9,4.8-2.1,9.2-4.1,13.7c-1.4,3.3-3.7,4.5-6.8,3.7c-6.4-1.8-13.2,0.2-19.6-2c-13.8-2-27.8-1.7-41.6-3.4c-16.1-1.9-32,0.9-48,1.8
		c-4.3,0.3-8.4,0.2-12.3-1.9c-4.4-2.4-6.5-6.6-5.8-11.3c0.7-4.8,3.9-8.2,8.7-9.4C600.1,444.7,602.9,445.2,605.5,444.5z"/>
	<path class="st2" d="M635.8,344.6c1.1-4.1,3.2-8.1,2.9-12.6c4.2-0.3,8.3,0.4,12.5-0.9c4.9-1.5,4.6,3,4.9,5.4
		c2.2,15.8,3.9,31.6,6,47.4c1.4,10.4,3.2,20.7,4.8,31.1c0.2,1.4,0.3,2.6-2,3c-6.1,1.1-12.4,0.9-18.4,2.7c-1.4,0.4-2-0.3-2.1-1.8
		c-0.9-9.1-1.9-18.1-2.9-27.2c-1.2-11.1-2.6-22.2-3.8-33.3C637.3,353.9,638.1,349,635.8,344.6z"/>
	<path class="st3" d="M711,484.3c-16.8,1-33.6,1.4-50.3,3.3c-10.5,1.2-21.1,2.9-31.1,6.7c-13.6,5.2-18.9,16.3-21.3,29.5
		c-0.2,1-0.1,2-0.3,2.9c-1.7,8,0.3,10.3,8.7,9.4c13.5-1.4,27.1-2,40.7-1.9c5.9,0,11.7,0,17.6,0c1.6,0,3.3-0.5,4.6,0.8
		c-16,0.7-32,1.2-47.9,2.2c-9.1,0.5-18.2,1.8-27.3,2.7c-1.6,0.2-3,0.1-2.7-2.2c2.1-13.9,0-27.7-2.6-41.3
		c-2.2-11.5-2.5-11.2,8.6-13.2c14-2.4,28-3.9,42.1-5c16.7-1.3,33.1,0.3,49.6,2c3,0.3,6.1,0.7,9.1,1C710.7,481.6,711,482.7,711,484.3
		z"/>
	<path class="st1" d="M696.4,550.7c3.7,0,7.5,0.4,11.2,0c7.1-0.6,13.7,1.3,20.4,3c2.8,0.7,3.5,3,3.4,5.1c-0.2,3.3-0.6,6.9-4.4,8.3
		c-5,1.8-10.4,1.8-15.7,2c-11.5,0.4-23.2,0.9-34.6-0.1c-14.6-1.2-29.2-0.2-43.8-0.9c-0.5-0.2-0.9-0.4-1.4-0.3
		c-2.7,0-5.5,0.1-6.1-3.3c-0.6-3.2,1.4-5.2,3.9-6.6c3.7-2.1,8-2.7,12.1-3.4c17.3-2.9,34.7-3.6,52.2-4.3
		C694.5,550.3,695.5,550.2,696.4,550.7z"/>
	<path class="st2" d="M628,288.1c7-0.9,13.8-2.8,21.2-1.1c10.5,2.5,12.6,7.2,14.8,16.5c0.9,3.8,0.8,7.9,1.2,11.9
		c-0.1,0.3-0.1,0.7-0.2,1c-2.6,6.1-7.8,8-13.9,8.9c-4.5,0.7-8.9,1-13.4,0.9c-2.5-9.4-8.4-17.5-10.2-27.2
		C626.8,295.3,626.3,291.7,628,288.1z"/>
	<path class="st4" d="M789,559.6c-7.6,4.8-16.3,5.3-25.1,7c-6.3-1.1-12.8-2.1-19.3-3.4c-2.8-0.5-3-3.3-3.4-5.5
		c-0.4-2.7,1.6-3,3.8-3.1c1,0,2.2-0.6,3-1.4c9.4-8.9,22.1-10,33.6-14c4.2-1.5,11.5,3.6,13.2,8.2C796.1,550.8,793,557.1,789,559.6z"
		/>
	<path class="st1" d="M633.8,540.2c27.2-1.4,54.4-3.4,81.8-1.1c-1.1,4.7-1.1,4.7,0.7,9.8c-7.6-0.4-15.1-0.5-22.5-1.3
		c-7.6-0.8-15.1-1.1-22.6,0.1c-4.8,0.7-9.6,0.5-14.4,1c-12.2,1.2-24.4,1.6-36.7,2.3c-5.7,0.7-9-0.6-9.3-3.6
		c-0.3-2.7,2.5-4.6,8.1-5.3C623.9,541.4,628.9,540.5,633.8,540.2z"/>
	<path class="st3" d="M605.5,444.5c-2,1.7-4.6,0.9-6.9,1.6c-7.8,2.2-9.2,7.7-8.7,12.1c0.5,4.6,5.5,8.6,11.5,8.6
		c6.6,0,13.2-0.6,19.8-1.1c9.9-0.6,19.7-2.3,29.8-1.1c8.8,1,17.6,1.5,26.4,2.4c6.3,0.6,12.9,0.2,18.9,2.7c-5.7,1-11.3-0.8-16.9-0.9
		c-18-0.3-35.9,0.8-53.8,2.2c-10.5,0.8-21,2.8-31.5,4.6c-6.2,1-10.5-2.8-11.1-10.2c-0.4-4.7,0.5-9.4,1.2-14c0.5-3.1,2.8-5.3,5.9-5.8
		C595.2,444.6,600.3,443.8,605.5,444.5z"/>
	<path class="st5" d="M803.7,546.8c4.6,7.2-1.1,16.9-7.8,20.6c-13.2,7.4-27.1,8.9-41.7,6.5c-2.4-0.4-4.8,0-7.2-0.6
		c-4.2-1.1-6.6-2.7-4.4-7.4c7.3,1.8,14.8,3.6,22.4,3.4c10.9-0.3,21-3.2,29.8-10.1c5.1-4,4.5-14.8-1.3-18.9
		c-5.7-4.1-11.7-5.2-18.4-2.6c-7.8,3-15.9,5.5-23.7,8.5c-2.2,0.9-3.3,0.3-4.6-1.2c-1.8-2.1,0.5-3.1,1.5-3.8
		c4.6-3.2,9.8-5.2,15.3-6.2c-1.1,4.3-5.4,2.9-8.1,4.8c6.6-2.3,13.1-4.9,20-5.6c6-0.7,12.1-1,17.5,2.2c7.8,4.5,10.2,11.7,7.9,21.1
		C803.5,554.9,801.2,550.2,803.7,546.8z"/>
	<path class="st6" d="M696.4,550.7c-20.8,1.4-41.8,2.1-62.2,6.9c-1.2,0.3-2.5,0.7-3.7,1.2c-2.4,0.9-4.5,2.6-4.3,5.2
		c0.2,3.1,2.9,3.4,5.5,3.5c0.4,0,0.8,0.5,1.2,0.7c-9.2,0.7-18.3,1.6-27.5,2c-7.4,0.3-8.4-1.1-6.7-8.1c1.6-6.7,2.1-7.2,11-7.5
		c15.2-0.4,30.2-2.6,45.4-3.2c12.6-0.5,25.1-1.8,37.7-1.7C694,549.8,695.4,549.5,696.4,550.7z"/>
	<path class="st2" d="M696.5,430.8c-17.7-1.1-34.2,2.9-51,3.1c-5.6,0.1-11.2,0.3-17,0.8C634.2,424.5,685,421.2,696.5,430.8z"/>
	<path class="st7" d="M803.7,546.8c0.2,5.7,0.3,11.4-5.8,15.6c0.7-2.4,1.1-4.3,1.9-6.1c4.1-9.5-4.9-21.3-16.4-21.2
		c-7,0-13.7,1.3-20.4,3.3c-3,0.9-6.1,1.8-9.9,3c3.1-3.9,7.8-3.4,10.5-6.3c5-2.4,10.4-3.3,15.7-4.5
		C789.9,528.3,802.3,536.6,803.7,546.8z"/>
	<path class="st8" d="M739.7,536c2.9,0.7,5.5,1.7,3.7,5.2c-1.3,2.5-1.4,4.6,0.3,6.7c1.8,2.3,0.2,3.1-1.6,2.8
		c-6.4-1.2-13-1.9-19.2-4.2c-1.4-0.5-3.3-1-3.1-3.2c0.2-1.8,1.6-2.7,3.1-3.4C728.3,537.4,734.3,537.9,739.7,536z"/>
	<path class="st3" d="M633.8,540.2c-5.7,1.7-11.7,1.6-17.4,3.5c-2,0.7-4.8,0.7-4.7,3.2c0.1,2.5,2.8,3.3,5,3.8
		c1.1,0.3,2.3,0.1,3.4,0.2c-3.3,1.8-6.9,0.4-10.4,0.8c-0.8,0.1-1.6,0-2.4,0c-2.1,0.2-5,2.4-6.2,0.1c-1-1.9,0.1-4.9,0.5-7.4
		c0.4-2.5,3.1-2,4.4-2.1C615.3,542,624.5,539.7,633.8,540.2z"/>
	<path class="st9" d="M603.2,334.6c-3.3,9-8.1,16.3-18.3,18.6c-4.3,1-8-0.2-11.6-2.1c-2.5-1.3-5.2-2.3-7.8-0.9
		c-7.3,3.8-13.3,1.5-19.3-3.3c-7.7-6.1-14.8-12.3-17.6-22.2c-4.2-14.7-1.1-28.5,5.5-41.8c5-10,12.6-17,24-18.9
		c8.5-1.4,16.6,1.3,24.7,3c1.8,0.4,3.7,1,5.2,0.4c4.4-1.8,8.6-0.3,12.8,0.2c12.2,1.5,19.3,11.9,16.7,24c-1.3,5.9-1.4,11.5,2.1,17.1
		c3.7,5.8,6.2,12.2,7.8,19c2.6,11.5-5.4,21.5-17.2,20.8c-2.9-0.2-5.1-1.2-4.7-5.1C605.7,340.3,604.8,337.2,603.2,334.6z"/>
	<path class="st9" d="M699.7,328.5c-1.4,3.6-2,6.8-0.5,10.2c0.9,2.2,0.1,3.3-2.3,4c-15.2,4.5-25.3-9-22.2-21.9
		c1.1-4.5,1.5-9.3,3.2-13.5c2.7-6.7,0.8-12.4-1.7-18.5c-1.7-4.1-3-8.2-1.8-13c1.9-7.5,7-11.5,13.9-13.3c11-2.8,21.7-6.5,32-11.5
		c9.9-4.9,18.7-0.5,26.7,4.5c10.9,6.8,17.8,17,21.6,29.3c4.5,14.9,0.5,28-8.3,40.3c-5.1,7.1-11.4,10.8-20.3,10.8
		c-3.8,0-7.2,2.6-10.6,4.3c-9.9,4.9-23,0.6-28.2-9.2C700.8,330.4,700.3,329.6,699.7,328.5z"/>
	<path class="st10" d="M710.3,496.5c2.1,11.7,4.6,23.3,9.2,34.3c0.4,0.9,0.2,1.9-0.6,2.7c-1,0.9-1.9,0.8-3.1,0.3
		c-3.3-1.2-4.4-4-4.9-6.9C709.2,516.8,710.2,506.7,710.3,496.5z"/>
	<path class="st10" d="M641.2,446.1c8.7,0,17.2-2.1,25.7-1.8c16.2,0.6,32.3-1.3,48.5-1c6,0.1,9,4.1,7.6,10.1c-0.6,2.4-0.6,4.9-2,7.5
		c-9.1-11.2-21.6-12.3-34.6-12.7C671.4,447.7,656.3,446.8,641.2,446.1z"/>
	<path class="st10" d="M670.5,540.4c13.4,0.1,27-1.6,40.2,2.5C697.3,541.8,683.9,541.7,670.5,540.4z"/>
</g>
</svg>
