<?xml version="1.0" encoding="utf-8"?>
<!-- Generator: Adobe Illustrator 23.0.1, SVG Export Plug-In . SVG Version: 6.00 Build 0)  -->
<svg version="1.1" id="Layer_4" xmlns="http://www.w3.org/2000/svg" xmlns:xlink="http://www.w3.org/1999/xlink" x="0px" y="0px"
	 viewBox="0 0 1000 1000" style="enable-background:new 0 0 1000 1000;" xml:space="preserve">
<style type="text/css">
	.st0{fill:#6E3720;}
	.st1{fill:#E00000;}
	.st2{fill:#FB9A7A;}
	.st3{fill:#7F0000;}
	.st4{fill:none;}
	.st5{fill:#800000;}
	.st6{fill:#CBB89A;}
	.st7{fill:#7A99AC;}
	.st8{fill:#B5FAF7;}
	.st9{fill:#2B5260;}
	.st10{fill:#FEFEFE;}
</style>
<g>
	<path d="M895,548.4c-2.2-13.5-11.9-19.8-22.6-24.7c-12.5-5.6-26.2-5.3-39.5-3.1c-12.7,2-25,6.1-37.3,9.8c-2.3,0.7-3.6,0.7-4.9-1
		c-2.4-3.4-6.5-4.7-9.9-4.8c-4.5-0.1-5.9-2.4-7.1-5.5c-2.9-7.8-6.5-15.3-9.9-22.8c-4.9-10.7-11.7-20.4-17-30.9
		c4.5-1.8,9.4-1.4,13.2-4.2c9.6-7.1,15.5-16.3,17.4-28.2c2.2-14.6-1.8-23.9-13.6-30.7c-4.3-3.2-9.5-3-14.4-3.2
		c-4.9-0.1-9.9-0.1-14.8-0.1c-3.2,0-6.5,0-9.7,0.1H722c-2.5,0-4.9-0.1-6.9-1.8c-3.7-3-8.1-4.8-12.3-6.7c-0.1,0-0.3-0.1-0.4-0.1
		c-0.3-0.1-0.5-0.2-0.8-0.3c-8.7-2.8-17.6-4.7-26.7-5.7c-0.2,0-0.4,0-0.6-0.1c0,0-0.1,0-0.1,0c-3.9-0.9-7.9-1-11.4-1.7
		c2.8-5.3,3.4-11.3,4.8-17c1.4-5.7-0.5-10.8-4.4-15.1c-4.1-0.7-7.2-3.7-11-4.8c-11.3-3.3-22.5-1.9-33.8,0.1
		c-1.7,1.7-1.4,3.7-0.5,5.6c0.2,0.2,0.3,0.3,0.5,0.4c0,0,0,0,0,0c1.2,0.8,2.6,0.7,4,0.5c3.4-0.6,6.8-0.6,10.1-1.1
		c6.4-0.9,12.7,0.6,18.5,2.8c6.4,2.5,11.5,12.2,10.5,18.8c-0.8,5.3-5.5,8.2-14.2,9.7c-5.4,1-11,0-16.3,1.7c0,0,0,0.1-0.1,0.1
		c0,0.1-0.1,0.2-0.2,0.3c-1.2,1.9-3.1,2.6-5.4,2.7c-2.3,0-4.5-0.1-6.8,0.2c0,0,0,0-0.1,0c-0.3,0.1-0.7,0.1-1,0.1
		c-7.7,1.1-15.5,1.5-23,3.8c-1.7,0.5-3.2,0.2-4.6-0.9c-1.6-1.4-2.3-0.6-3.3,1c-4.7,7.7-12.2,11.5-20.5,13.2
		c-5.8,1.2-11.9,2.1-17.8-0.4c-1.3-0.5-2.9-0.3-4.3,0.1c-5.5,1.7-11.2,1.5-16.9,1.5h-0.6c-0.3,0-0.5,0-0.8,0
		c-5.5,0.1-11.1-0.9-16.2,2.2c-0.4,0.3-0.7,0.8-1.1,0.8c-6.5,1.1-9.8,4.8-11.7,11.3c-2.4,8.2-1.7,16.2-0.5,24.1
		c1.3,8.9,4.3,17.2,14.2,20.4c2.2,0.7,4.4,1.6,6.7,1.9c2.7,0.4,3.4,0.7,2.5,3.9c-4.3,14.7-6.4,29.7-7,45c-0.4,10.8,0,21.7,1,32.4
		c0.9,9.2,2.5,18.3,6.6,26.9c2.8,5.8,7,8.4,12.8,9c14.9,1.5,29.9,2.9,44.9,3.9c10.3,0.7,20.7,0.7,31,0.8c29.4,0.2,58.7,1.1,88.1-0.5
		c16.4-0.9,32.9,0,49.3-2c7.3-0.9,14.3-2.2,21.2-4.5c2.9-1,5.6-3.4,9-2.4c13.3,3.9,27.1,4.1,40.7,4.7c14.7,0.7,29.3-0.9,43.6-4.8
		c10.9-3,21.4-7,28.8-16.3C893,558.7,896,554.7,895,548.4z M781.6,555.7c4.8-0.2,8.6-2.3,12.3-5.2c4.5-3.5,10.3-4.4,15.6-5.9
		c13.8-3.9,27.5-8.5,42-8.3c6.1,0.1,11.8,1.6,16.1,6.7c4.1,4.9,3.4,11.5-2.3,14.7c-9.5,5.3-19.7,8-30.5,8.9c-5.7,0.5-11.3,1.5-15,2
		c-13.3-0.3-24.4-2.6-35.6-4c-4.5-0.5-3.8-4.9-4.9-7.7C779,555.4,780.7,555.7,781.6,555.7z"/>
	<path class="st0" d="M673.9,385.6c-3.3-0.6-6.6-1.4-9.9-1.7c-2.4-0.2-2.5-1.2-1.9-3c0.9-2.6,1.2-5.4,2.1-7.8
		c3-7.9,2.5-15.3-1.3-22.6c-4.5-10.5,0.3-18.3,10.6-25.3c6.7-4.5,14.3-6.8,22.2-7.5c10.4-0.9,19.9-4.9,29.9-7.4
		c16.8-4.1,32.1-0.8,46.7,7.5c7.8,4.4,15,9.7,20.2,17.2c9.9,14.3,11.2,32.7-0.3,47.1c-5.1,6.4-11.2,11.2-17.8,15.7
		c-3.3,2.2-7.4,2.1-10.7,4.3c-13.4-2.9-26.9-1.7-40.4-1.8c-4,0-7.4-0.5-10.7-3.3c-3-2.5-7-3.8-10.6-5.6c-0.4-0.6-0.6-1.2-0.5-1.8
		c0.2-1.4,0.3-3.2,1.8-3.8c1.7-0.7,2.7,0.9,3.5,2c3.9,5.6,9.8,7.8,16,9.4c6.4,1.6,12.7,0.6,18.7-1.6c5.2-1.9,10.4-3.5,16.1-3.6
		c13.6-0.2,22.7-10,28.5-24.5c4.1-10.3-0.4-19.2-5.9-27.4c-6.4-9.5-15.6-15.3-26.5-18.8c-9.7-3.1-19.1-3.4-28.6,0.5
		c-10.3,4.3-21.1,6.6-32,8.4c-4.5,0.7-9,1.8-12.7,4.6c-5.2,3.9-7,8.6-3.4,14c6.1,9,5.2,17.6,0.9,26.7
		C676.2,378.9,676.4,382.8,673.9,385.6z"/>
	<path class="st0" d="M527.4,407.1c-5.9,0.3-11.8,0.7-17.8,1c-6.1-5.3-13.4-9.2-17.8-16.3c-9.2-14.7-10.1-28.9-0.1-43.4
		c6.8-9.9,15.3-17.7,26-22.7c9.6-4.5,19.8-6.4,30.6-4.7c11.6,1.9,23.1,4.8,35.1,4.4c5.1-0.2,10.5,0.3,15.6,1.6
		c9.9,2.5,16.2,8.2,18.3,18.3c0,0.2,0.5,0.4,0.7,0.5c0,1.9,0,3.8,0,5.7c1.3,11.4,7.8,20.8,12.4,30.9c0.3,0.8,0.4,1.6,0.4,2.4
		c0.4,1.7,0.2,2.7-1.9,3.3c-3.4,0.9-6.7,0.3-10,0.4c-0.7-0.4-1.6-0.8-1.8-1.5c-2.8-7.4-7.9-13.4-12.1-20c-2-3.1-2-6.5-0.9-9.9
		c1.6-4.8,0.5-9.2-1.7-13.6c-2.1-4.1-5.1-6.6-9.6-7.5c-6.9-1.4-13.7-2.6-20.8-1.1c-3.6,0.8-7.1-0.3-10.6-0.9
		c-10.6-1.8-21-3.7-31.9-1c-14.2,3.5-22.8,12.7-27.7,25.7c-3.9,10.4-3.6,20.7,3.4,30.1c2.8,3.8,6.4,6.5,10.1,9
		c2.8,1.9,5.9,3.5,8.7,5.3C525.7,404.2,527.6,404.8,527.4,407.1z"/>
	<path class="st1" d="M732.5,467.7c13,17.1,20.6,37,28.2,56.8c0.9,2.3,0.1,3.5-2.2,3.8c-10.5,1.6-20.9,3.9-31.6,2.9
		c-17-1.6-34-0.6-51-1.1c-7-0.8-13.9,0-20.9,0.1c-18.5,0.1-37.1-0.5-55.6,0.7c-11.3,0.8-22.8-0.1-34,1.6c-0.3,0-0.4,0-0.5,0
		c-11.9,0.7-15.3-1.7-12.3-13.7c1.4-5.5,2.8-11,5.1-16.3c2.8-6.5,7.5-11.2,13.3-15.2c12.9-8.7,27.5-12.3,42.7-14.1
		c23.4-2.8,46.9-4,70.4-5.2c13.3-0.7,26.6-0.3,39.9-1.7C726.9,466,729.8,466.4,732.5,467.7z"/>
	<path class="st2" d="M673.9,385.6c0.4-4.7,1.9-9,3.8-13.3c3.1-7.3,3.7-14.1-1.4-21.2c-5.1-7-2.6-14.4,5.2-18.5
		c6.1-3.2,12.8-3.9,19.5-4.9c10.4-1.5,19.9-6,29.9-8.7c14.9-4,27.5,1.4,39.2,9.3c9.9,6.7,16,16.3,18.3,28.4
		c1.7,8.7-2.4,15.3-6.5,21.8c-6.4,10.1-15.4,15.7-27.8,15c-3.4-0.2-6.7,1-9.7,2.4c-11.8,5.4-23,4.2-34-2.3c-3-1.8-3.9-5.3-6.7-7.5
		c-0.5,1.8-1.1,3.6-1.6,5.3C692.8,389,683.5,386.6,673.9,385.6z"/>
	<path class="st2" d="M527.4,407.1c-4-3.5-8.9-5.6-13.3-8.5c-9.7-6.4-16.1-15-16-26.9c0.3-18.4,12.4-34.4,28.2-39.3
		c11.5-3.5,22.8-2.2,34.2,0c4.7,0.9,9.2,1.6,14.2,0.7c7.7-1.4,15.4,0.3,22.8,2.8c4.6,1.5,10.6,12.6,8.6,17.7c-3.3,8.3,0,14.2,5.1,20
		c3.7,4.3,5.6,9.7,7.8,14.8c-6.3,1.9-13,1.1-19.3,3c-1.8,0.6-3.9,0.4-5.5,1.3c-2.9,1.6-4.6,0.6-6.1-2.1c0.8,3.4-0.7,5.3-3.6,6.6
		c-2,0.9-4.1,1.8-5.8,3.2c-9.2,7.3-19.4,7.9-30.2,5.2c-1.1-0.3-2.4-0.4-3.4,0C539.4,407.9,533.4,407.2,527.4,407.1z"/>
	<path class="st1" d="M550.8,418.1c14.7-2,29.5-0.2,44.2-1.3c13.3-0.9,26.6-0.2,39.8-0.9c36-2,72.1-0.3,108.2-0.8
		c2.7,0,5.4,0.5,8.1,1.1c3.7,0.8,4.6,3.8,4.7,6.9c0.3,9.9-3.5,18.4-9.4,26.1c-2.5,3.3-6.6,3.3-10.2,2.9c-10.7-1.3-21.5-1.5-32.3-2.2
		c-0.6,0-1.2-0.4-1.8-0.6c-11-0.9-21.9-2-32.9-2.5c-17.7-0.8-35.3-1.5-53-2.7c-12.7-0.8-25.3,1.1-37.9,1.2
		c-14.9,0.2-29.8,3-44.7,0.4c-4.3-0.7-8.2-2-10.6-6.1c-3.9-6.8-1-14.6,6.7-18c5.6-2.5,11.7-2.6,17.6-3.1
		C548.6,418.4,549.8,418.7,550.8,418.1z"/>
	<path class="st3" d="M732.5,467.7c-13.1-0.1-26.3,0.7-39.4,1.3c-18.5,0.8-37.1,1.8-55.6,3.5c-15.3,1.4-30.5,2.6-45.4,6.7
		c-21,5.9-35,17.9-38.4,40.5c-1.6,10.9-1.1,12.3,10.3,11.4c35.4-2.6,70.8-1.7,106.2-1.8c1.9,0,3.9-0.7,5.6,0.8
		c-14.8,0.2-29.5,1.6-44.3,1.1c-17.3-0.6-34.6,1.8-51.9,2.1c-14.5,0.3-29,1.9-43.5,2.8c-8.8,0.6-8.7,0.5-8.8-8.4
		c-0.2-16.2,0.2-32.3,4.9-48c0.2-0.8,0.5-1.5,0.6-2.3c1.8-7.7,6.3-10.4,14.4-10.8c16.4-1,32.6-3.7,48.9-5.4
		c5.6-0.6,11.3-0.6,16.9-0.9c9.7-0.5,19.4-1.1,29.1-1.1c22,0.1,43.9,1.4,65.8,3.7c5.1,0.5,10.3,0.2,15.5,0.9
		C727,464.2,730.1,465,732.5,467.7z"/>
	<path class="st1" d="M694.4,549c15.2,1.2,30.5,0.1,45.6,1.1c7.2,0.5,14.3,2.9,21.6,4c3.7,0.6,3.3,3.2,2.8,5.8
		c-1.3,6.2-5.3,10-11,12.1c-5.6,2.1-11.5,2.7-17.4,3.2c-16.6,1.3-33.3,1.2-49.9,2.2c-23.4,1.3-46.7,0.4-70.1,0.5
		c-5,0-10.3-0.4-15.4-0.9c-4.8-1.1-9.9-1.4-14-5.1c-4.9-4.4-4.7-9.3,1-12.7c3-1.8,6.3-2.5,9.7-3c22.4-2.8,44.9-4.2,67.5-5.7
		C674.7,550,684.6,550.1,694.4,549z"/>
	<path class="st4" d="M865.4,557.6c-9.5,5.3-19.7,8-30.5,8.9c-5.7,0.5-11.3,1.5-15,2c-13.3-0.3-24.4-2.6-35.6-4
		c-4.5-0.5-3.8-4.9-4.9-7.7c-0.5-1.3,1.3-1,2.1-1c4.8-0.2,8.6-2.3,12.3-5.2c4.5-3.5,10.3-4.4,15.6-5.9c13.8-3.9,27.5-8.5,42-8.3
		c6.1,0.1,11.8,1.6,16.1,6.7C871.8,547.8,871.1,554.4,865.4,557.6z"/>
	<path class="st1" d="M593.8,537.2c47.2-2.7,94.4-4.3,142.2-2.1c-2.1,4.1-2.4,7.9,1.4,11.6c-6.2,0.4-11.6-0.6-16.9-0.6
		c-16.2,0-32.4-2-48.6-1.1c-17.1,1-34.2,1.5-51.4,2.1c-13.5,0.5-27.1,1.4-40.6,1.8c-4.2,0.1-8.3,1.5-12.5,0.8
		c-1.5-0.5-3.2-0.5-4.7-1c-1.8-0.6-3.4-1.5-3.6-3.6c-0.2-2.1,1.3-3.2,3-4c3.3-1.6,6.9-1.6,10.5-2
		C579.6,538.4,586.7,537.5,593.8,537.2z"/>
	<path class="st5" d="M550.8,418.1c-5.9,1.3-11.9,2.4-17.8,3.8c-8.5,2-12.3,9.1-9.2,16.4c1.4,3.4,4.2,4.9,7.5,5.5
		c8.9,1.6,17.9,2.4,27,0.8c1-0.2,1.9-0.2,2.9-0.2c11-0.3,22.1,0.2,33-1.2c14.2-1.9,28.2,0.1,42.2,0.4c18,0.4,36.1,2.1,54.1,3.9
		c3.8,0.4,8.1-0.5,11.7,1.7c-18.1-1.1-36.3-1.1-54.5-1c-22.9,0.2-45.8,1.7-68.7,3.7c-9.8,0.8-19.6,1.6-29.4,2.2
		c-7.4,0.4-14.7,1.5-22,2.7c-8.6,1.5-16.6-4.8-16.9-13.5c-0.2-4.9,0.5-9.7,1.2-14.5c0.7-5,4.2-8,10.1-9
		C531.5,418.3,541.1,417.3,550.8,418.1z"/>
	<path class="st3" d="M694.4,549c-4.2,1.9-8.9,1.1-13.3,1.6c-15.1,1.6-30.3,1.9-45.3,3.3c-14.2,1.3-28.6,2-42.6,4.8
		c-4.1,0.8-8.4,2.3-8.8,7c-0.4,4.6,4.4,5.9,7.4,8c2.7,1.8,6.4,1,8.9,3.4c-13.6-0.4-27.1-1-40.6-2.6c-6.1-0.7-12.2-0.8-18.2-2.2
		c-6.5-1.5-10.8-6.5-11.9-13.2c-0.3-1.8-0.2-2.3,1.6-2.4c8.7-0.6,17.4-1.7,26.1-1.9c17-0.3,33.8-3.2,50.8-3.3
		c4.8,0,9.7-0.6,14.5-0.7c13.8-0.2,27.6-0.8,41.3-1.3C674.3,549.1,684.3,549.1,694.4,549z"/>
	<path class="st6" d="M630.9,384.9c-4.6-7.3-8-15.2-11.7-22.9c-1.6-3.3-1-6.9-1-10.4c4.4-0.6,8.8-1.5,13.2-1.7
		c13.2-0.5,27.7,1.2,31.1,18c2.1,10.1-3.7,13.8-13.4,15.9C643.2,385,637,384.9,630.9,384.9z"/>
	<path class="st7" d="M856.4,525.5c12.9-0.4,28.9,7.5,31.7,22.9c1,5.5-1.5,12.4-6.1,16c-9.5,7.4-20.9,9.7-32,12.6
		c-6.8,1.8-13.8,2.2-20.8,2.8c-14.3-1-28.5-2.1-42.4-5.6c-2.3-0.6-4.9-0.8-6.4-3.1c0.4-2.1,0.2-3.8,3.9-3.1
		c13.2,2.7,26.6,5,40.1,4.1c16.3-1.1,32.3-4.1,46.6-12.7c10.1-6.1,9.1-14-1.1-21.8c-6.9-5.3-15.1-6.8-24.3-5.8
		c-16.8,1.9-32.3,8.4-48.7,11.5c-0.8,0.1-1.6,0.4-2.3,0.5c-2.5,0.2-5.5-0.1-6.2-2.6c-0.6-2.3,2.3-3.3,4.1-4c6.2-2.4,12.2-5.6,19-6.1
		c-0.8,3.8-5.1,2.8-6.4,4.5c9.2-2,19-4.8,29.2-5.8c8.6-0.8,17.1-1.6,25.7,0.2c5.5,1.2,10.7,3.1,15,6.7c7.9,6.7,8.8,13.6,3.5,24.4
		c5-3.1,7-7.8,5.3-13.5c-3.1-10.5-10.6-16.3-20.8-19.3C860.7,527.9,857.7,528.6,856.4,525.5z"/>
	<path class="st6" d="M701.5,401.4c-3.2,0-6.4-0.1-9.6,0c-16.9,0.6-33.9,1-50.8,2c-17.3,1-34.6,3.3-52,2.8c-0.2,0-0.5-0.2-1-0.6
		c5.2-4,11.3-5.1,17.2-6.1c22-3.9,44.3-5.5,66.6-4.8C682,394.9,692.1,396.1,701.5,401.4z"/>
	<path class="st8" d="M856.4,525.5c6.1,1.9,12.6,2.5,17.8,6.7c4.5,3.7,8.5,7.8,10.6,13.5c2.8,8-1.1,17-9.3,18.4
		c1.6-3.2,3.4-5.9,4.3-9c2.2-7.3-1.1-15.2-7.6-19.1c-9.7-5.9-20.5-6.6-31.4-5.7c-13.6,1.1-26.8,4.4-40.7,7.8c1.5-2.7,3.8-3,5.6-4
		c1.9-1.1,3.9-2,5.9-3c9-3.3,18.3-4.7,27.8-5.6C845,525,850.7,523.8,856.4,525.5z"/>
	<path class="st9" d="M785.6,547.6c-1.1,0.4-2.1,1.2-3.1,1.1c-12.2-0.7-24.4-1.2-35.8-6c-1.2-0.5-3.1-0.9-3.2-2.6
		c-0.1-2.1,2.1-2.3,3.4-3c7-3.7,14.9-3.3,22.4-5.1c5-1.2,9.5-0.6,14,1.6c1.6,0.8,2.2,1.3,0.9,3.2C780,542.5,780.2,542.8,785.6,547.6
		z"/>
	<path class="st3" d="M593.8,537.2c-6.9,0.9-13.9,1.8-20.8,2.8c-3.3,0.5-6.6,1.3-9.9,1.9c-1.6,0.3-2.9,1.2-3.2,2.6
		c-0.4,1.9,1.6,2.2,2.8,2.8c1.5,0.8,3.2,1.5,4.7,2.2c-11,1-22.1,2.1-33.2,2.9c-1.9,0.1-5.1,1.9-5.9-2c-1.1-5.3,0.1-8.1,4.3-8.8
		c7.3-1.1,14.6-2,22-2.7C567.7,537.9,580.7,537.3,593.8,537.2z"/>
	<path class="st9" d="M780.4,571.2c12.6,3.6,25.5,5.6,38.5,7c3.4,0.3,6.8,1.2,10.2,1.8c-16.1,0.6-32.1-0.7-48-3.8
		C776.3,575.2,779.4,573.1,780.4,571.2z"/>
	<path class="st10" d="M728.6,478c10.5,12,19,24.9,21.6,40.9c0.3,1.6,1.3,3.1-0.5,4.1c-1.6,1-3.3,1.8-5.4,1.1
		c-4.3-1.5-7.1-4.5-7.9-8.7C734,502.9,732.1,490.3,728.6,478z"/>
	<path class="st10" d="M608.1,419.2c0.3-0.1,0.6-0.3,0.9-0.3c19,0.6,37.9-1.6,56.9-1c24,0.7,48-1.6,72-1c9.1,0.2,13.3,5.4,11.2,14.3
		c-0.1,0.6-0.2,1.3-0.1,1.9c0.2,2.3-1,4.4-2.3,5.6c-2.1,1.9-3-1.4-4.3-2.3c-10.8-7.8-23-10.7-36-11.7c-14.3-1.1-28.7-1.4-43-2.1
		c-7.4-0.4-14.8-0.3-22.3-0.7c-11-0.6-22.1-1.3-33.1-1.9C608,419.7,608.1,419.5,608.1,419.2z"/>
	<path class="st10" d="M658.8,536.1c18,0,36.1-0.4,54.1,0.3c4.4,0.2,9.3-0.3,13.7,1.7c0.9,0.4,1.9,0.9,1.9,1.9c-0.1,1.5-1.4,1-2.2,1
		c-6.6,0.3-13.1-0.6-19.6-1.7c-1.3-0.2-2.6-0.3-3.9-0.2c-12,0.7-23.9-1.1-35.9-1C664.1,538.1,661.7,536.6,658.8,536.1z"/>
</g>
</svg>
