<?xml version="1.0" encoding="utf-8"?>
<!-- Generator: Adobe Illustrator 23.0.1, SVG Export Plug-In . SVG Version: 6.00 Build 0)  -->
<svg version="1.1" id="Layer_4" xmlns="http://www.w3.org/2000/svg" xmlns:xlink="http://www.w3.org/1999/xlink" x="0px" y="0px"
	 viewBox="0 0 1000 1000" style="enable-background:new 0 0 1000 1000;" xml:space="preserve">
<style type="text/css">
	.st0{fill:#6E3720;}
	.st1{fill:#E00000;}
	.st2{fill:#CBB89A;}
	.st3{fill:#7F0000;}
	.st4{fill:none;}
	.st5{fill:#7898AB;}
	.st6{fill:#800000;}
	.st7{fill:#B0F3F2;}
	.st8{fill:#2B5260;}
	.st9{fill:#FB9A7A;}
	.st10{fill:#FEFEFE;}
</style>
<g>
	<path d="M808.7,548.1c-1.9-15.5-19.6-23.6-32.8-21.1c-8.6,1.6-16.3,5.5-24.4,8.3c-1.4,0.5-2.2,1.7-3.5-0.4
		c-2.6-4.2-6.6-4.6-10.9-3.1c-2.2,0.8-3.2,0.3-4-2.2c-4.6-14.7-8.2-29.6-11.5-44.7c-0.9-3.8,2-3.3,3.4-3.5c3.2-0.3,5.7-1.9,7.1-4.4
		c5.1-9,8.7-18.6,8.2-29.2c-0.5-10.6-4.4-16.1-13.2-18c-3-0.6-6.1-0.2-9.2-0.3c-6.6-0.1-13,0.7-19-4.3c-5.5-4.6-13-6.3-20.1-7.3
		c-4.2-0.6-5.4-3.1-5.8-6.3c-1.5-13.2-3.9-26.3-5.8-39.5c-2.2-15-4.2-30.1-6.9-45c-0.3-1.7-0.2-3.3,1.8-3.9
		c1.9-3.6,2.8-7.4,1.5-11.5c-0.2-0.1-0.3-0.2-0.5-0.3h0c-0.9-0.4-1.5,0.3-1.9,0.9c-3.3,4.6-8.1,6-13.5,6.9
		c-3.9,0.7-8.1-0.5-11.7,1.6c-0.1,0-0.2,0.1-0.2,0.1c-0.1,0.1-0.3,0.2-0.4,0.3c-1,2.4-0.2,4.4,1.4,6.2c0.1,0,0.1,0.1,0.2,0.1
		c3,1.4,6.3,0.9,9.4,0.6c5.4-0.5,5.6-0.4,6.5,5.1c2.6,16.6,5,33.1,7.5,49.7c1.4,9.5,2.9,19,4.3,28.5c0.6,3.8-0.7,5.5-4.5,5.8
		c-2.4,0.2-4.9,0.5-7.3,0.9c-6.4,1-6.6,0.9-7.4-5.4c-2.7-21.8-5.7-43.5-8.3-65.3c-0.3-2.7-0.3-5.6-2.4-7.7c-0.3,0-0.6,0-0.8,0.1
		c0,0,0,0-0.1,0c-3.9,0.5-5.2,3.5-6,7c1,8,1.9,16.1,3.1,24.1c2.2,15.4,4.5,30.7,6.8,46.1c0.5,3.6-0.2,6.2-4.5,7
		c-2.4,0.4-4.7,1.7-6.5,3.6c-6.3,6.5-14,8.7-22.9,8.1c-5-0.3-10.1-0.1-15.1,0c-7.9,0.1-11,2.2-13.2,9.4c-2.2,6.9-1.6,14.2-0.8,21.1
		c1,7.7,3.4,15.3,12.1,18.2c1.7,0.6,1,1.8,1.4,2.7c4.5,11.6,4.8,23.9,5.6,36.1c0.9,13.8-1.8,27.3-4.8,40.7
		c-2.2,9.6,2.1,15.4,12,15.4c14,0,28-1.2,42-1.8c10.9-0.5,21.9-0.5,33,0.5c12.1,1.1,24.4,0.3,36.6,0.2c8.3,0,16.7,0.7,24.3-3.6
		c1.2-0.7,2.1,0.2,3.1,0.5c7.4,2.3,15.1,3.5,22.8,4c12.1,0.7,23.5-2.3,34.2-8C806.1,565.9,809.9,558.5,808.7,548.1z M745,554.6
		c1-0.1,2.2-0.7,3-1.4c9.4-8.9,22.1-10,33.6-14c4.2-1.5,11.5,3.6,13.2,8.2c1.3,3.5-1.8,9.6-5.8,12.2c-7.6,4.8-16.3,5.3-25.1,7
		c-6.3-1.1-12.8-2.1-19.3-3.4c-2.8-0.6-3-3.3-3.3-5.5C740.9,554.9,742.9,554.7,745,554.6z"/>
	<path class="st0" d="M633.9,339.7c-2,2.3-4,4.7-6.1,7c-8.4,4.5-17.1,7.5-26.9,4.9c-1.6-0.4-3.4-0.2-5.1,0.8
		c-8.3,5.3-17.2,6.4-26.4,2.9c-3.4-1.3-6.5-0.6-9.3,0.3c-6.5,2.1-12.2-0.1-17.2-3.3c-13.3-8.7-24.2-19.5-28-35.9
		c-2.5-11.2-1.1-21.8,3-32.2c3.1-8,7.2-15.6,13.2-21.8c7.9-8.2,17.6-13.3,29.2-14.4c4.4-0.4,8.6,0.9,12.7,2.1
		c7.6,2.3,15.3,3,23.2,2.8c13.2-0.4,22.6,5.2,27.8,17.6c0.8,1.9,0.2,4.2,1.9,5.8c1.5,1.9,1.3,4.2,1.1,6.4
		c-2.2,8.1,0.3,15.5,3.6,22.6c1.7,3.7,3.5,7.4,4.7,11.2c0.5,1.5,1.5,3,0.3,4.6c0.3,2,0.7,3.9,1,5.9
		C638.9,332.1,637.1,336.1,633.9,339.7z"/>
	<path class="st0" d="M662.1,323.3c0.3-3.9,0.7-7.9,1-11.8c-0.3-0.4-0.5-0.9-0.5-1.4c0-0.3,0-0.7,0.1-1c2.5-9,3.1-18,0.3-27
		c-1-5.2-1.5-10.4,0.5-15.5c3.8-9.8,10.9-16.4,20.8-19.5c9.5-2.9,18.9-5.6,28.1-9.5c16.1-6.8,30.4-1.6,43.1,8.9
		c4.7,3.9,9.6,7.8,13.2,13.2c5.2,7.8,7.6,16,8.8,25.2c1.6,11.9-0.7,22.9-6.4,33c-5.7,10-12.8,18.9-24.8,22.6c-3,0.9-5.2-1.2-7.9-0.2
		c-3.1,1.2-6.3,2.1-9.2,3.6c-4.7,2.5-9.3,3.9-14.6,1.9c-6.7-2.6-13-0.7-19.6,1.4c-13.6,4.5-25.4-1.7-30.9-14.2
		C662.8,330,662.7,326.5,662.1,323.3z"/>
	<path d="M663,282.1c4.5,7.4,4.2,15.1,1.7,22.9c-0.6,1.8,0.2,4-1.5,5.4c-2.2-2-1.2-4.9-1.9-7.3c-0.3-0.9-0.4-1.9-0.5-2.9
		c-1.9-14-9.2-17.8-23.9-17.4c-3.6,0.1-7.2,2.1-10.9,0.3c0-2.3,0-4.6,0-6.9c8.4-1.6,16.9-2.7,25.4-0.8c3.6,0.8,6.1,3.7,9.1,5.7
		C661.3,281.7,661.9,282.5,663,282.1z"/>
	<path class="st1" d="M711,484.3c3.5,14,7.1,27.9,10.6,41.9c0.2,0.8,0.4,1.6,0.6,2.3c2.1,6.8,1.6,7.7-5.7,7.6
		c-12.3-0.1-24.5-0.7-36.8-1.1c-10.5-0.2-21.1-0.1-31.6,0.3c-11,0.5-22,0.8-33,2.1c-6.7,0.8-9.7-2.8-8.8-9.4
		c0.7-5.2,1.7-10.3,3.5-15.2c4.5-12.5,14.1-19.2,26.5-22.2c13.9-3.3,28-5.4,42.4-5.9c8.1-0.3,16.2-0.5,24.3-1.5
		C705.8,482.9,708.6,482.5,711,484.3z"/>
	<path class="st1" d="M605.5,444.5c22.2-1.9,44.6-1.5,66.8-2.3c14.6-0.6,29.1-0.4,43.7-0.7c10.1-0.2,12.7,2.2,10.8,12.9
		c-0.9,4.8-2.1,9.2-4.1,13.7c-1.4,3.3-3.7,4.5-6.8,3.7c-6.4-1.8-13.2,0.2-19.6-2c-13.8-2-27.8-1.7-41.6-3.4c-16.1-1.9-32,0.9-48,1.8
		c-4.3,0.3-8.4,0.2-12.3-1.9c-4.4-2.4-6.5-6.6-5.8-11.3c0.7-4.8,3.9-8.2,8.7-9.4C600.1,444.7,602.9,445.2,605.5,444.5z"/>
	<path class="st2" d="M633.9,339.7c1.1-4.1,3.2-8.1,2.9-12.6c4.2-0.3,8.3,0.4,12.5-0.9c2.2-0.7,4-0.3,4.3,3.1
		c0.8,7.9,2.4,15.7,3.7,23.5c1.5,9.6,2.9,19.2,4.3,28.8c1.5,10.1,3.1,20.1,4.3,30.2c0.2,1.9,2.2,4.4,0.7,5.3
		c-1.9,1.3-4.8,1.5-7.3,1.6c-4.2,0.2-8.2,0.9-12.3,1.8c-1.5,0.3-2.4,0.3-2.6-1.6c-1.2-11.4-2.5-22.9-3.9-34.2
		c-1.5-11.4-3.3-22.7-4.7-34C635.4,347,636,343.2,633.9,339.7z"/>
	<path class="st3" d="M711,484.3c-16.8,1-33.6,1.4-50.3,3.3c-10.5,1.2-21.1,2.9-31.1,6.7c-13.6,5.2-18.9,16.3-21.3,29.5
		c-0.2,1-0.1,2-0.3,2.9c-1.7,8,0.3,10.3,8.7,9.4c13.5-1.4,27.1-2,40.7-1.9c5.9,0,11.7,0,17.6,0c1.6,0,3.3-0.5,4.6,0.8
		c-16,0.7-32,1.2-47.9,2.2c-9.1,0.5-18.2,1.8-27.3,2.7c-1.6,0.2-3,0.1-2.7-2.2c2.1-13.9,0-27.7-2.6-41.3
		c-2.2-11.5-2.5-11.2,8.6-13.2c14-2.4,28-3.9,42.1-5c16.7-1.3,33.1,0.3,49.6,2c3,0.3,6.1,0.7,9.1,1C710.7,481.6,711,482.7,711,484.3
		z"/>
	<path class="st1" d="M696.4,550.7c3.7,0,7.5,0.4,11.2,0c7.1-0.6,13.7,1.3,20.4,3c2.8,0.7,3.5,3,3.4,5.1c-0.2,3.3-0.6,6.9-4.4,8.3
		c-5,1.8-10.4,1.8-15.7,2c-11.5,0.4-23.2,0.9-34.6-0.1c-14.6-1.2-29.2-0.2-43.8-0.9c-0.5-0.2-0.9-0.4-1.4-0.3
		c-2.7,0-5.5,0.1-6.1-3.3c-0.6-3.2,1.4-5.2,3.9-6.6c3.7-2.1,8-2.7,12.1-3.4c17.3-2.9,34.7-3.6,52.2-4.3
		C694.5,550.3,695.5,550.2,696.4,550.7z"/>
	<path class="st2" d="M626,283.2c7-0.9,13.8-2.8,21.2-1.1c10.5,2.5,12.6,7.2,14.8,16.5c0.9,3.8,0.8,7.9,1.2,11.9
		c-0.1,0.3-0.1,0.7-0.2,1c-2.6,6.1-7.8,8-13.9,8.9c-4.5,0.7-8.9,1-13.4,0.9c-2.5-9.4-8.4-17.5-10.2-27.2
		C624.8,290.4,624.3,286.8,626,283.2z"/>
	<path class="st4" d="M789,559.6c-7.6,4.8-16.3,5.3-25.1,7c-6.3-1.1-12.8-2.1-19.3-3.4c-2.8-0.6-3-3.3-3.3-5.5
		c-0.4-2.8,1.6-3,3.8-3.1c1-0.1,2.2-0.7,3-1.4c9.4-8.9,22.1-10,33.6-14c4.2-1.5,11.5,3.6,13.2,8.2C796.1,550.9,793,557.1,789,559.6z
		"/>
	<path class="st1" d="M633.8,540.2c27.2-1.4,54.4-3.4,81.8-1.1c-1.1,4.7-1.1,4.7,0.7,9.8c-7.6-0.4-15.1-0.5-22.5-1.3
		c-7.6-0.8-15.1-1.1-22.6,0.1c-4.8,0.7-9.6,0.5-14.4,1c-12.2,1.2-24.4,1.6-36.7,2.3c-5.7,0.7-9-0.6-9.3-3.6
		c-0.3-2.7,2.5-4.6,8.1-5.3C623.9,541.4,628.9,540.5,633.8,540.2z"/>
	<path class="st3" d="M605.5,444.5c-2,1.7-4.6,0.9-6.9,1.6c-7.8,2.2-9.2,7.7-8.7,12.1c0.5,4.6,5.5,8.6,11.5,8.6
		c6.6,0,13.2-0.6,19.8-1.1c9.9-0.6,19.7-2.3,29.8-1.1c8.8,1,17.6,1.5,26.4,2.4c6.3,0.6,12.9,0.2,18.9,2.7c-5.7,1-11.3-0.8-16.9-0.9
		c-18-0.3-35.9,0.8-53.8,2.2c-10.5,0.8-21,2.8-31.5,4.6c-6.2,1-10.5-2.8-11.1-10.2c-0.4-4.7,0.5-9.4,1.2-14c0.5-3.1,2.8-5.3,5.9-5.8
		C595.2,444.6,600.3,443.8,605.5,444.5z"/>
	<path class="st5" d="M803.7,546.8c4.6,7.2-1.1,16.9-7.8,20.6c-13.2,7.4-27.1,8.9-41.7,6.5c-2.4-0.4-4.8,0-7.2-0.6
		c-4.2-1.1-6.6-2.7-4.4-7.4c7.3,1.8,14.8,3.6,22.4,3.4c10.9-0.3,21-3.2,29.8-10.1c5.1-4,4.5-14.8-1.3-18.9
		c-5.7-4.1-11.7-5.2-18.4-2.6c-7.8,3-15.9,5.5-23.7,8.5c-2.2,0.9-3.3,0.3-4.6-1.2c-1.8-2.1,0.5-3.1,1.5-3.8
		c4.6-3.2,9.8-5.2,15.3-6.2c-1.1,4.3-5.4,2.9-8.1,4.8c6.6-2.3,13.1-4.9,20-5.6c6-0.7,12.1-1,17.5,2.2c7.8,4.5,10.2,11.7,7.9,21.1
		C803.5,554.9,801.2,550.2,803.7,546.8z"/>
	<path class="st6" d="M696.4,550.7c-20.8,1.4-41.8,2.1-62.2,6.9c-1.2,0.3-2.5,0.7-3.7,1.2c-2.4,0.9-4.5,2.6-4.3,5.2
		c0.2,3.1,2.9,3.4,5.5,3.5c0.4,0,0.8,0.5,1.2,0.7c-9.2,0.7-18.3,1.6-27.5,2c-7.4,0.3-8.4-1.1-6.7-8.1c1.6-6.7,2.1-7.2,11-7.5
		c15.2-0.4,30.2-2.6,45.4-3.2c12.6-0.5,25.1-1.8,37.7-1.7C694,549.8,695.4,549.5,696.4,550.7z"/>
	<path class="st2" d="M696,430.5c-22.7,0-44.9,4.5-67.5,4C634.8,424.4,685.5,421.2,696,430.5z"/>
	<path class="st7" d="M803.7,546.8c0.2,5.7,0.3,11.4-5.8,15.6c0.7-2.4,1.1-4.3,1.9-6.1c4.1-9.5-4.9-21.3-16.4-21.2
		c-7,0-13.7,1.3-20.4,3.3c-3,0.9-6.1,1.8-9.9,3c3.1-3.9,7.8-3.4,10.5-6.3c5-2.4,10.4-3.3,15.7-4.5
		C789.9,528.3,802.3,536.6,803.7,546.8z"/>
	<path class="st8" d="M738.7,536.2c4.5-0.1,6.1,2.1,4.5,5.6c-1,2.2-1,4.1,0.4,5.8c1.8,2.3,0.9,3.5-1.5,3.1c-6.4-1.2-13-1.9-19.2-4.2
		c-1.3-0.5-2.9-1-3-2.8c-0.1-1.9,1.4-2.8,2.8-3.6C727.9,537.3,734,538.2,738.7,536.2z"/>
	<path class="st3" d="M633.8,540.2c-5.7,1.7-11.7,1.6-17.4,3.5c-2,0.7-4.8,0.7-4.7,3.2c0.1,2.5,2.8,3.3,5,3.8
		c1.1,0.3,2.3,0.1,3.4,0.2c-3.3,1.8-6.9,0.4-10.4,0.8c-0.8,0.1-1.6,0-2.4,0c-2.1,0.2-5,2.4-6.2,0.1c-1-1.9,0.1-4.9,0.5-7.4
		c0.4-2.5,3.1-2,4.4-2.1C615.3,542,624.5,539.7,633.8,540.2z"/>
	<path class="st9" d="M601.2,329.7c-3.3,9-8.1,16.3-18.3,18.5c-4.3,1-8-0.1-11.6-2.1c-2.5-1.4-5.2-2.3-7.8-1
		c-7.3,3.8-13.3,1.5-19.3-3.3c-7.6-6.1-14.8-12.2-17.6-22.1c-4.2-14.7-1.1-28.5,5.5-41.8c5-10,12.5-17,23.9-18.9
		c8.5-1.4,16.6,1.2,24.7,3c1.8,0.4,3.7,1,5.2,0.4c4.4-1.8,8.6-0.3,12.9,0.2c12.2,1.5,19.4,11.9,16.7,23.9
		c-1.3,5.9-1.5,11.5,2.1,17.1c3.6,5.8,6.3,12.2,7.8,19c2.6,11.5-5.3,21.5-17.2,20.9c-2.8-0.2-5.2-1.1-4.7-5
		C603.8,335.5,602.8,332.4,601.2,329.7z"/>
	<path class="st9" d="M697.7,323.5c-1.2,3.8-2,7.2-0.4,10.7c0.9,2-0.1,3.1-2.1,3.7c-6.4,1.7-12.8,1.5-17.4-3.5
		c-4.5-4.9-7.2-10.9-5.1-18.1c1.3-4.4,1.6-9.2,3.3-13.5c2.7-6.8,1-12.8-1.9-18.9c-4.9-10.3-0.8-20.7,8.5-24.6c3-1.3,6-2.3,9.1-2.9
		c8.8-1.7,16.9-5.1,24.7-9.2c10.9-5.6,20.3-1.5,29.3,4.1c10.1,6.4,16.7,16,20.5,27.3c5.2,15.1,1.5,28.7-7.4,41.4
		c-5.2,7.4-11.7,11.4-21,11.4c-3.6,0-6.9,2.5-10.2,4.2c-10.1,5.1-23.2,0.8-28.4-9.3C698.8,325.4,698.4,324.7,697.7,323.5z"/>
	<path class="st10" d="M710.4,496.7c1.7,11.6,4.7,22.7,8.9,33.6c0.5,1.4,0.7,2.5-0.5,3.4c-1.2,1-2.2,0.1-3.5-0.3
		c-3.5-1.1-3.8-4.1-4.3-6.8C709.1,516.7,710.2,506.7,710.4,496.7z"/>
	<path class="st10" d="M721,460.9c-8.5-10.7-20.4-12.2-32.7-12.6c-15.7-0.6-31.5-1.4-47.2-2.4c12.9-0.2,25.7-2.1,38.7-1.5
		c12.1,0.5,24.2-1.6,36.3-1c5,0.3,8.8,4.6,7.3,9.3C722.5,455.3,723.1,458.1,721,460.9z"/>
	<path class="st10" d="M670.6,540.4c13.5,0.1,26.9-1.5,40.1,2.5C697.3,541.9,683.9,541.6,670.6,540.4z"/>
</g>
</svg>
