<?xml version="1.0" encoding="utf-8"?>
<!-- Generator: Adobe Illustrator 23.0.1, SVG Export Plug-In . SVG Version: 6.00 Build 0)  -->
<svg version="1.1" id="Layer_4" xmlns="http://www.w3.org/2000/svg" xmlns:xlink="http://www.w3.org/1999/xlink" x="0px" y="0px"
	 viewBox="0 0 1000 1000" style="enable-background:new 0 0 1000 1000;" xml:space="preserve">
<style type="text/css">
	.st0{fill:#6E3720;}
	.st1{fill:#E00000;}
	.st2{fill:#FB9A7A;}
	.st3{fill:#7F0000;}
	.st4{fill:none;}
	.st5{fill:#CBB89A;}
	.st6{fill:#7A99AC;}
	.st7{fill:#2B5260;}
	.st8{fill:#B5FBF8;}
	.st9{fill:#FEFEFE;}
</style>
<g>
	<path d="M911,551.8c-0.9-11.9-6.7-20.8-17.4-26.4c-17.2-8.8-35.2-9-53.7-5.5c-12.5,2.4-24.4,7-36.8,9.9c-3.8,0.9-4.6-1.1-5-3.1
		c-1.1-4.9-1.7-10-2.2-15.1c-1.5-15.2-8.6-27.6-19.3-38c-4.9-4.8-10.4-9.1-16.7-12.1c3.3-2.3,7-3.3,9.9-6.1
		c8.2-8.2,12.9-17.9,14.9-29.4c2.3-13.4-6-30.8-22.9-30.7c-2.1-2.3-5-2.2-7.7-2.3c-6.5-0.1-13-0.3-19.5,0.1
		c-8.6,0.5-16.7-0.4-24.2-5.2c-2.9-1.9-6.3-2.6-9.5-3.9c-0.1,0-0.3-0.1-0.4-0.2c-0.1-0.1-0.3-0.1-0.4-0.1
		c-9.1-2.8-18.4-4.7-27.8-6.1c0,0-0.1,0-0.2,0c-0.1,0-0.1,0-0.2,0c-4.7-0.5-10.3,1.1-12.7-4.6c-0.1-0.3-0.2-0.6-0.3-0.9
		c0-0.1-0.1-0.2-0.1-0.3c-6.4,3.1-13.2,4.8-20.4,5.4c-3.8,0.3-7.8-0.2-11.5,1.1c-0.1,0.1-0.2,0.1-0.3,0.2c-3.9,2.3-8.3,1.9-12.6,2.3
		c-0.1,0-0.3,0-0.4,0.1c-0.3,0.1-0.5,0.1-0.8,0.1c-1.4,0.2-2.7,0.3-4.1,0.5c-8,1.3-16.2,1.8-23.8,4.8c-0.2,0.1-0.4,0.2-0.6,0.3
		c-0.5,0.2-0.9,0.4-1.3,0.7c-0.3,0.2-0.6,0.3-0.9,0.5c-5.7,2.7-11.3,5.8-16.5,9.4c-3.4,2.3-7.2,3.9-11,2.8c-10-3-19.8-2.3-29.7,0
		c-0.1,0-0.3,0-0.4,0.1c-1.3,0-2.7-0.2-4,0c-0.1,0-0.3,0-0.4,0.1c-5.3,1.2-11-0.5-16.1,2.3c-3.9,1-7.8,2.1-11.7,2.8
		c-4.6,0.9-7.3,3.9-8.9,7.8c-4.9,12.7-3.1,25.1,2.4,37.1c2.9,6.4,8.2,10.6,14.1,14c-6.4,7.3-12.8,14.1-15.6,23.4
		c-4.1,13.7-2.7,27.4-1.1,41.2c1.9,16.3,7.6,30.4,20.6,40.9c8.8,7.1,17.7,13.8,29.3,16.4c13.5,3,27.3,4.5,41,5.5
		c17.2,1.2,34.3,2.9,51.5,3c14.1,0.2,28.1,0.4,42.3-0.6c14-1,28-1.1,42-2.1c13.4-0.9,26.8-1.4,40-4.1c6.9-1.4,14.6-0.9,20.4-5
		c6.3-4.3,12-3.4,18.3-1.5c1.1,0.3,2.1,0.6,3.2,0.7c7.1,0.9,14.1,2.5,21.2,2.7c6.5,0.2,12.9,2.1,19.3,1.1
		c10.4-1.6,20.9-1.7,31.3-3.7c14.6-2.8,28.4-7.2,40-16.7C907.7,562.1,911.4,557.6,911,551.8z M793.4,561.2
		c2.1-9.1,8.3-12.4,16.4-14.4c12.9-3.2,25.8-6.6,38.6-10.1c8-2.2,16-3.2,24.2-0.6c5.7,1.8,11.9,8.3,12.1,13.9
		c0.1,4.3-3.8,6.1-6.5,7.4c-11.1,5.2-22.5,9.7-35,10c-5.1,0.1-10.2,1.9-13.1,1.3c-12.9-0.7-23.6-1.3-34.1-3.2
		C793.2,565,792.6,564.7,793.4,561.2z"/>
	<path class="st0" d="M761.8,395.4c-11.9-1.8-23.9-0.6-35.8-0.8c-3.7-0.1-6.9-0.8-10.2-2.5c-5.1-2.6-10.5-4.8-15.7-7.2
		c0-2,0.3-4.2,2.3-4.9c2-0.6,2.9,1.6,4.2,2.7c7.7,6.9,16.9,9.9,27,8c9.4-1.8,18.6-4.4,27.9-6.4c12.2-2.7,21.2-11.1,25.1-23.1
		c3.5-10.7-0.7-20.5-8.1-28.2c-15.9-16.5-35.1-22.2-57.3-14.9c-8.4,2.7-16.8,4.9-25.5,6.2c-6.4,0.9-12.8,2.5-18.4,6.1
		c-5.1,3.3-6.8,7.2-3.6,11.9c8.6,12.8,2.6,24.5-1.8,36.5c-4,0.7-8-0.3-11.8-1c-4.3-0.8,0.3-4-1-5.8c-1.2-1.4-0.6-2.8,0-4.2
		c2.8-7.1,5.2-14.2,0-21.3c-0.4-0.5-0.4-1.2-0.1-1.9c0.7-2.2-0.8-4-0.9-6.1c-0.5-8,5.4-12.2,10.6-16.2c7.8-6,17.1-9.1,26.8-9.7
		c8.9-0.6,16.9-4.1,25.3-6.3c23.6-6,44.3-0.3,63.3,14.2c9.7,7.4,15.9,17,17.4,28.9c1.1,9.1-2.3,17.4-7.5,24.9
		c-4.8,6.8-11.4,11.6-18.3,15.8C771.6,392.9,766.5,393.8,761.8,395.4z"/>
	<path class="st0" d="M627,379.1c-1.8,2.9-4.8,2.5-7.5,2.7c-1.8,0.2-3.6,0-5.3-0.1c-2.1-0.8-2.6-2.8-3.6-4.4
		c-2.9-5.1-5.7-10.3-9.2-15c-2.5-3.4-3.3-6.8-2.4-11c2.3-11.7-1.4-17.4-13-20.1c-6.7-1.6-13.4-2.6-20.3-1.1c-3.9,0.8-7.8-0.3-11.6-1
		c-9.3-1.8-18.5-3-28.1-1.7c-14.4,1.9-28.7,13.6-32.6,27.8c-5.2,18.8,1.4,27.1,15.3,37.2c4.3,3.1,9,6,14.4,6.9
		c1.1,0.2,2.3,0.5,2.4,2c-7.2,0-14.2,1.7-21.4,1.1c-5.1-3.7-10.5-7.1-15.3-11c-6-5-10-11.1-11.3-19.2c-3.1-20,7.5-33.2,21.3-44.9
		c8.7-7.3,19.1-9.5,30.2-11.1c11.2-1.6,21.4,1.7,32.1,2.9c6.3,0.7,12.6,0.2,19,0.4c9,0.2,17.4,2.2,25.1,7.6
		c4.7,3.3,7.2,7.8,9.2,12.8c1.3,1.6,1.3,3.4,1.1,5.3c-1.5,4.8-0.6,9.1,1.7,13.5c2.7,5.1,5.9,10.1,8.3,15.4
		C626.1,375.6,627.2,377.2,627,379.1z"/>
	<path d="M614.3,345.7c0-2,0-4,0-5.9c4.7-0.4,9.4-1.5,14-1.7c10.3-0.6,20.5,0,29.3,6.6c0.3,0.2,0.9,0,1.4,0.1
		c6.8,7.5,4.6,15.4,1.2,23.4c-2.2-2.4-2-5.7-2.9-8.6c-2.3-7-7.1-10.8-14-12.6c-7.9-2.1-15.7-1.7-23.6-0.4
		C617.9,346.7,616,347.3,614.3,345.7z"/>
	<path class="st1" d="M737.4,465.7c11.3,5.7,20.7,14,28.3,23.6c7.6,9.5,12,21,11.9,33.8c-10.3,1.7-20.8,3.9-31.3,6.7
		c-5.5,1.4-11.7,1.1-17.5,0.2c-7-1-13.9-0.6-20.8-0.7c-10.7-0.2-21.5-0.1-32.2-0.2c-1.6-0.7-3.2-0.3-4.8-0.3
		c-18.7,0-37.4-0.5-56,0.1c-20.1,0.7-40.3,1-60.3,2.6c-1.6,0.1-3.2,0.2-4.9,0.1c-5.6-0.6-8.6-4-8-9.5c2.2-20.8,18.9-40.7,38.1-45.6
		c19.2-4.9,38.6-6.9,58.3-8.4c22.5-1.7,45.1-2.4,67.6-3.5C716.3,464.1,727,463.2,737.4,465.7z"/>
	<path class="st2" d="M672,378.8c0.3-6.2,2.8-11.8,4.5-17.6c1.4-4.8,1.2-9-1.5-13.2c-0.9-1.3-1.4-2.9-2.1-4.3
		c-3.4-6.9-1.8-11.2,4.9-15.1c8.3-4.7,17.7-5.4,26.7-7.1c6.5-1.2,12.7-3.3,18.9-5.4c20.6-7,45.3,1.6,58.1,18
		c7.5,9.7,11.5,21.2,4.2,33.1c-6.9,11.3-16.5,19.2-30.6,19.6c-5.5,0.2-10.5,2.5-15.7,4.1c-14.4,4.3-26.4,0.8-36.7-10.5
		c-0.7,1.5-0.8,3.6-2.4,4.6C690.7,382.9,681.4,380.8,672,378.8z"/>
	<path class="st2" d="M525.5,401.3c-9.6-1.7-17.3-7.1-24.5-13.2c-9.9-8.3-13.1-19-9.4-31.2c4.7-15.3,13.9-26.8,30.3-30.4
		c10.7-2.3,21.4-1.3,32,1.1c4.5,1,8.9,1.6,13.7,0.8c8.6-1.4,17.4,0.1,25.4,3.8c7.1,3.2,9.8,10.2,7.3,19.5c-1,3.8-0.5,6.6,1.6,9.4
		c4.9,6.4,8.7,13.4,12.2,20.6c-5.7,1-11.5,2.1-17.2,3c-4,0.6-8.1,1.2-11.9,2.8c-1.3-1-1.5,0.5-2.2,1c-6.3,3.3-12.4,6.8-18.3,10.8
		c-5.4,3.6-11.6,2.5-17.2,1c-5.1-1.4-9.7-1.7-14.8,0.1C530.5,401.2,528,401.9,525.5,401.3z"/>
	<path class="st1" d="M547.9,413.2c8-1.8,16.1-0.8,24.2-1.1c31.2-1.3,62.3-0.1,93.5-1.2c26-0.9,51.9-0.2,77.9-0.7
		c4-0.1,7.9,0.9,11.8,2c4.4,1.3,7.4,6,6.4,10.3c-1.7,7.6-3.8,15.2-8.9,21.4c-2.1,2.5-4.8,4.2-7.8,4.2c-7.1,0-14.2,1-21.2-1
		c-15-1.6-30-2.4-45-3.4c-20.6-1.4-41.2-2-61.8-3.5c-8.1-0.6-16.2-0.7-24.4,0.3c-8.4,1-16.9,0.5-25.3,1.2c-10,0.8-20.1,1.2-30.1,2
		c-7.4,0.6-14.6-0.4-21.2-4.1c-8.2-4.7-8.7-13.3-1.1-19c5.9-4.4,12.9-6,20.1-6.5C539.2,413.8,543.6,413.7,547.9,413.2z"/>
	<path class="st3" d="M737.4,465.7c-2.8,0-5.5,0.2-8.3,0.1c-16.1-0.7-32.1,0.9-48.2,1.2c-16.5,0.2-32.9,1.5-49.4,2.9
		c-18.1,1.5-36.3,3.6-53.8,8.8c-10.5,3.1-18,10.3-24.7,18.7c-5.9,7.4-8.1,16-10,24.9c-1,4.8,1.9,8.5,6.7,7.9
		c10.2-1.4,20.4,0.2,30.5-1.7c0.6-0.1,1.3-0.1,1.9-0.1c20.6,0.3,41.2-2.1,61.8-0.8c9.7,0.6,19.4,0.6,29.2,0.8c1,0,2,0,2.7,0.8
		c-0.2,0-0.3,0-0.5,0.1c-19.3,0.4-38.6,0.6-57.9,1.1c-15.2,0.4-30.4,1-45.6,2c-14.1,0.9-28.3,2.3-42.3,3.9
		c-8.5,0.9-16.8,2.5-25.2,3.9c-1.9,0.3-2.9,1-3.5-1.8c-3.9-19.5-4.8-38.7,4.7-57.1c4.8-9.3,12.7-14.6,22.8-16.2
		c16.5-2.6,33.2-3.9,50-5.1c17.6-1.2,35.2-2,52.7-3.1c8.4-0.5,16.9-1.1,25.2-0.6c17.2,1.1,34.5,1.4,51.6,3.6
		c8.6,1.1,17.3,1.1,25.7,4C735,464.3,736.3,464.6,737.4,465.7z"/>
	<path class="st1" d="M704.2,549.7c5.2,0,10.4,0.2,15.6,0.1c17.3-0.5,34.3,2,51.3,5c2.4,0.4,4.1,1.1,2.5,4.5c-2.6,5.6-7,9-12.5,10.7
		c-8.4,2.6-17.1,4-25.8,5.2c-10.6,1.5-21.2,3.2-31.8,4.6c-7.5,1-15,1.9-22.5,2.2c-15.2,0.6-30.5,2.3-45.7,0.8
		c-11.3-1.1-22.7,0.8-33.8-1.7c-7.8-1.5-14.9-4.6-20.8-9.9c-2.2-2-4.8-3.9-4-7.3c0.8-3.3,3.9-4.1,6.8-4.9
		c12.6-3.4,25.6-5.2,38.5-6.4c25.7-2.4,51.5-3.1,77.3-3.2C701,549.3,702.6,549,704.2,549.7z"/>
	<path class="st4" d="M884.7,550c0.1,4.3-3.8,6.1-6.5,7.4c-11.1,5.2-22.5,9.7-35,10c-5.1,0.1-10.2,1.9-13.1,1.3
		c-12.9-0.7-23.6-1.3-34.1-3.2c-2.6-0.5-3.3-0.8-2.5-4.2c2.1-9.1,8.3-12.4,16.4-14.4c12.9-3.2,25.8-6.6,38.6-10.1
		c8-2.2,16-3.2,24.2-0.6C878.3,537.8,884.5,544.3,884.7,550z"/>
	<path class="st1" d="M607.5,535.3c44-2.2,88-3.1,132.5-1c-1.7,4-4.7,8,0.7,12.5c-5.6-0.1-10.1,0.8-14.7-0.6
		c-0.7-0.2-1.6-0.2-2.4-0.2c-23,0.2-46.1-2.2-69.1-0.8c-13.5,0.8-26.9,0-40.3,0.9c-13,0.8-26.1,1.5-39.1,2
		c-5.1,0.2-10.3,0.9-15.4,0.7c-1.7-0.7-3.5-0.3-5.3-0.3c-2.2-0.1-4.4-0.4-4.9-3c-0.5-2.5,1.5-3.8,3.4-4.7c4-1.8,8.4-2.1,12.7-2.6
		C579.5,536.6,593.5,535.9,607.5,535.3z"/>
	<path class="st3" d="M704.2,549.7c-14.1-0.3-28.2,0.6-42.3,1.4c-18.9,1-38,1.8-56.7,5.3c-7.4,1.4-14.9,2.4-22.3,4.2
		c-2.3,0.5-4.9,1.3-5.3,3.6c-0.5,2.3,1.8,4,3.4,5.5c5.9,5.5,13.5,7.9,20.6,11.4c-21.2,0.1-42.2-1.8-62.9-6.1
		c-9.5-2-17.8-7.3-25.3-15.3c6.5-1.1,12.1-2.1,17.7-2.9c15.8-2.2,31.7-3.2,47.7-4.1c14.4-0.8,28.7-1.3,43.1-1.9
		c25.6-1.1,51.2-2.1,76.8-1.8C700.5,548.9,702.5,548.1,704.2,549.7z"/>
	<path class="st3" d="M547.9,413.2c-7.3,2.1-15,1.2-22.2,3.7c-4.6,1.6-9.2,3.3-12.5,7c-4,4.4-3.3,9.8,1.6,13.3
		c7.2,5.1,15.5,6.1,23.7,4.9c5.9-0.9,11.9-0.9,17.8-1.3c8.7-0.6,17.4-1.8,26.2-1.3c5.9,0.4,11.6-1,17.4-1.1
		c17.3-0.4,34.6,1.8,51.9,2.1c14,0.3,28.1,1.3,42,3c10,1.2,20.2,0.7,30.1,3.6c-16.8-0.9-33.5-2.3-50.3-2.6
		c-14.6-0.3-29.2-1.2-43.8,0.7c-1.4,0.2-2.9,0.1-4.4,0.1c-16.9-0.3-33.7,1.3-50.5,2.1c-17.4,0.9-34.7,3-52,4.8
		c-2.7,0.3-5.4,1-8.2,0.9c-10.1-0.1-15.4-4.6-16.5-14.5c-0.7-5.9,0.6-11.6,2.7-17.1c2.2-5.7,8.1-5.6,12.8-6.4
		C524.9,413.4,536.4,412.7,547.9,413.2z"/>
	<path class="st5" d="M614.3,345.7c4.4-0.6,8.8-1.3,13.2-1.7c8.1-0.8,15.9,0.5,23,4.3c7.8,4.2,9.1,11.9,9.9,19.8
		c-0.9,1.2-1.3,2.5-1.2,3.9c-4.6,4.3-10.4,5.3-16.4,6c-5.2,0.6-10.5,0.9-15.7,1c-4.4-8.2-8.9-16.2-13.1-24.5
		C612.6,351.8,612.7,348.6,614.3,345.7z"/>
	<path class="st6" d="M865.3,530.1c-14.8,0.6-28.9,4.6-43,8.5c-6.7,1.9-13.3,4.1-20,6.1c-2.6,0.8-5.1-0.2-6.1-2.5
		c-1-2.4,0.7-4.1,3.1-5.2c9.9-4.6,20.5-6.9,30.9-9.4c10.7-2.6,21.7-4.9,32.8-4c9.9,0.8,20.2,1.3,28.6,7.7c6.9,5.3,14.6,17,10.9,25.2
		c-1.9,4.1-4.8,7.3-8.7,9.3c-13.1,6.8-26.8,11.5-41.8,12.5c-3,0.2-6,0.8-9.1,1c-17,1.3-33.7-0.2-50.2-4.5c-2.1-0.5-4.5-1-5.6-3.5
		c0.9-2.5,2.7-2.4,4.9-2c13.9,2.6,27.8,4.4,42,3.9c17-0.7,33.5-3.6,48.4-12.5c4.4-2.6,9.4-5.7,8.8-10.8c-0.6-5.7-3.6-11.2-9.4-14.2
		c-1.4-0.7-2.7-1.6-4.1-2.4c0.9-1,2-0.9,3.1-0.7c11.2,2.5,17.2,14.1,12.7,24.6c-0.6,1.3-1.3,2.6-1.9,4c8-3.9,10.2-11.9,5.3-19.1
		c-3.7-5.4-8.4-9.4-14.6-11.7c-10.7-4-21.6-5.2-33-3.4c-13.2,2-26.1,5.1-37.1,8.9c14.4-3.6,30.5-7.1,47.1-7.8
		C861.5,528,864.2,527.1,865.3,530.1z"/>
	<path class="st5" d="M704.8,396.5c-2.1,0-3.8,0.1-5.6,0c-14.4-0.7-28.8,0.6-43.2,1.1c-16.4,0.6-32.7,2.1-49.1,3.1
		c-8.8,0.5-17.5,0.3-26.9,0.8C596.2,387.6,687.4,384.2,704.8,396.5z"/>
	<path class="st3" d="M607.5,535.3c-1.9,1.6-4.1,0.7-6.1,0.8c-15.3,0.6-30.5,1.7-45.5,4.9c-0.8,0.2-1.6,0.3-2.3,0.6
		c-1.6,0.7-3.7,1.5-3.3,3.6c0.4,1.9,2.5,2.3,4.3,2.6c1.7,0.3,3.6-0.6,5.1,0.9c-16.2,1.1-32.4,3-48.4,6c-2,0.4-3.5,0.2-4.8-1.7
		c-1.5-2.3-3.5-4.4-3.2-7.3c0.1-1.2,1.5-1.4,2.7-1.7c11-2.4,22.1-4,33.4-4.9c17.2-1.3,34.4-2.7,51.6-3.8
		C596.4,534.9,601.9,535.3,607.5,535.3z"/>
	<path class="st7" d="M781.2,530.3c1.6,0,3.3-0.2,4.9,0c4,0.5,5.5,3.5,3.3,7.1c-1.8,3-1.7,5.4,1.1,7.6c0.8,0.6,2.3,1.4,1.6,2.6
		c-0.4,0.7-1.9,1-3,1.2c-3.6,0.7-7-0.6-10.5-1c-9.2-1.1-18.5-2-27.3-5.3c-1.8-0.7-4.8-1-4.8-3.4c0-2.5,2.8-3.2,4.9-3.9
		C761.1,532.1,771.1,530.9,781.2,530.3z"/>
	<path class="st8" d="M865.3,530.1c-6.6-2.3-13.1-0.5-19.6,0.4c-12.8,1.7-25.5,4.5-38.2,7.3c6.8-4.7,14.6-6.3,22.4-8.5
		c9-2.6,18.3-4.2,27.5-4.4c14.8-0.4,28.9,2.1,39.6,14.7c7.2,8.5,3.6,18.9-4.7,23.6c-0.8,0.5-1.7,0.8-3.6,1.7
		c3.3-7.8,9.1-15,3.1-22.8c-3.4-4.5-7.9-8.1-14-8.6C873.6,532.2,869.5,531.2,865.3,530.1z"/>
	<path class="st7" d="M787.1,571.3c8.1,3.9,17,4.8,25.8,5.8c9.9,1.1,19.9,2.4,30,2.2c-7.9,1.6-15.9,2.5-23.9,1.7
		c-10.7-1-21.5-1.3-31.8-4.7c-1.2-0.4-2.4-0.6-3.4-1.6C784.5,573.1,785.7,572.1,787.1,571.3z"/>
	<path class="st0" d="M582.9,388.6c0.1-1.1,0.2-2.1,0.4-3.6c0.8,1.1,1.3,1.9,1.8,2.7C584.3,387.9,583.6,388.2,582.9,388.6z"/>
	<path class="st9" d="M737.8,474.8c10,5,17.7,12.2,22.9,22c2.8,5.4,5.7,10.8,6.3,17.2c0.3,3.1,1.5,5.8-2.4,6.9
		c-3.6,1-6.9,0.1-8.8-3.6c-2.3-4.6-2.5-9.7-3.5-14.7C750.3,491.9,744.8,483,737.8,474.8z"/>
	<path class="st9" d="M603,415.6c4.3-0.4,8.6-1.2,12.8-1.4c30.3-1.5,60.7-0.7,91-1.3c10-0.2,20-0.5,30-0.8c3.6-0.1,7,0.7,10.5,1.3
		c5.5,1,8.3,5.4,7.5,10.9c0,0.3,0,0.7-0.1,0.9c-1.3,3.3-1.8,8.2-4.3,9.6c-2.4,1.4-5.6-2.9-8.4-4.7c-8.6-5.3-18-8.2-28-9.2
		c-18.8-1.9-37.6-2.3-56.4-3.2c-10.7-0.5-21.4,0.2-32-0.8C618.1,416.2,610.5,416.1,603,415.6z"/>
	<path class="st9" d="M732.4,538.5c-4.6,3.9-9.3,3.1-13.1,2.2c-5.9-1.3-11.8-0.7-17.7-1.4c-11.8-1.5-23.7-1.5-35.6-2.2
		c-3.5-0.2-6.9-0.9-10.3-1.7C681,535.4,706.3,534,732.4,538.5z"/>
</g>
</svg>
