<?xml version="1.0" encoding="utf-8"?>
<!-- Generator: Adobe Illustrator 23.0.1, SVG Export Plug-In . SVG Version: 6.00 Build 0)  -->
<svg version="1.1" id="Layer_4" xmlns="http://www.w3.org/2000/svg" xmlns:xlink="http://www.w3.org/1999/xlink" x="0px" y="0px"
	 viewBox="0 0 1000 1000" style="enable-background:new 0 0 1000 1000;" xml:space="preserve">
<style type="text/css">
	.st0{fill:#6E3720;}
	.st1{fill:#FB9A7A;}
	.st2{fill:#E00000;}
	.st3{fill:#7F0000;}
	.st4{fill:none;}
	.st5{fill:#CBB89A;}
	.st6{fill:#800000;}
	.st7{fill:#7A99AC;}
	.st8{fill:#2B5260;}
	.st9{fill:#B5FBF8;}
	.st10{fill:#FEFEFE;}
</style>
<g>
	<path d="M836,538.6c-4.5-6.8-10.5-11-18.8-12.4c-5.9-1-11.7-3.8-17.7-2.5c-11.5,2.4-22.8,5.5-33.6,10.4c-0.8,0.3-1.9,1.7-2.8,0
		c-3.1-6.2-8.2-5.3-13.5-4c-1.9,0.5-3.5,0.5-4.5-2.1c-5.8-15.6-10.5-31.5-14.8-47.6c-1-3.8,0.7-4.6,3.1-4.7
		c5.5-0.1,8.8-3.1,11.5-7.2c8.1-12.6,12.3-25.9,6.2-40.7c-0.3-3.5-2.8-5-5.3-6.5c-0.1-0.1-0.2-0.2-0.4-0.2c-0.3-0.2-0.6-0.4-0.9-0.6
		c-3.4-1.8-6.9-2.8-10.8-2.9c-5.5-0.2-11.1,0-16.6-0.1c-0.5,0-0.9,0-1.4,0.1c-0.3,0-0.7,0-1,0c-1.5,0-3.1,0-4.6-0.2h0
		c-0.3,0-0.6-0.1-0.9-0.2h0c-0.5-0.2-0.9-0.4-1.3-0.8c-6.6-6.5-14.8-9.1-23.6-10.6c0,0-0.1,0-0.1,0c0,0-0.1,0-0.1,0
		c-4.4-1.1-10-0.4-10.1-7.4c0,0-0.1,0-0.2,0c0,0,0,0,0,0c0,0,0,0,0,0c0,0,0,0,0,0c-0.4-0.1-0.8-0.1-1.1,0.1
		c-2.1,3.8-5.4,5.1-9.6,5.5c-5.8,0.6-11.5,1.5-17.3,2.1c-0.2,0-0.3,0-0.5,0c-0.1,0-0.1,0-0.1,0c-3.8,0.7-7.7,1.2-11.5,1.7
		c-0.1,0-0.2,0-0.3,0c-0.1,0-0.3,0-0.4,0c-4.8,0.6-9.3,2.1-13.9,3.6c-3.9,1.3-7.1,4.8-11.8,3.5c-1.1-0.3-1.6,1-1.8,1.9
		c-1.2,4.5-4.8,5.8-8.8,6.5c-10.6,1.8-21.4,0.6-32,0.9c-5.1,0.2-10.1,0.6-14.1,4.3c0,0,0,0.1-0.1,0.1c-0.1,0.2-0.3,0.4-0.4,0.6
		c-2.2,3-3.5,6.3-3.1,10.1c0,5.5-0.2,11.1,0.1,16.6c0.5,9.6,2.8,18.3,13.4,21.8c1.6,0.5,3.5,1.4,4,3.2c1.8,7.5,4.5,15,4.8,22.5
		c0.5,11,2.1,22,0.5,33.2c-1.3,9.3-2.6,18.5-5.2,27.4c-2.5,8.6,1.9,17.4,12.2,16.8c9.8-0.6,19.7-0.1,29.6-0.7
		c11.8-0.7,23.6-1.2,35.4-1.3c12.8-0.1,25.6,0.4,38.3,0.8c16.1,0.6,32.2,0.3,48.3,0.1c6.8-0.1,13.7-0.6,20.2-3
		c1.8-0.7,3.1-0.8,5-0.2c9.3,2.9,19.1,3.4,28.7,4.1c16.2,1.3,31.2-2.9,45.7-10.3C838.5,565,843.5,550.1,836,538.6z M759.4,554.6
		c1.5-0.2,3.2-0.7,4.3-1.6c11.4-8.6,25-11,38.5-14c4.4-1,8.3-0.8,12.4,1c3.9,1.8,6,4.8,6.5,8.7c0.5,4-1.7,6.8-5.2,9.3
		c-7.8,5.4-16.5,7.7-25.7,8.4c-2.7,0.2-5.2,1.9-8.1,1.1c-7.6-1.3-15.4-1.4-22.9-3.7c-3.7-1.1-4.3-3.2-4.4-6.3
		C754.9,554.2,757.4,554.9,759.4,554.6z"/>
	<path class="st0" d="M751,427.8c-2-2-3.9-4-5.9-6c1.6-4.4,5.6-4.5,9.1-4.9c23.3-2.8,38-27.1,28.7-48.8c-6.7-15.7-18-26.8-35.3-30.9
		c-5.2-1.2-10-0.8-14.7,1.4c-8,3.7-16.2,6.7-24.9,8.3c-5.6,1-11,2.9-15.8,6.1c-6.9,4.6-8.7,9.8-5.9,17.6c0.3,0.9,0.7,1.8,1.2,2.7
		c7.4,12.3,1.3,23-3.8,33.9c-1.1-0.3-2.1-0.7-3.2-0.8c-7-1.1-7-1.1-6.7-7.8c-0.9-3.1,0-6.2,1-9c1.3-3.9,1.3-7.5-0.1-11.4
		c-0.8-2.2-1.8-4.6,0-7c-3.5-9.9,0.6-20.6,9.5-27.4c6.2-4.7,13.2-6.7,20.6-7.6c8.6-1.1,15.6-5.9,23.5-8.4
		c17.6-5.6,32.7-0.5,46.6,10.3c6.1,4.8,11.9,9.9,15.6,16.7c6.9,12.6,8.1,25.9,4,39.6c-4.8,16.1-15,27.3-31,33
		c-1.5,0.5-3.5,0.9-4.7,0.3C756,426.1,753.6,427.1,751,427.8z"/>
	<path class="st0" d="M645.6,407.1c-3.8,1.5-7.9,1.5-11.9,2c-5.4-7.2-8.8-15.5-12.3-23.7c-1.4-3.2,0.3-6.7,0.8-10.1
		c1.5-10.1-5.1-19.5-15.3-20.5c-12.8-1.2-25.4-2.8-38.1-4.5c-12.2-1.6-22.9,2.9-30.8,13.2c-7.5,9.8-10,21.2-10.1,33
		c-0.1,13.4,7.9,22.6,18.7,29.6c1.6,1,3.7,1.5,4.2,3.7c-2.3,2.8-2.2,6.7-4,9.7c-8.1-4-15.3-9.6-21.1-16.2
		c-8.8-10.2-12.5-22.3-10.5-36.2c2.1-14,8.2-25.7,18.2-35.2c9.2-8.7,20.2-14.1,33.3-14.1c4.7,0,8.9,2.1,13.4,3.1
		c7.6,1.8,15.3,1.6,23,1.9c5.5,0.2,11.1,0.7,16.3,2.9c8.5,3.7,13.1,10.7,15.4,19.4c1.5,1.9,1.3,4,1,6.2c-2.4,5.7-1.2,11,1.7,16.2
		c2.7,4.8,5.2,9.7,7.1,14.9C645.1,404,646.2,405.4,645.6,407.1z"/>
	<path d="M634.8,371.9c0-2.2,0-4.5,0-6.7c6-0.7,11.9-2,17.9-1.9c7,0.1,13.7,0.8,18.5,6.7c1,1.2,2.2,1.2,3.5,1
		c0.1,1.6,0.1,3.2,0.9,4.7c3.8,7.9-0.2,15.2-1.8,22.7c0,0,0,0,0,0c-2.2-3.8-2-8.1-2.9-12.2c-1.8-8.5-6.4-12.9-15.2-13.9
		c-5.3-0.6-10.3-0.5-15.5,0.3C638.4,372.9,636.4,373.7,634.8,371.9z"/>
	<path class="st1" d="M683.7,407.1c1.6-5.5,2.9-11.2,5-16.5c2.3-5.8,0.9-10.8-1.7-15.9c-2.2-4.2-4.2-8.5-2.7-13.7
		c2-7,7.5-9.7,13.3-12.3c4.8-2.1,10-3.3,15.2-4.1c6.4-1,12.4-3.4,18-6.5c7.6-4.2,15.2-3.5,22.8-0.8c9.1,3.1,16.4,9,22.4,16.4
		c5.4,6.7,9.3,14,10.6,22.8c1.5,10-1.2,18.7-6.7,26.8c-3.5,5.1-7.9,9.2-13.6,12c-3.5,1.7-7,2.9-11.1,2.8c-3.8-0.1-7.2,1.4-10.1,3.8
		c-9.1-4.3-18.8-2.5-28.2-3c-2.8-1-4.3-3.2-5.3-6.3c-0.9,2.3-0.7,4.8-2.7,6.3C701.9,411.9,693.4,408.2,683.7,407.1z"/>
	<path class="st1" d="M550.8,429.8c-10.7-5.4-19.9-12.6-22.9-24.6c-3.7-14.9-0.3-29,8.4-41.5c9.9-14.2,24.2-17.1,40.1-13.7
		c7.9,1.7,15.8,2.5,23.9,2.8c5.9,0.2,12,0.4,17,5.2c6.7,6.6,7.6,14.2,5.2,22.5c-0.8,2.8-0.2,4.9,0.9,7.3c3.3,7.1,7.6,13.8,10.1,21.3
		c-8,1.3-15.7,3.5-22.5,8c-2.2,1.5-2.9,0.4-4-1.2c-0.7,4.9-4.9,8.3-9.6,9c-11.6,1.7-23.3,0.6-34.9,0.9
		C558.3,425.9,554.2,426.8,550.8,429.8z"/>
	<path class="st2" d="M716.7,478.6c3.3,10.6,6.8,21.2,9.8,31.9c2.2,7.5,5.1,14.7,6.4,22.7c-18.4,2.3-36.8-0.9-55.1-0.1
		c-11.7-1-23.3,0.3-35,0.4c-8.6,0.1-17.2,0.3-25.8,1c-6.3,0.6-12.6,0.7-19,1c-9.5,0.5-12.7-3.7-10.7-13c2.5-11.4,6.6-21.8,16.9-28.6
		c4.8-3.2,10.1-5.3,15.6-6.8c15.1-4.1,30.4-6.4,46.1-7.4c14.1-0.9,28.2-1.3,42.3-2.5C711.1,477,714.2,476.4,716.7,478.6z"/>
	<path class="st2" d="M589.9,434.7c1.9-1,4.1-1.1,6.2-1.1c24.7,0,49.3-0.7,74-1.3c18.3-0.4,36.6-0.2,55-0.7
		c9.1-0.2,13.7,2.1,11.6,13.2c-1.1,5.6-2.3,10.8-5.1,15.8c-1.5,2.8-3.5,5-6.8,4.1c-7.8-1.9-15.8,0.3-23.5-2
		c-13.8-1.8-27.8-2-41.6-3.3c-6.8-0.6-13.6-0.9-20.4-1.7c-10.9-1.1-21.7,0.7-32.6,1.1c-7.6,0.3-15.2,1.1-22.8,2.2
		c-5.3,0.8-10.4-0.8-14.6-4.3c-6.3-5.1-5.3-14.4,1.8-18.3C576.9,435.3,583.5,435.6,589.9,434.7z"/>
	<path class="st3" d="M716.7,478.6c-15.8,0.8-31.6,1.6-47.4,2.5c-12.1,0.8-24.1,1.8-36,4.3c-10.4,2.2-20.8,4.4-29.7,10.9
		c-7.6,5.5-11.1,13.2-13.7,21.6c-0.3,1.1-0.6,2.2-0.9,3.3c-2.8,11,0.8,14.9,12.2,12.8c3.1-0.6,6.1-0.6,9.1-0.8
		c20.7-1.3,41.5-0.9,62.3-0.9c1.7,0,3.6-0.6,5.1,0.8c-10.5-0.1-21.1,0.7-31.6,1.3c-17.5,1-35.2,0.7-52.6,3.6c-1.4,0.2-3,0.2-4.4,0
		c-2.6-0.4-5.6,2.7-7.2,0.3c-1.2-1.7,0-5,0-7.5c0.3-16.2-1.4-32.2-5.3-48c-0.8-3.2,0.7-4,2.9-4.2c13-1.3,25.7-4.5,38.8-5.1
		c12.7-0.6,25.4-2.7,38.1-2.6c15.8,0.1,31.6,1.3,47.2,3.6c3.3,0.5,6.8-0.1,10.1,1C715.5,476.1,716.9,476.5,716.7,478.6z"/>
	<path class="st2" d="M704.2,550.7c4.7,0,9.4,0.4,14.1,0c6.4-0.5,12.4,1.4,18.6,2.3c3.6,0.5,6.1,2.6,6.1,6c0,3.5-1.4,7-5.2,8.5
		c-2.1,0.8-4.2,1.6-6.4,1.8c-20.2,1.8-40.5,1.7-60.7,0.8c-16.9-0.8-33.7,0-50.5-0.8c-1.6-0.7-3.2-0.2-4.8-0.4
		c-2.2-0.3-4.2-0.8-4.8-3.4c-0.5-2.4,0.6-4.1,2.4-5.5c2.4-1.8,5.2-2.6,8-3.5c9.4-3.1,19.2-3.3,28.9-4c17.3-1.1,34.6-2.6,52-2.1
		C702.6,550.3,703.4,550.3,704.2,550.7z"/>
	<path class="st4" d="M815.9,557.9c-7.8,5.4-16.5,7.7-25.7,8.4c-2.7,0.2-5.2,1.9-8.1,1.1c-7.6-1.3-15.4-1.4-22.9-3.7
		c-3.7-1.1-4.3-3.2-4.4-6.3c0-3.3,2.5-2.6,4.5-2.9c1.5-0.2,3.2-0.7,4.3-1.6c11.4-8.6,25-11,38.5-14c4.4-1,8.3-0.8,12.4,1
		c3.9,1.8,6,4.8,6.5,8.7C821.7,552.7,819.5,555.5,815.9,557.9z"/>
	<path class="st5" d="M634.8,371.9c3.2,0.6,6.6-0.3,9.4-1.1c6.7-1.8,12.6,0.9,18.7,1.8c4.2,0.6,6.7,4.4,7.8,8.2
		c1.7,5.7,3.8,11.5,3.1,17.7c-2,8.2-9.4,6.6-14.9,7.5c-4.3,0.7-8.8,2-13.4,1.2c-3.8-7.8-7.7-15.7-11.4-23.5
		C632.3,379.6,632.5,375.7,634.8,371.9z"/>
	<path class="st2" d="M621.2,539.2c3.8-1.4,7.7-0.9,11.6-1c25.2-1,50.4-2.8,75.7-2.2c4.9,0.1,9.5,1.8,15,0.9
		c-2.3,4-2.2,7.4,1.7,11.1c-9-0.5-16.8-0.9-24.6-1.5c-11-1-22-1.2-32.9,0.1c-5.6,0.7-11.3,0.7-16.9,0.9c-16.3,0.5-32.4,3-48.7,3.2
		c-0.5,0-1-0.1-1.5-0.1c-0.5-0.1-1-0.1-1.4,0c-2.7,0.2-5.2-0.4-5.8-3.3c-0.6-3,2-4.3,4.2-5.1c3.7-1.3,7.5-1.9,11.4-2.2
		C613.1,539.8,617.1,539.7,621.2,539.2z"/>
	<path class="st3" d="M589.9,434.7c-5,1.6-10.4,1.8-15.4,3.8c-6.3,2.5-8.4,4.8-8.1,10c0.3,5.1,3.8,8.7,9.2,10.6
		c5.2,1.8,10.4,0.8,15.3-0.2c5.6-1.2,11.3-1,16.9-1.4c7.5-0.6,15.2-1.5,22.8-1.2c16,0.5,31.9,2.1,47.8,3.7
		c7.1,0.7,14.1,1.1,21.2,2.2c0.6,0.1,1.1,0.5,1.7,0.8c-17.2-1.1-34.4-1.5-51.5-0.7c-17.5,0.8-35.1,1-52.6,3.5
		c-9,1.3-18.2,2-27.3,3.1c-7.6,0.9-10.8-1.8-12-9.8c-0.8-5.1-0.2-10.4,1.3-15.3c1.1-3.7,3.4-6.3,7.7-7.1
		C574.5,434.9,582.1,434.2,589.9,434.7z"/>
	<path class="st6" d="M704.2,550.7c-11-0.5-22.1,0.4-33,1.3c-16.5,1.3-33.2,1.7-49.4,5.7c-2.5,0.6-4.8,1.8-7.2,2.8
		c-1.9,0.8-3.5,2-3.2,4.4c0.3,2.6,2.6,3.1,4.6,3.5c1.4,0.3,3-0.4,4.1,0.9c-12.1,0.7-24.2,1.5-36.3,2c-7.1,0.3-7.9-0.8-6.8-7.6
		c1.4-8.2,1.4-8.2,12.5-8.9c12.4-0.7,24.9-1.1,37.3-2c14-1.1,28.1-1.2,42.1-2.1c10.2-0.7,20.4-0.3,30.6-0.7
		C701.1,549.8,702.9,549.3,704.2,550.7z"/>
	<path class="st7" d="M755.9,570.3c-0.4-3.1,0.3-4.1,3.8-3c8.8,2.7,18,3.6,27.1,2.9c11.1-0.9,22.4-1.5,31.7-8.7
		c4-3.1,8.2-6.4,7.4-12.1c-1-6.9-7.7-12.9-13.7-14.4c-7.6-1.9-14.5,0.9-21.4,2.8c-8,2.1-15.8,4.6-23.6,7.4c-2.7,1-4.2,0.3-5.2-1.7
		c-1.2-2.3,0.8-3.6,2.6-4.4c10.3-4.7,21-8,32.2-9.9c7.5-1.3,14.7-0.7,21.8,1.2c4.7,1.2,8.8,3.6,10.4,8.8c-1.7,0.4-2.8-0.7-3.9-1.6
		c-8.2-6.1-17.2-8-27.2-6c-7.7,1.5-15.3,3.1-22.1,5.9c9.6-3,19.8-5.8,30.6-5.5c8.6,0.3,16,3.1,20.6,10.9c3,5.1,4.2,10.5,1.3,16.2
		c3.3-2.7,2.6-7.2,4.9-10.3c3,6.5-1.6,14.6-7.6,18c-11,6.3-22.6,10-35.4,9.6c-10,0.2-19.9-1.1-29.6-3.7
		C758.8,572.2,757,571.9,755.9,570.3z"/>
	<path class="st5" d="M613.4,424.8c12.5-11.3,70.6-14.6,85.6-5c-6.9,0.3-13.4,0.2-19.9,0.9c-15.9,1.7-31.9,2.8-47.9,4
		C625.4,425.1,619.6,424.8,613.4,424.8z"/>
	<path class="st8" d="M753.3,550c-7.2-2-15.4-1.3-22.5-5.4c-1.2-0.7-3.1-0.8-3-2.7c0.1-1.8,2-2,3.2-2.6c7-3.1,14.5-4,22-5
		c3.9-0.5,5.5,2.2,4.2,6c-0.6,1.6-2.1,3-0.6,4.9c0.8,1,2.8,1.7,1.6,3.6C757.1,550.4,755.2,549.6,753.3,550z"/>
	<path class="st9" d="M833.1,548.7c0.5,6.3-2.5,10.8-8,14.8c1.5-4.7,4.4-8.2,3.6-12.8c-2.1-11.3-10.6-17-21.7-17.5
		c-11-0.5-21.3,2.8-31.7,5.4c-0.9,0.2-1.9,0.3-3.9,0.6c8.4-6,17.3-7.2,26-8.9c4.7-0.9,9.4-1.3,14.3-0.2c6.7,1.5,12.4,4.4,17.3,9
		C831.2,542,833.3,544.8,833.1,548.7z"/>
	<path class="st3" d="M621.2,539.2c-5.9,0.9-11.9,1.9-17.8,2.8c-0.5,0.1-1,0-1.4,0.1c-2.9,1.1-7.3,1.1-7.6,4.7
		c-0.3,3.3,4.4,2.2,6.3,3.8c-1.5,1.2-3.3,1.2-5.1,1.1c-2.6,0-5.2-0.2-7.8,0.1c-8.4,1-9.3,0-6.6-8.2c0.9-2.7,3.6-2.3,5.3-2.4
		C598,540.7,609.5,538.1,621.2,539.2z"/>
	<path class="st8" d="M755.9,570.3c11.3,2.9,22.8,4.3,34.3,6c-4.2,1.9-8.6,1-12.8,0.7c-6.5-0.5-13-1.7-19.4-3
		C756.4,573.7,753.5,573.1,755.9,570.3z"/>
	<path class="st0" d="M708.9,418.8c0.6-2.8,0.9-5.7,2.5-8.4c1.8,2.9,3,6.1,5.5,8.4C714.2,418.8,711.5,418.8,708.9,418.8z"/>
	<path class="st10" d="M716.2,491.8c3.3,10.1,5.4,20.4,9.4,30.2c0.8,1.9,1.8,3.7,2.6,5.6c1.2,3.2-0.2,5-3.7,4.7
		c-4.9-0.4-7-2.9-7.7-8C715.2,513.4,716.1,502.6,716.2,491.8z"/>
	<path class="st10" d="M629.4,437c11.1-1.4,22.3-2.8,33.5-2.4c19.6,0.6,39.2-1.3,58.8-1c7.1,0.1,12.2,3.6,11.6,8.4
		c-0.4,3.7-1.9,7.2-3,11.2c-8.7-8.9-19.3-12-31-13c-5.3-0.5-10.6-0.3-15.9-0.8c-11.9-1-23.9-0.5-35.8-1.2
		C641.5,437.9,635.4,437.9,629.4,437z"/>
	<path class="st10" d="M717.5,541.5c-2,1-42.6-0.4-51.9-1.9C683,536.6,712.6,537.7,717.5,541.5z"/>
</g>
</svg>
