<?xml version="1.0" encoding="utf-8"?>
<!-- Generator: Adobe Illustrator 23.0.1, SVG Export Plug-In . SVG Version: 6.00 Build 0)  -->
<svg version="1.1" id="Layer_4" xmlns="http://www.w3.org/2000/svg" xmlns:xlink="http://www.w3.org/1999/xlink" x="0px" y="0px"
	 viewBox="0 0 1000 1000" style="enable-background:new 0 0 1000 1000;" xml:space="preserve">
<style type="text/css">
	.st0{fill:#6E3720;}
	.st1{fill:#E00000;}
	.st2{fill:#7F0000;}
	.st3{fill:#CBB89A;}
	.st4{fill:none;}
	.st5{fill:#800000;}
	.st6{fill:#7A99AC;}
	.st7{fill:#2B5260;}
	.st8{fill:#B4F9F6;}
	.st9{fill:#FB9A7A;}
	.st10{fill:#FEFEFE;}
</style>
<g>
	<path d="M800.4,528.7c-6.2-9.7-20.2-13.1-29-9.7c-7.5,2.9-14.6,6.6-21.8,10c-1.8-4.9-5.6-7.1-10.8-5.2c-3.3,1.2-3.9-0.5-4.3-2.4
		c-3.7-17.1-7.2-34.2-10.8-51.3c-0.4-1.8,0.3-2.9,2.3-3.5c3.4-0.9,6.7-2.4,8.3-5.8c6.3-13.6,9.6-27.8,6.8-42.8
		c-1.4-7.5-7.2-11.8-14.9-11.8c-4.7,0-9.4,0-14.2,0c-1.5,0-2.8,0-3.9-1.3c-6.8-7.8-16-10.9-25.6-13.3c-1.4-0.3-2.8-0.6-2.8-2.1
		c0.1-2.9-1.3-5.5-1.2-8.5c0.2-5.6-1.6-11.1-1.5-16.6c0-5.3-2.7-10.5-0.4-15.8c2.1-4.3,2.7-8.7,1.6-13.3c-0.2-0.2-0.4-0.4-0.6-0.5
		c-0.8-0.4-1.4,0.2-1.8,0.8c-4.5,7.1-11.6,8.2-19.1,8.6c-1.4,0.1-2.9,0-4.1,0.8c-0.1,0.1-0.2,0.2-0.3,0.3c-0.2,0.1-0.3,0.3-0.5,0.5
		c-1.1,2.6-0.3,5,1.4,7c0,0,0.1,0,0.1,0.1c0.1,0,0.1,0.1,0.2,0.1c2.7,1.3,5.5,1,8.3,0.5c4-0.8,5.2,1,5.6,4.6
		c0.8,7.9,1.8,15.8,2.8,23.7c1,8.6,1.8,8.9-7.2,9.6c-1.9,0.1-3.9,0.6-5.8,0.8c-2.4,0.3-3.6-0.8-4.1-3.1c-0.5-2.4-0.4-4.9-0.5-7.3
		c-0.2-4.7,0.7-9.4-0.7-14c-0.3,0-0.5-0.1-0.8,0c-0.2,0-0.4,0-0.6,0.1h0c-2.7,0.4-5.2,3.2-6.2,7.2c0.4,6.4,0.6,12.9,1.2,19.3
		c0.2,2.2-0.8,3.3-2.5,4c-5.7,2.1-9.9,6.2-14.2,10.3c-1.1,1.1-1.9,2.5-3.9,2.6c-8.6,0.5-17.2,1.4-25.9,1.8
		c-6.6,0.3-9.2,2.1-11.3,8.5c-3.5,10.4-2,20.9-0.6,31.3c0.9,6.4,2.9,12.7,10.1,15.3c1.2,0.4,0.9,1.9,1.3,2.9
		c3.9,10.4,4.8,21.4,5.5,32.1c1.3,19.7,0.2,39.4-4.3,58.8c-1.4,5.9,1,14.2,7.2,15.9c2.7,0.8,5.5,1.5,8.5,1.3
		c14.4-1.1,28.8-2.3,43.2-2.8c7.7-0.3,15.4,0.1,23.2,0.6c14.4,0.9,29,0.4,43.4,0.2c3.9-0.1,8.2-0.6,11.5-2.4c2.4-1.3,4-1.1,6.1-0.4
		c12.3,4.4,24.8,5.3,37.4,1.8c9-2.4,17.1-6.5,22.2-15C809.3,549.8,806.8,538.8,800.4,528.7z M745.3,550.6c1.3-0.3,2.7-1.2,3.6-2.2
		c8.2-9.5,20-11.6,31-15c3.9-1.2,8.2,1.3,10.7,4.9c2.4,3.5,3.4,7.2,1,11.5c-4.7,8.6-12.9,10.9-21.3,12.5c-2.7,0.5-5.5,2-8.1,1.1
		c-6.2,0.3-11.5-1.9-16.9-3.4c-2.9-0.8-2.8-4-3.1-6.6C741.8,550.5,743.6,551,745.3,550.6z"/>
	<path class="st0" d="M676.7,348.7c0.3-4.6,0.7-9.2,1-13.7c-0.9-0.9-0.9-2-0.8-3.1c1.3-9.4,3.9-18.8,0.5-28.3
		c-0.3-0.9-0.2-1.9,0.3-2.8c-0.2-5.4-1.3-10.5-0.1-16.1c2.9-13.7,11.3-22.4,24-26.2c8.7-2.7,16.6-7,24.9-10.4
		c9.7-3.9,18.7-3.5,27.4,2.4c14.9,10,25,23.6,29,41c5.8,24.7,1.4,47.7-14.1,68.1c-3.3,4.4-8.2,7-13.2,9.3c-0.5,0.3-1.5,0.5-1.8,0.2
		c-4.7-3.9-7.9,0-11.3,2.3c-6.9,4.7-14.1,6.5-21.7,1.7c-2.6-1.7-4.8-0.8-7.1,0.7c-6.9,4.5-14.1,5.4-21.7,2.1
		c-9.1-3.9-12.5-11.7-14.1-20.6C677.5,353.1,676.5,351,676.7,348.7z"/>
	<path class="st0" d="M651.2,367.2c-2.3,2.6-4.5,5.2-6.8,7.8c-4.4,3.5-9.2,6-14.6,7.4c-2.2,0.5-4.8,1.1-6.6-0.1
		c-4.1-2.7-7-0.9-10.3,1.4c-6.1,4.3-13,5.6-19.9,2.9c-4.6-1.8-9.1-2.2-13.4-0.6c-4.7,1.7-8.3-0.3-11.5-2.4
		c-12.4-8.2-21.2-19.3-26.1-33.5c-5.3-15.6-4.2-30.8-0.1-46.4c2.8-10.5,7.6-19.9,14.4-28c5.9-7.1,13.4-12.7,22.8-14.8
		c5.4-1.2,10.1,2.3,15.3,3.2c6.3,1.1,12.4,2.6,18.9,2.7c12.6,0.2,22.3,5.5,27.4,17.5c1.3,3.1,1.9,6.4,2,9.7c1.9,2.5,1.3,5.5,1.2,8.3
		c-2.1,7.8,0.2,15.1,2.8,22.3c2,5.3,4.7,10.4,5.7,16c0.3,1.7,1.2,3.4,0,5.2c-0.6,2.4,1.1,4.5,1,6.9
		C655.9,357.9,654.5,362.7,651.2,367.2z"/>
	<path d="M642.6,302.8c0-3,0-5.9,0-8.9c7.9-1.7,15.9-2.8,23.9-0.9c4.8,1.1,7.4,5.1,11.1,7.8c4.9,10.4,2.5,20.8,0.2,31.2
		c-2.2-2.5-1.7-5.8-2.2-8.8c-0.5-2.5-0.8-5.1-1.5-7.7c-3.1-11.2-11.6-16.2-23.1-13.6C648.3,302.6,645.6,304.3,642.6,302.8z"/>
	<path class="st1" d="M713.7,469.8c2.6,7.2,3.2,14.9,4.9,22.3c2.5,10.7,4.6,21.5,6.8,32.3c0.5,2.4-0.1,3.9-2.8,4.5
		c-2.1,0.5-4.2,0.6-6.3,0.3c-10.6-1.5-21.3-0.7-31.8-2c-8.8-1.1-17.5,0.2-26.2,0.4c-11.2,0.2-22.3,1.1-33.5,2
		c-6.8,0.5-9.8-2.7-8.9-9.4c1.3-9.5,2.7-19,7.6-27.6c3.8-6.6,8.7-11.5,15.9-14.3c12-4.6,24.5-6.6,37.1-7.9c9.2-1,18.5-1,27.7-1.9
		C707.5,468.1,710.9,467.4,713.7,469.8z"/>
	<path class="st1" d="M620.2,422c19.4-0.6,38.7-2,58.1-2.4c11.3-0.3,22.6-0.2,34-0.7c3.8-0.2,7.3,1.1,11,1.3
		c4.8,0.3,6.5,3.4,6.2,7.8c-0.4,8-1.4,15.9-5.3,23.2c-1.2,2.2-2.5,3.5-4.9,2.9c-5.9-1.7-12.2,0-18.1-2c-13.1-1.9-26.3-3.2-39.6-4.5
		c-14.1-1.4-27.8,1.4-41.7,1.9c-3.1,0.1-6.2,0.4-9.2-0.1c-5.1-0.8-8.7-3.3-9.9-8.6c-1.2-5.4,0-10,4.5-13.5
		C609.6,423.8,614.9,423.1,620.2,422z"/>
	<path class="st2" d="M713.7,469.8c-23.4,0.9-46.7,1.5-69.4,8.2c-15.8,4.6-21.7,16.5-25.1,30.8c-0.9,4.1-1.5,8.2-2,12.4
		c-0.6,5.5,1.2,7.8,6.4,6.9c7.4-1.2,14.8-0.6,22.2-1.5c8.3-1,16.9-0.5,25.3-0.2c4.5,0.1,9-1.1,13.4,0.8c-16.4,1-32.9,1.9-49.3,3.1
		c-6.6,0.5-13.1,1.7-19.6,2.6c-2.4,0.3-3.3,0.3-3-2.9c0.8-7.7,0.7-15.4-0.1-23.2c-0.9-7.8-1.1-15.8-2.3-23.6c-0.4-3-0.9-6.1-1.7-9
		c-1-3.6,0.1-4.9,3.8-5.5c11.6-2,23-5.1,34.6-6.3c10.5-1.1,21.1-2.3,31.9-0.9c8.4,1.1,17.1,0.9,25.5,2.3c2.1,0.4,4.1,0.7,6.1,1.3
		C712.7,465.9,714.4,467.1,713.7,469.8z"/>
	<path class="st1" d="M700.3,545.8c4.2,0,8.5,0.5,12.7,0c6.1-0.7,11.3,1.9,16.7,3.7c3.1,1,4.1,3.7,3.6,6.6c-0.6,3.7-0.8,7.9-5.4,9.4
		c-4.6,1.5-9.5,1.6-14.2,1.8c-10.7,0.4-21.5,0.2-32.2,0.1c-4.2-0.1-8.3-0.7-12.5-1.1c-9.3-1-18.8,0.2-28.1-0.8
		c-2.9-0.3-5.8-0.4-6.7-3.6c-0.9-3.1,1.1-5.2,3.2-7.1c1.7-1.5,3.9-2.2,6.1-2.8c10.9-2.8,21.9-4.4,33.1-5.1
		C684.5,546.4,692.3,544.9,700.3,545.8z"/>
	<path class="st3" d="M642.6,302.8c8.3-2.5,16.4-4.6,24.8,0c3.3,1.8,5.2,4.3,6.5,7.7c2.7,6.9,3.4,14.2,4,21.4c-0.1,1-0.1,2-0.2,3
		c-3.6,8.4-11.1,10-19,10.7c-2.1,0.2-4.2,0-6.3,0c-1.6-11.1-8.2-20.6-10.1-31.6C641.5,310.1,641.6,306.5,642.6,302.8z"/>
	<path class="st4" d="M791.6,549.8c-4.7,8.6-12.9,10.9-21.3,12.5c-2.7,0.5-5.5,2-8.1,1.1c-6.2,0.3-11.5-1.9-16.9-3.4
		c-2.9-0.8-2.8-4-3.1-6.6c-0.3-2.9,1.5-2.4,3.2-2.8c1.3-0.3,2.7-1.2,3.6-2.2c8.2-9.5,20-11.6,31-15c3.9-1.2,8.2,1.3,10.7,4.9
		C793,541.8,794,545.5,791.6,549.8z"/>
	<path class="st1" d="M647.5,533.3c4.1-1.4,8.3-0.9,12.4-1.1c14.6-0.7,29.1-1.1,43.7-1c5,0,9.9,0.5,15,1.5c-1.3,3.7-1.4,7.2,1,11.1
		c-6.1,0.4-11.8-0.7-17.4-1.1c-9.5-0.8-18.9-1.2-28.4,0.1c-4.3,0.6-8.6,0.4-13,0.9c-10.9,1.2-21.8,1.6-32.8,2.2
		c-1.1,0.7-2.2,0.1-3.3-0.2c-2-0.4-3.8-1.4-4.1-3.6c-0.4-2.4,1.3-3.9,3.2-4.9c4.1-2.2,8.7-2.2,13.1-3.1
		C640.4,533.5,644,534,647.5,533.3z"/>
	<path class="st5" d="M620.2,422c-4.7,1.7-9.5,3-13.6,6c-4.2,3.1-5.7,7.3-4.7,12.2c1.1,5.4,4.8,7.8,9.6,7.9c7.6,0,15.3-0.1,22.7-1.3
		c12.4-1.9,24.7-1,37.1,0c8.1,0.7,16,2.2,23.9,3.3c2.1,0.3,4.1,0.7,5.9,1.9c-7.5,0.7-14.8-1.1-22.3-0.9c-19.5,0.3-39,1-58.3,4.9
		c-5,1-10.2,1.4-15.3,2c-6.5,0.8-10-3.1-10.7-11.3c-0.5-6.2,0.7-12.2,2.2-18.2c1-4.1,4.7-4.9,7.9-5.4
		C609.8,422.3,615,422.3,620.2,422z"/>
	<path class="st3" d="M651.2,367.2c1-4.9,2.7-9.6,2.1-14.7c3.7-0.3,7.3,0.5,11-0.9c1.8-0.7,3.3-0.4,3.8,2.6
		c1.3,7.2,1.6,14.5,2.7,21.8c0.6,3.6,0,7.6,1.3,10.9c2,4.9-1.1,5.3-4,5.6c-4.6,0.4-9.2,0.8-13.7,2c-1.7,0.5-1.9-0.6-2.3-2.1
		C650.5,384,651.9,375.6,651.2,367.2z"/>
	<path class="st2" d="M700.3,545.8c-19.2,1.9-38.6,2.9-57.4,7.8c-1.6,0.4-3.2,0.8-4.4,1.8c-1.9,1.6-4.1,3.4-3.4,6
		c0.7,2.7,3.6,2.6,6,3c7.9,1.4,15.8,0.7,23.8,0.9c1.4,0,3-0.4,4.1,0.8c-6.8,0-13.6,0.3-20.4,0.1c-11.2-0.2-22.2,1.6-33.3,1.9
		c-5.6,0.2-7.5-2.5-6.3-8c2-8.9,3.4-9.7,13.9-10.6c18.5-1.5,36.9-3.5,55.4-4.1C685.7,545.5,692.9,544.1,700.3,545.8z"/>
	<path class="st6" d="M743.2,567.4c-0.4-3.1,0.2-4.3,3.8-2.9c14.7,5.8,28.5,2.8,41.6-5.1c6.9-4.1,9.2-12.5,5.9-20.3
		c-3-7.3-10.2-11.4-18.2-9c-8,2.4-15,6.8-22.7,9.8c-1.9,0.8-3.7,2.1-5.5-0.3c-1.8-2.4,0-4,1.5-5.2c5-4.2,10.8-6.5,17.1-8
		c-1.4,4.8-6.6,3.8-9.1,6.2c5.5-2.7,11.5-4.9,18-5.9c14.4-2.2,25.3,8.3,23.3,22.8c-0.3,2.6-0.9,5.1-2,7.4c4.4-9,3-17.4-2.3-25.6
		c-1-1.5-3.1-2.6-2.5-4.9c6.5,2.3,8.2,8.4,9.6,14c4.4,18-8.7,28.2-22,31.9c-2.9,0.8-6,0.8-9,1.2C761,573.5,751.6,572.8,743.2,567.4z
		"/>
	<path class="st3" d="M698.5,406.3c-20.5,2.3-40.3,4.3-60.4,5C646.4,400.9,686.9,397.2,698.5,406.3z"/>
	<path class="st7" d="M739.8,529.3c4.3,0.1,6,2.3,4.4,5.4c-1.4,2.9-1.1,5.2,0.7,7.6c2.1,2.7,0.2,3.8-2,3.5c-6.5-0.9-13-2.5-18.7-6
		c-2.7-1.6-2.2-5.1,1.2-6.4C730.3,531.5,735.6,530.5,739.8,529.3z"/>
	<path class="st8" d="M792,526.3c5.9,5.9,9.1,12.9,8.7,21.3c-0.2,4.6-1.3,9.2-5.4,12.7c-0.7-2.4,0.6-4,1.1-5.7
		c2.9-10-0.4-20.7-7.9-25.3c-5.9-3.7-12-1.8-17.9-0.4c-5.9,1.3-11.4,3.9-17.8,6.2c4.1-4.5,9.7-5.3,13.6-8.8
		C775.1,522.2,783.5,521.3,792,526.3z"/>
	<path class="st2" d="M647.5,533.3c-6.3,1.6-13,1.5-19.1,3.7c-0.9,0.3-1.9,0.4-2.7,0.8c-2,0.8-4.2,1.6-4.2,4.1
		c0,2.1,2.4,2.3,3.9,3.1c0.8,0.5,1.8,0.7,2.7,1c-4.7,1.9-9.9-0.1-14.6,1.7c-0.4,0.2-1.3-0.3-1.7-0.7c-1.6-1.9,1.2-10.7,3.7-11.1
		C626.1,534.4,636.7,532.7,647.5,533.3z"/>
	<path class="st7" d="M743.2,567.4c9,2.7,18,5.2,27.4,6c-9.3,2.3-18.2-0.5-27.1-2.6C742.1,570.5,741.5,568.7,743.2,567.4z"/>
	<path class="st9" d="M710.4,349.1c-2.2,2.7-2.9,5.8-2.3,9.1c0.3,2,2.4,4.7,0.4,5.9c-2.6,1.6-5.8,2.7-9.2,1.7
		c-6.2-1.8-9-6.6-10.9-12.3c-3.6-10.3-1-20.3,1.6-30.2c1.3-4.9,1.3-9.5,0.2-14.2c-1-4.2-2.2-8.3-3.3-12.5
		c-2.6-9.5,1.5-19.8,10.9-23.2c11.2-4.1,21.9-8.9,32.4-14.5c8.2-4.4,15.6-0.9,22.3,3.9c12.2,8.7,17.5,21.7,21.6,35.4
		c4.4,14.6,2.3,28.8-4.9,41.8c-3.8,6.8-7.5,15.2-16.4,16.6c-7.3,1.1-13.3,4.2-19.5,7.6c-2,1.1-3.8,1.2-6,0.4
		C719.5,361.9,713.2,357.4,710.4,349.1z"/>
	<path class="st9" d="M619.6,354.3c-1.9,8.6-4.8,15.5-11.3,20.3c-4.5,3.3-9.2,4.4-14.2,1.1c-4.1-2.8-8.1-3.4-12.6-0.8
		c-1.9,1.1-4.2,1.8-6.5,0.5c-12.5-7.2-21.4-17.5-25.2-31.5c-3.6-13.1-1.8-26.1,2-38.8c3-10,7.9-19,16.1-25.9
		c7.8-6.5,16.6-6.6,25.7-3.4c5.2,1.9,10.3,1.8,15.9,1.8c17.2-0.2,26.2,9.3,23.3,27.1c-1.6,9.9,1,17.8,4.7,26.2
		c2.9,6.4,4.8,13.2,5.9,20.2c1.6,10.4-6.5,20.3-17.1,20.9c-2.8,0.2-4.6-0.9-4.4-4.3C622.4,363.4,621.5,359.2,619.6,354.3z"/>
	<path class="st10" d="M712.9,483.1c2.8,6.2,3.8,13,4.7,19.6c0.8,6.3,2.8,12.3,4.4,18.4c0.6,2.3,1.6,4.8-0.9,6
		c-2.6,1.2-4.1-1.6-5.2-3.4c-2.5-4.4-2.7-9.4-3-14.3C712.6,500.7,712.9,491.9,712.9,483.1z"/>
	<path class="st10" d="M723.8,442.5c-4.4-7.4-10.8-11.4-18.7-13.2c-3.1-0.7-6.2-1.5-9.4-1.5c-8.4,0-16.7-1.1-25.1-1.2
		c-7.9-0.1-15.8-1.8-23.7-2.2c6.4-0.9,12.8-1,19.2-1.3c17.1-0.8,34.3-1.8,51.4-1.2c5.8,0.2,10.3,4.9,8.9,10.5
		C725.6,435.5,726.1,439,723.8,442.5z"/>
	<path class="st10" d="M675.2,533.1c12.6,0.6,24.1-0.9,35.6,1c1.6,0.3,3.2,0.5,2.9,2.3c-0.2,1.4-1.7,1.9-3.1,1.6
		c-6.5-1.5-13.2-1.6-19.8-2.4C685.9,535.1,680.9,535.7,675.2,533.1z"/>
</g>
</svg>
