<?xml version="1.0" encoding="utf-8"?>
<!-- Generator: Adobe Illustrator 23.0.1, SVG Export Plug-In . SVG Version: 6.00 Build 0)  -->
<svg version="1.1" id="Layer_4" xmlns="http://www.w3.org/2000/svg" xmlns:xlink="http://www.w3.org/1999/xlink" x="0px" y="0px"
	 viewBox="0 0 1000 1000" style="enable-background:new 0 0 1000 1000;" xml:space="preserve">
<style type="text/css">
	.st0{fill:#6E3720;}
	.st1{fill:#2B5260;}
	.st2{fill:#E00000;}
	.st3{fill:#CBB89A;}
	.st4{fill:#FB9A7A;}
</style>
<g>
	<path d="M442.2,477.5c-1.9-3.5,0.2-5.8,6-6.9c0.7,0.2,1.1,0.6,1.3,1.3c0,0.4-0.1,0.8-0.4,1.1c-1.4,1.7,0.4,2.6,0.9,3.9
		c0.1,0.2,0.1,0.4,0.2,0.6c-1.3,1-2.6,2-3.9,3c-0.7-0.1-1.1-0.5-1.4-1.1c-0.1-0.4,0-0.8,0.1-1.2c0.2-1.1,0.8-2.3-1.2-2.2
		C443.3,476.5,443,477.2,442.2,477.5z"/>
	<path class="st0" d="M449.2,472.7c-0.3-0.7-0.7-1.3-1-2c0.2-2.1-0.6-4.9,3-4.8c4.3,0.1,2.7,3.4,2.8,5.7c-0.5,0.7-1.1,0.7-1.7,0.3
		c-0.7-0.7-0.3-1.8-1-2.5c-0.2,1,0.5,1.7,1,2.5c0,1.3-0.8,1.4-1.8,1.5C449.9,473.2,449.5,473,449.2,472.7z"/>
	<path class="st0" d="M454.1,472.7c2.4-0.1,2.9,1.3,2.9,3.4c0,1.4-0.1,2.8-1.5,3.2c-1.8,0.6-3.5,0.4-4.4-1.7
		c-0.7-0.8-0.8-1.7-0.4-2.7c0.3-0.4,0.7-0.6,1.2-0.6c0.9,0.1,1,1.7,2.1,1.3c0.4-0.2-0.1-1.1-0.2-1.7
		C453.7,473.5,453.8,473.1,454.1,472.7z"/>
	<path class="st1" d="M445.3,479.3c0.3,0.4,0.7,0.8,1,1.2c0.3,1.3,2.4,3-0.1,3.7c-2.9,0.8-1.4-2.7-2.7-3.7
		C443.8,479.6,444.3,479,445.3,479.3z"/>
	<path class="st2" d="M445.3,479.3c-0.6,0.4-1.2,0.7-1.8,1.1c-0.4-1-0.9-2-1.3-2.9c0.4-1-0.3-2.4,1.1-3c1.8,0.8,2.7,2.1,2,4.1
		C445.3,478.9,445.3,479.1,445.3,479.3z"/>
	<path class="st3" d="M454.1,472.7c0,0.3,0,0.6,0.1,0.9c-0.4,1-0.9,1.6-2.1,1.1c-0.3,0-0.6,0-1,0.1c-1.4-0.2-1.7-0.9-0.9-2.1
		c0.8-0.1,1.7,0.1,1.9-1l-0.1,0.1c0.6,0,1.3-0.1,1.9-0.1C454,471.9,454.1,472.3,454.1,472.7z"/>
	<path d="M450.2,472.7c0,0.8-0.2,1.7,0.9,2.1c0,0.9,0,1.9,0,2.8c0,0-0.4,0-0.4,0l-0.4,0l0,0c-1.1-1.5-2.5-2.9-0.9-4.9l0,0
		C449.5,472.7,449.9,472.7,450.2,472.7z"/>
	<path class="st2" d="M449.2,472.6c-0.6,1.8,1.1,3.2,0.9,4.9c-3-0.5-2.7-3.3-4.1-5.4C447.5,472.3,448.4,472.5,449.2,472.6z"/>
	<path class="st2" d="M445.4,478.6c-0.7-1.4-1.4-2.7-2-4.1c2.6-2,2.5,0.8,3.3,1.8C447.9,478,446.9,478.5,445.4,478.6z"/>
	<path class="st4" d="M452.2,471.6c-2.3,0-3.4-1.2-2.6-3.4c0.3-0.9,1.1-1.8,2.3-1.1C454,468.5,453,470.1,452.2,471.6
		C452.1,471.7,452.2,471.6,452.2,471.6z"/>
	<path class="st4" d="M452.1,474.7c0.7-0.4,1.4-0.8,2.1-1.1c1.5,0.9,2.5,2,1.5,3.8c-0.4,0.7-1.1,1.3-1.9,1
		C452.1,477.6,452.1,476.1,452.1,474.7z"/>
</g>
</svg>
