<?xml version="1.0" encoding="utf-8"?>
<!-- Generator: Adobe Illustrator 23.0.1, SVG Export Plug-In . SVG Version: 6.00 Build 0)  -->
<svg version="1.1" id="Layer_4" xmlns="http://www.w3.org/2000/svg" xmlns:xlink="http://www.w3.org/1999/xlink" x="0px" y="0px"
	 viewBox="0 0 1000 1000" style="enable-background:new 0 0 1000 1000;" xml:space="preserve">
<style type="text/css">
	.st0{fill:#6E3720;}
	.st1{fill:#E00000;}
	.st2{fill:#FB9A7A;}
	.st3{fill:#7F0000;}
	.st4{fill:none;}
	.st5{fill:#CBB89A;}
	.st6{fill:#7A99AC;}
	.st7{fill:#B4F8F6;}
	.st8{fill:#2B5260;}
	.st9{fill:#FEFEFE;}
</style>
<g>
	<path d="M866.3,528.6c-14.2-8.1-29.9-9.9-46-6.5c-9.5,2-18.8,4.6-28,8c-2.3,0.8-5.7,2.8-7.8,0.9c-6.3-5.8-13.3-5-20.6-3.6
		c-1.7,0.4-3.4,0.2-4.1-2.2c-6.1-18.7-12.3-37.3-18.5-56c9.5-1.1,18.3-4.8,23.4-14.3c7.9-14.5,10.6-32-1.9-45.6
		c-1.4-3.2-4.4-3.4-7.2-4.1c-4.5-1.2-9.2-1.3-13.8-1.2c-0.7,0-1.3,0-2,0c-0.3,0-0.6,0-0.9,0c-3.3,0-6.5,0.2-9.8,0
		c-8.1-0.6-16.1-1.3-20.5-9.8c-1.2-2.2-2.8-2-4.1,0c-1.5,2.3-3.3,2-5.5,1.2c-7-2.4-14.3-3.7-21.6-5c-0.2,0-0.3,0-0.5-0.1
		c-0.1,0-0.2,0-0.3,0c-1.6-0.1-3.2-0.1-4.8-0.4c-5-0.9-5.3-1.3-4.3-6.4c0.9-4.4,2.5-8.7,3.1-13.2c0.7-5.3,0.1-10.4-4.7-14
		c-0.6-0.1-1.3,0-1.8-0.3c-8-6.2-17.4-7.5-27.1-7.3c-4.7,0.1-9.3,1.3-14,2c-1.8,2-1.5,4.3-0.5,6.5c0.2,0.2,0.3,0.3,0.5,0.4
		c0.2,0.1,0.3,0.2,0.5,0.3c1.4,0.8,3,0.3,4.6,0.1c6.9-1,13.7-1.1,20.8,0c8.3,1.3,12.1,6.2,14.2,13.4c2.7,9.4-1.1,15.7-10.8,17.4
		c-6,1.1-12.1,1.5-18.1,2.2c-0.2,0-0.4,0-0.6,0.1c-0.1,0-0.1,0-0.1,0c-3.9-0.2-7.6,1-11.4,1.2c-0.1,0-0.2,0-0.2,0
		c-0.1,0-0.3,0-0.4,0.1c-6.9,1-13.6,2.8-20.2,4.8c-1.9,0.6-3.8,1.4-5.7,0.5c-2.1-0.9-3,0.1-4.3,1.7c-4.7,5.6-10.4,9.4-18,10.3
		c-14,1.6-27.9,0.5-41.9,0.9c-0.1,0-0.2,0-0.3,0c-0.4,0.1-0.8,0.1-1.1,0.1c-4.4,0.5-9,0.2-12.3,4c-4,2.9-6.4,7.1-7.6,11.7
		c-2,7.9-2,16.1,0.1,23.8c2.7,9.3,6.7,18.4,18,20.2c3,0.5,3.7,2.3,4.2,4.4c4.6,19,6.7,38.2,5,57.8c-0.9,11.4-2.3,22.7-5,33.9
		c-1.9,8.3,3.2,15.7,11.6,16.4c11.7,0.9,23.4,1.4,35.1,2c10.7,0.5,21.3,0.5,32,0.7c25,0.4,49.9,0.8,74.9-0.4c19.8-1,39.7-1,59.5-2.1
		c6.8-0.4,13.3-1.1,19.2-4.5c1.7-1,3.2-1,4.7-0.5c9.6,3.1,19.6,4,29.4,4.7c20.7,1.4,41-0.9,60.5-8.7c8.4-3.3,16-7.9,19.6-16.7
		C882.8,547.5,875.8,534,866.3,528.6z M792.4,547.2c12-3.4,23.9-7.5,36.3-9.8c7.8-1.5,15.6-2.1,22.8,3c7.9,5.6,7.7,13.4-0.8,18.3
		c-8.2,4.7-17.1,6.9-26.4,7.9c-5.2,0.6-10.4,1.4-15.3,2.1c-11-1.5-21.8-1.9-32.2-4.9c-2.4-0.7-3.2-1.5-3.2-3.8
		c0-2.3,0.2-3.8,3.2-4.3C782.7,554.6,786.6,548.8,792.4,547.2z"/>
	<path class="st0" d="M676.9,391.5c-12.2,0.4-12.9-0.1-9.8-11.7c2.1-8.1,4-15.8-1.2-23.4c0.5-3.7-2.5-6.6-1.6-10.6
		c1.3-6.3,6-9.6,10.1-13.6c6.9-6.6,16-8.3,24.8-9.6c7.7-1.1,14.7-3.7,21.8-6.3c13.2-5,26.1-4.5,38.9,0.8c13,5.3,24.6,12.9,32.9,24.3
		c6.2,8.4,8.5,18.2,6.2,28.9c-3.5,16.1-12.8,27.7-26.9,35.8c-2.8,1.6-6.2,2.2-9.3,3.3c-7.7-4.3-16.2-3.9-24.6-4.1
		c4.6-4.3,10.5-5.3,16.3-6c10.5-1.2,18.7-6.3,25.1-14.4c9.9-12.4,9.7-26.4-0.7-39.8c-9.2-11.9-20.9-19.8-36.4-21.1
		c-5.5-0.5-10.7,1.1-15.7,3c-9.8,3.7-19.8,6.4-30,8.3c-4,0.7-7.9,1.7-11.6,3.5c-5.8,2.8-7.9,7.3-6.5,13.6c0.5,2.1,1.2,4.1,2.2,5.9
		c2.9,5.4,3.7,11.1,1.7,17C680.7,380.5,679.4,386.2,676.9,391.5z"/>
	<path class="st0" d="M623.1,350.7c0,2.2,0,4.5,0,6.7c0.3,0.4,0.7,0.8,0.6,1.3c-1.4,8.6,2.9,15.5,6.7,22.6c1.8,3.4,4.8,6.6,3.4,11.1
		c-4-0.3-7.9,1.7-11.9,1c-3.8-6.9-8.1-13.7-12.1-20.5c-1.9-3.2-2-6.5-0.9-9.9c3.6-10.7-3.5-20.3-13.9-21.8
		c-6.3-0.9-12.3-2.4-18.8-1.4c-6,1-11.9-1.1-17.8-2.2c-9.5-1.8-18.9-1.8-27.7,2.1c-12.4,5.5-18.5,16.5-21.9,28.9
		c-4.3,16,0.8,27.6,14.7,36.7c2.8,1.8,6.8,2.6,7.7,6.7c-4.8,0.2-9.4,1.3-13.9,2.9c-7.6-5.4-14.7-11.3-19.5-19.7
		c-8.5-14.5-6.6-28.3,1.8-42c10.2-16.5,24.7-25.2,44.2-27.5c8.5-1,16.1,1.3,23.9,2.6c7.9,1.3,15.6,1.2,23.5,1.8
		c7.2,0.6,14.5,0.9,20.8,5.6C617.4,339.7,621,344.6,623.1,350.7z"/>
	<path class="st1" d="M725.5,470.8c10.2,18.2,16.8,37.7,21.4,58c0.3,1.2,0.4,2.2-1.3,2.4c-9.6,1.3-19.4,1.7-29,0.6
		c-6.2-0.7-12.2-0.4-18.3-0.6c-7.1-0.2-14.3-0.1-21.4-0.2c-7-1.1-13.9,0.2-20.9,0.1c-24.4-0.4-48.8,1-73.1,1.5
		c-4.5,0.1-9,1.2-13.6,0.9c-6.4-0.5-8.7-3.2-7.8-9.6c1.6-11.1,6.2-20.9,13.1-29.6c5.2-6.5,12.4-9.9,20.1-12.3
		c16.7-5.2,34-7.2,51.4-9c18.3-1.9,36.6-2.7,55-2.9c6-0.1,12-1.3,18-1.1C721.3,469.3,723.6,469.2,725.5,470.8z"/>
	<path class="st2" d="M676.9,391.5c-0.1-4.1,1.3-7.9,2.8-11.6c3.2-7.6,4-15-0.4-22.5c-1.9-3.2-2.7-6.7-2.2-10.6
		c1.1-8.3,7.7-10,14-11.8c7.4-2,15-3.2,22.4-5c5.9-1.5,11.3-4.2,17.2-5.9c10.9-3.2,20.9-1.3,30.5,3.9c10.8,5.8,19.1,14,24.2,25.2
		c7.4,16.2-0.7,33.1-16.3,42.5c-4.9,3-10.2,4.3-15.9,4.8c-5.2,0.4-10,3-14.9,4.7c-5.5,0-11,0.4-16.5-0.5
		c-7.2-1.1-12.8-3.9-15.2-11.8c-1.2,6.1-4.3,5.4-8.6,3.7C691.2,393.8,683.9,393.1,676.9,391.5z"/>
	<path class="st2" d="M531.3,412c-3.1-2.2-6.2-4.5-9.4-6.5c-15-9.2-19.2-24.7-13.4-40.5c2.8-7.8,6.8-14.8,12.8-20.7
		c5.2-5.1,11.5-7.1,18.4-8.4c10.6-2,20.6,1.2,30.9,2.6c1.9,0.3,4,0.7,5.8,0.2c8.4-2.5,16.2,0.7,24.1,2.6
		c6.6,1.6,13.1,12.5,10.3,19.4c-2.3,5.7-0.9,11,2.8,16.2c3.6,5,7.7,10,8.4,16.5c-8.6,2.1-17.2,3.8-25.5,6.9
		c-2.1,0.8-1.8-1.9-3.4-2.1c0.5,2.4-0.8,3.5-2.6,5c-8,6.8-17.3,8.9-27.4,8.8C552.5,412,541.9,412,531.3,412z"/>
	<path class="st1" d="M559.6,423c13.9-1.8,27.9-0.3,41.8-1.3c22.6-1.6,45.2,0.2,67.7-1c22.3-1.2,44.7-1.9,67-1.8
		c1.5,0,3-0.1,4.4,0.2c10.7,2.3,12.6,6.1,9.3,18.8c-0.7,2.8-1.8,5.5-3,8c-4.4,8.9-8.7,10.8-18.4,8.5c-3.5-0.8-7.1-0.5-10.7-0.3
		c-5.2,0.3-10.3-1-15.4-1.2c-16-1.6-32-2.2-48-3.3c-11-0.7-22.1-1.8-33.1-1.7c-20,0.1-39.9,1.3-59.9,2.6c-6,0.4-12.1,0.6-17.9-1.3
		c-9.4-3.1-12.9-11.9-7.7-19.1c1.9-2.7,4.6-4,7.6-4.9C548.6,423.6,554.2,423.6,559.6,423z"/>
	<path class="st3" d="M725.5,470.8c-19.1,0.6-38.2,0.7-57.3,2c-22,1.4-44,3.4-65.5,8.7c-9.6,2.4-19.3,4.8-26.1,12.8
		c-7.9,9.2-12.4,19.9-14.1,31.9c-0.5,3.9,1.4,6.1,5.1,6c13.6-0.4,27.1-1.5,40.7-1.6c22.6-0.3,45.2,0,67.7,0c0.3,0,0.5,0.4,0.8,0.6
		c-15.4,0.6-30.8,1.1-46.2,1.2c-17,0.1-34,1-50.9,1.9c-8.5,0.5-16.9,1.8-25.4,2.8c-2.4,0.3-3.5-0.3-3.6-3.1
		c-0.4-18.2-3.2-36.2-4.9-54.4c-0.9-9.5-0.9-9.2,8.6-10c10.6-0.9,21.1-2.5,31.6-3.7c4-0.5,8.1-0.8,12-0.9c8.3-0.1,16.5-1.1,24.7-1.4
		c11.8-0.4,23.6-1.2,35.5-0.8c14.9,0.5,29.8,0.8,44.6,2.1c6.3,0.6,12.9,0,19.1,2.5C723.8,468.3,725,468.9,725.5,470.8z"/>
	<path class="st1" d="M702.2,549.7c8.3,0,16.6,0.5,24.9,0c9.2-0.6,17.8,2.1,26.5,4.1c2.7,0.6,4,3,4.1,5.4c0.2,3.2-0.5,6.2-3.7,8.3
		c-5.2,3.3-11.1,4.5-16.9,4.6c-7.6,0.1-15.1,1.2-22.7,1.2c-29.2,0-58.4,1.4-87.6,1.2c-6.7-0.1-13.5,0.9-20.3,0.6
		c-2.7-0.6-5.5-0.3-8.2-1.2c-3.6-1.2-6.7-3.1-7.2-7.1c-0.5-3.7,2.5-5.4,5-7.2c2.6-1.8,5.6-2.7,8.6-3.2c16.2-2.6,32.5-4.2,48.9-5.2
		c13.4-0.8,26.9-1.1,40.4-1.8C696.7,549.2,699.5,548.9,702.2,549.7z"/>
	<path class="st4" d="M850.6,558.6c-8.2,4.7-17.1,6.9-26.4,7.9c-5.2,0.6-10.4,1.4-15.3,2.1c-11-1.5-21.8-1.9-32.2-4.9
		c-2.4-0.7-3.2-1.5-3.2-3.8c0-2.3,0.2-3.8,3.2-4.3c6.1-1,10-6.7,15.8-8.3c12-3.4,23.9-7.5,36.3-9.8c7.8-1.5,15.6-2.1,22.8,3
		C859.3,545.9,859.1,553.7,850.6,558.6z"/>
	<path class="st1" d="M619.2,536.3c37.8-1.1,75.7-3.8,113.6-0.9c-2,6.8-2,6.8,2.3,12.2c-6.9,1.2-13.5-0.9-20-1
		c-0.9,0-1.9-0.5-2.8-0.5c-11.7,0.3-23.3-1.5-34.9-1.1c-20.3,0.7-40.6,2.3-60.9,3.2c-11.4,0.5-22.8,1.8-34.3,1.8
		c-3.4,0.8-6.8,0.4-10.1-0.5c-2.1-0.6-4-1.9-4-4.3c-0.1-2.1,1.9-2.9,3.5-3.6c2.7-1.2,5.6-1.7,8.5-1.9
		C593.1,538.3,606.1,537.5,619.2,536.3z"/>
	<path class="st3" d="M559.6,423c-5.3,1.2-10.6,2.4-15.9,3.7c-5.8,1.4-9.5,5.6-9.5,10.7c0,3.8,5.4,9.9,10,10.7
		c6.7,1.3,13.5,1.9,20.2,0.3c0.6-0.2,1.3-0.2,1.9-0.1c11.7,0.7,23.3-1.1,35-1.2c7.3-0.1,14.6-1.3,21.8-0.7c18,1.4,36.1,1.6,54.1,3.7
		c8.3,1,16.7,0.8,24.8,3c-19.8-1.1-39.5-1.1-59.3-0.8c-18.1,0.3-36.3,0.6-54.3,2.1c-17,1.4-34,2.5-50.8,5.6
		c-5.9,1.1-11-2.5-12.5-8.5c-1.8-7.3-1.2-14.4,1.4-21.3c1.1-2.9,3.3-4.5,6.4-5.3C541.9,422.8,550.7,422.6,559.6,423z"/>
	<path class="st3" d="M702.2,549.7c-13.6,0.7-27.2,1.1-40.7,2.1c-19.9,1.6-39.9,2.7-59.5,6.7c-2.2,0.4-3.9,1.4-5.6,2.6
		c-2,1.4-4.7,2.4-4.4,5.3c0.3,3,2.6,4.8,5.4,5.8c3,1.1,6.1,2,9.1,2.9c-17,0.3-34,0.6-50.9-1.9c-2.1-0.3-4.1-1-6-1.6
		c-1.7-0.5-3-1.6-2.6-3.6c0.6-3.3,0.9-6.8,2.1-9.9c1-2.5,4-2.3,6.3-2.4c15.1-1,30.2-2.7,45.4-3.2c12.7-0.4,25.5-1.1,38.2-1.9
		c19.4-1.2,38.8-1.9,58.2-1.8C698.9,548.9,700.7,548.2,702.2,549.7z"/>
	<path class="st5" d="M633.9,392.5c-1.5-7.3-6.4-13.1-9.2-19.8c-2.1-5.1-3.1-9.9-1.5-15.2c4.1-0.6,8.1-1.4,12.2-1.7
		c7.7-0.7,15.6,0.1,22.1,4c6.8,4.1,11,18.2,5.1,26.1c-2.4,3.1-6.2,3.9-9.7,4.5C646.5,391.4,640.2,391.8,633.9,392.5z"/>
	<path class="st6" d="M871.1,544.9c6.5,7.4,0.2,16.7-6.5,21.3c-9.6,6.6-20.9,8.9-32.2,11c-4.3,0.8-8.6,0.9-13,1.1
		c-13.5,0.3-26.8-1.3-39.9-4.5c-2-0.5-4.1-1.1-5.1-3.4c0.2-1.3-0.9-3.1,2.4-2.3c11.4,2.8,23.1,4.8,34.7,4c14.8-1,29.7-2.6,43.1-10.8
		c11-6.8,11.5-16.3,0.9-23.7c-10.3-7.2-21.2-5.6-32.2-2.8c-12.1,3.1-24.2,6.5-36.3,9.9c-2.4,0.7-4.4-0.3-5.4-2
		c-1.3-2.3,0.8-3.6,2.5-4.4c8.4-3.7,17.2-6.4,26.4-7.9c0.3,1.6-0.9,2-1.9,2.4c-4.7,1.8-9.6,3.1-12.5,3.7c5.4-1.4,12.8-3.4,20.4-4.5
		c10.6-1.6,21.2-3,31.9-0.8c9.5,2,15.4,8,18.4,16.9c1.4,4.3-0.6,8.3-2.5,12.1c4.8-2.1,6.4-4.7,6.2-10.1
		C870.5,548.3,869.6,546.4,871.1,544.9z"/>
	<path class="st5" d="M701.1,406.2c-5.4,0-10.2-0.2-14.9,0c-15.1,0.9-30.1,2.2-45.2,3.1c-15.2,0.9-30.4,1.9-46,1.8
		C607.2,399.2,684.4,395.6,701.1,406.2z"/>
	<path class="st7" d="M871.1,544.9c-0.2,2.4,1.3,4.6,1,7.1c-0.7,6.4-4.7,9.3-10.5,11c0.2-3,2.7-4.6,3.5-7c2-6-1.2-14.9-6.4-18.8
		c-9.1-7-19.6-6.3-30.1-5.6c-12.5,0.9-24.6,4.1-36.8,6.2c5.8-3.6,12.9-4.1,18.8-7.6c9.2-2.3,18.5-5,28-4.5
		c8.2,0.5,16.3,1.8,23.4,6.6C866.6,535.5,869,540,871.1,544.9z"/>
	<path class="st8" d="M778.8,548.5c-5,3.1-9.8,0.4-14.5,0.1c-6.5-0.4-12.9-2.3-19.4-3.7c-2.6-0.5-5.5-1.4-5.5-4.5
		c0.1-2.8,2.9-3.5,5.3-4.2c7.6-2.3,15.5-2.5,23.3-3.9c1.9-0.4,3.8,0.1,5.6,1c3,1.4,4.8,2.6,1.4,5.8
		C772.4,541.5,773.3,543.6,778.8,548.5z"/>
	<path class="st3" d="M619.2,536.3c-7.3,2.1-14.9,1.8-22.4,2.7c-7.8,1-15.7,1.4-23.4,3.1c-1.7,0.4-4.4,0.9-4.5,3
		c-0.1,2.1,2.4,2.7,4.2,3.5c2.9,1.3,6,1.2,9.1,1.3c-0.6,0.3-1.1,0.8-1.7,0.8c-8.9,0.3-17.8-0.4-26.7,1c-3.3,0.6-4.2-1.1-4-4.2
		c0.4-5.5,2.1-7.1,8.6-7.5c14.8-1.1,29.6-2.6,44.4-3.1C608.2,536.7,613.7,536.1,619.2,536.3z"/>
	<path class="st8" d="M774.4,570.3c8.3,4.1,17.5,4.4,26.5,5.8c6.1,1,12.4,1.4,18.5,2.1c-5.3,1.8-10.9,1.1-16.2,0.7
		c-9.1-0.8-18.2-1.1-27.1-3.7C772.9,574.3,771.4,573.2,774.4,570.3z"/>
	<path class="st9" d="M724.1,484.9c6.1,12.8,11.9,25.6,15.1,39.4c0.4,1.9,0.3,3.8-1.5,5.3c-1.9,1.5-3.6,0.6-5.3-0.2
		c-3.6-1.9-5-5.4-5.6-9c-1.1-6.4-1.9-13-1.9-19.5C724.8,495.5,723.3,490.3,724.1,484.9z"/>
	<path class="st9" d="M612.6,424.4c1.6-0.4,2-0.6,2.5-0.6c16.2-0.3,32.4-1.2,48.5-0.9c21.7,0.4,43.2-2.9,64.9-2
		c3.3,0.1,6.7,0.4,10,1.1c4.1,0.9,7.3,6.3,6.5,10.9c-0.5,2.8-1.3,5.5-2.2,8.2c-0.4,1.2-0.8,2.3-2.8,0.8c-5.3-4.2-11.4-7-17.7-9.6
		c-8.2-3.4-16.8-4.3-25.2-4.4c-19.1-0.2-38.2-1.6-57.3-1.4C631.2,426.7,622.5,425.3,612.6,424.4z"/>
	<path class="st9" d="M726.8,539.3c-5.6,4.9-10.6,1.4-15.2,1.5c-4.9,0.1-9.8-1.7-14.6-1.6c-12.1,0.3-24.1-1.9-36.2-1.6
		C682.4,537.9,704,535.4,726.8,539.3z"/>
</g>
</svg>
