<?xml version="1.0" encoding="utf-8"?>
<!-- Generator: Adobe Illustrator 23.0.1, SVG Export Plug-In . SVG Version: 6.00 Build 0)  -->
<svg version="1.1" id="Layer_4" xmlns="http://www.w3.org/2000/svg" xmlns:xlink="http://www.w3.org/1999/xlink" x="0px" y="0px"
	 viewBox="0 0 1000 1000" style="enable-background:new 0 0 1000 1000;" xml:space="preserve">
<style type="text/css">
	.st0{fill:#6E3720;}
	.st1{fill:#E00000;}
	.st2{fill:#7F0000;}
	.st3{fill:#CBB89A;}
	.st4{fill:none;}
	.st5{fill:#7797AA;}
	.st6{fill:#FEFEFE;}
	.st7{fill:#B1F5F3;}
	.st8{fill:#2B5260;}
	.st9{fill:#FB9A7A;}
</style>
<g>
	<path d="M625.1,545.4c-3.9-8.3-10.9-11.7-19.4-13.3c-3.6-0.7-8,0.5-10.7-2.5c-1.3-1.4-2.3-3-4.1-3.7c-2.3-0.8-2.3-2.3-1.8-4.1
		c1.9-7.8,4-15.5,5.5-23.4c0.6-3.2,1.3-4.8,4.9-3.4c1.1,0.4,2.4-0.2,3.6-0.8c6-2.8,9.4-7.9,12.1-13.5c4-8.2,2.1-12.9-6-16.9
		c-1.7-0.8-3.2-1.8-5.2-2.2c-1.2-0.2-2.5-1-3-2.6c-1.6-5-4.9-8.7-9.3-11.5c-1.2-0.8-3.5-1.7-2.5-4c2-4.8,2.8-10.1,5.4-14.7
		c3.3-2.8,4.9-6.5,5.7-10.6c0-0.1,0-0.1,0-0.2c0-0.1,0-0.2,0.1-0.3c-5.3,0-10.4-0.6-15.1-3.1c-0.5-0.3-1.2-0.3-1.8-0.1
		c-0.1,0-0.3,0.1-0.4,0.1c0,0-0.1,0-0.1,0.1c-1.3,1.1-1.8,2.4-1.5,4c0.1,0.2,0.2,0.3,0.2,0.5c0.1,0.1,0.1,0.2,0.2,0.3
		c0.9,1.3,2.3,1.9,3.7,2.3c2.9,0.8,3.4,2.5,2.4,5.1c-1.2,3.2-2.4,6.4-3.2,9.7c-1.1,4.4-3.7,3.6-6.7,2.3c-2.7-1.2-5.6-1.6-3.6-6
		c1.3-2.8,4.1-5.5,2.6-9.1c0-0.1-0.1-0.2-0.1-0.3c-2.5,0.2-5.1,0.1-5.9,3.3c-2.1,5.7-4.1,11-12.1,10.7c-4.3-0.2-8.4,1.3-12.6-1.6
		c-3.2-2.2-7-3.5-10.5-5.3c-3.6-1.8-6.7-1.1-9.6,1.4c-2.3,2-4.6,4.3-5.6,7.1c-2.1,5.5-6,11.2-0.6,17.2c0.7,0.8,0.6,2.6,0.3,3.8
		c-3.4,13.4-8.3,25.8-17.4,36.7c-9.6,11.5-8,13.3,4.1,19.5c15.2,7.8,30.7,15.2,46,22.9c7.1,3.6,13.6,9,21.6,10.1
		c4.8,0.6,7.3,3.2,10.4,6c8.3,7.5,18.3,10.8,29.3,10C624.3,564.7,629.4,554.5,625.1,545.4z M592.6,541c0-0.1,0-0.2,0-0.3
		c5.8,0.8,11.6,1.4,17.4,2.3c2.3,0.4,4.1,1.8,5.4,3.7c1.9,2.6,0.7,5.8-2.2,7.1c-4.4,2-9,1.1-13-0.4c-4.2-1.6-8.5-3.3-11.9-6.5
		c-1.4-1.3-3.3-2.6-2.4-4.8c0.9-2.3,3.1-0.6,4.6-1.1C591.3,540.9,592,541,592.6,541z"/>
	<path class="st0" d="M583,415c-0.3,1.3-0.6,2.5-1,3.8c-0.5,2.8-1.5,5.1-4.9,5.1c-2,1-4,2-6,3c-5.9,0.4-11.4-1-16.1-4.8
		c-1.6-1.3-3.6-1.3-5.5-1.2c-3.5,0.2-7-0.2-9.2-2.9c-4-4.9-10.8-4.6-15.1-9.2c-10-10.6-12.5-32.4,0-45c7.6-7.6,16-13,26.7-14
		c5.9-0.6,10.7,3,15,6.2c5.2,3.9,10.4,7.8,15.9,11.2c6.8,4.3,9.8,12.6,7,20.5c0.7,1.9-0.6,3.4-1.1,5.1c-2.2,4.8-3.5,9.7-3.5,15
		C585.3,410.4,585.1,413,583,415z"/>
	<path class="st0" d="M594.6,428.8c1.5-3.9,3-7.7,5.9-10.9c-0.6-1.6,0.4-2.7,1.2-3.8c4.3-3.6,4.8-9.3,7.5-13.8
		c3.9-11.3,9.4-14.5,21.2-12.7c6.7,1.1,13.3,2.7,20.2,3.2c8.9,0.6,14.5,6.7,18.4,14.2c6.5,12.6,7.2,25.4-1.3,37.3
		c-6.2,8.7-14.9,15.8-26,14.2c-8.4-1.2-17.8-0.9-24.9-7.4c-2.2-2-4.7-2.7-7.8-3.1C600.7,445.1,594.2,439.3,594.6,428.8z"/>
	<path d="M609.3,400.3c-0.3,5.8-2.7,10.6-6.8,14.7c-1.4-1.6-0.5-3.3-0.1-5c1.7-7.1-0.3-11.2-6.7-14.6c-2.5-1.3-5.6-1.6-7.7-3.7
		c0.7-1.3,1.3-2.7,2-4C598,389.4,605.9,391.5,609.3,400.3z"/>
	<path class="st1" d="M588.9,492.2c-1.8,8.2-3.6,16.5-5.6,24.7c-1.8,7.5-2.1,7.9-8.4,3.8c-10.5-6.8-21.9-12-32.9-17.7
		c-6.7-3.2-13.5-6.3-20.4-9.1c-4.4-1.7-4.8-4-2.3-8c6.5-10.1,15.4-13.7,27.1-11.4c14.2,2.8,26.7,9.9,39.8,15.6
		C587.3,490.5,588.3,491.2,588.9,492.2z"/>
	<path class="st1" d="M605.5,471.8c4,0.5,4.7,2.7,2.8,6c-0.7,1.2-1.5,2.4-2.3,3.6c-5.5,7.4-6.3,7.4-14.2,2.5
		c-2.3-1.4-4.7-2.6-6.8-4.4c-14.3-10.4-30.2-17.7-46.3-24.7c-1.9-0.8-3.9-1.7-5.6-3c-3-2.2-4.7-5.1-3.3-8.8c1.5-3.9,4.5-4.8,8.3-3.6
		c5.4,1,10.2,3.6,15,5.9c9,4.3,18.3,8.2,26.7,13.7c-1.6,1.6-3,0.2-4.4-0.4c-3.7-1.6-7.1-3.8-9.4-4.9c11.4,7.8,28,10.7,36.1,25.9
		C605.7,477.8,604.1,474.2,605.5,471.8z"/>
	<path class="st2" d="M588.9,492.2c-9.3-4-18.8-7.9-28-12.1c-6.6-3-13.5-4.4-20.5-5.4c-7.2-1-18.6,6.8-21.4,13.8
		c-0.9,2.4,0.6,3.2,2.3,4c5.4,2.5,10.9,5,16.3,7.7c1.6,0.8,3.4,1.2,4.5,2.7c-6.1-1.1-11.1-5.2-17-6.7c-0.8-0.2-1.5-0.7-2.2-1
		c-8.5-3.2-8.7-3.3-4.5-11c3.4-6.3,5.8-13,7.8-19.8c1-3.3,2.3-3.5,5.2-2.5c14.7,4.9,29.2,10.4,42.8,18c5.3,3,10.1,6.9,15.1,10.4
		C590,491,589.7,491.6,588.9,492.2z"/>
	<path class="st1" d="M548.8,518.5c7.8,3.7,15.6,7.5,23.5,11.2c2.9,1.4,4.6,4,6.9,6c1.9,1.7,0.4,3.4-0.4,4.8c-0.9,1.5-2,3.1-4.3,2.1
		c-1-0.4-2.2-0.6-3.2-1.1c-16.8-8.4-33.6-16.6-49.9-25.9c-1.2-1-3-1.8-2.2-3.8c0.8-2,2.6-2.2,4.5-2c7.6,0.6,14.1,4.4,21,7.1
		C546.2,517.4,547.5,517.9,548.8,518.5z"/>
	<path class="st3" d="M587.9,391.6c4.5,0.2,8.2,2.3,11.8,4.6c4.1,2.7,5.5,8.3,4.1,13.2c-0.5,1.8-0.9,3.7-1.3,5.5c-0.7,1-1.3,2-2,2.9
		c-4.6,1.9-8.9,1-13.2-1.2c-1.4-0.7-2.6-1.8-4.3-1.8C584.5,407.2,583.3,398.8,587.9,391.6z"/>
	<path class="st4" d="M613.3,553.8c-4.4,2-9,1.1-13-0.4c-4.2-1.6-8.5-3.3-11.9-6.5c-1.4-1.3-3.3-2.6-2.4-4.8
		c0.9-2.3,3.1-0.6,4.6-1.1c0.6-0.2,1.3,0,1.9,0c0-0.1,0-0.2,0-0.3c5.8,0.8,11.6,1.4,17.4,2.3c2.3,0.4,4.1,1.8,5.4,3.7
		C617.4,549.3,616.2,552.5,613.3,553.8z"/>
	<path class="st2" d="M538.2,439.3c-3.7,0-7,1-7.7,5.1c-0.7,4,2.2,6,5.4,7.7c11.3,5.9,23.5,9.8,34.4,16.6
		c5.2,3.2,10.2,6.6,14.6,10.8c-5.2-1.7-9.6-5.2-14.4-7.7c-12.6-6.6-25.8-11.7-39.1-16.5c-9.2-3.3-10.1-5.6-4.8-13.5
		C530,436.9,531.8,436.5,538.2,439.3z"/>
	<path class="st1" d="M572.2,522.5c1.4-0.2,2.4,0.9,3.5,1.3c-0.9,1.3-1.6,2.7-2.7,3.8c-1.5,1.6-2.1-0.5-3.1-1
		c-16.3-8.9-32.9-17-50.1-24c-0.9-0.3-1.6-1-2.4-1.5c-0.8-0.7-1.8-1.6-1-2.7c1.1-1.7,2.7-0.8,4.1-0.5c11.2,2.7,20.8,9,31.2,13.6
		c4.4,4,10,6,15.1,9C568.4,521.4,569.6,524.1,572.2,522.5z"/>
	<path class="st3" d="M577.2,423.9c2.3-1.1,3.3-3.4,4.9-5.1c0.8,0.4,1.7,0.9,2.5,1.3c6.2,2.8,6.2,2.8,4.1,9.1
		c-0.8,2.2-1.7,4.4-2.4,6.6c-2.4,6.9-2.2,6.3-9.3,4.2c-5.6-1.7-5.6-3.6-3-7.9C575.4,429.6,576.1,426.6,577.2,423.9z"/>
	<path class="st5" d="M621.1,557.6c-1.2,4.8-5.7,4.6-8.8,4.7c-10.6,0.1-20.2-3-27.6-11c-0.9-0.9-3.1-1.8-1.7-3.4
		c1.4-1.6,2.9,0.7,3.7,1.4c5.4,4.4,11.3,7.6,18.1,9c4,0.8,7.7-0.2,11-2c5.1-2.9,4.4-10.6-1-14.1c-3.3-2.1-7.1-2.9-10.9-3
		c-3.4-0.1-6.6-1.2-10-1.1c-1,0-2,0.1-2-1.4c0-1.3,0.7-2.4,1.9-2.4c2,0,4.2-1,5.9,0.8c-0.9,1.1-2.1,0.5-3.2,0.5
		c4.7,0.7,9.4,1.2,14,2.3c9.4,2.2,13.1,9.1,9.7,18.2C619.6,557.5,620.6,557.2,621.1,557.6z"/>
	<path class="st2" d="M548.8,518.5c-6-0.8-11-4.5-16.8-5.9c-2.5-0.6-5.1-0.8-7.5-1.5c-1.6-0.4-3.3-1-4.4,0.7
		c-1.2,1.7,1.1,2.4,1.4,3.8c-4.6-2-9.2-3.7-13.6-6c-1.6-0.8-5.2-1.5-3.3-4.6c1.4-2.3,3.2-4.7,7-3.1c9.2,4.1,18.7,7.8,27.9,12
		C542.6,515.4,546.3,515.8,548.8,518.5z"/>
	<path class="st6" d="M605.5,471.8c1.9,4.4-0.7,7.4-3.5,10.9c-3.3-10.9-12.3-15.1-20.8-19.9c-6.5-3.6-13-7.3-19.3-11.3
		c6.5,1.4,11.5,6.3,18.1,7.4c1.8,1.5,3.7,2.6,6,3.1c1.6,0.6,3.2,1,4.7,1.8C595.6,466.5,600.5,469.2,605.5,471.8z"/>
	<path class="st3" d="M559.2,441.9c13.6-1,32.8,8,36.6,16.6C583.5,452,571.3,447.1,559.2,441.9z"/>
	<path class="st7" d="M621.1,557.6c-1.5,0.4-2.6,1.9-4.4,1.6c9.4-11.6,0.8-20.1-11.8-21.1c-3.4-0.3-6.5-1.2-9.6-3c1.4,0,2.8,0,4.3,0
		c3.3,0.4,6.6,0.8,9.9,1.3c7,1.1,11.4,5.2,13.9,11.6C625,551.8,622.9,554.7,621.1,557.6z"/>
	<path class="st8" d="M581.9,526.4c1.4,0.3,3.6,0.7,5.7,1.4c1.7,0.6,4,1.5,3.8,3.2c-0.3,2.2-1.8,4.3-2.9,6.4
		c-0.1,0.2-1.4-0.2-2.1-0.4c-3.5-1.5-5.6-4.7-8.3-7.2c-0.6-0.6-1-1.3-0.5-2.1C578.5,526.3,579.8,526.4,581.9,526.4z"/>
	<path class="st6" d="M572.2,522.5c0.1,0.9,1.5,1.5,0.8,2.5c-0.6,0.8-1.4,0.1-2.1-0.3c-6.1-4.5-12.8-8-19.4-11.7
		c-0.2-0.1-0.4-0.5-0.4-0.7c0-0.2,0.4-0.4,0.6-0.6c5.2,2.7,10.4,5.4,15.6,8.1C569,520.7,570.8,521.3,572.2,522.5L572.2,522.5z"/>
	<path class="st2" d="M520.6,497.9c-1.8,0.3-4.9-0.7-3.1,3.2c-1.5-0.5-3.1-0.9-4.6-1.5c-0.9-0.4-2.5-0.6-1.7-2.3
		c0.5-1.2,1.2-2.5,2.8-2.1C516.3,495.8,518.8,496.2,520.6,497.9z"/>
	<path class="st1" d="M572.3,522.5c-2-0.3-3.8-0.9-4.9-2.8C569.5,519.7,571.3,520.5,572.3,522.5z"/>
	<path class="st1" d="M590.7,463.9c-1.9,0.2-3.4-0.5-4.7-1.8C587.9,461.6,589.5,462.2,590.7,463.9z"/>
	<path class="st9" d="M561.1,410.6c-7.2,6-16,5.8-21.4-1.2c-0.8-1-1.6-2-3.1-2.1c-7.1-0.5-9-5.7-11.4-11.3
		c-7-16.6,8.9-35.7,22.8-38.2c6.6-1.2,11.7,1.2,16.4,5.1c3.6,3.1,7.7,5.2,11.9,7.3c8.6,4.3,11.3,12.2,5.5,19.7
		c-4,5.1-3.9,10.7-4.5,16.3c-0.3,3.1-0.3,6.1-1.6,8.9c-2.4,5.3-10.1,7.2-14.7,3.6c-1.3-1-1.4-1.9-0.6-3.3
		C561.1,414.1,562.1,412.6,561.1,410.6z"/>
	<path class="st9" d="M617,433.1c-2.6,0.9-3,3.1-3.9,4.9c-1.2,2.6-2.8,2.9-5.4,1.6c-5.8-3.1-7.3-12.5-2.3-18.1
		c5-5.6,8.8-11.3,10-19.1c1.1-7.4,7.4-10.2,14.7-7.9c5.4,1.7,11,2.4,16.5,2.8c10,0.8,16.9,5.9,19.2,15.7c2.9,12.5,0.8,23.9-9.5,32.4
		c-5.5,4.5-11.7,8.1-19.4,4c-2.3-1.2-4.9-1.4-7.9-0.6c-4.6,1.3-11.1-6-11.9-12.5C617.1,435.4,617.1,434.3,617,433.1z"/>
	<path class="st6" d="M586,498.6c-1.6,6.8-3.3,13.6-4.9,20.4c-0.3,1.2-0.8,2.3-2,2.3c-1.5-0.1-1.9-1.4-2-2.8c-0.3-3.6,1-6.8,2.6-9.9
		c1.8-3.5,3.5-6.9,5.3-10.4C585.3,498.3,585.6,498.5,586,498.6z"/>
</g>
</svg>
