<?xml version="1.0" encoding="utf-8"?>
<!-- Generator: Adobe Illustrator 23.0.1, SVG Export Plug-In . SVG Version: 6.00 Build 0)  -->
<svg version="1.1" id="Layer_4" xmlns="http://www.w3.org/2000/svg" xmlns:xlink="http://www.w3.org/1999/xlink" x="0px" y="0px"
	 viewBox="0 0 1000 1000" style="enable-background:new 0 0 1000 1000;" xml:space="preserve">
<style type="text/css">
	.st0{fill:#6E3720;}
	.st1{fill:#E00000;}
	.st2{fill:#FB9A7A;}
	.st3{fill:#7F0000;}
	.st4{fill:none;}
	.st5{fill:#CBB89A;}
	.st6{fill:#7A99AC;}
	.st7{fill:#2B5260;}
	.st8{fill:#B5FBF8;}
	.st9{fill:#FEFEFE;}
</style>
<g>
	<path d="M860.2,550.5c-1.4-10.2-7.4-18.1-16.5-23.1c-6.9-3.9-14.9-4.7-22.5-4.7c-15.4,0-30.1,4.4-44.3,10.3
		c-0.9,0.4-2.4,2.3-3.3,0.6c-3.2-6.3-9.2-6.3-14.1-5c-5.9,1.5-6.4-2.1-8.1-5.4c-0.2-0.4-0.2-0.9-0.4-1.4
		c-5.2-16.2-10.4-32.5-15.7-48.9c6-1.1,12-1.7,16.1-7.1c3.9-5,7-10.2,8.8-16.4c3.1-10.7,3.8-20.8-2.4-30.5c-1-3.2-3.5-4.9-6.3-6.2
		c-1.8-0.8-3.6-0.9-5.5-1.2c-0.4-0.1-0.8-0.1-1.2-0.2c-0.6-0.1-1.2-0.3-1.8-0.5c-8.1-0.7-16.2-0.2-24.3-0.3
		c-0.9,0.2-1.8,0.2-2.7,0.2c-0.7,0-1.3-0.1-2-0.3c-2.3-0.5-4.4-1.6-6.5-3.1c-0.1-0.1-0.3-0.2-0.4-0.3c-0.1-0.1-0.2-0.1-0.3-0.2
		c-8.2-5-17.1-7.6-26.5-8.9c-0.2,0-0.4-0.1-0.6-0.1c-0.1,0-0.2,0-0.3,0c-4.1-0.3-8.5-0.2-10.8-4.5c0,0,0,0,0-0.1c0,0,0-0.1,0-0.1
		c0,0-0.1-0.1-0.1-0.2c0,0,0,0,0,0c-9,4.3-18.8,5-28.5,5.7c-0.3,0-0.6,0-0.9,0.1h0c-4.1-0.3-8.1,1-12.2,1c-0.2,0-0.4,0-0.5,0
		c-0.1,0-0.3,0-0.4,0c-1.5,0.1-2.9,0.5-4.3,0.9c-5.6,1.5-11.2,3.3-16.9,4.6c-4.3,1-7.1,3-9.8,5.9c-3.1,3.2-6.8,4.9-11.5,5.4
		c-8.1,0.9-16.2,0.5-24.3,0.7c-6.6,0.2-13.3-0.6-19.9,1.2c-0.1,0-0.3,0.1-0.5,0.1c-0.4,0.1-0.7,0.2-1,0.3c-3.6,1.2-6.8,2.8-6.8,7.6
		c-4.3,10.2-3.4,20.6-1.5,31c1.5,8.2,6,14,14.6,16c1.8,0.4,3.1,1.8,3.9,4.2c3.4,9.8,4.8,19.9,6.5,30c1.4,8,1.6,16.1,0.8,24.1
		c-1.1,11.6-4.3,22.8-7.5,34.1c-1.8,6.4,1.4,13.8,6.4,14.7c3.1,0.5,6.2,1.5,9.4,1.3c10.8-0.7,21.6,0.4,32.5-0.9
		c9.8-1.1,19.7-0.6,29.5-0.9c15.2-0.5,30.5,0.4,45.6,0.3c28.9-0.2,58.1,4.1,86.8-3.5c1-0.3,2.2,0.1,3.3,0.4
		c11,2.8,22.2,3.8,33.5,4.4c7.5,0.4,15-0.7,22.5-1.9c11.4-1.8,22.6-4.5,32.2-10.9C856.2,564.9,861.3,558.7,860.2,550.5z
		 M768.4,554.6c2.7-0.5,5.6-0.8,7.1-4c0.6-1.4,2.5-1.4,4-2c9.3-3.3,18.5-7,28.1-9c8-1.7,16.2-4.6,24.6-0.7c4.7,2.2,6.4,6.4,7.5,10.7
		c0.9,3.6-2,5.9-4.9,8c-6.6,4.7-14.5,6-22,7.5c-6.2,1.3-12.5,2.5-19,2.5c-8.5-1.1-17-2.2-25.5-3.4c-4-0.6-4.4-4-4.4-6.9
		C763.8,554.8,766.4,555,768.4,554.6z"/>
	<path class="st0" d="M757.9,419c-3.6-4.2-8.5-6-13.8-6.8c2.7-3.3,6.6-4.4,10.5-4.2c20.3,1.2,38-27.8,28.2-47.9
		c-8-16.4-20.5-26.4-38.3-30.1c-4.2-0.9-8.1-0.1-11.9,1.4c-12.1,4.7-24.3,9.2-37.3,11.2c-2.9,0.4-5.6,1.8-8,3.5
		c-5.3,3.6-7.2,9.4-4.9,15.4c0.6,1.5,1.2,3,2,4.4c4,6.9,4.3,13.9,0.2,20.8c-2.3,4-1.8,9-4.8,12.7c-3.1,0.8-6-0.8-9.1-1
		c-3-0.2-1.2-3.1-1.8-4.7c-1.9-2.3-0.4-4.6,0-6.9c1.8-6.7,3.8-13.3,0.6-20.2c-0.5-1-0.4-2.2,0.3-3.2c-2.4-8.1-0.4-15.5,5.3-21
		c6-5.8,13-10.8,21.6-12.2c9.9-1.6,19.3-4.6,28.7-7.8c20-6.7,36.9,0.1,52.7,12c8.5,6.4,15.4,14,18.6,24.2c4.8,15.3,0,29-8.8,41.6
		C780.6,410.5,771.1,417.8,757.9,419z"/>
	<path class="st0" d="M539.2,419.8c-3.7,1.2-6.6,3.2-8,7c-9-5.7-17.4-12.2-22.6-21.5c-4.5-8.1-5.2-17.1-4.3-26.4
		c1.2-12,7.1-21.8,14.9-30c8.1-8.6,18.1-14.2,30.4-16.2c9.3-1.5,17.7,1.1,26.4,2.5c7.7,1.3,15.3,1.8,23,1.6
		c14.2-0.4,26.9,6.3,29.1,21.5c1.5,1.9,1.3,4.1,1.3,6.3c-0.2,6.8,1.5,13.1,4.5,19.2c1.9,3.8,4,7.4,5.4,11.4c0.6,1.6,1.7,3.2,0.6,5.1
		c-4.4-0.5-8.5,1.6-12.9,1c-4.7-7.4-8.1-15.5-12.2-23.2c-1.4-2.7-0.1-5.7,0.6-8.6c2.6-10-3.1-19.5-13.3-21.6
		c-5.4-1.1-10.7-1.8-16.4-1.1c-8.1,1-16.1-1.9-24.1-3c-14.1-1.8-25.2,3.1-34.1,14.2c-6.6,8.3-9.3,17.8-10.2,27.9
		c-0.5,5.8,2,11.2,4.7,16.1c3.2,5.7,7.3,10.7,13.2,14C536.8,416.9,539,417.4,539.2,419.8z"/>
	<path d="M628,365.3c0-2.3,0-4.6,0-6.9c4.9-1.7,10-1.2,15-1.7c8.3-0.8,16.7,0.2,23.9,5.5c0.7,0.5,1.7,1.6,3,1
		c3.5,7.8,3.5,15.6,0.2,23.4c-1.5-0.7-2-2.1-2.2-3.6c-2.2-15.4-10.2-18.5-27.5-18.1C636.2,365.1,632.1,367.3,628,365.3z"/>
	<path class="st1" d="M721.5,474.7c3.6,11.7,7.3,23.4,10.9,35.1c2.2,7.3,4.4,14.7,6.7,22.5c-21,2.3-41.7-1.2-62.3-0.2
		c-5.7-0.8-11.3,0.1-17,0c-21.3-0.2-42.5,0.9-63.8,1.5c-4,0.1-8,1.3-12.1,0.9c-8.6-0.8-11.1-4.3-9.4-12.6
		c4.4-22.4,18.5-35.1,40.3-39.8c18.8-4,37.7-6.4,57-7.3c14.3-0.7,28.6-0.1,42.8-1.7C717,473,719.6,472.8,721.5,474.7z"/>
	<path class="st2" d="M679.8,399.3c0.7-4.6,1.4-9.2,3.7-13.3c3.7-6.6,3.5-13-0.2-19.6c-2.2-4-4.7-8-3.1-13.1
		c2.4-7.9,8.7-11.2,15.8-12.3c11.3-1.8,22.2-5.1,32.5-9.7c8.1-3.6,16-4,23.7-1c15.5,6,27.3,16.2,32.9,32.5
		c4.5,13.1,0.4,24.6-7.7,34.9c-6,7.7-13.8,11.9-23.8,11.4c-3.5-0.2-6.3,2.3-9.5,3c-8.7-0.1-17.5-0.2-26.2-0.3
		c-4.1-0.8-6.8-3.3-8.7-6.9c-1.2,0.8-1,2.5-2.2,3.1c-4.9-2.1-9.6-4.4-14.8-6C688.1,400.8,683.9,400.4,679.8,399.3z"/>
	<path class="st2" d="M539.2,419.8c-12.2-5.9-19.4-15.6-22.9-28.6c-1.3-4.6-0.2-8.8,0.6-12.8c3.5-16.6,12.2-29.5,29.1-35.1
		c6.5-2.2,13.2-1.6,20-0.4c8,1.5,15.7,3.2,24.2,2c14.4-2.1,24.4,5.3,27.6,18.2c0.8,3.2-0.8,5.7-1.7,8.2c-1.4,4.2-0.1,7.4,2,10.8
		c3.5,6.1,7.2,12.1,8.9,19.1c-7.7,2.2-15.5,3.8-23.2,6.5c-4.4,1.6-7,4.4-9.9,7.1c-5,4.4-11.1,3.5-16.8,4c-8.2,0.7-16.6,0.3-24.9,0.1
		C547.7,418.7,543.5,419.6,539.2,419.8z"/>
	<path class="st1" d="M579.2,428.8c10.9-1.7,22-0.4,32.9-1.3c19.1-1.6,38.3,0.3,57.3-1c18.2-1.3,36.3-0.2,54.4-0.8
		c5.2-0.2,10.3,0.7,15.4,1c4,0.2,4.5,3.7,4.7,6.3c0.7,9.1-2.2,17.4-7.8,24.6c-2.3,2.9-5.8,2.8-9,2.3c-7.3-1.2-14.7-1.2-22.1-2
		c-10.8-0.8-21.7-1.5-32.5-2.1c-15.7-0.9-31.4-3.1-47.2-2.9c-17,0.2-34.1,1.3-51.1,2.5c-5.5,0.4-11.1,0.5-16.4-1.6
		c-6-2.4-9.1-6.8-8.5-12.2c0.6-6,4.8-9.7,11.2-11C566.9,429.4,573,429.5,579.2,428.8z"/>
	<path class="st3" d="M721.5,474.7c-20.2,0.6-40.5,0.7-60.6,2c-16.7,1.1-33.5,3-49.5,7.8c-23.3,7-31.1,17.2-36.1,40.8
		c-0.7,3.4,0.5,5.8,4.2,6.9c3.5,1.1,7.1,1.1,10.6,0.8c28.3-2.4,56.7-1.8,85-1.8c0.6,0,1.1,0.5,1.7,0.8c-13.9,0.5-27.8,1-41.8,1.3
		c-17.9,0.3-35.8,1.6-53.7,2.9c-3.7,0.3-7.4,0.8-11.1,0.8c-2,0-2.4-0.4-2.2-2.8c1.3-17.9-0.6-35.4-5.6-52.6c-1.7-6-1.8-5.9,4.1-7.3
		c12.4-2.8,25.1-3.7,37.8-4.8c17.4-1.5,34.8-3.1,52.2-2.7c14.5,0.4,29,1.3,43.5,2.7c5.8,0.6,11.6,0.1,17.4,0.9
		C720.3,471,721.5,472,721.5,474.7z"/>
	<path class="st1" d="M700.3,549.7c5.5,0,11.1,0.5,16.6,0c9.2-0.9,17.9,1.8,26.7,3.3c4,0.7,6.7,3.2,6.4,7.7
		c-0.2,4.1-5.2,7.9-10.3,8.7c-14.3,2.5-28.7,1.8-43.1,1.9c-7.5,0-15,0.5-22.4-0.1c-20.6-1.6-41.2-0.4-61.8-1c-2.5-0.9-5.2,0-7.7-0.6
		c-2-0.4-3.8-1.2-4.4-3.3c-0.7-2.1,0.4-3.8,1.8-5.3c2.1-2.2,5-3,7.8-3.8c7.9-2.1,16-2.6,24.1-3.6c20.2-2.4,40.4-3.5,60.6-4.3
		C696.4,549.3,698.4,549,700.3,549.7z"/>
	<path class="st4" d="M834.8,557.7c-6.6,4.7-14.5,6-22,7.5c-6.2,1.3-12.5,2.5-19,2.5c-8.5-1.1-17-2.2-25.5-3.4c-4-0.6-4.4-4-4.4-6.9
		c0-2.6,2.6-2.4,4.6-2.8c2.7-0.5,5.6-0.8,7.1-4c0.6-1.4,2.5-1.4,4-2c9.3-3.3,18.5-7,28.1-9c8-1.7,16.2-4.6,24.6-0.7
		c4.7,2.2,6.4,6.4,7.5,10.7C840.5,553.3,837.7,555.6,834.8,557.7z"/>
	<path class="st1" d="M612.4,538.2c10.5-0.4,21.1-0.4,31.5-1.4c19.3-1.9,38.5-1.4,57.7-1.7c8.7-0.1,17.5,0.3,26.4,1.4
		c-1.5,3.5-2.4,7.1,0.5,11.2c-4.8,0.2-9-0.7-13.2-0.6c-12.2,0.1-24.2-1.4-36.4-1.3c-13.4,0.2-26.9,1-40.3,1.3
		c-11.6,0.2-23.2,0.9-34.8,1.9c-5,0.4-9.9,0.8-14.9,0.7c-1.1-0.7-2.2,0-3.3,0c-2.7-0.1-4.9-1.1-5.2-4c-0.3-2.7,1.8-4.2,4.2-4.4
		c3.3-0.4,6.6-1.2,10-1.3C600.6,539.9,606.5,539.1,612.4,538.2z"/>
	<path class="st3" d="M579.2,428.8c-6.2,0.9-12.4,1.6-18.5,2.8c-6.7,1.3-10,5.4-9.9,11.4c0.1,4.9,3.5,8.5,9.6,10.1
		c5.4,1.4,10.9,1.5,16.3,0.3c0.6-0.1,1.3-0.3,1.9-0.3c16.3-0.7,32.7-2.1,49-1.8c15.6,0.3,31.2,1.7,46.8,3.4c9.3,1.1,18.7,1.3,28,2.2
		c1,0.1,2,0,2.7,0.8c-20.1-0.7-40.2-1.4-60.3-0.7c-18.7,0.6-37.4,1.6-56.1,3c-11.2,0.8-22.3,2.8-33.5,3.7c-7.7,0.6-14.4-2-14.2-12.7
		c0.1-4-0.1-8,0.7-12.1c1-5,4.2-7.5,8.5-8.1C559.8,429.4,569.4,428.1,579.2,428.8z"/>
	<path class="st5" d="M628,365.3c4.1-0.6,8.1-1.3,12.2-1.7c7.6-0.7,15.1,0.2,21.6,4.1c4.6,2.8,6.2,8.3,7.1,13.5
		c0.3,1.9,0.9,3.7,1.2,5.5c-0.4,2.3-0.8,4.6-1.2,6.9c-5.4,4-11.5,6.2-18.2,5.8c-3.8-0.2-7.2,1.6-11,1c-2-5.9-4.9-11.4-7.7-17
		C629.3,377.6,627.6,371.7,628,365.3z"/>
	<path class="st3" d="M700.3,549.7c-18.5,1.3-37,2.3-55.4,4.2c-11.6,1.2-23.4,1.7-34.8,4.7c-1.9,0.5-3.7,1.1-5.5,1.9
		c-2.2,1-4.1,2.9-3.7,5.2c0.4,2.3,3,3.2,5.3,3.6c2,0.4,4.2-0.7,6.1,0.9c-14.4,0.7-28.7,1.4-43.1,2.1c-3.3,0.2-6.8-0.6-7.5-4
		c-0.8-3.7,0.2-7.9,2.4-11c0.9-1.3,4.1-1.3,6.3-1.5c12.2-1.1,24.4-2.3,36.6-3c20.6-1.2,41.2-2.7,61.9-3.3c9.7-0.3,19.4-0.2,29.1-0.6
		C698.8,548.9,699.6,549.4,700.3,549.7z"/>
	<path class="st6" d="M840.8,532.4c9.1,3,12.5,10.4,13.5,18.9c0.7,5.9-3.2,9.9-7.8,13.3c-11.6,8.6-25,11.3-38.8,12.7
		c-12.9,0.8-25.6-0.9-38.1-4c-1.9-0.5-3.7-1.1-4.8-3c-0.4-1.9-0.1-3.1,2.4-2.7c6.8,1,13.7,1.4,20.3,2.9c7,1.6,13.8,0.7,20.6-0.2
		c8.6-1.2,17.3-2.6,25.2-6.8c1.1-0.6,2.2-1.3,3.3-2c4.7-3.1,9.3-6.4,8.1-13c-1.2-6.7-5.8-10.7-11.9-13.3c-9.6-4-18.9-1-28,1.5
		c-9,2.5-17.9,5.5-26.8,8.4c-1.1,0.4-2,1-3.2,0.8c-1.8-0.4-3.2-1.2-3.9-3c-0.8-2.2,1.1-3,2.3-3.6c4.7-2.3,9.6-4.1,14.8-5.1
		c0.2,2.8-2.1,2.6-3.1,3c12-3.1,24.9-6.1,38.2-6.1c4.9,0,9.6,1.1,14.1,3.4c9.7,5,14.6,14.7,9,25.2c4.3-2.9,5.8-6.5,4.7-11.8
		c-1-4.5-3.6-8-6.9-10.9C842.5,535.7,840.5,534.8,840.8,532.4z"/>
	<path class="st5" d="M604.5,417.9c13.3-11,78-14.5,94.1-5.4c-2.5,2-5.5,1.5-8.4,1.6c-17.1,0.5-34.2,1.6-51.3,2.1
		C627.7,416.6,616.5,418.2,604.5,417.9z"/>
	<path class="st7" d="M769.2,549.7c-8.2,0.2-15.1-1.5-22-2.3c-3.5-0.4-6.9-1.6-10.3-2.4c-1.7-0.4-3-1.4-3.4-3.1
		c-0.4-2.1,1.5-2.6,2.9-3.4c5.9-3,12.4-3.2,18.7-4.3c3.3-0.6,6.6-2.1,9.8,0.1c1.6,1.1,3.6,2.4,2.1,4.7
		C764.6,542.8,766.1,545.7,769.2,549.7z"/>
	<path class="st8" d="M840.8,532.4c3.1,3.2,7.1,5.5,9.3,9.6c3.7,6.6,4.4,16.7-6,20.8c-0.9-1.4,0.2-2.6,0.8-3.6
		c7.7-12.8-3.1-23.5-14.2-26c-11.3-2.6-22.4,0.2-33.4,2.2c-5.5,1-10.9,2.3-16.8,3.6c2.3-2.6,5.7-2.6,7.4-5c2.1-1.4,4.4-2,6.9-1.9
		c7.4-2.2,15-3.3,22.6-4.5c4.2-0.7,8.3-0.1,12.4,0.7C833.5,529.7,837.1,531,840.8,532.4z"/>
	<path class="st3" d="M612.4,538.2c-6.2,2.4-12.9,1.7-19.3,2.8c-2.7,0.5-5.4,0.6-8.1,1.2c-1.6,0.4-3.7,0.9-3.8,3.2
		c-0.1,2.3,2.1,2.6,3.6,3.3c1.3,0.6,3-0.3,4.1,1c-6.7,2-13.8,0.8-20.6,2.1c-2.5,0.5-3-1.2-2.8-3.3c0.6-6.6,0.6-7.1,11.1-8.2
		C588.5,539.1,600.4,538.9,612.4,538.2z"/>
	<path class="st7" d="M764.8,570.2c13.9,4.8,28.3,6.3,42.9,7c-5.7,1.9-11.5,1-17.2,0.7c-7.6-0.4-15.2-1.8-22.8-2.8
		C764.7,574.8,762.4,573.8,764.8,570.2z"/>
	<path class="st9" d="M829.9,528.3c-10.7-0.4-21.3,0.9-31.7,3.6c-1.1,0.3-2.3,0.2-3.4,0.2c6.2-3.2,13.1-3.4,19.8-4.9
		C819.9,526.2,825,525.8,829.9,528.3z"/>
	<path class="st0" d="M707,408.2c-0.3-2,0.9-3.6,1.5-5.9c2.4,4.3,5.4,7.5,9.3,9.8C713.5,412.8,710,411.3,707,408.2z"/>
	<path class="st9" d="M719.7,486.5c3.2,6.5,4.2,12.4,5.6,18.1c1.8,7.2,4.4,14.1,7.1,21c0.7,1.9,1.2,3.1-0.5,4.7
		c-1.5,1.4-2.6,0.7-4.3,0.2c-7.6-2.6-7.4-9.6-7.9-15.4C719.2,506,719.7,496.9,719.7,486.5z"/>
	<path class="st9" d="M622,429.6c15.9,0.8,30.9-1.5,46-0.9c19.5,0.8,38.9-0.8,58.4-1.2c11.8-0.3,15.1,7.9,11,17.8
		c-0.4,0.9-0.8,1.7-1.4,2.9c-7.9-6.5-16.6-11.2-26.7-13.1c-4.3-0.8-8.7-1.2-12.8-1.3c-17.4-0.1-34.7-1.3-52-1.5
		c-6.9-0.1-14.1,0.4-21-1.7C623.1,430.5,622.9,430.3,622,429.6z"/>
	<path class="st9" d="M663.8,538.7c19.3-2.1,38.6-2.4,57.7,2.3C702.2,540.1,683,539.6,663.8,538.7z"/>
</g>
</svg>
