<?xml version="1.0" encoding="utf-8"?>
<!-- Generator: Adobe Illustrator 23.0.1, SVG Export Plug-In . SVG Version: 6.00 Build 0)  -->
<svg version="1.1" id="Layer_4" xmlns="http://www.w3.org/2000/svg" xmlns:xlink="http://www.w3.org/1999/xlink" x="0px" y="0px"
	 viewBox="0 0 1000 1000" style="enable-background:new 0 0 1000 1000;" xml:space="preserve">
<style type="text/css">
	.st0{fill:#6E3720;}
	.st1{fill:#FB9A7A;}
	.st2{fill:#E00000;}
	.st3{fill:#7F0000;}
	.st4{fill:#CBB89A;}
	.st5{fill:none;}
	.st6{fill:#7898AB;}
	.st7{fill:#2B5260;}
	.st8{fill:#B2F6F4;}
	.st9{fill:#FEFEFE;}
</style>
<g>
	<path d="M814.2,550.5c-2.6-19.6-19.2-25.9-35.8-23.7c-8.6,1.2-16.5,4.8-24.6,7.5c-1.6,0.5-2.5,1-3.7-0.5c-2.8-3.3-6.9-3.6-10.2-2.2
		c-4.1,1.7-4.8-0.6-5.5-3.1c-4.1-14.5-8.1-29-11-43.8c-0.6-3.2,0.4-4.1,2.7-4.1c5.1-0.1,7.8-3.3,9.8-7.2c4.8-9,6.3-18.8,6.3-28.9
		c1.3-3.3-0.5-6.3-1.2-9.3c0,0,0,0,0,0c0-0.1-0.1-0.2-0.2-0.3c-3-5.5-8-7.7-13.9-8.3c-2.7-0.3-5.5-0.1-8.2-0.1c-0.2,0-0.4,0-0.7,0
		c-0.3,0-0.5,0-0.7,0c-0.9,0-1.8,0-2.7,0c-0.2,0-0.4,0-0.6,0c-0.1,0-0.2,0-0.3,0c-3.4-0.1-6.9,0.7-9.8-2c-3.9-3.6-8.8-5.6-13.8-7.5
		c-0.1,0-0.1,0-0.2-0.1c-0.1,0-0.1,0-0.2,0c-4.4-1-10.1-0.4-9.9-7.5c-0.1,0-0.1-0.1-0.2-0.1c0,0,0,0,0,0c0,0,0,0,0,0
		c-0.4-0.1-0.8-0.1-1.1,0.1c-2,1.7-3.3,4.5-6.6,4.5c-6.6,0.1-13.1,2-19.7,2.4h0c-0.1,0-0.2,0-0.3,0.1c-3.5,0.7-7,1.2-10.5,1.7
		c-0.1,0-0.1,0-0.2,0c-0.1,0-0.2,0-0.3,0.1c-4.5,0.8-8.8,2.1-13,3.9c-3.6,1.5-6.5,5.2-11.1,4c-0.7-0.2-1.2,0.5-1.4,1.1
		c-1.4,5.7-6.3,5-10.2,5.2c-7.1,0.4-14.3-0.1-21.4,0.2c-7.6,0.3-12.3,3.8-14.6,10.5c-0.1,0.3-0.2,0.6-0.3,0.9
		c-0.1,0.2-0.1,0.4-0.2,0.6c-0.8,3.4-1.6,6.7,0.5,9.9c0,2.4-0.3,5,0.2,7.3c1.6,8.6,2.1,17.9,12.5,21.3c1.5,0.5,1.8,1.6,2.3,3
		c4.5,11.8,4.6,24.3,5.5,36.6c1,14.1-1.6,28-5,41.6c-2.1,8.6,2.5,15,11.1,15.1c16.1,0.2,32.2-1.2,48.4-1.8c11-0.4,22,0,33,0.6
		c14.9,0.9,29.9,0.5,44.9,0.1c5.6-0.1,11.4-0.4,16.7-3c0.8-0.4,1.3-0.8,2.5-0.4c5.5,1.8,11.3,2.7,17.1,3.6
		c16.8,2.8,32.2-0.8,46.5-9.2C811.6,565.2,815.3,558,814.2,550.5z M750.2,553.7c9.9-8.7,22.5-10.7,34.6-13.8
		c5.6-1.5,12.2,2.3,14.1,8c1.3,3.8-0.3,8.7-3.5,10.7c-8.5,5.2-18.1,7-28.7,8c-5.7-0.9-12.3-1.9-18.8-3.2c-2.4-0.5-3.7-2.5-3.8-5.3
		c-0.1-3,1.5-3.5,4-3.5C748.8,554.6,749.6,554.2,750.2,553.7z"/>
	<path class="st0" d="M689.6,417.9c-1.1-0.3-2.1-0.6-3.2-0.8c-7-1.2-7-1.2-6.6-7.9c-0.7-2.5,0.3-4.8,0.9-7.1
		c1.5-5.5,1.8-10.8-0.3-16.2c-0.7-1.9-1.4-4.1,0.3-6c-5.5-14.8,5.6-31,20.8-34.8c10.5-2.6,20.3-6.6,30.4-10.1
		c15.3-5.3,28.7-2.2,41.2,7.8c9.9,7.9,18,16.8,21.2,29.2c5.3,20.7,2.3,39.8-13.3,55.5c-4.5,4.5-9.6,8.8-16.2,10.5
		c-0.8,0.2-1.6,0.7-2.3,0.5c-8-2.4-13.7,3.3-20.2,6c-0.6-3-2.1-5.8-2-9c4.1-4.6,9.6-7.3,15.3-7.6c15.9-1,22.7-11.8,27.7-24.5
		c8.8-22.5-9.8-54.9-34.3-59.4c-3-0.6-5.8-0.4-8.6,0.7c-11.2,4.4-22.3,8.9-34.1,11.8c-6.2,1.5-11.9,4.5-15,10.8
		c-2.3,4.6-1.6,9.1,0.5,13.2c4,7.4,4,14.9,1.7,22.7C692.2,407.9,692.7,413.4,689.6,417.9z"/>
	<path class="st0" d="M652.4,417.1c-3.6,1-7.1,1.9-10.9,1.7c-4.3-8-8.6-16-11.5-24.5c-1.1-3.3,0.4-6.7,1-10.1
		c1.8-11.2-3.2-19.1-14.2-21.9c-4.6-1.2-9.1-2-13.9-0.9c-4.4,0.9-8.8-0.5-13-1.6c-22.9-6-35.9,5.2-43.2,21.8
		c-6.1,13.9-7.2,28.1,0.1,42.3c4.1,7.9,11.3,11.8,18.2,16.4c1.9,1.2,4.2,1.8,5.3,4.1c-1.6,3.2-0.5,6.7-1,10
		c-8.7-1.1-14.8-6.9-21.1-12.1c-8.1-6.8-14.2-15.2-17.4-25.3c-3.4-10.4-2.7-21.1,0.8-31.3c3.3-9.6,8.6-18.5,15.8-25.7
		c12.3-12.4,27.1-17.2,44.4-11.7c5.2,1.6,10.4,2.9,15.9,2.6c19.1-1.1,29.6,4.5,35.1,23.3c1.5,1.9,1.3,4.2,1.1,6.4
		c-2.2,8.4,0.5,16.1,4,23.5C649.7,408.2,652.1,412.3,652.4,417.1z"/>
	<path d="M642.6,380.9c0-2.3,0-4.6,0-6.9c13.4-3.1,26.3-2.7,38,5.9c0.1,1.6,0.2,3.2,0.8,4.7c3.5,8.5,1.4,16.6-1.8,24.6c0,0,0,0,0,0
		c-2.3-3.3-1.7-7.2-2.1-10.8c-1.7-14-11.8-18.7-24.6-17.8C649.5,380.9,646.1,382.6,642.6,380.9z"/>
	<path class="st1" d="M689.6,417.9c1.3-7.1,2.2-14.2,4-21.2c1.3-4.8,0.1-8.7-1.6-13c-1.9-4.5-4.2-8.8-2.7-14.2
		c2.5-9.5,10.1-12.9,18-14.8c10.7-2.6,21-6.1,30.8-10.7c9.7-4.5,17.8-0.6,24.8,3.9c15.6,10,24.1,25.2,24,43.7
		c-0.1,13.2-6.3,24.6-16.9,33.2c-2.9,2.3-6.6,3.3-9.8,3.4c-7.5,0.2-13.3,4.4-19.8,7.1c-5.2-8.1-13.4-7.8-21.5-7.8
		c-2.1-1.8-2.1-1.8-3.3-4.5c-0.4,1.7-0.3,3.5-1.8,4.5c-4.7,0.5-8.7,0.1-12.6-3.8C698.3,420.8,693.5,419.8,689.6,417.9z"/>
	<path class="st1" d="M570.2,444.2c-7.9-3-14.8-8-20.7-13.7c-4.9-4.8-7.2-11.8-8.3-18.6c-2.1-12.4,0.3-24.2,6.5-35.1
		c3.4-6.1,7.2-11.8,13.6-15.3c9.9-5.6,20-5.6,30.6-2.6c4.4,1.2,8.8,1.9,13.7,0.8c13.3-3,27.6,8.3,27.2,20.9c-0.1,1.7-0.4,3.5-1,5.2
		c-2.6,7.6,1.1,13.6,4.5,19.8c2.3,4.2,4.3,8.6,5.2,13.4c-7.8,2.2-15.6,4.2-21.9,9.7c-0.6,0.5-0.8,0.3-2.7-1.7
		c-0.8,5.8-1.9,6.6-10.9,6.7c-7.5,0.1-15,0-22.4,0C576.5,433.7,571.5,437.7,570.2,444.2z"/>
	<path class="st2" d="M712,483.3c4.2,16.1,8.4,32.2,12.5,48.3c0.4,1.6,0.5,3.1-2.3,3.8c-4.5,1.1-9.1,1.3-13.4,0.6
		c-7.1-1.1-14.2-0.3-21.3-0.9c-17.7-0.7-35.3-0.8-53,0.2c-7.9,0.5-15.9,0.6-23.8,1.2c-5.3,0.4-7.7-2.3-7.5-7.3
		c0.5-11.2,3.7-21.4,11.9-29.6c4.8-4.7,10.4-7.8,16.9-9.1c16.1-3.1,32.2-6.3,48.7-6.8c8.1-0.2,16.2-0.2,24.3-1.5
		C707.4,481.8,709.9,481.7,712,483.3z"/>
	<path class="st2" d="M605.5,442.5c4.1-1.4,8.3-0.9,12.5-1.1c18.5-1,37-0.2,55.5-1.2c15.3-0.8,30.5-0.3,45.7-0.7
		c8.7-0.2,11.4,3.6,9.7,12.1c-1.1,5.2-2.3,10.2-4.6,15.1c-1.7,3.7-4.4,4.8-7.8,3.9c-6.6-1.7-13.6,0-20.1-2
		c-18.4-2.2-36.8-3.4-55.3-4.2c-11.9-0.5-23.7,1.4-35.5,2.4c-3.9,0.4-7.8,0.4-11.6-0.8c-5.8-1.8-9.2-5.7-9.2-10.6
		c0.1-5,4.3-10.1,9.6-11.6C598.1,442.8,601.9,443.2,605.5,442.5z"/>
	<path class="st3" d="M712,483.3c-13.7,0.7-27.5,1.3-41.2,2.3c-14.1,1-28.1,3.5-41.8,7.1c-12.2,3.3-22.7,16.8-23.5,29.4
		c-0.2,2.8-1.3,5.3-1.1,8.2c0.2,3.1,1.6,5.2,4.7,4.8c8.8-1.2,17.7-1,26.6-1.5c12.6-0.7,25.3-1.3,37.9,0.5c4.6,0.7,9.4-1,13.9,1
		c-12.5-0.2-24.9,1-37.4,1.3c-16.3,0.4-32.5,2.1-48.7,3.4c-2.3,0.2-2.8,0-2.5-2.4c1.5-10.3,0.4-20.6-0.9-30.9
		c-0.9-6.9-2.6-13.6-4-20.3c-0.4-2.1,0.3-2.5,2.1-2.7c17.5-2.3,35-5,52.7-6.1c17.1-1.1,33.8,0.4,50.6,2.1c3.4,0.3,6.7,0.5,10.1,1
		C711.7,480.7,711.9,481.7,712,483.3z"/>
	<path class="st2" d="M696.4,550.7c4.5,0,9.2,0.6,13.6,0c7.2-0.9,13.5,2.1,20.3,3.2c2.5,0.4,3.3,3.1,3,5.4c-0.4,3.5-1.3,7.3-5.5,8
		c-5.2,0.9-10.4,1.8-15.7,1.9c-11.7,0.3-23.5,0.8-35.1-0.1c-15.4-1.2-30.8-0.3-46.1-0.9c-0.5-0.2-0.9-0.3-1.4-0.4
		c-2.4-0.1-5.3,0-5.9-3.1c-0.6-3.1,1.6-5.1,4.2-6.5c5.7-3,12-3.9,18.3-4.7c15.6-2,31.3-2.4,47-3.4
		C694.1,550.3,695.3,550.1,696.4,550.7z"/>
	<path class="st4" d="M642.6,380.9c3.4-0.6,6.8-1.5,10.2-1.7c12.5-0.8,24.2,3.3,25.9,18.6c0.4,3.8,1,7.6,0.9,11.5
		c-2.6,8-10.1,5.2-15.5,6.7c-3.8,1-7.9,0.9-11.8,1.3c-4.4-10.3-10.8-19.9-10.8-31.7C641.6,383.9,641.6,382.3,642.6,380.9z"/>
	<path class="st5" d="M795.3,558.5c-8.5,5.2-18.1,7-28.7,8c-5.7-0.9-12.3-1.9-18.8-3.2c-2.4-0.5-3.7-2.5-3.8-5.3
		c-0.1-3,1.5-3.5,4-3.5c0.7,0,1.5-0.5,2.1-1c9.9-8.7,22.5-10.7,34.6-13.8c5.6-1.5,12.2,2.3,14.1,8
		C800.1,551.6,798.5,556.5,795.3,558.5z"/>
	<path class="st2" d="M631.9,540.2c14.1-1.6,28.4-1.4,42.5-1.9c14-0.5,28.1-1.3,42.5,1.1c-1.5,3.2-1.5,6.1,1.2,9.5
		c-8.6-0.4-16.4-0.5-24.1-1.3c-7.9-0.8-15.7-1.1-23.6,0.1c-4.9,0.7-9.9,0.5-14.9,1c-12.7,1.2-25.4,1.6-38.1,2.3
		c-5.7,0.7-9-0.6-9.4-3.6c-0.3-2.8,2.7-4.7,8.1-5.3C621.3,541.5,626.6,540.6,631.9,540.2z"/>
	<path class="st3" d="M605.5,442.5c-3.9,1-7.8,1.7-11.6,2.9c-4.7,1.5-8.2,6.5-8,10.6c0.3,4.5,3.3,7.2,8.9,8.9
		c7,2.2,13.8-0.1,20.7-0.5c12.4-0.6,24.7-2.3,37.2-0.9c8.6,1,17.4,1.5,26.1,2.3c5.9,0.5,11.9,0.6,17.5,2.7
		c-12.4-1.1-24.9-1.3-37.3-0.7c-16.1,0.8-32.2,1-48.1,3.6c-7.1,1.1-14.3,1.8-21.4,3c-5.1,0.9-9.4-3.6-10.2-10.3
		c-0.7-5.2,0.3-10.3,1.2-15.4c0.7-3.7,4-4.7,7.2-5.4C593.6,442.1,599.5,442.3,605.5,442.5z"/>
	<path class="st6" d="M808.6,546.8c3.3,8.4,0.4,15.4-7.2,19.7c-17.5,10-35.8,10.3-54.8,5.6c-4.1-1-2.8-3.5-2.3-5.4
		c0.7-3,2.8-0.4,3.7-0.1c16.7,4.2,32.8,4.4,47.9-5.5c4.2-2.8,8.2-6.2,7.5-11.3c-0.9-6.4-5.6-10.5-11.8-12.6
		c-7.6-2.6-14.4,0.7-21.4,2.7c-5.3,1.5-10.5,3.8-15.5,6.2c-2.5,1.2-4.3,0.9-5.2-1.3c-0.9-1.9,0.4-3.7,2.2-4.6
		c6.6-3.6,13.7-6,20.9-7.9c3.1-0.8,6.3-1.3,9.5-1c-0.1,2.6-2.4,2.2-3.9,2.6c-5.9,1.6-12.1,2.4-16.7,4.6c7.7-2.6,16.6-4.2,25.8-4.6
		c12.4-0.5,23.4,12.8,18.1,24.5C808.8,555.4,805.9,550.3,808.6,546.8z"/>
	<path class="st3" d="M696.4,550.7c-19.7,2.1-39.6,1.9-59.1,6c-3,0.6-5.9,1.7-8.8,2.7c-2.4,0.8-4.1,2.7-4.1,5
		c0.1,2.5,2.7,2.7,4.8,3.1c0.6,0.1,1.1,0.5,1.7,0.8c-9.8,0.7-19.6,1.4-29.5,2.1c-2.7,0.2-6.1-0.1-6.4-3c-0.4-3.7-0.7-8.4,2.3-10.9
		c2.1-1.8,6.1-1.4,9.3-1.7c17.2-1.4,34.4-3.1,51.6-3.7c11.8-0.4,23.6-1.9,35.5-1.2C694.7,549.9,695.7,549.8,696.4,550.7z"/>
	<path class="st4" d="M625.9,432.6c13.1-10.5,57.1-13.1,70.8-4.1C672.7,428.6,649.8,433,625.9,432.6z"/>
	<path class="st7" d="M740.8,535.8c2.3,0.2,4.4,0.8,5.7,2.5c1.5,2-0.5,3.2-1.6,4.5c-1.9,2.2,0.3,3.5,1.1,5c1.3,2.3,0.6,3.5-1.9,2.9
		c-6.5-1.5-13.3-1.7-19.7-4c-1.4-0.5-3.6-0.8-3.5-2.8c0.1-2,1.4-3.7,3.5-4.2C729.9,538.3,735.3,537.1,740.8,535.8z"/>
	<path class="st8" d="M808.6,546.8c-0.1,5.7,1.2,11.8-5.7,15.2c0.6-4.6,3.9-8.4,2.3-13.2c-4.3-12.8-12.5-15-25.7-13.2
		c-4,0.5-7.9,1.4-11.8,2.4c-3.7,0.9-7.3,2-11.2,2.6c4.1-3.6,9.1-5.2,14.2-6.4c3.8-0.9,7.8-1.3,11.4-3
		C792.9,528.1,807.5,535.3,808.6,546.8z"/>
	<path class="st3" d="M631.9,540.2c-5.4,0.9-10.7,1.8-16.1,2.8c-2.8,0.5-7,0.5-6.9,3.9c0.1,3.5,4.1,3.9,7.3,3.9c0.3,0,0.6,0.1,1,0.1
		c-3.3,1.8-6.9,0.4-10.4,0.8c-0.8,0.1-1.6,0-2.4,0c-2.1,0.2-5,2.4-6.2,0.1c-1-1.9,0-5,0.5-7.4c0.5-2.5,3.4-2.2,4.8-2.2
		C613.1,542,622.4,539.7,631.9,540.2z"/>
	<path class="st0" d="M713.8,427.6c-0.1-2.2,0.7-4.2,1.6-6.4c1.3,2.3,2.4,4.3,3.5,6.4C717.2,427.6,715.5,427.6,713.8,427.6z"/>
	<path class="st9" d="M711.3,495.7c2.3,9.1,4.2,18.1,7.4,26.8c0.9,2.5,2,5,2.8,7.5c0.4,1.2,0.5,2.6-0.7,3.6
		c-1.2,0.9-2.4,0.8-3.7,0.3c-3.6-1.3-4.7-4.2-5.3-7.7C710.2,516,711.3,505.9,711.3,495.7z"/>
	<path class="st9" d="M723,460.1c-9-12.1-22.3-12.1-35.1-12.8c-11-0.5-22-0.8-32.9-1.4c-5.8-0.3-12.2,0.8-18.8-2.8
		c10.9,1.1,20.7-1,30.5-0.7c15.6,0.5,31.1-0.9,46.6-1.1c9.7-0.1,14.3,2.7,11.3,14.4C724.2,457,723.7,458.3,723,460.1z"/>
	<path class="st9" d="M669.7,540.6c13.3-0.3,26.8-1.4,40.3,0.4c0.7,0.1,1.8-0.1,1.7,1c-0.1,1-0.9,1.9-1.9,1.8
		c-1.9-0.1-3.7-0.7-5.6-0.9C692.7,542.2,681.2,541.4,669.7,540.6z"/>
</g>
</svg>
