<?xml version="1.0" encoding="utf-8"?>
<!-- Generator: Adobe Illustrator 23.0.1, SVG Export Plug-In . SVG Version: 6.00 Build 0)  -->
<svg version="1.1" id="Layer_4" xmlns="http://www.w3.org/2000/svg" xmlns:xlink="http://www.w3.org/1999/xlink" x="0px" y="0px"
	 viewBox="0 0 1000 1000" style="enable-background:new 0 0 1000 1000;" xml:space="preserve">
<style type="text/css">
	.st0{fill:#6E3720;}
	.st1{fill:#E00000;}
	.st2{fill:#7F0000;}
	.st3{fill:#CBB89A;}
	.st4{fill:none;}
	.st5{fill:#7A99AC;}
	.st6{fill:#B3F7F5;}
	.st7{fill:#2B5260;}
	.st8{fill:#FB9A7A;}
	.st9{fill:#FEFEFE;}
</style>
<g>
	<path d="M802.3,533.3c-5.1-7.5-19-10-27-8.4c-8.2,1.6-15.7,5.1-23.3,8.3c-1.3,0.6-2.5,1.5-3.7-0.2c-2.8-4.1-7.1-4.1-11.3-3.6
		c-2.3,0.3-3.1-0.3-3.7-2.4c-3.5-14.8-7.1-29.6-10.8-44.4c-0.8-3.1-0.7-4.9,3.1-5.1c3.1-0.2,5-2.3,6.7-4.8
		c7.7-11.3,8.9-23.8,6.8-36.8c-1.3-8.2-6-12-14.3-12c-5.5,0-11.1,0-16.6,0c-1.5,0-2.8,0.1-4-1.2c-6.2-6.9-14.5-9.9-23.3-11.5
		c-4.6-0.8-6-3.3-6.3-7.9c-0.7-9-2.4-17.9-3.6-26.8c-0.1-1.1-1-2.6,0.8-3.4c2-3.3,2.1-6.9,1.4-10.5c-0.1-0.1-0.3-0.2-0.4-0.3v0
		c-1-0.5-1.9,0-2.7,0.6c-5.8,4.6-12.5,5.7-19.6,5.9c-1.3,0-2.6,0-3.7,0.8c-0.1,0.1-0.3,0.2-0.4,0.3c-0.1,0.1-0.2,0.2-0.3,0.3
		c-1,2.4-0.2,4.4,1.4,6.2c0,0,0,0,0.1,0c0.1,0,0.1,0.1,0.2,0.1c3.5,1.5,7.2,0.9,10.7,0.3c3.1-0.5,4.6,0.8,4.9,3.8
		c0.8,8.5,1.8,17.1,2.7,25.6c0.3,2.4-0.8,3.7-3.1,4.1c-2.7,0.5-5.5,0.6-8.2,1.1c-6.8,1.1-7.4,0.5-7.8-6.5
		c-0.3-5.2,0.6-10.4-0.7-15.5c-0.3,0-0.5-0.1-0.8,0c-0.2,0-0.4,0-0.6,0c-2.7,0.4-5.2,3.2-6.2,7.2c0.4,2.2,0.3,4.3,0.9,6.6
		c2.2,8.3,0.2,12-7.4,15.7c-1.9,0.9-3.6,1.9-5.1,3.5c-5.2,5.5-11.6,7.8-19.2,7.4c-5.5-0.3-11.1-0.1-16.6,0
		c-8.1,0.1-11.3,2.4-13,10.2c-2,9-1.4,18.1,0.5,27.1c1.3,6,4,10.7,10,12.7c2.3,0.8,2.6,2.8,3,4.4c2.5,12.1,4.3,24.4,5,36.8
		c0.8,14.6-2.1,28.9-5,43.1c-1.8,9.1,2.4,15.1,11.5,15.2c14.8,0,29.6-1.2,44.4-1.8c12-0.5,23.9,0.1,35.9,0.7
		c12,0.6,24.1,0.2,36.1,0.1c6.1,0,12-0.7,17.6-3.3c0.9-0.4,1.8-0.8,2.7-0.4c4,1.7,8.3,1.9,12.3,3c10.6,2.9,21,1.8,31.2-0.5
		c8.3-1.8,16.3-5.6,20.9-13C810.8,553.4,810.5,545.5,802.3,533.3z M742.3,554.2c6,0.1,8.1-5.9,13.1-7.6c7.6-2.6,14.8-6.7,22.8-8.5
		c7-1.6,13.1,1.2,15.6,7.2c2.4,5.9,0.2,10.2-6.8,14.3c-7.2,4.2-15.2,4.8-22.1,5.9c-7.2,0-12.9-2.2-18.7-3.5
		c-2.3-0.5-3.6-2.4-4.6-4.5C740.9,556.1,741.2,554.2,742.3,554.2z"/>
	<path class="st0" d="M671.8,373.1c-0.1-3.6,0.2-7.3,1-10.8c-1.6-2.1-0.3-4.1,0.1-6.1c1.4-7.6,4.1-15.2,0.5-22.9
		c-0.5-1-0.5-2.2,0.3-3.2c-7.6-18.7,10.3-36.7,24.8-38.8c8.3-1.2,15.3-5.1,22.6-8.3c14.7-6.6,27.6-2.7,39.6,5.9
		c9,6.5,16.7,14.5,21.2,25c4.3,10,5.8,20.1,4.5,31.1c-1.4,11.6-5.6,21.7-12,31c-4.8,7.1-11.6,11.7-19.7,14.5c-2.6,0.9-4.6-1.5-7-0.6
		c-3.1,1.1-6.3,2-9.2,3.7c-5.8,3.5-11.9,4-18.2,1.2c-3.4-1.5-6.6-0.8-10,0.7c-6.7,2.8-13.6,4.1-20.9,2.2
		c-7.1-1.9-15.9-11.4-16.4-18.9C672.8,376.7,672.1,375,671.8,373.1z"/>
	<path class="st0" d="M646.5,370.1c0.3,2,0.7,3.9,1,5.9c2.4,4.8,1.6,9-2.1,12.7c-2.3,2.6-4.5,5.2-6.8,7.8
		c-8.3,4.4-16.8,7.4-26.4,4.9c-1.1-0.3-2.6-0.4-3.7,0.4c-9.1,6.8-18.9,6.1-29,3c-1.3-0.4-2.5-0.8-3.7-0.4c-12.2,4.6-21.6-0.4-30-8.8
		c-7.8-7.7-13.6-16.5-16.1-27.5c-1.8-7.9-1-15.7-0.1-23.4c1-9.4,2.7-18.8,7.9-27.1c6.3-10.1,14.4-18.4,26-22.2
		c6.9-2.3,14-2.2,21,0.3c8,2.8,16.3,2.9,24.6,3c8.1,0.1,15.9,1.7,21.3,8.7c3.6,4.6,5.3,10,6.4,15.6c1.6,1.9,1.3,4.2,1.1,6.5
		c-1.6,6.8-0.6,13.1,2.4,19.4c2.5,5.3,4.4,10.8,6.2,16.4C646.9,367,647.7,368.5,646.5,370.1z"/>
	<path d="M636.8,330.1c0-2.3,0-4.6,0-6.9c8.8-1.3,17.6-3.3,26.5-0.1c4.2,1.5,6.9,4.8,10.5,6.9c4.4,8.8,2.7,17.6,0.2,26.4
		c-2.3-2.6-2.1-6-2.6-9.1c-2.1-13.7-10-18.7-25.2-17.3C643.1,330.3,639.9,331.9,636.8,330.1z"/>
	<path class="st1" d="M711.8,480.6c3.9,15.4,7.8,30.9,11.7,46.3c1.5,6,0.5,7-5.8,7.3c-5.9,0.3-11.6-0.9-17.4-1
		c-6.2-0.1-12.4-0.1-18.5-0.2c-10.9-0.2-21.7,0-32.6,0.4c-10.5,0.4-21.1,0.9-31.6,2c-6.2,0.6-9.1-2.7-8.4-8.9c0.4-3.2,1-6.4,1.6-9.6
		c2.8-14.4,11.1-23.8,25.1-28.4c10.9-3.7,22.1-5.3,33.4-6.5c12.3-1.2,24.6-1.6,36.9-2.7C708.3,479.1,710.2,479.2,711.8,480.6z"/>
	<path class="st1" d="M624.1,437.6c15.5-0.9,31.1-0.8,46.6-1.3c14.7-0.5,29.5-0.8,44.2-0.8c2.4,0,4.7,0.1,7.1,0.8
		c4.9,1.5,7.3,3.9,6.4,8.8c-1,5.1-1.2,10.4-3.5,15.3c-3,6.4-3.8,7.6-10.4,6.1c-5.7-1.3-11.6-0.1-17.2-1.9c-13.5-2-27.1-2.1-40.6-3.4
		c-16-1.6-31.7,0.8-47.6,1.9c-3.1,0.2-6.2-0.1-9.1-1.2c-5.6-2.1-7.8-5.2-7.6-10.5c0.2-5.6,3.3-9.6,8.7-10.9
		C608.6,438.7,616.4,438.2,624.1,437.6z"/>
	<path class="st2" d="M711.8,480.6c-12.4,1-24.8,1.5-37.1,2.6c-8.7,0.7-17.4,1.5-25.9,3.3c-8.5,1.8-16.8,4.2-24.2,9.4
		c-7.3,5.2-10.1,12.8-12.2,20.8c-0.7,2.8-0.9,5.7-1.5,8.6c-1.6,7.2,0.6,9.7,7.9,9c13.2-1.4,26.4-2,39.7-1.9c6.7,0,13.3,0,20,0
		c1.1,0,2.3-0.2,3.2,0.8c-15.5,0.7-31,1-46.5,2.2c-8.3,0.6-16.7,0.8-24.9,2.6c-4.6,1-5.2,0.2-4.9-4.5c0.7-11.5-0.6-22.9-2.3-34.3
		c-0.8-5.4-2-10.7-3.1-16.1c-0.3-1.6-0.2-2.5,1.6-2.7c12-1.2,23.7-4.1,35.8-5c10.5-0.8,20.9-2.5,31.4-1.7c13.1,0.9,26.4,1,39.4,3.6
		C710.3,477.8,711.3,478.7,711.8,480.6z"/>
	<path class="st1" d="M697.4,549.7c5.4,0,10.7,0.5,16,0c5.7-0.5,10.7,1.7,15.8,3.4c2.2,0.7,3.4,2.5,3.2,4.8
		c-0.4,3.6-1.6,6.9-5.2,8.6c-2.6,1.2-5.4,1.9-8.3,1.9c-14.1,0-28.3,0.7-42.3-0.2c-12.6-0.9-25.2-0.5-37.8-0.6
		c-2.6,1-5.2,0.1-7.6-0.4c-3.9-0.8-4.9-4.2-2.3-7.4c2-2.5,4.9-3.6,7.9-4.5c8.6-2.7,17.5-3.5,26.3-4.1c10.1-0.7,20.3-2.1,30.5-1.7
		C694.8,549.4,696.1,549.1,697.4,549.7z"/>
	<path class="st3" d="M636.8,330.1c6.4-0.3,12.4-2.4,19.2-1.3c11.2,1.8,15.2,8.9,16.9,18.6c0.5,3,0.8,6,1.1,9
		c-0.4,2-0.8,3.9-1.2,5.9c-7.3,7.4-16.7,8.2-26.3,7.8c-2.5-7.9-5.3-15.6-8.6-23.2C635.6,341.6,634.5,335.9,636.8,330.1z"/>
	<path class="st4" d="M786.9,559.6c-7.2,4.2-15.2,4.8-22.1,5.9c-7.2,0-12.9-2.2-18.7-3.5c-2.3-0.5-3.6-2.4-4.6-4.5
		c-0.6-1.4-0.4-3.3,0.7-3.3c6,0.1,8.1-5.9,13.1-7.6c7.6-2.6,14.8-6.7,22.8-8.5c7-1.6,13.1,1.2,15.6,7.2
		C796.1,551.1,794,555.5,786.9,559.6z"/>
	<path class="st1" d="M644.6,538.2c18.2-1.4,36.5-2.2,54.7-2c4.6,0.1,9.2,0.9,13.8,1.6c1.4,0.2,3.4,0.1,2,2.9
		c-1.2,2.2,0.9,4.2,2,7.2c-7.4-1.7-14.4-0.5-21.3-1.3c-8.2-1-16.4-1.2-24.6,0.1c-5.4,0.9-11,0.6-16.4,0.8
		c-11.9,0.5-23.8,2.3-35.7,2.2c-2.6,0-5.2-0.5-5.3-3.6c-0.1-2.8,2.3-3.9,4.5-4.3c7.6-1.6,15.2-2.6,22.9-3.2
		C642.4,538.5,643.5,538.8,644.6,538.2z"/>
	<path class="st2" d="M624.1,437.6c-7.2,1.4-14.6,1.6-21.7,3.7c-5.2,1.6-8.1,4.5-8.6,9.2c-0.6,6.8,3.3,11.3,11.4,11.2
		c10.8-0.2,21.6-1.3,32.3-2.3c4.5-0.4,8.9-0.5,13.5,0.1c7,0.8,14.2,0.7,21.3,1.4c8.4,0.8,17,1,25.1,3.7c-5.7,1-11.3-0.8-16.9-0.9
		c-16.7-0.3-33.3,1-49.9,2.3c-10.3,0.8-20.8,1.6-31,4.5c-7.6,2.2-12.7-1.6-13.5-9.6c-0.5-5,0.3-10,1.2-14.9c0.9-4.3,4.8-5.9,8.4-6.2
		C605.1,438.9,614.5,437,624.1,437.6z"/>
	<path class="st3" d="M645.4,388.7c1.6-4.1,2.5-8.3,2.1-12.7c4.2-0.3,8.3,0.4,12.5-0.9c4.8-1.5,4.7,3,4.9,5.4
		c0.9,9.2,1.5,18.5,3,27.6c0.3,1.7,0.1,2.7-2.3,3.2c-5.8,1.3-11.7,0.9-17.4,2.7c-1.6,0.5-1.5-0.9-1.8-2.1
		C644.6,404.2,646,396.4,645.4,388.7z"/>
	<path class="st2" d="M697.4,549.7c-20.3,0.9-40.5,2.2-60.4,6.9c-3.9,0.9-8.6,2.4-8.5,6.6c0.1,4,5.4,2.9,8.3,4.1
		c0.6,0.2,1.3,0.1,1.9,0.2c-0.7,0.3-1.4,0.8-2.2,0.8c-9.9-0.1-19.7,0.3-29.6,1c-5.9,0.4-6.7-0.9-5.6-6.7c0.2-1.1,0-2.3,0.2-3.4
		c0.5-2.6,1.3-4.3,4.8-4.6c16.8-1.3,33.6-3.2,50.5-3.9c11.9-0.5,23.8-1.9,35.7-1.8C694.3,548.9,696,548.3,697.4,549.7z"/>
	<path class="st5" d="M742.2,568.3c-0.4-3.1,0.3-4.1,3.8-3c6.9,2.1,14,3.5,21.2,3c8.9-0.6,17.6-2.3,24.9-8.3
		c7.6-6.3,7.2-12.2,1.7-20.5c-0.8-1.2-1.9-2.2-2.8-3.3c2.3-1.4,3.7,0.5,4.9,1.8c5.7,5.8,5.9,12.6,3.8,19.3c2.4-3.4,0.6-8.4,3-12.4
		c3.7,9.4,0,18.3-9.3,23.7c-6.5,3.8-13.5,5.3-20.9,5.8c-8.7,0.8-17.2-0.6-25.5-3C745.2,570.8,743.2,570.2,742.2,568.3z"/>
	<path class="st3" d="M697.6,424.6c-23.1,0.2-45,4.5-67.2,4C637.2,418.9,684.5,415.7,697.6,424.6z"/>
	<path class="st6" d="M802.8,544.9c0.3,6.3-0.2,12.4-5.7,17.7c5.7-16.5,0.7-23.9-6.1-26.5c-1.6-0.6-3.2-1.3-4.9-1.9
		c-5.3-1.7-10.1,0.5-15.1,1.6c-4.6,1-8.9,2.8-13.4,4.2c-1.5,0.5-3.6,1.5-4.4-0.1c-1-2,1.6-2.3,2.7-3.3c0.6-0.5,1.3-1,1.9-1.5
		c7-3.4,14.5-5.7,21.9-6.2C790.7,528.2,799.4,531.3,802.8,544.9z"/>
	<path class="st7" d="M738.5,534.2c4.7-0.1,6.4,2,4.6,5.6c-1.4,2.8-0.8,4.8,0.9,7.1c1.2,1.5,1.4,3.3-1.4,2.8
		c-6.1-1.1-12.4-1.9-18.3-4c-1.8-0.6-4.1-1.4-4.3-3.5c-0.1-2,2-3.1,3.6-4.1C728.4,535.2,733.9,535.5,738.5,534.2z"/>
	<path class="st2" d="M644.6,538.2c-7.3,1.3-14.5,2.5-21.8,3.8c-0.9,0.2-1.9,0.2-2.8,0.6c-2,0.8-5.1,0.6-5.3,3.4
		c-0.2,2.6,3,2.5,4.5,3.7c-4.3,2.3-9.3,0.2-13.7,2c-0.4,0.2-1.3-0.3-1.6-0.7c-1.4-1.8,1.5-9.7,3.7-9.7
		C619.9,540.8,632.1,537.7,644.6,538.2z"/>
	<path class="st5" d="M757.8,535.1c-0.6,2.2-3.2,2.6-4.8,4.8c6.1-1.8,11.6-3.8,17.3-5c5.2-1.1,10.5-3.2,15.8-0.7
		c-12.2,0.3-22.9,5.5-33.8,10c-1.5,0.6-3.2,3.1-4.8,0.4c-1.3-2.2,0.1-4,1.9-5.3C751.9,537.4,754.7,535.9,757.8,535.1z"/>
	<path class="st7" d="M742.2,568.3c9.8,3.6,19.9,5.6,30.3,6c-3.8,1.8-7.9,1-11.8,0.7c-5.7-0.4-11.4-1.1-16.9-2.8
		C741.7,571.6,740.2,570.7,742.2,568.3z"/>
	<path class="st8" d="M707.5,372.3c-1.3,3.8-2.1,7.1-0.5,10.6c0.9,2-0.2,3-2,3.9c-8.8,4.2-19.6-1.5-22.5-11.4
		c-1.9-6.3,0.6-11.8,2.2-17.3c3.3-10.9,3.5-21.4-1.6-31.7c-4.1-8.4,1.8-16.5,7.9-19.7c7.6-4,16.2-5,23.9-8.7
		c3.5-1.7,7.3-2.6,10.6-4.6c10.2-6.2,19.6-2.6,27.9,3c15.6,10.5,23,26.2,23.7,44.6c0.4,10.9-5,20.3-11.1,29.2
		c-4.3,6.2-10,9.8-17.7,9.7c-4.6,0-8.1,3-11.9,4.9c-9.8,4.7-21.7,0.9-27-8.9C708.8,374.8,708.2,373.7,707.5,372.3z"/>
	<path class="st8" d="M612.6,376.7c-1.6,7.5-5.6,12.8-10.4,17.6c-3.8,3.9-11.7,5.2-16.4,2.6c-4.7-2.6-9.1-4.3-14.2-0.6
		c-3.3,2.3-6.9,0.9-9.9-1.1c-12.4-8.4-22.9-18.5-24.4-34.5c-0.7-7.6,1.2-15,2.5-22.4c1.4-8.3,5.4-15.5,10.2-22
		c5.3-7.2,16.6-13.5,27.2-10.9c5.3,1.3,10.5,2.7,15.8,4c2.6,0.6,5.2,0.7,7.7,0.1c18.6-4.1,29.5,13.5,25.4,26.2
		c-1.8,5.4-1.1,10.6,1.9,15.6c4.1,6.7,6.7,14.1,8.3,21.9c2,9.9-6.2,20.6-16.3,20.3c-2.7-0.1-5-0.8-5-4.8
		C615.1,385,614.4,381.1,612.6,376.7z"/>
	<path class="st9" d="M710.9,492.7c2.1,8.2,3.5,16.6,5.8,24.7c0.8,3.1,2,5.9,3.3,8.8c1.3,2.7,1.1,5.4-1.6,6.6c-2.2,1-4.1-1-5.3-2.9
		c-1.9-2.9-1.9-6.5-2-9.6C710.6,511.1,710.9,501.9,710.9,492.7z"/>
	<path class="st9" d="M642.2,439.8c10.7,0.5,21.3-1.7,32-1.3c13.1,0.5,26.1-1.4,39.3-1.1c9.1,0.2,12.4,4.2,10.3,13
		c-0.5,2.1-0.9,4.1-1.5,6.9c-9.5-12.5-23.2-12.8-36.5-13.9c-12.7-1-25.4-1.4-38-2C645.7,441.3,644.2,439.8,642.2,439.8z"/>
	<path class="st9" d="M671.5,538.9c12-0.6,24-1.5,35.9,0.2c0.3,0,0.8,0,0.9,0.1c0.8,1.3,3.5,0,3.4,1.8c0,2.1-2.1,1.9-3.8,1.9
		c-4.2,0.1-8.4-0.6-12.4-1.3c-5.7-0.9-11.5-0.1-17.2-1.6C676.1,539.5,673.8,539.3,671.5,538.9z"/>
</g>
</svg>
