<?xml version="1.0" encoding="utf-8"?>
<!-- Generator: Adobe Illustrator 23.0.1, SVG Export Plug-In . SVG Version: 6.00 Build 0)  -->
<svg version="1.1" id="Layer_4" xmlns="http://www.w3.org/2000/svg" xmlns:xlink="http://www.w3.org/1999/xlink" x="0px" y="0px"
	 viewBox="0 0 1000 1000" style="enable-background:new 0 0 1000 1000;" xml:space="preserve">
<style type="text/css">
	.st0{fill:#6E3720;}
	.st1{fill:#FB9A7A;}
</style>
<g>
	<path class="st0" d="M489.3,571.2c-11.1,0.4-22.7,0-34.2-1.8c-9.6-1.5-16.9-12.5-14.4-22.3c0.8-3.2,2.1-6.3,3.6-9.2
		c3.1-5.6,2.2-11-0.5-16.4c-10.5-20.6-19.4-41.9-24.3-64.5c-2.3-10.5-4.5-21.1-2.7-32.2c1.6-9.6-1.9-18.9-4.2-28.2
		c-5-19.9-11.8-39.3-15-59.7c-1.4-9-2.8-17.9-3.4-27.1c-0.5-8.1-0.6-16.1-0.7-24.2c-0.1-24.3,12-41,32.8-52c10-5.3,21.2-7,32.5-8.2
		c7-0.7,13.9-1.2,20.8-0.7c29.3,2.1,56.3,10,79.1,29.7c8.7,7.5,13.5,17,16.2,27.7c1.6,6.3-1,12.7-2.9,18.7
		c-6.4,20.3-15.1,39.5-29,56.1c-2.1,2.6-3.9,5.4-6.1,7.9c-1.3,1.5-1.2,3.2-0.8,4.6c2.5,8.1,0,15.8-2.2,23.4c-0.5,1.8-0.8,3.1-0.3,5
		c3.2,12.5,6.4,25.1,9,37.8c1,5.1-0.5,10.6-0.6,15.9c-0.4,20.9-4.2,41.1-9.4,61.2c-2.6,10.2-4,20.3,3,29.6c2.1,2.8,2.9,6.3,3.3,9.8
		c1.3,10.2-5.1,15.3-14.1,17.2C513.4,571.7,501.6,571.5,489.3,571.2z"/>
	<path class="st1" d="M434.1,387.1c19-2.3,35.9,5.1,53.2,10.8c10.7,3.5,21.5,6.7,32.9,6.4c2.1-0.1,2.9,0.5,3.5,2.8
		c3.8,14.7,6.6,29.6,5.6,44.8c-1.3,20.7-3.4,41.2-7.5,61.6c-2,10.1-1.7,20.1,4,29.4c8.1,13.3,1.3,16.6-9.7,18.8
		c-13.5,2.7-27.1,2-40.7,1.7c-6.2-0.1-12.4-1.5-18.5-3c-7-1.7-9.1-6.5-6.3-13.2c0.5-1.3,1.1-2.7,1.9-3.9c6.7-9.6,4.8-19.2,0-28.7
		c-8.6-16.9-16.8-33.9-21.2-52.5c-2-8.6-3.2-17.4-3.5-26.2c-0.7-20.6-3.9-40.8-9.6-60.6c-5.5-19-10.6-38.2-13-58
		c-1.1-8.8-2.7-17.5-2.7-26.3c0.1-12.9,3-25.5,11.2-35.6c5.9-7.3,13.6-13.3,23.1-15.9c14.4-4,29.1-5.8,44-4.9
		c16.4,1,32.1,5.4,47.3,11.9c9.5,4,18.4,9.2,26.3,15.8c9.2,7.7,14.1,21,8.9,35.4c-6.9,19.2-16,37.1-27.9,53.6
		c-1.2,1.7-2.2,3.6-3.5,5.1c-4,4.6-4.3,9.4-3.9,15.5c1.1,14.6-7.9,22.5-23.6,20.5c-12.3-1.5-23.5-7.3-35.6-9.8
		c-7.2-1.5-14.6-4.2-22.3-1.7C442,382.2,438.1,384.5,434.1,387.1z"/>
</g>
</svg>
