<?xml version="1.0" encoding="utf-8"?>
<!-- Generator: Adobe Illustrator 23.0.1, SVG Export Plug-In . SVG Version: 6.00 Build 0)  -->
<svg version="1.1" id="Layer_4" xmlns="http://www.w3.org/2000/svg" xmlns:xlink="http://www.w3.org/1999/xlink" x="0px" y="0px"
	 viewBox="0 0 1000 1000" style="enable-background:new 0 0 1000 1000;" xml:space="preserve">
<style type="text/css">
	.st0{fill:#6E3720;}
	.st1{fill:#FB9A7A;}
</style>
<g>
	<path class="st0" d="M488.7,571.2c-10.7,0.5-22.2-0.1-33.7-1.8c-9.6-1.4-16.8-12.6-14.2-22.4c0.8-3.1,2.1-5.9,3.5-8.7
		c3.7-7.8,4.3-15.8,3.3-24.6c-2.4-20.2-8.8-39.5-12.7-59.4c-2.9-14.8-4.9-29.7-8-44.5c-2-9.6-5.1-18.9-8-28.2
		c-7-22.4-15-44.6-20-67.5c-2.7-12.3-4.5-24.7-5.6-37.3c-1-11.9-0.3-23.4,2.9-34.6c5.9-20.4,21.3-31.6,40.5-38
		c11.3-3.8,23.2-5.5,35.1-5.9c14.2-0.5,27.9,2.5,41.5,6.1c15.2,4.1,29.5,10.2,42.6,19.1c9.9,6.7,14.2,16.6,17.4,27.5
		c3.3,11.4-1.8,21.6-5.3,31.8c-6.3,18.3-15.2,35.5-26.6,51.2c-1.7,2.4-2.3,4.7-2.3,7.6c0.1,8.8,0.2,17.6-4.4,25.6
		c-0.9,1.5-0.4,2.9,0.4,4.5c5.7,10.8,9.8,22.2,12.2,34.2c2.6,13.1,2.7,26.1,0.3,39.4c-3.8,20.9-11.1,40.8-16.7,61.2
		c-3.1,11.5-2.7,22,3.2,32.5c1.8,3.2,3.4,6.7,4.3,10.4c3.1,11.7-3.9,17.7-13.1,19.8C513.6,571.9,501.6,571.5,488.7,571.2z"/>
	<path class="st1" d="M440,368.4c17.2-4.2,33.6-1.8,49.9,3.4c9.9,3.1,20.1,5.7,30.8,3.5c2.1-0.4,2.9,1.1,3.7,2.5
		c5.7,10.4,8.6,21.7,10.8,33.2c1.2,6.5,2.6,13,2,19.6c-1.3,14.6-4.5,28.7-8.2,42.9c-2.5,9.4-6.1,18.5-7.8,28.2
		c-2.5,14.3-2.6,28.2,4.7,41.2c7.5,13.3,1.3,16.5-10,18.7c-13.5,2.7-27.1,1.9-40.7,1.7c-5.8-0.1-11.7-1.6-17.5-2.8
		c-7.9-1.7-10.3-6.6-6.8-13.9c3.4-7.1,6.7-14.1,7.6-22.1c0.3-3.1-0.1-6-0.4-9c-1.6-16-6.2-31.4-9.3-47.1
		c-2.8-14.1-5.3-28.3-7.6-42.5c-2.4-14.5-6.3-28.7-10.9-42.7c-8.6-26.3-16.8-52.7-23.6-79.5c-2.4-9.5-2.6-19.4-3.9-29.1
		c-1.2-9.9,0-19.4,1.8-28.7c2.3-11.6,10-20.2,20.3-26.2c12.2-7.1,25.8-9,39.5-10.8c19.7-2.7,37.7,3.2,56,8.8
		c9.2,2.8,18.1,6.1,26.6,10.8c15.3,8.6,20.4,25.8,15.8,40c-7.3,22.7-17.4,44.1-31.9,63.3c-2.4,3.1-1.8,6.6-1.3,10.2
		c1,7,1.3,14-4.7,19.2c-5,4.3-11.3,5-17.3,3.9c-13.4-2.4-26.6-5.6-39.8-8.4C457.6,354.4,443.9,360.1,440,368.4z"/>
</g>
</svg>
