<?xml version="1.0" encoding="utf-8"?>
<!-- Generator: Adobe Illustrator 23.0.1, SVG Export Plug-In . SVG Version: 6.00 Build 0)  -->
<svg version="1.1" id="Layer_4" xmlns="http://www.w3.org/2000/svg" xmlns:xlink="http://www.w3.org/1999/xlink" x="0px" y="0px"
	 viewBox="0 0 1000 1000" style="enable-background:new 0 0 1000 1000;" xml:space="preserve">
<style type="text/css">
	.st0{fill:#6E3720;}
	.st1{fill:#FB9A7A;}
</style>
<g>
	<path class="st0" d="M672.9,302.2c0,11.2-1.4,20.2-7.8,28c-3.2,4-7.2,7-11.4,9.4c-14.4,8.2-30.1,12.9-46.3,16
		c-10.6,2.1-21.3,3.3-32,4.7c-2.1,0.3-3.1,1.5-4.3,2.8c-4.3,4.8-9.3,8.8-15.3,11.3c-5.6,2.3-11.5,4.2-17.4,1.2
		c-2.6-1.3-2.4,0.9-2.9,1.7c-8.1,12.9-12.2,27.3-15.9,41.8c-4.4,17.7-6.5,35.9-9.9,53.7c-2.3,11.9-4.6,23.9-10.1,34.9
		c-4.8,9.7-12.4,11.8-21,5.3c-8.9-6.6-17.6-13.3-25.4-21.3c-16.8-17.2-27.1-37.6-32.3-60.9c-2.9-13.4-4.7-26.9-6.2-40.5
		c-1.6-15,0.3-29.5,4.5-43.4c3.8-12.5,10.4-24.1,18.2-34.8c5.8-8,12.4-15.4,19-22.9c13.7-15.6,28.3-30.4,41.6-46.3
		c6-7.1,12.1-14.2,18.6-21c9.1-9.6,17.9-19.2,28.8-26.8c6.5-4.5,13.7-7.2,21.3-8.6c22.2-4.2,40.1,5,56.1,18.9
		c15.9,13.8,28.7,30.2,37.7,49.3c5.8,12.4,10,25.2,11.4,38.9C672.3,297.1,673,300.4,672.9,302.2z"/>
	<path class="st1" d="M499.6,316.8c7.2,11.6,12.2,24.2,18.8,36c2.1,3.9,5.1,7.3,7.9,10.8c1.5,1.8,2,3.4,0.6,5.5
		c-6.3,9.8-9.6,20.9-13.1,31.9c-4.4,13.4-7.2,27.2-9.4,41.1c-1.6,10.1-2.4,20.4-4.3,30.5c-1.9,10-3.8,20.1-7.9,29.6
		c-2.6,6.1-4.6,6.5-10.1,2.8c-21.5-14.6-37.1-33.5-45.7-58.4c-5.7-16.3-8.4-33.1-11.6-49.9c-5-26.1,2.7-49.1,15.8-70.9
		c6.8-11.4,16.3-20.6,24.8-30.7c11.2-13.3,23.4-25.8,34.5-39.2c8.2-10,17.3-19.2,25.7-28.9c7.8-9.1,16.2-17.5,26.5-23.8
		c13.3-8.2,27.5-10.4,42.3-4.5c13.8,5.5,24.2,15.5,33.9,26.4c5.5,6.2,10.8,12.4,15.3,19.3c7.6,11.8,12.3,24.9,15.9,38.5
		c2.2,8.4,4.6,16.8,4.6,25.4c0,9-4.2,15.8-12,20.7c-14,8.9-29,14.9-45.2,18.1c-8.5,1.7-17,3-25.7,3.6c-6.6,0.5-12.2,1.7-17.6,6.8
		c-10,9.6-21.1,11.6-30.9-1.9c-5.3-7.3-9.6-15.1-14.5-22.6C513.4,325.9,507.8,319.9,499.6,316.8z"/>
</g>
</svg>
