<?xml version="1.0" encoding="utf-8"?>
<!-- Generator: Adobe Illustrator 23.0.1, SVG Export Plug-In . SVG Version: 6.00 Build 0)  -->
<svg version="1.1" id="Layer_4" xmlns="http://www.w3.org/2000/svg" xmlns:xlink="http://www.w3.org/1999/xlink" x="0px" y="0px"
	 viewBox="0 0 1000 1000" style="enable-background:new 0 0 1000 1000;" xml:space="preserve">
<style type="text/css">
	.st0{fill:#6E3720;}
	.st1{fill:#FB9A7A;}
</style>
<g>
	<path class="st0" d="M467.2,158.1c16.9,1.2,33.8,2.4,50,7.2c14.6,4.3,27.3,12.6,35.1,26.3c4.5,8,3.5,17,2.3,25.7
		c-1.8,13.8-5.1,27.3-9.7,40.5c-2.8,8.2-5.8,16.4-10.1,24c-1.7,2.9-1.4,5,0.1,7.8c1.7,3.3,3.6,6.5,4.4,10.5c1.6,8.3-2,18.1-9.5,21.9
		c-3.5,1.8-4.2,3.3-2.3,6.8c4.7,8.6,6.1,18.3,7.6,27.7c1.7,11.3,2.8,22.7,2,34.2c-0.8,12.6-2.7,25-4.4,37.5
		c-1.5,10.7-3.1,21.4-5.4,31.9c-4.9,22-9.7,44.1-17.5,65.3c-1.4,3.8-3.1,7.7-5.2,11.2c-2.1,3.4-5.6,4.2-9.3,3
		c-5.8-2-10.2-5.5-14.5-10.1c-10.9-11.8-18-25.8-24.5-40.1c-6.1-13.3-10.9-27.2-16.1-40.9c-5.1-13.6-8.4-27.6-10.2-41.8
		c-1.3-10-2.2-20.1-2.2-30.3c0-15-4.1-28.9-11.5-42.2c-14-25.1-26.6-51-33.7-79.1c-3.2-12.6-5.4-25.4-4.4-38.4
		c1.1-14,7.6-25.3,18.3-34.7c13.9-12.1,30.5-17.9,47.9-21.6C451.7,158.9,459.5,157.9,467.2,158.1z"/>
	<path class="st1" d="M440.9,329.6c9.1-3.5,17.2-5.4,25.5-6.1c7-0.7,14,1.3,21,2.3c6.6,1,13.3,2.2,19.9,3.3c0.3,0.1,0.7-0.1,1,0
		c2.5,0.7,5.3-2.6,7.3-0.3c2.1,2.5,3.7,5.7,4.8,8.9c5.2,15.7,8.2,31.9,6.9,48.4c-1.7,21.9-4.1,43.7-8.5,65.3
		c-4.7,23.6-10.6,46.7-17.7,69.7c-1,3.4-1.8,8-5,8.8c-4,0.9-7.3-2.9-9.8-6c-9.8-11.9-16.7-25.3-22.6-39.5
		c-4.8-11.4-9.7-22.7-13.9-34.3c-5.7-15.9-8.5-32.4-10.5-49.2c-2-17-1.2-34.4-6.5-51c-2.5-7.7-6.4-14.7-9.7-22
		c-6.8-15.1-15.3-29.4-21.7-44.7c-7.3-17.5-13-35.5-15.5-54.3c-1.6-12.6,2.4-24,9.8-34.4c6.5-9.2,16.1-13.7,25.8-17.9
		c16.2-6.9,33.2-11.4,51-10.5c14.9,0.8,30,2.1,43.8,7.9c10.7,4.5,21.3,10.1,27.2,21.2c3.7,7,3.3,14.5,2.4,22
		c-1.8,14.5-5.7,28.5-10.6,42.3c-2.5,7.1-5.1,14.2-9,20.7c-2.4,4-2.8,7.7-0.4,11.5c7.2,11.6-0.5,26.8-18.3,27.6
		c-8.3,0.4-16.1-2.5-24.2-3.4c-8.6-0.9-17-3.7-26.1-0.9C449.6,317.4,445.2,322.2,440.9,329.6z"/>
</g>
</svg>
