<?xml version="1.0" encoding="utf-8"?>
<!-- Generator: Adobe Illustrator 23.0.1, SVG Export Plug-In . SVG Version: 6.00 Build 0)  -->
<svg version="1.1" id="Layer_4" xmlns="http://www.w3.org/2000/svg" xmlns:xlink="http://www.w3.org/1999/xlink" x="0px" y="0px"
	 viewBox="0 0 1000 1000" style="enable-background:new 0 0 1000 1000;" xml:space="preserve">
<style type="text/css">
	.st0{fill:#6E3720;}
	.st1{fill:#FB9A7A;}
</style>
<g>
	<path class="st0" d="M564.4,208c14.3-0.1,26,6.1,37.4,12.6c8.9,5,17.2,11.1,24.2,18.5c12,12.7,23.4,26.1,30.7,42.3
		c5.3,11.8,9.4,24.1,9.1,37.1c-0.6,25.8-8.8,34.4-31,44.7c-8.7,4-17.7,7.5-26.7,10.8c-8.9,3.3-18,6.1-27.5,6.8
		c-5.6,0.4-8.6,3.7-11.3,8c-3.7,5.9-8.8,10.6-14.7,14.1c-2.5,1.5-2.6,3.9-3.4,5.8c-6.8,17-14.8,33.4-20.2,51
		c-6.1,20.2-14.1,39.8-20.4,59.9c-1.8,5.8-4.9,11.4-9.3,15.9c-5.9,5.9-12.5,5.4-18.3,2.3c-6.7-3.6-11.7-9.3-16.1-15.4
		c-15.4-21.2-24.1-45.2-31.3-70.1c-4.6-15.8-4.2-31.9-3.6-47.9c0.6-15.5,5.9-30,12.5-44c10.1-21.6,19.7-43.5,30.5-64.8
		c8.1-16,16.6-32.1,27.2-46.7c10.2-13.9,22-26.4,37.3-34.7C547.1,210.1,555.9,207.8,564.4,208z"/>
	<path class="st1" d="M492.4,343.3c12.6,15.2,23.7,30.1,34.1,45.5c3.1,4.6,6.3,9.5,12.1,11.5c3.9,1.3,1.4,3.6,0.7,5.4
		c-3.9,10.5-8.7,20.7-12,31.4c-8.7,28-18.9,55.4-29.1,82.9c-4.3,11.6-9,12-18.1,3.7c-6.6-6.1-10.2-14.3-14.4-22.1
		c-9.2-17-17.4-34.6-20.7-53.6c-2.1-12-3-24.4-2-37c2-25,12.1-47,22.8-69c9.6-19.8,18.2-40.1,28.2-59.7c6.1-12,13.5-23.3,22.5-33.5
		c7-7.9,13.3-16.5,22.4-22.5c10.2-6.8,21-9.6,33.3-7.8c15.8,2.3,27.5,11.6,39.2,21.1c10.6,8.6,19.9,18.6,26.9,30.1
		c9.2,15.2,18.9,30.5,18,49.4c-0.4,8.4-0.6,17.2-7.4,23.6c-5.5,5.2-12,9.2-18.7,12.6c-16.6,8.4-34.3,13.2-52.4,16.6
		c-5.7,1.1-10.3,3-13.9,8.1c-9.1,13.1-21.5,12.6-30.7-0.6c-6.3-9.1-11.5-19.1-20.2-26.4C507.1,348.3,501.2,344.1,492.4,343.3z"/>
</g>
</svg>
