<?xml version="1.0" encoding="utf-8"?>
<!-- Generator: Adobe Illustrator 23.0.1, SVG Export Plug-In . SVG Version: 6.00 Build 0)  -->
<svg version="1.1" id="Layer_4" xmlns="http://www.w3.org/2000/svg" xmlns:xlink="http://www.w3.org/1999/xlink" x="0px" y="0px"
	 viewBox="0 0 1000 1000" style="enable-background:new 0 0 1000 1000;" xml:space="preserve">
<style type="text/css">
	.st0{fill:#6E3720;}
	.st1{fill:#FB9A7A;}
</style>
<g>
	<path class="st0" d="M489.1,571.2c-11,0.4-22.5,0-34-1.8c-9.6-1.5-16.8-12.6-14.3-22.4c1.2-4.7,4-8.6,5.5-13
		c2.9-8.5-0.6-16.1-3.7-23.8c-5.4-13.3-12.1-26-16-40c-3.7-13.4-6.6-26.8-6.7-40.8c-0.2-19.8-5.6-38.5-12-57
		c-5.1-14.8-10.1-29.5-13.6-44.8c-1.8-7.8-2.8-15.6-3.7-23.5c-1-8.8-2.2-17.5-1.9-26.4c0.5-15.6,5.8-29.4,17.1-40.1
		c12.5-11.8,27.6-18.2,44.8-19.8c7.7-0.7,15.3-2.4,23-1.8c14.4,1.1,28.8,3,42.7,7.1c10.3,3.1,20.5,6.4,29.6,12.4
		c11.3,7.4,19.7,17,23,30.3c2.9,11.9,0.2,23.3-4.1,34.4c-7,17.9-15.9,34.8-27.1,50.5c-2.1,2.9-1.9,6.2-1.3,9.3
		c1.9,9.7-0.3,18.7-4.9,27c-1.6,2.9-1.7,4.8-0.3,7.6c5.3,10.2,9.3,21,12.1,32.2c2,7.8,2.3,15.7,0.8,23.8c-0.9,5.2-0.4,10.6-1,15.9
		c-1.5,13.6-4.2,27-7.3,40.2c-1.7,7.1-3.3,14.2-4.5,21.4c-0.7,4.4,1.6,8.3,3.4,12.2c1.8,3.7,3.8,7.4,4.3,11.5
		c1.2,10.1-4.2,15.4-14.1,17.7C513.4,571.8,501.5,571.5,489.1,571.2z"/>
	<path class="st1" d="M434.8,379.6c6.4,0.6,12.2-0.1,18.1-0.6c11.5-1.1,22.1,3.6,32.7,7c10.7,3.4,20.7,8.7,32.3,8.6
		c1.5,0,2.1,1.1,2.8,2.3c7.2,14.2,12.8,28.9,12.3,45c-0.4,11.2-2,22.4-3.5,33.5c-1.4,10.5-2.6,21-4.2,31.5
		c-0.8,5.4-1.9,10.7-2.6,16.1c-0.9,6.3,0,12.5,2.5,18.4c0.4,0.9,0.8,1.8,1.2,2.6c5.2,10.5,3.7,14.1-7.6,16.8
		c-15.6,3.7-31.4,3.3-47.2,1.8c-4.5-0.4-8.9-1-13.3-2.1c-8.8-2.1-11.1-6.6-7.1-14.8c3.2-6.5,6.9-12.8,5.8-20.6
		c-0.9-6.5-2.3-12.9-5.1-18.9c-8.1-17.3-15.3-34.9-19-53.7c-1.6-8.3-2.8-16.8-3.1-25.3c-0.7-16-3.9-31.4-8.5-46.7
		c-6.4-21.1-12.9-42.2-18.4-63.6c-2.2-8.3-3.1-17-3.7-25.7c-0.6-8.1-0.5-15.9,1-23.9c3.8-19.4,15.9-30.5,34.1-35.8
		c14.9-4.4,30.2-6.5,45.7-6c9.8,0.3,19.4,2.5,28.8,5.1c14.2,4,27.9,9.4,40,18.3c7.3,5.4,13,21.3,11.2,30.4
		c-4.8,24-16.9,44.6-29.4,64.9c-3.2,5.3-4.9,9.9-3.3,15.6c4.8,16.7-11.6,25-24.4,22.5c-11-2.1-21.2-7.1-32.1-9.7
		c-8.3-2-16.5-3.5-25.1-0.8C441.3,373.4,437.9,375.5,434.8,379.6z"/>
</g>
</svg>
