<?xml version="1.0" encoding="utf-8"?>
<!-- Generator: Adobe Illustrator 23.0.1, SVG Export Plug-In . SVG Version: 6.00 Build 0)  -->
<svg version="1.1" id="Layer_4" xmlns="http://www.w3.org/2000/svg" xmlns:xlink="http://www.w3.org/1999/xlink" x="0px" y="0px"
	 viewBox="0 0 1000 1000" style="enable-background:new 0 0 1000 1000;" xml:space="preserve">
<style type="text/css">
	.st0{fill:#6E3720;}
	.st1{fill:#FB9A7A;}
</style>
<g>
	<path class="st0" d="M491.1,571.2c-11.6,0.5-23.1-0.1-34.4-3.1c-10.6-2.8-15.4-10.5-12-22.2c2-6.7,4-13.5,4.3-20.4
		c0.3-8-2-15.7-5-23.1c-4.4-10.8-6.7-22.1-8.4-33.5c-2-13.3-4-26.8-3.1-40.3c1.4-20,4.9-39.6,13.4-58c10.5-22.9,21.9-45.4,33.6-67.7
		c7.5-14.3,14.8-29,26.3-40.6c9.2-9.3,20.8-14.4,34-16.5c19.4-3,35.9,3.9,52,12.9c12.2,6.9,22.8,16,32.4,26.2
		c11.2,12,21.3,24.9,27.1,40.5c4.7,12.7,6.9,25.8,2.8,39.2c-2.1,6.7-7.3,10.9-12.2,15.2c-12.2,10.8-26.3,18.8-40.7,26
		c-5.8,2.9-11.8,5.7-18,7c-8.9,1.9-13.7,8.3-15.3,15.5c-5.2,22.6-15.5,43-25.7,63.6c-4.2,8.3-7.8,16.9-12.5,25
		c-4.6,7.7-3.3,15.3,1,22.8c4.8,8.3,2.5,16.3-2,23.8c-3.3,5.5-9.6,5.6-15.2,6.7C506,571.8,498.5,571.1,491.1,571.2z"/>
	<path class="st1" d="M479.2,389c9.2,7.2,18.9,13.4,27.6,21.1c3.9,3.4,7.5,7,10.9,11c7.7,9.1,16.2,17,28.6,19.2
		c1.9,0.3,3.4-0.7,5.5-0.4c-3.4,8.3-6.4,16.5-10,24.4c-6.7,14.8-14.1,29.3-20.8,44c-4.5,9.9-7.7,20.8-2.5,31.9
		c0.9,2,1.4,4.3,1.9,6.4c1.3,5.9-0.7,10-6.2,12.7c-10.9,5.4-22.7,4.6-34.2,3.6c-7.3-0.6-14.6-2.2-21.1-6c-4.1-2.3-6.3-6.4-4.4-10.6
		c6.9-15.6,5.6-30.9-0.3-46.4c-4.6-12.2-6.3-25.1-8-38c-1.2-9.2-2.2-18.3-1.8-27.5c0.9-19.8,4.7-39,12.4-57.4
		c8.2-19.6,17.8-38.4,26.5-57.8c7.3-16.3,15.7-32,26.6-46.2c9.7-12.6,22.6-19.5,38.7-19.3c8.7,0.1,16.9,3.3,24.8,6.8
		c10.8,4.7,20.9,10.7,30.1,18c15.3,12.1,27.6,26.9,36.4,44.3c4.9,9.8,7.4,20.7,6.5,31.7c-0.7,8-5.4,14.2-11.6,19.2
		c-17.9,14.6-38.6,24-60.1,31.8c-6.4,2.3-9.3,6.8-12.4,11.9c-1.8,3-3.3,6.2-6.6,8.1c-7.6,4.3-13.8,3.5-20.6-2.7
		c-9.2-8.3-18.1-17.1-28.3-24.1C498.6,393.4,489.7,388.6,479.2,389z"/>
</g>
</svg>
