<?xml version="1.0" encoding="utf-8"?>
<!-- Generator: Adobe Illustrator 23.0.1, SVG Export Plug-In . SVG Version: 6.00 Build 0)  -->
<svg version="1.1" id="Layer_4" xmlns="http://www.w3.org/2000/svg" xmlns:xlink="http://www.w3.org/1999/xlink" x="0px" y="0px"
	 viewBox="0 0 1000 1000" style="enable-background:new 0 0 1000 1000;" xml:space="preserve">
<style type="text/css">
	.st0{fill:#6E3720;}
	.st1{fill:#FB9A7A;}
</style>
<g>
	<path class="st0" d="M488.6,571.2c-10.3,0.4-21.8-0.1-33.4-1.8c-9.6-1.4-17.1-12.4-14.5-22.2c0.8-2.9,1.8-5.6,3.2-8.4
		c6.1-12.2,5.7-24.5,0.1-36.7c-7.9-17-13.3-34.7-17.3-53c-1.6-7.4-2.7-14.9-2.7-22.3c0.1-17.2-4.2-33.2-10.9-48.9
		c-6.1-14.2-12.9-28.1-17.2-43c-4.1-14.3-7.3-28.8-9.5-43.6c-0.8-5.4-1.2-10.9-1.5-16.2c-1-19.3,5.4-35.8,20.5-48.6
		c11-9.3,24.2-12.8,37.7-15.6c11.3-2.4,22.9-3.7,34.4-3c25.1,1.6,49.6,5.9,70.3,21.6c9.9,7.5,16.6,17.9,18.2,30.4
		c1,7.6-2.4,14.9-4.3,22.3c-4.4,17.4-11.4,33.8-19.9,49.5c-0.7,1.4-1.6,2.7-2.4,4.1c-3.2,5.1-5.2,10.3-3.5,16.5
		c2.4,8.3,0.7,16.1-4,23.2c-1,1.5-0.6,2.5-0.1,3.9c5.3,15.6,8.1,31.6,7,48c-0.8,11.8-1.6,23.6-3.5,35.3c-1.4,8.5-2.3,17.1-3.1,25.7
		c-0.8,8.7-2.1,17.4-3.3,26.1c-0.9,7.1,0.5,13.5,2.9,19.8c2,5.1,5.3,9.6,6.6,15.2c2.7,11.2-3.3,17.3-13.4,19.7
		C513.6,571.9,501.7,571.4,488.6,571.2z"/>
	<path class="st1" d="M438.9,377.6c7.7-0.9,15.1-3.2,22.7-3.5c12.3-0.5,23.7,3.2,35.4,6.3c7.4,2,14.9,3,22.5,2.3
		c2.3-0.2,2.4,0.4,3.1,2.3c4.9,14.7,6.4,29.9,5.6,45.2c-0.6,11.2-2.4,22.3-3.6,33.5c-1,9.3-2.1,18.5-3.1,27.8
		c-0.8,7.5-1.8,15-2,22.6c-0.2,10.8,1.9,21,7.1,30.6c5.2,9.8,3.4,13.4-7.4,16.1c-15.7,3.9-31.6,3.3-47.6,2
		c-4.7-0.4-9.2-1.1-13.8-2.2c-7.9-1.8-10.2-6.5-6.9-13.9c2.5-5.5,5.3-10.8,6.4-17c1.5-8.3,0.1-16.1-2.7-23.6
		c-6.6-17.2-12.9-34.5-16.7-52.5c-1.6-7.7-3-15.5-3.1-23.3c-0.3-18.7-2.8-36.7-11.1-53.8c-7.8-15.9-12.7-32.8-18.6-49.4
		c-6.8-18.8-10.8-37.9-10.4-57.9c0.2-11.7,3.6-22.6,11.7-31.3c5.7-6.1,13.2-9.5,21-12.3c12-4.4,24.5-5.6,37.1-7.1
		c16.9-2,33,0.7,49,5.2c13.8,4,26.8,10.1,36.6,21.2c5.7,6.4,6.2,14.4,5.2,22.7c-3.2,25.1-14.8,46.9-26.7,68.5
		c-2.7,4.9-3.1,9.6-2,14.7c3.5,16-7.5,21.5-20.2,19.9c-9.9-1.2-19.7-2.3-29.6-3.7c-7.1-1-13.9-1.4-20.9,0.9
		C449.4,370.1,444.1,373.6,438.9,377.6z"/>
</g>
</svg>
