<?xml version="1.0" encoding="utf-8"?>
<!-- Generator: Adobe Illustrator 23.0.1, SVG Export Plug-In . SVG Version: 6.00 Build 0)  -->
<svg version="1.1" id="Layer_4" xmlns="http://www.w3.org/2000/svg" xmlns:xlink="http://www.w3.org/1999/xlink" x="0px" y="0px"
	 viewBox="0 0 1000 1000" style="enable-background:new 0 0 1000 1000;" xml:space="preserve">
<style type="text/css">
	.st0{fill:#6E3720;}
	.st1{fill:#FB9A7A;}
</style>
<g>
	<path class="st0" d="M488.1,571.2c-10.1,0.5-21.7-0.2-33.2-1.9c-9.3-1.4-16.7-12.4-14.3-22c0.5-2,0.9-4.1,1.9-5.8
		c6.7-11.1,7-23,3.5-35c-8.1-28.3-15.5-56.7-20.6-85.7c-1.9-10.7-8.8-19.4-14.2-28.7c-10.6-18-24.7-33.4-36.2-50.7
		c-11.8-17.7-21.9-36.3-27.6-56.9c-2.9-10.6-5.4-21.4-4.7-32.5c0.6-10,5.2-18.6,11.2-26.3c13.2-16.9,30.5-28.2,50.9-34.5
		c9.6-2.9,19.5-4.1,29.6-4.9c7.1-0.6,14.2-1,21.3-0.7c14.5,0.6,28.8,2.8,41.1,11.6c10.4,7.5,16.7,17.3,18,30.6
		c1.6,15.5-0.8,30.7-2,46c-0.8,10.8-3.2,21.3-6.3,31.6c-0.9,2.9,1.3,4.7,2.5,6.6c6,9.4,7.8,18.9,1.9,29c-0.2,0.3-0.1,0.7-0.3,0.9
		c-1.7,2.3-5,4.3-4.4,7c0.7,3,3.2,5.8,5.1,8.5c4.6,6.4,9.5,12.7,13.6,19.5c5.8,9.5,8.4,20,10.1,30.8c1.6,9.6,1.3,19.4,0.9,29.1
		c-0.4,12-2,23.9-3.7,35.7c-1.1,7.9-1.7,16-2,24c-0.3,6.9-1.3,13.7-1.8,20.6c-0.4,5.8,0.9,11.7,3.3,17.1c2.2,5,5.3,9.6,6.7,15.1
		c3,11.6-3.9,17.7-13.2,19.8C513.6,571.9,501.5,571.4,488.1,571.2z"/>
	<path class="st1" d="M427,369.5c4.6-2.5,9.2-4.9,13.8-7.4c6.2-3.4,13.2-4.1,20-4.6c9.3-0.7,18.8-0.3,27.9-2.3
		c7-1.5,10.2,1.2,13.7,6.6c4.4,6.7,9.4,13,13.7,19.8c5.3,8.4,7.5,17.5,8.4,27.2c0.9,9.6,1.1,19.1,0.8,28.6
		c-0.5,14.8-2.5,29.5-3.6,44.2c-1,13.4-3.2,26.7-2.1,40.2c0.6,7.9,3,15.3,6.8,22.4c5.3,10.2,3.7,13.8-7.4,16.4
		c-15.7,3.8-31.6,3.3-47.6,1.9c-4.5-0.4-8.9-1.1-13.3-2.1c-8.5-2-10.7-6.6-7-14.5c2.8-5.9,5.6-11.8,7-18.4
		c1.7-8.3-0.5-15.9-2.5-23.6c-4.7-18.4-11-36.4-14.4-55.2c-1.6-8.8-3-17.6-4.8-26.4c-2.1-10.4-7.6-19.4-12.8-28.4
		c-12.8-22.1-29.9-41.2-43.3-62.9c-10.6-17.1-19.9-34.9-25.9-54.1c-6.1-19.2-3.3-37.7,11.2-51.8c15.5-15.1,34.2-25.8,56.4-29
		c9.6-1.4,19.1-3.2,28.8-2.8c14.2,0.6,28.3,1.9,40.3,10.7c8.4,6.1,13.8,13.9,14.8,24.8c2.4,25.5-1.1,50.3-7.5,74.9
		c-0.8,2.9-1.4,5.5,0.8,8.4c1.9,2.5,2.8,5.7,4.1,8.7c5.1,11.2-5.5,24.3-16,25.9c-5.3,0.8-10.6,1.1-15.9,0.8
		c-7.8-0.3-15.4,1-23.1,2.2C438.2,351.3,428.5,360.7,427,369.5z"/>
</g>
</svg>
