<?xml version="1.0" encoding="utf-8"?>
<!-- Generator: Adobe Illustrator 23.0.1, SVG Export Plug-In . SVG Version: 6.00 Build 0)  -->
<svg version="1.1" id="Layer_4" xmlns="http://www.w3.org/2000/svg" xmlns:xlink="http://www.w3.org/1999/xlink" x="0px" y="0px"
	 viewBox="0 0 1000 1000" style="enable-background:new 0 0 1000 1000;" xml:space="preserve">
<style type="text/css">
	.st0{fill:#6E3720;}
	.st1{fill:#FB9A7A;}
</style>
<g>
	<path class="st0" d="M662.2,332.9c0,14.4-5.9,24-16.7,31.5c-14.1,9.8-30.1,15.2-45.8,21.3c-7.8,3-15.9,5.2-24.1,6.9
		c-1.5,0.3-2.9,0.8-3.7,2.5c-2.9,6.4-7.5,11.4-13.3,15.3c-1.9,1.3-2.5,2.8-3.1,4.9c-3.1,12.4-6.3,24.8-9.8,37.1
		c-5.9,21-17.2,39.6-27,58.9c-5.6,11-11.7,21.7-18,32.3c-4.7,7.8-12.7,12.7-22.4,4.6c-12.7-10.6-20.2-24.4-25.9-39.3
		c-5.9-15.2-12.3-30.4-15.1-46.7c-1.5-8.5-2.7-16.9-3.7-25.5c-2.4-22.2,3.6-43.3,9.3-64.2c4.8-17.7,14-33.8,22.3-50.1
		c9.8-19.3,18.4-39.4,30.9-57.3c8.5-12.1,15.9-25.2,28.2-34c8.2-5.9,17.4-9,27.5-10.7c17.9-3.1,32.1,4.6,46.6,12.9
		c9.7,5.5,18.1,12.6,25.8,20.4c13.8,13.9,24.9,29.8,32.3,48C660.8,312,661.3,323.1,662.2,332.9z"/>
	<path class="st1" d="M485.7,362.1c3.9,3.9,7.2,6.5,10.1,9.4c9.6,10,18.7,20.5,28.1,30.7c4.2,4.6,9.2,8.3,14.8,10.6
		c4.2,1.7,4.9,3.6,3.8,8c-7.1,30.2-18.4,58.7-33.2,85.9c-5.5,10-9.9,20.6-16.4,30c-4.4,6.4-9.3,6.6-14,0.3
		c-7.5-9.9-13.1-20.9-18.1-32.2c-7.4-16.8-10.9-34.7-15.3-52.4c-2.7-10.7-0.9-21.6,0-32.3c0.8-10.5,2.6-21,4.5-31.4
		c1.6-8.8,4.7-16.9,7.8-25.1c5.9-15.9,14.7-30.4,21.8-45.7c8.3-17.9,16.3-36.1,27.8-52.2c8.2-11.5,15.5-24.1,29.2-30.7
		c14.1-6.8,27.9-7.1,42.2-0.8c25.4,11.3,44.4,29.7,59,53c8.9,14.2,14.3,29.3,14.6,46.2c0.2,9.9-4.8,17.3-12.1,22.5
		c-13.8,9.7-28.8,17.4-45.2,22c-8.2,2.3-16.3,4.6-24.5,6.9c-2.9,0.8-5,2-6.4,5.1c-1.8,4-4.1,8.1-8,10.5c-7,4.4-14.3,2.8-21.3-3.5
		c-10.9-9.8-20.8-20.7-33.4-28.6C497.1,365.4,492.4,363.1,485.7,362.1z"/>
</g>
</svg>
