<?xml version="1.0" encoding="utf-8"?>
<!-- Generator: Adobe Illustrator 23.0.1, SVG Export Plug-In . SVG Version: 6.00 Build 0)  -->
<svg version="1.1" id="Layer_4" xmlns="http://www.w3.org/2000/svg" xmlns:xlink="http://www.w3.org/1999/xlink" x="0px" y="0px"
	 viewBox="0 0 1000 1000" style="enable-background:new 0 0 1000 1000;" xml:space="preserve">
<style type="text/css">
	.st0{fill:#6E3720;}
	.st1{fill:#FB9A7A;}
</style>
<g>
	<path class="st0" d="M668.9,309.3c-0.9,9-1.9,20.4-8.7,30.3c-2.7,4-6.5,6.6-10.5,8.9c-16.5,9.4-34.5,14.7-52.7,19.4
		c-6.6,1.7-13.4,2.6-20.2,3c-3.5,0.2-5.5,2-7.1,4.3c-3.6,5.3-8.3,9.4-14.1,11.8c-6.6,2.8-7.9,9.3-10.7,14.4
		c-9.2,17.3-15.8,35.8-22.5,54.1c-5,13.8-10.2,27.5-15.1,41.3c-1.5,4.3-2.4,8.8-3.6,13.2c-2,7.3-6.1,12.8-12.9,16.3
		c-2.2,1.1-4,1.1-6.3,0.1c-4.3-1.9-7.8-4.8-11.4-7.7c-9.4-7.4-17.2-16.4-23.3-26.5c-9.5-15.7-16.6-32.5-21.3-50.4
		c-4.2-16.2-6-32.7-5.8-49.4c0.4-27,8.4-51.3,25.3-72.7c10.8-13.7,20.4-28.3,30.8-42.3c11.6-15.5,21.7-32.1,34.7-46.7
		c9.3-10.5,19.6-19.9,31.1-27.7c8.5-5.8,19-6.5,29.1-5.7c9.3,0.7,18.4,2.9,26.8,7.3c12.6,6.5,22.8,15.8,31.7,26.7
		c4.1,4.9,8.7,9.4,12.6,14.5c7.7,9.9,12.4,21.2,17.2,32.6C666.2,287.6,669,296.9,668.9,309.3z"/>
	<path class="st1" d="M496.4,326.6c12.5,13.3,17.5,31,26.9,46.1c3.1,4.9,6,9.9,11.2,13c2.3,1.3,3.5,2.9,2.1,6.1
		c-15.9,34.5-27.1,70.8-40.1,106.5c-1.5,4-2.1,8.4-3.5,12.5c-2,5.9-4.8,6.8-9.9,3.4c-7.5-5.1-12.9-12.2-18.3-19.2
		c-17.6-22.3-25-48.7-30.3-76c-1.5-7.6-3.1-15.1-2.9-22.9c0.5-27.1,9.2-51.1,26.2-72.3c12.6-15.7,24.7-32,36.1-48.7
		c10.9-16,21.2-32.7,35.1-46.4c8-7.8,16-16,27.4-20c12.6-4.3,24.1-2.1,35.4,2.9c10.6,4.7,20.4,11.3,28.4,19.6
		c17.3,17.9,30.8,38.3,37.3,62.6c2,7.6,2.5,15.5,0.9,23.4c-0.9,4.5-0.3,9.3-3.2,13.4c-6.2,8.6-15.4,12.8-24.6,17
		c-18.1,8.1-37.4,12-56.9,14.7c-4,0.6-6.5,2.8-8.7,5.9c-8,10.8-23,12.3-33-0.2c-7.4-9.1-11.5-20-18.3-29.3
		C508.9,332.2,503.3,327.9,496.4,326.6z"/>
</g>
</svg>
