<?xml version="1.0" encoding="utf-8"?>
<!-- Generator: Adobe Illustrator 23.0.1, SVG Export Plug-In . SVG Version: 6.00 Build 0)  -->
<svg version="1.1" id="Layer_4" xmlns="http://www.w3.org/2000/svg" xmlns:xlink="http://www.w3.org/1999/xlink" x="0px" y="0px"
	 viewBox="0 0 1000 1000" style="enable-background:new 0 0 1000 1000;" xml:space="preserve">
<style type="text/css">
	.st0{fill:#6E3720;}
	.st1{fill:#FB9A7A;}
</style>
<g>
	<path class="st0" d="M488,571.2c-10.1,0.5-21.6-0.2-33.1-1.9c-9.3-1.4-16.7-12.5-14.2-22c0.9-3.3,2.2-6.6,3.7-9.7
		c4.4-9.2,4.9-18.6,2.1-28.3c-4.9-17.6-10.1-35.2-14.6-52.9c-1.9-7.3-2.7-15-3.9-22.5c-1.8-11.5-7.4-21.1-13.5-30.5
		c-10.1-15.7-21.8-30.1-33.5-44.6c-11.7-14.4-21.7-30-30.9-46.2c-8.2-14.5-13.6-29.9-16.9-46c-3-14.8,1.2-28.4,10.1-40.2
		c17-22.7,40.7-34.9,67.7-40.7c12.3-2.6,25-3.4,37.9-1.5c7.4,1.1,15,0,22.2,3c16.4,6.8,28.2,17.4,30.9,36c2,13.9,2.2,27.8,1.1,41.8
		c-1,12.6-2.5,25-5,37.4c-0.5,2.4,1.7,3.8,2.8,5.3c7.8,11,9.8,21.3,1.4,33.3c-1.8,2.6-1.9,4.7,0.2,7.9c6.5,10.1,15,19,20,30
		c5.4,12,8.7,24.6,10,37.9c1.3,13,0.8,25.9,0.7,38.8c-0.2,14.6-2.6,29-3.5,43.6c-0.6,10.2-2.7,20.7,0.6,31c1.5,4.7,4.1,8.9,6.2,13.3
		c1.3,2.6,2.2,5.3,2.5,8.1c1.3,10.3-4.5,15.3-13.7,17.5C513.6,572,501.5,571.4,488,571.2z"/>
	<path class="st1" d="M419.5,369.4c5.7-3,10.4-5.4,15-8.1c7.6-4.3,16.1-4.3,24.3-4.7c8.4-0.4,16.8-0.2,25-2.1
		c0.5-0.1,1.1,0.1,1.4-0.1c5.8-4.7,8,0.2,10.9,4c5.8,7.5,11.9,14.8,16,23.4c5.2,10.9,8.1,22.5,9.5,34.6c1.5,13.7,2.5,27.4,1.7,41.1
		c-1,18-1.9,36-3.6,54c-1,9.8,0.3,19.6,4.7,28.7c1.6,3.2,3.1,6.4,4.3,9.6c1.5,3.9-0.1,6.8-3.6,8.9c-4,2.5-8.5,3.2-12.8,3.6
		c-18,1.8-36.1,2.6-53.9-1.7c-8.9-2.1-11.3-6.7-7.1-14.7c3.7-7,6.4-14.3,7.5-22.2c0.9-6.7-1.1-13.2-3.1-19.3
		c-7.9-24-14-48.5-19.1-73.2c-3.5-17.3-12-31.8-22.9-45.4c-13.8-17.3-28.1-34.3-40.5-52.6c-12.3-18.1-23.8-37-29.8-58.5
		c-4.8-17.2-2.2-32.5,9.7-46.2c10.9-12.6,24.7-20.6,39.6-27.4c12.1-5.5,24.8-7,37.9-7.8c6.3-0.4,12.6-0.5,18.9-0.8
		c13.5-0.6,24.7,5,34.4,13.7c5.8,5.2,8.1,12.3,9.2,19.7c1.6,10.5,2.5,21.2,2.1,31.8c-0.7,15.3-2.2,30.5-5.2,45.4
		c-0.9,4.4,1.4,7.1,3.4,9.9c7.7,11,4.5,20.3-3.3,27.4c-4.8,4.4-11.6,4.2-17.7,5.3c-11.6,2-23.4,0.9-34.9,3.8
		C427.1,351.9,422.4,358.9,419.5,369.4z"/>
</g>
</svg>
