<?xml version="1.0" encoding="utf-8"?>
<!-- Generator: Adobe Illustrator 23.0.1, SVG Export Plug-In . SVG Version: 6.00 Build 0)  -->
<svg version="1.1" id="Layer_4" xmlns="http://www.w3.org/2000/svg" xmlns:xlink="http://www.w3.org/1999/xlink" x="0px" y="0px"
	 viewBox="0 0 1000 1000" style="enable-background:new 0 0 1000 1000;" xml:space="preserve">
<style type="text/css">
	.st0{fill:#6E3720;}
	.st1{fill:#FB9A7A;}
</style>
<g>
	<path class="st0" d="M489.4,571.2c-11.1,0.3-22.6,0-34.1-1.8c-9.6-1.5-17.1-12.5-14.5-22.2c0.7-2.6,1.4-5.2,2.7-7.5
		c5.9-10.2,5.9-21.2,3.1-32c-4.1-16-9.5-31.7-13.3-47.8c-2.6-10.6-3.9-21.6-4.7-32.6c-1.1-16.1,0.2-32.7-7.7-47.8
		c-6.2-11.8-11.8-23.9-18-35.7c-9.6-18.1-16.3-37.3-21.5-57c-2.3-8.6-3.9-17.5-4.2-26.3c-0.4-13.1,3.7-25.1,11.7-35.9
		c9-12,21.8-18.2,35.2-23.5c15-5.9,30.7-8.9,46.8-7.8c16.5,1.2,33.1,2.1,48.9,7.7c14.7,5.2,26.8,14,33.6,28.6
		c2.2,4.8,3,10.2,2.3,15.5c-1.6,11.5-3.5,22.8-6.7,34c-3.5,12.3-6.6,24.7-13.2,35.9c-2.4,4.1-2.6,7.8-1.1,12.1
		c2.8,8.2,5.2,17.5-1.2,24c-7,7.1-4.2,13.3-2.1,20.2c5.4,17.1,6.6,34.6,5.6,52.3c-0.7,12.9-1.1,25.8-2,38.6
		c-1.2,15.7-2.6,31.5-5.6,47c-2,10.4-0.7,20.5,4.7,29.9c1.8,3.1,3.2,6.4,4.2,10c3.3,11.9-4.1,18-13.3,20.1
		C513.5,571.8,501.7,571.5,489.4,571.2z"/>
	<path class="st1" d="M440.7,364c7.3-1.1,14.1-3.3,21.1-4.8c7.2-1.5,13.7,0.2,20.4,1.6c8.6,1.8,17.4,3.1,26.2,3.5
		c1.4,0.1,3,0,4.3-0.5c2.7-1,4.3-0.2,5.3,2.4c3.9,10.4,6.2,21.1,7.5,32.2c0.9,7.6,1.1,15.2,0.8,22.8c-0.8,19.5-2.3,39-3,58.5
		c-0.5,12.5-2.8,24.9-3.6,37.4c-0.6,8.8,1.4,17.2,5.7,25c0.5,1,1,2,1.5,3c4.5,9.3,2.7,13.2-7.4,15.6c-15.9,3.8-32,3.4-48.1,2.1
		c-4.7-0.4-9.2-1.1-13.8-2.2c-7.8-1.8-10.1-6.5-6.8-13.9c3-6.6,6-12.9,7.3-20.2c1.3-7.2-0.5-13.7-1.8-20.4
		c-4-21.7-12.1-42.4-16.3-64.1c-1.6-8.1-2.4-16.3-2.6-24.4c-0.4-17.3-3.6-33.7-11.7-49.1c-10.4-19.6-19.9-39.7-28.4-60.1
		c-5.7-13.7-9.5-28-11-43.1c-1.2-12,1.2-22.5,7.1-32.6c4-6.7,9.9-11.3,16.8-14.7c9.6-4.9,19-9.8,29.8-12.1c16.1-3.4,32-4.2,48.3-1.9
		c9.4,1.4,18.7,2.6,27.8,5.2c15.1,4.5,26.4,12.9,30.2,29.2c1.4,5.9-0.4,11.5-0.9,17.3c-2,22.6-12,42.7-20.3,63.3
		c-1.4,3.4,0,6.1,1,8.7c2.5,6.2,2,12.1-0.8,18c-1.8,3.8-5.3,5.6-8.9,7c-7.3,2.8-14.7,2-22.3,0.8c-9.8-1.6-19.6-4.1-29.6-3.5
		C454.4,350.3,445.5,353.7,440.7,364z"/>
</g>
</svg>
