<?xml version="1.0" encoding="utf-8"?>
<!-- Generator: Adobe Illustrator 23.0.1, SVG Export Plug-In . SVG Version: 6.00 Build 0)  -->
<svg version="1.1" id="Layer_4" xmlns="http://www.w3.org/2000/svg" xmlns:xlink="http://www.w3.org/1999/xlink" x="0px" y="0px"
	 viewBox="0 0 1000 1000" style="enable-background:new 0 0 1000 1000;" xml:space="preserve">
<style type="text/css">
	.st0{fill:#6E3720;}
	.st1{fill:#FB9A7A;}
</style>
<g>
	<path class="st0" d="M488.6,571.2c-10.5,0.6-22.1-0.1-33.6-1.8c-9.3-1.4-16.7-12.4-14.3-22c0.7-2.7,1.6-5.5,3-7.9
		c5.6-10.1,5.7-20.9,3.1-31.6c-3.9-16.1-10.1-31.5-13.5-47.8c-2.2-10.8-3.8-21.6-4.7-32.6c-1.1-14.1-0.2-28.5-4.7-42.3
		c-2.2-6.8-5.8-13-9-19.3c-8.3-16.2-17.4-32-24-49c-5-12.9-9.6-26.1-11.1-40.1c-0.7-7-1.8-14-1.9-21c-0.3-17.4,8.5-30,21.1-40.6
		c13.7-11.6,30.2-17.4,47.3-20.4c11-1.9,22.3-1.7,33.7-0.6c12.6,1.1,25.1,2.9,37,6.6c12.3,3.7,23.2,10.5,31.7,20.5
		c7.1,8.3,7.8,18.3,6.8,28.6c-1.4,14.9-6,29.1-10.6,43.2c-2.8,8.6-6.1,17-10.5,24.8c-1.1,1.9-1.3,3.6-0.3,5.8
		c5.9,12.5,5.7,24.6-3.9,35.4c-1.5,1.7-1.6,2.8-1,4.9c6.1,19.5,9.3,39.5,7.8,60c-0.9,12.7-1,25.5-2,38.1c-1.3,15.7-2.6,31.5-5.6,47
		c-2.1,10.9-0.7,21.5,5.3,31.2c3.2,5.3,5.1,11,4.3,17.3c-0.7,5.2-7.6,10.8-13.6,11.9C513.5,571.4,501.6,571.5,488.6,571.2z"/>
	<path class="st1" d="M453.5,381.7c5.9-5,11.7-9.6,18.7-12.9c6.3-2.9,12.7-4.4,19.5-4.5c6.8-0.2,13.6,0.8,20.3-0.9
		c2.9-0.7,4.4,0.6,5.9,3.4c4.9,9.2,5.7,19.3,7.4,29.2c1.5,8.5,1.3,17.1,1,25.7c-0.8,19.4-2.4,38.7-3,58.1c-0.4,11.5-2.4,23-3.6,34.5
		c-1.1,10.6,1.7,20.7,6.7,30.2c5.3,10.1,3.7,13.8-7.4,16.4c-15.7,3.8-31.7,3.3-47.6,1.9c-4.5-0.4-8.9-1.1-13.3-2.1
		c-8.4-2-10.7-6.6-6.9-14.5c3-6.4,5.8-12.7,7.1-19.8c1.3-7.2-0.6-13.7-1.8-20.4c-4-21.7-12.2-42.4-16.3-64.1
		c-1.5-8-2.6-16.3-2.6-24.4c0.1-17.3-4.4-33.3-11.8-48.7c-9.1-19.1-19.5-37.7-27.3-57.5c-6-15.3-11-30.7-12-47.3
		c-0.9-14,1.2-27,11.5-37.2c12-11.9,27.2-17.8,43.4-21.5c10.6-2.4,21.3-3.7,32.2-2.9c18.8,1.3,37.4,3.4,54.4,12.6
		c12.6,6.8,20.5,18.2,18.2,34.7c-3.3,24.1-10.6,46.8-20.8,68.6c-0.9,2-0.6,3.5,0,5.4c1.8,6.1,5.9,11.9,2.1,18.8
		c-3.6,6.5-8.4,10.2-16.1,11.3c-10,1.5-20,0.3-30,1.6C472.9,356.3,453.8,370.7,453.5,381.7z"/>
</g>
</svg>
