<?xml version="1.0" encoding="utf-8"?>
<!-- Generator: Adobe Illustrator 23.0.1, SVG Export Plug-In . SVG Version: 6.00 Build 0)  -->
<svg version="1.1" id="Layer_4" xmlns="http://www.w3.org/2000/svg" xmlns:xlink="http://www.w3.org/1999/xlink" x="0px" y="0px"
	 viewBox="0 0 1000 1000" style="enable-background:new 0 0 1000 1000;" xml:space="preserve">
<style type="text/css">
	.st0{fill:#6E3720;}
	.st1{fill:#FB9A7A;}
</style>
<g>
	<path class="st0" d="M487.7,571.2c-9.7,0.4-21.1-0.2-32.4-1.8c-9.6-1.4-17.2-12.3-14.6-22.1c0.7-2.6,1.4-5.2,2.7-7.5
		c5.9-10.2,5.8-21.1,3.2-32c-3.8-16.1-10.1-31.5-13.4-47.8c-2.2-10.7-3.9-21.6-4.6-32.6c-1.2-16.9,0-34.2-8.7-49.9
		c-6-10.8-10.8-22.2-16.7-33.1c-9.9-18.2-16.5-37.5-21.8-57.4c-2.5-9.5-4.7-19.4-4.3-29.2c0.8-17,7.2-31.6,21.1-42.4
		c14.1-10.9,30.3-16.7,47.6-20.1c16.6-3.2,33.1-1.7,49.7,0.8c11.2,1.7,22.1,3.5,32.3,8.7c11.2,5.7,20.2,13.4,25.4,24.8
		c2.2,4.9,3,10.5,2.3,16c-2.4,19.2-7.1,37.9-13.6,56.1c-2,5.6-5,10.6-7.6,15.8c-1.1,2.3-1.2,4.2-0.5,6.8c2.6,8.3,4.8,16.8,1.2,25.6
		c-1.3,3.2-2.5,6.3-5.4,8.3c-2.7,1.9-2.4,4.2-1.3,6.5c8.5,19.1,9.5,39.4,8.4,59.8c-0.6,12.1-0.9,24.1-1.9,36.2
		c-1.1,13.7-2,27.4-4.6,40.9c-2.6,13.8-3.3,27.5,4.9,40c2,3.1,3.2,6.6,3.6,10.2c1.2,10.3-4.7,15.2-13.9,17.4
		C513.5,572,501.4,571.3,487.7,571.2z"/>
	<path class="st1" d="M446.9,369.9c11.5-6.6,23.8-9.1,36.7-8.5c7.7,0.3,15.1,2.9,22.9,2.8c0.8,0,1.6,0,2.4,0
		c2.5,0.1,5.2-2.4,7.4-0.4c2.5,2.3,3.1,5.9,4,9.1c4.7,15.9,6.6,32.1,5.9,48.7c-0.9,19.4-2.4,38.7-3.1,58.1
		c-0.4,11.5-2.4,23-3.6,34.5c-1.1,10.6,1.7,20.7,6.7,30.2c5.3,10.1,3.7,13.7-7.4,16.4c-15.7,3.8-31.6,3.3-47.6,1.9
		c-4.5-0.4-8.9-1.1-13.3-2.1c-8.4-2-10.7-6.6-6.9-14.5c3-6.4,5.8-12.7,7.1-19.8c1.4-7.2-0.6-13.7-1.8-20.4
		c-4-21.7-12.1-42.4-16.3-64.1c-1.6-8.1-2.3-16.3-2.5-24.4c-0.4-17.1-3.5-33.4-11.6-48.7c-10.4-19.8-20-40-28.6-60.6
		c-5.7-13.8-9.6-28-10.9-43.1c-1.2-13.5,1.5-25.3,9.7-36c3.4-4.5,7.8-7.6,12.5-10.3c19.7-11.8,41.2-17.3,64-16.3
		c18.6,0.8,37.2,2.8,54.1,11.7c12.6,6.6,21,16.2,20,31.3c-1.2,17.7-5.3,34.8-12.4,51.1c-3.3,7.5-6.1,15.1-9.3,22.7
		c-1.4,3.3,0.8,5.8,1.2,8.8c0.5,3.7,2.4,6.9,1.4,11.2c-2.4,9.9-8.7,13.5-18.2,14.7c-10.7,1.4-21-2.2-31.7-1.3
		C464.5,353.5,453.9,358.3,446.9,369.9z"/>
</g>
</svg>
