<?xml version="1.0" encoding="utf-8"?>
<!-- Generator: Adobe Illustrator 23.0.1, SVG Export Plug-In . SVG Version: 6.00 Build 0)  -->
<svg version="1.1" id="Layer_4" xmlns="http://www.w3.org/2000/svg" xmlns:xlink="http://www.w3.org/1999/xlink" x="0px" y="0px"
	 viewBox="0 0 1000 1000" style="enable-background:new 0 0 1000 1000;" xml:space="preserve">
<style type="text/css">
	.st0{fill:#6E3720;}
	.st1{fill:#FB9A7A;}
</style>
<g>
	<path class="st0" d="M489.9,571.2c-11.6,0.3-23.2,0-34.7-1.8c-9.6-1.5-17-12.5-14.4-22.3c0.5-2,0.9-4.1,2-5.8
		c6.6-11.2,6.7-23,3.4-35c-6.8-24.7-12.5-49.6-18.4-74.5c-2.7-11.5-8.5-22-12.5-33.1c-9.8-27.1-26.4-50.8-38.3-76.8
		c-8.1-17.9-15.7-36-18.3-55.5c-3.2-23.7,4.5-42.9,24.2-57.5c15.8-11.7,33.7-17.1,52.5-20.3c11.6-1.9,23.3-0.9,35,0.6
		c11.8,1.5,23.6,3.1,34.9,7c14.6,5,24.7,14.5,30.3,29c3.3,8.7,1.4,17.5,0.4,26.1c-1.7,13.6-5.3,26.9-9.3,40.1
		c-2.1,7-5.2,13.5-8.5,20c-1.2,2.4-1.4,4.5-0.6,7.2c2.6,8.4,4.8,16.9,1.1,25.6c-0.7,1.7-1,4.2-2.4,5.1c-6,3.7-3.1,7.7-0.5,11.3
		c12.7,17.1,17.5,37.4,22,57.5c2.5,11.3,1.4,23.1-0.2,34.9c-1.8,13.7-4.9,27.2-6.4,41c-0.8,7.8-1.4,15.6-2.5,23.3
		c-0.8,5.6,0.9,11.3,3.1,16.7c2.1,5.1,5.2,9.7,6.7,15.1c3.3,11.8-4,18-13.3,20C513.5,571.7,501.7,571.5,489.9,571.2z"/>
	<path class="st1" d="M424.3,370.5c7.7-2.7,14.3-4.9,20.9-7.3c7.2-2.6,14.4-3.2,22.2-2.1c9.6,1.3,19.4,0.3,28.8-2
		c2.4-0.6,3.2-0.2,4.6,1.6c13.3,16.8,21.9,35.5,25.6,56.7c3,17.3,1.1,34.1-1.7,51.2c-2,12.3-3.5,24.8-4.5,37.3
		c-0.7,8.9-1,17.6,1.1,26.3c1.2,5.1,4,9.4,6.1,14.1c3.4,7.8,1.3,12.3-6.9,14.2c-16.4,3.8-32.9,3.6-49.6,2.1
		c-4.5-0.4-8.9-1.1-13.3-2.1c-7.9-1.8-10.2-6.5-6.8-13.9c3.3-7,6.4-13.8,7.6-21.7c0.7-5-0.3-9.6-1.1-14.3
		c-2.4-14.9-7.9-29-11.4-43.6c-2.6-11-3.8-22.4-7-33.3c-4.4-15.1-10.3-29.6-16.1-44.1c-9.9-24.7-24.6-47-35.5-71.1
		c-7.4-16.5-15.3-32.8-18.7-50.8c-3.7-19.8,0.8-37.1,16.7-49.7c12-9.5,26.4-14.9,41.6-17.8c8.7-1.7,17.4-3.7,26.3-2.9
		c19.1,1.7,38.5,2.7,56.4,10.8c13,5.9,19.1,22.2,17.3,36.5c-2.1,17-6.6,33.2-12.2,49.3c-1.8,5-3.3,10.1-5.6,14.8
		c-2.6,5.6-0.2,10.8,0.8,16c2.7,14.2-3.3,20.9-14.8,23.5c-7.6,1.7-15.3,4.7-23.2,3.3c-6-1-12-0.9-17.9-0.7c-9,0.3-17.4,2.6-23.9,9.6
		C427.6,363,426.4,366.2,424.3,370.5z"/>
</g>
</svg>
