<?xml version="1.0" encoding="utf-8"?>
<!-- Generator: Adobe Illustrator 23.0.1, SVG Export Plug-In . SVG Version: 6.00 Build 0)  -->
<svg version="1.1" id="Layer_4" xmlns="http://www.w3.org/2000/svg" xmlns:xlink="http://www.w3.org/1999/xlink" x="0px" y="0px"
	 viewBox="0 0 1000 1000" style="enable-background:new 0 0 1000 1000;" xml:space="preserve">
<style type="text/css">
	.st0{fill:#6E3720;}
	.st1{fill:#FB9A7A;}
</style>
<g>
	<path class="st0" d="M471.7,131.8c17.7,0,33.4,1.3,48.3,6.2c14,4.5,27.8,10.1,37,23c5.2,7.2,6,15.1,5.3,23.2
		c-1,11.4-3.5,22.5-6.5,33.5c-3.6,13-8.3,25.5-14.1,37.6c-1.4,2.9-1.6,4.9-0.1,7.8c6.4,12.3,4.3,21.9-6.9,30.5
		c-4.9,3.8-1.9,8.2-1,11.8c2.8,12.3,5.6,24.7,5,37.3c-0.6,12.1-1.7,24.2-3.3,36.3c-1.9,13.7-4.1,27.4-6.3,41
		c-1.3,8.2-4,16.3-5.7,24.4c-3.2,15.1-7.7,29.9-12.6,44.6c-1.3,4-3.3,7.5-5.2,11.2c-1.8,3.6-5.5,4.5-9.2,3.3
		c-5.8-1.9-10.3-5.3-14.6-10c-10.7-11.8-17.9-25.5-24.3-39.6c-6.2-13.6-11.2-27.8-16.5-41.8c-5.1-13.6-8.3-27.6-10.2-41.8
		c-1.4-10.6-2.6-21.4-2.2-32.2c0.5-14.4-3.8-27.3-11.2-39.7c-7.5-12.6-13.2-26.3-18.9-39.8c-3.6-8.7-6.7-17.7-9.8-26.6
		c-2.3-6.8-3-14-3.8-21c-1-9.6-1.9-19.4,0.7-29.1c1.7-6.4,4.3-12.2,8.1-17.5c9-12.4,21.7-19.2,35.7-24.2
		C443.8,135,458.3,131.1,471.7,131.8z"/>
	<path class="st1" d="M447.1,303.2c6.9-2.4,13.1-3.8,19.2-5.4c9.1-2.3,17.8,0.4,26.7,1.4c9,0.9,17.7,5,27,2.6
		c2.1-0.5,2.9,0.9,3.6,2.9c2.3,6.3,2.5,12.9,3.6,19.3c1.5,8.3,1.7,16.8,0.9,25.2c-1.6,16.4-2.7,32.9-5.4,49.3
		c-3.4,20.4-7.8,40.5-13.1,60.5c-2.8,10.6-5.5,21.4-9.7,31.6c-1.4,3.5-3.3,4.1-6.7,2.2c-5.2-2.9-8.5-7.6-11.6-12.2
		c-14.2-21.4-23-45.4-31.8-69.3c-5.5-15.1-7.7-30.9-9.7-46.9c-1.7-13.6-1.1-27.3-3.7-40.8c-1.4-7.4-3.4-14.7-6.7-21.4
		c-12.2-24.8-24.9-49.3-32.5-76c-2.6-9.1-4.6-18.6-4.5-27.9c0.4-22.5,11.2-38.5,32.5-47.2c17.4-7.1,35.3-12.2,54.2-11.4
		c21.3,0.9,42,4.7,60.4,16.7c10.5,6.8,13.9,16.7,12.7,28.3c-2,18.3-6.5,36.2-12.5,53.6c-2.1,6.1-5.1,11.7-8.3,17.3
		c-1.3,2.3-1.4,4.2-0.4,6.7c2,5,4.8,10,3.3,15.7c-2.6,9.6-15.3,16.6-25.4,14.6c-11.3-2.2-22.7-4.6-34.1-5.5
		C463.3,286.4,453.9,291.9,447.1,303.2z"/>
</g>
</svg>
