<?xml version="1.0" encoding="utf-8"?>
<!-- Generator: Adobe Illustrator 23.0.1, SVG Export Plug-In . SVG Version: 6.00 Build 0)  -->
<svg version="1.1" id="Layer_4" xmlns="http://www.w3.org/2000/svg" xmlns:xlink="http://www.w3.org/1999/xlink" x="0px" y="0px"
	 viewBox="0 0 1000 1000" style="enable-background:new 0 0 1000 1000;" xml:space="preserve">
<style type="text/css">
	.st0{fill:#6E3720;}
	.st1{fill:#FB9A7A;}
</style>
<g>
	<path class="st0" d="M487.4,571.3c-9.3,0.4-20.7-0.2-32.1-1.8c-9.6-1.4-17.2-12.3-14.6-22.1c0.7-2.6,1.4-5.2,2.7-7.5
		c5.9-10.2,5.8-21.1,3.2-32c-3.8-16.1-10.1-31.6-13.5-47.8c-2.2-10.7-3.8-21.6-4.6-32.6c-1.2-16.1,0.2-32.7-7.7-47.8
		c-6.2-11.8-11.8-23.9-18-35.7c-9.6-18.1-16.3-37.3-21.5-57c-2.2-8.4-4.1-17.2-4.2-25.8c-0.2-18.4,6.3-34.1,21.3-45.8
		c14-10.9,30-16.6,47.1-20c9.1-1.8,18.3-2.8,27.4-1.8c18.9,2.1,38.2,2.4,55.6,11.6c10.9,5.7,20,13.4,24.8,24.9
		c2.4,5.8,2.6,12.1,1.7,18.7c-1.4,10.3-3.5,20.3-6,30.3c-3.3,12.9-6.9,25.6-13.7,37.2c-1.9,3.2-2.3,6.3-0.7,9.9
		c3.2,7.4,3.6,15,0.8,22.7c-1.4,3.8-3.9,6.5-6.3,9.4c-1.1,1.3-1.5,2.1-0.8,4.1c4.4,11.7,7.7,23.9,8.7,36.3
		c0.7,9.6,1.3,19.4-0.6,29.1c-0.3,1.4-0.1,2.9-0.1,4.4c0.3,14.2-1,28.4-2.1,42.5c-1.1,14.3-4,28.4-5.5,42.6
		c-0.6,5.7,0.9,11.4,3.1,16.7c2.2,5.2,5.4,9.9,6.9,15.6c2.9,11.4-3.6,17.5-13.3,19.8C513.5,572,501.5,571.3,487.4,571.3z"/>
	<path class="st1" d="M450.9,380.1c12.8-11.4,27.3-15.6,43.2-15.9c6.4-0.1,13,0.9,19.3-0.9c2.2-0.6,3.3,0.7,4,2.6
		c3.7,11.1,6.8,22.2,8.2,33.9c1.8,15.1-0.3,30.1-0.5,45.1c-0.2,11.1-1.2,22.2-1.9,33.3c-0.7,10.9-1.5,21.7-3.4,32.5
		c-1.7,9.4,0,19,3.9,27.9c1.2,2.8,2.9,5.4,4.1,8.2c3.1,7.1,0.8,11.9-6.9,13.6c-5.5,1.2-11,2.7-16.5,2.8c-15.8,0.4-31.7,1.2-47.3-2.8
		c-7.4-1.9-9.4-6.7-6.1-14c2.9-6.4,5.9-12.6,7.3-19.8c1.5-7.4-0.5-14-1.8-20.9c-4-21.7-12.1-42.4-16.3-64.1
		c-1.6-8.1-2.3-16.3-2.5-24.4c-0.4-17.1-3.5-33.4-11.6-48.7c-10.4-19.8-20-40-28.6-60.6c-5.7-13.8-9.6-28-11-43.1
		c-1.3-13.7,1.7-25.6,10-36.4c3.3-4.3,7.7-7.2,12.2-9.9c19.7-11.8,41.2-17.3,64-16.3c18.6,0.8,37.2,2.8,54.1,11.7
		c12.6,6.6,21,16.2,20,31.3c-1.2,17.7-5.3,34.8-12.4,51.1c-3.3,7.5-6.1,15.2-9.3,22.7c-1.3,3.1,0.2,5.7,1,8.3
		c4.4,14.6-1.4,23.6-16.7,26.3c-6.7,1.2-13.2,0.6-19.9,0.8C472,354.8,457.6,364.7,450.9,380.1z"/>
</g>
</svg>
