<?xml version="1.0" encoding="utf-8"?>
<!-- Generator: Adobe Illustrator 23.0.1, SVG Export Plug-In . SVG Version: 6.00 Build 0)  -->
<svg version="1.1" id="Layer_4" xmlns="http://www.w3.org/2000/svg" xmlns:xlink="http://www.w3.org/1999/xlink" x="0px" y="0px"
	 viewBox="0 0 1000 1000" style="enable-background:new 0 0 1000 1000;" xml:space="preserve">
<style type="text/css">
	.st0{fill:#6E3720;}
	.st1{fill:#FB9A7A;}
</style>
<g>
	<path class="st0" d="M488.9,571.2c-10.8,0.5-22.4-0.1-33.9-1.8c-9.3-1.4-16.7-12.4-14.3-22c0.5-2,0.9-4.1,1.9-5.8
		c7-11.8,6.7-24.2,3.2-36.9c-5.2-18.8-11.4-37.4-15.6-56.5c-1.7-7.8-3.1-15.7-5.6-23.5c-3.7-11.2-11-19.9-17.6-29.1
		c-16.3-22.6-35.9-42.7-51.3-66c-11-16.7-19.8-34.4-25-53.9c-5.1-19.4-1.4-36.4,11.3-51.7c11.7-14,26.5-23.4,42.9-30.8
		c13.5-6,27.8-7.1,42.2-8.9c14-1.7,27.6-0.5,40.7,3.8c16.7,5.5,26.7,17.7,29.3,35.2c1.9,12.7,3.9,25.5,2.9,38.4
		c-1.1,13.5-1.1,27.2-4.7,40.4c-1,3.5,1.7,5.2,3.2,7c9.7,12.4,7.4,21.8,1.1,32.5c-1.3,2.3-1.6,3.3,0.1,5.3
		c4.7,5.6,9.3,11.3,13.5,17.3c7.8,11.1,13.4,23.3,16.2,36.6c3.4,16.7,5.3,33.6,4.8,50.6c-0.5,17-1.8,33.9-4.6,50.7
		c-2.3,13.6-2.2,27.4,6,39.7c2,3,3,6.3,3.4,9.8c1.3,10.4-4.3,15.4-13.7,17.6C513.7,571.9,501.6,571.5,488.9,571.2z"/>
	<path class="st1" d="M419.2,369.9c4.2-2.4,8-4.4,11.7-6.7c10-6,21.3-6.6,32.5-7.7c8.1-0.8,16.4-0.8,24.3-3.2
		c1.7-0.5,2.6-0.4,3.7,0.8c11.5,12.8,20.5,27.2,25.3,43.8c2.6,8.9,3.9,18.1,5,27.3c1.5,13.4,2.4,26.8,1.7,40.2
		c-0.8,15.3-2.6,30.5-3.7,45.7c-0.7,10-0.1,20,4.5,29.3c1.1,2.3,2.3,4.6,3.3,7c3.5,7.7,1.3,12.3-6.9,14.1c-5.5,1.2-11,2.7-16.5,2.8
		c-15.3,0.2-30.7,1.2-45.8-2.7c-8.5-2.2-10.9-6.6-7-14.4c3.5-7.1,6.4-14.3,7.6-22.2c1-7-1.6-13.3-3.1-19.8
		c-3.9-17.3-10.2-34-13.5-51.5c-1.7-8.8-3.8-17.5-6.2-26.1c-3.4-12.3-10.8-22.5-18.1-32.7c-15.1-21.2-33.3-40-48.3-61.3
		c-13.4-19-26-38.3-31.1-61.8c-3.7-17,1-31.3,12.1-43.5c14.9-16.5,34.2-25.8,55.3-31.7c4.7-1.3,9.8-1.7,14.7-2.2
		c13.2-1.4,26.4-1.9,39.3,2.1c8.9,2.7,17.5,6.1,23.3,14.4c3.1,4.5,4.3,9.4,5.1,14.3c1.9,12.4,4,24.9,3.1,37.5
		c-1,13.8-1.5,27.6-4.2,41.2c-0.4,2.2-0.1,3.4,1,5.2c2.5,3.9,4.9,7.9,6.2,12.4c3.7,13.3-5.1,22-16.8,24.1c-11.3,2-22.8,1.9-34.1,3
		C433.1,348.7,422.6,353.5,419.2,369.9z"/>
</g>
</svg>
