<?xml version="1.0" encoding="utf-8"?>
<!-- Generator: Adobe Illustrator 23.0.1, SVG Export Plug-In . SVG Version: 6.00 Build 0)  -->
<svg version="1.1" id="Layer_4" xmlns="http://www.w3.org/2000/svg" xmlns:xlink="http://www.w3.org/1999/xlink" x="0px" y="0px"
	 viewBox="0 0 1000 1000" style="enable-background:new 0 0 1000 1000;" xml:space="preserve">
<style type="text/css">
	.st0{fill:#6E3720;}
	.st1{fill:#FB9A7A;}
</style>
<g>
	<path class="st0" d="M551.9,232.4c11.9,0.6,22.8,4.5,33.8,8.7c12.6,4.8,22.8,13.1,32.6,22.1c14.3,13.2,25.9,28.3,33.5,46.3
		c4.7,11.1,8.2,22.6,7.2,34.7c-0.8,10.7-5.6,19.5-14.4,26.7c-17,13.9-36.8,22-56.9,29.7c-1.5,0.6-3.1,0.8-4.6,1.2
		c-14.2,3.6-19.5,14.4-22.5,27.2c-4.7,20-12.2,39.1-20.3,58c-6.7,15.5-17,29.3-21.8,45.7c-1.7,5.6-4.7,10.6-7.8,15.6
		c-4,6.4-9.9,10.6-16.2,14.6c-7.4,4.6-14.7,2.4-22,0.2c-9.6-2.9-12.6-10.6-14.9-19.5c-6.1-23.7-14.3-46.8-19.6-70.7
		c-2.3-10.3-3.4-20.7-4.6-31.2c-0.7-6.5-1.2-12.9-0.8-19.3c1.4-24.1,5.8-47.3,18.3-68.7c9.9-17,17.7-35.1,26.6-52.6
		c9.2-18.1,19.7-35.6,33.6-50.6c8.6-9.3,19.3-15.9,32.6-17C546.5,233.1,549.1,232.1,551.9,232.4z"/>
	<path class="st1" d="M547.5,427.9c-5.3,18.2-11.5,35.8-19,53c-7.9,18.1-17.3,35.5-24.6,53.9c-2.4,6.2-7.1,11.1-11.9,15.6
		c-7.8,7.3-20.5,3-23.4-7.4c-5.8-20.8-12.1-41.4-17.7-62.3c-3.1-11.6-4.4-23.6-5.8-35.5c-0.8-7.1-1.1-14.2-0.7-21.3
		c1.1-19.5,4.3-38.6,12.9-56.3c12-24.8,24.3-49.4,36.6-74c6.5-13,13.8-25.7,23.9-35.9c12.8-13.1,27.8-19.8,49.7-12.8
		c15.2,4.8,28.3,13.5,40.4,23.7c6.9,5.8,14.1,11.3,19.5,18.6c10.5,14.2,18.4,29.2,21.2,47.2c2.6,16.4-5.4,26-17.4,34
		c-18.2,12.2-37.9,21.6-59.1,27.5c-6.5,1.8-7.9,7.6-11.3,11.7c-5.9,7.2-9.8,8.8-18.8,6.2c-8.8-2.6-15.3-8.2-20.3-15.5
		c-3.6-5.3-8.8-8.4-13.6-12.2c-8.8-7-18.9-11.1-31.3-11.9c7,5.2,13.2,10.2,19.7,14.7c12,8.3,20.2,20.5,30.9,30
		c1.6,1.4,3,2.9,4.7,4.2C536.8,426.2,541.6,427.6,547.5,427.9z"/>
</g>
</svg>
