<?xml version="1.0" encoding="utf-8"?>
<!-- Generator: Adobe Illustrator 23.0.1, SVG Export Plug-In . SVG Version: 6.00 Build 0)  -->
<svg version="1.1" id="Layer_4" xmlns="http://www.w3.org/2000/svg" xmlns:xlink="http://www.w3.org/1999/xlink" x="0px" y="0px"
	 viewBox="0 0 1000 1000" style="enable-background:new 0 0 1000 1000;" xml:space="preserve">
<style type="text/css">
	.st0{fill:#6E3720;}
	.st1{fill:#FB9A7A;}
</style>
<g>
	<path class="st0" d="M427.8,346c0.7-18.9-4.7-36.3-12.3-53.3c-6.6-14.6-10.6-30-14-45.6c-3-13.9-4.1-27.9-3.9-42
		c0.3-17.3,9.6-29.5,23.2-39.1c15.3-10.8,32.5-15.9,50.9-17.6c25.6-2.4,50.1,2.4,73.3,13c11.1,5.1,20.8,13,27.5,23.8
		c6,9.7,4.8,19.9,2.5,30.3c-4.2,19.2-10.4,37.8-20.3,54.9c-4.2,7.3-7.8,13.7-3.2,22.8c3.4,6.6-1.5,15.7-8.3,20.4
		c-6.7,4.6-6.7,5.8-5.4,14.3c0.9,6.2,1.2,12.8,0.1,18.9c-1.2,6.7-0.9,13.5-1.4,20.1c-1.5,17.7-3.8,35.1-7,52.6
		c-4.8,26.3-10.9,52.2-19.5,77.5c-1.3,3.9-3.3,7.6-5.2,11.2c-2,3.7-5.6,4.4-9.6,3.2c-6.1-1.9-10.4-5.8-14.8-10.5
		c-11.1-12.1-18.1-26.5-24.7-41c-5.9-12.9-10.5-26.3-15.5-39.6c-5.1-13.6-8.4-27.6-10.2-41.8C428.5,367.6,427.2,356.9,427.8,346z"/>
	<path class="st1" d="M452.6,317.4c7.5-2.6,15.1-3.6,22.6-4.7c7.8-1.1,15.1,2.4,22.4,4.6c6.8,2,13.6,3.4,20.5,5
		c3.1,0.7,6.5-2.6,8.6-0.1c1.9,2.2,0.1,5.9,0.9,9c1.3,4.6,1.2,9.5,0.3,14c-1.2,6.1-0.9,12.2-1.5,18.3c-1.5,17.9-3.8,35.7-6.8,53.4
		c-4.3,25.3-11.3,49.9-18,74.6c-0.5,1.8-1.3,3.6-2.1,5.4c-3,6.2-5.1,6.7-10.3,1.8c-5.8-5.4-10.3-11.9-14.1-18.8
		c-13.5-24.7-24-50.7-31.4-77.8c-2.5-9-3-18.6-4.4-28c-2.9-19.1-1.2-38.6-5.9-57.5c-3.2-12.9-9.1-24.9-13.5-37.5
		c-5.6-15.8-10.5-32-12.6-48.7c-1.4-11.6-3.1-23.7,1-35c4.5-12.5,13-22,25.7-27.2c11-4.5,22-8.6,33.9-10.3
		c10.3-1.4,20.3-1.3,30.6,0.1c13,1.7,25.6,4.5,37.7,9.2c11.8,4.5,21.8,11.8,28.3,23c4.1,7.1,3.2,14.7,1.5,22.1
		c-4.3,18.8-10.3,37-19.2,54.2c-0.1,0.1,0,0.4-0.1,0.5c-7.3,8.3-8,17.5-5,28c2.4,8.5-8.8,15.5-14.9,16.7c-11.6,2.4-22-2.4-32.9-4.6
		c-7.2-1.4-14.3-4.6-21.8-2.9C464.2,305.8,456.6,308.6,452.6,317.4z"/>
</g>
</svg>
