<?xml version="1.0" encoding="utf-8"?>
<!-- Generator: Adobe Illustrator 23.0.1, SVG Export Plug-In . SVG Version: 6.00 Build 0)  -->
<svg version="1.1" id="Layer_4" xmlns="http://www.w3.org/2000/svg" xmlns:xlink="http://www.w3.org/1999/xlink" x="0px" y="0px"
	 viewBox="0 0 1000 1000" style="enable-background:new 0 0 1000 1000;" xml:space="preserve">
<style type="text/css">
	.st0{fill:#6E3720;}
	.st1{fill:#FB9A7A;}
</style>
<g>
	<path class="st0" d="M489.4,571.2c-11.2,0.4-22.8,0-34.3-1.8c-9.3-1.4-16.8-12.2-14.5-21.9c0.6-2.6,1.5-5.2,2.8-7.5
		c6.1-10.5,5.1-21.7,3.5-33c-2.2-16.4-6.7-32.2-9.6-48.4c-2.3-12.7-4.2-25.4-3.5-38.2c0.4-7.9,1-15.8,0.7-23.7
		c-0.5-15.8-2.6-31.4-6.1-46.9c-1.3-5.7-2.4-11.6-2.5-17.5c-0.3-10.5-2.1-21-1-31.5c1.6-15.2,1.6-30.5,6.6-45.2
		c7-20.6,20.7-33.1,41.8-37.9c9-2,18-3.5,27.1-2.8c22.6,1.8,44.4,6.6,64.1,18.8c7.4,4.6,15.2,8.5,22,14.1
		c7.9,6.5,13.5,14.7,17.9,23.7c9,18.2,1.9,34-8.4,48.8c-10,14.3-20.4,28.4-33.4,40.2c-3.9,3.6-5.5,7.7-5.9,12.5
		c-0.4,5.1-1.2,10.1-3.5,14.7c-1.5,3.1,0.2,6.1,0.8,8.9c3.1,15.2,4.4,30.6,3.5,46c-0.8,13.2-5.9,25.4-10.5,37.7
		c-4.4,11.7-10,22.9-15.6,34.1c-3.2,6.5-2.8,13.2,0.2,19.8c2.3,5,5.2,9.6,6.7,15.1c3.2,11.7-4,18-13.4,20
		C513.4,571.7,501.6,571.5,489.4,571.2z"/>
	<path class="st1" d="M457.6,376.5c6.3,0.4,12.4,0.6,18.6,1.8c9.3,1.8,17.4,6.5,25.5,11c11.5,6.4,22.9,12.5,36.5,12.1
		c2.1,0,2.7,0.7,2.9,2.8c0.8,9.4,3,18.9,2.6,28.3c-0.7,17.2-5,33.8-11.4,49.8c-3.5,8.8-6.7,17.7-10.3,26.4
		c-4.3,10.6-2.2,20.7,2.1,30.7c1.5,3.5,3.3,7,4.7,10.5c1.4,3.7-0.1,6.6-3.3,8.7c-4,2.6-8.8,3.3-13.3,3.8c-18,1.7-36.1,2.6-53.9-1.7
		c-8.8-2.1-11.1-6.7-7-14.8c3.2-6.5,5.8-13,7.1-20.3c1.2-6.8-0.8-12.7-1.6-19c-2.1-16.7-6.6-32.9-8.6-49.6
		c-1.4-11.5-3.3-23-2.6-34.6c0.4-8.1,0.7-16.2,0.8-24.2c0.1-15.5-2.8-30.7-5.1-45.9c-1.5-10.3-3.2-20.6-4.6-30.9
		c-1-7.5-2.6-15-1.9-22.6c1.6-17.7,1.6-35.8,11.7-51.5c6.7-10.4,16-17.5,28.5-19.5c7.5-1.2,15-2.2,22.6-2c18.2,0.5,35.6,3.8,52,12
		c10.3,5.2,20.7,10.4,30.3,16.7c9.9,6.6,14.3,17,17.8,27.7c3.3,10.2-1.4,19.1-6.3,27.2c-8.1,13.3-17.1,26-28,37.3
		c-2.4,2.5-4.4,5.7-7.1,7.9c-6.1,4.8-9,10.4-8.5,18.7c0.6,10.3-7.1,15.3-17.1,13.8c-9.9-1.4-18.9-5-27.5-9.6
		c-6.9-3.7-14.3-6.2-21.8-7C472.9,369.5,464.7,371.3,457.6,376.5z"/>
</g>
</svg>
