<?xml version="1.0" encoding="utf-8"?>
<!-- Generator: Adobe Illustrator 23.0.1, SVG Export Plug-In . SVG Version: 6.00 Build 0)  -->
<svg version="1.1" id="Layer_4" xmlns="http://www.w3.org/2000/svg" xmlns:xlink="http://www.w3.org/1999/xlink" x="0px" y="0px"
	 viewBox="0 0 1000 1000" style="enable-background:new 0 0 1000 1000;" xml:space="preserve">
<style type="text/css">
	.st0{fill:#6E3720;}
	.st1{fill:#FB9A7A;}
</style>
<g>
	<path class="st0" d="M489.5,571.2c-11.2,0.3-22.7,0-34.2-1.8c-9.6-1.5-17.1-12.5-14.5-22.2c0.7-2.6,1.4-5.2,2.7-7.5
		c5.9-10.2,5.9-21.2,3.1-32c-4.1-16-9.5-31.7-13.3-47.8c-2.6-10.6-3.9-21.6-4.7-32.6c-1.1-16.1,0.2-32.7-7.7-47.8
		c-6.2-11.8-11.8-23.9-18-35.7c-9.6-18.1-16.3-37.3-21.5-57c-2.3-8.6-3.9-17.5-4.2-26.3c-0.4-13.1,3.7-25.1,11.7-35.9
		c9.1-12,21.8-18.2,35.2-23.4c15-5.9,30.7-8.9,46.8-7.8c15.4,1.1,30.9,1.6,45.7,6.7c11.7,4.1,22.6,10,30.6,19.6
		c6.9,8.1,9.2,17.6,7.8,28.8c-2.3,18.4-7.2,36-13.1,53.3c-1.9,5.5-5,10.6-7.5,15.9c-1,2.1-1.2,3.8-0.4,6.3
		c2.3,7.2,4.4,14.5,2.3,22.4c-1.1,4.1-3.3,7.2-6.4,9.9c-1.8,1.6-2.6,3.1-1.6,5.6c7.5,19.7,10,40.2,8.8,61.2
		c-0.8,13-1.1,26.1-2.1,39.1c-1.3,17.3-3.4,34.6-5.9,51.8c-1.2,8,0.6,15,3.6,22c1.9,4.3,4.3,8.3,5.6,13c3.3,11.9-4.1,18-13.3,20.1
		C513.5,571.8,501.7,571.5,489.5,571.2z"/>
	<path class="st1" d="M442.1,366.6c7.8-3.2,14.8-4.9,22-6.5c8.1-1.8,15.6,1,23.3,1.7c8.6,0.8,17,3.7,25.7,1.5c2.3-0.6,4,0.4,4.9,2.8
		c3.9,10.4,6.2,21.1,7.4,32.2c0.9,7.6,1.1,15.2,0.8,22.8c-0.8,19.5-2.3,39-3,58.5c-0.5,12.5-2.8,24.9-3.6,37.4
		c-0.6,8.8,1.4,17.2,5.7,25c0.5,1,1,2,1.5,3c4.5,9.2,2.7,13.2-7.4,15.6c-15.9,3.8-32,3.4-48.1,2.1c-4.7-0.4-9.2-1.1-13.8-2.2
		c-7.8-1.8-10.1-6.5-6.8-13.9c3-6.6,6-12.9,7.3-20.2c1.3-7.2-0.5-13.7-1.8-20.4c-4-21.7-12.1-42.4-16.3-64.1
		c-1.6-8.1-2.4-16.3-2.6-24.4c-0.4-17.3-3.6-33.7-11.7-49.1c-10.3-19.6-19.9-39.7-28.4-60.1c-5.7-13.7-9.5-28-11-43.1
		c-1.2-11.9,1.1-22.5,7.1-32.6c4-6.7,10-11.2,16.7-14.8c9.7-5.1,19.3-10,30.2-12.3c15.9-3.3,31.7-4.3,47.9-1.7
		c7.1,1.2,14.4,1.2,21.3,3.3c10.8,3.3,21.3,7.5,29.2,16c6.6,7.1,9.1,15.6,7.3,25.3c-1.3,7.1-1.3,14.4-3,21.4
		c-3.4,13.9-8.6,27.2-14.4,40.2c-3.4,7.6-3.9,14.3-1.7,22.4c3.1,11.3-4.8,19.3-14.4,21.3c-8.4,1.7-16.3-0.2-24.3-1.6
		c-10.7-1.8-21.5-2.6-32,0.6C450,354.7,444.7,358.6,442.1,366.6z"/>
</g>
</svg>
