<?xml version="1.0" encoding="utf-8"?>
<!-- Generator: Adobe Illustrator 23.0.1, SVG Export Plug-In . SVG Version: 6.00 Build 0)  -->
<svg version="1.1" id="Layer_4" xmlns="http://www.w3.org/2000/svg" xmlns:xlink="http://www.w3.org/1999/xlink" x="0px" y="0px"
	 viewBox="0 0 1000 1000" style="enable-background:new 0 0 1000 1000;" xml:space="preserve">
<style type="text/css">
	.st0{fill:#6E3720;}
	.st1{fill:#FB9A7A;}
</style>
<g>
	<path class="st0" d="M489.2,571.2c-10.9,0.3-22.5,0-34-1.8c-9.6-1.5-17.1-12.4-14.5-22.2c0.5-2,0.9-4.1,2-5.8
		c6.7-11.3,6.6-23.2,3.2-35.5c-4.4-15.7-7.5-31.7-9.6-48c-1.4-10.8-1.9-21.7-2.6-32.6c-0.9-14.3,2.5-28.2,5-42.2
		c2.5-13.9,4.8-27.8,7.6-41.6c3.4-16.6,7.3-33,11.1-49.5c2.5-11,6.8-21.7,13.6-30.5c9.3-12.2,21.2-21.5,37.5-23.3
		c27.4-3,52.3,4.5,75.6,17.9c10.4,6,19.4,14.5,28.5,22.6c8.1,7.2,14.2,15.3,18.7,25c9.5,20.4,5.8,32.6-7.3,50.2
		c-13.3,18-31.4,30.7-49.5,43.4c-3.8,2.7-3.1,6.6-3.3,10.2c-0.6,12-0.9,24.1-4.1,35.6c-2.4,8.5-5.8,16.6-9.3,24.8
		c-7.4,17.3-16.5,33.9-25.2,50.6c-3.1,6-3.1,11.7-0.1,17.7c2.1,4.2,4.4,8.3,5.7,13c3.3,11.9-4.1,18-13.2,20.1
		C513.5,571.8,501.7,571.4,489.2,571.2z"/>
	<path class="st1" d="M468.9,395.1c12,2.5,21.9,6.2,31.6,10.9c8.6,4.1,15.4,11,23.8,15.4c9.9,5.3,20.1,8.9,31.5,7.4
		c0.4-0.1,0.9,0.2,1.5,0.3c-3.2,13.3-8.4,25.8-13.6,38.4c-5.8,14.1-12.8,27.7-19.1,41.6c-4.7,10.4-6.2,21.6,0.5,32.2
		c1.1,1.8,2,3.7,2.8,5.6c3,7.1,0.7,11.9-7,13.6c-5.5,1.2-11,2.7-16.5,2.8c-15.8,0.4-31.7,1.2-47.3-2.9c-7.4-1.9-9.4-6.7-6.1-14
		c2.8-6.1,5.8-12,7.1-18.8c1.6-8-0.7-15.1-2.4-22.6c-3.8-17.2-8-34.3-8.8-52.1c-0.4-9.1-0.8-18.1-0.6-27.2c0.2-11.4,2.1-22.7,3.5-34
		c2.1-16.7,5.1-33.2,8.3-49.7c3.6-18.9,5.1-38.4,12.6-56.5c3.3-8,6.3-16.3,12.2-22.8c7.8-8.6,17.4-13.6,29.3-15
		c12.3-1.4,24.1-0.3,35.7,3.2c16.1,4.9,31,12.3,44.1,23c7.2,5.8,14.3,11.7,20.4,18.6c6.8,7.6,12.4,15.8,14.9,26
		c1.4,5.8-0.1,10.8-2.2,15.8c-4.3,10.3-11.5,18.3-19.7,25.8c-13,11.8-26.6,22.7-41.2,32.5c-2.8,1.9-2,5.5-2.6,8.4
		c-1.7,9.6-5.7,14.5-14.8,15.6c-6.4,0.8-12.9-0.9-18.2-4.9c-12.7-9.6-26.3-17.1-42.4-19.1C480.8,392,475.6,393.8,468.9,395.1z"/>
</g>
</svg>
