<?xml version="1.0" encoding="utf-8"?>
<!-- Generator: Adobe Illustrator 23.0.1, SVG Export Plug-In . SVG Version: 6.00 Build 0)  -->
<svg version="1.1" id="Layer_4" xmlns="http://www.w3.org/2000/svg" xmlns:xlink="http://www.w3.org/1999/xlink" x="0px" y="0px"
	 viewBox="0 0 1000 1000" style="enable-background:new 0 0 1000 1000;" xml:space="preserve">
<style type="text/css">
	.st0{fill:#6E3720;}
	.st1{fill:#FB9A7A;}
</style>
<g>
	<path class="st0" d="M489.9,571.2c-11.6,0.3-23.2,0-34.7-1.8c-9.6-1.5-17.1-12.5-14.3-22.2c0.5-1.6,0.4-3.3,1.4-5
		c7.7-12.7,6.9-25.6,2.3-39.3c-4.4-13.3-7.8-27-9.1-41.2c-0.8-9.1-2-18.2-1.9-27.4c0.2-18.7,3.5-36.4,12.5-53.2
		c14-26.3,26.8-53.3,40.2-79.8c5.2-10.2,11.6-19.7,18.9-28.4c6.2-7.4,14.9-11.3,23.9-14c22.5-6.7,42.7-0.5,62.3,10.5
		c17.4,9.8,30.9,23.4,42.8,39.1c5.3,7,11.8,13.1,15.8,20.9c7.7,15,10.3,30.6,2.8,46.6c-3.7,7.8-10.8,12.7-17.2,18
		c-11.9,9.8-25.2,17.6-38.9,24.5c-3.8,1.9-7.6,4.4-11.6,5.2c-5.4,1.1-7.4,4.6-10,8.7c-8.2,12.9-10.5,28.4-18.4,41.4
		c-6.6,10.8-12.6,21.9-19,32.9c-3.9,6.7-4.8,14.3-6.4,21.7c-0.7,3.4,0.7,6.6,2.3,9.6c2.3,4.3,4.8,8.6,5.4,13.6
		c1.3,10.2-4,15.5-14,17.7C513.5,571.8,501.6,571.5,489.9,571.2z"/>
	<path class="st1" d="M481.1,400.6c8.3,4.2,15.5,8,22.1,13c8.5,6.5,14.3,15.4,22.1,22.5c5.2,4.7,10.1,9.5,16.7,12.1
		c3.4,1.3,6.9,2.3,10.6,3.5c-2.5,8.6-6.9,16.3-11.2,24c-8.5,15.2-15.6,30.9-18.6,48.2c-1.1,6.2,0.2,12.5,2.8,18.4
		c0.5,1.2,1.2,2.3,1.8,3.4c4,8.5,2,12.7-7.4,15c-16.1,3.8-32.3,3.5-48.6,2.1c-4.7-0.4-9.2-1.1-13.8-2.2c-7.6-1.8-10.1-6.6-6.7-13.6
		c3.4-7.1,6.6-14.1,7.8-22.1c0.7-4.9,0.2-9.5-1.1-13.8c-6.1-21-11.2-41.9-12.5-63.9c-0.7-12.6,0.5-24.7,2.4-36.9
		c0.7-4.7,2.8-9.2,4.8-13.5c8.9-19.1,18-38,27-57.1c6-12.6,11.5-25.5,18-37.8c5.2-9.8,11.4-19.4,20.3-26.1c14.5-11,30.9-12.1,48-6.5
		c17.9,5.9,33.8,15.4,46.8,28.7c12.1,12.3,24.5,24.7,31.7,41c5.1,11.4,5,22.9-0.5,34c-3.3,6.6-10.2,10.2-15.6,15
		c-16,13.9-35,22.4-54.3,30.6c-2.7,1.2-4.4,2.9-5.6,5.9c-1.8,4.3-3.1,9-7.4,12c-4.8,3.4-9.6,3.9-14.9,1.6
		c-6.7-2.9-12.2-7.1-17.1-12.9c-10.1-11.7-22.1-21.1-37.9-24.2C488,400.2,485.2,400.6,481.1,400.6z"/>
</g>
</svg>
