<?xml version="1.0" encoding="utf-8"?>
<!-- Generator: Adobe Illustrator 23.0.1, SVG Export Plug-In . SVG Version: 6.00 Build 0)  -->
<svg version="1.1" id="Layer_4" xmlns="http://www.w3.org/2000/svg" xmlns:xlink="http://www.w3.org/1999/xlink" x="0px" y="0px"
	 viewBox="0 0 1000 1000" style="enable-background:new 0 0 1000 1000;" xml:space="preserve">
<style type="text/css">
	.st0{fill:#6E3720;}
	.st1{fill:#FB9A7A;}
</style>
<g>
	<path class="st0" d="M489,571.2c-10.9,0.4-22.4-0.1-33.9-1.8c-9.6-1.5-16.8-12.6-14.3-22.4c0.9-3.5,2.7-6.7,4.1-10
		c3.1-7.3,3.4-14.8,2.8-22.8c-1.1-14.2-7.8-26.6-11.5-40c-4-14.4-6.8-29-8.6-43.8c-1-7.8-1-15.8-3.6-23.5c-1.7-4.9-4.2-9.1-6.6-13.6
		c-15.1-28.5-34.5-54.7-47.2-84.5c-5.7-13.2-9.8-26.9-11.9-41.3c-1.6-10.6-0.5-20.7,3.2-30.5c3.4-9.1,9.4-16.5,17.1-22.4
		c11.5-8.9,23.9-15.9,37.8-20.4c7.1-2.3,14.2-4.2,21.7-4.8c6.5-0.5,13-2.3,19.6-1.9c16.9,1,33.7,3.1,49.1,10.4
		c10.6,5,20.4,12.3,23.9,24.6c2.4,8.3,2.3,16.7,0.8,25.3c-0.8,4.6-0.5,9.3-0.9,13.9c-1.5,16.4-4.4,32.3-10.8,47.5
		c-0.8,1.9-1,3.9,0.3,6.2c6.9,12.3,6.1,24-3.4,34.6c-1.5,1.7-1.3,2.7-0.4,4.4c5.3,9.7,11,19.3,15.5,29.4c4.9,11,6.9,22.7,4.7,34.9
		c-1,5.3-0.5,10.9-1,16.4c-1.1,12.8-2.5,25.5-4,38.2c-0.5,4.6-0.7,9.3-1,13.9c-0.6,10.1-1.1,20.2-1.9,30.3c-0.5,5.6,1,11.3,3.2,16.7
		c2.2,5.1,5.2,9.6,6.7,15.1c3,11.4-3.8,17.8-13.5,19.9C513.3,571.7,501.5,571.5,489,571.2z"/>
	<path class="st1" d="M438.4,374c6.1-3.5,10.1-8.7,16-11.4c10.1-4.7,20.5-4.9,31.2-3.5c6,0.7,12,0.9,17.7-0.9
		c1.8-0.6,2.5-0.2,3.5,1.2c9.5,13.9,16.9,28.8,19.4,45.6c1.3,9-0.4,18.1-1.3,27.1c-0.5,5.4-0.9,10.9-1.3,16.3
		c-1.1,15.4-3,30.8-3.5,46.3c-0.2,7.4-0.5,14.9-0.7,22.3c-0.2,9,1.7,17.5,6,25.5c0.4,0.7,0.7,1.4,1.1,2.2c4.9,9.9,3.3,13.4-7.5,16.1
		c-15.7,3.9-31.6,3.3-47.6,2c-4.7-0.4-9.2-1.1-13.8-2.2c-7.9-1.8-10.2-6.5-6.8-13.9c3.1-6.7,6.1-13.2,7.4-20.7
		c1.4-7.7-0.4-14.8-2.3-21.7c-4-14.7-9.6-28.8-12.8-43.7c-2.5-11.4-5.3-22.8-5.7-34.6c-0.8-20.1-9.3-37.4-20.1-53.8
		c-12.5-19.2-24.7-38.7-34.8-59.3c-6.6-13.4-12.5-27.1-15-41.9c-2.9-16.6-1.6-32.8,11.8-45c14.5-13.3,32-21.2,51-25.6
		c8.9-2,17.9-4.5,27.1-3.8c18,1.4,35.7,4.2,51.7,13.3c13,7.4,15.7,17.4,14,31.6c-0.7,5.9-0.9,11.9-1.4,17.8
		c-1.8,18.1-5.1,35.8-11.8,52.7c-0.8,2-0.9,3.5,0.2,5.3c1,1.7,1.8,3.4,2.6,5.2c5.6,12,0.1,22.9-12.9,26.4
		c-5.5,1.5-10.8,1.8-16.6,1.1c-9.9-1.1-20-0.5-29.4,3.7C445.1,357.4,441.5,365.1,438.4,374z"/>
</g>
</svg>
