<?xml version="1.0" encoding="utf-8"?>
<!-- Generator: Adobe Illustrator 23.0.1, SVG Export Plug-In . SVG Version: 6.00 Build 0)  -->
<svg version="1.1" id="Layer_4" xmlns="http://www.w3.org/2000/svg" xmlns:xlink="http://www.w3.org/1999/xlink" x="0px" y="0px"
	 viewBox="0 0 1000 1000" style="enable-background:new 0 0 1000 1000;" xml:space="preserve">
<style type="text/css">
	.st0{fill:#6E3720;}
	.st1{fill:#FB9A7A;}
</style>
<g>
	<path class="st0" d="M513.4,261.5c17.3,0.8,31.9,4.6,46,10.9c10.5,4.6,20.6,9.8,30.3,15.8c12.1,7.5,21.5,17.6,26.4,31.1
		c4.2,11.5,0.8,22.4-4.1,33c-8.6,18.6-20.4,34.8-34.7,49.4c-5.2,5.3-7.8,11.3-8.2,19c-0.6,9.7-4.5,18.5-13.3,24
		c-1.2,0.7-1.2,1.3-1.3,2.7c-0.4,12.5,0.8,25.5-5.8,37c-5.2,9-13.2,15.3-21.4,21.6c-20.8,16.2-45,25.4-69.5,34
		c-17.1,6.1-34.8,10.2-52.4,14.4c-10.2,2.4-20.7,3.9-31.2,4.1c-12.2,0.3-18.1-7.7-15.7-19.8c4.2-22.1,15.8-40.4,28.6-58.2
		c12.6-17.5,26.5-33.8,42-48.9c4.3-4.2,7.5-9.5,11.4-14.1c1.7-2.1,1.1-4.4,0.9-6.5c-1.4-11.7-3.2-23.3-4.7-35
		c-0.5-4.3-0.8-8.7-0.8-13c-0.1-8.9-1.8-17.7-1.2-26.6c1.1-16.9,2.7-33.7,12.3-48.4c6.3-9.7,15.5-16,26-20.3c9.2-3.8,19-5.1,29-5
		C506.4,262.8,510.8,260.6,513.4,261.5z"/>
	<path class="st1" d="M446.8,448.5c2.4-12.9,3.5-25.2,3.2-37.4c-0.4-12.8-2.4-25.6-3.6-38.4c-0.5-4.8-0.4-9.6-0.9-14.5
		c-1.8-16.7-2-33.6,2.9-49.8c6.1-20.5,18.3-32.5,40.4-35.1c6.4-0.7,12.8-2.1,19.2-1.8c18,0.9,35.8,3.5,52.1,11.9
		c11.1,5.7,22.8,10.5,32.8,18.3c8.3,6.5,14.3,14.4,15.5,25.1c0.7,6.7-1.4,13.1-4,19.1c-7.8,17.6-18.3,33.5-31.5,47.6
		c-3.8,4.1-7.3,8.6-11,12.8c-1.3,1.4-1.1,2.9-1.2,4.5c-0.3,3.2-0.5,6.5-0.6,9.6c-0.4,12.1-13.8,15.9-22.9,13.5
		c-8-2.2-15.8-5.4-23.8-7.3c-9.5-2.2-18.9-1.6-28.4,4.4c10.8,1.9,20.5,3.5,30.1,5.4c7.6,1.5,13.9,6.8,21.4,8.3
		c3.5,0.7,4.2,2.2,4.9,5.6c1.7,8.4,0.2,16.4-1.5,24.4c-1.5,7.1-7,11.9-12.2,16.4c-11.5,10.1-24.4,18.3-38.3,24.8
		c-19.5,9-39.7,16.2-60.3,22.2c-10.3,3-20.6,6-31.1,7.9c-7.4,1.4-14.8,2.6-22.3,3.6c-7.2,1-10.6-4.3-8.9-12.2
		c2.6-13.1,9.2-24.6,16.1-35.8c9.6-15.7,21.7-29.5,33.9-43.2c8.2-9.2,18.1-16.7,24.9-27.2c0.5-0.8,1.1-1.8,2.2-1.3
		c0.9,0.4,0.6,1.4,0.6,2.2C444.4,437.5,445.5,442.6,446.8,448.5z"/>
</g>
</svg>
