<?xml version="1.0" encoding="utf-8"?>
<!-- Generator: Adobe Illustrator 23.0.1, SVG Export Plug-In . SVG Version: 6.00 Build 0)  -->
<svg version="1.1" id="Layer_4" xmlns="http://www.w3.org/2000/svg" xmlns:xlink="http://www.w3.org/1999/xlink" x="0px" y="0px"
	 viewBox="0 0 1000 1000" style="enable-background:new 0 0 1000 1000;" xml:space="preserve">
<style type="text/css">
	.st0{fill:#6E3720;}
	.st1{fill:#FB9A7A;}
</style>
<g>
	<path class="st0" d="M491.4,200.1c21.8,1.1,40.9,5.7,59.2,13.7c11.2,4.9,21.8,10.6,29.9,19.9c5.1,5.7,10.3,11.4,12.9,19.2
		c2.4,7.4,0.5,14-1.3,20.6c-4.8,17.6-13,33.8-22.7,49.3c-3.2,5.2-6.9,9.9-10.8,14.5c-2.5,2.9-2.9,5.7-1.8,9.3
		c1.9,6.2,4,12.5,1.6,19.1c-0.3,0.7-0.4,1.6-0.9,2.1c-4.6,4.8-3.8,10.8-4,16.7c-0.6,20.2-6,38.9-17,56.1c-12,18.8-26.1,36-39.5,53.7
		c-7.5,10-16.6,18.8-24.9,28.1c-7.6,8.5-15.1,17.1-22.7,25.6c-2.6,2.9-5.3,5.6-8.7,7.6c-7.2,4.1-14.4,2.3-18.8-5.4
		c-4.3-7.7-7.1-15.9-7-24.9c0-3.2-0.9-6.4-0.9-9.5c0.3-16,2-32,3.6-48c1.7-16.5,5.7-32.4,10.1-48.3c2.3-8.5,5.2-16.9,9.1-24.8
		c3.1-6.3-0.5-12-2.1-17.7c-5.8-21-12.7-41.6-17.6-62.9c-1.2-5.4-1.9-11-2.2-16.6c-0.4-8.2-2.8-16.2-2-24.4c1-9.7,1.1-19.4,3.4-29
		c3.1-12.9,11.6-21.6,21.8-29.2c10.5-7.8,22.5-11.2,35.3-12.7C480.1,201.4,486.6,200.6,491.4,200.1z"/>
	<path class="st1" d="M457.4,364.8c4.6,1.3,8.9-0.1,13.1-0.6c12.4-1.4,23.4,3.1,34.2,8.3c8.6,4.1,17.7,6.2,27.1,7.4
		c1.3,0.2,2.6,0.1,3.9,0c7.2-0.6,7.2-0.6,7.2,7c0.1,16.8-5.8,31.6-14.2,45.8c-12.8,22-28.7,41.8-44.3,61.7
		c-4.9,6.2-10.4,11.9-15.7,17.8c-9.6,10.7-19.3,21.3-29,31.9c-2,2.2-4.1,4.5-7.4,3.6c-3.6-0.9-4.9-4.1-5.5-7.3
		c-3.4-17.2-3.7-34.5-2.2-52c1.6-17.9,4.7-35.6,9-53c2.7-10.8,5.9-21.7,9.9-32.1c4-10.3,3.5-20.2,0.2-30.4
		c-5.9-18.4-11.4-37-15.6-55.9c-2.2-9.8-3.8-19.8-4.6-29.9c-0.4-4.6-1.3-9.3-1.4-13.8c-0.3-16.1,1.3-32.4,13-44.6
		c9.9-10.2,23-15.6,37.1-17.7c5.9-0.9,11.8-1.8,17.7-1.9c18-0.2,35.2,3.9,52,10.5c9.7,3.8,19.1,8.3,26.5,15.3
		c8.2,7.7,17.9,15.6,16.3,29.1c-1.1,10-4.8,19.3-8.9,28.3c-6.2,13.6-13.6,26.6-22.3,38.8c-0.8,1.2-1.8,2.3-2.8,3.3
		c-3.4,3.4-5.1,7-3.4,12.2c1.1,3.6,1.5,7.7,0.9,11.4c-1.3,8.7-10,11.8-20.1,11.2c-16-1-29.6-9.1-44.4-13.4c-7.6-2.2-14-0.1-20.1,3.5
		C461.6,360.5,458.8,361.9,457.4,364.8z"/>
</g>
</svg>
