<?xml version="1.0" encoding="utf-8"?>
<!-- Generator: Adobe Illustrator 23.0.1, SVG Export Plug-In . SVG Version: 6.00 Build 0)  -->
<svg version="1.1" id="Layer_4" xmlns="http://www.w3.org/2000/svg" xmlns:xlink="http://www.w3.org/1999/xlink" x="0px" y="0px"
	 viewBox="0 0 1000 1000" style="enable-background:new 0 0 1000 1000;" xml:space="preserve">
<style type="text/css">
	.st0{fill:#6E3720;}
	.st1{fill:#FB9A7A;}
</style>
<g>
	<path class="st0" d="M488.6,571.2c-10.6,0.5-22.1-0.1-33.7-1.8c-9.1-1.4-17.2-12.1-14.3-21.4c3.7-12.2,0.7-22.9-5.2-33.3
		c-9.4-16.4-16.4-33.8-20.4-52.3c-2.3-10.8-3.2-21.9-3-33c0.2-13.3-2.3-26.4-4.6-39.4c-1.7-9.9-2.5-19.9-4.2-29.8
		c-2.8-15.6-3.6-31.4-2.6-47.2c0.9-13.8,2-27.8,9.6-40.3c9.7-15.9,24-24.2,41.8-27.7c13.7-2.7,27.3-2,41.1-0.2
		c18.5,2.5,35.4,9.2,51.7,17.8c12.9,6.7,24.2,15.5,32.2,27.8c7.2,11.1,8,23,3.1,35c-7.8,19.4-18.9,36.9-32.3,53
		c-2.8,3.4-5.6,6.7-8.9,9.5c-3.4,2.9-3.5,6.4-2.6,10c0.7,2.6,0.8,5,0,7.5c-1.8,5.2,1.9,9.5,3.1,14.1c3.6,14.4,5.3,29.1,4.3,43.8
		c-1.1,17.1-3.7,34.1-7.2,51c-2.1,10.3-5.8,21.7,1.3,32.1c1,1.4,1,3.6,1.2,5.5c1.2,10.3-5.4,15.2-13.7,17.1
		C513.6,571.9,501.6,571.5,488.6,571.2z"/>
	<path class="st1" d="M428.3,400.8c8.5-0.1,16.7,1,24.7,3.1c10.7,2.7,20.7,7.6,30.6,12.7c8.4,4.4,17,8.3,26.5,9.8
		c5,0.8,10,0.9,14.4-2.1c1.9-1.3,3.3-1,3.7,1.2c2.4,14.6,3.9,29.2,2.5,44.2c-1.2,12.3-3.7,24.5-4.3,36.8c-0.3,6.7-1.3,13.4-1.9,20.2
		c-0.7,7.4,1,14.3,3.7,21.2c2.6,6.3,0.2,10.7-6.4,12.4c-6.8,1.8-13.8,3-20.9,3.1c-14.4,0.1-28.8,0.9-42.9-2.8
		c-7.6-2-10.4-6-7.5-12.9c4.6-11,2.5-21.2-2-31.6c-6.3-14.6-12.8-29-18.3-43.9c-3.8-10.3-5.7-21.3-6.4-32.4
		c-1-16.3-2.1-32.6-5.4-48.8c-2.5-12.2-3.5-24.7-5.3-37.1c-1.8-12.1-3.3-24.4-2.7-36.6c0.6-11.5,1.1-23,5.7-34
		c7.3-17.3,20.4-26.2,38.6-28.4c6.9-0.8,13.8-2,20.6-1.8c18.2,0.5,36,3.6,52.6,11.8c11,5.4,22.3,10.4,31.2,18.8
		c9.3,8.7,17.8,21.5,12.4,36.9c-6,17.1-15.2,32.1-26.5,46.1c-5.5,6.9-11.1,13.8-16.7,20.6c-1.2,1.5-1,3-0.9,4.6
		c0.3,4.2-0.2,8.5-1.5,12.4c-2.7,8.2-12.8,12.6-21.4,10.2c-9.1-2.6-17.5-7-26.2-10.7c-9.6-4.1-19.4-7.8-29.8-8.8
		C441.4,394.1,434.5,396.7,428.3,400.8z"/>
</g>
</svg>
