<?xml version="1.0" encoding="utf-8"?>
<!-- Generator: Adobe Illustrator 23.0.1, SVG Export Plug-In . SVG Version: 6.00 Build 0)  -->
<svg version="1.1" id="Layer_4" xmlns="http://www.w3.org/2000/svg" xmlns:xlink="http://www.w3.org/1999/xlink" x="0px" y="0px"
	 viewBox="0 0 1000 1000" style="enable-background:new 0 0 1000 1000;" xml:space="preserve">
<style type="text/css">
	.st0{fill:#6E3720;}
	.st1{fill:#FB9A7A;}
</style>
<g>
	<path class="st0" d="M487.4,571.3c-9.3,0.4-20.7-0.2-32.1-1.8c-9.6-1.4-17.2-12.3-14.6-22.1c0.7-2.6,1.4-5.2,2.7-7.5
		c5.9-10.1,5.5-20.8,3.5-31.6c-2.9-14.9-8.4-29.1-12.8-43.5c-3.1-10-4.4-20.4-5.5-30.9c-1.6-16.2-1.2-32.7-5.9-48.4
		c-3.1-10.5-8.9-19.9-13.9-29.6c-8.7-16.9-16.9-34-23.2-51.9c-3.5-9.8-5.7-20-6.9-30.5c-0.4-3.9-1.2-8-1.5-11.8
		c-0.9-13.2,2.2-25.4,10.9-36c15.3-18.6,35.8-26.4,58.6-30.2c8.1-1.3,16.3-2.3,24.5-1.8c21.4,1.2,42.5,3.8,61.4,14.8
		c10.5,6.1,19.5,13.8,22.6,26.4c1.6,6.4,0.1,12.9-0.8,19.2c-2.7,17.4-7.6,34.2-13.4,50.7c-1.5,4.2-2.9,8.4-5.1,12.2
		c-1.9,3.2-1.5,5.8-0.7,9c2.6,9.4,5.2,18.9-0.8,28c-0.6,0.9-1,2.2-1.8,2.7c-4.5,2.9-3.8,6.5-2.5,11c4.3,15.3,9.1,30.7,7.9,46.9
		c-0.9,12.3-2,24.5-3.6,36.7c-0.9,6.6-1.5,13.4-2.1,20c-1.4,14.3-2.8,28.7-3.8,43.1c-0.5,7.5,1.2,14.8,4.2,21.8
		c1.9,4.5,4.6,8.6,5.8,13.4c2.9,11.4-3.6,17.5-13.3,19.8C513.5,572,501.5,571.3,487.4,571.3z"/>
	<path class="st1" d="M440.6,364.2c10.5-2.9,20.2-6.3,30.3-5.6c9.1,0.6,18,2.8,27,4.1c5,0.7,9.9,2.7,15.2,0.9
		c3.2-1.1,3.6,1.9,4.4,3.9c4.1,10.1,6,20.8,7.9,31.6c2.2,12.6-0.3,25-0.8,37.6c-0.3,5.8-0.8,11.6-1.1,17.4
		c-0.8,14.5-2.6,28.9-3.3,43.4c-0.6,11.8-1.1,23.5,1.3,35.1c1,5,3.9,9.1,5.9,13.7c3.6,8,1.5,12.4-7.1,14.4
		c-16.2,3.8-32.6,3.6-49.1,2.1c-4.5-0.4-8.9-1.1-13.3-2.1c-8.2-1.9-10.5-6.5-6.8-14.2c3.3-7,6.3-13.9,7.5-21.7c0.7-4.7,0-9.1-1-13.3
		c-3.1-14.2-7.7-28-11.9-41.9c-3.6-12-5.9-24.2-7.4-36.7c-1.8-15.6-1.5-31.5-5.7-46.8c-1.9-6.9-4.6-13.7-7.9-20.1
		c-11.2-21.9-22.7-43.6-30.5-67c-3.7-10.9-5.7-22.3-7.6-33.6c-1.8-10.2,0.5-19.5,4.5-28.5c4.2-9.5,12.2-15.6,21.1-20.4
		c13.7-7.3,28-12.1,43.8-13.5c13.9-1.3,27.2,1.1,40.7,2.9c10.9,1.5,21.4,4.1,31.1,9.3c10.2,5.5,17.9,13,19.1,25.3
		c0.6,6-1.2,11.8-2.2,17.7c-2.4,14.2-6.3,28.1-11.4,41.6c-2,5.2-4.3,10.4-6.8,15.4c-1.6,3.2-1.9,6-0.6,9.5
		c2.3,6.2,5.4,12.5,1.1,19.3c-2.8,4.4-6.4,7.3-11.5,8.9c-8.5,2.8-16.7,1.1-25.1-0.5c-7.1-1.3-14.2-3.1-21.3-3.4
		C457.1,348.4,447.2,353.1,440.6,364.2z"/>
</g>
</svg>
