<?xml version="1.0" encoding="utf-8"?>
<!-- Generator: Adobe Illustrator 23.0.1, SVG Export Plug-In . SVG Version: 6.00 Build 0)  -->
<svg version="1.1" id="Layer_4" xmlns="http://www.w3.org/2000/svg" xmlns:xlink="http://www.w3.org/1999/xlink" x="0px" y="0px"
	 viewBox="0 0 1000 1000" style="enable-background:new 0 0 1000 1000;" xml:space="preserve">
<style type="text/css">
	.st0{fill:#FB9A7A;}
	.st1{fill:#6E3720;}
</style>
<g>
	<path class="st0" d="M521.3,365.2c0,46.6,0,93.2,0,139.8c-0.5,0.4-1.1,0.8-1.8,0.7c-21.1-2.2-41.6-6.2-57.6-21.9
		c-19.7-19.4-33.7-42-39.2-69.5c-1.9-9.6-4.5-19.2-4.7-28.9c-0.5-26.2,1.2-51.9,18.4-74.1c11.7-15,23.3-30,36.5-43.8
		c14.6-15.2,28.6-31.1,42.7-46.8c14-15.7,29-30.4,47.6-40.7c18.8-10.4,36.7-7.6,53.6,4.3c18,12.8,30.1,30.4,39.1,50.2
		c5.6,12.3,10.1,25.1,11.7,38.6c1.2,10.2-0.4,20.2-3.5,29.8c-2.9,8.9-9.6,14.6-18.3,17.7c-14.1,5.2-28.8,7.8-43.8,8.8
		c-10.2,0.7-20.4,2.2-30.6,1.9c-2.1-0.1-3.8,0.8-5.3,2.2c-1.5,1.5-3,3-4.6,4.4c-8,6.9-17,6.7-24.4-0.7c-5.7-5.6-11.6-10.9-19.8-13.7
		c3,4.5,5.6,8.8,8.3,13c2.8,4.3,2.5,5.7-1.3,9.2c-1.9,1.8-4,3.3-5.9,5.1c-2.3,2.1-2.6,4.2-0.9,6.9
		C519.1,360.2,520.9,362.3,521.3,365.2z"/>
	<path class="st1" d="M521.3,365.2c-3.2-2.6-4.3-6.7-6.7-9.8c-1.2-1.5-0.1-2.3,0.9-3.2c3.2-2.9,6.4-5.9,9.7-8.7
		c1.9-1.6,1.7-2.9,0.4-4.9c-3.6-5.3-6.9-10.8-10.3-16.2c-0.1-0.2-0.1-0.5-0.2-1c8.7,2.5,16,7.1,21.6,13.8c8.4,10,19.8,7.2,25.9,0
		c3.4-4.1,7.4-5.1,12.7-5.3c23.7-0.8,47.5-2.1,70.2-10.5c11.5-4.3,17.9-12.5,19.6-24.5c0.7-5.1,1.8-10.2,1.9-15.3
		c0.1-11.2-3.4-21.8-7.1-32.2c-6.2-18-15.7-33.9-28.3-48.2c-10.4-11.8-22.4-20.4-38.1-23.6c-10.7-2.2-20.5,0.4-29.6,5.5
		c-18.3,10.2-33,24.8-47,40.1c-12.3,13.5-24.2,27.3-36.8,40.5c-17.1,17.9-33.6,36.4-47,57.4c-7.1,11.1-11,22.9-12.3,35.9
		c-0.8,8-2,16.1-1.6,24.1c1.1,24,5.9,47.4,16.9,69c5.1,10,12.4,18.6,19.8,27.2c7,8.1,15,14.5,24.2,19.6c9.1,5.1,19.4,6.4,29.5,8
		c3.9,0.6,7.9,1.3,11.8,2c0,0.5,0.1,1,0.1,1.5c-0.2,7-0.6,7.1-7.4,6.4c-9-0.9-17.9-2.3-26.6-4.9c-10.4-3.1-19.1-8.9-27.3-15.8
		c-13.3-11.1-23.5-24.8-32.9-39c-6.2-9.3-9-20.1-12-30.7c-4.3-15.5-6.7-31.3-5.9-47.4c0.9-18.7,2-37.6,11.6-54.5
		c5.3-9.3,12-17.5,18.5-25.9c9.1-11.8,19.2-22.8,29.1-33.9c5.3-5.8,10.3-11.9,15.7-17.6c13.4-14.2,25-30,39.3-43.3
		c11.1-10.3,22.3-20.6,36.1-27.3c9.3-4.6,19.2-8.1,29.7-7.2c13.8,1.1,26.4,5.7,37.4,14.7c11,8.9,20.3,19.3,27.7,31.1
		c7.1,11.3,12.6,23.7,16.4,36.7c3.1,10.7,5.9,21.7,4.8,32.9c-1,9.6-0.5,19.3-4.6,28.6c-5,11.6-14.7,17.2-25.8,20.7
		c-16,5.1-32.7,6.3-49.3,8.1c-5.3,0.6-10.6,1.1-15.9,0.7c-5.8-0.5-10.2,1.5-14.4,5.1c-5.7,5-12.6,7.7-19.9,9.6
		c-1.4,0.4-3.2,0.6-4.3,0c-5.7-3-9.4-0.2-12.8,4C526.5,360.2,523.8,362.6,521.3,365.2z"/>
</g>
</svg>
