<?xml version="1.0" encoding="utf-8"?>
<!-- Generator: Adobe Illustrator 23.0.1, SVG Export Plug-In . SVG Version: 6.00 Build 0)  -->
<svg version="1.1" id="Layer_4" xmlns="http://www.w3.org/2000/svg" xmlns:xlink="http://www.w3.org/1999/xlink" x="0px" y="0px"
	 viewBox="0 0 1000 1000" style="enable-background:new 0 0 1000 1000;" xml:space="preserve">
<style type="text/css">
	.st0{fill:#6E3720;}
	.st1{fill:#FB9A7A;}
</style>
<g>
	<path class="st0" d="M411.9,383.8c1.5-16.4,1.3-33.5,7.8-49.8c4.4-11,11.2-20.2,18.3-29.3c10.5-13.3,21.3-26.4,32.4-39.2
		c6-6.9,12.2-13.7,18.4-20.4c13.3-14.6,26.3-29.5,40.9-42.8c10.2-9.3,20.7-18.4,34-23.3c10.1-3.7,20.2-3.6,30.6-2
		c14,2.2,24.3,10.8,34.1,19.6c15.1,13.7,27.4,29.9,36,48.5c5.2,11.4,7.8,23.7,9.5,36.1c1.6,11.8-0.2,23.1-4.1,34.1
		c-3.7,10.6-11.9,16.7-22.2,20.6c-14.1,5.3-28.7,8.7-43.4,11.5c-8.5,1.6-17.2,1.8-25.9,2c-3.9,0.1-6.8,1.3-9.3,3.9
		c-6.5,6.6-14.6,10-23.4,11.7c-1.8,0.4-3.9,0.8-5.7-0.5c-3.5-2.7-4.1,0.3-4.7,2.6c-2.7,11.6-4.5,23.4-6,35.2
		c-1.7,13.6-4.5,27-5.6,40.7c-1,12.4-2.7,24.8-4.3,37.1c-1.1,8.5-2.3,17.5-8,24.5c-8.5,10.3-23.9,10.7-34.8,3.3
		c-12.1-8.2-22.5-18.3-31.6-30c-6.3-8-13.1-15.7-17.5-24.9c-6.9-14.5-10.9-29.9-13.3-45.8C412.8,399.7,412.4,392,411.9,383.8z"/>
	<path class="st1" d="M505.4,315.2c6.7,11.3,12.6,21.8,19.1,31.9c3.2,5,4.3,9.3,2.1,15.1c-3.9,10.6-4.2,22-6,33
		c-1.6,9.6-2.9,19.3-4.1,29c-1,7.8-1.9,15.6-2.7,23.4c-1.5,13.8-2.1,27.8-6.3,41.3c-1.1,3.7-2.6,7.3-4.8,10.5c-3,4.4-7.8,4-12.3,3.1
		c-12.3-2.3-20.8-10.7-28.8-19.2c-7-7.5-13.4-15.5-19-24.2c-8.1-12.6-12.3-26.4-15.7-40.6c-2.8-11.5-5.4-23.2-4.9-35.2
		c0.6-14.9,0.8-30,5.9-44.2c3.2-8.9,8.6-16.9,14.6-24.2c12.1-14.6,24.4-29.1,36.7-43.5c6.3-7.4,12.9-14.5,19.5-21.5
		c13-13.9,25.9-28,38.5-42.3c4.9-5.5,11.4-9.4,17.7-13.2c5.3-3.1,10.5-6.6,16.8-8.2c14.5-3.7,27.1,0.2,39.1,8.1
		c19.7,13.1,32.1,32.1,42.7,52.5c6.1,11.9,9.5,24.6,10.9,38.1c0.8,8.1-0.1,15.7-1.5,23.4c-1.7,9.2-8.7,14.4-16.7,17.9
		c-14.1,6.2-28.9,10-44.3,11.8c-10.4,1.3-20.8,2.3-31.2,2.7c-2.4,0.1-3.4,1.7-4.7,3c-4.3,4.4-8.5,8.7-15.1,9.9
		c-5.7,1-11.4-0.7-14.6-5.7c-5.6-8.8-11.3-17.5-18.1-25.4C515.2,319.1,511.7,315.9,505.4,315.2z"/>
</g>
</svg>
