<?xml version="1.0" encoding="utf-8"?>
<!-- Generator: Adobe Illustrator 23.0.1, SVG Export Plug-In . SVG Version: 6.00 Build 0)  -->
<svg version="1.1" id="Layer_4" xmlns="http://www.w3.org/2000/svg" xmlns:xlink="http://www.w3.org/1999/xlink" x="0px" y="0px"
	 viewBox="0 0 1000 1000" style="enable-background:new 0 0 1000 1000;" xml:space="preserve">
<style type="text/css">
	.st0{fill:#6E3720;}
	.st1{fill:#FB9A7A;}
</style>
<g>
	<path class="st0" d="M488.7,571.2c-10.6,0.5-22.2-0.1-33.7-1.8c-9.3-1.4-16.7-12.4-14.3-22c0.5-2,0.9-4.1,1.9-5.8
		c6.8-11.5,6.7-23.4,3.2-35.9c-4.7-17-10.2-33.8-13.5-51.3c-1.5-8-2.8-15.9-3.8-24c-1.6-14-0.3-28.5-5.8-42
		c-4.4-10.9-9.9-21.3-15.8-31.4c-8.3-14.2-15.6-29-22.1-44.1c-5.5-12.8-9.7-26-10.9-40.1c-0.4-4.4-1.8-8.8-1.8-13.2
		c0-10.9,2.1-21.4,8.6-30.6c11-15.7,26.6-24.7,44.2-30.7c13.6-4.7,27.7-6.8,42-5.9c16.2,1.1,32.5,1.8,47.9,7.7
		c13.1,5.1,25.3,11.7,31.5,25.4c3.3,7.3,3.6,15,2.9,23.3c-1.1,11.2-3.1,22-6.2,32.7c-3.3,11.7-6.4,23.4-11.7,34.4
		c-0.9,1.8-1,3.3-0.2,5.4c1.6,4.2,3.1,8.7,3.7,13.2c1.1,7.8-1.1,15-6.8,20.5c-3.1,3.1-3.6,4.8-1.1,9c4.6,7.7,5.8,16.9,8.3,25.5
		c4,13.8,1.9,27.4,0,41.2c-1.1,7.8-1.4,15.6-2.1,23.5c-1.3,13.7-2.7,27.4-3.8,41.1c-0.5,6,0.8,12.2-0.4,18c-1.2,6,0.1,11.4,1.3,16.9
		c1.1,5,4.2,9.2,6.4,13.7c1.3,2.6,2,5.4,2.3,8.2c1.2,10.3-5.3,15.2-13.7,17.1C513.6,571.8,501.6,571.5,488.7,571.2z"/>
	<path class="st1" d="M449.6,379.8c5.8-5.4,12-9.8,19-13.1c6-2.9,12.1-4.1,18.6-4.4c7.7-0.3,15.6,1,23.2-0.8
		c2.1-0.5,2.3,1.3,3.2,2.3c6.5,7.6,8.9,16.9,10.7,26.4c2.5,12.6,2.7,25.3,1.2,38c-0.8,6.7-0.3,13.5-1,20.3
		c-1.7,15.4-3.3,30.8-3.8,46.2c-0.4,12.5-3.2,25,0.6,37.6c1.5,5,4.1,9.4,6.1,14.1c3.4,7.8,1.3,12.3-6.9,14.2
		c-16.4,3.8-32.9,3.6-49.6,2.1c-4.5-0.4-8.9-1.1-13.3-2.1c-7.9-1.8-10.2-6.6-6.8-13.9c3.3-7,6.4-13.8,7.6-21.7
		c0.7-5,0.2-9.7-1.2-14.2c-6-20.2-12-40.5-16.2-61.2c-1.8-9.1-3.1-18.4-3.5-27.6c-0.8-17.5-3.5-34.3-12.3-50
		C416,355.5,407,339,399,322c-8.4-17.8-15-36.3-17.3-56.2c-2.9-24.7,11.6-45.5,33.1-53.9c12.1-4.7,24.5-8.4,37.3-10.6
		c10.4-1.8,20.8-0.9,31.2,0.5c10.1,1.3,20.2,2.2,29.5,6.2c12.9,5.6,24.3,13.4,27.8,28.4c1.4,6.1,0.1,12.3-0.8,18.3
		c-2.1,15.4-5.9,30.4-11.5,45c-1.4,3.6-2.7,7.3-4.5,10.6c-3.1,5.9-4.1,11.6-0.4,17.6c5.9,9.7-3.6,23.1-14.1,24.4
		c-5.5,0.7-11,1.1-16.8,0.4c-18.9-2.2-34.4,6.1-43,24.3C449.2,377.9,449.3,378.6,449.6,379.8z"/>
</g>
</svg>
