<?xml version="1.0" encoding="utf-8"?>
<!-- Generator: Adobe Illustrator 23.0.1, SVG Export Plug-In . SVG Version: 6.00 Build 0)  -->
<svg version="1.1" id="Layer_4" xmlns="http://www.w3.org/2000/svg" xmlns:xlink="http://www.w3.org/1999/xlink" x="0px" y="0px"
	 viewBox="0 0 1000 1000" style="enable-background:new 0 0 1000 1000;" xml:space="preserve">
<style type="text/css">
	.st0{fill:none;}
	.st1{fill:#040605;}
	.st2{fill:#6C351D;}
	.st3{fill:#6D361F;}
	.st4{fill:#6B351E;}
	.st5{fill:#030404;}
	.st6{fill:#AF8C93;}
	.st7{fill:#FEF0D5;}
	.st8{fill:#FB9A79;}
	.st9{fill:#6F5A5E;}
	.st10{fill:#6E5A5E;}
	.st11{fill:#11260B;}
	.st12{fill:#6D3720;}
	.st13{fill:#FEFEFE;}
	.st14{fill:#2B5260;}
	.st15{fill:#6C351E;}
	.st16{fill:#AE8C93;}
	.st17{fill:#1F4514;}
	.st18{fill:#A46D49;}
	.st19{fill:#D3F8F6;}
	.st20{fill:#142D0D;}
	.st21{fill:#8EAEBF;}
	.st22{fill:#152F0E;}
	.st23{fill:#86A5B9;}
	.st24{fill:#201C1B;}
	.st25{fill:#ADE0DE;}
	.st26{fill:#878787;}
	.st27{fill:#A36C49;}
	.st28{fill:#1C4113;}
	.st29{fill:#357825;}
	.st30{fill:#AAE4E5;}
	.st31{fill:#2C4B57;}
	.st32{fill:#64BE4A;}
	.st33{fill:#9B5B43;}
	.st34{fill:#458333;}
	.st35{fill:#FA9A79;}
	.st36{fill:#F79878;}
	.st37{fill:#A16A47;}
	.st38{fill:#090807;}
	.st39{fill:#B4F2F0;}
	.st40{fill:#090706;}
	.st41{fill:#2D505C;}
	.st42{fill:#87A3B2;}
	.st43{fill:#FEFEFD;}
	.st44{fill:#FCFCFC;}
	.st45{fill:#060504;}
	.st46{fill:#121113;}
	.st47{fill:#141A24;}
	.st48{fill:#E8DED8;}
	.st49{fill:#332A27;}
	.st50{fill:#A36C48;}
	.st51{fill:#F69877;}
	.st52{fill:#C3FEFE;}
	.st53{fill:#808181;}
</style>
<g>
	<path class="st0" d="M320.9,496c-0.2,0.2-0.5,0.4-0.7,0.6c-0.9,0.8-1.8,1.6-2.7,2.4v0c-0.3,0.3-0.6,0.5-0.9,0.8
		c-3.5-6.6-6.4-13.5-10.5-19.7c-13.8-21.1-13.4-25.3,6-40.1c5.3-4.1,11.4-7.2,17.6-11.1C328.3,452.2,317.9,473.2,320.9,496z"/>
	<path d="M931.5,355.3c-8.4-47.4-32.2-88.2-57.9-127.6c-33.2-50.9-76.6-87.5-140.9-91.2c-8.5-0.5-15-5.2-21.3-12.2
		c-21.9-24.2-45.1-46.8-74.9-62.1C585.1,35.9,530.4,29.7,473.8,31c-30.9,0.7-58.7,9-81.9,29c-8.3,7.2-16.9,8.2-24.9,5.9
		c-29-8.4-57.5-2.7-85.4,2.7c-38.3,7.4-70.5,27.5-101,52c-51.4,41.4-81.2,90.8-71.3,159.2c6.4,43.9,24.6,81.3,55.1,113.7
		c13.8,14.7,33.4,21.8,45.7,37.7c20.1,26.1,39.6,52.5,59.7,78.6c3.1,4,6.6,11.9,5.4,12.3c-15.6,5.6-7.3,18.8-9.7,28.4
		c0.1,5.7,2.6,10.4,6.6,14.3c0.2,0.2,0.4,0.3,0.6,0.5c0.5,0.4,1,0.9,1.5,1.3c3.1,2.5,6.6,4.4,10.4,5.6c0.6,0.2,1.2,0.3,1.8,0.5
		c0,0,0.1,0,0.1,0c4.6,0.5,8.4-1.2,11.6-4c0.4-0.4,0.9-0.8,1.3-1.2c0.1-0.1,0.1-0.1,0.2-0.2c8.2-10.3,3.1-19.5-2.7-28.6
		c-1-1.1-1.9-2.3-2.6-3.5c-0.5-0.8-0.8-1.5-1.2-2.3c-2.4-5.5-2.2-11.8-2.8-17.8l-1.5,1.1c-26.3-34.4-52.7-68.9-79-103.3
		c1.6-1.5,3.1-2.9,4.7-4.4c42.2,19.5,66.5,57.3,90.7,95.2c-0.3,0.3-0.7,0.5-1,0.8c0.4,0.5,0.9,1,1.4,1.4c5.3,1,9.2-1,11.9-5.7
		c0-0.4,0-0.9,0-1.3c-0.3,0.3-0.6,0.5-0.9,0.8c-3.5-6.6-6.4-13.5-10.5-19.7c-13.8-21.1-13.4-25.3,6-40.1c5.3-4.1,11.4-7.2,17.6-11.1
		c-1.3,23.3-11.8,44.3-8.8,67.1c-0.2,0.2-0.5,0.4-0.7,0.6c0.6,0.6,1.2,1.2,1.9,1.8c5.3,1.4,9.5,0.1,12.5-4.7c0,0,0-0.1,0.1-0.1
		c0.3-0.7,0.5-1.4,0.8-2.2c-1,0.1-2,0.3-3,0.4c0.8-22.1,5.6-43.8,12-64.6c3.1-10,17.1-9.9,26-8.8c19.1,2.4,38,6.9,55.3,16.7
		c15.9,9,21.9,19.7,12.3,37.5c-2.8,5.2-3.4,11.8-8.1,16.2c-0.4-0.1-0.8-0.2-1.2-0.2c0,0.4,0.1,0.8,0.2,1.2c0.1,0.6,0.2,1.3,0.4,1.9
		c5.9,5.8,12.4,5.7,19.3,2.4c0.3-0.2,0.7-0.3,1-0.5c0.2-0.2,0.4-0.4,0.6-0.7c-0.5-0.3-1-0.6-1.5-1c3.8-19.8,2.9-41.9,24.7-53.2
		c13.7-7.1,29.1-7.5,44-8.9c9.9-0.9,10.9,7.5,10,14.9c-3.1,23.7-6.6,47.4-9.9,71.1c-0.7,5-1.4,9.9-2.1,14.9c-1.3-1.8-2.6-3.4-4-5
		c-0.1,0.8-0.1,1.5-0.2,2.3c0,0.3-0.1,0.6-0.1,1c2.3,11.8,5.3,23.8-2.7,34.2c-0.2,0.3-0.5,0.6-0.7,0.9c-0.5,0.5-1,1.1-1.5,1.6
		c-0.4,1.6-0.5,3.2-0.2,4.8c0,0.3,0.1,0.6,0.2,0.9c0.1,0.2,0.2,0.3,0.4,0.5c7.4,9.1,13.2,0.9,19.5-2.3c0.9-0.6,1.7-1.1,2.6-1.6l0,0
		c2.4-1.4,4.9-2.5,7.5-3.3c0.3-0.1,0.6-0.2,0.9-0.3c0,0,0,0,0,0c2.3-0.8,4.6-1.3,6.9-1.8c1-0.2,2-0.4,2.9-0.6c0,0,0,0,0,0
		c0,0,0,0,0,0c0,0,0,0,0,0c0,0,0,0,0,0c4.2-0.8,8.5-1.2,12.8-1.7c1-0.1,2-0.2,3-0.4c14.1,1.3,27.5,5.1,39.6,12.5
		c0.6,0.4,1.3,0.8,1.9,1.2c0.2,0.2,0.5,0.4,0.7,0.6c49.1,43.9,36.7,120.7-23.5,144.7c-0.5,0.2-1.1,0.4-1.7,0.6
		c-2.4,0.8-4.8,1.4-7.1,1.7c0,0,0,0,0,0c-9.1,1.3-17.7-0.6-25.9-4.2c0,0,0,0,0,0c-3.5-1.5-7-3.3-10.4-5.3c-0.7-0.4-1.5-0.9-2.2-1.3
		c-6.3-3.4-11.8-8.2-18.6-10.6c-7.9-2.8-10.1,0.7-9.4,7c0.1,0.6,0.2,1.2,0.3,1.9c0.2,0.3,0.4,0.6,0.6,1c7.7,13.1,9.9,27.5,6.3,42
		c-8.4,33.8-13.8,68.4-29.3,100.2c-3.7,7.5-13.7,19.4-7.6,24.4c0.2,0.1,0.3,0.3,0.5,0.4c0.3,0.2,0.6,0.4,0.9,0.5
		c10.3,5,14.1-6.1,18.6-14.8v-0.2c0.7-1.4,1.5-2.8,2.3-4c0.1-0.2,0.2-0.3,0.3-0.5c3.4-7.1,5.7-14.7,9-21.9c0,0,0,0,0-0.1
		c0.5-1,1-2.1,1.4-3.2v0c4.7-11.6,6-24.1,9.2-36.1c0.3-1,0.6-2.1,0.9-3.1c0-0.1,0.1-0.2,0.1-0.4c3.1-10.2,5.9-20.4,8-30.8
		c0.2-1.2,0.5-2.3,0.6-3.5c0-0.2,0.1-0.4,0.1-0.6c0.7-4.9-0.1-10,2.3-17.1c2.9,14,7.3,26.9,9.4,39.9c0,0,0,0,0,0
		c1.1,6.9,1.6,13.9,0.8,21c-0.3,2.6-0.7,5.2-1.3,7.9c-1.3,8.7-3,17.2-5.1,25.7c-0.2,0.9-0.3,1.8-0.5,2.6c-0.4,2-0.8,3.9-1.3,5.8v0
		c-9.8,39.9-33.7,57.3-77.1,57.5c-13.2,0-25.9-3-38.7-4.7c-0.5-0.1-1-0.2-1.6-0.2c-0.1,0-0.1,0-0.2,0c-7.8,1.4-13.9,4.3-12.2,14
		c26,14,55.1,15.8,82.1,10.2c32.9-6.8,57.5-28,66.2-63.3c8.5-34.5,16.7-68.8,4.1-104.2c-2.8-7.7,1.3-10.7,10.1-11.2
		c51.2-3,87.1-38.2,91-89c0.6-8.3,1.5-11.2,11.2-12.9c20.1-3.6,40.7-4,60.4-8.1c59.4-12.5,110.9-40.7,153.3-84.8
		C933.4,492.4,944.2,426.8,931.5,355.3z M680.1,517.7c-11.8,3.9-21,11.2-32.8,14.3c-11.1,2.9-21,10.1-34.6,17.1
		C628.9,497.2,633.2,496.8,680.1,517.7z M539.5,435.4c31.8,4.5,51.6,25.4,68.7,49.8c7.3,10.5,2.4,49-6.9,59.4
		c-2.8,3.1-4.9,1.3-8.1,0c-21.5-9-43.1-5.3-66.5,1.5C530.8,508.3,538.7,472.1,539.5,435.4z M707.4,620.4c-6.3,3.6-15.8,1.6-24.1,4
		c-16.3,4.7-33,10.5-34.2-19.2c-0.7-16.9-9.3-35.3-28.4-45.5c22.8-13.7,45.7-22.4,67.6-32.9c6.9-3.3,8.7,1,12.3,3.9
		c25.2,19.8,28.2,48.3,29.7,77.1C731.2,625,715,616,707.4,620.4z"/>
	<path class="st1" d="M285.8,800.7c-1.7-20.8-2.7-41.4,19.5-55.7c-18.7-11.3-42.7-11.6-51.6-33.8c11.5-8.2,21.1,0.8,31.4,3.4
		c9.6,4.2,19.8,5.7,29.9,8.2c8.1,1,6.3,12.8,14.7,13.5c11.2-3.9,22.4-6.1,34.1-2.5c24.3,15.9,51.1,27.4,75.1,43.7
		c8.9,7.1,15.9,15.8,22,25.2c3.3,6,6.6,12,9.4,18.3c7,28.5-1.9,49.6-26.2,61c-8.9,4.2-18.2,7.4-26.9-0.8c-3.9-4.8-4.1-11-6.2-16.6
		c-11.8-30-28.5-40.5-60.5-38c-10.3,0.8-19.3-2.9-27.4-8.4c-6.4-4.3-12.7-6.1-20.1-3.8c-1.8,0.3-3.6,0.3-5.4,0
		C291,812.2,288.4,806.4,285.8,800.7z"/>
	<path class="st2" d="M285.8,800.7c4.6,3.4,9.4,6.7,11.3,12.6c6.7,9.6-0.3,17.3-3.8,25.2c-14.8,33.1-29.6,66.2-36.4,102.1
		c-1.9,10-6.8,22.6,9.2,27.2c19.4-1.2,35.7-10.7,52.3-19.4c39.1-20.5,70.8-49.5,96.3-85.4c4.4,4.6,2.4,10.8,4,16.1
		c3.4,7.5,5.1,14.7-4.7,19c-4.8,3.2-9.4,6.5-11.4,12.4c-37.1,41.3-84.1,66.2-136.7,81.4c-13.8,4-31.2-11.1-31.5-26.1
		c-0.7-40.9,13.2-78.2,29.7-114.7C271.6,834.3,281.5,818.7,285.8,800.7z"/>
	<path class="st3" d="M328.5,741.8c-15.6,3.9-6.5-11.5-12-15.5c-5.2-2.7-9-6.8-10.8-12.5c-1.4-4.5-1.7-9.1-1.4-13.7
		c-0.5-8.3,8.9-19.7-7.3-23.1c-4.5-0.3-8.8,0.8-13.3,1.2c-2,0-3.9-0.2-5.8-0.6c-28.9-10.9-33.7-22.5-23.6-57.4c2-4.9,7-7.8,8.9-12.8
		c0.5-6.1-2.3-11.4-4.2-16.9c-1.5-4.8-5-8.7-6.3-13.7c1.1-7,6.2-12.1,8.8-18.4c0.5-3-0.6-6.8,4-7.8c4.8,2.9,6.3,7.9,8.1,12.7
		c7.4,39.7,27.8,73.2,50.6,105.6c4.4,7.5,6.1,15.1,5.1,24.1c-2.2,19.6,6,27.3,25.9,25.5c14.2-1.3,28.1-4.9,42.1-7.4
		c14-2.4,27.1-0.4,38.8,8.2c4.3,3.1,8.6,7.1,6.2,12.9c-2.3,5.6-7.9,3.4-12,2.2c-21.9-6.4-43.8,1.2-65.6,0.1
		C351.7,732.5,338.9,731.3,328.5,741.8z"/>
	<path class="st4" d="M283.8,718.8c-10-2.7-19.2-8.4-30.1-7.6c-18.8-7.9-35-17.7-35.4-41.7c-0.1-5.2-4.3-10.3-6.9-15.4
		c-6-11.5-7-22.6,2.2-33c7.9-6.9,8.8-19.3,19.1-24.4c2.4-3.2,2.4,10.1,5.9,0.8c1.2-3.2,3.9-5,7.6-4.5c1.4,1.2,2.5,2.6,3.3,4.2
		c1.6,4.4,3.1,8.7,0.8,13.3c-30,28.5-24.4,61.6,14.5,85.5c10.2,6.3,22.5,4.4,33.3,8.3c4,2.6,5.4,6,3.6,10.6
		C296.6,720.2,289.9,718.2,283.8,718.8z"/>
	<path class="st5" d="M233.7,598.5c-5,9-9.2,18.7-20,22.6c1.3-32.1,16.1-53.8,47.8-62.8c1.2,7.5,0.5,14.4-6.7,18.9
		C251.8,588.4,241.6,592.3,233.7,598.5z"/>
	<path class="st6" d="M714.3,520c-12.1-5.1-16.2-12.9-15.4-27.1c3.9-69.5-44.5-126.1-111.7-133.7c-13.9-1.6-26.7,3.3-40.2,3.2
		c-2.4-5,0.6-8.5,3.3-12.2c0.4-18.8,8.6-35.4,16.2-51.6c18.9-40.6,40.7-79.9,71-113.4c25.1-27.8,56.3-38.2,94.4-34.4
		c60,5.9,99.5,39.8,130,88.1c20.1,31.7,38.5,64.2,48.6,100.7c6.4,35,3.7,70-4.1,104.2c-6.1,27-23.6,48.3-41.9,69.2
		c-37.2,42.6-106.3,33.7-140.3,13.2C720.9,524.1,718.1,521.3,714.3,520z"/>
	<path class="st7" d="M347.8,253.6c0.8-55.6,9.6-109.1,38.2-158.2c15.1-26,36.7-42.1,65.7-46.3c45.2-6.6,90.3-5.4,134.1,9.7
		c36.1,25,47.3,72.6,26.5,116.2c-26.6,55.6-66.9,94.2-129.2,108.6c-29.5,6.8-59.3,12.9-88.6,21.2c-13,5.1-25.9,10.3-38.9,15.4
		c-9.4-12.8-11.3-26.8-7.3-42.1C350.5,270.1,351,261.7,347.8,253.6z"/>
	<path class="st7" d="M265.7,304.8c-40.5,18-64.3,48.6-68.7,94.1C118.9,337,86.9,218,186.5,135.7C239,92.3,296.9,72.1,364.6,81.3
		c4.8,0.6,14.9-1.2,8.7,8.7c-22.4,35.9-26.6,76.7-33.7,116.8C328.5,249.7,307.4,285.1,265.7,304.8z"/>
	<path class="st8" d="M363.8,730.9c13.5-1.7,27-3.5,40.5-4.9c12.3-1.3,24.4-0.1,35.9,6.1c-8.1-12-19-18.5-34-16.4
		c-18,2.5-35.8,5.8-53.8,8.5c-22.4,3.5-35.6-10.4-28.4-31.7c3.5-10.2-3-15.8-5-23.4c0.9-1.7,2.3-2.5,4.3-2.4
		c5.6-1.3,8.6,11,15.4,2.8c0.8-10-3.7-17.5-11-23.8c-0.9-1.6-1.3-3.3-1.3-5.1c4.3-26.2-10.1-45.7-23.4-65.6c-2.6-2.5-5.3-5-5.3-9
		c7.4-10.7-1.3-18.3-5.2-26.8c0.3-18.2,13-22.3,27.5-24.5c6.7,8.5-2,15.8-1.8,23.8c-1,13.8,13.5,13.6,19.2,21.5
		c0.5,27.2,2.4,54,17.7,77.8c5.2,9.2,1.5,23.1,14.8,28.1c12.6,22,21.9,22.5,38,2.4c17.6-21.9,23.1-48.1,23.4-74.7
		c0.3-31.3-30.5-53.8-61.6-48.1c-6.7,1.2-13.3,6.3-20.1,0.2c-2.7-13.3-2.7-26.4,0.9-39.6c34.4-16.9,68.4-11.6,102.2,1.6
		c31,18.2,48.3,43.7,43.7,81.1c-4.9,15.2-9.4,30.5-20.2,43.2c-13,15.5-1,30.4,2.7,45.5c-2.4,32.4-10,63.6-25.1,92.5
		c-3.1,6-5.3,15.7-16.4,11.3c-23-17.3-51.7-24.8-73.8-43.6C361,735.4,361,733.1,363.8,730.9z"/>
	<path class="st9" d="M423.5,315.6c43,3.3,80.4,18,107.7,53.2c11.2,14.5,3,29.9,2.1,44.8c-0.4,6.6-8.2,4.6-13.1,4.4
		c-21.3-0.9-41.5,3.1-59.4,14.9c-6.8,4.5-11.3,3.3-17.2-1.2c-26.5-20.4-56.5-28.5-89.6-23.5c-9,1.4-10.1-1-8.5-9
		c3.8-18.4,7.2-36.9,10.1-55.4c1.2-7.6,6.1-10.8,11.8-14.2C384.7,319.6,403.3,315,423.5,315.6z"/>
	<path class="st6" d="M394.6,304.8c33.8-15.2,70.8-20,105.7-31.5C563.1,252.6,600,207,616,145c8.7-33.4-7.1-62-30.2-86.2
		c46,12.4,82.9,38.2,113.1,74.9c-92.9,31.4-126.5,107.6-150.1,191.4c-2.2,7.8-7,17.2,1.5,25.1c0.8,4.6-1.1,8.4-3.3,12.2
		c-2.4-0.5-5.9-0.2-7.1-1.7C502.4,313.6,452.9,297.8,394.6,304.8z"/>
	<path class="st10" d="M300.8,313.2c4.5,1,13,2,20.9,4.6c27.2,8.9,29.9,13.9,24.1,41.8c-0.8,3.8-1.5,7.6-1.9,11.5
		c-2.8,23.3-5.7,46.1-33.5,54.7c-11.6,3.6-17.3,22.3-28,20.4c-9-1.5-15.3-16.4-23.9-24.1c-9.5-8.7-18.9-19.2-31.9-21.4
		c-15.8-2.7-15.7-10-12-22.6C226.1,339.3,259,312.9,300.8,313.2z"/>
	<path class="st10" d="M684.4,484.2c3.5,14.3-3.8,13.4-17.8,12.3c-27.9-2.3-48.3-10.2-61.3-38c-8.6-18.4-29.9-25.6-48.8-33.2
		c-6-2.4-19.1-0.7-15.4-12.5c4.2-13.3-5.7-33.4,17.2-38.7c37.3-8.7,68.4,3.9,93.2,30.5C671.2,425.8,682.9,452,684.4,484.2z"/>
	<path class="st10" d="M714.3,520c20.8,4.3,39.8,13.9,61.5,16.7c33.7,4.3,61-3.4,84.8-27.4c29.7-30,46.6-64.8,46.3-107.7
		c-0.1-20.7,2.3-41.3,3.6-62c25.5,72.8,7.1,162.3-59.7,213.6c-27.3,21-55.4,40.7-88.5,52.1c-10.3,3.5-16.1,5.4-16.6-9.7
		C744.7,566.8,734.1,541.3,714.3,520z"/>
	<path class="st11" d="M413.9,898c4.1-5.7,4.3-12.3,4.7-19c18.1,9.2,29.7-3.8,39.8-14c11.9-12.1,14.5-28.1,6.4-44.4
		c12.3-36.1,26.8-71.5,35.8-108.7c0.8-3.2,3.1-5.7,7.1-5c17,11.3,14.4,29.6,10.9,44.2c-9.9,42.4-16.9,86-42.9,125.7
		c13.6-3.7,12.8-16.3,20.1-21.7c5.6,4.5,4.1,10,3.1,14.4c0.4-25,23.1-25.9,40.1-33.7C533.3,899.7,470.8,922.1,413.9,898z"/>
	<path class="st0" d="M707.4,620.4c-6.3,3.6-15.8,1.6-24.1,4c-16.3,4.7-33,10.5-34.2-19.2c-0.7-16.9-9.3-35.3-28.4-45.5
		c22.8-13.7,45.7-22.4,67.6-32.9c6.9-3.3,8.7,1,12.3,3.9c25.2,19.8,28.2,48.3,29.7,77.1C731.2,625,715,616,707.4,620.4z"/>
	<path class="st0" d="M601.3,544.6c-2.8,3.1-4.9,1.3-8.1,0c-21.5-9-43.1-5.3-66.5,1.5c4.2-37.8,12.1-74,12.9-110.7
		c31.8,4.5,51.6,25.4,68.7,49.8C615.5,495.6,610.5,534.1,601.3,544.6z"/>
	<path class="st12" d="M507.7,707c-11,32.5-16.8,66.8-32.8,97.6c-2.9,5.6-4.2,12.2-10.1,16c-2.5-5.4-5-10.8-7.5-16.2
		c7.8-31.1,21.8-60.2,27.9-91.9c2.8-14.7,1.6-26.2-9.1-36.5c-16.1-22.5-16.2-34.9,2-54.9c8.4-9.2,6.3-22.3,14.5-31
		c3.8-7.5,3.2-18.3,15-19.7c7.4,8.8,9.8-3.2,15-3.6c5.6-0.9,10.6-4.4,16.5-4.2c14.6-1.2,28.9-0.8,41.2,8.8
		c29.1,25.7,36.5,58.8,31.6,95.5c-3.7,28.2-19.7,46-48.5,51.1c-11.6,4.5-21.4-5.5-32.7-3.8c-5.9-3.8-11.7-7.8-17.8-11.4
		C508.2,699.9,508,703.7,507.7,707z"/>
	<path class="st13" d="M428.7,488.6c-31.3-6.3-62.3-1.7-93.2,2.8c-1,0.1-2,0.3-3,0.4c0.7,0.7,1.4,1.3,2.2,1.8
		c1.3,0.9,2.8,1.6,4.5,1.5c27.4-0.8,54.6-6.4,82.2-2.5c2.7,0.4,5.3-1,7.5-2.9c0.4-0.3,0.7-0.6,1-1
		C429.5,488.8,429.1,488.7,428.7,488.6z"/>
	<path class="st0" d="M438,472.7c-2.8,5.2-3.4,11.8-8.1,16.2c-0.4-0.1-0.8-0.2-1.2-0.2c-31.3-6.3-62.3-1.7-93.2,2.8
		c-1,0.1-2,0.3-3,0.4c0.8-22.1,5.6-43.8,12-64.6c3.1-10,17.1-9.9,26-8.8c19.1,2.4,38,6.9,55.3,16.7C441.6,444.2,447.7,455,438,472.7
		z"/>
	<path class="st0" d="M527.3,445c-3.1,23.7-6.6,47.4-9.9,71.1c-0.7,5-1.4,9.9-2.1,14.9c-1.3-1.8-2.6-3.4-4-5
		c-7-8-15.4-14.1-25.2-19.5c-11.6-6.3-24.9-6.7-35.9-13.4c-0.5-0.3-1-0.6-1.5-1c3.8-19.8,2.9-41.9,24.7-53.2
		c13.7-7.1,29.1-7.5,44-8.9C527.1,429.1,528.2,437.5,527.3,445z"/>
	<path class="st13" d="M515.2,530.9c-1.4-0.9-2.8-1.8-4.2-2.7c-19.2-12.4-38.9-24-60.9-31c-1.1-0.3-1.6-1.6-1.7-3
		c0-0.7,0-1.5,0.1-2.1c0.5,0.3,1,0.7,1.5,1c11,6.7,24.4,7.1,35.9,13.4c9.8,5.3,18.2,11.5,25.2,19.5
		C512.6,527.5,514,529.1,515.2,530.9z"/>
	<path class="st14" d="M562.7,713.8c36.5-10.5,50.2-35.8,45.1-74c-3.4-25.8-12.1-47.3-30.2-65.4c8.9-5.9,20.2,4.1,28.6-4.6
		c29.6,19.9,34.4,51.6,32.8,82.3c-1.8,34.7-20.9,60.6-56.6,70.8C574.9,721.9,567.1,721.5,562.7,713.8z"/>
	<path class="st15" d="M508.8,567.1c-0.4-1-0.9-1.9-1.3-2.9c-8.3-18.2-19.9-33-36.1-43.1c0,0,0,0,0,0c-5.7-3.5-11.9-6.5-18.8-8.8
		c-33.2-12.8-66.9-14.4-101.1-4.7c-0.4-0.3-0.8-0.5-1.3-0.7h0c-6.5-3.6-12.8-4.7-18,1.4c-0.1,0.1-0.1,0.1-0.2,0.2v0
		c-0.4,0.5-0.8,1-1.2,1.6c0,0,0,0,0,0c-0.1,0.1-0.2,0.3-0.3,0.4c-0.5,0.4-0.9,0.8-1.3,1.3c-2.2,2.4-4.2,5.5-8,4.6
		c-0.5-0.1-1-0.3-1.6-0.5c-8.9,5.8-19.7,9.5-25.3,19.3c-0.7,1.2-1.3,2.5-1.8,3.9c-7-6.7-9.8-14.1-3.6-22.9l1.5-1.1
		c4.6-3.5,9.2-7,13.9-10.5c0.3-0.3,0.7-0.5,1-0.8c3.8-1.3,7.5-2.7,11.3-4c0.3-0.3,0.6-0.5,0.9-0.8v0c0.9-0.8,1.8-1.6,2.7-2.4
		c0.2-0.2,0.5-0.4,0.7-0.6c4.3-0.1,9,1.1,11.5-4.1c1-0.1,2-0.3,3-0.4c31-4.5,61.9-9.1,93.2-2.8c0.4,0.1,0.8,0.2,1.2,0.2
		c5.4,6,12.5,2.3,18.7,3.2c0.5,0.3,1,0.7,1.5,1c11,6.7,24.4,7.1,35.9,13.4c9.8,5.3,18.2,11.5,25.2,19.5c1.4,1.6,2.7,3.3,4,5
		C520.4,544.3,522.8,557.2,508.8,567.1z"/>
	<path class="st16" d="M265.7,304.8c35.8-24.2,56.5-59.8,73.9-97.9c0.5,23.4-0.1,46.9,5,70c8,11.6,3.7,25.7,7.6,38.1
		c0.5,1.6-2.7,1.9-4.6,1.9C322.4,299.1,294.4,299.5,265.7,304.8z"/>
	<path class="st0" d="M305.3,503.8c-0.3,0.3-0.7,0.5-1,0.8c-4.6,3.5-9.2,7-13.9,10.5l-1.5,1.1c-26.3-34.4-52.7-68.9-79-103.3
		c1.6-1.5,3.1-2.9,4.7-4.4C256.8,428.1,281.1,465.9,305.3,503.8z"/>
	<path class="st17" d="M538.9,835.9c-3.5,3.6-6.4,9.5-10.5,10.5c-16,3.9-28,10.6-28.3,30.3c-5.9-7.1-3.1-14.7-4.3-21.5
		c2.2-6.7,2.9-13.9,7.9-19.4c2.3-1.2-0.8-0.1,1.5-1.2c30.4-15,31-17.3,10.3-41.7c2.7-11.6,5.4-23.2,8.2-34.9
		c6.5-1.2,10.6,3.5,11.7,8c3.5,14,10.4,27.6,7.8,42.8C544,818.2,541.6,827.1,538.9,835.9z"/>
	<path class="st0" d="M680.1,517.7c-11.8,3.9-21,11.2-32.8,14.3c-11.1,2.9-21,10.1-34.6,17.1C628.9,497.2,633.2,496.8,680.1,517.7z"
		/>
	<path class="st18" d="M452.6,512.4c32.9,3.8,51.9,22.3,56.2,54.7c-0.4,1.1-0.8,2.2-1.2,3.2c-5,6.6-10,13.1-15,19.7
		C494.8,556.2,481.7,530.2,452.6,512.4z"/>
	<path class="st19" d="M297.7,566c2.2,1.5,4.5,3.1,6.7,4.6c-3.8,27,2.6,50.6,22.9,69.6c0.3,1.4,0.5,2.8,0.8,4.3
		c3,6,0.9,11.6-1.5,17.1c-2,2.6-4.3,4.2-7.6,2.3c-15.5-19.8-26.8-42-35.1-65.6c-3.3-9.3-7.7-19.6,2.8-27.9
		C290.3,568.9,294,567.5,297.7,566z"/>
	<path class="st20" d="M515.5,792.9c13.9,0.8,20.7,9.2,19.4,22.1c-1.9,18.2-16,20.9-31.1,20.8C507.6,821.5,511.5,807.2,515.5,792.9z
		"/>
	<path class="st8" d="M286.6,570.4c-3.2,36.5,16.7,64.4,34.5,93.1c0.8,0.8,1.2,1.6,0.9,2.4c-0.2,0.8-0.5,1.3-0.7,1.3
		c-0.8,0.6-1.5,1.3-2.3,1.9c-18-23.2-31.2-49.1-42.7-76c-4.1-9.6-7.6-19.3-2.9-29.8C277.9,565.6,282.3,568,286.6,570.4z"/>
	<path class="st21" d="M606.2,569.8c-6,24-19.2,2.5-28.6,4.6c-12.9-8.7-27.7-8.1-42.3-8.3c5.8-11.8,20.1-1.9,27-10.7
		C578.7,554.8,593.5,559.2,606.2,569.8z"/>
	<path class="st22" d="M543.2,808.8c-7.4-16.6-5.1-36.9-19.5-50.8c0-8.3-1.7-16.9,6.5-26C540.9,757.5,550,781.5,543.2,808.8z"/>
	<path class="st23" d="M562.7,713.8c7,2.1,15.3,1.5,19.7,9.1c-19.3,9.5-35.5,0.8-51.7-8.7C541.3,706.3,552.1,717.9,562.7,713.8z"/>
	<path class="st24" d="M347.6,317c6.7-13.9-4.6-26.5-3-40c4.9-7.2,0.9-15.7,3.2-23.3c2.6,22.2,5.3,44.4,7.9,66.6
		C352.4,320.6,349.5,320.1,347.6,317z"/>
	<path class="st25" d="M562.3,555.4c-4.5,15-20.1,1.9-27,10.7c-4.2,0.4-8.2,4.6-12.7,0.7C533.2,553.8,549.3,559.9,562.3,555.4z"/>
	<path class="st26" d="M279.5,555.4c-7.5-3.2-6.1-10-7.2-15.2c-0.6-2.8-0.4-6.9,3.6-7.2c3.5-0.2,5.6,2.9,5.4,6.4
		C281.1,544.3,280.2,549.3,279.5,555.4z"/>
	<path class="st8" d="M265.4,972.4c-16.2,5.4-15.6-6.8-15.4-16c0.5-23.7,8.7-45.7,16.5-67.7c9.1-25.6,23.8-48.9,30.7-75.4
		c1.3-0.2,2.5-0.4,3.7-0.7c7.4-4.2,13.1-1,19.3,3.5c11.8,8.6,24.6,13.9,39.9,9.9c17.6-4.5,28.1,7.2,37.4,18.9
		c9.3,11.6,1.5,21.6-5.4,31.5C360,922,317,952.8,265.4,972.4z"/>
	<path class="st27" d="M265.4,972.4c35.4-20.3,70-41.6,99.8-70c11.9-11.4,19.9-25.6,29.6-38.4c7.8-10.2-11.1-37.8-25.5-34.5
		c-23.7,5.3-41.7-1.1-59.1-15.7c-2-1.7-6.2-0.9-9.4-1.2c7.1-7,13.3-7.2,21.1,0.2c8.1,7.6,19.8,12.1,30.2,8.6
		c11.4-3.8,20.6-4.1,30.2,3.1c13.8,10.3,29.9,18.6,32.1,38.5c-2.7,18-16.6,29-27.8,40.9c-29.6,31.1-66.5,51.4-106.1,66.8
		C276,972.4,270.5,971.8,265.4,972.4z"/>
	<path class="st28" d="M426.5,788.7c6,5.9,12.7,11.2,18,17.7c21.8,26.4,15.9,49.2-16.8,63.4c-5.4-39.6-38.8-50.6-68.2-64.6
		c-14-6.7-16.6-13.9-10.2-26.9c6.4-12.8,13.8-22.4,29.6-12.3c-17,14.4-16.7,17.5,3.2,32.4c8.2,6.1,15.7,13.2,24.6,18.4
		c1.6,1,3.1,2.4,5.9,1.6C411,805.8,413.1,794.5,426.5,788.7z"/>
	<path class="st27" d="M476.2,676c16.2,4,20.4,13.6,15.9,29.5c-9.5,33.7-14.7,68.9-34.7,98.9c-6.6-7.7-13.3-15.4-19.9-23.1
		c12.1-6.9,15.1-19.6,19.9-31.1C467.3,726.5,470.3,700.9,476.2,676z"/>
	<path class="st29" d="M426.5,788.7c-4.8,10.2-16.4,18.6-5.6,32.3c3.2,4.1-3.6,9-7.9,5.7c-15.6-11.8-33.6-20.7-46.7-35.6
		c-4.7-5.3-8.9-11.2-5.6-19.3c3.9-9.5,12.6-2.7,18.2-5.9C395.9,771,412.6,776.8,426.5,788.7z"/>
	<path class="st30" d="M364.4,748.2c-18.2,13.9-27.8,29.3-28.5,49.5c-0.1,4.1-0.6,8.4-5.1,9.4c-4.2,0.9-7.8-2.4-8.9-6
		c-6-19.8,7-34.6,14.9-50.3C342.9,738.3,353.3,745.7,364.4,748.2z"/>
	<path class="st31" d="M283.8,718.8c4.5-5.3,10.8-3.7,16.5-4.4c2.7,0.4,5.2-2,8-0.4c2.7,4.1,5.4,8.2,8.2,12.3
		C304.9,726.4,293.8,724.9,283.8,718.8z"/>
	<path class="st32" d="M316.9,769.6c-0.1,0.6-0.2,1.3-0.5,1.8c-2.9,6.6-4.8,18.4-13.4,14.6c-6.9-3.1-1.2-13.4,2.1-20.1
		C310.9,761.5,314.2,764.4,316.9,769.6z"/>
	<path class="st33" d="M363.8,730.9c-0.1,2.3-0.1,4.5-0.2,6.8c-12.2-2.7-23.7,0.8-35.1,4C336.4,725.6,351.1,731.5,363.8,730.9z"/>
	<path class="st34" d="M316.9,769.6c-3.9-1.2-7.8-2.5-11.8-3.7c3.7-8,10.1-12.5,20.7-15.1C324,758.7,322,764.7,316.9,769.6z"/>
	<path class="st35" d="M261.5,699.7c-27.2-9.1-31.2-35.1-36.7-56.9c-3.9-15.5,9-28.7,25.5-34.4c5.6,0.3,9,2.5,7.7,8.8
		c-0.1,3.2,0.2,6.5-0.5,9.5c-6.5,31.2-4,36.3,23.9,49C283,693.6,279.3,698.2,261.5,699.7z"/>
	<path class="st36" d="M274.6,623.1c7.8,6.1,11.2,14.7,14.5,22.9c2.1,5.3,13.4,11.9,2.7,16.8c-9.6,4.3-21.5,1.9-25.7-10.3
		C262.2,641.6,264.4,630.9,274.6,623.1z"/>
	<path class="st37" d="M261.5,699.7c13.5-2.4,17.4-12.6,19.9-24c1.2,0,2.4,0.1,3.6,0.2c11.5,7.5,18.4,16.8,12.1,31.1
		C284.7,707.3,272.3,707.5,261.5,699.7z"/>
	<path class="st38" d="M297.1,707c0.1-12-8.4-20.6-12.1-31.1c3.3-4.2,7.9-3.4,12.4-3.3c12.5,5.2,8.5,17.2,10.9,26.6
		c0,5,0,9.9-0.1,14.9c-2.6,1.5-5,6-8,0.4C300.5,711.4,300,708.7,297.1,707z"/>
	<path class="st39" d="M233.7,598.5c4.6-9.5,11.7-16.5,21.1-21.2c9.6,0,7.1,7,7.3,12.5c-4,8-10.1,8.2-17.2,4.7
		C241,595.3,241.6,609,233.7,598.5z"/>
	<path class="st40" d="M258,617.2c-2.6-2.9-5.1-5.9-7.7-8.8c-1.5-3.5-3.1-7-4.6-10.5c11.7-4.9,17.6,2.8,23.5,10.7
		C268.1,614.8,264.3,617.7,258,617.2z"/>
	<path class="st41" d="M308.3,699.2c-3.7-8.9-7.3-17.8-10.9-26.6C319.8,673.7,310.3,688,308.3,699.2z"/>
	<path class="st42" d="M269.2,608.5c-7.6-4.1-13.7-11.5-23.5-10.7c-0.2-1.1-0.4-2.2-0.8-3.3c5.7-1.6,11.5-3.1,17.2-4.7
		C264.5,596,266.9,602.3,269.2,608.5z"/>
	<path class="st7" d="M659.4,344c-14.9-0.8-25.8-0.1-36.9-2.8c-26-6.4-37.5-20.1-32-45.9c9.9-46.4,31.9-86.4,71.6-114.2
		c57.8-40.5,125.6-1.8,148.2,35c19.8,32.2,7,71.5-30.1,96.9C742.5,338.9,698.9,340.9,659.4,344z"/>
	<path class="st13" d="M367.1,209.8c3.7-45.5,17.7-87.4,45.3-124.1c2.7-3.6,5.9-7.1,9.6-9.6c11.6-7.8,24.4-21.3,37.9-8.8
		c13.6,12.5-2.5,23.9-9,33.1c-26.2,37.1-53.2,73.6-67.8,117.3c-0.8,2.4-2.2,4.7-3.5,7c-2.2,3.7-3.5,9.5-9.5,7.3
		c-4.4-1.7-2.8-6.7-3-10.4C366.9,217.7,367.1,213.7,367.1,209.8z"/>
	<path class="st13" d="M140.2,255.9c2.5-45.4,18.4-83.9,56.8-111.5c28.5-20.5,56.5-41.6,92.5-47.5c5.2-0.9,10.2-3.8,13.5,2.5
		c2.7,5,1.4,9.7-1.1,14.7c-5,9.7-14.3,14.7-21.6,21.9c-50.5,50.1-93.6,104.4-101,178.9c-0.4,4.4-2.3,8.8-3.9,13
		c-1.9,5-5,9.9-10.5,10.5c-6.9,0.7-7.3-5.7-9.2-10.5C146.3,304.8,139.3,281.3,140.2,255.9z"/>
	<path class="st43" d="M351.9,545.9c13.3-6.7,26.8-7.7,41.4-3.7c34.3,9.5,47.1,29.8,42.3,65.1c-3.8,27.7-11.2,53.3-32.3,73
		c-6.6,6.2-13,11.5-24.1,7.8c-11-3.7-9.2-12.1-10.9-19.6c1.1-11.2,8.4-25.2-12.2-26.2c-3.5-1.3-9.7-2.1-10.2-4.1
		c-6.2-25.8-19.5-50.6-11-78.5C338.4,552.3,344.5,548.3,351.9,545.9z"/>
	<path class="st44" d="M327.3,640.2c-3.1-0.4-7,0.2-9.3-1.5c-15.3-10.7-23.3-52.1-13.6-68.1c17.4,16,22.4,38.3,29.6,59.4
		C335.8,635.1,332.1,638.4,327.3,640.2z"/>
	<path class="st45" d="M351.9,545.9c-3.2,7.7-9.1,11.9-17,13.8c-12.7-1-21.8-5.8-21.8-20.4c2.7-2,6.1-1.6,9.1-2.5
		c7.9-6.5,9.3-14.9,7.2-24.3c-0.8-1.5-1.4-3-2-4.6c7.9-12.2,15.8-18.7,23.9-0.2C354.8,520.4,353.2,533.2,351.9,545.9z"/>
	<path class="st46" d="M356.1,642.3c6.8-9.3,13.1-6.2,17.8,1.6c5.9,9.6,7.5,19-5.6,24.7C349.3,666.7,352.1,654.8,356.1,642.3z"/>
	<path class="st47" d="M324.3,660.1c-0.7-5.7,0.3-11,3.8-15.6c20.3,0,13.5,15.9,15.5,26.6C330,680,327.8,668.9,324.3,660.1z"/>
	<path class="st48" d="M324.3,660.1c5.7,4.9,7.7,16.5,19.3,11c0.6,9.8-0.2,17.3-11.6,7.1c-3.8-3.4-7.1-7.3-10.6-11
		c-0.3-1.2-0.4-2.4-0.2-3.7C322.2,662.4,323.2,661.2,324.3,660.1z"/>
	<path class="st49" d="M327.6,507.9c1.5,0,3,0,4.5-0.1c0.4,13.2-5,24.5-11.9,35.2c-2.3-1.2-4.6-2.5-6.9-3.7
		c2.2-7.8,4.3-15.6,6.5-23.3C322.3,513.3,325,510.6,327.6,507.9z"/>
	<path class="st8" d="M558.2,702.7c-32.4,7.5-59-15.8-53.2-43c1.8-8.4-0.3-15.2-3-22.3c-9.9-25.7-2.6-45.6,21.4-58.1
		c23.5-12.2,43.4-6.1,59.1,18.1c16.7,29.2,9.8,58-1.2,86.8C577.3,694.9,568,699.1,558.2,702.7z"/>
	<path class="st50" d="M558.2,702.7c34.3-29.1,32.5-66.5,24.4-105.3c19.9,23.9,23.2,65.5,7,90.5
		C582.2,699.3,571.9,704.6,558.2,702.7z"/>
	<path class="st51" d="M496.6,652.8c-1.8,5.1,1.6,14.3-5.9,14.4c-9.4,0.1-11.1-10-12.3-17.2c-1-6.3,2.4-16,8.2-15.4
		C494.7,635.3,496.1,644.9,496.6,652.8z"/>
	<path class="st52" d="M361.2,551.4c38.6-11,67.1,9.4,68.4,47.1c1.1,30.8-10.6,56.5-33.1,78.1c14.8-23.6,25-48.4,21.1-76.7
		C413.2,567.5,391.8,554.5,361.2,551.4z"/>
	<path class="st53" d="M320.1,543.1c-1.4-13.6,6.3-24,11.9-35.2C338.8,525.9,334.8,537.7,320.1,543.1z"/>
</g>
</svg>
