<?xml version="1.0" encoding="utf-8"?>
<!-- Generator: Adobe Illustrator 23.0.1, SVG Export Plug-In . SVG Version: 6.00 Build 0)  -->
<svg version="1.1" id="Layer_4" xmlns="http://www.w3.org/2000/svg" xmlns:xlink="http://www.w3.org/1999/xlink" x="0px" y="0px"
	 viewBox="0 0 1000 1000" style="enable-background:new 0 0 1000 1000;" xml:space="preserve">
<style type="text/css">
	.st0{fill:#A76800;}
	.st1{fill:#5D4000;}
	.st2{fill:none;}
	.st3{fill:#5E4200;}
	.st4{fill:#5F4200;}
	.st5{fill:#FCAC5D;}
	.st6{fill:#FCAD5E;}
	.st7{fill:#302825;}
	.st8{fill:#342000;}
	.st9{fill:#352000;}
	.st10{fill:#373526;}
	.st11{fill:#2F2724;}
	.st12{fill:#B7AF90;}
	.st13{fill:#9C6100;}
	.st14{fill:#EEECC6;}
	.st15{fill:#5B4B43;}
	.st16{fill:#0F0A00;}
	.st17{fill:#5A4A42;}
	.st18{fill:#B3AB8D;}
	.st19{fill:#301D00;}
	.st20{fill:#A8A083;}
	.st21{fill:#0D0901;}
	.st22{fill:#312600;}
	.st23{fill:#5E4100;}
	.st24{fill:#947965;}
	.st25{fill:#7E0000;}
	.st26{fill:#594A42;}
	.st27{fill:#312925;}
	.st28{fill:#F10000;}
	.st29{fill:#A76802;}
	.st30{fill:#F2A759;}
	.st31{fill:#341F00;}
	.st32{fill:#4C3F39;}
	.st33{fill:#A7A083;}
	.st34{fill:#583D00;}
	.st35{fill:#A46603;}
	.st36{fill:#6D594C;}
	.st37{fill:#B26920;}
	.st38{fill:#ECEBCA;}
	.st39{fill:#846C5B;}
	.st40{fill:#251700;}
	.st41{fill:#927763;}
	.st42{fill:#714102;}
	.st43{fill:#AE7841;}
	.st44{fill:#040300;}
	.st45{fill:#241800;}
	.st46{fill:#040403;}
	.st47{fill:#100F0B;}
	.st48{fill:#0A0908;}
	.st49{fill:#343128;}
	.st50{fill:#5B3F00;}
</style>
<g>
	<path d="M929.8,576.5c-4-3-7.7-5.3-10-10.1c-31.4-63.9-66.2-125.8-111.3-182.5c11.4-1.4,20.5-5.3,30-8.1c9.9-3,18.4-7.9,27.4-12.4
		c32.5-16.2,37.8-47.5,11.9-73.4c-19.6-19.7-43.7-32.7-74.1-44.4c17-5.4,29.7-2.8,42-3.3c11-0.5,23.2-1.2,29.4-10.4
		c27.3-40.5,53.5-81.8,80.3-123.3c-8.1-4.1-12.9-2.8-18.8-0.8c-46.3,15.7-92.5,31.6-139.2,45.8c-19.1,5.8-27.9,15.2-24,35.4
		c1.9,9.9,0.3,19.4-9.3,25.5c-23.2,14.9-43.8,33.4-63,52.5c-20.7,20.6-45.2,26.4-70.1,21.3c-41.5-8.5-83.6-8.7-125.2-14.5
		c-48.5-6.7-97.7-5.2-146.5-7c-54.3-2-108.6-5.7-163-4.9c-10.6,0.2-20.3-2.2-29.2-6.9c-24.8-13.4-53.9-5.6-79.2-16.5
		c-4.3-1.8-8.4,1.4-12.5,3.3c-22.4,10.7-34.6,44.5-26.1,63.4c14,31.1,43.9,42.8,70.9,58.4c12.4,7.2,26-0.3,38.9,7
		c61.3,34.4,123.5,67.2,185.3,100.8c27,14.7,53.6,29.9,81.7,45.6c-12.8,8.2-25.1,12.7-36.2,20.3c-28.1,19.3-46.9,47.5-70.2,71.3
		c-20.4,20.8-40.6,42-51.7,70.1c-4.6,11.7-12.9,21.6-22.1,30.7c-41.6,41.2-83,82.7-124.2,124.3c-7.1,7.2-13.6,15.2-19.2,23.6
		c-8.7,13.2-6.9,35.3,4.3,44.1c12.9,10.2,26.4,6.3,38.7-2.1c25.1-16.9,50.9-32.9,74.7-51.5c43.8-34.4,90.9-62.7,142.5-83
		c-11.7,28.1-23.2,56.9-35.8,85.4c-4.7,10.7-2.4,18.9,8.6,16.3c17.3-4.1,34.9-7.5,49.1-21.9c33.5-33.9,50.7-76.5,68-119.1
		c4.9-12.1,10.4-23.2,21.5-28.9c19.6-10.1,31.4-26.2,41.7-44.7c18-32.5,52.5-43.7,81.7-61.7c2.4-1.5,6.5-0.8,9.6-0.2
		c14.8,2.9,29.6,6,44.4,9.2c57.8,12.5,115.7,24.7,173.4,37.8c21.4,4.8,45.5,4.1,58,28.7c5.1,10.1,18.8,13.2,28.1,12.9
		c9.2-0.3,18,0.3,27.1,0.8c16,0.8,29.4-13.7,30.7-29.8C971.5,616.6,954,594.7,929.8,576.5z M513.4,420.3c-9.3,0.4-17.6,2.2-26.9-1.1
		c-17.5-6.3-25.7,11.7-36,20c-39.7,32.3-38.5,32.4-83.3,4.7c-28.7-17.8-58.9-33.3-88.9-49c-10.5-5.5-21-10.5-34-20.5
		C337.2,387.3,426.8,395.5,513.4,420.3z M758.3,301.2c18.9,13.7,41.4,20.8,61,33c-5.5,3-10.8,6.6-16.6,8.7c-10,3.7-20,8.3-28.7-3.9
		c-2.8-3.9-9.7-5.8-15.1-6.6c-8-1.2-19.6-4.9-18.8-9.6c1.2-7.6,8.9-14.2,11-23.3C751.9,295.3,757,300.3,758.3,301.2z M846.8,607.9
		c-73.1-16-141-30.8-209.1-45.7c24.1-19.7,47.8-38.6,70.9-58c8.1-6.8,14.8-8.5,25-3.1C779.2,525.3,811.3,563.6,846.8,607.9z"/>
	<path class="st0" d="M534.7,476.7c3.9,14.8,14.2,17.9,27.7,15.3c11.7-3.7,22.9-8.8,34.3-13.4c9.2-3.7,19.1-9.7,29.1-1.4
		c3,10.3-5.8,13.8-11.5,18c-35.1,25.9-68.4,53.5-95.6,88c-11.4,14.5-27.2,24.5-45.3,28.8c-58.6,13.8-101.6,49.9-138.4,95.3
		c-4.6,5.6-10.1,10.1-15.7,14.4c-14.9,11.5-28.7,23.8-38.6,40.5c-12.5,21.1-34.1,33.6-53,48.1c-15.9,12.2-31.5,25-48,36.4
		c-12.7,9.5-25.1,19.5-37.2,29.8c-7,4.8-14.2,9.4-21.3,14.1c-6.3-1.5-7.7-5.9-6.8-11.6c6.1-10.9,13.8-20.3,22.8-28.9
		c38.1-36.3,72.9-76,113.4-109.8c14-11.7,26.4-25.2,35.4-41.3c24.2-43.6,58.4-79.3,91.3-116.1c17.6-19.6,39.5-33.1,63.7-43.8
		c32-14.2,64.9-27.7,85.4-58.9C528.1,477.7,530.9,475.8,534.7,476.7z"/>
	<path class="st0" d="M175.8,277.4c1.3,0.1,2.6,0.1,3.9,0.2c12.7,8.1,27.6,8.8,41.4,9c59.1,0.9,118.2,4.3,177,8.9
		c76.3,6,153.3,7.7,228.2,26.2c13.9,3.4,25.4,3.1,34.3-9.5c8.9,13.8,2.1,28.8,3.3,43.2c-5.5,21.6-13.2,26.5-44.7,28.8
		c-40.2-6.4-79.3-17.9-119.5-24.9c-54.8-9.5-110.3-13.1-165.2-21.7c-6.3-1-13.1,0.2-18.3-4.8c-42.8-4.2-85.7-8.4-128.5-12.6
		C173.2,307.7,169.8,295.4,175.8,277.4z"/>
	<path class="st1" d="M620.7,379.2c18.1-1.3,35.3-4,43.1-23.8c0.1,21,4.9,42.4-11.8,60.9c-11,12.3-22.7,16.2-38,11.6
		C550.9,408.6,487,392,421.9,381.3c-55.5-9.2-111.5-14.8-167.3-22.1c-26.3-3.4-52.5-7.2-78.8-10.7c-7.1-1-12.7-2.4-9.9-12.1
		c2.4-8.1,5-10.1,14.6-9.2c42.5,4,85.1,6.2,127.7,9c100,4.3,198.2,20.6,295.5,43.2C609.6,380.6,615.1,382,620.7,379.2z"/>
	<path class="st2" d="M846.8,607.9c-73.1-16-141-30.8-209.1-45.7c24.1-19.7,47.8-38.6,70.9-58c8.1-6.8,14.8-8.5,25-3.1
		C779.2,525.3,811.3,563.6,846.8,607.9z"/>
	<path class="st3" d="M468.6,640.8c-18.1-7.9-34.9-4.1-51.4,5.3c-7.2,4.1-13.9,9.3-22.6,10.3c-0.4-0.9-0.7-1.8-1.1-2.6
		c3.2-12.7,15.1-15.3,24.4-20.3c20-10.7,42.3-16,63.4-24.2c15.4-6,29.4-14.5,38.9-27.9c24.1-33.7,56.7-58.1,88.9-83.1
		c17.9-13.9,35.2-28.4,52.2-43.4c8.3-6.2,16.8-12,26-16.9c14.2-3.6,31,3,35.7,14.7c4.8,12-5,18.4-12.1,23.9
		c-24.2,18.5-48.5,36.9-73.4,54.5c-35.5,25-71.4,49.5-107.9,73c-10.5,6.7-19,15.5-28.2,23.8C492.3,636.3,482.5,644,468.6,640.8z"/>
	<path class="st2" d="M513.4,420.3c-9.3,0.4-17.6,2.2-26.9-1.1c-17.5-6.3-25.7,11.7-36,20c-39.7,32.3-38.5,32.4-83.3,4.7
		c-28.7-17.8-58.9-33.3-88.9-49c-10.5-5.5-21-10.5-34-20.5C337.2,387.3,426.8,395.5,513.4,420.3z"/>
	<path class="st4" d="M777.1,445.2c4.1-16.9,2.4-33.9,1.2-50.9c8.3-0.8,12.9,5.3,17.6,10.3c35.3,38.1,61.5,82.3,84.5,128.5
		c0.9,1.7,0.4,3.8-0.4,5.6c-10.7,2.8-12.6-7-16.4-12.6c-11.5-16.4-23.8-32.2-37.9-46.4c30.8,32.8,56.6,69.2,74.1,110.8
		c6.1,14.6,20,25.9,19,43.6c-16.2,12.1-25.1-1-33.2-11c-13-16-22.1-34.8-35.4-51c-13.6-16.5-26.8-33.2-42-48.3
		c-12.9-12.9-22.4-28.3-29.8-45.1C773.4,467.4,771.7,456.6,777.1,445.2z"/>
	<path class="st5" d="M660.5,312.2c-1.5,20.3-4.7,23-23.7,17.7c-49.1-13.6-99.6-16.6-149.9-21.6c-95.6-9.5-191.6-11.3-287.3-18.9
		c-8.6-0.7-17.3-1-19.8-11.8c133.5,3.8,267,6.6,400,19.3c22.6,2.2,45,5.5,67.5,8.6C652.2,306.2,657.7,306.8,660.5,312.2z"/>
	<path class="st6" d="M534.7,476.7c-16.7,28-41.8,46.7-71.5,57.3c-51.3,18.4-87.3,54.1-120.4,95.2c-19.5,24.3-39.3,48.1-54.5,75.5
		c-6.6,11.9-15.9,22.1-26.1,31.3c-50.1,45.2-98.7,92-144.2,142c-0.7,0.8-2.4,0.7-3.7,1.1c-0.9-13,6.6-21.7,15.1-30.1
		c41.5-41.3,82.8-82.7,124.2-124.1c13.8-13.8,24.8-29.2,33.3-47.3c14.3-30.3,40.5-52,61.5-77.5c30.7-37.6,67.6-66,114.7-80.2
		c34.6-10.5,56.6-35.2,72.5-66.4c3.5-0.5,5.4,0.6,4.4,4.5C538.2,464.2,536.4,470.5,534.7,476.7z"/>
	<path class="st7" d="M784.8,258.2c28,8.7,54.9,19.7,78.1,38.4c19.8,15.9,17.5,42.8-5,53.6c-25.2,12.1-52.1,19.8-78.6,28.5
		c-11.2,3.7-26.2,1-28.5,19.3c-0.7,5.6-8.4,4.4-13.4,1.7c-10.2-5.6-21.9-8.5-30.3-17.1c24.6-3.6,49-7.9,71.8-18.1
		c19.2-8.6,41.4-10.6,57.6-25.8c1.4-12.6-10.3-11.2-16.5-15c-9.6-5.8-22.4-6.3-28.9-17.5c-2.4-8.6-7-16.1-10.5-24.2
		C776.8,273.2,776.7,265,784.8,258.2z"/>
	<path class="st8" d="M468.6,640.8c35.2-13.2,59-42.8,90.1-62.3c49.1-30.8,95.4-66.1,142.9-99.5c1.6-1.1,3.5-2.1,4.5-3.7
		c4.3-7.1,19.6-11.2,13-20.2c-6.3-8.6-15.5-22.5-31.7-13.7c-3.3-6.4,4.5-10.2,3.7-16c10.6-5.1,42.4,4.4,48.4,16.5
		c7.4,15.1-4.4,24-14.9,31.6c-61.2,44.5-117.3,96.2-185.6,130.8c-16.3,8.3-28.8,21.8-38.7,37.6c-4.4,7.1-8.2,14.9-17.9,20.3
		C480.2,653.6,473.6,647.8,468.6,640.8z"/>
	<path class="st9" d="M777.1,445.2c-2,28.2,11.9,50.9,29.7,69.6c30.6,32.1,57.9,66.3,81.3,103.9c6.1,9.8,14,21.8,29.7,13.9
		c4.7,8.5-1.4,11.9-7.4,14.2c-7.8,3.1-15.2,2.4-19.7-6.2C877.8,630.2,871.3,615,862,602c-30.4-42.6-68-77.7-110-108.3
		c-8.1-5.9-9.4-9.4-1.7-15.6C761.6,469.1,768,456,777.1,445.2z"/>
	<path class="st3" d="M121.1,890.7c4.4-6.8,8.9-13.6,17.6-15.7c14.5-7.9,26.5-19.4,39.9-28.9c28.8-21.8,58-43.2,86.6-65.3
		c2.6-2,5.4-3.8,7.1-6.5c27.3-42.4,71.5-68.9,101.8-108.6c4.5-5.9,9.6-15,20.4-9.5c0,0,0.3,0.3,0.3,0.3
		c-16.6,19.3-37.6,36.4-34.9,66c4,10.8-4.7,14.8-10.9,19.8c-19.6,15.7-43.2,24.9-63.9,38.9c-45.7,36.5-95.4,67.4-142.7,101.6
		C136,887.3,129.7,891.9,121.1,890.7z"/>
	<path class="st10" d="M922.2,133.3c-15.3,32.9-38.5,60.6-58.8,90.2c-6.3,9.1-19.1,5.2-29,7.4c-15.8,3.5-33.5-0.3-47.2,13
		c-4,3.8-12.1,4.3-17.9-0.7c29.3-22.1,58.8-44,88.3-65.9c3.7-2.7,7.7-4.8,12.6-3c5.4,8.7-3.3,11.9-7.4,14.9
		c-8.4,6.1-15.9,13-21.4,17.9c6-13.9,31.6-13.7,32.2-36.3c1.1-9.4,9.2-12.6,15.2-17.7C900.5,147.5,906.6,132.3,922.2,133.3z"/>
	<path class="st11" d="M437.7,663.9c17.3,2.6,19.6,11,14,27.1c-15.3,43.6-32.4,86.2-60.1,123.6c-8.8,11.8-16.7,24.8-32.5,28.8
		c-0.5-15.1,7.4-26.2,17-36.6c14.1-11.8,18.9-29.2,26.2-44.8c11.7-25.1,24.2-50.3,25-79C428,675.1,430.1,667.9,437.7,663.9z"/>
	<path class="st12" d="M177,359.5c89.5,44.2,176,93.9,261.8,145c-1,1.9-2.1,3.8-3.1,5.8c-87.3-48-174.5-96.1-261.8-144.1
		C174.9,364,175.9,361.7,177,359.5z"/>
	<path class="st13" d="M878.5,539.4c-15.1-38-37.6-71.7-62.5-103.7c-11.4-14.7-22.8-29.7-37.7-41.4c4.4-11.6,4.7-11.9,13.3-3.4
		c17.1,16.9,30.9,36.6,44,56.5c33.1,50.3,58.6,104.9,86.7,157.9c4.4,5,4.6,10.6,1.8,16.3c-1.6,3.2-5.1,5.4-7.2,1.3
		C902.7,595.7,883.7,570.7,878.5,539.4z"/>
	<path class="st14" d="M784.5,210.9c0.9-37.7,0.9-37.7,36.3-49.7c24.5-8.2,49-16.4,73.5-24.6c2.3-1.4,4.9-2.6,7-0.2
		c3,3.5,0.1,5.9-2.3,7.9c-7.5,6.3-17,9.4-25,14.8c-20,11-40,22.1-58.1,36.3C806.4,202.5,799,213.9,784.5,210.9z"/>
	<path class="st15" d="M437.7,663.9c-2.5,6.8-5,13.6-7.5,20.4c-8,45.2-27.3,85.7-51.5,124.2c-9.1,10.2-12.6,23.6-19.5,35
		c-5.3,2.7-9.8,7.5-17.4,7.1c0.6-5.7,1-11,5.8-14.8c26.5-48.5,52.7-97,62.5-152.3C418.8,676.3,424.6,664.9,437.7,663.9z"/>
	<path class="st16" d="M620.7,379.2c-19.6,8.1-38.2-1.5-56.3-5.2c-82.4-16.7-165.2-29.8-249.3-34.7c-2.3-0.1-4.5-2.1-6.8-3.2
		c2.6-1.1,5.2-2.2,7.8-3.4c60.3,2.6,119.7,11.7,179.3,20.4C537.8,359.3,578.7,371.6,620.7,379.2z"/>
	<path class="st17" d="M839.7,339.5c2.5,10.9-7.8,10.2-12.7,12.2c-29.5,11.6-59.2,23.1-89.5,32.6c-9.1,2.8-20.2-0.9-30.4-1.6
		c-15.1-12.8-16.3-21.5-4-31.2c7.1,3.2,8.6-1.8,9.8-6.9c1-4.1,2.3-7.3,7.3-4.2c4.8,3.7,1.1,14.1,3.7,13.4c15-4.3,23.3,17,39.6,8.4
		c17-9,36.3-13.1,54.2-20.3C824.6,339.1,831.8,334.4,839.7,339.5z"/>
	<path class="st18" d="M784.5,210.9c10.9-3.9,19.2-11.6,27.7-19c21.6-9.2,40-24.2,61.2-34.3c5.8-0.7,11.1-11.6,17.5-0.9
		c-5.5,4.9-11,9.9-16.5,14.8c-0.7,1.9-2,2.9-4,3c-26.9,19.8-53.8,39.5-80.6,59.3c-6.2,4.6-12.1,9.7-20.5,9.4c-2.5-0.4-5-0.9-7.6-1.3
		c-1.9-8.1,4.3-11.2,9.4-14.7c4.6-3.2,10.3-5.5,9.7-12.7C782,213.3,783.2,212.1,784.5,210.9z"/>
	<path class="st19" d="M761.7,400.3c0,7.3,0.1,11.2,0,15.1c-0.3,9.5,3.2,21.8-6.3,26.8c-6.2,3.2-10.9-8.6-17.9-11.8
		c-11.1-5-21.8-11-32.3-17.3c-10.3-6.2-14.3,7.5-23.7,5.7c0-1.1-0.7-3.4,0.1-4.3c8-8.5,0.9-26.4,10.5-28.6
		c7.6-1.8,17.9,10.7,27.8,14.9C732.8,406.1,746.1,417.9,761.7,400.3z"/>
	<path class="st20" d="M861.4,630c-81.3-17.6-162.7-35.1-244-52.7c0.5-2.4,1-4.8,1.5-7.1c81.8,16.2,163.3,33.9,244.6,52.6
		C862.8,625.2,862.1,627.6,861.4,630z"/>
	<path class="st7" d="M156,269.7c7.7,23.8,7.9,48.5-1.4,71c-8.5,20.5-24.4,7-37.4,2.7c9.7-18.1,16-37.2,18.6-57.5
		C137.4,274.3,144.9,269.6,156,269.7z"/>
	<path class="st21" d="M878.5,539.4c13.3,27.3,26.5,54.7,41.5,85.6c1.1-9.2,1.7-14.5,2.3-19.7c1.1-1.2,2.3-2.5,3.4-3.7
		c11.5,10.5,12,27.5,1.3,42c-10.8,14.7-21.5,16-40.3,5c1.3-2.6,2.5-5.2,3.8-7.9c11.3,4.7,22,7.8,27.1-8.1
		c-31.4-55.7-54.9-116.5-103.2-161.8c15.2,6,25.1,18.2,34.9,30C859.7,513.1,868.9,526.5,878.5,539.4z"/>
	<path class="st22" d="M447.7,499c31.6-21.5,59.1-47.5,88.7-71.4c-21.8,28-32.5,65.5-71.3,78.3C456.3,508.8,451.6,506.1,447.7,499z"
		/>
	<path class="st23" d="M691.2,425.4c9.1,7.7-3.3,10.5-3.7,16c-7.6,5.2-15.2,10.3-22.8,15.5c-14.2,6.2-22.6,22.3-39.8,23.5
		c-10.9-6.9-20.2,1-29.8,3.8c-10.8,3.1-20.9,9.1-32.8,7.9c25.2-13.3,49.2-31.2,76.1-38.3C659.7,448.2,674.1,435.6,691.2,425.4z"/>
	<path class="st23" d="M554.5,484.1c-5,0.2-9.9-1.4-10.6-6.5c-2.6-18.4,12.4-28.8,20.4-42.4c5.3-9,12.9-1.9,19.2-0.6
		c6.2,1.3,12.1,4.4,18.1,6.8c1,13.3-9.9,18.3-17.9,24.6C574.6,472.9,564.5,478.6,554.5,484.1z"/>
	<path class="st24" d="M410.1,683.5c8.8,11.4,1.6,23.5-1.9,33c-15.1,40.1-33.8,78.7-53.5,116.9c-1.3,2.6-3.2,6.4-7.1,2.4
		c12.3-29.1,24.5-58.2,36.9-87.2c6.6-15.4,13.7-30.5,14.9-47.7C399.9,693.8,403,687.2,410.1,683.5z"/>
	<path class="st17" d="M784.8,258.2c-4.1,10.4-2.4,19.7,3.3,29.4c2.8,4.9,9.5,9.9,4.7,17.3c-11.2,5.2-18-4.1-25.5-8.6
		c-11.4-6.8-20.5-10.9-27.6,4.8c-1.9,4.2-6.2,6.4-11.3,5.7c-3-0.8-4.4-3.1-5.4-5.8c-1-7.2,6.3-10.4,8-16.2
		c7.8-19.2,27.5-19.7,42.7-27.2C777.5,257.8,781.1,258,784.8,258.2z"/>
	<path class="st25" d="M508.1,437.9c-13.6,18.6-33.5,30.4-49.7,46.3c-7.3,7.2-16.5,6.2-24.8,0.4C440.8,454.3,483,428,508.1,437.9z"
		/>
	<path class="st26" d="M156,269.7c-18.1,5.7-17.2,22.2-18.7,35.9c-1.8,15.8-7.4,28.4-20.1,37.8c-5.3,0-10.1-0.9-13.3-6.6
		c26.5-12.9,19.4-38.1,21.7-59.9c2.4-7.2,8.5-10.6,14.5-14.1C145.4,265,150.7,267.4,156,269.7z"/>
	<path class="st11" d="M386.4,675.4c14.7-13.9,31.7-24.7,51.1-29.9c24.1-6.6,38,7.3,32.3,30.6c-6.5,2.1-4.4-4.5-6.4-6.8
		c-14.6-16.8-27-17.4-45-4.5c-10.7,7.7-19.3,16.9-27.7,26.6C385.2,687.1,386.4,681.1,386.4,675.4z"/>
	<path class="st27" d="M886.8,648.5c11.7,2.6,23.6,8.3,33.6-4.2c10.6-13.3,13.1-27.3,5.4-42.7c0.5-3.1,1.1-7.9,5.2-4
		c9.7,9.3,14.7,21.4,12.2,34.7c-2.6,14.1-10.4,26.1-25.1,29C906.1,663.7,893.5,661.8,886.8,648.5z"/>
	<path class="st28" d="M508.1,437.9c-19.5-5-33.7,4.4-46.5,17.3c-9.6,9.6-18.7,19.6-28.1,29.4c-4.9,0.2-9.9,1.4-15.6-3.6
		c18.5-16.4,36-33.3,55.1-48.2c11.5-9,26.4-3.3,39.2-1.4C517.3,432.2,511.1,436.3,508.1,437.9z"/>
	<path class="st9" d="M285.1,781.1c17.1-21.4,44.9-27.7,64.8-45.4c4.5-4,9.5-6.7,10-13.3c10.2,13,5.8,21.3-7.6,28.8
		C330.7,763.3,309,774.5,285.1,781.1z"/>
	<path class="st29" d="M116.9,280.7c-0.9,8.1,6.4,20.5-5,23.2c-10.6,2.4-20.9-4.8-27.3-15.1c-2.4-3.8-1-9.3-6-11.6
		c-4.1-5.6-0.8-8.3,4.1-9.7C97.4,263.2,109.3,266.5,116.9,280.7z"/>
	<path class="st30" d="M116.9,280.7c-12.2-7.2-24.1-18.7-38.4-3.6c-0.4,1.3-0.7,2.5-1.1,3.8c-5.6,6,3.4,22.3-14.1,20
		c-2.8-10.8,1-20.5,5.6-29.9c5.3-10.6,12.4-18.3,26-14.8C107.8,259.7,118.8,264.3,116.9,280.7z"/>
	<path class="st31" d="M554.5,484.1c14.4-15.6,35.7-23.7,47-42.7c6.7-0.3,15.1,0.6,16.8,6.4c2.3,8.1-7.9,8.1-12.7,11.2
		C589.6,469.4,573.2,479.2,554.5,484.1z"/>
	<path class="st32" d="M386.4,675.4c6.3,4,3.6,10.5,4.2,16c-2.4,11.1-4.2,22.4-7.4,33.2c-2,6.7-6.1,12.8-12.6,2.7
		c-1.9-15.4,6.9-28.8,8.5-43.5C381.5,681,383.9,678.2,386.4,675.4z"/>
	<path class="st1" d="M86.1,300.6c5.7,2.8,11.6,5.3,17,8.5c4.3,2.5,12.9,3.3,7.6,11.7c-3.6,5.8-9,9.1-16.2,5.6
		c-6.8-3.3-13.6-6.6-20.4-9.9C77.7,310.8,81,305,86.1,300.6z"/>
	<path class="st33" d="M890.9,156.6c-6.7-5.5-10.3,3-15.7,3.6c-1.8-1.3-4.4-2-4.5-4.9c8.4-4.7,16.8-9.4,25.1-14
		c7.4-4.1-0.5-3.3-1.5-4.7c9-3.5,17.7-9.1,27-10c11.9-1.2-0.8,4.5,0.9,6.8C911.7,141.1,901.3,148.9,890.9,156.6z"/>
	<path class="st24" d="M773.8,257.5c-11.8,13-31.6,13.2-42.7,27.2C735.3,258.7,736.6,257.9,773.8,257.5z"/>
	<path class="st34" d="M175.8,277.4c0.1,15.3,4.3,29.5,11.8,42.8c-7.6,0-18.6,1.9-18.2-8.6C169.7,300.3,159.7,285.9,175.8,277.4z"/>
	<path class="st35" d="M86.1,300.6c0.3,8.5-2.1,15-11.9,15.9c-5.6-3.8-9.1-9-10.8-15.5c10.2-2.8,6.2-15.5,14.1-20
		C77.9,288.6,81.2,294.9,86.1,300.6z"/>
	<path class="st36" d="M723,300.9c1.5,1.6,2.9,3.3,4.4,4.9c3.2,12.8-0.6,23.9-8.3,34.1c-5.4,3.2-3.6,8.8-4.5,13.5
		c-0.9,4.5-2.6,9.4-8.1,7.9c-4.2-1.1-2.9-6.3-3.3-9.9C716,337.1,714.5,317.1,723,300.9z"/>
	<path class="st37" d="M699.2,301.1c-5-2.4-13.4-5.4-7.3-11.4c6.6-6.6,12.6-18.8,23.8-15.7c6.9,1.9,1.8,9.9-0.9,14.9
		C711.1,295,706.5,299.8,699.2,301.1z"/>
	<path class="st38" d="M780.7,214.5c7.8,0.8,6.6,4.1,2.2,8.1c-7.1,6.5-14.2,12.9-21.3,19.4c-4.3,0.3-8.7,0.6-17,1.1
		C758.7,231.9,769.7,223.2,780.7,214.5z"/>
	<path class="st3" d="M691.2,329.2c1.5-4.1-2.8-11.8,5.7-11.3c5.7,0.3,10.2,4,10.5,11.3c0.3,8.5-4.7,12.1-11.4,11.8
		C688,340.7,692.9,333.2,691.2,329.2z"/>
	<path class="st39" d="M379.1,683.7c2.5,15.5-2.5,29.6-8.5,43.5C361.6,710.5,371.1,697.3,379.1,683.7z"/>
	<path class="st40" d="M936.6,661.9c6.7-9.2,15-17.4,13.3-33.3C959.7,647.5,956.8,654,936.6,661.9z"/>
	<path class="st41" d="M140.1,262.7c-1.3,8.4-9.3,9.7-14.5,14.1c0.7-5.8-6.1-9.7-3.9-16.1C128.3,257.8,134,262.3,140.1,262.7z"/>
	<path class="st42" d="M699.2,301.1c3-6.8,9.7-9,15.6-12.2C713.8,298.4,718.5,315.1,699.2,301.1z"/>
	<path class="st43" d="M539.9,457.9c-1.5-1.5-2.9-3-4.4-4.5c3.6-7.9,9.9-13.2,18.2-20.1C551.5,444.5,545.4,451,539.9,457.9z"/>
	<path class="st44" d="M624.9,480.4c14.1-6.5,23.2-21.3,39.8-23.5c-20.2,23.1-46.9,38.3-70,58c-25.6,21.8-51.8,42.5-71.5,70.7
		c-15.2,21.7-40.8,28.3-64.6,36.9c-22.9,8.2-47.2,14.1-64.1,33.8c-13.2,3-19.3,14.8-28,23.2c-8.3,8.1-14.9,18.1-23.2,26.2
		c-51.9,50.4-99.4,105.8-163.4,142.3c-3.7,1.4-4.3-0.5-3.8-3.6c21-16.3,41.8-32.8,63-48.9c18.2-13.8,34.3-28.8,46.8-48.6
		c13.5-21.4,38.3-32.4,54.3-52.4c35.4-44.4,80-75.2,136.2-88.1c14.3-3.3,27.6-11.3,35.7-22.5C542.5,541.2,585.3,512.6,624.9,480.4z"
		/>
	<path class="st45" d="M176,844.2c1.3,1.2,2.5,2.4,3.8,3.6c-12.5,10.9-24.6,22.4-41.2,27.1C151.1,864.7,163.6,854.5,176,844.2z"/>
	<path class="st46" d="M837.4,326.8c-14.4-8.4-31.6-10.9-44.6-21.9c-0.8-0.4-1.6-0.8-2.5-1.2c-3.2-1.5-6.5-3-9.6-4.7
		c-9.6-5.4-18.4-13.6-28.7-16c-15.1-3.5-11.3,16.6-21.1,21.1c-1.2,0.5-2.4,1.1-3.6,1.6c0,0.2-0.1,0.3-0.1,0.5
		c-2.7,11.1-5.4,22.3-8.1,33.5c0,0,0,0.1,0,0.2c0.2,9.3-5,22.2,13.3,19.5c2-0.3,5.1,1.8,6.6,3.7c7.6,9.9,16.3,7.5,26,3.8
		c22.5-8.5,45.1-16.6,67.8-24.8c2.3-0.8,4.7-1.7,7-2.5C848,333.6,844.6,331,837.4,326.8z M774,339c-2.8-3.9-9.7-5.8-15.1-6.6
		c-8-1.2-19.6-4.9-18.8-9.6c1.2-7.6,8.9-14.2,11-23.3c0.9-4.2,6,0.8,7.3,1.7c18.9,13.7,41.4,20.8,61,33c-5.5,3-10.8,6.6-16.6,8.7
		C792.7,346.6,782.7,351.2,774,339z"/>
	<path class="st47" d="M870.3,174.5c1.3-1,2.7-2,4-3c2.5,1,8.6,1,4.9,5c-14.9,16.5-32,30.4-51.7,40.8
		C838.8,199.8,861.2,193.9,870.3,174.5z"/>
	<path class="st48" d="M378.7,808.5c19.5-40.4,38.7-81,51.5-124.2c3,2.2,3.3,5.1,2.5,8.5c-9.6,40.3-27.9,77-46.8,113.4
		C384.5,808.8,382.5,812.2,378.7,808.5z"/>
	<path class="st49" d="M870.7,155.3c2.3,0.9,4.6,1.8,4.5,4.9c-14.5,8.4-29,16.7-43.4,25.1c-6.1,3.6-11.7,8.2-19.5,6.6
		C829.6,176.3,850.1,165.8,870.7,155.3z"/>
	<path class="st2" d="M819.3,334.2c-5.5,3-10.8,6.6-16.6,8.7c-10,3.7-20,8.3-28.7-3.9c-2.8-3.9-9.7-5.8-15.1-6.6
		c-8-1.2-19.6-4.9-18.8-9.6c1.2-7.6,8.9-14.2,11-23.3c0.9-4.2,6,0.8,7.3,1.7C777.2,314.9,799.6,322,819.3,334.2z"/>
	<path class="st50" d="M757.6,364.6c-9.7-6.2-16-10.4-22.4-14.3c-3.8-2.4-8.7-4.1-4.6-9.9c3.5-5.1,7.2-1,9.7,0.9
		C747,346.4,755.2,350.8,757.6,364.6z"/>
</g>
</svg>
