<?xml version="1.0" encoding="utf-8"?>
<!-- Generator: Adobe Illustrator 23.0.1, SVG Export Plug-In . SVG Version: 6.00 Build 0)  -->
<svg version="1.1" id="Layer_4" xmlns="http://www.w3.org/2000/svg" xmlns:xlink="http://www.w3.org/1999/xlink" x="0px" y="0px"
	 viewBox="0 0 1000 1000" style="enable-background:new 0 0 1000 1000;" xml:space="preserve">
<style type="text/css">
	.st0{fill:#D4002C;}
	.st1{fill:#A98B6F;}
	.st2{fill:#E1C3A7;}
	.st3{fill:#FE466C;}
	.st4{fill:#B78105;}
	.st5{fill:#FAB920;}
	.st6{fill:#550000;}
	.st7{fill:#FC466C;}
	.st8{fill:#A70023;}
	.st9{fill:#86001C;}
	.st10{fill:#A80023;}
	.st11{fill:#FC466B;}
	.st12{fill:#AA0000;}
	.st13{fill:#F8B920;}
	.st14{fill:#7F7F7F;}
	.st15{fill:#F60000;}
	.st16{fill:#F2F3F3;}
	.st17{fill:#7D7D7D;}
	.st18{fill:#BEFAFA;}
	.st19{fill:#F0F0F0;}
	.st20{fill:#7E7E7E;}
	.st21{fill:#9C0121;}
	.st22{fill:#7C001A;}
	.st23{fill:#BFFCFC;}
	.st24{fill:#7A0019;}
	.st25{fill:#777777;}
	.st26{fill:#190E10;}
	.st27{fill:#7A7A7A;}
	.st28{fill:#F2F5F5;}
	.st29{fill:#F0F3F3;}
	.st30{fill:#86061F;}
	.st31{fill:#595959;}
	.st32{fill:#141414;}
</style>
<g>
	<path d="M259.9,351.6c-15.7,0.7-27.7-0.4-39.1-4.7c-19.8-7.5-29.4-29.2-24-49.9c5.8-22.3,21.3-37.1,36.7-52.4c3-3,10-4.1,4.7-13.1
		c-17.2-29.4-10-54.6,19.2-71.2c58.1-33.1,116.8-33.2,174.3,0.7c11.1,6.6,19.4,0.2,26.8-1.9c52.4-14.7,104.8-10.6,156.9-1.1
		c17.7,3.2,35.5-0.5,53,5.8c20.3,7.4,39.7,14.8,55.6,30.6c20.2,20.2,45.9,33.6,68,51.9c38,31.3,63.2,71.1,78.2,116.2
		c26.8,80.6,21.8,160.4-14.3,238.5c-20,43.2-43.9,84.1-75.2,119.1c-31.3,35-70.9,61.4-111.9,84.6c-63.5,35.9-132.6,51.9-204.7,46.4
		c-83.7-6.4-152.3-42.6-198.7-115.7C252.2,714.4,245.1,691,234,666c-12.1,21.4-20.8,40.7-27.2,61.1c-4.6,14.4-13.3,22.3-29.4,14.5
		c-19.9-9.6-42.3-6.3-65.1-13.4c24.1-45.9,68-68.4,111.5-95.8c-33.8,2.2-62.8,11.9-91.6,22.3c-34,12.3-64.4,30.9-94,51.2
		c-5.8,4-11,13-19.2,6c-9.3-7.9,0.8-13.2,4.3-19.4c25.9-46.1,59.6-83.4,112.1-99.2c25.5-7.7,51.6-3.5,80.4-0.2
		c-18.2-11.3-36.7-9.3-53-10.1c-29.3-1.4-59.3-5.4-88.6,2.8c-4.3,1.2-8.5-0.6-9.8-4.3c-1.6-4.5,3.2-5.4,6.3-7.4
		c31.1-20.6,65.8-30.1,102.3-35.3c13.9-2,27.2-4.8,40.8,3.6c7.3-32.6,4.1-66.1,13-97.8C235.5,413.9,243.2,382.9,259.9,351.6z"/>
	<path class="st0" d="M542.9,449.2c-5.8,16.7-14.4,32-23.9,46.9c-16.5,42.2-40.6,81.1-52,125.6c-16.1,62.6-22.6,126.1-21.9,190.6
		c-0.4,2.1-1.3,4-2.5,5.8c-9.3,10.2-21.4,5.4-32.5,6.2c-19.6-3.9-37.3-12.4-54.2-22.8c-75.7-91.2-100.6-196.7-89-312.9
		c4.7-46.6,10.6-92.8,24.2-137.8c2.8-9.3,6.7-18.2,9.9-27.3c2.2-3,4.4-5.9,8.6-11.7c-19.7,8.1-34.7,18.6-52.3,22.8
		c-19.2-10.9-24-28-12.6-47c11.4-19,29-31.4,48.5-40.7c20.4-9.7,41.3-18.9,64.5-20.2c2.7-0.1,5-0.9,5.6-4.1
		c-17-12.2-35.9-11.6-55.3-8.2c-7.6,1.3-15.2,2.7-22.8,4.1c-7.4-18-0.9-35.3,19.4-46.2c36-19.2,73-15.3,106.3,4.4
		c21.1,12.5,39.5,14.7,62.3,9.1c43.2-10.6,87.2-14.7,131.7-9.8c4.6,0.5,9.1,0.4,12.6,4.1c-10.5,19.2-25.3,35.8-31.9,57.3
		c-3.3,10.8-11.9,3.5-17.6,1.5c-37.3-12.8-74.9-24.1-114.1-29.8c-12.1-1.7-19.9,1.8-22.4,12.4c-5.3,22-7.1,44.6-7,67.3
		c0,5.7,3,8.1,8.5,7.8c18.5-1.7,19.3-1.1,16.4,16.2c-1.6,9.6-2.8,19.1-2.8,28.9c-0.3,52.7,28.2,87.5,80.3,98.3
		C533,441.1,542.1,438.4,542.9,449.2z"/>
	<path class="st1" d="M511.5,711.4c62.6,14,125.8,23.4,179.8-22.4c44.4-37.6,73.9-86.6,91.9-142.2c1.8-5.5,2.7-11.4,2.9-17.2
		c0.6-14.7-6.8-19.6-19.1-11.6c-9.1,6-17.1,13.9-24.6,21.9c-17.9,19-38.5,34.7-58.2,51.7c-6,5.2-9.6,4.9-12.8-2.7
		c-3.3-7.8-7.3-15.2-11-22.8c-5.9-12-4.7-21.5,7.2-30c8.8-6.3,15.7-15.3,23.5-23.1c7-7.1,11.2-15.9,14.2-25.3
		c4.9-15.3,0.8-29-10.8-38.9c-10.8-9.3-19.6,1.9-29.2,7.4c7-21.8,7-21.8,77-37.9c1,1.7,1.4,3.6,1.5,5.5c1.1,21.7,6.9,29.8,22.8,31.9
		c19.8,2.5,34-6.2,40.2-25c1.4-4.2,1.6-8.9,4.4-12.7c4.2-3.6,8.8-2.8,12.6-0.1c18.5,12.9,39.2,23.9,46.5,47.7
		c0.4,60.9-20,115.4-49.8,167.5c-55.6,97.4-137.6,161-244.8,191.5c-42.5,12.1-86.4,17-130.7,8c-3.6-4.5-7.7-8.9-4.7-15.4l1.6-0.8
		c15.7-9.5,33.9-12.8,50.3-20.8c13.4-6.6,26.6-13.7,38.8-22.5c15.2-11.1,15.7-17.5,2.8-31.3c-4.9-5.2-11-9.2-16.2-14.1
		C512.9,723.4,506.8,719.2,511.5,711.4z"/>
	<path class="st2" d="M511.5,711.4c2.2,13.5,15.6,16.5,23.5,24.7c19.4,20,19.6,27-2.9,42.1c-27.6,18.5-56.7,33.8-90.3,38.3
		c-6.9-71.3,4.9-140.6,24.1-208.8c11.3-40,29.3-77.2,53.2-111.5c-7.8,37.3-18.6,74.1-21.4,112.4c-1.7,22.7-2.8,45.4-1.1,68.2
		C497.5,690,500.6,702.4,511.5,711.4z"/>
	<path class="st3" d="M301.2,323.4c4,13.4-4.1,24.6-7.1,36.5c-17.6,69.4-29.1,139.9-23.8,211.3c5.7,76.6,28.8,148.5,76.2,210.9
		c4.3,5.6,11.8,10.2,9.6,19.3c-55.1-31.2-86.1-81-105.3-139.1c-35.4-106.8-19.2-209.6,26.2-309.7
		C282.2,340.8,288.4,329.3,301.2,323.4z"/>
	<path class="st4" d="M723.4,343c37.6,8.9,72,24,101.3,51.6c-30.6,3.7-60.2,9.4-89.8,15.2c-51.9,10.3-99.7,29.8-141.4,62.4
		c-42,32.9-58.7,79.6-65.6,130.7c-0.8,6.3,0.2,13.1-4.2,18.7c-8.6-9.5-6-21.1-4.6-31.6c11.8-92.4,55.5-166.5,129.8-222.4
		C670.7,351.2,695.7,342.6,723.4,343z"/>
	<path class="st4" d="M523.2,636.6c0.5,9.1,0.5,18.2,1.6,27.2c2.7,23.1,9.8,27.3,30.7,17.7c38.4-17.8,74.5-39.7,109.3-63.7
		c37.5-25.8,71.4-55.9,104.2-87.4c6.3,4.6,4.2,10.6,1.8,15.8c-28.8,62-64.6,118.1-127.6,151.3c-5.7,3-11.9,4.8-17.9,7
		c-0.4,0.1-0.7,1.1-0.6,1.6c0.1,0.6,0.7,1.1,1,1.6c-34.5,7.5-68.5,2-102.5-4.3c-7.6-15.9-9.7-32.9-8.8-50.3
		C514.8,646.7,513.2,638.3,523.2,636.6z"/>
	<path class="st5" d="M523.2,636.6c-6.8,14.7-3.5,29.6-1.1,44.6c1.2,7.3,3.6,14.6,1.1,22.2c-9.9-1.7-11-9.2-12.3-17.3
		c-8-51.6-2.1-102.1,11.7-151.9c18.6-66.8,53.1-124.7,97.9-177.2c13.6-15.9,29.1-22.9,49.3-21.4c18,1.3,36.2,1.1,53.4,7.5
		c-7.5,8.3-18.3,4.5-27.4,7.2c-46.6,13.9-79.2,46.1-107,82.9c-41.8,55.4-68.1,117.1-65.2,188.4C523.6,626.6,523.4,631.6,523.2,636.6
		z"/>
	<path class="st6" d="M535,641.5c-5.4-20.6,7.3-30.6,28.2-39.5c25.5-10.8,49.1-26.3,72.6-41.2c8.6-5.4,10.3-5.4,14.4,4.1
		c17.3,39.4,17.8,39.3-18.3,63.3c-22.7,15.1-46.1,29-71,40.3c-23.2,10.5-25.6,8.9-25.9-15.6C534.9,650.2,535,647.6,535,641.5z"/>
	<path class="st7" d="M617.7,179.8c-54.5-2-108.9-0.1-161.5,15.6c-16.5,4.9-26.6-2-38.6-9.5c-33-20.7-68.1-26.9-105-11.8
		c-19.3,7.9-29.7,22.4-27.1,44.2c-11.7,3.5-23.5,18.7-35-0.1c-10.6-17.4-1-29.4,11.7-40.2c2.5-2.1,5.2-3.8,8-5.5
		c37.8-23.4,79.5-30.1,119.3-12.7c34.6,15.2,65.3,19.5,102.4,9.9c40.2-10.5,82.4-4.2,123.4,3.8c1.6,0.3,3,2.1,4.1,3.5
		C619.5,177.3,618.2,178.9,617.7,179.8z"/>
	<path class="st8" d="M523.3,402.4c-17.1-1.4-28.6-12.5-39.9-23.7c-4.6-4.5-6.2-9.5-1.4-15c18.8-23.6,43.4-36.2,73.3-39
		c20.7,0.1,41.6-5.3,61.8,3.6c0.8,1.8,1.5,4,0.4,5.5c-20.9,30.2-42.9,59.3-81.2,69.2C531.9,404.2,527.5,405.4,523.3,402.4z"/>
	<path class="st9" d="M870.2,465.6c-16.6-18.8-33.4-37.5-56.9-48.2c-7.3-0.6-14.7-1.2-19.1-8.5c8.3-5.2,17.4-1.6,26.1-2.5
		c6.2-0.7,14.2,1.3,17-5.7c3-7.4-3-13.3-7.8-18.2c-5.3-5.4-11.4-9.9-17.2-14.9c-10.3-12.5-10.7-28.8-16.2-43.2
		c-6.5-16.9-12.6-33.9-20.2-50.3c-2.9-6.2-7.7-12.4-2.7-19.9C841.2,308.3,869.6,380.6,870.2,465.6z"/>
	<path class="st10" d="M542.9,449.2c-17.5-5.6-36.3-7.2-52.5-16.6c-41-23.7-58.5-67.4-46.8-116.7c2.3-9.6,8.2-21.2-10.6-19.4
		c13.3-6.8,28.1-0.8,46-9.9c-11.1,19.1-18.7,32.8-18.9,49.6c-0.6,38.5,24.1,70.2,62,77.5c1.9,0.4,3.9,0.4,5.8,0.6
		C561.8,419.1,561.8,419.1,542.9,449.2z"/>
	<path class="st6" d="M546,580c7.6-67.4,51.7-104.4,109.1-133.9C644.4,514.2,589.6,542.5,546,580z"/>
	<path class="st11" d="M363.6,222.4c2.8,1.5,8,3,7.9,4.3c-0.2,6-5.5,3.1-8.7,3.5c-37.7,4.5-71.5,18.3-100.3,43
		c-23.9,20.5-24.9,36.8-4.9,61.1c-15.9,4.3-30.6,1.4-40.2-12c-10.7-15.2-3.5-31.1,6-43.2c32.6-41.1,74.5-63.4,128.5-57.8
		C355.8,221.9,359.7,222.1,363.6,222.4z"/>
	<path class="st0" d="M773.3,254.2c14.2,34,29.9,67.5,38.1,103.8c0.7,3.1,0.8,6.4,1.1,9.6c-14.2-7-28.4-14.1-42.6-21.1
		c-5.1-5-5.2-11.6-5.3-18.1c-0.6-45.8-21.1-78.9-62.7-98.8c-4.3-2.1-10.3-3.2-9.9-10.2c8.3-11.8,17.6-11.6,29.1-3.8
		C739,227.7,758,238.4,773.3,254.2z"/>
	<path class="st2" d="M794.3,409c7.2,0.8,14.3,2.2,19.1,8.5c-2.9,31.5-15.3,44.3-42.6,43.8c-26.7-0.4-38-17.4-28.5-42.9
		C759.2,413,776.8,411.3,794.3,409z"/>
	<path class="st12" d="M539.6,597.9c1.9-2.5,3.2-5.9,5.7-7.3c52.2-31.5,92.5-74.9,126.2-125.1c6.9-10.3,15.4-21.3,24-0.7
		c-22.8,50.7-61.5,86.2-109,112.8C571.6,585.8,558.1,597.9,539.6,597.9z"/>
	<path class="st13" d="M625.7,707.7c-2.5-0.4-5.1-0.9-7.9-1.3c-1-5,3.6-3.5,5.5-4.3c71.4-29.8,109.9-89.9,143.6-154.6
		c2.8-5.5,3.1-11.2,2-17.1c2.6-2.2,5.8-10.5,8.2-1.5c1.6,6.2-1.2,14.3-3.9,20.7c-22.3,52.6-51,100.6-95.9,137.7
		C662,700,644.4,704.7,625.7,707.7z"/>
	<path class="st14" d="M557.3,253c-15.2-1.3-30.3-3.1-45.5-3.8c-23.3-1.1-45.5,1.5-60.1,23.4c-2.3,3.5-5.6,8.2-10.9,4.9
		c-4.2-2.6-1.7-6.8-1.1-10.5c0.9-5.1,1.2-10.3,2.3-15.3c5.7-26.2,11.3-30.5,37-24.4C505.6,233.6,533.4,235.9,557.3,253z"/>
	<path class="st10" d="M691.9,219.5c58.5,22.4,81.7,66.5,78,127c-7.9-2.6-16.5-3.9-15.9-15.9c2.3-48.7-24.2-77.1-66.8-94
		c-2.9-1.2-5.8-2.3-9-3.6C680.9,226.1,686.2,222.6,691.9,219.5z"/>
	<path class="st15" d="M539.6,597.9c58.9-25.2,108.5-61.7,142.6-117.1c3.6-5.8,5.4-13.5,13.2-16c7.5,15.1,1.8,28.4-7.7,39.6
		c-39,45.5-90.3,73.3-143.4,98.4C539.8,604.8,538.9,601.8,539.6,597.9z"/>
	<path class="st16" d="M699.3,288.3c-15.8,9.9-31.5,19.6-43.1,34.9c-4.8,6.4-10.9,6.4-14.8-2c-0.3-0.6-0.4-1.3-0.7-1.8
		c-18.8-28.9-17.7-33.6,14.8-62.4C673.1,263.4,693.5,265.7,699.3,288.3z"/>
	<path class="st17" d="M56.9,667.4c38.6-47.2,84.3-77.5,152.7-59.1c-29.9,4.6-56.7,7.9-81.9,17.9C102,636.4,80.7,654.2,56.9,667.4z"
		/>
	<path class="st18" d="M492.7,292.7c11.5-7.8,23.2,0.2,34.8-0.5c5.7,8.5-1.9,14.3-4.6,20.8c-2.7,6.6-4.2,13.3-5.3,20.3
		c-11,9.9-22.5,19-37,23.3c-12.3-15.9-3.9-31,2.2-45.9C485.4,304.4,492.6,300.5,492.7,292.7z"/>
	<path class="st19" d="M515.4,332.3c-7-16.7,10.6-25.9,12.1-40c21.8-0.2,43.5,1.7,65.3,6c-14,8.2-23.3,24-41.9,22.8
		C539.7,326.7,529.2,335,515.4,332.3z"/>
	<path class="st20" d="M599.7,236.2c18.4-54.7,45.6-69.7,81.5-45.6C653.4,204.1,625.6,215.5,599.7,236.2z"/>
	<path class="st21" d="M714.5,328.3c-15.9-0.5-31.8,0-49-5.7c15.1-16.8,32.8-27.1,52.9-33.9c19.9-0.4,13.1,15.1,13.5,24.7
		C732.2,323.6,728.9,333.4,714.5,328.3z"/>
	<path class="st22" d="M523.3,402.4c39.1-6.8,63.7-33.5,86.2-62.9c2.7-3.6,5-7.4,7.5-11.2c7.7,1.6,16.1,2.8,5.2,12.4
		c-19,16.9-33.2,37.8-49,57.4C560.3,414.2,540.6,406.5,523.3,402.4z"/>
	<path class="st23" d="M699.3,288.3c-9.8-17.1-30.9-18.5-43.8-31.3c1.1-4.9,4.6-7.9,8.8-10.2c25.1-0.1,42.9,13.6,58.7,31.1
		C715.1,281.4,707.2,284.9,699.3,288.3z"/>
	<path class="st24" d="M714.5,328.3c15.5-5.6,17.7-27.3,3.8-39.6c10.1-7.1,16.6-4.1,20.3,7.1c1,3.1,2.8,6,3,9.1
		c0.7,9.5,5.3,21.8-2.1,27.5C734.3,336.5,722.4,333.3,714.5,328.3z"/>
	<path class="st25" d="M133.3,559.4c25-6.5,49.5-17.3,75.7-9.7c0.2,2.1,0.5,4.2,0.7,6.3c-21.5,2.4-43.1,4.7-64.6,7.1
		C140.8,563.3,134.9,568.4,133.3,559.4z"/>
	<path class="st26" d="M515.4,332.3c11.8-3.7,23.7-7.5,35.5-11.2c1.5,1.2,2.9,2.4,4.4,3.7c-26.4,9.2-50.9,22.1-73.3,39
		c-3.6-0.4-7.5,0.1-9.4-4.2c2.1-2.6,4.7-4,8.2-3.3C492.3,348.3,503.8,340.3,515.4,332.3z"/>
	<path class="st27" d="M217,654.7c-13.1,29.2-40.7,32.2-58.3,47.8C172.4,682.3,190.6,667.6,217,654.7z"/>
	<path class="st28" d="M723,278c-19.1-11.2-36.4-26-58.7-31.1c7-10.9,15.3-2.5,22.1-0.6c16.4,4.6,29.1,15.5,40.1,28.4
		c0.2,0.3-0.1,1.4-0.5,1.7C725.2,277,724.1,277.4,723,278z"/>
	<path class="st29" d="M480.8,356.2c-1.6,4-4.5,4.6-8.2,3.3c-3.3-25.3-1.5-49.1,20.1-66.8c11.2,3.9,1.1,7.1-0.5,10.1
		C483.2,319.6,470.5,335.4,480.8,356.2z"/>
	<path class="st30" d="M440.3,817.2c1.6,5.1,3.1,10.3,4.7,15.4c-12.2-0.1-24.1-1.8-34.8-8.4C419.2,817.5,431,822.9,440.3,817.2z"/>
	<path class="st31" d="M133.3,559.4c3.1,4,7.9,2.5,11.9,3.6c-10.2,5.7-21.6,1.9-36.4,7.2C118.6,561.6,125.9,560.3,133.3,559.4z"/>
	<path class="st16" d="M639.9,327.6c-15.9-1.5-17.4-10.3-20.4-21.9C629.7,310.9,632.1,318.9,639.9,327.6z"/>
	<path class="st8" d="M441.3,476.2c0.5,20.1,1.7,39.1-15.2,52.9c-11,9-22.8,9.4-33.7,1.5C368.1,513,360,453.1,378,429
		c16.7-22.4,42.2-20.1,55.8,5.1C441.1,447.7,442.6,462.3,441.3,476.2z"/>
	<path class="st10" d="M367.6,527.8c0.3,7.4-1.2,14.1-5.1,20.4c-4.4,7.2-10.3,11.2-19.2,10.3c-9.8-1-13.1-8.6-14.4-15.9
		c-1.7-9.4-1.8-19.1,1.7-28.6c3.2-8.9,6.3-17.8,17.6-17.4c11,0.3,14.7,9.5,17.8,18C367.4,518.6,367.1,523.3,367.6,527.8z"/>
	<path class="st32" d="M664.9,298.9c-1.7,8.4-7.1,12.6-15,11.9c-8-0.7-13.2-6.1-12.1-14.4c0.9-7.1,6.4-11.4,13.7-10.9
		C659.4,286.1,664.4,290.5,664.9,298.9z"/>
</g>
</svg>
