<?xml version="1.0" encoding="utf-8"?>
<!-- Generator: Adobe Illustrator 23.0.1, SVG Export Plug-In . SVG Version: 6.00 Build 0)  -->
<svg version="1.1" id="Layer_4" xmlns="http://www.w3.org/2000/svg" xmlns:xlink="http://www.w3.org/1999/xlink" x="0px" y="0px"
	 viewBox="0 0 1000 1000" style="enable-background:new 0 0 1000 1000;" xml:space="preserve">
<style type="text/css">
	.st0{fill:#78732C;}
	.st1{fill:#C0B853;}
	.st2{fill:#77732C;}
	.st3{fill:#77722C;}
	.st4{fill:#4CAA20;}
	.st5{fill:#356520;}
	.st6{fill:#4A471C;}
	.st7{fill:#224414;}
	.st8{fill:#C3E5B5;}
	.st9{fill:#5F6F4C;}
	.st10{fill:#CDBA9C;}
	.st11{fill:#585D5F;}
	.st12{fill:#512800;}
	.st13{fill:#575D5F;}
	.st14{fill:#9DA3A5;}
	.st15{fill:#ACD999;}
	.st16{fill:#4CA920;}
	.st17{fill:#224314;}
	.st18{fill:#7D3F02;}
	.st19{fill:#4CA921;}
	.st20{fill:#4AA520;}
	.st21{fill:#804101;}
	.st22{fill:#76712B;}
	.st23{fill:#341B00;}
	.st24{fill:#EEE9E0;}
	.st25{fill:#4BA920;}
	.st26{fill:#34641F;}
	.st27{fill:#434D36;}
	.st28{fill:#0D1205;}
	.st29{fill:#ECEDEE;}
	.st30{fill:#3D4345;}
	.st31{fill:#B6E0A4;}
	.st32{fill:#BFE4AF;}
	.st33{fill:#4C2803;}
	.st34{fill:#B6DEA5;}
	.st35{fill:#999FA1;}
	.st36{fill:#214213;}
	.st37{fill:#351C01;}
	.st38{fill:#7D8284;}
	.st39{fill:#214214;}
	.st40{fill:#512901;}
	.st41{fill:#FDFD7F;}
	.st42{fill:#A95401;}
	.st43{fill:#BFBFC0;}
	.st44{fill:#FEFDFD;}
	.st45{fill:#512801;}
	.st46{fill:#FCFC7F;}
	.st47{fill:#814203;}
	.st48{fill:#FCFB7F;}
	.st49{fill:#351B01;}
	.st50{fill:#0B0C09;}
	.st51{fill:#24221A;}
	.st52{fill:#040505;}
	.st53{fill:#C1B954;}
	.st54{fill:#EAE39C;}
	.st55{fill:#FCFCFB;}
	.st56{fill:#B1B470;}
	.st57{fill:#E4DD99;}
	.st58{fill:#D1D4D5;}
	.st59{fill:#15140E;}
	.st60{fill:#515151;}
	.st61{fill:#11100B;}
	.st62{fill:#5F5F60;}
	.st63{fill:#484848;}
	.st64{fill:#1D1D17;}
	.st65{fill:#4A4A4A;}
	.st66{fill:#1C1B14;}
</style>
<g>
	<path d="M543.8,174c20.6,5.5,40.5,10.8,60.9,16.2c-10.5-58.5,20.1-98.8,65.2-125.8c69.3-41.5,148.2-20.5,183.3,59.1
		c17.6,39.8,16.2,77-3.3,113.7c-11.8,22.2-30.2,39.2-54.7,48.4c-7.7,2.9-9.7,5-3.3,13.5c17.7,23.7,32.4,49.6,36,79.6
		c6.3,53.7-31.3,87-78.4,97.8c-14,3.2-49.9,31.9-52.5,43.9c-1.3,5.8,5.6,7.1,6.5,12.8c3.9,26.4-6.5,42.8-36.1,48.3
		c-11.5,2.1-16.8,7.4-21,16.4c-7.2,15.3-14.3,30.7-21.4,46c-8.5,18.4-13.6,34.9,2.6,54c14.5,17.1,0.6,34.6-9.9,49.4
		c-11.3,16.1-11.9,38.3,0.2,52.4c31.2,36.2,30.5,59.1-3.2,95.4c-30,32.2-68.2,45.6-111.1,50.7c-60.7,7.2-118.9-3.2-174.9-24.2
		c-72.4-27.2-132.3-72.9-174.7-138c-15.4-23.7-20.6-53.3-17.1-82.5c2.5-20.8,44.2-48.5,64.5-43.9c15.1,3.4,37.2-17.5,34.4-32.6
		c-5.9-31.5,3.5-47.8,34.6-53.5c10.3-1.9,14.6-6.4,17.9-14.1c8.2-19.6,16.9-39.1,23.4-59.3c3.1-9.7,4.6-19.1-4.9-30.3
		c-19.7-23.3-13-45.2,14.2-59.4c5.9-3.1,10.1-5.5,11.6-13.3c4.9-26.7,7.9-52.7-6.1-77.9c-19.4-35.1-20.3-70,5.8-102.3
		c18.4-22.8,42.8-36.9,71.8-42.1c6.2-1.1,12.8-4,18.4-3.6c20,1.3,27.4-3.9,23.6-26c-3.5-20.4,12.1-34.2,36.9-36.8
		c17.2-1.8,34.5,1.1,50.1,8.4C562.9,128,566.5,148.1,543.8,174z"/>
	<path class="st0" d="M472.7,894.6c-10.4-0.1-20.7-0.2-31.1-0.3c0.6-8.4,0.1-14.4-10.1-18.7c-21.2-9-21.5-14.2-5-29.6
		c3.3-3.1,8.4-5.7,5.5-10.9c-3.4-6.1-9.7-4.1-13.6-1.1c-11.7,9.1-25.5,15.7-35.9,25.9c-9.5,9.3-19.3,11.5-31.1,10.8
		c-12.8-2.6-24.9-6.7-35.4-14.8c25.4-13.6,38.5-35.6,42.7-63.3c3.6-23.5-2.2-43.7-22.1-58.6c-6.7-5-13.7-10.1-15.2-19.4
		c0.5-4,0.5-8.4,6.5-7.8c34.4,17.7,69.1,34.7,105.7,47.2c21.6,8.6,44.6,12,67.1,17.2c35.4,8.3,48,31.5,33.4,65
		C521.9,864,501.8,884.3,472.7,894.6z"/>
	<path class="st1" d="M324,715.4c5.1,4.9,9.9,10.2,15.5,14.6c33.8,26.8,31.8,94.6-3.6,119.1c-6.1,4.2-12.8,5.9-20,6.8
		c-22.3-7-41.4-19.7-59-34.8c-1.7-13.3-10.6-24.5-10.6-38.3c0-5.7-3.6-9.5-8.5-11.9c-14.5-7-16.3-18.5-11.7-32.3
		c1.9-5.2,5.4-9.5,7.3-14.6c4.9-14.1,10.3-27.9,18.5-40.5c3.3-5.1,5.3-11.3-1.1-15.4c-5.9-3.7-9.7,1.7-13,5.3
		c-15.5,16.8-29.9,34.2-32.5,58.2c-0.5,1.8-1.5,3.4-2.9,4.5c-3.7,1.8-7.2,1.3-10.5-1.1c-0.5-17.4,4.6-32.7,16.9-45.4
		c7.1-7.4,13.7-15.3,20.2-23.2c20.6-25.1,20.6-25.1,40.6,1.6c6.4,10.6-2.4,19.5-3.3,29.3c13.5-3.8,20.9,1.3,23.1,17.8
		c2.4,18,0.9,36.1-1.7,54.5C292.4,746.2,294.6,721.5,324,715.4z"/>
	<path class="st0" d="M476.2,727c-6.1-0.3-12.1-0.6-18.2-0.9c-35.7-1.9-68.2-12.2-95.6-36c3.1-11.4,18-9.4,22.1-19.6
		c1.8-2.2,4-4,6.4-5.4c10.1-4.7,13.6-0.4,15.3,9.7c3.5,20.2,22.7,27.7,38.2,14.4c10.1-8.7,15.6-5.7,21.6,3.5
		c2.8,4.3,5.1,9.2,9.4,12.4c6.6,4.9,13.5,4.1,20-0.3c6.9-4.7,6.4-11.6,1.9-17c-12.6-15.2-4.9-24.8,8.3-32.9
		c40.6-24.8,46.6-68.3-11.8-95.2c-26.7-12.3-55-14.2-83.2-18.3c-11.8-12.6-25.7-22.5-40.8-31c-5.3-3-12-5.6-10.6-14
		c57.3,20.7,114.7,41.5,172,62.2c8.2,3.9,16.6,7.1,24.6,11.4c15.2,8.3,24.5,21.6,29.3,37.4c9.5,30.7-13.5,92.2-39.6,110.8
		C523.8,733.6,499.9,729,476.2,727z"/>
	<path class="st2" d="M503.6,515.9c-28.6-7.2-56-17.9-82.5-30.7c6.5-8,18.6-8.7,23.6-19.2c7.1-14.9,3.8-36-9.1-48.3
		c-8.9-8.6-20-14.4-29.9-21.7c-5.6-4.1-12.5-7.6-11.5-16.5c37.8,17.6,74.2,38.1,113.5,52.6c14.5,5.3,28.8,11.3,43.2,17
		c9.6,6.7,13.8,15.2,9.4,25.3c9.1-10.8,24.3-6.6,36.8-10.7c16,3.8,28,13.5,37.1,26.5c10.6,15.1,6.4,30.7-10.2,38.7
		c-12.5,6-25.6,8.1-39.6,5.3C557.4,528.6,530.2,523.6,503.6,515.9z"/>
	<path class="st3" d="M648.2,304.5c-14.3,35.8-12.2,41,27.7,66.4c9.9,5.9,19.4,12.7,13.9,26.2c-4.8,11.9-15,12.8-26.1,9.6
		c-24.2-2.1-47.4-8.4-70.5-15.5c1.7-22-12-34.8-28.6-44.5c-16.7-9.7-34.1-18.3-52.5-24.7c-6.6-2.3-15.9-2.7-16-13.4
		c3-1.1,5.9-2.6,8.9-3.2c25.8-4.9,26.9-6.2,26.4-32c3.7-3.5,8.4-4.1,12.6-2.5C578.2,283.9,613.9,291.9,648.2,304.5z"/>
	<path class="st4" d="M379.3,347.3c-10.1-8.5-23.8-13.3-29-27.1c17.1-4.3,25.2,13.7,41.4,16.3c-4.6-8.4-12.1-12.1-18-17.2
		c-38-32.7-35.6-75.5,7.6-100.5c22.6-13.1,46.9-25,74.9-16.3c0.3,10.9-8,7.5-13.8,8.4c-24.5,3.5-48.9,7.2-68.1,25.2
		c-21,19.7-21.6,32.5-4,55.3c18.4,23.9,44.2,37.9,69.8,51.6c70.3,37.6,145.6,61.1,223.7,75.8c13.2,10.4,13,16.9-1,22.8
		c-9.9,4.1-20.1,4.5-30.6,2.4C542.5,425.8,455.8,399.8,379.3,347.3z"/>
	<path class="st1" d="M359.2,496.4c7.1,9.9,18.7,13.2,28.4,19c9.7,5.8,17.8,12.4,22.9,22.4c-0.4,0.9-0.7,1.7-1.1,2.6
		c-11.4,8-27.4,9.1-34.8,23.1c-8.5,16.1-11.1,32.7-4.3,50.3c4.5,11.8,7.1,23-4,33.8c-6.8,6.6-1,12.9,4.8,17.7
		c4.6,3.8,11.4,2.2,15.9,6.4c-2.3,14-14.8,12.7-24.2,16.1c-2.7,2.3-6.1,2.8-8.9,1.2c-23.7-13.6-47.7-27-60.8-52.9
		c-16.1-18-15.8-33.5-0.7-54.3c20.9-28.9,32.1-63.4,36.8-101.6C340.1,486,349.7,491.2,359.2,496.4z"/>
	<path class="st1" d="M496.1,308.6c23.1,10.9,46.6,21.1,69.3,32.8c17.1,8.8,30.2,21.6,33.4,42.2c0.9,5.9-1.8,6.5-5.6,7.6
		c-68.2-19-133.9-43.4-191.7-85.7c-23.1-32.9-14.7-61.5,19.7-67.2c7-1.2,14.2-1.9,19.9,3.9c-2.4,5.9-5.1,11.7-7,17.8
		c-3.3,10.9-1.5,21.3,8.8,27.1C459.7,296.6,476.6,305.9,496.1,308.6z"/>
	<path class="st5" d="M379.3,347.3c12.1,1.7,20.5,10.8,30.9,16.1c72.1,37,148.3,61.3,227.7,76.6c9.8,1.9,18.5-0.9,26.5-3.7
		c13.5-4.8,3.4-11.7-0.5-17.5c18.6-0.3,36.2,8,55.6,4.2c14.6-2.8,27.2-7.8,38.7-16.6c7-5.1,14.3-6,21.2-0.3
		c7.5,6.2,7.3,14.7,4.9,23.1c-2.9,10.3-9.7,18-18.6,23.7c-33,14.5-68,10.2-101.6,6.5c-74.4-8.4-144.9-31.5-211.8-65.2
		C426.2,381.2,400.1,368.4,379.3,347.3z"/>
	<path class="st5" d="M316.5,870.8c17.8,5.7,35.7,11,53.2,17.2c59.2,21,118.2,23.8,177-1.5c5.9-2.8,11.4-3.2,14.3,3.8
		c2.5,5.8,0.6,11.3-3.1,16.2c-7.8,10.2-20.4,12.8-30.6,19.2c-36.2,13.1-73.5,6.4-109.6,2.7c-78-7.8-144.3-42.9-201.1-96.5
		c-2.3-2.2-4-5-5.9-7.5c10.1-5.9,15.5,3.1,21.8,7.5c28,19.5,55.1,40.6,87.2,54.9C323.3,879.6,312.9,876.7,316.5,870.8z"/>
	<path class="st1" d="M394.3,379.5c10,12.3,24.2,19,37,27.7c18.8,12.8,25.9,30.4,21.2,52c-3.5,16-13.4,26.3-31.3,26
		c-25.6-9.5-49.2-23.2-72.8-36.7c-11-6.3-14.7-13.3-7-26.6c13.4-23,11-49.6,10.2-77.7C367.1,357.1,380.7,368.3,394.3,379.5z"/>
	<path class="st6" d="M476.2,727c8.4-0.1,16.9,0.1,25.3-0.4c28.5-1.5,50.4-13.1,63.8-39.8c8.5-17.1,12.9-35.2,16.3-53.5
		c4.6-25-6.7-44-26.3-58.5c-7.7-5.7-16-10.8-24-16.1c32.7,6.5,64,19.1,97.9,20.1c9.4,0.3,4.8,6.2,2.6,10.8
		c-14.6,31.5-31,62.3-34.5,97.7c-9,13.1-20.9,24.2-27,39.3C539,741.8,507.6,732.9,476.2,727z"/>
	<path class="st6" d="M472.7,894.6c23.7-18.6,49.6-35,59.2-66.4c8.2-27.1-0.8-43.2-27.3-51c-23.9-7-49-10.3-71-23
		c38.8,7,77.1,17.8,117.2,15c28.3-0.9,42.5,18.4,32.1,47.3c-4.6,13-5.7,26.1-8.7,39C545.1,881.1,511.1,893.5,472.7,894.6z"/>
	<path class="st7" d="M765.6,453c3.7-5.9,7.9-11.6,11-17.9c10.5-21.3,5.8-28.4-18.4-28.6c10.8-18.5,10.6-36.9-0.3-55.2
		c-4.6-7.8-9.8-15.4-13.4-23.7c-5.2-11.9-2.1-24.5,6.8-31.9c10-8.4,17.9,2,24,9.2c18.8,22,32.4,46.5,36.8,75.7
		C816.5,410.4,798.2,439.3,765.6,453z"/>
	<path class="st6" d="M503.6,515.9c26.6,4.1,53.5,6.9,79.7,12.9c13.9,3.2,25.7,0.1,37.6-4c15.6-5.3,19.4-19.2,9.7-32.4
		c-9.4-12.8-22.9-20.6-36.8-27.6c-1.2-0.9-1.5-1.7-1.1-2.6c0.4-0.8,0.8-1.3,1.2-1.3c39.4,5.3,78.8,10.7,121.2,16.4
		c-20.5,20.1-37.4,39.5-52.9,60.1c-7,9.3-20.1,8.9-28.8,7.9C589.1,540.7,544.7,535,503.6,515.9z"/>
	<path class="st8" d="M456.1,202.6c-30.8,2.3-60.5,7.9-84.7,29.1c-24.5,21.4-26.5,45.8-6.4,71.5c8.9,11.5,21.2,19,31.6,28.7
		c3.2,3,7.8,6.7,5,11.5c-4.2,7-9.3,1.1-13.2-1c-12.9-7-25.5-14.7-38.2-22.1c-7.9-7.2-14.2-15.2-14.1-26.6
		c-12.5-35.1,0.1-61.8,28-83.4c21.4-18.4,47.5-23.8,74.5-27.6C456.1,180.2,461,186.6,456.1,202.6z"/>
	<path class="st9" d="M725.9,281.8c-18.3-0.5-36.5-1.5-50.4-15.9c1.7-5.6,4.1-10.7,9.1-14.1c10.6-3.2,20.5,1.3,30.5,2.9
		c21.5,3.6,42.6,3.3,63-5.3c41.8-17.5,60.8-68.1,35.5-114.6c-5.2-9.6-13.6-17.6-15.4-28.9c1.5-6.6,3.3-13.1,5.9-19.4
		c43.2,30.8,56,89.9,31,143.2c-11.5-3.8-2-10.6-2.3-15.6c-12.9,38.3-43.2,56.1-80.5,61.8C743.2,277.3,735.7,285.1,725.9,281.8z"/>
	<path class="st10" d="M683.5,253.9c0,5.8,1.5,12.6-8,12c-45.2-33.1-64.5-81.4-50-125.2c0.6-1.7,2.1-3,3.1-4.6
		c8.9,13.5-5.3,25.8-1.9,37.4c1.6-67,59.3-101.7,106.5-107.1c4.6-0.5,9-0.9,12.7-4c24-3.2,41.7,8.9,58.1,24.1
		c0.9,5.9,5.3,12.6-4,15.9c-15.3-1.2-24.6-16-39.8-17.4c-41-7-73.4,8-99.8,38.7c-27.2,40.1-22.7,80.5,12.9,114.6
		C678,242.7,683.9,246.3,683.5,253.9z"/>
	<path class="st11" d="M539.5,148.6c0,8.2-6.7,12.2-11.2,17.4c-27.7,31.9-31.6,66.2-12.5,103.8c10.2,20.2,5.2,26.9-18.2,27
		c-16.8,0.1-31.1-6.6-44.8-15.4c21-7.6,28.4-22.5,27.3-44.6c-0.7-13.9,3.6-28,6.8-41.8c4.1-18.1,14.7-31.1,30.3-40.5
		c2.1-3.3,5.2-5.3,8.9-6.4C530.6,147.2,535.1,145.4,539.5,148.6z"/>
	<path class="st1" d="M648.2,304.5c-27.4-1-52.8-10.4-78.3-19.4c-12.7-4.5-24.6-11.3-38.5-11.8c-6.2-6.5-9.8-14.5-12.3-23
		c1.9-10.9,10.2-5.9,15.2-5.1c37.4,5.7,73.5,16.5,108.4,30.8c6.6,2.7,18,4,13.4,16.8C653.5,296.7,650.8,300.6,648.2,304.5z"/>
	<path class="st12" d="M351.3,870.7c13.7-5,42.9-25.4,56.3-37c6.2-5.4,14.9-9.5,23.8-8.1c4.2,0.7,7.7,4.5,8,9.8
		c0.2,5.5-1,9.6-6.5,12.6c-5.8,3.2-15.5,4.5-13.9,13.7c1.4,7.8,11.7,10.7,16.5,11.1c24.2,1.9,13.5,11.7,6.1,21.4
		C410,892.4,380,884.3,351.3,870.7z"/>
	<path class="st13" d="M683,359.9c-31.9-7.9-39.2-27.2-19.6-52c6.7,3.8-0.2,12.4,6.6,17.3c6.8-10.7,5.6-21.4,1.9-32.2
		c0.6-9.3,5.6-8,11.8-5.2c13.5,6.1,28.3,6.9,42.6,9.6C735.8,326.2,711.4,361.3,683,359.9z"/>
	<path class="st14" d="M519,155.4c-5.6,12-21,15.4-24.2,30.1c-4.6,20.9-10.4,41.4-10.3,63c0.1,25.5-5.6,31.5-31.6,33.1
		c-15.8-8.1-10.2-20-4.8-31c9.9-20.1,19.7-40.2,21.1-63.1c9.9,1.5,5.1,9.1,4.8,13.7c-1.3,18.8-7.8,36.3-16.2,53
		c14-26.3,20-53.9,14.3-83.8c-1.6-8.5-5.7-17.6,0.1-26.4C489,142.6,504.9,145.4,519,155.4z"/>
	<path class="st15" d="M174.6,781.6c-11.4-16-16.7-34.4-19.4-53.4c-4.3-30.3,15.9-52.9,44.7-50.6c-28.2,45.2-26.9,66.1,6.9,114.1
		c2.1,4,4.4,7.7,8.3,10.3c3.8,2.6,11,4.5,6.2,10.9c-3.5,4.7-9.6,3-14.1,0.4C193.5,805.7,186.4,791.2,174.6,781.6z"/>
	<path class="st6" d="M663.7,406.7c9-0.5,18.3-0.6,22.6-10.8c5-11.8-7-16.6-10.4-25c3.8,0.6,7.7,1,11.4,1.9
		c30.3,7.1,43.2-0.1,54.6-33.3c4.6,11.7,9.8,20.8,11.7,30.5c5.2,26.1-8.4,41.7-40.6,42.7C696.8,413.2,679.6,412.5,663.7,406.7z"/>
	<path class="st16" d="M174.6,781.6c11.2,4.3,15.8,16,25.2,22.3c6.1,4.1,11.7,8.9,20.5,9.2c-2.2-10.3-14.5-11.5-13.6-21.5
		c35.2,28.3,68.8,58.8,109.7,79.2c2.9,2.5,6,4.8,8.7,7.4c3.1,3,7.9,5.8,4.9,11.2c-3.6,6.5-8.6,3.5-13.4,1.3
		c-34.2-15.9-64-38.6-94.1-60.7c-3.7-2.7-6.9-5.9-11.9-5.7C197.2,811.3,183.1,798.8,174.6,781.6z"/>
	<path class="st17" d="M527.3,925.7c5.9-9.1,16.6-12,24.3-18.7c10.6-9.3,9-15.7-4.9-20.4c28.7-17.3,59.9-32.3,61.8-74.3
		c12.1,9.9,16.6,19.6,13,34C612.4,883,570.1,919.3,527.3,925.7z"/>
	<path class="st5" d="M468.6,734.6c18.7,0,35.9,8.4,55,8.4c23.9,0,46-3.6,66.2-16.5c13.4-3.2,11.1,4.3,8.2,12.1
		c-7.6,13.8-22.5,16.6-35,17.7c-57.4,5.4-112.7-3.7-164.6-29.8c16.6-9.9,30.7,3.6,46.1,5.2C452.5,732.6,460,737.4,468.6,734.6z"/>
	<path class="st18" d="M324,715.4c-6.4,4.1-5.6,15.3-18.2,14.4c-6.8-0.5-6.9,11.5-7.9,18.1c-1.9,12.2-3.9,24.1-11,36.2
		c-7.8-9-5.5-17.9-3.7-26.4c3-14.2,2.7-28.6,1.3-42.7c-1.4-14.6-10.4-18.4-21.9-9.8c-3.7-13.9,5.1-25.1,6.8-37.4
		c19.4,13,38.9,26,58.3,39C324.6,708.9,324.3,712.1,324,715.4z"/>
	<path class="st5" d="M656.2,566.3c-28.6,5.6-56.6-0.5-83.9-7.1c-47.6-11.4-94.1-27.1-138.7-47.5c8-7.9,16.3-1.8,23.3,0.9
		c28.3,11,57.5,18.9,86.5,27.6c2.7,0.8,5,0.7,7.2-0.9c34.9,6.6,69.6,15,105.6,11.4c4-2.6,7.7-2.1,9.1,2.6
		C667.3,560.8,660.9,563.1,656.2,566.3z"/>
	<path class="st19" d="M468.6,734.6c-15.3,9.3-29.4-1.4-44-3c-8.8-0.9-16.8-6.3-26.2-5.1c-43-17-83.3-38.3-117.9-69.5
		c0.8-12.2-10.5-18.6-13.9-28.7c-3.5-10.3-13.4-21.7,2.9-30.3c-2.8,18.5,7.9,30.8,19.7,42.5c10.9,3.9,16.8,13.9,25.2,20.7
		c35.1,28.4,74.4,48.3,117.6,60.7c6.3,1.8,12.3,3.7,17.5,7.7C455.9,731.3,462.2,733,468.6,734.6z"/>
	<path class="st20" d="M550.6,539.3c-16.3,5.2-30.3-4.1-45.3-7.3c-24.3-5.2-46.4-18.6-71.7-20.3c-26.7-9.3-53.8-17.5-78.5-31.7
		c-1-9.2-10.6-9.9-15.4-15.4c-5.9-6.7-16.3-11-12.5-23c58.9,43.3,126.7,67.5,195.4,89.5C531.9,534,541.3,536.5,550.6,539.3z"/>
	<path class="st21" d="M229.8,738.5c-1.9,11.8-7.3,25.2,12.4,27.3c3.6,0.4,7,3.2,6.7,6.1c-1.5,17.2,15,31.3,8.1,49.3
		c-31-21.7-56.5-47.6-65.2-86.1c3.7-0.4,7.4-0.7,11-1.1c6.5,2.7,5.7,10.9,10.7,14.9C219.2,745.6,220.8,736.1,229.8,738.5z"/>
	<path class="st22" d="M441.2,242.2c-8.3,0.3-16.5,0-24.8,2.7c-22,7.1-29.1,21.2-20.6,42.7c2.3,5.9,7.2,10.9,5.8,18
		c-0.6-0.2-1.4-0.2-1.8-0.6c-13.7-11.6-31.7-22.6-28-42.9c4.1-22.3,24.6-29.9,44.4-35.2c9.9-2.6,20-5.3,31.5-2.9
		C448.8,231.1,445.6,236.8,441.2,242.2z"/>
	<path class="st23" d="M574.1,855.5c-7.2-10.3-4.6-22.7-0.5-31.3c13.9-29.9,8.3-45.6-22.8-55c11.2-6.8,25.3-1.8,36.8-9.1
		c4.4-2.8,5.8,2.8,6.2,6.7c1.3,14,2.3,28,4.1,42C600.4,829.8,591.5,844.7,574.1,855.5z"/>
	<path class="st3" d="M656.1,292.8c0-8.7-7.2-9.9-13-12c-37.5-13.7-75.6-25.4-115.2-31.5c-3.1-0.5-6.2-2.3-8.7,1.1
		c-4.2-5.1-5.4-11.2-5.4-19.3c48.3,8.4,93.7,23.3,137,44.5C657.8,278.9,665.4,283.6,656.1,292.8z"/>
	<path class="st24" d="M746,62.5c-5.5,11.6-17.2,6.3-25.8,9.4c-44.9,16.2-80.3,41.2-89.5,92.2c-0.7,4,0.1,9.3-4.5,12.3
		c-5.2-13.8,4-26.6,2.5-40.1C641.7,95.9,695.1,57.1,746,62.5z"/>
	<path class="st25" d="M565.5,199.1c23.5,5.7,51.9,3,59.8,35.3c-4.3,4.1-9.6,4.1-14.6,2.5c-28.4-9.3-57.8-14-87.3-18.4
		c-6.6-1-11.3-3.7-8.3-11.6l1.3-0.4c11.3-7.4,23.8-3.2,35.8-4C556.7,202,562.6,206.4,565.5,199.1z"/>
	<path class="st26" d="M515,206.8c2.7,12.5,13.4,7.8,20.6,8.6c30.5,3.6,60.1,11.4,89.7,19c5.1,6.4,10.2,12.9,18.9,24
		c-44.4-16.8-83.5-30.5-124.7-37C511.5,220.2,509.6,213.8,515,206.8z"/>
	<path class="st27" d="M725.9,281.8c5.8-14.7,18.6-7.1,28.5-9.5c32-7.8,58.8-23.7,74.2-54.6c1.4-2.7,3.1-5.3,5-8.4
		c5.5,7.2-6.4,14.3,1.6,20.4c-16,33.3-47,44.3-79.6,50.8C746.5,282.3,736,288.8,725.9,281.8z"/>
	<path class="st28" d="M449.5,729.7c-61.7-14.8-117.4-40.6-160.4-89.1c1.4-1.5,2.8-3,4.2-4.5c20.9,20.4,41.8,40.8,69.7,51.7
		c28.9,19.7,62.1,28.5,95,38.2C455.2,727.3,452.4,728.5,449.5,729.7z"/>
	<path class="st29" d="M472.4,145.1c8.2,37.5,6.8,74.4-8,110.2c-2.3,5.5-4.7,15.4-12.1,12.2c-7.6-3.2-1.6-11.4,0.7-16.9
		c6.5-16.1,16.5-30.8,18.3-48.8c0.5-5.1,2.6-10.2-2.2-14.4c2-17.5-14.6-33.2-5-51.5c1.6-0.9,3.2-1,4.9-0.3
		C472,138.1,472.8,141.4,472.4,145.1z"/>
	<path class="st30" d="M683,359.9c25-5,41.2-28.4,43.4-62.6c8.2-1.8,10.1,1.5,8.3,9.2c-3.4,14.3-5.6,28.8-9.5,42.9
		C721,364.7,708.1,367.6,683,359.9z"/>
	<path class="st31" d="M269.4,598.1c-12.8,19.2,4.7,30.3,11.3,44.5c1.8,4,16.4,10.2-0.3,14.4c-13.6-10.8-23.9-23.6-26.7-41.4
		c-1.9-11.9,2.5-20.2,12.7-25.9c2.1-1.1,4.9-3.2,6.5,0C274.8,593.3,270.5,595.2,269.4,598.1z"/>
	<path class="st32" d="M327.2,441.5c5.1,14.5,18.5,20.6,29.4,29.2c5.5,4.3,10.9,8.1-1.5,9.2c-10.7-5.6-22.8-8.7-31.6-17.9
		c-13.4-14-12.8-26.5,2.5-38.8C329.3,429.4,319.3,436.4,327.2,441.5z"/>
	<path class="st33" d="M593.8,461c0,1.3,0,2.6-0.1,3.8c-7.8,3.3-11.8,15-24.8,7.1c-6.9-4.2-4.1,12.5-14,13.9
		c3.6-13,3.9-25.5-3.9-36.8C565.7,451.4,580.1,454.9,593.8,461z"/>
	<path class="st34" d="M565.5,199.1c1.5,3.4,8,3.7,6.5,8.2c-1.7,5-6.3,1.8-9.9,1.6c-15.3-0.9-30.5-1.7-45.8-2.6
		c1.6-14.7,10.2-17.8,23.1-14.2C548.1,194.7,556.8,196.9,565.5,199.1z"/>
	<path class="st35" d="M671.9,293c10.8,9,10.4,35.6-0.7,41c-7.1,3.4-10-1.7-10.2-7.1c-0.2-6.3,1.5-12.6,2.4-18.9
		C663.5,301.4,670,298.5,671.9,293z"/>
	<path class="st36" d="M656.2,566.3c-0.4-5.2,16-10.4,0-15.6c4.9-4.1,9.6-8.4,14.6-12.3c3.6-2.8,6.7-10,12.2-3.5
		c3.7,4.4,6.2,10.1,1.9,15.9C677.7,560.3,669.9,568.7,656.2,566.3z"/>
	<path class="st37" d="M570.3,726.6c-2.9-21.3,12.6-29.9,27-39.3C598.3,707.2,588.7,719.9,570.3,726.6z"/>
	<path class="st38" d="M468.5,136.9c-1.5-0.3-2.9-0.7-4.4-1c10.1-22.2,29.9-15.7,46.3-13.5c13.7,1.9,30.4,5.3,29.1,26.2
		c-4,1.3-8,2.5-12,3.8c-4.2-16.1-21.5-25.1-40.5-21.1C480.6,132.6,475.2,136.8,468.5,136.9z"/>
	<path class="st39" d="M598,738.6c-0.4-5.6-0.1-11.7-8.2-12.1c8.6-7.8,11.8-19,17.1-29.6C618,714.6,616,723.2,598,738.6z"/>
	<path class="st4" d="M364.1,210.3c-24,22.9-36.5,49.6-28,83.4C321.5,260.2,333,226,364.1,210.3z"/>
	<path class="st40" d="M450.6,858.4c4.5-15.4,2-36.7,26.3-30.4c7,1.8,9.6,15.4,6.7,23.5C476.6,871.1,462.3,856.8,450.6,858.4z"/>
	<path class="st41" d="M203.1,730.6c-1.7-32.6,22.7-50,41.5-70.5c4.8-5.2,7.8,0.7,11,3.4c6.4,5.6,7,11.8,2.5,19
		c-8.8,13.7-16.5,27.8-19.8,44C227.2,732.9,215.5,734.9,203.1,730.6z"/>
	<path class="st42" d="M203.1,730.6c11.2-5.7,23.2-4.3,35.1-4.2c-2.8,4-5.6,8.1-8.4,12.1c-2.4,2-4.6,4.4-7.3,5.9
		c-6.2,3.4,0.3,16.7-10,14.8c-8.1-1.5-4.2-12.2-7.8-18c-1.3-2-1.3-4.8-1.9-7.3C202.9,732.8,203,731.7,203.1,730.6z"/>
	<path class="st43" d="M410.6,537.8c35.4,1.2,69.9,6.1,100.5,25.9c41,26.5,41.9,64.5,1.8,92c-12.7,8.7-26.5,15.5-9,32.6
		c6,5.9,7.4,14.4-2.2,19.6c-11,6-22.7,12.3-32.8-1.2c-5-6.7-8.7-14.4-14.3-23.9c-9,21.5-22.6,23.9-40.6,13.7
		c-9.4-5.3-16.3-9.4-12.3-22.1c4.3-13.5-5.3-6.8-10.5-6.3c-0.8-13.4,5.9-23.4,14.7-32.5c26,8.3,29.9,6,38.4-22.7
		c1.3-4.3,2.3-8.8,3.4-13.2c7.6-31.2,2.7-38.3-28.9-41.3c-1.9-0.5-3.6-1.3-5.1-2.5c-3.9-4.8-5.7-10.1-3.4-16.2
		C410.2,539.2,410.3,538.5,410.6,537.8z"/>
	<path class="st44" d="M406.7,636.4c-5,10.7-8,22.3-15.6,31.8c-1.3,1.2-2.6,2.4-3.9,3.6c-14.7,4.9-23.1-2.8-29.5-14.7
		c-2.9-5.4-3-11,3.2-12.9c14.9-4.4,9.9-13.5,6.6-22.8c-5.7-16.1-8.8-31.8-2.3-49c8.1-21.5,22.2-32.5,45-32.5
		c3.8,4.5,4.2,10,4.7,15.5c-1.5,10.3-12.3,14.2-15.8,23.8c-7.1,19.4,0.2,35.5,8.5,51.8C408,632.9,407.7,634.7,406.7,636.4z"/>
	<path class="st40" d="M488.5,477c-1.6-11.7-0.1-17.8,15.4-13.7c8.6,2.3,20.3-14.7,28.2,3c2.3,5.3,13.2,9.1,6.5,15.7
		c-7.9,7.7-17.9,19.8-28.7,15C502.6,493.7,484,495.8,488.5,477z"/>
	<path class="st45" d="M609.6,502.3c-0.6,5.4,1.9,13.6-7.4,12.5c-10.3-1.2-18.9-4.7-18.7-18.6c0.2-14.6,13.1-7.7,17.9-9.3
		C610,484,608.8,495.6,609.6,502.3z"/>
	<path class="st46" d="M323.7,644.8c-15.5-7.9-24.8-19.2-33.9-30.5c-3.7-4.6-3.4-10.3,0.5-14.3c24.7-26.1,33.9-58.9,41.2-92.6
		c0.4-1.8,1.6-3.3,3.1-6.3c8.2,12.9,6,25.6,3.2,37.8c-4,17.6-8.3,35.3-14,52.4C318,608.5,320.9,625.5,323.7,644.8z"/>
	<path class="st47" d="M432.7,306.2c31.5,0,57.2,14.4,81.5,35.5C484,336.1,451.3,340.6,432.7,306.2z"/>
	<path class="st48" d="M361.5,371.4c6,30.4,10.7,60.6,29.7,91.1c-9.8-4.5-14.9-6.8-19.9-9.3c-27.2-13.4-27.5-13.5-16.5-41.7
		C359.9,398.5,359.8,385.1,361.5,371.4z"/>
	<path class="st49" d="M566.3,805c-0.4,3.5-1.4,7-5.7,5.8c-4.5-1.3-8.2-4.7-8.4-9.6c-0.3-4.5,2.9-7.5,7.5-6.6
		C564.9,795.5,566.3,800,566.3,805z"/>
	<path class="st50" d="M762.5,81.5c15.7,1.3,26.1,12,37.6,20.9c3.3,5.5,6.3,11.3,9.9,16.6c25,36.6,27.4,73.9,6.5,105.5
		c-19.2,29-60.9,43.9-100.7,35.9c-10.8-2.2-21.5-4.4-32.3-6.6c-21.8-17.9-40.7-37-44.1-67.7c-2.7-24.5,1.7-46,17.6-64.9
		c1.9-1.2,3.4-0.7,4.7,1.1c1.6,12.9-10.7,22.2-9.4,35.1c-1.8,7.3-2.9,14.7-2.3,22.2c-0.1,4.6,0.7,9,2.2,13.3
		c3.1,9.3,2.5,22.5,15.7,23.5c14.6,1.1,29.7-15.8,30.2-31c0.5-13.5-1.3-27.1,1.4-40.6c0.7-1.9,1.8-3.5,3.3-4.8
		c10.7,1.4,9.8,11,12.8,17.9c-0.4,38.9,33.1,55.8,53.4,81.1c5.8,7.2,13.3,1.1,19.1-2.6c19.9-12.4,34.4-46.3,29.8-69.6
		c-1.9-9.5-3.8-19.1-8.7-27.6c-10.2-25.1-32.9-38.2-52.4-54.4C757.5,81.6,758.8,79.6,762.5,81.5z"/>
	<path class="st51" d="M762.5,81.5c-1.6,1.3-3.1,2.7-4.7,4c-2.4,3.6-6.3,5.2-10.1,4.9c-29.4-2.6-52.6,11.5-75.2,27.2
		c-3.2,2.3-6.5,4.3-10.7,3.9c-1.6-0.1-3.2-0.2-4.8-0.3C680.8,87.7,727.1,70.2,762.5,81.5z"/>
	<path class="st52" d="M468.5,136.9c13.6-13.3,48.3-13.7,60.9-1c6.7,6.7,1.7,11.3-1.9,16.5c-3.3-0.3-6.3,0.3-8.5,3
		c-16.1-1-31.3-5.7-46.6-10.3C468.7,143.5,469,140,468.5,136.9z"/>
	<path class="st0" d="M527.8,607.6c-2.1,13.3-8.8,23.9-19.5,30.5c-12.6,7.8-26.2,14.1-39.7,20.1c-11.3,5-15.7,0.4-13.4-11.7
		c3.5-18.4,7.5-36.8,16-53.6c5.6-11.2,12.5-22.9,27.8-18C514.8,579.7,525.4,590.5,527.8,607.6z"/>
	<path class="st0" d="M406.7,636.4c-0.2-1.2-0.3-2.3-0.3-3.5c7.7-25.1,5.1-51.8,11.9-77.1c31.9-3.8,41.7,6.5,35.3,37.9
		c-2.4,11.9-5.2,24-9.8,35.1C432.7,655.5,427.7,656.1,406.7,636.4z"/>
	<path class="st53" d="M418.3,555.8c1.3,26.5,5,53.4-11.9,77.1c-23.3-27.6-20.1-56.5,8.5-77.5C416,555.4,417.2,555.5,418.3,555.8z"
		/>
	<path class="st54" d="M661.8,121.5c27.2-24.9,57.6-41.3,96.1-36c25.8,9,43.4,26.6,54.6,51.2c5.1,19.1,11.5,38.1,3.7,58
		c-2.5,6.4-2.9,14-9.9,17.9c-10.2,2.1-15.7-8.3-25.4-9.7c5.3,8.4,16.7,7.9,21,16.4c-9.4,19.7-20.8,22.5-37.3,11
		c-22.4-15.6-39.3-34.7-44.9-62.2c-0.9-4.4-1.9-9-8.1-8.4c-2.5-6.2-5-12.4-7.5-18.7c0.3-13.9,12.9-11.2,20.6-14.8
		c6.4-3,13.8-3,20.9-1.3c8.5,5.1,16.8,7.4,24.3-1.7c2.2-2.5,4.1-5.1,5.5-8c-6.1-17.8-21.2-17.7-35.9-18.4c-4.2,1.3-8.3,2.8-12.8,2.9
		c-12-1.4-20.7,6-30.1,11.5c-5.3,2.5-10.9,4.5-15.2,8.9c-8.6,8.5-18.6,16.1-20.4,29.4c-0.6,3.7-1.2,7.3-3.6,10.3
		c-4.3,2.6-7,0.4-9.2-3.1C646,142.4,656.6,133,661.8,121.5z"/>
	<path class="st55" d="M694.8,109.1c9-8.7,17.6-18.3,32.2-12.3c3.4,2.5,2.3,8,6.4,10.2c3-4.3,1.5-9.8,4.4-13.9
		c18.2-5.7,31.1,5.1,43.7,15.1c4.9,3.9,2.4,7.8-3.3,9.3c-7.8,0.2-13.3,4.9-18.8,9.7c-3,1.8-6,4.3-9.7,1.4
		c-16.5-0.3-32.2,2.1-45.8,12.6c0,1.2-0.3,2.4-1,3.4c-5.1,16.1-14.5,29.4-26.7,40.9c-9.9,2.1-9.8,6.2-2.1,11.6
		c1.8,8.4,0.1,16.6-8.5,18.6c-10,2.3-12-8.4-14.3-14.6c-2.5-6.9-3.1-14.8-6.1-21.8c-1.1-7.8-2.7-15.7,2.9-22.6
		c2.6,0.9,5.1,1.8,7.7,2.7c3.6-2.9,8-3.7,12.6-4.3c-3.4-3.5-8.8-1.9-12.2-5.1c1.1-15.6,11.6-24.6,23.1-33c7.6-0.7,12.6,6,20.3,7.2
		C702,117.8,694.4,114.6,694.8,109.1z"/>
	<path class="st56" d="M711.6,159.8c1.6-2.6,2.8-7,4.9-7.5c4-1,4,4,5,6.5c3.3,7.7,7.2,15.6,8.3,23.8c3.6,26.4,27.5,34.9,44.2,48.6
		c10.1,8.3,21.2-1.9,26.5-13.8c-1.7-2.6-1.6-4.8,1.2-6.6c15.9-14.7,14.9-33.8,13.4-52.9c-0.5-7-1.7-14-2.5-21.1
		c26.4,42.2,1.4,97-32.6,110.6c-8.2,3.3-12.5,3.6-16.8-5c-7-14.2-17-26.1-32.4-31.8c-6.8-2.5-7.8-7.9-9.2-13.5
		C718.2,184.6,714.9,172.2,711.6,159.8z"/>
	<path class="st57" d="M645.4,179.4c7.1,3.6,5.8,10.7,7.1,16.8c1.5,6.9,4.8,16.3,11.1,16.3c8.3-0.1,7.3-10.1,8.1-16.8
		c2.3-4.1,6.6-7.6,4.2-13.2c9.1-12.6,18.1-25.2,27.2-37.7c0.3,8.4,1,16.7,0.9,25.1c-0.8,38.8-1.1,38.8-34.5,55.3
		c-6.5,3.2-8.2-0.7-10.4-4.2C650.7,208.3,645.4,194.7,645.4,179.4z"/>
	<path class="st14" d="M718.5,253.4c-13.1,0.8-24.8-3.2-35.3-11c6-5.7,16.4-10.5,3.9-19.9c9.8-7.5,20.8-2.3,31.3-3.2
		c8.9,3.7,16,8.8,15.6,19.8C733.7,249.2,726.1,251.3,718.5,253.4z"/>
	<path class="st13" d="M718.5,253.4c22-11.4,9-22.8,0-34.2c23.9-1.8,30.5,15.6,38.4,32.9C743.3,256.7,731,259.2,718.5,253.4z"/>
	<path class="st58" d="M687.2,222.5c6,0.6,14.7-0.6,14.3,8c-0.5,10.1-9.5,11.8-18.2,11.9C663,231.5,679,227.8,687.2,222.5z"/>
	<path class="st59" d="M777,166.8c-5.9,0.6-12-1-11.1-5.8c2.3-12.2,14.9-12.2,23.6-15.9c6.1-2.6,10.3,4.6,9.6,8.8
		C796.9,166.7,783.7,162.4,777,166.8z"/>
	<path class="st60" d="M694.8,109.1c2.1,1.4,4.5,2.6,6.2,4.4c4.2,4.5,10.6,9.9,6.4,15.9c-5.4,7.8-11.2,0.1-16.2-2.9
		c-4.3-2.6-8-6.3-11.9-9.4C682.3,110,687.8,108.2,694.8,109.1z"/>
	<path class="st61" d="M801.6,210.7c-0.4,2.2-0.8,4.4-1.2,6.6c-8,2.3-13.5-3.2-19.3-6.7c-4.8-3-15.1-5-10-13
		c4.1-6.4,11.8-0.9,17.3,2.2C793.4,202.6,798.8,205.2,801.6,210.7z"/>
	<path class="st62" d="M737.8,93.2c7.2,9,2.1,16.7-2.7,24.3c-0.6,1-3.9,1.6-4.7,0.9c-7-6.1-3.2-14.1-3.4-21.5
		C730.6,95.6,734.2,94.4,737.8,93.2z"/>
	<path class="st63" d="M656.3,150.1c1.8-0.7,3.6-2,5.4-2.1c8.5-0.8,21-1.1,21.1,7.8c0,9.7-12.5,3.3-19.3,4.9
		c-2.3,0.5-5.1-0.7-7.6-1.1C656.1,156.3,656.2,153.2,656.3,150.1z"/>
	<path class="st64" d="M749.8,128.6c2.4-1.4,4.8-2.8,7.2-4.1c6.5-2.4,12.9-5.2,19.1,0.6c-6.1,3.6-11.9,7.8-18.4,10.5
		C751.6,138.3,749.7,134.1,749.8,128.6z"/>
	<path class="st65" d="M776.1,125.1c-6.4-0.2-12.7-0.4-19.1-0.6c5.6-7,10.1-17,21.3-6.9C778,120.2,779.7,123.4,776.1,125.1z"/>
	<path class="st66" d="M675.8,182.4c4.1,1,11.1,0.5,10.1,6c-1.2,6.2-9.2,5.1-14.2,7.2c-4.3-2-12.9,1.8-13.1-2.9
		C658.3,181.8,670.1,186.1,675.8,182.4z"/>
</g>
</svg>
