<?xml version="1.0" encoding="utf-8"?>
<!-- Generator: Adobe Illustrator 23.0.1, SVG Export Plug-In . SVG Version: 6.00 Build 0)  -->
<svg version="1.1" id="Layer_4" xmlns="http://www.w3.org/2000/svg" xmlns:xlink="http://www.w3.org/1999/xlink" x="0px" y="0px"
	 viewBox="0 0 1000 1000" style="enable-background:new 0 0 1000 1000;" xml:space="preserve">
<style type="text/css">
	.st0{fill:#FEEC1E;}
	.st1{fill:#A19020;}
	.st2{fill:#CCB99B;}
	.st3{fill:#8E7F19;}
	.st4{fill:#CBB89A;}
	.st5{fill:#5E6E4C;}
	.st6{fill:#5E6E4B;}
	.st7{fill:#F3EFE9;}
	.st8{fill:#F6F6F5;}
	.st9{fill:#EDE8E1;}
	.st10{fill:#C9B79A;}
	.st11{fill:#C9B699;}
	.st12{fill:#606E4D;}
	.st13{fill:#E6E4DE;}
	.st14{fill:#5D6D4B;}
	.st15{fill:#5E6C4B;}
	.st16{fill:#E7DDCE;}
	.st17{fill:#827419;}
	.st18{fill:#3D4630;}
	.st19{fill:#EEE896;}
	.st20{fill:none;}
	.st21{fill:#FEF7A6;}
	.st22{fill:#FEF7A3;}
	.st23{fill:#A39220;}
	.st24{fill:#A69520;}
	.st25{fill:#FEF7A1;}
	.st26{fill:#A49420;}
	.st27{fill:#A59420;}
	.st28{fill:#131202;}
	.st29{fill:#020302;}
	.st30{fill:#737C5A;}
	.st31{fill:#141510;}
	.st32{fill:#6A7654;}
	.st33{fill:#FEFEFE;}
	.st34{fill:#FEFEFD;}
	.st35{fill:#FEFEFA;}
	.st36{fill:#BDB196;}
</style>
<g>
	<path d="M871.8,584.9c-6.5-35.1-18.5-68.9-32.5-101.7c-17.6-41.3-44.3-76.9-76.1-108.3c-41.8-41.4-93.4-68.5-145.6-95.5
		c23.8-12.4,47.7-23.1,62.9-47.1c12.8-20.2,19.9-40.6,23.8-64.6c6.7-41.4-2-76.7-29-107.3C617.4-5.4,504.7,3.1,456.9,73.4
		c-18.5,27.2-32,58.4-23.3,93.9c4.5,18.3,11.3,37.3-15.5,45.8c-9.8,3.1-12,21.8-25.1,16.9c-10.8-4-19.6-13.6-29.2-20.7
		c-29.9-22-61.4-23.5-94.5-8c-28.2,13.3-43,35.4-46.7,66.2c-1.8,15.1-5.1,28.3-19.1,40.1c-34.3,29-54,65-51.8,113.4
		c3.2,70.5-0.3,141.3,4.5,211.9c2.7,40.3-4.3,80.9,7.4,121c4.6,15.6,11.4,21.7,26.7,19.4c10-1.5,20.4-1.9,30-4.9
		c6.5-2.1,13.8-4.4,14.6-15.1c3.4-47.2,8.1-94.3,12.3-141.4c10,61.1,33.1,116.6,71.5,165.7c19,24.3,42,45.4,60.8,69.5
		c30.4,39.1,69,65.3,114.6,81.2c33.9,11.8,68.6,22.1,105.7,13.2c22.5-5.4,48-6.3,64.8,8.8c23.3,20.9,50.3,24.8,78,30
		c17.7,3.3,29.4-4.6,36.3-22.3c9.4-24.4,11.4-49.4,10.6-75.1c-0.6-19.7,5.3-37,20.8-51.1c11.8-10.7,24-21.3,32.4-35.5
		c17.9-30.2,29-61.6,33.5-97.1C881,660.4,878.8,622.6,871.8,584.9z M568.7,86c34.7,0.4,63.7,29.5,64,64.1
		c0.3,32.9-29.4,60.9-64.8,60.9c-35.2,0-62.8-26.5-64.1-61.6C502.7,117.8,535.7,85.6,568.7,86z M490.7,264.6
		c-8.5-1.7-15.2,5.9-23.6,4.7C476.1,254,476.1,254,490.7,264.6z"/>
	<path class="st0" d="M324.3,343.7c-0.1-1.2-0.3-2.4-0.5-3.5c-2.3-9.8-1.6-20.1-5.5-29.7c-3.8-9.5,0.2-17.4,6.6-24.3
		c14.4-8.9,25.8-21.4,44.2-25.1c16.1-3.3,20.5,1.2,21.1,15.2c2.9,9.4,5.9,18.7,15.9,23.2c1.5,2.3,1.4,4.8-0.5,10.4
		c10.2-5.2,18.5-10,28.1-10.6c-6.2,0.3-12.6,3.6-18.7-0.6c-1.1-0.9-1.5-1.9-1.3-3c0.2-1.1,0.4-1.7,0.8-1.7
		c12.9,2.1,26.2-10,34.5-7.6c22.3,6.4,42.5-2.3,63.7-1.6c102.1,3.4,185.6,45.5,251.7,121.9c70.3,81.3,102.7,176.8,94.9,284.1
		c-3.5,48.2-20.6,93.2-58.7,125.8c-24.9,21.3-33.1,46.8-29.6,77.9c2.4,21.9-2.2,41.1-20.1,55.6c-7.4,3.8-13.7,1.6-19.7-3.4
		c-19-15.8-38.8-30.8-52.5-51.8c-16.4-25.2-41.2-39.5-67.6-50.5c-15.8-6.6-28.8-15.7-37.6-29.5c-8.6-13.4-19.9-22.1-34.1-27.7
		c-23.9-9.5-39.6-26.6-48.3-50.4c-4.3-11.8-10.7-22.6-20.5-30.4c-56-44.3-87.7-103.8-112.1-169.6c-12.7-34.3-23-67.2-18.3-104
		c1.4-11.1-2-21.9-5.4-32.5c-3.2-10.1-4.7-20.3-0.8-30.5C330.6,360.9,325.2,353.1,324.3,343.7z"/>
	<path class="st1" d="M335.7,367.1c0.2,13.7,1,27,6.4,40.1c6.4,15.5,2.6,31.9,2,48c-0.8,23.8,3.8,45.8,14.5,67.5
		c12.8,26,23.3,53.3,33,80.7c6.3,17.7,15.8,32.5,29,45.4c13.9,13.7,27.6,27.6,41.6,41.1c15.5,15,29,30.9,36.5,52
		c6,16.7,17.9,29.4,35.4,36.9c18.3,7.9,35.9,16.6,45.9,36.7c5.8,11.8,18.3,18.7,31.9,23.8c30.9,11.5,56,30.9,75.8,58.2
		c16.2,22.3,35.3,42.9,62.9,52.3c-10.9,12.4-24.3,12.9-38.5,7.3c-6.5-2.6-13.9-5-18.7-9.7c-19-18.8-44.3-21.6-67.9-29.1
		c-24.8,3.2-47.1-5.1-69-15.2c-20.7-9.5-41.7-18.6-64.2-22.5c-33-5.7-56.7-24.8-75.4-50.9c-8.8-12.3-18.3-23.4-30.4-32.6
		c-15.6-11.8-26-27.4-29.4-46.8c-3-16.9-11-28.2-28-33.7c-16.5-5.3-23.7-16.1-18.7-34.6c4.3-16-4.5-30.5-9.6-45
		c-19-54.2-23.5-109.7-15.7-166.4c3.3-23.9,10-46.9,19-69.3c9.4-11.4,18.8-22.9,28.2-34.3C333.5,365.9,334.6,365.8,335.7,367.1z"/>
	<path class="st2" d="M661.2,92c-19.1-29.9-43.7-52-80.3-55.3c4.2,0,9.2,2.4,13.3-2.2C543.9,19.6,480.3,51.6,461,101.6
		c-0.1,0.3-0.3,0.6-0.4,0.8c-3,7-2.4,14.6-3.3,21.8c-5.3,41.8,6.7,77.6,37.6,107.2c34,32.7,74.2,39.1,118.5,30.7
		c27.3-12.7,50.1-30.1,61.9-59.1c-0.4-2-0.3-3.8,0.1-5.7c0,0,0,0,0,0c0.7-3.2,2.2-6.2,3.2-9.3C690.1,152.8,680.2,121.6,661.2,92z
		 M568,210.9c-35.2,0-62.8-26.5-64.1-61.6c-1.2-31.5,31.8-63.7,64.8-63.4c34.7,0.4,63.7,29.5,64,64.1C633.1,183,603.3,211,568,210.9
		z"/>
	<path class="st3" d="M304.2,401.4c3,23.5-10.7,43.5-13.4,66.1c-3.8,32.2-3.2,63.6-0.7,96c2.7,35.1,14.6,66.4,25,98.8
		c1.9,5.9,4.2,14.1,1.7,18.7c-10,18.6-0.3,27.4,15.3,31.4c18.4,4.7,26.9,15.7,29.4,33.8c3.1,22.6,15.4,39.4,34.6,51.5
		c11.3,7.2,17.6,18.8,25.3,29.2c16.8,23,36.7,42,66.2,47.3c25.8,4.6,49.8,13.8,73.2,25.2c20.6,10,42.7,14.6,64.9,18.8
		c-46.2,13.7-92.2,10.6-134.3-11.2C390.6,855,320,772.7,282.1,667.6c-29.6-82.1-30.3-168.2,9-250.2
		C294.1,411.1,296.3,403.8,304.2,401.4z"/>
	<path class="st4" d="M292.3,390.3c-13.6,13.3-29.8,22.8-46,32.4c-2.2-4.8,1-7.1,4.5-9.6c-10.8,5.9-13.9,15.1-14.9,26.7
		c-4.4,54.4-6,108.9-10.1,163.3c-4.2,35.2-3.5,70.7-7.1,105.9c-0.8,7.5,2.3,15.7-4.3,22c-8.5-7.2-11.1-16.2-11.3-27.3
		c-2-99.1-5.7-198.2-6.4-297.4c-0.4-47.8,32-106.3,84.6-113.5c7.8,22.8,13.7,45.9,9.5,70.4C289.3,372.2,291.5,381.2,292.3,390.3z"/>
	<path class="st5" d="M183.8,722.5c-15.2,3.4-15.1-6.3-15.3-17c-1.5-89.1-0.1-178.4-6.1-267.2c-3.2-47,15.4-81.1,41.5-114.9
		c1.9-2.4,4.5-4.3,9-5.2c-15.1,18.4-15.5,43.7-28.6,61.2c-8.3,11.1-0.1,15.9,0.5,22.5c3.3,34.4,1.6,68.9,2.8,103.3
		c2.3,66.2,4,132.5,6.7,198.7c0.4,9.7-5.7,13.5-10.8,18.8L183.8,722.5z"/>
	<path class="st6" d="M461,101.6c0.3,18.1-1.4,36.5,1.1,54.3c8.9,62,56.8,103.5,120.2,105.9c10.4,0.4,20.7,0.2,31.1,0.3
		c-48.6,17.4-100.4,6.5-131.7-29.3C447.7,193.7,439.2,149.9,461,101.6z"/>
	<path class="st7" d="M222.3,601.2c2.6-55.5,5.2-111,7.9-166.6c0.7-15.1,1.8-16,20.6-23.4c2.3,5.3-5.2,6.8-4.4,11.4
		c-8.4,59-10,118.6-15.9,177.8c-1,9.6-2.2,19.2-3.3,28.8C214.8,621.7,222,610.9,222.3,601.2z"/>
	<path class="st8" d="M675.4,203c0-20.7,5.8-40.8,1.2-62.3c-11.2-53.1-51.8-94.6-111.1-104.3c13.2-0.8,20.9-1.3,28.7-1.8
		C671.6,51.9,709.9,131.3,675.4,203z"/>
	<path class="st9" d="M292.3,390.3c-5.7-0.2-7.9-3.3-7.5-8.8c1.8-27.6,4.3-55.2-6.5-81.8c-0.7-1.7,1.9-4.6,2.9-7
		c4.5-2.6,8.5-5.9,13.4,0c14.6,17.5,17.3,73.8,4,93.4C297.4,388,294.5,388.9,292.3,390.3z"/>
	<path class="st10" d="M277.4,222.7c15.3-6.3,29.7-18.3,47.8-8.3c-6.4,6.5-14.1,6.7-22.4,5c14.8,10.1,32.3,15.8,46,27.8
		c-7.1,6-15.8,8.2-24.2,11.2c-10.7,8.9-21.5,13.2-33.4,1.5C280.7,249.5,268,240.3,277.4,222.7z"/>
	<path class="st11" d="M457.4,226.3c8.7,9.5,10.2,17.9-1.6,26.8c-9.5,7.1-14.2,19.6-26.1,24.4c-23.4-8-26.9-24.5-8.7-40.8
		c5.7-5.1,11.3-10.3,18.1-14.2C447,218.1,452.4,219.7,457.4,226.3z"/>
	<path class="st12" d="M277.4,222.7c-1.2,19.7,11.6,29.6,26.1,39.4c9.5,6.4,13.4-6.4,21-3.8c-17.1,24.3-45,11.1-66.7,19
		c-10.7-7.8-7.7-17.6-4-27.4C258.6,238.2,267,229.6,277.4,222.7z"/>
	<path class="st13" d="M348.8,247.2c-19.6-2.3-32.9-16.9-51-24.3c8.2-10.4,18.4-7.5,27.4-8.4c17.3,1.2,25.8,17.7,41.7,22.9
		C360.7,241.7,356.3,247.2,348.8,247.2z"/>
	<path class="st14" d="M183.6,722.7c19.8-0.9,20.7,18.4,30.3,28.5c0.6,0.6,0.2,3.4-0.1,3.5c-9.2,2.3-18.4,4.6-27.6,6.5
		c-8,1.6-9-4-10.9-10c-3.8-11.9-7.9-23.1,8.7-28.6C183.8,722.5,183.6,722.7,183.6,722.7z"/>
	<path class="st15" d="M457.4,226.3c-15.8-3.8-34.2,5.7-41.7,21.8c-7.2,15.4,5.1,21.6,14,29.4c-10.9,8.5-19.4,3.2-26.8-5.1
		c-7.4-8.4-4.5-17.4,1.4-24.9c11.1-13.9,26-23.7,40.9-32.6C455.3,208.8,455.1,220.4,457.4,226.3z"/>
	<path class="st16" d="M222.3,601.2c2.4,9.2-3.8,19.9,4.9,27.9c0.8,23.5-2.5,46.7-4.8,70c-3.5,7.3-0.9,15.1-1.8,22.6
		c-0.5,4,1.3,9.7-6.2,9c0,0,0,0,0,0c1.5-38.4,3-76.8,4.4-115.1C219.1,610.7,218.2,605.4,222.3,601.2z"/>
	<path class="st17" d="M335.7,367.1l-1.6,0.1c0,0-1.6-0.1-1.6-0.1c-4.7,1.5-9.3,3.1-15.4,5.1c1.8-10,2.3-19.7,7.2-28.5
		C329.5,350.8,335.8,357.4,335.7,367.1z"/>
	<path class="st17" d="M324.9,286.1c-9.9,17.8,1.1,36.1-1.1,54.1c-3.6-12.3-7.7-24.5-10.7-36.9C310.7,293.7,317,289.1,324.9,286.1z"
		/>
	<path class="st18" d="M253.8,249.9c-1,9.5,1.4,18.5,4,27.4c-3.4,4.8-8.9,4-15.1,5.6C245.3,271,244.5,259,253.8,249.9z"/>
	<path class="st19" d="M409.5,300.4c-19.9,2.7-20.6-10-19.3-24.3c5.8,8.9,14.1,14.5,24.2,17.7c-0.6,1.8-1.2,3.6-1.8,5.4
		C412.2,301.1,411.1,301.4,409.5,300.4z"/>
	<path class="st20" d="M490.7,264.6c-8.5-1.7-15.2,5.9-23.6,4.7C476.1,254,476.1,254,490.7,264.6z"/>
	<path class="st4" d="M214.4,730.9c8.9-9-0.8-22.6,7.9-31.7c-0.5,10.6-0.1,21.4-1.7,31.9C219.6,738.6,216.3,738.3,214.4,730.9z"/>
	<path class="st21" d="M523.6,298.3c30.3-5.3,56.3,4.4,82.8,10.1c15.8,3.4,22.9,18,35.7,25.6c22.3,13.3,47.1,21.9,68.6,35.8
		c28.7,18.5,47.7,47.2,65.5,75.9c4.2,6.8,8.6,12,14.7,17.1c17.7,14.6,29.7,34.6,31.5,56.6c2.1,26.4,12.1,50.3,17.2,75.7
		c6,29.8,8.9,58.5-11.1,85.4c-9.5,12.8-11.7,29.5-7.4,45c7.8,28.4-11.3,48-21.8,70c-4.4,9.1-13.5,8.4-22.6,0.3
		c-16.3-14.4-22.1-33.8-25.7-53.1c-2.2-11.7-4-22.2-11.1-32c-3.3-4.6-5.2-10.5-6.5-16.1c-7.7-34.8-28.9-59.4-58.3-77.9
		c-8.8-5.5-13.1-13.7-15.4-23.8c-3.4-15-6-30.5-12.2-44.4c-7.8-17.7-26-25.4-42.6-31.7c-18.9-7.2-35.2-15.6-46.3-33.2
		c-7.9-12.5-21.4-16.3-35.2-18.4c-32.7-4.9-42.8-14.9-47-48c-1-8.3-5.2-15.2-10.8-20.3c-22.4-20.2-28.9-48-33.6-75.2
		c-2.7-15.7,15.7-18.6,28-20C482,299.3,503.6,292.2,523.6,298.3z"/>
	<path class="st22" d="M593.7,552.7c0.5,5.2-0.9,8.9-6.8,9.6c-9.7,1.3-23.6-15.3-24.3-29c-0.3-4.9,0.2-9.1,6.4-9.9
		C577.5,522.3,592.9,540.5,593.7,552.7z"/>
	<path class="st23" d="M490.7,683.9c-15.7-14.4-30-27.4-45.7-41.8C480.1,642.4,485.2,647.1,490.7,683.9z"/>
	<path class="st24" d="M379,423.7c-0.4,7.9-1.8,14.8-7.8,16.3c-9.6,2.5-6.7-6.8-8.6-11.5c-1.2-3-2.9-5.9-3.8-8.9
		c-1.7-6.1-11.6-13.2-2-18.2c8.5-4.4,13,5.5,17.3,11.6C376.5,416.6,377.8,421.1,379,423.7z"/>
	<path class="st25" d="M723,695.3c7.7,11.4,14.2,22.1,16.5,34.5c0.6,3.4,0.8,9.8-4.7,11.3c-4.4,1.2-6.5-3-8.5-6.3
		C719.2,723,711,711.1,723,695.3z"/>
	<path class="st26" d="M626.7,826.9c-21.4-3.7-36.2-12.7-40.7-35.5C606.1,796,617.3,809,626.7,826.9z"/>
	<path class="st27" d="M707.2,890.4c-0.4,5-0.9,9-6.1,9.3c-4.1,0.3-22.2-19.9-21.3-23.7c1.1-5.2,5.6-5.4,9.1-4.5
		C699,874.2,706.1,880.1,707.2,890.4z"/>
	<path class="st28" d="M409.5,300.4c1.3,0.1,2.3-0.3,3.1-1.2c9.1-5.7,18.8-1.7,30.6-2.1c-9.4,4.4-16.6,8.2-24.1,11.2
		c-7.5,2.9-13.7,10.4-27.3,6.2C398.9,308.9,404.2,304.7,409.5,300.4z"/>
	<path class="st3" d="M320.8,694.5c0.3-2.7,0.6-6,3.8-5.4c6.7,1.2,10.5,6.6,13.5,12c1.2,2.2-0.3,5.5-3.6,4.4
		C328.5,703.8,322.3,701.8,320.8,694.5z"/>
	<path class="st29" d="M572.5,67.3c-44.6,0.5-82.5,38.2-82.3,82.1c0.2,43.3,36.9,79.5,80.1,79.2c42.7-0.4,81.6-39.3,81.4-81.3
		C651.4,103.5,615.1,66.8,572.5,67.3z M568,210.9c-35.2,0-62.8-26.5-64.1-61.6c-1.2-31.5,31.8-63.7,64.8-63.4
		c34.7,0.4,63.7,29.5,64,64.1C633.1,183,603.3,211,568,210.9z"/>
	<path class="st30" d="M551.1,49.4c-20.7,7.1-42.8,10.5-56.5,32C495.5,58.4,519.5,45,551.1,49.4z"/>
	<path class="st31" d="M275.4,353.8c-1.5,12.4-7.7,21.1-20.7,21.3c-12.2,0.2-21.9-6.5-22.4-19.3c-0.5-13.5,9.1-21.8,21.9-22.6
		C267.1,332.4,273.7,341.4,275.4,353.8z"/>
	<path class="st32" d="M204.6,429.3c0.3-17-6-34.6,5.4-53.4C212.5,395.9,210.5,412.8,204.6,429.3z"/>
	<path class="st33" d="M578.3,363.3c-1.3-12.8,0.8-21.3,16.9-16.5c4,1.2,9.3,0.6,13.3-0.9c16-5.9,29.3-1.1,41.3,9.3
		c5.4,4.8,10.7,9.8,17.8,11.5c44.1,10.5,68.8,39.5,82.1,81.6c5,15.6,14.8,29.7,27,41.7c15.7,15.5,21.2,33.9,11.2,55
		c-1.6,3.3-2.2,8-7,8.4c-4.4,0.3-8.1-3-8.9-6.4c-7.8-29.9-33-42.3-56.7-55.3c-16.8-9.2-31.3-20.4-44.4-33.9
		c-13.3-13.6-30.2-22.2-46.1-32.3C601.6,410.6,579.1,394.8,578.3,363.3z"/>
	<path class="st34" d="M534,370.8c-29.2,1.4-45.4-25.7-66-45.6c-5.3-5.2-1.3-9.3,4.3-11.7c29.7-12.8,72.4,2,88,30.4
		c3.7,6.7,1.1,12.3-1.5,18.5C554.8,371.6,547.1,371.3,534,370.8z"/>
	<path class="st35" d="M606.8,331.6c-2.1,8.5-8.2,9.9-14.8,7c-15.3-6.7-29.9-14.8-46-19.5c-5.7-1.7-6.5-6.1-0.6-9.4
		c9.6-5.4,55.3,8.4,60.6,18.3C606.6,329.1,606.6,330.4,606.8,331.6z"/>
	<path class="st35" d="M828,603.2c0.3,6.1-1.9,10.6-8.7,9.9c-13.2-1.4-12.1-15.6-19.4-22.5c-5.2-5-2.9-10.8,1.9-15.3
		c3.6-3.5,6.6-9.1,12.8-6.9c4.9,1.8,6,6.8,5.4,11.5C818.8,589.1,829.1,594.2,828,603.2z"/>
	<path class="st20" d="M632.8,150c0.3,32.9-29.4,60.9-64.8,60.9c-35.2,0-62.8-26.5-64.1-61.6c-1.2-31.5,31.8-63.7,64.8-63.4
		C603.4,86.4,632.4,115.4,632.8,150z"/>
	<path class="st36" d="M258,366.3c-8.7-1.7-12.2-6.7-12.2-14c0-5.4,2.2-12.5,7.9-10.8c6.4,1.8,10.5,9.2,11.8,16.1
		C266.5,362.9,261.4,364.9,258,366.3z"/>
</g>
</svg>
