<?xml version="1.0" encoding="utf-8"?>
<!-- Generator: Adobe Illustrator 23.0.1, SVG Export Plug-In . SVG Version: 6.00 Build 0)  -->
<svg version="1.1" id="Layer_4" xmlns="http://www.w3.org/2000/svg" xmlns:xlink="http://www.w3.org/1999/xlink" x="0px" y="0px"
	 viewBox="0 0 1000 1000" style="enable-background:new 0 0 1000 1000;" xml:space="preserve">
<style type="text/css">
	.st0{fill:#CBB89A;}
	.st1{fill:#7A9AAD;}
	.st2{fill:#DDD8CF;}
	.st3{fill:#5F6F4C;}
	.st4{fill:none;}
	.st5{fill:#B3F7F5;}
	.st6{fill:#B4F9F7;}
	.st7{fill:#B6FBF9;}
	.st8{fill:#2B5160;}
	.st9{fill:#2B5260;}
	.st10{fill:#F7F6F5;}
	.st11{fill:#2B525F;}
	.st12{fill:#7999AC;}
	.st13{fill:#7B9BAE;}
	.st14{fill:#2B515F;}
	.st15{fill:#B5F9F7;}
	.st16{fill:#7B9BAF;}
	.st17{fill:#7695A7;}
	.st18{fill:#2B4F5C;}
	.st19{fill:#7594A6;}
	.st20{fill:#586F7C;}
	.st21{fill:#FAF9F8;}
	.st22{fill:#E00000;}
	.st23{fill:#810200;}
	.st24{fill:#F9E007;}
	.st25{fill:#FCE307;}
	.st26{fill:#F7A200;}
	.st27{fill:#F69E00;}
	.st28{fill:#F9A200;}
	.st29{fill:#AC0900;}
	.st30{fill:#FEF306;}
	.st31{fill:#951F00;}
	.st32{fill:#902A00;}
	.st33{fill:#852A00;}
	.st34{fill:#702100;}
	.st35{fill:#A11100;}
	.st36{fill:#221600;}
	.st37{fill:#4C1900;}
	.st38{fill:#3B1300;}
	.st39{fill:#FEFEFB;}
	.st40{fill:#FEF201;}
	.st41{fill:#9C2B00;}
	.st42{fill:#F2AA00;}
	.st43{fill:#FEFEBF;}
	.st44{fill:#572100;}
</style>
<g>
	<path d="M560.9,642.2c9-0.8,18.1-1.9,27.1-3.1C579,640.1,570,641.2,560.9,642.2z M560.9,642.2c9-0.8,18.1-1.9,27.1-3.1
		C579,640.1,570,641.2,560.9,642.2z M560.9,642.2c9-0.8,18.1-1.9,27.1-3.1C579,640.1,570,641.2,560.9,642.2z M560.9,642.2
		c9-0.8,18.1-1.9,27.1-3.1C579,640.1,570,641.2,560.9,642.2z M560.9,642.2c9-0.8,18.1-1.9,27.1-3.1C579,640.1,570,641.2,560.9,642.2
		z M560.9,642.2c9-0.8,18.1-1.9,27.1-3.1C579,640.1,570,641.2,560.9,642.2z M560.9,642.2c9-0.8,18.1-1.9,27.1-3.1
		C579,640.1,570,641.2,560.9,642.2z M560.9,642.2c9-0.8,18.1-1.9,27.1-3.1C579,640.1,570,641.2,560.9,642.2z M560.9,642.2
		c9-0.8,18.1-1.9,27.1-3.1C579,640.1,570,641.2,560.9,642.2z M560.9,642.2c9-0.8,18.1-1.9,27.1-3.1C579,640.1,570,641.2,560.9,642.2
		z M560.9,642.2c9-0.8,18.1-1.9,27.1-3.1C579,640.1,570,641.2,560.9,642.2z M560.9,642.2c9-0.8,18.1-1.9,27.1-3.1
		C579,640.1,570,641.2,560.9,642.2z M909.5,336.1c-18.7-58.4-50.1-103.3-116.4-118.2c-80-18-160.8-25.9-242-29.7
		c-41.8-1.9-84,0.2-126,2c-69.2,2.9-137.5,8.6-204.7,24.9c-38.6,9.4-78,19.4-100.2,57.6c-10.4,17.9-19.6,36.6-28.1,55.4
		c-7.8,17.4-2,43.7,12.1,50.2c19.3,8.8,37.6,19.2,58.7,24.8c26.7,7.1,54.1,10.1,82.5,17.2c-24.3,4.2-45.4,10.7-64.3,24.6
		c-21.5,15.8-25.1,29.4-13.7,53c8.1,16.7,24,19.3,38,25.3c29.5,12.7,61.4,16.5,96.5,21.5c-40.7,8-78.8,9.4-112.7,29.1
		c-37,21.6-38.2,46.8-4,71.3c16,11.5,34.1,14.8,52.4,21c-10,3.4-19.7,5.8-28.8,9.8c-42.2,18.3-71.5,49.1-23.1,90
		c0.5,0.4,0.9,1,2.6,2.9c-5.2,4.6-11.1,8.7-15.7,14c-15.1,17.2-17.2,38.9-4,51.4c15.7,14.9,34.5,25.8,54.8,32.7
		c68.5,23.5,140.3,23.8,211.4,27.3c46.9,2.3,93.8-3.4,140.7-7c29.3-2.2,57.9-7.3,86.8-11.7c22.9-3.5,44.6-11.1,70.3-17.5
		c-7.7,8.3-11.7,14-9.7,21.8c4.6,18.5,27.4,27.7,65.8,26.4c23.6-0.8,41.4-11.9,43.1-29.5c2.7-27.3,14-55.5-6.4-81.1
		c-2-2.5-0.2-4.3,0.9-6.8c12.3-28.1-2.5-48.1-21-68.4c15.9-16.8,33.6-32.3,23.1-59.3c-8.7-22.5-21.9-41.1-44.1-53.1
		c50.8-32,72.6-72.5,5.3-129.8c0.4-0.5,0.8-1,1.3-1.4c2-1.5,4.3-2.6,6.2-4.3c18.8-16.7,41.3-31.5,31.2-62.7
		c-1.9-5.8,2.7-6.2,7.5-7.9c19.4-7,38.5-14,56.5-25.3C909.3,366.1,914.3,351.3,909.5,336.1z M575,861.1
		c-105.8,9.9-211.7,17.6-316.5-9.5c-17.5-4.5-34.9-9.9-50.8-19c-10.9-6.2-27.1-10.5-23.5-26.8c3.7-16.7,15.6-28.2,34.6-28.6
		c1.2,0,2.4,0.3,3.6,0.7c5.2,5.8,0.2,8.8-3,12.8c-12.6,15.6-11.7,19.9,5.8,29.2c19,10.1,39.8,15.6,60.6,20.2
		c72,16,144.9,15.7,217.9,11.4c12.2-0.7,24.7,2.4,36.5-3.1l1.3,0.3l1.3-0.2c6.5,3.9,12.7,0.9,19-0.6c2.8-0.7,5.5-1,8.3-0.5
		c16,2.4,33-8.5,50,4.7C605.2,859.3,589.8,859.7,575,861.1z M183.8,725.6c1.1-12.5,12-18,22.3-22.3c10.6-4.4,21.7-7.6,34.1-11.8
		c-3.1,10.5-10.7,13.2-16.8,17.5c-16.9,12.1-16.2,22.2,2.9,30.7c22.8,10.2,47.4,14.4,71.8,16.8c41.9,4.2,84.1,7.1,126.2,7.8
		c23.3,0.4,46.7-2,70-4c6.4-0.5,12.7-1.1,19.1-1.5c35,2.7,69.8-10.7,104.9,0.2c-110.2,20.8-221,26.5-332.7,14.2
		c-3.5-0.8-7-1.6-10.5-2.4c-24.3-5.3-49-9.3-71-22C194.6,743.5,182.6,739.1,183.8,725.6z M262.6,807c20.5-11.7,42.3-10.4,64.5-9
		c43.3,2.7,86.5,12.8,130.1,3c5.6-1.3,11.7-0.3,17.5-0.3c43,0.5,85.5-2.5,127.8-11.2c18.8-3.8,37.2,6.5,56,8.9
		c4.6,0.6,11.2,0.1,17.8,5.9C537.3,836.8,400.2,841.3,262.6,807z M441.4,717.9c-57.2-2.1-113.3,14.1-170.3,8.7
		c114.6-24.2,229.3-17.5,343.9-1.8C557.2,721,499.3,720,441.4,717.9z M741,669.6c0.3,8.8-3.8,13.8-15.1,11.6
		c-26.8-5.2-51.4-19.9-79.9-19.7c19.5-5.5,39-11.3,58.6-16.3C711.7,643.4,740.8,662.4,741,669.6z M736.8,545.5
		c-0.2,10.6-28.2,31.2-46.7,24c-41.9-16.2-86.1-18.4-129.4-24.4c17.1-12.1,37.9-4.8,57-9.2c25.1-5.7,50.5-10.7,75.3-17.5
		c5.7-1.5,10.7-3.9,16.5-2C723.9,521.4,737.2,528.5,736.8,545.5z M556.6,610.3c-93.8,9.6-187.5,17.3-285.3,0.6
		C369.1,592.4,462.9,597.6,556.6,610.3z M573.9,479.8c-50.8,1.9-100,8.1-149.5,8.7c-48.8,0.5-97.1-4-146.4-9
		C314.1,461.5,523.9,462.4,573.9,479.8z M659.6,424.9c26.1,4.3,49.3-3.6,74.8-2.8C704.9,447.7,694.1,448.1,659.6,424.9z
		 M200.2,501.9c-9.9-4.9-20.7-10.6-21.3-23.1c-0.7-13.4,9.3-20.4,20.2-25.7c13-3.4,26.1-6.8,41.3-10.7c-3.2,8.2-9,11.5-14.4,15.2
		c-6.3,4.3-15.2,7.9-14.3,16.9c1,10.5,10.7,13.9,19.2,17.2c21.9,8.5,45.1,12.8,68.2,15.1c41.9,4.1,84.1,8.7,126.1,7.4
		c49.7-1.6,99.7-2.6,149.3-9.4c14.3-2,29.4-4,45.7,2.6c-15,11.8-31.9,9.9-46.8,11.6C473.2,530.8,373,536.5,272.7,520
		c-5-0.8-10.3-0.1-15.4-0.1C237.2,517.2,218.2,510.9,200.2,501.9z M196,633.6c-23.4-14.2-23.5-27.5-1-44c15.2-0.9,28-12.8,44.8-10.8
		c-3.4,8.4-10.8,10.4-16.5,14.4c-5.9,4.2-13.1,7.6-11.7,16.2c1.3,8,8.7,10.8,15.2,13.7c18.7,8.3,38.8,10.8,58.7,13.1
		c95.8,11,191.6,8.3,287.3-2.9c13.2-1.5,21.7-0.8,35.9,4.9c-22.6,11.5-46.1,11.6-68.3,13.5c-66.6,5.8-133.3,11.4-200.3,7.3
		c-34.2-2.1-68.2-6.8-102.3-10.4C222.8,646.7,208.8,641.4,196,633.6z M560.9,642.2c9-0.8,18.1-1.9,27.1-3.1
		C579,640.1,570,641.2,560.9,642.2z M560.9,642.2c9-0.8,18.1-1.9,27.1-3.1C579,640.1,570,641.2,560.9,642.2z M560.9,642.2
		c9-0.8,18.1-1.9,27.1-3.1C579,640.1,570,641.2,560.9,642.2z M560.9,642.2c9-0.8,18.1-1.9,27.1-3.1C579,640.1,570,641.2,560.9,642.2
		z M560.9,642.2c9-0.8,18.1-1.9,27.1-3.1C579,640.1,570,641.2,560.9,642.2z M560.9,642.2c9-0.8,18.1-1.9,27.1-3.1
		C579,640.1,570,641.2,560.9,642.2z M560.9,642.2c9-0.8,18.1-1.9,27.1-3.1C579,640.1,570,641.2,560.9,642.2z M560.9,642.2
		c9-0.8,18.1-1.9,27.1-3.1C579,640.1,570,641.2,560.9,642.2z M560.9,642.2c9-0.8,18.1-1.9,27.1-3.1C579,640.1,570,641.2,560.9,642.2
		z M560.9,642.2c9-0.8,18.1-1.9,27.1-3.1C579,640.1,570,641.2,560.9,642.2z M560.9,642.2c9-0.8,18.1-1.9,27.1-3.1
		C579,640.1,570,641.2,560.9,642.2z"/>
	<path class="st0" d="M425.5,417.4c-91.1-1.5-181.4-9-269.4-34.2c-14.3-4.1-28.2-9.4-40.5-18.4c-12.2-8.9-16.4-19.6-8.9-33.6
		c6.1-11.3,12.5-22.5,18.7-33.8c7,10.3-1,18.5-4.2,27.2c-7.8,20.7-5.8,27.8,13.8,37.7c37.7,19.1,78.5,26.3,120,31.1
		c22.5,2.6,45.2,3,67.5,7c-40.4-7.4-81.7-10.1-121.5-21.5c-37.4-10.7-63.7-31.6-69.8-72.2c-0.6-4.1-1.7-7.6-5.6-9.5
		c0.3-6.3,3.4-11.3,7.5-15.9c55.1,56.6,129.8,57.5,200.1,67.1c63.5,8.7,128,10.2,192.3,9.3c29.9-0.4,59.5-4.5,89.3-5.8
		c7.1-0.3,14.2-2.2,20.8,1.8c5.4-1-5,9.3,4.4,6c8.1-2.9,16.7-1.8,25.1-1.2c6,0.4,12.3,2,14.1,8.4c2.1,7.3-4.7,9.7-9.4,12.7
		c-4.4,2.8-9.3,4.5-14.2,6.3c-46.1,16.9-93.7,25.1-142.6,28.4C483.6,416.4,454.5,413.9,425.5,417.4z"/>
	<path class="st1" d="M560.9,642.2c9-1,18.1-2.1,27.1-3.1C579,640.3,570,641.3,560.9,642.2z"/>
	<path class="st1" d="M793.1,541.8c-3.7,21.7-17.3,37.2-33.9,50.3c-25.3,20-54.7,31.6-85.1,41c-8.5,2.6-17.2,5.1-25.9,7.1
		c-47.5,14-96.3,20-145.6,22.9c-79.2,4.7-158.3,6.3-237-6.5c-9.5-1.5-19.3-2.4-27.7-7.9c34.1,3.5,68.1,8.3,102.3,10.4
		c66.9,4,133.7-1.6,200.3-7.3c22.2-1.9,45.7-2.1,68.3-13.5c-14.2-5.7-22.7-6.4-35.9-4.9c-95.7,11.1-191.5,13.9-287.3,2.9
		c-19.8-2.3-40-4.8-58.7-13.1c-6.5-2.9-13.9-5.6-15.2-13.7c-1.4-8.6,5.8-12,11.7-16.2c5.6-4,13.1-6,16.5-14.4
		c-16.8-2-29.6,9.9-44.8,10.8c16.9-14.8,38.6-18.2,59.2-22c139.3-25.7,277.7-17.8,415.4,12.8c2.5,0.6,4.9,1.6,8.2,2.7
		c-7.9,6.3-16.6,8.6-25.2,11c-28.5,7.9-55-5.4-82.6-7.6c-31.1-2.5-62.2-4.6-93.3-7.1c-58-4.6-115.3-1.2-172.6,6.5
		c-19.8,2.6-39.6,6.5-57.6,16.1c-3.9,3-11.9,3.6-10.6,9.6c1.2,5.9,8.8,6.9,14.3,8.6c46.6,13.9,94.9,15.2,142.7,16.1
		c90.5,1.7,180.3-6.6,267.9-30.9c29.3-8.1,58.7-17.6,82.5-37.9c19.9-17,18.4-39.6-3.6-54.3c-9.8-6.6-7.3-10.5,1.7-14.1
		c6.6-2.6,13.3-5.1,20-7.7C783,494.4,797.3,516.7,793.1,541.8z"/>
	<path class="st2" d="M637.4,356.4c-42,1.4-83.7,7.6-125.9,7.1c-90.8-1.1-181.3-4.4-270.4-23.6c-24.7-5.3-48.8-12.4-72.2-22.6
		c-17.2-7.5-29.1-18.9-36-35.9c-1.7-6.8,3.3-8.9,7.9-11.3c3.4,4.7,6.2,3.9,10.8,0.5c17.8-13.1,38.1-21.6,58.7-29.2
		c7.1-2.6,14.8-6.1,21.1,2.1c-4.2,12.1-16.9,13.3-25.6,19.5c-18,12.7-18.4,24.3,0.5,35.6c20.9,12.5,44.1,19.1,67.8,24
		c49.1,10.2,98.8,15.6,149,17.9c42.8,4.7,85.8,3,128.5,1.3c67.5-2.6,135-7.8,200.5-26.6c15.1-4.3,30-9,43.1-17.8
		c15.3-10.3,15.5-21.4,0.6-32.4c-13.8-10.2-30.1-15.3-46.4-19.8c-44-12.1-88.9-18.7-134.3-22.3c-52.2,0.4-104-10-156.4-3.1
		c-15.6,2.1-32.2,4.8-47.5-3.4c-3.8-8.1,2.9-6.8,6.8-7c9.5-0.5,19-0.1,28.4-0.7c2.5-1.1-0.3-4.9,0.6-2.4c0.2,0.7,0,1.2-0.8,1.3
		c-15,1.6-30,4-44.8-1c10.3-5.7,21.6-2.8,32.3-3c116.3-2.5,232.3-1.3,346.2,27c18.9,4.7,37.3,10.9,54.8,19.5
		c12.5,6.1,23.1,14.3,29.5,27.1c4.6,12.1,0.1,21.2-8.7,29.6c-9.7,9.2-21.1,15.1-33.4,19.7c-52.8,19.7-107.5,30.5-163.8,33
		C651.3,359.5,643.8,360.9,637.4,356.4z"/>
	<path class="st3" d="M637.4,356.4c63.5-4,126.1-12.9,185.6-36.4c19.6-7.7,40.7-16,41.1-43c9.9,18.9,19.7,37.8,29.6,56.7
		c6.9,13.1,0.7,22.4-9.2,30.2c-18.9,15-42,20.3-64.4,25.9c-56.1,13.9-113.3,20.6-170.9,24.6c-74.5,5.2-149.1,5.4-223.6,3
		c30.1-2.4,60.3-4.5,90.3-7.4c51-5,101.1-14,148.9-33.4c4.7-1.9,9.9-3.2,14.3-10.2c-18.2-5.3-36.1-2.2-53.9-3.7
		C627.2,356.5,635,361.5,637.4,356.4z"/>
	<path class="st1" d="M738.8,454.5c-2.7,14.3-11.9,24-23.8,31.6c-15.8,10.2-33.1,17-51.3,21.3c-93.7,25.3-189.6,28.1-285.7,27
		c-40.6-0.4-81.5-1.9-120.8-14.5c5.1,0,10.4-0.7,15.4,0.1c100.3,16.5,200.5,10.7,300.6-1.1c14.8-1.8,31.7,0.2,46.8-11.6
		c-16.4-6.6-31.4-4.6-45.7-2.6c-49.6,6.8-99.6,7.8-149.3,9.4c-41.9,1.3-84.2-3.3-126.1-7.4c-23.1-2.3-46.3-6.6-68.2-15.1
		c-8.5-3.3-18.2-6.8-19.2-17.2c-0.8-9,8-12.6,14.3-16.9c5.5-3.7,11.3-7,14.4-15.2c-15.2,4-28.3,7.3-41.3,10.7
		c35.8-20.4,75.2-28.8,115.3-27.2c70.1,2.9,140.3,9.8,210.2,5.9c50.4-2.8,98.1,5.8,146.1,17.4c3.7,0.9,7.2,2.5,11,5.5
		c-12.3,4.2-23.6,10.7-37.1,10c-36.6-0.2-71.1-13.7-107.4-16c-95.2-6-190.3-13.5-283.5,15.8c-3,1.2-6.2,2.1-9,3.7
		c-3.8,2.1-9.7,3.1-9.1,8.7c0.6,5.3,6.5,5.6,10.5,7.2c36.8,14.7,75.9,16.9,114.5,18.3c99.9,3.6,199.5-0.4,297.1-25.5
		c27.1-7,53.6-15.2,76.6-31.7C742.6,445,739.5,451,738.8,454.5z"/>
	<path class="st1" d="M787.2,795.4c-18,21.7-43.4,32.2-68.1,43.4c-16.4,7.5-33.8,12.3-51.3,16.5c-44.3,13.1-89.8,17.5-135.6,20.5
		c-78.5,5-156.7,3.4-234.5-8.5c-33.9-5.2-67.5-12.9-97.8-30.7c-29.9-17.6-30-41.5-0.5-59.8c7-4.4,13-5.1,19.5,0.3
		c-19,0.5-30.9,12-34.6,28.6c-3.6,16.3,12.6,20.6,23.5,26.8c15.9,9,33.3,14.4,50.8,19c104.7,27.1,210.6,19.4,316.5,9.5
		c14.8-1.4,30.2-1.8,45.1-9.1c-16.9-13.2-33.9-2.3-50-4.7c-2.8-0.6-5.6-0.2-8.3,0.5c-0.9-0.5-1.7-1.1-2.5-1.9
		c-0.9-0.8-1.6-1.8-2.3-2.9h0c36.9-6.7,74.4-9.3,110.8-19.1c25.8-7,50.5-16.5,73.6-29.8c13.5-7.8,22.9-18.1,11.6-34.3
		c-5.3-7.6-0.9-10.2,4.8-13c6.4-3.1,12.9-6,19.3-9.1C799.8,749,804.5,774.6,787.2,795.4z"/>
	<path class="st1" d="M783.8,691.8c-20.4,33.9-52.7,50.2-89.2,60.3c-0.4,0.1-0.7,0.2-1.1,0.4c-0.8,0.3-1.6,0.7-2.3,1.3
		c-37.4,13.1-76.2,21-115.4,25.5c-97.6,11.2-195.3,14.4-292.7-2.1c-3.8-0.7-7.5-2-11.2-3h0c0.9-1.4,2-2.5,3.3-3.3
		c3.5,0.8,7,1.5,10.5,2.4c111.6,12.3,222.5,6.5,332.7-14.2c-35-10.9-69.9,2.5-104.9-0.2c-6.4,0.4-12.7,1-19.1,1.5
		c-1.2-0.8-2.3-1.8-3.3-3.1c33.4-3.6,67-5.5,100.1-11.2c49.8-8.5,99.5-19.3,143.8-45.5c29.8-17.6,31.1-31.9,5.9-55.4
		c-9.2-8.5-8.2-13.6,2.8-18.1c4.8-2,9.5-4.2,14.2-6.3C789.9,631,801.5,662.5,783.8,691.8z"/>
	<path class="st4" d="M676.3,804.4c-139.1,32.4-276.2,36.9-413.7,2.6c20.5-11.7,42.3-10.4,64.5-9c43.3,2.7,86.5,12.8,130.1,3
		c5.6-1.3,11.7-0.3,17.5-0.3c43,0.5,85.5-2.5,127.8-11.2c18.8-3.8,37.2,6.5,56,8.9C663.2,799.1,669.7,798.6,676.3,804.4z"/>
	<path class="st5" d="M620.1,507.3c-15,11.8-31.9,9.9-46.8,11.6C473.2,530.8,373,536.5,272.7,520c-5-0.8-10.3-0.1-15.4-0.1
		c-20.1-2.7-39.1-9-57.1-18c-9.9-4.9-20.7-10.6-21.3-23.1c-0.7-13.4,9.3-20.4,20.2-25.7c13-3.4,26.1-6.8,41.3-10.7
		c-3.2,8.2-9,11.5-14.4,15.2c-6.3,4.3-15.2,7.9-14.3,16.9c1,10.5,10.7,13.9,19.2,17.2c21.9,8.5,45.1,12.8,68.2,15.1
		c41.9,4.1,84.1,8.7,126.1,7.4c49.7-1.6,99.7-2.6,149.3-9.4C588.7,502.8,603.7,500.8,620.1,507.3z"/>
	<path class="st5" d="M572.8,633.4c-95.7,11.1-191.5,13.9-287.3,2.9c-19.8-2.3-40-4.8-58.7-13.1c-6.5-2.9-13.9-5.6-15.2-13.7
		c-1.4-8.6,5.8-12,11.7-16.2c5.6-4,13.1-6,16.5-14.4c-16.8-2-29.6,9.9-44.8,10.8c-22.5,16.5-22.3,29.8,1,44
		c12.9,7.8,26.8,13.1,41.9,15.2c34.1,3.5,68.1,8.3,102.3,10.4c66.9,4,133.7-1.6,200.3-7.3c22.2-1.9,45.7-2.1,68.3-13.5
		C594.5,632.6,586,631.8,572.8,633.4z M588,639.1c-9,1.3-18.1,2.3-27.1,3.1C570,641.2,579,640.1,588,639.1z"/>
	<path class="st6" d="M588,639.1c-9,1.3-18.1,2.3-27.1,3.1C570,641.2,579,640.1,588,639.1z"/>
	<path class="st5" d="M620.1,852c-14.9,7.3-30.4,7.7-45.1,9.1c-105.8,9.9-211.7,17.6-316.5-9.5c-17.5-4.5-34.9-9.9-50.8-19
		c-10.9-6.2-27.1-10.5-23.5-26.8c3.7-16.7,15.6-28.2,34.6-28.6c1.2,0,2.4,0.3,3.6,0.7c5.2,5.8,0.2,8.8-3,12.8
		c-12.6,15.6-11.7,19.9,5.8,29.2c19,10.1,39.8,15.6,60.6,20.2c72,16,144.9,15.7,217.9,11.4c12.2-0.7,24.7,2.4,36.5-3.1l1.3,0.3
		l1.3-0.2c6.5,3.9,12.7,0.9,19-0.6c2.8-0.7,5.5-1,8.3-0.5C586.2,849.7,603.2,838.8,620.1,852z"/>
	<path class="st7" d="M570.2,847.3c-2.8-0.6-5.6-0.2-8.3,0.5c-6.3,1.5-12.5,4.4-19,0.6l-1.3,0.2l-1.3-0.3
		c-11.8,5.5-24.3,2.4-36.5,3.1c-73,4.3-146,4.6-217.9-11.4c-20.8-4.6-41.5-10.1-60.6-20.2c-17.5-9.3-18.3-13.6-5.8-29.2
		c3.2-4,8.2-7.1,3-12.8c8,4.1,4.7,9.9,1.5,14.6c-8.2,12.1-2.7,18.6,8,24.5c29.5,16.3,62.1,21.9,94.7,26.5
		c65.3,9.1,130.9,8.3,196.4,4.5c4.1-0.2,8.3-0.5,12.4-0.8c0.1,0,0.2-0.1,0.3-0.1c1.9-0.5,3.8-0.8,5.7-1c0.5,0.2,0.9,0.4,1.4,0.5
		c0.3,0.1,0.6,0.2,0.9,0.3c5.1,1.2,10.3-0.4,15.5-1C563,845.4,566.6,845.5,570.2,847.3z"/>
	<path class="st1" d="M513.4,758.8c-6.4,0.4-12.7,1-19.1,1.5c-23.4,2-46.7,4.4-70,4c-42.1-0.7-84.3-3.6-126.2-7.8
		c-24.4-2.4-49-6.6-71.8-16.8c-19.1-8.5-19.8-18.6-2.9-30.7c6-4.3,13.7-7,16.8-17.5c-12.4,4.2-23.5,7.4-34.1,11.8
		c-10.3,4.3-21.2,9.8-22.3,22.3c-1.2,13.5,10.8,17.8,20.4,23.3c22.1,12.7,46.7,16.7,71,22c3.5,0.8,7,1.5,10.5,2.4
		c-4.6,0.3-9.2,0.6-13.7,0.9h0c-27-4-54-8.1-77.4-23.8c-21-14.1-22-31.8-1.8-47.1c28-21.2,61.9-27.7,95.2-29.6
		c31.4-1.8,63.2,3.8,94.8,6.1c-3.3,13-14.3,8.3-22.2,9c-39.4,3.5-78,10.5-114.8,25.6c-16.2,13.7-16.1,14.5,4.1,22.1
		c51.4,19.4,105.6,19.5,159.3,21.4c27.2,1,54.6-0.4,81.8-0.7C498.4,757.8,505.9,758.3,513.4,758.8z"/>
	<path class="st8" d="M245.7,714.4c22.6-19.6,52-19.1,78.7-27c19.2-5.7,39.6,0.2,58.4-7.6c31.5,2.4,62.7-6.2,94.2-3
		c11.7,5.9,24.3,2.6,36.4,2.8c48.3,0.9,95.9,6.6,142.6,18.8c7.6,2,17.4,1.6,20.1,12.1c-8.8,5.8-18.6,6-28.2,4
		c-89.9-18.7-180.9-21.8-272.3-19.1c-38.9,1.2-77.2,7-114.8,16.7C255.7,713.4,251,715.7,245.7,714.4z"/>
	<path class="st9" d="M253.7,464.6c23.6-15,50.7-19.8,77.4-22.3c104.5-9.8,208.3-5.9,310.5,20.2c1.1,0.3,2,1.5,3,2.3
		c-20.9,14.8-41.9,1.4-62-1.3c-61.2-8.2-122.6-13.6-184.1-12.9C350.1,451.1,301.6,455.9,253.7,464.6z"/>
	<path class="st4" d="M736.8,545.5c-0.2,10.6-28.2,31.2-46.7,24c-41.9-16.2-86.1-18.4-129.4-24.4c17.1-12.1,37.9-4.8,57-9.2
		c25.1-5.7,50.5-10.7,75.3-17.5c5.7-1.5,10.7-3.9,16.5-2C723.9,521.4,737.2,528.5,736.8,545.5z"/>
	<path class="st9" d="M663.8,507.4c18-9.7,37.8-15.9,54.1-28.7c10.8-8.5,19.4-18.3,16.5-33.6c8.2-7.2,17.2-13.3,22.2-23.9
		c3.4-7.2,47.7-18.3,53.3-13.6c6.7,5.6,6.9,13,3.4,21.1c-6.7,15.6-18.2,27.4-32.1,35.6C744.8,485.8,706.3,502.3,663.8,507.4z"/>
	<path class="st4" d="M573.9,479.8c-50.8,1.9-100,8.1-149.5,8.7c-48.8,0.5-97.1-4-146.4-9C314.1,461.5,523.9,462.4,573.9,479.8z"/>
	<path class="st9" d="M246.4,602c19.9-16.7,44.9-19.5,68.8-23c69.4-10,139-6.6,208.9-2.7c43.6,2.4,85.1,15.8,128.4,17.9
		c-18.4,7.2-37,9.9-56.7,4.7c-33.4-8.9-68.1-9.2-102.2-12c-69.9-5.6-139.9-4.7-209.3,6.8C271.6,595.8,259,599.2,246.4,602z"/>
	<path class="st4" d="M556.6,610.3c-93.8,9.6-187.5,17.3-285.3,0.6C369.1,592.4,462.9,597.6,556.6,610.3z"/>
	<path class="st10" d="M231.8,243c-34.3,2.3-61.5,20.9-88.8,39.3c-4.7-3.3-1.2-8.3-2.2-12.3c8.1-13.8,22-19.6,35.9-24.8
		c72.3-27.3,147.9-36,224.6-38.8c16,0,32.1,0,48.1,0c-12.6,7.8-27.1,0.1-39.3,8.1c-8.1,8.4-19.4,7.1-29.3,8.2
		c-44.5,4.9-89,9.8-132.3,22.3C242.8,246.6,237,247,231.8,243z"/>
	<path class="st11" d="M648.1,640.3c35.3-15.6,73.1-25.5,104.5-49.5c12.1-9.2,22.6-19.5,29.9-32.6c14.2-25.6,5.5-52.5-21.2-66.9
		c13.4-9.4,20.9,2.9,27.9,9.5c34.4,32.2,35.7,60-1.8,85.6C745.6,615,699.4,634.9,648.1,640.3z"/>
	<path class="st12" d="M676,710.5c-37.8-14.5-77.7-18-117.3-23.3c-25.1-3.3-50.3-3.8-75.6-4c-4.2,0-10.4,1.5-6.2-6.6
		c62.3-2.3,124.8-11.7,186.3,7.1c14.8,4.5,29.9,7.8,47,12.2C698.8,704.9,687.6,708,676,710.5z"/>
	<path class="st13" d="M540.3,848.3c-11.8,5.5-24.3,2.4-36.5,3.1c-73,4.3-146,4.6-217.9-11.4c-20.8-4.6-41.5-10.1-60.6-20.2
		c-17.5-9.3-18.3-13.6-5.8-29.2c3.2-4,8.2-7.1,3-12.8c9.6,1.5,18.9,3.8,27.4,8.8c1.2,5.7-4.6,5-6.9,7.3
		c-12.4,12.2-11.6,18.5,4.8,25.3c38.8,16,79.9,21.3,121.2,24.7c40.7,3.4,81.5,3.4,122.3,3.5c14.9-1.8,29.7-3.5,44.5-0.2
		C537.3,847.5,538.8,847.9,540.3,848.3z"/>
	<path class="st9" d="M691.2,753.7c20.5-11.9,43.5-18.9,62.2-34.5c10.7-8.9,19.5-18.9,26.5-30.4c15.7-25.6,9.9-42.3-22.2-68
		c16.1-9.1,23.8,6,32.7,13c31.2,24.6,30.5,56.6-2.1,78.6C758.9,732.3,727.6,749.5,691.2,753.7z"/>
	<path class="st14" d="M667.8,855.3c32.8-14.7,67.2-25.8,97.2-46.4c26.4-18.1,41.7-40.5,12-71.2c6.7-6.8,12.7-6.9,19.7,0.4
		c18.5,19.4,25.4,44-0.1,65.2C759.2,834.6,715.3,849.3,667.8,855.3z"/>
	<path class="st4" d="M615,724.8c-57.8-3.8-115.7-4.8-173.6-6.8c-57.2-2.1-113.3,14.1-170.3,8.7C385.7,702.4,500.4,709.1,615,724.8z
		"/>
	<path class="st4" d="M725.9,681.2c-26.8-5.2-51.4-19.9-79.9-19.7c19.5-5.5,39-11.3,58.6-16.3c7-1.8,36.1,17.2,36.3,24.4
		C741.3,678.4,737.2,683.4,725.9,681.2z"/>
	<path class="st15" d="M784.9,890.2c-11.8,3-23.3,1.4-33.8-4.3c-12.8-7-13.3-18.5-0.4-25.1c14.8-7.6,30.6-10,46.5-1.9
		C805.1,874,798.2,883.4,784.9,890.2z"/>
	<path class="st16" d="M511.6,741.8c-53.7,3.8-107.3,5.1-161-1.8c54.7-8.1,109.7-8.6,164.8-5.4C517.8,739,513.9,740,511.6,741.8z"/>
	<path class="st14" d="M820.1,854.6c-17-8-32-9.7-49.1-11.7c13.4-10.4,25.4-18.9,36.5-28.5c8.5-7.3,11.7-2.6,12.3,5
		C820.8,830.2,820.1,841.2,820.1,854.6z"/>
	<path class="st4" d="M734.4,422.1c-29.5,25.6-40.4,26-74.8,2.8C685.7,429.2,709,421.3,734.4,422.1z"/>
	<path class="st17" d="M684,773.7c10.2-3.5,20.1-7.9,30.6-10.2c8.9-1.9,20.3-0.3,23.3,8.2c3.1,8.7-8.1,11-14.7,14.4
		C708.4,787.4,693.3,789.5,684,773.7z"/>
	<path class="st18" d="M684,773.7c13.1,4.2,26.1,8.3,39.2,12.5c-24,17.3-44.5-5-67.2-5.4C665.3,777.2,673.8,772,684,773.7z"/>
	<path class="st19" d="M784.9,890.2c6.7-9.4,14.7-18.3,12.3-31.3c10.5,0.1,19.8,5.8,17.3,15.6C811.2,888,798.3,891.5,784.9,890.2z"
		/>
	<path class="st20" d="M511.6,741.8c1.3-2.4,2.5-4.8,3.8-7.1c9.3-0.1,18.8-1.9,30.3,1.8C533.9,744.2,522.6,742,511.6,741.8z"/>
	<path class="st1" d="M543.8,846.9c0,0,0,0.1,0,0.1c-0.3,0.9-0.7,1.3-1,1.3l-1.3,0.2l-1.3-0.3c-5.7-0.1-11.4-0.2-17.1-0.3
		c-10.6-0.2-21.2-0.4-31.8-0.6c17-4.4,34.4-2.6,51.6-3.1C543.8,845.2,544.1,846,543.8,846.9z"/>
	<path class="st13" d="M570.2,847.3c-2.8-0.6-5.6-0.2-8.3,0.5c-6.3,1.5-12.5,4.4-19,0.6c0-0.6,0-1.1,0.1-1.7c0-0.8,0.1-1.6,0.1-2.4
		c4.7-0.4,9.4-0.8,14.1-1.3h0C561.5,844,566.8,842.8,570.2,847.3z"/>
	<path class="st21" d="M125.4,297.2c9.9-4.5,10.9,2.2,11.6,9.2c2.8,31.4,20.7,50.5,49.1,61.7c34.8,13.6,71.8,16.5,108.1,22.7
		c14.8,2.5,30.9,1.2,42.6,15.7c-27.2-2.6-54.4-4.7-81.5-7.8c-42.7-4.8-84.9-12.1-123.8-31.7c-25.1-12.6-26.8-18.3-15.5-44.4
		c3.6-8.2,9.8-15.5,9.2-25.2C125.3,297.3,125.4,297.2,125.4,297.2z"/>
	<path class="st22" d="M231.8,243c58.3-16.6,118.1-23.6,178.2-28.6c65.9-2,131.8-3.1,197.7,2.3c3.1,0.3,6.2,1.2,9.3,1.8
		c12.8,4.6,27.5,0,39.7,7.7c-0.6,10.5-9.8,8-15.7,10.4c-10.3,4.2-21.8,1.3-32.2,5.3c-2.8,1.5-5.7,2.8-8.8,3.7
		c-7.3,2.1-14.9,1.7-22.4,1.9c-25.9,1.9-50.7-2.3-74.6-12.4c-7.2-2.8-13.9-6.7-21.3-8.9c-18.4-5.4-26.1-2.4-36.6,14.5
		c-11.4,12.5-25.2,16.3-41.7,12.1c-11.2-2.8-23-0.6-34.3-2.6c-7.7-1.3-8.2,3.5-9.3,8.5c-4.3,7-11.3,8.5-18.5,8.1
		c-26.5-1.5-52.5,5.7-78.6,4.5c23.2,3.7,46.3,5,69.5,5.7c8.8,3.6,19.4,0.9,27.2,8c2.3,8.3-6.1,9.2-9.6,13.5c-1.6,2-2.1,3.8-0.5,1.8
		c0.1-0.1,1,0.4,1.7,0.5c13.2-2.5,26.8,0.5,39.7-3.6c4.8-1.1,9.7-1.5,14.7-1.4c3.9,0.1,7.7,0.6,11.3,2.2c12.2,6.9,2.8,19.8,8.2,28.6
		c4.8,3.8,10,1,15,0.8c25.1-4.6,47.3-18.4,72.7-21.9c1.9,0,3.9,0.3,5.8,0.7c18.7,4.2,37.2,9,56.6,8.4c8.5-2.4,5.6-14,13.5-16.9
		c15.3-3.7,30.7-2.8,46.1-0.7c3.3,0.9,6.4,2.3,9.5,3.9c7.6,4.2,18.5,0.3,24.3,9.5c-4.5,8.3-12.7,9.1-19.9,10.9
		c-54.2,13.5-109.3,20.7-165.1,22.3c-20.6,0.6-41.1,5.1-61.8,0.7c-65.8-0.5-130.3-9.5-193.2-29.2c-6.8-2.1-13.4-4.9-19.6-8.4
		c-10.7-6-23.8-11.7-24.2-25.6c-0.5-15.2,13.6-20.8,24.6-27.3C216.4,249.6,224.2,246.5,231.8,243z"/>
	<path class="st23" d="M656,226.7c-12.7-4.3-26.8-1.7-39-8.2c56.5,3.2,112.2,11.1,165.3,32c14.4,5.7,32.2,12.2,32.2,29.9
		c0,17.6-17.8,24.1-32.2,29.9c-55.4,22.4-114.1,28.6-172.9,33.6c-55.6,4.7-111.3,5.4-167.1,3.2c-7-0.3-14.4,1.9-20.8-2.8
		c38.7-3.2,77.5-5.2,116-9.9c42.6-5.2,85.7-9.4,127.3-24c-8.1-4.9-18,1.6-24.5-6c18.1-7.9,36.2-6.6,54.4-0.5
		c0.4,0.1,1.4,0.8,1.8,0.5c1.9-1.7-1.1-1.4-1.2-2.5c-1.5-10.4,8.4-9.8,13.4-13.6c14.3-10.8,15.2-21.1,2.1-33.3
		c-12.2-11.4-28.6-14.3-43.1-21C663.4,232.2,659.2,230.2,656,226.7z"/>
	<path class="st5" d="M618.3,759c-110.2,20.8-221,26.5-332.7,14.2c-3.5-0.8-7-1.6-10.5-2.4c-24.3-5.3-49-9.3-71-22
		c-9.5-5.5-21.5-9.8-20.4-23.3c1.1-12.5,12-18,22.3-22.3c10.6-4.4,21.7-7.6,34.1-11.8c-3.1,10.5-10.7,13.2-16.8,17.5
		c-16.9,12.1-16.2,22.2,2.9,30.7c22.8,10.2,47.4,14.4,71.8,16.8c41.9,4.2,84.1,7.1,126.2,7.8c23.3,0.4,46.7-2,70-4
		c6.4-0.5,12.7-1.1,19.1-1.5C548.3,761.6,583.2,748.2,618.3,759z"/>
	<path class="st24" d="M695.3,300.5c4.3,1.5,8.6,2.9,12.8,4.6c0.9,0.3,1.3,1.7-0.4-0.7c-20.8,0-44,0-67.3,0c-1.5-1-3-2-4.5-3
		c1.1-1.7,2.6-2.8,4.4-3.5c5.3-0.8,10.4,0.6,15.5,1.8c-11.4-3.6-24-2.2-35.1-7.5c-6.1-2.9-14.2-4.1-12.9-13.8
		c-5.9-8.7-15-1.8-22.3-4.4c-6.1-2.1-14.3-2.8-14.9-10.2c-0.6-6.6,6.9-8.3,10.3-9.6c-27.1,5.9-56.4,15.5-85.2-2.7
		c-6.6-4.2-13.5-4.1-19.4,2.1c-3.2,3.3-7,7.8-11.2,7.2c-27.6-3.9-51.6,12.1-78.1,13.8c-5.6,0-12.1,1.7-16.5-1
		c-9.3-5.6-5.8,5.7-9.9,6.4c-9.8,2.2-19.5,0.9-29.2-0.9c-23.6,0.2-47.2,0.1-70.1-7.2c1.5-6.9,7.2-4.4,11-4.2
		c25.4,1.4,50.2-6.3,75.6-4.3c5.7,0.4,14.4,1.4,11.7-9.7c-2-2.4-5.7-5-5.7-7.3c0.2-4.5,4.6-2.8,7.5-2.5c13.5,1.1,27.2,0.9,40.4,3.6
		c16.4,3.5,30.4,1,43.1-9.7c15.6-21,20.6-21.7,52.3-7.9c26.1,10.6,52.6,18.6,81.3,12.8c7.7-0.3,15.4-0.5,23.1-0.8
		c1.7-1,3.4-1.9,5.3-2.3c6.3-1.4,14.6-3.8,17.2,3c2.9,7.6-6.4,9.4-11.2,13.1c-5,3.8-12.3,3.8-16.3,9.6c6.3-7.1,14.7-4.5,22.4-5.2
		c16.1,0.1,32.3-1,47.3,6.7c5.8,11.1-5.4,9.5-9.7,13.1c-0.2,2.1-9,1.3-2.8,4.7c8.4,4.6,18.4,5.6,28,7.3
		C687.3,293.1,692.8,294.4,695.3,300.5z"/>
	<path class="st25" d="M640.6,300.2c-1.6,0.4-3.2,0.8-4.8,1.1c-16.6-0.2-33.1-0.4-49.7-0.6c-6.3,4.1-1.5,14.8-10.3,17.5
		c-20.6-0.3-40.3-5.9-60.2-10l0.3,0.1c-20.8-0.6-38,12.2-57.8,15.4c-14.5,4.4-26.6,5.8-21.8-16.1c1.3-5.9-6.8-7.4-7.4-12.8
		c9.8-10.5,22.3-9.7,31.2-1.8c7.8,6.9,13.1,5.7,20.5,2.4c6-2.6,12.5-3.8,19-3.6c18.5,0.5,36.1,0.5,54.8-5.6
		c17.7-5.7,38.3,2.9,57.7,2.1C621.6,292.1,633.3,290.9,640.6,300.2z"/>
	<path class="st26" d="M331.3,278.1c11-0.3,22-0.7,33-1c3-3.1,6.7-3.2,10.6-2.6c9.4,3.2,17.9,6.6,7.6,18.2c-2,2.2-1.2,2.9,8.4,8.7
		c-14.1,7.4-30.5-1-44.6,6.6c-5.6-1.8-5.2-5.3-1.4-8.2c5.1-4,10.5-7.4,14.8-12.2c-7.9-5.6-18.7,0.5-26.2-6.5
		C332,280.7,331.2,279.7,331.3,278.1z"/>
	<path class="st27" d="M618.3,264.8c-8.3,0-16.5,0-27,0c8.6-11.2,21.9-12.5,34.1-22.8c-10.6,0-17.3,0-23.9,0c1-1.2,2-2.4,3-3.6
		c17-2.4,34.1-3.3,51-6.2c7.6,1.1,6.2,5,2.3,8.9c-6,5.9-14.4,8.3-20.8,13.7c-2.9,2.2-5.9,4.3-9.2,5.9
		C624.6,261.9,621.2,262.8,618.3,264.8z"/>
	<path class="st28" d="M429.3,296.5c26.9-1.5,6.7,16.7,10.7,25.7c5.8-0.4,11.8-0.8,17.9-1.2c-3.8,11-14.9,7.1-22.2,10.9
		c-4.7-1.2-9.1,7.9-13.9,0.4c-5.9-9.7,9-21.9-3.9-30.7c-3.8-0.5-7.7-0.9-11.5-1.4c-1.1-2.3-0.6-4.1,1.5-5.5
		C415.2,291.5,422.5,290.7,429.3,296.5z"/>
	<path class="st29" d="M359.4,253.8c5.5-1.1,9.5,1.3,9.7,6.6c0.1,5.8-5.5,4.2-8.8,4.4c-32.4,1.8-64.8,3.4-97.2,5.1
		c-3.5,2.1-6.7,2-9.7-1c27.8-4.5,55.8-7.2,84-7.4C345.5,261.5,354.8,264,359.4,253.8z"/>
	<path class="st30" d="M406.5,297.2c-0.1,1-0.2,2.1-0.2,3.1c-5.1,0.4-10.3,0.8-15.4,1.2c-6.8-0.5-13.5-1-19.9-1.5
		c-4.2-8.9,27.2-10.4,3.7-22.2c2.5-3.9,6.5-4.1,10.6-4.3c10.1,1,25.7-3.1,14.6,16.9C397.5,294.6,405.7,293.3,406.5,297.2z"/>
	<path class="st31" d="M253.4,268.9c3.2,0.3,6.4,0.7,9.7,1c22.2,6.9,45.3,6.9,68.2,8.2c0.5,1.2,1.2,2.2,2.1,3.1
		c-26.6,2.6-52.7-4-79.1-4.3c-3.7,0-10.2,0.9-8.1-6.5C246.5,269.3,250.9,269.4,253.4,268.9z"/>
	<path class="st32" d="M435.6,332c7.4-3.6,14.8-7.3,22.2-10.9c12.7-4.1,25.4-8.7,38.3-12.1c6.3-1.6,13.1-6.8,19.8-0.6
		C488.5,314.2,464.2,330.3,435.6,332z"/>
	<path class="st33" d="M578.4,242.8c-29.6,9.9-56.6,1-82.9-12.1c1.5-1.9,3.3-2.1,5.2-0.6C526.1,237.3,551.3,245.6,578.4,242.8z"/>
	<path class="st34" d="M500.7,230.1c-1.7,0.2-3.5,0.4-5.2,0.6c-18.4-8-35.9-10.1-50.7,7.2c-1.2-16.5,11.5-17.6,22.2-18.5
		C479.3,218.3,490.7,222.8,500.7,230.1z"/>
	<path class="st35" d="M659.3,234.4c-18.4,0.2-36.3,6.1-54.8,4c16.2-8.4,35.8-1.6,51.6-11.7c4.6-0.1,9.4-0.8,12.1,4.3
		c0.8,1.9,0.5,3.5-1.1,4.8C664.1,237,661.5,236.7,659.3,234.4z"/>
	<path class="st32" d="M515.6,308.2c21.3-1.8,41,9.4,62.3,7.9c0.9,0.7,1.4,1.5,1.3,2.4c-0.1,1-0.2,1.4-0.5,1.4
		C556.9,320.1,535.6,317.8,515.6,308.2z"/>
	<path class="st36" d="M417.7,301.7c8.6-1.1,9.2,4.2,8.1,10.5c-1.2,6.8-2.8,13.5-4.2,20.2C410.5,323.4,424.5,311.2,417.7,301.7z"/>
	<path class="st37" d="M359.6,287.7c0.6,10.1-16.2,8.8-13.4,20.4c-4.9-1.5-12.1-2.8-4.6-9.4C346.8,294.1,353.6,291.3,359.6,287.7z"
		/>
	<path class="st38" d="M578.7,319.9c-0.3-1.3-0.5-2.6-0.8-3.8c0.8-6.2-4.7-15.7,8.2-15.4C582.8,306.8,592.4,317.8,578.7,319.9z"/>
	<path class="st22" d="M667.9,234.4c0.2-1.1,0.2-2.2,0.2-3.3c15.2,2.9,29.8,7.8,42.3,16.9c7.9,5.8,17.9,12.2,15.6,24.5
		c-2.4,12.2-10.5,20.2-22.6,23.8c-3,0.9-6.4,0.9-8.1,4.3c-5.2-1.4-10.4-2.8-15.6-4.2c-7.9-6.7-19.7-4.8-28.5-12.9
		c6.9-9.3,18.2-4.5,26-8.8c2.5-1.9,7.1,1,8-3.7c-18.9-3.1-37.1-8.9-56.4-7.7c-3.1,0.2-4.2-2-3-5c1.8-1.5,3.5-2.9,5.3-4.4
		C643.6,247.6,656.4,242.2,667.9,234.4z"/>
	<path class="st39" d="M406.5,297.2c-5.4-0.7-10.8-1.5-16.2-2.3c1.1-7.3,11.1-6.4,12.2-13.9c-3.9-5.8-10.5-2.4-15.5-4.3
		c-2.5-2.2-2.5-4.4,0-6.6c5.2-0.3,10.3-0.6,15.5-1c2.6-0.2,5.7,0.2,7.5-1.2c14.4-10.7,14.3-10.9,35.7-9.6
		c11.7,0.7,23.6,2.8,29.1-12.1c2.1-5.9,7.7-7.8,12.6-4c29.4,22.8,61.5,12.9,93.2,8.4c2.8-0.4,5.8-0.1,13.4-0.1
		c-10,5.5-15.9,8.8-24.5,13.6c18.7,7.8,36.3,3.6,54.1,7.5c-4.2,6.2-10,4-14,6.1c-12.4,7.6,2.1,7.8,3.2,11.6
		c-14.1,8.3-28.8,0.7-43.1,1.5c-9.6,0.6-22.1-7.6-27.9,8.4c-1.7,4.6-8.5,2-12.5,0.6c-20.3-6.8-39.6-5.2-58.3,5.4
		c-7.7,4.4-8.8,4.2-12.1-6.6c-3.6-11.7-18.8-7.4-29.4-2.2C421.7,296.7,414.1,297,406.5,297.2z"/>
	<path class="st40" d="M612.7,289.4c-7.7-0.2-14.6-2.9-22.3-7.1c5.8-6.2,12.7-4.5,19.1-4.6c6.2,13,20.1,10.6,30.5,15.1
		c6.2,2.7,13.3,3.6,19.9,7.5c-6.4,0-12.8,0-19.2,0C631.9,295.1,620.4,296.9,612.7,289.4z"/>
	<path class="st41" d="M625.8,258.1c18.9,6.6,39.1,3,58.3,7.4c5.3,1.2,12-1.8,14.8,5.8c-10.4,2.3-20.9,5.2-30.8-1.9
		c-16.6-1.5-33.2-3.1-49.7-4.6C620.8,262.6,623.3,260.4,625.8,258.1z"/>
	<path class="st41" d="M680.1,277.4c-6.9,6.9-16.2,1.8-24,5c5.9,8,19.3,3.4,23.6,14c-13.1-2.4-26.3-4.7-38.1-11.3
		c1.5-6.5,7.4-5,10.9-7.4C661.6,275.7,670.8,271.2,680.1,277.4z"/>
	<path class="st42" d="M680.1,277.4c-9.2,0.1-18.5,0.1-27.7,0.2c3.2-6.6,12.4-1.8,15.7-8.2c10.4-0.8,20.6-0.5,30.8,1.9
		C695.5,282,686.4,275.4,680.1,277.4z"/>
	<path class="st43" d="M386.9,270.1c0,2.2,0,4.4,0,6.6c-4.1,0.4-8.2,0.7-12.2,1.1c-3.5-0.2-6.9-0.5-10.4-0.7
		c0.3-2.5-9.4-4.2-1.7-6.4C370.1,268.5,378.8,270.2,386.9,270.1z"/>
	<path class="st44" d="M667.9,234.4c-10.1,10.5-22.1,17.4-36.8,19.4c7.5-9.2,21-9.6,28.2-19.4C662.2,234.4,665,234.4,667.9,234.4z"
		/>
</g>
</svg>
