<?xml version="1.0" encoding="utf-8"?>
<!-- Generator: Adobe Illustrator 23.0.1, SVG Export Plug-In . SVG Version: 6.00 Build 0)  -->
<svg version="1.1" id="Layer_4" xmlns="http://www.w3.org/2000/svg" xmlns:xlink="http://www.w3.org/1999/xlink" x="0px" y="0px"
	 viewBox="0 0 1000 1000" style="enable-background:new 0 0 1000 1000;" xml:space="preserve">
<style type="text/css">
	.st0{fill:#010000;}
	.st1{fill:#F9986E;}
	.st2{fill:#A36D49;}
	.st3{fill:#935F3C;}
	.st4{fill:#905D3C;}
	.st5{fill:#25120B;}
	.st6{fill:#FCBA9B;}
	.st7{fill:#FCBB9C;}
</style>
<g>
	<path class="st0" d="M597.5,361.6c39,26.9,72.1,57.9,90.6,102c2.4,5.8,6.8,8.1,13.9,9.9c75.8,19.5,118,78.3,129.1,147.3
		c5.4,33.5-12.7,60.6-35,84.9c-27,29.5-62.5,45.1-97.5,61.3c-20.5,9.6-36,24.1-50.9,40c-22.5,23.9-50.3,39.5-82.2,43.5
		c-27.9,3.5-54.9-7.2-80.9-17c-30.9-11.7-63.2-15.2-94.6-8.8c-65.6,13.4-86.2,10.1-126.8-52.5c-23.2-35.8-44.7-72.1-56.6-114.3
		c-15.9-56.3,0.8-100.5,43.8-135.3c16.7-13.5,23.8-28.2,28.7-48.1c19.3-77.4,59.7-144.9,103.7-210.2c31-46,60.8-93.2,95.2-136.6
		c35.8-45,51.3-53.8,115.8-27.4c26.9,11,51.2,27.5,73.4,46.1c36.4,30.8,41.8,74.7,14.9,113.9C657.1,296.7,628.5,330.1,597.5,361.6z"
		/>
	<path class="st1" d="M425.6,448.6c-45.8,10.9-87.8,31.5-132.8,53.4c7.2-33.5,14.8-64.1,28-92.6c46-99.7,110.7-187.8,173.2-277.2
		c15.4-22,37-31.6,64.7-23.3c21.1,6.4,42.4,11.8,58.4,28.3c7.4,4.5,12.9,10.8,17.6,17.8c19.9,29.4,18.2,44.9-7.1,70
		c-7.9,7.8-16.5,14.6-25.3,21.3c-64.8,49-106.6,117.7-155.5,180.3C440.4,434.7,435.7,444.1,425.6,448.6z"/>
	<path class="st2" d="M617.1,808c-30.5,27.9-66.5,29.1-101.8,15.2c-49.6-19.5-99.2-22.1-150.7-12.3c-28.1,5.3-52.5-6.5-69.2-27.3
		c-30.1-37.5-55.6-78.5-68.9-125.5c-6.7-23.9-7.4-48.4-0.3-72.7c5.7,4.4,5.6,11.4,7.8,17.4c10.1,27.7,34.1,42.8,63.3,41.3
		c26.3-1.3,50.9-10,76-15.9c39.9-9.3,80.4-14.3,121.2-16.6c36.4-2.1,51.8-20.3,48.7-57.4c-1.2-14.5-6.1-29.5,4.1-43
		c21,44.8,18.6,89.5-5.3,131.7c-11.9,21.1-36.6,24.3-58.5,24.7c-43,0.7-86.3,9.9-131.5-6.2c11,18.3,28.7,18.7,40.9,27.3
		c-1.7,8.4-8,13.6-12.2,20.4c6.8,4.8,11.9-3.2,17.9-2c31.4-11.2,41.9-7.3,55.1,20.7c30.9-17.1,63.2-24.6,98-13.4
		c16.9,21.4,39.9,35.7,61.6,51.3C624,779,625.9,793,617.1,808z"/>
	<path class="st1" d="M547.3,511.2c-3.5,21.2,4.7,42.2,0.4,63.5c-5.7,28.9-16.1,40.5-44.5,41.7C441.5,619,381.6,631,322,646.7
		c-46.2,12.2-76.7-5.2-90.8-34.7c-4.2-8.7-4.1-17.5-5-26.4c4.9-23.3,20.5-40.2,39.1-51.5c56.1-34.3,115.3-62.7,180.1-76.8
		C490.6,447.3,529.2,468.4,547.3,511.2z"/>
	<path class="st1" d="M616.6,608.8c24.6-25.8,49.2-51.6,64.3-84.6c2.1-4.7,4.6-9.4,5.8-14.4c5-20.2,8.8-22.7,28.2-13.7
		c55.3,25.6,87.9,68.2,94.2,129.7c0.2,2.4,2,4.6,3,6.9c-8.3,34.1-38.4,57.9-73.9,55.3c-47.3-3.4-87.3-22.3-116.1-61.5
		C618.1,621.3,614.5,616,616.6,608.8z"/>
	<path class="st2" d="M425.6,448.6c38.3-57.8,83.1-110.7,126.1-164.9c15.5-19.5,38.4-30.6,55.7-48.1c0.4-0.4,1.1-0.7,1.6-1.1
		c42.5-32.2,44.3-44.6,12.9-89c-1.9-2.6-3.2-5.6-4.8-8.4c30.8,10.3,51,31.5,61.8,61.7c6.7,18.7,1.5,35.6-9.7,51
		c-40,55.1-81.3,109.1-137.5,149.2c-10.3,15-24.4,25.5-40.2,34C471.8,447.9,447.2,442.1,425.6,448.6z"/>
	<path class="st2" d="M616.6,608.8C643,655.7,684.9,678,736.7,683c31.7,3.1,59-16.3,75.3-50.3c-0.4,34.3-23.3,55.9-46.6,75
		c-28.1,23.1-61.1,38.6-96.2,49.6c-43.5,13.5-112.8-39.5-118.3-80c-2.2-16.5,0.4-30,18.1-38.5C585.8,630.6,600.8,618.9,616.6,608.8z
		"/>
	<path class="st1" d="M535.8,402.7c7.8-4.5,16.8-7.8,23.1-13.9c15.9-15.3,30.4-12.5,46.2-0.2c31.1,24.2,59,50.5,67.3,91.4
		c4.9,15.2-5.7,21.3-16.6,23c-35.6,5.5-71,4.4-104.6-11c-14.1-18.1-30.1-34.1-52-42.1c-12.3-4.5-4.9-10.3-2.6-16.1
		C506,418.9,519.7,409.3,535.8,402.7z"/>
	<path class="st2" d="M551.1,492c30.2,3,60.2,10,90.8,7.8c13.4-1,28.3-0.9,30.5-19.8c6.9,13.2,5.2,27.1-1,39.2
		c-21.9,43.3-55.4,76-96.5,101.2c-2.6,1.6-5.8,2-11,3.7C571.9,577.7,572.7,533.6,551.1,492z"/>
	<path class="st3" d="M551.6,714.4c-19.2,2.4-38.5-1.7-57.9,3c-17.1,4.1-33.2,8.6-45.6,27.8c-1.6-16.2,0.2-28.7-13.9-36.4
		c-12.6-6.9-24,0.7-35.7-1.6c9.7-12.4,19.8-22.7,37.8-22.9c15.1-0.2,25.8,1.8,24.1,26.6c16.1-31.9,44.3-27.5,66.1-36.9
		c5.9-2.6,7.1,0.1,9.1,5.4C540.2,691.2,546.2,702.7,551.6,714.4z"/>
	<path class="st4" d="M617.1,808c1.3-14.3-1-28.4-3.8-42.3c11.9,1.9,21.8,11.4,37.3,7.5C642.2,790.3,631.3,800.7,617.1,808z"/>
	<path class="st5" d="M535.8,402.7c-13.1,10.3-26.2,20.7-39.3,31c-1.7-0.2-3.4-0.5-5.1-0.7c11.3-13.8,24.7-25.1,40.2-34
		C533,400.3,534.4,401.5,535.8,402.7z"/>
	<path class="st6" d="M437.5,255.4c15.8-37.5,38.5-70.9,61.8-103.9c6.5-9.1,15.6-15.5,26.1-19.7c4.3-1.7,8.9-4.7,12.2,0.3
		c3,4.6-0.6,8.6-3.8,11.9c-18.1,18.5-37.4,35.9-53.1,56.8C466.6,219.3,451.9,237.2,437.5,255.4z"/>
	<path class="st7" d="M377.1,540.4c-0.8,3.8-4.3,5.6-7.9,7.3c-26.9,12.7-55.1,21.6-84,28.5c-5.6,1.3-9-0.3-10.9-5
		c-1.6-4,0-8.1,3.5-10.2c29-16.9,60.2-26.1,94-25.5C374.7,535.5,376.9,536.8,377.1,540.4z"/>
</g>
</svg>
