<?xml version="1.0" encoding="utf-8"?>
<!-- Generator: Adobe Illustrator 23.0.1, SVG Export Plug-In . SVG Version: 6.00 Build 0)  -->
<svg version="1.1" id="Layer_4" xmlns="http://www.w3.org/2000/svg" xmlns:xlink="http://www.w3.org/1999/xlink" x="0px" y="0px"
	 viewBox="0 0 1000 1000" style="enable-background:new 0 0 1000 1000;" xml:space="preserve">
<style type="text/css">
	.st0{fill:#3D4856;}
	.st1{fill:#1D2329;}
	.st2{fill:#92B2C6;}
	.st3{fill:#2B5260;}
	.st4{fill:#AE10A3;}
	.st5{fill:#360534;}
	.st6{fill:#650A5F;}
	.st7{fill:#2F2725;}
	.st8{fill:#90AFC3;}
	.st9{fill:#182E35;}
	.st10{fill:#EF88E7;}
	.st11{fill:#302725;}
	.st12{fill:#080107;}
	.st13{fill:#EE89E7;}
	.st14{fill:#364149;}
	.st15{fill:#858898;}
	.st16{fill:#EA81E3;}
	.st17{fill:#A7109D;}
	.st18{fill:#5E0959;}
	.st19{fill:#1D2228;}
	.st20{fill:#640A5E;}
	.st21{fill:#374047;}
	.st22{fill:#7A7E8E;}
	.st23{fill:#A8109E;}
	.st24{fill:#6D9796;}
	.st25{fill:none;}
	.st26{fill:#698D8A;}
	.st27{fill:#848797;}
	.st28{fill:#040406;}
	.st29{fill:#B5FBF8;}
	.st30{fill:#B4F7F6;}
	.st31{fill:#231724;}
	.st32{fill:#AF11A4;}
	.st33{fill:#260524;}
	.st34{fill:#290D24;}
	.st35{fill:#680A62;}
	.st36{fill:#270521;}
	.st37{fill:#20081B;}
	.st38{fill:#680A61;}
	.st39{fill:#1A0218;}
	.st40{fill:#640B5D;}
	.st41{fill:#290426;}
	.st42{fill:#A60F9C;}
	.st43{fill:#20031E;}
	.st44{fill:#2F0929;}
	.st45{fill:#F1D0E9;}
	.st46{fill:#4D0748;}
	.st47{fill:#0C010B;}
	.st48{fill:#350533;}
	.st49{fill:#394852;}
	.st50{fill:#76A6A3;}
	.st51{fill:#141317;}
	.st52{fill:#F332C4;}
	.st53{fill:#4A2D48;}
	.st54{fill:#F827C3;}
	.st55{fill:#130210;}
	.st56{fill:#EACDE4;}
	.st57{fill:#FC28C4;}
	.st58{fill:#2A505E;}
	.st59{fill:#FEC6EE;}
	.st60{fill:#FDC4ED;}
	.st61{fill:#FEC5EE;}
	.st62{fill:#FEC3EE;}
	.st63{fill:#FDC6EE;}
	.st64{fill:#FCFAFB;}
	.st65{fill:#FCF8FB;}
	.st66{fill:#FDF9FC;}
	.st67{fill:#2C0722;}
	.st68{fill:#4B0C3A;}
	.st69{fill:#27061E;}
	.st70{fill:#F432C4;}
	.st71{fill:#A50F9B;}
	.st72{fill:#AA10A0;}
	.st73{fill:#FACAEE;}
	.st74{fill:#F52BC3;}
	.st75{fill:#F9C9ED;}
	.st76{fill:#F32CC3;}
	.st77{fill:#30292E;}
	.st78{fill:#F6CEEC;}
	.st79{fill:#F32EC2;}
	.st80{fill:#300F2D;}
	.st81{fill:#FDC5EE;}
	.st82{fill:#F5F3F5;}
	.st83{fill:#7D0A5E;}
</style>
<g>
	<path d="M779.2,342c-3.9-15.4-10.8-36.3,2-49.8c29.9-31.4,41.7-68.4,43.2-114.2c-2.9-23.7-4.8-51.3-19.6-76.1
		c-15.3-25.6-33.9-29.6-58.9-14.4c-24.5,15-41.4,36.7-58.8,58.6c-12.8,16.1-22.5,39.7-51.1,26.1c-2.8-1.3-7.8,0.1-11,1.8
		c-27.8,14.4-50,9.7-68.2-16.8c-6.9-10.1-17.5-12.9-31.4-9.9c-23.3,5.1-36.4,22-36.8,56.5c-0.2,14.6-4.6,25.3-14.7,35.8
		c-16.6,17.2-37.9,27.6-56.3,42c-15.3,12-36.3,20.8-39.3,42.1c-3.8,27.6-26.6,36.5-43.4,51.6c-11.4,10.3-23.9,19.4-34.8,30.1
		c-31.4,30.8-58.9,64-81.3,102.8c-21.4,37.1-56.1,64.2-93.8,85.9c-11.3,6.5-26.2,10.2-30.8,23.6c-9.3,27,18.5,71.5,47.2,78
		c52.2,11.8,91,48.8,96.4,95.8c4.5,38.9,6,78.1,8.1,117.2c1.2,22.3,11,40,26.3,44.4c30.1,8.6,59.5,3.4,86.7-9.3
		c54.2-25.2,96.8-65.3,134.3-110.8c22.2-26.9,21.7-48.5,1.7-77.9c-1.8-2.6-2.4-6.3-4.6-8.1c-6.2-5-5.8-9.6-2.2-16.3
		c9.1-17.1,11.8-36.4,11.2-55c-0.6-17.4,5.5-20.1,20.8-19.3c34.9,2,69.4-4.5,97.9-23.9c52.5-35.7,107.4-68.6,150.5-116.8
		c15.7-17.5,26.2-36.2,24.3-59.7C789.6,417.5,788.8,379.5,779.2,342z M419,686c-3.1-6.7-5.5-14-9.6-20c-4.6-6.7-5.1-12.9,2.1-16.2
		c9-4.1,9.1,6.1,12.4,10.5C430.7,669.4,420,676.9,419,686z"/>
	<path class="st0" d="M648.3,550.7c-3.9,2.6-7.8,5.3-11.6,7.9c-27.7,18.1-55.4,36.1-82.7,54.8c-32.6,22.3-68.7,25.4-106.3,23.1
		c-6.8-0.4-13.3-2.5-15.3-9.8c-2-7,4-10.6,8.4-14.1c40.3-32.7,80.9-65.1,120.9-98.2c28.5-23.5,57-47.1,85.1-71.1
		c11.9-10.1,24.8-22,41.6-13.3c17.2,8.9,16,26.9,15.5,43.2c-0.9,26-14.8,45.3-33.8,61.1C663.1,540,656.1,545.9,648.3,550.7z"/>
	<path class="st1" d="M648.3,550.7c11.1-11.7,22.5-23.2,33.3-35.2c16.9-18.8,21.1-41.3,15.8-65.3c-4.2-19.1-16.7-24.7-32.9-14.1
		c-14.6,9.5-27.7,21.3-41.1,32.6C567,516.2,510.2,563.4,452.2,609c-6.1,4.8-18.1,9.8-15.4,17.3c3.3,9,15.8,5.7,24.7,6.4
		c42.4,3.2,78-13.8,112.5-36.1c20.5-13.3,38.9-30.3,62.8-38.1c-8.2,13.5-23.2,18.3-35,27.1c-14.6,10.8-31,19.2-44.9,30.8
		c-45.2,37.9-97,21.3-151.5,22.7c17.3-25.9,40.3-37.4,59.3-52.8C520.5,541.1,577.2,497,631,449.3c19.4-17.2,39.5-33.5,59.2-50.3
		c8.9-7.6,15.6-7.6,19.5,5.1c8.4,27.2,21.9,52.7,24.9,81.6c1.2,11,8.9,18,17.1,24.4c-124.1,103.8-166.5,130.3-213.5,130
		c54.1-38.2,104.6-73.7,155-109.3C675.9,532.8,664.5,546.8,648.3,550.7z"/>
	<path class="st2" d="M293,625.3c-60.7-37.9-70-111.1-20.9-165.5c1.9,0.7,3,2,3.5,3.9c0,10.1-7.9,16-12.7,23.5
		c-19.4,30.2-15.3,74.8,12,104.5c-0.8-15-5.9-26.9-8.1-39.1c-5.7-32.1,1.4-59.8,22.6-85.3c53.8-64.5,120.4-114.5,185.7-166
		c25.5-20.1,52.2-38.7,76.4-59.5c-44.2,30.7-88.7,61.8-131,95.9c-3,2.5-6.5,4.3-10.7,4.2c-1.9-0.4-3.4-1.4-4.4-3.1
		c51.8-48.6,111.6-86.3,173.3-127.3c-1.2,20.5-1.8,37.4,1.6,54.4c6.4,32.1,28.8,51.3,52.6,69.8c8.3,6.9,15.3,14.9,19.4,25.1
		c3.1,7.6,4.7,15-6.3,17.6c-26-5.1-43.6-23.3-62.3-39.8c-7.9-7.3-13.3-16.1-16.9-26.1c-8.7-16.1-2.8-34.5-6.8-52.5
		c-23.7,11.8-40.6,30.2-59.4,45.8c-45.9,38.3-94.9,72.7-139.6,112.6c-23.4,20.9-45.6,43.2-63.7,68.3c-15,20.9-8.7,46.6-1,69.6
		c8.4,25.3,24.1,44.4,51.6,51.1c5,1.2,12.5,0.8,12,9.7C339.6,636.8,316.3,631.4,293,625.3z"/>
	<path class="st3" d="M293,625.3c18.5,0.9,36.8,0.7,54.9-4.1c4.9-1.3,10.2-1.9,11.8-8c92.8-72,184.3-145.5,274.6-220.5
		c2.5-2.1,5.1-4.1,7.8-5.9c8.7-5.7,8.7-5.6,2.5-11.5c7.4-0.3,8.6-4,5.3-9.9c-5.6-9.9-11.3-19.7-16.9-29.5c16.8,8,33.6,16,50.4,23.9
		c8.7,11.6,2.7,20.6-5.2,29.2c-18.8,20.7-41.4,37.1-62.1,55.7C551.1,503.3,478,551.9,412.6,610.1c-16.6,14.8-33,31.5-57.4,33.9
		C332.6,644.2,311.8,638,293,625.3z"/>
	<path class="st4" d="M215.6,714.8c-4.7-0.6-7.4-3.6-9.1-7.8c20.1-24.5,46.8-40.9,73.2-56.9c23.5-14.3,61.8,7.7,71,38.8
		c3.9,13,6.9,26.4,9.2,39.8c4.3,25.2,10.8,49.4,25.3,70.9c8.8,13,7.2,27.2,1.8,41.1c-7.4,18.8-17.3,36.3-27.2,53.8
		c-11.7,15.1-27.3,24.5-45.5,29.6c-1.9,0-3.7-0.5-5.3-1.4c0.7-16.6,16.3-19.6,25.8-28.3c0.4-0.3,0.6-1.2,0.5-1.5
		c-0.2-0.4-0.9-0.5-1.6-0.8c-1.4-0.8-2.3-1.9-2.8-3.4c6.2-18.2,24.9-25.9,32.9-40c3.8-2.7-0.3-4.2,1.3-2.2c0.4,0.5,0.1,1-0.7,1.7
		c-2.9,2.4-5.5,5.9-9.9,2.6c-3.1-6.3,0.2-12.4,0.5-18.6c2.2-10.7,1.7-18.9-13-14.6c-3.8,1.1-7.6,1.6-10.7-1.8
		c4.1-13.1,6-27.7,22.2-32.5c5.6,3.8,0.6,11.5,8,15.8c-0.4-0.1-0.9-0.1-2.2-1.7c-3.4-3.9-1.1-10.1-5.1-14c-2-2.3-2.7-4.9-2.6-7.8
		c-7.2-34.8-9.4-71-27.3-102.8c17.8,30.4,19.4,65.4,26.2,99c-0.5,3-1.9,5.2-4.9,6.3c-11.1-12.6-24.6-0.8-36.7-3.8
		c-1.2-1.4-1.7-3.1-1.6-5c3.2-8.6,11.7-13.2,15.9-21.1c4-7.6,5.9-15.4,1.2-23.4c-13.9-8.3-7.3-23.2-11.2-34.7
		c-5.9-7.8-11.8-9.4-17.9-0.3c-1.9,4.1-4.9,7.2-8.5,9.8c-13.5,6.5-15.7,23-27.5,31.1c-4.4,3,0.8,4,1.7,5.6c5.1,9.7,10.7,19.2,7.4,31
		c-0.9,1.7-2.3,2.7-4.2,3c-12.4-10.8-13.2-29-25.6-40C231.3,724.3,227.1,714.4,215.6,714.8z"/>
	<path class="st5" d="M307.9,921.7c1.6,0.1,3.2,0.3,4.7,0.4c21.2-3.5,36.8-17.3,53-29.7c23.2-17.8,43.7-38.4,60.5-62.3
		c13.4-19,10.9-26.3-9.8-36.9c-14.5-7.4-28.5-15.7-31.1-34.2c1.5-4,4.2-6.2,8.7-5.3c22.6,27.4,33.6,29.6,63.4,12.4
		c5.7,6.5,4.8,15.5,8.6,22.6c0.2,3.6-1.7,5.7-5,6.8c8.6-2.4,16.6-7.7,26.2-5.6c1.7,0.7,3.3,1.7,4.7,2.9c0.7,6.5,0.7,12.8-3.9,18.4
		c-44,53.8-89.9,105.3-159.5,126.6c-19.8,6.1-40.1,7.9-58.6-5.3C282.4,928.3,294.2,921.5,307.9,921.7z"/>
	<path class="st6" d="M355.7,894.8c8.3-16.8,16.7-33.4,24.8-50.3c8.1-16.9,8.4-32.4-3.5-49.1c-20.7-28.9-21.4-64.6-28.8-97.8
		c-9.3-41.8-45.1-57.5-81-34.8c-21.2,13.4-38.2,32.6-60.6,44.2c-9.4-0.9-16.5-6.3-27.6-14.4c45.1,1.3,70.3-27.8,98.5-51.2
		c7-5.8,12.4-5,19.1-1.1c12.5,7.2,26.3,10.7,40.4,12.6c11.8,1.5,20.6,6,22.6,19c10.8,23,12,48.7,20,72.7
		c6.2,18.7,14.3,34.3,29.1,46.8c8.1,11.9,16.5,23.8,13.4,39.5c-12,28.7-36.7,45.7-59.3,64.8C360.5,897.5,357.9,896.4,355.7,894.8z"
		/>
	<path class="st7" d="M179,577.4c14.9-14.4,29.8-28.7,46-44.3c1.8,6.2,4.2,12,5.2,17.9c4.4,25.6,13.8,48.7,33.6,66.2
		c8.4,7.4,6.7,11.8,0,20.1c-28.6,35.5-67.2,45.8-110.1,46c-22.4,0.1-36.8-16.4-41.3-45.9c0.8-0.5,1.5-1,2.3-1.6
		c10.4,6.5,20.9,7.2,30.2-1.6c24.4-23.2,52-43.1,71.7-71c1.8-2.5,4.4-5.1,2-9.1c-13.6,6.2-19.1,23.4-35,26.2
		C181.6,579.9,180.1,579,179,577.4z"/>
	<path class="st1" d="M778.3,449.8c-4.1,15.8-2,31.8-15.4,43.6c-10.8,9.5-17.8,4.7-19.9-5.4c-6.9-33-16.4-64.9-30.7-95.5
		c-3.6-7.6,1.9-12.6,7.8-15.6c12.3-6.1,26-7.1,39.3-9.4c7.5-1.3,8.6,4.1,10.5,10.4C777.1,401.8,769.1,427.1,778.3,449.8z"/>
	<path class="st8" d="M667.6,285.8c-17.9-18.8-17.8-40.8-9.8-63.2c14.5-40.6,43.4-70.9,73.8-100.6c-11.2,33.7-2.9,67.1-1.4,100.4
		c-1.6,14.9,1.2,31.6-15.9,40.4c-13.1-4.3-12.8-16.5-15.4-26.7c-1.8-6.8-0.7-14.2-1.9-21.1c-2.4-2,2.6-7.7-3.9-7.7
		c-8.3,6-15,12.9-16,23.7c-3.6,17.1,8,31.5,8.6,47.9C682.2,287.8,675.9,289.5,667.6,285.8z"/>
	<path class="st4" d="M644.1,190.9c8-0.6,18.2-2.2,10.8,10.9c-18.9,33.2-16.4,64.9,4.5,96c-3.5,19.3-8.5,23.6-27.1,23.3
		c-30.8-19-44.9-47.6-46.3-82.8c-0.5-12.1,0.3-24.9,12.4-32.8c4.6,6.9,1.3,13.9-0.4,20.6c-3.9,15.4,1,29,8.7,43.5
		C608.2,237.6,603.7,203.1,644.1,190.9z"/>
	<path class="st9" d="M355.3,644c32.1-13.8,56.6-38.3,82.3-60.7c47.3-41.4,99.8-76.2,147-117.6c30.2-26.4,61.9-51.2,90.4-79.6
		c7.9-7.8,9.9-16.3,8.4-26.4c9.3,2.7,18.6,5.3,29.9,8.5c-32.3,27.4-64.1,53.3-94.7,80.5c-71.2,63.2-149.5,117.6-221.3,180
		C384.8,639.4,372.4,647.7,355.3,644z"/>
	<path class="st6" d="M632.2,321.1c13.6-2.5,21.1-12,27.1-23.3c19.8,11.1,37.5,27.9,63.2,22.3c13.4-4.3,24.6-3.2,27.8,13.1
		c2.7,13.6-5.2,21.7-22.4,24.1c-1.9,0.3-3.7,0.8-5.5,1.6C686.3,360.8,660.1,338.9,632.2,321.1z"/>
	<path class="st10" d="M307.9,921.7c-12,6.1-23.3,14.6-38,10.7c-10.7-28.4-10.1-58.3-11.6-87.8c-1.1-21.9-2.5-43.8-6.2-65.5
		c-4.5-25.9-16.3-47.4-36.5-64.2c10.9-9.4,16.6,1.9,21.7,7c13.5,13.4,22.5,30.1,27,48.8c8.9,5.7,6.3,14.9,6.5,22.8
		c0.6,28.3-0.6,56.6,3.9,84.9c4.6,28.8,12.1,33.9,37.9,21.7c7.5-3.5,14.9-7.1,22.8-9.7c3.3-1.9,6.5-3.9,13.9-8.2
		C338,902.3,319.7,908.6,307.9,921.7z"/>
	<path class="st3" d="M667.6,285.8c6.3-1.6,13.7-1.1,16.9-8.7c5.2-1.2,8.5,2.2,12.1,4.8c8.8,6.3,12.9,1.6,15.4-6.6
		c1.1-5-1-10.5,2-15.2c11.3-10.1,10.6-25.3,16.2-37.8c7.9,21.1,7.9,46.7,33.6,57.5C718.5,321.4,695.8,321,667.6,285.8z"/>
	<path class="st11" d="M441.8,762.1c-10.9,10.5-21.5,6.1-30.7-1.9c-10.3-9-2.2-17.1,2.7-25.4c6.8-11.7,12.7-23.9,19.1-35.8
		c6.3-9.5,12.8-19.1,4.4-30.7c-4.7-6.9-6.4-13.6,4.3-15.5c7.8-1.4,14.8-1,15.9,10.8c2.5,27.7-2,47.3-22.6,84.6
		c4.1-2.5,7.2-4.4,10.4-6.3C452.3,749.9,440.9,755,441.8,762.1z"/>
	<path class="st12" d="M406,793.2c-30.3-21.1-32.4-56-41.6-87c-3.2-10.7-6.9-22.4-4.8-34.3c2.6,0,5.3,0,7.9,0
		c8.1,0.4,9.2,5.2,7.3,11.8c-1.3,1.6-2.7,3.2-4,4.8c1.3,16.5,10.5,30.7,14.3,46.5c1.8,7.3,6.2,14.3,2.5,22.2c5,17,17.7,26.3,33,33.1
		c22.2,9.9,26,20,11.6,39.9c-26.4,36.3-57.4,68.1-99.1,87.3c-6.1,2.8-11.7,11.7-20.4,4.8c14.9-8.2,30.9-14.7,43-27.3
		c26-15.7,46.6-36.8,62.7-62.5C429.3,814.5,423.7,801.9,406,793.2z"/>
	<path class="st6" d="M804.3,152.2c5.5,37.2,4.8,73.6-17.3,106.1c-12.9,19-27.5,17.8-37.5-3c-7.3-15.3-10.4-31.8-10.3-48.8
		c4-3.6,9.2,2.3,13.1-1.7c2.8-0.3,5.2,0.4,7.1,2.6c2.5,4.1,2.5,8.6,1.9,13.2c-0.6,10.3,2.3,19.3,9.1,27
		c19.5-2.6,18.3-19.7,20.5-32.2c2.8-15.8,5.7-31.9,5.2-48.2C796,161.4,794.7,153.3,804.3,152.2z"/>
	<path class="st13" d="M644.1,190.9c-0.1,3.8-2.5,5.8-5.6,7.1c-24.3,10.2-26.9,30.6-24.8,53.1c0.3,3.8,2.5,7.5,2.6,11.2
		c0.2,7.3-1.5,15.8-9.1,17.3c-6.7,1.3-7.6-7.3-9.8-12.4c-8.9-20.7-7.3-41.3,1-61.7C610.6,191.3,626.6,188.8,644.1,190.9z"/>
	<path class="st14" d="M441.8,762.1c-9.2-8.4,6.7-12.8,3.3-20.3c19-23.3,24.1-50.6,22.2-79.6c-0.3-5.2-1.1-9,5.5-9.3
		c5.5-0.2,9.6,0.4,11.3,7.3C491.7,690.9,469.8,744.4,441.8,762.1z"/>
	<path class="st15" d="M518.9,237.5c-13.9,16.2-32.4,26.3-49.7,38c-1.9-1.9-2.1-3.9-0.5-6.1c11.7-13.1,30.6-19.5,35.4-38.9
		c4.2-12.4,0.1-25.6,3.5-38.3c2.1-7.9,4-16.2,13.1-16.9c10-0.7,14.9,7.7,16.9,15.9C542.2,210.8,531.2,224.6,518.9,237.5z"/>
	<path class="st0" d="M518.9,237.5c4.1-8.7,8.2-17.5,12.3-26.2c2.8-5.9,5.6-12,2.7-18.5c-2.8-6.3-5.1-15.4-13.1-14.8
		c-6.7,0.4-7.4,9-9.8,15.1c-4.7,12.2,0,25.9-6.9,37.5c0.5-24-7.7-50.4,19.2-66.7c14.5,5.4,18.1,18.8,22.9,31.3
		C557.1,217.7,553.5,223.3,518.9,237.5z"/>
	<path class="st16" d="M737.8,147.8c1.1-13.1,4.7-25.3,10.8-37c4.4-8.4,10-15.9,20.1-16.2c10.9-0.3,17.5,7.1,22.2,16.1
		c2.4,4.6,4.4,9.3,6.6,14c3,9.7-2,10-9.1,7.7c-20.9-20.1-21.7-19.9-35.8,7.3c-2.1,4.7-3.5,9.7-7.1,13.5c-2.1,2.2-4.6,4.9-7.8,1.6
		C735.6,152.7,736.8,150.1,737.8,147.8z"/>
	<path class="st2" d="M272.1,459.8c20.6-32.4,51.2-54.7,80-78.7c17.4-14.5,35.5-28.1,53.3-42.1c0.6,0.7,1.2,1.4,1.8,2.1
		c-4.5,18.2-21.6,24.9-33.7,35.7c-28,24.8-57.1,48.5-83.1,75.5c-4.4,4.5-8.6,10-16.1,9.3C273.6,461,272.8,460.4,272.1,459.8z"/>
	<path class="st17" d="M787.6,129.4c3.8-0.6,9.6,3.3,9.9-4.7c5.1,8.4,6.8,17.8,6.8,27.4c-6,19-4,39.1-6.8,58.5
		c-1.9,13.7-5.9,26.3-13,37.7c-4.5,7.3-11.4,14.1-18.8,1.8c18.6-16.5,19-39.5,21.9-61.6C790.2,168.8,783.1,149.1,787.6,129.4z"/>
	<path class="st18" d="M387.5,757.1c-6.1-19-12.2-37.9-18.4-56.9c-1.4-4.3-3.8-8.5,1.6-11.8c6.7,15.1,15.6,28.7,33.1,31.8
		c10.9,2,4.5,6.3,2.5,9.8c-4.4,7.7-11.2,14.1-12.4,23.5C391.8,754.8,389.7,756,387.5,757.1z"/>
	<path class="st5" d="M722.5,358.9c1.6-1,3.2-2.8,4.9-2.9c13.6-1.1,20.1-8.4,18.7-21.8c-1.5-14.7-14.2-12-23.6-14.1
		c2.6-1.8,5.1-4.7,7.9-5.3c10.2-2,19.7-19.2,29.6-6.5c11.2,14.2-1.2,42.6-18.4,49.2C735.4,359.8,729,359.6,722.5,358.9z"/>
	<path class="st19" d="M546.3,195.2c-11.4-7.6-13.7-22-22.9-31.3c9.6-4.3,17.1,0.1,23.8,6.4c8,7.6,15.8,15.4,23.4,23.4
		c3.3,3.4,9.6,7.3,1.7,12c-4.5,2.7-9.4,8-14.7-0.2C554.9,201.3,550.1,198.6,546.3,195.2z"/>
	<path class="st20" d="M464.9,789.2c-14.3-3.9-5.3-15.3-7.6-23.1c6.3-3.2,10.3-15.8,18-9.9c11.1,8.5,18.8,20.9,16.4,36.6
		c-1.1,0.1-2.3,0.2-3.4,0.3C481.5,786.1,472,795,464.9,789.2z"/>
	<path class="st21" d="M374.8,683.6c-2.4-3.9-4.8-7.9-7.3-11.8c-10.8-23.9,12.6-13.1,19.4-19.2c2,19.1,11.5,34.9,22.4,50
		c-2.4,14.2-10.1,9.4-16,3.6C386.4,699.4,380.9,691.2,374.8,683.6z"/>
	<path class="st22" d="M468.7,269.5c0.2,2,0.3,4,0.5,6.1c-23.7,18.9-47.3,37.7-71,56.6c-1.4-1.6-2.7-3.3-4.1-4.9
		C412.7,300.6,442,286.6,468.7,269.5z"/>
	<path class="st23" d="M737.8,147.8c1.8,0.7,0,8.3,4.6,2.9c3.5-4.1,5.3-9.5,7.9-14.3c5.2,23.3,6.9,46.6,0.4,70
		c-3.8,6.3-7.7-1-11.6,0.1C735.5,187,729.9,167.6,737.8,147.8z"/>
	<path class="st24" d="M409.3,702.6c-2.9,1.5-5.6,3.2-7.8-1.1c-6.2-12-12.3-24-19.1-35.7c-4-6.9,3.6-8.6,4.5-13.2
		c3.1-1.1,9.1-5.4,8.9-0.4C395,670.7,409.2,684.7,409.3,702.6z"/>
	<path class="st7" d="M112.4,637.4c-6.5-10-2.2-17.2,6.3-22.7c20-12.7,40.2-24.9,60.3-37.3c0.6,0.7,1.2,1.3,1.8,2
		c-4.9,17.8-20.8,23.9-34.5,32c-11.8,6.9-23.9,13.1-32.1,24.6C113.6,636.5,113,636.9,112.4,637.4z"/>
	<path class="st25" d="M419,686c-3.1-6.7-5.5-14-9.6-20c-4.6-6.7-5.1-12.9,2.1-16.2c9-4.1,9.1,6.1,12.4,10.5
		C430.7,669.4,420,676.9,419,686z"/>
	<path class="st26" d="M437.1,668.2c1.2-3.7,3.3-12.2,6.7-3.5c5.3,13.4,1,27.2-8.4,38.7c-0.9-1.5-1.8-3-2.7-4.5
		C434.2,688.6,435.7,678.4,437.1,668.2z"/>
	<path class="st27" d="M573.9,527.9c-25.7,30.5-52.7,59.3-83.2,84.6c-2,1.6-4.1,3.3-6.4,4.4c-3.9,1.9-8.4,5.6-12.3,1
		c-4.7-5.7,1.9-8,4.8-10.4C509,580.8,541.5,554.4,573.9,527.9z"/>
	<path class="st28" d="M644.6,375.3c4.7,3.7,13.8,5,3,13.6c-91,72.5-181.6,145.5-272.2,218.5c-4.9,3.9-9.7,6.2-15.8,5.8
		c-56.5,0-74.8-56.4-75.3-100.2c-0.2-13.5,4.3-24.8,13.3-35.4c26.6-31.3,55.6-60,87.6-85.8c54.1-43.6,108.4-87,162.7-130.4
		c4.9-3.9,9.4-8.9,17.9-10.3c0.6,20.7-1.7,41.4,4.5,61.2c2.4,3.6,2.2,6.7-1.8,9c-6.2,0.6-7.7-6.3-12.7-7.6c-2.3,0.3-4.2,1.6-6,3
		c-5.7,4.1-11.4,8.2-16.1,13.4c-3.5,3.6-6.3,7.7-7.9,12.6c-4,9.5,1.4,18.9,0.1,28.3c-0.9,2.8-2.6,4.7-5.5,5.3
		c-6.9-1.8-7.9-7.8-9.8-13.3c-1.4-4-1.4-9.7-8.3-8.2c-3.5,1.8-6.3,4.7-9.5,6.9c-3.3,2.2-6.6,4.3-9.6,7c-1.7,1.6-3.4,3.2-5.1,4.9
		c-3.4,3.3-5.6,7.6-9.4,10.5c-2.8,1.1-6,1.3-8.7,3.1c-1.2,1-2.4,1.9-3.6,2.9c-4.2,3.7-8.4,7.4-12.8,10.9c-4.5,3.7-8.5,7.9-12.9,11.7
		c-1.2,1.2-2.6,2.3-3.9,3.4c-7,8.2-3.2,16.8-0.9,25.3c1.8,6.7,6.2,12.7,5.7,20c-0.7,2.9-2.5,4.8-5.4,5.5
		c-16.1-3.4-11.7-22.6-22.9-29.7c-3.2,0.3-5.6,2-8,3.9c-3.8,3.3-7.2,7-10.7,10.6c-2.9,3-5.7,6.2-7.5,10.1c-5.6,17.8,4.9,33,7.7,49.5
		c-0.5,2.9-1.9,5-4.9,5.8c-17.9-5.1-14-25.2-24.3-35.4c-4.3,2.1-6.8,6.1-10.1,9.1c-3,3-5.9,6-8.4,9.5c-5.3,18.4,2.6,41.8,17.3,51.2
		c12.9,8.3,23.8,5.1,35.3-4.1c40-32,78.5-65.7,117.6-98.7c27.8-23.4,57.3-44.5,85.8-67c9.6-7.6,13.5-13.3,1.1-21.8
		c-6.8-4.6-13.7-10.2-14.4-19.7c0.8-3,2.2-5.2,5.9-4C604.9,350,621.6,367.3,644.6,375.3z"/>
	<path class="st29" d="M274.3,461.6c40.7-44.2,89-80,133-120.6c45.7-34,90.4-69.4,138.4-100.3c5.4-3.5,10.8-6.9,17.3-9.1
		c-10.2,18.8-27.8,29.9-44.1,42.3c-66,50.3-132.3,100.3-191.6,158.6c-20.3,20-41.4,40.3-52.5,66.9c-11,26.4-4.6,53.6,3.3,80
		c2,6.7,7.1,16.4,0.6,19.5c-8.1,3.9-12.7-6.7-16.6-12.7c-23.9-36.7-21.8-78.8,4.9-113.3C269.7,469.4,271.8,465.4,274.3,461.6z"/>
	<path class="st30" d="M627.1,352.6c-25-11-44.8-27.1-52.2-55.1C587.4,320.5,614.5,329.5,627.1,352.6z"/>
	<path class="st31" d="M586,335.9c-1.4,1.4-2.8,2.8-4.1,4.2c-12.5-0.9-17.4-7.5-14.9-19.8c1.2-2.7,2.3-5.4,3.5-8
		C575.6,320.1,580.8,328,586,335.9z"/>
	<path class="st32" d="M335.4,890.4c-5.5,6.7-13,10.5-20.4,14.3c-31.7,16.3-40,11.7-45.5-23.8c-5.6-36.6-0.7-73.7-5.2-110.3
		c0.6-0.5,1.2-1,1.8-1.5c10.3,2.9,8.3,11.8,8.4,18.9c0.5,32.3-0.7,64.7,3.8,94.2c0,0.3-0.8-2.2,0.2-4.7c0.9-1.8,2.2-3.1,4-4.1
		c4-0.7,7.7,0.7,11.4,1.9c10.9,6.5,24-3.4,34.8,4.3c0.5,1.8,0.4,3.6-0.6,5.2c-1.5,2.3-4.3,3.3-5.7,5.8c2.6-1.8,5.2-2.6,8.2-0.8
		C332.1,890.1,333.8,890.2,335.4,890.4z"/>
	<path class="st33" d="M281.2,875c1.1,8.1,2.3,16.2,3.9,27.9c-14.9-20.1-13.7-40.6-14.9-60.2c-1.5-24.5,2.1-49.3-4.1-73.5
		c0.2-17.1-9-30.4-20.2-46.2c11,4.4,16.4,3.1,20.4-7.5c3.2-8.6,9.7-18.2,21.2-20.4c3,11.7-9.8,16.2-11.7,25.5
		c2.1,6.4,8.2,1.8,11.8,4.2c1.6,0.9,2.5,2.2,2.6,4c-1.6,7.2-7.6,8.6-13.4,10.3c-3.9,1.3-4.3,4.1-3.3,7.6
		C285.1,788.9,284,831.9,281.2,875z"/>
	<path class="st34" d="M308.8,774.1c12.1-1.8,25.5-22,35.8,2.4c2.6,15.9-8,25.9-17.5,35.5c-7.5,7.6-16.6,13.9-26.4,18.6
		c-7.4,2-14,0.5-19.6-4.9c-3.8-8,1.4-15,2.8-22.4C288.9,790.8,293.9,778.2,308.8,774.1z"/>
	<path class="st35" d="M328,882.7c-11.4-5.9-24.4,6.2-35.4-3.3c23.5-9.8,42.6-25.4,58.8-44.7c2-2.4,4.6-4.6,8.2-2.4
		c-1.5,6.9-2.9,13.9-4.4,20.8C352.7,869,342.5,877.8,328,882.7z"/>
	<path class="st36" d="M327.6,719.5c8.6,19.8,5,29.5-19,50.2c-8.8,4.8-17.4,10.4-28.1,5.3c-6.4-4.9-4.8-11.4-3.5-17.8
		c0.8-3.8,2.3-7,6.5-8.1c1.7,0.5,3.1,1.5,4.1,3c0.8,1.5,1.4,3,2,4.6c17.9-1.3,23-16.9,31.9-28.3C323,725,324.6,721.8,327.6,719.5z"
		/>
	<path class="st37" d="M359.7,832.3c-19.1,20.4-34.6,45.8-67.1,47.1c-2.7-0.9-6.6,0.1-6.9-4.4c0.5-3,2.2-4.9,5-6
		c26.2-5.7,46.8-18.4,55.7-45.2c-6.4-0.6-12.6,6.1-18.9,0.4c-0.3-3.2,1.2-5,4.2-5.8c7.7-4,15.1-11.2,24.6-5.2
		C363.8,817.9,360.7,825.5,359.7,832.3z"/>
	<path class="st38" d="M331.6,818.3c-1.1,2.6-2.3,5.2-3.4,7.9c-0.1,4.2-2.5,6.5-6.1,8c-1.7,0.5-3.5,0.6-5.2,0.6
		c-5.3-2.4-14.3,4.3-16.1-6.6c15.6-16.4,39.3-25.9,43.8-51.7c1-1.1,2.1-2.1,3.1-3.2c3.9-2.3,5.3,0.8,7,3.2c0.2,2.9,0.5,5.8,0.7,8.7
		l0.2-0.2C340,790.6,341.1,808.3,331.6,818.3z"/>
	<path class="st39" d="M354.7,776.6c-2.3-1.1-4.7-2.2-7-3.2c-9.6-34.8-6.9-73.6-30.9-103.1c10.3,0.1,15.1,3.9,20,20.9
		C344.9,719.2,350.8,747.7,354.7,776.6z"/>
	<path class="st40" d="M327.6,719.5c0.6,4.1,1.2,8.2-2.6,11.2c-3-0.4-5.4-2.5-8.4-3c-4-0.6-7.7,0.3-11.4,1.9
		c-8.3,2.4-11.2,12.4-20,14.1c-5.2-1.1-10.9-1.4-12.3-8.1c6.3-1.4,13.9-0.6,15.5-9.6c10-12.3,16.9-27,28-38.5
		c4.8,3.9,5.4,10.1,3.2,14.2C314.1,712.1,322.1,715,327.6,719.5z"/>
	<path class="st41" d="M328,882.7c11-8.1,20.7-17.4,27.3-29.6c5.5-6,11-12.1,16.5-18.1c1.2,1.1,2.5,2.2,3.7,3.4
		c-11.4,20.1-28.9,35.2-45,51.6c-6.7,2.2-11.6,9.8-21.6,7C316,891.6,322,887.1,328,882.7z"/>
	<path class="st42" d="M281.2,772.8c10,7.1,17.6-8.1,27.4-3c0.1,1.5,0.1,2.9,0.2,4.4c-7.7,9.3-17.1,17.3-20.6,29.5
		C274.4,796,277.4,784.4,281.2,772.8z"/>
	<path class="st43" d="M287.4,670.2c-4.4,20.3-17.4,29.3-31.1,38C260.9,692.8,270.6,681.2,287.4,670.2z"/>
	<path class="st44" d="M316.4,687.5c-6,15.3-10.6,31.6-28,38.5c0,0-0.3-0.5-0.3-0.5c-3.4-8.2,3.9-12.3,6.7-18.3
		c2.3-5,10.8-8.5,4.3-15.8c-2.2-0.7-4.4-1.2-6.1-2.9C300.3,674.4,305.3,674.2,316.4,687.5z"/>
	<path class="st45" d="M293,688.6c3.2-1.3,6.3-2.6,9.5-4c0.7,21.8-14,39.1-32.5,37.9c1.5-12,13.7-17.1,17.5-27.5
		C290.6,693.9,292.5,691.9,293,688.6z"/>
	<path class="st46" d="M355.4,785.3c6.4,7.1,7.9,16.2,10.4,24.9c-6.8-7-15-13.5-10.1-25.1C355.7,785.1,355.4,785.3,355.4,785.3z"/>
	<path class="st47" d="M464.9,789.2c8.4-2,17-5.9,23.5,3.8c-12,2.4-24,4.8-36.7,7.4C453.1,791.2,462.3,794.5,464.9,789.2z"/>
	<path class="st48" d="M406,793.2c31.9,9.9,32.5,11.8,12.3,39C421.5,816.9,410.5,806.1,406,793.2z"/>
	<path class="st49" d="M138.4,673.4c34.9-23.2,65.5-45.2,91.7-72.6c1.8-1.9,7.2-3.4,8.6-2.2c9.1,7.3,16.4,16.5,21.1,27
		c3.8,8.7-5.5,12-10,16.9C220.5,674.6,183.6,680.4,138.4,673.4z"/>
	<path class="st50" d="M114.2,636c-2.7-12,6.7-15.7,14.4-20.1c18.5-10.6,37.8-20.1,52.2-36.5c13.5-11.7,27.1-23.4,41-35.5
		c5.7,7.9,6.2,14.6,0.1,21.7c-23.7,27.7-50.1,52.6-78.4,75.6C132.3,650.4,121.4,652.1,114.2,636z"/>
	<path class="st51" d="M716.5,276.5c-8.9,20.8-11,20.8-32,0.6c-10-15.4-14.5-32-11.8-50.4c8.9,0.8,6.8,9.2,9.6,14.1
		c0.6,1.6,1,3.3,1.3,5c1,9.5,5.7,17.2,12.3,23.8c2.7,2.7,5,5.9,9,7C708.7,277.2,712.6,273.6,716.5,276.5z"/>
	<path class="st52" d="M716.5,276.5c-5.2,0.1-7.1,10.2-14.1,4.6c1.7-10.2-0.2-19.6-4.9-29c-4.5-9-7.9-18.7-5.1-29.2
		c1.4-4.5,2.7-9.2,7-12.1c6.3,16.1,0.9,35.6,14.8,49.4C715.8,265.5,721.7,270.2,716.5,276.5z"/>
	<path class="st53" d="M679.2,242.3c-6-3.6-1-11.8-6.5-15.5c2.6-13,11.9-19.9,23-25.2c3.3,11.9-11.4,16.8-10.7,27.7
		C684.1,234.1,683.8,239.2,679.2,242.3z"/>
	<path class="st54" d="M680.3,228.6c-1.9-13,12.2-16.9,15.3-27.1c6.5,1,2.9,6,3.6,9.2c-0.3,4.2,0.6,8.7-3.3,11.8
		C688.6,218.9,687,230.4,680.3,228.6z"/>
	<path class="st55" d="M750.8,206.4c-2.2-23.3-3.4-46.6-0.4-70c0.2-3.1,0.5-5.8,2.8-8.7c5.4-6.9,8.4-17,19.4-16.2
		c10.5,0.7,10.6,11.5,15.1,18c10,34.8,7.2,69.2-2.8,103.4c-2.7,9.2-5.5,19.5-19.1,17.3c-3.7-9.1-11.5-17.2-7.2-28.4
		c4.1,0,6,3.1,8.2,5.7c5.2,4.4,6.9-0.3,7.7-3.7c5.9-25.8,11.7-51.7,4.6-78.3c-1.4-5.4-1.4-13.4-8-14.1c-7.8-0.8-6.9,7.7-8.7,12.8
		c-0.9,2.4-1,5.1-1.7,7.6c-2.1,12.6-1.2,25.2-0.2,37.9c0.4,6.1,2.8,12.7-3.8,17.3C754.7,206.8,752.7,206.6,750.8,206.4z"/>
	<path class="st56" d="M756.7,207c-0.5-19.6-6-39.2,0-58.9c1.2-0.4,2.9-1.2,3.6-0.7c17.4,12.3,21.8,65.7,6.9,81.4
		c-1.7,1.8-3.5,0.6-5.3,0.4c-1.1-2.5-2.2-4.9-3.3-7.4C757.9,216.9,757.3,212,756.7,207z"/>
	<path class="st57" d="M567,320.3c2,8.8,7.1,15.3,14.9,19.8c4.9,5.1,9.4,10.7,14.8,15.2c18.2,15.2,18.7,15.5,0.2,29
		c-70.8,51.6-135.3,110.9-203.4,165.9c-18.5,15-30.4,15.6-45,3.3c-15.7-13.4-22.8-41.6-14.2-56.8c3.3,0.6,4.5,3.1,5.5,5.8
		c1.5,5.6,1.9,11.6,4.4,16.8c2.8,5.8,2.6,16.7,12.6,13.4c9.4-3.1,5.4-11.5,2.6-18.1c-2.5-6-4.1-12.2-5.9-18.4
		c-2.2-7.2-1.6-14,1.3-20.7c2.8-3.3,6.4-12,7.9,0.3c1.9,14.9,6.7,28.2,16.4,39.7c5,1.7,8.9,5.1,10.6,6.7c-2.1-1.5-5.1-5.6-6.7-10.7
		c-7.8-18.4-20.8-36.1-7.4-57.2c6.3,7.2,6.1,16.6,8.4,25.2c1.9,7.2,1.8,16.4,11,18.7c6.2,1.6,10.7-3.6,14.6-7.9
		c6.1-6.9,1.4-13.2-1.7-19.5c-2.6-5.2-5.4-10.3-7.4-15.7c-2.8-7.5-3.5-15,0.6-22.3c3-2.9,5.6-11.9,9.3-0.6
		c3.8,11.5,6.6,23.4,15.3,32.6c7.4,4.9,14.6,10.2,22,14.1c-6.3-5.1-16.9-7.2-17.7-18.4c-6.5-15.7-21.3-30.7-4.9-48.7
		c8.5,7.7,4.6,19.9,10.2,28.7c4.5,7.1,6.4,19.4,19,13.4c11.3-5.4,10.5-13.6,4.3-24.1c-7.9-13.5-14.4-28.3-2.3-43.5
		c0-1.1,0.3-2.2,0.8-3.2c8.3-0.9,7.4,5.6,7.4,10.2c-0.2,15.4,6.7,26.9,16.5,35c-11.6-11.8-21.7-25.8-12.8-45.7
		c1.7-4.4,2.4-9.4,7.6-11.4c5.3,3.8,3.8,9.1,3,14.1c-1.4,8.8,1.3,16.7,5.2,24.2c4.1,7.8,9.4,15.1,19.5,8.2
		c8.2-5.6,19.4-10.3,9.9-23.9c-8.9-13-14.8-27.1-12-43.5c3.6,0.4,8.1-16.5,10.9,0.9c1.3,8.1,5,15.8,7.6,23.6c4.9,2.8,7,7.9,7.9,9.5
		c-1.9-2.1-2.7-8.2-4-14.1c-2.5-10.8-7.7-21.5-0.6-32.5c8.7,7,8,18.7,13.4,27.2c5,7.9,9.6,18.1,22.2,11.7
		c13.3-6.8,16.5-17.3,9.1-29.7c-7.2-12.1-16.1-23.6-12.8-39.1C557.6,307.6,563.1,313.5,567,320.3z"/>
	<path class="st3" d="M555.3,264.6c6.6,21.2,0.8,33.1-14.1,44.6c-62.6,48.5-126.6,95.4-183.2,151.3c-7.4,7.3-15.2,14.4-21.7,22.5
		c-10.5,13.2-22.3,16.8-37.8,7.3C369.1,398.7,469.7,342,555.3,264.6z"/>
	<path class="st3" d="M371,597.7c2.9-13.5,4.8-25.1,14.4-32.6c74.6-58.5,143.2-124.4,221-178.9c3.7-2.6,7.6-5.1,11.2-7.7
		c6.7-4.9,13.4-2.6,17.2,2.8c4.1,5.9-3.2,9-6.8,11.9c-51.2,42-102.5,83.8-154,125.4c-31.3,25.3-62.9,50.2-94.4,75.2
		C377.8,595.2,375.4,595.8,371,597.7z"/>
	<path class="st58" d="M354.9,604.8c-19,1.7-31.7-9.2-42.2-22.6c-15-19.1-18.4-42.1-19.7-65.5c-0.4-6.6-0.6-13.8,9.5-12.5
		c6.9,0.9,16.9-3.3,17.3,9.4c0.5,15.7,9.9,27.7,16.5,40.8C345.3,570.2,361.1,583.4,354.9,604.8z"/>
	<path class="st59" d="M555.3,307.8c5.8,16.3,10.9,33,23.7,45.7c4.8,4.8,3.2,9.1-1.4,13.1c-5.8,5.1-11.7,10.2-17.1,15.7
		c-6.7,6.9-12,4.3-18.1-1.1c-13.1-11.6-14.9-28-19.1-43.5c-0.8-6,3.4-8.2,7.8-10.1c7.3,2.6,7.4,9.8,10,15.4c1.8,4,3.6,9.5,9.4,6.5
		c4.4-2.2,2.3-6.7,0.8-10.2c-4.2-9-6.9-18-0.7-27.3C552.2,310.7,553.7,309.3,555.3,307.8z"/>
	<path class="st60" d="M501.5,350.3c6.4,16.6,7.8,35.4,21.1,49.1c1.2,1.3,2.8,4.1,2.2,5c-6,10.4-16,17.3-25.7,22.8
		c-8.7,4.9-13-5.8-17-11.5c-9.6-13.5-9.7-28.8-6.1-44.4c1.5-1.5,3.1-3,4.6-4.4c10.2,6.4,6.2,19.1,13.7,27.4
		c-0.4-11.9-4.7-23.7-2.7-35.6C494.8,355.8,498.2,353.1,501.5,350.3z"/>
	<path class="st61" d="M456.5,386.3c-4.6,17.4-1.7,33.5,10.4,46.9c14.6,16.2-4.8,18.8-10.3,26.3c-7.6,10.2-13.1,1.7-17.9-4.2
		c-10.4-12.7-13.4-27.7-13.5-43.6c1.4-0.9,2.8-1.7,4.2-2.6c6.7,4.7,6.4,13.6,13.9,21.8c-1-12.6-4.2-22.7-1.6-32.7
		C446.3,393.9,448.2,386.2,456.5,386.3z"/>
	<path class="st62" d="M401.1,432.9c1.2,15.7,6.3,30,15.1,43.1c13.5,20.2-9.4,21.5-16.9,28.5c-10.2,9.5-13.5-4.1-16.3-10.6
		c-5.4-12.4-6.1-26.1-7.3-39.6c2.3-1.9,4.5-3.9,6.8-5.8c7.4,4.8,2.6,15,10.5,21.6c3.6-11.3-1.6-22.4,2.2-32.5
		C395.8,434.4,398.4,433.6,401.1,432.9z"/>
	<path class="st63" d="M354.8,475.5c1.4,15,4,29.8,12.2,42.6c8.6,13.4-2.7,17.7-10.1,22.1c-10.5,6.3-10.9-5.3-13.7-10.5
		c-4.3-7.9-7.8-16.4-7-25.8c4.8-1.9,6.6,3.3,10.5,4.4c2.7-7.4-3.5-13.5-3.2-20.4C347.2,483.7,351,479.6,354.8,475.5z"/>
	<path class="st64" d="M550.6,312.1c-0.4,10.6,0.6,20.8,7.8,29.4c5.4,6.3,2.3,10.3-3.6,13.9c-6.8,4.2-12.4,4.1-15.6-4
		c-3.1-7.8-5.4-15.8-8-23.8C536.6,321.1,542.8,315.6,550.6,312.1z"/>
	<path class="st9" d="M354.9,604.8c-1.3-18.6-15.7-32.4-18.5-50.4c4.4,2.7,9.6,4.6,13.1,8.2c5.8,6.1,21,0.8,19.6,11.7
		C367.6,584.8,364.8,597.1,354.9,604.8z"/>
	<path class="st64" d="M491.5,358.6c8.3,9.8,3.1,23.8,10.9,34.1c3,4-2.1,9-6.1,10.5c-6.6,2.5-9.5-3.5-10.7-8.1
		c-2.4-9.2-3.4-18.9-5-28.3C482.7,362,487.3,360.6,491.5,358.6z"/>
	<path class="st65" d="M395.1,437.7c6.7,9,1.7,20.2,5.6,30c2.1,5.3-3.6,9.9-8.7,11c-6,1.3-7.4-4.9-8.1-8.9
		c-1.3-6.9-1.1-14.2-1.5-21.3C385.4,443.5,390.1,440.3,395.1,437.7z"/>
	<path class="st66" d="M441.6,398.2c4.2,3.3,4.4,8.1,3.6,12.5c-1.7,9.5,12,24.4-1.6,26.8c-9.1,1.6-13-16.6-14.2-28.3
		C432,403.9,436.5,400.7,441.6,398.2z"/>
	<path class="st67" d="M468.3,382.6c-0.2,10.8-2.1,22,5.3,31.6c6.3,8.1,12.8,16.2,21.6,27.3c-27.9-13.2-33.5-35.5-38-58.4
		C460.6,376.4,464.5,381.8,468.3,382.6z"/>
	<path class="st65" d="M343.4,487.8c2.3,2.2,6.7,4.5,6.6,6.5c-0.4,7.7,10.6,17.5-0.1,22.5c-8.8,4.1-7.2-10.4-13.8-13
		c-0.6-2.4-1.2-4.8-1.8-7.2C337.4,493.7,340.4,490.8,343.4,487.8z"/>
	<path class="st68" d="M430.1,460.5c8,9.1,17.5,16.2,32.9,24c-18.8-2.1-29.5-8.2-37.1-19.7C427.2,463.4,428.6,461.9,430.1,460.5z"/>
	<path class="st69" d="M524,370.2c6,8.8,12.1,17.7,19.6,28.7c-13.7-4.5-19.6-13.3-23.5-24C521.4,373.3,522.7,371.7,524,370.2z"/>
	<path class="st68" d="M383,511.5c7,6.1,14,12.3,22.6,19.9c-13.5-0.6-21.2-6.3-26.6-15.8C380.4,514.2,381.7,512.8,383,511.5z"/>
	<path class="st35" d="M281.2,772.8c1.1,10.6-3,22.3,7,30.9c-2.3,6.2-4.6,12.3-6.9,18.5c9.6,13.3,2.4,30.2,9.3,44.1
		c0.5,2.3,0,4.3-1.6,6.1c-1.1,0.9-2.2,1.8-3.4,2.7c-1.5,0-3,0-4.5,0c-7.3-14.6-3.6-30.4-3.6-45.5c0-31.1-2.2-61.7-11.4-91.5
		c12.6,0.5,11.6,11.3,14.5,19.2C279.1,762.4,277,767.7,281.2,772.8z"/>
	<path class="st70" d="M270,722.6c21.3-3.7,26.8-20.8,32.4-37.9c6.8,6.3,7.5,6.6,3.7,13.3c-5.4,9.5-11.9,18.4-18,27.6
		C281.9,725.2,273.6,738.6,270,722.6z"/>
	<path class="st71" d="M280.6,757.2c-7-4.8-6.2-15.4-14.5-19.2c1.1-4.1,4.2-2.5,6.8-2.4c3.3,4,10.3,1.2,12.6,6.9
		c1.8,2.4,1.4,4.4-0.9,6.2C283.3,751.5,282,754.3,280.6,757.2z"/>
	<path class="st72" d="M289.1,867.1c-10.8-1.6-7.6-10-7.8-16.4c-0.3-9.5,0-19.1,0-28.6c6.1,3.2,11.6,8.5,19.5,6.1
		c3.6,7.8,11.6-4.1,15.3,3.4c-1.4,10-12.2,14.1-14.8,23.4c-0.6,1.6-1.4,3.1-2.2,4.6C296.6,863.3,293.7,866.4,289.1,867.1z"/>
	<path class="st73" d="M292.5,811.3c4.5-22.8,18.4-36,41.1-40.3C331.8,791,311.1,811.2,292.5,811.3z"/>
	<path class="st74" d="M292.5,811.3c19.7-7.3,33.1-21.1,41.1-40.3c5.9,1.8,5.7,5.1,3.5,10.2c-8,17.9-23.1,28.8-39,38
		C289,824.4,288,818.6,292.5,811.3z"/>
	<path class="st75" d="M303.7,726.4c5.4-1.8,10.7-4.6,16.8-3.1c-1.2,19.1-16,34.2-34.6,35.4c-0.2-1.5-0.4-2.9-0.5-4.4
		C288.8,743.2,294.1,733.4,303.7,726.4z"/>
	<path class="st76" d="M285.8,758.7c17.2-6.3,29.3-17.6,34.6-35.4c4.7,0.5,4.1,4.4,4.6,7.5c-6.2,15.6-19.1,25-31.9,34.2
		C283.5,772,284.6,765.1,285.8,758.7z"/>
	<path class="st77" d="M303.7,726.4c-6.1,9.3-12.3,18.6-18.4,27.9c-0.2-1.9-0.4-3.7-0.7-5.6c0.3-2.1,0.6-4.1,0.9-6.2
		C291.2,736.7,293.4,726.9,303.7,726.4z"/>
	<path class="st78" d="M295.3,861.5c0.5-1.3,1.1-2.5,1.6-3.8c5.1-11.7,14-19.6,24.8-25.7c3.4-0.5,5.5-2.6,6.5-5.8
		c7.7-2.4,13-10.6,22.3-9c-5.1,24.6-23.4,37.3-43.6,48.1C302.5,867.7,298.1,866.1,295.3,861.5z"/>
	<path class="st79" d="M295.3,861.5c15.7,5.4,23.4-7.2,32.7-15.3c9.3-8.1,16.4-18.3,22.5-29c3.9,1.3,4.4,4.3,3.3,7.7
		c-6.7,22.5-41,47.5-64.9,47.4c0-1.7,0-3.4,0.1-5.1C291.1,865.3,293.2,863.4,295.3,861.5z"/>
	<path class="st80" d="M321.8,832c-8.3,8.6-16.6,17.2-24.8,25.7c-0.1-13.4,12.3-17.7,19.1-26C318,831.8,319.9,831.9,321.8,832z"/>
	<path class="st81" d="M680.3,228.6c6,0.1,5.8-16.2,15.7-6c-0.9,13.4,2.5,26,9.8,37c6,9,4.1,15.4-3.5,21.5c-2.9-2.3-5.8-4.6-8.7-6.9
		c3.8-13.3-3.4-21.4-13.3-28.3c-0.4-1.2-0.8-2.5-1.2-3.7C679.6,237.7,679.9,233.2,680.3,228.6z"/>
	<path class="st82" d="M680.4,246c1.3-1.4,2.8-4.1,3.9-4c11,1.5,8.3,13.4,14.2,19.2c5.4,5.4,1.8,10.5-4.8,13
		C685.1,266.8,680.2,257.6,680.4,246z"/>
	<path class="st83" d="M761.8,229.2c12.6-18,9.6-65.6-5.2-81.1c0-1.3-0.1-2.6,0.1-3.9c1.1-10,4.4-21.8,14.6-22
		c10.9-0.2,10.6,13.4,12.3,21.5c6.3,28.9,2.5,57.4-5.9,85.5c-1.2,4-0.7,10.6-6.4,10.4C766.1,239.5,762.2,235.2,761.8,229.2z"/>
</g>
</svg>
