<?xml version="1.0" encoding="utf-8"?>
<!-- Generator: Adobe Illustrator 23.0.1, SVG Export Plug-In . SVG Version: 6.00 Build 0)  -->
<svg version="1.1" id="Layer_4" xmlns="http://www.w3.org/2000/svg" xmlns:xlink="http://www.w3.org/1999/xlink" x="0px" y="0px"
	 viewBox="0 0 1000 1000" style="enable-background:new 0 0 1000 1000;" xml:space="preserve">
<style type="text/css">
	.st0{fill:#90AFC3;}
	.st1{fill:#7D4800;}
	.st2{fill:#422100;}
	.st3{fill:#B4F5F5;}
	.st4{fill:#2B5260;}
	.st5{fill:#91B0C4;}
	.st6{fill:#BE7022;}
	.st7{fill:#2C5463;}
	.st8{fill:#90AEC3;}
	.st9{fill:#2B5361;}
	.st10{fill:#2D5665;}
	.st11{fill:#B7F8F9;}
	.st12{fill:#B3F0F3;}
	.st13{fill:#91AFC3;}
	.st14{fill:#2C5361;}
	.st15{fill:#B6F7F7;}
	.st16{fill:none;}
	.st17{fill:#FEFEFE;}
	.st18{fill:#2A515F;}
	.st19{fill:#9FC4D8;}
	.st20{fill:#25171A;}
	.st21{fill:#89AABC;}
	.st22{fill:#264955;}
	.st23{fill:#96C1D4;}
	.st24{fill:#B4F7F6;}
	.st25{fill:#050607;}
	.st26{fill:#060A0C;}
	.st27{fill:#101316;}
	.st28{fill:#23282F;}
	.st29{fill:#030200;}
	.st30{fill:#BC6F22;}
	.st31{fill:#070400;}
	.st32{fill:#090500;}
	.st33{fill:#060300;}
	.st34{fill:#0B0600;}
	.st35{fill:#0C0600;}
	.st36{fill:#BE7023;}
	.st37{fill:#090E11;}
	.st38{fill:#0D1012;}
	.st39{fill:#ED0707;}
	.st40{fill:#231618;}
	.st41{fill:#FCDCDC;}
	.st42{fill:#322700;}
	.st43{fill:#070500;}
</style>
<g>
	<path d="M983.1,254.5c-18.9-50.2-41.9-96.6-86.8-130.4c-55.7-42-98.2-45.9-154.5-6.7c-28.3,19.8-55.2,43.3-60,79.2
		c-2.8,21.4-10.2,35.5-27.8,45.9c-1.1,0.6-1.9,1.8-2.8,2.7c-25.3,22.7-50.4,45.8-76.2,68c-9.4,8.1-21.3,20.8-30.8,19.9
		c-17-1.7-31.9,0.7-47.6,7.2c1.7-8.7,8.9-8.7,13.4-11.7c14.2-9.3,26.8-20,32.6-36.2c11.9-33.3-14.2-80.6-48.8-93.5
		c-16.9-6.3-29.7-1.5-42,7.9c-14.9,11.4-28.9,26.7-31.6,44.2c-3.6,23.5-21.2,32.9-35.5,44.6c-37.8,31.2-73.9,63.8-104.6,102.1
		c-13.1,16.4-12.3,42.7,0.6,57.3c11.4,12.8,30.5,13.9,50.6,2.2c9.2-5.4,17.7-12,26.5-18c1.2,27.4-10.3,45.4-33.8,53.2
		c-4.7,1.6-9.8,2.6-14.1,5c-80.1,45.1-157,95.3-231.6,149c-15.1,10.9-29.9,22.3-39.7,38.5c-15.8,26.3-4.8,51.3,5.3,75.7
		c16,38.8,43.4,68.7,76.9,93.1c40.8,29.7,82.9,55.5,136.5,53.2c17.4-0.8,28.6-7.4,36.5-22.5c4.7-9,7-18.8,10.8-27.9
		c9.8-23.2,11.1-50.1,30.2-71.8c0.4,4.7,0.3,7.1,0.9,9.4c12.1,51.9,19.7,69.1,73.9,65.1c26.8-2,49.1-17.8,65-39.3
		c7.4-10,15-11.2,25.4-11c37.4,0.6,70.6-10.8,99.4-35.1c26.4-22.1,30.6-53,32.6-84c1-14.8,2.3-22.8,20.3-21.9
		c15.6,0.8,31.2-4.7,43.9-14.6c40.1-31.3,79.3-63.6,113.3-101.6c23.1-25.8,43.2-53.6,50.1-89.3c4.3-22.1,8.1-43.8,7.5-66.3
		c-0.2-5.1-1.7-9.9,5.9-14.1c26.6-14.4,51.2-32.2,75-50.8C969.6,314,990.2,273,983.1,254.5z M531.3,724.7c3.3-3,6.2-7.2,8.5-12
		c9.4-19.9,11.2-41,11.9-68.1C558.8,686,554.4,708.6,531.3,724.7z M488.3,660.3c11.1,0.9,11.9,6.9,11.8,13.9
		c-0.2,10.4-0.2,20.8,0,31.2c0.3,11,5,22.2,15.1,24.2c3.4,0.7,6.6,0.4,9.5-0.7c-8.9,5-19.9,9.4-33.3,13.7
		C495.3,713.8,488.6,687.3,488.3,660.3z"/>
	<path class="st0" d="M667.5,390.3c-19.4,16.9-38.9,33.8-58.3,50.7c-55.1,48.2-109.8,96.9-165.9,144c-23.2,19.5-50.5,21.7-72.9,5.5
		c-27.6-32.6-28.2-73,1.8-100.9c46.5-43.2,98.9-78.8,151.4-114.4c10.6,11.6-1.4,15.9-7.5,20.4c-23.7,17.2-47.2,34.6-71.6,50.8
		c-28.8,19.2-55.6,40.6-76.7,68.6c-8.4,11.1-9.2,22.7-3.8,34.9c5.2,11.9,13.9,12.8,23.7,5.7c14.7-10.6,25.9-23.5,25.2-43.2
		c3.3-2.7,5.8-1.2,8.1,1.5c-0.8-2.4-3.1-3.5-4.5-5.5c-3.6-5.3-7.8-10.7-1.7-17c7.7,0.4,15.6,5.8,21.7-5.3
		c27.9-50.5,76.7-75.6,125.5-100.3c4.6-2.3,9.5-4.3,14.5-5.7c19.3-5.6,37.4-11.9,28.5-38.5c-0.6-1.7,0.1-3.9,0.5-5.8
		c1.4-6.7,4.2-13.8,12-12.7c8.7,1.2,8,8.6,5.9,15.3c-7.8,2.8-6.2,11.5,4.2,22.1c0.3,0.3,1.3,0.3,1.8,0c0.5-0.3,0.7-1,1-1.7
		c3.6-26.7,13.7-49.6,34.9-67.3c20.7-17.3,20.4-17.7,10.1-41.7c5.8-11.2,12.2-6.8,19.2,1.5c-3.1-19.6-1.8-36.5,4.3-52.9
		c7.1,5.7,5.4,13.8,6,21.3c-1.3,22.4,3.4,43.6,13.7,64.2c9.6-24.9,18.6-49.4,37.5-68.5c8.1-8.2,9.1-17.9,7.2-28.8
		c-3.1-17.9-4.7-35.9,1.3-53.7c1.3-4.1,5.1-7.2,5.1-11.9c2.6-4.5,6.1-7.7,11.5-8.3c9.4,1.7,10.7,7.1,6.8,14.9
		c-20.2,48.3-4.7,94.6,43.1,130c10.9,8.1,23.4,13.8,33.5,23c3.4,9-3.5,13-8.8,17.2c-19.1,15.2-38.7,29.9-57.9,45
		c-15.3,12-30.6,15.6-47.9,5.2c-24.5-14.3-36.8-38-47.7-61.9c3.8,12.8,12.5,24.3,16.6,37.8c5.3,13.9,1.1,24.5-9.5,34.7
		C696.3,370.7,681.4,379.7,667.5,390.3z"/>
	<path class="st1" d="M367.2,828.1c-9.5-9.9-12.7-22.8-14.5-35.5c-3.3-22.8-12.9-41.9-28.4-58.4c-2.4-1-5.2-1.2-7.2-3
		c-12.9-11.5-19.6-4.5-23.8,8.2c-11.4,33.9-23.3,67.6-35.1,101.3c-7.6,21.8-21.5,35-44.9,37.5c-10.8,1.2-19.5-6-29.8-7
		c-34.6-15.8-65.4-36.8-89.7-66.6c-0.1-10.8-8.2-18.3-11.6-27.7c-3.3-9-7.4-17.8-1-27c10.5-0.9,11.8,8.5,15.5,14.7
		c20.5,34.3,50.8,57.1,86.6,72.9c19.4,8.6,28,4.7,38.1-13.9c5.7-10.4,10.3-21.5,10.9-33.1c2.6-50.6,19.5-96.4,44.3-139.8
		c9.7-16.9,13.8-34.6,8.3-54.3c-5.8-20.9-12.4-24.1-31.9-13.8c-15.9,8.4-28.7,22.5-47.7,25c-7.1-11.3,3.5-15.9,9.3-20.6
		c16.4-13.4,33.2-26.3,51-37.9c5.8-3.8,12.7-6.6,15.4-13.9c17.7-14.4,38.2-23.1,65.2-35.3c-14.9,34.2-10.5,62.4,1.7,90
		c7.4,17.1,21,29.3,33,42.9c3.8,4.4,11.7,9,0.9,14.4c-26.4-8.6-43.6-26.9-53.7-52c-7-17.5-11.6-35.7-11.7-54.7
		c0.1,56.6,29.5,100.4,73.5,109c34.8,6.1,37.2,9,37.6,45.8c-2,25.1,1.8,50.3-3.1,75.4c-4.4,22.5-14.1,41.3-31.3,56.4
		C384.7,833,376.1,834.1,367.2,828.1z"/>
	<path class="st2" d="M749.9,398.7c13.9-1,28.9,3.6,40.4-8.9c2.7-2.9,6.1-1.2,8.9,0.4c11.1,6.2,22.3,4.4,33.9,1.3
		c12.6-3.4,19.1,0.5,18.8,15.5c-0.9,45.2-16.2,84.8-44.6,119.5c-33,40.4-74.4,71.7-113.5,105.6c-29.5,25.5-61.8,22.5-95.4,14.6
		c-22.8-5.4-45.3-12.1-59.3-33.4c9.2-5.5,16.1,2,23.9,4.3c7.2,5.4,15,10.1,24.8,15.8c-7.2-4.7-12.8-7.4-17.8-11.2
		c-9.8-7.4-9.6-16.7-3.2-25.6c6.8-9.5,16.3-8.1,23.8-1.4c15.1,13.5,32.3,23.9,48.9,35.1c1.1,0.7,2.2,1.4,3.4,2
		c-0.7-2.1-3.3-2.8-3.4-5.3c1.3-6.1,7.3-8.7,10-13.7c-4.7-10.6-16.6-13.3-23.5-21.5c-5-5.9-11.1-11-13.8-18.5
		c-3.6-10,0.2-17.8,8-23.8c8.3-6.4,15.3-2.9,22.6,2.9c20.1,16.2,40.5,32,62.5,45.6c2.2,1.4,2.4-3.3,1.4-0.9
		c-0.3,0.7-0.9,0.8-1.7,0.1c-3.6-3.4-10-3.8-10.7-10.2c4.5-5.2,9.4-10.1,14.6-14.7c6-0.8,10.2,5,15.5,4
		c-18.4-4.1-34.8-13.4-49.4-26.2c-5.9-5.1-11.4-10.6-14.8-17.7c-5-10.4-1.4-19,6.1-26.2c8.3-8.1,17.2-5,24.4,1.3
		c19.9,17.7,43.2,28.8,66.9,37.2c-2.1,0.3-4.2-1.3-5.4-4.4c3.7-11.9,9.2-23.8-2.1-35c-2.4-2.4-0.9-6,2.3-8c16.4-4.3,33.8,2.6,49.5-4
		c3.1-0.9-0.4-3.5,0.9-1.2c0.2,0.4-0.3,0.8-1.5,1.1c-14.5,3.1-29.1,6.9-43-2.1c-4.3-8,2.4-11.5,6.6-16c26.4-28.2,24-46.9-8.7-68
		C753,405.1,749,403.7,749.9,398.7z"/>
	<path class="st1" d="M652.1,613.5c0.1,7.9-5,10.9-11.8,12.2c-15,3-22.3-10.1-33.1-15.8c-4.6-2.4-7.9-6.6-12-9.7
		c-7-5.3-13.2-14.6-23.3-8.4c-8.3,5.1-10.6,14.2-8.9,23.9c0.3,1.9,0.4,3.8-0.8,5.5c-7.7-2.6-15.4-5.2-23-7.9
		c-28.9-28.3-30.1-54.5-1.4-82.2c40.1-38.8,82.2-75.3,126.1-109.9c3.6,1.8,5.4,5,7.3,8.3c12.5,29.2,32.5,50.2,63.4,60.2
		c6,1.9,12.2,4.4,15,11c11.8,11.5,23.6,22.9,4.3,37.9c-22.5,4.6-36.2-12.1-52.8-21.7c-3.8-2.2-6.6-6.2-10.1-9
		c-9-7.1-17.8-10.4-26.9,0.2c-8.3,9.7-9.7,19.5-1.1,29.5c9.8,11.4,22.8,19,34.6,28c3.5,2.7,8.5,3.7,9.2,9.1
		c6,13.5-5.6,10.2-11.6,12.1c-8.5,4.1-13.7-2.7-18.5-7c-11-10-24-17.4-34.8-27.6c-6.9-6.5-14.3-9-22.1-1.6
		c-7.4,7.1-12,14.7-5.8,25.5c6.1,10.5,15.7,17,24.7,24.2C643.5,604.3,649.5,607.1,652.1,613.5z"/>
	<path class="st3" d="M675.1,249.7c13.3,9.9,18.6,26.3,9,32.3c-31.1,19.4-45.6,48.2-51.7,82.7c-10.8-4.6-16.6-11.7-11.9-24
		c0.5-5.4,3.9-13.5-4.2-14c-6.9-0.5-7.2,7.9-7.4,13.7c-0.1,3.9-0.9,8.6,0.8,11.6c11.9,20.5-3.4,22.5-17,27
		c-44.4,14.6-83.4,38.7-119.2,68.3c-13.7,11.3-26.5,24.1-32.4,40.8c-7.2,20.3-15.6,15.4-26.2,4c-10.3,6.3,4.6,13.4-0.7,19.8
		c5,20.1-17.2,52.6-37.1,54.7c-7.7,0.8-12.9-2.9-15.6-9.2c-5.8-13.2-10.4-26.9-1-40.6c18.3-26.5,42.4-47.2,68.5-65.6
		c28.6-20.2,57.5-40,86-60.2c5.1-3.6,14.8-5.5,8.7-15.7C576.4,336.1,627.5,295,675.1,249.7z"/>
	<path class="st4" d="M749.6,344.2c19.6,11.2,35.1,3.6,50.7-9.4c18.4-15.4,37.9-29.6,57-44.1c3.2-2.4,6.7-4.1,5.7-9
		c18.3-1.1,35.7,7.9,54.1,5.5c2.6-0.6-1-3.2,0.2-0.9c0.3,0.7-0.2,0.8-1.5,1.1c-10.5,1.7-20.3-3.2-30.7-3.1c-4,0-9.7-2.6-4.7-9
		c10.1-5.1,21.4-3.1,32-6c20.9-5.7,26.3-11.8,27.7-33.1c0.5-7.5-1-15.6,5.6-21.6c30.2,45.5,25.4,75.6-16.9,108.6
		c-21,16.4-43.6,30.5-66.4,44.2c-27.2,16.4-55.6,20-88.3,2.1c6.8,11.9,4.6,17.3-6.7,17.3c-8.7,0-17.2-1.8-24.4-5.9
		c-24-13.7-45.7-10.8-66.5,6.3c-2.2,1.8-5.8,2-8.8,3c11.8-10.7,23.1-22.1,35.5-32c11.6-9.2,18.4-19,11.5-34
		c8.9-3.3,11.6,5.1,16.8,8.8C737.2,337.2,740.2,345.9,749.6,344.2z"/>
	<path class="st2" d="M367.2,828.1c8.1,0.5,16.2,0.9,23.4-3.8c21.7-14.3,32.6-35.6,34.4-60.4c1.7-22.5,3.2-45.4-2.6-67.8
		c-0.2-4.4-1-8.9-0.5-13.3c2.1-17.7-5.8-26.2-23.3-26.4c-4.4,0-9,0.1-12.3-3.7c1.7-4.1-6.7-2.9-3.9-7.6c-1.1-12.2-13.1-16.3-19-25.1
		c-6.5-9.7-13.9-18.4-15.6-30.4c21,26.3,43.4,50,80.1,52.8c7.7,0.6,8.7,7.5,9.8,14.6c2.3,14.6,10,24.3,26.5,20.6
		c9.8-2.2,11.7,3.6,11.9,10.5c0.5,15.6,0.3,31.2,0.5,46.8c0.1,6.9-2.4,10.8-10.1,11.3c-13.7,0.8-24.2,7.5-27.5,20.8
		c-3.6,14.5,7,22.6,17.4,29.6c5,3.4,7.7,5.9,4.3,12.3c-8.1,15.5-50.5,42.4-76.1,33.6C377.2,839.9,370.6,835.9,367.2,828.1z"/>
	<path class="st5" d="M945.5,214.6c2.1,52.9-6.5,61.8-61.1,63.2c-1.9,0-3.8,0.3-5.8,0.4c-4.5,3.1-8.8,1.1-12.9-0.9
		c-34.3-17-59.5-43.4-77.2-77c-2.5-4.7-3.2-9.9-2.1-15.2c3.1-11.8,4.1-24,6.5-35.9c2.9-14,10.6-25.9,25.6-27.9
		c12.8-1.7,27.3-3.2,34.8,12.3c-2.6,8.9-10,6.2-16.1,6.6c-14.6,1-20.6,8.5-18.7,23c4.4,34.5,53.4,81.2,88.6,84.5
		c12.8,1.2,19.1-5.5,16.3-19.4c-3.7-18.9-13.2-34.8-26.2-49.2c-10.2-11.4-25.7-17.9-31.1-33.7c7.7-9.2,16.6,1.6,24.7-1.4
		C917.1,161.3,933.9,185.9,945.5,214.6z"/>
	<path class="st1" d="M667.8,429.7c-3.4-1.9-3.7-5.2-4-8.6c3-3.3,6.2-6.5,9-10c22-27.1,48.2-28.1,77.1-12.4c1.5,1.1,2.9,2.8,4.6,3.3
		c17.6,4.9,30.8,15.8,32.9,33.8c2.1,18.8-6.6,34.6-22.9,45.5c-2.6,1.7-4.6,4.4-6.9,6.6c-7.4,7.6-15.2,4-23.3,1.1
		C704.2,478,683.7,456.5,667.8,429.7z"/>
	<path class="st2" d="M183.5,871.2c9.6,0.9,19.3,3.3,28.7,2.6c21.6-1.6,34.9-13.6,41.6-34.7c10.5-33.2,22.2-66.2,34.3-98.9
		c11.5-31.3,15.4-31.6,36.2-6c6.3,18.5-0.4,33.6-10.5,49.2c-12.7,19.7-16.8,43.2-24.3,65.2c-14.8,43.5-44.2,55.4-86.1,34.2
		C196.6,879.3,190.2,875,183.5,871.2z"/>
	<path class="st6" d="M281.1,535c3.1,10.7-7.1,11.7-12.2,15.8c-22.1,18-46.9,32.7-66.1,54.1c-0.9,9-8.2,12.8-14.3,17.4
		c-18.6,14.2-36.8,28.9-55.6,42.9c-28.6,21.3-53.9,44.6-51,84.8c-1.7,13.5,4.8,24.6,10.2,36.2c2.6,5.5,10.2,11.5,1.7,18.4
		c-16.8-18.5-28.9-40-38.5-62.7c-12.3-29.4-6.6-49.6,19.8-70c49.8-38.7,103.3-72,156.4-105.8C248,555.5,264.5,545.3,281.1,535z"/>
	<path class="st4" d="M370.5,590.4c29.3,10.8,53.9,6.1,78.1-15.8c47-42.5,96.2-82.5,144.7-123.3c4.8-4,8.5-10,15.9-10.4
		c-20.4,28-49.7,46.7-74.1,70.4c-15.7,15.2-30.5,30.1-31.3,53.5c-0.3,7.5-4.8,11.4-10.5,15.1c-17.9,11.9-33.8,26-46,44
		c-3,4.3-6.1,8.6-12.5,7.2C408.4,625.3,383.1,618,370.5,590.4z"/>
	<path class="st5" d="M464.4,785.8c-9.1-1.7-16.7-5.6-14.3-16.5c2.2-10.3,11.1-11,19.9-11.2c37.2-0.8,68.2-12.7,85.3-48.7
		c7.5-15.7,7.6-32.4,7.2-49.2c19.3,2.1,25,17.1,30.6,32.2c-1.2,33.5-19,57.9-44.4,77c-11.1,8.4-24.4,14.2-38.2,18
		C495,790,479.8,786.6,464.4,785.8z"/>
	<path class="st7" d="M589.2,692c-5.1-13.8-13.6-24.7-26.7-31.8c-0.6-6.1,2-8.7,7.9-7c6.2,1.8,12.3,4.2,18.5,5.9
		c34.5,9.2,34.5,9.2,26.2,45c-14.2,60.8-64.6,95.3-126.4,86.2c-8.1-1.2-17.1,1.7-24.3-4.5c16-1,32.3,1.2,48-3.6
		c51.4-10.7,75.6-49,81.3-91.4c0.1-0.4,1.4-4.1-1.5-1.2C591.3,690.6,590.5,691.5,589.2,692z"/>
	<path class="st8" d="M422.3,304c3.8,4.2,7.5,8.4,11.3,12.6c4.3,6.5,0.3,11.3-3.7,15.5c-39.1,41-80.4,79.5-127.6,111.2
		c-1.6,1.1-3.6,1.4-5.6,1.5c-7.3-2.4-8.8-8-8.1-14.8c3.3-6.4,7.4-12.2,12.7-17.1c38.1-35.2,75.5-71,114.1-105.7
		C417.3,305.4,419.7,304.3,422.3,304z"/>
	<path class="st9" d="M545,651.1c-4.5,24-3.7,41.1-10.5,56.8c-3.2,7.5-9.3,14.3-17.7,12c-9.6-2.6-7.7-11-6.2-19.3
		c3.7-21.2,1.4-40-17-56c-14.8-12.9,0.9-24.8,8.4-34.2c10-12.4,14.1,1.7,17.6,7.4C527.8,631.1,550.2,636.6,545,651.1z"/>
	<path class="st9" d="M296.8,444.8c43.9-34,85.4-70.8,124.7-110c5.1-5.1,13.9-8.3,12.1-18.2c17,20.8,16.7,20.5-3.8,37.7
		c-31.1,26.2-61.2,53.5-92.8,79C326.1,442.2,314.7,457.2,296.8,444.8z"/>
	<path class="st10" d="M537.6,350c-59.4,43.9-116.1,84.5-169.5,129.8C367.5,450.6,501.2,345.3,537.6,350z"/>
	<path class="st11" d="M422.3,304c-27.1,31.4-60.1,56.6-89.3,85.8c-14.1,14.1-29.6,26.8-44.4,40.2c-1.5-17.5,10.1-28.6,20.6-39.4
		c31.6-32.3,64.6-63,98.9-92.4C419.3,288.7,420,296.5,422.3,304z"/>
	<path class="st12" d="M890.9,143.9c-0.6,4.8-1.4,9.8-8,6c-5-2.9-9.6-6.5-15.8-5.4c-7.3,1.9-13.7,1.9-15.7-7.4
		c-8.6-14.4-23.1-13.2-35.4-10.3c-12,2.9-17.8,14.5-18.9,27c-1.1,11.5-1.1,23.2-7.5,33.5c-13.5-10-9.9-23.8-8.6-37.2
		c0.8-8.3,0.2-16.9,4-24.7c5.4-6.4-0.9-9-4.1-12.7c13.7-11,29-9.7,44.2-4.9C849.4,115.5,871.3,127.7,890.9,143.9z"/>
	<path class="st13" d="M456.7,320.9c-13.5-4.6-20-14.8-22.9-28.1c13.4-10.5,18.6-29,35.3-36.3c12.6,9.7,23.2,21,28.3,36.5
		C487.8,308.2,476.3,320.5,456.7,320.9z"/>
	<path class="st10" d="M472.6,363c-32.4,24.9-66.2,47.9-95.5,77.2c-6.1-8-8.2-13.7,0.5-20.6c29.4-23.4,58.2-47.5,87.3-71.3
		C471.5,351,477.3,354.2,472.6,363z"/>
	<path class="st14" d="M505.6,588c0.6,12.3-6.9,14.6-10.5,19.5c-7.3,10-17.3,20.6-13.6,33c4.4,15-7.4,16-14,21.4
		c-4,3.3-9.7,4.3-14-0.9c-6.5-7.9-4-16.3,0.2-23.7C465.6,616.7,483.3,602,505.6,588z"/>
	<path class="st15" d="M468.7,257.9c-12.7,10.6-15.1,31.5-34.9,35c-9.7-29.2,8.1-49.2,23.7-69.9c10.8,1.8,6.9,12.4,10.9,18.3
		C469.9,246.7,473.6,252.2,468.7,257.9z"/>
	<path class="st16" d="M491.4,742.5c3.9-28.7-2.8-55.2-3.1-82.2c11.1,0.9,11.9,6.9,11.8,13.9c-0.2,10.4-0.2,20.8,0,31.2
		c0.3,11,5,22.2,15.1,24.2c3.4,0.7,6.6,0.4,9.5-0.7C515.8,733.8,504.8,738.2,491.4,742.5z"/>
	<path class="st17" d="M524.7,728.8c2.3-1.3,4.5-2.7,6.6-4.1C529.2,726.5,527,727.9,524.7,728.8z"/>
	<path class="st16" d="M531.3,724.7c3.3-3,6.2-7.2,8.5-12c9.4-19.9,11.2-41,11.9-68.1C558.8,686,554.4,708.6,531.3,724.7z"/>
	<path class="st18" d="M456.7,320.9c15.4-6.3,26.8-18,39.6-28c5.1-5.1,12.3,0.3,17.6-3.6c4.4-1.7,7.7-7.2,13.6-4.1
		C514.7,316.1,482.5,332.4,456.7,320.9z"/>
	<path class="st12" d="M699.3,222.6c-0.2-8.1-0.4-16.2-0.7-24.4c11.9-36.5,41.3-56.9,70.8-77.2c3.9,2.4,4.8,5,0.6,7.9
		c-10.1,12.8-24.4,21.2-35.5,32.8c-13,13.6-24.2,28.7-26.6,48.5C707.2,215.4,708.2,222.8,699.3,222.6z"/>
	<path class="st19" d="M527.5,285.2c-4,2.7-8,5.3-12.1,8c-11.8,3.2-17.2-6.3-23.4-12.7c-10.3-10.5-18.7-22.5-22.2-37.3
		c0.7-2.9,2.1-5.2,5.2-6.1c9.2,2,10.2,11.8,16,17c5,5.7,9.3,12,15.2,16.9c6.1,7.3,13.1,0.9,19.6,1.4c2.9,1.6,3.2,3.9,2.1,6.7
		C527.8,281.2,527.6,283.2,527.5,285.2z"/>
	<path class="st20" d="M489.2,257.2c-7.9-3.8-8.1-12.9-13.1-18.8c-6.5-4-8.4-9.7-4.4-16.1c5.1-8.2,12.7-6.4,20.2-3.6
		c8.1,3,14.7,7.9,19.7,14.9c2,2.4,2.5,5,1.3,7.9c-3.5,3.2-6.9,1.5-10.4,0.1c-5.2-1.6-7.6-9.7-14.8-5.9
		C487.8,243,494.7,249.7,489.2,257.2z"/>
	<path class="st21" d="M491.9,218.7c-15.9-1.9-21.8,4.2-15.8,19.8c-1.2,1.4-2.4,2.8-3.7,4.1c-1.4,0.2-2.8,0.2-3.5-0.7
		c-3.2-3.6-1.5-8-2.1-12.1c-0.8,4.2,1.8,9.1-2.6,12.6c-7.2-4.8-0.1-14.5-6.7-19.5C467.1,206.7,479,209,491.9,218.7z"/>
	<path class="st22" d="M472.6,363c0.5-6.5-5.4-9.7-7.7-14.8c3.4-2.7,4.6-7.9,9.8-8.5c6.5-0.8,12.1,2.5,14.6,7.4c3.5,7.1-4,7-8.1,9.1
		C478,357.8,475.4,360.6,472.6,363z"/>
	<path class="st23" d="M511.5,244.3c0-3.5,0.1-7.1,0.1-10.6c12.6,12.6,22.6,26.2,16.4,45.5c-1.3-1.9-2.7-3.8-4-5.7
		c-6.7-4.9-5.2-14.2-10.9-19.7C511.1,250.9,509.1,247.9,511.5,244.3z"/>
	<path class="st24" d="M699.3,222.6c6.2-18.4,8.2-37.7,22.2-53.8c14.2-16.2,30.2-29.1,48.5-39.9c-5.8,18.4-5.9,37-1.8,55.6
		c3,13.6,1.9,24.9-9.3,35.2c-20.6,19-27.9,45.8-39,73.5C703.3,270.8,698.1,247.7,699.3,222.6z"/>
	<path class="st25" d="M785,125.4c-0.3,20.8-4.1,41.8,4.6,61.9c15.3,44.4,47.1,72.6,89.1,90.9c15.7,5.2,32,5.8,48.3,6.8
		c-21.7,10.9-42.9,4.9-64.1-3.2c-45.3-22.8-82.5-52.6-88.6-107.3C772.5,157.5,772.2,139.7,785,125.4z"/>
	<path class="st26" d="M749.6,344.2c-2.3,10.5-7.9,3.2-10.6,1.2c-8.5-6.5-16.4-14-24.5-21.1c-10-15.5-13.3-33.4-17.6-51.2
		C711.6,299.1,725.9,325.2,749.6,344.2z"/>
	<path class="st27" d="M620.5,340.7c2.2,8.9,4.1,17.9,11.9,24c-0.2,1.8-0.4,3.5-0.6,5.3c-13.2-6.8-18.9-18-19.3-32.3
		c-0.1-2.3,0.9-5.7,4.2-3.5C618.7,335.3,619.3,338.4,620.5,340.7z"/>
	<path class="st28" d="M414,511.7c-4.1-6.6-8.3-13.2-8.4-21.3c0-2.3,0.4-5.6,4-5.5c4.5,0.1,3.9,4.3,5.1,7
		c-0.8,9.3,5.9,15.8,9.6,23.5C419,517.4,417.6,512,414,511.7z"/>
	<path class="st29" d="M81.9,750.1c-8.8-25.2-0.4-45.1,18.3-62.6c25.1-23.6,53.1-43.4,80-64.5c7.6-5.9,15.1-12,22.6-18
		c19.3-4.9,33.2-19.6,50.5-28.1c22-10.7,31.1-5.6,36.4,18.6c4.6,20.9,2.3,40.2-8.8,58.1c-25.7,41.7-38.2,87.1-43.9,135.7
		c-7.1,60.8-34.4,71.5-85.1,37.5C122.2,806.9,98.7,781.7,81.9,750.1z"/>
	<path class="st30" d="M382.4,774.6c0,9.7,0.2,19.4-0.1,29.1c-0.1,3.2-2.2,6.3-5.7,7c-4,0.8-5.8-2.6-6.8-5.5
		c-2.4-6.6-5-13.4-6.4-20.3c-7.6-36.7-25.9-67.1-52.4-93.1c-3.2-3.2-6.7-6.3-9-10.1c-3.3-5.4-7.5-11.4-2.1-17.8
		c5.6-6.6,10.5-0.3,15.6,1.4C368.6,682.8,384.2,723.5,382.4,774.6z"/>
	<path class="st31" d="M382.6,645.1c2.9,1.8,5.8,3.6,8.7,5.5c-1.6,0.7-3.2,1.4-4.8,2.1c-55.5-17.4-91.2-84-67.3-125.7
		C323.5,575.4,331.1,622.1,382.6,645.1z"/>
	<path class="st32" d="M422.5,696c14.8,40.9,11.6,101.9-24,126.1c-2.4,1.6-4.1,5.8-7.8,2.1c29.6-28.6,32.6-65.2,31.4-103.1
		C421.7,712.8,422.3,704.4,422.5,696z"/>
	<path class="st31" d="M706.7,574.7c-14.3-10.1-29.2-19.4-42.6-30.5c-13.6-11.3-14.4-25.5-4.2-37.6c11.6-13.8,23.4-10.6,35.1-0.1
		c17.1,15.3,35.7,27.9,58.9,32.2c3.2,7.1,12.9,1.9,16.3,8.6c-21.6,2.8-49.2-9.1-79.4-34c-13.7-11.3-25.6-8.3-28.8,7.4
		c-1.7,8.1,3.2,13.8,8.4,18.5c17.3,15.8,35.2,30.7,59.2,35.6c3.5,0.7,7.5,1.4,9.2,6.2C726.9,583.5,717.6,574.6,706.7,574.7z"/>
	<path class="st33" d="M667.8,429.7c0.2-0.6,0.3-1.3,0.5-1.9c0.2-0.6,0.4-1.2,0.6-1.9c5.2,1.9,5.6,7.3,8.2,11.2
		c19.5,28.4,44.1,48.9,80.3,50.7c18.3,9.2,37.3,2.6,56.1,2c-19.8,14.4-42.6,8.7-64.1,10.9C712.3,488.5,680,470.6,667.8,429.7z"/>
	<path class="st34" d="M652.1,613.5c-10-7.2-20.2-14.1-29.8-21.8c-8.3-6.6-15.4-15.2-15.4-26c0-9.5,7.2-16.5,15.3-21.3
		c8.2-4.9,15-0.2,21.5,4.3c17.4,12.2,31,29.7,51.3,38.1c7.2,5.1,14.4,10.3,21.7,15.4c-30.2-6.7-52.1-26.9-75.1-45
		c-7.1-5.6-12.6-11.9-21-3.1c-7.5,7.8-7.4,15.8-0.9,24.3c9.3,12,22.1,19.9,33.7,29.2C658.1,611.3,658.6,612.7,652.1,613.5z"/>
	<path class="st35" d="M562.2,621c-8.1-13.3-2.8-24,7.8-32.3c10.7-8.3,17.5,1.2,25.2,7.1c14.4,10.9,26.8,24.9,45.2,29.8
		c5.8,3.7,11.6,7.5,17.4,11.2c-26-2.8-45.4-17.8-64.3-33.5c-7.1-5.9-13.8-16.9-23.4-4.2c-8.4,11.1-2.4,18.9,8.3,24.7
		c7.2,3.9,14,8.6,20.4,14.2C584.7,636.4,573.8,628,562.2,621z"/>
	<path class="st36" d="M678.2,470.2c-66,16.5-56.1,8.9-152.2,110.6c-7.9-15.8,1.6-26.4,10.2-36.3c21.3-24.7,47.1-44.6,70.9-66.6
		c12.8-11.9,27.2-22,40.1-33.7c7.7-6.9,12.6-8.1,17.5,2.4C668.6,454.6,673.6,462.1,678.2,470.2z"/>
	<path d="M851.4,137.1c5.2,2.5,10.5,5,15.7,7.4c23.8,20,47.8,39.7,58.1,70.7c3.6,10.8,11.3,22.5,1.2,32.7
		c-10.2,10.3-23.3,6.3-34.6,1c-31.6-15-59.2-34.6-73.3-68.5c-5.4-12.9-9.7-25.9-0.9-38.9C827,127.5,840,137.2,851.4,137.1z"/>
	<path class="st37" d="M589.2,692c1.7-4.1,3.3-8.1,5.4-13.3c6,33.8-14.2,75.3-45.7,91.6c-11.2,5.8-21.2,17.8-36.5,11.9
		C555.2,766.8,583.8,739.2,589.2,692z"/>
	<path class="st38" d="M464.2,242.4c-0.1-2.5-0.4-5-0.3-7.4c0.1-1.7,0.8-3.3,1.6-6.3c2.7,5.4,4.8,9.7,6.9,14
		c10.2,20.4,19.8,41.3,43,50.6c-6.5,7.9-12.8-1.2-19.2-0.3c-10.7-10.4-19.7-22.3-27.5-35C467.2,252.7,465.7,247.6,464.2,242.4z"/>
	<path class="st39" d="M511.5,244.3c0.7,1.9,1.3,3.8,2,5.7c3.8,1.1,3.7,4.7,5,7.5c2.7,6,5.5,12.2-0.2,17.9
		c-5.7,5.7-10.6-0.8-15.9-1.7c-4.4-5.5-8.7-11-13.1-16.5c1.1-10.7-10.6-17.3-9.1-28.1c9.9-1.9,13.1,12.6,23.4,9.6
		C506.2,240.6,508.8,242.4,511.5,244.3z"/>
	<path class="st40" d="M502.3,273.7c19.7,1.6,19.8,1.4,11.2-23.8c10.1,4.9,10.4,14.1,10.5,23.5C516.8,285,509.6,283.1,502.3,273.7z"
		/>
	<path class="st41" d="M503.6,238.7c2.2,7.2-0.2,10.8-6.9,6.2c-6.2-4.2-11.1-10.5-16.5-15.8C493.4,219,495.9,235.2,503.6,238.7z"/>
	<path class="st42" d="M281.2,614.3c0.7,10,0.5,21.1-6.2,30.7c-30.8,43.7-41.5,94-48.4,145.6c-0.6,4.4-2.1,8.8-3,13.2
		c-7.3,34.5-17,41.6-55.4,22.1c-23.1-11.7-40.3-30.5-57.2-49.2c-30.6-34-29-61.5,6.9-91.1c43.4-35.8,88-70.1,137-98.2
		c18.1-10.4,24.8-6.7,26.3,14.1C281.5,605.3,281.2,609.2,281.2,614.3z"/>
	<path class="st43" d="M214,731.9c-32.1,6.3-22.4,27.5-18.7,47.7c-10.2-4.8-8-13.2-9.8-19c-5.1-16.9-18.3-22.7-33-13.8
		c-9.2,5.6,1,14.3-4.9,23c-4-13.7-6.6-27.2-27.2-28.3c36.1-7.8,3.4-35.9,24.2-49.9c0,12.8,0.5,23.3-0.1,33.7
		c-0.8,12.6,6.9,14.2,16.2,12.7c9.4-1.5,23.4,0.8,22.3-14.7c-0.8-11.5-4.1-22.9-3.2-34.6c0.9-11.2-9.3-2.6-13-7.8
		c10-4.9,19.6-10.4,18.1-25.6c0.5,20.3,14,15.9,25.3,16.5c19.8,1,8.8-16,14.5-24c0.7,2.2,1.4,3.9,1.9,5.6
		c5.2,16.3,6.2,27.9-17.9,22.9c-14.9-3.1-23.4,5-21.2,21.4c0.3,1.9,0.1,3.9,0,5.8C187.1,720.2,184.5,738.5,214,731.9z"/>
</g>
</svg>
