<?xml version="1.0" encoding="utf-8"?>
<!-- Generator: Adobe Illustrator 23.0.1, SVG Export Plug-In . SVG Version: 6.00 Build 0)  -->
<svg version="1.1" id="Layer_4" xmlns="http://www.w3.org/2000/svg" xmlns:xlink="http://www.w3.org/1999/xlink" x="0px" y="0px"
	 viewBox="0 0 1000 1000" style="enable-background:new 0 0 1000 1000;" xml:space="preserve">
<style type="text/css">
	.st0{fill:#585E60;}
	.st1{fill:#90AFC3;}
	.st2{fill:#B5FBF8;}
	.st3{fill:#9C6734;}
	.st4{fill:#3E4446;}
	.st5{fill:#FDAA59;}
	.st6{fill:#446777;}
	.st7{fill:#3D4345;}
	.st8{fill:#312401;}
	.st9{fill:#72A09D;}
	.st10{fill:#312600;}
	.st11{fill:#2F2725;}
	.st12{fill:#384751;}
	.st13{fill:#322700;}
	.st14{fill:#73A29F;}
	.st15{fill:#7C4800;}
	.st16{fill:#A96319;}
	.st17{fill:#416372;}
	.st18{fill:#0E0A00;}
	.st19{fill:#302725;}
	.st20{fill:#729F9C;}
	.st21{fill:#BA6E21;}
	.st22{fill:#322600;}
	.st23{fill:#6E9B98;}
	.st24{fill:#7B4701;}
	.st25{fill:#F7A858;}
	.st26{fill:#B86D21;}
	.st27{fill:#794603;}
	.st28{fill:#B66B21;}
	.st29{fill:#322E2D;}
	.st30{fill:#2F2726;}
	.st31{fill:#384650;}
	.st32{fill:#2E2725;}
	.st33{fill:#B76C21;}
	.st34{fill:#7B4700;}
	.st35{fill:#37454E;}
	.st36{fill:#74A29F;}
	.st37{fill:#37444D;}
	.st38{fill:#75A4A1;}
	.st39{fill:#2F2500;}
	.st40{fill:#323F48;}
	.st41{fill:#B36A20;}
	.st42{fill:#774500;}
	.st43{fill:#754401;}
	.st44{fill:#7A4601;}
	.st45{fill:#B5FAF8;}
	.st46{fill:#596062;}
	.st47{fill:#7F4901;}
	.st48{fill:#7C4801;}
	.st49{fill:#744301;}
	.st50{fill:#0C0909;}
	.st51{fill:#7B4703;}
</style>
<g>
	<path d="M488,477.6c-94.8-19.5-184.5-11-269.2,49.5c0-22.4-1.5-40.9,0.3-59.1c6.3-62.6,20.7-122.8,57-175.9
		c30.6-44.9,63.9-86.8,106-122.4c64.1-54.3,138.5-89,215-119.7c30.7-12.3,64-17.3,100.8-19c-20.7,29.1-30.6,59.1-29.4,91
		c1.6,40.6,13.1,79.2,35,114c2,3.2,4.7,7.4,9.1,5.7c3.4-1.3,5.4-4.5,6.4-8.8c8.8-37.9,11.3-36.8,48.5-46.3
		c23.2-5.9,41.1-7.1,57.8,11.6c7.3,8.1,14.4,17.6,10.1,27.2c-7.5,16.9,5,33.6-2.3,50.1c-3.5,7.8,4.8,6,8.2,5.7
		c38.3-3.6,77.3-5.4,108.1-33.3c2.7-2.5,5.1-7.1,9.6-5c4.2,2,5.3,6.1,6.1,11c12,80.2-0.6,157.3-33.9,230.3
		C905.3,541,861.3,583,806.6,612.4c-72.7,39.1-150.2,66-233.7,86.3c11.8-54.1,15.2-107.1-9.4-159.2c-8.5,8.7-17.2,18.2-26.6,27
		c-16.9,15.9-31.6,34-50.8,47.6c-11.9,8.4-21,17.8-14.3,36.8c6.5,18.4-16.5,44.7-39.1,48.1c-19.9,3-30.6,16.5-43.8,29.6
		c-13,13-27.2,25.5-41.7,37.1c-2.5,2-6.2,3.5-7.3,6.1c-12.3,30.8-39.3,50.2-59.4,74.8c-17.7,21.8-34.4,47.3-64.5,55.7
		c-8.2,2.3-11,5.6-9.3,14.7c3.6,20.4-5.5,37-24.5,42.3c-29.6,8.4-58.5,25.2-91.4,13.4c-25.9-9.3-39.6-45.1-24.4-67.9
		c4.3-6.4,4.6-12.3,3.5-18.2c-6-33.2,12.3-56.8,45.6-58.5c19.7-1,31.1-15,41-29.5c7.7-11.4,15-22.3,29.4-24.9c4.4-0.8,7.6-3,9.1-6.3
		c9.8-22.3,29.3-33.3,48.8-45.6c12.8-8.1,20.5-23.4,30.4-35c17.7-20.9,40.7-35.2,58.7-55.3c4.8-5.3,6.9-9,7.1-15.4
		c1.1-29.6,28.9-53.3,57.5-47.8c5.3,1,8.3,1.6,11.2-2.3c22.9-30.9,53.1-54.7,78.8-82.9C488,482.2,487.7,480.5,488,477.6z"/>
	<path class="st0" d="M390.6,452.8c-4.5,0.4-9.1,0.5-13.6,1.3c-32.5,5.4-35.8,2.6-22.6-28c31-71.9,73.5-135.5,137.5-182.9
		c45.6-33.7,94.2-62,147.4-85.8c4.6,28.9,9.1,56.5,13.5,84.2c9.3,22.7,1.6,44.2-7.5,64c-37.9,81.9-96.4,137.9-191,146.5
		C433.1,454,411.8,447.3,390.6,452.8z"/>
	<path class="st0" d="M843.8,324.6c30.1-1.4,29.9-1.4,24.9,25c-20.4,108.2-86.3,177.1-186.6,216.3c-22.4,8.7-45.7,14.4-69.1,19.9
		c-14.4,3.4-21.1-0.1-19.6-15.5c-0.3-43,23.4-75,50.1-104.5c39.6-44,85.2-81.5,132-117.7C795.6,332.5,818.5,325.2,843.8,324.6z"/>
	<path class="st1" d="M598,601.4c5.2-7.2,13.6-6.1,20.8-7.6c91.8-19,170-59.3,221.8-141c22-34.6,32.9-73.3,38.3-113.5
		c1.7-12.7,4-21.1,18.8-24.4c21.1-4.7,37.7-18.7,55.5-32.6C952,394,935.6,498.8,835.7,570c-47.3,35.9-100.5,56.3-159.8,60.1
		c-18.4,1.2-36.2-2.7-53.7-7.9C611,619,602.3,612.7,598,601.4z"/>
	<path class="st1" d="M652.1,82c-0.7,2.4-2,4.9-2,7.3c-0.5,41.3-25.3,60.3-60.4,77.6c-52.1,25.7-102.9,56.4-143.9,98.6
		c-50.5,52-93.3,109.7-109.9,182.4c-2.3,9.9-6.6,14-15.7,16.2c-14.5,3.4-28.7,7.9-43,11.9c-6.6-19.6-0.2-38.3,4.7-56.7
		c30.3-113.4,95.3-200.6,196.4-261.2c50.5-30.3,104.3-53,158.8-74.3C641.8,81.9,646.7,79.5,652.1,82z"/>
	<path class="st2" d="M652.1,82c-38.1,16.4-76.7,31.8-114.3,49.3c-111.5,52-195.5,131-239.1,248.4c-11.5,31-18.8,63.2-21.5,96.4
		c-13.2,6.5-26.5,13-42.2,20.7c0.3-64.4,12.2-124,44.6-177.7c29.9-49.6,65.5-95,109.2-133.8c33.9-30.1,73.7-50.7,112.9-71.9
		c49.1-26.5,98.6-52.6,155-60.9c3.1-0.5,6.2-0.8,10.1-1.3C661.5,62.1,656.8,72.1,652.1,82z"/>
	<path class="st3" d="M531.2,491.9c65-59.3,124-124.5,186.1-186.8c9.1-9.1,4.6-18.9,2.8-29c-1.3-7.1-9.8-16,2.9-21.5
		c5.2,5.6,5.1,13.2,6.9,19.9c3.5,13.4,10.1,15,20.3,6.5c17.1,8.7-2.8,14.6-1.8,22.6c8-0.1,10.1-9.9,20.4-11
		c-6.3,14.1-17.3,22-25.8,31.2c-74.3,79.8-149,159.1-224,238.2c-21,22.1-43.5,42.8-65.2,64.3c-8.7,8.6-17.5,13.8-28,2.7
		c4-10.8,13.1-17.5,20.8-25.1c26.3-26,50.8-53.7,76.8-79.9C533.9,513.2,526.1,501.7,531.2,491.9z"/>
	<path class="st4" d="M390.6,452.8c10.7-7.3,22.7-2.9,34-3.4c39.1-1.7,78.1-6,111.8-26.8c67.2-41.5,111.9-98.6,116.4-181
		c10.3,20.7,24.3,38.3,43.7,51.2c9.3,6.2,9.1,11.3,0.9,19.4c-53.1,52.7-105.6,106-158.3,159.1c-5.6,5.6-10.2,11-19.8,5.8
		C479.1,455.5,434.9,453.5,390.6,452.8z"/>
	<path class="st4" d="M843.8,324.6c-55.6,9.4-92.3,48.7-132.3,83c-26.6,22.8-52.1,46.5-74.5,73.7c-20.7,25.2-36.3,51.9-40.1,84.6
		c-0.2,1.6-2.3,3-3.5,4.4c-5.3-12.5-10-25.2-16.1-37.3c-4.1-8.2,1.1-12,5.4-16.7c34.4-38.1,68.7-76.2,103.3-114.1
		c22.4-24.5,45.2-48.4,67.9-72.7c5.5-5.8,11.1-11.5,20.1-9.2C796.9,326.5,820.5,323.3,843.8,324.6z"/>
	<path class="st5" d="M531.2,491.9c10.8,17,3.4,28.1-9.7,40.7c-27.5,26.5-53,55.1-79.5,82.7c-4.9,5.1-9,11.2-16.2,13.6
		c-7.6-8,2.1-10.9,4.9-15.5c5.4-8.9,15.4-14.7,20.5-30.5c-11,9.8-17.6,16.5-25.1,22.2c-4.7,3.5-8.3,14.1-16.4,6.3
		c-7.1-6.9-8.4-16.2-0.9-24.3c11.8-12.8,24-25.3,36.2-37.8c14-14.4,28.7-28.1,42-43.1C499.2,492.3,510.6,478.6,531.2,491.9z"/>
	<path class="st6" d="M598,601.4c26.6,23.3,58.5,25.6,91.4,22.2c51.3-5.3,97.8-23.8,140.7-52.1c1.5-1,3.7-1,5.6-1.5
		c-7.9,15.6-24.1,21.1-37.7,28.9c-59.9,34.5-125.5,55.1-191.1,75.5c-10.9,3.4-14.8-0.5-12.4-11.1C599.1,642.8,597.2,622,598,601.4z"
		/>
	<path class="st7" d="M712,285.2c-43.2-16.6-61.1-61.5-57.6-121.9C664.5,208.1,691.5,245.2,712,285.2z"/>
	<path class="st8" d="M253.8,734c4.4-3.7,7.6-2,7.8,3c0.5,14.2-0.3,28.5,0.3,42.7c0.4,11.1-9,3.4-12.9,7.7
		c6.2,4.6,15.6,7.6,9.2,18.6c-9.5,16.4-18.8-5.7-30.1,1.6c10.8,4.8,20.4,9.1,30.1,13.5c0.4,0.2,0.7,1.1,0.7,1.7
		c-0.1,0.6-0.6,1.1-1,1.6c-19.7,14.4-36.1,12.3-48.1-6.1c0.5-7.8,5.1-15.7,0-23.6c0.5-1.8,1.6-3,3.3-3.7c1.9-0.4,3.7-0.3,5.6,0
		c4.7,0.6,10.5,5.3,13.6-0.4c2.9-5.3-5-7.8-6.6-12.4c-0.4-1.9,0.1-3.5,1.5-4.8c1.2-1.3,2.3-2.5,3.5-3.8c1.5-1.2,3.2-1.5,5-1
		c17.2,7,17.3,6.9,17.4-18.5C252.6,744.6,253.4,739.3,253.8,734z"/>
	<path class="st7" d="M831,315.6c-18.5,2.5-32.4-1.1-46.4-2.7c-3.5-0.4-9.2,0.9-9.3-4.2c-0.1-5.4,4.4-9.9,9.8-10.2
		c23.6-1,47.2-1.4,70.8-1.9c7.1-0.2,11,4.7,11.9,10.6c1.4,9.5-8.1,7.2-12.2,7.9C846.3,316.6,836.4,315.6,831,315.6z"/>
	<path class="st9" d="M379.1,648c-6-8.4-12.6-16.5-18-25.3c-5.5-8.9-7.2-18.6,1.6-26.6c8.8-8,19.4-15.9,31.2-12.7
		c11.5,3.1,0.8,14.8,4.1,22.2c1.5,3.3,0.5,7.7,0.6,11.6c-0.9,0.2-1.7,0.5-2.6,0.7c-6-2.3-7.8-8-10.3-13.6c1.4,10.2,6,18.9,8.6,28.2
		C393.6,642.1,394.2,652.7,379.1,648z"/>
	<path class="st10" d="M265.6,798.9c0.1-21.2,5.9-25.8,31.5-25.3c5.6,0.1,14.2-3.5,14.6,7.3c0.4,10.9-24.5,39-34.9,38.6
		C260.8,818.9,267.3,805.9,265.6,798.9z"/>
	<path class="st11" d="M117.3,855.8c0.1,33.5,15.2,52.9,51,65.6c-0.7,7.1-7,8.7-11.7,11.9c-27.4-9.4-41.9-31.4-54.2-55.5
		C106.9,870,103.2,856.8,117.3,855.8z"/>
	<path class="st11" d="M784.8,285.5C767.9,279.8,752,273,746,254c9.8-0.7,13.3-7.5,15.5-15.6c14.9,9.9,24.7,28.7,46.5,26.6
		C809.2,282,796.8,283.5,784.8,285.5z"/>
	<path class="st12" d="M441.7,641.2c15,2.2,19.3,10.2,12.4,23c-9.8,18.3-25,23.2-43.8,14.1c-4.1-2-7.9-4.3-11.9-6.5
		c4.7-13.2,19.3-9.8,27.8-16.7c1.5-0.6,3.2-1,4.8-1.3C436.7,651.4,436.1,643.6,441.7,641.2z"/>
	<path class="st13" d="M160.1,874.9c4,5.7,11.5,5.9,16.1,10.2c5.2,4.8,20.8,2.5,14.5,14.7c-5.2,10.2-16.3,17.7-29.4,12.3
		c-7.5-3.1-14-8.9-20.9-13.4c2.3-8.6,8.8-14.7,12.8-22.3c1.2-1.4,2.7-2.2,4.4-2.6C158.5,874.2,159.3,874.6,160.1,874.9z"/>
	<path class="st10" d="M339.6,699.4c6,2.4,11.8,5.3,18,7.2c5.3,1.6,13.2-1.3,14.9,5.8c1.3,5.3-5.3,8.3-8.9,11.9
		c-22.2,22.4-22.2,22.4-36-6.7c-1.1-2.3-2-4.8-2.9-7.2C328.9,705.7,333.2,701.2,339.6,699.4z"/>
	<path class="st14" d="M761.5,238.3c-1.3,6.2,7.6,12,1.8,17.8c-5.9,6-11.7,0.2-17.4-2.2c-16.7-29-14.7-40.1,11.6-52
		C753.7,215.4,754.6,227.4,761.5,238.3z"/>
	<path class="st15" d="M359.6,644.4c7.8,7.3,9,17.2,10.8,26.9c-6.3,9.2-14.2,16.8-22.7,23.8c-10.1-0.7-14.7-8.1-19.3-15.5
		C330.3,660.4,343.8,651.4,359.6,644.4z"/>
	<path class="st16" d="M128.7,863.5c3.3-24.4,21-40.2,39.7-35.6c6.1,2.1,13.2,3.3,13,11.9c-0.2,6.4-5.8,8.4-10.5,10.1
		c-11.1,4-19.2,13.3-30.5,16.9C136,867.4,132,866.7,128.7,863.5z"/>
	<path class="st11" d="M429.8,656.5c-8.2,9.6-21.6,8.7-31.3,15.3c-8.6-6.1-17.8-11.9-19.4-23.7c14.2-0.2,12.6-9.6,11.1-19
		C407.5,632.3,418.3,644.9,429.8,656.5z"/>
	<path class="st17" d="M943.2,272.8c-12.7,22-34.3,29.8-56.1,37.2c-9.8,3.4-10.9-5.1-12.6-10.4c-3-9.4,5.6-6.1,9.6-6.9
		C904.6,288.7,925.7,286.5,943.2,272.8z"/>
	<path class="st18" d="M211.1,812.3c9.7,26.6,29.7,13.8,46.7,12.1c0,1.3,0,2.6-0.1,3.9c-4.5,14-18.7,7-26.7,12.5
		c7.5,1.7,12.5,5.7,11.1,14.7c-1.3,2.7-2.7,5.3-4,8c-13.8,5-25.1,3.4-31.2-11.9c0-1.2,0-2.5-0.1-3.7c4.7-3.7,9.7,0.7,14.9-0.4
		c-8.3-7.9-13.3-17.6-18.2-27.3c-3-6.1-5.1-12.5-5-19.4c0.1-4.1,1.2-7.8,4.2-10.8c0.4-4.5-0.6-9.3,3.9-12.6c4,2.5,4.9,6.7,6,10.9
		c0.2,1.8-0.4,3.3-1.5,4.7l-0.3,0.2C207.1,799.5,217.7,805.8,211.1,812.3z"/>
	<path class="st10" d="M207,851.5c8.7,8.4,19.8,10.5,31.2,11.9c0.3,5.8-3.2,9.7-7.2,12.9c-7.8,6.3-17.4,16.4-26.4,6.9
		C196.3,874.5,193.7,861.1,207,851.5z"/>
	<path class="st19" d="M800.6,199.3c6.8,3.6,12.2,8.6,15.7,15.5c-3.5,13.5-3.5,28.9-19.6,35.3c-7.8-0.9-12.9-5.1-15.1-12.7
		C787.5,224.5,787.6,208.6,800.6,199.3z"/>
	<path class="st20" d="M800.6,199.3c-8.1,11.8-5.6,28.9-19,38.1c-5.8-9.6-16.9-19-8.4-30.9C779.1,198.2,789.4,193.6,800.6,199.3z"/>
	<path class="st21" d="M202.8,789.9c-0.2,3.5-0.4,7.1-0.7,10.6c-5.2,11.3-11.8,21.6-21.6,29.6c-4.3,0.4-6.7-2.2-8.8-5.3
		C166.1,802.7,179.2,787.9,202.8,789.9z"/>
	<path class="st22" d="M284.6,750.5c14.1,6.2,29.3,1.7,44,4.3c-9.8,10.8-49.1,19.5-59.8,13.3c-4.1-2.4-2.9-6.7-3-10.4
		C272.6,756.9,279.4,755.6,284.6,750.5z"/>
	<path class="st23" d="M101.9,921.4c-7.8-13.3-16.8-26.1-18.3-42c-0.7-7.7,1-14.9,9.1-25.9c-1,24.6,8.1,40.5,16.6,56.6
		C112.8,921.5,111.8,923,101.9,921.4z"/>
	<path class="st24" d="M296.6,745.7c-8.9,1-16.9-0.4-23.2-7.5c-2.7-15.4,9.6-20,19.2-26.4c7,3.1,14.9,4.4,20,10.9
		C309.3,731.7,304,739.5,296.6,745.7z"/>
	<path class="st13" d="M296.6,745.7c2-10,6.7-18.2,16.1-23.1c5-0.1,8.7,2.3,11.6,6c3.6,4.6,8.2,9.6,6.1,15.5
		c-2.4,6.6-9.3,5.6-15.2,5.8C308.5,750.2,302.3,749.3,296.6,745.7z"/>
	<path class="st13" d="M347.6,695.1c3.3-12.1,11.4-19.5,22.7-23.8c0.3,0.6,0.7,1.1,0.9,1.7c3.2,9.4,14,21.7,7.9,27.4
		C371,708.1,357.7,700.9,347.6,695.1z"/>
	<path class="st10" d="M195.2,851.5c-0.5,10.7,3.1,25.3-2.5,31.3c-7,7.5-16.8-7.3-26.9-7.6c-1.9-0.1-3.8-0.2-5.7-0.2
		c0,0,0.1,0.1,0.1,0.1c-1.3-1.6-1.7-3.3-1.1-5.3C168,857.4,178.7,848.8,195.2,851.5z"/>
	<path class="st25" d="M750.2,281c0.3,8.2-4.3,14.3-11.5,14.9c-7.7,0.6-8.7-8.2-11-13.7c-3.7-8.7-6.8-17.8-4.7-27.7
		C739,256.2,738.7,274.7,750.2,281z"/>
	<path class="st10" d="M242.2,855.4c-4.3-5.4-8.5-10.8-12.9-16.3c7.4-9.5,20.5-3.6,28.6-10.9c7.6-0.2,14,0.6,8.2,10.6
		C260.6,848,254.8,856.5,242.2,855.4z"/>
	<path class="st18" d="M160,871.6c0.1,1.1,0.2,2.3,0.2,3.5c-1.5,0.2-3,0.3-4.5,0.5c-6,4.4-12.2,2.7-17.7-0.5
		c-10.8-6.3-2.8-8.9,2.7-11.8c11.2-9.4,23.6-16.9,37.2-22.1c0.9-7.8-7.4-8.3-9.5-13.4c1.1-1.1,2.2-2.1,3.3-3.2
		c2.6,1.3,5.2,2.5,7.8,3.7c7,1.5,13.8,3.2,17.1,10.6c0.5,1.8,0.1,3.4-1.3,4.7l-0.7,0.5c-5.5,7.1-15,6.7-21.6,11.5
		C167.4,859.8,157.3,860.6,160,871.6z"/>
	<path class="st26" d="M253.8,734c7.1,3.9,3.9,10.3,3.9,16c-7.1,7.8-10.7,19.6-23.8,20.4c-1.2-0.3-2.3-0.6-3.4-1
		c-8.6-11.5-5-19.5,6.9-25.6C243.1,741,248.4,737.3,253.8,734z"/>
	<path class="st27" d="M140.7,863.3c1.1,2.9-11,4-1.3,7.9c5.2,2.1,10.9,2.9,16.3,4.3c-0.6,10.7-6.1,18.1-15.2,23.2
		c-6.1-11-21.1-19.1-11.7-35.3C132.7,863.4,136.7,863.4,140.7,863.3z"/>
	<path class="st28" d="M359.6,644.4c-9.9,12.2-24.6,20.1-31.3,35.1c-1.3,0-2.7,0-4-0.1l0.2,0.2c-3.9-19,7.5-29.3,21.6-38.5
		C352.1,637.2,356.4,637.5,359.6,644.4z"/>
	<path class="st29" d="M94.3,925.6c7,9.2,13.8,18.6,24.4,24.3c2.7,1.5,6,3.2,4.7,7.3c-1.3,3.8-5,3.7-8.1,3.8
		c-12.5,0.4-22.5-4.5-29.6-15C88.7,939.3,87.4,930.7,94.3,925.6z"/>
	<path class="st30" d="M101.9,921.4c10.7,1.7,5.9-6.9,7.4-11.2c14.1,10.9,25.5,25.4,43.5,30.9c-6.8,8.1-16,3-24,4.5
		C119.8,937.4,110.9,929.4,101.9,921.4z"/>
	<path class="st13" d="M195.3,843.9c0-1.3,0-2.6-0.1-3.8c0.7-8.6,3.1-16.3,12.1-19.9c7.5,11.5,14.5,23.4,28.3,34
		c-13.2,1.2-20.7-3.6-28.8-6.3C203.1,846.5,199.2,845.2,195.3,843.9z"/>
	<path class="st31" d="M156.6,933.3c2.5-5.3,6.7-9.1,11.7-11.9c1.2-0.5,2.3-1.3,3.5-1.5c5.9-1.1,11.5-7.3,17.5-2.8
		c3.9,3,1.9,8.2-0.3,12.3c-3.9,7-10.2,9.4-17.7,8C166.3,936.4,161.5,934.6,156.6,933.3z"/>
	<path class="st32" d="M441.7,641.2c0.1,5-3.7,8.8-3.3,14.3c0.5,6.2-2.8,3-4.9,0.6c-9.1-5.8-19.5-10.2-26.8-18.3
		c-5-5.5-14.3-10.4-8.3-20.7c0,0,0.1,0.1,0.1,0.1c9.5-0.9,13,7.4,18.1,12.6C423.7,637.2,431.3,642,441.7,641.2z"/>
	<path class="st26" d="M300.7,707.2c-5.9-2.1-15.1-3.3-10.9-12c4-8.5,10.7-16.9,20.9-18.6c3.2-0.5,2.3,6.5,2.7,10.2
		C313.9,696.6,313.4,705.7,300.7,707.2z"/>
	<path class="st33" d="M292.6,711.8c-3.6,10.8-17,14.6-19.2,26.4c-11.5-5.1-10.3-13.4-5.4-22.2C274.4,704.6,283.3,706.6,292.6,711.8
		z"/>
	<path class="st34" d="M160,871.6c-3-0.9-7.3-0.8-8.7-2.8c-3.5-4.9,2.3-6.2,4.9-8.1c11.5-8.6,24.6-13.3,38.5-16.4
		c0.2,2.4,0.4,4.8,0.6,7.2C182.2,856,170.1,862,160,871.6z"/>
	<path class="st35" d="M796.7,250.1c10.1-9.8,10.2-25.2,19.6-35.3c8.2,12.8,2,23.7-5.1,34C807.6,254.1,802.2,256.3,796.7,250.1z"/>
	<path class="st36" d="M94.3,925.6c-1.2,7.5,4.6,18-8.7,20.4c-2.1-4-5-7.7-6.2-12c-2.2-7.8-6.9-18.7,2-22.5
		C88.2,908.5,88.6,921.7,94.3,925.6z"/>
	<path class="st37" d="M784.8,285.5c8.4-6.1,20-8.6,23.3-20.5c2.4-3.1,5.1-7.1,9.2-5.3c4.7,2,2.6,6.6,1.1,10
		C811.6,284.2,800.9,290.7,784.8,285.5z"/>
	<path class="st38" d="M117.3,855.8c-8.8,4.7-7,16.6-15,21.9c-1.8-9.9-4.9-19.8,1.7-29.3c4.4-6.3,11.6-7.7,16.7-4.3
		C127.5,848.6,118.1,851.6,117.3,855.8z"/>
	<path class="st39" d="M381.7,670.3c5.4,4.4,10.8,8.9,16.4,13.1c3.1,2.3,7.6,3.9,4.8,8.7c-1.5,2.6-4.5,4.7-7.3,6
		c-4.2,1.9-7.6,0-9.3-4.2c-2.8-7-5.3-14.2-8-21.3C379.4,671.8,380.6,671.1,381.7,670.3z"/>
	<path class="st40" d="M128.8,945.5c6.9-7.3,16.1-2.6,24-4.5c4.7,1.1,10.7-0.5,13.3,6.8C152.9,956.6,140.8,952.9,128.8,945.5z"/>
	<path class="st41" d="M210.6,789.5c-5.2-2.8-3.8-7.8-3.9-12.2c6-5.3,9.2-25,20.4-4.1c0.1,1.4,0.1,2.7,0.2,4.1
		C224.3,784.9,219.9,790.6,210.6,789.5z"/>
	<path class="st42" d="M339.6,699.4c-3.4,5.8-7.2,11.1-14.9,11.1c-2-8-2.6-16.5-8.4-23.1l0.2,0.3c-0.8-6,2.7-7.8,7.9-8
		c0,0-0.2-0.2-0.2-0.2C324.9,689.6,332.8,694.1,339.6,699.4z"/>
	<path class="st43" d="M300.7,707.2c5.6-6,11-12.1,12.7-20.4c1.1,0.3,2.1,0.6,3.2,0.9c0,0-0.2-0.3-0.2-0.3
		c-1.3,9.6,1.6,18.8,4.1,28.6C311.5,715.9,306,711.7,300.7,707.2z"/>
	<path class="st44" d="M284.6,750.5c-4.3,7.7-7.4,18.4-18.9,7.2C263.3,732.4,278.1,752.4,284.6,750.5z"/>
	<path class="st45" d="M903.8,469c13-48.7,25.1-97,22.2-147.6c-0.4-6.6,3.4-11,7.8-14.9c2.3-2.1,4.6-5.2,8.3-3.5
		c3.7,1.7,3,5.5,2.7,8.5C940.5,366.5,934.3,421,903.8,469z"/>
	<path class="st46" d="M483.4,201.8c0.1,4-2.3,7.7-5.2,6.9c-7.1-2.2-11.6-7.9-13.1-15.2c-0.8-4,1.4-8.4,6.2-7.2
		C479.1,188.2,481.2,195.4,483.4,201.8z"/>
	<path class="st47" d="M234,770.4c8.3-6.3,12.3-17.7,23.8-20.4c0,3.9,0.2,7.8,0.1,11.6c-0.3,6.8,2.4,15.4-6.5,18.4
		C243.1,782.8,238.6,775.7,234,770.4z"/>
	<path class="st48" d="M210.6,789.5c5.6-4.1,11.1-8.1,16.7-12.2c3.9,5.3,17.6,3.8,12.1,15.4c-5.2,10.8-13.3,6.4-20.9,2.1
		c-2.1-1.2-4.8-1.3-7.3-1.9C211.1,791.8,210.9,790.6,210.6,789.5z"/>
	<path class="st49" d="M211.1,812.3c0.7-6.4-8.9-12.7-0.2-19.2C208.1,799.5,234.1,805.6,211.1,812.3z"/>
	<path class="st50" d="M398.4,617.1c3.8,20.2,24.3,25.3,35.2,39c-1.2,0.1-2.5,0.3-3.7,0.4c-15.8-5.4-26.7-17.9-39.7-27.4
		c-7.6-11-11.7-22.6-6.2-38.9C389.9,600.4,391.1,610.6,398.4,617.1z"/>
	<path class="st51" d="M207.4,820.2c-4.7,6.2-5.5,14.8-12.1,19.9c-5.3-3.8-10.5-7.7-15.8-11.5c5.9-10.7,12.4-20.9,22.7-28
		C203.9,807.1,205.6,813.6,207.4,820.2z"/>
</g>
</svg>
