<?xml version="1.0" encoding="utf-8"?>
<!-- Generator: Adobe Illustrator 23.0.1, SVG Export Plug-In . SVG Version: 6.00 Build 0)  -->
<svg version="1.1" id="Layer_4" xmlns="http://www.w3.org/2000/svg" xmlns:xlink="http://www.w3.org/1999/xlink" x="0px" y="0px"
	 viewBox="0 0 1000 1000" style="enable-background:new 0 0 1000 1000;" xml:space="preserve">
<style type="text/css">
	.st0{fill:#010000;}
	.st1{fill:#010101;}
	.st2{fill:#000101;}
	.st3{fill:#364F5B;}
	.st4{fill:#91A2A7;}
	.st5{fill:#1D333C;}
	.st6{fill:#90A2A7;}
	.st7{fill:#91A3A8;}
	.st8{fill:#D0D8DA;}
	.st9{fill:#90AFC3;}
	.st10{fill:#935E00;}
	.st11{fill:#FDB515;}
	.st12{fill:#2B5260;}
	.st13{fill:#FAE0C3;}
	.st14{fill:#B5F8F6;}
	.st15{fill:#F7B316;}
	.st16{fill:#8E5900;}
	.st17{fill:#7D0000;}
	.st18{fill:#F80101;}
	.st19{fill:#EEEBEB;}
	.st20{fill:#E2D0B4;}
	.st21{fill:#925C00;}
	.st22{fill:#B4F7F5;}
	.st23{fill:#F7DEC0;}
	.st24{fill:#800000;}
	.st25{fill:#8F5A00;}
	.st26{fill:#F5B215;}
	.st27{fill:#F10202;}
	.st28{fill:#F9F2F2;}
	.st29{fill:#EFCE95;}
	.st30{fill:#DFCAAA;}
	.st31{fill:#FBB416;}
	.st32{fill:#8EADC0;}
	.st33{fill:#956000;}
	.st34{fill:#FBDFB8;}
	.st35{fill:#B3F2F1;}
	.st36{fill:#ECAE1A;}
	.st37{fill:#835500;}
	.st38{fill:#FBB415;}
	.st39{fill:#90AFC2;}
	.st40{fill:#915F03;}
	.st41{fill:#2A4E5C;}
	.st42{fill:#F8E0BE;}
	.st43{fill:#2F2B1F;}
	.st44{fill:#E8AD16;}
	.st45{fill:#B0EEED;}
	.st46{fill:#885801;}
	.st47{fill:#212018;}
	.st48{fill:#456978;}
	.st49{fill:#A5DBDE;}
	.st50{fill:#294E5B;}
	.st51{fill:#88A9BB;}
	.st52{fill:#A9E1E3;}
	.st53{fill:#D1D9DB;}
</style>
<g>
	<path d="M822.6,515.7c-25.5-2.8-58.3-2.5-88.4-16c-9.8-4.4-16.1,1.8-21.7,5.5c-48.3,31.5-100,34.8-155.1,24
		c-26.3-5.2-50.9-13.3-74.3-25.6c-5.6-2.9-9.5-4.5-15.7-0.9c-23.7,13.7-50.5,20.3-76.8,23.8c-32.5,4.3-64.2-5.2-93-20.7
		c-6.1-3.3-9.7-2.9-14.6-1.3c-66.6,21.5-127.9,9.3-184.8-29.4c-24.6-16.7-45.7-37.3-55.1-66.3c-24.7-76.5,14.6-139.1,94.9-162.5
		c21.8-6.4,43.8-10.8,66.4-1.5c12,5,14.7-3.6,14.2-13.4c-2.2-39.2,15.5-69.2,42.1-96.2c20.1-20.3,45.3-31.1,71.3-36.6
		c34.1-7.2,69-7.5,104.2,2.1c39.2,10.6,65.7,33.6,83.2,68.6c7.5,15,13,23.1,34.9,19.4c57.9-9.9,131.3,36.6,145,92
		c6.4,26,19.8,26.9,40.1,28.4c20.5,1.6,40.9,6.8,57.5,20.9c3.5,3,5.4,5.8,12.6,3.7c49.7-14.3,96-4,135.5,28.1
		c26.3,21.3,50.1,57.5,35.4,93.2c-11.7,28.6-34.3,46.3-63.5,52.1C888.2,512.8,858.7,515.8,822.6,515.7z"/>
	<path class="st0" d="M689.4,562.5c45.5-0.3,49.2,14.9,71.7,62.5c21.9,46.5,30,97.7,34.5,148.1c2.7,30.2-2.1,62.2-10.3,92.3
		c-5.5,20.2-11.9,21.7-26.8,8.4c-35-31.4-61.8-69.6-86.3-109c-23.6-37.8-42.8-77.8-51.4-122.3c-8-41,21.3-79.6,62.8-80
		C685.5,562.5,687.5,562.5,689.4,562.5z"/>
	<path class="st0" d="M43,784.9c6.7-64.8,31.1-129.7,75.7-186.8c16.8-21.6,31.9-44.4,55.7-59.6c21.4-13.6,49.2-12.4,69.5,4.3
		c16.7,13.8,22.1,37.8,13.3,60.5c-23.9,61.7-62.6,112-113.4,154.3c-23.6,19.6-49.2,35.3-75.5,50.2C43.5,821.7,42.9,820.7,43,784.9z"
		/>
	<path class="st1" d="M366.9,764.7c2.7-35.3,2.7-71.4,33.8-97.2c12.6-10.4,38-15.2,53.4-8.2c17.5,8,23.3,22.8,22.3,40.5
		c-3.3,63.3-33.1,111.7-84.6,147.4c-9,6.3-15.2,5.9-17.3-8.4C370.9,814.2,366.1,789.9,366.9,764.7z"/>
	<path class="st1" d="M968.2,653.4c2.1,16.7-5.4,20.9-15.9,18.2c-43.4-11.3-76.8-36.9-100.6-74.6c-12.5-19.9-7.6-39.9,10.6-55
		c14-11.6,38.3-8.7,55.3,6.8c26.3,24,41.2,54.9,47.3,90C966,645,967.6,651,968.2,653.4z"/>
	<path class="st2" d="M367.2,595.1c-0.1,28.6-26.9,64.7-52.9,74c-5.1,1.8-6.6,0.3-8.8-2.6c-15.9-20.7-5.6-85.9,16.9-98.9
		c8.1-4.7,16.6-13.6,29.1-5.4C364.5,570.8,368.4,581.9,367.2,595.1z"/>
	<path class="st1" d="M519.5,583.6c0.3-25.6,12.4-41.7,30.3-44.4c13.2-2,27.4,12.9,32.3,34c6.2,26.5,0.1,50.5-15,72.6
		c-5.2,7.6-9.6,7.1-16.8,0.7C529.9,628.4,524,604.3,519.5,583.6z"/>
	<path class="st3" d="M956.7,402.7c6.6,4.6,8.1,11.5,8.4,18.9c1.2,21.3-9.5,37.2-33,46.8c-28.9,11.8-59.7,14.7-90.1,12.2
		c-24.5-2-49.5-0.7-73.7-7c-10.9-2.9-21.7-5.9-29.1-14.7c-9-10.6-16.1-9.2-25.5-0.1c-31.2,30.1-67.9,47.4-112.3,46.5
		c-24.6-0.5-47.2-4.7-59.6-29.1c-9.7-19.1-3.2-41.6,17.4-65.7c2.2-1.5-2.1-2.9,0-1.3c10.6,8.2-49.7,19.5-72,13.7
		c-8.7-2.3-16.8-6.8-28.2-9.1c5.4,20-0.2,35.6-14.6,48c-18.4,15.8-40.3,20.5-63.8,19c-49.8-3.1-94.6-22.2-140.3-44.3
		c4.6,7.5,6.6,14.8,6.1,22.6c-0.6,9.1-5.2,15.9-12,21.5c-6.7,5.4-14,9.9-22.4,11.5c-10.7,2-21.7,4.3-32.6,0.5
		c-21-4.2-41.5-9.4-58.9-23c24.5-15.2,24.9-15.4,14.2-44.2c-28.3-77,27.5-127.5,99.8-119.2c34.5,3.9,62,21.7,88.6,42
		c5.2,4,10.4,13.1,17.7,8.7c6.1-3.6,4.6-12.9,5.2-19.9c0.8-10.4-0.7-20.7-2.1-31c-4.5-32.9,2.9-63.8,20.8-91.2
		c23.7-36.2,58.5-49.5,101.2-43.3c18,2.6,18.1,2.2,13.6-14.6c-1-3.8-2.1-7.5,0.2-11.2c34.2,31.8,46.7,71.2,39.6,119.4
		c11.3-10.8,11.5-22.3,12.3-34c0.5-7.8-4.1-16.8,3.7-23.6c3.8,4.1,5.1,9.2,4.9,14.4c-1.1,21.4,11.3,31.6,29.9,37.7
		c20.6,6.8,42,8.5,63.3,10.9c18.5,2.1,15.3-16.2,23-24.3c19.1,13.1,25.1,33.5,30.4,54.4c2.6,10.2-4.7,11-11.9,13.2
		c-30.2,9-51.7,27.2-61.2,61.9c16.8-15.1,23.9-36.6,46.4-39.8c1.5,9.8-7.6,12.6-12.4,18.2c-11.4,13.3-11.3,24.7,4.2,31.3
		c46.5,19.8,94.6,26.3,144.5,13.6c13.2-3.4,13-16.8,20.6-24.2c3.1,2,6.2,4,9.8,6.2c2.8-10.4-8-16.4-6.4-25.5
		c14-0.7,19.7,11.3,27.4,19.2c20.9,21.3,45.7,33.8,75.1,37.9C935.5,414.2,947.6,413.7,956.7,402.7z"/>
	<path class="st4" d="M479.7,145.4c3.1,11.6,17.9,22.8,10.5,33.5c-6.4,9.3-19.6-2.4-29.9-3.8C383,164.9,342.3,237.2,349,305.3
		c2.2,21.7,2,42.5-3.7,66.3c-15.6-11.9-29.9-23.6-45-34.1c-28.4-19.8-59-31.3-94.8-25.9c-59,8.9-85.4,49.2-68,106.1
		c1.7,5.6,4.4,10.8,6.4,16.3c9.8,26.5,4.8,34.1-23.3,35.5c-40.8-19.9-71-64.4-68.4-100.9C56,315.9,82.8,284,132.6,265
		c54.4-20.7,98.5,0.5,142.1,28.7c19.2,12.4,34.8,29.1,52.2,44.1c-9.7-23-25.3-41.5-45.2-56.1c-11.5-8.4-23.9-15.8-36.7-22
		c-9.8-4.8-11.6-10.4-11.6-21.1c0-82,74.6-134.7,158.5-128.1C424.3,113.1,457.1,117.2,479.7,145.4z"/>
	<path class="st5" d="M179.5,492.4c15.3,0.8,29.5-2.6,43.1-9.8c22.6-12.1,26.1-26.3,11.4-47.5c-1.7-2.4-5.3-3.9-3.1-10.2
		c22.3,13.3,46.3,22.1,69.7,32.3c27.8,12.1,57.2,16.7,86.7,18.8c20.2,1.4,39.5-5,55.7-18.7c17.9-15.2,14.9-33.6,4.6-57.7
		c44.8,28.2,84.5,26.3,124.1,1.4c-6.4,8.6-13.4,16.8-19.1,25.8c-23.1,36.6-4.4,70.8,38.8,73.4c49.4,2.9,90-15.1,123.7-49.7
		c8.7-8.9,14.2-13.1,22.6-0.1c9.8,15,26.1,18.2,42.5,19.8c49.4,4.9,99.1,12.2,147.6-5.5c19.8-7.2,34.8-20,37.3-43
		c6.9,22.7-6.3,52.1-31.3,61.6c-35.3,13.4-72.7,18.1-110.4,14.1c-19.9-2.1-40.4,1.7-59.9-4.9c-2.4-0.8-5.7-0.2-7.5-1.6
		c-24.1-18.2-43.1-5.1-65.1,7c-69.8,38.8-137.6,21.5-203.2-12.8c-7.8-4-12.8-3.6-19.6-0.5c-20.1,9.2-40.4,17.8-61.9,22.9
		c-44.6,10.5-84.1-4.5-122-26.3c-5.4-3.1-10.5-6.7-16.1-10.4c-3.2,9.2,13.5,11.5,5.8,20.3c-5,5.6-13.3,4.1-20.1,5.8
		C228.5,503.5,204,498.6,179.5,492.4z"/>
	<path class="st6" d="M816.9,374.6c3.9,20.6-8.7,28-25.6,31.4c-46.3,9.5-91.4,4.3-135.2-12.3c-29.6-11.3-31.8-27.4-7.8-47.8
		c3.9-3.3,7.8-6.7,11.6-10.1C714.1,308.8,783.8,326,816.9,374.6z"/>
	<path class="st6" d="M956.7,402.7c1.1,13.8-7.6,16.1-18.6,15.9c-37.6-0.7-69.1-15.4-95.4-41.9c-7.3-7.3-14.8-14.3-22.2-21.5
		c0.8-15.9,14.4-10.7,21.6-10.8C890.2,343.6,930,360.5,956.7,402.7z"/>
	<path class="st7" d="M656.3,246c1.1,28-4.1,32.6-32.4,28.4c-15.3-2.3-30.8-3.3-45.7-7.2c-39.6-10.6-42.8-15.7-42.9-59.9
		c18.6-2.4,37-2.9,55.1,3.3c-7.2,7.8-16.9,4-25.5,5.4c-3.7,0.6-8.4,0-10,4.4c-1.6,4.5,2.3,7,5.6,8.9c16.4,9.5,34.1,15.1,53,17
		c4,0.4,8.2-0.2,10.2-4c2.7-5-1.2-8.2-4.2-11.6c-4.6-5.4-15-5.8-14-16.1C627,217.8,642.5,230.5,656.3,246z"/>
	<path class="st8" d="M605.5,214.6c6.7,4.8,13.7,9.4,20.2,14.6c4.5,3.7,9.1,8.1,6,14.9c-2.7,5.9-8.9,9.1-14.3,8.3
		c-22.4-3.3-44.5-8.4-63.8-21.1c-3.9-2.6-9.9-6-8.1-11.9c1.8-6.1,7.5-8.5,13.9-8.6c10.3-0.1,20.7-0.1,31-0.1
		C595.5,211.9,600.5,213.2,605.5,214.6z"/>
	<path class="st9" d="M718.6,679.5c-16.1,0.4-29.5,7.6-42.1,16.7c-21.4-15.7-26.1-38.5-27.1-63c10.7-16.9,26.7-23.7,46.1-24
		C711.8,629.8,722.6,652.2,718.6,679.5z"/>
	<path class="st10" d="M710.9,722.5c34.4-10.4,70.7,5.5,66.9,41.5c-3,28.2,1,57.1-3.9,85.5c-1.1,6.5-1.7,11.1-8.3,3.6
		c-8.4-17.6-10.9-37-16-55.6c-3.8-13.7-7.8-27.3-11.2-41.1C734.5,740.3,727,728.2,710.9,722.5z"/>
	<path class="st11" d="M710.9,722.5c17.3-3.9,24.5,3.7,28.8,20.5c9.3,36.6,23.1,72,25.9,110.1c-1.2-0.7-2.3-1.3-3.5-2
		c-25.6-32-41.9-69.6-63.9-103.8c-2.1-3.3-3.2-7.1-2.9-11.1C697.3,728.1,704.1,725.3,710.9,722.5z"/>
	<path class="st12" d="M718.6,679.5c-2.6-25.1-15.3-46.8-23.2-70.2c42,1,54.3,14.8,69.9,79.2C748.9,687.9,734.8,677.5,718.6,679.5z"
		/>
	<path class="st13" d="M695.3,736.3c24.8,36.9,47.2,75.1,66.8,114.9c-4.8,1.2-7.3-2.3-9.5-5.2c-19.5-26-38.6-52.3-58.1-78.3
		C686.3,756.8,685.9,746.5,695.3,736.3z"/>
	<path class="st14" d="M649.4,633.2c8.1,21.4,13,44.2,27.1,63c-3.4,6.1-6.8,12.3-10.7,19.5c-13.5-17.8-18.8-38.4-25.4-58.2
		C637,647.6,644.2,640.5,649.4,633.2z"/>
	<path class="st15" d="M642.2,600.8c9.7-14.6,23.3-22.1,41-22c6.1,6,14.3,11.2,7.6,21.7c-16.5,0.6-29.4,9.6-42.2,18.5
		C637.1,616.2,642.8,607.4,642.2,600.8z"/>
	<path class="st16" d="M690.7,600.5c-2.5-7.2-5.1-14.4-7.6-21.7c29.9-3.6,36.7,0,50.8,28.2C718.9,603.7,705,600.1,690.7,600.5z"/>
	<path class="st17" d="M722.3,688.2c34.9,4,47.7,11.8,50.3,33c-18.8-9.9-38.2-11.2-57.9-10.5C726.8,706.4,721.3,696.2,722.3,688.2z"
		/>
	<path class="st18" d="M722.3,688.2c7.4,10.8,7.9,19.4-7.6,22.5c-10,1.1-16.7,8-24.1,13.7c-8.4-1.2-10.8-6.8-10.4-14.3
		C689.2,693,705.6,690.4,722.3,688.2z"/>
	<path class="st19" d="M680.2,710c3.5,4.8,6.9,9.6,10.4,14.3c-2.4,5.9-8.2,10.2-7.2,18.4C669.5,729.8,669.5,729,680.2,710z"/>
	<path class="st20" d="M642.2,600.8c2.1,6,4.2,12.1,6.3,18.2c-3.5,5.7-6.9,11.4-11.3,18.7C629.6,622.6,637,611.9,642.2,600.8z"/>
	<path class="st21" d="M144.2,672.5c7.5,4.1,13.4,10.1,18.9,16.6c8.1,9.5,8,19.3-0.1,28.1c-27.4,30.2-60.8,52.7-95.3,73.7
		c-3.9,2.4-7.4,1.8-10.3-1.8c1.5-2.2,3.2-4.3,4.5-6.6C89.2,745.7,114.5,707.5,144.2,672.5z"/>
	<path class="st12" d="M211.2,578c25.8,24.3,27.4,33.5,10.7,63.5c-0.6,1.1-1.4,2.2-2,3.3c-22.8,38.7-22.8,38.7-51.9,3.3
		c-2.6-6.3,1-11.2,4.1-15.9C184.3,613.6,196.5,594.9,211.2,578z"/>
	<path class="st11" d="M144.2,672.5c-18.5,34.8-44,64.8-67.2,96.3c-4.5,6.2-9.9,11.8-14.8,17.7c-4.5-11.5,3.1-21.5,4.2-32.3
		c7.6-25.9,19-50.1,33.1-73.1c4.7-7.7,9.5-15.2,17.9-19.5C127.6,662.1,136.2,666.4,144.2,672.5z"/>
	<path class="st9" d="M211.2,578c-5.6,20.6-22.2,34.4-32.1,52.2c-3.4,6.1-7.4,11.9-11.2,17.9c-11.8-5-23.7-10-35.5-15
		c16.9-22.1,29.9-47.2,51-66C193.9,567.5,203,571.5,211.2,578z"/>
	<path class="st22" d="M183.4,567.2c-15,23.5-28.2,48.4-51,66c-5.5-0.5-10.9-1-18.8-1.8c15-20.9,28.3-40.3,45-57.2
		C165.6,567.1,174,565.7,183.4,567.2z"/>
	<path class="st23" d="M117.4,661.6c-19.8,28.6-34.9,59.7-47.5,92c-7.3,0.3-5.1-4.2-4-8.1c3.4-23.2,12.9-44.5,21.5-66.1
		C92.8,665.7,102.2,658.9,117.4,661.6z"/>
	<path class="st24" d="M156.4,652.2c11.4,8.4,21.6,17.9,29.7,29.5c3.9,5.6,3.7,10.9-2.1,15c-7.7,5.3-8.6-2.6-10.5-6.3
		c-5.7-11.5-17-17-25.8-25.2C148.9,659.7,152.2,655.6,156.4,652.2z"/>
	<path class="st25" d="M226.2,551.4c16.8,10.4,18,25.8,14.2,46.6c-8.6-10.5-15.2-18.7-21.8-26.9
		C215.8,562.5,221.2,557.1,226.2,551.4z"/>
	<path class="st26" d="M226.2,551.4c2.4,8.4-5.1,13.1-7.6,19.7c-8.1-4-16.1-8.1-24.2-12.1c-1.5-10.9,9.3-8.4,13.9-12.6
		C214.9,545.9,220.6,548.4,226.2,551.4z"/>
	<path class="st27" d="M156.4,652.2c1.1,7-1.2,11.7-8.7,13c-8-4.1-16-8.1-23.9-12.2c-1.6-5.7,1.5-8.9,6-11.5
		C140.1,641.5,147.9,647.6,156.4,652.2z"/>
	<path class="st28" d="M129.8,641.5c-2,3.8-4,7.7-6,11.5c-7,0-13.9,0-22.1,0C107.1,637.8,118.1,638.8,129.8,641.5z"/>
	<path class="st29" d="M65.9,745.5c1.3,2.7,2.7,5.4,4,8.1c-2.6,10.9-5.1,21.8-7.7,32.8c-1.6,0.9-3.2,1.8-4.8,2.7
		C57.4,774.1,60.4,759.6,65.9,745.5z"/>
	<path class="st30" d="M208.3,546.4c-4.6,4.2-9.3,8.4-13.9,12.6c-5,0-10.1,0-18.1,0C186.6,547.6,196.7,545.1,208.3,546.4z"/>
	<path class="st31" d="M390.9,828.4c-6.9,3-7.6,2.2-6.7-7.4c3.5-25.9-2.1-52.9,9.8-77.8c10-6,19.3-4,28.2,2.6
		c4.4,6.8,2.6,13.7,0.1,20.5C413.9,788.1,405.9,810,390.9,828.4z"/>
	<path class="st32" d="M429.7,735.1c-10.5-2.9-20.9-5.8-31.4-8.7c-8.3-14.1,3.8-23.6,7.9-35c12.7-6.7,24.7-6.2,35.7,3.6
		C445.6,710.7,439.8,723.5,429.7,735.1z"/>
	<path class="st33" d="M390.9,828.4c4.6-21,18.9-38,24.8-58.5c2.3-8,7.1-15.3,6.5-24.1c18,14.4,20.8,24.4,8.3,41.8
		C419.5,803,408.6,819.2,390.9,828.4z"/>
	<path class="st12" d="M429.7,735.1c4.1-13.4,8.2-26.7,12.2-40.1c20.1,17.2,21.2,28.4,4.8,58C440.9,746.8,435.3,740.9,429.7,735.1z"
		/>
	<path class="st34" d="M393.9,743.3c-2.7,26-3.8,52.2-9.8,77.8c-3.4-20.9-3.2-41.8-1.8-62.8C382.8,749.8,386,745.1,393.9,743.3z"/>
	<path class="st35" d="M406.2,691.4c2.6,12.8-8.7,22.5-7.9,35c-3.4,1.4-7.4,4.6-9.9,3.7c-4.6-1.7-2-6.9-0.8-9.8
		C391.8,709.4,391.9,695.7,406.2,691.4z"/>
	<path class="st36" d="M441.1,684.1c-8.4-2.9-16.7-6.2-26.3-5.2c9.6-8.3,19.7-10.6,31-3.6C447.6,680,448.3,684.2,441.1,684.1z"/>
	<path class="st37" d="M441.1,684.1c1.6-2.9,3.1-5.9,4.7-8.8c11.3,4.2,12.1,14.4,17.5,27.7C453.3,694.4,447.2,689.2,441.1,684.1z"/>
	<path class="st38" d="M945.5,657.2c-1.2-0.5-2.5-1-3.7-1.5c-14.6-14.2-33.9-23.4-44.6-41.8c-0.9-7,3.5-10,9-12.3
		c3.8-1.1,7.7-2.3,11.5-3.4c18.6,12.9,27,32.2,33.1,52.9C951.8,654.8,949.6,657.1,945.5,657.2z"/>
	<path class="st39" d="M906.4,593.7c-1.4,1.3-2.8,2.6-4.1,3.8c-1.7,4.1-4.7,6.5-9.1,7c-10.8-0.4-15.9-8.3-21-16.2
		c-1.5-12.5-1.2-23.9,16-23.8C909.3,574.4,912.4,579.4,906.4,593.7z"/>
	<path class="st40" d="M945.5,657.2c7.5-5.5,1.2-10.6-1.2-14.8c-8.5-15-17.7-29.5-26.7-44.2c10.2-6.3,17.1-2.1,21.9,7.2
		c7.7,14.9,12.1,31.1,15.4,47.4C957.1,663.8,951.5,661.9,945.5,657.2z"/>
	<path class="st41" d="M906.4,593.7c6-15.8-11-18-16.1-27.3c3.8-2.9,8-2,12.1-0.9c13.7-0.1,18.5,11.2,28.4,20.8
		C921.2,589.2,913.8,591.5,906.4,593.7z"/>
	<path class="st42" d="M899.5,613.5c12.4,15.8,32.6,23.8,42.3,42.3c-16.8-5.2-29.2-17.5-43.4-26.9
		C896.3,623.6,894.4,618.3,899.5,613.5z"/>
	<path class="st43" d="M902.4,565.5c-4,0.3-8.1,0.6-12.1,0.9c-17,0.3-14.4,12.9-14.9,23.6c1.7,2.9,2,5.5-1.1,7.7
		c-7.6-1.9-14.5-4.3-7.4-14c-2.6-9.6-0.3-17.4,8.8-22.5c2-0.5,3.9-0.2,5.6,1C888.2,563.3,896,560.3,902.4,565.5z"/>
	<path class="st44" d="M878.2,561.9c-8,5.1-8,14.3-11.4,21.8c-15-12-3.6-20.5,3.9-29.4c3.1-1.6,6.1-1.9,8.5,1.1
		C881.1,557.7,880.2,560,878.2,561.9z"/>
	<path class="st45" d="M874.3,597.7c0.4-2.6,0.7-5.1,1.1-7.7c7.3,2.8,10.7,12.4,20.1,11.7c3.3,6.6-1.1,10.9-4.7,15.5
		C879.3,615.7,877.1,606.5,874.3,597.7z"/>
	<path class="st46" d="M878.2,561.9c0.5-5.4-3.1-6.9-7.4-7.6c9.8-6.6,19.3-5.2,30.5,1.4c-7,4.9-15.3,0.9-20.1,6.5
		C880.2,562.1,879.2,562,878.2,561.9z"/>
	<path class="st47" d="M890.8,617.2c1.6-5.2,3.2-10.3,4.7-15.5c2.2-1.4,4.5-2.8,6.7-4.2c1.3,1.3,2.6,2.7,3.9,4
		c-2.2,4-4.4,7.9-6.6,11.9c-2.9,4.9-2,10.2-1.1,15.4C895.9,625,893.3,621.1,890.8,617.2z"/>
	<path class="st48" d="M343.2,578.7c13.4,4.9,8.4,16,6.9,24.4c-3.3,18.7-16.1,31.8-30.4,43c-2.5,2-4-1.4-3.8-4.2
		C321.1,619.2,324.2,595.5,343.2,578.7z"/>
	<path class="st49" d="M343.2,578.7c-9.1,21.1-18.2,42.2-27.4,63.2c-9.6-22.8,1.7-41.5,12.1-60.2C331.7,574.9,338,579.1,343.2,578.7
		z"/>
	<path class="st50" d="M546.6,557.9c12.7-5.4,17.4,4.3,18.5,12.7c2.7,19.7,5.4,40.1-6.4,58.4C548.3,606.5,550.7,581.6,546.6,557.9z"
		/>
	<path class="st51" d="M546.6,557.9c14.4,15.1,6.1,35,11,52.2c1.7,5.9,0.8,12.6,1.1,18.9c-2.9,6.4-5.2,4.9-7.4-0.4
		c-6.7-21.8-15.3-43.4-9.4-67C543.5,560.4,545.1,559.2,546.6,557.9z"/>
	<path class="st52" d="M541.9,561.7c9.1,7.7-0.4,17.4,3.3,26.8c4.8,12.3,4.4,26.7,6.2,40.2C539.7,607.5,527.8,586.4,541.9,561.7z"/>
	<path class="st53" d="M382.2,117.2c11,0.1,22.1-0.7,32.8,3.2c4.6,1.7,12,0.1,11.9,6.9c-0.1,5.2-6.6,4.7-11,5.9
		c-13.1,3.6-26.2,7.2-39.1,11.7c-24.8,8.7-42,25-49.4,50.9c-3.6,12.4-7.6,24.8-11.3,37.2c-7.3,24.3-21.2,36.1-37.1,31.3
		c-22-6.7-36.9-32.5-30.8-53.5c15.9-55.1,63.2-91.8,120.4-93.4C373.1,117,377.6,117.2,382.2,117.2z"/>
	<path class="st53" d="M231,278.3c-114.4,18-147.8,54.4-140,152.4c-22.5-19-30.8-41.2-28.5-67.5c3.8-43.2,29.5-71,66.5-89
		C161.9,258.2,195.2,259,231,278.3z"/>
	<path class="st53" d="M727.2,332c17.8-1.9,33.6,3.7,47.9,13.1c9.2,6.1,12.3,15.6-0.2,20.6c-27.6,10.9-56.4,18.1-86.4,12.4
		c-9.3-1.8-19.7-6-20.2-17.9c-0.5-11.5,8.3-16.8,17.7-20.4C699.2,334.6,712.9,330.5,727.2,332z"/>
	<path class="st53" d="M858.2,351.1c21,2.5,41.1,9.4,59.9,20.1c4.1,2.4,8.2,5.4,7,10.5c-1.8,7.1-8.4,5.3-13.1,4.6
		c-23.4-3.5-44-14.9-65.4-24c-2.8-1.2-6.6-3.8-4.7-7.3C845.4,348.6,852.2,352.5,858.2,351.1z"/>
</g>
</svg>
