<?xml version="1.0" encoding="utf-8"?>
<!-- Generator: Adobe Illustrator 23.0.1, SVG Export Plug-In . SVG Version: 6.00 Build 0)  -->
<svg version="1.1" id="Layer_4" xmlns="http://www.w3.org/2000/svg" xmlns:xlink="http://www.w3.org/1999/xlink" x="0px" y="0px"
	 viewBox="0 0 1000 1000" style="enable-background:new 0 0 1000 1000;" xml:space="preserve">
<style type="text/css">
	.st0{fill:#130D02;}
	.st1{fill:none;}
	.st2{fill:#302725;}
	.st3{fill:#352709;}
	.st4{fill:#77A7A4;}
	.st5{fill:#342609;}
	.st6{fill:#38290A;}
	.st7{fill:#3B2B0B;}
	.st8{fill:#3B2C0C;}
	.st9{fill:#010101;}
	.st10{fill:#83682D;}
	.st11{fill:#7E632C;}
	.st12{fill:#725A27;}
	.st13{fill:#81662C;}
	.st14{fill:#79602B;}
	.st15{fill:#997A39;}
	.st16{fill:#322408;}
	.st17{fill:#7A612A;}
	.st18{fill:#A1803B;}
	.st19{fill:#9E7D37;}
	.st20{fill:#755D28;}
	.st21{fill:#7E642D;}
	.st22{fill:#4C3A17;}
	.st23{fill:#FEFEFE;}
	.st24{fill:#9A7A35;}
	.st25{fill:#705926;}
	.st26{fill:#493813;}
	.st27{fill:#37454E;}
	.st28{fill:#9C7C36;}
	.st29{fill:#8F733B;}
	.st30{fill:#B89B6E;}
	.st31{fill:#A7853B;}
	.st32{fill:#9B7B36;}
	.st33{fill:#9D7D37;}
	.st34{fill:#B79B6E;}
	.st35{fill:#9C7C37;}
	.st36{fill:#332509;}
	.st37{fill:#ECCC91;}
	.st38{fill:#9E7E38;}
	.st39{fill:#987835;}
	.st40{fill:#775E29;}
	.st41{fill:#785F2A;}
	.st42{fill:#9D7C37;}
	.st43{fill:#7D622A;}
	.st44{fill:#765E29;}
	.st45{fill:#896D31;}
	.st46{fill:#755C28;}
	.st47{fill:#765D29;}
	.st48{fill:#D1B075;}
	.st49{fill:#D9BB81;}
	.st50{fill:#735A27;}
	.st51{fill:#B59961;}
	.st52{fill:#9A7B36;}
	.st53{fill:#685224;}
	.st54{fill:#AC8F5E;}
	.st55{fill:#785F28;}
	.st56{fill:#D7BA85;}
	.st57{fill:#9E7E37;}
	.st58{fill:#C9AB7A;}
	.st59{fill:#755D29;}
	.st60{fill:#9A7A36;}
	.st61{fill:#735B27;}
	.st62{fill:#765D2A;}
	.st63{fill:#D9BC80;}
	.st64{fill:#3C2C0A;}
	.st65{fill:#79602A;}
	.st66{fill:#997935;}
	.st67{fill:#6F5826;}
	.st68{fill:#DABC83;}
	.st69{fill:#B39766;}
	.st70{fill:#BFA271;}
	.st71{fill:#B1966A;}
	.st72{fill:#E1C389;}
	.st73{fill:#907A55;}
	.st74{fill:#B89C6B;}
	.st75{fill:#675123;}
	.st76{fill:#ECCD93;}
	.st77{fill:#B2966A;}
	.st78{fill:#E2C68C;}
	.st79{fill:#EDD095;}
	.st80{fill:#A58A5C;}
	.st81{fill:#D2B174;}
	.st82{fill:#DDBE81;}
	.st83{fill:#DFC185;}
	.st84{fill:#E4C58B;}
	.st85{fill:#D6B780;}
	.st86{fill:#BFA275;}
	.st87{fill:#B2976C;}
	.st88{fill:#D9BF87;}
	.st89{fill:#F1D59A;}
	.st90{fill:#9C845D;}
	.st91{fill:#AF9364;}
	.st92{fill:#DCC188;}
	.st93{fill:#B09469;}
	.st94{fill:#A3823A;}
	.st95{fill:#E8C98F;}
	.st96{fill:#B99C6D;}
	.st97{fill:#6B5424;}
	.st98{fill:#76A6A3;}
	.st99{fill:#394851;}
	.st100{fill:#75A5A2;}
	.st101{fill:#2F2725;}
	.st102{fill:#39464F;}
	.st103{fill:#74A3A0;}
	.st104{fill:#75A4A1;}
	.st105{fill:#37444D;}
	.st106{fill:#384650;}
	.st107{fill:#2D2625;}
	.st108{fill:#312D2B;}
	.st109{fill:#38464F;}
	.st110{fill:#6B9593;}
	.st111{fill:#5A7471;}
	.st112{fill:#090707;}
	.st113{fill:#9F7F38;}
</style>
<g>
	<path class="st0" d="M665.8,471.9c-11.7-17.4-31.5-28.5-37.5-50c-10.9-0.3-14.9,6.5-16.5,15.8c0.1,0.2,0.2,0.3,0.2,0.5
		c0.2,0.4,0.4,0.8,0.5,1.2c4.4,10.1,7.3,20.9,13.3,30.3c-7.7-7-13-16.9-23.2-21c-0.3-0.1-0.5-0.2-0.8-0.3c-0.6-0.2-1.3-0.4-1.9-0.6
		c-7,2.2-12.3,5.5-10.5,13.7c0.1,0.4,0.2,0.8,0.3,1.3c0.2,0.2,0.4,0.4,0.6,0.6c7.7,8.5,16.8,15.5,24.4,24
		c29.5,33,50.7,69.9,46.9,115.8c-3.7,46-20.1,88.3-41.2,129.1c-43.6,84.5-104.9,147.9-199.6,173.5C338.2,928,256.2,938,176,896
		c-1.8-1-3.5-2-5.2-3c-3-1.8-5.9-3.8-8.7-5.8c-9.2-6.6-17.7-14.2-25.9-22.1c-0.2-0.2-0.4-0.4-0.6-0.6c-0.6-0.7-1.1-1.4-1.7-2
		c-14.4-17.5-29.1-34.7-38.6-55.5c-0.1-0.2-0.2-0.3-0.2-0.5c-0.1-0.2-0.2-0.4-0.4-0.6c-6.2-10.8-7.4-23.1-10.9-34.7
		c-0.1-0.5-0.3-1-0.5-1.5c-0.2-0.6-0.4-1.2-0.6-1.7c-4.2-16.1-4.4-32.8-6.6-49.3c0-0.5-0.1-1-0.1-1.5c-1-19.2,3.2-37.7,7.6-56.2
		c0.3-0.7,0.5-1.4,0.8-2.2c0.3-0.7,0.5-1.4,0.8-2.1c1.7-4.6,3.5-9.3,4.9-15.1c-1,5.7-2.9,10.5-4.6,15.1c0,0,0,0,0,0
		c-0.3,0.8-0.6,1.6-0.8,2.4c-0.6,1.7-1.1,3.3-1.5,5c-4.3,17.5-8.2,35-6.9,53.1c0,0.4,0.1,0.9,0.1,1.3c0,0.1,0,0.2,0,0.2
		c1.8,16.4,2.3,33,6.5,49.1c0.2,0.6,0.4,1.3,0.6,2c0.2,0.5,0.3,1,0.4,1.5c3.2,11.1,4.7,22.8,10,33.3c0.3,0.4,0.5,0.9,0.8,1.4
		c0.2,0.3,0.4,0.7,0.6,1c11.4,19.6,25.6,36.9,41.1,53.4c0.5,0.6,1.1,1.2,1.6,1.8c0.2,0.2,0.4,0.4,0.6,0.6c5.2,5,10.4,9.9,16.9,13.2
		c0.3,0.2,0.6,0.3,0.9,0.5c1.6,1.1,3.2,2.2,4.8,3.2c0,0,0,0,0,0c40.1,26.5,84.9,39.7,132.6,41.1c74.5,2.2,141.9-23.1,205.7-58.9
		c19.9-11.1,39.2-23.7,55-40.3c57-60,88.8-132.9,101.5-213.5c8.6-54.1-25.6-113.5-72.3-136c-0.4-0.2-0.8-0.4-1.2-0.6
		c-0.2-0.1-0.4-0.2-0.6-0.3c-8,1.3-13.6,4.5-12.1,13.6v0c0,0.3,0.1,0.6,0.2,0.9c0.1,0.1,0.2,0.2,0.2,0.3c3,3.3,7.1,5.3,10.6,8
		c44.4,34.2,66,76.8,52,134.2c-3.9,15.8-9.3,31-13.5,44.5c2.1-10.3,3.5-22.2,3-34.3c-0.1-1.8-0.1-3.6-0.1-5.4v0
		c0-8.1,0.4-16.3-0.3-24.4c0-0.1,0-0.2,0-0.3c-0.2-2.5-0.5-5.1-1-7.6c-0.3-1.1-0.6-2.2-0.9-3.2c-0.4-1.2-0.7-2.5-1.1-3.7
		c-1.3-4.2-2.8-8.4-4-12.7c-0.1-0.2-0.1-0.4-0.2-0.7c-0.4-1.1-0.7-2.2-1.1-3.3c-5.2-17.3-7.1-35.9-19.7-50.4
		c-0.4-0.5-0.8-0.9-1.1-1.4c-0.8-1-1.7-2.1-2.5-3.2c-2.5-3.1-5-6.2-8.1-8.8c-0.5-0.4-1-0.8-1.6-1.2c-0.2-0.1-0.5-0.2-0.7-0.3
		c-7-3.7-11.1-13-20.2-12.5h0c-0.3,0-0.5,0-0.8,0.1c-0.8,0.1-1.5,0.3-2.4,0.5c-2.9,2.5-4.5,5.5-4.2,9.2v0c0,0.4,0.1,0.9,0.2,1.4
		c0.2,0.2,0.3,0.5,0.5,0.7c7.7,11.6,16,22.6,18.7,37.1c8,42.6,5.2,84.1-10.7,124.5c-4.8,12.1-9.5,24.5-19.4,33.6
		c-0.9,0.8-1.9,1.7-2.9,2.5c-0.6,0.4-1.3,0.8-1.9,1.2c-0.2,0.1-0.3,0.2-0.5,0.3c-0.7,0.5-1.4,1-2,1.5c-0.1,0.1-0.2,0.1-0.2,0.2
		c-16,11.3-22.4,30.6-36.2,43.7c-0.1,0.1-0.1,0.2-0.2,0.2c-0.2,0.2-0.4,0.5-0.6,0.7c-15.2,17.6-32.9,32.6-49.4,48.9
		c0,0-0.1,0.1-0.1,0.1c-0.4,0.4-0.8,0.9-1.2,1.3c-3.7,3.8-7.4,7.6-11.6,10.9c-0.2,0.1-0.3,0.2-0.4,0.4c-0.5,0.4-1,0.8-1.5,1.1
		c-5.2,3.8-10.7,7.1-16.3,10.1c4.7-3.3,9.6-6.3,14.1-10c0.3-0.3,0.6-0.6,0.9-0.8c0.6-0.6,1.2-1.1,1.8-1.7c3.9-3.8,7.7-7.7,11.5-11.5
		c0,0,0,0,0,0c0.6-0.6,1.3-1.3,2-1.9c0.1-0.1,0.2-0.2,0.4-0.3c4.8-4.7,8.3-10.4,12.3-15.8c0.1-0.1,0.2-0.3,0.3-0.4
		c1.4-1.8,3-3.5,4.6-5.1c0,0,0,0,0,0c0.5-0.6,1.1-1.2,1.7-1.7c0,0,0,0,0,0c1.8-1.8,3.6-3.5,5.4-5.2c0.3-0.3,0.6-0.7,1-1
		c6.9-6.9,15.3-11.8,23.3-17.2c0.2-0.2,0.4-0.4,0.6-0.5c0.2-0.2,0.4-0.4,0.6-0.5c14.2-13.2,22.1-31.2,34.2-45.9
		c0.3-0.5,0.6-0.9,0.9-1.4c0.5-0.8,1-1.5,1.5-2.3c3.7-5.7,7.1-11.6,10.1-17.7c0.6-1.2,1.1-2.3,1.6-3.5c0.1-0.3,0.3-0.6,0.4-0.9
		c1.9-5,3.6-10,6-14.8c0-0.1,0-0.1,0.1-0.2c0.4-0.7,0.8-1.3,1.1-2c1.1-2.2,2.1-4.4,3-6.7c0.1-0.3,0.3-0.7,0.4-1
		c0.2-0.7,0.5-1.3,0.7-2c0.9-2.6,1.7-5.3,2.5-7.9c0,0,0,0,0,0c0.9-3.1,1.9-6.1,3-9.1c2.3-9.6,3.8-19.2,4.9-28.9
		c0.4-3.8,0.8-7.6,1.1-11.5c0-0.1,0-0.3,0-0.4c0.3-3.9,0.5-7.8,0.8-11.7c0-1,0.1-1.9,0.2-2.9c-0.1-1-0.2-2-0.3-3
		c-1.5-14.6-3.8-29-11-42.1c-3.2-5.9-5.4-13.9-14.1-12.1c-0.3,0-0.5,0.1-0.8,0.2c-0.5,0.1-1.1,0.3-1.6,0.5
		c-7.8,14.8-0.5,29.1,1.3,43.6c1,2.9,1.7,5.9,2.3,8.8c0.7-1.9,1.4-3.9,2-5.9c10.2,16.7,1.8,33.5-1.9,49
		c-11.6,48.3-35.6,90.2-72.4,124.3c-44.6,41.4-94.4,70.2-156.8,77.3c-27.8,3.2-52.7-2.5-77.7-9.4c-31-8.6-62.9-55.6-46.7-103.4
		c22.9-67.7,52.9-131.3,107.9-181.6c20,34.9,32.6,72.9,59.2,105.2c-29.1,0.8-52.8,19.4-81.3,20.5c-3.9,0.2-7.6,3.4-7.4,7.6
		c0.3,5.9,5.9,3.1,9.1,4.3c17.3,6.6,17.6,6.7,10.3,21.9c0.2,0.2,0.4,0.4,0.6,0.6c23.7-5.9,22.9,12.3,26.4,26.4
		c0.8,3.3-1.7,8.8,4.3,8.7c2.4,0,5.6-3.2,7.1-5.7c13.5-23.2,33.4-33.8,60.1-33c12.4,0.4,23.9-4.5,33.3-11.7
		c19.1-14.7,37.1-30.8,55.6-46.3c1.1,0,2.3-0.1,3.4-0.2c0.9-3.4,1.2-7,1.3-10.5c0-1.1,0.1-2.2,0.2-3.3c0.1-1.1,0.2-2.1,0.4-3.2
		c0.3-1.8,0.6-3.5,1.1-5.3v0c0.1-0.5,0.3-1,0.4-1.5c0-0.1,0-0.3,0.1-0.4c1.2-6.9,5.5-12.7,6.6-19.5c0-0.2,0-0.4,0-0.6
		c-0.1-1.2-0.2-2.4-0.3-3.6c0,0,0,0,0,0c-0.4-4.2-1.1-8.3-2.3-12.4c-0.3-0.8-0.6-1.5-1-2.3c0,0,0,0,0,0c-0.4-0.7-0.7-1.4-1.1-2
		c-0.3,1.7-0.6,3.5-0.9,5.2c-5.3-15.4-24.3-7.8-32-19.1c1.2-0.4,2.3-0.9,3.3-1.5c-0.5-0.2-1-0.4-1.5-0.6c-0.3-0.1-0.7-0.2-1-0.2
		c-4.4-0.9-8.4,0.1-12.3,1.8c-0.9,0.4-1.8,0.9-2.7,1.3c-0.1,0.1-0.2,0.1-0.3,0.2c-4.3,2.6-8.3,5.6-12.5,8.4c-0.3,0.4-0.7,0.7-1.1,1
		c-0.5,0.5-1.1,0.9-1.6,1.3c-2.4,1.6-5.1,2.6-7.9,3.1c0,0-0.1,0-0.1,0c-0.6,0.1-1.2,0.2-1.9,0.3c-4.1,2.7-7.5,6.6-11.8,9.1
		c0.3,1,0.6,2.1,1,3.1c-5.5,1.6-2.3,10.9-9.7,10.2c-9.1-12.1-15.6-26.2-22.4-40.2c-6.8-14.2-14.2-28.2-21.8-43.2
		c29-10.2,58.4-16.2,89-16.3c-2.9,1.5-5.7,3.1-8.4,4.9c4.5-0.1,8.9-0.1,13.4,0.3c13.8-0.6,27.3-4.3,41.3-4.3c5.5,0,11.6-0.9,13.5-8
		c-0.3-0.3-0.7-0.5-1-0.8c-0.1-0.1-0.2-0.1-0.2-0.2c-19.3-14-41.6-13-63.7-11.6c-30,1.8-59.8,6.2-89,13.9
		c33.6-15.7,95.8-21.5,137.8-14.2c7.2,1.3,14.4,3.5,21.7,3.6c1.2,0,2.3,0,3.5-0.1c0.6,0,1.2-0.1,1.7-0.2c5.2-1.9,9.5-4.5,8.3-10.9v0
		c0-0.2-0.1-0.4-0.1-0.6c-0.1,0-0.1-0.1-0.2-0.2c-5.9-5.9-13.7-6.6-21.2-8.5c-56.7-14.2-111.5-3.1-166.2,11.3
		c47.8-19.7,96-35.6,149-21.9c14.4,3.7,28.3,9.6,43.3,11c0.7,0.1,1.3,0.1,2,0.2c0.2-0.1,0.4-0.1,0.6-0.2c6.7-2,9.5-6.8,9.6-13.7
		c0,0,0,0,0-0.1c-0.2-0.6-0.5-1.2-0.8-1.7c-3.2-6.1-9.1-8.4-15.6-10c-2.8,0.4-5.5,0.7-8.2,0.8c0,0,0,0,0,0c-9.2,0.3-17.6-1.7-24.8-8
		c-1.3-1.2-2.6-2.5-3.8-4c-1.7-0.8-3.6-1.4-5.5-1.7c-2.1,0.1-4.2,0.3-6.3,0.5c0,0,0,0,0,0c-10.4,1-20.8,2.9-31.1,2.1c0,0,0,0,0,0
		c-5.7-0.4-11.3-1.7-16.9-4.3c-0.8-0.4-1.6-0.8-2.4-1.2c-0.9-0.5-1.8-0.8-2.9-0.9c0,0,0,0,0,0c-1.4-0.1-2.9,0.1-4.3,0.5
		c-1.5,0.5-2.8,1.3-3.8,2.3c-1.7,1.7-3.4,3-5.2,4.1c0,0,0,0,0,0c-4.1,2.4-8.5,3.2-13,3.1c0,0,0,0,0,0c-3.3,0-6.7-0.5-10.2-1.1
		c0,0,0,0,0,0c-1.4-0.2-2.7-0.5-4.1-0.7c-2,0-3.9,0.3-5.8,0.8c-0.8,0.8-1.5,1.6-2.3,2.4c-0.6,0.5-1.2,1.1-1.7,1.6
		c-20.8,18.3-52.3,16-72.2,35.9c-0.8,0.8-2.9,0.1-4.7-0.4c-0.3-0.1-0.7-0.2-1-0.2c-0.4-0.3-0.8-0.6-1.1-0.9c-6.3-5.1-1-5.9,2.5-7.4
		c1.1-0.5,2.1-1,2.4-1.8c0.5-0.3,0.9-0.5,1.4-0.8c6.2-3.6,12.2-7.8,19.1-10.1c1.4-0.6,2.8-1.2,4.1-1.8c10-4.2,20.5-7.4,29.7-13.4
		c1.2-0.8,2.4-1.4,3.6-2c2.6-1.3,5.4-2.2,8.1-3.1c0,0,0.1,0,0.1-0.1c0.5-0.2,1.1-0.4,1.6-0.5c2.9-1,5.8-1.8,8.7-2.6
		c0.9-0.3,1.8-0.5,2.7-0.7c9.1-2.5,18.3-4.8,27.4-7.3c0.3-0.1,0.5-0.1,0.8-0.2c0,0,0,0,0.1,0c2-0.5,4-1,6-1.4h0
		c1.9-0.4,3.7-0.8,5.6-1.2c0,0,0.1,0,0.1,0c9-1.9,18.1-3.2,27.3-3.1h0c2.2,0,4.5,0.1,6.8,0.3c4.5,0,9,0.8,13.3,2c0,0,0,0,0,0
		c1.2,0.3,2.5,0.7,3.7,1.1c0,0,0,0,0,0c16.7,4.7,33.4,9.2,49.1,17.2c8.6,4.4,16.3,11.3,26.3,12.5c0.9,0.1,1.9,0.2,2.9,0.2h0.5
		c7.7-2.5,15.5-5,16.2-15.1c-0.2-0.1-0.4-0.2-0.5-0.3c-0.2-0.1-0.4-0.3-0.6-0.4c-13.1-7.8-26.3-15.5-39.8-22.5
		c-1.4-0.8-2.9-1.5-4.3-2.2c-0.7-0.4-1.4-0.7-2.1-1.1c-14.9-7.6-32.2-8.2-47-15.8c-0.2-0.1-0.4-0.2-0.6-0.3
		c-0.1-0.1-0.2-0.1-0.3-0.2c0.2,0,0.5,0,0.7,0h0c0.1,0.1,0.3,0.1,0.4,0.2c16,7.8,34.1,9.4,50.2,16.9c1.5,0.7,3,1.5,4.5,2.3
		c0.2,0.1,0.4,0.2,0.6,0.3c12.9,6,23.8,16.8,38.6,18.3c0.5,0,0.9,0.1,1.4,0.1c1,0.1,2,0.1,3,0.1c6-2.8,12.8-5,11-13.4
		c0-0.2-0.1-0.4-0.2-0.7c-0.1-0.3-0.1-0.6-0.2-0.8c-11.9-8-25-12.9-38.3-16.8c13.6,3.8,27,8.5,38.9,17c0.1,0,0.3,0,0.4,0
		c0.2,0,0.5,0,0.7,0c10-0.6,12.5-6.8,10.7-16c-12.8-9.2-27.6-14.9-42.3-18.8c-54.3-14.4-108.4-9-162.8,2.5
		c-80.2,16.9-144.8,61.1-203.2,115.1c-58.4,54-99.3,118.8-112,199.6c-8.2,52.1-2.5,102.4,21.1,148.1
		c41.2,79.7,112.6,112.7,199.6,116.4c31.5,1.4,62.6-2.7,93.8-7.5c40.7-6.3,80.7-16.8,116.3-36.3c62.8-34.3,109.5-86.1,143.5-149.3
		c27.6-51.5,45.6-106.5,54.4-163.6C696.8,548,689.9,507.8,665.8,471.9z M247.6,446.7c0.7-0.4,1.4-0.8,2-1.3
		c4.3-2.6,8.4-5.4,12.6-8.2c0.6-0.4,1.2-0.8,1.8-1.2c0.4-0.3,0.7-0.5,1.1-0.8c9.7-6.7,20.1-12.3,29.8-18.9c1.2-0.5,2.3-1,3.5-1.5
		c0,0,0,0,0,0c0.6-0.3,1.3-0.5,1.9-0.8c6-2.6,12-5.2,18.1-7.5c0.5-0.2,1-0.4,1.5-0.6c0.3-0.1,0.6-0.3,0.9-0.4h0
		c18.8-8.5,38.4-15.1,58-21.4c0.2-0.1,0.3-0.1,0.5-0.2c0.2,0,0.4,0,0.5-0.1c8.8-0.9,17.3-3.3,25.9-5.1c0.4-0.1,0.8-0.2,1.1-0.2
		c-0.2,0.1-0.4,0.1-0.6,0.2c-0.2,0.1-0.4,0.1-0.6,0.2c-8.4,2.5-17.1,3.8-25.8,5.2c0,0-0.1,0-0.1,0c-0.3,0.1-0.7,0.2-1,0.3
		c-17.3,5.1-34.2,11.3-50.8,18.1c-2.3,1-4.5,2-6.8,3c0,0,0,0,0,0c-0.9,0.4-1.8,0.8-2.6,1.2c-6,2.6-12.1,5.2-18.3,7.4
		c-0.1,0-0.1,0-0.2,0.1c-0.5,0.3-1,0.5-1.4,0.8c-10.5,5.8-20.7,12.1-30.6,18.9c-0.7,0.6-1.4,1.1-2.2,1.7c-1.1,0.8-2.2,1.6-3.3,2.3
		c-4.2,2.8-8.5,5.3-12.8,7.9c-0.5,0.3-1,0.6-1.5,0.9c-0.1,0.1-0.3,0.1-0.4,0.2c-2.6,1.3-4.1,4.4-8,5.2c3.2-1.3,4.5-3.5,6.6-4.9
		C246.8,447.2,247.2,447,247.6,446.7z M446.6,375c-8.5,0.2-17-0.3-25.5,0.6C429.5,374.3,438,374.8,446.6,375z"/>
	<path d="M899.5,515.5c-12,16.6-30.7,28.8-54,27.4c-13.7-0.8-17.7-8.7-10.1-20.5c4.8-7.4,10.2-14.8,16.7-20.7
		c36-32.6,26.4-98.6-2.9-127.6c-5.9-5.8-8.2-4.5-14.8-0.6c-15.8,9.5-24.8,28-43.9,32.5c-5.6,1.3-11.3,8.5-17.4,1.5
		c-5.8-6.7-4.9-14.4-1-21.4c8.9-15.8,18.1-31.6,27.6-47c3.1-5,10.8-10.4,5.7-15.4c-8.3-8.2-13.4-22.5-29.3-20
		c-2.5,0.4-6,1.8-7.6,0.6c-28.3-21.2-38.5,6.6-51.9,20.5c-30.3,31.5-59,64.5-88.3,96.9c-5,5.1-10.1,10.2-15.1,15.2v0
		c-0.2,0.8-0.3,1.5-0.6,2.3c-1.5,4.9-4.8,8-9.9,9.3c-0.5,0.1-1,0.3-1.5,0.4c-4.9,2.9-8.9,6.6-11.4,11.8c0.3,0.9,0.5,1.7,0.5,2.4
		c0.6,4.7-2.3,7-6.3,8.5c-0.7,0.3-1.4,0.5-2.2,0.8c-5.1,2.7-9.1,6.5-11.6,11.8c0.1,0.5,0.2,0.9,0.2,1.3c1,7.9-4.6,10.9-10.6,13.6h0
		c-0.4,0.2-0.7,0.3-1.1,0.5c-1.4,2.7-2.8,5.4-4.1,8.1c-0.5,1.1-1,2.1-1.4,3.2c-2.6,5.8-5.4,11.5-10.1,16.1c0,0.2-0.1,0.4-0.1,0.6
		c-2.6,16,4.7,31.2,4,47c-0.7,2-1.3,4-2,5.9c-12.1,33.4-29.7,46.4-64.9,48.5c-1.1,0.1-2.3,0.1-3.4,0.2c0-4.3,0-8.5,0.1-12.8
		c1.6-1.6,3.3-3.1,5.2-4.3c2.3-1.5,4.8-2.8,7.5-3.7c0,0,0,0,0.1,0c0.1,0,0.1-0.1,0.2-0.1c4.5-1.6,8.6-3.4,12.2-5.6c0,0,0,0,0,0
		c8.6-5.1,14.7-11.8,18.7-20.1c0,0,0,0,0-0.1c3.3-6.9,5-14.8,5.4-23.7c0-1.3,0.1-2.6,0.1-4c-8.2-29.6,4.3-51.1,23.6-73.2
		c47-53.8,94-107.5,142.8-159.6c13.8-14.7,26.5-30.4,39.8-45.4c8.9-10.1,16.2-12.4,24.7-0.6c0.9,0.8,1.8,1.5,2.7,2.1
		c1.4,0.9,2.8,1.6,4.1,2.1c0,0,0,0,0,0c7.3,2.6,14-0.8,20.9-6.5c7.8-6.5,3.8-7.4-0.3-8.3c-0.4-0.1-0.8-0.2-1.2-0.3
		c-1.2-0.3-2.3-0.7-3-1.2c-4.7-2.6-9.9-5.7-7.7-11.8c1.9-5.1,7.6-3.8,12-3.7c11.8,0.2,23.2,2.9,34.4,6.2c14.6,4.3,22.3,18.1,21,35.5
		c-0.4,5.2-1.6,10.2-2.6,15.3c0,0,0,0,0,0c-0.5,2.5-1,5.1-1.4,7.7c-0.3,1.2-0.6,2.3-0.9,3.5v0c-1.9,6.5-4.5,12.6-7.5,18.5
		c0,0,0,0,0,0c-5.3,10.1-12.1,19.5-19,28.7c-0.4,0.7-0.8,1.4-1.3,2.1c-0.3,0.4-0.6,0.8-0.9,1.2c-2.3,3-5.2,5.7-5.7,9.5c0,0,0,0,0,0
		c-0.1,0.5-0.1,0.9-0.1,1.4c18.7-16.7,37.5-32.8,51.3-53.9c0.2-0.4,0.4-0.7,0.6-1c16.8-29.5,18.3-51.6,4.5-71.8
		c-2.1-3.1-4.7-6.2-7.6-9.3c-9.7-6.8-20.6-9-31.7-10.6h0c-4.7-0.7-9.4-1.2-14-2c0,0,0,0-0.1,0c-3.3-0.5-6.5-1.2-9.7-2
		c-8-2.1-18.6-1.7-8.5-15.2c4-5.3,1.6-7.6-1.8-9.3c-2.4-1.2-5.2-2.1-6.9-3.5c-0.7-0.4-1.3-0.8-2-1.2c-8.5-4.9-17-9.7-26-13.6
		c-0.3,0-0.5,0-0.8,0c-1.9,0.1-3.8,0.2-5.7,0.2c-13.6-0.1-25.7-3.9-34.8-15.8c-2.7-2.9-5.3-5.8-8.1-8.6
		c-13.3-13.9-27.4-26.9-42.4-38.8c-0.1-0.1-0.3-0.2-0.4-0.3c0,0,0,0-0.1,0c-2.6-2.1-5.3-4.1-8-6.1c-37.9-28.3-79.5-47-128.8-37
		c-34.9,7.1-60.2,26.6-74.2,55.7c2-2.5,5.2-8.1,9-13.3c3.9-5.2,8.7-9.4,14.7-12.1c0.1,0,0.2-0.1,0.3-0.1c2.3-1.2,4.5-2.3,6.7-3.3
		c0,0,0,0,0,0c50.2-23.3,97.7-12.1,143.9,15.1c2.1,1.3,4.1,2.7,6.1,4c7.1,4.8,13.8,10,20.4,15.4c20.4,16.8,38.9,35.7,58.6,53.2
		c4.6,4,8.5,8.8,10.4,14.7v0c0.3,0.9,0.5,1.8,0.7,2.7c0,0.1,0,0.2,0.1,0.3c-12.3,15.9,1.2,29,4.5,43.3c0.1,0.4,0.2,0.8,0.2,1.1
		c-0.5,1.4-1,2.8-1.6,4.1l0,0c-0.4,0.9-0.8,1.8-1.3,2.7c0,0,0,0,0,0c-3.1,5.9-7.4,11-11.9,15.9l0,0c-3.1,3.3-6.3,6.5-9.3,9.7
		C644.7,343.4,594.2,400.9,543,457.8c-7.4,8.2-14.4,16.7-21.6,25.1c-9.2,10.9-20.5,17.1-35.2,18c-33.8,2.1-47.5,5.8-56.7,23.9
		c0,0,0,0,0,0c-3.8,7.5-6.9,17.4-10.3,30.7v0c-0.1,0.4-0.2,0.8-0.3,1.2c-0.8,3.2-1.7,6.3-4.2,8.6v0c0,0,0,0,0,0.1
		c-3.2,5.3-4.3,12.6-12.7,12.5c-0.4-1-0.7-2.1-1-3.1c-9-31.1,2.5-64.2,27.8-81.5h0c2.6-1.8,5.4-3.5,8.4-4.9
		c19.5-3.5,39.7-1.6,58.8-7.8c0.1,0,0.2,0,0.2-0.1c0.4-4.5,3.3-6.6,6.4-8.4c1.8-1.1,3.7-2,5.3-3.4c2.7-2.6,5.3-5.1,7.9-7.7
		c0-0.3,0-0.6,0.1-0.9c0.4-3.5,2.5-5.8,4.8-8.1c0.9-0.9,1.9-1.8,2.7-2.8l8.1-10.7c0.1-0.8,0.2-1.4,0.5-2c0.8-1.7,2.3-2.8,3.8-3.9
		c1-0.8,2-1.6,2.7-2.7c5.4-4,10.8-8.1,16.2-12.1c-0.2-0.3-0.4-0.5-0.5-0.8c-0.9-1.7-0.2-3,0.8-4c0.7-0.8,1.5-1.5,2.2-2.3
		c5.8-2,9.7-6.1,13.2-10.9c0.1-0.2,0.3-0.3,0.4-0.5l0.5-0.5c0.1-0.1,0.3-0.2,0.4-0.3c5.9-3.8,7.6-10.4,10.7-16
		c36.2-39.7,72.4-79.3,110.7-121.3c-25.7,7.7-43,23-60.2,38.1c-13.1,11.6-24.7,25-37.6,36.9c-6.5,6-15,11.5-24,5.9
		c-8.8-5.5-6.8-16.6-3.7-23.1c22.4-47.2,51-89.1,101.6-110.5c4-1.7,8.7-1.4,15.6-2.5c-40-38-74.9-79.6-132.4-89.9
		c-41.8-7.4-71.3,2.4-94.9,35.7c-3.8,5.4-6.7,10.6-13.4,12.6c-6.1,1.8-11.5,11.2-18,5.1c-6.8-6.4-9.2-14.6-5.9-25.8
		c22.2-75.8,94.6-101.5,165.4-83.2c35.2,9.1,65.7,27.6,92.8,52.5c16.1,14.8,32.4,29.4,47.9,44.9c4.1,4.1,7.6,9,14.3,3.2
		c2-1.7,7.1-2,9.4-0.6c31.6,19.2,54.3-7.3,80.6-15.2c1.2-0.3,2.5,0,4.7,0c3.3,18.9-4,35.6-10.6,52.6c-3.5,8.9-2,15,9.6,17.3
		c46.4,9,57.3,42.1,51.3,80.5c-2.5,16,1.9,25.1,10,35.3C946.4,394.6,943.8,453.9,899.5,515.5z"/>
	<path class="st1" d="M545,598.7c-7.7,39.2-19.4,76.5-43.8,109.4c-18.1,24.5-39.7,45.2-63.6,62.8c-52.5,38.6-110.2,58.6-177.3,46.3
		c-53.6-9.9-77.5-63.6-63.2-105.8c17.8-52.2,41.9-100.7,74.8-144.9c5.1-6.8,11.3-12.5,17.3-18.5c5.8-5.9,11.2-7,15,1.7
		c12,27.9,28.5,53.5,41.9,82.1c-22.4,6-42.7,14.8-64.3,19.9c-7.7,1.8-19.1,9.1-12.1,14.3c8.9,6.7,12.7,17.3,19.8,24.3
		c-0.1,0.3-0.3,0.5-0.4,0.8c0.3-0.1,0.7-0.2,1-0.3c1.7,1.6,3.5,3,5.7,4c7.9,4,11.6,9.1,14.1,17c6.7,20.9,11.3,21.8,26.4,4.4
		c11.7-13.4,25.3-23,43.3-23.4c46-1.2,70-36.6,100.1-62.8c28.8,7.8,59.6-13.5,66.2-43.6C546,590.6,545.8,594.7,545,598.7z"/>
	<path class="st1" d="M545.8,586.6c-6.7,30.1-37.5,51.4-66.2,43.6c0.1-0.1,0.3-0.3,0.4-0.4c0.1-0.2,0.1-0.4,0.2-0.7
		c35.3-2.1,52.8-15.1,64.9-48.5C545.4,582.6,545.6,584.6,545.8,586.6z"/>
	<path class="st1" d="M480.1,629.2c0,0.2-0.1,0.4-0.2,0.7c-0.1,0.1-0.3,0.2-0.4,0.4c-0.9-0.3-1.9-0.5-2.8-0.9
		C477.9,629.3,479,629.2,480.1,629.2z"/>
	<path class="st1" d="M479.5,630.2c-30,26.1-54.1,61.6-100.1,62.8c-18,0.5-31.6,10-43.3,23.4c-15.1,17.3-19.7,16.4-26.4-4.4
		c-2.5-7.9-6.2-13-14.1-17c-2.2-1.1-4-2.5-5.7-4c23.7-5.9,22.9,12.3,26.4,26.4c0.8,3.3-1.7,8.8,4.3,8.7c2.4,0,5.6-3.2,7.1-5.7
		c13.5-23.2,33.4-33.8,60.1-33c12.4,0.4,23.9-4.5,33.3-11.7c19.1-14.7,37.1-30.8,55.6-46.3C477.6,629.7,478.6,629.9,479.5,630.2z"/>
	<path class="st1" d="M547.1,574.7c0,4.1-0.5,8-1.3,11.9c-0.1-2-0.4-4-0.7-6C545.7,578.7,546.4,576.7,547.1,574.7z"/>
	<path class="st1" d="M545.2,623.7c-11.6,48.3-35.6,90.2-72.4,124.3c-44.6,41.4-94.4,70.2-156.8,77.3c-27.8,3.2-52.7-2.5-77.7-9.4
		c-31-8.6-62.9-55.6-46.7-103.4c22.9-67.7,52.9-131.3,107.9-181.6c20,34.9,32.6,72.9,59.2,105.2c-29.1,0.8-52.8,19.4-81.3,20.5
		c-3.9,0.2-7.6,3.4-7.4,7.6c0.3,5.9,5.9,3.1,9.1,4.3c17.3,6.6,17.6,6.7,10.3,21.9c-7.1-7-10.9-17.6-19.8-24.3
		c-7-5.3,4.4-12.5,12.1-14.3c21.6-5.1,41.9-13.8,64.3-19.9c-13.4-28.6-29.9-54.3-41.9-82.1c-3.8-8.8-9.2-7.6-15-1.7
		c-6,6-12.2,11.8-17.3,18.5c-32.9,44.2-57,92.6-74.8,144.9c-14.3,42.2,9.7,95.9,63.2,105.8c67,12.4,124.7-7.7,177.3-46.3
		c23.9-17.6,45.5-38.3,63.6-62.8c24.3-32.9,36.1-70.2,43.8-109.4c0.8-4.1,1-8.1,0.8-12.2c0.8-3.8,1.3-7.8,1.3-11.9
		C557.3,591.4,548.9,608.2,545.2,623.7z"/>
	<path class="st2" d="M621,125.1c-19.8-9.2-39.1-19-60.8-24c-32.6-7.5-62.5-1.2-91.9,11.9c1-15.9,14.5-18.8,25.5-22.6
		c60-20.9,113.4-6.2,162.5,31c19.1,14.5,36.2,31.4,54.7,46.5c9.4,14.2,24.6,11.1,38.2,13c-0.7,1.8-1.5,3.6-2,5.4
		c-2.3,9-14.5,16.5-5.3,26.9c3,3.4,33-12.6,36-18.4c9.8,1.9,14.5,9.8,20.1,16.5c-2.7,6.3-12.3,0.6-13.6,9.1c21.9,7.2,47,3,67,17.5
		c18,24.8,21.3,50.8,6.4,78.4c-1.8,3.3-3.9,6.8-3.1,11c-16.8,23.7-36.3,44.6-61.8,59.2c-0.9-11.2,11.9-14.1,14.2-23.3
		c9.9-12.9,19-26.3,28.2-39.7c13-18.8,12.2-39.4,9.7-60.1c-1.4-11.3-8.5-20.4-20.5-23.8c-12.4-3.5-24.9-6.2-38.1-5.3
		c9.1,8.4,21.3,7.1,31.8,10.5c26.6,8.6,37.8,49.9,18.7,70.5c-1.4,1.5-3.5,1.3-5.3,0.2c0-0.6,0-1.3,0.1-1.9
		c9.2-56.3-1.5-55.8-56.3-60.2c0.9,5.6,6.5,5.5,9.7,8.2c-2.1,19.9-17.7,17.9-31.2,19.2c-5.3-7.9-7.6-13.4-17.8-1.4
		c-38.7,45.3-79.8,88.6-119.4,133C589.7,443.2,564,475,536.5,505c-14.9,16.2-3.4,33.3-5.4,49.8c-4.5,16.3-9.3,32.6-23.4,43.5
		c-7.8,6-15.6,15-27.3,7.1c-0.8-7.9,1.1-14.6,8-19.3c0.4-4.9,3.8-8.1,6.3-11.8c11.8-17.3,9.7-33.2-5.8-44
		c-14.6-10.2-32.2-5.7-43.5,11.1c-2.9,4.3-3.9,9.7-7.9,13.3c-2.3,5.2-6.3,7.8-12,7.8c-4.3,0.7-6-2-6.3-5.5
		c-1.8-20.5,16.1-48.2,36.8-48.6c45-0.8,73.7-24.8,100.2-57.3c36.2-44.2,74.5-86.7,111.8-130c15.2-17.7,32.4-33.8,45.2-53.6
		c2.7-4.1,8.2-7,5.7-13.3c-3.4-5.4-7.1-10.6-10-16.3c-5.4-10.4-6.6-20.3,5.8-27.1c1.7-4.8,0.2-9.1-2.9-12.6
		C685.9,168.7,656.8,142.7,621,125.1z"/>
	<path class="st3" d="M581.9,472.6c2.6-3.9,5.3-7.8,7.9-11.7c24.1,11.1,37.3,32.9,52,53.3c34.6,48.2,30.3,100.7,12.4,152.2
		c-22.5,64.7-54.8,124.2-104.6,173.2c-47.4,46.7-106.2,68.7-169,81.6c-62.2,12.7-124.7,15.8-185-10.5c-8.1-3.5-15.7-8.3-23.6-12.5
		c-5.3-9-17.7-13.7-16.1-26.8c11.4,0.4,17.2,10.7,26.5,15.2c75.2,36.7,151.7,37.2,229.3,9c37.7-13.7,73.9-29.9,108-52.4
		c52.9-34.9,80.6-86.7,105-141.5c13.7-30.7,23.7-63,27.6-96.5c6.6-57.2-25.1-95.4-66-128.6C584.6,475.4,583.3,473.9,581.9,472.6z"/>
	<path class="st4" d="M719,254.3c2.6,0,9.3-4.7,5.3,3.5c-6.9,14-16.7,26.2-26.9,38c-53.3,61.2-106.5,122.3-159.8,183.4
		c-15.3,17.5-32,30-58,30.1c-35.6,0.2-51.4,14.9-56.2,44.4c-0.5,3.3-0.6,6.5,2.3,8.9c-2.6,4.8-4.8,11.1-10.9,2.9
		c-0.2-49.6,20.2-69.7,70.3-68.4c11.4,0.3,20.7-3.5,27.8-11.5C581.6,408.5,650.3,331.4,719,254.3z"/>
	<path class="st3" d="M582,742.2c-2,24.3-13,45.2-29.2,61.8c-39.2,40.2-88.5,64.1-140.8,82.5c-41.9,14.8-84.6,22.7-129.2,19.8
		c-37.4-2.5-72.1-13.5-104.5-32.1c-4.6-2.6-8.4-6.1-10-11.4c1.4-1.3,3.1-2.1,5-2.5c5-0.4,9.3,2,13.6,4.1
		c18.2,8.3,36.8,15.2,56.5,19.1c12.6,2.6,25,6,38,5.8c6.1-0.1,12.1,0.3,18.1,1.5c13.9,4,26.8-2.4,40.2-4.2
		c8.5-1.7,17.4,0.1,25.8-3.1c5.4-1.9,10.7-4,16.2-5.3c11.6-2.7,22.9-6.7,34.4-9.8c3.3-1.3,6.6-2.6,9.9-3.9c7.3-2.6,14.9-4.6,22-7.8
		c7-3.1,13.1-7.9,19.9-11.5c6.7-3.6,12.9-8.1,19.6-11.8c9.5-5.5,17.6-13.1,26.9-18.9c6-3.4,11-7.9,15.9-12.6
		c11.3-7.3,18.3-18.3,25.8-29c5.2-7,10.1-14.1,14.6-21.6C573.7,747.4,574.6,740.6,582,742.2z"/>
	<path class="st5" d="M238.7,550.6c-24,27.8-45.9,54.7-64.8,84.3c-25.4,39.8-22.8,79.1-5.4,119.8c5.1,11.9,11.5,23.2,17.6,35.6
		c-20.3-7.2-43.2-40.5-49.7-64.7c-9.2-34.4,0.1-64.2,18.2-92.3c19.5-30.2,45.5-54.8,71.4-79.4C228.6,551.3,231.8,548.8,238.7,550.6z
		"/>
	<path class="st6" d="M523.3,449.2c0.2,5.7-2.8,9.4-7.6,11.8c-22.8-3.9-45.6-11-68.4-11c-39.9,0-79.5,5.8-117.4,19.7
		c-4.9,1.8-11.1,9.1-15,1.5c-4.4-8.6,5.4-10.2,10.6-12.8C389.9,426.8,455.8,420.8,523.3,449.2z"/>
	<path class="st5" d="M170.6,728c-16.3-28.1-7.5-54.3,5.1-78.2c26.5-50.3,65.3-91.6,104.2-132.5c1.8-1.8,4.8-1.7,8,1.7
		C229.1,577,195,649.4,170.6,728z"/>
	<path class="st1" d="M400.9,574.9c-0.6,0.3-1.2,0.7-1.9,1c0,0,0,0-0.1,0c-8.4-7.3-5.8-18-5.4-27.4c1-25.8,12-45,30.3-54.9
		c1.6-0.1,3.2-0.2,4.8-0.2C403.4,510.7,391.9,543.7,400.9,574.9z"/>
	<path class="st1" d="M393.6,548.5c-0.4,9.4-3,20.1,5.4,27.4c-9,4.3-11.2-3.3-14-8.6c-8.2-15.4-15.4-31.3-23.8-46.7
		c-5.6-10.3-2.9-15.7,8.2-17.8c18.2-3.4,36.2-8,54.6-9.2C405.6,503.5,394.6,522.7,393.6,548.5z"/>
	<path class="st1" d="M361.2,520.5c8.3,15.3,15.5,31.3,23.8,46.7c2.9,5.4,5,13,14,8.6c0.9,0.8,1.8,1.5,2.9,2.1
		c-5.5,1.6-2.3,10.9-9.7,10.2c-9.1-12.1-15.6-26.2-22.4-40.2c-6.8-14.2-14.2-28.2-21.8-43.2c29-10.2,58.4-16.2,89-16.3
		c-4.7,1.2-9.1,3-13.2,5.1c-18.4,1.2-36.4,5.8-54.6,9.2C358.3,504.8,355.6,510.3,361.2,520.5z"/>
	<path class="st1" d="M401.9,578c-1.1-0.7-2.1-1.4-2.9-2.1c0,0,0.1,0,0.1,0c0.7-0.3,1.3-0.6,1.9-1C401.2,575.9,401.5,577,401.9,578z
		"/>
	<path class="st1" d="M437.1,488.4c-2.9,1.5-5.7,3.1-8.4,4.9h0c-1.6,0.1-3.2,0.1-4.8,0.2C428,491.4,432.3,489.7,437.1,488.4z"/>
	<path class="st7" d="M558.8,499.8c3.8-5.1,7.7-10.3,11.5-15.4c26.6,8.1,41.5,29.9,56.1,50.6c23.8,33.7,17.6,71.5,8.4,108.2
		c-5.1,20.6-13.9,40.2-23.1,59.9c0.3-21.3,6.8-41.8,6-63c5.2-16.4,5-33.3,4-50.2c-1-4.6-1.5-9.3-1.9-14
		c-3.9-18.7-8.1-37.4-20.4-52.8c-5.8-6.2-10.5-15.1-21.2-7.4C571.6,510.4,565.2,505.1,558.8,499.8z"/>
	<path class="st8" d="M543.2,527.1c-1.1-9.4,3.8-15.2,11.5-19.3c32,28.8,27,68,26.2,104.3c-0.6,28-9.9,55.8-23.3,81.3
		c-4.6,8.7-9.6,16.9-18.9,21.4c-5.3-9.2,2.2-15.7,4.7-23.3c3.2-5.4,5.8-11.1,8.1-16.9c2.1-4.9,2.6-10.4,4.6-15.4
		c10.6-21.5,10.2-45.1,13.1-68.1c0.2-1.7,0.7-5.5-3.5-5c-5.4-13.5-3.3-28.9-10.9-42C551.3,538.1,550.1,530.7,543.2,527.1z"/>
	<path class="st5" d="M507.8,468.8c-2.4,5.4-6.4,9.2-11.6,11.8c-50.9-12.5-100.8-6.4-150.1,8.9c-6.6,2-14,4.8-16.1-3.6
		c-2.1-8.3,6.9-10.4,12.6-11.9C397.2,459.4,452.1,452.6,507.8,468.8z"/>
	<path class="st3" d="M226.6,515.6c12.4-8.5,24.8-16.9,40.8-5.4c-7.2,12.4-20.3,19-31.2,27.3c-38.3,29.2-73.4,60.8-96.3,104.1
		c-2.3,4.3-7.1,7.2-10.8,10.7c-2.3-2.1-2.7-4.7-2.4-7.6c2.7-8.7,7.7-16.4,10.4-25.2c23-35.4,50.4-66.5,85.5-90.6
		C225.9,526.7,239.7,524.3,226.6,515.6z"/>
	<path class="st9" d="M490.1,584.9c-0.6,0.4-1.1,0.8-1.7,1.2c-5.9-4.3-3.5-10.6-3.9-16.2c0.3-1.7,0.6-3.5,0.9-5.2
		c0.4,0.6,0.8,1.3,1.1,2c8.4-14,6.6-24.5-6.8-29.8c-11.8-4.6-21.9-0.9-26.5,11.6c0.3,0.1,0.7,0.1,1,0.2c0.5,0.2,1,0.4,1.5,0.6
		c-1,0.6-2.1,1.1-3.3,1.5c-5,1.3-10,2.6-15,3.9c0.1-1,0.2-2,0.3-2.9c2.5-16.5,14.6-30.2,29.5-32c17.7-2.2,30.3,6.2,37.3,21.8
		C513.1,560.4,505.1,574.1,490.1,584.9z"/>
	<path class="st10" d="M226.6,515.6c5.5,0,11,0,16.6,0c-40.5,30.2-75.2,64.3-102.8,105.5c-4.3,1.5-6.7-0.6-8.1-4.3
		C153.2,573.3,189.4,544,226.6,515.6z"/>
	<path class="st11" d="M543.2,750.1c-23.7,33.6-52.2,61.6-91.8,76.4c26.3-28.6,59.6-49.9,83.1-81.2
		C537.9,745.9,541.4,746.5,543.2,750.1z"/>
	<path class="st12" d="M97.4,769.8c-15.9-49.6-14.5-97.5,14.9-143c-20.2,46.1-26.9,92.3-3,138.9C106.2,769.5,102,770.3,97.4,769.8z"
		/>
	<path class="st13" d="M538.4,429.9c1.1,5.7-2.3,7.8-7.1,8.7c-5.3-2.9-10.5-5.8-15.8-8.8c-12.2-2.6-25.7-1-35.4-11.4
		c-1.2-0.1-2.4-0.2-3.7-0.3c-7.4-4.8-14.9-0.2-22.3-0.4c-7.3-0.2-15.6,2.9-21.2-5c5.7-11.9,20.5-5.6,27.9-14.1
		C489.5,402.1,513.4,417.5,538.4,429.9z"/>
	<path class="st14" d="M349.7,656c4.4-6.7,10.8-5.8,17.3-4.7c16.6,3,32.1,0.6,45.5-10.5c3.4-2.8,8-7.1,11.5-2
		c3.1,4.6-2.7,7.7-5.7,10.7c-16,16-38.1,13.6-57.7,18.8c-5.5,1.5-11.2,2.4-16.8,3.6c-6.7,1.1-6.2-3.7-6.4-7.8
		C338.8,657.3,345.3,658.3,349.7,656z"/>
	<path class="st15" d="M296.9,504.4c-11.8-3.9-23.6-7.9-35.4-11.8c-4.3-8.1-12.5-11.2-19.9-15.4c-0.9-1.8-0.8-3.4,0.6-4.8
		c20.9-7.1,39.4,1.4,58.1,8.6C303.2,489.4,303.2,497.4,296.9,504.4z"/>
	<path class="st16" d="M641.8,467.7c23.4,33.9,35.3,66.9,34.4,104.1C673.3,535.8,642.2,509.5,641.8,467.7z"/>
	<path class="st17" d="M241.5,887.4c-20.8-2.5-39.8-10.4-58.2-20c2.7-5.3,6-10,12-11.9c19.8,6.3,39.6,12.6,59.4,18.9
		C252.1,880.6,248.1,885.2,241.5,887.4z"/>
	<path class="st18" d="M460.9,398.6c-1.7,21.4-18.4,7.2-27.3,11.6c-21.5,0.9-41.1,12.4-62.9,11.2c-1.2,0.1-2.3,0.2-3.5,0.5
		c-3.6,2.5-6-0.1-8.8-1.8c-1.8-1.8-3.1-3.9-3.2-6.5c2.2-2.7,4.9-3.8,8.3-2.9c12.6,0.9,23.6-4.9,35.2-8.2c15.2-4.2,31.1-4.2,46.4-7.4
		C450.9,394,456,395.8,460.9,398.6z"/>
	<path class="st19" d="M601.7,519.4c15.7,14.9,16.1,36,22.6,54.7c-4.6,2.6-7.4,8.3-13.8,7.6c-4.4-19-9-38-20.7-54.3
		C589.2,518,595.3,518.5,601.7,519.4z"/>
	<path class="st20" d="M129.2,644.7c-0.1,2.6-0.1,5.1-0.2,7.7c-3.9,15.6-7.8,31.2-11.8,46.8c-5,2.8-10.1,2.3-15.1,0.1
		c0.5-22.7,8.3-43.3,18.6-63.1C124.9,637.7,127.5,640.8,129.2,644.7z"/>
	<path class="st21" d="M422.7,585.5c6.3,5.4,12.5,10.7,18.8,16.1c11.2,15.2,7.8,22-11.8,24.2c-8.1-3.5-16.5-6.7-19.3-16.4
		C411.1,599.7,409.9,589,422.7,585.5z"/>
	<path class="st22" d="M190.9,503.1c4.6,16.5-9.4,20.3-18.9,25.7c-4.5,2.6-10.3,4.9-11.5,9c-5.9,19.3-24.1,26.8-36.2,39.9
		c-2.5-2.2-3.2-5.2-3.3-8.4c3.2-5.2,4.8-11.5,10.5-14.9c16-7.6,19.7-26.7,33.9-35.9c6.7-5.7,11.3-14,20.5-16.8
		C187.7,501.6,189.4,502.1,190.9,503.1z"/>
	<path class="st1" d="M485.4,564.6c-6.6-10.5-19.3-11.1-29.7-15.4c2.3-1.4,4.3-3.2,6.5-4.7c5.3-3.5,10.9-4.6,16.4-1
		C487.1,549.1,486.7,556.8,485.4,564.6z"/>
	<path class="st23" d="M485.4,564.6c-0.3,1.7-0.6,3.5-0.9,5.2c0.7-1.1,1.4-2.2,2-3.2c0,0,0,0,0,0
		C486.2,565.9,485.8,565.3,485.4,564.6z M453.3,548.4c-0.3,0.8-0.5,1.5-0.8,2.4c1.2-0.4,2.3-0.9,3.3-1.5c-0.5-0.2-1-0.4-1.5-0.6
		C453.9,548.5,453.6,548.5,453.3,548.4z"/>
	<path class="st1" d="M485.4,564.6c-0.3,1.7-0.6,3.5-0.9,5.2c-5.3-15.4-24.3-7.8-32-19.1c1.2-0.4,2.3-0.9,3.3-1.5
		C466.2,553.5,478.8,554.2,485.4,564.6z"/>
	<path class="st1" d="M486.6,566.7c-0.4-0.7-0.7-1.4-1.1-2c1.3-7.8,1.6-15.5-6.8-21.1c-5.5-3.6-11.1-2.5-16.4,1
		c-2.2,1.5-4.2,3.3-6.5,4.7c-0.5-0.2-1-0.4-1.5-0.6c-0.3-0.1-0.7-0.2-1-0.2c4.6-12.5,14.7-16.2,26.5-11.6
		C493.2,542.1,495,552.7,486.6,566.7z"/>
	<path class="st19" d="M152.2,848.5c-12.5-4.1-20.1-13.8-27.7-23.6c-1.4-17.4,7.7-17.7,20.3-12.5c5.2,5.2,10.3,10.4,15.5,15.6
		C164.9,837.7,160.6,843.9,152.2,848.5z"/>
	<path class="st24" d="M582,742.2c-2.7,3.9-5.3,7.7-8,11.6c-5.9,4.1-9.8,1.4-12.7-4c9.4-21,21.5-40.8,28.3-63
		c5.1,2.6,3.6,9,7.2,12.4C591.9,713.5,586.9,727.8,582,742.2z"/>
	<path class="st25" d="M547.3,726.8c20.7-26.9,32.2-57.9,41.7-90c-3,35.5-12.5,68.8-34.2,97.8C551,733.2,549.3,729.9,547.3,726.8z"
		/>
	<path class="st26" d="M370.7,421.4c20.4-7,40.8-14.1,62.9-11.2c13.1,9.4,30-2,42.9,7.9c-20.1,1.4-40.5,9.6-60.1-3.1
		c-1.8-1.2-7.3,0.3-8.7,2.2C396.7,432.1,383.5,424.6,370.7,421.4z"/>
	<path class="st27" d="M480.4,605.4c24.2-1.7,34.6-19.2,42.7-38.5c2-4.8,2.4-9.9,8-12c-0.2,36.4-15.1,53.3-54.3,61.7
		C476.6,612.4,476.3,608.2,480.4,605.4z"/>
	<path class="st28" d="M222.7,828.5c15.6,3.9,31.2,7.9,46.9,11.8c3.9,5.7,1.1,9-4,11.5c-16.1,0.5-31.7-2.4-46.6-8.4
		C214.3,836.9,215.3,831.9,222.7,828.5z"/>
	<path class="st29" d="M132.9,867c-15.1-18-32.8-34.1-39.5-57.8c0.5-2.7,2-4.4,4.8-5c12.7,19.5,27.4,37.6,42.8,55
		C139.3,863,136.6,865.5,132.9,867z"/>
	<path class="st26" d="M360,418.6c2.4,1.1,4.8,2.2,7.2,3.3c-12.6,15.8-28.6,24.7-49.4,24.9c-6.6,0.1-12.2,4.1-14.8,10.4
		c-4.5,10.6-10.8,9.1-18,3.3c-0.7-3.2,1.1-5.3,3.3-7.2C309.2,435.6,335.9,429.7,360,418.6z"/>
	<path class="st30" d="M468.4,773.3c6.7-7.9,14.1-15,23.9-19c2.4,1.8,6.3,0.4,7.9,3.8c-13.9,20-33.7,34-51.1,50.4
		c-4-1.8-6.7-4.2-4.2-9c4.1-4.6,8.2-9.3,12.3-13.9C463.2,783.4,468.3,780.6,468.4,773.3z"/>
	<path class="st31" d="M565.8,586.1c2.5-6.7,4.6-5.1,5.3,0.5c2.9,25.8,0,50.8-11.9,74.2c-6-6.6-0.4-14-1.3-21
		C560.4,622,563.1,604.1,565.8,586.1z"/>
	<path class="st32" d="M241.5,887.4c3.3-5.5,5.2-12.3,13.2-13c8.9,1.1,18.3-0.2,26.7,4.2c3.7,5.2,4.3,10.4-0.5,15.4
		C267.2,895.3,254.3,891.9,241.5,887.4z"/>
	<path class="st5" d="M429.6,625.8c13.5-3.4,20.2-10.1,11.8-24.2c8.5,3.3,20.2,1.4,22.9,13.7c1.1,4.8,1.6,10.3-4.6,13.2
		C449.1,633.4,439,634.9,429.6,625.8z"/>
	<path class="st33" d="M339.8,890.6c-13,2.7-25.3,11.8-39.5,4.4c-2.6-6.4,0.1-11.1,4.7-15.4c5-0.3,10-0.6,15-1
		C328.9,878.7,344.2,868.4,339.8,890.6z"/>
	<path class="st34" d="M360,418.6c-5.6,7.7-14.3,10.1-22.3,13.7c-16.6,7.4-33.6,14-48.6,24.4c-2.9-3.9-0.9-8-0.8-12.1
		c6-5.1,12.4-9.6,20.6-10.6c13.2-1.8,25.6-5.6,34.8-16.1c2.8-4.2,7.6-3.1,11.5-4.3C356.8,415.3,358.4,417,360,418.6z"/>
	<path class="st35" d="M559.1,773.5c-6.3,13.1-13.8,25.2-27.9,31.5c-5.5-1.9-9.5-4.8-7.5-11.6c7.7-8,15.4-15.9,23.1-23.9
		C552.6,765.6,556.4,768,559.1,773.5z"/>
	<path class="st36" d="M601.2,449.1c4-4,7.9-8,11.9-11.9c11.7,12.2,13.9,28.4,17.2,44.9C620.7,471,610.9,460,601.2,449.1z"/>
	<path class="st28" d="M375.1,593.7c6.4,6.7,12.7,13.4,19.1,20.1c3.4,5.6,5.1,10.6-4.1,11.9c-12.7-3.8-23-10.3-27.2-23.8
		C362.8,593,366.8,590,375.1,593.7z"/>
	<path class="st37" d="M500.3,758.1c-2.6-1.3-5.3-2.5-7.9-3.8c14.8-13.4,22.8-32,35.6-46.9c8.9-3.6,9.8,0.5,7.4,7.7
		C523.7,729.4,512,743.7,500.3,758.1z"/>
	<path class="st38" d="M336,847.7c-17.9,6.9-36.5,2.9-54.7,3.8c-4.2-2.5-9-4.6-7.6-10.9c19.4,2.1,38.8,2.1,58.1-1.3
		C338.6,839.3,338.5,842.9,336,847.7z"/>
	<path class="st32" d="M175.9,803.9c10.5,3.1,19.2,9.2,27.4,16.2c2.3,7.5-2.6,10.4-8.1,12.9c-10.7-2.8-19.5-8.8-27.3-16.4
		C166,809.4,170,806,175.9,803.9z"/>
	<path class="st39" d="M132.9,867c0.1-5.2,3.1-7.5,8.1-7.8c5,4,10,8,14.9,12.1c4.7,9.4,15.2,15.2,16.1,26.8
		C156.3,891,143.8,879.9,132.9,867z"/>
	<path class="st40" d="M152.2,848.5c2.7-6.8,5.4-13.7,8.1-20.5c7.9,6.5,15.7,13,23.6,19.5c-1.3,7-7,10.6-11.6,15.1
		c-1.3,0.1-2.7,0.2-4,0.3C162.9,858.1,157.6,853.3,152.2,848.5z"/>
	<path class="st41" d="M144.8,812.3c-9.5-0.2-19-0.5-20.3,12.5c-4.9-8.1-9.8-16.2-14.7-24.3c3.2-7.1,7-12.8,16-7.7
		C133.6,797.8,139.5,804.7,144.8,812.3z"/>
	<path class="st32" d="M324,531.4c-3.9-5.2-7.8-10.4-11.7-15.5c-1.1-8-3.9-16.6,7.8-19.5c6.7,6.6,13.9,12.8,16.5,22.4
		C338.7,529.3,335.8,534.9,324,531.4z"/>
	<path class="st42" d="M125.8,792.8c-6.9-0.7-10.6,5.3-16,7.7c-4.1-10.3-8.2-20.5-12.3-30.8c2.8-4.8,7.4-4.2,11.9-4.1
		C114.8,774.7,120.3,783.8,125.8,792.8z"/>
	<path class="st43" d="M570.6,399.2c-13.2-2.8-24.6-10.7-38.1-13.4c-12.8-2.6-25.1-7.9-37.1-13.4c27.8,1.3,54.6,5.7,75.7,26.3
		C571.1,398.7,570.6,399.2,570.6,399.2z"/>
	<path class="st44" d="M320,496.4c-2.6,6.5-5.2,13-7.8,19.5c-5.1-3.8-10.2-7.7-15.4-11.5c-0.1-8-0.7-16.1,3.5-23.4
		C307.8,485.1,315.7,488.3,320,496.4z"/>
	<path class="st45" d="M557.1,410.6c-0.8,2.4-1.6,4.7-2.5,7.1c-19.1-0.7-31.1-16.3-47.5-22.7c2.9-5,7.9-2.7,12-3.6
		C531.8,397.9,544.4,404.3,557.1,410.6z"/>
	<path class="st42" d="M516.1,816.5c-7.9,8.5-16.4,16-27.8,19.5c-5-4.1-8.6-8.5-3.6-15c6.4-4.1,12.9-8.2,19.3-12.3
		C511.1,806.6,514,810.9,516.1,816.5z"/>
	<path class="st41" d="M375.1,593.7c-6.1-0.2-9.8,3-12.2,8.2c-5.2-9.2-10.3-18.4-15.5-27.6c3.3-4.2,6.7-8.1,12.5-8.6
		C365,575.1,370.1,584.4,375.1,593.7z"/>
	<path class="st46" d="M339.8,890.6c1-16.6-12-9.9-19.8-11.9c12.6-6.2,26.8-2.3,39.7-6.7c4,4.3,6,9.6,7.8,15
		C358.9,893.3,349.1,889.7,339.8,890.6z"/>
	<path class="st35" d="M367.5,887c-9.9-1.2-7.8-8.7-7.8-15c7.5-1.8,15.1-3.6,22.6-5.4c12.1,5,7.9,10.5,0.5,16.1
		C377.7,884.1,372.6,885.5,367.5,887z"/>
	<path class="st47" d="M324,531.4c8-0.4,11.6-5.2,12.6-12.6c4.9,9.4,9.8,18.8,14.7,28.2c-3.4,4.4-6.3,9.2-11.5,11.8
		C334.5,549.7,329.2,540.6,324,531.4z"/>
	<path class="st47" d="M382.8,882.7c2.8-5.5,6.8-11-0.5-16.1c7.3-4.2,15.1-6.8,23.4-7.9c5.5,2.9,9.7,7.2,12.6,12.8
		C406.5,875.2,394.6,878.9,382.8,882.7z"/>
	<path class="st47" d="M449.4,859.6c-7.1,4.8-14.9,7.1-23.3,8c-5.4-3-9.9-7-12.7-12.6c9.5-3.5,19-6.9,28.5-10.4
		C448.8,847.4,449.8,853.1,449.4,859.6z"/>
	<path class="st48" d="M317,403.4c19.5-10.3,40.6-15.8,61.8-21c1.1,1,1.4,2,1.1,3c-0.3,1-0.7,1.6-1,1.6
		c-16.8,6.5-33.7,13.1-50.5,19.6C323.9,407.8,318.9,411.2,317,403.4z"/>
	<path class="st47" d="M117.8,714c3.6,10.7,7.3,21.4,10.9,32.1c-5.4,2.9-10.8,4.5-16.3,0.1c-4.8-5.7-7.3-12.3-6.7-19.8
		C108.1,720.7,111.9,716.3,117.8,714z"/>
	<path class="st40" d="M242.3,476.6c11.3-0.5,22.3-0.9,19.2,16c-10.3,0-20.5,0-30.8,0c-1.5,1.2-3.1,1.2-4.7,0.2
		c-0.9-7.6,7.4-9.1,9.7-14.6C237.6,476.3,239.5,474.4,242.3,476.6z"/>
	<path class="st49" d="M168.8,519.9c-8.9,11-17.7,22.1-26.9,32.8c-2.3,2.7-5.2,12.3-10.4,1.7c10.4-13.4,17.7-29.4,32.5-39.1
		C166.5,515.8,168.1,517.4,168.8,519.9z"/>
	<path class="st50" d="M129.6,749.2c4.9,8.1,9.8,16.3,14.7,24.4c-1.7,5.7-5.3,9.6-11.2,11.1c-5.1-7.7-10.3-15.5-15.4-23.2
		C121,756.8,123.8,751.6,129.6,749.2z"/>
	<path class="st51" d="M519.1,391.5c-3,4.7-8,2.4-12,3.6c-14.2-4.3-27.1-12.7-42.6-13.3c-3.6-0.1-4.4-3.8-3.4-7.2l-0.2,0.4
		C480.8,378.7,500.9,381.8,519.1,391.5z"/>
	<path class="st33" d="M449.4,859.6c-5.4-3.5-4.1-10.4-7.5-15c6.2-3.1,12.3-6.1,18.5-9.2c9,0,12,4.1,8.6,12.5
		C463.2,853,457.2,857.8,449.4,859.6z"/>
	<path class="st52" d="M117.8,714c-0.5,7.6-6.6,9.7-12.1,12.4c-4.3-8.6-4.7-17.8-3.6-27.1c5-4.3,10.1-3.2,15.1-0.1
		C117.5,704.1,117.7,709.1,117.8,714z"/>
	<path class="st44" d="M175.9,803.9c-2.7,4.2-5.4,8.4-8.1,12.7c-7.6-3.8-15.2-7.7-19.7-15.6c1.3-6.6,6.2-9.5,11.8-11.6
		C166.5,792.8,171.8,797.7,175.9,803.9z"/>
	<path class="st53" d="M598.7,640.8c5.2-15.1,0.9-30.9,4.5-49.4c7,22.4,9.4,42,3,62.1C600.6,651,602.3,644.3,598.7,640.8z"/>
	<path class="st54" d="M410.1,375c16.9-4.1,33.8-7.7,50.8-0.1c0,0,0.2-0.4,0.2-0.4c-17.1,10.6-37.2,1.1-54.8,8.2
		C403.8,378.3,408,377.2,410.1,375z"/>
	<path class="st47" d="M469,847.9c-0.2-6-3.2-10.1-8.6-12.5c8.1-4.8,16.2-9.6,24.3-14.3c1.2,5,2.4,10,3.6,15
		C482.7,841.3,476.8,846.2,469,847.9z"/>
	<path class="st55" d="M625.8,589.1c0.7,17.5,4.8,35.6-8.2,50.9c-0.3-14-0.7-28-1-42C618.5,593.8,621.1,590.4,625.8,589.1z"/>
	<path class="st42" d="M339.7,558.8c0.7-7,3.7-11.8,11.5-11.8c2.9,6.3,5.8,12.5,8.7,18.8c-2.5,5.3-6.3,8.7-12.5,8.6
		C344.9,569.2,342.3,564,339.7,558.8z"/>
	<path class="st41" d="M195.2,832.9c2.7-4.3,5.4-8.6,8.1-12.9c6.5,2.8,12.9,5.6,19.4,8.4c-2.7,4.6-4.7,9.4-3.8,14.9
		C210.9,840.1,201.8,839.2,195.2,832.9z"/>
	<path class="st56" d="M78.7,718.5c2.4,17,4.8,34,7.1,51c-1.4,2.2-2.8,2.2-4.4,0.2c-5.7-16.5-9.6-33.3-7.3-51
		C75.6,716.6,77.1,716.5,78.7,718.5z"/>
	<path class="st57" d="M160,789.4c-2.5,5.3-6.4,9.2-11.8,11.6c-5-5.4-10.1-10.8-15.1-16.2c2.3-5.1,6.1-8.8,11.2-11.1
		C149.5,778.9,154.7,784.1,160,789.4z"/>
	<path class="st58" d="M78.7,718.5c-1.5,0.1-3,0.2-4.6,0.3c-1.9-21.3,1-42,8.7-62c3.6-0.7,5.3,0.4,3.8,4.3
		C84.4,680.2,77.2,698.7,78.7,718.5z"/>
	<path class="st59" d="M516.1,816.5c-4-2.6-8-5.2-12-7.8c6.6-5.1,13.2-10.2,19.7-15.3c2.5,3.9,5,7.7,7.5,11.6
		C527.6,810.7,523.6,815.9,516.1,816.5z"/>
	<path class="st60" d="M129.2,644.7c-5.4-0.2-7.9-3.4-8.4-8.5c2.3-7.4,6.1-13.8,11.4-19.4c2.7,1.4,5.4,2.9,8.1,4.3
		C138.8,630,134.4,637.6,129.2,644.7z"/>
	<path class="st61" d="M305,879.6c0.1,5.6-1.6,10.7-4.7,15.4c-6.5-0.3-12.9-0.6-19.4-1c0.2-5.1,0.3-10.3,0.5-15.4
		C289.3,878.9,297.1,879.3,305,879.6z"/>
	<path class="st62" d="M339.6,663.1c0.2,3.5,0.8,6.9,4.2,8.9c-7.8,1.9-9.5,19.3-23.1,7.7c-6-5.2,1.6-7.7-0.7-11.1
		C325.1,661.7,331.2,658.4,339.6,663.1z"/>
	<path class="st63" d="M261.8,433.7c10.3-6.6,20.5-13.3,30.8-19.9c4.1-1.6,8.3-3.6,8,3.9c-10.5,6.6-20.9,13.2-31.4,19.8
		C264.6,440.3,261.6,440.1,261.8,433.7z"/>
	<path class="st47" d="M559.1,773.5c-4.1-1.3-8.2-2.7-12.3-4c4.8-6.6,9.6-13.1,14.4-19.7c4.2,1.3,8.5,2.6,12.7,4
		C569.2,760.5,566.4,768.6,559.1,773.5z"/>
	<path class="st33" d="M172.2,862.5c0-8,5.6-11.7,11.6-15.1c3.8,2.7,7.6,5.4,11.4,8c-2.8,5.2-4.2,11.7-12,11.9
		C179.6,865.8,175.9,864.1,172.2,862.5z"/>
	<path class="st64" d="M463.3,597.1c-5.6-0.8-7.4-4.9-5.1-8.4c3.5-5.2-0.8-14.6,7.3-16.2c5.2-1,7,4.9,6.8,9.6
		C472,588.6,470.5,594.9,463.3,597.1z"/>
	<path class="st65" d="M386.6,823.7c11.8-6.7,23.7-13.3,35.5-20c-8.9,14-22,21.2-35.6,27.6C384.4,828.7,384.4,826.2,386.6,823.7z"/>
	<path class="st66" d="M386.6,823.7c0,2.6-0.1,5.1-0.1,7.7c-9.2,7.1-20.1,10.1-31.1,12.8c-4.1-5.8-0.9-9.1,4.1-11.7
		C368.6,829.5,377.6,826.6,386.6,823.7z"/>
	<path class="st19" d="M625.8,589.1c-0.9,5.2-3.5,8.6-9.2,8.9c-2-5.5-4.1-10.9-6.1-16.4c4.2-3.2,4.6-13.4,13.8-7.6
		C624.8,579.1,625.3,584.1,625.8,589.1z"/>
	<path class="st67" d="M598.7,640.8c8.2,0.9,6.3,7.6,7.4,12.7c-1.4,8.9,1.3,18.4-4.1,26.7c-4.1-1.2-5.5-5.1-7.8-8.1
		C595.7,661.6,597.2,651.2,598.7,640.8z"/>
	<path class="st68" d="M81.5,769.7c1.5-0.1,2.9-0.1,4.4-0.2c7.9,10.2,5.1,24.2,12.2,34.7c-1.6,1.7-3.2,3.3-4.8,5
		C85.5,797.2,82.8,783.7,81.5,769.7z"/>
	<path class="st69" d="M436.9,820.1c-9,7.6-17,17-32.1,18.2c4.6-13.6,16.5-15.8,24.3-22.5C432.3,816.2,435.2,817.1,436.9,820.1z"/>
	<path class="st70" d="M339.6,663.1c-6.5,1.8-13.1,3.7-19.6,5.5c-3-0.5-6-1.1-14.5-2.5c18.1-5,28.8-17.1,44.2-10
		C346.3,658.4,343,660.7,339.6,663.1z"/>
	<path class="st71" d="M367.1,851.5c10.6-5.1,20.4-13.3,35.5-10.6c-6.3,9.9-14.6,12.8-24.1,13.9
		C374.7,853.5,369.9,855.9,367.1,851.5z"/>
	<path class="st72" d="M242.3,476.6c-1.5,1-3,2.1-4.5,3.1c-11,5.3-21.2,13.8-34.8,9.5c-1.6-1.8-1.7-3.7-0.4-5.7
		c11.8-8.9,25.2-12,39.7-11.1C242.3,473.8,242.3,475.2,242.3,476.6z"/>
	<path class="st40" d="M601.7,519.4c-4,2.7-7.9,5.3-11.9,8c-3.9-3.9-7.8-7.8-11.8-11.7C584.8,502.3,586.9,502.6,601.7,519.4z"/>
	<path class="st73" d="M328.6,867.5c-13.3,5.9-26.7,4.6-44.2,1.6c15.2-9.1,28.1-3,40-5.8C325.9,864.6,328.2,865,328.6,867.5z"/>
	<path class="st28" d="M594.2,672.1c5.5-0.1,7,3.7,7.8,8.1c-1.7,6.3-3.5,12.7-5.2,19c-8-0.9-6.6-7.2-7.2-12.4
		C591.1,681.9,592.6,677,594.2,672.1z"/>
	<path class="st32" d="M449.8,572c-1.6,6.1-4.9,12.3-10.4,14.9c-3.8,1.8-9.2-3.5-9-7.5c0.4-7,7-9.9,13-12.2
		C447.1,565.9,449.4,567.8,449.8,572z"/>
	<path class="st28" d="M547.3,726.8c5.4-0.2,7.3,3,7.5,7.8c-3.9,5.2-7.7,10.4-11.6,15.6c-3.7-0.2-7-1.1-8.8-4.8
		C538.7,739.1,543,733,547.3,726.8z"/>
	<path class="st74" d="M445.1,395.1c-14,10.6-32.2,3.2-46.9,10.9c-1.4-1.5-4-1.8-4.5-4.2C410.4,396.2,427.4,392.6,445.1,395.1z"/>
	<path class="st35" d="M413.4,855c7.6,0.8,12.1,4.7,12.7,12.6c-2.6,1.3-5.2,2.6-7.7,3.9c-8-0.5-11.8-5.1-12.6-12.8
		C408.3,857.4,410.8,856.2,413.4,855z"/>
	<path class="st26" d="M480.2,418.3c11.8,3.8,23.6,7.6,35.4,11.4C501.3,433.5,487.5,436.1,480.2,418.3z"/>
	<path class="st75" d="M359.5,832.5c-1.4,3.9-2.7,7.8-4.1,11.7c-5.8,5.2-12.8,3.3-19.5,3.5c0-3.5-1.1-6.5-4.3-8.4
		C341,837,350.3,834.7,359.5,832.5z"/>
	<path class="st76" d="M343.7,417.9c1.6,0.7,3.2,1.5,4.7,2.2c-12.9,5.5-22.7,19.8-39.5,13.9C320.5,428.7,332.1,423.3,343.7,417.9z"
		/>
	<path class="st77" d="M535.4,715.1c-0.9-4.1-2-8-7.4-7.7c4.6-8.3,9.2-16.7,13.9-25c4.5,1.6,4.8,5.6,5.3,9.4
		c-2.8,7.7-5.6,15.4-8.4,23.1c0,0-1.7,0.4-1.7,0.4L535.4,715.1z"/>
	<path class="st78" d="M168.8,519.9c-1.6-1.5-3.2-3.1-4.9-4.6c6.8-8.1,13.3-16.4,23.4-20.8c2.8,2.9,2.5,5.9,0,8.8
		C181.1,508.8,174.9,514.4,168.8,519.9z"/>
	<path class="st79" d="M288.3,444.7c6.8,3.6,2.4,7.9,0.8,12.1c-1.4,1.3-2.7,2.5-4.1,3.8c-4.7-0.9-10.1,0.8-15.9-5
		C275.9,451.7,282.1,448.2,288.3,444.7z"/>
	<path class="st80" d="M300.6,417.7c-1.6-3.5-4.8-3.6-8-3.9c7.3-5.5,15.9-7.7,24.4-10.4c3.1,3.7,7.6,2.3,11.4,3.2
		C319.1,410.3,309.9,414,300.6,417.7z"/>
	<path class="st81" d="M410.1,375c-1.3,2.6-2.6,5.1-3.9,7.7c-9.1,1.8-17.8,6-27.4,4.2c0-1.5-0.1-3.1-0.1-4.6
		C388.4,376.5,399.3,375.8,410.1,375z"/>
	<path class="st32" d="M129.6,749.2c-1.1,6.9-3.8,12.2-11.9,12.3c-3.3-4.5-5.1-9.6-5.3-15.3c5.4,0,10.8-4.2,16.3-0.1
		C129.2,747.1,129.5,748.1,129.6,749.2z"/>
	<path class="st82" d="M436.9,820.1c-3.2-0.4-6.3-0.9-7.7-4.4c5.2-5.4,10.5-10.9,15.7-16.3c1.4,3,2.8,6,4.2,9
		C445.1,812.3,441,816.2,436.9,820.1z"/>
	<path class="st83" d="M120.9,569.3c4.9,1.3,3.7,5,3.3,8.4c-3.6,6.7-7.2,13.4-10.8,20.1c-4.3,0.8-6.3-0.6-5.1-5.2
		C112.5,584.8,116.7,577.1,120.9,569.3z"/>
	<path class="st84" d="M547.2,691.7c-3.9-1.9-4.5-5.7-5.3-9.4c1.9-4.7,3.9-9.4,5.8-14.1c9.3-3.8,9.5,0.9,7.3,7.8
		C553.6,681.9,551.7,687.5,547.2,691.7z"/>
	<path class="st85" d="M393.7,401.8c1.5,1.4,3,2.8,4.5,4.2c-11.5,1.8-21.9,11.8-34.7,4.8C372.8,405.1,383.4,404.1,393.7,401.8z"/>
	<path class="st86" d="M328.6,867.5c-1.4-1.4-2.8-2.8-4.3-4.1c9.2-2.4,18.4-4.7,27.7-7.1c2.8,1.3,4.7,3.1,3.6,6.5
		C346.6,864.4,337.6,866,328.6,867.5z"/>
	<path class="st87" d="M555,676c-0.8-4.1-1.8-8.1-7.3-7.8c3.4-9.5,6.7-18.9,10.1-28.4c4.9,6.7-1.4,14.1,1.3,21
		C558.1,666,559,671.7,555,676z"/>
	<path class="st88" d="M422.7,585.5c-4.1,8-8.2,15.9-12.4,23.9C404.4,590,407.3,584.5,422.7,585.5z"/>
	<path class="st89" d="M355.6,862.8c-1.2-2.2-2.4-4.3-3.6-6.5c5.1-1.6,10.1-3.2,15.2-4.8c3.9,0.7,8.6-1.3,11.4,3.3
		C371.6,859.6,364,862.3,355.6,862.8z"/>
	<path class="st90" d="M86.7,661c-1.3-1.4-2.5-2.9-3.8-4.3c2.9-9.4,5.9-18.8,8.8-28.2C96.1,641.1,90.8,650.9,86.7,661z"/>
	<path class="st91" d="M108.3,592.6c1.7,1.7,3.4,3.5,5.1,5.2c-3.2,6.6-6.4,13.2-9.7,19.8C98.2,607.2,104,600,108.3,592.6z"/>
	<path class="st92" d="M249.8,448.8c-5,8.2-12.3,11.7-22.7,11.7c4.4-8.6,11.6-11.9,18.6-15.5C249.6,443.5,250.3,445.5,249.8,448.8z"
		/>
	<path class="st93" d="M249.8,448.8c-1.3-1.2-2.7-2.5-4-3.7c4-5.7,9.7-9,16.1-11.3c2.5,1.2,4.9,2.5,7.4,3.8
		C262.9,441.7,258.2,448.5,249.8,448.8z"/>
	<path class="st94" d="M273.6,840.5c2.7,3.5,8.2,5.1,7.6,10.9c-5.1,5-10.4,4.5-15.7,0.4c1.3-3.8,2.7-7.7,4-11.5
		C270.9,840.4,272.2,840.5,273.6,840.5z"/>
	<path class="st95" d="M468.4,773.3c2.8,0.6,8.3,0.4,5.1,4.6c-3.6,4.7-6.8,14-16.3,7.7C461,781.5,464.7,777.4,468.4,773.3z"/>
	<path class="st22" d="M226.3,491.5c1.4,0.3,2.9,0.7,4.3,1c-11.5,5.1-23.8,5.8-36,7.1c-0.1-6.9,3.9-9.4,10.1-9.3
		C212,490.5,219.5,485.5,226.3,491.5z"/>
	<path class="st96" d="M203,492c-2.8,2.5-5.5,5.1-8.3,7.6c-1.3,1.2-2.5,2.3-3.8,3.5c-1.2,0.1-2.4,0.2-3.6,0.2c0-2.9,0-5.9,0-8.8
		c4.1-5.1,9-9,15.3-11c0.2,1.6,0.4,3.1,0.6,4.7c1.4,0.9,1.8,1.8,1.3,2.6C204,491.6,203.5,492,203,492z"/>
	<path class="st97" d="M390.2,625.7c4.4-2.9,4.7-7.3,4.1-12c5.5,2,12.2,5.5,10,11.4C401.8,631.5,395.1,629.7,390.2,625.7z"/>
	<path class="st98" d="M711.1,168c-27.6-15.6-49-39.7-76.3-55.8c-42.2-24.8-86.3-33.6-133.8-18.6c-12.3,3.9-24.5,8.4-32.6,19.5
		c-13,8.9-18.2,24.6-33.1,38.8c9.4-30.3,22.9-51.2,46.7-64.5c50.3-28.2,99.3-18.6,146.1,8.2C660.2,114,687,139.7,711.1,168z"/>
	<path class="st99" d="M863.3,336.1c3.6-6.9,8.1-10.5,14.6-3c54.6,62.5,55.2,154-23.6,196.6c-0.9,0.5-2.4-0.1-6.4-0.5
		c7.3-6.7,13.1-12.1,19-17.5c41.9-37.4,34.4-113.5,5.5-150.1C866.9,354.5,858.1,347.5,863.3,336.1z"/>
	<path class="st100" d="M831.8,315.9c21.9-33.4,10.2-62.4-27.8-69c-7-1.2-14-2.2-21-3.7c-4.5-1-9.4-2.8-8.6-8.6
		c0.8-6.3,6-9.1,11.4-7.8c20.2,5,44.9,0.5,58.2,21.1c14.6,22.7,11,47.4-0.1,70.7c-8.7,18.2-22.5,33.1-35.7,48.3
		c-3.5,0.9-5.4,0.4-3.7-3.8C813.8,347.4,825.8,333.4,831.8,315.9z"/>
	<path class="st101" d="M863.3,336.1c1.8,10.1,9,16.9,14.8,24.6c33.8,44.1,30.4,126.2-11.1,151c12.8-21.5,25.1-42.4,24.3-69.6
		c-0.9-29.3-10-54.9-28.5-76.2C852.2,353.6,851.7,345.8,863.3,336.1z"/>
	<path class="st102" d="M621,125.1c16.3-4.6,24.6,10.2,35.4,16.6c22.5,13.4,41.3,32.5,58.5,52.5c3.2,3.7,14.3,11.3,0,16.7
		C686.5,179.1,653.9,151.9,621,125.1z"/>
	<path class="st103" d="M597.4,308.5c-2.7,1.6-4.6,4.8-10.3,3.4c21.8-37.3,46.7-69.9,86.8-88.6c12.7-5.9,18.3-2.7,20.6,10
		c-1.6,3.9-5,6.1-8.7,7C646.3,250.1,622.7,280.4,597.4,308.5z"/>
	<path class="st101" d="M597.4,308.5c21.5-39.1,52.5-66,97.1-75.2c0.5,4.4,2.5,10.1-3.2,11.8C653.3,256.4,628.4,287,597.4,308.5z"/>
	<path class="st104" d="M778,195c9,10.9,11,18-7.7,15.9c-9.4-1.1-17.6,3.5-25.5,8.1c-3.4,1.9-6.9,3.7-10.7,0.6
		c-4.5-3.6-4.2-8.1-1.5-12.1c6-8.6,2.9-22.9,16.7-26.5C759.4,184.5,769.6,187.9,778,195z"/>
	<path class="st105" d="M854.9,327.6c-2.4-1.7-3.1-4.2-1.8-6.6c14.8-27.9,11.1-55.5-1.5-82.8C877,260.2,878.1,291.4,854.9,327.6z"/>
	<path class="st106" d="M754,281.1c10.4-6.5,25.3-5.6,31.2-19.2c4.4,0,10.1-0.9,12.1,3.5c3.2,6.9-5.2,7.1-8,10.6
		C779.1,288.6,767.2,289.4,754,281.1z"/>
	<path class="st107" d="M819.9,296.5c-0.3,4.8,2.9,12.1-2.8,13.6c-7.9,2.1-11.1-7-16-11.4c-3.8-3.4-10.7-6.9-5.1-13.9
		c2.3-2.9,5.7-5,8.6-7.4C811.5,282.2,816.8,288.5,819.9,296.5z"/>
	<path class="st108" d="M804.5,171.3c3.6-3.9,8-5.9,14.8-5.8c-2.5,12-7.3,23-14.5,31.6c-3,3.6-8.6-4.9-11.9-9.4
		C790.2,177.6,805.2,180,804.5,171.3z"/>
	<path class="st109" d="M819.9,296.5c-7.2-4.8-14.2-9.6-15.3-19.2c3-3.8,6.2-10.8,11.5-5C822,278.8,826,287.3,819.9,296.5z"/>
	<path class="st110" d="M804.5,171.3c3.5,10.7-9,10.1-11.6,16.4c-6.1-2.2-12.1-4.6-2.1-10C795.3,175.3,800,173.4,804.5,171.3z"/>
	<path class="st111" d="M804.5,363c1.2,1.3,2.5,2.5,3.7,3.8c-5,6.7-10.1,13.4-15.1,20C787.7,374.5,799.9,370.6,804.5,363z"/>
	<path class="st112" d="M718.2,224.7c27.3,2.2,39.5,13.6,47.4,45.2C751.7,248.9,737.5,234,718.2,224.7z"/>
	<path class="st113" d="M203,492c0-1.3,0.1-2.5,0.2-3.8c11.6-2.8,23.1-5.7,34.7-8.5c1.9,9.5-8.2,7.3-11.5,11.8
		C218.6,491.7,210.8,491.8,203,492z"/>
</g>
</svg>
