<?xml version="1.0" encoding="utf-8"?>
<!-- Generator: Adobe Illustrator 23.0.1, SVG Export Plug-In . SVG Version: 6.00 Build 0)  -->
<svg version="1.1" id="Layer_4" xmlns="http://www.w3.org/2000/svg" xmlns:xlink="http://www.w3.org/1999/xlink" x="0px" y="0px"
	 viewBox="0 0 1000 1000" style="enable-background:new 0 0 1000 1000;" xml:space="preserve">
<style type="text/css">
	.st0{fill:#5F0203;}
	.st1{fill:#8A8C9D;}
	.st2{fill:#898B9C;}
	.st3{fill:#4D576A;}
	.st4{fill:#4D5669;}
	.st5{fill:#043E1D;}
	.st6{fill:#045C2A;}
	.st7{fill:#043418;}
	.st8{fill:#B2B7A7;}
	.st9{fill:#585858;}
	.st10{fill:#5D6652;}
	.st11{fill:#049743;}
	.st12{fill:#575757;}
	.st13{fill:#2C5C40;}
	.st14{fill:#049643;}
	.st15{fill:#03401D;}
	.st16{fill:#032C14;}
	.st17{fill:#979797;}
	.st18{fill:#373737;}
	.st19{fill:#A2A897;}
	.st20{fill:#7D3E00;}
	.st21{fill:#565132;}
	.st22{fill:#ADAA74;}
	.st23{fill:#A2A2A2;}
	.st24{fill:#512800;}
	.st25{fill:#5C6551;}
	.st26{fill:#918E54;}
	.st27{fill:#10180F;}
	.st28{fill:#03451F;}
	.st29{fill:#908D54;}
	.st30{fill:#8F8C53;}
	.st31{fill:#575232;}
	.st32{fill:#082411;}
	.st33{fill:#0B160B;}
	.st34{fill:#E2E6DA;}
	.st35{fill:#0D1F10;}
	.st36{fill:#048D3F;}
	.st37{fill:#B1B6A6;}
	.st38{fill:#08130A;}
	.st39{fill:#534E2F;}
	.st40{fill:#043D1D;}
	.st41{fill:#585333;}
	.st42{fill:#918D54;}
	.st43{fill:#033F1D;}
	.st44{fill:#7F3F00;}
	.st45{fill:#5B6450;}
	.st46{fill:#595433;}
	.st47{fill:#090F08;}
	.st48{fill:none;}
	.st49{fill:#AEB3A3;}
	.st50{fill:#5E6653;}
	.st51{fill:#0D130B;}
	.st52{fill:#7F4000;}
	.st53{fill:#C3C6D1;}
	.st54{fill:#5A6350;}
	.st55{fill:#524D2F;}
	.st56{fill:#ADB2A2;}
	.st57{fill:#E2E4DB;}
	.st58{fill:#1B1C1A;}
	.st59{fill:#88854F;}
	.st60{fill:#5A634F;}
	.st61{fill:#A7A46F;}
	.st62{fill:#10110F;}
	.st63{fill:#DBDFD2;}
	.st64{fill:#9F9F9F;}
	.st65{fill:#0C1D0F;}
	.st66{fill:#0F100E;}
	.st67{fill:#888C80;}
	.st68{fill:#8E8B54;}
	.st69{fill:#B7BCAC;}
	.st70{fill:#36331F;}
	.st71{fill:#94915D;}
	.st72{fill:#E30404;}
	.st73{fill:#CA0404;}
	.st74{fill:#2C754C;}
	.st75{fill:#FBEBEB;}
	.st76{fill:#FDF4F4;}
	.st77{fill:#075A2A;}
	.st78{fill:#2C744A;}
	.st79{fill:#085A29;}
	.st80{fill:#CED2DB;}
	.st81{fill:#959EB1;}
	.st82{fill:#CCD0D9;}
	.st83{fill:#969FB2;}
	.st84{fill:#08090A;}
	.st85{fill:#646B7D;}
	.st86{fill:#050C06;}
	.st87{fill:#011B0C;}
	.st88{fill:#060607;}
	.st89{fill:#080809;}
	.st90{fill:#036A2F;}
	.st91{fill:#2B9E5C;}
	.st92{fill:#032A13;}
	.st93{fill:#1C0E00;}
	.st94{fill:#CA6500;}
	.st95{fill:#DEE2D4;}
	.st96{fill:#700404;}
	.st97{fill:#990303;}
	.st98{fill:#0A1C12;}
	.st99{fill:#808292;}
	.st100{fill:#797A89;}
	.st101{fill:#838595;}
	.st102{fill:#848696;}
</style>
<g>
	<path d="M932.8,383.7c-4-36.8-24.8-68.7-38.9-102.4c-10.1-4-9.9,3.6-11,9.8c0.3,1.2,0.6,2.3,0.9,3.5c0.2,0.8,0.4,1.7,0.6,2.5
		c4.4,18.5,6,37.6,11,56.2c7.6,27.8-2.7,53.9-19.6,76.3c-8.3,10.9-19.7,19.6-34.8,8.8c-0.5-0.3-1-0.6-1.4-0.8
		c-0.2-0.1-0.3-0.2-0.5-0.2c-5.4-2-8.9,2.6-12.9,5.1c-1.9,1.2-3.8,2.7-5.8,3.6c-2.2,1-4.6,1.3-7.5-0.5c-0.1-0.1-0.2-0.1-0.2-0.2
		c-4.7-3.7-6.7-9.3-9.3-14.3c-0.1-0.1-0.1-0.2-0.2-0.3c-0.3-0.4-0.5-0.8-0.8-1.1c-0.4-0.4-0.8-0.8-1.2-1.2c-0.1-0.1-0.2-0.2-0.3-0.3
		c-0.3-0.3-0.7-0.5-1-0.8c-16-4.4-29.4-13.7-43.1-22.4c-0.3-0.2-0.5-0.3-0.8-0.5c-0.1-0.1-0.2-0.1-0.3-0.2c-4-2.3-7.7-5.1-11.9-7.1
		c-0.4-0.2-0.7-0.4-1.1-0.5c-0.1-0.1-0.3-0.1-0.4-0.2c-0.2-0.1-0.5-0.1-0.7-0.2c-0.2-0.1-0.5-0.1-0.7-0.1c-1.3-0.2-2.6-0.3-3.9-0.2
		c-3.9-0.8-7,4.5-10.7,5.3c-1.6,0.4-3.4-0.2-5.4-2.5c-0.2-0.2-0.4-0.5-0.6-0.7c-2.8-13.5,2.7-22.9,13-31.8
		c10.5-9.2,20.8-19.2,26.4-32.7c0-1.2-0.2-2.3-0.6-3.3c-0.2-0.4-0.4-0.8-0.7-1.2c-0.6-0.8-1.5-1.6-2.7-2.1h0c-0.4,0-0.8,0-1.1,0
		c-1.6,0.1-3,0.7-4.3,1.4c-0.5,0.3-1,0.6-1.5,1c-0.2,0.1-0.3,0.3-0.5,0.4c-4.4,3.9-8.5,8.1-12.8,12.1c-0.3,0.2-0.5,0.5-0.8,0.7
		c-0.3,0.3-0.7,0.7-1,1c-3.4,3.3-6.6,6.7-10,10c-15.1,14.8-17.7,14.9-33.1,0.4c-11.8-11-22.3-23.3-35-33.4c-0.8-0.6-1.5-1.3-2.3-1.9
		c-0.6-0.5-1.1-0.9-1.7-1.4c-1.6-1.3-3.2-2.4-5-3.3c-0.4-0.2-0.8-0.4-1.3-0.6c-0.2-0.1-0.4-0.1-0.6-0.2c-4.8-1.6-10.2-0.7-15-3.3
		c-0.3-0.3-0.5-0.6-0.8-0.9c-0.4-0.5-0.7-1-0.9-1.5c-0.8-1.9-0.7-4.1-0.7-6.2c0-0.7,0-1.4-0.1-2.1v0c-0.2-1.5-0.5-2.9-1-4.3
		c-0.5-1.5-1-2.9-1.6-4.3c-0.2-0.4-0.3-0.7-0.5-1.1c-9.9-17.6-23-33.1-32.3-51.1c-0.2-0.3-0.3-0.6-0.5-1c0,0,0,0,0-0.1
		c-1.2-1.1-2.6-2.1-4.1-2.8c-0.1-0.1-0.3-0.1-0.4-0.2c-0.2-0.1-0.4-0.2-0.7-0.3c-5.7-2.6-11.9-4.2-17.5-7.2
		c-1.3-0.7-2.7-1.5-3.9-2.5c-0.3-0.2-0.5-0.4-0.8-0.6c-2.1-10.8,12.6-14,11.3-24.5c0,0,0,0,0,0c0-0.1,0-0.1,0-0.2
		c-0.7-1.5-1.5-2.9-2.2-4.4c-0.5-0.9-0.9-1.8-1.2-2.7c-0.3-0.8-0.6-1.7-0.8-2.5c-5.1-14.3-3.1-28.9-1.6-43.4c-0.1-1-0.4-1.9-0.7-2.8
		c-0.2-0.6-0.4-1.1-0.7-1.6c-0.5-1.1-1.2-2.1-2-3c0,0-0.1-0.1-0.2-0.1c-0.5-0.5-1.1-1-1.7-1.6c-2.8-2.6-5.6-5.2-7.8-8.3
		c-0.7-1-1.4-2.1-2-3.3c-0.1-0.2-0.3-0.5-0.4-0.7c-6.3-11.8,0.1-17.9,10-22.6c30.2-14.4,60.5-19.4,91.1-2c0.4,0.3,0.9,0.5,1.3,0.8
		c0.8,0.3,1.5,0.7,2.3,1c1.9,0.9,3.8,1.8,5.6,2.9c3.5,2,6.9,4.2,10.2,6.5c0.7,0.5,1.3,0.9,2,1.4c4.9,2.4,5.1,7.1,6.2,11.5
		c0,0.2,0.1,0.4,0.1,0.5c0.1,0.4,0.2,0.8,0.3,1.2c5.2,5.6,10.7,5.3,16.1,4c2.6-0.6,5.1-1.5,7.7-2.1c1.8-0.4,3.6-0.7,5.4-0.7
		c4.3-2.1,8.3-4.3,6.6-10.3c-14.8-7.8-30-14.8-44.3-23.4C641,73.2,607.2,65.1,568,81.4c-37.4,15.6-43.3,28.4-20.7,61.9
		c5.9,8.7,8.7,17.3-7.4,16.7c-9.7-0.4-20.8,7.1-28.4-5.8c-2.8-4.7-6.4,0.1-9.8,1.5c-11.7,4.8-17.8,14-21.1,25.4
		c-6.3,22-1.3,42.9,2.7,65c5.9,33.1,10.1,65.5,28.3,95c7.7,12.3,11.2,33.7-2.3,39.8c-18.3,8.3-22.1,18.7-21.1,35.4
		c0.2,3.8,0.9,7.9-3.2,10.5c-6.3,4-7.3-3-10.4-5.2c-6.3-4.5-13.1-9.9-20.7-7.3c-8,2.7-9.3-0.5-13.7-6.3c-13.3-17.7-24-37.5-40.3-53
		c-5.3-5.1-9.4-14.4-18.8-10.9c-8.3,3-5.6,13.4-9.8,19.7c-1.2,1.8,0,5.1-0.3,7.7c-2.4,26.1,14.2,43.8,30.9,58.5
		c20.5,18.1-6.1,40.3,9,57.1c1.4,1.5,2.6,3.1,0.8,4.6c-1.9,1.5-4.8,1.9-6.5,3.6c-20.3,19.3-46.8,30.4-66.8,50.3
		c-3.9,3.9-10.8,5.8-17.8,5.3c-13-0.8-26.1-0.8-39,0c-7.5,0.5-10.9-2.5-14.8-8.4c-9.7-14.7-17.2-30.9-30.7-43.2
		c-17.9-16.4-26.5-19-41.4-4c-16.3,16.4-25.1,34-13.8,51.8c11.3,17.7,28.9,26.3,44.4,37.9c8.5,6.3,11,8.9,5,19.2
		c-19.7,33.5-37.8,67.9-56.5,101.9c-13.2-6.8-25-16.1-40-20.2c-27.2-7.5-48,4.8-56.1,31.5c-8.3,27.6-1.5,53.3,8.8,77.3
		c17.8,41.6,43.1,77.3,90.2,90.7c59.7,17,87.3-24,75.5-58c-10.2-29.6,7.2-36.5,22.4-49c3.4-2.8,8.3-4.2,10.7-7.5
		c11.3-15.7,21.4-9,28.8,2.5c18.6,28.7,34.6,58.6,33.7,94.6c-0.4,16.6,8.6,25.7,25.6,26.5c27.5,1.3,77.6-28.9,88.9-54.3
		c2.8-6.2,7-13.5,5.9-19.5c-8.6-48.1-15.8-96.7-47.8-137.1c-13.8-17.4-13.8-22.3-11.6-33.9c15.4,19.8,30.5,41.8,55.1,48.4
		c23.8,6.4,29.2,24.5,35.6,42.2c5.4,15,4.7,31.5,4.5,47.5c-0.4,26.8,22.1,40.8,45.3,27c20-11.9,39.5-25.4,56.8-40.9
		c25.4-22.8,28-47.3,10.8-75.8c-6.5-10.8-13.7-21.4-22.1-30.8c-11.3-12.7-31.5-22.9-5.8-40.6c1.1-0.7,0.4-3.7,0.9-5.6
		c9.6-38.8,2.3-74.8-17.9-108.4c6.5-3,15-4.5,19.8-9.6c18.6-19.5,40.8-23.3,65.6-12.6c20.9,9.1,38.4,24.1,59.3,32.3
		c30,11.8,62.1,5,93.1,8.2c20.3,2.1,35.5-6.6,49.1-20.8c8.2-8.6,12.3-15.4,2.9-26.3c-5.4-6.2-11.4-15.6-3.2-24.1
		c7.5-7.9,16.2-2.3,22.6,2c10.7,7.3,20.3,7.6,27.9-2.5C925.8,437.3,935.7,411,932.8,383.7z M526.9,570.3
		c-0.5,16.4,8.1,32.2,3.3,48.9c-16.8-12.4-24.3-32.2-18-49.5c1.4-3.8,5.8-6.5,8.8-9.7C523,563.5,527,566.9,526.9,570.3z"/>
	<path class="st0" d="M893.9,281.3c-7.1,0.6-7.3,5.9-7.6,11.1c-7.1,18.9-16.3,35.6-38.5,39.9c-27.2-1.6-47.9-17.6-69.6-31.6
		c-2.3-1.5-4.4-3.3-6.5-5.1c-6.4-6.1-14.3-10.3-20.5-16.6c-10-10.1-20-20-30-30c-3.1-3.1-6.1-6.2-9-9.5
		c-6.7-8.9-12.6-18.4-19.1-27.5c-3.4-6.1-6.4-12.3-10.6-17.9c-1-1.5-1.8-3.1-2.5-4.8c-2.1-6.1-4.2-12.2-4.8-18.7
		c-1-14.7,6.1-25.5,16.3-35c6.2-3.7,11.2-9.7,19-10.3c4.1-1.6,6.7-4.6,8.5-8.5c37.7-14.4,70.3-8,101.3,19.2
		c24.5,21.6,50.1,41.7,69,68.5C906.6,228.9,907.7,254.9,893.9,281.3z"/>
	<path class="st1" d="M366.5,538.2c18.6-15.7,37.7-30.5,58.8-42.6c2.9,13.1-8.5,17.3-15.4,23.8c-9.8,9.1-21.7,15.9-28.9,27.9
		c32.7-23.1,61.9-50.3,91.9-76.7c-11,5.2-19.1,14.6-29.3,20.7c-5.5,3.3-10.2,11.3-18.3,4.3c20.5-18.7,39.8-38.9,63-54.5
		c9,17.1,15.8,35.2,29.5,49.8c9,9.6,1.5,17.9-5.5,25.2c-22.4,23.6-49.4,42-73.3,64c-6.2,5.7-12.8,11-19.2,16.5
		c-19.1,16.8-33.1,15.8-49.9-3.4C355.6,576.9,354.3,556,366.5,538.2z"/>
	<path class="st2" d="M238.2,621c12.5-20,29.3-35.8,48.8-48.6c13.9-9.2,29-13.2,45.4-6.4c2.3,26.8,8.2,52.1,29.2,71.5
		c7.2,6.6,3.5,14.4-1,21.1c-4,5.9-8.7,11.3-15.6,14.2c-5,0.8-7-2.1-8-6.3c-3.2,0.3,4.3-9.7-2.7-3.7c-12.7,10.9-24,23.6-35.9,35.4
		c-6,5.9-11.7,12.3-21.1,12.6C242.5,699.6,224.7,658.6,238.2,621z"/>
	<path class="st3" d="M343.8,671.9c2.8-3.5,5.4-7.2,8.5-10.4c9.3-9.4,12.1-16.4-0.3-27.7c-19.6-17.7-21.8-42.6-19.6-67.8
		c8.2,13.2,6.4,29.9,15.4,43.2c9.7,14.3,19.7,27.9,37.8,31c10,1.7,9.2,5.9,6.8,13.3c-13,40.2-43.2,65.2-77.1,86.4
		c-21,13.1-39.6,1.2-54.5-12c-24.6-21.7-34.4-51-34.3-83.6c0-9.5,3.2-17.8,11.6-23.3c-1.7,28.9,0.7,56.5,24.6,77.4
		c5.5,4.8,10.4,9.6,18.3,8.5c-4.8,11.1,6.2,3.4,7.9,6.6c1.8,0.7,2.8,4.9,3.9,3.4C306.6,698.1,325.4,685.3,343.8,671.9z"/>
	<path class="st4" d="M164.6,723c-11.7,39.6-0.2,66.5,34.6,81.8c6.2,2.7,12.9,5.5,18.8,3.1c20.9-8.7,21.7,6.6,22.8,19.2
		c1.2,13.6,0.8,29.1-11.5,37.3c-11.7,7.8-25.2,2.4-36.7-4.6c-19.4-11.9-37.9-25-52.1-43.2c4.1-21.6,4.4-43.2,3.5-65.2
		C143.4,738.7,145,723.1,164.6,723z"/>
	<path class="st5" d="M847.6,328.5c21.1-3.2,24.9-25,38.7-36c12.7,46.6,29,93.2-4.1,138.7c-8.8,12.1-20.4,16.8-34.5,18.2
		c-11.3,1.1-8.8-5.8-7.9-12.1c0.2-0.9,0.3-1.8,0.5-2.7c8.7-13.2,15.2-26.7,14.9-43.4c-0.3-12.7,1.1-12.8,15.2-18.6
		c2.6-0.4-1.4-3.6-0.1-1.3c0.4,0.8-0.1,1-1.2,1.3c-9.6,2.7-16.6-0.1-20.3-9.7c-2.3-6.2-6.2-11.3-9.9-16.7c-0.9-1.7-1.3-3.5-1.5-5.4
		C837.3,333.9,842.6,331.3,847.6,328.5z"/>
	<path class="st3" d="M366.5,538.2c-6.1,22.5-6.4,43.5,14.3,59.7c9.9,7.7,20,9.2,29.8,0.6c33.6-29.3,66.7-59,100.5-88.1
		c9.6-8.3,7.5-13.7-0.6-21.6c-13.1-12.9-22.6-28.1-22.2-47.7c7.6-6.6,8.4,1.4,9.7,5.2c7.2,20.2,19,36.6,37,48.5
		c6.3,4.1,9.8,7.8,1,14c-46.3,32.7-84.6,74.4-125.2,113.4c-11.6,11.2-20.8,12.3-33.8,3.6c-20.5-13.8-34.6-44.2-29.8-67.5
		C349.4,547.6,357.4,542.3,366.5,538.2z"/>
	<path class="st6" d="M547.3,187.8c-5,37.5,16.6,65.5,34.4,94.5c31.3,51,75.7,89.8,121,127.6c2.9,2.5,5.5,5.3,8.3,8
		c-4.2,12.8-12.1,7.9-19.8,4.1c-1.3-1.3-2.6-2.6-3.8-3.9c-2.1-2.5-4.5-4.6-6.5-7.2c-23.9-30.4-44.4-33.9-77-13.1
		c-3.3,2.1-6.2,4.8-10.1,5.8c-5.6-0.5-9.3-2.8-8.1-9.2l-0.1-0.3c4.5-10.3,14-16.9,19.5-26.4c3.7-6.3,12.9-11.8,5.5-20.1
		c-6.5-7.4-15.8-8.3-25.1-4.8c-5.2,1.9-9.1,7.7-15.8,5.2c-3.7-6.5-0.6-12.4,4.1-15.2c19.7-11.5,10.3-21.6-1.1-32.8
		c-6.9,3.6-7.2,11.8-11.7,16.9c-3.2,3.6-4.8,12.4-12.8,5.5c-4.2-11.1-2.8-23.1-5-34.5c0.2-4.6,2-8.7,4.4-12.5
		c5.6-8.7,2.3-13.9-6-18.4c-6.2-3.3-16-3.6-14.9-14.6c9.5-9.3,10.7-20.9,11.1-33.5C538.2,201.3,533.8,190.1,547.3,187.8z"/>
	<path class="st6" d="M722.7,245.7c10.5,10.5,20.9,20.9,31.4,31.4c-0.3,13.7-3.8,26.2-13.1,36.7c-13.9,0.6-17-14.1-26-18.4
		c6.7,5.4,12.5,13.6,20.7,19.3c7.1,3.9,16.2,6.2,14.5,17.4c-2.5,5.3-6.7,9.1-11.8,11.9c-29.6-2.1-58.1-7.8-83.4-24.6
		c-2.3-6.5,1.4-11.2,5.4-15.4c18.6-19.5,38-38.2,56.9-57.5C718.6,245.1,720.8,245.2,722.7,245.7z"/>
	<path class="st7" d="M847.6,328.5c-2.6,3.8-5.1,7.5-7.7,11.3c-3.9,1.1-8.3,0.7-7.1,7.7c1.6,9.5,0.9,19.2,0.1,28.8
		c-0.6,7.4-3.2,13.8-10.6,17.1c-24.4-3.4-46.7,4-68.8,12.8c-5.5-0.1-9.2-2.9-11.4-7.9c3.5-13.5,17.2-20.1,21.7-33.6
		c6.4-19,12.3-37.7,10.3-58.1c-0.4-3.9,0-7.7,3.2-10.6C800.5,307.5,820.5,325.7,847.6,328.5z"/>
	<path class="st8" d="M434.1,613.9c17.1,8.8,27.1,25.7,42.1,37c12.7,9.5,25,16.2,41.1,9c16.5-7.3,24.9-19.2,26.1-37.6
		c1.9-28.7-5.2-55.4-14.6-81.9c-1.7-4.7-9.4-11.2-0.3-14.5c8.1-2.9,7.4,7.1,9.5,11.5c12.2,25.5,18.1,52.2,17.9,80.9
		c-0.2,21.2-7.4,35.9-25,47c-12.6,8-23.9,18-38.5,22.4C454.5,687.2,420.8,644.4,434.1,613.9z"/>
	<path class="st2" d="M164.6,723c-20.3,10.2-18.4,29.3-14.9,45.9c3.9,18.2-0.8,32.9-9.2,47.7c-29.8-33.6-43.3-72-34.8-116.9
		c17.4,8.7,36.2,11.8,55.1,14.5C166,715.4,169,717.6,164.6,723z"/>
	<path class="st5" d="M691.2,422c6.6-1.2,14.3,2.6,19.8-4.1c11.7,7.7,23.5,15.4,35.2,23.1c-0.1,11.4,6.1,21.2,8,32.1
		c-12.6,13.1-29.1,18.1-46,22.2c-15.8,3.8-26.9-6.7-39.1-13.2c-4.8-2.5-2.1-6,1.8-8.6C698.8,455,699.8,452.5,691.2,422z"/>
	<path class="st9" d="M558.4,679.9c26.4,22.2,28.4,53.5,30.1,84.3c0.6,10.8-10.2,15.5-18.1,21c-5.2,2.6-10.8,4-16.5,4.3
		c-7.5,0.4-14-2.2-17.8-9.1c-4.2-7.7,2.4-11.5,6.4-16.1c7.4-6.4,13.6-13.3,14.8-23.8c2.8-23.3-11-34.9-33.4-27.6
		c-2.5,0.8-5,1.2-7.6,1.1c-12-4-15-11.3-8.4-22.3c10.8-7.3,21.6-14.4,32.3-21.8c8-5.5,13.2-4.8,14.7,5.7c-1.8,3.1-8.8,1.5-7.3,6.6
		c0.9,3.2,5.9,4.4,8.4,7.2C557.7,686.4,555.2,682.4,558.4,679.9z"/>
	<path class="st10" d="M569.1,496.8c-37.6-0.5-78.7-56.1-69.2-93.2c1.8-7,6.3-8.9,12.4-10.2c8.9-1.8,7,5.3,8.2,9.6
		c9,31.3,27,55.5,55.9,71.3c5.7,3.1,11.6,6.7,8.7,15.1C582.4,497.4,575.7,497,569.1,496.8z"/>
	<path class="st11" d="M547.3,187.8c-8.5,9.5-4.7,21.2-4,31.5c1,13.8-4.1,21.7-16,26.7c-6.9,11.9-12.9,24.3-21.2,37.1
		c-11.9-19.3-5.4-40-10.3-58.6c4.1-13.6,4.4-29.3,19-37.5c2.8-2.5,5.7-5,8.5-7.5C543.6,169.7,548,171.2,547.3,187.8L547.3,187.8z"/>
	<path class="st12" d="M331.4,745.5c12-12.8,22.6-27.2,38.9-35.2c4.8,14.6-7.5,18.2-14,23.8c22.2-9.1,27.7-7.7,41.8,15.2
		c7,11.3,16.2,22.2,14.6,37c-0.8,1.7-2,3-3.7,3.8c-4.2-0.4-6.6-3.5-9.3-6.2c-20-19.7-26.8-18.8-42,5.6c-4.3,6.7-8.8,12.4-14.8,1.5
		C335.1,776.7,321.2,764.2,331.4,745.5z"/>
	<path class="st12" d="M429.3,835.5c11.7,18.6-4.9,23.6-15.1,31.7c-5.2,2.9-11.3,2.7-16.8,4.7c-9.8,3.8-18,1.3-24.4-6.6
		c-8.1-10-12.2-22.8-10.2-34.5c1.7-10,13.4-3,20.4-4.5c11.5,0,16.1-7.8,19.6-17.2c2.4-6.4,1.6-13.9,6.4-19.5
		c0.7-0.5,1.4-1.1,2.1-1.6c13.4,4.1,8.4,16.8,12.2,25.5C426.5,820.7,426.8,828.4,429.3,835.5z"/>
	<path class="st3" d="M210.3,877.4C131.7,875.4,62.7,779,93.2,711C95.4,794,135,847.3,210.3,877.4z"/>
	<path class="st13" d="M754.2,473.1c-9-9.1-16.1-18.7-8-32.1c17.6,9.4,33.8,22,54.7,23.6c9.7,0.7,19.4,0.8,28.3-4.5
		c3.8-2.3,8.4-5.5,12.4-1.5c4.7,4.7,0.4,9.5-1.7,14.1c-9.1,12.1-19.3,22.6-34.8,26.3c-9.2,2.2-18,2.7-24.3-6.4
		C773.1,484.6,769.7,470.5,754.2,473.1z"/>
	<path class="st14" d="M566.8,194.3c-3.4-16.4-7.9-32.8,0.2-49.1c3.8-11.7,11-19.9,23.5-22.5c13.2,5.3,23.4,15.6,36,21.8
		c2.6,4.4,2.8,8.9,1.2,13.7c-5.1,9.4-18.9,9.9-21.9,21.5C592.4,183.3,583.2,198.5,566.8,194.3z"/>
	<path class="st15" d="M593.8,402.4c12.6-16.9,30.7-24.8,50.3-22.2c21.1,2.8,38.5,14.4,43.3,38c-5.6-0.8-10.6,1-15.4,3.9
		C643.4,425.6,617.3,419,593.8,402.4z"/>
	<path class="st16" d="M593.8,402.4c25.7,8.2,51.7,15,78.2,19.6c-2,2.5-3.7,5.4-6,7.6c-28.7,27.9-38.6,27.9-66.5,0.1
		c-6-5.9-11.6-12.2-18-17.7c-10.5-9-5.4-13.6,4.1-17.6C587.2,398.3,589.8,401,593.8,402.4z"/>
	<path class="st17" d="M445.8,837.5c0.4-53-26.5-94.2-49.1-137c-2.6-5-8.1-9.1-4-15.6c1.6-2.6,3.2-6.1,5.6-7.1
		c3.6-1.4,5.6,2.5,7.2,5.1c26.1,42.4,46.9,86.7,46.5,138C452,826.1,451.7,831.2,445.8,837.5z"/>
	<path class="st18" d="M508,691.6c-0.3,8.9-1.5,18.3,11.5,19.2c1.1,1.6,2.1,3.5,1.7,5.4c-4.5,23.6,4.3,40.2,26.1,50
		c-1.5,5-10.9,5.4-8.9,11.1c2.3,6.7,9.4,8.1,16.4,7.8c5.2-0.2,10.4,0,15.6,0c-9.1,8.3-18.6,16.2-30.3,20.6
		c-13,4.9-24.6-1.5-24.5-15.2c0.1-29.6-2.4-57.9-19-83.8C489.3,695.4,502.6,695.6,508,691.6z"/>
	<path class="st19" d="M535.2,374.6c16.5,19.4,31.2,40.4,50.3,57.7c10,9.1,19.8,18.2,31.7,24.8c-2.1,11.1-7,14.6-19,10.1
		c-34.2-12.8-57.5-36.4-66.2-72.5C530.4,388.3,529.4,380.6,535.2,374.6z"/>
	<path class="st18" d="M387,831.7c-6.9-0.5-13.7-1-22.3-1.6c2.5,9,3.8,18.4,7.8,26.5c3.8,7.7,8.7,15.7,20.7,12.1
		c6.5-2,13.9-1,20.9-1.3c-3.1,2.2-6,4.8-9.4,6.6c-32.5,17.2-42.2,12-45.4-24.2c-2.7-30-16.2-56.1-33.8-79.1
		c-10.8-14.1-7.4-19.3,5.8-25.1c-1.1,18.7,5.4,34.7,17.8,48.6c2.1-2.9,4.2-5.9,6.2-8.9C362.4,803.1,373.9,817.9,387,831.7z"/>
	<path class="st11" d="M551.1,324.6c6.6-11.4,13.3-22.9,20.8-35.7c8,10.9,14.8,20.2,21.7,29.3c4.8,6.3,2.5,8.5-4.4,10.1
		c-10.1,2.4-16.9,8.7-18.6,19.5c2.9,14.2-5.8,24-12.9,34.5c-3.5-3.8-6.9-7.7-10.4-11.5C538.6,354.6,539.6,339.2,551.1,324.6z"/>
	<path class="st5" d="M656,316.2c17.7,10.8,37.8,14.5,57.4,19.8c8.4,2.3,17.8,1.9,25,8.1c-32.5,35-23.8,38.3-60.4,4
		c-8.5-8-17.1-15.9-25.6-23.8C649.6,319.7,649.8,316.6,656,316.2z"/>
	<path class="st20" d="M191.5,745.9c8.1,7.3,15.5,15.7,24.5,21.7c8.2,5.4,18.1,8.2,27.5,12.3c-22.6,16.5-43.7,17.3-59.8,2.6
		c-20.4-18.7-20.2-36.3,3.2-75.3c0,11.7,0,19.4,0,27c-8.8,15.9-8.2,19.7,4.9,30.9C195.4,758.6,185,752.4,191.5,745.9z"/>
	<path class="st13" d="M753.5,406.3c19.1-18.6,41.5-22.5,66.6-15.5c4.7,18.4-9.2,27.5-19.5,38.3C780.8,430,767.3,417.9,753.5,406.3z
		"/>
	<path class="st21" d="M913.6,352.1c12,32.2,10.2,63.2-7.5,93.1c-4.6,7.8-9.1,14.4-19.7,7.8c-11-6.8-4-11.9,0.4-18.5
		c14.9-22.6,24.3-47,23-74.7C908.2,355.8,906.5,351.8,913.6,352.1z"/>
	<path class="st22" d="M551.4,128.6c-10.2-10-9.8-19.5,2.8-26.4c34.4-18.7,69.5-27.8,105.6-3.8c0.2,5.8-4.3,6.2-8.2,7.2
		c-33.7-7.3-64.5-2.6-91,21.2C558.1,129,554.8,129.8,551.4,128.6z"/>
	<path class="st23" d="M429.3,835.5c-9.9-14.3-8.6-32.8-18-47.3c-2.5-6.6-4.6-13.5-7.6-19.8c-18.2-38.4-19.8-39-59.2-24.1
		c3.9-15.9,24.7-17.8,25.8-34c6.8-7.8,12-6.1,16.3,2.6c3.7,7.4,7.6,14.7,11.4,22.1c13.1,19,21.2,40.2,27.4,62.2
		C423.4,810.2,434.3,822.1,429.3,835.5z"/>
	<path class="st17" d="M598.7,762.7c-0.1-39.1-10.6-69.4-34.8-94.2c-2.9-3-7.8-6.1-2.9-11.2c6.2-6.4,9.4,0.2,12.1,3.6
		c12.5,15.7,24.9,31.2,34.4,49.2C617.1,728.2,613.9,743.2,598.7,762.7z"/>
	<path class="st24" d="M206.9,671.7c1-6,3.2-11,10.2-12.7c6.4,38.9,22.2,71.2,59.5,88.9c7.1,3.4,9.8,7.5,1.2,11.5
		c-7.9,3.7-12.3,15.7-24,10.2c4.4-18.5-13.6-23.4-21.1-34.7c-2.1-3.9,3.6-11.3-5.6-11.9C211.4,709.6,207.4,691.3,206.9,671.7z"/>
	<path class="st25" d="M535.2,374.6c-1.5,38.1,29.4,80.5,65.4,88.8c5.8,1.3,14.9,5.7,16.5-6.3c5.2,3.4,11.3,5.8,14.2,12.1
		c-47.6,18.9-115.3-37.5-102.8-102.4C533.3,367.2,533.7,371.4,535.2,374.6z"/>
	<path class="st26" d="M715.2,402.1c-4.7-14.8-0.1-26,11.6-35.9c11.8-10,22.5-21.2,30.8-34.5c2.7-5.8,1.2-14.2,10.2-16.1
		c8.1,5,5,12.3,4,19.2c-4.4,30.8-24.8,50.5-47.8,68.3C721.4,405.2,717.9,404.6,715.2,402.1z"/>
	<path class="st27" d="M566.8,194.3c13.7-4.2,23.9-15.6,38.2-18.5c12.5-9.2,26.4-5.3,40-4.4c14.3,4.1,31.1,3.3,38.7,20.1l-0.2-0.3
		c3.8,16.5-10.7,13.3-18.1,15.1c-13.7,3.4-28.2,3.4-40.8,11.1c-8.3,5.1-15.8,11.2-23.1,17.7c-3.3,2.5-6.7,4.6-11.1,3.2
		c-1.8-0.2-3.5-0.4-5.3-0.7c7-22.7,26.2-31.6,45.4-40.3c5.9-2.7,12.3-3.5,18.4-5.4c3.1-0.9,6.4-0.9,9.6-0.6
		c-27.1-5.9-47.1-3.8-72.4,7.5c-3.6,1.6-7.1,3.3-10.9,0.7C571.7,199.2,568,198.8,566.8,194.3z"/>
	<path class="st28" d="M551.1,324.6c-1.4,15.4-6.9,30.4-3.8,46.2c-11.5-15.1-27.6-28-23.6-50.4c6-12.9,6.5-29.4,23.3-35.2
		C551.7,298,550.7,311.4,551.1,324.6z"/>
	<path class="st29" d="M575.4,199.6c30.7-22.3,63.1-20.4,96.6-5.4c-7.8,0.5-15.6,0.9-23.4,1.4c-24.7,1.7-47.9,7.6-68,23.4
		c-6.3,4.9-12.5,12-22.3,7.8C554.6,211.7,570.3,209,575.4,199.6z"/>
	<path class="st26" d="M808.6,449.2c-3.3-4.7-7.2-9.1-7.6-15.2c3.2-11.5,11.4-20.3,17.9-29.7c11-15.9,15.9-32.3,12.5-51.3
		c-1.9-10.2,0.8-12.8,9.5-5.8c1.2,1.7,2.2,3.5,3,5.4c10.8,29.3,4.4,56.1-12.7,81C825.7,441.4,820.5,450.3,808.6,449.2z"/>
	<path class="st6" d="M590.5,238.3c2.3-1.4,4.5-2.8,6.8-4.1c17.9,23.8,43.7,23.3,69.5,22.8c2.6,3.1,1.8,6.4-0.7,8.5
		c-11.6,10.1-23.8,19.5-36.2,28.5c-2.7,1.9-6.1,1.4-8.7-1.4C612.2,273.8,593.5,260.6,590.5,238.3z"/>
	<path class="st25" d="M434.1,613.9c-1.1,34.8,19.3,60.7,58.3,73.9c-10,6.4-19.7,3.4-29-1.5c-19.9-10.6-34.4-27-45.2-46.1
		C409,624,426.5,621.3,434.1,613.9z"/>
	<path class="st30" d="M657.6,467.4c-3.8-0.6-8.9-1.2-14-2.2c-3.3-0.6-6.4-2.4-6.8-5.9c-0.4-3.7,2.6-5.3,5.8-6.7
		c12.4-5.8,23.2-13.8,32.8-23.6c5.7-5.9,8.7-2.3,10.9,3.6C693.6,452.9,681.4,468.6,657.6,467.4z"/>
	<path class="st31" d="M558.4,226.7c11.6-1.7,17.7-12,27-17.4c19.7-11.5,39.7-20.4,63.2-13.7c-25.2,7.8-47.2,20.6-63.4,42.1
		C575.9,235.1,566.4,232.8,558.4,226.7z"/>
	<path class="st32" d="M546.9,285.2c-9.6,10.5-12.5,25.4-23.3,35.2c-0.1-1.7-0.3-3.4-0.4-5.1c-4.9-10.7,3.5-17.6,7.6-25.6
		c3.4-6.7,9-12.2,10.8-19.7c-6.3-11.5-12.7-14.7-18.8,0c-2.9,7.1-5.1,14.5-6.3,22.1c-0.8,5.3,0.1,12.2-8.1,13.2
		c-5.9-23.2-16-45.7-12.6-70.6c-2.4-5.5-4.9-10.9,4.4-12.1c-1.3,18.5-1.9,36.9,5.4,55c5.1-12.1,6.5-26.7,21.8-31.5
		c2.4,1,4.7,2.2,7.1,3.1C561.3,258.8,562.5,262,546.9,285.2z"/>
	<path class="st33" d="M621.3,292.6c18.1-8.2,31.4-22.9,46.8-34.7c0.5-0.8,1-1.6,1.4-2.5c13.8-9.9,27.4-20.4,46.1-17.3
		c2.3,2.5,4.7,5,7,7.5c-19.3,26.2-46.6,45-66.7,70.5c-3,1.8-3.6,4.8-3.7,8c-2.7-2.7-5.4-5.3-8-8c6.3-16.2,22.1-24,32.7-36.5
		c7.1-8.3,15.3-15.6,22.9-23.2c-22.7,5.8-38.9,21.7-56.8,34.9c-5.5,4.1-9.3,11.3-17.8,10C624,298.5,622.6,295.5,621.3,292.6z"/>
	<path class="st34" d="M543.5,527.2c-1.2-5-3.2-10.2,4.5-12.2c6.7-1.8,11.8,1.1,14.8,6.3c17.1,29.9,25.3,61.4,15.2,95.7
		c-10.8-1.4-8.1-10.7-8.4-16.5C568.4,573.3,558.9,549.3,543.5,527.2z"/>
	<path class="st10" d="M507.9,640.4c1.5,3.4,7.5,3.9,6.4,8.6c-0.9,3.9-5.1,3-8.1,3.5c-8.8,1.2-16.7-1.5-23.2-7.2
		c-13.1-11.3-25.8-22.9-38.6-34.4c11.2-11.7,19.3-16.6,27.9-4.1C482.5,619.8,496.6,628.6,507.9,640.4z"/>
	<path class="st31" d="M808.6,449.2c32.8-25.4,41.2-58.7,31.4-97.8c23.5,18.5,21.2,52.3,7.7,75.4c-2.2,3.8-5.6,7-8,10.7
		c0,0,0.1-0.2,0.1-0.2C829.1,440.6,825.6,462.5,808.6,449.2z"/>
	<path class="st20" d="M206.9,671.7c8.8,16.2,8.6,36.6,23.1,50.1c-0.4,9.4-7.5,15.6-11.2,23.4c-1,1.5-2.3,2.7-3.8,3.6
		C193.1,729.1,189.8,697.9,206.9,671.7z"/>
	<path class="st29" d="M551.4,128.6c28.6-27.9,61.8-38.4,100.9-27c1.3,2,1.1,3.7-0.6,5.3c-5.1,3.5-11,3.4-16.7,3.4
		c-24,0.3-45.8,6.2-62.9,24.4c-2.8,2.9-6.4,4.2-10.1,5.3C557.6,137.1,553.4,133.8,551.4,128.6z"/>
	<path class="st35" d="M561.9,140.2c23.3-29.3,54.7-38,90.5-35.4c10.4-5.3,17.9,6.7,27.7,4.5c5.8,3.9,14.2,7.2,3.6,15
		c-1.5,1.7-3.3,2.4-5.5,2.1c-29.2-15.2-58.8-4-88.3-1.2c-7.7,6.7-15.3,13.3-23,20C565.3,143.5,563.6,141.8,561.9,140.2z"/>
	<path class="st21" d="M703.3,258c-18,21.1-38.1,40.1-59.1,58.2c-6.7-0.8-13.8,1.9-19.9-2.9c17.5-27.2,44.6-42.5,71.9-57.4
		C698.7,254.6,701.3,256.1,703.3,258z"/>
	<path class="st36" d="M679.9,124.8c1.3-0.2,2.6-0.3,3.9-0.5c8.6,9.9,18.2-6.4,26.9,1.2c-5.1,3.8-10.1,7.5-15.2,11.3
		c-13.4,4.9-19,19.8-32,25.3c-1.9,0.4-3.9,0.5-5.8,0.4c-9.6-2.1-20.2,1-29.1-5.2c-2-4.8-2.8-9.5,1.2-13.7
		C649.3,145,662.5,129.2,679.9,124.8z"/>
	<path class="st37" d="M191.1,519.3c6.8-9,13.3-20.4,24.2-3.8c0.9,1.7,0.8,3.3-0.4,4.7c-2.5,1.3-7.2,1.6-4.3,6.1
		c7,11,14.3,21.8,29.2,22.7c7,3.7,11.9,8.6,10.8,17.4c-1.5,1.3-2.9,2.6-4.4,4C215.7,570.8,189.6,546.6,191.1,519.3z"/>
	<path class="st38" d="M557.6,382.3c-1.1-13.5,9.1-22.8,12.9-34.5c7.8-5.1,13.4-14,25-12c9.3,1.6,18.3,3.9,22.9,12.3
		c4.5,8.3-3,14.1-7.6,20c-7.5,9.5-13.7,20.3-25.1,26c-1.2-1.2-2.3-2.3-3.5-3.4c-2.1-10.3,7.2-14,11.9-20.4c4.3-5.8,13-9.5,9.5-19.1
		c-10.7-7.6-17.5-3.2-23.4,6.7c-4.9,8.3-6.9,17.9-12.9,25.6c-1.8,0.9-3.4,0.8-4.8-0.6C560.8,382.6,559.2,382.5,557.6,382.3z"/>
	<path class="st8" d="M543.5,527.2c23.1,17.6,26.6,43.8,30.7,69.8c1.1,6.7-2.5,14.3,3.7,20c-0.1,7.1-4.7,11.1-13.5,17.8
		C567.8,595,558.2,560.5,543.5,527.2z"/>
	<path class="st39" d="M798.8,520.1c14-8.9,27-17.9,37.6-30.2c3.1-3.6,6.4-12.2,13.2-4.4c5.1,5.8,6,11.8-0.4,18.6
		C835.3,518.9,818,521.9,798.8,520.1z"/>
	<path class="st40" d="M780.9,492.6c25.3,10,41.8-5.9,59.1-19.8c-15.1,30.6-42,42.3-75.9,48.3C770.2,509.6,783.6,505.6,780.9,492.6z
		"/>
	<path class="st41" d="M609.4,347.6c8,8.1-1,12.6-4.5,17.2c-6.9,9.1-15.1,17.3-22.8,25.8c-9.4,4.5-19.3,10.1-19.8-7.9
		c1-0.3,2.1-0.5,3.1-0.7c6.6-0.2,4.6-6.3,6-9.6C578.6,355.4,589.5,345,609.4,347.6z"/>
	<path class="st42" d="M703.3,258c-26.7,7.5-44.6,28-65.6,44.1c-4.6,3.5-8.9,7.5-13.4,11.3c-7.5-4.6,0.2-8,0.9-11.9
		c26-23.2,52.3-46.1,87.9-56.3C713,253.8,706.9,254.7,703.3,258z"/>
	<path class="st43" d="M738.3,312.5c9.1-10.1,5.7-25.8,15.8-35.4c6.5,5.2,14.8,8.3,19.5,15.9c-8.9,10.5-6.9,26.9-19.4,35.3
		c-1.3,1.3-2.7,2.6-4,3.9c-2.9-7.7-10.8-10.1-16-15.4C734.4,314.2,736.7,313.7,738.3,312.5z"/>
	<path class="st44" d="M215,748.9l-0.3-1.8c5.9-5.2,10.5-12.3,19.3-13.2c5.4,3.6,10.7,7.3,16.1,10.8c10.6,7,13.6,15,3.7,25
		C238.1,768.1,225.4,760.5,215,748.9z"/>
	<path class="st45" d="M426.3,433.7c-2.4,0.9-6.5,3.1-6.8,2.6c-13.7-19.4-35.3-34.2-37.3-61.2c8-1.8,9.1,4.8,12.8,7.6
		C411.5,395.9,428.5,408.9,426.3,433.7z"/>
	<path class="st46" d="M715.2,402.1c32.3-16.2,60-59.1,51.3-85.2c-5.1-6.5-3.9-13.9,3.1-15.4c8.6-1.9,7.1,8.2,7,12.5
		c-0.4,33.6-9.5,63.5-38,84.7C730.9,399.8,725.7,419.3,715.2,402.1z"/>
	<path class="st47" d="M738.7,398.6c25-26.5,40.3-56.3,33.2-95.1c-6.9,3.3-6.1,8.3-5.4,13.3c-2.1,5.4-3.8,11.1-8.9,14.8
		c-1.2-1.1-2.3-2.2-3.5-3.4c3-7.6,8-14.4,7.7-23.3c-0.2-7.5,3.9-11.8,11.7-12c1.2,1.1,2.5,2.1,3.7,3.2c5,39.8-0.5,76.1-35.1,102.3
		C741,398.5,739.9,398.5,738.7,398.6z"/>
	<path class="st29" d="M718.5,512c-4.5-3-12.8-8.8-3.7-11.3c16.7-4.5,29.7-16.6,46.6-19.8c6.6,18.5-2.4,32.9-22.1,33.5
		C732.5,514.7,725.2,514.9,718.5,512z"/>
	<path class="st31" d="M547.4,270.2c-6.3,16-20.4,27.8-24.2,45.1c-2.5,0.5-4,6.6-7.6,1.4c-5.2-14.9-1.7-29.1,4.3-42.7
		C526.4,259.3,533.8,258.5,547.4,270.2z"/>
	<path class="st48" d="M530.2,619.2c-16.8-12.4-24.3-32.2-18-49.5c1.4-3.8,5.8-6.5,8.8-9.7c2.1,3.4,6,6.9,5.9,10.3
		C526.5,586.8,535,602.5,530.2,619.2z"/>
	<path class="st49" d="M503.7,571c-8.2,23.9-4.8,36.7,13.4,51.5c3.2,2.6,10.9,4.6,2.4,10.2c-30-3.1-45.6-25.5-34.5-49.7l-0.6-0.8
		C488.6,574.6,491.3,564.4,503.7,571z"/>
	<path class="st50" d="M191.1,519.3c5,31.4,29.7,41.6,55.1,51.1c-3.5,10.8-8.3,15.2-19.1,6.5c-11.5-9.3-23.7-17.9-32.8-29.7
		C187.8,538.7,183,529.6,191.1,519.3z"/>
	<path class="st51" d="M839.5,348.5c-1.8-0.2-3.7-0.5-5.5-0.7c9.4,36.5-14.4,60.4-33,86.2c-0.1-1.6-0.2-3.2-0.3-4.8
		c3.5-14.3,17.8-23.1,19.5-38.3c16.1-13.2,6.3-31.1,7.4-46.6c1.1-15.1,6.7-7.3,12.3-4.4c0.1,1.2,0.1,2.4,0.1,3.6
		C841.8,345.3,841.6,347,839.5,348.5z"/>
	<path class="st52" d="M191.5,745.9c-0.3,5.8,3.4,9.5,7,13.3c2.8,2.9,5.1,6.2,2,10.2c-3.2,4-7.7,4.9-12.2,3.2
		c-11-3.9-16.8-30.7-8.4-39.1c1.1-1.1,4.7,0.5,7.2,0.9C188.5,738.1,190,742,191.5,745.9z"/>
	<path class="st53" d="M160.8,714.1c-14.3,6.2-46.3-2.2-55.1-14.5C126.7,694.4,144.9,699.6,160.8,714.1z"/>
	<path class="st54" d="M449,464.7c-3.4,2.9-6.4,6.3-10.1,8.7c-4.9,3.2-7.5,13.5-15,8c-6.6-4.9-7-13.6-3.5-21.4
		c3.1-7.1,6.1-14.3,13.2-18.7C440.1,448.2,442.8,457.6,449,464.7z"/>
	<path class="st55" d="M718.5,512c8.1-1.1,16.4,0.4,24.5-2.7c13.6-5.1,21.9-12.7,18.3-28.4c8.5,4.9,15.1,13,10.2,21.8
		c-6.2,11.1-18.7,16-31.3,15.7C733,518.2,724.8,517.5,718.5,512z"/>
	<path class="st56" d="M449,464.7c-12.6-2.8-15.1-12.4-15.5-23.4c3.4-3.3,6-7.9,11.6-8.1c8.2,3.1,16.3,6.6,23.3,11.9
		C461.9,451.7,455.5,458.2,449,464.7z"/>
	<path class="st57" d="M218.9,511.4c0.3-4.3-8.2-6.8-3.4-11.3c3.3-3.1,7.2,0.9,9.7,3.5c14.8,15.9,27.7,33,32.4,54.9
		C238.2,548.1,227.7,530.5,218.9,511.4z"/>
	<path class="st58" d="M218.9,511.4c15,13.9,22.6,34,38.7,47.1c3,7.4-5.3,4.8-7,7.9c-4.2-5.1-8.3-10.1-12.5-15.2
		c-12.6-7-21-17.2-23.6-31.6c0.3-1.4,0.6-2.8,0.9-4.1C216.5,514.1,217.7,512.8,218.9,511.4z"/>
	<path class="st59" d="M547.4,270.2c-14.4-9.7-22.3-3.1-27.3,10.8c-4.2,11.6-5,23.6-4.5,35.7c-4.9-2.2-5.1-7.5-7.2-11.4
		c3.8-14.1,7.4-28.2,11.3-42.3c1.8-6.5,5.9-9.4,12.9-8.3C540.8,256.1,546.7,262,547.4,270.2z"/>
	<path class="st45" d="M480.2,577.9c-4.1,1.2-7.2,5.8-10.2,4.3c5.1-6.4,10.3-13.8,16.4-20.4c6.5-7.1,13.5-13.6,20.8-20
		c2.9-2.5,6-9,10.7-3.8c4,4.4-1.5,8.1-4.1,11.2c-4.1,4.9-8.8,9.3-13.3,13.8C495.3,570.3,488.5,575.2,480.2,577.9z"/>
	<path class="st60" d="M485.1,583c-4.2,27.5,12.3,40.5,34.5,49.7c-1.1,1.2-2.2,2.4-3.3,3.6c-24.7-1.4-38.2-15.4-43.7-38.5
		C472.7,589.5,477.5,585.1,485.1,583z"/>
	<path class="st61" d="M488.8,229c-4.5-20.1-2.5-39.2,9.2-56.5c3.9-5.8,9.3-12.6,15.1-1c-6.2,11.7-13.2,23.1-12.9,37
		C498.1,216.4,498.3,225.4,488.8,229z"/>
	<path class="st62" d="M426.3,433.7c-3-21.6-23.1-32.7-31.4-51.1c1.1-1.1,2.3-2.3,3.4-3.4c15.9,4.6,16.6,23.7,29.6,31.1
		C433.1,418.5,434.9,426.4,426.3,433.7z"/>
	<path class="st63" d="M468.4,445.2c-10.7,1.7-19-1.2-23.3-11.9c7.9-7.7,16.1-5.8,24.2-0.6C476.8,437.3,474.8,441.4,468.4,445.2z"/>
	<path class="st64" d="M558.4,679.9c2.4,6.5,4.9,13,8.4,22.4c-12.1-6.5-19.1-16.8-30.6-19.6c4.1-10.2,10.5-11.2,18.7-7.1
		C556.1,677,557.3,678.4,558.4,679.9z"/>
	<path class="st65" d="M488.8,229c6-5.8,6-13.9,7.7-21.3c5-8.1-0.3-22.7,15.1-24.4c1.1,1.2,2.2,2.5,3.3,3.7
		c-4.9,11.8-9.8,23.7-14.7,35.5c-4.9,2.8-3.9,7.7-4.4,12.1C492.4,234.1,489.1,233.4,488.8,229z"/>
	<path class="st66" d="M472.6,597.8c9.2,18.9,22.1,33.6,43.7,38.5c-3.2,0.5-6.5,0.8-8.3,4.1c-16.1-6.7-31.1-14.7-35.7-33.6
		C472.3,603.8,472.5,600.8,472.6,597.8z"/>
	<path class="st12" d="M425.4,797.1c-9.1-20.7-18.3-41.5-27.4-62.2C414.4,752.4,423.7,773.1,425.4,797.1z"/>
	<path class="st67" d="M427.9,410.3c-15.6-4.9-17.6-22.7-29.6-31.1c-2.2-3.6-4.3-7.2-6.5-10.8C409.1,378,417.8,394.7,427.9,410.3z"
		/>
	<path class="st68" d="M511.6,183.3c-9.5,5.4-8.5,17.2-15.1,24.4c-2-15.5,3.3-27.7,16.5-36.2C518.5,176.2,511.6,179.3,511.6,183.3z"
		/>
	<path class="st69" d="M248.4,580.2c8.5-10,17.8-10.7,26.8-12.5C267.5,573.4,263.3,586,248.4,580.2z"/>
	<path class="st6" d="M547.3,187.8c-1.4-22-15.2-7.6-24-8.2c3.8-7.6,10.9-8.8,18.1-8.1C553.8,172.7,558.7,177.5,547.3,187.8z"/>
	<path class="st70" d="M913.6,352.1c-1.3,2.5-2.6,5.1-3.9,7.6c-3.5-10.5-7-21-11.7-35C910,333,909.9,343.6,913.6,352.1z"/>
	<path class="st71" d="M680.1,109.3c-10.7,7.3-18.3-4.3-27.7-4.5c0-1,0-2.1-0.1-3.1c2.5-1.1,5-2.2,7.5-3.3
		C666.6,102,673.4,105.6,680.1,109.3z"/>
	<path class="st66" d="M480.2,577.9c5.2-6.9,13-10.5,20.1-14.8c1.1,2.6,2.3,5.3,3.4,7.9c-8.8-0.4-11.2,10.1-19.2,11.2
		C483,580.7,481.6,579.3,480.2,577.9z"/>
	<path class="st72" d="M726.5,230.5c-13.7-15.5-25.8-32-31.6-52.2c12.1-16.9,27-29.8,47.8-34.8c7.4,6.3,7.4,16.7,13,24
		c27.3,38.5,59.9,70.8,103.8,89.8c-44.1-19.7-77.6-51.7-104.3-91.5c-5.8-9.9-8.5-21.4-14.9-31.1c-2-2.5,1.2-7-3.3-8.6
		c9.2-8.7,21.2-7.5,30.8-4.6c22.5,6.9,43.3,17.9,57.6,38c10.3,27.7,28.2,51.3,41.1,77.6c1.7,3.5,4.7,6.7,9.2,5.3
		c5.9-1.9,4.6-6.8,3.6-11.2c-1.5-6.1-6-11.6-3-18.4c20,14.4,16.6,33.4,10.5,52.9c-14.1,14-31.3,14.7-49.1,10.6
		C798,267.3,760.2,253.7,726.5,230.5z"/>
	<path class="st73" d="M726.5,230.5c22.4,9.2,44.6,19,67.2,27.4c30.2,11.2,60.6,22.5,93,7.7c-3.3,16.3-12.4,29.7-22.2,42.4
		c-10.3,13.4-23.9,10.4-36.8,4.2C787.6,293,754.5,264.9,726.5,230.5z"/>
	<path class="st74" d="M668.1,257.9c-39,10.1-58.3,3.6-70.8-23.7c15.7-19.4,35.7-29.9,60.9-31.8c8.9-0.7,21.3,2.1,25.4-11.2
		c7.3,4.6,9.8,12.1,11.9,19.8c7,16.1-2.6,26.8-12.6,36.9c-6,6.1-10.2,0.4-14.5-3.3c-5.2-4.6-8.2-10.9-11-14.7
		c2.1,2.3,3.5,7.5,7.3,11.1C667.9,246.3,678.7,250,668.1,257.9L668.1,257.9z"/>
	<path class="st75" d="M876.2,212.7c3.1,7.1,6.6,14.1,9.3,21.4c2.3,6.3,0.1,11.9-5.9,14.9c-6.1,2.9-11.2,1.1-14.7-5.1
		c-15.1-27.3-30.8-54.3-45-82c-4.3-8.4,3.1-2.4,5.4-2.5C843.5,176.1,862,192.4,876.2,212.7z"/>
	<path class="st76" d="M741.6,143c-15.6,11.8-31.1,23.5-46.7,35.3c-8.7-15-2.8-26.2,10.1-34.4c10.3-6.6,21.3-11.9,32-17.8
		c5.3-0.1,4.5,4.2,5.3,7.3C744.4,136.8,745.5,140.1,741.6,143z"/>
	<path class="st77" d="M668.8,242.2c5.7,4.5,10.3,9.2,16-1.3c5.2-9.6,10.1-18.9,10.8-30c9.1,7.3,14,17.7,20.1,27.2
		c-15.9,6.6-31.7,13.2-47.6,19.8c5.1-6.8-1.5-10.6-4.1-15.3C665.4,240.4,667,240.2,668.8,242.2z"/>
	<path class="st78" d="M660.4,160.3c1.3-0.1,2.5-0.1,3.7-0.2c9.8-2.4,11.3,6.1,15.1,11.5c1.5,6.6,3,13.3,4.5,19.9
		c-10-9.7-23.7-10.5-35.8-15.3C649.7,169.1,652.8,162.9,660.4,160.3z"/>
	<path class="st79" d="M679.3,171.6c-5-3.8-10.1-7.7-15.1-11.5c8.8-10,15-23.4,31.3-23.3C686.9,146.9,677.8,156.8,679.3,171.6z"/>
	<path class="st80" d="M425.3,495.6c18.5-4.5,28.4-21.6,44.2-30.1c3.9-2.1,6.3-10.8,12.3-4.4c5.3,5.7-0.8,9.5-4.4,12.7
		c-30.8,27-61.7,53.8-92.6,80.6c-3,2.6-6.1,5.5-10,1.4c-4-4.2-2.7-9.2,0.4-12.4c8.2-8.2,17.2-15.7,26.1-23.2
		C410,512.7,420.5,506.9,425.3,495.6C425.3,495.6,425.3,495.6,425.3,495.6z"/>
	<path class="st81" d="M504.5,498c-38.2,31.3-69.8,70.4-111.9,97.1c-1.6-1.8-3.2-3.7-4.8-5.5c37.2-32.4,74.4-64.8,111.6-97.2
		C501.2,494.2,502.9,496.1,504.5,498z"/>
	<path class="st82" d="M322.8,571.5c-22.8,23.4-44.8,46-67,68.5c-3.8,3.9-7.4,2-8.5-2.7c-0.9-3.7-1.1-7.9-0.3-11.6
		C252.2,602.5,296.5,570.1,322.8,571.5z"/>
	<path class="st83" d="M275.7,690.8c-6.9,0.3-8.2-6.9-5-11.6c14.5-21.2,35.4-35.7,56.8-49.1c4.7-2.9,8.6,1.1,7.7,7.2
		C333.2,649.6,290.2,689.7,275.7,690.8z"/>
	<path class="st84" d="M288.5,713.9c-0.6,0.2-1.2,0.5-1.8,0.5c-6.1,0.5-11.5,13.6-17.1,3.8c-4.3-7.6,9.2-5.6,11.5-11.3
		c20.8-19.8,41.6-39.6,62.4-59.4c1.1,0.7,2.1,1.4,3.2,2.1c-2.3,4.8-4.6,9.6-6.8,14.4C328.3,686.4,309.2,701,288.5,713.9z"/>
	<path class="st85" d="M288.5,713.9c17.1-16.6,34.3-33.2,51.4-49.8c0.3,3.1,0.5,6.3,3.9,7.9c-12.5,19.3-33.3,29.9-48.7,46.3
		C290.2,723.4,289.5,717.2,288.5,713.9z"/>
	<path class="st86" d="M839.5,348.5c0.2-1.7,0.3-3.4,0.5-5.1c3.6,3.7,8.1,6.8,10.5,11.1c10.3,18.6,10.1,18.8,30.9,11.9
		c-24.2,7.2-20.9,26.8-23.7,44.6c-1.6,10.3-6.9,21.2-18.1,26.4c13.2-26,24.2-52.1,5.2-80.1c-1.4-2.1-3.2-4-4.8-6
		C839.8,350.4,839.6,349.5,839.5,348.5z"/>
	<path class="st87" d="M738.3,312.5c-1.4,1.4-2.7,2.8-4.1,4.2c-11.4-9.1-22.2-18.8-28.3-33.1C716.7,293.3,727.5,302.9,738.3,312.5z"
		/>
	<path class="st88" d="M547.3,766.3c-28-3.5-38.2-23.9-27.8-55.5c10.2-9,20.6-9.6,31.8-1.6c13.5,9.6,13,23.1,10.1,36.8
		C559.6,754.5,555,761.7,547.3,766.3z"/>
	<path class="st89" d="M387,831.7c-20.7-8.6-31-24.3-31.5-46.6c16.8-29.1,32.9-27.7,53.8,4.6C409.8,808,409.2,825.5,387,831.7z"/>
	<path class="st90" d="M679.9,124.8c-14.4,9.9-25,29.3-47.5,19.4c-4.3-6-1.6-10.6,2.5-14.6c-6.1,2.8-4,12.2-10.5,15.3
		c-15.5,0.5-23.1-12.8-34.3-19.7C619.9,113.1,649.8,104.3,679.9,124.8z"/>
	<path class="st91" d="M660.4,160.3c-3.5,5.8-5.2,13.1-12.4,16c-14.3-0.1-28.6-0.3-42.9-0.4c0.6-12.8,11.5-12.6,19.8-15.7
		c2.6,0.1,2.5-3.5,5-3.6C640,157.6,651,152.4,660.4,160.3z"/>
	<path class="st92" d="M629.8,156.5c-1.5,1.4,0.5,7.7-5,3.6c-0.2-5.1-0.3-10.2-0.5-15.2c1.8-6.7,2.9-13.7,10.9-18.1
		c-1,6.4-2,11.9-2.9,17.4C628.2,147.6,629.2,152.1,629.8,156.5z"/>
	<path class="st93" d="M234,733.9c-4.7,6.9-9.3,14-19.3,13.1c1.4-10.6,8.5-17.9,15.4-25.2C240.1,723,234,729.5,234,733.9z"/>
	<path class="st94" d="M205.4,695.9c2.9,2.3,4.6,3,4.6,3.8c0,7,6.9,12.9,3.2,20.2c-0.4,0.9-4,1.4-4.8,0.7
		C200.7,714,202.9,705.9,205.4,695.9z"/>
	<path class="st95" d="M214.4,519.6c7.9,10.5,15.8,21.1,23.6,31.6c-12.5,0.3-39.3-21.1-37.3-31.4
		C203.6,505.7,209.7,519.2,214.4,519.6z"/>
	<path class="st29" d="M609.4,347.6c-20.9,4.2-33,17.1-39.6,37.3c-1.9,6-2.7-1.7-4.3-2.8c2.6-7.2,4.8-14.5,7.8-21.5
		C580.5,343.2,592,337.2,609.4,347.6z"/>
	<path class="st96" d="M757.5,164.3c30.4,41.1,65.1,77.1,113.7,96.6c-52.6-13.7-89.2-48-117.7-92.7
		C752.1,164.2,753.9,163.3,757.5,164.3z"/>
	<path class="st97" d="M757.5,164.3c-1.3,1.3-2.7,2.6-4,3.9c-7.3-6.8-7.3-17.1-11.9-25.2c0.2-3.2,0.5-6.4,0.7-9.7
		C751,141.9,751.4,154.5,757.5,164.3z"/>
	<path class="st98" d="M668.8,242.2c-1.6,0.1-3.2,0.2-4.9,0.4c-8.5-6.3-11.6-15.6-12-26.6C657.5,224.8,663.2,233.5,668.8,242.2z"/>
	<path class="st99" d="M534.7,753.8c-11.8-12.2-14.4-22.9-9.7-34.7c1.7-4.2,6-7.7,10.8-6.4c4.9,1.4,3,6.4,2.6,9.9
		C537.5,732.2,536.2,741.7,534.7,753.8z"/>
	<path class="st100" d="M544.4,718.3c9.9,6.1,10.2,13.3,9,20c-1.3,6.8-0.3,18.7-10,17.3c-7.8-1.2-0.5-10.7-0.9-16.5
		C542.1,733,543.5,726.7,544.4,718.3z"/>
	<path class="st101" d="M401.5,800.3c-10.7-0.3-17.6-6.6-25.6-10c-4.5-1.9-13.2-3.1-6.7-11.7c4.5-5.9,10.7-8.1,16.7-2.8
		C392.9,782.1,400,788.7,401.5,800.3z"/>
	<path class="st102" d="M363.6,796.9c11.8,0.1,19.1,5.9,27.2,9c4.9,1.9,10.1,4.4,5.5,11.2c-3.2,4.9-7.4,7.2-13.2,4.4
		C373.2,816.8,368.4,808.3,363.6,796.9z"/>
</g>
</svg>
