<?xml version="1.0" encoding="utf-8"?>
<!-- Generator: Adobe Illustrator 23.0.1, SVG Export Plug-In . SVG Version: 6.00 Build 0)  -->
<svg version="1.1" id="Layer_4" xmlns="http://www.w3.org/2000/svg" xmlns:xlink="http://www.w3.org/1999/xlink" x="0px" y="0px"
	 viewBox="0 0 1000 1000" style="enable-background:new 0 0 1000 1000;" xml:space="preserve">
<style type="text/css">
	.st0{fill:#90AFC3;}
	.st1{fill:#394852;}
	.st2{fill:#2B5260;}
	.st3{fill:#76A5A2;}
	.st4{fill:#302725;}
	.st5{fill:#FEFEFE;}
	.st6{fill:#7C7589;}
	.st7{fill:#46424F;}
	.st8{fill:#DAD0DF;}
</style>
<g>
	<path d="M552.3,266.4c-3.6,12.1-3.4,24.4-5.6,36.3c-2.8,15.6-4.6,31.5-10,46.5c-3.1,8.5-4.4,17.4-4.9,26.1
		c-1.2,23.6-3.2,47.2-4.1,70.8c-0.6,17.7-0.9,35.3-1.2,52.9c-0.2,11.8,3,23.6,1.5,35.4c-0.4,3.6,2.2,4.4,4.1,5.1
		c25.3,10.8,32.9,31.5,34.7,57.1c1.5,20.7,2.2,41.5,0.9,62.1c-1.6,27.1,0.5,54.3-1.6,81.3c-1.9,24.1,0.4,48.2-1.6,72.1
		c-1.6,19.4-0.7,38.7-1.6,57.9c-0.3,6.6-1.8,13.4-3.9,19.7c-5.2,15.4-17.5,20.9-32.6,23.8c-11.7,2.2-22.7,1-33.4-2.9
		c-15.9-5.8-25.4-18.9-31.2-33.5c-11.9-30.3-19.8-61.7-24-94.1c-2.3-17.9-3.6-35.8-5-53.8c-1.7-22.8-4.3-45.6-2.9-68.3
		c1.6-25,1.1-50.4,6.7-74.9c2.8-12.3,7.3-25,19.8-32c6.9-3.9,10.2-9.9,8-17.5c-3.1-10.7-2-21.8-2.7-32.6
		c-1.5-24.2-4.3-48.6-1.9-72.9c2-19.7-0.4-39.6,2.9-59.2c0.4-2.5,1-5.5-1.6-7.7c-12.2-10.6-12.7-25.6-14.9-39.9
		c-2.9-18.6-2.8-37.6-1.4-56.2c1.3-17.1-0.3-34.3,1.6-51.3c2.2-19.6,0.8-39.6,7.9-58.7c4.4-11.7,12.1-21.1,19.9-30.1
		C505,93.2,544.9,76,589,66.6c13.1-2.8,26.1-5.1,39.5-5c24.8,0.2,47.5,6.4,69.1,19.4c23.9,14.5,42.6,33.1,55.1,57.8
		c8.9,17.6,9.8,36.3,7.9,56.1c-2.1,22.1-11.5,39.8-25.5,55.4c-14.7,16.4-33.3,27.1-55.3,31.3c-14,2.7-28.2,4.6-42.5,3.2
		C608.7,282.1,580,279,552.3,266.4z"/>
	<path class="st0" d="M498.3,363.3c-9.6,3.5-23.7-3.3-30.2-13.7c-4.3-7-5.4-14.9-6.2-22.5c-2.2-20.5-3.3-41.1-0.5-61.7
		c1.2-9,0.1-18.3,0.3-27.5c0.4-22.2,1.6-44.2,6.6-66c1.9-8.3,5.8-15.4,10.9-22.4c14.5-20.1,33.1-35,54.9-46.5
		c26.5-14,54.8-21.2,84.3-24.8c34.9-4.4,63.4,9.2,89.6,30.4c8.1,6.6,16,13.2,20.3,23c4.7,6.9,8.4,14.3,11,22.2c1.7,5,1,9.8-0.6,14.7
		c-0.7,2.2-1.5,4.4-4,4.8c-3,0.5-4.4-2-5.5-4.2c-3.3-7-5.6-14.5-12-19.6c-7.9-9.8-13.7-21.3-24-29.5C676,106.3,656.4,99.1,635,95.5
		c-34-5.8-65.3,3.5-95.7,17.4c-6.3,2.9-12.8,5.3-18.4,8.3c6.1-1.1,11.3-8.3,19.1-4.3c1.1,0.6-3,3.8,1.6,3c6-1,12.1-1.5,18.1-2.7
		c35.1-6.5,69.5-5.4,102.9,8.3c2.6,1,5.3,1.8,8,2.3c1.1,0.2,2.2,0.5,3.4,0c0.9-2.5-1.4-3.3-2.7-4.2c-22.9-15.8-47.4-25-75.8-18.8
		c-15.2,3.3-30.4,6.2-45.1,11.6c-3.3,1.2-6.7,3.1-10.3,0.6c-1.1-3.5,1.9-4.4,4-5.2c17.3-6.6,34.7-13,53.2-15.8
		c24.1-3.7,46.7,2.3,68.6,11.3c11.3,4.6,22.2,10.5,30.6,19.6c10,10.9,18.8,22.6,19.2,38.4c-2.2,27.9-9.1,54.1-28.8,75.4
		c-15.9,17.1-37,21.3-58.5,21.4c-34.2,0.2-67-7.9-98.9-19.9c-1-0.4-2-1-3-1.3c-7.3-2.5-9-1.2-8.1,6.4c3.8,32,3,63.6-5.6,94.8
		C510.3,350.7,507.2,359,498.3,363.3z"/>
	<path class="st1" d="M476.6,863.3c-8.1-19.4-17.1-38.5-18.3-60c5.7,1.7,3.6,7.3,5.4,10.9c1.8,3.7,1,10.8,6.2,10.1
		c4.5-0.6,2.7-7.1,2.7-11c0.4-19.9-1.4-39.4-12-57.1c-3.3-5.5-2.7-11,0.3-16.6c4-7.6,9.4-14.4,12.9-22.3c7.4-16.7,5.5-26.6-7.9-38.6
		c-11.1-10-11.9-12.7-3.9-25.4c8.2-13,12.4-26.5,9-41.9c-2-9-2.1-18.2-1.7-27.4c0.2-5.8-2.1-8.2-7.8-7.4c-0.1-3.6,2.7-5.4,5-7.2
		c2.9-2.3,5.1-3.2,7,2c4.1,11.1,14.7,16.6,26.5,15.2c12.9-1.6,21.2-9,23.1-21.2c1-6.4,2.9-8.1,8.9-4.2c13,8.5,17.4,21.6,19.3,35.7
		c3.1,23.1,2.7,46.4,1.6,69.5c-1.4,28.4-2.3,56.7-3.2,85.1c-3.1,20.8-3.4,41.8-5.8,62.6c-0.4,3.3-0.5,6.6-1.5,9.8
		c-0.8,2.4-1.5,5.1-4.2,5.7c-3.1,0.7-4.1-2.2-5.4-4.1c-1.7-3.4-2-7.6-5-10.3c-3.7-3.4-7.1-4.1-8.9,2c3,8.7,0.7,14.5-8.1,18.4
		c-7.8,3.5-16.2,5-24.8,4.6c-3.4-0.5-6.2-1.9-8.4-4.4c2.3,2.7,6.3,3.8,7.8,7.3c2.8,5.1,5.5,10.3,7.8,15.6c2,4.7,3.8,10.2-1.9,13.2
		c-5.4,2.8-9.4-1.1-12.6-5.3C478,865.8,477.5,864.4,476.6,863.3z"/>
	<path class="st2" d="M498.3,363.3c11.9-12.1,14.3-27.9,16.7-43.6c1.8-12.2,3.4-24.5,3.4-36.9c-0.1-12.9-1.2-25.8-3.2-38.5
		c-1.3-8,0.1-9.2,7.8-6.1c24.5,9.7,50.2,15.4,76,19.8c18.7,3.2,37.8,3.1,56.5-1.6c23.4-5.9,37.5-22.2,46.8-43
		c6.8-15.3,10.4-31.7,11.4-48.5c2.6,0.1,3.1,2.2,3.4,4c4.2,25.5,0.8,49.2-13.9,67.8c16.4-15.6,20.4-38.1,19-62.5
		c-0.5-8.8-5.1-16.9-3.8-25.9c6.9,4.2,9.1,11.3,11.8,18.2c0.9,2.2,1.3,5.8,3.9,5.8c3.4,0,2-3.8,2.8-5.9c3.4-8-0.1-14.9-3.1-22
		c-1.8-4.3-4.9-8-5.5-12.8c9.1,9,13.9,20.3,16.6,32.5c4.9,22.8-1.2,43.8-12.9,63c-15,24.5-37.8,37.9-66.2,41.1
		c-42.2,4.8-82.2-5.9-121.9-18.4c-6.5-2-12.6-5.3-18.5-7.8c-1.3,0.3-1.5,0.8-0.9,1.3c19.2,12.8,9.9,30.9,8.3,47.1
		c-1.5,14.9-5.2,29.6-7.8,44.5C522.2,351,513,361,498.3,363.3z"/>
	<path class="st0" d="M491.6,575.2c-4.7-0.2-7.2-2.1-8.4-7.2c-3.2-13.4-3.8-27-4.7-40.5c-1.6-23.9-2.8-47.8-3.3-71.8
		c-0.6-27.9,2.2-55.6,3.5-83.4c6.6,1.7,13,3.2,19.6,2.9c6.4,1.7,8.9,6.9,10.7,12.4c2.9,8.9,4.5,18,4.4,27.4
		c0.8,21.6-0.6,43.2-1.8,64.8c-1.2,12.6-1.4,25.3-1.4,37.9c0,16.9-1.5,33.7-9.3,49.2C498.8,570.8,497.2,575.3,491.6,575.2z"/>
	<path class="st3" d="M461.7,576.7c3-0.6,4.3-6.1,7.3-4c2.2,1.5,2.9,5.7,2.7,9.1c-0.6,13.5,1.3,26.9,3.1,40.3
		c1.4,10.8-3.8,20.3-9,29.5c-1.6,2.9-3.2,5.8-5,8.5c-4.1,6.3-1.8,11.2,3.8,14.6c8.6,5.3,12.6,13.9,16.2,22.4
		c2.7,6.5-1.3,13.5-4.2,19.5c-4.3,8.9-9.6,17.3-14.5,25.9c-2.3,4-2.4,7.8,0.1,11.6c12.9,20.4,13.4,43.3,12.9,66.3
		c-0.1,3.7-0.8,8.2-4.6,8.8c-4.2,0.7-5.6-4-6.7-7.3c-2.1-6.1-3.6-12.4-5.3-18.7c-3.3-22.5-5.2-45.1-7.7-67.6
		c-2.9-26.4-3.9-52.9-2.6-79.2c0.9-20.2,0.9-40.6,4.7-60.6C454.1,588.7,458,582.7,461.7,576.7z"/>
	<path class="st4" d="M476.6,863.3c1.5,1.2,3,2.4,4.5,3.6c2.9,2.4,6,6.2,9.9,3.7c4.4-2.8,2.2-7.3,0.4-11.1
		c-2.6-5.5-5.4-10.8-8.1-16.3c2.7-2.2,5.3-0.3,7.8,0.4c19.1,5.5,31.5,0,40.2-18c0.5-1,1.2-1.9,2.1-2.5c1.4,2,2.8,3.9,4.6,6.5
		c5.1-10.6,3.2-21.6,5.2-32c2.8-15.3,1.8-31.1,6.6-46.1c-1.1,35.4-2.1,70.8-3.2,106.1c-0.1,2.5,0,5,0,7.5c0,18.1-3.4,24.7-16.1,29.3
		c-17.5,6.3-32,4.9-42.5-7.6C482.3,880.2,478.2,872.3,476.6,863.3z"/>
	<path class="st2" d="M491.6,575.2c7.3-5.1,9.3-13.3,11.6-21c4.3-14.5,4.9-29.5,5.1-44.5c0.2-10.1,0.9-20,3.2-29.8
		c-0.7,25.7,2.8,51.3,1.9,77C513,568.9,507.3,579,491.6,575.2z"/>
	<path class="st2" d="M513.3,415c-3.8-5.9-3-12.9-4.4-19.4c-1.7-8.1-4.8-14.8-10.7-20.5c5.7-2.8,12.3-2.2,19.2-7.9
		C514.8,384.7,516.4,400,513.3,415z"/>
	<path class="st5" d="M507.2,125.1c4.3,0.9,5,2.8,3,6c-3.4,5.3-6.6,10.7-10,16.1c-10.4,16.8-16.9,34.8-18.8,54.8
		c-1.9,19.8-1.5,39.8-3.6,59.4c-2.8,26.2,1.2,51.6,4,77.2c0.5,4.5,2.6,8.9,4.2,13.3c0.7,2.1,0.7,3.7-0.9,5.3c-2,2-3.8,0.2-5.2-0.7
		c-4.9-3.3-8.8-7.2-10-13.5c-5.6-28.9-6-57.9-3.6-87.2c1.4-16.8,0.5-33.8,0.3-50.8c-0.3-28.2,10.7-51.7,29.6-71.9
		C499.3,129.8,503.7,127.6,507.2,125.1z"/>
	<path d="M613,124.9c30.6-0.6,54.2,12.4,70.4,37.9c11.1,17.4,11,33.1-3.4,50.4c-16,19.3-36,26.1-59.5,28.6
		c-28.1,3-55.3-2.7-82.2-8.8c-21.1-4.8-34.9-23-33.1-41.8c1.4-14.1,10-25.2,19.6-34.8c12.2-12.2,27-21.1,43.7-25.5
		C583,127.1,597.9,125.2,613,124.9z"/>
	<path d="M718.3,148.3c7.7,20.1,8.4,40.8,3,61.4c-3.8,14.4-11.7,26.6-27.4,35.4c20.8-24.6,27.1-50.9,19.6-80.2
		c-2.8-23.3-17.1-38.4-36.3-49.6C658.1,104,636.9,98.4,614.9,97c-18.5-1.2-36.5,4.3-53.7,11c-7.1,2.8-15.2,3.4-21.4,8.6l0,0
		c-9.2,0.8-17,6.2-26.1,7.6c13.1-7.6,26.5-14.5,40.7-20.1c20.8-8.2,41.9-13.5,64.2-12.3c28.4,1.5,54.6,8.9,77.2,27.9
		C705.8,127.9,711.1,138.6,718.3,148.3z"/>
	<path class="st5" d="M539.9,116.6c15.3-3.1,30.1-8.1,45.1-12.3c34.4-9.5,63.7-0.3,91.2,19.7c1.7,1.2,4.3,2.6,3.1,5.2
		c-1.3,2.7-3.6,2.2-6.4,1.5c-15.4-3.8-30.1-10-45.8-13.2c-18.1-3.7-36.1-2-54.1,0.1c-13.4,1.5-26.8,3.7-40.6,5.7
		C533.7,118.9,538.5,119.7,539.9,116.6C540,116.6,539.9,116.6,539.9,116.6z"/>
	<path class="st3" d="M548.5,640c-7.2-16.1-14.2-32.3-25.4-46.1c-3.3-4.1-4-8.3-1.2-13c1.2-2.1,2.2-4.5,2.7-6.9c0.7-3.6,1-8,5.2-8.4
		c3.7-0.3,6.1,3.7,7.9,6.6c5.8,9.2,8.9,19.5,10.4,30.2c1.7,11.7,2.6,23.6,1.9,35.5C549.9,638.8,550.4,640.2,548.5,640z"/>
	<path d="M506.6,638.5c-0.7-0.5-3.8-0.6-1-1.9c6.7-3.1,13.5-6.2,20.6-8c6.1-1.5,11.3,1.2,14.2,7.3c3.4,7.2,7.8,14.4,0.8,22
		c-7.5,8.3-17.1,12.1-27.9,14.7c-18.4,4.4-35.7,2.5-53.1-6.9c5.2-1.7,8.8,1.9,13,1c19.8,2.5,39.2,2.3,56.4-9.9
		c3.8-2.7,6.7-6,4.6-11.2c-2.2-5.4-6-8.6-12.2-7.9c-1.4,0.2-2.7,0.5-4.1,0.8C514.2,639.5,510.4,639.8,506.6,638.5z"/>
	<path class="st4" d="M506.6,638.5c5-0.1,9.7-1.9,14.5-3.1c7.2-1.7,12.2,1.8,15.8,10.1c2.8,6.4-1,9.7-5.5,12.9
		c-18,12.5-37.5,14.5-58.2,8.4c10.5,0.2,20.9-0.6,31-3.4c6.8-1.8,14.2-4.3,15.2-12C520.5,643.3,512.3,641.5,506.6,638.5z"/>
	<path d="M516.6,733.5c-1.8-0.2-3.7-0.4-6.2-0.7c5.5-4.1,11.4-4.9,16.9-5.9c8-1.5,14.8,8.5,11.7,16.4c-3.6,9-10.2,15-19.3,18.1
		c-17.4,5.9-34.3,4.3-54.7-9.7c6.1,1.1,12.2,2.2,18.2,3.3c9.6,1.9,19.1,2.2,28.6-0.3c3-0.8,5.8-1.8,8.5-3.3
		c5.1-2.7,10.4-6.1,9.2-12.4C528.4,732.2,521.6,734,516.6,733.5z"/>
	<path d="M533.5,823.2c-0.3,20.7-28,29.7-44,22.3c-2-0.9-4.1-1.5-6.1-2.2c-1.6-3.4-5.4-4.5-7.8-7.5c3.9-0.9,6.1,2.8,9.4,2.7
		c9,1.7,18,1.8,26.9-0.8c2.9-0.9,5.8-1.9,8.1-4c3.3-3,4.6-6.8,4-11.2c-0.8-5.1-5.4-4.5-8.7-6c2.1-3.9,5.7-7.2,9.7-6
		C530.4,812.1,533.1,817.2,533.5,823.2z"/>
	<path class="st4" d="M516.6,733.5c3.8-2.3,7.9-2.9,11.8-0.6c6.6,3.8,5,13.7-3.2,18.6c-13.3,7.9-27.4,9.2-42,3.6
		c9.6,0,19.2,0,28.4-3.3c2.3-0.8,4.8-1.6,6.7-3C525.3,743.7,524.6,737.6,516.6,733.5z"/>
	<path class="st4" d="M515.1,816.5c4.2-1,8.8-3.1,10.6,3.4c1.9,6.8,0.7,12.9-5.5,16.5c-11.3,6.6-23.2,7-35.3,2.1
		c8.9,0,17.7-1.1,25.9-4.8C519.8,829.5,521.1,823.4,515.1,816.5z"/>
	<path class="st5" d="M485,527.1c-3.6-2.7-4.7-5.8-5-9c-2.2-31-2.4-62-1.3-93c0.4-11.3,0.8-22.6,1.4-33.9c0.2-3.3,0.1-8.6,3.9-8.6
		c3.4,0,4.6,5.1,4.4,8.8c-1.9,28.9-0.7,58-3.1,86.9c-1.1,13.2-0.2,26.6-0.2,39.9C485,521.2,485,524.1,485,527.1z"/>
	<path class="st6" d="M658.5,144.8c13.8,8.8,22.6,21.2,26.2,37c1.6,7.1-0.5,14-4.3,20.4c-13.1,21.8-33.2,30.3-57.7,33.2
		c-21.9,2.5-43,0.3-64.3-3.9c-8-3-16.4-5.3-23.2-10.7c-1.9-1.5-7.2-3.5-1.5-7.1c13.9-0.4,27.7,1.3,41.4,2.7
		c24.3,2.4,48.2-0.1,72.1-2.5c3.8-0.4,7.7,0.3,11.2-1.1c-4.9,1-10,0.8-15.1,0.6c-20.2-0.9-40.4-1.2-60.7,0.4
		c-18.5,1.5-37.1,0.5-55.6-0.8c-7.4-7-8-14.4-2-23.7c6.2-1.7,12.7-1.5,19-1.2c35.2,1.7,70.4,1.9,105.6-0.7
		c8.7-0.7,17.2-3.6,26.1-2.9c-19.1-2.2-38.3-2.2-57.6-0.9c-23.2,1.5-46.4,3.7-69.7,4c-7.2,0.1-14.4,1.7-21.6,0.5
		c-2.4-0.7-3-2.5-2.2-4.5c3.5-8.3,6.3-17,14.9-21.9c40.8-3,81.6-6.8,118.6-9.8c-27.6-2.6-58.5,2-89.5,6.3c-7,1-14,4.1-21.2,1
		c-2.5-4.5,1.6-5.7,3.9-7.4c8.2-6.1,17.8-9.1,27.4-11.8c19.1-5.5,38.6-7.7,58.4-4.1C644.9,137.3,651.9,140.7,658.5,144.8z"/>
	<path class="st7" d="M531.8,215.2c7.2,8.1,18.2,10,26.6,16.2c-12.8-2.2-25.4-4.9-35.9-13.1c-11.6-9-15-24-8.8-37.5
		c8.4-18.2,22.9-29.8,40.7-38c20.4-9.4,42.1-13,64.2-12.6c14.5,0.3,29.1,3.1,40,14.5c-14.9-6.2-30.4-9.3-46.6-8.2
		c-22.5,1.6-44,6.8-63.2,19.1c-0.9,0.6-1.3,1.7-2,2.6c-0.7,5-5.2,2.5-7.7,3.9c-0.9,0.5-2.1,0.3-3.2,0.1c0.9,0.5,2.2,0.1,2.7,1.2
		c-5.8,7-9.5,15.1-13.5,23.1c-1.3,5.2-6.4,0.4-8.2,3c2.6-0.7,5.5-1.2,8.4,0.5c-1.6,7.2-3.8,14.5,1.7,21.2c-1,1.6-2.8,0.7-4.3,1.2
		c-1,0.1,0.9,1.5,0.2,0.6C526.2,211.8,529.2,212.4,531.8,215.2z"/>
	<path class="st8" d="M551.5,182.3c9.3-13.3,20.7-18.2,34.2-19c18.1-1.1,36.3-1.6,54.3-3.6c9.2-1,17.8-2.3,26.1,3.2
		c3.7,2.5,6.2,5,6.9,10.3C632.8,176.3,593,179.3,551.5,182.3z"/>
	<path class="st8" d="M650.6,208.3c-8.5-2.3-19.6-2-30.6-1.5c-19,0.8-37.9,2.2-56.9,3.2c-6.8,0.4-12.4-2.4-16.3-8
		c-2.2-3.1-2.2-5.7,2.9-5.3c13.6,1.2,27-2.2,40.5-1.6c23,1,45.8-2.5,68.8-1.6c3.1,0.1,9-3,9,3.4c0,5.4-3.4,9.8-9.2,11.3
		C657,208.7,655,208.3,650.6,208.3z"/>
	<path d="M525.1,190.2c-2.9-0.2-5.9-0.3-9.2-0.5c2.7-2.9,6.9,0.4,9-3c30.5-1.2,61-3.7,91.5-5.4c21-1.2,41.6-2.2,62.7,2
		c-3.8,4.2-8.6,2.9-12.7,4.2c-4.1,1.3-8.5,2.1-12.8,2.4c-34.3,2.9-68.7,1.9-103,1.4C542.2,191.2,533.7,190,525.1,190.2z"/>
	<path d="M531.8,215.2c-3.5-0.9-6.8-2.4-10.5-3.2c1.8-0.2,3.7-0.4,5.5-0.6c34.9,1.8,69.6-2.2,104.5-1.6c10.9,0.2,21.6,3.1,32.6,2.3
		c-12.5,2.9-24.8,6.2-37.7,6.1c-9.4-0.1-18.5,2.4-28,1.7c-19.7-1.4-39.5-1.1-58.9-4.9C536.9,214.7,534.3,215.2,531.8,215.2z"/>
	<path d="M538.5,163.6c-1.9-0.2-3.7-0.4-7.3-0.8c6.4-1.6,11.4-1.6,15.5-4.4c14.5-0.7,28.8-3.3,43-6c5.8-1.1,11.6-1.1,17.2-1.3
		c18.4-0.8,37-6.8,56.8,1.8C621,158.3,579.8,161.5,538.5,163.6z"/>
	<path class="st8" d="M644.5,144.8c-18.4,1.9-35.8,3.7-53.5,5.6C596.7,138.3,628,133.7,644.5,144.8z"/>
</g>
</svg>
