<?xml version="1.0" encoding="utf-8"?>
<!-- Generator: Adobe Illustrator 23.0.1, SVG Export Plug-In . SVG Version: 6.00 Build 0)  -->
<svg version="1.1" id="Layer_4" xmlns="http://www.w3.org/2000/svg" xmlns:xlink="http://www.w3.org/1999/xlink" x="0px" y="0px"
	 viewBox="0 0 1000 1000" style="enable-background:new 0 0 1000 1000;" xml:space="preserve">
<style type="text/css">
	.st0{fill:#475100;}
	.st1{fill:#5F5833;}
	.st2{fill:#748B00;}
	.st3{fill:#322700;}
	.st4{fill:#CCC8B3;}
	.st5{fill:#475200;}
	.st6{fill:#748C00;}
	.st7{fill:#070800;}
	.st8{fill:#E2E300;}
	.st9{fill:#465100;}
	.st10{fill:#3C3400;}
	.st11{fill:#465000;}
	.st12{fill:#E1E200;}
	.st13{fill:#080A01;}
	.st14{fill:#6E8400;}
	.st15{fill:#CAC6B1;}
	.st16{fill:#3D3500;}
	.st17{fill:#738B00;}
	.st18{fill:#302725;}
	.st19{fill:#FBFBFA;}
	.st20{fill:#DADC00;}
	.st21{fill:#946000;}
	.st22{fill:#5E5733;}
	.st23{fill:#687D00;}
	.st24{fill:#738A00;}
	.st25{fill:#3E3800;}
	.st26{fill:#DFE100;}
	.st27{fill:#925F00;}
	.st28{fill:#F8F8F8;}
	.st29{fill:#794600;}
	.st30{fill:#5E5833;}
	.st31{fill:#5D5633;}
	.st32{fill:#945F00;}
	.st33{fill:#5E5732;}
	.st34{fill:#5D5632;}
	.st35{fill:#956000;}
	.st36{fill:#605934;}
	.st37{fill:#728A00;}
	.st38{fill:#CBC7B2;}
	.st39{fill:#F2F2F2;}
	.st40{fill:#F0F0F0;}
	.st41{fill:#EEEEED;}
	.st42{fill:#EFEFEE;}
	.st43{fill:#758C00;}
	.st44{fill:#F7F6F4;}
	.st45{fill:#F2F2F1;}
	.st46{fill:#956100;}
	.st47{fill:#966100;}
	.st48{fill:#5D5733;}
	.st49{fill:#2F2624;}
	.st50{fill:#F5F4F2;}
	.st51{fill:#925E00;}
	.st52{fill:#455000;}
	.st53{fill:#5C5632;}
	.st54{fill:#F8B315;}
	.st55{fill:#E2E200;}
	.st56{fill:#B7B790;}
	.st57{fill:#C9C5B1;}
	.st58{fill:#F5B114;}
	.st59{fill:#B5B58F;}
	.st60{fill:#B6B68E;}
	.st61{fill:#B6B690;}
	.st62{fill:#B7B78F;}
	.st63{fill:#F6F6F5;}
	.st64{fill:#5C5531;}
	.st65{fill:#B5B58D;}
	.st66{fill:#0F1200;}
	.st67{fill:#C8C4AF;}
	.st68{fill:#EDAD14;}
	.st69{fill:#3B3300;}
	.st70{fill:#0E0E0A;}
	.st71{fill:#B6B68F;}
	.st72{fill:#D8D800;}
	.st73{fill:#B2BA00;}
	.st74{fill:#CAC6B0;}
	.st75{fill:#B4B48D;}
	.st76{fill:#1A1101;}
	.st77{fill:#7B4700;}
	.st78{fill:#F3F3F1;}
	.st79{fill:#B9B991;}
	.st80{fill:#BABA91;}
	.st81{fill:#6A8000;}
	.st82{fill:#718800;}
	.st83{fill:#595330;}
	.st84{fill:#8F5C00;}
	.st85{fill:#EFEFED;}
	.st86{fill:#8E5C00;}
	.st87{fill:#F0F0EF;}
	.st88{fill:#595331;}
	.st89{fill:#EDEDEB;}
	.st90{fill:#B4B48C;}
	.st91{fill:#EDEDEC;}
	.st92{fill:#CBCC00;}
	.st93{fill:#E6E6E4;}
	.st94{fill:#D9D900;}
	.st95{fill:#526200;}
	.st96{fill:#637700;}
	.st97{fill:#738600;}
	.st98{fill:#EAEAE8;}
	.st99{fill:#F0F0EE;}
	.st100{fill:#657900;}
	.st101{fill:#6F8500;}
	.st102{fill:#E9E9E7;}
	.st103{fill:#A9AD00;}
	.st104{fill:#B8BB00;}
	.st105{fill:#AEAE89;}
	.st106{fill:#9B6400;}
	.st107{fill:none;}
	.st108{fill:#4E492C;}
	.st109{fill:#CFCFC2;}
	.st110{fill:#DBDBD6;}
	.st111{fill:#C4C700;}
	.st112{fill:#E9E9E8;}
	.st113{fill:#BCC200;}
	.st114{fill:#533600;}
	.st115{fill:#0D0E00;}
	.st116{fill:#0E0D0A;}
	.st117{fill:#070700;}
	.st118{fill:#14130C;}
	.st119{fill:#0F1100;}
	.st120{fill:#090B00;}
	.st121{fill:#15140F;}
	.st122{fill:#11110C;}
	.st123{fill:#53514A;}
	.st124{fill:#13120E;}
	.st125{fill:#040403;}
	.st126{fill:#B8B890;}
	.st127{fill:#030303;}
	.st128{fill:#020202;}
	.st129{fill:#1A1913;}
	.st130{fill:#161612;}
</style>
<g>
	<path d="M927.1,388.1c-2.3-28.3-19.6-54.1-10-84.8c6.2-20.2,16.3-39.6,4.9-65.6c-7.5-17.1-10.3-34.4-27.7-44.6
		c-21.6-12.6-45.6-17.9-69.9-20.8c-18.5-2.2-34.5,5.1-39.4,24.6c-3.3,13.3-16.8,22.5-15.7,37.8c0.2,3.3-3.1,3.8-5.7,3.5
		c-11.2-1-20,3.5-27,11.7c-6,7-9.8,3.1-13.7-2.1c-25.4-33.1-60.8-47.5-100.7-52.3c-13-1.5-22.9-4.3-31.5-16.1
		c-14.5-19.7-33.6-36-58.7-39.7c-22.1-3.2-40-12.4-56.9-26.4c-23.9-19.8-55.4-21.7-83.3-32.3c-19.8-7.5-37.4,0.9-52.4,12.2
		c-8.1,6.1-12.6,5.9-20.6,1.6c-25.2-13.5-50.9-11.7-72.7,5.6c-20.2,16.1-22.5,39.4-16,64c3.7,13.9,6.3,28.7-16.8,27.9
		c-4.2-0.1-8.8,4.6-12.7,7.7c-26.6,20.9-21,92.7,12.5,103.8c12.6,4.2,18.2,12.6,21.1,23.8c4.3,16.7,13.4,28.4,27.9,38.7
		c37.1,26.1,82,36.7,119.1,63c16,11.3,29.2,19.3,31,41.7c1,11.7-6.1,18-7.4,27.6C401.2,526.3,382,554,413,584
		c-14.1-3.9-22.8-2.6-31.9-4.3c-26.9-4.9-54.4-8.4-81.6-8.6c-12.7-0.1-22.9,0.1-34.5-6.6c-17-9.9-48-4.8-53.1,8.5
		c-5.6,14.5-16.6,16.1-28,21.3c-20.4,9.2-41.1,11.7-63.2,11.5c-24.5-0.2-41.3,14.5-50.6,38.4c-8.9,22.9-10.7,44.8,9.5,61.9
		c39,33.1,85.3,46.8,135.7,43.5c37.1-2.4,55.4-21.3,53.7-54.9c-1-21.7,14.8-25.5,27.9-30.2c21.9-7.8,45.4-4,68.9-3.2
		c-21.3,7.2-38,19.8-45.2,40.9c-4.7,13.7-11.9,20.9-26.1,20.2c-4.9-0.2-8.4,2-12.5,3.8c-36.6,15.7-44.5,48.8-47,82.7
		c-2.2,29,15.6,50.1,38.7,66c51.3,35.4,108,36.2,165.3,22c18.8-4.6,39-15.8,44.8-37.6c6.9-26.1,7.5-53,0.1-79.4
		c-0.9-3.2-6.5-6.2-1.2-9.7c2.6-1.7,5.8-0.8,9,0.7c19.1,9.2,40.5,9,60.7,13.6c24.2,5.6,57.6-11.3,64.6-29.9
		c12.6-33.6,13.4-33.9,43.1-14.6c4.8,3.1,9.4,6.4,13.8,10c7.3,6,10.7,10,3.4,21.3c-27,42.1-10.1,77.7,28.3,97.1
		c28.1,14.3,57.4,23,88.1,25.2c19,1.4,42.5,1.5,54.8-15c22.6-30.4,24.9-88.5-22.4-105.9c-26.1-9.6-37.9-28.3-37.4-56.4
		c0.4-18.6-24.1-41.3-39.2-36c-11.2,3.9-15.8-1.8-22.8-6.3c1.3-1.5,2-2.6,3-3.4c21.2-16.2,57.1-13,63.9-48.2c0.1-0.5,0.9-1,1.4-1.2
		c24.6-10.9,24.6-36.8,31.9-56.8c5-13.8,9.2-25.6,22.2-32.3c14.5-7.5,28.9-16.5,36.3-30.3c15-28,27.2-57.6,40.3-86.6
		C929.8,406.4,927.9,397.7,927.1,388.1z M696.6,534.1c-3.4-4.4,0.6-7.5,3.6-9.3c4.8-3,7.7-0.1,6.7,4.7c-1.6,7.3,7.5,12.6,3.1,20
		C705.5,544.5,700.8,539.5,696.6,534.1z"/>
	<path class="st0" d="M835.8,281.4c19,10,36.4,22.7,50.4,38.8c13.3,15.3,21.4,33.6,20.2,54.7c1.3,19.8-6.6,36.9-18.9,51.1
		c-17.9,20.6-21.9,44.3-19.8,70.1c-7,8.1-13.7,21-22.1,0.8c-2.3-5.6-6.2-2.4-9.5-0.3c-9.6,16.7-25.8,22.6-43.4,25.8
		c-9.7,1.8-16.3-2.8-20.3-11.3c-4.2-9.1-3.5-17.6,4.4-24.7c2.4-2.2,5.2-3.8,8-5.4c3.4-1.9,6.9-3.6,10.3-5.4
		c47-25,58.5-54.6,38.8-104.1c-4.4-11.2-7.5-21.9-7-33.7c0.8-20.2-13.5-36.1-15.5-55.5C819,271.8,827.7,283.7,835.8,281.4z"/>
	<path class="st1" d="M355.6,800.8c35.5,5.9,65.5-7.5,92.1-28.8c8.9-7.1,10.2,0.3,13.1,3.2c29.5,29.8,11.6,96.5-29.2,107.1
		c-26.2,6.8-53.2,12-80.4,4.2c-6-17.2,0.1-32.5,7.3-47.6c7.1-4.6,15-2.7,22.6-2.8c23-0.3,46.2,2.3,63.7-8.6
		c-22.5,11.7-50.4,9.1-78.3,7.7C357.5,825.4,357.2,812.9,355.6,800.8z"/>
	<path class="st2" d="M702.5,311.9c11.8-25.9,34.6-32.2,55.9-15.4c6.5,9,4.8,19.4,5.1,29.5c-0.2,39.2-13.5,74.2-34.3,106.9
		c-5.4,8.4-11.6,15.5-21.9,17.5c-11.9,2.6-23.7,3.1-35.5-0.7c-4.5-3-8.6-6.3-7.1-12.6c19.9-43.9,46.4-84.7,63-130.7
		C716.1,302.8,712.1,317.4,702.5,311.9z"/>
	<path class="st1" d="M706.8,781.5c10.9-1.3,20.7,1.8,28.5,9.4c13.1,12.7,29.9,15.2,46.5,16.1c10.7,0.6,23-1.4,22.9-17.1
		c0-9,4.1-9.1,11.2-6.6c32,11.2,44.3,63.1,19.2,85.6c-10.9,9.8-26.8,10.5-40.6,9.2c-17.6-1.6-35.9-2.3-52.6-9.8
		c8.9-14.5,6.1-34.1,20.1-46.4c21.7-5,43.8,4.8,62.5-2.6c-39.3,5.3-80.2,3.8-115.5-24.4C704.2,791.1,702.9,786.7,706.8,781.5z"/>
	<path class="st3" d="M511.7,695.1c9.7-8,19.6,0,29.2-0.7c17.4-1.2,33.1-2.3,44,15.6c4.8,7.9,17.7,1.4,24,9.4
		c-2.3,3.9-4.7,7.7-6.5,11.9c-9.1,22.4-26.6,33.3-50.4,31.1c-31.7-3-62.9-8.3-91.4-23.9c-1.2-19.3,5.8-28.3,22.5-25.6
		c7.3,1.2,8.5-3.4,12.2-6.1c18.6-2.9,36.8,4.5,55.4,2c2.6-0.3-0.8-4.3,0.3-1.9c0.4,0.9,0,1.6-1.2,1.5
		C536,707.1,520.2,711.6,511.7,695.1z"/>
	<path class="st1" d="M234.6,676c6.6,2,17.9-4.8,19.2,7c1.6,15.2,4,31.6-12.6,42.1c-22.3,14.1-46.5,10.3-70.2,7.4
		c-10.7-1.3-20.8-6.9-31.2-10.6c-0.2-20,6.3-36.8,22.7-49.1C186.5,675.5,210.7,673.1,234.6,676z"/>
	<path class="st4" d="M360.2,839.5c-3,15.7-5.9,31.3-8.9,47c-36.2-3.4-67.5-16.1-89.7-46.5c-2.4-21,4.6-39.7,13.9-57.8
		c4.1-3.5,7.5-0.9,9.9,2.1c18.5,23.3,41.1,40.7,69.8,49.7C357.6,834.7,359.1,837.1,360.2,839.5z"/>
	<path class="st5" d="M695.1,465.7c67.2-3.4,114-65.8,99.1-132.1c-0.7-3.1-0.4-6.4-0.6-9.6c11.6-0.9,11.2,12.1,18.5,16.2
		c5.7-0.5,4.4-9.3,10.8-8.9c9.8,9.9,5.9,22.5,4.6,33.2c-6.7,51.4-30.3,93.4-73.1,123.6c-11.2,7.9-23.3,14.6-38,10
		c-6.1-14.3,15.3-9.3,14.2-20.6C721.1,467.3,702.9,481.5,695.1,465.7z"/>
	<path class="st6" d="M546.8,176c-3.9-4-7.8-7.9-11.7-11.9c2.9-4,7.7-0.7,11.1-2.8c18.2,9.1,30,24.5,40.3,41.4
		c64.5,118-26.4,225.7-122.3,236.1c-5.2,0.6-10.3,1.6-15.3-0.9c-5.3-1.1-11.4,1.3-15.9-3.5c0.4-3.9-9-7.7-0.2-11.8
		c17.1-7.3,35.8-5.7,53.5-9.5c49.5-10.7,95.8-66.9,98.9-117.5C587.9,250.2,571.4,212,546.8,176z"/>
	<path class="st7" d="M714.8,495.9c35.1-0.7,56.1-23.7,74.5-49.1c24.8-34.2,40.1-71.7,31.7-115.4c-5.8-26.2-24.4-45.8-36-69.1
		c2.1-4.2,4.6-5.1,7.9-1.1c6.6,6.6,17.1,9.3,19.7,19.9c12.3,21.8,19.7,44.4,20.3,70.1c0.4,16.6,8.7,32.9,12.6,49.6
		c7.3,30.8-6,50-27.7,66.5c-9.7,7.4-21.2,12.6-32.2,18.2c-9.3,4.7-14.7,10.5-10.4,21.6c4,10.5,10,12.1,21.3,9.6
		c15.5-3.3,26.3-13.7,39.5-20.3c0,1.1,0,2.2-0.1,3.2c-3.3,21.2-21.6,22.3-36.8,27c-5.3,1.6-11.4,0.6-17.2,0.1
		c-21-11.9-23.5-31.3-5.9-46.6c5.4-4.7,11.5-8.4,17.8-11.8c39.5-21.9,45.1-33.3,38.8-79.8c-10.8,46.8-37.7,81.2-76,107.3
		c-19.9,13.5-42.4,13.9-65.2,11.9c-5-2.1-7.6-5.8-7.7-11.3C693.8,488.2,704.2,488.5,714.8,495.9z"/>
	<path class="st8" d="M487.9,602.1c-16.7-3.1-31.3-11.3-45.8-19.5c-31.3-17.7-32.3-20.9-23.9-59c3.7-19.5,3.7-19.5,17.8-9.1
		c12.2,20.4,33.8,27.1,53.2,36.8c8,4,19.2,6.8,16.5,18.2C503,581.5,505,597.5,487.9,602.1z"/>
	<path class="st9" d="M691.3,507.8c2.1-1.2,4.2-3.3,6.4-3.5c71.7-7.1,119.5-52.7,130.7-124.9c0.4-2.4,0.2-5.3,3.5-6
		c18.6,55.7,9.3,78.8-42.6,103c-25.4,11.8-28.3,29.3-8.5,47.4c-3,10-9.8,4.9-15.5,3.8C739.6,525.1,714.9,518.4,691.3,507.8z"/>
	<path class="st9" d="M679.8,304.6c7.4,9.5,2.9,18.5-1.6,27.1c-12.6,24.2-23.1,49.1-27.2,76.4c-2.6,17.3-16.1,25.7-29.5,33.8
		c-16.3,19.3-37.7,25.8-62.1,24.3c-1.8-1.5-2.1-3.3-0.8-5.3c12.6-6.5,26.6-11.1,28-28.9c0.7-8.6,8.8-6.1,14.1-6
		c16.4,0.3,26.6-9.5,34.8-21.5c9.7-14.3,5.4-25.4-15.4-42.4c4.5-4,9.8-2.3,14.3-2.3c14.4,0.1,26.7-5.7,32-18.2
		c5.3-12.7,4.1-27.3-5.7-38.6c-7.6-8.8-11.9-18.3-12-29.8C668.5,274.3,669.2,294.4,679.8,304.6z"/>
	<path class="st10" d="M758.3,328.5c0-10.7,0.1-21.3,0.1-32c19.6,11.9,34,41.9,30.3,64.7c-4.9,30.3-18.3,56.6-39.6,78.7
		c-18.5,19.2-49.9,22.8-77.4,9.7c12-1.2,23.9-2.4,35.9-3.7c7.1,3.7,11.1-1.9,14.6-6c26.1-29.8,36.8-65.5,38.9-104.4
		C761.3,333,759.6,330.7,758.3,328.5z"/>
	<path class="st11" d="M355.9,389.8c-15.9-9.4-38.3-4.1-51.2-23c20.2,2,38.6,0.4,51.2-17.3c4.1-5.8,8.8-3.1,13.6-0.9
		c10.7,4.9,22.2,5.8,33.8,7.3c38.4,5.2,70.8-19,57.5-66.6c13-5.3,21.2,2.2,28.8,11c-4,26.7-18.9,46.1-40.8,60.8
		c-25.6,17.2-55.1,21.9-84.8,25.7C361.1,387.5,358.5,388.7,355.9,389.8z"/>
	<path class="st0" d="M644.5,613.2c-36.2,11.9-72.7,12.8-109.6,3.2c-1.5-18.6,3.1-35.8,12.3-51.8c9.4-5.6,19.1-1.1,28.1,0.6
		c25,4.9,49.5,2.2,74.1-2c15.2,8,3,13-2.7,17c-20.2,14.2-42.6,24.1-66.1,32.4c16.2,0.1,31.5-3.5,47.1-5.3
		C633.9,606.7,642.1,602.5,644.5,613.2z"/>
	<path class="st5" d="M448.9,437.9c83.6-8.9,146-67,154.9-148.6c2.7-24.6-4.9-49.9-13.6-73.7c-1.5-4.2-2.5-8.6-3.7-12.9
		c29.1,44.8,40.4,92.5,15.7,142.3c-28.5,57.5-71.9,95.8-140.4,96C457.2,441,452.6,441.4,448.9,437.9z"/>
	<path class="st9" d="M433.7,413.9c15.7-4.3,31.4-8.5,40.9-23.5c3.9-6.2,9.4-5.6,15.4-3.5c14.2,5,27,0.4,38.3-7.4
		c22.1-15.2,21.9-40.1,0.5-56c-3.8-2.8-9.8-3.5-11.4-11.6c17.6,6.2,34.4,11.9,48.6-4c3.6-7.3,6-21,14.1-18c10.8,4,5.6,16.5,2.4,25.6
		c-27.4,77.9-71.7,105.8-148.5,103.8C432.3,417.6,432.2,415.8,433.7,413.9z"/>
	<path class="st12" d="M702.5,311.9c1.2-0.3,2.7-0.3,3.6-1c7.7-5.7,13.6-20.9,24.7-12.1c7.9,6.3-0.6,18.2-4.7,26.3
		c-19.1,38-34.9,77.8-61.4,111.8c-7.7-25.6,2.6-48.5,11.7-71.1C683.8,347.3,693.7,329.8,702.5,311.9z"/>
	<path class="st4" d="M760.9,825c-2.6,10-5,20.1-7.8,30c-1.7,6-2.2,13.3-11.2,13.2c-18-7.6-36.1-14.8-50.6-28.5
		c-5.3-14.3-7.4-28.8-1.7-43.4c3.1-7.9,6.2-16,17.3-14.8c0,0-0.1-0.1-0.1-0.1c-0.6,4.5-1.3,9,3.1,12.2c12.8,9.8,26.2,18.7,42,22.8
		C756.6,817.7,760.5,819.5,760.9,825z"/>
	<path class="st13" d="M433.4,417.5c38.7-1.2,77-5.4,105.6-35.1c23.7-24.5,40.2-53.4,44.2-91.1c-9,4.9-8.9,15.2-17.1,16.6
		c-1.4-1.2-2.8-2.4-4.2-3.5c-1.6-7.6,6.2-11.5,7-18.2c0.8-4.1,0.8-8.2,0.5-12.4c1.5-11.4-12.5-16.2-11.7-27.3
		c1.6-1.3,3.2-2.6,4.8-3.9c4.8-3.2,7.8,1.2,11.8,3c0-4.4-2.3-7.8-3.5-11.4c-6.2-19.8-22.9-34.2-28.3-54.4c1.4-1.3,2.8-2.6,4.3-3.9
		c40.9,33.6,56.2,109.4,32.6,160.4c-24.7,53.3-64.1,84.8-124.7,86c-8.3,0.2-16.6,2.1-24.9,3.3c-10,5.6-18.1-2-27.1-3.8
		c-3.1-1.3-4-4-4.2-7.1C410.6,408.5,421.6,418.5,433.4,417.5z"/>
	<path class="st14" d="M464.9,132.3c6.9-1.2,12.3,0.4,17.1,6.3c27.6,33.9,40.8,72.5,36.6,116c-4,40.5-17.4,77-50.9,103.6
		c-12.5,9.9-26.5,16-41.1,21.4c-4,1.3-5.3-0.9-5.6-4.4c28.3-14.2,53.2-31.7,64.9-63C505.9,259,514,206.7,475,157.6
		c-1.5-1.2-2.9-2.6-4.1-4.1C467.2,146.9,461.4,140.9,464.9,132.3z"/>
	<path class="st4" d="M160.2,675.8c-6.8,15.4-13.5,30.7-20.3,46.1c-21.6-5.7-41-15-54-34.2c3.8-16.9,12.3-31.3,23.6-44.1
		C127.6,652.2,145.3,661.8,160.2,675.8z"/>
	<path class="st2" d="M546.8,566.5c-0.4,17.5-6.2,33.7-11.9,49.9c-16.6-1.8-32.2-6.8-47-14.3c9.8-8.2,9.4-20.8,13.6-31.4
		c3.8-9.5-4.1-10.2-9.8-13c-21.8-10.7-46.8-16.8-59-41.2c0.8-0.6,1.5-1.2,2.3-1.9c7.7,0,13,5,18.7,9c22.8,16,47.7,27.5,74.9,33.8
		C535.4,559,542.7,559.5,546.8,566.5z"/>
	<path class="st5" d="M554.6,539.3c23.5,0.9,46.4,11.3,70.5,3.8c9.4-2.9,18.7-4.1,10.9-17.2c-1.9-3.2-4.4-7,0.5-10
		c4.5-2.7,9.3-5,14.1-0.3c9.2,8.9,20.1,16.7,20.9,31.2c-1.1,8.2-4.7,14.2-13.6,15.7c-27.5,5.1-54.9,9.5-83,4
		c-6.2-1.2-12.7-1.1-18.4-4.3C550.2,555.1,552.2,547.2,554.6,539.3z"/>
	<path class="st15" d="M355.6,800.8c8,8.8,13,18.2,6.8,30.2c-4.1,6.5-9.2,2.6-13.7,0.9c-28.8-10.5-52.4-27.8-68.7-54.1
		c5-18.5,17.3-27.4,36.2-27.8C321.4,773.1,329.1,794.2,355.6,800.8z"/>
	<path class="st6" d="M785,262.4c20.2,18.8,37.2,39.2,36,69.1c-1.9,6.4,1.7,16.4-7.1,18c-7.7,1.5-7.8-8.6-11.1-13.5
		c-2.8-4.2-4.3-9.4-9.2-12c-10.8-22.7-26.6-39.7-52.1-45.7c7.4-11.9,18.4-18,31.9-20.4C777.3,259.4,781.1,260.9,785,262.4z"/>
	<path class="st16" d="M660.4,558.5c6-1.7,6.7-8.4,11.1-11.6c10.8,30-0.4,57.4-27,66.3c-12.1-6.7-23.4,0.9-35,2.3
		c-15.1,1.8-29.9,3.1-44.9-2.1c29.4-8.6,56-22.2,81.5-38.2c3.1-2,10.2-1.7,6.3-8.8C649.9,558.6,658.7,562.1,660.4,558.5z"/>
	<path class="st17" d="M715.2,711.3c-2.5,2.7-5,5.3-7.5,8c-17.7,19.2-17.8,19.4-38.3,4.4c-5.8-4.2-12.2-7.1-18.4-10.6
		c-14.9-8.4-19.2-22.9-11.2-37.5c2.9-5.3,6.7-10.3,13.5-9c24.7,4.8,46.4,15.4,62.3,35.7C717.8,704.9,717,708.3,715.2,711.3z"/>
	<path class="st17" d="M300.9,222.6c-6.8-5.7-13.5-11.4-21.3-18c12.5-3.7,22.4,4,33,2.4c17.9,1.5,35.8,4.9,53.8,0.2
		c16.3-4.3,7.8,10.5,11.8,15.7c5,16.4,6.5,30.8-16.2,34.6c-3.8,0.6-6.8,5.4-10.2,8.3c-1.9,0.8-4.3,0.7-5.1-0.9
		C336.8,244.8,317.8,234.8,300.9,222.6z"/>
	<path class="st18" d="M578.2,675c-0.7-13.4,3.9-24.2,16.1-30.6c6-3.2,13.4-10.1,19-2.8c6,7.8,19.5,12.8,13.4,27.1
		c-2.3,5.3-3.2,11.2-5.3,16.6c-3.1,8.2,6.6,23-11,23.6c-15.9,0.5-29.8-12.4-32.2-28.1C578,678.9,578.2,676.9,578.2,675z"/>
	<path class="st17" d="M320.5,589.5c20-2.6,39.4,2.6,59.1,4.7c8.7,0.9,12.3,5.7,10.8,14.4c-1.8,10.2-4.3,20-11.6,27.9
		c-26.3,4.1-52.7-0.9-79.2,0.5c-15.2,0.8-16.6-13.4-16.2-25.8c22-10.9,45.3-6.8,68.3-6c6.4,0.2,12.6,3.3,21.2,0.4
		c-12.2-5.2-23.4-5.9-34.8-6.9C331.4,598.1,321.8,601.1,320.5,589.5z"/>
	<path class="st19" d="M316.2,750c-13.6,6.4-26.2,14.1-35.2,26.7c-0.3,2-1.5,3.3-3.3,4.1c-5.4,19.8-10.8,39.5-16.2,59.3
		c-24.3-33.5-1.9-93.7,38.2-103.8C313.3,732.7,317.9,736.8,316.2,750z"/>
	<path class="st5" d="M715.2,711.3c-13.4-23.4-36.1-33.7-60.1-41.5c-8.8-2.9-11,5.8-12.8,11.4c-2.7,8.5-5.5,19.3,4.4,24.4
		c13.3,6.9,25.2,15.7,37.5,23.8c12.7,8.4,14.1-10.3,23.5-10.1C694.3,745,694.4,744.8,671,730c-9.2-5.9-18.6-12.1-28.8-15.7
		c-12.8-4.5-14.6-11.3-11.7-23.5c7-30.2,6.4-29.7,37-23.8c17.7,3.4,35.5,4.3,49.9,17.5C733.3,698.9,733.6,699.6,715.2,711.3z"/>
	<path class="st20" d="M445.5,476.8c1.1-0.3,2.3-0.5,3.5-0.5c13.1-2.8,26.1-2.2,39.1-0.2c1.4,11.1-15.1,10.1-12,20.6
		c3.2,10.8,11.5,18.4,18.7,26.6c4.9,5.6,13.1,9.2,10.5,18.9c-2.1,2.9-5.4,4.7-8.4,3.6c-27.3-10.4-54-21.6-69.4-48.9
		C426.3,483.8,436.3,480.6,445.5,476.8z"/>
	<path class="st2" d="M503.9,543.4c-1.3-13.4-15.2-16.2-21.5-25.9c-13.5-20.6-14.4-22.2,4-38.6c-12.6-5.6-25.4,0-37.4-2.6
		c11.5-6.5,24-2.9,36-3.5c4.2-0.2,7.8,2,9.1,5.9c1.7,5.3-3.5,6.4-6.6,7.9c-13.3,6.4-6.7,12.5,0.1,18.4c19.5,17,44,24.2,67.1,34.3
		c4.5,6.4,4.9,12.8,0,19.2C536.9,563.1,512.4,555.8,503.9,543.4z"/>
	<path class="st9" d="M585.4,491.7c21.9-5,43.8-10.1,62.4-23.7c2.2-1.6,4.5-2.3,6.8-0.1c8.9,8.2,4.2,32.7-7.6,36.5
		c-21.4,6.8-43.6,5-65.2,2.1c-9.1-1.2-19.6,0.8-27.8-5.7c4.4-6.6,11.3-3.4,17.2-4.6C576.1,495,582.7,499.4,585.4,491.7z"/>
	<path class="st21" d="M755,546.4c18.1,0.6,31.8-0.2,44.9,4.5c8.8,3.1,15.4,7.8,10.6,18.5c-4.6,10.3-10.3,6.5-18.4,2.9
		c-21.4-9.3-44-8.1-66.5-2.6c-4,1-10.3,6.7-13-0.9c-2-5.7,1.5-11.6,6.1-15.4C730.9,543.3,745.7,546.9,755,546.4z"/>
	<path class="st22" d="M425.6,695.3c19.1,17.6,22.1,40,18.1,63.9c-1.6,9.7-8.7,16.3-18.6,17.5c-9.8,1.2-7.9-8.8-10.4-13.8
		c-9.3-18.8-24.9-29.3-44-35.7c5.5-6.9,12.9-5.1,19.7-3.8c8.2,1.5,15.4,0.7,21.9-4.8c12.8-2.9,14.4,8,18.5,15.3
		c3.7,6.7,3.1,14.4,3.9,20.3c2.8-19-10.8-32-21.9-46.2C416,702.6,421.5,699.6,425.6,695.3z"/>
	<path class="st23" d="M625.3,445.5c7.5-4.9,15-9.7,24-15.6c6,13.7,6.9,24.4-8.6,32.8c-28.3,15.4-57.2,26.4-90.1,17.5
		c-2.1-3.2-12.1-0.7-6.5-9.3C572.7,467.4,599.9,459.4,625.3,445.5z"/>
	<path class="st2" d="M391.1,667.4c-2.5,0.2-6.4,0.4-4.9-3c7.1-16.1,51.1-41.1,68.6-40c6.2,0.4,11.5,2,14.7,7.8
		c3.7,17.1-8.7,47.5-22.9,55.9c-3,1.8-6.1,1.6-8.9-0.8c-6.6-7.3-15.8-10.3-24.1-14.7c6.9-14,24.3-19.1,30.2-35.9
		C423,643.5,410.7,661.7,391.1,667.4z"/>
	<path class="st24" d="M714.8,495.9c-10.4,0.2-20.8,0.4-31.2,0.7c-3.9-2.1-8.8-3.4-11.7-6.5c-6.4-6.9-9.1-16.6-6.2-24.9
		c3.8-10.5,11.8-1.1,18-1c3.8,0.1,7.6,1,11.4,1.5c9.5,6.4,20.2,1.9,30.2,3.1c5.9,0.7,13,1,14.7,7c2,6.7-5,9.6-9.9,12.4
		C725.2,491.1,719.9,493.4,714.8,495.9z"/>
	<path class="st25" d="M867.6,496.1c-2.2-1.1-6.5-2.5-6.4-3.1c3-18.1-2.2-38.5,10.7-53.7c16.2-19.2,26.9-40.8,34.5-64.4
		c14.7,26.7-0.5,47.5-15.2,66.8c-7.9,10.4-13.4,19.6-12.6,33C879.1,483.2,875.8,491.3,867.6,496.1z"/>
	<path class="st4" d="M254,577.9c3.6,0.4,7.3,0.7,10.9,1.1c8.1,30.8-5.8,56.3-20,81.6c-1.9,3.3-6.2,4.5-10.4,3.4
		c-3.4-7.6-7.5-14.9-7.1-23.6c1.7-8.1,2.4-16.2,2.1-24.6C228.7,594.5,234.6,586.1,254,577.9z"/>
	<path class="st5" d="M570.5,632.7c5.1,0,10.2,0,19,0c-14.9,13.3-24.4,26.2-23.3,44.1c0.3,4.7-3.3,6.1-7.4,7.3
		c-10.2,2.9-19.9,1.9-30.4,0.6c-16.2-2-8-15.1-12.3-22.2c-4-6.5-5.9-14.2-8.7-21.4c7.9-3.7,11.7,3.2,16.8,6.5
		c18.6,12.1,26.7,10.4,39.2-8.6C565.1,636.1,567.5,634.1,570.5,632.7z"/>
	<path class="st26" d="M320.5,589.5c16.9,7.2,35.8,2.5,52.7,9.3c4.3,1.7,12,0.5,11.6,7.8c-0.5,8.2-7.8,8.1-13.4,6.8
		c-28.4-6.8-57.4-0.5-85.9-4.4c-3.1-6.3-4.2-12.5,0.5-18.5C297.5,589.9,308.9,587.1,320.5,589.5z"/>
	<path class="st27" d="M706.4,588.1c21.1-15.2,67.1-18.4,84-6.9c8.6,5.8,12.6,13.3,4.9,22.7c-6.4,7.8-11.8,9.1-20.2,0.3
		c-11.2-11.7-27.2-13.8-43-14.4C724.2,589.4,716.2,588.7,706.4,588.1z"/>
	<path class="st28" d="M110,643.7c-5.5,16-13.4,30.8-24.2,43.9c-8.5-17.3-4.9-39.8,8.8-55.1c7.9-8.8,39.5-15.6,51.1-11.2
		c6.5,2.5,3.1,7.4,3.1,11.4c-7.5,7.5-17.5,8.7-27,11.1C117.9,644.7,114,641.8,110,643.7z"/>
	<path class="st6" d="M570.5,632.7c-14.6,36.6-22.5,37.6-63.2,8.4c-4-3.8-7.9-7.7-11.9-11.5c8-10.8,19.6,4.1,27.9-3.9
		C539.6,624.2,555,628.8,570.5,632.7z"/>
	<path class="st29" d="M460.6,738.4c12.4-3.1,21.7,6,32.1,9.4c20.2,6.5,40.8,6.1,61.1,9.4c18.9,3,33.7-6.2,43.8-22.7
		c3.3-5.4,4.1-12.7,11.2-15.1c-6.2,35.8-10.9,54.6-67.9,47C512.2,762.6,483.6,758.8,460.6,738.4z"/>
	<path class="st30" d="M234.5,663.9c16.4-10.6,17.5-29.2,23-45.3c4.3-12.7,8.1-25.9,7.4-39.7c8.4,4.1,8.8,11.6,8.6,19.6
		c-0.4,11.6-0.4,23,2.5,34.5c2.3,8.9,6.3,21.1-4.5,26.2C260.4,664.6,248.2,674.1,234.5,663.9z"/>
	<path class="st31" d="M344.4,308.2c1.6,14.1,14.9,29.3-1.5,42.1c-19.8,15.4-41,10.6-61.8,1.3c-1.3-3.2,0.6-4.9,2.9-6.5
		c6.5-2.5,12.8-5.6,19.6-7.5c16.4-1,14.8-19,24.5-26.2c1.9-0.4,3.9-0.5,5.7,0.1C338.3,313,344.2,319.7,344.4,308.2z"/>
	<path class="st9" d="M286.1,590.4c-0.2,6.2-0.4,12.4-0.5,18.6c-2.7,19.3,6.6,26.9,24.7,23.5c23.4-4.4,46-1.5,68.6,4.1
		c-2.5,5.5-6.7,12.2-12.3,10.7c-23.9-6.5-47.2,4-70.8,1.3c-3-0.3-8.1-1.7-8.3-3.2C284.5,627.1,273.3,608.9,286.1,590.4z"/>
	<path class="st32" d="M625.5,646.9c27.7-8.3,54.8-11.8,72.2-34.7c1.8-2.3,4.2-2.8,6.6-0.6c3.5,3.2,6.6,6.8,5.1,11.8
		c-2.4,8.2-5.9,16.2-13.7,20.6C673.9,656.3,651.6,661.1,625.5,646.9z"/>
	<path class="st33" d="M511.2,445.3c14.9-8.9,28.7-15.8,41-24.8c9.4-6.9,17.9-6.5,23.4,1.7c6.5,9.6,1.3,18.6-8.2,24.2
		C549.1,457.3,531,455.1,511.2,445.3z"/>
	<path class="st4" d="M706.9,766c-0.7-0.8-0.7-1.6-0.2-2.5c-4.6-10.2,2.6-16.8,7.2-24.3c4.3-7.1,9.6-13.6,12.4-21.5
		c10.9-7,16.7-26.2,35.3-14.6c3.1,3.9,3.8,8.3,2.2,12.8c-8.2,22.4-25.7,36.9-43.8,50.7C716.3,769.3,711.2,768.1,706.9,766z"/>
	<path class="st4" d="M414.9,718.6c0.4,11.7-6.1,13.8-16,11.9c-9.2-1.8-18.4-4.9-28-3.3c-9.4-2.3-17.9,2.6-26.9,3.6
		c-0.9-12-3.7-24.4,7.8-33.5c8,0.4,16,0.8,24,0.6C391.1,700.4,408.4,699.2,414.9,718.6z"/>
	<path class="st34" d="M543,507.7c23.6,3.7,46.9,10.4,71.2,8.5c8.3-0.7,11.7,6,12.6,12.4c1.3,9.7-7.5,6.4-12.3,7.4
		c-22.2,4.5-43.3-1.1-64.3-7.6C554.6,519.1,541,516.2,543,507.7z"/>
	<path class="st9" d="M437.7,687.3c21.4-12.1,27.9-32.9,31.9-55.1c13.8,12.7,9.5,29,6.5,43.6c-3.1,15.6-11,29.8-23.4,44.7
		C448.4,707.3,444.9,696.4,437.7,687.3z"/>
	<path class="st35" d="M896.8,234.7c8,14.2,21.8,27.2,7.3,47.5c-14.5-20.2-30-38.2-53-47.2c5.4-6.5,11.7-12.4,15.4-20.4
		C881.2,214.2,891.6,220.6,896.8,234.7z"/>
	<path class="st36" d="M706.9,766c24.8-6.3,51.4-37,54.7-62.9c16.5,14.2,17.1,25.1,2.7,39.4c-5.4,5.4-10.4,11.3-15.1,17.4
		C735.8,777.1,728,778.3,706.9,766z"/>
	<path class="st37" d="M679.8,304.6c-14.1-6.8-16.7-24.9-31.2-31.2c-7.9-12-15.6-23.9-29.5-30.1c-6.1-2.8-8.7-10.1-6.1-14.6
		c3-5.3,9.3-0.9,13.9,1.2C659.3,244.3,672,272.7,679.8,304.6z"/>
	<path class="st30" d="M452.4,319.6c-12.3,30.2-39.1,37.8-69.8,19.8c-1-1.7-0.9-3.2,0.3-4.8c4.4-3.4,9.6-4.3,14.9-5.1
		c15.6-1.8,18.3-17.3,27.6-25.8C437.9,303.2,446.7,308.7,452.4,319.6z"/>
	<path class="st38" d="M363,792.7c-9.7,0.1-18-3-24.3-10.7c3.8-7.7,11.9-11.4,16.9-18.1c7.8-10.4,9.9-19.3-4.3-25.8
		c15.2-8.1,27.5-2.9,38.5,8.5C396.9,768.1,385.8,787.3,363,792.7z"/>
	<path class="st39" d="M414.1,250.8c-24.5-5-33.3-18-30.6-44.5c2.6-25,19.1-39.2,45.1-38.1c5.6,0.2,11.2,2.7,16.8,4.1
		c3.6,1.8,5.9,4.2,3.8,8.5c-5.1,6.6-11.4,3.4-17.5,2.4c-14.7-3.4-23.8,4.5-29.1,16.5c-6,13.6-4.1,26.5,9.1,35.9
		c4.3,4.5,12.1,6.5,10.8,15C419.6,252.1,416.8,252,414.1,250.8z"/>
	<path class="st40" d="M230.4,285.3c-19.7,1.8-25.3-10.9-27.8-27c-4.1-26.4,2.4-44.5,19.5-51.2c16.2-6.3,32.5-6.9,48.1,2.3
		c1.4,2,1.2,3.8-0.6,5.5l-1.8,0l-1.8,0.3c-3.1,2.5-6.6,3.9-10.6,3.6c-13.9-4.1-25.5-2.1-33.6,11.4c-9.6,16-5.9,29.6,6.8,41.9
		C230.8,276.2,233.2,280.4,230.4,285.3z"/>
	<path class="st41" d="M363.3,179.6c-21.2-6.4-30.9-25.1-26.1-50.3c4.4-23.2,22-36.8,46.2-34c6.6,0.8,14.4,0.6,20.1,5.8
		c-0.6,3.6,2.1,8.3-3.3,10.4c-5.2,1.2-10.1-0.9-15.2-0.9c-12.7-1.3-23.6,1.8-29.1,14.4c-5.5,12.8-5.4,25.3,5.5,35.8
		C364,166.8,382.4,171.4,363.3,179.6z"/>
	<path class="st42" d="M383.1,336.2c-0.9,1-1,2.1-0.4,3.2c-21.1,1.3-28.2-12-30.7-29.8c-3.7-26.2,4-44.1,22-50.5
		c13.2-4.7,26.5-5.1,39.8-0.4c0.7,8-5,9.6-10.9,11.1c-35.4,2.5-45.2,19.9-28.7,50.9C377.5,325.7,385.5,327.9,383.1,336.2z"/>
	<path class="st40" d="M284.6,347.1c-1.2,1.5-2.3,3-3.5,4.5c-22.9-0.7-26-17.5-27.8-34.9c-2.6-24.8,5.3-40.5,22.7-46.4
		c13.3-4.5,26.7-4.5,40,0.2c0.7,8-5,9.6-10.9,11.1c-35.4,2-45.5,19.2-29.6,50.6C278.8,337,287,338.9,284.6,347.1z"/>
	<path class="st43" d="M679.6,230.7c19.9,8.6,28.8,28.5,43.1,42.8c-7.4,6.4-7.6,6.8-15.9,3.1c-14.6-6.4-29-13.3-39.4-26.1
		c-9-7.9-18-15.8-27-23.7C654.7,215.8,666.2,232.3,679.6,230.7z"/>
	<path class="st44" d="M168,640.6c-14.1-9.6-9.4-17.6,2.6-24.1c6.7-3.7,13.9-6.5,21.1-9c23.6-8.2,23.6-8.1,23,17.5
		C201.1,636,187.3,646.5,168,640.6z"/>
	<path class="st33" d="M573.3,288.4c-3.8,5.3-7.6,10.7-11.5,16c-4,2-7.8,4.7-12.1,6c-10.2,3.2-19.4-1.5-27-6.8
		c-6.9-4.8,0.4-11.7,1.1-17.7c0.7-5.7,2.8-11.2,4.2-16.8C545.6,269.9,558.8,280.6,573.3,288.4z"/>
	<path class="st45" d="M265.6,187.9c-19.4-11.4-27.3-37-18.6-60.2c7.1-18.9,24.7-26,53.9-21.7c8.7,6.3,7.4,10.9-2.3,14.3
		C285,118.9,270.9,116,263,132c-8.1,16.5-2.9,30.1,9.3,42.2c2.9,4.3,4.9,8.7,1.9,13.8C271.3,189.6,268.4,189.7,265.6,187.9z"/>
	<path class="st46" d="M859.3,250c25.2,12.7,41.2,31.4,41.7,65.2c-19.4-15.6-34.4-31.4-53.6-41.4C856.7,268.5,855.7,258.1,859.3,250
		z"/>
	<path class="st47" d="M708.4,598.5c18-3.1,34.5,0,50.6,4.3c12.5,3.4,17.7,12.6,13.7,25.5c-1.6,5.2-5.5,9.1-10.7,10.4
		c-6.8,1.6-6.1-5.2-7.9-8.6c-5.7-10.9-15.9-14.5-26.5-17.8C720.5,610,712.1,609.7,708.4,598.5z"/>
	<path class="st48" d="M414.1,250.8c2.3-0.6,4.7-1.3,7-1.9c2.2-3.2,5.3-4.7,9-5.3c12-1,18.2-8.4,21.6-19.2c1.8-5.6,0-13.9,9.7-14.2
		c6,10,16.6,15.6,23.5,24.7c-9.9,22.3-23.9,29.6-47.4,23.9C429.5,256.9,421.8,253.5,414.1,250.8z"/>
	<path class="st22" d="M531.2,367.2c-18.2,17.3-32.8,19.3-52,8.9c-10.1-5.5-8.4-8.6-0.7-14.5c6.5-5,11.7-11.8,17.5-17.8
		C509.9,348.2,521.3,356.5,531.2,367.2z"/>
	<path class="st49" d="M384.6,649.9c5.2-15.5,13.7-29,15.5-45.4c1-8.6,33.4-9.9,38.4-1.6s-3.5,12.4-8,14.9
		C414,626.7,398.3,636.3,384.6,649.9z"/>
	<path class="st50" d="M351.4,738.2c20.7,1,22.3,3.3,12.3,21.9c-5.5,10.2-12,20-25,22C323,761.7,326.7,749.2,351.4,738.2z"/>
	<path class="st9" d="M300.9,222.6c23.8,6.3,40.9,20.5,50.8,43.2c-3.1,9-5.4,17-17.5,7c-10.7-8.8-24.5-13.5-23.5-31.7
		C311.1,235.1,304.4,228.8,300.9,222.6z"/>
	<path class="st51" d="M687.2,662.3c13.8-10.5,29.7-18.6,31.9-38.8c0.4-4,3.2-5.4,7-3.9c8.4,3.3,17.5,5.8,21,15.7
		c2.2,6.2-1.9,10.1-6,13.1c-9.7,7.1-21.7,8.1-32.9,10.9C701.3,661,694.2,661.3,687.2,662.3z"/>
	<path class="st49" d="M472.7,704.7c9-20.9,18.5-39.8,12.6-62c-1.4-5.4,4.8-5.9,7.4-2.2c8.4,12.2,17.1,25.3,13.5,40.7
		C502.6,696.9,489.8,702.7,472.7,704.7z"/>
	<path class="st32" d="M613.2,632.8c14-4.4,23.1-7.1,32.1-10.2c17.8-6.2,33.7-14.5,34.9-36.7c0.2-3.2,0.8-6.9,4.8-7.4
		c3.6-0.5,5.8,2.3,7.6,5.1c4.8,7.4,4,14.6-0.3,21.9C681.8,623.2,639.9,639.6,613.2,632.8z"/>
	<path class="st52" d="M378.1,222.9c-3.1-7.9-3.9-13.6-17.2-9.4c-15.2,4.8-33.5,4.6-48.4-6.5c11.1-4.9,23.1-7.8,33-15.7
		c9.7-7.8,18.8,0.7,26.8,4.2C384.6,201,377,213.4,378.1,222.9z"/>
	<path class="st53" d="M265.6,187.9c2.5-0.4,5-0.7,7.5-1.1c5.4-4.5,11.1-8.5,18.3-9.3c11.6,0.4,15.8-12,25.4-15
		c3.3-0.3,7.4,0,8.8,2.6c4.5,8,4.5-2.3,7-1.4c9.9,18.2,5.3,28.9-15,31.4C300,197.3,282.1,196.4,265.6,187.9z"/>
	<path class="st54" d="M859.3,250c1.8,10.8,9.6,24.6-11.9,23.8c-9.2-4.6-18.5-9-27.5-14c-3.9-2.2-11.3-2.4-9.3-9.9
		c1.7-6.7,7.5-8.4,13.6-8.4C836.6,241.4,848.6,243,859.3,250z"/>
	<path class="st9" d="M667.4,250.5c13.4,7.2,26.7,14.7,40.4,21.3c4.4,2.1,9.2,8.6,15,1.6c3.2,2.4,4.1,6-0.2,6.9
		c-15.1,3.2-23.2,14.7-33.2,28.7C685.7,286.1,675,268.9,667.4,250.5z"/>
	<path class="st55" d="M391.1,667.4c13.8-15.1,31.4-25,48.6-35.3c3.2-1.9,7.4-4.6,10.6-0.9c3.2,3.7-0.2,7.9-2.3,10.4
		c-10.1,11.9-20.2,23.9-34.5,31.1C406.3,669.8,397.2,675.2,391.1,667.4z"/>
	<path class="st9" d="M449.3,273.4c0-1.1-0.3-3-0.1-3c41.2-10.8,47-18.7,46.9-63.4c1.1-0.1,2.2-0.2,3.3-0.3
		c10.9,26.9,6.9,52.5-6.4,77.4C476.4,288.9,462.3,283.3,449.3,273.4z"/>
	<path class="st56" d="M293.2,180c-6.7,2.3-13.4,4.6-20.1,6.8c-1.2-3.7-2.5-7.5-3.7-11.2c11.6-12.1,28.6-20.6,25.9-41.7
		c-0.7-5.5-3.1-11.4,1.3-16.7c10-0.5,7.6-5.6,4.3-11.2c6.5-0.5,11.8,1.6,15.8,6.8c-0.5,1.8-0.9,3.6-1.4,5.4
		c2.1,16.5,4.1,33.1-5.6,48.1C305.8,172.3,302.6,180.1,293.2,180z"/>
	<path class="st57" d="M116.3,641.3c10.8-2.8,21.7-5.7,32.5-8.5c7.3,12.6,19,20.3,31.3,27.2c0.3,8.6-7,8.5-12.3,10.9
		C146.3,668.6,127.8,661.1,116.3,641.3z"/>
	<path class="st58" d="M866.6,215.7c2.9,13-4.5,17.6-15.5,19.3c-7.1-0.5-14.2-1.6-21.3-1.4c-10.3,0.2-13.9-4.8-13.2-14.4
		C829.6,200.2,851.7,198.7,866.6,215.7z"/>
	<path class="st59" d="M401.4,266.3c5.9,0.4,9.7-2.7,12.4-7.6c5.8,0.1,4.5,4,4.1,7.5c1.5,1.6,2.7,3.4,3.6,5.4
		c4.5,36-0.5,49.2-22.9,60.8c-5.2,1.2-10.4,2.5-15.6,3.7c-3.9-4-7.9-7.9-11.8-11.9c28.3-14.7,33.8-22.5,30.4-43.3
		C400.9,276.1,398.2,271.3,401.4,266.3z"/>
	<path class="st22" d="M363,792.7c20.3-8.7,25.3-26.4,26.8-46c11.6,4.5,15.2,15.4,19.2,25.5c3.5,8.7-0.3,17.1-8.5,18.8
		C388.4,793.4,375.8,799.5,363,792.7z"/>
	<path class="st60" d="M386.2,105.9c5.4,1.1,10.7,2.1,16.1,3.2c5.7-0.4,6,2.6,4.3,6.9c-1.4,10.2-2,20.6-4.2,30.6
		c-4.3,19.4-18,30.6-39.1,33c11.6-8.6-4.3-9.2-4.2-14.4c13.3-9.3,30.3-15.4,29.3-36.4C388,121.1,383.3,113.8,386.2,105.9z"/>
	<path class="st61" d="M303.5,278.2c5.9,0.2,9.5-3.4,12.6-7.7c2.4-0.9,3.7,0,4.2,2.4c1.3,1.6,2,3.5,2,5.6
		c4.2,15.8,4.3,31.5-2.4,46.7c-3,6.9-5.4,14.6-14.9,15.2c-6.8,2.3-12,9.3-20.3,6.9c-3.7-3.7-7.3-7.4-11-11.1
		C303.4,327,305.1,303.4,303.5,278.2z"/>
	<path class="st60" d="M253.3,215c4.2,0,8.4,0.1,12.6,0.1c8.5,34.3-0.7,59-26.3,69.7c-2.7,1.1-6.1,0.4-9.2,0.5
		c-1.4-3.8-2.7-7.7-4.1-11.5C248.6,260.3,255.1,239.6,253.3,215z"/>
	<path class="st37" d="M542.5,179.9c14.5,15.8,25.6,33.6,31.5,54.5c-17.7-5.6-24.5-22.2-35.2-35c-7.3-13.9-27.2-17.9-28.4-38.2
		C522.9,164.9,532.3,173.2,542.5,179.9z"/>
	<path class="st62" d="M543,507.7c3.5,2.5,7.1,4.9,10.5,7.5c9.4,6.9,5.8,10.7-3.3,13.2c-17.8-6.1-35.9-11.4-50.5-24
		c0-6.8,0.2-13.6,8.2-16.4C519.7,494.6,531.4,501.1,543,507.7z"/>
	<path class="st63" d="M352.3,699.8c-3.5,10.1-2.5,21.5-8.4,31c-4.5,3.3-8.7,7.5-15,7.4c5.6-46.3,24.2-63.8,61.3-58
		c-3,11.3-16,10.3-22,17.8C363.2,700.3,358,702.6,352.3,699.8z"/>
	<path class="st9" d="M472.6,151.8c1-0.1,2.1-0.1,3.1,0.1c8.9,17.6,24.7,32.7,20.3,55.2c0,0,0.1-0.1,0.1-0.1
		c-9.7-16.3-22.1-30-39-39.1c-12.5-6.7-6.8-17.9-7.2-27.6C462.1,135,464.9,148.3,472.6,151.8z"/>
	<path class="st64" d="M405.1,396.7c19.5-5.4,36.1-10.4,51.2-19.2c3.9-2.3,8.4-4.8,12.3-0.3c4.4,5-0.6,8.1-3.3,11.4
		C451.2,406.5,431.6,409.9,405.1,396.7z"/>
	<path class="st65" d="M573.3,288.4c-17.5-0.7-30.3-12.5-45.2-19.3c0.7-6,1.3-12.1,2-18.1c19.6-2.5,33,7.3,43.8,22.2
		C575.9,278.3,574.3,283.3,573.3,288.4z"/>
	<path class="st34" d="M656.3,340.3c-4,9.9-13.4,11.7-22,13.4c-16,3.3-21.8-4.2-16.4-19.4c1.7-4.8,2.8-9.9,4.1-14.8
		C638.1,318.8,650,325,656.3,340.3z"/>
	<path class="st52" d="M538.8,199.4c14.8,8.5,23,23.7,35.2,35c6.1,5.1,3.2,13.3,9.5,23.4c-9.6-6.8-15.4-11-21.2-15.1
		C538.9,236.7,538.9,218.1,538.8,199.4z"/>
	<path class="st66" d="M625.3,445.5c-23.8,20.2-52.8,25.1-82.5,27.6c-13.8,6.6-25.2-8.5-38.7-4.5c-3.1-1.8-6.1-3.6-9.2-5.4
		c2.9-1.7,5.9-3.5,8.8-5.2c18.5-0.4,36,7.1,54.6,6.2c23.1-1.5,43.5-10.9,63.1-22.3C622.7,443.2,624,444.3,625.3,445.5z"/>
	<path class="st67" d="M168,640.6c17.3-0.1,30.4-12.6,46.7-15.6c3.4,7.4,4.3,15.2,3.9,23.3c-5.4,10.5-16,4.5-23.7,7.5
		C185,652.3,174.6,649.9,168,640.6z"/>
	<path class="st38" d="M366.9,694.7c5-9.3,16.2-8.7,23.4-14.4c14.1-0.4,25.6,5.1,35.3,15c1.6,9.2-2,13.3-11.4,11.8
		c-11,1-20.2-6.7-31.1-6.4C377.9,698.2,370.8,700.9,366.9,694.7z"/>
	<path class="st62" d="M656.3,340.3c-10-9.3-21.9-15.5-34.3-20.7c1-7.6,2-15.1,3-22.7c14.1-2.2,20.4,12.5,32.3,14.8
		C662,321.4,666.7,331.1,656.3,340.3z"/>
	<path class="st68" d="M813.1,215c-12.6,7.6-10.1-4.9-11.6-9.6c-2.4-7.8,1.4-13.4,9.5-15.9c14.5-4.4,27.6,1.1,40.8,5.4
		c2.4,2.8,7,4.9,2.8,9.6C840.3,206,825.5,205.9,813.1,215z"/>
	<path class="st34" d="M621.5,407c-15.6,18.9-32.3,8.9-51.5,1.9c7-8.2,13.1-15.4,19.2-22.5C602.4,389.6,614.2,394.7,621.5,407z"/>
	<path class="st69" d="M765.4,527.6c5.2-1.1,11.4,1.7,15.5-3.8c22,0.4,41.1-5.8,55-23.9C847.7,510,847.4,517,832,524
		C809.9,534.1,788,533.5,765.4,527.6z"/>
	<path class="st70" d="M116.3,641.3c14.4,13.8,30.2,24.9,51.1,26c13-0.9,25.5,2,38.2,4.1c6.7,1.1,14.3,2.3,20.4-3.1
		c2.9,2.6,5.8,5.1,8.6,7.7c-24.8,9.1-49.6,3.2-74.4-0.2c-19.6-6.2-36.7-16.2-50.1-32c0.2-2.3,0.4-4.6,0.6-6.8
		C112.5,638.4,114.4,639.8,116.3,641.3z"/>
	<path class="st71" d="M531.2,367.2c-13.6-4.9-25.7-12.1-35.2-23.4c3.6-4.2,7.2-8.4,10.8-12.7c10.5-0.2,18,9.7,28.7,8.6
		C542.6,350.2,535,358.4,531.2,367.2z"/>
	<path class="st72" d="M679.6,230.7c-14,8-25.5-8.4-39.2-3.9c-12-5.8-27.7-4.4-40.8-20.1C631,210.8,656.7,215.7,679.6,230.7z"/>
	<path class="st73" d="M523.3,625.6c1.5,3.8,2.6,8.3-3.8,6.4c-8-2.4-16-2.7-24.1-2.5c-10.3-3.6-20.8-7-31-10.9
		c-3.6-1.4-11.2-0.3-9.1-7c1.6-5.3,7.3-6.3,13.2-4.1c12.7,4.8,26,8.3,38.2,14C512.3,624.2,517.7,624.4,523.3,625.6z"/>
	<path class="st45" d="M254,577.9c-13.9,9.2-21,21.8-19.9,38.9c0.5,8.4-1.8,16.5-6.7,23.6c-1.3-10.7-3.1-21.4-4-32.1
		C221.2,579.9,225.3,576,254,577.9z"/>
	<path class="st74" d="M771.4,791.5c-7.7-2.8-21.7-0.4-21-11.1c0.6-8.5,10.5-19.5,21-19.2c10.1,0.3,12,12.5,13.5,20.8
		C786.4,791,778.1,791.1,771.4,791.5z"/>
	<path class="st62" d="M621.5,407c-10.4-7.3-23.3-10.8-32.2-20.6c3.9-5.2,7.8-10.5,11.7-15.7c9.8,4.7,18.5,11.4,28.7,15.5
		C633.9,395.9,627.9,401.5,621.5,407z"/>
	<path class="st1" d="M706.8,781.6c-22,14.9-15.6,37.5-15.6,58.2c-15.6-22.6-14.4-41.8,2.2-60.2
		C700.1,772.1,703.4,773.8,706.8,781.6z"/>
	<path class="st75" d="M484.8,235c-11.5-4.7-24.1-8.3-24.5-24.2c-3.8-4.1-3.5-8.6-1.8-13.4c5.6-6.9,9.8-1,14.2,1.8
		c4,2.6,6,8.3,12.1,7.7C491.2,216.2,488.4,225.6,484.8,235z"/>
	<path class="st76" d="M813.1,215c10.5-16.4,27.1-11.6,42.2-12.1c21.2,0,40,12.2,47.7,31c-2.1,0.3-4.1,0.5-6.2,0.8
		c-9.9-6.5-18-16.1-30.2-19c-17.5-10.3-34.1-9.4-50,3.5C815.4,217.8,814.3,216.4,813.1,215z"/>
	<path class="st77" d="M511.7,695.1c12.8,9.7,30,5.4,44.7,13.9c-21.6,10.4-41.3,3.1-61.1-2.3C500.8,702.8,506.2,699,511.7,695.1z"/>
	<path class="st78" d="M573.8,273.1c-13.9-8.8-27.8-17.6-43.8-22.2c2.6-13.1,2.6-13.2,11.3-10.5c5.5,1.7,10.9,4.1,16.3,6.1
		C564.1,254.7,576.8,259.2,573.8,273.1z"/>
	<path class="st68" d="M813.5,233.4c-8.2,4.6-7.7,16.4-15,15.8c-8.7-0.8-14.1-8.6-13.2-18.5c0.6-6.5,3-15.7,9.5-14
		C801.7,218.6,806.8,227,813.5,233.4z"/>
	<path class="st56" d="M413.1,136.4c0.2-5.1,0.3-10.2,0.5-15.2c10.3-7.7,12.7,8.1,20.8,7.1c6.2,6.8,6.6,15.3,6.6,23.9
		C425.8,159.3,416.8,154.3,413.1,136.4z"/>
	<path class="st79" d="M301.8,241.3c3.4,5.7,6.5,13.1-0.2,16.7c-4.9,2.7-12.7,1.4-18.8,0.2c-8.1-1.5-5.7-8.7-5.7-14.2
		c0-5.8-0.1-11.6-0.2-17.4C290.1,223.3,291.8,239.4,301.8,241.3z"/>
	<path class="st80" d="M452.4,319.6c-8.5-5.3-17-10.5-25.6-15.8c-5.7-3.3-4.9-8.3-3.7-13.5c16.4-14.9,21.2,3.9,30.2,10.4
		C458.3,307.3,454.2,313.4,452.4,319.6z"/>
	<path class="st81" d="M433.4,417.5c-11.9,1.8-23.4-0.9-35-2.7c-9.4-4.6-21.3-4.4-30-14.4c13.3-3.2,23.8-3,34.3,4.2
		c9,6.2,19.5,10.2,31,9.2C433.7,415.1,433.6,416.3,433.4,417.5z"/>
	<path class="st82" d="M449.3,273.4c14.2,2.4,27.5,9.5,42.4,7.9c6,8,1.4,13.6-4.3,18.9c-9-3.4-16.6-10.5-26.8-11
		C456.9,284,453.1,278.7,449.3,273.4z"/>
	<path class="st83" d="M226,668.3c0.3,7.8-5.3,7.2-10.4,7.3c-16.5,0.1-32.7-1.8-48.2-8.2c4.2-2.5,8.5-4.9,12.7-7.4
		C195.2,663.9,210,669.1,226,668.3z"/>
	<path class="st84" d="M902.9,233.9c-12.9-14.9-28.5-25.8-47.7-31c-1.1-2.7-2.3-5.3-3.4-8c15.2,3,29.8,8.2,42.2,17.5
		C900.6,217.3,909.8,222.7,902.9,233.9z"/>
	<path class="st85" d="M484.7,206.9c-1.1,3.6-1.8,7.7-6.9,3c-5.5-5-11.4-9.6-17.2-14.4c-6.1-2.2-8.6-7.7-11.3-12.8
		c-0.4-1.6-0.4-3.3-0.1-4.9c-1.3-1.8-2.6-3.6-3.9-5.3C464,177.6,476.2,190.2,484.7,206.9z"/>
	<path class="st86" d="M687.8,520.1c-0.2,8.1-5,14-7.5,12.1c-7.9-5.9-14.9-13.5-20.4-21.6c-2.3-3.4,4.6-6.8,7.5-6
		C677,507.1,682.2,515.4,687.8,520.1z"/>
	<path class="st87" d="M453.4,300.8c-10.5-0.3-14-15.7-26.3-12.2c-8.3-4.5-3.6-14.8-9.3-20.5l0.9-0.9c0,0-0.8-1-0.8-1
		C439.8,267.5,447.8,282.9,453.4,300.8z"/>
	<path class="st81" d="M472.6,151.8c-11.1,3.1-12.9-12.1-22.7-11.5c-2.6-5-5.2-10.1-8.4-16.2c9.8-0.3,16.7,3.4,23.4,8.1
		C467.4,138.8,470,145.3,472.6,151.8z"/>
	<path class="st88" d="M413.1,136.4c5.7,11.6,13.9,18.8,27.9,15.7c-7.3,15.5-22.2,5.7-35.1,13C408.9,153.3,411,144.8,413.1,136.4z"
		/>
	<path class="st89" d="M726.3,717.7c2.3,19-17.2,28.7-19.6,45.8c-7.7-4.5-9-10.2-3.7-17.6C710.1,735.9,716.8,725.7,726.3,717.7z"/>
	<path class="st90" d="M332.7,163.7c-5.1,14.3-10.9,0-16.3,0.3c-2.9-11.5,0.2-22.7,2-33.9c4.9-4.5,7.5-0.8,10,2.9
		C329.9,143.3,331.3,153.5,332.7,163.7z"/>
	<path class="st91" d="M657.3,311.7c-15.7,5.8-20.8-11.5-32.3-14.8c0.2-4.8-6.1-16.4,7.5-7.8C642,295.1,652.3,300.6,657.3,311.7z"/>
	<path class="st92" d="M445.2,464.7c-19.3,10.6-20.9-2.2-21.8-17.3c6.4-2.8,11.9,1.8,17.7,2.5C448.7,453.1,450.1,458.1,445.2,464.7z
		"/>
	<path class="st46" d="M682.9,575.5c0-9.3-0.8-15.8,0.3-21.9c0.8-4.7-8.7-12.4,2-13.6c7.5-0.8,9.4,7.5,10.3,14
		C696.9,563.3,692.3,569.5,682.9,575.5z"/>
	<path class="st93" d="M301.8,241.3c-13,3.2-14.9-12.6-24.8-14.7c-2.5-3.9-5-7.8-7.5-11.8c0.2-1.8,0.4-3.6,0.6-5.5
		C284.1,216.7,295.7,226.3,301.8,241.3z"/>
	<path class="st6" d="M585.4,491.7c4.2,1.4,8,2.7,0.9,6c-10.4,4.8-21.6,1.2-32.3,3c-3.9-1.3-8.6-0.1-11.5-4.1
		c-0.3-2.5-1.1-5.1,0.2-7.6C556.8,492.9,571.2,491.8,585.4,491.7z"/>
	<path class="st94" d="M773.4,257.9c-10.3,7.3-19.3,16.7-31.9,20.4C740.9,261.6,754.1,253.2,773.4,257.9z"/>
	<path class="st95" d="M422.1,375.6c1.4,1.3,2.9,2.7,4.3,4c-22.5,10.3-46.2,12.8-70.6,10.2c1.3-1.1,2.7-2.2,4-3.3
		C380.6,382.6,401.1,377.9,422.1,375.6z"/>
	<path class="st96" d="M558.3,464.3c-18.7,2.4-36.7-0.9-54.6-6.2c-4.7-2.2-9.5-4.5-14.2-6.7c0.5-1.7,1.1-3.4,1.6-5.1
		c21.9,8.3,43.8,17,67.4,14.8C558.5,462.1,558.5,463.2,558.3,464.3z"/>
	<path class="st97" d="M445.5,476.8c-5.7,5.7-15.4,8.2-15.4,18.6c-1.4,7.1,7.9,11.5,4.8,19c-0.7,0.7-1.4,1.4-2.1,2.1
		c-14.1-16.5-8.7,6.7-14.5,7.1C418.6,490.6,424.1,481.2,445.5,476.8z"/>
	<path class="st98" d="M434.4,128.2c-9.8,6-12.1-10-20.8-7.1c-2.3-1.7-4.6-3.4-7-5.2c1.2-4-1.4-5.5-4.3-6.9c-0.8-2.8-3.9-6,1.1-8
		C416.8,106.6,426.8,116.1,434.4,128.2z"/>
	<path class="st99" d="M535.5,339.7c-1.2,3-0.4,8.7-6.5,5.1c-7.5-4.4-16.2-6.9-22.2-13.7c1.3-7.4,5-9.8,11.8-5.4
		C524.7,329.8,532.3,332.1,535.5,339.7z"/>
	<path class="st63" d="M629.6,386.2c-13.8,2.7-22.4-4.2-28.6-15.5C617.8,362.6,623.9,373.9,629.6,386.2z"/>
	<path class="st100" d="M812.5,281.2c-6.9-6.2-15.6-10.8-19.7-19.9c14.3,6.7,28.6,13.4,42.9,20.1C828,287.6,820.3,278.3,812.5,281.2
		z"/>
	<path class="st65" d="M344.4,308.2c-1,18.8-9.5,7.1-16,4c-5.7-5.3-4.5-11.6-2.4-18c9.2-7.5,13.1-0.5,17.1,6.3
		C343.6,303,344,305.6,344.4,308.2z"/>
	<path class="st101" d="M445.2,464.7c1.4-5.7-1.5-10.2-4.1-14.8c10,1.2,20.4,0.8,32.6,10.3C461.9,462.1,453.6,463.4,445.2,464.7z"/>
	<path class="st102" d="M343.2,300.5c-4.8-2.6-9.6-5.2-14.4-7.9c-7.4-2.4-8.5-8.4-8.9-15c0.1-1.6,0.3-3.2,0.4-4.8
		C330.2,280.1,346.1,282.5,343.2,300.5z"/>
	<path class="st103" d="M504.1,468.7c13.9-6.8,25.7,4.1,38.7,4.5c2.6,2.4,5.2,4.7,7.8,7.1C533.6,482.3,519.6,472.6,504.1,468.7z"/>
	<path class="st104" d="M542.8,488.9c0.7,2.5,4.3,5.2-0.2,7.6c-10.7-2.5-20.1-7.5-31.3-16.2C524.2,482.1,533.9,484,542.8,488.9z"/>
	<path class="st105" d="M638.8,280.5c-9-2.3-17.5-4.6-17.6-15.3c0-3.1,2-4.7,4.9-4.1C637.4,263.5,635.6,273.4,638.8,280.5z"/>
	<path class="st106" d="M718.6,534.3c12.5-7.7,20.9,1.5,30.4,2C731.8,539.8,731.8,539.8,718.6,534.3z"/>
	<path class="st107" d="M709.9,549.5c-4.4-5.1-9.2-10-13.3-15.4c-3.4-4.4,0.6-7.5,3.6-9.3c4.8-3,7.7-0.1,6.7,4.7
		C705.3,536.8,714.4,542.1,709.9,549.5z"/>
	<path class="st108" d="M194.9,655.8c7.9-2.5,15.8-5,23.7-7.5c3.6,6.6,5,12.6-5.6,11.8C206.8,659.6,200.9,657.2,194.9,655.8z"/>
	<path class="st109" d="M522.5,194.7c10.5,7.7,12.6,17.1,7.9,31.8C527.1,213.3,524.8,204,522.5,194.7z"/>
	<path class="st110" d="M508,488c-4.2,4.7-1.9,12.7-8.2,16.4c-3.3-3.3-10.7-5.7-6.9-11.1C495.5,489.6,500.2,481.6,508,488z"/>
	<path class="st111" d="M402.6,422c9,1.3,18,2.5,27.1,3.8c-0.5,3.5,8.6,3.4,3.3,8.7C422.2,431.8,411.4,429.5,402.6,422z"/>
	<path class="st112" d="M328.5,133c-2.8-1.3-5.6-2.7-8.4-4c-9-1.6-6.8-9.7-9-15.3c1.9-0.3,3.8-0.6,5.7-0.9
		C322.9,118.3,335.6,119.9,328.5,133z"/>
	<path class="st113" d="M546.2,161.3c-3,3.7-7.3,2.3-11.1,2.8c-7.3-3.2-14.5-6.5-23.7-10.6C525.9,150.8,536,156.1,546.2,161.3z"/>
	<path class="st114" d="M795.1,540.6c8.4-2,15.1-2.8,24.5,0.3C810.3,549.6,803.5,547.5,795.1,540.6z"/>
	<path class="st115" d="M873.4,409.2c-6.5-26-0.8-55.1-26.4-76.4C870.3,340.4,887.2,393.1,873.4,409.2z"/>
	<path class="st116" d="M277.8,780.7c1.1-1.4,2.2-2.7,3.3-4.1c18.9,23.7,42.3,41.3,70.2,53.3c4,1.7,7.4,0.6,11.1,1
		c30.9,2.7,61.7,4,91.2-8.7c-28,23.3-61.2,17.9-93.5,17.2C324.6,831.2,298,810.4,277.8,780.7z"/>
	<path class="st117" d="M758.3,328.5c16,9.6,3.6,22.8,2.8,33.4c-2.1,28.9-12.7,55.5-32.7,77c-4.5,4.9-10.4,15.5-20.8,6.9
		C718,443,723.3,434.4,728,426C745.2,395.8,758,364,758.3,328.5z"/>
	<path class="st118" d="M760.9,825c-17.2-10.1-40.3-10.7-51-31.3c0.4-0.5,1.1-1.5,1.2-1.4c37,23.7,77.3,31.3,120.9,24.8
		C809.1,830,784.4,821.8,760.9,825z"/>
	<path d="M500.3,717.2c28.7,2.3,57,5.7,85.7,2.4C556.8,733,528.4,723.2,500.3,717.2z"/>
	<path class="st119" d="M422.1,375.6c-20.5,5.1-40.5,13.2-62.3,10.9c4.7-6.7,11.9-6.8,19-7.5c51.8-4.7,90.9-27.1,108.6-78.8
		c2.1-6.2,6-11.9,4.3-18.9c10.6-24.2,15.8-48.7,4.3-74.2c-0.5-20.7-15.2-36.2-20.3-55.2c27.4,32.2,38.3,68.7,29.1,110.7
		C493.8,312.6,474.9,356.4,422.1,375.6z"/>
	<path class="st120" d="M434.9,514.4c-1.4-6.4-9.7-11-4.8-19c18.5,25.4,45.1,38.2,73.8,47.9c15.2,10.7,33.5,11.2,50.7,15.1
		c35.2,10,70.5,6.6,105.7,0c-2.6,2.6-5.3,5.3-8,7.9c-35.2,12.9-70.4,4-105.6,0.1C505.4,557.9,466.3,544.4,434.9,514.4z"/>
	<path class="st121" d="M383.4,698.6c11.3-0.8,21.5,2.3,30.8,8.5c23.6,18.5,29.1,37.1,16.4,61.4c1.6-20.4,0.9-38-15.8-49.9
		c-10.5-11.7-24.6-14.8-39.3-16.2C375.2,694.9,379.8,697.8,383.4,698.6z"/>
	<path class="st122" d="M319.9,277.6c3,5,5.9,10,8.9,15c-0.1,6.5-0.2,13.1-0.3,19.6c-2.4,10.6-5.2,20.9-14.4,28.1
		c-3.1,2.4-6.1,5-9.1,0c15.1-14.1,16.6-32.1,14.8-51.2C319.5,285.4,313.5,281.2,319.9,277.6z"/>
	<path class="st123" d="M383.4,698.6c-2.6,1.3-5.2,2.5-7.9,3.8c-7.7-0.9-16.1,4.3-23.2-2.6c4.9-1.7,9.7-3.4,14.6-5.1
		C372.5,695.8,378.7,693.9,383.4,698.6z"/>
	<path class="st124" d="M417.8,268.1c7.5,4.9,8.4,12.7,9.3,20.5c-0.1,5.1-0.2,10.1-0.2,15.2c-5.8,13.1-7.9,29.8-28.2,28.6
		C422.8,316.2,418.8,291.7,417.8,268.1z"/>
	<path class="st125" d="M409.9,239c-15.5-9.5-20.3-25-12-43c7-15.1,18.3-23.4,35.9-16.4c13.4,13.8,16,25,7,41
		C434.4,232.1,427.4,245.1,409.9,239z"/>
	<path class="st126" d="M409.9,239c30-8.6,38.4-29.4,23.9-59.4c5.2,0.1,11,4.8,15.4-1.9c0,0,0.6,1.1,0.6,1.1l-0.7,1.1
		c14,28.7,6.2,55.8-19.3,66.4c-2.9,0.8-5.9,1.7-8.8,2.5C417.3,245.6,413.6,242.3,409.9,239z"/>
	<path class="st127" d="M253.3,215c9.9,33.6,2.9,48.9-27.1,58.8c-15.7-11.8-20.4-29.8-10.1-46.7C224.6,213.3,236.8,206.2,253.3,215z
		"/>
	<path class="st128" d="M386.2,105.9c16.2,31.9,5.4,55.5-27.1,59.3c-16.6-11.9-13.8-27.9-7.7-43.2
		C357.5,106.7,370.2,101.9,386.2,105.9z"/>
	<path class="st128" d="M401.4,266.3c14.7,34.2,2.3,58.1-30.1,58c-14-13.6-12-29.5-4.5-44.6C373.6,265.8,386.3,261.6,401.4,266.3z"
		/>
	<path class="st128" d="M303.5,278.2c13.2,34.5,1.6,56.9-29.9,57.8c-16-13.6-13.2-30.2-5-45.7C275.7,276.8,288.4,272.5,303.5,278.2z
		"/>
	<path class="st127" d="M296.6,117.2c9.2,33.6,2.7,47.6-27.2,58.4c-16-12-20.7-30.3-10.3-47.1C267.7,114.5,280,107.4,296.6,117.2z"
		/>
	<path class="st129" d="M429.9,246.4c24.8-16.8,23.7-41.2,19.3-66.4c8.4,1.8,6.9,10.9,11.5,15.5c-0.1,5.1-0.3,10.2-0.4,15.3
		c-5,9.3-2.3,21.7-11.5,29.1C443.3,244.3,438.8,252.1,429.9,246.4z"/>
	<path class="st130" d="M311.1,113.7c3,5.1,6,10.2,9,15.3c2.2,12-0.9,23.5-3.6,35c-6.7,6.8-9.2,19.8-23.3,15.9
		c17.6-14.1,20.7-33,17.7-53.8C310.3,122,306.6,117.8,311.1,113.7z"/>
</g>
</svg>
