<?xml version="1.0" encoding="utf-8"?>
<!-- Generator: Adobe Illustrator 23.0.1, SVG Export Plug-In . SVG Version: 6.00 Build 0)  -->
<svg version="1.1" id="Layer_4" xmlns="http://www.w3.org/2000/svg" xmlns:xlink="http://www.w3.org/1999/xlink" x="0px" y="0px"
	 viewBox="0 0 1000 1000" style="enable-background:new 0 0 1000 1000;" xml:space="preserve">
<style type="text/css">
	.st0{fill:#4F2600;}
	.st1{fill:#FBFBEC;}
	.st2{fill:#FEFE00;}
	.st3{fill:#FE0000;}
	.st4{fill:#FBFBED;}
	.st5{fill:#623100;}
	.st6{fill:#36B20D;}
	.st7{fill:#964B00;}
	.st8{fill:#A46C04;}
	.st9{fill:#D79018;}
	.st10{fill:#A46B04;}
	.st11{fill:#36B30D;}
	.st12{fill:#A36C04;}
	.st13{fill:#A16A04;}
	.st14{fill:#A36B04;}
	.st15{fill:#E3970B;}
	.st16{fill:#29880A;}
	.st17{fill:#55ED22;}
	.st18{fill:#FDFEFD;}
	.st19{fill:#FCFDFB;}
	.st20{fill:#E2960A;}
	.st21{fill:#D79117;}
	.st22{fill:#FDFC00;}
	.st23{fill:#FD0301;}
	.st24{fill:#E5980B;}
	.st25{fill:#E4980B;}
</style>
<g>
	<path d="M773.7,374.8c26.4,20,42.6,51.1,72.6,67.4c20.4,11.1,40.3,23.1,60.6,34.5c8,4.5,11.3,10.6,11.4,20.2
		c0.6,54.5-0.1,108.8-15.7,161.8c-10.9,36.9-27.2,71.4-47.2,104.1c-41.8,68.4-99,120-172,153.3c-49.8,22.8-101.4,37.6-157.2,37.4
		c-58.3-0.1-115.8-1.6-171.3-23.4c-45.6-17.9-87.4-41.3-124.8-72.9c-61-51.6-101.4-116.8-125.6-192.2c-8.9-27.7-13.6-56.4-15.1-85.8
		c-1-20.5-4-40.9-3.7-61.5c0.2-9.2,1.9-14.7,11.3-19.3c61.2-30.1,104.3-76.8,127.2-141.7c4-11.5,11.7-21.7,17.7-32.5
		c8.4,12.3,8.9,25.9,6,39.9c-24.3,63.3-62.7,114.8-123.4,147.7c-11.6,6.3-13.9,15.6-14.1,27.5c-0.8,54.9,11.7,106.9,32.5,157.2
		c4.2,9.1,7.9,18.5,12.3,27.6c3,5.3,6,10.7,9,16c4.4,7.5,9.5,14.6,14.6,21.7c23,34.4,49.9,64.9,84.2,88.6
		c75.2,57.3,160.6,83.7,254.5,81.7c37-0.8,73.4-8.2,108.6-20.4c8.1-2.4,16.4-4.6,24.2-7.8c5.8-2.2,11.4-5,17.1-7.6
		c4.1-1.6,8.3-2.9,12.2-4.7c18.2-9.1,34.5-21.4,51.9-31.7c25.3-20.4,50.5-40.9,70.4-67c3.7-5,8.3-9.2,12.1-14.2
		c14.3-19.2,28.5-38.5,37.8-60.9c4.5-8.8,10.2-17,11.9-27c4.1-9.3,8.7-18.4,11.9-28.2c4.1-12.9,7.3-25.9,9.6-39.2
		c8-33.8,8.1-68.1,8.4-102.5c0.2-17.6-6.2-27.4-21.9-34.4c-43.1-19.1-78.4-48-104.4-87.6C765.9,389.6,766.9,381.4,773.7,374.8z"/>
	<path class="st0" d="M242.9,363.4c5.9-13.3-3.8-26.2-1-39.4c7.3-13.4,17.8-8,25.8-2.6c40.1,27.1,83.2,48.2,127.3,67.6
		c2.1,0.9,4.8,0.7,7.2,1c18.8,5.7,24.7,13.2,23.3,29.3c-7.8,4.4-15.3,0.9-22.5-1.6c-43.6-15.2-87.3-30.2-124.5-59
		c-3.4-2.7-6.9-6.2-13.3-5.4c2.4,21.1,11.3,39.7,22.6,56.8c48.3,73,118.2,109.1,204.1,116c56.4,4.5,109.8-6.8,160.1-33.3
		c14.5-7.6,27.1-17.5,40.6-27.1c-68.8-2.6-137.3-4.1-203.8-22.6c-7.5-2.1-15.3-3.9-18.7-12.4c-0.5-10.1,2.9-16.9,14.3-17.1
		c36,10,72.5,16,109.6,20.8c31.7,4.1,63.3,0.5,94.6,3.7c26.7,2.7,42.2-9.9,53.4-31.4c4.4-8.3,7.3-17.6,12.6-25.2
		c4-5.8,8.7-16.2,19-6.5c-1.3,7.7-2.6,15.4-3.9,23c-4,23.3-19.8,40-33,58c-9.5,12.8-22,23.9-22.6,41.5c-2.8,10.7,3.8,15.2,12.1,19
		c12.3,5.8,25.5,9.7,37.1,17c3,1.9,7.2,4.3,5.2,9.1c-1.5,3.4-5.5,4.1-8.4,3.2c-25-7.9-52.7-7.5-74.9-24.1
		c-2.5-4.7-1.8-10.1-3.5-17.1c-70.8,43.4-146.1,57.7-231.5,40.1c8.7,6.2,7.9,10.9,5.1,15.5c-7.3,11.5-15.2,22.7-24.6,32.6
		c-3.1,3.2-7.4,7.2-11.8,4.5c-5.7-3.6-2.3-9.3-0.4-14c1.2-3,3.1-5.7,4.7-8.5c1.3-2.2,3.5-6.5,2.6-6.9c-18.4-7.7-6.8-36.7-34-41.7
		c-29.8-5.5-54.8-25.9-77.6-46.7c-8.2-7.4-16.4-9.9-26.5-4.6c-1.7,0.9-3.5,1.8-5.3,2.4c-7.7,2.5-17.7,10.2-23.1,2.5
		c-5.6-8,6.2-12.5,11.5-17.2c11.1-9.9,10.4-19.4,2.2-30.6C258,411.4,245.4,389.6,242.9,363.4z"/>
	<path class="st1" d="M484.5,413.4c-7,3.6-10.6,9.7-12.7,17c0,11.6-5.5,22-8,33c-2.5,5.5-2.3,14.4-10.2,14.2
		c-10.4-0.3-8.2-11-11.2-17.4c-3.3-14.5-12.8-26.9-14.5-41.9c-6.1-11.7-15.5-20.4-25.7-28.4c-21.6-18.8-45.9-33.3-76.4-46.4
		c33.9-10.8,61.2-25.4,81.7-51.8c19.7-25.3,35.6-51.8,45-84.7c18.4,64.5,55.9,111,121.5,138.3C536.4,363.6,507.2,384.5,484.5,413.4z
		"/>
	<path class="st1" d="M722.6,153.3c-41.6,11.9-67.9,31.9-72.5,73.6c-13.1-38.7-34.3-65.6-76.5-73.4c39.6-11.9,65.1-34.5,73.9-75.9
		C656.5,117.4,678.7,142.1,722.6,153.3z"/>
	<path class="st1" d="M237.5,263.9c-33.8,11-55.7,29.7-62.1,63.6c-0.6,3.2-2.4,6.7-6.4,5.5c-1.9-0.6-4.2-3.5-4.5-5.7
		c-4.5-34.5-26.9-51.5-58.2-60c-0.9-0.2-1.4-2-3.8-5.9c37.4-5.6,59.9-27,67.9-66.3C180.1,231.5,197.5,257.6,237.5,263.9z"/>
	<path class="st2" d="M257.8,145.7c0.2-18.9,15.6-35.9,32.6-36.3c16.9-0.4,33.8,17.1,33.8,35.1c0,19-16.7,35.5-35.7,35.2
		C269.5,179.4,257.6,166.2,257.8,145.7z"/>
	<path class="st3" d="M585.9,266.2c-0.4,13.9-22.7,35.3-36.2,34.6c-13.1-0.7-33.8-21.8-34.1-34.7c-0.3-13.7,21.4-35.6,35.2-35.6
		C564.6,230.5,586.3,252.5,585.9,266.2z"/>
	<path class="st4" d="M822.6,394.7c-13.1-27.3-24.1-48.8-51.4-55.2c25.5-5.5,37.3-24,48.1-49.1c9.8,24.5,20.5,42.7,46.6,47.1
		C843.8,349,828.7,365.1,822.6,394.7z"/>
	<path class="st2" d="M451.5,140.6c-16.3,0.2-33.7-17.2-33.6-33.5c0.2-15.7,13.3-28.4,30-29c17.7-0.6,31.9,11.9,32.5,28.4
		C481.1,125.7,468.6,140.4,451.5,140.6z"/>
	<path class="st2" d="M693,312.5c15-0.2,30,15.9,29.6,31.7c-0.3,13.9-14.2,26.4-30,26.9c-16.7,0.5-31.7-11.7-32.4-26.4
		C659.5,330.5,677.6,312.7,693,312.5z"/>
	<path class="st3" d="M314.3,300.8c-14-0.1-33.2-17.3-33-29.6c0.2-15.7,15-29.2,31.7-29c18.9,0.2,28.7,11.1,30.4,31.7
		C344.6,287.7,329.1,300.9,314.3,300.8z"/>
	<path class="st2" d="M594.3,405.6c-2.9,11.1-8.6,19.9-20.3,19.8c-13.8-0.1-23-9.1-22.8-22.9c0.2-12.2,8.8-19.4,21.4-19.6
		C588,382.6,590,395.1,594.3,405.6z"/>
	<path class="st5" d="M855.3,718.6c-8.4,23.7-22.1,44.1-39.2,62.3c-7.5-13-15.3-26-33-24.9c-11.3,0.7-23,3.1-23.2,17.6
		c-0.1,13.4,11.1,15.6,21.5,17.5c7.9,1.5,16.5-5.3,23.8,2.4c-17.8,29.2-45.1,48.7-71.2,69.3c-30-2.9-54.1-21.6-81.8-30.6
		c-3.1-1-4.9-4.2-4.6-7.9c4.4-6.8,12.4-9.2,17.9-14.8c11.5-11.6,11.4-22.4-0.6-33.5c-19.3-18-74.5-18-93.4,0c-11.2,10.6-9.7,27,3,37
		c6.9,5.4,17.6,6.3,20.3,16.8c-29.7,17.8-62.1,28.3-95.9,34.4c-5.7,1-11.6,1.9-17.4,1.9c-19.7-9.2-39.8-10.8-60.2-2.3
		c-16.4-1-32.3-4.5-46.7-12.6c-27.9-15.8-56.7-17.3-86.5-6.1c-9.7,3.6-19.5,7.4-30.3,6.6c-33.4-24.4-62.2-53-82.2-89.6
		c39-15.4,71.1-45.6,113.2-54.2c38-7.8,72.2,2.4,102.6,25.8c43.4,33.3,80.9,36.2,127.4,8c65.9-40.1,133.2-48.2,204-13.4
		c36.1,17.7,72.1,10.6,107.4-4.4C838,720.3,845.4,712.8,855.3,718.6z"/>
	<path class="st6" d="M242.9,363.4c11.8,28,24.2,55.8,43.5,79.8c5.3,6.6,0.9,10.6-3.6,14.6c-7.6,6.7-15.3,13.4-23.2,20.3
		c1.4,0.9,2.3,1.6,2.5,1.5c30-20.4,53.4-10.5,77.2,13c17.6,17.4,42,25.7,64.9,34.8c22.3,8.9,22.5,8.5,11,28.1
		c2.3,4.5,6.7,2.5,10.3,3.1c3,0.5,6.1,0.8,9.4,1.2c-1.9,13.6-12.4,22.2-16.6,36.8c10.5-5.9,14.4-14.6,20.1-21.5
		c5.7-7,11.3-14.2,16.7-21c-3.1-7.2-10.9-4.5-14.8-8.6c-0.7-3.5,1.8-5.4,4-5.3c11.6,0.9,23.2,1.9,34.7,3.6
		c66.9,10.2,129.1-3.4,187.6-36.5c6.1-3.5,12.5-6.5,19.1-9.8c3.6,7.9,1.8,15,1.6,22c-10.7,16.6-29.6,20.4-45.7,27.9
		c-40.1,18.8-82.9,25.6-127.1,22c-8.5-0.7-15.1,1.3-21,7.4c-13.9,14.5-31.4,22.5-50.5,28c-26.1,7.5-51.9,16.2-76.8,36.1
		c27.8,11.6,50.1,28.5,75.8,38.8c13.7,5.5,27.9,2.6,41.7-3.1c25.3-10.3,48.9-24.4,75.4-31.9c13.8-3.9,27.7-7.1,42.1-6.9
		c8,3.4,19.7,2.1,19.6,15.6c-16.2,7-34.1,6.3-51,11.5c-27.6,8.4-52.7,22.1-78.7,33.7c-30.6,13.6-59.1,9.6-84.7-9.1
		c-38.6-28.3-80-42.3-127.9-33.7c-2.6,0.5-5.2-0.3-7.6-1.3c-6.2-6.4-3-13.4-0.9-20c8.5-26.7,36.7-50.8,64.7-55.8
		c-32.5-3-61.8-31.8-67.5-66.3c-2.5,32.1-32.3,61.7-67.8,67.5c-2.6,0,1.1,2.8,0,0.4c-0.3-0.7,0.2-1,1.7-0.9
		c36.4,3.4,69.4,43.5,64.6,78.5c-19,9.7-36.9,21.6-56.5,30.1c-22.3,9.6-45.2,15.8-69.8,11c-26.1-54.9-35-113.2-34.2-173.5
		c0.1-8.7,4.1-12.7,11.2-16C179.8,479.1,218.1,427.1,242.9,363.4z"/>
	<path class="st7" d="M480.5,863.2c39.2-6.4,76.1-20.2,112.9-34.7c17.9-10.2,36.7-7.2,55.5-4c22.7,10,45.4,20.2,68.2,29.9
		c5.8,2.5,12.6,2.8,16.9,8.3c-17.5,11.6-34.1,24.6-54.2,31.7c-10.4-16.1-25.5-20.6-43.6-18.2c-10.2,1.3-19.6,4.8-22.8,15.2
		c-3.3,10.5,6.2,14.3,13,19c1.6,1.1,2.9,2.5,3.7,4.3c-135.2,44.6-259.1,22.6-372.3-63.1c40.6-20.2,81.5-29.4,123.4-3.1
		c12.4,7.8,27.1,8.1,40.9,11.1c-0.7,31.5,11.7,42.4,39.4,36.7C481.8,892.3,477.5,876.2,480.5,863.2z"/>
	<path class="st8" d="M855.3,718.6c-25.8,9.9-50.4,22.4-79.1,24.7c-19.8,1.6-37.8-1.9-54.2-9.9c-69.9-34.3-136.3-27.6-201.1,12.9
		c-17.2,10.8-35.9,17.2-56.4,19.5c-28.6,3.2-51.7-7.2-73-24.9c-43.4-36.3-94.8-40.1-144.2-11.4c-22.9,13.3-44.8,28.8-72,32.4
		c-7.6-4.7-10.3-12.9-14.5-20.1c36.1-9.2,66.8-31.1,101.2-43.7c41-15,84.7-16.8,120.9,11.3c47.1,36.6,92.2,37.8,141.7,6.9
		c34.8-21.8,73.7-31.3,115.2-28.3c4.3,1.2,8,5.6,12.6,4.6c25.1-5.8,48.4,3.4,69.3,13.4c38.6,18.3,73.9,11.2,110.4-3.8
		c11.2-4.6,20.7-16.7,35.3-10.8C866.9,702.1,861.7,710.6,855.3,718.6z"/>
	<path class="st9" d="M640.5,691.5c-36.4,1.9-72.4,5.5-104.7,24.8c-4.5,2.7-9.6,4.3-13.9,7.1c-47.9,30.7-92.3,27.8-138.2-7.3
		c-40.1-30.7-86-27.4-131.1-8.5c-20.4,8.5-37.9,22.6-59,29.7c-10.6,3.5-21.2,6.1-32.5,4.7c-2.9-5.1-5.8-10.2-8.7-15.3
		c-4.3-8.2,1.6-11.3,7.5-11.8c33.1-2.8,59.5-21.8,87.9-35.9c31.4-15.5,64.2-20.3,98.7-12.4c14.3,3.3,26.8,9.9,38.9,17.7
		c10.9,7.1,22.9,12.5,33.6,19.8c25.4,17.4,50.6,12.9,76,1.5c17.2-7.7,34.1-16.2,51.3-23.8c29-12.9,59-20.2,90.8-19.6
		c8.9,2.8,10.9,10,11.9,18C648.1,685.4,648.7,691.8,640.5,691.5z"/>
	<path class="st10" d="M636.8,664.5c-10.4,7.6-22.7,2.6-34,4.7c-30.4,5.7-57.8,18.7-85.6,31.2c-13.6,6.1-27.2,12.2-41.1,17.7
		c-31.2,12.5-56.8-4.2-79-20.6c-58.2-43.1-115-35-172.3-0.9c-19.8,11.8-39.9,21.6-63.4,22.2c-5.4,0.1-8.5,2.4-9.2,7.8
		c-4.3-9.2-8.5-18.4-12.8-27.7c46.7-0.5,84.7-26.4,125.9-43.3c1.7-0.8,2.4-3.7,5-2.8c49.3-12.6,93.2-1.2,133.5,29
		c27.3,20.4,56.5,25.8,89,10.4c30.3-14.4,60-30.5,93.7-37.1c11.6-2.3,23.2-1.8,34.7-4C631.7,649.4,637.5,653.2,636.8,664.5z"/>
	<path class="st11" d="M710.3,495.7c-1-12.3,3.7-21.3,12.5-30.4c19.2-19.8,33.1-43.8,47-67.5c33.2,39.6,71.6,72.6,119.9,92.6
		c6.8,2.8,9.6,7.4,9.5,15c-0.2,40.1,1.3,80.2-9.4,119.5c-43.4,28.4-86,59.2-142.4,52.3c-24.5-3-48.4-7.8-68.3-23.8
		c0.9-12.1,10-11.8,18.6-12.1c53.8,22.8,103.2,14.3,151.4-17.5c16.9-11.2,31.4-19.7,30.2-42.4c-0.3-6.3,1.6-12.8,2.4-19.3
		c4.1-31.9-2.1-55.8-37-69c-22-8.3-40.2-26.1-56.8-43.8c-8.8-9.4-15.6-9.8-23,1.4c-10.8,16.4-24.7,30.2-39.4,43.1
		C721.8,497.1,716.8,506.6,710.3,495.7z"/>
	<path class="st9" d="M640.5,691.5c4.7-2.9,3.9-7.7,4.2-12.1c1.9-4.4,4.2,6.3,6.1-0.2c2.4-7.9,4.7-16,15-17c15.4,3,30.6,7,45,12.7
		c51.4,20.5,99.4,11.5,145.9-14.3c4.5-2.5,8.9-5.7,14.2-6.2c7.2-0.7,11.9,1.2,8.3,9.8c-2.2,9.8-5.8,19-11.6,27.2
		c-19.8,7.7-37.7,19.6-58.5,25c-29.5,7.7-57.1,8.9-86.8-4.5c-21.4-9.6-44.9-23.7-71.6-12.8C648.7,700.1,643.9,694.3,640.5,691.5z"/>
	<path class="st12" d="M879.2,664.4c-3.6-14.5-11.3-4.3-15.6-1.6c-33.5,21-69.9,32-109.1,28.3c-31.6-3-61.1-15.3-90.7-26.6
		c-0.7-10.1,3.8-14.4,13.9-12.4c22.9,6.8,44.6,17.4,68.9,20.1c42.1,4.6,77.5-11.7,111.5-33.2c9.9-6.2,19.4-13.2,31.6-14.2
		C886.7,638.1,885.8,652,879.2,664.4z"/>
	<path class="st13" d="M805.2,793.4c-12.7,0.2-25.2,6.4-38.1-0.4c-8.4-4.4-13.3-9.6-13.4-19.4c-0.1-9.7,4.4-15.7,13.1-19.5
		c24.5-10.8,47.5,1.5,49.4,26.8C812.4,785,808.8,789.2,805.2,793.4z"/>
	<path class="st14" d="M630,914.8c-13-1-23.6-6.9-23.8-20.4c-0.1-13.4,11.8-19.6,23.1-22.6c27.1-7.2,45.9,1.7,50.4,22.6
		c-2.9,3.7-6.9,4.5-11.3,4.6c-20.6-13-21-13-36.5-3.5c4.3,9,16.3,3.5,20.9,11C645.9,911.3,638.2,913.9,630,914.8z"/>
	<path class="st15" d="M652.8,906.6c-1.9-0.1-3.8-0.3-5.7-0.3c-8.3,0.1-16.9,1.4-22.5-6.9c-2.2-3.3-0.7-6.2,2-8.3
		c7.8-6.3,16-10,26.4-6.1c7.3,2.7,15,4.3,15.5,14.2C664,903.1,658.9,905.8,652.8,906.6z"/>
	<path class="st16" d="M710.3,495.7c20.1-4.8,29.9-22.4,41.5-36.3c23.9-28.7,22.4-29,49.4-4.3c20.1,18.3,41.8,35,67.3,45.4
		c14,5.7,18.5,15.1,18.6,30.2c0.1,23.4-3.2,46.5-4.4,69.7c-0.4,7.3-4,12.5-10,15.7c-23.5,12.3-46.8,25.1-70.9,36.2
		c-35.3,16.3-69.3,6.5-102.7-7.8c-17.9-3.1-33.5-9.9-42.9-26.7c-3.4-6.1-7-12.3-5.8-16.3c-0.6,9.4-6.6,20.2-16.1,28.6
		c-9.4,8.3-19.9,14.5-33.4,10.4c-43.2,5.2-81.1,25.4-120,42.7c-17.1,7.6-35,6.8-50.6-2.2c-24-13.9-47.8-28-75.6-39.7
		c28-21.9,58.4-33.8,89.9-42.7c19.3-5.4,36.5-12.9,48.2-29.8c4.5-6.5,10.7-6.9,17.2-5.9c46.9,7.3,91-3,133.6-21.7
		c14.8-6.5,29-14.5,43.5-21.8c24.6,13.4,53.1,12.8,79.6,20.3c-15.8-6.9-31.3-14.2-47.3-20.4C707.2,514.5,703.5,507.5,710.3,495.7z"
		/>
	<path class="st8" d="M459.8,460.2c2-10.7,5.4-20.9,12-29.8c28.1,14.9,59.6,17.3,89.9,21.7c38.3,5.5,77.4,6.2,116.1,8.5
		c8.2,0.5,16.5-1.4,24.8-2.3C661.6,512.5,541,551.5,434.3,522C330.1,493.2,260,406.1,259.1,339.3c51.8,38.6,107.4,65.4,168.8,79
		c8.5,11.9,15,24.5,17.6,39c-4.9,10-13.4,4.8-19.4,3.2c-13.5-3.6-27-7.9-39.3-15c-7.5-6.1-14.1-13.9-24.8-14.7
		c-24-1.6-41.4-17.8-60.5-27.6c13.8,19.3,28.6,38.9,48.7,53.8c4.7,3.3,9.2,6.9,13.9,10.2c50.3,30.4,105.1,43.2,163.4,43.1
		c5.2-0.1,10.4-0.1,15.6-0.1c41.6-2.2,81.1-13,120.3-29.9C622,487,581,484.7,540,482.1c-2.2,0.2-4.4,0.1-6.6-0.1
		c-18.5-2.6-37.3-3.5-55.5-7.8C470,472.3,460.7,471.4,459.8,460.2z"/>
	<path class="st9" d="M459.8,460.2c8.8,11,22.5,8.6,33.9,11.6c13.6,3.5,28,3.7,42,5.3c-7.8,11.6-13.9,23.6-7.3,38
		c-60.8,0.8-117.9-11.8-169.3-45.9c13.1-5.5,22.6-14.7,28-27.9c19.2,6.3,36.8,18.6,58.4,16.1c2.1,5.7,4.2,11.4,6.4,17.3
		C459.6,471.9,454.8,463.5,459.8,460.2z"/>
	<path class="st8" d="M648.8,824.5c-18.1,7.3-37,1.8-55.5,4c-1.1-0.6-2.2-1.3-3.4-1.9c-15.6-7.4-34-12-31.7-35.6
		c2.3-23.7,21.5-28.2,38.7-31.8c16.8-3.5,34.8-4.1,51.8,2c15,5.4,30.1,12.2,30.6,30.7C679.8,811.5,665.2,819.4,648.8,824.5z"/>
	<path class="st14" d="M327,820.3c-29.2-0.1-53.5-16.6-52.7-34c0.8-16.9,24.4-32,49.6-32.4c14.8-0.3,28.6,2.8,40.5,11.6
		c16.5,12.3,15.2,36-3,45.2C350,816.3,338.2,823.3,327,820.3z"/>
	<path class="st14" d="M480.5,863.2c5.1,11.9,8,23.8-4.5,32.9c-13.5,9.8-41.6,8.3-52.6-2.1c-11.6-11-10-22.5-1.5-34.3
		C442.1,849.6,461.8,848.3,480.5,863.2z"/>
	<path class="st17" d="M242.4,413.7c7.1,11,11.7,20.7,18.6,28.1c9.9,10.7,9.7,16.5-2.9,25.7c-47.9,35.2-80.6,81.9-98.5,138.6
		c-6.4,20.3-6.8,41.8-8.7,64.9c-11.7-7.2-9.7-18.8-12.7-27.6c-11.6-33.9-15.4-69.2-17.1-104.8c-0.4-7.7-0.9-15,8.9-19.2
		c47-20.2,80.6-55.3,106.7-98.4C238.1,419.1,239.7,417.3,242.4,413.7z"/>
	<path class="st18" d="M270.4,652.8c-1.7,0.9-3.4,1.9-5,2.8c-6-42.1-30-66.1-78.5-76.3c45.9-8.6,72.4-34.2,80.7-82
		c8.4,47.2,34.2,73.3,81.3,81.7C304.3,588,277.1,610,270.4,652.8z"/>
	<path class="st19" d="M601,640.6c27.8-4.2,42.6-21.9,49.9-48.8c3,30.4,26.6,40.7,48.3,52.7c-8.1-0.1-15.3,2.3-21.6,7.6
		c-6.1,2.4-10.9,6.4-13.9,12.4c-8.1,6.5-8.8,16.6-12.9,26.2c-2.3-4-4.2-7.6-6.2-11.2c-0.3-6.2-2.7-11.3-7.8-15
		c-3.3-6.7-8.8-10.8-15.6-13.3C616.1,644.5,605.9,647.6,601,640.6z"/>
	<path class="st20" d="M782.9,761.4c6.8,3.9,17.8,1.5,17.5,12.5c-0.3,9.4-9.9,9.8-16,10.2c-7.3,0.5-17.1-1.6-17.1-11.2
		C767.2,764.5,777.3,764.9,782.9,761.4z"/>
	<path class="st9" d="M538.3,477.1c44.4,2.9,88.8,2.2,133.6,0.2c-39.1,26-83.2,34.7-128.8,38C552,501.3,546.7,489,538.3,477.1z"/>
	<path class="st21" d="M348,460.7c-23.6-17.4-41.9-39.1-56-68.4c25.6,12.6,44.5,32.4,71.7,34.3C357.8,437.7,348.9,447.4,348,460.7z"
		/>
	<path class="st22" d="M348,460.7c-7-17,1.6-26.8,15.6-34.1c10.3,0.8,18.2,5.6,23.4,14.6c-0.9,24.3-3.5,26.9-28,27.9
		C355.5,466.4,351.7,463.6,348,460.7z"/>
	<path class="st23" d="M538.3,477.1c21.2,13.5,22.2,22.1,4.8,38.3c-4.9-0.1-9.8-0.2-14.7-0.3c-14.5-18.5-13.3-24.9,7.3-38
		C536.6,477.2,537.5,477.3,538.3,477.1z"/>
	<path class="st24" d="M617.4,812.6c-18,0.8-34.8-1-41.5-19.3c-3.4-9.4,17.8-19.5,39.8-20c11.1-0.2,22.2,0,32.5,4.6
		c6.6,2.9,13.7,7.3,14,14.8c0.3,7.7-6.9,12.1-13.4,15.2C638.6,812.8,627.5,813.3,617.4,812.6z"/>
	<path class="st24" d="M327.5,805.5c-15.7-2.5-36.7-0.1-36.4-18.7c0.3-15,19.9-16.9,34.4-17.2c15.8-0.4,35,3.1,35,19.2
		C360.5,805.8,339.4,802.5,327.5,805.5z"/>
	<path class="st25" d="M453.2,890.5c-12.3,0.3-22-2.1-21.7-12.1c0.3-10,10.3-11.5,19.3-11.5c9,0,19.4,1.3,19.7,11.1
		C470.8,889.9,458.3,888.7,453.2,890.5z"/>
</g>
</svg>
