<?xml version="1.0" encoding="utf-8"?>
<!-- Generator: Adobe Illustrator 23.0.1, SVG Export Plug-In . SVG Version: 6.00 Build 0)  -->
<svg version="1.1" id="Layer_4" xmlns="http://www.w3.org/2000/svg" xmlns:xlink="http://www.w3.org/1999/xlink" x="0px" y="0px"
	 viewBox="0 0 1000 1000" style="enable-background:new 0 0 1000 1000;" xml:space="preserve">
<style type="text/css">
	.st0{fill:#FEF7D6;}
	.st1{fill:#AAA078;}
	.st2{fill:#A86E34;}
	.st3{fill:#573600;}
	.st4{fill:#B2781A;}
	.st5{fill:#DCA670;}
	.st6{fill:none;}
	.st7{fill:#573601;}
	.st8{fill:#D9A36E;}
	.st9{fill:#EAE5C5;}
	.st10{fill:#F8F2D2;}
	.st11{fill:#F5F0D2;}
	.st12{fill:#F6F1D1;}
	.st13{fill:#FBF6D6;}
	.st14{fill:#F7F3D3;}
	.st15{fill:#ABA27A;}
	.st16{fill:#AAA079;}
	.st17{fill:#A79E77;}
	.st18{fill:#D49D67;}
	.st19{fill:#66400D;}
	.st20{fill:#ABA179;}
	.st21{fill:#81550D;}
	.st22{fill:#1E140A;}
</style>
<g>
	<path d="M850.6,404.2c-22.8-8.9-37-24.4-41.2-47.2c-7.6-40.6-33.2-67.1-64.3-90.7c-26.8-20.3-54.7-39.3-75.2-66.8
		c-11.3-15.2-21.8-30.5-28.8-48.3c-6.4-16.3-16.7-19.7-22.9-8.7c-8.8,15.7-22.2,27.6-31.4,42.8c-12.3,20.3-32.1,32.2-50.2,45.9
		c-29.5,22.3-61.2,12.5-92,4.6c-48.4-12.4-89.8-1.8-125.5,33.1c-31.2,30.6-69.7,38.2-111.4,31.6c-11.5-1.8-23.7-4.9-31.9,3
		c-19.1,18.4-42.1,29.6-65.2,41.2c-1.6,0.8-2.6,2.9-4.2,4c-9.3,6.7-10.7,12.4-0.9,21.1c9.3,8.3,20.2,12.6,30.6,18.5
		c23.9,13.5,41.9,34.8,64.3,50.7c12,8.5,21.8,22,36,29.3c22.4,11.4,25,10,29.3-15.2c1.2-7.1,3-17,12.3-8.3
		c11,10.3,26,16.5,33.7,30.6c-4.3,1.8-8.8,3-12.3,5.4c-8.7,5.9-22.2,9.4-21.3,22.1c0.7,10.9,11.9,17.7,21.3,19.7
		c26,5.7,32.3,22.5,33.4,46.2c0.5,10.6,6.3,23.7,17.5,27.8c10.7,3.9,18.5-6,25.5-13.4c4-4.3,7.4-9.1,12-14.9c2.3,5,3.2,7.1,4.3,9.1
		c42.8,74.3,67.8,153.3,65.6,240.1c-0.4,14.4,2.4,29.3,4,43.9c1.2,10.7,4.4,22.6,14,30.2c29.6,23.3,63,29.3,98.5,18.3
		c17.7-5.5,28.4-18.1,27.7-38.7c-0.9-27-1.6-54-3.5-81.1c-4.6-65.5-23.1-125.7-57.6-181.7c-16-25.9-33.9-51.1-38.4-83.1
		c-1.5-10.7,1.4-10.8,8.7-13.8c19-7.8,36.8-1.4,53.1,5.3c28.9,11.7,53.7,7.1,74.9-13.6c27.6-27.1,56.1-32.3,89.4-10.9
		c13.8,8.8,29.4,10.6,45.6,5.5c35.5-11.2,61.7-35.2,84.7-62.7C872.3,418.6,870.8,412.1,850.6,404.2z M328.2,360.8
		c31.4-8.8,59.5-2.5,87.2,9.3c5.7,2.4,10,5.9,13.5,10.3c6.2,7.8,15.4,17.3,2.5,25.5c-9.7,6.2-19,20.1-34.4,5.4
		C376.9,392.2,353.4,377.2,328.2,360.8z"/>
	<path class="st0" d="M385.9,473.6c-11.7-3.6-13.9-9-5.5-19.2c12.8-15.5,31.7-19.6,48.2-28.4c12.8-6.8,26.6-12.5,26.9-29.9
		c0.2-19.1-10.7-31-26.9-39.4c-39-20.1-80.7-15.6-121.9-12.8c-12.9,0.9-25.4,2.7-38.6,0.2c-21-4-36.8,4.9-48.1,24.6
		c-7.1-6.4-13.5-13.7-25.3-13c15.2-25.1,34.3-38.7,61.3-40.2c27.7-1.5,51.1-12,70.8-31.9c15.6-15.8,33.7-28.4,55.8-34
		c22.4-5.5,43.6,1.5,64.9,6.5c21.6,5.1,43,8.2,65.4,6c25.1-2.5,46.3-11.8,64.5-28.9c6.2-5.8,11.8-12.2,19.2-16.5
		c15.3-8.8,25.8-7.2,34.7,7.7c12.7,21.2,29.9,37.6,49.9,51.3c18.9,13,35.1,28.6,49.5,46.6c22.7,28.4,20.4,47.2-11.6,68.8
		c24.1-8.1,44.7-4.9,62.3,10.6c13.4,11.9,11.4,24.4-4.7,32.3c-17.5,8.6-36.1,10.3-55.2,7.2c-12.8-2.1-25.7-4.6-38.7-4.8
		c-21.9-0.3-40.6,8.7-56.7,22.6c-20.4,17.6-43.9,21-69.4,17.8c-26.5-3.3-52.7-7.4-78.7-13.7c-24.7-6-48.6,4.8-73,7.2
		C398.6,471.2,392.5,474.1,385.9,473.6z"/>
	<path class="st1" d="M385.9,473.6c39.6-14.1,79.1-23.2,121.5-9.7c20,6.4,42.1,6.8,63.3,9c17.5,1.8,33.6-2.6,47.1-14.5
		c29.6-26.1,63.6-32.5,101.4-22.8c19.7,5.1,38.9,1.8,57.1-6.2c11.9-5.3,15.8-13.2,3.7-23.4c-13.2-11-28.1-15.5-45-13.1
		c-9.5,1.3-19,3.2-29.2,4.9c3-8.9,11.2-9.7,16.7-13.6c22.6-16.2,24.1-34,7.1-56c-17.8-23.1-39.8-40.9-63.4-57.1
		c-16-11-29-24.4-37.1-41.8c-7.8-16.7-18.3-15.9-31.2-7.6c-3.8,2.4-7.4,5.4-10.5,8.7c-34.4,38.1-77.2,43.1-124.5,32.4
		c-26.4-6-52.2-16.5-80.1-13.1c19.2-9.6,39.2-4.5,57,1.4c71.6,23.8,122.1-5.4,163.4-61c6.9-9.2,13.7-18.4,22.7-30.4
		c25.9,60.3,78.4,91.5,123.7,129.8c22.6,19.1,37.5,43,44.7,71.6c5.8,23.2,16.9,42.1,39.8,52.1c14.6,6.4,11.9,15.4,2.8,23.8
		c-17.2,15.9-35.2,31.2-56.2,41.8c-13.6,6.9-28.4,7.7-43.2-0.1c-10.9-5.7-22.6-9.8-34.3-13.7c-23-7.7-43.7-3.8-60.6,14.4
		c-23.1,24.9-49.6,33.7-82.2,19.5c-17.9-7.8-37-6.8-55.4-1.1c-9.6,3-13.5,1.1-16.7-9c-7.4-23.8-14.4-25.7-35.5-12.4
		c-1,0.7-2.5,1.9-3.2,1.6C428.6,468.5,406.8,476.9,385.9,473.6z"/>
	<path class="st2" d="M457.2,523.3c3.4,11.5,6.7,23,10.1,34.5c8.6-21.1,1.9-41.2-0.9-61.7c-0.8-6-10.4-14.6,2.3-19.5
		c13,27.2,18.8,56.5,20.8,86.1c1.7,26.3,7,51.2,17.1,75.3c19,45.5,24.5,93.8,29.8,142.1c1.4,12.4,3.4,26.4-9.6,35.5
		c-17,0.8-33.4,3.7-50.5,15.5c-2.8-60.9-10-118.8-27.4-175c13.4,1.2,15.6,13.2,18,22.1c7.7,28.8,12.8,58.2,14.4,84.6
		c3.5-18.9,2.4-26.5-3.5-47.9c-9.9-35.7-18.1-71.6-37.9-103.9c-8-13.1-8.7-29.8-12.1-45c-2-8.8-4.2-17.7-10-25.8
		c-5.1,16.5,0.1,30.5,7.2,44.6c4.4,8.8,12.5,17.6,4.7,28.7c-10.4-19.6-20.8-39.3-31.2-58.9c-1.8-13-2.3-25.9,3.8-38
		c5.4-10.7,11.5-21.5,25.6-20.2c13.3,1.2,23,8.4,26.9,21.7C455.3,520.1,456,521.8,457.2,523.3z"/>
	<path class="st3" d="M526.7,815.7c10.2-24.3,2.2-48.8-0.3-72.9c-4.3-40.8-15-80-30.7-118c-8.5-20.5-12.8-42.2-11.1-64.6
		c2.2-29.3-10.8-55.7-15.9-83.5c14.1,7.2,12.9,22.2,14.9,34c6.1,37.2,20,70.6,40.6,102c36,54.7,55.3,115.1,58.3,180.7
		c0.8,18,5.2,35.8,2.8,56C567.9,832.8,549.4,820.4,526.7,815.7z"/>
	<path class="st4" d="M541.5,899.2c-14.3-0.8-28-3.2-40.7-10.8c-20-11.9-28.7-26.7-23.6-41.8c4.3-12.7,28.1-22.5,46.5-20.5
		c22.1,2.5,38.6,14.8,53,29.7c16.4,16.9,12.1,31-10.4,39.3C558.3,898,550.1,899.3,541.5,899.2z"/>
	<path class="st2" d="M378.5,440.9c-12,5.5-7.9,24.8-23.5,27.2c-22.1-28.1-54.1-44.7-79.4-69.9c-1.6,12,14.2,16.9,9,28.8
		c-7.8-2.1-12.4-8.8-18.6-13.2c-5.3-6.5-9.3-13.9-13.2-21.1c-9-16.8,1.1-31.8,20.2-29.6c12.8,1.4,25.2,5.2,32.1,17.9
		c-0.3,16.5,16.2,10.8,23.3,17.5c22.5,4.3,36.4,21,51.5,35.9C381.9,436.2,380.8,439,378.5,440.9z"/>
	<path class="st5" d="M429.6,613.6c0.7-13.3-7.7-23.2-13.3-34c-8.7-16.9-8-33,0-51.7c14.1,16.9,16.5,36.4,20.5,55
		c3.3,15.4,8.8,29.4,16.2,43.3c18.5,34.7,46.9,120.1,26.9,165.5c-2.9-22.4-4.3-40-7.6-57.2c-5.1-26.9-3.4-55.9-23.5-78.4
		C442.4,642,436,627.8,429.6,613.6z"/>
	<path class="st6" d="M431.4,405.8c-9.7,6.2-19,20.1-34.4,5.4c-20.1-19-43.6-34.1-68.8-50.5c31.4-8.8,59.5-2.5,87.2,9.3
		c5.7,2.4,10,5.9,13.5,10.3C435.1,388.1,444.2,397.6,431.4,405.8z"/>
	<path class="st7" d="M378.5,440.9c-13.5-17.1-28.5-32.2-50.3-38.3c-7.3-9-23-6.3-27.3-19.5c-8.8-13.3-22.4-17.3-36.7-15.4
		c-12.1,1.6-12.1,12.1-9,21.4c2.8,8.5,7.1,16.5,10.8,24.8c-10.6-11.1-20.3-23.2-36.5-26.8c-8-1.8-3-6.8-1.5-10.4
		c8-19.1,26.8-26.1,52.9-19.2c33.4,8.9,58.6,32,86.2,51c4.2,2.9,7.8,6.9,12.3,9.5C393.5,426.2,392.7,433.7,378.5,440.9z"/>
	<path class="st8" d="M284.5,427c-5.7-12.2-18.6-21.6-14.4-43.8c23.9,36.9,68.6,45.5,84.9,84.9c-7.5,8.7-15.2,11.2-23.6,1
		C317.9,452.7,300.3,440.9,284.5,427z"/>
	<path class="st7" d="M457.2,523.3c-9.9-10.5-18.1-27.4-35.2-22c-16.6,5.3-18.8,22.7-20.1,38.6c-0.4,5-2.4,9.9-3.6,14.8
		c-13.2-20.4-14.4-42.1-2.9-62.9c7.8-14.2,23.3-7.3,35.3-6.8c11.7,0.5,23.2,4.8,25.4,19.1C457.2,510.4,456.9,516.9,457.2,523.3z"/>
	<path class="st9" d="M117.3,357.7c12.3-8.4,24.2-15.1,39.3-9.6c6.8,2.5,18.1,3,13.9,13.2c-3,7.3-5.3,21.6-21.4,14.8
		C138,371.3,126,368.9,117.3,357.7z"/>
	<path class="st10" d="M179.4,406.6c-9.3-5.8-13.2-14.1-9.7-24.6c3.3-10.1,10.2-16.2,21.8-15c13.3,4.8,17.6,14.7,14,27.6
		C201.7,407.9,191.8,410.5,179.4,406.6z"/>
	<path class="st11" d="M328.1,518.7c-9-4.2-28-2.4-29.6-15.5c-1-8.4,16.2-14.6,28.5-14.7c14-0.2,17.2,11.7,18.6,21
		C346.8,517.1,338.9,521,328.1,518.7z"/>
	<path class="st12" d="M360.1,575.1c-0.9,0.9-2.2,2.7-2.5,2.5c-15-8.2-13.8-23.1-12.7-36.3c0.8-9.7,0.8-24,18.2-21.1
		c12.9,6.7,9.2,18.1,7.7,28.5C369.5,558.4,365.3,567,360.1,575.1z"/>
	<path class="st13" d="M365.9,476.4c10.5,1.5,17.3,6.6,17.3,17.5c0,12-7.8,17.7-18.7,17.5c-10.1-0.2-14.7-8.5-14.6-17.3
		C350,484.4,354.7,476.7,365.9,476.4z"/>
	<path class="st14" d="M245.9,452.7c-10.3-0.3-16.3-8.5-23.1-14.1c-15.9-13-15.4-20.7-0.3-36.7C236.8,415.9,250.1,430.3,245.9,452.7
		z"/>
	<path class="st15" d="M245.9,452.7c-0.4-20.4-17.4-33.1-23.4-50.9c9-8.1,16.5-1,20.5,4.8C252.8,420.8,257.4,436.6,245.9,452.7z"/>
	<path class="st16" d="M360.1,575.1c-1.8-11.8,5.8-21.7,6.5-33c0.5-7.6,1.1-15.1-3.5-21.8c15.5-3.2,18.1,8,17.7,18.4
		C380.1,553.7,375.9,568,360.1,575.1z"/>
	<path class="st17" d="M179.4,406.6c9.4,0.6,17.6-0.9,21.3-11.3c4.4-12-1.3-20.5-9.3-28.3c12.1-2.1,19.6,3.7,23.5,14.6
		c3.1,8.7,0.8,17-6,22.7C200.1,411.8,189.9,414,179.4,406.6z"/>
	<path class="st18" d="M198.1,331.3c-6.1,4.4-5.3,18-18.3,13.6c-14.6-5-14.7-10.6-0.3-25.6C188.4,319.1,197.9,317.9,198.1,331.3z"/>
	<path class="st19" d="M198.1,331.3c-3.9-7.5-11.2-9.9-18.6-12.1c4.8-4.5,10.8-2.8,16.3-2.7c4.7,0.1,12.1-2.3,13.1,3.9
		C209.8,326.1,204.3,330.2,198.1,331.3z"/>
	<path class="st20" d="M508.6,428.8c9.5-8.4,15.8-13.8,21.8-19.4c14.5-13.5,20.2-30.4,15.3-49.4c-7.7-29.7,13.1-52.3,38.4-56.2
		c13.9-2.1,28.4-0.4,41.9-6.5c-6.9,11.3-18.2,13-29.2,14.5c-31.3,4.1-40.9,13.9-38.2,45.7c3,36.1-6.4,52.3-39.7,69.8
		C517.4,428.2,515.4,427.9,508.6,428.8z"/>
	<path class="st21" d="M488.5,848.3c7.9,25.2,29.5,29.9,50.8,33.3c7.6,1.2,19-0.2,21-9.5c1.9-8.9-8.3-11.9-15.2-15
		c-4.1-1.8-8.9-1.9-13.1-3.4c-5.3-1.9-10.5-3.1-14,2.3c-4.6,7.1,5.6,7.3,6.6,14.2c-9.3-2.5-19.4-5.3-18.8-15
		c0.7-11.3,11.8-11.7,21.3-11.4c18.3,0.6,34.6,5.6,45.7,21.4c3.8,5.4,7.1,12-0.3,17.1c-16.5,11.4-34.7,8.9-52.1,3.8
		c-14.2-4.2-28-11.2-31.9-28.1C487.9,854.8,488.5,851.5,488.5,848.3z"/>
	<path class="st22" d="M300.9,383c7.7,8.5,21.6,8.3,27.3,19.5c-10.2-4-20.9-7.1-30.3-12.4C290.7,386.1,294.5,383.2,300.9,383z"/>
</g>
</svg>
