<?xml version="1.0" encoding="utf-8"?>
<!-- Generator: Adobe Illustrator 23.0.1, SVG Export Plug-In . SVG Version: 6.00 Build 0)  -->
<svg version="1.1" id="Layer_4" xmlns="http://www.w3.org/2000/svg" xmlns:xlink="http://www.w3.org/1999/xlink" x="0px" y="0px"
	 viewBox="0 0 1000 1000" style="enable-background:new 0 0 1000 1000;" xml:space="preserve">
<style type="text/css">
	.st0{fill:#FA9C00;}
	.st1{fill:#302825;}
	.st2{fill:#935B00;}
	.st3{fill:#2B2E30;}
	.st4{fill:#5B4B43;}
	.st5{fill:#3E4446;}
	.st6{fill:#9DA3A5;}
	.st7{fill:#F99D01;}
	.st8{fill:#FAFAFA;}
	.st9{fill:#643F00;}
	.st10{fill:#2B5260;}
	.st11{fill:#9FA5A7;}
	.st12{fill:#905900;}
	.st13{fill:#FDFDFD;}
	.st14{fill:#F2B27E;}
	.st15{fill:#161211;}
	.st16{fill:#5E6F4C;}
	.st17{fill:#5D6E4B;}
	.st18{fill:#3B312C;}
	.st19{fill:#3D4345;}
	.st20{fill:#90AFC3;}
	.st21{fill:#2A2320;}
	.st22{fill:#FAFBFB;}
	.st23{fill:#CAB89A;}
	.st24{fill:#5E6E4C;}
	.st25{fill:#162B32;}
	.st26{fill:#90AFC2;}
	.st27{fill:#F5F5F5;}
	.st28{fill:#3F4547;}
	.st29{fill:#C9B799;}
	.st30{fill:#9CA2A4;}
	.st31{fill:#9BA1A3;}
	.st32{fill:#B4F8F7;}
	.st33{fill:#5D6D4B;}
	.st34{fill:#E0A878;}
	.st35{fill:#434C36;}
	.st36{fill:#424B35;}
	.st37{fill:#383D3F;}
	.st38{fill:#404934;}
	.st39{fill:#F5F4F3;}
	.st40{fill:#AEEAEC;}
	.st41{fill:#B3F4F4;}
	.st42{fill:#E9E8E5;}
	.st43{fill:#EBEAE7;}
	.st44{fill:#C09069;}
	.st45{fill:#B58762;}
	.st46{fill:#FEFD80;}
	.st47{fill:#090500;}
	.st48{fill:#0B0700;}
	.st49{fill:#100A00;}
	.st50{fill:#0F0A00;}
	.st51{fill:#FEFB7F;}
	.st52{fill:#140C00;}
</style>
<g>
	<path d="M555.4,641c20.5,33.1,33.3,67.5,38.2,104.6c3.8,28.6-9,48.2-37.7,58.6c-6.4,2.3-13.4,3.9-20.2,4.4
		c-21.8,1.5-37.2,7.7-43.8,32.6c-7,26.3-34.2,21.7-54.3,25.7c-17.1,3.4-34.2-2.4-51.1-5.7c-5.2-1-8.7-3.7-12.1,3.2
		c-6.6,13.4-13.3,27.7-30.6,30c-14.7,1.9-30.2,1.9-43.5-4.1c-16.6-7.5-32.4-10.6-49.1-3.2c-16.3,7.3-33.8,2-50.7,6.9
		c-14.1,4.2-23.6,11-31.7,24.6c-12.3-21.3-15.3-43.1-11.5-65.8c2.7-16,6.4-32.1,15-46.1c2.9-4.7,1.8-7.3,0.1-11.8
		c-8.2-21.8-4.9-43.6,1.5-65.3c4.5-15.1-6.7-27.5-8.4-41.7c-3-24.9-8.9-53,7.9-72.1c18.1-20.7,8.3-37.4,4.3-56.7
		c-9.9-47.5,8.8-75.2,56.1-86.1c46.2-10.6,90.8-1.6,135.4,14.2c4.1-6.1,1.4-13.8,4.7-20.8c10.4-22.1,22.2-45,5-69.6
		c-1.8-2.6-1.7-8.5,0-11.4c7.5-12.4-1.1-18.8-7.5-27.8c-21.7-30.6-19-25.1-53.9-8.5c-9.6,4.6-17.7,12.1-26.9,17.6
		c-28.8,17.4-55.4,13.1-90.1-15.8c-10.4-8.7-18.4-11.8-31.2-4.2c-10.8,6.5-23.7,6.2-36.4,1.3c-18.6-7.3-36.8-14.6-57.4-17.7
		c-31.1-4.7-46.4-36.1-40.7-68.9c13.5-77,73.1-108.5,137.3-104.5c31.1,1.9,44.7,15.1,42.4,39.7c-0.6,6.4,1.5,11.2,6.5,15.1
		c23.4,18.6,22.5,44.6,20.4,70.4c-1.2,14.4,8.8,25.8,22.3,21.7c10.1-3.1,21-6.6,28.9-13.1c38.8-31.5,76.4-28.7,114.1,1.3
		c7.5,6,15.1,11.8,22,18.3c7.4,6.9,15.4,10.8,25.7,10.3c8.9-0.4,17.5-0.5,26.2,3.5c19.6,9.1,37.4,8.7,58.4-2.5
		c22.5-12,48.3-5.1,69.9,9.2c5.6,3.7,7.3,4.1,11.9-0.4c5.4-5.3,3.8-8.7-0.9-12.6c-17.7-14.7-35.3-29.4-53-44.1
		c-21.3-17.7-46.2-33.5-37.1-67.9c0.5-1.9-1.9-4.6-3.1-6.9c-9.1-18-4.4-35.2-0.8-54.1c8.6-45.7,75.4-53.3,102-30.2
		c25.9,22.5,52.1,45,79.9,65.1c34.6,25.1,71.9,46.5,106.4,71.8c31.3,23,60.5,48.8,90.2,73.8c13.8,11.6,27.3,23.5,40,36.2
		c21.8,21.8,21.1,55.9,0.3,78.6c-16.4,17.9-35.4,30.4-59.2,35.5c-6.5,1.4-12.4,2-18.8-0.5c-38.9-15.4-79.6-27-113.9-52.1
		c-6-4.4-9-5.5-14.2,0.2c-11.9,13-28,21.9-21.2,45.8c5.5,19.4,0.9,40.7-10.9,58.6c-7.4,11.2-2,19.4,5.5,26.8
		c6.7,6.6,10.9,15.7,25.4,9.3c23.7-10.5,36.9,1.3,35.8,28.7c-0.2,4.8,3.2,6.8,5.6,9.5c11.6,13,26.5,21.8,40,32.3
		c3.6,2.8,8,4.2,10.6,2.3c11.2-8.1,20.8-2.3,27.2,4.9c8.5,9.5,8.8,22.7,4.3,34.5c-13.3,34.9-38.9,59.1-70.3,77.4
		c-16.2,9.5-38.7-3.7-36.4-22.5c1.6-13-4.9-18.5-12.1-24.6c-8.6-7.4-18-13.8-27.6-19.9c-5.1-3.2-11.3-9.3-17.3-5.7
		c-13.4,8.2-20.9-1-27.7-8.8c-7.1-8-9.1-18.4-1.8-27.9c5.4-7.1,2.7-10.1-3.7-14.9c-16.1-12.1-30.2-17.6-49.8-3.9
		C593.1,640,583.3,640.4,555.4,641z"/>
	<path class="st0" d="M390.7,499.9c-9.9-19,0.4-35,8.8-50.4c23.9-44.1,66-67.9,105.6-95.1c63.1-43.3,116.5-10.1,158.7,44.4
		c16.9,20.9,12.5,42.1,0.2,62.8c-15.1,25.2-37.7,41.9-64.1,53.8c-13.1,5.9-25.2,1.6-37.4-3.1c-17.8-10.8-30.9-27.4-47.8-39.4
		c-19.8-13.9-39.8-27.3-66-17.8c-26.2-0.1-31.4,4-43.1,30.4C402.8,491.7,404.8,504.6,390.7,499.9z"/>
	<path class="st1" d="M777.5,363.2c-6.7-31.4-26-55.3-47-78.1c-6.3-34.4-36.3-46.5-60.6-63.8c-24.3-17.2-51.4-30.8-72.2-52.6
		c-6.3-6.6-15.8-12.6-11.4-24.5c21.6,4,36,20.2,51.6,33c45,37.1,94.3,68.7,138.9,106c43.3,36.2,90.6,66.8,133.3,103.6
		c6.2,15.9-2.7,24.3-15.4,30.7C857.1,436.4,794.4,425.3,777.5,363.2z"/>
	<path class="st2" d="M561.7,508.5c63.7,13.3,120.7-47.9,102.1-109.7c16.1,14.7,27.8,32.1,32,53.9c1.8,9.5,3.2,19.1,3.3,28.7
		c0.2,20.1-11.8,40-31.1,44.4c-20,4.6-32.7,16.4-44.9,31.3c-7.9,9.5-16.1,21.9-32.2,13.3c-4.8,0-3.6-16-12.8-4.8
		c-14.4,9.5-21.1,0-27.2-11c-20.8-38.3-51-65.2-94.1-75.9c-23.5-5.8-37.2-0.6-48.5,20.3c-6.6,12.2-11.6,4.7-17.7,0.9
		c13.3-5.9,10.2-20.7,16.5-30.6c11.8-18.4,20.7-22.9,41.9-16.2c34.8-0.2,61.4,19,88.2,37.5C545.6,496.4,551.2,505.8,561.7,508.5z"/>
	<path class="st3" d="M476.9,577.6c26.2,16.8,45,41.2,61,66.6c17.5,27.8,32.4,57.5,37.7,91.2c4.9,31.1-1.3,44.6-30.1,56.2
		c-14.3,5.8-29.2,6.2-44.1,5.1c-10.9-0.8-18.8-15.6-11.6-22.1c27.7-25.2,18.2-54,10.1-82.9c0.1-36.6-2.1-72.7-22.7-104.9
		C475.3,584.1,474.9,580.7,476.9,577.6z"/>
	<path class="st4" d="M586.3,144.1c8.9,22.4,28.5,34.4,46.8,47.2c24.2,17,49,33.1,73.9,49c16.7,10.6,26.3,24.2,23.5,44.7
		c-12.3-3.5-23.1-10.6-36.4-12.4c-29.6-4-39.9,1.9-47.4,30.8c-0.8,3.1-1.9,6.1-3.4,10.6c-9.3-5.6-15.8-13.2-22.4-20.8
		c0.1-14.9-10-25.2-18.1-35.6c-20.7-26.7-32.3-55.7-30-89.9c0.3-5,0.7-10.4-2.4-15.1C573.1,144.9,578.3,141.9,586.3,144.1z"/>
	<path class="st5" d="M476.9,577.6c20.1,30.3,30.8,63.2,27.1,100c-0.5,5,0.8,10.4-4.2,14.1c-26.7-46.6-65.3-80.4-112.2-105.8
		c-10.4-5.7-22.2-5.8-32.5-10.9c0.7-1.2,1.4-2.3,2.6-2.8c30.4-12.4,32.4-31.6,6.8-53.5c-11.6-9.9-28.9-11.2-36.8-25.9
		c44.2,8.2,82.3,29.6,117.6,56.4C456.5,557.5,468.9,565.3,476.9,577.6z"/>
	<path class="st6" d="M327.8,492.6c14.3,7.3,29.8,12.8,42.2,23.5c7.8,6.8,15.5,13.6,17,25.1c3.1,22.9-5.6,32.4-31.8,33.6
		c-34.5-8.9-68.6-9.1-102.1,4.6c-7.4,3.1-15.3,1.6-22.9,1.8c-3.4-27.3,17.5-57.2,48-68.7c5.4-2,11.4-2.4,18.9-6.8
		c-16-7.4-31-10.9-47-10.2c-6.9,0.3-14.2,2.7-19.9-3.7c25.1-12.2,51-8.7,76.9-4.1C314.1,489.1,320.9,491,327.8,492.6z"/>
	<path class="st5" d="M413.6,812.2c12.7-32.1-2-58.2-19.1-83.1c-20.3-29.5-45.6-52.9-82.3-60.5c9.6-24.6,5.8-33.6-16.9-49.2
		c-10.1-6.9-25.3-6.9-30.1-21.2c19.7,0.3,36.2,9.7,52,19.6c53.7,33.4,105.1,69.6,136.3,127.1c1.5,2.8,2.4,5.9,3.6,8.9
		c2.6,7.3,5.6,14.5,7.4,22c6.1,24.2-12.2,46.9-36.6,45.5C421.9,821,414.5,821.5,413.6,812.2z"/>
	<path class="st6" d="M265.2,598.2c16.6,9.6,35.4,15.8,49.1,30.1c14.3,14.9,13.5,28-2.1,40.2c-26.6-2.7-52.2-1.7-75.2,15
		c-4.6,3.3-12.3,2.5-18.5,3.5c-6.3-27.7,8.5-51.2,44.3-70.3c-22.9-18.8-55.6-9.1-63.5,19.6c-5.4,19.7-3.6,39.9,0.7,59.7
		c-4.2,1.3-5.5,13.7-12.4,3.9c-20-28.6-4.7-83.8,26.8-100.8C231.6,589.9,248.1,593.2,265.2,598.2z"/>
	<path class="st7" d="M112.7,321.1c-39.7-21.3-43.7-59.2-10-96.5c12.9-14.2,29.2-23.6,47.6-28.4c24.1-6.4,43.3,3.4,61.1,29.9
		c3,18.4-12.4,15.4-22,19.1c-26.5,2.5-48.3,11.1-53.2,41.5c-1.7,4.4-0.8,8.9-0.6,13.4C136.4,317.9,131.6,322.1,112.7,321.1z"/>
	<path class="st8" d="M230.2,492c26.8-3,53.1-3.4,79.8,16.8c-44.2,8-72.7,29.4-79.8,72.6c-20.4,9.8-28.1-1.5-33.6-19.1
		C185.8,527.6,195.5,506.4,230.2,492z"/>
	<path class="st9" d="M589.9,566.4c8.7,6.2,15.3,2.9,21.8-4.2c16.2-17.6,33.4-33.1,56.9-41.8c18.8-7,28.8-23,26.9-44.6
		c-0.7-7.7,0.1-15.5,0.2-23.2c9.5,17.7,9,36,3.1,54.6c-4.9,15.2-11.3,25.9-31.3,24.3c-22-1.8-40.8,19.5-42.5,44.7
		c-0.9,14.1,1.6,27.9-15.7,35.9c-22.2,10.2-43.5,20.1-70,7.1c18.6-19.5,17.4-41.7,11.6-64.5c8.4,4.6,14.4,17.6,27,7.7
		c7.8,7.8,2,16.4,0.4,25.5C582.2,579.8,580.4,570.1,589.9,566.4z"/>
	<path class="st6" d="M281.3,784.9c-11.3,0.4-15.6-12.1-26.3-14c-14.6-2.6-28.9-5.5-43.6-0.8c-7.8-20.7,0.8-38.1,28.1-56.2
		c-15.5-8.2-24.7-0.2-31.7,11.7c-10.3,17.3-10,37-11.9,56.2c-2.2,5.7-5.1,8.3-8.1,0.7c-8.1-20.7,4.4-65.5,22.1-78.7
		c8.1-6.1,17.1-8.2,27.5-5.5c6.7,1.8,12.8,6.6,20.3,4.9c32,13.1,45.6,38,36.4,66.4C292,776.5,289.5,783.1,281.3,784.9z"/>
	<path class="st10" d="M366.8,594.1c34.4,6.2,56.6,30.1,78.6,54.3c11.3,14.8,22.8,29.6,25.8,48.7c1.9,12.2,5.1,25.3-9.8,32.7
		c-24.1-36.8-56.1-65.8-90.6-92.4c7.8-11.1,9.4-22-0.8-32.8C367.5,601.8,365.4,598.3,366.8,594.1z"/>
	<path class="st11" d="M804.7,293c-15.9-17.5-35.9-29.6-56-41.3c-46.2-27.1-84.9-64-127-96.4c-43.7-33.6-60.9-28.3-80.4,23.5
		c-4.9-21,3.6-42.3,21.6-53.8c20.2-12.9,34.8-10.8,57.6,8.4c51.6,47.4,109,87.1,168.4,123.9c10.6,6.6,19.8,14.7,27.3,24.5
		c3.2,4.3,5,9.9,0.4,14.1C812.2,300,808.5,294.7,804.7,293z"/>
	<path class="st5" d="M281.3,784.9c20.5-32.1,13.1-57.8-23.5-81.7c38.4,7.4,60.8,33.9,78.6,65.8c7.6,23.1,9.8,45.6-9.2,64.7
		c-6,6.1-13.4,10.8-22.5,8.4c-9.7-2.6-3.5-12.6-7.5-18.1C297.7,808.7,284.2,798.9,281.3,784.9z"/>
	<path class="st5" d="M804.7,293c3.6,0,8.8,1.4,10.6-0.5c3.2-3.4-0.8-6.9-3.3-9.7c-15.1-17.3-33.8-30-53.4-41.4
		c-44.9-26.1-84.8-59-124.8-91.5c-5.3-4.3-8.8-10.9-13.1-16.5c19.8,7.5,32.9,23.9,48.5,36.8c34.1,28.1,71.6,51.1,108.6,75
		c44.7,28.9,85.1,63.3,124.5,99c13.2,17.9,13.2,17.9,3.9,27.2c-28.9-21.1-57.9-42.2-86.8-63.4C813.6,303.9,807.8,299.7,804.7,293z"
		/>
	<path class="st6" d="M176.3,285.5c9.3-9.2,18.9-6.5,27.9,0c9.3,6.8,18.3,14.1,26.8,22c11.1,10.3,23.5,15.3,38.6,12.8
		c-10.2,11.7-20.7,12.5-36.3,3c-11.5-7-20.3-18-34.6-24c21.4,32,54,40.5,85.5,23.8c12.1-6.4,23.1-14.5,34.6-21.8
		c13.6-8.7,27.7-16.1,44.4-16.1c16.7,4.7,29.1,16.1,42,26.8c10.3,8.6,12,17.8,0.5,27.1c-6.4,6.5-11.7,2.5-16.7-2.1
		c-3.8-3.5-6.7-7.9-10.3-11.6c-18.9-19.8-29.5-21.7-52.9-7.5c-16.1,9.7-32.2,19.4-47.7,30c-12.5,8.6-25.2,9.3-38.6,2.9
		c-19.9-9.5-38.1-22-55.6-35.3C174.3,308.3,167.8,298.3,176.3,285.5z"/>
	<path class="st3" d="M413.6,812.2c27.9,11.1,49.9-4.6,47.2-33.7c-0.8-8.3-5.3-16-3.7-24.7c13.7,17.7,20.8,38.6,26.4,59.7
		c4.4,16.6-5.1,28.3-19.6,33.3c-26.7,9.2-53.5,5.1-79.6-4.7c-3.4-1.3-8.1-2.6-7.8-7.4c0.3-4.5,4.4-5.6,8.3-6.8
		C395.7,824.9,404.9,819,413.6,812.2z"/>
	<path class="st3" d="M297.3,824.2c7.6,17.8,13.3,18.7,27.7,5.3c11.3-10.5,11.4-23.6,11-37.3c-0.2-7.7,0.2-15.4,0.4-23.1
		c18.6,26.2,35,53.7,22.4,87.2c-9.2,24.5-49.6,31.2-68.7,13.1c-3-2.8-3.1-5.3-0.6-8.2C298.9,850.3,296.8,836.9,297.3,824.2z"/>
	<path class="st12" d="M112.7,321.1c15.1-1.3,22.8-7.6,16.7-23.9c-1.6-4.3-0.9-8.9,2.8-12.5c1.4,0.4,2.2,1.4,2.3,2.8
		c0,0.3,0.2,0.6,0.3,0.9c5.4-29.1,29.1-37.8,52.4-46.8c7.9-5.6,23.2,0.6,24.3-15.5c16.5,16.7,19.5,33.7,9.6,55.7
		c-1.2-0.3-2.8-0.3-3.6-1.1c-13.9-13-29.7-20.9-46.3-6.8c-15.6,13.3-14.9,30.5-4,47.1c5.8,8.8-0.1,9.9-6.4,10.5
		C143.7,333.2,127.4,330.5,112.7,321.1z"/>
	<path class="st13" d="M199.9,696c-14.2-16.2-12.2-63.1,3.3-79.5c20-21.1,47-21.1,75.6,2.3c-41.2,5.5-55.9,32.7-60.4,68.2
		C212.3,690,206.1,693,199.9,696z"/>
	<path class="st14" d="M570.4,152.6c10.4,2.2,8.1,10.7,7.5,17.1c-3.1,30,7,55.4,24.9,78.8c8.6,11.2,15.5,23.6,23.2,35.5
		c4.2,6.4,1.8,9.1-5.1,9.3c-15-12.1-29-25.7-45.1-36.1c-27.2-17.6-30.9-41-21.9-69.4C557.8,175.2,564,163.9,570.4,152.6z"/>
	<path class="st15" d="M777.5,363.2c4.4,6.3,9.7,12.2,13,19c17.8,37.2,71.9,48.5,105.6,29.4c10.3-5.8,15.8-12.9,14-24.8
		c7,9.9,5.4,18.9-2.3,27.8c-27.6,31.8-71,38.7-106.8,16.8c-5-3-9.8-6.4-14.9-9c-11.2-5.9-18-11.5-10.6-26.6
		C779.9,386.7,777.1,374.2,777.5,363.2z"/>
	<path class="st10" d="M367.8,800c-8.7-25.6-25.1-46.8-39.8-69c5.7-18.1-6.4-31.7-12-47c25.3,6.4,45.3,20.1,59,42.5
		c6.2,11.4,14.3,21.7,17.6,34.6C397.9,782.1,388.7,796.5,367.8,800z"/>
	<path class="st10" d="M234,781.7c23.4-1.4,36.8,12.4,47.2,30.9c4.6,25.5-0.2,35.5-22.6,45.5c-14,6.2-28.5,11.1-43.8,13
		c-12.6,1.5-22.5,11.7-35.7,11.3c-6.1-9.7,1.2-15.7,6.6-21.7c11-12.1,25.1-20.1,38.7-28.5c27.6-17.1,28.5-21.2,9.9-46.7
		C233.7,784.4,233.7,783,234,781.7z"/>
	<path class="st16" d="M696.1,417.3c-9.4-12.8-18.8-25.6-28.2-38.4c8.4-21.7,23-38.9,39.3-54.9c12.5,7,17.6,19.3,23.3,31.4
		C736.4,393.4,725.9,412.2,696.1,417.3z"/>
	<path class="st17" d="M707.5,594.2C685,621,685,621,656.2,605.5c-29.3-15.8-30.6-31.7-4.6-55.3C678.2,543.3,701.9,562,707.5,594.2z
		"/>
	<path class="st18" d="M174.7,172.7c13,2.1,23.8,6.7,23.8,24.9c-43.7-23-76.2-5.4-104.8,26.7c-24.5,27.6-31.9,57.2-7.3,90.9
		c-18.6,2.1-25.2-8.1-31.4-18.7c3.1-8.8-2-17.6-0.2-26.4c3.8-46.7,30.8-74.5,73.1-89.7C142.8,173.7,159,175,174.7,172.7z"/>
	<path class="st19" d="M176.3,285.5c-2.6,12,0.9,22.3,11,28.9c16.8,11,33.8,21.9,51.5,31.3c12.5,6.7,25.4,7,38.2-2.7
		c13.4-10.1,28.2-18.5,42.6-27.3c30.6-18.9,43-16.8,66.6,10.3c5.3,6,8.5,15.4,19.5,13c-7.4,17.9-16.4,16.7-26.7,2.3
		c-4.2-5.8-8.6-11.5-13.6-16.6c-8.7-8.9-18.8-11.2-30-4.4c-11.7,7-24.2,13-34.9,21.3c-27.7,21.6-54.8,24.2-83.3,1.6
		c-11.2-8.8-24.6-15-35-24.5C172.8,310.2,160,299.8,176.3,285.5z"/>
	<path class="st20" d="M234,781.7c27.5,20.8,26.9,35.2-2.9,52.5c-15.1,8.8-29.7,17.9-42.3,30c-5.2,5-9.9,10.2-9.6,18.1
		c-6.6,4.9-7.6,0-7.5-4.8c0.5-17.4,2.1-34.7,11.6-50.1c3.3,2.8,4.6,6,1,12.6c14-16.5,27.7-29.6,44.6-43.6
		c-13.2-0.5-18.5,6.6-24.4,12.9c-4.8,5.2-7.6,14.4-17.9,10.3C198.1,791.5,211.6,780.6,234,781.7z"/>
	<path class="st21" d="M718.8,668c-7.3-1-14.2-2.3-6.2-11.5c10.6-12.1,21.7-23.8,32-36.1c7.2-8.5,17.4-8.2,24.1-4.2
		c14.6,8.6,21,27.2,38.1,34.1c3.2,1.3,2.2,7.7-0.6,10.5c-13.2,13.2-25.2,27.3-36,42.5c-3.1,4.3-6.6-0.5-8.8-3.6
		c2.4-8.2,8.1-14.7,11.1-22.9c-4.5-3.2-11.2,4.3-13.6-1.3c-4.4-10.5,9.4-14.3,10.6-25.3c-9.9,1.8-13.8,10.9-20.9,14.9
		c-3.2,1.8-6.7,5.2-10.4,1.7c-3.4-3.3-1.2-7.2,0.8-10.6c3.9-6.5,10.4-10.8,14.4-16.4C739.7,646.1,735.2,664.2,718.8,668z"/>
	<path class="st3" d="M906,371.4c10.1-10.7-4.8-17.8-3.9-27.2c13.5,8.2,23.5,20.4,34.1,31.6c15.5,16.2,8.1,32-2.3,47.6
		c-19.3,28.8-46.7,40-72,28.9c12-6.6,24.1-12.4,35.3-19.6C929.3,412.2,930.9,399.8,906,371.4z"/>
	<path class="st22" d="M363.2,285.3c-29.4,8.8-53.5,27.6-78.7,43.7c-22.6,14.4-42.5,12-63-2.7c-9-6.4-18.3-12.3-27.1-19
		c-3.5-2.6-7.8-6.6-4.8-11.4c3.4-5.5,9.3-4.3,13.7-1.1c10.6,7.5,20.7,15.6,31,23.6c11.4,8.8,23,11,35.3,2c21-11,42.1-21.6,62.8-33
		C342.6,281.7,352.5,279.8,363.2,285.3z"/>
	<path class="st23" d="M418.1,348.7c19.5-21.6,42.4-15,65.4-7.9c1.1,7-4.7,8.7-8.9,10.7c-23.9,11.5-41,30.3-57.1,50.5
		c-5.8,2.4-6.8,26.4-18,3.9C400.3,385.1,407.1,366.2,418.1,348.7z"/>
	<path class="st19" d="M718.2,293.6c24.9,19.4,41.4,44.1,46.6,75.5c1.9,11.4,3.5,24-9.8,30.8c-6.7,3.4-14.1,4-12.1-6.8
		c6.3-33.9-11.2-58-32-81C708.5,304,713.2,298.7,718.2,293.6z"/>
	<path class="st24" d="M515.9,597.5c-1.4-2.8-4.8-6.3-4-8.3c11.9-32.8-10.3-48.8-31.4-65.5c-1.1-8.8,0-16.9,7.4-23
		c23.5,15.2,42.4,34.2,51.6,61.4C541.3,588.7,535.3,597.7,515.9,597.5z"/>
	<path class="st4" d="M718.8,668c14-13.3,23.6-31.8,46.9-39.5c-6.3,16.5-20.6,22.8-24.3,37.9c6.8-6.7,13.6-13.5,20.6-20
		c3.7-3.5,8.1-8.3,13.2-3.4c4.3,4.2,2.4,9.7-1.2,14c-4.6,5.4-9.5,10.4-15.6,17c9.8,1.8,12.5-8.4,22.9-8.1
		c-3.6,13.9-7.1,26.1-19.8,33.9C748,688.1,730.6,681.7,718.8,668z"/>
	<path class="st23" d="M707.3,324c-10.1,20.5-24.2,38-39.3,54.9c-10.5-8.9-21.1-17.8-31.6-26.7c7.9-14.3,26.3-19.5,31.5-36.2
		C683,308.6,695.4,315.1,707.3,324z"/>
	<path class="st25" d="M461.4,729.8c14-22,2.6-41.5-6.4-60.9c-3.2-6.8-9.2-12.3-9.6-20.5c25.1,19.8,43.9,43.5,48.4,76.5
		c0.6,4.7,0.3,8.7-0.6,13.1c-1.7,8.3-2.1,19.5-10.7,21.3c-9,1.9-9-10.4-13.3-16.2C466.1,739,463.9,734.2,461.4,729.8z"/>
	<path class="st26" d="M366.8,594.1c5,7.4,15,11.2,15.8,21.4c0.8,9.5,2.9,20.4-11.8,21.9c-17.2-11.7-34.3-23.4-51.5-35.1
		c3-6.6,9.7-7,16-8.9c-15.7-1.9-30.8-3.8-46.1-3.9c-1.8-0.6-4.8-0.9-5.1-2c-2.1-6.8,3.5-4.9,6.7-5.3
		C317.2,578.8,342.5,583.5,366.8,594.1z"/>
	<path class="st27" d="M195.9,781.8c-11.3-19.5,4.8-64.3,19.7-73.9c14.4-9.2,25.2-0.8,39.3,8.3c-32.4,5.8-42.6,26.5-43.5,53.9
		C206.2,774,201,777.9,195.9,781.8z"/>
	<path class="st28" d="M844.5,651.9c5.2,3.9,4.5,10.3,2.6,14.2c-15.3,31.7-34.1,60.2-70.3,71.6c-3.1-4.4-2-9.1,0.8-12.6
		C798,699.1,814.8,669.6,844.5,651.9z"/>
	<path class="st29" d="M487.8,500.7c-2.5,7.7-5,15.3-7.4,23c-13.1-5.4-26.6-9.6-40.4-3.3c-7.9,3.6-13.3,1-18.6-4.3
		c-0.7-19.3,12.8-24.4,27.9-27.9C464,486.7,475.2,496,487.8,500.7z"/>
	<path class="st25" d="M367.8,800c26.4-12.8,24.2-27.9,16.5-50.5c-2.6-7.8-6.1-15.3-9.2-22.9c13.7,14,24.6,29.9,29.8,49
		c3.3,12.3,3.1,24.3-8.6,33.4C381.3,820.7,374.4,818.7,367.8,800z"/>
	<path class="st30" d="M844.5,651.9c-18,20.9-36.1,41.7-54,62.7c-5.9,6.9-11.7,13.9-13.8,23.1c-12.2-1.2-8.7-11.7-6.4-15.9
		c16.4-29.9,38.1-55.2,68.9-71.3C840.4,649.8,842.7,651.4,844.5,651.9z"/>
	<path class="st26" d="M316.1,684c13,13.4,27.4,26.4,12,47c-16.6-12.3-31.8-26.7-51-35.4c4.8-7.1,13.9-6.2,20-10.8
		c-4.5,1.2-8.6,2-8-5C298.4,678.7,307.5,679.5,316.1,684z"/>
	<path class="st19" d="M757,581.4c-5.8,30-31.6,45.7-49,67.3c-5.2,6.4-10.3,15.6-21.3,14.5c-2.2-5.4,0-10.5,2.3-14.9
		c13.1-25.1,31.1-46.2,53.8-63.1C746.9,582.2,751.3,578.8,757,581.4z"/>
	<path class="st31" d="M718.2,293.6c0.9,7.4-5.3,12.1-7.2,18.5c-17-7.6-34.4-10.4-52.6-3c1.2-21.2,8.5-28.3,26.9-26.8
		C697.1,283.2,707.7,288.4,718.2,293.6z"/>
	<path class="st25" d="M214.8,871c11.3-7.5,24.4-10.9,36.9-15.6c19.6-7.3,33.6-18.3,29.4-42.9c17.8,31.3-0.3,47.4-21.7,55.4
		C245.3,873.3,230.2,877.5,214.8,871z"/>
	<path class="st32" d="M186.5,819.7c9.2-1.3,10.8-10.2,15.8-15.7c9.3-10.1,18.8-20.5,35.7-8.1c-21.3,15.4-39.4,32.8-56,54.3
		c-3.5-8.9,4.5-15.7,1.2-22.8C183.4,824.5,183.3,821.4,186.5,819.7z"/>
	<path class="st30" d="M757,581.4c-32.1,19.8-55,47.6-70.3,81.8c-7.3-6.1-3.3-13-0.6-19.1c11.3-25.9,29.2-46.4,52.5-62.1
		C744.1,578.3,750.7,573.2,757,581.4z"/>
	<path class="st33" d="M417.5,402c8.1-23.3,25.7-37.8,46-49.9c6.6-3.9,14.7-5.1,20-11.3c12,2.7,8.2,7.3,1.2,11.7
		C461.1,367.2,439.6,385,417.5,402z"/>
	<path class="st34" d="M128.5,182.9c-39.6,15.8-65.9,42.2-69.9,86.7c-9.8-1.3-4.8-7.8-4.5-12.7c4.7-42.5,32.1-64.7,69.4-78.2
		C127.4,177.5,129.1,178.8,128.5,182.9z"/>
	<path class="st35" d="M707.5,594.2c-4.7-6.8-10.1-13.2-13.9-20.4c-9.1-17.1-23-24.6-42-23.6c10.8-12,23.5-10.4,34-1.5
		c10.6,8.9,19.2,20.3,28.2,31.1C720.8,588.1,711.3,590.1,707.5,594.2z"/>
	<path class="st36" d="M696.1,417.3c24.9-13.2,40-31.9,34.4-62c8.9,24.7,5.2,46.5-13.1,66.1C706.9,432.6,700.2,434.3,696.1,417.3z"
		/>
	<path class="st37" d="M484.9,538.8c12.7,9.9,26.8,24.7,18.2,37.6c-4.5,6.7-21-12-30.7-21.2C475.8,549.2,479.2,543.1,484.9,538.8z"
		/>
	<path class="st31" d="M484.9,538.8c0.4,8.9-3.4,14.7-12.5,16.4c-9.2-7.8-18.4-15.5-29.1-24.6C460.6,522.9,472.9,529.9,484.9,538.8z
		"/>
	<path class="st38" d="M515.9,597.5c18.9-4.5,21.2-20,23.6-35.4c4.4,9.8,8.3,19.4,4.5,30.7c-2.5,7.5-5.5,16.5-12,18.2
		C524.1,613.1,520.1,603.6,515.9,597.5z"/>
	<path class="st39" d="M667.8,316c1.8,2.6,10.5,1,7.1,3.4c-13.9,9.8-20.8,27.8-38.6,32.7c-7.3-3.2-5-7.4-1.2-11.7
		C644.2,330,653.6,319.7,667.8,316z"/>
	<path class="st40" d="M289.2,589.5c18.3-7.7,35.3-4.5,57.6,4.8c-12.9,3.8-20.2,5.9-27.4,8C309.3,598,299.2,593.8,289.2,589.5z"/>
	<path class="st41" d="M289,679.8c2.9,2.1,8.6,5.5,8.4,6.1c-4.1,8.3-12.3,9.1-20.3,9.7c-6-2.1-12-4.2-19.7-6.9
		C266.8,676.9,278.3,679.8,289,679.8z"/>
	<path class="st42" d="M418.1,348.7c-6.2,19.1-12.4,38.2-18.5,57.2C392.4,382.5,401.5,364.4,418.1,348.7z"/>
	<path class="st43" d="M449.3,488.2c-12.9,5.7-22.2,15-27.9,27.9c-8.3-8.4-3.8-22.7,9.3-27.2C436.5,486.9,443,485.1,449.3,488.2z"/>
	<path class="st44" d="M128.5,182.9c-1.7-1.4-3.3-2.8-5-4.2c16.4-7.6,33.4-9.6,51.1-6.1C159.3,176.1,143.9,179.5,128.5,182.9z"/>
	<path class="st45" d="M54.1,256.9c1.3,4.3-0.5,9.7,4.5,12.7c-1.3,9,4.6,18.9-3.7,26.9C49.7,283.4,48.1,270.2,54.1,256.9z"/>
	<path class="st46" d="M507.5,440.5c-33.2-3.3-64.1-2.9-98.7,6.9c14.2-17.5,24.8-31,38.6-41.9c24-18.9,49.5-35.7,75.8-51.1
		c10.6-6.2,21.5-12.3,33.9-14.3c7-1.1,17.3-1.8,19.1,5.4c2.4,9.5-8.8,8.7-14.8,10.6c-29.5,9-56.4,22.7-80,42.8
		c-11.9,10.1-11.4,17.2,3.5,23.6C492.4,425.7,501.2,427.7,507.5,440.5z"/>
	<path class="st47" d="M629.2,456.2c-0.6,15.9-16,18.3-25,26.1c-7.1,6.1-10.9-4.2-14.9-8.1c-27.4-26-62.1-39.6-96.6-56
		c7.5-14.2,19.6-22.5,30.5-32.1c3.7,6.9,4.5,7.6-0.5,13.9c-6.8,8.7-4.2,12.5,4.6,17.1c13.5,7.2,26.6,15.3,39.1,24.2
		c3.7,2.9,7.4,5.8,11.1,8.6C593.1,465.6,610.7,464.7,629.2,456.2z"/>
	<path class="st2" d="M566.4,441.4c-18.4-4.7-33-17.1-50.1-24.4c-7.7-3.3-5.9-6.8-2.4-13c3.3-5.7,13.4-8.4,9.2-17.9
		c4.5-9.6,15-11.4,22.6-18.4c3.5,5.4-0.3,8.8-1.5,12.4C536,406.2,546.1,425.6,566.4,441.4z"/>
	<path class="st48" d="M561.7,508.5c-2.9,3.9-5.5,1.5-7.9-0.5c-30.9-25.9-65.8-44-104.6-54.9c5.5-14.1,16.4-7.1,24.7-5.3
		c33,7.4,56.6,29.8,79.6,52.7C556.2,503.2,558.9,505.9,561.7,508.5z"/>
	<path class="st2" d="M629.2,456.2c-29,17.4-29,17.4-51.7-6.2C594.1,457.6,611.7,456,629.2,456.2z"/>
	<path class="st49" d="M596.9,533.2c26.1-27.2,62.9-41.1,87.7-70.3C664.4,497.2,632.3,517.1,596.9,533.2z"/>
	<path class="st50" d="M589.9,566.4c-5.9,10.6-2.9,25.9-17.7,33.1c2-12.9,3.8-25,5.7-37.1c1.6-3.3,4.3-9.6,4.8-9.4
		C588.8,555.1,588.5,561.3,589.9,566.4z"/>
	<path class="st51" d="M96.8,298.4c-17.1-21-13-39.4,13.9-70.9c22.5-26.3,50.4-33.5,77.5-17.8C143.4,224.8,96.1,236.3,96.8,298.4z"
		/>
	<path class="st52" d="M187.2,241.7c11.4,5.5,2.7,7-1.9,7.6c-27.2,3.2-41.2,21-50.9,45.9c-0.9-4.4-1.5-7.4-2.1-10.5
		C138.7,254,151.8,243.8,187.2,241.7z"/>
</g>
</svg>
