<?xml version="1.0" encoding="utf-8"?>
<!-- Generator: Adobe Illustrator 23.0.1, SVG Export Plug-In . SVG Version: 6.00 Build 0)  -->
<svg version="1.1" id="Layer_4" xmlns="http://www.w3.org/2000/svg" xmlns:xlink="http://www.w3.org/1999/xlink" x="0px" y="0px"
	 viewBox="0 0 1000 1000" style="enable-background:new 0 0 1000 1000;" xml:space="preserve">
<style type="text/css">
	.st0{fill:#F26305;}
	.st1{fill:#F26204;}
	.st2{fill:#FEB358;}
	.st3{fill:#FEFB64;}
	.st4{fill:#CBB89A;}
	.st5{fill:#90AFC3;}
	.st6{fill:#5F6F4C;}
	.st7{fill:#91B0C4;}
	.st8{fill:#2B5260;}
	.st9{fill:#302725;}
	.st10{fill:#F8FAFA;}
	.st11{fill:#3E4831;}
	.st12{fill:#322700;}
	.st13{fill:#CAB79A;}
	.st14{fill:#FCFCFD;}
	.st15{fill:#F8F8F8;}
	.st16{fill:#522702;}
	.st17{fill:#5D6D4B;}
	.st18{fill:#4E2502;}
	.st19{fill:#75A4A1;}
	.st20{fill:#9F521D;}
	.st21{fill:#91AFC3;}
	.st22{fill:#7B4701;}
	.st23{fill:#9F511D;}
	.st24{fill:#251201;}
	.st25{fill:#3D4730;}
	.st26{fill:#8BAABD;}
	.st27{fill:#37434B;}
	.st28{fill:#F5F5F5;}
	.st29{fill:#222316;}
	.st30{fill:#74A3A0;}
	.st31{fill:#05090A;}
	.st32{fill:#2E2524;}
	.st33{fill:#F2F0EC;}
	.st34{fill:#586646;}
	.st35{fill:#2A1401;}
	.st36{fill:#8DABBF;}
	.st37{fill:#86A5B8;}
	.st38{fill:#719D9A;}
	.st39{fill:#62714E;}
	.st40{fill:#384750;}
	.st41{fill:#7D4801;}
	.st42{fill:#6F8A9A;}
	.st43{fill:#CAB89C;}
	.st44{fill:#2E2624;}
	.st45{fill:#574A3A;}
	.st46{fill:#A29361;}
	.st47{fill:#2B515F;}
	.st48{fill:#554939;}
	.st49{fill:#554839;}
	.st50{fill:#202115;}
	.st51{fill:#9E511D;}
	.st52{fill:#242417;}
	.st53{fill:#9E8F5F;}
	.st54{fill:#E5ECF0;}
	.st55{fill:#284C59;}
	.st56{fill:#294E5B;}
	.st57{fill:#284B58;}
	.st58{fill:#2F2725;}
	.st59{fill:#261201;}
	.st60{fill:#2F2624;}
	.st61{fill:#0C181C;}
	.st62{fill:#8AA9BC;}
	.st63{fill:#3E5F6C;}
	.st64{fill:#C9B89E;}
	.st65{fill:#688F8C;}
	.st66{fill:#7A97A8;}
	.st67{fill:#50615E;}
	.st68{fill:#648683;}
	.st69{fill:#5D7583;}
	.st70{fill:#274C59;}
	.st71{fill:#658784;}
	.st72{fill:#2B2321;}
	.st73{fill:#D3D1CE;}
	.st74{fill:#050303;}
	.st75{fill:#FCFBFB;}
	.st76{fill:#090A07;}
	.st77{fill:#FAFAF9;}
	.st78{fill:#FAF9F9;}
	.st79{fill:#1A1816;}
	.st80{fill:#EEE9E2;}
	.st81{fill:#F3F6F8;}
	.st82{fill:#0C1012;}
	.st83{fill:#050607;}
	.st84{fill:#05080A;}
	.st85{fill:#040708;}
	.st86{fill:#EFF2F5;}
	.st87{fill:#090C0E;}
	.st88{fill:#274753;}
	.st89{fill:#13242A;}
	.st90{fill:#234653;}
	.st91{fill:#0C161A;}
	.st92{fill:#0B1518;}
	.st93{fill:#254855;}
	.st94{fill:#0E1F25;}
	.st95{fill:#0B0700;}
	.st96{fill:#120C00;}
	.st97{fill:#BB6E22;}
	.st98{fill:#BA6E21;}
	.st99{fill:#FC0101;}
	.st100{fill:#ED6C3E;}
	.st101{fill:#FE0803;}
	.st102{fill:#FEEE61;}
</style>
<g>
	<path class="st0" d="M946,179.7c-28.6-18.7-35.3-41.3-17.8-70.7c12.7-21.3,22.2-42.2,13.6-68.1c-4.5-13.6,2.4-26.2,11.3-36.9
		c1.3,0,2.6,0,3.9,0c-1.8,11.8,0.1,24.8,5.7,33.5c18,27.9,17.5,61.7,32.4,90.7c14.1,27.3-2.3,59.5-42,56.2
		C948.9,185.6,947.5,182.6,946,179.7z"/>
	<path d="M946,179.7c2.4,1.5,4.8,3,7.2,4.5c24.2,18.5,19.2,46.8,22.9,71.7c2.1,13.7,2,27.9,4.2,41.8c1.1,7,5.5,8.7,10.3,12.1
		c10.7,7.6,13.2,29.9,5.5,39.8c-11,14.1-30.2,20.5-39.6,8.6c-12.6-15.8-26.9-12.1-40.8-10.1c-27,3.8-54.5,3.7-81,10.9
		c-5.9,1.6-8.8,1.5-11.2,9c-6,18.6-19.6,23-39.5,15.4c-6-2.3-12.5-4.5-17,0.8c-9.2,10.8-12.8,3.7-16.7-4.1c-1.1-2.2-2-4.6-3.3-6.8
		c-5.4-8.6-2.7-25.7-20.5-21.5c-15.8,3.7-4.3,17-7.5,25.3c-9.1,23.3-28.9,37.3-46.9,52.4c-37,30.9-75,60.6-112.1,92.2
		c28.6-8,56.9-1.3,84.1,3c20.8,3.2,38.6,19.1,51.1,37.5c7,10.3,14,16,27.6,16.5c24.3,1,38.2,21.1,43.2,53.8
		c7.1,46.2,3.5,91.4-7.7,136.5c-3.4,13.8-9.2,24.6-23.6,25.5c-16.9,1.1-24.9,12.6-30.9,24.7c-12.4,25-31.4,34-58.6,32.7
		c-64.6-3.3-129.2-4.7-193.1-15.9c-4.1-0.7-8-2.4-13.5-4.2c7.7,19.9,2.6,32.8-16.8,39.6c-11.1,3.8-22.2,7-25.2,22.3
		c-1.5,7.7-11.7,15.5-20.4,15.7c-23.2,0.7-36.4,15.2-48.9,31.3c-12.7,16.3-34.4,17.4-49,31.6c-29.3,28.3-49.3,13.3-73.2-7.8
		c-23.5-20.7-39.9-44.8-30.1-78.5c1-3.6,1-5.4-3.2-6.9c-42.6-15.4-72.9-45.1-93.7-84.5c-20.8-39.4-41.9-78.6-58.8-120
		c-17.4-42.9-4.6-59.4,36.4-67c35.1-6.5,60.8-5.3,74.1,25.7c6.5,15.1-0.2,26.2-6,37.1c-6.2,11.6-7.1,20.4,1,31
		c6.4,8.4,10.8,18.3,16.7,27.1c12.7,19,27,18.1,38.4-2.4c9.5-17,17.9-34.5,27.6-51.3c10.8-18.7,25.1-33.8,47.5-37.7
		c8.1-1.4,11.8-5.2,10.8-12.8c-1.9-14.7,2.9-24.8,21.3-27.8c-23.3-7.2-44.8-7.6-63.8-18c-10.3-5.6-18.7-11.6-25-22.1
		c-10.3-17-17.3-17.1-33.9-3.6c-19.8,16-42.3,17.3-60,2.3c-23.8-20.1-27.2-42.1-14.5-69.4c9.6-20.7,33.7-31.9,55.3-26
		c10.7,2.9,16.5-3.3,23.3-8.8c22.7-18.4,56.8-8.4,66,19.6c4.1,12.5,7.8,25.1,11.9,37.6c8.1,24.9,21.9,30.7,47.9,23.6
		c36.4-10,65.5-30.2,92.6-56.1c58.4-56,119.3-109.2,180.1-162.6c23.1-20.3,46.6-32,76.6-31.4c8.6,0.2,8.4-4,9.3-10.5
		c2.3-16,5.7-31.3,27.1-33.2c10.5-0.9,10-13.2,11.1-20c5.3-33.2,16.4-64.1,30.6-94.6c6.7-14.3,16.7-21.6,30.2-25.4
		c76.1-21.5,120.6-4.1,165,61.4c13.7,20.2,15.1,48,12,73.8c-0.4,3.1-2.7,6-2.6,9c0.9,25.7-12.6,39.5-36.3,46
		c-35.7,9.8-71.2,20.1-105.9,30c30.7,23.7,67.4,19.9,103.4,17.3c7.1-0.5,15-3.7,22.5-2.9c23.9,2.5,36.4-15.7,52.3-27.7
		c3.4-2.6-0.3-4-0.6-6.1c-4.1-29.5-6.8-59.3-13-88.4C946.1,199.6,945.9,189.9,946,179.7z"/>
	<path class="st1" d="M925.8,48.8c-2.8,13.1,9.8,17.2,8.1,27.6c-0.9,5.4-1.1,11.4-6.5,12.6c-6.1,1.4-7.3-4.4-9.7-9.3
		C912.2,68.8,914.8,60.5,925.8,48.8z"/>
	<path class="st2" d="M945.5,167.9c-16.3-10.9-13.3-26-9.1-41.4c5.5-20.1,21.8-35.2,24.9-59c6.5,6.8,10.1,12.9,10.3,19.3
		c0.5,15.9,6.1,30,11.1,44.7c7.2,21,0.1,36.3-18,44.1c3.9-28.7,3.9-28.7-5.5-46.3C946.7,139.6,954.5,157,945.5,167.9z"/>
	<path class="st3" d="M945.5,167.9c-1.2-15.1,0.3-29.7,7.9-43.2c1.6-2.8,3.3-6,7-5.8c4.5,0.2,3.4,4.5,4.6,7.3
		c7.3,16.6,16.3,33-0.2,49.5C956.6,177.6,950.6,174,945.5,167.9z"/>
	<path class="st4" d="M437.2,801.1c-13.5-6.4-9.4-23.4-19.3-32c-0.8-4.3,0.4-8.7-0.7-13c-5.5-60.6-1.1-120.7,8.4-180.6
		c0.7-4.5,0.8-9,1-13.5c0.7-3.3,2-6.5,3-9.7c2-10.9,10.5-15.2,19.5-15.6c64.5-3.2,129.1-3,193.4,3.4c0.9,0.1,1.7,1.8,2.5,2.7
		c-4.3,11.8-13.9,21.1-16,33.9c-13.5,41-19.6,83-18.3,126.2c0.2,8.4,0.7,16.9-1.4,25.2c-1.7,5.7-4.5,11-9.1,14.7
		C552.7,781.2,499.2,803.2,437.2,801.1z"/>
	<path class="st5" d="M726.4,292.5c-16-6.2-21.5-19.3-23.1-35c6.7,0.6,12.4,0,16.2-7.1c4-7.4,9.2-14.1,13.8-21.1
		c25.6-38.4,25.6-38.4,8-83.2c-13.9,25.9-19.2,53.6-26.7,80.6c-2,7.2,0,17.7-11.5,19.8c0.4-44.1,17.6-83.4,35.9-122.2
		c1.3-2.8,3.9-5.3,6.4-7.1c50.5-36.9,154.7,6.4,164.2,68.2c0.5,3.2,0.1,6.5,0.1,9.7c-3.6,9.4-10.8,13.4-19.8,9.6
		c-25.5-10.8-44.4-3.6-58.8,19c-1.3,2.1-3.9,3.2-6.3,4.2c-25.2-8.4-37.1-30.5-50.9-50.3c-6.2-8.8-10.9-18.9-15.1-29
		c11.7,25.8,25.3,50.4,46.5,69.9c3.8,3.5,8.3,6.4,9.1,12.1c0,4.2-1.8,7.9-4.9,10.1C783.3,260,756.5,279,726.4,292.5z"/>
	<path class="st6" d="M625.7,570.9c4.1-11,7.7-22.3,19.4-28c20.3,6.4,30.6,24.6,44.5,38.5c3.5,3.5,1.4,6.9-0.8,10.3
		c-20.9,31.3-25.4,66.5-24,103c-0.7,30.4,9.7,61.2-3.6,91.2c-5.7,12.7-12.2,24.4-28.6,24.8c-7.4-2.2-9.6-8.7-11.1-14.9
		c-11.4-46.5-15-93.2-9.9-141.1C614.5,626.3,622.4,599,625.7,570.9z"/>
	<path class="st7" d="M460.9,429.6c39.8-36.1,79.3-72.4,119.5-108c11.4-10.1,23.2-21,40.1-21.6c0.5,0.7,1,1.4,1.5,2
		c-0.9,5.9-5.2,10.5-6.2,16.4c-4.9,15.6,3.1,27,12.5,37.8c4.1,4.7,10.1,8,10.6,15.2c-2.7,11-10,16.1-20.9,16.6
		c-3.7-1.5-5.9-4.8-8.7-7.4c-6-5.7-12.7-9.8-20.1-3c-7.3,6.8-7.3,14.5-0.2,21.8c2.2,2.3,4.8,4.3,6.4,7.1c-4.2,18.6-21.8,32-37.8,29
		c-3.3-2.9-5.8-6.8-9.7-9c-6.2-3.6-12.2-3.2-17.4,1.9c-5.8,5.7-6.3,12.1-1.4,18.7c2.6,3.5,6.4,6.2,7.4,10.9
		c-9.6,14.6-19.5,28.6-39.5,28.9c-3.7-1.3-6.6-3.9-10-5.8c-5.9-3.4-12.2-4.9-18.2-0.6c-6.9,5-6.6,11.9-3.8,19.1
		c0.9,2.4,1.8,4.8,2.1,7.4c-0.4,9.3-7.4,12.6-14.5,15.8c-12.7,2.1-23.7,9.8-38.5,6.2c-12.9-3.2-22.6,12.6-18.2,26.2
		c1.6,4.9,8.4,8.9,2.5,15.1c-7.2,8.1-10.7,20.2-23.8,21.8c-3.9-0.2-7.3-2.1-10.7-3.9c-6.2-3.3-12.2-3.7-17.6,1.4
		c-5.4,5.1-5.5,11.1-3.1,17.6c1.5,4.2,3.5,8.3,2.1,13c-13.8,12.2-18,11.9-33.2-2.7c-9.9-12.3-6.3-25.7-3-39c2.1-2.6,4.6-2.5,7.3-1.3
		c5.7,11,11.1,4.4,16.2-0.5c27.5-25.9,57.4-49,85.2-74.4c56-51.4,114-100.8,169.7-152.5c6.8-6.3,14.8-12,7-22.6
		c-1.2-1.6-4.2-1.9-5.3-0.8c-1.6,1.7,2.7,3.2,1.4,5.7c-12,8.7-22.7,19-33.6,28.9c-16.9,3.3-16.6,20.6-25.2,30.7
		c-18.5-4.4-22,12.1-30.3,21.9c-13.1,3.4-21.5,14-31.9,21.5c-1.8,0.6-3.5,0.8-5.4,0.6C461.6,434.6,459.4,433.1,460.9,429.6z"/>
	<path class="st8" d="M452.7,522.9c3.5-5.9,11.3-8.1,12.9-15.5c15.7-0.3,24.6-9.7,30.5-23c18-1.6,26.1-17.3,38.6-26.9
		c10.5-5.9,18.1-14.7,24.7-24.5c16.9-1.3,25.7-13.2,33.8-26c8.5-6.6,17.9-12.1,24.6-20.8c8.3-2.8,14.7-8,19.4-15.3
		c12.6-3.1,21.5,9.4,31.2,6.4c-6.9-2.5-19.3-1-24.9-12.5c12.9-14.3,23.3-30.6,36.5-44.7c2.5,2.9,4.9,6,7.6,8.7
		c6.5,6.6,18.9,8.8,17.6,21.2c-1.9,17.9-3.1,35.5-19.9,48.4c-41.2,31.7-81.2,64.8-121.7,97.3c-11.6,9.3-23.7,18.2-35.5,27.2
		c-5.5-3.2-0.7-8.2-2.2-12.4c-10-0.4-14.3,9.6-22.5,12.4C486.5,515.4,469.6,523.8,452.7,522.9z"/>
	<path class="st8" d="M726.4,292.5c21.2-20.1,48.9-30.6,71.7-48.3c5.4-4.2,13.1-6.1,15.2-14c20.6,3,32.5,22.1,49.8,26.4
		c-11.8-8.9-31.5-11.6-38.8-30.2c5.4-7.1,10.5-14.6,16.4-21.2c9.7-10.7,21.1-15.4,35.9-9.5c10.7,4.2,22.5,11.5,33.2-0.7
		c6.5,17.9,1.7,35.8,0.3,53.7c-0.8,10.8-6.3,18.7-16.8,21.5c-45,11.8-88.8,28.1-135,35.1C745.4,307.2,733.9,304.4,726.4,292.5z"/>
	<path class="st6" d="M437.2,801.1c32.8-6.6,66.5-9.6,97.4-24.1c25.8-12.1,51.9-23.8,70.1-47.1c6.7,4.2,8,10.7,8.5,18
		c1,15.8,7.5,30.6,7.9,46.6c-1.4,19.8-8.8,29.1-30.2,30.4c-32.9,2-66,3-98.9-0.5C470.3,824.7,448.6,825.1,437.2,801.1z"/>
	<path class="st9" d="M62.6,625.4c15.9-7.8,31.8-7.4,44.9,4.3c12.2,10.9,3.3,23.4-0.2,35.9c-9.5,34.5,10.6,59.2,30.3,83.8
		c4.6,5.8,16.3,9.5,7,20.3c-18.4-7.4-25.4-24.7-37.1-41.8c12.8,19.9,16.1,41.9,32.2,56.9c-20.2,6.5-24.7,20.9-16.7,45.7
		c-13.4-14.5-22.7-23.6-25.9-37.1c-0.4-2.4,6.4,1,2.9-3.6c-4.8-6.3-6.7-13.8-9.8-20.9c-3-9.7-6.8-19.1-11.1-28.3
		c-7.5-16.5-14.4-33.2-19.1-50.8c-7.6-28.2-1.1-43.4,24.3-58.1C77.5,628.6,68.6,631.7,62.6,625.4z"/>
	<path class="st10" d="M531.9,391c-1.5-15,4.9-25.7,17.7-33c3-1.7,4.5-0.3,5.9,2c18.8-0.2,23.8-17.3,34.2-27.9
		c-8.8-7.2-0.9-10,3.8-12.9c7.4-4.4,6.3,2.4,7.9,6.3c4.8,12,0,18.9-9.5,27.3c-87.1,76.4-173.5,153.7-260.1,230.6
		c-4.4,3.9-8.5,11.4-15.8,7.1c-5.2-3.1-1.3-8,0.8-12c1.3-3.3,4.1-5.4,6.6-7.7c7.4-6.6,13.5-14.1,17-23.6c1.8-3.9,1.6-8.4,3.6-12.2
		c7.6-6.5,15.2-13,22.9-19.6c5-2.6,7,3.3,10.9,3.7c8.1-9.3,22.4-13,24.3-27.6c9.9-12.8,15.5-31.3,37.1-29.4
		c17.3-1.6,21.7-16.6,29.5-28c9.4-8.5,13.6-25.2,31.7-20.3C511.2,406.7,518,393.9,531.9,391z"/>
	<path class="st11" d="M492.1,824.4c31.4-1.4,62.8-2.6,94.1-4.1c22.8-1.1,29.3-7,31.3-27.5c9.7,1.8,7.1,11.5,10.7,17.3
		c4.2,6.7,2.8-1.5,4.4-1.2c26-10.8,28.6-34.9,31.1-57.8c2-18.5,0.8-37.5,1-56.2c6.6,17.9,1.7,37.2,7.1,55.4
		c4.5,15.1,7.4,30.8,24.3,37.5c8.8,3.5,5.3,7.6,2,13.2c-15.1,26-33.1,41.5-67.4,36.2c-42.1-6.5-85.2-6.5-127.9-9.2
		C498.9,827.5,494.9,827.7,492.1,824.4z"/>
	<path class="st12" d="M261.7,750c7.8,0.1,18.1,11.2,21.5-6.5c10.3,20.3,8.7,31.5-11.8,44.8c-23.2,15-44.7,32.5-69.7,45
		c-17.6,8.8-30.6,7.6-41.7-8.7c6.5-13.5,26.8-13.7,29.7-30.8c3.4-3.3,6.9-1.9,9.5,0.8c9.2,9.7-1.4-7.8,4.1-3
		c7.6-5,14.9-10.4,22.5-15.3c10-6.3,16.1-14.2,15.6-26.4c12.9-3.3,15.5,12.1,23.7,12.7c3.7,3.2,3.9-0.7,2.7,1.6
		c-0.2,0.3-0.8,0.1-1.7-0.9c-3.9-3.8-10.3-6.1-8.8-13.5C258.8,748.4,260.3,748.4,261.7,750z"/>
	<path class="st13" d="M679.3,667.6c1.2-16.1-1.7-32.8,7.7-47.5c10.7,11.9,2.1,24.4,2.9,35.8c1.8-11.1,2.1-24,9.6-34.8
		c4.8-6.9,8.7-15.1,19.6-11.9c-7.8,42.8-11.2,85.9-8.2,129.5c0.9,13.8,2.1,27.2,11.6,39c-5.9,2.6-10.5,0.4-15.2-0.8
		c-13.4-7-18.1-20.5-20.9-33.3C680.8,718.8,677.9,693.4,679.3,667.6z"/>
	<path class="st14" d="M703.2,246.4c11.1-29.5,14.7-61.2,27.6-90.2c3.1-7,5.6-14.3,9.7-25.1c8.6,20.6,15.9,38,23,55.6
		c2.4,5.8-2.3,9.7-5.1,13.8c-12.9,19.4-26.6,38.3-38.6,58.3c-7.8,13-11.5,5.3-16.4-1.3C703.3,253.8,703.2,250.1,703.2,246.4z"/>
	<path class="st15" d="M429.6,552.4c0.1,3.4,0.2,6.8,0.4,10.1c-5.1,38.8-11.8,77.3-12.8,116.7c-0.8,27.8,1.6,55.2,4.7,82.6
		c-1.3,2.4-2.6,4.9-4,7.3C386.2,715.9,384.5,594.6,429.6,552.4z"/>
	<path class="st16" d="M257.3,891c-21.8-26.5-11.9-63.8,19.9-76.2c7-2.7,10.3,0.3,11.2,5.8c4,24.4,20.4,41,35.8,58.3
		c6.1,21.8-14.5,44.5-39.1,43.1c-9.5-7.6-19.6-14.6-23.9-26.8c2.5-3.4,6.7-3.7,10-5.6c23.2-13.8,25.6-33.2,6.9-52.3
		c-4.6-4.7-8.2-2.3-11.8,0.6c-11.1,8.7-12.8,20.3-10.2,33.3C257.4,877.6,263.7,884,257.3,891z"/>
	<path class="st17" d="M745.9,617.4c12.9,52.7,11.3,104.8-7.7,156c-9.2-0.9-8.4-8.7-9.3-14.5c-6.2-41.1-6-82.3,1.5-123.3
		C732,627.2,730.4,614.6,745.9,617.4z"/>
	<path class="st18" d="M191.6,887c4.8-10.9,15.1-15.3,25.6-22.9c8.2,35,27.4,60.8,56.3,79.1c7,4.5,4.2,7.2,0,11.5
		c-19.4,20.1-37.7,18.8-59.2-4.7c0.1-0.6,0.1-1.3,0.4-1.9c5.3-10.4,20.8-17.5,9.3-33.2c-7.6-10.3-13.2-22.4-27.8-24.7
		C194.5,889.9,193,888.4,191.6,887z"/>
	<path class="st19" d="M62.6,625.4c8.4,0.2,16.8,0,25.1,0.7c3,0.2,6.6,1.9,7,5.6c0.4,4.3-3.6,4.5-6.5,5.8
		c-24.5,11.2-31,23.4-23.9,48.8c5.2,18.7,12.2,36.8,18.3,55.2c1.4,4.3-0.7,5.2-4.4,4.5c-11.9-23.8-24-47.6-35.7-71.5
		C28.2,645.3,32.1,636.2,62.6,625.4z"/>
	<path class="st20" d="M257.3,891c-1.6-4.8-2.9-9.7-4.7-14.5c-8.2-22.2-1.7-35.8,26.1-51.9c5.4,13.5,10,27.5,19.7,38.6
		c1.3,1.5,1.7,6.1,0.6,6.9c-11.9,9.4-17.6,28.4-37.9,25C259.9,893.8,258.6,892.4,257.3,891z"/>
	<path class="st9" d="M336.9,765.5c-8.8,2.1-18.3,2.2-20.1-12.2c-0.8-6-4.2-6.6-9.7-5c-8,2.3-9.1-5.2-11.9-9.9
		c-3.5-6.2,0.7-10,5-12.8c23.2-15.3,29.8-25.3,44.9,7.1c1.6,3.5,4.3,6.4,6.3,9.7C365,765.2,365,765.3,336.9,765.5z"/>
	<path class="st9" d="M147.9,480.8c21.3,2.4,18,21.3,18.4,33.1c0.5,13.2-4.4,28.2-21.3,33.5c-13,4.1-24.1,4.9-31.2-9.3
		C120.2,516.1,127.7,494.7,147.9,480.8z"/>
	<path class="st21" d="M680.1,320.2c-6.8,18.7-17.2,34.4-35.6,43.5c-18-4.6-27.9-16-28.8-34.7c9.6-8.3,23-10.5,33.8-20.5
		c-9.1-5.9-19.9-0.2-27.4-6.5c-0.5-0.6-1-1.3-1.5-1.9c11.4-5,23.7-4,35.5-4C670.4,296.1,671.1,312.9,680.1,320.2z"/>
	<path class="st9" d="M206.8,539.3c-4.5-2.8-10.3-6.9-5-11.8c18.2-17.1,11.5-35.9,5.2-54.9c5.6-3.3,7.8,5.1,12.8,3.8
		c3.7,12.9,7.1,26,11.2,38.8c9.6,30.2,38.1,43.5,68.5,32.4c3.4-1.3,6.9-2.5,11.3-2.5c-7.5,9.9-7.7,24.5-21.7,29
		c-1.3-6.4-2.9-10.7-11.6-11.8C252.6,559,228.5,552.7,206.8,539.3z"/>
	<path class="st22" d="M261.7,750c-1.3,0.1-2.7,0.1-4,0.2c-14.3-0.2-13.6-13.7-19.1-21.5c0.3,7.1,7.3,13.3,3.5,21.3
		c7.1,11.4,4.4,19.6-7.7,25.4c-10.8,5.2-17.1,18.4-31.3,17.5c-10.2-3.6-14.2-11.1-13.7-21.5c0.8-1.7,2.1-2.9,4-3.4
		c23.8-2.3,32-11.9,30.5-36.2c-6.7-2-10.8,6.2-17.3,4.8c-1.9-0.4-3.3-1.4-4.3-3.1c11.4-12,24.9-20.8,41.1-24.8
		c7.5-1.8,13.4,2.7,21.1,6.5C239.3,726.7,259.3,738.5,261.7,750z"/>
	<path class="st23" d="M191.6,887c19.1,0,33.5,11.6,41.5,33.6c6.5,17.8-9.5,21.4-18.7,29.4C198.9,931.8,179.1,915.2,191.6,887z"/>
	<path class="st24" d="M363.5,804.5c10.7,17.8,12,40.5,28.6,55.4c3.4,3.1,0.9,7.8-2.9,9.5c-6.7,2.9-11.1,12-20.3,8.2
		c-5.3-2.2-10.8-4.3-13.8-9.9c5.1-15.1-6.8-21.9-14.9-30.5c-13.2-13-15.1-30.8-19.6-47.4c-0.5-7.9,3.5-11.9,11.1-12.6
		c7.9,10,6.6,23.5,12.9,34.2c3.6,6.1,7.1,12.1,12.4,17.2C363,821,356.4,811,363.5,804.5z"/>
	<path class="st25" d="M745.9,617.4c-6-0.1-7.6,4.1-8.4,8.8c-8.4,49.1-12.4,98.2,0.7,147.2c-9.6,0.1-13-1.4-14.3-10.5
		c-7.5-51.7-7.8-103.2,7.4-153.9c0.7-2.2,2.8-3.9,4.3-5.9C742.4,606.2,743.9,612,745.9,617.4z"/>
	<path class="st26" d="M275.9,724.8c16.2-12.4,29.6-28.5,50.4-34.6c6.8-2,13.3,1.7,16.9,7.4c19.2,29.7,37.9,59.7,58.8,92.6
		c-13.8-1.3-16.6-9-20.4-15.1c-12.7-20.4-24.9-41.2-37.5-61.7c-7.7-12.6-17.1-16.5-30.3-6.4c-10.9,8.3-22.8,15.4-34.3,23
		C278.4,728.2,277.2,726.5,275.9,724.8z"/>
	<path class="st27" d="M206.8,539.3c4.2-5.9,7.3-1.2,11.3,0.7c23.9,11.8,48.8,19.3,76.5,17.2c2.6,6.7-3.8,11.1-5.6,16.8
		C257,573.3,224.6,573.5,206.8,539.3z"/>
	<path class="st16" d="M363.5,804.5c0.8,10.7,1.7,21.4-2.2,34.1c-20.8-16.1-28.8-36.9-29.5-61.4c9.2,0,18.3-0.1,27.5-0.1
		c8.2,2.4,4,5.5,0.4,8.5C361,791.9,362.2,798.2,363.5,804.5z"/>
	<path class="st28" d="M375.5,734.4c-19.5-34.8-15.1-70.8-5.3-107c1.5-5.4,4.9-10.1,10.9-8.9c8.7,1.8,2.6,8.2,2.6,12.6
		c0,4.5-0.8,9-1.2,13.4c-5.6,24.2-4,48.4-0.9,72.7C382.5,723.8,386.1,731.7,375.5,734.4z"/>
	<path class="st29" d="M710.9,296.9c12.3,10.3,24.5,21.1,41.4,23.1c11.4,1.4,6.6,7.4,3,11.4c-4.7,5.4-11.1,9.3-18.8,7.1
		c-15.3-4.3-31.9-6.5-41.2-22.1C698.8,308.7,705.8,303.6,710.9,296.9z"/>
	<path class="st30" d="M147.9,480.8c1.1,4.2,0.1,7.1-3.7,9.7c-13.1,8.8-19.1,21.8-21.5,37c-0.7,4.8,1,13-8.9,10.7
		c-13.4-15-10.8-31.1-1.9-46.5C120.1,477.3,133.9,477.8,147.9,480.8z"/>
	<path class="st31" d="M344.4,616.8c-9.2-10.2-13.4-21.2-1.4-31.8c12-10.5,22.4-4.5,31.8,5c5.7,6.2,5.2,12.5,0.7,19
		c-4.3,2.8-8.7,5.6-13,8.4C356.3,622.3,350.2,622.4,344.4,616.8z"/>
	<path class="st32" d="M353.9,697c-25.2-17.6-30-17.4-54.2,1.3c-4.6,3.6-9.4,7-14.3,10.2c-8.4,5.6-13.7-0.1-17.7-6.2
		c-4.8-7.1,1-10.5,6.4-13.3c23.1-11.7,47.9-10.3,72.6-8.5C354.5,681.1,356.4,688.1,353.9,697z"/>
	<path class="st33" d="M719.1,609.3c-22.9,9.1-20,33.8-32.1,50.5c0-13.2,0-26.5,0-39.7c2.4-14.9,8.9-25.8,26-25.8
		c4.5,0,10.3-0.7,12.3,3.8C727.4,603,720.7,605.2,719.1,609.3z"/>
	<path class="st34" d="M196.2,476.1c16.8,26.2,11.7,39.1-19.5,48.3c-0.7-12.2-0.5-24.5-4.7-36.1
		C178.9,481.9,187.2,478.4,196.2,476.1z"/>
	<path class="st35" d="M285.1,922c19.8-4.3,37.7-24,39.1-43.1c26.9,20.6,26.5,20-1.8,40.4C309.6,928.6,298.1,929.1,285.1,922z"/>
	<path class="st36" d="M347.6,887.1c-40.2-24.4-63.7-67.8-44.6-87.7c0.1,32.6,16.8,54.3,40.5,71.7
		C354.2,880.2,354.6,881.8,347.6,887.1z"/>
	<path class="st37" d="M238,875.3c7.3,24.8,29,39.6,44.7,61.5c-36.8-10.1-64.1-59-52.4-89.2c5.7-0.6,5.5,3.4,5.9,7.3
		C237,861.7,234.5,868.7,238,875.3z"/>
	<path class="st38" d="M229.9,698.8c-3.1,0.8-6.2,1.5-10.6,2.6c8.3-26.6,24.4-43.4,51.3-50.3c7.2-1.8,10.9-0.4,14.3,5.2
		c1.6,3.8-0.6,6.8-3.4,7.7C260.6,670.1,247.2,687.3,229.9,698.8z"/>
	<path class="st39" d="M679.3,667.6c6.4,23.7,2,49,10.9,72.6c4.8,12.8,10.4,25,17,36.8c-11.9,2.1-20-4.8-22-14.4
		C678.6,731.4,672.8,699.8,679.3,667.6z"/>
	<path class="st16" d="M343.4,835.9c6.7,9.5,31.9,12.2,11.8,31.7c-17.3-10.7-30.3-25.4-38.8-43.8c-3.5-7.5-7.2-15.4,0.2-23
		C328.2,810.5,326,830.7,343.4,835.9z"/>
	<path class="st40" d="M139.9,784.8c-5.7,0.8-9.7-0.9-12.5-6.4c-9.9-19.3-18.6-39-23.4-60.6c12.3,18.5,26.4,35.3,40.8,51.9
		C143.1,774.7,141.5,779.7,139.9,784.8z"/>
	<path class="st41" d="M191.2,793.1c3.4,24.1-19.6,22.2-31.2,31.5c-12.3-12.9-16.1-27.5-8.7-44.3c1.8,0.7,3,1.8,3.9,3.5
		c3.4,5-1.3,15.3,7.3,15.8c9.5,0.5,11.3-8.6,12.7-16.3c0.7-3.8,1.3-7.6,4.4-10.3C190.9,775.3,190.4,784.5,191.2,793.1z"/>
	<path class="st42" d="M375.5,526.1c-3-3.6-5.9-7.2-8.9-10.7c29.3-30.9,61.8-58.3,94.2-85.7c1.4,1.4,2.8,2.8,4.3,4.2
		c-5.1,14.5-20.5,20.9-27.1,34.2c-4,0.7-5.2-9.6-10.3-3c-7,9.1-21.1,12.7-21.4,27C395,502.5,380.4,509.9,375.5,526.1z"/>
	<path class="st43" d="M375.5,734.4c6.4-5.6,1.7-11.7,1.1-17.8c-2.1-24.3-5.6-48.8,5.8-72c0,27.2-0.1,54.4,7.2,81
		c1.1,3.9,5,9.8,0.7,12.4C385.8,740.7,379.1,741.3,375.5,734.4z"/>
	<path class="st44" d="M229.9,698.8c12.2-22.1,33.7-32.2,55.1-42.5c4.7,2.5,10.5,5.6,10,10.9c-0.7,7.4-8.3,3.6-12.8,5.1
		c-8.6,2.8-17.7,4.7-23.6,12.5C251.3,694.2,241.2,697.7,229.9,698.8z"/>
	<path class="st44" d="M794.2,342.6c-7.1,6.3-14.2,12.6-21.2,18.9c-3.9,3.5-8.3,7.7-12.6,1.4c-3.4-4.9-7.9-9.8-2.8-17.1
		C768,331.1,774.7,330.1,794.2,342.6z"/>
	<path class="st45" d="M304.5,625.2c7.9,6.4,15.8,12.9,23.6,19.3c8.8,13.5,7.3,15.9-11.9,19.2c-11.5-1.9-17.8-9.9-22.5-19.7
		C300.4,639.5,298.7,630.3,304.5,625.2z"/>
	<path class="st46" d="M680.3,296.3c-4.1-7.4-7.8-15-8.3-23.6c-0.4-7.8-1.5-17.2,8.5-19.1c12.7-2.3,9.4,9,11,15.8
		c2.6,5.8,4.7,12.2,3.2,18.3C693,294.6,689.8,301.5,680.3,296.3z"/>
	<path class="st47" d="M344.4,616.8c6,0.2,12,0.4,18.1,0.7c-3,8.6-0.6,22.6-13.1,22.8c-15.8,0.2-30-6.7-37.2-22.8
		C323.1,625.2,334,632.1,344.4,616.8z"/>
	<path class="st48" d="M680.3,296.3c18-3,8.7-17.4,11.2-26.9c6.5,9.2,12.9,18.3,19.4,27.5c2.2,12.4-7.5,15.4-15.6,19.6
		C687.7,311.7,684,304,680.3,296.3z"/>
	<path class="st49" d="M390.8,843.4c-5.3-7.2-11.8-14.5-6.2-23.9c3-5,8.8-6.9,15.1-5.7c12.5,2.4,20.6,9.2,22.3,22.3
		C410.5,833.6,400.9,839.5,390.8,843.4z"/>
	<path class="st50" d="M390.8,843.4c7.9-13.3,17.7-18.2,31.3-7.3c4.7,15.5-0.4,22.2-14.9,19C400.5,853.4,393.7,850.9,390.8,843.4z"
		/>
	<path class="st51" d="M343.4,835.9c-12.8,5.2-15.5-6.1-19.5-13.1c-3.8-6.6-5-14.6-7.3-21.9c-0.6-4.5,1.5-7.9,4.1-11.2
		c9.4,0.5,6.3,8.2,7.3,13.2C330.6,815.2,337.4,825.3,343.4,835.9z"/>
	<path class="st52" d="M316.2,663.7c5.8-5.2,20.8-4.8,11.9-19.2c7.7,5.3,26.6-1.3,22.4,15.6c-3.9,15.6-18.9,5.9-29.2,6
		C319.6,666.2,317.9,664.6,316.2,663.7z"/>
	<path class="st44" d="M220.1,838c-6.9,17.6-18.3,22.9-27.9,30c-2.8,2.1-5.8,2.9-8.6,0c-3-3.1-0.9-6,0.4-8.8
		C190.3,845.5,204.6,846.1,220.1,838z"/>
	<path class="st53" d="M304.5,625.2c-1.6,7.4,6.1,20.1-10.8,18.8c-2-4.1-4.2-8-5.8-12.2c-2.5-6.5-6.6-14.1,2.8-18.1
		C301.5,609.1,300.7,620.4,304.5,625.2z"/>
	<path class="st54" d="M143.6,844.5c-14.3-21.8-15.6-29.6-6.8-45.2c4.2,9.8,8.1,19,12.1,28.2C151,834.3,156.2,842.1,143.6,844.5z"/>
	<path class="st22" d="M151.2,780.3c12.2-20.9,32-33.5,51.1-46.8c0.5,0.6,1,1.1,1.4,1.7c-3.1,11.4-7.4,22.4-11.3,33.5l-1.3,1
		c-4.8,3.4-4.7-9.1-10.4-3.2c-2.2,1.6-1.6-7-5.9-1.1c-5.4,7.5-10.7,16.2-22,16.2C152.4,781.2,151.8,780.8,151.2,780.3z"/>
	<path class="st55" d="M375.5,609.1c-0.2-6.3-0.4-12.7-0.7-19c7.9-6.6,15.8-13.1,23.7-19.7C391.9,583.9,396.2,603.9,375.5,609.1z"/>
	<path class="st56" d="M347.6,887.1c6.3-7.3-4.5-10.2-4-16c12,1.3,19.7,14.9,33.4,11.8c2.8-0.6,5.5,1.9,4.4,4.4
		c-1.1,2.5-4.1,5.5-6.6,5.9C365,894.9,355.9,892.1,347.6,887.1z"/>
	<path class="st57" d="M238,875.3c-9.2-7.4,1-20.2-7.7-27.7c-0.3-3.8-0.5-7.5-1-11.3c-0.9-7.6,4.3-11,10.1-10.2
		c5.6,0.8,8.1,6.7,4.9,12C237.3,849.8,238.5,862.6,238,875.3z"/>
	<path class="st58" d="M972.2,320.8c14.1,0.4,14.3,10.9,11,19.2c-4.2,10.4-13.4,10.5-22.2,3.7C962.3,334.9,966.8,327.6,972.2,320.8z
		"/>
	<path class="st59" d="M359.7,785.6c-0.2-2.8,4.1-5.9-0.4-8.5c15.4,0.1,17.3,2.6,21.7,30.2C367.3,805.7,370.1,788.7,359.7,785.6z"/>
	<path class="st60" d="M796.8,375.1c-3.7-0.7-10.7,1.1-9.6-5.5c1.1-6.8,7.4-10.3,14.8-10.2c4.5,0.1,10.3-0.3,9.7,6.3
		C810.9,374.2,804.1,375.3,796.8,375.1z"/>
	<path class="st61" d="M503.4,523c5.8-5.9,11.3-12.2,17.7-17.5c3.1-2.5,7.6-6.8,11.9-3.1c4.4,3.8,0.5,8-1.7,11.9
		c-1.5,2.7-2.1,5.8-3.1,8.7C519.8,517.1,511.6,521.4,503.4,523z"/>
	<path class="st62" d="M143.6,844.5c7-4.1,4.4-11.1,5.2-17.1c5.2,5.3,10.4,10.7,15.6,16c1.5,7,0.7,12.4-8.3,12.4
		C150.4,853.8,145.3,850.9,143.6,844.5z"/>
	<path class="st63" d="M324.9,574.7c-1.8,3.4-5.1,3.3-8.3,3.8c-2.5,0-5,0-7.5,0c0.3-8.3,3.8-15,10.5-20c4.7-3.8,7.2-11.5,15.6-9.1
		C340.9,561.6,323.6,564.3,324.9,574.7z"/>
	<path class="st64" d="M196.2,476.1c-5.5,9.3-14.5,11.4-24.3,12.2c-1.4-2.6-2.7-5.2-4.1-7.7c2.2-8,11-6.5,15.8-10.9
		C187.8,471.8,192,474,196.2,476.1z"/>
	<path class="st65" d="M219.8,476.3c-6.5,6.4-7.8-5-12.8-3.8c-5.6-6.7-14.5-7-23.2-10.5C200.1,456,205.1,458.2,219.8,476.3z"/>
	<path class="st66" d="M263.9,724.9c6.5,1,10.4,4.4,9.9,11.3c-0.3,3.8-0.7,7.8-6.5,6.3c-7-1.7-7.7-7.9-9-13.1
		C257.4,726,259.6,723.6,263.9,724.9z"/>
	<path class="st67" d="M94.2,769.2c3.2,6.8,7,13.4,9.3,20.5c2.7,7.9-3.8,3-6.2,3.7c-5.1-5.9-8.8-12.6-9.9-20.4
		C89.1,770.8,91.3,769.3,94.2,769.2z"/>
	<path class="st68" d="M972.2,320.8c2.6,10.8-6.9,15.6-11.3,23C953.6,330.6,957,322.8,972.2,320.8z"/>
	<path class="st69" d="M334.9,550.4c-5.1,2.7-10.2,5.4-15.3,8.1c4.3-11.7,15-16.9,24.2-23.5c0.9,4,8.1,8.1-0.2,12
		C341.3,549.6,338.5,551,334.9,550.4z"/>
	<path class="st70" d="M156.1,855.8c2.8-4.1,5.5-8.2,8.3-12.4c6.2,0.7,13.2,2.5,9.6,10.2C170.3,861.8,162.8,860.7,156.1,855.8z"/>
	<path class="st71" d="M94.2,769.2c-1.3,3-3.8,3.8-6.8,3.8c-3-9-6.1-18-9.1-26.9c1.5-1.5,3-3,4.4-4.5
		C86.5,750.7,90.3,760,94.2,769.2z"/>
	<path class="st72" d="M274.1,802.4c-4.1,9.3-12.8,12.4-24.8,20.6C256.8,808.9,266.4,807,274.1,802.4z"/>
	<path class="st73" d="M183.6,469.6c-1.2,9.5-10.9,6.8-15.8,10.9c-3.3-1.9-8.1-4.9-2.3-7.6C170.7,470.4,176.9,466.6,183.6,469.6z"/>
	<path class="st74" d="M519.3,542.4c8.3-1.3,16.7-2.6,23.7,3.9c4.9-0.9,8.6,0.4,10.6,5.4c14,13.3,30.4,23.8,42.8,39.1
		c5.2,6.4,6.6,9.4-1.5,14.2c-28.9,17.1-57.6,34.6-85.9,52.6c-7.5,4.8-11.2,2.2-15.9-3.5c-12.7-15.4-25.9-30.3-39-45.5
		c-9.7-2.7-13.3-10.6-16.3-19c0-2.4-0.1-4.8-0.1-7.2C458.3,555.7,487.5,546.3,519.3,542.4z"/>
	<path class="st75" d="M593.9,692.3c-0.4,25.1-21.1,53.4-44.6,62.2c-3,1.1-6.4,3.6-8.5-0.1c-1.3-2.4-1.8-6.9-0.5-9
		c13.9-21.9,27.4-44,38.7-67.3c1.7-3.5,5.2-6.8,9.4-4.2C595.8,678.5,593.3,686.6,593.9,692.3z"/>
	<path class="st76" d="M632.6,808.8c0.8,4.1,1.7,8.1,2.9,13.9c-11.1-8.5-11.1-21.2-18-29.9c-4.2-20.9-8.5-41.8-12.7-62.8
		c-1.8-54.2,1.9-107.6,20.9-159.1c5.6,19-4.7,36-7,54C610.8,687.3,609.6,748.8,632.6,808.8z"/>
	<path class="st77" d="M437.7,589.6c5.4,6.3,10.9,12.7,16.3,19c-10.6,38.7-18.2,77.9-22.5,117.9c-2.4-32.6-4.2-65.2,0.6-97.4
		C434,615.9,428.9,601.7,437.7,589.6z"/>
	<path class="st78" d="M519.3,542.4c-27.8,12.2-57.7,19.9-81.7,39.9c2.3-31.5,6.1-35.7,36.2-40.7C489,539.2,504.2,537.6,519.3,542.4
		z"/>
	<path class="st79" d="M421.9,761.9c-10.3-20.8-8.7-43.6-8.9-65.4c-0.4-45.2,3.8-90.2,17-133.9c3.2,0.7,4.1,3,3.5,5.7
		c-13.3,62.7-14.9,126.1-10.9,189.8C422.7,759.3,422.1,760.6,421.9,761.9z"/>
	<path class="st80" d="M553.6,551.7c-3.5-1.8-7-3.6-10.6-5.4c12.6-7.9,26-1.8,39.2-2C573,548.7,562.1,545.4,553.6,551.7z"/>
	<path class="st81" d="M783,168.6c-4.1-5.2-6.8-7.4-7.9-10.2c-5.1-12.6-22.4-28.5-12.8-37c13.2-11.5,35-13.8,57.9-7.8
		C795.2,124.6,790.7,146.1,783,168.6z"/>
	<path class="st82" d="M824.2,226.4c14.3,13.3,30.3,24.1,47.1,33.9c-22.1-4.6-39.6-18.2-58.1-30c-30.3-23.9-49.7-54.7-59-92
		C774.5,170.2,791.1,204.8,824.2,226.4z"/>
	<path class="st83" d="M900.4,178.7c0,4-3,4.4-7.7,3.3c-14-3.1-49.2-39.5-51.8-53.6c-1-5.4,0.8-7.1,6-6.3
		C858,123.5,900.1,166.7,900.4,178.7z"/>
	<path class="st84" d="M559.4,433c0.6,17.1-7.7,25.2-24.7,24.5c-10-4.2-15.9-11.5-14.2-22.5c1.4-9.1,7.6-15.3,16.8-16.3
		C547.8,417.6,556.1,421.9,559.4,433z"/>
	<path class="st85" d="M617.8,386.2c-0.8,15.7-10.5,20.9-24.6,20.8c-12.3-2.9-16.9-11.3-15.1-23.1c1.3-8.6,7.6-14.1,15.7-15.1
		C606.5,367.2,614.8,373.5,617.8,386.2z"/>
	<path class="st85" d="M496.1,484.4c-1.2,22.9-9.3,29.1-30.5,23c-11-11.1-12.6-23.3,0.8-32.3C478.1,467.3,489.5,470.7,496.1,484.4z"
		/>
	<path class="st86" d="M622,302c9.7-0.5,19.3-1.2,29-1.6c5.9-0.2,12.5,3,6.1,8.2c-11.4,9.2-22.8,20.5-39.7,19.2
		c-5.1-2.4-7.8-5.7-4.1-11.2C613.5,310.1,614.4,304.1,622,302z"/>
	<path class="st87" d="M613.3,316.6c1.4,3.7,2.7,7.5,4.1,11.2c1.8,17.4,15.4,25.9,27.1,35.9c7.8,6.6,17.4,9.6,28.9,13.2
		c-14.7,5.1-25.3-1.2-36.2-6.1c-10.2-9.5-21.9-18.2-26-32.2C609.2,331.7,603.3,323,613.3,316.6z"/>
	<path class="st88" d="M589.7,332.1c0.2,17.7-13.7,24.7-25.5,33c-4.5,3.2-8.7,1.6-8.7-5.1C564.6,347.8,572.2,333.9,589.7,332.1z"/>
	<path class="st89" d="M438,468.1c0.8-17.9,16.8-23.8,27.1-34.2c1.1-0.2,2.3-0.1,3.4,0.2C467.6,453.7,456,463.8,438,468.1z"/>
	<path class="st90" d="M531.9,391c-9.6,9-14,25.1-31.7,22.8c0.7-14,10.2-21.9,20.7-28.7C527,381.2,532.1,381.7,531.9,391z"/>
	<path class="st91" d="M647.4,398.9c5.8-0.3,8.8,1.5,6.8,6.7c-1.3,3.5-3.1,7.4-5.8,9.8c-7.4,6.4-11.6,18.2-23.8,16.9
		c-4.6-0.5-4.3-6.4-2.7-9.7C627.4,411.2,636.7,403.7,647.4,398.9z"/>
	<path class="st92" d="M568.1,483.1c-7.3-1-5.7-5.8-3.4-9.8c6.2-10.9,14.3-20.2,26.9-23.7c3.5-1,6.7,2.6,5.3,6
		c-4.9,11.8-14.2,19.7-25,26C570.8,482.3,569.5,482.6,568.1,483.1z"/>
	<path class="st93" d="M375.5,526.1c0.3-20.3,13.4-29.1,30.8-34C407.3,513.6,386.9,515.8,375.5,526.1z"/>
	<path class="st94" d="M334.9,550.4c2.9-1.1,5.8-2.3,8.7-3.4c0.5,13.8-10.7,19.7-18.8,27.7C315.4,561.3,334.7,559.8,334.9,550.4z"/>
	<path class="st95" d="M242.2,750c-5.5-10.3-11.6-20.5-2.5-33.1c5.5,12.1,6.3,25.7,18.1,33.2c3.8,9.1,13.7,11.2,21.5,18.3
		C261.4,770.6,253.8,756.3,242.2,750z"/>
	<path class="st96" d="M180.2,766.1c1.5-2.8,3.1-5.5,5.1-9.1c2.1,4.5,3.9,8.6,5.8,12.7c1.6,9,7.3,15.8,12.1,23.1
		c1.9,3.2,3.8,6.4,6,10.2c-9.3,1.2-11.2-8.7-18-10c-6.9-4.9-6.2-14-11.2-20C177.8,770.7,177.8,768.4,180.2,766.1z"/>
	<path class="st97" d="M192.5,768.7c-4.1-13.8,0.8-24.6,11.3-33.5c8.2-4.8,16.4-9.6,24.7-14.6C230,761.8,216.6,779.5,192.5,768.7z"
		/>
	<path class="st98" d="M180.2,766.1c-0.1,2.3-0.1,4.6-0.2,7c-1.8,9.6,3,20.8-7.1,28.3c-4.6,3.4-9.5,7.8-15.3,6.3
		c-7.5-1.9-5.1-9.2-5.4-14.5c-0.2-3.8,0.4-7.6,0.7-11.4c6.9-6.6,13.5-13.5,20.6-19.8C179.2,757,179,763.1,180.2,766.1z"/>
	<path class="st99" d="M523.8,554.6c12.7-4.3,20.1,5.8,29.1,11.1c5,3,9.6,6.6,13.9,10.4c6.7,5.9,13.2,12.2,20.8,19.3
		c-26.8,16.7-52,32.3-77,48.2c-5.2,3.3-9,3.6-13.2-1.5c-12.4-14.8-25.1-29.4-37.6-44c-0.5-8.9,1.8-15.6,12.1-16.7
		c21,9.9,38.2,29.1,64.3,26.3c7-1.7,13.8-4.5,14.6-12.5c0.9-8.5-7-10.9-12.8-14.4c-14.8-2.6-29.3-2.2-43.6,2.6
		c-6.7,2.2-13.6,4.3-20.4,0c-5-9.2,3.9-10.5,8.4-13C495.3,563.1,509.3,558,523.8,554.6z"/>
	<path class="st100" d="M523.8,554.6c-17.2,8.9-36.9,13.1-51.1,27.6l0.2-0.2c-6.4,3.7-9.1,10.4-13,16.1c-11-7.1-12.5-13.8,0.6-20.4
		C480.6,567.6,500.2,555.7,523.8,554.6z"/>
	<path class="st101" d="M543.7,578.1c20.5,15.8,19.1,24-5.9,34.7c-10.7-1.9-21.7-2.8-30-11.2c-9.6-9.7-7.4-18.9,5.4-23.2
		C523.3,575,533.5,576.8,543.7,578.1z"/>
	<path class="st102" d="M543.7,578.1c-9.6,4.8-20.1-1.7-30.3,3.6c-10.8,5.6-11.8,9.4-3.1,17.8c7.9,7.6,19.1,7.2,27.5,13.2
		c-27.4,2-47.8-10.9-64.9-30.7c0,0-0.2,0.2-0.2,0.2c13.3-2.8,26.4-6.2,39.8-8.1C523,572.5,534.3,569.2,543.7,578.1z"/>
</g>
</svg>
