<?xml version="1.0" encoding="utf-8"?>
<!-- Generator: Adobe Illustrator 23.0.1, SVG Export Plug-In . SVG Version: 6.00 Build 0)  -->
<svg version="1.1" id="Layer_4" xmlns="http://www.w3.org/2000/svg" xmlns:xlink="http://www.w3.org/1999/xlink" x="0px" y="0px"
	 viewBox="0 0 1000 1000" style="enable-background:new 0 0 1000 1000;" xml:space="preserve">
<style type="text/css">
	.st0{fill:#FEA7A7;}
	.st1{fill:#345072;}
	.st2{fill:#90AFC3;}
	.st3{fill:#162C34;}
	.st4{fill:#75A5A2;}
	.st5{fill:#FEC5C5;}
	.st6{fill:#302725;}
	.st7{fill:#FD0000;}
	.st8{fill:#596D75;}
	.st9{fill:#7F0000;}
	.st10{fill:#213F4A;}
	.st11{fill:#91B0C4;}
	.st12{fill:#B5F8F7;}
	.st13{fill:#AADAEE;}
	.st14{fill:#596E76;}
	.st15{fill:#FDC5C5;}
	.st16{fill:#394751;}
	.st17{fill:#FDFDFD;}
	.st18{fill:#F99C00;}
	.st19{fill:#FCFBFB;}
	.st20{fill:#FC9E00;}
	.st21{fill:#213F49;}
	.st22{fill:#586C74;}
	.st23{fill:#FB9E00;}
	.st24{fill:#A86900;}
	.st25{fill:#FCF200;}
	.st26{fill:#B3F6F5;}
	.st27{fill:#FBC4C4;}
	.st28{fill:#AEEDEE;}
	.st29{fill:#213E49;}
	.st30{fill:#0C1417;}
	.st31{fill:#F19900;}
	.st32{fill:#F8F6F6;}
	.st33{fill:#324D6D;}
	.st34{fill:#9C6200;}
	.st35{fill:#586E76;}
	.st36{fill:#365374;}
	.st37{fill:#01FA7F;}
	.st38{fill:#02FA7F;}
	.st39{fill:#9BC9DD;}
	.st40{fill:#DEFDEF;}
	.st41{fill:#C8F9E7;}
	.st42{fill:#94BFD6;}
	.st43{fill:#B5FAF8;}
	.st44{fill:#FEFBFB;}
	.st45{fill:#1A0000;}
	.st46{fill:#345172;}
	.st47{fill:#365274;}
	.st48{fill:#395677;}
	.st49{fill:#3C597A;}
	.st50{fill:#375374;}
	.st51{fill:#385476;}
	.st52{fill:#50656D;}
	.st53{fill:#06F67E;}
	.st54{fill:#0AF982;}
</style>
<g>
	<path d="M401.7,281.2c-5.4-40.2-13.3-80-15.5-120.7c-0.8-15.2-3.8-30.5-3.4-45.9c0.7-26.8,10.4-39.3,36.7-48.4
		c53.2-18.6,108.2-29.7,164.3-26.4c53.5,3.2,105,19.9,154.9,38.9c42.5,16.2,83.5,36.2,115.6,70.3c11.2,11.9,15.3,19.5,2.7,36.5
		c-36,48.4-63.7,101.4-64.1,164.3c-0.1,10.9,7.4,21.9-0.4,32.7c-5.4,15.6-17.8,27-24.6,41.7c-9.8,14.9-18.7,30.1-17.9,48.8
		c-2.8,15-11.6,27.2-18.6,40.2c-11.3,21.1-21.2,42.8-28,65.8c-2.8,9.7-1.8,17.4,6.1,24.3c11,9.5,18.8,21.3,21.2,36
		c-0.4,18.6-9,34.1-21.7,46.3c-28.2,27.3-49.5,59.7-71.7,91.6c-13.3,19.2-28,37.2-43.9,54.4c-24,18.2-49.9,21.7-78,10.4
		c-8.9-3.6-18.2-6.2-27.5-8.7c-18.2-8-36.7-15-55.8-20.5c-14.9-5.6-30.3-9.2-45.8-12.6c-16.4-5-33.4-7.1-49.9-11.5
		c-33.7-10.3-68.8-16.7-100-34.3c-14.1-9.6-25.3-21-26.5-39.3c-1.3-16.2,2.3-31.2,13-43.6c6.2-7.2,6.4-13.4,1.2-20.9
		c-3.3-4.8-5.8-10.2-9.4-14.8c-21.8-27.4-20.9-54.6,0.1-81.8c20.5-27.4,43.4-52.7,68.1-76.3c26.7-29.1,58.3-53.2,83.9-83.5
		c8.5-10.1,19.3-17.2,31.6-22.1c5.2-2.1,11.7-2.8,13.3-9.8c-0.3-13.3-3.5-26.1-6-39C404.8,309.3,396.3,295.9,401.7,281.2z"/>
	<path class="st0" d="M401.7,281.2c3.6,14.2,8.7,28.1,8.3,43.1c-4.2,9.3-13.4,10.6-21.4,11.1c-31.7,2.2-63.5,5.7-94.6-5.9
		c-18.2-6.8-16.8-5.8-17.3,13c-1.6,65.8-15,127-75.3,166.3c-8.5,5.6-9.9,10-2.8,18.3c7.5,8.7,17.2,16.2,20.6,28
		c-23.8,28.9-18.8,56.3,3.3,83.8c9.4,11.7,19.9,24,1.1,39.3c-9.7,7.9-9.6,23.3-9.8,36.4c-2.5,2.1-4.8-6.2-8.2,0.5
		c-4.7,9.1-12.8,16.1-18.7,25.8c17.3,3.8,34.7,5,51.2,9.7c31.2,15.7,65.4,23,98.2,34.1c23.7,20.9,44.4,44.2,57.8,73.2
		c3.2,7,7.2,8.5,13.6,4c7.9-5.7,16.5-10.4,24.7-15.5c17.1-10.7,34.5-20.1,55.6-18.1c6.7,2.1,13.6,3.6,19.9,6.5
		c29.4,13.6,57.3,11.9,83.9-7.1c15.1-3.8,23.5,6,32.8,14.4c3.2-7.5,2.8-17,4.9-26c17.1-72.4,60.4-123.5,127.1-155.1
		c20.2-9.6,20.7-9.3,11.2-27.8c-22-42.7-10.9-83.2,7.9-123.2c4.7-10,9.9-20,17.2-28.2c11-12.2,11.4-21-3-31.4
		c-10.2-7.4-20.8-15.8-25.2-28.9c7.5-14.2,14.6-28.6,27.5-38.9c32.9,42.9,78.4,63.2,134.1,71.5c-16.4,7.6-29.2,13.4-41.9,19.5
		c-41.3,19.7-64.6,53.3-76.8,96.5c-8.7,30.7,7,53.8,21.5,77.3c7.6,12.4,15.9,24.9,31.4,30.4c-64.6,5-115,33.6-153.5,83.6
		c-39.7,51.6-35,112.9-35.5,176c-45.2-45.2-90.2-86.5-158.2-73.5c-64.9,12.4-103.9,56.4-132.6,117c-6.2-39.7-15-74.8-33.6-106.2
		c-30.8-52-74.9-82.8-136.7-90.1c-45.8-5.4-90-1.8-134.3,8.2c-2.2,0.5-4.7-0.3-10.9-0.9c27.8-25.7,53.3-49.3,78.8-72.9
		c22.5-20.8,44.4-43.8,49.6-74.2c5.6-32-9-60.7-30.5-84.7c-26-29-60.3-43.9-96.2-55.8c-4.8-1.6-10.2-1.4-12.8-6.7
		c26.3-3.2,52.6-5.2,78.4-9.9c51.1-9.2,83-46.8,94.1-104.6c9.2-47.6-4-92-15.4-136.9c-1.3-5-3-9.9-4.1-14.9
		c-0.4-1.8,0.4-3.8,1.1-8.5C263.3,276.9,323.3,311.1,401.7,281.2z"/>
	<path class="st1" d="M699.1,281.2c-5.8,28.6-11.2,57.3-13.3,86.4c-0.9,12.8-6.6,16.1-18.8,14.7c-34.4-3.9-67.5-12.4-100.2-23.4
		c-29.7-9.9-45.5-28.7-48.4-60.8c-4.6-50.8-6.8-101,8.6-150.6c3.8-12.4,9.8-16.9,22.5-14.2c55.9,11.7,111.9,22.4,167.1,37.6
		c14.5,4,16.2,9.6,10.7,21.8c-6,13.6-11,27.8-16.4,41.7c-1.6,1.1-3.2,1.1-4.8-0.3c-5.1-28.4-6.7-29.9-30.5-28.8
		c-1.8,0-3.6-0.4-5.3-1.1c-11.5-10.1-26.2-17.3-31.7-36c-4.5,10.6-12.7,12.1-21.4,12.5c-9.2-0.5-17.5,6-26.9,4
		c-5.8-4.5-7.6-12.1-13.2-16.8c-7.5-6.3-15.6-8.7-22,0.1c-6,8.2-0.5,14.6,6.8,19.2c4.3,2.8,9.8,3.6,13.3,7.9
		c-0.9,16.5-13.1,28.7-16.9,44.1c-3.3,5.1-8.9,3.7-14.3,4.7c7.7,4.3,14.4,8.9,15.2,18.2c0.4,12,5.8,22.8,8.4,34.3
		c3.8,12,13.3,17.5,24.1,21.4c5.3,1.3,9.8,4,14.1,7.2c6.6,4,13,8.1,16.5,17c2-8.7,7-13.4,14.3-15.5c19.4-5.6,32-18.7,41.4-36
		C682.1,282.8,687.4,273.8,699.1,281.2z"/>
	<path class="st2" d="M328.1,722.7c-38.3-0.6-62-19.5-75.8-55.3c-8.2-21.4-22.2-40.5-35.4-63.8c79.9,10,156,20.4,228.5,48.6
		c9.1,4.9,19.2,7.6,28.8,11.4c9.3,3.7,17.4,8.9,23.6,16.6c8.8,10.8,16.3,22.7,11.2,37.3c-5.1,14.5-17.7,19.1-31.7,22.4
		c-21.6,5.1-42.9,3.1-63.7-1.8C385.3,731.6,356.6,727.7,328.1,722.7z"/>
	<path class="st3" d="M622.9,449.6c5.2,0,10.5-0.6,15.6,0.1c28.9,4.2,30.3,8.3,18.1,34.7c-18.4,40.1-35.9,80.4-60.3,117.5
		c-8.4,12.8-16.5,16.8-32,12.9c-64.5-16.4-127.9-37.6-193.4-50.2c-13.3-2.6-26.9-3.7-40.2-6.2c-18.1-3.4-21.4-10.4-9.7-24.1
		c14.3-16.8,30.5-31.9,46-47.7c2.1-2.1,4.4-5.5,8.1-3c3.1,2.1,3.4,5.2,2,8.6c-0.3,0.6-0.6,1.2-0.8,1.8
		c-13.9,37.1-3.3,46.1,32.5,57.6c54.9,17.6,109.9,21.7,163.7-5.5c15.8-8,21-19.6,12.4-34.7c-6.9-12.1-5.1-19.6,6.3-26.7
		c7.5-4.7,10.5-12.9,12.8-21.2C608.2,448.8,608.2,448.8,622.9,449.6z"/>
	<path class="st4" d="M430.7,162.8c0-0.6,0-1.3,0-1.9c2.3-47,2.4-47.2,48.8-40c13.4,2.1,31.1,1,38.9,9c8.8,9.1-4.2,24.2-6.8,36.9
		c-11.2,55.7-11.1,110.7,6.4,165.2c1,3.1,3.5,6.6,0.9,9.1c-10.6,10.4-19.7,23.3-33.9,28.3c-16.6,5.9-30.3-3.9-33.5-21.1
		C440.1,286.9,434.4,225,430.7,162.8z"/>
	<path class="st5" d="M219.3,555.1c-15.5-7-19.9-25.1-34.3-33.7c-8-4.7,0.1-8.1,4.2-10.5c22.5-13.4,43.2-28.5,54.9-53.2
		c18.8-39.4,32.9-79.6,25.8-124.5c-2.2-13.8,1.2-19.2,16.8-12.6c40.4,17.2,81.8,15.7,123.3,3.5c4.6,13.9,7.1,28.3,7.7,42.9
		c-26.7,12-54.6,16-83.5,12.2c-13-1.7-19.6,1.8-20.3,15.8c-1.6,31.2-12.2,59.5-29.6,85.3C262.7,505.3,241,530.2,219.3,555.1z"/>
	<path class="st6" d="M262,706.9c21.6,25.2,53.4,24.5,81.8,30.7c61.4,13.6,122.1,28.9,179.4,55.3c12.1,5.6,22.1,5.4,31.2-5.5
		c24.5-29.3,49.2-58.5,74.1-87.4c10.6-12.3,21.9-23.9,33.1-35.6c12-12.4,21.4-26,22-44.1c0.1-3,0.8-7.3,2.8-8.5
		c4.2-2.7,6.8,1.9,9.6,4.2c18.3,15.1,22.3,31.3,6.2,48.4c-41.2,43.5-73.1,94.1-110.9,140c-24.4,29.6-43,33.7-78.8,17.8
		c-29.7-13.1-61.4-20.1-91-33c6.1-6.4,13-3.6,20-2.1c24.2,5.3,46.9,14.8,69.7,24.3c35,14.5,51.5,10,74.7-19
		c24.3-30.4,47.9-61.4,70.7-93c6.5-9.1,13.2-18.1,22-25.2c-35.6,34.3-66.1,73-96.2,112.1c-21.3,27.6-31.5,32.2-65.1,21.4
		c-38.7-12.5-77.8-22.3-115.9-27.8c2-0.4,6.7-2,4.5,5.6c-46.9-7.4-92.3-20.6-137.1-36.2c-4-1.4-8.7-2.9-10.4-7.8
		c5.5-5.2,12.3-0.2,19.3-2.6C275.2,726.9,253.6,723.7,262,706.9z"/>
	<path class="st5" d="M765,421.5c15.6,9.7,25.1,26.2,41.1,35.5c8.9,5.2,4.4,10.9-0.8,17.3c-28.1,34.7-45.4,73.2-44,119.3
		c0.5,15.3,4.5,29,13.1,39.9c14,17.9,5.3,23.6-10.9,30c-54.6,21.6-91.4,62.1-116.8,113.8c-8,16.4-12.1,34.2-13.6,52.2
		c-1.3,15-5.7,17.9-18.7,9.3c-6.8-4.5-13.1-11.1-22.2-11.3c26.4-30.3,48.8-63.7,72.1-96.4c11.7-16.4,23.9-32,39.4-45.3
		c13.6-11.7,21-27.7,23.9-45.5c1.1-1.6,2.7-3.7,2-5.2c-21.8-51.8-2.6-98.4,18-144.8c2.4-5.3,5.9-10.4,6.5-16.1
		c1.4-12.1-6.1,3.3-7.3-2.1C744.2,452.2,752.6,436.1,765,421.5z"/>
	<path class="st7" d="M409.8,489c-39.9-17.2-52.5-37.9-39.9-66.7c8.3-19.2,23.7-32.1,43.1-36.6c44.4-10.2,88.6-9.5,130.3,12.5
		c13.1,13.1,12,23-6.8,31.5c-23.3,10.5-43.3,25.8-64.7,39.1c-24.2,4.4-47.7,1.8-69.2-7.2c17.5,10.5,39,7,59,11.2
		c-4.7,13.9-16.2,17.3-28.8,17.6C425.2,490.4,417.4,491.5,409.8,489z"/>
	<path class="st8" d="M328.1,722.7c36.9-0.1,72.7,9.3,109.1,13.9c17.3,2.2,33.6-0.7,49.7-4.2c17.3-3.8,22.9-18,16.1-34.3
		c-5.4-13.1-15.2-22.1-27.4-29c-10.1-5.6-21.9-8-30.2-16.8c44.7,8.1,86.7,25.2,130,38.3c7.7,2.3,7.2,5.5,3.5,10.8
		c-16.6,24.2-27.5,51.3-38.7,78.2c-2.3,5.5-3.9,9.2-10.9,5.8c-63.6-30.3-131.4-46.9-199.7-61.6C329,723.8,328.6,723.1,328.1,722.7z"
		/>
	<path class="st9" d="M472.7,464.9c17-16.2,36.5-28.2,58.1-37.3c13-5.4,26-12.2,12.5-29.5c22.8,7.7,39,22.3,46.9,45.4
		c5.9,17.3,0.4,30.6-15.5,39c-32.2,17-67.7,16.6-102.2,15.6c-20.8-0.6-42.6-0.7-62.7-9.1c18.6,0.7,35.8-3.1,50.4-15.3
		C462.4,467.9,471.1,471.5,472.7,464.9z"/>
	<path class="st10" d="M788.8,121.4c5.8,2.8,12.3,4.7,17.3,8.6c12.7,9.9,28,18.7,36.3,31.8c10.7,16.9-10.9,25.7-17.3,38.4
		c-18.5,37-39,73-45.6,114.8c-1.3,8.4-3.6,17-1.9,25c5.7,27.2-5.4,48.3-20.9,68.9c-8.5,11.3-15,24.2-22.4,36.3
		c-10.9-0.4-12.6-8.6-14.4-16.8c23.7-75.2,33.7-155,76.5-223.6c6.5-10.4,3.7-25,15.7-32.5c3.4-1.2,8-0.3,9.3-6.2
		c-7.3-5.1-17.9,2.1-24.5-5.8c5.1-7.7,1.7-14.1-2.6-20.8C790.8,134.1,783.8,129.4,788.8,121.4z"/>
	<path class="st2" d="M698.8,125.4c-56-13-112-26.1-167.9-39.1c17.4-5.1,26.9-24.6,46.5-25.7c-1.6-1.4-3.8-2.4-3.3-5.2
		c28.4-0.5,54.9,8.8,82,15.2c18.4,5.6,37,10.6,54.3,19.2c5.8,2.9,11.4,6,15.4,11.4c4.1,5.5,5.8,11.7,2.7,18.1
		c-2.8,6-8.3,7.7-14.5,7.5C708.9,126.7,703.7,127.9,698.8,125.4z"/>
	<path class="st11" d="M698.4,350.9c5.3-57.3,22-111.7,43.4-164.7c4.9-12.1,3-17.5-9.5-20.8c-95.9-25.3-193.1-44.5-291-60.4
		c-3.8-0.6-7.7,0.1-11.6,0.2c3.3-11.3,13.1-8.8,20.8-9.2c28-1.5,55.3,6,83.1,6.6c3.2,0.1,6.3,1.3,9.3-0.8
		c55.4,10.2,110.2,23.1,164.4,38.4c8.1,3.9,17.1,5,25.3,8.6c24.4,10.9,29.6,20.8,21.2,45.8c-14.2,42.5-29.1,84.8-39.2,128.6
		c-3.4,14.9-2.8,30.9-11.8,45.4C694.6,363.2,697.7,356.7,698.4,350.9z"/>
	<path class="st12" d="M542.9,101.7c-19.3,7.9-39,2.6-58.6,1.7c-18.2-0.8-36.7-6.4-54.6,1.7c-12.2,21-9.3,44.3-8.3,66.5
		c2.8,61.7,8.4,123.2,21,183.8c0.9,4.5,5.9,11.1-1.6,13.4c-9.3,2.8-8.1-6.5-9.1-11.2c-15.4-77.1-27.9-154.7-31.4-233.4
		c-1.7-37.2,8.1-45.5,44.7-39.4C477.6,90.3,510.2,96.1,542.9,101.7z"/>
	<path class="st13" d="M555,261.6c-0.7-6.4-3.4-10.7-10.5-11.6c-5.3-0.7-11.8-3.5-10.1-9.1c1.9-6.4,8.7-1.9,13.5-1.8
		c2.4,0,4.8-0.3,7.3-0.5c3.6-1.7,7.2-0.8,10.8,0.2c22.8,6.2,49.8-10,54.8-33.1c1.2-5.6,2.9-11.3,2.3-17.1c0.1-4.9-7.4-6.4-5.6-12.1
		c8.8-0.1,16.4-1.4,17.7-12.5c0.3-2.7,2-6.6,6.2-6c1.4,0.2,3.8,2.7,3.5,3.5c-5.8,19.8,12.7,23.7,21.9,33.7c2.2,2.4,4.1,4.9,6.2,7.4
		c-1.1,1.6-2.6,2.5-4.4,2.9c-2.6,0.1-5-1-7.4-1.9c-5.5-2-10.5-11.7-16.4-4.4c-5.8,7.1-7.1,17.3,0.8,24.7c8.4,7.8,13.3,17.3,17,27.8
		c1.7,4.9,3.6,10.8,9.7,10.8c8.3,0,6.3-8.3,8.5-13.2c2.1-5.4,2-11.9,7.6-15.5c6.6,1.2,7,6.6,8,11.6c0.1,10.9,1.1,21.7,3.8,32.3
		c-0.3,1.2-0.6,2.5-1,3.7c-7.5,0-12.8,1.7-16.4,10.1c-8.9,20.7-24.2,35.8-46.8,40.4c-10.3,2.1-7.8,7.8-7.7,14c0,3.4-2,6.7-5.6,7
		c-3.9,0.3-6-3-5.5-6.4c2-12.4-9.4-12.9-15.4-18.2c14.2-15.9,14.3-21.6,0.3-37.8c-3.8-4.4-8.3-8.4-10.4-13.8
		c-6-15-17.3-17.5-31.5-13.7C558.1,263.3,556.5,262.9,555,261.6z"/>
	<path class="st14" d="M698.4,350.9c0.5,3.8,1,7.6,1.5,11.4c8.7-38.3,17.3-76.5,30.1-113.7c6.5-19,12-38.5,19.9-56.9
		c8-18.8,1.4-29.4-15.4-37.2c-9.3-4.3-18.1-9.6-27.2-14.4c20.3,1.2,39.2,8.1,58.3,14.1c14.9,4.6,19.2,12,10.8,27.1
		c-22.8,41-37.7,85.2-51.9,129.7c-8.2,25.6-11.4,52.1-12.7,78.4c-0.9,18-13.7,27.1-20.3,40.6c-10.3,21-26.4,10-40.5,8.3
		c-8.8-1-18.4,1.8-26.3-4.6c8.5-8.2,19.2-5.4,29.1-5.7c7.5-0.2,15.2,1.7,22.2-2.6c11.5,0.9,15.5-4.1,15.9-15.8
		C692.7,390,692.5,370.1,698.4,350.9z"/>
	<path class="st14" d="M812,172.3c-9.1,45.6-39.8,82.2-52.1,126.8c-11.3,40.9-17.4,83.3-33.9,122.8c-1,2.4-2.4,4.6-3.6,6.9
		c-4.3,5.6-9.6,5.3-15.2,2.4c-1.9-1.9-2.1-3.9-0.5-6c12.3-8.2,14.1-21.5,15.1-34.2c5.9-72.5,33.1-138.2,62.9-203.3
		C790.6,174.8,798.6,169.6,812,172.3z"/>
	<path class="st15" d="M488.2,828.2c-31,7.5-58.4,22.3-83.2,42.1c-5.4,4.3-9.2,4.3-11.8-2.3c-12.5-31.9-32.9-57.6-59.8-78.6
		c-5.8-4.5,1.7-3.4,3.1-4.9c17.2,2.2,34.1,5.4,50.3,11.7c14.2,9.4,27.9,21.1,46.9,12.5C452.9,812.6,470.7,820,488.2,828.2z"/>
	<path class="st16" d="M405.9,785.7c-2.3-2-4.7-4-9.8-8.4c31.2,1,58.9,7,86.3,14.7c16.2,4.5,32.4,9.5,48.4,14.6
		c18.2,5.8,31.9-0.7,42.2-15.5c22.3-31.9,48.3-60.9,72.9-90.9c11.5-14.1,25.7-25.4,45.7-38.2c-26.2,34.6-49.1,65.1-72.2,95.5
		c-11.3,15-23,29.7-34.2,44.7c-15.8,21.1-40.8,28-65.9,18c-31.8-12.6-62.6-28.7-97.8-30.8C416.2,788.4,410.2,790.7,405.9,785.7z"/>
	<path class="st4" d="M506.1,373c11.8-18.1,22.3-23.3,42.1-12.9c37.2,19.5,79,24.6,120.3,29.4c8,0.9,15.8,0,14.4,12.3
		c-1.3,11.1-6.6,13.6-17,12.3c-26.4-3.2-52.9-5.7-79.4-8.2c-6.1-0.6-11.1-3.4-16-6.6C551.2,387.2,530.8,377.6,506.1,373z"/>
	<path class="st17" d="M284.3,480.4c-2.6-12.5,7.8-20.5,11.3-31c6.5-19.1,13.2-37.8,13.1-58.3c-0.1-15,4.2-22,22.5-17.8
		c28.8,6.5,57.9,0,86.4-6.2c-13.7,11.2-33.9,12-45.3,26.5c-12,15.3-25.1,29.3-39.6,42.2C316.4,450.5,300.5,465.6,284.3,480.4z"/>
	<path class="st18" d="M328.7,608.4c18.3-10.7,31.8-18.3,45.1-26.3c4.8-2.9,9.4-3.6,14.8-2.2c30,7.4,60.1,14.6,94.2,22.8
		c-16.8,9.9-30,17.9-43.4,25.3c-4.4,2.4-9.1,3.9-14.8,2.1C394.9,620.6,364.6,613.6,328.7,608.4z"/>
	<path class="st8" d="M698.8,125.4c3.2-0.2,6.5-0.3,9.7-0.5c7.4-0.4,15.1-1.4,17.3-9.6c2.2-8.2-4.4-12.6-10-17.3
		c-17.5-14.4-40.9-15.9-59.7-27.4c47.4,8.6,91.8,25,132.7,50.8c5.4,9.1,10.8,18.1,16.1,27.2c5.7,9.6,1,12.2-8.1,11.7
		c-25.4-20.4-57.3-22.9-87.1-31.3C706.1,128,702.5,126.6,698.8,125.4z"/>
	<path class="st19" d="M746.7,472.2c4.7-2.7,2.7-8.3,5.7-12.7c8.9,6.2,9.7,13.3,4.8,22.5c-17,31.5-28,64.7-32,100.7
		c-1.7,15.6,1.6,29.1,5.7,43.1c1.7,5.8,7.9,12.2-3.4,14.8c-3.3-14.6-11.2-26.7-23.5-34.4c-11-6.9-10.1-14.9-7-24.8
		c9.8-31,24.5-59.7,40.2-87.9C740.8,486.6,743.5,479.3,746.7,472.2z"/>
	<path class="st20" d="M530.1,656.1c15.9-14.4,29.8-31.7,55.2-28.8c6.5,0.7,13.9-5.2,16.8-11.6c9.3-20.1,28.2-26.6,46.3-34.6
		c-2.6,32.4-20.4,57.2-45,74.6C581.3,671.4,554.6,670.7,530.1,656.1z"/>
	<path class="st21" d="M687.1,556.7c-5.9,25-13.4,48.2-15.5,72.8c-0.6,6.7-3.7,12.6-8.4,17.1c-33.9,32.3-63.8,68-92.6,104.7
		c-1.5,1.9-3.7,3.1-8.9,7.1c6.7-20.8,11.3-39.2,25.5-50.7c34.9-28.4,53.4-67.8,74.4-105.7C670,586.9,678.6,571.9,687.1,556.7z"/>
	<path class="st22" d="M554.2,542.3c-30.7,8.7-61.5,16.6-93.7,9c26.5-13.2,26.5-18.8,0-36.6c-2.3-1.5-3.9-3.2-3.7-6.2
		c27.4-0.2,54.8-0.3,82.2-0.5C550.3,516.6,561.8,525.2,554.2,542.3z"/>
	<path class="st23" d="M335.3,480.5c7.9-5.6,16.5-8.7,29.1-10.2c-18.1,19.6-38.4,34.5-49.1,54.6c-17.5,32.7-51.5,42.8-76,65.5
		c-6.8,6.3-15.4,4.6-21.1-0.5c-4.8-4.2,1.2-8.7,4.6-12.3c3.6,0.3,6-1.8,8.2-4.2c29.7-32.2,62.9-60.3,98.8-85.2
		C332.5,486.2,335,484.1,335.3,480.5z"/>
	<path class="st2" d="M456.8,508.4c10.9,3.6,21.2,7.1,26.5,19.3c7.3,16.9,4.9,21.9-13.2,22.8c-3.2,0.1-6.4,0.5-9.6,0.7
		c-12.3-0.4-24.5-1.3-35.5-7.7c-0.3-8.3-8.1-11.2-12-17c-5.4-8-12.3-15.5-6.9-26.3C423,503,439.9,505.7,456.8,508.4z"/>
	<path class="st24" d="M530.1,656.1c6.3,1.3,12.5,2.9,18.8,3.7c32.7,4.4,59.9-2.5,76.3-34.8c7.5-14.7,18.2-27.8,23.2-44
		c4.4-5.1,10.8-6.7,18.7-10.2c-6.2,18.3-16.8,32.4-25.2,47.4c-9.2,16.3-18.9,32.3-28.6,48.3c-7.8,13-17.9,19.4-33.9,13.5
		c-16.3-6.1-33.1-10.6-49.6-16.2C522.5,661.4,523.5,658.5,530.1,656.1z"/>
	<path class="st25" d="M335.3,480.5c6.8,0.7,8.3,3.7,2.4,7.7C298,515,262.4,546.5,229.3,581c-4.9,5.1-5.9,0.7-6.5-3.5
		C250.2,533.5,282.4,495,335.3,480.5z"/>
	<path class="st26" d="M574.1,55.5c2.6,1.5,5.3,3,10.8,6.3c-23.3,0.3-30.4,28.5-54.1,24.6c0,0,0.2,0,0.2,0
		c-17.8-5.4-37.5-3-55.8-12.7c8.9-11.5,22.7-6.3,32.3-11.9C529.5,57.7,551.5,53.4,574.1,55.5z"/>
	<path class="st4" d="M262,706.9c-0.2,12.7,10.8,16.6,18.1,23.5c4,3.8,11.5,7.2,7.7,13.7c-2.7,4.7-9.5,2-14.5,0.9
		c-5-1.1-10-2.3-15-3.5c0,0-0.1,0.1-0.1,0.1c-13.1-3.3-20.8-12.7-27.3-23.6c-4.7-16.1,2.2-28.5,12.9-41.6
		C250.4,687.4,256.2,697.2,262,706.9z"/>
	<path class="st27" d="M238.3,750.5c-20.4,4.8-39.3-5.5-62.3-5c10.7-12.9,20.2-23.2,28.2-34.5c9-12.7,5.6,5,9.7,3.5
		C216.4,730.4,224.2,742.6,238.3,750.5z"/>
	<path class="st28" d="M406.1,500.3c1.7,14.2,9.6,24.6,20,33.6c4,3.5,8.4,7.5-1.1,9.6c-11.3-0.8-21.1-5.8-30.6-11.1
		c-13.8-7.6-16.2-22.3-6.3-34.3C394.9,489.7,400.2,498.7,406.1,500.3z"/>
	<path class="st29" d="M554.2,542.3c1.9-14.5-11.3-22.4-15.2-34.4c27.6-10.7,30.9-9.9,36.1,8.8C580.2,535,564.8,536.7,554.2,542.3z"
		/>
	<path class="st11" d="M676.1,425.5c-15.5,12.8-34,6.7-51.3,8.3c-9.3-4.2-24.8,4.7-28.2-14.8C623.6,418,649.8,422.3,676.1,425.5z"/>
	<path class="st30" d="M707.2,430.1c5.1-0.5,10.2-0.9,15.3-1.4c3.9,5.5,7.9,10.9,11.8,16.4c-11.5,21.7-17.9,24.3-38.9,15.6
		C703,451.9,697.1,438,707.2,430.1z"/>
	<path class="st2" d="M507.5,61.8c-7.4,8.3-20.2,2.6-27.8,10.9c16,8.9,35.7,3.9,51.4,13.6c-26.5-1.2-52.2-6.9-78.3-13.1
		C471.1,68.8,488.4,61.3,507.5,61.8z"/>
	<path class="st31" d="M691.8,492.7c-8.7,5.5-18.2,9.1-31.6,12.4c8.7-12.4,5.8-28.8,23.2-32.1C690.7,477.7,705.2,479.3,691.8,492.7z
		"/>
	<path class="st32" d="M433.8,808.8c-22,19.7-34.5,3.8-46.9-12.5C403.3,797.6,418.6,803,433.8,808.8z"/>
	<path class="st33" d="M700.1,277.5c-13.8-7.4-8.6-19.7-8-30.8c3.9-5.7,7.9-11.3,15.5-12.3c1,0,2.1,0,3.1,0
		C707.2,248.7,703.6,263.1,700.1,277.5z"/>
	<path class="st34" d="M691.8,492.7c8.6-11.4-6-13-8.3-19.7c10.6-0.8,20.9,6.8,34.8-4.9C712.3,486.3,704.2,492.2,691.8,492.7z"/>
	<path class="st35" d="M707.2,430.1c-1.1,7.3-5.5,13.9-2.7,22.2c2.4,7-3.5,8.3-9.1,8.4c-2.9-14,2.8-25.3,11.3-35.6
		C706.9,426.8,707.1,428.5,707.2,430.1z"/>
	<path class="st6" d="M230.9,718.1c7.8,9.4,17.4,16.6,27.3,23.6C242.1,741.9,234.6,732.3,230.9,718.1z"/>
	<path class="st36" d="M558.9,261.7c8.4-8.8,31.4-5.7,34.5,5.7c2.9,10.6,8.3,18.5,16.5,25.1c10.1,8,5.9,18.9,5.3,28.6
		c-0.5,8-8.2,6.3-13.7,7.1c-3.6-2.6-7.3-5.2-10.9-7.8c-1.7-0.9-2.5-2.3-2.7-4.2c1.4-14-7.7-18.2-19-20.3c-1.7-0.8-3.1-2.1-4-3.7
		C561.9,282.2,557.2,272.6,558.9,261.7z"/>
	<path class="st37" d="M575,195.8c-6.2-1.8-13-2.4-18.3-5.6c-10.1-6.1-14.9-15.5-6.3-25.8c7.9-9.4,18-12.9,28.4-2.7
		c6,5.9,11.7,12.2,11,21.7C587.6,190.9,583.5,195.9,575,195.8z"/>
	<path class="st38" d="M707.6,234.4c-4.4,5.1-8.4,10.7-15.5,12.3c-1.3-4.2-2.6-8.4-3.9-12.6c-7.8-9.1-14.7-18.6-12.7-31.6
		C699.9,194.6,711.9,206.4,707.6,234.4z"/>
	<path class="st39" d="M575,195.8c4.9-4.1,9.9-8.3,14.8-12.4c9.3-2,17.4-8.8,27.7-7.1c3.8,2.4,7.6,4.9,11.4,7.3
		c-15.8,7.6-34.1,9.1-46.8,24.1c-8.9,10.6-11.3,24.2-19.9,34.6c-2.4-1.3-4.7-2.5-7.1-3.8C557.7,222.4,566,208.9,575,195.8z"/>
	<path class="st40" d="M675.4,202.5c4.6,10.4,12.2,19.6,12.7,31.6c-1.3,5.2,1.3,11.4-3.8,15.7c-1.7-0.8-3-2-4.1-3.5
		c-5.2-11.5-8-23.9-14.3-34.9c-0.7-2.8-0.6-5.5,1.2-7.9c1.9-0.3,3.9-0.7,5.8-1C673.7,202.4,674.6,202.5,675.4,202.5z"/>
	<path class="st41" d="M566.8,291.4c1.1,0.4,2.2,0.9,3.3,1.3c8.3,6.5,16.5,13.1,19.3,24.1c0.1,1.3,0.5,2.4,1.2,3.5
		c-14,0.4-20.7-9.2-26.9-19.6C565,297.7,563.5,293.8,566.8,291.4z"/>
	<path class="st42" d="M566.8,291.4c-1,3.1-2,6.2-3,9.3c-2.1-13.2-11-24.9-8.7-39.1c1.3,0,2.6,0.1,3.9,0.1
		C561.5,271.6,564.2,281.5,566.8,291.4z"/>
	<path class="st43" d="M301.7,710.5c-41.3-21.2-44.2-66.4-69.5-95.2c47.4,7,94.1,11.7,143.8,27.5c-18.9,3.1-32-4-45.7-3.4
		c-2.5,0.1-5-1.7-7.5-1.9c-15.6-1.3-33.8-4.2-43.2,10.1c-9.9,14.9,4.8,27.5,12.2,40.1C295.2,693.5,302.4,697.3,301.7,710.5z"/>
	<path class="st44" d="M499.8,407.4c-15,4.1-28.7,7.5-42.3,11.6c-8.9,2.7-16.1,8.1-20.6,16.6c-3.1,5.9-1.4,16.6-14.1,12.9
		c-13.7-4-28.9-6.2-35.6-20.4c-5.3-11,4.7-18,11.9-24.1C419.5,387,475.1,388.9,499.8,407.4z"/>
	<path class="st45" d="M472.7,464.9c1.8,1.1,8.4,0.9,1.9,4.5c-4.2,2.4-9.5,2.9-14.3,4.3c-45.5-0.9-45.5-0.9-67.4-17
		C421.8,461.9,446.4,475,472.7,464.9z"/>
	<path class="st1" d="M562.2,242.3c5-38.1,29-59.2,66.7-58.6c6.3,31.4-20.3,45.3-36.2,63.8C586.7,254.4,572.5,244.9,562.2,242.3z"/>
	<path class="st46" d="M682.1,246.3c0.7,1.2,1.4,2.3,2.2,3.5c-2.9,6.7,5,18.5-9.1,19.8c-13,1.2-15.9-7.7-17.7-18
		c-1.7-10-7.2-18.1-15.7-23.8c-5.1-3.4-9.9-6.4-7.2-13.9c3-8.4,0.4-21.8,8.4-24.5c9.3-3.2,15.8,9.2,24,14c0.4,1.9,0.8,3.9,1.2,5.8
		C667.3,223.7,671.2,236.3,682.1,246.3z"/>
	<path class="st47" d="M625.3,315.2c-0.2-9.3,0.9-16.7,11.7-19.7c7.5-2.1,12.3-9,16.9-15.5c6.3-8.8,15-3.2,21.1-0.6
		c8.2,3.5,1.4,10.4-0.8,14.7c-7.3,14.4-18.8,24.3-34,30.4C629.8,328.8,623.7,328.2,625.3,315.2z"/>
	<path class="st48" d="M633.4,234.8c7.6-0.1,11.3,4.4,14,9.6c2.9,5.5,7.6,11.9,3.1,17.7c-3.7,4.8-9.6-0.1-14.2-1.1
		c-9-2-7.2-9-5.6-15.4C631.6,241.9,632.5,238.3,633.4,234.8z"/>
	<path class="st49" d="M621.2,244.6c-2.5,4,2.6,13.8-8.1,11.1c-4-1-12.3,0.6-10.1-7.9c1.7-6.4,6.2-12.2,13.1-13
		C623.7,233.8,620.1,240.8,621.2,244.6z"/>
	<path class="st50" d="M636.6,270.4c3.1,2.8,12.2-0.2,10.1,7.7c-1.7,6.3-7.8,10.5-14.7,11.1c-5.4,0.5-6.4-4-5.3-8
		C628.1,276.3,626.8,268.2,636.6,270.4z"/>
	<path class="st51" d="M615.9,285.5c-9.7-3.3-15.3-9.1-14-18.6c0.7-4.9,5.1-2.3,7.9-1.8C624.6,267.9,614,278.5,615.9,285.5z"/>
	<path class="st52" d="M716.4,436.1c3.5,0.8,5.6,2.9,5.4,6.4c-0.1,4.5-1.1,9.3-6.7,9.4c-4.2,0.1-4-4-4.1-7
		C710.8,440.9,712.2,437.6,716.4,436.1z"/>
	<path class="st53" d="M589.4,316.8c-8.7-6.2-15.3-14.1-19.3-24.1C589.9,293.8,595.2,300.3,589.4,316.8z"/>
	<path class="st54" d="M682.1,246.3c-19.5-8.5-22.6-16.8-13.9-37C678,219.7,681.4,232.5,682.1,246.3z"/>
</g>
</svg>
