<?xml version="1.0" encoding="utf-8"?>
<!-- Generator: Adobe Illustrator 23.0.1, SVG Export Plug-In . SVG Version: 6.00 Build 0)  -->
<svg version="1.1" id="Layer_4" xmlns="http://www.w3.org/2000/svg" xmlns:xlink="http://www.w3.org/1999/xlink" x="0px" y="0px"
	 viewBox="0 0 1000 1000" style="enable-background:new 0 0 1000 1000;" xml:space="preserve">
<style type="text/css">
	.st0{fill:#73190A;}
	.st1{fill:#EA3110;}
	.st2{fill:#531105;}
	.st3{fill:#EC3110;}
	.st4{fill:#EB3110;}
	.st5{fill:#FBFBFB;}
	.st6{fill:#FD0101;}
	.st7{fill:#FEFCFC;}
	.st8{fill:#385D65;}
	.st9{fill:#145828;}
	.st10{fill:#58AD0E;}
	.st11{fill:#2740CC;}
	.st12{fill:#14216A;}
	.st13{fill:#1E363A;}
	.st14{fill:#375C62;}
	.st15{fill:#FEFAFA;}
	.st16{fill:#CB0000;}
	.st17{fill:#74190A;}
	.st18{fill:#1E3539;}
	.st19{fill:#375D64;}
	.st20{fill:#F2ECEB;}
	.st21{fill:#7D9EC7;}
	.st22{fill:#E33213;}
	.st23{fill:#87A8D6;}
	.st24{fill:#F6F0EF;}
	.st25{fill:#CED3F2;}
	.st26{fill:#EDF6E5;}
	.st27{fill:none;}
	.st28{fill:#080201;}
	.st29{fill:#0B0201;}
	.st30{fill:#110401;}
	.st31{fill:#0D0301;}
	.st32{fill:#040302;}
	.st33{fill:#285531;}
	.st34{fill:#01FB80;}
	.st35{fill:#AFFAD6;}
</style>
<g>
	<path d="M996.1,195.3c-2-29.7-34.9-63.6-64.3-66.3c-23.5-2.2-54.5,23.1-65.3,49.2c-4.3,10.5,3.2,28.1-8.9,30.1
		c-9.9,1.6-15.1-15.3-21.5-24.5c-3.2-4.7-7.7-6.6-11.8-5.5c-5.1,1.5-3.8,7.3-4.1,11.8c-0.6,7.8,5.1,14.1,4.4,22.4
		c-0.6,7.4-3.3,12.2-8.6,16.3c-6.8,5.2-8.3-3.5-12.5-4.8c-8.7-2.6-12.3-11.4-19.5-15.2c-3.8-2-8.4-8.4-13.2-3.9
		c-3,2.8-2,8.4-0.2,12.9c4.4,11,8.4,22.2,13.2,33.1c2.6,5.8,1.2,9.9-3.3,13.6c-2.8,2.3-5.5,7.8-9.3,4.3
		c-12.6-11.4-32.3-13.2-39-33.4c-6.6-19.7-18.6-39.4-35.6-50.6C630.9,141.4,561,106.3,485,84.2c-14.5-4.2-28.1-4-39.2,7
		c-20.3,20.3-36.5,43.9-47.2,70.4c-13.8,34.4-25.1,69.3-28.6,107.2c-2.4,26-4.3,49.5,8.4,73.7c22.3,42.7,57.8,72,96.3,97.9
		c12.7,8.5,16,18,13.3,30.2c-11.9,52.4-36.2,98.1-76,134.9c-8.3,7.7-16.9,9.3-27.3,3.4c-30.7-17.6-64-29.2-98.1-37.4
		c-20.9-5-41.6-15.3-64.3-10.8c-29,5.7-50.7,25.2-72.3,42.5c-27.3,21.9-50.4,48.9-75.1,73.9c-22.7,23-25.3,38.5-6.8,64.5
		C98,783.4,130.1,824.4,173,853c25.8,17.2,38.8,33.9,34.7,65.3c-2.5,18.9,15.6,34.1,34.9,34.9c20.2,0.8,33-11.4,45.6-24.5
		c6.5-6.8,11.6-10.3,24-8.2c31,5.1,64,10.4,94-3c41.9-18.8,77.8-47.1,111.6-77.9c45.7-41.6,82.9-90.6,120.6-139.3
		c38.8-50.1,73-102.2,95.2-162.1c19-51.2,33.1-103.3,27.5-158c-2.7-26.2-3.3-49.1,11.8-72.4c8.6-13.2,13.4-10.5,22.2-3.1
		c11.3,9.6,22.9,18.9,34.8,28.7c5.2-10.6,0-17.1-2.9-24c-6.1-14.4-12.3-28.7-18.1-43.2c-1.4-3.5-5.4-7.7,0.8-11.1
		c5-2.8,7.1,1.1,9.6,3.6c7.9,7.9,16.3,15,28.2,18.7c0.1-11.6,1.8-21.6-3-31.7c-1.8-3.7-3.2-11.7,1.7-14.1c5.9-2.8,7.3,4.2,10.4,8.2
		c5.5,7.3,11.1,15.2,24.2,19.2c-5.4-12-9.5-21.2-15.5-34.6c7.2,5.2,8.5,7.9,10.3,10.6c14.8,23,45.7,34.6,68.9,26.7
		C975.4,251,997.9,222.2,996.1,195.3z M750.1,301.6c2.4-13.4-6.1-22.8-3.2-35.7C767.5,284.1,767.5,284.1,750.1,301.6z"/>
	<path class="st0" d="M425.5,359.8c17.8,2.7,31.4,14.8,47.3,21.7c10.7,4.6,20.9,10.4,31.4,15.6c45.2,22.4,65.5,17.4,97.2-21.7
		c17.5-21.6,36.4-42.1,54.7-63c18.5-7.2,29.7,5.1,39.8,16.6c19.2,21.7,22.7,49.3,23.8,76.7c2.3,59.8-14.5,115.8-38.9,169.4
		c-30.7,67.5-77.2,124.5-125.7,179.9c-30.9,35.3-66.7,65.1-103,94.7c-29.4,23.9-59.2,26.6-92.3,11.4c-7.1-3.2-14-7-21.7-8.6
		c-11.1-2.9-16.6-13.3-25.4-18.8c7.4,6.6,16.2,12.3,19.5,22.7c1.3,8,6.8,17.8-3.7,22.4c-9.9,4.4-16.5-4.1-23-10.5
		c-3.7-3.7-4.9-9.1-9.1-12.4c-26.8-31.1-47.5-31.1-74.2,0.7c-5,6-7.9,6.1-14.2,2.1c-39.9-25.2-89.8-74.9-113-113.4
		c1.8-2.9,4.1-2.2,6.4-0.7c56.1,36.6,120.4,49.8,184.4,63.4c13.2,2.8,22.8-5,30-14.3c35.1-45.6,72.3-89.7,101.8-140.9
		c14.2,13.1,23.1,29.7,31.4,46.1c8.4,16.6,14.6,34.3,22.5,53.1c3-13.7-4.2-24.6-3.2-36.3c2.3-2.3,4.5-1.4,6.7,0.1
		c28.9,20.4,28.9,20.4,54.3,0.6c15.2-6.6,22.6-21.2,32.2-33c31.2-38.6,56.9-80.3,67.8-129.7c2-9.1,3.1-17.8,0.9-26.9
		c1.6-17,12.3-34.4-2.2-50.7c-13.5-15.4-28.6-29.3-44.1-42.9c2.7,10.4,21.5,9.9,16.6,25.2c-4.6,1.9-9.1,0.7-13-1.6
		c-48.4-28.6-101.6-48.2-148.1-80.2C433.2,372.5,424.8,369.7,425.5,359.8z"/>
	<path class="st1" d="M530.9,718.4c-24,26.9-33.1,26.5-62.8-2.7c-8.1-27-20.3-51.9-37.6-74.3c7.2-11.5,20.4-15.2,30.5-23.1
		c37.7-29.8,52.6-70.6,57.4-116.4c0.6-5.4,1.1-11.6-4.1-16.2c-6.2,3.3-4.5,12.2-10.8,15.2c-3.3-0.4-5.6-1.4-3.7-5.4
		c0.5-4.5,0.7-9,1.7-13.4c7.7-36.6,7.5-36.5-22.3-56.7c-33.9-23.1-61-52.8-82.2-88.7c9.5,7.7,19,15.5,28.5,23.2
		c19.8,18,43.3,30.4,66.8,42.5c36.2,18.6,72.7,36.6,109.1,54.9c12.2-0.1,19.5,8.2,27.2,15.8c16.7,9.5,13.2,24.3,9.7,38.7
		c-1.3,5.5-6.1,9.9-4.9,16.3c0.7,26.1-10.5,48.7-21.2,71.2C591.3,643.2,565.6,683.9,530.9,718.4z"/>
	<path class="st2" d="M336.2,847.5c17.1,5.5,34.5,10.4,51.4,16.7c14.8,5.5,28.2,2.8,40.6-5.3c53.3-35,99.2-78.2,140-127.1
		c41.6-49.8,81.9-100.5,108.6-160.1c23.9-53.5,40.8-109.2,37.7-168.7c-1.2-23-4.3-46.1-18.5-66.2c-10.1-14.3-22.8-22.5-39.9-24.3
		c19.2-26.7,39.9-52.4,53.7-85.3c17.3,26,21.7,54,26.6,81.8c10.7,61.1,15.5,121.9-3.8,182.5c-23.3,73.3-60.8,138.5-108,198.9
		c-28,35.8-55.4,72-86.7,104.8c-39,40.9-82,77.5-131.8,105.2c-31.8,17.7-64.4,7.2-96.9,2.8c-7.7-1-9.1-6.5-8.3-12.9
		c1.4-11.9-2.5-23.1-4.7-34.5c4,3,8.2,5.8,12,9.1c5.7,4.9,11,14,18.6,10.9c10.4-4.2-1.5-13.4,1.2-20.1c13.8-1.6,18,14.3,28.8,15.6
		C349.6,864.7,334.7,863.3,336.2,847.5z"/>
	<path class="st3" d="M566.6,136.3c3.8,0.6,8.2,0.2,11.4,1.9c33.3,17.4,67.2,33.9,99.5,53.2c26.1,15.5,27.1,25.7,12.2,53
		c-19.7,36.2-46.3,67.3-73.6,97.6c-16,17.7-30.7,36.8-50.7,50.8c-10.6,7.4-20.7,10-32.5,4.9c-48.3-20.8-95.3-43.9-137.4-75.9
		c-2-11.4-5.7-22.9,3.7-33c4.2-1,6.1,2,6.8,5c3.8,16.3,16.4,24.8,29.6,31.6c32.3,16.7,64.6,33.4,98.1,47.6c9,3.8,16.2,3.5,23.1-2.9
		c41.9-39.2,80-81.6,107.3-132.5c8.4-15.7,4.2-25.4-12.8-35.2c-41.1-23.8-83.6-44.6-128-61.4c-8.5-3.2-17.2-6.2-25-10.7
		c-3.9-2.3-10.4-5-3.9-11.5C520.5,115.9,542.9,128.7,566.6,136.3z"/>
	<path class="st4" d="M328.4,757.8c-7.3,9.9-14.2,20.1-22.1,29.5c-5,6.1-11.6,10.9-20.4,9.1c-75.2-15.7-150.3-31.9-210.5-84.8
		c10.7-21.5,29.9-34.6,48.3-48.4c2.7-2,6-2,9.1-0.5c-9.1,10.1-17.9,20.4-27.2,30.3c-7.2,7.7-7.7,13,2.1,19.8
		c38,26.6,81.3,39.9,125.1,52.4c6.9,1.9,14,2.9,20.8,4.9c23.1,6.9,43.4,4.1,58.9-16.3C318.6,751.7,324,752.7,328.4,757.8z"/>
	<path class="st5" d="M566.6,136.3c-19.9,0.8-37.4-9.1-56.4-12.5c-6.9-1.2-13.5-4.6-20.8-2.8c-27.2,1.8-39.8,21.2-49.3,42.7
		c-16.1,36.2-29.5,73.4-33,113.4c-0.4,4.9,0.1,10.8-6.5,12.7c-1.7,10.6-3.5,21.3-5.2,31.9c-8.3-5.5-12.2-13.6-11.8-23.1
		c3.1-66.8,22.2-128.3,61.1-183.3c12-16.9,25.9-22,45-13.5C515.4,113.1,544.1,117.8,566.6,136.3z"/>
	<path class="st6" d="M952.5,154.2c31,14.3,36.2,50.7,11.4,79.9c-46.2,18.3-80.7-9.6-77.4-62.7C901.8,144.9,927.8,138.1,952.5,154.2
		c-6.2,4.5-13.7,2.8-20.7,4c-10.5,1.7-17,7.1-15.4,18.4c1.7,11.7,11,13.4,20.6,13.1c10.3-0.3,17.6-4.5,17.6-16.3
		C954.7,166.9,950.9,160.8,952.5,154.2z"/>
	<path class="st7" d="M502.8,499.9c2.4-8.7,4.8-17.3,7.5-27.2c11.6,6.5,16.3,16.7,14.6,28.5c-9.1,61.6-32.1,114.3-94.4,140.2
		c-5.6-2.2-9.5-6.2-12.7-11.2c10.5-17.1,28.8-26.7,40.3-43.2C477.1,559.9,490.3,530.2,502.8,499.9z"/>
	<path class="st1" d="M363,671.7c8-18.8,0.6-29.7-17-38.1c-32.8-15.6-65.5-30.7-101.6-37.8c-9-1.8-17.6,2.4-26.1-1.3
		c4.3-11.6,13.6-11.8,23.7-10.8c31,3.1,59.7,14.5,89,23.6c5.5,1.7,11,3.4,16.4,5.4c14.4,6,29,11.7,43.2,18.2
		c14.4,6.6,18.8,16.3,8.4,30.4c-6.1,8.2-11.1,17.2-16.6,25.8C368.6,691.3,361.8,686.6,363,671.7z"/>
	<path class="st8" d="M140.7,691.3c8,6.5,17.4,9.8,27.2,12c22.4,4.2,45.4,5.5,66.5,15.4c8.4,32.4,36.3,29,62.2,32.4
		c-5.4,9.7-11.1,15.5-21.6,13.7c-41.4-7.1-81.9-17.2-119.1-37.8c11.5-3.2,11.5-3.2,23.9,2.2c-8.9-4.7-21.3-8.1-30.4-17.1
		C143.8,706.6,135.1,701.8,140.7,691.3z"/>
	<path class="st9" d="M215.2,605.4c29,14.7,34,38.1,11.6,60.3c-15,14.9-32.5,25.9-55,25.6c-6.6-20-0.4-37.9,13.7-50.9
		C197.1,629.7,207,618.4,215.2,605.4z"/>
	<path class="st10" d="M215.2,605.4c1.7,10.6-2.2,21-10.4,25.2c-25.3,13.1-30,36.1-33,60.7c-14,2.3-22.7-3.5-24.4-17.5
		c-1.9-15.1-11.6-30.7,1.2-45.5c4.8,2.3,7.2,7.3,13.8,11.4c-7.5-19,11.9-22.8,16.6-34.8C191.2,597.4,203.2,599.1,215.2,605.4z"/>
	<path class="st11" d="M287.2,656.2c9.9-2,18,1.8,25.6,7.5c6.6,10.5,0.9,19.3-6.1,25.5c-13.2,11.7-25.1,23.5-26.7,42.3
		c-0.3,3.2-3.8,4.9-7,5.9c-21,1.9-26.6-11.2-28.5-28.6c-1.2-11.1-0.7-21.7,5.9-31.3c4.4,2.7,3.9,9.2,9.8,12.3
		C259.5,670.5,274.6,664.4,287.2,656.2z"/>
	<path class="st12" d="M273,737.5c3.5-4.9,4.2-10.5,4.4-16.4c0.4-11.7,5.2-20.6,16-26.5c12-6.5,19.4-16.5,19.3-30.9
		c19.5,5,25.9,15.3,20.6,33.4C325.2,724.8,303.2,739.5,273,737.5z"/>
	<path class="st13" d="M249.8,847.5c21.5-7,33.5,1.1,41,27c5.7,19.7-4.8,34.3-16.3,47.2c-10.3,11.6-22.9,22-40.7,12.7
		c5.8-14.2,16.4-25.6,21.7-40.4C261.7,876.7,262.7,861.6,249.8,847.5z"/>
	<path class="st14" d="M246.1,617.2c-4.1-4-8.3-7.9-16.5-15.8c46.9,9.9,87.2,23.1,122.8,47.2c14.9,10.1-2.2,21.6-3.3,33.6
		c-6.8-15.2-17.6-24.9-32.6-29.9c-15.5-10.5-31.7-19.8-50.2-24C258.5,626.4,252.3,621.7,246.1,617.2z"/>
	<path class="st15" d="M952.5,154.2c13.1,17.5,12.6,31.8-2.1,39c-11.7,5.7-24.1,5.7-34.7-3c-7.7-6.3-9.7-15.3-5.6-24.6
		c5.6-12.9,16.8-15,29.1-13.9C943.7,152,948.1,153.3,952.5,154.2C952.6,154.1,952.5,154.2,952.5,154.2z"/>
	<path class="st16" d="M886.4,171.4c5.8,13.5,2.2,29.2,12.2,42c17.4,22.2,39.4,26.5,65.2,20.7c-21.8,19.3-45.8,20.8-66.8,4.1
		C877.5,222.6,873.4,196.8,886.4,171.4z"/>
	<path class="st17" d="M363,671.7c1.8,11.1,9.4,14.7,19.4,15.4c-18,23.5-36.1,47.1-54.1,70.6c-5.3-1.3-10.6-2.7-15.9-4
		C331.7,727.9,353.8,703.8,363,671.7z"/>
	<path class="st18" d="M234.4,718.7c-23.4,0-45.7-4.5-66.5-15.4c28.5-4,53.4-15.5,74.4-35.3l-0.2-0.2
		C237.8,684.6,232.6,701.1,234.4,718.7z"/>
	<path class="st19" d="M249.8,847.5c16.7,2.8,17.9,15.6,15.4,27.8c-4.6,22.5-10.7,44.8-31.4,59.1c-3.4-2.1-6.5-4.5-7.1-8.8
		c9.4-23.5,14.3-48,15.5-73.2C243.4,848.6,246.5,847.9,249.8,847.5z"/>
	<path class="st20" d="M347.5,612.8c-14.2,2.9-26-5.6-38.9-8.5c-21.3-4.7-42.4-9.9-63.5-15.6c-10.3-2.8-18.9-0.9-26.7,5.9
		c-5.8-0.8-11.5-1.6-19.1-2.6c7.7-11.2,18.6-18,29.3-16.4C270,581.7,310.8,590.9,347.5,612.8z"/>
	<path class="st18" d="M246.1,617.2c25.2,8.1,53.2,10.8,70.4,35c-28.3-11.1-53.4-7.5-74.4,15.8c0,0,0.2,0.2,0.2,0.2
		C247.4,651.4,255.6,635,246.1,617.2z"/>
	<path class="st21" d="M140.7,691.3c3.2,15.3,16.1,20.8,27.8,27.7c7.1,4.2,15.4,6.9,21.1,14.2c-12.8,4.3-21.8-8.7-33.7-6.2
		c-7.9,1.1-12.8-4.8-18.6-8.3c-27.4-16.3-27.4-16.4-3.4-39.6C139.4,681.3,137.8,687.7,140.7,691.3z"/>
	<path class="st22" d="M502.8,499.9c-13.9,52.9-38.5,98.7-85,130.4c-3.9-1.5-8.2-3.7-2.7-7.6c44.8-31.4,66.9-77.8,84.6-127.1
		C500.7,497,501.7,498.4,502.8,499.9z"/>
	<path class="st23" d="M242.2,852.3c7.5,27.1,2.1,51.4-15.5,73.2C215.8,898.9,223,864.8,242.2,852.3z"/>
	<path class="st24" d="M132.8,662.6c-22.1,12.9-39.1,31.7-57.5,48.9c-5.1-8,2.4-11.7,6.2-15.9c15.8-17.7,32.2-34.9,49.3-53.3
		C134.1,649.9,137.7,655.8,132.8,662.6z"/>
	<path class="st25" d="M287.2,656.2c-0.9,7.8-8.4,9.1-13,13.2c-8.9,7.9-14.4,16.2-3.2,28.3c-17.7,1.6-23-5.6-20.5-20.1
		C258.5,663.3,272.1,658.5,287.2,656.2z"/>
	<path class="st26" d="M179.1,605c11.3,0.4,5.2,3.4,1.2,6.9c-9.6,8.3-24.1,15.2-10.3,32.4c-13.9,2.3-20.3-3.2-21.3-15.9
		C156.3,617.3,167.3,610.6,179.1,605z"/>
	<path class="st27" d="M750.1,301.6c2.4-13.4-6.1-22.8-3.2-35.7C767.5,284.1,767.5,284.1,750.1,301.6z"/>
	<path class="st28" d="M530.9,718.4c26.5-39.9,57.2-77.1,77.9-121c10.5-22.4,19.1-45.4,24.8-69.4c8.3,19.5-2.5,36.3-8,53.6
		c-16.7,53-50.2,95.6-87.1,135.8C536.4,719.5,534,722.9,530.9,718.4z"/>
	<path class="st29" d="M336.2,847.5c7.2,13.7,22.5,18.5,35.2,30.4c-20.8,0.2-30.4-14.2-43.4-22.2c-8.3-9.6-16.6-19.1-27.1-31.1
		C317.4,829,325.2,840.7,336.2,847.5z"/>
	<path class="st30" d="M628.6,473.1c-9.1-5.3-18.1-10.6-27.2-15.8c-8.8-11.5-23.5-17.6-31-32.6c9.4-2.1,15.1,3.9,19,8
		C602.2,446.3,620.1,455.2,628.6,473.1z"/>
	<path class="st31" d="M516.3,449.5c28.2,20.3,57.3,35.8,95.3,45C563.2,497.3,521,476.9,516.3,449.5z"/>
	<path class="st32" d="M400.6,289.8c5-52.8,18.9-102.8,46.8-148.3c9.4-15.3,20.5-29.2,42.1-20.6c34.5,15,69.2,29.4,103.3,45.2
		c21.7,10.1,42.8,21.9,63.6,33.9c19.7,11.4,22.6,21.9,11.1,42c-28.2,49.5-65.2,92.1-106.5,131.1c-9.7,9.1-19,10.3-31.5,3.7
		c-31.6-16.6-64.1-31.5-95.9-47.7C417.3,321,401.1,311.7,400.6,289.8z"/>
	<path class="st33" d="M422.9,219.5c7.2-24.3,17.1-47.5,29.6-69.5c12.7-22.2,20.4-24.8,44.1-15.1c49.7,20.4,99.8,39.8,146.1,67.4
		c25.2,15,26.4,18.3,11.5,43.9c-11.4,19.6-25,37.7-39.8,54.8c-14.7-2.2-24.3-14.5-38.1-18.8c-7.3-2.3-4.5-9.9-2.8-15.3
		c4.8-16.2,10.6-32,17-52c-10.1,10.3-19.6,16.8-25.1,25.8c-14.5,23.5-40.3,25.4-62.3,33.7c-11.7,4.4-13.6-6.6-11.2-15.8
		c4.2-16.1,10.1-31.7,16.1-49.1C480,225.3,455,256.7,422.9,219.5z"/>
	<path class="st33" d="M605.3,312.3c-15.7,18-30.7,36.6-49,52.2c-8.3,7-15.4,7.6-24.6,3.1c-32-15.8-64.4-30.7-96.2-46.9
		c-24-12.2-27.9-22.4-23-48.9c2.8-15.1,2.8-30.7,8.4-45.3c6.6,1.5,11.3,6.3,16.6,9.9c11.3,7.6,22.3,9.8,34.2,1
		c4.5-3.4,10.3-7.6,16-3.1c6.5,5.1,3.1,11.8,0.8,17.9c-2.8,7.1-7.7,14-0.3,21.5c7.9,8,15.8,2.7,24.6,2.4
		c20.9-0.6,35.3-9.7,48.1-24.5c3.1-3.6,8-8.5,13.3-4.3c4.8,3.8,2,9.7,0.2,14.5c-6.3,17.1-12.2,34.3-19.8,52.3
		c10.4-5.2,13.7-19.4,25.3-19.4C591.4,294.5,600.6,300.8,605.3,312.3z"/>
	<path class="st34" d="M605.3,312.3c-25.6-16.6-25.7-16.6-46.5,6.4c-3,3.3-5,7.4-7.4,11.1c-1.8-1.3-3.7-2.6-5.5-3.8
		c9.4-26.1,18.9-52.1,29-80.1c-11.2,5.1-15.4,13.6-21.9,19.7c-8.9,8.4-15.2,22.4-31.6,11.9c-4.3-2.7-8.7,1.8-11.5,5.3
		c-5.5,6.8-10,4.4-16.4,0.7c-13.6-7.8-21.3-16-10.2-31.7c2.9-4.2,6.3-9.7,4.8-16.1c-14.5,0.1-21.8,20.4-36.8,12.8
		c-11-5.6-25-8.1-30.3-22c0.7-2.3,1.4-4.7,2.1-7c29,22.8,53.2,9.6,76.7-10.1c3.8-3.2,8.7-5.2,15.6-9.2
		c-6.2,19.7-11.7,36.9-16.9,54.1c-1.6,5.2-7.2,11.5-1.4,16c6.9,5.4,9.8-3.3,13.7-6.7c4.9-4.3,9.1-7.3,15.1-2.4
		c7.4,5.9,11.5,0.1,16.1-4.5c8.8-8.6,18.1-16.8,26.7-25.7c8.5-8.9,16.4-18.4,24.5-27.6c1.7,1.1,3.3,2.2,5,3.2
		c-6.8,21-13.6,42-20.4,63c-1.6,4.8-5.8,8,5.1,10.2c11.7,2.4,23.4,10.7,31.8,21.1C611.4,304.8,608.3,308.5,605.3,312.3z"/>
	<path class="st35" d="M442.4,196c3.3-21.5,11.9-34.6,22.6-46.7c8.6-9.7,19.2-9.7,30.3-6.3c19.3,5.9,37,15.1,58.6,27.4
		c-16.3,5.9-28.1-0.1-39.7-2c-13.4-2.2-27.2-6.7-39.6,1.4C464.1,176.5,455.2,185.4,442.4,196z"/>
</g>
</svg>
