<?xml version="1.0" encoding="utf-8"?>
<!-- Generator: Adobe Illustrator 23.0.1, SVG Export Plug-In . SVG Version: 6.00 Build 0)  -->
<svg version="1.1" id="Layer_4" xmlns="http://www.w3.org/2000/svg" xmlns:xlink="http://www.w3.org/1999/xlink" x="0px" y="0px"
	 viewBox="0 0 1000 1000" style="enable-background:new 0 0 1000 1000;" xml:space="preserve">
<style type="text/css">
	.st0{fill:#000100;}
	.st1{fill:#010101;}
	.st2{fill:#5D0404;}
	.st3{fill:#5F0505;}
	.st4{fill:#045C2A;}
	.st5{fill:#043E1D;}
	.st6{fill:#2C764C;}
	.st7{fill:#049241;}
	.st8{fill:#032F16;}
	.st9{fill:#2C5D41;}
	.st10{fill:#049643;}
	.st11{fill:#032B14;}
	.st12{fill:#03401D;}
	.st13{fill:#03682E;}
	.st14{fill:#928F55;}
	.st15{fill:#565132;}
	.st16{fill:#B0AD76;}
	.st17{fill:#918E54;}
	.st18{fill:#045B2A;}
	.st19{fill:#565131;}
	.st20{fill:#817D4B;}
	.st21{fill:#575232;}
	.st22{fill:#053E1D;}
	.st23{fill:#049743;}
	.st24{fill:#908D54;}
	.st25{fill:#2A9F5D;}
	.st26{fill:#033F1D;}
	.st27{fill:#A29F6C;}
	.st28{fill:#09120A;}
	.st29{fill:#8B8851;}
	.st30{fill:#8E8B53;}
	.st31{fill:#2C744B;}
	.st32{fill:#043A1B;}
	.st33{fill:#049442;}
	.st34{fill:#2B5C40;}
	.st35{fill:#03692E;}
	.st36{fill:#043D1D;}
	.st37{fill:#555031;}
	.st38{fill:#ADAA74;}
	.st39{fill:#2C5C40;}
	.st40{fill:#8C8951;}
	.st41{fill:#03451F;}
	.st42{fill:#055B2A;}
	.st43{fill:#05883D;}
	.st44{fill:#7C7848;}
	.st45{fill:#04391A;}
	.st46{fill:#575332;}
	.st47{fill:#063D1E;}
	.st48{fill:#8A8751;}
	.st49{fill:#0C130A;}
	.st50{fill:#8A8750;}
	.st51{fill:#0C1F0F;}
	.st52{fill:#9B9863;}
	.st53{fill:#555131;}
	.st54{fill:#192718;}
	.st55{fill:#87834E;}
	.st56{fill:#544F30;}
	.st57{fill:#16291A;}
	.st58{fill:#08170C;}
	.st59{fill:#035927;}
	.st60{fill:#79754B;}
	.st61{fill:#04381A;}
	.st62{fill:#045B29;}
	.st63{fill:#059141;}
	.st64{fill:#042B14;}
	.st65{fill:#049542;}
	.st66{fill:#053C1C;}
	.st67{fill:#918E55;}
	.st68{fill:#055929;}
	.st69{fill:#8C8952;}
	.st70{fill:#AFAC76;}
	.st71{fill:#8E8C53;}
	.st72{fill:#585333;}
	.st73{fill:#03411E;}
	.st74{fill:#059443;}
	.st75{fill:#0B1C0E;}
	.st76{fill:#5D5836;}
	.st77{fill:#B7B47C;}
	.st78{fill:#172014;}
	.st79{fill:#035325;}
	.st80{fill:#131F11;}
	.st81{fill:#6D6A42;}
	.st82{fill:#E30404;}
	.st83{fill:#C90404;}
	.st84{fill:#FCEEEE;}
	.st85{fill:#FEFBFB;}
	.st86{fill:#075C2A;}
	.st87{fill:#CA0404;}
	.st88{fill:#FDF5F5;}
	.st89{fill:#FEF9F9;}
	.st90{fill:#0B1209;}
	.st91{fill:#2C754B;}
	.st92{fill:#FDF1F1;}
	.st93{fill:#033B1B;}
	.st94{fill:#0C5A2C;}
	.st95{fill:#2A7349;}
	.st96{fill:#0A5829;}
	.st97{fill:#049844;}
	.st98{fill:#01190C;}
	.st99{fill:#010D06;}
	.st100{fill:#032512;}
	.st101{fill:#0C1A0D;}
	.st102{fill:#2AA25E;}
	.st103{fill:#10130B;}
	.st104{fill:#182615;}
	.st105{fill:#03672E;}
	.st106{fill:#182215;}
	.st107{fill:#2BA15E;}
	.st108{fill:#112011;}
	.st109{fill:#630404;}
	.st110{fill:#7F0404;}
	.st111{fill:#7B0404;}
	.st112{fill:#830404;}
</style>
<g>
	<path class="st0" d="M276.9,468.5c33.7-21.9,70.1-38.2,108.2-50.3c33-10.5,63.5,0.5,92.4,15.7c16.9,8.9,20,25.6,6.8,43.9
		c-6.5,9.1-0.3,15.1,1.9,20.4c1.7,4.2,12.2,3.9,17.5-0.2c7.9-6.2,14.8-16.7,25.9-12.2c16,6.4,31.1,16.8,36.2,33.9
		c4.8,16.3,13.3,32.6,5.1,51.4c-5.5,12.7,2.6,26.4,3.7,39.8c3.7,41.5-18.7,74-35.8,108.1c-27.1,54-63.1,101.5-108.3,142.1
		c-41.9,37.6-88.2,69.6-142.8,81.2c-24,5.1-46.9,19.3-73.4,15.4c-15.1-2.2-29.8-4.8-43.1-12.3c-14.9-8.4-17.3-21.4-8.1-36.1
		c7.5-12-1.4-23.6-5.7-32.4c-3.5-7.1-14,1.3-20.2,7.4c-22,21.7-38,19.6-55.3-6.5c-31.8-47.8-38.5-95.9-4.2-145.9
		c11.4-16.5,16.9-36.1,20.6-55.9c10.3-0.5,13.2,6.5,14.7,14.8c1.3,12.7,7.6,25.4-0.6,38c-19.5,48.7-9.2,91.6,28.8,119.4
		c16.8,10.9,33.4,6.5,51.7-0.5c-7.5-13.2-16.8-24.2-21.1-37.9c-3.8-16.3-7.3-32.6-3.9-49.4c4-13.8,2.7-29.4,13.2-41.1
		c1.6-1.6,3.4-2.6,5.6-3.1c5.7-0.7,11,1.3,12.8,6.5c6,17.3,13.9,34.5,9,53.6c-7,4.2-8.6-2.1-10.5-6c-4.6-9.7-7.3-20.1-8.3-30.5
		c-12.6,44.2-3.5,78.3,29,106.9c4.4,3.9,8.4,11.1,16.1,5.2c10-14.7,5-25.7-7.2-36.6c-10.9-9.7-25.9-17.8-21.8-36.8
		c8.6-5.1,11.1,3.1,14.9,7.3c8.6,9.5,17.5,18.8,27.2,27.1c9.9,6.3,16-2,22.2-6.7c34.5-25.9,34.3-26.1,5.3-57.4
		c-5.8-6.2-11.7-12.4-12.2-21.6c0.2-1.9,0.9-3.5,2.1-5c11-1.1,15.8,7.6,21.1,14.5c8.3,10.8,17.7,20.5,27.7,29.6
		c3.2,2.9,6.6,9,12.5,3.3c4.9-18.4-13.1-25.5-19.1-38.4c-0.4-3.1,1.1-5.1,3.9-6.2c10.3-0.9,14.3,9.4,22.4,12.4
		c26.4-11.2,38.9-35.7,54.4-57.1c3.8-5.2-0.6-9.7-5-12.8c-9.4-6.7-16.5-16.2-26.2-22.6c-4.6-3.2-8.9-6.8-13.6-9.9
		c-9.9-6.6-21.4-8.1-32.5-11.1c-7.8-2.1-17.2-3-16.8-14.8c0.4-2.1,1.3-4,2.7-5.6c22.3-15.2,46.2-12.4,70.3-6.2
		c16.4,5.7,32.6,12,46.4,22.9c5.9,4.7,11.4,6,15.8-1.9c25.8-43.4,25.8-43.4-17.1-67.7c-6.4-3.7-13.5-5.8-20.4-8.2
		c-11.9-4.3-22.7,1.6-34,3.3c-6.5,1-13.2,1.8-17.4-4.7c-3.9-6.2,0.6-10.8,4-15.5c9.5-14.1,31.2-17.4,33.3-38.5
		c0.5-4.9,6.4-2.3,9.6-0.1c21.1,14,48.1,7.8,69.9,21c7.5,4.5,9.8-4.1,7.1-10.3c-5.4-12.4-15.4-21-27.4-26.7
		c-30.7-14.7-62.3-18.7-94-3.5c-17.4,8.3-37.6,2.8-54.5,12.6C281.7,479.1,276,477.2,276.9,468.5z"/>
	<path class="st0" d="M359.4,63.1c33.4,1.8,66.5-7.8,100.3,2.5c27.1,8.3,42.3,26.5,54.6,48.9c5.4,9.8-0.9,17.7-9.8,21.8
		c-7.2,3.3-11,7.9-7,14.8c3.3,5.6,6.6,9.5,15.8,2.9c11.7-8.4,28.8,10.3,29.6,32.1c1.4,38.7-14.3,72.5-38.9,99.7
		c-41.7,46.1-93.5,79.6-153.6,96.6c-49.9,14.1-100.2,21-153,6.8c-24-6.5-43.2-14.6-60.7-31.3c-10.4-9.9-7.7-17.3-1.4-26.4
		c4-5.7,9.7-10.7,12-16.9c3.1-8.7,2-15.2-11.1-11.6c-28.4,7.8-39.4,0.7-42.1-28.5c-3.4-36.5,6.1-69,37.4-90.9
		c15-10.5,25.6-25.2,40.2-35.7c9.9,0.7,7.6,8.1,7.7,14.1c-2,6.7-2.5,14.1-8.3,19.1c-1.6,1-3.3,1.8-5.2,2.4
		c-12.4,1.9-19.5,11.9-28.3,19.2c-24.8,17.5-28.1,43.2-26.7,70.5c0.4,9.1,5,14.4,14.6,14.4c5.4,0.1,9.6-2.4,13.3-5.9
		c2.3-1.6,4.8-2.2,7.5-1.3c3,1.3,5.3,3.6,7.9,5.3c19.4,12.9,23.4,11.2,25.3-10.8c0.3-3.3,1.2-6.3,3.4-8.8c3-1.9,5.1-0.5,6.9,1.9
		c4.4,9.2,5.2,19.6,8.9,29c2.1,5.4,1.6,13.3,10.6,13.4c8.9-4.2,9.9-12.9,12.1-20.9c1.3-1.4,2.8-2,4.7-2.1c2.7,0.5,5.1,1.7,7.5,2.9
		c18.7,5.8,35.2,0.1,50.8-10c6.2-2.8,8.7,8.4,15.3,4c9.2-11.4-7.2-22.8,0-34.1c13.1-2.6,10.8,13.7,19.8,16.1
		c13.4-2.2,25-9.2,37.5-13.8c13.9-5.1,17.4-13.2,9.1-25.9c-2.1-3.2-3.5-6.8-5.2-10.2c-2.6-5.6-5.1-11.2-8.2-16.5
		c-4.1-12.8-24.5-14.3-22-31.7c1.1-1.7,2.7-2.9,4.5-3.6c17.3-2.4,32.7-0.5,40.8,17.9c-1.5,2.8-4,4-6.9,4.6c-1.8,0.3-5.3,0.7-5.2,0.8
		c8.7,18.1,14.7,37.6,27.3,53.7c2,2.5,5.8,2.5,9,2.4c8-4,1.2-10.8,3.1-15.9c1.9-9.5,12.8-7.2,17.4-13.2
		c18.7-10.9,21.8-27.3,16.8-46.7c8.9-2.6,11.8,4.8,15.9,9.8c4.1,5,8.1,9.8,15.4,5.6c5.1-5.8-1-13.5,3.3-19.4
		c11.5-17.7,9.7-31-4.9-48.2c-6.9-8.2-20.3-12.6-17.5-27.2c12.2-3.8,16.7,7,23.9,12.6c7.4,5.8,11.6,14.9,19.9,21.5
		c1.6-26.1-27.5-43.4-77-47.1c8.1,0,16.2,0.1,23.9,2.6c6.3,2.1,12.4,4.8,6.5,13.2c-26.9-1.7-53.1-7.8-79.3-13.7
		C361.3,75,355,71.9,359.4,63.1z"/>
	<path class="st1" d="M745.9,351.2c30.3-26.4,59.1-55.8,102.7-57.9c13-0.6,26.9,0.5,36.5,11.9c5.1,6.2,6.9,13.4,1.3,20.2
		c-5.3,6.5,1,8.6,3.9,12c3.5,4.2,6.6,2.1,9.7-1c6.7-6.6,12.4-16.5,24.2-11.3c13.2,5.9,24.9,15.5,28.1,29.4
		c4.3,18.3,9.9,36.1,15.3,54c5.8,19.5-3.7,39-7.9,57.9c-14.4,63.9-45.8,118.5-94.7,163c-23.8,21.7-53.8,31.5-81.8,45
		c-11.9,5.7-26.9,2.3-39.1-3.7c-6.7-3.4-15.9-10.1-6.1-19.6c8.5-8.2-2.9-10.5-4.4-15.3c-2.4-7.5-6.8-0.7-9.8,1.8
		c-24.9,20.5-42.9,16.2-60-13.8c-14.1-24.8-14.9-50.7-5.5-76.7c4.2-11.7,5.8-23.3,6.5-35.4c9.8-4.3,11,3.8,13.8,9.6
		c0.4,1.9,0.5,3.8,0.4,5.7c-0.5,3.7-1.9,7.2-3.3,10.6c-3,7.4-5.8,14.8-6.8,22.8c-3.7,23.2-1.7,45,15,63.2c5.1,5.5,9.8,12.5,19.2,9.4
		c8.2-6.1-0.2-11.1-1.2-16.5c0.3-3,2.2-4.6,4.9-5.3c16.5,4.3,32.4,6.3,43.4-11c5.8-3.2,11-0.9,16.3,1.4c3.9,1.8,7.3,2.1,9.1-2.8
		c1-4.2,0.9-8.5,1.9-12.6c0.5-1.7,1.2-3.3,2.2-4.8c13.7-11.2,22.5-26.9,34.8-39.4c2.6-1.8,5.7-2.6,8.2-4.6
		c2.6-6.8-5.9-11.6-3.1-18.3c1.7-2.1,4-3.5,6.3-4.8c15.1-14.9,20.3-34.5,25.3-54.2c5.4-4.5,13-3,18.6-7.1
		c4.2-10.7-11.9-9.4-10.8-18.2c2.3-4.6,7.5-6.7,9.4-11.5c4-10.8,6.2-21.9,4.9-33.5c0.2-1.8,0.9-3.4,2.2-4.8
		c11.4-5.4,12.1-13,4.7-22.3c-0.4-13.5-15.3-22.3-12.4-37c5.7-11.6-2.9-13.9-10.8-15.1c-18-2.7-35.1-1-49,12.6
		c-16.2,12.3-30.2,28-50.5,34.3C751.9,358.5,747.8,356.9,745.9,351.2z"/>
	<path class="st2" d="M109.9,692.1c-0.7-7.7-5.2-12.6-11.6-16.2c-15.7-24.3-16.1-49.6-5.2-75.7c16.5-39.6,39.8-74.7,70.1-105
		c29.9-30,63.7-45.3,106.1-26.7c2.2,0.9,5.1,0.1,7.7,0c2.1,5.4,6.1,8.2,11.8,8.5c21.9,7.7,43.4,15.9,48.1,42.9
		c-2.1,33.6-16.5,61.5-39.4,85.5c-0.2,1.4-0.5,2.7-0.7,4.1c-2.4,9.5-7,17.7-13.2,25.2c-11.2,12-19.5,26.9-33.8,36
		c-3.5,2.3-6.8,4.9-9.4,8.3c-7.5,11-18.9,17.8-28.5,26.5c-8.9,5.6-18.5,9.7-28.3,13.4l0.2-0.2c-6.2,6.9-14.1,10-23.1,10.8
		c-15.8-1.1-29.7-6.4-40.3-18.7C116.6,704.7,110.5,699.9,109.9,692.1z"/>
	<path class="st2" d="M175.2,165.5c0.1-6.1,2.8-12.7-3.6-17.5c-5.2-27.2,11.7-43.8,30.1-58.2c30.4-23.9,63.8-43.2,102.2-50
		c21.8-3.9,40.6,6.9,55.5,23.3c-0.1,5.6,3,9.1,7.8,11.4c27.1,19.2,29.4,40.6,7,64c-12.2,12.7-25.5,23.5-42.3,29.4l0.1-0.1
		c-5.2,6.6-11.9,11.3-19.3,15.1c-10.7,5.6-21.8,10.2-33.7,12.9c-3.7,0.8-7.3,1.9-10.9,3.2c-9.4,3.3-19.1,5.4-28.6,8.1
		c-12.6,1.8-25.2,1.7-37.9,0.4C181,201,176.1,184.5,175.2,165.5z"/>
	<path class="st3" d="M676.3,523.7c-3.4-4.4-3.8-11.8-11.5-11.9c-20.5-18.6-18.7-41.4-11.5-64.7c8.9-28.9,22.1-55.9,40.4-80.1
		c11.6-15.5,31.4-21.2,52.2-15.7c4.1,1.2,8.3,2.5,12.4,3.7c24.6-2.5,38.5,8.6,39.9,31.7c0.9,15.6-1.1,30.7-8.2,44.8
		c-4.3,8.7-7.2,18.1-11.9,26.7c-5.4,10.4-10.9,20.8-17.6,30.6c-5.6,6.7-10.9,13.7-16.1,20.8c-5.5,5.9-11.3,11.5-16.9,17.3
		c-4.9,4.8-10.5,8.2-17.4,8.9c-5.8,0.5-11.6,0.4-17.2-1.2C686.4,532.4,680.7,529.1,676.3,523.7z"/>
	<path class="st4" d="M433.6,820.6c-12.3-10.4-24.1-21.5-37.1-31.1c-8.4-6.2-18.5-14.9-28.5-2c-10.7,13.8-9.5,34.6,2.4,42.3
		c10.2,6.6,21.1,12.1,31.7,18c-21.7,7.8-35.3-6.1-48.4-19.1c-10-9.9-27.6-7.5-33.4,5.6c-1.7,3.8-0.5,6.6,2.8,7.9
		c20.5,7.9,40.5,17.9,63.5,15.8c6.9-0.6,12.2-4.1,15.7-10.2c5.5,0.3,11.3-2.1,17.8,2.7c-14.4,9.3-23.3,24.7-40.7,28.8
		c-4.7,1.6-9-0.3-12.7-2.6c-18.4-11.5-38.3-7.3-58-5.8c-35.3-17.3-44.6-10.4-42.7,31.2c-3.4,1.6-7.4,0.6-8.5-2.1
		c-7.9-18.3-23.4-15.6-38.8-16.2c-9.3-0.3-22.4,6.3-27.1-9.2c39.9,3.4,69.6-18.7,100.1-39.5c61.3-41.9,107.2-98,148.1-158.9
		c2.9-4.3,6.4-8.1,9.6-12.1c14.2,7.3,9.4,17.5,4.3,27.8c-1.5,2.4-3,4.8-4.5,7.2c-24.7,15-36.4,36.3-33.9,65.8
		c1.5,18.2,17.6,26.1,24.9,40.1C441.6,811.8,440.6,817.5,433.6,820.6z"/>
	<path class="st5" d="M332.6,519.6c-0.1-15.7-12.8-21.1-23.2-28.4c-6.8-4.8-13.7-9.5-20.6-14.2c10.1-7.2,20-13.4,33.7-8.9
		c7.8,2.6,14.6-4.3,21.6-7.4c37.2-16.7,90.4-6.9,117,21.9c3,3.3,5.9,6.9,8.1,10.8c3.5,6.4,6.8,14.3,1,19.8c-5.7,5.5-12.9,2-19.6-1.7
		c-13.7-7.4-27.9-13.6-44.3-11.6c-10.6,1.3-19.9-0.5-23.6-14.7c4.1,29.3-25.5,26.9-34.8,42.3C340,530.1,335.8,525.8,332.6,519.6z"/>
	<path class="st4" d="M245.8,668.3c14.1-9.6,22.3-24.8,34.6-36.1c15.5-2.4,29.8,2.6,43.9,7.9c4.4,15.1-11.1,21.1-14.5,31.3
		c5.4-9,15-16.9,17.5-29c3.5-10.4,9.9-14.5,20.5-9.8c3.8,2.7,7.5,5.5,11.3,8.2c4.1,33.2-6,64-16.6,94.6c-1.4,4.1-4.7,7.9-10.4,6.7
		c-6.6-5.2-13.1-10.3-19.7-15.5C285.9,712.1,266.6,689.4,245.8,668.3z"/>
	<path class="st6" d="M183.5,718.8c7.4-7.8,16.3-13,26.5-16.2c21.6-5.8,36.7,0.7,46.4,19.8c-1.3,6.8-7.3,10-11.3,14.7
		c-4.1,4.8-11.2,5.8-14.3,10.6c7.2-5.5,16-10.4,22.4-18.2c2.2-1.7,4.2-3.9,7.3-4c2,0.7,3.2,2.1,3.7,4.2c17.6,24.1,19,48.5,1.7,73.3
		c-4.9,7-10.1,13.5-19.7,13.6c-16.4-9.8-25.8-26.6-39.1-39.4l0.2,0.3c0.3-17.1-7.5-32.6-9.4-49.3C196.8,720.5,190.9,718,183.5,718.8
		z"/>
	<path class="st5" d="M453.6,692c-2.4-9.1,3.3-19.5-4.3-27.8c6.6-10.5,13.1-21,19.7-31.5c13.1-4.7,24.4-13.9,38.8-15.3
		c18.7,11.2,19.2,32.5,27.7,49.4c11.5,22.8-12.7,34.4-16.4,55.9C510.1,680,482.8,683.7,453.6,692z"/>
	<path class="st7" d="M191.6,874.7c14.2,8.5,29.9,4.7,44.6,3.5c11.7-0.9,18.8-0.8,20.4,12.7c0.6,4.9,4,9.5,9.4,11.2
		c10.6,7.9,23.2,10.7,36.5,13.3c-35.8,25.2-92,12.4-117-10.2c-5.9-5.4-9.6-12.1-10-20.4C174.9,872.2,179.6,867.8,191.6,874.7z"/>
	<path class="st8" d="M332.6,519.6c5.1,2.6,10.2,5.3,15.3,7.9c-1,4.1-7.7,6.5-4.9,11.4c3.2,5.6,8.4,2.8,13.6,1.9
		c12.6-2,25-11.3,38.2-1.8c-2.2,3.5-6.5,4.8-8.9,8.2c-4.3,9.1-5.9,19.5-12.1,27.5c-4.9,6.4,2.7,6.3,3.8,9.4
		c2.1,7.3,1.7,13.7-6.3,17.3c-24.9-4.7-49.7-6.7-73.7,4c9.4-18.1,19-36.1,28.2-54.4C330.6,541.3,332.7,530.7,332.6,519.6z"/>
	<path class="st9" d="M507.8,617.3c-11.6,8.5-22.7,18.2-38.8,15.3c8.1-18.2,18.5-35.3,24.1-54.8c4.4-15.7,1.5-29.2-4.8-43
		c-2.5-5.5-11.3-10.4-5.7-16.7c6.2-6.9,14.3-1.8,21.3,1.5c15.5,10.6,26.5,24.3,29.8,43.5c1.5,8.9,1.3,16.7-6.2,22.9
		C517.6,594.3,500.5,598.2,507.8,617.3z"/>
	<path class="st10" d="M175.8,812.6c9.7,11.3,13.9,26.1,26.6,37.1c-22.1,6.5-41.5,18.8-62.1,2.4c-1.6-2.1-3.9-3.3-5.8-5.1
		c-19.5-17.7-19.6-17.8-6.8-40.1c3.6-6.2,3.6-13.9,8.8-19.3c4.4-2.9,9.2-3.2,14.1-2.6c1.9,0.4,3.7,1,5.3,1.9
		C163.5,794.7,167.7,805.2,175.8,812.6z"/>
	<path class="st11" d="M433.6,820.6c2.5-5,4.7-10.1,3.9-15.9c-4.5-6.9-1.9-13.9,0.2-20.6c7.2-22.7,4.3-47.7,15.6-69.5
		c18.8,8.8,27.8,25.9,36.8,43c3.8,7.2,2.1,13.4-3.4,19.4c-19,20.8-37.9,41.8-56.8,62.7c-1.5-1.2-2.4-2.7-2.9-4.5
		c-0.2-2.9,0.6-5.4,3.2-7.1C431.3,825.6,432.4,823.1,433.6,820.6z"/>
	<path class="st12" d="M453.3,714.6c-0.3,30.9-7.1,60.7-15.8,90.1c-33.9-27.2-37.7-55.2-13.7-90.8c6.5-9.6,14-14.7,25.3-14.8
		C448.8,704.8,450.2,709.9,453.3,714.6z"/>
	<path class="st13" d="M156.2,789.2c-1.3-0.1-2.6-0.2-4-0.2c-10.5-4.5-23.7-0.2-32.5-10.4c4.3,6.3,13.2,4.9,17.4,11.2
		c0.2,8.7-0.9,18-7.7,23.3c-13.3,10.5-9.4,18.3,1.4,27c3.9,3.1,6.4,7.9,9.5,11.9c-40.4-21.4-55-80.8-30.9-125.5
		c18.2,1.9,24,16.2,30,30.2c3.4,8,3.8,17.9,14.3,21.1C162,784.9,162.1,785.1,156.2,789.2z"/>
	<path class="st14" d="M305.9,612.7c45.2-15.7,105,5,126.8,40.9c4.9,8.1-0.5,12.2-5,13.3c-11.5,2.6-23.4,7-34-4.9
		c-8.5-9.6-19-17.6-29.2-25.5C348.3,623.6,332,610.3,305.9,612.7z"/>
	<path class="st5" d="M332.1,742.1c12.2-10.5,11.6-26.2,15.1-39.8c5.3-20.2,8.1-41,11.9-61.5c11,9,22,17.9,32.8,27
		c3.4,2.9,7.7,6.4,4,11.4c-17.2,23.5-34.8,46.7-57.6,65.3C336.3,746.3,333.6,744.7,332.1,742.1z"/>
	<path class="st5" d="M382.8,543c2.8-4.7,7.5-3.8,11.8-4c6.9,1.6,13.9,2.8,19.6,7.5c-6.9,28.2-0.7,53.1,19.2,74.4
		c-5.3,10.7-11.6,15-21.3,4.1c-11-12.3-27.9-14.7-40.9-23.6c3.7-6.1,4.3-12.7,3.7-19.6C372.2,567.9,383.1,556.6,382.8,543z"/>
	<path class="st15" d="M342.1,450.8c34.5-26.3,95.8-28.4,128-4.4c7,5.2,8.5,11.5,4.1,18.6c-4.1,6.6-8.8,9.5-17.7,4.8
		C405,441.9,401.3,441.6,342.1,450.8z"/>
	<path class="st9" d="M433.4,621c-25.5-12.4-35.2-49.9-19.2-74.4c52,29.3,49.7,15.3,21.1,71.1C434.7,618.8,434,619.9,433.4,621z"/>
	<path class="st16" d="M124.9,874.8c-12.6,13.4-22,11-32.3-4c-34.2-50.1-27.2-97.8-1.2-132.4c4.7,6,0,10.7-1.2,15.5
		c-10.2,40.5-1,75.9,27.5,106.3C121.5,864.3,126.9,867.8,124.9,874.8z"/>
	<path class="st17" d="M476.2,554.4c-8.5,11.5-17.1,11.6-29.3,3.5c-26.5-17.6-53.7-35.5-88.4-24.5c-1.7,0.6-1.9,0.2,0.5-6.5
		c39-22.5,74.4-12.1,108.3,11.7C472.6,542.3,477.9,546.5,476.2,554.4z"/>
	<path class="st17" d="M239.1,856c-3.4,5.7-6.8,8-13.9,3.6c-38.2-23.4-57.8-83-40.4-125c1.4-3.3,3.8-10.8,7.2-0.7
		c0.6,19.4,6.6,37.8,10,56.6c3.1,17,11,31.3,23.6,43.3C232.1,839.8,239.8,845.5,239.1,856z"/>
	<path class="st18" d="M246,816.7c32.8-25.3,32.2-56.4,15.8-90.3c1.4-1.3,2.6-1.2,3.7,0.3c8.1,16.9,23.1,27.9,35.5,41.1
		c5.4,5.7,10.4,10.6,1.9,17.3c-14.2,11.3-28.3,22.7-42.7,33.7C255.2,822.6,249.6,824.8,246,816.7z"/>
	<path class="st19" d="M239.1,856c-38.6-31.9-50.6-74-47.1-122.1c6.3,14.1,5.2,30.8,15.1,43.7c0,0-0.2-0.3-0.2-0.3
		c0.4,15.4,11.3,24.5,21.8,32.4C246,822.7,251,837.1,239.1,856z"/>
	<path class="st20" d="M507.1,725.4c-0.1,1.9,0.3,4-0.4,5.8c-2.5,7.1,1.6,18.6-6.7,20.8c-8.9,2.4-9.1-10.3-14.4-15.3
		c-7.9-7.6-14-17-22.1-24.3c-10-9-5.3-11.8,4.2-15C492.2,689.2,507.8,700.2,507.1,725.4z"/>
	<path class="st17" d="M124.9,874.8c-10.8-11.6-22.1-22.5-30.1-36.6c-15.6-27.6-17.3-55.4-4.6-84.2c-2.5,40.2,7.5,75.5,40.4,101.6
		C145,866.9,129.8,869.3,124.9,874.8z"/>
	<path class="st19" d="M476.2,554.4c-26.6-27.3-57.8-40.6-96.3-31.9c-6.9,1.6-13.9,3-20.8,4.5c32.9-30.3,90.2-25.9,116.6,9.1
		C480.1,541.9,483.9,548,476.2,554.4z"/>
	<path class="st12" d="M308.6,871c25.7-15.1,48.7-7.5,70.7,8.5c-11.1,15.3-24.4,19.4-41.1,8.5C328.7,881.7,316.9,879.3,308.6,871z"
		/>
	<path class="st21" d="M309,729.7c13.3,11.7,29,22.1,22.6,43.9c-7.7,1.6-11.6-4.2-16.2-8.4c-17-15.7-32.6-32.7-46.2-51.3
		c-5.5-7.5-12.2-15.4-8.4-26.2c1.1-0.9,2.7-1.7,3.4-1.1C279.4,700.7,298,711.2,309,729.7z"/>
	<path class="st22" d="M527.4,585.9c8-27.7-7.1-47.3-23.5-66.4c28.8,10.8,51.8,42.1,53.8,79.7C547.2,594.7,540.5,582.2,527.4,585.9z
		"/>
	<path class="st17" d="M261.1,688.4c14.7,35.7,43.4,59.8,70.4,85.2c-1.9,14.1-8.4,5.2-12.9,2.3c-21.5-14.3-34.1-37.3-52.6-54.5
		c-9.6-7.4-13.8-18.5-18.7-28.9c-2.5-5.4-7.8-13.7,0.8-16.5C255.1,673.6,261.7,679.1,261.1,688.4z"/>
	<path class="st23" d="M152.3,780.9c-12.6,2.4-13.2-8.1-14.8-15.3c-4-17.2-13.7-29.6-28.1-39c7.4-11.4-2.6-23.1,0.5-34.5
		c3.8,4.8,7.7,9.5,11.5,14.3c8.2,14.2,21.5,23.9,32.4,35.8c0.8,1.8,1.1,3.6,1.3,5.5C151.5,758.5,157.8,770.2,152.3,780.9z"/>
	<path class="st19" d="M556.3,566.8c-7.5-21.9-20.7-34.3-34.8-46c-4.5-3.7-13.7-5.7-6.2-14.4c6.1-7.1,12.3-7.5,20-1
		C553.3,520.6,563.7,538.3,556.3,566.8z"/>
	<path class="st15" d="M430.2,828.1c-0.2,2.7-0.5,5.4-0.7,8.1c-18.7,4.2-34.2-2.4-47-15.3c-9.1-9.2-11-20.2-3.6-31.8
		C399.8,797,415,812.6,430.2,828.1z"/>
	<path class="st21" d="M285.7,866.7c18.1,9.4,36.2,18.6,54.1,28.2c2.5,1.3,8.5,1.8,4.5,7.5c-15.8,7.5-31.8,4.5-47.3-0.3
		C278.3,896.3,274.7,883.8,285.7,866.7z"/>
	<path class="st24" d="M555,656.5c-6.7,9.9-12.1,13.7-16.6-1.9c-4.5-15.3-11.4-29.7-23.2-41c9.6-13.2,16.8-14.8,27-5
		C555.9,621.8,557.8,638.6,555,656.5z"/>
	<path class="st25" d="M152.3,780.9c-3.3-11.6-7-23.2,0.1-34.8c10.2-1.9,18.9-1.4,19.7,12.1c-2.7,18.4,3.2,36.2,3.6,54.4
		c-13.2-2.2-16.9-12.4-19.6-23.4C160.6,783.8,154.8,783.1,152.3,780.9z"/>
	<path class="st26" d="M347.9,632.6c-9.8-1.6-14.3,5.4-18.9,12c-1.6,2.2-3.2,2.2-4.8-0.1c-14.1-5.7-30.1-4.7-43.7-12.2
		c5.4-7.6,10.8-15.2,16.3-22.7c3,12.1,14.5,9.2,22,10.6C329.7,622.3,339.4,625.4,347.9,632.6z"/>
	<path class="st27" d="M242.8,937.4c-23.1,10.7-44.9,6.1-65.9-5.3c-3.9-2.1-10.2-5.5-6.2-12c3.9-6.4,9.2-7.9,16.4-3.4
		C204.1,927.3,222.5,934.3,242.8,937.4z"/>
	<path class="st28" d="M261.1,688.4c-4.6-2.6-5-10.9-13.2-9.4c0.8,16.3,15.7,26.7,18.2,42.3c-0.2,1.8-0.4,3.6-0.6,5.4
		c-1.2-0.2-2.5-0.3-3.7-0.3c0,0,0,0,0,0c-10.8-15.5-26.2-29-23.2-50.8c2.4-2.4,4.8-4.9,7.2-7.3c26.5,14.5,44.4,38.8,66.6,58.2
		c-1.2,1.1-2.3,2.1-3.5,3.2C292,717.1,279.3,699.6,261.1,688.4z"/>
	<path class="st29" d="M378.9,789.1c-0.3,29.4,14.8,43.3,50.6,47.1c0.2,1.2,0.4,2.4,0.4,3.6c-22.7,4.9-41.3-5-58.2-17.7
		C362.1,814.9,366.6,798.4,378.9,789.1z"/>
	<path class="st30" d="M285.7,866.7c-5.8,20.8,2.1,32.8,24.1,35.3c11.4,1.3,23,2.8,34.6,0.4c-13.4,8.5-58.3,6.8-69.3-2.7
		C265.3,891.4,270.4,875.7,285.7,866.7z"/>
	<path class="st15" d="M555,656.5c-1.3-13.4-3.5-26.3-11.1-38.2c-8.5-13.3-16.9-16.9-28.8-4.7c-5.1-14.7,9.6-13.7,15.8-18.6
		c5.7-4.6,12.2-0.3,16.5,5.4C560.3,617.7,563.3,636.3,555,656.5z"/>
	<path class="st31" d="M172.2,758.2c-3.5-9-13.3-7.8-19.8-12.1c-0.1-1.2-0.2-2.5-0.2-3.7c-0.4-7,2.9-12.1,8.2-16.1
		c7.7-2.5,15.5-5.1,23.2-7.6C179.9,731.8,176,745,172.2,758.2z"/>
	<path class="st32" d="M331.9,167.9c11.8-9.9,24.2-19.2,35.4-29.7c23.5-21.9,23.7-24.9,7.3-52.4c-2.3-3.9-5-7.5-7.4-11.3
		c27.7,3.3,55.2,8,82.2,15.2l-0.1-0.1c8.2,9,16.2,18.3,24.8,26.9c12,12,11.9,26.4,9.1,41.4c-1,5.4-3.8,9.9-10.7,6.3
		c-0.7-0.5-1.5-1-2.2-1.5c-6.2-8.3-11-17.9-21.1-22.6c-1.6-0.8-3.1-1.8-4.6-2.8c-8.5-5.3-19.8-8.5-16.8-21.4
		c0.1,21-19.8,10-28.8,16.6c-1.1,0.9-1.9,2-2.2,3.3c6.8,6.6,17.2,5.5,24,11.9c5.1,4.9,11.4,8.9,10,17.5c-12.1,16.3-14,34.3-8.9,53.5
		c-3.5,6.3-10.7,4.6-15.8,7.5c-4.8,1.7-7.4-1.8-8.8-5c-5.9-13.1-15.8-23.8-22.1-36.6C364.9,168.4,348.6,167.6,331.9,167.9z"/>
	<path class="st18" d="M180.1,319.7c59.7,11.2,115.3-2.8,167.8-29.9c21.8-11.2,46.1-17.2,66.1-32.2c7.5,6.6,6.9,9.9-3.8,19.7l0,0
		c-5.8,2.6-11.9,4.6-17.8,6.7c-24.9,9-32.8,21.7-30.4,48.1c0.7,8.2,5.9,18.7-8.3,21.2c-9.8-4-9.3-14.7-14-22
		c-3.4-5.3-5.9-13-13.4-12.1c-7.7,0.9-11.5,7.4-12.6,15.1c-0.6,4.4-0.9,9-3.8,12.7c-10.5,2.6-10.5-6.5-13-12.1
		c-3.7-8.3-9.9-7.3-15.8-4.6c-9.4,4.4-2,9,0.7,13.3c2.4,3.7,5.7,7,3.9,12c-11,5.8-20.9-4.2-31.6-2.4c-2.8-0.4-5-1.9-6.7-4.2
		c-5.1-9.9-11.3-15.1-21-4.8c-1.4,1.2-2.9,2.2-4.5,3.1c-2.6,1.2-5.2,1.8-7.9,0.7c-5.6-7.1-12.2-12.4-21.2-15.3
		C187,331.2,178.1,329.9,180.1,319.7z"/>
	<path class="st18" d="M277.5,191.7c11.6-4.1,23.2-8.2,34.8-12.3c2.6-1.2,5.3-0.7,7.3,0.8c7.4,5.7,18.9,9.6,17.3,20.9
		c-1.5,10.1-12.9,11.2-20.9,14.8c-2.1,1-5-0.9-6.5,1.8c11.6-2.7,22.3-6.9,31-15.3c4.2-4.1,9-7.7,15.3-3.4c4.8,4.2,7.1,9.6,7.7,15.9
		c-11.6,22.7-29.4,40.6-47.2,58.3c-8.6-5.6-7.4-17.9-16.2-23.3c-8.9-3.8-7.4-13.3-11.1-20C288,216.3,277.2,205.7,277.5,191.7z"/>
	<path class="st6" d="M199.2,203.6c14.3-0.2,28.6-0.5,42.9-0.7c18.9,2.4,24.9,17,30.6,32c1.1,4,1.6,8,1.5,12.1
		c-5.2,31-20.1,46.6-44.2,46.4c-1.3-1.3-2.7-2.7-4-4c-19.4-19.2-12.4-41.9-8.5-64.2c0.3-1.8,0.7-3.5,1.2-5.2
		c-0.5-8.9-4.3-2.9-6.6-1.2c-5.8,4.2-7.5,14.5-17.8,12.2c-4.4-4.1-6.3-9.2-6-15.2C189.3,209.3,193.1,205.4,199.2,203.6z"/>
	<path class="st5" d="M410.2,277.3c2.3-6.4,7.8-12.1,3.8-19.7c8.2-6.8,16.3-13.9,27.4-15.5c10.4-6.7,21.6-1.4,32.4-2.1
		c1.8,0.7,3,2,3.4,4c-0.2,10.3-1.7,20.7-0.3,30.8c2.6,19-11.2,27.5-22.3,37.7c-6.3,5.7-8.1,1.4-9.3-5.1
		C440.4,281.1,437.8,279.2,410.2,277.3z"/>
	<path class="st33" d="M180.1,319.7c4.3,7.2,12.5,11.3,18.9,11.1c13.5-0.3,14.8,7.6,16,17c5.4,5.8,6.4,12.9,6,20.5
		c-3.7,8.4-9.6,10.7-17.9,6.6c-19.8-8-35-20.8-43.7-40.7c-3.6-8.1-5-17.8,2.2-23.3C170.6,304.3,174.3,315.8,180.1,319.7z"/>
	<path class="st12" d="M352,351.3c8.9-1.1,7.4-7.2,6.4-13.1c-6.8-41.4,9-59.9,51.8-60.9c-4.1,4.4-9.3,8.2-7.6,15.5
		c0.4,16.4-13.7,24.9-21,37c-5.7,9.4-11.2,18.2-10.5,29.6c-5.3-0.1-10.3,12.5-15.8,0.2C352.2,357.6,349.3,355.6,352,351.3z"/>
	<path class="st34" d="M476.9,241.7c-11.8,6.7-23.7,0-35.5,0.4c5.5-10.1,15.8-15,23.9-22.2c10.9-9.7,20.1-19.7,19.8-35.9
		c-0.1-6.2-5.3-16.1,4.5-18.1c7.7-1.6,11.1,7.4,14.5,13.5c11.9,29.2,7.9,40.6-18.9,55.1C482.7,237.2,480.3,240.1,476.9,241.7z"/>
	<path class="st33" d="M184.3,265.8c-0.4,4.5-0.6,9-1.3,13.5c-1,6.8,8.6,15,0.7,19.5c-7.9,4.5-17.9-0.7-25.9-4.1
		c-5.5-2.4-9.4-8.6-14-13.1c-3.6-2.1-5.9-5.1-6.8-9.2c-2.2-21.5,15.4-27.3,28.9-36.4c1.9-0.3,3.8-0.1,5.7,0.4
		c10.5,5.9,7.6,18.2,12.5,26.7C184.1,264,184.2,264.9,184.3,265.8z"/>
	<path class="st11" d="M371,359.3c-6.5-7.7-7.8-13.7,0.3-22.8c11.9-13.2,20.9-29,31.2-43.8c4,5.2,8.1,10.4,12.1,15.7l-0.2-0.1
		C422.5,344.5,392.5,348.3,371,359.3z"/>
	<path class="st35" d="M168,238.3c-9.8,11.1-30,14-27.2,34.8c-10.6-0.8-8.6-9.4-9-15.6c-1.5-27.9,7.3-52.1,27.2-71.9
		c1.3-1.6,2.8-3.1,4.5-4.3c1.5-0.3,3.1-0.6,4.6-1C180.8,201.5,180.7,221.5,168,238.3z"/>
	<path class="st36" d="M316.3,273.1c12.3-22.2,29.4-40.5,47.2-58.3c2.7,4.2,5.4,8.5,8.1,12.7c8.2,13,4.9,22.6-9,28.2
		C347.2,261.9,331.7,267.4,316.3,273.1z"/>
	<path class="st37" d="M449.4,89.7c-9.9-12.8-25-10.8-39.8-13.3c38.6-7,67.6,2.9,87.7,29.5c5.2,6.8,11.2,14.3,1,21.5
		c-11.2,8-11.5-4.6-16.2-9.3c-10.3-10.3-17.3-24.4-32.9-28.6C449.3,89.6,449.4,89.7,449.4,89.7z"/>
	<path class="st10" d="M285.3,355.4c-1.5-2.1-3-4.2-4.5-6.3c-4.4-6.1-15.6-10-12.7-17.6c2.9-7.5,14.5-5.8,22.1-8.5
		c8.2-2.8,10.5,0,10.7,7.6c0.1,6.7,2.3,12.6,7.7,17c11.7,1.2,14.8,11.2,19.7,19.3c1,6.3-2.5,8-7.9,8
		C305,375.1,292.8,369.3,285.3,355.4z"/>
	<path class="st38" d="M128.7,292.5c-16.1,5.9-22.7-1.2-23.1-16.8c-0.5-20.6-0.2-40.8,11.5-59.3c5-7.9,10.4-14.3,19.1-17.5
		c3.9-1.2,5.4,1.2,6.4,4.3c0.3,6.8-4.2,11.2-7.9,16c-15.6,17.1-6.7,37.6-7.4,56.6C127.2,281.2,131.4,286.6,128.7,292.5z"/>
	<path class="st39" d="M421.8,218.8c-13.5-16.4-10.2-38.9,8-55c2.7-1.3,4.7-0.2,6.6,1.6c0.4,0.8,0.7,1.5,1.1,2.3
		C449.1,196.3,449.1,196.3,421.8,218.8z"/>
	<path class="st17" d="M402.2,249.8c-12.4,0.3-20.2-5-23.8-17.5c-2.6-9.1-7.1-17.8-11.4-26.3c-4.3-8.4-9.4-16.3-14.3-24.6
		c5.8-3.4,9.2,3.7,14.1,3.1c23.9,11.4,29.9,34.9,38.3,56.8C406.4,244.2,404.6,247.4,402.2,249.8z"/>
	<path class="st40" d="M211,316.4c-7.7,5.1-9.7-0.8-12.2-6.3c-5.8-12.8-9.7-26.1-10.7-40.1c-1.8-22.6,12.2-38.1,24.7-54
		c2.7-3.5,9-6.8,9.8,2.8l0.1-0.2c-4.7,8.6-4.2,18.9-8.9,27.5c-7.1,16.2-6.4,32.9-3.1,49.7C211.9,302.7,215.7,309.5,211,316.4z"/>
	<path class="st41" d="M285.3,355.4c12.2,5.6,21.4,16.5,35.1,19.5c-17,3.5-34.1,14.2-51.1-0.2c-10.4-4-16.8-10.8-15.7-22.7
		C265.3,342.5,274.5,356.4,285.3,355.4z"/>
	<path class="st42" d="M230.1,293.3c23.9-7,37.1-23,39.8-47.7c11.7,2.4,8.9,15.1,15.3,21.2c2.5,4.3,4.1,8.7,0.3,13.1
		C276.3,295.9,247.9,302.7,230.1,293.3z"/>
	<path class="st17" d="M473.2,187.9c-10.6,8.3-18.2,5.1-23.8-6.2c-2.8-5.6-5.5-11.3-11.9-13.9c0,0,0.2,0.2,0.2,0.2
		c-7.9-12.9-20.9-20.3-32.3-29.4c6.2-9.1,14.9-6.9,22.4-3.6C451.3,145.2,468.6,161.2,473.2,187.9z"/>
	<path class="st43" d="M168,238.3c7.7-19.3,1.8-38.7,0.2-58c6.8-2.8,1.2-11.5,7-14.8c7.7,12.9,7.8,30.5,24,38.1
		c-2.7,3.8-5.3,7.6-8,11.4c-6.1,8-7,20.3-19.1,23.3C170.7,238.3,169.4,238.3,168,238.3z"/>
	<path class="st44" d="M414.7,308.5c-0.3-1.9-1.1-4-0.7-5.7c1.2-6.1-12.1-15.6,2.4-17.8c11.3-1.7,22.5,3.6,23.9,17.2
		c1.1,11-4.9,19.9-13.1,26.9c-5.4,4.7-7.7,1.6-8.8-4.2c-1.1-5.5,1.3-11.8-3.8-16.4C414.5,308.4,414.7,308.5,414.7,308.5z"/>
	<path class="st45" d="M355.8,198.9c-17.4,7.2-30.9,24.3-52.7,20.1c0.4-1,0.6-2.8,1.3-3c11.1-3.3,26.4-4.6,28.6-16
		c1.4-7.4-12.7-14.4-20.7-20.6c6.1-4.7,11.7-10.1,19.7-11.5c0.1,8.1,5.6,12,11.7,15.6C349.8,187,355,191.2,355.8,198.9z"/>
	<path class="st46" d="M473.2,187.9c-11.6-17.5-20.8-37.2-41.7-46.3c-8-3.5-16.1-9.1-24.9-1.7c-8.2,4.1-13.6,2.1-15.7-7.1l-0.3,0.3
		c20.2-8.2,39.9-8.8,58.7,3.9l-0.3-0.2c11.4,6.2,17.4,16.9,23.7,27.5c0,0-0.2-0.2-0.2-0.2C472.8,172,481.8,179.7,473.2,187.9z"/>
	<path class="st47" d="M480,234.7c0.3-1.2,0.4-3.4,1-3.6c27.1-8.6,28-28.8,23.1-51.7c2.6,1.4,5.2,2.7,7.8,4.1l-0.2-0.1
		c4.7,18.3,4,36.9,3.9,55.5c0,6.6-1.5,10-8.7,7.1c-7.9-4.4-16.4-7.4-25.2-9.5C481.2,236,480.6,235.3,480,234.7z"/>
	<path class="st21" d="M293,231.2c2.4,6.2,4.7,12.4,7.1,18.6c-0.9,13.4,18.1,25.9,1.6,39.9c-19.6-22.3-28.2-47.8-22.4-77.5
		c3-3.2,5.9-2.3,7.2,1.2C288.6,219.4,290.5,225.5,293,231.2z"/>
	<path class="st15" d="M211,316.4c-6.9-24.7-15.8-49.3,0.3-73.9c8.1,14.5,3,32.2,11.6,46.6C226,301.3,220.7,309.8,211,316.4z"/>
	<path class="st48" d="M281.8,210.6c-2.3,28.6,7.6,54.2,19.9,79.2c-2.5,4.8-4.6,10.6-9.2,1.3c-1.9-3.9-4.6-7.3-7-11
		c-0.7-3.5-1.5-7.1-2.2-10.6c-9.2-18.9-14.8-38.7-14.5-59.9c0.1-4.2,1-10.2,6.7-9.9C281.7,199.9,284,204.4,281.8,210.6z"/>
	<path class="st24" d="M128.7,292.5c-12.8-20.7-6.9-43.4-6.7-65.4c0-5.9,5.6-9.7,11.1-12.2c4,4.2,4.6,9.6,3,14.4
		c-6.7,19.5-2.4,37.8,4.4,56.1C138.2,290.6,134.1,292.7,128.7,292.5z"/>
	<path class="st21" d="M253.6,352c5.2,7.6,10.5,15.1,15.7,22.7c-0.3,3,0.8,6.5-3,8.3c-13-1.4-24.2-6.8-32.9-16.3
		c-10.1-10.9-8-17.9,6.3-26c4.7,0.1,7.7,2.7,9.8,6.7C250.9,348.9,252.2,350.5,253.6,352z"/>
	<path class="st49" d="M328.2,367c-9.1-3.8-12.9-13-19.7-19.3c-0.1-4.5-0.5-9.1-0.2-13.6c0.6-11,7.1-18.3,17.1-21
		c10.1-2.8,13.2,7,16.7,13.1c4.4,7.7,6.7,16.7,9.8,25.1c1.1,2.7,2.2,5.5,3.3,8.2c-4.8,2.2-2.4,9.7-8.3,11.1
		c-6.9-14.9-6.3-33.1-20.1-44.7c-11.3,4.6-10.1,11.4-4,19.7c4,5.3,11.8,8.9,9.1,17.7C330.8,364.5,329.5,365.7,328.2,367z"/>
	<path class="st50" d="M476.9,241.7c1.1-2.3,2.1-4.7,3.2-7c0,0,0.2,0.2,0.2,0.2c23.5,7.4,25.1,11.7,15.8,42.4
		c-3,5-6.9,10.9-13.1,8.4c-5.5-2.3-1.5-9.1-1.9-13.8c-0.7-9.4,2-19.2-3.9-27.8C477.4,243.2,477.3,242.4,476.9,241.7z"/>
	<path class="st51" d="M140.4,285.4c-17.8-21.9-9.7-46.5-7.4-70.5c2.6-3.8,5.2-7.7,7.8-11.5c4.3-10.7,12.6-17.2,22.8-21.6
		c1.4,8.5-5.7,12.2-9.9,17.7c-16.9,22.3-22.2,46.7-13,73.6c1,2.8,2,5.7,3,8.5C142.7,282.9,141.5,284.2,140.4,285.4z"/>
	<path class="st21" d="M327.5,317.5c13,15.3,23.4,31.6,19.5,53.1c-2.5-1.1-4.9-2.1-7.4-3.2c-2-6.4-7.5-10.1-11.9-14.5
		C315.9,341,313.6,329.4,327.5,317.5z"/>
	<path class="st15" d="M512,183.6c1.2-4.9-7.2-11.4,1.9-14.7c7.8-2.9,12,2,14.5,8.8c4.7,13,5.4,25.9-1.3,40
		c-9.7-10.3-4.4-25.9-15.2-34.2C511.8,183.4,512,183.6,512,183.6z"/>
	<path class="st52" d="M186,373.9c-17.7,1.2-29.5-8.7-39.7-20.4c-2.8-3.2-7.3-8.9-0.9-13.4c5.9-4.1,8.9-0.2,12.2,4.7
		C165.1,356.2,174.5,365.8,186,373.9z"/>
	<path class="st53" d="M402.2,249.8c-2.7-26.7-16.8-47.2-35.3-65.4c2.7,0.1,5.5,0.2,8.2,0.4c18,8.1,19.4,28.6,30.9,41.6
		C403.1,233.9,420.6,244.8,402.2,249.8z"/>
	<path class="st54" d="M222.5,218.8c-6.2-6.8-8.6-0.2-11.5,3.5c-11.2,14.2-15.5,31.8-23,47.8c-1.2-1.4-2.5-2.8-3.7-4.2
		c0,0-1.8-0.3-1.8-0.3c-4.1-14.9,2.1-25.7,13.7-34.3c7.2-6.5,10.1-16.5,18.7-21.8c3.5-2.2,7.3-4.1,10.2-0.1
		C227.6,212.8,227,216.7,222.5,218.8z"/>
	<path class="st55" d="M241.4,343.7c-13.7,3.2-12.6,10.4-5.3,19.3c8,9.8,19,15,30.2,20c-10,7.9-15.8-3.9-23.8-5.2
		c-24.3-9.3-28.7-16.9-19.5-34l-0.2,0.2c3.6-2.7,6.7-6.4,10.9-7.7C239.1,334.7,243.7,336,241.4,343.7z"/>
	<path class="st56" d="M496,277.3c-0.3-16,5.9-34.4-15.8-42.4c11-1.3,22.3-3.2,26.8,11.1C508.7,258.3,504.4,268.5,496,277.3z"/>
	<path class="st40" d="M327.5,317.5c-9.9,14.9-4,26.8,6.7,38.3c2.8,3,10,4.8,5.5,11.6c-2.5-1.4-5-2.8-7.6-4.2
		c-3.4-3.8-6.7-7.7-10.1-11.5C308.1,336.1,308.9,330.7,327.5,317.5z"/>
	<path class="st57" d="M222.9,289.1c-12.4-13.4-8.7-30.8-11.6-46.6c4.9-7.4,3-18.1,11.3-23.9c-2.7,23.8-8.3,47.7,3.5,70.7
		C225,289.2,224,289.1,222.9,289.1z"/>
	<path class="st58" d="M223,343.8c-9.1,20.3,12.1,23.2,19.5,34c-1.4,1.7-2.8,3.3-4.2,5c-6.5-5.1-16.2-6.3-18.8-16
		c-4.4-5.7-5.6-12-4.4-19C217.7,346.5,220.3,345.2,223,343.8z"/>
	<path class="st59" d="M219.5,366.8c6.9,4.6,15,7.7,18.8,16c-12.2-0.5-24.1-2.1-35.1-7.9C210.3,375.6,216.2,374,219.5,366.8z"/>
	<path class="st60" d="M163.7,181.8c-7.6,7.2-15.2,14.4-22.8,21.6c-1.5-1.5-3.1-3.1-4.6-4.6c8-7.6,13.5-18.9,27.3-17.5
		C163.5,181.3,163.7,181.8,163.7,181.8z"/>
	<path class="st61" d="M785.2,433.6c2.6-10,6.4-19.8,7.6-30c4.1-34,2.5-35.8-34.5-48.7c0.7-1.1,1.1-2.8,2-3.2
		c16.9-7.1,29.3-20.7,44.2-30.6c26.4-14.4,51.8-12,66.7,6.3c0.4,13,16.9,21,11.2,36c-11.6,0.3-22.7-4.5-34.5-3
		c-9.2,1.1-17.9,2.2-23.1,12.6c17.5,2.8,38.5-9.2,50.1,12.9l0.1,0.8c-0.8,1-1.9,1.7-3,2.4c-5.5,4-16-3.6-18.3,6.4
		c-2.1,9.2,4.3,15.7,10.9,21.4c2.9,2.5,6,5,6.7,9.2c-0.6,8-6.5,7.6-12.2,7.6c-0.9,0-1.8,0-2.7,0.1c-16.8-6.2-33.8-9.7-51.3-2.4
		c-1.6,0.6-3.3,1.1-5,1.5c-4.2,1-8.3,2.3-12.7,1.9C786.7,434.4,785.9,434,785.2,433.6z"/>
	<path class="st5" d="M944.8,433.4c2.5,17.9,5.9,36-8.1,51.3c-7.9,1.3-12.1-6-18.6-8.1c-7.5-2.4-14.3-3.4-13.2,8.2
		c2.2,19.1,5.9,38.3-0.6,57.3c-11,7.7-18.1,0.3-24.2-7.2c-13-15.9-12.6-33.2,0-53.6c4.5-7.3,13.2-13.5,6.9-23.9
		c4.5-8.9,4.4-19.7,11.3-27.7c5.6-7.6,12.2-14.2,19.9-19.7c2.3,0.6,4.5,1.2,6.8,1.8C934.2,416.6,945.8,419.2,944.8,433.4z"/>
	<path class="st18" d="M887.1,457.3c14.2,8.8,4.4,15.5-1.9,22.8c-19.4,22.7-11.1,53.1,17,63c3.5,4,3.5,8,0.2,12.1
		c-2.7-0.2-5.4-0.3-8.2-0.5c-6.2,2.5-10.2-1.4-14.5-4.7c-6.3-4.2-11.9-11.2-20.6-4.7c-4.8,6-2.1,12,0,18c0.1,0.8,0.2,1.6,0.2,2.5
		c-0.1,1.5-0.2,3-0.3,4.5c-8.5,4.1-22.9-7.8-26.5,11c15.3,9.4,35.2-3.1,50.3,8.6c-0.2,5.5-3,9.3-7.8,11.8
		c-14.6-0.2-30.4-6.2-41.9,8.7c-5.5,3.4-11.3,1.7-17,1.1c-4.2,0-6.6,2.8-9,5.7c-2.6,3.1-3.7,7.5-8,9c-12.5-5.7-26.1,9-38.2-2.1
		c46.3-23.2,73.3-64.3,97.7-107.3C869.5,497.8,877.7,477.2,887.1,457.3z"/>
	<path class="st62" d="M758.5,488.4c2.2-11.9,11.5-20.3,15.5-31.3c13.8-8.5,31.5-3.7,45-13.5c2.2,0.3,4.1,1.1,5.9,2.5
		c14.9,23.8,11,48.4,3.1,73.1c-2.5,0.2-5.1,0.3-7.6,0.5c-18.8,1.5-30.3-13.6-45.6-19.9c-4.2-2.7-8.2-5.7-12.8-8
		C760.6,491,759.4,489.8,758.5,488.4z"/>
	<path class="st63" d="M761,624.2c6.3,1,12.6,1.6,18.1-2.4c8.4-6,15-2.8,21.2,3.5c6.4,0.2,11.2,3.3,14.5,8.7c1.8,5.1,1.4,9.8-3,13.5
		c-14.8,8.3-31.8,1.3-47.1,6.8c-6,6-9.7,1.7-13.3-2.9c1.1-3,2.1-5.8-0.7-8.8c-3.8-4.1-10.5-7.9-7.4-14.3
		C747,621,755.2,626,761,624.2z"/>
	<path class="st29" d="M874.9,386c-18.1-15.2-39.7-5-59.6-8c14.2-24.2,40.9-30,67-14.6c4.5,3.3,11.6,5.5,9.2,12.9
		C889.2,383.8,883.5,388,874.9,386z"/>
	<path class="st64" d="M902.5,555.2c-0.1-4-0.1-8.1-0.2-12.1c0-21,0.1-42,0.1-63c18.2,0.2,25.2,5.9,27.6,22.4
		c1.1,21.8-12.2,37.7-22.9,54.6C906.9,557.4,904.1,555.9,902.5,555.2z"/>
	<path class="st65" d="M750.1,600.9c-0.6,12.2-15.4,21.9-29.2,18.5c-4.9-1.2-9.3-4-14-6c-4.4-1.8-9.7-2.6-10.6-8.8
		c2.7-13.1,2.9-27.8,19.4-32.8c7.7,1,12,7.7,18.5,10.8c3,1.7,6.1,3.4,9,5.3C747.1,591.4,751.6,594.5,750.1,600.9z"/>
	<path class="st34" d="M918.3,410c-1.1,12.1-11.2,15.2-19.9,19.7c1.5-8.9,1.9-18.1,4.9-26.5c4.8-13.7,0.1-25.2-5.1-37.1
		c-2.1-4.8-10.9-8.1-5.1-14.6c5.9-6.6,11.7,0.6,17.5,2.1c1.2,0.3,2.3,1.2,3.4,1.8c10.7,9.1,22,18,15.3,34.7
		C922.7,395.1,916.6,400.4,918.3,410z"/>
	<path class="st66" d="M828,519.2c0.1-16.2-0.3-32.5,0.3-48.7c0.4-9.6-1.6-17.9-8.2-24.9c1.2-1.7,2.8-2.8,4.7-3.4
		c14.4-1.4,21,8.2,26.7,18.9C855.9,485.5,841.6,502.2,828,519.2z"/>
	<path class="st10" d="M883,590c-19.7-1.4-40,3.4-59.1-4.9c13.7-24.8,13.7-24.8,35.3-14.6c6.8,4.5,15.1,3.5,22.5,5.6
		C894.1,579.5,889.9,584.7,883,590z"/>
	<path class="st34" d="M871.3,426.1c-7.3-3.8-14.8-7.4-19.2-15.1c-4.3-7.6-7.1-16.2-3.3-23.7c4.6-9.4,12.3,0.3,18.6-0.6
		c2.5-0.3,5.1,0,7.6,0C883.8,400.8,875.6,413.3,871.3,426.1z"/>
	<path class="st67" d="M851.6,461.1c-9.9-3.2-13.3-16.7-25.5-16.1c-8.5-3.9-18-0.6-26.6-3.8c-3.2-1.2-8.2-2.2-5.6-7.6
		c1.2-2.5,4.5-1.8,6.9-2.2c22.9-5.5,44.4-3.4,64,10.8c5.2,3.8,11.5,6.3,9.9,14.5C867.9,463.1,859.5,460.7,851.6,461.1z"/>
	<path class="st68" d="M816.3,543.4c-10.2,14.2-17,31.4-35,38.4c-1.4-1.6-2.1-3.4-2.1-5.4c7.6-15.7,2.3-32.8,4.8-49
		c2.2-2.3,5-3.4,8.1-3.7C804.7,524.6,811.6,532.7,816.3,543.4z"/>
	<path class="st69" d="M750.1,600.9c-2.9-3.8-5.7-7.5-8.6-11.3c-12.8-12-15.5-27.6-15.9-44c-0.1-5.1,0-11.7,5.3-13.6
		c6.7-2.4,7.5,5.1,10.2,9c1.5,2.1,2.3,4.6,3.3,7c1.1,2.8,1.8,5.7,2.2,8.6c1.1,22.8,20.6,31.8,34,45.4c-0.2,11.8-7.7,8.2-13.1,5.3
		C761.9,604.3,757.1,600,750.1,600.9z"/>
	<path class="st37" d="M871.2,327.5c-21.4-11-43.5-13.9-66.7-6.3c15.4-16.4,49.2-22.5,67.1-12C882.2,315.3,876.9,321.5,871.2,327.5z
		"/>
	<path class="st70" d="M707.2,637c-8.2,8.3-14,3.7-20.6-2.9c-21.2-21.1-29.4-45.7-21.9-75c5.7-0.8,6.2,3.8,7.5,7.4
		c-0.7,22.6,10.1,39.5,26.5,53.7C703.7,624.4,711.9,627.6,707.2,637z"/>
	<path class="st71" d="M944.8,433.4c-2.9-10.6-15.6-12.2-19.8-21.6c-2.5-8.6,2.4-13.6,9.5-15.7c6.5-1.9,10.5,3.7,13.9,8.3
		c5.6,7.3,7.9,16.3,7.5,25.1C955.7,436.2,952.5,443.5,944.8,433.4z"/>
	<path class="st67" d="M707.2,637c-2.3-12.4-15.5-14.4-22.2-23c-11.4-14.5-19.3-29-16.7-47.9c1.8-0.9,3.4-0.7,4.9,0.5
		c8.7,17.4,16.6,35.2,30.2,49.7C713,621.7,718.1,627.9,707.2,637z"/>
	<path class="st37" d="M773.1,496c17.6,4.3,30.7,17.4,47.3,23.7c2.9,7.4,15.3,11.8,7.3,22.7c-16.2-6.5-29.7-17.5-43.5-27.7
		C778.4,510.5,771.2,505.5,773.1,496z"/>
	<path class="st72" d="M780.6,601.9c-20.9-7.4-35.5-20.2-38.3-43.5c16.9,3.7,27.2,16.4,38.8,27.5C781,591.3,780.8,596.6,780.6,601.9
		z"/>
	<path class="st73" d="M831.9,609.2c9.8-17.4,20-19.1,43.3-7.4c-4.9,9.7-15.9,9.4-23.7,14.5C842.7,620.4,836.3,617.6,831.9,609.2z"
		/>
	<path class="st24" d="M930,502.5c-5.3-12.2-16.5-17.3-27.6-22.4c-0.2-13,8.2-11.3,16.4-9.3c8,1.9,11.8,9.4,18,13.9
		C934.6,490.7,943.7,500.9,930,502.5z"/>
	<path class="st74" d="M676.3,523.7c6.5-0.6,10.9,3,15.1,7.2c6.3,5.1,15,6.9,20.2,13.6c1.2,1.5,2,3.2,2.7,5c0.9,7.4,4.9,14.7,0,22.1
		c-7.1,3-12.6,0.7-15.4-6.1c-4.1-9.9-12.8-15.1-20.4-21.5c-4.5-5.2-0.2-11.6-2.3-17.1C676.1,525.8,676.2,524.8,676.3,523.7z"/>
	<path class="st21" d="M831.9,609.2c6.5,2.4,13.1,4.7,19.6,7.1c8.2,7.6,1.8,9.8-4.5,12c-5.2-2.9-9.9,0.4-14.9,1
		c-17.9,1.9-23.5-4.9-19.8-23.4C818.9,606.9,825.4,608.1,831.9,609.2z"/>
	<path class="st69" d="M773.1,496c13.2,21.4,38.1,28.9,54.6,46.4c-3.8,0.3-7.6,0.6-11.3,0.9c-9.2-2.7-12-14-21.6-16.1
		c-15.5-6.1-25.7-18.1-34.9-31.2c-0.7-3-0.3-5.6,2.2-7.7C768.3,487.3,770.6,491.8,773.1,496z"/>
	<path class="st19" d="M882.8,548c3.8,2.2,7.6,4.5,11.5,6.7c0.1,5.3,13.3,7.4,3.6,15c-8.5-2.5-17.7-1.6-26-5.2
		c-10.4-4.4-15.9-10.6-9.5-22.1C870.5,539.4,876.5,544.3,882.8,548z"/>
	<path class="st56" d="M922.1,355.4c-0.3-0.6-0.8-1.1-0.8-1.7c-0.1-7.7-19.8-2.9-10.6-14.4c6.9-8.5,15.2,0.1,21.3,5.1
		c7.4,6.1,13.3,13.4,12.7,24.6c-9.9-2.1-12.6-14.2-22.8-13.8L922.1,355.4z"/>
	<path class="st75" d="M676.2,526.9c5.6,4.4,2.5,10.7,3.6,16c-0.7,23.1,9.6,42.8,19.4,62.6c2.6,2.6,5.2,5.2,7.7,7.8
		c-1.1,1-2.3,1.9-3.4,2.9c-19.5-10.8-27.2-29.4-32.4-49.6c-4.9-10.6,0.4-20.8,1-31.2C673.4,532.6,674.8,529.7,676.2,526.9z"/>
	<path class="st36" d="M929.4,390.1c-2-13-7.5-24.3-15.3-34.7c2.7,0,5.4,0,8.1,0c0,0-0.3-0.2-0.3-0.2c6.9,13,23.2,19.2,26.4,36.3
		C941.7,391.1,935.5,390.6,929.4,390.1z"/>
	<path class="st76" d="M874.7,456.8c-19.4-24.2-46.3-24.4-73.8-23c-1.4-0.9-1.9-1.8-1.4-2.6c0.5-0.8,1-1.3,1.5-1.3l-0.2,0.1
		c20-5.7,39.6-6.1,58.5,3.9c0,0-0.2-0.1-0.2-0.1C861.8,443.1,885.4,438.3,874.7,456.8z"/>
	<path class="st77" d="M751.5,651.4c4.4,1,8.9,2,13.3,2.9c9.1,4.3,19.1,1.3,30,2.9c-13.6,11.1-28,9.2-42,6
		C745,661.5,744.1,656.2,751.5,651.4z"/>
	<path class="st29" d="M863.1,543.3c-1.7,12,4.9,17.1,15.6,19.7c6.6,1.6,12.9,4.4,19.3,6.7c-13.3,3.5-25.6-2.5-38.4-3.9
		c0,0,0.2,0.4,0.2,0.4c-4.9-6.9-5.2-14.3-1.9-21.9C859.1,542,860.9,541.7,863.1,543.3z"/>
	<path class="st24" d="M812.4,605.8c-1.4,13.8,4.2,20.4,18.6,19.3c5.4-0.4,11.6-2.3,16.1,3.2c-2.4,0.5-4.8,1.1-7.2,1.6
		c-9.2,3.4-18.3,5.9-27.9,1.1c-8-4-12.3-9-6.3-17.8C808.6,611.4,807.4,605.8,812.4,605.8z"/>
	<path class="st78" d="M781.2,586c-15.5-5.5-26.5-17.5-38.8-27.5c-0.3-2.5-0.6-5-0.9-7.5c1.4-1.2,3.1-1.7,4.9-1.5
		c12.5,8.4,22.9,19.3,34.8,28.5c0.1,1.3,0.2,2.5,0.2,3.8C781.3,583.2,781.2,584.6,781.2,586z"/>
	<path class="st79" d="M811.9,647.5c0-4.6,0-9.2,0-13.8c7.9-4.9,16-3.5,24.1-0.8C830.3,641.7,820.9,644.3,811.9,647.5z"/>
	<path class="st80" d="M836,632.9c-8,0.3-16.1,0.5-24.1,0.8c-5.2-0.9-9-3.8-11.5-8.4c0.9-4.4-0.3-9.8,5.4-12.1
		c-1.6,10.2,1.5,16.1,13,15.8c7-0.2,14.1,0.6,21.1,0.9C838.6,630.9,837.3,631.9,836,632.9z"/>
	<path class="st81" d="M672,535.4c4.1,10.6-2.5,20.8-1,31.2c-0.9-0.2-1.8-0.4-2.7-0.6c-1.2-2.3-2.5-4.7-3.7-7
		C665,550.5,668.1,542.9,672,535.4z"/>
	<path class="st82" d="M109.9,664.9c-12.2-14.6-15.2-31.1-7.7-48.5c12.5-29.2,28.6-56,51.6-78.3c2.5,4.1,3.3,10.7,11,6.3
		c22.5-13,43-29.1,65.5-42c3.5-2,5.8-5.5,3.9-9.9c-1.8-4.1-5.4-5.2-9.6-5c-5.1,0.3-10.2,2.6-15.3,0.1c10.9-20,28.3-13.1,44.6-10.6
		c19.1,8.3,20.1,25.9,20.6,42.7c1,35.8-10.4,69-23,101.8c-6,15.7-13,31.1-21.3,45.8c-18.3,15.3-37,30-58.9,39.9
		c-15.3-7.2-23.3-21.7-33.3-34C130.2,663.4,121.9,658.9,109.9,664.9z"/>
	<path class="st83" d="M230.2,667.2c0.2-16.1,9.4-29.2,14.6-43.7c14.2-39.8,31.3-79.1,21.9-123.4c-2.1-9.8-8.2-15.7-12.8-23.2
		c22.5,1.2,40.3,13.9,57.7,26c11.6,8,9.9,20.9,6.4,33.7c-11.4,42.1-37.8,74.8-65.3,106.9C245.6,651.7,237.7,659.3,230.2,667.2z"/>
	<path class="st84" d="M209.3,487.5c5.4-2.2,10.6-5,16.2-6.3c7.2-1.7,12.9,2,15.9,8.3c3.4,6.9,0.8,12-5.9,16.1
		c-23.7,14.5-46.9,29.7-70.7,44.1c-4.5,2.7-10,9.7-15.2,3.8c-4.5-5,3.6-9.9,4.2-15.4C170.7,519.4,188.8,502.1,209.3,487.5z"/>
	<path class="st85" d="M109.9,664.9c4.2-18.7,17.5-10,22.8-4.3c13.8,14.6,28.3,29,38.7,46.6c-16.7,8.4-29.8,3.3-40.5-10.7
		C123.2,686.3,115,676.6,109.9,664.9z"/>
	<path class="st42" d="M238.6,675.6c4.4,18.4,17.4,33,23.2,50.8c-2.6,1.3-5.1,2.6-7.7,3.9c-1.3-0.8-1.8-1.7-1.4-2.6
		c0.4-0.9,0.8-1.4,1.2-1.4c-7.1-21.9-26.8-20.7-44-23.8C219.5,693.6,229.1,684.6,238.6,675.6z"/>
	<path class="st86" d="M160.5,726.3c-1,6.2-3.2,11.9-8.2,16.1c-17.1-6.2-24.2-20.8-30.8-36C132.3,717.3,145.5,723.5,160.5,726.3z"/>
	<path class="st82" d="M296.6,58.3c18.6-7.4,36-6.8,51.1,8.1c6.3,9,6,19,0.8,27.6c-20.8,34.4-44.5,66.5-78.9,89
		c-23,6.3-45.5,16.9-70.2,8.6c6.2-5.1,7.7-10.8,5.4-18.9c-3-10.4-8.4-20.6-6.4-32.1c1.9-1.9,4.2-3.2,6.9-3.1
		c52.8,3.6,92.1-23.9,129.1-56.4c2-1.7,0.5,0.7,1-1.5c0.5-2.3-2.3,0.3-3.3-0.7c-1.4-1-2.5-2.2-3.3-3.6c-3-7.2-8.1-11.3-16.2-11.8
		C306.8,63.2,300.6,63.7,296.6,58.3z"/>
	<path class="st82" d="M187.1,164.7c-7.9-23.6-5.7-44.7,15.9-60.5c14-10.3,26.1-23.8,44.7-26.3c6.3,7.3,13.1,1.1,19.5,0.5
		c21.3-1.9,42.4-10.2,63.9-1.2l1.2,1.2c-7.5,20.5-26.9,28.1-43.2,38.2c-27.7,16.9-58.1,26.1-91.1,23.5
		C189.2,146,195,158.4,187.1,164.7z"/>
	<path class="st87" d="M269.5,183c21.6-23.7,44.1-46.5,63.5-72.2c10.2-13.6,16.3-27.4,14.6-44.4c4.3,3.8,9.2,7.2,12.8,11.6
		c24.6,30.5,23.6,37.9-7.6,61.9C327.7,159.2,301.5,176.6,269.5,183z"/>
	<path class="st88" d="M331.1,77.2c-27.1-1-53.5,5.1-80.1,8.5c-11.9,1.5-8.3-2.6-3.3-7.8c15.9-7.6,31.7-15.4,48.9-19.6
		c5.8,0,11.5,0.3,17.3-0.1C327.9,57.1,334.9,62.2,331.1,77.2z"/>
	<path class="st89" d="M187.1,164.7c0.1-6.9,0.3-13.8,0.2-20.7c-0.1-8.6,5.2-3.9,8.7-3.7l1.4,0.6c11.5,13,10.7,30.5,15.4,45.7
		c2.7,8.8-8.7,3.3-13.5,4.8C190.7,184.7,191,173.7,187.1,164.7z"/>
	<path class="st90" d="M281.8,210.6c-1-3.6-1.5-7.6-7-10c-5.1,24.3,3.2,46.5,8.5,68.9c-10.8-4.4-6.2-17.4-13.4-23.8
		c-0.3-3.7-0.7-7.4-1-11.1c-1.2-13.1-10.2-26.4,0.7-39.4c1.8-3,4.7-3.7,7.9-3.5c9,11.7,14.9,24.6,15.5,39.5
		C285.9,226.2,287.1,216.6,281.8,210.6z"/>
	<path class="st42" d="M269.6,195.2c-0.2,13.1-0.4,26.2-0.7,39.4c-5.6-13.4-14.9-23.6-26.8-31.7
		C250.7,198.1,259.8,195.6,269.6,195.2z"/>
	<path class="st82" d="M670.7,500.4c-16.2-17.5-14.2-50.4,4.4-72.3c13.2-14.8,26.6-29.4,40.8-43.2c6.1-5.9,10.4-12.2,0.8-18.9
		c6.4-10.5,16.6-5.7,25.5-6.2c13.3,7.2,15.8,20.3,16.7,33.2c2.4,31.4,0,62.3-12.7,91.6c-5.7,15.7-19.5,24.3-30.8,35
		c-8.8-2.8-15.7-8.6-23.2-13.5C685.6,501.7,679.1,497.5,670.7,500.4z"/>
	<path class="st83" d="M746.2,484.6c0-25.8,9.3-50.5,8.1-76.7c-0.7-17.3-3.5-33.3-12.2-48.1c9.2-1.7,18,0.7,26.5,3.7
		c14.6,5.1,21.6,13.4,17.4,30.7C778.1,426.8,768.5,458.4,746.2,484.6z"/>
	<path class="st91" d="M781.1,578c-16.9-2.4-25.5-15.6-35.3-27.2c-9.3-5.9-5.8-20.9-17.7-25c-0.5-0.8-0.9-1.5-1.4-2.3
		c5-5.3,10.1-10.6,15.1-15.9c14.7-6.7,24.8,5,36.7,9.2c3.7,2.4,8.3,4.3,6.7,10.2C789.1,544.5,794.7,562,781.1,578z"/>
	<path class="st89" d="M716.7,366c10.9-2.1,19.8,3.4,11.4,12.4c-16.4,17.7-30.6,38.3-53.1,49.8C684.1,404.1,696.6,382.5,716.7,366z"
		/>
	<path class="st92" d="M670.7,500.4c1.1-9.7,7.5-10.6,13.5-6c10.6,8.1,23.3,13.8,31.2,25.2C691.9,533.3,683.6,511.5,670.7,500.4z"/>
	<path class="st93" d="M816.6,445.6c-11.2,15.1-27.7,10.4-42.7,11.5c3.7-7.8,7.5-15.7,11.2-23.5c0,0,0,0,0,0
		C792.9,444.7,809.3,433.4,816.6,445.6z"/>
	<path class="st94" d="M777.5,519.6c-12.7-1.5-22.5-11.8-35.7-12c4.6-7.2,7.9-15.6,16.6-19.2c1.2-0.1,2.4-0.1,3.6,0.1c0,2,0,4,0,6
		C763.3,505.2,778.2,507.6,777.5,519.6z"/>
	<path class="st95" d="M711.2,532.1c5.2-2.9,10.3-5.7,15.5-8.6c0,0-0.2-0.1-0.2-0.1c2.9,9.4,0,18.2-2.4,27.1
		c-5.9,4.6-9.8,1.6-13.1-3.5l-0.4-0.7C707.6,541.5,706.4,536.7,711.2,532.1z"/>
	<path class="st96" d="M711.2,532.1c-0.2,4.8-0.4,9.5-0.6,14.3c-7.8-3.4-15.8-6.5-19.2-15.4C698,531.3,704.6,531.7,711.2,532.1z"/>
	<path class="st97" d="M402.2,847.9c4.9,12.7-4.1,14.4-12.8,15.3c-27,2.7-50.3-9.8-74.5-18.6c-1.7-0.6-4.5-2.5-4.4-3.3
		c2.5-15.7,18.7-18.1,27.8-27.5c5.9-6.1,10.8-2.6,14.5,5c9.9,20.3,28.4,26.9,49.2,29.2C402.1,847.9,402.2,847.9,402.2,847.9z"/>
	<path class="st98" d="M324.2,644.5c1.6,0,3.2,0.1,4.7,0.1c-6.4,15-12.8,29.9-30.6,39.6C304.2,666.9,319.6,659.2,324.2,644.5z"/>
	<path class="st28" d="M254,726.5c0,1.3,0.1,2.6,0.1,4c-9.2,13-21.7,21.3-38.3,23.8C228.5,745,241.3,735.7,254,726.5z"/>
	<path class="st99" d="M382.8,543c2.6,14-3.8,26.2-7.9,38.9c-3.2,1.9-6.3,3.8-12.1,7.3C370.2,572.1,376.5,557.5,382.8,543z"/>
	<path class="st100" d="M137.1,789.8c-10.5-0.8-18.2-6.5-24.3-15.5c13.1,4.9,26.3,9.8,39.4,14.7
		C147.2,789.3,142.1,789.5,137.1,789.8z"/>
	<path class="st0" d="M449.3,137c-19.1-8-38.8-7.4-58.7-3.9c4.9-6.1,11.6-7.5,18.9-8c14.5-1.1,14.4-1.3,18.9-16.7
		C424,126.8,442.7,127.1,449.3,137z"/>
	<path class="st0" d="M390.9,132.8c3.8,5.7,8.8,8.5,15.7,7.1c15.3,3.8,25.8,13.1,31.1,28.1c-2.6-1.4-5.2-2.8-7.9-4.1
		c-7.3-11.2-17.1-18.2-30.8-20.2C395.4,143.1,383.7,143.6,390.9,132.8z"/>
	<path class="st0" d="M472.7,164.3c-7.9-9.2-15.8-18.3-23.7-27.5C463.6,140.1,469.6,151,472.7,164.3z"/>
	<path class="st101" d="M241.4,343.7c-6.5-14.7-12.4,3.9-18.7,0.4c14.1-16.9,18.1-16.4,26.8,3.4
		C246.8,346.2,244.1,344.9,241.4,343.7z"/>
	<path class="st102" d="M196.2,231.3c-4.6,11.4-9.1,22.9-13.7,34.3c-10.8-6.3-3.8-19.4-10.5-27.3c5.6-8.4,8.6-19,19.1-23.3
		C192.8,220.4,194.5,225.9,196.2,231.3z"/>
	<path class="st57" d="M224.7,241.9c10.4-2.5,20.8-5,31.2-7.3c0.9-0.2,2,1.1,4.1,2.2C248.6,242.9,237.4,245.9,224.7,241.9z"/>
	<path class="st103" d="M859.3,433.9c-19.2-5.6-38.8-5.4-58.5-3.9C821.2,418.4,840.8,418.8,859.3,433.9z"/>
	<path class="st103" d="M816.6,445.6c-8.1-10.1-25.6,4.2-31.4-12c5-2.7,10.1-4.7,15.9-3.7c0.1,1.3,0,2.6-0.1,3.9
		c-0.6,0.1-1.4,0-1.8,0.3c-0.8,0.5-1.4,1.3-2.1,1.9c9.9,2.2,21,0.6,29,9.1c-2,0.2-3.9,0.4-5.9,0.5c0,0-1.8-0.1-1.8-0.1L816.6,445.6z
		"/>
	<path class="st104" d="M859.5,543.1c0,7.7,0.1,15.5,0.1,23.2c-11.1-6-10.2-14.2-4.2-23.3C856.8,541.3,858.2,541.3,859.5,543.1z"/>
	<path class="st1" d="M859.5,543.1c-1.4,0-2.7-0.1-4.1-0.1c12.1-14.4,19.1-1.2,27.4,5.1c-6.6-1.6-13.2-3.1-19.8-4.7
		c0,0-1.8-0.5-1.8-0.5L859.5,543.1z"/>
	<path class="st105" d="M699.2,605.5c-15.5-18.1-29.6-36.6-19.4-62.6c11.4,1.4,19.3,7.6,22.4,18.6c2,7.1,5.7,9.6,12.6,8.1
		c3.3-0.1,4.9,1.1,3.6,4.6C702.2,578.6,705,594.8,699.2,605.5z"/>
	<path class="st106" d="M722.9,550.6c-1-9.4,1.4-18.3,3.6-27.2c16.3,2.2,13.2,18,19.3,27.4c-1.5,0.1-2.9,0.1-4.4,0.2
		c-3-5.3-6-10.6-9.7-17.1c-5.4,21,4.4,37.9,9.7,55.7c-2.6-1.3-5.2-2.5-7.8-3.8C725.2,575.6,715.3,565.8,722.9,550.6z"/>
	<path class="st107" d="M722.9,550.6c-1.2,13.2,8.5,23.1,10.8,35.2c-7.8-0.3-11.6-5.8-15.2-11.6c-1.2-1.5-2.4-3.1-3.6-4.6
		c-5.2-6.9-3.9-14.8-3.8-22.6C715,548.2,718.9,549.4,722.9,550.6z"/>
	<path class="st108" d="M777.5,519.6c-3.8-9.2-16.7-12.8-15.4-25.1c10.9,10.9,21.7,21.9,32.6,32.8c-3.1-0.1-6.3-0.1-9.5-0.2
		C782.6,524.6,780.1,522.1,777.5,519.6z"/>
	<path class="st109" d="M129.9,649.6c54.7-39.5,105.8-83.9,119.1-156.4C269.6,525.8,183.1,639.3,129.9,649.6z"/>
	<path class="st110" d="M197.4,141c0,0-1.4-0.6-1.4-0.6c11.2-7.8,24.1-0.7,35.7-4c38.3-11,73.9-27,100.7-57.9c1.3-1.4,2.9-4,4-3.9
		c6.6,1.1,2.7,5.5,1.2,7.4c-12,15.3-27.3,27.2-44,36.6C263.9,135.2,232.9,148.3,197.4,141z"/>
	<path class="st111" d="M727.2,426.2c-6.4,26.2-23.3,44.8-44,60.7c17.9-18.1,28.4-41.2,42.8-61.7L727.2,426.2z"/>
	<path class="st112" d="M726,425.2c1.8-18.5,13.2-35.3,11-54.6c7.4,20.2,0.1,38.1-9.8,55.6C727.2,426.2,726,425.2,726,425.2z"/>
</g>
</svg>
