<?xml version="1.0" encoding="utf-8"?>
<!-- Generator: Adobe Illustrator 23.0.1, SVG Export Plug-In . SVG Version: 6.00 Build 0)  -->
<svg version="1.1" id="Layer_4" xmlns="http://www.w3.org/2000/svg" xmlns:xlink="http://www.w3.org/1999/xlink" x="0px" y="0px"
	 viewBox="0 0 1000 1000" style="enable-background:new 0 0 1000 1000;" xml:space="preserve">
<style type="text/css">
	.st0{fill:#3D4856;}
	.st1{fill:#1D2329;}
	.st2{fill:#878A9A;}
	.st3{fill:#7F4000;}
	.st4{fill:none;}
	.st5{fill:#512800;}
	.st6{fill:#3D4755;}
	.st7{fill:#1C2228;}
	.st8{fill:#3C4755;}
	.st9{fill:#0F1215;}
	.st10{fill:#858898;}
	.st11{fill:#3E4856;}
	.st12{fill:#1D2328;}
	.st13{fill:#101316;}
	.st14{fill:#D76B00;}
	.st15{fill:#868999;}
	.st16{fill:#838695;}
	.st17{fill:#3C4754;}
	.st18{fill:#3B4653;}
	.st19{fill:#868998;}
	.st20{fill:#848797;}
	.st21{fill:#3B4654;}
	.st22{fill:#3A4451;}
	.st23{fill:#040506;}
	.st24{fill:#08090B;}
	.st25{fill:#090B0D;}
	.st26{fill:#818493;}
	.st27{fill:#1C2127;}
	.st28{fill:#808291;}
	.st29{fill:#7A7D8C;}
	.st30{fill:#808392;}
	.st31{fill:#0D0F12;}
	.st32{fill:#848898;}
	.st33{fill:#7E8190;}
	.st34{fill:#1A2025;}
	.st35{fill:#444D5B;}
	.st36{fill:#343E4A;}
	.st37{fill:#828695;}
	.st38{fill:#343D49;}
	.st39{fill:#090A0C;}
	.st40{fill:#262D35;}
	.st41{fill:#6D6F7C;}
	.st42{fill:#394350;}
	.st43{fill:#303843;}
	.st44{fill:#FEFEFE;}
	.st45{fill:#5F6471;}
	.st46{fill:#0E1014;}
	.st47{fill:#545966;}
	.st48{fill:#141518;}
	.st49{fill:#353F4B;}
	.st50{fill:#5D616E;}
	.st51{fill:#5A5F6B;}
	.st52{fill:#787A88;}
	.st53{fill:#313A45;}
	.st54{fill:#878B9B;}
	.st55{fill:#5E626F;}
	.st56{fill:#070809;}
	.st57{fill:#060709;}
	.st58{fill:#0B0D0F;}
	.st59{fill:#343D4A;}
	.st60{fill:#020203;}
	.st61{fill:#030405;}
	.st62{fill:#0D1012;}
	.st63{fill:#050607;}
	.st64{fill:#080A0C;}
	.st65{fill:#331A00;}
	.st66{fill:#050506;}
	.st67{fill:#15171B;}
	.st68{fill:#3B4553;}
	.st69{fill:#191E24;}
</style>
<g>
	<path d="M953.6,690.7c-49.2-45.8-107.8-78.1-167.3-108.1c-10.9-5.5-23.9-15-38.7-5.1c14.5-16.8,22.8-34.8,27.9-55.8
		c5-20.8,9.8-41.7,13.6-62.5c4.9-26.7-3.4-48.6-28.2-65.6c-37-25.4-77.3-43.8-118.2-60.7c-20-8.3-42.4-13.5-64.3-11.4
		c-21.1,2-41,10.3-59.2,22.1c-5.8,3.8-11,4.8-17.9-1.9c-44.2-42.1-97.5-67.7-155.7-84c-10.3-2.9-15.4-7.9-15.1-21
		c0.6-33.6-4.8-66.9-15.1-99.1c-7.3-22.6-32.6-28.1-49.6-11.3c-18.4,18-27.9,41.8-39.9,63.8c-8.5,15.6-16,13.1-24,2.2
		c-14.1-19.3-30.2-39-39.9-59.3c-14.3-30-36.4-45.4-63.1-58c-17.9-8.5-35-3.4-48,10.1c-12.7,13.2-17.9,29.1-13,48.6
		c9.5,38.1,40.4,48.2,71.9,57.4c6.2,1.8,12.1,1.9,16.6,7.4c10.4,12.7,25.6,17.7,39.8,24.5c14.6,7,25,17.5,34.6,32.4
		c20.8,32.7,19.3,72.3,43.4,105.3c33.6,46.1,65.9,91.9,113.5,124c22.2,15,46.6,28.3,75.4,20.3c6.3-1.8,10.7,1.8,13.2,4.4
		c4,4.1,3.9,13.6,0.6,16.3c-17.3,14.2-26.2,35.7-43.9,49.3C349,615.8,293.1,653,235.7,688c-19.5,12-23.4,28.8-12.3,49.5
		c15.5,28.7,37.2,51.8,67.8,64.1c31.9,12.7,63.6,17.8,94.8-4.7c35.2-25.4,65.2-56,95-87.1c3.5-3.7,5.5-11.3,10-3.5
		c12.3,21.7,33.1,32.7,53.1,44.5c9.1,5.4,13.2,8.8,6.2,19.3c-5.7,8.4-0.6,16.1,6.9,21.4c7.4,5.2,16.2,5.8,26.8,5.6
		c-2.9,3.4-4.4,5.4-6.1,7.2c-10.1,10.3-18.6,20.3-10.9,36.8c8.5,18.1,24.8,26.9,41,24.9c25.6-3.2,51.8-9.8,74.5-23.3
		c15-8.9,23.9-23.8,21.3-41.9c-4.2-29.3-10.3-58.4-15.2-87.6c-1.8-10.7-9.2-21.9,3-33.3c9.3,13.8,19,25.7,30.7,35.7
		c8.8,7.6,12.6,17.7,12.5,28.5c-0.2,23.8,10.5,43.2,25.3,59.5c10.4,11.4,19,31.2,41.6,21.2c2.8-1.3,7,3.5,7,7.6
		c0.3,20.5,8.7,39.3,12.6,59.1c2.6,13.6,1.6,33.5,19.9,37.5c16.9,3.7,30.8-7.5,40.6-20.3c32.6-42.4,62.7-86.7,86-134.9
		C981.8,745.3,982.6,717.7,953.6,690.7z M706.3,445.5c-3.6,8.8-12.4,16.9-17.3,14.4c-14.1-7.2-26,3.2-38.8,1.1
		c-11.9-2-28.1,2.2-17.8-21.8c5.1-11.9-6.9-25.6-15.8-36c-3.8-4.5-10.3-6.6-16.9-10.5c11.5-8.7,21.8-2.6,31.8,1.3
		c23.9,9.3,45.3,23.5,67,36.9C702.6,433.4,710.2,436,706.3,445.5z M528.4,639.4c1.5-1.1,3-2,5.2-3.6c5.4,6.2,15.3,9.1,14.1,18.9
		c-1.2,10.3-4.6,20.4-6.9,30.6c-0.5,2.2-0.1,6.1-3.7,3.9c-12.2-7.5-10.8-21.9-15.4-33.2C519,649.4,522.7,643.5,528.4,639.4z
		 M569.3,691.7c2.1,9.2,1.2,10.1-9.2,20.4C560.4,701.9,569.8,698.8,569.3,691.7z M270,223.8c1.1-1.8,4.4-5,5.2-3
		c1.4,3.8,0.4,8.5,0.4,13.3C271.6,231.4,266.4,229.7,270,223.8z"/>
	<path class="st0" d="M537.5,519.2c22.1,20.8,46.3,38.9,71.8,54.9c13,8.2,27.8,20.5,43.6,5.7c12.8-12,11.3-36.1-3.2-53.4
		c-25.9-30.9-57.1-56-90-79c-3.7-2.6-7.6-4.9-11.2-7.6c-3-2.2-7.8-3.9-6.3-8.6c1.6-4.8,6.4-5.6,11.2-5.6c12.8,0,23.9,4.7,34.1,11.8
		c6.4,4.9,8.8,12.2,11.8,19.1c19.2,0.7,31.1,15.1,45.9,24.2c12.4,4.4,20.1,14,26.7,24.7c1.7,4,2.9,8.1,5,11.9
		c2.8,4.4,5.8,8.7,7.9,13.5c6,2,12.6,3.1,18,6.2c32.7,18.8,32.5,62.5,0,83.2c-4.3,2.7-6.7,1.8-9.9-1.1c-4.7-4.3-9-9.4-15.8-10.6
		c-10.6-2.2-11.6,4.1-11.4,12.3c0.7,26.4-18.4,39.6-36.1,53.3c-9.7,7.4-16.2-3.1-24-6.2c-33.2-22.5-45.4-55.2-44.9-94
		c-2.4-20.5-15.3-35.2-27.8-50.1C531.9,519.7,533.4,518.1,537.5,519.2z"/>
	<path class="st0" d="M334.6,796.4c-4.3,0.2-8.7,0.6-12-3.1c-1-5.5-6.3-3.2-9.3-5.1c-3.1-1.5-6.1-3.3-9.6-4
		c-14.4-6.4-26.8-15.7-36.6-28c-12.8-16.1-11.9-27.1,4.4-39.6c26.2-20.1,51.5-41.2,78.8-59.7c25.7-17.4,49-38,72.2-58.7
		c6.4-5.7,13.1-10,21.2-12.3c10.7,0.9,14.9,11.3,23.2,15.7c5.9,5.2,6.9,11,2.1,17.5c-42,45.8-92.6,80.5-143.9,114.6
		c-5.1,3.4-18.8,4.7-12,15.2c5.9,9.1,16.6,11.5,27.4,4.5c34.2-22.3,66.5-47.1,96.1-75.2c9.8-9.3,17.7-20.7,30.1-27.3
		c1.9-0.2,3.7,0.3,5.2,1.6c3.4,7.9-1,13.9-5.3,19.5C433.3,714.1,397,753.4,355.7,788C349.3,793.4,341.6,793.7,334.6,796.4z"/>
	<path class="st0" d="M816.6,789.2c-11.9-1.2-13.6,12.5-22.5,15.6c-16-11.6-21.9-30-30.2-46.7c-4.6-9.2-6.4-19.8-13.3-27.9l0.1,0.2
		c-1.7-5.2,0.4-11.2-3.6-15.8c-14.2-11.8-27.6-24.2-41.8-42c18.8,1.7,33,0.5,44.5-9.7c11.4-10.1,19.2-22.3,21-37.8
		c2.1-4.5,5.8-8.4,10.4-5.7c22.4,12.8,47.9,20.8,64.8,42.1c-2.6,8.5,2.2,12.3,9.2,14.8c18.4,14.4,42.7,21.2,55.5,42.9
		c3.1,28.3-11,40.6-39.6,33.4c-32.1-8.1-60.8-25.2-91.5-36.7c-5.3-2-10.6-4.4-15.5-7.4c9.6,6.6,19.2,13.1,26.1,22.7
		c13.2,17.5,30.4,31.4,43,49.3c28,39.8,37.6,82.4,18.7,129.1c-3.3,0.1-6.1-0.5-6.7-4.5c1.3-8.3-1.1-16.1-2.8-24
		c-3.1-6.9-0.4-15-4.6-21.6c-1.1-2.6-1.2-5.5-1.4-8.3c-1.3-11.1-7.9-20.9-8.3-32.3c-2.6-6-5.3-11.9-7.9-17.9
		C820.2,796.8,821.8,792,816.6,789.2z"/>
	<path class="st1" d="M778,710.9c31.1,12.3,61.9,25.6,93.4,36.6c26,9.1,38-1.7,35.2-29.1c6.5-2.6,9.9,4.7,17.4,5
		c-20.7-19.7-45.2-30.8-67.4-45.5c-5.7-3.1-10.3-7.1-12-13.7c-18.4-19.2-44-27.2-65.4-41.8c-1.5-1-5.6,1.7-8.5,2.7
		c2.5-10.5,0.2-20.2-7.5-31.7c36.9,11.3,66,31.8,96.1,49.7c25.5,15.1,49.7,32.7,73.7,50.2c27.8,20.3,33.6,45.3,17.7,76.6
		c-27.8,54.8-17.3,48.1-65.6,15.5c-26.2-17.6-51.3-37-79.6-51.5C794.2,728.7,780.2,726.8,778,710.9z"/>
	<path class="st0" d="M303.7,351.7c3.9-2.6,7.7-5.3,11.6-7.9c9.6-6.2,19.7-10.3,31.4-8.3c4.9,0.6,9.4,2.3,13.8,4.4
		c1.7,0.7,3.4,1.6,5,2.5c37.6,25,74.9,50.3,109,80.2c8.9,8.3,21.2,14.9,15.9,30.6c-15.2,21.1-35.1,33.9-61.5,35.2
		c-4.6,2.3-9,3.3-13-1.1c1.4-9.6,10.4-10.3,16.6-13.9c7.8-4.6,15.5-9.1,21.5-16c2.9-3.3,7.5-7.5,3.5-11.5c-4.8-4.8-7.9,1.4-10.6,4.4
		c-12.9,14.7-29.1,22.9-48.1,26.1c-3.2,0.5-6.4-0.1-9.5-1c-8.2-4.3-17.5-7.2-20.6-17.5c6-12.4,20.2-13,29.4-20.7
		c7.4-6.2,22.9-12.4,15.8-22.2c-8.2-11.3-15.3,4.7-22.5,9.2c-12.9,8-23.7,20.4-40.9,19.2c-7-3.7-12.4-8.7-13.7-17
		c4.7-14.2,20.7-16.8,28.5-27.8c3-4.3,11.3-7.9,4.6-14c-4.7-4.3-9.4,1.2-13.2,4.6c-10.9,10-20.5,21.9-37,22.4
		c-8.4-5.4-13.5-14-20.6-20.8c2.2-10.9,13.6-12.4,19.8-19.5c9.5-10.8,6-13.8-6.2-13.9C308.8,356.7,305.6,355.1,303.7,351.7z"/>
	<path class="st0" d="M750.7,410.1c23.3,7.8,25.8,26,23.1,46.8c-6.1,14.1-9.1,30.9-28.3,33.9c-7.9-3-3.5,6.8-7.8,7.7
		c-5.9,2.9-11.7,6.3-18.2,1.8c-6.8-7-2.9-11.7,2.5-17.8c20.8-23.8,18.5-39.9-8.7-55.4c-29.6-16.8-56.3-39.2-90-48.7
		c-8.4-2.4-16.2-4.4-24.1,0.7c-13.3,7.7-26.4,16.2-41.7,19.4c-6.6,1.4-13.5,5.4-20-0.5c0.3-4.2,0.6-8.4,0.9-12.6
		c14.8-25.1,49.2-50.3,78.1-39.4c5.3,1.6,10.8,2.1,16.1,3.8c5.9,1.5,11.3,5,17.5,5.4c32.2,10.5,61,27.9,90.5,44.1
		c4.5,2.5,8.9,5.4,10.4,10.9c-2.8,2.7-2.1,6.6-3.5,9.7C749.2,416.9,748.3,412.9,750.7,410.1z"/>
	<path class="st1" d="M490.3,453.2c-1.3-13-9.9-20.9-19.8-27.8c-30.6-34.7-67.7-60.8-108.7-81.4l0.1,0.2c-7.4-7.1-7.6-7.2-11.5-4.3
		c-12-1.6-23.3,3.3-35.1,3.9c13.9-20.1,24.4-41.1,21.4-66.9c-1.2-10.6,5.8-3.8,9.6-3c4.8,4.2,4.5,10.1,5.3,15.7
		c1,6.9,1.9,14,10.4,15.7c7.4-5-2-19.3,11.8-20.3c6,1.1,11.5,3.1,15.6,8c5.9,6.1,4.6,14.5,6.7,21.8c2.3,8.3,5.8,15.5,14.7,18.2
		c5.1-9-7.3-21.1,5.7-28.2c6.6,3.7,14.3,5.5,19.5,11.6c12.2,12.7,4,32.5,15.1,46.1c8.6-9.1-4.5-25.6,12.1-30.7
		c3.9,2.7,7.7,5.4,11.6,8.1c13.7,16.5,10.7,37.3,13.7,58.5c10.1-9.5-2.3-26.5,13.5-31C515.5,398.4,510.1,426.7,490.3,453.2z"/>
	<path class="st2" d="M443.6,585.9c-51.9,49.7-112.1,88.9-168.2,133.3c-17.1,13.5-17.7,19.2-3,35.9c9.9,11.2,20.6,21.2,34.8,26.7
		c-0.2,7.8-5.2,4.3-8.9,3.7c-27.8-9.9-45.4-31.1-59.8-55.2c-7-11.7-4.4-22.1,8.5-29.3c55.5-31.2,108.4-66.1,157-107.5
		C415,583.9,428.7,579.2,443.6,585.9z"/>
	<path class="st1" d="M851.7,909.7c1.5-23.1,6.6-45.9,2.5-69.5c-6-34.4-26.5-59.6-48.6-84.4c-7.2-8-18-13.3-20.1-25.4
		c8.9-5.1,12.5,1,15.8,7.6c33.7,24.7,67,49.9,101.2,73.9c12.3,8.7,16.6,15.4,5.7,28.9c-15.8,19.5-29.9,40.3-44.4,60.8
		C860.7,906.2,857.7,909.9,851.7,909.7z"/>
	<path class="st1" d="M493.2,516.5c26.3,5.6,54.6,33.6,58.8,58.1c2.2,12.6-17.8,43.5-31.2,48.4c-4.1,1.5-64.3-43-63-47
		c1.1-3.4,4.9-5.9,6.7-9.3c5.7-10.5,18.5-16.9,17.9-31C483.6,527.9,490.5,523.3,493.2,516.5z"/>
	<path class="st1" d="M466.5,616.7c5-4.9,0.6-10.1,0.4-15.2c15.8,5.3,25,19.6,38.1,28.6c6.6,4.5,3.2,10.4,0.2,15.4
		C467.9,706,418,753.7,358.9,792.3c-7.5,4.9-15.9,4.9-24.3,4.1c33.5-22.1,61.6-50.3,88.4-79.8c13.4-14.7,25.8-30.4,38.8-45.5
		c4.7-5.5,8.3-11.5,9.4-18.8c0.2-4.8,1.8-9.3,1.8-14.1C477.4,629,471,623.2,466.5,616.7z"/>
	<path class="st3" d="M586.8,733.1c-5-9.3-1.7-44.8,4.7-52.6c4.8-5.9,8-0.3,11.3,1.6c8.9,5.1,16.3,13.1,27.4,13.7
		c8.9,4.3,15.8,9.8,12,21.3c-19.1,13.4-21.4,32.6-16.6,53.2c4.4,18.8-1,37.1-0.1,55.7c-1.3,13.7-11.7,17.6-22.5,21.3
		c-4.3,0.1-8.9,1.3-12-3.1c-0.7-15.5,8.7-28.1,11.9-42.5c2-9.5,0.9-18.6-6.8-22.1c-13.9-6.4-12.6-16-9.7-27.2
		C588,745.9,587.6,739.5,586.8,733.1z"/>
	<path class="st1" d="M539.1,443c31.9,24.9,65.3,46.3,92,75.7c6.5,7.1,12.2,15,17.8,22.9c8.3,11.6,4.2,23.1-3.7,32.1
		c-8,9.2-17.2,1.1-23.9-3.4c-19.8-13.3-39.2-27.4-57.9-42.2c-14.2-11.2-26.8-24.4-40.6-36.1c-8.4-7.1-8.8-13.9-1.3-21.1
		C529.2,463.6,531.8,453.1,539.1,443z"/>
	<path class="st4" d="M706.3,445.5c-3.6,8.8-12.4,16.9-17.3,14.4c-14.1-7.2-26,3.2-38.8,1.1c-11.9-2-28.1,2.2-17.8-21.8
		c5.1-11.9-6.9-25.6-15.8-36c-3.8-4.5-10.3-6.6-16.9-10.5c11.5-8.7,21.8-2.6,31.8,1.3c23.9,9.3,45.3,23.5,67,36.9
		C702.6,433.4,710.2,436,706.3,445.5z"/>
	<path class="st5" d="M641.8,714.6c-3.9-6.3-7.8-12.5-11.7-18.8c16.4,0.9,24.6-15.5,40.9-20c-6.1,42.2,11.6,80.1,14.9,120
		c1.3,15.6-3.4,25.2-15.2,32.1c-20.8,12.1-42.9,20.7-67.7,19.3c6.8-6.1,15.4-10.4,19.4-19.3c7.3-8.1,18.3-8.8,27.3-13.6
		c13.5-7.2,19.8-17.5,16.9-33.2C662.3,757.5,663.5,731.7,641.8,714.6z"/>
	<path class="st1" d="M272.2,313c26.1-20.7,26.6-23.5,11.5-69.1c27.6,3.8,38.1,12.9,42.3,36.5c3.8,21.7-14.6,53-37.6,63.6
		C275.2,337.8,266.4,329.3,272.2,313z"/>
	<path class="st1" d="M607.4,667.6c23.9,10.3,56.2-19.7,54.2-49.8c-0.3-5-7.5-11.5,0.4-15.2c5.6-2.6,10.8,2.1,15.1,6
		c-3.6,9.6,5.4,11.5,10,15.2c6.7,5.3,15.4,9.7,12.3,19.6c-3.2,10-10.6,19.2-21.5,19.9c-13.9,0.9-23.8,6.5-34,15.5
		c-17.7,15.6-28.3-2.9-40.9-10.9C604.5,666.2,605.9,666.2,607.4,667.6z"/>
	<path class="st6" d="M225.9,222.9c24.7,4.2,41.3,20.8,55.8,39.2c10.9,13.8,5.4,28.3-12.8,39.1c-22.7-12.4-36.3-33.8-51.9-53.2
		c-0.6-1.6-0.8-3.4-0.7-5.1C220.1,236.4,223.3,229.8,225.9,222.9z"/>
	<path class="st1" d="M719.8,663.9c-8.6-1.7-14.2-2.2-12.2-17.7c2.1-16.4,7.9-28.5,17.9-39.5c4.5-5,4.6-17,15.4-13.7
		c9.6,3,16.4,10.5,19.3,20.2C764.8,628.5,737.1,663.9,719.8,663.9z"/>
	<path class="st7" d="M719.5,500.2c6.6-1.4,13.2-2.7,19.7-4.1c5-2.5,7,1.8,9.8,4.3c-1.5-3.5-5.2-5.5-6.6-9.1c-0.4-1.1,0-2.3,0.8-3.4
		c17.6-3,21.2-19.9,30.5-31c-4.7,32.7-14.2,63.9-26.9,94.3c-3.7,8.8-6.2,8.8-14.7,3.2C710,539.6,715.1,520.2,719.5,500.2z"/>
	<path class="st1" d="M101.3,94.2c8.6,5.4,18,9.9,25.8,16.3c26.5,21.8,22,47.8-10,61.7c-13.8-2.1-25.1-9.8-36.7-16.8
		c-5-3-9.8-6.9-7.4-14.1c2-2.3,4.6-3.1,7.5-3.1c23.1-0.8,30.4-11.9,21.1-32.2C98,102.1,97.7,98.2,101.3,94.2z"/>
	<path class="st8" d="M310.9,239.1c-14.3-8.8-5.9-24.4-10.7-36.3c-4.3-10.7,0.2-29.6-11.2-31.9c-11.6-2.3-12.1,16.9-18.5,25.9
		c-5.2,7.2-6.7,16.8-13.5,23.2c-7.3-0.5-6.2-6.1-6.7-10.9c1.1-5.7,4.3-10.7,5.9-16.3c4.5-15.8,13.1-29.4,21.8-43
		c4.2-6.6,8.9-12.9,18-12.8c13.5,14.7,10.8,34.4,15.8,51.7c2.4,8.3,2.6,17.3,3.8,26C315.3,223.1,323.5,233.1,310.9,239.1z"/>
	<path class="st9" d="M350.2,441.4c18.9-4.3,33.8-15.4,46.5-29.1c8.1-8.7,14.6-11.5,23.4-2c9.8,10.5-1.8,14.6-6.4,20
		c-11.7,13.6-28.8,18.7-44,26.8c-4.8,5.9-11.8,6.1-18.4,7.4c-6.8-6.2-13.7-12.3-20.5-18.5C336.1,439.4,342.9,439.3,350.2,441.4z"/>
	<path class="st10" d="M618,348.1c-35.2-6.1-56.5,17.7-79.7,37.3c-5.5,1-9.6-1.4-14-4.7c-15.2-11.4-15.3-14.4,2-22.9
		c15.5-7.6,29.9-18.1,48.1-18.3c8.6-2.1,17.1-2.3,25.7,0.1c8.6,1.7,17.3,3.4,25.9,5.1C625.9,351.7,621.8,349.5,618,348.1z"/>
	<path class="st11" d="M225.9,222.9c6.5,10.1-0.1,15-7.7,19.5c-12.5-9.6-21.2-23.6-35.4-31.2l0.4,0.3c-9.6-8.4-21.6-12.9-32.3-19.4
		c-5.8-3.5-12.7-6-15.1-13.4c4.6-4.5,9.7-8.7,13.7-13.6c10.9-13.2,17.2-13.5,22.7,2.9C181.4,195.6,200.4,212.1,225.9,222.9z"/>
	<path class="st12" d="M518.4,393c13,11.7,14.6,33.8,5.1,55.6c-11,25.2-43.1,47.7-67.4,45.4C494,470.2,519.6,440,518.4,393z"/>
	<path class="st13" d="M319.2,410.2c14.9-5.6,27.2-15.1,37-27.5c7.2-9.1,14.2-7.7,21.2-1.1c7.8,7.4-1.1,11.2-4.5,15.7
		c-9.1,12.2-22.9,18.7-34.2,28.3c-5.4,6.2-12.6,8.1-20.5,8.1c-4.1-8.4-11.7-13.7-18.4-19.7C305.4,408.6,312,407.8,319.2,410.2z"/>
	<path class="st9" d="M389.4,472.8c23.6-1.5,43.9-10,57.2-30.5c4.8-7.5,8.7-8.2,15.1-3.3c6.5,5,6.4,10.4,1.3,16.5
		c-12.4,14.9-28.6,23.3-46.6,28.9c-3.9,3.3-7.7,3-11.6-0.1c-10.9,4.3-20.4,3.5-27.3-7.3C380.4,472.6,384.1,470.4,389.4,472.8z"/>
	<path class="st1" d="M509.3,664.1c7.4,27.4,23.8,43,45.6,53.8c3.4,1.7,7.1,3.8,9.3,6.8c3.8,5.1,14.8,8.6,8.6,16.8
		c-5.2,6.8-12-1-16.9-3.9c-13.3-7.9-26.4-16.4-38.8-25.7C500.4,699.3,497.5,683.9,509.3,664.1z"/>
	<path class="st14" d="M586.8,733.1c4.7,2.6,5.2,7.2,4.8,11.8c-1.3,14.5-6.2,29.5,13.4,37.2c4.9,1.9,5.1,10.5,3.2,17.6
		c-4.1,15.5-8.7,30.7-17.3,44.4c-11.1-9.5-10.9-18.9-1-29.6c6-6.6,10.7-14.6,7.2-24.7c-3-8.5-8.6-11.1-16.5-7.7
		c-5.5,2.4-9.8,2.4-13.2-3.1c-2.9-4.8-0.4-8.8,2.2-12.5C577,756.1,584.2,745.8,586.8,733.1z"/>
	<path class="st15" d="M295.9,137c-17,16.2-29,35.4-35,58.2c-4.7,2.8-6.7,7.8-9.5,12.1c-0.6,3.7-2.9,6.1-6.1,7.8
		c-9.9-1-13.4-4.4-8.1-14.9c9.9-19.5,19.8-38.9,32.1-57C275.9,133.4,284.2,126.5,295.9,137z"/>
	<path class="st1" d="M607.4,667.6c-1.4,0.1-2.9,0.1-4.3,0.2c-18.1-13-36.1-26.2-54.5-38.9c-6.6-4.5-9.6-8.9-2.6-15
		c12.3-10.7,14.5-24.9,14.6-40c3.1,12.9,6.2,25.9,9.4,38.8C575.6,635.8,592,651.3,607.4,667.6z"/>
	<path class="st16" d="M493.2,516.5c6.4,12.1-6.2,13.4-10.8,19.1c-13.3,5.8-18.8,19.1-28,28.9c-3.8,4.1-5.8,11-13,10.2
		c-4.2-0.5-9.8,1.8-12.3-3.1c-2.2-4.3,2-7.3,4.6-9.8C451.8,544.4,462.6,517.2,493.2,516.5z"/>
	<path class="st17" d="M272.2,313c-0.7,13.5,9.8,21.2,16.2,31c-30.2,10-44.8,0.5-52.2-34.9C248.5,308.6,260,315.5,272.2,313z"/>
	<path class="st13" d="M311.4,355.5c7.4-4.8,15.7-5.3,20.6,1.9c5,7.4-4.5,10.5-8,15.1c-6.3,8.3-15.2,13.3-24.7,17.4
		c-1.8,5.6-8.1,5.4-11.6,8.7c-5.1-7.9-10.1-15.8-15.2-23.6c4.8-5.4,12-6.6,17.9-10.1C297.6,362.2,303.6,356.9,311.4,355.5z"/>
	<path class="st18" d="M81.6,140.6c-2.4,0.1-4.8,0.2-7.2,0.3c-5.3,3-10.5,2.1-15.8,0.1c-9.8-10.8-9.7-22.7-3.5-35.1
		c3.4-1.2,5.1,0.9,6.7,3.3c3.6,7.7,6.9,16.9,18.1,12.4c10.2-4.2,8.8-13,6-21.6c-0.8-2.5-1.4-5-1.1-7.6c2.2-4.2,5.2-5,9.2-2.3
		c2.5,1.4,5,2.8,7.5,4.2c0.1,4.3-0.6,8.8,3.5,11.9C110.5,127.2,103.8,137,81.6,140.6z"/>
	<path class="st19" d="M750.5,730.3c8.2,0.5,10.2,7.4,12.2,13.1c7.8,21.9,20.6,41.1,31.4,61.4c-24.1-1.4-29.6-22.2-38.3-38.6
		C750.1,755.6,749.7,742.7,750.5,730.3z"/>
	<path class="st20" d="M219.2,245.6c16.6,18.5,33.2,37.1,49.7,55.6c-10.2,7.6-18.9,1.9-25.6-4.8c-12.2-12.2-24-25-29.2-42.2
		C211.5,248.7,212.1,245.2,219.2,245.6z"/>
	<path class="st1" d="M537.4,398c21.8-2.2,40.7-14.1,61.8-18.9c-7.2,8.1-14.5,16.2-21.7,24.5c-4.6,5.3-4.2,16.2-15.8,13.1
		C550.9,413.8,537.9,414.2,537.4,398z"/>
	<path class="st9" d="M501.9,367.4c-7.3,7.7-2.4,17.2-3.8,25.7c-0.8,5.3,1.7,14-5.9,13.9c-6.7-0.1-14-7-11.8-14.5
		c5.3-18.7-3.2-35.2-5.7-52.6C484.6,348.3,497.7,353.4,501.9,367.4z"/>
	<path class="st9" d="M463.1,331.9c-8.7,12.3-0.7,26.7-5.5,40.7c-28.6-10.7-14.6-37.7-21.7-56.1C447,318.1,454.9,325.2,463.1,331.9z
		"/>
	<path class="st9" d="M416.4,304.9c0,11.8,0,23.7,0,36.2c-27.4-6.8-27.6-27.3-27.1-48.1C399,295.4,408,299.5,416.4,304.9z"/>
	<path class="st4" d="M547.7,654.7c-1.2,10.3-4.6,20.4-6.9,30.6c-0.5,2.2-0.1,6.1-3.7,3.9c-12.2-7.5-10.8-21.9-15.4-33.2
		c-2.7-6.5,1-12.4,6.7-16.6c1.5-1.1,3-2,5.2-3.6C539,642.1,548.9,644.9,547.7,654.7z"/>
	<path class="st9" d="M373.7,285c-4.9,3.7-3.1,9.3-4.2,14.1c-1,4.9,4.3,14.1-4.3,13.8c-7.5-0.2-17-3.9-18.3-14.1
		c-1-8.3-0.5-16.7-0.7-25.1C356,276,366,277.7,373.7,285z"/>
	<path class="st21" d="M537.5,519.2c-1.6,1.5-3.1,3.1-4.7,4.6c-14.9-13-32.7-17.2-52.6-16.6c18.7-20.3,24.4-20.7,42.6-3.3
		C527.9,508.8,532.6,514.1,537.5,519.2z"/>
	<path class="st22" d="M58.5,141c5.3-3.6,10.5-3.7,15.8-0.1c8.2,18.7,30.2,18.5,42.8,31.2C91.1,174.1,73.8,159.4,58.5,141z"/>
	<path class="st23" d="M669.6,507.6c-8.1-8.9-16.2-17.8-24.3-26.7c2.8-2.7,5.6-5.4,8.4-8.1c12.9,18.3,25.9,6.4,38.8,0
		c7.5,0.2,7.9,5.5,7.8,11.1c-1.8,3.5-5.2,4.3-8.5,5.5c-6.1,1.7-9.4,6.5-12.4,11.6C676.8,504,675.4,509,669.6,507.6z"/>
	<path class="st20" d="M135.7,178.6c15.9,10.8,37.1,13.9,47.4,32.8c-16.6-3.1-31.6-10.2-44.8-20.5
		C135.4,188.6,125,185.1,135.7,178.6z"/>
	<path class="st10" d="M287.7,398.6c0.1-7.9,6.9-6.9,11.6-8.7c11.3,2.1,15.8,11,19.8,20.3c-6,3.6-12.5,4.7-19.4,3.9
		C295.8,408.9,291.8,403.8,287.7,398.6z"/>
	<path class="st24" d="M801.4,738.1c-5.5-2-8.9-8.5-15.8-7.6c-10.9-8.5-21.7-16.9-33.2-25.9c11-4.3,17.7,3.4,25.6,6.3
		c6.5,10.9,20.9,12.3,27.5,23.1C804.1,735.3,802.7,736.7,801.4,738.1z"/>
	<path class="st7" d="M692.5,472.7c-1.7,4.7-6,6.3-9.7,8.9c-17.3,12.5-19.8,11.8-29.1-8.8C666.6,472.7,679.5,472.7,692.5,472.7z"/>
	<path class="st25" d="M708.1,516.2c-2.6,2.4-5.1,4.9-7.7,7.3c-6.6-4.7-16.3-4.3-20.8-12.7c4.1-7.5,5.1-16.2,9.2-23.7
		c8.5-2.3,13.4,4,19.3,8C712.6,502.1,707.3,509.1,708.1,516.2z"/>
	<path class="st26" d="M219.2,245.6c-3.7,1.7-4.9,4.8-5.1,8.6c-6.4-17.3-23.4-26.8-31.4-43c17.7,3.7,27.7,16.1,35.4,31.2
		C218.5,243.5,218.8,244.5,219.2,245.6z"/>
	<path class="st27" d="M563.4,650.8c8.6,19.4,0.8,31.6-5.6,43.7c-0.8,1.6-4.2,1.7-6.4,2.6c-0.6-2.3-2.2-5-1.6-6.9
		C553.6,678.3,557.9,666.5,563.4,650.8z"/>
	<path class="st28" d="M712.8,479.3c-5-2-9.6-6.6-8-9.8c3.8-8.1,8.2-17.1,16.9-21.1c3.7-1.7,6.7,3.2,5.9,7.6
		C725.8,465.7,720.8,473.6,712.8,479.3z"/>
	<path class="st29" d="M389.4,472.8c-4,1.4-8,2.8-12,4.3c-10.7,0-17.6-8-26.1-12.7c4.1-7.6,11.5-6.9,18.4-7.4
		C376.3,462.3,382.9,467.6,389.4,472.8z"/>
	<path class="st30" d="M318.2,433.8c4.9-7.6,13-7,20.5-8.1c3.9,5.2,7.7,10.5,11.6,15.7c-5.9,3.8-12.7,4.2-19.4,4.5
		C326.6,441.9,322.4,437.8,318.2,433.8z"/>
	<path class="st31" d="M622,429.6c6,9.4-5.8,12.6-6.7,19.6c-5.3,3.5-7.4-7.3-13-3c-8-8.9-1.4-17.2,1.1-25.6
		C612.3,418.2,616.8,424.6,622,429.6z"/>
	<path class="st32" d="M828,819.1c6.9,9.7,11.4,20.3,11.8,32.4c-3.3,3.4,0.6,9-3.7,12.1C832.3,849,820.8,835.8,828,819.1z"/>
	<path class="st33" d="M292.1,367.3c-4.7,7.3-12.1,7.4-19.5,7.7c-2.8-3.9-9.2-7.8-6.6-12.2c3.9-6.5,12.1-2.6,18.4-3.7
		C287.4,361.4,291.6,362.6,292.1,367.3z"/>
	<path class="st34" d="M600.6,411.8c-3.6,3.3-8.2,8.6-13.9,12.2c-2.1,1.3-6.2-2.5-4.4-6.2c2.9-5.9,3-14.8,12.6-14.6
		C597.9,403.3,601,405.1,600.6,411.8z"/>
	<path class="st35" d="M292.1,367.3c-2.6-2.7-5.2-5.4-7.7-8.2c6.4-2.5,12.9-5,19.3-7.5c3.1,0.1,6,0.7,7.7,3.8
		C307,362.8,300.2,366.1,292.1,367.3z"/>
	<path class="st36" d="M680.6,511.7c7.5,2.4,18-0.4,19.8,11.7c-2.8,4.8-7.3,3.7-11.6,3.6c-6.1-1.3-11.3-3.8-13-10.5
		c-0.7-1.7-0.5-3.3,0.3-4.9C677.6,510.5,679.1,510.6,680.6,511.7z"/>
	<path class="st37" d="M288.6,230.5c-1.2-13.1-6.6-25.8-3.8-41.7c7.8,8.4,7.7,16.9,7.7,25.3C293,220,298.4,227,288.6,230.5z"/>
	<path class="st38" d="M603.2,422.4c4.8,7.4-2.4,15.1,0.5,22.5c-1.7,1.6-3.6,2.2-5.9,1.9c-8.1-4.4-4.4-10.9-3.1-17
		c1.2-5,2.8-9.7,8.4-11.5c1.4,0.9,1.9,1.8,1.4,2.7C604.1,422,603.6,422.4,603.2,422.4z"/>
	<path class="st39" d="M594.7,429.8c1,5.3-1.2,11.6,4.7,15.5c1.9,2.2,5.6,3.4,4.3,7.5c-1.4,1.3-2.8,2.6-4.3,3.8
		c-8.6-3.5-10.6-11-11.8-19.1C589.9,434.9,592.3,432.4,594.7,429.8z"/>
	<path class="st40" d="M93.8,90c-3.1,0.3-6.2,0.6-7.8,3.9c-5.4,2.7-11.1,4.4-17.1,5.2c-0.8-0.3-1.6-0.7-2.4-1
		C71.3,80.6,82.4,85,93.8,90z"/>
	<path class="st18" d="M603.2,422.4c0-1.4-0.1-2.7-0.1-4.1c11.3-4.7,17,0.1,18.9,11.3C614.6,430.2,610.9,421,603.2,422.4z"/>
	<path class="st33" d="M840.7,858.4c5.3,7.3,3,15.9,4,24c1.3,3.7,3,7.7-3.7,7.6c-1.3-6.4-2.7-12.9-4-19.3
		C839.9,867,836.3,861.5,840.7,858.4z"/>
	<path class="st41" d="M404.8,484.4c3.9,0,7.7,0.1,11.6,0.1c3.2,4.5,7.9,4,12.4,3.9C419.8,492.9,411,496.8,404.8,484.4z"/>
	<path class="st0" d="M707.9,496.3c-7.8,1.6-11-9.2-19-7.2c-1.2-0.8-1.7-1.7-1.4-2.7c0.3-1,0.7-1.5,1-1.5c3.9-0.4,7.8-0.8,11.7-1.2
		c2.6,2.7,5.3,5.3,7.9,8c1,1.1,1.3,2.1,0.8,3.1C708.7,495.8,708.3,496.3,707.9,496.3z"/>
	<path class="st42" d="M707.9,496.3c0.1-1.5,0.2-3.1,0.3-4.6c5.2,8.2,6.4,16.3-0.1,24.4C700,509.6,711.3,502.9,707.9,496.3z"/>
	<path class="st43" d="M310.9,239.1c7.8-6.9,2.8-16.3,4.6-24.3c5.7,6.6,3.2,14.7,3.2,22C318.6,242.5,314.6,242.1,310.9,239.1z"/>
	<path class="st4" d="M560.2,712.1c0.3-10.2,9.6-13.3,9.2-20.4C571.5,700.8,570.5,701.8,560.2,712.1z"/>
	<path class="st44" d="M569.3,691.7c-0.2-0.9-0.4-1.9-0.7-3C569.1,689.8,569.3,690.8,569.3,691.7z"/>
	<path class="st45" d="M841,889.9c1.2-2.5,2.4-5.1,3.7-7.6c5.1,7.6,5.1,15.2,0.4,22.9C843.7,900.1,842.3,895,841,889.9z"/>
	<path class="st46" d="M677.2,515.2c3.9,3.9,7.8,7.9,11.7,11.8c-1.3,1.3-2.6,2.6-3.9,3.9c-5.7-2-9.3-6.1-11.6-11.5
		C674.4,517.8,674.7,515.6,677.2,515.2z"/>
	<path class="st42" d="M603.7,452.8c-1.4-2.5-2.9-5-4.3-7.5c1.4-0.1,2.8-0.2,4.3-0.4c6.3-5,7.6,3.4,11.7,4.3
		C612.4,453.8,608,453,603.7,452.8z"/>
	<path class="st47" d="M650,355.2c-6.3,4.1-11.1,0.7-15.9-3.1c-2.2-1.3-2.3-2.7-0.1-4.1C640.3,348.3,645.5,351,650,355.2z"/>
	<path class="st48" d="M245.3,215c1.5-2.6,3-5.2,4.5-7.8c1.2-1.6,2.4-1.5,3.5,0c0.1,4.6-1.2,9.5,3.7,12.7
		C249.8,226.1,249.5,215.9,245.3,215z"/>
	<path class="st49" d="M472.2,508.3c0.1,3.2-2.4,4.2-4.7,4.5c-1.2,0.2-3.5-1-4-2.2c-1.1-2.5-0.1-5.1,2.8-5.8
		C469.1,504.2,471.1,505.7,472.2,508.3z"/>
	<path class="st50" d="M314.7,785.4c2.7,2.5,11-0.4,7.8,7.9c-5.5-0.2-11.1,0.2-15.4-4.2C308.6,785.8,312.3,786.9,314.7,785.4z"/>
	<path class="st51" d="M816.6,789.2c9.2,1.7,9.2,6,3.5,12C816.8,797.8,816.6,793.5,816.6,789.2z"/>
	<path class="st4" d="M275.6,234.1c-4-2.7-9.2-4.4-5.6-10.3c1.1-1.8,4.4-5,5.2-3C276.6,224.6,275.6,229.4,275.6,234.1z"/>
	<path class="st33" d="M600.2,339.6c-8.6,0-17.1-0.1-25.7-0.1C583.1,335,591.6,335.4,600.2,339.6z"/>
	<path class="st52" d="M288.6,230.5c5.3-4.5,2.5-10.9,3.8-16.3c3.9,5.1,3.7,11.2,2.5,16.6C293.8,236,290.6,233.1,288.6,230.5z"/>
	<path class="st53" d="M59.1,110.2c-1.4-1.4-2.7-2.9-4.1-4.3c1.7-5.8,5.4-8.5,11.5-7.8c0,0-0.2-0.1-0.2-0.1
		C68.4,104.7,66.6,109.2,59.1,110.2z"/>
	<path class="st33" d="M634.1,347.9c0,1.4,0.1,2.8,0.1,4.1c-5.5-1-11.5,0.6-16.1-4c2.7-1.1,5.4-2.3,8.1-3.4
		C628.8,345.8,631.4,346.8,634.1,347.9z"/>
	<path class="st10" d="M314.7,785.4c-1.5,3.3-4.8,3.1-7.6,3.8c-2.9-1.2-5.9-2.5-8.8-3.7c3-1.3,5.9-2.5,8.9-3.8
		C309.7,782.9,312.2,784.1,314.7,785.4z"/>
	<path class="st54" d="M840.7,858.4c-0.8,4.2,0.5,9-3.7,12.2c-0.3-2.3-0.6-4.6-0.9-6.9c0.6-4.3-0.6-9,3.7-12.1
		C840.1,853.8,840.4,856.1,840.7,858.4z"/>
	<path class="st55" d="M746.9,714.7c5.8,4.2,7.5,9.4,3.6,15.8C744.8,726.3,747.2,720.2,746.9,714.7z"/>
	<path class="st56" d="M607.2,605.2c11.6,7.9,23.1,16,35,23.6c8.9,5.7,7.6,10.6-0.2,15.8c-2.8-0.4-5-1.9-7-3.9
		c-9.6-12-25.4-17.7-33.1-31.8C602.5,606,603.5,603.6,607.2,605.2z"/>
	<path class="st24" d="M607.2,605.2c-1.4,1.3-2.8,2.6-4.2,3.9c0.2,11.5,15.9,11.2,16.8,22.2c-0.6,3-2.4,4.8-5.3,5.6
		c-6.9-5.5-13.4-11.5-20.6-16.5c-7.6-5.3-4.6-9.9-0.7-15.8C598.8,596,602.9,598.8,607.2,605.2z"/>
	<path class="st57" d="M614.6,636.9c1.4-1.4,2.7-2.8,4.1-4.2c8.7-3,12.2,7.2,19.6,7.8c1.3,1.4,2.5,2.7,3.8,4.1
		C626.8,663.5,623.2,641.4,614.6,636.9z"/>
	<path class="st58" d="M677.2,515.2c-1.3,1.4-2.6,2.8-3.9,4.2c-1.2-4-2.4-7.9-3.6-11.9c2.2-2.6,4.4-5.1,6.7-7.6
		c4.3,3.5,3.2,7.6,1.2,11.7C677.3,512.8,677.2,514,677.2,515.2z"/>
	<path class="st9" d="M466.5,616.7c15.3,3.5,18.9,11.1,8.2,23.7c0.3,5.8-3.6,8.9-7.6,11.9c-36.8,43.3-81.3,77.2-128.5,107.9
		c-8.5,5.5-33.4-4.3-35.6-13.6c-1.6-6.5,4.7-7.2,7.8-9.2c40.5-26.5,81-53,117.3-85.3C441.1,640.6,453.7,628.5,466.5,616.7z"/>
	<path class="st59" d="M467.1,652.3c2.5-4,5.1-7.9,7.6-11.9c6.8,6.3,0.7,8.8-3.5,11.9C469.8,652.3,468.5,652.3,467.1,652.3z"/>
	<path class="st2" d="M755.2,686.1c14.6-25.5,29.6-22,48.2-8.2c20.7,15.3,43.7,27.5,65.3,41.5c5.5,3.6,12.4,7,13.6,17.9
		C835.8,728,797.6,702.3,755.2,686.1z"/>
	<path class="st60" d="M855.8,675.6c25.9,9.9,47.9,26.4,70.5,42c4.8,3.3,7.2,7.6,2.9,12.9c-4.7,5.7-7.7,0.5-10.9-2.1
		c-4-3.2-7.8-6.6-11.7-9.9c-15.5-16.9-36.9-25.4-54.5-39.3C851.5,676,852.1,674.2,855.8,675.6z"/>
	<path class="st58" d="M855.8,675.6c-1.2,1.2-2.5,2.4-3.7,3.6c-3-4.7-21.8-1.4-7.5-14.9C849.8,666.6,853.2,670.7,855.8,675.6z"/>
	<path class="st61" d="M361.8,343.9c26.9,3.2,46.1,21.1,65.6,37c15.9,13,35.6,22.9,43.1,44.4C436.6,395,398,371,361.8,343.9z"/>
	<path class="st62" d="M350.3,339.8c-1.3-1.4-3.3-2.6-3.8-4.3c-1.6-4.7,2.4-3.3,4-2.8c5.5,1.9,11.3,3.8,11.3,11.3
		C358,342.7,354.2,341.3,350.3,339.8z"/>
	<path class="st63" d="M743.3,487.9c5.2,7.2,14.3,12.8,10.2,24.5c-7.1-3.5-6.3-13.9-14.3-16.2c-0.8-5.2-10.7-8.1-5.4-13.8
		C737.8,478.3,740.9,484.4,743.3,487.9z"/>
	<path class="st64" d="M757.4,441.4c5.1,0.1,8.3,1.8,8.3,6.6c0,4.3-2.2,7.5-6.6,7.9c-4.5,0.4-6.9-2.8-7.5-7
		C750.9,444.3,753.8,442.1,757.4,441.4z"/>
	<path class="st31" d="M750.7,410.1c0.7,8.4,0.2,16.3-9,23.2c-1.7-10.7,3.3-17,9.1-23.1C750.9,410.2,750.7,410.1,750.7,410.1z"/>
	<path class="st65" d="M641.8,714.6c25.9,3.6,21.1,26.8,27,43c2.1,5.8,0.9,12.8,2.2,19c4.8,23.3,0.1,33.5-21.1,43.3
		c-8.7,4-17.6,7.9-27.5,8c-1.1-3.7-4-7.9-3.1-10.9c6.1-20.6,2.1-41-0.9-61.3C615.5,735.4,623,722,641.8,714.6z"/>
	<path class="st6" d="M541.5,459.4c3.1,1.9,6.4,3.9,9.6,6c25.3,16.6,48.2,36.4,71.1,56.1c4.3,3.7,8.9,8.1,11.2,13.2
		c2.9,6.4,12.4,13.5,4.8,20.4c-7.3,6.7-13.6-2.3-19.9-6c-30.5-18.4-54.4-45.1-83.1-65.8c-4.6-3.3-7.9-7.6-4.2-13
		C533.7,466.3,535.1,460.6,541.5,459.4z"/>
	<path class="st66" d="M81.6,140.6c14.8-6.7,25.9-16,23.2-34.5c8.2,9.3,9.7,17.1,2.1,26.2C100.8,139.6,93.8,149.8,81.6,140.6z"/>
	<path class="st67" d="M253.3,207.3c-1.2,0-2.4,0-3.5,0c2.3-5.3,2.9-12.2,11.1-12.1C258.4,199.2,255.8,203.3,253.3,207.3z"/>
	<path class="st60" d="M59.1,110.2c2.4-4.1,4.9-8.1,7.3-12.2c6.3-2.7,11.9-8.4,19.7-4.1c5.9,5.8,9.3,12.6,6.6,21
		c-2.9,8.8-9,14.7-18.6,14.2C62.8,128.5,59.1,120.5,59.1,110.2z"/>
	<path class="st68" d="M677.5,511.6c-0.4-3.9-0.8-7.8-1.2-11.7c1.8-6.9,5-12.6,12.3-15c0.1,1.4,0.2,2.8,0.3,4.2
		c5.7,10.7,0,17.2-8.3,22.6C679.6,511.7,678.5,511.7,677.5,511.6z"/>
	<path class="st69" d="M638.2,640.5c-10.9,8.3-12.2-7.4-19.6-7.8c-6.1-5.5-12.4-10.9-18.3-16.6c-4.2-4-2.8-6.4,2.7-7
		C615.6,618.7,630.4,625.7,638.2,640.5z"/>
</g>
</svg>
