<?xml version="1.0" encoding="utf-8"?>
<!-- Generator: Adobe Illustrator 23.0.1, SVG Export Plug-In . SVG Version: 6.00 Build 0)  -->
<svg version="1.1" id="Layer_4" xmlns="http://www.w3.org/2000/svg" xmlns:xlink="http://www.w3.org/1999/xlink" x="0px" y="0px"
	 viewBox="0 0 1000 1000" style="enable-background:new 0 0 1000 1000;" xml:space="preserve">
<style type="text/css">
	.st0{fill:#010100;}
	.st1{fill:#020201;}
	.st2{fill:#512800;}
	.st3{fill:#FA9C00;}
	.st4{fill:#3E1F00;}
	.st5{fill:#633F00;}
	.st6{fill:#924900;}
	.st7{fill:#FDFD7F;}
	.st8{fill:#7B7D38;}
	.st9{fill:#925B00;}
	.st10{fill:#7C7E38;}
	.st11{fill:#914800;}
	.st12{fill:#935B00;}
	.st13{fill:#C66300;}
	.st14{fill:#FBFB7F;}
	.st15{fill:#5B4B42;}
	.st16{fill:#FCFA7D;}
	.st17{fill:#091514;}
	.st18{fill:#F89E04;}
	.st19{fill:#F7F77E;}
	.st20{fill:#1B1715;}
	.st21{fill:#5A5B28;}
	.st22{fill:#2F2724;}
	.st23{fill:#EEEE7B;}
	.st24{fill:#F9EE6F;}
	.st25{fill:#2D2623;}
	.st26{fill:#921A6D;}
	.st27{fill:#904700;}
	.st28{fill:#E77EC7;}
	.st29{fill:#C26100;}
	.st30{fill:#904800;}
	.st31{fill:#585A27;}
	.st32{fill:#DBA374;}
	.st33{fill:#1B1615;}
	.st34{fill:#FBF1F8;}
	.st35{fill:#3B312D;}
	.st36{fill:#222310;}
	.st37{fill:#925A00;}
	.st38{fill:#5F3C00;}
	.st39{fill:#332A25;}
	.st40{fill:#1B1100;}
	.st41{fill:#1E1300;}
	.st42{fill:#514239;}
	.st43{fill:#5E4E45;}
	.st44{fill:#594A42;}
	.st45{fill:#D19B6E;}
	.st46{fill:#D38F0C;}
	.st47{fill:#B0825C;}
	.st48{fill:#2C2C16;}
	.st49{fill:#DEA676;}
	.st50{fill:#E2E276;}
	.st51{fill:#F79B00;}
	.st52{fill:#0B0702;}
	.st53{fill:#623E00;}
	.st54{fill:#23211D;}
	.st55{fill:#FEFC7E;}
	.st56{fill:#502800;}
	.st57{fill:#757735;}
	.st58{fill:#F8F87E;}
	.st59{fill:#3D2804;}
	.st60{fill:#7B7D37;}
	.st61{fill:#140F05;}
	.st62{fill:#C16000;}
	.st63{fill:#945C00;}
	.st64{fill:#FAF57A;}
	.st65{fill:#242510;}
	.st66{fill:#E2E275;}
	.st67{fill:#57473E;}
	.st68{fill:#D3D36D;}
	.st69{fill:#262611;}
	.st70{fill:#F1E265;}
	.st71{fill:#B85C00;}
	.st72{fill:#C49169;}
	.st73{fill:#911C6E;}
	.st74{fill:#DF7AC1;}
	.st75{fill:#F39800;}
	.st76{fill:#643F00;}
	.st77{fill:#FDFB7C;}
	.st78{fill:#371B00;}
	.st79{fill:#502700;}
	.st80{fill:#CFCF6A;}
	.st81{fill:#737534;}
	.st82{fill:#696831;}
	.st83{fill:#241605;}
	.st84{fill:#160F04;}
	.st85{fill:#231D19;}
	.st86{fill:#7A7C37;}
	.st87{fill:#BF5F00;}
	.st88{fill:#1C2826;}
	.st89{fill:#352000;}
	.st90{fill:#DE940E;}
	.st91{fill:#DBDB71;}
	.st92{fill:#F9F47B;}
	.st93{fill:#303116;}
	.st94{fill:#B19C48;}
	.st95{fill:#B75B00;}
	.st96{fill:#C49168;}
	.st97{fill:#AA408A;}
	.st98{fill:#2B2321;}
	.st99{fill:#FEFD7F;}
	.st100{fill:#0E0900;}
	.st101{fill:#170F00;}
	.st102{fill:#110B00;}
	.st103{fill:#2F1D00;}
	.st104{fill:#0A3A38;}
	.st105{fill:#FCFDFD;}
	.st106{fill:#7BCDD7;}
	.st107{fill:#EEF3F3;}
	.st108{fill:#1B4947;}
	.st109{fill:#5D3B00;}
	.st110{fill:#8B5600;}
	.st111{fill:#F6F67D;}
	.st112{fill:#122C30;}
	.st113{fill:#3B1E00;}
	.st114{fill:#7F813A;}
	.st115{fill:#8B4500;}
	.st116{fill:#EEDDE9;}
	.st117{fill:#DF9108;}
	.st118{fill:#132424;}
	.st119{fill:#C7E7EB;}
	.st120{fill:#077D8B;}
	.st121{fill:#844100;}
	.st122{fill:#727434;}
	.st123{fill:#383919;}
	.st124{fill:#F6CFEB;}
	.st125{fill:#E5E574;}
	.st126{fill:#39391C;}
	.st127{fill:#11828F;}
	.st128{fill:#7CCDD6;}
	.st129{fill:#E2EBEB;}
	.st130{fill:#037B8A;}
	.st131{fill:#CBF2F3;}
	.st132{fill:#BEEBED;}
</style>
<g>
	<path d="M679.7,283.5c1.3,35.8-3,69.5-18.3,103.7c-14.7,32.9-35.1,63-46.6,97.5c-7.9,23.7-17.8,46.7-26.8,70
		c-2.2,5.9-7.3,13.4,6.4,10.1c3.4-0.8,4.1,1.3,1.5,9.2c-9.1,27.6-24.4,52.3-38.7,77.3c-13.1,23-27.4,45.4-45.4,65.1
		c-4.7,5.2-3.7,10.6-4,16.2c-1.4,31.7-1.7,64-15.9,93.1c-18.9,38.9-37.2,78.6-67.4,110.4c-10.1,10.6-23.3,16.2-41.2,10
		c-41.3-14.2-64.6-44.7-83.6-81c-3.1-6-3.3-18-12.3-16.4c-8.5,1.5-13.8,8.5-19.6,18.2c-15.8,26.7-13.2,57.3-25.3,84.2
		c-10,22.2-18,26.5-41.9,22.3c-53.2-9.5-78.3-48.1-99.1-91.9C85.2,847,80.4,811.8,93.3,775c3-8.6-4.2-13.2-10-16.9
		c-26.9-17.4-45.4-60.8-34.9-92.1c6.2-18.4,7.3-33.4-1-51.6c-14-30.7-20.4-62.7-9-96.9c5.4-16-2.1-34.1,3.7-51.5
		c5.7-17,14.2-29.7,29.4-40c45.3-30.9,93.6-52.9,149.6-50.6c36.2,1.5,71.1,11.3,101.7,31.3c11.8,7.6,20.4,4.8,30.1-0.6
		c27-14.8,53.2-31.3,81-44.5c36.1-17.2,72.5-34.1,111-45.8c37.8-11.5,70.8-32.2,102.2-55.3c8.4-6.2,17.3-1.6,25.4-5.8
		c3.2-1.6,7.2,4.1,7.2,9.3C679.7,270.5,679.7,277,679.7,283.5z"/>
	<path class="st0" d="M109.4,315.2c-1.1-9.7,0.4-20.3,4-30.7c0.8-2.5,4.5-4.7,0.8-8.3c-3.7-3.6-5.5,0.6-8.1,1.1
		c-18.6,3.2-32.5,15.7-47.1,26c-9.2,6.5-13.7,5.8-21.1-1.3c-23-22.2-27.9-51.7-12.6-86.9c7.6-17.5,16.5-34.3,34.9-43.5
		c3.6-1.8,6.4-4.5,5.2-10.7c-5.4-26.3,3.6-46.8,28.1-58.9c5.4-2.7,7.8-6.4,9.2-11.2c8.2-28.7,30.4-46.8,50.7-65.9
		c14.2-13.4,31.3-15.1,51.2-10.5C254.9,25.8,290,52.5,305.3,103c1.4,4.5,5.7,9.4,11.1,10c48.1,5.6,90.6,28.3,135.1,44.5
		c16.4,6,33.3,5.6,49.8,9.9c18.5,4.9,14.5,12,6,22.6c-18.5,23.1-43.5,36.6-69.9,48.1c-21.8,9.5-47.3,14.7-64.5,29.5
		c-30.9,26.7-67.7,32.3-104.4,41c-15.7,3.7-22.9,19.3-35.7,27.7c-23,15.2-49.4,21.4-74.4,29.7C131.9,374.7,107.5,358.4,109.4,315.2z
		"/>
	<path class="st1" d="M961.8,291.9c-12.9,40.4,3,79.9,3.2,119.9c0.1,17.4-1.7,34.5-8.4,50.2c-6.1,14.5,2.9,25.5,6.4,37
		c9.5,31.5,2.2,61.2-6.6,90.6c-4.9,16.3-21.3,16-34.9,13.4c-14.1-2.7-27.6-9-38.4-18.8c-10.4-9.4-11.7-2.4-11.8,5.8
		c-0.1,6.9,0.2,13.7,1.9,20.8c2.7,11.3,6.8,24.8-4.7,34.1c-12.4,10-26.7,9.8-41.4,4.6c-30-10.5-47.8-32.6-56.5-61.8
		c-2.2-7.3-6.3-12.5-11.3-12.7c-11.9-0.6-20.5-9.7-22.1-16.4c-7.6-31.8-33.6-53.8-42.3-84.9c-10.2-36.6-1.9-66,30.4-86.3
		c25.5-16,52.4-30.5,84.6-20.7c5.9,1.8,5.3-3.4,7.6-5.9c18.6-20.5,37.4-40.8,56.6-60.8c19.1-19.9,40-38,54.4-62.1
		c2.6-4.3,7.5-7.1,11.3-10.6c3.5,4.3,7.6,7.5,9.8,13.6C955.7,257.4,964,273.3,961.8,291.9z"/>
	<path class="st2" d="M660.3,289.1c1.9,12-3.5,23.1-3.7,34.9c1.6,11.9-5.4,21.1-10.1,30.9c-8,16.4-18.6,31.2-28.3,46.5
		c-24,38-37.9,80.7-55.5,121.6c-8.8,20.5-22.1,36.4-38.1,50.9c-3.4,3.1-8,7.3-11.9,5.5c-14.5-6.9-16,5-19.7,12.9
		c-12.6,27-14.8,56.3-19,85.2c-1.4,9.7-2.7,19.3-5.2,28.7c-7.6,28.9-21.2,37.3-50.3,30.5c-26.1-6.1-52.3-7.6-78.7-2.7
		c-13.1,0.6-14.3,14.7-23.1,20.2c-5.9-3.1-8.1-8.7-8.3-14.5c-1.1-27-9.8-54-0.2-81.4c1.7-0.6-3.4-3.2-1.8-1.1
		c0.1,0.1-0.5,0.4-1.4,1.1c-2.1,1.7-4.4,2.7-7.1,2.8c-9-16.3,4.2-25.5,12.6-34.7c17.5-19.2,35.7-37.6,51.5-58.5
		c25.2-33.3,38.4-69,28.5-111c1.5-16.9-6-24.9-23.2-23.6c-4.4,0.3-8.9,0.7-12-3.6c5.5-6.2,13-4.6,20-5c30.2-1.8,58.3-9.5,84.8-24.7
		c47.8-27.3,99.6-46.6,147.6-73.6c2.3-1.3-0.5-1.1,1.7-0.7c28.6,4.9,34.7-18.5,45.7-35.8C656.2,288.2,658.4,288.2,660.3,289.1z"/>
	<path class="st3" d="M120.4,417.3c38.3-27.4,80.5-32.7,125.5-22.3c46,14.8,72.6,50.5,71.8,96.4c-0.5,29.2-10.1,39.2-39.6,41
		c-5.2,0.3-10.3,0.2-15.5,0.8c-2.3,0.7-4.4,0.1-6.6-0.5c0.2,1.2,0.9,2,2.1,2.6c6.2,3.8,7.9,9.4,6.7,16.2c-4,10-8.8,19.1-21.2,20.5
		c-4.2-0.3-4.9-4.6-7.9-7.1c1.6,4.5,3.2,8.4,3.3,12.7c-2.6,27.6-11,33.4-34.5,20.3c-43.6-24.3-79.9-56.2-96.3-105.3
		C99.6,466,101.1,439.9,120.4,417.3z"/>
	<path class="st4" d="M339.9,734c20.2-14,44.3-11.3,63.7-5.2c52.4,16.3,58.3-2,65.1-50.4c5-35.2,7.8-71,27-102.3
		c1.7-2.8,4.9-24.8,13.6-1.9c2.8,7.4,8.3-1,11.9-3.7c24-17.9,34.6-44.4,45.5-70.9c19.5-47.2,38.5-94.6,69.4-136.2
		c8.7-11.7,13.7-26.2,20.4-39.4c2.6-0.3,6.2-10.2,7.6,1.1c2.7,22.3-9.6,40.1-18.5,58.3c-24,49.1-45,99.3-64,150.5
		c-8,21.6-17.9,42.6-28.2,66.6c8.2-3.9,13.1-6.3,22.1-10.6c-20,38.5-40.6,71.7-66.3,106.6c-3.8-26.6,4.5-49.1-3.1-71.3
		c-15,70.3-5.3,144.8-36.3,214.9c-10.7-13.8-9.5-31.8-22.3-38.4c-22.7-11.7-38-29.8-54-48.8C380.8,737.8,359.4,735.9,339.9,734z"/>
	<path class="st5" d="M262.8,550.2c0.5-7-3.5-11.4-8.9-15c9.9-6.4,19.4-1.6,27.3,3.1c14,8.3,22.9,3,31.1-8
		c6.2-8.3,12.3-16.6,15.5-26.7c3-8.3,6.1-16.7,11-24.1c0.8-1.5,1.7-3,2.5-4.4c6.8-8-5.8-15.2-1.2-23.1c4.2-2.8,8.9-2.6,12.9-0.3
		c7.8,4.6,8.1-2.2,10.4-6.2c11.2-1.4,17.9-0.5,12.2,14.3c-32.6,84-79.7,159.4-134.3,230.4c-1.6,2-3.5,3.8-5.5,5.4
		c-0.8,0.7-2.3,0.5-4.8,1c-1-17.5,3.1-36.4-12.3-50.2c-2.3-2-3-7.1-5.2-7.6c-20.8-4.7-13.2-20.6-13.6-33.3
		c12.5-0.6,24.4,3.1,36.5,5.5c3.2,2.1,3.4,4.9,2.2,8.2c-0.9,2.3-2.8,4-3.8,6.2c1.4-1.8,2.9-3.7,4.5-5.3c2.9-3,2.6-7.1,4-10.6
		c2.1-4.9,4.7-9.5,9-12.7c4.7-3.3,11.4,0.3,15.6-4.5C276.1,569.8,274.7,558.7,262.8,550.2z"/>
	<path class="st6" d="M660.3,289.1c-8.4,15.2-15.5,31.3-29.3,42.7c-3.3,2.7-5.7,8.4-11,6.2c-5.6-2.3,3.3-8.4-2.7-11.9
		c-54.1,32.9-114.3,54.5-169.5,86.1c-28,16-60.3,18.6-92.5,17.7c-4.3-3.1-4.3-5.9,0.5-8.5c9.1-4.9,18.1-9.9,27.1-14.9
		c22.4-3.2,43.4-11.7,63.9-20.5c43.9-18.9,87.8-37.9,130.2-60c8.7-4.5,20.2-6.3,23.9-17.8c13.6-9.4,27.1-18.8,40.9-28.4
		c6.5,6.6-5.2,13,0.5,19.3c8.3-4.2,9.3-16.5,21-19.4C662.1,283.5,661.2,286.3,660.3,289.1z"/>
	<path class="st4" d="M390.5,457c13.6,19.4,10.8,41,4.2,60.8c-12.4,37.2-36.9,67.2-64,95c-13.8,14.1-31.1,25.9-33.3,48.1
		c0,2.8-1.2,4.2-4.1,3.5c-11.1,1.3-7.2,12.2-11.2,18.1c-4.2,6.1-6,13.8-8.9,20.8c-10,20.1-28.8,30.7-46.4,42.5
		c-3.8,2.5-8.2,4-12.4,0.1c1.6-8.6,6.6-15.1,12.3-21.6C285.8,656.9,336.4,584,371.4,501C377.6,486.3,384.1,471.7,390.5,457z"/>
	<path class="st2" d="M214.4,745.9c24.2-7.8,39.6-27.8,58.7-42.6c-8.4,40.7-1.4,79.8,12.9,117.8c3.6,9.6-0.2,12.3-8.2,15.4
		c-7.9,3.1-10.9,1.7-14-6.5c-6.9-18.7-21.1-27.2-41.2-25.2c-8.7-16.8-29.4-20.5-39.5-35.8C193.7,761.4,204.1,753.6,214.4,745.9z"/>
	<path class="st7" d="M379.2,921.5c-20.6-30.5-38.2-62.7-49.7-97.6c-7.3-22-11.5-45.1,1.9-67c18.3-6.1,24.8,6.9,29.7,19.7
		c7.6,20,10.2,41.4,13.1,62.6c2.8,21.1,5,42.3,9.3,63.2C384.6,908.3,390.6,917.5,379.2,921.5z"/>
	<path class="st8" d="M410.5,926.3c-9.8,11.3-14.5,2-14.8-5.5c-1.3-34.7-6.5-69.6,4-103.8c3.4-11.1,8.8-18.8,22.1-15.6
		c19.6,11,21.4,29.3,20,48.8C439.7,878.9,427.5,903.6,410.5,926.3z"/>
	<path class="st9" d="M254.1,597.4c-2.4,3.9-4.9,7.7-7.3,11.6c-2.4,2.1-3.7,6.3-8.3,4.5c-13.5,0-27.1,0.9-38.7-8.2
		c-16.5-18-38-28.3-59.5-38.8c-15.2-13.2-28.6-27.7-34.4-47.7c-7.8-20.4-18.4-40.5-12.2-63.4c4.2-15.7,9.6-31.1,26.6-38.1
		c-0.4,13.8-10.9,24.1-11.8,38.4c-1.9,29.8,10,54.1,26.7,76.9c18.2,24.8,41.3,44.4,68.3,58.9c27,14.5,29.7,12.5,31.6-17.7
		C245.7,578.2,253.3,585.1,254.1,597.4z"/>
	<path class="st10" d="M379.2,921.5c6-2.4,4.4-7.7,3.3-11.6c-11.7-40.3-13.9-82.4-23.1-123.1c-3.4-15.2-9.5-28.5-28-29.9
		c1.6-2.8,2.4-6.4,4.8-8.1c11.4-8.1,38.1-1.7,52.8,14c10,10.8,18.7,21.6,7.7,39.4c-15.1,24.5-14.7,53.3-12.2,81.4
		c1.1,12.3,3.3,24.6,3.2,36.8C387.4,930.9,382.8,926.5,379.2,921.5z"/>
	<path class="st11" d="M293.3,664.4c1.4-1.2,2.7-2.3,4.1-3.5c4.3-5.4,8.6-10.9,16.4-20.9c-6.5,41.4-5.3,78,2.9,114.2
		c1.4,20-17.8,28.4-24.1,45.2c-17.3-38.5-11.6-85.5-3.5-116.1C290.7,677,291.9,670.7,293.3,664.4z"/>
	<path class="st12" d="M343.7,480.9c-6.3,5.8-7.7,14.3-11.7,21.4c-0.8,1.8-1.6,3.6-2.7,5.2c-26.6,39.3-26.6,39.3-72,23.1
		c8.1-6.1,17.5-2.4,26.3-3.3c21.2-2.2,27.7-9.6,29.3-30.8c3.3-44.6-21-72.5-55.9-94.3c-3.8-2.4-7.5-4.8-11.3-7.2
		c23.6,0.3,42.6,13.3,63.1,22.4c9.4,7.5,15.9,17.3,22.2,27.2c2.8,2.9,6.8,4.7,8.6,8.6c1,7.9,21.2,12.8,3.7,23.6
		c-6.4,1.1-10.7-3-15.1-6C332.3,475.6,339.6,476,343.7,480.9z"/>
	<path class="st13" d="M600.9,308.1c13,4.1,2.3,8.7-0.6,10.3c-15.2,8.4-30.8,16.2-46.4,23.8c-49.4,24-98.8,47.9-151.4,64.4
		c-6.5,2-13.1,6.9-19.6-0.3c62.8-37.7,131.5-62.3,198.9-89.8C588.2,313.9,594.5,310.9,600.9,308.1z"/>
	<path class="st8" d="M191.9,905.6c-5.9-17-12.7-33.7-14.3-51.8c-0.5-5.7-0.8-11.7,0.3-17.2c1.5-6.8,4-15.5,12.6-14.5
		c6.8,0.8,8.5,8.7,9.2,15.3c2.2,21.2,4.1,42.5,22.9,57.1c10,19.4,7.8,38.8-0.2,58.2l-1.8,0.5l-1.9-0.1
		C200.7,942.4,196.9,923.7,191.9,905.6z"/>
	<path class="st14" d="M164.4,917.5c-13.8-20.6-30.6-39.7-38.3-63.6c-4.8-14.9-12.9-31.5,2.4-45.9c12.3-3.5,21.2,1.3,23.5,13.2
		c7.2,37.5,21,72.5,37.9,106.5c-0.1,3.2-1.4,5.8-4.4,7.4C173.2,935.5,168.1,927.3,164.4,917.5z"/>
	<path class="st15" d="M116.9,644.6c6.9-1.2,14.5,1.5,19.5-7.3c3.5-6.1,4.6,2.9,7.5,3c1.6-1.2,3.3-1.8,5.3-1.6
		c6.4,14,24.2,8.4,32.6,18.9c5.4,6.6,15.2,11.3,9.8,22.6c-7.6,1.9-13.6-3.1-20.2-5.2c-39.4-12.4-63.1-3.9-85.1,30.9
		c-1.8,2.8-3.6,5.3-7.1,5.8c-8.7-6.9-5.1-15.9-3.8-24.3c1-6.6,5.7-13,1-19.9c-0.9-2.6-0.9-5.1,0.1-7.7c8.7-6.9,21.6-6.1,28.8-15.6
		c3.2-15.7,5.5,12,8.6,0.2C115,642.7,115.9,642.7,116.9,644.6z"/>
	<path class="st16" d="M87.9,578.2c-32.5-35.6-52.6-104.7-15.7-134.8c6.2,4.2,5.1,10.3,3.2,15.8c-6.5,19.5-0.7,37.1,7.5,54.4
		c6.3,13.5,13.1,27,17.2,41.3C103.1,565,105.7,577.7,87.9,578.2z"/>
	<path class="st17" d="M79,711.3c17.5-47.2,64.6-60.7,112.3-32.2c24.7,13.8,27.2,37.6,5.9,56.3c-4.6-1.5-5-5.5-4.8-9.3
		c1.8-32.9-11.2-47.5-43.8-49.2c-10-0.3-19.6,1.1-28.6,5.8c-15.8,8.6-28.1,19.4-26.2,39.6c0.6,10.7,7.7,14.6,16.9,16.4
		c5.4,1.7,10.1,4.8,14.9,7.5c14,4.8,27.4,2.4,41-2c6.9-2.3,13.8-7.6,21.5-1.9c-10.8,20.3-30.7,17.5-48.9,19.3
		c-13.1,1.1-24.9-4.8-37.3-7.3c-3.6-6.4-8.3-11.4-16.2-12.2C85,731.6,71.2,723.9,79,711.3z"/>
	<path class="st18" d="M87.9,578.2c15.8-5.9,9.9-16.8,6.1-27.1c-7.4-19.9-17.9-38.4-25-58.6c-6.3-17.8,5.2-32.6,3.2-49.1
		c5.7-4.9,11.3-9.8,17-14.6c1.8,0.5,3.5,1,5.3,1.5c-22.9,32.9-13.1,63.2,3.4,92.9c6.1,14.2,23.4,24.3,15.6,43.4
		c-0.9,1-1.3,2.2-1,3.5l0.3-0.1c-7-1-10.2,4.3-13.6,8.7C94.9,584.4,91.4,584.4,87.9,578.2z"/>
	<path class="st19" d="M311.2,794.5c10.5,47.2,32.2,87,58.2,128.1C321.7,896.1,288.3,824.2,311.2,794.5z"/>
	<path class="st8" d="M187.8,929.3c-18.2-33.4-35.2-67.3-39.3-105.9c-1.3-11.9-8.5-16.6-20-15.4c10.2-6.5,21.3-8.5,32.8-4.9
		c11.4,3.5,21.5,6.1,10.5,22.8c-11,16.8-2.6,36.5,1.9,54.3c2.9,11.6,9.5,22.4,14.4,33.5c7.4,4.4,12.7,9.7,8.6,19.2
		C191.8,936.3,189.7,933.2,187.8,929.3z"/>
	<path class="st20" d="M179.5,660.3c-6.2-3.1-12.2-9.5-19.1-7.7c-12.3,3.2-6.6-9.7-12.2-11.9c-0.8-8.7,7.7-10.3,11.6-15.5
		c7.2-1.3,12,5.1,19.8,5.3c12.6,0.4,11.3,12.7,10.5,23.5c11.1-13,14.7-18.8,23.2,3c4.7,11.9,6.9,23.1,8.7,35.1
		c0.8,5.1-2.9,6.6-7.1,7.1c-6,1.7-6.3-3.5-7.2-6.7C203.3,677.3,196.9,664.1,179.5,660.3z"/>
	<path class="st21" d="M410.5,926.3c8-23.3,22.2-44.1,25.3-69.8c2.5-21.1,0.5-39.3-14-55.2c23.2,9.1,38.1,34.6,31.3,56.7
		C445,884.3,432.7,908.5,410.5,926.3z"/>
	<path class="st22" d="M132.2,581.6c1.9,4,3.7,8.1,5.8,11.9c3.7,6.6,4.4,13.9,1,20.2c-3,5.4-8.9,2.5-13.9,1.5
		c-9.2-1.8-13.2-6.7-12-16.1c0.2-1.8-0.6-3.7-1-5.8c-8,8.3,2.4,28.2-18.3,27.7c-6.6-11.2,2.1-17.6,7.9-25
		c-4.3-12.1,6.5-17.8,11-26.2c0,0-0.3,0.1-0.3,0.1c7.3-0.6,11,6.1,16.7,8.6C130.7,579.3,131.7,580.2,132.2,581.6z"/>
	<path class="st23" d="M179.7,941.4c2.5,3.4,5.1,6.9,8.4,11.4c-38.6-11.6-80.2-69.7-76.3-110.2c13.8,30.9,27.5,57.5,48.6,79.2
		C169.3,925.9,175.8,932.3,179.7,941.4z"/>
	<path class="st24" d="M72.7,621.1c-8.7,8.4-9.2-1.4-10.9-5.5c-9.7-23.6-13.6-48.2-11.1-77c10.3,16.4,19,30.1,27.6,43.8
		C84.5,596.4,79.7,608.9,72.7,621.1z"/>
	<path class="st25" d="M179.5,660.3c19.5,1.1,31.1,10,31.6,30.8c0.1,2.8,2.4,5.5,3.7,8.2c-1,36.5-16.1,52.2-63,66
		c-3.9-4.9-14,3.7-15.4-6.9c18.5-1.1,38.6,2.4,51.1-16.8c-0.4-5.1,1.9-7.4,7-7c18.3-17,17.7-28-3.4-55.4
		C191.5,670.3,182.4,667.2,179.5,660.3z"/>
	<path class="st26" d="M218.9,820.1c18.2-7.2,32.4-0.2,35.5,17.4c4.8,28-1.1,41.7-20.6,48.1c-4.3-10.7-0.6-21.7-0.4-32.5
		C233.6,839.4,231.3,827.8,218.9,820.1z"/>
	<path class="st27" d="M183.3,769.1c14.3,10.7,37.3,11.8,39.5,35.8c-7.2,2.9-12.7,8-18.7,17.1C197.4,802.2,180.2,790.1,183.3,769.1z
		"/>
	<path class="st28" d="M218.9,820.1c13.9-0.5,19.6,6.9,19.6,20.1c0,15.3,1.6,30.7-4.8,45.4c-12.3-2.4-17.3-11.1-19.4-22.4
		c10.9-11.3,13-22.8,0.8-34.6C214.3,824.9,216.4,822.4,218.9,820.1z"/>
	<path class="st29" d="M121.3,797.4c-12.3,11.2-8.3,29.3-18.3,42.9c-5-20.6-0.8-39.7,4.4-58.3c4.9-17.7,16.7-2.9,25.2-4.3
		C141.7,791.6,125.1,790.8,121.3,797.4z"/>
	<path class="st30" d="M121.3,797.4c2-7.6,14.4-9.2,11.4-19.7c4.5-0.1,9.5,1,13.5-0.6c19.8-7.8,27,3.1,31.1,20.5
		C158.4,786.8,139.9,791.8,121.3,797.4z"/>
	<path class="st31" d="M222.5,952.8c0.1-19.4,0.1-38.8,0.2-58.2c13-1.3,18.5,5.3,15.4,17.1C234.2,925.8,239,943.4,222.5,952.8z"/>
	<path class="st32" d="M79,711.3c-2.6,11.4,9.4,19.5,6.9,30.8c-10.9-10.7-14.5-25-19.8-38.6c-1.9-9.8-12.7-20.9,4-28l0.2,0.2
		c2-2.2,3.1-5.5,6.8-5.7c2-1.5,4.1-4.3,6-4.3c5,0.2,3.1,4.5,2.2,6.8C80.9,685.2,76.4,697.7,79,711.3z"/>
	<path class="st33" d="M181.9,620.8c-10.7,1-20,0.3-20-11c0-8.5,8.9-11.1,15.5-11.3c9.2-0.3,16.3,5.9,16.9,15.1
		C195.1,624,185.6,619.9,181.9,620.8z"/>
	<path class="st34" d="M215.2,828.6c17.1-1.8,13.1,10.6,11.8,19.2c-1,6.7,4.3,21-12.7,15.4C210,851.6,208.2,840,215.2,828.6z"/>
	<path class="st35" d="M132.2,581.6c-1-1-2-2-2.9-2.9c0.1-8.1,4.4-8,10.1-5.1c11.3,5.7,22.6,11.5,34.9,17.7
		C154.7,605.7,145.9,584.3,132.2,581.6z"/>
	<path class="st36" d="M195.1,933.8c2-8.2-5.5-13.1-7.1-20.1c1.3-2.7,2.6-5.3,3.9-8c8.9,15.8,17.9,31.7,26.8,47.5
		c-7.9,9.1-14,4.6-19.7-2.7C200.4,944.3,192,940.4,195.1,933.8z"/>
	<path class="st37" d="M113.5,566.7c1.6-16.9-17.3-26.5-15.6-43.4c1.3-0.4,2.6-0.3,3.8,0.2c12.8,12.4,26.5,24.2,30.6,42.8
		C126,566.3,119.8,566.5,113.5,566.7z"/>
	<path class="st38" d="M328.6,448.7c-6.5-10.5-13.1-20.9-19.6-31.4c14.8,8.5,31.9,13.5,43,27.8C345.7,456,335.9,444,328.6,448.7z"/>
	<path class="st39" d="M105.3,644.3c0.3,20.4-18.2,9.2-26.2,15.6c-3-2.1-3.4-4.6-1.2-7.5c5.1-0.4,10.1-0.1,11.4-7.2
		c1-5.5-3.1-14.7,6.5-15.2C104.7,629.6,98.7,641.7,105.3,644.3z"/>
	<path class="st40" d="M132.3,566.1c-10.2-14.3-20.4-28.5-30.6-42.8c1.4-1.5,2.9-3,4.3-4.5c11.5,15.9,22.9,31.8,34.4,47.7
		C137.7,566.4,135,566.3,132.3,566.1z"/>
	<path class="st41" d="M328.6,448.7c0.3-7.1,4.2-5.7,9.3-4.9c4.6,0.8,9,6.1,14.1,1.4c3.8,0.1,7.7,0.2,11.5,0.3
		c1.5,5.1,6.9,10.6,0.9,15.4c-5.9,4.6-6.8-5.2-11.8-5.4c-4.3-0.2-8.5-1.5-12.8-2.3C336.1,451.7,332.4,450.2,328.6,448.7z"/>
	<path class="st42" d="M136.5,758.3c5.1,2.3,10.3,4.6,15.4,6.9c-17.6,1.2-34.8,0-49.8-10.8C114.3,749,124.4,762.1,136.5,758.3z"/>
	<path class="st43" d="M116.9,644.6c-1-0.1-2-0.1-2.9-0.1c-0.2-0.6-0.4-1.2-0.5-1.9c-0.1-6.7-3.4-14.8,4.9-18.6
		c3.9-1.8,6.8,2.5,8.6,5.9C132.6,640.9,119.5,639.2,116.9,644.6z"/>
	<path class="st44" d="M159.8,625.2c3.4,10.6-7.5,10.5-11.6,15.5c-1.4-0.1-2.9-0.2-4.3-0.3C146.2,632.2,138.8,613.7,159.8,625.2z"/>
	<path class="st45" d="M78,652.4c0.4,2.5,0.8,5,1.2,7.5c-0.6,3.4-1.3,6.7-2,10.1c-2.3,2-4.6,3.9-6.9,5.7
		C72,667.7,54.6,653.4,78,652.4z"/>
	<path class="st46" d="M72.7,621.1c2.7-12.8,7-25.3,5.7-38.7C94.7,597.9,80.9,609.1,72.7,621.1z"/>
	<path class="st47" d="M70.1,675.6c-11,7.9,0.7,19.1-4,28c-4.8-4.8-5.2-11.1-6.8-17.3C56.3,675.3,62.9,675.5,70.1,675.6z"/>
	<path class="st48" d="M179.7,941.4c-9.1-4-13.9-12.1-19.3-19.7c1.3-1.4,2.7-2.9,4-4.3c6.1,5.5,12.2,11.1,18.3,16.6
		c1.6,0.3,2.3,0.9,2.1,1.8c-0.3,1-0.6,1.6-1,1.6C182.4,938.8,181,940.1,179.7,941.4z"/>
	<path class="st49" d="M101.8,596.2c-2.6,8.3-5.2,16.7-7.9,25c-2.6-0.5-8.1,4.7-7.2,0.6C89,612.3,87.2,598.9,101.8,596.2z"/>
	<path class="st50" d="M183.7,937.4c-0.4-1.1-0.8-2.2-1.1-3.3c1.7-1.6,3.5-3.2,5.2-4.8c2.4,1.5,4.9,3,7.3,4.5
		c-1.1,6.1,16.1,8,3.9,16.7C193.9,946.1,188.8,941.8,183.7,937.4z"/>
	<path class="st2" d="M484.3,191.3c-1.1,1.4-2.3,2.8-3.4,4.2c-5.6,7.5-12.6,13.1-21.9,15.1c-35.1,7.7-67.3,23.1-99.8,37.8
		c-13.5,6.1-27.2,8.9-41.5,3.1c-9.7-3.9-17.6,0.4-25.5,5.1c-13.5,7.9-23.7,20.2-37,28.4c-19.1,11.8-27.3,10.3-41.8-6.3
		c-8.5-9.7-14.3-21.8-25.8-28.8c-6-4-12.7-4.1-19.6-3.8c-3.3-10.7,5-16.2,10.5-22.8c8.1-9.7,19.6-16.5,24.8-28.7
		c13.1-6.4,27.4-7.1,41.5-8.6c26-2.7,50.2-8.8,64.1-34.1c4.7-5,6.1-12.4,12.2-16.3C374.6,156.9,431.5,168.2,484.3,191.3z"/>
	<path class="st51" d="M226.6,30.5c2.8,1.3,7.2,0.6,7.1,5.6c-5.8,5.1-13.8,3-20.3,6.1c-8.1,3.9-13.8,9.9-15,19
		c-0.8,5.9,3.1,9.7,7.9,12.2c8.4,4.4,14.9,0.3,21.3-4.8c6.6-5.3,13.1-11.8,21.5-12.8c10.7-1.3-0.5-8.4,3.8-10.8
		c11.7,4.9,19.5,13.6,24.6,25c15.3,30.1,11,54-13.9,76.1c-11.7,6.2-21.6-2.4-32.4-3.9c-9-0.5-17,3-25,6.4
		c-15.3,6.8-24.6,1.2-29.3-14.1c-1.5-4.9-3.4-9.7-4.9-14.6c-0.3-22.1-7.3-44.3,5.3-65.8C188.9,34.7,203.7,24.8,226.6,30.5z"/>
	<path class="st4" d="M187.6,250c14.5,3.5,22.8,15.3,29.9,26.2c10.3,15.9,20.3,14.6,34,5.7c15.2-9.9,26.6-24.7,43.3-32.8
		c8.8-4.2,16.4-9.4,26.7-1.4c6.7,5.2,16.8,4.2,24.5,0.8c40.2-17.8,80.3-35.8,123.3-46.1c4.2-1,7.8-4.5,11.7-6.8
		c-1.8,10-8.5,16.3-17.4,19c-44.1,13.3-83,38.6-125.9,54.4c-10.2,3.8,3.7,14.8-9,15.9c-13.3,1.2-26.3,6.3-39.3,9.9
		c-4.3,1.2-8.4,3.2-13.3,0.3c3.4-10.9,16-14.7,20.4-27.5c-35,23.6-58.8,59-95.5,74.9C199,310.6,206.4,278.7,187.6,250z"/>
	<path class="st52" d="M320.3,136.7c0.5,6.8-1.2,12.4-7.7,15.7c-28.5,22.9-62.6,31.8-97.4,38.7c-5.7,1.1-11.3,2.5-16.7,4.6
		c-21.3,5.6-42.9,8.8-64.7,10.8c-7.8,1.6-15.6,2.3-23.5,0.2c-7.3-6.5-5.1,2.3-6,4.2c-2.9,6.5-3.5,13.3,2.2,19
		c0.7,1.8,0.3,3.3-1.1,4.7c-0.1,1.3-0.1,2.6-0.2,4c-2,1.8-4.3,2.9-7,3.2c-2.7,0.1-5.3-0.4-7.7-1.6c-1.5-1-2.6-2.3-3.4-3.9
		c-2-5.6-2.9-11.5-5.1-17c-2.3-7-5-13.7-12.8-16.4c-16.5,0-14.8,19.2-26.1,24.7c-13.7-4.1,0.3-13.6-3.7-19.5
		c-0.8-5.7,1.7-9.8,6.5-12.8c13.4-12.3,28.2-6.8,42.9-3.4c1.7-0.2,3.4-0.3,5.2-0.5c2.3-3,5-5.5,8.8-6.5c4.6-0.8,8.9-0.6,11.5,4.2
		c0,0.6-0.1,1.2-0.1,1.9c0,0.6-0.1,1.3-0.2,1.9c16.6-2,30.7-7.4,36.6-25.1c4.8-14.3,0.9-25.9-9.8-36.1c-4.6-4.5-10.7-12.8-4.2-16.1
		c7.5-3.7,15-13,25.4-7.9c2.8,1.3,5.2,3.8,8.4,4.6c5.1,3.2,2.6,10.3,7,13.9c6.5,13.6-11.1,24.1-4.8,37.7c0.4,7.5-3.2,13.7-8.2,21.3
		c43.4-7.7,84.2-18.7,123.4-35.4c7.5-3.2,16-5.2,7.6-16.4c-2.1-2.9,1.6-7.1,6-8.2c3.1-0.3,2.6,9.3,7.9,2.8
		C315.5,127.6,318.8,131,320.3,136.7z"/>
	<path class="st53" d="M301.4,124.9c-9.9,13,2.7,12.9,14.4,15.4C263.1,169.5,210,181.6,154,192.1c4.5-11.3,16.3-16.4,14.7-28
		c11.6-8.2,25.1-8.5,38.5-9.1c15.7,4.2,14.6-13.3,23.3-18c11.4-2.7,18.4,13.8,30.7,7.2c13.9-6.3,24-15.7,26.2-31.7
		c0.6-4.4,1.6-9,6.1-11.5C298.5,108.2,300.3,116.4,301.4,124.9z"/>
	<path class="st54" d="M168.2,113.8c-0.3,1.2-0.7,2.5-1,3.7c-10.1-12.9-19.7,7.8-30.6-3.1c2,11.3,8.7,14.7,13.4,19.7
		c10.8,11.5,11.9,31.7,0.5,46.8c-10.1,13.3-24.3,17.8-40.8,13.3c-0.1,0-0.2-1.3,0-1.4c1.1-0.5,2.4-0.9,3.6-1.3
		c11.7-5.9,22.2-12.7,24.2-27.2c4.4-16.8-0.9-28.4-17.3-35.6c-4.8-2.1-18.5-4.4-6.6-15.4c4.4-3.6,4.7-7.6,0.2-10.9
		c-5.3-4-5.8-7.8-1.1-12.4c8.6,1.5,13.2-3.1,15.2-10.7c1.9-7.5,5-14.2,9-20.7c1.6-3.5,4.7-3.5,7.9-3.6c5,7.2,0.4,14.3-0.2,21.5
		c-1.4,14.5,15.2,8,19.1,16.3C169,98.8,174.5,105,168.2,113.8z"/>
	<path class="st11" d="M320.3,136.7c-3.7-3-7.4-6-11-8.9c1.4-11.4,8.3-3.6,12.5-3.2c9.3,0.9,18.5,2.5,26.8,7.5
		c18.5,14.2,41.8,16.6,62.8,24.6c13.2,5.1,25.9,14.6,41.6,11.6c8.1,1.3,16.2,2.4,24.3,3.9c8.1,1.5,12.2,12.9,7.1,19
		c-13,2.7-23.5-4-35-8.1c-29.8-10.7-60-20.4-90.8-27.8C344.5,152,331.9,145.1,320.3,136.7z"/>
	<path class="st55" d="M253,45c5.3,7.2,10,13.3-4.7,15.8c-6.3,1.1-12,7.2-17.4,11.7c-13.8,11.4-29.2,11.4-36.5-1.3
		c-8.8-15.5,3.7-23.7,13.3-31.8c7.5-6.4,17-4.9,26-3.3C239.2,41.1,248.4,38.1,253,45z"/>
	<path class="st56" d="M105.5,234.6c0-1.2-0.2-2.4-0.3-3.6c-0.9-9.4-3.6-18.9,0.6-28.2c9,0.1,18.1,0.1,27.1,0.2
		c9.9,2.7,23.3-6.3,29.6,8.7c-8.5,21.8-23.7,39.3-37.5,57.8c-6.1-2.9-12.9-4.2-9-14.6C119.2,246,116.8,237.3,105.5,234.6z"/>
	<path class="st57" d="M187.7,303.9c11.1,8.3,9.1,19.1,4.6,29.3c-7.4,16.6-41.7,26.6-59.7,18.3c7.1-22.1,23.3-36.3,42.1-48.2
		C179,300.7,183.4,302,187.7,303.9z"/>
	<path class="st58" d="M168.2,254c1.1,0.2,2.2,0.4,3.3,0.5c13.8,7.8,8.7,18.5,3.5,28.3c-7.9,14.8-19.4,27.4-26.8,42.6
		c-2.5,6.1-7.1,10.6-11.3,15.5c-3.2,3.8-7.2,5.8-10.7-0.1c-2.7-12.7-0.5-25,3.2-37.1c7.8-11.8,10.9-26,20.2-37.2
		C154.9,260.2,160,255.1,168.2,254z"/>
	<path class="st59" d="M168.2,113.8c1.1-8.4-4.6-14.1-8.1-20.6c-2.9-24.5-0.5-47.4,18.8-65.6c2.8-2.6,5.7-5,8.2-7.8
		c13.2,3.6,26.4,7.1,39.5,10.7C196.4,30.2,175.5,50,175,80.1c-0.2,13.6,0.5,27.2,0.9,40.8c1.9,2.1,1.6,3.7-1.1,4.8
		C172.6,121.7,170.4,117.7,168.2,113.8z"/>
	<path class="st27" d="M203.1,199c2.1,10.6-8.3,12.7-13,18.5c-7.6,9.4-18,16.6-22.1,28.7c-1.2,1.5-2.5,2.9-3.7,4.4
		c-5.9,7.8-14.4,10.9-21.4,4.4c-7.3-6.7,0-14.8,4.3-20c7.5-9.3,14.8-19.3,25-26.2c8.2-4.8,16-10.6,25.8-12
		C200,197,201.7,197.7,203.1,199z"/>
	<path class="st60" d="M74,265.6c4.1,20.5-11.2,24.4-25.1,29.6c-1.4,0-3.3-0.3-3.3-1c-0.2-25.3,7-48.2,25.3-65.9
		c8.4-8.2,16.8-7.2,16.7,7.6C84.5,246.4,80.4,256.5,74,265.6z"/>
	<path class="st8" d="M144.4,324.2c4.6-16.3,17.1-27.9,25.6-41.9c5.6-9.3,9.5-18.1,1.5-27.8c12.4-4.2,16.4,5.1,19.1,13.4
		c3.3,10.5,8.2,22.6-6.4,29.8C170,305.1,160.4,319.4,144.4,324.2z"/>
	<path class="st61" d="M176,211.1c-13.5,11.6-27.8,22.6-33.9,40.7c8.1,4.2,15.2,1.6,22.3-1.3c1.3,1.2,2.6,2.3,3.9,3.5
		c-21.1,12.7-23.7,37.7-36.8,55.7c-6.9-11.6,1.1-21.1,4.6-31.1c4-11.4-5.7-1.5-6.8-4.6c-1.4-1.5-2.8-3-4.2-4.5
		c6.3-21.7,21-38.1,35-54.9C164.7,210.7,167.3,196.6,176,211.1z"/>
	<path class="st62" d="M452.9,168.4c-12.8,10.2-23.2-1.4-34-4.6c-23.9-7.2-47.3-16.4-70.7-25c-5.4-2-8.4-4.9,0.4-6.7
		C384.5,140.6,418.7,154.5,452.9,168.4z"/>
	<path class="st63" d="M293.6,100.9c-1.3,12.4-4.7,24.7-0.1,36.9c-10.9,1.9-5.4-8.6-12.2-9.6c2.7,16.9-7.9,17.4-19.9,15.9
		c22-21.1,24.4-46.4,16.3-74.1C287.1,78.2,289.9,89.8,293.6,100.9z"/>
	<path class="st64" d="M187.1,19.8c1.5,3.1,0.5,5.4-2.3,7.1c-16.2,8.2-21.2,23.5-24.8,39.6c-1.4,6.4-2.4,13.3-7.8,17.4
		c-6.3,4.8-13.5,7.7-12.5-5.6c1.6-7.8,3.2-15.6,4.9-23.4C152.7,35.8,165.7,22.7,187.1,19.8z"/>
	<path class="st65" d="M85.4,238c0.1-3.7,2.2-8.3-2.3-10.3c-4.1-1.9-6.9,1.2-9.6,4.3C57.4,250,51.9,272.1,49,295.3
		c-8.9-0.3-13.1-5.3-13.8-13.9c-2.6-3.2-2.2-6.2,0.9-8.8c8.5-4.4,4.4-14.9,10-20.7c6.6-7.1,9.5-16.7,15.6-24c6-7.2,12-15.9,23.8-9.7
		c3.8,6.2,5.1,12.8,4.2,20C88.2,239.2,86.8,239.2,85.4,238z"/>
	<path class="st66" d="M129.2,274c5.2-3.9,7.5-12.2,18-10.5c-5.5,15.5-15.1,29.4-15.7,46.1c-0.8,10.1-1.6,20.1-2.4,30.1
		c-2.8,2.2-5.4,3-7.3-0.9C118.1,316.5,120.9,294.9,129.2,274z"/>
	<path class="st67" d="M113.5,113.2c-3.9,12.1,8.1,10.5,12.8,13c14.7,7.8,20.5,20.7,14.6,38.1c-10.8-5.6-12-20.9-24.8-24.4
		c-8.1-5.8-18.7-2.1-27-7c-0.5-12,14.4-13.2,16.5-23.4C108.2,110.6,110.8,111.9,113.5,113.2z"/>
	<path class="st68" d="M38.9,273.9c-4.5,0.9-3.3,4.6-3.7,7.5c-13.3-25.3-6.7-49.4,4.2-73.3c10.4,4.4-3.8,13.3,3.5,18.3
		C48.6,242.8,43.5,258.3,38.9,273.9z"/>
	<path class="st69" d="M121.6,338.8c2.5,0.3,4.9,0.6,7.3,0.9c11.1,0.7,9-11.6,15.5-15.6c13.5-8.5,22.4-23.7,39.7-26.5
		c1.2,2.1,2.4,4.2,3.6,6.3c-19,3.7-30,18-41.3,31.8c-4.4,5.4-9.2,10.6-13.7,15.8C127.7,348.4,122.3,345.7,121.6,338.8z"/>
	<path class="st70" d="M136.7,58.5c-4,13,1.8,30-16.6,37c-7.5,2.8-7.2-0.8-7.6-5.6C119.9,78.9,122.5,64.2,136.7,58.5z"/>
	<path class="st71" d="M88.7,191.9c0.2,2.5,4.9,10.3-1,6.4c-14.4-9.4-27.6-6.8-41.9-3c0.4-0.5,0.8-1,1.2-1.5
		C68.4,172.9,68.4,172.9,88.7,191.9z"/>
	<path class="st54" d="M101.7,187.8c-1.7,3.2-4.7,3.5-7.8,3.6c-19-12.5-16.1-33.1-19.1-51.6c2.2-1.7,4.6-2.3,7.4-2
		c1.7,0.4,3.2,1.3,4.5,2.5c1.1,4,0.9,8.4,2.6,12.3c1.3,4.9,2.4,9.8,3,14.8C90.5,176.4,103.8,178.6,101.7,187.8z"/>
	<path class="st72" d="M82.3,140.7c-2.5-0.3-5-0.6-7.5-0.9c4.7-15.7,13.5-27.3,30.7-30.4c3.1,13.7-11.2,15.1-16.2,23
		C89.5,137.3,84.7,138,82.3,140.7z"/>
	<path class="st73" d="M105.8,241.4c8.4,9,3.4,16.8-3.1,23.2c-5.5,5.4-11.6,13.4-21,5.3C87.1,258.2,95.3,248.8,105.8,241.4z"/>
	<path class="st74" d="M105.8,241.4c-4,12.9-13.3,21.3-24.1,28.5c-1.4-1.4-2.9-2.9-4.3-4.3c-1.6-4.4-2.2-8.8,1.4-12.6
		c8.9-1.2,13.7-7.6,18.3-14.4c2.7,0,5.4,0,8.1,0C105.2,239.6,105.4,240.5,105.8,241.4z"/>
	<path class="st52" d="M81.4,253.4c-4.2,3.1-2.4,8.3-4,12.2c-1.1,0-2.2,0-3.4,0c-2.6-11.8,2.8-20.4,11.4-27.6
		c1.4,0.1,2.9,0.1,4.3,0.2c0,0,0.3,0.3,0.3,0.3C91.7,246.1,87.3,250.2,81.4,253.4z"/>
	<path class="st2" d="M933.1,250.5c9.6-6.1,8.4,1.3,8.6,6.9c5.9,11.3,7.1,22.7,4.6,35.6c-4.5,22.9-3.4,46.4-3.2,69.7
		c0.1,17.8-1.9,34.9-14,49.3c-6,7.1-5.2,15.7-3.5,24.1c0.9,4.4,2,8.8,3.1,13.2c10.7,43.5,10.7,43.5-30.3,59.2
		c-10.1,3.7-18.7,10-27.5,16.1c-17.4-4.7-17.3-20.3-20.9-31.5c-0.3-4.7-4.6-2.1-2-2.5c0.3,0,0.3,0.3,0.6,0.8c2,4.9,3.6,9.8-2.4,13.3
		c-8.9-4.1-6.2-11.8-5.4-18.6c1.9-16.1,6.3-31.7,10.8-47.1c6.1-20.8,6.1-40.7-3.6-60.2c-0.3-5.6-3.2-9.4-8.1-11.8
		c8.3-17.1,25.9-25.7,37.1-40.5c14.8-19.5,30.3-39.2,49.6-54.6C934.8,265.2,921.4,254.4,933.1,250.5z"/>
	<path class="st75" d="M750.5,382.8c7.8-6.2,17.2-6.6,26.5-7.3c35,5,48.1,16.2,52.7,44.2c1.4,8.6,1.1,16.8-9,18.2
		c-13.5,1.9-16.2,14.3-15,21.3c3.9,22.9-10.3,21.2-24.4,21.5c-2-0.2-4-0.6-5.9-1.1c-24.7-0.7-41.9-14.6-57.4-31.9
		c-9.5-10.7-10.2-21.7-2.6-33.6c2.7-3.5,5.5-7,8.2-10.6c4.5,4.7,3.5,10.9,4.6,16.5c1.6,8.1,4.3,16.3,14.5,14.3
		c9.9-1.9,10.6-10.7,9-18.7C749.5,404.7,749.8,393.8,750.5,382.8z"/>
	<path class="st4" d="M894.5,507.6c2.4-11.8,13.8-9.2,20.5-10.4c14.7-2.5,16.2-11.3,14.3-22.3c-2.1-12-5.7-23.8-8.6-35.7
		c-3.4-13.4-6.2-25.3,8.4-36c8.3-6.2,8.5-19.6,8.5-30.7c0.1-31.6-0.9-63.2,6.6-94.3c1.5-6.4-1.4-13.8-2.3-20.8
		c9.9,7.5,12.6,18.8,10.7,29.5c-6.6,36.7-3.3,73.7-2,110.4c0.5,13.8,10.8,28.7,2.4,42.1c-16.2,25.8-2.5,49,2.7,73.3
		c1.3,6.2,1.2,12.6,2.2,24c-13.2-17.1-32.1-9.3-43.6-21C907.3,513.5,897.7,518.3,894.5,507.6z"/>
	<path class="st76" d="M781.2,476.4c7.8-3.5,31.1,9.6,18.4-17.4c-0.5-1.1-2.4-27.1,17.5-26.6c9.2,0.2,7.3-4.8,6.7-11.1
		c-2.5-25.4-12.4-35.5-47-45.7c17.3-1.3,34-1.4,51.5,3.6c9,2.6,16.3-1.9,14.9,12.2c-4,41.8-7.2,83.6-21.6,125.8
		c-2.8-20-27.1-16.4-32.7-33.2C784.6,483.3,779.4,483.5,781.2,476.4z"/>
	<path class="st77" d="M750.5,382.8c6.6,14.5,6.3,30.2,6.9,45.5c0.3,7.3-6.5,12.5-14.2,13.5c-7.8,1-13.5-2.6-17.2-9.8
		c-4.8-9.2-3.6-18.8-2.5-28.4C730.5,394.1,739.9,387.7,750.5,382.8z"/>
	<path class="st78" d="M847.9,378.8c20.1,17.6,14.6,38.9,8.8,60.4c-4,14.9-12,28.8-12.8,44.5c-0.3,6.8-2.4,14.4,3.4,20.3
		c1.2,1.3,1.8,2.8,1.7,4.5c-0.7,3.4-2.2,6.5-4,9.4c-6.3,6.4-7.9,18.4-20.5,17.2C839.6,484.2,850.4,432.5,847.9,378.8z"/>
	<path class="st11" d="M933.1,250.5c-0.2,3.1-5.8,6.3,0.4,9.3c8.3,4,4.4,11.2,0.7,13.7c-28,18.9-45.2,47.8-67.4,71.9
		c-7.7,8.4-17.9,14.4-27,21.5c-4.1,1.2-8.3,2.4-15.3,4.5c3.7-7.5,5.7-13,11.6-16c28-28.3,58-54.6,81.8-86.8
		C921,261,923.5,252.8,933.1,250.5z"/>
	<path class="st79" d="M824.4,535.2c9.4-3.4,10.3-15.1,18.9-19.3c9.8,11.3,14.5,25.3,19.9,38.9c1.3,5.3,10.4,8.3,5.8,14.9
		c-4.9,7.1-8.5-1.8-12.9-2.4c-5.6-0.7-11.5-3-15.9,2.9c-1.4,1.1-3,1.4-4.8,0.9c-6-6.5-14.7-7.6-22.2-11c-0.9-0.9-1.3-1.9-1.2-3
		c0.1-1.1,0.3-1.6,0.6-1.6C820,550.7,822.7,543.2,824.4,535.2z"/>
	<path class="st80" d="M851.1,644.1c-20.2-0.4-35.7-11-50.7-22.9c-3.3-6.9-3.9-14.6-8.1-21.3c-3.6-5.8-3.8-12.3,3.5-16.5
		c18.7-4.5,19.3,15.4,29.8,21.9c9.3,8.3,19.4,15.9,26.7,26.2C853,635.8,847.6,639.5,851.1,644.1z"/>
	<path class="st81" d="M922.4,550.8c0.7-8.1-6.2-20.4,7.6-21.9c12.2-1.3,21.2,7.3,22.2,19.6c1.1,14.7,3.9,30.9-11.2,41.7
		C928.9,579.9,922.2,567,922.4,550.8z"/>
	<path class="st82" d="M851.1,644.1c-7.9-3.9-4.7-7.5,0.2-11.2c-6.5-11.6-17.9-18.4-26.4-28.1c-0.7-1.1-1.3-2.2-1.8-3.4
		c-2.7-6.7-5.3-14.3,1.3-19.4c6.7-5.2,11.3,2.8,16.8,5.2c5.4,3,9.2,8,14.5,11c1.4,1.1,2.4,2.5,2.9,4.2c-1.2,1.9-3.8,5.1-3.5,5.4
		C873.5,626.2,872.8,633.2,851.1,644.1z"/>
	<path class="st83" d="M840.3,590.2c-7.6,4.2-6.8-7.8-14-6.3c-5.8,7.8,1.4,14.5,3.6,21.6c-1.4,1.2-3.1,1.7-5,1.4
		c-5.4-3-8.7-8.1-10-13.7c-2.6-11.9-9.1-12.3-18.1-7.3c-6.9,6.3-1.9,12.2,1.7,16.7c5,6.3,4.1,12.1,1.9,18.6
		c-10.3-2.6-9-14-15.2-19.8c-3.5-18,9.6-27.2,20-37.9c1.3-1.3,2.7-2.3,4.4-3c10.4-0.8,16.6,9.7,26.5,9.9c1.3-0.1,2.7-0.2,4-0.3
		c1.3,0.2,2.6,0.3,3.9,0.5c1.1,1.5,1.4,3.1,1.1,4.9C843.2,580.4,843.9,586,840.3,590.2z"/>
	<path class="st84" d="M863.2,554.8c-11.4-10.5-17.3-23.8-19.9-38.9c1.2-2.6,2.5-5.3,3.7-7.9c9,6.9,8.9,19.5,17.4,27.6
		c5.6-2,1.8-9.3,6.1-11.8c4.5-10.6,12.1-16.5,23.9-16.2c5.5,5.2,14.6,1.6,19.6,8c-1.3,1.1-2.5,2.2-3.8,3.3
		c-7.5,5.8-19.2-3.2-25.4,7.2c-1.9,6.7,1.6,13.2,1.1,19.8c-0.3,1.7-1,3.3-1.9,4.7c-7.7-2.6-5.4,6.4-9.5,8.1
		C870.4,558.3,869,550.1,863.2,554.8z"/>
	<path class="st85" d="M812.6,555.5c0.1,1.1,0.1,2.2,0,3.2c-0.5,2.2-2.8,2.5-4.1,3.8l-0.5,0.5c-2.4,1.8-4.9,1.7-7.5,0.3
		c-7.1-10.5,9.1-17.5,4-27.6c-3.4-3.7-8.4-4.3-12.6-6.6c-3.8-2.2-7.2-4.8-9.9-8.2c-2-8.1,2.6-7.9,8.3-6.6
		c-3.4-5.5-19.4-0.1-12.9-14.4c22.1-2.6,39.7,11.9,38.9,32.9C816,540.4,813.9,547.9,812.6,555.5z"/>
	<path class="st86" d="M879.8,524.1c7.7-16,19.9-6.2,30.5-5.2c11.8,8.3,5.4,21.1,8,31.7c4,5.6,7.8,11.2,5.2,18.6
		c-9.3,4.9-10.6-4.2-13.5-8.5C901.1,547.4,892.4,534.2,879.8,524.1z"/>
	<path class="st87" d="M917.8,268.7c-0.3,11.6-9.2,19-15.9,25.6c-21.4,21-38.7,46.6-65.9,61.3C859.4,322.8,889.1,296.2,917.8,268.7z
		"/>
	<path class="st88" d="M807.3,531.9c9.6,4.6,3,10.4,0.9,15.4c-2.3,5.6-8.3,9.5-7,16.7c-1.3,6.9-4.5,10.4-11.7,6.6
		c-16.5,1.2-31.4-3.1-44.7-12.9c-0.2-0.2,0-1.2,0.3-1.7c0.3-0.5,0.9-0.8,1.4-1.3c3.8-2.3,8.2-1.6,12.3-2.2c5.1-0.1,10.2-1,15.3-0.3
		C790.4,554.1,796.9,539.8,807.3,531.9z"/>
	<path class="st88" d="M777.3,499.9c0.2,10.9,12.5,6.6,16.2,13.3c-1.4,4.5-6.6,0.9-8.9,3.7c-0.3,0.3-0.1,1.3,0.1,1.8
		c0.2,0.5,0.8,0.9,1.2,1.4c-1.6,9.6-12.9,8.2-17,15c-3.4,3.3-7,6.4-12.2,6.1c-6.6-1.8-9.6-6.3-9.7-13c3.2-12.9,14.1-19.9,22.1-29.1
		C772.2,495.4,774.6,499.4,777.3,499.9z"/>
	<path class="st85" d="M769,499c0.5,14.1-15,17.5-19.1,28.4c-3.9,3-7.8,3.1-11.7-0.1c8.2-11.4-5.3-7.2-7.8-10.9
		c2.5-8.3-4.7-16.4-0.6-24.7c2.4-1.8,5.1-2,7.9-1.1c7.7,7.1,16.2-1.1,24.1,1.3C764.3,494.3,766.6,496.7,769,499z"/>
	<path class="st89" d="M715.3,414.1c0.3,29.4,18.9,51.4,48.4,57.7c5,1.1,10,2.7,14.9,4c-7.4,7.7-16.9,3.5-25.5,4.6
		c-14.3-3.4-26.3-11-36.8-21.1c-10.6-10.3-16.4-21.8-9.6-36.6C707.6,418,711.1,415.8,715.3,414.1z"/>
	<path class="st90" d="M706.8,422.9c-3,30.9,20,41.3,41.6,52.9c-1,5.1-3.1,9.2-8.6,10.8c-25.6-9-39.8-30.5-37.3-56.4
		C703.2,427.3,703,423.9,706.8,422.9z"/>
	<path class="st91" d="M874.5,558.6c1.3-3.7-2.8-14.4,7.8-6c11.2,3.8,15.2,18.2,28.3,19.4c4.5,1,7.7,3.5,8.9,8.1
		c-0.6,4.9,5,8.7,2.5,13.9C901.7,588.2,886.4,575.7,874.5,558.6z"/>
	<path class="st92" d="M702.5,430.2c-1.4,28.7,21.6,40.2,39,55.7c0.9,0.8,1.3,1.6,1.2,2.6c-0.1,1-0.3,1.5-0.5,1.5
		c-1.1,1.2-2.4,1.9-4,2.2c-2.6-0.1-5.1-0.1-7.7-0.2c-3.8-1.3-5.4-4.8-7.4-7.8C707.6,469.5,689.6,455.7,702.5,430.2z"/>
	<path class="st93" d="M922,594.1c2.8-5.8-10.8-6.5-4.2-13.4c5-2.1,0.9-8,4.4-10.7c-1.3-6.4-2.6-12.9-4-19.3
		c1.4,0.1,2.8,0.1,4.2,0.2c6.2,13.1,12.4,26.3,18.6,39.4C934.8,591.8,930.1,601.6,922,594.1z"/>
	<path class="st94" d="M723,484.2c5.1,0.1,7.8,2.5,7.4,7.8c4.3,8.1,9.1,16.3,0,24.4c-9-10-17.2-20.4-21.4-33.5
		c6.3-3.6,7.8,3.5,11.8,3.7c0.5,0,1.3-0.2,1.6-0.6C722.8,485.6,722.9,484.8,723,484.2z"/>
	<path class="st85" d="M742.1,488.2c-0.4-0.7-0.6-1.5-0.6-2.3c0.7-4.5,1-9.2,6.9-10.1c10.1,0,20.2,0.1,30.3,0.1
		c1-0.4,1.8-0.2,2.6,0.4c2.6,2.5,5.3,5,7.9,7.5c-4.9,5.7-9.6,10.3-17.3,3c-3.9-3.7-9.5-3.6-13.7,1.3
		C752.8,491,747.4,489.3,742.1,488.2z"/>
	<path class="st95" d="M789.5,570.6c5.6,0.7,8.8-2.6,11.7-6.6c2.2-0.3,4.5-0.6,6.7-0.9c-5.9,13.8-21.6,21.8-22.7,38.4
		C784.1,590.8,774.4,579,789.5,570.6z"/>
	<path class="st96" d="M738.3,527.4c3.9,0,7.8,0.1,11.7,0.1c0.8,6.1,3.1,11.4,8.4,15c2.9,3.7,3.2,7.4-0.4,10.9
		c-3,7.7-7.5,1.8-11.5,1.4C742.1,546.1,739.2,537,738.3,527.4z"/>
	<path class="st97" d="M842.4,574.2c0.3-1.3,0.8-2.4,1.6-3.5c19.4,6.7,22.4,13.2,14.6,31.7c-1.8-0.5-3.7-1-5.5-1.5
		C850.3,591.8,842.5,584.5,842.4,574.2z"/>
	<path class="st98" d="M742.1,488.2c5.3-3.5,10.7-3.2,16,0c1.3,1.3,2.5,2.5,3.8,3.8c-1.4,12.7-18.9-0.3-20.1,12.6
		c-4.3-3.2-3.4-8-3.6-12.4C739.5,490.8,740.8,489.5,742.1,488.2z"/>
	<path class="st99" d="M120.9,458.3c0.2-30.9,8.6-43,37.7-53.8c4.8-1.8,9.8-4.2,14.8-4.5c12-0.6,26.9-10.6,35-1.8
		c8,8.7-8.9,16-12.2,25.6c-4.3,12.7-4.7,25.4-5,38.4c-0.5,16.6-10.9,25.7-24.4,32.3c-12,5.9-23.4,5.7-34.6-2.8
		C120.6,482.9,120.8,470.7,120.9,458.3z"/>
	<path class="st9" d="M262.8,550.2c4.6-1.4,12.1-10.4,13.2,0c1.6,16,7.5,33.8-7,47.8c-15.8-2.6-23.6-13-26.7-27.8
		C252.6,567.1,256.7,557.6,262.8,550.2z"/>
	<path class="st100" d="M257.4,530.7c7.5,1.4,16.4,0.6,22.1,4.5c15.9,10.8,24.6,5,33.1-9.5c5-8.6,10.2-17.8,19.4-23.3
		c-2.6,19.1-16.5,30.9-28.4,44.2c-5.5,6.1-10.6,2-15.5-0.3c-11-4.9-21.7-10.8-34.3-11.1C248.6,528.6,256.8,532.6,257.4,530.7z"/>
	<path class="st101" d="M242.3,570.2c7.7,10.4,14,22.2,26.7,27.8c-5.2,6.7-9.8-2-14.8-0.6c-6.3-7.9-12.7-15.7-19-23.6
		c-0.2-4.5-0.5-9.1-0.7-13.6c0.8-0.2,1.7-0.4,2.5-0.6C238.7,563.1,240.5,566.7,242.3,570.2z"/>
	<path class="st102" d="M238.6,613.5c2.7-1.5,5.5-3,8.2-4.5c-0.5,13.8-10.3,20.3-22.2,25.4C229.3,627.4,233.9,620.5,238.6,613.5z"/>
	<path class="st103" d="M343.7,480.9c-12.2-2-20-9.8-25.5-21.2c8.4,5.7,16.9,11.4,25.3,17C343.6,478.2,343.7,479.6,343.7,480.9z"/>
	<path class="st40" d="M287.2,587.1c0.8-7.9,3.8-14.4,13.5-19.7C298.3,577.1,294.4,583,287.2,587.1z"/>
	<path class="st104" d="M194.6,734.5c-2.3,2.3-4.7,4.7-7,7c-17.5,6.6-34.6,15.3-54.3,12.4c-4.4-0.7-9.3,0.3-12-4.6
		c2.4-2.9,5.9-4,9.3-5.2c8.1-6.6,18.5-5.9,27.8-8.8c4.1-1.5,8.2-3.2,12.2-4.9c11.7-5.9,18.9-13.8,12.7-27.9
		c-10.7-7.3-20.5-15.8-33.1-20c-2.3-3.1-3.9-6.4-2.5-10.3C187.6,671.7,203.9,693.4,194.6,734.5z"/>
	<path class="st105" d="M89.6,723c-4.5-22.3,10.9-32.8,25.9-43.5c24.4,2,27.2,6.5,17.6,28.7c-7.9,12.6-16.4,24.4-34,22.1
		C94.6,729.6,92.3,726.1,89.6,723z"/>
	<path class="st106" d="M129.1,707.1c10.5-16.6,2.4-24.1-13.6-27.7c10.1-5.6,20.7-8.6,32.4-7.3c2.2,2.4,5.8,4,4.6,8.3
		c-5.5,9.1,8.5,15,4,24C148.1,713.4,139,714.1,129.1,707.1z"/>
	<path class="st107" d="M133.3,748.8c-4,0.2-8,0.4-12,0.5c-4.1-2.3-8.2-4.6-12.3-6.9c-3-5.3-0.6-8.6,4.1-11.1
		C126.4,729.5,137.3,730.5,133.3,748.8z"/>
	<path class="st108" d="M113.4,733.5c-2.9,2.2-4.9,5-4.4,8.9c-12.6-0.4-18.9-7.1-19.4-19.5c3.1,1.7,6.3,3.3,9.4,5
		C103.4,730.9,111.6,724,113.4,733.5z"/>
	<path class="st4" d="M203.1,199c-1.3,0.1-2.6,0.1-3.9,0.2c-2.4-2.5-2.3-5.1,0-7.6c39.5-8,76.5-23.3,113.3-39.2
		c-12.1,32.1-40.5,35.7-68.7,38.7C230,192.7,216.3,194.3,203.1,199z"/>
	<path class="st109" d="M174.8,125.7c0.4-1.6,0.7-3.2,1.1-4.8c1.2,2.8,3,5.6,3.6,8.5c3.1,16.7,11.8,22.4,27.6,14.3
		c3.5,4.2,3.5,8.3-0.2,12.4c-12,6.1-25,7.3-38.2,7.9C160.2,149.6,179.6,139.6,174.8,125.7z"/>
	<path class="st110" d="M206.9,156.2c0.1-4.1,0.1-8.3,0.2-12.4c7.2-4.3,14.8-7.7,23.5-6.8c1.5,12.5-8.7,18.8-15.6,25.6
		C207.4,170,208.7,159.7,206.9,156.2z"/>
	<path class="st111" d="M38.9,273.9c0.1-16-1.4-32,4-47.5c4.1-7.8,7.8-16,12.5-23.4c3.5-5.5,8.1-10.8,15.3-4c4,5.3,4,11.7,0.2,16.1
		c-10.1,11.9-13.5,27.5-23.4,39.4c-0.6,7.4-0.5,14.9-6.2,20.8c-0.3,0.3-1.1,0.4-1.4,0.2C39.5,275,39.2,274.4,38.9,273.9z"/>
	<path class="st112" d="M101.7,187.8c-3.1-7.2-19-6.4-12.4-19.7c9.5-3.3,16.4,4.2,24.8,5.9c4.6,0.9,9.3,5.4,13-1.4
		c6.3-16.5-11.5-23.1-14.5-35.7c1.4-1.5,2.9-1.6,4.5-0.2c16.2,2.2,18.8,16,23.9,27.7c-1.8,16.6-8,28.8-27.7,27.1
		C110.4,186.9,105.9,187.8,101.7,187.8z"/>
	<path class="st113" d="M199.2,191.6c0,2.5,0,5.1,0,7.6c-7.7,4-15.5,7.9-23.2,11.9c-7.5-8.7-10.4,3.7-16,3.4
		c-4.1-15.6-20.8-1.3-27.2-11.5C154.9,199.3,177.1,195.5,199.2,191.6z"/>
	<path class="st114" d="M47.6,254.4c3.8-20.1,21.1-34.6,23.1-55.5c10.2,2.4,13.4,10.2,14.8,19.3c-12.7,0.4-18.5,9.5-24.6,18.8
		C56.9,243,56.8,252.2,47.6,254.4z"/>
	<path class="st115" d="M105.7,202.9c0.2,9.4,9.4,19-0.6,28.2C92.4,226.2,92.5,220.7,105.7,202.9z"/>
	<path class="st116" d="M81.4,253.4c2.9-5,5.8-10,8.6-14.9c2.4,0.1,4.7,0.1,7.1,0.2C95.6,254.1,92.8,256.8,81.4,253.4z"/>
	<path class="st117" d="M139.8,78.3c4.4,12,9.2,5.9,11.9-0.4c3.8-8.7,5.6-18.3,9-27.1c4.4-11.3,9.4-22.5,24-23.8
		C163.2,44,165,69.8,160,93.1c-4.2-3.6-9.1-3.8-14.3-3.7C137,89.6,136.8,84.7,139.8,78.3z"/>
	<path class="st118" d="M117,136.6c-1.4,0.2-2.9,0.3-4.3,0.5c-8.3,6-17.3,6.6-26.8,3.5c-1.2,0-2.4,0.1-3.7,0.1c0-4.7,3.7-6.4,7-8.4
		C99,130.7,108.8,128.1,117,136.6z"/>
	<path class="st119" d="M85.9,140.6c8.4-4.8,17.5-4.6,26.8-3.5c16,8.1,22,21.5,20.4,38.9c-1,0.8-2.8,2-3.3,1.5
		c-12.4-11.9-30.3-13.8-43.6-24C82.8,149.2,83.2,144.9,85.9,140.6z"/>
	<path class="st120" d="M86.2,153.4c18.4,1.7,35.1,7.1,46.8,22.6c-7.6,16-16.9,2-25.5,1.5c-7.6-0.4-12.8-5.2-18.3-9.4
		C88.2,163.2,84.4,158.9,86.2,153.4z"/>
	<path class="st11" d="M870.5,523.8c0.4,2.5,0.3,5.2,1.2,7.6c1.9,5.5,1.3,11.4-3.5,13.6c-6.7,3.1-7.9-4.4-10.2-8.5
		c-5-9-9.9-18.1-11-28.5c0.1-1.3,0.2-2.6,0.3-4c0.3-5.4,0.6-10.8,1.1-17.9C857.2,499.4,859.3,514.3,870.5,523.8z"/>
	<path class="st121" d="M808.4,562.6c1.4-1.3,2.7-2.6,4.1-3.8c9.4,0.9,21.5-3.8,23.6,11.7c-3,6.2-6.6,6.8-11.8,1.9
		C819.8,568,815.9,562.3,808.4,562.6z"/>
	<path class="st122" d="M796.8,585.8c10.3-6.7,21.8-17.4,21.8,7.4c0,4,4,7.9,6.1,11.9c1.1,1.6,0.9,3-0.5,4.2
		C811.3,606,814.4,583.8,796.8,585.8z"/>
	<path class="st123" d="M824.2,609.4c0.2-1.4,0.4-2.8,0.5-4.2c1.7,0.1,3.4,0.2,5.1,0.3c6.4,9.8,21.3,12.9,21.6,27.5
		C841,626.7,832.3,618.4,824.2,609.4z"/>
	<path class="st124" d="M842.4,574.2c7.2,7.5,14.3,15,10.7,26.8c-6.9-0.5-8.2-7.7-12.9-10.8C840,584.8,833.3,578.4,842.4,574.2z"/>
	<path class="st125" d="M922.2,569.9c2.1,5,9.1,9.7,6.3,14.3c-2.7,4.5-7.5-0.6-10.7-3.6c-2.4-2.2-4.8-4.4-7.3-6.5
		c-15.5-2.7-21.4-15.2-27.8-27.2c-1.8-7.5-7.3-14.5-3-22.8c15.3-0.3,19.3,12.9,26.2,22.4C911.6,554.1,916.8,562.1,922.2,569.9z"/>
	<path class="st126" d="M882.8,546.9c9.2,9.1,16.2,20.5,27.8,27.2c-5.9,8.4-9.3-0.1-12.1-2.6c-6.1-5.5-13.6-10.2-16.1-18.8
		C882.5,550.7,882.6,548.8,882.8,546.9z"/>
	<path class="st127" d="M807.3,531.9c-5.8,20.1-18.8,28.5-34.9,22.7c-3.3-6.3-0.2-11.3,3.1-16.3c5.9-3.8,8.7-12.9,18.1-10.9
		C799,526.4,803.6,527.8,807.3,531.9z"/>
	<path class="st128" d="M793.7,527.3c-6.8,2.2-7.1,12.8-16.1,12.1c-4.6-1.6-8.7-3.9-12-7.5c3.6-9.3,13.9-7.2,20.2-11.8
		C788.5,522.5,791.1,524.9,793.7,527.3z"/>
	<path class="st129" d="M765.6,531.9c6.6-1.6,11.5-0.5,12,7.5c-1.7,5-3.4,10-5.2,15.1c-5.1,3-9.9,2.2-14.5-1.2
		c0.1-3.6,0.3-7.2,0.4-10.9C760.8,539,763.2,535.4,765.6,531.9z"/>
	<path class="st130" d="M113.4,733.5c-3.4-5.5-10.5-1.3-14.4-5.6c14.7-0.3,22.8-9.9,30.1-20.8c9.5-1.1,20.8,4.1,27.3-7.8
		c10.6-6.7,21.3,6.8,31.9-0.3c7.2,17.8,1,29.2-16.6,35.3c-7.7-6.8-15.3-1.3-22.6,0.4c3.5,1.2,8.7-1,11.2,4.1
		c-7.4,7.5-21-1.7-26.9,9.9C133.6,734.6,123.9,733.5,113.4,733.5z"/>
	<path class="st131" d="M188.3,699c0.3,9.7-5.1,10-12.4,7.7c-6.6-2.1-11.9-7.7-19.4-7.4c-6.5-5.2-20.6-8.8-4-18.9
		C167.7,680.2,176,693.5,188.3,699z"/>
	<path class="st132" d="M160.2,738.9c-6.4,0-12.8,0-20.6,0c24.1-18.7,25.7-18.8,32.1-4.5C167.8,735.9,164,737.4,160.2,738.9z"/>
</g>
</svg>
