<?xml version="1.0" encoding="utf-8"?>
<!-- Generator: Adobe Illustrator 23.0.1, SVG Export Plug-In . SVG Version: 6.00 Build 0)  -->
<svg version="1.1" id="Layer_4" xmlns="http://www.w3.org/2000/svg" xmlns:xlink="http://www.w3.org/1999/xlink" x="0px" y="0px"
	 viewBox="0 0 1000 1000" style="enable-background:new 0 0 1000 1000;" xml:space="preserve">
<style type="text/css">
	.st0{fill:#6C361F;}
	.st1{fill:#63778A;}
	.st2{fill:#020101;}
	.st3{fill:#010101;}
	.st4{fill:#020201;}
	.st5{fill:#6E3720;}
	.st6{fill:#6F3821;}
	.st7{fill:#703922;}
	.st8{fill:#6B351F;}
	.st9{fill:#FB9A7A;}
	.st10{fill:#FB9B7A;}
	.st11{fill:#FEFEFE;}
	.st12{fill:#FBFBFA;}
	.st13{fill:#FA9B7A;}
	.st14{fill:#F89A79;}
	.st15{fill:#CAFCFC;}
	.st16{fill:#7D7D7D;}
	.st17{fill:none;}
	.st18{fill:#C2FEFE;}
	.st19{fill:#7C7C7C;}
	.st20{fill:#C0FEFE;}
	.st21{fill:#7A7A7A;}
	.st22{fill:#C1FEFE;}
	.st23{fill:#F79979;}
	.st24{fill:#FBFCFB;}
	.st25{fill:#C9FAFA;}
	.st26{fill:#787878;}
	.st27{fill:#FAFAF9;}
	.st28{fill:#CAFDFD;}
	.st29{fill:#7B7B7B;}
	.st30{fill:#E4CDC4;}
	.st31{fill:#0A0B0C;}
	.st32{fill:#F5F5F5;}
	.st33{fill:#0F0F11;}
	.st34{fill:#EDD0C4;}
	.st35{fill:#242A33;}
	.st36{fill:#083769;}
	.st37{fill:#D7D7D7;}
	.st38{fill:#121213;}
	.st39{fill:#09294D;}
	.st40{fill:#E1E1E1;}
	.st41{fill:#E90000;}
	.st42{fill:#A40001;}
	.st43{fill:#7F91A1;}
	.st44{fill:#7F92A2;}
	.st45{fill:#A30505;}
	.st46{fill:#050608;}
	.st47{fill:#353737;}
	.st48{fill:#101011;}
	.st49{fill:#1A1B1E;}
	.st50{fill:#FEFBFB;}
	.st51{fill:#FEF9F9;}
	.st52{fill:#FDF8F8;}
	.st53{fill:#E2E2E2;}
</style>
<g>
	<path class="st0" d="M918.4,931.2c-9-21.1-26.1-35.2-43.5-48.1c-33.8-25.3-70.4-46.4-108.8-64.6c28.4-51.5,56.5-101.9,64.2-161.5
		c7-54.7-5.1-84.9-51.7-113.2c-32-19.4-68.4-27.1-106.3-24.7c-4.9,4.4-4.7,9.6-2.4,15.2c0.4,0.5,0.9,1,1.4,1.5
		c0.4,0.4,0.8,0.7,1.2,1c3.9,2.9,8.7,3.2,13.4,3.2c22.6-0.3,43.5,7,64.4,14.4c48.5,17.1,68.5,51.1,58.6,101.7
		c-7.2,36.5-19.9,71.2-36.7,104.6c-15.8,31.4-32.9,62-45.8,94.8c-3.1,7.9-5.9,15.9-6.9,24.3c-0.6,5.1-1.5,11.4,4.1,13.8
		c0.3,0.1,0.5,0.2,0.8,0.3c0.5,0.2,1,0.3,1.5,0.3c4.6,0.4,7.4-4.3,9.8-7.9c5.8-8.7,10.3-18.1,14.4-27.7
		c5.7-13.5,14.2-17.9,27.6-10.7c39,20.9,77.9,42,108.5,75c4.3,4.6,11.2,9.2,8.5,16.3c-2.3,6.1-10.1,4.8-15.7,5.7
		c-80,12.8-160.4,13.7-240.9,6c-28.4-2.7-50.2-17.1-59-44.1c-9.5-29.3-3.8-57.9,14.4-83.4c3.7-5.2,9.4-6.6,15.4-7.2
		c32-2.8,63.4-16.5,96.2-4.7c5.4,1.9,12.3,1.3,14.7-5.8c1.9-5.7-2.1-9.8-6-13.4c-5-4.4-11.2-6.3-17.4-8.4c-18.3-6.1-36.1-0.2-54,2.1
		c-14.2,1.8-28.2,5.5-42.5,1.1c-15.7-4.9-24.6-16.4-19.8-30.5c6.2-18.1-0.8-32.2-6.8-48.3c-16.2-43.8-35.5-87.8-16.7-135.9
		c0.2-0.5,0.4-0.9,0.5-1.4c0-0.2,0-0.5-0.1-0.7c-0.6-6.4-2.4-11.8-9.9-12.9c-0.2,0-0.4-0.1-0.6-0.1c-0.1,0-0.2,0.1-0.3,0.2
		c-14.4,7.9-19.8,20.3-22.3,34.2c0,0,0,0,0,0c-0.2,1.1-0.4,2.2-0.5,3.3v0c-0.5,3.6-0.9,7.2-1.2,10.9c0,5.2,0.3,10.4,1.6,15.5
		c0.3,1.3,0.5,2.6,0.8,3.8c0.3,1.7,0.7,3.3,1,5c0,0,0,0,0,0c5.1,25.1,9.6,50.4,19.7,74.2c8,18.7,16.7,36.7,7,57.6
		c-2.1,4.6,0,10.3,1.5,15.3c3.1,10,1.2,19.2-3.4,28.3c-6.2,12.2-12.8,24.2-17.9,36.9c-4.4,10.8-9,21.7-9.5,33.6
		c-0.2,5.2-0.5,11.6,5.1,13.6c6.3,2.3,8.4-4.4,11.2-8.4c6.9-10.2,8.3-23,14.8-32.5c-16.2,34.5-11.5,58.8,20.7,105
		c-2.4,3-5.9,1.9-8.9,1.9c-36.4-0.2-72.7-0.8-109.1-3.2c-32.6-2.1-59.6-11.7-74.2-41.4c-15.4-31.4-3.7-60.9,13.2-88.6
		c4.3-7,11.1-8.7,18.5-8.6c32.2,0.2,64-14.4,96.5-2.1c4,1.5,9.8,0.7,12-4.2c2.2-4.8-1.2-8.8-4.5-12c-12.5-12-27.1-16.9-44.6-14.4
		c-20.6,2.8-40.9,8.8-61.9,7.1c-24.4-1.9-33.3-13.9-28.2-37.9c2.2-10.1,1.4-19.1-3.3-28.3c-12.3-23.9-19.4-49.8-25.3-75.7
		c-5.7-24.9-11.4-50.6,4.7-74.2c0.2-0.4,0.5-0.7,0.7-1.1c0,0,0,0,0-0.1v0c-0.9-9.2-1.9-18.2-12.9-21.1c-0.1,0-0.2-0.1-0.4-0.1
		c0,0-0.1,0.1-0.1,0.1c-9.7,11.4-17.5,23.8-21.2,38.2c-0.2,0.7-0.4,1.5-0.5,2.2c-0.3,1.3-0.5,2.6-0.8,3.9c-0.8,4-0.7,8,0.1,12
		c0.1,1,0.2,2,0.3,3c0.5,5,1.1,9.9,1.8,14.8c2.1,15.2,5,30.3,9.2,45.3c9.1,33.1,24.8,64.1,20.2,101.5c-2.2,18-2.9,35-11.6,51.2
		c-10.2,19-19.1,38.5-21.8,60.2c-0.6,4.8-2.5,11.3,4.6,13c5.3,1.3,8-3.4,10.5-7.2c4.9-7.5,8.6-15.5,11.4-22.7
		c-8.2,31.6,5.6,61.6,30.3,90.2c-42.6-0.6-82.8-0.3-123.1-3.4c-30.9-2.3-56.7-10.5-71.1-39.2c-15.7-31.3-5.4-60.8,10.3-89
		c3.4-6.1,9.2-9.2,16.2-9.2c32.8-0.3,65.1-15.3,98.4-3.3c3.2,1.2,7.4,1.3,10.3-0.6c0.3-0.2,0.6-0.4,0.8-0.6c1-0.8,1.8-2,2.3-3.5
		c1.7-5.3-2.6-9.9-6.7-13.2c-12.8-10.2-27.2-14.4-43.7-12.3c-18.7,2.4-37,8.1-55.9,7.6c-25-0.7-37.1-15.2-32.5-38.9
		c2.3-11.8-1-21.5-5.6-31.8c-15.7-35.3-24.1-72.8-28.1-111c-1.1-11.1-2.5-25.5,14.9-28.4h0c0,0,0,0,0,0c0.4,0,0.8,0.1,1.3,0.2
		c0.6,0.1,1.1,0.2,1.7,0.3c1.2,0.2,2.3,0.5,3.5,0.8c2.1,0.5,4.1,1,6.2,1.3c1.5,0.2,2.9,0.4,4.4,0.3h0c1.1,0,2.2-0.1,3.3-0.3
		c3.8-0.8,7-2.5,9.8-5c0.1-0.1,0.2-0.2,0.3-0.3c0.9-0.5,1.7-1.1,2.3-1.7c5.4-5.6,1.1-16.5,7.5-21.5c0.1-0.1,0.2-0.1,0.3-0.2
		c0.9-0.7,2.1-1.2,3.4-1.6c6.4-8,13.1-15.9,8.5-27.3c-7.5,1.7-15,3.4-23.3,5.3c1.4-11.1,0.2-21.4-10.6-25.1
		c-10-3.5-18.2,2.8-25.5,9.5c-8.5,7.9-12.4,17.4-11.6,29.1c0.5,6.8,1.4,13.6-4.8,19.7c-11,10.8-14.9,25.1-14,40.2
		c2.6,42.1,12.3,82.5,29.9,120.9c3.7,8.1,7.6,15.2,1.9,25.1c-9.8,16.7-5.5,32.5,9.4,44.2c11.1,8.8,11,17.4,3.2,27.8
		c-16.4,21.8-22.5,46.2-21.4,73.5c1.5,33.6,41,74.1,65.1,78c29.7,4.8,59.5,8.1,89.8,8.5c38.9,0.5,77.5-1.9,116.2-4.5
		c22.2-1.5,43.6,4.5,65.5,4.1c38.1-0.7,76.2,0.8,114.4-3.3c26.8-2.9,54,1.5,81.1,2.7c72.7,3.1,145.1-1.4,216.9-14.8
		C921.9,961,927.1,951.7,918.4,931.2z M577,801.3c4-1.6,5.6,2.5,4.8,5.7c-1.7,6.6-3.6,13.8-10.5,16.7c-3.8,1.6-5-2.3-4.8-6.9
		C569.1,811.8,570,804.1,577,801.3z M378.2,801.3c2.6-1.1,4.9,1.3,4.4,4.3c-1.2,7.4-3.2,14.5-10.3,18.4c-3.4,0-5.4-1.5-4.9-4.4
		C368.8,812.2,370.3,804.5,378.2,801.3z"/>
	<path class="st1" d="M718.7,250.7c-2.9,137.2-100.1,236.1-234,236.3c-132.2,0.2-233.4-96.9-234-231.6
		C250.1,122.4,350.8,19.4,484,20.2C624.9,21,711.4,119.8,718.7,250.7z"/>
	<path class="st2" d="M672.3,519.2c-0.2,5.2-0.4,10.4-0.6,15.6c4.4,9.2-1.7,16.5-4.5,24.4c-2.8,5.2-5.8,10.3-9.7,14.8
		c-9.7,11.4-21.8,15.1-36.2,11.3c-22.9-9.9-26.5-17.2-18.4-37.4c1.4-1.5,3.1-2.3,5.2-2.2c13.3,5.5,13.3,5.5,22.2-14.5
		c-8.1,3.5-8.4,19.8-22.4,13.7c-4.1-7.7-1-13.3,5.2-17.9c9.1-11.4,20.2-19.6,34.2-24.1C662.2,498.1,670.9,502.9,672.3,519.2z"/>
	<path class="st3" d="M207.6,550.9c3.8-9,7.5-17.9,11.3-26.9c9.7-6.4,16.4-16.3,28.4-20.6c17.3-6.1,25.6,0.3,30.5,15.7
		c4,5.2,2.8,10.8,1.3,16.4c-1.5,8.3-4.7,16-8.5,23.5c-0.8,1.7-1.8,3.3-2.8,4.9c-2.8,3.9-5.5,7.9-8.5,11.7
		c-10.6,11.2-23.4,13-37.6,8.9C202.2,572.7,200.5,568.6,207.6,550.9z"/>
	<path class="st2" d="M418.1,524c9.2-6.3,15.7-15.8,26.5-20.3c16.2-6.8,24.8-2.6,28.5,15.5c3.1,4,4.3,8.5,4.1,13.5
		c-0.6,8.5-3.3,16.4-7.3,24c-0.9,1.6-1.9,3.2-3,4.7c-3.2,4.6-6.1,9.4-9.9,13.5c-9.5,10.8-21.3,14.1-35.1,10.1
		c-22.8-12.7-25-17.1-19.5-37.4C406.5,539,411.6,531.1,418.1,524z"/>
	<path class="st3" d="M359.4,570.3c-3.8-6.5-7.6-13-11.4-19.6c-1.8-1.3-3-3.1-3.8-5.2c-1.9-6.7-1.1-12.9,3.1-18.6
		c1.7-3.4,2.8-7.2,5.1-10c7.7-9.4,17.6-15.6,29.9-12.8c14.3,3.3,12.3,15.9,12.7,26.7c4.5,4.2,4.5,9.7,4.7,15.2
		c-1.6,9.3,0.3,19.2-4.3,28.1c-1.6,2.7-3.7,4.8-6.6,6.2c-6.8,2.7-13.3,0.7-19.8-1.4c-1.8-0.6-3.5-1.3-5.1-2.2
		C361.5,575.3,359.8,573.2,359.4,570.3z"/>
	<path class="st4" d="M554.7,570.2c-2.5-3.9-4.9-7.9-7.4-11.8c-4.2-2.9-5-7.4-5.5-12c-0.4-6.9,0.1-13.7,4.6-19.4
		c1.1-1.5,2.7-2.9,3.3-4.5c4.6-13,15-20.1,27.4-17.9c12.5,2.2,16.1,14.4,17,26.3c4.5,4.1,4.5,9.7,4.7,15.1c-1.6,9.3,0.6,19.3-5,27.9
		c-1.9,2.5-4.2,4.6-6.9,6.1c-4.6,2.2-9.5,2.4-14.4,1.3c-3.6-0.9-6.8-2.5-10.1-4.3C559.2,575.6,556.9,573,554.7,570.2z"/>
	<path class="st5" d="M546.4,527c-0.2,6.9-0.4,13.8-0.6,20.7c-24.5-3.3-49.3-4.6-73-12.4c0.1-5.4,0.2-10.7,0.3-16.1
		C498,517.4,522.2,522.8,546.4,527z"/>
	<path class="st6" d="M347.2,527c0,6.8-0.1,13.5-0.1,20.3c-24.7-2.1-49.2-4.7-73.1-11.6c1.3-5.5,2.5-11,3.8-16.5
		C301.4,517.3,324.2,523.3,347.2,527z"/>
	<path class="st7" d="M395.5,547.7c-0.2-5.6-0.4-11.2-0.5-16.8c7.7-2.3,15.4-4.6,23.1-6.8c-1.6,8.7-6.8,15.7-11.1,23.1
		C403.1,547.1,399.5,550.7,395.5,547.7z"/>
	<path class="st8" d="M594.2,547.3c0-5.5-0.1-11-0.1-16.5c5.6-4.2,12.3-3.5,18.7-3.9c-2.8,6.4-4.6,12.9-3.3,20l0.1-0.1
		c-1.4,0-2.7,0-4.1,0C601.8,548,598.2,550.8,594.2,547.3z"/>
	<path class="st9" d="M594.2,547.3c3.8,0.1,7.4-5.1,11.4-0.5c-7.4,16.9-1.5,27.9,15,34.3c3.6,17.5-3,34.2-3.5,51.4
		c-5.1,24-2.8,47.8,3.1,71.3c2.9,9.9,4.8,20.3,10.5,29.2c11.3,17.7,25,19.3,40.1,4.8c7.1-6.8,12.3-15.1,17.1-23.6
		c16.6-29.8,27.7-61.6,31.9-95.3c2-16.4-1.1-32.5-18-41.6c-11.7-8.5-26.8-10.3-38.2-19.4c2.7-7.8,5.5-15.5,8.2-23.3
		c32.9-3.2,63.2,6.6,92.4,19.6c42.9,19.1,59.5,53.7,50.4,102.2c-8.7,46.4-28,89-49.8,130.5c-14.8,28.1-31,55.7-38.8,87
		c-1.5,6-3.9,12-1,22.3c9.5-18.8,17.9-34.7,25.6-50.9c4-8.4,7.9-11.8,17.8-7.1c47.3,22.2,92.2,47.8,127.9,87
		c4.7,5.2,11.4,10.5,7.9,18.3c-3.1,7-11.3,5.1-17.5,6c-63.7,9.4-127.7,14.3-192.2,10.9c-19.4-1-38.9-1.8-58.2-4.3
		c-49.2-6.3-76.6-48.7-64.3-98.4c1.6-6.3,4.3-12.2,6.5-18.4c6.9-19.3,17.1-32.2,41-31.2c16.5,0.7,33.4-3.8,49.9-7.1
		c16.8-3.3,31.3,7.7,47.8,6.9c-7.3-16.8-25.1-24.1-46-21.7c-23,2.7-45.2,11.8-69,7c-22.7-4.6-33.4-20.3-26-41.8
		c3.7-10.8,2.5-19.5-2.5-29.5c-17.4-34.6-25.8-71.9-30.7-110.1c-2-15.7,2.6-29.4,11.9-41.9c3.3,0.3,6.6,0.4,8.4,3.9
		c-1.1,27.6-0.7,55.1,4.5,82.4c4.2,22.5,11.9,43.9,19.4,65.4c1.5,4.4,3.5,8.5,9,9.5c6.2-4.9,3.6-11.9,3.9-18
		c1.9-37.8-0.5-75.4-7.2-112.7c-1.6-8.9-4.3-17.8-2-27.1C596,565.5,593,556.1,594.2,547.3z"/>
	<path class="st10" d="M328.5,605.7c5.3,32.6,11.3,65,22.9,96.1c2.7,7.3,5.1,14.8,8.9,21.6c4.9,9,8.1,17,1.6,27
		c-4.7,7.2-6.4,17.5-1.8,24.4c9.4,14,1.3,24.3-4.2,35.6c-12.9,26.1-27.5,51.6-26,83.3c9.9-19.5,19.8-39.1,29.6-58.6
		c-4.3,22.6-10.4,44.2-4.5,67.3c5.8,22.8,18.5,40.8,38.5,57.4c-56,4.4-109.1,3.4-161.3-5c-48-7.7-70.4-53.9-54.5-104
		c1.4-4.3,3.6-8.4,5-12.7c6.4-19.4,16.9-29.6,40.2-29.8c32.6-0.3,65.1-14.3,99.4,3.8c-8.8-20.4-27.1-28-48.4-25.4
		c-22.9,2.9-45.3,11.8-69.1,6.8c-21.3-4.4-32-20.2-25.4-40.8c3.6-11.4,1.8-20.7-3.3-31.3c-17.8-36.6-26.4-75.9-30.7-116.1
		c-2.1-19.8,8.5-32.6,22.3-30.3c1.4,1.6,1.9,3.4,1.6,5.5c-9.3,33.4,0,65.7,7.3,97.8c4.2,18.4,6.9,38.1,21.6,55.5
		c12.4-31.7,5.7-62.2,5.9-92.2c2.1-4.7,4.2-9.3,10.4-9.5c6.3,5.4,5.7,14.4,10.6,20.5c2,4.7,2.1,9.5,1.1,14.4
		c-3.3,9.3-0.1,18.7-0.5,28.1c-2.8,12.1,1.2,23.2,6.4,33.7c11.7,23.3,31,24.9,46.9,3.8c24.3-32.4,36.5-69.8,43.9-109
		C324,617.3,322.5,610.3,328.5,605.7z"/>
	<path class="st9" d="M359.4,570.3c1.7,1.3,3.4,2.5,5,3.8c-3.6,31.8,1.5,62.9,8,93.8c4.5,21.6,11.5,42.2,21.4,63.7
		c9.1-6.8,6.4-15,7.1-22c1.7-18.6-3.1-37.7,3.4-56c1.3-1.8,3.1-2.5,5.3-2.2c6.5,4.5,4.8,13.1,9.4,18.5c4.7,8.3,4.3,17.3,3.2,26.3
		c-1.1,13.6,4.6,25.5,10.8,36.8c9.6,17.2,24.3,19.5,38.1,5.1c16.4-17,26.9-37.8,35.6-59.8c7.6-19.1,8.3-40.7,21.2-57.8
		c9.7,38.2,16.1,77.5,35.6,112.6c-12.2,22.8,3.5,48.4-6.6,71.2c-8.7,19.6-20,37.9-26.2,58.6c-2.4,8.1-5.3,16-3.2,26.5
		c9.3-8.1,11.4-19,16.5-28c5-8.9,9.3-18.1,16.1-26.6c-6.9,21.6-13,43-7.5,65.4c5.5,22.7,17.3,41.9,36.7,57.3
		c-7.1,5.3-14.3,2.8-20.8,3.2c-43.6,3-87.1-0.1-130.3-4.5c-47.2-4.8-76-47.3-65.6-94.3c1.7-7.6,5-14.7,7.4-22.1
		c7.1-21.7,19.5-31.7,44.7-32.1c31.9-0.5,63.6-12.9,96,1.2c-11.4-18.6-27.1-25-47.6-22.5c-23,2.8-45.3,11.5-69.1,7.1
		c-23.1-4.3-33-19.5-26.2-41.9c3-9.7,2.7-18-2.1-27.6c-17.9-35.8-27.3-74.2-31.7-113.7C342.5,594.7,346,580.4,359.4,570.3z"/>
	<path class="st11" d="M222.3,652.1c-14.4-1.4-4.8-13-8.2-19.1c-5.9-18.8-5.2-36.4,8.6-51.9c13.9,2.8,26.3,0.5,35.9-11
		c24.2-4.9,45.3,12.8,46.9,40.6c2.5,41.3-9.9,79.2-24.8,111.1c15.6-29.2,33.4-63.4,34.4-103.3c0.7-26.8-5.2-35.2-29.8-46.2
		c-7-3.1-15.4-3.3-20.6-10.1c0.6-1.4,1.2-2.9,1.8-4.3c24.8-7,55.9,11.5,61.3,36.4c0.2,3.8,0.4,7.6,0.7,11.4
		c-1.7,47.4-18.4,89.7-44.5,128.5c-18.8,27.9-43.4,26.1-57.1-4.6c-4.8-10.8-11.1-22.3-6.1-35.2c4.4-0.7,8.1,3.3,12.6,2
		c11.1-9.6,8.2-21.7,6.2-33.6c-1.6-4.8-4.7-8.5-8.5-11.6C227.1,643.9,225.6,655.2,222.3,652.1z"/>
	<path class="st11" d="M527.9,620.5c-8.5,38.7-19.8,76.3-42.8,109.4c-8.9,12.8-18.4,25.2-35.2,23.3c-17.2-2-23-17.5-27.6-31.7
		c-2.4-7.3-8.1-14.5-3.9-23.1c5.4-1.5,12.1,4.5,16.4-2.8c4.9-8.5,6.9-17.4,3.7-27.1c-3.3-6.5-0.2-19.1-14.5-14.6
		c-3.2,2-6.2,4.7-10.3,2.1c-4.7-7.7-5-16.2-5.1-24.8c-0.5-12.1-0.2-24.2,3.1-35.9c1.6-5.8,1.8-13.1,10.2-14.2
		c13.9,3.1,25.7-0.4,35.3-11c14.7-6.9,25.1,1.1,34.1,11c10.5,11.6,15.4,25.9,13.5,41.5c-4.2,33.5-8.8,67-25.4,97.4
		c16.1-28.5,29.2-58.1,33.8-90.9c4.6-32.5-0.9-42.9-30.3-56.9c-6.5-3.1-16.1-2.5-18-12.5c-0.4-0.8-0.2-1.3,0.6-1.7
		c29.6-8.5,57.2,12.4,61.6,47C527.3,610.1,527.6,615.3,527.9,620.5z"/>
	<path class="st12" d="M207.3,640.5c3.7,28.8,3.9,57.7-0.1,86.5c-0.8,5.9-0.8,12.8-7.4,14.2c-7.2,1.5-9.7-6-11.7-10.8
		c-17.4-42.1-26.5-86.2-28.2-131.7c-0.3-7.8,1.8-15.4,8-21c3.3-1,5.4,0.8,5,3.6c-5.1,40,0.8,78.6,14.6,116.3c1.5,4,1.8,8.7,1.2,14.1
		c1.7-3.7-0.1-7.6,2.7-10.2c6.3-5.9,7.3-13.6,7-21.7c-0.8-8.8,2.4-18-3-26c-5.5,2.7-3.1,9.1-6.1,12.8c-2.3,3.2-4.1,7.5-9.5,5.2
		c-7.7-24.3-8.4-49.4-8.1-74.5c0.1-10.7,5.1-17,16.1-18c2.7-1.9,5.3-3.8,8-5.6c6.8,0.7,7.9,6.3,8.8,11.2
		C207.7,603.3,212.7,621.6,207.3,640.5z"/>
	<path class="st13" d="M527,604.9c-8.8-29.6-28-44.1-61.6-47c2.5-7.6,5-15.1,7.5-22.6c25.5-2.7,49.8,1.5,73,12.4
		c0.5,3.6,1,7.1,1.5,10.7C534.5,571.2,527.5,586.6,527,604.9z"/>
	<path class="st13" d="M327.9,594.2c-13.8-23.3-35-34-61.3-36.4c2.5-7.4,4.9-14.8,7.4-22.2c25.6-3.7,49.7,1.6,73.1,11.6
		c0.2,1.2,0.5,2.3,0.8,3.4C346.3,567.5,331.1,578.1,327.9,594.2z"/>
	<path class="st14" d="M207.3,640.5c-4.4-22.2-3.9-45.3-11.8-66.9c3.7-7.1,2.1-15,3.6-22.4c1.4-6.6,5.2-9.6,8.4-0.3
		c-5.1,15.2,2.4,24,15.2,30.2c-6,16.8-5.6,34.6-8.6,51.9C211.8,635.5,209.6,638,207.3,640.5z"/>
	<path class="st15" d="M194.9,702.5c-7.8,6.3,1.5,13.2-1.8,23.8c-20-50-29.8-98-25.3-148.6c0-1,0-1.9-0.1-2.9
		c6.6,1.5,13.2,2.9,19.9,4.4c-5.8,4-12,7.2-11.9,16.1c0.3,25.7-1.4,51.5,7.3,76.4c6.6,3.2,7.5,9.8,9.3,15.8
		C193,692.5,197.3,696.9,194.9,702.5z"/>
	<path class="st16" d="M166.3,558.5c-11.9-13.8-12.3-24.8,1.8-38.3C164.9,534,171.6,544.8,166.3,558.5z"/>
	<path class="st17" d="M382.6,805.5c-1.2,7.4-3.2,14.5-10.3,18.4c-3.4,0-5.4-1.5-4.9-4.4c1.4-7.3,2.9-15,10.7-18.2
		C380.8,800.2,383.1,802.5,382.6,805.5z"/>
	<path class="st17" d="M581.8,807c-1.7,6.6-3.6,13.8-10.5,16.7c-3.8,1.6-5-2.3-4.8-6.9c2.5-5.1,3.4-12.7,10.4-15.5
		C581,799.7,582.7,803.8,581.8,807z"/>
	<path class="st11" d="M484.6,37.7c119.7-0.1,215.5,95.7,215.5,215.4c0,119.2-96.3,215.7-215.4,215.8C366,469,269,372,269.1,253.2
		C269.2,133.7,365.1,37.8,484.6,37.7z"/>
	<path class="st11" d="M612.4,632.5c1-17.4,0.3-35,8.2-51.3c13.9,3,25.6-0.6,35-11.4c28.2-3.1,50.8,20.4,47.7,51.7
		c-3.6,35.6-10.4,70.6-25.7,99.4c13.3-23.5,25.3-51.3,32.3-81.3c4.7-20.2,7-39.8-6.4-57.9c-2-2.6-2.4-6-0.5-9.2
		c20.8,7.5,23.9,26.5,22.2,43.2c-4.6,43.7-19.8,84.4-45.7,120.4c-18.4,25.6-42,23.2-55.2-5.2c-3.5-7.5-5-16-7.4-24
		c-1.2-3.4,0.9-5,3.5-6.3c16.9-7.8,19.3-16.4,12.3-44.5c-3.8-9.6-13.3-4.3-19.5-7.5C610.2,643.5,611.2,638,612.4,632.5z"/>
	<path class="st18" d="M703,572.6c19.4,21.1,18.2,45.3,11.7,70.8c-9.8,38.6-29.8,80.1-48.8,95.5c12.2-26.5,22.7-53.7,27-82.4
		c2.5-16.9,9.3-33.6,4.4-51.5c-5.9-21.7-20.8-31.6-41.6-35.2c2.6-3.9,5.2-7.8,7.8-11.8C678.6,557.6,690.8,565,703,572.6z"/>
	<path class="st19" d="M609.5,547c10.3-7.6,14.5-21.9,29.5-28c-3.7,10.4-7,18.6-9.4,26.9c-1.6,5.6-1.3,12.3-9.3,12.4
		c-7.2,0.1-9.6-5.3-10.7-11.4C609.7,546.9,609.5,547,609.5,547z"/>
	<path class="st20" d="M264.8,562.2c1.9,0.2,3.9,0.1,5.8,0.5c45.6,10.8,58.6,31.9,47.8,77.7c-10,42.5-26.2,76.5-49.5,99.4
		c5.9-14.7,12.7-29.2,17.6-44.2c5-15.3,7.9-31.2,12.1-46.8c3.9-14.7,4-30,1.4-44.4c-3.8-21.7-20-32-41.4-34.3
		C260.7,567.5,262.7,564.8,264.8,562.2z"/>
	<path class="st21" d="M242.8,516.8c-4.7,14.4-8.1,24.1-11,33.8c-1.8,5.9-4.7,9.6-11.1,7.1c-7.5-2.9-7.1-8.4-3.3-14.2
		C223.4,534.4,229.7,525.5,242.8,516.8z"/>
	<path class="st22" d="M464.8,559.6c6.5,2.8,12.8,6.4,19.6,8.4c38.1,11.2,38.2,33.8,33.7,63.6c-5.3,34.4-18.6,65.9-37.5,95.1
		c-2.5,3.8-4.5,7.9-11.3,9.5c2.6-7.4,4.1-14.2,7.2-20.3c13.7-27,18.2-56.7,23.1-85.9c5.1-30.8-10-58.4-42.3-59.8
		C459.7,566.6,462.2,563.1,464.8,559.6z"/>
	<path class="st23" d="M421.9,581.2c-7.6,16.4-7.6,34-8.2,51.5c-4.2,6,1.3,13.9-3.9,19.7c-1,0-2,0-3,0c-6.1-3.9-8.5-10.4-8.6-16.7
		c-0.3-20.8-5.7-41.1-6.2-61.9c5.4-8.1,2.2-17.4,3.5-26.1c3.8,0,7.4-5.6,11.5-0.6C400.1,563.7,406,574.6,421.9,581.2z"/>
	<path class="st21" d="M440.5,517.6c-4.1,12.9-7.5,22.4-10,32.1c-1.8,6.9-5,10.8-12.1,7.7c-6.2-2.7-5.9-8-3.1-13
		C421,534.4,428.1,525.8,440.5,517.6z"/>
	<path class="st24" d="M392,573.8c14.3,24.4,7.5,52.8,14.8,78.6c-0.3,23.9-0.4,47.9-0.8,71.8c-0.1,7.2-0.8,16.1-8.9,17.4
		c-7.4,1.1-9.3-8-11.7-13.6c-16.8-39.6-23.7-81.7-28.4-124c-1.1-9.6,4.7-19.9,7.3-29.8c1.4-0.2,2.6,0.2,3.6,1.1
		c3.2,1.6,5.2,4.2,4.3,7.8c-8.8,34.5,2.3,67.2,9.1,100.3c0.6,3-1.9,14.7,9.2,8.6c4.9-8.5,6.2-17.7,6.8-27.2
		c0.8-12.3-5-13.6-14.6-9.4c-23.8-13.2-7-37-13.8-55.1c-3-8.1,4.6-19.7,17.3-21.3C388.2,577.1,390.1,575.5,392,573.8z"/>
	<path class="st25" d="M394.3,697.2c-7.5,6.7-12.6,9-15.8-4.4c-9.1-38.8-17.3-77.5-10.6-117.6c6.1,1.2,12.2,2.4,18.3,3.6
		c-11.3,8.4-16.7,18.4-12.7,33.3c2.3,8.6,1.6,18.1,1.3,27.1c-0.2,8.7,2.3,13.9,11.9,13.4c7.6-0.6,7.4,5.6,5.7,9
		C386.3,674.1,390.1,685.5,394.3,697.2z"/>
	<path class="st26" d="M366,520.2c0.8,10.6,1.7,18.8,2.1,27.1c0.2,3.5,1.3,8.5-3.8,9.3c-4.7,0.7-6.2-4.1-7.5-7.4
		C352.4,537.9,354.7,528.3,366,520.2z"/>
	<path class="st27" d="M590.7,573.7c12.4,32.6,13.2,67,14.7,101.2c0.8,16.9-0.2,33.8-0.7,50.7c-0.2,6.7-1.5,14.7-8.5,16
		c-7.9,1.5-10.2-7.6-12.3-12.9c-12.7-32.7-22.1-66.3-25.7-101.5c-1.8-18.3-3.7-35.9,4.8-53c3,0.1,5.9,0.3,7.4,3.5
		c-9.6,47.5,6,91.9,16.1,134.6c-0.8-1.9-2.3-6.1-2.4-10.7c13.2-14.4,15.7-35.4,6.3-52.5c-1.4,0.1-2.7,0.5-3.8,1.4
		c-2,2.7-3,6-4.7,8.8c-2.9,3.3-7.9,8.7-8.9,0.7c-2.4-19.7-6.2-39.4-6-59.3c0.1-11.2,4.7-21.3,18.6-22.2
		C587.4,576.9,589,575.3,590.7,573.7z"/>
	<path class="st28" d="M586.2,698.1c2.3,9.2,4.6,18.4,6.9,27.7c-13.1-14.3-15.7-33.3-20.4-50.6c-5.7-20.8-7.1-42.9-10.2-64.4
		c-1.7-12,1.7-22.9,7.9-33.1c5.1,0.3,10.2,0.5,15.3,0.8c-13,5.2-16.4,17.8-14.4,28.3c3.5,17.9,1.9,35.8,3.3,55.9
		c2.9-4.8,4.4-7.4,5.9-10C591.7,666.6,588.4,682.4,586.2,698.1z"/>
	<path class="st29" d="M566.6,515.3c-1,13.5-4.2,22.8-0.2,32.2c1.3,3.1,1.5,8.4-3.5,9.3c-4.6,0.9-6-4-7.6-7.2
		C548.7,537,555.7,528,566.6,515.3z"/>
	<path class="st30" d="M612.4,632.5c1.7,5.2-1.4,11.7,4.2,15.9c4.1,4.3-0.1,11.5,5.3,15.4c1.9,1.7,3.8,3.4,4.3,6.1
		c-5.9,10.4-0.2,22.5-4.9,33c-1.5,1.4-2.9,2.8-4.4,4.1C607.8,682.6,606.3,657.8,612.4,632.5z"/>
	<path class="st31" d="M230.5,648.5c9.1-2.2,11.4,3.4,12.3,10.6c4.5,15.9-0.7,29.9-8.5,43.4c-7.6,2.4-12.3,0.1-13.5-8.2
		c0.9-9.2-4.6-18.6,0.6-27.7C230.1,663.4,226.3,653.9,230.5,648.5z"/>
	<path class="st32" d="M230.5,648.5c6.1,10.6,5.8,18-9.1,18.2c0.3-4.9,0.6-9.7,0.8-14.5C224.5,649.8,225.1,643.7,230.5,648.5z"/>
	<path class="st33" d="M438.2,698.6c-6.8,12.4-13.3,5.1-19.8-0.3c0-8.9,1.1-18-2.5-26.6c-4.3-2-1.7-3.7,0.1-5.5
		c10.3-3.2,12.4-9.2,5.9-18c13.8-5.2,17.8-1.4,20.6,19.7C449,679.3,431.8,687.3,438.2,698.6z"/>
	<path class="st34" d="M418,667.7c-0.7,1.3-1.4,2.7-2.1,4c-9.9-4-4.5-12.8-6.1-19.4c1.8-6.5-1.8-14,3.9-19.7
		c2.1,7.7-2.9,16.7,4.3,23.5C421.3,660,421.3,663.8,418,667.7z"/>
	<path class="st35" d="M234.3,702.5c0.1-15,11.4-27.8,8.5-43.4C246.4,674.8,252.6,691.1,234.3,702.5z"/>
	<path class="st36" d="M438.2,698.6c-3.5-0.5-8.7,0.2-10.1-1.8c-2.9-4.3,0.9-10,4.1-11c9.5-3.1,9.3-10.6,10.4-17.9
		C446.8,679,445.8,689.3,438.2,698.6z"/>
	<path class="st37" d="M418,667.7c0-3.9-0.1-7.8-0.1-11.6c1.3-2.6,2.7-5.2,4-7.9c5.9,0.3,13.4,0.7,10.8,8.8
		C431,662.6,430.3,674.7,418,667.7z"/>
	<path class="st38" d="M188.3,691.8c-1.8-6.7-3.5-13.3-5.3-20c1.2-2.7-0.6-7.2,4.5-7.5c7.4-5.4,3-13.6,5-20.3
		c20.5,7,7.9,23.6,10.5,35.8C198.2,683.9,197.3,692.8,188.3,691.8z"/>
	<path class="st39" d="M188.3,691.8c5.9-2.8,6.1-12.6,14.7-12c-0.1,8.5,5.4,19-8.1,22.8C192.7,698.9,190.5,695.4,188.3,691.8z"/>
	<path class="st40" d="M192.5,643.9c2.9,7.9,12.8,17.6-5,20.3C189.9,657.7,181.8,648.5,192.5,643.9z"/>
	<path class="st41" d="M582.3,180c7.9-0.5,15.8-1.2,22.9,3.5c24,15.2,34.9,64.8,19.4,88.5c-7.1,11-18.1,14.1-30.3,14.5
		c-13.6,0.4-27.2,0.3-40.7,3.4c-18.6,4.2-29.6,15.1-32.4,34.1c-2.9,19.3-7.1,38.3-11.2,57.4c-8.2,38-26.3,51-65.3,46.8
		c-2.6-0.3-5.1-0.4-7.6,0.7c-15.1,0-19.2-11.4-22.7-22.7c-6.3-20.2-5.8-40.9-3.5-61.7c2.3-20.8-5.1-30.7-25.8-32.7
		c-12.2-1.2-24.6,0.5-36.9,0.4c-32.3-0.3-42.9-10.4-46.6-42c-2.3-19.8,0.1-38.8,6-57.6c8.6-27.3,20-35.4,48.5-33.3
		c11,0.8,21.8,3.3,32.8,4.4c14.3,1.4,21.9-5.8,23.3-19.9c1.7-16.1,2.7-32.3,5.4-48.3c4.6-27.1,20.4-40.6,48.1-41.4
		c18.7-0.6,37.7-1.5,53.8,11.1c8.7,6.9,9.1,16.5,9.2,26.5c0.1,11.1-1.3,22-2,33.1c-1.6,27.5,9.6,38.7,36.5,36.1
		C569.7,180.3,576.2,184.2,582.3,180z"/>
	<path class="st42" d="M437.2,428.9c10-2.3,19.9-6.1,29.9-6.5c22.7-1,32.1-15.4,36.3-34.4c5-22,8.5-44.4,12.2-66.7
		c3.9-23.7,17-34.7,48-39.5c2.6-0.4,5.2-0.1,7.8-0.4c18.1-2.4,43.9,9,50.6-16.6c6.9-26.5,8.9-55.6-14.8-78c-0.9-0.9-1.4-2.2-2.1-3.3
		c6.2-1.3,10.9,3.2,16.4,4.4c21.7,10.6,36.6,51.6,31.9,87.6c-2.9,22-15.5,33.2-44.1,39.8c-13.5,3.1-27.1,2.3-40.7,3
		c-18.1,0.9-22.8,5.5-23.7,23.7c-0.9,18.1,0.6,36.3-4.3,54.2c-8.7,31.9-21.1,42.1-54.1,41c-10.2-0.3-20.7-0.5-30.7-3.3
		C449.6,432.2,443.4,430.5,437.2,428.9z"/>
	<path class="st43" d="M455.7,433.8c14.2-0.5,28.3,0.2,42.5-2.7c26.6-5.4,31.5-10.2,37.2-37c3.7-17.3,3.5-34.7,3.5-52.2
		c0.1-24.1,5.2-29.6,29.5-30.7c16.8-0.8,33.7,0.9,50.2-4.1c22.4-6.8,30.6-15.6,29.7-39.1c-1-29.1-2.3-58.7-26.8-80.1
		c8.9-1.2,17,1.5,23.9,6.4c19.9,13.9,29.7,62.3,20.1,96.6c-7.4,26.3-22.7,37.5-54.9,40.4c-43.2,3.8-43.2,3.8-48.6,46.1
		C554,439.6,519,458.2,455.7,433.8z"/>
	<path class="st44" d="M526.7,88.8c21.7,5.5,31.8,20.4,34.9,41.7c2.4,16.6,3.4,33.7,12.7,48.6c-25,10.5-39.4,3.1-40-23.3
		C533.8,133,528.8,111.1,526.7,88.8z"/>
	<path class="st45" d="M526.7,88.8c12.5,19.7,10.2,42.2,12.2,64c2.6,28.8,6.5,31.4,35.4,26.3c2.6,0.3,5.3,0.6,7.9,0.9
		c-3.8,4.6-9.6,3.2-14.4,4.8c-30.7,10.2-49.6-4.1-46.3-44c1.5-18.7,4.3-37.2-2-55.5C522,86.4,524.4,87.6,526.7,88.8z"/>
	<path class="st46" d="M621.2,702.9c-1.7-11.9-13.1-24.8,3.3-35c0.2-6.5,3-11.8,7.4-16.4c1.7-0.9,3.3-0.6,4.6,0.9
		c6.6,11.8,7,24.6,4.1,37.2C638.6,699,634.7,708.7,621.2,702.9z"/>
	<path class="st47" d="M636.6,652.4c-1.4,0-2.9,0-4.3,0c-7.2,3-10.1,9.5-13.2,15.9c-10.9-5.4-3.9-13-2.5-19.9
		C625.1,640.6,631.7,642.2,636.6,652.4z"/>
	<path class="st48" d="M394.3,697.2c-13.6-8.7-16.2-20.3-7.1-33.3c3.5-5,5-7.7-0.4-11.4c-0.8-5.4,0.8-8.5,7-8.2
		c6.2,0.3,7.1,5.7,7.6,9.4C403.9,668.9,402.1,683.6,394.3,697.2z"/>
	<path class="st49" d="M586.2,698.1c-6.6-14.6-4.6-30.2-5.7-45.5c2.1-3.3,2.5-7.9,7.1-9.4c-0.8,4,2.3,7.3,1.8,11.3
		c0.6-4-2.4-7.3-2-11.2c12.2,2.9,19.9,23.3,12.6,37.4c-2.7,5.3-10.9,8,0,12.6c0.2,0.1-0.8,4.9-2.3,6.7
		C593.1,705.8,590.2,698.7,586.2,698.1z"/>
	<path class="st40" d="M619.1,668.3c-1.8-10.4-4.8-21.9,13.2-15.9c-0.4,6.2-2.9,11.5-7.7,15.5C622.8,668.1,620.9,668.2,619.1,668.3z
		"/>
	<path class="st50" d="M395,200.5c-12.8,9.6-25.3,18.4-37.1,28.1c-10,8.3-16.5,19.7-22.9,31c-2.8,4.9-3.1,15.3-11.7,12.3
		c-6.5-2.3-3.9-11.2-4.1-17.4c-0.1-3.8,0.6-7.7,1.1-11.6C325.8,198.5,351,183.8,395,200.5z"/>
	<path class="st51" d="M430.6,147.4c2.7-10.1,0.9-24.4,8.2-36.6c7.4-12.4,17.7-20.5,33-20.6c6.1,0,13,0.5,15.7,5.6
		c3.3,6.2-4.8,8-7.9,11.6c-13,14.7-20.6,33-32.2,48.5c-2.9,3.9-6.3,10-12.1,8C429.6,162.1,429.9,155.7,430.6,147.4z"/>
	<path class="st52" d="M427.8,328.8c16.9,26.5,19.1,51.3,16.3,77.1c-0.3,2.7-3,6.3-5.4,7.2c-4.1,1.6-7.8-1.8-9.1-5.4
		C420.1,383.3,417.5,358.5,427.8,328.8z"/>
	<path class="st53" d="M587.5,643.3c5.2,7.2,10.7,14.3-0.6,23.4c-4.6-8.7-1.7-16.1,0.8-23.5C587.7,643.2,587.5,643.3,587.5,643.3z"
		/>
</g>
</svg>
