<?xml version="1.0" encoding="utf-8"?>
<!-- Generator: Adobe Illustrator 23.0.1, SVG Export Plug-In . SVG Version: 6.00 Build 0)  -->
<svg version="1.1" id="Layer_4" xmlns="http://www.w3.org/2000/svg" xmlns:xlink="http://www.w3.org/1999/xlink" x="0px" y="0px"
	 viewBox="0 0 1000 1000" style="enable-background:new 0 0 1000 1000;" xml:space="preserve">
<style type="text/css">
	.st0{fill:#010000;}
	.st1{fill:#F26507;}
	.st2{fill:#020101;}
	.st3{fill:#FCFCFC;}
	.st4{fill:#DA3600;}
	.st5{fill:#8BB3CA;}
	.st6{fill:#7D0000;}
	.st7{fill:#FEBD62;}
	.st8{fill:#7D7D7D;}
	.st9{fill:#575757;}
	.st10{fill:#FEFE65;}
	.st11{fill:#DA3601;}
	.st12{fill:#565656;}
	.st13{fill:#650023;}
	.st14{fill:#090405;}
	.st15{fill:#630122;}
	.st16{fill:#F5A25A;}
	.st17{fill:#F7A25B;}
	.st18{fill:#393939;}
	.st19{fill:#7C7C7C;}
	.st20{fill:#3A3A3A;}
	.st21{fill:#0E0101;}
	.st22{fill:#D34914;}
	.st23{fill:#D23605;}
	.st24{fill:#7B7B7B;}
	.st25{fill:#20698A;}
	.st26{fill:#555555;}
	.st27{fill:#E48045;}
	.st28{fill:#080000;}
	.st29{fill:#0E0507;}
	.st30{fill:#FE7536;}
	.st31{fill:#130000;}
	.st32{fill:#B7380E;}
	.st33{fill:#1D0204;}
	.st34{fill:#770000;}
	.st35{fill:#84BAD5;}
	.st36{fill:#84A4B8;}
	.st37{fill:#5E0122;}
	.st38{fill:#750101;}
	.st39{fill:#FC9B57;}
	.st40{fill:#4E0505;}
	.st41{fill:#7FA4B9;}
	.st42{fill:#759FB6;}
	.st43{fill:#4E0100;}
	.st44{fill:#96ADBC;}
	.st45{fill:#77A9C4;}
	.st46{fill:#9BBBCE;}
	.st47{fill:#7FA6BC;}
	.st48{fill:#2C170F;}
	.st49{fill:#400518;}
	.st50{fill:#6B0303;}
	.st51{fill:#848484;}
	.st52{fill:#200203;}
	.st53{fill:#942A0A;}
	.st54{fill:#8FC0D9;}
	.st55{fill:#320605;}
	.st56{fill:#FBFBFB;}
	.st57{fill:#8AB1C8;}
	.st58{fill:#FAFAFA;}
	.st59{fill:#7C0000;}
	.st60{fill:#7B0000;}
	.st61{fill:#D93701;}
	.st62{fill:#7B7C7C;}
	.st63{fill:#8AB1C7;}
	.st64{fill:#D63604;}
	.st65{fill:#F7A158;}
	.st66{fill:#525252;}
	.st67{fill:#EC934F;}
	.st68{fill:#333434;}
	.st69{fill:#390F06;}
	.st70{fill:#377C9B;}
	.st71{fill:#181418;}
	.st72{fill:#A13813;}
	.st73{fill:#3B0D06;}
	.st74{fill:#4F7B91;}
	.st75{fill:#444443;}
	.st76{fill:#387B99;}
	.st77{fill:#361B11;}
	.st78{fill:#DE8848;}
	.st79{fill:#D47039;}
	.st80{fill:#FEA259;}
	.st81{fill:#31120E;}
	.st82{fill:#838383;}
	.st83{fill:#44809B;}
	.st84{fill:#050605;}
	.st85{fill:#FAF9F9;}
	.st86{fill:#88B0C7;}
	.st87{fill:#F9F9F9;}
	.st88{fill:#7C0101;}
	.st89{fill:#7B0100;}
	.st90{fill:#D43604;}
	.st91{fill:#787979;}
	.st92{fill:#535354;}
	.st93{fill:#E89856;}
	.st94{fill:#686868;}
	.st95{fill:#B8350F;}
	.st96{fill:#578499;}
	.st97{fill:#E23B06;}
	.st98{fill:#B6380E;}
	.st99{fill:#321317;}
	.st100{fill:#E48453;}
	.st101{fill:#131011;}
	.st102{fill:#EC8749;}
	.st103{fill:#172F3B;}
	.st104{fill:#240607;}
	.st105{fill:#2F0202;}
	.st106{fill:#DF6C2E;}
	.st107{fill:#638697;}
	.st108{fill:#140501;}
	.st109{fill:#F8A75C;}
	.st110{fill:#286B89;}
	.st111{fill:#1D6889;}
	.st112{fill:#286B8A;}
	.st113{fill:#49829F;}
	.st114{fill:#33718D;}
	.st115{fill:#6999B2;}
	.st116{fill:#6D0303;}
	.st117{fill:#367896;}
	.st118{fill:#759AAC;}
	.st119{fill:#6F99B0;}
	.st120{fill:#D93601;}
	.st121{fill:#5F0121;}
	.st122{fill:#100909;}
	.st123{fill:#331A18;}
	.st124{fill:#1E0D0A;}
	.st125{fill:#060003;}
	.st126{fill:#2C1511;}
	.st127{fill:#251B18;}
	.st128{fill:#2E1410;}
	.st129{fill:#2D2527;}
	.st130{fill:#5E0221;}
	.st131{fill:#1B0707;}
	.st132{fill:#2B6986;}
	.st133{fill:#060001;}
	.st134{fill:#79A2B5;}
	.st135{fill:#221A1E;}
	.st136{fill:#22617E;}
	.st137{fill:#96B8C7;}
	.st138{fill:#47788D;}
	.st139{fill:#241615;}
	.st140{fill:#303030;}
	.st141{fill:#260E0E;}
	.st142{fill:#150509;}
	.st143{fill:#391512;}
	.st144{fill:#00111D;}
	.st145{fill:#0C0707;}
	.st146{fill:#3E190B;}
	.st147{fill:#000508;}
	.st148{fill:#0F0A0A;}
	.st149{fill:#270606;}
	.st150{fill:#151515;}
	.st151{fill:#1F1010;}
	.st152{fill:#F39350;}
	.st153{fill:#D8783B;}
	.st154{fill:#130001;}
	.st155{fill:#F0944E;}
	.st156{fill:#D25825;}
	.st157{fill:#050505;}
	.st158{fill:#808899;}
	.st159{fill:#600023;}
	.st160{fill:#0C080C;}
	.st161{fill:#461512;}
	.st162{fill:#150003;}
	.st163{fill:#1E0300;}
	.st164{fill:#1D1217;}
	.st165{fill:#1A0706;}
	.st166{fill:#1A0C16;}
	.st167{fill:#37738E;}
	.st168{fill:#2A2D2D;}
	.st169{fill:#351E1C;}
	.st170{fill:#565655;}
	.st171{fill:#2A0000;}
	.st172{fill:#0B1111;}
	.st173{fill:#1C0202;}
	.st174{fill:#340607;}
	.st175{fill:#101415;}
	.st176{fill:#170E0B;}
	.st177{fill:#2B120E;}
	.st178{fill:#2A140E;}
	.st179{fill:#262728;}
	.st180{fill:#171717;}
	.st181{fill:#464847;}
	.st182{fill:#131313;}
	.st183{fill:#410705;}
	.st184{fill:#DA3502;}
	.st185{fill:#E4763D;}
	.st186{fill:#330909;}
	.st187{fill:#E13600;}
	.st188{fill:#230A12;}
	.st189{fill:#060404;}
	.st190{fill:#4F5150;}
	.st191{fill:#7B7C7B;}
	.st192{fill:#E43900;}
	.st193{fill:#801700;}
	.st194{fill:#211619;}
	.st195{fill:#545556;}
	.st196{fill:#C23D14;}
	.st197{fill:#630123;}
	.st198{fill:#4B050C;}
	.st199{fill:#4C061D;}
	.st200{fill:#2D030C;}
	.st201{fill:#646464;}
</style>
<g>
	<path d="M625.6,535.2c-10.9,21.3-2,36.2,15.1,49.2c15.9,12.1,18.3,25.6,8.2,44.5c-27.8,51.9-61.2,97.7-113.7,127.6
		c-14.6,8.3-29.4,13.9-45.4,16.7c-10.8,1.9-18.9,5.5-23.3,16.3c-18.9,45.9-48.5,84.1-89.2,111.8c-36.7,25-73.9,47.7-122.4,49.3
		c-38.1,1.3-74.4-0.2-110.5-11.3c-1.8-0.5-4.1-2-5.3-1.4c-17.7,9.1-35.2,3.4-48.3-6.5c-19-14.5-43.4-32.6-41-57.1
		c3.8-39.6-16.3-75.4-9.1-116c3.9-22.1-0.5-47.7,8.1-70.1c26.9-70.5,71-126.8,140.6-159.9c15.1-7.2,23.2-14.5,27-33.3
		c9.9-49.4,43.3-84.6,80.8-116.4c18.6-15.8,40.9-24.8,60.8-38.1c20.4-13.7,30.3-13.7,45.4,7.2c14.4,20,29.2,23.6,49.9,14.8
		c15.8-6.3,30.8-1.7,45.7,3.3c11.1,4.3,21.3,10.2,31.2,16.7c9,7.5,17.7,7.5,28.3,1.8c17.1-9.2,31.3-6.8,42.1,5.4
		c11.2,12.7,12.4,26.6,2.6,40.6c-11.4,16.3,3,25.9,9.4,37.7c5.4,9.6,9.4,19.7,12.8,30.1C629.3,510.4,630.3,522.8,625.6,535.2z"/>
	<path class="st0" d="M429.7,175.1c-11.4,8.9-10.9,19.5-3.4,30.1c7,9.8,3.4,16.6-4.4,23.2c-32,27.2-65.4,50.9-110.7,44.9
		c-9.4-1.2-15.4,3.1-21.9,9.2c-44,41-113.3,53.8-168.9,15.5c-11.8-8.2-27.2-8.5-37.3-20.9c-12.5-15.2-19.4-29.7-11.9-49.5
		c5-13.4,6.6-28.1,11.4-41.6c20.9-58.7,64.5-90.1,124.6-99.6c8.6-1.4,14.6-4.3,19.4-10.4c25.5-32.6,61.5-45.2,100-52.1
		c11.3-2,20.2,5.1,25.2,16.3c3.6,8.1,7.8,16.6,19.3,15c10.3,2.6,20.2,6,28.4,13c4.1,3.3,6.6,8.1,10.5,11.6
		C449,93.1,449,93.1,434.5,134c0.5,6.5,3.1,12.6,3,19.2C437.1,161.3,434.1,168.5,429.7,175.1z"/>
	<path class="st1" d="M500.1,370.5c-15.7-2.1-30.7-8.9-47-7.8c36.9-21,77.8-32.8,116.6-49.5c60.4-26.1,121.8-49.7,182.8-74.3
		c0.9-0.4,2.4,0.4,5,1c-9.2,22.1-17.7,44.2-27.3,65.7c-33.7,75.8-67.8,151.5-101.8,227.3c-0.5,1-1.8,1.6-2.7,2.4
		c-1.6-12.8-3.1-25.7-4.7-38.5c3.7-29.1,20.7-52.9,32.4-78.6C674,372.7,694.2,327,718,279.3c-25.6,8.8-47.4,19.1-69.3,28.9
		c-44.4,19.8-89.3,38.5-133.6,58.8C510.3,369.2,505.2,369.6,500.1,370.5z"/>
	<path class="st2" d="M956.4,386.7c1.6,4.6-1.1,9.7,7.8,12.5c14.6,4.6,19.5,18.3,15.1,32.7c-7.7,24.7-16.3,49.3-37.9,66.3
		c-4.5,3.6-8.2,7.4-7.9,14.4c2,52.5-42.8,94.5-90.7,103.9c-12.2,2.4-23.6,12-38.8,2.9c-19.5-11.7-28.6-30.6-37.4-48.4
		c-21.4-43.1-15.7-84.1,18.5-119.6c3.6-3.8,4.6-7.5,3.7-12.2c-7.6-39.3,10.4-67.9,38.3-92.6c5-4.4,7.7-2,11.5,0.7
		c9.7,7,17.6,3.3,24.8-4.3c6.7-3.4,12.7-9.1,21.3-6.8c11.8,5.3,18.9-9.3,30-7.2c13.3,3.8,17.7,14.9,21.6,26.3
		c2.7,5.4,7.1,9.4,11.2,13.6C953,373.6,954.3,380.3,956.4,386.7z"/>
	<path class="st1" d="M398.4,70.7c-10.4-2.8-18.2-10.2-27.3-15.4c64.1-4.3,128.3-8.5,197.8-13.1c-22.4,22.5-40.3,43.6-61.4,60.8
		c-27.5,22.5-49.8,50.4-77.8,72.1c-1.8-8.3,3.1-15.3,4.5-22.9c3-8.1,8.5-14.3,14.5-20.4c22.1-22.6,47.5-41.4,69.1-64.5
		c-27.9,4-57.7,3.1-87.3,6.3C419.4,74.8,408.6,76.9,398.4,70.7z"/>
	<path class="st1" d="M956.4,386.7c-3.8-5.2-7.7-10.4-11.5-15.5c-3.6-6.4-4.8-13.2-4.7-20.5c0.1-24.5,3.8-48.6,6.1-72.6
		c-13.2,14.8-27.2,30.6-40.9,46.7c-5.4,6.3-10,13.7-19.2,15.2c-8.1-2.6-15,4-22.9,3.1c30.9-31.2,58-65.9,93.1-97.5
		C956.4,294.1,956.4,340.4,956.4,386.7z"/>
	<path class="st3" d="M331.3,699.4c-25.7-24.8-50.6-50.4-82.1-68.2c-40.1-22.7-82-31.4-127.1-17.3c-3.6,1.1-7.4,1.7-16.2,3.7
		c51.1-57.1,106-96.1,181.2-97.6c38.5-1.4,72.3,11,102.5,34.4c9.7,7.6,19.8,14.8,24.1,27.2c-3,45.9-26.5,82.1-55.8,115.2
		C350.9,704.7,340.9,706.4,331.3,699.4z"/>
	<path class="st4" d="M249.7,789.6c-22-27.3-47.3-50.6-80.4-63.8c-11.9-4.7-24.4-7.8-36.7-11.7c-9-1.8-18.1-2.6-27,0.4
		c-1,0.6-2,0.8-3.2,0.6c-4.2,2.3-7.8,1.9-10.2-2.7c16.6-36.3,28.7-76.7,76.9-84.3c4.8-1.3,10.5,0.7,14.5-3.8
		c65,7.9,109.4,46.4,145,97.9c3.5,12.2-3.9,20.9-9.8,30.2c-10.3,16.4-25.4,27.5-40.9,38.2C268,797.5,258.7,798.3,249.7,789.6z"/>
	<path class="st5" d="M331.3,699.4c14.5,2.7,23.9-3.9,32.3-15.5c22.6-31,41.3-63.6,47.1-102.2c12.2,0.3,16.3,8.8,19.1,18.6
		c0.8,5.3,0.7,10.9,3.7,15.8c3.1,5.7,5.2,11.9,8.1,17.7c6.3,14.5,10.4,29.5,12.5,45.1c0.3,6.7,0,13.4,2.3,19.9
		c0.9,3.6,1.4,7.3,1.5,11c0.1,5.8,0.8,11.7-1.2,17.2c-3.1,8.8,4.2-0.3,4.3,2.7c3.3,3.5,0.3,8.7,3.3,12.3
		c-11.7,56.7-44,100-88.9,136.2c15.6-41.4,7.3-80.8-5.1-120.1c0.6-1.6,1.2-3.1,1.9-4.7c0-10.4-1.9-20.5-4.1-30.6
		c-2.1-4,0.8-10.2-5.8-12.6c-5.2,8.8,6.2,15,3.1,23.2c-1.1,2.8-3.1,4.5-6,5.2C349.9,725.6,340.6,712.5,331.3,699.4z"/>
	<path class="st3" d="M163.7,851.9c-13-18.3-29.7-29.8-53-31.2c-18.3-1.1-28.5,13.5-43.7,20.5c-9.5-25.2-12.1-50.7-7.7-76.5
		c3.1-18.7,24.7-34.7,49.4-37.3c51.1-5.5,87.3,20.7,118.5,56.9c9.9,19.8,9.1,26.5-6,42.7c-10.1,10.9-21.3,20.6-35.5,25.9
		C178.3,855.5,170.8,857.4,163.7,851.9z"/>
	<path class="st6" d="M249.7,789.6c12.2,4.7,22.1,0.4,32-7c21.2-15.9,38.6-34.4,46.8-60.3c18.2,15.3,28,35,31.2,58.3
		c4.2,10.9,2.5,23.6,10.5,33.2c0.6,10.1,3.1,20.3-2.5,29.8c1.2,12.6-9.9,22-8.7,34.6c-3.4,3.5-4.3,8.7-7.9,12.1
		c-24.2,32.5-58.8,41.4-96.7,43.1c-4-18.3,8.4-30.6,16.4-44.6c9-14.1,7.6-28.3,0.2-42.5c-7.7-8.9-9.1-20.3-12.6-30.8
		C261,805,251.6,798.6,249.7,789.6z"/>
	<path class="st6" d="M491.7,694.4c31.1-38.6,65.6-74.2,99.9-109.9c7.6-7.9,13.2-7.6,21.5-1.2c29.1,22.4,31.4,28.3,11.6,58.5
		c-15,22.9-28.7,47-50.2,65.2c-23.2,19.5-48.4,30.7-79.7,28.3c-15.4-1.2-20.3-4.4-11.9-18.8c1.5-2.6,1.3-6.3,1.9-9.5
		C487.4,703,488.9,698.3,491.7,694.4z"/>
	<path class="st7" d="M500.1,370.5c39.5-23.5,83.3-37.7,124.6-57.3c32.5-15.4,65.9-28.7,103.8-45C691.4,347,656.2,421.8,621,496.6
		c-3.9-9.2-7.9-18.4-11.8-27.6c-5.3-9.2,1.1-16.2,4.7-23.5c17.2-34.9,34.7-69.7,52.1-104.5c2.8-5.7,6.3-11.2,8.3-19.8
		c-41.7,19.2-81.7,37.4-121.4,56.1c-8.2,3.9-16,8.6-25.5,8.7C518.3,380.9,509.2,375.7,500.1,370.5z"/>
	<path class="st4" d="M374.5,354.7c16.3-5.2,17.8,11.7,26.4,17.9c12,8.5,11.7,16.3,0.1,26.9c-35.3,32.1-69.4,65.5-104,98.3
		c-9.6,9.2-22.1,10.5-34.3,10.7c-12.5,0.2-9.7-9.1-8.6-16.8c1.3-1.2,2.4-2.6,3.2-4.2c18.2-49.2,51.5-86.5,92.1-118.1
		C356.3,362,366.5,360.2,374.5,354.7z"/>
	<path class="st8" d="M363.5,452.4c20.3-21.2,38-41.2,59.4-56.7c28.4-20.6,57.8-14.2,86,1c29.1,15.7,28.7,16.3,4.2,37.7
		c-1.9,1.7-3.7,3.6-5.6,5.4c-23.2,23.5-45,45.8-81.6,18.5C410.1,446.5,387.2,451.9,363.5,452.4z"/>
	<path class="st5" d="M163.7,851.9c30.1-0.3,47.8-19.6,63.8-41.5c6.5-8.9-0.6-17.4-0.3-26.2c12.9,10.7,19.5,25.7,27.3,39.9
		c24.1,24.8,21.8,70-4.8,92.8c-6.4,5.9-12.4,12.4-21.9,13.2c-5,1.3-10.1,3.7-13.7-2.5c2.7-8,9.8-5.8,14-7.8
		c-2.6-1.6-6.4,1.9-10.5,1.9c-7.9,1.4-15.8,1.9-23.7,1.4c-18.2,2.5-15.6-14.8-22.3-23.3c-1.6,0.1-2.9-0.4-4-1.4
		C172.2,882.4,169,867,163.7,851.9z"/>
	<path class="st9" d="M593.8,484.4c16.9,32.4,17.1,63.3-8.8,91.4c-15.2,16.5-30.9,32.5-48.3,48c6.2-33.8-4.6-63.3-17.3-92.4
		c6.3-23.3,22.8-38.4,42.2-50.4C572.2,474.4,583.9,475.2,593.8,484.4z"/>
	<path class="st10" d="M527.5,386.1c48.9-29,102.9-47,155.4-70.4c-24.6,51.1-49.2,102.3-73.8,153.4c-14.5-13.6-25.1-26.9-7.2-46.5
		c9.3-10.2,3.1-21.9-5.2-30.6c-10.5-11-24.6-14-35.9-4.1C547.5,399.7,538.1,396.5,527.5,386.1z"/>
	<path class="st11" d="M581.6,406.7c9.1,6.2,2.9,11.3-1.1,16.9c-28,39.5-63.2,72.5-96.5,107.2c-7.7,6.8-14.9,14.1-23.3,20
		c-2.6,2.6-5.2,5.2-7.8,7.8c-4.8,6.9-10.4,12.7-18.2,16.6c-6.7,3.3-12.9,6-19.4,0.1c-6.5-5.9-8.8-12.5-3.6-20.4
		c1.2-1.4,2.5-2.6,4.1-3.7c13.6-5.9,19.5-19.5,29.3-29.3c35.4-32.2,67-68.4,104.5-98.2C559.5,416.1,568.5,407.6,581.6,406.7z"/>
	<path class="st12" d="M121,925.8c-18.7-0.1-54.3-35.2-55.1-54.4c-0.7-15.7,11.5-24.1,26-16.6c18.3,9.3,32.8,23.5,42.9,41.3
		C143.4,911.3,135.9,925.9,121,925.8z"/>
	<path class="st12" d="M398.4,504c-12.7-4.8-25.7-8-39.1-10.1c-6.9-1.1-16.4,0.4-15.9-11.9c0.5-11.2,6.7-15.3,16.9-17.5
		c23.9-5.2,47.2-4.3,70.4,3.9c29.1,10.2,29.8,11.9,10.7,35.6C427.1,499.2,412.8,493.4,398.4,504z"/>
	<path class="st13" d="M304.4,516.1c-1.9-0.3-3.9-0.3-5.7-0.9c-1.3-0.5-4.2-1-0.9-3.3c25.8-18.2,104.9-6,123.9,19.2
		c-2.6,9.4-7.5,17.3-14.6,24c-7.4,4.3-14.6,1.4-19.9-2.9c-22.3-18-48.6-26.4-75.9-32.6C308.7,519,306.4,517.8,304.4,516.1z"/>
	<path class="st14" d="M304.4,516.1c27.6,1.9,53.1,9.6,76.2,25.6c7.4,5.1,14,16.7,26.3,9.2c4.7-2.8,7.8-2.5,7.4,4
		c-2.3,7.1-2.4,12.9,4.8,18.2c7.8,5.7,11.6-1.1,16.6-3.8c6-3.2,11.7-7.2,17.5-10.8c0.1,2.7,0.1,5.4,0.2,8.1c1.3,1.4,1.8,3,1.7,4.9
		c-16.1,11.5-14.3,23.1-2.4,37.5c7.2,8.7,12.8,19.6,12.9,32c-0.1,3.8-0.7,7.4-3,10.6c-8.9,3.7-10.4-4.9-14.7-8.8
		c-2.3-3.7-4.1-7.7-6-11.7c-2.3-4.4-3.9-9.1-6.8-13.2c-4.1-5-7-10.7-8.9-16.9c-2.3-8.7-8.1-14.6-15.2-19.4
		c-29.6-33.3-66.3-53.2-110.7-58.5c-4.4-0.5-8.7-2-13-3.1C292.8,518.6,299.5,521.5,304.4,516.1z"/>
	<path class="st12" d="M515.4,640.2c-11.5,7.2-18.4,7.5-20-9.3c-2-21.5-9.5-41.6-20.4-60.4c-3.2-5.5-8-11.5,1.7-15.7
		c26.2-7.6,39.9-0.6,45.1,25.4C525.8,600.5,525.1,621,515.4,640.2z"/>
	<path class="st15" d="M461.3,640c-2.5-15-10-28-19.4-38.9c-11-12.7-10.2-20.1,5.5-26c2.3-0.9,4.1-2.9,6.2-4.5
		c9-5.2,11,3.3,15.1,7.6c3.5,7.5,9.1,14.2,8,23.2c6.1,9.6,0.5,22.1,7.6,31.4c0,14.2,0,28.5,0,42.7c-2.8,2.9-1.1,9.4-7.3,9.5
		c-5.5,0.1-7.1-4.2-8.5-8.4c-1.2-3.5-1.4-7.3-2.7-10.8C462.9,657.4,466.9,647.9,461.3,640z"/>
	<path class="st16" d="M351.8,371.5c-40,33.2-71.9,72.7-93.6,120.1c-6-30.2,8.4-53.2,26.4-74.8c8.3-9.9,18.3-18.2,27.6-27
		c10.1-9.6,21.1-17.8,34.1-23.1C351,365,352.3,367.2,351.8,371.5z"/>
	<path class="st17" d="M581.6,406.7c-41.9,27.9-76.8,63.7-112.3,98.9c-6.8,6.8-11.4,18-24,17c-1.1-0.8-1.4-1.5-0.9-2.1
		c0.4-0.6,0.8-0.9,1.2-0.9c35-44,76.5-81.4,120.8-115.7C572.4,399.3,577.2,402.4,581.6,406.7z"/>
	<path class="st18" d="M593.8,484.4c-29.5-10.2-44.9,9.9-60.8,28.5c-4.9,5.8-9.1,12.2-13.7,18.4c-9.4-4.9-7-9.9-1.1-16.5
		c15-16.7,29.7-33.8,44-51.2c7.7-9.4,14.1-13.2,20.7,0.6C586.2,471.1,592.9,476.1,593.8,484.4z"/>
	<path class="st19" d="M128.7,867.3c-13.5-9.4-25-22.3-42.9-24.7c1.2-7.1,7.3-7.7,12.2-9.8c6.4,1.7,12.8,2.5,19.1-0.5
		c16.3,3,29.2,10.5,35.8,26.6C149.9,876.2,139.3,871.8,128.7,867.3z"/>
	<path class="st20" d="M515.4,640.2c1.4-13.9,3.8-27.8,4-41.8c0.5-34.6-8.3-43.1-42.7-43.7c3.8-3.4,7.7-6.8,11.5-10.1
		c18.4-16.2,20.5-15.8,29.5,6.4c9.1,22.6,12.4,46.2,8.3,70.3C524.9,628.1,525.4,637.6,515.4,640.2z"/>
	<path class="st21" d="M249.6,916.9c19.1-30,19.7-61,4.8-92.8c1.3-2.8,2.5-5.7,3.8-8.5c10,6.7,8.6,19.8,15.5,28.2
		c4.5,15.6,10.3,31.2,0.1,46.9c-6.4,14.3-16.6,26.9-19.5,42.8C247.6,929.5,250.9,922.6,249.6,916.9z"/>
	<path class="st22" d="M183.5,624.4c-0.1,8.3-5.7,8.7-11.8,8.3c-36.2,0.6-69.6,7.4-89.8,42.2c-2,3.4-4,6.7-7.4,9
		c-1.9,0.8-3.7,0.6-5.3-0.5c4-21.6,14.6-37.7,35.6-46.7C130.1,625.7,155.6,617.6,183.5,624.4z"/>
	<path class="st23" d="M93.7,710.8c1.8,3.5,5.2,4,8.7,4.4c-11.6,6.5-24.3,10.9-34.7,19.7c-7.3,6.2-12.6,2.4-11.8-6.4
		c1.4-15.8,4.4-31.4,13.3-45.2c0,0,1.5,0.6,1.5,0.6C75.4,695.4,77.1,709.5,93.7,710.8z"/>
	<path class="st24" d="M398.4,504c11.2-15.4,29.7-15.4,43.1,0C427.1,531.6,412.8,507.2,398.4,504z"/>
	<path class="st25" d="M218.7,918.3c4.4-0.5,8.8-1.9,14.2,1.6c-6.4,2.5-12.1,4.6-17.7,6.8c-3,2.1-6.4,2.9-10,3
		c-9.3-0.3-19,1.9-27.6-3.7c-5.1,8.9-9.4-3.6-14.3-0.6c-4.3-2.8-7.5-5.9-3.2-11.1c0.2-1.3,0.4-2.6,0.6-3.9c4.6-2.9,7.4-7.5,10.1-12
		c2.1-2.8,4.2-5.7,6.4-8.7c8.5,8.6-7.7,28,14.3,29C200.6,920.7,209.7,921.2,218.7,918.3z"/>
	<path class="st26" d="M128.7,867.3c8.7-0.9,19.1,3,24.2-8.4c11.1,15.5,10,30.5-2.1,47.8C145.9,890.4,136.4,879.4,128.7,867.3z"/>
	<path class="st27" d="M312.2,389.8c-11,13.2-21.8,26.6-33.2,39.4c-15.9,17.9-20.1,39.5-20.8,62.4c-1.3,0-2.7,0.1-4,0.1
		C251.1,445,275.5,413.9,312.2,389.8z"/>
	<path class="st28" d="M367.7,843.8c-0.3-10.4-0.5-20.8-0.8-31.2c-2.7-4.1-3.1-8,0.7-11.8C378.3,811.5,378.3,832.8,367.7,843.8z"/>
	<path class="st29" d="M461.3,640c9.3,5.7,7.3,15,7.7,23.6c2.1,9.3,3.7,18.6-0.1,27.8l-1.5,0.1l-1.5,0c-8.8-7.8-7.4-18.9-9.2-29
		c0.3-3.3,1.2-6.2,3.6-8.7C460.6,649.2,460.9,644.6,461.3,640z"/>
	<path class="st30" d="M445.6,519.6c0.1,1,0,2-0.3,3c-5.8,13.6-11.9,27.1-28,31.7c-2.2-10.1,5.2-14.4,11.6-19.3
		C434.5,529.9,440.1,524.7,445.6,519.6z"/>
	<path class="st31" d="M468.8,691.4c0-9.3,0.1-18.5,0.1-27.8c3,2.7,3.5,6.3,3.8,10c1.2,15.9,6.9,5.6,11.5,1.9
		C483.4,685,487.5,699.3,468.8,691.4z"/>
	<path class="st32" d="M241.8,496.1c0.1,2.5,0.5,5,0.4,7.5c-0.2,5.2,2.4,13.1-6.9,11.9c-7.3-0.9-4.4-7.9-4-12.4
		c0.5-4.9,2.3-9.8,3.6-14.6C242.3,486.5,238.7,494.3,241.8,496.1z"/>
	<path class="st33" d="M429,535c-3.9,6.4-7.7,12.9-11.6,19.3c-1.1,0.1-2.1,0.3-3.2,0.6c-1.5-3-4.2-4.1-7.4-4
		c4.5-7,7.1-15.3,14.8-19.8C423.2,534.1,425.9,534.8,429,535z"/>
	<path class="st34" d="M499.9,753.8c-7.6,1.7-15,4.9-23.1,3.8c-3.6-3.8-3.1-7.5,0-11.3c6.4,0.1,12.8,0.2,19.2,0.3
		C498.5,748.3,502.4,749.4,499.9,753.8z"/>
	<path class="st35" d="M460.1,660.5c2.7,10.2,6.4,20.2,5.8,31c-0.5,1.2-1.1,2.5-1.6,3.7c-1.7,1.1-3.4,1.2-5.2,0.3
		c-9-6.8-4.1-17.6-7.4-26.1C452.5,664.5,453.8,660.1,460.1,660.5z"/>
	<path class="st36" d="M206.4,927.3c2.9-0.2,5.9-0.5,8.8-0.7c3.4,4,8.3,2.5,12.5,3.6c-15.9,4.8-31.8,5.8-47.6-0.5
		C188.6,925.4,197.7,929.3,206.4,927.3z"/>
	<path class="st37" d="M484.2,632.8c-15.3-7.4-4.5-21.1-7.6-31.4C486.1,610.2,484.2,621.7,484.2,632.8z"/>
	<path class="st38" d="M367.5,800.8c-0.2,3.9-0.4,7.8-0.7,11.8c-14.9-7.8-4.5-21.3-7.2-31.8C365.4,786.1,366.9,793.3,367.5,800.8z"
		/>
	<path class="st39" d="M351.8,371.5c-1.8-1.6-3.7-3.2-5.5-4.8c8.1-7.2,16.7-13.1,28.2-11.9C369.4,363.7,359.8,366.5,351.8,371.5z"/>
	<path class="st40" d="M460.8,550.8c6.1-8.6,12.7-16.6,23.3-20C480.5,542.2,471.3,547.3,460.8,550.8z"/>
	<path class="st41" d="M359.2,738.7c1.2-1.4,2.5-2.8,3.7-4.2c4.4-2.6,6.9,0.1,9.1,3.4c1,2.7,1,5.5,0.5,8.3c-1.2,2.7-3.2,4.6-6.3,5.1
		C362.4,747.9,359.8,743.9,359.2,738.7z"/>
	<path class="st42" d="M461.4,695.1c1,0.1,1.9,0.1,2.9,0.1c6.8,8.4,5.2,18,4,27.6c-1.9,1-3.5,0.7-5-0.7c-3.6-5.9-3.4-12.8-4.9-19.3
		C458.2,699.8,458.8,697.1,461.4,695.1z"/>
	<path class="st23" d="M105.5,714.5c8.9-5.6,18-5.2,27-0.4C123.6,714.3,114.6,714.4,105.5,714.5z"/>
	<path class="st43" d="M499.9,753.8c-1.3-2.4-2.6-4.9-4-7.3c5.4,0,10.8,0,16.9,0C509.7,752.5,505,753.5,499.9,753.8z"/>
	<path class="st44" d="M160.1,914.1c1.1,3.7,2.2,7.4,3.2,11.1c-4.1,0.8-9.1,3.1-10.8-2.9C150.7,916.2,156.5,915.9,160.1,914.1z"/>
	<path class="st45" d="M206.4,927.3c-8.4,4.8-17.5,1.3-26.3,2.4c-0.8-1.3-1.6-2.5-2.5-3.8C187.2,926.3,196.8,926.8,206.4,927.3z"/>
	<path class="st46" d="M464.8,722.6c1.1,0.1,2.3,0.1,3.4,0.2c-4.4,5.8-2.8,12.8-4,19.2c-4.1-3-3.1-7.6-3.4-11.7
		c-1.3-1.1-2.1-2.5-2.3-4.2c0.2-1.7,0.9-3.2,1.9-4.4C462.2,720.9,463.6,721.3,464.8,722.6z"/>
	<path class="st47" d="M170.8,898.2c1.6,8.2-1.9,12-10.1,12c1-4.7,2.3-9.2,6.8-11.9C168.6,898.2,169.7,898.2,170.8,898.2z"/>
	<path class="st48" d="M234.5,484.4c0.9-2.9,1.3-6.1,3-8.5c1.5-2.1,3.3-6.5,6.8-3.5c0.9,0.8-1.3,5.4-2.1,8.2
		C240,482.6,238.8,486.5,234.5,484.4z"/>
	<path class="st49" d="M468.6,578.2c-5.2-2.2-8.4-8.4-15.1-7.6c-0.1-1.3-0.2-2.5-0.3-3.8C461.9,565.8,468.1,568.1,468.6,578.2z"/>
	<path class="st50" d="M491.7,694.4c0.9,6-1.8,10-7,12.6C483.8,701,484.6,695.9,491.7,694.4z"/>
	<path class="st51" d="M117.1,832.3c-6.2,5.5-12.6,5.1-19.1,0.5C104.3,829.9,110.7,830.5,117.1,832.3z"/>
	<path class="st52" d="M351.1,890.4c0.6-5.4,0.8-10.9,7.9-12.1C359.6,884.5,357,888.5,351.1,890.4z"/>
	<path class="st53" d="M234.5,484.4c2.5-1.3,5.1-2.5,7.6-3.8c-0.1,5.2-0.2,10.3-0.3,15.5c-2.3-2.5-4.6-5-6.9-7.6
		C234.8,487.2,234.7,485.8,234.5,484.4z"/>
	<path class="st54" d="M366.4,751.2c1.5-1.7,3-3.4,4.4-5.1c4.8,2.3,7.2,5.7,4.9,11.2c-1.8,0.3-3.6,0.5-5.5,0.8
		C369,755.8,367.7,753.5,366.4,751.2z"/>
	<path class="st55" d="M476.8,746.3c0,3.8,0,7.6,0,11.3c-3-0.1-6.5,0.1-6.7-4C470,749.4,473.3,747.6,476.8,746.3z"/>
	<path class="st56" d="M176.5,124.7c-5.8-5.4-13.6-2.6-23.6-5.8c27.4-17.8,55.4-21.4,84.6-20.5c3.6,1.7,6.9-0.9,10.4-0.5
		c8.2,0.9,15.2,5.3,22.5,8.7c11.3,7.5,21.7,16,29,27.7c3,4.5,5.8,9.2,8.3,14c2.4,5.1,4.6,10.2,2.8,16.1c-14.9,22-33,39.8-60.1,45.8
		c-1.8-0.3-3.5-1-5-2c-4.4-4.3-6.1-10.4-9.8-15.2c-1.9-2.8-3.6-5.7-4.8-8.9c-1.7-4.6-3.4-9.2-6.2-13.4c-1.8-2.7-3.5-5.4-5.2-8.2
		c-2.1-3.4-4.7-6.4-7.6-9.2c-4.6-4.6-9.1-9.2-13.9-13.5c-3.7-3.2-7.9-5.3-12.2-7.4C182,130.5,178.2,128.8,176.5,124.7z"/>
	<path class="st57" d="M246.2,206.6c22-1.2,35.2-17.3,50.1-30.2c4.3-3.8,8-8.3,12-12.4c1.7-1.3,3.4-1.4,5.3-0.3
		c4,4.7,5.3,10.4,6.6,16.1c0.4,2.9,0.3,5.8-0.3,8.7c-4.7,9.2-6.6,19.2-7.7,29.4c-3.5,8,2.9,18.8-7.1,24.9c-8.6,27-32,38.9-53.8,52.3
		c-4.2,2.6-9.7,4.9-13.1-1.9c-2.6-7.1,4-12.1,4.1-18.6c0.3-1.6,0.8-3.1,1.4-4.6c1.2-2.9,2.7-5.6,4.8-8c1.1-1,2.4-1.9,3.7-2.7
		c3.3-5.3,0.8-11.5,3-16.9c1.5-4.8,2.2-9.7,2.3-14.8c-0.9-2.6,3.1-7.6-3.7-7.2c-1.6,0.2-3.1,0-4.7-0.6c-2.3-1.4-3.9-3.3-4.8-5.8
		C243.5,211.1,244,208.6,246.2,206.6z"/>
	<path class="st58" d="M120,226c-5.4-5-12.3-8.9-19-6.4c-16.6,6.4-15-1.6-12.2-13c3-12,6.6-23.4,16.8-31.4
		c9.9-9.5,21.4-6.9,32.9-4.1c1.8,0.4,3.6,1.1,5.3,1.8c7.3,4.1,12.3,11,19.4,15.3c3.9,2.9,6.9,6.5,8.9,11c3.1,8.4,7.8,16.2,8.3,25.4
		c-4.1,23.6-21,32.9-47.4,26.2c-7.7-4.1-8.7-12.9-13.2-19.2C119.3,229.8,119.3,227.9,120,226z"/>
	<path class="st59" d="M246,270.3c0.1,1.2,0,2.4-0.4,3.5c-6.5,6-7.7,17-18.2,19.3c-13.8,20.1-34.1,16.5-53.7,14.5
		c-9.5-1-7.8-7.6-5.5-14c0-5.1,3.4-8,6.8-11c7.1-4.1,7.9-10.8,7.6-18c0.1-6.3-0.4-12.5-2.1-18.6c-0.5-2.8-0.5-5.6,0.3-8.4
		c1.1-2.8,3-4.7,5.7-5.8c20.3-1.2,38.7-5.9,48.4-26.5c4-1.5,7.5-1.3,10.4,2.2c0,0,0.7-0.9,0.7-0.9c-0.1,2.6-0.1,5.2-0.2,7.8
		c0,5.8,1.7,11.6,1.3,17.4c0,5.9,0.1,11.8,0.1,17.7C247.5,256.5,245.5,263.3,246,270.3z"/>
	<path class="st60" d="M406.3,195.1c14.4,19.9,4.8,32.1-13,42.5c-17.2,10.1-33.6,22.4-54.9,19.8c-10.4-1.3-22.3-2.2-25.9-15.6
		c0.4-0.8,0.7-1.6,1-2.4c3-4.3,6.3-8.4,10-12.1c12.7-9.7,28.2-14.4,41.5-23.1c7.6-4.3,15.3-8.3,23.6-10.9
		C394.6,192.9,400.6,192.3,406.3,195.1z"/>
	<path class="st7" d="M398.4,70.7c41.8-2.9,83.5-5.8,129.6-8.9c-29.7,35.5-64.2,60.5-93.7,90.4c-0.3-6.7-7.2-12.1-3.9-19.6
		c16.7-19,33.1-38.4,53.4-49.5c-23.1-2.3-50.7,7.6-77.8-1C403.4,78.4,400.9,74.6,398.4,70.7z"/>
	<path class="st61" d="M315.9,43.4c4.4-0.4,8.9-0.8,13.3-1.2c7.6-0.8,11.4,2.8,14.1,9.8c4.4,11.6-5.3,13.8-11.1,18.7
		c-5.3,6-12.9,8.1-19.8,11.4c-19.8,7.9-37.9,22.2-61.3,17.2c-1.9-0.9-3.1-2.4-3.8-4.4c-2.1-9.1,4.4-14.5,8.9-20.8
		c10.7-12.2,25.5-18,39.4-25.2C302,45.9,309.6,47.1,315.9,43.4z"/>
	<path class="st62" d="M332.1,74.4c6.4-1.4,12.9-2.9,19.3-4.3c5.2-0.7,10.4,2.4,15.7,0.4c16.3,4.7,29.9,12.2,31.4,31.6
		c-5.1,5.2-11.4,8.6-18.3,10.9c-6,1.8-11.5,4.7-17.4,6.9c-3.6,1-7.2,1-10.8-0.3c-10.8-6.4-18.3-17-29.5-22.9
		c-5.1-5.1-16.3-7.7-7.5-18.5C320.7,77.2,326.3,75.1,332.1,74.4z"/>
	<path class="st63" d="M183.2,239.7c0.2,2,0.4,4.1,0.6,6.1c3.3,5.8,1.1,12,1.7,18.1c-1.1,8-1.9,16.2-9,21.8c-2.7,2.7-5.4,5.3-8.1,8
		c-4.1,1.2-8.2,2.4-12.2,3.5c-6.9-5.3-16.2-4.8-23.3-9.7c-5-3.9-8-8.4-4.8-14.9c0.2-6.1,0.4-12.3,0.6-18.4c-1.2-1-1.6-2.3-1.2-3.8
		c1-2.2,3.2-2.8,5.1-3.7c25.3,6.2,41.9-3.2,43.6-24.6c1.9-0.7,3.6-0.4,5.1,1.1C185.5,228.2,181,234.4,183.2,239.7z"/>
	<path class="st26" d="M389.4,195.3c-5.4,7.2-14.8,7.4-21.5,12.3c-3.9,1.7-5.5-0.7-6.7-3.8c-0.7-5.3,1.4-10.2,2.8-15.1
		c2.9-8.1,1.6-16.6,2-24.9c0.4-8.8,2.2-16.6,10.5-21.4c4.7-2.7,9.6-4.8,15-5.8c9,1.5,20.3-4.2,25.9,8.2c4,20.1-5.1,34.4-20.1,46.2
		C395.5,193.9,392.8,195.2,389.4,195.3z"/>
	<path class="st10" d="M406,82.2c27.6,2.4,54.8-6.8,87.7-3c-23,19.4-43.2,36.4-63.3,53.4c-3.9-4.8-4.5-9,2.5-11.3
		c12.5-4.1,10.8-15.2,6.9-22c-3.1-5.4-7.1-18.3-20.2-10.2C414,92.6,408.7,88.2,406,82.2z"/>
	<path class="st64" d="M425.6,108.5c-4.6,13.3-23.4,10.3-27.5,24c-1.5,2.4-3.9,3.6-6.6,4c-6.2,1-11.5,4.2-16.9,7.2
		c-11.2,5.9-22.4,12-34.7,15.5c-6.3,1.6-12.8,2.2-19.2,3.1c-1.9,0-3.8-0.4-5.5-1.2c-4.4-4.1-7-8.7-4.9-14.9c0.9-1.6,2.3-2.7,4.1-3.1
		c5.7,2,9.8-0.8,13.5-4.7c4.3-3,9.1-4.9,14.2-6c5.8-1,11.1-3.2,16.2-6c7.6-3.6,15.1-7.4,22.7-11.1c0.8-0.3,1.6-0.7,2.4-1
		c1.7-0.6,3.3-1.1,5.1-1.5c7-1.5,13.8-3.7,20.7-5.6C414.8,105.3,420.2,106.8,425.6,108.5z"/>
	<path class="st65" d="M112.8,150.9c12.4-18.4,30-24.6,51.3-22.1c5.2-1,9.7,0,12.5,5c-16.5,13.5-35.5,23.1-54.3,32.9
		C113,165.2,109.4,160.1,112.8,150.9z"/>
	<path class="st66" d="M113.3,257.4c-7.7,3.4,1.5,23.5-16,16.8c-10.8-4.1-20.6-29.5-15.7-38.5c4.7-8.8,10.7-3.8,16.4-1.4
		c0.8,0.3,1.6,0.6,2.3,0.8c5.9,4.8,8.5,12.1,13.5,17.6C114.4,254.4,114.2,255.9,113.3,257.4z"/>
	<path class="st67" d="M297.2,51.6c-12.8,7.9-25.7,15.9-38.5,23.8c-2.3,0.8-4.2,0.2-5.6-1.8c8.1-16.3,22.9-22.7,39.2-27.1
		C297.1,45.2,298.3,47.3,297.2,51.6z"/>
	<path class="st24" d="M129.2,251.2c0.2,1.1,0,2.1-0.7,3c0,0-1.6-0.1-1.6-0.1l-1.5,0.4c-5,2.6-8.5-0.8-12.4-3
		c-6.8-4.3-7.8-13.7-15.4-17.4c0,0,0.3,0.2,0.3,0.2c0.7-20.6,16.3-1.2,22.1-8.3c1.4,0.7,1.8,1.7,1.3,3.2
		C126.5,235.6,126.8,243.8,129.2,251.2z"/>
	<path class="st68" d="M391.1,133.2c2.3-0.2,4.6-0.4,7-0.6c10.8-2.9,21.8-5.9,19.3,12.2c-8.2-6-17.6-3.9-26.7-4
		C388.2,138.1,388.4,135.6,391.1,133.2z"/>
	<path class="st69" d="M141.3,175.2c-11.9,0.9-23.7-4.3-35.6,0.1c-1.4-2.4-2.7-4.9-4.1-7.3c7.2-6.4,15.5-1.5,23.3-2.2
		C132.8,164.6,142.3,160.7,141.3,175.2z"/>
	<path class="st70" d="M136.7,285.9c4.5,7.1,19.9-4.5,19.4,11.2c-7.4,3.8-13.6,0.3-19.7-3.4C134.4,291.1,134.3,288.4,136.7,285.9z"
		/>
	<path class="st71" d="M227.5,293.1c7.8-4.8,5.2-19.4,18.2-19.3c2.1,8.3-3.9,13.3-7.7,19.2C234.5,293,231,293.1,227.5,293.1z"/>
	<path class="st72" d="M125.2,166.7c-7.9,0.4-15.7,0.8-23.6,1.2c1.9-6.9,5.8-12.5,11.2-17.1c0.7,7.1,3.4,12.5,11.6,12.7
		c1,0.5,1.4,1.1,1.3,1.9C125.7,166.3,125.5,166.7,125.2,166.7z"/>
	<path class="st73" d="M249.7,93.3c0.4,1.2,0.9,2.3,1.4,3.4c-0.5,2.9-3,3-5.1,3.8c-2.8-0.7-5.6-1.4-8.4-2.1
		c3.8-7.6-2.6-19.3,9.3-23.8C252.9,80.1,245.5,87.6,249.7,93.3z"/>
	<path class="st74" d="M304.9,242.6c7-7.2-4.8-17,3.3-24.1c2.2,0,4.4,0.1,6.6,0.6c1.5,0.3,3,0.8,4.4,1.5c1.4,0.9,2.3,2.2,2.7,3.8
		c0,1.7-0.5,3.3-1.3,4.7c-3.5,3.9-4.2,9.4-8.3,12.9c0,0,0.2-0.2,0.2-0.2C309.9,242.1,307.4,242.4,304.9,242.6z"/>
	<path class="st75" d="M113.5,249.8c4,1.6,7.9,3.1,11.9,4.7c0.2,5.1,0.5,11.7-5.3,12.6c-5.1,0.8-4.4-6.4-6.8-9.7
		c-0.1-1.4-0.1-2.8-0.2-4.2C112.1,251.9,112.2,250.8,113.5,249.8z"/>
	<path class="st76" d="M136.7,285.9c-0.1,2.6-0.2,5.3-0.3,7.9c-3.8-1.8-7.6-3.7-11.4-5.5c-2.4-4.4-8.7-7.6-3.9-14
		c2.3-0.6,4.6-1.1,6.9-1.7C129.6,277.9,131,283.3,136.7,285.9z"/>
	<path class="st77" d="M386.7,116.6c-1.4-0.2-2.8-0.4-4.3-0.6c-2.9-1.3-4.7-3.1-3.4-6.6c6-3.9,12.3-6.7,19.5-7.3
		c0.1,1.6,0.2,3.2,0.4,4.7c0.7,1.7,0.2,3.1-1.1,4.3C394.3,113.5,390.2,114.5,386.7,116.6z"/>
	<path class="st78" d="M398.1,109.2c0.5-0.7,0.7-1.5,0.7-2.4c8.9,0.1,18.6-11.4,26.8,1.7c-6,0.4-12,0.8-17.9,1.2
		C404.4,111.3,401.2,111.9,398.1,109.2z"/>
	<path d="M175.5,132.9c-3.8-1.4-7.6-2.8-11.4-4.1c3.1-4.6,7.9-3.5,12.3-4c5.1-1.6,7,3.8,10.9,4.9c0.5,3.4-1.6,4.9-4.4,5.8
		C180.1,135.8,177.6,135.1,175.5,132.9z"/>
	<path class="st79" d="M249.7,93.3c-6.5-5.4-1.1-12.6-2.8-18.6c2.1-0.3,4.2-0.7,6.3-1c1.9,0.6,3.7,1.2,5.6,1.8
		C255.7,81.4,252.7,87.3,249.7,93.3z"/>
	<path class="st80" d="M297.2,51.6c-1.6-1.7-3.3-3.4-4.9-5.1c7.2-6,15.5-3.9,23.6-3.1C311.1,49.3,304,50.2,297.2,51.6z"/>
	<path class="st81" d="M332.1,74.4c-3.9,5.4-8.8,7.4-15.1,4.2c-1.6,1.2-3,1.1-4.3-0.5c5.5-5.1,12.3-6.8,19.5-7.5
		C332.3,71.9,332.3,73.2,332.1,74.4z"/>
	<path class="st82" d="M367.1,70.5c-5.4,5.3-10.6,5.3-15.7-0.4C356.8,65.5,362,68.2,367.1,70.5z"/>
	<path class="st83" d="M121.1,274.3c1.3,4.7,2.6,9.3,3.9,14c-5.2-1.1-10-3.7-10.9-8.9C113.6,276.6,117.7,274.6,121.1,274.3z"/>
	<path class="st84" d="M389.4,195.3c2.6-1.4,5.3-2.9,7.9-4.3c3.4,0.5,7,0.8,9,4.2C400.6,193.2,395,200,389.4,195.3z"/>
	<path class="st60" d="M318.1,260.2c-4.6,2.4-7.7,1-10.7-2.6C312.5,252.6,314.8,257.5,318.1,260.2z"/>
	<path class="st85" d="M781.3,492.3c-8.6,4.8-10.1,1-6.8-6.3c7.8-17.1,18-32.5,33.3-44c3.5-2.7,6.9-5.5,10.4-8.3
		c0.1-2.9,1.8-4.6,4.3-5.6c4.3-0.5,8.5-1.1,12.7-2.2c9.4-2,18.4,0,27.5,2.4c2,0.3,3.9,0.8,5.8,1.5c4,1.4,7.7,3.2,10.9,6
		c1.5,1.7,2.6,3.6,3.3,5.7c2.7,12.2,2.4,24.5,0,36.6c-2.2,11.3-7.9,19.1-20.8,18.8c-9.7-0.4-18.5-4.4-27.7-6.7
		c-7.8-1.1-15.7-0.7-23.5-0.8c-6.3,0-12.7-0.6-19,1.3C788.4,491.9,784.9,492.7,781.3,492.3z"/>
	<path class="st86" d="M858.5,491.4c12.7,3.8,17.7-3.2,19.6-14.2c2.2-12.8,1.6-25.7,0.5-38.5c6.1-5.2,9.9,0.1,14.2,3.1
		c7,8.4,11.8,18.8,21.5,24.9c4.4,4.8,7.9,10.4,13.1,14.5c1.7,1.9,3.2,3.8,1.9,6.5c-9.4,9.4-2.6,21.9-6,32.7
		c-3.3,10.2-3.7,21.3-11.1,30.4c-4.6-6.7-2.8-15.7-9.3-21.1c-5.9-1.8-8.9-7.2-13.1-11c-1.2-1.2-2.3-2.4-3.4-3.7
		c-5.5-7.2-13.7-9.8-21.8-12.4C860.5,499.9,856.7,497.2,858.5,491.4z"/>
	<path class="st87" d="M792.9,585.8c-18.1-8.1-18.2-23.2-15.2-39.4c-1.6-2.8-0.6-5.2,0.8-7.7c1.1-1.5,2.5-2.8,4-4
		c4.1-2.8,8.7-3.8,13.6-4.3c7.8-0.4,15.6-0.5,23.5-0.1c6.9,0.8,13.5,3,20.1,5c2.8,1.2,5,3,6.7,5.5c8.1,17.2-3.4,28.7-12,41.1
		c-1.5,1.2-3.1,2.1-5,2.6c-1.8,0.3-3.7,0.2-5.5-0.1C813.3,580.9,803,581.4,792.9,585.8z"/>
	<path class="st88" d="M902,535.6c1.2,21.1,5.3,43.5-23.2,51.1c-5.5-4.9-5.1-12.8-9.5-18.2c-2.1-5.7-6-9.7-11.6-12
		c-4.9-3.8-10.7-6.8-11.7-13.9c11.5-10.7,16.7-25.2,23.8-38.6c9.7-1,14.7,6.2,20.6,11.8l0.1-0.1C895.5,521.6,898.7,528.6,902,535.6z
		"/>
	<path class="st89" d="M929.3,487.6c-1-1.2-2.1-2.3-3.1-3.5c-5.7-7-6-15-4.2-23.4c1.7-6.3,6.4-11.4,7.3-18.1c0.4-1.7,1-3.3,1.7-4.9
		c2.9-4.9,5.8-9.8,4.5-15.9c0-1.6,0.5-3.2,1.2-4.7c3.8-4.1,8.2-7.5,12.9-10.5c15.6,5,21.3,21.9,13.2,41.3
		C955.9,464.7,946.6,479.6,929.3,487.6z"/>
	<path class="st7" d="M886.2,340c17.9-21.1,35.9-42.2,53.9-63.2c1.6-1.9,3.9-3.3,7.7-6.4c5.2,34.9-5.4,67.8-2.9,100.7
		c-5-2.7-8.8-6.5-11.5-11.5c-4.4-20-1.8-39.4,3.9-58.7c0.9-2.4-2.7-1.5-0.1-1.1c0.6,0.1,0.6,0.7,0.1,1.9
		c-4.9,12.1-10.6,23.4-23.1,29.6c-6.6-0.2-9.9,4.7-14,8.6C895.5,344.4,890.9,346.5,886.2,340z"/>
	<path class="st90" d="M822.4,429.5c-0.8,2-0.6,4.9-4.2,4.3c-4.4-1-10.2,2.2-12.6-4.3c0.1-8.8-2.7-17.7,1.1-26.3
		c1.9-7.6,5.1-14.8,8.8-21.7c2.8-9.9,7.3-19.6,18-21.8c6.5-1.3,13.5,2.5,14.1,11.4c0.5,6-2.7,11-4.3,16.4c-1.1,3.1-2.8,5.9-4.4,8.7
		c-2,3.6-3.2,7.5-4.7,11.3c-2.1,4.7-4.2,9.4-5.3,14.5C827.5,425.2,827.3,429.4,822.4,429.5z"/>
	<path class="st91" d="M850.3,371c5.3-9.4,12.8-14.7,23.9-17c17.9-3.6,21.5-1.5,20.8,16.6c2.7,3.9,1.4,7.4-1.3,10.6
		c-4.3,4.1-9,7.4-14.8,9c-6.4,1.4-13.1,1.3-19.5,3.4c-3.8,0.9-7.6,1.1-11.4,0.1c-2.8-1-5-2.7-5.9-5.7
		C842.4,381.3,846.1,376.1,850.3,371z"/>
	<path class="st92" d="M938,418c-0.2,1.2-0.3,2.3-0.2,3.5c2,5-0.9,8.6-3.4,12.4c-11.6,0-10.8-12.7-17.8-17.5c-1.1-1.4-2.1-3-3.1-4.5
		c-3.3-5.6-7.1-10.9-7.2-17.8c-0.1-2.9,0.4-5.7,1.1-8.5c4-6.9,2.4-18.1,14.5-18.6c13.4,8,22,19.1,23,35.2
		C943.8,408,944.6,414.6,938,418z"/>
	<path class="st10" d="M914.2,331.4c6.2-12,14.6-22.4,26.5-35.3c-2.7,23.8-5,43.7-7.3,63.6C928.3,349.3,926.5,336.8,914.2,331.4z"/>
	<path class="st66" d="M828.4,601.9c-0.7,7.8-4.9,12.2-12.7,10.1c-8.6-2.3-17.6-5.2-22.4-13.5c-3.6-6.2,4.6-5.9,6.6-9.2
		c8.2-6.3,15.9-2.5,23.6,1.3c2.4,1.5,4.4,3.5,5.7,6.1C829.9,598.6,829.6,600.3,828.4,601.9z"/>
	<path class="st93" d="M768.5,515.4c4.2-6.5,8.5-12.9,12.7-19.4c3.7-2.9,7.6-3.4,11.7-0.8c0.2,15.8-6.3,29.8-11.6,44.2l0.2-0.2
		c-7.7,3.7-13.4,3.4-14.1-7.1C767.2,526.4,767.1,520.9,768.5,515.4z"/>
	<path class="st94" d="M824.2,593.7c-8.1-1.4-16.2-2.9-24.2-4.3c-2.4-1.2-4.7-2.4-7.1-3.5c7.8-16,19.8-11.1,31.7-6.2
		C827,584.4,828.3,589.1,824.2,593.7z"/>
	<path class="st95" d="M910,351.4c0.7-2.5,2-4.4,4.9-3.5c3.9,1.2,2.2,4.8,2.7,7.4c0.2,8.5-3.7,16-6.1,23.9c-2.4,3.7-3,9.7-9.9,7.8
		c-4.7-4.7-2.5-11-3.9-16.5c-0.2-1.3,0.1-2.6,0.7-3.8C905.9,364.3,904.9,355.6,910,351.4z"/>
	<path class="st96" d="M869.9,592.7c-8.4,8.1-18.2,12.8-30,12.7c-3.7-4.4-3.6-8.6,0.8-12.5c10.8-0.4,19.6-10.4,31.3-6.9
		C873,588.8,873.6,591.4,869.9,592.7z"/>
	<path class="st97" d="M897.7,370.4c6.4,4.2,3.8,11,4.9,16.7c2.9,2.6,3.1,5.9,2.1,9.4c-0.7,1.6-1.8,2.8-3.3,3.7
		c-2.5,0.9-5,0.7-7.5-0.3c-2.2-1.4-3.8-3.2-4.7-5.7c-0.7-3.2-0.4-6.4-0.1-9.6c0.1-1.6,0.5-3.1,1.3-4.4c3.9-2.1,4.1-5.9,4.6-9.6
		C895.9,370.7,896.8,370.7,897.7,370.4z"/>
	<path class="st98" d="M768.5,515.4c3,8.7-7.3,24.7,13.1,23.8c-1.3,2.4-2.6,4.8-3.9,7.3c-12,8-12.5-6.4-13-9.3
		C763.6,530.1,761.2,521.4,768.5,515.4z"/>
	<path class="st99" d="M869.9,592.7c0.1-2.3,0.1-4.6,0.2-7c-4.4-5.8-5.3-12.2-3.8-19.1c1.5-1.5,3.2-1.6,5-0.6
		c8.5,4.7,7.3,12.9,7.5,20.6C878.4,592.5,875,593.9,869.9,592.7z"/>
	<path class="st100" d="M807.4,402.2c0.4,9.1,4.2,18.5-1.8,27.2c-4.6-8.9-7.6-17.9-1.8-27.5C805.1,400.2,806.3,400.2,807.4,402.2z"
		/>
	<path class="st101" d="M909.8,378.2c0.5-8.4,3.2-15.9,7.7-22.9c1.5,3.9,2.9,7.9,4.4,11.8c-7.2,4.9-5.7,14.7-11.5,20.4
		C907.7,384.5,908,381.4,909.8,378.2z"/>
	<path class="st102" d="M807.4,402.2c-1.2,0-2.4-0.1-3.6-0.3c1.5-8.2,1-17.6,11.7-20.6C815.5,389.4,814.6,397,807.4,402.2z"/>
	<path class="st103" d="M828.4,601.9c-0.1-1.4-0.1-2.8-0.2-4.2c1.2-5.1-4.5-10.3,0-15.4c1.3-0.2,2.5-0.4,3.8-0.5
		c3.3,0.9,5.4,3,6.6,6.2c-0.4,6,0.9,12.4-3.2,17.8C833.1,604.5,830.8,603.2,828.4,601.9z"/>
	<path class="st104" d="M902,535.6c-7.4-4.6-9.8-12.1-11.6-19.9c7.8,1.4,10.9,7.1,12.4,14C902.6,531.6,902.3,533.6,902,535.6z"/>
	<path class="st105" d="M938,418c2.3-5.2,4.6-10.5,6.9-15.7c1.6,1.5,3.1,3,4.7,4.4C948.5,413.3,945.4,417.8,938,418z"/>
	<path class="st106" d="M910,351.4c-1.5,6.9-1.1,15.2-11.5,15.3C900.4,360.2,901.7,353.2,910,351.4z"/>
	<path class="st107" d="M835.4,605.8c0.1-6.6,0.3-13.2,0.4-19.7c6.1-0.9,9,1.3,7.4,7.8c-4.1,3-3.3,7.4-3.4,11.6
		C838.4,605.5,836.9,605.6,835.4,605.8z"/>
	<path class="st108" d="M850.3,371c-2.4,5.2-4.9,10.4-7.3,15.6c-0.9,1.6-1.8,1.6-2.9,0.1c0-6.4,2.2-11.8,7.4-15.7
		C848.5,371,849.4,371,850.3,371z"/>
	<path d="M791.8,495.4c-3.5,0.2-7,0.4-10.5,0.6c0-1.2,0.1-2.4,0.1-3.6c1.4-2.9,3.8-4.3,7-4.5c3.5-2,5.1,0,6.2,3
		C794.5,492.9,793.6,494.4,791.8,495.4z"/>
	<path class="st109" d="M93.7,710.8c-23.4,4.8-24.6,3.5-23.1-26.9c17-38.9,49.1-53.6,89.2-55.3c4.3-0.2,9.3-1.1,11.9,4.1
		c-25.8,4.4-45.4,17.1-56.2,41.7C109.8,687.5,103.7,700.3,93.7,710.8z"/>
	<path class="st110" d="M461.8,723.1c-0.4,1.1-0.8,2.2-1.4,3.2c-10-1.6-2.1-11.3-6.8-15.2c-0.3-3.7-0.6-7.4-0.8-11.1
		c-3.7-6.3,0.9-14-3.3-20.3c-4.1-15.5-8.3-31.1-12.4-46.6c0.8-6.9,4-7.5,9-3.5c3,2.9,3.3,6.6,3.4,10.4c5.7,8.6,8.7,17.7,4.5,28
		c2.5,9,5,18.1,7.5,27.1c0.1,2.7,0.2,5.5,0.3,8.2C463.5,709.9,463.4,716.5,461.8,723.1z"/>
	<path class="st111" d="M370.6,739.4c-2.6-1.7-5.1-3.3-7.7-5c-2.2-4.5-4.5-9-6.5-13.6c-1.9-4.2-7.8-8.6-1.1-13
		c4.1-2.7,7.1-9.1,12.6-7.2c6.1,2.1,3,8.8,3.7,13.5c0.4,2.5-0.1,5.1-0.2,7.6C373.4,727.7,374.5,733.7,370.6,739.4z"/>
	<path class="st112" d="M370.6,739.4c0.3-5.9,0.6-11.8,0.8-17.7c2.9,11.7,8.4,23.1,4.2,35.6c-1.6-3.7-3.3-7.5-4.9-11.2
		C370.8,743.9,370.7,741.7,370.6,739.4z"/>
	<path class="st113" d="M446.1,629.7c-3.7-0.7-7-0.3-9,3.5c-2.5-5.3-5.1-10.6-7.6-15.9c2.7-9.3,5.9-1.5,8.9-0.3
		C443.1,619.9,444.6,624.8,446.1,629.7z"/>
	<path class="st114" d="M453.6,711.1c2.3,5.1,4.6,10.2,6.8,15.2c0.2,1.4,0.3,2.7,0.5,4.1c-2.8-0.7-4.6,11.5-7.5,1.1
		C451.7,725.1,453.4,717.9,453.6,711.1z"/>
	<path class="st115" d="M438.3,617c-3,0.2-6.1-4-8.9,0.3c-5.3-4.5-3.4-10.5-3.5-16.2C432,605,437.8,608.9,438.3,617z"/>
	<path class="st114" d="M449.4,679.8c6.2,5.9,3,13.4,3.3,20.3C448.3,693.8,449.5,686.7,449.4,679.8z"/>
	<path class="st116" d="M273.9,890.7c7-15.6-1.6-31.3-0.1-46.9C284.5,857.5,284.5,879.6,273.9,890.7z"/>
	<path class="st117" d="M218.7,918.3c-9,5.6-18.1,5.2-27.2,0.2C200.6,918.4,209.6,918.3,218.7,918.3z"/>
	<path class="st118" d="M453.9,668c-1.5-9.3-3-18.6-4.5-28c6.7,2.1,6.7,9.6,10.8,13.7c0,2.2-0.1,4.5-0.1,6.7
		C458,663,456,665.5,453.9,668z"/>
	<path class="st119" d="M461.8,723.1c0-6.6-0.1-13.2-0.1-19.8c5.4,5.7,2.3,12.8,3.2,19.3C463.8,722.8,462.8,722.9,461.8,723.1z"/>
	<path class="st120" d="M175.5,132.9c2.3,0.2,4.7,0.5,7,0.7c5,0.8,9.6,2.5,14,5c6.5,3.8,11.3,9.5,16.3,15c2.4,3.3,5.4,6.1,7.5,9.7
		c1.5,2.9,3.2,5.6,5.3,8.1c3.1,4.8,5.9,9.6,9.2,14.2c2.3,0.1,3.7,1.2,3.8,3.6c-0.8,5.8,1.3,12.2-2.9,17.4
		c-3.8,20.7-22,31.3-47.1,27.4c-1.8-0.6-2.6-1.8-2.4-3.7c0.2-2.8,3.8-4.2,3.1-7.4c0-0.1-2.2,0.4-3.4,0.7c-4.5-1.2-5.6-5.4-7.9-8.5
		c-2.4-6.6-7.8-11.5-10.2-18.2c-4.4,0.5-4.4-3.2-5.5-5.9c-6.6-3.8-9.5-12.3-17.5-14.4c-1.2-0.5-2.3-1.1-3.5-1.7
		c-1.9-9.3-10-6.9-16.1-8.4c-0.2-1.1-0.4-2.1-0.8-3.1C139.6,150.3,156.7,140.1,175.5,132.9z"/>
	<path class="st121" d="M316.4,145.6c-1.2-0.6-2.4-0.9-3.7-0.9c-2.2,2-4.6,2.6-7.4,1.4c-4-2-0.2-11.6-8.9-9
		c-8.6-9.1-16.5-18.8-27.2-25.6c-2-11.1,6.6-9.6,12.6-9.9c7.7-0.4,14.4,3.8,21.5,6.5c7.1,2.9,12.6,7.6,16.5,14.1
		c3,5.5,4.9,11.2,3,17.5C321.5,142.5,319.5,144.6,316.4,145.6z"/>
	<path class="st122" d="M305.1,113.3c-12,0.9-23.1-17.1-35.8-1.9c-7.8-3.6-15.5-7.2-23.3-10.9c1.7-1.3,3.4-2.5,5.1-3.8
		c23,1.9,40.8-13.5,61.7-18.6c1.4,0.2,2.9,0.3,4.3,0.5c-6.7,10.5,6.3,9.6,8.6,14.9c-5.1,12.6-16.5-0.9-23.6,6.6
		C300.3,104.4,307.7,107.9,305.1,113.3z"/>
	<path class="st123" d="M235.6,206.7c0-6-3.6-12.5,2.9-17.4c5.1,5,6.8,11.3,7,18.2C242.2,207.2,238.9,206.9,235.6,206.7z"/>
	<path class="st124" d="M211.5,156c-5.4-5.1-10.8-10.2-16.2-15.3c0.4-2.2,1.7-3.5,3.8-4c7.6,2.5,12.7,7.8,16.2,14.8
		C217.1,155.5,214.8,156.2,211.5,156z"/>
	<path class="st125" d="M304.8,144.1c2.6,0.2,5.3,0.4,7.9,0.6c-0.7,5.6-0.6,11.1,4.2,15.2c-0.6,2.7-2.2,4.5-4.9,5.3
		c-1.3-0.4-2.5-0.8-3.8-1.2c-1.3-5-2.6-9.9-3.8-14.9C302.8,147.2,303,145.6,304.8,144.1z"/>
	<path class="st126" d="M199.2,136.7c-1.3,1.3-2.6,2.6-3.9,4c-5.5-0.2-9.2-3.5-12.8-7.1c1.6-1.3,3.3-2.7,4.9-4
		C192.7,129.7,196.7,132,199.2,136.7z"/>
	<path class="st127" d="M234.7,185.6c-7.5-1.7-9.1-8.2-11.5-14.1c0.6-1.9,1.8-3.2,3.5-4.1C232.3,172.3,236.3,177.7,234.7,185.6z"/>
	<path class="st28" d="M226.8,167.5c-1.2,1.4-2.4,2.7-3.5,4.1c-3.2-1.5-4.3-4.2-4.7-7.4c-1.5-3.6,0.5-4.1,3.4-4
		C223.5,162.6,225.2,165.1,226.8,167.5z"/>
	<path class="st128" d="M221.9,160.2c-1.1,1.3-2.2,2.6-3.4,4c-2.3-2.7-4.7-5.4-7-8.1c1.3-1.5,2.6-3,3.8-4.5
		C218.7,153.5,221.9,155.6,221.9,160.2z"/>
	<path class="st129" d="M304.8,144.1c-0.2,1.7-0.3,3.3-0.5,5c-2.6-4-5.3-8.1-7.9-12.1C305,132.6,304.8,138.4,304.8,144.1z"/>
	<path class="st130" d="M320,223.1c-1.1-0.2-2.3-0.3-3.4-0.4c-3.1-3-3.8-6.7-3.4-10.8c0.7-8.1,5.2-15.9,2.8-24.4
		c0.1-2.6,0.3-5.2,0.4-7.7c1.2-8.1-1.3-18.5,11.9-19.2c3.4,0,6.5,0.8,9,3.3c5.1,8,3.5,16.9,3.7,25.5c-0.1,7.5-2,14.6-5.4,21.4
		C331.7,216.5,329.6,224.7,320,223.1z"/>
	<path class="st131" d="M243.3,231c-0.5-5.8-3.2-11.9,2.7-16.7c1.4,1.4,2.9,2.7,4.3,4.1c4,4.8,5.1,10.5,4.8,16.6
		c-2.4,8.9,1,18.9-4.8,27.3c0.4,3.6-0.4,6.6-4.3,7.9c-6.6-6.2-2.9-13.8-2.6-20.9C244.6,243.3,244.8,237.1,243.3,231z"/>
	<path class="st132" d="M316.1,187.5c6.3,7.9,5.4,15.9,0.3,23.9c-4.9,2.5,0.5,8.6-4.1,11.2c-1.4-1.4-2.7-2.8-4.1-4.1
		C308.9,207.7,308.3,196.6,316.1,187.5z"/>
	<path class="st133" d="M327.8,163.4c-11.1,0.4-4.6,12.9-11.3,16.4c-1.5-4.9-3-9.8-4.5-14.7c1.6-1.8,3.3-3.5,4.9-5.3
		c0.9-0.5,1.8-0.5,2.8,0C323.5,158.5,327.8,156,327.8,163.4z"/>
	<path class="st134" d="M261.4,226c-0.1,5.7,2.2,11.8-3.6,16.2c-1.6,1.2-3.2,1.3-4.8,0.1c-1.1-2.6-1-5.4-1-8.1
		c0.1-3.7-0.3-7.6,4.1-9.3C258,224.6,259.8,224.9,261.4,226z"/>
	<path class="st135" d="M253.5,235.1c0.3,2.4,0.6,4.9,1,7.3c1.5,6.1,3.6,12.3-1.3,18c-1,0.5-2,1.2-2.8,1.9
		c0.1-9.5,0.1-19.1,0.2-28.6C252.1,232.8,253,233.4,253.5,235.1z"/>
	<path class="st136" d="M261.4,226l-1.6,0.1l-1.6-0.4c-3.1-1.3-4.1-3.9-4.4-7c0.3-4.2,1.7-9,6.6-7.1
		C269.1,215.1,258.6,221.3,261.4,226z"/>
	<path class="st137" d="M253.1,260.4c0.4-6,0.9-12,1.3-18c1.1-0.1,2.2-0.1,3.4-0.1C254.6,247.9,264.1,256.8,253.1,260.4z"/>
	<path class="st138" d="M253.7,218.7c3,1.4,4,4,4.4,7c-3.6,2.1-3.9,5.8-4.7,9.3c-1-0.4-2-0.9-3-1.4c0-5.1-0.1-10.1-0.2-15.2
		C251.4,218.7,252.6,218.8,253.7,218.7z"/>
	<path class="st139" d="M167.8,197.1c5.7,4.5,11.8,8.7,12.4,16.9c1.6,3.6,2.1,7-1,10c-1-0.7-2-1.3-3.1-1.9
		C175.9,212.9,165.2,207.2,167.8,197.1z"/>
	<path class="st140" d="M129.2,251.2c-5.5-6.3-7.9-13.7-8-22c10.7,1.4,5.8,12.7,11.2,17.5C131.4,248.2,130.3,249.7,129.2,251.2z"/>
	<path class="st141" d="M144.7,176.9c10.6-1,14.5,6.1,17.5,14.4C153.7,189.8,148.7,183.9,144.7,176.9z"/>
	<path class="st142" d="M176.4,285.6c2.5-6.7,4.9-13.4,7.4-20.1c1.2-1.6,2.4-1.7,3.7,0C188,274.5,188.4,283.5,176.4,285.6z"/>
	<path class="st143" d="M179.1,224c0.3-3.3,0.7-6.7,1-10c2.3,3.1,4.7,6.1,7,9.2c2.7,2,2.3,4.5,1.3,7.1c-0.2,1.3-0.2,2.6,0,3.9
		c-1.8,1.9-3.5,3.7-5.3,5.6C179.8,235,179.3,229.5,179.1,224z"/>
	<path class="st135" d="M243.3,231c4.1,6.1,4.1,12.2,0.1,18.4C243.4,243.3,243.3,237.1,243.3,231z"/>
	<path class="st144" d="M187.5,265.5l-1.8,0c0,0-1.8,0-1.8,0c0-6.6,0-13.2,0-19.7C190.9,251.3,187.1,258.8,187.5,265.5z"/>
	<path class="st2" d="M320,223.1c6.2-1.9,7.1-8.8,11.6-12.3c2.6-2.1,4-5.6,7.8-6.2c5.8,0.1,11.4-1.2,16.7-3.6
		c2.7-0.4,5.1-0.1,6.8,2.2c1.7,1.4,3.3,2.9,5,4.3c-14.5,7.6-29.1,15.3-43.7,22.9c-3.7,0.6-5.5-0.4-4.2-4.5
		C320.1,225,320.1,224.1,320,223.1z"/>
	<path class="st145" d="M320,226c1.4,1.5,2.8,3,4.2,4.5c-3.3,4.5-3.8,12-11.9,11.7C312.6,235.7,312.5,229,320,226z"/>
	<path class="st26" d="M305.1,113.3c-2-2.4-3.7-5.5-6.2-7.1c-4.3-2.9-7.3-5.7-3.9-10.9c2.4-3.7,5.8-4.2,10.2-3.4
		c6.7,1.3,13.3,5.6,20.5,1.7c10.8,5.3,19,13.5,26.1,23c-0.6,5.1-4,7.8-8.4,9.7c-1.7,0.4-3.5,0.4-5.3,0c-5.8-1.4-11.5-7.7-17.4-0.3
		c-1.8,0.7-3.2,0.3-4.3-1.2C314,119.6,310.1,116,305.1,113.3z"/>
	<path class="st146" d="M379,109.4c1.1,2.2,2.3,4.4,3.4,6.6c0,0,0.2,1.6,0.2,1.6c-6.7,1.3-12.9,6.1-20.3,3.4c-1.3-2-1-3.8,0.9-5.2
		C367.8,112.1,373.1,110,379,109.4z"/>
	<path class="st147" d="M363.2,115.7c0,1.6-0.1,3.3-0.1,4.9c-0.1,3-1.9,4.9-4.4,6.1c-4.3,2.2-8.6,2.5-12.9,0.2
		c-0.6-0.7-1.2-1.3-1.8-2c2.7-2.8,5.3-5.6,8-8.4C355.6,116.3,359.4,116,363.2,115.7z"/>
	<path class="st148" d="M339.4,155c11.8-4.9,23.6-9.8,35.4-14.7c2.5,0.5,3.9,2,4.4,4.5c-7.3,4.6-8,11.6-8,19.6
		c-0.1,9.1,3.2,19-4.3,26.9c-1.6,1.2-3.2,1.2-4.8,0c-2.9-3.9-3.3-8.5-2.1-12.9c4.5-15.8-2.2-19.5-16.3-15.8c-1.9-0.3-3.6-1.1-5-2.4
		C337.9,158.4,338.2,156.7,339.4,155z"/>
	<path class="st149" d="M379.3,144.8c-1.5-1.5-3-3-4.4-4.5c4.4-4.8,9.6-7.5,16.3-7.2c-0.1,2.5-0.3,5.1-0.4,7.6
		C386.9,142.1,383.1,143.5,379.3,144.8z"/>
	<path class="st150" d="M363,191.4c1.3,0,2.6,0,4-0.1c-1.4,4-2.7,7.9-4.1,11.9c-2.4,0-4.8,0-7.3,0
		C353.8,196.6,354.8,191.7,363,191.4z"/>
	<path class="st151" d="M316.4,124.9c1.5-0.3,2.9-0.5,4.4-0.8c6.5-1.3,12.9-0.3,19.2,1.1c1.3,0.3,2.6,0.2,3.8-0.2
		c0,0-0.1-0.1-0.1-0.1c3.1,3.8,3.4,7.5-0.4,11.1c-5.1,1.8-10.1,3.6-15.2,5.3c-2.8,1.7-5.5,1.4-7.8-0.9
		C321.2,134.7,318.8,129.8,316.4,124.9z"/>
	<path class="st152" d="M359.1,124.4c1.3-1.2,2.6-2.5,3.9-3.7c6.3-2.2,12.6-4.8,19.5-3c-6.1,7.3-14.8,9.3-23.2,12
		C357.7,127.9,357.6,126.2,359.1,124.4z"/>
	<path class="st153" d="M359.1,124.4c0.1,1.7,0.1,3.5,0.2,5.2c-4.3,4.7-9.6,6.9-16,6.4c0.1-3.7,0.3-7.4,0.4-11.1
		C348.8,124.7,354,124.5,359.1,124.4z"/>
	<path class="st154" d="M339.4,155c0.1,1.6,0.3,3.3,0.4,4.9c1.4,3.7-0.1,4.7-3.6,3.9c-2.8-0.1-5.6-0.3-8.5-0.4
		c-2.7-1.2-5.4-2.4-8.1-3.6C325.6,155.6,332.7,156.1,339.4,155z"/>
	<path class="st155" d="M398.1,109.2c3.2,0.2,6.3,0.3,9.5,0.5c-6.2,4.7-12.7,8.4-21,6.9C388.2,110.6,393.1,109.8,398.1,109.2z"/>
	<path class="st156" d="M320.3,140.4c2.6,0.3,5.2,0.6,7.8,0.9c-2,6.6-4.2,12.9-11.7,4.3C317.7,143.8,319,142.1,320.3,140.4z"/>
	<path class="st157" d="M113.5,249.8c-0.5,1.1-0.7,2.2-0.5,3.4c-11.2-1.4-10.3-12.7-15.5-19.1C109.9,232.2,107.5,245.3,113.5,249.8z
		"/>
	<path class="st158" d="M312.3,222.7c0-4.3,0.1-8.7,0.2-13c0-1.9,0.8-3.5,2.8-1.7c0.8,0.7,0.7,2.3,1.1,3.5c0.1,3.8,0.1,7.5,0.2,11.3
		C315.2,222.7,313.7,222.7,312.3,222.7z"/>
	<path class="st120" d="M791.8,495.4c0.2-1.2,0.5-2.5,0.9-3.7c3.6-5.7,9.1-5.7,14.8-5.1c9.9,1.1,19.7,0.3,29.4-1.8
		c7.2,2.2,14.4,4.4,21.6,6.6c2.7,3.1,5.4,6.2,8.1,9.3c1.8,0.9,4.8,0.8,3.8,4.3c-2.5,16.3-5.2,32.4-24.7,37.5
		c-0.7-0.4-1.5-0.7-2.2-1.1c-1-0.9-2-1.8-3-2.7c-5.3-2.5-10.6-4.8-16.5-5.5c-1.7,0-3.2-0.5-4.6-1.4c-0.7-1.4-0.9-2.9-0.7-4.4
		c-4.9-1.1-9,1.4-13.4,2.5c-1.3,0.9-2.7,1.7-4.1,2.5c-3,0.9-6.3,0.8-9.1,2.3c-3.6,1.6-7.1,3.1-10.7,4.7
		C780.6,523.7,783.3,508.9,791.8,495.4z"/>
	<path class="st159" d="M867,433.3c-1.3-0.1-2.6-0.3-3.9-0.4c-9-8.9-21.3-2.7-31.4-6.8c0.5-11.9,10.7-11.2,18.2-13.8
		c8.5-1.9,17.3-5.3,23.7,4.4C875.7,424,874.7,430,867,433.3z"/>
	<path class="st160" d="M851.2,417.2c-7.3,0.9-14.3,2.5-19.2,8.8c2.2,1.5,2.4,3.2,0.6,5.1c-4.1,3.8-7.5,3.7-10.1-1.6
		c0.9-3.8,1.8-7.6,2.7-11.4c4.2-3.4,8-7.7,14-7.9c2.8-0.3,5.5,0,8.2,0.9C849.8,412.3,852,413.8,851.2,417.2z"/>
	<path class="st161" d="M867,433.3c2.9-4.7,4.7-9.8,4.1-15.4c2-2.5,1.1-6.7,4.6-8.4c0.8-0.1,1.7-0.2,2.5-0.3
		c1.5,0.9,2.6,2.2,3.2,3.9c0.9,7.1-0.2,14.1-1.7,21c-1.5,1.1-3.1,1.8-4.9,2.1C872.3,435.3,869.7,434.3,867,433.3z"/>
	<path class="st162" d="M832.5,431.1c-0.2-1.7-0.4-3.4-0.5-5.1c10.3,2.7,23.3-6.7,31.2,6.9C853,430.8,842.8,429.9,832.5,431.1z"/>
	<path class="st163" d="M836.9,484.8c-9,4.6-18.4,5.9-28.3,3.4c-1.4-0.7-1.8-1.3-1.4-2c0.4-0.7,0.9-1.1,1.3-1.1
		C818,485,827.4,484.9,836.9,484.8z"/>
	<path class="st164" d="M875,436.3c1.5-1,3-2.1,4.5-3.1c1.4-1.2,2.9-1.9,4.8-2c1.8,0.1,3.5,0.6,5.2,1.3c4.8,3.5,12.4,5.2,8.6,14
		c-2.7,1.2-5.2,1-7.2-1.5c-4.1-2.1-8.2-4.2-12.2-6.3C877.4,437.9,876.2,437.1,875,436.3z"/>
	<path class="st165" d="M808.5,485.1c0,1,0,2.1,0.1,3.1c-5.3,1.2-10.6,2.3-15.9,3.5c-1.5-1.3-2.9-2.6-4.4-3.8
		C794.4,481.8,801.6,484.2,808.5,485.1z"/>
	<path class="st166" d="M926.1,457.6c0,8.8,0,17.7,0.1,26.5c-8.4-1.4-10.8-8.1-13.2-14.8c-1.4-2.5-1.9-5.1-1.3-7.9
		c1.1-3.6,2.8-6.9,5.8-9.3c1.7-0.8,3.6-1,5.5-0.7C925.7,452.6,927.8,454.2,926.1,457.6z"/>
	<path class="st167" d="M913.1,462.1c0,2.4-0.1,4.8-0.1,7.2c-12.7-3.2-15.1-15.9-22.2-24.3c2.3,0.5,4.7,1.1,7,1.6
		c2.9-0.7,5.3,0.4,7.5,2.1C909.3,452.3,913.6,455.8,913.1,462.1z"/>
	<path d="M870.4,504.9c-1.3-1.4-2.5-2.8-3.8-4.3c12.5-2.2,19.7,3.9,23.8,15C883.7,512.1,877.1,508.5,870.4,504.9z"/>
	<path class="st63" d="M843.5,541.4c0.7,0.5,1.4,0.9,2.2,1.1c5,3.9,10,7.9,15,11.9c2.5,4,8.9,5.5,7.5,11.9
		c1.7,6.4,3.8,12.7,1.9,19.5c-8.9,2.9-15,15-26.8,8c-1.1-3.9-3.8-6.3-7.4-7.8c-1.3-1.4-2.5-2.8-3.8-4.2
		C835.5,568.2,851,558.1,843.5,541.4z"/>
	<path class="st168" d="M792.1,534.7c1.7-3.4,5-3.6,8.1-4.1c6.9-4,13.7-4.1,20.6,0l-0.4,0.6c1.2,0.8,1.6,1.6,1.2,2.4
		c-0.4,0.8-0.8,1.2-1.2,1.2C811,534.8,801.5,534.7,792.1,534.7z"/>
	<path class="st169" d="M820.4,534.8c-0.1-1.2-0.1-2.4,0-3.7c7.7-0.2,15.5-0.7,20.1,7.5C833,541.9,827.2,535.4,820.4,534.8z"/>
	<path class="st170" d="M828.3,582.3c-1.1,5.1,6.8,10.3,0,15.4c-1.3-1.3-2.7-2.7-4-4c0.1-4.7,0.2-9.4,0.3-14.1
		C825.8,580.5,827,581.4,828.3,582.3z"/>
	<path class="st171" d="M868.2,566.3c-2.5-4-5-8-7.5-11.9c8.1-0.2,11.2,4.1,10.6,11.7C870.3,566.1,869.2,566.2,868.2,566.3z"/>
	<path class="st172" d="M918.1,414.4c9,2.8,9.9,12.3,15.1,18.3c2.1,1.4,2.3,3.1,0.6,5c-0.3,1.3-0.5,2.6-0.8,3.9
		c-2.1,4.2-4.8,6-8.9,2.2C920.9,434.2,912.6,425.7,918.1,414.4z"/>
	<path class="st173" d="M926.1,445.4c2.3-1.3,4.6-2.6,6.9-3.9c1.4,7-0.6,12.4-6.9,16.1c-1.4-1.5-2.8-3-4.2-4.5
		c-1.7-2.8-0.3-4.9,1.7-6.8C924.4,446,925.2,445.7,926.1,445.4z"/>
	<path class="st174" d="M933.8,437.7c-0.2-1.7-0.4-3.3-0.6-5c1.5-3.7,3.1-7.4,4.6-11.2C945,429,939.8,433.4,933.8,437.7z"/>
	<path class="st175" d="M840.1,386.8c1-0.1,1.9-0.1,2.9-0.1c1.7,2,3.4,4,5.2,6c1.9-0.1,3.3,0.6,4.4,2.1c-0.6,6.8-5.5,8.3-11.1,8.8
		c-4.1-1.4-4.7-4.6-4.2-8.3C835.9,391.7,838.5,389.4,840.1,386.8z"/>
	<path class="st176" d="M837.3,395.3c0.9,2.3,1.7,4.6,2.6,6.8c2,4.7-0.6,7.2-4.4,9.1c-3.2-0.5-5.6-1.5-3.8-5.5
		C832.4,401.7,831.4,396.7,837.3,395.3z"/>
	<path class="st177" d="M831.7,405.8c1.4,1.5,2.8,3,4.1,4.4c4-1.4,4.8,0.3,3.8,3.8c-4.8,1.4-9.7,2.7-14.5,4.1
		C825.6,413.1,828.3,409.3,831.7,405.8z"/>
	<path class="st178" d="M890.4,380.3c0,0,0.7,1.8,0.7,1.8c1,7.3-3.6,12.8-5.7,19.2c-1.3,1.4-2.8,2.1-4.7,2.1
		c-3.9-1.7-4.9-5.1-5.1-8.9c0.2-2.9,1.3-5.3,3.5-7.1C882.8,384.9,886.6,382.6,890.4,380.3z"/>
	<path class="st179" d="M879,387.3c-0.2,2.6-0.3,5.2-0.5,7.7c-3.1,2.6-6.7,3.1-10.5,2.2c-3.7-1.2-6.9-3-8.7-6.6
		C865.2,385.6,872.3,387.4,879,387.3z"/>
	<path class="st180" d="M859.3,390.6c2.6,1.1,5.2,2.2,7.7,3.3c-4.9,5.2-10.1,5-15.4,0.6c-1.1-0.6-2.3-1.2-3.4-1.9
		C851.8,392,855.6,391.3,859.3,390.6z"/>
	<path class="st181" d="M918.1,414.4c2.1,10.5,10.2,19.4,8,31c0,0-0.3,0.3-0.3,0.3c-7.2,4.3-11.6-0.9-16.4-4.8
		c-4.2-4.2-8.3-8.5-12.4-12.9c-2.8-3.3-5.1-6.8-4.7-11.4c0.4-1.7,1.1-3.2,2.1-4.5c2.9-3,5.5-6.4,9.6-8c5.8-1.3,9.2,3.7,13.7,5.6
		C917.8,411.3,917.9,412.8,918.1,414.4z"/>
	<path class="st182" d="M917.6,409.7c-5-0.9-10-1.9-15-2.8c-2.4-2.7-2.7-5.6-0.4-8.5l-0.1,0c2.2-1.9,3.3-5.8,7.4-3.8
		C909.2,401.2,915,404.6,917.6,409.7z"/>
	<path class="st183" d="M909.6,394.6c-2.5,1.3-4.9,2.5-7.4,3.8c0.2-3.7,0.3-7.5,0.5-11.2c2.4-3,4.8-6,7.2-8.9
		c0.2,3.1,0.4,6.1,0.6,9.2C910.1,389.8,909.9,392.2,909.6,394.6z"/>
	<path class="st184" d="M891.5,394.6c1.2,1.6,2.3,3.2,3.5,4.8c4,5.1,3.4,10-0.5,14.8l0-0.3c-1.2,1.4-2.6,2.2-4.4,2.4
		c-4.8,0-8.1-2.8-10.8-6.4l-0.9-0.1c-1.3-3.7,0.7-5.9,3.5-7.7l1.1,0.3C885.9,399.8,887.5,395.8,891.5,394.6z"/>
	<path class="st185" d="M891.5,394.6c-1.1,4.5-3.4,7.6-8.4,7.8c-1.1-8.2,6.4-13.1,7.9-20.3C896.7,386,892.4,390.4,891.5,394.6z"/>
	<path class="st186" d="M894.5,414.2c0.2-4.9,0.3-9.9,0.5-14.8c2.4-0.4,4.9-0.7,7.3-1.1c0.1,2.8,0.3,5.7,0.4,8.5
		C902.4,412,899.4,414.1,894.5,414.2z"/>
	<path class="st187" d="M188.5,230.2c-0.4-2.4-0.8-4.7-1.3-7.1c0.8-3.5-0.8-7.9,3.4-9.9c0.7-0.4,3.5,1.4,3.8,2.6
		C196.4,222.2,194,226.9,188.5,230.2z"/>
	<path class="st188" d="M336.2,163.8c1.2-1.3,2.4-2.6,3.6-3.9c1,0.1,2.1,0.1,3.1,0c9.3,11.3,7.9,22.9,1.4,34.8
		c-4.1,2.7-6.2,0.1-8-3.1C336.3,182.4,336.3,173.1,336.2,163.8z"/>
	<path class="st189" d="M336.3,191.7c1.3,1.4,2.7,2.8,4,4.2c3,3.9,2.8,7.7-0.7,11.2c-2.7,1.2-5.3,2.5-8,3.7
		C333.1,204.4,334.7,198,336.3,191.7z"/>
	<path class="st190" d="M339.6,207.1c0.2-3.7,0.5-7.5,0.7-11.2c6.9-11.5,2.1-23.9,2.6-35.9c24.3-7.7,26-6,21.1,20
		c-0.7,3.7-0.7,7.6-1,11.4c-4.4,2.8-5.6,7.4-7.4,11.8C351.7,210.4,346.3,211.5,339.6,207.1z"/>
	<path class="st191" d="M340,125.2c-6.7,5.3-13.2,5.2-19.2-1.1C323.9,113.3,324.4,113.3,340,125.2z"/>
	<path class="st192" d="M800.8,527.4c10.3-5.6,13.6-5.6,19.4,0.1C813.7,530.2,807.2,530.3,800.8,527.4z"/>
	<path class="st193" d="M800.8,527.4c6.5,0,12.9,0,19.4,0.1c0.1,1.1,0.3,2.1,0.6,3.2c-6.9,0-13.7,0-20.6,0
		C800.4,529.5,800.7,528.5,800.8,527.4z"/>
	<path class="st194" d="M874.8,411.1c0.1,3-0.7,5.5-3.6,6.8c-6.4-7.3-13.3-2-20-0.7c-1.3-1.2-2.7-2.3-4-3.5c0.1-6.7,5.4-6.8,10-7.8
		c4.7-0.4,9.4-0.3,13.9,1.3C872.8,408,874,409.3,874.8,411.1z"/>
	<path class="st195" d="M859.5,409.9c-4.4,0.4-9.1-0.2-12.3,3.8c-2.6,0.1-5.1,0.2-7.7,0.3c-1.3-1.3-2.5-2.5-3.8-3.8
		c1.3-2.7,2.7-5.4,4-8.1c4.2-2,9.3-2.8,11.8-7.6c5.1-0.2,10.3-0.4,15.4-0.6c3.9,0.4,7.7,0.7,11.6,1.1c0.5,2.7,0.2,5.8,3.4,7.1
		c-1.2,2.6-2.3,5.2-3.5,7.7c-1.3,0.1-2.6,0.5-3.7,1.2c0,0,0.2-1.1,0.2-1.1C869.9,404,864.7,406.5,859.5,409.9z"/>
	<path class="st196" d="M879.4,409.9c4,1.6,8,3.2,12.1,4.8c2.4,9-0.6,15.1-9.4,18.3c-0.9,0-1.7,0-2.6,0.1
		C871.8,425.4,880.6,417.7,879.4,409.9z"/>
	<path class="st197" d="M898.7,425.6c3.9,4,7.7,8,11.6,12c1.9,2.7,2.8,5.7,1.9,9c-2.4,4.7-5.8,5.9-10.4,2.8c-1.3-0.9-2.7-1.9-4-2.8
		c-0.1-7.3-8.2-7.8-10.9-12.9C889,428.3,892.9,425.7,898.7,425.6z"/>
	<path class="st198" d="M898.7,425.6c-3.9,2.7-7.9,5.4-11.8,8.1c-1.6-0.2-3.2-0.4-4.8-0.6c3.1-6.1,6.3-12.2,9.4-18.3
		c1-0.3,2.1-0.6,3.1-0.9C895.9,417.8,897.3,421.7,898.7,425.6z"/>
	<path class="st199" d="M901.8,449.4c3.4-0.3,6.7-0.7,8.5-4.2c6.8-1.5,6.8,3.6,7.6,7.9c0,3.8-1.4,7-4.8,8.9
		C909.3,457.8,905.6,453.6,901.8,449.4z"/>
	<path class="st200" d="M917.9,453.1c-2.5-2.6-5.1-5.3-7.6-7.9c0-2.5,0-5.1,0-7.6c5.6,1.8,8.4,9.1,15.5,8.1
		c-1.3,2.5-2.6,4.9-3.8,7.4C920.6,453.1,919.2,453.1,917.9,453.1z"/>
	<path class="st201" d="M859.5,409.9c2.6-5.8,7.3-8.8,13.4-8.4c0.9,0.1,1.4,5.5,2.1,8.5C869.9,410,864.7,409.9,859.5,409.9z"/>
</g>
</svg>
