<?xml version="1.0" encoding="utf-8"?>
<!-- Generator: Adobe Illustrator 23.0.1, SVG Export Plug-In . SVG Version: 6.00 Build 0)  -->
<svg version="1.1" id="Layer_4" xmlns="http://www.w3.org/2000/svg" xmlns:xlink="http://www.w3.org/1999/xlink" x="0px" y="0px"
	 viewBox="0 0 1000 1000" style="enable-background:new 0 0 1000 1000;" xml:space="preserve">
<style type="text/css">
	.st0{fill:#F26507;}
	.st1{fill:#B7B78E;}
	.st2{fill:#6AAD00;}
	.st3{fill:#908B71;}
	.st4{fill:#3F5C12;}
	.st5{fill:#FEBD62;}
	.st6{fill:#7E7E7E;}
	.st7{fill:#575757;}
	.st8{fill:#FEFE65;}
	.st9{fill:#FEFEFE;}
	.st10{fill:#DBFE19;}
	.st11{fill:#615C48;}
	.st12{fill:#141E06;}
</style>
<g>
	<path d="M664.2,416.8c13.8,3.9,27.1,0.6,40.2-3.6c14-4.5,25-13.6,35.5-23.7c7.2-7,14.8-14,25-16.9c7.5-2.2,12,0.8,12.1,8.9
		c0.2,14.6-2.9,28.7-7.7,42.2c-9.6,26.8-23.8,51.2-41.6,73.5c-8.3,10.5-16.5,21-26.2,30.2c-26.9,25.5-58.4,42.4-94.9,49.6
		c-18.8,3.7-37.4,3.5-55.9-1.4c-9.4,35.6-21.3,70.2-35.1,104.2c-5.2,12.8-11.4,25.1-18.1,37.1c-5.5,9.9-5.9,19.5-3.6,30.2
		c1.9,9.3,0,18.9-1.5,28.1c-1.8,10.6-3.8,21.3-6.6,31.8c-6.3,23.4-18.6,42.4-38.6,56.4c-10.2,7.2-20.8,13.7-32.6,17.8
		c-16.4,5.7-33.4,5.5-50,1c-7.4-2-12.7,2.8-18.9,4.4c-24.8,6.3-49.4,12.8-74.8,16.3c-19,2.6-37.9,4.8-57.1,5.9
		c-13.2,0.7-26.2,1.9-39.3-0.3c-8.3-1.4-14.3,4.1-20.1,8c-23.5,15.9-48.7,27.4-76.4,33.6c-7.3,1.6-11.4-1.3-10.8-9.3
		c0.9-11.7,3.9-23.1,7.9-34.2c6.4-17.7,14.7-34.6,22.2-51.8c2.1-4.8-0.8-8.3-1.7-12.4c-2.9-13.9-4.9-27.8-6-42
		c-0.8-10.2-2.5-20.6-2.2-30.7c0.4-19.1,2.2-38.2,5.1-57.2c3.1-20.3,6.1-40.5,12.4-60.2c1.7-5.3-2.6-10.8-3.8-16.3
		c-4.7-21.1-3.7-42.1,2.2-62.3c9.2-31.1,29.8-53.9,59.8-65.7c16.5-6.5,34.5-8.8,52.9-5.6c7.9,1.4,16.1,1.3,24.2,2.8
		c3,0.5,6.9-3,10.2-5c33.3-20.4,66.5-41.1,101.6-58.3c12.3-6.1,24.9-11.9,38-15.8c8-2.4,8.1-7,8.6-12.9c2-22.8,3.1-45.9,11.5-67.6
		c7.6-19.9,18.8-37.9,31.4-54.9c10.8-14.5,22.3-28.4,35.3-40.9c20.4-19.4,42.6-36.4,67.2-50.3c7.9-4.5,16.8-6.1,25.5-8
		c9-2,15,5.8,12.3,14.6c-3.5,11.2-9.3,21.4-15,31.6c-9.5,17-13.4,35.6-16.7,54.4c-1.9,10.6-3.7,21.2-2.7,32.1c2,2.1,1.6,4.8,1.8,7.2
		c0.3,5,2,7.9,7.8,6.7c2.5-0.5,5.1-0.2,7.6,0.1c6,1.4,12.1,2.6,17.9,4.8c4,1.5,6.5,0.5,9.3-2.6c22.5-24.8,45-49.6,71.7-70.2
		c7.9-6.6,16.3-12.2,25.8-16c7.8-2.5,15.5-2.8,23,1.2c4.6,2.4,8.3,5.8,11.4,9.9c4.1,7.3,1.7,14.3-1,21.2
		c-4.4,11.1-12.6,19.5-20.3,28.2c-19.4,22.2-38.8,44.3-56.6,67.8c-5.9,7.7-5.9,20.2-0.3,28.9C651.6,414.2,658.5,413.4,664.2,416.8z"
		/>
	<path class="st0" d="M688.7,255.6c-8.4,4.9-16.8,9.7-24.4,15.8c-12.9,8-24.7,17.4-37.2,26c-19.1,13.2-38,26.6-56.9,40
		c-1.4,1-2.8,1.7-4.5,2.1c-4.6,1-9.4-1-13.9,1.4c-1.6,0.8-2.8,0-3.3-2.3c-1.2-4.9-1.8-9.7-1.1-14.6c26.7-17.2,53.5-34.3,80.2-51.5
		c42.3-27.3,84.5-54.8,126.9-82.1c29.1-18.7,58.3-37.3,87.4-55.9c0.5-0.3,1.2-0.1,3.3-0.3c-8.3,12.8-16,24.8-23.7,36.7
		c-28.6,44.8-57.2,89.6-85.7,134.4c-22.8,35.8-45.7,71.6-68.6,107.3c-0.9,1.4-1.9,2.7-2.8,4c-7,0.3-13.6-1.5-20.1-3.9
		c0.2-3.1,2.3-5.2,3.8-7.5c35.6-53.5,70.9-107.2,106.5-160.7c12.4-18.6,24.7-37.2,37.4-56.8c-31.2,20.2-60.7,41.1-90.8,61
		C697.1,251.5,693,253.8,688.7,255.6z"/>
	<path class="st1" d="M154,854.3c-6.9-4.6-13.6-9.3-22.3-10.8c-5.1-0.9-9.7-0.7-14.4,0.6c-4.5,1.3-7.7,0.3-8.6-5
		c-1.4-8.5-3.6-16.9-4.4-25.4c-1.6-17.3-3.4-34.7-2.9-52.2c0.7-21.3,3.1-42.3,6.7-63.4c3.4-20.2,9.4-39.2,19.1-57.1
		c5.7-10.5,13-20,21.8-28.2c6.2-5.7,14.1-5.7,21.4-4.1c30,6.6,58.6,17.4,85.5,32.2c17.3,9.5,33.4,21,48.6,33.8
		c6.9,5.8,13.1,12,18.4,19.2c6,8.7,10.6,17.9,12.4,28.6c1.1,6.3,0.3,11.8-3.5,16.9c-16.7,22.6-36.7,41.7-60,57.3
		c-22.2,14.9-45.1,28.4-69.4,39.6c-13.6,6.3-27.7,11.5-41.4,17.5C158.7,854.9,156.4,855.7,154,854.3z"/>
	<path class="st2" d="M360.1,714c-11-14.1-20.9-29.3-34.1-41.3c-25.4-23.2-53.5-42.6-85.4-56.2c-23.1-9.9-46.8-17.4-71.3-22.9
		c-14.7-3.3-28.1,4.3-36.4,14.6c-6.7,8.3-12.8,17.1-17.6,28.2c-6.9-26.1-4.4-49.7,8-71.5c15.2-26.7,36.5-45.4,69.1-48.1
		c29.4-2.5,57.4,2.8,84.4,13.7c31.7,12.7,61.3,29.4,89.9,47.9c19.7,12.8,36.5,29,51.8,46.6c1.2,1.4,2,3.2,3,4.8
		c3.3,5.1,3.2,10.5,2.5,16.4c-2.2,19.4-9.2,36.6-22.6,51.1c-8.5,9.1-18,16.1-30.5,18.2C367.2,716.1,363.4,716.7,360.1,714z"/>
	<path class="st1" d="M429.8,614.3c-12.5-15.6-26.8-29.5-43.1-41c-23-16.2-46.5-31.6-72.2-43.3c-16.2-7.3-32.5-14.7-51.5-18.9
		c11.6-7.1,21.7-13.5,32-19.6c26-15.4,51.8-31.1,79.7-43c28.7-12.3,58-23.3,89-28.6c18.1-3.1,35.2-0.9,50.6,9.9
		c5.2,6,6.7,13.2,5.7,20.6c-4.6,38-14.2,74.5-31.8,108.8c-11.8,23.1-28.7,41-51.2,53.9C434.8,614.4,432.5,615.9,429.8,614.3z"/>
	<path class="st3" d="M154,854.3c31.3-11.7,62.1-24.7,90.6-42.5c13.4-8.4,27.1-16.4,39.6-26.2c17.6-13.8,33.2-29.6,46.4-47.6
		c7.1-9.7,1.7-19.5-1.3-29c-1.6-5.2-5.5-9.4-6.6-14.9c9.7,8.4,16.6,19.1,23.8,29.4c17.6,25,30.8,52.5,32.7,83.1
		c1.3,21.3-4.1,42.4-20.8,58.4c-3.6,3.4-8.3,4.5-12.6,6c-18.3,6.3-37.1,10.7-56.1,14.6c-20.6,4.2-41.4,8.1-62.3,9.6
		c-18.4,1.3-37.2,4.7-55.5-0.2C173.4,878.2,163.9,866.2,154,854.3z"/>
	<path class="st4" d="M360.1,714c17.7,1.1,30.2-7.3,41.6-20.1c13.1-14.6,18-31.7,20.9-50.1c0.8-4.8-1-9.4-1.1-14.1
		c27.6,26.3,45.8,57.8,54.2,95.2c8.1,36.5,3.3,70.7-15.6,102.9c-4.8,8.2-11.7,14.7-19.3,20.5c-13.8,10.5-27.9,20.3-45.7,22.9
		c-5.3,0.8-10.3-1.2-15.5-1.5c-3.6-0.2-1.9-2.1-0.7-3.8c12.1-18,15.9-38.9,14.7-59.4c-1.3-22.7-6.5-45.2-17.5-65.9
		C371.3,731.5,366.5,722.3,360.1,714z"/>
	<path class="st4" d="M764.3,389.8c-9.2,35.5-25.1,66-46.2,94.1c-14.1,18.9-30,36.1-49,50c-22.8,16.7-48.1,27.4-76.7,30.7
		c-10.9,1.3-21.1-0.6-31.5-1.9c-4.3-0.5-7.4-1.4-6-8.1c2.2-11.5,4.8-23.1,5-34.9c0.1-4.5,2.2-7.4,6.3-9.4
		c15.3-7.1,29.9-15.5,42.6-26.4c11.4-9.8,19.2-22.6,23.7-37.2c1.9-6.1,1.4-14.6,5.4-17.8c3.9-3.1,11.7,1.4,17.9,2.3
		c21.4,3.3,42.4,0.5,62.8-5.9c10.7-3.4,18.9-11.4,27.1-19C751.5,401,756,394.3,764.3,389.8z"/>
	<path class="st3" d="M429.8,614.3c16.7-8.3,31.8-18.6,42.9-34c22.9-31.8,34.8-68,41.6-106.1c1.4-7.7,2.8-15.3,4-23
		c1.1-7.5-2-14.4-4-21.4c21.6,11.1,31.5,28.7,33.1,53c1.6,23.8-2.4,46.7-6.8,69.6c-8,42-22.3,82.3-38,121.9
		c-4.6,11.5-10.6,22.4-16.1,34c-3.1-5-3.7-10.4-5.2-15.4c-5.8-19.9-16.6-37-29.3-53.1C445.1,630.9,437.5,622.6,429.8,614.3z"/>
	<path class="st2" d="M474.2,305.5c-9.4,7.8-15.4,18.2-21.7,28.3c-12.9,20.3-17.8,43.1-19.7,66.7c-0.3,3.9-0.1,9.9-2.3,11.3
		c-4.9,3.1-11.3,4.2-17.2,5.6c-3.5,0.8-1.9-2.5-1.8-3.7c2.3-35.8,10.2-69.6,32.4-99.2c13.6-18.1,27-36.2,43.1-52
		c16.3-15.9,34.7-29.4,53.6-42.2c8.1-5.5,16.3-10.7,25.9-14.5c-1.3,5.4-3.9,9.6-6.7,13.3c-12.2,16.2-16.5,35.6-21,54.6
		c-4.5,19.2-6.5,38.9-6.1,58.8c0.1,3.9,4.6,8.4-0.1,11.7c-3.1,2.2-7.3,3-11,4.5c-17.1,7.3-30.8,18.8-41.6,33.9
		c-2.8,4-5.7,8-8.5,11.9c-6.7,2.6-8.7-2.5-10-6.9c-3-9.8-4.3-19.9-2.9-30.3c2.4-17.9,8.9-34.4,16.8-50.4c-0.2-0.5,1.2-1.5-0.6-1.5
		C474.7,305.3,474.2,305.5,474.2,305.5z"/>
	<path class="st2" d="M555.7,450.6c-2.1-8.3-8.8-12.2-12.9-18.2c-2.1-3-2.5-4.3-0.4-7.6c10.8-17.5,23.9-33.1,38.2-47.9
		c22.9-23.7,44.7-48.5,68.7-71c14-13.1,28.6-25.7,45.3-35.6c3.6-2.2,6.8-1.9,10.6-0.2c5.5,2.5,5.2,5.4,2.5,9.9
		c-7.6,12.7-18.3,22.7-28,33.5c-15.4,17.2-29.9,35-44.4,52.9c-6.8,8.4-14.1,16.4-21.4,24.5c-10.4,11.6-20.6,23.5-31.7,34.3
		C573.6,433.4,564.9,441.4,555.7,450.6z"/>
	<path class="st5" d="M688.7,255.6c16-12,33.1-22.4,49.7-33.6c18-12.1,35.9-24.3,53.8-36.5c0.7-0.5,1.5-0.8,2.5-1.3
		c1.6,3.3-1.3,4.7-2.3,6.3c-33.9,51.4-68,102.6-102,153.9c-14.5,21.8-28.8,43.7-43.3,65.5c-0.8,1.1-1.9,2-2.9,3
		c-5.9-3.1-2.2-9-4-13.5c-5.2-12.9,5.8-20.1,12.1-27.9c20.5-25.3,42.2-49.6,62.7-74.8c7-8.6,12.1-18.9,7.7-31
		c4.8-9.6,12.5-17.2,19.1-26.5c-6.9,5.4-13.8,9.5-20.2,14.3c-2.6,1.9-5.1,4.4-8.9,3.5C704.9,253.6,696.8,253.5,688.7,255.6z"/>
	<path class="st6" d="M544.3,355.8c12.2-2.7,24-2.3,36.1,4.1c-12.4,11.8-21.8,26-33.1,38.7c-10.6,7.2-28.2,5.8-36.1-2.8
		c-4.1-4.5-5.1-9.2-2.4-15c5.4-11.7,15.8-17.2,26.8-21.9C538.4,357.7,541.3,356.6,544.3,355.8z"/>
	<path class="st6" d="M83,931.2c2.1-13,8.2-24.6,12.7-36.7c3.6-9.6,8.8-18.5,12.8-28c6-14,14.6-14.7,28.2-10.3
		c3.4,1.1,6.7,3.3,9,6.3c1,2.9-1,4.9-2.3,7.1c-4.4,7.3-9.7,14.1-15.5,20.3c-12,12.8-22.7,26.8-37,37.2C88.6,929,86.6,931.8,83,931.2
		z"/>
	<path class="st6" d="M625.8,402.6c3.7,9-0.6,17.6-2,26c-2.7,15.7-10.3,29.6-20.9,41.5c-3.9,4.4-8.6,8.6-14.2,11.4
		c-7.1,1-11.2-3.1-10.2-10.9c1.1-9.1,4.8-17.4,9.8-24.9c9.7-14.6,21-28,32.7-41C622.2,403.3,623.5,401.8,625.8,402.6z"/>
	<path class="st7" d="M83,931.2c24.9-19.2,46-42,62.8-68.6c8.1,5.9,11.3,14.8,13.8,23.9c1.4,5.1-2,8.8-5.8,11.3
		c-20.6,13.6-41.8,26.1-65.4,34.2C86.5,932.7,84.4,933.8,83,931.2z"/>
	<path class="st7" d="M544.3,355.8c-7.8,5.3-17,8.1-24.6,14c-5.2,4-8.3,9.1-10.6,14.8c-2.1,5.3,3.8,12.9,11,15.2
		c9.2,2.9,18.2,1.2,27.1-1.2c-4.4,7.2-8.8,14.4-13.1,21.6c-1,1.7-1.8,2.3-3.8,0.9c-14.8-10.4-31.6-15.3-50.5-17.2
		C494.4,377.6,514.5,360.3,544.3,355.8z"/>
	<path class="st4" d="M477.2,304.2c-4.6,14.8-11.8,28.7-15.1,43.9c-2.9,13.3-2.3,26.1,1.1,39c1.1,4,3.4,7.4,8.4,7.2
		c-2.3,6.2-3.8,12.8-13.1,11.6c-3.3-0.4-6.9,1.1-10.3,2c-8.5,2.1-9.2,1.7-8.1-7.3c3-24.9,7.6-49.4,20.2-71.6
		c4.5-7.9,10.9-14.8,14-23.6c0,0-0.1,0.1-0.1,0.1C475,304.9,475.5,303.3,477.2,304.2z"/>
	<path class="st7" d="M625.8,402.6c-17.8,20.3-38.1,38.8-45.3,66.3c-1.9,7.4,0.5,10.8,8.2,12.5c-7.1,7.1-16.7,10.1-26,15.8
		c1-12.5-0.8-23.3-2.8-34.2c-1.1-6,4-7.4,7-10.2c18.4-16.6,36.6-33.5,52.8-52.4c1.5-1.7,2.4-5,4.8-4.3
		C626.9,397.1,625.2,400.5,625.8,402.6z"/>
	<path class="st5" d="M565.7,339.7c7.1-7.7,16.4-12.4,24.7-18.4c21.5-15.5,43.2-30.7,64.9-45.9c2.6-1.9,5.4-3.8,8.9-3.9
		c-13,11.5-27.2,21.7-38.5,35c-10.6,12.4-23.3,22.7-33.2,35.8c-2.6,3.4-5.3,4.8-9.9,2.8C577.3,342.6,571.4,341.4,565.7,339.7z"/>
	<path class="st8" d="M712.7,257.1c10.6-7.1,21.2-14.2,31.7-21.3c0.4,0.4,0.8,0.9,1.3,1.3c-8,9.3-14.2,20-23,28.6
		C719.3,262.9,716,260,712.7,257.1z"/>
	<path class="st9" d="M112.8,764.5c2.1-29.3,2.8-59.7,12.7-88.9c4.2-12.3,8.6-24.8,16.1-35.3c9.7-13.6,17.4-20.8,32.6-16.6
		c11.3,3.1,23,4.5,33.6,10c4.7,2.4,5.5,5,2.7,9.4c-3.6,5.6-7.4,11.1-12.7,15.2c-16.8,12.9-25.8,31.5-36.6,48.8
		c-13.5,21.7-22.8,45.5-34.1,68.3c-1.8,3.5-3.4,8.8-7.7,8c-4.6-0.9-5.9-6.3-6.5-10.8C112.6,770.3,112.8,767.9,112.8,764.5z"/>
	<path class="st10" d="M329.3,585.9c-16.8-1.9-33.6-4.3-50.5-5.7c-12.9-1-25.8-2.3-38.5-4.8c-5.9-1.1-11.7-3.2-16.3-7.9
		c-6.2-6.4-7.6-8.2-1.8-17.3c10.2-16,22.4-23,44.9-12.4c25.5,12,50.6,24.7,75.9,37.1c1.6,0.8,4,1.2,3.8,3.6c-0.2,2-2,3.2-3.7,4
		C338.7,584.7,334.2,586.2,329.3,585.9z"/>
	<path d="M148.5,565.6c11-0.2,21.8-2.5,33-0.3c6.3,1.2,9.4-5.4,12.6-9.9c8.5-11.6,31.9-28.6,46.8-32.5c-9.1,6.8-16.1,13.8-23.7,19.9
		c-9.7,7.8-17.1,17.4-24.4,27.2c-2,2.7-3.9,4.7-7.4,4.2c-21.6-3.4-41.9,0.5-61.2,10.7c-0.6,0.3-1.3,0.4-2.6,0.8
		c1.8-11.3,7-20.7,13.1-29.3c8.2-11.6,18.4-21.5,30.4-29.1c1.2-0.8,2.7-2.1,4.6-1.5c0.9,2.3-0.8,3.6-2.2,4.7
		c-12.2,10.2-21.8,22.5-30.1,37.1C141.4,566,144.8,564.7,148.5,565.6z"/>
	<path d="M371.5,651.5c9.9-9.8,16.6-22,24.3-33.4c0.5-0.8,1.2-1.4,2.8-3.2c-3.4,14.8-10.8,26-18.5,36.9c-3.8,5.3-7.9,10.5-11.7,15.8
		c-1.9,2.6-3.2,4.1-6.3,0.9c-11-11.4-22.5-22.4-34.1-33.2c-4.4-4-12.9-6.6-12.2-12.3c0.6-4.4,8-8,12.3-12
		c10.1-9.2,21.4-16.7,32.3-24.8c2.9-2.2,1.7,0.8,1.1,2.1c-6,8.7-14.8,14.7-22,22.2c-10.8,11.3-10.8,11.1,0,21.4
		c5.5,5.2,11,10.5,15.7,16.5C362.1,657.6,362.2,657.5,371.5,651.5z"/>
	<path class="st4" d="M371.5,651.5c-7.2,9.5-7.5,9.8-15.3,0.9c-7.9-9.1-16-18.1-25.6-25.4c-3.7-2.8-3.1-4.8-0.3-8.5
		c8.9-11.5,20.4-20.4,31-30c-1.5,5.7-5.7,9.8-9.4,13.8c-15.9,17.7-8.5,27.7,7.3,42.8C362.5,648.1,366.1,651.8,371.5,651.5z"/>
	<path class="st4" d="M148.5,565.6c-4.3,2.1-9.3,2.2-13.8,4.7c4.2-8.4,8.6-16.3,14.6-23.4c6.4-7.5,13-14.7,20.5-21.1
		c1.1-0.4,2.6-1.4,3.2-1c1.9,1.2,0.2,2.3-0.6,3.3C163.4,539.9,154.4,551.8,148.5,565.6z"/>
	<path class="st9" d="M348.3,528.5c-10.9-1.6-20.3-6.1-30-9.6c-4.9-1.7-9.7-3.8-14.2-6.4c-5.3-3-5.3-7.3-0.6-10.2
		c29.6-18.1,59.3-35.9,90.9-50.5c22-10.2,44.6-18.8,68.4-24.3c2.1-0.5,3.8-0.8,5,1.1c1.4,2.4-0.8,3.5-2.2,4.6
		c-23.5,17.9-45.3,37.8-67.3,57.3c-12.2,10.8-23.7,22.4-37.1,31.7C357,525.1,352.7,527.4,348.3,528.5z"/>
	<path class="st11" d="M176.3,858.5c1.6,2.1,3.3,4.1,4.8,6.2c9.9,13.6,23.6,13.8,38.4,11.4c8.1-1.3,16.5-1.1,24.7-1.7
		c13.7-1,27.2-3.4,40.7-5c23.4-2.8,46.4-7.8,69.4-13.2c-13.2,7.9-27.6,12.3-42.2,16.7c-23.9,7.1-48.4,10.4-72.9,13.8
		c-15.9,2.2-32.1,2.2-48.1,3.2c-3.2,0.2-5.6-0.5-6.7-3.8c-2.8-9-5.5-18-10.4-26.2C174.8,859.4,175.6,859,176.3,858.5z"/>
	<path d="M467.8,800.9c-9.6,20-24.9,33.8-45.4,41.8c-4.3,1.7-7.4,3.2-5.7-4.6c4.3-20.5,5.1-41.3-0.7-61.7c-1.3-4.7,2.1-5.4,4.8-6
		c11.5-2.8,22.6-6.8,33.9-10.3c5.8-1.8,11.1-4.9,17-6.7c-4.9,6.1-11.6,9.8-18.3,13.3c-6.7,3.5-13.7,6.4-21.2,7.9c-5,1-7.1,3-5.7,9.4
		c3.5,16.3,3,32.8-0.9,49.7C443.7,827.1,455.9,814.1,467.8,800.9z"/>
	<path d="M687.5,486.2c-29.6,47.7-81.3,61.6-121.5,51.3c18.1-3.3,35.6-5.3,52.9-8.8c19.4-3.9,35.8-12.8,50.3-25.9
		C675.3,497.2,681.4,491.7,687.5,486.2z"/>
	<path class="st11" d="M479.3,666.1c-5.9-7.2-8.9-16-14.1-23.5c-4.5-6.6-9.2-13.1-14.1-19.5c-2.3-3-3-5.5,0.4-8.5
		c9.2-7.8,18.1-15.9,27.9-24.5c-1.9,13.4-8.9,25.1-7.7,38C472.8,641,477,653.4,479.3,666.1z"/>
	<path class="st11" d="M526.7,556.9c2.8-36.2,4.9-72.4-0.1-110.2c6.1,4.6,7.2,10.1,8.8,15.1c6.1,19,4.4,38.2,1.1,57.4
		c-2.2,12.7-5.2,25.3-7.8,37.9C528.1,557,527.4,556.9,526.7,556.9z"/>
	<path class="st10" d="M484.1,324.3c-0.2-22.6,4.8-43.9,19.6-61.6c16.6-19.8,34.8-38,56.9-52.2c0.8,2.4-0.8,4-1.9,5.4
		c-12.8,17.2-25.1,34.7-40.6,49.9c-10,9.8-16.8,22.6-22.6,35.7C492,309.3,487.9,316.8,484.1,324.3z"/>
	<path class="st12" d="M477.2,304.2c-1,0.5-2,0.9-3,1.4c0-2,0.5-3.9,2.7-3.9C478.3,301.8,478,303.2,477.2,304.2z"/>
	<path class="st10" d="M700.1,273.5c-4.9,10-13.4,16.1-20,23.6c-11.7,13.4-24.7,25.6-36.9,38.5c-19.3,20.6-39.6,40.3-58.9,60.8
		c-7.1,7.6-13.7,15.6-22.2,21.8c-1.9,1.4-4.1,4.2-6.7,1.7c-2.2-2.2-1.3-4.7,0.6-7c5-6.2,9.4-13,14.8-18.8
		c17.8-19,35.5-38.2,53.6-56.9c12.7-13.1,25.2-26.3,38.8-38.5c8.8-7.9,17.8-15.5,27.3-22.5C692.8,274.5,695.6,272,700.1,273.5z"/>
</g>
<g>
	<path d="M943.5,408.5c5.7-0.7,10.1-3.9,14.3-7.4c4.5-3.8,7.2-8.8,9.5-14.1c1.6-3.7,3.3-7.4,6.7-10c2.4-2,4.6-1.5,5.8,1.4
		c2.3,5.3,3.3,11,3.5,16.7c0.5,11.3-1,22.5-4.2,33.4c-1.5,5.1-2.9,10.3-5.1,15.1c-6,13.5-15.1,24.5-27.5,32.7
		c-6.4,4.2-13.3,7-20.8,8c1.9,14.5,2.8,29.1,2.9,43.7c0,5.5-0.4,11-1,16.4c-0.5,4.5,0.8,8.1,3.2,11.7c2.1,3.1,2.9,7,3.7,10.6
		c1,4.2,1.8,8.4,2.4,12.7c1.2,9.6-0.4,18.5-5.7,26.7c-2.7,4.2-5.6,8.2-9.3,11.5c-5.2,4.6-11.5,7.1-18.3,8c-3.1,0.4-4.3,3-6.3,4.5
		c-8.2,6.1-16.3,12.2-25.1,17.4c-6.6,3.8-13.3,7.5-20.2,10.8c-4.8,2.3-9.4,4.7-14.5,5.8c-3.3,0.7-4.7,3.7-6.2,6
		c-6.2,9.4-13.8,17.5-23.1,24c-2.4,1.7-4.4,1.3-5.4-1.8c-1.5-4.5-2.1-9.1-2.3-13.8c-0.3-7.5,0.2-15,0.3-22.5c0-2.1-1.6-2.9-2.5-4.3
		c-3.2-4.7-6-9.5-8.6-14.6c-1.8-3.7-4-7.2-5.5-11c-2.7-7.1-5-14.4-6.8-21.9c-2-8-3.9-15.9-4.6-24.1c-0.2-2.2-2.6-3.6-3.9-5.4
		c-4.9-7.1-7.8-15-8.6-23.3c-1.3-12.9,2.8-24.4,12.1-33.3c5.1-4.9,11.4-8.5,18.7-10.1c3.1-0.7,6.1-2,9.3-2.7c1.2-0.3,2.1-2.2,3-3.4
		c9.2-12.6,18.3-25.2,28.6-36.9c3.6-4.1,7.4-8.2,11.6-11.6c2.6-2.1,1.9-3.8,1.2-6.1c-2.7-8.7-5.8-17.4-6-26.7
		c-0.2-8.5,1.2-16.8,3.3-25c1.8-7,3.9-13.9,6.8-20.4c4.6-10.2,10.2-19.9,17.2-28.7c2.2-2.8,5.3-4.8,8.2-6.8c3-2.1,6.4-0.1,6.8,3.5
		c0.4,4.7-0.2,9.3-0.7,13.9c-0.9,7.7,0.5,15.2,2.1,22.6c0.9,4.2,1.8,8.4,3.9,12.2c1.1,0.5,1.3,1.5,1.8,2.4c0.9,1.8,2,2.6,3.9,1.3
		c0.8-0.6,1.8-0.9,2.8-1.1c2.4-0.4,4.9-0.9,7.3-0.9c1.7-0.1,2.5-0.8,3-2.4c4.5-12.6,9.1-25.1,15.8-36.8c1.9-3.6,4.2-7,7.1-9.8
		c2.5-2.1,5.3-3.4,8.7-3c2.1,0.2,4,0.9,5.7,1.9c2.6,2.1,2.8,5,2.9,8c0.1,4.8-1.7,9.1-3.2,13.5c-3.8,11.1-7.6,22.2-10.6,33.6
		c-1,3.8,0.9,8.3,4.3,10.7C938.5,409.5,940.9,408.1,943.5,408.5z"/>
	<path class="st0" d="M928.1,345.4c-2.4,3.1-4.7,6.1-6.6,9.5c-3.5,4.9-6.5,10.2-9.8,15.2c-5,7.8-10,15.6-14.9,23.4
		c-0.4,0.6-0.8,1.1-1.3,1.5c-1.5,1.1-3.6,1.1-4.9,2.6c-0.5,0.5-1,0.4-1.6-0.3c-1.2-1.6-2.1-3.3-2.6-5.2
		c7.3-10.4,14.5-20.8,21.8-31.2c11.5-16.5,22.9-33.1,34.3-49.5c7.9-11.3,15.8-22.6,23.8-33.9c0.1-0.2,0.4-0.2,1.2-0.6
		c-1.1,6-2.2,11.6-3.2,17.1c-3.8,20.9-7.5,41.7-11.2,62.6c-3,16.7-6,33.3-9,50c-0.1,0.6-0.3,1.3-0.4,1.9c-2.5,1.2-5.2,1.5-8,1.6
		c-0.4-1.2,0.1-2.3,0.3-3.4c5-25.1,9.9-50.3,14.9-75.4c1.7-8.7,3.5-17.5,5.2-26.6c-8.4,12.2-16.1,24.4-24.3,36.3
		C930.6,342.6,929.4,344,928.1,345.4z"/>
	<path class="st1" d="M821.8,647.3c-3.2-0.7-6.4-1.3-9.8-0.6c-2,0.4-3.7,1.2-5.2,2.4c-1.5,1.2-2.8,1.3-3.9-0.5
		c-1.8-2.9-3.9-5.7-5.5-8.7c-3.2-6.2-6.5-12.3-9-18.8c-3-7.9-5.3-16.1-7.2-24.4c-1.8-8-2.5-15.9-1.6-23.9c0.5-4.7,1.8-9.3,3.8-13.7
		c1.4-3.1,4.3-4.2,7.3-4.8c12.1-2.1,24.3-2.5,36.4-1.1c7.8,0.9,15.5,2.7,23,5.1c3.4,1.1,6.6,2.5,9.7,4.3c3.5,2.3,6.6,5,8.9,8.7
		c1.4,2.2,1.9,4.3,1.3,6.8c-2.7,10.9-7.2,20.9-13.5,30.3c-5.9,8.9-12.3,17.3-19.6,25.1c-4.1,4.4-8.5,8.4-12.6,12.8
		C823.6,646.8,822.8,647.5,821.8,647.3z"/>
	<path class="st2" d="M876.5,564.3c-6.2-3.5-12.1-7.6-18.8-10.1c-12.9-4.7-26.2-7.6-40-7.8c-10-0.1-19.9,0.7-29.8,2.4
		c-5.9,1-9.7,5.8-11.2,10.9c-1.2,4.1-2.1,8.2-2.2,13.1c-6.5-8.6-9.2-17.7-7.9-27.6c1.5-12.2,6.6-22.3,18.2-28.2
		c10.5-5.4,21.6-7.7,33.2-7.8c13.6-0.1,27.1,1.5,40.4,4c9.2,1.7,17.8,5.2,26.2,9.3c0.7,0.3,1.2,0.9,1.8,1.3c2,1.4,2.8,3.4,3.4,5.7
		c2.1,7.5,2.2,14.9-0.6,22.3c-1.7,4.7-4.2,8.7-8.5,11.3C879.4,564,878.1,564.8,876.5,564.3z"/>
	<path class="st1" d="M887,516.9c-7-3.9-14.3-6.8-22.1-8.6c-10.9-2.5-22-4.6-33.2-5c-7.1-0.3-14.2-0.5-21.9,0.8
		c3.2-4.4,6-8.3,8.8-12.1c7.3-9.6,14.4-19.3,22.9-27.9c8.7-8.9,17.8-17.4,28.5-24.1c6.2-3.9,12.9-5.7,20.2-4
		c2.8,1.4,4.5,3.9,5.3,6.7c4.1,14.7,6,29.6,4.8,44.9c-0.9,10.3-4.4,19.5-10.7,27.6C888.9,516.2,888.3,517.1,887,516.9z"/>
	<path class="st3" d="M821.8,647.3c9.8-9.1,19.2-18.5,27-29.4c3.7-5.1,7.5-10.2,10.6-15.7c4.4-7.8,7.7-15.9,9.9-24.6
		c1.2-4.7-2.3-7.5-4.9-10.5c-1.4-1.7-3.4-2.7-4.7-4.5c4.8,1.6,9,4.5,13.2,7.2c10.3,6.5,19.3,14.7,24.7,25.7
		c3.7,7.7,4.9,16.3,1.2,24.7c-0.8,1.8-2.4,2.9-3.7,4.1c-5.8,5.1-12.1,9.6-18.5,13.9c-7,4.7-14,9.3-21.5,13c-6.6,3.3-13,7.4-20.5,8.4
		C832.5,653.2,827.2,650.2,821.8,647.3z"/>
	<path class="st4" d="M876.5,564.3c6.7-2.3,10-7.3,12.3-13.7c2.6-7.4,1.8-14.4,0.1-21.7c-0.5-1.9-1.8-3.3-2.6-5
		c14.2,5.5,25.7,14.4,34.4,26.9c8.5,12.2,12,25.6,9.9,40.3c-0.5,3.8-2.1,7.2-4,10.5c-3.5,6-7.2,11.7-13.4,15.4
		c-1.8,1.1-4,1.1-5.9,1.8c-1.4,0.5-1-0.5-0.8-1.3c1.7-8.5,0-16.8-3.6-24.2c-3.9-8.2-9.2-15.7-16.4-21.6
		C883.2,569,880.1,566.4,876.5,564.3z"/>
	<path class="st4" d="M976.4,383.4c2,14.5,0.8,28.2-2.7,41.7c-2.4,9.1-5.6,17.9-10.5,25.9c-5.9,9.6-13.6,17.4-23.6,22.9
		c-3.8,2.1-7.9,3-11.9,4.1c-1.7,0.5-2.9,0.6-3.5-2.1c-0.9-4.6-1.7-9.2-3.5-13.6c-0.7-1.7-0.3-3.1,0.9-4.4
		c4.6-4.9,8.7-10.2,11.7-16.2c2.7-5.4,3.7-11.3,3.1-17.3c-0.2-2.5-1.7-5.6-0.7-7.4c1-1.8,4.5-1.3,6.9-1.9c8.4-2,15.7-6.3,22.3-11.7
		c3.4-2.9,5.2-7.1,7.1-11.1C973.3,389.4,974,386.3,976.4,383.4z"/>
	<path class="st3" d="M887,516.9c4.9-5.6,8.9-11.7,10.6-19c3.6-15.2,2.5-30.4-0.7-45.5c-0.7-3-1.3-6.1-2-9.1c-0.7-3-2.9-5-4.7-7.3
		c9.6,0.8,16,5.8,20.3,14.5c4.2,8.5,6.2,17.6,8.1,26.7c3.4,16.7,4.3,33.7,4.5,50.7c0.1,4.9-0.5,9.9-0.8,15c-1.9-1.4-2.9-3.3-4.2-4.9
		c-5.2-6.4-11.7-11.1-18.8-15.1C895.2,520.8,891.1,518.8,887,516.9z"/>
	<path class="st2" d="M856.6,396.3c-2.3,4.3-2.9,9.1-3.7,13.7c-1.7,9.4,0,18.6,2.8,27.6c0.5,1.5,1.5,3.6,0.9,4.5
		c-1.4,1.9-3.5,3.3-5.5,4.7c-1.2,0.8-1.1-0.6-1.2-1.1c-4.6-13.6-6.8-27.2-3.1-41.5c2.3-8.7,4.5-17.5,8-25.7
		c3.6-8.4,8.3-16.1,13.4-23.7c2.2-3.3,4.4-6.4,7.3-9.3c0.4,2.2,0,4.1-0.5,5.9c-2,7.8-0.7,15.6,0.5,23.3c1.2,7.8,3.5,15.3,6.7,22.6
		c0.6,1.4,3,2.4,1.8,4.3c-0.8,1.3-2.2,2.2-3.4,3.3c-5.2,5.3-8.5,11.6-10.2,18.8c-0.4,1.9-0.9,3.8-1.3,5.7c-2.1,2-3.6,0.4-4.7-1
		c-2.6-3.2-4.6-6.7-5.7-10.7c-1.8-7-2-14-1.5-21.1c-0.1-0.1,0.2-0.7-0.4-0.5C856.7,396.2,856.6,396.3,856.6,396.3z"/>
	<path class="st2" d="M908.6,437.5c-2-2.7-5.1-3.2-7.5-4.8c-1.2-0.8-1.6-1.2-1.3-2.7c1.3-8.1,3.8-15.8,6.8-23.4
		c4.8-12.2,9.1-24.7,14.6-36.6c3.2-6.9,6.7-13.8,11.3-20c1-1.3,2.2-1.7,3.9-1.7c2.4,0.1,2.7,1.2,2.4,3.3c-0.9,5.8-3.3,11.1-5.3,16.6
		c-3.1,8.7-5.7,17.5-8.4,26.3c-1.2,4.1-2.7,8.2-4.2,12.3c-2.1,5.9-4,11.8-6.5,17.5C912.7,428.4,910.6,432.7,908.6,437.5z"/>
	<path class="st5" d="M928.1,345.4c4.1-6.9,8.8-13.3,13.2-19.9c4.8-7.2,9.5-14.4,14.3-21.6c0.2-0.3,0.4-0.5,0.7-0.8
		c1.1,1,0.3,1.9,0.1,2.7c-4.7,24.1-9.5,48.2-14.3,72.2c-2,10.2-4,20.5-6,30.7c-0.1,0.5-0.4,1-0.6,1.5c-2.6-0.2-2.2-3-3.5-4.4
		c-3.9-4-0.9-8.3,0.2-12.1c3.7-12.4,8-24.7,11.8-37.1c1.3-4.2,1.6-8.8-1.9-12.6c0.3-4.3,2-8.2,3-12.7c-1.7,3-3.6,5.6-5.3,8.4
		c-0.7,1.1-1.2,2.4-2.7,2.6C933.8,342.2,930.8,343.3,928.1,345.4z"/>
	<path class="st6" d="M890,404.2c4.1-2.8,8.5-4.5,13.9-4c-2.8,6.2-4.1,12.9-6.3,19.3c-2.8,4.3-9.5,6.4-13.7,4.4
		c-2.2-1-3.3-2.6-3.2-5.2c0.2-5.1,3.2-8.8,6.6-12.2C888.2,405.8,889.1,405,890,404.2z"/>
	<path class="st6" d="M807.2,686.4c-1.2-5.1-0.7-10.3-0.9-15.5c-0.1-4.1,0.4-8.2,0.5-12.3c0.1-6.1,3.2-7.6,8.9-8.1
		c1.4-0.1,3,0.2,4.3,1c0.8,0.9,0.4,2,0.2,3c-0.5,3.4-1.4,6.7-2.7,9.8c-2.5,6.5-4.3,13.3-8,19.4C809,684.8,808.6,686.1,807.2,686.4z"
		/>
	<path class="st6" d="M927.2,409.1c2.7,2.7,2.5,6.6,3.2,9.9c1.4,6.2,0.7,12.5-1.4,18.5c-0.8,2.2-1.9,4.5-3.5,6.3
		c-2.5,1.5-4.6,0.5-5.4-2.5c-1-3.5-0.9-7.1-0.2-10.7c1.4-6.9,3.5-13.5,5.8-20.1C926,409.9,926.3,409.2,927.2,409.1z"/>
	<path class="st7" d="M807.2,686.4c6.3-10.9,10.6-22.5,12.8-34.8c3.9,1,6.4,3.7,8.7,6.7c1.3,1.7,0.6,3.5-0.4,5
		c-5.6,8.1-11.5,16-18.9,22.5C808.7,686.5,808.2,687.2,807.2,686.4z"/>
	<path class="st7" d="M890,404.2c-2.1,3.1-5,5.6-6.9,8.9c-1.3,2.3-1.7,4.6-1.6,7.1c0,2.3,3.4,4.2,6.4,3.9c3.8-0.3,6.9-2.3,9.8-4.6
		c-0.5,3.3-1.1,6.6-1.6,10c-0.1,0.8-0.3,1.1-1.3,0.9c-7-1.6-14-0.9-21.2,1.3C874.9,419.9,879.7,410.4,890,404.2z"/>
	<path class="st4" d="M857.5,395.4c0.6,6.2,0,12.4,1.1,18.5c0.9,5.3,3.1,10,6.3,14.2c1,1.3,2.4,2.2,4.2,1.4c0.1,2.6,0.5,5.3-3.1,6.3
		c-1.3,0.4-2.4,1.5-3.5,2.3c-2.8,2-3.1,2-4.1-1.5c-2.7-9.6-4.7-19.4-3.4-29.5c0.5-3.6,1.8-7.1,1.6-10.8c0,0,0,0.1,0,0.1
		C856.8,396,856.7,395.3,857.5,395.4z"/>
	<path class="st7" d="M927.2,409.1c-3.5,10.2-8.2,20.1-6.6,31.3c0.4,3,1.8,3.9,4.9,3.4c-1.6,3.7-4.6,6.2-7.2,9.8
		c-1.5-4.8-3.8-8.5-6.2-12.2c-1.3-2,0.3-3.3,1-4.8c4.3-8.9,8.4-17.9,11.5-27.3c0.3-0.9,0.1-2.2,1.1-2.3
		C926.8,406.9,926.7,408.4,927.2,409.1z"/>
	<path class="st5" d="M895.5,395c1.4-3.9,4.2-7.1,6.3-10.5c5.6-9,11.3-17.9,17-26.8c0.7-1.1,1.4-2.2,2.7-2.8
		c-3,6.2-6.7,12.1-8.9,18.7c-2,6.2-5.2,11.9-6.8,18.2c-0.4,1.7-1.2,2.6-3.2,2.5C900.2,394.4,897.9,394.8,895.5,395z"/>
	<path class="st8" d="M937.2,342.3c2.8-4.2,5.6-8.5,8.5-12.7c0.2,0.1,0.4,0.2,0.7,0.3c-1.5,4.6-2.2,9.5-4.2,14
		C940.5,343.4,938.9,342.8,937.2,342.3z"/>
	<path class="st9" d="M792.9,620.5c-3.7-11.1-8-22.4-8.8-34.7c-0.3-5.2-0.6-10.5,0.6-15.5c1.5-6.5,3.3-10.3,9.5-11.1
		c4.6-0.6,9.2-1.8,13.9-1.4c2.1,0.2,2.8,1,2.4,3c-0.5,2.6-1,5.2-2.4,7.5c-4.3,7.3-4.7,15.5-6.1,23.6c-1.7,10.1-1.5,20.2-2.2,30.4
		c-0.1,1.6,0.1,3.8-1.6,4.1c-1.8,0.4-3.1-1.4-4.1-3C793.7,622.6,793.4,621.7,792.9,620.5z"/>
	<path class="st10" d="M845.7,521.7c-6.5,1.8-13.1,3.5-19.5,5.6c-4.9,1.6-9.9,3.1-14.9,4.1c-2.4,0.5-4.8,0.6-7.2-0.4
		c-3.2-1.4-4.1-1.9-3.3-6.1c1.3-7.5,4.8-11.9,14.7-11.4c11.2,0.5,22.4,1.4,33.6,2.2c0.7,0,1.7-0.2,1.9,0.8c0.2,0.8-0.2,1.5-0.8,2
		C848.9,519.9,847.5,521.1,845.7,521.7z"/>
	<path d="M775.9,541.7c4-1.8,7.7-4.2,12.1-5.1c2.5-0.5,2.6-3.4,3.2-5.6c1.4-5.6,7.4-15.4,12.3-19.1c-2.3,3.9-3.8,7.5-5.7,10.9
		c-2.4,4.4-3.7,9-4.9,13.7c-0.3,1.3-0.7,2.3-2.1,2.7c-8.5,2-15.4,6.5-20.9,13.2c-0.2,0.2-0.4,0.4-0.8,0.7c-1.1-4.4-0.6-8.7,0.4-12.8
		c1.3-5.5,3.5-10.7,6.8-15.4c0.3-0.5,0.7-1.2,1.5-1.2c0.7,0.7,0.2,1.4-0.1,2.1c-2.9,5.6-4.6,11.6-5.5,18.3
		C773.4,542.9,774.4,541.9,775.9,541.7z"/>
	<path d="M871.2,539.5c2.2-5.1,2.8-10.6,3.9-16c0.1-0.4,0.2-0.7,0.6-1.6c1,6,0,11.2-1.2,16.4c-0.6,2.5-1.3,5.1-1.9,7.6
		c-0.3,1.2-0.6,2-2.2,1.3c-5.8-2.5-11.7-4.9-17.6-7.1c-2.2-0.8-5.8-0.5-6.3-2.7c-0.5-1.7,1.7-4.2,2.7-6.3c2.3-4.9,5.4-9.4,8.2-14.1
		c0.8-1.2,0.8,0,0.7,0.6c-0.9,4.1-3.2,7.7-4.7,11.5c-2.3,5.8-2.3,5.7,3.3,7.9c2.8,1.1,5.6,2.2,8.3,3.7
		C868.6,543.2,868.7,543.1,871.2,539.5z"/>
	<path class="st4" d="M871.2,539.5c-1.2,4.6-1.3,4.8-5.5,2.7c-4.3-2.2-8.6-4.2-13.3-5.5c-1.8-0.5-1.9-1.3-1.4-3.1
		c1.5-5.6,4.4-10.6,6.9-15.8c0.3,2.3-0.6,4.5-1.4,6.5c-3.2,8.9,1.1,11.5,9.2,14.7C867.4,539.6,869.3,540.5,871.2,539.5z"/>
	<path class="st4" d="M775.9,541.7c-1.3,1.4-3.1,2.2-4.4,3.8c0.3-3.7,0.7-7.3,1.8-10.9c1.2-3.7,2.6-7.4,4.4-10.9
		c0.3-0.3,0.7-0.9,1-0.9c0.9,0.1,0.4,0.8,0.3,1.3C777.5,529.9,776,535.7,775.9,541.7z"/>
	<path class="st9" d="M844,497.7c-4.3,1.1-8.4,0.8-12.5,1c-2.1,0.1-4.2,0.1-6.2-0.2c-2.4-0.3-3.1-1.9-1.8-3.7
		c8.2-11.2,16.4-22.2,25.9-32.4c6.6-7.1,13.6-13.7,21.5-19.3c0.7-0.5,1.3-0.9,2-0.3c0.9,0.7,0.2,1.4-0.1,2
		c-5.9,10.2-11,20.8-16.1,31.4c-2.9,5.8-5.3,11.8-8.9,17.3C846.7,495.1,845.4,496.6,844,497.7z"/>
	<path class="st11" d="M830.6,645.5c0.9,0.5,1.8,1,2.7,1.5c5.7,3.5,10.8,1.5,15.9-1.6c2.8-1.7,5.9-2.9,8.9-4.4
		c4.9-2.4,9.5-5.4,14.3-8c8.2-4.6,15.9-9.9,23.6-15.4c-3.7,4.9-8.3,8.7-13,12.5c-7.7,6.2-16.3,11.2-24.8,16.2
		c-5.5,3.2-11.5,5.7-17.3,8.5c-1.1,0.6-2.2,0.7-3-0.4c-2.4-2.9-4.7-5.8-7.8-8.1C830.2,646.1,830.4,645.8,830.6,645.5z"/>
	<path d="M929.4,580c-0.5,8.8-4.1,16.2-10.4,22.3c-1.3,1.3-2.2,2.3-2.8-0.8c-1.5-8.2-4.4-16-9.6-22.7c-1.2-1.5-0.1-2.3,0.9-3
		c3.8-2.8,7.3-5.9,10.9-8.9c1.9-1.6,3.4-3.5,5.3-5.1c-0.9,3-2.8,5.4-4.7,7.7c-1.9,2.3-4.1,4.4-6.6,6.1c-1.7,1.1-2.2,2.2-0.7,4.3
		c3.7,5.5,6.1,11.6,7.2,18.5C924.5,593.3,927,586.7,929.4,580z"/>
	<path d="M962.6,430.6c-3.7,22.1-20.6,35.1-37,37.3c6.2-4,12.3-7.4,18.2-11.3c6.6-4.4,11.3-10.2,14.6-17.2
		C959.8,436.5,961.2,433.6,962.6,430.6z"/>
	<path class="st11" d="M913.2,528.5c-3.3-1.8-5.7-4.5-8.8-6.5c-2.7-1.8-5.4-3.4-8.2-5c-1.3-0.8-2-1.6-1.1-3.2
		c2.2-4.3,4.3-8.6,6.6-13.3c1.3,5.2,0.5,10.6,2.9,15.2C907,520.3,910.4,524.2,913.2,528.5z"/>
	<path class="st11" d="M914.1,481.1c-4.5-13.8-9.2-27.5-16.8-40.6c3,0.8,4.2,2.6,5.5,4.2c5.1,6.1,7.4,13.4,9.1,21
		c1.1,5,1.9,10.1,2.9,15.2C914.6,480.9,914.3,481,914.1,481.1z"/>
	<path class="st10" d="M863.1,401.8c-3.5-8.3-4.9-16.9-2.1-25.7c3.1-9.8,7.1-19.3,13.1-27.9c0.7,0.8,0.3,1.6,0.1,2.3
		c-2.1,8.3-4,16.6-7.4,24.6c-2.2,5.1-2.8,10.9-2.9,16.6C863.7,395,863.3,398.4,863.1,401.8z"/>
	<path class="st12" d="M857.5,395.4c-0.3,0.3-0.6,0.6-0.9,1c-0.3-0.7-0.4-1.5,0.4-1.8C857.5,394.3,857.6,394.9,857.5,395.4z"/>
	<path class="st10" d="M935,350.2c-0.3,4.4-2.5,8-3.8,11.8c-2.3,6.7-5.2,13.2-7.8,19.8c-4,10.5-8.5,20.9-12.5,31.4
		c-1.5,3.9-2.7,7.8-4.9,11.4c-0.5,0.8-0.9,2.2-2.2,1.6c-1.2-0.5-1.2-1.5-0.8-2.7c0.9-3.1,1.5-6.2,2.6-9.2
		c3.7-9.7,7.3-19.5,11.1-29.1c2.7-6.8,5.3-13.5,8.5-20.1c2-4.2,4.2-8.4,6.7-12.4C932.5,351.7,933.2,350.4,935,350.2z"/>
</g>
<g>
	<path d="M440.8,154.4c5.9,4.6,13,5.7,20.2,6.2c7.7,0.6,14.8-1.6,21.9-4.5c4.9-1.9,9.9-3.8,15.5-3.3c4.1,0.4,5.7,2.8,4.1,6.7
		c-2.8,7.1-7.1,13.3-12.1,18.9c-9.9,11.1-21.7,20.1-34.7,27.4c-6.1,3.4-12.2,6.9-18.7,9.5c-18.1,7.1-36.7,9-55.8,5.3
		c-9.8-1.9-18.8-5.7-26.8-11.8c-11.6,15.4-24.2,29.8-37.6,43.5c-5.1,5.2-10.5,9.9-16.1,14.4c-4.6,3.7-6.7,8.3-7.7,13.9
		c-0.9,4.9-3.7,9.2-6.3,13.3c-3,4.8-6,9.6-9.5,14.1c-7.7,10.1-17.4,16.9-29.9,19.7c-6.4,1.4-12.8,2.5-19.3,2.2
		c-9.1-0.5-17.3-4-24.4-9.4c-3.2-2.4-6.7-1.2-10-1.6c-13.3-1.9-26.5-3.6-39.5-6.9c-9.7-2.5-19.4-5.2-28.9-8.5
		c-6.5-2.3-13.1-4.3-19-7.9c-3.8-2.3-7.7-0.9-11.4-0.1c-14.5,3.1-29,3.6-43.7,1.2c-3.9-0.6-5.3-2.9-3.4-6.6
		c2.7-5.5,6.5-10.4,10.6-15c6.6-7.3,14-13.9,21-20.7c2-1.9,1.2-4.2,1.6-6.3c1.4-7.3,3.1-14.5,5.4-21.6c1.7-5.1,2.9-10.5,5-15.3
		c4-9.2,8.6-18.1,13.8-26.7c5.5-9.3,11-18.4,18-26.7c1.9-2.2,0.9-5.8,1.4-8.7c1.9-11.2,6.5-21.2,13.4-29.8
		c10.6-13.3,25.1-20.2,42-20c9.3,0.1,18.5,2.6,26.7,7.8c3.6,2.2,7.6,3.8,11.2,6.1c1.4,0.9,3.9-0.1,5.9-0.4
		c20.2-3.3,40.4-6.7,60.8-8.2c7.2-0.5,14.4-0.8,21.6-0.1c4.3,0.4,5.3-1.8,6.7-4.6c5.5-10.7,10.6-21.6,18.9-30.5
		c7.6-8.1,16.6-14.6,26.1-20.4c8.1-4.9,16.4-9.4,25.2-12.8c13.7-5.4,27.9-9.2,42.5-11.1c4.7-0.6,9.4,0.4,13.9,1.2
		c4.7,0.8,6.1,5.8,3.1,9.5c-3.9,4.8-8.8,8.5-13.5,12.3c-8,6.4-13.5,14.6-18.9,23.1c-3,4.8-6,9.6-7.7,15c0.6,1.4-0.1,2.6-0.6,3.9
		c-0.8,2.5-0.6,4.3,2.5,4.8c1.3,0.2,2.5,0.9,3.7,1.5c2.6,1.9,5.3,3.7,7.7,5.9c1.6,1.5,3.1,1.5,5,0.6c15.8-7.6,31.7-15.1,48.7-19.8
		c5.1-1.6,10.3-2.7,15.7-2.6c4.3,0.3,8.1,1.7,10.9,5.2c1.8,2.1,2.9,4.5,3.6,7.1c0.5,4.3-2,7.3-4.7,10.1c-4.3,4.5-10,6.9-15.4,9.7
		c-13.8,6.9-27.6,13.8-40.9,21.7c-4.4,2.6-6.9,8.6-5.9,14C435.2,150.7,438.7,151.6,440.8,154.4z"/>
	<path class="st0" d="M484.6,81.1c-5,0.7-10.1,1.4-15,2.8c-7.8,1.3-15.4,3.6-23.2,5.3c-11.9,2.6-23.7,5.3-35.5,8.1
		c-0.9,0.2-1.7,0.3-2.6,0.1c-2.4-0.4-4.4-2.3-7-2.1c-0.9,0.1-1.3-0.6-1.2-1.8c0.4-2.6,1.1-5,2.4-7.3c16.4-3,32.7-6,49.1-9.1
		c25.9-4.9,51.8-9.8,77.8-14.7c17.8-3.3,35.6-6.5,53.5-9.8c0.3-0.1,0.6,0.2,1.7,0.5c-6.6,4.6-12.7,8.8-18.8,13.1
		c-22.7,16-45.5,32.1-68.2,48.2c-18.2,12.8-36.3,25.6-54.5,38.4c-0.7,0.5-1.4,0.9-2.2,1.4c-3.5-1.2-6.3-3.4-9-5.8
		c0.7-1.4,2.1-2.1,3.3-2.9c27.9-18.9,55.6-37.9,83.5-56.8c9.7-6.6,19.3-13.1,29.4-20.1c-19.1,3.6-37.6,7.9-56.1,11.6
		C489.5,80.8,487.1,81.1,484.6,81.1z"/>
	<path class="st1" d="M106.8,265.4c-2.4-3.6-4.8-7.2-8.7-9.6c-2.3-1.4-4.5-2.3-7.1-2.5c-2.4-0.3-3.8-1.4-3.2-4.1
		c1-4.4,1.6-8.9,2.9-13.2c2.7-8.7,5.2-17.5,8.9-25.9c4.5-10.2,9.9-19.9,15.8-29.4c5.7-9.1,12.3-17.1,20.5-23.9
		c4.8-4,10.3-7.1,16.2-9.3c4.1-1.5,7.9,0,11.2,2.2c13.3,9.1,25,20,35.1,32.5c6.5,8,12,16.8,16.8,26c2.2,4.2,4,8.4,5.1,13
		c1.2,5.4,1.6,10.8,0.3,16.3c-0.7,3.3-2.2,5.8-5,7.5c-12.6,7.7-26,12.9-40.5,15.9c-13.7,2.8-27.5,4.8-41.5,5.5
		c-7.8,0.4-15.7,0.1-23.6,0.3C109,266.7,107.7,266.6,106.8,265.4z"/>
	<path class="st2" d="M234.5,238.3c-2.5-9-4.3-18.3-8.3-26.8c-7.7-16.3-17.5-31.2-30.3-44.2c-9.2-9.4-19.2-17.7-30-25.2
		c-6.5-4.5-14.5-3.5-20.5-0.1c-4.9,2.7-9.6,5.7-14.1,10.2c1.8-14,7.7-25,18-33.1c12.7-10,26.7-14.8,43-9.6
		c14.8,4.6,27.3,12.7,38.2,23.4c12.8,12.4,23.9,26.4,34.1,41c7,10.1,11.9,21.3,15.9,32.9c0.3,0.9,0.3,1.9,0.5,2.9
		c0.6,3.1-0.5,5.7-2,8.4c-4.9,9-11.7,15.9-21.1,20.3c-5.9,2.8-11.9,4.3-18.4,2.8C237.6,240.7,235.6,240.2,234.5,238.3z"/>
	<path class="st1" d="M288,203.7c-3-10.1-7.1-19.6-12.8-28.4c-7.9-12.4-16.3-24.5-26.4-35.3c-6.4-6.8-12.8-13.5-21.2-19.4
		c7-1.1,13.2-2.2,19.4-3.1c15.6-2.3,31.3-4.8,47.1-5.1c16.4-0.3,32.7,0.2,48.8,3.7c9.4,2.1,17.2,6.5,22.6,14.8
		c1.3,3.9,0.6,7.7-1.3,11.1c-9.8,17.5-21.7,33.3-37,46.4c-10.3,8.9-22.1,14.2-35.5,16C290.5,204.7,289.1,205,288,203.7z"/>
	<path class="st3" d="M106.8,265.4c17.5,0.5,35,0.3,52.3-2.6c8.2-1.4,16.4-2.6,24.4-4.9c11.3-3.2,21.9-7.8,31.9-13.9
		c5.4-3.3,4.7-9.1,5.1-14.3c0.2-2.8-0.8-5.7-0.2-8.5c3,6,4.2,12.5,5.7,19c3.6,15.6,4.5,31.5-0.6,46.7c-3.6,10.6-10.4,19.8-21.7,24.2
		c-2.4,0.9-4.9,0.6-7.3,0.4c-10.1-0.6-20.1-2.2-30.1-4c-10.8-2-21.7-4.3-32.1-7.7c-9.2-3-18.9-5.1-26.9-11.1
		C111.5,280.8,109.2,273.1,106.8,265.4z"/>
	<path class="st4" d="M234.5,238.3c8.3,4,16.1,2.4,24.2-1.5c9.2-4.5,15-11.8,20.1-20.2c1.3-2.2,1.3-4.7,2.2-7
		c8.2,18.2,10.8,37.1,7.4,56.9c-3.3,19.3-12.4,34.9-27.9,46.8c-4,3-8.6,4.8-13.4,6.1c-8.8,2.3-17.6,4.3-26.7,2
		c-2.7-0.7-4.7-2.6-7.2-3.8c-1.7-0.8-0.5-1.4,0.4-2c9.4-6.3,15.4-15.7,18.9-25.9c3.9-11.2,5.8-23.2,4.6-35.4
		C236.5,248.9,236,243.5,234.5,238.3z"/>
	<path class="st4" d="M494.7,161.1c-11.5,15.4-25.3,27-41,36.5c-10.6,6.3-21.7,11.6-33.6,14.5c-14.3,3.6-28.8,3.7-43.2-0.3
		c-5.5-1.6-10.1-4.5-14.9-7.2c-2-1.1-3.3-2.1-1.3-5.1c3.4-5.1,6.9-10.3,9.3-16c0.9-2.2,2.5-3.2,4.9-3.3c8.8-0.4,17.6-1.6,25.9-4.4
		c7.5-2.5,13.8-7.2,18.9-13.3c2.1-2.6,3.6-6.8,6.1-7.5c2.5-0.7,5.4,3,8.2,4.7c9.7,5.8,20.5,8.6,31.6,9.6c5.9,0.5,11.4-1.8,16.9-3.8
		C486.3,164,489.8,161.7,494.7,161.1z"/>
	<path class="st3" d="M288,203.7c9.7-0.7,19.1-2.7,27.5-8c17.4-10.9,30.3-26.1,41.2-43.2c2.2-3.4,4.4-6.9,6.5-10.4
		c2-3.4,1.9-7.4,2.3-11.1c8.3,9.6,9.6,20.2,5.6,32.3c-4,11.8-10.4,22.2-17.1,32.4c-12.2,18.8-27.1,35.5-42.6,51.6
		c-4.5,4.7-9.6,8.8-14.5,13.3c-0.5-3.1,0.3-5.8,0.5-8.5c1.1-10.8-0.7-21.2-3.7-31.5C292.2,214.8,290.1,209.2,288,203.7z"/>
	<path class="st2" d="M370.8,62.8c-6.1,1.9-11.1,5.8-16.1,9.4c-10.3,7.3-17.2,17.3-22.8,28.4c-0.9,1.8-2,4.8-3.4,5
		c-3,0.5-6.3-0.2-9.4-0.7c-1.8-0.3-0.4-1.6-0.1-2.1c8.2-16.9,18.7-31.7,35.4-41.7c10.2-6.1,20.3-12.2,31.2-16.7
		c11.1-4.5,22.6-7.4,34.3-9.9c5-1.1,10-2,15.4-1.9c-1.7,2.4-3.8,3.9-5.9,5.1c-9.1,5.5-15,14-21,22.3c-6,8.4-10.9,17.6-14.6,27.3
		c-0.7,1.9,0.6,5-2.3,5.7c-2,0.5-4.1,0-6.2,0c-9.7,0.2-18.7,3-26.9,8.2c-2.2,1.4-4.3,2.7-6.5,4.1c-3.7-0.1-3.7-2.9-3.5-5.3
		c0.5-5.4,1.8-10.5,4.6-15.2c4.7-8.2,11.1-14.9,18.1-21.1c0-0.3,0.9-0.5,0-0.8C371.1,62.8,370.8,62.8,370.8,62.8z"/>
	<path class="st2" d="M381.5,149.3c0.6-4.4-1.8-7.7-2.6-11.4c-0.4-1.9-0.3-2.6,1.3-3.8c8.7-6.4,18.1-11.3,28-15.6
		c15.8-7,31.3-14.7,47.4-20.8c9.4-3.6,19-6.8,29-8.3c2.2-0.3,3.7,0.4,5.2,2c2.2,2.3,1.5,3.6-0.7,5.3c-6.2,4.6-13.4,7.3-20.2,10.7
		c-10.9,5.3-21.4,11.1-32,16.8c-5,2.7-10.1,5.2-15.2,7.6c-7.4,3.5-14.6,7.3-22.2,10.4C393.6,144.5,387.8,146.6,381.5,149.3z"/>
	<path class="st5" d="M484.6,81.1c10.1-2.6,20.5-4.3,30.7-6.4c11.1-2.3,22.2-4.7,33.3-7c0.4-0.1,0.9-0.1,1.4-0.1
		c0.1,1.9-1.5,2-2.4,2.6c-26.6,18.2-53.3,36.3-79.9,54.4c-11.3,7.7-22.6,15.5-34,23.2c-0.6,0.4-1.3,0.6-2,0.9
		c-2.2-2.7,0.7-4.8,0.7-7.4c0-7.3,6.8-8.6,11.4-11.1c14.9-8.2,30.3-15.7,45.2-23.9c5.1-2.8,9.6-6.8,9.9-13.5c4.2-3.7,9.5-5.9,14.5-9
		c-4.4,1.2-8.6,1.9-12.6,2.9c-1.6,0.4-3.3,1.1-5,0C492.9,83.3,489,81.7,484.6,81.1z"/>
	<path class="st6" d="M394.8,101.1c6.4,1.1,12.1,3.7,16.7,9.1c-8.3,3.3-15.7,8.3-23.7,12.2c-6.6,1.4-14.8-2.8-16.9-8.5
		c-1.1-3-0.6-5.5,1.8-7.7c5-4.6,11.1-5.2,17.4-5.3C391.5,100.8,393.2,100.9,394.8,101.1z"/>
	<path class="st6" d="M57.1,288.6c3.6-5.9,8.8-10.3,13.4-15.3c3.6-3.9,7.9-7.2,11.8-11c5.7-5.6,10-4.2,15.7,0.6
		c1.4,1.2,2.6,2.9,3.1,4.8c-0.1,1.6-1.5,2.2-2.5,3c-3.6,2.7-7.5,4.9-11.6,6.8c-8.3,3.8-16.3,8.5-25.3,10.7
		C60.3,288.7,58.8,289.6,57.1,288.6z"/>
	<path class="st6" d="M425,139.9c0,5.1-3.8,8.4-6.1,12.2c-4.4,7.1-10.9,12.3-18.4,16c-2.8,1.3-5.9,2.5-9.1,2.7
		c-3.7-0.9-4.8-3.7-2.8-7.3c2.4-4.2,5.8-7.5,9.7-10.1c7.6-5.1,15.7-9.4,24-13.4C423.2,139.6,424.1,139.1,425,139.9z"/>
	<path class="st7" d="M57.1,288.6c15.9-4.4,30.6-11.2,44-20.8c2.8,4.5,2.6,9.4,1.9,14.3c-0.3,2.7-2.7,3.9-5,4.3
		c-12.7,2.5-25.5,4.4-38.5,3.6C58.5,290.1,57.3,290.2,57.1,288.6z"/>
	<path class="st7" d="M394.8,101.1c-4.8,1-9.8,0.6-14.7,1.9c-3.3,0.9-5.8,2.7-8,5.1c-2,2.2-0.7,7,2.3,9.5c3.9,3.3,8.6,4.2,13.4,4.8
		c-3.6,2.6-7.1,5.2-10.7,7.9c-0.8,0.6-1.3,0.7-2-0.3c-5.1-8-12.3-13.7-21.1-18.3C366.3,101.8,379.4,97.4,394.8,101.1z"/>
	<path class="st4" d="M372.5,62.8c-5.2,6.3-11.4,11.6-16,18.3c-4.1,5.8-6.3,12.2-7.2,19.1c-0.3,2.2,0.2,4.2,2.7,5.1
		c-2.3,2.5-4.4,5.4-8.6,3.1c-1.5-0.9-3.6-0.8-5.4-1.1c-4.5-0.7-4.8-1-2.5-5.1c6.4-11.5,13.4-22.4,24-30.7c3.8-3,8.2-5,11.5-8.7
		c0,0-0.1,0-0.1,0C371.3,62.6,371.9,62,372.5,62.8z"/>
	<path class="st7" d="M425,139.9c-12.6,6.3-26.2,11.3-35.1,23.2c-2.4,3.2-1.9,5.3,1.5,7.7c-4.9,2-10.1,1.6-15.8,2.5
		c3-5.8,4.2-11.5,5.4-17.1c0.6-3.1,3.4-2.8,5.4-3.5c12.2-4.4,24.4-9,36-14.9c1.1-0.5,2.2-2,3.2-1.1
		C426.7,137.5,425.1,138.7,425,139.9z"/>
	<path class="st5" d="M408.4,97.5c5-2.3,10.4-2.8,15.6-4c13.5-3.2,27-6.3,40.6-9.4c1.7-0.4,3.4-0.8,5.1-0.1
		c-8.6,3-17.5,5.1-25.6,9.3c-7.6,3.9-15.8,6.4-23.2,10.8c-1.9,1.2-3.5,1.3-5.4-0.6C413.4,101.2,410.8,99.5,408.4,97.5z"/>
	<path class="st8" d="M496,86.6c6.5-1.3,13.1-2.7,19.6-4c0.1,0.3,0.2,0.6,0.4,0.9c-5.7,2.9-10.8,6.9-16.8,9.3
		C498.1,90.7,497,88.6,496,86.6z"/>
	<path class="st9" d="M104.6,213.7c6.8-13.8,13.2-28.4,23.7-40.6c4.5-5.2,9.1-10.3,14.8-13.9c7.4-4.7,12.5-6.6,19.1-1.6
		c4.9,3.7,10.3,6.7,14.3,11.5c1.8,2.1,1.7,3.5-0.6,5.1c-2.9,2-5.8,3.9-9.1,4.8c-10.7,2.9-18.7,10.1-27.4,16.4
		c-10.8,7.9-20.1,17.5-30.1,26.4c-1.6,1.4-3.4,3.6-5.3,2.4c-2.1-1.3-1.6-4.2-1-6.5C103.4,216.5,103.9,215.4,104.6,213.7z"/>
	<path class="st10" d="M244.9,170c-7.8-4.3-15.4-8.8-23.4-12.8c-6.1-3.1-12-6.3-17.7-10c-2.7-1.7-5.1-3.9-6.3-7
		c-1.7-4.3-2.1-5.5,2.6-8.8c8.1-5.7,15.4-6.7,24.2,2.9c10,10.8,19.6,22,29.4,33c0.6,0.7,1.7,1.4,1.1,2.5c-0.5,0.9-1.6,1.2-2.6,1.2
		C249.7,171.3,247.3,171.2,244.9,170z"/>
	<path d="M161.3,124.4c5.4,2.1,11.1,3.1,16.1,6.4c2.8,1.8,5.6-0.8,8.1-2.3c6.4-4,21.1-7.5,29.1-6.5c-5.8,1.5-10.5,3.5-15.4,4.9
		c-6.3,1.9-11.7,5.1-17.2,8.3c-1.5,0.9-2.8,1.5-4.4,0.6c-9.8-5.9-20.4-8.1-31.8-6.9c-0.3,0-0.7-0.1-1.4-0.1
		c3.1-5.1,7.5-8.6,12.1-11.6c6.2-4,13.2-6.8,20.5-8.1c0.8-0.1,1.7-0.5,2.5,0.2c0,1.3-1.1,1.6-2,1.9c-7.9,2.6-15,6.6-22,12
		C157.8,123.2,159.7,123.2,161.3,124.4z"/>
	<path d="M252.4,210.2c6.7-2.8,12.4-7.4,18.4-11.4c0.4-0.3,0.9-0.4,2-1c-4.6,6.5-10.4,10.5-16.3,14.2c-2.9,1.8-5.9,3.5-8.8,5.3
		c-1.4,0.9-2.4,1.4-3.2-0.8c-3.1-7.7-6.4-15.3-10-22.8c-1.3-2.8-4.9-5.8-3.5-8.4c1.1-2,5.4-2.3,8.3-3.4c6.7-2.5,13.7-3.9,20.6-5.6
		c1.8-0.5,0.7,0.7,0.1,1.2c-4.6,3-10.1,4.2-15.1,6.4c-7.5,3.3-7.4,3.2-4.2,10.4c1.6,3.6,3.2,7.3,4.3,11.1
		C246.7,211.3,246.8,211.3,252.4,210.2z"/>
	<path class="st4" d="M252.4,210.2c-5.4,3.2-5.6,3.3-7.6-2.6c-2-6-4.2-11.9-7.4-17.4c-1.2-2.1-0.6-2.9,1.6-4.2
		c6.6-3.8,13.9-5.8,21-8.4c-1.8,2.5-4.7,3.6-7.3,4.9c-11.2,5.4-9.6,11.7-5,22.2C248.7,206.8,249.8,209.3,252.4,210.2z"/>
	<path class="st4" d="M161.3,124.4c-2.5,0.2-5-0.8-7.6-0.5c3.7-3.2,7.4-6.2,11.7-8.5c4.6-2.4,9.2-4.6,14.1-6.2
		c0.6,0,1.5-0.2,1.7,0.1c0.7,0.9-0.3,1.2-0.9,1.5C173.6,114.9,166.9,118.8,161.3,124.4z"/>
	<path class="st9" d="M265.5,146c-4.9-2.9-8.6-7-12.6-10.6c-2-1.8-3.9-3.8-5.6-5.9c-2-2.5-1.1-4.6,1.7-5.1
		c17.9-2.9,35.9-5.6,54.1-6.5c12.7-0.6,25.4-0.3,38,1.8c1.1,0.2,2,0.4,2.2,1.5c0.2,1.4-1.1,1.5-2,1.8c-14.9,4-29.4,9.4-44,14.4
		c-8,2.8-15.9,6.2-24.3,8C270.4,146.1,267.9,146.3,265.5,146z"/>
	<path class="st11" d="M116.8,271.9c0.4,1.3,0.8,2.6,1.1,4c2.1,8.6,8.7,11.4,16.4,13.1c4.2,1,8.2,2.7,12.3,4.1
		c6.8,2.2,13.8,3.8,20.7,5.6c11.9,3.3,24,5.4,36.2,7.3c-7.9,1.2-15.8,0.5-23.7-0.3c-13-1.3-25.5-4.6-38.1-7.7c-8.1-2.1-16-5.3-24-8
		c-1.6-0.5-2.6-1.3-2.5-3.2c0.4-4.9,0.9-9.8,0.1-14.8C115.9,272,116.3,272,116.8,271.9z"/>
	<path d="M269.5,301.7c-8.6,7.8-18.7,11.4-30.3,11.3c-2.4,0-4.2,0.1-1.9-3.4c6.1-9.1,10.6-19,11.9-30.1c0.3-2.6,2.1-2.2,3.5-2
		c6.1,0.9,12.3,1.2,18.5,1.7c3.2,0.3,6.4-0.2,9.6,0.1c-3.6,2-7.6,2.4-11.5,2.8c-3.9,0.4-7.9,0.4-11.8-0.4c-2.6-0.5-4,0-4.6,3.4
		c-1.5,8.6-5.1,16.5-10.3,23.9C252.6,309.6,261.1,305.8,269.5,301.7z"/>
	<path d="M438.4,192.6c-23.8,17.2-51.6,13.8-69,0.8c9.4,2,18.3,4.5,27.4,6.2c10.2,2,19.9,0.9,29.5-2.6
		C430.3,195.6,434.3,194.1,438.4,192.6z"/>
	<path class="st11" d="M301.8,238.7c-1.4-4.7-1.2-9.5-2.2-14.2c-0.9-4.1-1.9-8.2-3-12.2c-0.5-1.9-0.4-3.3,1.9-4
		c6-2,11.9-4.1,18.4-6.3c-3.6,6.1-9.3,10.4-11.3,16.9C303.6,225.2,303.2,232,301.8,238.7z"/>
	<path class="st11" d="M346.4,195.1c8.5-17,16.7-34.1,21.8-53.4c2.1,3.5,1.5,6.3,1.3,9.1c-0.8,10.4-5.5,19.4-10.8,28
		c-3.6,5.7-7.5,11.2-11.3,16.8C347.1,195.4,346.7,195.2,346.4,195.1z"/>
	<path class="st10" d="M371.8,73.9c4.4-11,11-20.3,21.7-26c12-6.3,24.4-11.5,38-14c-0.1,1.3-1.2,1.8-2,2.3
		c-9.6,5.8-19,11.9-29.6,16.1c-6.8,2.8-12.6,7.6-18,12.8C378.7,68.2,375.2,71,371.8,73.9z"/>
	<path class="st12" d="M372.5,62.8c-0.6,0-1.2,0-1.7,0.1c0.4-1,1-1.8,2.1-1.3C373.5,61.8,373.1,62.5,372.5,62.8z"/>
	<path class="st10" d="M486.6,92.1c-4.4,3.9-9.7,5.1-14.4,7.5c-8.3,4.2-17,7.5-25.5,11.4c-13.5,6.1-27.2,11.7-40.6,17.8
		c-5,2.3-9.7,4.9-15.1,6.2c-1.2,0.3-2.8,1.2-3.6-0.5c-0.7-1.5,0.3-2.5,1.7-3.3c3.7-2,7.1-4.5,10.9-6.2c12.4-5.7,24.8-11.5,37.3-17
		c8.7-3.8,17.4-7.7,26.4-11c5.8-2.1,11.7-4,17.7-5.5C482.9,91.1,484.7,90.4,486.6,92.1z"/>
</g>
</svg>
