<?xml version="1.0" encoding="utf-8"?>
<!-- Generator: Adobe Illustrator 23.0.1, SVG Export Plug-In . SVG Version: 6.00 Build 0)  -->
<svg version="1.1" id="Layer_4" xmlns="http://www.w3.org/2000/svg" xmlns:xlink="http://www.w3.org/1999/xlink" x="0px" y="0px"
	 viewBox="0 0 1000 1000" style="enable-background:new 0 0 1000 1000;" xml:space="preserve">
<style type="text/css">
	.st0{fill:#364F5B;}
	.st1{fill:#90A2A7;}
	.st2{fill:#1D333C;}
	.st3{fill:#FDFDFD;}
	.st4{fill:#141A23;}
	.st5{fill:#91A3A8;}
	.st6{fill:#1D323B;}
	.st7{fill:#F8F9F9;}
	.st8{fill:#1C2F38;}
	.st9{fill:#90A1A6;}
	.st10{fill:#F5F6F6;}
	.st11{fill:#364E5A;}
	.st12{fill:#1A2D35;}
	.st13{fill:#1C323A;}
	.st14{fill:#F3F3F3;}
	.st15{fill:#95A6AA;}
	.st16{fill:#1C2E37;}
	.st17{fill:#1C323B;}
	.st18{fill:#EEEFEF;}
	.st19{fill:#324B56;}
	.st20{fill:#EDEDEE;}
	.st21{fill:#1C313A;}
	.st22{fill:#141A22;}
	.st23{fill:#131A22;}
	.st24{fill:#1A2E35;}
	.st25{fill:#85989E;}
	.st26{fill:#334B57;}
	.st27{fill:#010202;}
	.st28{fill:#1E343D;}
	.st29{fill:#FBFCFC;}
	.st30{fill:#E2E7E8;}
	.st31{fill:#141B24;}
	.st32{fill:#6D7D81;}
	.st33{fill:#6B7B7F;}
	.st34{fill:#8FA1A6;}
</style>
<g>
	<path d="M820.2,347.7c22.4,0,43.8,1.3,65.1-0.4c14.8-1.2,20.6,5.2,24.1,17.7c10.5,38.1,21.3,76,31.8,114.1
		c2.2,7.9-0.7,14.5-8.9,15.9c-16.5,2.7-27.3,15.2-40.9,22.7c-6.7,3.7-11.5,10.1-13.1,20c-4.3,25.2-20,38.6-45.2,36
		c-18.1-1.9-26.3,10.9-35.7,19c-45.5,38.7-97.1,68.3-145.1,103.2c-38,27.7-73.5,58.8-110.2,88.4c-37,29.8-70.4,64-107.1,93.9
		c-20.3,16.5-46.1,30.3-75.1,15c-0.6-0.3-1.2-1.2-1.6-1.1c-31.7,8.5-66.1,7.4-95.5,23.7c-13.6,7.5-25.6,12.6-40.9,7.9
		c-19.9-6.1-37,5.8-54.6,11c-14.6,4.3-19.6,3-24.9-11.8c-7.3-20.2-6.8-42.8-17.7-61.1c-14.6-24.6-8.1-41.6,13.4-56.5
		c4.4-3,6.6-7.1,6.6-13c-0.4-24.1-0.3-48.2-0.1-72.3c0.1-7.9-3.3-11.9-10.2-7.5c-10,6.3-21.9-1.7-31.7,6c-3.3,2.6-7.2,0-10-5.2
		c-11.3-21.1-21-42.7-26.3-66.2c-4-17.4,9-27.4,18.3-37.7c28.7-31.6,59-61.8,88.3-92.8c45.1-47.7,83.2-100.6,114.5-158.1
		c39-71.6,90.9-134.6,134-203.4c16.4-26.1,34.7-51.1,51.1-77.2c8.2-13.1,20.3-8.2,29.5-6.8c64.2,9.6,126.7,27.1,190.1,40.7
		c23.6,5.1,47.9,8.5,71.9,8.9c20.1,0.4,39.6,6.5,59.5,4.3c8.5-0.9,10.8,5.7,11.3,10.2c3.6,31.7,17.4,60.1,28.5,89.3
		c3.6,9.3,3.3,17.4-4.1,23.4c-27,21.8-39.1,49.5-35.4,84.2C824.5,336.5,821.8,341.3,820.2,347.7z"/>
	<path class="st0" d="M382.6,832.2c-20.8,0.4-35.1,9.3-39.6,30.8c-2.3,6.3-7.5,8.9-13.5,9.2c-23.1,1.1-46.5,3.8-67.9-8.8
		c-13.3-8-24.5,3.5-39.7,4.6c30.7-28.3,58.8-55.5,88.5-81c17.8-15.3,32.3-33.6,49-49.8c46.1-44.7,93.2-88.2,139.2-133.1
		c26.4-25.8,50.1-54.2,78.5-78c7.8-6.5,13.1-16.4,24.2-18.6c10.2-2.4,20.2-4,28.2,5.2c-0.6,7.9-7.7,8.3-12.7,9.8
		c-17,4.9-26.9,16.1-28.4,33.2c-1.5,17,12.6,22.5,24.8,28.7c1.7,0.9,3.5,1.8,5.2,2.8c9.8,6.6,20.9,10.2,32.1,13.5
		c17.3,5.1,18.2,9.5,6.8,24.2c-30.1,38.8-68,69.3-105.6,100c-42.2,34.5-87.1,65.3-132.1,96C408.6,828.5,397.9,838.1,382.6,832.2z"/>
	<path class="st1" d="M570.7,448.9c0.8,1,1.7,1.9,2.3,3.1c17.6,35.3,2.4,56.8-24.4,82.8C475,606.2,399.3,675.7,330.2,751.9
		c-44.5,49.1-98.8,88.2-146.9,133.8c-7.4,7-13.5,15.8-23.6,19.7c-10.6-36.2-1.6-67.8,22.9-95.6C233.7,751.9,281.5,691,338,638.2
		c58.9-55,111.6-115.7,166.4-174.5c5.8-6.2,11.7-12.2,17.8-18C540.9,428,554.1,428.9,570.7,448.9z"/>
	<path class="st2" d="M625,488.3c-28.7,4.7-28.7,4.7-35.8-23.8c-6.1-24.4-11.7-49-18.3-73.3c-3.9-14.4,0.7-19.5,15.5-20.2
		c44-2.2,88-4.9,132.1-4.1c42.7-2.7,85.4-3.6,127.9,0.8c26.2,2.7,53,31.4,56.6,57.4c2.5,18.6-5.7,29.7-24.6,32.8
		c-10.9,1.7-22.1,1.6-33,0.9c-53.1-3.6-104.6,6.3-156,17.7C668.1,481.2,646.6,484.6,625,488.3z"/>
	<path class="st1" d="M503.4,222.4C416.3,344,319.6,457.9,219.5,568.9c-37.4,41.4-73.9,83.7-114,122.6c-10.1-22.5-3.3-43.4,7.2-63.2
		c9.4-17.8,22.1-33.6,36.4-47.9c45.4-45.5,91.5-90.4,123.9-146.9c1.3-2.3,3.5-3.8,5.9-4.8c3-0.7,6.9,3,8.7,0.2
		c1.9-2.9-2.9-4.9-3.8-7.9c-0.7-8.5,4.8-14.4,8.7-20.9c12-19.8,25.1-38.9,36.2-59.2c4.1-7.5,7.5-16.9,18.5-17.6
		c6.1,1.5,5.6,17.4,14.4,9.2c10-9.3,0.3-17.1-7.1-23.6c-1.3-8.8,4.6-14.7,9-20.9c23.8-33.3,47.2-67,70.9-100.4
		c3.8-5.3,8-10.3,13.1-14.4c4.5-3.6,9.2-8.5,15.5-3.8c6.4,4.7,5.3,11.3,2.7,17.7c-2.7,6.7-7,12.4-11,18.4
		c-13.7,20.5-26.9,41.3-40.6,58.8c15.6-22.3,37.1-40,67.1-45.3C488.8,217.6,496.8,216.2,503.4,222.4z"/>
	<path class="st2" d="M660.1,215c-42.3,1.4-83.9-6.8-126-8c-8.2-0.2-12.7-3.3-14.8-12.1c-7.2-30.9-15.3-61.6-23.1-92.3
		c-2.5-9.8-1.5-14.2,11-11.4c61.2,13.6,122.5,27,184,39.1c31,6.1,62.6,9.5,93.9,14.1c9.7,4.3,22.2,2,29.5,12.4
		c10.3,14.5,6.8,35.9-8.3,46.7c-9.6,6.9-20.3,12.3-32.2,12.6C736.1,217.5,698.1,217.9,660.1,215z"/>
	<path class="st2" d="M628.6,515.1c-7.4-8.7-17.8-6.7-27.3-7.6c21.8-5.7,44.4-5,66.6-7.6c43.4-3.4,86.2-12.6,130-11.4
		c6.7,0.2,16.2-3.9,18.7,7.7c-7.1,3.8-14.8,6.9-21.3,11.6c-15.5,11.2-13.4,27-9.8,42.8c2.8,10.8-5,16.8-11,23.3
		c-24.1,25.7-52.9,45.8-81.8,65.6c-28.9,19.8-55.8,42-83.2,63.6l0,0C550.5,745.3,497.5,795,438,836.4c-7.1,4.9-13.5,13.2-24,7.4
		c-8.2-10-21.7-5.6-31.3-11.6c6.3-0.7,12.5-0.4,18.5-4.5c76.8-51.6,152.3-105.1,219.4-169.2c13.1-12.5,24.2-26.9,36.6-40.2
		c8.5-9.1,3.8-11.4-5.6-13c-12.7-2.1-25.1-5.3-34.6-15.1c5.9-6.9,14.2-5.1,21.7-5.5c7.8-0.4,15.5-0.6,22.8-3.7
		c16.2-6.8,25.8-19.2,24-31.5c-1.7-12.1-16.9-25.5-31.4-28.2C645.5,519.8,635.7,523.1,628.6,515.1z"/>
	<path class="st2" d="M699.1,351.3c-43.4,0.6-86.6,3.2-129.7,7.5c-10.8,1.1-18,4.4-23.7,13.7c-4.3,7-9.7,13.8-18.9,17.4
		c-5.5-9.8-3-20.3-3.2-30.2c-0.5-27.3,0.3-54.6-0.5-81.8c-0.4-13.2,4.6-17.6,17-16.1c23.1,2.8,46.2,5.3,69.2,7.9
		c31.3,3.7,62.6,7.5,93.3,14.7c20,4.7,35.4,15.6,44.1,34.6c8.5,18.5,1.1,30-18.9,30.7C718.3,350,708.5,347.6,699.1,351.3z"/>
	<path class="st0" d="M390.7,445.5c-30.4-2-43.6,20.8-58.3,40.8c-17.4,23.8-39,43.6-60.2,63.7c-10.7,10.2-18.2,20.1-11.4,35.5
		c1.2,2.8,0.7,6.4,0.9,9.7c1.4,24.3,1.4,24.6-21.6,21.7c-12.2-1.6-20.7,1.8-28,12.3c-14.4,20.8-29.3,41-50.8,55.9
		c-11.9,8.2-24.1,11.2-37.1,13.6c-3.9-7,1.6-9.2,4.3-12.1C259.9,546,388,402.5,501.2,246.7c23.3-32,51.2-23.7,79.4-23.1
		c35.6,0.7,71.2,4.6,106.7,7.1c-0.7,9.6-8.8,10.6-15.3,11.8c-36.3,6.7-73,5.1-109.6,3.7c-11.6-0.6-23.3-0.7-34.9-2.1
		c-9.7-1.1-16.6,3.2-21.9,9.9c-19.3,24.4-38.4,49-57.1,73.9c-5.6,7.4-8.1,16.7-6.3,25.9c4.5,22.5,2.6,45.2,2.7,67.9
		c-7.5,13-20.6,16.3-33.7,19.9C404.3,443.5,396.9,441.2,390.7,445.5z"/>
	<path class="st3" d="M281.2,429.6C246.9,491.2,197.1,539.8,148,589c-28.1,28.2-47.2,60.5-42.5,102.4c-20.1-19.3-21.7-52.5-3.6-72
		c44.1-47.7,91.4-92.6,131.8-143.6c34-42.9,56.5-93.2,87.2-138.3c50.4-74.2,100.4-148.6,150.7-222.9c2.1-3.1,4.4-6.1,7.9-11.1
		c9.8,37.2,19,72.2,28.3,107.1c1.3,5,0.2,8.9-4.3,11.7c-42.5-4.4-67.7,24.3-97.4,47.7c15.9-23.9,31.9-47.8,47.5-71.9
		c5-7.7,16.9-17.7,7.8-24.8c-9.6-7.5-15.6,7.1-20.5,14c-28.8,40.1-56.8,80.8-85.1,121.4c1.2,7.5-2.9,11.6-9,14.5
		c-22.6,31.6-40.9,65.8-61.3,98.8C286.9,426.2,284.7,428.3,281.2,429.6z"/>
	<path class="st3" d="M570.7,448.9c-29.9-16.5-29.8-16.4-54.9,10.5c-48.3,51.9-94.3,106.1-145.5,154.8
		c-61.4,58.4-116.1,122.5-172.9,185c-28.1,30.9-42.9,64.4-37.7,106.1c-9.6-14.9-8-33.7-15.1-48.8c-12.6-26.8,5.1-40,20-55.5
		c93.6-97.3,193.6-188.5,282.1-290.8c31.4-36.3,62.3-73,93.4-109.5c4.1-4.8,8.5-9.5,14.2-15.9C560.2,407.6,565.4,428.2,570.7,448.9z
		"/>
	<path class="st4" d="M625,488.3c59.5-16.3,118.6-34.1,181-35.2c20.1-0.3,40.2,0,60.3-0.1c32.9-0.1,41.4-13.8,26.2-42.8
		c-15.3-29.3-41-42.2-72.9-43c-33.7-0.8-67.4-0.4-101.2-0.4c4-4.5,9.5-3.6,14.6-3.6c47.5-0.1,95,0.4,142.4-0.3
		c13.2-0.2,18.5,5.5,21.4,17.1c8,31.9,16.6,63.6,25.5,97.4c-31.1-1.5-60.5-3.9-89.7-6.2c-26.8-2.1-52.6,2.2-78.9,3.5
		C710.8,476.9,668.5,488.4,625,488.3z"/>
	<path class="st4" d="M699.1,351.3c8.7-7,18.8-2.8,28.2-3.5c16.8-1.2,22.7-10.6,15.4-26c-8.3-17.6-22.2-28.3-41.1-32.4
		c-30.8-6.6-61.6-13.2-92.3-19.7c61.2,3.9,122.5,7,183.5,14.4c14.6,1.8,17.1,8.2,15.7,20.1c-1.4,11.5-3,23.1-4,34.6
		c-0.7,8.3-6.1,9.2-12.3,8.8C761.1,345.3,730.4,354.3,699.1,351.3z"/>
	<path class="st2" d="M562.4,246.2c34.5-2.7,69.1-5.3,103.6-8.1c7.6-0.6,15.2-2,21.3-7.5c45.6,4.3,91.5,4.3,136.9,11.2
		c13.7,2.1,11.5,5.8,4.5,13.9c-9.2,10.6-18.3,14.6-33.7,12c-32.4-5.4-65.4-8.5-98.2-9.4c-42.7-1.2-85-7.2-127.6-8.9
		C566.9,249.3,564.6,247.3,562.4,246.2z"/>
	<path class="st5" d="M473.5,320.8c10.1-14.2,20.3-28.4,30.4-42.6c7.1,2.5,4,7.9,4.1,11.7c0.7,31.8-0.2,63.6,1.8,95.3
		c1.4,22.4-3.7,40.5-20.8,55.4c-5.8,5-10.4,11.4-15.5,17.2c-6.6-5-6.5-12.3-6.5-19.4c-0.1-28.5,0-57-0.4-85.5
		C466.5,341.5,472.2,331.7,473.5,320.8z"/>
	<path class="st1" d="M355.4,478.3c5.3-15.1,14.1-16.6,27.8-9.2c18.5,9.9,38,17.9,58.3,27.3c-15.4,16.4-29.3,31.3-43.3,46.2
		c-9.2-6.9-20.2-10.7-29.8-17.1C343.1,508.6,341.8,505.3,355.4,478.3z"/>
	<path class="st4" d="M660.1,215c37.9-2,76,3.1,113.9-3.7c12-2.1,22.4-7,31.8-13.1c15.6-10.2,13-36.2-3.6-45.2
		c-5.6-3-11.4-5.6-17-8.4c30.5-0.1,30.3-0.1,40.5,29.4c6.3,18.3,13.3,36.3,20.3,55.1c-17.2,3.9-32.5-1.6-47.4-3.3
		c-41.2-4.9-82.4-7.8-123.9-7.1C669.5,218.7,664,219.6,660.1,215z"/>
	<path class="st1" d="M304.1,538.4c3.3-2.8,8.3-14,9.6,0.2c2.4,27.1,4.1,54.4,3.8,81.6c-0.2,14.1-14,20.5-23.9,28.4
		c-5.2,1.4-6.9-2-7.7-6c-7.1-35-10.6-69.4,16-98.9C303.1,542.2,303.6,540.3,304.1,538.4z"/>
	<path class="st4" d="M609.4,703.1c28.9-31.7,65-54.7,98.7-80.4c28.1-21.5,59-40,77.3-72.1c13.8,9,19.3,15.5,1.4,28.9
		c-31.5,23.8-63.5,46.6-96.9,67.4c-24.2,15.1-45.7,33.7-68.7,50.3C617.5,700,614.3,703.2,609.4,703.1z"/>
	<path class="st4" d="M816.5,496.2c-21.8-8.6-44.6-5.3-66.3-2.6c-27.4,3.5-54.6,7.4-82.3,6.3c22.2-10,46.6-7.2,69.8-11.2
		c33.8-5.8,68.2-4.1,102.5-4.7c18.8-0.3,36.5,5.2,55.7,4.7c-3.1,11.7-13.6,13.4-19.4,19.9c-10.9,12.1-14.9-3.4-22.2-5.3
		C841.8,499.9,829.5,496.4,816.5,496.2z"/>
	<path class="st6" d="M371.3,570.4c-12.8,13.6-25.6,27.2-41.4,44c0-31.8,0-59.4,0-87.5c5.8,0.3,9.9,4.2,14,8.1
		c7.2,6,16.2,9.7,22.1,17.4C370,557.7,376.2,562.4,371.3,570.4z"/>
	<path class="st4" d="M414,843.9c30.3-12.5,53.8-35.1,79.4-54.4c33.5-25.3,65.9-52,99.1-77.6c4.8-3.7,9.6-9.2,16.9-8.8
		c-20.3,23.9-47.6,39.5-71,59.8c-28.4,24.5-58,47.6-84.6,74.1c-8.6,8.6-18.5,16-28.5,24.5C421.2,855.2,417.6,849.5,414,843.9z"/>
	<path class="st7" d="M473.5,320.8c5.2,15.3-1.9,30.2-1.2,45.6c1.4,30.4,0.9,61,1.1,91.5c-3.2,4-6.4,8-13.6,17.1
		c0-19.1,0.2-33-0.1-46.8c-0.4-20,1.3-40-1.9-59.9C455,349.9,459.6,333.7,473.5,320.8z"/>
	<path class="st8" d="M800.4,543.4c-11.2-11.9-6-22.1,4.9-29.1c13.5-8.7,28.8-8.5,42.4,0.3c8.6,5.6,17.9,14.5,13.8,25.6
		c-3.7,10-12.1,18.8-25.1,18.5c-7-0.1-14.4,2.1-20.6-3.2c2.1-5.7,7.9-8.4,10.9-13.5c3.9-6.7,9.8-14.4,0.4-20.2
		c-8.7-5.4-14.1,2.2-18.8,8.6C805.2,534.4,805.2,540.4,800.4,543.4z"/>
	<path class="st9" d="M214.3,647.9c3.3-6.6,6.8-10.7,14.6-4.4c12.5,10.2,25.7,19.6,39.2,29.8c-7.4,8.3-13.1,16.7-22.2,21.8
		c-4.2-8.1-13.2-10.2-19.7-15.5C215.8,671.2,210.2,661.6,214.3,647.9z"/>
	<path class="st10" d="M304.1,538.4c5.3,7.6-3.1,11-5.5,15.8c-15.7,30.9-19.9,62.1-5.1,94.4c-2,4.8-5.6,7.9-12.1,10.2
		c-2.4-28.9-4-57-9.7-84.5c-1.5-7.5,4.3-10.2,8.2-14C287.8,552.8,296,545.7,304.1,538.4z"/>
	<path class="st11" d="M800.4,543.4c-1.2-12.4,4.6-21,14.8-27.1c6-3.6,11.6-4.8,17.2,1.4c4.7,5.1,8.2,9.4,4.1,16.8
		c-5,9.1-8.4,19.2-20.6,21C808.8,553.8,803.9,549.4,800.4,543.4z"/>
	<path class="st12" d="M261.6,863.4c20.4,0.9,40.5,5.8,61.1,3.9c7-0.7,14.2,0.3,20.3-4.2c2.2,10.6-4.5,13.8-12.9,15.4
		c-8.2,1.6-16.8,1.8-24.8,4.2C284.9,889,269.4,885.3,261.6,863.4z"/>
	<path class="st13" d="M218.9,722.8c-7.7,8.4-15.4,16.9-25.4,27.8c-4.8-22.7,3.3-41.7,2.7-61c-0.2-6.6,4.7-0.2,7,1.7
		C211.2,700.4,221.4,708.4,218.9,722.8z"/>
	<path class="st14" d="M355.4,478.3c-7.4,30.4-7.3,30.1,19,46.3c8.4,5.2,20,6.6,23.9,18c-24.2-3.3-41.9-20.5-63.3-29.9
		c-7.2-3.2-1.6-7.2,1-10.4C342.4,494.3,348.9,486.3,355.4,478.3z"/>
	<path class="st15" d="M168,695.3c2.5-3.8,6.3-7.5,10.5-6c4.1,1.5,2.1,6.8,2,10.4c-0.2,18.7-1.1,37.3-0.8,55.9
		c0.1,9.1-4.2,14.3-11.1,18.6c-9.5-18.8-3.3-38.8-3.9-58.2C164.7,709.3,166.4,702.2,168,695.3z"/>
	<path class="st16" d="M378.7,847.4c10-7.3,16.6,0.4,23.1,5.9c4.9,4.1,5.9,10.2,2.8,15.7c-5.6,10.2-16.1,12-26.2,13.1
		c-5.7,0.6-11.2-2.1-14.5-7.5C371.6,867.1,384.6,862.4,378.7,847.4z"/>
	<path class="st17" d="M397.7,458.6c14.9-2.8,25.9-0.5,36.2-4.6c4.1-1.6,10-1.4,10.8,4.5c0.9,6.2,6.5,12.6,2.8,18.5
		c-3.8,6-9.7,0.4-13.8-1.2C422.6,471.4,412.1,465.6,397.7,458.6z"/>
	<path class="st18" d="M168,695.3c9.7,11.3-0.6,23.1,0.5,34.8c1.4,14.6,0.2,29.5,0.2,44.2c-2.6,2.3-7.5,11.7-8.2,2.3
		c-1.9-24.8-0.2-50,0.6-75C161.2,699.4,165.6,697.4,168,695.3z"/>
	<path class="st19" d="M378.7,847.4c7.7,1.1,9.9,6.6,7.1,12.4c-4.2,8.8-10.4,16.2-22,14.8C351.5,857.5,354.3,852.4,378.7,847.4z"/>
	<path class="st20" d="M214.3,647.9c0.6,17.6,11.6,27.9,25.3,36.4c3.9,2.4,7.7,5.1,6.4,10.8c-8.3-4.6-16.6-9-24.7-13.9
		C200.5,668.7,200.6,668.7,214.3,647.9z"/>
	<path class="st21" d="M390.7,445.5c18.2-7.6,37.3-13.1,54.1-23.8c3,13.1-1.3,21-15.6,21.8C416.4,444.2,403.5,444.8,390.7,445.5z"/>
	<path class="st11" d="M230.5,879c7-5.7,14.3-9.4,23-3.5c2.1,18.8-7.3,29.5-27.1,30.8c-3.8-1.3-6.9-3.3-8.3-7.2
		C221,891.6,236.9,892.1,230.5,879z"/>
	<path class="st22" d="M218.9,722.8c-5.2-10.5-10.5-21-15.7-31.5c5.2,2.1,10.5,4,15.5,6.4C235.6,705.8,234.3,714.3,218.9,722.8z"/>
	<path class="st6" d="M226.5,906.4c15-5.1,24-15.4,27.1-30.8c10.2,4.6,10.8,12.5,4.6,19.9C250.2,904.9,241.4,915.5,226.5,906.4z"/>
	<path class="st23" d="M371.3,570.4c-3.1-16.5-19.8-22.5-27.4-35.4c12.9,1.6,22.3,10.6,32.4,17.1
		C389.4,560.5,376.8,565.3,371.3,570.4z"/>
	<path class="st24" d="M243.9,634.2c17.9-4.1,26,1.4,25.1,19.9C258.5,650,250.6,644.6,243.9,634.2z"/>
	<path class="st25" d="M230.5,879c7.5,0,16.1-0.6,6.9,10.4c-5,5.9-10.8,10.5-19.3,9.7C211.4,885.7,224.2,884.4,230.5,879z"/>
	<path class="st26" d="M179.8,909.1c8.4-6.7,15.6-12.4,21.7-17.2C205.7,907.9,205.4,908.3,179.8,909.1z"/>
	<path class="st27" d="M628.6,515.1c13.3,1.7,27.7-3.1,39.9,5.1c13.6,9.2,26.5,19.4,22.8,39c-2.6,13.6-23.2,29.1-41.3,30.5
		c-11,0.8-22,0.4-33,0.6c-38-11.8-41.5-30.8-25.8-57.4C599.2,519.4,614.6,517.9,628.6,515.1z"/>
	<path class="st28" d="M519.8,639.8c-10.3-1.8-22.3,5.6-22-8.7c0.2-7.3,5.7-15.8,15.4-13.4c9.4,2.4,23.7,4,23.5,15.4
		C536.6,644.8,524,639.1,519.8,639.8z"/>
	<path class="st29" d="M320.1,730.2c66-73.4,127.4-151.4,210.4-207.8c-66.9,72.5-139.9,139.1-206.6,211.7
		C320,735.2,318.9,733.8,320.1,730.2z"/>
	<path class="st30" d="M320.1,730.2c1.3,1.3,2.5,2.6,3.8,3.9c-7.1,8.6-14.1,17.2-21.2,25.8c-1.8-1.8-3.6-3.6-5.4-5.5
		C303.5,745.2,311,737,320.1,730.2z"/>
	<path class="st31" d="M629.3,448.5c-7.3,0.3-8.2-4.2-8.1-9c0.3-13.2,9.8-18.8,20-23.3c5.1-2.3,7.4,1.4,6.9,5.9
		C646.7,434.6,639.4,443,629.3,448.5z"/>
	<path class="st32" d="M346.9,323.3c3-4.8,6-9.7,9-14.5c12.2-1,16.7,5.6,14.9,16.5c-1.2,7.6-3.5,17.4-12.5,17.2
		C347.5,342.3,348.4,331.2,346.9,323.3z"/>
	<path class="st32" d="M339.7,396.1c-1.9,8.1-7.6,14.7-16.9,17.3c-3.4,1-6.7-2-4.6-5.9c4.5-8.2,5.4-19.7,16.5-22.1
		C338.4,384.6,339.8,390.4,339.7,396.1z"/>
	<path class="st33" d="M281.2,429.6c1.5-2.5,2.9-5,4.4-7.5c4.9,0.2,10.8-1.1,10.6,6.7c-0.1,4.2-2.8,6.9-6.7,7.9
		C283.6,438.2,281.8,434.4,281.2,429.6z"/>
	<path class="st31" d="M729.8,518.2c-5.6,0.8-12,3.6-13.7-3.4c-1.9-7.4,3.9-9.8,10.3-10.9c5.7-0.9,11.3-2.7,17-3.4
		c4.9-0.6,11.1-2.2,13.4,4.2c1.2,3.3,1.1,8.1-0.4,11.2c-2.3,4.7-7.7,3.6-12.2,3.4C739.1,519,734.4,514.2,729.8,518.2z"/>
	<path class="st31" d="M550.7,299.9c-0.6,8-4,12-11,12.2c-5.6,0.2-8.4-2.7-8.2-8.2c0.3-7.9,5.7-11.6,12.4-12.3
		C550.2,291,549.8,297,550.7,299.9z"/>
	<path class="st0" d="M620.7,574.7c-4.2-0.4-8.5-0.4-11.4-4.3c3.8-7.4,12.2-11.2,15.3-19.2c1.4-3.6,2.9-7.7-0.9-10.3
		c-3.7-2.5-7.1,0.4-10.4,2.4c-9.3,5.6-3.1,17-9,23.8c-13.1-12.5-10.5-28.1,6.1-35.4c12.1-5.3,24.8-5.9,37.8-3.9
		c13.9,8.5,14.1,20.2,8.3,33.7C649.3,578.8,635.4,577.6,620.7,574.7z"/>
	<path class="st2" d="M620.7,574.7c33.2-1.2,42.9-17.8,27.6-47c14.4,3.3,31,9.4,29.8,25.2c-1.3,17.1-18.8,23.3-35,24.9
		C635.7,578.5,627.5,580.7,620.7,574.7z"/>
	<path class="st34" d="M604.5,567.1c-6.5-16.3-1.8-27.4,15-33.1c10.5-3.5,16,0.9,13,11.1c-3.4,11.6-8.2,23.5-23.1,25.3
		C607.7,569.3,606.1,568.2,604.5,567.1z"/>
</g>
</svg>
