<?xml version="1.0" encoding="utf-8"?>
<!-- Generator: Adobe Illustrator 24.1.2, SVG Export Plug-In . SVG Version: 6.00 Build 0)  -->
<svg version="1.1" id="Layer_4" xmlns="http://www.w3.org/2000/svg" xmlns:xlink="http://www.w3.org/1999/xlink" x="0px" y="0px"
	 viewBox="0 0 1000 1000" style="enable-background:new 0 0 1000 1000;" xml:space="preserve">
<style type="text/css">
	.st0{fill:#356520;}
	.st1{fill:#4CAA20;}
	.st2{fill:#78732C;}
	.st3{fill:#C0B853;}
	.st4{fill:#C3E5B5;}
	.st5{fill:#4A471C;}
	.st6{fill:#C3BB54;}
	.st7{fill:#C2BA54;}
	.st8{fill:#C4E4B6;}
	.st9{fill:#C6BD55;}
	.st10{fill:#CAEABC;}
	.st11{fill:#C4E6B6;}
	.st12{fill:#C5E6B7;}
	.st13{fill:#4DAE21;}
	.st14{fill:#C2BA53;}
	.st15{fill:#C4BB54;}
	.st16{fill:#51B622;}
	.st17{fill:#081005;}
	.st18{fill:#C8E6BA;}
	.st19{fill:#9AC189;}
	.st20{fill:#A1C293;}
	.st21{fill:#51B722;}
	.st22{fill:#53BA23;}
	.st23{fill:#53BB23;}
	.st24{fill:#C6E6B8;}
	.st25{fill:#53BC23;}
	.st26{fill:#D4F4C5;}
	.st27{fill:#4BAA20;}
	.st28{fill:#C3E4B5;}
	.st29{fill:#A4CE92;}
	.st30{fill:#4BA920;}
	.st31{fill:#49A41F;}
	.st32{fill:#BCB451;}
	.st33{fill:#ACCF9D;}
	.st34{fill:#BFB752;}
	.st35{fill:#C2E1B5;}
	.st36{fill:#54BC24;}
	.st37{fill:#C2E4B5;}
	.st38{fill:#091105;}
	.st39{fill:#C0E0B2;}
	.st40{fill:#DFFED3;}
	.st41{fill:#15270C;}
	.st42{fill:#BFE1B1;}
	.st43{fill:#A0C590;}
	.st44{fill:#847E37;}
	.st45{fill:#BFBFBF;}
	.st46{fill:#FEFEFE;}
	.st47{fill:#33641E;}
	.st48{fill:#30621A;}
	.st49{fill:#2E6018;}
	.st50{fill:#C1C0C1;}
	.st51{fill:#C6C4C7;}
	.st52{fill:#CAC6CB;}
	.st53{fill:#C8C5CA;}
	.st54{fill:#2A5D13;}
	.st55{fill:#285C12;}
	.st56{fill:#B6B9B4;}
	.st57{fill:#3E6A2A;}
	.st58{fill:#285C11;}
	.st59{fill:#CDC9CF;}
	.st60{fill:#CEC9D0;}
	.st61{fill:#618152;}
	.st62{fill:#285D12;}
	.st63{fill:#23590B;}
	.st64{fill:#CFCAD2;}
	.st65{fill:#D1CBD3;}
	.st66{fill:#D1CBD4;}
	.st67{fill:#768F6B;}
	.st68{fill:#7E9575;}
	.st69{fill:#49A91D;}
	.st70{fill:#47A71C;}
	.st71{fill:#C5E6B8;}
	.st72{fill:#49A91C;}
	.st73{fill:#4CAA1F;}
	.st74{fill:#C6E7B9;}
	.st75{fill:#CCEAC1;}
	.st76{fill:#BFE3B0;}
	.st77{fill:#41A513;}
	.st78{fill:#46A81C;}
	.st79{fill:#D0EBC4;}
	.st80{fill:#53AE28;}
	.st81{fill:#4EAB23;}
	.st82{fill:#4FAC25;}
	.st83{fill:#52B823;}
	.st84{fill:#4CAB21;}
	.st85{fill:#3DA40E;}
	.st86{fill:#D1ECC7;}
	.st87{fill:#3DA30D;}
	.st88{fill:#C8E8BB;}
	.st89{fill:#48A91B;}
	.st90{fill:#34641F;}
	.st91{fill:#366521;}
	.st92{fill:#31621C;}
	.st93{fill:#4FAD24;}
	.st94{fill:#47A81A;}
	.st95{fill:#070E04;}
	.st96{fill:#205809;}
	.st97{fill:#4A7238;}
	.st98{fill:#38A108;}
	.st99{fill:#3BA20C;}
	.st100{fill:#091006;}
	.st101{fill:#33631D;}
	.st102{fill:#376522;}
	.st103{fill:#C1C1C2;}
	.st104{fill:#33631E;}
	.st105{fill:#366820;}
	.st106{fill:#3D7F1F;}
	.st107{fill:#CCC8CE;}
	.st108{fill:#366621;}
	.st109{fill:#C3C2C4;}
	.st110{fill:#B4B8B3;}
	.st111{fill:#C0C0C0;}
	.st112{fill:#4DAB21;}
	.st113{fill:#52AD29;}
	.st114{fill:#BEE3AF;}
	.st115{fill:#45A718;}
	.st116{fill:#50AC25;}
	.st117{fill:#3AA20B;}
	.st118{fill:#366721;}
	.st119{fill:#366620;}
	.st120{fill:#32651C;}
	.st121{fill:#3F6B2C;}
	.st122{fill:#3B6827;}
	.st123{fill:#3B6927;}
	.st124{fill:#7AC15A;}
	.st125{fill:#339F05;}
</style>
<g>
	<path d="M553.93,630.24c-10.81,0.73-20.18-2.82-29.63-5.43c-9.07-2.51-17.56-6.5-25.9-11.11c-8.7-4.81-17.35-9.59-25.54-15.22
		c-1.61-1.11-3.77-1.37-5.35-2.89c-1.56-1.5-2.45,0.44-2.89,1.32c-4.44,8.94-13.4,14.59-17.28,23.91c-0.18,0.42-0.6,0.77-0.96,1.09
		c-7.24,6.56-11.31,15.63-17.96,22.69c-2.23,2.36-2.96,5.97-5.7,8.18c-1.33,1.07,0.06,1.93,0.67,2.82
		c8.63,12.57,14.82,26.34,18.8,40.98c2.31,8.49,4.98,17.33,4.82,25.96c-0.32,16.65-0.69,33.31-3.97,49.93
		c-2.54,12.84-5.93,25.38-9.11,38.01c-1.46,5.81-4.42,11-7.4,16.26c-2.84,5.02-6.07,9.85-8.59,15.08c-1.7,3.53-4.27,6.61-6.37,9.94
		c-7.26,11.5-16.01,22.06-25.97,31.21c-6.97,6.41-13.34,13.5-21.36,19.02c-6.81,4.69-13.22,10.06-20.28,14.54
		c-7.41,4.7-15.87,6.8-23.77,10.26c-9.75,4.28-20.35,5.46-30.52,8.18c-8.17,2.18-16.71,2.53-25.02,4.2
		c-6.7,1.34-13.56-0.77-20.37-0.99c-6.1-0.19-12.18-0.79-18.27-1.2c-7.67-0.52-14.92-3.07-22.31-4.84
		c-9.88-2.36-19.92-4.99-28.52-10.4c-5.85-3.68-11.89-7.22-17.69-10.96c-15.98-10.31-30.28-22.59-43.73-35.72
		c-8.49-8.29-16.95-16.78-24.33-26.29c-6.34-8.18-12.98-16.13-19.06-24.54c-9.82-13.57-18.81-27.7-23.64-43.76
		c-2.66-8.83-5.44-18.1-5.15-27.39c0.42-13.51,0.53-27.07,3.58-40.49c2.26-9.93,4.03-19.99,6.77-29.82
		c4.15-14.9,9.43-29.44,15.51-43.62c2.19-5.1,5.77-9.78,8.66-14.64c7.29-12.25,16.18-23.18,25.97-33.35
		c7.52-7.81,15.17-15.74,23.64-22.35c14.68-11.45,31.3-19.42,49.67-23.97c9.52-2.36,19.15-4.49,28.59-7.32
		c4.67-1.4,10.25-0.86,15.2,0.05c5.05,0.93,10.06,0.33,15.05,0.7c10.23,0.76,20.44,1.03,30.59,2.97
		c11.09,2.12,22.18,4.17,32.96,7.48c2.55,0.78,2.8-0.89,3.69-1.88c9.53-10.68,18.44-21.99,28.64-31.98
		c6.86-6.71,12.94-14.12,19.9-20.62c4.02-3.76,2.79-6.53,0.17-9.55c-8.13-9.39-15.88-19.12-24.02-28.47
		c-11.16-12.82-19.77-27.31-29.6-41c-2.96-4.12-5.32-8.39-7.27-12.97c-3.8-8.95-2.15-17.04,3.02-25.18
		c4.17-6.56,7.78-13.53,13.35-18.98c7.93-7.75,15.09-16.29,23.13-23.81c5.89-5.51,10.62-12.11,16.79-17.14
		c9.09-7.41,15.41-17.38,24.02-25.05c5.18-4.61,9.62-9.79,14.5-14.6c5.33-5.25,11.73-2.52,14.31,1.7
		c10.7,17.53,21.46,34.99,33.49,51.69c6.78,9.41,12.25,19.75,18.33,29.66c4.59,7.47,9.22,14.92,13.81,22.39
		c0.57,0.93,1.16,0.89,2.28,0.83c8.1-0.4,15.9,1.13,23.78,3.18c4.54,1.18,8.56,3.34,11.86,5.83c8.61,6.52,16.79,13.74,23.56,22.31
		c9.1,11.54,18.93,22.74,21.54,37.88c1.1,6.41,6.65,5.76,10.3,6.34c13.84,2.22,27.45,5.27,40.99,8.76
		c12.68,3.26,23.86,9.13,34.57,16.85c7.05,5.09,13.21,11.05,20.02,16.3c5.67,4.38,7.65,10.45,8.06,17.35
		c0.18,3.1-2.03,5.55-3.4,7.08c-3.88,4.36-5.88,9.82-9.79,14.15c-17.64,19.58-35.16,39.28-52.27,59.32
		c-6.05,7.09-13.35,12.78-19.75,19.47c-4.19,4.38-9.38,8.69-15.96,10.56C557.51,629.8,555.4,629.78,553.93,630.24z"/>
	<path d="M173.71,351.58c-14.59,0.61-28.33-2.41-41.23-7.04c-11.52-4.13-22.34-10.64-32.16-18.52c-9.9-7.94-16.98-17.83-23.38-28.61
		c-4.14-6.98-7.74-14.18-10.85-21.57c-8.1-19.26-14.3-39.18-15.67-60.15c-0.78-11.98,1.99-23.45,7.52-34.42
		c8.91-17.66,21.09-32.72,35.12-46.35c10.96-10.64,24.03-17.88,38.52-22.92c6.71-2.34,13.26-5.08,20.25-6.45
		c9.38-1.83,18.74-0.82,28.14,0.24c24.24,2.73,43.86,15.14,62.59,29.46c2.23,1.7,3.81,2.15,6.61,0.84
		c12.24-5.77,24.59-11.32,37.07-16.53c3.22-1.35,3.66-3.1,2.8-5.73c-5.56-16.88-10.05-33.99-13.14-51.53
		c-2.11-11.99,0.31-18.1,10.86-24.27c13.74-8.05,29.01-12.45,43.46-18.77c8.7-3.81,17.55-7.26,26.17-11.26
		c4.24-1.97,8.14-0.25,8.61,4.12c1.94,18.28,6.39,36.14,8.94,54.31c0.38,2.69,0.97,5.37,1.05,8.06c0.2,6.76,1.66,11.72,9.14,14.88
		c8.94,3.77,13.42,12.6,16.32,21.57c2.87,8.87,7.22,17.77,5.55,27.33c-1.15,6.59,1.28,9.89,6.42,13.07
		c5.82,3.61,11.22,7.93,16.79,11.93c12.1,8.7,18.5,21.19,24.3,34.17c2.08,4.67,0.39,9.77-3.87,12.71c-3.01,2.08-6.19,4-9.5,5.58
		c-15.33,7.32-30.66,14.63-46.13,21.64c-5.51,2.49-11.41,4.12-17.14,6.09c-6.1,2.09-11.44-0.18-16.25-3.51
		c-10.92-7.57-19.97-17.04-27.22-28.2c-0.26-0.4-0.33-0.93-0.61-1.31c-1.78-2.36-3.14-5.65-5.52-6.81c-3.09-1.5-5.13,2.48-7.8,3.78
		c-9.68,4.7-18.85,10.32-28.08,15.85c-2.35,1.41-2.72,2.64-2.34,4.8c2.2,12.41,1.16,24.62-1.97,36.76
		c-2.27,8.79-6.74,16.61-11.16,24.29c-5.52,9.59-12.1,18.6-19.8,26.7c-6.55,6.9-14.65,11.71-22.43,16.94
		c-8.57,5.75-18.03,9.79-27.78,12.97C195.32,349.18,184.68,352.86,173.71,351.58z"/>
	<path d="M832.58,619.28c-10.03,1.05-20.03-2.31-29.57-6.28c-19.87-8.28-38.38-19-52.88-35.33c-7.47-8.42-10.87-18.7-12.12-29.97
		c-0.81-7.32-1.7-14.57-1.5-21.93c0.43-16.2,3.26-31.63,12.18-45.72c4.56-7.2,8.62-14.67,15.45-19.91
		c8.9-6.82,18.15-12.91,29.44-15.55c9.88-2.31,19.7-4.43,29.89-4.31c2.11,0.02,3.84-0.19,5.02-2.72c4.2-9.04,8.67-17.95,13.28-26.79
		c1.56-2.99,0.96-4.4-1.84-6.12c-10.51-6.48-20.26-14-30.05-21.53c-11.98-9.21-9.75-16.01-5.32-25.75
		c6.26-13.76,14.25-26.74,21.5-40.05c0.31-0.57,0.64-1.13,0.93-1.71c4.54-9.04,4.85-9.19,12.29-2.61
		c11.78,10.42,24.52,19.74,35.52,31.06c1.64,1.68,3.5,2.53,6.04,1.67c8.87-3.01,17.02-0.12,24.24,4.5
		c6.8,4.35,14.35,8.3,17.91,16.39c0.6,1.37,1.72,1.14,3.19,1.03c7.74-0.58,15.45-1.55,23.26-1.5c10.17,0.06,19.11,3.84,27.71,8.46
		c6.15,3.31,3.99,9.45,1.93,13.68c-8.32,17.09-14.17,35.44-25.81,50.9c-2.81,3.73-6.35,4.07-10,4.54
		c-11.07,1.43-21.81-0.71-32.32-3.95c-3.78-1.16-5.41-1.37-6.61,3.5c-1.64,6.65-5.01,12.89-7.82,19.23
		c-2.04,4.6-2.07,7.64,2.45,11.74c9.29,8.41,15.1,19.33,17.69,31.88c2.01,9.73,3.31,19.56,2.97,29.4
		c-0.35,10.28-3.37,20.13-7.57,29.59c-4.76,10.74-10.09,21.12-18.29,29.69c-6.66,6.96-14.91,11.8-23.44,16.03
		C858.71,616.6,846.3,619.36,832.58,619.28z"/>
	<path class="st0" d="M313.52,571.4c6.23,1.84,12.01,4.42,17.56,8.03c11.67,7.6,22.67,15.99,32.78,25.5
		c6.54,6.15,12.8,12.63,18.4,19.7c3.87,4.89,8.09,9.5,11.98,14.38c2.89,3.62,5.49,7.47,8.22,11.21
		c-0.52,11.97,0.82,23.92,0.37,35.91c-0.28,7.59,1.25,15.15,0.58,22.83c-0.75,8.71-1.42,17.43-1.95,26.16
		c-1.17,19.09-6.18,37.4-11.72,55.53c-3.22,10.53-8.97,20.12-13.03,30.38c-3.95,9.97-8.79,19.62-13.99,28.89
		c-5.38,9.59-9.91,19.65-15.92,28.92c-4.55,7.02-7.37,14.84-5.86,23.54c-7.48,3.59-14.72,7.93-22.52,10.57
		c-7.67,2.59-15.68,4.46-23.8,5.62c-10.2,1.46-20.37,3.19-30.52,4.96c-4.79,0.83-9.65,0.41-14.29-0.11
		c-9.04-1.01-18.17-0.81-27.13-2.26c-11.69-1.9-23.02-4.78-34.19-9.19c-14.48-5.72-26.53-14.72-39.13-23.36
		c-7.2-4.94-13.66-10.58-19.96-16.32c-6.7-6.12-12.81-13-18.94-19.8c-4.92-5.46-9.75-10.97-14.25-16.76
		c-9.44-12.13-19.41-23.93-25.27-38.45c-1.63-4.04-3.85-7.85-5.48-11.89c-3.95-9.76-6.01-20.06-7.7-30.37
		c-0.78-4.78,0.53-9.86,0.33-14.79c-0.27-6.95,0.45-13.82,1.65-20.58c1.45-8.17,1.64-16.6,4.71-24.45c1.26,0.27,1.91,1.23,2.36,2.28
		c3.4,7.99,8.33,14.98,13.8,21.65c6.04,7.36,11.8,15.06,19.29,20.97c11.23,8.87,23.43,15.78,38.05,17.96
		c7.26,1.08,14.44,0.86,21.67,1.17c1.27,0.56,1.64,1.71,1.95,2.91c6.15,30.85,19.64,59.05,31.83,87.71
		c1.97,4.63,4.25,9.14,6.2,13.75c5.39,12.73,13.83,23.39,22.27,34.04c7.23,9.13,16.7,4.84,21.01-3.51
		c2.72-5.27,1.74-10.84,0.78-16.23c-0.86-4.79-1.6-9.6-2.37-14.4c-0.33-1.62-0.15-3.32-0.9-4.86c-0.22-0.43-0.41-0.88-0.6-1.32
		c-3.38-11.53-7.58-22.81-10.68-34.42c-1.47-5.5-3.53-10.81-5.04-16.29c-0.72-2.62-2.75-4.36-4.47-6.29
		c-0.39-0.65-0.51-1.35-0.37-2.1c2.16-3.17,4.92-0.98,7.46-0.84c1.77,3.55,4.07-0.58,6.01,0.41c-1.48,8.08,3.18,14.54,5.84,21.47
		c1.62,4.21,5.54,2.45,8.43,1.65c2.52-0.7,4.94-1.46,7.58-1.3c2.43,0.22,4.84,0.01,7.23-0.4c1.92,0.07,3.67-0.64,5.44-1.24
		c2.35,0.06,4.69-0.19,7.02-0.41c0.4-0.12,0.81-0.21,1.22-0.31c0.8-0.23,1.59-0.49,2.39-0.72c1.95-0.54,4.14-0.02,5.93-1.31
		c1.36-0.62,2.85-0.15,4.24-0.54c0.39-0.12,0.79-0.22,1.19-0.33c0.81-0.23,1.59-0.54,2.37-0.87c5.91-3.87,12.49-6.75,17.36-12.11
		c2.05-2.25,5.31-2.94,7-5.82c2.88-4.93,2.47-9.87,0.83-14.96c-2.21-3.7-1.15-6.29,2.11-9.02c5.56-4.67,10.2-10.3,15.03-15.73
		c1.74-1.96,1.81-4,1.6-6.27c1.77-5.19,3.5-10.39,4.35-15.84c0.25-1.58,0.63-3.19,2-4.27c1.64-1.04,0.48-2.82,1.08-4.16
		c1.07-2.39-1.53,0.74-1.18-0.74c-1.87-2.49-1.21-5.25-0.96-7.97c0.55-2.26,1.33-4.51-0.04-6.76c-3.47-6.2-5.05-13.36-9.62-19
		c-6.19-7.63-11.85-15.68-19.46-22.14c-5.22-4.43-10.1-9.36-13.33-15.6c3.4-7.68,7.68-14.92,11.44-22.42
		c8.8-17.56,12.05-35.41,4.28-54.23C313.42,574.85,312.18,573.22,313.52,571.4z"/>
	<path class="st1" d="M159.51,759.77c-5.82,2.07-11.83,0.68-17.6,0.29c-10.25-0.69-19.66-5.13-29.19-8.75
		c-0.44-0.17-0.89-0.46-1.18-0.82c-4.29-5.31-11.7-6.73-15.7-12.08c-4.02-5.38-9.59-9.28-13.15-15.11
		c-2.46-4.04-6.19-7.28-9.11-11.06c-3.96-5.15-6.16-11.3-9.12-17.02c2.07-13.36,6.31-26.01,10.98-38.72
		c3.16-8.59,8.11-16.14,11.33-24.6c1.37-3.59,4.42-6.8,6.91-9.68c5.79-6.69,9.2-15.21,16.32-20.78c0.93-0.95,2.47-0.85,3.32-1.94
		c1.05-2.02,2.74-3.45,4.44-4.89c1.7-1.44,3.34-2.92,4.31-4.99c2.35-0.76,3.68-2.76,5.43-4.3c10.75-9.46,22.91-16.51,36.26-21.8
		c11.06-4.39,22.58-6.52,34.03-9.27c7.5-1.81,14.61-0.56,21.9-0.65c0.59,1.42,1.93,1.4,3.17,1.56c-1.08-0.48-2.59-0.11-3.18-1.56
		c3.2-1.42,6.56-0.86,9.88-0.77c1.68,2.41,3.64,2.66,5.87,0.74c5.53-1.45,10.86,0.36,16.24,1.08c5.65,0.76,11.25,1.85,16.87,2.79
		c0.66,0.42,1.2,1.09,2.1,1c1.13-0.8,2.36-0.9,3.68-0.6c12.47,2.88,24.46,7.27,36.49,11.56c1.01,0.36,1.82,1.32,2.72,2
		c3.22,7.58,5.5,15.53,6.32,23.64c0.81,8.09-1.11,16.03-3.7,23.81c-2.97,8.92-7.92,16.88-11.61,25.44c-1.42,3.29-3.77,6.18-5.7,9.26
		c-0.44,0.18-0.89,0.22-1.35,0.11c-4.99-3.46-10.06-6.89-14.73-10.7c-9.87-8.03-20.82-13.25-33.31-15.4
		c-0.65-0.11-1.24-0.32-1.78-0.7c-2.09-2.1-4.55-1.26-6.96-0.87c-1.56,0.21-3.12,0.22-4.68,0.01c-2.34-0.21-4.82-1.8-6.86,0.76
		c-1.53,0.91-3.09,1.45-4.75,0.32c-0.64-0.84-0.76-1.79-0.59-2.8c0.67-2.24,2.72-3.3,4.43-4.23c5.13-2.77,9.76-6.47,15.33-8.42
		c2.08,1.3,2.2-0.85,3.03-1.75c6.91-6.31,14.56-11.61,22.54-16.46c4.21-1.13,6.17-4.82,8.73-7.8c0.81-0.94,1.18-2.27,2.08-3.21
		c0.39-0.41,1.04-0.55,1.19-1.19c-0.63,0.36-1.22,0.21-1.77-0.18c-0.81-1.59-0.13-3.14,0.1-4.7c0.78-3.96-1.18-6.36-4.48-8.11
		c-6.15-3.27-12.93-3.44-19.6-4.18c-1.94,0.02-3.72-1.28-5.73-0.66c-4.29-0.26-8.57-0.59-12.68-1.99c-1.74-0.76-3.4-2.86-5.37-0.34
		c-3.14,2.3-6.69,1.94-10.26,1.68c-7.91-0.57-15.71-0.03-23.48,1.83c-8.05,1.92-16.2,3.4-23.92,6.47
		c-12.04,4.78-24.34,9.07-33.67,18.79c-3.69,3.85-6.78,8.35-11.43,11.23c-1.22,0.88-2.27,1.96-3.31,3.04
		c-1.55,1.45-2.99,2.98-3.97,4.89c-1.53,3.13-3.88,5.82-4.74,9.29c-3.11,3.13-2.8,7.21-3.08,11.13c-0.17,1.54-0.2,3.09-0.02,4.63
		c0.57,7.64,6.74,10.14,12.21,13.26c0.98,0.56,2.17,0.69,3.15,1.29c2.46,1.8,5.42,0.78,8.08,1.42c3.77,0.25,7.49-0.16,11.21-0.65
		c2.83-0.4,5.92,2.28,8.52-0.76c0.86-0.98,1.91-1.12,3.09-0.72c4.53,2.95,11.55,0.97,13.72-3.87c1.35-1.62,3.26-1.57,5.1-1.76
		c2.19-0.16,4.32-0.5,6.15-1.85c0.33-0.29,0.69-0.54,1.05-0.79c1.69-1.05,3.32-2.37,5.53-1.42c1.79,1.08,3.44,0.03,5.14-0.33
		c2.96-0.62,3.89,0.48,2.88,3.36c-0.38,1.08-0.95,2.13-1.81,2.85c-3.93,3.26-5.77,8.2-9.44,11.65c-2.11,1.99-1.36,4.48-1.18,6.87
		c-2.84,9.75-2.72,19.39,0.26,29.16c2.28,7.47,6.58,13.61,11.04,19.79c3.4,4.7,8.29,8.17,10.81,13.61c1.01,2.17,1.24,3.91-0.42,5.76
		c-2.57,2.88-4.33,6.48-7.77,8.56c-1.15-0.43-1.17,0.52-1.66,1.16c-1.12,1.49-1.57,4.08-4.42,3.26c-2.25-5.75-3.11-11.9-5.08-17.75
		c-3.36-9.98-5.15-20.45-9.41-30.16c-3.33-7.59-7.08-14.97-10.96-22.28c-0.76-1.44-1.76-2.72-2.9-3.9
		c-5.52-5.68-11.78-5.29-15.77,1.46c-2.33,3.94-5.22,7.89-4.27,13.1c0.34,1.88-0.64,3.81-1.07,5.71c-0.75,1.86-0.65,3.6,0.73,5.18
		c2.84,7.83,3.81,16.08,5.5,24.16c1.63,7.79,3.08,15.6,5.19,23.29C158.45,748.26,160.35,753.83,159.51,759.77z"/>
	<path class="st2" d="M407.25,633.76c-3.56-4.49-7.98-8.21-11.2-13.03c-1.41-2.11-3.54-3.73-5.35-5.57
		c-1.13-4.05,2.01-6.75,3.53-9.75c7.16-14.19,14.59-28.24,22.53-42.01c1.71-2.96,3.36-5.92,4.67-9.06c0.95-2.29,2.02-4.87-0.11-6.81
		c-2.14-1.95-4.96-2.25-7.77-1.09c-5.17,2.14-9.34,5.77-13.71,9.11c-5.91,4.51-10.53,10.38-16.41,14.98
		c-3.63,2.84-6.72,6.49-10.59,9.16c-4.77,3.29-9.84,4.78-15.5,2.46c-3.63-0.79-5.91-3.7-8.85-5.54c-6.29-3.93-12.14-8.49-18.91-11.8
		c-4.25-2.08-9-3.71-12.57-7.03c-1.37-1.28-3.82,0.26-4.45-2.12c1.89-3.03,5.31-3.08,8.16-3.78c9.85-2.41,17.26-8.81,24.9-14.77
		c6.14-4.79,10.93-11.11,16.64-16.27c16.58-14.98,29.21-33.52,45.07-48.99c12.48-12.18,23.3-25.77,35.53-38.08
		c4.58-4.6,9.81-8.81,15.92-11.82c4.6-2.27,8.18-0.77,11.93,1.09c8.34,4.14,13.14,11.66,18.16,19.08
		c4.44,6.56,7.24,13.74,9.65,21.16c1.28,3.93,1.77,7.75,1,11.95c-1.06,5.84-0.42,11.92-3.59,17.42
		c-5.36,9.28-11.34,18.15-17.39,26.98c-4.19,6.11-9,11.74-12.84,18.14c-2.55,4.24-5.93,8.09-8.98,12.04
		c-4.55,5.91-8.73,12.1-13.2,18.05c-12.14,16.17-22.79,33.32-30.53,52.18C411.11,624.61,410.19,629.63,407.25,633.76z"/>
	<path class="st3" d="M407.25,633.76c2.66-12.82,9.39-23.87,15.02-35.45c3.18-6.54,7.5-12.23,11.03-18.48
		c2.5-4.43,5.87-8.5,9.03-12.3c7.93-9.57,14.45-20.13,21.98-29.95c7.99-10.44,15.52-21.35,22.92-32.28
		c3.81-5.62,7.64-11.66,9.44-18.08c1.84-6.56,2.94-13.68,1.4-20.79c-2.51-11.58-8.69-21.25-15.05-30.97
		c-4.37-6.68-10.77-10.24-17.57-13.43c-3.58-1.68-6.82,0.98-9.15,2.61c-7.03,4.89-13.69,10.36-19.3,17
		c-6.7,7.93-13.15,16.2-20.69,23.28c-17.09,16.03-30.62,35.28-47.25,51.56c-8.16,7.99-15.97,16.5-25.23,23.63
		c-9.64,7.43-19.86,12.37-31.28,15.56c-1.15-0.73-0.9-1.53-0.1-2.32c4.01-3.92,6.87-8.88,11.28-12.45c1.78-1.37,3.39-2.9,4.35-4.98
		c5.94-3.1,9.21-8.89,13.58-13.56c1.51-1.62,2.83-3.44,4.56-4.87c1.58-0.85,2.34-2.45,3.45-3.74c1.6-2.54,3.66-4.67,5.89-6.66
		c10.21-7.45,18.43-16.93,26.63-26.4c2.12-2.45,4.32-4.8,6.48-7.2c1.25-1.38,3.1-2.54,2.6-4.88c0.79-0.86,1.57-1.71,2.36-2.57
		c3.2-1.68,5.24-4.63,7.73-7.1c5.06-5.03,9.3-10.89,15.21-15.07c1.97-3.42,5.11-5.8,7.65-8.72c6.76-7.79,13.2-15.88,20.91-22.79
		c0.9-1.51,2.37-2.6,3.09-4.24c6.65-7.46,14.39-11.13,24.91-10.01c12.13,1.29,22.86,5.24,31.43,13.63
		c11.86,11.62,21.99,24.68,27.41,40.7c3.4,10.04,1.97,19.67-2.96,29.04c-4.72,8.96-10.06,17.52-15.37,26.13
		c-4.45,7.21-9.38,14.01-14.46,20.78c-2.26,3.01-3.68,6.67-6.8,9.09c-2.35,1.81-11.5,13.58-11.88,15.27
		c-0.36,0.66-0.73,1.32-1.09,1.97c-6.37,7.1-12.17,14.72-17.62,22.46c-4.82,6.84-10.8,12.71-15.25,19.77l0.12-0.11
		c-2.66,4.73-6.33,8.67-10,12.6c-1.02,1.09-2.76,1.82-2.06,3.84c-0.34,0.65-0.68,1.31-1.02,1.96c-2.72,4.68-7.35,7.64-10.6,11.82
		c-0.86,1.11-3.15,1.59-2,3.79c-0.37,0.66-0.75,1.31-1.12,1.97c-0.16,0.28-0.32,0.56-0.51,0.82c-4.12,5.7-4.12,5.7-10.31,3.44
		C408.43,635.97,407.84,634.86,407.25,633.76z"/>
	<path class="st1" d="M587.58,589.03c-3.76,3.11-6.31,7.6-10.97,9.7c-1.74,1.29-3.06,2.97-4.37,4.67c-0.97,0.78-1.83,1.64-2.15,2.9
		c-3.32,1.2-3.75-1.89-4.64-3.53c-3.02-5.57-6.25-11.06-8.94-16.78c-9.59-20.43-17.01-41.45-16.91-64.47
		c0.06-12.8-1.04-25.64,2.31-38.24c0.91-3.43,1.3-7.04,3.84-9.82c9.18,1.6,18.45,2.72,27.47,5.13c1.66,3.11,4.52,1.49,6.89,1.75
		c3.04-0.88,5.66,1.39,8.61,1.17c2.21,1.57,4.97,2.08,7.14,3.7c0.94,0.86,2.2,0.66,3.31,0.99c2.34,1.91,4.6,3.92,7.67,4.61
		c4.18,3.77,8.37,7.39,13.24,10.43c5.35,3.34,9.39,8.89,10.9,15.02c1.42,5.75-1.18,11.55-4.06,16.63
		c-4.77,8.43-10.19,16.47-15.86,24.34c-1.72,2.38-3.68,4.52-5.7,6.62c-2.02,3.45-3.75,7.1-6.99,9.66c-1.36,2.28-3.21,4.16-4.89,6.18
		C592.43,583.38,588.19,585.05,587.58,589.03z"/>
	<path class="st1" d="M340.94,902.38c-2.51-2.2-2.37-5.36-1.74-7.91c2.05-8.32,5.15-16.34,10.67-23.03
		c1.56-1.89,1.78-4.08,2.82-6.05c2.44-4.6,5.15-9.06,7.55-13.64c6.25-11.93,12.06-24.11,17.49-36.43
		c6.28-14.23,12.89-28.29,16.15-43.77c3.09-14.64,6.55-29.23,7.1-44.17c0.34-9.44,2.36-18.84,1.29-28.27
		c-1.4-12.21-0.06-24.49-1.28-36.74c-0.37-3.74-0.76-8.33,1.47-12.15c10.33,13.82,19.24,28.51,23.68,45.26
		c2.74,10.35,5.67,20.84,5.58,31.76c-0.04,4.99-0.14,9.97-0.22,14.96c-0.08,2.22-1.84,4.27-0.72,6.62
		c1.33,5.39-1.91,10.15-2.14,15.39c-0.16,3.71-0.03,7.64-1.9,11.13c-0.91,2.45-2.86,4.66-1.75,7.58
		c-0.25,7.97-2.43,15.56-4.83,23.07c-1.54,4.82-3.64,9.46-5.27,14.26c-0.95,2.79-1.9,5.45-4.52,7.12c-1.06,3.16-4.26,4.76-5.61,7.7
		c-0.19,0.42-0.33,0.88-0.52,1.3c0.43-0.52,0.49-1.16,0.67-1.78c0.21-0.71,0.7-1.01,1.44-0.66c-0.26,5.2-4.32,8.47-6.88,12.29
		c-5.96,8.89-12.41,17.52-20.43,24.78c-1.45,1.59-4.28,1.45-4.98,3.98c-4.62,6.94-11.73,11.15-17.74,16.58
		C351.56,895.84,345.71,898.3,340.94,902.38z"/>
	<path class="st1" d="M319.03,364.14c3.44-1.33,5.2-4.61,7.89-6.82c1.89-0.19,2.64-2.3,4.44-2.64c4.88-1.65,9.83-3.14,13.61-6.97
		c0.82-0.83,2-0.99,3.17-0.68c1.67,0.81,2.18-0.55,2.86-1.57c0.91-1.24,1.74-2.56,3.11-3.39c1.19-0.58,2.3-1.29,3.45-1.94
		c4.72-3.51,10.18-5.61,15.32-8.33c11.52-6.1,21.65-2.43,31.08,4.53c10.76,7.94,18.44,19.11,29,27.25c2.68,2.07,3.73,5.67,6.49,7.78
		c0.28,0.26,0.56,0.52,0.84,0.79c1.11,1.17,2.08,2.46,3.04,3.76c2.71,4.2,6.26,7.87,7.92,12.72c0.76,1.39,0.14,1.69-1.19,2.32
		c-6.16,2.93-12.89,4.22-19.11,6.95c-8.32,3.66-17.39,4.94-25.94,7.93c-5.16,1.81-10.53,2.52-16.19,2.23
		c-10.56-0.54-20.86-1.67-31.06-4.8c-5.54-1.7-10.29-4.66-15.42-6.99c-9.34-4.24-16.69-11.45-24.98-17.28l0,0.01
		c-2.58-0.03-5.36,0.57-7.09-2.2c0.99-3.79,4.63-5.45,6.72-8.36C317.93,367.15,320.06,366.4,319.03,364.14z"/>
	<path class="st0" d="M545.76,473.46c-2.07,7.59-4.3,15.23-4.66,23.08c-0.52,11.38-0.56,22.81,0.23,34.21
		c0.54,7.73,1.99,15.34,4.06,22.73c3.76,13.39,9.23,26.15,15.78,38.43c2.19,4.11,4.39,8.22,6.57,12.33c0.53,1,0.89,2.15,2.36,2.05
		c-7.95,7.98-16.91,11.83-28.32,7.85c-6.12-2.13-12.64-3.09-18.76-5.21c-6.62-2.29-12.95-5.37-19.46-7.99
		c-6.63-2.67-12.5-6.63-18.35-10.61c-2.74-1.87-5.78-3.21-8.56-5.06c-2.2-1.46-1.75-1.92-0.56-3.43c2.14-2.72,4.36-8.05,6.13-7.88
		c4.59,0.44,8.95,3.28,13.41,5.15c9.49,3.97,18.96,7.98,28.48,11.88c8.4,3.44,17.27,5.65,25.5,9.6c1.22,0.59,2.73,0.58,4.1,0.84
		c3.06-1.16,4.79,1.61,7.17,2.44c-1.92-1.64-4.63-2.16-6.21-4.29c-7.37-3.79-14.73-7.61-22.12-11.37
		c-7.52-3.83-15.07-7.62-22.62-11.41c-4.72-2.38-9.35-4.99-14.22-7.03c-4.92-2.06-6.11-7.18-1.99-12.21
		c8.02-9.79,14.88-20.47,21.58-31.08c6.99-11.08,14.17-22.17,19.97-34.04c2.81-5.75,5.66-11.44,7.66-17.51
		C543.45,473.39,544.19,472.78,545.76,473.46z"/>
	<path class="st0" d="M317.36,379.01c5.33,1.29,9.34,5.18,13.27,8.32c5.8,4.64,12.46,7.18,18.57,10.9c7.72,4.7,16.44,5.26,24.6,7.99
		c3.11,1.04,6.79,0.21,10.18,0.55c8.9,0.89,17.14-1.34,25.74-3.55c13.09-3.37,25.37-9.03,38.43-12.33c0.9-0.23,3.14-0.08,3.09-2.24
		c0.76,0.75,1.36,1.9,0.34,2.48c-9.71,5.55-15.37,15.32-23.46,22.42c-13.95,12.22-24.63,27.28-37.37,40.52
		c-2.25,2.33-5.63,3.06-7.48,5.9c-0.74,1.13-1.85,0.22-2.34-0.59c-3.45-5.61-8.11-10.21-12.3-15.22
		c-5.83-6.98-11.15-14.38-16.79-21.51c-7.83-9.9-16.06-19.47-23.3-29.84C325.15,387.96,321.1,383.59,317.36,379.01z"/>
	<path class="st0" d="M310.6,377.09c2.22,0.75,4.71,0.57,6.76,1.93c-1.59,1.33-0.08,2.49,0.45,3.36
		c8.2,13.63,15.51,27.8,24.71,40.81c5.29,7.47,10.8,14.78,16.29,22.12c5.45,7.29,10.17,15.12,16.21,21.98
		c1.2,1.36,0.5,2.28-0.47,3.32c-2.65,2.86-5.28,5.73-7.82,8.68c-1.44,1.67-2.42,0.63-3.67-0.25c-6.19-4.35-10.38-10.62-15.27-16.17
		c-6.23-7.08-12.04-14.56-17.68-22.13c-4.2-5.64-7.89-11.67-11.71-17.58c-3.83-5.93-7.9-11.75-11.2-17.97
		c-2.66-5.02-5.84-10-5.11-16.33c0.38-3.32,1.82-5.74,3.78-8.12C306.85,378.76,308.26,377.32,310.6,377.09z"/>
	<path class="st4" d="M348.66,347.68c-3.44-0.87-4.64,2.68-7.04,3.89c-3.4,1.7-6.82,2.99-10.4,4.07c-1.14,0.45-1.7-0.19-2.1-1.12
		c2.11-2.32,4.22-4.63,6.33-6.95c1.83-1.29,3.24-2.95,4.41-4.84c0.87-1.74,2.21-3.07,3.73-4.23c2.31,0.06,3.84-1.27,5.41-2.77
		c7.26-6.95,13.62-14.68,19.78-22.59c1-1.28,2.22-2.36,3.33-3.54c0.27-0.19,0.57-0.27,0.89-0.22c4.42-1.93,7.25-5.73,9.9-9.36
		c2.15-2.95,4.43-4.43,7.9-4.41c6.32,6.71,11.24,14.42,16.06,22.23c6.16,9.99,12.57,19.83,18.83,29.77
		c4.52,7.17,8.95,14.4,13.49,21.56c0.5,0.78,0.61,1.43,0.29,2.23c-1.17,0.07-2.55,0.08-3.1-0.98c-3.66-6.97-11.27-10.18-15.63-16.19
		c-4.95-6.83-11.55-11.62-17.65-17.02c-5.32-4.7-11.78-7.53-19.05-7.61c-5.51-0.06-9.91,3.5-14.9,5.17
		c-3.11,1.04-6.27,2.55-8.53,5.24c-0.84,1-1.97,0.97-3.12,0.92c-1.56-0.24-2.02,1.2-2.95,1.92c-0.98,0.97-1.95,1.95-2.93,2.92
		C350.7,346.53,349.99,347.57,348.66,347.68z"/>
	<path class="st5" d="M357.32,582.15c9.53,0.94,16.05-4.11,22.98-9.95c5.44-4.58,9.5-10.52,15.71-14.44
		c3.25-2.05,5.85-5.79,9.34-7.96c4.12-2.57,7.8-6.56,13.65-4.65c4.3,1.4,5.55,3.16,4.36,7.54c-1.3,4.81-3.99,9-6.47,13.18
		c-5.19,8.76-9.93,17.75-14.62,26.78c-3.89,7.49-7.72,15.01-11.57,22.51c-4.23-4.31-8.93-8.26-12.58-13.02
		c-5.37-7.01-12.41-12.08-18.81-17.9C358.6,583.59,357.98,582.85,357.32,582.15z"/>
	<path class="st4" d="M604.47,563.45c5.57-5.44,9.66-12.13,13.8-18.51c5.01-7.72,10.76-15.48,11.86-25.21
		c0.1-0.92,0.91-1.71,0.35-2.76c-3.22-6.1-6.31-12.67-12.56-15.93c-4.77-2.49-8.14-6.11-11.78-9.67c0.83-2.35,2.43-2.55,4.64-1.98
		c1.14,0.29,2.03,1.83,3.46,0.84c2.91-1.56,4.54,1.41,6.85,1.95c0.24,2.36,1.38,3.8,3.9,3.84c9.12,3.95,16.05,10.44,21.57,18.57
		c0.46,1.33-1.99,2.61-0.06,3.96c-2.97,9.73-11.64,15.01-17.55,22.44c-1.18,1.7-2.76,3.05-3.97,4.71c-1.56,1.82-3.11,3.64-4.67,5.46
		c-4.49,2.93-7.47,7.42-11.42,10.9c-1.22,1.08-2.15,2.98-4.35,2.21c-0.09-0.03-0.16-0.24-0.17-0.37
		C604.36,563.77,604.43,563.61,604.47,563.45z"/>
	<path class="st6" d="M391.26,468.58c2.44,1.66,0.83,2.99-0.38,4.31c-6.88,7.51-13.85,14.91-20.27,22.86
		c-3.82,4.72-9.82,7.54-14.01,12.22c-0.66,0.73-0.97-0.26-1.06-0.9c1.84-2.65,3.96-5.07,6.4-7.18c1.23-2.67,5.08-2.18,6.12-5.08
		c5.12-6.37,10.45-12.55,16.2-18.37c1.61-0.91,2.52-2.41,3.38-3.95C388.47,470.84,389.82,469.67,391.26,468.58z"/>
	<path class="st7" d="M446.3,413.1c-10.6,8.56-18.09,20.01-27.53,29.65c-0.55,0.57-1.17,1.07-1.76,1.6
		c-0.73-0.09-1.22-0.5-1.48-1.18c2.31-2.57,4.63-5.15,6.94-7.72c1.6-1.51,3.33-2.91,4.21-5.02c3.02-4.23,6.43-8.1,10.27-11.6
		c1.81-1.36,3.42-2.9,4.37-5.01c0.55-0.62,1.09-1.23,1.64-1.85C444.47,411.17,445.48,411.84,446.3,413.1z"/>
	<path class="st8" d="M372.09,309.59c-3.02,6.47-8.31,11.28-12.59,16.81c-3.23,4.17-7.42,7.6-11.17,11.37
		c-1.41,1.41-2.8,2.88-4.75,0.72c3.64-1.62,5.64-5.09,8.56-7.53c1.65-1.48,3.38-2.89,4.23-5.04c0.16-0.91,0.8-1.39,1.55-1.79
		c1.6-0.89,2.45-2.43,3.4-3.89c2.65-3.16,5.29-6.32,7.95-9.47C370,309.91,370.72,308.95,372.09,309.59z"/>
	<path class="st9" d="M446.52,596.93c-0.56-2.4,1.49-3.53,2.65-4.89c9.52-11.08,17.1-23.66,26.96-34.46
		c0.97-1.07,2.17-1.92,3.27-2.88c-0.56,4.09-3.81,6.23-6.39,8.87c-2.24,1.72-2.11,4.94-4.25,6.72c-2.79,4.01-7.54,6.55-8.76,11.73
		c-1.13,1.75-2.81,3.06-3.93,4.82c-0.62,0.67-1.24,1.34-1.86,2c-1,1.23-1.99,2.48-3.03,3.67
		C449.62,593.98,448.07,595.46,446.52,596.93z"/>
	<path class="st10" d="M604.47,563.45c5.29-1.95,7.68-7.24,11.92-10.37c1.14-0.84,1.51-3.6,3.92-1.91
		c-6.49,8.64-14.44,15.96-21.56,24.04c-1.79,0.14-1.77-0.74-1.11-1.98C599.91,569.97,602.19,566.71,604.47,563.45z"/>
	<path class="st6" d="M415.53,443.17c0.49,0.39,0.99,0.79,1.48,1.18c-7.19,7.35-14.38,14.71-21.59,22.05
		c-0.73,0.75-1.57,1.45-1.8-0.39c1.55-2.3,3.32-4.4,5.49-6.14c1.79-1.94,4.04-3.5,5.1-6.05
		C406.9,449.12,411.33,446.27,415.53,443.17z"/>
	<path class="st11" d="M390.78,295.6c-6.98,2.26-9.24,9.69-14.83,13.44c-0.67,0.45-1.63,4.15-2.97,0.33
		c3.9-4.55,7.68-9.21,11.76-13.59C386.39,294.03,388.68,292.4,390.78,295.6z"/>
	<path class="st12" d="M614.24,490.23c0.59,1.48,0.8,2.32-1.28,1.2c-2.18-1.18-4.53-2.22-6.82-0.06c-3.57,0.11-5.52-2.45-7.67-4.66
		c-0.5-0.8-0.47-1.56,0.15-2.28c3.94,1.16,7.83,2.88,11.85,3.24C612.72,487.88,613.09,489.26,614.24,490.23z"/>
	<path class="st13" d="M310.6,377.09c-1.06,1.89-3.25,2.32-4.75,3.65c0.21-4.92,4.89-6.46,7.31-9.72c1.81-1.93,4.03-3.51,5.12-6.04
		c0.25-0.28,0.5-0.56,0.74-0.84c2.79,0.44,2.12,1.65,0.76,3.15C316.78,370.61,313.06,373.26,310.6,377.09z"/>
	<path class="st14" d="M434.58,613.26c-1.42-1.09-1.01-2.26-0.03-3.32c4.01-4.39,8.06-8.75,12.09-13.12
		c0.37,4.63-3.02,6.99-5.84,9.7c-1.63,1.36-2.96,2.99-4.27,4.64C435.88,611.87,435.23,612.56,434.58,613.26z"/>
	<path class="st14" d="M480.49,552.73c-0.99-0.18-2.41-0.72-1.38-1.7c4.44-4.24,7.83-9.32,11.75-13.96c0.51-0.6,1.14-0.31,1.51,0.39
		c-1.9,2.84-3.81,5.69-5.71,8.53c-1.59,1.39-2.95,2.99-4.24,4.66C481.78,551.34,481.14,552.03,480.49,552.73z"/>
	<path class="st7" d="M420.96,630.84c-2.73-0.44-1.72-1.73-0.57-2.86c4.36-4.28,8.78-8.51,13.18-12.76
		c-0.29,4.3-4.02,6.11-6.42,8.88c-1.9,1.77-3.76,3.58-5.25,5.72C421.58,630.16,421.27,630.5,420.96,630.84z"/>
	<path class="st15" d="M409.02,637.07c0.19-0.26,0.52-0.75,0.53-0.74c4.96,3.28,7.25-1.22,10.29-3.52
		c-0.17,3.39-2.55,5.67-4.87,7.32C411.93,642.3,410.87,638.45,409.02,637.07z"/>
	<path class="st16" d="M406.35,833.93c-1.65,1.2-1.23,4.14-4.17,4.59c1.48-4.64,5.3-7.6,7.43-11.6c0.02-0.04,0.31,0.01,0.44,0.09
		c0.13,0.08,0.22,0.23,0.33,0.35C410.56,830.49,408.62,832.31,406.35,833.93z"/>
	<path class="st17" d="M554.66,599.61c3.25-0.31,4.78,3.5,8.03,3.36c0.7-0.03,1.35,1.2,0.87,1.88c-0.3,0.43-1.55,0.6-2.14,0.34
		c-2.62-1.14-5.16-2.47-7.72-3.73C554.02,600.84,554.34,600.23,554.66,599.61z"/>
	<path class="st18" d="M597.64,573.23c0.03,0.85,0.25,1.59,1.11,1.98c-0.89,2.56-3.03,4.14-4.78,6.01
		c-1.91,0.13-1.73-1.03-1.41-2.28C594.25,577.04,595.95,575.14,597.64,573.23z"/>
	<path class="st19" d="M592.56,578.94c0.15,0.96,0.33,1.9,1.41,2.28c-1.45,3.16-4.2,5.24-6.38,7.8c-1.76-2.13,0.36-3.3,1.34-4.47
		C590.4,582.82,591.67,581.02,592.56,578.94z"/>
	<path class="st20" d="M595.7,486.25c-1.99-2.07-5.86-1.36-6.96-4.73c2.93,0.09,5.89,0.06,7.97,2.67
		C597.35,485.35,596.57,485.83,595.7,486.25z"/>
	<path class="st21" d="M580.13,480.35c-2.86,1.62-5.68,3.11-6.89-1.75C575.28,480.18,578.42,477.46,580.13,480.35z"/>
	<path class="st22" d="M235.43,553.57c1.03,2.44-0.94,1.92-2.16,2.25c-2.64,0.7-3.29-0.97-3.71-2.98
		C231.51,553.08,233.47,553.33,235.43,553.57z"/>
	<path class="st23" d="M424.99,782.93c-1.7-2.2-1.26-4.13,1.75-7.58C426.16,777.88,425.58,780.4,424.99,782.93z"/>
	<path class="st24" d="M624.99,496.02c-2.71,2.1-3.33-2.32-5.54-1.77c-0.1-1.21,0.79-1.62,1.64-2.07
		C622.39,493.46,623.69,494.74,624.99,496.02z"/>
	<path class="st3" d="M368.08,494.81c0.03,4.19-4.52,2.85-6.12,5.08C362.79,496.75,366.02,496.49,368.08,494.81z"/>
	<path class="st3" d="M468.75,570.28c1.38-2.26,1.19-5.52,4.25-6.72C471.05,565.46,472.16,569.3,468.75,570.28z"/>
	<path class="st3" d="M404.21,453.82c-0.24,3.25-2.59,4.72-5.1,6.05C400.36,457.48,402.24,455.62,404.21,453.82z"/>
	<path class="st3" d="M421.89,629.82c0.69-2.88,2.65-4.6,5.25-5.72C425.8,626.39,424.28,628.51,421.89,629.82z"/>
	<path class="st25" d="M430.79,748.83c-2.46-2.5,0.02-4.46,0.72-6.62C432.3,744.53,431.2,746.64,430.79,748.83z"/>
	<path class="st3" d="M446.3,413.1c-1.11-0.37-2.22-0.75-3.34-1.12c1.86-1.14,3.83-2.14,5.24-3.89
		C448.51,410.12,446.13,411.12,446.3,413.1z"/>
	<path class="st1" d="M318.29,364.99c-0.26,3.24-2.59,4.72-5.12,6.04C314.3,368.53,316.31,366.77,318.29,364.99z"/>
	<path class="st26" d="M646.5,518.55c-0.8,0.47-1.61,0.94-3.33,1.96c1.45-2.53,2.43-4.22,3.4-5.91
		C648.8,515.95,646.31,517.23,646.5,518.55z"/>
	<path class="st27" d="M374.06,874.98c0.06-3.33,2.77-3.34,4.98-3.98C378.35,873.54,375.33,873.16,374.06,874.98z"/>
	<path class="st3" d="M436.53,611.17c0.46-2.43,2.05-3.83,4.27-4.64C439.77,608.43,438.55,610.17,436.53,611.17z"/>
	<path class="st3" d="M456.06,586.83c0.29-2.44,2.11-3.62,3.93-4.82C459.58,584.35,458,585.74,456.06,586.83z"/>
	<path class="st3" d="M426.68,430.43c-0.11,2.76-1.88,4.12-4.21,5.02C423.43,433.41,425.03,431.9,426.68,430.43z"/>
	<path class="st28" d="M339.84,342.72c-0.34,2.65-1.98,4.1-4.41,4.84C336.71,345.77,337.95,343.95,339.84,342.72z"/>
	<path class="st29" d="M329.11,354.51c0.7,0.37,1.4,0.75,2.1,1.12c-1.49,0.42-1.99,3.32-4.29,1.7
		C327.65,356.39,328.38,355.45,329.11,354.51z"/>
	<path class="st30" d="M122.06,589.62c-0.17,2.75-1.92,4.15-4.31,4.99C118.84,592.64,120.33,591.03,122.06,589.62z"/>
	<path class="st31" d="M572.25,603.4c0.47-2.47,2.04-3.93,4.36-4.67C575.45,600.56,574.32,602.42,572.25,603.4z"/>
	<path class="st4" d="M356.37,325.93c-0.09,2.79-1.85,4.17-4.23,5.04C353.55,329.28,354.96,327.6,356.37,325.93z"/>
	<path class="st3" d="M441.32,413.83c-0.15,2.81-1.89,4.23-4.37,5.01C438.41,417.17,439.87,415.5,441.32,413.83z"/>
	<path class="st3" d="M482.42,550.64c0.44-2.44,2.05-3.81,4.24-4.66C485.64,547.89,484.45,549.65,482.42,550.64z"/>
	<path class="st28" d="M624.98,545.71c0.37-2.38,2.14-3.57,3.97-4.71C628.35,543.18,626.86,544.61,624.98,545.71z"/>
	<path class="st32" d="M328.07,535.9c-0.17,2.78-1.89,4.2-4.35,4.98C325.17,539.22,326.62,537.56,328.07,535.9z"/>
	<path class="st4" d="M361.32,320.24c-0.11,2.19-1.31,3.43-3.4,3.89C359.05,322.84,360.19,321.54,361.32,320.24z"/>
	<path class="st3" d="M451.17,592.51c0.21-1.88,1.47-2.9,3.03-3.67C453.93,590.67,452.68,591.69,451.17,592.51z"/>
	<path class="st33" d="M443.32,375.93c-1.72-0.68-3.12-1.62-3.03-3.76C442.15,372.74,443.46,373.75,443.32,375.93z"/>
	<path class="st34" d="M349.66,513.73c-0.26,2.07-1.42,3.3-3.45,3.74C347.15,516.03,348.11,514.61,349.66,513.73z"/>
	<path class="st35" d="M595.7,486.25c0.34-0.69,0.68-1.37,1.02-2.06c0.63,0.08,1.26,0.16,1.9,0.24c-0.05,0.76-0.1,1.52-0.15,2.28
		C597.55,486.56,596.49,487.19,595.7,486.25z"/>
	<path class="st34" d="M387.65,472.5c-0.04,2.24-1.26,3.48-3.38,3.95C385.4,475.13,386.53,473.81,387.65,472.5z"/>
	<path class="st36" d="M270.63,558.44c-1.67,1.72-1.84,0.25-2.1-1C269.81,556.56,270.01,557.96,270.63,558.44z"/>
	<path class="st30" d="M113.32,599.5c0.05,2.62-2.33,1.08-3.31,1.94C110.55,599.83,111.78,599.41,113.32,599.5z"/>
	<path class="st0" d="M183.68,342.75c-11.18,1.91-22.02-0.17-32.86-2.69c-11.83-2.74-22.77-7.48-33.43-13.23
		c-15.02-8.1-25.76-20.08-34.44-34.56c-5.37-8.96-9.69-18.34-13.09-28.07c-6-17.19-11.22-34.69-10.12-53.24
		c0.86-14.55,6.64-27.44,14.54-39.46c2.13-3.23,4.46-6.33,6.69-9.49c1.81,1.44,1.19,3.52,1.44,5.39
		c1.97,14.97,6.05,29.08,16.7,40.46c3.46,3.7,7.62,6.46,12.02,8.91c1.65,0.92,3.68,1.43,4.38,3.54c-2.01,2.32-4.48,1.34-6.78,0.81
		c-8.9-2.02-17.8-3.56-26.97-2.01c-7.84,1.33-9.5,5.59-5.04,12.3c7.02,10.59,16.92,17.19,28.56,21.63c2.72,1.04,3.52,0.21,3.67-2.35
		c0.45-7.62,1.94-15.1,3.27-22.6c0.51-2.85,0.55-5.89,3.41-7.71c1.15-0.29,1.88,0.23,2.38,1.21c1.56,5.44-1.03,10.51-1.41,15.78
		c-0.81,11.29-1.1,22.59-1,33.91c0.02,2.1,0.05,4.21-0.4,6.28c-0.88,5.25-0.74,10.51-0.19,15.76c2.3,2.83,2.19,6.4,2.79,9.7
		c0.55,3.06,1.33,6.03,2.32,8.95c1.68,4.94,6.21,6.35,10.47,3.34c2.18-1.54,3.6-3.62,4.4-6.24c2.29-7.49,3.59-15.15,4.42-22.92
		c0.26-2.42,0.53-4.84,0.73-7.27c0.73-8.66,3.82-17.47-1.76-25.7c0.26-0.39,0.61-0.65,1.07-0.76c4.85,4.58,10.57,3,16.17,2.24
		c0.59,0.42,0.99,0.95,0.99,1.71c-0.63,1.71-2.23,2.26-3.64,3.01c-4.41,2.34-6.5,7.67-4.98,12.51c0.5,1.59,1.59,2.42,3.08,2.79
		c6.91,1.72,13.62,4.12,20.54,5.81c7.84,1.92,15.08-0.06,22.34-2.49c1.09-0.36,2.01-1.06,2.81-1.88c1.03-1.05,2.18-2.19,1.74-3.78
		c-0.51-1.86-2.28-1.51-3.68-1.55c-2.44-0.07-4.9-0.1-7.22-0.83c-2.42-0.75-5.11-1.24-6.14-4.12c0.46-1.21,1.3-2.04,2.49-2.53
		c6,1.41,11.91,2.37,18.09,0.4c13.19-4.21,23.06-11.63,26.61-25.72c2.51-9.99-0.32-19.23-4.11-28.28c-1.95-4.64-3.81-9.26-4.5-14.28
		c0.7-2.4,2.97-3.3,4.63-4.76c3.87-3.41,8.01-6.51,11.65-10.2c6.13-6.21,9.52-13.67,10.42-22.32c0.18-1.7-0.15-3.63,1.49-4.92
		c10.85,10.24,16.83,23.28,22.09,36.94c3.48,9.05,6.25,18.18,8.01,27.67c-0.04,3.73-2.32,6.69-3.52,10.01
		c-8.09,22.4-17.97,43.93-33.77,62.02c-10.25,11.73-21.98,22.04-34.43,31.47c-5.3,4.01-10.26,8.45-15.7,12.3
		C187.63,335.96,186.21,339.82,183.68,342.75z"/>
	<path class="st1" d="M117.56,221.93c-0.56-0.95-1.44-1.22-2.47-1.15l0.05,0.05c-2.38-2.81-6.07-3.48-8.97-5.51
		c-9.4-6.59-15.89-14.94-19.61-26.03c-3.01-8.96-5.78-17.76-5.57-27.28c9.97-15.03,22.46-27.17,38.47-35.93
		c10.27-5.62,20.9-9.71,32.29-11.81c11.26-2.08,22.57-1.51,33.64,1.44c24.49,6.53,45.6,18.82,62.83,37.55
		c0.39,14.5-6.43,25.33-17.37,34.05c-3.41,2.72-6.81,5.47-10.21,8.2c-0.47,0.16-0.9,0.09-1.3-0.2c-2.73-4.02-4.73-8.47-7.37-12.55
		c-6.06-9.38-14.28-15.77-25.25-18.45c-1.72-0.42-3.46-0.86-5.08-1.64c-0.61-0.42-1.04-0.97-1.17-1.71
		c0.99-2.41,3.21-1.94,5.03-1.91c11.01,0.16,21.63-2.01,32.09-5.17c0.62-0.19,1.26-0.33,1.86-0.57c3.68-1.42,7.78-2.95,8.41-7.24
		c0.58-3.94-3.29-5.64-6.07-7.49c-18.58-12.39-38.87-19.86-61.39-18.11c-10.93,0.85-21.69,4.13-30.72,11.13
		c-10.26,7.95-7.8,17.2,2.64,22.53c8.32,4.24,17.7,5.11,27.01,5.41c3.57,0.12,7.14,0.19,10.67,0.86c1.79,0.65,3.94,0.61,5.08,2.56
		c0.06,2.45-1.98,2.67-3.58,3.24c-2.74,0.98-5.48,1.91-8.03,3.39c-12.92,7.51-15.38,18.89-12.15,32.16
		c0.72,2.97,1.37,5.97,2.53,8.86c1.42,3.56,0.46,6.54-3.45,7.68c-3.06,0.9-4.95,4.41-8.64,3.74c-0.35-0.35-0.59-0.76-0.7-1.24
		c0.85-11.16,3.23-22.14,3.7-33.35c0.6-3.46,1.04-6.92,0.17-10.41c-1.6-0.99-1.39-2.83-2.01-4.27c-1.66-3.87-4.67-4.86-8.18-2.52
		c-5.02,3.35-7.41,8.38-8.58,14.1c-2.52,12.34-4.73,24.74-7.37,37.06C118.47,221.8,118.07,221.98,117.56,221.93z"/>
	<path class="st2" d="M270.69,170.87c-6.2-8.77-11.9-17.89-18.88-26.09c0.87-1.25,2.23-1.43,3.5-1.18
		c9.48,1.89,18.04-1.85,26.51-4.84c13.79-4.87,26.59-12.2,40.14-17.64c11.9-4.78,23.14-11.03,35.43-14.97
		c11.28-3.61,16.4,3.67,17.87,11.41c0.79,4.14,1.56,8.31,1.93,12.53c1.26,14.07-6.47,23.07-17.47,29.72
		c-16.96,10.25-34.03,20.32-50.85,30.79c-6.43,4.01-12.38,8.91-17.66,14.51c-1.66,1.76-2.94,4.47-6.15,3.94
		c-1.55-4.57-3.11-9.13-4.66-13.7c6.83-7.43,15.09-13.15,22.96-19.34c2.29-1.8,4.81-3.34,6.83-5.46c1.3-1.37,3.2-2.78,1.87-4.98
		c-1.18-1.96-3.29-1.76-5.27-1.44c-4.97,0.82-9.8,2.03-14.5,3.98c-4.46,1.85-8.93,3.91-13.83,4.49
		C275.68,172.93,272.95,172.96,270.69,170.87z"/>
	<path class="st3" d="M285.06,209.06c6.28-5.28,11.91-11.25,18.47-16.26c5.92-4.53,12.45-7.99,18.7-11.92
		c14.99-9.41,30.88-17.42,45.03-28.14c4.46-3.38,7.29-8.41,8.04-13.95c1.37-10.19,0.98-20.24-5.15-29.21
		c-2.1-3.08-5.05-3.93-8.4-3.16c-3.89,0.9-7.88,1.79-11.5,3.41c-18.33,8.16-36.51,16.67-54.85,24.8
		c-10.46,4.63-21.14,8.73-32.5,10.78c-3.8,0.68-7.34-1.43-11.09-0.62c-1.22-1.7,0.43-1.85,1.3-2.2
		c14.68-5.84,28.78-12.99,43.49-18.81c10.69-4.23,20.62-10.4,31.37-14.41c12.7-4.73,24.26-12.05,37.49-15.54
		c8.49-2.24,15.18,1.65,19.79,6.98c10.42,12.06,14.05,26.66,11.35,42.58c-1.35,7.96-7.76,11.88-13.42,16.13
		c-11.91,8.95-24.98,16.11-37.79,23.69c-12.88,7.63-25.87,14.99-39.07,22.03c-6.62,3.53-13.04,7.46-19.61,11.24
		C285.73,213.81,284.9,211.54,285.06,209.06z"/>
	<path class="st1" d="M401.38,155.33c7.12,5.35,15.36,9.15,21.62,15.68c1.3,0.88,2.38,2.05,3.66,2.96c3.03,3.99,5.4,8.42,8.06,12.65
		c5.03,7.98,3.32,14.63-3.98,20.81c-6.74,5.71-14.91,8.96-22.08,13.89c-2.83,1.36-6,2.12-8.21,4.59c-5.58,3.96-12.3,5.24-18.46,7.82
		c-2.11,0-2.14-1.7-2.32-3.06c-2.54-19.1-1.49-37.73,6.87-55.53c2.88-6.14,4.92-12.72,10.16-17.44
		C398,156.51,398.86,154.2,401.38,155.33z"/>
	<path class="st1" d="M183.68,342.75c0.78-5.46,4.57-8.91,8.61-11.82c14.35-10.34,27.75-21.8,40.5-34
		c13.48-12.9,22.93-28.65,31-45.37c5.33-11.04,8.53-22.96,14.52-33.69c5.04,18.34,4.12,36.23-3.82,53.66
		c-7.35,16.16-17.08,30.67-29.46,43.4c-4.42,4.55-9.95,7.63-15.13,11.14c-11.03,7.5-23.61,11.47-36.25,15.16
		C190.45,342.18,187.01,342.27,183.68,342.75z"/>
	<path class="st1" d="M366.13,74.23c0.61,3.86,2.43,7.54,1.85,11.59c-20.47,1.04-40.28-0.35-56.31-15.47
		c-6.46-6.09-11.27-13.29-14.62-21.49c-0.37-0.31-0.74-0.63-1.11-0.94c-2.02-0.75-4.89,0.24-5.77-2.84
		c5.44-3.14,11.07-5.81,17.4-6.63c10.7-1.4,21.3-3.53,32.14-3.86c5.62-0.17,9.6,2.29,12.72,6.66c2.75,3.86,5.04,8.05,6.59,12.44
		c1.99,5.64,4.52,11.08,6.22,16.82C365.37,71.79,365.52,73.07,366.13,74.23z"/>
	<path class="st0" d="M401.38,155.33c-5.88,2.5-8.23,8.08-10.59,13.2c-4.66,10.11-9.13,20.43-10.25,31.66
		c-1.12,11.21-1.64,22.48,1.46,33.55c-6.81,2.9-12.45,2.02-18.63-2.88c-11.5-9.14-21.29-19.53-28.87-32.07
		c6.49-3.83,6.58-3.92,11.72,1.51c8,8.44,15.97,16.9,24.96,24.33c1.59,0.61,2.69,1.84,3.83,2.96c0.22,0.2,0.38,0.36,0.46,0.45
		c-0.15-0.13-0.33-0.3-0.57-0.56c-1.16-1.16-2.37-2.24-2.69-3.93c-6.85-9.39-15.24-17.51-21.94-27.03
		c-3.25-4.62-3.22-5.18,1.56-8.11c14.57-8.92,28.96-18.1,41.99-29.23c1.35-1.16,2.64-2.41,3.89-3.67
		C398.93,154.27,400.08,153.74,401.38,155.33z"/>
	<path class="st0" d="M297.05,48.86c5.3,7.02,9.16,15.01,15.88,21.08c10.84,9.8,23.57,13.97,37.85,14.55
		c5.74,0.23,11.47,0.88,17.2,1.34c-17.04,5.99-33.38,13.61-49.71,21.24c-3.6,1.68-5.84,1.53-7.09-3.56
		c-4.37-17.82-9.44-35.47-14.23-53.19C296.83,49.87,297.01,49.35,297.05,48.86z"/>
	<path class="st0" d="M290.17,45.08c1.53,1.74,4.82-0.1,5.77,2.84c0.58,17.19,4.52,33.83,8.24,50.51c0.74,3.29,0.96,6.77,2.15,9.87
		c1.04,2.7,0.35,3.65-2.02,4.69c-5.98,2.62-7.27,2-9.24-4.52c-4.62-15.35-8.56-30.86-10.64-46.78
		C283.6,55.3,283.28,48.89,290.17,45.08z"/>
	<path class="st4" d="M364.38,71.33c-3.44-9.31-6.61-18.75-11.37-27.5c-5.09-9.36-13.78-8.81-22.52-7.64
		c-7.62,1.02-15.15,2.87-22.93,2.25c3.48-3.76,8.42-5.07,12.88-6.72c3.76-1.39,7.42-3.01,11.12-4.54
		c6.81-2.83,13.55-5.82,20.38-8.62c2.78-1.14,4.76-1.33,5.77,2.78c3.27,13.28,4.44,26.87,6.7,40.29c0.37,2.2,0.61,4.42,0.91,6.63
		C365.54,69.45,366.68,70.92,364.38,71.33z"/>
	<path class="st5" d="M270.69,170.87c7.37,2.21,13.98-0.77,20.42-3.49c5.29-2.23,10.69-3.57,16.26-4.58
		c2.82-0.51,5.35,0.08,6.68,2.68c1.23,2.41-0.94,4.09-2.41,5.32c-5.94,4.98-12,9.85-18.22,14.48c-4.41,3.28-8.01,7.6-13.02,10.08
		C277.16,187.2,273.93,179.04,270.69,170.87z"/>
	<path class="st4" d="M408.22,220.78c3.21-3.84,8.12-5.04,12.15-7.59c3.94-2.5,7.72-5.2,11.25-8.15c5.62-4.7,6.13-11.98,1.9-18.41
		c-2.73-4.14-5.32-8.38-7.97-12.57c0.1-0.66,0.62-0.75,1.14-0.85c9.28,6.14,14.84,15.1,18.85,25.16c1.66,4.15,0.15,6.46-6.03,9.37
		c-10.08,4.73-20.21,9.35-30.32,14.01C408.17,222.13,408.02,221.64,408.22,220.78z"/>
	<path class="st37" d="M408.22,220.78c0.33,0.32,0.65,0.64,0.98,0.96c-2.91,1.39-5.83,2.79-8.74,4.18
		C401.51,221.87,405.6,222.43,408.22,220.78z"/>
	<path class="st38" d="M372.21,223.53c1.28,1.11,2.86,2.01,2.83,4.03l-0.05,0.05c-1.98-0.1-2.99-1.42-3.81-3
		C371.52,224.25,371.87,223.89,372.21,223.53z"/>
	<path class="st39" d="M364.38,71.33c1.07-0.79,0.81-1.99,0.94-3.06c1.04,1.88,1.02,3.91,0.81,5.96
		C365,73.6,364.82,72.39,364.38,71.33z"/>
	<path class="st40" d="M426.7,173.2c-0.38,0.28-0.76,0.57-1.14,0.85c-0.86-1.01-1.71-2.02-2.56-3.04
		C424.69,170.97,425.55,172.33,426.7,173.2z"/>
	<path class="st0" d="M836.88,448.18c11.02-0.13,20.27,5.16,29.58,9.95c6.58,3.39,12.68,7.68,18.26,12.62
		c4.69,7.77,6.57,16.59,8.9,25.16c3.17,11.61,4.89,23.47,4.98,35.6c0.05,6.92-1.64,13.52-2.34,20.29
		c-1.25,12.07-5.62,23.67-5.97,35.93c-0.01,0.46-0.4,0.88-0.7,1.26c-3.43,5.49-8.79,8.78-14.24,11.64
		c-11.73,6.15-24.03,10.59-37.38,12.11c-10.26,1.17-19.93-0.92-29.42-4.06c-17.3-5.71-32.48-15.41-45.82-27.52
		c-13.33-12.1-19.14-27.97-18.67-46.03c2.03-0.62,2.8,1.16,4.04,2.08c6.66,4.9,13,10.27,21.13,12.81c4.63,1.44,9.23,1.59,13.98,1.18
		c2.19-0.19,4.49-1.2,6.62,0.32c1.54,2.58-0.81,3-2.21,3.77c-4.13,2.27-8.33,4.4-11.97,7.47c-1.25,1.05-2.49,2.09-3.46,3.41
		c-3.68,4.98-2.35,8.19,3.58,10.02c8.57,2.64,16.7,0.56,24.92-1.5c3.03-0.76,2.04-2.2,0.92-3.81c-4.39-6.26-7.86-13.08-11.84-19.6
		c0.85-1.7,2.28-1.54,3.77-1.19c1.91,0.8,3.07,2.4,4,4.11c7.75,14.25,19.06,25.76,29.44,37.96c2.92,3.43,6.81,5.99,10.65,8.44
		c2.17,1.38,4.43,2.32,6.68,0.28c2.19-1.97,2.59-4.58,1.48-7.14c-1.66-3.87-3.3-7.77-5.61-11.32c-3.97-6.12-8.16-12.11-12.07-18.28
		c-1.1-1.74-2.45-2.93-4.51-3.39c-1.71-0.38-3.65-0.68-3.56-3.17c2.68-1.86,5.9-0.09,8.68-1.32c0.73,0.16,1.26,0.6,1.68,1.19
		c0.25,0.42,0.43,0.88,0.68,1.29c4.36,7.24,4.63,7.29,12.16,4.03c7.76-3.36,15.9-6.14,20.33-14.24c0.47-0.85,1.08-1.63,1.46-2.53
		c0.65-1.55,1.2-3.37-0.2-4.55c-1.65-1.39-2.51,0.76-3.56,1.51c-5.37,3.88-11.59,4.32-17.75,3.82c-3.25-0.26-6.01,0.04-8.76,1.57
		c-0.49-0.06-0.91-0.28-1.25-0.63c-0.12-4.94,1.81-7,6.38-6.79c0.32,0.02,0.65,0.06,0.97,0.11c15.96,2.51,20.09-1.84,25.73-15.69
		c4.07-10-0.1-21.84-9.68-28.66c-2.91-2.07-6.04-3.79-9.16-5.53c-2.79-1.55-5.99-2.63-7.74-5.64c-0.34-4.59,1.42-8.88,1.9-13.37
		c0.76-7.02,0.08-13.53-3.94-19.51C837.12,451.34,836.04,449.97,836.88,448.18z"/>
	<path class="st1" d="M790.11,551.9c-2.55,0.21-5.1,0.34-7.64,0.64c-10.09,1.21-18.72-2.34-26.68-8.1
		c-4.04-2.93-8.34-5.52-11.72-9.29c-2.12-11.41-1.48-22.7,1.92-33.75c3.05-9.9,7.21-19.49,13.66-27.55
		c11.15-13.95,26.45-21.32,43.74-24.68c9.66-1.88,19.44-2.9,29.31-1.91c1.41,0.14,2.97-0.16,4.19,0.92
		c1.58,4.15,4.98,7.28,5.94,11.9c1.84,8.81-0.42,17.09-2.25,25.49c-0.39,0.26-0.82,0.39-1.29,0.41c-4.62-0.78-8.8-2.95-13.27-4.27
		c-6.69-1.98-12.97,0.8-19.46,1.14c-0.65-0.36-1.09-0.88-1.3-1.6c0.4-3.34,2.82-5.39,4.96-7.57c4.03-4.1,7.26-8.77,9.66-13.93
		c2.75-5.92,0.84-8.48-5.49-7.52c-14.06,2.15-27.73,5.49-39.28,14.46c-8.42,6.53-14.55,14.75-17.66,25.01
		c-1.12,3.68-1.46,7.82,1.83,10.41c3.57,2.81,7.97,3.32,12.42,1.43c7.84-3.32,14.89-7.85,21.23-13.52c1.7-1.52,3.43-3.18,5.99-1.58
		c0.86,1.63-0.23,2.78-1.01,3.98c-7.91,12.23-3.82,23.03,6.09,30.68c0.64,0.5,1.33,0.93,2.01,1.38c6.75,4.39,7.12,10.74,0.99,16.81
		c-0.78-0.07-1.3-0.52-1.69-1.16c-1.65-8.1-7.06-14.09-11.71-20.47c-2.28-3.13-4.96-6.04-7.98-8.51c-3.24-2.65-5.54-1.82-7.05,2.07
		c-1.25,3.22-0.18,6.13,1.18,8.89c3.58,7.27,7.11,14.57,11.28,21.53c1.23,2.04,3.04,3.88,3.07,6.51c-0.13,0.19-0.27,0.38-0.4,0.57
		c-1.28,0.16-2.81-0.43-3.6,1.2L790.11,551.9z"/>
	<path class="st2" d="M884.79,462.71c-2.96-1.89-5.93-3.78-8.89-5.67c-1.76-4.87-0.04-9.56,1.02-14.17
		c1.05-4.56,2.03-9.15,3.14-13.71c0.37-1.52,0.92-3.44-0.98-4.3c-1.82-0.83-2.95,0.74-4.06,1.91c-3.96,4.18-5.87,9.64-8.91,14.4
		c-2.13,3.33-4.69,5.71-8.79,6c-7.4-2.26-14.8-4.5-22.43-5.85c-0.4-1.13,0.18-1.94,0.86-2.72c8.35-6.71,13.58-15.72,17.9-25.22
		c6.33-13.92,13.32-27.52,19.66-41.43c0.96-2.1,2.53-3.78,3.98-5.53c3.78-4.54,7.35-5.71,12.45-2.69
		c15.08,8.92,20.38,18.95,14.68,34.41c-5.17,14.04-9.22,28.46-14.84,42.33c-2.35,5.8-1.74,12.22-3.43,18.18
		C885.78,460.03,885.99,461.61,884.79,462.71z"/>
	<path class="st3" d="M884.79,462.71c0.66-11.86,3.88-23.06,7.59-34.31c4.04-12.22,9.45-23.98,12.31-36.61
		c1.74-7.69-0.68-14.08-5.84-19.56c-2.32-2.46-4.99-4.67-7.77-6.6c-6.37-4.4-12.19-2.26-16.46,6.47
		c-6.7,13.71-12.85,27.68-19.59,41.37c-4.83,9.8-9.43,19.91-19.17,26.17c-1.54-0.18-1.65-1.04-1.04-2.22
		c8.96-18.46,17.48-37.17,27.1-55.28c3.91-7.36,6.71-15.3,11.61-22.21c5.95-8.39,13.08-11.42,22.56-7.55
		c8.06,3.29,15.14,8.37,20.24,15.65c4.24,6.05,3.03,12.71,1.14,19.07c-4.45,15-9.33,29.85-15.4,44.32
		c-4.34,10.33-7.63,21.1-11.56,31.61C888.49,468.46,886.69,463.35,884.79,462.71z"/>
	<path class="st1" d="M959.92,415.2c-2.27,5.05-4.32,10.22-7.7,14.69c-1.52,0.56-2.49-0.45-3.41-1.32
		c-10.15-9.7-18.08-20.69-21.91-34.54c-1.75-6.31-2.9-12.43-2.1-18.9c8.08-0.42,16.03-2.35,24.18-1.96
		c3.67,1.28,7.47,2.13,11.12,3.45c7.82,2.83,10.26,7.46,8.16,15.5c-0.9,3.45-2.21,6.77-3.21,10.19c-0.92,2.25-1.74,4.54-2.82,6.73
		C961.17,410.97,960.58,413.1,959.92,415.2z"/>
	<path class="st1" d="M889.6,588.99c-1.69-7.57,1.34-14.59,2.56-21.82c2.28-13.46,5.67-26.82,5.15-40.58
		c-0.56-14.72-4.01-28.95-8.57-42.92c-1.4-4.28-2.68-8.61-4.01-12.91c12.22,8.2,20.22,19.34,24.08,33.61
		c3.32,12.26,4.92,24.79,3.88,37.31c-0.83,10.04-4.11,19.84-9.12,28.76c-2.9,5.16-6.43,9.98-9.72,14.92
		C892.79,586.95,891.91,588.83,889.6,588.99z"/>
	<path class="st1" d="M809.03,363.37c1.49-4.36,4.08-8.1,6.73-11.8c4.44-5.17,8.9-10.32,13.65-15.2c4.91-5.05,9.81-5.85,16.4-3.14
		c6.93,2.85,13.26,6.78,19.55,10.78c1.88,1.45,3.87,2.77,5.58,4.39c0.81,0.77,2.84,1.47,1.27,3.31
		c-15.63,14.58-30.48,22.69-52.65,14.6c-1.38-0.5-2.88-0.48-4.26-0.95c-1.17-0.35-2.34-0.7-3.57-0.8
		C810.71,364.41,809.73,364.21,809.03,363.37z"/>
	<path class="st0" d="M924.8,375.12c1.18,5.86,1.39,11.78,3,17.72c4.13,15.24,12.94,26.91,24.42,37.05
		c-1.77,5.12-5.39,6.67-10.74,7.12c-10.34,0.88-20.23-0.58-30.04-3.46c-1.42-0.42-3.44-0.42-2.47-3.01
		c0.69-1.85,1.06-3.55,3.76-3.21c10.6,1.32,21.19,2.88,32.62,2.36c-4.06-2.09-8.09-1.81-11.78-2.74
		c-5.63-1.42-11.41-2.27-17.16-3.16c-3.53-0.55-4.58-2.15-3.35-5.56c3.9-10.79,7.15-21.76,9.88-32.92
		C923.78,381.91,922.47,378.17,924.8,375.12z"/>
	<path class="st0" d="M815.32,364.36c5.88,0.74,11.28,3.46,17.28,3.89c11.85,0.86,21.74-3.55,30.85-10.57
		c2.79-2.15,5.83-3.98,8.75-5.96c-6.55,11.88-12.74,23.94-18.36,36.28c-1.29,2.85-2.61,2.24-4.68,0.78
		c-10.23-7.26-20.57-14.39-30.87-21.56C817.02,366.56,814.89,366.79,815.32,364.36z"/>
	<path class="st0" d="M809.03,363.37c1.19,0.02,2.37,0.05,3.56,0.07c1.91,1.25,3.49,2.83,4.79,4.7c9.2,9.37,19.74,17.14,30.26,24.88
		c3.26,2.39,1.54,4.15,0.53,6.39c-1.48,3.3-3.69,1.31-5.17,0.41c-10.91-6.63-20.9-14.48-30.41-23
		C808.24,372.93,806.27,368.9,809.03,363.37z"/>
	<path class="st4" d="M865.35,344.02c-6.92-1.97-12.5-6.68-19.1-9.36c-5.67-2.3-10.63-2.79-15.47,2.08
		c-3.53,3.55-6.54,7.52-10.04,11.06c-1.45,1.47-3.31,2.53-4.99,3.78c2.85-8.99,8.14-16.84,11.91-25.4c0.2-0.44,0.47-0.85,0.7-1.28
		c4.69-8.61,4.92-8.89,12.61-2.53C849.34,329.28,857.24,336.78,865.35,344.02z"/>
	<path class="st5" d="M857.33,447.18c6.01-2.44,8.74-7.81,11.45-13.1c1.63-3.19,3.44-6.16,5.88-8.82c1.57-1.71,3.28-2.98,5.45-2.06
		c2.54,1.07,1.84,3.64,1.4,5.57c-2.11,9.38-4.89,18.62-5.6,28.28C869.71,453.75,863.52,450.46,857.33,447.18z"/>
	<path class="st4" d="M964.68,402.19c-0.42-3.89,1.7-7.2,2.5-10.82c1.72-7.75-0.58-11.44-8.33-14c-3.35-1.11-7.36-1.03-9.87-4.21
		c7.77-0.8,14.93,1.14,21.82,4.6c3.6,1.81,4.74,4.29,3.04,7.96c-2.8,6.05-5.34,12.23-8.99,17.86
		C964.34,403.17,964.28,402.71,964.68,402.19z"/>
	<path class="st41" d="M817.38,368.14c-2.06-1.1-3.57-2.75-4.79-4.7c1.08-0.21,1.9,0.37,2.73,0.91c0.99,0.95,1.98,1.91,2.98,2.86
		C817.99,367.53,817.68,367.84,817.38,368.14z"/>
	<path class="st42" d="M964.68,402.19c0.06,0.46,0.12,0.93,0.18,1.39c-0.06,2.65-1.12,4.84-2.98,6.68c-0.3-0.22-0.42-0.47-0.37-0.73
		c0.05-0.28,0.12-0.42,0.21-0.42C962.32,406.63,963.29,404.32,964.68,402.19z"/>
	<path class="st43" d="M961.72,409.1c0.05,0.39,0.11,0.77,0.16,1.16c0.11,1.95-0.64,3.55-1.96,4.94
		C958.84,412.67,960.99,411.09,961.72,409.1z"/>
	<path class="st44" d="M834.83,437.43c0.15,0.83,0.13,1.74,1.04,2.22c-0.32,0.56-0.64,1.12-0.96,1.68
		C831.48,440.09,834.43,438.73,834.83,437.43z"/>
	<path class="st45" d="M297.9,653.39c0.31,0.03,0.62,0.08,0.93,0.16c5.8,5.11,10.39,11.36,16.03,16.68
		c10.61,10.02,20.33,20.93,25.04,35.27c0.4,1.21,1.1,2.33,1.66,3.49c1.43,2.17,0.68,4.47,0.4,6.75c-0.05,3.06-0.32,6.14,0.69,9.12
		c1.04,1.46,0.96,2.93,0.04,4.41c-2.8,5.27-1.93,11.57-4.79,16.89c-0.68,1.27-1.62,2.36-2.23,3.66c0.34,1.6,0.51,3.17-0.77,4.49
		c-1.44,1.18-3.37,1.86-3.95,3.91c-0.78,1.6-1.98,2.84-3.37,3.91c-1.71,0.95-2.99,2.26-3.59,4.16
		c-5.57,6.53-12.32,11.54-20.07,15.16c-2.52,1.17-5.27,1.34-7.97,0.25c-2.35-2.18-4.94-1.43-7.53-0.59
		c-7.75,1.34-14.37-2.38-21.16-5.02c-2.63-1.03-5.28-2.38-7.7-3.93c-2.87-1.84-5.1-1.43-7.06,1.23c-0.38,0.26-0.8,0.4-1.25,0.44
		c-5.87,2.72-9.18,8.27-13.67,12.5c-0.09,0.09,0.73,0.49,1.06,0.84c-0.78,2.99-8.98,10.02-12.1,10.38c-2.19,1.66-4.54-1.1-6.74,0.26
		c-5.6,0.04-8.8-4.53-12.83-7.18c-7.43-4.9-14.09-10.92-19.28-18.34c-3.62-5.18-3.57-11.13,0.26-15.64
		c6.83-1.97,12.16-6.67,18.08-10.23c11.08-6.68,19.58-16.6,29.65-24.58c1.99-1.58-1.9-0.99-0.5-2c1.35-2.65,4.11-0.8,5.95-1.87
		c2.51-0.92,4.77-2.28,6.96-3.77c5.19-2.91,8.4-7.65,11.58-12.42c0.61-2.94,3.74-4.49,4.15-7.55c0.33-0.89,0.84-1.64,1.62-2.19
		c5.95-2.67,9.7-8.02,12.76-13.04c3.28-5.36,7.65-9.58,11.36-14.43C292.36,660.86,293.51,655.89,297.9,653.39z"/>
	<path class="st45" d="M219.77,799.68c2.54,1.05,4.16,2.85,4.99,5.53c4.77,15.44,9.61,30.86,14.43,46.29
		c0.62,1.98,1.24,3.96,1.86,5.93c-0.4,1.44,0.38,2.77,0.37,4.18c0.21,0.56,0.37,1.16,0.79,1.62c1.33,7.76,3.1,15.48,3.87,23.3
		c0.72,7.36-6.08,15.8-13.32,17.81c-2.82,0.78-9.98-2.53-12.06-5.47c-5.97-8.42-12.12-16.71-17.94-25.24
		c-2.9-4.26-4.31-9.35-6.5-14.01c-10.66-22.72-19.75-46.13-28.81-69.51c-3.4-8.77-4.75-18.34-7.04-27.55
		c0.91-1.07,2.11-1.45,3.46-1.45c6.2,0.03,12.19-1.33,18.15-2.81c0.66-0.17,1.27-0.02,1.81,0.41c1.02,14.23,8.91,23.69,20.51,31.21
		C209.46,793.22,215.35,795.32,219.77,799.68z"/>
	<path class="st46" d="M183.48,758.71c-7.41,2.96-15.27,3.18-23.07,3.84c-0.3-0.93-0.6-1.86-0.9-2.78
		c-4.87-20.25-9.62-40.54-13.24-61.07c-0.23-1.28-0.49-2.55-1.57-3.45c-1.03-1.56-0.61-3.19-0.26-4.82
		c1.41-5.76-0.07-11.9,3.83-17.47c2.77-3.95,5.17-8.16,10.04-8.56c5.41-0.45,9.33,3.36,11.73,7.8c7.5,13.85,14.45,27.88,18.07,43.49
		c1.87,8.07,4.34,16.12,6.83,24.09c0.46,1.48,0.52,2.83,0.25,4.28c-0.12,1.49-1.24,2.15-2.34,2.84c-4.17,2.6-6.11,6.9-8.34,10.98
		C184.25,758.25,183.9,758.53,183.48,758.71z"/>
	<path class="st45" d="M161.38,791.87c2.83,9.05,5.66,18.09,8.49,27.14c-2.44,1.67-5.08,0.79-7.66,0.58
		c-0.36-0.21-0.72-0.41-1.07-0.62c-2.92-0.48-5.85-1.07-8.74,0.16c-6.47-0.33-12.94-0.66-19.42-0.99c-2.41-0.15-4.9-0.01-6.92-1.73
		c-8.99-3.23-17.18-8.13-25.63-12.48c-3.69-1.9-4.91-6.17-7.65-9.03c-0.97-2.23-0.81-4.53-0.46-6.85c0.02-2.44,1.48-3.8,3.54-4.7
		c5.2-2.14,8.94-6.7,14.25-8.64c0.7-0.25,1.52-0.16,2.28-0.23c3.65-0.44,7.39-0.58,10.31-3.29c1.6-2.03,3.78-2.72,6.27-2.66
		c0.86,0.09,1.34-0.56,1.95-0.98c0.32-0.06,0.63-0.09,0.96-0.06c1.05,0.94,2.06,1.21,3.01-0.14c2.18-2.46,5.05-1.74,7.78-1.67
		c0.83,0.02,1.39-0.47,1.92-1.01c0.33-0.02,0.66-0.04,0.98-0.05c1.03,0.9,2.03,1.1,2.97-0.14c4.76-3.07,5.92-2.58,7.53,3.16
		c-0.25,1.62-0.76,3.25,0.34,4.77c2.93,4.09,2.16,9.22,3.83,13.67c0.95,1.36,0.85,2.99,1.16,4.52
		C161.57,791.01,161.56,791.45,161.38,791.87z"/>
	<path class="st45" d="M275.45,818.17c-0.34,0.03-0.67,0.07-1.01,0.1c-2.37-1.39-4.69-1.69-6.9,0.33c-1.6,1.79-3.6,2.02-5.79,1.5
		c-2.36-1.39-4.69-2.18-6.86,0.34c-2.92,0.89-5.98,0.85-8.96,1.82c-4.39,1.43-8.29,1.03-9.63-4.87c-0.85-3.75-2.48-7.41-4.29-10.83
		c-1.73-3.28-1.72-5.98,0.82-8.66c1.78-3.95,4.42-7.11,8.28-9.19c3.01,1.29,4.27-1.26,5.99-2.75c3.67-3.16,6.2-7.96,11.89-8.2
		c5.75,1.65,11.26,4.04,17.06,5.59c3.29,0.88,6.53,1.91,9.97,1.97c2.25,0.63,4.58,0.78,6.88,1.15c0.43,0.01,0.84,0.09,1.24,0.23
		c0.56,0.27,1.04,0.66,1.49,1.06c0.95,0.9,1.55,0.41,2.05-0.53c0.52-0.87,1.14-1.77,2.14-1.86c5.31-0.49,9.87-2.93,14.46-5.33
		c0.99-0.52,2.17-0.74,3.19,0.17c3.1,6.38,3.17,12.83-2.17,17.71c-6.93,6.33-14.58,11.89-22.8,16.56c-0.35,0.2-0.95-0.05-1.44-0.09
		c-0.85-0.13-1.39,0.39-1.93,0.92c-0.33,0.04-0.65,0.07-0.98,0.11c-1.13-1.26-2.59-1.07-4.02-0.87c-0.32,0.05-0.91-0.11-0.94,0.54
		c0.49-0.06,0.94,0.01,1.29,0.41c-1.75,3.09-4.7,1.32-7.11,1.74C276.55,817.19,275.99,817.67,275.45,818.17z"/>
	<path class="st47" d="M294.93,787.96c-0.34-0.22-0.69-0.45-1.03-0.67c-0.98-2.4-4.77-2.01-5.08-5.09c2.08-2.33,4.62-1.48,7.1-1.02
		c7.31,1.24,12.7-2.99,17.76-6.99c3.35-2.65,7.45-4.67,9.72-8.61c1.2-1.35,2.49-2.62,3.77-3.9c1.04-1.3,2.09-2.61,3.13-3.91
		c1.01-1.46,2.68-2.24,3.7-3.67c1.57-1.03,0.3-3.16,1.65-4.28c2.28,2.26,1.4,4.27-0.44,6.25c-4.51,4.83-9.03,9.65-13.51,14.5
		c-2.51,2.72-6.83,4.66-4.25,9.64c-6.5,2.54-13.01,5.07-19.51,7.61C296.97,788.37,295.96,788.45,294.93,787.96z"/>
	<path class="st48" d="M183.48,758.71c0.13-0.28,0.24-0.56,0.34-0.84c0.98-1.99,2.8-2.21,4.72-2.21c0.21,0.24,0.29,0.48,0.24,0.74
		c-0.04,0.26-0.1,0.39-0.16,0.39c-3.79,6.44-2.53,10.1,1.55,16.52c4.19,6.59,10.46,10.49,15.94,15.37
		c4.05,3.61,9.07,6.13,13.66,9.13c0,0.63,0,1.26,0,1.89c-4.32-0.86-8.14-3.34-11.51-5.64c-4.12-2.82-9-4.59-12.43-8.59
		c-5.55-6.47-11.4-12.64-12.82-21.55C182.73,762.1,182.71,760.39,183.48,758.71z"/>
	<path class="st49" d="M241.29,789.14c-2.82,2.92-5.64,5.83-8.47,8.75c-2.11,0.02-4.57,6.35-6.31-0.35
		c4.9-2.44,7.38-7.62,11.89-10.49c-0.77-2.06,0.99-2.69,2.08-3.71c1.47-0.91,2.69-2.16,4.14-3.11c1.94-1.36,3.65-2.9,4.55-5.18
		c0.4-0.81,0.88-1.54,1.8-1.84c0.22,0,0.44,0,0.66,0c3.34-0.22,2.64,1.98,2.37,3.94C250.4,781.8,247.93,787.68,241.29,789.14z"/>
	<path class="st50" d="M122.71,771.18c0.87,0.2,2.02-0.83,2.59,0.39c0.37,0.8-0.59,1.08-1.12,1.24c-3.43,1.02-6.89,1.98-10.34,2.94
		c-1.07,0.29-1.48-0.26-1.43-1.27C115.57,772.54,118.58,770.09,122.71,771.18z"/>
	<path class="st51" d="M254.88,820.43c-0.79-1.86,0.09-2.77,1.84-2.57c1.84,0.22,4.71-1.51,5.03,2.23
		C259.48,820.66,257.2,820.95,254.88,820.43z"/>
	<path class="st52" d="M267.54,818.6c-0.53-1.61-0.08-2.65,1.72-2.2c1.77,0.44,4.78-2.32,5.18,1.87
		C272.17,818.97,269.87,819.06,267.54,818.6z"/>
	<path class="st53" d="M284.46,815.49c-1.48,0.38-2.96,0.63-4.38-0.49c2.67,0.84,5.47-4.99,8.05,0.4
		C286.92,815.8,285.7,816.25,284.46,815.49z"/>
	<path class="st54" d="M126.06,816.4c2.15,1.21,5.12-0.9,6.92,1.73C130.11,819.79,127.46,820.61,126.06,816.4z"/>
	<path class="st55" d="M95.87,783.33c-0.66,1.69-2.94,2.39-2.82,4.57c-0.22,1.72-0.59,3.39-1.24,5
		C90.16,787.91,91.68,784.33,95.87,783.33z"/>
	<path class="st56" d="M152.39,819.12c2.87-2.59,5.8-1.46,8.74-0.16C158.22,819.02,155.31,819.07,152.39,819.12z"/>
	<path class="st57" d="M162.21,819.59c2.55-0.19,5.11-0.38,7.66-0.58C167.55,822.32,164.87,820.89,162.21,819.59z"/>
	<path class="st58" d="M342.68,729.27c-0.01-1.47-0.03-2.94-0.04-4.41c0.14-0.73,0.29-1.46,0.43-2.2c0.15,0.02,0.29,0.03,0.44,0.05
		c0,2.24,0,4.48-0.02,6.71c0,0.04-0.27,0.12-0.4,0.09C342.94,729.49,342.82,729.36,342.68,729.27z"/>
	<path class="st59" d="M148.54,764.46c0.05,0.81,0.93,1.94-0.8,2.05c-1.36,0.09-2.08-0.56-2.16-1.91
		C146.54,764.15,147.52,763.96,148.54,764.46z"/>
	<path class="st60" d="M134.89,767.33c0.01,0.81,0.93,1.98-0.82,2.1c-1.4,0.09-2.09-0.61-2.18-1.96
		C132.86,767,133.86,766.86,134.89,767.33z"/>
	<path class="st61" d="M91.81,792.9c-0.1-1.8,0.11-3.51,1.24-5c-0.09,2.33-0.18,4.66-0.27,6.99
		C92.46,794.22,92.13,793.56,91.81,792.9z"/>
	<path class="st62" d="M341.95,715.74c-0.13-2.25-0.26-4.5-0.4-6.75C343.69,711.12,343.13,713.41,341.95,715.74z"/>
	<path class="st60" d="M130.92,767.53c-0.09,0.89-0.09,1.97-1.13,2.21c-0.75,0.18-0.71-0.7-0.82-1.23
		C129.4,767.73,129.66,766.64,130.92,767.53z"/>
	<path class="st63" d="M161.38,791.87c-0.2-0.25-0.33-0.53-0.36-0.84c-0.32-1.35-0.68-2.69,0.27-3.95
		C162.59,788.65,162.58,790.25,161.38,791.87z"/>
	<path class="st64" d="M275.45,818.17c0.12-0.93,0.13-1.96,1.36-2.1c0.13-0.02,0.36,0.76,0.54,1.16
		C276.98,818.07,276.46,818.62,275.45,818.17z"/>
	<path class="st65" d="M156.41,772.4c-1.63-1.48-1.4-3.1-0.34-4.77C156.18,769.22,156.3,770.81,156.41,772.4z"/>
	<path class="st59" d="M144.59,764.65c-0.12,0.95-0.12,1.99-1.35,2.18c-0.13,0.02-0.37-0.76-0.56-1.17
		C143.07,764.87,143.52,764.17,144.59,764.65z"/>
	<path class="st66" d="M241.17,862.22c-1.31-1.56-1.29-3.16-0.12-4.78c0.21,0.24,0.34,0.51,0.38,0.83
		C241.76,859.61,242.11,860.96,241.17,862.22z"/>
	<path class="st67" d="M241.17,862.22c0.09-1.32,0.17-2.64,0.26-3.95c1.18,1.51,0.74,3.27,0.78,4.97
		C241.87,862.9,241.52,862.56,241.17,862.22z"/>
	<path class="st68" d="M161.28,787.07c-0.09,1.32-0.18,2.64-0.27,3.95c-1.18-1.51-0.71-3.28-0.77-4.97
		C160.59,786.4,160.93,786.74,161.28,787.07z"/>
	<path class="st64" d="M289.11,815.3c0.1-0.88,0.1-1.93,1.14-2.15c0.73-0.16,0.69,0.71,0.79,1.24
		C290.67,815.25,290.1,815.72,289.11,815.3z"/>
	<path class="st4" d="M236.41,560.62c4.87,0.61,9.74,1.23,14.61,1.84c1.21,0.78,2.11,3.1,3.96,0.82c8.06-0.33,15.78,1.22,22.78,5.14
		c2.55,1.43,4.15,4.38,3.01,7.81c-2.78,4.58-5.02,9.55-9.36,13.02c-1.08,0.86-1.41,2.09-1.26,3.46c-0.05,0.46-0.22,0.86-0.51,1.22
		c-7.51,5.48-15.01,10.95-22.52,16.43c-0.89,0.77-1.61,1.8-2.9,2c-3.62-0.49-5.02,3.08-7.78,4.31c-4.17,1.85-7.95,4.57-11.89,6.92
		c-0.58,1.18-1.96,1.08-2.85,1.78c-1.47,0.24-2.7,1.02-3.92,1.81c-3.62,3.07-8.25,3.37-12.53,4.66c-1.43,0.38-3.4-0.17-3.63,2.21
		c-0.38,0.57-0.87,1.02-1.46,1.35c-2.06,0.84-4.15,1.59-6.34,2.01c-3.08,0.12-6.05,0.53-8.26,3.03l0.14,0.37
		c-2.17,0.79-4.48,1.2-6.4,2.6c-1.99-0.42-3.83-0.18-5.39,1.26c-0.66,0.51-1.21,1.16-2.01,1.47c-1.59,0.54-3.16,1.12-4.58,2.04
		c-2.34,0.82-4.69,1.45-7.08,0.18c-1.09-0.04-2.32-0.54-2.99,0.88c-2.48,1.68-5.36,0.19-7.94,1.01c-4.45,0.82-8.92,1.55-13.47,1.1
		c-1.58-3.23-4.51-1.55-6.88-1.89c-7.28-2.91-14.95-5.4-16.35-14.81c0.39-1.94,0.67-3.88-0.2-5.77c0.97-3.67-0.65-8.18,3.51-10.82
		c3.12-5.12,6.01-10.42,10.73-14.36c1-0.84,1.91-1.82,0.97-3.28c1.64-0.93,3.3-1.77,4.53-3.33c10.79-13.74,25.44-21.68,41.57-27.22
		c14.21-4.88,28.71-8.48,43.88-8.62c4.62-0.04,9.29,1.36,13.86-0.41C233.03,559.77,234.71,559.86,236.41,560.62z"/>
	<path class="st46" d="M188.62,756.77c-0.07-0.29-0.16-0.58-0.27-0.87c0.5-4.21,4.06-6.39,6.43-9.25c1.94-2.34,3.94-4.61,5.61-7.17
		c1.33-1.59,2.62-3.22,4.01-4.76c6.4-7.1,5.99-8.69-0.85-15.45c-11.34-11.23-18.98-24.53-19.87-40.88
		c-0.31-5.58,0.55-11.13,2.82-16.35c0.02-2.12,0.34-4.07,1.82-5.81c3.91-4.6,6.28-10.29,10.75-14.59c1.64-1.58,3.07-3.14,5.17-4.01
		c4.56-2.82,7.41-7.97,12.9-9.52c1.39-0.43,2.63-1.27,4.06-1.59c1.2-0.06,2.37,0.06,3.49,0.53c1.94,0.76,3.31-0.61,4.84-1.33
		c2.05-0.76,4.23-0.12,6.31-0.57c1.7-0.01,3.41-0.02,5.11-0.03c2.34,0.65,4.86-0.38,7.15,0.75c4.48,1.51,9.13,2.45,13.65,3.79
		c6.11,1.82,11.73,4.75,16.3,8.42c6.52,5.23,14.32,8.83,19.83,15.32c-0.94,3.66-3.56,6.88-5.69,9.26
		c-8.34,9.32-14.25,20.56-23.44,29.14c-0.95,0.89-1.73,1.4-2.89,0.51c-1.83-2.65,0.07-4.92,0.93-7.16c0.87-2.26,1.17-4.31,0.07-6.48
		c-0.43-1.34-0.46-2.75-0.63-4.13c-4.04-10.58-10.92-18.3-21.93-21.91c-2.22-0.73-4.15-0.28-5.75,1.39
		c-1.23,1.29-2.46,2.56-4.16,3.23c-2.1,0.77-3.33,2.46-4.43,4.27c-2.5,3.27-4.24,7.07-6.95,10.19c-0.23,0.37-0.48,0.72-0.73,1.08
		c-0.86,2.21-2.86,3.87-3.02,6.41c-1.31,2.75-3.14,5.29-3.46,8.45c-3.53,11.21,0.76,20.25,12.88,27.46
		c2.33,1.39,5.23,2.02,6.75,4.62c1.81,1.4,0.61,5.01-2.69,6.13c-1.92,0.65-2.98,1.87-4.09,3.11c-9.02,10.03-20.01,17.49-31.54,24.22
		C194.49,754.72,192.49,758.04,188.62,756.77z"/>
	<path class="st69" d="M205.13,638.55c-5.59,3.6-10.23,7.88-12.61,14.46c-1.21,3.35-5.05,5.3-6.02,9.04
		c-1.49-2.3-1.6-4.77,0.44-6.55c4.04-3.53,5.68-8.93,10.02-12.21c1.37-1.04,2.26-2.69,2.16-4.59c-2.58-1.48-5.44,4.25-7.8-0.41
		c0.15-1.24,1.02-1.15,1.91-1.03c2.43-0.58,4.87-1.12,7-2.53c0.32-0.42,0.64-0.84,0.97-1.27c0.57-0.32,1.18-0.5,1.84-0.41
		c1.16,1.6,2.07,1.32,2.78-0.39c0.97-0.93,1.84-2.87,3.39-1.42c1.34,1.25,0.14,2.64-0.91,3.71
		C207.19,636.09,206.01,637.19,205.13,638.55z"/>
	<path class="st70" d="M200.4,739.49c0.47,3.07-1.96,4.59-3.55,6.51c-2.77,3.35-5.65,6.61-8.49,9.91c-1.17,1.44-3.06,1.22-4.54,1.96
		c1.5-6.49,5.84-10.63,11.38-13.8C197.4,743.08,197.36,739.53,200.4,739.49z"/>
	<path class="st71" d="M127.58,600.42c0.71,0.6,4.09-0.26,1.86,1.84c-5.1,4.82-8.91,10.66-13.56,15.8c0.76-3.7,2.67-6.83,4.92-9.78
		c1.56-1.52,3.26-2.93,4.2-4.98C125.86,602.35,126.72,601.38,127.58,600.42z"/>
	<path class="st72" d="M269.63,593.93c0-0.39,0.01-0.77,0.01-1.16c-0.68-1.99,0.92-2.72,2.05-3.71c1.45-0.91,2.69-2.1,4.07-3.11
		c1.7-1.09,1.75-3.25,2.98-4.63c0.17-0.12,0.35-0.24,0.52-0.36c1.47,0.25,1.89-1.11,2.86-1.81c-1.97,6.83-6.52,11.65-11.85,15.9
		C270.05,594.68,269.84,594.31,269.63,593.93z"/>
	<path class="st73" d="M160.22,648.36c2.1-0.81,4.49,0.17,6.52-1.08c1.84-0.32,3.74-0.47,5.15-1.92c0.36-1.09,1.12-1.08,2-0.71
		c-0.21,0.97,1.2,2.29-0.45,2.93c-3.32,1.27-6.38,3.31-10.13,3.32C161.49,650.91,160.13,650.57,160.22,648.36z"/>
	<path class="st74" d="M272.5,589.68c-0.96,1.03-1.91,2.06-2.87,3.1c-1.2-0.79-1.38-2.11-0.44-2.84c4.85-3.75,6.99-9.74,11.55-13.7
		c-0.5,1.58-1,3.15-1.49,4.73c0,0,0.03-0.01,0.03-0.01c-1.21,1.26-1.12,3.17-2.24,4.48C275.15,586.44,273.74,587.97,272.5,589.68z"
		/>
	<path class="st75" d="M128.93,649.46c2.92-1.64,5.76-3.01,6.88,1.89C133.82,649.62,130.56,652.52,128.93,649.46z"/>
	<path class="st76" d="M193.37,637.57c-0.84-0.22-1.59-0.18-2.03,0.72c-2.32-0.32-3.56,2.26-5.8,2.15c1.62-3.61,4.75-3.88,8.1-3.66
		C193.8,637.12,193.72,637.39,193.37,637.57z"/>
	<path class="st77" d="M236.41,560.62c-1.64,0.59-3.3,0.76-4.99,0.22c0.03-0.79-0.85-2.07,0.65-2.15
		C233.72,558.59,235.97,557.74,236.41,560.62z"/>
	<path class="st78" d="M224.7,627.05c-1.01,0.28-2.01,0.61-3.04,0.07c-0.57-0.78-0.57-1.55,0-2.33c0.63-1.18,1.55-1.68,2.88-1.2
		C224.59,624.75,224.64,625.9,224.7,627.05z"/>
	<path class="st79" d="M254.97,563.29c0.05,0.83,0.93,2.02-0.84,2.09c-1.99,0.07-2.99-0.97-3.12-2.91
		C252.33,562.74,253.65,563.01,254.97,563.29z"/>
	<path class="st80" d="M149.28,650.25c2.51-1.4,5.32-0.46,7.94-1.01C154.97,652.6,151.99,650.39,149.28,650.25z"/>
	<path class="st81" d="M179.27,643.4c1.59-2.21,3.95-2.51,6.4-2.6C184.18,643.24,181.51,642.78,179.27,643.4z"/>
	<path class="st82" d="M248.11,625.86c-2.37-0.33-4.96,1.34-7.15-0.75C243.45,624.37,245.94,623.55,248.11,625.86z"/>
	<path class="st83" d="M219.68,553.6c1.55,1.21,3.71,0.05,5.22,1.38c-1.97,0.43-4.2,1.89-5.21-1.38
		C219.69,553.6,219.68,553.6,219.68,553.6z"/>
	<path class="st84" d="M235.85,625.14c-2.03,1.06-4.18,0.74-6.31,0.57C231.46,623.5,233.66,624.42,235.85,625.14z"/>
	<path class="st4" d="M125,603.31c-0.15,2.71-1.91,4.06-4.19,4.98C121.72,606.22,123.34,604.75,125,603.31z"/>
	<path class="st85" d="M244.21,612.36c0.64-1.14,1.2-2.39,2.9-2c-0.13,1.54-0.72,2.76-2.34,3.15
		C244.68,613.54,244.4,612.77,244.21,612.36z"/>
	<path class="st86" d="M112.37,628.88c1.56,1.87,1.35,3.8,0.2,5.77C112.51,632.73,112.44,630.81,112.37,628.88z"/>
	<path class="st87" d="M144.44,690.44c0.09,1.61,0.17,3.21,0.26,4.82C143.03,693.73,143.28,692.11,144.44,690.44z"/>
	<path class="st88" d="M354.52,342.83c0.04-1.52,0.72-2.74,2.13-3.22c0.68-0.23,0.73,0.72,0.82,1.29
		C356.87,342.13,356.17,343.22,354.52,342.83z"/>
	<path class="st89" d="M348.66,347.68c0.61-1.21,1.26-2.34,2.93-1.93c-0.04,1.5-0.74,2.69-2.11,3.18
		C348.8,349.17,348.73,348.24,348.66,347.68z"/>
	<path class="st45" d="M219.9,195.33c0.25,0.02,0.49,0.08,0.72,0.18c2.82,8.87,7.05,17.25,9.3,26.31
		c3.4,13.73-2.52,30.41-15.21,37.66c-4.3,2.46-8.92,4.4-13.8,5.85c-6.19,1.84-11.72,1.19-17.17-1.88
		c-4.86-1.48-8.36-4.84-11.21-8.77c-2.69-3.72-5.56-4.24-9.53-2.27c-2.39,1.18-4.64,3.1-7.63,2.67c-0.91,0.08-2.07-0.18-2.7,0.28
		c-5.25,3.84-9.34,1.78-13.11-2.34c-4.6-3.89-6.14-9.51-8.4-14.74c-1.91-7.82-1.38-9.82,3.3-12.66c12.75-0.24,24.39-5.1,36.34-8.7
		c0.67-0.16,1.34-0.23,2.02-0.26c5.53,0.32,10.3-1.54,14.48-5.07c2.3-0.78,3.65-3.04,5.94-3.84c3.81,0.08,6.7-2.23,9.69-4
		c4.31-2.54,9.04-4.35,12.97-7.55C216.96,195.32,218.33,194.49,219.9,195.33z"/>
	<path class="st45" d="M117.56,221.93c0.23-0.07,0.45-0.16,0.66-0.27c4.41,0.93,8.67,2.44,13.11,3.28c0.41,0.23,0.7,0.56,0.89,0.99
		c-2.25,4.39-2.74,8.84-0.48,13.4c1.25,5.11,4.37,9.26,7.04,13.64c8.53,9.17,2.37,19.59,2.22,29.39
		c-0.15,9.42-2.43,18.65-4.91,27.78c-1.09,4.01-3.83,6.43-7.42,7.63c-2.85,0.95-5.98,0.72-8.17-2.02c-2.2-2.74-2.1-6.28-3.19-9.41
		c-1.39-4.02-0.9-8.5-2.96-12.37c-0.41-5.51-0.75-11.01-0.19-16.53C114.55,258.89,114.27,240.3,117.56,221.93z"/>
	<path class="st45" d="M115.08,220.78c-2.43,10.62-4.55,21.3-5.25,32.2c-0.19,2.94-1,3.3-3.45,2.02
		c-6.28-3.29-13.21-5.46-18.76-10.02c-6.06-4.97-11.91-10.33-14.18-18.18c-1.31-4.53,0.81-7.29,5.36-8.37
		c9.04-2.13,17.96-0.99,26.87,0.77c3.14,0.62,6.31,1.09,9.47,1.64C115.13,220.83,115.08,220.78,115.08,220.78z"/>
	<path class="st45" d="M181.76,265.65c4.09,3.16,8.68,4.45,13.86,3.99c1.48-0.13,3.67-0.84,4.44,0.68c0.98,1.94,0.1,4.18-1.2,5.92
		c-2.77,3.72-7.31,3.63-11.19,4.92c-10.5,3.49-20.22-0.61-30.06-3.29c-1.09-0.3-2.07-0.96-3.16-1.27c-2.59-0.74-6.71-0.02-7.36-2.63
		c-0.98-3.93-0.63-8.39,0.09-12.46c0.43-2.41,3.93-2.34,5.92-3.63c1.08-0.7,2.23-1.27,3.36-1.9c12.75-6.13,9.32-6.21,18.17,3.31
		C176.82,261.66,180.23,262.59,181.76,265.65z"/>
	<path class="st90" d="M181.76,265.65c-4.31-1.97-8.07-4.84-10.68-8.68c-2.78-4.07-5.5-5.17-9.68-2.17
		c-1.35,0.97-3.01,2.03-4.95,1.17c-0.36-0.3-0.72-0.59-1.08-0.89c0.27-0.17,0.53-0.38,0.82-0.52c3.79-1.8,7.46-4.69,11.39-5.08
		c4.58-0.46,5.43,5.54,8.77,7.85c2.62,1.82,4.94,4.06,7.39,6.12C183.66,264.71,183.17,265.6,181.76,265.65z"/>
	<path class="st91" d="M138.77,252.97c-4.03-3.74-7.27-7.92-7.72-13.68c0.23-0.41,0.3-0.96,0.9-1.06c2.53,4.93,5.07,9.86,7.6,14.79
		C139.29,253,139.03,252.98,138.77,252.97z"/>
	<path class="st92" d="M114.15,277.43c0.06,5.51,0.13,11.02,0.19,16.53C112.49,288.47,113.06,282.96,114.15,277.43z"/>
	<path class="st4" d="M170.01,161.27c-11.14-0.75-22.31-0.72-33.23-3.89c-6.53-1.89-11.21-5.42-14.35-11.21
		c-2.08-3.83,0.36-10.24,4.47-14.17c7.1-6.79,16.24-9.26,25.16-11.31c16.78-3.86,33.11-1.35,48.91,5.69
		c7.67,3.42,15.28,6.81,22.28,11.49c1.78,1.19,3.28,2.59,4.74,4.11c2.76,2.88,2.26,5.5-0.5,7.92c-6.87,6.01-15.62,6.8-24.01,8.65
		c-7.53,1.66-15.24,1.48-22.82,2.6C177.11,162.64,173.55,161.16,170.01,161.27z"/>
	<path class="st46" d="M219.9,195.33c-7.59,4.49-15.07,9.19-23.1,12.87c-0.88,0.4-2.22,2.77-3.37,0.1
		c-0.05-0.82-0.03-1.68,0.48-2.34c5.23-6.81,2.64-13.54-0.28-20.18c-1.59-3.6-4.68-5.22-8.4-3.84c-8.54,3.15-16.11,8.05-20.83,15.95
		c-2.78,4.65-0.23,9.36,2.52,13.6c1.38,2.12,4.05,3.37,4.23,6.28c-11.81,4.25-23.59,8.61-36.38,8.84c-0.28-0.39-0.35-0.81-0.16-1.26
		c1.88-2.11,4.26-3.28,7.05-3.66c3.67-1.89,7.62-3.4,10.91-5.81c2.18-1.6,0.49-4.32-0.29-6.47c-2.68-7.36-4.26-14.73-2.85-22.74
		c2.17-12.3,11.04-17.58,21.27-21.63c1.45-0.57,3.11-0.64,4.33-1.79c1.99-1.77,4.32-1.47,6.67-1.1c14.69,2.34,25.98,9.5,32.87,23.02
		C216.29,188.57,219.09,191.42,219.9,195.33z"/>
	<path class="st46" d="M131.58,225.6c-4.79-0.17-9.45-0.8-13.36-3.93c2.4-15.62,4.28-31.35,9.94-46.25
		c0.74-1.95,2.07-3.42,3.85-4.78c6.92-5.3,11.02-3.93,12.72,4.54c0.12,0.59,0.54,1.12,0.82,1.68c0.27,3.55,0.93,7.09,0.2,10.66
		c-0.45,11.18-1.87,22.24-4.09,33.2C138.28,222.3,135.22,224.56,131.58,225.6z"/>
	<path class="st93" d="M131.58,225.6c2.61-3.17,5.94-4.84,10.07-4.88c0.01,0.32,0.01,0.64,0,0.96c-1.82,2.12-4.8,2.24-6.85,3.97
		c-0.93,0.65-1.86,0.72-2.78-0.02L131.58,225.6z"/>
	<path class="st69" d="M181.69,162.13c-2.21,0.47-4.32,1.52-6.67,1.1c-1.67-0.65-3.35-1.31-5.02-1.96
		c3.53-1.15,7.09-0.38,10.64-0.11C180.99,161.48,181.34,161.81,181.69,162.13z"/>
	<path class="st94" d="M145.75,187.52c0.02-3.56-1.24-7.09-0.2-10.66C147.4,180.38,146.85,183.94,145.75,187.52z"/>
	<path class="st95" d="M375.04,227.56c1.88,0.06,2.18,1.56,2.81,3.13c-1.94-0.33-2.77-1.35-2.86-3.08
		C374.99,227.61,375.04,227.56,375.04,227.56z"/>
	<path class="st45" d="M839.69,485.57c0.29-0.06,0.59-0.06,0.88-0.01c5.26,3.93,11.36,6.39,16.83,10.05
		c12.95,8.67,15.43,24.66,6.63,38.61c-5.72,9.07-13.73,9.61-22.73,8.21c-5.35-0.83-6.01-0.48-7.06,5.42
		c0.04,1.31-0.19,2.58-0.68,3.8c-0.29,0.58-0.7,1.07-1.18,1.5c-1.52,0.77-2.11,2.43-3.32,3.5c-2.61,2.69-5.71,1.12-8.64,0.99
		c-0.53,0.78-1.14,1.4-2.21,1.17c-2.72-2.2-6.1-3.28-8.95-5.27c-1.08-0.79-2.26-1.45-3.24-2.38c-0.5-0.51-0.89-1.09-1.15-1.76
		c-0.38-1.16-0.45-2.35-0.34-3.55c0.08-0.72,0.3-1.39,0.69-1.99c6.9-5.94,12.08-13.13,15.67-21.48c0.85-1.04,2.02-1.71,3.02-2.59
		c3.06-2.7,4.73-6.1,5.21-10.13c0.27-1.12,0.73-2.16,1.29-3.15c3.87-4.97,4.21-11.42,7.03-16.83
		C838.15,488.29,838.1,486.49,839.69,485.57z"/>
	<path class="st45" d="M818.1,558.47c0.77-0.28,1.54-0.55,2.32-0.83c0.36,0.51,0.74,1.48,1.09,1.47c5.56-0.21,7.47,3.99,9.93,7.8
		c5.31,8.23,11.15,16.1,15.1,25.18c1.72,3.96,1.52,7.01-1.49,10c-3.15,3.13-5.75,1.12-8.54-0.68c-9.85-6.33-16.72-15.54-24.01-24.37
		c-6.88-8.33-13.49-16.86-18.8-26.31c0,0,0.4-0.02,0.4-0.02c2.56-2.77,5.91-3.74,9.51-4.12c1.31,0.72,1.03,2.64,2.45,3.28
		c0.25,0.2,0.43,0.45,0.54,0.75c0.37,1.73,2.02,2.07,3.19,2.93C812.01,556.11,815.93,555.82,818.1,558.47z"/>
	<path class="st45" d="M790.08,551.93c0.58,0.1,1.29-0.43,1.74,0.34c4.37,7.47,8.5,15.07,13.61,22.29
		c-10.35,3.14-20.1,5.74-30.54,2.63c-6.93-2.07-8.37-4.56-4.38-10.57c4.26-6.42,11.09-9.54,17.64-12.92
		c0.88-0.45,1.86-0.58,1.96-1.79C790.11,551.9,790.08,551.93,790.08,551.93z"/>
	<path class="st45" d="M831.87,552.94c0.4-0.42,0.79-0.84,1.19-1.26c0.63-1.27,0.66-2.8,1.66-3.91c1.81-2.68,3.87-3.05,7.26-2.44
		c8.41,1.51,16.43,0.13,22.47-6.66c3.58,2.92,2.86,5.8,1.09,9.22c-4.81,9.27-13.87,12.51-22.49,16.43c-0.58,0.26-1.26,0.28-1.87,0.5
		c-1.85,0.67-3.71,3.34-5.54,1.51c-2.46-2.45-5.64-4.73-5.85-8.79C829.73,555.67,830.42,554.14,831.87,552.94z"/>
	<path class="st96" d="M831.87,552.94c-0.69,1.53-1.38,3.07-2.08,4.6c-0.25-0.3-0.5-0.59-0.74-0.89
		C829.42,554.98,829.26,552.91,831.87,552.94z"/>
	<path class="st97" d="M834.73,547.77c0.32,1.68-0.5,2.87-1.67,3.91c-0.65-1.6-0.44-2.93,1.17-3.83
		C834.39,547.78,834.55,547.75,834.73,547.77z"/>
	<path class="st4" d="M798.85,488.23c-5.87,1.68-9.65,6.51-14.34,9.89c-4.53,3.27-9.54,6.15-14.51,7.23
		c-9.48,2.05-16.94-1.56-13.78-13.87c2.74-10.7,9.51-19.24,18.39-25.96c11.66-8.83,25.2-12.47,39.37-14.38
		c2.87-0.39,6.2-1.14,7.98,1.57c1.68,2.57,0.32,5.7-1.1,8.18c-2.56,4.47-5.06,9.02-8.87,12.66c-2.46,2.34-4.76,4.86-6.45,7.85
		c-0.12,0.94-0.79,1.45-1.5,1.92c-0.86,0.51-1.74,1-2.39,1.79c-0.78,0.91-1.36,1.98-2.24,2.82
		C799.21,488.03,799.03,488.13,798.85,488.23z"/>
	<path class="st46" d="M839.69,485.57c-2.5,7.23-3.64,15.02-8.63,21.24c-1.21-5.51-3.43-10.25-8.95-12.86
		c-4.24-2-6.08-1.78-8.51,2.16c-2.66,4.31-4.16,8.99-4.39,14.16c-0.23,5.25,2.42,8.01,6.9,9.83c1.75,0.71,3.85,0.78,5.12,2.5
		c-0.59,6.01-4.34,10.41-8.15,14.49c-2.23,2.39-3.11,6.51-7.34,6.78c-0.75-1.26-0.13-2.11,0.85-2.85c2.54-3.07,2.47-7.19,4.27-10.62
		c0.94-1.79-1.5-2.72-2.95-3.52c-4.39-2.41-8.04-5.54-11.26-9.46c-6.01-7.31-4.47-19.28,0.49-25.78c0.76-0.99,1.15-2.27,1.71-3.42
		c0,0-0.09,0.09-0.09,0.09c0.76-1.19,1.73-2.22,2.67-3.28c0.94-0.71,1.99-1.27,2.95-1.96c0.69-0.4,1.43-0.63,2.24-0.57
		C818.21,477.42,829.03,480.59,839.69,485.57z"/>
	<path class="st46" d="M803.41,546.77c-2.89,1.82-6.08,2.94-9.32,3.94c-6.17-10.46-12.85-20.63-16.81-32.25
		c-1.38-4.06-0.26-8.03,2.87-9.79c3.01-1.69,5.91,1.08,8.48,3.6c6.75,6.63,11.52,14.6,16.44,22.5c1.05,1.69,2.08,3.32,0.67,5.29
		c0.21,2.09-1.37,3.76-1.37,5.81C804.16,546.29,803.85,546.6,803.41,546.77z"/>
	<path class="st98" d="M803.66,545.86c-0.19-2.25,0.65-4.13,2.09-5.79c0.28,0.32,0.56,0.64,0.85,0.96c-0.28,0.95-0.56,1.9-0.85,2.85
		c-0.13,0.66-0.26,1.32-0.39,1.98C804.79,546.46,804.22,546.46,803.66,545.86z"/>
	<path class="st99" d="M806.62,482.51c-0.29,0.86-1.09,0.9-1.79,1.1c-0.98,0.26-1.25-0.19-1.07-1.08c0.59-0.37,1.18-0.75,1.76-1.12
		C805.89,481.77,806.25,482.14,806.62,482.51z"/>
	<path class="st100" d="M949.66,430.36c-1.42,0.31-2.36,0.58-3.27-0.55C947.51,429.24,948.4,429.47,949.66,430.36z"/>
	<path class="st1" d="M233.45,656.38c0.46-0.13,1.09-0.1,1.36-0.4c2.31-2.56,4.9-5.61,8.41-4.94c5.44,1.03,11.09,3.02,14.28,7.84
		c3.31,4.99,9.11,8.37,9.94,14.98c-0.37,1.63-0.77,3.26,0.27,4.81c1.5,1.69,1.96,3.24,0.73,5.56c-1.3,2.46-1.74,5.36-2.56,8.07
		c-0.36,0.66-0.73,1.33-1.09,1.99c-1.41,2.7-4.23,4.4-5.19,7.41c-4.44,2.76-7.86,6.55-10.92,10.72c-1.93,2.83-6.33,2.75-7.57,6.4
		c-1.61,2.03-3.91-0.29-5.65,0.91c-10.43-4.24-18.68-10.71-22.45-21.82c-1.31-3.88,0.54-7.12,1.95-10.46
		c1.35-3.82,3.69-7.14,5.59-10.67c0.91-1.69,1.29-3.25,1.07-5.07c2.47-3.58,4.94-7.16,7.41-10.74
		C230.81,659.74,232.1,658.03,233.45,656.38z"/>
	<path class="st0" d="M304.7,703.85c7.22,2.68,11.2,8.78,14.6,14.96c3.08,5.59,6.4,11.64,2.89,18.48
		c-2.21,5.27-5.27,9.71-10.71,12.25c-1.55,0.72-3.5,1.99-2.49,4.49c-4.09,2.75-7.83,5.92-13.38,5.81c-2.13-0.04-5.03,0.11-6.06-0.77
		c-6.13-5.21-14.17-7.87-18.82-15.16c-3.59-5.63-1.19-10.53,1.21-14.72c2.97-5.19,5.9-10.69,10.59-14.8
		c1.14-0.99,2.25-1.78,3.72-2.04c4.95-2.85,9.52-6.41,15.13-8.01c0.46-0.44,0.81-0.97,1.21-1.46
		C303.62,702.49,304.14,703.22,304.7,703.85z"/>
	<path class="st101" d="M252.95,777.2c0.29-1.57,1.14-3.33-1.32-4c2.17-4.4,4.69-4.08,8.76-1.78c8.51,4.81,17.54,8.63,27.59,9.04
		c0.99,0.12,1.51,0.57,1.14,1.63c1.06,2.22,5.33,1.48,4.78,5.19c-0.33-0.16-0.66-0.31-0.99-0.47c-2.21-1.01-4.61-0.21-6.87-0.67
		c-8.02,0.09-15.25-2.99-22.46-5.92c-1.55-0.63-3.13-1.39-4.73-2.04c-0.57,0.64-1.08,0.17-1.59-0.09c-1-0.96-2.16-0.61-3.3-0.36
		C253.52,777.75,253.19,777.57,252.95,777.2z"/>
	<path class="st102" d="M248.06,711.8c2.65-4.51,6.26-8.04,10.77-10.67c0.88-0.32,1.34,0.1,1.6,0.89
		c-2.98,5.37-6.13,10.58-12.3,12.91C247.16,713.91,247.42,712.86,248.06,711.8z"/>
	<path class="st92" d="M308.99,754.04c-1.39-0.54-4.09-0.03-1.27-2.95c2.8-2.91,6.68-4.04,9.44-7c1.98-2.12,1.98-5.6,5.04-6.79
		c0.41,1.45-0.46,2.53-1.06,3.68c0.04,0.22,0.08,0.44,0.12,0.66c0.17,3.17-2.07,4.73-4.22,6.35c-1.68,1.62-4.27,2.04-5.53,4.21
		c-0.45,0.77-0.95,1.48-1.88,1.71C309.41,753.97,309.21,754.02,308.99,754.04z"/>
	<path class="st103" d="M241.26,783.98c-0.95,1.02-1.9,2.05-2.84,3.07c-1.02,0.25-2.13,1.54-3.05,0.19c-0.87-1.29,0.8-1.43,1.37-2
		c3.99-4.06,8.02-8.07,12.09-12.05c0.58-0.57,1.48-2.4,2.15,0.02c-0.34,0.63-0.69,1.25-1.03,1.88c-0.87,2.13-2.61,3.5-4.34,4.87
		C243.72,780.83,242.46,782.37,241.26,783.98z"/>
	<path class="st104" d="M302.76,705.03c-5.33,2.21-10.88,3.93-14.94,8.49c-1.62,1.82-1.52-0.1-1.57-1.16
		c0.14-1.21,1.05-1.88,1.85-2.62c0.88-0.92,1.56-2.05,2.8-2.58c2.34-0.99,4.72-1.9,6.93-3.18l-0.02,0.03
		C299.6,703.68,301.42,703.19,302.76,705.03z"/>
	<path class="st50" d="M309.61,753.89c0.33-0.65,0.65-1.3,0.98-1.95c1.25-2.04,4.04-1.84,5.42-3.69c2.87-1.59,4.97-3.74,5.18-7.23
		c0,0-0.06-0.05-0.06-0.05c3.51,0.89,1.47,3.41,0.76,4.45c-2.95,4.31-6.79,7.76-11.78,9.68
		C310.1,755.09,309.78,754.31,309.61,753.89z"/>
	<path class="st105" d="M248.06,711.8c0.02,1.04,0.05,2.09,0.07,3.13c-1.42,2.95-4.49,2.94-7.02,3.89c-0.6-1.57,0.24-3.96,2.24-4.23
		C245.54,714.3,246.4,712.53,248.06,711.8z"/>
	<path class="st52" d="M289.12,782.1c-0.38-0.54-0.76-1.09-1.14-1.63c2.75-0.9,5.66-3.62,7.95,0.71
		C293.66,781.49,291.39,781.79,289.12,782.1z"/>
	<path class="st106" d="M260.43,702.02c-0.53-0.3-1.07-0.59-1.6-0.89c1.27-2.91,3.21-5.23,5.96-6.84
		C265.42,698.04,261.3,699.11,260.43,702.02z"/>
	<path class="st107" d="M304.7,703.85c-0.65-0.23-1.3-0.45-1.95-0.68c-0.37-0.17-0.6-0.45-0.68-0.85c-1.15-0.38-2.3-0.76-3.44-1.13
		C301.36,700.53,304.59,698.86,304.7,703.85z"/>
	<path class="st108" d="M297.84,703.98c-1.6,2.71-4.31,3.38-7.11,3.87c-0.21-0.73-0.23-1.39,0.64-1.73
		c0.25,0.08,0.47,0.04,0.67-0.14c0.89-0.77,1.6-1.81,2.94-1.89C295.92,704.06,296.88,704.02,297.84,703.98z"/>
	<path class="st0" d="M327.18,761.68c-0.27,2.25-1.53,3.55-3.77,3.9C323.76,763.4,325.26,762.33,327.18,761.68z"/>
	<path class="st0" d="M334.02,754.1c-0.37,2.1-1.59,3.33-3.7,3.67C330.46,755.45,332.49,755.02,334.02,754.1z"/>
	<path class="st109" d="M294.97,704.1c-0.6,1.22-1.24,2.38-2.94,1.89c0.05-1.5,0.74-2.7,2.13-3.17
		C294.83,702.6,294.89,703.53,294.97,704.1z"/>
	<path class="st108" d="M302.07,702.31c0.23,0.28,0.45,0.57,0.68,0.85c0,0.62,0.01,1.24,0.01,1.87c-1.65-0.34-3.3-0.68-4.95-1.02
		C298.72,702.15,300.92,703.56,302.07,702.31z"/>
	<path class="st110" d="M291.37,706.12c-0.21,0.58-0.42,1.15-0.64,1.73c-0.87,0.63-1.75,1.26-2.62,1.89
		C288.39,707.81,289.52,706.64,291.37,706.12z"/>
	<path class="st111" d="M257.91,777.28c0.31,0.3,0.63,0.61,0.94,0.91c-5.62,1.87-8.79,6.75-12.88,10.51
		c-1.48,1.36-2.83,3.36-4.68,0.44c4.92-2.97,8.26-7.48,11.66-11.94c0.27,0.01,0.54,0.01,0.81,0.02
		C255.15,776.59,256.54,776.74,257.91,777.28z"/>
	<path class="st47" d="M286.04,786.14c2.35-0.4,4.8-1.72,6.87,0.68C290.61,786.66,288.19,787.82,286.04,786.14z"/>
	<path class="st107" d="M294.93,787.96c0.98-0.49,1.98-0.64,3.02-0.15c0,0.81,0.94,2-0.82,2.13
		C295.71,790.04,295.03,789.33,294.93,787.96z"/>
	<path class="st101" d="M245.48,779.34c1.49-1.42,2.97-2.84,4.46-4.25c-0.28,3.21-2.56,4.71-5.11,5.99
		C244.63,780.34,244.62,779.68,245.48,779.34z"/>
	<path class="st45" d="M245.48,779.34c-0.22,0.58-0.43,1.16-0.65,1.73c-1.19,0.97-2.38,1.94-3.57,2.9
		C241.71,781.56,243.31,780.19,245.48,779.34z"/>
	<path class="st112" d="M205.13,638.55c-0.09-2.96,4.09-3.62,3.73-6.82c-1.85-0.47-1.57,1.77-2.75,2.03
		c-0.98-0.03-1.83-0.31-2.37-1.21c-0.09-0.74,0.01-1.39,0.9-1.57c4.64-0.97,9.01-2.68,13.18-4.91c0.79,0.84,0.8,1.68-0.01,2.52
		C213.27,631.51,209.19,635.01,205.13,638.55z"/>
	<path class="st113" d="M217.81,628.59c0-0.84,0.01-1.68,0.01-2.52c1.29-0.39,2.06-2.36,3.84-1.27c0,0.78,0,1.55,0,2.33
		C220.54,628.04,219.51,629.19,217.81,628.59z"/>
	<path class="st112" d="M193.37,637.57c0.08-0.27,0.16-0.54,0.27-0.8c2.2-0.68,4.4-1.37,6.61-2.05
		C198.67,637.4,195.96,637.35,193.37,637.57z"/>
	<path class="st1" d="M171.89,645.36c-1.1,2.29-2.82,2.94-5.15,1.92C168.36,646.38,169.95,645.41,171.89,645.36z"/>
	<path class="st114" d="M204.64,630.98c-0.29,0.56-0.59,1.11-0.88,1.67c0.14,0.66-0.13,0.99-0.81,1c-0.58-0.06-1.16-0.13-1.74-0.19
		C200.83,630.52,203.33,631.57,204.64,630.98z"/>
	<path class="st115" d="M221.62,671.71c2.04,2.33,0.97,4.19-0.6,6.32c-2.2,3-3.45,6.65-6.06,9.41c-0.18-3.44,1.27-6.16,3.69-8.46
		c0.07-2.8,3.41-4.26,2.99-7.27L221.62,671.71z"/>
	<path class="st1" d="M221.64,671.72c1,3.24-1.7,4.96-2.99,7.27C217.75,675.79,221.31,674.42,221.64,671.72z"/>
	<path class="st116" d="M233.45,656.38c-0.53,2.44-2.06,3.91-4.42,4.6C230.37,659.32,231.33,657.29,233.45,656.38z"/>
	<path class="st117" d="M267.7,678.66c-1.62-1.51-1.41-3.13-0.27-4.81C267.52,675.46,267.61,677.06,267.7,678.66z"/>
	<path class="st1" d="M202.95,633.64c0.27-0.33,0.54-0.66,0.81-1c0.9,0.13,1.82,0.2,2.35,1.11
		C204.95,636.55,203.99,634.07,202.95,633.64z"/>
	<path class="st1" d="M276.7,585.03c1.6-0.89,0.4-3.56,2.59-4.06c-0.73,2.13-0.26,4.92-3.22,5.81
		C275.87,586.04,275.87,585.38,276.7,585.03z"/>
	<path class="st4" d="M276.7,585.03c-0.21,0.58-0.42,1.16-0.64,1.74c-1.19,0.97-2.38,1.94-3.56,2.91
		C272.95,587.27,274.56,585.91,276.7,585.03z"/>
	<path class="st1" d="M171.15,217.76c-4-2.75-6.53-6.66-8.04-11.11c-1.48-4.39-1.45-8.54,2.26-12.37
		c6.07-6.28,12.49-11.77,21.26-13.79c3.57-0.82,6.42,0.88,7.65,3.65c3.47,7.79,7.61,15.12-0.85,24.16c-1.68,1.36-2.54,3.91-5.32,3.7
		c-4.9,2.18-9.72,4.58-15.1,5.4C172.39,217.52,171.77,217.64,171.15,217.76z"/>
	<path class="st0" d="M216.3,237.67c-0.27,8.54-4.06,13.03-11.51,14.66c-2,0.44-3.93,1.24-5.95,1.58
		c-5.83,0.99-9.69-2.2-14.05-10.95c-2.19-4.4-2.19-8.2,1.77-11.56c5.66-4.8,12.23-7.57,19.5-8.7c3.63-0.56,6.34,0.97,7.69,4.43
		C215.19,230.84,216.69,234.54,216.3,237.67z"/>
	<path class="st118" d="M173.02,217.39c4.91-2.15,9.54-5.07,15.1-5.4C184.03,216.44,179.05,218.4,173.02,217.39z"/>
	<path class="st119" d="M132.02,225.63c0.93,0.01,1.85,0.01,2.78,0.02c0.07,0.32,0.05,0.64-0.03,0.95
		c-3.73,1.51-3.89,4.65-3.28,7.86c0.24,1.27,0.51,2.49,0.46,3.77c-0.3,0.35-0.6,0.7-0.9,1.06
		C128.55,234.53,128.83,229.98,132.02,225.63z"/>
	<path class="st1" d="M821.24,522.61c-1.42-0.21-2.9-0.22-4.24-0.67c-7.61-2.55-9.98-6.77-8.61-14.98c0.75-4.5,2.5-8.58,4.64-12.59
		c1.63-3.06,3.91-3.53,6.84-2.64c7.8,2.39,11.28,7.13,11.19,15.08c-0.37,1.01-0.75,2.02-1.12,3.03c-0.92,4.13-3.76,7.24-5.72,10.82
		C823.48,521.71,822.53,522.42,821.24,522.61z"/>
	<path class="st0" d="M861.31,519.09c0.45,6.08-3.5,10.1-7.54,12.73c-4.39,2.85-9.39-0.29-13.39-2.79
		c-3.06-1.92-2.14-5.43-1.61-8.69c0.71-4.4,3.37-7.59,5.78-10.93c2.38-3.28,5.85-3.69,8.93-1.28
		C857.13,510.96,862.05,513.18,861.31,519.09z"/>
	<path class="st120" d="M824.21,520.67c0.53-4.34,3.57-7.34,5.72-10.82C830.04,514.52,828.32,518.23,824.21,520.67z"/>
	<path class="st121" d="M818.1,558.47c-3.06-1.15-6.43-1.7-8.71-4.39c-0.47-0.45-0.44-0.86,0.09-1.23
		C812.16,555.02,816.7,554.34,818.1,558.47z"/>
	<path class="st122" d="M803.66,545.86c0.57,0,1.13,0,1.7,0c0.23,1.33,0.46,2.67,0.69,4c-1.74-0.3-2.27-1.62-2.64-3.09
		C803.47,546.46,803.55,546.16,803.66,545.86z"/>
	<path class="st123" d="M809.48,552.85c-0.03,0.41-0.06,0.82-0.09,1.23c-1.53-0.67-3.63-0.88-2.81-3.46
		C807.55,551.36,808.52,552.1,809.48,552.85z"/>
	<path class="st124" d="M803.76,482.52c0.36,0.36,0.72,0.72,1.07,1.08c-0.69,1.13-1.85,1.5-3.01,1.88
		c-0.61-0.04-0.72-0.56-0.94-0.97C801.28,483.04,802.62,482.93,803.76,482.52z"/>
	<path class="st125" d="M800.88,484.51c0.31,0.32,0.63,0.65,0.94,0.97c-0.86,1.12-1.62,2.34-3.06,2.83
		C798.38,486.44,800.05,485.71,800.88,484.51z"/>
	<path class="st45" d="M257.91,777.28c-1.4,0.96-2.77,0.03-4.15-0.06C255.16,776.16,256.57,774.73,257.91,777.28z"/>
	<path class="st45" d="M321.19,741.02c0.7,4.16-1.88,6.21-5.08,7.85c-0.21-0.75-0.22-1.42,0.67-1.74
		C319.12,745.71,320.16,743.37,321.19,741.02z"/>
	<path class="st0" d="M316.79,747.13c-0.22,0.58-0.45,1.16-0.67,1.74c-1.35,1.9-3.98,1.52-5.52,3.08
		C311.2,748.47,315.03,749.13,316.79,747.13z"/>
</g>
</svg>
