<?xml version="1.0" encoding="utf-8"?>
<!-- Generator: Adobe Illustrator 23.0.1, SVG Export Plug-In . SVG Version: 6.00 Build 0)  -->
<svg version="1.1" id="Layer_4" xmlns="http://www.w3.org/2000/svg" xmlns:xlink="http://www.w3.org/1999/xlink" x="0px" y="0px"
	 viewBox="0 0 1000 1000" style="enable-background:new 0 0 1000 1000;" xml:space="preserve">
<style type="text/css">
	.st0{fill:#F26507;}
	.st1{fill:#2C234D;}
	.st2{fill:#E7D899;}
	.st3{fill:#9C8E54;}
	.st4{fill:#0A0715;}
	.st5{fill:#FCD69A;}
	.st6{fill:#9F7F38;}
	.st7{fill:#FEBD62;}
	.st8{fill:#FEFEFE;}
	.st9{fill:#6C5AA5;}
	.st10{fill:#FEFE65;}
	.st11{fill:none;}
</style>
<g>
	<path d="M826.8,524c-10.4-15.7-24.8-27.7-43.7-32.5c-16.3-4.2-32.2-1.3-45.8,8c-14.4,9.8-24.7,23.8-33.5,38.8
		c-4.2,7.2-8.5,14.3-12.7,21.5c0.5-12.7,2.3-24.9,3.9-37c1.1-8.8,3.2-17.5,1.8-26.5c-0.9-5.7-1.8-11.5-2.5-17.2
		c-1.7-14.2-4.6-28.1-9.1-41.8c-4.8-14.6-11.3-28.6-18.2-42.3c-1.1-2.1-1.9-3.6,0-5.6c2.8-3.1,5.6-6.3,8.2-9.6
		c5.3-6.7,11.6-12.7,13.5-21.5c3.9-17.8-1.5-33.6-9.8-49c-1.8-3.3-5.7-5-5.9-9.1c6-12.1,11.3-24.6,17.3-36.7
		c1.4-2.9,3.7-5.8,1.6-9.3c-0.1,0-0.1,0-0.2,0c0,0-0.1,0-0.1,0c-8,1.8-15.3,4.2-16.9,13.9c-0.4,2.6-1.4,5.4-3.7,6.7
		c-4.3,2.5-6.8,6.3-7.7,12c-9-8-18.1-14.5-27.6-20.1c0,0,0,0,0,0c-1.6-1-3.3-1.9-4.9-2.8c-0.5-0.3-1.1-0.6-1.6-0.9
		c-3.3-1.7-6.8-2.9-10.2-5.4c4-1.5,5.9-2.2,7.1-3.6c0.2-0.3,0.4-0.6,0.6-0.9c0,0,0,0,0,0c0.7-1.3,1.1-3,1.9-5.8
		c0.6-2.4,1.7-4.8,4-5.5c9.5-3.1,11.2-13.1,17.3-19.1c0,0,0,0,0,0c0,0,0.1-0.1,0.1-0.1c0.1-0.2,0.3-0.3,0.5-0.4
		c-4.5-4.2-9.4-7.7-16.1-6.2c-4,6.4-6.5,14-14.1,17.5c-0.6,0.3-1.3,1-1.3,1.6c-1,7-5.7,10.2-11.9,12.2c-1.2,0.4-2.5,1.6-3.2,2.7
		c-1.8,3-4.3,2.4-6.5,1.4c-12.8-5.5-26.3-7.7-39.9-10.3c-16.3-3.1-27.5,4.6-37.5,14.6c-7.4,7.5-13.1,16.7-18.7,25.7
		c-2.6,4.1-4.3,5.5-9.7,4.8c-5.9-0.8-12-2-18.2-1.9c-14.1,0.2-27.9,2.2-41.8,4.3c-21.4,3.4-42.4,8.6-61.8,18.4
		c-25.8,13-49,29.3-67.3,52.5c-16.5,20.8-30.5,43.1-39.1,67.9c-9,26-15.3,52.8-12,81c1.9,15.7,3.9,31.2,8.3,46.4
		c5.9,20.5,14.9,39.4,27,56.9c1.9,2.7,2.5,4.4-1.3,6.9c-8.8,6-17,12.8-25.4,19.4c-2.8,2.2-5.2,1.6-6.6-1.3
		c-4.8-9.6-11.4-17.9-17.6-26.4c-5.4-7.5-10.5-15.5-17-21.9c-10.9-10.7-25.8-16.3-36.7-27.2c-2.3-2.3-4.6-5-7.3-6.8
		c-14.5-9.3-30.2-12-47-8.3c-8.8,1.9-17,6.1-22.5,12.8c-12.3,14.9-14.4,32.5-10.3,51.1c3.4,15.4,11.3,28.5,20.8,40.7
		c3.5,4.6,6.3,9.8,10.8,13.6c17.4,14.6,36,27.5,54.9,40.1c14.6,9.8,30.4,18,42.7,30.8c13.3,13.9,24.3,29.8,34.3,46.2
		c7.4,12.3,15.8,20.8,30.8,21.6c27.1,1.5,41.6-20,43.4-41.2c1.8-21.3-6.3-40.2-19.4-57.4c10.9-9.3,23.2-17.2,35-25.8
		c2.4-1.8,4.5-0.4,6.6,1c26.4,18.5,56.3,27.6,88.1,32.5c-1.7,6.1-4,12.5-2.7,18.9c3.2,15.8,9.9,29.6,23.7,39.2
		c27.5,19.2,51.1,43,76.5,64.8c10.3,8.8,23.8,12.5,37.1,10.3c23.1-3.8,36.8-19.1,44-40.7c6.9-20.8,10.5-42.4,14.2-64
		c1.2-7.4,4.2-14.4,2-22.5c-3.8-14.6-14.9-21.7-27-27.8c-1.5-0.8-4.3-0.2-4.3-2.4c0-1.5,2.4-2.6,3.9-3.7
		c8.3-6.3,17.1-12.4,24.4-19.8c6.8-6.9,11.4-15.8,17.9-22.9c3.5-3.9,5.2-10,12.5-11.6c-2.9,11.8-2.4,23.1-3.2,34.3
		c-1.2,17.3-0.9,34.8,2.5,52.1c2.6,13.2,6.9,25.4,20.7,30.6c17,6.4,34.3,11.2,52.8,7.5c12.1-2.4,24.8-4.7,32.3-15.4
		c14.7-20.7,17.6-44.4,14.7-69.1c-1.2-10.5-4.1-21.1,3.9-30.4c2.9-3.4,5.8-6.8,8.7-10.1c15.9-17.9,27.5-37.9,32.5-61.6
		C833.1,552.7,835.5,537.3,826.8,524z M719.3,698.5c1.9-9.3,2-16.9,11.2-20.3c4.7-1.7,7.7-0.5,10.5,2.2c6.3,6,8,19.5,3.2,26.8
		c-3,4.6-8.3,6-13.3,5.4c-4.6-0.6-8.8-3.1-9.4-8.7C721.2,701.5,719,699.3,719.3,698.5z M760.3,566.9c3.4-5.5,6.3-11.7,12.6-15.2
		c3.8-2.1,6.7-4.3,11.3-1.9c4.8,2.5,4.5,7.1,5.7,9.9c-0.4,14.6-15.4,24.2-26.6,19C756.5,575.6,758,570.7,760.3,566.9z"/>
	<path class="st0" d="M650,222.6c-4.9-2.9-10.1-5.3-15.7-6.7c-5.4-2.5-10.8-5.1-17.4-8.2c14.6-3.8,28.2-7.3,41.7-10.9
		c8.5-4.4,17.6-6.3,27.1-6.7c14.4-1.4,15.2-2.1,11.3-15.9c-5.9-21.1-12.3-42.1-19-65c11.2,7.4,21.1,13.8,30.9,20.3
		c12,8,23.9,16.1,35.7,24.4c3,2.1,4.8,2.8,8.1-0.1c14.8-12.9,30-25.5,45.1-38.1c9.1-7.6,18.2-15.2,28.4-23.7
		c-4.4,19.3-8.5,37.1-12.5,54.9c-1.9,8.6-3.6,17.3-5.9,25.8c-0.7,2.7,0.3,3.1,2.1,2.8c3.9-0.6,7.4,1.3,11.1,1.5
		c17.4,0.9,34.8,1.8,52.2,2.9c4.4,0.3,8.6,1.8,13.6,2.5c-25.4,14.6-50.8,29.2-76.5,44c20.2,23.2,40.5,46.5,62.1,71.2
		c-18.8-7.2-35.9-13.8-53.1-20.4c-10.1-3.9-20.3-7.7-30.4-11.6c-2.8-1.1-3.9-0.9-4.7,2.4c-5.5,22.7-11.3,45.4-17,68
		c-0.6,2.5-1.2,5-2.1,9.1c-5.4-13.7-10.2-26.1-15-38.5c-3.6-9.3-6.9-18.6-10.7-27.9c-0.4-1.1-0.2-4-3.7-2.6
		c-20.9,8.1-41.9,16-62.9,23.9c-3.3-2.4,0.1-4.2,0.8-5.9c5.3-11.6,10.8-23.1,16.4-34.6c0.9-1.8,1.6-3.4,1.3-5.3
		c2.8-12.4,2.8-12.4-10-17.5c-2.6-1-5.3-1.8-7.9-2.8C665.9,229.7,656.9,228.4,650,222.6z"/>
	<path d="M685.7,190.2c-8.9,2.9-17.8,5.4-27.1,6.7C663.8,187,670.9,184.8,685.7,190.2z"/>
	<path class="st1" d="M466.5,298.4c28.7,0.6,56,8.2,82.7,17.7c22.9,8.2,43.6,20.1,62.4,35.9c28.1,23.6,45.4,54.1,58.4,87.6
		c8.8,22.7,12.7,46.5,12.6,70.7c-0.1,19.6-4.6,38.8-10.2,57.6c-9.3,31.2-26.5,57.8-47.5,82.3c-11.4,13.4-25.8,22.5-40.7,31.3
		c-5.7,3.4-8,1.3-9.5-3.8c-4.7-15.4-15.7-24.2-30.9-27c-10.4-1.9-20.5,0.9-29.5,7.1c-9.3,6.4-15.6,14.4-15.7,26.2
		c0,3.6-2.6,1.8-4.1,1.7c-8-0.6-15.8-2.7-23.9-0.2c-3.7,1.2-7.9,2.1-10.2,4.6c-9.7,10.3-21.5,7.5-32.5,5
		c-30.7-7.1-57.4-21.9-82.3-41.2c-16.5-12.8-31.2-26.9-42.2-44.4c-13.2-21-26.1-42.4-31.9-67c-2.5-10.7-4-21.8-5.5-32.7
		c-3.5-25.4,1.3-49.8,10.1-73.6c7-19,17-36.4,28.7-53c6.8-9.7,13.9-19.2,22.2-27.6c12-12.2,26.3-21.5,41-30.1
		c24.8-14.6,51.9-22.2,80.4-25.8C454.2,299,460.3,298.7,466.5,298.4z"/>
	<path class="st2" d="M803.1,519.8c-8.7-6.8-18.9-11.3-29.8-14.2c-9.6-2.6-17.7-0.4-25.7,4.7c-18.7,11.8-27,31-36.3,49.6
		c-1.8,5.9-1.8,11.3,3,15.9c6.5-10.3,11.3-21.7,19.3-31.3c0.9,1.3,0.2,2-0.2,2.8c-4.5,11.5-10.2,22.6-13.8,34.6
		c-0.6,2-1.5,3.5,0.6,4.7c7,4.2,12,10.7,17.5,16.4c4.7,4.8,8.4,10.6,12.5,16c-17.8-20.8-42.5-32.6-63-50.8
		c-3.3,13.4-8.7,25.3-13.2,37.5c0.9,2.9,3.6,3.7,5.7,5c21.1,13.3,43.2,24.7,67.1,32.3c-8.5,1-17,1.9-25.5,2.9
		c-7.4,1.9-13.5,5.8-17.4,12.6c-12.4,21.8-15.2,44.7-7.5,68.6c1.6,4.8,4.3,9,9.2,11.3c3.6,0.9,7.1,1.9,10.7,2.8
		c15.6,3.8,35.2-4,44.6-17c4.7-6.4,7.6-13.1,8.1-21c0.7-10.6,2.5-21,1.5-32c-0.9-11-5.1-22.5,0.5-33.9c3.5-7.1,8.8-12.6,13.7-18.2
		c13.9-15.7,24.6-32.5,30.4-53C820.7,547.2,818.5,531.8,803.1,519.8z M763.4,578.8c-7-3.2-5.4-8.1-3.1-11.9
		c3.4-5.5,6.3-11.7,12.6-15.2c3.8-2.1,6.7-4.3,11.3-1.9c4.8,2.5,4.5,7.1,5.7,9.9C789.6,574.5,774.6,584,763.4,578.8z M744.2,707.2
		c-3,4.6-8.3,6-13.3,5.4c-4.6-0.6-8.8-3.1-9.4-8.7c-0.3-2.5-2.4-4.6-2.1-5.4c1.9-9.3,2-16.9,11.2-20.3c4.7-1.7,7.7-0.5,10.5,2.2
		C747.4,686.5,749,699.9,744.2,707.2z"/>
	<path class="st2" d="M150,632.9c-9.6-16.8-6.8-42,11.1-50.7c8.4-4.1,15.1-0.8,22.5,2c16.7,6.3,27.8,18.9,38,32.8
		c10,13.7,18.8,28.1,28,42.2c2.2,3.4,2.9,4.4,6.6,1.5c13-10.2,26.5-19.7,39.4-29.9c3-2.3,3.9-1.1,5.3,0.8c2.3,3.2,4.4,6.5,6.6,9.8
		c2.9,6.5,0.5,12.7-1.7,18.6c-2.3,6.2-5.8,12-9.6,17.5c-7.5,11-8.7,22.1-1.9,34.1c6.3,11.2,11.2,23.1,13.9,35.8
		c2,9.2,0.8,18-3.6,26.3c-1.2,2.3-3,4.6-6.1,4.2c-2.7-0.4-3.7-2.9-4.4-5.2c-2.8-9.1-4.6-18.4-9.6-26.8c-1.9-3.3-3.7-6.7-6.3-9.5
		c-0.7-0.6-1.5-1.3-1.9-2.1c-8.1-15-21.3-25.3-33.4-36.6c-16.2-15-33-29.2-47.4-46c-7-8.1-15-15.2-22.6-22.7c-1.5-1.5-3-3.1-4.7-4.4
		c-8.1-6.1-14-4-16.6,5.9C151.3,631.3,150.9,632.3,150,632.9z"/>
	<path class="st3" d="M614.3,774.3c-2.4,17.2-7.4,33.6-20,46c-16.1,16.1-29.9,13.9-44.1,1.6c-27.6-23.8-54.4-48.5-83.2-70.8
		c-1.5-2.6-3.3-5.1-2.4-8.4c3.5-10,8-13.3,18.3-13.2c14.9,0.2,26.3,8.2,37.2,17.2c1.8,1.5,3.4,3.3,5.4,4.5
		c7.1,5.2,13.6,11.1,18.7,19c1.4-2,1.4-4.2,2.1-6c1.4-3.6,2.1-7.3,3.2-10.9c2.8-9.3,9.1-15.1,18.3-16.9c8.8-1.7,17.6-3.9,26.7-2
		c12.6,2.6,17.9,8.1,20,20.7c0.4,2.3,0.7,4.7,1.2,7C615.7,766.3,615.3,770.3,614.3,774.3z"/>
	<path class="st3" d="M150,632.9c0.1-1,0.1-2.1,0.2-3.1c4.3-8.1,7.7-8.9,14.9-3.5c7.4,5.6,13.9,12.1,20,19.2
		c14.4,16.6,31,30.9,47.2,45.5c14.3,12.9,29.5,24.8,40,41.2c7.7,12.1,14,24.8,16.1,39.2c0.3,1.8,0.5,3.8-0.5,5.6
		c1.3-7.8-2-21.8-7.6-34.2c-1.2-2.7-3.8-5.2-1.8-8.6c7.5,7,10.5,16.5,14.2,25.6c0.9,2.2,1,4.6,1.6,6.9c1,3.5,1,9.5,4.4,9.4
		c4.8-0.2,5.7-6.2,7-10.4c3.9-12.9-0.5-24.6-5.2-36.3c-2.5-6.1-5-12.3-8.3-18c-7.3-12.6-5.4-24.2,2.6-35.7
		c7.3-10.4,12.5-21.6,12.6-34.7c8.9,7.7,17.2,16.1,27.1,22.4c3.5,2.3,1.9,4.1-0.5,5.8c-12.8,9-25.3,18.4-38.5,26.8
		c-5.1,3.2-3.8,5.5-1.1,8.6c7.5,8.8,13.6,18.4,18.5,28.9c6.6,14.2,7.9,27.8-0.6,42.1c-8.8,14.7-28.2,16.4-37.3,2.3
		c-12.5-19.2-24.8-38.6-40.2-55.7c-4.6-5.2-10.6-8.6-16.2-12.4c-20.4-14.1-41.4-27.2-61.4-41.7c-19.4-14-35.9-30.8-44.2-54
		c-0.7-0.6-0.6-1.2,0.2-1.7c7.9-2.6,12.6,2.8,17,7.6c9,10.1,14.7,22.9,25.5,31.6c6.8,5.5,13.6,11.1,20.8,16.2
		c-7.4-8.3-14.7-16.6-21.4-25.4C152.6,639.8,150.7,636.7,150,632.9z"/>
	<path class="st2" d="M547.3,765.5c0,2.4-0.6,4.6-2.7,7.1c-5.7-7.4-12.3-13.8-19-20c-4.9-3.8-9.1-8.3-13.7-12.3
		c-9-7.8-18.7-13.8-31.3-12.7c-10.9,1-14,4.3-14.8,15c0.4,2.8,0.8,5.7,1.2,8.5c-13.7-11.2-16.6-32.1-5.1-44.8
		c6.1-6.7,15.4-8.9,24.5-7.7c16.6,2.2,30.2,10.5,43,21.1c5.8,4.8,6.8,10.9,7.5,17.2c0.4,3.7,1.8,7.1,2.2,12.1
		c2.8-11.4,1.8-22.3,7.1-31.9c5.9-10.7,15-15.2,26.6-17.4c15.9-3.1,29.1,2.4,41.9,10.3c6.4,3.9,11,15.7,9.5,22.9
		c-2.8,13.3-5.7,26.6-8.6,39.9c-0.1,0.5-0.8,1-1.3,1.4c-0.1-4.4-0.1-8.7-0.2-13.1c-0.7-1.1-0.7-2.3-0.5-3.4c2.2-16-8.4-24-20-27.7
		c-14.2-4.4-33.9,2.9-40.4,15C549.8,751.5,548.7,758.6,547.3,765.5z"/>
	<path class="st1" d="M618.6,335.7c-10.2-6.4-19.5-14.1-30.3-19.6c-20.4-10.3-42.1-16.7-63.9-23.2c-1.8-0.5-3.6-1-5.5-1.5
		c-3.6-0.9-4.6-2.5-2.3-5.9c5.9-8.9,12.3-17.4,20.3-24.6c8.6-7.8,18.5-7,28.7-4.5c26.4,6.3,50.6,18.1,72.5,33.3
		c17,11.8,31.1,27.5,36.5,49c2.6,10.4-0.8,18.5-7.2,26c-2.8,3.2-6.1,5.9-8.4,9.6c-2.8,4.4-4.8,2.1-6.1-1.4
		c1.9-5.4,6.8-8.3,10.5-12.2c8.4-8.9,9.3-14.4,4.4-25.6c-4.9-11.1-12.5-20-21.3-28c-3.9-3.5-6.4-3.5-9.2,1.4
		c-4.9,8.4-9.3,17-15.4,24.7C621,334.3,620.1,335.4,618.6,335.7z"/>
	<path class="st4" d="M618.6,335.7c6.6-10.9,13.4-21.7,19.9-32.6c1.6-2.6,2.5-2.4,4.8-0.7c13.2,9.9,22.9,22.3,28.5,37.9
		c2.5,6.8,0.7,12.8-3.6,17.8c-4.6,5.4-10.1,9.9-15.2,14.8c-7.1-6.6-11.3-15.6-18.5-22.2C629.1,345.8,622.4,342.1,618.6,335.7z"/>
	<path class="st3" d="M721.5,645.9c-4.1,4.8-10.9,5.7-14.5,11.7c-13.9,23.3-17,47.3-6.8,72.6c1.2,3,3.7,5.4,5.6,8.1
		c-19.5-4.3-25.6-10.8-27-31.4c-0.6-9.2-2.6-18.3-1.7-27.5c0.7-7.5,0.1-15.3,1.8-22.5c1.7-7.4-0.6-15.2,3.5-22.1
		c11.8,2.9,11.9,3.4,9,18.5c-2,10.4-2.9,20.9-1.7,31.7c2.5-11,5-22,7.4-33c0.5-2.3,1-4.6,1.7-6.8c1-3.2,2.9-4.4,6.4-3.3
		C710.6,643.4,716.1,644.6,721.5,645.9z"/>
	<path class="st2" d="M113,612.7c-0.1,0.6-0.1,1.1-0.2,1.7c-8.8-15.6-7.2-30.6,3.7-44.2c7.8-9.7,25.9-15.5,42-8.1
		c2.3,1.1,4.4,2.3,7.7,4.1c-26.6,9.6-35.3,28.4-30.5,55.4c-5.3-4.3-7.8-10.5-13.8-13C117,606.4,114,607,113,612.7z"/>
	<path class="st5" d="M650,222.6c8.4,2.7,16.7,5.7,24.2,10.4c1.6,0.7,2.7,1.9,3.6,3.3c1.8,2.9,3,6,0.7,9.2c-2.5,3.5-5.9,3.3-9.5,2
		c-5.9-3-11.6-6.4-17.1-8.6c0.6,0.2,1.6,1.1,2.6,2c3,3.6,6.6,6.7,8.3,11.3c1.4,4,2.2,7.8-1,11.2c-3.3,3.4-6.5,0.9-9.7-0.3
		c-1.1-0.4-2.2-0.9-3.3-1.2c-3.9-0.9-7.3-3.3-11.4-4.3c1.5,2.3,5,3.1,4.4,6.6c-4.4,6.2-8.8,0.7-13.2,0.1c-4.7-2.1-9.3-4.2-14.2-6.3
		c3.6-3.6,8.1-3.6,12.4-3.8c-1.9-9,0.5-13.4,8.9-15.4c1.8-0.5,3-0.9,3.4-2.6C640.3,229.6,644.7,225.8,650,222.6z"/>
	<path class="st6" d="M648.5,260c1.9,0.7,3.9,1.6,5.8,2.2c2,0.6,4,3.5,6.1,0.7c1.6-2.2,2.4-4.4,1.6-7.7c-1.4-6-6.4-9.1-9.3-13.8
		c3.8-2.1,6,1,8.6,2.7c3.3,2.1,6.2,4.7,9.1,7.3c-0.9-1.9-2.9-3.2-2-5.7c3,0.2,6.2,3.2,8.7-0.8c3.2-5-2-7.9-3-11.8
		c4.3,0.3,8,2.6,11.9,4.1c12.8,4.7,13.1,5.8,5.2,17.3c-1.6,1-3.1,2.2-4.8,2.8c-5.9,2.3-10.4,5.5-10.8,12.6c-0.3,4.1-2.4,7.1-6.4,8.4
		c-6.3,2-2.1,7.9-4.9,12.2c-10.9-10.5-23.5-18.1-35.9-26.2c4.1-1.7,9.1,5,12.8-1.2c7.6-0.3,10,6.6,14.5,9.6
		C654.2,268.5,648.6,265.8,648.5,260z"/>
	<path class="st2" d="M538.6,664.5c11.2,2.2,21.8,8.2,25.6,23.4c-10.8,2-19.1,7.7-23.5,17.9c-1.4,3.2-3,1.9-4.5,1
		c-1.8-1.1-3.2-2.7-4.8-4.1c-4.6-9-6-18.3-2.7-28C530.5,669.9,533,665.5,538.6,664.5z"/>
	<path class="st3" d="M674.2,605.7c12.6,6.4,24.3,14.6,37.1,20.8c9.4,4.5,18.8,8.8,28.6,12.3c2.6,0.9,5.5,1.6,7.1,4.3
		c-22.5-0.8-43.2-8.5-63.6-17.2c-1.1-0.5-2.1-1-3.2-1.4C665.6,618.9,665.6,618.9,674.2,605.7z"/>
	<path class="st3" d="M538.6,664.5c-7.5,6.2-11.3,13.6-9,23.7c1.1,4.7,1.3,9.6,1.9,14.5c-4.1-2.7-8.1-5.5-12.2-8
		c-9.8-6-10.2-17.6-0.4-24C524.8,666.9,531.3,663.9,538.6,664.5z"/>
	<path class="st3" d="M711.3,559.8c-0.3,5.5,2,10.6,3,15.9c-0.3,5.3-3.6,1.9-4.6,1.1c-2.1-1.6-6-2.7-4-6.7
		C707.5,566.7,709.4,563.3,711.3,559.8z"/>
	<path class="st7" d="M842,191.5c-17.5,10.2-35,20.3-53.1,30.8c11.2,13.2,22.3,26.3,34.8,41c-12.1-5-22.3-9.2-32.6-13.4
		c-2.6-1.1-5.2-2.2-7.8-3.3c-8.2-3.4-8.2-3.4-10.3,5.3c-3.3,13.7-6.7,27.4-10.3,42c-6.6-9.6-10.3-19.7-14.4-29.4
		c-2.8-6.6-6-6.7-11.6-4.3c-12.3,5.3-24.6,10.4-39.1,16.4c5.8-11.7,10.6-21.5,15.4-31.3c4-8.2,4.1-8.1-4.1-11.5
		c-16.1-6.6-32.3-13.3-48.4-20c-1.9-0.8-3.7-2-6.7-3.6c14.1-3.6,27-6.9,40-10.2c5.5-1.4,10.9-3.4,16.4-4c6.3-0.7,6.3-3.8,4.8-8.5
		c-4.6-14.8-9.1-29.7-14-45.7c5.1,1.9,8.2,4.8,11.7,7.3c11.9,8.5,24.1,16.5,36,25c3.6,2.6,5.5,2.2,8.8-0.7
		c15.7-13.7,29.5-29.4,46.7-43.1c-5.3,19.3-10.3,37.8-15.5,56.8c18,1.1,35.4,2.2,52.8,3.3C841.8,190.6,841.9,191.1,842,191.5z"/>
	<path class="st4" d="M394,662.2c11.7-5.3,22.4-9.8,32.8-15c27.9-13.9,52.6-32.5,77.1-51.6c26-20.3,44.2-47.1,63.5-73
		c21.7-29.1,30.6-62.6,36.8-97.3c1.7-9.7,3.7-19.6,4-29.4c0.4-12-1.5-23.9-4.2-37.5c8.5,6.7,14,14.2,19.8,21.2
		c24.6,30,38.6,64.8,45.6,102.6c5.7,30.2,2.8,59.8-8.4,88.4c-12.9,32.8-34.5,59.7-59.4,84c-4.5,4.4-10.2,7.6-15.2,11.5
		c-2.3,1.8-3.5,2.1-5.4-0.9c-13.8-22.4-30.6-28.5-56.7-22.7c-17.5,3.9-30.1,12.3-35.4,29.8c-0.9,2.9-2.5,3.6-5.2,3.5
		c-11.2-0.5-21.3,3.2-31.6,7.1c-9,3.4-18.1-0.8-26.8-3.3C414.2,676.4,404.9,669.1,394,662.2z"/>
	<path class="st8" d="M398.3,509.5c1.4-22.8,5.7-43,14.4-62.3c7.3-16.4,15.7-32,27.7-45.4c9.4-10.4,21.8-16.2,35.5-19
		c14.6-2.9,30.9,8.8,32.6,23.7c2.9,26.1-1.5,51.2-11.1,75.5c-5.4,13.5-10.5,27.3-19,39.1c-8.6,12-17.3,24.4-32.2,30
		c-11.2,4.2-22.5,7.1-32.2-2.5c-7.1-7-12.6-15.6-13.9-25.8C399.6,518,397.1,513,398.3,509.5z"/>
	<path class="st8" d="M294.1,482.4c2.6-24.5,7.6-48.2,20.8-69.7c7.2-11.7,14.1-23.7,23.9-33.2c6.1-5.9,11.9-12.5,20.1-16.1
		c16.6-7.3,26.5-2.6,27.9,17.5c1.1,16.9-4.4,33.3-10.3,49.2c-9.5,25.6-21.1,50.1-35.3,73.4c-4.5,7.4-11.7,12.7-20.5,14.9
		c-7,1.8-20.5-7.2-22.9-16.1C295.9,495.8,293.9,489.3,294.1,482.4z"/>
	<path class="st9" d="M377.1,330.7c21.4-10.7,42.5-17.9,65-20.7c7.2-0.9,14.5-2.6,21.7-2.7c18.5-0.1,36.5,3.6,54.3,8.3
		c14.8,3.9,29.5,8.5,43.6,14.7c10,4.4,19.3,9.8,25.8,19.2c2.7,3.9,5.3,7.6,2.4,12.1c-3.3,5.1-7.6,9.4-14.5,8.3
		c-17-2.7-33.8-6.2-50.8-8c-15.5-1.6-30.9-2.3-46.7-1c-19.4,1.7-37.7,5.7-54.9,14.8c-2.8,1.5-3.7,1.2-4.5-2.3
		c-1.2-4.8-0.8-9.8-2.4-14.6C409.9,340.5,395.1,334.5,377.1,330.7z"/>
	<path d="M751.2,679.8c-6.6-10.9-12.9-14.2-21.2-12c-12.8,3.5-18.6,11.4-18.6,26.2c-0.3,3.1,0.7,6.7,1.3,10.4c1.8,10,6.2,14.7,18,17
		c9.5,1.8,18.3-2.6,22-11C757.4,700,757.1,689.4,751.2,679.8z M744.2,707.2c-3,4.6-8.3,6-13.3,5.4c-4.6-0.6-8.8-3.1-9.4-8.7
		c-0.3-2.5-2.4-4.6-2.1-5.4c1.9-9.3,2-16.9,11.2-20.3c4.7-1.7,7.7-0.5,10.5,2.2C747.4,686.5,749,699.9,744.2,707.2z"/>
	<path d="M772.3,542.7c-10.9,5.5-18.4,13.8-21,26.2c-2,9.8,1.1,16.3,10.5,19.6c20.3,7.2,35-13.5,36.9-29.5
		C798.4,543.9,785.7,535.9,772.3,542.7z M763.4,578.8c-7-3.2-5.4-8.1-3.1-11.9c3.4-5.5,6.3-11.7,12.6-15.2c3.8-2.1,6.7-4.3,11.3-1.9
		c4.8,2.5,4.5,7.1,5.7,9.9C789.6,574.5,774.6,584,763.4,578.8z"/>
	<path d="M278.4,734.3c4.5,10.7,9.5,21.2,11.1,33c0.7,5.5,0.6,10.5-3.7,16.2c3.1-11.6-0.8-20.9-4.3-30.3
		c-5.5-14.8-15-27.1-25.1-38.7c-7.2-8.2-16.5-14.6-24.9-21.8c-1.1-0.9-2.3-1.6-3.3-2.6c-13.7-13.2-27.5-26.2-40.9-39.6
		c-7-7-12.9-14.9-20.9-21c-9.2-6.9-8.9-7.3-16.2,0.2c-0.3-5.1,2.2-8.4,6.7-10.3c4.8-2.1,9.1,0.4,11.9,3.2
		c11.7,11.7,23.8,23.1,34.8,35.5c10.7,12,22.7,22.8,34.7,33.5C253,704.8,268.4,717,278.4,734.3z"/>
	<path d="M547.3,765.5c0.5-13.1,2.2-26.3,15.3-32.8c14.7-7.3,33.1-9.7,46.9,4.7c4.8,5,8.1,10.7,5,18.2c-0.7,1.6-0.2,3.8-0.3,5.7
		c-2.1-1-1.1-2.9-1.3-4.4c-1.2-13.3-7.7-20-21.6-21.1c-8.9-0.7-17.9,0.8-26.4,3.4c-8.8,2.6-13.1,10.1-14.8,18.8
		C549.6,760.8,548.8,763.2,547.3,765.5z"/>
	<path d="M465.9,742.7c-2.9-8.7,0-13.1,8.8-15.6c13.5-3.9,24.6,1,34.6,9c6,4.8,10.9,11.1,16.2,16.7c-5.9-1.7-8.9-7.3-13.8-10.3
		c-8.4-5.2-16.7-10.2-26.9-11C475.8,730.7,469,733.5,465.9,742.7z"/>
	<path class="st9" d="M604.4,276.4c-11.8,5.4-18.6,14.2-22.9,25c-1.4,3.6-3,4.2-6.8,2.6c-14.1-6-28.8-10.1-43.6-14
		c-7-1.8-7.5-3.2-3.2-8.7c2-2.6,4.1-5.1,6-7.8c7-10.1,15.7-15.5,28.7-12C576.5,265.3,590.2,269.5,604.4,276.4z"/>
	<path d="M648.5,260c3.9,5.8,9.5,10.6,11.5,18.7c-7-5.3-11.3-12.4-18.7-15.7c-2.4-2.4-6.1-3.2-8-6.7
		C639.3,254.2,643.5,258.8,648.5,260z"/>
	<path d="M668.5,245.7c1.6,3,5.1,4.8,5.5,9.7c-8.1-3.5-12.5-12.3-21.1-14c-2.2-1.5-4.5-3-6.7-4.5
		C654.2,238.4,662.1,240.2,668.5,245.7z"/>
	<path class="st10" d="M795.2,202.5c-6.9,4.4-13.2,8.7-19.9,12.5c-3.6,2-3.4,3.8-1.4,6.7c2.6,3.7,5.5,7.1,6.7,11.7
		c-2.3,2-4.5,0.1-5.8-0.7c-6.1-3.8-7.8-0.8-9,4.8c-1.1,5.4-2.9,10.8-4.9,18c-2.6-5-4.8-8.1-5.9-11.6c-1.7-5-4.5-5-8.6-3.4
		c-5,1.9-10.1,3.4-17,5.7c2.9-6,4.9-10.5,7.3-14.7c1.9-3.3,1.1-4.9-2.3-6.5c-8.3-4-16.5-8.2-26-13c9.2-3.2,17.1-6.2,25.2-8.5
		c4.1-1.2,4.8-2.9,3.5-6.5c-1.9-5.1-3.5-10.2-5.5-16.2c7.7,3.3,12.7,9,18.6,13.3c2.8,2.1,4,2.3,6.9,0c6.1-4.7,11.1-10.9,18.6-14.8
		c-1,5.3-1.7,10.2-3,14.9c-0.9,3.1-0.3,3.9,2.8,4.7C781.7,200.6,788.5,199.4,795.2,202.5z"/>
	<path class="st11" d="M744.2,707.2c-3,4.6-8.3,6-13.3,5.4c-4.6-0.6-8.8-3.1-9.4-8.7c-0.3-2.5-2.4-4.6-2.1-5.4
		c1.9-9.3,2-16.9,11.2-20.3c4.7-1.7,7.7-0.5,10.5,2.2C747.4,686.5,749,699.9,744.2,707.2z"/>
	<path class="st11" d="M790,559.8c-0.4,14.6-15.4,24.2-26.6,19c-7-3.2-5.4-8.1-3.1-11.9c3.4-5.5,6.3-11.7,12.6-15.2
		c3.8-2.1,6.7-4.3,11.3-1.9C789.1,552.4,788.8,557,790,559.8z"/>
</g>
</svg>
