<?xml version="1.0" encoding="utf-8"?>
<!-- Generator: Adobe Illustrator 23.0.1, SVG Export Plug-In . SVG Version: 6.00 Build 0)  -->
<svg version="1.1" id="Layer_4" xmlns="http://www.w3.org/2000/svg" xmlns:xlink="http://www.w3.org/1999/xlink" x="0px" y="0px"
	 viewBox="0 0 1000 1000" style="enable-background:new 0 0 1000 1000;" xml:space="preserve">
<style type="text/css">
	.st0{fill:#00016B;}
	.st1{fill:#585E60;}
	.st2{fill:#0C569F;}
	.st3{fill:#3E4446;}
	.st4{fill:#CBB89A;}
	.st5{fill:#5F6F4C;}
	.st6{fill:#9EA4A6;}
	.st7{fill:#CCB99B;}
	.st8{fill:#53595B;}
	.st9{fill:#FAFAFA;}
	.st10{fill:#B1D5FC;}
	.st11{fill:#9DA3A5;}
	.st12{fill:#0C569E;}
	.st13{fill:#D2D2D2;}
	.st14{fill:#52585A;}
	.st15{fill:#F9F9F9;}
	.st16{fill:#434C36;}
	.st17{fill:#5E6D4B;}
	.st18{fill:#C9B699;}
	.st19{fill:#5D6C4A;}
	.st20{fill:#F7F7F6;}
	.st21{fill:#515759;}
	.st22{fill:#F9F7F5;}
	.st23{fill:#F0ECE5;}
	.st24{fill:#424B35;}
	.st25{fill:#526041;}
	.st26{fill:#E0E2E3;}
	.st27{fill:#7E0000;}
	.st28{fill:#060605;}
	.st29{fill:#7D0101;}
	.st30{fill:#9FA1A3;}
	.st31{fill:#FE0000;}
	.st32{fill:#FD8382;}
	.st33{fill:#FBFBFA;}
	.st34{fill:#181912;}
	.st35{fill:#0C0D0D;}
	.st36{fill:#9CA2A4;}
	.st37{fill:#10100C;}
	.st38{fill:#1C1F16;}
	.st39{fill:#7F7F00;}
	.st40{fill:#170F00;}
	.st41{fill:#FDFC00;}
	.st42{fill:#1D1D1D;}
	.st43{fill:#7F7E00;}
	.st44{fill:#817F00;}
	.st45{fill:#FEFD00;}
	.st46{fill:#050501;}
	.st47{fill:#080606;}
	.st48{fill:#BAAB8E;}
</style>
<g>
	<path d="M177.7,295.5c-23.4-11.4-52.7-13.6-61-46.3c-5.5-21.9-1-41.8,16.4-56.1c3.4-2.8,10.8-1.8,5.2-10.2
		c-11.5-17.2-2-31.4,9.6-43.4c41.8-43,90.4-75.9,149.6-87.9c31.4-6.3,64.2,1.9,96.2,5c20.3,2,43.1,1.9,59.2,16.2
		c18.4,16.2,36.3,13,58,10.1c31.3-4.2,60,11.4,88.5,23.1c46,18.9,77.8,54.8,108.6,91.9c27.7,33.4,56.4,66,83.6,99.8
		c30.9,38.4,65.3,74.4,85.3,120.4c5.9,13.5,16.4,29.3,6.4,42.7c-11.1,14.9-27.5,5.4-41.8,0.6c-34.2-11.5-71.4-13.8-102.4-35.4
		c-14.2-9.9-22.6-23.5-32.3-36.8c-23.4-31.9-47.7-63.1-75.2-91.6c-2.8-2.9-4.8-9-10.2-6.9c-4.8,1.9-2.9,8.1-4.6,11.7
		c-8.9,18.9,0.8,36.6,5.1,53.2c10.3,39.4,23.3,78.1,49.3,111.1c20.1,25.4,46.2,43.6,70.5,64.1c9.2,7.8,18.8,15.1,28.5,22.2
		c15.8,11.5,30.5,22.6,52.8,21.5c39.9-2.1,70.9,41.6,62.4,80.8c-13.6,62.8-39.1,120.4-73,174.5c-33.9,54-75.5,102.5-138.3,120.8
		c-59.1,17.2-121,17.7-183,10.8c-40.1-4.5-78.1-13.2-114-31.3c-42.2-21.3-59.4-69.7-16.2-101.7c10.5-7.8,12.7-17.2,15.1-29.7
		c13.7-73.3,0.3-140.2-49.6-195.8c-28.5-31.8-66.5-49.3-110.2-57c-68.8-12.1-88.1-32.4-106.9-99.5c-12.5-44.4,8.7-79.9,32.8-113.5
		C152.3,318.9,161.9,303.2,177.7,295.5z"/>
	<path class="st0" d="M472,499.1c11.7-9.2,23.9-17.8,34.9-27.8c37.9-34.1,76.7-67.6,94.1-120.9c8.7,15.1,7.6,29.7,11.4,43
		c15.3,53.9,46.5,96.7,90.2,130.5c34.3,26.6,69.1,52.8,104.9,77.4c15.6,10.7,19.9,22.3,15.1,39.5c-17.5,61.7-43.1,119.5-80.8,171.7
		c-15.9,1.1-22.9-10.1-29.9-21.5c-0.4-22,7-43.2,5.8-65.5c-3.5-67.4-22.4-127.2-77.9-170.7c-6.1-4.7-12.2-9.7-16.5-16.4
		c-4.7-13.2,5.8-22.2,9-31.9c-6.5,6.8-7.5,19.4-19.7,23c-16.2-3.4-30-11.8-43.6-20.7c-5.2-6.8-5.8-15.2-8.7-25.4
		c1.5,10,4.5,18.1-4.3,23.5c-16.9,2.9-33.8,5.9-51.1,5.3C493.9,508,481.2,507.9,472,499.1z"/>
	<path class="st1" d="M565.9,269.8c0.9,44.9-22.9,78.4-50.2,110.6C444.6,464.1,353.5,500.5,244.8,496c-13.1-0.5-25.7-3.5-37.6-8.9
		c-43.7-20.1-55.8-49.8-39.5-95c12.7-35.2,39.3-58.9,66.8-82c2.3-1.9,4.7-4.1,8.5-1.7c7.2,4.6,17,32.6,15,41.5
		c-3.4,14.8-18.5,30.6-11.1,42.9c6.4,10.6,25.9,12.9,39,20.1c19.1,10.4,37.5,13.4,59,5.5c27.3-10.1,55.9-16.7,83.9-25
		c7.4-2.2,15.1-4.1,20.4-10.6c24.8-36.3,54.7-68.1,86.5-98.2C543.7,276.8,551.1,265,565.9,269.8z"/>
	<path class="st2" d="M715.5,793c8.6,6.8,15.7,15.5,26.3,19.6c-27.2,43.4-63.5,74-115,85.4c-64.6,14.3-128.6,11-192.7-3.2
		c-12.9-2.9-24.8-8.2-34.8-16.5c-10.9-8.9-18.4-19.2-13.4-35.3c20.2-64.8,17.5-129.1-6.5-192.5c-0.9-2.3-0.4-5.1-0.5-7.6
		c11,2.3,12.9,11.9,15.4,20.3c3.7,12.4,7.8,24.6,11.7,36.9c1.7,13.4,4.2,26.7,5.5,40.1c0.8,33.1-0.7,66-10.5,98
		c-3.9,12.8,1.9,20.9,11.5,28.1c24.2,18.1,53,18.4,83.5,23.2c-5.3-14.3-16.3-20.4-23.7-29.3c-11.5-13.9-24-27.4-19.8-47.9
		c7.7-2.7,11.9,3.3,17.1,6.8c49,33.3,102.7,44.4,161.2,35.9c36.6-5.4,57.4-30.4,76.8-57.9C709.6,794.8,712.2,793.2,715.5,793z"/>
	<path class="st3" d="M565.9,269.8c-31.7,14.2-50.6,42.7-73.8,66.5c-14.8,15.1-26.1,33.4-43.1,46.5c9.1-25.2,25-46.7,37.5-70
		c5.7-10.7,4.7-15.7-6.8-20.2c-18.1-7.1-35.6-15.5-53.4-23.4c-5.9-2.6-12.2-4.8-17.6-8.3c-20.2-13-19.6-30.2,1.3-40.3
		c24-11.7,48.7-21.1,76-21.4C535,198.5,559.5,220.2,565.9,269.8z"/>
	<path class="st4" d="M390,96.9c-45.6,14.8-88.8,33.5-118.4,73.8c-4.6,6.2-9.8,3.7-15.6,3.1c-19.9-2.2-39.5-7.4-60.3-3.6
		c15.6,3.5,31.2,7.3,46.9,10.3c14.3,2.7,23.5,9.3,22.5,27.4c-16.9-5.4-33.6-10.7-50.3-16c-8.2-3.7-16.6-6.6-25.3-9.1
		c-23.1-6.7-25.7-18.6-8.6-36.2c5.5-5.7,12.1-9.7,18.8-13.8c18.3-11.2,37.1-21.5,54.9-33.6c8.1-5.5,16.3-10.9,18.7-21.4
		c12-7.7,25.4-8.1,39-7.4c19.5,4.3,39.9,1.3,59,8C380.7,81.6,390.5,84,390,96.9z"/>
	<path class="st5" d="M785.1,324.2c34.4,32.3,61,70,78.8,113.9c5.1,12.6-2.5,12.4-10.1,10c-30.7-10-62.7-16.2-92.1-30.1
		c-18.7-13-28.8-33.3-40.6-51.5c-26.4-40.4-59.1-75.3-91.3-110.7c-6.2-6.8-10.8-14.6-16.8-21.3c-12-18.9-24.7-37.3-40.8-53.4
		c26.9,9.7,46.4,29.5,67.6,46.9c53.4,44.1,95.3,99,142.1,149.3c18.4,19.7,36.2,40.7,61.7,52.3c-2.3-15.7-13.3-27.1-20.8-40.1
		c-9.7-16.9-22.7-31.7-33.4-48C786.1,336.3,780.1,331.6,785.1,324.2z"/>
	<path class="st6" d="M417.7,903.1c34.3,5.3,68.1,14.1,103,15.2c55.8,1.8,110.1-6.9,160.7-30.2c31.8-14.6,52.2-43.8,72.9-71.3
		c9.5-3.2,16.8-0.1,21.2,8.5c4,7.8,0.9,15-4,21.6c-8.1,10.9-16.2,21.8-25.9,31.3c-36.7,46.8-85.5,67.5-144.2,66.7
		c-14.1-4.8-28.1,0.7-42.2,0.3c-42.5-2.5-85.6-1.6-124.6-22.9C426.7,918.1,417.6,914.5,417.7,903.1z"/>
	<path class="st7" d="M785.1,324.2c17.2,32.4,43.2,59.2,59.1,92.4c2.1,4.4,9.4,8.5,2.6,14.7c-0.3,0.2-1.2-0.2-1.8-0.5
		c-0.6-0.3-1-0.8-1.5-1.3c-10.4-18.4-27.6-30.7-41.7-45.7c-53.6-57.1-101.5-119.6-160.7-171.6c-19.5-17.1-38.7-34.5-62.9-45
		c-3.6-2.9-10.2,1-12-4.3c-2-5.9,3-9.4,7-12.6c17.3-13.7,43.9-11.5,62.5,5.2c28.1,25.3,52.1,54.3,76.5,82.9
		C736.6,267.1,761.4,295.3,785.1,324.2L785.1,324.2z"/>
	<path class="st8" d="M745.6,878.3c3.4-11.6,14.2-17.8,20-27.9c11.8-20.7,11-24.8-11.2-33.5c34.8-52.8,63.1-108.4,78.6-170.2
		c5-20.2,3.5-37-14.2-50.6c28.4-5.5,52.4,15.2,47.6,44.4c-14.9,91.1-52.5,171.6-118.9,237.3C747,878.1,746.2,878.1,745.6,878.3z"/>
	<path class="st9" d="M366.9,522.9c-52.8,14-106,18.3-159.5,4.7c-76.1-19.3-106.5-99.7-63.2-165.7c12.9-19.6,28.3-37.1,46.3-52.3
		c13.7-11.6,13.5-11.8,31.7-6.5c-27.4,21.5-49.7,45.9-62.8,78.3c-26.1,64.8-2.5,111.4,65.6,126.7c6.9,1.6,14,2.7,21,4.1
		c32.8,2.4,65.6,0.8,98.3,1.7C352.4,514.1,363.1,510.6,366.9,522.9z"/>
	<path class="st6" d="M366.9,522.9c-7.4-6-16-2.7-24-2.8c-32.5-0.1-65.1,0.6-96.9-7.9c66.9-1.4,133.4-9.5,191-45.1
		c65.5-40.5,120.7-92.3,142-171c5-18.4,1.7-36-0.8-53.9c17.2-2.8,15.1,11.7,15.9,20.1c3.1,34.3-5.2,66.5-20.5,97.3
		c-16.4,32.9-41.4,59.1-65.7,85.8C470.1,488.1,420,508.2,366.9,522.9z"/>
	<path class="st10" d="M401.3,700.2c-9.1-18.5-8.8-40.6-22.4-57.3c-16.7-39.3-47.6-65.9-86.1-91.8c9.8,0,14.2,0,18.6,0
		c20.8,0,40.6-5.4,60.5-10.4c15-3.8,23.5,1.9,29,15.4c8.3,20.7,14.1,41.9,16,64.2c0.3,2.2,0.2,4.4-0.1,6.6
		c-4.2,18.6-7.2,37.4-8.9,56.4C407.2,689.5,407.7,696.2,401.3,700.2z"/>
	<path class="st4" d="M460.4,175c-4.5,2.5-9.2,4.8-13.6,7.6c-14.8,9.4-27.6,8.8-41.7-3.5c-14.7-12.8-30.6-28.1-53.2-14
		c-2.5-1.5-3.7-3.9-4.6-6.5c-0.8-11.2-9.9-13.2-18.1-16.4c-0.5-0.7-1.1-1.4-1.6-2.2c18.4-18.8,42.1-27.7,66.5-35.1
		c28.7-7.9,60.6,0.8,75.6,20.9C486.8,149,481.5,166.7,460.4,175z"/>
	<path class="st11" d="M429.5,378.6c-36.3,10.6-72.7,21.2-109,31.8c-17.3-21-9.3-44.7-7.1-67.7c6.3-7,10-1.6,9.5,3.7
		c-1.3,13.1,0.9,26.4-1.9,39.2c4-2.2,1.1-6.4,1.1-9.5c0.3-38.7,13.8-54.3,52.5-60.7c7.3-1.2,12.9,0.9,17.3,6.3
		c4.9,6.1,9.8,12.1,15.3,17.7c6,7.5,11.4,15.4,17.8,22.5C429.2,366.6,434.4,371.4,429.5,378.6z"/>
	<path class="st12" d="M413.4,620.5c-6.3-20.3-9.5-41.3-16.5-61.4c-5.5-15.8-14.4-19.5-29.5-15.5c-13.7,3.7-27.8,6.1-41.7,9.2
		c-5.1,1.1-10.1,3-14.4-1.7c24.3-6,49.1-9.1,73.1-16.6c30.2-9.4,59.1-21.7,87.5-35.3c11.9-0.3,23,2.5,32.9,9.4
		c0.5,1.9,0.2,3.7-0.7,5.4c-36.7,23-61.4,56-79,94.9C422.8,614,420.4,619.7,413.4,620.5z"/>
	<path class="st5" d="M785.2,324.2c-27.1-22.6-46.4-52.2-70.2-77.7c-27-29-51.5-60.2-81.2-86.7c-17.5-15.6-38.6-17.6-57.2-6.9
		c-13.3,7.6-5.9,10.5,1.8,14.5c-26.7-0.8-51,14.1-78.6,11.7c15-6.6,12.2-30.8,34.8-31c17.2-0.2,34.3-5.4,55-9
		c-28.3-11.8-52.8,6.3-77.5,1c-4.8-10.4,3.8-10.6,9.5-11.5c10.3-1.6,20.6-2.7,30-4.3c-17.4-11.6-40.2-5.4-58.9-15.1
		c0.5-9.7,8.2-6.7,13.2-6.7c49.4-0.2,93.9,16.8,130,48.5c56.7,49.8,99.4,112.8,148.6,169.6C785.3,321.3,785,323,785.2,324.2z"/>
	<path class="st13" d="M316.2,340.5c1.5,23.3-4,47,4.3,69.9c-22.2,0.1-39.1-14.7-59.1-20.9c-3.3-1-3.9-4.8-2.3-8.3
		c0.8-1.8,1.7-3.5,2.4-5.3c9-23.4,23.1-47-6.9-69.3c23.1,2.1,40.1-6.3,58.1-10.1c0.7,0.5,1.4,1,2.2,1.5c3.6,4.3,4.7,9.4,4.8,14.8
		C324.7,322.8,317.4,331.3,316.2,340.5z"/>
	<path class="st4" d="M143.9,210.3c2.8-2.4,5.7-4.8,8.5-7.2c31.5-4.6,61.3-1.9,86.8,19.7c-6.2,17.6-14.1,35.4,1.4,52.5
		c0.7,3.8,6.8,9.1-2.6,10.4c-7.7-1.4-16,1.1-23.3-3.2c-19-6.7-36-17-51.2-30.1C150.9,241.4,142,228.3,143.9,210.3z"/>
	<path class="st14" d="M429.5,378.6c-2.2-15-19.4-19.8-23.2-33.7c-3.4-7.8-8.9-14.6-14.4-20.5c-10.8-11.5-10.7-22.6-3.2-35.1
		c1.4-1.7,3.1-2.9,5.1-3.7c17.2-5.3,32.3,3.2,47.9,7.8c7.9,2.3,15.8,4.4,23.6,7.1c5.7,0.9,8.3,3.7,4.9,9.2
		C456.3,332.5,445.7,357.3,429.5,378.6z"/>
	<path class="st15" d="M417.7,903.1c22.2,22.4,50.8,30,80.6,33.9c19.8,2.6,40,3.3,59.9,4.8c-9.4,11.1-21.1,3.8-31.8,3.9
		c-50.8-2.3-101.4-5.9-145.7-34.6c-30.6-19.9-33.1-50.5-4.9-71.9C369.2,874.9,392.7,889.5,417.7,903.1z"/>
	<path class="st5" d="M460.4,175c7.2-9.1,19.4-15.8,14.1-30.9c-6.8-19.5-21.3-30.4-40.4-34.6c-13-2.9-26.6-3.1-39.9-4.4
		c0.8-3,7-2.9,4.9-6.5c-1-1.7-5.9-1.2-9.1-1.7c-15-22-40.3-16.6-61.2-22.9c-5.3-1.6-11.8,1.6-16.4-3.7c39.1-2.6,77.4,4.3,114.8,13.6
		c31,7.7,50.7,31.8,65.8,59.3c5.3,9.6,2.8,15.7-6.2,20.6C478.3,168.4,470.7,174.8,460.4,175z"/>
	<path class="st8" d="M507.9,445.4c18.7-29.5,44.3-54,60.9-85.2c16.1-30.2,21.6-62.2,20.6-95.7c-0.3-8.4,0.3-18.8-11.2-22.3
		c-13.8-17.6-24.5-37.9-45.6-49.9c18.2-9,18.5-9.1,30.5,2.4c34.9,33.4,46.3,71.6,32.4,119.8c-14.4,49.9-42.7,89.4-77.6,125.8
		C515.2,443.1,512.2,445.6,507.9,445.4z"/>
	<path class="st9" d="M273.4,77.8c4.8,1,6.3,2.6,3.2,7.6c-9.1,14.4-24.4,20.8-37.7,29.7c-18.7,12.6-40.4,20.7-56.4,37.3
		c-13.8,14.4-12.9,17.7,5.6,25.4c9.3,3.9,20.1,5.1,26.8,14.1c-14.1-2-28.3-3.1-42.1-6.2c-17.6-3.9-24.6-21.1-12.6-31.9
		C194.3,123.2,228,91.8,273.4,77.8z"/>
	<path class="st16" d="M613,234.5c35.1,28.3,62.5,63.8,90.2,98.8c21.3,26.9,39.1,56.4,58.5,84.7c-12-1.3-20.1-8.7-26.3-18.1
		c-31.1-46.5-65.5-90.3-106.3-128.7C618.1,260.9,617.3,247.2,613,234.5z"/>
	<path class="st17" d="M237.9,226.1c-16.6-19.2-40.5-18.6-62.5-22.8c-7.4-1.4-15.3-0.2-22.9-0.1c25.2-10.3,49.5-0.9,73.6,4.5
		c16.4,3.6,31.2,11.9,45.5,21.2c10.8,7.1,17.8,16.1,14.7,28.8c-3.1,12.8-9.7,24.7-24.3,27.4c-7.7,1.4-15.7,8-23.9,0.8
		c4.7-2.5-0.1-5.3,0.2-7.9C224.2,260.7,232.6,243.4,237.9,226.1z"/>
	<path class="st18" d="M351.2,155.5c0.3,3.2,0.5,6.5,0.8,9.7c-16.2,13.7-32.2,27.5-48.7,40.9c-6,4.9-13.4,9.9-20.8,2.9
		c-6.6-6.2-8.5-14.8-4.7-23.2c5.5-11.9,14.2-21.2,26.3-27.1c5,8.9-3.4,12.5-7.2,17.8c-4.4,6.2-10.2,11.6-8.2,20.8
		c16.4-10.4,24.4-28.6,19-41.7c5.6-6.6,11.4-13,20.1-15.6c0,0,0.2,0.3,0.2,0.3c6.5,4.5,14.2,7.3,17.2,16
		C346.4,160.2,348.7,153.5,351.2,155.5z"/>
	<path class="st19" d="M332.7,241.6c5,1.2,10,2.9,15.1,3.5c4,0.4,8.2-0.6,14.3-1.1c-23,22.4-46,40.3-80.6,46.2
		c11.3-13.8,18.7-25.7,19.4-40.3C308.6,236,319.9,236.1,332.7,241.6z"/>
	<path class="st20" d="M143.9,210.3c6.7,31.2,31,46.6,55.6,61.6c5.3,3.2,12.4,3.8,15.2,10.6c-21.3-0.6-40.6-7.6-59.3-17.2
		C130.1,252.3,126.4,234.7,143.9,210.3z"/>
	<path class="st16" d="M492.7,109.1c26.3-2.2,50.8,4.2,79.7,17.5c-18.4,2.5-31.7,4.3-45,6.2c-5.8,0.8-13.8-2.9-15.3,7.2
		C505.6,129.7,499.2,119.4,492.7,109.1z"/>
	<path class="st21" d="M359.3,273.4c-1.5-14.3,10.8-19.8,18.9-26.9c6.3-5.6,7,3.1,8.6,7.3c1.8,11.7,11.6,22.5,3.9,35.2l0-0.1
		c-11.4,19.4-11.5,19.4-28.7-3.2C358.7,282.2,357.6,278.1,359.3,273.4z"/>
	<path class="st22" d="M351.5,230.5c-8.4,0.5-14.9-2.5-14.3-11.6c0.8-12.4,8.2-21,20.5-22.1c10.2-0.9,15.5,7.8,15.4,16.6
		C373,226.5,362.8,230,351.5,230.5z"/>
	<path class="st3" d="M390.7,289c-1.4-11.7-5.8-23.1-3.9-35.2c9.1,19.4,28.8,23.2,45.8,31.3c10.9,5.2,23.1,7.5,32.6,15.4
		C439.7,301.4,416.6,286,390.7,289z"/>
	<path class="st23" d="M307.6,155.7c4.7,1.1,17.1-6.4,9,8.6c-5.8,10.8-10.2,22.4-16.1,33.1c-2.7,4.9-7.4,9.9-14.3,5.9
		c-7.7-4.4-5-10.4-2.6-16.9c4.1-11.4,17.1-16,20.5-27.8C305.2,157.8,306.4,156.8,307.6,155.7z"/>
	<path class="st24" d="M332.7,241.6c-11.4-0.2-22.2,1.7-31.7,8.4c-14.1-21.2,2.2-28.2,18.1-36.8C320.4,224.4,325,233.8,332.7,241.6z
		"/>
	<path class="st8" d="M359.3,273.4c4.2,1.5,0.1,5.5,2.4,7.6c4.9,4.7,9.7,9.5,5.4,17.1c-18.4,2.6-36.8,5.8-55.2,0.2l-0.4-1.2l1.1-0.6
		c11.6-7.5,23.3-14.9,34.7-22.7C351.5,271.1,355.2,270.2,359.3,273.4z"/>
	<path class="st25" d="M386.5,198.6c-7.2-8.2-14.6-15.9-25.7-19.3c8.2-10.7,15.3-4.9,21.9-0.5C389.5,183.3,394,189.1,386.5,198.6z"
		/>
	<path class="st26" d="M526.4,945.8c10.4-3,21.9,2.8,31.8-3.9c14.4,1,29.2-4.3,43.2,3.1C576.4,946.2,551.4,952.8,526.4,945.8z"/>
	<path class="st27" d="M715.5,793c-1.1,1.1-2.2,2.2-3.3,3.4c-30.8-25.1-56.9-54.7-82.1-85.1c-2.1-2.6-3-5.7-1.2-9
		c4.7-2.8,9.2-1.1,13.6,0.6c16.2,8,30.8,19.2,49.7,25.3c0-48-19.5-86.7-50.4-120.6c-11.8-13-25.2-24.4-37.3-37
		c1.8-14.6,4.8-28.4,20-35.4c73.5,50.9,101.5,123.3,97.9,210C721.8,761.2,717.9,777.1,715.5,793z"/>
	<path class="st28" d="M624.5,535.3c-8.7,10-12.5,22.7-18.6,34.1c1.2,12.8-7.9,23.6-5.5,37.5c2.1,12.3,4.6,23.7,10.9,35.1
		c6.9-7.3,6.5-17.4,11.9-24.6c2.9-3.8,6.4-7.1,11.5-5.2c4.4,1.6,4.2,5.9,4.5,9.9c1.3,16.1,0.2,31.4-13.7,42.5
		c-8.8,7-10,17.9-15.1,26.8c-4.2,2.2-7.1,0-10-2.7c-3.6-21.9-16.1-38.9-30-55.4c-8.8-10.4-15.7-9.2-23.1,1
		c-4.8,6.6-7,15.9-17.2,17.1c-5.4,0.1-9.5-2.3-12.6-6.4c-9.6-15.8-8.2-32.1-2-48.5c1.4-3.7,3-7.7,7.5-7.9c5.8-0.2,7.4,4.4,8.4,9
		c2,8.6,0.2,17.7,2.5,27.1c5.1-8.2,11.5-14.6,15-23.1c8.2-18.4,15.7-36.9,11.9-57.7c-1.1-13.4-8.5-26.4-2.2-40.1
		c2.3-11-7.1-21-2.1-33.7c9.4,11.5,11.6,24.6,14.4,37.5c8.8,10.5,8.9,23,8.7,35.7c0.2,10.5-2.3,21.3,2,32.1
		c8.8-3.6,9-11.8,12.9-17.2c6.7-9.8,8.6-22.5,18.9-30c9.6-10.3,12.6-25.6,26.4-34.8C640.3,510.5,626.7,520.9,624.5,535.3z"/>
	<path class="st29" d="M558.5,503.8c3.9,12.9,5,26.2,5.7,39.6c-13.1,4.2-26.5,0-39.7,1.8c-11.9-8.2-16.6-20.7-20.5-33.7
		c0.2-1,0.5-2,0.7-2.9C522.8,507.4,540.2,500.3,558.5,503.8z"/>
	<path class="st27" d="M574.2,547.4c-1.1-13.3-2.2-26.5-3.4-39.8c15.9,3.2,28.5,13.3,42.4,20.5c-2.8,11.7-8.2,22.1-15.5,31.6
		C585.9,563.2,580.3,554.8,574.2,547.4z"/>
	<path class="st30" d="M339.3,474.2c-35,2.8-69.1,13.2-104.4,6.4c-38.4-7.3-63.4-36.8-59.2-71.9c1.2-9.7,2.9-22,13.9-23
		c9-0.8,12,10.8,13.7,18.9c5.3,24.7,22.9,36.8,44.6,44.4C277.7,459.5,307.2,471.3,339.3,474.2z"/>
	<path class="st31" d="M504.1,511.5c11.4,7.3,12.1,21.3,19.7,31c1.2,1.6,1.2,3.3,0.3,5.1c-22.8,11.4-42.6,26.2-56.5,48.3
		c-6.6,10.5-6,16.9,5.9,22.7c16.1,7.9,33.4,13.9,47.2,26.1c3.3,1.5,6.6,3.1,9.8,4.6c14,0.4,24.8,9,36.9,14.3
		c3.1,1.6,6.2,3.2,9.4,4.8c9.4,4.7,19.5,8.5,24.9,18.6c2.3,0.9,4.6,1.8,6.9,2.7c7.4-2.7,12.2,1.7,16.9,6.2c1.9,2.1,3.2,4.4,3.5,7.3
		c21.9,27.1,44.9,53.1,70.3,77c5.1,4.8,11.2,8.9,12.8,16.4c-24.7,53-69.4,70.6-123.9,67.3c-49.8-3-96.5-16.6-135-50.8
		c-3.3-0.9-5.6-3-7.1-6.1c-4.8-23.3-12-46.1-10.9-70.3c13-6,14.7,6.4,18.5,12.7c13.2,21.8,27.2,42.7,49.1,56.9
		c42.3,27.4,87.9,37,137.4,24.7c20.4-5.1,30.8-20.3,38-38.6c4-10.1-1-16.2-8.9-20.9c-20-12.1-39.1-25.6-60.3-35.7
		c-3.2-1.8-6.2-3.8-9.2-5.9c-10.7-7.6-23.4-11.6-34.2-19.1c-2.9-1.9-5.8-3.6-8.9-5.2c-11.4-6-22.9-11.9-34.8-17.1
		c-17.2-2.2-28.5-16.3-44.2-21.6c-1.2-0.4-2.4-1-3.6-1.3c-9.8-2.6-19.4-11.1-29.1-8c-11,3.5-5.1,17.2-9.5,25.4
		c-2.1,3.8-2.6,8.9-8.4,9.3c-13.7-20.5-14.2-43.6-13.8-67c0-1.5,0.1-3.1,0.1-4.6c17.9-34.2,34.1-69.7,65.9-94.2
		C487,520.3,494.8,514.7,504.1,511.5z"/>
	<path class="st10" d="M449.8,807.9c1.1,1.7,2.3,3.3,3.4,5c4.7,28.1,23.3,46.8,43.6,64.4c4.6,4,13,7.4,9.2,14.9
		c-2.9,5.6-10.6,2.9-16.1,2.2c-28.2-3.8-56.8-6.9-81.3-23.4c-10.7-7.2-19-15.4-13.8-30.4c11.3-32.3,13-65.9,11.5-99.7
		c5.8-0.1,7.6,4.4,9.3,8.5C424.3,770.5,438.2,788.5,449.8,807.9z"/>
	<path class="st32" d="M449.8,807.9c-22.1-17.4-32.2-42.5-43.5-66.9c-1.6-13.6-3.3-27.2-4.9-40.8c2.3-25.3,2.2-51,12.1-75.1
		c7.4,22,7.1,45.9,16.4,67.4c12,11.4,10.3,25.6,7.8,39.9C441.6,757.6,445.7,782.8,449.8,807.9z"/>
	<path class="st33" d="M440.9,160.6c-4.2,9.9-11.2,14.2-21.4,9.9c-13.7-5.7-21.9-17.4-30.1-29c-2.7-3.8-2.5-8.1,1.7-9.7
		c11.1-4.3,21.4,0.8,30.9,5.5C431.5,142,438.3,149.6,440.9,160.6z"/>
	<path class="st34" d="M351.2,155.5c-3.5-0.4-1.6,14.8-9.3,3.1c-4.1-6.3-9.3-12.1-13.9-18.1C340,138.8,350.2,139.9,351.2,155.5z"/>
	<path class="st35" d="M367.2,296.9c-1.8-5.3-3.6-10.6-5.4-15.9c3.6,0.1,6.5,2.2,7.6,5.2c5.5,15.7,12.9,12.9,21.5,2.7
		c-7,16.5-2.2,30.2,9.7,42.6c3.5,3.6,6.7,7.7,5.8,13.5c-25.1-27.1-24.7-25.9-59.7-13.5c-16.6,5.9-21.3,15.9-21.7,31.2
		c-0.3,9-1.4,17.9-2.3,28c-6.7-16.9,1.9-34.5-6.3-50.1c-5.4-1.2-12.2,0.6-14.7-8.2c21.7,5.2,12.9-11.1,14.8-20.3
		c13.1,11.6,26.1,10.5,40.6,1.6C364,309.2,367.3,304.7,367.2,296.9z"/>
	<path class="st36" d="M367.2,296.9c9.2,8.3,9,14.6-3.7,18.7c-3.6,1.2-7.4,2.5-10.5,4.6c-15.2,10-28.4,12-36.7-8.2
		c-1.5-4.6-2.9-9.1-4.4-13.7C330.2,294.4,348.6,292.7,367.2,296.9z"/>
	<path class="st37" d="M237.9,226.1c4.7-0.4,8.8-6.3,15.2-0.8c-23.8,12.3-21,32-14.8,52.5C220.8,259.8,220.7,242.4,237.9,226.1z"/>
	<path class="st38" d="M264.4,233.7c11.6,2,17.1,8.5,16.7,18.8c-0.5,10.8-6.3,19.6-17.5,18.9c-10-0.6-15-8.7-14.4-19.4
		C249.9,241.5,255.3,235.7,264.4,233.7z"/>
	<path class="st39" d="M625.1,698.9c-5.5-3.1-11.1-6.2-16.6-9.3c1.9-7.3,0-15.9,7.4-21.3c18.8-13.7,21.5-32.6,16.9-55.4
		c-12.5,11.9-11,30.2-23.2,42.7c-9.6-29.1-27.1-56.5-3.7-86.2c55.9,41.1,91,93.7,92.8,167.1c-22.2-7.2-40-20-59.2-29.9
		C641.5,691.4,630.9,699.5,625.1,698.9z"/>
	<path class="st40" d="M625.1,698.9c5.5-4.5,11.5-12,18.4-6.9c5.1,3.8-1.5,9.9-4.1,14.6c-3.5-1.2-7-2.4-10.5-3.6
		C627.7,701.6,626.4,700.3,625.1,698.9z"/>
	<path class="st41" d="M520.7,644.6c-19.8-9.1-39.6-18.4-59.5-27.3c-6.5-2.9-8.7-5.6-4.3-12.8c16-26.5,35.1-49.3,66-59.1
		c20.9,14.8,28.3,36.5,31.2,60.5c-5.5,10-15.9,16.3-20.4,29c-10.6-14.7-4.9-30.2-7.5-47.9C513.2,607.7,512.2,625.7,520.7,644.6z"/>
	<path class="st42" d="M601.7,686.9c-9.2-5.1-18.3-10.3-27.5-15.4c-7.1-9.4-1.3-21.1-6.4-33.7c0.1,0.3-2.9,4.6-0.9,3
		c5.3,9,5,17.8-0.5,26.6c-12-6-23.9-12.1-35.9-18.1c10.6-5.3,9.7-19.1,19.3-25.8c7.3-5.1,11.9-9.1,18.6,0.8
		C582,643.9,604.9,658.4,601.7,686.9z"/>
	<path class="st43" d="M554.1,605.9c-6.4-22.2-20.5-40.5-31.2-60.5c0.1-1,0.4-2,0.9-2.8c13.6-4.4,27.1-4.2,40.4,0.9
		C573.1,566.2,560,585.5,554.1,605.9z"/>
	<path class="st44" d="M574.2,547.4c7.9,4.1,15.7,8.2,23.6,12.3c-3.8,9.3-3.8,24.9-16.7,23.2c-14.2-1.9-5.3-17-7.4-26
		C573,553.9,574,550.6,574.2,547.4z"/>
	<path class="st45" d="M437.6,732.4c-2.6-13.3-5.2-26.6-7.8-39.9c0.1-0.6,0.1-1.3,0.2-1.9c6.1-48.8,6.1-48.8,51.9-26.4
		c6.6,6.3,12.9,12.9,19.2,19.4c22.4,23.4,22.1,49-0.8,71.1c-4.2,4-8.4,7.9-11.9,12.6c2.2,0.2,2.9-1.8,4.2-2.9
		c20.3-17.5,25.5-15.8,31.1,9.7c1,4.4,1.2,9.1,2.8,13.3c3.4,8.9,4.2,20.6,15.9,22.4c10.8,1.7,17.8-6.9,23.9-14.5
		c6.6-8,12.5-16.6,18.7-24.9c10.8-14.6,16.9-14.4,28.3,0.3c3.5,4.6,6.6,9.5,12.1,18.2c-6.2-13.3-12.8-21-18.2-29.4
		c-6.3-9.9-10.2-20.1,1.3-29.3c25.7,11.3,48.4,27.6,71.9,42.5c4.5,2.9,9.2,5.4,6.6,12.1c-9.2,24.4-21,46.1-49.7,52.2
		c-62.7,13.5-145.2-6.8-186.8-83.1C446.4,746.7,441.9,739.6,437.6,732.4z"/>
	<path class="st42" d="M566.6,706.9c12,5.8,24.3,11.1,34.8,19.7c1.4,9.3-0.5,18.1-5.2,26.1c-10.8,18.3-21.9,36.7-37.5,51.3
		c-12.4,11.5-23.6,9.4-28.8-5.5c-11.5-32.6-13.6-66.8-13.6-101.1c0-5.1,2.6-10,7.3-13.1c12.6,4.7,24.4,10.8,35.2,18.8
		c8.8,17.5-2.9,33.8-3.3,50.7c-0.1,6.2-2.7,12.6-4.6,18.8c-0.7,2.5,3.2,1.5,0.6,1.2c-0.2,0-0.3-0.5,0.1-1.5
		C558.5,751,556.4,727.5,566.6,706.9z"/>
	<path class="st46" d="M523.4,684.3c-6.3,37,0.8,73,8.7,108.7c3.9,17.7,14.1,19.3,27.4,4.5c18.6-20.8,33.2-44.2,41.8-71
		c2.4,1.3,4.7,2.5,7.1,3.8c-5.7,11.1-3.7,20.5,4.5,30.2c9.3,11.1,17.8,23.2,20.3,40.8c-14.4-7.5-18.6-20.1-25.4-30.4
		c-6.4-9.8-10.9-13.1-18.1-0.1c-8.2,14.6-17.8,28.7-31.6,39c-15.2,11.3-27.1,8.3-33.2-9.5c-4.8-13.9-6.8-28.8-10.2-43.6
		c-16.7,1.3-21,21.3-38.2,25.6c2.6-18.3,15.7-26.6,26.1-36.4c12.4-11.6,13.2-43.4-0.2-54.2c-9.4-7.6-16.6-16.2-20.6-27.5
		C497.5,667.2,506.5,684,523.4,684.3z"/>
	<path class="st47" d="M566.6,706.9c-1.9,25.7-9,50.2-17.5,74.4c3.2-26.2,8.1-52,9.6-78.3C561.3,704.4,563.9,705.6,566.6,706.9z"/>
	<path class="st28" d="M566.4,667.3c0-10.1,0-20.1,0-33.1c12,12.7,6.3,25.7,7.7,37.3C571.6,670.1,569,668.7,566.4,667.3z"/>
	<path class="st48" d="M270.6,251.2c-0.2,5.6-1.1,11-6.2,11.3c-5.1,0.3-6.9-4.6-7-9.5c-0.1-4.8,1-9.9,6.2-10.3
		C269.2,242.3,270,247.7,270.6,251.2z"/>
</g>
</svg>
