<?xml version="1.0" encoding="utf-8"?>
<!-- Generator: Adobe Illustrator 23.0.1, SVG Export Plug-In . SVG Version: 6.00 Build 0)  -->
<svg version="1.1" id="Layer_4" xmlns="http://www.w3.org/2000/svg" xmlns:xlink="http://www.w3.org/1999/xlink" x="0px" y="0px"
	 viewBox="0 0 1000 1000" style="enable-background:new 0 0 1000 1000;" xml:space="preserve">
<style type="text/css">
	.st0{fill:#808080;}
	.st1{fill:#FEFEFE;}
	.st2{fill:#F7F7F7;}
	.st3{fill:#A7A7A7;}
	.st4{fill:#BFBFBF;}
	.st5{fill:none;}
	.st6{fill:#F6F6F6;}
	.st7{fill:#CDCDCD;}
	.st8{fill:#C5C5C5;}
	.st9{fill:#D2D2D2;}
	.st10{fill:#C2C2C2;}
	.st11{fill:#C8C8C8;}
	.st12{fill:#CACACA;}
	.st13{fill:#DADADA;}
	.st14{fill:#C1C1C1;}
	.st15{fill:#7F7F7F;}
	.st16{fill:#E3E3E3;}
	.st17{fill:#E4E4E4;}
	.st18{fill:#E0E0E0;}
	.st19{fill:#E7E7E7;}
	.st20{fill:#C7C7C7;}
	.st21{fill:#C6C6C6;}
</style>
<g>
	<path class="st0" d="M853.2,511.4c-1.5-19.6-0.1-39.3-1.7-59c-1-13-0.6-26-1.1-39c-1-25.2-4.5-50.1-7.2-75.1
		c-2.5-22.9-14.7-39.8-29.7-55c-12-12.2-28-18.9-44-24c-33.7-10.8-68.1-18.7-103.6-20.9c-4.7-0.3-10.1-0.1-14.2-3.2
		c-5.8-4.3-12.5-6.3-19.3-7.9c-19.5-4.6-39.1-7.5-59.3-4.5c-13.7,2-27.3,3-40.3,8.5c-4.7,2-8.8,5.5-14.6,7.1
		c10.6-28.7,13.5-56.8,6.3-85.8c-3.1-12.5-7.8-24.4-13-36.1c-5.9-13.5-15.1-25.3-25.8-34.9C475,71.9,462.8,63.9,450,56.8
		c-19.9-11-41-15.5-63.1-16.6c-11.5-0.6-22.9,2.1-34.1,4.3c-23.9,4.6-44.5,16.9-61.7,33.1c-16.8,15.8-25.2,37.5-29.5,60.1
		c-2.7,13.9-3.6,27.7-1.9,42c1.4,11.9,2.6,24,7.3,34.8c10.8,24.9,26.6,45.9,49.6,61.6c27.1,18.5,56.4,29.1,89.2,29.6
		c14.3,0.2,28.3-2.5,42.4-5.3c-2,3.2-3.9,6.2-5.5,9.3c-1.4,2.7-3.4,3.7-6.2,3.2c-14.9-2.8-29.8-3.4-44.9-1.4
		c-9.1,1.2-18.3,1.6-27.1,3.7c-19.9,4.6-36,16.7-51.7,28.8c-17,13.2-32.4,28.3-46.3,44.8c-10,11.9-20.5,23.3-29.4,36
		c-16,22.8-29.9,46.9-44.2,70.8c-12.1,20.4-22.2,41.6-29.2,64.3c-8.7,28-13.8,56.7-11.9,86c0.8,12.9,1.1,25.9,2.2,38.8
		c2.1,24.8,7.5,48.9,12.7,73.2c5.8,26.8,15.4,52.3,24.8,78c10.1,27.5,27.7,49.4,50.1,67.7c6,4.9,12.2,9.6,18.8,13.5
		c27.9,16.6,58.6,23.4,90.7,24.2c26.3,0.6,52.5-2.3,78.8-2.4c31.1-0.2,59.8-7.7,87.1-21.8c23.1-12,43.6-28.1,64.9-42.9
		c30.4-21.2,56.6-47.1,79.9-75.7c15.5-19,30.2-38.7,43.2-59.7C725.8,705,743,669.6,753,631c2.5-9.6,5-19.3,7.8-30
		c3.6,20.3,7.2,39.3,10.3,58.4c3.3,20.3,5.8,40.8,9,61.1c1.7,11.3,3.5,22.6,9.5,32.8c5.5,9.3,19.9,16,29.5,12.3
		c11.8-4.5,17.6-14.6,20.8-25.9c7.2-25.2,6.3-51.6,10.3-77.3c2.5-16.4,0.9-33,2.4-49.5c1.7-18.8,0.3-37.9,1.4-56.9
		C854.9,541.3,854.3,526.4,853.2,511.4z M426.4,248.4c-8.5,3.2-17.6,5.1-26.3,4.5c-22.4,0.2-40.9-7.2-57.5-21.9
		c-17.4-15.4-26.3-33.8-25.4-56.7c0.7-18.9,8.5-35.2,20.4-49.8c7-8.6,14.4-16.3,25.3-20.5c13.7-5.2,26.9-5.1,40.4-0.1
		c13.6,5,27,10,38.5,19.6c12.5,10.5,19.9,23.5,23.7,38.8c3.9,15.9,4.5,32.1-1.3,47.8C457.4,228.3,444.6,241.4,426.4,248.4z"/>
	<path class="st1" d="M590,626.9c-16.5-0.2-32.8,1.6-50.3,5.1c18.1,3.5,35.1,2.2,51.8,5.4c4.1,9.2,2,18.7,1.4,28.1
		c-1.8,3.9-4.5,2.3-7,1c-3.9-2-7.6-4.5-11.5-6.6c-8.2-5.2-16-10.9-25.4-13.8c-1.7-0.5-3.9-1.9-5.2,0.1c-1.3,2,0.8,3.4,1.9,4.8
		c3.1,3.7,7.3,6.1,11.7,7.8c5.5,2.2,10.8,4.9,16.1,7.4c5.5,3.8,12.8,4.5,17.4,10c0.6,9.6-2.7,18.5-5.6,27.4
		c-1.2,3.8-2.6,7.6-3.7,11.4c-4,8.6-12.4,12.9-19,18.9c-29.5,27.2-61.6,51.4-90.2,79.6c-8,5.3-17.3,6.8-26.4,7.5
		c-11,0.9-22,4.3-33.1,1c-12.3-8.3-26.1-13.5-39.5-19.5c-26.3-11.7-51.9-24.5-75.8-40.6c-2.3-1.6-5.1-2.7-5.3-6.2
		c3.1-5.1,9-5.7,13.2-8.4c-7.6-0.8-15.2,4.2-23.2,1.4c-13.9-21.4-23.4-44.6-28.7-69.6c1.6-9.3,6.3-17.5,11.4-25.1
		c20.6-30.5,39.7-62.1,64-90c1.4-1.6,2.7-3.1,4.4-4.4c-3,2.1-5.1,5.7-9.3,6.2c-10.7,0.4-21.4,1.5-32,2.9c-4.6,0-9.3,0.8-13.9,0.6
		c-3-1.5-2.5-3.9-1.3-6c11.1-19.5,25.5-36.1,43.9-48.9c0.6-0.4,1.4-0.3,2.1-0.4c5.3,6.7,10.6,13.4,15.9,20.1
		c0.4-0.2,0.8-0.5,1.2-0.7c-3.3-7.3-6.7-14.6-10-21.9c-0.4-3.7,2.8-4.7,5-6.1c21.6-13.4,45.1-21.1,70.3-23.6c2.9-0.3,5.7,0,7.8,2.5
		c-16.7,14.5-33.5,28.8-44.7,48.8c29.9-22.8,59.7-45.6,89.6-68.4c23.5,22,51.6,36.1,81.7,46.7c7,2.5,13.7,6.1,21.2,7.2
		c4,0.5,2.6,3.1,2,5.1c-5.8,19.2-11.8,38.3-17.7,57.5c-3.6,11.7-7.2,23.5-10.3,35.4c12.7-16.9,22.6-35.3,29.8-55.1
		c3.1-0.4,4.1,2,5.2,4c9.5,16.9,16.8,34.7,20.5,53.8C590.7,621.8,591.8,624.4,590,626.9z"/>
	<path class="st2" d="M580,715.7c0.7-6.8,3.8-13,5.8-19.4c2.1-6.7,3-13.6,4.2-20.5c9.6,0.7,16.6,6.8,24.4,11.5
		c8.8,13.8,16,28.5,23.4,43c3.3,6.5,8.5,12.1,9.4,19.8c-1.9,7.8-7.1,13.9-10.9,20.7c-6.8,12-13.5,24-20.3,34.3
		c2.3-4.8,7.8-8.8,12-13.8c15.3-18.3,29.1-37.7,41-58.3c13.5-23.4,21.4-48.7,22.1-76c0.1-3.8,0-7.5,0.3-9.7
		c-4.3,11.2-7.6,24.4-12.9,36.8c-6.2,14.7-12.4,29.4-18.7,44c-1.9,4.4-2.8,9.7-7.9,12.2c-5.2-5.3-7.1-12.6-11.3-18.6
		c-8.2-11.9-18.3-22.3-26.2-34.5c-6.3-4.2-12.3-8.8-18-13.8c-2-1.7-5.1-2.8-4.9-6.3c0-9.9,0-19.9,0-29.8c8.1-1.6,15.9,1.1,23.9,1.3
		c11.1,0.3,22.1-1.2,33.1-1.4c1.7,1.5,0.7,3.1-0.2,4.5c-7.2,11.4-14,23.1-20.5,33.1c10-8.8,18.7-20.9,27.9-32.5
		c1.6-2.1,3.2-4.1,5.8-5c7.8-1.6,15.5-3.2,23.3-4.8c3.6-0.7,5.8-2.8,6.3-6.4c1.6-13.3,4.7-26.4,4.6-39.9c-0.2-22.1-5.8-43-14.9-63
		c-1.9-4.1-2-5.8,2.1-8.8c8.9-6.4,18.5-12.4,24-22.5c5.4-9.9,5.9-19.9,0.2-30c12.4,12.6,19.2,28.1,25.4,43.7
		c7.4,18.6,13.7,37.7,17.9,57.5c1.3,6-0.3,10.1-3.1,14.4c-12.5,18.9-28.9,33.9-47.4,46.7c-2,1.4-3.7,2.9-5.9,6.3
		c21.5-7.2,40.3-15.9,53-35.8c0.8,7.3-2.1,12.7-3.1,18.3c-1,5.7-3,11.3-4.7,16.9c-11.7,39.6-32.3,74.6-54.5,109
		c-19.2,29.7-39.9,58.3-65,83c-27.4,26.8-58.4,49.3-90.2,70.7c-21.8,14.7-45.4,24.9-70.9,30.8c-5.9,1.4-12.1,1.6-18.1,2.3
		c-18,1.9-36.1,0.3-54,1.8c-13.1,1.1-26.1,1.3-39,0.9c-22.1-0.7-43.4-5.1-64-14c-21.1-9.2-37.2-24.3-53.6-39.4
		c-4.2-3.8-5.4-8.6-6-14.4c-0.8-9-1.6-17.9-1-26.9c1.2-20.5,2.9-40.9,4.5-61.3c0-0.3,0.6-0.6,1-1c1-0.7,1.9-1.6,3-1.8
		c15.6-2.5,30.7-7.1,46.3-9.6c9.4,4.6,17.6,11.2,26.2,16.9c25.1,16.7,52.7,27.2,81.6,34.7c9.2,2.4,18.4,4.6,27.2,8.3
		c1.1,1.6,2.8,1.7,4.4,1.6c16.6-1,33.3-1.6,49.4-6.7c2.3-0.7,4.1-2.1,6.2-3.3c13.5-9.3,28.2-16.5,41.6-26.1
		c14.3-10.3,27.6-21.8,40.5-33.7c14.1-13,28.9-25.4,41-40.5c3.9-5,8.2-9.6,11.3-16.4c-6.6,7.1-13.6,12-19.7,18
		C585.4,714.6,583.4,716.9,580,715.7z"/>
	<path class="st2" d="M291.4,567.2c11.4-2.1,22.9-3.2,34.5-2.8c0.4,3-2,4.1-3.8,5.5c-16.1,12.6-28.2,28.9-40.5,44.8
		c-14.8,19.1-26.2,40.1-34.7,62.8c-3.4,9.1-4.6,18.9-8.5,27.9c3.2-6.8,6.5-13.6,10-20.3c1.4-2.7,2.4-5.8,6.1-6.4
		c4,4.8,3.5,11.1,5.1,16.6c4.8,16.9,12.1,32.6,21.3,47.5c1.1,1.9,2.2,3.6,2.1,5.8c-0.5,0.5-1.1,0.8-1.8,0.9
		c-3.1-0.1-5.2-2.1-7.4-3.8c-10-7.6-20.2-14.9-29.7-22.5c6.9,8.5,13.1,18.1,22.5,24.9c1.7,1.3,3.8,3.3,1.5,6
		c-11.5,4.9-23.9,6.7-36,9.7c-1.2,0.3-2.3,0-3.2-1c0.9-10,1.7-20,2.6-30.3c-15.2,17.9-20.8,88.1-10.1,129c-4.6-4.7-6.2-10-8.5-14.8
		c-13.6-28.6-24.3-58.3-31.6-89c-5.4-22.7-10.9-45.3-13-68.8c-1.9-21.1-4.4-42.2-3.9-63.5c0.1-2.8-0.6-5.7,1.6-8.1
		c1.3-2.1,1.7-5.1,5.3-4.2c2.3,8.7,4.6,17.4,6.9,26.1c6,22.8,16.5,43.3,30.6,62.1c5.9,14.6,6,29.9,6.3,45.3c-0.1-9.8,0-19.6,0-29.3
		c0-3-0.4-6.2,2.1-8.7c2.5,0.7,3.2,4,6.9,4.1c-2-3.9-3.8-7.5-5.7-11c-4-13-0.3-26,0.1-38.9c0.3-11.1,1.1-22.3,1.9-33.4
		c1.3-15.8,1.5-31.8,3-47.6c0.4-4.5-0.4-6.2-5.7-5.7c-14,1.4-25,8.5-35.4,17.1c-1.9,1.6-3.3,4.2-6.4,3.9c-4.3-9.3-4.7-18.7-1-28.2
		c7.7-19.9,14.6-40.1,25.1-58.7c17-30.2,35.7-59.4,55.5-87.8c7.3-10.5,16.3-19.5,24.7-29c18.6-21.2,40-39.1,63.5-54.6
		c13.9-9.2,29.3-14.3,46.3-14.5c9.1-0.1,18.2-1.5,27.6-0.7c-14.4,3.3-23.4,11.9-26.8,26.3c-1,4.3-1.2,8.2,0.1,12.5
		c1,3.3,1.3,6-4,6.8c-13.9,1.9-27.8,3.7-41.5,6.7c-18.2,4-35.1,11.2-52.1,18.4c-4.1,1.7-6,4.6-6.1,8.3c-0.2,9.2-2.8,18.3-1.4,27.6
		c0.6,3.4-1.5,5.8-3.3,8.3c-9.2,13-17.9,26.2-26.4,39.7c-11.7,18.7-17.8,39.2-22.9,60.3c-1.3,5.3-2,10.7-3.1,14.7
		c9.5-19,19.2-39.4,29.9-59.3c7.8-14.4,14.8-29.3,22.4-43.8c1.3-2.5,2.1-5.4,4.7-7c4.6,10.3,5.4,21.7,10.7,31.9
		c7.1,14,16.3,26.5,25.1,39.3c-16.8,13.6-32.2,28.4-43,47.4c-1.3,2.2-3.3,4.1-2.8,7c-8.8,4.7-18.5,3.2-27.8,4.2
		c-4.3,0.4-8.6,0.7-12.9,1c13.1-1.4,26.2-1.9,39.3-1.5C281.7,572.4,287.1,571.5,291.4,567.2z"/>
	<path class="st3" d="M818.6,311.4c9.3,11.5,11,25.7,12.5,39.3c3.5,30.8,6.2,61.6,6.5,92.7c0.1,11.3,1.1,22.7,0.9,34.1
		c-0.4,21.2,2.3,42.2,1.6,63.4c-0.8,23.3-1.4,46.5-1.7,69.8c-0.3,22.9-2.5,45.8-4.1,68.7c-1.1,14.8-2.5,29.6-4.3,44.4
		c-1,7.7-4,15.2-7.3,22.2c-1.9,4.1-5.7,7.3-10.8,6.7c-6.3-0.7-13.1-7.5-14.4-14.2c-2.5-13.2-5.2-26.4-7.2-39.7
		c-3.8-24.5-8.6-48.8-12.6-73.2c-4.9-29.6-11.4-58.9-19.1-87.8c-6.3-23.3-15.6-45.6-27.9-66.7c-16.7-28.4-42.2-45.3-72.1-56.7
		c-15.9-6.1-31.6-12.6-46.9-20.1c2.6-2.4,5.4-1.3,8-0.5c26.2,8,52.4,15.9,77.4,27c20,8.9,36.2,23.5,53.6,36.3
		c5.9,4.4,11.4,9.4,18,12.8c7.3,3.7,11.5,2.5,15.3-4.8c7.1-13.6,9.5-28.3,7.9-43.5c-0.8-7.1-1.8-14.1-3.1-21.2
		c-3.6-19.4-10.6-37-25.2-50.9c-1.8-1.7-3.9-3.6-3.7-6.6c2-2,4-0.8,5.9,0.1c24.5,12.5,39.8,32.5,47.1,57.4
		c-1.1-30.3-18.6-49.1-47.3-59.3c-2.1-0.7-6.4-0.2-4.8-4.9c3-1.6,6-0.9,9.1-0.3c9.4,1.7,18.5,4.4,27.6,7.4c17,5.7,22.9-4.1,22-19
		C818.9,320.1,815.6,315.9,818.6,311.4z"/>
	<path class="st4" d="M520.1,254.4c14.3-11.6,31.4-15.8,49-18.6c21.1-3.4,42.1-1.9,62.3,4.4c18.2,5.7,33.6,16.1,43.8,32.9
		c6.7,11,14.7,21.4,16.8,35.4c-10.5-2.1-20.6-4.8-31-6.3c-28-3.9-50.8,3.4-67.7,26.9c-6.4,8.9-12,18.1-15.6,28.5
		c-6,17.7-2.5,29.3,12.4,41c2.5,3.4,6.2,5.6,8.9,9c4.2,5.1,3.8,9.6,0.3,14.8c-4.1,6-9.2,11.2-15.7,14c-18.9,8.2-38.7,12-59.4,8.1
		c-16.9-9.5-30.5-23-44.1-36.5c-8.5-8.5-18.6-16-23.9-27.1c-13.5-28.2-12.4-55.1,8.7-80.2c13.1,16.3,23.6,35.8,46.5,40.9
		c13.6,4.1,26.2,2.3,37.4-6.9c10.5-8.7,14.4-23.1,10.1-36c-5.5-16.4-17.1-27.5-30.8-37C525.1,259.6,520.8,259,520.1,254.4z"/>
	<path class="st4" d="M760,342.8c5.7,8.4,14.1,14.6,19,23.7c8.7,16.4,11.6,34.2,14.1,52.4c2.3,16.8-0.3,32.4-7.7,47.4
		c-4.2,8.4-8.9,10-17.3,5.4c-12.2-6.5-22.5-15.7-33-24.4c-26-21.6-56.6-33.2-88.2-42.9c-11.7-3.6-23.1-8.7-35.4-10.1
		c-10-4.2-20.8-7.3-23.6-20c-0.5-2.1-1-4.3-0.2-6.3c7.3-18.4,16.1-35.8,32.5-48c11-8.2,24-8.6,36.8-6.5c23.7,4.1,47.7,7.1,71.1,13.7
		c-5.1-2.9-10-6-15.2-8.7c-3.3-1.7-4.7-4-5.9-7.4c-6-17.8-13.4-34.9-25.3-49.7c-2.4-2.9-5.3-5.3-8.2-8.9c20.7,3.5,41,5.3,60.4,10.6
		c21.7,6,44,11.7,62.8,25.2c8.6,6.2,16.4,13.6,22,22.9c0.8,7.9,4.4,15.3,1.9,23.7c-3.3,11.1-8.9,14-21.2,10.9
		c-13-3.3-25.6-8.8-39.3-8.9c-4.6,2.9-7.6-1.4-10.9-1.5C751.8,338.3,758.7,336.6,760,342.8z"/>
	<path class="st5" d="M464.2,210c-6.8,18.3-19.6,31.4-37.8,38.4c-8.5,3.2-17.6,5.1-26.3,4.5c-22.4,0.2-40.9-7.2-57.5-21.9
		c-17.4-15.4-26.3-33.8-25.4-56.7c0.7-18.9,8.5-35.2,20.4-49.8c7-8.6,14.4-16.3,25.3-20.5c13.7-5.2,26.9-5.1,40.4-0.1
		c13.6,5,27,10,38.5,19.6c12.5,10.5,19.9,23.5,23.7,38.8C469.4,178.1,470,194.3,464.2,210z"/>
	<path class="st4" d="M488.6,240c-6.5-1.9-15.9-2-18.9-6.4c-3-4.3,4.5-11.4,6.6-17.6c6.8-19.2,7.7-38.3,2.7-58.3
		c-10.5-42.1-41.5-59.5-79.8-69.3c-20.2-5.2-38.8-1.7-55,10.3c-23.4,17.3-37.5,40.2-40.3,70.1c-1.3,13.8-0.3,26.8,4,39.7
		c5,15.3,16.6,25.4,28.4,35.4c12,10.2,26.1,16.3,41.1,19.6c13.4,2.9,27.2,3.3,40.8,0.1c7.5-1.8,15.4-2.5,22.3-6.7
		c2.9-1.8,3.4-0.3,4,2.3c1.1,5.1,2.7,10,4.2,15c-1.2,3.4-4.4,4.2-7.3,4.9c-42,9.9-82.3,6.2-120-16.2c-15.3-9.7-26.9-23.1-35.9-38.5
		c-7.6-13-10.1-27.9-12.5-42.5c-3-18.1-0.5-35.8,4.3-53.2c6.3-23,19.2-41.3,39.5-54.3c15.3-9.8,31.3-17,49.6-19.8
		c26.2-4,50.6,0.1,73.8,13c13.7,7.7,26.6,16.1,38.2,26.8c12.8,11.8,20.1,26.7,26.2,42.5c3.4,8.8,6.2,17.8,7.1,27.3
		c3.3,27.3-4.6,51.6-20.1,73.8C490.7,239,489.8,239.7,488.6,240z"/>
	<path class="st2" d="M590,626.9c-3.9-21.1-10.8-41.1-21.4-59.8c-1.1-2-1.7-4.5-4.1-5.6c3.5-11.1,6.7-22.4,8.1-33.9
		c0.6-4.4,2.2-5.2,5.7-4.7c11.3,1.8,22.9,2.7,34.1,4.7c18.8,3.3,36.7,2.2,54.4-4.7c2.9-1.1,3.9-0.7,4.7,2.6
		c4.2,17.7,8.6,35.3,12.9,53c1.1,2.8-0.2,5.1-1.5,7.3c-7.3,12.5-15.4,24.5-22.7,36.9c-1.1,1.9-2.6,3.4-4.6,4.2
		c-19.1-1.5-38.2-1.3-57.4-1.2C595.4,625.7,592.6,625.5,590,626.9z"/>
	<path class="st2" d="M413,484.3c-17.7-1.8-34,3.7-50.2,9.5c-11.8,4.2-23.3,9.4-32.9,17.8c-13.4-21.8-22-45.5-28.3-70.1
		c17.8-10.3,36.7-17.8,56.4-23.4c14.3-4,28.8-6,43.5-7.9c2.4-0.3,4.7-0.3,6.8,1.3c11.9,13.9,22.8,28.7,36.4,41.1
		c2.3,2.1,3.2,3.4-0.4,5.6c-4.2,2.5-7.6,6.1-11.4,9.3c-2.5-3.6,1.4-5.2,2.3-7.6c-4.6,6.1-9.6,12-15.1,17.5
		C417.7,479.6,415.4,482,413,484.3z"/>
	<path class="st4" d="M565.6,505.8c-22.1-4-42.1-13.1-61.7-23.9c-22.7-12.6-41.9-29.3-59.2-48.1c-11.6-12.7-23.1-25.9-31.4-40.9
		c-6.9-12.3-12.9-25.9-9.1-41.1c2.4-9.7,16.6-19.5,26.5-18.5c2.7,0.3,2,2.2,2.1,3.6c1.1,9.6,1.7,19.2,4.2,28.6
		c4.5,16.8,12.5,31.3,24.5,44c14.8,15.5,30.4,30.1,48.1,41.8c20.8,13.7,43.8,23.1,68.6,27.2c4.9,0.8,9.7,2,14.5,3
		c5.3,6.9,2.7,16.6-6,20.9C580.2,505.8,573.1,507.6,565.6,505.8z"/>
	<path class="st3" d="M524.2,444.4c16.6,0,32.9-1.3,49-5.8c10.7-3,18.9-9.3,25.2-18.3c2.3-3.4,3.4-6.4-0.1-10.6
		c-2.9-3.5-7.6-6-8.2-11.2c29,12.9,58,25.8,87.1,38.5c6,2.6,6.1,4.7,1.6,9.4c-14.4,14.7-32.3,20.3-52.2,22.3
		c-22.5,2.3-44.2-1.9-65.7-7.3C547.5,458.2,536,450.8,524.2,444.4z"/>
	<path class="st6" d="M408.3,411.4c-28.2,2.8-55.8,8-81.9,20c-8,3.7-15.5,9.3-24.7,10c-2.8-13.5-5.7-27-8.4-40.5
		c-0.7-3.5,2.2-3.6,4.5-4c11.4-2.3,22.9-4.4,34.3-7c18.8-4.3,38-5.3,56.9-8.4c3.4-0.6,6.3,0.1,7.2,3.9
		C398.6,394.9,405,402.4,408.3,411.4z"/>
	<path class="st3" d="M565.6,505.8c5.3-1,10.7-1.7,15.9-3.2c11-3.3,14.5-10.2,11.3-21c7.8,0.2,15.5,2,23.3,1.3
		c19.5-1.7,39.3-2.3,56.8-12.9c3.4-2.1,6.9-4.2,10-6.6c4.4-3.4,7.3-1.8,9.9,2.3c6.7,10.8,4.3,21-5.6,29.4
		c-16.1,13.7-35,20.7-55.4,20.3C609.6,514.8,587.2,512.6,565.6,505.8z"/>
	<path class="st4" d="M504.2,327.3c-10.2-3.9-15.3-12.9-21.5-20.8c-9.6-12.3-17.9-25.6-24.9-39.5c-3.1-6.1-6.4-13.1-1.3-19.3
		c4.8-5.8,11.7-3.4,17.9-1.8c15.1,3.8,27.4,12.3,38.5,22.7c9.2,13.8,7,28.4,2.5,43c-1.3,4.1-2.8,8.1-5.2,11.6
		C508.7,325.2,507.5,327.7,504.2,327.3z"/>
	<path class="st7" d="M175.9,597c12-14.1,27.2-22.1,45.7-23.9c4-0.4,4.4,2.1,4,4.8c-1.5,10.1-0.2,20.5-1.8,30.4
		c-1.6,10.4-1.1,20.7-2,31.1c-1,12.2-2.2,24.5-2,36.8c0.1,8.5-0.9,17-1.4,25.4c-4.3-6.9-9-13.6-11.3-21.5c-3.3-10-2.2-20.2-1.6-30.3
		c1.2-22.1,3.8-44,12-64.8c0.3-0.8,0.8-1.8-0.1-3.3c-9.2,7.1-19.1,13-28.5,19.8c-3.2,2.3-6.2,5.3-10.4,5.8
		C176.9,604,175.8,600.6,175.9,597z"/>
	<path class="st2" d="M178.5,607.3c7.8-7.2,16.9-12.8,25.8-18.6c5.5-3.5,10-8.6,17.2-11c-3.4,11.9-7.5,23-9.7,34.5
		c-4.3,22.4-5,45.1-4.6,67.9c-9.3-19.9-19.2-39.6-25.7-60.7C180.3,615.4,178.1,611.6,178.5,607.3z"/>
	<path class="st8" d="M287.1,442.8c-6.2,15.7-14.2,30.5-22.1,45.3c-11.6,21.5-21.9,43.7-33.3,65.3c-1,2-1.3,4.6-4.4,5.8
		c5.5-31.3,13.2-61.3,30.7-88.3c9-13.9,19.1-26.9,27.8-41C288.5,434,286.5,438.6,287.1,442.8z"/>
	<path class="st3" d="M520.1,254.4c7.7,4.9,15.6,9.7,22.2,16.2c13.1,13,23.8,27.4,19,47.4c-3,12.4-11.1,21-23.6,25
		c-8.9,2.8-17.9,5.1-26.3-1.4c17.8-3.1,31-12,37.2-29.7c2.8-7.9,1.7-15.7-2.9-22.3c-7.1-10.2-14.5-20.4-24.7-28
		C519,260,514.3,257.6,520.1,254.4z"/>
	<path class="st3" d="M321.3,263c15.5,5.5,30.2,13.5,46.7,16.1c18.6,3,37.2,4.8,56.1,1.4c8.4-1.5,16.8-2.4,24.5-6.2
		c7,10.4,6.8,11.1-5,13.8c-25.4,5.8-51.1,6.5-76.2,0C350.4,283.6,334.6,275.2,321.3,263z"/>
	<path class="st3" d="M504.2,327.3c12.4-15.3,15.6-32.5,10.8-51.4c-0.6-2.5-1.4-4.9-2.1-7.4c7.9,6.8,15.1,14.2,20.8,22.9
		c6.6,10.2,4.7,23.3-5.3,30.5c-4.9,3.6-10.7,6-16.6,7.8C508.9,330.6,506.4,329.3,504.2,327.3z"/>
	<path class="st3" d="M488.6,240c4.2-9.2,10.9-17.1,14.5-26.7c5.8-15.9,8.1-32.3,8.5-49.1c3.8,13,5.6,26.2,2.1,39.5
		c-2.8,10.7-4.5,21.8-9.9,31.7C498,246,501.1,246.1,488.6,240z"/>
	<path class="st9" d="M228.8,762.7c13.3-3.3,26.6-6.6,39.9-9.9c5.1,0.7,8,4.1,10,8.4c-14.9,3.1-29.6,7.7-44.7,9.6
		c-1.9,0.2-3.7,0.3-5.6,0.5C228.6,768.5,228.7,765.6,228.8,762.7z"/>
	<path class="st10" d="M655.6,627c8.6-14,17.3-28.1,26-42.1c1.3-2,2.5-4,2.9-6.4c2.5,4.7,0.8,9.7,1.1,14.6
		c-2.3,13.4-9.1,24.2-18.2,33.9C663.4,627,659.5,627,655.6,627z"/>
	<path class="st6" d="M667.3,627c6.4-11.1,13.7-21.8,18.2-33.9c1.2,3.1,1.6,6.2,1.7,9.6c0.1,6.1-0.5,12.1,1.1,18.2
		c1.8,6.7-1,9.3-7.8,7.5C676.1,627.1,671.7,627.5,667.3,627z"/>
	<path class="st11" d="M661.5,637.4c-11.5,15.2-22.7,30.7-38.3,42.5c8.4-14.2,16.8-28.4,25.3-42.6
		C652.8,637.3,657.2,637.4,661.5,637.4z"/>
	<path class="st12" d="M217.1,708.5c0.3,13,0.1,25.9-2.2,39.7c-2.2-16.3-4.2-31.6-6.2-46.9C211.5,703.7,214.3,706.1,217.1,708.5z"/>
	<path class="st13" d="M420.1,477.3c4-8.9,11.9-14.5,18-23.8c-0.1,6.7-4.8,9.4-5.2,13.9C428.1,470.1,425.6,475.6,420.1,477.3z"/>
	<path class="st14" d="M171.2,613c-1.8,1.4-3.6,2.8-5.3,4.2c0-2.9,0-5.9,0-8.8c1.1-1.6,0.5-4.8,3.9-4.2
		C171.8,606.9,171.5,609.9,171.2,613z"/>
	<path class="st1" d="M169.8,604.2c-1.3,1.4-2.6,2.8-3.9,4.2c-0.9-4.4,2.4-8.4,1-13.5C170.9,597.7,169.9,601,169.8,604.2z"/>
	<path class="st0" d="M278.8,761.3c-3.3-2.8-6.7-5.6-10-8.4c-10.7-9.1-19.9-19.6-27.8-31.3c-0.4-0.5-0.6-1.2-1.6-3.5
		c14.9,10.9,28.4,20.7,41.9,30.6c4.1,1.9,8.5,3.3,11.5,7.1c9.6,8.2,20.8,14.1,31.5,20.5c26.8,16,56.3,26.4,83.8,40.8
		c1.6,0.8,3.1,1.9,4.7,2.8C363.7,810.3,317.9,793.4,278.8,761.3z"/>
	<path class="st15" d="M438.9,805.7c-1.1,1.6-2.2,3.1-5.6,4.2c30.5-56.2,62.1-110.6,88.4-167.8c1,7.7-1.3,14.7-3,21.9
		c-9.5,40-29.9,74.7-52.9,108.2c-7.1,10.3-15.8,19.1-23,29.2C442.6,803.9,440.3,804.4,438.9,805.7z"/>
	<path class="st15" d="M362.6,546.5c53,28.6,104.6,56.5,160.6,78.2c-7.3,1.2-25.3-2.2-37.9-5.6c-32.4-8.8-62-24-90.6-40.8
		C382.1,571,371.9,560,362.6,546.5z"/>
	<path class="st16" d="M580,715.7c7.8-4.3,13.4-11.2,20.1-16.7c2.9-2.4,5.4-5.2,9.5-6.8c-1.5,7-5.6,12.3-9.8,17.1
		c-18.1,21.1-39.1,39.2-59.9,57.6c-17.2,15.2-35.7,28-55.5,39.3c-3.7,2.1-7.3,4.5-11.6,5.3c9.6-11.8,21.9-20.9,33.3-30.8
		c12.5-10.9,25.1-21.5,37.7-32.3c10.4-8.9,20.8-17.9,31.1-26.9C576.7,719.8,578.3,717.7,580,715.7z"/>
	<path class="st0" d="M254.5,678.6c-7.4,10-10.8,22.2-18.6,33.8c6.8-35.5,20.5-66.3,41-94.1c14.5-19.7,29.6-38.8,49-53.9
		c3.5-2.7,6.4-6.3,11.1-8.1c-1,4.9-5.2,7.7-8,10.8c-18.3,20.5-32.1,44.1-47.9,66.3C270.8,647.7,261.7,662.5,254.5,678.6z"/>
	<path class="st2" d="M572.8,667.2c-9.9-4.7-21.2-6.8-29-15.5c-1.9-2.1-4.6-4.3-2.8-7.2c1.9-3.1,5.1-1.2,7.7-0.3
		c9.4,3.2,18,7.9,25.5,14.4C575.4,661.7,575.1,664.6,572.8,667.2z"/>
	<path class="st17" d="M572.8,667.2c0-3-0.2-5.9,1.5-8.6c6.5,1.3,10.8,6.9,17.1,8.6c7.4,7,16.4,12.1,22.9,20l0-0.1
		c-8.7-2.6-16.1-7.9-24.4-11.4C584.1,673.2,577.9,671.3,572.8,667.2z"/>
	<path class="st18" d="M291.4,567.2c-1.1,6.1-5,7.4-10.8,7.2c-15.4-0.4-30.8-0.1-46.2-0.7c14.2-2.5,28.4-4.4,42.7-5.2
		C281.8,566.9,286.6,567.1,291.4,567.2z"/>
	<path class="st19" d="M292.8,755.7c-4.7-1-8.2-3.8-11.5-7.1c0.5,0,1.1-0.1,1.6-0.1c9.2-1.3,18.4-2.6,27.6-3.9
		C305.5,750.1,298.8,752.4,292.8,755.7z"/>
	<path class="st2" d="M438.9,805.7c0.5-2.2,2.2-3.3,3.9-4.3c3.3,1.4,4.5,4.7,7,8.6C445.5,808.3,442.2,807,438.9,805.7z"/>
	<path class="st15" d="M651.4,740c8.3-12.6,12.1-27.2,18.6-40.7c9-18.7,14.5-38.8,22.1-58.1c1.7,22.1-0.8,43.7-8.6,64.5
		c-11.7,31.1-31.2,57.4-51.5,83.2c-6.2,7.8-14.5,13.6-19.1,22.6c-0.5-0.4-1.1-0.8-1.6-1.1c11.5-20.1,23.1-40.2,34.6-60.3
		C646.8,746.2,647.6,742.3,651.4,740z"/>
	<path class="st15" d="M474.2,834.4c-12.8-2.2-25.4-5-39.3-9.4c56.4,1.7,110.9-1.8,167.4-3.7c-9.8,5.1-18.5,7.4-27.4,8.6
		c-19.5,2.6-39.1,4.8-58.6,7.2c-9.7,1.2-19.3-2.2-29-1.2C482.6,838.3,478.4,836.3,474.2,834.4z"/>
	<path class="st15" d="M426.7,822.5c-5.9,30-64.8,93.5-91.4,98.5C366.2,887.8,396.5,855.1,426.7,822.5z"/>
	<path class="st20" d="M474.2,834.4c4.5-1.1,8.7,0.9,13,1.4c8.4,12.1,15.3,25,19.4,39.1c1.9,6.4,3.2,13.1,4.1,19.9
		C498.3,874.8,485,855.4,474.2,834.4z"/>
	<path class="st21" d="M651.4,740c-0.9,3.9-3.6,6.8-5.6,10.1c-6.2-12.1-12.3-24.3-18.6-36.4c-4.6-8.7-9.6-17.2-12.9-26.6
		c0,0,0,0.1,0,0.1C629,703.2,644.1,718.8,651.4,740z"/>
	<path class="st4" d="M809.3,731.9c-5.1-16.1-10.8-150-5-170.4c0.9,12.9,1.8,25.8,2.9,38.7c1.8,20.7,4.6,41.3,5.3,62
		c0.8,22.1,4.4,44.4-1,66.5C811.2,729.8,811.2,731,809.3,731.9z"/>
	<path class="st0" d="M760,342.8c-4.4-2.5-8.8-5.1-13.2-7.6c0.1-0.2,0.1-0.5,0.2-0.7c4.3,0.9,8.7,1.8,13,2.7
		c8.9,3.7,17.8,7.2,26.1,12.2c18.4,11.1,30.4,34.9,27.4,57.8c-2.4-6.3-4.3-11.6-6.4-16.7C797.8,368.2,782.2,352.3,760,342.8z"/>
	<path class="st1" d="M586.3,241.4c15.2-0.4,30.6,0.4,44.7,6.1c17.9,7.2,32.9,18.8,42.8,35.8c3.3,5.7,1.5,8.8-5.2,9.5
		c-8.7,0.8-16.9-1.6-24.7-5.2c-22.5-10.4-46.1-16.6-70.5-20.3c-3.2-0.5-6.7-0.3-9.9,0.4c-10,2.1-18.4,0.6-25.7-7.4
		c-4.4-4.8-3.1-6.7,1.7-9.4c7.8-4.4,16.4-5.7,24.9-8C571.6,240.9,579,241.6,586.3,241.4z"/>
	<path class="st1" d="M693,261.6c28.4,4.2,55.4,9.1,80,22.8c11,6.1,21.3,13.1,30.7,21.5c2.4,2.1,4.7,4.4,2.9,7.9
		c-1.8,3.6-5.3,3.8-8.7,3.3c-25.1-4-49.6-11-74.4-16.8c-9.2-2.2-14.1-7.2-17.7-15.3C702.4,277.2,699.2,269.3,693,261.6z"/>
	<path class="st1" d="M647.2,317c10.4,1.9,21.6,1.7,32.3,4.5c1.1,0.3,2.3,0.8,3.3,1.3c2.3,1.3,4.8,2.7,4,5.9c-0.8,3-3.6,2.7-5.9,2.6
		c-9.3-0.4-18.4,1.1-27.4,3c-15.4,3.2-27.2,12.6-38.5,22.8c-3.9,3.5-7.4,7.4-11.3,10.8c-1.4,1.2-3.7,3-5.7,1.2
		c-1.8-1.6-2.4-3.7-1.5-6.4c2.7-8.2,7.6-15.2,12.4-22.1c3.1-4.4,7.2-8.1,10.7-12.3C626.6,319.8,636.3,317.7,647.2,317z"/>
	<path class="st15" d="M658.5,401.6c-4.6-1.5-9.5-2.1-13.6-5.5c-8.4-7-14.2-15.4-13.3-26.7c1-11.3,11.4-22.2,22.1-25.2
		c5.3-1.5,10.7-1.6,16.2-1.3c14,3,22.3,18,20.4,35C688.2,395.8,674.2,405.8,658.5,401.6z"/>
	<path class="st3" d="M658.5,401.6c10.5-0.1,20.9-1.8,26.3-11.9c7.6-14.4,4.5-40-14.9-46.7c24.2-1.5,40.2,21.4,34.5,42.2
		c-3.3,12-19.9,22.1-32.3,19.6C667.6,403.8,662.7,404.1,658.5,401.6z"/>
	<path class="st1" d="M291.1,181.5c-0.8,3.1,2.1,8.1,1.8,13.3c-0.1,1.9,0.3,3.9-0.2,5.7c-0.9,3-1.2,7.5-5,7.6
		c-3.4,0.2-3.4-4.1-4-6.7c-11-43.7-2.6-82.6,28.6-115.9c14-14.9,31.3-21.3,51.2-24.6c22.2-3.7,43.1-1.2,63.9,6.1
		c0.2,0.1,0.5,0.1,0.7,0.2c3.8,1.4,9.2,3.5,8.2,7.4c-1.2,4.7-6.7,2.7-10.5,1.8c-24-5.9-48-6.8-71.8,1c-15.2,5-26.5,14.8-36.4,27.1
		C300,126.4,293.4,152,291.1,181.5z"/>
	<path class="st1" d="M488.8,169.9c14.2,20.8,8,43-4.1,60.3c-0.7,0.9-1.6,1.8-2.7,2.3c-1.2,0.6-3.1,1.6-3.8,1.1
		c-1.8-1.1-0.6-2.9,0.1-4.4c3.7-7.9,7.1-15.9,8.9-24.5C489.7,193.2,491.4,181.7,488.8,169.9z"/>
	<path class="st1" d="M493.8,467.5c-18.7-13-35.2-26.7-49.4-43.5c-11.7-14-23.2-28-31.7-44.3c-3.8-7.4-4.7-15.3-5.4-23.3
		c-0.7-7.5,13.1-19.2,20-17.5c3.4,0.9,2.9,3.8,2.1,6.4c-3.3,10.7-3.1,21.4,0.1,32.1c4.4,14.9,13.3,26.9,23.1,38.5
		c13.7,16.2,27.5,32.5,41.1,48.7C493.9,465.1,493.8,465.8,493.8,467.5z"/>
	<path class="st1" d="M494.7,311c-13-16.2-24.1-31-32.8-47.5c-1.7-3.3-5.1-7.1-1.9-11c3.5-4.3,8.3-4.6,13.6-3c3.4,1,6.9,1.8,9.9,3.8
		c4.3,2.9,6.8,7.2,4.4,12.2c-3.8,8-2,15.7,0.2,23.5C490,295.6,492,302.3,494.7,311z"/>
	<path class="st4" d="M678.6,371.5c0,12.6-7.3,20-19.6,19.9c-9.6-0.1-18.8-9-19-18.4c-0.2-10.4,10.4-20.4,21.6-20.2
		C672.1,353.1,678.6,360.2,678.6,371.5z"/>
	<path class="st1" d="M644.3,374.5c-0.3-11,14.3-22,22.6-17.4c3.8,2.1,6.5,4,0.8,7.9c-4.6,3.1-8.9,7.1-11.4,12.4
		c-1.4,2.9-2.7,7.1-6.5,6.3C645.1,382.8,645.4,377.6,644.3,374.5z"/>
</g>
</svg>
