<?xml version="1.0" encoding="utf-8"?>
<!-- Generator: Adobe Illustrator 23.0.1, SVG Export Plug-In . SVG Version: 6.00 Build 0)  -->
<svg version="1.1" id="Layer_4" xmlns="http://www.w3.org/2000/svg" xmlns:xlink="http://www.w3.org/1999/xlink" x="0px" y="0px"
	 viewBox="0 0 1000 1000" style="enable-background:new 0 0 1000 1000;" xml:space="preserve">
<style type="text/css">
	.st0{fill:#053E4F;}
	.st1{fill:#5093C2;}
	.st2{fill:#141F25;}
	.st3{fill:#31444E;}
	.st4{fill:#032A36;}
	.st5{fill:#7F4000;}
	.st6{fill:#512800;}
	.st7{fill:#090F12;}
	.st8{fill:#FCFDFD;}
	.st9{fill:#132026;}
	.st10{fill:#5094C2;}
	.st11{fill:#502800;}
	.st12{fill:#575757;}
	.st13{fill:#373737;}
	.st14{fill:#7B929E;}
	.st15{fill:#502700;}
	.st16{fill:none;}
	.st17{fill:#363636;}
	.st18{fill:#EFF3F6;}
	.st19{fill:#9C9C9C;}
	.st20{fill:#585858;}
	.st21{fill:#0C4151;}
	.st22{fill:#949494;}
	.st23{fill:#9E9E9E;}
	.st24{fill:#FDFDFD;}
	.st25{fill:#7E94A0;}
	.st26{fill:#060401;}
	.st27{fill:#070304;}
	.st28{fill:#BE0506;}
	.st29{fill:#FCEFEF;}
	.st30{fill:#D86C00;}
	.st31{fill:#8A8A8A;}
</style>
<g>
	<path d="M914.8,331.5c-15.2-55-42.2-104.3-86.8-142c-37.3-31.6-78.4-45.7-127.7-29.9c-34,10.9-63.2,30.2-93.4,47.9
		c-28.2,16.6-54.9,36.4-74.9,61.3c-13.3,16.6-27,28.4-45.8,36.5c-9.8,4.2-19.7,14.8-28.3,13.6c-10.6-1.5-11.2-17.4-16.7-26.8
		c-15.6-26.6-47.3-46.5-67.4-41.8c-36.9,8.7-68.7,26.5-92.1,56.5c-8.7,11.1-19.2,16.2-31.2,21.8c-25.3,11.8-56.3,19.4-64.4,50.7
		c-4.1,15.9-13.2,21.5-25.2,26.8c-22.3,9.9-43.3,22.6-58.7,41.1c-45.6,55.1-52,119-37,186.6c7.5,33.8,23.9,62.8,46.2,89.5
		c38.2,45.8,86.3,70.5,145.6,73.4c39.1,2,71.6-17.3,104.1-35.1c26.7-14.7,52.6-31,78.8-46.5c3.3,29.1,5.9,56.4,9.4,83.6
		c7.2,56.6,49.6,75,96.6,57.3c15.4-5.8,30-12.9,44.3-20.5c31.7-17,49-46.4,64.5-77.6c10.4-20.9-1.1-38.3-7.3-55.4
		c-5-13.8,0-18.1,9.7-21.4c25.2-8.7,48.2-21.4,69.6-36.9c18.7-13.6,35.8-29.9,38.3-54.3c1.1-11.1,6.1-13.8,14.5-15.9
		c24.5-6,47.4-16.4,69.5-27.9c32.1-16.7,62.5-35.7,72.9-74.4C934.8,424.3,927.4,377.2,914.8,331.5z M679.1,619
		c-1.8,3.3-8.5,6.8-8.5,5.6c-0.8-17.4-22.7-18.2-25.6-33.5c-1.3-6.8,0.8-8.8,7.8-9.3c13.1-1,25.2,3,37,5.3
		C688.3,598.4,684.5,609,679.1,619z"/>
	<path class="st0" d="M597.3,539.4C537.1,480,508,409.6,523.7,324.6c5.8-31.6,26.1-54.2,51.1-73.4c40.9-31.4,84.1-58.2,132.6-76.4
		c38.5-14.4,71.1-3.6,101.4,20.5c-0.9,9.2-7.9,6.2-12.9,6c-9.5-0.4-19-1.5-28.2,1.9c-25.8,14.8-23.7,40.4-22.2,63.7
		c3.4,53.5,25.5,100.3,56.3,143.5c5.2,7.3,11.8,14,14,23.3c0.7,15.9-8.1,26.7-19.6,36c-14.3,11.6-31.2,18.4-48.1,25
		c-41.1,16-82.6,30.7-124.5,44.5C614.8,542,606.1,544.9,597.3,539.4z"/>
	<path class="st0" d="M175.6,754.1c-38-18.7-62.6-50.4-79.9-87.3c-32.2-68.9-31-136.7,13.3-201c16.1-23.4,41.2-35.1,64.8-48.6
		c9.6-5.5,10.5,2.8,13.5,7.9c-7.8,9.3-19.6,12.2-29.5,18.1c-26.4,15.7-43.9,37.8-53,66.9c-12.3,40.3-18.1,81-5,122.3
		c7.3,22.9,11.7,24.8,33.6,14c47.1-23.3,94.1-46.8,141-70.6c21.7-11,24.1-16.9,17.8-40.3c-4.2-15.7-8.3-31.4-8.1-47.8
		c0.2-13.9-5.3-19.3-19.2-14.6c-10,3.4-20.3,4.4-30.6,0.6c-6-2.2-12.9-3.8-11.8-12.7c31.3,4.4,55.5-14.7,84.3-25.4
		c-13.6,73.5,5.1,135.7,60.2,185.8c6.3,20.1-3.2,34.9-18.6,44.5c-47.9,29.9-95.6,60.2-146.9,84.2C193.4,754,185.1,758.4,175.6,754.1
		z"/>
	<path class="st1" d="M222.5,461c14,14.9,30.6,11.7,46.4,5.2c14.7-6.1,19.5-0.3,19.7,12.9c0.3,22.2,4.1,43.6,11.4,64.7
		c5.1,14.6,0.6,25.3-14.9,32.8c-51.9,25.1-103.2,51.6-154.8,77.4c-21.9,10.9-24.9,9.6-33.3-14.1c-15.9-44.6-12.1-88.6,4.7-132.1
		c4.3-6.8,10.6-11.1,17.8-14.2c29.8-13.2,57-32.2,88.8-40.9C212.9,455.4,217.7,458.2,222.5,461z"/>
	<path class="st2" d="M371.1,605.5c-19.3-17.5-35.2-37.2-42.8-62.6c46.3,1.1,84.3-23.4,124.6-40.6c25.1-10.7,49.4-23.3,74.7-33.6
		c18.4,33.9,34.9,69.2,69.9,90.1c1.5,9.2-5.8,12.6-11.8,15.7c-61.2,32.8-125.3,51.2-195.6,40C382.9,613.2,377,609.5,371.1,605.5z"/>
	<path class="st3" d="M527.6,468.6c-4.4,12.5-17.3,12.6-26.5,16.7c-44.9,20-87.9,44.2-135.2,58.6c-12.8,3.9-25.2,5.4-37.6-1
		c-10.9-24.9-13.6-50.9-11.4-77.7c4.4-19.4,18.4-28.8,36.2-33.8c20-5.6,39.8-11.3,58.1-21.3c23.2-12.6,40.9-29.4,45.4-56.8
		c1.1-6.6,4.9-11.9,8.2-17.4c14.4-7.3,28.8-14.5,46.3-23.4C499.7,368.1,506.1,419.3,527.6,468.6z"/>
	<path class="st4" d="M597.3,539.4c26.7-2.4,51-13.6,75.6-22.7c38-13.9,77.4-24.5,112.5-45.6c14.7-8.8,24.7-20.3,27.2-37.6
		c12.4-1,17.2,9.7,24.4,16.2c12.3,11.1,24.9,20.4,42.7,17.4c9.6-1.4,15.5-12.5,26.5-10.1c-3.3,29-21.1,48.3-44.6,62.2
		c-46.2,27.2-94.7,46.5-149.8,48.6c-39.1,1.5-75.9-0.3-109.3-22.8C600.4,543.7,599,541.3,597.3,539.4z"/>
	<path class="st4" d="M175.6,754.1c48.9-14.7,89.6-45.1,133.5-69.4c7.3-4.1,13.9-9.6,21.5-13c22.2-9.7,34.4-26.2,36.4-50.3
		c19.9,14.4,39.2,29.7,65.3,31.6c6,0.4,8.8,4.9,9.1,10.8c0.5,11.7,2,23.6-9.8,31.5c-23.6,15.9-46.6,32.6-70.7,47.5
		c-16.5,10.2-34.5,17.9-51.8,26.6c-32,16-64.7,16.5-97.5,3.4C199,767.9,186.1,763.1,175.6,754.1z"/>
	<path class="st2" d="M906.2,457c-7.9,5.2-15.7,10.4-23.6,15.5c-3.7-3.3-8.7-1.8-12.9-3.1c-19.3-5.6-22.4-11-12.6-28.4
		c10.9-19.4,7.5-39.3,3.1-58.7C850,337,831.2,295.2,804.4,257c-8.7-12.4-19.8-21.9-34.2-27.8c-19.9-8.1-20.5-13.5-4.6-30.2
		c13.6-9.7,29,1.3,43-3.7c57.4,48,87,110.6,97.9,183.6c3,20,3.7,39.9,3.5,59.9C910,445,912.2,451.9,906.2,457z"/>
	<path class="st5" d="M573.9,668.1c12.1,28.8,18.2,59.5,27,89.3c2.2,7.4,0.4,14.6-3.9,20.4c-13.1,17.6-24.2,37-42.4,50.3
		c-2.3,1.3,0.6-0.3-1.6,1.1c-12,7.2-25.7,13.8-36.6,1.3c-12.3-14,1.5-24.2,9.5-34.5c1.2-1.5,2.4-3.1,3.9-4.2
		c11.7-8.8,19.4-19.5,14.2-34.8c-5.7-16.8-20.1-18-35-17.4c-17.7,0.9-23.7-9.8-25.6-25.1c-5-40.7,7.5-60.7,51.6-81.8l0,0
		c15.7-4.8,23.2,6.1,30.1,16.7C568.8,655,570.6,662,573.9,668.1z"/>
	<path class="st6" d="M535,632.6c-4.5,3.6-8.4,8.3-13.5,10.6c-30.9,13.9-33.8,40.9-33.1,69.5c0.4,15.1,6.1,24.8,23.4,21.8
		c1.5,5.6-3.2,7.8-6,11c-15.6,17.9-9.8,38.5,13.1,45.9c4.2,1.4,8.9,1.6,12.1,5.2c-3.5,10.3-21.8,15.7-13.5,28.9
		c9.6,15.4,24.6,1.8,37.1,2.5c-11.9,16.9-28.9,20-47.8,17.4c-20.7-2.9-34.2-13.8-39-34.9c-11-48.3-11.5-97.4-11.1-146.6
		c0-4.6,0.3-10.4,6-10.5C488.8,652.8,510.3,637.3,535,632.6z"/>
	<path class="st7" d="M371.1,605.5c61.9,15.4,121,4,178.8-19.1c17.2-6.9,34.6-13.6,47.7-27.7c7.4,4.8,14.9,9.6,25.2,16.3
		c-27,12.3-51.1,24.4-76.2,34.2c-24.7,9.7-47.1,24.7-73.9,29.6C432.4,646.3,398.5,636.4,371.1,605.5z"/>
	<path class="st0" d="M312.3,398.6c-30.3-24.7-35.3-62.6-11.4-85.8c5,6.4,0.3,12.3-1.1,18.4c-2.3,10.4,0.1,15.9,11.7,11.1
		c11.4-4.7,22.3-10.4,33-16.5c7.7-4.4,9.1-11.7,10.3-19.7c0.8-5.5-1.1-14.3,9.6-13c3,3.7,4.1,8.1,3.8,12.6
		c-1.8,21.6,12.7,36.4,21.7,53.6c0.4,4-0.6,7.7-2.9,11C375.2,386.8,332.2,403.1,312.3,398.6z"/>
	<path class="st8" d="M208.2,452.6c-35.5,18.4-71.1,36.8-106.6,55.2c12.2-44.5,43.4-69.4,85.7-82.8
		C191.6,436.3,199.7,444.6,208.2,452.6z"/>
	<path class="st2" d="M277.8,382.5c1.5,2.1,3.9,4.1,4.2,6.3c1.4,11.1,20.2,14.7,14.2,26.7c-4.9,9.6-19.1,9.7-28.7,15
		c-8.5,4.6-18,7.2-27,11c-17.9,7.6-30.1,2-37.4-15.6c3.6-9.9,13.3-11.8,21.1-15.8C242,400.9,260.1,392.2,277.8,382.5z"/>
	<path class="st9" d="M414,285.3c16.5,20.6,31.6,41.6,19.6,70.2c-5.9,6-8.6,16.7-20.5,14c-5.4-1.6-10.8-3.2-12.9-9.3
		c-0.3-13.3,9.7-27-1.3-40c-5-9.5-14.7-13.8-22.3-20.5c-6.4-7.5,1.1-14.1,1.5-21.2c5.8-7.2,12.2-4.5,18.9-1.5
		C402.7,279.5,407.4,284.3,414,285.3z"/>
	<path class="st4" d="M413.8,367.1c10,1.9,11.4-10.7,19.7-11.6c-9.3,28.4-76.7,63.9-103.9,54.6c-6.8-2.3-13.7-4.5-17.5-11.4
		c23-3.6,44.2-12.3,64-24.4c5.6-3.4,10.3-7.7,10.5-15C397.7,355.5,403.7,368.3,413.8,367.1z"/>
	<path class="st2" d="M464.8,335.9c-3.4,62.9-49.2,83.3-99.7,96.9c-20.6,5.6-37,14.2-48.2,32.3c-1.9-8,2.3-15.2,3.2-22.8
		c1.5-12.9,8.5-15.5,20.8-17.1c40.3-5.3,78.7-16.1,101.9-54.1c2.7-4.3,6.1-9.4,5.9-14.1C448.2,344.9,455.1,339.7,464.8,335.9z"/>
	<path class="st10" d="M362.9,292.5c0.7,29.1-17.4,43-42,51.2c-8.5,2.9-17.1,14.6-25.9,5.2c-7.5-7.9-0.9-18.2,3.2-26.9
		c1.3-2.9,1.8-6.1,2.7-9.2c1.1-0.7,2.2-1,3.5-0.7c14.7-5.2,26.8-14.9,40.3-22.3c6.1-3.3,12.1-7.6,19.7-6.8c1.8,0.6,3.1,1.8,3.8,3.7
		C367.6,289.7,366,291.8,362.9,292.5z"/>
	<path class="st3" d="M277.8,382.5c-0.9,8.9-8.8,10.1-14.8,13.2c-19.9,10.2-39.9,20.1-59.9,30.1c-9.4-10.9-10.6-22.7-4-35.3
		c24.8-9.3,50.7-16.4,70.8-35.3C272.5,364.3,275.1,373.4,277.8,382.5z"/>
	<path class="st11" d="M593.9,699.2c-7.7-23.7-15.6-47.4-22.9-71.2c-2.5-8-0.9-15.2,8.3-19c9.1-3.8,11,3.4,14.5,8.5
		c5.2,7.4,10.5,14.6,15.3,22.2c6,9.4,10.4,18.5-5.3,23.5c-6.3,2-6.6,6.9-4,12.5c3.6,7.6,6.7,15.3,10,23
		C604.9,708.2,599.4,704.1,593.9,699.2z"/>
	<path class="st12" d="M726.6,582.1c15.7,10.1,2.2,21.2,1,31.8c-8.8,18.4-26,28.9-40.1,42.3c-22.1,10.4-44.2,20.9-66.4,31.3
		c-13-4.3-4.2-10.6-0.7-15c7.5-9.4,19.1-13.4,29.4-18.6c27.8-14.1,52.4-31.3,66.2-60.6C718.4,588.7,722.9,585.7,726.6,582.1z"/>
	<path class="st13" d="M726.6,582.1c-11.9,31.6-32.8,54.6-63.6,68.9c-11,5.2-22,11.1-31.8,18.3c-5.4,4-16.7,6.9-10.1,18.3
		c-12.1,5.9-9.6-6.4-12.5-10.8c-3.7-5.5,1.9-7.7,5.9-9.7c15-7.6,30.2-14.8,45-22.8c21.3-11.5,37.4-26.4,40.5-52.9
		C702,574.3,717.3,584.4,726.6,582.1z"/>
	<path class="st14" d="M269.9,355.2c-0.4,6.1-1.8,10.9-8.4,13.9c-18.4,8.2-36.5,17.1-54.6,25.9c-5.3,2.6-6.9-0.1-7.8-4.5
		c10.1-30.7,38.5-38.2,63.9-48.2C273.5,338.2,267.3,350.8,269.9,355.2z"/>
	<path class="st5" d="M593.9,699.2c5.3,0.4,10.8,4.1,16-0.6c15.6-6,24.9-2.9,23.2,16.1c-5.2,3.4-8.7-4.4-14.1-2.1
		c0.2,6.9,4.1,11.7,8.2,17.2c3.6-4.7,0.3-11.8,5.9-15.1c6.3,9.5,9.5,19.8,7.2,31.3c-7.9,9.6-13.6,23.6-30.5,15.5
		C604.5,740.7,599.2,720,593.9,699.2z"/>
	<path class="st15" d="M609.8,761.5c13.3,0.9,20.4-10.2,30.5-15.5c-11.5,37.3-33.3,65.6-73.7,83.7
		C582.4,804.5,606.8,789.5,609.8,761.5z"/>
	<path class="st16" d="M689.7,587c-1.4,11.4-5.3,22-10.6,32c-1.8,3.3-8.5,6.8-8.5,5.6c-0.8-17.4-22.7-18.2-25.6-33.5
		c-1.3-6.8,0.8-8.8,7.8-9.3C665.8,580.8,677.9,584.8,689.7,587z"/>
	<path class="st17" d="M652.2,628.8c-14.8,8.3-28.9,5.4-41.2-4.6c-7-5.7-19.9-15.8-12.7-22.1c7.9-6.9,18.9-20.6,34.4-12.2
		c-9.9,19.3-9.8,19.4,8.5,31.3C645,623.6,649.6,624.8,652.2,628.8z"/>
	<path class="st18" d="M366.1,285.2c-17,8.9-33.9,17.9-51.1,26.4c-2.9,1.4-6.9,8.1-10.6,0.4c16.8-16.6,35.1-30.6,59-35.3
		C369.5,277.9,370.2,280.8,366.1,285.2z"/>
	<path class="st11" d="M573.9,668.1C561,656.2,557,634.5,535,632.6c24.5-16.8,25.1-16.6,33.2,11.4
		C570.5,651.9,575,659.4,573.9,668.1z"/>
	<path class="st19" d="M735.1,621.4c1.5-12,3.1-22.7,3.9-33.6c0.6-7.6,4.6-10.8,11.3-9.6c8.3,1.5,4.3,8.6,3.1,12.4
		C749.9,601.7,747.7,614.2,735.1,621.4z"/>
	<path class="st20" d="M652.2,628.8c-7.9,1.4-13.3-3.6-19.1-7.5c-19.4-13.1-19.4-16.1-0.4-31.4c0.2,1.1,0.3,2.3,0.1,3.4
		c0.4,15.8,15,21.2,23,31.4C654.7,626,653.4,627.4,652.2,628.8z"/>
	<path class="st21" d="M366.1,285.2c0.1-3.1,2.1-6.9-2.7-8.4c8.8-14.6,21.3-7.6,31.9-4.3c6.9,2.1,12.5,8.4,18.7,12.8
		c-7.1,4.3-11.1-3-16.5-4.7c-6.5-2.1-12.6-6-18.7,0.6c-2.5,4.3-5.2,8.3-10.9,4L366.1,285.2z"/>
	<path class="st22" d="M687.6,656.3c-2-1.2-2.8-3.3-1-4.5c15.9-10.2,26.9-25.8,41-37.9C724.2,637.5,704.9,646,687.6,656.3z"/>
	<path class="st23" d="M655.9,624.7c-11.9-7.3-31.3-9.2-23-31.4C639.8,604.3,653.3,610.4,655.9,624.7z"/>
	<path class="st1" d="M702.3,214.3c-7.2,39.4,0.2,77.6,11.7,114.8c5,16.2,2.9,24.1-13,31.6c-44.5,21.1-88.2,44-132.2,66.1
		c-19.5,9.8-28.6,6.6-34.1-14.3c-9.9-37.8-8.4-75.2,7.7-111.4c40.7-21.1,79.3-45.7,118.7-68.9C674,224.7,685.2,212.4,702.3,214.3z"
		/>
	<path d="M765.7,199c-9.9,14.2-8.6,22.2,10.3,27.6c23.5,6.7,34.8,28.5,46.2,47.9c24.8,42.2,42.6,87.3,48,136.3
		c1.3,11.5-0.9,24.6-8.8,33c-11.6,12.4-5.7,16.7,5.9,21.3c5.3,2.1,10.3,5,15.4,7.5c-22.3,2.8-38.6-7.9-52.9-23.4
		c-5.3-5.7-11.4-10.5-17.2-15.8c-39.3-49.4-66.7-103.7-73.7-167.5C735.8,237.4,746.1,208.5,765.7,199z"/>
	<path class="st24" d="M702.3,214.3c-48.5,28.5-96.8,57.1-145.6,85c-3.4,1.9-8.2,12.9-14.2,1.8c22.1-44.5,65-64.9,104.4-89.1
		c16.4-10.1,34.6-17.2,52.1-25.6c4.6-2.2,10.1-6,14.3-1.6c4.1,4.4-2.6,7.5-4,11.4C707,202.4,704.6,208.3,702.3,214.3z"/>
	<path class="st25" d="M340,478.2c2.4-20,8.5-31.9,25.2-37.2c14.2-4.5,28.2-9.9,41.7-16c30-13.7,54.9-32,59.9-68.2
		c2.7-19.8,21.8-19.1,35.9-28.2c-0.9,24.2-9.9,45.9-3,68.3c1.9,6.3-3.5,9.1-8.4,11.3C442,431,392.7,453.8,340,478.2z"/>
	<path class="st26" d="M531,796.6c-17.1,1.8-31.1-3.2-37.3-20.3c-6.9-19.1,2.5-32,18.1-41.7c16.9-1.7,31,3.2,37.1,20.2
		C555.5,773.4,546.2,786.5,531,796.6z"/>
	<path class="st27" d="M368,285.1c3.6-1.3,7.3-2.7,10.9-4c4.5,5.3-6.4,10.7,0,16.1c-2.3,2.9-0.5,6.6-1.6,9.7
		c-1.8,13.9,3.9,25.2,12.6,35.2c4.6,5.3,10.2,10,12.4,17c3.8,2.6,7.7,5.3,11.5,7.9c-10.2,1.5-18.6-3.1-27-7.8
		c-19.9-18-25.8-41-23.9-66.8C364.6,290,366.3,287.6,368,285.1z"/>
	<path class="st28" d="M402.4,359.2c-25-18.2-33.6-35.5-27.5-55c9.7-0.6,10.9,8.5,15.8,13.5c8.6,8.8,5.9-3,8.7-4.8
		C414.4,327.4,410.4,343.2,402.4,359.2z"/>
	<path class="st29" d="M399.3,312.9c1.7,6.5,8.3,14.8-0.8,18.7c-8.2,3.5-8.8-6.9-12.3-11.8c-3.8-5.2-7.6-10.5-11.3-15.7
		c0.8-2.7-1.2-6.9,4-7C386.6,301.2,395.3,304,399.3,312.9z"/>
	<path class="st30" d="M633,714.6c-0.1,0.6,0,1.3-0.3,1.9c-3.1,7.6,8.5,21.2-1.5,21.8c-12.4,0.7-13.6-16.5-19.1-26.3
		c-2.2-3.9,1.9-5.5,4.6-6.9C627.2,699.8,627.2,712.2,633,714.6C633,714.7,633,714.6,633,714.6z"/>
	<path class="st12" d="M514.9,745.4c5.7-4.4,11.2-4.5,16.7,0.4c3.6,10.1,8.4,20,7.1,31.2c-2,5.1-5.5,8.2-11.3,8.1
		C509.5,774.1,507.1,766.7,514.9,745.4z"/>
	<path class="st17" d="M514.9,745.4c0.2,14.5-0.3,29.2,12.5,39.7c-12.9,4.6-21.5-0.8-25.7-12.6C497.1,759.8,500.8,749.7,514.9,745.4
		z"/>
	<path class="st31" d="M538.7,777c-4.3-10-9.8-19.7-7.1-31.2C542.4,754.3,547,764.2,538.7,777z"/>
</g>
</svg>
