<?xml version="1.0" encoding="utf-8"?>
<!-- Generator: Adobe Illustrator 23.0.1, SVG Export Plug-In . SVG Version: 6.00 Build 0)  -->
<svg version="1.1" id="Layer_4" xmlns="http://www.w3.org/2000/svg" xmlns:xlink="http://www.w3.org/1999/xlink" x="0px" y="0px"
	 viewBox="0 0 1000 1000" style="enable-background:new 0 0 1000 1000;" xml:space="preserve">
<style type="text/css">
	.st0{fill:#302725;}
	.st1{fill:#FEAA59;}
	.st2{fill:#76A5A2;}
	.st3{fill:#9B6734;}
	.st4{fill:#394852;}
	.st5{fill:#010101;}
	.st6{fill:#080B0B;}
	.st7{fill:#090D0D;}
</style>
<g>
	<path d="M336.5,517.2c-52-10.5-104.3-9.4-149.6-36.8c-14-8.4-28.9-15.6-42-25.3c-29-21.4-34.9-53.2-30.5-85.7
		c13.5-99.2,67-180.4,122.4-259.9c27.1-38.9,63.5-67.3,112.7-73.2c20.2-2.4,40.7,2.1,59.7,8.3C468.9,64.2,527,88,578.2,125.4
		c13,9.5,29.3,16.5,35.4,34.8c12.4-10.4,24.4-19.5,35.2-29.9c40.7-39,104.6-24.3,124.5,28.8c8.8,23.6-5.5,40.7-16.6,58.4
		c-7.8,12.4-17.5,23.7-31.6,34.6c53.5,16.8,97.3,46.3,141.4,75.7c38.6,25.7,74.2,54.3,101.9,91.8c28.4,38.5,22.1,70.4-4.6,106.4
		c-23.4,31.6-49.5,61.2-73.1,92.7c-31,41.3-54.1,88-86.1,128.6c-16.1,20.5-35.2,38.7-62,40.9c-17.2,1.4-35.8-2.1-52.2-7.8
		c-50.7-17.9-103.4-31-150.7-57.7c-43.5-24.5-89.1-46.5-115.9-93.5c-16.7,23-28.3,48.5-40.7,73.5c-26,52.8-46.8,107.7-64.2,163.9
		c-4.8,15.5-9.8,31-14.1,46.7c-7.6,27.8-48.2,39.3-67.2,27.9c-9.1-5.4-18.4-7.3-29-7.9c-43.3-2.6-76.1-52.7-62.1-93.5
		c19.9-58.1,53.4-109.2,84-161.7c25-42.9,51.9-84.6,78.2-126.7C316,539.6,324.2,528.2,336.5,517.2z"/>
	<path class="st0" d="M710.7,269.7c17.2-1.7,31.9,6.8,46.1,13.8c63.8,31.3,123.3,69.2,174.4,119.2c11.4,11.2,21,24.8,29.3,38.7
		c15.4,25.7,9.5,51.1-8.7,72.3c-57.6,67.1-106.9,140.1-155.6,213.6c-7.8,11.7-19,21.3-29.4,31.1c-19.1,17.9-42.3,11.9-62.9,6.2
		c-52.5-14.5-104.4-31.2-152.2-58.2c-6.7-3.8-13.6-7.3-20.4-10.9c-13.6-36.4-8.2-72.9,2.9-108.2c5-15.8,1.8-23.6-10.8-32
		c-19.4-12.9-38.2-26.6-55.7-42c-5-8.7-0.9-16.5,3.1-23.9c15.8-29.1,31.4-58.3,49.5-86.1c11.6-17.8,19-18.4,35.8-4.6
		c10.5,8.7,21.1,17.2,31,26.6c8.6,8.2,15.2,6.9,21.8-3.3c12.5-19,23.9-38.6,36.2-57.8c24.6-38.5,41.5-48.5,102.1-37.4
		c45.1,8.2,87,26,118.7,49.6c-20-12-43.1-31.5-67.8-48.6c-23-15.9-46.1-31.4-71.5-43.3C720.1,281.3,711.2,279.8,710.7,269.7z"/>
	<path class="st0" d="M519.6,355.5c-26.1,40.2-50.3,81.4-70.5,125c-8.4,2.2-13.2-4.5-18.7-8.3c-42.2-29.3-84.2-59-126.2-88.7
		c-16-11.3-17.6-10.3-29.9,4.4c-12.3,14.7-12.6,33.7-20.5,49.8c-18-8.8-19.8-16.8-9.4-35.1c20.3-35.5,44.5-68.3,69.2-100.8
		c25.9-34.1,49.5-69.7,69.5-107.6c10.7-20.3,26.7-31.1,50.1-30.2c50.2,1.9,95.8,20.6,141.8,37.9c1.2,0.5,3.1,1.1,3.3,1.9
		c4.9,22.1,21.8,33.9,39,45.4c2.3,1.5,3.6,4.3,1.4,6.6c-1.7,1.8-4.3,3.3-6.6,3.6c-5.6,0.7-9.4-3.5-13.7-6.2
		c-43-26.4-83.8-56.7-131.7-74.6c-2.9-1.1-5.9-1.8-10.4,0.1c29.9,17.8,60,35.3,89.7,53.5c14.9,9.1,28.9,19.7,43.5,29.2
		c6.6,4.3,8.9,7.8,0.3,12.1c-6.3-1.9-12-4.8-17.2-8.8c-36-28.1-75.8-50.3-115.1-73.2c-26-15.1-38.3-12-55.5,13
		c-5.9,8.6-11.3,17.5-16.6,26.4c-13,21.8-13,21.7,9.4,35.4c37.7,23.1,74.1,48.3,109.9,74.2C510.5,344.6,516.8,348.4,519.6,355.5z"/>
	<path class="st0" d="M460,86.7c51.7,15.7,97.3,42.1,136.2,79.5c3.3,3.2,10.5,11.4-2.6,13.6c-49.3-34.8-102.1-58.5-164.3-58.1
		c-25.9,0.1-45.8,9.5-61.6,28c-30.7,36-64.5,69.4-91.2,109c-31,46-58,94-81.5,144.2c-4.8,10.2-7.8,20.7-3.9,30.4
		c-1.5-9.3,0.7-19.5,5.7-29.4c46.4-92.4,102.4-177.9,176.3-251.1c17.2-17.1,36.3-24.3,60.7-25.4c60.4-2.8,111.5,20,160,52.3
		c-1.2,13.8-9.3,10.8-18,7.9c-36.7-12.5-72.8-27-111.4-33.5c-12.1-2-24.7-3.5-36.5-4.1c-22.4-1-41.4,9.3-52.8,30.2
		c-32.2,58.8-73.4,111.5-112.7,165.5c-14.8,20.4-28.1,42-36.8,66.1c-6.2,17.1-1.3,28.8,14.8,36.8c23.8,11.8,46.4,25.4,68.1,46
		c-44.7-5.6-84.5-16.1-121-37.3c-19.9-21.8-17.4-45.8-6.6-70.4c9.9-22.5,20.5-44.9,34.6-65.1c9-13,5.7-20.4-6.3-28.3
		c-10.7-7-22.7-12.6-30.9-23.1c-2.7-17.1,9.6-28.8,15.5-42.7c6.6-15.5,17.5-28.7,26.5-42.9c6.5-10.2,14.2-12,24.4-5.1
		c10.2,6.9,20.8,13.2,30.7,20.5c9.2,6.7,16.4,5.9,23.1-3.1c13.1-17.7,29.9-32.3,43.3-49.8c13.6-17.7,31.6-30.5,49-43.9
		c1.7-0.9,3.4-1.5,5.2-2c27.9-1.4,55.8-3.1,84.6,5.2C472.6,99.4,462,97.4,460,86.7z"/>
	<path class="st1" d="M242.2,925.8c-17.5-8.8-1.2-23.1-4.8-34.1c-1.3,0.3-2.3,0.1-2.6,0.5c-9.6,14-16.1,33.1-39.8,20.1
		c-30.5-16.7-42.6-39.6-32.3-66c14.2-36.3,34-70,52.7-104.1c30.6-55.7,62.7-110.6,97.5-163.8c7.4-5.5,12.1,0.5,16.9,4.4
		c40.4,32.6,40.3,34.9,13.3,80.2c-33.6,56.5-52.9,118.6-69.5,181.7c-5.6,21.4-10.3,43-16.4,64.3C255,916.6,254,926.4,242.2,925.8z"
		/>
	<path class="st2" d="M710.7,269.7c57.9,28.9,110,66.5,160.8,106c5.6,4.3,14.1,6.8,14.8,18c-41-26.8-82.5-48.8-129-59.9
		c-14.7-3.5-29.3-5.4-44.3-6.4c-22.8-1.5-40,7.1-53.7,25.4c-18.5,24.5-34.1,50.8-49,77.4c-7.1,12.8-12.1,11.9-21.3,3.3
		c-13.7-12.9-28.1-25.2-42.2-37.7c-4.5-4-9.5-9-14.4-1.5c-24.2,37.4-49.5,74.3-63.4,117.3c2.8,11.5-3.1,21.7-6,32.1
		c-6.7,24.6-12.1,49.2-9.9,74.9c0.4,4.6-0.3,9.1-4.2,12.4c-12.8-11.5-14.8-26.3-13-42.4c7.1-62.8,36-117.3,65.8-171.3
		c19.4-35.3,43-67.9,67-100.2C606.6,266.2,652.3,250.5,710.7,269.7z"/>
	<path class="st2" d="M519.6,355.5c-47.9-32-95.9-64.1-143.9-96.1c-5.3-3.5-9.1-6.7-4.7-13.8c11.7-18.7,20.8-39.1,36-55.4
		c12.1-13,25.7-17.8,43.4-7.8c48.4,27.5,97.6,53.6,139.5,91C558.8,294.3,543,328.2,519.6,355.5z"/>
	<path class="st2" d="M390.2,105.8c-6,14.6-22.2,18.2-31.5,29.7c-19.6,24.2-41.3,46.6-61.4,70.3c-6.3,7.5-11,9.6-18.7,2.6
		c-4.3-3.9-9.6-6.7-14.4-9.9c-33-22.1-33.2-22.2-55.1,12c-11.9,18.6-21.9,38.2-29.3,59c-0.1,14.1-7.8,25.8-12.3,38.5
		c-11.9,34.2-24.8,68.2-17.2,105.6c0.9,4.2,2.9,10.7-5.4,11.5c-21.2-29.6-13.7-61.6-4.6-91.8c24.3-80.5,65.6-152.2,117.1-218.5
		c60.4-77.7,119.4-70,188.7-34.9c4.6,2.3,9.2,4.5,13.8,6.7c11.5,7.9,23,15.7,34.5,23.6c-33.6-4.5-66.6-6.9-99.8-4.8
		c-10.3-13.6-23.1-24.1-37.3-29.5C367.7,84.7,384.5,89.1,390.2,105.8z"/>
	<path class="st3" d="M242.2,925.8c9.7-4.9,9.4-14.9,11.5-23.4c20.1-79.6,39-159.5,79.5-232.1c2.5-4.5,5.3-8.9,7.7-13.5
		c6.2-11.8,23.9-25.1,18.4-33.9c-11.1-17.6-25.3-35.5-46.3-44.5c9.4-13.9,19.4-27.5,28-41.9c6.7-11.2,12.8-9.9,21.2-2.5
		c18,15.9,35.4,32.3,51.5,50.1c9.6,10.6,2.7,19.3-2.1,28.2c-43.4,81.3-82.6,164.5-110.4,252.5c-4.3,13.6-7.8,27.5-13.5,40.5
		C279.4,924.6,261.3,932,242.2,925.8z"/>
	<path class="st4" d="M253.8,437.6c-0.4-10.4,0.4-20.6,4.2-30.5c5.2-13.6,12.6-27,23.7-34.9c15.9-11.3,24.2,7.8,34.5,14.8
		c44.8,30.5,88.7,62.2,132.9,93.5c-8.7,28.2-22.3,54.7-28.1,87C369.9,514.9,312.5,475.4,253.8,437.6z"/>
	<path class="st4" d="M449.1,630.9c-5.5-41.8,3.6-81.2,20.1-119.3c25.5,13.8,46.8,33.6,70.6,49.9c4.9,3.4,7.4,7.8,4.3,14.9
		c-16,36.9-20.1,75.1-10,114.4c0.3,1.2-1.8,3.1-2.7,4.7C500.4,678.4,469.2,661.7,449.1,630.9z"/>
	<path class="st1" d="M644.7,246.4c-9.4,0.1-15-7.2-21.6-11.9C598.5,217,597.8,208,617,185c14.2-17,30.6-31.5,48.2-44.8
		c30.3-22.9,56.2-20.1,81,8.9c2.9,3.4,5.2,7.3,7.7,11c4.3,7.6-0.9,9.2-6.5,9.5c-17.7,1-29.6,11.6-41.3,23.3
		C687,212.3,669.1,233.1,644.7,246.4z"/>
	<path class="st4" d="M145,425.2c-3.3-30.5-2.8-60.6,7.3-90c7.8-22.5,14.5-45.4,27.5-65.7c13.4,8.9,26.5,18.1,40.3,26.4
		c10.3,6.2,9.5,12.2,3.6,21.6c-17.9,28.2-34,57.3-44.7,89.5c-6.6,19.8,6.1,33.5,8.5,50.2C172.1,448.1,156.4,439.5,145,425.2z"/>
	<path class="st3" d="M644.7,246.4c25-24.1,49.6-48.6,75.1-72.2c7.1-6.6,17-9.7,26.9-8.7c5.4,0.5,6.9-0.7,7.3-5.3
		c3.3,2.7,4.8,6.3,3.4,10.3c-2.4,6.6-4.1,13.8-8.1,19.4c-13.1,18.4-23.9,40.5-41.5,52.9C690.7,254.9,665.9,243.3,644.7,246.4z"/>
	<path class="st5" d="M545.3,687.4c-10.9-18.9-9.9-38.3-4.5-57.9c24.3-88.9,62.3-171.8,112.2-249.1c27.8-43,48.4-50.1,98.4-39.5
		c49.9,10.6,93.5,34.5,134.7,63.1c18.4,12.8,39.5,22.8,51.6,44.3c-21.2-13.4-41.7-28-63.6-40c-38-20.9-76.2-41.7-119.4-50.7
		c-43-9-72.9,5.5-96.1,43.6c-39.8,65.6-75.6,132.9-99.6,206.2C550.3,633.7,545.1,659.9,545.3,687.4z"/>
	<path class="st5" d="M593.8,179.6c-28.9-12.9-57.2-26.8-86.8-38.2c-31.7-12.2-63.9-9-96.1-7.6c-10.6,0.4-20,8.3-28.2,16.3
		c-61.8,60.9-113.4,129.5-154.6,205.9c-6.8,12.6-13.6,25.1-20.7,37.4c-10.2,17.7-16.7,36-10.6,56.9c-11.4-13.3-16.6-27.7-8.8-44.3
		C221.8,334.4,259.5,265,312.3,205c21.8-24.7,42.8-50.1,67.1-72.7c23.8-22.1,52.9-17.2,79.6-14.3c48.3,5.2,92.4,23.8,130.2,55.4
		c1.9,1.6,3,4.2,4.5,6.3C593.7,179.8,593.8,179.6,593.8,179.6z"/>
	<path class="st6" d="M390.2,105.8C374,93.4,357.8,81,341.6,68.6c21.3,7.3,47.1,8.3,53.2,36.9C393.3,105.6,391.8,105.7,390.2,105.8z
		"/>
	<path class="st7" d="M622.9,277.6c40,5.8,55.1,16.5,61.2,43.9C664.9,304.4,645.5,293.2,622.9,277.6z"/>
</g>
</svg>
