<?xml version="1.0" encoding="utf-8"?>
<!-- Generator: Adobe Illustrator 23.0.1, SVG Export Plug-In . SVG Version: 6.00 Build 0)  -->
<svg version="1.1" id="Layer_4" xmlns="http://www.w3.org/2000/svg" xmlns:xlink="http://www.w3.org/1999/xlink" x="0px" y="0px"
	 viewBox="0 0 1000 1000" style="enable-background:new 0 0 1000 1000;" xml:space="preserve">
<style type="text/css">
	.st0{fill:#030202;}
	.st1{fill:#EA3110;}
	.st2{fill:#73190A;}
	.st3{fill:#EB3110;}
	.st4{fill:#795100;}
	.st5{fill:#FBD69A;}
	.st6{fill:#D83619;}
	.st7{fill:#9F7E38;}
	.st8{fill:#2F3400;}
	.st9{fill:#F9D499;}
	.st10{fill:#7C6026;}
	.st11{fill:#511105;}
	.st12{fill:#531206;}
	.st13{fill:#6F180A;}
	.st14{fill:#521106;}
	.st15{fill:#9F7E39;}
	.st16{fill:#FAE8E5;}
	.st17{fill:#9D7C39;}
	.st18{fill:#DF3516;}
	.st19{fill:#F9F6F6;}
	.st20{fill:#F9F1F0;}
	.st21{fill:#200905;}
	.st22{fill:#561205;}
	.st23{fill:#9B1203;}
	.st24{fill:#901A08;}
	.st25{fill:#A11C07;}
	.st26{fill:#D65F4A;}
	.st27{fill:#F2B3A3;}
	.st28{fill:#551205;}
</style>
<g>
	<path class="st0" d="M808.1,174.2c16.2,10.6,13.6,18.9-2.6,24.5c-12.4,4.3-10,14.1-7.5,22.3c1.6,5.1,3.5,10.1,2.3,14.8
		c-2.3,9.2-4.8,20.4-13.1,24.2c-7.7,3.6-12-7.5-17.4-12.5c-11-10.1-22.6-17.9-39.5-17.5c30.8,29.6,62.9,55,71.1,99.8
		c7.9,42.8,2,80.4-25.4,114.5c-39.4,49-81.1,96.3-116.6,148.3c-29.8,43.7-54.5,90.4-78.1,137.8c-22.7,45.5-47,90-65.7,137.5
		c-21.4,54.3-64.8,80.2-123.2,81c-73.1,0.9-135.9-24.7-185.6-77.4c-34.5-36.6-48-80.5-39.5-132.9c13.7-84.8,46.6-162.7,79.1-240.9
		c23.1-55.6,44.9-112,74.4-164.7c24.3-43.3,43.8-89.8,79.7-126c29.7-30,66.9-44.1,107.2-45.9c38.6-1.8,78.2-6.4,116.2,9.8
		c11.8,5,26.1,1.3,32.7-14c4.5-10.5,13.2-19.1,22.2-23.7c16.4-8.4,23.8-22.7,33.2-36.6c5.6-8.3,14.1-23.9,24.9-2.6
		c2.6,5.1,6.7,4.5,11.1,0.5c9.7-8.7,22-11.8,34.3-14.7c12.5-3,17.4,1.1,12.3,13.9c-1.8,4.7-3.9,9.3-5.1,14.2
		c-2.6,10.6-0.2,18.8,12,21.1c1.9,0.4,4,0.3,5.6,1.1c10.3,5.1,25.9,9.7,26.2,19.7C833.6,158.6,820.3,167.4,808.1,174.2z"/>
	<path class="st1" d="M187.5,781.3c-7.1-19.4-2.6-38.5,1.9-57.5c5.1-21.5,8.7-43.3,18-63.6c4.1-5.1,9-9.6,13.4-14.4
		c4.9-5,7.7-11.1,9.8-17.7c35.4-65.3,64.1-133.8,94.8-201.3c14.4-31.5,33-60.5,49.1-91c2.3-4.1,5.5-7.4,8.1-11.2
		c2-3.3,3.7-6.8,5.8-10c11.4-18.1,24.8-18.7,35-0.4c11.8,21.3,29.6,36.6,45.3,53.1c-6.3-11.6-22.5-17.6-20.3-35.1
		c3.9-2.5,7.2-0.4,10.5,1.6c24.4,29.2,55.9,48.8,89.2,66.1c5.1,2.7,10.3,5.5,12.9,11.1c2.8,14.4-5.4,25.1-12.9,35.5
		c-6.6,9.2-16.2,6.4-24.9,2.5C482,430.7,444,407.4,410.5,377c-5.2-6.3-10.5-12.5-12.6-15.3c2.7,3.3,7.7,10.6,13.8,17
		c29.7,27.7,63.7,48.9,99.7,67.3c8.6,4.4,18.3,7.1,25.1,14.7c0.8,1.8,1.1,3.7,1.1,5.7c-5.5,16.1-15.3,30.1-23,45
		c-52.4,101.3-92.1,207.7-129.8,315c-2.6,7.3-4.2,15.1-9.9,20.9c-1.5,1.4-3.1,2.5-5,3.2c-3.8,1.3-7.8,1.7-11.5,0.5
		c-44.1-13.8-87.7-28.5-122.3-61.2c-7.1-8.8-17-15.3-19.6-23.3c-3.2-5.3-3.9-0.6-2.3-2.7c5.3,9.4,12,17.6,20.2,24.5
		c25,27.8,56.3,45.7,91.3,57.6c8.6,3,17.6,4.8,26.1,8.1c18.4,7.2,20.9,12,15.4,29.1c-5.1,16.2-11.7,19.3-29.6,16
		c-29.8-5.5-57.3-17.3-83.8-31.1C218.4,849.8,197.9,819.2,187.5,781.3z"/>
	<path class="st2" d="M410.3,374.4c34.1,25.9,70.6,47.8,108.5,67.8c19.2,10.1,28.2,5.1,34.4-13.6c2-6.1,6.5-11.3,5.2-18.3
		c10.9-4.4,20.2,1.9,29.8,5.1c43.4,14.5,87.4,16.9,132.1,7.6c1.3-0.3,1.8-1.1,1.3-2.8c3.8-8.3,13-7.1,19.3-11c4.4-2.7,9.6-5,9.3-11
		c-0.4-7.3-6.3-8.8-12.1-10c-5.5-1.1-11.7-0.2-15.7-5.6c22.7-33.1,6-80.1-28-107.2c-9.5-7.6-10.3-13.2-2.6-21.4c5-9,12-8.7,19.5-3.8
		c41,26.4,84.4,87.1,66.2,148.6c-2,16.4-12.7,27.7-22.7,39.6C704,498.8,652.8,559.1,613.3,628.1c-41.7,73-81.3,147.1-112.2,225.4
		c-23.4,59.2-66.9,72-119.4,71.2c-52.1-0.8-101.2-17.9-141.9-51.8c-28.2-23.5-49.8-52.6-52.3-91.7C215.3,853,274.7,881,344.3,896
		c14.2,3.1,15.6-5.6,18.1-13.8c2.6-8.6,7.7-18.1-7.9-22.2c-34.6-9.1-67.9-21.6-97-43.4c-10.4-7.8-20.4-15.9-27.3-27.2
		c-0.3-6.7,2.7-7.1,7.6-4c38.5,33.7,84.1,52.1,133.5,62.6c6.6,11.4,16.6,15.1,29.5,14.1c14.1-1.1,28.5,1.7,44.7-4.2
		c-27.3,3.7-51.9,5.5-74-10c19.6-56,40.3-111.6,61.8-166.9c29-74.4,61.2-147.2,101.8-216c2.6-2.5,5.9-3.1,9-1.9
		c35.1,14.1,72.3,19,97.3,22.6c-23.4-3.8-58.4-11.1-91.9-24.6c-5.1-2.1-10.1-1.7-15,0.8c-46.3-20.3-90.4-44-124.5-82.7
		C408.2,377.4,408.3,375.9,410.3,374.4z"/>
	<path class="st3" d="M722.4,382.5c12.8,2.2,32.7-6.3,34.3,14.7c1.4,17.7-17.6,16.8-29.7,21.1c-1.7,0.6-3.2,2-4.9,3
		c-24.3,12.6-51,10.8-76,7.4c-64.9-8.8-122.5-35.1-170.9-80.1c-17.8-16.5-29.8-37.3-43.6-56.8c-10.2-13.7-4.8-30.7-10.4-43.9
		c-0.4,8.6,6.5,18.5,2,28.9c-8.4-3.6-8.4-3.6-17-19.2c-11,3.9-9.9,22-24.7,21.4c-2.8-1.3-4.8-3-3.1-6.5
		c23.5-50.4,58.2-86.2,117.6-89.2c1.2,1.9,1.1,3.7-0.2,5.5c-7.7,5.5-17.1,5.8-29.9,9.7c41.6-10.8,79.4-15.4,117.8-7.9
		c9.8,1.9,21.1,0.4,28.2,10.1c-5.2,22.1-16.9,25.5-37.6,16.7c-28-11.9-57.8-6.6-86.2,0.2c-31.9,7.7-42.7,32.3-28.8,60.7
		c31.4,64.4,146.2,136,228.7,117.2C700.4,392.6,710.8,386.4,722.4,382.5z"/>
	<path class="st4" d="M683.6,355.5c8.3,24.9,2.3,35.7-23.3,34.6c-63.3-2.6-114.8-30.6-156.5-77.6c10.5-11.3,20.9-10.3,31.4,0
		c16.1,29.5,30.6,36.8,62.5,31.4C627.4,339.9,656.3,341.3,683.6,355.5z"/>
	<path class="st5" d="M683.2,227.1c-25.8-10.1-31.6-22.3-19.4-45.2c9.2-17.2,13.7-41.2,43.1-33.9c5,1.2,3.6-5.6,4.4-8.9
		c2.5-10,5-20,12.3-29.1c4,6,7.8,11.5,11.9,17.6c8.7-7.8,16.4-15.4,24.9-22c3.3-2.5,8.4-10.8,12.6-0.2
		c-6.8,11.8-11.7,24.6-19.8,35.7c-4.9,6.7-8.3,15.7-19.6,9.8c-6-3.1-6.2,1.8-6.9,5.5c-1.1,5.7-2.9,11-2.2,17.2
		C728.1,203.7,713.7,221.9,683.2,227.1z"/>
	<path class="st6" d="M378.4,272.5c1.9,1.8,3.9,3.7,5.8,5.5c2.9,13.6-8.8,22.5-11.1,34.4c-1,1.6-2.3,3.1-3.7,4.5
		c-21.5,30.6-33.2,66-48.9,99.4c-29.4,62.3-56.8,125.5-79.6,190.6c-1.9,5.5-3.8,11.1-7.2,15.9c-4.2,8.6-7.9,17.3-11.1,26.3
		c-3.7,5.7-7.7,10.7-15.2,11.1c9.3-40.4,25.1-78.6,40.2-116.9c35.3-89.4,72.3-178,122.6-260.4C372.6,279.1,374.2,274.9,378.4,272.5z
		"/>
	<path class="st7" d="M683.2,227.1c7.8-4.6,16-8.5,23.2-13.9c10.1-7.7,16.5-17.6,16.2-31.3c-0.1-7-9.3-12-2.2-21
		c4-5.1,2.7-14.5,3.8-22.3c9,0.2,9.3,11,18,11.8c10.2-14.4,16.8-32.3,30.8-45c-3.3,16.6-10.8,34.9,16,39.2c12.2,6.9,9.8,13.1-0.8,19
		c-6.8,3.8-16,5-10.7,17.7c2.6,6.4-4.4,15.3-10.3,16.7c-14.6,3.5-24.6,17.5-40.6,16.6C712.5,220.1,702,238.1,683.2,227.1z"/>
	<path class="st8" d="M535.2,312.5c-10.5-3.7-20.9-4.4-31.4,0c-13.5-8-19-22.6-28.1-34.3c-7.1-9.1,2-14,4.8-20.5l-0.2,0.2
		c20.3-8.1,41.5-8.9,62.9-7.9c6.6,0.3,15.5,0.7,16.7,6.8c1.3,6.6,0.9,15.5-6.3,20.9C542,286.4,536.3,298.2,535.2,312.5z"/>
	<path class="st8" d="M683.6,355.5c-28.6-3.9-57.2-7.8-85.9-11.6c18.5-10,23.7-32.3,41.2-43.7c7.8-5.1,11.2-8.1,18.1,1.3
		C669.1,318.1,684,332.9,683.6,355.5z"/>
	<path class="st5" d="M600.7,234.4c6.4,0.1,4.9,5.2,5.7,8.5c2.9,11.5,7.9,21.5,16.8,30c3.6,3.5,15,3.7,9.4,13.3
		c-5.3,9-12.5,17-24,17.3c-13.1,0.3-38.2-19.6-38.6-31.5c-0.6-17.8,10.9-28.1,25.7-35.3C597.4,235.9,599.2,235.1,600.7,234.4z"/>
	<path class="st9" d="M636.3,266.6c-17.6-9.2-24.6-24.7-22.6-43.3c1.9-18.1,12.7-30.4,31.1-34.9c1.4,18,3.4,35.2,16.8,49.7
		c6,6.4,2.4,16-2.7,23.4C652.9,270.3,644.6,268.5,636.3,266.6z"/>
	<path class="st10" d="M726.6,214.7c8.3-5.9,21.7-4.6,24.4-18.8c0.9-4.5,5.1,1.6,7.6,1.2c9.7-1.6,18.6-12.8,15.4-16.7
		c-12.7-15.4,2.5-15.2,8.9-18.7c7.9-4.3,15.7-7.1,6.2-17.1c23.8,4.7,22.4,3.9,10.4,23.8c-6.6,10.9-11,22.2-20.4,32.1
		c-6.6,7,6.6,20.9,3.1,34.2C764,225.3,748.3,210.8,726.6,214.7z"/>
	<path class="st11" d="M480.5,257.7c-4.3,0.7-10.6,3.5-12.5,1.6c-4.8-4.6,0.5-9.9,3.3-13.4c16.1-20.2,39.2-23.2,62.6-23
		c14,0.1,28,3.5,41.9,8.9c-5.7,12.1-13.3,14.9-26.5,12.4c-24.2-4.6-48.5-3.8-69,13.6C480.3,257.9,480.5,257.7,480.5,257.7z"/>
	<path class="st12" d="M777.6,398.7c5.7-56-15.1-100.9-57-137.1c-8.4-7.2-16.3-15.8-28.8-7.6c1.2-11.8,8.5-13.8,17.9-10.1
		c45.3,17.7,86.3,96.5,74.5,143.4C783.1,391.3,779.8,394.9,777.6,398.7z"/>
	<path class="st13" d="M707.5,312.1c21.3,31.3,22.1,60.4-13.6,69.5c-0.9-13.9-1.9-27.6-2.8-41.3
		C687.4,325.5,690.8,314.9,707.5,312.1z"/>
	<path class="st14" d="M707.5,312.1c-9.3,7.2-15.8,16-16.4,28.2c-5.8-9.3-11.4-18.8-17.6-27.7c-5.9-8.4-12.5-16.3-18.7-24.5
		C679.4,270.7,693.9,277.4,707.5,312.1z"/>
	<path class="st15" d="M583.9,332.3c-23.1,0.3-36.5-12.4-33.9-30.7c0.8-5.4,2.5-9.9,7.6-12.6c6.5-3.5,9.4,2,12.8,5.4
		c5.5,5.5,11.6,10,18.4,13.9c6,3.5,17.9,2.1,15.9,13.2C602.5,333.3,591.1,330.9,583.9,332.3z"/>
	<path class="st16" d="M611.9,200.7c-52.5-11.1-104.9-10.7-157.3,2.5c11.9-11.9,27.9-10.6,41.5-16.2c39.9-9.6,79-8.1,117.2,7.8
		C612.8,196.8,612.4,198.7,611.9,200.7z"/>
	<path class="st17" d="M636.3,266.6c23.9-3.3,29.5-13.9,16.7-33c-9.4-14-8.5-29.6-8.2-45.2c6.8,3.1,3.4,9.1,3.3,13.6
		c-0.4,14,6.8,22.8,17.2,30.8c6.4,4.9,22,3.5,15.2,19.3c-5.9,13.8-23,23.3-36.1,19.5C641.4,270.7,638.9,268.3,636.3,266.6z"/>
	<path class="st18" d="M613.3,194.8c-38.4-12.7-77.7-11.8-117.2-7.8c0-1.2-0.1-2.5-0.1-3.7c34.8-6.3,69.4-7.3,103.7,2.8
		C604.8,187.6,612,187,613.3,194.8z"/>
	<path class="st19" d="M230.1,624.6c28.4-88.1,67.5-171.7,106.6-255.3c8.9-19,14-40.3,29.4-56c9.9,4.8,10.9,14.2,12.2,23.4
		c-15.6,36.9-39.2,69.4-55.2,106.3C299,498.8,275,554.6,246.5,608.4c-4.2,7.9-8.6,15.8-13,23.7C227.1,632,228.5,628.4,230.1,624.6z"
		/>
	<path class="st20" d="M372,312.3c-5.4-14.8,9.4-22.4,12.3-34.2c7.1-10.6,14.1-21.2,22.1-33.2c10.8,9.7,8.1,23.9,15.1,33.3
		c11.2,17,21.2,34.7,28.1,54c4.9,18.4,23.9,27.4,32.5,47.1C455,364.4,437,345,422.8,321.8c-15-24.6-18.7-24.6-34,0.6
		c-1,1.6-1.7,3.5-2.5,5.2C374.6,328.9,374.3,319.6,372,312.3z"/>
	<path class="st21" d="M433.6,287.8c17.5,21.1,30.5,45.8,52.5,63.5c69.2,56,145.6,86.3,236.1,69.9c0.7,4.7,0.7,4.8-1.9,5.6
		c-40.9,12-81.4,7.8-121.7-3c-13.6-3.7-26.8-9.1-40.1-13.7c-38.1-19.2-76-38.6-102.2-74.2c-8.8-9.9-15.2-21.4-21.8-32.7
		C431.5,298.3,428.7,293.3,433.6,287.8z"/>
	<path class="st22" d="M534.5,461.8c1.5-8.8,7.5-10.4,14.4-7.3c38.7,17.1,79.9,24.4,121.1,31.5c0.9,0.2,1.5,1.8,4.8,6.2
		c-50-1.6-95.8-9.5-139.7-27.3C534.8,463.9,534.6,462.9,534.5,461.8z"/>
	<path class="st23" d="M433.6,287.8c-0.8,20,19.3,30.2,22.6,48.2c-2.2-1.3-4.4-2.6-6.6-3.9c-13.6-15.8-23.7-33.4-28.1-54
		c-1.1-11.9-2.3-23.8-3.9-40.5C429.7,255.7,426.2,273.5,433.6,287.8z"/>
	<path class="st24" d="M237.7,785.3c-3.3,0-6,0.9-7.6,4c-13.6-8-16.9-22.5-20.8-36.9C218.8,763.4,228.3,774.4,237.7,785.3z"/>
	<path class="st25" d="M410.3,374.4c-0.1,1.6-0.2,3.1-0.3,4.7c-10.7-6.8-17.2-16.6-22.3-33.4C397.8,357.2,407.6,362.8,410.3,374.4z"
		/>
	<path class="st26" d="M372,312.3c6.9,3.1,5,14.5,14.3,15.4c-2.6,3-5.3,6-7.9,9.1c-7.1-6.2-8-15.7-12.2-23.4
		C368.1,312.9,370,312.6,372,312.3z"/>
	<path class="st27" d="M230.1,624.6c1.1,2.5,2.3,5,3.4,7.5c-2.4,6.5-4.1,13.3-10.8,17C219.3,639.2,225.5,632.1,230.1,624.6z"/>
	<path class="st22" d="M518.8,785.3c-12.6,28.2-23.4,57.3-38.3,84.3c-17,30.9-46.4,43.3-82.2,43.2c65.7-19.2,80.8-84,116.1-130.4
		C515.9,783.3,517.3,784.3,518.8,785.3z"/>
	<path class="st28" d="M371.4,847.8c28.3,6.4,56.6,12.7,86.2,3.2c-7.3,11.5-16.8,16.1-28.7,16.2c-13,0-26-0.6-38.9,0.2
		c-14.4,0.8-20.7-5-18.7-19.4C371.3,847.9,371.4,847.8,371.4,847.8z"/>
</g>
</svg>
