<?xml version="1.0" encoding="utf-8"?>
<!-- Generator: Adobe Illustrator 23.0.1, SVG Export Plug-In . SVG Version: 6.00 Build 0)  -->
<svg version="1.1" id="Layer_4" xmlns="http://www.w3.org/2000/svg" xmlns:xlink="http://www.w3.org/1999/xlink" x="0px" y="0px"
	 viewBox="0 0 1000 1000" style="enable-background:new 0 0 1000 1000;" xml:space="preserve">
<style type="text/css">
	.st0{fill:#004500;}
	.st1{fill:#FD0000;}
	.st2{fill:#00C400;}
	.st3{fill:#00C300;}
	.st4{fill:#28FE28;}
	.st5{fill:#007F00;}
	.st6{fill:#017F00;}
	.st7{fill:#28FC28;}
	.st8{fill:#008000;}
	.st9{fill:#344F00;}
	.st10{fill:#1F3A00;}
	.st11{fill:#3B4800;}
	.st12{fill:#004600;}
	.st13{fill:#02C000;}
	.st14{fill:#014800;}
	.st15{fill:#27F428;}
	.st16{fill:#28FD28;}
	.st17{fill:#FA0000;}
	.st18{fill:#F70100;}
	.st19{fill:#F20C0C;}
	.st20{fill:#F50201;}
	.st21{fill:#02C200;}
	.st22{fill:#FEFBFB;}
	.st23{fill:#FECCCC;}
	.st24{fill:#FEF7F7;}
</style>
<g>
	<path class="st0" d="M112.3,474.3C85.5,442,73.7,403.6,74.7,362.1c0.8-35.8,8-71.1,34.5-97.7c27.4-27.4,61-45,99.9-49
		c12.5-1.3,15.3-6.1,17.8-16.8c5.8-24.8,18.4-46.5,33.7-66.8c21.2-28.3,52.1-36.9,84.1-37.4c61.2-0.9,121.7,4.1,177.7,33.8
		c15.1,8,25.7,20.5,39.2,29.9c9.4,6.5,15.6,9.2,25.4,2c67.7-49.5,142.8-45.5,213.4-15.8c63,26.6,108,78.1,124.3,147.6
		c5.1,21.5-1.7,45.6-19.2,60.8c-9.3,8-6,9.8-0.5,15c28.3,27.3,48.4,59.9,64.7,95.5c31.8,69.4,8.1,146.7-60,181.3
		c-14.5,7.4-28.7,15.6-44.8,19.4c-9.3,2.2-7.7,4.3-3.5,12.3c44.2,83.8,0,174.6-74.8,199.3c-42.3,14-80.9,6.1-114.9-22.7
		c-5.1-4.4-7.9-6.6-14.2-1c-42.1,37.8-91.7,55.6-148.2,58.7c-40.4,2.2-80.8,10.1-121.1,6.5c-40.5-3.6-82-1.6-120.8-21.5
		c-31.2-16-51.5-52.3-43-89.5c-36.3,7.9-66.6-4.3-93-28.5c-41.9-38.3-75.8-82.9-98.5-134.7c-13.3-30.3-18.6-63-9.7-96.6
		c6.2-23.6,26.3-33.7,43.4-46.1C80.2,490.4,95.9,483.5,112.3,474.3z"/>
	<path class="st1" d="M247.5,784.6c-1.1-2.7-3-4.2-5.9-4.3c-10.6,0.7-15.5-8.4-22.8-13.4c-8.2-6.3-16.3-12.6-21.8-21.8
		c-5.1-8.5-5-15.9,2.9-22.4c7.6-6.3,15.8-9.3,24.6-2.2c10.5,8.6,19.3,19.2,31.2,26.1c9.1,6.7,18.9,12,30,14.5
		c27.8,7.3,55.3,7.4,82.6-2.1c22.8-9.1,43.5-21,54.8-44.4c31.3-36.8,44-77.1,23.2-123.6c-1.8-4.1-3.7-8.3-4.1-12.9
		c2.9-16.3,13.8-22.1,29-22.4c15,7,28.9,18.7,47.2,10.3c25.6-13,25.6-13,45.7,4.1c3.3,12.1-7.9,19.5-9.8,29.9c-6,17.9-8,36-4,54.5
		c3.6,11.6,5.5,23.8,11,34.8c7.6,17.4,19.1,32.2,31.8,46.2c13.1,10.2,27.5,18.1,43.6,22.7c46.5,12,90.7,10.9,129.4-22.4
		c4.2-3,7.9-6.6,11.8-10c9.4-8.1,18.5-8.2,27.2,1.1c8.6,9.2,3,16.3-3.3,23.4c-30.1,34.5-66.9,58.3-111.3,69.9
		c-8.2,2.1-16.2,4.7-24.8,4.1c-16.5,3-33,1.3-49.5,1.4c-36.3-1.2-67.7-17-98.5-34.1c-10.9-6.1-19.7-6.3-30.4,1
		c-54.9,37.7-115.3,39.3-177.6,24.8c-14.5-3.4-28.7-8.6-41.9-15.8C259.9,797,251.5,793.3,247.5,784.6z"/>
	<path class="st1" d="M847.4,647.1c-3.1,10.9-6.2,21.8-9.3,32.7c2.6,12-0.2,20.7-14,22.5c-7.6-1.2-13.8-4.5-17.9-11.3
		c-4.9-17.9,9.3-32.4,8.7-49.6c0.9-38-13.1-69.9-39.3-96.8c-2.8-4.4-6.3-8.2-10.8-11c-3.5-2.6-6.6-5.5-9.8-8.3
		c-5.9-5.5-13.3-8.3-20.9-10.6c-17.2-6.5-34.9-10-53.4-9.4c-41-3.1-72.4,15.5-99.4,43.9c-19.5,19.6-19.5,19.6-40,1.6
		c0.2-24.1-6-44.1-30.5-55.2c-8.6-3.9-8-14-7-22.6c1.1-9.7,8.5-11.9,16.4-13.7c33.8-7.7,62.4-24.2,85.4-50.2
		c6.5-7.4,12.4-14.8,15.4-24.3c9.9-21.6,16.9-43.7,12.4-68c-3.1-21.1-5.7-42.3-18.2-60.5c-15.9-32.5-44.7-47.2-77.6-56
		c-23.4-7.8-25.8-12-18.8-33.1c6.7-4.2,13.1-4.8,19.2,1c18.8,5.3,37.7,10.7,56.5,16c9.5-3.5,14.9,4.7,22.1,7.6
		c22.4,12.2,38.8,31,55.2,49.9c25.9,32.9,40.4,70.7,47.6,111.6c1,11,1.4,22.1-0.3,33c-1.5,8.8-7.6,18.6,4.9,24.6
		c12.3,5.1,24.2,11,34.6,19.4c5.1,4.7,11.1,8.4,16.5,12.7c5.8,5.4,11.2,11.1,17,16.5c7.2,7.4,14.9,14.3,21.2,22.4
		c31.2,43.6,49.9,90.7,41.9,145.5C852.8,634,853.5,642,847.4,647.1z"/>
	<path class="st2" d="M537.9,168.1c-6.3,0.3-12.5,0.5-18.8,0.8c-6.2-0.1-10.9-3.9-15.9-6.8c-52.5-30.3-109.5-33.8-168.1-29.1
		c-21.4,1.7-36.1,12.1-47.2,30c-10.3,16.6-20.5,33.1-25.7,56.4c32.1-19.4,65.6-24.4,99.4-28c9.7-1,19.4-3.1,28.5,2.6
		c2.4,14.9-10.6,15.7-19,20.7c-27,0.8-51.6,10.9-76.5,19.7c-33.9,10.5-55,32.6-62.7,67.7c-7.7,35.4-3.5,69.5,9.2,103
		c-4.3-14.1,0.8-28.2-0.2-42.2c-2.5-42.5,9.5-79.6,40-110c16.6-16.5,37.1-26.2,59.1-32.8c5.4-1.6,14.1-7.1,17.5,4.2
		c-5.1,12.3-11.8,23.1-24.9,28.4c-25.6,7.2-43.5,24.7-52.8,48.1c-15.1,38.3-23.3,78.3-12.7,119.8c0.2,8-6.6,10.4-11.7,14
		c-23.5,17.3-44.7,36.7-61,61.2c-3.7,5.6-6.5,13.1-15.4,12.9c-16.3-10.7-33-9.6-49.9-1.4c-11.1,5.4-21.8,11.5-32,18.5
		C59.8,551.1,47.6,587.4,65,629.1c19.9,47.6,50.5,87.7,92,118.6c18.8,14,39.9,25,65.2,17.5c6.4,5.1,12.9,10.1,19.3,15.2
		c-21.7,15.3-44.8,12.7-67.6,3.9c-23.6-9.2-41.8-26.3-57.6-45.5C81.7,696.4,49,653.3,37.7,597.4c-6.7-33,2.8-57.2,29.4-75.9
		c18.1-12.7,36.9-24.5,57.3-33.1c11.1-4.7,13.6-9.7,5.8-20c-8.6-11.4-17.2-23.2-23.4-35.9c-23.4-48.1-22.2-129.1,29-167.8
		c25.5-19.2,54.1-31.2,85.8-33.3c13.7-0.9,17.3-7.4,20.1-18.4c6.5-25.3,16.4-48.7,33.3-69.5c14.2-17.4,31.1-27.7,52.7-29.1
		c65.4-4,130-1.6,189.4,31.1c9,5,17.6,11.2,24.9,18.5C546.7,168.5,539.2,166.4,537.9,168.1z"/>
	<path class="st3" d="M614.5,194.2c-6.7-3.4-13.4-6.7-20-10.1c6.7-20.6,26.4-27.1,42.7-31.5c73.7-20,143.5-16.5,203.1,40.2
		c28.7,27.3,54.7,55.7,65.4,94.6c7.6,27.7-0.1,46.6-25,60.6c-13,7.3-11.9,12.4-1.8,20.3c32.5,25.4,55.9,58.3,72.6,95.2
		c38,83.8,1.1,150.7-78.6,180.5c-7.6,2.8-15.9,12.9-25.6,3c-0.2-6.9,0.2-13.6,3.9-19.7c20.4-9.8,41.3-18.3,58.9-33.6
		c32.2-27.7,45.1-62.9,30.9-102.6c-20.5-57.2-58.3-100.5-113-128.2c-20.7-10.5-43.5-11.8-68.6-14.8c26.1,27.4,44.7,56.3,51.6,91.3
		c2.8,14.3,6.5,29.3-2.7,43.2c-6.3-7.2-12.6-14.4-18.9-21.6c-9.2-16.4-10.5-35.8-20.7-52c-8.8-13.9-18.3-26.6-31.2-36.6
		c-5.7-4-10.8-8.8-15.8-13.6c-2.5-2.2-4.3-5.1-6.8-7.4c-9.3-39.8-22.7-77.8-48.8-110.2c8.3-4.9,15.3-0.2,21.8,3.6
		c21.9,12.9,43,27,59.3,47c14,17.2,29.5,30.1,54.4,28c14.8-1.3,29.1,5.8,43.3,10.7c22.1,7.6,33.9-1.6,32.6-25
		c-1-18.2-10.1-33.6-18.5-48.9c-42.4-77.3-127.5-105.2-199.2-85.2C643,176.2,630.6,188.8,614.5,194.2z"/>
	<path class="st3" d="M247.5,784.6c6.4,4.1,12.8,8.1,19.2,12.2c-12,28.8-0.4,56.5,28.6,68.3c9.7,3.9,20,6.2,30.3,7.1
		c64.2,5.4,128.3,4.9,192.3-4.2c36.2-5.2,68.1-21.3,99-39.4c3.7-2.2-5.9-3-4.2-7.4c18.4-0.3,36.8-0.5,55.3-0.8c2.4,2.3,2,4.7,0.2,7
		c-17.8,4.8-27.7,20.7-42.3,30c-36.4,23.1-76,35.2-118.8,38.4c-68.4,5.2-137.5,11.7-204.8-3.1C248.4,881,225.9,840.9,247.5,784.6z"
		/>
	<path class="st3" d="M668.1,827.4c-0.1-2.3-0.1-4.7-0.2-7c8.1-1.6,16.3-3.2,24.4-4.9c16,10.2,32.9,17.5,52.3,19.4
		c33.6,3.4,58.5-10.2,75.3-38.1c17.7-29.5,29.4-60.2,4.8-92.4c-0.8-1-0.8-2.4-0.8-3.7c10.3-3.2,8.8-14.3,14.1-20.8
		c28.1,25.2,33.4,81.3,8.1,122.3c-28.2,45.8-63.2,73.7-124.3,61C699.4,858.4,682.4,844.8,668.1,827.4z"/>
	<path class="st4" d="M222.2,765.1c-5.7,12.4-16.2,8.2-25.3,6.6c-31.7-5.8-54.9-26.7-75.7-48.4c-23.8-24.7-43.3-53.2-58-84.7
		c-22.1-47.1-10.8-89.8,32.7-117.9c19.4-12.6,38.5-27.3,63.9-24.8c9,0.9,19,0.6,19.6,13.6c3.2,10.5-3,18.8-6.7,27.6
		c-18.9,43.9-17,88.2-3.1,132.9c0.8,2.5,1.7,5,3,7.2c2.8,4.7,4.1,12.7,11.9,9.6c6.2-2.4,3.6-8.8,2.5-13.8c-1.8-8.1-6-16.1-0.5-24.3
		c5.3-3,8.6,0.7,11.7,3.9c19.3,20.2,38.3,40.7,53.3,64.4c6.4,10.1,12.6,21.6,0.7,32.8c-11.3-5.2-21.1-13.2-28.2-22.8
		c-8.2-11.1-13.8-6.8-22.1-1.3c-10.8,7.2-4.2,12.7,0.7,18.4C208.9,751.3,215.7,758.1,222.2,765.1z"/>
	<path class="st3" d="M766.9,530.9c5.1,1,8.3,4.2,10.2,8.9c-9.8,9-11,18.2-5.2,30.9c12.3,26.9,2.9,53.1-7.2,79.9
		c20.2,3,37.1-5.9,54.7-10.5c3.2,18.4-11.9,33.3-10,51.5c-2.7,1.2-5.1,0.3-6.9-1.7c-8.6-9.4-14.1-7.2-17,4.5
		c-3.6,15.1-10,29.1-15.3,43.6c-40.3,37.4-86.7,40-136.4,23.9c6.3-19.4,24.1-28,35.3-39.8c-24,8.7-48.3,28.7-79.2,15.9
		c-15.2-11.7-24.6-27.4-31.4-45c-2.4-5.2-2.5-9.6,4.3-11.3c2,0,4,0.3,5.5,1.6c18.1,16.3,18,16.3,38.1,1.8c8.3-6,15.7-13.7,26.6-15.3
		c61.4-9.2,87.9-69.8,55.6-127.1c-2.7-11.1-1.1-24.2-14-30.7c-2.3-6.2,1.2-9.4,6.2-11.9c20.2-1.9,39.1,2.1,57,11.6
		c11.4,8.5,1.6,13.3-3.7,17.7c-7.4,6.3-12.4,11.3-8,22.7c19.1,50.4,11.1,80.7-27,116.3c16.2-10.6,30.4-27,37.9-48.8
		c5.6-16.4,8-32.7,2.1-49.6c-2.1-6.1-4.8-12.2-2.6-18.9C744.4,541.1,755,535,766.9,530.9z"/>
	<path class="st3" d="M252.2,749.8c4.5-13.7-0.2-24.6-8.4-36c-16.8-23.1-36.2-43.7-55.7-64.2c-13.1-25.6-3.2-71.6,19.7-91.7
		c8.7,1.7,6.1,8.4,5.8,13.7c-3.2,65.2,36.6,110.1,102,114.6c8.4,0.6,16.8,0.3,28.6,3.1c-51.8-48.9-83.4-105.2-95.2-172.2
		c25.2-26.4,77.1-33.5,114.5-15.8c9.1,10.5,2.8,15.2-7,18.6c-5.8,1.1-11.6,0.8-17.4,0.2c-20.2-2-23.7,0.9-21.1,21.6
		c4.6,35.6,13.7,69.8,35,99.7c11,18.3,28.8,30.9,40.9,48.3c5.1,15.9,22.3,18.9,31.9,30.1c-12.3,22.3-31.6,35.6-55.3,43.3
		c-10.6-1.5-20.5-5.4-28.1-12.5c-13.6-12.6-26.2-10.9-40-0.5c-6.7,5.1-14,9.5-20.4,15.1C270.5,763.2,260.6,757.9,252.2,749.8z"/>
	<path class="st4" d="M612.7,821.1c4.6,1.7,9.3,3.4,14.9,5.4c-44.3,32.8-93.6,49.3-146.8,51.8c-48.4,2.3-97,5.9-145.4,0.5
		c-25.2-2.8-50.3-5.4-68.2-27.5c-9.2-11.4-11.4-24.6-12.5-38c-0.7-7.6,1.4-16,12.1-16.6c53.8,23.7,109.1,30.2,166.7,15.6
		c20-5.1,37.4-13.9,53.4-26.4c9.3-7.3,17.4-10.1,29.1-2C544.9,804,577.4,816.6,612.7,821.1z"/>
	<path class="st5" d="M625.5,385.9c-19.2,43-55.1,64.4-98.4,76.9c-7.4,2.1-18.9-2.3-20.3,12.4c-1.2,13,5.4,17.6,15.5,22.7
		c20.3,10.3,24.9,23.5,20.7,52.5c-6.4,8.5-15.8,13.3-23.9,19.7c-18.8,9.7-33.6,3.1-46.5-11.3c-16.3-10.2-17.4-36.4-2.1-52.7
		c4.4-4.8,10-8.1,15.3-11.6c8.8-5.9,12.3-12.9,5.1-22.3c-11.1-5.8-23.7-6.4-35.2-10.4c-24.8-8.7-47.1-20.9-58.6-46.5
		c1.3-5.4,4.7-8.8,10.1-10.3c5.6,0.1,9.7,3.4,13.6,6.7c7.9,6.8,16,6.7,25.2,2.6c39.4-17.6,78.8-19.7,117.9,1
		c10.6,5.6,18.4,2.3,25.5-6.3c7.8-9.5,14-20.3,22-29.7C619,375.4,622.1,381,625.5,385.9z"/>
	<path class="st4" d="M770.2,738c-8.7-7.2,1.2-12.1,2.5-18c1.8-8.1,5.3-15.8,7.6-23.8c2.1-7.1,0.6-16.9,9.5-19.4
		c11.6-3.3,13.1,9.6,19.5,14.8c4.9,3,9.7,6.1,14.6,9.1c19.2,13.1,25.2,33,15.8,64.1c-21.2,69.9-70,92-132.8,65
		c-6.5-2.8-13.2-6-14.5-14.2c41-14.4,78-35.1,106.3-69.1c4.2-5.1,11.5-8.7,3-17.1c-7.2-7.1-12.2-8.1-19.1-0.5
		C779.1,732.5,774.3,735,770.2,738z"/>
	<path class="st6" d="M425.9,719.7c-16.1-4.9-31.3-10.8-35-30.1c2-0.2,3.8,0.2,5.7,0.8c8.2,2.5,15.9,13.8,24.4,6.4
		c11-9.5,14.4-24.2,16.2-38.4c0.8-6.6-5.1-9.9-9.7-13.5c-35.9-27.6-61-61.4-61.5-108.8c-0.1-7.8-5-11.3-10.5-14.8
		c-1.2-1.5-1.8-3.2-1.7-5.2c6.1-1.7,15.7-0.8,8.7-12c7.2-5.8,13.5-0.8,19.6,2.1c25.1,11.7,45.1,29.1,58.9,53.4
		c4.9,5.4,0.1,13.2,4.7,18.8C468.5,613.8,471.6,672.8,425.9,719.7z"/>
	<path class="st6" d="M566.9,684.3c-6.8-1-8,3.4-8.4,8.6c-8.1-10.6-10-23.3-11.6-36c-5.4-11.5,1.3-21.1,4.9-31.2
		c4-11.2,9.4-22,10.8-29.2c0.2,3-2.5,11.6-9.6,12.3c-6.2,0.6-4.1-7.2-2.3-11.8c0.3-10,9.1-16.3,11.3-25.5
		c3.3-9.5,10.9-16.2,16.3-24.4c26.6-32.1,59.5-50.6,102.5-47.1c-2.7,3.5-5.3,7.1-4,11.9c-1,1.6-2.2,3.8-3.9,4
		c-23.7,2.6-36.1,16.7-40.5,39.2c-22.9,1.7-28.6,8.2-26.6,30.1c0.9,9.5,0.8,19.1,1.7,28.6c-3.8,14-14.5,22.9-26,29.4
		c-13.1,7.4-20.1,15-13.3,30.2C569.8,676.8,569.6,680.9,566.9,684.3z"/>
	<path class="st7" d="M282.1,765.1c10.6-25,39-34.2,60.1-19.9c9.3,6.3,19,11.9,28.4,17.9C341.3,775.5,311.8,774.6,282.1,765.1z"/>
	<path class="st8" d="M589.8,737.9c30.2,3.3,56.1-10.1,85.6-24.2c-10.1,22.9-28.2,33.5-41.7,48.1
		C616.9,757.9,601.7,751.1,589.8,737.9z"/>
	<path class="st9" d="M445.6,578.4c-6-3.9-5.2-11.1-8-16.5c12.5-10.3,20.2-22.4,19.4-39.8c-0.5-9.2,4.9-18.3,13-22.8
		c14-7.8,21.3-19.6,25.5-34.3c7.8,14.1,10.5,27-8.5,34.6c-21.6,8.7-30.8,37.8-14.5,59.1C459.3,559.4,449.1,564.3,445.6,578.4z"/>
	<path class="st10" d="M550.7,596.9c0.4,3.2,0.8,6.3,1.6,12c4.5-7.8,7.9-13.7,13.9-24c-1.7,21-5.1,36.4-13.3,50
		c-4.3,7.2-5.5,14.2-6,22C539.9,636.3,541.9,616.4,550.7,596.9z"/>
	<path class="st11" d="M578.3,547c-0.9,11.1-10.2,16.7-16.3,24.4c-13.9-12.5-28.2-13.2-42.9-1.2c4.9-10.3,15.3-13.9,23.9-19.7
		C555.8,559.9,567.9,562.7,578.3,547z"/>
	<path class="st4" d="M808.3,482.7c4.2-55.9-18-100.4-63.1-138.9c46.1-0.6,85.1,7.4,118.2,34.2c30.5,24.6,55.2,54,73.7,89.2
		c37.1,70.9-0.9,126-60.1,153.4c-7.7,3.6-15.1,12.8-25.8,6.8C856.1,573.5,839.4,526,808.3,482.7z"/>
	<path class="st4" d="M614.5,194.2c28.6-31.2,65.8-37.1,105-33.4c75.7,7,126.2,48.9,155.8,117.6c2.8,6.5,5.7,13.3,6.7,20.2
		c2,13.7,2.5,28.1-10,37.6c-10.9,8.3-21.9,2.1-33-2c-11.5-4.2-24.1-10.3-35.4-8.9c-31.9,4.1-47.4-16.1-65.8-35.9
		C718,268,695,249.8,666,241.4C650.1,224.2,633.8,207.5,614.5,194.2z"/>
	<path class="st3" d="M625.5,385.9c-4.5-2.4-8.9-4.8-13.4-7.3c-7.8,2.4-13.9-1.9-20-5.5c-61.1-36.5-121.9-34.4-182.7,0.6
		c-5.1,2.9-9.9,6.3-16.1,6.5c-2.2-0.1-3.7-1.2-4.5-3.2c-1.2-4.9,1-8.9,3.9-12.5c42.8-52.2,122-68.6,180.2-36.6
		c-43.9-30.7-139.3-24.9-175.6,29.1c-5.2,7.8-8.2,22.3-23.6,19c-16.9-25.3-14.4-53.5-8.6-80.6c10.4-49,39.5-83.8,86.5-102.6
		c9-3.6,18.5-6.3,28.5-5c20.9,0.4,40.7,9.4,61.8,8.4c34.3,8,61.1,26.1,77.5,58c-4.7,2.7-8.9,0.6-12.9-1.5
		c-41.7-21.9-86.1-22.1-131.1-16c-33,4.5-59.2,19.7-76.9,55c61.1-24.2,119.2-26,176.9-5.1c22.3,8.1,44,19.1,58.1,38.2
		c0.1-2.2-0.8-6.7,3.4-9.8C643.1,340.4,638.4,363.8,625.5,385.9z"/>
	<path class="st4" d="M542,196.3c-20.8,6.6-40.5-1-60.6-4.4c-5.3-20.3-6.3-20.8-26.4-16.4c-16,3.5-30.9,10.1-45.8,16.5
		c-5.2,2.2-9.9,6.9-16.3,3.5c-47.9,1.3-95.3,4.5-139.6,36.7c8.5-39.9,23.6-71.8,51-95.5c13.6-11.8,34.3-11.7,52.1-11.2
		c49.8,1.3,99.9,2.5,144.5,29.5c6.6,4,14,6.9,18.1,13.9C514.2,188.5,526.4,193.8,542,196.3z"/>
	<path class="st4" d="M636.9,315.2c-0.3,4.5-0.6,9-1.1,15.4c-8.6-6.9-15.6-13.5-23.5-18.5c-65.7-41.9-134.7-44-206.2-17
		c-4.4,1.7-9.2,7.8-13.7,2.7c-4.1-4.6,0.9-9.9,3.3-14.1c16.7-29.7,42.6-47.1,75.9-51.8c43.2-6.1,86.3-7,127.4,11.5
		c7.1,3.2,13.7,7.4,20.5,11.1C633,272.4,636.9,293.2,636.9,315.2z"/>
	<path class="st4" d="M819.3,640.1c-9.7,14.1-26.1,12-39.9,15.8c-7.2,2-15.1,1.4-24.6,2.1c7.6-15.4,13.3-30.5,16.6-46.7
		c3.4-16.4,1-31.6-6.6-44.8c-9.9-17-2.5-22.7,12.2-26.7C807.4,566.4,820,600.5,819.3,640.1z"/>
	<path class="st12" d="M738.6,551c16.2,60.1,0.3,103.2-46.6,126c-2.7,1.3-5.8,2-14.1,4.8c15-15.5,27.9-25.1,37.2-38.6
		c20.1-29.5,24.3-59.7,6.4-90.7c-7.1-12.2-3.3-17.7,6.2-24.8c4.9-3.6,17.6-4.2,10.2-16.2c8.4,1.4,15.5,5,20.6,12.1
		C755.4,535.3,739.5,537.7,738.6,551z"/>
	<path class="st13" d="M714.8,351.5c3.2,0.1,6.1,0.7,7.9,3.9c15.2,17.4,29.7,35.6,37,57.8c2,6.1,11.3,16-3.3,20.5
		c-11.6-6.6-23.2-13.2-34.8-19.8c-5.8-6.5-5.6-15.4-9.2-22.8C716.9,378.1,713.4,364.7,714.8,351.5z"/>
	<path class="st8" d="M737.9,367.7c31.8,23.1,48.3,54.5,51.5,93.4c-6.8-3.4-11.7-8.8-15.9-14.9c-9.6-25-18.4-50.3-35.9-71.4
		C735.8,372.6,736.4,370,737.9,367.7z"/>
	<path class="st14" d="M737.9,367.7c9,17.5,23.8,31.3,30.4,50.5c3.2,9.3,5.9,18.2,5.2,27.9c-6.9-2.5-12.7-6.6-17.1-12.4
		c5.7-9.8,0.4-18.2-3.9-26.2c-9.5-17.6-19.8-34.8-29.8-52.2C727.7,359.5,732.8,363.6,737.9,367.7z"/>
	<path class="st6" d="M738.6,551c-7.8-19.5,13.1-18.3,19.7-27.4c3.9,1.2,6.8,3.6,8.6,7.3C760.1,541.3,748.8,545.4,738.6,551z"/>
	<path class="st15" d="M712.4,391.1c9.6,5,10.2,13.6,9.2,22.8C704.1,412.1,711.1,400.4,712.4,391.1z"/>
	<path class="st1" d="M392.9,195.5c22.8-12.2,46.3-22.7,71.9-26.7c6.4-1,15.6-5.7,19.5,1.9c3.1,6.1,4.4,15.1-2.9,21.3
		c-50.6,2.3-102.4,50.7-111.6,103.8c-4.6,26.7-4.4,52.9,5.4,78.6c3.9,4.4,7.3,9.3,10.6,14.2c5.5,7.7,12.5,14.6,12.2,25
		c23.2,34.8,58,47.6,97.6,51.5c3.9,15.4,1.4,26.8-15.5,33.6c-14.4,5.8-21.7,19.7-19.8,34.6c2.5,18.9-7.1,25.3-22.5,28.6
		c-17.8-28.6-42.5-48.4-75.1-57.8c-40-12.3-78-10.5-112.5,16c-10,15.2-25,25.1-38.5,36.6c-22,27.4-27.9,58.8-23.5,92.9
		c-1.9,9.4,1.1,18.3,5,26.4c5.5,11.3-1,14.7-9.3,18.7c-10.4,5-10.5-4-12.8-9.1c-26.8-60.1-21-118.6,8.5-176
		c22.8-35.4,51.7-64.8,86.9-88c17.5-11.9,18.1-29,18.3-48.5c0.4-42,17.1-79.6,38.4-115.1c2-3.4,4.7-6.3,9-6.7
		c7.4-8.5,14.9-16.9,22.3-25.4c4.9-6.2,10.1-12.1,17.7-15.3C379,205.6,385.9,200.5,392.9,195.5z"/>
	<path class="st4" d="M105.3,371.5c-4.1-62.3,41.3-118.7,106.1-128.6c7.7-1.2,17.3-4.7,23.2,4.4c6,9.3-0.9,16-6.3,22.2
		c-9.2,10.7-13.6,23.7-16,37c-5.6,31-13,61.8-6.3,94c2.7,13.1,0.7,27.2,1,40.8c0.3,14.9-4.3,27.2-19.1,32.8
		c-14.4,5.4-28.2,3.6-39.7-7.5C121.1,440.5,102.4,410.5,105.3,371.5z"/>
	<path class="st16" d="M332.1,251.3c-19.6,33.5-36.6,68.1-40.8,107.4c-0.9,9-4,18.9-1.4,26.8c7.5,23.1-6,30.4-23.5,36.1
		c-13.7-10.8-8.6-26.2-8.2-39.5c1.3-35.5,6.1-70.3,26.9-100.8c10.2-15,24.7-24.1,39.7-32.9C328.5,246.1,330.8,247.5,332.1,251.3z"/>
	<path class="st5" d="M245.5,363.1c1,18.5-2,37-0.8,55.8c-18.5-29.3-24.1-61.6-21.7-95.2c2.7-36.7,16.4-67.7,50.1-86.7
		c6.2-3.5,12.2-7.5,19.9-6.2c0.9,10.5-8.5,13.7-14.3,19c-31.4,28.5-40.9,64.7-35.2,113.3C243.6,363.1,244.8,363.1,245.5,363.1z"/>
	<path class="st12" d="M245.5,363.1c-1.7,2.6-3.4,5.3-5.2,8.1c-9.6-57.2,2.9-105.8,52.9-140.4c24.8-12.6,51.2-19.1,78.9-20.2
		c-4.4,6.8-10,12.2-17.6,15.3c-3.2-10.7-10.1-2.3-13.2-1.3c-64,21.1-94.5,63.4-95.3,130.7C245.8,357.9,245.6,360.5,245.5,363.1z"/>
	<path class="st17" d="M628.8,555.4c-0.3-32.4,19.8-42.4,47.9-43.6c9.5-0.9,16.6,0.3,14.7,12.9c-0.9,6.3,0,13,0,19.5
		c8.1,11.1,2.8,22.9,0.3,33.7c-8.6,37.8-22.8,72.7-58.5,93.8c-12.2,8.4-24.8,16.3-36.4,25.4c-12,9.4-20.9,11.3-25.9-6.3
		c-0.7-2.4-2.7-4.3-4.1-6.4c-1.3-4.3-2.1-8.8-3.9-12.9c-6-13.4-4.1-22,11.1-28.7c13.4-5.9,25-16,31.6-30.3
		C611.3,592.6,619,573.6,628.8,555.4z"/>
	<path class="st7" d="M633.3,671.6c35.8-35,56.2-77.1,58.2-127.5c18.2,15.4,22.4,36.8,18.1,57.7c-7.6,37.3-33.7,59.9-68.5,73.2
		C637.9,676.2,634.8,675.4,633.3,671.6z"/>
	<path class="st4" d="M211.6,556.7c9.4-15.8,23.2-27.1,38.5-36.6c4.6-0.2,7,1.8,7.6,6.6c8.6,61.1,40.2,109.6,83.1,151.9
		c3.7,3.6,7.3,7.4,10.7,11.2c0.7,0.8,0.6,2.3,1.1,4.4c-49.8-2.6-98.5-5.9-128.9-54.1C207.2,613.9,202.3,586.5,211.6,556.7z"/>
	<path class="st18" d="M355,519.3c10.2-0.1,14.8,4,15.2,15.1c1.9,47.9,25.3,83.8,64.5,109.7c8.7,5.7,11.6,11,6.3,20.3
		c-1.9,3.3-2.4,7.4-3.9,10.9c-14.4,33.4-9.1,39.9-46.3,14.3c-13.7-14.9-31.2-26.3-40-45.5c-7.6-9.1-1.8-21.5-7.9-30.9
		c-10.1-20.9-7.7-43.9-11.3-65.9c-0.9-5.8,1.1-11.8,7.1-14.6c8-3.8-1.3-7.3,0.1-11C343.4,515,349.2,517.4,355,519.3z"/>
	<path class="st19" d="M355,519.3c-5.1,0.8-10.8-1.3-15.1,3.2c-11.3,6.6-14.7,15.4-11.5,28.8c4,17,7,34.3,11.9,51.1
		c1.3,4.4,0.9,10.9,8.3,10.9c7.5,9.8-1.4,20.9,2.2,31c-26.3-31.3-34.3-69.2-37.9-108.2c-2.2-23.4,1.4-25.1,25.4-21.7
		c5.1,0.7,10.3,1.2,15.4,1.8C354.5,517.1,354.9,518.1,355,519.3z"/>
	<path class="st20" d="M391.2,379.3c26-17.7,54.2-29.7,85.3-35.6c43.4-8.3,81.9,4.6,118.8,25.5c5.6,3.2,11.3,6.3,16.9,9.4
		c-3,20.1-18.5,31.6-31.3,44.8c-5.4,5.5-10.9,1-15.8-1.9c-40-23.6-80.6-21.2-120.8-1.4c-9.9,4.9-16.5,3.5-24.3-2.9
		c-4.7-3.9-6.7-11.7-14.8-11.1C395.2,400,389.4,391.6,391.2,379.3z"/>
	<path class="st3" d="M391.2,379.3c4.6,8.9,9.3,17.9,13.9,26.8c-0.5,4.3-2.9,6.7-7.1,7.5c-6.8-6.4-10.7-14.6-14.7-22.7
		c-4.4-8.2-1.6-12,7.4-11.9L391.2,379.3z"/>
	<path class="st21" d="M628.8,555.4c-2.8,21.1-8.9,40.8-23.2,57.1c-8.2-13.8-3.9-29.7-6.8-44.5C596.8,557.9,620.7,548.7,628.8,555.4
		z"/>
	<path class="st0" d="M390.7,378.9c-5.9,1.9-7.3,6.5-7.4,11.9c-4.8-4.4-7.5-9.9-8.1-16.5c13.7-6.3,18.2-20.8,27-31.4
		c40.5-48.8,144.2-52.7,184.4-4.6c-19.7-13-41.7-17.7-64.6-20.7C471.9,310.9,411.5,337.9,390.7,378.9z"/>
	<path class="st22" d="M165.6,618.8c-1.1-52.8,14.8-99.5,52.3-137.5c22.4-22.6,45.1-45.2,75.2-57.8c10.7-4.5,12-10.3,10.1-21
		c-11.7-65.2,33.2-161.2,90.6-195c0.8-0.5,2.3,0.5,5.3,1.1c-18.5,18-37.1,34.8-49.3,57c-26.2,47.5-37.8,97.6-25.7,151.4
		c2.5,10.9-1.9,13.5-10.7,18c-53.6,26.8-101.4,60.5-127.5,117.4C176.1,573.7,171.6,596.5,165.6,618.8z"/>
	<path class="st23" d="M348.6,613.2c-1.8,1.3-0.3,11.1-4.5,4.1c-15.8-25.9-20.6-55.7-23.8-85.4c-1.8-17,13-6.2,19.5-9.5
		c2.9,1.2,5.6,3.2,8.6,3.6c4.4,0.6,10.5-0.8,10.7,5.3c0.3,7.3-6.7,5-10.3,4.6c-10.9-1.2-14.9,4.2-12.3,13.5
		C342.3,570.4,338.5,593.2,348.6,613.2z"/>
	<path class="st24" d="M578,379.4c-23.9-3.5-45.9-10.5-69-11.4c-22.5-0.9-43.8,2.7-64.6,10.4c-17.7,6.5-19.1,9.1-19.4,27.2
		c-22.2-19.5-21.9-24.3,4.2-35.5c47-20.2,94.2-20.2,141.1,1.2c1.8,0.8,3.5,1.7,5,2.9C576.1,374.8,576.4,376.2,578,379.4z"/>
</g>
</svg>
