<?xml version="1.0" encoding="utf-8"?>
<!-- Generator: Adobe Illustrator 23.0.1, SVG Export Plug-In . SVG Version: 6.00 Build 0)  -->
<svg version="1.1" id="Layer_4" xmlns="http://www.w3.org/2000/svg" xmlns:xlink="http://www.w3.org/1999/xlink" x="0px" y="0px"
	 viewBox="0 0 1000 1000" style="enable-background:new 0 0 1000 1000;" xml:space="preserve">
<style type="text/css">
	.st0{fill:#CBB89B;}
	.st1{fill:#4CAA20;}
	.st2{fill:#5F6E4C;}
	.st3{fill:#CBB99B;}
	.st4{fill:#356520;}
	.st5{fill:#264818;}
	.st6{fill:#356420;}
	.st7{fill:#F9F9F5;}
	.st8{fill:#606D4E;}
	.st9{fill:#264718;}
	.st10{fill:#CBB89A;}
	.st11{fill:#434C36;}
	.st12{fill:#5F6D4D;}
	.st13{fill:#264918;}
	.st14{fill:#080907;}
	.st15{fill:#F9F9F8;}
	.st16{fill:#4DA822;}
	.st17{fill:#434B36;}
	.st18{fill:#BFE2B0;}
	.st19{fill:#274719;}
	.st20{fill:#346220;}
	.st21{fill:#5F6B4D;}
	.st22{fill:#5B694B;}
	.st23{fill:#C6B498;}
	.st24{fill:#C0B094;}
	.st25{fill:#356222;}
	.st26{fill:#606C4D;}
	.st27{fill:#202020;}
	.st28{fill:#EEEDEB;}
	.st29{fill:#A9D993;}
	.st30{fill:#E0D9CB;}
	.st31{fill:#9BC985;}
	.st32{fill:#020201;}
	.st33{fill:#F7F5F2;}
	.st34{fill:#040403;}
	.st35{fill:#090906;}
	.st36{fill:#6C7654;}
	.st37{fill:#646D52;}
	.st38{fill:#C2E4B2;}
	.st39{fill:#010302;}
	.st40{fill:#A0DF82;}
	.st41{fill:#070905;}
	.st42{fill:#B8E5A4;}
	.st43{fill:#C2E5B2;}
	.st44{fill:#8BCF6B;}
	.st45{fill:#010100;}
	.st46{fill:#020602;}
	.st47{fill:#4CA621;}
	.st48{fill:#030702;}
	.st49{fill:#4BA620;}
	.st50{fill:#4AA023;}
	.st51{fill:#010301;}
	.st52{fill:#B9AC8F;}
	.st53{fill:#F4F2EF;}
	.st54{fill:#356620;}
	.st55{fill:#4DAA22;}
	.st56{fill:#4CA921;}
	.st57{fill:#4CA821;}
	.st58{fill:#33641F;}
	.st59{fill:#BCE3AC;}
	.st60{fill:#356221;}
	.st61{fill:#B1DF9D;}
	.st62{fill:#5EA040;}
	.st63{fill:#434E38;}
	.st64{fill:#B2DD9F;}
</style>
<g>
	<path d="M826.2,606.7c3,51.2-6.3,100-16.9,148.9C798,807.9,772,853.1,741,894.9c-19.1,25.7-45.7,45.3-75.9,59.3
		c-44.8,20.8-91.8,35.3-140.8,33c-84.5-3.9-167.2-18.1-238.2-69.6c-31-22.5-53.2-53.8-78.8-81.7c-34.1-37.2-50.1-83-57.3-131.3
		c-5.4-36.6-10-73.7-2.1-111.2c2.2-10.4-3-22.4-4.3-33.7c-6.9-61.6,5.4-118.4,44.8-167.4c11.2-13.9,23.9-27.8,40.2-35.7
		c17.4-8.4,5.2-17.7-0.5-19.9c-48.1-18.9-56-64.4-71.9-104.9c-12.1-30.7,14-48.6,22.6-72.4c11.7-32.4,39-44.2,69.2-55.1
		c40.6-14.8,79.5-34.2,117.2-56c28.2-16.3,39-10.6,60.8,15.1c21.9,25.8,44.9,50.6,64.9,78c1.7,2.3,5.3,3.2,8.1,4.7
		c49.6,27.4,101.9,48.8,154.7,69.1c53.4,20.5,93.8,58.6,130.8,100.3c22.6,25.5,42.6,53.2,57.7,84.1c23.5,48.1,36.5,98.6,41.4,152.3
		c2.7,29.2,0.4,56.8-4.9,84.9c-0.1,0.6,0.2,1.4-0.1,1.9c-5.4,11-6.5,28-21.5,28.2c-13.2,0.2-14.8-15-18.5-25.6
		C834.6,629.5,834.4,616.4,826.2,606.7z"/>
	<path class="st0" d="M858.9,613.5c0,4.5,0,9,0,13.4c-1.3,0.4-2.6,0.7-3.9,1.1c-7.9-21.5-14.8-43.5-24-64.5
		c-45.3-102.9-112.3-183.2-225.7-214.5c-11.7-3.2-23.6-6-35.4-9c7-7.1,15.8-5.6,23.9-3.8c33.7,7.4,67.2,15.5,97,34.1
		c-20.1-13.9-42.4-23-66-28.7c-44.3-10.8-83.2-33.2-121.8-56c-17.9-10.5-36.6-18.9-50.1-24.7c30,16.9,62.8,40.3,96.6,62.2
		c7.3,4.7,19.4,4.7,20.7,17c-11.4,2.7-20.3-3.6-28.8-9.2c-38-24.9-75.7-50.1-113.4-75.5c-12.8-8.6-27.5-16.6-16.9-39
		c-52.6,47.6-116.2,65.7-175.7,91.7c-7.6,3.3-14.9,3.8-21.3-2.7c0.2-7.5-9.9-13.4-3.3-21.8c10.9-6,23.2-9.2,32.5-18.1
		c11.8-7.8,16.3-18.9,11.8-32c-4.6-13.4-14.4-21.3-29.3-21.5c-14-3.8-22.7,9.3-35,10.8c-4.2-8.4-3-16.7,0.2-25
		c41.5-25,81.9-52,129.5-64.8c15-4,29.7-8.9,45.5-8.3c6.9,1.4,13,4.6,18.3,9.2c19,22.6,37.7,45.3,43.1,75.7c0.3,1.9,2.4,2.8,4.5,2.7
		c16.8-5.2,27.5,7.1,40.1,13.9c31.9,19,61.4,41.5,93.6,60c11.3,6.5,22.9,12,36,14.4c110,20.2,181.3,87.2,225.5,187
		c10.3,23.2,19.9,46.6,26.2,71.2C862.5,576.4,855.2,595.5,858.9,613.5z"/>
	<path class="st1" d="M488.7,719.4c64.4-23.2,126.2-51.9,183.2-90.2c0.9-0.6,2.5-0.3,3.8-0.3c5,4.3,6,10.6,4.7,16
		c-5.9,24.2,3.3,46,10.3,68.1c5.4,17.4,8.1,35.3,12.1,53c3.8,16.9-0.3,30-14.9,40.7c-21.1,15.4-43.7,27.8-67.1,38.8
		c-17.6,8.3-36.1,14.3-52.9,24.3c-4.3,2.5-9.3,5-14.5,1.2c-22.3-43.6-44-87.5-65.8-131.3C484.7,732.7,482.7,725.8,488.7,719.4z"/>
	<path class="st2" d="M382.4,136.8c-5.3-2.9-10.5-5.7-15.8-8.6c-3.1-3.5-2.9-7.5-1.8-11.7c17.9-31.7,39.7-35.7,67.1-12.3
		c8.4,7.2,14,16.8,22,24.4c36.1,45.1,87.8,65,139,85.1c21.1,8.3,42.7,15.3,63.3,25.1c1.3,1.4,3.3,3.5,2.8,4.9
		c-7.4,21.1,7.5,24.2,22.1,30c52.8,21.1,88.3,62,119.8,107.3c34.7,50,52.7,105.8,58.6,165.9c4.9,22.2,3.7,44.4-0.4,66.6
		c-3.6-18.4-7.2-36.9-10.8-55.3c3.5-11-3.1-20.3-6.3-29.6c-24.3-71.3-60-135.4-120.1-183.2c-31.1-24.7-67.1-39.3-105.5-48.6
		c-29.1-7.1-29.9-9.3-13.4-35.2c1-1.6,2.2-3.2,3.8-4.4c-0.2-0.5-0.7,0-1.9,1.4c-25.1,28.4-25.3,28.8-57.7,10.3
		c-20.3-11.6-41.3-21.9-61.7-33.6c-5-2.9-9.8-6.7-16.2-5.2c-13-3.8-21.4-23.9-39.2-11.2c-2.8-2.1-4-5.1-3.8-8.4
		C427.2,176.6,410.2,153.5,382.4,136.8z"/>
	<path class="st1" d="M476.1,702.4c-1.1,0.5-2.2,0.7-3.4,0.7c-4.9-4.1-8.8-8.4-3.5-14.9c6.2-11.3-1-21-4-31.1
		c-1.6-5.5-5.2-10.4-4.5-16.5c0.7-15.3,9.9-27.6,15.3-41.2c9.8-24.6,9.5-51.6,20.2-75.8c28.4-16.4,52.7-38.3,77.4-59.5
		c4.9-1.5,7.7,1.7,9.1,5.2c15.7,37.6,44.1,67.1,65.3,101.2c13.5,21.6,13,27.4-9,40c-29.9,17.1-60.5,33.1-92.4,45.9
		C519.9,667.3,493.7,677.9,476.1,702.4z"/>
	<path class="st1" d="M379.2,886.5c-30.7-40.2-55.6-83.8-78.5-128.8c-2.3-2.5-2.2-5,0.3-7.3c58.7,2.4,115.6-8.4,171.6-24.5
		c-0.2,21.7,0.4,42.8,8.7,63.8c8.6,21.9,19.9,42.1,30.6,62.9c8.5,16.6,5.6,22.9-11.6,26.4c-38.3,7.6-77,10.6-116,10.1
		C382.3,889.1,380.7,887.7,379.2,886.5z"/>
	<path class="st3" d="M351.1,675c-44.5,16-87.9,18.1-128.7-10.6c-0.7-8.5-9.2-11.9-12.2-18.9c-2.5-5.7-10-11.3-1-17.7
		c4.1,0.3,7.8,2.1,10.1,5.2c26.9,36.2,64.8,36.1,102.4,27.3c35.3-8.2,57.3-35.1,70.5-67.6c19.6-48.5,12.5-97.6-4.2-144.7
		c-12.7-36-61.4-58.5-100.5-50.4c-48.8,10.1-75,43-88.6,88.7c-2.3,7.9,0.7,19.2-11.6,22.2c-7.7-9.3-4.9-19.8-2.6-29.8
		c8.1-33.8,19.4-66.2,44-92.2c2.3-2.4,4-5.1,4.5-8.4c11.9-12.4,27.4-16.7,43.8-19c29.5-4.9,58.2-0.9,85.7,9.5
		c19.8,7.5,34.8,21.2,45.2,40.7c33.8,63.4,35.3,176.5-20.4,237.2C376.9,658.3,364.9,667.6,351.1,675z"/>
	<path class="st4" d="M379.2,886.5c28.3-8,58,0.2,86.6-7.4c11.1-2.9,22.9-3.1,34.4-4.9c11.1-1.7,16-5.8,8.4-17.6
		c-17.3-26.8-29-56-39.6-86.1c-5.9-16.6-0.9-30.1,3.7-44.7c5.4-2.2,10.7-4.3,16.1-6.5c-1.6,6.9,0.4,13.2,3.1,19.4
		c-3.6,21.1,5.4,39.5,13.8,57.4c8.2,17.5,18.5,34.2,27.2,51.6c4.5,9,11.1,15.9,21.1,18.9c2.2,1.1,5.5,3.8,6.3,3.1
		c29-22.5,66.6-28.1,96.5-49.1c10-7,20.4-13.6,30.6-20.3c12.3-8.1,13.8-18.2,11.2-30c-4.6-21.4-8.3-43.4-16-63.7
		c-9.7-25.8-9.3-51.5-6.8-77.8c1.6-3.7,4.3-6.1,8.2-7.3c8.3,6.2,14.3,13.5,12.4,24.9c-5.1,8.4-0.7,16.2,1.7,24.2
		c10.9,35.9,23,71.4,22.7,109.6c0.5,2.8,0.6,5.6,1.5,8.4c-13.3,17-30.3,29.9-48.7,40.2c-74,41.4-153.1,64.8-238.4,66.1
		c-11.6,0.2-23.2,3.3-34.6,2.6C392.7,897,381.4,899.5,379.2,886.5z"/>
	<path class="st4" d="M469.2,688.3c1.2,5,2.3,9.9,3.5,14.9c-29.5,17.5-63.4,21.5-95.9,28C320.5,742.3,263.6,741.7,209,721
		c-11.9-4.5-29.9-5.6-29-25.9c4.5-3.8,9.7-3.3,14.5-1.2c19.4,8.4,40.4,10.8,58.9,16.2c-6.5-4.8-19-4.8-19-18.6
		c14.6,2.8,29.2,5.4,43.7,8.4c12.5,2.6,7.6,20.8,22,23.7c-3.3-22,9.9-23.8,27.3-24.9c43.9-2.8,73.5-28.7,95.9-64.4
		c2.7-4.3,3.9-9.8,11.2-13.1c6.3,16.6,12.4,33.2,18.9,49.6C456.5,678.3,458.4,687.4,469.2,688.3z"/>
	<path class="st4" d="M539.3,355.3c2.5,1.3,5.1,2.7,7.6,4c6.9,4.7,15,7.4,21.5,13c19.1,16.4,20.6,22.2,8.7,44.4
		c-4.3,8-5.8,17.1-10.4,25c-26.6,31.5-64.4,47.5-97.6,69.9c-10.3,6.9-14.7,0-15.2-8.8c-1.5-30-6.4-59.2-18.9-86.8
		c-3.9-8.7,4.7-10.6,9.5-14.3c18.5,12.9,28.7,32.6,40.8,50.6c11.8,17.5,11.5,17.7,28.8,4.8c2.6-1.9,5-4.1,7.7-5.9
		c10.2-6.8,8-12.8-0.6-19.3c-15-11.3-29.8-22.6-47.7-29.1c-6.5-2.4-13.8-4.2-16.5-12.1c3.7-6.6,7.5-13.3,11.2-19.9
		C492,347.3,512.3,342.9,539.3,355.3z"/>
	<path class="st4" d="M695.7,586.5c-1.9,3.4-4.2,6.3-8.3,7.2c-3.9-3.4-4.7-8.2-3.3-12.5c12.6-37.1-12.2-60.9-30.9-86.4
		c-8.3-11.4-19.6-20.6-31.1-29c-9.6-7-11.6-15.5-7.7-27.1c4.3-13.1,12.5-25.5,10.4-40.3c-0.2-1.3-0.1-2.6,0.2-3.8
		c2.2-5.3,3.3-12.6,10.8-11.7c6.1,0.7,10.2,6.3,11.3,12.2c2.5,13.7,12.4,20.1,23,27.1c26.7,17.6,50.5,38.5,70.3,63.8
		c8.5,10.8,9.4,20.9,0.4,31.5c-3.4,4-6.8,7.9-10.3,11.7C714.8,545.8,702,564.2,695.7,586.5z"/>
	<path class="st5" d="M695.7,586.5c-3.5-30.2,19.9-46.2,35.8-65.5c15.8-19.2,15.8-18.8-0.3-38.2c-21.4-25.7-46.6-46.3-75.1-63.4
		c-6.7-4-11.6-8.7-12.2-18.2c-0.8-14.1-7.2-19.9-19-6.6c-17.1,5-27.4,18.9-39.7,30.2c-6.2,5.7-12.4,11.3-18.7,16.9
		c-0.9-9.9-0.8-20,6.3-27.6c13.3-14.2,8-24.6-4.6-35.7c-7.2-6.3-17.5-9.1-21.4-19.1c63.2-4.8,112.3,26.3,158.5,63.4
		c20.1,16.2,40.3,32.7,56.3,53.6c7.2,9.4,6.1,16.4,1,26.1c-14.6,27.9-35.9,50.8-54.2,75.9C705.5,582.5,701.3,585.8,695.7,586.5z"/>
	<path class="st6" d="M656.3,918.1c-7.9,8.3-19.1,10.7-28.7,15.9c-9.5,5.2-16.3,4.3-23.1-5.3c-6.6-9.3-15.6-16.8-24.4-26.1
		c-4.6,13.5,3.3,20.7,8.4,28.4c6.5,9.8,4.6,15.3-6.7,17.6c-42.3,8.8-85,8.8-126.9-0.5c-14.5-3.2-27.1-14.7-40.6-22.5
		c1.5-10,9.8-6.7,15.2-7.1c35.9-2.8,72-4.1,107.7-10c12.4-2,23.9-5,32.9-14.4l0.1,0c42.7,0.6,77.8-20.8,114-39.1
		c6-3.1,12.5-9.2,19.4-2.9c5.8,5.3,0.8,11.9,0.5,18.1c-0.9,17.3-15,23.4-25.9,31.8C671.1,907.6,663.5,912.6,656.3,918.1z"/>
	<path class="st1" d="M190.1,741.8c-2-7.1-3.9-14.2-7.7-27.6c37,29,75.8,31.4,114,36.3c-20.1,43.3,3.1,75.4,27.6,107.1
		c4.9,6.4,15.5,12.2,10.7,20.7c-5.2,9.1-16.2,4.3-25.1,3.2c-10.5-1.2-20.1-4.4-29.2-9.6c-4.5-3.1-10.3-4.9-11-11.6
		c-4.3-9.5-13.4-15.4-18.7-24.2c-11.1-15.1-23.2-29.7-30.8-47c-3.3-7.4-9.7-15.9-3.9-23.6c5.6-7.5,15-2.7,22.9-2
		C220.4,761.4,203.6,755.4,190.1,741.8z"/>
	<path class="st4" d="M726.1,577.7c7.9-11.6,15.9-23.2,23.8-34.8c17.6,2.1,21,16.8,23.2,29.6c9.7,57.3,16.7,114.8-11.3,169.8
		c-6.2,12.9-15.4,23.2-27.5,31c-1.3-1.5-2.6-3.5-2-5.2c16-41.8,1.8-80.6-13.6-118.4c-7.1-17.4-9.5-32,4.1-46.4
		C730.2,595.4,728.8,586.7,726.1,577.7z"/>
	<path class="st4" d="M476.1,702.4c6.8-24.3,26.9-33.6,47.7-41.7c41.2-16.1,80.2-36.3,118.8-57.8c11.8-6.5,14.1-12.4,5.5-24
		c-18.9-25.4-35.7-52.5-55.2-77.4c-9.1-11.6-8.2-27.3-19.2-37.2c2.7-2.4,5.5-4.9,8.2-7.3c6.7,6.5,16.2,9.8,20.8,18.7
		c-1.5,7.2,2.9,12.3,6.4,17.7c17.9,27,39.9,51,57.2,78.4c7.2,11.5,7.3-5.4,11.9-2.1c9.8,7.8,3.5,18.7,5.3,28
		c-12.7,12.9-26.7,23.8-43.1,32C586.8,656.3,533.5,684,476.1,702.4z"/>
	<path class="st7" d="M207.8,628c-0.5,10.6,8.1,16.4,13,24.2c2.3,3.7,8.9,7.1,1.6,12.2c-36.6-29.7-53.4-69.1-55.2-115.4
		c-1.9-49.3,2.1-97.4,32.2-139.4c9.2-12.8,20.2-23.7,34-31.5c10.1,8.9-1.8,11.5-5,15.8c-25.1,34-40.3,71.4-40.7,114.2
		c4.9,4.5,5.3,10.5,4.3,16.2c-5.5,30.7,2.3,59.1,14.1,87C208.2,616.6,211,622,207.8,628z"/>
	<path class="st1" d="M726.1,577.7c13,6,13.6,14.7,4,23.9c-15.9,15.4-14.6,29.9-5.4,49.8c14.4,31.3,23.9,64.9,18.2,100.7
		c-1.3,8.2-8.5,13.1-8.6,21.2c-4.1,5.1-8.1,10.2-12.2,15.3c-1.3-1.4-2.6-2.8-3.9-4.2c3.6-46.1-6.9-89.6-23.5-132.1
		c-1-2.5-0.5-5.1,0.6-7.5c-1.9-8.6-11-13.8-11.5-23.1C702.6,611.4,712.3,592.6,726.1,577.7z"/>
	<path class="st8" d="M351.1,675c74.3-58.3,87-135.8,67.3-222.1c-14.7-63.9-50.3-91.2-116-93.4c-8.4-0.3-16.8-0.2-25.3-0.3
		c65.7-13,125.7,6.3,147.1,67.9c20.3,58.6,24.6,118.3-1.9,176.1C407.6,634.9,388.9,665.1,351.1,675z"/>
	<path class="st1" d="M601.7,476.1c-7.7-5.3-19.8-5.9-19.8-19.2c14.9-19.1,32.1-36.5,42.9-58.6c10.1,15.4-0.9,28.7-5.8,41.5
		c-4.2,10.9-2.4,16.8,6.2,22.6c30.5,20.6,49.7,50,65.7,82.3c4.6,9.4,2.3,17.3,0.5,26c-1.6,7.5-2.7,15.2-4,22.8
		c-1.3,1.3-2.5,2.6-3.8,3.9c-8.8-7.4,1-19.9-7.5-27.4c-10.2-6.6-11.4-18.4-16.2-28.1C646.3,514.9,627.5,492.4,601.7,476.1z"/>
	<path class="st9" d="M761.8,742.3c1.5-20.1,8.7-39,12.3-58.7c6.6-36.7-3.1-72-5.4-107.9c-0.8-12.7-7.4-24.7-18.8-32.7
		c7.2-13.6,14.3-27.2,22.2-42.3c11.1,17,13.2,35.5,15.4,52.8c5.5,43,9.2,86.3,2.2,129.8C786.1,706,773.5,723.7,761.8,742.3z"/>
	<path class="st0" d="M296.6,101.1c29.9-14,58-31.7,89.6-42.1c2.3,11.7-9.1,15.2-13.5,22.9c-13.5,28.8-38.6,41.5-67,51.7
		c-29.4,10.5-56.9,25.6-82.5,43.9c-5.6,4-10.6,10.2-18.9,7.7c-5.5-15.8,6.7-23.7,15.5-31.9c17.1-16,36.8-28.6,57.6-39.4
		C284.1,110.2,292.2,108.2,296.6,101.1z"/>
	<path class="st10" d="M442.1,371.5c-14.6,22.2-16.1,22.4-33,4.2c-4.3-4.7-9.4-8.7-14.1-13c-7.8-10.6-7.4-24.3-13.7-35.8
		c-5.8-10.4-11.5-20-22.1-26l0,0c-1.5-1.2-4-2.8-3.7-4.2c3.7-14.8,18.7-13.4,28.6-19.3c6.5-3.9,15.2-4.6,19.2,2.6
		C419.3,309.2,440.2,336.4,442.1,371.5z"/>
	<path class="st11" d="M859.3,546.9c-3.9-17.5-7.4-35-11.9-52.4c-21.5-83.5-66.6-151-137.5-200.7c-16-11.2-34-18.6-52.9-23.2
		c-9.8-2.4-15.7-4.3-5.7-13.7c5.4-5.2,5.1-11.6,4.7-18.1c106,66.7,182.5,154.6,202.7,282.8C860,529.8,859.1,538.4,859.3,546.9z"/>
	<path class="st1" d="M457.1,390.8c26.7,10.2,51.4,23.6,73.6,42c8.6,7.1,9.2,11.3,0.9,17.6c-0.5,0.4-1.1,0.7-1.6,1.1
		c-33.3,26.7-33.2,26.6-56.6-8.7c-9.2-13.9-19.2-27.4-28.8-41.1C448.7,398.1,452.9,394.4,457.1,390.8z"/>
	<path class="st4" d="M496.3,523.8c-1.9,42-11.7,81.6-35.5,116.9c-23.2-29.5-14.4-61.5-7.4-93.3c1.5-7,7.5-8.3,12.7-10.6
		C476.1,532.3,486.2,528.1,496.3,523.8z"/>
	<path class="st12" d="M442.1,371.5c-9.9-27.4-23.5-53.1-35.9-79.4c-6.1-13.1-14.1-17.2-25-8.1c-7.2,5.9-23.4,0.4-22,17
		c-10.4-1.6-19.3-9.4-30.5-7.7c-4.3,2-4.9-0.3-4.3-3.8c15.4-6.8,30.8-13.7,46.1-20.5c36.8-12.2,73.6,11.1,82.5,52.1
		c1.4,6.3,0.9,12.9,3.9,18.8C456.5,352.5,453.9,364.2,442.1,371.5z"/>
	<path class="st5" d="M656.3,918.1c6.6-12.7,20.3-17.5,30-26.7c3.2-3.1,8.7-5,10-8.6c3.2-8.8,10.8-19.6,4.8-27
		c-6-7.5-12.6,4.3-19.1,6.9c-14.3,5.8-27.8,13.7-41.8,20.3c-22.2,10.5-44.7,20.1-70.1,11.4c40.6-13.6,79.4-30.9,115-55
		c11.3-7.6,22.3-15.5,33.4-23.3c4.9,5.5,4.9,11-0.1,16.4c-4.8,4.9-6.9,11.6-6.9,17.6C711.7,888.1,686.8,905.2,656.3,918.1z"/>
	<path class="st4" d="M280.5,872c17.3,0.9,33.8,8,55.1,6.4c-12.2-14.9-23.7-27.4-33.2-41.4c-10.8-16.1-15.9-33.8-20.5-51.9
		c-3.8-15.1,9-23.3,14.5-34.4c1.5,0,3-0.1,4.5-0.1c-0.1,2.4-0.2,4.9-0.3,7.3c-9,13.9-3.6,28.6,1.5,40.8
		c15.3,36.4,33.8,71.3,68.8,93.3C339.2,899.2,298.1,890.2,280.5,872z"/>
	<path class="st13" d="M570,894.2c-0.5,9.6-4.7,14.9-15,16.7c-27.9,5-56,9.5-84.3,10.6c-18.9,0.7-37.8,1.5-56.5,4.1
		c-4-1.3-8-2.6-12.1-3.9c-10-1.4-21.4,0.5-27.1-11.2C440.6,912.5,505.5,904.8,570,894.2z"/>
	<path class="st14" d="M245.4,268.7c-8.5,11.7-20.4,16-34.4,16c-7,0.7-12-2.4-15.7-8.1c-4.4-10.7-18.4-16.7-15.4-31.1
		c4.2-7.6,0.2-19.2,11.5-23.2c9.3-10.3,19.2-19.4,34.9-15C256.8,220.6,263.9,243.5,245.4,268.7z"/>
	<path class="st15" d="M191.5,222.3c-5.6,6.9-3.5,17.6-11.5,23.2c-7.6-52.2,16.9-98.5,65.4-122.2c16.7-8.2,34.2-14.9,51.3-22.3
		c4.9,8.1-3.5,7.8-6.8,9.7c-22.6,13.7-45.3,26.9-65.4,44.3c-9.5,8.2-17.3,17.1-20.7,29.3c0.8,8.7-6.5,10.7-11.9,14.3
		C191.7,206.6,191.6,214.4,191.5,222.3z"/>
	<path class="st16" d="M234.4,691.5c5.9,11.7,21.4,10.5,30,22.7c-31.1,0.4-57.2-11.9-84.4-19.1c-3.3-15.1-4.9-30.3-4.3-45.7
		c0.3-8,3-9.3,7.8-2.3c6.1,10.3,3.9,21.4,3.5,31.3c2.7-4.2-3-14.3,8.7-14.6C208.6,673,221.5,682.2,234.4,691.5z"/>
	<path class="st17" d="M371.2,78.2c4.1-7.1,12.6-10.8,15-19.2c7-0.6,13,2.7,17.2,7.3c18,19.7,38.2,37.8,50.4,62.3
		c-9.5-3.6-14.4-12.5-21.8-18.6c-28.3-23.8-42.8-22.2-64.3,7.5C356.2,103.2,368.5,91.1,371.2,78.2z"/>
	<path class="st18" d="M190.1,741.8c9.4,4.2,18.6,8.7,28.2,12.4c9.4,3.6,19,6.4,34,11.3c-15.4,0-25,0-35.7,0
		c6.1,27.6,24.4,47.5,37.5,70.1c1.4,4-0.5,5-4.1,4.3C222.6,811.8,201.1,780.1,190.1,741.8z"/>
	<path class="st19" d="M746,788.5c8.2-9.8,16.3-19.5,24.5-29.3c-7.6,39.8-26,73.7-49.3,107.8c-4.6-10.8-2-19.2-2.4-27.3
		C728.6,823.1,735.2,804.7,746,788.5z"/>
	<path class="st11" d="M456.9,339.9c-9.5-16.5-12.2-36.4-25.6-51c-13.3-14.6-26.8-28.1-49.4-19.6c-3.3,1.2-7.6-0.1-11.5-0.2
		c13.6-15.9,28.1-18.6,44.1-3.4c1.8,1.8,4,3.5,6.4,4.3C454.1,282.4,460.8,308.4,456.9,339.9z"/>
	<path class="st9" d="M539.3,355.3c-26.9-9.5-48.5,4.9-71,15.5c0.3-1.2,0.2-2.8,0.9-3.7c6.6-8.6-2.3-24.8,16.9-27.9
		C507.5,335.7,526.8,332.5,539.3,355.3z"/>
	<path class="st20" d="M375,910.6c7.8,6.7,21.3-0.3,27.1,11.2c3.8,5,7.5,10,13.9,18.4c-31.9-8.2-59-17.5-89.2-33.6
		C346.3,908.2,360.7,909.4,375,910.6z"/>
	<path class="st21" d="M359.2,301c27.4,11.6,34.9,34.8,35.8,61.8c-15.6-3.1-22.8-11.2-19.5-28.3C378.3,320.1,366.8,311.2,359.2,301z
		"/>
	<path class="st22" d="M324.3,289.5c1.4,1.3,2.9,2.5,4.3,3.8c-15.5,3.7-28.7,11.2-39.3,23.2c-9.9,9.8-22,14.5-35.7,15.7
		c-6-6.4-4.9-11.5,3-14.8C279.2,307.9,301.8,298.7,324.3,289.5z"/>
	<path class="st23" d="M253.7,332.2c10-9.5,23.4-11.3,35.7-15.7c-1,8.7,0.2,18.8-6.1,25.4C275.2,350.3,260.7,345,253.7,332.2z"/>
	<path class="st24" d="M307.8,323.7c5.9-8,15.1-8.3,23.6-10.2c10.9,9.9,13.8,19.9,0.6,30.2c-6.7-0.3-13.7,1.2-19.7-3.2
		C307.7,335.7,307.8,329.7,307.8,323.7z"/>
	<path class="st25" d="M746,788.5c-5.1,19.2-10,38.5-27.2,51.3c-0.1-2.4-0.3-4.9-0.4-7.3c0-5.5,0-11,0.1-16.4
		C726.4,805.6,735.7,796.5,746,788.5z"/>
	<path class="st26" d="M332,343.6c7.3-10.2,4.1-20.2-0.6-30.2c3.1,0.5,6.4,0.5,9.4,1.5c12.7,4.3,17.3,15.5,14,26.1
		C350.8,354.5,339.7,341.6,332,343.6z"/>
	<path class="st27" d="M495.3,316.3c0.4,6.9-3.8,7.9-8.7,7.9c-6.4,0-13.7,1.2-13.8-8.7c0-4.5-0.4-10.3,6.1-9.8
		C486,306.2,492.6,309,495.3,316.3z"/>
	<path class="st28" d="M195.3,276.6c5.2,2.7,10.5,5.4,15.7,8.1c-1.9,7.4,9.8,12.7,3,20.8C205.9,297.1,195.2,290.4,195.3,276.6z"/>
	<path class="st29" d="M195.7,663.8c-5.6,4.4-2.7,12.2-7.3,18.5c-7.9-11.6-4.9-23.7-4.9-35.2C187.6,652.6,191.6,658.2,195.7,663.8z"
		/>
	<path class="st30" d="M307.8,323.7c7.4,4,4.1,10.8,4.5,16.7c-3.9-0.2-9.6,3.1-11-2.6C299.9,332.3,303.1,327.2,307.8,323.7z"/>
	<path class="st31" d="M250.1,840c1.4-1.4,2.7-2.9,4.1-4.3c5.8,7.8,13.9,14.1,15.3,24.7C261.2,855.3,255,848.2,250.1,840z"/>
	<path class="st32" d="M469.1,230.1c6.9-8.7,13.1-1,18.4,1.7c26.4,13.8,52.7,28,78.5,42.9c8.1,4.6,13,5.3,19.7-2.5
		c8.8-10.2,19.4-18.9,30.7-29.5c-3,17.7-17.9,28.3-22,45c45.2,7.5,86.9,21.9,123.7,48.9c45.6,33.4,78.3,77,101.5,128.1
		c11,24.2,23.2,47.8,28.8,74.1c1.4,6.5,7.1,13.1-0.3,19.4c-16.7-55.8-40-108.4-77.2-153.7c-44.6-54.3-101.5-88-171.2-99
		c-14-2.2-26-7.5-37.5-15C531.1,270.4,500.1,250.2,469.1,230.1z"/>
	<path class="st33" d="M570.1,340.2c-46.7-26.2-90.2-57.1-134.2-87.4c38.4,7.7,70.7,28.5,103.1,48.3c37.7,23.1,80.6,31.8,121.1,47.2
		c17.5,6.6,33.2,16.2,48,36c-46.6-25-89.7-43.5-138.2-44.2C569.9,340.1,570.1,340.2,570.1,340.2z"/>
	<path class="st34" d="M371.2,78.2c5.3,13.7-8.6,25.6-3.5,39.2c-0.4,3.6-0.8,7.2-1.2,10.7c-58.3,7-108,35.1-157.3,64.3
		c-5.3,3.2-9.8,9.2-17.4,6.4c4-4.8,7.9-9.6,11.9-14.3c41.7-31,88.2-52.9,136.6-70.7c9.9-3.6,13.3-11.5,17.8-19.1
		C361.8,88.5,364.7,81.9,371.2,78.2z"/>
	<path class="st35" d="M382.4,136.8c30.3,9.1,48.6,33.7,48,64.6c-0.1,5.8-0.3,11.7-0.5,17.5c-1.6,2.4-5.5,3.9-5.7,1.1
		C422.3,186.1,400.4,162.4,382.4,136.8z"/>
	<path class="st36" d="M355.8,153.3c-30.2,12.7-61.4,22.5-91.1,36.1C291.8,169.1,321.6,155.5,355.8,153.3z"/>
	<path class="st37" d="M245.4,268.7c10.4-29.5,6.8-41.1-19.1-61.5c18,0,29.1,10.2,33.6,26.1C264,247.8,260.9,261.3,245.4,268.7z"/>
	<path class="st38" d="M554.4,812.8c-11.4-21.8-21-44.3-29.6-67.4c-3.1-8.4-3.3-13.1,5.8-16.3c35.4-12.3,68.8-29.2,103.3-44.1
		c-22,21.7-49.4,35.1-76.2,48.8c-12.6,6.5-15.4,12.2-10.6,25.2c5.4,14.5,8.2,29.9,12.2,44.9C560.4,808.3,562.1,813.1,554.4,812.8z"
		/>
	<path class="st39" d="M553.9,866.6c-10.4,6.1-17-1.7-20.4-8.4c-17-33.7-40.3-64.6-47-103c-1.1-6.3-6.4-14.1,5.3-16.4
		C513.4,781,537,822.2,553.9,866.6z"/>
	<path class="st40" d="M554.4,812.8c3.8-1.8,4-5.5,4.9-8.9c7.6,10.8,6,24.1,10.1,35.9C561,832.5,557.5,822.8,554.4,812.8z"/>
	<path class="st11" d="M466.3,204.6c8-39.3,8.4-39.6,42.5-22.5c30.1,15.1,60.2,30.4,92.3,41c4.1,1.4,10,2.1,10.5,7.3
		c0.5,6.6-5.8,9.7-10.2,13.2c-4.8,3.9-8.3-0.4-11.6-3.5C555,208.2,513.3,199.8,466.3,204.6z"/>
	<path class="st41" d="M470.3,159c-6.5,17.9-8.5,33.1-21.2,44.1C442.6,185.2,448,172.9,470.3,159z"/>
	<path class="st42" d="M487.9,614.5c1.7,15.3,3,27.9,4.4,40.5C480.7,643.9,476.1,631.8,487.9,614.5z"/>
	<path class="st43" d="M367.3,847.6c-14.8-19.9-25.8-41.8-35.2-64.6c-3.9-9.3-3.8-14.3,8.5-13.5c26.5,1.6,52.1-7.8,79.3-4.8
		c-18.2,5.7-36.2,12.7-54.8,16.5c-12,2.5-13.7,7-9.9,16.9c5.7,15.1,11.2,30.2,16.8,45.3C372.6,847.1,370.9,848.4,367.3,847.6z"/>
	<path class="st44" d="M367.3,847.6c1.6-1.4,3.1-2.9,4.7-4.3c7.7,5.3,7.1,13.9,10.7,22.7C372.7,861.8,370.5,854.3,367.3,847.6z"/>
	<path class="st45" d="M207.8,628c-20.9-37.6-27.8-77.5-20.2-119.9c6.4-22.4,12.7-44.4,24.8-65c38-65.1,132-69.8,175.1-8.2
		c12.1,17.3,14.2,37.5,17.1,57.3c7.2,48.8,5.1,95.8-27.8,136.8c-31.4,39.1-88.2,52.7-133.6,31.8C227.5,653.6,220,638.4,207.8,628z"
		/>
	<path class="st46" d="M695.3,644.7c20.9,44.4,36.1,89.7,22.9,139.7c-5.1-34.9-10.5-69.6-22.6-102.9c-2.4-6.7-5.2-13.3-6.6-20.2
		C687.8,655,683.7,646.5,695.3,644.7z"/>
	<path class="st47" d="M389,707.8c11.6-8.5,23.5-16.6,34.8-25.6c6-4.7,9.3-4.8,12.7,2.6c3,6.5,3.1,11-4.5,13.2
		c-13.9,4-27.9,7.9-41.9,11.8C389.7,709.2,389.4,708.5,389,707.8z"/>
	<path class="st48" d="M561.6,437.9c-27.6-21.4-52.1-40.5-85-52C512.7,379.6,553.6,407.8,561.6,437.9z"/>
	<path class="st49" d="M451,933.7c37.9,0.5,74.1,1.3,109.6-7.6c4.5-1.1,11.7-2.1,12.6,5.3c0.8,6.4-5.6,5.5-9.8,6.7
		c-32.3,9.2-65.4,7.8-98.5,7.1C459.3,945,455,942.4,451,933.7z"/>
	<path class="st50" d="M655.8,900.2c-8.1,17.4-21.2,20.3-32,25.9c-3.1,1.6-7.4,4.6-9.4-1c-1.7-4.6,2-7.4,5.8-8.3
		C631.7,914,642.7,910.1,655.8,900.2z"/>
	<path class="st51" d="M601.7,476.1c36.1,10.1,49.3,41.8,65.3,70.5c4.1,7.3,6.1,15.7,9.1,23.6c0,5.6,0,11.3,0,22.3
		c-27.7-38.1-52.4-71.8-76.8-105.7C596.6,483,591.9,477.6,601.7,476.1z"/>
	<path class="st52" d="M206.7,222.3c15.4-6,23.8,2.7,26.8,15.6c3.6,15.2-0.4,28.1-19,30.9C196.8,251.5,195.8,245.3,206.7,222.3z"/>
	<path class="st53" d="M206.7,222.3c-3.5,16.5-2.8,32.4,7.8,46.5c-14.4,2.9-17.3-8.4-20.3-17.7C190.2,238.6,194.9,228.5,206.7,222.3
		z"/>
	<path class="st54" d="M241.8,641.2c-31.8-19.5-50.7-71.3-37.8-109.5c13.3-39.5,40.4-70.3,67.5-101c15.9-18,28-2.2,41.7,1.9
		c-11.9,11.8-27.1,19.5-38.7,32c-17,18.3-31.6,37.8-40.9,61.1c-1.8,4.7-2.2,10.4-8.1,12.7c6.6,0.2,13-0.6,19.5-0.6
		c30.6-0.2,31.2-0.2,39.2-30.4c5-19,9.8-38,21.6-53.8c7.4-10,16-22.3,31.6-10.7c2,6.4-0.1,11.9-3.5,17.2c-1.5,1.7-3.3,2.1-5.4,1.1
		c-1.2-1.8-1-8.7-4.9-2.1c-13.6,23-24.3,47.1-26.8,74.2c-2.4,26.5-5.6,28.8-32.6,28.8c-15.1,0-30.3-8.9-45.4-0.1
		c4.2,4.4,5.4,10.1,7,15.6c0.6,1.9,1,3.8,1.3,5.7c1.9,13.3,5.1,26.2,11.8,38.2C242.3,627.5,246.2,633.9,241.8,641.2z"/>
	<path class="st1" d="M336,445.9c-15.6-9.1-21.5,3.2-28.3,13.1c-12.4,18-14.4,39.9-21.9,59.7c-3.1,8-0.8,21.3-10.4,23.1
		c-15,2.8-31,1.4-46.5,0.7c-5.7-0.3-2.8-6.1-2.5-9.5c3.5-32.5,55.4-92.3,86.8-100.3c18.8,5.7,38.7-3,57.5,4.2
		C360.7,445.9,347.5,442.5,336,445.9z"/>
	<path class="st55" d="M328.5,461.3c1,0,2,0,3,0c10.3,18.9-5,34.8-5.2,50.6c4.6-14.1,6.5-31,11.9-46.9c6.7-19.9,16-24.9,36.8-20.1
		c14,18.6,15.6,40.4,16,62.5c5.1,15-1.7,22.8-15.6,27.3c-17.8,5.8-36.7,5.8-54.5,11.8c-11.6,4-11.5-3.6-8.6-11.7
		C317.6,510.3,323.1,485.8,328.5,461.3z"/>
	<path class="st1" d="M222.5,578.1c-5.6-4.3-3-10.6-3.7-16.1c22.9,5.9,45.8,11.3,69.5,12.8c-4.9,20-6.2,40.5-9.4,60.8
		c-1.6,10.2-4.8,17.9-17.5,13.4c-7.5-0.2-13.9-3-19.5-7.9c-6.3-19.6-20.6-36.7-19-58.8c11-1.9,21.7,1.3,33.7,2
		C244.6,581.6,232.7,584.2,222.5,578.1z"/>
	<path class="st56" d="M382.8,586c-9.7,29.5-30.2,47.9-58.9,58c-7.5-16.7-2.4-33.4,8.5-44.1C345.2,587.2,363.1,579.8,382.8,586z"/>
	<path class="st57" d="M308.6,574.5c26.5-5.5,53.8-6,79.6-14.1c4.2,7.7-1,12.4-2.1,17.7c-12.8,6.1-26.5,9-40.6,10
		c-15.8,1.2-25.1,7.9-23.7,25.4c0.9,10.8-2.2,21.6-1.8,32.5c-3.3,3.5-7.5,2.3-11.4,2.2C299.7,623.7,307.8,599.1,308.6,574.5z"/>
	<path class="st58" d="M312.2,534.8c2.1,2.6-2,12,5.5,7.9c17.6-9.7,37.5-6.9,55.8-12.5c12.2-3.7,19-9.5,17.5-22.8
		c7.8,26.7,6.3,30.2-18.9,36.8c-14.9,3.9-30.1,7-45.2,9.8C308.4,557.5,306,554.2,312.2,534.8z"/>
	<path class="st59" d="M320,646.1c-8.7-17.9-2.5-36.2-1.5-54.3c0.3-5.4,5.8-5.8,10.4-6.3c19.1-2.3,38.1-4.9,57.1-7.3
		c-1.1,2.7-2.2,5.3-3.2,8c-14.1,3.9-28.2,7.9-42.3,11.7c-11.6,3.2-9,14.3-11.9,22c-2.9,7.6-3.3,16.1-4.8,24.2
		C322.6,644.7,321.3,645.4,320,646.1z"/>
	<path class="st60" d="M261.3,649c8.6-0.1,12.4-3.9,12.3-13.1c-0.1-14.1,5.8-27.8,3.5-42.1c-1.6-9.9,8-12.3,11.1-19
		c9,7.2,4.3,17,3.3,25c-1.3,10.3-2.2,20.5-2.3,30.8C288.9,654.7,286.3,656.3,261.3,649z"/>
	<path class="st61" d="M375,445c-20.5,0-30.9,11-35.4,30.3c-3.3,14-8.5,27.6-14.6,41c2.2-18.3,4.3-36.6,6.5-54.9
		c1.5-5.1,3-10.3,4.5-15.4c9.2-11.9,23-6.7,34.7-9.1C373.4,438.9,375.1,441.4,375,445z"/>
	<path class="st62" d="M308.6,574.5c0,24.6,0,49.2,0,73.8c-2.7,0-5.7-0.6-5.9-3.7C301.5,621,300.7,597.3,308.6,574.5z"/>
	<path class="st63" d="M303.8,404.5c10.1,0.9,20.5,0.3,32.8,9.7C321.6,415.3,311.6,414.4,303.8,404.5z"/>
	<path class="st64" d="M222.5,578.1c12.6-2.2,24.1,1.9,40.8,6.4c-17.2,2.1-29.2,5.4-40.5-2.1C222.7,580.9,222.6,579.5,222.5,578.1z"
		/>
</g>
</svg>
