<?xml version="1.0" encoding="utf-8"?>
<!-- Generator: Adobe Illustrator 23.0.1, SVG Export Plug-In . SVG Version: 6.00 Build 0)  -->
<svg version="1.1" id="Layer_4" xmlns="http://www.w3.org/2000/svg" xmlns:xlink="http://www.w3.org/1999/xlink" x="0px" y="0px"
	 viewBox="0 0 1000 1000" style="enable-background:new 0 0 1000 1000;" xml:space="preserve">
<style type="text/css">
	.st0{fill:#41481A;}
	.st1{fill:#FE5C00;}
	.st2{fill:#778235;}
	.st3{fill:#2E330F;}
	.st4{fill:#C0C0C0;}
	.st5{fill:#FEC64B;}
	.st6{fill:#BFBFBF;}
	.st7{fill:#6D6D6D;}
	.st8{fill:#C7CF95;}
	.st9{fill:#788335;}
	.st10{fill:#FCC74B;}
	.st11{fill:#294E5B;}
	.st12{fill:#162C34;}
	.st13{fill:#FC0202;}
	.st14{fill:#FAC64B;}
	.st15{fill:#800000;}
	.st16{fill:#91B0C4;}
	.st17{fill:#F9F9F9;}
	.st18{fill:#F7F7F7;}
	.st19{fill:#294D5A;}
	.st20{fill:#FDFC5C;}
	.st21{fill:#373E43;}
	.st22{fill:#F70101;}
	.st23{fill:#90AFC3;}
	.st24{fill:#2C5260;}
	.st25{fill:#788235;}
	.st26{fill:#FDFB5C;}
	.st27{fill:#CCD39A;}
	.st28{fill:#2B515F;}
	.st29{fill:#38444D;}
	.st30{fill:#F5F6F6;}
	.st31{fill:#2D320F;}
	.st32{fill:#302A2A;}
	.st33{fill:#F8F3F3;}
	.st34{fill:#C8D098;}
	.st35{fill:#2E2624;}
	.st36{fill:#F4ECEC;}
	.st37{fill:#6B918E;}
	.st38{fill:#6C9390;}
	.st39{fill:#668A87;}
	.st40{fill:#6F9A97;}
	.st41{fill:#6F9996;}
	.st42{fill:#84A3B5;}
	.st43{fill:#6A8F8C;}
	.st44{fill:#32302E;}
	.st45{fill:#302826;}
	.st46{fill:#030301;}
	.st47{fill:#2F3410;}
	.st48{fill:#11100D;}
	.st49{fill:#070705;}
	.st50{fill:#0A0906;}
	.st51{fill:#070803;}
	.st52{fill:#060603;}
	.st53{fill:#070704;}
	.st54{fill:#090905;}
	.st55{fill:#0B0402;}
	.st56{fill:#CBD399;}
	.st57{fill:#070301;}
	.st58{fill:#101010;}
	.st59{fill:#0E0E0E;}
	.st60{fill:#313131;}
	.st61{fill:#1F1F1F;}
	.st62{fill:#4B4B4B;}
	.st63{fill:#0C0C0C;}
	.st64{fill:#2E2826;}
	.st65{fill:#729E9B;}
	.st66{fill:#312926;}
	.st67{fill:#6C928F;}
	.st68{fill:#688B88;}
	.st69{fill:#312A28;}
	.st70{fill:#322C2A;}
	.st71{fill:#709A97;}
</style>
<g>
	<path d="M712,697.1c-2.2,13.3-5,17.1-19.6,6c-39.5-29.8-65.3-66.6-71.3-116.2c-0.9-7.6-6.7-3.8-10.4-5c-14.6-4.6-22-13.8-25.3-29.7
		c-4.6-22.9-2.8-44.7,4.6-66.4c-7.6-3-12.2,5.8-19.2,1.1c-18.3-12.3-31-3.4-43.9,11c-12.7,14.1-28.3,26.4-47.7,28.8
		c-11.7,1.4-14.1,7.9-14.1,16c0.1,12.6-4.4,23.5-9.4,34.3c-7.3,15.9-3.6,28.3,11.7,36.1c20,10.2,42.2,17,54.2,38.9
		c6.7,12.2,9,25.8,4.2,36.9c-5.4,12.4,1.4,14.4,8.6,17.8c50,23.6,71.3,67.2,82.8,117.9c3.5,15.2,8.9,32.5,2.9,45.4
		c-12.9,27.7-1.5,57.1-10.4,84.6c-3.4,10.6-10.7,6.5-15.4,5.8c-29.3-4.2-58.2-9.3-86.6-18.6c-27.1-8.8-52.5-20.2-77.9-34.9
		c2.5,17.7-5.4,17-17.2,10.6c-45.4-24.9-68.9-65.4-80.2-114c-1.8-7.6-3.1-12.1-10.5-16c-11.4-6-16.7-17.9-16.9-30.2
		c-0.3-17.8-3.3-36.1,3.6-53.5c5.9-14.8,0.3-24.5-14.2-28.6c-21.6-6-40.9-16.1-57.1-31.3c-10.6-9.9-12.7-2.9-14.6,5.7
		c-7.9,35.6-15.5,71.2-23.6,106.8c-4.8,20.8-9.7,41.5-15.8,62c-5.5,18.7-25.8,23.3-37,9.7c-23.1-27.8-39.9-59.7-60.2-89.3
		c-11.3-16.6-22.5-33.3-32.5-50.8c-13.5-23.8-10.8-40.5,8.1-60.5c24.9-26.3,49.4-53,75-78.5c7.9-7.9,9.6-14.3,3.8-23.2
		c-19.9-30.6-24.3-64.8-23.3-100.3c1.1-41.7-3.4-83.6,7.7-124.8c6.3-23.5,19.5-35,43.9-35.3c62.3-0.9,115.8,22.2,163.1,60.9
		c8,6.6,10.9,4.2,17.1-1.2c16.6-14.6,33.5-28.8,56.5-32.6c7.9-1.3,9.4-6.6,7.8-14.4c-13.4-64.2-1.4-125.7,23.1-184.9
		C448.6,63.6,462.8,57,494,62.7c45.9,8.4,90.4,20.5,128.8,49.6c25.7,19.4,42.5,45,55.6,73.1c5.9,12.7,10.4,18,25.7,14.3
		c35.5-8.5,71.8-13.9,107.5-21.6c23.5-5.1,38.3-1,51.1,19.5c28.6,46,46.7,96.9,65.6,147.3c5.2,13.8-7.7,26.5-26.2,26
		c-26.7-0.7-51.8-10.7-77.7-15.9c-30.8-6.2-61.1-14.5-91.5-22.2c-8-2.1-8.9,0.8-10.6,8.1c-3.2,13.6-3.3,27.4-6.6,41
		c-3.9,16.4,7.2,24.3,23,28.5c25.8,6.9,51,15.8,62.4,43.8c1.2,2.9,3,5.6,3.5,8.6c4.7,28,4.6,28.1,23.3,46.6
		c28,27.7,39,63.3,42.5,100.6c2.1,22.6,2.7,45.9-2,69.2c-2.7,13.1,5.9,27.8,8.5,42.1c2.5,13.7,0.7,27,2.1,40.4
		c0.6,5.7-2.7,10.3-7.4,7.4c-11-6.7-23-5.1-34.5-7.4C789.3,752.3,751.8,722.8,712,697.1z"/>
	<path class="st0" d="M636.8,152.3c42.1,60.2,74.2,123.9,70.2,200.3c-0.2,3.9-0.4,7.8-3.6,10.7c-14.2,14.1-24.8,31.4-40.1,44.6
		c-17.7,15.3-35.5,30.2-56,41.5c-16.3,9-33,17-52.5,15.2c-8.7,0.2-9-6.3-8.7-12c0.2-4.7,4.9-2.8,7.8-3.1c37.5-4.3,65.5-29.2,75-66.7
		c3.2-32.7-0.5-63.8-21.1-91c-4.9-6.9-9.9-15-20-10.8c-13.9,5.9-7,18.9-8.3,29c0.1,4.5,0.9,8.9,1.9,13.3c1.9,8,5.4,17-4.4,22.3
		c-8.6,4.6-17.5,3.5-25.6-1.8c-8.1-5.3-14.4-12.7-21.1-19.6c-7.2-16.6-22.8-15.8-37.1-17.8c-7-5.9-10.6-12.8-5.6-21.8
		c10.6-3.6,21.3-7,32.7-7.3c44.4,1.4,97.2-30.5,110.9-67.1c-7.2-1.6-9.1,5.2-12.7,8.4c-34.7,30.5-73.7,52.6-119.1,62.1
		c-5.7,1.2-12.5,6-17.9-1.3c-21-55.7-5.9-105.5,25.8-152.2c7.7-11.4,20.2-15.2,34.1-15.6C579.4,110.7,610.4,126.1,636.8,152.3z"/>
	<path class="st0" d="M402.4,555c17.3-2.5,30.3-12.9,43.2-23.6c3.3,22.4-10.9,35.8-25.6,48.3c-42.6,36-91.3,60.3-145.9,72.2
		c-8.2-6.1-16.7-11.7-24.4-18.4c-10.3-9-17.4-17.1-17.6-34.7c-0.4-30-14.5-57.1-44.7-71.3c1.7-3.6,5-5.5,8.5-6.9
		c1.8-0.6,3.6-1.1,5.5-1.4c8.8-1.3,19.3-1.5,19-13.7c-0.3-11.4-8.3-16.2-19.3-16.1c-5-0.4-9.9-0.8-13.9-4.3c-3-9.2-1.2-18,1.9-26.7
		c4.8-6.5,12.8-6.9,19.3-7.7c42.9-5.1,71.5-32.4,91.7-53.2c-22,26-57.3,50.1-103.4,55.6c-4.1,0.5-9.1,3.5-11.8-2.7
		c-0.2-34.4,1.7-68.6,10.3-102c4.8-18.8,16.5-27.5,36.4-29.3c32.8-3,63.3,2.1,89.5,23.8c4.5,3.8,9.7,6.3,15.1,8.6
		c6.5,7.8,12.9,15.7,19.4,23.5c4.4,8.9,12.7,17.2,3.5,27.8c-1.8,0.7-3.8,1.1-5.6,0.4c-10.1-4.1-20.1-6.3-28.1,3.7
		c-9,11.3,1,18.9,5.9,27.4c2,4.1,3.4,8.4,5,12.7c2.7,7.1,3.5,13.8-2.6,19.8c-6.2,6.1-12.8,4.8-19.6,1.1c-5.2-2.8-10.4-5.2-16.3-6.2
		c-3.1-0.6-6.1-1.9-9.2-2.5c-11.1-2-21.2-0.1-24.5,12c-3.4,12.3,6.4,16.4,15.7,20c2.4,0.9,4.8,1.6,7.2,2.6
		c14.2,4.9,18.7,15.2,19.3,29.8c1.2,33.8,16.4,44.7,51.1,44.3C374.2,567.5,388.6,563.8,402.4,555z"/>
	<path class="st1" d="M495.8,733.7c16.6-26.3,16.6-26.3,41.6-9.4c47.3,32,68.1,77.2,67.5,133.1c-4.5,1.8-6-0.9-7.5-2.7
		c-1.7-2-2.7-4.5-6.7-4.8c0.2,2.4-0.1,5,0.6,7.3c5.8,18.1,9.3,37.4,7.1,55.4c-1.2,10.1-8.9,19.7-1.6,30.8
		c-40.8,5.1-117.8-23.4-181.5-66.8c0,8.5,0,16.2,0,26.9c-27.8-21.7-47.9-46.5-60-77.8c-12.2-31.5-12.4-31.5,20.8-34.2
		c4.5-0.4,9-0.7,13.6-1.1c3.9,1.6,5.9,5,7.5,8.6c4.8,10.5,7.2,23.3,24.7,16.2c5.3-2.1,11.6,4.7,17.1,8.2
		c23,14.7,44.6,31.6,69.8,42.8c5.7,2.5,10.9,7.2,18.7,6c0.1-22.7-10-42.8-15.6-63.9c-0.5-1.9-1.5-3.6-2.1-5.5
		c-2-6.7-7.5-14.3-1.6-20.1c5.5-5.6,11.6,3,19.2,3.3c-2.6-14.2-10.8-24.6-19.5-34.8C503.2,745.7,496.8,741.5,495.8,733.7z"/>
	<path class="st1" d="M773.4,530.5c19.1-32.8,27.3-33.6,50.9-3c26.9,35,35.5,75.2,30.8,123.2c-5.6-8.7-9.4-14.5-13.1-20.3
		c-1.8,1.2-3.6,2.5-5.4,3.7c9.1,38,27.2,74.1,27.5,114.9c-14.3-3.7-24.6-13.1-36.8-19.4c-6.8,4.1,3.3,8.8-1.7,14.4
		c-46.2-18.2-87-45.8-124.6-81.4c-2.5,6.6-4.4,11.8-6.8,18c-28.5-19.8-44.6-46.8-54.7-78.6c-5-15.6-1.7-21.8,14.7-20.5
		c4.5,0.4,9.1,0.1,13.6,0.2c13,6.4,13.7,21.4,21.8,31.2c4.9,5.9,7.2,15.8,19.2,7.6c6.8-4.7,13,3.3,18.2,7.9
		c20.7,18,43.9,32,70.3,46.3c-1-24.4-4.7-46.1-10.5-67.7c-1.7-6.4-9.9-16.2,5.8-18.8c5.6-0.9,0.5-6.2,0.3-9.3
		C791.5,560.7,778.2,547.3,773.4,530.5z"/>
	<path class="st0" d="M883,351.3c-39.9-5.7-78.9-15.3-117.4-27c-22.9-10.9-40.2-27.4-50.5-50.9c-4-11.7-7.9-23.5-11.9-35.2
		c5.8-6.2,13.7-7.5,21.3-8.2c27.2-2.4,53.8-9.1,81-10.5c2.1-0.1,4.2,0.2,6.2,0.8c4.9,2,8.3,5.6,11.4,9.7
		c23.7,31.7,39.7,67.8,59.1,102C884.8,338.3,888.5,344.6,883,351.3z"/>
	<path class="st2" d="M195,523.6c-1.6,3.3-4.8,3.3-7.7,3.9c-29.6-2.6-38-10.5-47-44.4c-11.5-43.3-8.6-87.3-5.7-131.2
		c0.9-13.5,1.8-27.2,4.5-40.4c5.4-26.5,13.5-32.7,40-31c8.1,0.5,17-1.4,24.4,4.3c-7.3,7.7-17,5-25.7,5.5
		c-11.5,0.6-20.8,4.3-23.8,16.1c-10.5,41-11.4,82.8-9.3,124.9c6.1-16.3,8.6-33.1,10.5-50.1c4.2-36.9,21.8-63.2,58.1-75.1
		c8.1-2.7,16.1-5.5,20.8-13.3c39.9,9.2,72.8,30.5,102,58.5c-6.9,4.7-10.4-1.8-14.7-4.7c-27.5-18.5-57.5-25.8-90.6-22.8
		c-18.2,1.7-28.5,10.5-31.6,28.4c-4.1,23.6-8.8,47-8.4,71.2c0.2,9.6-2.5,19.2-3.9,28.8c-6.4,7.7,8.6-1,4.1,5.3
		c-0.3,8.9,3,18.2-3.9,26.1c-8.1,11-17.2,22,1,32.2C190.8,518.1,193.6,520.2,195,523.6z"/>
	<path class="st2" d="M487.9,285.7c0.5,7.5,2.3,14.4,8.9,19c1.3,8.2,2.5,16.4-1,24.5c-6.7,3.2-10.5-2.4-15.3-5.1
		c-7.7-6-14.7-13.1-23.1-17.7c-27.1-14.9-35.6-41-34.3-67.7c2.3-47.2,8.6-94.3,27.4-138.6c5.6-13.1,13.9-22.8,29-21.5
		c61.3,5.3,116.9,23.5,157.2,73.8c-21.7-12.1-41.2-27.5-67-32.6c-41.5-8.3-62.3,1-77,40.6c-14.7,39.3-22.9,79.3-8.6,120.8
		C484.2,283.6,487.5,283.5,487.9,285.7z"/>
	<path class="st3" d="M355.7,402.2c9.4-9.2-2.6-18.2-0.2-27.3c18.1,14.7,31.5,31.4,27.5,57.1c-2.3,14.7,4.2,24.8,19.2,29
		c12,3.4,14.2,14.1,15.7,24.3c1.5,11-2,21.4-11.6,27.1c-8.7,5.2-17.5,6.3-23.8-6.3c-11-22.1-24.8-27.4-43.7-19.1
		c-16.8,7.4-26.9,30.6-21.3,49.2c4.9,16.2,23.2,26.4,42.5,21.2c14.3-3.8,28.3-2.1,42.4-2.5c-13.7,16.4-49.6,24.9-71,16.8
		c-21.9-8.3-31.5-22-30.1-50.3c0.7-14.2-7.9-18.9-16.2-25.5c6.5-12.2,12.2-24.7,11.7-39c7.4-0.7,13.7,2.2,19.5,6.3
		c4.3,3,7.9,6.5,13.3,1.8c5-4.3,6.7-8.7,3-14.9c-3-4.9-5-10.3-4.7-16.2C343.3,428.8,357.1,422.2,355.7,402.2z"/>
	<path class="st0" d="M187.3,543.3c7.8,4.3,14.2,9.7,16,19c6.8,12.7,5.6,26.1,3.8,39.8c-7.5,56.4-21.3,111.6-31.2,167.5
		c-0.5,5.2,1.3,10.9-3.2,15.2c-8.7-5.1-11.6-14.3-16.3-22.3c-10.2-23.1-23.1-44.7-36.4-66.2c-3.3-5.4-8.7-9.8-8.2-17.1
		c9.5-25.1,27.8-44.8,42-67C167.6,590.5,178.1,567.3,187.3,543.3z"/>
	<path class="st4" d="M336,777c-18.8-5.5-14.9-21-15.2-34.6c1.7-25.2,21.9-28.6,40.2-34.3c3.5-1.3,6.9-2.8,10.3-4.1
		c31.8-7.1,55.2-26.3,75-51c7-7.5,5.7-24.3,22.8-20.7c12.8,6.3,25.1,13.5,34.2,24.7c7.4,9.2,13.6,19.2,5,31.3
		c-8.9-0.1-11.5,7.6-15.5,13.1c-32.2,44.9-76.4,66.8-131,69.3C352.9,771,343.5,770.5,336,777z"/>
	<path class="st5" d="M773.4,530.5c16.6,13.8,21.5,33.4,26.1,53c2.7,11.3-0.3,15.4-14.5,4.2c12.9,32.7,14.7,62.4,20,95.5
		c-31.5-14.1-57.5-31.2-81.4-51.7c-13.6-11.6-13.5-11.7-21.6,3.8c-16.6-14.8-25.4-34.3-34.2-53.7c14.3-2.3,28.6-4.6,42.9-6.9
		c12.3,14.6,32.3,12.8,47.9,22c4.6-16.2-11.8-30.6-5.2-47.2C758.4,541.5,766.5,536.7,773.4,530.5z"/>
	<path class="st5" d="M495.8,733.7c20.7,15,34.3,34.3,38.4,62.4c-9.4-4.8-16.7-8.6-25.9-13.3c9.9,32.6,23,62.9,25.9,97.5
		c-22-4.5-40-15.7-57.9-26.4c-15.6-9.3-30.6-19.6-45.4-30.2c-10-7.1-17.3-9.3-18.9,10c-11.7-15-18.5-28.4-22.3-43.4
		c13.3-3.9,26.7-7.8,40.1-11.7c10,5.4,15.9,19.2,32.4,11.2c6.4-3.1,12.7,11,23.6,15.8c-6.5-21.2-9.6-41-1.8-60.6
		C487.8,741.2,491.8,737.5,495.8,733.7z"/>
	<path class="st3" d="M480.6,324.1c4.9,1.3,9.8,2.6,14.7,3.8c13.3,3.3,24.8-1.6,36.1-7.6c6.7,6.1,13.6,12,20.1,18.3
		c7.1,6.8,16,7.1,23.6,3.7c9.8-4.4,1.5-12.2,0.9-18.5c-0.5-5.1-1.1-10.2-1.6-15.4c19.2,6.8,30.1-1.4,35.5-19.6
		c12.5,9.6,19.1,22.2,19,38c-0.1,6.7,1.9,12.5,4.6,18.4c6,13.4,5,26.1-4.6,37.6c-6.9-16.1-15.1-29.7-36.5-27.8
		c-17.3,1.6-29.3,11.7-29.7,29c-0.2,9.7-0.2,17.9-12.2,20.4c-11.3,2.4-21.6-2-24.4-11.1C517.4,365.8,494.8,347.8,480.6,324.1z"/>
	<path class="st6" d="M769.6,441.3c7.6,2.8,13,7.9,15.6,15.7c-9.3,63.6-43.5,95-108.4,104.3c-21.2,3-42.6-2.3-63.3,4.1
		c-9.1-4.5-11.7-12.7-12.8-21.9c-2.2-26.9,0.8-29.2,27.6-26.4c14,1.5,27.6,4.6,42.4,3c30.9-3.5,48.8-22,63.2-46.4
		c4.6-7.8,7.7-16.6,12.9-24.1C752.4,441.7,759,435.9,769.6,441.3z"/>
	<path class="st7" d="M769.6,441.3c-11.7-0.6-17.3,7-21.8,16.2c-5.6,11.6-10.6,23.6-18.5,34.1C702.6,527,666.3,530,626.5,523
		c-23.9-4.2-24-4-25.8,20.6c-7.6-16.7,0.9-32.9,2.4-49.2c0.7-7.6,7.2-4.3,12.3-3.3c45.9,9.2,84.7-12.9,99.6-57.8
		c3.7-11.1,8-12.1,18.1-9.3C746.5,427.7,758.4,433.5,769.6,441.3z"/>
	<path class="st8" d="M234.1,292.9c3.1,5.7,5,11.7-3.7,13.3c-59.6,10.8-69.9,55.7-74.8,105.6c-1.2,12.1-0.1,25.7-9.5,37.8
		c-9.5-14.2-10.5-28.8-9.2-43.6c2.6-29.7,4.2-59.6,8.5-89c4.2-28.7,11.8-33.3,40.7-32.1c5.8,0.3,11.6,0,17.4,0
		C213.8,287.6,223.9,290.2,234.1,292.9z"/>
	<path class="st9" d="M187.3,543.3c1.1,24-11.6,42.7-24,61.5c-16.5,24.9-33.1,49.8-49.7,74.7c-7.4-1.1-12.1-6.4-17.5-10.7
		c-3.8-5.9-8.3-11.2-12-17.2c-0.9-3.3-0.7-6.6,1.4-9.3c28.5-35.8,56.3-72.2,90.4-103.1C179.7,540.5,183.5,541.9,187.3,543.3z"/>
	<path class="st10" d="M274,651.9c1.4-8.2,8.6-6.6,13.8-8c47.6-12.8,90.6-34.4,127.7-67c13.9-12.3,28.8-24.6,30.2-45.5
		c6.8-4.1,5-0.2,4.5,4.3c-4.6,41.5-31,68.8-61.8,92.3c-17.5,13.4-38,22.1-59.4,28C309.9,661.2,291.8,659.6,274,651.9z"/>
	<path class="st11" d="M461,324.3c14.3,11.1,18.7,19.7-0.7,32.2c-16.6,10.8-16.5,31.1-15.2,49.6l0.2-0.1
		c-13.4-11.6-26.7-23-45.8-10.9c-4.6,2.9-6.6-1.4-8.9-4.4c-6.4-8-12.8-15.9-19.2-23.8c15.2-26.8,42.2-33.2,69.1-39.6
		C447.1,325.8,454.5,327.9,461,324.3z"/>
	<path class="st12" d="M445.1,406.1c21.4,14.4,42.8,28.8,66.8,39c1,30.7-22.4,56.4-50.3,55.3c0.8-32.5-14.4-62.3-16.3-94.4
		C445.3,406,445.1,406.1,445.1,406.1z"/>
	<path class="st13" d="M86.3,649.8c6.3,4.3,10.6,10,12,17.6c7.7,6.4,13.5,14.1,15.7,24.2c1.8,22.8,13.3,41.6,25,60.2
		c9,14.3,17.3,28.8,23.8,44.3c2.6,6.3,5.2,13.4,1.6,20.5c-6,3.1-8.8-2.4-10.7-5.4c-17-26.8-37.2-51.6-50.1-80.8
		c-9.8-15.7-18.3-32.1-27.5-48.1c-6.5-11.3-6.4-22.1,4.3-31.3C82.2,649.9,84.2,649.5,86.3,649.8z"/>
	<path class="st14" d="M554.8,464.7c53.2-12,92.6-45.1,127.7-84.4c7.1-8,12.7-17.4,19.3-26.6c0.6,3.4,1.1,6.5,1.6,9.6
		c-1.7,11.6-3.9,23.1-11.7,32.4c-23.1,27.4-49.3,50.8-82.3,66.1C591.2,470.3,573.4,471.5,554.8,464.7z"/>
	<path class="st15" d="M820.6,231.1c-2.5-2.6-5.1-5.1-7.6-7.7c17.4-8.7,34-6.6,43.7,9.2c22,35.8,38.3,74.5,51.1,114.6
		c0.8,2.5,0.1,5.1-1.1,7.5c-8.4,2.1-16.4,1-23.8-3.4c-1.4-6.3-2.8-12.5-4.2-18.8C863.6,296.3,847.5,260.6,820.6,231.1z"/>
	<path class="st16" d="M374.5,546.1c-6.8,1.8-12.5-1.2-18-4.6c-7.1-4.3-12.4-10.3-8.7-19.1c4-9.5,11.5-5.2,18.1-3.2
		c33.1,9.7,51.6,3.1,58.8-21c4.7-16-1.5-29-11-41.1c-1.6-7.5-5-16.3,6.3-18.7c9.8-2.1,16.1,4.3,19.5,12.7
		c19.7,48.7-4.3,87.3-53.5,93.7C382.2,545.3,378.2,544.4,374.5,546.1z"/>
	<path class="st7" d="M363.8,711.5c-17.1,6.4-36.4,9.8-43,30.9c-1.8-8.4-0.8-16.7,0.6-25c2.7-15,5.4-23.5,26.9-24.9
		c36.2-2.4,67.1-23.8,88.6-53.4c10.8-15,18.9-16.4,32.3-6.8c-14.5,1.7-10.4,18.3-19.4,24.3c-7.5,1.6-12.1,7.4-17.1,12.3
		c-19.4,19.1-42.2,32.2-68.9,38c-5.4-0.8-10.7,3.8-19.9-0.9C352.3,711.3,359.6,704.7,363.8,711.5z"/>
	<path class="st17" d="M336,777c1.4-13.6,12.6-10.9,20.4-10.9c43.5,0,80.8-15.2,113-43.9c11.2-10,18.6-23,27.1-35.2
		c4.2-6.1,9.2-11.6,11.8,1.2c-21.9,48.2-62.8,72.4-111.1,85.7C377.6,779.3,356.8,783.7,336,777z"/>
	<path class="st18" d="M613.5,565.5c1.4-8.5,8.2-7.1,13.7-6.9c20.8,0.8,41.2-2.6,61.8-3.5c43.1-1.9,78.9-44.9,88-79.4
		c1.8-6.8,1.3-14.2,8.2-18.7c9,32.3-10.1,54.3-29.6,74.4C715.9,572.4,665.6,573.4,613.5,565.5z"/>
	<path class="st3" d="M175.9,769.6c-0.5-39.5,11.6-77.1,17.1-115.8c4.3-30.4,11.4-60.5,10.3-91.5c13.1,11.8,19.1,27.5,14.3,43.5
		c-15.7,52.4-24.1,106.5-38.4,159.1C178.6,766.7,177,768.1,175.9,769.6z"/>
	<path class="st19" d="M602.5,390.2c5.6,19-8.1,42.3-28.9,49.4c-20.7,7-74.2-7.1-88.9-23.5c-4.3-4.8-11-9.8-5.4-16.5
		c5-6,11.5-13.5,21.2-6.1c5.3,23.5,26.3,23.8,43.5,28c19.2,4.7,35.3-2.9,48-17.9C595.6,399.3,596.6,392.8,602.5,390.2z"/>
	<path class="st20" d="M483.8,745c3.1,23.1-1,46.7,8.9,69.6c-11,0.4-13.2-8.2-18.7-9.9c-5.9-1.8-8.7-25.2-19.4-3.4
		c-1.5,3.2-9.1-2.3-12.6-5.9c-4.8-5-11.4-8.8-12.4-16.7C449.3,770.1,466,756.6,483.8,745z"/>
	<path class="st21" d="M371.2,675.9c-14,9.3-28.7,10.2-43.8,2.9c-2.8-1.3-6.3-3.4-4.7-7.2c0.7-1.7,3.9-2.6,6.1-3.3
		c55.1-18.2,57.3-19.6,106.8-68.7c2.9,8.1,3,14.8-1.1,21.6C417.2,643.7,391.9,657.2,371.2,675.9z"/>
	<path class="st22" d="M906.8,354.6c-10.9-39.4-28.6-75.8-47.4-111.8c-9.8-18.9-27.1-22.1-46.4-19.5c0,0-1.3-0.4-1.3-0.4
		c-4.5-5.5-17.5-7.1-8.5-18.8c13.5-3.8,26.9-9.2,40.8-1.8c18,20.3,26.8,45.7,37.8,69.8c9.6,21.2,17.8,43.2,26.3,64.9
		C910.3,342.8,913.9,349.3,906.8,354.6z"/>
	<path class="st23" d="M461,324.3c0.2,5.6-2.5,8.8-8,8.4c-33.1-2.5-57.7,15.2-81.7,34.3c-2.8-3.6-5.5-7.2-8.3-10.9
		c-2.5-9.9,5.5-13.7,11.1-18.6c18-16,39.1-25.2,63-28.1C446.7,311.6,453.2,319,461,324.3z"/>
	<path class="st24" d="M374.5,546.1c13.4-4.2,27-7.3,39.1-15.3c28.2-18.5,36.8-49.2,21.2-79.1c-3.1-6-6.6-12-14.4-10.4
		c-8.9,1.8-6.7,9.6-6.8,15.8c-7-10.8-7.8-21.7,5-27.5c12.5-5.6,19.4,4.2,23.2,14.2c16.9,44.2,15.3,80.3-27.2,99
		C401.5,548.6,388.1,547.9,374.5,546.1z"/>
	<path class="st25" d="M800.5,208.7c3.7,4.7,7.5,9.5,11.2,14.2c-36.2,5.1-72.3,10.2-108.5,15.3c-1.5-3.7-3.1-7.5-4.6-11.2
		c1.6-4.9,5.2-7.2,10.1-7.8c28.1-3.9,55.5-11.6,83.8-14.9C795.9,204.3,799.2,204.7,800.5,208.7z"/>
	<path class="st26" d="M753.4,549.6c4.1,16.2,11.2,31.8,12,48.8c0.2,4.9-2.1,13.9-7.2,7.4c-7.8-10-17.3-9.6-27.2-12.3
		c-9-2.5-18.5-7-20.2-18.7C725,566.4,739.2,558,753.4,549.6z"/>
	<path class="st23" d="M602.5,390.2c-7,26.3-30.5,41.8-56.7,37.1c-17.9-3.2-35.7-7.2-47.9-22.4c-3.4-4.2-9.1-10,2.5-11.4
		c6.1,4.7,11.8,9.8,18.2,13.9c19.4,12.7,41.4,9.1,58.4-8.3C583.7,392.4,590,381.7,602.5,390.2z"/>
	<path class="st15" d="M164.4,816.6c-3.9-23.5-17.8-42.3-29.6-62.1c-11.8-19.7-25.6-38.8-24.7-63.5c8.7,0.8,10.5,8.8,13.9,14.5
		c11.5,19.2,23.8,37.9,36.1,56.6c4.2,7.6,8.3,15.2,12.5,22.8C171.2,795.8,170.3,806.9,164.4,816.6z"/>
	<path class="st27" d="M86.3,649.8c-1.3,0.6-2.5,1.2-3.8,1.8c-3.9-1.1-6.6-3.6-8.1-7.3c27.2-36.7,58.9-69.4,91.3-101.4
		c2.8-2.8,5.9-5,10.2-3.7c-27.8,33.7-55.6,67.4-83.3,101.1C90.2,643.2,88.4,646.6,86.3,649.8z"/>
	<path class="st28" d="M461.6,500.4c28-8.2,44-27.3,50.3-55.3c6.3,1.5,13.9-2.3,18.8,4.7c-2,23.7-20.2,36.8-34.6,52.3
		c-4.7,2.7-9.9,6.1-14.2,7.7C474.5,512.5,460.6,519.7,461.6,500.4z"/>
	<path class="st29" d="M617.6,472.9c30.1-14.1,54.2-36.2,77.4-59.3c10.6,2.6,6.1,9.1,3,14.2c-13.4,21.9-32.5,38.2-54.8,50
		C635.1,482.1,624.2,484.4,617.6,472.9z"/>
	<path class="st30" d="M437,309.4c-19.4,9.9-41.4,14.6-58,30.1c-5.7,5.3-12.2,9.6-16,16.6c-5.4-3.4-11.9-5.8-6.5-14.5
		C369.6,321.1,412,303.9,437,309.4z"/>
	<path class="st31" d="M715.1,273.4c15.2,18.6,32.5,35.1,50.5,50.9c-13.9,1.7-26-5.3-39-7.8c-9.4-1.8-7.2-8.8-8-14.8
		C717.4,292.2,713.2,283.2,715.1,273.4z"/>
	<path class="st32" d="M617.6,472.9c5.9,6.3,14.2,5.4,19.8,2.5c25.4-13.3,46.9-31.3,60.5-57.3c0.4-0.8-1.9-3-2.9-4.5
		c2.3-2.9,4.4-7.8,6.9-8.1c4.6-0.5,5.1,4.7,5,8.4c0,5.5,1.8,11.6-3.6,15.9c-14.1,19.9-32.5,35.3-51,50.7c-11.8,8.2-23.5,3.1-35-0.8
		C612.9,478.2,614.1,475.1,617.6,472.9z"/>
	<path class="st33" d="M74.4,644.3c5-0.1,7.8,2.3,8.1,7.3c-7.6,9.7-7,18.9-1.4,29.9c8.1,15.9,18.4,30.9,22.4,48.8
		c-17.4-17.2-28.5-38.9-40.6-59.6C56.6,660,68,652.2,74.4,644.3z"/>
	<path class="st34" d="M793,206.9c-25.2,8.4-52,9-77.6,15.6c-5.6,1.4-11.2,3-16.8,4.5c-9.1-10.3,1.1-10.3,6.7-11.3
		c28-5.5,56.1-10.5,84.2-15.7C792,201.5,795.3,202.8,793,206.9z"/>
	<path class="st35" d="M491.9,363.4c6.3,2.7,12.1,7,11.1,14.2c-1.2,8.2-9.6,3.9-14.6,5.8c-7.4,2.8-14.1,6.1-18.6,13.2
		c-2.5,3.9,1.7,15.2-8.3,10.8c-8.1-3.6-12.2-11.7-5-20.8C467.3,377.3,477.6,367.3,491.9,363.4z"/>
	<path class="st36" d="M793,206.9c-1.2-2.3-2.4-4.6-3.6-6.9c11.2-2.5,22.4-4.8,33.4-7.6c10-2.5,17.6-0.7,21.1,10.1
		c-14.5,2.1-29,4.2-43.5,6.4C798,208.1,795.5,207.5,793,206.9z"/>
	<path class="st37" d="M652.4,480.5c-4.8-6.4,2-7.6,4.9-9.6c14.7-10.5,27.1-23.1,37.8-37.6c1.9-2.6,3.2-7.9,8.3-3.5
		C693.6,454,675.7,470,652.4,480.5z"/>
	<path class="st38" d="M371.2,675.9c-3.4-2.5-1.2-4.7,0.9-6c22.8-13.8,40.8-33.7,62.5-48.8C420.8,647.9,395.6,661.5,371.2,675.9z"/>
	<path class="st39" d="M344.2,504.2c-14.2,8.8-7.1,22.9-8.2,36.4c-11-5.3-11.8-14.4-9.8-22.6c2.6-11,6.6-22.4,21.4-22.9
		c2-0.4,4.3,0.2,4.4,2.1C352.2,502.6,345.9,501,344.2,504.2z"/>
	<path class="st40" d="M491.9,363.4c-9.8,10.8-25,15.2-33.1,28c-0.8-1.6-1.5-3.3-2.3-4.9C463.8,372,469.6,355.1,491.9,363.4z"/>
	<path class="st41" d="M427,406.7c-12.5,10.3-26.3,14-29.8,31.8C392.6,413.2,400,405.4,427,406.7z"/>
	<path class="st42" d="M496.1,502.2c11.6-17.4,26.8-32.4,34.6-52.3C534.3,477.3,515.3,489.8,496.1,502.2z"/>
	<path class="st43" d="M589.9,367.2c14.3-2.9,23.4,1.6,26.5,19.8c-9.7-5.5-17.1-10.8-26.4-9C582,374.6,584.8,370.9,589.9,367.2z"/>
	<path class="st44" d="M344.2,504.2c-0.5-3.6,8.7-3.6,3.3-9c11.6-7.7,16.9,0.4,24.6,9C361,504.2,352.6,504.2,344.2,504.2z"/>
	<path class="st45" d="M589.9,367.2c-4,3.7-3.9,7.3,0.1,10.9c-3.4,6.1-9.3,4.9-15.7,7.2C575.3,373.4,580.2,368.1,589.9,367.2z"/>
	<path class="st46" d="M487.9,285.7c-1-1.7-7.8,1.2-3.7-4.6c29.8-5,56.4-18.1,83.1-31.4c26.7-13.3,46.6-35.8,74.4-55.6
		c-2.9,7.3-4,10.1-5.1,12.8c-25.5,43.4-65.2,65.1-113.2,74.1C511.6,282.5,499.7,284.1,487.9,285.7z"/>
	<path class="st47" d="M523.4,280.9c18.4-9.2,38.7-13.2,56.3-25.1c21.1-14.2,41.1-29,56.9-49c-12.7,47.9-54.2,60-93.7,73.7
		C537.8,282.3,529.9,288.3,523.4,280.9z"/>
	<path class="st48" d="M531.4,320.3c-9.5,14.7-20.5,21.8-36.1,7.6c-4.8-8.1-3.5-15.8,1.6-23.2C512.8,300.1,525.7,302.2,531.4,320.3z
		"/>
	<path class="st3" d="M668,242.1c12.1,5.9,13.8,16.4,10.7,27.5c-2.1,7.3-8,14.2-16,14.8c-12.9,0.8-20.7-7.7-26-18.6
		C651.1,263.3,663.1,257.3,668,242.1z"/>
	<path class="st49" d="M668,242.1c-1.5,22-9.7,28.1-31.4,23.7c-11.7-8.7-15.5-19.2-4.9-31C640,225.6,656.6,229.3,668,242.1z"/>
	<path class="st50" d="M609.9,288.8c-0.5,9.5,1.3,19.9-9.3,25.6c-10.3,5.5-18.4,0.2-26.2-6c-0.2-3.9-0.2-7.8-0.6-11.6
		c-1.2-11.2,3.2-19.8,14.2-22C598.7,272.6,606.8,277.6,609.9,288.8z"/>
	<path class="st51" d="M191,457.6c-3.9-0.5-7.7-1.1-11.6-1.6c1.1-4,5.1-2.2,7.5-3.7c35.9-5.9,68.1-19.6,96.3-43
		c11.4-9.5,20.4-21.1,32.1-35.7C303.4,414.5,255.8,445.3,191,457.6z"/>
	<path class="st52" d="M296.8,457.1c9.1,16.9,3.6,29.4-11.7,39c-12.1,0.3-21.7-4.7-26.5-15.7c-3.2-7.5-0.7-15,6-20.8
		C274.9,450.6,285.6,451.3,296.8,457.1z"/>
	<path class="st53" d="M355.7,402.2c7.5,24.4,1.8,30.9-27.8,31.9c-11.8-8.1-16.8-18.5-6.5-30.5C331.6,391.8,343.7,389.3,355.7,402.2
		z"/>
	<path class="st54" d="M187.2,519.8c-21.7-13.7-21.8-24.5-0.2-36c5.4,0.2,10.7,0.5,16.1,0.7c10.6,5.3,15.1,13.8,10.7,25
		C209,521.8,198.9,523.5,187.2,519.8z"/>
	<path class="st47" d="M187.2,519.8c25.1-2.4,30.2-13.6,15.8-35.4c14.6,0.6,24,8.1,23,22.7c-1.3,20.5-18.3,15.5-31.1,16.5
		C192.4,522.4,189.8,521.1,187.2,519.8z"/>
	<path class="st55" d="M820.6,231.1c32.2,26.4,49,61.7,58.2,101.4C859.4,298.7,840,264.9,820.6,231.1z"/>
	<path class="st56" d="M450,287c-19.2-13.9-21.3-33.2-20.1-52.2c2.6-42.2,10-83.8,24.8-123.6c9.4-25.3,16.4-29.3,42.7-24.7
		c9.3,1.6,19.4,1.7,27.8,7.3c-0.2,1.6,0,3.5-0.5,3.7c-60.8,25.3-66.1,81.4-74.3,135.3C447.8,250.4,450,268.9,450,287z"/>
	<path class="st57" d="M160.1,762.1c-22.7-19.4-33.9-47-50-71.1c-4-7.9-7.9-15.7-11.9-23.6c8.5-0.3,11,7.1,15.3,12
		C132.2,705.2,148.5,732.3,160.1,762.1z"/>
	<path class="st7" d="M362.7,745.2c42.5-19.8,81.1-44.7,110.2-82.5c3-3.9,7.3-9.3,12.8-4.7c7.1,5.8,5,12.4-1.2,18
		c-17,13.8-29.8,32.1-48.3,44.4c-19.5,12.9-39.1,25.2-63.2,27.3C369.5,747.9,365.3,749.6,362.7,745.2z"/>
	<path class="st58" d="M362.7,745.2c45-3.3,77-29.7,106.8-60.1c6.8-6.9,6.6-7.1,15.1-9.2c-23.3,32.6-52.4,57.7-90.5,71.8
		c-10.6,3.9-21.5,1.3-31.9,4.3c-3.1,0.9-6.1-1.4-4.6-5.3C357.9,745.7,360.9,745.7,362.7,745.2z"/>
	<path class="st59" d="M363.7,703.6c27.2-5.3,47.6-22.3,68.5-38.9c4.8-3.8,7.4-15.1,17.5-8.1c-19.9,26.1-44.3,45.2-77.4,51.3
		C368.6,708.2,363.4,711.5,363.7,703.6z"/>
	<path class="st60" d="M363.7,703.6c2.9,1.4,5.7,2.8,8.6,4.2c-2.8,1.2-5.6,2.5-8.5,3.7c-6.4-0.3-12.7-0.7-19.1-1
		c-0.2-0.8-0.4-1.6-0.6-2.4C350.7,706.6,357.2,705.1,363.7,703.6z"/>
	<path class="st61" d="M758.7,484.4c-17.7,53.1-67.7,75.8-127.3,56.3c49.2,3.9,91.7-7.3,119-52.2C752.3,485.3,754,481.8,758.7,484.4
		z"/>
	<path class="st62" d="M758.7,484.4c-2.8,1.3-5.5,2.7-8.3,4c2.4-9.2,4.8-18.5,7.2-27.7C763,468.8,763.8,476.6,758.7,484.4z"/>
	<path class="st63" d="M736,451.7c-4.3,49.6-53.6,77.1-98.9,62C696.6,504.3,696.6,504.3,736,451.7z"/>
	<path class="st64" d="M640.7,238.5c6.7-7.7,11.4-2.2,15.9,2.6c4.2,4.5,4.2,9.5,0,13.9c-4.5,4.7-9.2,10.3-16,2.8
		C639,251.4,644.5,244.9,640.7,238.5z"/>
	<path class="st65" d="M640.7,238.5c16.2,6.5,2.2,12.9-0.1,19.4C632.7,251.3,633.9,244.9,640.7,238.5z"/>
	<path class="st66" d="M598.1,285c6.4,3.8,9.8,9.1,4.8,15.8c-4.1,5.4-9.2,12.1-16.9,3.9C586,295.6,587.7,287.7,598.1,285z"/>
	<path class="st67" d="M598.1,285c-4,6.5-8.1,13.1-12.1,19.6c-5.9-5.6-6.8-12-2.1-18.4C587.7,280.9,592.8,279.7,598.1,285z"/>
	<path class="st45" d="M284.6,461.3c10.7,4.4,10.4,12.2,5.1,20c-6.5,9.5-13.7,6.6-20.3-0.7C273.4,473.3,278.7,467.1,284.6,461.3z"/>
	<path class="st68" d="M284.6,461.3c-2.9,8.2-3.4,18.1-15.2,19.3C261.8,464.2,275,464.2,284.6,461.3z"/>
	<path class="st69" d="M343.8,402.3c8.9,4.6,10.5,12.4,4.7,19.2c-5.4,6.4-13.5,6.9-20.5,0.4C327.7,410.9,337.4,407.9,343.8,402.3z"
		/>
	<path class="st67" d="M343.8,402.3c-0.6,10.3-11.7,12.1-15.8,19.6C320.3,404.9,331.5,403.1,343.8,402.3z"/>
	<path class="st70" d="M195.4,492.2c6.1,0.8,12.8,3.1,9.5,10.2c-4.1,8.9-11.9,12.8-21.5,6.2C184.3,500.8,190.6,497,195.4,492.2z"/>
	<path class="st71" d="M195.4,492.2c-0.4,8.1-5.3,12.9-12,16.4C174,493.3,184.6,492.7,195.4,492.2z"/>
</g>
</svg>
