<?xml version="1.0" encoding="utf-8"?>
<!-- Generator: Adobe Illustrator 23.0.1, SVG Export Plug-In . SVG Version: 6.00 Build 0)  -->
<svg version="1.1" id="Layer_4" xmlns="http://www.w3.org/2000/svg" xmlns:xlink="http://www.w3.org/1999/xlink" x="0px" y="0px"
	 viewBox="0 0 1000 1000" style="enable-background:new 0 0 1000 1000;" xml:space="preserve">
<style type="text/css">
	.st0{fill:#5F4200;}
	.st1{fill:#A76800;}
	.st2{fill:none;}
	.st3{fill:#525B5F;}
	.st4{fill:#B5AD8E;}
	.st5{fill:#A4B2B7;}
	.st6{fill:#3E557D;}
	.st7{fill:#666949;}
	.st8{fill:#E00000;}
	.st9{fill:#2B5260;}
	.st10{fill:#73190A;}
	.st11{fill:#90AFC3;}
	.st12{fill:#FEFEFE;}
	.st13{fill:#182131;}
	.st14{fill:#BFBFBF;}
	.st15{fill:#FDAB5D;}
	.st16{fill:#91ADDB;}
</style>
<g>
	<path d="M895.3,100.8c-0.9-2.8-4.4-3.8-7.7-3.7c-1.2,0-2.4-0.2-3.6,0.1c-8.5,2-16.9,4-25.1,7c-32.5,11.8-65.1,23.3-96.2,38.7
		c-28.4,14.1-57.1,27.8-84.4,43.9c-28.6,16.8-56.1,35.2-83,54.7c-21.5,15.6-42.9,31.5-64.5,46.9c-17.8,12.7-34.7,26.4-51.8,40
		c-16,12.8-32.7,25-47.2,39.4c-15.8,15.7-30.1,32.8-44.7,49.7c-13.1,15.2-24.5,31.3-34.4,48.6c-1.9,3.4-5.2,4.8-9.3,5.4
		c-11.2,1.9-21.4,6-31.1,12.2c-14.6,9.4-24.1,23.3-34.4,36.4c-11.5,14.7-19.5,31.3-19.3,50.7c0,3.4-2.2,3.8-4,4.7
		c-18.4,9.6-33.5,23.6-48.1,37.8c-10.2,9.9-18.7,21.9-26.3,34.1c-12.8,20.4-25.4,40.9-34.8,63.3c-8.1,19.2-16.9,38.2-23.7,57.8
		c-6.9,19.8-10.8,40.4-13.4,61.4c-1.6,12.6-0.9,24.9,1,37.1c2.9,18.3,13,32.5,28.9,41.8c16.5,9.7,33.7,17.1,53.8,12.8
		c29.8-6.4,41.3-25.9,47.6-51.3c5-19.7,3.1-40.5,5.8-60.7c2.1-16.1,5.5-31.8,10.1-47.3c10.5-35.4,29.1-66.7,48.9-97.5
		c6.9-10.8,13.4-22,15.5-35c0.6-3.7-0.3-7.3,4.9-8.1c5.4-0.8,10.5-3.6,14.9,2.8c4.2,6.1,9.7,11.1,15.5,16
		c21.3,17.8,46.8,18.4,70.3,8.9c9.4-3.8,16.8-10.5,24.1-18.3c0.4,3.2,0.4,5.2-0.3,7.6c-4.4,15.4-2.3,19.9,12,27.1
		c1,0.5,2.1,1,3.1,1.5c6.7,2.9,13.7,5.5,11.3,15.2c-0.1,0.6,0.4,1.3,0.7,1.9c4.6,14.2,16.8,19.1,29.2,22.6
		c19.2,5.5,38.8,9.5,57.8,15.5c12.3,3.8,23.9,2.5,32.4-7.8c11.3-13.8,14.6-30.1,11.9-47.6c-1.4-9.1-6.5-15.9-14.7-19.8
		c-18.2-8.6-36.9-15.8-56.3-21.8c-11.8-3.6-22.1-2.3-32.4,3.6c-3.6,2-6.2,5-9,7.8c-3.4,3.4-6.9,1.7-10.3,0.1
		c-1.4-0.7-2.8-1.5-1.7-3.9c3.1-7.1,5.8-14.4,8.8-21.6c3-7.1,3.3-13.5-1.4-20.4c-4-5.8-9.5-9.4-15-13.2c-3.4-2.4-5-4.6-3.7-9.5
		c3.6-13.8,3.5-28,0.4-41.8c-3.1-13.7-10.7-24.8-24.1-31.2c16.3-11.4,30.4-23.9,41.8-39.6c19.3-26.6,33.8-55.1,39-88
		c0.6-4.1,0.3-9.2,6.3-11.4c3.6-1.3,5.8,0.9,8.7,0.9c19.6,0.2,38.4-3.8,55.9-11.8c29.7-13.5,56.8-31,78.6-55.9
		c10.1-11.6,19.9-23.3,27.3-36.8c2.4-4.3,4.3-10.3,11.7-7.1c0.9,0.4,2.3-0.1,3.4-0.3c10.3-2.5,19.9-6.2,29.2-11.6
		c20.9-12.2,41-25.4,58.2-42.7c12.3-12.4,21.3-27.3,33.1-41c0,2.3,0.3,4.2,0,5.9c-3.2,16.7-7.5,33-15,48.4
		c-16.3,33.5-40.3,61.5-64,89.6c-8.4,10-17.3,19.6-25.1,30.2c-11.4,15.6-21.9,31.9-33,47.8c-1.1,1.6-1.8,5-5,3.6
		c-5.3-2.3-10.4-0.7-15.7,0c-24.1,3.2-44.3,12.7-56.2,35.1c-7.9,15-10.6,30.8-2.1,46.8c2,3.8,1.4,6.2-2.5,8.2
		c-9.3,5-18.5,10.2-27.7,15.4c-15,8.4-21.9,22-23.7,38.3c-2.6,23.6,25.3,45.7,46.7,46.1c14.9,0.3,29.2-3.6,40.3-13.8
		c8.8-8,14.4-18.6,12.7-31c-1-6.8-1.6-13.8-5.1-21c-5.3,5.5-10.2,10.6-15.2,15.7c-4.3,4.4-9.6,7.3-15.4,8.7
		c-3.7,0.9-8.1,0.1-9.6-3.9c-1.4-3.9,1.1-7,4.9-8.7c3.3-1.5,6.7-2.9,10-4.6c8.7-4.5,17.3-10.6,19.5-19.9c2.6-10.6,9.2-11,17.3-12.9
		c13.3-3.1,26-8.2,33.7-20.8c4.7-7.6,8.4-15.7,10.6-24.4c4.1-16.1,6.3-31.9-6.5-45.5c-2.3-2.4-0.8-3.9,0.7-6.1
		c6.3-8.8,12.3-17.8,18.4-26.7c18.8-27.8,41.4-52.6,62.6-78.5c11-13.4,21.3-27.4,30-42.4c18-31.1,26.8-65.3,32.8-100.3
		c0.9-5.5,3.2-9.5,8.8-11.8c7.4-3.1,14.6-6.8,21.6-10.6C892.7,105.7,896.2,103.7,895.3,100.8z M510,393
		c-5.3,16.4-11.8,32.3-21.5,46.7c-12.9,19.1-27.6,36.5-47.6,48.8c-2.9,1.8-5.1,2.5-8.6,1.7c-6.7-1.5-13.5-3.1-20.6-3.2
		c-6.3-0.1-7.5-2.6-4.3-7.8c13.7-22.6,29-43.9,46.3-64c14.4-16.7,29.8-32.2,45.2-47.8c1.5-1.5,16-2.7,17.5-1.4
		c0.4,0.4,0.6,1.1,0.9,1.7C514.9,376.3,512.6,384.7,510,393z M692.9,245.5c-11.9,26.9-31.1,47.5-54.7,64.6
		c-12.7,9.3-25.5,18.1-39.7,25c-12.2,5.9-25.3,7.9-38.3,10.6c-2.9,0.6-5.9,1-8.2,1.4c-8.5,0-7.9-1.2-6.8-8.1
		c2.2-14.2,12.6-20.3,22.5-27.7c35.9-26.5,71.6-53.3,107.2-80.1c4-3,6.6-3.8,9.6,1c1.2,1.9,3.2,4.4,5.2,4.6
		C697,237.8,694.7,241.5,692.9,245.5z M715,232.4c8-9.8,12.3-20.1,12.1-31.8c-0.1-4.2,3.4-4.8,5.6-6.1c12.7-7.4,25.3-15,37.9-22.6
		c19.7-11.8,39.8-22.9,59.7-34.2c0.5-0.3,1.2-0.3,2-0.5C817.7,179.8,738.2,233.1,715,232.4z"/>
	<path class="st0" d="M294.2,585.9c12.1,8.7,16.4,23.8,12.4,41.2c-3.4,14.7-11.6,26.8-19.4,39.2c-15.7,25.1-31,50.4-40.7,78.4
		c-8,23.2-13.6,46.9-15.3,71.6c-1.2,18.3,0,37.2-5.7,54.7c-7.3,22.6-18.7,35.6-42,38.6c-12.3,1.6-23.6-3.6-34.3-9.5
		c-10.9-5.9-19.2-14.3-24.7-25.5c-1.2-2.4-1.8-4.9-1.6-7.5c-0.1-8,2.3-15.6,4.3-23.2c0.5-1.8,1.4-3.5,3.3-4.2
		c3.3,0.8,2.6,4.1,4.1,6.1c0.2,0,0.2-0.3,0.3-0.9c4.6-22.7,22-20.8,34.8-11c5.9,4.5,9.9,10.9,14.6,16.6c2.5,2.9,5,5.7,7.8,8.3
		c1.2,1.1,2.6,2.6,4.3,1.4c1.7-1.1,1.3-3,0.8-4.6c-2.8-8.8-8.2-16.1-14.9-22.3c-2.8-2.6-5.8-4.9-9-7.1c-1.3-0.9-3-1.8-1.8-3.9
		c0.6-0.4,1.2-0.8,2-0.8c12.8-0.7,16-3,19.1-16.1c4.9-20.4,10.9-40.4,17.6-60.2c7.5-22,18.8-42,31.1-61.5
		c13.7-21.7,28.4-42.8,40.4-65.5c4.2-7.9,6.6-16.3,8.7-24.8C291.2,590.7,291.4,587.6,294.2,585.9z"/>
	<path class="st1" d="M131.2,839.9c-3.8,5.6-4,12.3-5.6,18.6c-0.8,2.9-1.9,5.8-2.8,8.7c-1.8-4.8-3-9.7-2.8-14.8
		c1-29.5,6.6-58,17.2-85.7c9.4-24.5,19-49,31.5-72c14.4-26.5,29.2-53.2,51-74.7c13.2-13,26.8-25.9,43.9-33.9
		c10-4.7,20.4-7.5,30.6-0.2c-3.9,25.6-17.8,46.4-31.2,67.6c-13.1,20.8-27.4,40.8-38.4,62.9c-13.6,27-21.5,55.9-28.8,85
		c-0.3,1.4-0.8,2.7-1.2,4.1c-4,15.7-7.5,18.3-23.1,17.4c-2,1.7-4,0.6-6.1,0.1c-18.4-4.3-24-1.7-32.2,14.8
		C132.7,838.7,132.1,839.4,131.2,839.9z"/>
	<path class="st2" d="M692.9,245.5c-11.9,26.9-31.1,47.5-54.7,64.6c-12.7,9.3-25.5,18.1-39.7,25c-12.2,5.9-25.3,7.9-38.3,10.6
		c-2.9,0.6-5.9,1-8.2,1.4c-8.5,0-7.9-1.2-6.8-8.1c2.2-14.2,12.6-20.3,22.5-27.7c35.9-26.5,71.6-53.3,107.2-80.1c4-3,6.6-3.8,9.6,1
		c1.2,1.9,3.2,4.4,5.2,4.6C697,237.8,694.7,241.5,692.9,245.5z"/>
	<path class="st3" d="M452.9,514.3c7,11.6,8.3,24.1,8.1,37.6c-0.2,13.9-5.6,19.7-18.8,20.8c-8.6,0.7-12.6,8-15.8,14.8
		c-3.3,6.9,2,15.9,11.3,21.2c8,4.6,8,4.5,2.2,12.1c-21,27.2-57.3,28.7-81.6,5.3c-6.8-6.6-13.3-13.4-16.1-22.9
		c-0.6-2.1-0.8-4.1-0.6-6.3c3.4,0.2,3.6,3.3,4.7,5.5c3.5,6.6,7.7,12.5,15,15.4c5.9,2.4,8.7,1.2,11-4.7c1-2.5,1.2-5.1,1.6-7.6
		c0.3-1.9,0-4.6,3.4-4.2c2.5,3.6,2.6,8.1,4,12.1c1.6,4.6,3.7,8.8,7.5,11.9c0.9,0.8,2.1,1.5,3.2,0.9c1.2-0.5,1.4-1.8,1.3-3.1
		c-0.1-2.7-1.2-5.1-1.8-7.6c-6.8-26.6-2.2-50.8,15.1-72.3c6.3-7.8,14.4-13.8,22.4-19.7c3.8-2.8,8-5.1,11.6-8.2
		C444.6,513.1,448.5,511.5,452.9,514.3z"/>
	<path class="st2" d="M517.3,367.8c-2.4,8.5-4.7,16.9-7.3,25.2c-5.3,16.4-11.8,32.3-21.5,46.7c-12.9,19.1-27.6,36.5-47.6,48.8
		c-2.9,1.8-5.1,2.5-8.6,1.7c-6.7-1.5-13.5-3.1-20.6-3.2c-6.3-0.1-7.5-2.6-4.3-7.8c13.7-22.6,29-43.9,46.3-64
		c14.4-16.7,29.8-32.2,45.2-47.8c1.5-1.5,16-2.7,17.5-1.4C516.9,366.5,517,367.2,517.3,367.8z"/>
	<path class="st4" d="M369.9,473c-1.6-0.1-3.3-0.3-4.9-0.4c10-18.7,23.3-34.8,36.9-50.7c13.8-16.1,27.7-32.2,42.9-47
		c13.5-13.2,29-24.5,43.3-36.8c14.7-12.7,29.5-25.2,45.3-36.6c22.3-16.1,44-32.8,66.5-48.6c24.7-17.4,49.6-34.4,74.8-51
		c12.2-8,25-15.1,38-21.9c19.2-10,37.3-21.9,57.1-30.6c16.3-7.2,32.1-15.6,48.9-21.8c1.4-0.5,2.7-0.6,4.1-0.4c-0.3,4-4,4.3-6.6,5.5
		c-32.4,15.6-63.1,34.2-94.4,51.7c-38.2,21.4-73.8,46.9-109,73c-27.3,20.3-54.4,40.9-81.8,61c-18.7,13.7-35.3,29.6-52.5,44.9
		c-26.8,23.7-48.3,52.3-72.9,78.1c-9,9.4-16.7,20.1-27.3,28.1C375.7,471.5,373.3,473.6,369.9,473z"/>
	<path class="st5" d="M377,601.3c-2.4,4.4-0.9,9.6-3.1,14.1c-2.9,6-6,7.1-12.4,4.7c-11-4.1-15.2-13.7-19.9-23.1
		c-3.5-9.9-0.5-19.7,1.8-28.9c5-20,14-38.3,28.4-53.5c6.9-7.3,15.8-11.3,25.5-13.1c17.5-3.2,34.2-0.9,49.9,7.8
		c2.3,1.3,4.6,2.3,5.6,4.9c-4.1-0.1-8.1,0-11.4,2.9c-10.3,4.7-21.2,8-30.5,14.9c-19.3,14.3-28.3,33.8-30.5,57.2
		C380,593.4,380.1,597.9,377,601.3z"/>
	<path class="st6" d="M302.7,561.3c-7.4,0.8-14.7,2-19.8,8c-3.4,3.9-6.8,1.2-9.7,0.3c-3.4-1.1-1.9-4.8-1.4-7.4
		c2.7-15.7,12.5-27.8,21.5-40c11-14.9,23.7-28,41.7-35c19.5-7.6,37.6-3.3,57,4.8c-18.3,4.7-29.7,16.3-39.4,29.9
		c-1.6,2.3-3.6,4.4-5.5,6.5c-6.4,8.2-12.3,16.7-20.7,23.3C319.3,557.3,312,561.5,302.7,561.3z"/>
	<path class="st7" d="M369.9,473c7.6-4.5,14.2-9.8,19.5-17.1c5.2-7.1,12.1-12.6,17.9-19.3c14.2-16.5,29.1-32.4,43.8-48.4
		c31.8-34.6,68.3-63.7,105.9-91.5c35.5-26.2,70.5-52.9,106.8-77.9c27-18.6,55.3-35.2,84.2-50.9c24.9-13.6,49.7-27.1,74.7-40.5
		c9.3-5,19-8.8,29.5-10.7c-13.4,6.8-26.8,13.6-40.3,20.3c-31.9,15.8-61.7,35.3-92.5,52.9c-17.5,10-35.3,19.8-51.7,31.7
		c-29.8,21.8-59.3,43.9-88.9,66c-19,14.2-38.4,28-56.8,43c-21.3,17.3-42.5,34.7-61.2,54.9c-25.3,27.4-47.5,57.2-66.7,89.1
		c-2.2,3.6-3.9,6.2-9.1,3.2C380.6,475.2,375,474.6,369.9,473z"/>
	<path class="st2" d="M832.2,137.2c-14.6,42.6-94,95.9-117.3,95.2c8-9.8,12.3-20.1,12.1-31.8c-0.1-4.2,3.4-4.8,5.6-6.1
		c12.7-7.4,25.3-15,37.9-22.6c19.7-11.8,39.8-22.9,59.7-34.2C830.8,137.4,831.5,137.4,832.2,137.2z"/>
	<path class="st8" d="M497,690.2c-7.6-2.9-9.6-9.4-8.3-16.1c3.6-17.7,11.1-32.8,30.9-37.6c2.6-0.6,5.3-1.2,7.7-0.6
		c20.9,4.9,41.2,11.6,59.8,22.7c-1.3,2.2-3.7,2.8-5.6,4c-11.6,4.7-19.5,12.9-23.6,24.8c-4.2,9.9-8.7,12.6-19.3,10.8
		C524.7,695.8,510.6,694.3,497,690.2z"/>
	<path class="st9" d="M645.9,471.3c7.2,6.7,5.6,15.9-3.8,22.7c-6,4.3-13.2,6.2-19.6,9.7c-5.6,3-11,6-11,13.3
		c0,7.4,5.3,11.1,10.7,14.7c11.6,7.7,27.9,2,36.6-10.8c-0.7,15.3-7.7,24.9-22.1,29.9c-16.2,5.7-30.8,2.4-41.2-9.3
		c4.1-6.7,5.8-13.6,4.3-21.6c-1.3-7,2.2-12.9,7.6-17.5c4.7-4,10.1-7.2,15.8-9.6c8.8-3.8,16-9.2,19.8-18.4
		C643.6,473.1,644.5,471.9,645.9,471.3z"/>
	<path class="st10" d="M497,690.2c13.5,1.9,27,3.7,40.5,5.6c13,1.9,14.4,1.2,19.5-10.2c3.2,2.4,2.6,6.9,4.9,9.3
		c-1.6-15.6,7-25.6,19.6-33.4c1.5-1.9,3.5-2.7,5.7-2.9c7.8,1.7,7.6,8.7,8.3,14c1.2,10.2-1.5,20.2-6.6,29.1
		c-5,8.6-11.8,11.4-21.5,8.4C544,703,519.6,699.9,497,690.2z"/>
	<path class="st11" d="M645.9,471.3c-3,10-8.8,17.4-18.6,21.6c-6.2,2.6-12.2,5.9-17.6,10c-6.4,4.9-9.9,12.7-7.9,20.4
		c2,7.6,0.7,13.8-6.2,18.3c-8-2.6-13-17.4-11.1-25c3.9-15.7,11.5-27.9,28.2-33.2c6.9-2.2,13.7-5.6,19-11.4
		C635.8,467.6,640.9,466.9,645.9,471.3z"/>
	<path class="st12" d="M651.3,458.7c-3.8,0.2-7.3-3.2-11.4-0.3c-1.6,1.1-3.6-0.6-4.1-2.7c-2.4-10.5-5.1-21.1-0.1-31.6
		c3.5-5.6,8.7-6.6,14.7-5.1c8.1,2,15.5,5.3,21.2,11.6c0.3,0.7,0.5,1.4,0.4,2.1c-3.9,8.6-9.3,16.4-15.6,23.4
		C655.1,457.6,653.9,459.5,651.3,458.7z"/>
	<path class="st10" d="M671.5,432.8c0-0.4-0.1-0.8-0.1-1.2c3.2-9.2,9.6-16.3,15.7-23.6c0.7-0.2,1.4-0.2,2.1,0
		c10.9,6.1,17.6,19,15.2,29.1c-4.7,10.5-11.1,19.3-22.7,22.9C678,451.1,674.3,442.1,671.5,432.8z"/>
	<path class="st8" d="M687.3,408.5c-4.6,8.2-10.3,15.6-15.9,23.1c-6.2-4.2-12.3-8.3-19.7-10.5c-6.4-2-11.1-0.4-15.9,3
		c3.6-9.7,9.6-17.5,18.6-22.9C663.6,396.1,682.3,400.3,687.3,408.5z"/>
	<path class="st9" d="M483,653.1c-3.5,9.4-3.5,9.4-12.1,5.3c-1.3-0.6-2.5-1.3-3.8-1.9c-10.8-5.4-11.9-6.8-8.1-18.1
		c2.5-7.4,3.3-15.1,5-22.6c1.4-6-1.6-10-7.7-11.4c-5-1.1-10-2-14.3-5.4c-6.4-5-6.4-12,0.7-15.9c6.9-3.8,13.8-4.6,20.3,1.1
		c-1.4,3.5-7.4,3.1-7.2,7c0.2,3.8,5.3,4.1,7.8,6.5c5.7,5.6,7.8,12.3,6.5,20c-0.9,5.1-1.1,10.3-2,15.4c-1.4,8.2,0.1,10.7,7.5,14.8
		C478.2,649.3,481.4,650.1,483,653.1z"/>
	<path class="st11" d="M483,653.1c-4.3-2-8.7-3.6-12.7-5.9c-6.3-3.5-4.7-9.6-4.1-15.1c0.7-6.5,2-13,2.3-19.5
		c0.3-7.2-3.2-12.4-9.5-16c-2.5-1.4-7-1.6-7-5.1c0.1-4,4.7-4.7,7.7-6.3c1-0.5,2.2-0.8,3.3-1.2c3.6,1,6.8,2.8,9.8,5
		c10.4,7.8,9.3,17.5,5.2,28c-1.9,4.9-3,10.2-5.2,15c-2.9,6.3-0.3,9.6,5.2,12c1.3,0.5,2.5,1.3,3.8,1.5
		C489.1,647.1,487.7,649.8,483,653.1z"/>
	<path class="st13" d="M302.7,561.3c16.2-3.7,28-13.5,37.6-26.5c1.8-2.4,4.5-4.2,6.7-6.2c-7,13.5-12.5,27.4-14.9,42.5
		c-1.6,10.3-3.1,20.5-0.8,30.8c0.4,2,1.5,4.3-1.7,5.1c-2.7,0.7-5.4,2.5-8.2,1.2c-2.4-1.1-0.7-3.2,0.2-4.2c3.7-4.6,4.9-10.2,6.3-15.7
		c2.9-12-3.6-22.6-15.5-25.3C309.3,562.3,306,561.9,302.7,561.3z"/>
	<path class="st14" d="M704.4,437.1c-0.2-12.3-6.9-21-15.9-28.4c1.8-7.5,3.8-14.9,11.6-18.7c8.3,2.8,13.5,10.8,12.6,21.4
		C712,420.5,710.5,429.6,704.4,437.1z"/>
	<path class="st14" d="M671.5,432.8c5.5,8.3,9.6,17.1,10.1,27.2c-10.4,4.9-20.8,11.4-30.4-1.3c6.7-6.1,12-13.2,16.3-21.1
		C668.6,435.8,669.1,433.5,671.5,432.8z"/>
	<path class="st12" d="M700.1,390c-5.6,5.1-7.2,12.8-11.6,18.7c-0.4,0-0.8-0.1-1.2-0.1c-10-6.9-21.1-9.1-33-7.3
		c7-8.2,16.7-10.9,26.7-12.6C687.5,387.5,694.1,384.7,700.1,390z"/>
	<path class="st9" d="M719.1,202.7c-2.8,11.9-6.1,21.6-17.2,26.3c-3.4,1.5-6.5,1.1-9.4-0.7c-4.4-2.7-4.4-6,0-8.9
		C700.9,214.1,709.4,208.8,719.1,202.7z"/>
	<path class="st9" d="M313.1,571.3c9.9,5.1,11,12.9,3.3,26.9c-3.2-4.7-6.3-9.2-9.3-13.7C308.2,579.7,309.8,575.1,313.1,571.3z"/>
	<path class="st11" d="M313.1,571.3c-0.5,5.1-2.4,9.5-6,13.2c-3.3-6.9-11.3-7.6-16.8-12.1C297.9,567,305.4,568.3,313.1,571.3z"/>
	<path class="st9" d="M511,356.7c9-7.6,16.8-14.2,24.9-21.1C535.7,347.2,524,357.5,511,356.7z"/>
	<path d="M131.2,839.9c3.5-17.1,15.4-24.1,32.8-19.3c2.5,0.7,4.9,1.5,7.4,2.3c12.2,8,22.6,17.5,27.5,31.9c1.1,3.3,1.7,6-1.3,8.2
		c-3.8,2.8-5.1-1.2-6.7-2.9c-7.1-7.6-13.8-15.5-20.6-23.3c-4.9-5.5-11.5-7.3-18.3-8.1c-6.6-0.7-12.4,4.8-14.7,13
		c-0.8,2.9-1.3,5.8-2.2,9.5C132.8,847.2,131.7,843.6,131.2,839.9z"/>
	<path class="st15" d="M139.9,790.8c4.2-23.6,13.8-45.1,23-66.7c9.6-22.6,20.4-44.6,34.1-65.1c10-14.9,20.8-29.3,33.7-41.7
		c10.9-10.4,23-19.4,35.3-28.2c0.6-0.4,1.3-0.7,1.9-0.9c3.7-1,7.7-5,11-0.9c2.9,3.6-1.2,7-3,10c-1.9,3.2-4.5,6.1-7.1,8.7
		c-24,23.9-46.9,48.8-66.1,76.6c-11.3,16.4-20.6,34.3-30.6,51.7C161.2,753.2,150.6,772,139.9,790.8z"/>
	<path d="M377,601.3c2.4-15.7,2.9-31.9,11.3-46.2c12.1-20.6,29.4-33.7,53.1-37.9c-8.8,6.7-18,12.8-26.3,20.1
		c-14.2,12.5-21.6,28.5-24,47.4c-1.6,12.6-0.1,24.3,4,36c1,2.8,1.8,6.5-1.2,8.6c-3.7,2.6-5.4-1.5-7.5-3.4
		C379.6,619.1,378.2,610.2,377,601.3z"/>
	<path class="st12" d="M349.8,583.1c-2.1-23,6.2-41.9,19.8-59.6c10.8-13.9,24.6-19.8,41.3-20.7c1.9-0.1,3.7,0.2,5.5,1.1
		c4.4,2,4.1,4.5,0.6,6.6c-4.2,2.6-8.6,5-13.3,6.7c-26,9.6-40.9,29-49.4,54.4C353,575.5,351.3,579.3,349.8,583.1z"/>
	<path class="st16" d="M284.4,545.7c12-17.4,23-35.6,40.5-48.3c10.6-7.6,29.5-14.3,46.4-6.3c-3,3.9-7.5,5.3-11.5,5.8
		c-22,2.6-39.4,13.1-53.9,29.3c-6.5,7.2-13.4,14-20.2,21C285.3,546.7,284.8,546.2,284.4,545.7z"/>
	<path class="st12" d="M570.7,657.8c-29-5.7-56.5-5.7-76.9,20.3c-1.2-5.6-0.8-10.4,2-15.7c4.2-8,9.9-14.7,17.8-19.3
		c6.2-3.7,12.9-3.8,19.4-1.5c12.7,4.5,25.2,9.5,37.9,14.2C570.8,656.5,570.8,657.1,570.7,657.8z"/>
	<path d="M581.4,661.4c-4.6,5.2-10.3,9.2-13.8,15.6c-3.3,6.2-6.9,11.8-2.6,18.9c0.7,1.1,1,2.4,0,3.2c-1.5,1.3-2.6-0.2-3.4-1.2
		c-2.9-3.6-4-7.8-4.6-12.3C561.2,673.5,568.9,665.1,581.4,661.4z"/>
</g>
</svg>
