<?xml version="1.0" encoding="utf-8"?>
<!-- Generator: Adobe Illustrator 23.0.1, SVG Export Plug-In . SVG Version: 6.00 Build 0)  -->
<svg version="1.1" id="Layer_4" xmlns="http://www.w3.org/2000/svg" xmlns:xlink="http://www.w3.org/1999/xlink" x="0px" y="0px"
	 viewBox="0 0 1000 1000" style="enable-background:new 0 0 1000 1000;" xml:space="preserve">
<style type="text/css">
	.st0{fill:#010000;}
	.st1{fill:#020100;}
	.st2{fill:#FE5C00;}
	.st3{fill:#FEC64B;}
	.st4{fill:#FEFE5C;}
	.st5{fill:#FD5C00;}
	.st6{fill:#FD5B00;}
	.st7{fill:#FC5C00;}
	.st8{fill:#FA5B00;}
</style>
<g>
	<path d="M451.8,479.2c5.7,48-4.8,93.5,2.2,141c10.6-14.1,12.2-29.8,14.6-44.6c5.9-36.9,9.5-74.2,16.2-111
		c7.3-40.3,37.4-83,67.2-96.8c-3.3,49.6-17,98.2,2.3,146.6c12.6-43.9,36.7-86.5,11.3-134.2c-12.5-23.4-3.5-45,6-66.4
		c7.4-16.6,16.3-32.3,23-49.4c10.6-27,7.7-51.5-4.4-76.5c-1.5-3-6.6-6.3-3.2-10c3.5-3.9,7.7-1.3,12.1,0.9
		c32.8,16.6,47.8,45.2,53.2,79.5c4.1,26.1,8.2,52.1,15.1,77.7c4.6,17,11,8.8,17.8,4.2c7.4-5,11.4-14.2,21.8-17.3
		c-12.1-13.2-23.9-25.6-31.5-42.2c-14.7-32.1-4.9-62.9,5.2-91.9c12-34.5,19.4-67.9,10.9-103.9c-0.4-1.6,0.5-3.4,0.8-5.8
		c39.7,14.4,45.5,51.7,57.3,84c14.1,38.2,9.9,75.6-11.3,111c-10.5,17.5-7.5,36.3-1.5,54.5c1.4,4.2,0.7,7.2,0.9,12.5
		c-7.6-3.4-13.8-6.1-21.8-9.6c-1.2,26.7-7.8,51.4-14.2,81.7c25.5-23.5,41.5-49.9,67.7-69.2c0,47.9,1.2,93.9-0.7,139.7
		c-0.6,14.2-9.2,28.4-15.4,42c-16.7,37-10.4,51.8,7.9,69.8c2.2,2.1,4.2,6.1,7.6,4.6c3.6-1.6,4.3-5.6,4.6-9.8
		c6.3-78.2,57.4-119.1,122.7-148.8c3.5,5.9,1.6,9.4-1,13.6c-18.1,30.5-22.6,65-28,99.1c-3.1,19.5,4.1,37.4,11.5,55.1
		c8.2,19.7,11.2,39.9,3.8,63.3c15.4-14.9,33.1-20.3,50.8-26.1c3.9-1.3,8.1-3.2,10.6-0.3c3.5,4-1.9,6.3-3.7,9.4
		c-19.6,33.6-38.2,67.4-48,105.7c-4.3,16.8-0.1,32,2.7,47.3c9.9,54.1-26.7,110.2-79.7,121.5c-43.7,9.3-84.3,0-123.5-17.7
		c-24.4-11-49.9-17.6-75.9-21c-19.5-2.6-35.7,9.9-52,19.4c-19.9,11.5-38,25.6-61.5,31.6c-22.9,5.9-42-3.4-62.5-7.7
		c-29.4-6.2-55.9-22.6-86.7-24.5c-17.9-1.1-34.1,4.7-49,12.3c-52.5,26.8-101.9,16.3-149.1-11.7c-47.9-28.4-78.7-70.2-90.8-125.2
		c-3.9-17.5,0.1-34.9-2.6-53.5c12.9,2.3,12.1,16.8,23,20.8c4-21.5-1.8-43.9,6.5-65.2c9.2-23.6,19.2-47.7,36.2-65.4
		c23-23.9,26.3-50.5,16.3-77.3c-14.9-39.9-3.8-77.2,6.9-113.5c11.1-37.8,6.6-73.7-0.3-110.1c-1.5-8.1,0.8-16.7-3.6-24.5
		c-3.5-6.2-5.1-14.9,1.3-18.6c6.4-3.7,13.1,2.9,18.3,7.4c33,28.8,47.8,66.6,56.9,108.5c6.2,28.5-3.4,54.2-10.1,86.3
		c31-31.5,40.9-69.2,61.4-101.1c12.6,39,10.1,77.9,11,116.5c0.3,10.4-7.4,19.5-3.4,29.9c1.7,4.4,3.1,11.7,6.1,12.5
		c7.5,2,9.1-6.4,10.6-11.1c6.8-21.6,13.7-43.4,13.7-66.5c0-4.5,0-9.1,0-16.3c29.3,12.5,44.6,34,50.6,62.4c5.7,27,10,54.2,15.5,84.7
		c9.9-14.9,14.5-27.7,16.4-42.6c1.8-15,9.8-28.4,20-39.8C425.2,497.7,436.1,487.1,451.8,479.2z"/>
	<path class="st0" d="M78.1,421.6c38,28.4,59.7,58.6,50.8,103.6c-1.7,8.5,3.2,16.4,3.5,24.4c1.2,28.2-2.5,55.5-19.2,79.7
		c-13.8,20-41,19.3-51.4-3.2c-18-39-23-78.2,3.7-116.4c12.5-17.8,21.8-36.8,12.9-60C76,443.1,78.1,434.5,78.1,421.6z"/>
	<path class="st1" d="M226.5,317.3c-37.8-32.3-62.9-65.3-66.2-111c-0.9-12.8,2.6-25.4,8.7-36.3c9.5-16.9,11.5-34,5.1-52
		c-1.3-3.8-3.8-7.7-1.1-10.6c3.6-3.9,7.6-0.4,11.9,0.8c27.5,7.2,38.6,27.5,45.7,52.5c6.4,22.6-0.3,43.5-3.3,65.4
		c-2.7,19.7-10,39.8-1.4,60.6C229,293.8,226.5,303.2,226.5,317.3z"/>
	<path class="st0" d="M351,410.1c-1.2-13.9,5.7-32.1,22.5-47.8c13.7-12.8,16.2-32.2,20.4-49.5c3-12.5,6.4-8.4,11.6-3
		c18.8,19.5,31.4,42.6,35.5,69.1c3.4,22.2-14.1,37.1-25,53.2c-8.3,12.2-14.2,23.4-13.8,38c0.2,8.2-1.2,18.4-7.9,21.1
		c-7.5,3.1-14.8-4.5-20.9-10.3C355.4,463.8,351.9,441.8,351,410.1z"/>
	<path class="st0" d="M882.8,579.1c0-50,43.4-82.8,91.8-71.5c7,1.6,7.6,6.5,5,9.4c-23.7,26.4-24.5,62.7-40.2,92.4
		c-1.2,2.2-1.7,4.8-3.3,6.7c-7.2,8.9-10.9,28.1-20.8,25.3c-11.7-3.2-23.7-16.4-27.5-30.3C885,600.4,879.9,589.3,882.8,579.1z"/>
	<path class="st2" d="M220.1,919.1c-39-9.3-73-27.3-98.2-59c-20.6-25.9-38.8-53.3-44.5-91.2c5.2,6.5,7.4,10.6,10.7,13.2
		c8.1,6.4,13.2,4,13.8-6.4c0.2-3.2-0.1-6.5-0.7-9.7c-10.8-53.1,8.4-98.2,41.5-136.8c25.3-29.5,26-60.9,15.1-93
		c-8.1-23.7-9.5-45.8-1.2-68.1c20.5-54.9,20.2-110,5.3-166.2c33.9,44.1,58.5,90.6,44,148.7c-1.4,5.7-2.4,11.4-3.6,17.1
		c-1.9,8.8-2.2,17.3,7.6,21.6c9.3,4.2,16.5-0.9,22.2-7.5c15.5-17.7,23.2-40.1,36.1-63.7c4.2,35.4,2,67.2-0.5,99.1
		c-0.4,4.5-1.4,9.1-0.9,13.5c1.5,11.8,6.9,21.6,19.5,23.7c12.3,2,19.4-6.4,23.8-16.4c9.4-21,11.2-43.9,15.2-68.9
		c15.2,18.7,23,38.4,26.7,60c3.5,20.5,6.6,41,10.7,61.3c1.8,9,5.4,18.6,16.5,19.1c10.7,0.4,15.7-8.6,19.1-17c3.6-9,6.2-18.5,8-28
		c4.3-23,14.3-42.4,35.2-60.4c-1.7,22.6-2.4,41.7-4.9,60.6c-3.1,23.6,0.7,46.5,4.2,69.6c1.1,7.6,3.1,15,11.6,15.7
		c8.4,0.8,9.3-8,11.9-13.4c22.9-47.2,26.8-98.6,32-149.6c3.4-33.1,16.7-61.8,38.1-87.4c-2.9,24.4-5.1,48.6-3.6,73
		c1.4,21.6,5.5,42.5,11.7,63c1.2,4.1,1.5,10.2,7,9.9c2.9-0.1,6.7-4.1,8.3-7.2c25.5-50.9,45.4-103.2,23.2-160.5
		c-10.5-27.1-1.4-49.7,10.6-72.2c16.2-30.3,30-60.8,21.3-97c19.5,19.8,25.1,44.3,27.1,70c1.8,22.8,6.8,45.1,13.8,66.7
		c8.1,24.8,16.6,26.6,35.4,9.2c3.2-3,6.1-6.4,11.7-12.3c-5.2,36.1-15.5,68.9-5.8,105.9c21.4-25.9,40.6-49.1,59.8-72.2
		c-6.3,32.6,4.3,64.4-0.3,95.8c-2.3,15.5-5.9,30.3-13.8,44.3c-19.7,34.8-17.3,55.7,8,86.5c12.3,15,16.4,33.2,18.5,54.8
		c14.2-15.5,17.7-32.2,17.8-49.5c0.3-65.6,38.3-107.1,92.2-144.9c-13.6,29.9-18.4,57.1-23.6,84.4c-4.1,22-1.3,41.1,9.7,59.7
		c11.5,19.4,13.1,38.4,2.1,58.9c-6.1,11.3-10,23.9-4.5,38.8c18.5-12.7,36.3-25,54.1-37.3c-10.9,25.1-25,48.1-31.3,74.6
		c-4.2,17.9-7.8,35.5-3.7,53.9c13.3,60.7-27.8,115.3-91,121.3c-2.1-7.3,2.5-12.6,6.1-17.7c14.8-21.1,16.4-44.3,7-66.9
		c-11.5-27.6-11.2-54-0.6-81.4c7.1-18.4,6.4-37.8,4.8-61.3c-15.1,20.1-27.2,37.6-43.2,51.9c-11.3,10.1-23,19.4-37.1,24.9
		c-16.7,6.5-26.6,0-27.9-17.8c-0.9-11.3,2.5-21.9,4.9-32.7c5-23,3.7-37.6-4.7-52.8c-9.9,13.2-15.8,28.6-26.5,40.7
		c-10.3,11.8-16.3,11.4-23-2.6c-16.2-33.7-26.5-67.8-7.6-104.5c12.3-24,8.6-49.3,3.5-74.5c-1.7-8.3-5-16.2-4.3-24.9
		c-3.3,21.1-13.5,39.3-26.2,55.8c-13.8,17.9-23.3,36.5-24.9,60c-2.7,38.9-24.2,69.5-49.7,97.2c-12.5,13.6-20.6,11.3-25.3-6.4
		c-3.6-13.6-6.8-27.3-10.1-41.5c-2.9,43.3-22.8,77.5-52,106.8c-12.9,13-21.8,11.7-31.6-3.6c-16.6-26-41.2-47.6-45.3-81.3
		c-9.1,12.8-17.5,26.5-33.7,27c-15.6,0.5-25.4-11.2-34.5-22.7c-11.7-14.8-19.5-32.2-33.4-48.9c-4.8,13.2-8.1,25.4-13.7,36.6
		c-2.9,5.9-6.2,12-13.9,12c-6.9-0.1-9.5-6.1-12.4-11.1c-14.4-25.4-22.2-53.7-33.9-77.2c-0.3,19.8-5.9,41.7-13.3,63.2
		c-6.2,18-10.5,36.1-7.2,55.4c1.9,11.1-2.2,21.9-3.2,32.9c-0.5,5.9-2.2,12.2-9,13.7c-7.1,1.5-10.1-4.6-13.2-9.4
		c-2.8-4.4-4.9-9.2-8.1-15.8c-6,31.6-2.6,60.6,10.5,87.6c13.6,28.1,29.1,55.3,55,74.7C216.6,906.6,221.5,911.4,220.1,919.1z"/>
	<path class="st3" d="M220.1,919.1c-22.1-21-43.3-42.6-59.1-69.2c-22.3-37.6-26.9-77.6-19.2-121c8.8,4.2,8.6,14.2,13.9,20.1
		c4,4.5,3.6,14.9,11.7,13.1c6.5-1.4,2.9-10.4,4.9-15.5c6.7-17.8-1.7-35.7,1.9-53.8c7-35.4,25-68.6,24.3-107.3
		c7.5,17.3,15.6,34.3,22.3,51.9c5.6,14.6,12.1,28.7,19.5,42.5c5.5,10.2,10.4,8.7,14.1-0.8c6-15.7,11.4-31.6,17.5-48.7
		c13.7,13.7,21.4,30.9,32,46c30,43,44.2,42.8,74.6-3.2c2.1,41.3,32.7,65.2,50,96.3c7.2,12.9,15.3,2.3,20.2-2.5
		c28.8-28.8,47.6-62.9,51.6-104.2c0.5-4.9-1.6-10.2,3.5-16.5c8.4,20,11.9,40,15.6,59.8c2.4,12.7,6.3,12.7,14.1,4.2
		c29.3-31.7,52.7-66.1,52.4-111.6c-0.1-15.5,8.3-27.5,17.4-38.3c17.8-21.2,30.1-44.7,35-74.8c15.8,41.7,25.7,81.1,5.4,120.9
		c-19.6,38.4,1.6,69.7,14.5,105.1c19.8-17.6,28.6-39.7,39.8-61.3c16,19.8,15.4,41.4,11.2,63.5c-2.2,11.4-6.6,22.4-6.3,34.3
		c0.5,17.7,5,21,21.4,14.5c26.4-10.5,44.7-30.6,61.3-52.5c7.3-9.7,13.9-20,24.1-34.7c5.1,30.3,5.7,55.3-3.4,78.8
		c-10.1,26.4-10,50.9,1.2,77c13.9,32.2,3.5,60.9-18.2,86.4c-24.7,4-47.9-1.7-70.6-10.8c22.5-25.5,23.7-57.5,27.6-90.2
		c-15.8,13-31.4,23.1-50.7,26.6c-13.7,2.5-25.1-0.2-31.4-13.2c-4.8-10-10.4-10-20.1-7.1c-22.5,6.6-37.8-4.1-39.3-26.9
		c-1-15.5-5.7-30.6-4-47.1c-6.7,22.8-17.1,42.6-32.9,59.2c-22,23-35.3,20.7-49.3-8.8c-7.7,13.3-15.3,26.2-24.2,38
		c-4.7,6.3-11.6,15.8-18,12.7c-16.9-8-28.1-0.5-41.4,7.6c-7.4,4.5-14.6-2.8-20.3-8.2c-8.4-8.1-16.9-16.2-24.4-25.2
		c-7.1-8.4-11.4-18.9-21.1-27.7c-10.8,14.4-14.7,31.7-22.7,46.7c-3.3,6.3-5.2,13.3-9.6,19.1c-10.1,13.4-20.6,15.9-35.8,8.5
		c-15.6-7.6-24.1-21.6-31.5-36.1c-9.9-19.3-22.4-36.5-39.7-50.6c6,11.1,5.7,22.9,5.5,34.7c-0.8,37.7,7.3,72.3,34.8,100.1
		C253.5,925.8,236.8,924.9,220.1,919.1z"/>
	<path class="st4" d="M755.4,804.4c-5.1,21.1-8.1,40.3-10,59.8c-1.7,17.5-9.6,33.4-26.7,42.4c-26.1-7.3-50.1-20.2-77-25.7
		c-37.6-7.6-69.9,2.8-98,25.6c-33.9,27.4-70.6,29-107.6,12.7c-52.5-23.2-103.8-31.2-156.4-2.2c-2.7,1.5-6.3,1.2-9.5,1.7
		c-20.2-5.4-24.8-24-31-39.7c-6.6-16.8-9.7-34.9-8.6-53.3c0.9-17,0.9-33.9-8.9-49.8c23.1,6.7,34.1,26.2,45.5,44.4
		c7.2,11.5,12.8,23.9,21.3,34.7c7.9,9.9,17.9,16.4,29.7,15.4c12.2-1.1,16.8-12.8,21.2-23.1c7.4-17.3,15.6-34.2,22.2-51.8
		c4.9-12.9,8.5-10.3,14.3-0.9c11.5,18.9,26.1,35.3,41.4,51.3c12.3,12.8,21.2,10.3,29.3-2.5c5.1-8,8.9-12.9,16.7-3.1
		c9.8,12.3,18.4,6.3,25-3.1c11-15.9,20.9-32.5,31.3-48.8c1,0.5,2.7,0.8,2.9,1.5c3.1,11,2.8,25.7,15.9,29
		c13.8,3.5,22.1-9.4,29.8-18.4c15.7-18.2,25.2-40,34.5-63.3c2.1,15.6,4.9,31.1,6.2,46.8c3.3,38.9,15.9,45.6,50.5,26.3
		c1,0.6,2.8,1.1,3,1.9c8.8,36,21.6,30.1,50.5,20.6C728.6,827.5,739.3,814.1,755.4,804.4z"/>
	<path class="st5" d="M710,111.9c19.5,48.9,51.7,96.1,14.9,151c-10.5,15.7-9.1,34-4.1,55.3c-31.8-26.7-44.4-56.5-35.1-93.8
		c4.3-16.9,10.1-33.6,16-50C709.2,154.1,714.8,133.9,710,111.9z"/>
	<path class="st6" d="M96.6,458.1c14.5,18.2,22,36.9,19.8,59.8c-1.4,14.7,0.1,29.8,1,44.6c1.2,19.5-4.2,37.2-14.1,53.7
		c-9.5,15.9-17.6,15.6-28.7-0.4c-16.3-23.4-15.4-68.6,1.7-94.3C94.3,494.7,97.9,483.8,96.6,458.1z"/>
	<path class="st7" d="M209.2,279.6c-24.6-33.8-47.8-67.3-22.9-111.1c7.1-12.4,7.1-27.3,4.1-45.1c23.8,16.7,27.7,39.2,28.3,62.3
		c0.3,11.4-2.3,23.2-5.1,34.4C208.8,239.7,205.9,259.3,209.2,279.6z"/>
	<path class="st5" d="M403.4,332.1c27.8,32.1,29.2,56.2,4,87.1c-12.2,15.1-20.9,31-21,51.1c-21.9-15.8-27.6-62.4-11.1-86.2
		c5.5-7.9,12.4-15,17-23.4C396.8,352.4,399.3,342.9,403.4,332.1z"/>
	<path class="st8" d="M959.8,522.6c-22.5,26.5-22.9,59.6-38.5,86.6c-2.4,4.1-2.9,12-9.3,10.7c-5.4-1.1-8.8-7.2-11.3-12.7
		C885,572.7,906.5,515.5,959.8,522.6z"/>
</g>
</svg>
