<?xml version="1.0" encoding="utf-8"?>
<!-- Generator: Adobe Illustrator 23.0.1, SVG Export Plug-In . SVG Version: 6.00 Build 0)  -->
<svg version="1.1" id="Layer_4" xmlns="http://www.w3.org/2000/svg" xmlns:xlink="http://www.w3.org/1999/xlink" x="0px" y="0px"
	 viewBox="0 0 1000 1000" style="enable-background:new 0 0 1000 1000;" xml:space="preserve">
<style type="text/css">
	.st0{fill:#FE5C00;}
	.st1{fill:#FE0000;}
	.st2{fill:#FEC64B;}
	.st3{fill:#90AFC3;}
	.st4{fill:#2B5260;}
	.st5{fill:#4E4E4E;}
	.st6{fill:#2B515F;}
	.st7{fill:#182D35;}
	.st8{fill:#7F0000;}
	.st9{fill:#B1F2F2;}
	.st10{fill:#800000;}
	.st11{fill:#7F7F7F;}
	.st12{fill:#373737;}
	.st13{fill:#FEFD5C;}
	.st14{fill:#4B4B4B;}
	.st15{fill:#AFEEEE;}
	.st16{fill:#C0C0C0;}
	.st17{fill:#D8D8D8;}
	.st18{fill:#D9D9D9;}
	.st19{fill:#8FAEC2;}
	.st20{fill:#F4F3F3;}
	.st21{fill:#ADEDEC;}
	.st22{fill:#BBBBBB;}
	.st23{fill:#2F3639;}
	.st24{fill:#AAE7E9;}
	.st25{fill:#B3F6F4;}
	.st26{fill:#F2F2F2;}
	.st27{fill:#77909F;}
	.st28{fill:#B9B9B9;}
	.st29{fill:#6C6C6C;}
	.st30{fill:#2A4F5D;}
	.st31{fill:#363636;}
	.st32{fill:#AEAEAE;}
	.st33{fill:#2E2E2E;}
	.st34{fill:#313131;}
	.st35{fill:#343434;}
	.st36{fill:#434343;}
	.st37{fill:#A1A1A1;}
	.st38{fill:#6C8494;}
	.st39{fill:#85A1B3;}
	.st40{fill:#FEF5F5;}
	.st41{fill:#FEF9F9;}
	.st42{fill:#FEEDED;}
	.st43{fill:#0B0F11;}
	.st44{fill:#222B2E;}
	.st45{fill:#080B0D;}
	.st46{fill:#030101;}
	.st47{fill:#294E5B;}
	.st48{fill:#07090A;}
	.st49{fill:#2A515F;}
	.st50{fill:#080A0B;}
	.st51{fill:#CBCBCB;}
	.st52{fill:#666666;}
	.st53{fill:#464646;}
	.st54{fill:#494949;}
</style>
<g>
	<path d="M780.9,377.2c25.9,14.9,51.2,28.8,75.8,43.8c19.9,12.2,20.2,26.8,0.7,39.3c-35.4,22.7-70.5,46.2-107.4,66.3
		c-18.2,9.9-25.1,20.6-23.7,40.9c3.2,48.3-8.5,93.1-38.9,131.6c-22.8,28.9-52.2,49.4-87.2,61.7c-10.2,3.6-14.7-4.4-18.8-10
		c-21-28.4-42.4-56.7-61.2-86.5c-7.4-11.7-13.2-11-20.7-4c-24.1,22.2-47.8,45.8-64.8,73.1c-41.6,66.6-93.3,119.3-165.8,153
		c-55.7,25.9-109.5,55.5-169.3,71.7c-6.4,1.7-12.5,1.6-18.7,3c-31.9,7.4-39.6-0.9-30.7-33.2c21-76.5,49.4-149.8,94.3-216
		c20.9-30.9,44.7-59,74.7-81.3c3-2.2,7.3-1.9,4.2-8.6c-9.6-20.7-10.7-43.8-15.8-65.8c-4.8-20.8-0.1-23.6,21.5-25.3
		c36.2-2.9,72.2-7.5,108.3-11.5c7.3-0.8,44-37.1,44.1-43.9c0-2.4-2.7-5.2-4.9-7.1c-34-30.3-68.1-60.5-102.1-90.7
		c-5-4.5-9.7-6.7-2.4-15.8c41.5-51,95.9-80.3,157.6-98.6c8.4-2.5,16.8-1.9,24.9-1.8c33.3,0.3,39.7-27.9,53.6-48.5
		c16.4-24.2,32.2-48.9,53.3-69.3c24.8-24.1,43.4-19.9,53.6,12.6c7.1,22.7,12.2,46.1,17.5,69.3c1,4.6,1,10.6,5.4,11.2
		c4.7,0.7,5.3-5.1,7-9.4c4.7-12.7,10.4-24.9,27.6-24.7c3.6,0,9.3-3.4,10.6-6.6c17.2-43,47.8-72.5,88-94.7
		c60.3-33.2,122.7-57.9,192.1-62.5c16.6-1.1,18.3,3.8,15.9,19.7c-8.9,60.2-29.8,116.6-53.9,171.8c-18.2,41.6-42.8,80.1-85.1,101
		c-19.3,9.6-29.2,27.4-45.4,39.1C791,373.2,786.1,374.7,780.9,377.2z"/>
	<path class="st0" d="M710.6,268.2c-8.2-3-10.5-13.4-19.5-15.3c-13.8-5.3-16.5-15.5-7.7-25.8c5.4-6.4-1.4-7-1.5-10.4
		c5.3-1.2,11.3,0.3,14.1-7.4c22.9-63.1,76.2-92.8,132.5-118.1c37.9-17,76.8-31.4,118.7-35.8c10.9-1.1,15.5,0.7,12.8,12.9
		c-14.9,68.9-38.4,134.6-74.3,195.5c-16,27.1-39.9,45.6-67.4,60c-6.1,3.2-14,4.4-16,12.8c-4.9,2.3-7.1-1.3-9.5-4.4
		c-9.8-8-22.3-12.4-30.8-22.2c0.4-2.8,2-4.8,4.2-6.2c64.3-41.4,101.3-103.1,128-172.4c1.2-3,2.4-6.1,5.3-11.1
		c-74.1,25.7-141.2,56.8-176.5,131.2C720.2,257.8,717.5,264.7,710.6,268.2z"/>
	<path class="st1" d="M331.9,386.9c-26.2-20.8-26-20.6,0.3-41.5c23.6-18.7,49.6-33.6,76.8-45.9c49.4-22.3,99-17.8,147.1,3.8
		c30,13.5,29.8,15.6,14,44.2c-12.5,19.7-22.4,41-35.5,60.4c-5.5,8.1-11.6,14.9-22.2,8.2c-36.5-22.7-71.3-14.3-104.1,7.2
		c-14.2,9.3-24.2,7.5-36.4-2.5C358.3,409.8,346.3,397,331.9,386.9z"/>
	<path class="st1" d="M390,729.8c-3.1,10.4-6.1,16-19.2,8.2c-50.6-30.2-94.6-66.4-119.4-121.8c-7.5-16.8-17.7-35.2-12.7-52
		c5.9-20.1,29.1-11.4,44.6-14.5c23.5-4.7,47.5-6.7,71.4-9.9c5.6,11.8,2.7,25.1,6.3,37.3c7.3,25,18.4,47.1,42.2,60.3
		c13,7.2,15.9,17.3,10.4,31C405.4,688.9,400.5,710.4,390,729.8z"/>
	<path class="st1" d="M550.6,660.3c-17.3-22.6-17-22.4,1.1-45.5c20.9-26.7,29.9-57.2,26.8-91.1c34.7-3.7,68,5.1,101.4,12.1
		c8.7,1.8,12.4,9.5,12.2,18c-1.7,55.2-15.9,105.3-59.6,143.1c-25,21.6-30.6,21.7-52.6-2.5C569.7,683.3,560.2,671.8,550.6,660.3z"/>
	<path class="st2" d="M710.6,268.2c26.3-72.4,83.1-111.8,150.8-139.4c13.2-5.4,26.7-9.7,42-15.2c-1.2,19-10.5,33.8-17.2,49.2
		c-22.7,52.6-54.4,98.7-100.5,133.7c-7.2,5.4-15.7,9.1-23.5,13.6c-7.6-4.7-15.3-9.2-20.9-16.5c7.2-15.9,21.7-25.3,33.3-37.2
		c13.6-13.9,25-29.1,35.5-47.5c-36.2,17-56.1,48.3-79.7,75.8C723.8,279.2,717.2,273.7,710.6,268.2z"/>
	<path class="st3" d="M167.6,872.2c-13.1-10.6-25.8-21.5-34.4-36.4c12-28.9,33-52.3,49.3-78.5c5.3-8.5,9.9-16.5,8-26.8
		c7.5-5.5,15-10.9,19.3-19.6c9.8,1.5,6.3-11.2,13.4-12.6c7.4,1,8.3,7.6,10.5,12.6c10,22.1,27.6,38.8,41.6,58
		c-13.7,26-35,45.8-55.4,66.1c-10.5,10.4-22.8,19.1-33.4,29.5C181.5,869.4,175.6,873.7,167.6,872.2z"/>
	<path class="st4" d="M167.6,872.2c40.5-28.9,73.8-65.4,106.1-102.7c22.1,3.6,37.7,20.4,57.5,28.6c1.4,1.3,2.3,2.9,2.8,4.8
		c-1,10.5-8.8,13.6-17.3,16c-20.1-5.1-20.1-5.1-23.9,15.2c-1.2,5.4-4.7,9.1-9,12.2c-25.4,17.9-53.5,31-81.2,44.9
		c-2.4,1.2-5.1,0.6-7.6-0.2C184.3,887.1,175.1,880.9,167.6,872.2z"/>
	<path class="st5" d="M847.9,445.5c-40.3,25.6-80.7,51.1-121.6,77.1c-7.1-7.5-1.9-21.6-15.1-23.2c-5.9-8.8,1.5-14.6,5.5-20.3
		c15.3-22.2,28.5-45.5,40.7-69.5c2.6-5.2,5.2-10.4,7.8-15.5c6.1,2.4,11.2,6.6,15.6,11.2c15.1,15.8,32.7,27.1,53.9,32.7
		C839.6,439.3,844.7,440.8,847.9,445.5z"/>
	<path class="st6" d="M616.9,499.4c-1.3,0.1-2.6,0.3-3.8,0.3c-15.4,0.3-34.5-4.9-45.2,2.3c-12.3,8.4,1.3,27.8-1.3,42.7
		c-1.8,10.2-3.1,20.2-8.3,29.2c-16.2,18.9-36.8,32.8-55.7,48.7c-12.4,10.4-26.4,19-36.5,32.1c-3,4-7.2,7.8-13.4,5.5
		c10.3-17.4,3.9-27.2-14.2-32.4c-4.7-1.4-8.9-4.9-13.3-7.4c-0.2-9.7,6.3-14.2,13.9-17.8c7.2-1.9,14.1,0.8,21.2,1.3
		c52.6,4.1,88.1-35.8,77.6-87.4c-0.9-4.4-2.1-8.8-1.6-13.4c2.8-4.6-1.7-10.6,2.6-15c5.2-1.3,10.5-2.5,15.7-3.8
		c15.9-6.8,30.7-15.7,45.7-24.3c6.2-3.5,11.9-7.9,19.6-5.7c6,2.4,9.6,7.1,12.2,12.7C639.8,483.9,631.7,493.3,616.9,499.4z"/>
	<path class="st7" d="M621.1,457.1c-18.4,2.1-30.6,17.8-48,22.3c-6.1,1.6-11.5,5.8-18.3,5.1c49.8-35.6,101.2-69.3,144.7-113.1
		c4.4,5.9,9.9,11.3,8.3,19.7c-2.1,2.6-5.1,3.8-7.8,5.6c-3.6,2.3-5.5,5.4-3.8,9.8c1.7,4.1,4.9,5.8,9.1,5.8c4.2,0,7.8-1.4,9.6-5.2
		c2.1-4.5-0.5-10.6,4.7-14.2c10.4-1.1,20.7-1.4,30.7,1.9c-4.5,19.9-21.1,30.7-34.7,42.8c-21.5,19.2-43.4,38.2-67.9,53.9
		c-9.8,6.3-19.3,10-30.8,8c6.6-9.3,20.1-15.9,11.8-30.9c5.2-2.4,12.5,1.4,16-5.7c12.1-2.4,18.5-10.5,21.6-21.9
		c3-4.2,8.8-5.2,11-10.2c-14.2-2.2-14.2-2.2-16.3,5.1c-1.7,6-7.6,4.9-11.7,6.9c-1.4,0.7-2.9,1.3-4.3,2c-2.9,1.5-5.9,2.6-9,3.5
		C630.3,449.9,626.7,455.1,621.1,457.1z"/>
	<path class="st8" d="M550.6,660.3c17.1,11.1,29.6,27.1,43.3,41.6c7.9,8.4,12.8,8.6,22.3,1.3c41-31.5,64.9-71.6,67.9-123.7
		c2.2-38.1,2.5-38.3-36.9-44.7c-22.9-3.7-45.2-11.5-68.8-11.1c2.1-6,7.3-4.3,11.5-4.2c32.3,0.7,64.7-0.4,96.9,3.5
		c6.1,0.7,11.2,0.6,12.4,8.8c6.8,46.3,0,89.9-23.7,130.6c-15.4,26.5-37.2,45.9-63.4,61.4c-8.8,5.2-13.5,6.8-20-3.2
		C578.8,700.3,561.4,682.6,550.6,660.3z"/>
	<path class="st9" d="M191.7,729.9c3.4,4.9,9.4,8.4,3.8,16.2c-21.3,29.5-38.6,61.8-62.3,89.7c-17.6-17.3-18.9-35.5-6.3-57.1
		c15.9-27.3,31.7-54.6,52-79C182.6,710,186.8,720.1,191.7,729.9z"/>
	<path class="st5" d="M558.7,465c-7.4,3.6-11.8,16.7-23.3,7.5c7.8-16.1,21.1-28.1,33-40.5c31.2-32.1,60.2-66.1,92.3-97.3
		c9.3-9.1,19.6-17.1,32.3-21.1c5.1-1.6,10.5-1.6,14.5,2.8c4.1,4.5,2.7,9.6,0.4,14.5c-5.5,11.8-13.6,22-20.2,33.2
		c-3.8,3.7-7.6,7.5-11.4,11.2c-13.9,5.7-25.6,14.2-36.5,24.5C614.4,423.7,585.4,442.9,558.7,465z"/>
	<path class="st10" d="M331.9,386.9c18.3,7.4,31.2,22.4,47,33.4c8.2,5.6,13,8.3,23.2,1.3c35.7-24.6,73.8-35.5,113.8-9.1
		c7.8,5.2,9.2,0.8,13-4.3c14.5-19.7,23.3-43.3,41.2-60.7c-9.6,30.5-27.5,57-40.4,85.8c-3.1,7-6.6,5.4-11.8,1.8
		c-40-27.8-78-21.2-114.3,7.4c-5.5,4.3-9.8,8.3-16.3,1.3C369.1,424.6,347.9,408.3,331.9,386.9z"/>
	<path class="st11" d="M687.6,364.1c2.1-13.1,9-24,16.1-34.8c2.2-3.4,4.3-6.9,1.2-10.5c-2.9-3.3-7.3-3-10.8-1.5
		c-12.1,5.1-22.6,12.6-31.5,22.1c-37.7,40-75.1,80.2-112.8,120.2c-4.4,4.7-9.6,8.6-14.4,12.8c-0.6-14.2,6.1-25.2,15.3-35.2
		c18.7-22,36.6-44.5,56.2-65.8c21.6-23.4,45.6-43.6,72.7-60.2c10.8-6.6,22.9-8,34.8-10c14.7-1,12,8.4,8.6,16.2
		C715.2,335.9,702.8,351.2,687.6,364.1z"/>
	<path class="st5" d="M550.8,273.4c-9.3-2.4-18.5-4.9-27.8-7.3c10.3-21.6,25.8-39.7,39.8-58.8c7.6-10.3,18.9-11,28.9-2.5
		c12.6,10.9,25.1,22.4,21.6,41.9c-1.2,3.9-4.3,5.7-7.8,7.2c-10.9,5.8-22.2,10.6-32.8,17C566,275.2,558.7,277.5,550.8,273.4z"/>
	<path class="st11" d="M125.5,843.2c9.7,13.7,20.2,26.6,34.5,35.9c2.1,5.2-0.7,9.3-4.2,11.9c-25.3,18.8-47.8,41.8-77.9,53.6
		c-4.3,2.3-9.5,7.8-13.2,1.5c-4.4-7.5,1.3-14.4,5.1-21c13.3-12.2,18.9-29.6,29.3-43.8C108.1,868.8,113.9,854,125.5,843.2z"/>
	<path class="st3" d="M250.7,670.9c16.8,22.4,35.6,42.8,58.3,59.4c2.2,18.6-14.1,25.3-23.6,36.5c-30.8-14.1-46.6-40.3-57-70.9
		C234.1,686,241.5,677.7,250.7,670.9z"/>
	<path class="st4" d="M284.9,764.6c4.9-13.6,20.9-19.5,24-34.3c18.9,12.5,36.3,27.1,57.4,36c-5.2,21.1-18.8,34.7-34.4,34.4l0.2,0.2
		c-13.4-8.5-28-15.2-40.9-24.6C287.3,773.4,281.6,771.4,284.9,764.6z"/>
	<path class="st11" d="M613.3,246.8c-2.6-13.8-10.2-24.7-20-34.4c-13.6-13.3-19.4-12.9-30.6,2.2C549.9,232,540.3,252,523,266.1
		c-7.3-2.9-16.5,3.7-22.6-4.7c18.5-13.1,26.4-34.5,39.8-51.6c9.5-12.1,17.8-25.3,28.3-36.7c15.4-16.7,23.3-15,30.1,6.2
		c1,3.1,1.9,6.2,2.7,9.3c2.6,7.4,1.8,16,8.5,21.8C612.8,222.3,623.6,233.5,613.3,246.8z"/>
	<path class="st8" d="M390,729.8c6.6-22.3,13.3-44.6,19.9-66.9c1.7-5.9,5.9-12-2.8-16.6c-43.4-22.6-54.2-61.4-52.4-106.3
		c2.9,0.6,4.2,2.5,4.4,5.4c3.8,41.2,26.3,69.6,61.6,88.4c11,5.9,13.6,11.2,6.9,22.3C413.5,679.9,407.9,708,390,729.8z"/>
	<path class="st12" d="M757.4,409.6c-0.3,17.7-11.3,31.1-19.2,45.6c-8.3,15.1-21.2,27.5-26.9,44.2c-17.2,0-34.4,0-51.6,0
		C695.2,472,725.8,440.3,757.4,409.6z"/>
	<path class="st13" d="M730.4,284.6c18-39.6,49-65.4,87.2-83.7c-16.7,38.3-45.1,66.6-76.3,92.6C737.7,290.5,734.1,287.6,730.4,284.6
		z"/>
	<path class="st14" d="M77.8,944.5c22.5-16.8,45-33.7,67.6-50.5c5.6-4.2,11.6-8.1,14.6-15c11.4,6.8,22.8,13.5,35.5,21
		c-17.3,12.8-35.4,19.8-53.6,25.2C120.5,931.7,101.1,944.8,77.8,944.5z"/>
	<path class="st7" d="M452.8,660.3c28.2-29.2,61.8-52.1,92.4-78.6c3.9-3.4,7.3-7.4,13-7.7c-3.3,16.8-12.8,30.5-26.2,39.7
		c-34.1,23.3-64.6,50-90,82.5c-1.5,1.9-3.8,3.1-8.2,3.2C440.2,686.3,446.5,673.3,452.8,660.3z"/>
	<path class="st15" d="M250.7,670.9c-1.8,12.6-11.8,18.4-20.9,24.8c-6.4-8.5-4.1,2.7-6.6,2.9c-3,4.7,0.9,15.9-11.2,12
		c-7.7-8.4-17.4-13.1-28.4-15.2c4.4-13.7,15.7-21.7,25.6-30.8C234.2,641.9,234.3,642,250.7,670.9z"/>
	<path class="st16" d="M125.5,843.2c-12.8,31-33.7,57.2-51.1,85.4c-3.5,5.6-3-2.3-4.7-3.5c13.3-36.4,26.6-72.8,40.7-111.3
		C116.1,824.8,120.8,834,125.5,843.2z"/>
	<path class="st17" d="M714.4,301.3c-54,16.6-89.4,57.6-126.1,96.7c-10.6,11.3-19.7,24-29.7,35.9c-1.8,2.1-2.7,8.7-8,3.5
		c29.6-47.5,64.3-90.1,111.5-121.7C678.4,304.7,694.7,297.8,714.4,301.3z"/>
	<path class="st18" d="M598.3,190.3c-2.7-9-2-22.1-11.9-24.3c-9.1-2.1-14.3,9.8-19.5,16.7c-17.1,22.7-33.4,45.9-49.6,69.3
		c-4.3,6.3-8.2,11.6-16.9,9.5c20.9-39.7,48.8-74.3,77.8-108.1c7.1-8.3,14.2-12.8,17.2,3.4c1.6,8.8,4.4,17.5,6.7,26.2
		C603.5,186.9,605.3,190.8,598.3,190.3z"/>
	<path class="st19" d="M456.4,433.1c19.6-5.4,56.7,7.6,67.4,23.1c4.8,7.1-2.1,13.5-0.1,20.3c-1.5,1.4-3.3,2.1-5.4,2.2
		c-18.1-9.6-38.4-12.9-57.4-20.2c-3.8-4.6-3.4-10.2,0-13.8C468.4,436.7,457.9,436.9,456.4,433.1z"/>
	<path class="st7" d="M195.2,890.9c26.7-14.7,53.5-29.2,79.9-44.4c5.8-3.3,13.5-5.9,14.4-14.6c8.5-0.1,16.7,2.8,25.2,2.5
		c0.7,0.6,1.3,1.2,1.9,1.8c-4,8.2-11.8,11.5-19.2,15.3c-27.6,13.9-55.2,27.6-82.8,41.4C207.6,896.3,200.6,901.5,195.2,890.9z"/>
	<path class="st20" d="M681.9,216.6c8.6,0.4,9.8,5.5,5.5,11c-8,10.2-5.1,17.9,3.7,25.2c-2.1,15.7,16.9,18,19.5,31.1
		c-9.4,3.9-17,0.7-23.5-6.5c-9.6-3.5-14-11.7-18.3-19.9c-11.8,12-11.8,12-17.3,3.1C657.5,243.2,656.4,220.8,681.9,216.6z"/>
	<path class="st19" d="M436.7,606.4c-3.8,4.7-7.6,9.4-11.4,14.1c-27.1-14-46.7-33.7-50.7-65.6c2.9-5,5.4-10.5,12.8-8.9
		C398.7,570.3,418.9,587.4,436.7,606.4z"/>
	<path class="st21" d="M386.5,546.8c-4,2.7-7.9,5.4-11.9,8.1c-6.7-20.8-6.6-39.3,11.5-56.1c13.9-13,25.6-28.7,32.9-46.9
		c2.7-6.6,7.7-10.2,14.2-12.1c5.9,12.4-3,21.3-7.3,31.3c-21.2,18.4-33.3,41.4-35.4,69.5C390.3,543.1,388.6,545.2,386.5,546.8z"/>
	<path class="st7" d="M332,800.7c18.2-4.8,22.5-23.4,34.4-34.4c14.6,4.3,16.6,12.2,6,22.8c-17.3,17.2-32.2,37.3-55.8,47
		c0,0-0.2-0.2-0.2-0.2c-4.6-6.5-2.5-13,0-19.5C322.2,811.8,330.8,809.9,332,800.7z"/>
	<path class="st12" d="M558.7,465c16.5-22,40.8-35.3,60.6-53.7c10.8-10.1,22.5-19.3,33.8-28.8c6.7-5.7,14.2-9,23.2-7.1
		C641.9,411.6,601.1,439.4,558.7,465z"/>
	<path class="st22" d="M776.1,362.5c-2.1,0.4-4.2,0.8-6.2,1.3c-8.8,1.4-16.8-1.5-24.8-4.5c-7.7-6.6-17.6-11.5-18.7-23.3
		c2.8-6.5,5.6-13.1,8.4-19.6c3.2-1.4,6.8-1.3,9.3,0.7c16.7,12.8,35.9,20.3,55.7,26.5c-3.4,8.3-9.6,12.4-18.7,12
		c-8.8-3.1-17.6-6.2-25.4-11.5c6,4.4,13,6.8,19.6,10.1C779.1,355.9,781.2,359.3,776.1,362.5z"/>
	<path class="st11" d="M847.9,445.5c-35-5.1-62.2-22.8-82.7-51.4c4.3-8.4,8.4-3.4,12.5,0.2c17.6,13.9,36.3,25.6,57.9,32.2
		c5,2.5,10.4,4.5,15.1,7.5C859.5,439.8,852.9,442.6,847.9,445.5z"/>
	<path class="st23" d="M183.5,695.5c15.9-6.9,24.5-0.3,28.4,15.2c-1.1,12.2-5.4,21.2-20.1,19.3c-10.5-7.4-18.9-15.8-12.8-30.2
		C180.5,698.3,182,696.9,183.5,695.5z"/>
	<path class="st24" d="M609.3,288.9c-5.1,9.5-12.4,10.9-19.4,3.1c-7.4-8.2,3.2-10.4,6.9-14.1c7.1-7.2,14.7-14,22.6-20.3
		c10.2-8.1,15.5-3.8,17.1,7.8C633.7,280.6,621.7,285,609.3,288.9z"/>
	<path class="st25" d="M422.1,469.6c3.7-10,7.3-19.9,11-29.9c7-5,14.7-7.3,23.3-6.6c4.3,0.5,8.7,0.9,13.5,1.5
		c-3.1,7.7-6.1,15-9,22.4C450.5,468.9,436.8,470.6,422.1,469.6z"/>
	<path class="st26" d="M799.9,343.5c-27.3,4.5-44.5-15.5-65.1-27.2c0-4.5,0-8.9,0-14c20.5,8.6,33.4,30.9,58.1,29.8
		c3.6,0.6,8.3-1.2,9.5,4.4C801.6,338.9,800.8,341.2,799.9,343.5z"/>
	<path class="st27" d="M609.3,288.9c9.1-7.7,21-12.2,27.2-23.4c0.5,5.8-0.6,12.2,1.6,17.2c9.8,22.1,2.4,37.4-17.2,48.8
		c-2.4-1.7-6.1-0.3-7.8-3.4c8.8-4.9,18.2-9.2,15.4-22.4C626.3,294.9,620.8,288.7,609.3,288.9z"/>
	<path class="st28" d="M651.6,260.8c8.8,1.5,9.6,1.7,12-9.7c2.6-12.2,4.8-7.9,8-0.6c-3.7,13.2,9.6,19.9,12,30.9
		c0.3,2.7,5.6,5.4,0.1,8.2c-6.4,3.7-10.2-1.7-14.7-4.4c-8.8-5.4-0.2,4.5-3.5,3.9c1.6,2.6,4.4,5.3,0.6,8.2c-3.9,3-7,1.3-9.9-1.9
		C646.9,284.8,642.7,273.7,651.6,260.8z"/>
	<path class="st29" d="M746.3,355.2c7.9,2.8,15.7,5.7,23.6,8.5c-14.2,11.3-29.3,16-46.1,5.8c-5-3-14.6-4.4-11.5-12.6
		c4.1-10.9,11.8-0.9,17.9-1C735.6,355.8,741.1,359,746.3,355.2z"/>
	<path class="st30" d="M750.4,394.8c-10.6,6.4-21.3,2.1-32,0.3c-5.1,1.3-8.6-0.5-10.8-5.1c-4.5-5.4-9.7-10.5-8.1-18.6
		c17.6,5.4,32.6,17.9,53,16.2C758.4,387,752.1,392.4,750.4,394.8z"/>
	<path class="st31" d="M550.8,273.4c9.7,0.7,16.7-4.9,24.4-9.7c9.1-5.8,18.7-11.5,30.4-9.7c-3.8,4.4-8,8.4-11.3,13.1
		C581.9,284.5,567.5,286.9,550.8,273.4z"/>
	<path class="st32" d="M835.6,426.5c-23.8-2.7-42.4-14.6-57.9-32.2C797,405,816.3,415.7,835.6,426.5z"/>
	<path class="st33" d="M776.1,362.5c-7-13.6-26-11.5-33.1-27.4c14.5,4.9,26.4,12.5,38.3,20.4C781.5,359.3,780.5,362.2,776.1,362.5z"
		/>
	<path class="st34" d="M746.3,355.2c-0.2,8.1-2.3,8.2-16,0.7c5.1-7.9-16.4-10.7-3.8-20C729.9,345.6,738,350.5,746.3,355.2z"/>
	<path class="st35" d="M665.6,289c-5.1-4.2-7.4-9.8-9.1-17.8c11,4.8,14.8,18.4,27.2,18.2C677.5,296.5,671.6,290.2,665.6,289z"/>
	<path class="st36" d="M683.6,281.3c-7.7-8.8-19-16.3-12-30.9c1.9,10.9,11.2,17.6,15.6,27.1C686,278.8,684.8,280,683.6,281.3z"/>
	<path class="st37" d="M598.3,190.3c1.2-2.4,2.5-4.8,3.7-7.3c4.8,8.5,6.6,17.8,7.7,27.4c-1.6,0.7-0.4,8.7-4,2.5
		C601.8,206.2,600.6,197.9,598.3,190.3z"/>
	<path class="st38" d="M519.4,476.6c1.4,0,2.9-0.1,4.3-0.1c5.1,3.9,10.2,7.8,15.3,11.7c-0.6,4,4,8.3-0.4,12.2
		C527.8,496,520.2,489.1,519.4,476.6z"/>
	<path class="st39" d="M613.2,328.1c3,0.2,6,0.4,7.8,3.4c-5.7,5.2-11.3,10.5-19.1,17.7C603.7,339.1,607.9,333.3,613.2,328.1z"/>
	<path class="st40" d="M421.4,310.1c-13.3,9.9-25.9,18.7-38,28.2c-16.2,12.8-37.7,23.7-17.6,49.5c-7.7,2.5-9.7-1.6-12.4-3.6
		c-31.2-22.7-31.2-23,2.6-44.6c16.9-10.8,33.7-21.7,52.5-29C412.2,309.2,415.7,307.4,421.4,310.1z"/>
	<path class="st41" d="M321.6,556.4c-13.6,6-23.7,11.3-34.4,14.9c-11,3.7-12.8,9.9-10.5,20.7c4.5,21.1,12.4,40.8,21.4,60.3
		c3.2,6.9,8.5,13.3,5.4,23.2c-24.4-31.2-46.9-62.2-54.9-101.2c-1.2-6.1-4.3-13.9,6.1-14.5C275.6,558.7,296.3,551.4,321.6,556.4z"/>
	<path class="st42" d="M590.1,553.1c7.7,45.7-6,71.1-46.9,83.3C570.6,611.6,586.5,585.8,590.1,553.1z"/>
	<path class="st43" d="M223.1,698.7c0.8-3.3-3.1-7.3,1.2-9.8c0.4-0.2,3.6,4.5,5.5,6.9c14,26.5,28.7,52.4,55.2,68.9
		c11.5,17.7,34.1,20.8,47.2,36.3c-21.4-7-39.9-19.2-58.4-31.5C250,750.7,234.6,726.1,223.1,698.7z"/>
	<path class="st44" d="M246.9,777.2c-1,10-4.7,18.6-14.6,18.1c-11.9-0.7-21-8.7-21-21.1c0-9,7.8-15.9,16.9-14.8
		C238,760.4,246.3,766.2,246.9,777.2z"/>
	<path class="st45" d="M316.4,816.4c5.4,6.5,0.7,13,0,19.5c-9.7,3.5-19.1,5-27-4.1c-1.6-8.8-0.7-16.9,8.2-21.5
		C305.8,806,310.6,812.9,316.4,816.4z"/>
	<path class="st46" d="M519.4,476.6c6.4,7.9,12.8,15.8,19.2,23.7c28.4,74.8-36.5,124.2-94.3,105.7c-2.3-0.7-5.1,0.1-7.6,0.3
		c-24.3-13.5-42.9-31.7-50.2-59.6c-0.4-31.4,8.5-58.5,35.6-77.2c12.9-4.2,25.8-8.5,38.7-12.7C482,458.8,502.5,462.4,519.4,476.6z"/>
	<path class="st47" d="M621.1,457.1c2.3-8.2,6.3-13.9,16.1-11.5c4.5,5.5,9,11,7.6,18.9c-1.4,17.2-10.5,3.5-16.1,4
		C626.2,464.7,623.7,460.9,621.1,457.1z"/>
	<path class="st48" d="M707.5,389.9c3.6,1.7,7.2,3.4,10.8,5.1c4.3,10.3,4.3,19.2-8.7,22.5c-9.4,2.4-17.4-0.8-19.6-10.8
		C686.9,392.8,697.6,391.4,707.5,389.9z"/>
	<path class="st49" d="M660.6,436.9c-3.1-2-6.2-3.9-10.4-6.6c7.7-2.9,14.2-6,21-7.5c5.2-1.2,12.5-3.9,15.1,3.5
		c2.5,7.2-4.1,10-9.3,12.5c-2.8,1.4-6.1,1.9-9.2,2.8C663.4,443.1,661.5,440.8,660.6,436.9z"/>
	<path class="st50" d="M660.6,436.9c2.4,1.5,4.8,3.1,7.2,4.6c1.6,17-6,24.7-23,23c-4.8-5.4-10-10.7-7.6-18.9c2.5-1.4,5-2.8,7.5-4.1
		c2,1.9,3.3,4.6,6.1,6.3c-1.7-2.8-4.3-4.1-6.3-6.1C648.6,435.4,655.2,438.3,660.6,436.9z"/>
	<path class="st51" d="M227,765.9c5.7,1.4,6.1,5.4,5.9,9.3c-0.2,3.9-2.8,5.8-6.5,5.3c-4.1-0.6-7.6-2.5-6.8-7.5
		C220.3,768.7,223.7,766.8,227,765.9z"/>
	<path class="st52" d="M303.5,831.6c-5.1,0-8.7-2.3-9.4-7.3c-0.6-4.3,2-7.5,6.2-7.9c5.7-0.5,10.1,2.2,10.5,8.1
		C311.2,828.8,307.5,830.9,303.5,831.6z"/>
	<path class="st1" d="M441.3,590.1c-26.5-7.7-39.4-27.2-41.3-52.8c-1.8-24.3,9.5-44.6,31-56.4c24.3-13.3,49.4-14.5,72.7,3.8
		c21,22.7,26.7,46.7,16.1,66.9C502.9,583.6,478.2,595.7,441.3,590.1z"/>
	<path class="st8" d="M441.3,590.1c23.6,0.8,44.4-4.8,61-23.2c19.7-21.8,22.8-40.7,9.1-66.9c-2.6-5.1-7.8-8.9-7.8-15.3
		c20.7,11.3,30.9,33,27.6,58.6c-2.9,22.5-21.6,44.5-43.5,49.8C472.1,596.9,456.1,600.2,441.3,590.1z"/>
	<path class="st53" d="M711.1,404.4c-1.1,5.7-4,9.1-9.1,8c-4.7-1-7.2-5-6.1-10.1c0.9-4,3.5-6.9,7.8-6.5
		C709.1,396.3,710.7,400.3,711.1,404.4z"/>
	<path class="st54" d="M644.6,441.6c5.9,0.7,13.9-2.9,15.3,7.1c0.6,4.4-1.5,7.5-6.3,7.8c-5.2,0.4-8.9-1.5-9.1-7.3
		c-0.1-2.6,0.2-5.2,0.3-7.7C644.8,441.5,644.6,441.6,644.6,441.6z"/>
	<path class="st41" d="M468.5,481c-29.8,25.1-43.5,54.1-38.9,91c-18.6-10.6-24.5-29.7-17.5-53.9C419.4,493.3,438.6,480.1,468.5,481z
		"/>
</g>
</svg>
