<?xml version="1.0" encoding="utf-8"?>
<!-- Generator: Adobe Illustrator 23.0.1, SVG Export Plug-In . SVG Version: 6.00 Build 0)  -->
<svg version="1.1" id="Layer_4" xmlns="http://www.w3.org/2000/svg" xmlns:xlink="http://www.w3.org/1999/xlink" x="0px" y="0px"
	 viewBox="0 0 1000 1000" style="enable-background:new 0 0 1000 1000;" xml:space="preserve">
<style type="text/css">
	.st0{fill:#010000;}
	.st1{fill:#F26507;}
	.st2{fill:#A36D49;}
	.st3{fill:#F9986E;}
	.st4{fill:#FEB359;}
	.st5{fill:#FEFE65;}
	.st6{fill:#945F3C;}
	.st7{fill:#FBBB9D;}
	.st8{fill:#FDB459;}
	.st9{fill:#FDFC65;}
	.st10{fill:#FABB9D;}
	.st11{fill:#F9BA9D;}
	.st12{fill:#F06407;}
	.st13{fill:#F16507;}
	.st14{fill:#FAAD53;}
	.st15{fill:#FAF964;}
	.st16{fill:#FBB358;}
	.st17{fill:#F7B99B;}
	.st18{fill:#9F6947;}
	.st19{fill:#915D3B;}
	.st20{fill:#FBB056;}
	.st21{fill:#F4F262;}
	.st22{fill:#F3AE54;}
	.st23{fill:#8F5C3A;}
	.st24{fill:#C18A45;}
	.st25{fill:#C4873E;}
	.st26{fill:#312015;}
	.st27{fill:#FCAE53;}
</style>
<g>
	<path d="M478.9,775.3c7.9-41.8,23.9-75.1,52.6-101.3c-29.4-7.9-54.1,14.1-63,48.2c-6.7,25.7-19.3,46.9-48,56.1
		c-18,5.7-31.8,0.4-43.4-9.5c-19.7-16.8-24.4-23.2-44.7,7c-3.1,4.6-5.6,9.6-8.7,14.9c11.1,2.4,16-8,25.1-10.1
		c21.4-5,47.2,9.2,49.7,30.6c1.9,16.9-9.8,24.7-23,24.2c-16.9-0.6-22.1,5.9-27.1,20.9c-11.7,34.9-38.4,59.4-68.3,87.9
		c-4.6-42.9,9.3-78.6,21.2-118.7c-31.5,42.8-78.1,55-118.4,77.2c-4.3,2.4-9,7-13.7,2.2c-4.2-4.3,1.9-8.2,3.1-11.9
		c10.7-30.4,29.3-56.8,45.1-84.6c15.8-27.6,19.2-58.3,24.5-88.5c5.4-30.9,8.2-62.1,8.5-93.6c0.3-27,19.1-39.9,44.2-31.2
		c8.7,3,13.7,1.6,13.5-5.7c-0.5-13.7,7.8-26.2,3.6-40.8c-17.7,20.5-35.7,40.6-65.5,41.7c-1.2,0-3.2,0.7-3.4,1.5
		c-11.4,39.2-50.1,49.7-77.1,72.2c-8.3,6.9-16.1,16.2-28.1,18.4c-6.1-65.3,36.8-126.2,96.3-109.6c-1.5-44.7,22.1-82,36.2-121.9
		c7.8-22.2,32.7-30.5,52.9-44.3c-7.5,39.7-12.4,79.2-4,122.8c5.7-41.8,7.5-80.9,21-117.5c17.8-48,28.7-99.1,58.6-141.9
		c19.3-27.7,41.6-53.1,63.7-78.8c31.2-36.3,67.7-64.5,108.7-88.3c28.2-16.4,58.7-23.6,90.6-29.2c33.9-5.9,65.7,0.7,97.6,8.1
		C834,99,832.9,172,799.7,217.9c-8.8,12.3-17.2,24.9-25.4,37.6c-7.7,11.7-2.8,17.7,9.3,22c28.8,10.2,58.9,15.7,86.5,30.4
		c34.9,18.5,52.7,43.5,52.4,84.3c-0.4,51.5-10.7,98.8-39.5,142c-26.9,40.3-65,66.9-105.9,90.7C728,653.7,672.6,666.7,620,686.6
		c-39.5,14.9-70.2,41.3-103.6,64.6C505.6,758.7,496.6,768.9,478.9,775.3z"/>
	<path class="st0" d="M205.1,729c6.2,26.9,7.3,50.4,2.3,74.6c-4.7,22.9-15.6,40.6-36.3,50.1c-25.7,11.8-41.6,29.6-50.8,56.8
		c-6.8,20.3-20.3,38.3-32.3,59.9c-5.3-32.8-12.4-62-5.9-92.2c7.5-34.9,20.8-65.4,52.6-86.1C160.3,775.3,183.8,755.2,205.1,729z"/>
	<path class="st1" d="M816.6,553c37.5-17.4,56.7-47.4,61.1-87.8c17.1-28.4,19.6-59.9,13.7-90.9c-4.4-23.1-25.3-35.2-45.8-44.3
		c-17.9-8-37.1-11.6-56.7-12.2c-8.5-0.3-16.7-1.3-24.4-5.3c-5.1-15.1-15.3-26.8-25.8-38.4c2.4-20.3,15.6-35.2,26.5-51
		c2.9-4.2,7.7-7.2,13.6-5c-7.5,12.9-15.5,25.5-22.4,38.7c-6.9,13.2-3.6,23.8,10.3,30.5c13.5,6.5,27.4,11.6,42.2,14.8
		c22.4,4.8,42.8,13.7,62.7,25.7c30.7,18.6,37.6,46,36.1,78.3c-4.1,87.3-47.8,150.2-120.1,195.7c-26.6,16.7-55,29.2-84.5,39.8
		c-69.9,25.1-144.1,41.9-197.5,100.5c7.6-24.1,21.7-42.8,39.9-58.7c4.8-4.2,11.7-7.7,10.2-15.2c-1.8-8.7-10-9.8-17.1-10.2
		c-35.9-2.2-74.7,9.1-84.2,52.1c-2.2,10.2-5,20.2-10.2,29.3c-16,27.9-39.1,32.4-64.1,12.5c-25.6-20.4-40.5-19-56.1,9.7
		c-28.4,51.9-66.8,92.4-121.3,116.7c-2.7,1.2-5.5,2.4-10.9,4.8c13.7-27.5,32-48.9,42.7-74.6c21.4-51.2,27.1-105.3,30.9-159.9
		c0.5-7.1,1.6-14.2,2.5-21.2c1.9-15.7,8.9-21.5,25.3-15.7c15.6,5.5,29.6-3.1,31-19.6c3.2-38.2,15.4-74.9,17.2-113.5
		c2-42.5,21.2-80.8,35.7-122.6c3.9,10.8,0.6,18.9,0.9,27.1c-2,4.6-0.5,9.8-2.4,14.4c-10.4,62.3-12.7,125.4-19.4,188
		c-1.6,14.8-8.2,27.1-18.6,37.8c-21.9,22.3-31.3,47-30.5,79.3c5.8,2.2,7.7-3.3,10.6-5.9c16.8-14.8,36.3-19.6,58.1-16.2
		c3.9,0.6,7.9,0.9,11.5,2.3c28.4,11.5,49.3,6.7,68-20.7c19.7-28.8,51.3-41.6,86.4-41.9c15.2-0.1,28.9-8.1,44.2-6.3
		c9.2,5.3,18.5,10.6,27.7,16c-0.5,13.8-14.5,18.8-18.8,29.4c15-6.3,27.7-19,45.4-21.1c41.6,2.7,75.5-15.2,106.6-40.2
		C770.6,583.8,794.4,569.6,816.6,553z"/>
	<path class="st2" d="M656,441.3c-11.4,39.9-25.8,48.1-65.4,38c-35-8.9-66.8-24.7-98-42.3c-5.4-1.4-10.9-1.9-15.4-5.8
		c-1.9-1.6-4-1-1.5-0.2c0.5,0.2,0.4,2.3,0.8,3.6c1.6,10-1.4,19.4-4.3,28.6c-2.8,9.1-1.9,15.1,8.9,16.7c18.8,2.8,33,13.7,46.3,26.4
		c16.6,16,35.4,24.7,59.6,20.8c13.8-2.2,28.4-3,41.7,4.3c15.2,22.1,33.2,40.9,58.9,50.8c8.5,12.8,3.6,24.1-3.9,35.1
		c-29.9,15.4-56.5,6.2-82.3-10.8c-21.6-14.2-40.9-32.4-66.2-40.6c-22.6-20.5-48.6-34.3-78.5-41.1c-25.9-5.9-41.1-23.5-50.4-47.2
		c-14.7-37.2-15.1-76-12.1-115.1c1.9-28.7,24-50,63.1-61c2.5,9.3-3.8,16-6.8,23.7c-8.1,20.7-4.9,34.7,12.8,47.9
		c54.9,41,115.1,67.7,185.2,66.6C651.1,439.6,653.6,440.1,656,441.3z"/>
	<path class="st3" d="M703.3,434c16.2-14.9,32.1-29.9,43.5-49c8.8-14.7,26.9-6.3,37.9-15.8c-8-3-16.2-0.9-24.2-1.2
		c4-24,9.1-26.9,36.3-20.6c1.1,3.7-10.2,2.4-3.9,6.2c51.1,30.9,68.6,77.7,65.7,134.7c-2.8,16.1-11,28.4-25.8,35.9
		c-16.6,7.1-32.4,16.2-50,21c-13.1,3.6-26.2,7.1-39.9,7.3c-40.8,0.5-57.7-18.2-54.2-59C690.5,472.7,690.7,451.9,703.3,434z"/>
	<path class="st3" d="M656,441.3c-13.4,8.1-28.3,5.4-41.8,2.9c-55.5-10.1-107-30.3-151.9-65.5c-24.5-19.2-28-34.4-13.4-61.9
		c2.7-5.2,5.6-10.2,8.4-15.4c3.6-2,6.8-4.9,11.4-3.9c5,10.1,14.3,9.5,23.4,9.7c21.9,0.5,43.8-0.9,65.7,2.8
		c27.4,4.6,51.7,15,74.3,31.1c17.7,12.6,30.7,26.9,31.9,49.5C665.2,408.1,661.6,424.9,656,441.3z"/>
	<path class="st4" d="M585.8,613.7c-13.7,8.1-28.6,11.6-44.4,11.8c-40.3,0.4-70.5,19.3-92.7,51.9c-12.7,18.7-21.7,22.1-44.4,15.4
		c-19.8-5.8-39.2-11.6-60.7-5.9c-17.8,4.7-26.5,19.7-42.5,32.6c-0.3-39.5,2.2-73.8,32.5-99.5c13.2-11.2,16.2-26.7,18.2-43.4
		c6.7-57.8,5.8-116.4,19.3-173.4c0.7-3,2.4-5.7,3.7-8.6c5.7,17.9-1.3,36.7,3.8,54.7c2.4,16.4,7.4,32,14.7,46.9
		c-2.2,45.1,2.5,90.6-10.9,137.2c11.1-2.4,20-7,29.1-10.9c27.5-11.6,54.7-23.9,83.8-30.9c17-4.1,34-7.8,51.6-5.4
		C562.1,592.1,574,602.8,585.8,613.7z"/>
	<path class="st3" d="M726.8,226.7c-1.3,42.9-32.8,65.5-60.9,90.3c-3.4,3-5.8,1-8-1.6c-22.7-27.8-54.5-32.8-87.4-35.2
		c-5.1-1.1-10.6-2.1-12.1-8.1c-9.8-38.2-14.1-76.1,8-112.1c8.2-6,17.3-8.3,27.3-7.4c33.3-1.2,58.5,15.1,81.8,36.7
		C691,203.8,708.3,216.2,726.8,226.7z"/>
	<path class="st4" d="M778.9,218.1c-21.7,12.7-25.3,38.4-40.1,56c-8.2-3.1-7.5-8.4-4.7-15.4c7.2-17.7,9.2-35.9,3.3-54.4
		c1.7-5.8-0.1-11.6,0.2-17.4c1.9-35.4-15.2-54.4-50.6-56.4c-26-1.5-51.6,2.7-77.3,5.7c-15.7,2.8-31.4,5.6-47.2,8.4
		c-2.4,1.6-4,1-4.6-1.8c2-6.3,7.4-9,12.9-10.9c56-19.6,111.6-39.3,173.1-28.2c47.8,8.7,74.3,28.4,53,84.7
		C792.9,199.5,786.9,209.4,778.9,218.1z"/>
	<path class="st5" d="M546.9,586.2c-41.2,7.5-81.7,17.6-120.1,35.1c-17.4,7.9-35.1,15.1-56.8,24.4c19.7-40.1,16.5-79,16.8-117.5
		c0.1-11.1,2.4-21.7,6.4-32c5.3,8.1,10.6,16.2,16,24.3c14.5,21.8,33.2,36.7,59.8,42.8C495.4,569.3,522.4,573.8,546.9,586.2z"/>
	<path class="st2" d="M703.3,434c-4,21.4-7.9,42.8-10.1,64.7c-2.9,28.8,11.6,47.3,40.7,48.5c28,1.2,53-9.7,78.6-18.2
		c6.6-2.2,12.6-6.9,20.3-5c-29.7,20.9-60.3,40.9-96.4,48.3c-44.9,9.3-90.6-21.6-100.5-65.5c-1-4.4-4.1-9.2,0.4-12.6
		C660.2,475.9,674.8,447.1,703.3,434z"/>
	<path class="st1" d="M796.7,188.3c0.2-2.6,0-5.3,0.7-7.7c13.1-46-5-61.3-47-70.4c-46.6-10.1-92.5-3.5-137,12.9
		c-18,6.6-37.5,9.7-53.8,20.9c-12.1,8.6-26.8,13.7-36.1,26.2c-6.5,4.6-13,9.3-19.4,13.9c-33.8,38.9-64.4,80.3-93.8,122.6
		c-5.9,4.4-11.9,8.8-22.3,16.6c20.4-42,43.8-75,71.5-105c45.1-48.8,92-95.4,156.4-118.8c53-19.3,106.1-18,157.2,4.8
		C809.2,120.1,816.9,153.2,796.7,188.3z"/>
	<path class="st6" d="M628.6,531.4c-19,2-38,0.1-57.3,2.1c-17,1.8-33.2-8.9-45.8-21.7c-14.7-15.1-30.5-27.6-53.2-27.7
		c-9.2-0.1-12.2-5.2-8-14.4c5.6-12.4,9.1-25.4,8.2-39.3c9.3-2.3,11.3,6.3,16,10.8c29.2,25.5,62.5,44.6,100.5,51
		C613.9,496.4,626.6,507,628.6,531.4z"/>
	<path class="st2" d="M566.4,160.1c-9.4,34.4-14.6,69-5.2,104.5c1.7,6.5,3.5,12.1,9.3,15.7c-19.8,0.4-39.5-5.1-59.6-1
		c-9.7,2-8.7-5.4-6.1-11c4.3-9.3,9.4-18.1,16.9-32.4c-16.2,10.6-20.6,24.3-29.6,33.7c-13.2-4.4-9.6-14.4-8-23.8
		C501.7,207.7,527.2,177.3,566.4,160.1z"/>
	<path class="st3" d="M678.7,399.3c1.2-16.2,2.8-32.9-3.3-48.1c-6.5-16.2-1-25.9,12.1-34.7c8.4-5.7,15.5-13.2,23.2-19.9
		c16.2-0.1,20.4,13.7,26.3,24.3c6.6,11.8,10,24.9,9.3,38.8c-2.8,12.7-11.4,21.7-19.7,30.9C712.4,403.4,697.3,411.2,678.7,399.3z"/>
	<path class="st7" d="M664.1,390.6c-17.8-46.4-56.9-63.8-101-74.2c-28.1-6.6-56.8-3.7-85.2-3.8c-12.2,0-15.8-4.2-9.2-15.1
		c41.7-8.8,83.8-8.7,125.3-1C646.3,306.3,667.6,336.4,664.1,390.6z"/>
	<path class="st8" d="M764.6,312.4c35.8-1,70.8,2.3,101.6,23c32.2,21.7,40.7,47.9,30.1,93.7c-3.1,13.3-3.3,28.8-18.6,36.1
		c3.2-14.6-2.4-28.7-2.5-43.1c1.2-7.7-0.5-15.3-1.2-23c-3.8-42.1-26-62.5-69.6-64c-6.2-0.8-12.8-3.2-18.6-2.1
		C768.1,336.3,764,327.1,764.6,312.4z"/>
	<path class="st6" d="M394.1,362.4c-0.5,35.8,2.8,71.1,13.7,105.4c8.8,27.9,24.9,46.6,55.4,53.7c28.1,6.6,57.1,14.8,71.9,44.3
		c-26.4-4.2-52.6-10.8-76.9-20.9c-39.5-16.5-56.6-53-65.3-91.6C386.2,423.7,388.5,392.6,394.1,362.4z"/>
	<path class="st1" d="M293.7,911.8c5.3-37.6,13.1-74.3,37.7-104.4c15.4-18.9,32.3-20.4,46.8-6.4c4.3,4.1,8.8,8.3,5.7,15
		c-2.6,5.5-8,6.9-13.2,6c-18.8-3.4-27.1,6.6-32.3,22.9C329.9,871.3,312.6,892,293.7,911.8z"/>
	<path class="st9" d="M609.6,136.1c26.4-9.1,53.7-13.4,81.5-10.9c36.4,3.2,68.5,31.5,46.2,79.1C710.3,152.4,664.3,136.1,609.6,136.1
		z"/>
	<path class="st10" d="M726.8,226.7c-16.5-1-28.2-10.7-39.6-21.5c-26.8-25.2-56-46.3-93.5-52.5c46.3-7.3,87.8-0.1,118.6,39.2
		C720.4,202.2,728.5,212.4,726.8,226.7z"/>
	<path class="st11" d="M858.6,488.2c-3.6-19.5-6.9-39.1-11-58.5c-6.8-32.1-29.4-52.1-54.4-70.1c-4.1-3-8.3-5.9-15.1-10.8
		c8.2-0.6,13.5-1,18.8-1.5c34,5.5,49.5,30.7,60.3,59.3C867.2,433.3,868.2,460.8,858.6,488.2z"/>
	<path class="st12" d="M150.5,659.3c4.3-37.8,28.3-69.2,56-75.2c7-1.5,14.9-4,19.2,3.6c4.5,7.9,0.3,15.7-6,20.5
		C197.3,625.4,174.3,641.8,150.5,659.3z"/>
	<path class="st13" d="M265.7,504.8c9.9-23.9,9.7-53.6,41.1-70.6c-7,32.2-7.5,60.1-3.3,88.6c2.8,19.3-28.4,51-48,52.6
		c-9.3,0.8-10.9-5.7-6.3-25.7c8.5,9.1,14.9,7.2,20.9-3.2c7.7-13.3,9.5-28.1,12.2-42.8c2.2-12,3-24.1,6.6-35
		C280.7,480.1,284.6,499.3,265.7,504.8z"/>
	<path class="st14" d="M265.7,504.8c9.4-7.3,10.2-19.1,14.8-28.9c3.6-7.5,5.1-16.1,14.4-20.4c-3.5,22.7-6.4,44.8-10.4,66.8
		c-2.2,12.1-6.9,23.7-14.8,33.5c-3.5,4.3-7.1,10.7-13.8,8.8c-6.9-2-5.6-9.4-6.7-14.9C251,533.3,257.5,518.7,265.7,504.8z"/>
	<path class="st15" d="M804.4,335.1c33.5-10.3,71.4,16.9,74,51.1c0.9,11.8,4,24.5-3.3,35.8c-5.5-17.1-10-34.4-20.7-49.6
		C841.8,354.3,825.9,341.1,804.4,335.1z"/>
	<path class="st16" d="M410.4,306.6c-1.3-6.4,2-11.4,5.4-16.1c24.6-33.9,48.5-68.4,77.8-98.5c3.1-3.1,7-5.4,10.6-8
		c-12.8,20.8-25.7,41.7-38.5,62.5c-9.9,16.2-22.9,30.3-31.3,47.5C426.4,298.3,418.4,302.5,410.4,306.6z"/>
	<path class="st17" d="M746.2,359.7c-8.3-14.9-8.4-33.2-19.4-47.1c-4.8-6.1-9.3-12.2-16.2-16c13.9-18.3,13.9-18.2,28-0.3
		C754,315.9,756.5,337,746.2,359.7z"/>
	<path class="st18" d="M678.7,399.3c17.4,4.8,32.3-3.8,47.9-8.7c-10.9,22.8-33.4,32.9-53.9,51.8
		C675.1,425.2,676.9,412.2,678.7,399.3z"/>
	<path class="st19" d="M683.6,617.3c1.3-11.7,2.6-23.4,3.9-35.1c14.4,3.5,28.9,5.4,48.2,3C718.3,601.5,702.7,612,683.6,617.3z"/>
	<path class="st20" d="M640.1,637.9c-18.2,10.8-36.4,21.7-57.5,34.3c6.9-19.4,20.7-29.7,31-42.6
		C622.4,632.4,631.2,635.2,640.1,637.9z"/>
	<path class="st21" d="M434.4,294.1c-6.5-11.1,4.2-17.2,9-22.5c7.4-8.3,8.8-22.3,22.3-25.1c-3.3,10.4-7.3,20.7-9.7,31.3
		C453.2,289.8,443.5,291.3,434.4,294.1z"/>
	<path class="st22" d="M816.6,553c-19.9,20.3-42.2,36.7-69.9,44.7C765.1,575.2,792.5,566.7,816.6,553z"/>
	<path class="st23" d="M484.2,245.7c3.1,7.8,2.2,16.9,8,23.8c-1.2,11-9.3,14.7-17.8,11.6c-10.7-3.9-1.4-11.7,0-17.1
		C476.1,257.5,480.8,251.8,484.2,245.7z"/>
	<path class="st24" d="M378.6,449.3c-7.8-17.8-2.7-36.4-3.8-54.7c0.3-4.1-0.3-8.5,3.2-11.7C378.2,405,378.4,427.2,378.6,449.3z"/>
	<path class="st25" d="M523.6,170.1c6.9-15.7,21.6-20.7,36.1-26.2c1-0.1,1.9,0.1,2.7,0.6C549.5,153,536.6,161.5,523.6,170.1z"/>
	<path class="st26" d="M488.5,441.1c-5.3-3.6-10.7-7.2-16-10.8c-1.4-2.1-5.6-6.8,0.6-5.2c7.1,1.8,13,7.8,19.5,12
		C491.3,438.4,489.9,439.8,488.5,441.1z"/>
	<path class="st27" d="M116.9,830.4c3-9.9,11.6-15,18.9-20.8c19.4-15.4,42.2-26.4,58.9-50.6c1.7,15.7,0.3,26.2-2.9,36.6
		c-7.4,24.8-23.9,41.1-47.8,49.8C128,851.3,120.3,846.6,116.9,830.4z"/>
	<path class="st12" d="M116.9,830.4c5.4,14.6,15.2,14.9,28.2,10c22.2-8.3,33.8-27.2,46.8-44.8c0.7,16.7-4.3,32.8-19.5,39.3
		c-37.5,16.1-58.4,45.2-71.7,81.7c-0.8,2.2-1.6,5.1-7,4.8C95.2,889.4,97.4,857.9,116.9,830.4z"/>
</g>
</svg>
