<?xml version="1.0" encoding="utf-8"?>
<!-- Generator: Adobe Illustrator 23.0.1, SVG Export Plug-In . SVG Version: 6.00 Build 0)  -->
<svg version="1.1" id="Layer_4" xmlns="http://www.w3.org/2000/svg" xmlns:xlink="http://www.w3.org/1999/xlink" x="0px" y="0px"
	 viewBox="0 0 1000 1000" style="enable-background:new 0 0 1000 1000;" xml:space="preserve">
<style type="text/css">
	.st0{fill:#6EC4F3;}
	.st1{fill:#ABDDF8;}
	.st2{fill:#9AD5F8;}
	.st3{fill:#FEFEFC;}
	.st4{fill:#6DC3F3;}
	.st5{fill:#FDFEFC;}
	.st6{fill:#FBFDFC;}
	.st7{fill:#6DC4F3;}
</style>
<g>
	<path class="st0" d="M291,219.2c14-3.2,26.8,3.2,40.4,3.9c55.7,3.1,108.8-9.1,161.7-24.3c45.2-13,89.2-10.9,130.8,13.5
		c32.5,19.1,70.2,20,105.4,29.3c67.1,17.7,104,78.4,92.6,147.7c-9,55.2-12.1,111.1-7.1,167.9c3.5,39.8,17.7,78.4,13.2,118.9
		c-2.3,20.6-5.5,40.1-22.2,55.8c-13.9,13.1-30,16.1-47.4,18.2c-43.3,5.3-87.5,5.2-129.7,17.8c-40.7,12.1-81,25.6-121.2,39.1
		c-25.7,8.6-52.3,13.7-79,17c-35.8,4.4-67.8-9.8-91.6-33.6c-34.5-34.5-78.2-54.4-116.7-82.3c-36.1-26.1-55.7-59.1-56.4-104.2
		c-0.7-42.9,4.7-85.1,8-127.6c3.4-44.1-10.1-87.3-8-131.5c0.7-15.6,3.2-30.8,5.8-46c7.8-46.3,49-69.7,85.3-75.4
		C266.7,221.3,278.5,215.9,291,219.2z"/>
	<path class="st1" d="M187.5,632.8c-11.3-42.2-4.4-84.9-2-127.2c1.6-27.3,2.1-54.2,0-81.4c-3.1-39.2-7.5-78.7-1.1-117.9
		c5.6-34.4,47.7-67.3,85.4-67.9c31.9-0.5,63.8-1.3,95.6,0.3c43.7,2.2,84.9-8.6,125.7-21.7c43.5-13.9,85.1-11.7,125.4,11
		c25.4,14.3,55.2,13.2,82.3,21.9c21.5,6.9,44.2,10.6,64.1,22.3c8.4,5,17.2,9.6,18.1,21c-27.3-12.9-55.4-23.7-87.5-33.4
		c14.2,4.9,25.3,8.4,35.8,13.7c10,5,16.2,12.8,18.4,23.7c1.4,6.9,1.2,15.3,10.5,16.5c10.3,1.4,15-5.9,18.5-14c1-2.4,2.3-4.6,4.3-6.4
		c27.3,36.1,31.2,76,22.7,119.4c-10.8,55.1-8,110.7-4,166.5c1.8,25.9,10.7,50.8,9.1,76.9c3,22.8-0.3,28-17.1,27.1
		c-2.4-3.2-3.6-7-3.8-10.9c-3.8-82.1-16.2-164.2-1.7-246.5c1.4-7.9,2.5-16.3-3.8-28.3c-8.5,29.9-11.2,56.4-9.1,83.2
		c4.3,55.1,2.7,110.3,1.2,165.4c-0.6,23.4-9.7,44.6-34.4,54.2c-24,3.2-41.3-9.5-57.5-24.7c-22.7-23.8-46.5-46.6-69.5-70.1
		c-6.6-6.7-13.8-11.6-23.6-11.4c-16.6-6.8-32.5-4-49,1.4c-35.7,11.6-72.7,17.2-109.8,21.6c-6.5,0.8-12.9,1-18.1-4.2
		c-5.8-10.4-3.9-21.4-2.6-32.3c4.6-36.2,2.2-72.5,1.8-108.8c-0.1-6.2-1-12.7-6.1-20.1c-11.3,41.6-8.9,81.8-9.1,121.7
		c-0.2,2.6-0.3,5.2-0.3,7.8c-0.5,45.6,4,40.8-41.6,51.5c-31.6,7.4-63.5,13.2-95.5,18.5c-8.4,1.4-16.8,1.8-25.1,0.3
		c-18.2-2.2-20.6-18.2-26.8-30.8c-1.1-2.3,0.8-0.2-1.3-0.8c-1.9-0.6-1.3,2.7-1.8,4.3C202.4,634.6,199.6,642.8,187.5,632.8z"/>
	<path class="st2" d="M230.5,648.7c48.4-4.7,95.7-15.7,143.2-26c13.9-3,18.7-7.7,17.2-21.3c-1-9-0.2-18.2-0.1-27.3
		c10.5,1.4,8.8,10.2,8.9,16.5c0.7,39.7,1.3,79.4-0.2,119c-0.9,24.1-13.8,30.2-35.6,18.9c-10.5-5.5-18.1-16.1-32.3-19.8
		c2.7,11.2,10.5,13.6,17.1,16.7c21.5,9.9,39,23.3,46.3,47.2c1.5,4.8,3.9,11.7,9.5,11c7.1-0.8,7.2-8.6,7.4-14.2
		c0.9-20.1,1.8-40.3-1.1-60.4c-3.9-27.2-1.7-54.6-1.8-81.8c0-5.2,0.7-10.5,5.3-14.1c42.9-3.7,85.4-9.9,126.4-23.5
		c18.1-6,35.5-8.2,53.2,0.3c16.1,20.9,32.3,41.7,52.1,59.3c11.1,9.9,21.9,20.1,37.4,22.6c15.1,12.5,31.1,23.2,50.8,26.9
		c-7.1,15.1-22.3,17-35.7,20.4c-39,9.8-79.1,14.3-118.8,20.9c-16.7,2.8-34.5,2.8-49.4,15.7c10.8,6.9,19.5,2.6,27.8-0.3
		c48.3-16.6,98.1-24.2,148.9-26.7c14.9-0.7,29.5-4.3,44.2-7.1c21.9-4.2,28.7-24.6,42-38c15.2-3.6,15-15.7,15.4-27.5
		c13.5,37.9-7.5,66.2-36.1,75.5c-23.3,7.5-47.4,9.5-70.7,9.6c-49.8,0.1-95.8,14.1-141.1,31.5c-48,18.4-97.5,30.6-148.6,34
		c-17.3,1.2-35.8-3.2-48.5-16.3c-39.9-40.8-90.4-66.7-136.3-99c-20.1-14.1-39.7-30.1-39.8-58.6c12.5,4.6,12.2-3.6,11.8-11.8
		c5.4-1.1,7,2.9,7.4,6.6c4.2,32.8,30.4,43.1,58.3,58.5c-5.2-12.9-13.5-15.2-20.1-19.5C238.1,662.3,229.2,659.5,230.5,648.7z"/>
	<path class="st3" d="M425.7,246.4c-8.7,9.9-23.1,6.9-34.8,11.1c-5.4,1.9-11.6,1.9-16.9,4.1c-7,3-18.8,1.1-18.3,13.4
		c0.4,10.1,9.4,14,17.3,16.4c38.8,11.7,77.9,18.2,118.6,8.1c25.1-6.2,50.8-9.9,76.3-13.9c7.1-1.1,17.6-3.6,19.9,6.7
		c1.9,8.4-7.4,11-13.6,14.2c-14.4,7.5-29.1,14.5-43.5,22.1c-2.5,1.3-5.6,4.9-5.4,7.1c0.4,5.3,5.7,4.4,9.2,4.1
		c14.4-0.9,27.8-5.8,41.3-10.5c43.6-15.2,89.1-15.4,134.4-16.5c3.6-0.1,8.9-1.5,10,3.4c1.4,6.1-4.2,7.4-8.5,8.2
		C678.3,331,644.4,336.5,611,344c-44.9,10.1-90,18.2-135.4,25.2c-38.4,5.9-74.7,8.6-104.8-26.4c-21.3-24.8-55-33.6-83.7-48.8
		c-9.3-4.9-20.7-8.9-20-21.3c0.7-13,13-16.9,23.1-21c6.5-2.6,13.7-5,20.7-5.1C349.2,246.2,387.4,246.4,425.7,246.4z"/>
	<path class="st4" d="M319.8,363.8c-29.1-30-68.6-44.6-102.3-68.4c25-2,46.6,7.5,66.8,19.3c31.9,18.5,63.4,37.9,94.3,57.9
		c27.5,17.7,55.6,9.2,84.3,5.4c52.5-6.9,105-13.1,157.7-18.5c43.9-4.5,86.7-13.6,128.8-26.9c4.3-1.4,8.6-3,13-3.9
		c4.5-0.9,9.9-1.4,11.9,3.7c2.2,5.5-3.3,8-6.9,10.1c-22.7,13.4-48.1,18.9-73.3,24.4c-74.6,16.3-150.9,20.1-226.1,31.9
		c-12.9,2-25.5,5.6-35.3,14.7c-14.8,13.7-26.7,9.9-40.3-2.8c-19.9-18.5-43.1-32.7-68.3-43.3C320.9,368.2,319.7,366.8,319.8,363.8z"
		/>
	<path class="st5" d="M793.2,683.7c-6.5,30.6-27.7,42.9-56.7,47c-33.3,4.6-67,5.2-100.2,10.8c-27.6,4.6-54.1,12.3-80.7,20.5
		c-11.6,3.6-29.5,10.5-33-2.1c-4.3-15.5,15.7-17.8,27.3-20c42.5-8,85.4-14.1,128-21.2c19.9-3.3,39.2-8.5,56.3-19.9
		c26.8-11.9,35.6-34.5,35.2-61.6c-0.7-54.5,2.4-109-3.1-163.5c-2.4-23.6,2.5-47.7,7-71.2c1.4-7.4,4.2-15.3,12.9-14.1
		c8.4,1.1,7.2,9.9,6.7,16.1c-2.3,30.3-5.1,60.5-7.5,90.8C780.6,558.4,795,620.7,793.2,683.7z"/>
	<path class="st4" d="M414.3,613.2c-3.2,48.8,3.9,97.2,3.7,145.9c-0.1,12.9,2.1,32-10,34.7c-14.8,3.4-17.2-16.1-21.3-27.6
		c-7.1-20.1-24.4-27.5-41.2-35.9c-3.4-1.7-7.3-2.7-10.5-4.8c-7.7-5.1-17.1-12.2-11.9-21.4c6.5-11.6,14.7-0.7,21,3.2
		c10.4,6.5,18.3,16.3,30.3,20.9c10.4,4,18.7,1.1,18.8-9c0.7-48.4,5.4-96.9-2.6-145.2c-0.4-40.8-1-81.6,7.5-121.8
		c1.2-5.6,0.1-13.2,8.1-13.1c7.8,0.1,7.1,7.5,8,13.3c6.5,43.2,5.3,86.4,0.7,129.6C413.9,592.4,414.5,602.8,414.3,613.2z"/>
	<path class="st5" d="M319.8,363.8c1.4,1.2,2.9,2.4,4.3,3.6c4.1,6.6,5.7,12.8-1.4,19c-6.8,5.9-12.4,1.8-17.6-1.5
		c-22.5-14.2-44.9-28.5-70.2-37.6c-17.6-6.3-27.3-1.3-27.4,17c-0.3,49.9-3.6,100,2.6,149.8c0.9,7.6-2,14-2.8,21
		c-0.8,7.1,2.2,18.5-9.3,17.5c-9-0.8-7-11.3-6.5-18c4.8-62.2-2.1-124.3-0.3-186.4c0.4-13.3-4.3-30.4,8.6-37.9
		c13.9-8.1,24.8,6.8,35.9,13.7C262.3,340.5,290.5,353.3,319.8,363.8z"/>
	<path class="st5" d="M594.6,504.3c-4.4,20.9-3.1,41.3-10,60.4c-2.1,5.9-4.3,13.6-12.6,12.7c-7.4-0.8-8.5-9.4-8.1-13.9
		c4.2-50.9-7.4-102,2.4-152.8c0.6-3.3,0.9-6.8,4.8-7.4c4.8-0.8,6.7,3.1,8.5,6.6c6.5,12.5,5.7,26.4,7.2,39.9
		C589.1,468.3,592.1,486.8,594.6,504.3z"/>
	<path class="st6" d="M781,293.3c1.8,10.9-2.4,19.1-11.8,24.5c-11.9,6.8-26.7,0.6-25.7-12.2c1.4-17.3-8.2-24.7-21.2-30.6
		c-11.7-5.2-23.6-9.9-34.7-16.4c33.4,5.3,67,10,93.4,34.6C780.9,293.2,781,293.3,781,293.3z"/>
	<path class="st4" d="M683.4,671.9c-5.2,2.6-10.5,6-16.1,1.1c-28.1-24.4-59.3-46.2-73.4-83c5.4-0.4,10.3,0.5,14.2,4.6
		C632.8,620.7,660.7,643.8,683.4,671.9z"/>
	<path class="st7" d="M230.5,648.7c3.9,8.2,11.9,11.3,19.3,15.3c5.6,3.1,11.5,6.1,16,10.5c3.7,3.7,9.5,9.2,4.8,14.8
		c-4.1,4.9-9.6-0.5-13.9-2.5c-12.3-5.6-23.4-13.2-34.5-21c-15.9-11.1-17.7-28.6-22.7-44.8c0.9-4.6-2.2-10.2,4.2-14.2
		C216.8,618,213.2,640.3,230.5,648.7z"/>
</g>
</svg>
