<?xml version="1.0" encoding="utf-8"?>
<!-- Generator: Adobe Illustrator 23.0.1, SVG Export Plug-In . SVG Version: 6.00 Build 0)  -->
<svg version="1.1" id="Layer_4" xmlns="http://www.w3.org/2000/svg" xmlns:xlink="http://www.w3.org/1999/xlink" x="0px" y="0px"
	 viewBox="0 0 1000 1000" style="enable-background:new 0 0 1000 1000;" xml:space="preserve">
<style type="text/css">
	.st0{fill:#A84625;}
	.st1{fill:#90AFC3;}
	.st2{fill:#FEFC00;}
	.st3{fill:#FEB096;}
	.st4{fill:#2B5260;}
	.st5{fill:#E00000;}
	.st6{fill:#8B0000;}
	.st7{fill:#B0AF00;}
	.st8{fill:#7A311A;}
	.st9{fill:#B5FBF8;}
	.st10{fill:#FEFEFE;}
	.st11{fill:#FEA1A1;}
	.st12{fill:#1D3640;}
	.st13{fill:#908F00;}
	.st14{fill:#FC6533;}
	.st15{fill:#FE7F40;}
	.st16{fill:#A5A5A5;}
</style>
<g>
	<path d="M847.2,193.8c0.1,11.9-4.9,21.6-12.2,30.8c-6.5,8.3-15.4,13.5-22.5,20.8c-23.7,24.8-47.8,49.2-65.5,79.2
		c-4.2,7.2-5.7,12-2.3,19.6c4.2,9.5,3.6,19.5-1.9,28.7c-2.6,4.3-1.3,8.6-1.8,13c-1.1,10.8-3.5,21.6-9.9,31.2
		c-5.3,7.9-12.9,12.8-20.1,18.1c-13.7,10.1-21,24.1-26.7,39.5c-13.2,35.7-22.7,72.6-35.7,108.3c-9.7,26.4-16.5,53.9-29.9,79
		c-12.1,22.7-26.6,43.7-42.3,63.9c-24.1,31.1-52.3,58.4-80.4,85.6c-5.4,5.3-10.7,11-17.4,15.2c-3.7,2.3-5.8,5.8-5.9,11.2
		c-0.2,15.8-3.3,31.5-5.2,47.2c-2,15.9-5.3,31.3-10.1,46.5c-2.2,6.9-6.2,12.9-10,18.8c-2.8,4.4-7,6.5-13.2,4.2
		c-20.6-7.5-40.9-15.7-58.3-29c-24.8-19-54.5-28.7-81.2-44.1c-20.8-12-39.8-26-55.9-44.3c-13-14.7-25.1-30.1-37.5-45.3
		c-5.7-7-14.6-8.8-21.3-14.1c-12.5-10-23.3-21.8-29.6-36.4c-9-21-25.6-34.6-42.2-48.5c-10-8.4-18.6-18.2-26.4-28.5
		c-7.7-10.2,0.9-25.6,15.2-28.4c21.4-4.2,42.8-8.5,63.4-15.8c4.7-1.7,9.4-3.5,14.2-5.2c9.6-3.5,15.7-9.6,19.7-19.5
		c11.8-29.5,31.1-54.7,49-80.6c5-7.2,10.3-14.2,15.5-21.3c9-12.2,21.9-20.2,32.9-30.2c12.4-11.3,25.6-21.7,39.1-31.7
		c19-14.2,39.2-26.7,59.2-39.4c23.6-15,48.8-27.7,68.5-48.2c5.6-5.8,9.4-12.3,12.6-19.7c6.3-14.5,15.5-27.2,25.2-39.5
		c13.1-16.8,31.3-27.2,49.1-37.9c4.3-2.6,8.4-5.7,12.9-8c2.3-1.2,2.9-3.2,3.1-4.9c2.7-18.8,13.6-27.9,32.3-30
		c6.3-0.7,12-0.8,17.7,1.1c3.6,1.2,5.8,0.5,7.9-2.1c15-18.3,33.3-33.2,50.6-49.2c20.2-18.7,43.4-32.9,67.4-45.8
		c9.4-5,19.6-8,30.1-9.2c13.7-1.6,25.8,4.3,35.7,12.6c22.7,18.8,38.1,42.3,42.8,72.1C846.4,186.9,847.1,190.3,847.2,193.8z"/>
	<path class="st0" d="M668.3,467.1c-1.8,8-5.1,15.4-8.3,22.9c-14.8,41.9-30.9,83.2-52.2,122.3c-8,14.6-16.4,28.9-26.2,42.4
		c-19,26.4-39,52.1-60.4,76.7c-8.9,10.2-19.7,18.5-29.6,27.7c-0.7,0.3-1.4,0.4-2.1,0.4c-9.8-2.3-18.6-7.1-27.9-10.7
		c-14.8-5.7-29.6-11.7-43.6-19.3c-2.5-1.3-5.3-2.3-6.9-4.8c1.2-7.5,6.9-10.9,12.7-14.3c2.8-0.1,5.2,1.2,7.2,2.7
		c3.5,2.7,6.2,2.8,8.6-1.4c1.8-3,5.8-4.9,6.3-8.4c0.7-4.1-5.2-3.4-6.5-6.5c-0.2-0.4-0.4-0.9-0.5-1.3c1.6-6.7,5.9-11.7,10.8-16.2
		c1.4-0.6,2.9-0.7,4.1-0.1c10.2,4.9,17-0.7,23.4-7.3c2-2,4-3.9,6.5-5.5c0.8,0-0.7-1.4-0.2-0.6c0.2,0.3,0,0.5-0.6,0.4
		c-7.1-1.4-14.4-1.9-20.6-6.4c-0.3-4.1,2.6-5.6,5.6-7c6.1-1,11.6,2.1,17.5,2.7c2.1,0.2,4.2,0.9,6.3,0.8c1.9-0.1,3.9-0.4,4.7-2.5
		c0.6-1.9-0.8-3.1-2-4.3c-3.8-3.9-9.2-6-12.4-10.6c-0.7-2.8,1.1-4.5,2.9-5.9c5.2-4,9.7-8.9,15.5-12.2c0.7-0.2,1.3-0.3,2-0.1
		c5,2,8.3,6.1,12.3,9.3c2.9,2.3,5.1,2.9,7.6-0.4c1-1.3,2.3-2.3,3.4-3.6c4.5-5.2,4.4-5.8-1-9.8c-3-2.2-6.8-3.5-7.5-7.9
		c3.4-8.3,12-11.5,17.5-17.8c1.5-1.7,3.7-2.9,5.4-4.5c1.1-0.9,2.2-1.5,3.6-1.9c9-1.1,16.3-5.9,23.5-11c4-2.8,5.3-6.3,2.9-10.8
		c1-4,3.9-5.7,7.6-6.4c2,0,3.7,1.1,4.9,2.5c3.5,4.2,5.7,3,9.5-0.4c7.8-7,6.1-14.5,3.2-22.6c-0.1-1,0-2.1,0.3-3.1
		c5.8-8.1,9.3-17.5,14.8-25.7c3.8-0.9,5.4,2.3,7.6,4.3c3,2.7,5.8,5.6,8.9,8.1c-0.6,0.7,0.5-0.4,0.4,0.5c0,0.8,0.6,0.7,0.4,0.2
		c-1.3-2.9-1.7-5.9-0.7-8.9c1.9-4.4,4-8.8,4.7-13.4c1-6.9-7.9-3.9-9.5-8.6c-2.8-12.7-5.8-25.3-3.7-38.5c1.7-2.5,4.2-1.6,6.5-1.4
		c7.4,0.6,14.4,3,21,6.2C653.9,459.2,660.9,463.6,668.3,467.1z"/>
	<path class="st1" d="M260,832.8c-12.2-10.1-23.1-22-31.7-34.8c-10.1-15.1-24.1-24.4-37.5-35.3c-11.2-9.1-21.7-19.6-26.6-34.1
		c-7-14.8-10.9-30.4-13-46.6c-1.2-9.6,3.1-17.7,11.9-21.5c15.4-6.4,30.8-5.8,45.3,2.6c5.1,3,11.5,6.8,8.8,15.1
		c-10.5,6.2-21,12.5-31.5,18.7c2.1,2.9,4.5,0.5,6.4-0.1c6.1-1.9,12.4-3.4,18.5-5.1c17.2-4.8,30.5,2.1,42.3,13.9
		c8.6,6.6,13.9,16.4,22.9,22.7c4.6,3.2,3.4,8.5-2.2,12.9c-8.4,6.6-16.3,13.9-25.8,19c-0.8,0.4-1.6,0.9-1.8,2.2
		c9.1-4.4,19-6.9,27-13.3c9.9-7.9,18.8-8.6,28.4-1c9.1,7.2,19,13.3,28.9,19.2c8.2,4.8,9.8,11.6,5.7,20.3
		c-6.6,13.9-14.9,26.7-23.7,39.2c-0.7,1.1-1.1,2-1.1,3.2c-2.9,9.4-14.6,15.8-26.1,14.3C275.7,843,267.1,839.5,260,832.8z"/>
	<path class="st2" d="M352.7,771.6c-10.1-3.9-17.8-11.4-26.7-17.2c-17.9-11.7-35.6-23.6-51-38.6c-13-12.6-21.6-28.3-30.9-43.5
		c-3.7-6.1-7.7-12-11.6-18c-1.1-1.9-0.4-3.6,0.2-5.5c8.7-25.3,22.2-48.1,36.4-70.5c0.4-0.6,1-1,1.6-1.3c3.6-0.5,4.1,2.7,5.4,4.8
		c5.6,9.4,10.7,19,17.5,27.8c7.4,9.6,14.6,19.3,24.3,26.9c16.2,12.8,27.9,29.7,42,44.5c13,13.6,27.2,25.9,42.9,36.3
		c2.9,1.9,6.6,3.1,7.7,7c-1.7,7.2-8.6,9.8-13.2,14c-11.8,10.8-24.2,21-37.2,30.5C358,770.4,355.9,772.4,352.7,771.6z"/>
	<path class="st3" d="M255.6,528.5c10.5-15.7,21.8-30.3,36.9-42.3c13.2-10.4,25.7-21.8,38.7-32.6c15.9-13.3,33.5-24.1,50.9-35.1
		c28.6-18,57.5-35.7,83.9-56.9c6.5-5.2,12.1-12,15.3-19.9c7.4-18.3,19.8-33.5,31.3-49.1c2.5-3.5,6.7-5.7,10.2-8.5
		c2.1,1.9,1.7,4.4,1,6.6c-4.8,14.8-1.3,29.3,1.6,43.9c0.2,1.1,0.3,2.2,0.1,3.3c-10.1,33.2-29,59.2-60,76.3
		c-31.1,17.1-60.6,36.8-88.8,58.1c-23,17.4-45,36.4-64.5,58c-12.1,13.4-23.8,27.1-34.7,41.5c-1.6,2.2-3.2,5-6.8,3.8
		c-8.8-12.1-13.6-25.8-16.3-40.4C253.8,533,254.8,530.8,255.6,528.5z"/>
	<path class="st4" d="M260,832.8c7.3,2.7,13.7,7.4,21.7,8.9c12.9,2.5,22.2-1.7,29.6-11.7c11.2-8.6,18-21.2,27.2-31.5
		c2.5-2.8,4.9-5.8,7.8-8.3c5.5-4.8,13.1-5.4,19.7-1.4c12.9,7.9,26.3,14.9,40.2,21c8.3,3.6,9.6,10.3,5.5,21
		c-6.1,15.8-12,31.8-18.1,47.6c-0.4,1.1-1,2.1-0.2,3.6c7-14,13.8-27.9,20.7-41.7c2.2-4.4,4.2-9,8.7-11.8c3.1,1.2,4,4.1,4.8,6.7
		c6.4,21,9.8,42.4,6.9,64.4c-0.5,3.5-1.5,6.9-3,10.2c-5,11.2-15.1,16-27.4,13.1c-9.3-2.6-14.5-11.1-22.1-16.1
		c-2.4-1.6-4.7-3.1-7.2-4.4c-24.3-12.2-48.7-24.2-72.9-36.6C285.9,857.6,271.8,846.6,260,832.8z"/>
	<path class="st5" d="M659.9,318.7c-19.1-16.5-35.4-35.2-45.4-58.7c3.8-7.5,9.6-13.4,14.7-19.9c9.9-10.9,19.2-22.3,28.8-33.4
		c13.5-15.5,29.7-27.3,46.4-38.6c10.4-7,21.8-12.6,32.1-19.8c6.6-2.8,12.9-6.5,20.5-5.9c4.2,6.9,4.2,15.2,7.8,22.5
		c4.5,9.1,10.7,17.1,15.7,25.9c-0.6,3.4-3.5,4.9-5.9,6.8c-23,18.2-43.7,38.6-62.4,61.2c-15.6,18.8-31.2,37.7-46.7,56.7
		C664.1,317.2,662.8,319.4,659.9,318.7z"/>
	<path class="st6" d="M659.9,318.7c8.7-8.1,15.2-18,22.7-27.1c11.1-13.5,22.3-26.9,33.7-40.1c5.7-6.6,10.8-13.9,17.2-19.8
		c15-14,29.6-28.6,46.6-40.3c3-0.4,4,2.2,5.6,3.7c4.3,4.4,9.1,8.4,14.5,11.4c10.6,5.8,18.6,2.4,21.7-9.2c0.5-1.8,1.1-3.6,0.9-5.3
		c0.2-1.3-1.5-0.2-0.6-0.4c0.2,0,0.3,0.1,0.2,0.6c-1.5,9.7-7.3,13.6-16.5,11.5c-4.1-0.9-7.5-3-10.5-5.7
		c-18-15.7-30.2-34.5-32.6-58.8c-0.9-9.5,2.2-13.4,12.9-16c7,0.7,13.1,4.8,20.1,5.3c15.9,17.5,31.7,35.2,35.2,59.7
		c1,7.2-1.5,14.3-6.1,20.5c-4.8,6.5-10.5,12.1-17,16.9c-14.1,10.3-24.8,24.1-36.3,36.8c-13.3,14.6-26.6,29.2-36.4,46.8
		c-7,12.5-17.6,22.1-28.9,30.9c-3.5,2.8-6.9,2.7-11.2,1.5c-11.9-3.2-20.3-11.6-29.8-18.5C663.4,321.8,661.7,320.2,659.9,318.7z"/>
	<path class="st2" d="M524.1,338.6c0-1,0-2,0-3c-2.5-14.9,3.5-25.6,16.1-33.3c9.3-5.6,19.1-9.3,29.9-10.5c2.4-0.3,4.7-0.7,6.8,1
		c13.4,22.8,30.7,42.4,48.9,61.3c6.7,12.5,5.2,24.9,0,37.4c-9.3,14.7-12.7,31.1-13.9,48.1c-0.1,1.9-0.1,3.8-1.1,5.6
		c-2.8,3.1-5.8,1.6-8.4,0.1c-25.4-14.6-48.6-31.7-62-58.9c-6-12.1-13.1-23.7-15.5-37.4C524.4,345.6,523.5,342.2,524.1,338.6z"/>
	<path class="st7" d="M624.3,391.5c5.2-12.3,4.3-24.8,1.6-37.4c10.2,7.4,19,16.5,30.2,22.8c12.1,6.8,24.7,11.3,38.5,13.4
		c10.2,1.6,19.4,0.3,29.2-2.6c1.3,4.9-1.4,8.7-3.5,12.7c-5.4,10-14.9,15.9-23.1,23.1c-11.4,10-20.2,21.8-25.5,36
		c-1,2.6-1.9,5.2-3.4,7.6c-3.7,0.4-7.2-0.5-10-2.6c-11.5-8.4-24.4-12.7-38.4-14.3c-4.4-1.4-3.6-5.4-3.3-8.3
		C618.2,424.9,618.4,407.8,624.3,391.5z"/>
	<path class="st7" d="M352.7,771.6c12.4-7.3,23-17.1,33.9-26.3c8-6.8,16.6-13.1,23.6-21.1c0.4-0.5,0.8-0.6,1.3-0.1
		c25,14.1,52.2,23.2,78.5,34.6c0.7,1.9-0.5,3.2-1.7,4.3c-19,16.9-39,32.5-63.7,40.4c-2.9,0.9-5.8,2.3-8.9,0.9
		c-14.4-4.3-26.8-12.9-40-19.7C367.8,780.7,360.3,776,352.7,771.6z"/>
	<path class="st8" d="M491.5,758.4c5.5-7.3,13.2-12.3,19.4-18.7c22.4-23.2,41.6-49,61.1-74.6c25.4-33.3,44-70.3,60.8-108.2
		c9-20.3,16.3-41.4,24.4-62.1c0.7-1.8,1.1-3.6,2.9-4.7c-2.5,14-7.8,27.1-11.9,40.6c-11.3,36.7-23.7,73-38.3,108.6
		c-7.3,18-18,34.2-28.7,50.3c-13.9,21.1-31,39.7-46.8,59.3c-5,6.2-11.5,11.3-17.3,16.9C507.6,766.7,498.9,764.7,491.5,758.4z"/>
	<path class="st9" d="M217.2,678.3c-1.4-10-8.8-14.8-17-17.1c-12.3-3.5-25.1-4.7-37.2,1.6c-7.7,4-11.3,12-9.8,20.7
		c2.4,14.2,6.2,28,10.8,41.7c0.4,1.1,0.2,2.3,0.3,3.5c-5.6-5.3-7.8-12.8-12.6-18.8c-9-11.3-19.6-20.6-30.4-30
		c-6.7-5.9-13.4-11.8-19.9-17.9c-4.1-3.9-3.2-6.7,1.9-9.4c8.6-4.7,18.2-4.5,27.3-6.8c17.1-4.3,34.3-8.3,50.3-16.1
		c7.7-3.7,13.4,1.3,18.9,5.3c9.3,6.7,16.8,15.3,23.6,24.6c3.6,4.9,4.2,8.3-0.4,12.3C220.9,673.8,220.8,677.6,217.2,678.3z"/>
	<path class="st10" d="M255.6,528.5c0.6,17.4,8.4,32.3,16,47.3c0.3,0.3,0.4,0.6,0.3,0.9c-0.1,0.3-0.2,0.5-0.3,0.5
		c-9.8,16.2-19.3,32.4-27.8,49.4c-4.5,9-7.4,18.6-11.3,27.8c-9.3-7.6-15.5-18-23.7-26.6c-8.8-9.1-2.4-18.5,1.6-27.1
		c11.3-25,27.3-47.2,43.4-69.4C254.4,530.3,254,528.8,255.6,528.5z"/>
	<path class="st11" d="M630,241.2c-5.1,6.3-9.1,13.5-15.5,18.8c-5.8-14.1-3.4-26,8.2-36.5c11.8-10.7,22.7-22.4,33.9-33.7
		c22.3-22.5,46.8-42.3,73.6-58.9c10.8-6.7,22.3-13,35.2-15.9c4.9-1.1,8.9,0.3,13.1,1.9c-3.1,3.9-8.5,2.8-12,5.7
		c-6.3,3.6-9.7,8.8-8.6,16.3c0.2,1.4,0.4,2.8-1,3.9c-6.7,2.2-13.7,3.7-20,7.1c-25.6,13.4-51.5,26.4-72.3,47.2
		C651.4,210.5,641,226.1,630,241.2z"/>
	<path class="st4" d="M657,325.9c10,6.6,19.1,14.4,29.8,20c11,5.7,20.7,4.1,29.4-3.2c5.5-4.6,8-2.9,10.4,2.1
		c2.9,5.8,6.4,11.4,3.9,18.7c-3.8,11.2-18.8,19.4-32.9,16.3c-24-5.2-43.8-17.8-60.5-35.5c-0.7-3.2,1.9-4.1,3.8-5.1
		C647.4,336.1,652.7,331.6,657,325.9z"/>
	<path class="st12" d="M404.2,923c21-2.7,25.8-4.9,28.4-26.1c2.9-23.4-0.7-46.4-9.8-68.4c6.1-7.1,12-8.4,20.6-4.6
		c9.5,4.2,14.8,12.5,13.6,21.8c-2.3,17.5-4.4,34.9-7.2,52.3c-2,12.4-7.5,23.8-12.4,35.3c-1,2.3-2,4.4-5.2,2.8
		C423.1,931.4,413,928.5,404.2,923z"/>
	<path class="st13" d="M491.5,758.4c8.4,3.1,17,5.5,25.7,7.4c-1.9,1.7-3.9,3.2-5.8,5c-14.5,14-29.1,27.8-43.4,42
		c-4.2,4.2-9.1,5.1-14.3,4.2c-13.3-2.4-26.3-5.9-38.2-12.6c29.4-7.7,52.8-25.2,74.4-45.7C490.4,758.6,490.9,758.5,491.5,758.4z"/>
	<path class="st1" d="M657,325.9c-0.9,7.5-7.3,9.8-12.5,13.3c-2.5,1.6-6,1.8-7.4,5.1c-18.8-19.6-38.3-38.6-51.2-62.9
		c-0.3-6.7,2-12.6,5.7-18c3.7-5.4,8.2-5.9,13.8-2c5.6,15.9,13.9,30.3,25.2,42.6c5.5,6,12.1,11,18.8,15.7
		C652.2,321.6,654.1,324.4,657,325.9z"/>
	<path class="st10" d="M576.9,292.9c-15.5,0.7-30,5.6-41.9,15c-8,6.4-11,17-10.9,27.7c-4.8-15.6-7-31.3-1.9-47.3
		c0.4-1.3,0.3-2.8,0.5-4.1c12.6-11.8,27.7-19.9,42.8-28.3C566,269.6,571.9,281.1,576.9,292.9z"/>
	<path class="st9" d="M605.5,261.4c-9.4-2.5-13.5,0.3-16.7,11.5c-0.8,2.9-1.1,5.9-2.9,8.4c-5.7-10.8-10-22.2-11.5-34.3
		c-1.9-14.6,13.7-29.9,28.4-28.5c6.2,0.6,7.3,2.6,5,8.7C603.6,238.4,601.2,249.7,605.5,261.4z"/>
	<path class="st9" d="M253,705.7c-6-4.2-12.4-7.6-18.9-10.9c-7.4-3.8-14.8-3.5-22.5-1.3c-8.1,2.3-16.3,4.3-24.5,6.3
		c-0.9,0.2-2.5,1-2.9-0.6c-0.1-0.5,1-1.4,1.6-2.1c4.5,0.6,7.9-2.3,11.6-3.8c9.3-3.9,18.6-7.9,27.2-13c6.8-4,11.4-2.8,15.1,3.2
		C244.2,690.7,249.7,697.6,253,705.7z"/>
	<path class="st5" d="M765.7,121.2c3.7-3.3,8.5-3.1,12.9-4.3c6.8,2.2,12.1,6.8,17.2,11.6c-4.7,2.6-8.9-0.1-13.2-1.6
		c-2.4-0.8-4.3-2.8-7.1-2.6C772,124.2,768.4,124.1,765.7,121.2z"/>
	<path class="st14" d="M271.7,577.1c-0.2-0.4-0.2-0.9,0-1.3c7.5-9.4,14.5-19.2,22.6-28.1c13.3-14.8,25.9-30.2,41.4-42.9
		c11.4-9.3,22.1-19.2,33.2-28.8c11.3-9.7,24.2-17.3,36.3-25.9c22.9-16.3,47.4-30.2,71.3-44.9c14.4-8.9,24.9-21.5,33.4-36
		c5.7-9.8,10.4-20,14.3-30.7c4.1,20.9,12.8,39.9,24.2,57.6c13.8,21.5,34.2,35.8,56.1,48.1c1.7,0.9,3.4,1.7,5.4,1.4
		c2.2,1.6,2.1,4.1,2.2,6.5c0.3,8.8,3.2,17.3,3.3,26.1c-2.2,5-5.3,1.8-7.4,0.3c-9.6-7-19.6-13.6-28.2-21.8
		c-15.8-15.1-31.8-30-44.5-48.2c-5.5-7.9-10.3-16-14.3-24.6c-2.2-4.6-4.4-5.2-7.6-1.2c-0.4,0.6-1,1.1-1.4,1.6
		c-9.8,11.4-9.8,11.4-1.6,24.3c14.7,23.3,30.2,46.3,45,69.5c8.2,12.9,13.8,27.1,20.4,40.8c0.8,1.7,1.9,4-0.3,5.1
		c-1.9,1-3.6-0.8-4.9-2.2c-13.3-13.3-27-26.2-39.7-40.1c-18.6-20.4-36.6-41.3-54.1-62.7c-2.5-3.1-4.8-3.4-7.9-1.2
		c-4.2,3.1-10.8,4.8-12.4,9.2c-2,5.4,5.3,8.1,8.3,12c8.1,10.6,18.3,19.3,27.2,29.2c24.2,26.9,50.7,51.6,76.5,76.8
		c3.4,3.3,7.9,5.4,10.3,9.7c0.2,0.7,0.2,1.3-0.2,1.9c-2.8,1.5-5.9,2.8-7.4,5.9c-0.6,0.5-1.2,0.7-2,0.7c-9.1-5.2-16.6-12.6-24.9-19
		c-3.1-2.4-5.5-3-8.7-0.1c-12.8,11.8-27.3,12.1-42.5,6c-8.8-3.6-17.2-8-24.3-14.7c-5-4.8-5.4-6.6-0.5-11.7c7.8-8,15.5-16.1,23-24.4
		c3.4-3.8,3.5-6.5,0.3-10.4c-6.8-8.3-13.1-16.9-20-25.1c-7.9-9.4-17.1-17.4-29.1-20.9c-8.9-2.6-14.9,0.3-18.1,9.1
		c-3.4,9.4-5,19-2.9,29.3c4.5,21.9,15.6,40.3,29.5,57.1c5.9,7.1,13.9,12.2,21.2,17.9c8.6,6.8,17.9,12.6,27.2,18.3
		c10.8,6.7,22.9,9.1,35.3,10.4c2.3,0.2,4.9-0.3,6.5,2.1c-7.2,7.7-16.4,13-23,21.3c-0.5,0.5-1.2,0.7-1.9,0.7
		c-10.1-5.4-19.3-12.1-28.1-19.3c-23.8-19.6-44.6-42-62-67.5c-10-14.8-19.1-30.1-28.8-45.1c-0.7-1.1-1-2.7-3.1-3.4
		c-9.3,10.5-18.2,21.5-27.2,32.5c-10.8,13.2-10.6,13.3-1.1,27.7c16,24.5,33.5,48,53.5,69.4c7.2,7.7,15.7,13.9,23.6,20.7
		c1.9,1.6,5,2.9,3.6,6.1c-1.2,2.8-4.3,2.9-6.9,2.5c-5.8-0.9-9.2,2.7-13.3,6.8c13.6,6.4,28.2,7.6,41.7,12.6c0.4,0.4,0.5,0.8,0.5,1.2
		c0,0.4-0.1,0.7-0.2,0.7c-2.3,1.4-4.2,3.2-5.6,5.5c-0.2,0.3-0.5,0.6-0.7,0.8c-10.2,0.6-19.6-3.4-29.3-5.5
		c-20-4.2-39.4-11.1-59.1-16.5c-6.6-1.8-10.6-6.2-13.4-12.7c-9.6-22.2-12.7-45.6-14.1-69.5c-0.5-9.4-0.4-19-3.3-29.2
		c-7,5.9-14,10.7-19,17.6c-2.8,3.8-3.5,8-2.7,12.9c2.5,15,4.9,30.1,9.5,44.7c0.3,0.9,0.6,1.8,0.7,2.8c0.4,2.7,2.5,6.3-0.8,7.7
		c-2.9,1.2-4.9-2.2-6.6-4.4c-7-8.8-13.3-18-17.6-28.4c-1.8-4.4-3.5-4.2-6.4-1c-5.2,5.7-5.3,8.5-0.9,15
		c14.6,21.3,31.6,40.6,49.7,58.8c14.9,15,32.6,27,49.8,39.3c8.3,5.9,17.3,10.9,25.3,17.4c0.5,0.6,0.5,1.3,0.2,2
		c-4.8,3.8-9.1,8.1-12.9,12.8c-0.4,0.1-0.8,0.1-1.3,0.1c-17.7-11.4-34.2-24.2-48.7-39.4c-10.4-10.9-19.7-22.8-30-33.9
		c-5.9-6.4-12.5-12.3-19.2-17.8c-13.4-11.2-22.4-25.7-31.5-40.2C277.6,587.8,274.7,582.4,271.7,577.1z"/>
	<path class="st10" d="M578.5,555.9c-9.2-6.8-16.9-15.2-25-23.1c-12.2-11.9-25-23.2-36.8-35.6c-17.3-18.2-34.3-36.6-51.7-54.7
		c-4.5-4.7-9-9.6-13.4-14.8c6.4-4.4,12.7-8.9,19.1-13.1c1.6-1.1,3.4-1.7,5.3,0.6c14.3,17.4,28.5,34.9,43.3,51.8
		c17.5,20,36.7,38.4,56,56.8c-7.6-17-14.4-34.2-24.8-49.7c-16.4-24.6-32.4-49.5-48.6-74.3c-1.9-2.9-2.2-5.2,0.9-7.8
		c5.6-4.7,8.7-11.8,15.1-15.9c2.6,1.5,3.1,4.5,4.2,7c9,19.4,22.2,35.7,36.8,51.1c15.8,16.6,33.2,31.3,51.9,44.6
		c1,0.7,1.9,1.3,3.2,1.2c1.5,1,1.9,2.6,2.1,4.3c-0.3,7-0.4,14.1-3.4,20.7c-4.3,2.9-6.6-1.1-9-3c-8.5-6.7-15-15.6-23.8-21.8
		c7.8,14.3,11.5,30.3,16.9,45.7c0.8,2.3,0.7,4.7,0.6,7c-0.1,0.9-0.3,1.9-0.4,2.8C592.5,544,588,552.2,578.5,555.9z"/>
	<path class="st10" d="M468.5,653.1c-15.4-2.6-30.2-7.3-45.8-12c5.7-5.7,10.1-12,19.3-9.7c1.6,0.4,3.7,0.3,4.3-1.5
		c0.8-2.2-1.7-2.2-2.9-3.1c-18.4-14.1-33.6-31.3-48.2-49.1c-14-17-25.1-35.9-37.9-53.7c-2.2-3.1-2.6-4.9,0.2-8.1
		c11.8-13.6,23.1-27.7,34.6-41.6c1-1.3,2-2.6,3.1-4c10.1,15.9,19.7,32.1,30.4,47.5c11.2,16.1,22.1,32.6,36.5,46.2
		c17.2,16.2,34.9,31.9,54.9,44.8c-2.5,6.8-8.6,9.5-14.3,12.6c-0.4,0-0.8,0-1.2-0.1c-4.8-1.3-7.8-5.3-11.6-8
		c-35.8-25.9-62.9-59.6-86.2-96.7c-0.8-1.2-1.6-2.4-2.4-3.6c-4.2-6.3-4.2-6.3-9-0.2c-9.8,12.4-9.6,12.2-0.8,25.2
		c21.2,31.2,46.3,59,73.3,85.2c4.5,4.3,10,7.2,14.7,11.2c1.3,1.1,2.5,2.3,2.5,4.1C478.9,644.7,475.8,650.8,468.5,653.1z"/>
	<path class="st10" d="M541.5,587.4c-26.5,1.1-47.2-12.7-67.5-27.1c-21.1-14.9-37.5-33.7-47.5-57.6c-6.5-15.5-10-31.4-5-48.2
		c4-13.4,16.6-17.8,28.8-10.9c17.2,9.7,27.9,25.5,39.7,40.3c2.9,3.6,7.7,7.5,7.5,11.2c-0.1,3.3-6.1,6.2-8.7,9.8
		c-5.8,8.2-13.7,14.4-20.5,21.7c-1.6,1.7-4,3.1-1,5.7c12.1,10.8,25.9,18.6,42.1,20.3c10.2,1,19.3-3,26.4-10.7
		c2.5-2.7,4.5-3.3,7.5-0.8c8.8,7.4,17.7,14.6,26.6,21.9c0.5,1.3,0.1,2.4-0.8,3.2c-8.2,6.6-15.2,14.7-24.9,19.3
		C543.3,586.1,542.4,586.8,541.5,587.4z"/>
	<path class="st14" d="M481.6,638.5c-13.4-9.7-25.4-21-36.8-32.9c-19.7-20.5-37.9-42.3-54.2-65.7c-3.3-4.8-9-9.4-9.3-14.4
		c-0.3-4.9,6.5-8.9,9.7-13.6c1.9-2.8,4.3-4.9,6.7-7.4c9.2,13.9,17.9,28,27.6,41.3c7.2,9.9,15.8,18.6,23.5,28.1
		c14.3,17.8,33.2,30.3,50.4,44.7c0.9,0.7,1.5,1.8,2.2,2.7c-5.3,6.7-13.5,10.2-18.7,17C482.5,638.9,482.1,638.9,481.6,638.5z"/>
	<path d="M614.4,484.1c-0.1-1.4-0.3-2.7-0.4-4.1c-1.7-11.4-4.6-22.7-4.3-34.3c0.5-18.6,3.1-36.7,13.1-52.9c0.3-0.5,0.9-0.9,1.4-1.3
		c-1.7,14.3-3.4,28.7-5.1,43c-0.6,5.3-1.7,10.6,0.7,15.7c0.1,13.4,2,26.7,4.6,39.9c3.7,6.8,4.7,14,4,21.6c-1,4.4,2.5,8.5,1.1,13.1
		c-1.9-1.2-2.4-2.9-2.7-4.8c-6.7-8.5-7.9-19.1-11.1-28.9C615,488.8,615.3,486.3,614.4,484.1z"/>
	<path class="st15" d="M450.2,680.3c-3.5,5.1-6.9,10.3-10.4,15.4c-0.6,0.5-1.3,0.7-2.1,0.7c-19.3-9.7-38.4-19.8-56.6-31.6
		c-1.7-1.1-4.7-2.1-3.7-4.5c1.2-2.7,4.2-1.5,6.4-0.9c14.3,3.8,28.5,7.5,42.6,12c7.9,2.5,16.4,3,23.5,7.8
		C450,679.6,450.1,680,450.2,680.3z"/>
	<path class="st14" d="M597.4,532.9c-4.3-12.7-8.9-25.3-12.9-38.1c-2.1-6.9-6.5-12.7-9-20.1c13.9,8.8,22.7,22.4,35.7,31.1
		c0.4,0.2,0.5,0.5,0.5,0.9c0,0.4-0.1,0.5-0.2,0.5C607.9,516.3,603.9,525.3,597.4,532.9z"/>
	<path class="st16" d="M463,659.7c7.7,2.1,15.3,4.2,23,6.3c-9.8,10.2-18.7,22.8-35.9,14.4c0,0-0.4-0.6-0.4-0.6
		c1.5-8.4,7.3-13.9,12.9-19.6L463,659.7z"/>
	<path class="st16" d="M502.8,621.4c3.7-5.4,10.2-7.7,14.3-12.6c0.4-0.1,0.9-0.2,1.3-0.1c2.1,3.6,5.9,5.3,9.3,7.3
		c4.8,2.8,4.7,5.9,1.5,9.9c-8.1,10.3-10.4,10.6-19.6,1.5C507.5,625.2,504.1,624.5,502.8,621.4z"/>
	<path class="st16" d="M481.6,638.5c0.4,0,0.8,0,1.2-0.2c4.6,3.5,9.4,7,13.9,10.7c1.8,1.4,4.1,3.1,2.9,5.9c-1.3,2.8-3.8,4.2-7,3.7
		c-6-1-12-2-17.8-3.4c-2.1-0.5-4.1-0.7-6.2-1c0-0.4-0.1-0.7-0.1-1.1C474.1,649.3,476.8,642.9,481.6,638.5z"/>
	<path class="st16" d="M578.5,555.9c7.5-5.6,12-13.8,18.4-20.3c2.1,3.5,2.4,7.6,3.8,11.2c1.1,2.8,0.2,4.5-1.6,6.2
		c-0.9,0.8-1.7,1.6-2.5,2.5c-2.7,3.2-4.5,8.7-8.4,9c-3.9,0.4-5.8-5.6-9.5-7.6C578.6,556.6,578.6,556.3,578.5,555.9z"/>
	<path class="st16" d="M438.5,695.9c0.4-0.1,0.9-0.2,1.3-0.2c10.3,6.6,9.7,6.1,2.4,16c-4.4,6-7.6,6.9-13,2.3
		c-1.4-1.2-3.2-1.9-4.9-2.8c0-0.4-0.1-0.7-0.1-1.1C427.6,704.1,432.4,699.3,438.5,695.9z"/>
	<path class="st16" d="M544.2,585.5c7.3-6.2,14.6-12.3,21.8-18.5c1.4-1.2,2.6-2.6,3.9-3.9c0.4-0.1,0.9-0.2,1.3-0.1
		c4.2,3.4,4.1,6.4-0.3,9.8C562.9,578.9,555.1,585.4,544.2,585.5z"/>
	<path class="st16" d="M611.6,507.1c-0.1-0.5-0.2-0.9-0.3-1.4c1.7-7.1,2.8-14.3,3.1-21.6c4.2,11.9,8.3,23.9,12.5,35.8
		C620.1,517.7,617.3,510.6,611.6,507.1z"/>
	<path class="st16" d="M628.5,511.6c-2.2-7.1-3.6-14.2-4-21.6c11.4,3.3,11.5,3.3,7.7,14.1C631.2,506.8,631,509.8,628.5,511.6z"/>
	<path class="st10" d="M490.9,352.2c6,12.3,6.7,24.7-1,36c-5.6,8.3-15,11.9-24.7,13.3c-15.4,2.1-21.1-1.6-24.5-8.4
		c-1-2-1.9-3,0.5-4.4c5.2-3.2,10.3-6.6,15.5-9.8c1.3-0.8,2.6-1.1,4.5-0.1c8.7,4.3,17.2-0.2,18.8-9.5
		C481.7,358.8,481.7,358.8,490.9,352.2z"/>
	<path d="M765.7,121.2c3.6,0,6.9,1,9.8,3.2c-12.2,4.6-13.3,6.2-9.6,23.7c4.6,22,17.5,39,35.3,52.1c9.9,7.3,18.6,1.9,20.7-11.9
		c3.2,6.8,2.1,14-2.8,19c-4.7,4.8-10.7,5.3-18.2,1.7c-8.5-4.1-15.1-10.3-20.9-17.5c-12-14.2-20.9-29.8-23.1-48.6
		C754.3,131.5,756.3,126.7,765.7,121.2z"/>
	<path d="M635.1,265.4c26.1-40.6,60.4-71.7,104.1-92C700.4,199.3,666.2,230.6,635.1,265.4z"/>
	<path d="M630,241.2c5-10.4,11.8-19.8,18.7-28.9c12.1-15.6,26.5-29.1,43.5-39.3c13.2-8,27.1-14.9,40.7-22.2c1.2-0.6,2.7-0.5,4-0.8
		c-12,7.5-24.1,14.9-36,22.5c-24.2,15.6-44,35.8-61.6,58.4C636.6,234.5,634.6,239.2,630,241.2z"/>
	<path d="M739.5,205c-30.5,26.9-58.4,56.3-84.5,87.4C677.1,257.3,704.2,227.3,739.5,205z"/>
	<path d="M678.3,309.6c21.7-35.1,51.1-62.8,82.6-88.5C733.4,250.6,705.9,280.1,678.3,309.6z"/>
	<path d="M703.5,316.2c4.3-9.1,64.5-74.1,77.3-83.9C776.7,241.3,715.8,307.5,703.5,316.2z"/>
	<path d="M789.8,186.5c4.5-9.6,13.1-17.4,5.9-26.6c-5.5-7-14.4-6.9-23-4.7c6.9-4.5,14.3-7.2,22.3-3.9c6.9,2.9,9.6,9.6,9,16.3
		C803.3,175.4,799.2,182.1,789.8,186.5z"/>
	<path class="st10" d="M438.5,695.9c-4.3,5.2-9.1,10-14.3,14.3c-16.2-9.3-31.4-19.9-46.1-31.4c-9.2-7.2-19.1-13.7-27.3-21.9
		c-20.3-20.2-38.8-42.2-55.7-65.3c-3.6-4.9-0.5-8.4,1.9-11.8c2-2.9,4.9-5.1,8.1-8.3c6.1,15.5,14.5,29.1,26.5,40.5
		c-2.6-10.1-5.5-20.2-7.8-30.5c-2.1-9.3-4.2-18.7-4.8-28.2c-0.4-5.5,2.9-11.2,7.5-14.5c6.5-4.6,11.1-11.6,19-15.3
		c1.1,10.8,2.6,21.6,3,32.4c0.7,15.7,2.1,31.4,6,46.6c2.4,9.2,6.5,17.9,9.7,26.8c1.8,5,6.3,6.4,10.4,7.6
		c19.8,5.8,39.8,11.2,59.7,16.5c9.4,2.5,19,4.5,28.5,6.7c-4.3,6.5-8.6,13-12.9,19.6c-23.9-6.7-47.8-13.4-71.6-20
		c11,8.8,23.3,15.3,35.4,22C422,686.3,430.2,691.2,438.5,695.9z"/>
	<path class="st14" d="M434.4,478.5c-0.3-5.9,1-9.6,2.5-13.3c2.5-5.8,7.3-7,14-3.4c11.2,6.1,17.8,16.7,24.9,26.8
		c1.1,1.6,0.8,2.7-0.6,4.1c-5.9,6.6-11.7,13.4-17.5,20.2c-2.2,2.6-3.7,3.5-6-0.4c-6-10.2-14.1-19.1-16.7-31.1
		C434.7,479.9,434.4,478.3,434.4,478.5z"/>
</g>
</svg>
