<?xml version="1.0" encoding="utf-8"?>
<!-- Generator: Adobe Illustrator 23.0.1, SVG Export Plug-In . SVG Version: 6.00 Build 0)  -->
<svg version="1.1" id="Layer_4" xmlns="http://www.w3.org/2000/svg" xmlns:xlink="http://www.w3.org/1999/xlink" x="0px" y="0px"
	 viewBox="0 0 1000 1000" style="enable-background:new 0 0 1000 1000;" xml:space="preserve">
<style type="text/css">
	.st0{fill:#90AFC3;}
	.st1{fill:#162C34;}
	.st2{fill:#2B5260;}
	.st3{fill:#596E76;}
	.st4{fill:#3B5B67;}
	.st5{fill:#586D75;}
	.st6{fill:#91B0C3;}
	.st7{fill:#2B525F;}
	.st8{fill:#B5FAF8;}
	.st9{fill:#2B515F;}
	.st10{fill:#FCFC00;}
	.st11{fill:#B5FBF8;}
	.st12{fill:#FDFD00;}
	.st13{fill:#B4F9F6;}
	.st14{fill:#90AFC2;}
	.st15{fill:#7F7F00;}
	.st16{fill:#B5FAF7;}
	.st17{fill:#7E7E00;}
	.st18{fill:#2A515F;}
	.st19{fill:#162B33;}
	.st20{fill:#8FAEC1;}
	.st21{fill:#B4F7F5;}
	.st22{fill:#FAFA01;}
	.st23{fill:#90AEC2;}
	.st24{fill:#162C33;}
	.st25{fill:#8FAEC2;}
	.st26{fill:#B2F3F2;}
	.st27{fill:#8EADC0;}
	.st28{fill:#F5F500;}
	.st29{fill:#8EACC0;}
	.st30{fill:#B3F5F3;}
	.st31{fill:#2C5260;}
	.st32{fill:#B3F4F3;}
	.st33{fill:#797A03;}
	.st34{fill:#777804;}
	.st35{fill:#777803;}
	.st36{fill:#B0ECED;}
	.st37{fill:#B2F2F1;}
	.st38{fill:#AFF0EE;}
	.st39{fill:#A5DDD8;}
	.st40{fill:#2B505D;}
	.st41{fill:#142930;}
	.st42{fill:#14282F;}
	.st43{fill:#797902;}
	.st44{fill:#797A04;}
	.st45{fill:#686A06;}
	.st46{fill:#DFE411;}
	.st47{fill:#14272E;}
	.st48{fill:#DBDF0F;}
	.st49{fill:#030401;}
</style>
<g>
	<path d="M890.6,355.1c3.7,31.1-7.7,61.8-27.2,90.5c-12.1,17.9-31.9,24.2-48.7,35c-31.7,20.5-66.8,31.7-104.3,34.8
		c-6.2,0.5-9.1,4.1-12.6,7.7c-55,57.5-110.5,114.5-164.6,172.8c-12,12.9-8.1,32.8-9.2,49.3c-1.9,29.1-6.1,56.2-25.9,79.5
		c-7,8.3-9.4,20.3-15.2,29.9c-19.1,31.3-50.4,40.5-83.9,48.1c-63.4,14.3-112.8-15.2-161.8-47.5c-7-4.6-11.6-7.2-21.7-4.9
		c-15.1,3.3-31.3-4.2-43.9-13.3c-23.3-16.9-37.4-41.2-48.8-67.3c-2.2-4.9-0.6-7,2-9.9c8-8.9,4.6-16.9-1.6-25.2
		c-26.1-35.3-47.4-74.5-51.5-117.7c-3-32.5,6.9-66.1,25.7-95.1c18.4-28.4,48.3-41.4,76.5-56.5c4.1-2.2,7.7-4.3,10.7-7.4
		c22.1-23,50.4-26.9,77.3-16.6c20.8,8,33.4,2.1,47.3-10.3c35.9-32.1,71.9-64.1,107.8-96.1c20.6-18.3,43.1-34.3,62.4-54.1
		c6.4-6.5,9.8-12.8,8.8-22c-3.6-31.6,11.7-57.5,26.3-83.4c3.1-5.5,6.3-10.7,9-16.5c18.2-38.7,51.9-50.6,91.4-57.8
		c60.1-11,111.9,8.4,159,40.4c63.3,43.1,102.9,104,116.3,180.3C892,331.1,890.6,341.2,890.6,355.1z"/>
	<path class="st0" d="M363.5,406.3c37.4-32.6,74.9-65.3,112.3-97.9c12.6-7.2,27-7.6,39.6-3.9c22.5,6.8,40.4,3.5,53.5-14.9
		c-16.8-9.7-38.9-2.1-57.3-12.4c7.9-9.2,16.8-17.3,27.7-22.8c20.4-4.3,40.7-7.5,60,4.3c1.5,2.7,2.1,5.5,2,8.6
		c-10.1,15.3-7.2,24.9,10.5,32.8c17.6,7.9,32.1,21.3,45.1,35.8c5.2,5.7,11.1,11,10.1,19.9c-7.4,14.9-18,26.6-33.7,33.1
		c-14.3-5.7-23.5-17.9-34.3-27.9c-11.6-10.7-24.5-19.3-37.5-27.9c-9.3-6.1-18.5-6.8-26.7,1.2c-29.7,28.9-62.2,54.9-91.1,85.9
		c23.9,17.3,47.2,33.9,67,54.7c5.8,6.1,12.7,11.6,11.8,21.4c-8.6,16.6-20.6,29.6-37.9,37.3c-15.1-2.8-20.1-17.5-30-26.3
		c-19.8-17.6-42.4-31.7-61.3-50.2c0.3-12.3,11.2-16.2,18.5-22.9c11.3-10.3,10.4-13.3-3.7-19.7C393.8,407.9,377.9,411.7,363.5,406.3z
		"/>
	<path class="st1" d="M679.4,519.2c-33.8,33.9-64.8,70.5-100.8,102.3c-7-5.6-5.2-14.2-7.2-21.5c-8.8-32.1-19.2-63.2-42-88.6
		c-3.4-3.8-7-7.8-7.6-13.3c-0.4-7.9,4.3-13.3,9.4-18.3c28.4-28.2,55.7-57.7,87-83c5-4,9.4-9.4,17-6.3c36.4,31.7,49,72.4,45,119.3
		C680,512.9,678.5,515.9,679.4,519.2z"/>
	<path class="st1" d="M336.6,660.1c44.5,46.6,80.3,98.4,95.6,162.2c5.9,24.3-6.3,49.5-31.3,60.9c-23.7,10.7-48.5,13-72.7-0.4
		c5.5-6,13.3-4.2,20.1-5.6c20.7-4.2,30.9-18.4,27.7-39.5c-6.3-41.8-26.1-76.9-53.9-108.1c-10.3-11.5-21.8-22.2-27.3-37.3
		C304.5,676,316.9,663.4,336.6,660.1z"/>
	<path class="st2" d="M297,691.6c22.6,30.7,51.7,56.4,67.7,92.1c8.3,18.6,13.8,37.7,17.3,57.5c3.7,20.4-12.4,39.2-34.3,41.4
		c-6.4,0.7-13,0.1-19.5,0.1c-32.5-7.8-59.6-26.5-87.3-43.9c-8.9-5.6-7.5-10.9,1.3-15.3c12.6,1.5,22.6,9.9,34.6,12.8
		c10.1,2.4,21.2,6,29.6-2.3c8.3-8.2,5.5-19.5,3.2-29.6c-6.6-28.2-26.4-48.8-42.8-71.2c-3.1-4.2-7.3-7.5-9.8-12.1
		c-0.7-1.8-1-3.6-0.8-5.5c9.1-12.5,22.4-19.1,35.8-25.7C294,689.5,295.6,690.1,297,691.6z"/>
	<path class="st3" d="M297,691.6c-1,0.1-2,0.1-3,0.2c-15.1-6-23.3-20.1-34.6-30.3C226.6,632,192.5,606,148.1,597
		c-2.6-0.5-4.5-2.4-6-4.6c-3-18.9-1.3-36.4,14.6-49.8c30.8-1.1,56.2,14,80.6,29.3c37.8,23.7,70.7,53.8,99.4,88.2
		C323.4,670.6,310.2,681.1,297,691.6z"/>
	<path class="st0" d="M274,528.8c13.9,18.2,34.9,26.9,52.7,39.8c21.4,6.4,32.5,23.8,43.7,41c2.9,3.8,5.8,7.6,8.6,11.5
		c-0.6,17.9-16.4,31.8-34.9,30.9c-45.5-47-90.9-94.4-156.1-114.4c-9.2-2.8-18.7-4.8-28.1-7.2c-4.2-14.1,3.6-19.6,15.7-22.2
		c21.9,5.7,42.5,15.9,65.2,18.6C251.7,530.2,263.6,517.3,274,528.8z"/>
	<path class="st2" d="M344.2,652c14.7-6.8,28.6-14.5,34.9-30.9c9.3,10.8,18.6,21.6,27.9,32.5c13,9.3,22.3,21.2,25.7,37.2
		c-4.3,10.2,0.1,19.3,5.1,27.3c10.4,16.5,12.2,38.4,31.1,49.5c9.3,5.7,7.9,14.8,7.6,23.5c0,0.7-0.2,1.4-0.5,2
		c-6.4,15.9-13.7,30.7-34.4,30.6C426.3,756.8,389.2,702.2,344.2,652z"/>
	<path class="st4" d="M523.3,496c32.3,35.7,51.5,77.2,55.3,125.5c-10.1,17.3-25.3,29.8-39.6,43.1c-2-1.8-3.9-4-3.8-6.6
		c2.9-48.9-25.7-84.2-51.5-120.8c-0.8-2-0.6-3.9,0.7-5.7c11.9-11.8,23.8-23.5,35.7-35.3C521.1,494.3,522.1,494.2,523.3,496z"/>
	<path class="st0" d="M558.8,202.9c11.7,8.2,25.3,11.6,38.6,15.9c17.1,5.6,31.4,3.6,40.9-13.5c3.1-2,5.9-6.1,9.9-1.2
		c8.2,14.1,23.9,18.4,36.1,27.2c16.3,1.3,22.3,16.5,33.4,24.7c8.1,9.8,20.4,16.3,23.7,30c-3.8,16.2-16.1,22.7-30.5,26.8
		c-32.1-34.5-68.1-62.6-115.9-72.2c-12.2-2.5-24.2-2.8-36.4-2.9C561.8,226.1,550.5,214.4,558.8,202.9z"/>
	<path class="st5" d="M484.4,531.5c-0.1,1-0.2,2-0.3,3c-0.8,8.2-7,12.3-12.8,16.1c-11.7,7.6-10.7,15.6-3.1,25.8
		c15.1,20.2,30.4,40.4,38.6,64.8c3.5,10.6,3.6,10.5-2.8,18.4c-20.9-29.8-41.8-59.6-62.7-89.4c0.1-16.4-11.7-25.4-22.1-34.9
		c-14.4-13.1-29.8-25.1-45.8-36.3c-16.4-11.5-16.4-16.1-0.9-29.3c5.4-4.6,10-10.3,16.5-13.6c1.8-0.6,3.6-0.4,5.3,0.5
		C429.7,475.2,457,503.5,484.4,531.5z"/>
	<path class="st2" d="M679.4,519.2c-2.9-2.2-3.9-5.3-3.5-8.6c4.9-47.1-13.2-86-43.1-120.6c-1.1-0.7-1.5-1.5-1.1-2.2
		c0.4-0.7,0.8-1.1,1.1-1.1c10.5-10.4,21-20.8,31.5-31.2c1.9-1.4,3.8-1.6,5.9-0.6c35.7,29.9,53.4,93.9,36.9,133.4
		C697.9,498.6,688.6,508.9,679.4,519.2z"/>
	<path class="st2" d="M710.9,312.8c7.5-11,24.3-12.7,27.8-27.7c7.8-0.6,9.6,6.7,14.1,10.5c5.9,10.7,17,18.6,17.2,32.3
		c-10.2,10.2-9.9,21.3-3.6,33.5c3.2,6.2,5.4,13.1,7.2,19.9c6.9,25.6,9.6,27.3,34.6,21.5c6.9,5.4,3.9,12.9,4,19.7
		c-1.2,5-2.3,10.1-3.5,15.1c-4.6,7.8-9.6,15.1-17.5,20.2c-18.1,11.5-30.9,6-34.3-15.2c-0.9-5.7-2.2-11.4,0.6-17
		c2.1-36.1-13.4-65.7-33.8-93.7C719.1,325.7,715.1,319.2,710.9,312.8z"/>
	<path class="st1" d="M504.1,659.7c3.7-16.6-6.5-29.1-13.5-41.9c-7.9-14.6-17.7-28.6-28.6-41.2c-11.2-13.1-6.9-21.2,5.2-29.2
		c5.9-3.9,11.3-8.5,16.9-12.8c34.3,36.6,61.1,76.3,54.8,130c-6.4,7-12.7,14-21.2,23.3C512.6,677.3,508.4,668.5,504.1,659.7z"/>
	<path class="st6" d="M597.4,119.9c77.2-11.6,138.1,20.7,192.6,70.8c4.7,4.4,9.6,8.6,14.4,12.9c6.5,14.5-0.6,22.8-13.1,28.6
		c-19.2-1.9-25.7-20.6-39.4-29.6c-13.3-9.2-23.7-22.3-39.1-28.7c-11.3-9.7-27.6-11.5-37.4-23.5c-22.8-17.8-46.9-31.7-77.7-25.6
		C595.4,123.2,595.3,121.6,597.4,119.9z"/>
	<path class="st1" d="M257.7,718.7c28.5,28.3,55.7,57.7,58.5,100.6c1.3,20-5,25.5-25.2,24.4c-18.5-1-34.9-7.9-48.8-20.2
		c36-12.6,41.1-27.8,22.8-63.7c-6.7-13.1-18.8-21.2-27-32.8C242.8,720,247.9,713.8,257.7,718.7z"/>
	<path class="st2" d="M788.8,231.5c9.9-6.7,16.2-15.4,15.5-28c26.8,29.5,49.3,61.6,60.9,100.4c10.3,34.3,10,68.8,0.3,102.9
		c-2.9,10.3-7.4,21-18.4,26.4c-3.9-13.1,6.2-22.6,8.6-34c-1.1-21.8,10.4-42.7,3.7-65.1c-4.9-16.4-9.1-32.5-28.4-37.7
		c-9.5-5-10.1-15.4-14.2-23.7c-7-14.2-14.1-28.4-27.6-38c-0.8-0.6-1.2-1.3-1.1-2.1C788.4,231.9,788.6,231.5,788.8,231.5z"/>
	<path class="st1" d="M707.1,488.3c8.6-50.8-7.4-94.3-39.4-133.1c2.4-14.8,11.4-22.8,25.9-25.2c31,23.1,52.4,83.8,42.2,119.8
		c-1,3.7-3.2,7.1-1.4,11.1C728.8,473.6,717,480,707.1,488.3z"/>
	<path class="st3" d="M257.7,718.7c-6.6,2.8-13.1,5.6-19.7,8.3c-12.6-9-24.5-19-37.8-26.7c-23.2-13.4-39.4-5-44,21.5
		c-2.3,13.2-2.3,13.2-12.1,13.1c-11.8-22-16.6-45.1-10.4-69.8c10.7-18.2,27.3-15.8,43-10.3c33.3,11.6,59.7,33.3,81.5,60.8
		C258,716.7,257.9,717.7,257.7,718.7z"/>
	<path class="st0" d="M390.7,457.1c-0.6,1.1-1.2,2.3-1.8,3.4c-6.3,10.3-25.1,14-22.6,25.8c1.8,8.5,17.2,14,26.4,21.1
		c18.4,14.1,36.2,28.9,51.1,47.1c5.8,7.1,7.8,11.9-2.4,15.9c-28.7-29.2-58-57.5-93.9-78c2.9-11-6.5-10.6-12.4-12.8
		c-7.2-2.6-14.9-3.4-22.6-3.1c-13.3-7.4-17.5-15-1.8-24.8c6.3-3.9,11.5-9.5,17.3-14.3c16.9-2.5,33.1,0.7,48.8,6.6
		C383,446.3,391.1,447.4,390.7,457.1z"/>
	<path class="st7" d="M785.7,390.1c-4.3-12.9-7.8-26.1-13.2-38.6c-3.8-8.9-0.5-15.3,6.3-17.5c14.2-4.6,24.1-15.1,35.7-23.2
		c14.1-9.8,24-7.5,30,9c5.5,37.2-14.5,65.2-51.8,72.5C789.9,393,787.6,392.1,785.7,390.1z"/>
	<path class="st8" d="M137.4,664.5c-3.3,21.7-3.7,43.1,8.2,62.8c2,3.3,2.1,5.8-1.6,7.7c-23-27.5-37.6-59.2-47.1-93.5
		c-4.9-31.8,2.5-48.2,25-54c8-2.1,16.9-4.4,20.8,7C149.7,618.5,143,641.5,137.4,664.5z"/>
	<path class="st9" d="M461.1,742c-1.2-2.3-2.2-4.8-3.7-6.8c-17.5-23.7-18.4-45.9,6.2-65.5c9.9-7.9,6.9-21.5,14.3-31.9
		c13.1,13.6,21.2,28.7,26.5,45.6c7.4,26.1-7.5,42.2-25.8,56.4C473.6,743.6,467.6,746.9,461.1,742z"/>
	<path class="st10" d="M370.5,609.6c-14.6-13.7-29.1-27.4-43.7-41c-4.5-18.8-9.2-37.6-13.5-56.5c-1.3-5.6-3.9-12.2,1.2-16.5
		c5.9-5,12.1-0.6,18,1.8c11.4,4.7,18.2,12.2,21.5,24.9C361.6,551.1,368.9,579.8,370.5,609.6z"/>
	<path class="st11" d="M390.7,457.1c-13.5-11.3-30.4-12.4-46.5-15.6c-5.5-1.1-11.8,1.3-16.1-4.1c11.8-10.3,23.7-20.7,35.5-31
		c20.2-5.6,38.8,0.3,57.3,8c8.9,3.7,10.9,8.1,3.1,15.2c-9.9,9-19.7,18.1-29.6,27.2C393.1,456.8,391.9,456.9,390.7,457.1z"/>
	<path class="st12" d="M675.3,150.4c15,4.7,29.7,10,41.6,20.8c5.3,28.7,9.1,57.4-2.4,85.6c-10.1-8.5-20.2-16.9-30.3-25.4
		C681.3,204.4,678.3,177.4,675.3,150.4z"/>
	<path class="st13" d="M558.8,202.9c-2.4,11.6,12.6,23.2-0.2,34.8c-16.7,2.3-30.1,10.7-42.4,21.7c-2.7,2.4-4.7,7.1-9.3,5.3
		c-4.7-1.8-3-6.7-2.9-10.2c0.8-21.5,3.6-42.4,18.4-59.6c6.2-4.3,12.8-6.4,20.2-3.6C551.8,189.9,558.7,191.7,558.8,202.9z"/>
	<path class="st14" d="M141.3,593.7c-21.3-6.4-40.1,4.9-43.4,26.6c-1,6.9-0.7,14.1-0.9,21.1c-15.7-37.4-7.9-70.6,22.3-92.5
		c11.1-8.1,23.4-13.3,37.4-6.5c-7.2,16.2-13.4,32.5-11.2,50.7C144.2,594.7,142.8,594.8,141.3,593.7z"/>
	<path class="st15" d="M432.8,690.7c-8.6-12.4-17.2-24.8-25.8-37.2c-0.3-17.3-0.6-34.6-0.9-51.9c5.8-8.4,10-19.2,23.6-15.8
		c9.4,31.1,6.8,63.3,8.7,95C438.7,684.1,434.8,687.5,432.8,690.7z"/>
	<path class="st16" d="M511.6,277.3c21.8-0.2,43.8-0.9,65.2,10.7c-15.9,16.7-27.4,36.5-56.6,22.6c-12.3-5.9-29.4-1.7-44.3-2.1
		C487.7,298,499.6,287.7,511.6,277.3z"/>
	<path class="st17" d="M770,327.9c-6.7-10.4-13.4-20.8-20.1-31.2c-9.3-28-8.7-56.1-1.4-84.3c10.5-3.5,9.2,5.2,9.9,10.4
		c1.5,11.9,0,24,0.9,36.3c11.7-2.1,12.5-19.2,26.1-16.6c-1.7,24.6-3.5,49.1-5,73.7C780,323,776.9,327,770,327.9z"/>
	<path class="st14" d="M604.8,132.3c13.1-2.5,25.2-0.5,35.7,8.3c-6.8,19.3-18.3,36.1-29.7,52.6c-8.9,12.9-23.6,10-36.9,6.6
		c-4.6-0.9-8.6-2.4-7.4-8.4C585.6,175.8,595.2,154,604.8,132.3z"/>
	<path class="st2" d="M734.4,461c-3-2-3.9-4.9-3.2-8.4c10.1-48.1-10.2-86.1-40-120.9c-0.7-0.9-1.1-1.9-1.1-2.9
		c0-1.1,0.1-1.6,0.3-1.6c2.1-3.8,5-6.6,9.5-7.2c31.2,34.5,56.3,71.3,42.5,121.4C740.6,448.1,737.1,454.5,734.4,461z"/>
	<path class="st18" d="M278.3,464.5c9.8,3.6,18.1,9.2,27.1,21c-27.3-10.1-39.3,10-55.1,20.6c-8.3,5.6-14.9,9.2-24.5,3.9
		c-14.1-7.7-31.4-6.1-45.4-14.4c6.7-6.2,14.7-8.2,23.4-6.1c16.7,4.1,30.5-1.5,43.1-11.9C256,470,265.8,463.9,278.3,464.5z"/>
	<path class="st1" d="M757.5,425.6c0.2,1.9,0.3,3.9,0.6,5.8c1.8,10.8,2,23.8,13.9,27.8c11.1,3.7,18.1-7.4,26.2-13.2
		c3.7-2.6,7-5.6,10.5-8.4c-0.5,28.1-12.7,43-39.4,48.6c-11.6,2.4-14.1-9.6-22-13.1c-7.4-3.3-2.5-8.4-1-13
		C750.1,448.6,753.8,437.1,757.5,425.6z"/>
	<path class="st19" d="M441.8,823.7c15.4-5.8,24.2-18.9,34.4-30.6c1.4,50.2-13.6,74.1-56.4,87.2
		C439.4,865.8,443.8,845.9,441.8,823.7z"/>
	<path class="st20" d="M278.3,464.5c-13.3,6-25.6,13.6-36.8,23.1c-8.3,7-18.4,9.8-28.8,7.9c-10.9-1.9-21.5-1.4-32.3,0
		c1.2-7.7,5.9-13.4,11-18.8c8.7,1.7,16.6-0.4,23.6-5.6c13.8-10.3,29.1-15.3,46.4-13.4C267,460,272.7,462.2,278.3,464.5z"/>
	<path class="st21" d="M175.6,508.2c-7.2,6-14.4,12-15.7,22.2c-22-1.4-41.6,4-57.5,20.9c6.6-24.7,21.5-41.1,44.3-50
		C157.6,497.1,168.2,496.5,175.6,508.2z"/>
	<path class="st22" d="M785.4,242.4c-11,8.5-17.2,22.1-32.1,31c0-22.4,0-42.6,0-62.9c-2.5-3.7-2.4-7,1.4-9.7
		c13.7,7.7,21.8,21.6,34.2,30.7c-0.3,1.2-0.1,2.3,0.5,3.3C788,237.3,786.7,239.9,785.4,242.4z"/>
	<path class="st23" d="M699.9,320c-2.8,2.9-5.5,5.7-8.3,8.6c-9.2,1.6-11.6-6.8-16.4-11.4c-22.3-21.7-44.2-44-77.6-47.7
		c0-2.7,0.1-5.5,0.1-8.2c4.4-4.8,10.5-2.8,15.9-4C649.4,268.5,677.4,290.5,699.9,320z"/>
	<path class="st7" d="M231.1,734c16.8,13.4,29.7,29.3,34.2,50.9c-3.6,5.3-5.6,13.8-15,7.7c-10.6-15.3-14.4-36.2-35.6-42.7l0.2,0.2
		c0.1-1.4,0.1-2.7,0.2-4.1C219.3,740.5,223.8,735.4,231.1,734z"/>
	<path class="st24" d="M785.7,390.1c37.2-13.4,62.8-28.6,58.8-70.2c6.4,14.4,15,30.8,6.3,44.8c-12.4,19.8-35.6,26-57.2,32.3
		C789.4,398.2,786.9,394.1,785.7,390.1z"/>
	<path class="st9" d="M573.9,199.8c23.4,1.3,39-7.1,46.3-31.4c3.1-10.4,13.3-18.6,20.3-27.8c11.8,6.5,6.1,14.3,0.3,20.2
		c-9.9,10-16.4,21.4-18.9,35c-1.8,10-8.1,11.9-16.8,11.5C594.2,206.7,583.4,205.9,573.9,199.8z"/>
	<path class="st21" d="M604.8,132.3c1.8,1.7,8.2,0.6,5,5.4c-8.7,13-16.1,26.5-22.3,40.9c-3.7,8.6-13.6,9.1-21,12.8
		C566.6,162,581.7,138.7,604.8,132.3z"/>
	<path class="st19" d="M461.1,742c27.2-9.2,41.8-28.9,43.2-58.7c12.2,32.2,10,41.2-15.5,64.2C473.9,760.9,470.7,760.3,461.1,742z"/>
	<path class="st25" d="M175.5,821c-4.8-5.6-9.7-11.2-14.5-16.8c0.5-12.2-8.3-26.4,7.4-35.5c11.3,3.7,17.4,14.2,26.5,20.7
		C198.1,808.9,194.3,814.9,175.5,821z"/>
	<path class="st26" d="M261.4,457.7c-17.5,5.5-35.6,9-50.5,21.5c-3.3,2.8-15.1,13-19.5-2.5C210,452.9,233.6,447.4,261.4,457.7z"/>
	<path class="st27" d="M231.1,734c-3.7,6.2-8.2,11.3-16,12c-7.7-8.8-17.6-14.3-28.1-19c-2.8-7.7-6.3-15.3,0.3-22.9
		C204.7,709.9,218.7,720.9,231.1,734z"/>
	<path class="st28" d="M429.8,585.9c-7.9,5.3-15.7,10.5-23.6,15.8c-2.4-17.8-4.7-35.6-7.1-53.3C411.5,558.9,431.1,563.8,429.8,585.9
		z"/>
	<path class="st9" d="M220,817c-7.7-5.7-14.2-13.4-13.8-20.6c0.7-11.2,13-16.6,21.7-19.5c8.3-2.8,13,9.4,13.1,15.7
		C241.1,805.1,227,807.8,220,817z"/>
	<path class="st29" d="M195.3,781.3c-11.8-8.7-23.4-15.5-6.2-31.9c10.4-9.8,14.6-5,21.4,1.1C215.4,769,212.5,774.8,195.3,781.3z"/>
	<path class="st30" d="M149,750.9c9.6-9.2,14.7-27.1,34.6-16.5c6.2,3.3,4.6,6.2,1.5,10.4C175.9,757.7,166.1,768.3,149,750.9z"/>
	<path class="st31" d="M175.5,821c12-7.1,19.8-16.8,19.4-31.5c4.9,2.3,5,7.5,5.9,11.5c2.1,9.4,15.4,19.4,5.2,27.5
		C196.5,836.1,185.2,826.2,175.5,821z"/>
	<path class="st32" d="M168.4,768.8c-8.1,10.6-0.8,24.5-7.4,35.4c-3.7-6-8.4-11.7-10.8-18.1c-3.1-8.5-15.7-17.6-6.9-25.4
		C150.1,754.7,160.3,764.5,168.4,768.8z"/>
	<path class="st33" d="M855.9,399.2c1.2,12.4-4.5,23-8.6,34c-6.4,7-10.1,16.9-26.7,21.4C834,433.6,844.9,416.4,855.9,399.2z"/>
	<path class="st34" d="M476.7,791.1c-2.5-7.8-5.1-15.7-7.6-23.5c9.7-5.5,19.5-10.9,32.4-18.2C493.5,766.2,485.9,779.1,476.7,791.1z"
		/>
	<path class="st35" d="M274,528.8c-10.9-4.7-22.9,9.4-33.3-2c8.6-7.2,17.2-14.5,26.1-22C273.1,512.6,274.5,520.4,274,528.8z"/>
	<path class="st36" d="M613.6,257.3c-4.1,6-10.2,4.1-15.9,4c-18.5-10.8-38.8-5.8-58.4-6.8C564.7,239.9,589.2,247,613.6,257.3z"/>
	<path class="st37" d="M312.5,476.5c16-9.8,30.5-1.5,42,7.1c9,6.7-2.3,7.4-7,8.8C335.8,487.1,324.2,481.8,312.5,476.5z"/>
	<path class="st38" d="M187.3,704.1c-1.4,7.6,3.9,15.3-0.3,22.9c-1.9-0.3-4.6,0-5.5-1.1c-4.3-5.7-18.2,1.4-16.1-10.7
		C167.4,703.6,176.2,700.3,187.3,704.1z"/>
	<path class="st39" d="M597.4,119.9c0.1,1.6,0.2,3.3,0.3,4.9c-7.6,2.7-13.2,8.3-18.9,13.7c-5.8,5.2-12.4,8.6-20.1,10.1
		c-3.6,0.3-6,5.1-12.8,1.9C560.8,134.9,576.9,124,597.4,119.9z"/>
	<path class="st40" d="M195.3,781.3c9.2-8.2,17.3-17,15.2-30.8c1.5-0.1,2.9-0.3,4.4-0.4c0,0-0.2-0.2-0.2-0.2
		c-3.8,8.7,17.1,10.7,6.4,19.6C214.2,775.3,209.7,790.5,195.3,781.3z"/>
	<path class="st41" d="M712.6,499c9.4-11,18.2-17.9,31.2-13.2c2.2,0.8,5.4,3.7,3,5.8C737.4,499.3,726.4,501.3,712.6,499z"/>
	<path class="st42" d="M250.3,792.6c6.7,0.8,10-5.1,15-7.7c0.1,0.6,0.3,1.3,0.4,1.9c1.3,6.6,7.2,13.5-0.7,19.5
		c-3.5,2.6-8,6.9-12,4.1C246.5,806.2,254.8,798.2,250.3,792.6z"/>
	<path class="st43" d="M648.2,204.2c-3.3,0.4-6.6,0.8-9.9,1.2c-11.9-10.6-5.4-19.3,3.7-31.6C644.5,186.1,646.3,195.1,648.2,204.2z"
		/>
	<path class="st44" d="M812.2,422.5c-5.5-5.7-2.6-13.1-4-19.7c6.7-3.5,13.4-6.9,23.7-7.4C824.6,405.5,818.4,414,812.2,422.5z"/>
	<path class="st45" d="M816.9,272.8c7.9,6,10.1,15.4,14.2,23.7C799.1,305,819.8,281.8,816.9,272.8z"/>
	<path class="st46" d="M542.7,191.3c-6.5,2.8-12.8,6.3-20.2,3.6c3.3-7.4,6.5-14.9,14.6-20C539.1,180.8,540.9,186,542.7,191.3z"/>
	<path class="st47" d="M240.4,808c-5.4,9.8-11.7,18.8-25.6,24C220.5,817.9,232.5,815.1,240.4,808z"/>
	<path class="st48" d="M558.6,148.5c5.3-6.2,12.6-8.3,20.1-10.1C571.7,141.1,574.7,163.9,558.6,148.5z"/>
	<path class="st3" d="M632.8,386.7c0,1.1-0.1,2.2,0,3.3c-38.6,33.1-75.3,68.2-109.4,106c-1.1,0.1-2.2,0.2-3.2,0.2
		c-16.8-30.9-47-47.3-73.5-67.7c-3.5-2.7-7.4-4.9-11.9-7.9c32.6-30.3,64.7-59.4,95.9-89.5c11.8-11.3,21.7-9.5,34.1-1.8
		C590.3,345.2,611.6,365.9,632.8,386.7z"/>
	<path class="st3" d="M597.6,269.5c8.6-6.1,16.5-4.1,25.2,0.7c26.9,14.8,49,35.2,68.7,58.4c-0.1,1-0.2,2.1-0.4,3.1
		c-8.8,6.9-17.6,13.8-23.5,23.5c-1.1,0.2-2.3,0.3-3.4,0.3c-12.9-27-37.6-41.2-61.5-56C582.7,287.1,582.4,287.7,597.6,269.5z"/>
	<path class="st0" d="M141.3,593.7c1.4-0.1,2.7-0.3,4.1-0.4c34.6,2.5,62.7,19.6,88.7,40.7c21.6,17.5,44.5,33.8,59.9,57.7
		c-12,8-24,16-35.9,24c-20.6-10.1-33-30.6-53.2-41.7c-11.4-6.2-22.4-13.1-35.1-16.2c-11.7-2.8-23.2-3.4-32.4,6.7
		C134.7,640.7,141.1,617.4,141.3,593.7z"/>
	<path class="st49" d="M754.7,200.8c-0.5,3.2-0.9,6.5-1.4,9.7c-6.1,28.5-2.5,57.4-3.3,86.1c-3.7-3.9-7.5-7.7-11.2-11.6
		c-8.1-9.4-16.1-18.9-24.2-28.3c0.8-28.5,1.6-57.1,2.4-85.6C732.7,177,743,189.8,754.7,200.8z"/>
</g>
</svg>
