<?xml version="1.0" encoding="utf-8"?>
<!-- Generator: Adobe Illustrator 23.0.1, SVG Export Plug-In . SVG Version: 6.00 Build 0)  -->
<svg version="1.1" id="Layer_4" xmlns="http://www.w3.org/2000/svg" xmlns:xlink="http://www.w3.org/1999/xlink" x="0px" y="0px"
	 viewBox="0 0 1000 1000" style="enable-background:new 0 0 1000 1000;" xml:space="preserve">
<style type="text/css">
	.st0{fill:#512800;}
	.st1{fill:#925B00;}
	.st2{fill:#934900;}
	.st3{fill:#FEFE80;}
	.st4{fill:#FDFD7F;}
	.st5{fill:#3E1F00;}
	.st6{fill:#2F2724;}
	.st7{fill:#3F1F00;}
	.st8{fill:#7C7E38;}
	.st9{fill:#924900;}
	.st10{fill:#925A00;}
	.st11{fill:#F99C00;}
	.st12{fill:#5B4B43;}
	.st13{fill:#643F00;}
	.st14{fill:#FCFC7F;}
	.st15{fill:#7B7D38;}
	.st16{fill:#F99C01;}
	.st17{fill:#FBF476;}
	.st18{fill:#5A5B28;}
	.st19{fill:#FCF67A;}
	.st20{fill:#302825;}
	.st21{fill:#E8AC7A;}
	.st22{fill:#7B7D37;}
	.st23{fill:#594942;}
	.st24{fill:#27201E;}
	.st25{fill:#2B2421;}
	.st26{fill:#120E0E;}
	.st27{fill:#352B25;}
	.st28{fill:#161211;}
	.st29{fill:#5F4C42;}
	.st30{fill:#E5AA7A;}
	.st31{fill:#DF8F04;}
	.st32{fill:#55463F;}
	.st33{fill:#040201;}
	.st34{fill:#FA9C00;}
	.st35{fill:#0C0700;}
	.st36{fill:#140C00;}
	.st37{fill:#191000;}
	.st38{fill:#432A00;}
	.st39{fill:#060400;}
	.st40{fill:#211400;}
	.st41{fill:#C96500;}
	.st42{fill:#050807;}
	.st43{fill:#91186C;}
	.st44{fill:#E77DC7;}
	.st45{fill:#F9EEF6;}
	.st46{fill:#FEFE7F;}
	.st47{fill:#0A3D3B;}
	.st48{fill:#80D4DE;}
	.st49{fill:#0C3B38;}
	.st50{fill:#057886;}
	.st51{fill:#0B7C8A;}
	.st52{fill:#017B8A;}
	.st53{fill:#F0F4F4;}
	.st54{fill:#CBF4F4;}
	.st55{fill:#CFF6F6;}
	.st56{fill:#D9F2F5;}
	.st57{fill:#EDF8FA;}
	.st58{fill:#FCFDFD;}
	.st59{fill:#C4EFF0;}
</style>
<g>
	<path d="M976.5,735.2c-1.5,7.1-28.6-5.8-9.8,12.5c-38.4,9.1-76.3,18.1-114.2,27.1c-28.7,6.8-56,18.4-85.5,22.5
		c-11.4,1.6-15.7,14.7-24.7,20.6c-5,3.2-14.7,13.2-12.3-5.5c-12.7,9.8-23,20.9-38,23.3c-4,0.6-15.6,14.7-13.1-5
		c0.4-3-3.7-1.9-6.2-1.7c-30.1,2.4-59,12.4-88.5,16.7c-33.9,5-69.3,6.7-102.4-7.2c-5.9-2.5-11.3-1.6-16.9-2.7
		c-10-1.8-23.5-2.8-25.6-13c-3.4-16-13.3-14.7-24.2-14.2c-15.4,0.6-30.6-0.4-45-6.5c-4.9-2.1-11.8-3.5-13.9,1.1
		c-15.7,34.1-49.7,37.6-79,43.2c-30.9,5.9-65.8,6.5-92.8-12.8c-28.2-20.3-61.6-33.9-84.7-65.2c-2.6,6.9-1.9,16.2-8.2,15.5
		c-4.4-0.5-7.6-7.4-10.5-12.8c-7.3-13.7-5.3-29.5-12.2-42.8c-5.1,6.2-10.5,12.8-15.6,19c-11.5-39.2-8.8-56.6,9.2-92
		c4.6-8.9-4.5-12.6-1-21.6c13.4-35.2,40-59,66.8-82.4c18.9-16.6,42-28.1,60.3-46.1c9.2-9.1,12.1-16.3,0.3-25.7
		c-8.6-6.8-15.8-15.5-23.6-23.3c-17.8-17.7-26.4-39.7-28.3-64.3c-1.1-13.4-3.4-27.1-3.1-39.9c0.6-23.9,9.7-47.1,29.1-63
		c8-6.5,14.9-13,20.8-21.4C192,256,205.3,253,218.3,250c16.9-3.9,30.4-7.7,41.9-26c31.2-49.8,71.1-92.9,127-116.6
		c14.2-6,22.6-18.4,35.3-25.5c45.3-25.6,89.9-25.4,132.1,6.2c22.3,16.7,49.5,22.9,72.4,39.3c48.6,34.9,83.1,79.1,103.5,134.9
		c17,46.5,24.4,94.4,23.4,143.8c-0.2,9.3-0.1,16.8,10.8,21.8c7.2,3.3,11.4,13.5,8.4,21.7c-5.5,14.9,3.1,21.8,12.7,29.7
		c36.4,30.3,60.4,70,83.4,110.5c25,43.9,62.7,78.1,91.5,119.1C966.7,717.5,974.2,725.5,976.5,735.2z"/>
	<path class="st0" d="M328.2,656.2c-5.9-29.6-15.2-57.2-43.6-73.5c12.2-9,23.2-0.1,34.7,2.2c12.7,5.7,23.6,13.6,30.8,26
		c7.6,13,18.4,13.7,29.7,6c12.2-8.3,25.6-12.6,39.9-14.8c25.7-4,44.6-20.5,64.9-34.4c0.5-0.4,1.7-0.5,1.7-0.8c-0.1-2.8-2,0-2.9-0.8
		c-4.6,0.8-9.1,1.4-13.7,1.4c-18.8-0.1-31.7-10.3-32.9-26c-1.2-15.5,8.2-25.8,28.9-26.6c32.4-1.3,64.6-4.3,96.7-7.4
		c23.6-2.3,47.7-2.6,70.4-11.2c36.6-7.6,73.2-15.3,109.9-22.9c8.8-1.8,16.7,0,22.7,7.3c-1.9,6.2,3.1,9.6,6,13.4
		c32.6,41.5,59.8,86.4,84.1,133.1c7.2,13.9,15.6,27,25.1,39.3c4.8,6.2,11.8,12.4,12.9,19.2c4.3,27,25.9,30.5,45.8,36.9
		c-2.3,8.9-11.5,2.3-15.6,6.9c-2,2.2-16.8-2.8-4.4,8.2c2.8,2.5-3.2,4.1-6,4.3c-14,0.7-27.6,6.1-41.8,4.3
		c-18.3,8.3-40.3,5.5-53.9-7.1c-4.8-4.5-9.3-9.3-5.3-16.7c8.8-27.8,16.9-55.5,14.1-85.3c-3.6-38-26.4-65.3-49.8-92.4
		c-10.6-12.3-22.8-23.1-36-32.6c-3.1-2.3-6-5.5-9.8-0.9c15.5,20.7,32.6,40,43.3,64.2c9.1,20.5,15,41.5,17.7,63.5
		c0.9,7.4,3.4,15.6-8.3,18.4c-7.9,1.9-4.6,9.7-4.9,15c-1.2,24.7-5,49.1-9.1,73.4c-2.2,13-8.9,24.3-15.7,35.4c0,1.2-0.1,2.5-0.4,3.7
		c-7.8-5.6-13.9-13.2-26.2-5.7c-7.5,4.6-12.9-4.5-12.8-12.3c0.7-31.6-14.7-53-38.5-72.5c-15.6-12.8-24.2-33.6-43.4-44
		c-23.3-12.7-46.9-24.9-65.3-45.1c-8.3-9.1-21.4-8.2-32.6-11.2c-47.8-7.2-80.5,38.1-92.7,80c-6.5,22.1-8.3,45.4-12.3,68.2
		c-16.3,7.7-28.6-2.8-40.6-10.3c-24.7-15.4-41.4-38.3-54.9-63.7C332.2,664.3,331,659.8,328.2,656.2z"/>
	<path class="st1" d="M710.7,467.7c-6.8,0.9-12.7,5.8-20,4.3c-31,0.7-62,2-92.9,3.3c-60.2,2.6-120.2,7.7-179.7,18.1
		c-3.4,0.6-8-1.4-10.5,3.1c-2.4,0.8,2.1,1.7,0.3-0.2c-0.7-0.8-0.3-1.5,1.1-1.5c12.3-0.1,25.2-8.5,36.8,2.2
		c-28.9,6.8-57.8,2.7-86.6-0.9c5-20.4,19.5-35.3,30.3-52.3c3-4.8,9.7-6.6,15.6-6.8c23.1-0.5,46.2-3.1,69.2,1.6c3,1.6,4.4,4.3,5,7.8
		c-1.3-22.3,4.1-42.6,16.1-61.2c-6.9,10.9-12.4,22.5-14.7,35.2c-1.7,9.6-6.5,13.6-16.1,12.4c-19.8-2.5-39.1-6.8-56.6-16.5
		c-10.2-5.7-22-11.1-21.7-26c27.5-11.3,36.1-31.6,30.6-71.3c-2.5-17.8-4.5-35.6-6.7-53.4c0,0-0.3,0.3-0.3,0.3
		c14.8-28.2,20.5-59.7,33.8-88.6C474.5,110.5,545.4,90,606,131.8C645,158.7,680,189.2,700,233.6c17.9,46.4,20.7,94.2,12.8,143
		c-3.6,22.6,7.9,42.7,12.7,63.9c0.6,2,0.8,4.1,0.8,6.3C725.3,456.9,720.2,463.9,710.7,467.7z"/>
	<path class="st2" d="M320.9,589.9c-12.3-1.5-23.5-8.5-36.4-7.1c-9.1-0.3-18.2-1.2-27.3-0.9c-23.3,0.7-41.2,13.4-43.7,36.2
		c-2.1,19.3-10.3,30.5-25.9,41.1c-22.1,15.1-30.6,38.9-26.5,65.1c1.9,12.5,1.4,22.2-6.2,32.6c-6.5,8.8-6.5,20.5-7.7,32.4
		c-23.9-9.8-34.5-30.2-46.9-50.5c-3.3,4.6-5.7,8-8.9,12.5c-6-21.8-5.8-43.3-5.7-65.9c-11.5,4.8-13.4,16.9-23,23.2
		c0.6-38.7,25.1-64.2,45.5-92.9c-8.2-3-13.1,4.9-21.4,4.1c12.9-26,33.4-43.7,55.6-59.8c25.2-18.3,52-34.4,71.2-60
		c10-13.4,21.4,2.2,32.2,0.2c25,4.5,50.9-1.5,75.5,7.8c9.4,3.6,20.2,3.5,29,9.4c3.4,3.3,2.6,7.4,0.6,10.6
		c-8.6,13.7-10.9,28.7-10.4,44.5c0.2,5.1-0.2,11.1-5.8,13.3c-5.5,2.1-9.7-2.3-13.5-5.6c-12.9-11.4-21.2-25.8-26.9-41.8
		c-1.7-4-1.4-8.5-2.8-11.5c0.7,3.6,1.4,8.2,2.8,12.7C298.7,558.8,317.3,570.4,320.9,589.9z"/>
	<path class="st3" d="M448.7,800.2c-3.5,0.7-6.9,0.3-6.9-4c-0.3-57.6-1.5-115.6,37.2-164.1c20.6-25.8,40.7-30.6,67.6-18.5
		c11.1,11,7.9,23.9,0.8,33.7C511.3,696.3,483.7,750.6,448.7,800.2z"/>
	<path class="st4" d="M324.1,777.5c-37-20.7-66.6-49.1-87.8-86c-12.4-21.6-17-44.4-10.6-69.3c4.9-19,15.6-29.2,35.7-28.2
		c17.8,3.9,24.9,16.6,23.4,32.9c-3.3,35.1,9.5,64.6,28,92.8c8.2,12.4,18.5,24,21.7,38.8C336.2,766.2,342.4,779.5,324.1,777.5z"/>
	<path class="st5" d="M534.8,594c20.4-3.2,37.1,2.9,49.5,19.7c14.3,19.3,39.2,21.6,56.7,36.1c11.6,9.6,23.5,18.3,30.1,32.2
		c2.9,6.1,7.6,10.1,13.1,13.8c23,15.6,35.3,37,34.6,65.3c-0.3,12.9,0.4,22,16.7,9.9c18.5-13.8,10.6,10.9,18,13.8
		c-1.7,4.3-4.5,10.1-8.7,8.4c-2.8-1.1-3-8.5-5.2-15.6c-5.6,12.1-15.9,16.7-23.8,24.2c-6,5.7-6.1,5.3-14.2-1c-3.9-3-7.1,0.9-10.4,2.4
		c-12.7,5.7-24.7,13.9-41.5,12.5c10-15.4,23.7-25.9,27.3-44.8c4.9-25.3-3.2-42.9-21.5-57.8c-5-4.1-10.1-6.7-11.2-14.4
		c-4.8-32.8-25-51.2-56.9-57.7c-4.9-1-11.5,0.8-12.6-6.2C571.2,611.4,553.1,602.7,534.8,594z"/>
	<path class="st4" d="M491.8,815.8c-7.5,1-15,2.1-22.6,2.9c-5.6,0.6-12.8,2.5-16-2.7c-4.6-7.5,4.9-10.1,7.9-15
		c32.7-30.3,71.5-53.7,99.9-89c9.1-11.3,16.8-22.8,23-35.8c7.6-16,16.5-16.9,27-2.7c11.3,15.2,8.7,31.9,2.2,48.1
		c-13.5,33.4-38.1,56.6-69.1,73.6C527.5,804.2,510.1,811.1,491.8,815.8z"/>
	<path class="st4" d="M253.6,789.6c-28.3-4.2-50.8-19.9-70.4-39.1c-23.1-22.6-10.4-74.8,20.3-88.7c6-2.7,7.4-0.9,9.6,4.4
		c2.4,6-0.7,13.3,5,18.3c11.5,25.3,27.1,47.9,46.9,67.5c1.8,1.8,3.7,3.6,5.2,5.7c6.1,8.8,16.7,17.7,10,28.9
		C274.6,796,262.8,790.4,253.6,789.6z"/>
	<path class="st6" d="M324.3,292.9c12.4,14.4-3.4,19.8-9.6,29.9c15.9-11.7,30.7-2.7,37.8,7c8.7,12-8,20.6-15,31.2
		c9.1,2.3,11.3-9.1,19.6-7.9c3.5,7.4-6.6,9.8-6.9,15.9c6.7,2.7,12.1-11,18.7-1.4c5,7.3-0.4,12-4.9,16.7
		c-11.7,12.1-13.6-7.6-23.7-6.3c7.9,9.7,8.4,20.9,7.6,33.9c7.5-3.5,13.6-6.4,22.2-10.5c-0.2,19.3-29.9,19.6-22.2,39.8
		c4.4,4.3,6.5,10.6,0.1,12.8c-14.7,5-23.5,19.6-39.2,22.3c-24.9,24.1-75.8,13.8-97.9-3.5c2.1-3.9,5.6-5.7,9.9-6.2
		c8,0.2,14.9,4.4,22.4,6.4c39.1,10.5,72.6-13.8,68.5-52.3c-0.8-7.1-1-14.2-1.4-21.4c6.5-24.5,3.8-47.8-8.6-70.2
		c-3.3-6-5.9-12.7-7-19.8c0.1-1.9,0.5-3.6,1.4-5.2C306.7,304,315.5,298.6,324.3,292.9z"/>
	<path class="st7" d="M351.7,519.5c-34.6-9.8-69.8-16.6-105.7-19.4c50-2.4,99.2,9.1,148.9,10.3c38.8,1,77.9,0,116.4-3.9
		c27-2.7,54.3-0.7,81.1-6.3c13.2-2.8,26.9-2.8,40.4-4c-7.1,13.4-21.4,8.5-31.6,10.2c-41.9,7.3-84.3,12-126.9,13.1
		c-5.2,0.1-10.4,0.4-15.4,1.4c-11.1,2.2-19.7,7-17.4,20.8c2.1,12.5,9.1,19.2,21.7,20.9c8.4,1.1,16.5-4.1,24.8-0.2
		c-16.8,23-40.6,33.8-67.8,38c-10.1,1.6-12.3-5-9.8-13.5c3.8-13.2,6.5-26.1,1.5-39.8c-7.4-20.1-16.2-26.3-37.7-26.4
		C366.7,520.6,358.9,525.2,351.7,519.5z"/>
	<path class="st8" d="M491.8,815.8c32.3-14.8,65-29,90.6-55.1c16.8-17.1,28.2-37,31.1-61.2c0.8-6.5,0.6-13.1-2.6-19
		c-3.5-6.3-7.5-13.7-15.2-13.7c-7.6-0.1-6.3,8.8-8.5,13.7c-16.8,36.7-46.6,61.8-76.6,86.5c-15.4,12.6-32.8,22.7-49.3,34
		c25.6-27.4,51.3-54.7,76.6-82.3c15.5-16.9,28-36,35.4-57.7c2.9-8.3,7.2-9.2,14.4-8.6c30.9,2.6,52.3,34.3,41.7,63.5
		c-14.8,41-45.1,67.5-83.8,84.5C528.5,807.8,511.5,817.1,491.8,815.8z"/>
	<path class="st9" d="M753.9,781.1c13.5-39.4,19.2-80,19.7-121.5c0-4.2-2.3-9.9,2.8-12.3c5.2-2.6,5.4,6.8,11.8,5.7
		c-1.8-49.5-22.8-91.2-52-129.8c-2.6-3.4-10.2-5.1-5.3-12c26.4,22.2,49.3,47.9,68.2,76.5c20.2,30.6,21.9,68,7.7,117.3
		c-3.7-6.4-6.8-11.8-12.3-21.4C788.6,721.8,780.2,755.6,753.9,781.1z"/>
	<path class="st9" d="M939.4,722.6c-9.9,1.4-19.7,0.1-28.5-4.3c-7.7-3.8-21.3-3.9-14.5-20c1.3-3.2-6.2-10.6-10.2-15.5
		c-35-43.2-53.5-96.4-86.1-141c-8.8-12-18.3-23.6-26.3-36.1c-4.7-7.3-13.9-13.9-8.3-25c36,30.9,62.6,69.1,85.3,110.4
		c24.3,44.2,59.3,80.4,91.7,118.5c1.6,1.9,3,4,3.2,4.2C949.2,723.6,927.6,705.5,939.4,722.6z"/>
	<path class="st5" d="M328.2,656.2c12.7,6.2,15.2,20.2,22.7,30.4c20.2,27.6,42.8,51,79,55.6c0,8.4-0.1,16.8-0.1,25.2
		c0,26.8-0.1,27.1-26.5,25.3c-8.9-0.6-17.9-2.6-26.5-5.1c-6.7-2-10.3-5.1-10.9-14.8c-1.9-29.5-19.6-54.1-29.8-81.1
		C331.6,680.3,326.9,669,328.2,656.2z"/>
	<path class="st10" d="M410.3,265.5c-11.3-12.7-19.9-29-39.7-30.6c13.6-10.3,19.6-25.3,25-40.7c8.7-24.7,20.3-48,36.8-68.2
		c18.3-22.4,39.5-41.5,70.8-43.2c13.8,2.5,27.2,6.1,40.9,17.9c-76.2,0.5-104.9,49.8-122.9,110.1c-5.3,17.9-10.9,35.9-11.2,54.9
		C410,265.8,410.3,265.5,410.3,265.5z"/>
	<path class="st8" d="M324.1,777.5c11.8-1,8.8-9.3,6.9-15.7c-3.8-13.2-12-24.3-19.8-35.4c-21.2-30.3-36.8-62-31.2-100.9
		c2-13.8-6.5-24.4-18.6-31.4c24.6,0.3,41.3,12.6,46.5,40.4c7.2,37.9,18.8,73.8,37.7,107.5c2.5,4.4,4.6,9.7,4.8,14.7
		c0.3,9.2,9.5,20.3,0.1,27.1C342.1,789.8,332.3,782.7,324.1,777.5z"/>
	<path class="st11" d="M446,496.9c-13,0-25.9,0-38.9,0c24.2-12.8,50.7-16.4,76.5-19.1c64.5-6.8,129.3-10.5,194.3-9
		c4.5,0.1,9.2-0.4,12.9,3.2C610.1,489.4,528.6,498.7,446,496.9z"/>
	<path class="st12" d="M296.9,304.6c4.9,20.2,18.9,36.8,21,58.7c1.2,12.8,0.2,23.6-4.9,34.7c-6.7-3.1-8.1-9.8-10.5-15.7
		c-8.3-19.7-21-35.1-39.6-46.6c-14.8-9.2-29.4-16.1-47.3-14.5c-6.4,0.6-13,0.6-19-2.8c-5.5-6.2-0.1-10.5,3.1-14.5
		c4.8-5.9,9.4-11.8,11.7-19.1c5.7-9.9,13.6-10.6,22.5-4.8c4.9,3.2,10,5.6,16,5.4c3.9,0.1,7.9,0.1,11.8,0.2
		C274.3,290.5,280.1,307.8,296.9,304.6z"/>
	<path class="st8" d="M448.7,800.2c23.7-50.6,54.8-96.6,86.4-142.3c9.2-13.3,19-26.6,11.4-44.3c17.7,13,21.6,28.6,12.3,50.5
		c-13.8,32.8-37.9,58.3-60.8,84.5C482.4,766.6,468.5,786.3,448.7,800.2z"/>
	<path class="st13" d="M723.1,445.7c-8.9-27-19.9-52.1-13.8-83.4c7.4-37.9,1.4-77.3-7.7-115.4c-1-4.3-1.1-8.9-1.6-13.3
		c20.4,33.6,27.9,71.3,34.6,109.3c5,28.8,3.3,57.8,3.8,86.8c-0.8,0.3-1.7,0.6-2.5,0.8c-10.8-4.8-8.1-15-9.8-22.6
		c-0.1,8.1,2.3,16,6.9,24C738.6,441.6,733.7,446.3,723.1,445.7z"/>
	<path class="st14" d="M210.6,828.7c-20-4.4-35.3-15.3-45.5-33c-4.6-8-6.6-16.6-3.4-26c5.8-16.7,9.1-17.5,23.1-6
		c16.3,13.4,32.3,27.3,53.2,33.5c4.5,2.3,9.7,2.8,14.2,5.6c6.5,4,15.4,7.1,13.2,16.4c-2,8.4-11.1,10.1-18.7,10.7
		C234.7,830.6,222.5,831,210.6,828.7z"/>
	<path class="st15" d="M523,832.4c-6.8-0.5-14.3,1.6-22.1-6.4c56.9-14.7,104.1-42,135.8-91.6c12.7-0.6,15,7.8,14.6,17.7
		c-0.3,6.6-3.2,12.6-6.7,18.1C621,807.8,572.9,837,523,832.4z"/>
	<path class="st16" d="M503.3,82.9c-17.1,8.4-35.4,14.3-50,27.7c-24.5,22.5-39,50.9-51.4,80.8c-4.5,10.7-9.4,21.2-13.4,32
		c-3.2,8.6-9.2,11.7-17.8,11.5c-25.4-2.9-25.8-3-17.4-27.5c3.5-10.3,9.1-19.9,13.7-29.9c9.6,13.6-4.6,23.9-4.1,35.3
		c23.5-39.5,44.6-82.1,80.5-114.3c2.4-2.2,4.1-5,4-8.5C465.2,81.7,484,80.3,503.3,82.9z"/>
	<path class="st17" d="M315.6,234.1c-14.6,4.6-29.2,9.2-47.9,15.1c26.6-50.8,62.2-87,107.2-114.8c-10.8,21.2-23,41.4-31.4,63.6
		C336.2,211.5,329.6,225.7,315.6,234.1z"/>
	<path class="st18" d="M523,832.4c49.2-4,90-23.4,117.8-65.5c7.2-10.9,13.4-23.8-4.1-32.5c4-16.6,11.2-15.8,20.8-4
		c13.2,16.3,11.4,33.4,2.9,50.7c-17.6,35.5-50.1,47.1-86,50.1C557.5,832.6,540.2,840.5,523,832.4z"/>
	<path class="st13" d="M475.8,441.8c-21.9-0.1-43.8-0.5-65.7-0.2c-11.6,0.1-20.7,3.5-24.7,16.8c-4.5,15-17,25.4-26.1,37.7
		c-12.1,0-24.2,0-41.6,0c16.7-15.4,33.9-20.1,46.1-32.1c7-6.8,12.9-12.4,11.2-22.7c-0.8-4.7,0.1-8.9,3.2-12.7
		c7-8.6,10.9-17.2,2.5-27.8c-4.2-5.3-1.5-9.7,5.6-10.5c15.4,24.2,40.7,30.1,66.1,35.4c4.3,0.9,9.2-0.3,12.5,3.7
		c-22.2,11.2-43.5-1-65.7-1.1c21.9,2.8,43.2,7.9,65.4,4.5C471.1,431.7,480.5,428.5,475.8,441.8z"/>
	<path class="st19" d="M447.3,90c2.6,1.2,11,0.4,5.1,5.5c-40.7,35.2-62.4,83.8-91.5,127.2c-0.5,0.8-2.3,0.7-3.9,1.2
		c-3.2-16.9,11.4-30,9.9-46.4C386,141.3,407.5,107.3,447.3,90z"/>
	<path class="st5" d="M812.3,722.4c11.8,27.6,36,24.4,59.1,23.9c1.5,4.2,1.5,6.8-4.1,8.2c-30.5,8.1-60.8,16.6-92.7,23.3
		C788.4,759.8,783.8,730.2,812.3,722.4z"/>
	<path class="st20" d="M351.5,312.8c-21.1-12.3-23.1-36.2-4.7-49.3c3.3-2.3,10.4-2.5,8.6-9.8c4.2-13.4,15.3-5,23.1-7.2
		c9.7,0.6,8.7,6.9,6.9,13.4c-2,7.2-4.3,14.3-6.5,21.4c-4.3,7.2-3.3,16.3-8.7,23C365.3,310.2,361,317.1,351.5,312.8z"/>
	<path class="st21" d="M215.1,284.6c2.2,16.3-15.5,19.5-20.4,31.1c-0.2,2.7-1,5.3-3.2,6.9c-30.2,21.5-30.6,50.3-20.7,81.9
		c2.1,6.8,5,13.4,4.8,20.8c-1,4-1.2,8.6-7.2,7.9c-24.4-44.8-23.7-86.6,10.4-127.6c9.4-11.3,16.3-25.2,27.8-35.1
		c2.9-2.5,8.6-6.5,8.2,3C216,277.1,210.6,281,215.1,284.6z"/>
	<path class="st22" d="M210.6,828.7c13.4-1,26.9-0.1,39.9-4.1c4.6-1.4,11.3-0.9,11.8-7.3c0.4-5-5.5-6.4-9-9
		c-5.1-3.8-10.2-7.4-15.3-11.1c13.9,2,27.9,3.7,41.8,5.9c15.6,2.5,30.9,1.4,45.8-3.9c4-1.4,9-5.2,11.7,0.5c2.3,5-2.6,8.4-6.3,10.6
		c-27.9,16.5-58.2,25-90.4,23.3C230.8,833.2,219.7,835.4,210.6,828.7z"/>
	<path class="st15" d="M253.6,789.6c2.5-0.1,5.1-0.3,7.6-0.2c6.4,0.2,14.2,1.9,17.2-5.1c2.9-6.5-2.7-12.1-6.6-17
		c-18.7-23.5-42.4-43.4-51.6-73.6c-0.9-3-1.5-6.2-2.3-9.3c18.4,24.5,33.4,51.5,58.1,71.2c15.6,12.5,31.4,24.5,54.5,34.8
		C301.1,800.5,277.4,798,253.6,789.6z"/>
	<path class="st23" d="M378.5,246.4c-6.1,7.5-17.1-0.7-23.1,7.2c-10.7,2.7-20.5,7.4-28.6,14.6c-11.5,10.2-18.3,7.7-22.1-6.6
		c7.3-13.3,8.9-14.2,31.1-17c-3.8-2.1-8.8,1.5-11.7-3C343.1,232.7,360.6,242,378.5,246.4z"/>
	<path class="st24" d="M397.6,265.6c11.3,22.9,7.2,45.3,13.7,67.3C383.4,320.4,379.9,303.3,397.6,265.6z"/>
	<path class="st25" d="M296.9,304.6c-9.5,9.5-17.3,3.1-24.2-3.4c-4.5-4.3-7.4-10.3-11-15.5c0-1.5,0-3,0-4.4
		c11.3,1,19.9-4.3,27.5-11.9c9.8,5.7,13.1,19.1,7.8,31.6c1.1,0.9,1.4,1.8,1,2.6c-0.4,0.8-0.8,1.2-1.2,1.2L296.9,304.6z"/>
	<path class="st26" d="M308.6,476.5c11.7-8,19.6-21,35.5-24.1c8.7-1.7,5.6-4.5-1.6-6.8c-3-1,2.7-3.3,5.3-4.1
		c4.7,0.9,11.2-2.6,13.6,3.5c2,5-3.2,8.2-6.5,10.6c-14.8,11.2-30,22-44.6,32.6C303.4,483.9,314.9,479.9,308.6,476.5z"/>
	<path class="st13" d="M710.7,467.7c4.1-6.3,8.2-12.7,12.4-19c10.1-2.4,14.3-9.4,15.3-19.1c0,0-0.1,0-0.1,0
		c8.3,4.4,20.2,7,18.3,19.2c-1.6,10.7-13.1,11.1-21.5,13.5C727.1,464.7,718.9,466,710.7,467.7z"/>
	<path class="st27" d="M215.1,284.6c-2.4-0.3-4.8-0.6-7.1-1c0.8-4.4,2.6-8.1,6.8-10.2c8.8-1.5,17.9-2.4,23-11.4
		c2.7-4.8,6.7-5.9,11.3-2.8c5.5,3.8,5.6,8.8,0.5,12.7c-6.8,5.2-3.7,9.2,0.4,13.6c-7.3,6.8-13.8,3.7-19.4-2.1
		C224.6,277.2,219.8,279,215.1,284.6z"/>
	<path class="st28" d="M351.5,312.8c18.3-2.5,16.5-22.5,27.4-31.5c0,6.4,0.4,12.8-0.1,19.2c-0.5,7.9,3.5,18.1-6.3,22.3
		C363.3,326.6,358.2,316.8,351.5,312.8z"/>
	<path class="st29" d="M168.4,433.2c4.9-0.7,3.3-4.9,4.2-7.7c4.3-1.1,8.1,0.9,10.1,4.1c9.4,15.5,23.1,27.1,35.6,39.8
		c-1.6,3.2-4.6,3.4-7.6,3.7C192.2,464.3,179.6,449.4,168.4,433.2z"/>
	<path class="st6" d="M406.3,358.5c-0.5,6.6,0.6,14.8-8.3,14.8c-7.5,0-7.9-7.4-7.3-13.1c0.7-6.7,1.3-17.4,7.3-17.8
		C406.1,342,405.7,352.1,406.3,358.5z"/>
	<path class="st30" d="M324,241.8c5.6,0.3,11.2,0.6,19,1c-14.2,7-28.8,8.2-38.4,19c-6,0.1-10.4-2.9-16.1-7.2
		C300.6,247.8,312.1,244.3,324,241.8z"/>
	<path class="st31" d="M315.6,234.1c7.5-13.4,17.4-25,27.9-36.1c-1.4,6.2-3.4,12.3-4.2,18.6C337.5,231,329.2,236,315.6,234.1z"/>
	<path class="st32" d="M289.3,269.3c-4.8,14.2-11.8,23.1-27.5,11.9C268.1,270.6,275.6,263,289.3,269.3z"/>
	<path class="st12" d="M296.8,304.7c0-1.3,0.1-2.5,0.3-3.8c9.2-2.4,15.4-14.7,27.2-8C318.7,305.3,310.7,311.9,296.8,304.7z"/>
	<path class="st33" d="M351.7,519.5c19-4.5,39.6-11,54.5,6.6c17.3,20.5,18.5,44.6,4.9,70.9c30.8-3.7,56-14.3,77-34.7
		c3.3-1.9,6.6-3.7,9.9-5.6c-21.8,25.1-47.2,44.9-80.7,50.9c-13,2.3-24.5,6.6-35.7,13.7c-17,10.8-26.9,8.1-36.5-9.6
		c-5.7-10.6-15.5-15.3-24.1-21.9c-12-15.5-25-30.4-28.2-50.7c-1.5-4.1,0.3-4.7,3.8-3.8c7.4,19.8,19.6,35.8,39.5,50.6
		C333.3,559.9,335.9,537.9,351.7,519.5z"/>
	<path class="st34" d="M508.5,397.6c-0.4-23.3-18.5-32-34-44.4c-23.8-18.9-25.9-48.2-28.8-75.9c-4.3-40.5,5-78.1,24.7-114.1
		c26.4-48.3,65.4-60.6,111.1-28.7c43.6,30.4,69.4,74.4,82.2,125.8c10.4,41.8,14,83-8.9,122.7c-19.6,33.9-60,43-87.8,18.9
		c-10.6-3-12.5-14.9-21-19.9c-7.9,7-13.1,17.4-24.7,19.6C516.3,402.4,511.6,402.6,508.5,397.6z"/>
	<path class="st11" d="M538.5,406.9c21.2,23.3,21.3,36.4,0.1,53.3c-10.1,8.6-20.3,3-30.4,0.1c-19.7-27-21.2-37.9-8.2-57.9
		C513.1,401.7,526.5,398.5,538.5,406.9z"/>
	<path class="st35" d="M547,374.6c7.2,8.7,15.4,16.7,19.9,27.4c8,39.6,8,39.7,48.9,39.9c17.5,0.1,35,0,52.7,1.5
		c-21.5,6-43.2,10.3-66,7.8c-10.6-1.2-21.3-5.4-31.9,0.8c-7,4.1-4.9-3.2-5.3-5.2c-2.7-13.3-4.8-26.8-7.1-40.2
		c-2.1-3-5.2-4.9-7.4-7.8C547.9,391,537.1,384.5,547,374.6z"/>
	<path class="st36" d="M475.8,441.8c-0.1-9.6-5.5-7.6-11.8-6.2c-24,5.4-46.7-1.3-69.5-7.8c23.7-3,46.9,4.4,70.5,1.6
		c7.3,1.5,10.3-1.1,11.3-8.9c2.1-16.6,11.7-29.7,22.6-42.3c-9,21.6-13.8,44.1-16.7,67c-0.2,1.6-0.6,6.3-4.4,3.7
		C476.2,447.9,476.4,444.2,475.8,441.8z"/>
	<path class="st37" d="M738.4,429.6c3.4,13.2-0.4,20.6-15.3,19.1c-0.2-1-0.2-2,0-3.1c5.3-3.1,12.6-5.1,6.4-13.8
		c-7.3-10.2-6.8-22.6-9.8-35.1C735.4,403.3,724.5,423.4,738.4,429.6z"/>
	<path class="st38" d="M554.8,398.4c3,1.9,3.9,4.8,3.5,8.2c-6.6,0.1-13.2,0.2-19.8,0.3c-12.8-1.5-25.7-3-38.5-4.5
		c1.6-3.7,5.3-3.8,8.5-4.7c4.8-0.1,9.6-0.1,14.4-0.2C533.6,393.8,544.2,394.7,554.8,398.4z"/>
	<path class="st39" d="M508.2,460.3c10.1,0,20.3,0,30.4-0.1c5.1,0.6,10.2,1.2,16.6,2c-17.5,9.8-34.4,4.5-50.8,1.7
		C502.1,463.6,506.8,461.6,508.2,460.3z"/>
	<path class="st40" d="M691.2,389.8c-0.1,17.3,2.5,29.8-5.9,43.9C682.2,418.3,682.8,406.6,691.2,389.8z"/>
	<path class="st41" d="M128.5,757.4c-27.4-25.5-42.4-55.3-26.4-92.8c-8.6-3.4-10.7,8.5-20.5,4c14.3-20.4,28.2-40.2,42.1-59.9
		c1.8-2.5,5.3-4.8,3.2-8.2c-2.8-4.7-7,1.9-12-1.9c30.2-35,74.3-53.2,104.3-89.9c-0.5,26.2-17.7,64-37.3,85
		c-11.5,12.3-22.8,24.8-33.6,37.7c-26.3,31.6-33.5,67.7-23.8,107.4C126,745,127.2,751.2,128.5,757.4z"/>
	<path class="st7" d="M296.6,535.4c-1.3,1.3-2.5,2.5-3.8,3.8c-6.3-7.5-3.6-16.7-5-25.3C294.2,519.8,294.9,527.8,296.6,535.4z"/>
	<path class="st42" d="M218.2,469.3c-23.1-6.4-30-29.7-45.6-43.9c-3.6-12.3-7.9-24.4-10.7-36.9c-7.1-32.2,4-56.5,32.7-72.8
		c20.2,2.1,40.9-2.5,60.4,8.9c29.3,17.1,50.5,39.6,57.9,73.4c10.6,38.1,0.9,65.9-29.3,78.9C261,486.8,239.3,478.7,218.2,469.3z"/>
	<path class="st43" d="M382.2,524.5c19.7,7.1,31.6,27.1,27,46.4c-4.7,19.9-18.6,33.3-34.5,44.6c-4.6,3.3-10.9,4.2-15.8-1.1
		c0.4-12.8,7-23.6,11.2-35.1C376.8,561.5,379.6,543.1,382.2,524.5z"/>
	<path class="st44" d="M382.2,524.5c8.7,16.3,0.7,31.5-4.1,46.3c-4.9,15-7.4,31.4-19.1,43.5c-7.7-6.7-10.9-15.4-11.1-25.4
		c14.6-11.5,12.3-28,15.8-47.5c-11.8,16.2-7,33-16.2,45.3c-6-15.3-4.9-30.9,2-45.1C355.7,528.8,365.9,519.9,382.2,524.5z"/>
	<path class="st45" d="M347.5,586.9c1.8-18.7-1-38.9,18-55.3c4.6,21.5-0.1,39.1-6.8,56.3c-2.5,6.5-6.9,4.1-10.8,1.1
		C347.2,588.4,347.1,587.7,347.5,586.9z"/>
	<path class="st46" d="M562.6,227.3c1.8,48.4-7.9,66.2-38.5,74.8c-23.4,6.6-46.3-7-52-30.4c-11.2-45.5,5.2-84.5,29.1-121.2
		c7.7-11.9,20.5-18.3,35.4-14.9c15.3,3.5,19.7,16.7,21,29.8C559.7,187.3,565.3,209,562.6,227.3z"/>
	<path class="st10" d="M554.8,398.4c-10.9,8.4-21.3-3.4-32-0.9c9.1-4.4,16.1-10.1,16.8-21.5c0.3-5.3,4-6,7.4-1.3
		C542.5,384.9,553.3,390.1,554.8,398.4z"/>
	<path class="st47" d="M305.2,402c7.9,27.1,1.3,52.8-16.5,64.3c-21.3,13.6-57.9,9.1-80.6-10.4c-4.8-4.1-8.6-9.5-12.9-14.2
		c-1.1-1-1.5-2-1.3-3c0.2-1.1,0.5-1.6,0.9-1.7c7.1-2.3,14.5-0.4,21.7-1.3c8,1.5,13.3,7.8,20,11.8c21,12.4,32.4,11.3,50.5-5.3
		C298.8,431.4,294.4,413.2,305.2,402z"/>
	<path class="st48" d="M277.7,351.8c5.5,3.7,8.1,9.4,11,15c4.4,6.2,3.4,14.2,8.2,20.6c5,6.8,1.3,13-6.5,16.1c-8-5-14.1,4.6-21.7,2.9
		c-1.8-2.4-1.2-5.1-1-7.7c0.1-3.8,2.8-7.2,2.7-11.1c-1.8,4.7-2.4,9.7-4.2,14.4c-22.6,4.4-32.2-5.5-32.1-33.3c2-6.8,4-13.7,12.4-15.1
		c2.1-0.5,2.4,2.7,4.5,2.4c-0.9-0.7-1.6-1.7-1.9-3c1.4-5,4.8-7.5,9.6-8.4C266.1,343.9,271.7,348.4,277.7,351.8z"/>
	<path class="st49" d="M195.3,437.4c-0.1,1.4-0.1,2.8-0.2,4.3c-23.4-23.1-30.9-51.6-26.8-83.2c3.8-28.8,36.3-42.6,70.2-31
		c-8.8,10-21.6,3.3-31.8,7.6c-28.8,12.3-35,38.4-14.2,60.9c4.8,7.2,14.6,12.5,8.9,23.6C192.9,423.3,198.1,431.7,195.3,437.4z"/>
	<path class="st50" d="M289.9,403.2c-0.9-4.7,17.2-13.2-2.8-14c0.5-7.5,1.1-15,1.6-22.4c10.2,9.6,14.4,22,16.5,35.3
		c-2.6,15.5-2.7,32-15.5,43.9c-0.7-0.7-1.5-1.4-2.2-2.1C286.4,430.2,279.2,416.1,289.9,403.2z"/>
	<path class="st51" d="M203.7,330.4c11.3-5.1,23.4-0.3,34.9-2.9c16.1,3.1,29.4,10.8,39.1,24.3c-7.2-1.2-14.3-2.5-21.5-3.8
		c-11.7,0.6-23.4,1.3-34.4-4.3C216,339,207.1,338.4,203.7,330.4z"/>
	<path class="st52" d="M200.2,418.2c0.2-8.1-7.2-13-8.6-20.5c4-13.2,17-19.2,24.2-29.8c7.4-4.2,14.8-7.3,22.4-0.6
		c0.1,26,6.1,32.8,27.5,31.3c1.4-2,2.6-1.9,3.7,0.2c0.4,2.5,0.7,5,1.1,7.5c7.3,12,6.3,28,17.7,38.2c0.5,0.5,1,1,1.4,1.5
		c-18.6,18.4-33.6,19.9-56.2,4.9c-6.4-4.2-12.3-9.2-18.4-13.8c-5.6-1.9-7.3-5.6-5.2-11.1c11.4-4.3,14.9,10.5,28.6,10.3
		c-12.9-5.9-20.4-15-32.9-12.5C202.5,423.2,197.6,424.3,200.2,418.2z"/>
	<path class="st53" d="M210.7,425.3c1.5,4,2.9,7.9,4.4,11.9c-6.4,9.8-13.1,3.7-19.8,0.3c0.3-6.7-22.6-19.4,4.9-19.2
		c1.8,3.2,4.7,4.3,8.1,4.4C210.3,422.4,211.2,423.2,210.7,425.3z"/>
	<path class="st54" d="M288.2,444.5c-21.5-5.5-14.8-24-17.7-38.2c5.9-4.3,9.2-24.6,19.4-3.2C285.2,416.8,296.4,431,288.2,444.5z"/>
	<path class="st55" d="M238.2,367.3c-8.1-0.7-15.7,1.3-23,4.4c-4.2-12-0.5-22.1,7.4-31.3c10.6,5.2,23.8-1.1,33.7,7.5
		c-2.1,2.5-4.2,5.1-6.3,7.6l0.2-0.2C242.2,355.4,241,362.2,238.2,367.3z"/>
	<path class="st56" d="M269.4,398.8c-1.2,0-2.5-0.1-3.7-0.2c-0.3-4.5-0.3-9.1-1.1-13.5c-0.9-4.6,1.5-5.9,5.1-5.7
		c3.1,0.2,6.4,0.8,9.2,2.1c0.6,0.3,0,4.8-1.2,6.7C275.4,392,272.2,395.3,269.4,398.8z"/>
	<path class="st57" d="M250,355.6c9.1,0,8.6,6.1,7.1,12c-1,3.6-4.1,2.2-6.3,1c-6.9-4-2.6-8.7-0.6-13.2
		C250.1,355.4,250,355.6,250,355.6z"/>
	<path class="st58" d="M222.5,340.5c-2.5,10.4-4.9,20.9-7.4,31.3c-3.7,12.5-13.2,19.6-23.6,25.9c-20.9-8.7-23-42.2-3.2-59.2
		c4.3-3.7,10.1-5.4,15.3-8.1C212.1,329.7,218.7,332.5,222.5,340.5z"/>
	<path class="st59" d="M210.7,425.3c-0.7-1-1.5-1.9-2.4-2.7c-0.2-1.3-0.8-3.5-0.6-3.6c5.4-2,35.2,11.9,35.6,17
		c0.2,2.9-1,6.4-2.8,8.8c-2.4,3.3-5.9,1.5-8.4-0.6C224.9,438,217.8,431.6,210.7,425.3z"/>
</g>
</svg>
