<?xml version="1.0" encoding="utf-8"?>
<!-- Generator: Adobe Illustrator 24.1.2, SVG Export Plug-In . SVG Version: 6.00 Build 0)  -->
<svg version="1.1" id="Layer_4" xmlns="http://www.w3.org/2000/svg" xmlns:xlink="http://www.w3.org/1999/xlink" x="0px" y="0px"
	 viewBox="0 0 1000 1000" style="enable-background:new 0 0 1000 1000;" xml:space="preserve">
<style type="text/css">
	.st0{fill:#C57400;}
	.st1{fill:#DD2500;}
	.st2{fill:#A60000;}
	.st3{fill:#FEB618;}
	.st4{fill:#3B3B3B;}
	.st5{fill:#7F7F7F;}
	.st6{fill:#E32600;}
	.st7{fill:#E22600;}
	.st8{fill:#C87500;}
	.st9{fill:#C77400;}
	.st10{fill:#DE2500;}
	.st11{fill:#E02600;}
	.st12{fill:#E62700;}
	.st13{fill:#CC7700;}
	.st14{fill:#E52600;}
	.st15{fill:#E72600;}
	.st16{fill:#CB7700;}
	.st17{fill:#E62600;}
	.st18{fill:#E72700;}
	.st19{fill:#EA2700;}
	.st20{fill:#F3B818;}
	.st21{fill:#CF7900;}
	.st22{fill:#F32900;}
	.st23{fill:#F22800;}
	.st24{fill:#D87F00;}
	.st25{fill:#DCA416;}
	.st26{fill:#C27200;}
	.st27{fill:#FCC91A;}
	.st28{fill:#D37B00;}
	.st29{fill:#FDC81A;}
	.st30{fill:#D27B00;}
	.st31{fill:#FBCA1B;}
	.st32{fill:#EB2700;}
	.st33{fill:#EC2800;}
	.st34{fill:#D62400;}
	.st35{fill:#ED2700;}
	.st36{fill:#8E8E8E;}
	.st37{fill:#B46900;}
	.st38{fill:#BC6E00;}
	.st39{fill:#CF2300;}
	.st40{fill:#FAC91B;}
	.st41{fill:#F5C41A;}
	.st42{fill:#F02800;}
	.st43{fill:#F82900;}
	.st44{fill:#F92A00;}
	.st45{fill:#F42900;}
	.st46{fill:#C17100;}
	.st47{fill:#CC2201;}
	.st48{fill:#F72900;}
	.st49{fill:#CD2200;}
	.st50{fill:#BF7000;}
	.st51{fill:#BB6E00;}
	.st52{fill:#FECF1B;}
	.st53{fill:#E6AD16;}
	.st54{fill:#FDB618;}
	.st55{fill:#808080;}
	.st56{fill:#FED01B;}
	.st57{fill:#FEFEFE;}
	.st58{fill:#010000;}
	.st59{fill:#DD2716;}
	.st60{fill:#EF9889;}
	.st61{fill:#200500;}
	.st62{fill:#390A00;}
	.st63{fill:#B56B00;}
	.st64{fill:#FEB413;}
	.st65{fill:#FEB20E;}
	.st66{fill:#FEB20F;}
	.st67{fill:#FEAF05;}
	.st68{fill:#FEB10B;}
	.st69{fill:#FEAF02;}
	.st70{fill:#FEAE04;}
	.st71{fill:#FEAF04;}
	.st72{fill:#FEAF03;}
	.st73{fill:#FEB81F;}
	.st74{fill:#FEBD2E;}
	.st75{fill:#FEB514;}
	.st76{fill:#FEB311;}
	.st77{fill:#FEB414;}
	.st78{fill:#FEB516;}
	.st79{fill:#FEB515;}
	.st80{fill:#FEB10C;}
	.st81{fill:#FEB719;}
	.st82{fill:#FEE1A2;}
	.st83{fill:#FEB71E;}
	.st84{fill:#FEB004;}
	.st85{fill:#FEB00B;}
	.st86{fill:#FEAF01;}
	.st87{fill:#FEB923;}
	.st88{fill:#020000;}
	.st89{fill:#250600;}
	.st90{fill:#FEFEFD;}
	.st91{fill:#FEDF99;}
	.st92{fill:#030100;}
	.st93{fill:#CE7800;}
	.st94{fill:#FEFDFD;}
	.st95{fill:#060100;}
	.st96{fill:#F1A79D;}
	.st97{fill:#2F0800;}
	.st98{fill:#791500;}
	.st99{fill:#F82A00;}
	.st100{fill:#B56A00;}
	.st101{fill:#360000;}
	.st102{fill:#310800;}
	.st103{fill:#FEEDC7;}
</style>
<g>
	<path d="M53.76,943.77c-12.27,0.69-20.22-5.22-18.51-16.53c0.33-2.21,0.61-4.43,1.1-6.61c3.88-17.41,7.28-34.95,11.95-52.15
		c2.17-7.98,3.89-16.09,6.38-24.03c4.59-14.64,8.26-29.56,12.25-44.38c4.56-16.96,11.38-33.14,17.08-49.71
		c5.06-14.71,10.56-29.25,16.15-43.76c6.14-15.94,11.39-32.29,19.14-47.53c8.63-16.96,16.25-34.4,25.34-51.17
		c5.75-10.6,12.07-20.89,17.8-31.51c2.43-4.5,6.22-8.85,9.73-13.03c7.27-8.66,13.5-18.19,20.66-26.94
		c9.01-11.01,18.64-21.17,33.83-23.89c10.93-1.96,21.63-5.18,32.48-7.61c11.3-2.53,22.66-4.77,33.98-7.2
		c10.12-2.17,20.23-4.42,30.34-6.63c9.74-2.13,19.47-4.33,29.24-6.35c6.01-1.24,12.06-2.3,18.13-3.24c3.05-0.47,3.71-4.03,6.81-4.69
		c1.11-0.23-0.6-2.1-1.5-2.89c-6.34-5.55-12.25-11.48-16.37-18.93c-1.93-3.5-4.03-6.94-5.57-10.62c-4.8-11.43-9.65-22.75-11.53-35.3
		c-1.14-7.59,0.72-14.62,0.78-21.92c0.03-3.9,3.32-6.23,5.19-8.95c4.52-6.59,9.51-12.92,15.11-18.76
		c7.4-7.72,15.59-14.6,23.22-22.07c5.03-4.92,9.81-10.25,15.21-14.68c7.62-6.25,14.42-13.34,21.89-19.68
		c9.87-8.38,21.8-11.97,34.37-13.87c6.74-1.02,13.44-2.96,20.18-3.04c9.24-0.1,18.47,1.7,27.68,2.41c7.85,0.61,15.76,1.13,23.5,2.31
		c11.83,1.8,24.09,2.97,33.87,11.21c4.84,4.08,5.37,9.38,3.81,15.03c-1.96,7.08-5.64,13.25-9.63,19.43
		c-6.05,9.37-12.81,18.09-19.63,26.88c-4.63,5.97-10.13,11.38-13.93,18.05c-0.93,1.63-0.73,2.43,0.64,2.99
		c6.05,2.45,11.11,6.36,16.42,10.07c9.26,6.48,17.89,13.58,26.22,21.18c8.03,7.32,14.64,15.69,20.01,25.03
		c1.28,2.22,1.62,2.07,3.27,0.54c7.96-7.42,15.78-15.01,24.15-21.93c7.13-5.9,14.5-11.78,22.57-16.19
		c7.21-3.94,14.75-7.71,23.01-9.49c8.95-1.92,23.16,4.91,28.03,12.81c6.72,10.89,9.25,23.01,10.35,35.27
		c0.61,6.8-1.61,13.88-2.8,20.79c-1.57,9.09-3.51,18.08-6.16,26.97c-2.67,8.95-7.85,16.5-11.69,24.78
		c-4.18,9.02-10.49,16.79-15.4,25.39c-2.97,5.19-6.84,9.84-9.96,14.95c-5.31,8.69-12.34,16.11-17.9,24.6
		c-0.09,0.13-0.21,0.25-0.33,0.36c-6.61,5.94-10.64,14.13-17.14,20.09c-7.17,6.56-15.97,9.91-25.68,9.2
		c-7.13-0.52-14.21-2.11-21.22-3.63c-14.25-3.09-28.88-4.45-42.69-9.65c-9.82-3.69-20.2-5.99-28.56-12.92
		c-2.22-1.84-2.31,0.28-2.4,1.77c-0.42,6.89-0.64,13.79-1.22,20.67c-0.82,9.7-1.86,19.38-2.89,29.07
		c-1.24,11.73-3.67,23.27-6.42,34.71c-1.97,8.23-4.7,16.28-7.63,24.26c-2.43,6.61-3.92,13.55-6.24,20.2
		c-3.44,9.86-6.81,19.8-11.02,29.34c-6.25,14.17-15.36,26.65-27,36.75c-8.04,6.98-16.99,13.08-26.3,18.44
		c-9.71,5.58-19.57,10.91-29.26,16.53c-16.24,9.43-33.09,17.72-49.61,26.61c-12.23,6.58-24.65,12.81-36.82,19.52
		c-11.89,6.56-24.34,12.12-36.53,18.14c-8.05,3.97-16.17,7.81-24.09,12.01c-12.41,6.58-25.59,11.21-38.75,15.93
		c-19.16,6.88-38.12,14.37-57.43,20.79c-11.26,3.74-22.98,6.21-34.61,8.68c-7.27,1.54-14.46,3.47-21.83,4.69
		c-3.99,0.66-8.02,0.34-12.04,1.46C62.59,943.55,57.45,943.4,53.76,943.77z"/>
	<path d="M393.34,202c-6.72,16.22-14.02,31.71-23.07,46.23c-10.15,16.3-22.04,31.44-35.09,45.47c-9.87,10.61-22.29,17.1-36.87,20.49
		c-35.85,8.33-72.38,11.82-108.66,17.17c-32.58,4.81-65.31,6.04-98.06,5.04c-19.67-0.6-39.46-2.81-58.38-8.93
		c-8.95-2.89-9.67-9.08-5.79-15.1c7.79-12.12,15.52-24.27,23.66-36.17c9.83-14.36,19.73-28.68,29.98-42.72
		c5.67-7.77,12.11-14.99,18.33-22.36c9.2-10.9,18.46-21.74,27.79-32.53c11.18-12.94,23.6-24.65,36.08-36.28
		c7.42-6.92,14.87-13.9,22.99-19.94c8.47-6.3,17.71-11.6,26.72-17.15c6.87-4.23,13.97-8.39,22.41-7.88
		c8.29,0.5,16.57,1.46,24.81,2.58c24.51,3.36,49,6.85,73.49,10.41c3.13,0.45,5.9-0.57,9.33-1.15c-4.82-7.42-7.29-15.44-8.19-24.07
		c-1.42-13.61-1.21-26.88,6.01-39.12c2.65-4.5,7.44-6.67,11.49-9.05c9.44-5.55,19.74-9.54,29.9-13.72
		c8.09-3.33,16.16-6.74,24.12-10.33c9.55-4.3,19-4.13,29-2.52c20.04,3.23,36.9,13.49,54.05,23.24c2.87,1.63,5.05,4.05,7.13,6.37
		c3.36,3.75,2.93,8.56-0.39,12.86c-5.16,6.67-12.28,10.95-18.91,15.92c-3.74,2.8-8.09,4.37-11.68,7.41
		c-3.36,2.84-8.04,3.96-10.95,7.53c12.3,15.38,23.37,31.56,27.26,51.69c11.67-4.89,23.35-9.91,35.66-12.74
		c9.69-2.23,19.86-4.5,28.82,3c4,3.35,5.76,7.47,6.43,12.65c1.92,14.92-3.97,27.26-11.55,39.39c-7.86,12.56-18.27,22.4-30.2,30.93
		c-7.71,5.52-15.12,11.47-22.61,17.29c-2.43,1.89-5.34,2.96-7.96,4.47c-8.96,5.14-16.91,13.1-28.79,11.1
		c-6.65-1.12-11.58-5.38-17.21-8.34c-11.81-6.22-22.98-13.48-33.14-22.16C398.43,208.52,396.23,205.3,393.34,202z"/>
	<path d="M838.36,389.29c-12.84-4.84-22.98-12.54-29.65-24.81c-3.73-6.87-3.84-13.61-1.23-20.53c5.6-14.88,12.13-29.36,19.18-43.61
		c1.78-3.61,4.4-6.41,7.46-8.69c14.75-10.95,31.83-15.89,49.72-18.32c6.85-0.93,10.67,2.58,10.49,9.26
		c-0.2,7.65-1.84,15.11-4.16,22.4c-0.29,0.91-0.75,1.82-0.8,2.75c-0.21,3.71-3.97,7.76-2.03,10.42c1.48,2.03,6.54,1.32,9.95,2.11
		c10.84,2.52,21.35,5.91,30.81,12.71c4.32-9.02,8.33-17.98,13.99-26.01c4.02-5.71,8.2-11.13,16.04-11.91
		c3.1-0.31,6.08,0.23,8.11,1.98c7.05,6.08,11.9,13.17,14.51,22.76c5.67,20.81,0.15,40.49-3.46,60.46
		c-1.05,5.8-2.95,11.49-4.94,17.06c-2.18,6.11-6.39,10.23-13.03,11.68c-11.61,2.54-23.07,5.67-35.07,6.2
		c-3.57,0.16-7.08-1.17-10.69,0.03c5.26,13.41,9.64,27.27,11.61,41.57c2.02,14.65,4.03,29.47,2.43,44.32
		c-1.13,10.51-6.13,19.62-12.35,27.98c-20.91,28.13-42.95,55.42-66.66,81.18c-19.44,21.13-40.7,40.64-66.3,54.52
		c-8.08,4.38-12.47,2.55-13.99-6.55c-2.69-16.08-5.23-32.17-7.57-48.31c-2.61-17.97-3.29-36.01-4.25-54.08
		c-0.72-13.52-1.02-27.02-0.57-40.54c0.77-23.15,3.92-45.88,11.29-67.98c3.08-9.24,10.92-13.41,17.81-18.43
		c16.27-11.86,32.97-23.13,49.51-34.6C836.43,393,837.42,391.06,838.36,389.29z"/>
	<path class="st0" d="M80.24,926.03c-7.26,2.35-14.9,2.57-22.35,3.86c-8.06,1.4-11.65-2.49-8.77-10.01
		c2.06-5.37,3.23-11.08,4.79-16.65c6.52-2.24,12.06-5.8,17.34-10.4c4.65-4.05,9.53-7.85,13.22-12.75c8.69-11.54,19.77-21,28-32.91
		c4.56-6.59,11.56-11.03,15.95-17.74c5.75-8.78,14.04-15.3,20.43-23.47c6.91-8.84,15.53-16.37,21.84-25.41
		c6.06-8.67,14.72-14.72,20.36-23.4c5.65-8.69,13.97-14.94,20.06-23.16c7.08-9.54,15.48-17.9,23.36-26.73
		c4.16-4.66,7.16-10.39,12.31-14.28c0.39-0.25,0.81-0.44,1.25-0.59c6.71-2.3,13.84-1.21,20.68-2.52
		c9.86-1.88,18.45-6.58,27.09-11.44c10.87-6.11,15.3-16.45,19.76-27.12c4.33-10.36,10.5-19.72,17.55-28.45
		c2.24-2.77,4.81-5.38,8.85-5.37c4.58,2.27,8.63,5.39,11.45,9.57c2.32,3.44,4.99,6.29,8.16,8.89c6.91,5.68,11.7,13.4,18.31,19.41
		c1.52,1.38,2.43,3.45,2.58,5.67c-2.3,4.7-6.82,7.17-10.53,10.44c-8.36,7.35-15.56,15.37-18.51,26.61
		c-3.83,14.62-9.42,28.54-16.5,41.98c-4,7.6-8.72,14.68-14.18,22.7c8.28,0.02,15.16,2.94,22.82,0.8c4.51-1.26,8.91-2.5,13.28-4.26
		c4.3-1.74,8.18-3.96,11.56-6.97c6.49-5.77,14.05-10.45,18.73-18.1c0.6-0.98,1.32-1.85,2.17-2.61c2.1-1.89,4.04-1.84,4.6,1.13
		c1.15,6.02,3.05,11.97,2.32,18.24c-0.52,1.52-0.47,3.19-1.21,4.66c-7.2,4.92-13.9,10.56-20.57,16.1
		c-7.45,6.2-15.13,12.09-22.72,18.06c-8.39,6.6-17.62,12.06-26.51,17.98c-10.24,6.81-20.35,13.82-30.72,20.42
		c-9.3,5.92-18.76,11.61-28.29,17.16c-11.48,6.68-22.8,13.64-34.33,20.2c-11.3,6.43-21.29,14.79-32.75,20.88
		c-0.58,0.31-1.18,0.61-1.77,0.89c-1.72,0.86-3.59,1.48-4.92,2.98c-6.56,3.41-13.4,6.13-20.5,8.21c-1.02,0.23-2.11,0.24-2.96,0.96
		c-1.79,2.15-4.91,0.99-6.86,2.76c-1.05,0.29-2.15,0.47-3.03,1.2c-2.56,0.91-5.12,1.81-7.68,2.72c-1.69,0.53-3.5,0.76-4.92,1.98
		c-16.63,5.8-33.15,11.91-50.77,14.3c-2.79,0.38-5.74,0.42-8.47,1.43C86.12,924.02,83.03,924.38,80.24,926.03z"/>
	<path class="st1" d="M248.2,693.14c-0.39,0.09-0.78,0.19-1.17,0.28c-5.52,3.03-11.16,0.81-16.67,0.08
		c-2.45-0.32-0.96-2.58-0.24-3.92c2.72-4.99,5.43-10.01,8.3-14.87c5.96-10.09,5.65-20.55,4.27-31.56
		c-1.37-11.01-4.19-21.68-6.22-32.53c-0.87-4.63-1.86-9.26,0.34-13.87c1.21-2.53,0.13-3.5-2.59-3.4
		c-12.87,0.49-26.96,8.14-28.87,23.3c-0.77,6.12-2.15,12.25-4.42,17.96c-2.37,5.99-5.21,12.18-12.4,13.98
		c-4.5,1.13-9.14,0.1-13.5-0.86c-11.02-2.42-19.78,1.72-27.56,8.75c-5.07,4.58-11.36,7.5-16.14,12.41c-0.32,0.33-0.92,0.2-1.36-0.06
		c2.39-5.03,4.11-10.4,7.6-14.87c0.92-0.69,2.74-1.08,0.9-2.69c0.5-2.81,1.75-5.31,3.22-7.71c2.85-2.11,3.87-5.64,6.28-8.09
		c0.42-0.49-0.93-0.25-0.35,0.05c0.18,0.09,0.11,0.22-0.11,0.46c-0.54,0.6-1.06,1.24-2,0.72c0.71-2.44,1.47-4.85,3.14-6.85
		c2.01-2.23,3.55-4.69,3.72-7.8c5.09-12.33,11.11-24.17,18.73-35.15c1.23-1.45,2.78-2.62,3.81-4.23c0.14-0.22,2.48-1.25-0.05-1.63
		c1.22-2.9,2.9-5.52,4.79-8.02c3.81-1.17,4.44-4.61,5.54-7.72c4.67-6.58,9.39-13.12,15.47-18.51c1.79-1.58,2.17-3.93,3.42-5.7
		c3.91-5.48,8.97-9.84,15.16-12.57c7.28-3.22,15.21-3.71,22.96-4.91c4.23,2.22,7.57,0.4,10.71-2.35
		c12.44-2.62,24.87-5.25,37.32-7.86c3.67-0.77,7.21-2.3,11.09-1.84c1.6-1.47,3.64-0.77,5.46-1.12c5.99-2.67,12.46-3.41,18.81-4.46
		c4.83-0.8,9.17-3.78,14.3-3.06c0.86,0.13,1.41-0.39,1.95-0.94c2.25-0.5,4.29-2.36,6.82-1.12c3.69,0.41,7.09-0.07,9.69-3.08
		c2.49-0.63,4.98-1.26,7.47-1.89c2.45-0.5,5.02-0.55,7.18-2.06c6.31-0.18,9.56-5.09,13.58-8.8c4.71-1.64,7.03-6.31,11.13-8.78
		c1.88-1.13,3.22-3.12,4.89-4.63c1.01-0.91-0.77-0.47-0.69-1.04c4.65-4.95,9.3-9.9,13.96-14.85c0.67,0.12,1.38,0.07,1.8-0.44
		c4.13-4.98,9.74-8.32,14.2-12.91c0.96-0.99-0.74-0.54-0.68-1.09c5.89-7.83,13-14.67,20.85-20.21c5.85-4.13,13.59-5.37,21.01-6.01
		c7.7-0.66,15.25-0.67,21.91,4.11c2.87,6.38,2.03,12.61-0.56,18.87c-5.63,13.58-12.26,26.72-22.97,36.9
		c-6.3,5.99-12.32,12.37-19.24,17.75c-4.86,3.78-8.61,8.83-13.69,12.42c-2.76,1.95-5.21,4.35-8.55,5.38
		c-3.78-1.47-6.85-4.13-10.24-6.24c-9.34-5.79-19.45-8.44-30.3-8.65c-0.4-0.09-0.8-0.25-1.24-0.18c0.24,0.54,0.86,0.29,1.23,0.59
		c7.48,4.43,16.43,5.87,23.33,11.31c3.67,2.9,8.48,4.57,10.67,9.21c-0.08,0.67-0.3,1.34-0.85,1.69
		c-7.16,4.57-11.8,11.98-18.85,16.66c-1.11,0.74-1.84,1.82-2.78,2.69c-7.8,7.21-15.01,15.08-23.78,21.2
		c-2.3,1.61-3.25,4.6-5.49,6.13c-7.65,5.2-12.58,13.43-20.62,18.18c-2.38,1.4-3.88,3.87-5.74,5.9c-3.69,4.05-8.05,7.26-13.15,9.39
		c-8.41-4.09-16.55-8.68-25.08-12.56c-11.94-5.43-23.92-10.62-36.65-13.87c-0.28,0.1-0.57-0.52-0.84,0.03
		c0.56,0.21,1.12,0.41,1.62,0.74c10.47,6.52,21.89,11.24,32.63,17.25c6.22,3.48,12.14,7.43,18.08,11.37
		c1.23,0.81,2.31,1.79,2.89,3.21c0.32,1.22-0.05,2.34-0.88,3.15c-4.42,4.36-7.58,9.75-11.57,14.39c-4.75,5.52-9.6,11.04-14.82,16.17
		c-9.61,9.45-16.91,20.92-26.73,30.23c-6.24,5.91-10.83,13.33-16.53,19.77C252.49,690.25,250.49,691.86,248.2,693.14z"/>
	<path class="st2" d="M429.7,509.8c6.16-3.94,11.69-8.61,17.09-13.55c6.38-5.84,12.13-12.44,18.86-17.74
		c8.03-6.32,13.04-14.4,18.33-22.8c4.26-6.75,7.48-13.76,10.25-21.09c1.43-3.8,2.59-7.73,0.42-11.71c-0.72-1.31-0.23-2.52,0.3-3.73
		c6.94,1.29,12.5,5.23,18.05,9.25c5.88,4.27,12.9,7.28,17.43,13.01c5.13,6.49,12.23,11.5,15.28,19.6c-0.09,1.79,0.76,3.44,0.73,5.22
		c-0.75,4.36-2.32,8.42-4.34,12.34c-0.86,1.85-2.46,3.24-3.15,5.19c-4.38,7.19-9.29,13.94-15.69,19.49
		c-1.63,1.48-3.16,3.04-4.27,4.96c-8.32,8.19-15.92,17.07-24.12,25.38c-1.9,1.8-3.84,3.58-5.17,5.89c-4.17,5.41-8,11.07-12.27,16.4
		c-0.67,1.3-3.15,1.33-2.47,3.58c-1.73,3.37-3.96,6.54-3.88,10.56c0.05,2.74-1.09,5.32-1.02,8.06c-0.64,4.24-1.58,8.42-2.77,12.54
		c-0.37,2.84-1.9,5.45-1.62,8.41c-0.14,3.93-1.49,7.6-2.36,11.38c-0.28,1.9-0.95,3.71-1.33,5.59c-0.37,3.99-0.72,7.99-2.11,11.81
		c-0.87,3.83-2.66,7.42-3.02,11.39c-0.25,3.84-1.73,7.37-2.81,11c-0.73,3.15-1.61,6.27-2.26,9.44c-0.79,3.4-1.39,6.84-2.39,10.18
		c-0.91,2.76-2.16,5.42-2.51,8.35c-0.46,3.41-2.02,6.43-3.43,9.5c-0.99,2.71-2.07,5.39-2.57,8.26c-1.65,3.74-2.51,7.78-4.24,11.49
		c-1.11,1.48-1.57,3.23-2.11,4.96c-1.57,3.09-1.65,7.17-5.74,8.57c-2.85-1.07-3.18-3.9-4.29-6.18
		c-7.94-16.36-17.15-31.97-27.59-46.86c-2.45-3.5-6.73-5.86-6.63-10.91c2.48-4.75,5.92-8.87,8.78-13.38
		c5.91-9.35,7.11-20.14,10.51-30.25c1.43-4.26,0.4-8.7,0.8-13.06c0.62-6.73,1.86-13.52,0.66-20.35c-0.54-3.1,0.39-6.14,0.98-9.74
		c-1.41,2.14-1.78,4.16-2.59,5.96c-6.11,13.54-14.6,25.23-26.98,33.72c-5.79,3.98-12.79,4.55-19.44,5.85
		c-2.34,0.46-4.83,0.47-7.24,0.85c-1.23,0.03-2.13-0.69-2.95-1.44c-5.76-5.3-12.13-9.81-18.52-14.29c-1.04-0.73-2.67-1.38-2.13-3.28
		c3.6-2.51,8.15-4.32,10.6-7.66c5.83-7.94,14.14-13.17,21.05-19.8c6.5-6.23,13.05-12.78,20.12-18.62
		c6.33-5.23,12.27-11.32,18.35-16.89c6.69-6.13,12.81-13.17,20.59-18.14c5.74,0.7,9.36,4.93,13.24,8.42
		c11.2,10.07,21,21.46,30.35,33.6c-0.76-9.55-6.64-16.33-11.75-23.29c-3.52-4.79-7.63-9.25-12.05-13.35
		c-2.74-2.54-5.29-5.17-8.77-6.83C431.86,514.09,429.38,512.92,429.7,509.8z"/>
	<path class="st3" d="M129.96,668.84c7.63-6.12,14.92-12.75,23-18.19c6.19-4.17,13.46-6.18,21.27-4.26
		c4.41,1.08,8.96,1.95,13.5,1.25c7.13-1.11,9.43-7.32,11.74-12.74c3.11-7.27,3.81-15.31,5.83-22.95
		c2.53-9.54,12.59-18.02,22.27-18.87c0.94-0.08,1.79-0.15,2.75-0.43c2.71-0.79,6.35-1.66,8.18-0.15c1.97,1.62-0.67,4.69-1.3,7.1
		c-1.69,6.46,0.63,12.57,2.11,18.5c3.13,12.59,4.54,25.38,5.95,38.18c0.75,6.83-2.75,12.83-5.67,18.71
		c-2.96,5.96-6.46,11.66-9.91,17.79c5.85-0.07,11.53,1.38,17.35,0.66c-7.58,7.87-13.44,17.16-21.21,24.96
		c-10.36,10.42-19.33,22.17-28.98,33.26c-6.46,7.42-13.78,14.2-19.5,22.13c-6.93,9.62-15.93,17.36-22.87,26.77
		c-4.36,5.9-9.48,10.97-14.16,16.5c-8.86,10.49-18.63,20.27-26.91,31.18c-6.31,8.31-14.03,15.19-20.5,23.24
		c-3.09,3.84-6.05,7.76-9.25,11.53c-5.73,6.75-12.94,11.64-19.72,17.03c-2.55,2.03-5.92,4.57-10.01,3.2
		c3.55-12.36,5.93-25.05,10.46-37.13c0.37-2.98,2.44-5.57,2.04-8.74c0.12-3.86,1.59-7.33,3.13-10.79c0.5-2.62,2.3-4.94,1.8-7.79
		c0.11-4.15,2.14-7.8,3.1-11.72c0.78-2.23,2.3-4.26,1.82-6.82c0.54-4.46,1.8-8.7,3.89-12.69c0.47-1.93,1.72-3.72,1.03-5.85
		c2.36-11.19,6.35-21.88,10.21-32.6c2.64-7.33,5.33-14.65,8.02-21.96c3.63-9.89,7.24-19.8,10.92-29.67
		c4.67-12.53,9.3-25.08,14.15-37.55C125.96,676.1,128.11,672.53,129.96,668.84z"/>
	<path class="st0" d="M525.09,541.92c1.12-3.66,3.34-6.58,6.22-8.99c8.33-6.97,12.67-17.4,21.13-24.24
		c2.36-0.49,1.41-2.72,2.13-4.07c1.27-1.31,2.55-2.62,3.82-3.92c1.58-0.47,1.4-2.58,2.91-3.12c-0.19-0.51-0.85-0.13-1.07-0.57
		c-0.1-4.36,3.94-5.8,6.46-7.28c5.3-3.13,10.07-6.66,13.96-11.34c5.19-6.23,9.63-12.93,12.49-20.61c1.7-4.56,4.37-8.19,9.17-10.27
		c2.04-0.88,3.38-3.37,5.03-5.13c5.98-2.07,12-4.02,18.08-5.8c4.91-1.43,9.94-2.06,14.91-0.84c8.3,2.02,10.33,8.99,11.04,16.08
		c0.82,8.14-1.09,16.13-3.11,24.02c-2.52,9.84-7.13,18.77-12.15,27.47c-3.24,5.61-7.3,10.73-10.92,16.12
		c-6.51,9.7-13.75,19-19.49,29.13c-5.7,10.05-9.29,21.11-6.98,33.13c0.44,2.28,1.16,4.34,2.6,6.21c1.31,1.7,2.16,3.65,1.15,5.88
		c-4.62,3.08-9.62,1.71-14.27,0.64c-14.35-3.28-28.89-5.54-43.25-8.67c-12.21-2.66-24.6-4.94-35.91-10.82
		c-2.69-1.4-4.31-3.43-6-5.63c0.84-3.28,5.08-4.27,5.34-7.94c2.44-5.57,6.77-9.62,11.04-13.72c3.64-0.86,4.99-4.61,7.15-5.68
		C526.71,541.86,526.11,542.77,525.09,541.92z"/>
	<path class="st0" d="M425.12,433.72c-0.37,1.98-2.18,1.02-3.24,1.61c-3.61,2.96-8.09,5.08-9.62,10.03
		c-5.96,2.69-8.12,9.76-14.26,12.35c-1.5,0.63-2.48,2.49-3.68,3.8c-6.18,6.76-9.59,6.36-15.16-0.67
		c-8.53-10.75-14.24-22.93-18.04-35.88c-2.61-8.9-4.62-18.1-4.49-27.54c1.02-2.63-0.73-5.97,2.1-8.13c1.85-0.62,3.49-0.14,5.05,0.91
		c10.55,7.06,19.29,5.18,27.24-0.92c7.7-5.9,14.99-12.35,23-17.84c13.02-8.93,26.9-16.21,41.93-21.13
		c8.75-2.87,17.56-5.79,26.84-6.27c4.97-0.25,9.98-0.16,14.96,1.1c5.6,1.41,9.6,4.55,12.31,9.45c2.7,4.89,6.24,9.5,5.82,15.58
		c-2.3,0.66-2.18,3.26-3.53,4.49c-1.97,1.79,1.65,0.52,0.61,1.44c-0.81,2.5-3.01,1.25-4.4,1.27c-2.15,0.04-4.2,0.22-6.24,0.8
		c-1.89,0.17-3.75,0.45-5.21,1.84c-8.26,4.74-12.06,13.22-17.31,20.51c-1.63,2.26-3.41,4.84-6.96,3.09
		c-5.43-0.89-10.46-0.09-14.83,3.5c-5.91,3.59-12.18,6.25-17.21,11.68c-3.21,3.47-6.8,7.3-11.13,9.89
		C427.08,429.38,425.61,431.1,425.12,433.72z"/>
	<path class="st3" d="M515.56,370.15c-1.86-7.26-4.97-13.86-10-19.5c-3.88-4.35-9.12-4.95-14.4-5.44
		c-14.21-1.33-27.12,3.9-40.23,8.08c-11.16,3.56-21.15,9.7-31.2,15.41c-7.59,4.31-13.95,10.78-20.94,16.19
		c-5.32,4.12-10.32,8.74-17.14,10.48c-6.47,1.65-12.27,0-17.48-3.64c-1.52-1.07-3.2-1.29-4.66-2.18c-1.44-0.57-1.81-1.59-1.26-3
		c0.9-3.64,3.44-6.19,6.16-8.43c2.86-2.35,3.74-5.91,6.02-8.62c7.37-8.77,16.49-15.74,24.64-23.7c4.55-4.44,8.75-9.48,13.84-13.22
		c7.87-5.78,13.57-13.83,21.57-19.34c6.97-4.8,14.65-8.09,23.03-9.31c9.2-1.34,18.49-3.44,27.68-3.16
		c14.34,0.43,28.72,0.64,43.05,2.54c8.99,1.2,17.71,2.78,26.25,5.71c4.71,1.62,6.21,3.76,3.91,7.7
		c-4.05,6.94-6.88,14.43-11.73,21.11c-5.96,8.21-12.94,15.68-18.24,24.41c-1.89,3.11-5.07,5.43-7.66,8.11
		C516.32,370.58,515.92,370.5,515.56,370.15z"/>
	<path class="st1" d="M476.55,555.62c4.02-5.67,7.65-11.62,12.58-16.6c1.55-2.05,3.68-3.61,5-5.86
		c7.88-8.67,15.39-17.69,24.28-25.39c1.33-1.64,2.94-3.04,4.04-4.87c5.85-5.98,11.15-12.4,15.61-19.49
		c0.72-1.79,3.24-2.48,3.02-4.86c1.6-4.22,3.19-8.44,4.79-12.66c-0.38-1.52-1.55-3.48,1.67-2.98c0.14,0.63,0.29,1.25,0.43,1.88
		c-1.51,5.56,1.43,10.53,2.05,15.81c0.23,1.97,1.3,1.85,2.66,1.62c0.35,0.33,0.51,0.73,0.52,1.2c0.59,2.36-1.18,3.86-2.06,5.68
		c-0.31,0.36-0.7,0.56-1.17,0.59c-4.95-0.91-7.6,2.01-6.7,7.39c0.38,0.53,0.73,1.08,0.99,1.67c0.11,0.45,0.01,0.84-0.31,1.17
		c-1.51,0.52-0.9,2.18-1.68,3.1c-0.41,0.22-0.84,0.3-1.3,0.28c-3.59-2.42-5.91-0.78-7.74,2.42c-0.71,1.24-0.79,2.78-1.81,3.87
		c-2.7,1.43-5.56,2.69-6.63,6.53c3.33-1.23,5.36-3.15,6.3-6.22c0.46-0.54,1.05-0.75,1.75-0.61c0.9,0.35,1.27,1.12,1.58,1.94
		c0.09,0.43,0,0.83-0.25,1.19c-2.35,2.32-3.98,5.35-6.91,7.11c-1.83,0.72-1.01,2.71-1.87,3.9c-0.84,0.7-1.67,1.4-2.51,2.1
		c-0.43,0.16-0.87,0.21-1.32,0.13c-0.81-0.71-0.19-3.18-2.28-2.2c-2,0.94-4.14,2.03-4.56,4.6c-0.18,1.13,0.6,2.16,0.68,3.29
		c-0.03,0.98-0.26,1.83-1.33,2.18c-2.57-0.9-4.78-0.68-6.84,1.46c-1.89,1.96-0.17,3.46,0.14,5.16c-0.25,1.25-1.12,1.96-2.18,2.49
		c-4.12-0.46-7.06,1.09-9,5.41c3.68-0.67,5.35-4.04,8.47-4.66c0.48,0.02,0.87,0.21,1.2,0.55c-1.71,1.95-3.41,3.91-5.12,5.86
		c-2.19,1.81-4.45,3.58-4.63,6.77l-0.31,0.18l-0.36,0c-0.4,0.22-0.82,0.27-1.27,0.15c-1.39-2.34-3.16-1.73-4.98-0.63
		c-2.66,1.61-2.54,3.87-1.48,6.35c0,1.01-0.5,1.74-1.29,2.31c-3.84,0.99-4.18,3.31-2.43,6.41c0.15,0.69,0.02,1.35-0.29,1.97
		c-3.18,1.79-2.72,3.91-0.57,6.19c0.41,1.36,0.23,2.76,0.27,4.15c-0.3,2.55-0.95,4.92-2.01,7.36c-1.81,4.18-2.26,8.75-0.71,13.26
		c0.26,0.37,0.43,0.78,0.51,1.22c-0.58,2.78,0.53,5.95-2.36,8.26c-0.65,0.52,1.1-0.01,1.51,0.52c-0.01,1.75,0.85,3.6-0.6,5.19
		c-1.46-0.57-0.73,1.42-1.68,1.45c-1.13,0.71-2.19,1.66-1.78,3.02c0.5,1.63,1.77-1.09,2.55,0.21c0,0.45-0.07,0.9-0.21,1.33
		c0,0.67,0.01,1.35,0.01,2.02c1.3,3.1-1.67,6.06-0.28,9.16c-0.85,4.21-1.69,8.43-2.54,12.64c-0.67,2.92-1.78,5.76-1.35,8.85
		c-0.31,0.67-0.62,1.34-0.93,2.01c-0.32,0.31-0.7,0.53-1.12,0.68c-3.58,2.61-4.26,6.69-1.48,8.92c0.22,0.4,0.39,0.81,0.5,1.25
		c-0.36,2.32-0.51,4.35-3.62,5.27c-3.06,0.9-5.08,9.4-3.48,12.3c0.38,1.29-0.11,2.3-1.03,3.16c-4.07,2.83-6.85,9.97-5.33,13.72
		c0.94,1.09,0.66,2.38,0.6,3.63c0.01,0.98-1.26,1.65-0.69,2.78c-0.8,1.23-0.28,2.98-1.61,4c-0.35,0.32-0.75,0.4-1.18,0.19
		c-0.62-0.52-1.18-1.98-2.07-0.38c-0.86,1.55-1.91,3.03-2.26,5.07c1.34,0.06,1.96-1.61,3.25-1.28c0.36,0.29,0.56,0.67,0.57,1.14
		c-0.71,2.98-2.31,5.71-2.54,8.83c-1.5,3.56-3.01,7.12-4.51,10.68c-1.64,2.81-3.08,5.48-6.84,6.47c-1.63,0.43-5.79,2.41-2.06,5.88
		c0.58,0.38,0.97,0.9,1.18,1.56c-0.03,0.31-0.14,0.59-0.34,0.83c-1.89,0.78-1.19,2.71-1.8,4.05l0.02,0.07
		c-5.69-1.56-6.96-1.06-10.7,4.26c-0.37,0.53-0.62,1.39-1.18,1.5c-6.33,1.21-9.71,7.23-15.54,9.38c-4.36,1.6-7.57,5.46-12.17,6.92
		c-1.8,0.57-1.44,2.27-0.51,3.66c0.55,1.24-0.14,2.06-0.94,2.85c-0.88,0.55-1.44,1.4-2.07,2.19c-1.95,1.06-3.9,2.13-5.85,3.19
		c-0.11-0.12-0.33-0.31-0.3-0.36c2.68-4.53,0.74-8.62-0.86-12.95c-1.26-3.4,2.41-7.82,7.44-9.74c0.35-1.98-1.9-1.91-2.5-3.12
		c-0.4-0.99,0.04-1.82,0.51-2.64c2.75-3.48,3.27-8.01,5.53-11.73c4.75-4.32,9.68-8.43,14.44-12.74c3.48-3.15,7.08-6.09,9.46-10.27
		c1.09-1.91,2.45-3.98,5.33-3.12c0.53,0.54,0.66,1.2,0.56,1.92c-2.4,4.15-2.4,4.15,2.3,5.35c0.4,0.03,0.79,0.06,1.18,0.05
		c0.63-0.3,0.79-0.92,1.09-1.47c2.68-4.87,2.63-4.99-2.88-6.2c-1.57-1.47-2.56-3.08-1.18-5.21c2.63-2.37,3.2-5.86,4.76-8.81
		c1.43-1.3,1.3-3.23,1.97-4.83c2.08-3.72,1.95-8.36,4.84-11.75c0.55-2.64,2.04-5.03,2.05-7.81c1.27-3.25,2.54-6.51,3.81-9.76
		c0.55-2.64,2.04-5.03,2.05-7.81c0.93-3.59,1-7.4,2.84-10.75c0.38-3,2.72-5.55,1.98-8.8c0.97-3.9,1.93-7.8,2.9-11.7
		c0.87-2.36,0.86-5.16,2.8-6.97c1.57-1.46-0.75-2.63,0.09-3.89c0.65-3.88,1.29-7.76,1.94-11.64c0.78-1.86,2.75-3.48,1.14-5.81
		c0.94-3.9,1.88-7.8,2.82-11.7c-0.51-2.73,2.53-4.96,1.1-7.82c0.94-4.24,1.88-8.48,2.82-12.72c0.75-2.87,2.34-5.64,1.08-8.76
		c0.14-4.22,2.21-7.6,4.75-10.76C475.09,557.52,475.98,556.67,476.55,555.62z"/>
	<path class="st3" d="M602.48,593.77c-0.54-4.7-4.77-7.73-5.19-12.74c-0.66-7.98-0.06-15.62,2.76-23.1
		c4.39-11.65,12.17-21.22,18.94-31.43c7.76-11.7,16.17-23.09,22.55-35.52c4.32-8.41,6.94-17.94,8.05-27.71
		c0.72-6.39,1.19-12.48-1.22-18.61c-2.19-5.57-6.48-8.21-12.7-8.2c-9.09,0.01-17.22,3.46-25.51,6.44c-1.03,0.37-2.31,1.89-2.84-0.53
		c6.11-3.46,10.36-9.13,15.81-13.44c5.06-4,10.52-7.16,15.7-10.82c7.94-5.61,16.72-9.1,25.92-11.75c2.99-0.86,10.23,3.22,12.4,6.2
		c4.75,6.52,6.61,13.79,6.43,21.74c-0.04,1.72,0.51,3.46,0.78,5.19c-0.55,1.62-0.59,3.23,0.03,4.84c-0.96,12.45-3,24.72-6.76,36.64
		c-2.07,6.58-2.08,14.02-7.67,19.21c-1.02,1.06-2.33,1.95-2.16,3.71c-0.58,5.3-4.6,8.88-6.7,13.45
		c-5.22,11.37-12.86,21.33-19.31,31.99c-4.1,6.77-9.14,13.08-14.43,19c-5.9,6.6-10.26,14.45-17.05,20.31
		C607.92,590.73,605.48,592.63,602.48,593.77z"/>
	<path class="st3" d="M393.63,764.58c-0.43,0.63-0.86,1.27-1.29,1.9c0.38,1.14,0.28,2.26-0.33,3.27c-4.9,8.09-9.07,16.65-15.4,23.8
		c-1.65,1.86-2.23,4.28-3.63,6.25c-1.39,1.74-3.3,3-4.61,4.83c-5.17,4.32-11.47,6.66-17.28,9.84c-8.53,4.67-17.18,9.13-25.82,13.59
		c-15.78,8.15-31.71,16.02-47.35,24.42c-11.61,6.23-23.22,12.43-35.16,18.01c-4.69,2.19-9.5,4.09-14.26,6.13
		c-3.75-0.03-6.49,2.44-9.65,3.88c-0.9,0.57-1.55,1.7-2.89,1.3c-2.93,1.25-5.86,2.5-8.84,3.63c-1.35,1.39-3.3,1.39-4.92,2.15
		c-0.6-0.64-2.48,0.04-1.91-1.83c7.99-4.91,15.34-10.87,23.34-15.62c10.79-6.41,21.51-12.96,32.4-19.21
		c12.14-6.96,24.09-14.27,36.05-21.54c11.05-6.71,21.47-14.38,32.36-21.3c8.9-5.65,17.46-11.82,26.52-17.26
		c5.82-3.5,10.54-8.79,16.09-12.82c6.23-4.52,11.78-9.85,18.12-14.28c3.68-2.56,6.58-6.31,11.06-7.87
		C396.41,759.09,395.19,761.89,393.63,764.58z"/>
	<path class="st4" d="M569.16,473.74c-4.86,4.52-4.54,4.38-7.22-1.95c-3.46-8.16-7.89-15.74-13.55-22.73
		c-6.28-7.75-12.35-15.53-20.02-22.06c-6.09-5.18-13.24-8.51-19.81-12.81c-5.78-3.79-12.53-5.66-19.12-8.6
		c1.3-1.46,2.53-2.85,3.76-4.24c1.13-2.03,3.1-2.12,5.08-2.15c6.73-0.1,13.09,1.46,19.44,3.68c9.53,3.33,17.65,8.57,24.47,15.96
		c0.55,0.59,1.18,1.11,1.88,1.54c13.5,8.34,21.04,21.12,26.32,35.53C572.6,461.96,571.25,467.91,569.16,473.74z"/>
	<path class="st5" d="M569.16,473.74c0.9-8.56,2.03-17.22-2.79-25.07c-6.16-10.04-11.05-21.12-22.55-26.8
		c-2.5-1.24-4.17-4.07-6.4-5.96c-11.25-9.53-23.97-15.4-38.99-15.45c-1.81-0.01-3.57,0.08-5.23,0.89
		c6.67-11.67,9.33-13.43,20.63-7.83c5.21,2.58,10.48,5.37,15.92,7.49c3.01,1.17,5.71,3.1,7.85,4.81
		c10.32,8.2,21.02,16.1,29.84,25.96c5.54,6.18,8.54,13.99,10.53,22.02c0.7,2.81,0.12,5.78-1.72,8.27c-1.43,1.72-2.18,3.55-0.94,5.7
		C574.35,470.87,572.63,473.21,569.16,473.74z"/>
	<path class="st1" d="M397.48,785.1c-3.49-0.93-4.37-3.51-0.98-4.6c5.93-1.9,9.73-7.49,16.03-8.38c2.13-0.3,2.09-3.05,3.42-3.67
		c5.58-2.61,10.35-6.17,14.59-10.59c2.73-2.85,5.11-1.6,7.13,1.1c-3.96,6.24-10.36,9.81-15.81,14.41c-1.24,0.21-2.28,0.73-2.93,1.88
		c-0.88,1.45-1.66,3.09-3.87,2.07c-1.01-0.39-1.77,0.4-2.67,0.57c-1.57,0.63-3.11,1.28-2.93,3.4c-1.9,1.25-3.4,3.38-6.13,2.82
		c-0.89-0.27-1.65,0.33-2.48,0.37C399.59,783.93,398.78,785.91,397.48,785.1z"/>
	<path class="st1" d="M371.94,799.6c1.13-5.46,5.6-8.87,8.56-13.11c4.47-6.42,8.02-13.27,11.85-20.01c0.93,0.27,1.86,0.52,2.79,0.81
		c1.05,0.33,2.47,0.47,2.14,2.06c-0.32,1.52-1.45,3.09-2.94,2.66c-2.82-0.82-2.79,1.42-4.1,2.61c-3.6,3.26-1.56,6.81,0.04,8.92
		c2.44,3.22,1.9,4.95-0.71,7.17c-0.53,0.45-0.59,1.44-0.87,2.19c-1.95,1.21-3.91,2.41-5.86,3.62c-2.98-0.83-4.07,1.81-5.86,3.17
		c-0.57,0.38-1.14,0.76-1.71,1.14c-1.16,0.51-2.23,0.51-3.1-0.58C372.09,800.04,372.02,799.82,371.94,799.6z"/>
	<path class="st1" d="M552.71,482.42c-1.18,0.28-0.49,2.49-2.11,2.17c-1.57-0.31-1.86-1.63-1.77-3.03c0.2-3.01-0.84-5.46-2.36-8.13
		c-1.53-2.69,0.37-5.84,1.5-8.64c3.16,3.71,3.92,8.46,5.57,12.82C552.66,479.11,553.83,480.97,552.71,482.42z"/>
	<path class="st1" d="M458.01,706.02c-1.93,0.09-3.65-0.68-2.7-2.71c1.56-3.34,2.61-6.83,3.89-10.25c0.6-1.61,2.18-1.73,3.7-1.68
		c2.11,0.12,0.53-3.54,3.06-2.99c0.01,2.84-1.09,5.36-2.22,7.88C460.43,698.69,461.34,703.6,458.01,706.02z"/>
	<path class="st1" d="M463.87,688.44c-0.72-0.3-1.73-0.39-2.12-0.93c-1.35-1.87,4.01-13.81,6.02-13.24
		c4.29,1.22,2.28-2.06,2.94-3.42c0.38-0.36,0.47-1,1.09-1.15c0.45,3.28-1.06,6.08-2.2,8.97
		C467.04,681.55,467.41,686.14,463.87,688.44z"/>
	<path class="st1" d="M480.46,604.47c-1.41,0.63-3.55,1.14-2.67-1.2c1.49-3.94,0.54-8.03,1.63-11.95c0.73-2.61,4.51-3.93,3-7.37
		c1.02-1.54,0.28-3.26,0.47-4.88c-0.03-0.45,0.1-0.83,0.39-1.17c0.43-0.2,0.8-0.14,1.12,0.21c-0.55,5.28-0.41,10.63-1.87,15.8
		C481.35,597.33,481.59,601.04,480.46,604.47z"/>
	<path class="st1" d="M438.48,752.88c-3.08,0.78-4.14-0.58-2.67-3.16c1.08-1.91,2.96-4.63,4.58-4.7c3.79-0.16,4.94-3.05,7.11-4.92
		c-0.77,1.99-1.53,3.98-2.3,5.96c-1.43,0.86-2.14,2.11-2.61,3.73C442.04,751.67,440.66,752.92,438.48,752.88z"/>
	<path class="st6" d="M401.9,470.59c0.97-0.38,1.94-0.77,3.77-1.5c-5.11,7.11-11.79,11.26-17.2,16.69c-0.74,0.75-1.46,0-1.91-0.75
		c0.86-0.91,1.73-1.82,2.59-2.72c1.78-1.33,3.25-2.95,4.38-4.87C396.96,475.94,399.32,473.13,401.9,470.59z"/>
	<path class="st6" d="M431.18,441.3c0.97-0.38,1.94-0.77,2.91-1.15c0.19,0.21,0.38,0.42,0.57,0.64c-1.62,1.64-3.18,3.36-4.88,4.92
		c-3.62,3.31-7.66,6.17-10.91,9.91c-0.85,0.98-1.93,1.99-3.01,0.13c0.86-0.91,1.73-1.82,2.59-2.72c1.77-1.34,3.26-2.94,4.37-4.88
		C426.5,446.95,428.46,443.66,431.18,441.3z"/>
	<path class="st1" d="M483.41,571.28c-2.17-1.02-2.26-2.91-1.76-4.81c0.66-2.47,2.86-1.94,4.68-2.03c1.49-0.44,2.02-3.03,4.22-1.88
		c-2.05,3.58-4.1,7.15-6.14,10.73C483.68,572.82,484.07,571.79,483.41,571.28z"/>
	<path class="st6" d="M505.84,543.94c-0.32,0-0.64,0-0.97,0c-0.6-0.65-0.56-1.3,0-1.95c0.93-0.37,1.58-1.02,1.95-1.96
		c1.56-3,3.67-5.44,6.84-6.83c0.79-0.42,0.96-1.15,0.98-1.95c1.64-2.71,3.02-5.71,6.84-5.87c0.46,0.05,0.93,0.1,1.39,0.15
		c-1.07,1.24-2.13,2.49-3.2,3.73c-1.27,1.64-2.79,3.07-4.06,4.71C512.91,537.83,509.15,540.66,505.84,543.94z"/>
	<path class="st7" d="M252.9,521.26c-1.03,2.87-10.19,6.38-12,4.45c-0.9-0.96,0.98-1.3,1.29-2.11c2.19-0.44,4.37-0.87,6.56-1.31
		c1.15-0.15,2.35-0.16,3.31-0.97C252.33,521.22,252.61,521.19,252.9,521.26z"/>
	<path class="st8" d="M458.02,407.1c0.11-1.6,0.92-2.86,2.41-3.24c3.65-0.93,7.35-1.7,11.05-2.41c1.92-0.37,1.47,1.07,1.37,2.15
		c0,0-0.03-0.03-0.03-0.03c-3.23,1.03-6.66,0.78-9.94,1.52C461.7,406.83,459.72,406.64,458.02,407.1z"/>
	<path class="st9" d="M412.26,445.36c-1.13-0.66-1.05-1.61-0.35-2.42c2.83-3.25,6.35-5.8,8.96-9.34c0.77-1.05,0.72,1.05,1.01,1.73
		C419.42,439.39,415.13,441.69,412.26,445.36z"/>
	<path class="st10" d="M358.33,497.78c-0.09,2.15-0.79,3.77-3.34,3.61c-2.74-0.17-4.84,1.65-7.25,2.57
		c-0.86-1.58,0.91-2.03,0.9-3.09c1.21-2.4,3.65-1.4,5.52-2.01c1.19-0.11,2.39-0.16,3.36-1
		C357.78,497.74,358.05,497.71,358.33,497.78z"/>
	<path class="st1" d="M480.33,614.27c-1.07,0.51-0.49,2.37-1.95,2.48c-0.95,0.07-1.43-0.75-1.63-1.53
		c-0.35-1.39-0.05-2.43,1.54-3.04c3.43-1.3,1.76-4.39,2.18-6.75c0.76-0.54,0.2-1.75,1.12-2.2
		C481.79,606.98,481.85,610.72,480.33,614.27z"/>
	<path class="st11" d="M463.87,688.44c1.7-3.38,2.53-7.27,5.73-9.76c-1.08,3.28-1.6,6.78-3.64,9.7c-1.42,0.77-1.04,2.52-1.92,3.57
		c-1.14,1.35-0.95-0.01-1.14-0.58C463.22,690.39,463.55,689.42,463.87,688.44z"/>
	<path class="st12" d="M145.5,636.7c1.92-0.35,1.58-2.65,3.39-3.89c-0.72,5.22-3.84,8.49-6.61,11.95c-0.2-0.4-0.4-0.8-0.6-1.2
		C142.95,641.28,144.23,638.99,145.5,636.7z"/>
	<path class="st13" d="M525.09,541.92c1.83-0.15,1.9-1.97,2.84-3.09c-0.21,4.45-5,9.36-8.51,8.82
		C521.31,545.74,523.2,543.83,525.09,541.92z"/>
	<path class="st14" d="M458.01,706.02c1.98-3.21,1.35-7.96,5.73-9.76c-1.22,3.23-2.43,6.47-3.65,9.7c-1.1,0.71,0.37,3.21-2.08,2.98
		C456.89,707.97,458.34,706.99,458.01,706.02z"/>
	<path class="st15" d="M185.17,565.3c0.69,0.16,2.24-0.14,1.99,0.15c-2.26,2.64-3.19,6.22-6.01,8.38c-0.53,0.41-1.17-0.22-1.51-0.81
		C182.21,570.97,182.36,567.18,185.17,565.3z"/>
	<path class="st14" d="M543.93,499.01c-0.32-0.32-0.65-0.64-0.97-0.97c0.92-3.98,3.29-6.85,6.84-8.79c0.32,0,0.65,0,0.97,0.01
		c0.54,0.62,0.61,1.23-0.04,1.82c-0.99,1.7-2.86,2.85-3.12,5C546.32,496.98,545.39,498.33,543.93,499.01z"/>
	<path class="st16" d="M508.38,561.36c1.22,0.21,2.55,0.43,0.99,1.96c-2.07,2.03-4.22,3.99-6.33,5.97
		C502.76,565.26,506.31,563.81,508.38,561.36z"/>
	<path class="st17" d="M490.55,562.57c-1.59,0.21-2.46,2.05-4.22,1.88c0.33-0.65,0.65-1.3,0.98-1.95c1.53-2.83,3.07-5.65,6.84-5.87
		c0.43,0.04,0.85,0.08,1.28,0.12C494.14,558.97,492.79,561.14,490.55,562.57z"/>
	<path class="st10" d="M174.85,581.04c1.11-0.78,2.21-1.56,3.32-2.34c-2.08,3.03-2.84,7.18-7.07,8.19
		C171.1,584.15,174.31,583.45,174.85,581.04z"/>
	<path class="st1" d="M376.98,799.7c0.23-3.9,4.42-3.83,6.12-6.34c1.01,1.3-0.51,2.13-0.27,3.17
		C381.16,798.09,379.19,799.12,376.98,799.7z"/>
	<path class="st18" d="M534.14,511.68c-0.78-0.41-0.92-1.14-0.94-1.92c1.83-3.17,3.66-6.33,7.81-6.84c0.42,0.03,0.84,0.07,1.26,0.1
		c-1.59,2.01-2.67,4.47-5.09,5.75C536.24,509.82,535.61,511.2,534.14,511.68z"/>
	<path class="st19" d="M152.36,622.05c0.56-0.08,1.74-0.39,1.59-0.09c-1.45,2.82-1.48,6.67-5.3,7.88
		C148.82,626.74,151.32,624.75,152.36,622.05z"/>
	<path class="st20" d="M218.85,880.5c2.66-2.69,5.47-4.98,9.65-3.88C225.25,877.84,222.51,880.3,218.85,880.5z"/>
	<path class="st17" d="M438.48,752.88c3.68-0.86,2.86-6.15,6.72-6.83c-1.9,2.58-1.56,6.7-5.41,7.95
		C439.35,753.63,438.92,753.26,438.48,752.88z"/>
	<path class="st21" d="M425.12,433.72c-0.45-0.13-0.9-0.26-1.35-0.4c1.28-2.43,2.1-5.43,5.91-4.65
		C428.33,430.5,427.13,432.48,425.12,433.72z"/>
	<path class="st22" d="M471.8,669.71c-0.36,0.38-0.73,0.76-1.09,1.15c-0.01-0.32-0.02-0.64-0.02-0.96c-2.04-3.8-0.17-6.81,1.98-9.76
		c0.28,0,0.57,0,0.85,0.01C474.37,663.58,472.12,666.47,471.8,669.71z"/>
	<path class="st23" d="M481.6,603.24c-0.37,0.73-0.75,1.47-1.12,2.2c0-0.32-0.01-0.64-0.01-0.96c-0.38-3.67,1-7.13,1.28-10.73
		c0-0.04,0.28-0.12,0.41-0.09c0.14,0.03,0.27,0.17,0.4,0.26C482.84,597.08,482.12,600.15,481.6,603.24z"/>
	<path class="st20" d="M207.12,885.43c2.42-2.5,5.54-3.28,8.84-3.63C213.6,884.43,210.58,885.46,207.12,885.43z"/>
	<path class="st0" d="M462.88,405.1c3.12-1.75,6.56-1.46,9.94-1.53C469.77,405.84,466.32,405.43,462.88,405.1z"/>
	<path class="st24" d="M358.25,386.54c0.42,1,0.84,2,1.26,3c-2.96,1.89-1.16,5.53-2.88,7.88
		C356.39,393.68,355.65,389.86,358.25,386.54z"/>
	<path class="st25" d="M194.46,890.35c0.33-2.85,2.69-3.12,4.77-3.74c0.65,0.67,0.62,1.37,0.07,2.08
		C197.9,889.86,196.28,890.38,194.46,890.35z"/>
	<path class="st26" d="M80.24,926.03c2.59-2.48,5.55-3.44,9.03-2.12C86.26,924.62,83.25,925.33,80.24,926.03z"/>
	<path class="st18" d="M409.47,781.3c-0.52-0.25-1.04-0.49-1.56-0.74c1.17-1.4,1.63-3.71,4.21-3.28c0.61,0.71,0.58,1.41-0.04,2.1
		C411.21,780.02,410.34,780.66,409.47,781.3z"/>
	<path class="st27" d="M71.34,838.79c1.91,3.18-0.46,5.36-1.8,7.79C68.96,843.71,70.49,841.33,71.34,838.79z"/>
	<path class="st28" d="M515.56,370.15c0.4,0.06,0.8,0.13,1.2,0.19c-2.64,1.01-2.41,3.92-3.81,5.75
		C511.27,374.14,512.22,371.97,515.56,370.15z"/>
	<path class="st14" d="M397.48,785.1c1.09,0.01,1.46-2.13,2.93-0.98c0.6,0.7,0.58,1.39-0.03,2.07c-0.88,0.65-1.75,1.3-2.63,1.95
		c-1.13,0.45-2.22,0.79-2.22-1.08C396.45,786.69,397.11,786.04,397.48,785.1z"/>
	<path class="st1" d="M452.02,729.42c-0.77-3.26,1.21-5.86,2.09-8.73c0.3-0.45,0.61-0.48,0.94-0.03
		C454.04,723.58,453.03,726.5,452.02,729.42z"/>
	<path class="st29" d="M66.42,857.37c1.83,3.5-1.03,5.9-2.04,8.74C64.29,863.02,65.13,860.14,66.42,857.37z"/>
	<path class="st30" d="M560.23,497c0.64-0.36,1.28-0.71,2.42-1.35c-0.86,2.59-1.47,4.68-4.25,5.04
		C558.39,499.15,558.59,497.72,560.23,497z"/>
	<path class="st31" d="M76.26,820.25c1.6,2.86,0.07,4.89-1.82,6.82C74.24,824.58,75.47,822.48,76.26,820.25z"/>
	<path class="st1" d="M474.45,658.13c-1.42-3.23-0.1-6.05,1.35-8.85C475.35,652.23,474.9,655.18,474.45,658.13z"/>
	<path class="st1" d="M496.09,556.56c-0.31-3.52,1.27-5.76,4.63-6.77C499.18,552.05,497.64,554.31,496.09,556.56z"/>
	<path class="st1" d="M368.38,804.63c-0.15-2.62,1.97-3.64,3.56-5.03c0,0,0.21,0.22,0.21,0.22c0.59,0.88,0.71,1.73-0.09,2.56
		C370.79,803.06,370.32,805.06,368.38,804.63z"/>
	<path class="st1" d="M478.34,636.65c-2.19-3.12,0.43-6.09,0.29-9.16C480.44,630.6,477.97,633.58,478.34,636.65z"/>
	<path class="st32" d="M412.08,779.39c0.01-0.7,0.03-1.4,0.04-2.1c1.18-0.23,1.64-1.89,3.06-1.53c0.09,0.02-0.08,1.02-0.12,1.56
		C414.24,778.26,413.91,779.9,412.08,779.39z"/>
	<path class="st33" d="M400.38,786.19c0.01-0.69,0.02-1.38,0.03-2.07c1.18-0.24,1.64-1.87,3.04-1.54c0.07,0.02-0.07,1.01-0.12,1.54
		C402.54,785.08,402.18,786.66,400.38,786.19z"/>
	<path class="st34" d="M372.99,493.84c-1.94,2.28-4.34,2.95-7.18,2.06C367.93,494.28,370.54,494.34,372.99,493.84z"/>
	<path class="st1" d="M550.73,491.09c0.01-0.61,0.02-1.21,0.04-1.82c0.04-2.17,2.55-3.51,1.97-5.89c0.35-0.43,0.69-0.4,1.02,0.03
		C553.85,486.41,552.16,488.7,550.73,491.09z"/>
	<path class="st1" d="M458.02,708.95c0.69-0.99,1.39-1.99,2.08-2.98c0.38,2.38-0.9,4.14-2.23,5.88
		C456.51,710.81,457.77,709.9,458.02,708.95z"/>
	<path class="st35" d="M138.46,651.28c0.63-0.36,1.26-0.72,2.24-1.28c-0.32,2.2-0.79,3.79-3.13,3.97
		C137.62,653,137.34,651.91,138.46,651.28z"/>
	<path class="st36" d="M575.31,467.76c-1.57-2.21-2.08-4.25,0.94-5.7C575.93,463.96,575.62,465.86,575.31,467.76z"/>
	<path class="st37" d="M497.11,380.01c1.15-2.27,2.85-2.97,5.21-1.84C500.59,378.78,498.85,379.39,497.11,380.01z"/>
	<path class="st1" d="M393.54,477.45c-0.3,2.66-1.97,4.1-4.38,4.87C390.62,480.69,392.08,479.07,393.54,477.45z"/>
	<path class="st1" d="M422.82,448.14c-0.29,2.67-1.96,4.1-4.37,4.87C419.91,451.39,421.37,449.77,422.82,448.14z"/>
	<path class="st38" d="M148.52,908.18c1.16-1.85,2.65-2.89,4.92-1.98C152.1,907.59,150.32,907.9,148.52,908.18z"/>
	<path class="st39" d="M306.77,510.45c-1.57,1.59-3.73,0.3-5.46,1.12C302.73,509.25,304.72,509.74,306.77,510.45z"/>
	<path class="st1" d="M515.62,533.97c0.41-2.38,2.17-3.6,4.06-4.71C519.09,531.49,517.59,532.93,515.62,533.97z"/>
	<path class="st40" d="M81.18,801.71c2.08,2.02-0.68,3.89-0.21,5.86c0.01,0.04-0.26,0.21-0.4,0.21c-0.14,0-0.28-0.14-0.43-0.22
		C79.83,805.49,80.24,803.55,81.18,801.71z"/>
	<path class="st41" d="M667.83,503.89c-1.41-2.48,0.46-3.04,2.16-3.71C670.4,502.08,669.15,503,667.83,503.89z"/>
	<path class="st42" d="M483.41,571.28c0.81,0.44,0.92,1.22,1,2.02c0,1.61,0.01,3.21,0.01,4.82c-0.34,0-0.68-0.01-1.01-0.01
		c-1.47-1.62-1.23-3.25-0.02-4.88C483.39,572.58,483.4,571.93,483.41,571.28z"/>
	<path class="st1" d="M547.53,462.91c-1.87,0.26-1.6,1.71-1.67,2.98c-1.29-1.57-1.33-3.18-0.16-4.83
		C546.31,461.67,546.92,462.29,547.53,462.91z"/>
	<path class="st1" d="M543.93,499.01c0.84-1.47,1.83-2.74,3.68-2.92c-0.81,1.68-1.88,3.11-3.67,3.84
		C543.94,499.62,543.93,499.32,543.93,499.01z"/>
	<path class="st43" d="M478.62,625.46c-0.04-0.48-0.08-0.97-0.12-1.45c-1.2-1.31-0.93-2.62,0.01-3.92c0.18-0.66,0.01-1.98,1.23-0.64
		C479.03,621.39,480.72,623.78,478.62,625.46z"/>
	<path class="st44" d="M553.75,483.41c-0.34-0.01-0.68-0.02-1.02-0.03c-0.01-0.32-0.02-0.64-0.03-0.95c0.26-1.61-0.58-3.4,0.83-4.81
		C553.61,479.55,553.68,481.48,553.75,483.41z"/>
	<path class="st1" d="M395.52,787.06c0.49,0.88,1.36,0.97,2.22,1.08c-0.33,2.02-2.29,0.73-3.2,1.57
		C394.57,788.72,394.44,787.67,395.52,787.06z"/>
	<path class="st1" d="M534.14,511.68c0.71-1.28,1.66-2.32,3.04-2.91c-0.26,1.83-1.44,2.89-3.01,3.65
		C534.17,512.18,534.16,511.93,534.14,511.68z"/>
	<path class="st45" d="M455.05,720.66c-0.31,0-0.63,0.02-0.94,0.03c-0.01-0.33-0.02-0.66-0.02-1c-1.11-1.68-0.32-2.86,1-3.91
		c0.39,0.02,0.78,0.04,1.17,0.06C455.85,717.45,455.45,719.05,455.05,720.66z"/>
	<path class="st20" d="M199.3,888.69c-0.02-0.69-0.05-1.39-0.07-2.08c0.35-0.28,0.71-0.57,1.06-0.85c0.64,0.61,1.27,1.22,1.91,1.83
		C201.24,887.98,200.59,889.17,199.3,888.69z"/>
	<path class="st1" d="M437.64,758.89c0.03-1.6-0.88-3.63,1.8-4.05C438.84,756.19,438.24,757.54,437.64,758.89z"/>
	<path class="st46" d="M554.58,504.61c-0.1,1.67,0.94,3.95-2.13,4.07C553.15,507.33,553.86,505.97,554.58,504.61z"/>
	<path class="st1" d="M525.39,523.43c0.2-1.5-0.68-3.53,1.87-3.9C526.53,520.78,526.7,522.46,525.39,523.43z"/>
	<path class="st1" d="M252.05,521.33c-0.63,1.92-1.87,1.78-3.31,0.97C249.86,522.03,250.7,520.79,252.05,521.33z"/>
	<path class="st47" d="M372.06,802.39c0.03-0.85,0.06-1.71,0.09-2.56c1.04,0.34,2.08,0.67,3.11,1.01
		C374.63,802.24,373.13,801.87,372.06,802.39z"/>
	<path class="st48" d="M341.82,501.99c-0.1,0.89-0.1,1.96-1.15,2.18c-0.74,0.16-0.7-0.71-0.8-1.24
		C340.26,502.08,340.85,501.65,341.82,501.99z"/>
	<path class="st1" d="M357.52,497.86c-0.64,1.96-1.9,1.8-3.36,1C355.28,498.52,356.17,497.41,357.52,497.86z"/>
	<path class="st49" d="M418.93,775.25c0.2-1.84,0.87-2.94,2.93-1.88C420.88,774,419.9,774.62,418.93,775.25z"/>
	<path class="st50" d="M171,899.51c0.77-1,1.42-2.37,2.96-0.96C173.26,899.73,172.31,900.18,171,899.51z"/>
	<path class="st51" d="M161.12,903.47c0.52-1.64,1.52-2.07,3.03-1.2C163.3,903.08,162.43,903.85,161.12,903.47z"/>
	<path class="st52" d="M684.42,444.33c-1.28-1.61-1.26-3.22-0.03-4.84C684.4,441.11,684.41,442.72,684.42,444.33z"/>
	<path class="st0" d="M135.78,326.22c-9.38,1.66-18.84,0.93-28.27,0.9c0.2-1.75,1.11-1.66,1.71-1.3c-4.21,0.67-9,0.39-13.78,0.01
		c-0.65,0.25,0.17,1.07-0.07,0.47c-0.1-0.26-0.02-0.41,0.26-0.41c1.11,0.01,2.56-0.94,3,1.04c-15.13,1.43-29.82-2.2-44.65-4.03
		c-4.75-0.58-9.47-1.59-14.15-2.62c-4.85-1.07-5.8-3.76-2.67-7.52c2.58-3.1,3.77-7.17,7-9.79c10.73-1.62,20.31-5.87,29.6-11.51
		c8.43-5.13,17.33-9.56,25.93-14.46c16.32-9.31,32.74-18.44,49.11-27.65c9.75-5.49,19.69-10.69,29.29-16.44
		c8.49-5.08,17.56-9.08,25.79-14.6c2.42-1.62,5-3.05,7.96-3.55c0.73-0.1,1.46-0.13,2.19-0.1c7.61,1.46,15.06,3.65,23.01,2.99
		c10.65-0.89,19.44-4.69,26.52-13.1c5.08-6.03,11.25-11.18,18.51-14.73c1.93-0.94,3.84-1.76,6.04-1.12
		c2.77,1.57,3.73,4.53,4.61,7.14c2.73,8.11,7.3,15.37,10.27,23.36c0.69,1.85,1.52,3.55,0.93,5.56c-0.47,2.33-2.46,2.74-4.27,3.5
		c-4.47,1.88-9.11,3.23-13.4,5.76c-6.51,3.84-9.76,10.34-14.26,15.8c-6.96,8.44-14.31,16.38-23.51,22.45
		c-4.16,2.75-4,3.12,0.29,5.43c8.09,4.36,16.59,4.73,25.09,2.19c6.02-1.8,12.17-3.62,17.37-7.49c1.18-0.88,2.61-1.84,4.04-1.14
		c1.84,0.91,1.23,2.85,1.01,4.38c-0.48,3.37-0.75,6.8-2.41,9.89c-1.12,1.49-1.62,3.56-3.81,4.04c-6.89,0.66-13.19,3.47-19.54,5.83
		c-16.37,6.08-33.44,9.5-50.3,13.7c-25.07,6.25-50.8,9.4-75.82,15.93c-0.79,0.21-1.61,0.17-2.42,0.24
		C139.9,325.58,137.77,325.44,135.78,326.22z"/>
	<path class="st1" d="M213.84,215.78c-0.64,0-1.27,0-1.91,0c-0.56-0.43-1.2-0.28-1.84-0.31c-3.56-0.14-7.22-1.43-8.57-4.44
		c-1.13-2.51,2.38-4.39,4.33-5.73c11.51-7.88,13.93-20.12,16.12-32.52c1.2-6.78,0.09-14.03,4.27-20.2c1.08-1.6-0.05-2.32-1.52-2.68
		c-6.7-1.64-16.36-0.85-21.08,7.94c-2.4,4.46-5.36,8.54-8.81,12.21c-4.91,5.23-9.2,6.2-15.15,2.36c-7.77-5.02-15.39-4.86-23.66-1.76
		c-2.99,1.12-6.08,3.53-9.69,1.54c4.3-6.78,10.87-11.43,16.29-17.16c11.16-11.8,23.14-22.76,36.58-31.91
		c9.39-6.39,18.76-13.03,29.68-16.72c5.9-1.99,11.7,0.53,17.47,1.32c28.97,3.97,57.84,8.58,87.02,11c4.85,0.4,8.79-0.57,12.88-2.5
		c15.74-7.43,31.48-14.83,47.23-22.23c11.59-5.45,26.2-3.34,34.21,4.92c1.94,3.25,1.06,6.37-0.93,9.06
		c-7.23,9.79-16.24,17.51-27.42,22.51c-8.71,3.89-17.4,7.85-26.51,10.76c-1.69,0.54-3.33,1.33-5.18,1.05
		c-1.51-0.42-2.43-1.56-3.23-2.78c-4.33-6.5-10.16-11.19-17.93-14.77c5.26,5.26,10.35,9.72,13.83,15.56
		c0.89,1.49,2.36,2.83,1.02,4.79c-3.62,2.9-8.2,3.89-12.32,5.56c-16.19,6.55-32.08,13.79-48.37,20.1c-4.36,1.69-8.5,3.95-13.19,4.71
		c-1.58-0.1-2.74-1.06-3.62-2.19c-7.7-9.83-17.25-17.74-26.72-25.73c-0.79-1.32-2.47-1.48-3.41-2.61c0.65,1.02,1.87,1.4,2.62,2.3
		c7.14,8.54,15.32,16.17,21.9,25.2c1.21,1.66,2.86,3.18,2.32,5.59c-4.07,3.81-9.1,6.28-13.93,8.69
		c-12.64,6.29-24.44,14.06-37.07,20.37C224.23,209.75,219.31,213.28,213.84,215.78z"/>
	<path class="st2" d="M367.24,141.68c10.18-3.04,19.73-7.67,29.57-11.55c11.09-4.37,19.17-11.94,27.04-20.18
		c2.95-3.08,4.38-6.73,3.86-11.04c8.9,7.96,16.15,17.01,19.96,28.59c1.08,3.29,3.7,6.08,2.63,9.93c0.29,3.92-1.7,6.85-4.38,9.29
		c-5.42,4.93-11.36,9.14-18.04,12.24c-7.22,3.35-14.13,7.32-21.35,10.66c-7.27,3.36-13.71,8.04-20.36,12.41
		c-1.93,1.27-3.51,2.83-4.72,4.83c-5.96,9.87-11.75,19.86-17.91,29.59c-11.73,18.52-23.64,36.98-38.52,53.25
		c-1.65,1.81-2.87,4.56-6.16,3.81c-1.29-1-1.45-2.41-1.57-3.9c-1.14-13.73-3.27-27.26-8.09-40.26c-0.52-1.41-0.79-2.8-0.24-4.26
		c2.4-2.91,5.81-4.59,8.67-6.97c7.89-6.57,12.71-15.1,16.72-24.22c2.21-5.03,4.37-10.1,6.37-15.72
		c-12.73,12.8-26.81,19.97-44.88,13.61c-2.28-4.49-5.09-8.66-7.85-12.86c-0.78-1.18-1.93-2.33-0.95-3.96
		c12.66-5.08,25.49-9.8,37.91-15.41c5.59-2.52,11.32-4.73,16.89-7.32c6.36-2.96,12.84-5.91,19.71-7.68c3.97,0.81,4.84,4.45,6.46,7.3
		c4.66,8.22,7.51,17.22,11.16,25.9c-0.05-11-4.14-20.74-9.65-30.02C368.37,145.84,366.38,144.3,367.24,141.68z"/>
	<path class="st3" d="M146.33,172.18c4.53-0.6,8.63-2.56,12.91-3.97c7.15-2.35,13.8-1.34,20.29,2.69c6.97,4.33,10.11,3.3,15.56-2.98
		c3.95-4.56,6.71-9.89,10.34-14.64c4.62-6.04,16.55-6.31,22.68-3.79c1.17,0.48,1.54,1.26,0.63,2.19
		c-6.09,6.26-3.87,14.62-5.67,21.96c-2.02,8.21-2.46,16.94-7.79,24.17c-3.78,5.12-9.56,8.04-13.64,13.16
		c3.43,1.6,6.87,3.2,10.31,4.8c-6.81,1.96-12.09,6.76-18.27,9.92c-14.76,7.54-28.92,16.22-43.45,24.21
		c-19.02,10.46-37.75,21.44-56.85,31.76c-10.16,5.49-19.81,12.02-30.26,16.85c-5.74,2.65-11.72,7.03-18.95,4.44
		c5.21-7.75,10.34-15.56,15.66-23.24c9.22-13.29,18.05-26.89,27.98-39.64c14.24-18.29,29.08-36.14,44.19-53.73
		C136.3,181.32,139.84,175.15,146.33,172.18z"/>
	<path class="st0" d="M455.93,232.67c-2.25,1.21-4.31-0.05-5.94-1.06c-13.65-8.48-27.91-16-40.93-25.48
		c-3.45-2.51-7.1-5.02-8.94-9.24c-0.6-1.36-0.96-2.39,0.51-3.3c3-1.87,5.93-3.86,9.01-5.6c14.37-8.12,29.1-15.65,42.4-25.52
		c2.45-1.82,5.14-2.26,7.91-3.03c7.22-2.03,13.72-5.52,18.56-11.43c3.87-4.73,9.24-6.51,14.76-8.11c5.64-0.79,11.29-1.01,16.87,0.34
		c8.25,2.01,11.73,7.72,8.85,15.79c-3.25,9.12-8.64,17.02-15.88,23.61c-10,9.1-21.75,15.89-32.13,24.48
		c-7.84,6.49-14.13,13.97-13.74,25.06C457.29,230.46,457.18,231.82,455.93,232.67z"/>
	<path class="st0" d="M452.19,74.45c-1.87,2.4-3.9,2.91-7.07,2.05c-5.27-1.42-10.18-0.5-14.92,3.1c-5.14,3.9-10.26,7.92-18.17,4.88
		c-4.77-1.83-10.52-0.05-15.81,2.32c-14.2,6.37-28.72,12.03-43.12,17.93c-3.35,1.37-4.55-0.87-5.63-3.45
		c-4.67-11.2-5.14-22.82-3.23-34.59c0.72-4.44,1.01-9,2.75-13.23c0.67-1.62,0.95-3.48,2.75-4.4c2.18,0.68,3.26,2.6,4.69,4.13
		c3.98,4.25,8.47,6.12,14.44,4.2c7.41-2.38,14.71-5.26,22.32-6.9c17.02-3.67,34.13-4.94,51.04,0.57
		C451.53,54.12,456.58,66.41,452.19,74.45z"/>
	<path class="st1" d="M319.26,273.42c7.49-6.09,12.88-14.03,18.68-21.56c14.23-18.47,26.45-38.3,37.85-58.57
		c5.29-9.41,13.05-15.35,21.83-20.27c12.27-6.87,25.22-12.54,37.42-19.52c6.44-3.68,12.88-8.15,15.24-16.07
		c4.03,9.57,2.43,14.82-5.53,21.32c-4.95,4.04-10.84,6.39-15.94,9.94c-9.43,6.57-19.85,11.47-29.96,16.43
		c-11.68,5.73-15.41,16.06-19.83,26.06c-6.56,14.84-14.17,29.07-23.04,42.52c-6.11,9.27-14.28,17.14-20.82,26.16
		c-4.21,5.81-9.17,10.93-14.18,15.76c-5.72,5.52-13.52,8.51-21.47,10.02c-12.22,2.31-24.52,4.24-36.79,6.33
		c-0.72-2.45,1.5-3.05,2.77-3.86c7.78-4.9,14.86-10.64,21.38-17.1c0.9-0.89,1.87-1.79,3.22-2.01c0.94-1.25,1.89-2.5,2.83-3.75
		c6.95-2.03,13.75-4.43,20-8.19c1.25-0.75,2.52-1.51,4.09-1.04c1.58,0.83,1.33,2.62,1.84,3.99
		C318.38,277.74,317.6,275.54,319.26,273.42z"/>
	<path class="st3" d="M452.19,74.45c0.05-7.23,0.97-14.77-5.84-19.92c-3.82-2.89-8.48-3.86-13.06-4.61
		c-13.15-2.17-26.3-1.5-39.29,1.1c-6.02,1.21-11.94,3.16-17.74,5.25c-11.93,4.31-17.54,6.34-26.55-7.2
		c7.33-5.44,14.9-10.22,23.57-13.59c6.54-2.55,12.92-5.91,19.5-8.38c9.36-3.51,17.78-9.58,28.73-9.13
		c11.98,0.49,23.07,3.75,33.88,8.15c9.3,3.78,18.68,7.57,27.09,13.23c0.94,0.63,1.84,1.33,2.73,2.03c5.58,4.4,5.52,5.83,0.38,10.7
		c-6.69,6.35-14.5,11.04-22.22,15.97C459.74,70.38,456.2,72.8,452.19,74.45z"/>
	<path class="st3" d="M455.93,232.67c-1.46-16.92,9.23-26.13,21.4-34.93c12.79-9.25,26.63-17.49,35.39-31.34
		c1.54-2.44,2.87-5.04,4.09-7.66c4.71-10.13,0.43-17.3-10.71-18.05c-4.27-0.29-8.55-0.53-12.82-0.79
		c8.83-4.14,17.88-7.55,27.62-9.03c4.46-0.68,8.79-1.42,13.37-0.92c6.81,0.73,11.81,6.38,10.53,13.06
		c-3.87,20.25-13.68,37.15-29.2,50.75c-7.54,6.61-15.09,13.21-23.32,18.97c-10.88,7.62-21.57,15.58-34.25,20.15
		C457.26,233.14,456.54,233.62,455.93,232.67z"/>
	<path class="st3" d="M290.1,289.01c-6.16,7.02-13.03,13.18-21.14,17.94c-2.28,1.34-4.17,3.34-6.23,5.03
		c-11.34,2.56-22.94,3.37-34.4,5.14c-12.57,1.94-25.2,3.54-37.82,5.2c-10.66,1.4-21.28,3.21-32.09,2.98
		c-1.55,1.06-3.51-0.48-5.03,0.8c-3.62,0.15-7.25,0.31-10.87,0.46c-0.43-0.65-1.32-1.14-0.76-2.14
		c19.99-5.37,40.48-8.31,60.68-12.64c16.59-3.56,33.03-7.81,49.5-11.87c11.67-2.87,22.8-7.46,34.17-11.27
		C287.48,288.17,288.89,287.57,290.1,289.01z"/>
	<path class="st4" d="M463.11,151.13c-3.77,0.99-5.55,1.15-4.74-4.27c0.67-4.49-1.19-9.5-2.49-14.12
		c-3.61-12.83-9.33-24.57-18.89-34.14c-1.82-1.82-3.44-4.01-5.59-5.28c-4.33-2.55-2.62-4.33,0.29-6.3
		c9.21,1.59,16.09,6.81,21.27,14.26c5.46,7.84,10.92,15.7,13.37,25.23C468.57,135.23,468.79,143.52,463.11,151.13z"/>
	<path class="st5" d="M463.11,151.13c0.13-0.94-0.02-2.04,0.43-2.8c5.08-8.75,2.87-17.22-0.25-26
		c-3.63-10.24-9.54-18.82-16.93-26.55c-3.22-3.37-7.22-5.41-11.58-6.8c-1.25-0.4-2.57-0.51-3.1-1.96c1.59-0.82,3.3-1.46,4.74-2.49
		c2.22-1.58,4.23-1.27,6.18,0.27c6.32,4.99,12.1,10.54,16.28,17.5c3.8,6.34,7.91,12.51,10.8,19.38c3.74,8.92,5.43,17.53-1.63,25.83
		C466.59,149.21,464.83,150.03,463.11,151.13z"/>
	<path class="st8" d="M98.62,326.93c-0.92-1.28-2.76-0.19-4.12-1.57c5.51,0,10.6,0,16.18,0c-1.28,0.71-2.22,1.24-3.17,1.76
		C104.54,327.31,101.57,327.78,98.62,326.93z"/>
	<path class="st53" d="M141.75,324.41c0.25,0.71,0.51,1.43,0.76,2.14c-2.25,0.11-4.53,0.66-6.73-0.33
		C137.51,324.75,139.53,324.23,141.75,324.41z"/>
	<path class="st53" d="M153.39,326.09c1.31-2.6,3.37-0.43,5.03-0.8C156.87,326.39,155.06,325.78,153.39,326.09z"/>
	<path class="st0" d="M835.71,613.19c-14.5,15.02-29.85,29.03-47.58,40.21c-2.86,1.81-5.62,3.82-8.63,5.34
		c-2.48,1.26-4.79,1.14-5.14-2.57c-0.27-2.9-0.72-5.78-1.08-8.67c10.43-16.29,13.73-35.24,19.96-53.11
		c6.26-17.94,11.78-36.12,17.67-54.18c2.76-8.48,6.03-16.83,7.81-25.63c0.3-1.06,1.07-1.7,1.98-2.21
		c5.79-3.25,11.52-6.47,16.01-11.64c4.86-5.6,6.74-12.02,6.69-19.21c-0.04-5.54,0.48-11,2.28-16.28c0.69-2.01,1.36-4.05,3.73-4.75
		c1.79-0.06,3.52,0.04,4.29,2.08c-0.46,0.72-1.14,1.12-1.78,0.45c-0.17-0.18-0.85-0.35-0.52-0.28c1.8,1.43,3-0.41,4.37-0.31
		c5.87,2.07,11.54,4.62,17.11,7.38c1.43,0.71,2.88,1.42,3.55,3.04c0.41,1.92-0.54,3.54-1.42,5.03c-4.42,7.52-5.2,15.48-3.53,23.92
		c1.57,7.93,0.02,15.79-0.93,23.65c-0.15,1.23-1.18,2.68,0.1,3.61c1.12,0.81,2.53,0.02,3.7-0.47c5.39-2.26,9.69-5.89,12.71-10.87
		c2.52-4.16,4.55-8.57,6.16-13.18c1.16-3.32,2.36-3.51,4.52-0.73c1.69,2.19,2.78,4.75,3.85,7.29c0.57,1.68,1.07,3.36,0.24,5.1
		c-2.16-0.48-2.33,1.2-3.04,2.58c-6.12,11.99-13.16,23.42-20.56,34.68c-11.94,18.16-25.69,35.03-37.48,53.28
		C839.23,609.07,836.55,610.4,835.71,613.19z"/>
	<path class="st1" d="M821.32,513.45c-0.69,0.32-1.38,0.64-2.07,0.96c-1.17,2.89-3.79,3.17-6.07,2.49c-2.42-0.72-1.8-3.25-1.33-5.07
		c2.48-9.64-1.84-17.43-6.66-25.08c-2.85-4.52-6.57-8.5-8.45-13.62c-0.75-2.03-1.99-1.18-3.07-0.46c-4.04,2.68-6.57,6.21-6.29,11.33
		c0.24,4.22,1,8.39,1.27,12.6c0.34,5.48-1.65,9.18-6.87,10.25c-7.75,1.58-12.03,6.45-15.09,13.15c-0.81,1.78-1.27,4.15-3.94,4.37
		c-0.01-20.57,0.69-41.08,5.68-61.17c1.2-4.85,2.92-9.58,4.49-14.34c1.22-3.7,3.93-6.24,7.06-8.31
		c20.68-13.62,40.94-27.83,60.55-42.97c0.91-0.7,1.72-1.42,2.17-2.55c4.87-12.14,10.03-24.16,14.58-36.42
		c3.07-8.29,8.07-14.28,16.44-17.29c2.3-0.83,4.65-1.45,7.08-0.41c2.7,1.06,3,3.58,3.56,5.92c1.46,6.17,0.68,12.41-1.12,18.2
		c-3.26,10.45-7.51,20.58-13.75,29.72c-3.04,1.47-6.05-0.14-9.08-0.15c-3.75,0-7.43,0.73-10.96,0.9c1.67,0.37,4.1-1.03,5.28,1.63
		c-0.7,1.16-1.67,0.82-2.46,0.58c1.31,0.77,2.38,0.14,3.3-1.09c4.22-1.48,7.96-0.77,11.16,2.43c0.48,4.38-2.39,7.68-4,11.26
		c-5.72,12.73-11.5,25.45-17.4,38.11c-1.16,2.48-2.3,5.12-5.48,5.73c-9.27,0.01-18.55-1.27-27.82-0.1
		c-0.74,0.02-1.48,0.02-2.16,0.02c0.07,0,0.18,0.02,0.24,0.01c0.8,0,1.54,0,2.3-0.02c8.42,0.18,16.81,0.51,24.93,3.03
		c2.64,1.44,2.1,3.61,1.49,5.93c-2.81,10.68-6.84,20.96-10.2,31.46c-1.33,4.16-3.1,8.18-4,12.49
		C824.11,509.44,822.86,511.52,821.32,513.45z"/>
	<path class="st2" d="M839.68,453.27c2.99-0.98,3.79-3.72,4.92-6.18c5.56-12.15,11.1-24.3,16.63-36.46
		c1.73-3.8,3.39-7.62,5.08-11.44c2.5-1.7,4.97-0.75,7.4,0.16c6.36,2.39,12.72,4.78,18.4,8.56c0.39,0.2,0.7,0.63,1.24,0.57
		c-0.26-0.42-0.65-0.71-1.03-1.05c-5.79-4.77-12.13-8.44-19.46-10.28c-1.52-0.38-3.17-0.8-3.79-2.61
		c3.63-7.72,7.73-15.25,10.76-23.19c3.76-9.89,6.29-20.12,0.95-30.43c7.71-0.9,15.06,0.69,21.96,3.88
		c3.65,1.69,8.22,2.31,10.19,6.67c2.7,4.46,1.58,9.15,0.47,13.65c-1.94,7.88-4.69,15.57-8.08,22.91
		c-6.56,14.23-5.63,28.44-2.03,43.2c4.38,17.96,7.25,36.23,7.33,54.82c0.01,1.32-0.02,2.6-0.76,3.74c-1.27,1.5-2.54,0.93-3.82-0.01
		c-8.2-6.05-15.7-13.09-25.12-17.39c-1.18-0.54-2.1-1.53-2.52-2.85c3.67-14.15-0.21-27.27-5.57-39.78
		c-0.91,12.29-4.91,23.11-17.62,28.67c-4.09-0.54-7.97-2-12.07-2.56C841.69,455.72,839.95,455.32,839.68,453.27z"/>
	<path class="st3" d="M762.74,524.38c1.34-2.4,2.83-4.74,3.98-7.22c2.84-6.14,7.32-9.99,14.06-11.39c5.53-1.15,7.05-3.69,6.59-9.23
		c-0.31-3.71-0.74-7.38-1.31-11.07c-1.12-7.38,2.4-12.23,11.23-16.02c0.56,6.68,5.31,11.04,8.74,16.16
		c6.19,9.25,10.46,19.01,5.9,30.86c3.2-0.48,5.35-0.88,7.31-2.06c0.65,6.14-2.44,11.39-4.12,16.95
		c-3.77,12.49-7.45,25.04-11.84,37.32c-2.56,7.15-4.66,14.43-7.09,21.61c-4.3,12.67-7.94,25.55-12.21,38.23
		c-2.34,6.94-4.55,14.12-10.71,18.99c-1.21-8.1-2.36-16.2-3.64-24.28c-1.39-8.74-2.27-17.55-3.75-26.29
		c-1.29-7.55-1.48-15.3-1.87-22.98c-0.75-14.63-1.24-29.27-2.03-43.9C761.86,528.02,762.36,526.25,762.74,524.38z"/>
	<path class="st0" d="M963.69,399.4c-0.84,1.61-2.46,2.2-4,2.52c-12.46,2.6-24.82,5.76-37.51,7.14c-0.97,0.1-1.95,0.09-2.92,0.1
		c-5.34,0.05-6.42-0.92-5.1-5.91c2.01-7.62,4.53-15.09,6.76-22.65c1.2-4.09,2.66-8.09,3.44-12.34c0.77-4.21,1.58-8.5,4.46-12.11
		c3.61-4.53,3.95-10.24,4.09-15.68c0.14-5.28,2.83-9.23,5.28-13.43c1.74-0.94,2.86-2.59,4.42-3.76c8.79-6.59,16-3.78,18.55,6.94
		c2.55,10.71,1.48,21.19-0.86,31.72c-1.37,6.16-2.86,12.29-3.01,18.67c-0.15,6.22,1.03,11.91,5.46,16.59
		C963.3,397.8,963.59,398.57,963.69,399.4z"/>
	<path class="st0" d="M881.52,313.48c-0.32,3-1.34,5.29-4.41,6.74c-5.68,2.68-5.41,8.82-6.91,13.74c-0.61,1.99-0.9,3.46-2.9,4.45
		c-6.62,3.27-10.02,9.23-12.86,15.67c-3.85,8.7-7.88,17.32-11.7,26.03c-1.56,3.57-3.35,3.66-6.77,2
		c-11.12-5.41-17.31-15.14-23.3-25.17c-1.05-1.77-1.65-3.52-0.35-5.42c9.51,1.62,11.89,0.48,16.4-8.01
		c6.7-12.61,14.87-23.97,26.73-32.3c1.06-0.75,2.11-1.52,3.25-2.14C868.26,303.82,871.5,303.37,881.52,313.48z"/>
	<path class="st1" d="M908.9,490.54c0.9-9.19,0.01-18.32-1.21-27.4c-2.23-16.63-6.05-32.98-9.13-49.46
		c-1.37-7.32,1.46-14.36,3.81-21.25c3.24-9.48,7.42-18.61,9.92-28.36c1.08-4.21,0.54-8.38,0.64-12.57c5.43,1.96,8.08,6.51,7.05,11.9
		c-2.08,10.98-5.37,21.67-9.81,31.81c-4.84,11.05-4.11,21.52,0.05,32.21c7.3,18.75,10.06,38.3,10.77,58.28
		c0.23,6.38,0.89,12.7-0.28,19.06c-1.24,6.72-4.62,12.28-8.72,17.54c-4.85,6.24-9.65,12.52-14.48,18.78
		c-0.49-0.47-0.88-1.06-0.77-1.71c1.35-7.62,2.02-15.37,4.34-22.8c0.42-1.73-0.07-3.36-0.51-5c1.84-5.47,5.24-10.27,6.91-15.82
		c0.24-0.8,1.01-1.2,1.81-1.44c0.48-0.24,1.23,0.2,1.46-0.42c0.07-0.19-0.63-0.64-0.95-1C909.24,492.21,908.78,491.48,908.9,490.54z
		"/>
	<path class="st3" d="M881.52,313.48c-1.65-0.04-2.46-1.42-3.61-2.27c-8.13-5.92-12.24-5.91-20.45-0.06
		c-12.06,8.59-21.03,19.75-27.48,32.99c-3.52,7.23-7.27,9.92-13.59,9.49c-1.7-0.12-3.23-0.39-4.06-2.11
		c0.67-8.17,4.45-15.34,7.44-22.74c2.66-6.56,5.86-12.89,8.61-19.41c3.48-8.25,10.04-13.23,17.63-17.22
		c11.22-5.9,23.12-9.92,35.52-12.4c5.66-1.13,6.93,0.19,6.42,6.05C887.11,295.32,884.38,304.42,881.52,313.48z"/>
	<path class="st3" d="M963.69,399.4c-8.97-6.2-8.61-15.51-7.34-24.5c1.42-10.03,4.84-19.86,5.04-30c0.15-7.36,0.09-15.17-5.28-21.53
		c-2.54-3.02-4.99-3.32-8.52-1.9c-3.48,1.4-5.16,5.64-9.41,5.56c4.04-10.07,9.1-19.39,18.73-25.33c1.55,1.09,3.22,0.54,4.86,0.36
		c6.83,3.97,9.44,10.78,11.59,17.73c6.94,22.47,1.39,44.25-4.17,65.95C967.98,390.5,967.39,395.61,963.69,399.4z"/>
	<path class="st54" d="M901.09,516.58c0.49,8.41-2.31,16.35-3.57,24.51c-11.96,14.73-23.9,29.48-35.89,44.18
		c-8.04,9.86-16.46,19.38-25.92,27.93c2.37-6.2,6.66-11.24,10.43-16.53c12.19-17.12,24.69-34,36.21-51.6
		c5.93-9.06,10.88-18.61,15.94-28.13C899.39,514.85,899.92,514.98,901.09,516.58z"/>
	<path class="st4" d="M926.53,349.53c-1.16,3.24-2.15,4.74-5.75,1.61c-11.23-9.74-24.06-15.82-39.42-15.35
		c-2.27,0.07-6.46,1.42-5.34-3.83c5.14-3.92,11.12-4.58,17.12-3.51c8.73,1.56,17.21,3.61,24.71,9.25
		C922.22,340.99,924.08,345.28,926.53,349.53z"/>
	<path class="st55" d="M926.53,349.53c-1.5,0.99-2.19-0.12-2.39-1.22c-1.53-8.45-8.93-11.51-15.09-14.4
		c-6.48-3.03-13.92-4.73-21.44-4.73c-4.13,0-7.58,2.48-11.59,2.77c0.8-5.13,3.7-6.95,8.94-6.95c9.56,0.01,18.44,2.52,27.2,5.9
		c3.41,1.31,6.68,2.52,9.57,5.22C925.84,339.98,927.3,344.21,926.53,349.53z"/>
	<path class="st56" d="M961.77,302.07c-1.7,0.97-3.35,1.27-4.86-0.36C958.56,301.42,960.19,301.51,961.77,302.07z"/>
	<path class="st2" d="M427.6,726.53c-1.91-0.06-3.07,1.3-3.87,2.61c-5.59,9.17-14.08,15.27-22.45,21.52
		c-0.75,0.56-1.24,1.47-1.85,2.22c-0.48,0.66-1.09,1.49-1.9,0.83c-0.85-0.68-0.63-1.74-0.09-2.65c0.14-6.84-1.88-13.33-2.96-20.09
		c-3.76,1.06-4,4.7-5.98,6.84c-5.49,5.93-11.86,10.87-18.15,15.96c-4,3.24-8.3,5.22-12.76,7.33c-7.66,3.63-15.62,5.29-24.07,4.26
		c-3.18-0.39-6.33-1.11-9.52-1.27c-2.89-0.15-2.71-0.79-1.57-3.15c2.27-4.69,6.3-8.01,8.81-12.55c8.97-16.22,16.84-32.9,21.1-50.97
		c1.7-7.21,5.9-12.69,10.02-18.24c4.72-6.35,11.3-10.88,17.55-15.66c0.88-0.67,1.49-1.69,2.22-2.55c4.21,1.04,5.97,4.93,8.19,7.86
		c7.92,10.46,16.23,20.68,22.72,32.16c4.47,7.92,9.59,15.45,14.13,23.33C427.57,725.01,428.12,725.66,427.6,726.53z"/>
	<path class="st2" d="M248.2,693.14c1.93-3.38,5.13-5.64,7.56-8.63c8.33-10.28,17.59-19.81,26.11-29.87
		c9.82-11.61,20.69-22.26,30.12-34.08c4.13-5.17,9.19-9.85,12.24-15.92c0.94-1.16,2.26-0.89,3.03-0.21
		c4.55,4.05,10.17,6.78,14.14,11.53c0.42,0.5,0.56,1.15,0.47,1.82c-6.04,2.93-9.55,8.1-13.34,13.46
		c-4.57,6.46-8.89,13.09-11.58,20.36c-2.76,7.47-7.37,13.79-10.75,20.82c-0.85,1.78-3.09,2.11-4.47,3.2
		c-8.34,6.51-17.77,10.66-27.57,14.32c-2.86,1.07-5.89,1.44-8.54,1.6C259.78,691.87,254,692.57,248.2,693.14z"/>
	<path d="M341.87,617.77c-5.32-5.13-10.97-9.82-17.64-13.14c-6.06-5.46-13.31-9.14-20.31-13.12c-9.55-5.43-19.36-10.39-29.02-15.62
		c-1.48-0.8-3.6-0.57-4.39-2.56c-0.49-0.74-0.56-1.48-0.03-2.24c16.69,3.69,31.8,11.42,47.24,18.35c5.1,2.29,9.75,5.27,14.46,8.19
		c6.42,5.77,14.29,9.66,20.4,15.83c0.9,0.91,1.76,1.85,2.64,2.78c6.77,4.91,11.79,11.59,17.07,17.88
		c5.8,6.9,11.87,13.62,17.15,20.96c0.57,0.79,1.28,1.48,1.15,2.57c5.61,8.56,12.79,15.95,17.54,25.21
		c5.98,11.65,14.37,22,18.69,34.57c0.41,1.18,1.32,2.18,2,3.27c-0.05,1.86,0.76,3.41,1.72,4.92c3.28,3.72,3.55,5.71,1.16,8.55
		l0.08,0.08c-1.85-1.58-3.35-3.38-3.69-5.91c-0.16-0.6-0.33-1.2-0.49-1.8c-4.18-6.5-8.61-12.86-12.48-19.54
		c-6.87-11.84-14.47-23.11-23.13-33.74c-3.31-4.06-6.53-8.22-9.86-12.29c-4.63-7.6-11.03-13.82-17.33-19.82
		C356.87,633.6,350.8,624.28,341.87,617.77z"/>
	<path class="st1" d="M397.43,751.07c0.05,1.28-0.24,2.94,2,1.81c-2.77,3.49-1.86,8.8-5.8,11.71c0.41-3.04,1.39-5.91,2.61-8.71
		C396.86,754.33,395.89,752.38,397.43,751.07z"/>
	<path class="st57" d="M277.94,553.53c-6.2,0.37-12.13,2.49-18.64,1.3c-6.7-1.23-13.46-1.93-19.93-4.25
		c-3.5-1.25-5.37-3.98-5.34-7.17c0.02-2.77,1.94-4.76,5.25-5.86c15.98-5.33,32.17-9.81,48.42-14.2c11.55-3.12,23.19-6.12,34.65-9.7
		c14.11-4.41,28.71-7.3,43.1-10.81c1.2-0.29,2.07-1.63,3.52-1.09c0.62-0.44,1.29-1.15,2.04-0.72c0.76,0.43,0.7,1.28,0.24,2.02
		c-8.86,6.25-17.34,13.15-26.68,18.58c-12.61,7.35-24.67,15.71-38.57,20.91c-7.04,2.63-13.75,6.36-20.89,8.96
		C282.89,552.79,280.31,552.77,277.94,553.53z"/>
	<path class="st58" d="M429.7,509.8c5.8,5.74,13.35,9.44,18.53,15.91c7.45,9.31,16.28,17.77,18.96,30.09
		c0.17,0.78,0.45,1.54,0.54,2.33c0.09,0.79,0.02,1.6,0.02,3.76c-14.06-17.08-26.68-34.04-44.85-45.38
		c-7.3-5.85-14.86-11.2-23.61-14.8c-3.66-1.51-7.68-2.57-10.69-5.45c-0.34-0.5-0.3-0.96,0.12-1.39c10.18-0.51,19.63,1.9,28.49,6.9
		C421.53,504.22,426.15,506.16,429.7,509.8z"/>
	<path class="st59" d="M277.94,553.53c2.14-1.56,4.73-1.51,7.16-2.03C283.16,553.75,280.77,554.39,277.94,553.53z"/>
	<path class="st60" d="M371.24,503.05c0.1-1.93-1.04-1.69-2.27-1.3c0.76-1.93,2.15-2.35,3.49-0.88
		C373.49,501.99,372.52,502.79,371.24,503.05z"/>
	<path class="st61" d="M270.47,571.09c0.01,0.75,0.02,1.49,0.03,2.24c-0.28-0.12-0.55-0.28-0.84-0.37
		c-1.13-0.36-3.34,0.27-2.72-1.81C267.24,570.14,269.24,570.47,270.47,571.09z"/>
	<path class="st62" d="M388.71,494.88c-0.04,0.46-0.08,0.93-0.12,1.39c-1.19,0.75-2.54,0.5-2.47-0.82
		C386.23,493.69,387.73,494.66,388.71,494.88z"/>
	<path class="st63" d="M390.59,657.64c-4.17-3.96-7.49-8.6-11.01-13.11c-2.84-3.63-5.94-7.12-9.02-10.53
		c-4.74-5.24-8.7-11.24-14.41-15.6c-0.54-0.41-0.63-1.42-0.93-2.16c5.58-2.38,11.72-2.16,17.5-3.77c7.22-2,13.19-5.32,18.11-11.09
		c6.18-7.24,12.43-14.37,16.45-23.09c1.7-3.69,2.46-7.83,5.75-12.07c0.21,7.23-0.29,13.49-0.44,19.58
		c-0.15,5.68-0.86,11.67-0.94,17.33c-0.11,6.97-2.07,13.28-3.41,19.84C405.56,636.15,399.47,647.61,390.59,657.64z"/>
	<path class="st1" d="M458.92,627.81c1.57,1.69,5.46,3.17-0.12,5.08c-1.72,0.59-1.04,4.16-2.76,5.77
		C455.92,634.76,457.75,631.37,458.92,627.81z"/>
	<path class="st1" d="M453.13,650.36c1.2,0.23,3.3,0.91,1.95,1.99c-2.36,1.9-1.98,4.96-3.93,6.81
		C451.08,656.07,451.95,653.18,453.13,650.36z"/>
	<path class="st1" d="M442.45,687.49c1.1,3.07-0.76,5.37-2.05,7.81C439.98,692.41,441.54,690.03,442.45,687.49z"/>
	<path class="st1" d="M448.31,669.91c1.1,3.07-0.76,5.37-2.05,7.81C445.84,674.83,447.4,672.46,448.31,669.91z"/>
	<path class="st1" d="M462,610.36c4.28,2.85,0.9,4.2-1.14,5.81C461.24,614.24,461.62,612.3,462,610.36z"/>
	<path class="st1" d="M469.81,569.36c1.92,3.2,0.66,6.01-1.08,8.76C469.09,575.2,469.45,572.28,469.81,569.36z"/>
	<path class="st1" d="M465.91,590.85c2.15,2.96-0.54,5.24-1.1,7.82C463.28,595.79,466.33,593.56,465.91,590.85z"/>
	<path class="st1" d="M494.13,533.16c-0.49,2.95-2.72,4.43-5,5.86C489.84,536.25,492.05,534.76,494.13,533.16z"/>
	<path class="st1" d="M522.45,502.9c-0.26,2.52-2.03,3.79-4.04,4.87C518.92,505.45,520.63,504.14,522.45,502.9z"/>
	<path class="st1" d="M541.08,478.55c1.31,3.06-1.61,3.49-3.02,4.86C538.01,481.13,540.29,480.3,541.08,478.55z"/>
	<path class="st1" d="M435.56,707.05c0,1.88,0.29,3.88-1.97,4.83C434.02,710.18,434.26,708.4,435.56,707.05z"/>
	<path class="st1" d="M476.55,555.62c0.02,1.45-0.66,2.44-1.99,2.99C473.72,556.61,475.72,556.5,476.55,555.62z"/>
	<path class="st57" d="M115.42,737.29c3.55-8.67,7.23-17.3,9.72-26.37c0.38-2.83,1.33-5.45,2.94-7.82
		c3.51-7.31,6.82-14.73,10.62-21.88c1.7-3.2,4.23-6.03,7.86-7.45c1.27-0.79,2.58-0.69,3.9-0.14c8.78,3.74,8.19,12.32,10.08,19.6
		c0.52,1.99-0.18,4.27,1.5,5.98c1.1,3.22,0.86,6.46,0.12,9.7c-1.43,4.89-1.33,9.9-1.07,14.91c1.09,1.8-0.04,3.1-0.98,4.45
		c-0.69,1.75-1.55,3.46-2.03,5.27c-2.21,8.35-5.47,16.31-8.76,24.26c0.73,2.1-1.09,3.19-1.86,4.69c-2.46,2.06-2.97,5.19-4.33,7.86
		c-4.9,9.59-9.72,19.23-14.77,28.75c-0.79,1.49-0.9,3.07-1.56,4.52c-0.1,1.49-0.79,2.69-1.86,3.69c-2.52,1.21-2.7,3.93-3.87,6.01
		c-0.01,0.21-0.02,0.42-0.03,0.63c-0.44,1.18-1.35,2.09-1.81,3.27c-0.99,2.47-3.12,4.02-4.75,5.98c-3.43,3.75-5.85,8.53-10.92,10.59
		c-1.56,1.14-3.35,1.64-5.23,1.92c-5.58-1.83-7.8-5.86-6.81-12.2c0.27-1.71,0.25-3.47,0.36-5.2c-0.87-2.15,0.78-3.86,1.02-5.81
		c1.42-4.48,3.02-8.92,2.97-13.72c-0.29-2.51,0.76-4.64,1.95-6.72c2.15-3.66,2.96-7.66,3-11.85c-1.05-2.7,0.99-4.51,1.91-6.65
		c3.47-6.99,4.18-14.95,7.65-21.96c1.01-2.03,1.44-4.35,2.13-6.53C111.53,741.73,113.66,739.58,115.42,737.29z"/>
	<path class="st64" d="M114.45,823.18c0.09-2.98,3.83-3.86,3.94-6.83c1.11-0.82,2.21-1.67,2.7-3.05c0,0-0.04,0.01-0.04,0.01
		c0.87,0.26,2.46,0.72,1.52,1.64C119.83,817.66,118.81,822.11,114.45,823.18z"/>
	<path class="st65" d="M124.92,807.3c-0.01-1.55,0.21-2.98,1.86-3.69c1.4-0.2,0.9-1.99,2.37-2.58
		C129.17,804.29,127.79,806.27,124.92,807.3z"/>
	<path class="st66" d="M128.07,703.11c-0.53,2.77-1.33,5.45-2.94,7.82C123.41,707.3,126.13,705.35,128.07,703.11z"/>
	<path class="st67" d="M97.79,792.05c-0.65,2.24-1.3,4.48-1.95,6.72c-2.13-2.72,0.4-4.71,1.12-6.97c0.02-0.06,0.31-0.09,0.45-0.04
		C97.56,791.79,97.67,791.94,97.79,792.05z"/>
	<path class="st68" d="M102.7,773.55c0.1,2.43-1.49,4.37-1.91,6.65c-2.15-2.74,0.35-4.72,1.15-6.98c0.02-0.04,0.3-0.04,0.42,0.02
		C102.49,773.3,102.59,773.44,102.7,773.55z"/>
	<path class="st69" d="M162.15,708.9c-0.04-3.23-0.08-6.47-0.12-9.7c2.27,3.03,0.77,6.43,0.93,9.66c0,0.07-0.23,0.2-0.36,0.21
		C162.44,709.07,162.29,708.96,162.15,708.9z"/>
	<path class="st70" d="M115.42,737.29c-0.98,2.59-1.95,5.18-2.93,7.77C110.58,741.38,112.53,739.16,115.42,737.29z"/>
	<path class="st71" d="M160.09,728.27c0.33-1.48,0.66-2.97,0.98-4.45c0.1-0.62,0.19-1.25,0.29-1.87
		C161.5,724.16,163.82,726.83,160.09,728.27z"/>
	<path class="st72" d="M147.43,762.49c-0.48-2,1.29-3.11,1.86-4.69C150.62,760.27,150.24,761.23,147.43,762.49z"/>
	<path class="st73" d="M98.3,835.69c1.74-0.64,3.48-1.28,5.23-1.92C102.44,836.19,100.64,836.67,98.3,835.69z"/>
	<path class="st67" d="M92.87,812.49c0.32,2.05-0.16,3.96-1.02,5.81c-2.12-2.05,0.59-3.91,0.24-5.9c0-0.03,0.26-0.15,0.39-0.14
		C92.62,812.28,92.74,812.41,92.87,812.49z"/>
	<path class="st74" d="M150.44,673.63c-1.3,0.05-2.6,0.09-3.9,0.14C147.75,671,149.08,671.88,150.44,673.63z"/>
	<path class="st57" d="M542.88,314.52c1.65,9.89-5.03,17.54-15.17,18.2c-4.07,0.26-7.97-0.02-11.6-1.36
		c-9.33-3.45-19.14-4.22-28.82-5.4c-6.56-0.8-13.19-1.89-19.91-1.18c-5.22,0.55-10.34,1.36-15.28,3.18
		c-1.67,0.73-3.28,1.59-5.05,2.06c-2.49,0.33-5.12,0.34-6.65,2.88c-2.51,0.47-3.73,2.81-5.78,3.96c-2.31,0.75-4.1,3.01-6.88,2.33
		c-1.44,1.5-4.27,1.06-4.97,3.57c-0.08,0.69-0.46,1.16-1.06,1.48c-2.07,0.02-3.26,2.89-5.69,1.77c-1.95,1.21-3.91,2.43-5.86,3.64
		c-1.45,1.11-2.44,3.25-4.86,2.19c-0.39,0.2-0.77,0.4-1.16,0.59c-0.48,0.5-1.04,0.68-1.61,0.23c-0.74-0.59-0.68-1.3-0.15-2.02
		c2.04-2.19,4-4.47,6.7-5.9c0.81-3.51,4.1-4.94,6.2-7.36c1.35-1.05,2.39-2.37,3.28-3.82c1.93-2.72,4.98-4.09,7.45-6.15
		c1.78-1.19,3.21-2.68,4.06-4.69c0.73-0.69,1.1-2.09,2.58-1.33c4.37,0.67,6.91-3.01,10.13-4.72c6.13-3.23,12.59-4.45,19.2-5.56
		c8.12-1.36,16.38-1.88,24.32-4.29c0.48-0.68,1.21-0.75,1.94-0.82c2.32,0.48,4.72,0.24,7.05,0.73c2.46,1.16,5.28-1.15,7.67,0.75
		c4.85,0.85,9.74-0.08,14.6,0.25c0.47-0.59,1.15-0.67,1.84-0.72c1.97,0.41,3.96,0.46,5.95,0.14c3.74,0.97,7.4,2.17,11.19,2.99
		C539.09,310.71,542.1,311.15,542.88,314.52z"/>
	<path class="st75" d="M542.88,314.52c-4.07-3.74-9.69-3.45-14.44-5.45c-0.98-0.42-1.84-1.18-2.93-1.35
		c-2.02,0.44-4.07-0.23-6.09,0.22c-0.62-0.07-1.25-0.14-1.87-0.2c2.75-3.74,6.49-2.02,9.79-1.51c4.04,0.63,8.09,1.6,11.92,3.01
		C541.28,309.98,544.15,311.1,542.88,314.52z"/>
	<path class="st76" d="M432.65,321.39c-0.61,0.62-1.22,1.24-1.83,1.86c-1.26,1.65-2.79,3.07-4.05,4.71c-2.5,2.05-5,4.1-7.49,6.14
		c-1.31,0.97-2.11,2.4-3.25,3.52c-2.31,2.37-4.62,4.75-6.93,7.12c-0.82-0.47-3.87-0.08-0.85-2.07c2.74-1.8,4.93-4.12,6.83-6.75
		c4.29-5.93,10.9-9.42,15.59-14.93C431.29,320.27,432.13,320.55,432.65,321.39z"/>
	<path class="st77" d="M502.95,307.49c-2.28,0.06-4.55,1.44-6.85,0.08c-2.63-1.63-5.56-0.01-8.28-0.75
		c-0.51,0.01-1.02,0.01-1.54,0.02c0.72-1.85,1.97-2.76,4.05-2.64c5.26,0.28,10.44,1.77,16.08,0.31
		C505.66,306.86,503.2,305.6,502.95,307.49z"/>
	<path class="st78" d="M427.75,339.2c2.18-1.11,4.35-2.23,6.53-3.34c1.07-0.29,2.27-0.86,2.26,1.09c-2.96,1.81-5.91,3.61-8.87,5.42
		C426.35,341.13,428.04,340.22,427.75,339.2z"/>
	<path class="st79" d="M416.03,346.02c2.31,0.12,3.12-3.39,5.8-2.4c0.68,0.69,0.6,1.4,0.06,2.12c-2.01,1.13-4.02,2.26-6.05,3.41
		C414.68,347.94,416.31,347.05,416.03,346.02z"/>
	<path class="st80" d="M405.31,351.85c1.97,0.04,2.76-2.53,4.86-2.19c-0.18,2.17-1.55,3.59-3.38,4.23
		C405.8,354.23,405.43,352.83,405.31,351.85z"/>
	<path class="st81" d="M436.54,336.94c-0.5-0.88-1.39-0.98-2.26-1.09c2.08-0.92,3.48-3.24,6.14-2.95
		C439.12,334.25,437.83,335.59,436.54,336.94z"/>
	<path class="st82" d="M402.39,350.65c-0.07,1.24,0.46,1.89,1.76,1.79c-1.22,1.24-2.99,2.71-4.21,1.18
		C399.05,352.49,401.12,351.34,402.39,350.65z"/>
	<path class="st83" d="M447.06,330.02c1.44-1.27,2.97-2.35,5.05-2.06C450.97,329.98,449.39,330.93,447.06,330.02z"/>
	<path class="st72" d="M421.89,345.74c-0.02-0.71-0.04-1.41-0.06-2.12c0.32-0.28,0.63-0.57,0.95-0.85c0.55,0.12,1.48,0.03,1.34,0.79
		C423.9,344.68,422.87,345.25,421.89,345.74z"/>
	<path class="st1" d="M541.01,502.92c-2.6,2.28-5.2,4.56-7.81,6.84c-0.65,0-1.3,0-1.96,0c-0.31-3.15,0.96-5.61,3.27-7.65
		C536.99,499.94,539.25,499.37,541.01,502.92z"/>
	<path class="st1" d="M504.88,541.98c0,0.65,0,1.3,0,1.95c-2.27,1.78-4.58,3.5-6.78,5.36c-1,0.84-1.79,1.32-2.83,0.14
		c-0.69-0.78-1.04-1.49-0.54-2.57C496.33,543.36,501.11,541.02,504.88,541.98z"/>
	<path class="st1" d="M521.48,525.38c-2.28,1.96-4.56,3.91-6.84,5.87c-1.28-1.69-2.63-3.63-0.58-5.39c2.07-1.79,3.85-4.73,7.05-4.21
		C524.65,522.22,521.89,524.05,521.48,525.38z"/>
	<path class="st1" d="M549.8,489.26c-2.28,2.93-4.56,5.86-6.84,8.79c-5.21-4.42,0.98-6.65,2.18-9.56
		C546.2,485.94,548.32,488.13,549.8,489.26z"/>
	<path class="st1" d="M494.14,556.62c-2.28,1.96-4.56,3.91-6.84,5.87c-2.55-1.52-2.6-3.53-0.75-5.49c1.81-1.92,3.69-4.09,6.92-2.65
		C494.76,554.92,494.52,555.69,494.14,556.62z"/>
	<path class="st1" d="M513.67,533.2c-1.89,2.67-4.17,4.95-6.84,6.83c-2.53-1.64-3.2-3.57-0.62-5.67
		C508.41,532.58,510.49,529.1,513.67,533.2z"/>
	<path class="st1" d="M531.97,511.56c0.01,1.76-6.21,6.79-7.82,6.28c-0.78-0.25-1.44-0.69-1.34-1.72c0.2-2.07,5.23-6.93,7.06-6.81
		C531.29,509.4,531.67,510.44,531.97,511.56z"/>
	<path class="st1" d="M455.09,715.78c-0.33,1.3-0.67,2.61-1,3.91c-2.34-0.03-1.39,5.17-4.14,3.21c-2.14-1.53-0.12-4.06,1.1-5.98
		c0.51-0.8,0.8-1.76,1.11-2.67c0.39-1.15,0.78-2.19,2.35-1.6C456.47,713.39,455.59,714.61,455.09,715.78z"/>
	<path class="st1" d="M472.67,660.13c0.06,3.4-2.43,6.28-1.98,9.76c-0.87,0.28-1.7,1.14-2.67,0.45c-1.49-1.06-1.65-2.93-0.31-3.6
		C470.62,665.3,465.53,658.07,472.67,660.13z"/>
	<path class="st1" d="M471.71,644.72c0-0.87-0.13-1.54,0.02-2.15c0.53-2.1,0.84-5.24,3.68-4.44c2.57,0.72,0.42,3.22,0.16,4.93
		c-0.1,0.62-0.32,1.25-0.62,1.8c-0.62,1.12,0.2,3.47-1.95,3.22C471.02,647.84,471.94,645.78,471.71,644.72z"/>
	<path class="st1" d="M443.75,736.52c1.19-2.54,0.24-6.51,4.53-6.96c1.42-0.15,2.35,1,1.57,2.12c-1.73,2.47-2.42,5.9-5.48,7.13
		C443.5,739.15,443.49,737.46,443.75,736.52z"/>
	<path class="st1" d="M431.7,734.16c2.71-3.27-1.26-5.63-1.16-8.55c1.98-1.24,3.66-0.83,4.98,1.02c1.24,1.73,1.16,3.17-0.83,4.4
		c-1.25,0.77-0.74,2.35-1.17,3.49C432.59,737,432.24,734.74,431.7,734.16z"/>
	<path class="st1" d="M428.09,728.33c1.73,1.66,3.16,3.5,3.69,5.91c-0.47,0.09-0.96,0.14-1.42,0.28c-2.7,0.84-4.76-1-5.59-2.69
		C424.12,730.49,426.53,729.17,428.09,728.33z"/>
	<path class="st1" d="M478.51,620.1c0,1.31-0.01,2.61-0.01,3.92c-1.34,0.71-0.56,2.44-1.57,3.32
		C473.32,623.06,473.73,621.19,478.51,620.1z"/>
	<path class="st1" d="M483.39,573.23c0.01,1.63,0.01,3.25,0.02,4.88c0,0,0,0,0,0c-0.37,0.28-0.38,0.92-0.98,0.97
		c-1.96-0.14-2.98-1.19-2.85-3.16C479.73,573.52,481.45,573.19,483.39,573.23z"/>
	<path class="st1" d="M503.36,529.97c-0.41,1.17-0.67,2.54-2.16,2.8c-1.02,0.18-1.37-0.78-1.51-1.5c-0.3-1.57,0.85-2.29,2.08-2.64
		C502.68,528.38,503.18,529.09,503.36,529.97z"/>
	<path class="st1" d="M513.08,521.1c-0.4,1.04-1.26,1.32-2.26,1.3c-1.03-0.01-1.92-0.32-1.87-1.56c0.05-1.02,0.53-1.91,1.73-1.65
		C511.72,519.42,512.85,519.76,513.08,521.1z"/>
	<path class="st1" d="M531.68,499.71c-0.36,1-0.49,2.26-1.75,2.55c-0.95,0.22-1.36-0.64-1.47-1.44c-0.16-1.23,0.35-2.21,1.64-2.45
		C531.01,498.2,531.53,498.79,531.68,499.71z"/>
	<path class="st1" d="M539.43,490.96c-0.48,0.87-0.99,1.81-2.09,1.56c-0.94-0.21-1.73-1.03-1.77-1.98
		c-0.06-1.35,1.11-1.28,2.03-1.19C538.55,489.44,539.46,489.72,539.43,490.96z"/>
	<path class="st1" d="M417,745c-0.63-0.05-1.38-0.05-1.37-0.9c0.01-0.85,0.77-0.88,1.39-0.88c0.63,0,1.38,0.05,1.37,0.9
		C418.39,744.97,417.63,744.96,417,745z"/>
	<path class="st1" d="M470.1,584.81c-0.77-0.09-1.15-0.56-0.92-1.27c0.12-0.37,0.59-0.84,0.95-0.89c0.7-0.08,1.19,0.47,1.23,1.13
		C471.4,584.54,470.8,584.8,470.1,584.81z"/>
	<path class="st1" d="M524.07,509.76c-1.48,0.94-1.91,1.43-2.22,1.36c-0.89-0.19-1.25-0.95-1.25-1.82c0-0.5,0.16-1.04,0.86-0.77
		C522.21,508.83,522.92,509.22,524.07,509.76z"/>
	<path class="st42" d="M482.42,579.09c0.33-0.32,0.65-0.65,0.98-0.97c-0.39,1.94,0.75,4.13-0.97,5.84
		C482.43,582.33,482.42,580.71,482.42,579.09z"/>
	<path class="st57" d="M666.93,412.84c7.37,3.22,13.91,18.03,11.53,25.47c-0.26,0.82-0.38,1.55,0.1,2.29
		c0.99,3.16,0.9,6.32,0.04,9.48c-1.02,4.61-1.8,9.25-2.02,13.98c1.12,1.81-0.02,3.11-0.98,4.46c-1.02,5.11-3.93,9.72-3.93,15.09
		c0.39,1.93-0.86,3.12-1.95,4.39c-3.77,5.23-5.15,11.54-7.92,18.04c-3.31-4.81-4.08-9.73-4.71-14.69c-0.35-2.72,0.28-5.53-0.74-8.19
		c-0.8-4.16-1.39-8.31,0.35-12.4c0.86-5.34,0.58-10.65-0.32-15.95c-1.67-4,0.39-7.62,1.14-11.38c1.76-5.66,1.46-11.57,1.7-17.36
		c0.18-4.3,1.32-8.11,2.88-11.95C663.27,412.04,665.08,412.36,666.93,412.84z"/>
	<path class="st69" d="M656.7,470.76c-1.06,4.11,0.19,8.28-0.35,12.4c-0.48,1.31,0.34,2.86-1.08,4.52c0-5.2,0-9.94,0-14.68
		C655.27,471.96,655.64,471.14,656.7,470.76z"/>
	<path class="st84" d="M657.52,443.43c-0.38,3.79-0.76,7.59-1.14,11.38c-0.15,1.38-0.31,2.76-0.46,4.14
		C655.36,453.64,654.4,448.29,657.52,443.43z"/>
	<path class="st85" d="M669.72,488.01c-0.17-1.83,0.66-3.21,1.95-4.39c0.48-0.82,0.97-1.64,1.45-2.47
		C672.79,483.9,673.34,487.09,669.72,488.01z"/>
	<path class="st86" d="M678.61,450.09c-0.01-3.16-0.03-6.32-0.04-9.48c2.39,2.99,0.68,6.35,0.84,9.55c0,0.05-0.25,0.15-0.37,0.14
		C678.88,450.28,678.75,450.16,678.61,450.09z"/>
	<path class="st72" d="M675.6,468.53c0.33-1.49,0.65-2.97,0.98-4.46C678.32,465.99,678.06,467.17,675.6,468.53z"/>
	<path class="st87" d="M666.93,412.84c-1.76-0.14-3.39,0.21-4.83,1.28C662.85,410.44,664.7,410.94,666.93,412.84z"/>
	<path class="st2" d="M316.69,276.19c-5.18,4.2-11.87,5.39-17.5,8.74c-1.86,1.1-4.13,1.07-6.26,0.33c1.78-4.22,2-8.72,2.64-13.87
		c-17.12,10.13-34.18,16.86-53.09,4.22c6.99-5.45,13.96-10.57,20.04-16.77c5.01-5.1,9.7-10.49,13.54-16.42
		c4.5-6.94,10.87-10.6,18.21-13.47c3.02-1.18,6.59-1.4,8.91-4.16c2.35,0.53,2.66,2.69,3.3,4.42c5.17,14.04,8.29,28.6,10.9,43.29
		C317.63,273.8,317.61,275.09,316.69,276.19z"/>
	<path class="st2" d="M213.84,215.78c0.41-2.41,2.71-2.56,4.3-3.48c7.79-4.52,15.76-8.72,23.56-13.2
		c12.82-7.36,25.96-14.12,38.86-21.34c4.37,2.66,6.97,6.47,7.57,11.6c-4.35-0.05-7.48,2.71-10.9,4.75
		c-8.41,5.03-13.81,13.42-21.58,19.26c-5.39,4.05-11.47,4.27-17.46,5.35C229.81,220.22,221.86,217.58,213.84,215.78z"/>
	<path class="st58" d="M288.12,189.35c-1.95-4.24-4.75-7.92-7.57-11.59c-6.4-10.14-15.25-18.23-22.94-27.29
		c-0.72-0.85-1.78-1.4-1.91-2.65c-0.14-1.57,0.43-2.03,1.85-1.19c10.88,8.36,20.71,17.79,29.47,28.35
		c2.56,5.82,7.9,10.04,9.48,16.42c2.34,2.15,3.54,4.98,4.65,7.87c2.61,6.8,4.99,13.68,7.63,20.47c0.65,1.67,1.06,3.41,0.72,5.24
		c-0.57,3.38,2.12,5.65,2.92,8.6c2.57,9.52,3.39,19.38,5.98,28.86c1.01,3.69-1.05,7.47,0.86,10.98c0,2.69,0,5.38,0,8.43
		c-1.87-1.69-1.55-3.98-2.57-5.65c-2.99-17.53-6.55-34.91-13.5-51.4c-1.19-6.15-4.26-11.57-6.76-17.2
		C293.72,201.48,290.9,195.43,288.12,189.35z"/>
	<path class="st57" d="M332.62,122.97c-13.14,5.1-26.4,8.51-39.95,10.36c-9.57,1.31-19.23,2.15-28.96,1.47
		c-9.5-0.67-17.41-4.79-24.71-10.51c-1.97-1.55-2.18-3.51-1.46-5.67c0.75-2.24,2.47-2.47,4.64-2.46c20.44,0.1,40.7,2.76,61.05,4.22
		C313.04,121.09,322.83,122.1,332.62,122.97z"/>
	<path class="st88" d="M367.24,141.68c4.32,6.84,8.13,13.89,10.85,21.58c2.33,6.61,3.1,13.37,0.9,18.4
		c-5.05-12.92-8.49-26.34-17.45-37.1c-4.22-8.26-11.12-14.35-17.23-21.14C354.77,126.05,361.68,133.01,367.24,141.68z"/>
	<path class="st89" d="M257.55,146.62c-0.84,0.05-1.49,0.39-1.85,1.19c-2.2-0.4-2.65-2.48-4.19-4.23
		C254.41,143.58,255.85,145.37,257.55,146.62z"/>
	<path class="st63" d="M309.5,224.97c-4.34-11.19-8.67-22.38-13.01-33.57c3.69,0.38,7.45,0.41,11.04,1.22
		c8.49,1.91,14.93-2.43,21.51-6.51c4.41-2.73,8.71-5.6,11.44-10.22c0.34-0.57,1-1,1.64-0.61c0.83,0.5,0.72,1.34,0.39,2.13
		c-5.06,12.21-9.11,25.03-17.74,35.31C320.62,217.68,315.99,222.65,309.5,224.97z"/>
	<path class="st57" d="M158.62,189.35c-0.71,10.19-3.79,19.89-9.47,28.15c-11.31,16.46-26.56,29.34-41.42,42.45
		c-4.16,3.67-8.31,7.63-13.77,9.65c-3.23,1.2-6.64,2.04-8.93-0.9c-2.01-2.58-1.06-5.63,0.68-8.53
		c7.41-12.33,15.43-24.32,24.22-35.63c9.88-12.71,21-24.45,31.65-36.55c1.36-1.55,3.16-2.72,4.74-4.08
		c2.64-2.28,5.55-4.36,9.12-2.75C158.88,182.71,158.32,186.26,158.62,189.35z"/>
	<path class="st90" d="M384.98,36.41c8.16-3.47,16.27-7.09,24.5-10.39c10.69-4.27,21.32-1.53,31.97,0.57
		c10.35,2.04,19.71,6.78,29.53,10.28c3.68,1.31,6.38,4.14,9.46,6.35c2.64,1.9,1.77,4.56,0.13,6.37c-4.34,4.8-11.14,5.63-16.71,1.58
		c-8.74-6.34-18.25-11.21-28.06-15.47c-8.01-3.49-16.58-3.43-25.13-2.07c-7.93,1.27-15.86,2.53-23.79,3.79
		C386,37.57,384.86,38.18,384.98,36.41z"/>
	<path class="st91" d="M384.98,36.41c0.64,0.34,1.27,0.68,1.91,1.01c-1.07,0.98-2.49,1.23-3.34,0.2
		C383,36.98,384.09,36.4,384.98,36.41z"/>
	<path class="st57" d="M513.04,190.9c-1.51-7.87,1.58-14.66,4.02-21.38c3.64-10.06,8.1-19.82,12.93-29.4
		c0.43-0.85,0.58-1.95,1.22-2.55c1.45-1.38,2.27-4.13,4.78-3.52c2.33,0.56,2.63,2.94,3.56,5.03c3.58,8.06-0.76,14.48-3.69,21.08
		C530.63,171.91,522.59,181.72,513.04,190.9z"/>
	<path class="st2" d="M910.11,495.03c-3.44,2.7-3.28,7.29-5.57,10.68c-1.31,1.94-2.13,4.25-3.97,5.88c-1.51-3.15-2.9-6.37-5.48-9.1
		c-3.29,10-6.85,19.46-16.17,25.2c-0.69,0.42-1.25,1.22-1.98,1.37c-2.66,0.56-5.57,3.16-7.78,1.67c-2.57-1.73,0.36-4.63,0.56-7.06
		c0.68-8.32,2.22-16.79,0.24-24.96c-2.21-9.12,1.39-16.42,5.27-23.91c0.29-0.56,0.42-1.2,0.62-1.8c1.31-1.78,2.63-0.55,3.77,0.14
		c9.84,5.97,19.97,11.51,28.77,19.06C909.13,493.03,910.38,493.57,910.11,495.03z"/>
	<path class="st2" d="M821.32,513.45c2.22-8.4,5.13-16.58,8-24.78c3.22-9.21,6.02-18.57,9.07-27.84c0.37-1.12-0.12-1.86-0.55-2.7
		c4.41-1,8.45-0.58,11.66,3.03c-4.66,5.43-4.74,12.14-4.8,18.68c-0.04,4.72,0.32,9.96-1.66,13.77c-3.45,6.63-8.28,12.74-15.36,16.34
		C825.52,511.04,823.43,512.28,821.32,513.45z"/>
	<path class="st92" d="M849.49,461.16c-3.7-1.73-7.69-2.33-11.66-3.04c-8.65-2.07-17.55-2.13-26.31-3.26
		c-0.63-0.54-0.62-1.09-0.03-1.66c5.7-1.33,11.49-0.72,17.25-0.67c3.65,0.03,7.3,0.48,10.95,0.74c4.96,2.36,10.75,1.85,15.64,4.47
		c0.65,0.08-0.13-0.26,0.47-0.04c8.23,2.99,16.54,5.83,23.24,11.82c8.39,4.27,15.45,10.52,23.3,15.57c2.5,1.61,3.6,4.62,6.56,5.45
		c0.38,0.57,0.77,1.13,1.15,1.7c0.01,1.69-0.9,1.52-1.99,0.99c-9.28-7.33-19.32-13.5-29.56-19.38c-0.85-0.49-1.57-1.15-2.64-0.85
		c-4.57-2.93-9.36-5.47-14.52-7.09c-2.19-0.69-4.08-1.69-5.96-2.86c-0.63,0.33-1.22,0.47-1.67-0.28
		C852.29,462.24,850.89,461.7,849.49,461.16z"/>
	<path class="st93" d="M853.69,462.78c0.56,0.09,1.11,0.18,1.67,0.28c-1.13,1.13-2.43,0.95-3.89,0.54
		C851.97,462.46,853.01,463.1,853.69,462.78z"/>
	<path class="st94" d="M838.82,405.3c-7.76,13.45-16.96,25.77-28.4,36.37c-5.2,4.82-11.41,7.2-18.22,8.28
		c-2.16,0.34-4.67,0.88-6.09-1.66c-1.58-2.83,0.8-4.15,2.43-5.56c12.38-10.78,25.62-20.49,38.5-30.64c3.28-2.59,6.6-5.14,9.9-7.7
		C838.13,403.54,838.82,403.7,838.82,405.3z"/>
	<path class="st95" d="M869.08,394.56c8.34,2.47,16.35,5.62,23.15,11.25c0.48,0.4,0.84,0.95,1.25,1.44c0.65,1.16,0.7,2.01-1,1.98
		c-5.96-3.05-11.88-6.15-18.26-8.35c-2.62-0.9-5.16-1.65-7.92-1.67c-3.51-1.34-7.04-2.53-10.89-1.76c-0.33,0.45-0.56,0.4-0.69-0.14
		c-2.38-1.4-5.12,0.15-8.17-1.2C854.2,392.24,861.62,393.22,869.08,394.56z"/>
	<path class="st96" d="M838.82,405.3c-0.34-0.88-1.13-0.86-1.88-0.92c0.84-1.2,1.96-2.03,3.37-2.55
		C841.47,403.75,839.75,404.36,838.82,405.3z"/>
	<path class="st97" d="M811.49,453.21c0.01,0.55,0.02,1.11,0.03,1.66c-0.99,0.07-1.98,0.13-2.97,0.2c-0.58-0.63-0.59-1.26,0.02-1.88
		C809.55,453.19,810.52,453.2,811.49,453.21z"/>
	<path class="st98" d="M808.57,453.19c-0.01,0.63-0.02,1.25-0.02,1.88c-0.92-0.18-2.52,0.46-2.33-1.2
		C806.33,452.86,807.7,453.18,808.57,453.19z"/>
	<path class="st99" d="M854.74,397.3c0.26-0.08,0.48-0.04,0.69,0.14c-1.04,1.36-2.38,1.13-3.84,0.75
		C852.44,396.95,853.77,397.79,854.74,397.3z"/>
	<path class="st100" d="M879.04,469.52c-7.9-3.92-15.81-7.85-23.71-11.77c0.32-0.37,0.56-0.86,0.96-1.08
		c11.89-6.33,15.46-16.83,14.84-29.46c-0.03-0.6,0.22-1.22,0.83-1.88C877.77,439.49,884.97,453.4,879.04,469.52z"/>
	<path class="st101" d="M892.49,409.22c0.77-0.44,0.95-1.17,1-1.98c1.25,0.81,2.72,1.95,1.47,3.34
		C894.05,411.6,893.14,410.07,892.49,409.22z"/>
	<path class="st57" d="M788.13,551.56c0.34,17.44-0.57,32.23-2.89,46.92c-0.1,0.63-0.18,1.29-0.42,1.87
		c-1.29,3.08-1.98,7.21-6.32,6.95c-4.04-0.24-3.78-4.21-4.43-7.1c-3.83-17.09-4.77-34.49-5.32-51.92c-0.19-5.99-0.75-11.98,0-17.96
		c0.34-2.72,0.67-5.7,3.94-6.6c2.97-0.82,4.47,1.66,5.93,3.44C784.99,534.99,787.84,544.13,788.13,551.56z"/>
	<path class="st102" d="M908.05,493.23c0.79-0.08,1.57-0.18,1.99-0.99c1.47,0.75,2.55,1.9,3.48,3.32c-1.38,1.14-2.25-0.71-3.41-0.52
		C909.42,494.43,908.74,493.83,908.05,493.23z"/>
	<path class="st90" d="M826.95,324.08c2.06-5.41,4.16-10.81,7.05-15.84c4.96-8.61,13.6-12.86,21.89-16.89
		c6.71-3.26,13.55-7.03,21.38-7.52c2.16-0.14,4.85-1.69,5.96,1.26c1.06,2.81,0.09,5.68-1.87,7.99c-2.15,2.52-5.26,3.04-8.31,3.44
		c-5.94,0.78-11.61,2.6-17.37,4.15c-9.71,2.62-16.02,9.41-21.63,17.07c-1.91,2.61-3.93,5.07-6.13,7.41
		C827.01,325.32,826.5,325.13,826.95,324.08z"/>
	<path class="st103" d="M826.95,324.08c0.32,0.36,0.65,0.72,0.97,1.08c0.12,1.54-0.73,2.31-2.24,2.86
		C825.14,326.22,825.96,325.12,826.95,324.08z"/>
	<path class="st90" d="M973.31,347.33c-3.25-2.23-5-4.82-6.21-7.89c-3.78-9.58-7.86-19.04-10.31-29.09
		c-0.47-1.91-1.53-3.93,0.4-5.34c1.87-1.37,3.43,0.01,5.12,1.16c7.76,5.25,8.3,13.87,10.09,21.75
		C973.79,334.04,973.86,340.4,973.31,347.33z"/>
	<path class="st3" d="M121.08,813.3c0.07,1.88-0.85,2.87-2.7,3.05C118.82,814.92,119.81,813.99,121.08,813.3z"/>
	<path class="st3" d="M487.83,306.82c2.81-0.3,5.74-1.93,8.28,0.75C493.38,307.01,490.47,308.37,487.83,306.82z"/>
	<path class="st3" d="M519.42,307.94c1.99-1.27,4.03-0.96,6.09-0.22C523.52,308.78,521.49,308.71,519.42,307.94z"/>
	<path class="st3" d="M426.76,327.96c0.4-2.39,2.17-3.6,4.05-4.71C430.23,325.47,428.74,326.92,426.76,327.96z"/>
	<path class="st3" d="M416.02,337.63c0.31-1.89,1.45-3.01,3.25-3.52C418.6,335.65,417.64,336.94,416.02,337.63z"/>
</g>
</svg>
