<?xml version="1.0" encoding="utf-8"?>
<!-- Generator: Adobe Illustrator 23.0.1, SVG Export Plug-In . SVG Version: 6.00 Build 0)  -->
<svg version="1.1" id="Layer_4" xmlns="http://www.w3.org/2000/svg" xmlns:xlink="http://www.w3.org/1999/xlink" x="0px" y="0px"
	 viewBox="0 0 1000 1000" style="enable-background:new 0 0 1000 1000;" xml:space="preserve">
<style type="text/css">
	.st0{fill:#A85213;}
	.st1{fill:#625048;}
	.st2{fill:#522600;}
	.st3{fill:#262718;}
	.st4{fill:#241916;}
	.st5{fill:#BDAE6E;}
	.st6{fill:#615048;}
	.st7{fill:#625047;}
	.st8{fill:#BEAF6E;}
	.st9{fill:#615047;}
	.st10{fill:#7D4A3F;}
	.st11{fill:#9D5521;}
	.st12{fill:#9D5627;}
	.st13{fill:#322A26;}
	.st14{fill:#614F47;}
	.st15{fill:#FAB121;}
	.st16{fill:#BAAB6C;}
	.st17{fill:#EDB245;}
	.st18{fill:#BEAE6E;}
	.st19{fill:#110E0B;}
	.st20{fill:#904F23;}
	.st21{fill:#614F46;}
	.st22{fill:#5D4D44;}
	.st23{fill:#0F0D09;}
	.st24{fill:#A59860;}
	.st25{fill:#2D2522;}
	.st26{fill:#80754A;}
	.st27{fill:none;}
	.st28{fill:#080401;}
	.st29{fill:#242213;}
	.st30{fill:#A85113;}
	.st31{fill:#A6886A;}
	.st32{fill:#A7886B;}
	.st33{fill:#48312D;}
</style>
<g>
	<path d="M751.6,313.4c-12.3-8.2-12.8-12.2-4.6-23.8c34.2-48.6,6.3-115.8-38.6-132.1c-14.9-5.4-20.9-12.9-25-26.4
		c-7.2-24.1-24.3-35.2-48.9-33.4c-37.2,2.6-92.4,44.7-103.8,80.7c-3.7,11.8-10.9,18.9-21.5,20.1c-21.3,2.5-39.6,12.7-57.9,21.5
		c-55.2,26.4-104.7,62.3-155.7,95.8c-17.1,11.2-32.7,24.6-32.5,45.8c0.3,24.3-9.2,41.6-23.9,59.9c-12.3,15.3-19.6,35.5-16.5,56.9
		c5.8,39.9,16.1,78.7,30.4,116.2c3.1,8.2,3.5,14.1-0.5,22.3c-15.6,32-26.5,65.4-26.1,106.4c-0.5,13.2,2.5,30.6,7.4,47.8
		c13.7,48.6,44,87.5,75.4,125.1c17,20.4,41.4,37,68.7,28.6c68.3-21,132.2-52.5,180-107.2c28.9-33.1,29-56.3-2-88
		c-1.8-1.9-3.5-3.8-5.5-5.6c-7.3-6.5-2.2-10.9,3.4-12.9c36.5-12.9,68-34.5,100.5-55c37-23.3,65.1-83.3,34.6-130.2
		c-6.4-9.9-7.1-20.4-2-32.5c9.6-22.9,23.1-41.3,45.5-52.8C788.5,412.3,799,345,751.6,313.4z M553.6,636.2c-9.6,0-15.3-4.7-2.2-11.3
		c3.2-1.6,6-4.2,10.4-7.3C562.8,626.7,564.3,636.2,553.6,636.2z"/>
	<path class="st0" d="M402,664c13,20.1,29.3,36.5,51.3,46.7c27.3,17.5,55.9,31.3,89.2,31.9c27.1,35.4,23.4,53.2-16.9,74.1
		c-33.1,17.1-70.4,21.7-105.1,34c-9.7,3.4-19.8,5.7-29.8,8.5c-20.8-10.5-31-30.2-42.2-49c-1.8-7.2,1.4-14,1.8-21.1
		c1.7-32.7-5.7-45.3-36.3-60.1c-1.8-0.9-3-2.4-4.2-4c-8.4-26.6-11.4-53.1,0.7-79.5c1-0.9,2.3-2.3,3.1-2
		C342.4,653.5,373,655.3,402,664z"/>
	<path class="st1" d="M484.4,347.6c-8.8-13.5-9.8-28.3-7-43.7c8.4-14.4,24.1-19.2,37.2-27c21.7-12.9,43.8-25.1,65.4-38.1
		c23.6-14.2,25.5-13.7,38.5,8.3c1.5,2.1,3.9-1.8,1.9-0.1c-0.8,0.7-1.5,0.7-1.9-0.1c-11.4-18.8-6.3-47.9,11.9-69.1
		c0.8-1,1.6-2,2.4-3.1c34.7-18.9,69.7-13.6,92.9,14c25.5,30.5,27.2,68,4.9,96.1c-10.2,12.9-24.8,17.9-39.1,23.7
		c-20.8,8.3-36.9-4-51.9-14.3c-12-8.2-21.2-8.9-33.6-2.3c-32.1,17.1-64.1,34.5-96.4,51.4C501.6,347.5,494.1,354.4,484.4,347.6z"/>
	<path class="st2" d="M351.3,812.5c13.1,15.6,26.3,31.1,39.4,46.7c-41,16.4-43.5,18.2-53,37.4c-25.3-18.4-41.5-44.4-57.8-69.5
		c-14.4-22-25.5-45.9-32.3-72.2c-12-46,0.2-87,19.1-127.7c5.9-12.7,13.1-16.3,22.4-2.8c7.3,7.3,20.4,7.9,23.4,20.3
		c-5.3,27-5.1,54,0.8,80.8c-1.4,3.3-4.5,4.3-7.5,5.6c-20.4,9.1-29.5,23.6-26.3,41.7c4.6,25.9,20.7,42.4,42,44.2
		C331.9,818.1,340.6,808.9,351.3,812.5z"/>
	<path class="st1" d="M438.4,292.4c21.4,82.7,68.4,151,122,215.5c3.6,4.4,9.5,7.3,9.5,14.1c0,4.7-0.1,10.7-7.1,7.4
		c-21.8-10.1-40.1,0.8-58.9,9c-18.3,8-36.5,16.1-54.8,24.2c5.5-24,25.5-38.9,37.3-59c1.6-2.6,3.9-5.1,6.1-7.4c7-4.9,8-10,3.7-18.1
		c-26.6-49-52.9-98.1-78.6-147.6c-8.1-15.6-18.6-10.4-29.3-5.5c-34.2,15.7-66.7,34.7-98.5,54.8c-7.1,4.5-13.7,8.5-11.4-5.7
		c5.3-7.7,13.3-12.4,21.1-16.9c33.6-19.6,66.8-40,99.6-60.9C412.4,288,424.4,285.3,438.4,292.4z"/>
	<path class="st3" d="M484.4,347.6c28.4-7.5,51.6-25.6,77.9-37.6c7-3.2,13.9-7,20.2-11.4c24-16.5,47.1-25.6,72.4-0.9
		c9,8.8,23.2,10.8,36.4,10.9c-40.6,26.9-85,46.8-128.8,67.5C538.7,387.5,505.1,373.6,484.4,347.6z"/>
	<path class="st3" d="M492.5,496.3c-9.1,25.6-28.5,44.5-43.3,66.4c0,0,0.3-0.2,0.3-0.2c-33.6,24.2-73.1,37.7-108.2,59
		c-3.9,2.4-8.3,3.5-12.9,3.4c-46.1-8.5-68.7-37.4-72.5-84.9c30.2,29.7,64.5,40.9,105.4,30.6c21.9-5.5,40.7-16.3,59.3-28.1
		C444.6,527.2,468.5,511.7,492.5,496.3z"/>
	<path class="st1" d="M488.1,480.4c0.8,7.6-3.4,10.9-8.2,13c-6.9,2.9-14.4,0-17.1-5.4c-9.5-19.5-22.4-23.1-40.8-12.2
		c-5.8,3.4-11-0.4-15.3-5c-4.7-5,0-8,1.9-11.7c11.8-23.4,4.1-43.4-20.8-52.7c-6.9-2.6-14.3-4.3-14.7-13.1c-0.4-7.8,6.2-10.8,12-13.7
		c12.5-6.2,20.4-13.6,11.1-28.8c-4.2-6.8-2.3-15.1,5-18.6c9.9-4.7,9.5,6.5,12,10.9c23.5,41.9,46.3,84.1,69.3,126.2
		C484.7,473.3,486.6,477.4,488.1,480.4z"/>
	<path class="st4" d="M725,418c-23.4,0.2-47.5-25.5-48.6-51.7c-1.1-26.3,16.7-49.6,38.2-49.9c27.9-0.4,51.4,29.3,50.9,64.4
		C765.3,398.8,744.5,417.9,725,418z"/>
	<path class="st3" d="M398.5,472.6c7.7,6.4,7.6,12.6-1,17.9c-5.9,3.7-12,7-14.9,13.8c1,7.4-5.4,8-9.7,10.6
		c-7.3,2.2-13.7,5.8-19,11.3c-0.8,0.4-1.5,0.7-2.3,1c-8.1,10.9-5.4,18.3,8,19.3c16.3,1.2,30.3-6.2,43.5-14.6
		c15.9-10,31.4-20.6,46.9-31.2c3.9-2.7,8.2-6.2,11.6-1c3.6,5.5-2.4,8.2-5.8,10.3c-36.1,22.3-69.1,50.2-114,55.3
		c-63.6,7.2-117.1-60.1-100-104.8c7.3,6.7,6.3,16.7,10.1,24.9c14.5,30.8,38.2,40.9,69.9,29c19.1-7.2,34.5-20.6,52.2-30.2
		C382,480.1,389.1,474.1,398.5,472.6z"/>
	<path class="st5" d="M438.4,292.4c-1.5,2.6-1.8,10.5-6.3,4.4c-9.1-12.2-16.2-4.7-24.3,0.2c-43.1,25.8-86.3,51.5-129.4,77.3
		c-0.7-19.4,8.5-32.3,24.8-42.7c44.9-28.3,87.6-60.1,134.8-84.9c4.3-2.3,8.8-4.4,16.5-8.3C444.9,257.7,437.8,274.1,438.4,292.4z"/>
	<path class="st5" d="M632.8,174.8c-11.6,24-21.1,48.4-12.5,77.3c-18.6-20.1-18.6-20.1-43.7-5.6c-33.1,19.1-66.1,38.2-99.2,57.4
		c1.4-23.7,16.8-38.9,33.8-52C549.3,222.6,590.3,197.5,632.8,174.8z"/>
	<path class="st4" d="M675.2,389.9c8.1,16.9,20.9,29.3,40.8,38.6c-21.5,10.1-39.5,20.5-58.8,27c-12.7,4.3-26.4-2.2-35.1-12.1
		c-10.1-11.5-19.8-24.2-20.7-40.9c13.7-13.2,31.7-18.9,48.2-27C664.7,368.2,666.1,386.1,675.2,389.9z"/>
	<path class="st1" d="M562.3,648.1c16.2-24.2,14.1-42.9-8.6-68.6c-6.8-7.6-15-13.9-22.6-20.8c3.4-15,15.4-12.6,25.8-12.1
		c7.7,0.4,14.7,3.9,20.8,8.7c1.6,2.2,3.2,4.4,4.7,6.7c-1.5,9.5,3.5,17.5,6.2,25.9c9,27.6,9.2,54.2-6.6,79.7
		c-41.9,51.1-145.2,67.1-180-30.7c-3.2-7.7,0-11.6,7.6-13c11.9,6.4,10.5,20.1,16.2,30c16.6,29.1,42.5,37.6,74,36.7
		c26.9-0.7,47.7-10.6,60.7-34.9C561.8,653.3,562.2,650.7,562.3,648.1z"/>
	<path class="st6" d="M613.8,616.7c-0.5-15-3-29.7-10.5-42.8c-4.3-7.6-2.7-11.2,4.7-14.7c18.1-8.6,35.9-17.8,53.8-26.8
		c4.7-2.4,10-5,13,2c6.9,16.4,15.3,32.6,8.5,51.3c-17.6,16-39.9,23.3-60.9,33.1C619.5,620.2,616.1,619.6,613.8,616.7z"/>
	<path class="st1" d="M617.5,492.3c-47.4,27.3-34.4,24.9-63.5-8.5c-32.3-37.2-56.5-80.7-79.2-124.7c-0.7-1.4-0.5-3.4-1-6.5
		c20.5,22,42.8,37.5,73.7,38.7c-3,10.4-6.9,19.8-8.3,29.6c-4.9,33.9,22.7,65.7,54.3,59.8c3.7-0.7,7.8,0.1,11.7,0.2
		C611,482.8,619.2,482.2,617.5,492.3z"/>
	<path class="st3" d="M427,598.5c24.5,35.6,55.3,50.3,96.7,39.3c8.7-2.3,16.6,6.1,25.2,8.6c-13.8,23.7-52.3,35.6-76.7,26.3
		C443.8,661.8,428.4,639.3,427,598.5z"/>
	<path class="st7" d="M398.5,472.6c-23.3,18.7-49,33.5-75.6,46.7c-40.5,20.2-76.1-14.5-80.5-48.9c-0.4-3.2-0.4-6.5-0.5-9.7
		c0.9-10.4,5-19.5,11.3-27.7c13.8,18.9,16.9,20,37.4,7.6c24.4-14.7,51-26,72.4-45.5c8.5,9,3.4,14.4-4.9,19.3
		c-20.4,12.1-40.7,24.5-61,36.7c-7.8,4.6-15.4,9.2-19.6,17.7c-2.9,32.9,18.8,52.8,50.3,34.2c15.6-9.2,31.6-17.7,47.2-27
		c6.1-3.6,11.9-8.1,19.7-7.1C395.9,470.2,397.2,471.4,398.5,472.6z"/>
	<path class="st2" d="M518,831.9c-44.6,36-92.5,54.5-138.2,77c-3.2,1.6-7.6,1.1-11.5,1.2c-6.5,0.1-13.3,0.6-16.1-7.5
		c-2.8-8.1,2.9-11.8,8.2-15.6c19.9-14.2,43.2-20.3,66-27.4C455.1,850.8,483.9,842.2,518,831.9z"/>
	<path class="st3" d="M669.3,477.5c0,28.9-8.4,50.5-38.5,59c-10.4,2.9-20,9.2-29.6,14.6c-12.1,6.8-17.1-2.8-21.2-10
		c-3.9-6.8-3.9-15.8,4.8-20.4C612.7,506.1,640.8,492,669.3,477.5z"/>
	<path class="st1" d="M625.8,151.9c4.5,5.5,4.7,11-1.7,14.8c-28.9,17.1-58,34-91.3,53.4c8.7-23,9.9-44,24.8-59.9
		c2.3-1.2,4.6-2.4,6.6-3.9C591.9,134.7,595.6,134.5,625.8,151.9z"/>
	<path class="st3" d="M281,476.2c24.2-29,59.8-41.4,90.4-60.9c10-6.4,22.1,2,30.4,11c-9.3,12.5-24,17-36.6,24.4
		c-18.2,10.8-36.3,22-55,32c-9.7,5.2-20.2,9.9-29.7-0.9C279.6,479.9,279.7,478,281,476.2z"/>
	<path class="st1" d="M281.2,480.3c13.8,8.8,24.5-0.2,35.3-6.5c28.2-16.2,55.4-34.3,85.3-47.5c2.6,8.9,8.9,17.7,0.9,26.9
		c-27.6,11.3-52.3,28.2-78,43c-9.5,5.4-18.4,12.2-29.9,13.3C283.8,502.8,274.1,495.5,281.2,480.3z"/>
	<path class="st8" d="M562.3,648.1c9.3,12.2-1.7,19-7.9,25.8c-32.1,35.5-122,34-140.3-36c-1.1-4.4-2.6-8.6-4-13
		c0.1-8.3,4.6-9.3,11.2-6.8c5.6,31.2,21.4,53.2,53.4,62.2C512.1,691,538,672.2,562.3,648.1z"/>
	<path class="st9" d="M465,332.6c-33.4-53,0.1-106.4,40.2-116.3c5.1-1.3,12.7-7,15.4-0.1c2.2,5.5,0.9,13.9-6.3,18.8
		c-12.3,8.5-22.7,18.9-33.1,29.8C463.2,283.5,464,305.7,465,332.6z"/>
	<path class="st3" d="M613.8,616.7c25.1-6.1,44.9-24.1,69.6-31c-1.1,19.6-13.1,32.7-26.4,45.3c-15.5,14.6-33.6,25.3-54.5,38.1
		C607.3,649.7,613,633.6,613.8,616.7z"/>
	<path class="st10" d="M675.2,389.9c-20.8-20.1-37.9-2.5-56.1,5.4c-5.9,2.5-11.8,4.9-17.7,7.3c-3.7-18.9,2.3-31.8,20.9-40
		c16.9-7.4,32.6-17.4,52.2-28.1C666.9,355.5,666,373.1,675.2,389.9z"/>
	<path class="st1" d="M328.3,624.9c37.4-26.6,80.9-41.4,121.1-62.4c-7.5,11.2-20.8,14.7-30.7,22.7c-14.2,11.6-28.7,22.5-28.2,43.4
		c0.2,7.4-4.6,8.6-10.2,7.8C362.8,633.7,344.5,633.8,328.3,624.9z"/>
	<path class="st11" d="M519.9,605.3c-12.1-7.5-24.5-14.8-33.4-26.2c-4.2-5.4-12-12-7.2-18.2c5.2-6.7,14.8-11.6,24.4-8.9
		c15.5,4.3,27.6,14.5,37.9,26.2c8.3,9.4-5.3,10.4-7.7,15.8C532,601.1,528.9,606.8,519.9,605.3z"/>
	<path class="st12" d="M464.5,625.2c-7.8-0.9-12.4-7-17.1-11.8c-6.9-7.1-18.8-15.6-14.6-25c4.8-10.7,19.5-13.7,30.1-19.8
		c4.8-2.7,6.2,3,8.6,5.5c8.4,8.8,16.8,17.7,25.2,26.5C488.5,612.2,477.3,619.8,464.5,625.2z"/>
	<path class="st5" d="M362.9,395.1c1,5.7-0.9,9.4-6.3,12.5C332,421.5,308,436.7,283,450c-19.9,10.6-27.8,5.4-29.9-17
		c5.2-15.1,14.8-26.8,28.1-35.5c1.3,1.4,2.2,3,2.5,4.8c0.2,4-1.8,7.6-2.3,11.4c-1.6,11.8,3.1,15.8,14.5,11.2
		c19.9-8.1,37.3-21,56.8-29.8c0.9,0,1.8-0.1,2.7-0.1C358,395,360.4,395.1,362.9,395.1z"/>
	<path class="st13" d="M589.7,394.3c0.1,22.4,9.6,40.8,24.1,56.9c4.1,4.6,8.2,8.2,1,13.9c-16.8,13.3-44,8-56.7-11.3
		c0.7-3.3,2.3-6.5,5.3-7.5c19.6-6.5,20.7-21.4,17.6-38.2C582.3,402.5,580.8,395.1,589.7,394.3z"/>
	<path class="st3" d="M371.4,511.7c3.7-2.4,7.5-4.9,11.2-7.3c19.2-3.5,30.5-22.8,50.9-24.9c6.8-0.7,12.2-3.1,16,4.5
		c-17.7,21-42.7,31.8-64.9,46.6c-4.2,2.8-8.6,5.5-13,8.1c-12.7,6.8-20.2,4.4-20-11.4c0,0-0.1,0.1-0.1,0.1
		C357.3,521.1,364.5,516.6,371.4,511.7z"/>
	<path class="st14" d="M671.5,146.1c0,8.9-8.4,7.4-12.8,7.9c-7.7,0.8-16.8,11.4-23.6-1.7c-2.4-4.6-6-8.8-7.3-13.7
		c-1.9-7.2-18.9-11.3-8.7-18.4c9.7-6.7,24.7-12.9,37.7-1.3C664.9,126.1,669,135.4,671.5,146.1z"/>
	<path class="st3" d="M300.8,394.6c23-11.6,45.9-23.5,69.2-34.5c6.5-3.1,16.1-13.3,20.8-0.9c3.2,8.5-8.5,11.3-15.7,14.2
		c-1.1,0.5-2.4,0.7-3.6,1c-18.6,16.4-40.7,27.2-62.3,38.7c-8.1,4.3-16.9,7.8-24.5-1.5C282.9,399.1,291.9,396.9,300.8,394.6z"/>
	<path class="st2" d="M542.5,742.7c-36.7,8.8-64.1-8.4-89.2-31.9c20,1.9,39.2,12.5,60.3,4.7c6-2.2,10.6,2,14.1,7.4
		C532.1,729.8,537.5,736.1,542.5,742.7z"/>
	<path class="st15" d="M312.4,644.8c-7.3-7.3-19.1-9.4-23.4-20.3c33.1,11.1,65.7,23.9,101.4,24c9.8,0,8.9,9.4,11.6,15.4
		C370.6,664.8,340.1,661,312.4,644.8z"/>
	<path class="st16" d="M582.1,667.5c8-31.8,13.2-63.3-5.7-93.6c-4.1-6.6,2.4-8.8,6-12C611.5,594.9,611.4,640.9,582.1,667.5z"/>
	<path class="st17" d="M464.5,625.2c8.1-11.7,19.7-18.8,32.2-24.5c6.2,3.1,12.4,6.3,18.7,9.4c9.8,4.4,9.2,11.1,4.2,18.8
		C500.5,638.1,482.3,634.7,464.5,625.2z"/>
	<path class="st18" d="M297.6,507c29.5-17.2,58.9-34.7,88.7-51.4c4.5-2.5,9.8-10.5,16.4-2.3c-2.7,4-5.4,8-8.1,12
		c-24.1,17.8-50.8,31-77.6,43.8C310.4,512.2,303.3,514.1,297.6,507z"/>
	<path class="st19" d="M297.6,507c9.4,4.4,17.6,0,25.6-4.1c23.9-12.4,47.6-25.1,71.5-37.7c0,1.2,0,2.5,0,3.7
		c-23.8,16.5-48.9,30.9-75.1,43.3c-13,6.2-25.7,5.3-35.5-5.3c-10-10.8-16.4-23.4-6.5-38.2c0.2,3,0.5,5.9,3.6,7.4
		c0.1,1.4,0.2,2.7,0.2,4.1C281.3,492.5,285.1,502.4,297.6,507z"/>
	<path class="st9" d="M585.6,409.8c12.5,28.2-9.4,34.9-27.5,44c-6.2-7-8.1-15.2-7.2-24.3C559.7,418,571.5,412,585.6,409.8z"/>
	<path class="st20" d="M519.6,628.9c0.8-6.8-0.5-13.1-4.2-18.8c1.5-1.6,3.1-3.2,4.6-4.9c4.7-3.8,9.4-7.5,14.1-11.3
		c1.3,2.6,3.7,4.2,6.1,2.9c7-3.7,14.5-8.4,18.5,2.7c3.4,9.5-5.1,13.4-11.3,16.9C538.4,621.3,528.8,624.8,519.6,628.9z"/>
	<path class="st16" d="M585.6,409.8c-11.6,6.6-23.1,13.1-34.7,19.7c1.4-24.9,10.9-37.6,30.4-43.9c11-3.6,8,3.6,8.4,8.7
		C585.4,398.7,586,404.4,585.6,409.8z"/>
	<path class="st21" d="M371.6,538.7c22.4-23.2,51.6-36.9,77.8-54.7c3.5,3.1,4.6,7.2,0.5,9.7C424.3,509.5,402.5,532.1,371.6,538.7z"
		/>
	<path class="st3" d="M577.7,555.3c-15.6-0.1-32.1-12.7-46.6,3.4c-5.7-4-11.3-8.1-17.4-12.4C546.9,529.3,559.7,531.3,577.7,555.3z"
		/>
	<path class="st22" d="M285.1,409.9c8.2,6.6,15.6,2.7,23.2-1.5c21-11.5,42.1-22.7,63.1-34c-5.3,6.9-10.6,13.7-16,20.6
		c0,0,0.2-0.3,0.2-0.3c-19.6,10.1-38.3,21.8-58.1,31.5c-6.5,3.2-12.9,3.6-16.8-3.6C278,417.5,275.6,411.3,285.1,409.9z"/>
	<path class="st16" d="M625.8,151.9c-2.2,4-5.6,6.2-9,2.3c-15.4-17.5-30.5-10-45.7-0.1c-4.2,2.8-7.7,6.9-13.5,6
		c6-9.5,14.5-16.3,24-22.1C606.1,123.1,612.4,125,625.8,151.9z"/>
	<path class="st23" d="M285.1,409.9c-4.3,4.4-5,8.9-0.1,13.2c4.1,3.6,8.4,2.1,12.5-0.1c13.5-7.2,27-14.6,40.7-21.7
		c5.6-2.9,10.5-7.7,17.6-6.6c-15.1,14.4-34.3,22.4-52.4,31.9c-7.7,4-15.8,11-24.5,1.8c-9.1-9.5-2.9-17.8,2.3-26.1
		c5.1-3.8,5.9-14.1,15.9-10.3c1.3,0.9,2.5,1.8,3.8,2.6C296.1,400.2,288.1,402.5,285.1,409.9z"/>
	<path class="st3" d="M617.5,492.3c-2-6.1-8.9-6.9-12.3-11.4c15.3-5.7,29.5-16.1,49.2-10.5C643.6,481.6,630.2,486.4,617.5,492.3z"/>
	<path class="st24" d="M320.7,371.8c21.4-12.3,42.8-24.6,64.2-36.8c1,1.7,2,3.4,3,5.1c-19.9,13.7-41.8,24.1-63.3,35.2
		C320.4,377.3,320.1,375.1,320.7,371.8z"/>
	<path class="st25" d="M421.3,618.2c-4.3,1.2-9,2-11.2,6.8c-5.2,2.2-7.4,6.5-8,11.9c-7.3-7.3-1.3-14.5,0.3-21.7
		c1.4-6.5,6.3-11.4,12-10.7C420.9,605.2,421.5,612.2,421.3,618.2z"/>
	<path class="st26" d="M320.7,371.8c1.3,1.1,2.6,2.3,3.9,3.4c-9.2,5.6-18.4,11.1-27.5,16.7c-5.3,3.4-10.6,6.9-15.9,10.3
		c0-1.6,0.1-3.2,0.1-4.7C291.5,384.5,307,379.6,320.7,371.8z"/>
	<path class="st27" d="M553.6,636.2c-9.6,0-15.3-4.7-2.2-11.3c3.2-1.6,6-4.2,10.4-7.3C562.8,626.7,564.3,636.2,553.6,636.2z"/>
	<path class="st28" d="M351.3,812.5c-25.3,13-44.9,11.8-59.8-3.7c-17-17.6-21.5-44.9-11.7-64c7.2-13.9,19-18.3,33.3-19.2
		c29-1.6,48.2,35.8,41.9,70.1C354.1,801.3,352.6,806.9,351.3,812.5z"/>
	<path d="M671.6,277.7c-27.1-12.4-42.6-44.7-32.8-70.4c5.3-14,14.7-24.6,31.7-23.8c19.3,0.9,35.6,15.1,40.7,35.3
		c-2.2,5-6.6,8.1-11,10.5c-12.7,6.8-18.9,15.9-16.4,31.3C685,267.9,687,280.2,671.6,277.7z"/>
	<path class="st29" d="M671.6,277.7c11.7-2.4,9.8-12.9,7.5-18.7c-7-18.2,3.5-25.8,16.7-32.8c5.1-2.7,8.8-8,15.4-7.5
		c1.3,1.4,2.6,2.8,3.9,4.2c11.1,26.9,6.2,45.5-15.4,58.2C690.4,279.9,680.3,284.1,671.6,277.7z"/>
	<path class="st16" d="M699.8,281.2c19.4-15.6,17-37,15.4-58.2c17.6,3.7,24.3,22.9,14.8,43.9C724.1,279.7,717.5,292.6,699.8,281.2z"
		/>
	<path d="M371.4,511.7c-5.1,7.1-10,14.6-19.9,15.7C353,515.7,362.2,513.6,371.4,511.7z"/>
	<path class="st30" d="M347.9,791c-9.1,20.9-19.9,26.4-36.7,20.5c-13.5-4.7-30.4-30.1-27.3-41.3c1.1-4.1,4-7.1,8-7.6
		c5.5-0.7,4.7,4.7,6.2,7.9C309.7,796.1,322.7,801.8,347.9,791z"/>
	<path class="st31" d="M312.7,779.2c6.1-5.4,12.6-5.8,18.8-6.6c5-0.6,12.4-7.3,14.6,0.7c2.3,8.4-5.3,14-13.2,15.7
		C324.9,790.7,318.1,787.3,312.7,779.2z"/>
	<path class="st32" d="M335.9,750c1.5,1.9,4.8,4.6,4.3,5.7c-2.7,5.8-30.1,12.6-34.5,8.3c-1.5-1.5-0.2-5.9-0.2-9
		C314.3,744.8,324.2,741.6,335.9,750z"/>
	<path class="st33" d="M335.9,750c-10.7-1.6-20.8-0.3-30.4,4.9c2-9.4,6.5-17.8,16.7-18.2C329.3,736.5,335.3,741.5,335.9,750z"/>
</g>
</svg>
