<?xml version="1.0" encoding="utf-8"?>
<!-- Generator: Adobe Illustrator 23.0.1, SVG Export Plug-In . SVG Version: 6.00 Build 0)  -->
<svg version="1.1" id="Layer_4" xmlns="http://www.w3.org/2000/svg" xmlns:xlink="http://www.w3.org/1999/xlink" x="0px" y="0px"
	 viewBox="0 0 1000 1000" style="enable-background:new 0 0 1000 1000;" xml:space="preserve">
<style type="text/css">
	.st0{fill:#010000;}
	.st1{fill:#FDFCF6;}
	.st2{fill:#020100;}
	.st3{fill:#080301;}
	.st4{fill:#050200;}
	.st5{fill:#0A0400;}
	.st6{fill:#FE5C00;}
	.st7{fill:#510000;}
	.st8{fill:#FD5B00;}
	.st9{fill:#FB5B00;}
	.st10{fill:#F55A00;}
	.st11{fill:#F95B00;}
	.st12{fill:#810200;}
	.st13{fill:#500200;}
	.st14{fill:#FD5C00;}
	.st15{fill:#520200;}
	.st16{fill:#F25900;}
	.st17{fill:#F05900;}
	.st18{fill:#E25400;}
	.st19{fill:#E75600;}
	.st20{fill:#810500;}
	.st21{fill:none;}
	.st22{fill:#FB5C01;}
	.st23{fill:#510200;}
	.st24{fill:#F25800;}
	.st25{fill:#E35400;}
	.st26{fill:#EE5700;}
	.st27{fill:#CB4B00;}
	.st28{fill:#DB5100;}
	.st29{fill:#A51C00;}
	.st30{fill:#701300;}
	.st31{fill:#F45900;}
	.st32{fill:#E15400;}
	.st33{fill:#FEFE5C;}
	.st34{fill:#FEC64B;}
	.st35{fill:#FEFEFE;}
	.st36{fill:#FEA031;}
	.st37{fill:#FEF5D4;}
	.st38{fill:#FEC54A;}
	.st39{fill:#FEFEFD;}
	.st40{fill:#FEFEFA;}
	.st41{fill:#FEFEF9;}
	.st42{fill:#FEFEF6;}
	.st43{fill:#FEFE50;}
	.st44{fill:#FEFEF4;}
	.st45{fill:#FEFEF5;}
	.st46{fill:#FEFEE1;}
	.st47{fill:#FEFE9F;}
	.st48{fill:#FEFEF0;}
	.st49{fill:#FEFEED;}
	.st50{fill:#FEDC51;}
</style>
<g>
	<path d="M228.3,456.6c57.2-33.2,123.7-37.7,184.7-59.6c-3.6-4.9-9-0.6-13.4-4.1c20.2-34.5,55.2-51.8,86.8-73.4
		c27.7-18.9,57.5-28.1,91-26.9c9.6,0.4,17.3,2.8,19.8,11.7c2.9,10.2-3.3,16.4-13,20.3c-13.3,5.2-26.1,11.5-39.7,17.6
		c8.2,4.2,18.4-1.6,26.3,6.7c3.8,4.1,7.9-4.1,11.1-7.2c20.9-20.5,41.4-41.4,70.4-50.7c8.2-2.7,17.4-4.9,23.8,0.9
		c6.9,6.2,2.6,14.4,0.5,22.9c-6.9,28.4-27.3,47.8-43.7,69.7c-9.4,12.5-20.1,24.1-32.8,39.2c16.3-7.9,27.1-11.5,35.4-27.7
		c16-31,39.9-57.9,62.7-89.6c2.2,27.5,0.3,50.6-5.4,74.3c-7.1,29.9-13.5,60-24.7,88.7c-1.8,4.7-2.5,10.1-5.5,13.9
		c-6.5,8.4-15.3,15.1-26.3,12.2c-11.4-2.9-6.5-13.8-7.3-21.6c-0.4-3.8-0.1-7.6-1.1-11.7c-5.5,16.2-17.7,29.8-18.3,47.9
		c8.3,0.6,9.7-14.8,19.2-8c10.1,7.3,13.9,18.3,11.5,30.6c-6.3,31.9-15,63.2-27.2,92.9c3.3,4.6,5.7,2.2,8.7,1
		c6.5-2.6,12.2-9.7,20.7-2.2c7.8,6.9,7.7,15.8,5.5,23.2c-11.8,40.8-37.4,73.5-64,105.4c-1.7,2.1-5.7,2.2-8.6,3.3
		c-5.2-18.3,5.1-34.5,6.9-56.9c-24.6,47.9-45.1,92.2-74.2,131.8c-38.3,52.2-85.8,89.5-152.7,94.3c-84.7,6.1-162.4-12.5-224-74.4
		C98.8,818.6,78.6,778.8,73.8,731c-10.1-100.6,32.3-176.6,106.6-238.9c2.6-2.2,5.2-2.8,5.1-8.2c-1-36.2,46.9-94.1,82.5-100.6
		c8.4-1.5,16.1,2.2,19.7,8.8c3.5,6.5,2.8,14.3-3.2,21.4C268.8,431.9,244.1,437.4,228.3,456.6z"/>
	<path class="st0" d="M560.4,113.7c-11.2,0.5-19,13.3-32.7,10c3.8-2.4,6.3-4.4,9-5.7c8.8-4.3,19.6-10,17.2-20.1
		c-2.9-12.4-16.1-11.6-27.1-12.1c-9.8-0.5-18.6,8.4-29,2.6c17.3-7.2,18.3-11.1,3.7-21.9c-6.9-5.1-15.2-8.8-23.4-11.5
		c-34.2-11.5-68-9.6-101.9,3c-5.5,2.1-11.8,7.3-19.9,3.6c-27-12.4-55.9-18.7-84.9-24.8c8.7-1.4,17.1-1.5,25.5-1.4
		c6.5,0,13.7,0.7,15.3-7.9c1.6-8.7-0.7-15.5-11.3-16c-1.4,1.1-2.5,2.4-3.2,4c0,0,0,0,0,0.1c-0.2,0.7-0.4,1.4-0.7,2
		c-2.5,5.7-8.2,5.3-13.4,5.1c-2.8-0.1-5.5-0.1-8.2,0.1c-8.6,0.5-17.2,1.9-25.8,2.6c-0.3,0-0.5,0-0.8,0.1c-5.1-0.8-9.7,1.9-14.7,1.8
		c-10.5-1.4-12.3,12-22.7,12.4c-27.1,1.2-50.6,13.7-73.5,27C92.2,93,67.3,133.5,66.9,186c-0.4,57.8,30.2,100.7,74.7,134.3
		c31.8,23.9,66.7,33.4,107,24c28.5-6.6,55.1-16.5,80.3-30.8c8.8-5,8.3-5.2,15.9,1.4c2,1.7,6.4,2,9.3,1.3c22.6-5.5,44.7-12.4,62.8-28
		c5.4-4.7,10.2-9.4,9.1-18c-1.2-8.9-9.9-7.1-17.2-11.6c18.8-10.2,31.4-24.1,43.9-37.9c5-5.5,14.2-14.7,5.8-21.1
		c-14.1-10.8-1.8-11.7,3.9-18.2c-0.7,10.7,1.8,15.5,5.7,19.2c6.7,6.5,11.5-0.5,15-2.8c31.9-19.7,58.9-44.6,78.1-77.3
		C562.5,118,563,115.9,560.4,113.7z M474.8,142.8c15.1-1.6,26.8-13.6,42.5-12.3C503.2,135.2,491.5,147.3,474.8,142.8z"/>
	<path class="st1" d="M410.2,940.2c-48.3,59.6-215.3,51.2-288.6,5.4C10.2,876-3.1,709.7,40.1,634.9c-11.9,106.9,10,197.5,96.8,258.8
		C218.1,951,307.3,981,410.2,940.2z"/>
	<path class="st0" d="M782.3,412.8c36.9-8.8,42-42.4,57.4-67.7c9.6-15.7,23.5-27.5,37-39c8.5-7.3,21.1-11.4,27.6,6.3
		c2.2-4.7,3.3-9.3,6.1-12.3c5.2-5.6,8.4-17.4,18.2-13.2c10.7,4.6,23.9,7.3,25.2,24.7c1,14.2,1.4,29,6.8,42.9
		c1.5,3.9,2,10.5-0.2,13.3c-15.9,20.1,1.8,39.2,1,58.7c-0.1,2.8,1.8,7.4,3.9,8.2c33.4,13.3,15.7,37,11,57
		c-2.4,10.2,0.7,27.1-18.7,26.8c-0.1,0,0,7.3-0.5,11.2c-7.4,51.8-25.7,92.7-81.7,108.5c-66.6,18.8-123.8-3.6-146.2-67.7
		c-7.3-20.8-11.2-43.3-2.4-65.3c10.5-26.3,17.3-53.4,19.6-81.6c0.5-6.4,4.3-11.7,8.7-16.5c5-5.4,9.8-10.2,18.1-8.6
		C781.7,400.1,780.6,407.7,782.3,412.8z"/>
	<path class="st1" d="M95,68.7c-36.9,55.5-59.8,113.8-32,179.5c26.2,62,68.8,106.1,145.6,112.8c-71.2,12.1-153-41.9-177.6-104.2
		C0,178.3,38.4,108.4,95,68.7z"/>
	<path class="st1" d="M922.2,628.7c-24.3,42.4-82.8,61.4-134,44.5c-50.9-16.9-86.3-58.8-80.2-118.3
		C739.8,660.6,838.8,678.4,922.2,628.7z"/>
	<path class="st2" d="M749.1,187.2c5.4,35.8-10.4,60.5-32.6,82c-7,6.8-16,13.2-27,4.4c-10.5-8.5-5.2-17.1-1.2-25.7
		C700.9,220.8,724,204.5,749.1,187.2z"/>
	<path class="st3" d="M636.7,66.4C624,86.8,604.2,92,587.1,100.7c-5.5,2.8-14.5,3.7-19.2-3.9c-5.3-8.6,2-13.4,7.3-17.4
		C592.9,65.9,613.9,66.5,636.7,66.4z"/>
	<path class="st4" d="M952.8,249.4c-1.6,5-4.5,13.2-6.9,21.6c-1.5,5.3-3.9,11.5-9.6,9.6c-5.5-1.9-12.1-6.9-10.4-14.6
		c2.1-9.1,5-18.1,9-26.5c2-4,6.3-10.9,11.5-8.2C950.6,233.4,953.8,239.7,952.8,249.4z"/>
	<path class="st5" d="M245.6,27.4c-3.9,1.6-7.8,6.1-11.4-0.4c20-14.9,41.1-24.8,66.7-15.7c0,1.4-0.1,2.9-0.1,4.3
		C283.5,24.5,263.6,21.7,245.6,27.4z"/>
	<path class="st6" d="M605.3,539.3c5.7-5,11.5-9.9,19.2-16.7c2.3,29.7-9.9,53.5-18.7,77.7c-31.1,84.8-68.4,166.2-125,237.9
		c-53.1,67.3-121.5,86.9-202.3,69.2c-44.4-9.7-88.6-23.2-122.9-54.9c-71.5-66.2-93.9-162.9-41-261.8
		c32.9-61.5,85.6-99.5,145.3-129.8c16.7-8.5,33-20.4,53.4-19.9c3.1,4.7,1.3,8.5-3.9,13.4c30.4-13.8,58.2-29,88.9-36.6
		c43-16.2,81.6-42.6,126.3-55.1c7.1-2,14.1-4.1,22.2-4.3c-15.1,19.9-36.7,32.3-51.5,51.5c-7.6,17.7-27.6,25.1-35,44
		c20.7-1.4,38.5-12.5,57.9-17.9c5.8-1.6,12.6-7.1,17.8-0.4c4.6,5.9,0.4,12.4-2.2,18.3c-6.7,15.3-18,28.5-22,48.9
		c16-10,29.8-18.5,41.9-30c8.4-7.9,16.6-16.4,28.4-19.6c12.7-8.5,24.4-18.7,41.1-24.9c-4.3,28.4-22.5,49.7-28.9,75.3
		c-3.6,24.2-20.3,42.6-28.9,65C579.4,559.7,590,546.4,605.3,539.3z"/>
	<path class="st7" d="M582.1,453.3c-22.2,22.8-47.1,42-77.3,59.4c1.9-30.5,23.7-50.1,32.2-78c-30.3,8.7-56,24.4-88.2,26.8
		c13-22,27.9-38.4,46.6-51.5c23.7,2.3,49.4-7.1,70.4,11.6c2.5,3.1,0.4,10.8,8.4,8.2C574.9,438.3,584.2,443.9,582.1,453.3z"/>
	<path class="st8" d="M574.1,429.8c-5.1,2.4-7.1,9.2-14,9.6c-1.9-7.2,5.7-11.3,5.6-17.8c2-3.3,4.5-6.3,6.1-9.8
		c8.7-19.3,7.4-21.1-17.8-21c31.1-33.7,61.7-64.4,98.4-88.4c3.8-2.5,8.6-4.1,12.6-0.7c5.1,4.3,0.4,8.7-1.5,12
		c-21.2,37.9-47.8,71.9-77.6,103.4C582,421.3,578.1,425.6,574.1,429.8z"/>
	<path class="st9" d="M429.6,371c39.4-28.3,76.9-59.9,126.9-69.7c3.1-0.6,6.5-0.4,9.7-0.5c7.3-0.4,16.2-0.5,18.4,7
		c2.5,8.6-6.3,11.5-12.9,13.9c-28.6,10.2-57.3,19.8-85.7,30.5c-18.4,6.9-36.1,15.4-54.2,23.3C431.1,374,430.4,372.5,429.6,371z"/>
	<path class="st9" d="M691.3,341.9c-10.7,45.1-21.8,90-38.4,133.4c-2,5.3-5.6,10.2-11.1,8.8c-8.7-2.3-2-8.6-1.3-12.7
		c2.3-12.7,5.3-25.2,8.5-37.7c2.1-8,7.3-15.6-5.1-20.8c-6.9-2.9-2.5-8.9,0.4-13c13.8-20.1,27.7-40,41.6-60
		C687.7,340.6,689.5,341.2,691.3,341.9z"/>
	<path class="st10" d="M591.2,721c5.9-28.9,16.3-56,30-81.9c2.2-4.2,7.1-8.9,12.8-5.3c5.2,3.3,3.8,9.7,2.1,14.2
		C625.9,675.2,611.8,700,591.2,721z"/>
	<path class="st11" d="M198.4,464.8c12.8-22.7,25.2-45.6,47.7-59.9c7.1-4.5,14.6-8.3,22.3-11.7c4.7-2.1,9.3,0.2,11.8,4.2
		c2.6,4.3-1.1,7.9-4.2,9.7C248.2,423.5,223.3,444,198.4,464.8z"/>
	<path class="st12" d="M605.3,539.3c-12.5,16.4-29.3,27.2-46.6,38.2c9.6-26.1,21.3-50.5,35.6-73.8
		C601.2,514.6,596.7,528.9,605.3,539.3z"/>
	<path class="st13" d="M398.4,417.9c-31.2,14.8-62.3,29.7-96.8,46c2-12,11.5-15.1,11.7-22.9C341.9,434,367.8,417.6,398.4,417.9z"/>
	<path class="st14" d="M457.2,152.8c6.9,0,13.8,0,23.3,0c-12.5,17-30.7,22.2-43.2,34.4c-8.1,13.1-23.1,17.1-37.4,28.1
		c1-0.5,5.7,0,3.6-1.6c-5.8-4.2,21.5-7,33.9-3.4c8.3,4.1,3.8,7.9-0.3,11.5c-53.6,46.9-111.4,87.5-179.5,110
		c-55.1,18.2-104.9-4.7-149.7-60.4c-41.9-52.1-35.3-121-3.4-160.4c27.7-34.2,64.1-55.9,109.5-60c31.9-2.9,63.4-3.6,94.6,5.7
		c-0.6,5.7-8.7,3.3-10.5,7.7c52.3,10.7,106,11.4,161.2,23.9c-12.5,11.7-27.3,6.1-37.6,13.3c-8.9,8.6-21.8,7-33.2,12.5
		c11.9,4.5,23.3,5.3,34.6,7.2c4.7,0.8,9,2.8,10.4,7.7c1.6,5.9-3.8,7.6-7.3,10.1c-6.8,4.9-14.9,7.9-22.6,14.5
		C422.3,158.6,439.8,148.9,457.2,152.8z"/>
	<path class="st15" d="M457.2,152.8c-21.1,6.6-42.5,8.8-66.9,6.6c10.6-16,28.7-18.6,41.3-30.8c-18.8-5.1-37.9-5-56.7-14.4
		c15.3-8.9,30.8-11.6,46.7-12.8c11.1,9.9,21.5,20.5,34.9,27.4c1.2,1.7,1.2,3.8-0.6,4.6c-2.3,1-5.5,0.8-2.6,4.6
		C453.6,143.2,451.4,149,457.2,152.8z"/>
	<path class="st11" d="M453.4,138c-15.6-8.8,8.1-4,3.2-9.1c4.2-1.9,11-5.1,8.5-8.8c-10.8-16.1,4.8-13.1,10.5-14.2
		c22.7-4.6,45.2-12.3,74.9-7C518.2,120.8,486.6,131.2,453.4,138z"/>
	<path class="st16" d="M391.5,60.5c25.7-2.7,51.1-8.1,77-2.5c9,1.9,17.4,4.8,25.1,9.5c3.1,1.9,7.6,4.4,5,8.9
		c-1.1,1.9-5.5,2.5-8.4,2.7c-3.8,0.2-7.8-0.4-11.5-1.2C449.8,71.2,421,64.8,391.5,60.5z"/>
	<path class="st17" d="M473.6,189.9c0.2-1.9-0.2-4,0.7-5.3c7.8-12,24.4-17.5,24.7-35.8c0-3.4,11.4-7,17.8-9.9
		c8.7-3.8,17.7-7,28.3-11.1C531.4,149.9,489.5,186,473.6,189.9z"/>
	<path class="st18" d="M367.4,302.2c12.8-18.1,27.7-24.6,40.3-33.8c2.6-1.9,6.3-2.7,8.6,0.6c3,4.2-0.2,7.9-3,9.9
		C400.9,287.6,388.1,295.9,367.4,302.2z"/>
	<path class="st19" d="M245.6,27.4c17.1-10.2,35.5-13.9,55.2-11.8c2.5,3.7,6.5,9.8-0.8,10.1C281.9,26.4,263.9,32.4,245.6,27.4z"/>
	<path class="st20" d="M437.4,210.3c-13.4-0.8-26.1,6.7-44.6,2.7c17.2-10,30.8-17.9,44.5-25.8C438.2,194.9,429.5,202.6,437.4,210.3z
		"/>
	<path class="st21" d="M517.3,130.5c-14.1,4.7-25.8,16.8-42.5,12.3C489.9,141.2,501.6,129.2,517.3,130.5z"/>
	<path class="st22" d="M940.8,412.9c2-3.1,4.1-6.2,7.6-11.5c8,21.9,4.2,42.6,4.8,62.8c0.8,28-2.6,55.8-8.6,83.2
		c-13.9,63.9-49,87.1-113.7,87c-27.2,0-51.2-6.9-69.3-28.7c-1-4.1,1.5-5.5,4.8-6.3c5.4-0.2,10.1,2.1,14.5,4.9
		c26.2,16.9,54.7,18.1,84.2,12.8c10.8-1.5,20.3-6.3,29.5-11.9c19.4-11.4,27.9-29.7,33.7-50.4c9.6-33.6,6.2-68.5,11.8-102.4
		c0.6-3.7,0.3-7.5,1.6-11.4c-5.9,6.1-11.6,14.2-21.1,9.7c-9.4-4.4-7.3-14.3-7.2-22.5c0.2-9,3-17.7,4.3-26.9
		c-5.8,13-13.5,26.4-28.4,24.7c-15.9-1.8-9.5-18.7-12.9-29c-0.3-1.9-0.4-3.8-0.3-5.7c0.3-1.9,0.6-3.9,1.7-5.4
		c4-5.7,8.3-13.6,16.2-10.1c6.8,3,4,11.2,3.1,17.4c-0.3,1.9-0.7,3.8-0.4,6.6c9.8-6.5,10.5-20.1,21-25.1c3.8-4.7,7.6-9.3,12.7-15.5
		c5.1,14.3-1.9,26.5,0.2,38.6c1.8,8,4.9,15.9,1.9,24.3c-1.5,2.1,0.9,1.9,0.9,1.1C933.4,418.4,937.2,415.7,940.8,412.9z"/>
	<path class="st22" d="M766.5,601.2c-1.6,1.5-3.3,3-4.9,4.5c-58.1-49.1-23.4-152,31.1-181.9c12.1-6.5,20.9-16.9,30.9-25.9
		c17.8-18.4,35.6-36.9,54.9-56.8c5.5,14.8-8.6,19.9-6.8,29.8c1.9,11.3-4.7,19.6-9.4,27.7c4.4-3.8,8.2-10.4,16.6-8.4
		c0.2,1.9,0.3,3.8,0.5,5.7c0.1,7.5-4.9,11.7-10.3,15.5c-14.5,10.2-22.3,6.4-25.3-12.6c-19.5,19.2-36.6,40.4-61.6,53
		c-11.9,6-16.3,19.7-21.9,31.4c-10.8,18.1-14.4,37.8-12.8,58.6c0.1,15.2,3.6,29.4,12.8,41.8C764.1,588.8,768.3,594,766.5,601.2z"/>
	<path class="st23" d="M878.8,390.3c-6.1,3-9.9,10-18.6,10.3c0.9-11.2,5.2-20.8,11.5-29.7c10-6.6,28.5,0.7,30.6-18.8
		c5.8,3.1,5.7,3.1,3.8,17.8c-0.1,0.4,0.5,1.2,1,1.4c0.5,0.2,1.2-0.2,1.8-0.3c2.9,1.3,5.7,2.5,8.6,3.8c-5.8,13.9-12.3,27.4-24.2,38.9
		c-6-12.9,1.7-23.8,0.4-36.2C886.6,379.8,882.8,385.1,878.8,390.3z"/>
	<path class="st24" d="M908.8,370.9c-0.9,0.8-1.8,1.6-2.8,2.3c-5.2,3.8-2.7-1.5-2.6-2.5c0.7-6.3,7-12.8-1.1-18.6
		c-2-1.4-6-3.4-5.8-4.1c6.2-19.8,14.5-38.6,30.3-53C927.2,322.3,916.7,346.3,908.8,370.9z"/>
	<path class="st25" d="M945.5,309.4c4.3,23,8.3,45.2,3.7,68.2C944.9,355.4,925.5,334.8,945.5,309.4z"/>
	<path class="st26" d="M847.3,354.7c6.6-24.3,23.4-39.9,49-44C881.1,330.7,862.2,340.6,847.3,354.7z"/>
	<path class="st27" d="M972.3,445.1c6.7,19,1.6,31.8-4.5,44.6C965.4,475.9,961.1,461.9,972.3,445.1z"/>
	<path class="st28" d="M773.6,406.4c-7,11.5-14.1,23.1-21.1,34.6c-1.5-16.6,3.8-29.1,16.1-37.6C770.2,404.4,771.9,405.4,773.6,406.4
		z"/>
	<path class="st29" d="M940.8,412.9c-2.2,8.5-5.4,16.3-14.8,25.2c1.7-15.9,3-28.1,4.3-40.3C933.8,402.9,937.3,407.9,940.8,412.9z"/>
	<path class="st30" d="M823.6,397.9c-7.4,11.9-17.5,21.2-28.3,29.9c-0.2,0.2-1.4-0.2-1.5-0.5c-0.5-1.1-0.7-2.3-1.1-3.5
		C799.2,410.7,812.1,405.2,823.6,397.9z"/>
	<path class="st31" d="M741,205.4c-6.4,21.3-18.1,39.4-31.8,56.3c-2.7,3.3-6.4,8.2-11.2,5.3c-4.7-2.9-2.1-7.9-0.1-12.2
		C707.5,234.2,722.5,218.4,741,205.4z"/>
	<path class="st32" d="M573.7,93.4c9.6-14.4,22-17.5,36.5-15.8C600.3,86.3,589.6,93.4,573.7,93.4z"/>
	<path class="st32" d="M934.7,273c-2.7-13.3,1.8-23.3,9.6-34.7C945.6,252.1,942.6,262.6,934.7,273z"/>
	<path class="st33" d="M114.9,639.9c12-36.4,30.1-68.8,60.3-93.4c25.4-19.9,52.8-35.6,84.6-42.6c6.8-1.5,14.8-6.5,20.1,0.1
		c5.8,7.4-1.1,14.6-4.6,21.2c-7.8,14.7-18.4,27.8-23.7,44.4c34.1-19,67.6-38.2,101.9-56c12.1-6.3,23.9-13.3,36.8-17.8
		c4.8-1.7,10.6-4.1,14.8,0.1c5,5,2,11.3-0.8,16.2c-10.2,18.2-17.4,37.8-26.3,56.6c-1.6,3.4-3.1,7.2-1.5,12.8
		c13.3-5,23.7-14.6,35.6-21.2c14.8-8.2,30-15.6,45.2-23c5.7-2.8,12.2-7.5,18.2-2.6c6.9,5.6,3.2,13.7,0.8,20
		c-12.4,31.4-26,62.4-43.3,91.9c23.5-10.7,47.7-19.9,69.6-33.9c5.9-3.7,13-8.5,19.9-3.9c7.6,5.1,6.2,14,4.3,21.5
		c-8.6,35.4-18.8,70.4-34.1,103.6c-20.5,44.5-45.3,86.3-80.9,120.7c-20.4,19.7-43.1,35.2-72,39.5c-9-0.2-18-0.4-27-0.6
		c-5.3-3-14.1-3.2-13.5-11.7c0.5-8.4,8.2-11.2,15-13.4c26.5-8.6,53.8-14.8,75.6-28.3c-19.9,6.8-43.1,4.4-66.1,4
		c-6.6-0.1-13.7-1.6-15.4-9.3c-1.4-6.7,4.5-10.3,9.1-13.8c19.1-14.6,41.5-23.7,61.5-36.3c-15.4-1-31.5,1.7-46.9-3.5
		c-6.7-3.6-13.6-3.1-20.6-1c-5.3,1-10.3-0.1-15.3-1.7c-19.1-6-23.6-16-14.4-34c13.1-25.4,28.4-49.5,44.4-73.3
		c3.7-5.5,10.7-10.6,5.4-18.8c-5.4-3.9-8.7,0.8-12.6,3.1c-14.6,7.4-30.3,11.6-45.1,18.4c-21.7,10-29.5,4.5-29.7-19.8
		c0-3.8,1.2-7.7-0.8-13.3c-18.6,14.9-32.7,33.2-47.1,51c-6.6,8.1-12.7,16.5-20.4,23.6c-15.8,14.5-28.7,13.1-39.6-5.4
		c-10.7-18.2-15.3-38.6-18.9-59.1C116.7,647.4,116.8,643.5,114.9,639.9z"/>
	<path class="st34" d="M339.8,894.3c65.1-25.2,103.4-76.4,134.9-135.5c21.3-39.9,34.5-82.3,46.5-125.4c2.1-7.4,5.8-16.8-1.2-21.4
		c-5.9-3.9-13.4,3.2-19,7.1c-23.1,16.2-50.6,22.9-79.5,40c21.8-42.6,43.1-79.3,55.4-124.7c-39.8,16.5-74.1,35.8-110,62.4
		c5.3-39.1,25-67,38.4-99.4c-18.1,1.8-31.6,10.6-45.3,18.1c-35.8,19.7-72.5,37.7-106.2,61c-2.9,2-5.9,6.6-9.9,2.7
		c-3.4-3.2-0.4-7.2,0.8-10.8c5.3-15.6,16.9-27.6,24.1-42.1c3.3-6.8,7.2-13.2,12.2-22.3c-36.2,6.1-65.7,19.8-93.6,37.5
		c-3.9,2.4-7.2,5.7-12.3,4.9c24.8-29.9,58.3-48.6,90-69.7c1.8-1.2,5.5-4.1,6.5-1.1c6.7,19.9,20.3,7.6,28.8,4.6
		c28.7-10.2,56.8-22,84.6-34.5c26-11.7,51.2-25.1,79.1-35.7c-10.2,12.4-20.2,24.8-30.5,37c-3.4,4-6.7,7.6-7.8,13.1
		c-3.4,17.5,2.1,23.8,19.3,19.5c18.8-4.7,38-8,58.3-18.1c-4.4,17.4-14.7,29.5-17,44.8c-2.9,18.5,1.1,23,18.9,18.1
		c19.6-5.4,37.2-14.8,53.5-27c6.2-4.6,13.2-8.1,24.6-15.1c-10.5,26.1-22.2,45.7-33.7,65.5c-5.5,9.5-12.5,18.1-16.4,28.6
		c-2.7,7.4-3.4,13.6,2.4,19.7c6.4,6.8,14.3,7.1,21.5,3.5c11.5-5.8,22.3-13,34.8-20.5c2,12.1-5.1,20.4-9.1,28.9
		c-29,62.3-53.2,127-90.8,184.9c-16.2,24.9-34.1,48.4-57.3,68.1C406.9,885,374.7,892.4,339.8,894.3z"/>
	<path class="st35" d="M331.8,647.9c15.5-0.6,11.6,6.6,6.3,15c-15.9,25-32.2,49.8-47.2,75.3c-16.6,28.2-11.8,36.1,21.8,38.6
		c6.5-1.8,13-2.7,19.3,0.5c19.6,5.7,40.3-0.1,62.3,4.2C368,797,344,810.9,320.3,825.3c-3.7,2.3-11.2,4-8.4,10.8
		c2,4.8,7.9,3.1,12.3,3.4c25.9,1.8,51.6-1,81.6-5.3c-29,21.7-58.5,29.9-87.8,38.8c-5.7,1.8-14.7,0.5-16,8.4
		c-1.2,6.6,8.5,6.9,10.9,12.3c-50.1-4.5-95.4-22.7-136.2-51c-50.1-34.7-88.8-112.2-64.6-191.5c1.1-3.7,1.9-7.5,2.9-11.3
		c11,9.3,8.5,23.5,12.5,35.3c6.1,17.6,8.3,41.2,27.6,45.6c17.5,4,25.6-17.8,35.8-30.6c17.3-21.5,34.9-42.7,58-61.1
		c0,13.1-0.1,23.9,0,34.6c0.1,11.7,5.5,15.8,15.9,9.8c17.6-10.1,37.2-14.9,55.7-22.7C324,649.1,327.4,646.6,331.8,647.9z"/>
	<path class="st33" d="M171.8,312.5c-6.4-4.1-12.9-8.2-19.3-12.2c-6.4-13.7,2.3-14.5,11.7-12.7c11.9,2.3,23.2,7.2,35.3,9
		c3.4,0.7,6.7,2,10,3.3c0.3,0.1,0.9,0.3,1.7,0.5c1.7,0.3,1.7,0-0.2-0.8c-10-3.7-18.9-9.1-27.6-14.8c-5.3-3.5-13.4-6.6-10.9-14.1
		c2.3-6.9,10.9-5.8,17.2-6c11-0.3,22.1-0.4,34,0.3c-11.1-9.3-24.7-14-34.4-24.1c-12.5-13.1-11.6-23.5,3.5-33.5
		c15-9.9,32.4-15.7,49.4-25.4c-8.2-6.5-16.6-7-24.6-8.2c-27.5-4.1-27.6-4.1-19.6-29.2c-15.6,2.9-29.8,9.1-44.5,14.1
		c-26.6,9.1-37.1-0.1-32-27.7c0.8-4.5,2.2-8.8,3.8-13.1c3-7.1,6.8-13.7,11.3-20c15.1-15.3,33-25.3,54.6-27.8
		c18.5-2.9,37.1-6,55.8-1.7c8.1,1.9,18.4,2.9,19.4,13.1c1,9.4-9,11.5-15.4,15.4c-3.9,2.4-8,4.2-13.9,6.6c24.9,1.1,47.9,6,71.4,4.7
		c6.5-0.3,13,0.8,19.2,2.7c4.4,1.3,9.9,2.3,11.3,6.7c2,6.1-4.2,8.8-8.1,11.9c-10.1,7.9-21,15-35,25.2c18.5,0.4,32.6-0.2,46.7,0.4
		c8,0.4,18.9-2.2,21.5,8.4c2.4,9.7-7.1,14.4-13.9,19.2c-13.2,9.4-27.1,17.9-42.7,25.7c15.8,2.4,31.3-0.4,45.8,4.7
		c13.2,4.7,16.2,11.4,6.3,21.3c-42.9,43.4-92,76.1-154.1,85C193.7,321.1,183,315,171.8,312.5z"/>
	<path class="st34" d="M171.8,312.5c60,8.7,107.6-18.7,152.6-53.1c11.3-8.6,21.6-18.5,32-28.2c7-6.4,8.5-10.7-3.8-13.3
		c-10.3-2.2-20.4-2.9-30.8-3.1c-7.6-0.1-15.5,0.9-22.4-5.9c17.6-11.2,34.9-22.3,52.2-33.3c4.4-2.8,10.5-5.9,9.4-11.2
		c-1.3-6.7-8.6-4-13.3-4.1c-19.5-0.3-38.9-0.1-62.9-0.1c15.6-19.3,35.7-27,53-42.2c-38-7-75-5.6-113.3-9.8
		c6.6-9.8,17.6-11.1,25.6-16.7c4.5-3.2,13.8-3.3,12.9-9.7c-1-7-9.9-6.1-15.8-8.1c-18.5-6.2-37.4-2-56.1-3.6
		c18.6-8.9,38.7-7.6,58.5-8c7.2-0.7,15.5-6.5,20.2,4.5c18.1,14.2,40.6,10.9,61.1,15.1c22.1,4.5,44.8,5.8,70.1,8.8
		c-12.9,4.9-23.3,8.6-33.5,12.7c-4.9,2-9.5,5.4-9.9,11.1c-0.4,7,6.3,7.6,10.7,9.3c10.3,3.8,20.9,6.8,33.2,10.7
		c-7.9,6.2-15.5,10.8-21.4,17c-6.7,7-6.9,13.5,4.8,16.7c15.9,4.4,32.1,3.2,50.9,3.8c-13.7,12.8-28.8,18.9-42.9,26.7
		c-7.4,4.1-19.4,6.3-16.3,18.1c2.9,10.8,13.7,9.9,22.9,10.1c3.6,0.1,7.6-1.7,12.5,3.2c-54.6,33.6-103.3,76-166.2,94.1
		C219.3,331.6,195,326.6,171.8,312.5z"/>
	<path class="st35" d="M129.1,117.5c-0.6,13.1-12.4,29.1,0.2,38.4c11.5,8.6,25.3-4,38-7.8c13.4-4.1,27-7.7,44.4-12.6
		c-4.3,6.6-6.1,9.2-7.8,11.9c-11.3,18.4-11,18.9,10,20.7c13.5,1.2,26.4,4.7,40.8,11.3c-14.2,13.5-32.4,15.5-46.6,24.9
		c-8.9,5.9-24,7.2-24.2,19.9c-0.2,11.7,12.5,16.9,21.7,22.8c9.8,6.3,19.5,12.7,32.7,21.4c-23.3,0-42.8,0-67.1,0
		c16,15.1,30.6,23.2,46.8,28.9c-2.6,10.4-9.5,4.5-15,4c-13.8,0.6-26.5-4.6-39.2-8.7c-8.4-2.7-12.2-1.6-11.3,7.8
		c-23-17.7-39.1-40.6-51.2-66.6c-20-42.7-11-91.3,23-124.9C131.4,108.5,131.5,112.3,129.1,117.5z"/>
	<path class="st36" d="M269.9,66.6c-5.6-6.7-13.5-2.8-20.2-4.5c8.6-6,18.2-2.7,27.7-3.3C277.4,64.6,272.6,64.6,269.9,66.6z"/>
	<path class="st37" d="M129.1,117.5c-0.4-3.6-1.2-7-4.9-8.7c2.7-5.2,6.5-9.2,12.4-10.9C135.3,104.9,133.8,111.8,129.1,117.5z"/>
	<path class="st33" d="M742.3,542.5c-2.3-22.5,1.3-43.6,15.1-62.2c6.3-7.4,11.6-15.7,18.6-22.5c4.2-4,9.2-9,15.3-5.4
		c5.3,3.1,2.7,9.4,2.5,14.4c-0.1,2.6-0.7,5.2-1.2,7.7c0.3,2.8-3.6,5.4-1.1,8.1c1.7,1.9-1.3,0.2,0.9-1.5c13-17.3,25.2-35,41-49.6
		c3.7-3.4,8-8.1,13.6-5c4.6,2.5,3,8.1,2.6,12.5c-0.7,7.8-0.8,15.5-1.2,25.5c8.3-8.5,13.1-17.5,20-24.5c4.1-4.1,8.4-9,15.1-6.1
		c6.2,2.7,7,8.8,7.8,14.7c1.2,9.8-3.4,19.1-2.3,30.5c8-4.8,11.7-12.5,17.6-17.8c8-7.3,14.4-5.6,17.8,4.2
		c10.4,30.1,5.4,120.8-29.4,144.5c-8.2,6.1-16.9,10.9-27.5,10.9c-0.2-13.3-0.2-13.3,20.7-28.1c-8.5,0.5-19.1,9.8-24.3-0.6
		c-5-10.1,6.9-16.8,11.9-24.7c-0.5-1.4-1.4-1.2-3-0.6c-37.9,14.7-43.4,10.2-37.7-30.1c0.8-5.6,3.6-11.1,0.9-17.9
		c-12.5,5-20.3,29-37.9,9.2c-5.4,8.6-7.1,16.9-9.6,24.9c-2.8,8.9-5.9,18-16.8,19.1c-10.5,1.1-16-7.2-21.9-14
		C745.8,553.7,745.9,547.2,742.3,542.5z"/>
	<path class="st38" d="M894.9,610.1c28.1-41.9,32.5-88.6,26.9-137.1c-0.6-5-0.6-11.6-6.4-12.6c-4.7-0.9-6.8,5-9.3,8.7
		c-5.4,8.1-12.1,14.9-21,21c-6.8-14.7,3.1-28,1.6-41.6c-0.5-4.5,0.5-10.1-4.4-12c-5.2-2-7.9,3.5-10.6,6.7
		c-8.6,10-14.4,22.4-27.4,32.9c-0.5-17.4-1.8-31.9,3.2-50c-24.2,18.5-37.8,41.7-54.6,62c-9.6-1.1-5.1-6.9-3.9-11.7c0-7,0-14,0-21.9
		c-13.4,4.7-18.7,20.1-31.6,25.7c6.4-16.3,14.2-29.7,31.9-38.3c20.3-9.9,34.4-29.1,49.5-45.9c2.9-3.2,4.3-8.2,10.1-7.8
		c0.8,1,1.9,1.9,2.1,2.9c1.1,7.3-8.6,17.8,0.3,21.1c12.7,4.7,20-8.3,28-16.3c1.2,1.4,3,2.7,3.4,4.3c1.7,7.9-4,20.3,5.5,22.7
		c10,2.5,16.1-8.8,21.9-16.6c3-4.1,6-8.1,10-13.5c4.6,13.3-1.2,24.1-1.7,35.1c-0.3,6.7-4.5,15.7,3.3,19.7c8.3,4.3,12-5,17-9.5
		c1.7-1.6,2.3-4.9,7.4-3.8c-5.2,44.5-1.2,90.3-16.2,133.9C923.5,586.5,914.2,602.5,894.9,610.1z"/>
	<path class="st39" d="M742.3,542.5c7.9,4.2,10,13.3,16,19.2c12,11.9,19,10.6,24.4-5.9c4.2-12.8,7.1-26.1,15-38.6
		c22.2,37,27.4-13.2,45.2-6.8c3.1,12.5-3,25.3-4.9,38.2c-3.3,22.5-0.3,25.7,21.7,18.3c7.9-2.6,15.6-5.7,26.5-9.7
		c-4.4,15.7-18.6,22.3-21.7,36c12.3,1.6,21-7,34-9.5c-4.4,10.5-11.8,15.9-19.1,21.5c-5.4,4.2-13.3,6.6-12,15.9
		c-36.8,9.7-70.6,4-100.9-19.7C752.9,583.9,741,565.9,742.3,542.5z"/>
	<path class="st40" d="M175.3,648.3c-11.9-34-0.4-65.2,27-78c4.4-2.1,9.3-6.9,14.2-2c4.9,4.9,0.2,9.9-2.4,14
		c-6.6,10.4-14.2,20.1-20.5,30.7C187.5,623.4,182.3,634.6,175.3,648.3z"/>
	<path class="st41" d="M361.7,727.8c12.9-21.7,28.1-33.7,47.8-40.3c3.4-1.1,7.8-3.5,10.7,0.5c3.3,4.6,0,9.1-2.6,12.3
		C404.8,716.4,386.4,722,361.7,727.8z"/>
	<path class="st42" d="M311.3,606c8.4-19.3,18.1-31.3,29.5-42c3.1-2.9,6.9-7.1,11.6-2.3c3.9,3.9,0.1,7.6-1.8,10.3
		C341.4,585.3,330,596.3,311.3,606z"/>
	<path class="st43" d="M331.8,647.9c-3.8,1-7.6,2-11.4,3C322.5,643.4,326.4,642.9,331.8,647.9z"/>
	<path class="st43" d="M332,777.4c-6.4-0.2-12.9-0.4-19.3-0.5C319.3,771.8,325.8,771.5,332,777.4z"/>
	<path class="st44" d="M162.9,122.7c13.7-30.9,27-37.6,51.6-27.5C197.6,104.2,182.2,112.4,162.9,122.7z"/>
	<path class="st45" d="M283.4,227.9c-13.8,11.3-27.5,6.6-42,1.9C255,220.4,267.1,219.8,283.4,227.9z"/>
	<path class="st46" d="M291.8,134.3c-13.5,13-26.9,9.7-38.5,12.8C262.4,136.4,274,132.8,291.8,134.3z"/>
	<path class="st47" d="M203,301.3c4.9-1.8,11.2,1.6,15-4c3.3,1.8,11,3.7,1.4,6.9C214.5,305.8,207.8,306.1,203,301.3z"/>
	<path class="st48" d="M767.7,535.4c-8.6-18-10-31,5.7-44.2C775.5,506.6,771.4,518.9,767.7,535.4z"/>
	<path class="st49" d="M867.4,537.3c2.4-15.2,8.6-22.2,18.5-29.6C887.3,522.8,879.6,528.8,867.4,537.3z"/>
	<path class="st48" d="M824.4,486.9c0.1-5.9-1.2-12.6,6-16.9C834.8,478.2,828.2,482.2,824.4,486.9z"/>
	<path class="st50" d="M788.9,476.5c0.4,4.2-0.7,8.9,3.9,11.7c-1.7,1.7-3.4,3.4-5.1,5C782.8,487.2,784.2,481.7,788.9,476.5z"/>
</g>
</svg>
