<?xml version="1.0" encoding="utf-8"?>
<!-- Generator: Adobe Illustrator 23.0.1, SVG Export Plug-In . SVG Version: 6.00 Build 0)  -->
<svg version="1.1" id="Layer_4" xmlns="http://www.w3.org/2000/svg" xmlns:xlink="http://www.w3.org/1999/xlink" x="0px" y="0px"
	 viewBox="0 0 1000 1000" style="enable-background:new 0 0 1000 1000;" xml:space="preserve">
<style type="text/css">
	.st0{fill:#220300;}
	.st1{fill:#3F6F2E;}
	.st2{fill:#1E3718;}
	.st3{fill:#D19E72;}
	.st4{fill:#2A491E;}
	.st5{fill:#816851;}
	.st6{fill:#0F290D;}
	.st7{fill:#4D3F34;}
	.st8{fill:#806750;}
	.st9{fill:#806751;}
	.st10{fill:#D09D71;}
	.st11{fill:#4B3D33;}
	.st12{fill:#CF9D71;}
	.st13{fill:#4C3E33;}
	.st14{fill:#2D5325;}
	.st15{fill:#030101;}
	.st16{fill:#800000;}
	.st17{fill:#69A45A;}
	.st18{fill:#68A459;}
	.st19{fill:#456D3B;}
	.st20{fill:#68A359;}
	.st21{fill:#030502;}
	.st22{fill:#2C5124;}
	.st23{fill:#030602;}
	.st24{fill:#0C0A07;}
	.st25{fill:#271E17;}
	.st26{fill:#7C6A56;}
	.st27{fill:#E6D6C1;}
	.st28{fill:#BDA587;}
	.st29{fill:#BDA586;}
	.st30{fill:#816F5B;}
</style>
<g>
	<path d="M883.2,175.7c10.2-0.8,19,1.8,28-2.2c11.2-4.9,24-1.8,28.6,8c4.3,9-8.3,15.6-14.9,19.8c-28.5,18.4-57.4,36.4-87.5,51.8
		c-16.9,8.7-31.2,19.1-44.2,34.9c14.8,2.7,27.6,9.4,42,8.8c5.1-0.2,9.5,1.2,11.6,5.4c2.7,5.4-2.7,8-5.7,11
		c-36.4,35.4-78.7,62-128.4,72c-23.4,4.7-34.9,13-37,36.5c-2.5,28.1-20.4,43.7-46.4,51.1c-11.2,3.2-18.9,8.5-23.4,20.7
		c-12.9,34.6-33.2,64.3-64.7,85c-7.7,5-7,12.2-5.8,18.9c11.9,65.2-3.2,126-31.9,183.5c-21.8,43.6-62.4,68.6-102.5,93.5
		c-35.4,22-73.5,32.2-114.9,32.1c-45.4-0.1-83.5-17.7-116.2-47.5c-23.1-21-46.6-43.2-54.4-74.4c-7.2-28.3-6.5-57.5-3.2-87.4
		c4-36.8,15.7-69.3,31.7-101.9c18.7-38.3,47.8-65.4,82.7-87.2c44.3-27.5,93.9-39.6,145.2-42.6c25-1.5,35.6-18.6,46.8-35
		c13.4-19.6,30.7-34.5,49.8-47.1c12-7.8,18.2-18,19.5-30.5c3.3-31.1,19.3-50.1,49.6-56.4c16.6-3.4,21.3-13.3,21.3-28.9
		c-0.1-23.7,7-46,16.8-67.2c9.7-21.1,16.4-24,35.4-12c16.3,10.3,20.6,4.3,26.1-10.7c11.9-32.7,31.3-60.5,60.4-80.8
		c4.2-2.9,7.6-7.1,11.3-10.7c17.8-17.7,21.4-17.5,30.4,6.9c8.9,24,16,48.8,22,73.7c2.2,9.1,3.9,10.7,12.1,7.3
		c30.6-12.5,63.8-14.1,95.6-21.3c6.2-1.4,14.4-3.4,19.8,3.9C894.7,164.5,886.3,169.1,883.2,175.7z"/>
	<path class="st0" d="M519.6,632.9c7.2,25.4-0.9,49.8-6.2,73.9C492,803.3,424.2,856,335.7,884.2c-105.4,33.6-195.6-51.4-209.4-130.6
		c-7.4-42.7,5.4-84.6,21.1-124.7c5,0.3,10-11.3,15.1-0.1c-4.9,24-13.8,46.9-17.8,71.1c-4.7,28.5-6.1,56.5,9.3,82.7
		c14,23.9,17.6,25.3,43,15.4c10.6-2,16.6,5.4,23.5,11.3c24.3,21,51.7,36.9,81.6,48.6c8.3,3.3,15.9,2.7,24.3-0.9
		c59.5-25.4,103-66.3,128-126.8c5.9-14.3,4.9-21.9-8.8-29.9c-33.1-19.4-64.3-41.7-93.3-67c-7.4-6.4-14.7-12.9-20.7-20.6
		c-3.4-4.4-8.2-9.7,0-14.5c11.7-3.6,23.5-2.5,35.3-0.7c23,5.2,46.6,0.8,69.8,5.4c19.1,3.8,38.4,6.8,57,12.9
		C503.8,619.2,513.9,622.7,519.6,632.9z"/>
	<path class="st1" d="M366.8,601.9c-12.9,0-25.8,0.1-38.6,0.1c-10-0.6-12.2-8.3-14.3-16c0.5-11.3,8.6-18.6,14.8-26.8
		c8.2-10.9,17-21.4,25.4-32.1c4.8-6.2,10.2-13.2,5.1-21.2c-4.7-7.2-12.8-4.7-19.8-3.6c-46.6,7.4-88.6,25.1-125.3,55.1
		c-21.4,17.4-33.9,40.7-44.4,65.4c-2.2,3.7-5.2,5.4-9.5,3.5c-4.6-0.8-7.2,8-12.7,2.6c32.7-85.6,100.3-125.1,185.9-140.8
		c19.8-3.6,39.4-7.6,59.7-8.4c7.7-0.3,14.9-3,19.2-11c18.7-34.6,46.7-60.4,79.4-81.3c9.6-6.1,12.3-13.1,12.1-24
		c-0.4-26,12.7-42.2,39.1-51c6.8-1.5,14.5-6,17.6,5.2c-0.2,2.1-1.2,3.7-2.9,4.9c-6.2,3.4-13.3,4.2-19.6,7.6
		c-18.1,9.8-21.9,25.3-18.1,44c-0.1,1.9-0.4,3.7-0.9,5.4c-5.3,9.3-16.3,16.4-7.9,30.4c3.5,5.8-0.1,14.6-4.9,19.9
		c-10.2,11.1-13.2,21.6-1.5,33.5c2.3,2.3,2.1,6,1.3,9.3c-19.7,20.7-32.9,47-55.9,64.9c-16.1-2.6-21.1-17.3-29.5-26.9
		c3.5,12.3,16.7,19.8,20.1,33.4c0.2,4.1-1,8-4,10.5c-18.1,15.5-36,31.3-55.4,45C377.1,602.3,372.3,605.1,366.8,601.9z"/>
	<path class="st2" d="M617.5,347.5c12.6,3.7,19.5,14,26.9,23.7c6.3,8.8,11.7,17.9,9.8,29.4c-16.2,7.8-33,14.3-46.2,27.3
		c-6.8,6.7-11.8,13.8-9.5,24c-12.8,6.6-10.2,22.9-20,31.5c-27.6,14.9-45.4,13.3-68.5-6.4c-6.4-9.9-4-17.5,5-24.8
		c9-7.3,17.5-15.1,26.3-22.6c8-3.2,12.8,3.8,19.1,6c-5.1-5.1-11.6-9.4-11-18.1c11.5-22.4,25.4-42.9,45-59
		C601.1,353,607,345.1,617.5,347.5z"/>
	<path class="st3" d="M593.4,309c-19.8-5.7-24.8-18.1-20.4-37.9c4.1-18.3,6.8-36.9,13.6-54.6c5.7-14.8,11.6-18,26.3-8.5
		c52.3,33.9,106.5,64.8,163.9,89.5c0.1,8.8-7.1,10.4-13.1,11.5c-39.5,7.4-78.2,17.6-115.9,31.5c-3.7,1.4-7.7,0.9-11.5-0.3
		c-4.6-1.8-8.5-4.4-10.9-8.8c-1-1-1.4-2.1-1.1-3.2c0.3-1.1,0.5-1.7,0.8-1.7c31-16.8,64.4-26.3,98.9-32.4c1.5-0.3,2.6,0,3-0.4
		c-0.5-0.2-1-0.4-1.7-0.6c-31.4-8.5-60.8-21.6-88.5-38.2c-20.5-12.3-27-9.7-30.3,13.8c-1.4,10.2-3.2,20.4-4.7,30.6
		C601.3,303.7,601.5,310.4,593.4,309z"/>
	<path class="st4" d="M617.5,347.5c-22.1,14-41,31-53.7,54.5c-3.2,5.9-5.8,13.3-13.3,16.1c-12,3.1-16.8-7.3-23.3-11.8
		c3.9,7.5,17.1,10.4,15.8,23.2c-3.2,14.7-18.7,17.7-26.8,27.9c-4.2,5.2-9.6,8.1-4.6,15.3c-2.6,2.4-5.3,2-7.9,0
		c-0.2-1.3,0.2-3.1-0.5-3.7c-14.8-14.1-18.4-27.6-0.2-42.3c4.7-3.8,8-13.5,4.1-17.7c-13.9-15.6,0-21.4,8.5-29.6
		c14.3,3.9,24.9,2.2,29.1-15.2c2.2-8.9,11.3-13.6,19.2-18.3c16.9-10,16.8-10.8,0.7-20.7c-2.2-1.4-4.4-2.6-5.9-4.9
		c-1.5-10.4-10-6.6-16-7.8c11.4-8.2,23.4-4,32.6,1.9C590.4,323.9,606.1,333.2,617.5,347.5z"/>
	<path class="st5" d="M593.4,309c7.5-14,6-29.7,8.1-44.7c3.3-24,13.2-30,32.9-16.8c29.9,20,64.1,30.3,96.5,44.6
		c-14.9,6.5-31.1,7.3-46.7,10.3c-22,4.3-41.8,13-59.3,27c0.8,0.5,1,1.1,0.6,1.9C614.7,324,604.1,316.5,593.4,309z"/>
	<path class="st6" d="M652.2,402.4c-2.6-10.4-5.1-20.8-7.7-31.3c15.1,10.6,24.2,25,18.4,43.2c-7.5,23.2-22.4,42.2-48.1,45.6
		c-12.8,1.7-17.4,6.5-21,17.5c-12.3,38-33.5,69.9-68,91.6c-6.2,3.9-6.3,9.1-6.3,15.1c0,16.3,0,32.5,0,48.8
		c-7.9-4.1-15.9-8.1-23.8-12.2c-8.6-16.7-0.1-34.2-2.3-51.2c-0.6-4.3,4.1-7.9,8.2-10.1c27.8-15,46.7-38.6,63.4-64.4
		c3.6-5.5,8.6-9.6,13-14.4c5.6-11,0.8-28.6,19.7-31.3c3.1-4.7,8.3-6.1,13.1-7.6c16.9-5.3,30.5-13.9,34.7-32.8
		C646.2,405.7,649.1,403.7,652.2,402.4z"/>
	<path class="st7" d="M820,179.4c15.4-6.6,31.9-7.8,52.7-13c-31.6,40.1-60,75.9-88,112.1c-5.2,6.7-10.4,4.2-15.4,1.9
		c-9.4-4.2-18.4-9.3-27.6-14.1c24.4-24,45.5-51.3,72.8-72.5C818.9,190.3,827.8,187.9,820,179.4z"/>
	<path class="st7" d="M796.6,305c8-1.1,14.7,2.5,24.6,5.7c-44.5,33.7-90,58.3-143.4,65.3c-13.6,1.8-17.6-12.7-25.4-20.6
		c8.1-8.9,19.9-8.9,30.2-12c33.5-10,67.1-20.1,98.9-34.7C786.4,306.4,791.5,306.1,796.6,305z"/>
	<path class="st8" d="M820,179.4c4.4,0.5,8.7,0.9,19.8,2.1c-41.8,23.5-61.5,63.2-98.1,84.9c-10.3-5.4-20.6-10.7-31-16.1
		c20.5-26,45.5-46.7,74.1-63.1C796,182,808.2,181.6,820,179.4z"/>
	<path class="st9" d="M796.6,305c-44.7,26.4-94.3,38.8-144.1,50.4c-5.4-5.1-10.7-10.1-16.1-15.2c39.6-17.3,81-28.2,123.5-35.5
		c6.4-1.1,12.9-1.2,17-7.2C783.4,300,790,302.5,796.6,305z"/>
	<path class="st10" d="M656.4,218.6c-10.4-4.7-13.3-10.4-8.6-22.6c13.8-35.6,33.5-66.4,63.5-90.3c10,4.1,4.2,10.1,1.1,14.6
		c-13,19-21,40-25.2,62.5c-1.2,2.2-2.3,4.5-3.6,5c11.5-5.4,24.8-9.5,38.7-11.3c1.9,0.5,3.5,1.4,4.9,2.8c0.7,5.6-3.4,7.9-7.1,10.3
		C700.5,202.9,678.6,211.1,656.4,218.6z"/>
	<path class="st8" d="M656.4,218.6c19.7-19.6,50.5-19.1,70.1-38.7c0.1-7.2,4.7-6.5,8.7-4.2c6.7,3.8,6.9,9.7,3.3,15.9
		c-6.9,8.1-21.4,11.8-15.9,27.1c-0.4,13.3-10.2,19.8-19.3,26.9C687.7,236.7,672.1,227.7,656.4,218.6z"/>
	<path class="st8" d="M684.1,184.1c-0.2-25,10.7-45.9,24.1-65.9c2.4-3.6,9.4-6.5,3.1-12.4c2.1-4.1,5.3-9.2,9.7-7.7
		c6.4,2.1,5,9.4,5.9,14.9c3.3,11.8,4.1,24,5,36c0.8,10.1,1.4,21-10.2,26.8C709.7,180.5,698.1,187.7,684.1,184.1z"/>
	<path class="st11" d="M915.4,191.9c-28.8,16.7-57.5,33.4-86.3,50.1c-0.8-0.8-1.6-1.5-2.5-2.3c11.1-14.2,20.6-30,33.7-42.1
		c14.9-13.7,36.3-1.6,53.4-10.2C914.3,188.9,914.8,190.4,915.4,191.9z"/>
	<path class="st12" d="M703.4,245.7c2.9-11.5,15.1-16.4,19.3-26.9c15.8-20.1,38.7-26.4,62.1-31.7c-10.5,17.2-30,24-44.2,37.1
		c-9.6,8.8-14,24.4-29.9,26.1C708.3,248.7,705.8,247.2,703.4,245.7z"/>
	<path class="st13" d="M718.4,175.3c8.7-5,8.6-13.2,8.5-21.8c-0.3-13.5,0-27,0.1-40.6c9.2,20.4,13.4,42.3,20.3,63.3
		c3.2,9.9-1.8,12.5-8.7,15.3c-0.8-7.2,1.4-17.5-12-11.7c-1.4-0.2-2.7-0.5-4.1-0.7C721,178,718.7,177.8,718.4,175.3z"/>
	<path class="st14" d="M578,480.6c-16.5,34.1-38.7,63.3-72.6,81.8c-5.9,3.2-11.1,6.9-8.7,12.8c6.2,15.6-2.8,30.4-1,45.6
		c-42.1-12.4-85.8-13.5-128.9-18.8c26.7-15.8,51.4-34.1,70.6-58.8c11.6-3.2,17,9.5,25.4,9c-4.6-3.7-15.6-4.9-13.9-16.7
		c13-16.3,25.9-32.7,39.2-48.7c4.4-5.3,10.3-9.4,15.6-14c2.6,0,5.3,0,7.9,0C531.7,492.4,554.3,491.3,578,480.6z"/>
	<path class="st15" d="M316.4,585.9c3.9,5.4,7.9,10.7,11.8,16.1c33.8,39.4,76.4,67.7,120.1,94.3c15.4,9.3,19.3,16.3,11.3,34.7
		c-25.3,58-65.3,99.2-122.5,126.8c-23.5,11.3-41,5.3-59.7-5.1c-24.9-13.8-50.2-27.2-69.8-48.8c-1.9-2.1-5.9-2.2-8.9-3.2
		c-22.8-16.8-38.4-39.5-51.7-63.9c-4-7.3-1.3-15.2,0.5-22.7c9.4-39.3,29.5-72.7,55.8-102.8c17-23.6,40.4-40,64.3-55.6
		c17.5-11.4,22-10.2,35.3,6.9C308.5,569.7,314.2,576.8,316.4,585.9z"/>
	<path class="st16" d="M206.8,613.5c-24.1,29.1-43.2,60.8-53.9,97.4c-4.1,14.1-3.3,25.9,6.3,37.7c13.7,16.9,26.4,34.7,39.6,52.1
		c-23.8,15.8-31.2,13.3-46.3-10.2c-25.7-39.8-15.4-80.9-6.1-121.9c3.3-14.4,9.1-28.2,13.8-42.3c2.7-1.4,5.3-2.7,8-4.1
		C179.3,611.7,191.7,606.6,206.8,613.5z"/>
	<path class="st17" d="M206.8,613.5c-12.9,2.9-25.8,5.8-38.6,8.7c4.3-29.6,21.8-51.4,43.7-69.5c37.4-30.8,81-48.2,128.5-55.9
		c8.4-1.4,19.2-4.7,24.9,5c5.7,9.8,0.2,19-5.8,26.8c-14.6,18.9-31.9,35.8-43.1,57.2c-3.5-3.7-7.3-7.1-10.4-11.1
		c-20.8-26.9-20.8-27-49.3-6.6C238.3,581.4,221.4,596.2,206.8,613.5z"/>
	<path class="st18" d="M478.6,413.2c6.8,40.2-0.6,54.6-36.7,72.3c-5.7,2.8-11,4.1-16.2-0.2c-4.2-3.4-3.5-7.7-2.1-12.4
		C429.2,453.9,459.6,420.7,478.6,413.2z"/>
	<path class="st19" d="M558.9,320.1c4.9,1.3,10,2,14.6,4c5.3,2.3,10.9,5.5,10.9,12.1c0,6.2-6.4,7.5-10.8,9.7
		c-11.5,5.8-23.6,10.7-27.3,25c-5,19.6-6.8,27.5-30.6,8.3c0-1.4-0.1-2.8-0.1-4.2c18.1-14.6,25.5-36.9,39-54.7
		C556.1,320.3,557.5,320.2,558.9,320.1z"/>
	<path class="st20" d="M554.7,320.3c-7.8,21.9-13.8,45.2-39,54.7C510.1,342.4,522.2,325.6,554.7,320.3z"/>
	<path class="st21" d="M449,535.3c5.3,10.5,17.5,12.9,25.9,22.6c-15.5-0.3-26.4-7.7-37.5-14.8c-9.7-13.7-24.2-25.1-22.5-47.5
		C427.5,510.1,434.8,525.8,449,535.3z"/>
	<path class="st22" d="M652.2,402.4c-4.3,31.8-26.1,43.1-54.5,46.9c-3.1-0.7-7.1-0.8-6.5-5.4C593.5,426.7,634.6,398.8,652.2,402.4z"
		/>
	<path class="st23" d="M543.1,429.5c-7.5-12.5-23-19.1-26.8-38.2c13.3,9.4,21,22,34.3,26.8c7.2,8,14.4,16.1,23.1,25.8
		C558.9,445.2,552.6,433.9,543.1,429.5z"/>
	<path class="st24" d="M624.9,329.5c13.5-20,34.1-28.1,56.5-32c16.3-2.8,33-3.7,49.5-5.4c2.9,0.5,5.9,1,8.8,1.5
		C699.2,300.2,662.2,315.5,624.9,329.5z"/>
	<path class="st25" d="M718.4,175.3c1.3,1.3,2.7,2.6,4,3.9c-12.4,6.5-26.3,7.9-39.5,11.4c-1.2,0.3-6,1.9-2.9-2.9
		c1-1.5,2.7-2.5,4.1-3.7C695.6,181.2,707,178.3,718.4,175.3z"/>
	<path class="st26" d="M391.5,674.9c17.5,11,35.1,22,52.7,32.9c5.5,3.4,8.3,6.3,4.8,13.8c-24.8,52.9-57.5,97.6-112.9,123.2
		c-17.9,8.3-32.1,9.6-48.4-0.2c-8.8-5.3-18.8-8.6-26.2-16.3c5-11,17.4-10.3,25.6-16.1c3.6-2.6,9.2-3.7,8.6-9.4
		c-0.5-4.5-5.2-5.4-8.8-6.6c-18.7-6.3-23.7-26.8-39-37.1c-5.9-3.9,0.7-8,5.4-7.9c12.2,0.4,23,5,30.7,14.6c8,10,19.5,15.1,29.1,22.6
		c9.8,7.6,18.4,2.9,22.6-5.9c4.9-10.3-6.2-10.7-12.1-13c-8.9-3.5-16.2-8.2-19.7-17.5c-2.2-5.8-6.7-9.2-11.9-12.2
		c-22-12.8-38.1-30.6-45.8-55.4c-1.7-3.4-3.8-6.6-5.8-9.8c-3.4-5.4-7.3-11.4-0.9-16.9c6.7-5.7,11.5,0,16.3,4
		c11,28.8,34.7,46.5,56.1,66.6c11.4,10.7,20.8,22.8,36.5,27.8c5.1,1.6,9.6,4.5,14-0.9c3.6-4.4,4.9-9.4,1.8-14.5
		c-7.9-13.1-13.2-27-29.3-34.8c-17.2-8.3-30.3-24-43.8-37.8c-7.1-7.2-13.5-15.6-20.3-23.5c-2.3-6.6-5.8-13.8,6.5-13.3
		c33.7,27.7,67.2,55.7,103.4,82.5C391.9,704.3,379.4,685.5,391.5,674.9z"/>
	<path class="st27" d="M277,633.3c-12.7-0.1-0.8,8.1-3.8,11.3c-2.4,10.7-4,22.2-19.6,19.9c-4.4-2.7-8.5-10.2-14.2-3.4
		c-3.8,4.5,1.6,8,4.5,11c3.1,3.3,6.3,6.4,5.6,11.5c-5.3,34.4-22.6,64.7-33.9,97.1c-1.2,3.5-4.5,6.5-9.3,5c-3.6-3.6-7.5-7-10.9-10.8
		c-42-47.9-42.3-42.5-12.1-104.9c19.1-39.5,49.3-69.4,85-94.6c12.5-8.8,18.5-6.8,25.4,4.6c3.7,6,8.2,11.6,12.3,17.3
		C298.3,610.8,293.1,626.5,277,633.3z"/>
	<path class="st28" d="M206.3,785.8c15.7-24.6,20.6-53.6,32.6-79.7c3.4-7.5,4.1-16.4,10.5-22.5c11.7,22.8,24,44.9,50.2,54.4
		c3.2,1.2,7.6,4.9,7.8,7.8c1.2,14.1,10.5,17.9,22.1,20.3c6.8,1.4,16.4,4.9,16,11.6c-0.6,9-10.5,13.8-17.9,19.1
		c-6.7,4.8-10.6,0.6-16.7-2.8c-21.1-11.8-33.5-37.6-61.5-38.6c10.7,6.4,19.1,14.5,24.2,26.1c3.8,8.6,12.7,10.3,21.2,11.9
		c4.9,0.9,8.3,3.9,9.1,9c0.8,5.4-2.7,8.3-7.1,10.3c-11.8,5.3-23.7,10.5-35.5,15.8C239.4,818.9,223.5,801.5,206.3,785.8z"/>
	<path class="st28" d="M277,633.3c10-11.7,15.1-27.4,29.1-35.9c26.8,27.7,55.6,53.2,85.4,77.6c-1.7,12.8,1.1,26.1-3.8,38.6
		c-1.5,3.9,0.5,10.3-5.4,11.3c-5,0.9-8.6-3.7-10.6-7.4c-12.7-23.4-39.9-29.3-56.9-47.7C303,656.8,287.6,647.5,277,633.3z"/>
	<path class="st29" d="M253.6,664.5c11.4-1.8,11.7-14.6,19.6-19.9c4.8,3.2,11.1,5.3,14.1,9.7c16.1,22.8,36.5,40.1,60.9,53.5
		c18.5,10.1,27.2,41.4,16.5,54c-4.4,5.2-7,4.5-13.9,2.2c-23.4-7.8-40.2-26.1-54.8-42C280.5,705.1,254.6,692.9,253.6,664.5z"/>
	<path class="st30" d="M197.8,704.6c12,3.6,16.4,10.2,21,16.3c2.3,3.1,8.9,6.2,2.6,10.7c-4.9,3.5-8.8-1.5-11.1-4.8
		C206.1,720.8,203,714,197.8,704.6z"/>
</g>
</svg>
