<?xml version="1.0" encoding="utf-8"?>
<!-- Generator: Adobe Illustrator 23.0.1, SVG Export Plug-In . SVG Version: 6.00 Build 0)  -->
<svg version="1.1" id="Layer_4" xmlns="http://www.w3.org/2000/svg" xmlns:xlink="http://www.w3.org/1999/xlink" x="0px" y="0px"
	 viewBox="0 0 1000 1000" style="enable-background:new 0 0 1000 1000;" xml:space="preserve">
<style type="text/css">
	.st0{fill:#0B3376;}
	.st1{fill:#0B3478;}
	.st2{fill:#09337B;}
	.st3{fill:#072F75;}
	.st4{fill:#0D4EB9;}
	.st5{fill:#0C4DB8;}
	.st6{fill:#206BE7;}
	.st7{fill:#578EED;}
	.st8{fill:#9ABCF3;}
	.st9{fill:#206AE7;}
	.st10{fill:#1C61D2;}
	.st11{fill:#1C5FCF;}
	.st12{fill:#A6C4F6;}
	.st13{fill:#CEDFFA;}
	.st14{fill:#2270F4;}
	.st15{fill:#D9E6F9;}
	.st16{fill:#568EEC;}
	.st17{fill:#CFDFF8;}
	.st18{fill:#568DEC;}
	.st19{fill:#D0DFF8;}
	.st20{fill:#8FB5F2;}
	.st21{fill:#90B5F2;}
	.st22{fill:#90B6F2;}
	.st23{fill:#9BBDF3;}
	.st24{fill:#1856BB;}
	.st25{fill:#DAE6F9;}
	.st26{fill:#DBE6F9;}
	.st27{fill:#216BE7;}
	.st28{fill:#226CE7;}
	.st29{fill:#3176E9;}
</style>
<g>
	<path class="st0" d="M886.7,575.2c-0.6,97.6-31.2,183.8-96.2,257.7C732,899.5,658.7,938.1,572.2,953.1
		c-118.5,20.5-225.9-5.6-319.5-81.6c-71.7-58.2-113.2-135.3-131.3-225c-6.9-34.3-4.1-69.5-4.4-104.4c-0.1-9,2.3-18.7,9.9-21.4
		c8.1-2.9,12.8,7.3,17.1,13.2c11.5,15.7,24.3,30.2,40.7,40.4c42.4,26.2,78.1,6.5,107.6-29.6c1.6-1.9,1.9-4.9,3.6-6.6
		c23.5-23.5,19-24.8,38.3,0.2c7.8,10.1,15.2,21,26.7,29.3c47.8,34.8,87.2,16.6,117.8-21.7c24.1-30.2,22-30.1,46.1-0.2
		c32.5,40.4,70.6,57,118.8,20.4c10.9-8.2,19.6-19.7,27.8-30.8c14.9-20.3,16.3-20.2,31.8,0.7c8.2,11,17.6,21.9,28.3,30.3
		c47.4,37.1,86.9,18.2,118.4-21.3c5.2-6.5,10.7-12.7,16.2-18.8c2.8-3.1,5.9-8.9,10.8-5.7c4.5,2.9,9.6,6.5,9.4,13.6
		C886.5,547.8,886.7,561.5,886.7,575.2z"/>
	<path class="st0" d="M499.1,308.6c-37.1,0-74.2-0.8-111.2,0.3c-19.4,0.6-24.8-8.8-24.7-25.4c0.1-22.1-0.6-44.2,0.3-66.3
		c0.5-13.4-3.7-19-17.7-18.2c-16.9,1-33.8,0-50.7,0.3c-11.2,0.2-25.4,0.7-28.3-10.8c-3.1-12.2,9.9-18.9,20-24.7
		c26.2-15.3,52.1-31.1,78.5-45.9c36.3-20.4,73.9-38.6,109.2-60.5c20.9-13,37.3-8.1,55.7,2.4c59.2,33.8,118.7,67,178,100.6
		c6.1,3.4,12.6,6.2,17.1,12.1c3.8,5,11.7,8.5,8.5,15.9c-3.3,7.5-11.1,10.5-19,10.6c-20.8,0.4-41.6,0.6-62.4,0
		c-11.9-0.4-16.2,4.2-15.9,16c0.6,22.1,0.3,44.2,0.2,66.3c-0.1,23.6-3.7,27.2-26.4,27.2C573.3,308.6,536.2,308.6,499.1,308.6z"/>
	<path class="st1" d="M499.7,382.8c-38.3,0-76.6-0.2-114.9,0.2c-9.3,0.1-16.1-1.4-19.3-11.3c-4.7-14.6-3-29.6-1.3-44.1
		c1.1-8.7,11.6-11.1,20.1-11.1c77.2-0.2,154.5-0.3,231.7,0.1c14.2,0.1,21,7.1,21,23.1c0,50.8-5.9,43.4-42,43.2
		C563.4,382.7,531.5,382.8,499.7,382.8z"/>
	<path class="st2" d="M499.1,429.7c-37.6,0-75.3-0.3-112.9,0.2c-14.8,0.2-23.5-4-23.1-20.6c0.4-15.9,9.5-18.8,22.9-18.8
		c75.9,0.3,151.9,0.3,227.8,0c14.8-0.1,23.5,4,23.1,20.6c-0.4,15.9-9.5,18.9-22.9,18.8C575.7,429.5,537.4,429.7,499.1,429.7z"/>
	<path class="st3" d="M502,437.5c37.6,0,75.3,0.2,112.9-0.1c10.8-0.1,21.2,2.1,21.1,13.9c0,11.8-10.5,13.8-21.2,13.7
		c-76.6-0.3-153.2-0.3-229.7,0c-10.8,0-21.2-2.1-21.1-13.9c0-11.8,10.5-13.8,21.2-13.7C424.1,437.7,463.1,437.5,502,437.5z"/>
	<path class="st4" d="M288.4,506.9c-35.4-17.1-73.1-22.5-110.1-30.2c-17.7-3.7-31.6-10.1-38.1-29.5c-5.5-16.3-0.6-29.7,9.8-39.5
		c12.7-12,28.8-16.4,47.3-9.5c30.3,11.3,50.5,33.7,68.2,58.8C275.6,471.4,292.2,483.5,288.4,506.9z"/>
	<path class="st5" d="M304.9,375.1c-3.8,21-3.8,42.9-15.6,62.1c-2.1,3.4-3.7,7.5-7.7,7.6c-5.2,0.1-6.6-4.4-8.3-8.9
		c-7.6-20.5-16.6-40.2-34.3-54.3c-16.7-13.3-20.2-30.3-14-49.9c4.6-14.8,17.4-17.9,30.2-18.9c18.3-1.4,35.9,11.1,43.2,30.8
		C302,353.5,306.1,363.8,304.9,375.1z"/>
	<path class="st5" d="M761.3,503.8c-16.5-10-19-27.4-21.4-41.6c-3.8-22.3-4.6-45.7,6-67.9c8.8-18.4,23.3-23.9,41.8-23.2
		c14.6,0.5,25.2,9.1,27.7,22.3c3.2,16.9,4.3,35-16.1,44.7c-8.6,4.1-11.1,13.5-15.1,21.5C776.8,474.4,769,488.9,761.3,503.8z"/>
	<path class="st6" d="M847.7,707.2c-36.6,99.4-105.3,169.7-202,209.3c-130.1,53.3-254.6,37.3-368.2-46.1
		C221,829,179.1,774.9,155.6,707.9c1.2-5.8,3.6-11.1,7.1-15.9c5.4-7.4,11.3-8.1,17.8-1.4c5,5.1,9.8,10.4,15,15.4
		c34.5,33.4,89.8,31.8,122-3.7c18.4-20.3,20.1-21.6,37-0.9c29.8,36.6,101.9,38.7,132.6-3.1c12.1-16.5,18.3-16.7,29.6-0.1
		c25,36.9,99.3,45.1,133.8,1.7c14.9-18.7,16.9-17.8,32.2,0c33,38.4,92.8,40.1,127.9,3.7c2.3-2.3,4.3-4.9,6.6-7.2
		c12.2-13,16.9-12.7,26.7,1.8C845.7,701,846.3,704.3,847.7,707.2z"/>
	<path class="st7" d="M847.7,707.2c-8.7-3-10.1-13.2-18.5-18.6c-26.2,42.3-64.3,53.4-110.8,41.9c-18.7-4.6-32.3-16.1-42.7-31.8
		c-5.7-8.6-8.6-12.3-17.5-0.9c-39.7,50.9-107.5,50.1-147.5-0.9c-6.8-8.7-12-9.4-17.2,0.1c-24.9,46-109.8,53.4-145.8,3.9
		c-7.6-10.5-12.9-12.3-22.5-0.9c-38.4,45.5-97.9,48.9-136.3,5c-16.7-19.1-23.2-10.7-33.1,2.8c-9.3-20.2-15.3-41.3-18.3-63.3
		c12.3-0.9,20.2,10.2,32.6,10.9c29.1,1.8,51.9-8.1,70.2-30.5c13.7-16.8,16.7-17.9,29.4-0.7c31.8,43.3,108,42,137.5-1.9
		c8.2-12.2,17.2-13.1,25.8-0.3c30.5,45.5,107.5,45.4,138.2,0.4c9.6-14.1,17.5-10.2,27.4,0.9c30.7,34.3,73.2,42.9,108.9,23.4
		c9.9-5.4,17.7-13.1,25.2-21.3c15.7-17.1,16.1-17.4,31-0.3c18.8,21.5,41.2,32.2,70.5,30.4c13.6-0.9,20.7-12.7,32.9-14.5
		C863.1,663.8,858.1,686.3,847.7,707.2z"/>
	<path class="st8" d="M866.8,640.9c-14.1,30.1-71.2,23-93.4,1.6c-8.8-8.5-17.7-17-24.2-28c-46.3,65.9-125.4,60-165.5,0.1
		c-20.4,28-44.3,46.9-82.1,46.6c-37.1-0.3-60.8-18.3-80.4-45.8c-7.8,2.2-9.7,9.3-13.2,14.2c-30.7,42.1-110,41.9-137.4,2.6
		c-9.9-14.3-17.6-19.9-30.4-0.3c-19.9,30.6-77.6,41.8-102.9,12.7c-7-33.3-7.9-67-7.6-106.6c24.3,35.2,50.4,60.6,92.3,60.5
		c42.7,0,69.8-23.9,92.7-59.7c23.4,33.6,49.8,60.3,93.9,59.8c43.7-0.4,70.2-26.1,92.1-60c49,78,136.3,82.1,187.5,2.7
		c45.7,70.9,127.8,82.3,184.9-0.3C874.6,575.9,872.6,608.5,866.8,640.9z"/>
	<path class="st9" d="M285.5,180.6c36.8-20.8,71.7-40.4,106.6-60.1c31.1-17.5,62.3-34.9,93.3-52.6c8.3-4.7,15.8-7.3,25.4-1.8
		c63.8,36.3,127.9,72,191.8,108.1c2.7,1.5,4.7,4.1,7.1,6.1c-3.1,8.2-9.6,6.5-15,6.6c-17.6,0.2-35.1,0.7-52.7-0.1
		c-15.5-0.7-20.9,6.4-20.7,20.9c0.4,22.1-0.6,44.2,0.3,66.3c0.6,15.1-6.5,22.2-20.4,22.2c-67.6,0.3-135.3,0.2-202.9,0
		c-13.7-0.1-21.9-6.2-20.1-21.8c1-8.3,0.2-16.9,0.2-25.3c0-62.1,0-62-61.3-62.2C307.5,186.7,297.5,189.1,285.5,180.6z"/>
	<path class="st6" d="M386.2,367.5c-13.8-7.8-8.3-20.5-6.4-30.9c2-11.2,13-8.7,21.1-8.7c65.7-0.1,131.3-0.1,197,0.1
		c8.1,0,19.3-2.7,21.8,7.8c2.4,10.5,7,23.3-6,31.7c-4.6,2.5-8,2-9.6-3.5c2.4-21.2-2.7-26.3-23.4-19.5c-33.4,11-67.9,16.2-102.5,20.8
		C447.7,372.2,417,369.3,386.2,367.5z"/>
	<path class="st10" d="M386.2,367.5c14.8-0.1,29.6-0.4,44.4-0.3c17.1,0.2,34.3,1.1,49.9-7.8c14.6,4,29.2-0.3,43.7-1.2
		c21.2-1.3,42.3-1,63.5-0.8c6.4,0.1,12.9,0.6,17.7,5.9c1.7,3.3,4.9,3.7,8.1,4.1c-4.1,4.2-9.4,3.6-14.6,3.6
		c-66.1,0-132.1,0-198.2-0.1C395.7,371,390.4,371.6,386.2,367.5z"/>
	<path class="st11" d="M538.2,402.9c22.1-0.2,44.2-0.5,66.3-0.5c6.3,0,15.1-0.8,14.5,8.4c-0.6,8.6-9.4,7.3-15.7,7.3
		c-58.6,0.1-117.1,0.6-175.7-0.1c-14.9-0.2-30.9,5.8-44.9-4.8c27.4-7.7,55.7-4.4,83.6-6.7c7.6-0.6,15.3-0.1,23-0.1
		C505.6,404.6,522.4,410,538.2,402.9z"/>
	<path class="st12" d="M538.2,402.9c-5.3,13-16.8,4.4-25.2,6.8c-6.5,1.9-14.1,0.1-21.3-0.1c-26.8-4.7-53.6,1.5-80.3,0.4
		c-7.4-0.3-15.6,2.3-21.8-4.3c25.5-5.6,51.3-1.6,76.9-2.5C490.4,402.5,514.4,403,538.2,402.9z"/>
	<path class="st13" d="M389.7,405.8c27.9,0.3,55.7,0.4,83.6,0.8c6.3,0.1,13.1-2.1,18.6,3c-36.4,0.5-72.5,7.4-109,3.5
		C381.9,407.7,384.6,405.6,389.7,405.8z"/>
	<ellipse class="st14" cx="499.8" cy="451.1" rx="166.8" ry="1.7"/>
	<path class="st7" d="M160.6,449c-13.4-18.1-6.2-36.2,15.4-38.5c12.2-1.3,24.1,1.9,32.9,9.4c22.2,18.7,43.5,38.6,62.1,67
		c-33-12-63.2-19.3-94-23.8c-5.5-0.8-11.4-3.4-13.1-10.2c8.4-3.2,13.3-9.6,16-17.8c1.4-4.2,8.7-8.9,1.7-12.7
		c-6.2-3.3-12.2,0.7-16.1,6.7C161.7,435.1,166,443.3,160.6,449z"/>
	<path class="st15" d="M160.6,449c-4.2-26.1,6.1-38.7,26.2-32c3,1,8.4,2,7.2,4.8c-4.6,10.9-13,19.6-16.5,31.6
		c-1.9,6.5-8.7-1.8-13.5-0.6C162.9,451.6,161.8,450.3,160.6,449z"/>
	<path class="st16" d="M269.4,332.1c24.4,14.4,19.5,38.4,19,60.5c-0.2,8.8-3.3,17.6-5,26.5c-7.5,1.2-5.7-5.6-7.6-8.9
		c-8.9-15.5-14.9-32.6-31-43.7c-8-5.5-14.9-15.2-6.2-26.4c7.4,4.7,8.2,14.2,15.7,21C252.7,347.2,260.7,339.4,269.4,332.1z"/>
	<path class="st17" d="M269.4,332.1c-2,12.5-21.8,20.2-7.2,37.4c-16.5-5.3-21.3-16.4-23.5-29.5C245.8,325.3,257.5,328.5,269.4,332.1
		z"/>
	<path class="st18" d="M769.7,391.1c8.3-13.2,18.4-9.5,27.6-2c11.2,9.1,10.7,21.7,1.8,30.8c-15.8,16.4-28.9,34.2-40.7,58.9
		c-5.3-27.4-14.8-49.7-0.2-72.4c6.2,7,3.5,15.6,4.2,23.6c3.5-7.6,6.4-15.8,12.6-21.4C786.3,398.4,779.8,394.5,769.7,391.1z"/>
	<path class="st19" d="M769.7,391.1c4.4-0.7,8.9-2.2,13.3-1.8c8.5,0.7,13.2,4.8,4.7,11.8c-13,10.7-18.8,26-27.8,42.1
		c-5.4-13.5-0.3-25.4-1.6-36.9C762.1,401.3,765.9,396.2,769.7,391.1z"/>
	<path class="st20" d="M656,859.2c0.2,17-10.9,28.2-25.5,27.9c-15.2-0.4-24-8.2-24.8-23.6c-0.7-13.4,12.4-27.6,25.2-26.3
		C644.9,838.6,654.3,846.7,656,859.2z"/>
	<path class="st21" d="M332.1,799.4c-1,12-7.9,20.7-22.8,21.7c-16,1-24.8-6.9-24.9-22.7c0-14.6,7.4-23.4,21.9-24.7
		C320.3,772.4,331.5,783.1,332.1,799.4z"/>
	<path class="st21" d="M453.6,893.3c-0.8,16-9.7,23.5-22.5,23.8c-13.7,0.3-21.1-8.8-21.3-22.7c-0.2-14.6,9.2-22.2,22-22.1
		C444.7,872.4,452.9,880.9,453.6,893.3z"/>
	<path class="st22" d="M727.8,770c8.2,2,14,6,13.3,14.5c-0.6,7.1-5.5,12.2-12.9,11.9c-8.2-0.3-13.3-5.6-12.9-13.9
		C715.7,774.8,721.6,771.8,727.8,770z"/>
	<path class="st23" d="M526,765.3c-0.9,6.7-3.6,12.2-11.7,12.6c-8.3,0.5-14.1-2.6-14.6-11.6c-0.4-7.6,3.5-12.2,11.3-13
		C519.6,752.5,524.4,756.7,526,765.3z"/>
	<path class="st24" d="M681.6,174.6c-16.9,3.5-32.5-0.2-48,3.6C622,181,618,186,615.7,197c-4.3,20.7-1.7,41.4-2.1,62.1
		c-0.2,11.1-4.2,16.1-15,14.3c-30.5-5.4-60.8-12-89.5-24.1c-16.6-7-27.4-20.8-27.9-38.9c-1.1-36.4,0.6-72.6,24-103.6
		c11.2-14.9,22.1-20.7,40.9-9.9c40.4,23.3,82.1,44.3,123.3,66.1C674,165.3,678.6,167.5,681.6,174.6z"/>
	<path class="st25" d="M312.2,175.4c60.9-34.5,116.9-66.2,175-99.1c-1,4.4-0.8,5.9-1.5,6.4C432.4,124.1,436,182.9,437.3,241
		c0.4,17.6,13.4,23.7,27,29.3c23.6,9.7,49.3,10,73.5,18.4c-44.9,0-89.8-0.1-134.8,0.1c-12.4,0-17.4-6-17.2-18.1
		c0.3-20.8,0.1-41.6,0-62.4c-0.1-27.2-1.9-28.8-28.4-29.2C344,179,330.4,181.1,312.2,175.4z"/>
	<path class="st26" d="M542.9,331.6c-27.8,10.6-57,10.6-85.5,14.3c-19.7,2.5-36.7,12.3-55.6,16.5c-10.3,2.3-18.4,0.7-19.7-11.7
		c-1.1-11.2,1.9-19.1,15.4-19.1C445.9,331.7,494.4,331.6,542.9,331.6z"/>
	<path class="st24" d="M605.5,363.3c-34.9,0-69.9,0.1-104.8-0.2c-6.8-0.1-14.4,2.6-20.1-3.7c31.2-3.9,62.4-7.7,92.2-18.5
		c7.8-2.8,15.7-5.6,24.4-5.2c6.3,0.3,11.4,1.5,14,7.9C614.5,351.7,614.2,358.7,605.5,363.3z"/>
	<path class="st27" d="M648.4,863.6c-1.3,10.4-7.4,16-18.1,15.7c-10.7-0.3-16.9-5.9-17-17c-0.1-12.4,7.8-17.9,18.6-17.4
		C642.5,845.3,647.6,852.8,648.4,863.6z"/>
	<path class="st28" d="M311.1,781.3c7.7,0.7,13.3,6.4,13.3,17.3c0,11.5-7.6,16.7-17.3,16.6c-10.1-0.2-17.2-7.2-16.6-17.6
		C291,787.9,296.5,780.5,311.1,781.3z"/>
	<path class="st28" d="M431.1,910c-9.7-0.4-13.6-6.1-13.7-15.1c0-8.8,3.2-15.6,13.1-15.4c10.1,0.2,15.1,6.4,15.1,16.3
		C445.6,905.1,440.5,909.9,431.1,910z"/>
	<path class="st29" d="M518.6,766c-0.4,3.6-2.6,6-6,6.2c-4.4,0.2-7.5-2.4-7.2-6.8c0.2-4.4,3.6-6.9,7.8-6.2
		C516.4,759.7,518.7,762.2,518.6,766z"/>
</g>
</svg>
