<?xml version="1.0" encoding="utf-8"?>
<!-- Generator: Adobe Illustrator 23.0.1, SVG Export Plug-In . SVG Version: 6.00 Build 0)  -->
<svg version="1.1" id="Layer_4" xmlns="http://www.w3.org/2000/svg" xmlns:xlink="http://www.w3.org/1999/xlink" x="0px" y="0px"
	 viewBox="0 0 1000 1000" style="enable-background:new 0 0 1000 1000;" xml:space="preserve">
<style type="text/css">
	.st0{fill:none;}
	.st1{fill:#FEFBBF;}
	.st2{fill:#FEBD02;}
	.st3{fill:#721000;}
	.st4{fill:#F32A07;}
	.st5{fill:#FDBD02;}
	.st6{fill:#711001;}
	.st7{fill:#711000;}
	.st8{fill:#875B0F;}
	.st9{fill:#FCBC03;}
	.st10{fill:#4F0800;}
	.st11{fill:#FDF9BD;}
	.st12{fill:#FDF9BE;}
	.st13{fill:#701000;}
	.st14{fill:#FCF6F4;}
	.st15{fill:#FBF9F8;}
	.st16{fill:#FBF6F5;}
	.st17{fill:#4E0800;}
	.st18{fill:#875A0F;}
	.st19{fill:#500800;}
</style>
<g>
	<path d="M879,152.3c-30.4-20.8-64.9-23.3-106.8-23.8c-15.1-1.6-36.5,2-57.3,8.4c-53.4,16.6-104.8,37.5-144.1,79.5
		c-42.2,45.1-75.4,96.1-96.3,154.6c-2.2,6.3-2.5,11.3-12.8,12.4c-49,5.4-96.7,15.3-137.7,46.1c-34.6,26.1-67.7,54.4-80.4,96.7
		c-7.3,24.2-18.7,36.6-42.1,40.2c-53.9,8.2-80.9,78.7-53.1,121.5c3.3,5.1,5.1,10.7,3.7,16.3c-6.6,25.3-6.4,51.6-19.4,76.1
		c-19.2,35.9-9,86.5,16.9,105.5c39.9,29.2,82.3,40.3,131.7,25.1c44.8-13.8,69.6-52.4,53.1-95.8c-4.9-13.1-5.8-23.9-2.4-36.1
		c5.7-20.3,4.8-43.4,18.6-60.3c9.2-11.2,15.8-22.2,19.4-35.9c9.1-35-9.1-87.5-36.8-104.3c-8.8-5.4-18.4-9.6-27.6-14.4
		c5.3-9.3,10.5-18.6,15.8-27.9c0.6-1.1,1.8-2,2.4-3.1c27.8-45.9,68.7-73,120.9-83.6c5.9-1.2,8-0.7,6.5,8.1
		c-4.9,26.8-11.2,54-2.4,81.4c1.5,4.8,0.6,9.8-3.7,14.1c-28.6,28.4-37.9,63.1-35.4,102.8c2,31.4,20.5,58.5,50.6,68.3
		c19.9,6.5,50.5,46.7,51.3,67.8c1.1,27.1,16.1,46.1,38.9,56.8c36.5,17.1,74.5,13.8,109.7-3.8c38.3-19.1,57.5-51.3,63.2-94.8
		c6.7-51.2-11.2-85.2-57.9-106.5c-18.1-8.3-38.4-22.8-40-45.5c-4.1-57.7-58.9-86.9-104.2-80.9c-8.3,1.1-10.3-0.8-11.7-5.7
		c-5.8-20.7,5.4-39.8,6.5-60c0-0.9,4.3-2,6.7-2.3c26-2.7,52.1-6.9,78.1-7.5c37.9-1,74.5-7.9,109.7-20.4
		c56.9-20.1,111.1-45.3,149.1-95.6c24-31.8,39.2-66.7,44.6-106.5C907.4,197.3,897.2,164.7,879,152.3z M642.6,227
		c42.5-29.6,88.8-47,141.9-35.5c27.3,5.9,50.1,23.6,32.6,64.2c-15.6,36.2-42.5,61.1-75.3,80.1c-40.1,23.3-82.8,38-130.2,40.2
		c-21.7,1-43.5,2.2-67.5,3.2C563,318.3,589.8,263.9,642.6,227z"/>
	<path class="st0" d="M817,255.6c-15.6,36.2-42.5,61.1-75.3,80.1c-40.1,23.3-82.8,38-130.2,40.2c-21.7,1-43.5,2.2-67.5,3.2
		c19-60.8,45.8-115.2,98.6-152.1c42.5-29.6,88.8-47,141.9-35.5C811.8,197.4,834.5,215,817,255.6z"/>
	<path class="st1" d="M761.1,141.3c32-2.6,63.2-0.2,93.5,11.5c26.1,10.1,39.5,28,36.3,56.7c-7.6,69-51.4,112.6-105.5,148.2
		c-53.3,35-112.8,52.1-176,57.6c-45.9,4-92.1,4.9-137.9,8.7c-109.3,9.2-180.3,56.8-207.7,176.6c-2,8.9-3.2,18-7.9,26
		c-7.5,12.8-15.6,12.4-25.7-1c19.1-144,99.7-222.8,246.6-231.4c57-3.3,114.4-1.9,170.8-11.2c64.9-10.7,119.7-40.9,163.3-90.7
		c20.9-21.4,32.1-48.4,41.3-76c6.4-19.2-7.9-42.6-28.9-51.4c-14.4-6-29.5-9.7-45.1-11.7C770.6,152.3,761.9,152.2,761.1,141.3z"/>
	<path class="st2" d="M230.2,625.5c14.2,11.2,21.1,7,24.9-10.1c6.1-27.9,13.8-55.3,25.8-81.5c28.2-61.5,79.4-92,141.8-108.3
		c45.8-12,93-8,139.5-11.3c78.5-5.6,155-16.8,222.4-61.9c52.4-35.1,91.7-79.8,106.4-142.9c3.4,49.3-20.4,88.2-51.7,121.8
		c-51.8,55.3-119.4,81.8-192.6,94c-55.8,9.3-112.1,15.1-168.8,11.6c-104.1-6.4-173.4,71.5-199.6,163.7c-5.1,18.1-8.7,36.6-12.9,54.9
		c-18,9.8-29.7,7.6-39.8-7.7C227.2,640.3,225.4,632.2,230.2,625.5z"/>
	<path class="st3" d="M663.7,730.5c-15.3,41.2-45.7,61.5-88.9,62.4c-32.3,0.7-66.4-27.6-73.1-59c-2-9.5,5.3-7,9.4-7.9
		c22.9-4.9,45.4-10.5,63.5-26.6c11.9-3.2,18.4-13.5,26.9-21.1c10.3-9.2,19.3-9.6,27.8,1.3C641.8,695.8,656.2,710.8,663.7,730.5z"/>
	<path class="st4" d="M225.5,647.7c11.9,9.4,25.6,9.9,39.8,7.7c3.9-1.2,7.8-2.4,11.6-3.6c9.7-20.9,26.7-32.6,48.3-38.7
		c6.1-1.7,12.2-5.4,18,0.7c3.6,5.9,8.2,11.4,9.2,18.6c5.1,56-50.6,95.3-106.3,74.9c-8.5-7-18.5-11.5-28.1-16.9
		c-20.3-11.5-35.4-27.6-42.6-50.4c-6.4-20.2-2.7-44.7,20.6-53.6c9.5-7.4,19.8-11.4,32.1-6.9c-0.7,11.2-4.6,20.8-11.2,30.1
		C206,624.8,209.6,638,225.5,647.7z"/>
	<path class="st5" d="M761.1,141.3c3.8,6.5,9.8,6.8,16.7,7.2c14.9,0.8,29.5,4.5,43.4,9.7c33.8,12.7,46.6,42.5,31.2,74.9
		c-10.4,21.9-19.3,45.3-41.5,59.1c8-16.1,18.8-30.4,22.4-49.1c4.7-23.9-0.7-42.1-20.4-56.2c-38.5-25.4-78.9-20.5-119.4-6.6
		c-71.9,24.6-114.6,79.1-146.4,144.8c-9,18.6-13.3,39-24.4,56.6c-6.3,0-12.7,0.1-19,0.1c-5.2-13.9,3.3-25,8-36.6
		c11-27.3,28.2-51,44.5-75.3c8.3-12.4,16.2-25,20.4-39.6c24.4-32.4,59.7-49.4,95.3-64.8C700.1,153.5,729.3,141.8,761.1,141.3z"/>
	<path class="st3" d="M528,613.7c0.7-22-11.3-40.7-16.3-61.1c-3.1-12.6-0.1-19,13.1-19.7c24.6-1.3,47.2,3,64.9,22
		c18.2,30.5,16.6,61.8,4.2,93.7c-20.5,45.4-73.7,72.6-121.5,62.3c-29.3-6.3-46.3-30.9-46.5-67.3c9,0.3,11.7,8.9,17.6,13.3
		c13.3,9.8,28.2,14.1,44.6,13.9c39.3,7,86.3-34.5,87.2-66.3c0.1-3.8,1.6-7.8,0.6-11.5c-3.1-11.3,0.6-29.9-13.5-30.9
		c-13.8-0.9-19.5,16.3-25.2,28.6C533.8,598.1,540,609.5,528,613.7z"/>
	<path class="st4" d="M528,613.7c4.8-18.7,5.6-38.5,22.1-53.1c13.5-11.9,20.2-11,26.5,7.4c13.7,39.8-4.8,80.9-44.8,99.6
		c-13.1,6.1-26.7,9.9-41.4,8.3c-38.9-11.6-57.3-33.7-53.7-66.4c1.4-13.1,3.9-26.9,19.5-32c3.3,12.3,7.4,23.9,5.8,37.5
		c-1.5,12.9,7.1,19.9,21.1,16.5c15.5,1.9,28.5-4.2,40.7-12.9C525.2,617,526.6,615.3,528,613.7z"/>
	<path class="st3" d="M671.8,730.4c1.4-9,2.9-18.1,4.3-27.1c8.3-6.3,15-1.8,19.4,4.6c6.9,10.2,13.5,21,11.6,34.4
		c-0.4,51-37.1,91.5-87,98.1c-14.3,1.9-28,2.1-42.1-0.5c-27.3-4.9-42.3-18.7-50-49.3c18.2,7.7,35.8,12.7,54.6,10.6
		C626.1,814.2,672.7,777.2,671.8,730.4z"/>
	<path class="st3" d="M164.6,719.1c-0.2-14.9,6.5-9.6,14.1-5.2c29.3,16.8,60.2,28.8,94.7,28.8c9.8,3.8,13.5,11.6,13.1,21.3
		c-1.1,25-4.4,49.7-16.8,72.1c-23,12.1-44.9,3-67-3.3c8.1-18,9.5-37.8,15.3-56.3c3.6-11.4-0.4-18.7-10.3-24.1
		C191.5,743.6,177.2,732.5,164.6,719.1z"/>
	<path class="st6" d="M246,702.6c47.1,21.1,103.5-16.1,106.3-70.1c11.5,62.1-4.7,80.4-53,92.6c-49.6,12.5-92.3-3.6-129.8-34.7
		c-22.9-19-20.5-44.2-9.7-69.4c3.1,1.4,5.4,3.9,6.2,7.1C177.1,669.6,209.2,688.7,246,702.6z"/>
	<path class="st4" d="M164.6,719.1c2.9-1.9,4.9-2.4,8.1,0.7c7.3,7.2,14.9,14.3,23.2,20.1c30.5,21.1,31.7,21.1,21.8,56.4
		c-3.5,12.4,2,29.6-15.1,36.5c-33.6-16-46.6-38.9-42.6-75.5C161.4,744.6,163.1,731.9,164.6,719.1z"/>
	<path class="st7" d="M218.3,898.8c-45-3-94.8-48.5-78.4-94.6c8.4,9.7,8.4,22.7,13.7,33.7c12.3,25.6,27.1,32.6,53.6,23.3
		c6.5-2.3,12.8-1.5,19.2-0.4c15.3,2.8,29.7-1.2,43.9-6c5-1.7,12.2-2.6,11.2-11c2.4-1.5,4.9-2.9,7.3-4.4c17.7-0.8,24,6.9,17.7,22.4
		c-5,12.4-13.9,22.4-26.1,27.5C260.6,897.5,240.1,903.3,218.3,898.8z"/>
	<path class="st8" d="M522.7,381.8c24-74.8,57.3-143.5,127.8-186.2c39.7-24,82.1-38.7,129.4-27.3c12.6,3,25.1,6.9,32.9,18.7
		c-87.1-38-191.2,25.1-230.7,84.7c-20.5,30.9-37.9,63.4-49,99.1C531.7,375.8,531.8,383.5,522.7,381.8z"/>
	<path class="st9" d="M523.8,618.6c-10.7,17.7-23.8,21.9-40.7,12.9c-1.9-7-3.8-14-5.7-21c12.8-3.5,14.7-10.8,10.8-23.3
		c-7.4-24-11-49-12.7-74.1c-0.6-8.7-2.4-16.5-7.3-23.6c4.7-15.2,16.1-20.2,30.9-20.1C489.4,522.2,503.4,570.9,523.8,618.6z"/>
	<path class="st10" d="M269.7,836.1c0.2-18.3,7.9-35.2,10.3-53c1.9-14,4.9-28.5-6.6-40.4c17.3,0.4,34.1-3,53.8-9.9
		c-8.5,30.5-14.7,57.9-24,84.2C298.3,830.6,283.6,834.5,269.7,836.1z"/>
	<path class="st10" d="M663.7,730.5c-11.9-15.3-23.8-30.5-35.6-45.8c-7.2-9.2-13.1-13.9-24.3-2.6c-7.5,7.7-15.9,17.7-29.2,17.2
		c22.2-19.4,37.9-43.3,46-72C653.7,647,671.1,689.7,663.7,730.5z"/>
	<path class="st11" d="M467.8,488.6c9.9,1,12.1,7.1,12.4,16.1c1.2,30.4,6.1,60.3,15.4,89.4c2,6.1,4.2,12.7-2,17.9
		c-5.7,4.7-10.9,0.8-16.2-1.5c-13.3-37.6-21.2-76.2-20.3-116.3C459.2,489.5,462.4,486.9,467.8,488.6z"/>
	<path class="st12" d="M576.6,230.5c5.9,13.3-3.6,22.3-9.7,31.7c-24.9,37.9-51.1,75.1-63.1,119.8c-5.7,1.7-11.3,2.4-19.6-0.1
		C504.6,324.7,533,273.1,576.6,230.5z"/>
	<path class="st4" d="M281.4,843.9c3.1,0.4,7.7-0.3,9,1.4c3.6,4.8-1.9,6.4-4.8,8c-15.4,8.8-32.3,13.2-49.9,12.9
		c-13.6-0.2-26.6-5.4-39.1,7.5c-7.1,7.4-35-9.4-43.5-25.6c-7.2-13.6-13.6-27.9-13.2-43.9c1-4.3,0.7-9.1,4.6-12.4
		c6.6,6.3,6,15.4,9.2,23.1c10.4,24.7,36.3,38.6,55.9,29.5C233.6,853,257.5,855.6,281.4,843.9z"/>
	<path class="st13" d="M343.2,613.9c-21.7,4.1-42.3,10.2-55.9,29.7c-2.6,3.8-5.7,7-10.4,8.2c5.5-19.1,8.2-38.9,15-57.9
		c5-14.1,12.3-14,21.5-6.9C323.9,595.1,337.1,600.6,343.2,613.9z"/>
	<path class="st10" d="M218.3,898.8c29.6-2.4,59.3-5.2,79.5-31.2c11.7-14.9,8.5-23.9-9.2-28.2c11.8-4.7,20.6-12.7,25.2-25.7
		c18.7,30.3,9.5,59.3-23,75.9C267.9,901.4,244,907.1,218.3,898.8z"/>
	<path class="st14" d="M246,702.6c-35.7-1.4-72.4-31-82.3-66.6c-1.4-5-2.6-10.1-3.9-15.1c4.3-19.7,15.2-32.4,36.2-34.4
		c-25.1,23.5-23.4,58.8,2.8,84.1C212.8,684.1,231.8,689.7,246,702.6z"/>
	<path class="st15" d="M456.3,577.5c-23.4,28.4-19.5,62.6,9.8,83.4c7.8,5.5,16.3,10,24.4,15c-27.2,0.4-50.6-6.5-64.6-32.4
		c-2.9-25.8,4.8-48.3,20.9-68.3C451.7,569,455.8,565.5,456.3,577.5z"/>
	<path class="st16" d="M209.6,844.4c-1.1,13.3-9.6,14.7-19,10c-25.9-12.8-47.1-29.7-46.1-62.6c0.8-2.4,1.5-4.9,2.5-7.3
		c0.5-1.1,1.5-2,4.1-5.5C158.2,813.2,180,832.5,209.6,844.4z"/>
	<path class="st4" d="M671.8,730.4c1.9,1.5,5.2,3,5.4,4.6c3.5,39.9-49.5,83.5-87.8,72.3c-2.7-0.8-4.6-4.1-6.9-6.2
		C627.4,796.6,658,774.1,671.8,730.4z"/>
	<path class="st17" d="M707.1,742.2c-10.2-13.1-5.9-37.7-31-39c-2.5-14-4.6-28.2-13.7-40.2C692.6,661.6,717.4,706.3,707.1,742.2z"/>
	<path class="st18" d="M467.8,488.6c-3.5,1.9-7.1,3.8-10.6,5.6c1.8-10.8,4.2-21.5,5.4-32.4c1.6-14.6,8.5-16.2,22.3-14.9
		c17.6,1.6,19.9,8.4,14.3,22.5C488.7,475.8,478.3,482.2,467.8,488.6z"/>
	<path class="st19" d="M593.9,648.6c5.4-31.5,5.9-62.8-4.2-93.7C616.4,582.9,614.9,617.2,593.9,648.6z"/>
</g>
</svg>
