<?xml version="1.0" encoding="utf-8"?>
<!-- Generator: Adobe Illustrator 23.0.1, SVG Export Plug-In . SVG Version: 6.00 Build 0)  -->
<svg version="1.1" id="Layer_4" xmlns="http://www.w3.org/2000/svg" xmlns:xlink="http://www.w3.org/1999/xlink" x="0px" y="0px"
	 viewBox="0 0 1000 1000" style="enable-background:new 0 0 1000 1000;" xml:space="preserve">
<style type="text/css">
	.st0{fill:#010102;}
	.st1{fill:#0C569E;}
	.st2{fill:#9DA3A5;}
	.st3{fill:#53595B;}
	.st4{fill:#9EA3A5;}
	.st5{fill:#00016A;}
	.st6{fill:#000169;}
	.st7{fill:#515759;}
	.st8{fill:#54595B;}
	.st9{fill:#D4D4D4;}
	.st10{fill:#989FA4;}
	.st11{fill:#53585B;}
	.st12{fill:#9CA2A4;}
	.st13{fill:#02026A;}
	.st14{fill:#BAB166;}
	.st15{fill:#3E4346;}
	.st16{fill:#6F6931;}
	.st17{fill:#7C0103;}
	.st18{fill:none;}
	.st19{fill:#94999B;}
	.st20{fill:#6F6930;}
	.st21{fill:#3E4446;}
	.st22{fill:#BAB068;}
	.st23{fill:#52585A;}
	.st24{fill:#0D539C;}
	.st25{fill:#B9B068;}
	.st26{fill:#BAB066;}
	.st27{fill:#6E6830;}
	.st28{fill:#D2D3D3;}
	.st29{fill:#B9B065;}
	.st30{fill:#706A30;}
	.st31{fill:#3F4447;}
	.st32{fill:#3C4144;}
	.st33{fill:#3D4245;}
	.st34{fill:#F2F1E9;}
	.st35{fill:#3E4345;}
	.st36{fill:#6C662F;}
	.st37{fill:#B9B067;}
	.st38{fill:#BAB168;}
	.st39{fill:#F0EFE3;}
	.st40{fill:#EFEEE4;}
	.st41{fill:#BAB169;}
	.st42{fill:#706A32;}
	.st43{fill:#CCCECE;}
	.st44{fill:#3D4244;}
	.st45{fill:#4A4F52;}
	.st46{fill:#3C4143;}
	.st47{fill:#EFEEDF;}
	.st48{fill:#F4F5F5;}
	.st49{fill:#969C9E;}
	.st50{fill:#706B36;}
	.st51{fill:#706A35;}
	.st52{fill:#E0DECA;}
	.st53{fill:#E3E2DA;}
	.st54{fill:#67622F;}
	.st55{fill:#D5D3B9;}
	.st56{fill:#666131;}
	.st57{fill:#DFDCC2;}
	.st58{fill:#F5F4E6;}
	.st59{fill:#BE0809;}
	.st60{fill:#01062D;}
	.st61{fill:#8A8F91;}
	.st62{fill:#B1D5FC;}
	.st63{fill:#D20204;}
	.st64{fill:#B0D4FB;}
	.st65{fill:#F09094;}
	.st66{fill:#413F74;}
	.st67{fill:#00026A;}
	.st68{fill:#A7CEF7;}
	.st69{fill:#8BBAEA;}
	.st70{fill:#030E3A;}
	.st71{fill:#030B21;}
	.st72{fill:#040D33;}
	.st73{fill:#020411;}
	.st74{fill:#111213;}
	.st75{fill:#101112;}
	.st76{fill:#D1D1D2;}
	.st77{fill:#141515;}
	.st78{fill:#040404;}
	.st79{fill:#090A0A;}
	.st80{fill:#D3D3D3;}
	.st81{fill:#A2CAF3;}
	.st82{fill:#4A4F51;}
	.st83{fill:#474C4E;}
	.st84{fill:#3B4043;}
</style>
<g>
	<path class="st0" d="M910.8,296.4c-6.8-62-31.6-112.9-80.7-150.6c-18.6-14.3-39.4-26-66.6-17.3c-22,7.1-41.8,16.5-60.5,29.6
		c-3.6,2.5-8.4,9.3-15,4.5c-6.4-4.6-6.6-11.7-3.1-17.3c11.5-18.3,3.3-34.2-6.2-48.9c-9.4-14.7-23.9-22.9-42.1-21.8
		c-12.7,0.8-21.8,8.5-25.5,19.9c-6.7,20.5,3.8,37.3,15.3,52.7c11.1,14.8,26,21.4,44.1,14.2c4.9,11.8-0.3,18.3-9.6,23.7
		c-23.3,13.8-46.2,28.1-69.5,41.9c-37.6,22.3-75.3,44.4-114.2,67.3c6.8-31.7,6.8-31.7-22.4-51.8c-6.2-4.3-14.1-6.8-19-12.2
		c-20.7-22.7-42.9-17.5-65.6-4.7c-49.9,28.2-98.3,58.8-145.6,91.1c-34.6,23.6-71.5,44.2-99.8,76.1c-16,18-20.2,38.6-7,50.4
		c25,22.2,54.8,32.2,89.9,30.8c-3.4,2.7-5.6,4.9-8.2,6.5c-37.9,23.8-73.5,50.2-105,82.5c-17.1,17.5-31.3,76-19.9,100.5
		c5.5,11.7,12.7,20.1,27.6,9.6c15.4-10.8,32.3-19.5,48.3-29.5c4-2.5,7.3-6.9,9.8,1c8.1,25.3,22.7,11.5,32.1,3.2
		c17.2-15.2,32.7-30.1,55.9-12.6c-9.5,30.3-18.4,62.4-29.7,93.6c-13,35.9-20.5,73.8-38,108c-6.6,12.9-9.2,26.5,1.1,36.9
		c10.3,10.4,24.3,6,35.6-0.5c30-17.2,59.4-35.5,89.3-53.1c34.5-20.4,71.7-37.1,97.9-69.9c5.8,19.3,16.1,36.9,37.2,37.4
		c18.1,0.4,31.5,5.9,44.9,16.5c8.3,6.5,18.2,11.1,27.5,16.3c7.2,4.1,12.7,7.4,14.2,18.1c2.3,15.9,14.2,24.3,31.5,24.4
		c33.3,0,63.9-14.8,97.4-15.1c30.1-0.2,58.2-12,82.7-28.6c45.9-31.2,74.9-77.3,103.4-123.6c20-32.5,22.6-69.3,27-105.5
		c3.1-25.6-1.2-51-10.5-74.9c-4.8-12.4-19.6-13.6-30.9-17.9c6.3-14.6-3.2-23.4-11.4-33.4c-10.5-12.8-25.6-10.1-43.7-11.8
		c26.5-13.1,49-23,70.1-35.1c16.1-9.2,33.7-16.5,44.3-34.1C904.8,356.3,914.4,329.7,910.8,296.4z M658.9,125.1
		c-8.3,10.2,11.4,17.5,0.4,26.2c-5.8,4.6-12.7,0.2-15.6-3.1c-9.7-10.9,11.1-11.8,7.7-21.6c-8.2-4.7-13.5,3.9-20.8,5.2
		c-8.1-12.7-15.4-25.8-4.2-41.1c7.3,9,14.8,18.2,22.2,27.4c0.7-14.1-3.6-25.2-11.7-35.3c23.5-0.8,33.6,13.5,24.5,31.9
		c3.3,11.3,16.9-13.6,19.2,6.8c1.3,11.9-1.7,23.4-7.2,17.8C668.8,134.6,666.6,127.5,658.9,125.1z M379.4,676.5
		c12.3,10.4,14.5,23,20.7,34C378.8,713.6,374.8,707.1,379.4,676.5z"/>
	<path class="st1" d="M683.9,398.4c-11.8-10.7-19.6-23.6-24.6-38.8c-7.2-21.8-7.7-21.7-28.6-10.2c-26.7,14.6-53.3,29.4-80,44.1
		c-4.2,2.3-8.6,7.9-13.5,3.1c-3.5-3.4-0.2-8.5,0.7-12.9c2.1-10,15-20.4,3.3-29.9c-10.2-8.3-21.5,0.9-30.6,5.9
		c-44.4,24-88.2,49-132.3,73.6c-9.6,5.4-19,11.3-28.9,15.9c-38.3,17.7-72.5,39.6-87.1,82.2c-12.1,16.5-28.8,27.6-45.8,38.1
		c-36.8,22.9-72.2,47.8-109,70.6c-5.1,3.1-9.7,9.7-17,4c-3.9-45.1,18.1-77.5,52.4-102.3c94.6-68.5,190.1-135.8,288.7-198.4
		c75.1-47.6,151.3-93.5,227.1-140c4.9-3,10.2-5.4,15.3-8.1c4.3,0.5,3.9,3.5,3.6,6.5c-1.5,3.8-4.8,6-7.9,8.4
		c-25.3,18-53.1,32.1-77.6,51.3c-6.8,5.3-18.9,11.5-15.3,20.1c4.7,11,17.2,3.8,26.1,2.4c14.7-2.3,29.2-5.7,42.4-13
		c5-2.8,10.3-6,16.2-1.6c1.8,2.3,2.7,5,3.2,7.9c1.8,9.9-2.2,20.9,5.3,29.8c10.6,25,25.9,47.2,40.5,69.9c0.2,2,0,3.9-0.4,5.8
		C704.3,393.2,696.3,399.6,683.9,398.4z"/>
	<path class="st1" d="M175.6,450.3c-9.3-2.8-18.9-4.9-27.8-8.6c-22.2-9.3-24.6-18.8-9.7-38.1c18.7-24.1,45.7-38.1,70.1-54.9
		c45.9-31.8,93.4-61,141.1-90c13.1-8,23.2-7.5,35.4,0c10.5,6.4,22,11,33,16.4c7.7,0.1,13.1,3.1,13.8,11.6
		c-6.2,14-19.9,20.2-31.3,28.1c-60.1,41.9-121.2,82.2-183.7,120.5C204.2,442.9,191.7,451.6,175.6,450.3z"/>
	<path class="st2" d="M504,792.8c-7.9-3.5-14.9-8.2-20.6-14.8c2.1-6.8-6-10.5-5.2-16.9c0.3-2.6,1.2-5,2.7-7.2
		c15.9-22,15.9-22-3.8-41.9c-3.2-3.2-6.8-6.1-9.4-9.8c-6.1-8.7-11.9-10.6-19.7-1.6c-4.1,4.7-9,9.9-16.7,6.6
		c-20.6-20.4-28-47.6-36-73.9c-3.5-11.4-10.3-22.2-9.9-34.7c4.2-4.7,10.9-3.5,16-6.4c8.2-4.7,13.4-10.8,10.8-20.5
		c-3.1-11.4-2.4-23.2-3.7-34.8c-8.4-3.5-14.6,7.1-22.5,2.4c-1.5-35.9,9.5-67.9,30.9-96.4c6.5-8.6,13.6-16.8,20.7-25
		c7.3-7.3,16.3-11.4,27.9-17c-37.7,62.6-44.3,126.8-23.5,192.3c16.7,52.6,47.5,97.6,89.3,134.4c6.7,5.9,15,10.3,19.7,18.4
		C536.6,763,528.6,786.3,504,792.8z"/>
	<path class="st3" d="M578.3,519.7c5.2,1.5,10.4,2.9,15.5,4.4c7.2,2.5,14.7,1.1,22,1c4.4-0.1,9-0.9,8.9,5.8
		c-21.6,11.6-23.7,16.6-16.8,40.5c1,3.6,6.7,8.6-1.7,10.3c-31.5,6.5-56.8,24-79.5,45.6c-2-2.1-3.3-2.9-3.6-4
		c-7.5-34.4-29.9-47.5-63.6-44.7c-5.8,0.5-10.3-1.7-11.6-7.9c-9.7-43.4-7.2-87,8-128c12.8-34.6,36.7-62.3,75.1-79
		c-2.9,18.1-9.4,34.2-6.9,48.8c5,29.5-4.4,45.7-32,57.3c-22.7,9.6-30.3,32.1-26.3,55.8c4.2,24.6,21.2,37.7,45.8,41.1
		c10.7,1.7,21.6,2.6,32.4,2.5c27.5-0.3,37-11.1,33.4-38.2C577.1,527.2,576.6,523.4,578.3,519.7z"/>
	<path class="st2" d="M316.2,745.9c-33.9,21.5-72.4,35.1-102.2,62c-4.5-2-3.4-4.8-2.7-6.9c22.2-66.5,44.5-132.9,66.8-199.3
		c3.2-9.4,6.8-18.5,18.4-20.4c-1,25.4-15.4,47-19.1,68.8c11.1-21.7,14.4-50.7,36.9-70c-4.9,1.1-9.4,2.1-13.2-1.8
		c16.7-11,33.4-22,50.1-33c2.9-1.9,5.7-3.2,7.6,1.3c-0.5,24.8-6.9,47-26.1,64.2c-9.5,8.6-6.2,18.6-1.9,28.5
		c12.3,28.6,15.1,57.2-0.1,86.1C326.7,733,321.3,739.2,316.2,745.9z"/>
	<path class="st3" d="M738.1,154.6c27.7-18.4,61.5-17.6,87.5,6.5c50.5,46.8,73.7,105.3,64.6,174.2c-3.5,26.2-15.1,49.6-42.9,60
		c-15.2,6-29.1,0.9-42.9-5.2c-18.4-8.2-34.2-20.5-50.3-32.5c-1.3-1.6-1.8-3.4-1.4-5.4c5.1-5.6,11.3-9.8,18-13.5
		c16.9,5.4,29.9,17.9,45.6,25.5c7,3.4,13.5,7.5,19.1,7.5c-37.7-8.1-102.6-66.7-106.6-123.9c-1.6-22.9,0.6-45.2,1-67.7
		C731.6,171.2,735,162.9,738.1,154.6z"/>
	<path class="st3" d="M804.2,578.3c5.4,10.8,2.6,15.6-9.9,17.6c-19.2,3-37.7,9.4-55.4,17.5c-16,7.3-28.9,17.6-31.7,36.3
		c-0.9,6.3-5.1,8.1-9.9,10.6c-26.3,13.5-49.5,30.8-64.6,57c-2.3,4.1-5,6-9.3,4c-9.9-4.7-21.7-7.2-28.1-16.6
		c-3.7-5.5,3.8-8.7,7.4-11.8c18.5-15.3,37.3-29.9,46-53.9c5.3-14.7,15.6,0.1,23.2-2.3c30.1-3.1,37.7-14.5,29.5-44.2
		c-2-7.4-3.7-14.9-5.8-22.3c-8.5-26.9-28.1-38.5-55.1-39.9c-2.6-1.6-7.3-0.4-7.7-4.5c-0.5-5.2,4.4-5.8,8-6.6
		c18.1-4,34.3-11.4,47.7-24.5c2.3-2.3,4.6-4.6,6.1-7.5c19.5-11.8,39.8-21.6,61.6-28.7c-18.8,17.8-48.8,22.4-55.3,52.8
		c-4.3,20.1,12,44.1,41.3,59C762.3,577.1,784,572,804.2,578.3z"/>
	<path class="st4" d="M500,601.6c13.9,22.5,28.4,44.7,43.3,66.6c32.2,47.4,79.2,69.3,132.4,82c4,14-6.5,11.2-13.3,10.5
		c-19.6-1.8-38.2-7.8-56-16.3c22.1,10,44.7,17.5,69.4,17.1c4.7-0.1,10.9-0.7,11,7.2c-89.6,12.4-147.5-35.1-194-103.3
		c-11.7-17.1-23.5-34.4-30.5-54.1c-2-5.6-9.4-12.4-3.3-17.3c5.4-4.2,14.2-6.6,21.6-0.6c10.2,14,15.3,30.5,22.5,45.3
		C499.4,627.1,489.8,615.1,500,601.6z"/>
	<path class="st5" d="M683.9,398.4c8.1-5.2,16.2-10.5,24.3-15.7c3.6-2.8,7.7-2.3,10.9,0c23.5,17.1,51,24.3,78.1,32.7
		c2,0.6,2.8,2.4,3.4,4.3c-57.8,29.1-115.6,58.2-173.6,87.2c-5.1,2.5-11,4.6-16.6,4.7c-7,0.2-16.9,4.7-20.1-5.8
		c-3-9.8,1.7-16.5,11.4-21.5c34.5-17.8,68.4-36.5,102.6-54.9c3.3-1.8,6.3-3.9,11-6.9C704,413.6,691.1,409.4,683.9,398.4z"/>
	<path class="st3" d="M504,792.8c18.3-12.9,28.2-34.2,46.9-46.8c48.9,40.3,105.9,38.9,164,31.3c5,16.4-5.5,33.5-26.4,41.3
		c-16.7,6.2-33.9,11.1-51.7,12.9C587.7,835,544.4,818.9,504,792.8z"/>
	<path class="st6" d="M175.6,450.3c58.3-25.9,109-64.3,162-98.8c31.8-20.7,64.4-40.7,92.7-66.3c0.5-8.8-10.3-8.8-12.2-15.7
		c-8.3-6.1-16.4-12.5-24.9-18.2c-12.2-8.1-5-12.4,3.1-15.6c10.6-4.1,20.6-1,29.5,5c8.5,5.8,16.6,12.2,24.8,18.5
		c16,12.3,16.8,17.6,1.4,29.5c-37.7,29.2-76.3,57.4-117.1,82.3c-38.6,23.6-77.4,46.7-114.6,72.4
		C206.6,452.9,192.4,460.3,175.6,450.3z"/>
	<path class="st5" d="M320.2,756.7c15.6-13.1,35-19.3,52.8-28.4c7.2-3.7,14.6-1.5,19.2,4.7c5.2,6.9-3.5,9.9-6.2,14.3
		c-13.4,20.9-35.4,31.6-55.6,43.6c-38.4,22.7-78.2,43.1-117.6,64c-6.3,3.3-13.6,9.1-20.6,0.5c25.7-34.8,60.8-57.8,97.9-78.4
		C300.7,771,312.6,766.9,320.2,756.7z"/>
	<path class="st7" d="M371.1,496.1c-1.7,19.7-12.2,32.1-29.7,41.4c-19.7,10.6-37.9,24-56.7,36.2c-8.7,0.6-12.8,7-16.8,13.4
		c-7,11.2-16.7,18.7-29.5,22.2c-8.8-12.9-6.1-23.8,7.4-30.5c19.8-9.8,29.3-25,32.4-46.9c2.6-18.4,13-34.3,29.4-44.1
		c31.1-18.6,62.8-36.2,97.7-56.3c-3.7,12.3-9.1,19-14.6,25.6c-16.4,16-37.1,25.6-56.1,37.8c-11.1,7.1-22.6,14-32,27.4
		c16.6,2.4,25.3-7.3,35.6-12.5C348.9,504.3,357,493,371.1,496.1z"/>
	<path class="st4" d="M581.5,453.9c-7.7-5.3-16.7-7.1-25.7-7.3c-10.3-0.2-17.5-2.6-19.4-14.1c-1.8-11.3,0.1-19.6,11.5-25.6
		c28.5-15.1,56.6-31,84.6-47.1c8.8-5.1,11.8-3.6,13.8,6.2c2.9,14.6,8,28.6,17.7,40.4c4.6,7.3-1,10.7-5.8,13.6
		c-18.6,11.4-37.6,22-56.5,32.6C595.2,456.1,588.5,457.3,581.5,453.9z"/>
	<path class="st8" d="M686.7,768.8c-25.3-7.1-52.5-6.3-76.4-19.1c-5-2.7-11.2-3.5-15.3-10.9c18.3,5.8,35.1,11.9,52.2,16.2
		c9.5,2.4,20.9,8.4,28.3-4.8c43.5,8.1,83.3,0.4,118.7-27.1c14.4-11.2,20.3-27.1,23.5-43.6c5-25.5,17.6-50.7,6-77.6
		c-2.1-19.4-2.6-38.7,7.7-56.4c3.9-6.8,9-12.6,16.9-15c11.1,51.7,0.6,101.1-16.6,149.5C807.5,748.4,751.3,765.7,686.7,768.8z"/>
	<path class="st9" d="M387.5,596.7c14.9,37.5,22.5,78,47,111.4c13.2,19.3,30.3,35.1,45.8,52.5c-4.2,6.7,20.1,8.5,3.1,17.4
		c-60.8-38.4-89.1-97.5-104.3-164.7c-12.9-56.9-6.3-111,25.1-160.9c8.6-13.7,18.1-27,33.4-34.5c3,8.7-5.2,12.6-9,16.8
		c-27.2,29.9-35.2,67-41.2,105C395,558.7,394.5,577.7,387.5,596.7z"/>
	<path class="st10" d="M769.7,339.7c0.1,10.4-7,12.1-15.2,12.4c-9.6,0.2-15.5-6-20.9-12.6c-36-44-44.6-93.8-30.9-148.2
		c2-7.8,6.8-13.9,11.4-20.2c6.6-7.6,15.7-11.5,24-16.6c5.2,9.4-4.1,16.5-3.8,25.1c-14.6,52.2-8.9,100.6,26.9,143.4
		C765.3,327.8,770.8,332.2,769.7,339.7z"/>
	<path class="st1" d="M714.1,171.1c-10.4,32.7-16.6,65.1-8.4,100c7.8,32.8,23,59.7,48.8,81c-0.1,1-0.1,2,0,3.1
		c-0.7,10.6-9.7,11.5-16.8,14.6c-3.2,0.5-6.1,0-8.9-1.6c-32.8-31.5-54.9-67.7-49.7-115.6c0.2-1.9,0.7-3.8,1.3-5.7
		c6.5-15.7,18.4-30.5,8-49c-1.1-5.1-0.1-9.7,3.4-13.7C699,179.6,705.2,172.9,714.1,171.1z"/>
	<path class="st6" d="M90.4,644.2c51.1-30.4,100.7-63.2,149.6-97.2c7.4-5.1,14.8-10.4,22.2-15.5c2.2,14.4-3.7,23.9-16.2,31.5
		c-46.9,28.5-93.3,58-140.2,86.6C100.5,652.9,89.5,663,90.4,644.2z"/>
	<path class="st11" d="M316.2,745.9c4.2-9.4,8.1-19,12.6-28.2c13.4-27.6,7.4-54.3-4.6-80.2c-4.6-9.9-5.7-19.9,2-26.9
		c19.3-17.4,27.8-39.5,32.5-63.9c0.2,9.7-0.4,19.4,0.7,29c1.4,12.1-1.7,21.5-12,28.3c-17.1,11.3-17.1,24.8-6.3,40.8
		c4.6,6.8,7.4,15,11,22.5c8.1,21.6,11.9,43-4.7,62.7C337,735.3,326.6,740.6,316.2,745.9z"/>
	<path class="st12" d="M371.1,496.1c-17.4,10.1-34.6,20.4-52.1,30.1c-6.4,3.6-14.5,9.8-20.3,0.1c-4.9-8.2,2.8-13.2,8.3-17.3
		c26.5-19.6,54.4-37.2,83.9-52C384.3,470.1,377.7,483.1,371.1,496.1z"/>
	<path class="st13" d="M737.6,367.9c5.6-4.3,11.3-8.5,16.9-12.8c8.9,1.2,14.9,7.3,21.6,12.3c21.2,15.7,44.3,26.6,71.2,27.7
		c-9.1,6.9-19,12.4-30.2,15.1c-28.9,0.7-52.3-12.3-74.1-29.6C739.1,377.6,734.6,374.3,737.6,367.9z"/>
	<path class="st2" d="M652.3,543.1c18.5-0.2,27.7,10.3,31.4,27.2c-3.1,22.9-9.7,29.5-30.7,30.7c-4.4-7.3-9.3-13.7-17.9-17.1
		c-11.5-4.6-15.4-15.7-17.6-26.4c-3-15.2,6.9-20.3,27.5-14.9c-1.5,4.7-10.9,4-8.6,10.4c1.5,4.3,7.2,4.5,11.7,3.7
		C657.9,554.9,649.9,547.4,652.3,543.1z"/>
	<path class="st14" d="M734.2,488c5.3-4.6,10.4-9.7,19.1-10.2c-0.5,17.5,5.9,31.7,20.6,41.4c-3,17-17.3,23-30.2,29
		c-8.8,4.1-22.4-8.4-25.1-21.4C715,510.4,721.1,497.8,734.2,488z"/>
	<path class="st11" d="M581.5,453.9c30.3-10.9,58.8-25.2,82.5-47.5c17.1,19.8,17.1,19.9-4.9,32.9c-12.3,7.2-25.6,13-36.9,21.5
		C605.4,473.1,592.1,474.2,581.5,453.9z"/>
	<path class="st15" d="M636.7,831.6c16.1-5.4,32.9-9.5,48.2-16.6c15.5-7.2,30.9-16.4,29.9-37.6c18.8-5.4,38.7-6.1,57-14.8
		C737.2,807,693.1,831.5,636.7,831.6z"/>
	<path class="st16" d="M734.2,488c-5.3,12.1-14.6,22.7-12.1,37.7c1.4,8.5,5.6,14.7,12.1,18.9c7.9,5.1,13.1-2.4,18.3-6.4
		c7.5-5.9,14.3-12.7,21.4-19.1c7.3,2.1,14.6,4.3,23.6,6.9c-9.5,19.2-23.9,31-43.8,35.1c-11.2,2.3-33.9-17.7-40-32.9
		C706.4,509.8,713.2,496.4,734.2,488z"/>
	<path class="st17" d="M737.6,367.9c14.9,18.8,36,27.6,57.8,35.1c7.2,2.5,14.5,4.8,21.7,7.3c-4.2,5.5-10.7,6.8-16.6,9.3
		c-34.2-3.9-63.6-19.7-92.4-37c-0.2-1.1-0.3-2.2-0.1-3.3c6.2-6.6,13.2-11.7,22.7-12C733.1,367.5,735.4,367.7,737.6,367.9z"/>
	<path class="st18" d="M673.4,139.4c-4.6-4.8-6.8-11.9-14.5-14.2c-8.3,10.2,11.4,17.5,0.4,26.2c-5.8,4.6-12.7,0.2-15.6-3.1
		c-9.7-10.9,11.1-11.8,7.7-21.6c-8.2-4.7-13.5,3.9-20.8,5.2c-8.1-12.7-15.4-25.8-4.2-41.1c7.3,9,14.8,18.2,22.2,27.4
		c0.7-14.1-3.6-25.2-11.7-35.3c23.5-0.8,33.6,13.5,24.5,31.9c3.3,11.3,16.9-13.6,19.2,6.8C681.9,133.5,678.8,144.9,673.4,139.4z"/>
	<path class="st19" d="M848.5,530.6c-21.5,19.2-18,47-24.6,71.4c-9.4-5.7-8.7-16-8.7-24.4c0.1-15.9-11.3-30.5-5.5-46.4
		c2.3-6.4,1.8-18.1,11.8-17.5C832.3,514.5,845.7,515.1,848.5,530.6z"/>
	<path class="st14" d="M518.8,484.2c3.5,12.7,10.1,24,16.7,35.2c-11.7,11.2-23.9,21.9-39.5,27.6c-12.3-6.7-18.7-17.1-18.8-31.2
		c6.8-10.2,13.1-21,24.2-27.5C506.7,485.4,511.5,479.5,518.8,484.2z"/>
	<path class="st20" d="M781,648.7c27.6,11.8,28.3,17.8,4.6,38.1c-1.5,1.2-3.2,2.1-4.6,3.5c-8.5,8.3-19.4,17.2-30.2,13.1
		c-11.5-4.4-1.9-18.4-4.5-27.8C755.3,663.2,768.3,656.1,781,648.7z"/>
	<path class="st21" d="M578.3,519.7c8.5,16.8,11.2,33-5,47c-12.6,10.9-43.7,10.8-61.5,0C541.2,561.4,559.5,540.1,578.3,519.7z"/>
	<path class="st22" d="M781,648.7c-9,12.2-21.1,20.6-34.7,26.9c-4.2-4.7-7.7-10.4-12.7-13.8c-19.1-12.8-19.6-15.3-3.3-33
		c1.4,1.4,2.2,3.1,2.3,5.1c0,1.9-0.5,3.8-1,6c7.9-8.3,25.1-5.8,25.5-22.7c6.4-5.3,12.1-6.8,12.3,4.2
		C769.5,632.3,773.1,641.3,781,648.7z"/>
	<path class="st23" d="M249.2,444.5c23.8-26.7,55-43.2,85.1-61.1c18.7-11.1,37.2-22.4,55.8-33.6c1.3,2,2.5,4,3.8,6
		c-45.2,29.9-90.3,59.8-135.5,89.7C255.1,447.5,251.9,448,249.2,444.5z"/>
	<path class="st24" d="M320.2,756.7c4.4,5-0.2,6.7-3.3,8.5c-43.8,25.1-86.6,51.6-120.9,89.6c-0.7,0.7-2.5,0.4-3.8,0.6
		c1.2-19.7,16.4-29.8,29.2-40.8C250.8,789.2,286.3,774.3,320.2,756.7z"/>
	<path class="st25" d="M542.4,508.9c-9.1-9-16.3-18.8-14.2-32.6c10.1-15.3,28.3-8.1,41.5-14.7c13.7,6.2,19.4,15.6,12,30.2
		c-3,1-4.9-0.6-5.9-3.1c-1.3-3.5-1.7-7,1.8-9.7C566.4,489.6,560.7,506.7,542.4,508.9z"/>
	<path class="st26" d="M579,613.8c3.5,13.1,7.5,25.8,19.1,34.3c-6.8,15.7-17.9,25.7-35.4,27.6c-6.3-7.7-12.7-15.5-19-23.2
		C553.6,637.8,570.1,629.3,579,613.8z"/>
	<path class="st27" d="M562.7,675.6c13.2-7.4,24.1-17.7,35.4-27.6c7.3,3.7,20.5,2.9,21.4,10.3c1.2,9.7-10.6,14.9-18.3,20.6
		C579.4,695.1,579.4,695.1,562.7,675.6z"/>
	<path class="st25" d="M609.4,640.1c-12.4-2.9-16.6-12.5-19.4-23.3c5.5-16.5,21.9-16.7,34.3-23c9.4-1.8,13.7,3.8,16.7,11.4
		C637,622.8,623.8,631.9,609.4,640.1z"/>
	<path class="st28" d="M301.1,578.3c7.1,1.8,13-6.1,22.9-1.5c-30.4,20.9-28.5,60.5-52.7,84.7c5.5-27.9,13.1-54.8,25.2-80.3
		C298,580.3,299.6,579.3,301.1,578.3z"/>
	<path class="st29" d="M780.7,512.4c-18.6-13.8-23-29.2-11.6-40.5c12,1.4,24.4,0,36.2,3.6c1.3,1.5,2.7,3,4,4.6
		C805.6,495.9,800.8,510.9,780.7,512.4z"/>
	<path class="st30" d="M496.1,547.1c11.4-11.7,23.8-22.1,39.5-27.6c6.7,1.6,16.5,2.2,17.4,8.9c0.9,6.4-7.8,10.8-13.6,14.6
		C525.7,552,511.4,555.2,496.1,547.1z"/>
	<path class="st31" d="M694.7,487.3c-7.2,25.9-29.7,30.7-51.1,35.7c-7.2,1.7-9.4,1.8-3,7.4c-5.3,0.2-10.6,0.4-15.8,0.6
		c-8.9-8.8-22,1.4-31-6.8c29.4,1.4,53.1-14.3,77.9-26.4C679.3,494,687,490.8,694.7,487.3z"/>
	<path class="st32" d="M729.2,736.8c2.9-15.4,10.2-23.2,27.6-22.2c15.7,1,25.1-14,38.4-21.2C783.2,722.1,760.9,736.6,729.2,736.8z"
		/>
	<path class="st33" d="M695.7,570.3c7.8,15.2,18.5,29.6,12.6,48.4c-6.5,20.6-15.3,25-36.4,18.1C699.2,621.5,696.2,595.5,695.7,570.3
		z"/>
	<path class="st23" d="M652.9,601c16.3-4.1,24.4-16.5,30.7-30.7c9.7,17.9,0.5,33.3-6.8,48.8c-2.6,5.7-7.2,6.3-12.9,3.9
		C653.9,618.7,651.5,610.9,652.9,601z"/>
	<path class="st34" d="M579,613.8c-1.6,22.1-20.2,28.8-35.3,38.7c-8.6-7.8-9.4-15.1,0.1-23.3c8.6-7.4,16.5-15.7,26.5-21.6
		C578.5,602.7,578.1,608.9,579,613.8z"/>
	<path class="st35" d="M804.2,578.3c-21.8,6.4-42.1,0.7-62-7.8c16.3,0.9,31.9,0,43.6-14c4.4-5.3,9.2-7.5,11.8,2.1
		C799.4,565.3,801.9,571.7,804.2,578.3z"/>
	<path class="st20" d="M542.4,508.9c12.7-9.5,23.5-20.8,32.6-34c6.4,4.5,0.4,13,6.6,16.8c-2,3.9-3.6,8-5.9,11.7
		C563.3,522.8,561.8,523,542.4,508.9z"/>
	<path class="st36" d="M694.5,715.8c8.7,1.6,17.4,3.2,26.2,4.9c-10.7,24.3-16.8,26.6-45,17.4C675.6,725.3,685,720.5,694.5,715.8z"/>
	<path class="st37" d="M722.7,667.4c7.9,0.1,11.2,4.9,12.3,11.9c-8.2,2.3-9.4,11.1-14.9,15.9c-5.4,4.7-7.6,13.8-17.3,12.4
		c-8.1-2.3-12.6-8-14.9-15.8C695.8,678.7,707.5,670.6,722.7,667.4z"/>
	<path class="st38" d="M694.5,715.8c-6.3,7.4-12.6,14.8-18.9,22.3c-9.8,1.1-18.1-3.5-26.7-7c9.9-10.2,13.2-27.6,31.4-28.5
		C685.1,707,689.8,711.4,694.5,715.8z"/>
	<path class="st39" d="M680.4,702.6c-13.5,6.1-15.8,24.7-31.5,28.5c-11.1-3.7-6.3-11.1-3.4-17.1c5.8-12,17.2-18.7,27.3-26.7
		C677.7,691.6,679.6,696.9,680.4,702.6z"/>
	<path class="st40" d="M518.8,484.2c-19,3.8-25.6,23.8-41.5,31.6c-1.3-29.5,21-38,42.2-48.2C523.8,474,518.4,479,518.8,484.2z"/>
	<path class="st41" d="M785.6,640.3c-4.4-5.6-8-11.6-8-19c5.8-8.2,14.7-8.5,23.6-9.7c-5.7,0.4-12.1,3.6-16.5-2.6
		c26.5-8.4,29.3-7.2,34.8,15.5C806.8,626.8,801.6,645,785.6,640.3z"/>
	<path class="st42" d="M609.4,640.1c10.5-11.7,21.1-23.3,31.6-35c10.2,16.4-1.8,28.7-9.9,39.5C626.1,651.4,615.9,645.9,609.4,640.1z
		"/>
	<path class="st43" d="M500,601.6c-2,17,4.8,32.1,9.7,48c-13.4-17-26.2-34-29.1-56.1C488.5,592.6,495.4,594.3,500,601.6z"/>
	<path class="st44" d="M347.4,729.9c5.3-20.6,9.4-41.3,4.7-62.7c7,8,9.5,18,12.7,27.8C370.4,712.6,367.4,725.3,347.4,729.9z"/>
	<path class="st45" d="M187.4,632.8c-8.7-1.1-8.2-7.2-5.1-11.2c8.5-10.8,21.2-16.3,32.8-23.1c4.3-2.5,8.3,1.8,5.4,5.9
		C211.7,616.5,200,625.5,187.4,632.8z"/>
	<path class="st46" d="M359.9,615c4.6-0.7,6.1,1,6.9,3.7c1.3,4.9,3.1,9.8,3.8,14.8c1,7.3,10.1,18.1-2.1,21.1
		c-11.4,2.8-12-10.8-15.2-18.4C349.3,626.9,356,620.8,359.9,615z"/>
	<path class="st16" d="M702.7,707.7c7.1-8,15.3-15.3,20.9-24.3c3.6-5.8,7.8-2.4,11.4-4C740.3,705.7,728.8,715.9,702.7,707.7z"/>
	<path class="st47" d="M757.1,617.1c9.2,0.8,12.6,3.9,4.4,11.4c-0.9,0.8-2.3,1.2-3.4,1.8c-10.5,5.9-20.9,11.8-31.8,17.9
		c-2.8-8.4,5.4-12.8,4-19.4C737.5,620.9,748.3,621.3,757.1,617.1z"/>
	<path class="st48" d="M652.3,543.1c1.9,5.3,12.7,5.5,9.5,12.8c-2.9,6.4-10.7,6.5-17.3,5.9c-7.1-0.6-17.2-1.6-17.9-8.9
		c-1.3-13.2,11.9-7.4,18.5-10.4C647.4,542.7,649.9,542.9,652.3,543.1z"/>
	<path class="st49" d="M238.4,609.2c10.2-11,23.9-18.2,32.6-31c2.1-3,6.7-10.6,13.7-4.5c-8.6,5.6-11.6,14.9-16.4,23.2
		C261.8,608.2,254,618.8,238.4,609.2z"/>
	<path class="st50" d="M785.6,640.3c8.2-0.2,12.1-6.9,17.2-11.7c4.9-4.6,9.4-9.4,16.6-4.2C812.6,654.9,811.2,655.5,785.6,640.3z"/>
	<path class="st51" d="M780.7,512.4c14.7-6.2,19-21.6,28.6-32.3c10,13.7-0.6,25.2-6.4,35C799.3,521.3,788.1,516.1,780.7,512.4z"/>
	<path class="st52" d="M722.7,667.4c-11.6,8.2-23.2,16.3-34.9,24.5c-10.6-11.9-1.1-16.6,7.7-21.3
		C704.1,666.1,712.8,661.9,722.7,667.4z"/>
	<path class="st53" d="M624.3,593.8c-9,11.4-25.2,11.8-34.3,23c-9.7-14.2-0.1-19.8,11.3-22.6C608.5,592.4,616.5,593.8,624.3,593.8z"
		/>
	<path class="st54" d="M584.6,841.7c-12.3,6.8-22.9,9.3-33.6,1c-3.1-2.4-5.6-6-4-9.9c2.2-5.6,6.6-1.7,9.6-0.8
		C565.6,834.7,574.4,838.1,584.6,841.7z"/>
	<path class="st55" d="M569.6,461.5c-11.2,12.2-28.7,6.8-41.5,14.7c-1-12.1,6.4-15.6,16.6-15.6C553.1,460.6,561.4,461.2,569.6,461.5
		z"/>
	<path class="st18" d="M400.1,710.5c-21.3,3.1-25.3-3.3-20.7-34C391.7,686.8,394,699.4,400.1,710.5z"/>
	<path class="st56" d="M425.5,742.6c10.4,11,18.3,19.3,26.2,27.7C434.9,771,426.5,763.1,425.5,742.6z"/>
	<path class="st57" d="M805.3,475.5c-12.7,4.7-24.7,3.1-36.2-3.6C781.7,468,794.3,463.9,805.3,475.5z"/>
	<path class="st58" d="M784.6,608.9c6.7,0,13.5,0,20.2,0c0.2,1.1,0.5,2.1,0.7,3.2c-9.3,3.1-18.6,6.1-28,9.2
		C775.6,614.7,774.8,608.8,784.6,608.9z"/>
	<path class="st59" d="M691.6,184.1c-0.1,4.7-0.2,9.4-0.3,14c-0.7,1.8-1.9,3.3-3.6,4.3c-4.4,1.7-8.8,4.3-13.2-0.1
		c-0.2-2.3-0.5-4.6-0.7-6.9C678.8,190.1,684.9,186.6,691.6,184.1z"/>
	<path class="st60" d="M418.1,269.4c6.2,3.9,12.5,7.8,18.6,11.7c2.1,1.4,4.8,3.4,2,5.7c-2.8,2.5-5.7-0.8-8.5-1.7
		c-4.2-3.4-8.3-6.8-12.5-10.1C417.9,273.1,418,271.3,418.1,269.4z"/>
	<path class="st61" d="M249.2,444.5c3,0.3,6.1,0.6,9.1,0.9c-5.5,7.3-13,11.8-22,16.2C236.5,451.8,244.1,449,249.2,444.5z"/>
	<path class="st62" d="M660,268.3c-21,13.9-44.8,19.7-69.1,23.6c-8.5,1.4-18.2,1.6-23-6.2c-5.7-9.2,4.4-13.9,9.6-18.5
		c27.4-23.9,59.3-41.2,90.3-59.7c7.7,8.5,5.5,18.2,2.7,27.4c-2.9,9.3-4.6,18.8-6.7,28.2C663.1,265.2,661.8,267,660,268.3z"/>
	<path class="st63" d="M660,268.3c0.4-1,0.8-1.9,1.1-2.9c3.7-8.8,9.4-14.7,19.9-13.4c-0.5,45.8,20.8,82.2,49.7,115.3
		c-6.4,6.2-13.1,11.8-22.7,12c-18.2-20.8-33.4-43.4-40.7-70.5c-7.1-9.8,0.4-22.5-6.6-32.3C660.5,273.7,660.3,271,660,268.3z"/>
	<path class="st64" d="M220.8,500.7c-8.2,24.2-25.9,40.7-43.4,56.8c-14.7,13.6-31.8,24.6-47.9,36.7c-2.6,1.9-5.4,4.6-8.7,2.5
		c-4.6-2.9-1.7-6.7-0.3-10.2c4.6-11.2,13.2-19.3,21.4-27.5C165.4,535.8,190.7,515.2,220.8,500.7z"/>
	<path class="st65" d="M681.1,252c-6.6,4.5-13.3,8.9-19.9,13.4c-3.9-20,10.2-37.9,6.8-57.9c2.2-1.7,4.5-3.4,6.7-5.2
		c4.3-0.9,8.6-1.7,13-2.6c5.8,16,0.4,31.1-4,46.3C682.8,248,681.9,250,681.1,252z"/>
	<path class="st66" d="M660.8,276.4c12.1,8.8,5.1,21.4,6.6,32.3C653.5,300.4,661.8,287.5,660.8,276.4z"/>
	<path class="st67" d="M175.6,400.9c38.8-24.5,75.6-53.9,117.4-71.4c19.9-8.3,42.7-12.6,62.2-24.5c7.5-4.5,13.8-11.9,26.1-7.6
		c-36.9,23.3-73.8,46.6-110.8,69.9c-15.6,8.8-30.1,19.4-45,29.2c-6,8.1-17.5,8-23.7,15.9c-4.9,6.2-13.5,7.4-18.5,13.6
		c-10.9-0.1-21.2-2.4-30.7-7.9C159.5,411.2,170.3,409.7,175.6,400.9z"/>
	<path class="st68" d="M312.6,289.4c13.5-8.8,27-17.6,40.6-26.2c8.7-5.5,17.6-8.2,28.8,1.4c-25,4.6-43.4,19.8-64.7,29.1
		C312.9,295.4,312.1,293.1,312.6,289.4z"/>
	<path class="st69" d="M312.6,289.4c1.6,1.4,3.1,2.8,4.7,4.3c-24,14.4-48,28.9-72.1,43.3c-0.9-1.5-1.8-3-2.7-4.5
		C265.9,318.1,289.3,303.7,312.6,289.4z"/>
	<path class="st70" d="M222.9,394.6c16.1-8.7,28.1-24.6,47.7-27.3c-11,11.9-24.5,20.4-38.8,27.5C228.7,396.4,225.8,397,222.9,394.6z
		"/>
	<path class="st71" d="M222.9,394.6c2.9,0.1,5.9,0.2,8.8,0.2c-6.3,7.3-13.6,13-23,15.7c-3,1.2-6,2-9-0.3
		C207.4,405,215.2,399.8,222.9,394.6z"/>
	<path class="st72" d="M175.6,400.9c-2.1,13.2-13.4,13.9-23,17.1C156.7,407.5,167.2,405.5,175.6,400.9z"/>
	<path class="st73" d="M199.7,410.3c3,0.1,6,0.2,8.9,0.3c-7.1,7.3-13.8,15.3-25.3,15.4C183.9,415.6,195.2,416.5,199.7,410.3z"/>
	<path class="st74" d="M480.3,760.6c-20.3-13.1-39-27.6-45.8-52.5c23.8-22.7,23.8-22.7,45.6,1.5c0.4,0.5,0.8,1,1.1,1.6
		c5.4,9.8,23.5,12,20.2,24.7C499.1,745.3,487.7,752.5,480.3,760.6z"/>
	<path class="st75" d="M387.5,596.7c-1.3-19-3.9-37.9-0.3-56.9c24.6-16.3,24.5-16.3,27.1,13.8c0.7,8.4,3,16.6,3.4,25
		C418.6,592.2,401.2,602.3,387.5,596.7z"/>
	<path class="st76" d="M243.1,727.2c6.9,13.1-10.8,28.3,6.1,32.8c9.4,2.5,21.6-5.5,37.9-10.4c-19.9,17-38.6,25.7-56,36.3
		c-7.8,4.7-9.2-0.8-7-6.9C229.8,762.6,236,746.4,243.1,727.2z"/>
	<path class="st77" d="M302.3,709.3c-5.9-11.2,9.2-25.3-2.5-32.7c-9.8-6.2-19.3,7.8-30.1,9c-1.8,0.2-3.7,0-7.4,0
		c11.8-13.6,26.1-21,39.9-28.8c10.7-6.1,14.9,0.9,13,10.1C312.1,681.2,310.4,696.2,302.3,709.3z"/>
	<path d="M753.3,205.9c0-0.6,0-1.3,0-1.9c0.9-18.5-3.5-40.7,19.4-48.4c20.4-6.9,36.9,7.3,49.3,20.8c40.2,43.9,61.3,95.8,56.8,156.3
		c-1.6,21.5-13.4,28.5-33.5,19.5C803.8,333.5,746.6,273.8,753.3,205.9z"/>
	<path class="st78" d="M769.7,339.7c-41.5-39.6-55.1-87.6-43.5-143.3c1.3-6.1,1.6-12.9,8.1-16.6c-1.1,27-5.7,54.2,1.5,80.8
		c14.1,51.9,50.4,84.2,97.4,106.4c6.4,3,12.7,6,23.5,11.2C819.3,375.9,794.4,358,769.7,339.7z"/>
	<path class="st79" d="M581.2,815.5c16.2-22.2,16.2-22.2,95.9-13.1C647.9,829,615.7,821.5,581.2,815.5z"/>
	<path class="st80" d="M631.3,368.5c5.4-0.6,6.1,4,7.7,7.2c2.4,4.8,1.4,8.7-3.7,11.3c-24.3,12.3-48.5,24.6-72.8,36.9
		c-4.1,2.1-7.6,1-9.8-3.1c-2.1-3.9,0.7-5.9,3.6-7.6c24.4-14.6,48.8-29.3,73.2-43.9C630,369,630.7,368.8,631.3,368.5z"/>
	<path class="st81" d="M683.6,246c-0.4-15.6-0.5-31.1,4-46.3c1.3-0.5,2.5-1,3.8-1.6C707,217.1,692.7,231.1,683.6,246z"/>
	<path class="st82" d="M495.3,732.7c-1.1,6.7-5.6,9.6-9.7,12.5c-4.2,3-8.8,6.2-13.9,1.3c-8.5-8-17.2-15.6-23.3-25.8
		c-5.4-9-0.5-14.4,5.4-20.1c8.5-8.1,11.5,1.5,14.7,5.4c5.4,6.6,11.1,12.4,17.9,17.5C489.8,726.1,492.5,729.8,495.3,732.7z"/>
	<path class="st83" d="M396.6,591.5c-4.4-12.7-7-25.2-5.5-38.2c0.9-7.8,5.9-14.7,12.8-14.6c5.4,0.1,6.9,8.9,5.9,14.3
		C407.3,566.2,419.8,585,396.6,591.5z"/>
	<path class="st84" d="M589.5,808.6c23.9-13.2,46.2,2.7,71.3-7C644,819,617.6,820.7,589.5,808.6z"/>
</g>
</svg>
