<?xml version="1.0" encoding="utf-8"?>
<!-- Generator: Adobe Illustrator 23.0.1, SVG Export Plug-In . SVG Version: 6.00 Build 0)  -->
<svg version="1.1" id="Layer_4" xmlns="http://www.w3.org/2000/svg" xmlns:xlink="http://www.w3.org/1999/xlink" x="0px" y="0px"
	 viewBox="0 0 1000 1000" style="enable-background:new 0 0 1000 1000;" xml:space="preserve">
<style type="text/css">
	.st0{fill:#BB8170;}
	.st1{fill:#FEEABA;}
	.st2{fill:#1E363A;}
	.st3{fill:#650A5F;}
	.st4{fill:#AE10A3;}
	.st5{fill:#FD0000;}
	.st6{fill:#AD10A2;}
	.st7{fill:none;}
	.st8{fill:#BD8270;}
	.st9{fill:#FBEABA;}
	.st10{fill:#CB0000;}
	.st11{fill:#F392EC;}
	.st12{fill:#FAEABB;}
	.st13{fill:#AE11A3;}
	.st14{fill:#753045;}
	.st15{fill:#395E66;}
	.st16{fill:#375C63;}
	.st17{fill:#385E65;}
	.st18{fill:#0D010C;}
	.st19{fill:#1E3539;}
	.st20{fill:#743044;}
	.st21{fill:#84A5D2;}
	.st22{fill:#87A8D6;}
	.st23{fill:#F18FEA;}
	.st24{fill:#1D3538;}
	.st25{fill:#20393D;}
	.st26{fill:#385D64;}
	.st27{fill:#375C64;}
	.st28{fill:#AA7664;}
	.st29{fill:#640A5E;}
	.st30{fill:#1D3539;}
	.st31{fill:#88A9D7;}
	.st32{fill:#FC0202;}
	.st33{fill:#385E64;}
	.st34{fill:#C50000;}
	.st35{fill:#EE89E6;}
	.st36{fill:#82A2CE;}
	.st37{fill:#BB826F;}
	.st38{fill:#355960;}
	.st39{fill:#6D2D40;}
	.st40{fill:#C3B893;}
	.st41{fill:#FEE1E1;}
	.st42{fill:#DDCEA5;}
	.st43{fill:#27241D;}
	.st44{fill:#BBA688;}
	.st45{fill:#FEFEEA;}
	.st46{fill:#0A0409;}
	.st47{fill:#080605;}
	.st48{fill:#433D31;}
	.st49{fill:#0E0610;}
	.st50{fill:#FEF9F9;}
	.st51{fill:#020102;}
	.st52{fill:#F190EB;}
	.st53{fill:#BD8370;}
	.st54{fill:#F596EF;}
	.st55{fill:#90B3E4;}
	.st56{fill:#F292EC;}
	.st57{fill:#AB11A0;}
	.st58{fill:#640A5F;}
	.st59{fill:#EA8DE5;}
	.st60{fill:#732F44;}
	.st61{fill:#692B3E;}
	.st62{fill:#1E3035;}
	.st63{fill:#86A7D4;}
</style>
<g>
	<path d="M930.3,246.3c-21.9-12.6-45.5-9.4-68.4-3.4c-24.9,6.4-33.8,28.6-43.8,51c-2.8-4.3-4.2-6.4-5.6-8.5
		c-18-27.8-36.9-35.5-64.1-22.6c-11.7,5.6-14-3.1-18.3-7.6c-19.1-20.3-41.1-27-67.3-16.2c-4,1.6-6.2,0.9-9.8-0.3
		c-47.1-16.4-87.6-1.1-111.5,42.1c-3.3,5.9-4.4,8.5-13.6,5.5c-21.1-6.9-43.5-9.7-65.4-14.2c11.1-9.1,22.3-17.6,26-33.2
		c7.9-33.5,5.1-65.5-11.7-95.6c-5.6-10-7.9-17.4-0.4-27.8c11.3-15.5,10-31.5-3-46.3c-12.5-14.3-28.4-19.3-43.4-8.2
		c-17.2,12.6-28.3,4.9-43.4-3.5c-26.4-14.6-54.5-25.8-86.3-20.3c-46.9,8.1-67.6,53.3-70,91.6c-2,32.4,4.7,62.8,19.7,91.8
		c9.8,19,4.7,30.3-14.6,38.3c-19.4,8-30.7,30.2-23.5,48.7c4.1,10.6,11.5,19.3,19.2,28.1c7.9,9,15.7,20.8,6.7,33.4
		c-17.3,24.3-34,48.5-35.2,79.9c-0.3,7.2-5.8,13.9-12.7,14.3c-7.6,0.4-5.5-7.8-6.7-13c-6.8-28.9-41.3-56.7-63.9-51.2
		c-47,11.5-72.3,39.7-73,91.6c-0.5,33,3.4,65.3,8.6,97.5c4.9,30.4,13.9,59.8,30.6,86.3c10,15.9,38.3,31.3,56.4,28.6
		c42.6-6.3,78.4-44.4,73.3-87.1c-0.9-7.2-8.4-13.8-2.7-21.9c14.3,3.1,26.7,8.1,35,22.1c4,6.7,10.2,13.3,18.3,16.8
		c9.6,4.1,11.8,12,11.5,21.9c-0.4,16-8.1,31.9-3.5,47.7c2.3,7.9,0.6,11.6-3.3,18.1c-13.7,23.2-23.2,47.8-8,74.1
		c3.2,5.5,0,9.1-1.5,11.5c-11.2,16.6-6.7,32.3,1.7,47.9c3.9,7.3,9.7,14.4,5.8,23c-7.8,17.3,0,31.6,10.1,43.5
		c24.7,29,60.8,41,95.2,38.5c38.3-2.9,78.7-13.9,99.5-54.7c2.2-4.3,6.5-7.4,11.2-10.2c29.4-16.9,36.2-61.7,15.5-84.3
		c-8.1-8.8-5.5-22-6.5-32.6c-0.8-7.7,12.7-6.9,20.4-8.7c36.3-8.3,70.3-21.7,102-41.8c27.4-17.3,37.6-39.5,33-71.4
		c-3.4-24-8.9-47-20.8-68c-7.2-12.6-0.3-21.5,4.4-31.9c5.7-12.4,12.9-0.9,17.1-0.2c34,6.3,61.4,0.3,77.3-33.8
		c2.3-4.9,5.7-3.5,10.7-2.9c22.4,2.8,47.2-10,54.8-31.3c7.3-20.5,15.8-38.2,35.9-48.7c3.6-1.9,6.9-5.3,7.7-10.5
		c2.7-16,6.1-32,9.2-47.9c56,23.5,99.8,13.7,119.5-30.4C981.3,312.9,973.9,271.5,930.3,246.3z M527.5,656.2c-2.5-4.6-7.3-9.6-2-15.5
		c7.5-8.4,14.9-2.1,22.6-0.2c8.3,2,16.1,6.7,13.8,15c-2.8,10-3.4,22.6-14.8,28.4C535.1,677.8,532.8,665.9,527.5,656.2z M125.2,473.3
		c6.9,17.2,13.9,33.5,3.6,52.8c-9,16.9-6,35.2,7.3,49c14.3,14.7,18.5,30.2,12.6,49.6c-1.6,5.2-2,10.2-7.7,11.8c-7,2-10.9-3.6-14.2-8
		c-12.5-16.4-16.1-36.3-20.2-55.8c-3.9-18.5-6.4-37.4-8.6-50.7c-1.1-20.3,4.9-33.9,7.5-48.1c0.9-5.1,3.4-8.4,8.5-9
		C120.1,464.3,123,467.8,125.2,473.3z"/>
	<path class="st0" d="M531.4,324.2C519.7,395.5,546.3,455,589,509.4c4.8,6.1,10.2,12.3,16.6,16.2c16,9.8,15.9,21.1,5.5,35
		c-16.4-13.9-38.1-14.6-57-22.2c-7.6-3.1-13.3,3.4-19,7.5c-64.4,46.5-136.4,70.7-215.6,74.3c-10.3,0.5-22.7-8.8-30.3,7.3
		c-1.8,3.9-8-2.2-11-4.9c-33.4-28.9-57.4-63.8-62.5-108.6c-3.2-28.3-3.8-56.9,6.8-84.3c3.5,2.5,4.5,6.3,4.6,10.2
		c0.3,26.5,10.9,48.4,29.3,66.2c-1.6-4.8-3.4-10.2,2-14.7c4.4-0.2,6.9,2.9,9.7,5.5c30.4,28.8,64.9,33.8,102.7,15.2
		c6.1-3,11.7-8.8,19.6-5.1c-0.6,16.2-1.2,17-19.4,29.7c42.2,2.3,121.7-20.6,157.1-44.8c9.8-6.7,11.7-14.1,6.8-24.8
		c-8.1-17.6-15-35.7-18.3-55.1c-3.2-18.6-6.5-37-1.9-55.7c0.3-3,0.8-6,1.6-8.9C520.4,339,517.3,325.9,531.4,324.2z"/>
	<path class="st1" d="M518.9,355.3c-4.8,41.2,4.5,79.7,23.9,115.7c7.1,13.1-1.2,18.3-9.2,23.1c-32.4,19.5-66.2,35.7-104.2,40.7
		c-22.3,2.9-44.2,10.2-69,7.6c9-13.6,26-19,30.2-34.8c-1.1-12.7,9.3-17.7,16.8-24.2c6.8-6,14.9-10.6,21.4-17
		c15-14.7,14.9-33.2-0.3-48c-6.1-5.9-12.1-11.8-15.7-19.6c-17.5-37.7-47.8-53.8-88.3-49.8c-37,3.7-55.6,30.6-69.6,61
		c-9.7,20.9-11.6,42.4,0.7,63.6c3.1,5.4,5.8,11.8,2.4,18.6c-1,8.9,5.5,15.7,8.3,28.6c-33.1-25-46.4-54.2-43.8-91.2
		c12.6-39.1,40.7-65.2,71.4-91c65.1-54.6,138.3-58,216.1-41.4c4.4,0.9,8.6,2.8,13,4.1c13.2,3.7,16.1,11.3,8.6,22.8
		c-8.7,5.7-5.7,17-11.4,24.2c-8.5-22.9-21-41.4-48-44.4c-18.9-2.1-36.4,1.5-50.6,14.6c-14.4,13.3-13.4,31.2,1.7,43.8
		c17.5,14.7,52.6,16.2,73.6,3.5C503.8,361.7,509.3,354.1,518.9,355.3z"/>
	<path class="st1" d="M386.7,136.7c13.1-7.7,24.8-22,41.7-5.4c7.4,7.2,22.2-4.9,29,9.1c11.4,23.5,21.4,47.2,18.7,74.2
		c-9,2.6-4.5,11.5-7.8,16.8c-10.9,25.7-43.8,34.6-67.6,30.6c-28.8-4.8-48.7-21.9-53.8-48.1c-2.1-10.9-11.6-19.1-10.1-31
		c3-10.9,12.8-16.5,19.6-24.5C365.4,149.9,374.8,141.6,386.7,136.7z"/>
	<path class="st2" d="M416,839.7c0.9,0,3.5-0.1,6.1,0c19,0.9,39.2,5.8,45,24.2c5.9,18.7-5.7,37.7-21.1,49.1
		c-28.4,20.9-59.3,36.6-97,28.5c-16.9-3.6-28.4-13.3-34.3-28.4c-5.3-13.7,1.9-25.1,11.8-34.5C351.1,855.2,378.6,838.1,416,839.7z"/>
	<path class="st3" d="M410.6,671.4c-28.7-22.5-58.6-27.8-91.7-8.9c-13.5,7.7-19.8,19.9-28.1,32.3c1.4-19,0.6-38.2,6.3-56.8
		c2.5-8,7.9-8.6,15.1-8.6c84.7,0.6,160.4-26.2,228.6-75.6c5.3-3.8,10.2-8.4,17.5-5.5c1,2.9,2.2,5.8,4.1,8.2
		c4.4,9.4,11.5,17.7,10.9,29c-6,13.3-21,17.9-28.4,29.9c-20.8-5.1-40.9-7.6-61.2,3.5c-15.1,8.2-21.9,22.9-32.2,34.8
		C438.6,661.5,425.4,668.3,410.6,671.4z"/>
	<path class="st3" d="M621.1,453.2c20.8,22.1,41.8,41.9,76.2,39.5c16-1.1,21.6,13.4,13.3,27.6c-11.1,19.1-30,25.7-54,20.9
		c-34.5-7-57.5-29.1-76.1-56.7c-31.6-46.9-54.4-96.8-41.1-155.3c6.7-29.2,16.9-57.4,47-71.9c-1,14.5-12.8,24.4-16.5,37.8
		c-34,91.8,21.8,196.1,79.2,206.4c-5.6-10.3-14.1-16.5-20.4-24.5C623.3,470.1,615.2,463.8,621.1,453.2z"/>
	<path class="st3" d="M722.8,441.3c14.6,4.5,27.9,11,43.8-0.7c8.1-6,19.1,2.4,18.2,14.4c-1.3,17.8-5.9,34.9-23.2,44.6
		c-15.7,8.8-30.7,4-43.7-5.5c-45.8-33.5-70.5-80-81-134.8c-4.8-25.3-3.4-50.5,5.1-74.4c5.8-16.3,13.9-32.7,35.1-34.5
		c-5.4,22.8-17,44.1-15.6,68.4c-1.8,65.3,30.3,131.5,70.3,144.6C731.7,454.6,719.1,451.2,722.8,441.3z"/>
	<path class="st4" d="M621.1,453.2c2.9,18.3,19.8,26.5,29.1,40.1c2.9,4.3,10.5,8.6,6.3,14.6c-4.7,6.7-10.6,0.1-15.4-2
		c-49-21-70.2-63.2-81.8-111.2c-8.3-34.3-6.2-68.9,7.3-102.2c8.1,9.4,3.2,19.8,2,29.8c-1.8,15.1-7.1,30.4,2.1,45.6
		c8.5-5.5,5.9-13.3,6.5-20c2.4-29.8,9.9-57.7,30-80.8c4.7-5.4,7.2-10.6,5.2-17.6c0.5-0.4,0.9-1,1.5-1.2c11.9-3.7,28.2-2.5,32.2,5.5
		c5.4,10.6-8.2,23.7-15.8,29.7c-52.6,41.7-38.9,92.2-22.1,143.5C611,436.2,616.6,444.5,621.1,453.2z"/>
	<path class="st5" d="M839.5,284.5c17.8-31,54.8-41.1,82.3-22.5c-6.3,6.1-14.7,3.8-22.1,5.1c-11.2,2-19.5,7.6-21.7,19.1
		c-2,10.3,3.7,17.7,12.6,21.7c12.9,5.9,25.4,4.5,35.7-6c7.4-7.5,7.1-16,1.6-24.8c-2.9-4.7-8.2-8.6-6.3-15.4
		c33.7,13,45.4,54.1,24.6,86.2c-25.1,16.9-52.2,18.4-77.1,2.9C845.6,336.6,833.3,313.8,839.5,284.5z"/>
	<path class="st2" d="M160.5,636.9c6.2-19.7,5.2-39.7,1-59.5c-2.4-11.1,0.4-18.1,11.1-20.8c9.7-2.4,14.5,3.5,16.3,12.1
		c6.6,31.2,18.4,62.7-3.9,92.8c-27.4,37-70.8,33.5-91.9-6.6c-20.8-39.4-24.2-82.7-30.5-125.4c-3.7-25.1-2.4-50,6.3-74.2
		c2-5.5,2.8-11.6,9.6-13.6c2.9,3.1,3.9,7.1,2.7,10.9c-9.3,29-3.7,57.9-0.4,86.9c0.6,1.9,1,3.8,1.1,5.8c0.9,32.7,6.8,64.5,19.5,94.8
		c8.8,21,22.6,30.7,39.4,29.1c18.1-1.7,41.2-23.5,44.7-42.3C176,627.6,172.6,643.5,160.5,636.9z"/>
	<path class="st4" d="M722.8,441.3c2.8,7.7,10.1,11.6,14.9,17.6c2.9,3.5,6.6,7.2,2.5,11.8c-3.1,3.4-7.1,1.3-10.7-0.1
		c-14.4-5.7-25.9-15.6-34.1-28c-24.4-37.1-43.6-76.3-39-122.9c9,1.6,12.1-3.4,13.8-11.3c2.8-13.8,6.4-27.6,16.3-38.3
		c6.3-6.8,0.2-13.2,0.6-19.8c10.8-1.2,18.3,5.6,26.1,11.2c7.7,5.5,20,10.3,18.6,20.4c-1.4,9.9-14.3,4.9-21.7,7.7
		c-15.1,5.7-24.9,15.8-26.7,32.6C678.2,367.9,689.2,408.3,722.8,441.3z"/>
	<path class="st6" d="M410.6,671.4c10.6-10.2,24.5-13.8,37.8-18.6c5.7,5.2,1.7,10.5,0.1,15.7c-8.8,13.2-4.2,23.8,5.4,34.7
		c23.4,26.3,69.3,25.2,90.9-10.4c1.5-4.4,4.5-7.8,7.4-11.3c16.3-19.7,17-29.6,3.6-52.5c-2.7-5.4-8.1-9.5-8.7-16
		c-5.3-8.9,2.9-10.3,7.5-14c5.4-4.3,10.5-9,15.8-13.5c1.3-0.2,2.9-0.5,3.8,0.3c14.4,12.2,33,74,26.8,90.9
		c-5.2,14.2-17.5,22.2-29.3,30.4c-25.6,17.6-53.5,29.1-84.3,33.8c-6.6,1-12.8,2.4-18.6-2.1C453.8,712.4,427.4,696,410.6,671.4z"/>
	<path class="st7" d="M148.8,624.7c-1.6,5.2-2,10.2-7.7,11.8c-7,2-10.9-3.6-14.2-8c-12.5-16.4-16.1-36.3-20.2-55.8
		c-3.9-18.5-6.4-37.4-8.6-50.7c-1.1-20.3,4.9-33.9,7.5-48.1c0.9-5.1,3.4-8.4,8.5-9c6.1-0.7,9,2.8,11.2,8.3
		c6.9,17.2,13.9,33.5,3.6,52.8c-9,16.9-6,35.2,7.3,49C150.4,589.8,154.6,605.3,148.8,624.7z"/>
	<path class="st3" d="M495.3,850.9c-0.9,11-7.6,18.6-17.6,28.9c2.6-25.8-12.8-35.5-30.3-43.2c-17.4-7.7-35.9-6.1-53.7-2.9
		c-26.1,4.8-48.7,17.5-68.6,34.9c-21.3,18.7-24.4,34.5-11,61c-19-6.7-30.4-20.8-31-37.1c-1-23,11.7-41.8,32.8-53.2
		c8.6,5.9,16.9,5.1,25.3-0.4c28.7-18.8,61.6-23.5,94.6-26.4C464.7,809.9,486.7,824.8,495.3,850.9z"/>
	<path class="st3" d="M796.9,382.8c3.9,0.1,7.8,0.4,11.7,0.1c21.2-1.4,22.5,0,18.1,21.9c-0.9,4.4-1.6,8.9-3,13.2
		c-6.7,21.4-24.6,28.9-42,15c-36.3-29.1-61.9-88.4-43.4-137.3c5.3-13.9,15.3-23.9,32.3-22c-0.7,12.2-13.8,19.1-13.5,31.7
		c-5.2,27-2.3,52.7,12,76.5c6.8,11.2,15.1,21,30.6,22.3C802.8,396.4,792.3,390.2,796.9,382.8z"/>
	<path class="st8" d="M414.5,273.9c-54,13.6-96-10-133.2-44.9c-34.1-31.9-43.2-72.2-32.7-117.2c1.6-6.9,3.6-13.7,8.4-19.3
		c1.8,1,3.2,2.5,4,4.5c3,27.3,0.8,55.2,16.6,80.5c27.7,44.4,65,74.7,116.2,87.1C401.3,266.4,409.4,266.9,414.5,273.9z"/>
	<path class="st3" d="M472.5,797c-27-8.1-51.8-23.4-82-19.9c-24.3,2.8-46.9,9.6-67.1,23.1c-14.1,9.4-22.4,22.9-26,39.5
		c-1.6,7.2-5.5,15.2-13.3,14.4c-7.7-0.8-10.1-9.7-10.6-16.7c-1.9-27.5,12.6-46.3,34.1-60.9c10.2,4.3,18.8-0.5,27.8-4.3
		c30.5-13,61.8-18.9,94.7-10.6c12.7,3.2,25,7.4,35,16C470.8,782.5,478.1,787.6,472.5,797z"/>
	<path class="st4" d="M495.3,850.9c-22.4-41.3-59.6-34.7-96-28.8c-23.1,3.7-44,13.7-64.2,25.5c-9.2,5.4-19.1,8.6-19.3-8.4
		c41.3-34.9,89.1-48.2,142-38.3C485.6,806.2,497.3,824.9,495.3,850.9z"/>
	<path class="st4" d="M472.5,797c-3.6-17.4-18.2-22.6-32.1-27.2c-39.5-13.1-77.2-6.7-113.5,12c-8,4.1-16.9,11-19.3-5.3
		c37.3-35.4,111.5-45.9,149.3-21.4c13.6,8.8,23.3,20.7,26,36.8C484.6,802.2,480.2,804.1,472.5,797z"/>
	<path class="st9" d="M305,51.4c35.1-3.8,64.3,12.2,92.7,29.2c11.9,7.2,11.5,32.2,0.6,40.8c-5.1,4-10.1,8-15.2,12.1
		c-5.9,11.1-16.9,17-25.6,25.2c-7.5,6.1-13.6,13.5-20.9,19.7c-3.2,1.9-6.4,3.8-9.8,0.5c-4.1-7.7,0.6-13.6,4.1-19.8
		c11-19.8,24-38.4,37-56.9c7.6-10.8,4.8-16.7-5.6-23.2c-16.4-10.3-34.9-13.3-52.9-18.1C305.8,58.7,303.5,55.9,305,51.4z"/>
	<path class="st3" d="M632.5,683.4c-1.3,11.2-7.9,18.8-17,24.6c-39.2,25-81.2,43.2-127.7,49.4c-7.6,1-19.8,6.1-18.6-10.4
		c7-6.8,16.6-6.3,25.1-8.4c43.1-10.8,81.8-28.7,110.6-64C615.4,673.3,624.6,676.3,632.5,683.4z"/>
	<path class="st10" d="M839.5,284.5c6.1,14.5,3.9,30.7,14.5,45.1c18.7,25.5,41.8,29.4,69.6,23.1c7.5-1.7,15.1-3.1,22.6-4.7
		c-17.2,30.6-54.2,40.2-85.4,22.1C830.6,352.6,821.4,315.8,839.5,284.5z"/>
	<path class="st11" d="M612.2,249.6c7.9,3.1,15.5,5.9,4.7,15.3c-25.5,22-31.8,52.1-34.5,83.6c-0.6,6.4-0.2,13-1.4,19.3
		c-1,5.4-4.9,9.6-10.8,9.3c-5.5-0.2-6.5-5.1-7.8-9.7c-4.6-16.8-0.6-33.3,1.3-49.9c1-8.3,1.8-16.6,2.8-25c4.7-12.9,10.6-25,19.9-35.3
		C594.7,253.7,602.8,249.6,612.2,249.6z"/>
	<path class="st2" d="M624.5,319.7c3.4,61.3,23.2,116.1,68.8,165c-39.1-2.4-56.9-25.1-72.3-51c2.7-8,3.9-15.7,0.7-24.3
		c-7.6-20.1-10.5-41-9.7-62.5C613.7,336.7,611.5,324.6,624.5,319.7z"/>
	<path class="st12" d="M414.5,273.9c-64.7-9.6-113.1-42.5-144.6-100.1c-13.1-23.9-14.3-49.6-11.7-75.9c5.5-1,6.4,3.4,8.1,6.8
		c10.4,67.7,51.3,112.7,108.2,146.2c19.6,11.5,40,13.6,61.6,8.1c3,0.9,5.5,2.2,5.1,5.9C432.9,269.7,424.2,273.4,414.5,273.9z"/>
	<path class="st13" d="M796.9,382.8c1.8,3.4,4,6.7,5.4,10.2c2.1,5.3,13,8.8,6.3,15.3c-4.8,4.7-13.5,2.5-20.1-0.9
		c-24.4-12.5-33-35.5-37.3-59.9c-2.5-14.1-4.8-29.3,2.6-43.4c6,4.5,5.8,11.1,5.9,17.5c-0.1,1.8-0.2,3.6,0,5.3
		c0.8-1.8,0.2-3.6,0.2-5.5c3.3-16.6,10-31.5,20.9-44.5c12.3,2.5,9.9,17.2,21.5,21.3C760.7,317.1,759.4,354.3,796.9,382.8z"/>
	<path class="st2" d="M722.7,308.7c-3.5,43.2,7.4,82,35.6,115.2c7.2,8.5,5,11.3-4.5,14.3c-11.3,3.5-20.2,0-28.1-7.4
		c-12-11.3-19.6-25.5-26.4-40.3c11.9-7.8,15-18.4,10.8-31.9c-2.9-9.4-2.4-19.2-0.5-28.8C712.4,321.8,710.5,310.9,722.7,308.7z"/>
	<path class="st4" d="M632.5,683.4c-9.5-0.4-18.2-3.2-26.4-8c-7.7-30-17.6-59.5-25-89.6c12.7-5.6,22.9-0.7,32.2,7.9
		C626.6,622.2,636.8,651.2,632.5,683.4z"/>
	<path class="st4" d="M300.7,718.7c47.2-40.3,142.9-34.8,158.1,26.2c-7.1,1-11.7-4.3-17.3-6.7c-37.6-29.9-77.9-30.4-120.2-11.5
		C306.5,733.3,303.2,731.6,300.7,718.7z"/>
	<path class="st3" d="M300.7,718.7c4.1,14.5,12.8,6.5,19.7,3.6c23.3-9.8,46.5-16.5,72.6-12c20.1,3.5,36.6,11.2,48.6,27.8
		c-8.2-1.8-16.1-3.6-23.5-8.3c-35.8-22.8-95.6-4.5-117.1,14.3c-9,7.9-12.8,17.6-12,29.4c0.4,6.1-0.3,13.4-7.5,13.4
		c-6.7,0-7.4-7.6-8.2-13.3C269.6,750.1,279.2,731,300.7,718.7z"/>
	<path class="st14" d="M231.5,583.7c-28.9-11.3-47.1-25.7-51.5-51.9c-3.6-21.4-0.4-41.3,22.4-54.1
		C207.4,513.1,207.3,548.7,231.5,583.7z"/>
	<path class="st15" d="M77.9,543.1c-10.1-33.8-10.1-67.5,0.5-101.2c4.9-5.6,8.1-12.9,16.1-15.3c5.9,2,11.5,0.1,17.3-0.7
		c27.9-3.6,40.3,5.2,49.2,32.3c4.9,14.8,1.1,31.4,10.1,45.2c-3.1,5.4,0.4,15.3-10.4,15.4c-5.6-8.2-7.7-17.5-8.2-27.2
		c-0.5-9.9-3.6-19.2-8.4-27.7c-6.5-11.6-14-22.4-30.1-19.4c-16.9,3.2-24.6,12.2-26.1,30.8c-0.2,2-0.4,3.8-1.5,5.5
		c-0.4,13.1-0.9,26.3-1.3,39.4c-2.2,0.7-3.8-0.1-4.5-2.3c0-10.1-5.1-20.3-1.3-26.7c-4,9,1.4,21.5,2.6,34
		C81.6,531.4,83.5,538,77.9,543.1z"/>
	<path class="st16" d="M160.5,636.9c8.9-0.8,13.2-7.6,17.9-13.7c2.9-3.9,5.6-7.5,11-4.6c4.8,2.6,4.9,6.3,3.7,11.5
		c-3.8,16.4-34.6,43.3-52.4,44.9c-18.1,1.6-34.5-9.7-43.6-32.3c-12.3-30.7-20.9-62.5-18.8-96.1c9,0.5,6.8,7.9,7.4,12.9
		c3,25.7,10.4,50.1,20.2,73.9c3.2,7.8,8.3,14.6,14.5,20.3c13.4,12.4,27.7,8.6,35.9-9C157.7,642.1,159.1,639.5,160.5,636.9z"/>
	<path class="st17" d="M335.6,663.6c30.7-11.6,62.1-1.3,80.9,27.5c-33.2-9.7-64.8-6.7-95.8,5c-9.5-0.9-4.5-7.1-3.6-11.1
		C319.4,674.7,328.6,670,335.6,663.6z"/>
	<path class="st18" d="M581.7,585.9c11.8,28.8,23.7,57.6,24.4,89.5c-19.1,33.7-53.8,45-86.1,59.3c-16,7.1-33.4,10-50.8,12.2
		c-0.2-2.8-0.3-5.5-0.5-8.3c42.9-4.8,81.8-19.7,115.5-47.1c7.6-6.2,15.7-12.7,13.7-24.1c-5-28.7-11.4-57-27.6-82
		c-4-10.3-7.9-20.6-11.9-30.9C575.7,558,578.8,571.9,581.7,585.9z"/>
	<path class="st19" d="M273.4,299.7c-2.1,11.4-5.4,23.8-22.2,24.6c-14.3,0.7-24.2-9.8-23.2-26.8c0.8-12.7,6.1-24.5,20.3-27.1
		C259.3,268.3,272.8,284.2,273.4,299.7z"/>
	<path class="st20" d="M275.4,70.2c0.4-3.1,0.6-6.4,4.5-7.6c6.9-3.1,13.2-8.9,21.6-4.6c4.5,7.8,0.3,15.1-1.2,22.5
		c-4.7,23-8.3,45.9-2,69.2c1.5,5.5,2.6,11.4,0.1,17.2c-10.8,7.1-13.8-2.4-16.8-8.8c-12.7-26.9-20.4-54.6-10-84.4
		C271.5,71.2,272.8,70,275.4,70.2z"/>
	<path class="st21" d="M156.4,644.7c5,3.3,7.8,7.1,2.2,12.2c-8.5,7.8-18.1,12.4-29.8,8.2c-10.3-3.7-16.8-11.7-21.7-21.1
		c-13.6-26-20.1-54.2-24.9-82.9c-0.8-5,0.5-10.5-3.8-14.5c0-1.2-0.1-2.4-0.4-3.6c0.1-6.6,0.3-13.1,0.4-19.7c0.9-1.6,2.2-2.9,3.8-3.9
		c0.9,0.4,1.9,0.6,2.9,0.7c1,36.8,9.2,72.1,22.5,106.2C118,653.6,131.9,658.6,156.4,644.7z"/>
	<path class="st22" d="M171.1,503.4c-10.9,0.6-9.9-7.9-11-14.6c-1.3-8.2-1.6-16.7-3.4-24.8c-6.6-30.4-16.2-37.1-47.3-32.2
		c-6.7,1.1-11.2,0.4-14.8-5.3c35.2-20.9,64-9.5,73,29.8C171.1,471.6,178.5,487.1,171.1,503.4z"/>
	<path class="st23" d="M687.1,250.3c10.3,5.5,14.9,11.2,3.9,21.4c-13.1,12.2-14.6,29.8-18.3,46.2c-1,4.4-1,10.3-5.8,11.5
		c-6.8,1.6-6.4-6.9-10.5-9.7c0-25.2,4-49.1,20.6-69.4C680.4,250.3,683.8,250.3,687.1,250.3z"/>
	<path class="st19" d="M292.9,776.3c13.1-40.3,68.7-60.8,114.5-43.9C364.1,736.9,327.1,746.5,292.9,776.3z"/>
	<path class="st24" d="M309.5,832.3c11.3-35,58.2-52.3,117-43.3C384,792.1,346,807.1,309.5,832.3z"/>
	<path class="st25" d="M86.3,480.7c-4.3-24.9,0.3-32.7,23.1-39.8c16.1-5,31.8,3.8,40.5,23.3c7.7,17.3,6.7,36.5,10.7,54.6
		c-13.1-0.8-8.7-12.9-10.9-19.4c-3-8.9-3.7-18.9-7.7-27.7c-4.8-10.3-8.3-23.6-23.2-22.1c-13.5,1.4-23.7,9.2-28.5,22.7
		C89.2,475.2,87.6,477.9,86.3,480.7z"/>
	<path class="st26" d="M714.7,331.9c-4.1,12-0.8,23.7,2.1,35.1c4.1,15.8-1.6,23.1-17.4,23.5c-7.5-22.9-16.1-45.7-8.3-70.4
		C695.4,331.1,704.7,332.2,714.7,331.9z"/>
	<path class="st27" d="M617.1,347.5c-0.6,23.4,2.2,46.4,12.6,67.6c5.6,11.3,0,15.1-8.6,18.6c-15-22.7-20-47.9-18.9-74.7
		C607.6,355.8,608.6,346.8,617.1,347.5z"/>
	<path class="st28" d="M293.6,275.5c6.3,4.9,8.9,6.6,11.1,8.8c21.4,20.7,21.2,21.4-2.4,39.4c-11.8,9.1-23.2,18.8-34.9,28
		c-2.8,2.2-5.2,7.3-9.4,4.7c-4.9-3.1-4-9.3-4.1-14.3c-0.1-5.5,4.2-4.8,8.2-5.4C296,331.3,308.1,310.9,293.6,275.5z"/>
	<path class="st29" d="M581.7,585.9c-9.2-9.4-11.3-24-23.3-31.3c-3.5-2-1.1-4.2-0.3-6.4c26.3,5.6,50.8,13.4,55.1,45.5
		C602.8,591.1,592.2,588.5,581.7,585.9z"/>
	<path class="st30" d="M136.3,541.4c-3.3-16,11.4-11.9,21-13.6c8.4-1.5,13.7,2.2,14.3,11.2c0.2,3.4-22.8,27.1-25.9,26
		C135.8,561.4,136.9,552.3,136.3,541.4z"/>
	<path class="st2" d="M821,331.5c1.2,3.5,2.2,7.1,3.5,10.6c4.3,11.6,12.8,22.6-7.3,29.9c-18.6,6.7-26-2.1-32-16.6
		C796.5,346.4,811.4,342.9,821,331.5z"/>
	<path class="st31" d="M714.7,331.9c-22.9,12.1-23.6,11.7-23.7-11.8c3.2-11.8,10.1-20.1,22.3-23.3c11.9-3.1,14.9,1.1,9.4,11.9
		C717.1,315.4,716,323.7,714.7,331.9z"/>
	<path class="st32" d="M425.7,81.8c5.3-6,11.4-10.3,19.9-9.2c-1.4,15.8,6.3,12.7,15.1,7.2c7.1,6.2,5.6,13.9,3.6,21.6
		c-7.7,12-18.5,15.9-31.1,9.5C420.7,104.6,419.4,93.8,425.7,81.8z"/>
	<path class="st21" d="M617.1,347.5c-3.2,6.2-4.7,14.5-15,11.5c-0.8-23.3,1.8-45.1,24.9-59.8c4.7,8.3-3,13.9-2.4,20.5
		C617.9,327.9,617.8,337.8,617.1,347.5z"/>
	<path class="st33" d="M821,331.5c-3.5,20.6-21.3,19.7-35.7,23.9c-2.4-10.5-13-19.6-5.2-31.8c13.3,10.3,26.9-4,40.3,0.7
		C820.5,326.6,820.8,329.1,821,331.5z"/>
	<path class="st34" d="M425.7,81.8c0.6,29,10.9,34.3,38.6,19.7c-3.2,15.3-12.1,24.7-28.2,22C414.6,120,410.2,100.9,425.7,81.8z"/>
	<path class="st35" d="M757.2,324c-1.1-6.6-2.3-13.2-3.4-19.8c-2.7-14.7,8.5-21.8,16.8-30.5c3.4,1.1,6.8,2.2,10.2,3.4
		c-6.2,15.6-12.3,31.2-18.5,46.9C760.6,325.1,758.9,325.1,757.2,324z"/>
	<path class="st36" d="M820.3,324.2c-9.6,3-19.4,5.4-28.7,9.2c-11.4,4.7-11.2-2.6-11.6-9.9c7.5-13.7,21.6-12.1,33.6-13.4
		C824.7,309,818.5,319.2,820.3,324.2z"/>
	<path class="st37" d="M288.5,263.2c21.9,0,35.5,8.3,45.8,22.6c2.6,3.6,8,7.2-0.1,12c-5.7,3.4-10,4.1-12.6-1.7
		C315.3,282,301.8,275.1,288.5,263.2z"/>
	<path class="st38" d="M274.7,275.9c12.9,2.8,19,11.1,18,21.2c-1.1,11.2-5.9,22.3-21.3,26.9C281,308,278.2,293,274.7,275.9z"/>
	<path class="st19" d="M335.6,663.6c-4.4,11.1-19,17.5-14.9,32.4c-6.6,3.6-13.2,7.2-20.4,11.1C300.2,685.6,310.8,673,335.6,663.6z"
		/>
	<path class="st39" d="M296.9,254.1c-28.1,8.4-32.4,4.5-29.4-26.2C277.2,236.6,286.2,244.6,296.9,254.1z"/>
	<path class="st40" d="M441.1,264.9c-1.4-1.2-2.8-2.4-4.2-3.6c4-10.1,16.8-10,22-18.9c2.9-5,11.1-7.7,6-15.7
		c3.1-17.7,3.1-17.7,11.2-12.1C477.4,240.4,464.3,256.2,441.1,264.9z"/>
	<path class="st41" d="M460.7,79.9c-2.5,7.8-5.8,15.9-15.8,10.7c-10.2-5.3-6.4-12.2,0.7-18C452.2,71.7,457,74.6,460.7,79.9z"/>
	<path class="st42" d="M275.4,70.2c-0.3,1.4-0.7,2.8-1,4.2c-5.7,10.1-1.8,23.7-12,32.1c-1.4-2.9-2.8-5.7-4.2-8.6
		c-0.4-1.8-0.8-3.6-1.1-5.3C262.3,84.4,260.7,70.6,275.4,70.2z"/>
	<path class="st43" d="M355.6,156.6c8.2-8.8,16.4-17.7,27.4-23.2c1.2,1.1,2.4,2.2,3.6,3.2c-9,7.9-18,15.8-27,23.6
		C355.8,161.9,355.2,159.9,355.6,156.6z"/>
	<path class="st44" d="M300.4,58.8c-6.8,1.3-13.6,2.5-20.5,3.8c5.8-9.4,15.7-9.7,25.1-11.2c1.4,2.2,2.8,4.4,4.2,6.6
		C306.5,60.8,303.5,61.1,300.4,58.8z"/>
	<path class="st45" d="M518.9,355.3c-30.3,25.7-63.2,31.9-90.5,17c-14.6-7.9-24.9-18.4-22.3-36.9c2.3-16.8,13.5-25.8,27.9-31.3
		c15.1-5.8,30.3-8.9,47-3.8c26.4,8.1,37.5,20.4,39,47.9C519.7,350.7,519.3,353,518.9,355.3z"/>
	<path class="st46" d="M257.9,492.3c-25.5-41.8-17.3-80,11.7-116.7c38.8-49.1,114.4-42.8,143.3,12.8c5.7,11,11.5,20.9,21.3,29.3
		c18.4,15.6,15.2,41.5-7.8,57.5c-13.5,9.4-25.1,20.1-35.8,32.3c-14.6,4.9-26.8,14.8-42.6,17.9C310.8,532.7,280.1,524.7,257.9,492.3z
		"/>
	<path class="st47" d="M262.4,106.5c4.7-10.4,3.3-23.2,12-32.1c-5.3,29.1-4.4,57.4,11.6,83.5c2.6,4.2,3.9,9.7,10,10.7
		c12.7-3.4,24.1-2.2,32.4,9.6c2.5-0.8,5-1.6,7.5-2.5c3.7-0.7,5.5,0.4,4.3,4.4c11.6,29.3,11.8,65.3,53.1,75.3c29,7,59.9-3,71.6-28.8
		c9.3,8.4,0.2,13.9-4.2,18.1c-7,6.5-15.7,11.1-23.8,16.5c-28.4,12.4-53,1.7-76.3-13.4C308.6,214.3,270.8,170.6,262.4,106.5z"/>
	<path class="st48" d="M340.2,180.2c-1.4-1.5-2.9-3-4.3-4.4c5.1-7.9,11.6-14.3,19.7-19.1c1.4,1.2,2.7,2.5,4.1,3.7
		C353.2,167,346.7,173.6,340.2,180.2z"/>
	<path class="st49" d="M445.6,667.8c1-5,1.9-10,2.9-15c22.8-44.6,48.6-55,98.7-39.8c4.5,3.3,10,5.7,11.3,12
		c-1.5,1.4-3.2,2.1-5.2,2.3c-9.9-0.8-17.9-7.2-27.7-8.6c-38.1-5.4-63,12.7-70.5,51.8c-0.4,2.6,3.3,0.1,0.7,0.5
		c-0.5,0.1-0.6-0.5-0.4-1.8c2.4-16.1,9.4-29.8,22.4-39.5c12.8-9.5,27-12.7,41.4-2.4c3.4,6.4-2,8.2-5.6,10.9
		c-12.9,4.8-5.2,13.4-4.1,21c1,7.1,11.4,15-1.2,21.4c-6.9-2.6-9.2-9-12.4-14.7c-3.6-8.3-7.1-16.7-7-25.9
		c-13.2,11.1-21.1,24.5-18.7,42.3c0.4,7.5,4.4,14.3,4,21.9c-1.1,3.2-3.6,4.6-6.8,4.9C448.6,701,441.6,687.6,445.6,667.8z"/>
	<path class="st50" d="M921.6,261.9c10,10.8,21.7,21.1,13.1,38.3c-7.1,14.1-19.5,18-34.1,16.7c-16.2-1.4-29.9-14.8-28.2-28.8
		c1.9-16.1,11.9-25.5,28.2-26.8c7-0.5,14.1,0.5,21.2,0.8C921.8,262.1,921.6,261.9,921.6,261.9z"/>
	<path class="st51" d="M558.4,625c-1.5,0-2.9,0.1-4.4,0.1c-0.2,0-0.4,0.1-0.6,0.1c-3.1,0.6-6.3,0.3-9.5-0.1
		c-8.4-1.1-16.9-3.5-24,4.5c-0.1,0.1-0.2,0.2-0.3,0.3c-2.6,2.3-5.3,4.5-7.9,6.8c-1.1,1.2-1.8,2.4-2.2,3.6c-1.2,3.6,0.4,7.4,1.6,10.9
		c6.4,17.5,16.2,33.3,26.7,48.5c0.1,0.1,0.1,0.2,0.2,0.3c0.2,0.3,0.5,0.7,0.7,1c0.1,0,0.1,0,0.2,0c4.4,0,6.8-2.7,8.5-6.3
		c0,0,0,0,0,0l0,0C576.3,664,578.4,650.7,558.4,625z M527.5,656.2c-2.5-4.6-7.3-9.6-2-15.5c7.5-8.4,14.9-2.1,22.6-0.2
		c8.3,2,16.1,6.7,13.8,15c-2.8,10-3.4,22.6-14.8,28.4C535.1,677.8,532.8,665.9,527.5,656.2z"/>
	<path class="st52" d="M539,699.3c2.8-1.6,5.6-3.1,8.4-4.7c-11.7,35.2-65.9,42.8-96.1,13.1c-11.6-11.4-20.4-24.3-5.7-40
		c1.4,16.9,7.1,31.1,23.1,39.4C493.1,713.3,516.1,706.7,539,699.3z"/>
	<path class="st53" d="M328.4,178.2c-9.2-8.7-22.5-3.5-32.4-9.6c-10.1-37.1-7.6-73.6,4.3-109.8c2.9-0.3,5.9-0.5,8.8-0.8
		c23.3,0.8,43.6,9.6,63.2,21.8c10.3,6.4,9,10.9,3.2,19.4c-14.6,21.3-28.2,43.2-42.3,64.8C330.4,168.3,327.4,172.6,328.4,178.2z"/>
	<path class="st54" d="M757.2,324c1.7,0,3.4,0,5.1,0c5.5,3.9,4.8,8.3,0.9,12.7c-2,2.2-4.6,2.2-6.6,0.1
		C752.5,332.4,752,328,757.2,324z"/>
	<path class="st55" d="M82.1,519.5c-1.3,1.3-2.5,2.6-3.8,3.9c-0.5-13.1-6.9-26.5,3.8-43.3C82.1,495.8,82.1,507.6,82.1,519.5z"/>
	<path class="st4" d="M343.6,453.8c-11.8,18.4-28.8,29.4-50.1,32.9c-21.9,3.6-40.3-10.8-43.5-34.1c-3.7-26.6,5.9-49.3,22.9-69.3
		c23.6-15.6,42.7-17.2,59-4.8c19.1,14.6,25.2,38.9,16.1,64.6C346.7,446.8,346,450.6,343.6,453.8z"/>
	<path class="st3" d="M390.5,437.4c-1.9,15.6-12.5,32.2,6.2,45.4c2.7,1.9-0.6,5.7-2.5,8.4c-22.8,31.9-89,39.2-118.2,12.8
		c-3.9-3.5-7.3-7.5-7.7-14.5c43.7,12.6,70-10.8,91.3-44.2c4.2-6.6,8.2-13.3,12.3-19.9C382,423.3,386.2,430.5,390.5,437.4z"/>
	<path class="st56" d="M343.6,453.8c-0.9-12.4,5.3-23.8,4.1-36.4c-3.2-32.1-23.3-46.4-55-39.5c-6.8,1.5-12.2,7.4-19.8,5.5
		c11.2-15.7,25.7-26.9,44.7-31.5c29.5-7.2,55.2,16.6,51,46.7C365.8,419.5,357.4,437.8,343.6,453.8z"/>
	<path class="st6" d="M390.5,437.4c-6.2-4-12.4-8-18.7-11.9c5.6-22.4,11.9-44.8-10-67c25.1,4.8,36.5,19.4,47.4,39.4
		c-19.7-8-20.8,2-17.1,14.7C394.7,421.4,392.2,429.2,390.5,437.4z"/>
	<path class="st57" d="M433.2,433.8c-0.1,1.3-0.3,2.5-0.3,3.8c-2,7.3-5.5,12.7-14.3,11.1c-9.5-0.1-15.4,8.3-25.6,11.1
		c4.2-16.5,7.8-32.2,6.5-48.5C413.6,414.4,425.3,421.3,433.2,433.8z"/>
	<path class="st58" d="M418.5,448.8c4.8-3.7,9.6-7.4,14.3-11.1c2.6-0.2,6.1-0.1,6.3,2.7c0.5,9.5-23.1,36.4-32.4,38.2
		c-5.9,1.1-8.1-3.2-10.2-6.7c-3-4.9,2-6.2,4.8-8.6C406.9,458.3,415.5,456.9,418.5,448.8z"/>
	<path class="st59" d="M433.2,433.8c-10.2-9.1-25-11.2-33.8-22.4c-0.3-2.9-0.6-8.9,1.6-7.6C413.8,411.4,431,414.9,433.2,433.8z"/>
	<path class="st60" d="M342.1,223.2c-7.5-6.2-20.4-8.3-16.7-21.9c0.5-1.8,4.4-4.5,5.2-4.1C340.5,202.8,342.8,212.2,342.1,223.2z"/>
	<path class="st61" d="M299.8,178.9c9.9,3.5,16.5,2.3,19,8.7c0.5,1.3-2.1,5.3-3.7,5.7C306.2,195.2,305.7,187.3,299.8,178.9z"/>
	<path class="st62" d="M539,699.3c-23.7,18.2-47.7,20.9-70.3,7.9c1.3-1.3,2.5-2.6,3.8-3.9c12.8-3.7,26,6.1,38.6-1.3
		c6.9-2.6,3.3-6.1,1-9.8c-2.4-3.8-7.5-7.1-3.5-12.7c4.5-12.5-7.8-20.8-8.1-32.1c-0.2-7.8-2.6-17.9,11.3-10.7
		c3,15.8,10.1,29.9,19.5,42.8C535.6,685.5,539.3,691.6,539,699.3z"/>
	<path class="st3" d="M554,625.1c-1.4,11.9-8.8,2.3-13.2,3.3c-6.8,1.7-14.1,1.1-21.2,1.5c-36.8-7.8-55.1,6.1-64.2,49
		c-4.5-21.8,1.5-40,18.7-53.2c19.6-15.1,41.6-16.6,64.4-8.7C544,619,548.9,622.4,554,625.1z"/>
	<path class="st17" d="M516.4,706c-15,4.8-29.8,5.3-44-2.7c-4.5-5.7-6.8-12.1-7.1-19.3c8.1-8.4,13.3-20.5,27.5-20.6
		C499.9,678,514.5,688.6,516.4,706z"/>
	<path class="st2" d="M492.7,664.4c-11,3.9-15.1,17.5-27.4,19.6c-3.4-21.6,5.4-37.2,24.1-49c3.8,10.2,7.3,19.5,10.8,28.8
		C497.9,666.5,495.4,666.4,492.7,664.4z"/>
	<path class="st63" d="M492.7,664.4c2.5-0.2,5-0.4,7.5-0.6c2.8,5.2,5.6,10.5,8.4,15.7c4.1,5.7,8.2,11.5,12.4,17.1
		c4.6,6.2-0.3,7.6-4.5,9.5C507.6,692.7,496.1,680.8,492.7,664.4z"/>
	<path class="st7" d="M561.8,655.5c-2.8,10-3.4,22.6-14.8,28.4c-12-6-14.2-18-19.6-27.7c-2.5-4.6-7.3-9.6-2-15.5
		c7.5-8.4,14.9-2.1,22.6-0.2C556.4,642.5,564.2,647.2,561.8,655.5z"/>
</g>
</svg>
