<?xml version="1.0" encoding="utf-8"?>
<!-- Generator: Adobe Illustrator 23.0.1, SVG Export Plug-In . SVG Version: 6.00 Build 0)  -->
<svg version="1.1" id="Layer_4" xmlns="http://www.w3.org/2000/svg" xmlns:xlink="http://www.w3.org/1999/xlink" x="0px" y="0px"
	 viewBox="0 0 1000 1000" style="enable-background:new 0 0 1000 1000;" xml:space="preserve">
<style type="text/css">
	.st0{fill:#7F0100;}
	.st1{fill:#FE0000;}
	.st2{fill:#000100;}
	.st3{fill:#613000;}
	.st4{fill:#623100;}
	.st5{fill:#36B20D;}
	.st6{fill:#964B00;}
	.st7{fill:#FEFEFE;}
	.st8{fill:#D79018;}
	.st9{fill:#A46C04;}
	.st10{fill:#A46B04;}
	.st11{fill:#954A00;}
	.st12{fill:none;}
	.st13{fill:#FD0000;}
	.st14{fill:#F0EBEA;}
	.st15{fill:#FEFD00;}
	.st16{fill:#007F00;}
	.st17{fill:#006600;}
	.st18{fill:#A36B04;}
	.st19{fill:#29890A;}
	.st20{fill:#55ED22;}
	.st21{fill:#C8C8C7;}
	.st22{fill:#A36C04;}
	.st23{fill:#29880A;}
	.st24{fill:#C3C3C3;}
	.st25{fill:#00CD00;}
	.st26{fill:#006200;}
	.st27{fill:#D69017;}
	.st28{fill:#D58F17;}
	.st29{fill:#D79118;}
</style>
<g>
	<path d="M913.1,546.2c-3.4,22.8-2.4,45.7-6,68.6c-9.2,59.3-33.8,111.1-66.6,160.1c-61.4,91.7-149.6,144.1-255.1,165.7
		c-92.9,19-184.8,7.5-270.2-35.1c-70-35-126.5-86.4-166.9-154.7c-26.2-44.4-44.1-91-51.5-142.4c-2.8-19.5-0.2-39.4-6.3-58.9
		c-3.3-10.3-5.2-25.6,16-23c3.7,0.5,9.3-3.1,14.4-3.4c5.3-5.4,12.1-7.8,18.9-10.5c0.3-0.1,0.6-0.3,0.9-0.4c1.1-0.5,2.2-1,3.3-1.5
		c12.1-5.4,23.7-12,35.7-17.7c0.2-0.1,0.5-0.2,0.7-0.3c0.2-0.1,0.4-0.2,0.6-0.2c5.2-2.2,9.5-6.1,14.7-8.3h0
		c42.3-22.2,76.3-52.3,98.4-95.8c20.6-40.8,42.8-80.9,65.9-120.3c22.8-38.9,59.5-59.1,102.4-68.5c16.2-3.6,33.1-9.4,49.7-0.6
		c2.1,7.6-3.2,11-8.3,14.5c-0.6,0.1-1.2,0.2-1.8,0.3h0c-0.9,0.1-1.7,0.3-2.6,0.4c-23.4,3.5-46.6,7.4-68.4,17.8
		c-35.2,16.8-51.2,49.7-69.8,80.5c-3.8,6.4-6.6,13.3-9.9,20c-0.1,0.3-0.3,0.5-0.4,0.8c-0.1,0.2-0.2,0.4-0.3,0.6
		c-24.2,42.6-43.8,88.3-79.8,123.2c-38.9,37.7-86.2,62.1-135.4,83c-23.7,10.1-23.1,9.1-21.8,34.3c1.3,24.2,5.6,47.7,12.3,70.8
		c0.3,0.9,0.5,1.8,0.8,2.7c0.3,1.2,0.6,2.4,1,3.6c0.9,3.4,1.7,6.7,2.6,10.1c0.5,1.6,0.9,3.1,1.5,4.7c0,0,0,0,0,0
		c1.6,4.1,3.3,8.2,4.8,12.4c0,0.1,0.1,0.3,0.1,0.4c0.2,0.6,0.4,1.3,0.7,1.9c1.1,3,2.3,6,3.8,9c0.2,0.3,0.3,0.7,0.5,1
		c0.1,0.2,0.2,0.4,0.3,0.6c33.6,73.7,82,134.6,152.1,176.9c0.2,0.1,0.3,0.2,0.5,0.3c2,1.2,4,2.3,6.1,3.5c0,0,0,0,0,0
		c127.6,72.1,257.4,74.3,389.2,9.2c0.3-0.2,0.6-0.3,0.9-0.5c0.6-0.4,1.3-0.7,1.9-1.1c73.5-42.1,128.9-101.2,165.9-177.6
		c3.4-7,6.7-14,8.4-21.7c0.3-1.2,0.7-2.4,1.1-3.5c0.2-0.6,0.5-1.2,0.7-1.9c1.2-3.1,2.7-6.1,4-9.1c0.5-1,0.9-2.1,1.4-3.1
		c0-0.1,0.1-0.2,0.1-0.3c0.6-1.6,1.2-3.2,1.9-4.7c0.4-1,0.7-1.9,1-2.9c0.8-2.6,1.5-5.2,2.1-7.8c0.5-2.3,1-4.7,1.6-7.1
		c0.3-1.1,0.5-2.3,0.8-3.4c0,0,0-0.1,0-0.2c4.7-28.7,12.7-56.9,11.9-86.5c-0.4-13.3-5-20.4-18.1-23.2c-15.2-3.2-30.1-8-45.2-11.8
		c-72.6-18.7-116.9-68.5-148-133.2c-0.6-1.4-1.2-2.8-1.7-4.2c-0.7-1.7-1.3-3.4-2-5.1v0c-8.2-21.6-14.1-43.9-19.3-66.4
		c-8.8-37.6-24.4-69.5-64.8-82c-2.5-0.8-4.3-2.7-6.1-4.7c0,0,0-0.1,0-0.1c0,0,0,0,0,0c-0.1-0.2-0.2-0.3-0.2-0.5c0,0,0,0,0,0
		c-2.5-6.5-1.9-11.8,5.5-14.9c48.2,5.5,66.6,41,82.3,80.2c9.3,23.4,9.3,48.9,19.1,72.2c11.8,28.1,25.7,54.8,46.8,77.1c0,0,0,0,0,0.1
		c0,0-0.1,0-0.1-0.1c13.2,16.3,26.8,32.1,47.1,40c0.8-0.6,1.6-1.2,2.4-1.9c0.4,0.3,0.8,0.6,1.2,1c3.9,3.1,7.8,6.4,12.4,8.5
		c0.5,0.2,1,0.4,1.5,0.6c0.3,0.1,0.6,0.2,0.9,0.3c13.6,5.6,27.1,11.3,41.4,14.8c0.2,0,0.3,0.1,0.4,0.1c0.8,0.3,1.6,0.5,2.3,0.7
		c6.7,1.7,14.1,1,19.8,6h0c2.8,1.4,5.4,3.7,8.4,4.2C915.2,513.2,918,513.6,913.1,546.2z"/>
	<path class="st0" d="M593.8,203.8c-1.6,4.6-3.2,9.2-4.8,13.8c-7.2,25-23.4,45.4-35.9,67.5c-9.7,17.3-19.9,34.5-30.2,51.5
		c-13.7,25-29,49.1-43.4,73.6c-7.5,12.8-6.6,22.8,3.8,32.8c32.1,31.1,59,67.1,90.5,98.8c22.1,22.2,22,24.7,2.7,50.2
		c-12.5,16.5-24.6,33.4-37.4,49.7c-5,6.1-9,12.8-13.2,19.3c-6.6,7.9-13.8,15.2-19,24.2c-3,4.3-5.7,8.9-8.9,13
		c-10.6,14-20.4,28.5-31.7,41.9c-10,11.8-10.5,21.7-1.6,34.6c22.1,32,41.4,65.9,63,98.2c5.4,10.2,12.2,19.6,17.5,29.8
		c2.3,4.4,6.6,9.6,1.9,13.9c-5,4.6-9.7-0.6-13.1-3.9c-10.1-9.9-22.2-17.4-32.1-27.4C465,850.7,425.5,819,388.2,784.8
		c-11.1-10.2-12.4-17.9-3.6-29.5C402.2,732,417,706.7,434,683c4.6-5.2,8.6-10.9,12.4-16.7c4.5-6.2,7.3-13.5,12.1-19.5
		c3.4-4,6.2-8.3,8.9-12.8c9.5-14.8,19.9-28.8,30.3-42.9c6.9-9.5,6.9-16.5-2.2-25.1c-35.5-33.3-71.9-65.4-108.3-97.6
		c-21.2-18.7-23.1-22.7-8.8-47.3c14.7-25.2,30-50.1,43.6-75.9c23.6-37.5,43.2-77.4,66.7-115c4.3-6.9,7.1-15,14.8-19.2
		c2.8-4,5.7-8.1,8.5-12.1c13.5-0.1,26.1,4.5,38.6,8.5c11.5,3.7,22,11.5,30.4-4.9C584.8,195.1,589.6,201.9,593.8,203.8z"/>
	<path class="st1" d="M791.5,46.9c53.8,0,104.9,0.3,156-0.2c10.1-0.1,10.9,5.4,9.4,12.1c-10.2,46.1-20.8,92.1-31.1,138.1
		c-2.6,11.7-9.1,1.6-10.4,0.7c-12.5-8.7-24.1-18.6-36.5-27.5c-6.2-4.4-11.1-8.3-19,2c-14.6,19.2-29.9,37.9-43.1,58.1
		c-6.6,10.1-11.9,10.5-19.4,2.7c-24.9-26.2-49.8-52.4-74.6-78.7c-8.5-9.1-1-10.8,6.3-13.8c27.3-11.2,54.2-23.3,81.5-34.4
		c9.7-4,11.6-6.6,4.5-16.2C806,77.4,800,62.8,791.5,46.9z"/>
	<path class="st1" d="M91.3,205.7c-10.2-45.2-19.8-90.1-30.8-134.8c-3.6-14.6-3-20.8,14.6-20.5c48.7,0.9,97.5,0.3,147.3,0.3
		c-2.6,15.8-13.4,26.4-19.8,39c-6.8,13.3-5,18.8,8.9,23.9c25.3,9.3,49.7,21.2,75,30.5c12.4,4.5,12.3,8.6,3.8,16.8
		c-25.4,24.6-49,50.9-71,78.7c-6.4,8.1-9.8,7.4-16.8-1.8c-15.7-20.8-30.9-42.1-47.3-62.4c-7.9-9.8-12.4-5.1-17.7-1.9
		C121.4,183.3,109.3,199.1,91.3,205.7z"/>
	<path class="st2" d="M942.2,505.3c-29.8-5.4-46.2-23.4-66.9-32.5h0c-5.1-0.3-9.1-3.4-13.6-5.2c-0.3-0.1-0.6-0.3-1-0.4
		c-0.2-0.1-0.3-0.1-0.5-0.2c-9.7-4.4-20.8-5-30.1-10.8c-0.5-0.3-1-0.7-1.6-1c-0.6-0.3-1.2-0.7-1.8-1c-4.6-2.4-9.6-3.8-14.7-4.8
		c-0.5-0.1-1-0.2-1.4-0.3c0.5-1.1,1-2.3,1.5-3.6c-22.3-9.5-46.5-7.8-69.7-12.3c3-16.5,17.5-21.4,30.9-29.9
		c-5.7-0.9-10.1-1.5-15.3-2.3c9.9-13.5,23.6-20.1,39.3-28.7c-13.3-2-24.5-3.5-35.6-5.6c-2.5-0.5-4.6-3.6-6.8-5.5
		c1.8-1.8,3.3-4.7,5.4-5.3c57.8-16.4,95.8-57.6,129.9-103.5c0.3-0.5,1.1-0.6,4.9-2.7c11.1,53.6,20.1,106.8,35,159.7
		c-5.8-2.4-10.2-4.2-16.3-6.7c7.3,21.5,16.5,41.1,22.4,61.9C939.9,477.9,921.5,490.2,942.2,505.3z"/>
	<path class="st2" d="M109.3,452.5c-35.2,13.1-47,8.1-62.4-26.5c-2-4.5-5.2-6.2-9.2-8.6c-15.3-9.3-21.6-24.1-17.8-41.2
		c3.4-15.1,13.8-25.8,29.8-28.2c6.1-0.9,7.7-2,9.3-8.6c5.9-25.5,28.9-38.8,54.8-31.9c7.1,1.9,10.4-0.7,15.1-4.4
		c14.8-11.6,30.7-15.6,45.8-1c5.1,5,9,4.5,14.6,2.7c36.6-11.6,62.7,18.6,56.1,47.8c-1.3,5.7,0.4,7.5,3,11
		c17.2,23.3,11,46.1-16.4,58.5c-9.5,4.3-18.2,8.3-25,16.9c-5.2,6.6-14.6,6.9-23.1,6.8c-4.9,3.9-10.3,1.3-15.5,1.4
		c-9.7,1.5-16.9,9.5-26.9,10.2C130.1,460,120.1,453.1,109.3,452.5z"/>
	<path d="M920.3,700.2c5.2,95.4-123.6,232.4-233.6,249.8C795.7,897.4,871.8,813.9,920.3,700.2z"/>
	<path d="M76.8,630c17.6,133,103.7,218.5,203.2,295.2c-54-26.9-100.9-63.7-138.6-109.4C78.3,739.5,76.1,678.5,76.8,630z"/>
	<path d="M591.6,172.6c95.5,0.7,138.4,31.7,152.6,165.6c-14.7-35.8-26.4-72.8-47.9-105.8C672.2,195.3,632.5,188.3,591.6,172.6z"/>
	<path d="M290,339.9c3.4-75.9,78.8-168.4,154.4-163.1c-9.4,8.7-21.6,10.6-32.2,13.5c-36.1,9.8-57.3,36-75.3,65.5
		C320.4,282.8,306,311.1,290,339.9z"/>
	<path d="M770,960c68.7-31.7,119-79.5,149.1-148.1C905,893.8,838.6,959.4,770,960z"/>
	<path class="st3" d="M109.3,452.5c0.9-8.3,5.8-4.6,9.2-2.6c7,4.1,14.8,2.8,22.2,3.8c0.3,13.5,5,26.5,5,40.1
		c0,7.7,0.9,15.6-5.1,21.9c-5.7,4.8-12.4,7-19.8,7.4C127.8,497.7,122.8,474.4,109.3,452.5z"/>
	<path d="M132.7,862.4c-34.9-9.2-67.8-60.2-64.6-101.5C84.9,799,107,831.4,132.7,862.4z"/>
	<path d="M280,267.5c7.6-43.5,33.5-67.7,66-86.9C320.2,204.9,304.7,237,280,267.5z"/>
	<path d="M748.1,236.8c-13.7-33.7-36.8-57.1-71.6-69.9C710.9,159.8,748.9,197,748.1,236.8z"/>
	<path class="st3" d="M167.6,442.1c5.4,1.2,10.8,2.4,16.3,3.6c-1.5,14.5,5.2,26.4,11.8,38.5c-0.8,7.3-6.7,9.3-12.2,11.7
		C164.7,483,159.1,463.8,167.6,442.1z"/>
	<path class="st3" d="M863.5,464.6c5.7,0.3,9.6,3,11.8,8.3c1.6,10.6-6.4,19.9-3.9,30.6c-8.1-0.2-16.7,3.2-23.9-3.3
		C852.9,488.4,850.4,472.9,863.5,464.6z"/>
	<path class="st4" d="M523.6,875.2c-23-35.7-45.9-71.5-69.2-107.1c-4.9-7.6-4.9-14.3,0.5-21.2c13.4-17.2,26.8-34.4,40.3-51.7
		c31.2,1.6,58.1-9.9,84.5-25.4c34.6-20.3,70.4-26,106.8-2.4c29.9,19.3,59.2,18,89.6-1.3c20.7-13.1,44.3-19,69.1-9.6
		c11.3,4.3,21.3,9.9,25.1,22.5c-2.9,26.1-18.1,46.8-31.3,67.9c-36,57.7-83.8,103.3-143.6,136c-4-0.5-7.5-2.3-10.5-4.8
		c-17.1-14.1-35-15.4-54.1-4.3c-17,9.9-33.9,11.1-51.3,0c-10.6-6.8-22.2-5.6-33.8-1.5C538.7,874.7,531.8,880.3,523.6,875.2z"/>
	<path class="st5" d="M425,348.4c-15.9,28.2-31.3,56.8-47.8,84.6c-6.1,10.2-5.7,15.9,3.8,24.1c41.1,35.7,81,72.7,122,108.5
		c8.7,7.6,10.2,12.8,2.8,22.1C493,604,481.4,621.2,469.3,638c-8.5,4.6-16.8,1.4-24.3-2.2c-26.1-12.4-51.9-11-76.6,2.6
		c-32.2,17.7-62.2,16.6-93.3-3.8c-25.3-16.6-53-15.2-79.8-1.7c-17.5,8.9-35.2,16.5-55,18.3c-6.5,0.6-12.9,2.1-18.3-3.2
		c-11.1-29.5-11.9-60.7-15.9-91.4c-1.5-11.3,5.2-14,13.9-16.9c55.9-19,106.4-47.4,149.3-88.1c30.1-28.5,46.9-66.4,67.1-101.7
		c3.5-6.1,7.3-12.1,11-18.1c14.6,1,12.1,12.3,12.4,21.4c0.4,10.2-5.4,19.9-4.2,32c12.4-4.9,16.8-15.7,24.5-23.1
		c7.4-7.2,12.5-19.4,26.6-15.1c4.2,6.5-0.8,10.9-3.6,15.8c-14.2,24.9-30.4,48.6-46.8,72c-9.2,13.2-10.7,23.7,1.4,36.1
		c13.2,13.6,22.2,30.4,29.9,47.8c16.1,36.5,5.9,68.2-28.7,88.4c-13.5,7.9-28.6,12.3-44,19.6c16.7,3.2,31.1,0.4,44.8-7.1
		c27.7-15.1,56.1-18.7,86.4-6.8c18.2,7.1,24.1,2.2,38.4-22c8.9-15.1-2.5-20.6-11-28.5c-34.3-31.8-70.5-61.7-104.2-94.1
		c-12.4-11.9-14.6-23.4-5.6-37.9c17.1-27.6,31.8-56.7,51.3-82.8c1.7-1.1,3.5-1.7,5.5-1.9C422.4,345.6,424,346.6,425,348.4z"/>
	<path class="st4" d="M437.7,683c-14.2,26.2-31.7,50.3-49,74.5c-6.4,9-9.9,13.2,1.5,22.8c38.9,32.9,76,68,113.8,102.3
		c-8.5,9.6-19.3,9-30.3,6.8c-10.8-2.1-21.1-6-31.6-9.1c-18.5-5.3-37.1-6.9-54.7,2.4c-18.7,9.9-36.9,9.3-55.8,1
		c-13.5-5.9-26.9-12.7-42.1-13C219,827.5,169.7,766.4,137.1,691.2c26.1-9.4,51.9-20.1,79-26.4c17.7-4.1,36.2,0,50.5,10.1
		c32.9,23.2,64.9,20.4,98.8,3.3c17.6-8.9,36.8-13.1,56.7-7.2C428.8,672.9,436.7,673.6,437.7,683z"/>
	<path class="st5" d="M534,641.9c15.4-20.9,30-42.6,46.7-62.5c9.5-11.2,5-17.7-2.5-25.8C544.8,517.2,512,480.2,478,444.4
		c-11.2-11.7-13.2-20.6-3.8-34.6c15.9-23.6,29.6-48.8,44.3-73.3c4.9,0.3,6.7,3.5,7.6,7.8c0.2,2,0,4-0.5,5.9
		c-7.8,21.5-21.3,40.1-32.1,60.2c-7,13-5.1,22.4,5.3,32.8c32,32.3,66.3,62.5,94,99c18,23.8,18.3,23.5,1.1,46.9
		c-6.2,8.4-12.4,16.7-20.1,26.3c40.8-31.5,81.7-36.7,124-7.5c20.8,14.4,41.8,15.4,64.3,4.1c30.7-15.4,62.5-22,96-8.7
		c10,4,14.4-0.9,16.7-10c3.1-12,3.5-24.5,5.7-36.6c1.5-8.3-2.4-13.8-10.4-16.3c-8.7-2.7-17.3-6-26.2-7.7
		c-55.9-11.2-101.7-39.1-137.1-83.4c-10.5-13.1-18.7-12.7-30-2.3c-32.1,29.7-70.2,34.3-111.1,25.4c-19.7-4.3-35.4-14.9-41.9-34.3
		c-8.9-26.7-8.6-53.5,5.3-79.1c9-4,16.2-10.7,24.3-15.9c13.6-8.7,20.9-7,28.1,7.3c6.7,13.3,12.2,27.3,20.5,39.7
		c2.8,4.2,5.3,10,11.3,9.4c6.8-0.7,6.1-7.4,7.2-12.2c10.8-46.5,11.6-46.7,50.7-20.4c5.4,3.7,10.3,7.9,15.1,12.1
		c33,70.3,83.5,119.8,162.1,135.8c2.5,0.5,5.1,0.9,7.6,1.5c46.8,11.8,47.4,11.9,41.7,60.3c-2.5,21.2-5.4,42.5-12.4,62.9
		c-8.8,2.4-14.7-3.8-21.1-7.7c-26.5-16.3-54.5-19.7-81.2-3.5c-38.4,23.4-73.3,20.3-108.1-6.6c-22.6-17.4-46.2-17.6-70.6-2.4
		c-15.9,9.9-31.4,21.1-49.9,25.9C547.3,647.2,539.3,651.5,534,641.9z"/>
	<path class="st6" d="M289.4,870.7c11.7-8.1,22.1-2,32.5,3.2c22.9,11.5,44.8,15.8,69.5,1.5c17.2-10,37.7-5.8,56.5,1.1
		c18.2,6.7,36.5,12.9,56.2,6.2c13.5,10.9,27.1,21.9,44.9,36.3c-10.3-17.8-17.8-30.7-25.3-43.7c24.4-11.4,48.1-16.6,73.2,0.5
		c11.5,7.9,23.3-2.8,34.2-7.7c27.4-12.5,44.4-8.7,64.4,14.9C616.2,926.6,532,942,442.5,928.4C387.5,919.9,336,901.8,289.4,870.7z"/>
	<path class="st7" d="M686.3,379c-15-2.4-24.6-13.8-36.5-21.6c-11.5-7.5-18.3-4.4-20.7,8.7c-1.7,8.9-2.8,18-4,27
		c-0.8,6.1-3.1,12.2-8.8,14.2c-6.7,2.5-10.3-4-13.8-8.3c-10.7-13.3-17.3-29-23.7-44.6c-5.9-14.4-12.9-15.2-25-6.5
		c-6.4,4.6-10.2,16.9-22.2,10.8c-2.5-2-3-4.6-2.7-7.5c7.8-25.7,23.7-47.8,33.6-72.5c-9,18.5-17.7,37.1-28.2,54.8
		c-2.4,4-3,10.5-10.2,9.8c-1.9-2.2-3.8-4.4-5.8-6.6c22.3-40.3,44.8-80.6,70.5-118.9c45,8.9,63.7,41.8,74.2,81.8
		C670.1,326.2,675.4,353.4,686.3,379z"/>
	<path class="st7" d="M405.9,346.3c-10.5,3.1-17,10.9-23.1,19.3c-4.9,6.7-9.7,13.6-15.1,19.9c-3.7,4.2-8.2,9.3-14.6,6.1
		c-6.9-3.4-4.1-9.5-2.7-15.3c2.1-8.7,4-17.6,4.8-26.4c0.6-6.9,0.2-14.4-7.7-18.2c19-40.3,37.2-81.4,80-103
		c23.8-12.1,48.7-20.7,76.1-17.7c-3.8,6.5-7.5,13-11.3,19.4c-11.4,7.5-17.4,19.2-22.6,31c-4.8,10.8-10.4,20.7-17.8,29.8
		c-13.4,16.5-24,34.9-35.8,52.7C413.1,346.6,409.8,347.6,405.9,346.3z"/>
	<path class="st8" d="M503.7,683.5c4.8-9.2,10.7-17.5,18.9-24c33.9-9.5,64.3-27,96-41.6c16.8-7.7,32.5-6.2,48.3,2.7
		c11.3,6.4,22.2,13.3,34,18.9c20.7,9.7,41.2,10.1,61.9,0.4c10-4.7,19.7-9.9,29.9-14.1c29.8-12.4,55.9-3.5,80.2,14.4
		c6.8,5,10.1,11.7,6.2,20.3c0.1,1.2-0.2,2.4-0.9,3.4c-6.9,5.1-12.5,0.1-17.8-3c-27.6-16.2-55.5-13.8-81.6,1.5
		c-32.7,19.2-63.8,18.5-95.7-0.4c-30.9-18.3-62.1-15.2-93,0c-21.6,10.6-42.7,22.3-66.4,27.6C516.8,691.2,506.9,696.7,503.7,683.5z"
		/>
	<path class="st8" d="M461.3,648.6c-4.6,6.1-5.5,14.5-12,19.4c-5.5,4-11.5,2.7-16.8,0.5c-21.5-8.9-42.1-4.3-62.6,3.5
		c-9.7,3.7-19.4,7.5-29.2,11c-20.3,7.2-39,5.5-57.9-5.7c-31-18.4-63.5-20.8-97.3-6.1c-16.4,7.1-33.3,15.2-52.2,8.4
		c-1.5-3.8-3.1-7.5-4.6-11.3c-0.4-10.1,7.9-11.2,14.4-12.3c19.6-3.3,37.1-11.7,54.6-20.4c21.9-11,43.7-11,65.5,0
		c4.1,2,8.4,3.7,12.2,6.1c28.4,18.1,56.7,18.7,86.5,2.1C395.5,625,429,628.3,461.3,648.6z"/>
	<path class="st9" d="M503.7,683.5c12.5,8.5,23.8,0.2,34.4-3.8c18.7-7.1,36.4-16.7,54.8-24.8c29-12.9,58.6-17.4,87.3-0.2
		c33.4,20,64.9,22.8,99.9,1.2c29-18,60.5-16,89.5,4.5c2.5,1.8,5.8,2.3,8.8,3.5c-1,5.9-4.1,10.7-8,15.1
		c-32.2-30.8-62.2-26.2-95.2-6.4c-27.3,16.3-54.9,21.9-82.1,3.7c-43.6-29.1-83.5-20.1-124.6,5.7c-21.7,13.6-45.9,24.6-73.1,13.3
		C498,691.3,500.9,687.4,503.7,683.5z"/>
	<path class="st10" d="M461.3,648.6c-6.3-1.4-12.9-2-18.8-4.4c-28.4-11.6-55.7-9.7-82,5.8c-27.7,16.3-55,16.6-82-1.2
		c-31.4-20.7-62.8-22.2-94.4-0.7c-16.9,11.5-39.2,7.6-55.6,20.1c-4.7-5.9-4.7-13.4-6.7-20.2c22.2-1,43.5-5.2,63.2-16.3
		c34.6-19.5,68.6-19.9,102.1,3.5c19.4,13.5,42,17.2,62.3,5.6c36.7-21,72.5-25,110.4-5.1c2.8,1.5,6.3,1.5,9.4,2.2
		C468.2,642.7,465.8,646.5,461.3,648.6z"/>
	<path class="st10" d="M879.1,660.4c-5.1-22.7-45.7-41.7-73.5-33.6c-10.5,3-20.8,7.6-30.2,13.1c-30.7,17.9-62.4,18.3-89.6-3
		c-36.3-28.5-68.2-18.1-101.2,3.2c-18.9,12.2-39.3,19.3-62,19.3c3.8-5.9,7.6-11.8,11.4-17.6c13.9,5.6,24.5-4.3,36.4-8
		c3-0.9,5.7-3.1,8.2-5.1c39-30.8,77.1-34.2,117.3-0.4c19.1,16.1,43.1,16.1,65.9,4.1c1.1-0.6,2.4-1,3.5-1.7
		c42.2-27.5,82-21.9,120,8.8C883.4,646.5,884.4,654.4,879.1,660.4z"/>
	<path class="st9" d="M133.2,679.5c19.6-3.6,39.1-7.4,57.6-15.7c31.4-14.1,62.9-10.6,90.9,7.1c24,15.2,46.4,13.6,69.4,2.6
		c32.3-15.4,64.5-21.3,98.2-5.6c-3.1,5.6-4.8,12.3-11.6,15c-19.5-12.8-40-11.2-60.8-4c-9.2,3.1-18.1,7-26.9,11
		c-24.3,10.9-47.5,13.6-71.3-3.1c-32-22.5-65.9-22.3-100.4-4.5c-12.7,6.5-26.6,10-41.2,8.9C135.8,687.3,134.5,683.4,133.2,679.5z"/>
	<path class="st6" d="M167.6,442.1c-1,19.7,3.5,37.9,15.8,53.7c-13.6,8.1-27.4,15.6-42.8,19.8c-0.3-16.7,2.3-33.8-5.6-49.6
		c-3.6-7.2,2.8-8.8,5.7-12.4C149.7,449.8,158.7,446,167.6,442.1z"/>
	<path class="st11" d="M863.5,464.6c-8.1,10.6-0.7,28.3-16.1,35.6c-15.2-2.7-29.4-8.1-42.9-15.7c2-16.8,10-28.3,27.5-31.4
		C841.4,460.1,854.4,456.9,863.5,464.6z"/>
	<path class="st12" d="M810.7,449.3c-4.3,9.2-11.4,16-19.3,22.1c-0.5-0.4-1-0.8-1.5-1.1c-16.1-8.1-27.4-22.3-41.3-33.2
		c18.9,8.7,40.7,5.5,60.2,11.9C809.5,449.1,810.1,449.2,810.7,449.3z"/>
	<path class="st7" d="M812.2,445.7L812.2,445.7c-0.5,1.2-1,2.4-1.5,3.6c-4.3,9.2-11.4,16-19.3,22.1c-0.8,0.6-1.6,1.3-2.4,1.9
		c1.3-0.3,2.5-0.6,3.7-0.9c11.6-3.3,18.6-10.5,19.5-22.8C812.2,448.3,812.3,447,812.2,445.7z M741.9,433.3
		C741.9,433.3,741.9,433.3,741.9,433.3C741.9,433.3,741.9,433.4,741.9,433.3C742,433.4,741.9,433.4,741.9,433.3z"/>
	<path class="st12" d="M812.2,445.7c-0.5,1.2-0.9,2.4-1.5,3.6c-0.6-0.1-1.3-0.2-1.9-0.3c-19.5-6.4-41.3-3.1-60.2-11.9
		c13.9,10.9,25.2,25.1,41.3,33.2c0.5,0.4,1,0.8,1.5,1.1c-0.8,0.6-1.6,1.3-2.4,1.9c-20.3-7.9-33.9-23.7-47.1-40c0,0,0.1,0.1,0.1,0.1
		c0,0,0,0,0-0.1c0.2,0,0.4,0.1,0.6,0.1C765.7,438,789.9,436.2,812.2,445.7z"/>
	<path class="st3" d="M832.1,453.1c-1.2,0.7-2.4,1.5-3.5,2.3c-9.6,6.8-15.7,16.6-22.1,26.2c-0.7,1-1.3,2-2,3
		c-7.3-0.7-11.8-5.4-15.5-11.2c0.8-0.6,1.6-1.2,2.4-1.9c7.9-6.2,15-13,19.3-22.1c0.5-1.1,1-2.3,1.5-3.6h0
		C820.2,444.6,826.9,446.8,832.1,453.1z"/>
	<path class="st1" d="M414.9,441.2c-5,0-8.9-0.2-12.8,0c-12.7,0.7-12.7-4.4-7.3-13.8c38-67.2,76-134.5,113.5-202
		c5.1-9.3,10.1-10.2,20-7.6c38.6,10.2,38.5,9.6,18.5,43.7c-33.4,57-68.8,112.8-100.1,171.1C439.8,445.5,425.1,439.5,414.9,441.2z"/>
	<path class="st13" d="M402.5,776.5c8.1-7.4,15.7-6.3,23.3-8.1c-5.9-7.2-15-5.1-23.4-9.2c23.4-34.8,46.4-69.2,69.6-103.4
		c13.1-19.4,27.3-38.1,39.4-58.1c8.6-14.1,18.3-22.7,35.8-20.1c5.5,0.8,11.4-0.8,19.9-1.6c-17.2,29.6-38.2,54-56.9,79.8
		c-22.9,31.6-46.3,62.7-69.8,93.8c-5.9,7.8-6.5,13.6-0.2,22.2c23,31.3,45,63.4,67.4,95.3c-1.2,1.2-2.4,2.4-3.5,3.7
		C470.4,839.6,436.9,808.5,402.5,776.5z"/>
	<path class="st1" d="M568.1,563.5c-28.3,7.7-48.1,4.9-67.2-16c-28-30.5-60.4-57-90.9-85.3c-2.6-2.4-7.6-4.6-4.7-9.1
		c1.4-2.1,5.5-3.1,8.5-3.3c26.1-2.3,49.7-3.3,69.4,22.1C508.1,504,538.3,531.9,568.1,563.5z"/>
	<path class="st14" d="M449.2,288c14.6-14.4,16.5-36.1,29.7-51.5c4-4.7,5.8-10.4,13.2-6c-20.5,40.4-43.5,79.4-67.2,117.9
		c-1.1-0.3-2.1-0.8-3-1.5c-6-6.7-0.9-11.9,2.3-17.3C432.5,315.7,442.2,302.6,449.2,288z"/>
	<path class="st15" d="M839.4,71.6c23.8-3.5,47.5,2.2,71.3,1.4c11.2-0.3,7.7,8.5,6.6,14.1c-3.6,19.1-7.9,38-12,57.2
		c-10,0.1-16.1-6.8-22-12c-12-10.7-19.1-7-27.8,4.3c-14.7,19-31.1,36.6-46.4,55.1c-5.8,7-9.3,8.2-16.4,0.7
		c-29.9-31.4-30.2-31.1,6.3-53.9c5.5-3.4,11.1-6.8,16.6-10.2c11-6.8,25.5-11.3,32.2-21.1C855.4,96.4,838.1,85.3,839.4,71.6z"/>
	<path class="st15" d="M176.7,75.5c-0.6,13.8-15.2,25-9.3,35c5.5,9.4,19.8,13.7,30.3,20.2c14.9,9.2,29.8,18.5,44.9,27.4
		c7.3,4.3,7.9,7.3,2.2,14.5c-27.5,35.1-27.2,35.4-56.3,1.6c-8.9-10.3-19.2-19.8-26.2-31.3c-10.4-16.9-20-14.7-33.7-3.9
		c-17,13.4-17.7,12.5-22.1-8.9c-2.4-11.4-4.2-23-7.2-34.3c-3.5-13.3-2.3-20.9,14.6-19.5C134.4,78.1,155.1,72.4,176.7,75.5z"/>
	<path class="st16" d="M835.7,339.6c11.8-10.1,15.8-26,28.1-36.1c8.3-6.8,14.9-15.8,24.1-25.8c3.9,18.1,7.1,33.7,6.9,50
		c1.2,1.6,2.1,3.8,1.3,5.4c-14,26.6-10.7,56.5-16.4,84.7c-0.5,2.5-0.7-0.3,0,1.9c2.5,7.7-12.5,12.2-3.6,20.3
		c6.2,5.6,14.8,3.6,22.2,5.5c5.1,10.3,10.3,20.5,16.1,32.1c-47.8-23-91.3-51.3-146.8-53.5c15.5-14,37.5-14.3,51.7-31.5
		c-8.4-0.9-15.4-1.7-24.7-2.7c12.7-9.3,24.2-17.7,40-29.2c-17-0.8-28.9-1.3-40.7-1.8C807.1,351.2,819.9,341.9,835.7,339.6
		c4.4,3.5-10.5,10.4,3.9,13.9c11.7,2.8,4.5,11.9-0.6,18c-3.9,4.7-17.6,6.9-3.4,16.5c3.5,2.3-2.4,9.2-6.1,12.8
		c-6.3,6.3-14.6,9.9-21.8,15.6c26.8,7.5,27,7.3,39.6-16.2c15.7-29.3,27.9-59.8,35.5-95.5c-8.9,5.1-12.3,9.5-13.9,17.2
		C865.4,338.2,853.1,344.1,835.7,339.6z"/>
	<path class="st17" d="M898.1,445.5c-15.7,15.7-24.1-6.9-38.2-6.9c25.9-10.8,18.2-37.2,19-52.7c1.2-21.9,8.3-39.5,15.8-58.2
		c4.9,15.9,9.8,31.8,14.6,47c-5.6,7.2-9.2-4.5-14.3,0.6c4.5,24.4,12.2,48.2,22.6,70C909.6,453.8,905.2,432.3,898.1,445.5z"/>
	<path class="st16" d="M230.3,347c-5.7,10-2.1,17.7,6.4,27.7c11,12.9-0.6,32.7-19.2,34.9c-7.6,0.9-13.8,1.1-16.2,10
		c-0.8,2.8-4.3,4.7-6.3,7.2c-11.5,14.6-26.7-9.2-39.5,4.4c-12.1,12.7-26.6,11.5-39.5-0.4c-5.1-4.7-7.4-1.2-11.1,1.7
		c-20.7,16-33.8,12.4-43.8-12.6c-2.7-6.7-7-10.2-12.9-13.3c-9.6-5-14.5-13.6-12.2-24.1c2.4-10.7,8.6-19.4,21.2-19.3
		c8.5,0,11.7-2.4,13.6-11.6c5.5-27,23.8-35.7,48.2-23.6c6.9,3.4,7.9,1.9,10.9-4.1c4.7-9.3,16.8-17,23.7-12.9
		c19.4,11.3,39.5,9.4,59.9,11.1C224.3,323,230.3,333.6,230.3,347z"/>
	<path class="st9" d="M599.2,718.7c15.8-1.6,30.3,2.9,42.2,14.2c11,10.5,10,22.1-2.1,31.1c-20,14.9-61.7,15.2-82.4,0.6
		c-13.6-9.6-13.9-22.3-1.5-33.6C567.8,719.6,582.9,718,599.2,718.7z"/>
	<path class="st18" d="M738.3,741.9c19.9-0.2,30.4,6.3,31.3,23.1c0.8,14.7-10,24.2-26.2,24.2c-17.6,0-28.9-9.6-28.6-24.3
		C715.1,750.5,725.4,741.9,738.3,741.9z"/>
	<path class="st18" d="M596.6,832.4c-10.7-1.3-25.5-0.6-25.3-16.3c0.1-14.1,13.8-15.2,25-15.2c12.9,0,27.7,2.9,27.4,17.7
		C623.3,831.8,608.4,831.7,596.6,832.4z"/>
	<path class="st19" d="M405.9,346.3c2.6-1,5.2-2.1,7.9-3.1c3.4-0.9,5,0.2,4.4,3.9c-17.7,30.2-35.1,60.6-53.2,90.6
		c-5.9,9.7-4,15.8,3.9,23.4c36.2,34.4,73.4,67.7,111.6,99.8c17.7,14.9,18.8,19,4.6,37.9c-18.7,24.9-19.1,26-48.5,15.8
		c-27.8-9.6-52.5-2.9-76.4,10.4c-18.3,10.2-36.7,9.2-59.4,5.3c12.1-10.9,24.7-13.1,36.1-17.6c39.2-15.4,60.4-43.7,52.8-73.8
		c-6.4-25.5-19.6-48.2-37.7-67.3c-11.2-11.9-12.8-21.3-2.5-35.2c19.2-26.1,36.3-53.7,54-80.8C405.1,353,405.1,349.4,405.9,346.3z"/>
	<path class="st20" d="M339.4,373.3c-11.6,58.4-37.2,108.4-83,147.2c-40,33.8-83.9,63.4-116.4,105.5c-1.9,2.5-3.7,5.8-7.5,4.8
		c-4.1-1.1-3.1-5.1-3.6-8.1c-2.6-16.6-5-33.2-7.6-49.7c-2.2-13.7,2.9-21.3,16.5-26.1c57-20.2,107.8-50.7,150-94.5
		c16.8-17.4,29.1-38,40.8-59C332.3,386.7,335.8,380,339.4,373.3z"/>
	<path class="st21" d="M418.1,347.1c-1.5-1.3-2.9-2.6-4.4-3.9c8.5-20.5,21.2-38.4,35.5-55.2c-2.1,16.8-14.6,28.5-21.6,43
		c-2.5,5.2-6.7,9.6-5.7,15.9C420.7,347.1,419.4,347.1,418.1,347.1z"/>
	<path class="st22" d="M284.4,800.7c-18.4,0-29.8-5.3-39.8-12c-14.3-9.7-14.1-26.8-0.9-37.9c15.5-12.9,53-14.1,69.5-2.1
		c17.6,12.8,17.4,30.4-1.1,42.2C302.1,797.3,290.8,800.5,284.4,800.7z"/>
	<path class="st9" d="M386.4,855.6c-21,0.1-34.9-8.1-34.6-20.3c0.2-12.5,16.9-23.1,35.9-22.8c3.2,0,6.9-0.6,9.6,0.6
		c10.8,4.7,26.3,5.9,24.2,22.9c-1.9,15-14.2,18.6-27.3,19.6C391.6,855.8,389,855.6,386.4,855.6z"/>
	<path class="st23" d="M530.1,351.9c0.5,2.2,1,4.5,1.6,6.7c-8.5,20.2-9.6,41.6-7.9,63c1.9,24.4,22.6,42.7,46.9,47.3
		c43.3,8.1,80.8-2.1,112-32.9c10-9.9,13.6-7.7,21.6,2.6c35.2,45.6,80.1,76.9,137.4,88.5c1.3,0.3,2.7,0,3.8,0.5
		c13.1,6.3,35.5,2.4,39.2,16.4c5.1,20-1.9,42-8.4,62.4c-2.3,7.4-7.8,7.5-14.1,4.3c-35.6-18.1-69.5-8.9-102.3,7.7
		c-20.5,10.3-40.7,10.4-58.9-2.7c-42.9-31-83.9-29.2-124.3,4.1c-2,1.6-4.5,2.6-6.9,3.6c-1,0.4-2.4,0.1-5.3,0.1
		c7.4-17.2,20.2-30,30.8-44c7.3-9.7,8.7-14.8,0.3-26c-30.7-40.7-68.5-74.5-104.1-110.4c-10-10-12.1-18-4.6-30.2
		c13.2-21.4,25-43.6,37.4-65.5C527.5,347.1,529.4,348.7,530.1,351.9z"/>
	<path class="st24" d="M530.1,351.9c-2-1.5-3.9-3.1-5.9-4.6c0-1.4,0-2.8,0.1-4.1c14-25.2,27.9-50.4,41.9-75.6
		C557.6,297.3,546.2,325.7,530.1,351.9z"/>
	<path class="st25" d="M835.7,339.6c13.2-3.6,30.2-0.8,28.2-24.5c-0.6-7,10.8-15,18.8-20.9c7.3,26.8-5.5,48-13,69.8
		c-6.5,18.8-16.6,36.5-27,53.7c-5.7,9.4-11.3,13.1-21.6,7.8c-7.6-3.9-16.2-4-27.3-4c12.5-14.1,31-17.1,39.4-32
		c-3.6-5.5-10.2-0.6-14-4.5c-0.4-4.6,3.6-6.4,6.1-9.1c5.3-6,18.5-7.7,15.6-17.2c-2.3-7.7-14.2-0.8-21.4-4.7
		C820.9,344.8,833.1,347.3,835.7,339.6C835.8,339.6,835.7,339.6,835.7,339.6z"/>
	<path class="st25" d="M80.8,436c-13-17.9-19.2-33.8-35.1-43.2c-8.7-5.2,5.5-26.1,19.4-25.1c10.3,0.7,12.4-1.2,13.6-11.5
		c2.8-24.7,17.7-32.1,40.6-20.9c8.3,4,10.9,3.3,15.6-5.3c9.8-17.8,24.5-19.1,37.1-3.1c6.7,8.5,11.6,8.2,18.9,3.3
		c7.7-5.1,15.7-6.3,23.3-0.1c4.5,3.6,11.1,7.1,10.3,13.2c-1,7.2-8.6,2.9-13,4.6c-28.5,11-58.5,5-87.7,7.7
		c-8.9,0.8-16.2,3.6-21.8,10.9c-3.9,5.1-7.8,11-13.1,14.1c-9.4,5.6-12.9,11.7-8.7,22.4C83.6,411.5,82.2,420.8,80.8,436z"/>
	<path class="st26" d="M175.8,421.1c-11.8-9-21-0.2-31.3,9.5c-7.5,7.1-16.5,2.1-22.8-3.4c-7.1-6.2-10.9-14.4-4.8-24.2
		c5.8-9.2,14.2-14.6,24.4-11.3c18.6,6.1,32.8-2.4,46.9-11.7c6-4,11.6-8.2,19-8.8c10.6-0.9,20.6,1.1,22.5,13.1
		c1.9,12.1-6,17.9-17.4,17.9c-7.4,0-11.7,2-14.6,9.5C194.7,419.7,187.5,423.1,175.8,421.1z"/>
	<path class="st27" d="M595.8,757.9c-9.8-1.2-27.3,3.5-26.8-11.9c0.4-12,17.7-11.6,29-11.4c11.1,0.1,28.5-0.6,28,12.3
		C625.5,759.7,608.3,757.6,595.8,757.9z"/>
	<path class="st28" d="M741.2,754c7.7,0.1,14.2,3.8,14.8,10.5c0.7,8.3-6.1,12.4-14.1,12.5c-7.3,0-13.3-4.2-13.5-11.3
		C728.1,758.5,734.6,755.2,741.2,754z"/>
	<path class="st29" d="M607,815.3c-6,7-12.4,4.8-21.1,3.4C593.3,809.2,600.5,813.8,607,815.3z"/>
	<path class="st8" d="M280.5,781.1c-3.8,0-7.7,0.3-11.5-0.1c-6.9-0.8-13.2-4.1-13.5-11.3c-0.2-7.3,6.2-10.9,13-11.6
		c7-0.7,14.1-0.3,21.1-0.4c8.4,0,17,2.7,17.2,11.5c0.2,8.9-8.2,11.8-16.7,11.9c-3.2,0-6.4,0-9.6,0
		C280.5,781.2,280.5,781.2,280.5,781.1z"/>
	<path class="st29" d="M386.2,843.8c-6.3-0.5-14.4,0.1-13.5-9.1c0.6-5.6,5.9-10.6,12.7-8.6c5.8,1.6,14.8,1.2,15.2,9.2
		C401.1,844.3,392.7,843.4,386.2,843.8z"/>
</g>
</svg>
