<?xml version="1.0" encoding="utf-8"?>
<!-- Generator: Adobe Illustrator 23.0.1, SVG Export Plug-In . SVG Version: 6.00 Build 0)  -->
<svg version="1.1" id="Layer_4" xmlns="http://www.w3.org/2000/svg" xmlns:xlink="http://www.w3.org/1999/xlink" x="0px" y="0px"
	 viewBox="0 0 1000 1000" style="enable-background:new 0 0 1000 1000;" xml:space="preserve">
<style type="text/css">
	.st0{fill:#90AFC3;}
	.st1{fill:#2B5260;}
	.st2{fill:#302725;}
	.st3{fill:#804001;}
	.st4{fill:#92B1C5;}
	.st5{fill:#494949;}
	.st6{fill:#512800;}
	.st7{fill:#FDFDFD;}
	.st8{fill:#1E1E1E;}
	.st9{fill:#512801;}
	.st10{fill:#2F2625;}
	.st11{fill:#75A4A1;}
	.st12{fill:#394751;}
	.st13{fill:#888888;}
	.st14{fill:#9B9B9B;}
	.st15{fill:#1D1D1D;}
	.st16{fill:#2E2524;}
	.st17{fill:#A45203;}
	.st18{fill:#F1F1F1;}
	.st19{fill:#73A19E;}
	.st20{fill:#162B33;}
	.st21{fill:#F8F8F8;}
	.st22{fill:#2E2625;}
	.st23{fill:#38454E;}
	.st24{fill:#5F5D5D;}
	.st25{fill:#162C34;}
	.st26{fill:#9A9A9A;}
	.st27{fill:#7C0000;}
	.st28{fill:#E20000;}
	.st29{fill:none;}
	.st30{fill:#4F2A08;}
	.st31{fill:#FEFEFE;}
	.st32{fill:#814B18;}
	.st33{fill:#814C1B;}
	.st34{fill:#4E2D10;}
	.st35{fill:#502906;}
	.st36{fill:#394852;}
	.st37{fill:#050506;}
	.st38{fill:#0B0908;}
	.st39{fill:#4F2A06;}
	.st40{fill:#4F2907;}
	.st41{fill:#040809;}
	.st42{fill:#12171A;}
	.st43{fill:#FBFCFC;}
	.st44{fill:#E4EBF0;}
	.st45{fill:#0D1012;}
	.st46{fill:#F8F9FB;}
	.st47{fill:#020101;}
	.st48{fill:#91B0C4;}
	.st49{fill:#2C5260;}
	.st50{fill:#5A5857;}
	.st51{fill:#416675;}
	.st52{fill:#8DACC0;}
	.st53{fill:#8FAEC2;}
	.st54{fill:#85A5B8;}
</style>
<g>
	<path d="M903.7,101.5c-44.8,6.1-90.1,7.2-134.6,15.7c-25.3,4.8-50.6,9.2-74.8,18.5c-12.8,4.9-14.5,11.4-4.5,21
		c12.2,11.7,24.2,23.6,37.3,36.4c-8.7,5.2-13.4,5.8-21.5-0.1c-24.8-18.1-53.7-30.2-84.3-28c-26.6,2-53.2,8.6-79.2,16.7
		c-23.2,7.2-43.3,19.6-64.3,30.6c-5.2,2.7-9.3,4.3-13.8-0.3c-5.8-6,2.3-7,4-10.1c18.1-32.3,4.3-70.9-30.1-86.5
		c-39.5-17.9-73.3-1.8-87.3,18.3c-26.1,37.6,25.8,95.2,61.6,97.1c5.8,0.3,15.1-5.6,17.3,5.5c1.8,9.1-4.8,13.3-11.5,17.8
		c-20.3,13.9-40,28.7-60.4,42.5C303,333.4,252,375.1,200.5,416c-20.9,16.6-40.6,36.7-45,66.4c-1.7,11.2-3.4,22.8-19.8,26.8
		c-10.8,2.6-18.2,15-22.4,27.1C99.1,576.1,125.1,636,166,660.5c6.2,3.7,9.3,7.2,10.3,15.7c4.8,44.1,16.3,88.3,6.7,132.5
		c-5.7,26.1,7.2,58.2-22.5,77.6c-3.1,2-3.9,7.6-5.6,11.7c-8.8,20.5-9.8,42.8,4.7,58.7c12.1,13.2,31.3,13.4,51.2,9.1
		c52.3-11.3,99.9-33.5,145.1-60.2c29.2-17.3,59.7-34.3,82.5-60.7c18.2-21.1,27.5-57.6,8.2-73.6c-17.4-14.5-13.3-27.6-13.4-43.7
		c-0.1-8.5,2.9-12.7,9.7-16.2c52-26.8,76.5-70.9,80.6-127.9c1.1-15.1,6.4-26.3,21.9-32.8c34.8-14.7,68-32.6,98.9-54.5
		c20.8-14.7,44-28.5,46.4-56.7c1.1-13.2,6.1-21.2,14.5-29.6c35.1-35.5,50.8-78.1,45.2-128.2c-1.2-10.6,6.8-14.7,14.8-17.3
		c8.7-2.8,7.1,4.7,8.6,9.7c4.7,14.9,10.6,29.4,15.2,44.2c3.3,10.7,7.5,12.7,15.6,4.2c7.5-7.9,13.8-16.9,21.1-24.7
		c46.3-50,74.4-110.4,99.9-172.2C935.5,101.8,930.7,97.8,903.7,101.5z M416.5,202.1c-10.1,3.4-17.9-1.6-25.2-8.2
		c2.9-7.5,17.4-11.3,8.6-22c-7.6-9.2-17.6-2.8-26.9-0.1c-2.6-6.9-2.9-13.3,0.4-20.2c3.1-6.4,5.3-10.1,11.7-3
		c4.6,5.1,9.7,12.1,17.6,5.1c9-7.9,0.4-13.6-4.6-20.6c13.3,0.3,30.9-5.3,16.4,17.9c-2,3.2-0.7,7.4,2.7,10.5c3.3,3,7,3.5,10.6,1.7
		c5.5-2.8,9.8-12.8,17.2-3.6c6.2,7.7,5.4,16.5,0.1,24.7c-1.4,2.1-3,4.1-5.5,7.4c-5.4-11.5-12.2-20.8-24-14.5
		C402.1,184.5,416,193.4,416.5,202.1z M432.8,606.7c1.1,8.1-6.2,13.5-8.8,22.1C417.5,616.6,418.7,608.9,432.8,606.7z"/>
	<path class="st0" d="M203,602c-29.6-29.8-46.4-63.6-36-107.1c5.8-23.9,19.8-42.7,37.2-58.2c38.8-34.6,80.1-66.2,123.7-94.5
		c10.4-0.8,21.7,4.4,30.7-6.2c3.9-4.6,9.7-1.3,14.3,1.3c11.7,6.7,18.9,2.3,25.5-8.5c10.5-17.2,24.4-17.1,36.8-0.6
		c8.9,11.8,14.1,26.2,27.5,38.1c1.4-8.8-2.9-13.1-5.7-17.5c-6.3-9.9-10.1-19.7-1.8-30.5c2.9-3.8,2.4-8.6,1.8-13.2
		c-2.1-14.5-1-27.1,15.3-33.8c8.8-3.6,6.3-13.4,8.3-20.6c2.3-6.7,6.6-10.7,14.1-8.9c7.9,1.9,14.7-2.1,21.9-3.6
		c19.2-2.6,32.5,6.5,42.2,22c9.5,15.2,18.3,30.8,29,44.5c-14.1-26.4-13.8-54.5-6.8-83.1c4.7-19.2,5-18.9-15.2-16.6
		c-8,0.9-16.6,5.5-23.9-2.2c25.7-12.4,52.9-17.6,83.3-19.8c-50.7,45.4-37.5,100.8-6.3,135.6c2.6,2.9,4.7,6.1,7,9.2
		c0.9,4.1-1,7.1-3.7,9.9c-4.3,3.4-9,6.4-13.6,9.5c-66.2,40-132.2,80.2-200.8,116.1c-5.9,2.2-11.6,4.7-16.4,8.9
		c-53,35.7-106.4,70.9-157.7,109C224,588.4,218,602.1,203,602z"/>
	<path class="st1" d="M620.7,335c1.8-2.4,3.6-4.9,5.5-7.3c10,6.7,20.1,13.4,30.1,20c4.1,15.9,1.6,19.5-12.5,17.5
		c-4.9-0.7-9.5-4.5-14.6-1.6c-1.6,1.9-1.5,3.8-0.5,5.4c12.8,21.3,12.9,21.3-6.1,37.6c-2.6,2.2-4.6,4.4-5.1,7.8
		c-41.7,22.1-83.3,44.1-125,66.2c-17.3-2.4-32.9,4.5-47.3,11.7c-21.8,10.9-34.2,6.1-36.7-17.1c-0.5-5.1-2.8-9.9-3-15.1
		c67.9-39.1,135.7-78.3,203.6-117.4C616,344.7,617.8,339.2,620.7,335z"/>
	<path class="st2" d="M194.5,613.9c3,0.8,6.9,0.7,8.9,2.6C242.3,653,287,650,332.4,634c15.7-5.6,26.2-7.2,35.7,9
		c6.6,11.2,18.2,17.4,35,18.4c-11.4,8.2-20.2,13.6-27.9,20.3c-10.6,9.2-20.1,20.5-12.2,35.3c8.2,15.4,22.6,15.3,37.1,9.8
		c12.5-4.7,14.3-5.5,15.8,12c5,58.9-38.6,78.2-76.8,100.9c-36.8,21.8-75.8,40-117.2,52c-22.1,6.4-27.6,3.3-26.4-19.8
		c1.6-33.6,6.9-67.1,6.8-100.6c-0.2-33.5-4.4-67-8.4-100.4c-1.2-10.3-2.6-20.5-2-30.8c13.3,9.6,30.8,1.2,42.1,9
		C219.3,641.6,200,635.5,194.5,613.9z"/>
	<path class="st2" d="M652.6,467.7c-29.8,27.7-63.9,42.7-96.2,60.2c-53.7,29.1-108.3,56.4-162.8,83.9c-27.2,13.7-62.1,8.4-83.5-12.3
		c40.5-26,82.1-49.4,124-72.3c51.2-28.1,102.4-56.2,153.6-84.2c12.8-7,25-13.7,34.9,5.2C628,458.6,639.8,462.9,652.6,467.7z"/>
	<path class="st1" d="M203,602c58.4-50.1,122.2-92.6,187.4-133c2.2,23.2,7,46.4-0.1,69.5c-3.6,1.5-7.2,2.9-10.8,4.4
		c-6.3-0.9-11.4,0.1-12.1,7.8C347.2,565.6,325,577,303.1,589c-6.9,3.8-15.2,7-6.7,16.9c3.8,17.2,0,21.2-23.5,24.9
		c-8.2-0.5-2.8-10.8-9.1-12.8c-5.7,2-2.8,8.1-5.4,11.5c-1.6,1-3.2,1-4.9,0.1C232.2,628.6,217.4,615.7,203,602z"/>
	<path class="st1" d="M793.3,273.3c-14.7-36.6-19.5-38.1-49.8-14.8c-11.3,8.7-22.9,17.1-33.7,26.4c-13.5,11.7-23,7.1-31.8-5.9
		c-13-19.3-13-30.9,0.8-41.1c3.3,1.4,4.6,4.4,5.5,7.5c4.1,14.9,12.4,16.1,24.6,8.6c14.3-8.8,28.7-17.3,43.8-24.8
		c3.8-3.1,11.6,5.8,13.1-4.4c25.5-22,54.3-39.9,77.6-64.5c4-4.2,8.8-8,15.5-5.2c4.4,9.1-3.9,12.6-8.2,17.4
		c-15.8,17.7-33.3,33.8-49.4,51.3c20.7-16.9,37.7-37.2,55.4-56.9c5-5.5,7.7-11.8,8.5-19.1c3.6-9.5,13.6-10.7,20.6-15.8
		c1.4-1,2.8-2,4.2-3c5.1-2.8,9.6-8,16.3-3.9c-11.1,35.6-28.8,67.8-50.9,97.7c-13.4,15.7-23.9,34-39.6,47.6
		C809.6,275.5,802.4,284.8,793.3,273.3z"/>
	<path class="st3" d="M483.9,250.3c0.1,12,6.4,25.3-15.7,27.7c-12.4,1.4-8.8,16.8-6.2,26.7c2.1,7.7,5.6,13.5-4.8,19.2
		c-10,5.5-1.2,13.3,1.7,19.8c4.1,9.2,20.9,19.4,8.5,27.2c-11.9,7.4-16.6-11.5-23.2-19.9c-5.5-7.1-9.2-15.7-14.5-23.1
		c-9.2-12.6-20-11.7-26.9,1.7c-9.4,18.1-15.7,20.2-32.6,10.4c-4.4-2.6-8.1-4.6-11.5,0.8c-9.7,15.8-20.2,8.3-30.8,1.2
		c51.4-35.2,98.7-76.3,152.3-108.3c0.8,16.9-14.5,20.3-23,28.3C465.9,259.4,471.9,247.9,483.9,250.3z"/>
	<path class="st4" d="M753.8,230.6c-15,14.2-34.1,22.3-51.7,32.3c-12.5,7.1-19.2-0.5-23.3-25.1c20.1-10.3,40-21.1,60.5-30.7
		c12.8-6,15.8-11.2,4.1-21.9c-11.9-10.8-22.4-23.1-34.6-35.9c24.9-8.5,51-12.8,77.3-17.3c34.5-5.8,69.1-9.6,104-11.6
		c5.3-0.3,13.1-5.4,16.1,4.4c-5.3,2.6-10.6,5.1-15.8,7.7c-16.4-4.1-31.4,4.5-47.2,5.9c-35.9,3.1-71.7,8.2-107.3,16.8
		c9.6,17.2,13,18.8,28.6,11.8c36.8-16.6,75.4-27,114.8-35.3c3.8-0.8,7.6-1.6,11.2,0.9c-6.2,7.4-17.6,7.4-22.8,16.2
		c0.8,6.5-3.8,6.8-8.3,7.2c-26.3,20.9-52.5,41.8-78.8,62.7c-4.5,3.6-8.4,8.3-14.9,8.3c-7.9,0.4-10.3-3.8-9.2-10.9
		c14.7-12.3,29.9-24,46.7-33.5c5.2-3,12.4-4.8,12.2-13.2c2.7-5.7,8.8-6,13.4-8.5c-15,6.8-30.6,12-46,17.9
		c-6.8,2.6-15.5,5.1-11.6,16.1c-0.4,8.7-7.7,13-12.4,19c-4.1,2.5-8.7-1.5-12.9,1c-14.8,5.1-28.2,12.7-40,23
		c16.6-2,24.9-17.9,39.4-23.4C751,218.3,754.3,223.4,753.8,230.6z"/>
	<path class="st5" d="M432.9,823.5c-0.2,4.6-3.7,6.6-7,8.7c-41.6,19.1-79.8,44.8-121.4,63.8c-23,10.5-44.9,22.6-62,41.8
		c-18.2,11.4-37.6,16.8-59,11.6c1.8-2.9,4.6-4.7,7.7-5.4c13.3-3,23.5-7.6,17-24.6c-2-5.2,1-10.1,6.3-12.7
		c74.6-24,143.9-57.9,203.6-109.7C436.4,798.3,430.6,813.1,432.9,823.5z"/>
	<path class="st6" d="M617.5,414.5c-5.8-5.7-5.2-9.4,2.9-12.5c15.6-5.9,17.6-15.3,6.3-27.8c-3.5-3.8-11.6-7.1-6.1-13.7
		c5.1-6.2,12.7-5.5,19.5-1.4c14,8.4,16.8,0.9,16.2-11.4c18.6,2.5,37.1,5.3,55.9,3.9c10.6-0.8,10.3,4.6,6.6,11.9
		c-5.6,11-12.1,21.4-20.8,30.2c-6.4,6.5-10.4,13-23.6,6.4c-13-6.5-28,6-42.4,9C627,410.2,622.3,412.7,617.5,414.5z"/>
	<path class="st7" d="M542.1,202.7c14-1.6,28-3,42-5.1c6.6-1,9.8-0.9,8.2,7.5c-11.2,57.7-11.1,57.8,4,112
		c-13.8-9.4-21.8-18.2-37.2-48.7c-9.4-18.5-22.6-27.4-43-26.5c-3.9-19.1,11.1-27.2,22.1-37.5C539.5,203.8,540.8,203.3,542.1,202.7z"
		/>
	<path class="st8" d="M242.5,937.7c5.3-14,15.1-23.7,28.5-30.4c36.4-18.4,73.7-35,107.9-57.5c14.1-9.3,30.6-13.6,47-17.7
		c-29.2,32.9-67.2,53.7-105.1,73.8C296,919.1,271.7,935.1,242.5,937.7z"/>
	<path class="st5" d="M445.3,689.4c-14.2,8.4-25.9,21-41.9,26.2c-9,3-19,10.7-28-0.7c4.1-14,15.8-22.2,26-30.6
		c22-18,35-41.1,44.3-67.2c4.4-12.2,8.2-26.9,26.9-23.4c2,22.4-4.4,42.9-13.3,63c-1.9,4.3-9.2,8.7-2.5,14.8
		C459.3,681.6,448,682.7,445.3,689.4z"/>
	<path class="st9" d="M390.3,538.5c-1.2-23.2-8.1-46.4,0.1-69.5c3.7-5.2,7.9-9.5,15-8.7c6.2,3.5,9.1,8.6,8.6,15.9
		c-0.4,5.7-5.6,14,4.8,15.3c7.7,1,16.1,8.2,23.6-3.8c6.7-10.6,40.3-13.7,50.1-7C458.4,500,424.4,519.2,390.3,538.5z"/>
	<path class="st10" d="M652.2,194.9c15.1-7.9,26.6-2.2,39.5,11.1c-19.6-0.1-31.5,8.4-34.4,24.5c-4.1,22.5,0.6,43.8,16.8,61.2
		c3,3.2,7.7,4.7,9.4,9.3c-6.7,10.5-20.7,12.6-27.2,23.4c-19.9-10.1-34.5-24.4-38.5-47.4c5.9-1.4,7.6,6.5,13.4,6.1
		c5.2-15.4,4.1-32,8.9-47.4c3.3-10.5,5.1-21.9,14.2-29.1C661.9,200.4,654.5,198.4,652.2,194.9z"/>
	<path class="st11" d="M652.2,194.9c6,1.3,12.8-1.3,19.6,4.1c-39.3,21.7-25.5,63.1-37.3,96c-10.1-1.2-9.6-13.4-16.7-18.1
		c0,0,0,0.1,0,0.1c-14-33.1-0.7-67.8,31.3-81.3C650.1,195.7,651.2,195.5,652.2,194.9z"/>
	<path class="st12" d="M656.2,324.3c-1-19.5,18.1-15.6,27.2-23.4c30,10.9,41.1,7.4,49.3-15.5c9.1,36.2-9,55.3-47.4,49.7
		C675,333.6,665.4,329.5,656.2,324.3z"/>
	<path class="st13" d="M152.2,546.9c15.6,30.4,12.5,65.1,21.6,97.6c-18.8-14.4-37-29-41.3-54.4c6.8-6.3,1.7-14.5,3.5-21.6
		C138.4,558.9,138.2,547.6,152.2,546.9z"/>
	<path class="st14" d="M445.3,689.4c-0.1-8.4,9.3-10.8,11.5-17.7c18.5-23.8,25.2-52.2,30.4-81c0.7-3.8,0.1-8.2,1.7-11.5
		c3.5-6.9,11-10.9,17.5-9.6c5.6,1.1,2.6,8.9,1.9,13.6C502.2,627.4,485.2,665.2,445.3,689.4z"/>
	<path class="st15" d="M472.6,593.8c-11.7,1.8-18.9,10.2-21.2,20.1c-10.2,45.4-44.3,72.2-76.1,101c-7.4-12.8-1.4-21.3,9.2-28.3
		c29.4-19.5,51.4-44,57.7-80.5C444.5,593.1,464.5,586.1,472.6,593.8z"/>
	<path class="st16" d="M417.5,117.5c43.3,12.5,58.1,47.5,34.9,84.3c-5,8-5.9,13.5,1.4,19.9c3.5,3.1,2.8,7-0.8,9.9
		c-2.8,2.3-6.9,3.1-8.4-0.2c-7.7-16.4-23.5-9.1-35.5-12.4c-11.1-3.1-23.2-3.6-30.1-14.8c-1.7-2.5-2.3-5.2-1.3-8.1
		c5.7-4.2,9.8,0.1,13.8,2.9c24.8,17.9,48.5,7.2,57.6-11.5c9.4-19.3-4.3-47.3-27.6-56.4c-5.7-2.2-13.4-0.8-16-8.7
		C407.8,116.7,414.3,121.2,417.5,117.5z"/>
	<path class="st17" d="M538.2,204.4c-2.1,15.7-21.2,21.2-22.1,37.5c-7.6,4.6-14.7,9.8-24.2,3.3c-4.6-3.1-6.1,2.1-8,5.1
		c-12.8,7.7-25.5,15.4-38.3,23.1c8-17.2,26.9-23.1,34.6-39.7C498.1,221.1,516.5,209.4,538.2,204.4z"/>
	<path class="st18" d="M171.7,941.6c-8.4-19.2-3.1-35.9,9.1-52.7c2.4,7.5,5.9,12.7,11.1,16.7c13.1,5.3,19.2,14.1,13.7,28.2
		C200.8,945.8,188.9,948.4,171.7,941.6z"/>
	<path class="st19" d="M194.5,613.9c12.4,17.1,30.6,26.7,51.2,36.3c-16.1,6.3-30.9-8.7-44.6,4.7c-2.6,2.6-4.3-10.7-9.2-14.9
		C195.8,631.6,179.8,621.2,194.5,613.9z"/>
	<path class="st20" d="M793.3,273.3c18.5,5.3,24.1-11.4,32.7-20.8c9.5-10.3,18-21.5,29.4-29.9c-12,27.5-31,50.1-51.3,73.8
		C797.6,288.7,794.3,281.6,793.3,273.3z"/>
	<path class="st21" d="M152.2,546.9c-14.5,10.2-11.4,25.7-11.1,39.8c0.2,11.3-3.5,7.8-8.5,3.4c0,0,0,0,0,0
		c-4.2-16.7-9.1-33.4-0.8-50.3c3.1-6.4,6.1-12.7,12.8-16.3C159.4,527.2,149.8,539,152.2,546.9z"/>
	<path class="st22" d="M629.1,437.4c-1.3-1.3-4-2.8-3.9-3.9c2.8-22.5,24.5-14.1,36.7-21.4c9.5-5.7,13.4,3.5,13.6,12.3
		c0.3,11.2-0.1,22.3-11.5,28.9c-6.1-7.1,0.7-14.8-1.4-24C652.2,435.5,641.1,438.8,629.1,437.4z"/>
	<path class="st23" d="M629.1,437.4c13.6-4.7,28.2-7.3,41.5-17.2c-2.2,11-4.4,22-6.5,33C645.1,464.1,640.8,442.6,629.1,437.4z"/>
	<path class="st24" d="M417.5,117.5c-2.5,4.7-7.6,3-11.5,4.6c-4.3,4.5-10.3,5.2-15.8,7c-22.1,7.2-29.8,23.9-21.6,45.6
		c2.7,7.3,9.3,12.7,9.9,20.9c0.1,2.9,0.3,5.7,0.4,8.6c-11.9-9.6-21.1-20.9-24.3-36.3c-5.7-27.3,12.4-49.7,41.6-51
		C403.2,116.6,410.4,117.3,417.5,117.5z"/>
	<path class="st25" d="M253.6,629.6c1.6-0.3,3.2-0.5,4.8-0.8c3.5-3.2,7.1-3.2,10.6,0c14.4-1.4,27.5-4.3,27.5-22.9
		c8.5,5.7,17,11.4,27.9,18.7C299.8,635.6,276.9,635.3,253.6,629.6z"/>
	<path class="st26" d="M171.7,941.6c10.1,0.6,21.5,7.3,28.5-6.6c6.3-12.6,1.5-21.6-8.3-29.4c7.5,0.3,15.1,0.7,22.6,1
		c-1,3-2.6,6-2.9,9.1c-0.9,8.7,10.7,17.1,3,25c-7.9,8.1-20.5,6.2-31.1,8.7C179,947.5,172.4,949,171.7,941.6z"/>
	<path class="st14" d="M432.9,823.5c-6.8-7.8-2.7-21.7-14.8-26.6c1.7-7.5,3.4-15,5.1-22.7C441.8,783.8,443.9,795.3,432.9,823.5z"/>
	<path class="st10" d="M649,195.7c-30,19.6-40.8,46.6-31.3,81.3c-12.6-13.7-11.6-46.1,3.4-63.5C628.3,205.2,634.5,193.4,649,195.7z"
		/>
	<path class="st27" d="M402.5,645.4c-3.5,3.9-8.1,3.7-12.6,2.9c-8.2-1.5-16-6.5-16.8-14.1c-0.9-9.2,10.2-4.2,15-7.8
		c2.3-1.8,6.2-1.6,9.3-2.2C404.8,629.9,405.6,637.2,402.5,645.4z"/>
	<path class="st13" d="M144.5,523.4c-18.9,19.5-14.1,43.3-12,66.6C119.1,562,124,534.8,144.5,523.4z"/>
	<path class="st28" d="M402.5,645.4c-3.9-6.5-4.8-13.8-5.1-21.2c5.1-4.6,10.1-5.9,13.4,1.7C414.8,635.2,412.4,642,402.5,645.4z"/>
	<path class="st29" d="M424,628.8c-6.5-12.2-5.3-19.9,8.8-22.1C434,614.8,426.7,620.1,424,628.8z"/>
	<path class="st30" d="M367.4,550.8c-1.4-3.9-6.8-7.9-1.2-11.9c5.5-3.9,9.5,0.5,13.3,4.1C375.5,545.5,371.4,548.1,367.4,550.8z"/>
	<path class="st31" d="M321.1,362.7c-11.7,29.9-31.1,51-48.7,72.7c-30.8,37.9-54.8,78.6-65.1,126.7c-1,4.6-1.7,9.7-6.5,11.1
		c-6.3,1.7-8.9-4.2-11.8-8.2c-21.7-29.7-18.8-77.9,11-109.5c32.9-34.9,69.9-65.7,111.2-90.8C312.7,363.7,314.8,363.9,321.1,362.7z"
		/>
	<path class="st32" d="M498.8,295.5c-1.8,7.7-7.5,11.6-15,12.3c-4.1,0.4-8.7-4.3-5.9-7.2c5.1-5.3,2.9-16.8,12.7-16.9
		C496.1,283.6,498.6,289.5,498.8,295.5z"/>
	<path class="st33" d="M414.1,375.1c-4.6,0-7.3-2.4-7.5-6.8c-0.2-5,2.3-8.6,7.5-9.2c4.6-0.5,7.1,2.3,7.2,6.6
		C421.5,370.7,419.3,374.3,414.1,375.1z"/>
	<path class="st34" d="M620.7,335c0.3,5,3.1,11.3-2.1,14.3c-5.4,3.2-7.6-2.4-9.6-6.5C612.1,339,615.3,335.4,620.7,335z"/>
	<path class="st35" d="M486.9,456.8c-5.6-1.5-12.6-3.6-12.6-11.1c0-5.9,6.5-4.5,10.7-4.6c5.3-0.1,10.4,0.9,10.8,7.8
		C496.1,454.5,492.9,456.9,486.9,456.8z"/>
	<path class="st36" d="M326,838.2c5.8-51,5.1-97.3-1.4-143.6c-1.4-10.2-1.5-21,0.1-31.2c1.8-11.6,10.3-22.1,21.5-21.5
		c11.7,0.5,17.8,13.8,25.6,22.3c1.8,2-0.8,3.4-2.3,4.4c-24.2,15.5-19.9,39.9-16.7,61.7c3.5,23.5,2.4,46.7,2.1,70
		C354.8,816.9,340.9,825.3,326,838.2z"/>
	<path class="st37" d="M214.8,775.6c1.7-30.2-1.7-62.8-10.6-95.1c-5.7-20.5,3.3-27.9,24-21.6c19.3,5.9,39,10.5,59.2,8.8
		c16-1.3,24.7,5.8,27.5,20.9c8,43.1,8.7,87.1,3.9,130c-3.2,28.9-33.3,37.3-57.1,47.7c-5.3,2.3-11.2,3.1-16.9,4.3
		c-32.8,6.6-38.5,1.5-33.3-31.9c1.6-10.3,3.6-20.4,3.4-30.8C214.6,798.3,214.8,788.5,214.8,775.6z"/>
	<path class="st12" d="M374.5,806.2c2.6-21.8,4.9-41.8,2-62.8c-2.2-16.2,17.3-5.6,26-10.5c6.1-3.4,8.3,2.6,7.4,7.3
		C405.2,764.9,408.5,793.6,374.5,806.2z"/>
	<path class="st38" d="M364,796.9c0-18.3,0-36.5,0-54.8C373.4,760.3,373.4,778.6,364,796.9z"/>
	<path class="st12" d="M353.7,610.5c16.7-16,38.5-21.2,57.5-32.1c50.5-29.1,102.3-55.9,153.7-83.3c20-10.6,34.8-25.5,42.9-46.9
		c1.2,0.4,2.6,0.6,3.5,1.4c24.1,21.4,24.4,21.9-3.2,39.2c-36.2,22.6-73.2,43.9-112.7,60.6c-35.3,14.9-67.1,36.7-101.1,54.2
		C381.8,610,368.4,613.4,353.7,610.5z"/>
	<path class="st39" d="M269,628.8c-3.5,0-7.1,0-10.6,0c-2.8-5.5-7.5-11-0.5-16.8c3.9-3.2,8.1-3.7,12-0.2
		C276.3,617.8,272,623.3,269,628.8z"/>
	<path class="st40" d="M358.7,533.4c-5.6-1-7-4.7-6.5-8.7c0.7-5.1,1.8-10.8,8-12.1c4.9-1,6.7,2.6,7,7
		C367.6,526.5,362.9,529.9,358.7,533.4z"/>
	<path class="st41" d="M859.3,156c2.8-2.4,5.5-4.8,8.3-7.2c0.9,1.5,2.9,3.8,2.4,4.5c-19.3,28.7-40.9,55.3-68.6,76.4
		c-2.7,2-6.7,2.3-12,0.4C812.7,205.4,836,180.7,859.3,156z"/>
	<path class="st42" d="M746.6,215.2c3.6-6,7.3-6.5,10.9,0l0-0.1c0,5.8,4.8,8.4,8.1,11.9c2.2,2,4.5,4.1,8.4,7.7
		c-8.8,2-14.4-1.8-20.2-4.2C748.7,226.7,748.6,220.5,746.6,215.2L746.6,215.2z"/>
	<path class="st43" d="M890.4,132.6c-44.6,11-89.1,22-130.4,43c-8.2,4.2-36.8-10.7-36.2-19.1c0.5-5.8,6.1-6.5,10.2-7.2
		c38.2-6.7,76.3-14.9,115.1-16C862.8,132.9,876.6,123.6,890.4,132.6C890.4,132.6,890.4,132.6,890.4,132.6z"/>
	<path class="st44" d="M757.5,215.2c-2.7-10.7,9.3-12.8,11.9-20.4c11.2-16.4,26.9-23.8,46.6-23.2c1.6,1.4,6.6,2.6,4.9,3.7
		C799.8,188.5,781.5,206.4,757.5,215.2C757.5,215.1,757.5,215.2,757.5,215.2z"/>
	<path class="st45" d="M816,171.6c-15.5,7.7-31.1,15.4-46.6,23.2c-12.3-4.5-10.9-10.8-0.7-15.1c22.4-9.7,45.2-18.4,71.3-24.6
		C833.4,165.6,822.5,165.3,816,171.6z"/>
	<path class="st46" d="M746.6,215.2c-10.5,12.3-24,20.9-36.7,30.5c-4.8,3.7-8.2,2.1-11.2-2.2c-2.3-3.3-4.7-8-0.2-9.9
		C714.3,227,727.1,212.1,746.6,215.2C746.6,215.2,746.6,215.2,746.6,215.2z"/>
	<path class="st47" d="M447.5,147.1c-10.1-16.2-24.7-21.5-41.4-25c-0.2,0-0.4,0-0.5,0.1c-17.3,1.6-34.9,2.6-42,23.3
		c-7,20.4-0.7,36.6,14.9,50.1c0,0,0,0,0.1,0.1c4.1,3.1,8.1,6.3,12.3,9.3c18.4,12.6,40,11.1,54.6-3.8
		C461,185.1,460.4,167.8,447.5,147.1z M415.7,177.2c-13.6,7.3,0.4,16.3,0.8,25c-10.1,3.4-17.9-1.6-25.2-8.2
		c2.9-7.5,17.4-11.3,8.6-22c-7.6-9.2-17.6-2.8-26.9-0.1c-2.6-6.9-2.9-13.3,0.4-20.2c3.1-6.4,5.3-10.1,11.7-3
		c4.6,5.1,9.7,12.1,17.6,5.1c9-7.9,0.4-13.6-4.6-20.6c13.3,0.3,30.9-5.3,16.4,17.9c-2,3.2-0.7,7.4,2.7,10.5c3.3,3,7,3.5,10.6,1.7
		c5.5-2.8,9.8-12.8,17.2-3.6c6.2,7.7,5.4,16.5,0.1,24.7c-1.4,2.1-3,4.1-5.5,7.4C434.3,180.2,427.4,170.9,415.7,177.2z"/>
	<path class="st48" d="M218.8,863.3c1.8-40.5,7-80.9,4.1-121.7c-1.5-20.8-6-40.8-11.1-60.9c-4-15.8,0.4-19.9,15.4-14.1
		c17.3,6.7,35.2,7.6,53.3,8.8c7,0.5,14.4-0.7,20.5,4c3.2,22.9,8.9,45.8-0.3,68.8c-7.6,19-11.8,20.3-29.8,8.1
		c-16.2-19.4-15.3-25.3,5.6-35c0.3-0.1,1.1-0.6,0-2.4c-1.9-3-0.4-8.7-0.8-8.5c-9,3.5-12.3-4-17.8-8.1c-9.2-6.9-7.6,6.1-12.5,7.7
		c-1.3,1.3-2.8,2.2-4.5,2.8c-1.7,1.9-5.6-3-5.6,1c0,3.6,2.8,6.9,6.3,9.2c13.9,9.2,15.5,21.2,7.2,35c-4.4,5.9-8.5,10.9,1.6,16.3
		c7.2,3.9,13,10.3,16.8,18c1,4.7-0.4,9-1.9,13.3c-2,5.1-5.5,9-9.6,12.4C261,842.8,248.9,857.5,218.8,863.3z"/>
	<path class="st49" d="M269.6,750c18.8,14.7,18.7,14.7,27.4-7c8.3-20.7,3.5-42.2,3.9-63.4c9.9,17.5,9.5,37.2,11.2,56.2
		c1.7,20-0.2,40.3,1,60.4c1.6,25.8-7.9,44.2-32,54.2c-19.9,8.3-39.6,17.9-62.3,13c9.6-6.3,19.8-11.8,28.6-19
		c6.1-4.9,18.7-10,0.6-19.3c-10.5-5.4,1-8,6.2-9.5c6.7,3.9,13,4,14.7-4.6c1.2-6.3-5.7-2.2-8.3-4.1c1.5-4.5,3-8.9,4.5-13.4
		c-1.4-5.4,2.4-6.1,6.2-6.7c4.1,0,9,3.7,11.8-2.5c1.9-4.3,0-7.4-3.2-10.1c-5-7-12.3-12.3-15.5-20.6C265,750.7,266,748.4,269.6,750z"
		/>
	<path class="st29" d="M445.2,184.3c-1.4,2.1-3,4.1-5.5,7.4c-5.4-11.5-12.2-20.8-24-14.5c-13.6,7.3,0.4,16.3,0.8,25
		c-10.1,3.4-17.9-1.6-25.2-8.2c2.9-7.5,17.4-11.3,8.6-22c-7.6-9.2-17.6-2.8-26.9-0.1c-2.6-6.9-2.9-13.3,0.4-20.2
		c3.1-6.4,5.3-10.1,11.7-3c4.6,5.1,9.7,12.1,17.6,5.1c9-7.9,0.4-13.6-4.6-20.6c13.3,0.3,30.9-5.3,16.4,17.9c-2,3.2-0.7,7.4,2.7,10.5
		c3.3,3,7,3.5,10.6,1.7c5.5-2.8,9.8-12.8,17.2-3.6C451.2,167.3,450.4,176,445.2,184.3z"/>
	<path class="st50" d="M419.1,183c12.6,5.1,11,13.1,11.3,20.3C423.5,199.3,421.9,192.7,419.1,183z"/>
	<path class="st51" d="M269.6,750c-1.3,1.1-2.5,2.2-3.8,3.4c-6,2-12.3,3.3-18.3,5.4c-0.7-0.5-1.4-1-2.1-1.4
		c6.1-14.4,5.8-25.7-11-33.9c-4.7-2.3-2.4-13.9-9.6-22.2c9.3,2.8,10.5,10.9,17.3,9.6c5.7,2.9,5.2,14,15,11.5
		c1.8-0.5,2.6-2.9,2.2-4.8c-2.5-10.7-12-3.1-17.3-6.5c1.6-9.3,7.8-15.6,16.3-26c-1.6,12.8,3.6,19.5,10.6,22.7
		c9.4,4.3,10.3-9.7,20.1-10.6c-3.8,6.5-9.2,11.9-10.1,18c-1.1,7.7,10.1,9.2,12,17c-8.1,5.4-13.7-18.4-24.1-2
		C261,739.2,264.2,743.9,269.6,750z"/>
	<path class="st52" d="M260.7,806.9c5.5-1,8.9-14.3,15-5.2c6,9.1-3.9,17.6-9.9,22.5c-7.4,6-10.6-1.5-11.5-8.7
		C256.4,812.6,258.5,809.8,260.7,806.9z"/>
	<path class="st51" d="M274.1,789.1c-3.7-0.1-7,0.8-8.9,4.4c-8.8-6.1-14.1-16.6-25.6-19.6c-5.1-1.3-4.7-2.7,6-16.5
		c0,0,1.1,0.9,1.1,0.9c7.2,12.2,18.2,19.9,30.6,25.9C278.7,787.3,277.6,789,274.1,789.1z"/>
	<path class="st53" d="M277.4,785.1c-16.2-2.2-29.8-7.3-30.8-26.9c5.8-4.2,9.9-14.8,19.2-4.9c5,7.2,17.2,9.5,14.5,21.8
		C281.9,779.2,280.7,782.5,277.4,785.1z"/>
	<path class="st54" d="M277.4,785.1c1-3.3,2-6.7,3-10c3.3-0.8,7.6-6.2,9.6-1.2c3.1,7.6-2,15.1-6.6,20.3c-4.1,4.6-7.3-1.1-9.3-5.1
		C275.2,787.8,276.3,786.5,277.4,785.1z"/>
	<path class="st0" d="M242.1,711.1c6.7-2,11.8-12.7,20.8-1.5c10.5,13-4.2,16-6.3,24.7c-8.5-6.8-15.3-12.8-14.3-23.4
		C242.3,710.9,242.1,711.1,242.1,711.1z"/>
</g>
</svg>
