<?xml version="1.0" encoding="utf-8"?>
<!-- Generator: Adobe Illustrator 23.0.1, SVG Export Plug-In . SVG Version: 6.00 Build 0)  -->
<svg version="1.1" id="Layer_4" xmlns="http://www.w3.org/2000/svg" xmlns:xlink="http://www.w3.org/1999/xlink" x="0px" y="0px"
	 viewBox="0 0 1000 1000" style="enable-background:new 0 0 1000 1000;" xml:space="preserve">
<style type="text/css">
	.st0{fill:#5C0404;}
	.st1{fill:#045C2A;}
	.st2{fill:#043E1D;}
	.st3{fill:#2C764C;}
	.st4{fill:#04371A;}
	.st5{fill:#2C5D41;}
	.st6{fill:#032B14;}
	.st7{fill:#049844;}
	.st8{fill:#03401D;}
	.st9{fill:#575232;}
	.st10{fill:#2C5C41;}
	.st11{fill:#B0AD76;}
	.st12{fill:#918E55;}
	.st13{fill:#918E54;}
	.st14{fill:#918F55;}
	.st15{fill:#055B2A;}
	.st16{fill:#928F55;}
	.st17{fill:#565132;}
	.st18{fill:#8F8C54;}
	.st19{fill:#8F8C53;}
	.st20{fill:#ADAA74;}
	.st21{fill:#03682E;}
	.st22{fill:#928F56;}
	.st23{fill:#2A593E;}
	.st24{fill:#E30404;}
	.st25{fill:#C90404;}
	.st26{fill:#FCF1F1;}
	.st27{fill:#049442;}
	.st28{fill:#2BA861;}
	.st29{fill:#06100A;}
	.st30{fill:#000D06;}
	.st31{fill:#010904;}
	.st32{fill:#FEFDFD;}
	.st33{fill:#5B0404;}
	.st34{fill:#02160B;}
</style>
<g>
	<path d="M784.5,367.3c24.1,21.8,39.8,51.2,65.9,71.3c21.6,16.6,37.7,39.4,49.7,62.5c23.3,45,30.1,93.7,12.2,143
		c-7.6,20.8-28.4,29.1-49.1,17.2c-20.3-11.7-26.2,8.3-35.1,15.1c-5.7,4.3,0.9,23,10.2,30.1c29,22.1,31.8,36.9,11.7,66.7
		c-21.3,31.6-50.4,48-88.3,51.3c-23.9,2-44.6,15.8-67.5,22.4c-28.1,8.1-54.5,11-83.2,0.9c-35-12.3-72.7-14.1-109.1-22
		c-57.1-12.3-109.6-34.9-161.6-60c-53.1-25.6-98.6-61.2-142.2-100.3c-32-28.8-55.6-63.6-75-100.8c-8.3-16-16.9-30.3-29.1-43.4
		c-20.9-22.4-33.5-91-12.7-121.3c9.7-14.3,19.1-21.9,35.1-11.7c7.5,4.8,12.3,5.3,18.9-1.6c5-5.3,13.8-7,18.5-12.4
		c4.1-4.7,16.4,0.6,13.4-9.5c-2.5-8.7-0.4-20.4-12.9-24.9c-8.2-2.9-15.8-7.5-23.2-12.1c-23.1-14.4-24.3-37.7-2.8-63.5
		c31.8-38.1,70-67.1,120.1-75.9c23.6-4.2,48.3-2.6,70.8,3.9c33.8,9.8,67.8,11.4,102.3,11.6c4.6,12-4.5,16.1-12.2,21.1
		c-8.9,1.1-18.7-2.2-24.1,10.1c-2.5,5.8-11.7,3.6-18,4.5c-18.7,2.5-36.8-4.8-55.9-1.3c-57.9,10.6-100.1,39.6-120.3,96.6
		c-8.6,28.6,8.4,49.6,21.8,71.4c4.4,7.1,8.9,1.8,11.8-2.6c9-13.6,20.3-25.2,32.1-36.2c35.6-22.5,74.2-33.9,116.4-32.5
		c6.5,0.2,13,0.5,19.1,3.2c14.4,6.5,15.3,17,2.2,26.1c-7,4.8-14.7,8.4-22.4,11.8c-39,16.9-65.7,45.8-82.9,84
		c-6.8,11.3-5.2,20.2,5.8,28.5c17.1,12.8,34,25.9,51.5,38.4c12.2,8.7,18.3,7.1,24.9-6.5c18-37.1,43-69.5,72.9-97.7
		c11.3-10.6,22.6-24.6,42-19c1.7,0.8,3.2,2,4.5,3.5c9.9,18.5-2.4,32.8-10.2,47c-19.4,35.4-38.1,71.1-53.4,108.5
		c-1.1,8.9,6.7,10.2,11.9,13.1c28.3,16,59.5,25.3,89.6,37.2c11,4.4,16.9-0.7,21.7-9.9c9-17.2,17.1-34.8,24.3-52.9
		c3.2-6,5.9-12.2,8.1-18.6c6.6-17.1,3.3-34.3,1.9-51.7c-0.9-11.6-3.2-26.4,16.4-26.2c2.1,0.4,4,1.1,5.8,2.3
		c35.8,45.2,41.2,96.1,27.4,150.4c-1.9,7.5-4.4,15-7.8,21.9c-6,12.3-1.9,18.3,11.1,19.5c18.7,5.3,37.7,9.4,57.1,11.1
		c12.1,1,19.8-3.3,22.5-15.9c3.8-17.7,9.7-35,11.8-53.1c7.2-24.6,1.1-47.1-11-68.7c-1.6-2.8-3.4-5.5-4.8-8.4
		c-3.6-7.5-9.5-15.7-3.3-23.4c6.5-8.1,15.3-3.1,23.2-0.4c13.6,7.6,27.5,15,37.3,27.4c10.1,12.7,18.9,11.1,28.1-0.5
		c0.8-1,1.5-2.2,2.5-2.9c5.1-3.9,6.8-16.2,15-10.7c7.3,4.9,3.3,16.3-1.8,20.9c-18.5,16.4-15.1,34.2-10.3,55.4
		c4.5,19.8,3.5,41.2-2.1,61.6c-0.8,3.7-2,7.2-3.2,10.8c-4.1,12.1,3.5,8.7,9.7,7.3c33.7-13.2,41.9-42.6,45.1-73.9
		c4.9-47.5-1.4-92.3-37.6-128.2c-7.4-7.4-12.1-16.7-13.1-27.7c-1.6-17.5-17.3-25.1-26.8-37.1C775.8,382,773,372.1,784.5,367.3z"/>
	<path class="st0" d="M784.5,367.3c-6,6.7-1.8,16.2-6.5,23.2c7.2,25.9-12.4,70.6-36.5,83.4c-47.2,9-92.7,4.8-136.1-17l0.1,0.1
		c-16.8-3.6-33.7-6.5-49.2-14.3c-23.4-10.9-50-16-68.2-36.5l0.3,0.2c-23.7-6.4-41.4-23-60.9-36.5c-20.9-16.3-39.2-34.9-52.5-58.1
		c-10.6-31.4,3.4-67.8,34.3-89c3.5-6.7,12.4-9.9,12.4-18.9c46-52.2,103.4-38.3,159.5-26.2c48.8,10.5,94,31.9,136.5,57.2
		C767,264.1,793,307.7,784.5,367.3z"/>
	<path class="st1" d="M167.6,535.1c1,22.3-2.4,44.8,5.3,71.1c-44-48.2-59.8-100.6-50.7-159.3c3.8-24.5,14.9-47.1,41-57.6
		c12.7-5.1,20.5,0,19.9,12c-3.1,60.9,40,92.4,79.1,126.2c89.1,76.9,195.1,122,304.4,160.7c5.4,1.9,10.5,4.7,15.7,7.1
		c-8.7,16.5-24.3,15.9-39.5,16.1c-2.5-1.4-5-2.8-7.6-4.3c-18.7-16.3-37.8-31.9-64-33.8c-38-2.8-69.4,15.6-86.4,50.3
		c-1.7,3.5-3,7.2-5.8,10.1c-8.8,5.1-17.8,11.1-24-3.2c10.5-20.8,22.8-40.8,28.5-63.6c3.6-14.5,11.7-31.2-9.3-39.7
		c-21.7-8.8-50.6-0.5-57.5,17.1c-9.9,25.4-12.7,52-8.2,82c-23.6-13.3-44.4-25.7-62.1-42.8c-1.9-4.5-0.9-9,0.7-13.2
		c10-27.4,6.6-53.3-7.7-78.4c-4.3-7.6-9.7-15.7-5-25.4c6.5-39.4-7.3-51.9-47.5-42.8c-5,1.1-9.9,2.6-14.9,4
		c-5.6-11.3,4.1-15.2,10.6-19.2c10.2-6.3,12.7-12.3,6.4-23.6c-11.5-20.7-16.3-43.6-18.1-67.2c-0.3-4.5,0.2-10.1-4.3-12.2
		c-5.7-2.7-9.5,2.4-13.2,5.9c-5.3,5-9.2,11-11.3,18c-9.3,29.7-11.3,60-4.6,90.4C142.6,543.5,146.2,544.8,167.6,535.1z"/>
	<path class="st2" d="M742.1,469.3c26.2-17.4,27.1-46.9,35.2-73c0.6-1.8,0.5-3.9,0.7-5.8c16.7,8.7,30.1,19.9,30.5,40.9
		c0.3,13,10.5,20.6,17.7,29.1c44.8,52.3,40.5,110.3,20.5,169.9c-5.9,17.7-21.3,27.1-38.5,33.2c-6.7-6.1-6.5-15.6-11.2-22.8
		c4.9-29.5,8.9-59.1-4.8-87.5c-3.4-7.1-2.9-11.3,3.9-16.3c11.1-8.1,19.7-18.4,19.3-36.3c-4.4,7-7,12-10.5,16.4
		c-15.3,19.4-21.5,20.2-37.6,1.7c-9.6-11-23.8-15.5-33.1-26.4C731.3,482.8,733,474.8,742.1,469.3z"/>
	<path class="st3" d="M379.5,312.3c13.6,21.3,32,38.1,50.3,55c15.1,22.9,12.2,54.2-6.9,74.9c-20.8-1.2-33.9-16.7-49.7-26.9
		c-4.8-3.1-8.5-7.9-11.3-9.9c14.7,17.9,39.2,26.5,58.2,42.7c-24.6,45-89.3,59.5-128.6,28.8c-5.1-4-10.3-8.3-6.6-16
		c13.7-36.8,36.7-65.4,72.6-82.6c10-4.8,19.9-9.6,29.6-15c5.8-3.2,15.8-4.5,13-14c-2.2-7.6-10.9-8.7-18-9.3c-45.1-3.7-86,9-124.2,32
		c-2.5-2.4-3.1-5.3-2.8-8.6c0.7-3.1,2.5-5.7,4.9-7.7c15.1-11.2,33.1-15.2,50.9-18.4c15.3-2.8,27.5-7.4,30.4-24.8
		c0.6-3.8,3.4-7,6.8-9.2C360.6,299.2,370.9,302.9,379.5,312.3z"/>
	<path class="st1" d="M488.2,406.1c23.3,11,45.7,23.9,70.3,32.1c3,3.6,5.2,7.8,4.4,12.2c-3.8,21,3.5,40.2,8.6,59.7
		c-9.2,9.2-18.4,1.2-26.6-1.1c-16.8-4.8-32.4-12.9-47.5-21.8c23.8,14.5,49.3,24.7,76.8,29.8c6.5,4.4,13.3,8.6,11.8,18.2
		c-0.9,6-3.2,11.4-7.5,15.9c-6.3,6-13.9,9.4-22.5,10.6c-39.2,5.2-78.5,8.3-118.1,6.5c-5.8-0.3-11.7-0.9-16-5.7
		c17.5-41.9,38.3-82.1,60.5-121.6C488.6,430,493.4,418.9,488.2,406.1z"/>
	<path class="st4" d="M742.1,469.3c-2.6,7.7-5.2,15.4-7.8,23.2c-7.4,2-16.3-8.9-21.2-0.9c-5.2,8.5,3.8,16.6,8.2,24
		c13.8,23.4,22.7,47.3,12.9,74.6c-4.1,3.7-9.2,4.3-14.4,4.7c-35.7,2.6-62.6,18.5-78.2,51.6c-1.1,2.4-3.2,4.1-4.9,6
		c-23.8-4.1-23.6-4-14.4-26.3c24.5-59.3,17.4-115.6-16.8-169.2c33.3,6.6,65.9,16.6,100.3,16.2C718,472.9,730.2,472.9,742.1,469.3z"
		/>
	<path class="st2" d="M542.8,711.2c12.5-7.1,27.8-7.2,39.5-16.1c17.8,0.9,34.1,7.7,50.9,12.5c10.5,18.4,27.5,31.8,38.3,50
		c-14.2,32.1-45.4,46.7-70.1,68c-4,3.4-8.4,1.2-12.9,0.3c-20.7-4.1-41.5-7.6-62.3-11.4c0.6-3.1,0.5-5,1.1-5.3
		C577.2,789.1,575.6,751.6,542.8,711.2z"/>
	<path class="st5" d="M671.5,757.5c-16.9-13.5-33.6-27.2-38.3-50c27.5,3.2,54.2,12.6,82.2,11.3c28.3-1.3,55.4-6.3,73.2-32.1
		c3.5-5.1,8.5-8.7,14.9-6.8c7.6,2.2,8.2,9.6,8.2,15.8c0,5-2.1,10-3.2,15.1c-7.2,29-25.6,48-52.6,59.3c-11.1,4.7-22.2,6.3-33.2-0.2
		C707,759.8,693.9,739.6,671.5,757.5z"/>
	<path class="st6" d="M355,730.3c7.9,7.5,15.9,3.9,23.8,0.1c5.8-5.1,12.9-5.8,20.1-5.7c32.4,0.5,64.5-2.5,96.4-8.6
		c5.7-1.1,11.6-1.9,16.5,2.7c-5.5,32.2-29.4,52.1-50,74.1c-4.6,4.9-11.6,0.8-16.5-0.8c-33.2-11.3-65.9-24.3-96.2-41.9
		C331.6,740,351.7,736.7,355,730.3z"/>
	<path class="st7" d="M167.6,535.1c-3.7,9.1-10.4,15.1-20.1,14.9c-9.6-0.2-9.1-10.3-11.1-16.2c-12.9-37.5-10-75,2.5-112.1
		c1-3,2.6-6.1,4.8-8.4c7.6-7.6,14.3-20.3,26.3-16.5c10.2,3.3,4.4,16.1,5.8,24.6c3.5,23,6.9,46.2,20.6,65.9
		c6.4,9.3,7.1,14.9-4.7,20.8c-8,3.9-18.8,7.2-19.8,19.2C168.7,528.9,168.2,532,167.6,535.1z"/>
	<path class="st8" d="M511.8,718.8c-43.8,10-88.1,13.2-132.9,11.6c4.1-36.3,45.4-58.6,70.7-62.1c35.6-4.9,73.7,12.9,85.7,38.7
		C524.4,704.9,519.4,714.4,511.8,718.8z"/>
	<path class="st1" d="M284.9,461c11.4,22.3,33.9,24.3,54.3,26.7c30.7,3.7,67.4-17.6,78.8-42.5c-1.4-0.7-1.9-1.4-1.5-2.2
		c0.4-0.8,0.8-1.2,1.3-1.2c21.9-21.9,17.2-48.1,12-74.4c19.6,13,39.1,26,58.7,39c-18.4-4-29.2,9-40.2,19.3
		c-31.6,29.5-57.3,63.8-75.6,103c-6,12.7-11,15-22.2,6.4c-19.5-15-39.4-29.5-59.6-43.7C278.8,482.7,274.4,473.5,284.9,461z"/>
	<path class="st2" d="M422,562.5c52.5,0.6,104.9,0.2,156.6-11.4c-5.4,21.7-17.6,40.4-26.8,60.4c-4.5,9.8-11.3,11.2-20.7,7.4
		c-33.7-13.6-68.6-24.3-100.3-42.5C426,573.8,414.5,573.6,422,562.5z"/>
	<path class="st9" d="M825.4,441c60.1,39.1,92.2,126.7,72.3,193c-4.4,14.7-14.5,16.8-27.4,13.6c-13-3.2-14.6-10.2-10.6-23
		C880.7,557.8,875.8,495.3,825.4,441z"/>
	<path class="st10" d="M636.6,652.4c3.4-35,45.9-61.4,80.1-62.5c5.8-0.2,11.6,0.1,17.4,0.2c-1.5,21.9-8.9,42.6-14,63.7
		c-2.1,8.7-7.1,10.9-15.4,10.6C681.4,663.5,658.8,659,636.6,652.4z"/>
	<path class="st11" d="M148.6,316.3c-20-14.9-23-24-7.5-40.9c60.6-65.8,106.4-86.8,198.5-60.2c-1,10.4-9.4,5.4-13.4,5.1
		c-70.8-5.6-122.8,24.2-159.9,83.3C162.3,309.9,160.9,321,148.6,316.3z"/>
	<path class="st12" d="M569.9,664.6c-15.2-19.2-17.3-38.2-3.9-60.4c11-18.1,18.3-38.6,26.4-58.3c9-21.7,14.8-43.7,7.4-67.8
		c-3.5-11.6,2.5-4.5,5.3-1.2c29.3,61.9,16.8,119.7-17.4,175.3C583.7,658.7,579.7,666,569.9,664.6z"/>
	<path class="st12" d="M222.3,473.2c-7.7-3-10.5-7.4-8.2-16.5c17.1-67.2,101.6-120.8,169.7-107c1.1,0.2,2.1,1.4,3.4,2.3
		c-2,6-8.2,5.1-12.3,7.4c-26.9,10.7-54.7,19.5-79.4,35.3c-24.1,15.4-42,36.1-55.3,61.1C236.2,463.2,234.5,473.8,222.3,473.2z"/>
	<path class="st13" d="M750,688.1c-25.1-14.2-26-16.2-18.2-42c7.5-24.8,13.5-50.1,16.2-75.8c2.2-21.1-6.9-40.4-17.9-58.3
		c2-8.3,6-3.6,8.9-1.1c19,16.3,31.8,37,34.6,61.5c3.7,32.9,4.2,66.2-10.1,97.7C760.3,677.1,758.4,685,750,688.1z"/>
	<path class="st9" d="M222.3,473.2c14.9-11.5,18.1-30.5,29.3-44.8c31.9-40.4,74.4-60,123.3-69c-5.8,6.7-14.2,8.9-21.6,12.6
		c-33.3,16.5-57.6,41.5-72.8,75.5C268.5,474.4,252.9,481.1,222.3,473.2z"/>
	<path class="st14" d="M148.6,316.3c7.5-0.2,8.8-6.7,11.6-11.6c31.1-54.3,76.3-86,140.1-90.2c13.3-0.9,26.2,9.8,39.4,0.7
		c9.6-0.7,16.9,4.3,25.5,8.9c-5.3,4.1-9.8,2.1-13.8,1.4c-75.2-11.6-142.1,25.4-170,95.2c-3.5,8.8-6.5,11.9-14.8,6.8
		C160.5,323.8,154.6,320.1,148.6,316.3z"/>
	<path class="st9" d="M750,688.1c18.4-34.4,23-71.4,19.4-109.6c-2.5-26.2-16-47.6-33.1-66.9c-1.9-2.2-4.3-2.6-6.2,0.4
		c-2.1-3.1-4.2-6.1-6.9-10c23.7,4.5,56.1,37.7,65.4,68.4c11.6,38.2,1.3,74.1-15.8,108.3C768.7,686.9,762.1,696.2,750,688.1z"/>
	<path class="st9" d="M476.1,429.5c-21.1,42.7-40.6,86.1-63.9,127.6c-8.4,14.9-26.8,21.1-45.6,13.9c20.1-23.9,32.5-52.7,49.7-78.5
		c12.6-18.9,25.3-37.6,42.1-53.1C463.4,434.6,467.6,428,476.1,429.5z"/>
	<path class="st15" d="M379.5,312.3c-10.6-2.5-21.2-4.9-31.9-7.4c-0.6-0.7-1.1-1.4-1.7-2.2c1.4-23,16.7-38.3,30-55.1
		c-7.1-3.1-14.7-3.7-22.4-4.2c-53.4-5.9-95.9,16.7-134.2,50.7c-12,12.2-16.3,29.3-27,42.2c-1.8,0.8-3.6,0.6-5.3-0.5
		c9.8-48.3,45.5-72.9,85.8-92.9c29.1-14.4,60-10,90.8-9c6.1,0.2,23.9,11.2,20-12.7c-0.8-5,16.7-0.2,25.6,1.4
		c-7.1,9.8-14.8,19.3-21.3,29.5C376.4,270.8,370.4,290.6,379.5,312.3z"/>
	<path class="st8" d="M234.3,566.3c-1.6,9.6,5.5,15.6,9.6,22.7c17.8,31.1,19.8,62.4,2.5,94.3c-10.5-5.7-17.1-15.5-25.7-23.3
		c-4-3.7-7-8.3-5.3-13.7C223.7,620.1,224.5,592.1,234.3,566.3z"/>
	<path class="st16" d="M476.1,429.5c-41.6,33.5-65,80.2-90.9,125c-4.4,7.7-6.4,17.7-18.6,16.4c-0.6-1.1-1.9-2.4-1.6-3.2
		c23.5-60.9,57.9-114,111.2-153.4c0.8-0.6,2.5-0.1,4.1-0.1C483.9,420.6,479,424.8,476.1,429.5z"/>
	<path class="st2" d="M722.5,769.9c43.8,2.4,67.1-25.1,85.8-59.1c-0.8,22.2-8.3,42-23.1,58.4c-20.2,22.3-41.4,43.7-73.5,55.7
		C719.3,805.1,739.8,790.6,722.5,769.9z"/>
	<path class="st17" d="M758.6,808.8c30.3-25.5,51.3-51.1,58.4-85.6c1.1-5.3,4.8-6.4,10.4-4.7c13.5,4.1,20,16.5,14.2,30.7
		C827.4,783.6,801.7,803,758.6,808.8z"/>
	<path class="st17" d="M374.5,637.6c5.4,2.6,4.8,7.1,3.4,11.6c-8.1,25.8-17.3,51.2-31.3,74.4c-4.6,7.6-10.2,16.6-22.1,10.5
		c-0.9-16.6-2.6-33.1,1-49.9C331.5,656.9,346.5,640.8,374.5,637.6z"/>
	<path class="st17" d="M230.1,542.8c-7.9,30.3-16.8,60.5-19.4,91.9c-0.7,7.7-2.7,13.5-11.4,5.9c-17-22.4-16.2-48.9-14.3-74.2
		C186.9,540.7,202.5,534,230.1,542.8z"/>
	<path class="st13" d="M495.9,804.3c-7.7,1.3-16.7,3.3-21.1-4.6c-4.9-8.9,5.6-11.4,10-16c15.2-16.1,27.2-34.1,36-54.4
		c2.4-5.5,4.1-16.2,14.2-6.6c23.7,34.3,1.3,68.4-28.3,77.4C503,801.3,499.3,802.2,495.9,804.3z"/>
	<path class="st4" d="M586.1,535.2c-4-5.2-7.9-10.4-11.9-15.7c1-3.8-7.3-2.9-3.9-7.8c-17.1-22.4-13.5-48.1-11.8-73.6
		c15.7,6.3,31.4,12.5,47.1,18.8c-13.1-1.8-16.9,4.4-15.9,16.7C591.4,494.3,599.1,515.4,586.1,535.2z"/>
	<path class="st12" d="M628.5,836.4c-9.3-5.2-15.8-10.9-1.8-18.3c23-12.2,38.6-31.7,52.9-52.6c18.1,1.9,27.3,21.6,16,38.1
		C679.8,826.7,658.5,841.2,628.5,836.4z"/>
	<path class="st9" d="M569.9,664.6c32.6-41.2,53.4-86.4,45.3-140.6c-2.4-15.9-6.6-31.5-10-47.2c28,48.2,30.1,98,8,148.8
		c-5.7,13-13.1,25.4-20.3,37.7C586.2,674.6,578.2,675.1,569.9,664.6z"/>
	<path class="st17" d="M628.5,836.4c23.4-1.8,42.8-11.4,58.3-29.3c14.2-16.4,12.3-29-7.2-41.6c15.2-13.7,20.6,5.1,29.7,9.7
		c8.5,4.2,13.1,13.2,7.9,23.2C700.8,830,655.5,849.1,628.5,836.4z"/>
	<path class="st18" d="M230.1,542.8c-1.8,0.6-3.6,1.9-5.4,1.8c-29.7-1.5-40.6,11.7-35.5,41.5c3.1,18.2,2.9,37,10,54.5
		c-10.6-3.8-13.5-13.3-15.9-22.6c-5.7-22.6-6.1-45.9-6.8-69c-0.5-14.4,9.8-19.4,21.9-18.3C209.7,531.6,223.7,528,230.1,542.8z"/>
	<path class="st19" d="M374.5,637.6c-0.3,2.5-0.4,5.1-3.4,6.3c-32.6,12.5-41.7,25.8-43.1,60.3c-0.4,9.9,3.2,20.5-3.4,29.8
		c-15.4-29.4-9.7-59.6,2.8-86.9C336,628.3,357.7,636.7,374.5,637.6z"/>
	<path class="st9" d="M495.9,804.3c5.6-9,16.2-10.2,24.1-15.6c25.4-17.4,21.5-41.3,15.1-66c15.8,12.6,25.2,28.4,19.3,48.8
		C548.3,792.2,523.5,805.1,495.9,804.3z"/>
	<path class="st20" d="M113.1,507.8c1.1,8-0.5,8.9-5.6,2.3C90.8,489,88.8,464.1,89,438.8c0.1-9.5,0.4-19.3,5.6-28.1
		c4.9-8.2,10.4-11.3,18.4-3.9c1.7,13.3-5.4,25.1-5.9,38.1C106.2,466.1,106.8,487.2,113.1,507.8z"/>
	<path class="st21" d="M187.2,335.8c1.3,0,2.7,0,4,0c5.9,4.8,4.5,11.8,5.1,18c0.7,8.5,2.7,16.6,6.4,24.3
		c9.5,19.7,11.7,19.6,27.7,4.3c7.9-7.6,13-20.1,27.2-19c0.1,2.8,0.2,5.7,0.2,8.6c-11.6,12.2-23.4,24.1-32,38.8
		c-2.7,4.6-5.4,8.8-12.1,4C196.4,402.4,181,357.5,187.2,335.8z"/>
	<path class="st22" d="M113.1,507.8c-11.3-33.7-19-67.4,0-101.1c6.5,2.2,9.6,5.8,7,13.1C109.9,448.5,109.8,478,113.1,507.8z"/>
	<path class="st23" d="M797.1,640.7c8.9,5,11.3,13.3,11.2,22.8c-5.4,1-10.8,2-16.7,3.1C790.1,656.6,795.9,649.2,797.1,640.7z"/>
	<path class="st24" d="M484.2,379c-32.1-18.9-62.2-39.9-83-71.8c8.3,0.1,14.1-2.8,18.5-10.8c9.6-17.5,20.4-34.5,32.5-50.5
		c3.7-4.8,5.5-10.3,4.4-16.4c-0.8-4.3-0.7-9.9-5.9-11.2c-4.1-1.1-6.7,3.1-9.6,5.5c-7.8,6.4-12.7,16.7-24.3,18
		c13.6-38.2,62.5-66.3,109.7-57.4c74.5,14.1,144.6,40.9,206.2,86.5c18.8,13.9,32.7,31.5,33.5,56.5c5.8,18.6-2.8,31.4-17.3,41.4
		c-15.8,10.9-33.9,16.5-52.5,19.8C638.1,398.9,580,394.3,522,387C509.3,385.4,496,385.5,484.2,379z"/>
	<path class="st25" d="M484.2,379c45.5,3.6,91,9.4,136.6,10.2c41.7,0.7,84.2-1.1,122-22.7c14.2-8.1,26.1-19.7,23.3-39
		c9.2,39.6,0.5,76.8-16.9,112.1c-6.7,13.6-20.8,18.4-36.5,17.4c-46.9-2.9-91.7-14.5-135.3-31.5C544.8,413,512.1,400.7,484.2,379z"/>
	<path class="st26" d="M416.6,241.9c12.3-12.1,23.8-25.2,38.5-35.2c9.1,19.8,8.7,36.6-6.6,53.8c-11.4,12.8-19.6,28.7-28,43.9
		c-5.9,10.9-11,14.4-19.4,2.8c-13.9-17.1-5.9-32.7,3.2-48.1C408,253.1,412.5,247.7,416.6,241.9z"/>
	<path class="st7" d="M339.5,606.6c-32.9,20.1-40.7,49.1-39,82.8c0.3,6.5,4.2,17.1-3.6,19c-9.3,2.2-16.1-6-20.2-14.8
		c-10.5-22.4-9.9-47-9.4-70.2c0.3-16.2-0.4-33.5,4.6-49.8c2.6-8.4,4.1-12.9,13.7-5.3C302.2,581.4,320.1,592.9,339.5,606.6z"/>
	<path class="st27" d="M257.6,363.5c-13.2,9.3-24.9,20.6-33.9,33.7c-6.7,9.8-10,6.7-15.2,0c-14-18.2-19.2-38.7-17.3-61.4
		c4.7-16.1,12.7-30.5,23.7-43.2c3.5-1.9,7.4-3.8,11.1-2.2c17.4,7.4,36.4,7.7,54.5,12c6.6,4.9,8.8,11.7,8.5,19.6
		c-4,16.2-19.2,24.2-27.3,37.4C260.3,360.8,259,362.2,257.6,363.5z"/>
	<path class="st28" d="M261.7,359.4c1.1-16.5,17-23.1,23.7-35.8c0.6-0.1,1.3-0.3,1.9-0.3c4.8,0.2,6,4.3,8,7.4
		c-1.1-3.6-2.5-7.3-1.2-11.2c15.2-17,34.2-22.2,53.3-14.7c0,0,0.2,0.1,0.2,0.1c-1.6,24.2-14,36.7-38.7,38.5
		C292.1,344.5,276.4,350.8,261.7,359.4z"/>
	<path class="st29" d="M417.8,441.7c0.1,1.1,0.1,2.3,0.2,3.5c-28.5-9-51.7-25.2-67.6-51.6C372.8,409.6,395.3,425.7,417.8,441.7z"/>
	<path class="st30" d="M570.3,511.7c-2.8,4.6,13.2,0,3.9,7.8c-32.5-4-61.6-15.8-86.9-36.9C516.1,489.3,540.3,508.7,570.3,511.7z"/>
	<path class="st31" d="M651.8,541.8c22.4-0.8,43.9,6.4,66.2,6.2C694.9,557.5,673.1,552.3,651.8,541.8z"/>
	<path class="st21" d="M280.2,305.1c-23.2,3.1-43.8-6.8-65.3-12.4c39.2-38.4,84.6-60.6,141.1-53.9c-1.2,33.3-29.6,61.1-68.6,67.3
		c-7.7-15.5-7.7-15.5-2.5-39.4c0.4-2.6-3.2,1-0.7,0.1c0.8-0.3,1.4,0.5,0.7,1.7C278.3,280,284.5,293.2,280.2,305.1z"/>
	<path class="st7" d="M288.8,304.9c31.6-12.7,57.5-31.1,67.1-66.2c9.3,1.5,18.6,2.9,30.1,4.8c-17.9,18.9-31.7,38-38.6,61.3
		c-18.6,2.5-39.3-0.2-51.2,19.7C286.4,320.7,284.9,313.9,288.8,304.9z"/>
	<path class="st32" d="M593.1,213.3c54.5,15.3,106.2,35.2,146.7,76c7.2,7.3,14.2,15.6,11.2,27.3c-3.1,12-18.1,19-26.5,11.7
		C680.5,290.3,636.9,251.7,593.1,213.3z"/>
	<path class="st33" d="M743.7,344.5c-8.7,9-21.1,10.6-33.2,9.5c-72.2-6.3-136.9-33.4-196.2-74c-18.6-12.7-34.7-28.7-46.8-51.6
		C547.6,301.2,636.2,344.8,743.7,344.5z"/>
	<path class="st34" d="M288.8,304.9c0.4,7.3,2.7,13.9,7.4,19.6c1.2,3.9,2.4,7.8,4.9,15.7c-7.1-7.5-11.4-12.1-15.7-16.6
		c-1.8-6.2-3.5-12.3-5.3-18.5c-4.4-25.7-4.4-25.7,7.6-45.3C291.5,275.8,278.8,290.9,288.8,304.9z"/>
</g>
</svg>
