<?xml version="1.0" encoding="utf-8"?>
<!-- Generator: Adobe Illustrator 23.0.1, SVG Export Plug-In . SVG Version: 6.00 Build 0)  -->
<svg version="1.1" id="Layer_4" xmlns="http://www.w3.org/2000/svg" xmlns:xlink="http://www.w3.org/1999/xlink" x="0px" y="0px"
	 viewBox="0 0 1000 1000" style="enable-background:new 0 0 1000 1000;" xml:space="preserve">
<style type="text/css">
	.st0{fill:#000100;}
	.st1{fill:#647F38;}
	.st2{fill:#47652F;}
	.st3{fill:#4C482F;}
	.st4{fill:#2F2D21;}
	.st5{fill:#87844D;}
	.st6{fill:#2E2B1A;}
	.st7{fill:#86834D;}
	.st8{fill:#819C3D;}
	.st9{fill:#4F4A2C;}
	.st10{fill:#819D3D;}
	.st11{fill:#312F22;}
	.st12{fill:#819C3C;}
	.st13{fill:#47642F;}
	.st14{fill:#46642E;}
	.st15{fill:#7D9B3A;}
	.st16{fill:#514B3B;}
	.st17{fill:#395522;}
	.st18{fill:#0F0F0A;}
	.st19{fill:#4B4131;}
	.st20{fill:#010100;}
	.st21{fill:#0E100C;}
	.st22{fill:#4E492C;}
	.st23{fill:#1C220E;}
	.st24{fill:#83804B;}
	.st25{fill:#14160B;}
	.st26{fill:#1D250F;}
	.st27{fill:#4A462E;}
	.st28{fill:#7A6B31;}
	.st29{fill:#13120B;}
	.st30{fill:#83814A;}
	.st31{fill:#2C2A19;}
	.st32{fill:#46632E;}
	.st33{fill:#9A9D61;}
	.st34{fill:#14150D;}
	.st35{fill:#4E4220;}
	.st36{fill:#242314;}
	.st37{fill:#2D2A1A;}
	.st38{fill:#504A3A;}
	.st39{fill:#504220;}
	.st40{fill:#4D401F;}
	.st41{fill:none;}
	.st42{fill:#504320;}
	.st43{fill:#4D4C29;}
	.st44{fill:#52512D;}
	.st45{fill:#758E36;}
	.st46{fill:#47432C;}
	.st47{fill:#12170A;}
	.st48{fill:#7D9A3A;}
	.st49{fill:#070A05;}
	.st50{fill:#A4A16C;}
	.st51{fill:#88864D;}
	.st52{fill:#4D4C2E;}
	.st53{fill:#4C4B2D;}
	.st54{fill:#2B4156;}
	.st55{fill:#1B287C;}
	.st56{fill:#232E1F;}
	.st57{fill:#9CA063;}
	.st58{fill:#44647F;}
	.st59{fill:#44657E;}
	.st60{fill:#1E2C7F;}
	.st61{fill:#45667F;}
	.st62{fill:#1C297F;}
	.st63{fill:#405E7B;}
	.st64{fill:#45657F;}
	.st65{fill:#3D5B7F;}
	.st66{fill:#42617E;}
</style>
<g>
	<path class="st0" d="M932.8,528.4c-5.5-45.3-20.1-89.2-38.7-131.2c-4.1-9.3-12.1-13.5-24.1-8.3c-13.7,6-28.6,9.1-42.9,13.4
		c-7.4,2.2-11.7,4.1-15.4-7.5c-5.7-18.2,2.5-35.6-2.5-53.8c-9.3-33.4-17.8-66.4-51.1-84.7c-14-7.7-25.6-18.8-39-26.7
		c-24-14.3-49-31.5-79.3-18.4c-63.2,27.3-128.8,49.6-186.9,87.7c-7.6,5-12.6,7.3-16-6.7c-7.8-32.8-17.6-65.2-34.3-95
		c-16.7-29.8-29.9-38.2-57.3-32.9c-17.8,3.4-35.5,8.2-52.8,13.9C212.5,204.6,138.2,241.7,73,296c-12.9,10.7-17.3,24.4-14.1,39.6
		C70.3,390,96,436.8,134.8,476.8c7.5,7.7,14.9,9.2,24.1,6.3c20.9-6.4,41.9-12.8,62.6-19.8c5.7-1.9,8.3-4.4,13.7,2.7
		c28.8,38.1,58.8,37.9,94.5,7.9c14.9,17,16.4,27.3-11.9,27.6c-9.3,0.1-19.5,8.5-27.5,15.3c-6.1,5.2-11.9,7.4-19.1,6.4
		c-22.5-3.2-43.3,4.8-62.4,13.4c-26.2,11.8-50.9,30.5-49,72c0.5,11,3.3,21.4,4.7,32.1c4.6,36.2,39.1,71.5,74.9,82.4
		c25.6,7.8,47.4-2.3,69.1-10.6c30.9-11.8,54.7-37,86.9-47.8c21.4-7.2,23.9-8.2,30.5,12.9c16.5,52.4,38.5,102,71.8,146.3
		c16.9,22.5,23,24.7,45.9,9.4c16.8-11.3,34.4-22.7,54.5-24.2c27.6-2.1,51.4-9.9,72.9-27.5c16.1-13.2,16.9-20.9,0.9-33.8
		c-19.9-16.1-39.1-33-58.4-49.4c9.7-14.8,24-19.2,38.9-22.7c23.2-5.5,47-9.4,69.4-17.3c51.4-18,102.6-36.5,152.8-57.4
		C916.6,583.6,938,571.4,932.8,528.4z M397.9,387.2v18.5c-6.2-3-11.9-5.7-18.7-9C385.8,393.3,391.5,390.4,397.9,387.2z M591.3,659.4
		c-10.8-5-11.4-17.5-16.6-26.8c-1.5-2.7,3.1-6.3,7.6-7.8c9.6,5.3,14.3,15,18.4,24.5C601.6,651.1,592.8,660,591.3,659.4z"/>
	<path class="st1" d="M456.6,311.8c3.2-3.7,6.8-7,12-7.5c2.7,10.7,7.6,15.2,19,9.1c22.9-12.2,48.9-16.7,72.3-27.8
		c3.5-1.7,7.3-3.4,11.1-3.4c14.5-0.1,28-3.1,39.4-12.7c1.6,2.1,3.2,4.4,2.9,7c-5.1,57.2,24.6,104.1,45.6,153.4
		c5.8,13.5,12.7,26.8,19.9,39.8c3.9,11.8,15.2,20.8,13.3,34.9c-14.8,11.6-34,11.7-50.5,19.1c-7,3.2-15,4-24.7,10.5
		c15,8.1,28.9,8.7,43.3,6.4c15.5-2.5,29.4-10,44.3-14.5c16.6,14.2,26.1,33.4,34.5,52.6c6.1,14.1-5.9,15.5-16.4,15.7
		c-57.9-5.5-106.4-30.4-148.2-70.3c-17.4-16.6-16.7-22.7,6.1-31.5c19.5-7.5,39.8-12.7,59.9-18.3c-23.6,7.6-47.8,12.2-72,17.1
		c-14.2,2.9-25.9-0.5-34.9-11.6c-35-43.2-64.2-89.6-79.4-143.7C451.7,327.8,450.9,319.4,456.6,311.8z"/>
	<path class="st1" d="M284.2,395.1c-14.1-21.5-31.1-20.8-52.1-9.4c-16.3,8.9-34.7,13.9-52.2,20.7c-19.3,10.4-37.8,2.6-52.9-7.2
		c-28-18.2-42-46.5-46-79.6c-0.8-6.6,0.9-12.9,5.1-18.2c52.2-41.2,107.7-76.4,171.3-97.8c9.8-3.3,12.6,0.1,14.7,8.3
		c5.4,20.7,12.1,41.1,16.4,62c5.8,27.8,18.5,50.7,40.1,69.2c13.3,11.4,25.6,23.9,38.4,35.9c-4.5,12.9-17.2,11.7-26.8,14.4
		C322.1,398.7,303.2,405.2,284.2,395.1z"/>
	<path class="st2" d="M456.6,311.8c0.6,37.8,18,69.7,36.4,100.9c13.7,23.3,27.4,46.9,46.6,66.6c7.7,7.9,15.3,10.2,26.1,7.6
		c21.3-5.2,42.8-9.4,64.3-13.6c4.7-0.9,9.8-2,15.7,1.6c-24,8.5-46.6,18-70.1,24.5c-14.6,4-12.1,8.1-3.8,15.7
		c39.2,35.8,80.9,66.8,136.5,71.2c5.1,0.4,10,2.7,14.9,4.1c0,6.4-4.9,8.9-9.6,10.6c-24.7,9-48.8,19.8-74.8,24.7
		c-27.8-2.5-42.4-23.3-57.5-42.6c-12.7-16.3-21.8-35.3-34.3-51.9c-13.2-25.2-27-50-39.4-75.6c-4.9-10.2-11-14.6-22.3-14.3
		c-18.8,0.5-37.6-0.1-56.4-0.6c-5.4-0.1-11.1,1.8-14.7-5.7C392.6,390,410.8,336.5,456.6,311.8z"/>
	<path class="st3" d="M801.1,426.2c6.7,0,13.2-0.9,19.1-4.4c44.1-21.1,48.9-18.8,64.3,26.1c9.1,26.5,15.7,53.5,20.3,81
		c3.1,18.6-0.9,24.8-22.2,35.4c-22.6,11.2-34.2,11-46-2.1c-5.6-6.3-11.3-12.5-17-18.8c-1.4-1.6-2.7-3.3-3.8-5.1
		c-23-28.7-24.7-63.2-26.7-97.6C788.7,432.1,792.6,427.3,801.1,426.2z"/>
	<path class="st4" d="M497.3,648.8c7.5-1.1,11.7,2.3,14.5,9.5C528,698.8,553,734.7,574,772.6c0.9,1.7,2.4,3.2,3,5
		c2.3,7.7,20.7,6.9,12.1,18.9c-9.3,13-42.6,16.5-52.2,8.1c-30.2-26.4-44.4-63.2-63.3-96.9c-6.3-11.2-10.1-23.8-16-35.2
		c-6.5-12.7-0.2-17.4,11-19.4C478.1,651.5,487.7,650.2,497.3,648.8z"/>
	<path class="st5" d="M378.6,487.8c12.3-5.7,24.6-11.4,37.4-17.3c-5.2,61,13,111.8,60.9,150.4c-2.1,15.9-15.5,16.3-26.2,16.3
		c-26.9,0.2-50.5-8.4-68.6-29.9c-18.6-22.2-34.4-45.2-34.4-75.7C347.7,505.3,354.5,495.5,378.6,487.8z"/>
	<path class="st6" d="M421.7,500c0.1-37.1,34.5-62,69.6-50.4c4.8,1.6,8.5,4.4,7.9,9.6c-0.7,6.3-6.3,5.1-10.7,5.5
		c-33.6,3.2-43.9,14-42.9,47.9c1.1,38.4,20.2,67.5,51.2,88.9c16.9,11.7,33.4,10.9,49.2-4.4c6.7-6.5,15.7-17.7,26.7-3
		c9.7,13,8.2,18.2-8.2,25c-33.9,14.1-64,16.2-93.1-10.2c-12.5-11.3-19.9-25.7-27.7-39.5C431.6,548.1,421.7,525.4,421.7,500z"/>
	<path class="st7" d="M175.4,589.5c4.6-21.4,19-34.4,38.1-42.5c16.6-7,34.2-10.7,52.2-12.2c3.5,7.2,3.4,7.2-2.2,15.3
		c-9.5,13.8-18.6,27.8-13.5,45.9c1.2,12.3,3,24.4,8.2,35.9c4.1,9,5.7,18.8,3.9,28.7c-3.2,17.4-19.2,25.7-35.4,18.7
		C199.7,667.7,171.9,619.1,175.4,589.5z"/>
	<path class="st8" d="M372.1,379.1c-4.8-5.3-8.9-11.3-14.4-15.7c-41.2-33.6-61.9-78.2-72.1-129.3c-7.9-39.3-9.2-39.3,30.5-50.4
		c64.6-18,58.9-9.8,85.5,40c14.1,26.3,19.4,56.1,27.2,84.9c2.2,8,2.3,15.6-6.9,19.7c-10.3-23.1-12.1-48.6-20.2-72.4
		c-6.5-19.1-13.1-37.9-26.6-53.5c-4-4.6-8-9-14.3-8.6c-18.3,1.2-35.6,5.9-51.4,15.5c-4,2.5-7.4,6.4-6.3,11.2
		c7,32,8.9,65.7,29.6,93.3c0.8,1,1.9,1.7,3,2.5c9.9,8,17.8,18.4,28.8,25.2c9.2,10.2,18.4,5,27.9,0.3c13.6-6.7,13.7-6.6,22.3-2.1
		c-3.5,6.9-8.5,13.4-10.2,20.7c-3.2,14.1-11.9,20.7-25.3,22.8C374.8,385.3,373.2,382.5,372.1,379.1z"/>
	<path class="st9" d="M175.4,589.5c1.3,34.6,23.7,57.7,45.3,80.5c6.5,6.9,16.9,12.1,28.1,4.6c11.6-7.8,10.6-19.2,8-29.6
		c-4.1-16.8-13-32.4-11.3-50.5c6.6-3.5,8.2,2.5,9.5,6c12.3,33.7,33.5,61.1,59,85.6c1.3,1.3,1.7,3.4,2.6,5.2
		c-72.6,54.7-121.5,4.6-140-58.3C172.6,619.8,166.7,604.2,175.4,589.5z"/>
	<path class="st9" d="M331.8,512c7.9,5.9,3.8,14.3,3.9,21.5c0.5,37.2,16.7,68.3,36.8,98c5.9,8.7,15.3,13.6,24.6,18.9
		c-34.9,22-65.9,18.1-89-12.8c-19.8-26.4-33.9-55.4-23-90.1c3.3-10.6,7.1-20.9,19.1-24.7c2.4,3,1.6,6.2,0,9.1
		c-13.9,25.5-1,46.2,12,66.7c3.2,5,8.3,9.3,14.7,5.5c5.4-3.2,4.5-9.1,2.7-14.1c-5.2-14.1-7.1-29-9.3-43.7
		C322.5,534.3,320.8,521.6,331.8,512z"/>
	<path class="st10" d="M872.1,406.7c6.1-4.5,11.6-6.2,14.3,3.4c11.9,42.7,27.6,84.5,33.4,128.8c1.2,9.2-0.4,18.3-6.1,23.5
		c-18.6,16.8-38.5,32.3-66,30.8c-23.6-5.2-33.7-26.1-45.3-43c-16.4-24-31-49.5-43.9-75.8c-1.7-3.5-3.6-6.9-3.7-11
		c0-6.5,2.9-11.4,8.7-14.1c7.1-3.3,10.9,1.7,14.1,6.8c3.8,6,5.8,13,9.8,19c9.5,22,17.7,44.8,32.8,64l-0.1-0.1
		c3.5,5.5,8.6,9.8,12.6,14.8c16.5,20.7,21.5,21.8,45.9,9.9c28.6-14.1,28.2-14.7,22.3-46.6c-6.3-33.9-18.5-66-28.5-98.7
		C871.2,414.8,866.1,410.8,872.1,406.7z"/>
	<path class="st11" d="M683.3,253.9c0.2,2.6,0.5,5.2,0.7,7.9c-34.4,17.1-43.1,43.3-26.8,79.7c1.7,3.8,3.7,6.5,7.5,8.3
		c8.1,3.9,10,11.4,10.6,19.4c3.9,51.3,48,73,90.4,44.5c5.8-3.9,12-10.5,19.1-6.5c6.6,3.7,6.1,12.5,6.1,19.5
		c0,14.3,2.3,28.3,3.7,42.4c0.4,3.7,4.1,12.5-6.7,9.9c-8.4-9.4-7.4-27.5-20.3-30.6c-11.6-2.8-24.4,5.1-36.8,7.8
		c-5.6,1.2-11.2,2.6-16.6,4.6c-14.4,6.1-22.8,0.6-29.1-13c-20-43.6-41.5-86.5-55.9-132.5c-4.5-19.7,2.6-37.3,10.8-54.2
		C650.2,240,664.1,238.2,683.3,253.9z"/>
	<path class="st12" d="M632.2,233.9c16.2-18.1,35.5-14.9,54.9-7.3c14.9,5.9,29.7,12.2,40.1,27.2c-8.6,6.5-16.2-0.3-23.7-0.7
		c-17.1-5.3-35.5-20.3-51.8-3.9c-20.2,20.3-26,46.7-17.4,75.1c15.3,43.4,34.4,85.2,54.9,126.4c5.4,10.9,8.1,20.7-10.1,19.5
		c-31.3-51.2-56.7-105.5-67.4-164.3C607.2,282,604.3,251.7,632.2,233.9z"/>
	<path class="st13" d="M86.1,301.3c-3.6,27.3,6.8,50.9,21.3,72.7c17.1,25.7,43.3,32.8,72.5,32.3c-0.8,16,15.8,21.9,20.1,34.9
		c-31.1,12-60,8.1-86.8-11.6c-26.2-27.5-31.3-64.2-42.1-98.2C66.9,318.3,73.8,307.7,86.1,301.3z"/>
	<path class="st14" d="M847.1,598.2c-40.9,15.5-81.4,32-123.9,42.9c-15.8,3.3-31.7,6-48,4.6c-7.8-0.7-17.2-0.5-19-9.8
		c-1.6-8.3,6.7-11.7,13-14.9c7.4-3.9,15.4-6.7,22.3-11.6c7.7-6.2,17.4-8.2,26.3-11.9c24.9-10.4,25-10.1,43,9.2
		c-2.4-5.2-13.8-8.6-3.1-16.3c26.6-5.2,52.8,5.6,79.4,1.3C842,591.3,845.4,593.5,847.1,598.2z"/>
	<path class="st15" d="M608.7,269.3c-3.2,12.9-7.3,18.9-24.5,16.9c-24.6-2.7-45.7,15.8-69.7,21.4c-9.9,2.3-19.1,7.9-28.6,12
		c-5.8,2.5-12.1,7.6-18.1,2.5c-6.3-5.4-1.1-11.9,0.9-17.9c32.3-19.2,67.7-32,101.2-48.6c15.5-7.7,31.5-14.4,47.3-21.5
		c4.3-0.9,6.8,2.7,5.5,5C617.3,248.9,617.8,261.4,608.7,269.3z"/>
	<path class="st16" d="M576.1,666.3c-5.6,21.6,0.1,32.7,21.8,33.7c3.1,0.1,6.4,4.2,9,7c17.6,18.3,35.9,35.8,56.7,50.4
		c8.9,6.3,7.7,9.9-0.7,15.2c-10.3,6.6-16.1,11.1-29.7,0c-43-34.8-67.5-81.5-92.2-128.6c-2.2-4.3-3.3-9.6,3.2-10.7
		c5.4-0.9,12.1-8.1,15.9-1.7C567.1,643.1,571.6,656.1,576.1,666.3z"/>
	<path class="st17" d="M695.4,609.8c-5,10.8-16.8,11-25.4,16.1c-4.2,2.5-12,3.2-10.8,9.2c1.4,7.3,9.2,4.8,14.7,5.4
		c16.4,1.9,32.9-3.5,49.2,0.4c-25.5,15.1-54.4,19.4-82.6,26c-8.5,2-12.8-5.4-17.3-10.5c-21.2-23.9-35.9-52.2-51.5-79.6
		c-8.5-15-19.7-28.7-24.8-45.7c17.2,14.1,24.7,35.6,39.4,51.6c14.5,15.8,26.6,35,50.6,38.5c2.5,1.3-2.5,5.4,0.4,4.3
		c12.6-4.8,26-7.5,38.4-13C681.7,610.1,688.1,604.6,695.4,609.8z"/>
	<path class="st18" d="M789.1,476.5c6.1-14.2-1.7-28.1-1.3-42.4c0.2-7.7-2.6-16.2-3.2-25.1c-9.6,2.4-15.2,8.7-22,13.4
		c-19.3,13.5-41,16.3-60,2.3c-16.9-12.4-36.3-25.7-31.9-52.8c1.2-7.2,1.4-17.3-11.1-17.9c-2-0.1-5.2-2.7-5.6-4.6
		c-5.1-23.7-15.9-47.1-2.1-71.5c7.3-13,17.5-18.5,32.1-16.3c2.7,0.1,5.4,0.2,8.1,0.4c0,4.8-3.5,6.2-7.2,7.4
		c-4.4,1.1-8.9,1.7-12.9,3.9c-15.5,12.4-20.4,48.3-8.8,63.1c3.1,3.9,6.9,2.4,10.7,2.1c9.5-1.9,18.5-5.3,27.7-8.1
		c12-3.7,23.2-4,29.6,9.2c7.1,14.5-3.2,20.9-13.4,27.2c-2.2,1.3-4.5,2.4-6.9,3.3c-9.4,5.4-24.8,3.3-26.5,18.3
		c-1,9.2,22.2,29.2,34.2,31.7c22.8,4.7,42-4.5,57.1-27.3c-0.2-1.7-0.1-3.3,0.1-5c0.6-1.6,1.6-2.9,3-3.9c6.1-1.8,10.8-8.3,18.2-5.3
		c1.2,1.6,2.3,3.1,3.5,4.7c-3.2,12.2,3.3,23.2,4.3,34.9c0.2,3.2-8.5,2.2-3.6,7.7c-4.2,3.9-8.7,7.1-7.6,14.3
		c4.9,32.8,3.1,67.3,26.3,95c0.7,0.8,0.3,2.5,0.4,3.8c-19.3-16.7-25-41.4-37.1-62.3C785,475.1,787,475,789.1,476.5z"/>
	<path class="st19" d="M524.8,640.6c9.2,0.5,10.7,8.8,13.7,14.7c20.7,40.5,42,80.5,77.1,110.9c2.5,2.1,5.2,4.1,7,6.7
		c3.1,4.7,15.5,3.9,10.1,13.1c-4.4,7.6-13.2,9.5-22.3,7.8c-9.2-1.7-15.3-8.1-20-14.6c-28.7-39.3-53-81.2-72.6-125.8
		C514.6,646.1,514.8,640.8,524.8,640.6z"/>
	<path class="st9" d="M378.6,487.8c-29.4,18.7-35.4,45.5-18.6,77.3c17.1,32.3,37.1,60.7,76.6,66.7c14.8,2.2,29.5,2.6,40.3-10.9
		c7.5,4.8,15,9.5,23.3,14.8c-48.9,21.3-99.6,22.7-123.6-11.7c-21.4-30.6-36.5-64.3-32.8-103.3C346,498.6,356.3,489,378.6,487.8z"/>
	<path class="st20" d="M781.4,301.2c3,6,7,11.7,5.9,18.9c9.8,12.3,8.9,27.1,9.5,41.5c-5.6,18.5-16.7,22.9-30.5,10.4
		c-25-22.6-34.6-52.6-35.3-85.3c-0.2-10.5,5.3-20.3,19.1-19.5C764.9,274.5,773.3,287.7,781.4,301.2z"/>
	<path class="st21" d="M334.8,321.6c-13-7.4-17.4-20.6-21.2-33.5c-5.3-17.9-7.4-36.9-13.9-54.3c-7.5-20.1,1.8-29.3,18.1-35.1
		c12.7-4.5,26-7.6,39.1-11c8.6-2.2,14.8,2.2,20.2,8.5c10.5,12.5,18.9,26.2,24,41.8c9.5,29.4,19.4,58.8,20.8,90.2
		c0,5.4-2.4,9.2-7.3,11.5c-12.1-3.2-19.4,7.1-29.1,10.7c-10,3.7-17.2,3.8-23.3-5.5c0.8-1.8,2.1-3,3.9-3.6c29-0.9,34.9-8.9,28.3-37.2
		c-2.9-12.6-8.5-24.2-12.2-36.4c-0.5-1.7-0.9-3.5-1.2-5.3c-3.8-15.4-12.5-28.3-21.2-41.2c-6.2-9.2-15-13.7-26.5-13.2
		c-21.2,1-26.4,7.2-22.1,27.8c5.9,27.9,13.3,55.3,26,81C337.3,319,336.5,320.5,334.8,321.6z"/>
	<path class="st22" d="M294.2,418.4c-20.7-3.1-33,2.5-43,15.7c-7.2,9.5-19.9,15.9-30.7,12.3c-12.9-4.3-20.2-17.8-27.2-29.5
		c-3.7-6.3,3.2-7.6,6.8-9.1c17.3-7.3,34.9-14,52.2-21.3c6.4-2.7,10.9-1.3,15.3,3.8C274.9,398.5,282.7,406.3,294.2,418.4z"/>
	<path class="st19" d="M439.1,660.2c7.6,0.5,8.7,6.5,10.9,11.9c12.5,31.3,27.9,61.1,44.4,90.5c10,17.8,21.9,33.5,36.4,47.5
		c4,3.8,12.4,7.9,2.6,14.9c-7.2,5.2-13.9,10.6-21.1,0c-32.2-47.9-60.4-97.9-75.3-154.2C435.9,667.1,431.6,662.4,439.1,660.2z"/>
	<path class="st5" d="M331.8,512c-7.7,26.9-0.6,52.4,7.4,77.8c2.2,7,7.4,14.2-3.3,19.9c-9.4,4.9-15.7,2.1-22.2-4.9
		c-21-22.8-24.9-55.8-9.5-82C312.4,516.7,321,511.5,331.8,512z"/>
	<path class="st23" d="M789.1,476.5c-2,0.1-3.9,0.3-5.9,0.4c-5.4-4.4-5.6-11.6-8.8-17.1c-2.3-4-2.3-11.6-10.4-6.5
		c-5,3.2-7.7,7.2-4.4,13c25.5,45,46.5,93.1,88.1,126.9c-0.2,1.6-0.4,3.3-0.6,4.9c-2.5-1.4-4.9-2.9-7.4-4.3
		c-22.9-6.4-32.2-27.2-44.2-44.1c-15.1-21.1-27.8-44-39-67.4c-5.9-12.3-13.4-15.6-26.4-11.5c-12.2,3.8-24.1,10.2-37.7,7.3
		c-4.8-8.4-0.3-12.4,7.1-15.1c5.1-1.9,10.6-2.7,15.1-6.2c4.7-5.6,11.9-4.7,17.8-6C777.3,440.6,766.9,433.6,789.1,476.5z"/>
	<path class="st6" d="M328.2,431.8c0.1,25.7-8.3,37.6-30.7,46.2c-18.5,7.1-36.1,2.5-49.1-12.9c-3.2-3.8-9.2-8.8-4-13
		c5.9-4.8,7.9,3.1,10.6,6.9c7.9,11.1,17.2,17.6,31.4,11c14.1-6.6,22.8-17.4,17.3-32.5c-6.4-17.4,6.4-20.5,15.8-21.8
		C335.3,413.6,323.3,428.6,328.2,431.8z"/>
	<path class="st17" d="M113.2,429.7c27.8,12.6,57.2,13.1,86.8,11.6c8.1,6.5,15.8,12.9-1.9,16.5c-1.9,0.4-3.6,1.4-5.4,2
		C143.6,473.8,142.7,473.5,113.2,429.7z"/>
	<path class="st24" d="M277.4,539c-8.1,31.6-5.6,62,11.3,90.5c4.4,8,12.5,16.1-0.1,24c-39.5-22.4-50.7-85.5-19.7-111.5
		C271.3,539.9,273.7,537.9,277.4,539z"/>
	<path class="st25" d="M872.1,406.7c9.3,37.5,25,73,31.9,111.3c5.8,32.2,5.9,33.9-28.8,50.3c-22.8,10.7-28.3,9.1-46.5-14.7
		c-3.4-4.4-9.3-7.5-8.6-14.5c6.1,1.8,9.3,6.9,13.1,11.2c18.3,20.3,48.7,19.3,65.4-2c3.1-4,3.9-8.1,3-12.7
		c-7.2-38.8-18.3-76.6-31.1-113.9c-3.2-9.4-8.8-9.2-16.5-7.5c-11.3,2.6-21.7,9-33.9,7.5C833.4,402.6,852.8,405,872.1,406.7z"/>
	<path class="st26" d="M608.7,269.3c1.8-12,12.9-21.7,8.5-35.2c4.9-6.7,10-2.6,15-0.2c-17.9,26-23,53.9-15.2,84.8
		c13.3,53.3,37.5,101.8,62.8,150c-0.5,2.2-1.8,3.6-4,4.1c-30-52.1-53.3-107-68.8-165.2C603.4,294.6,611.3,282.2,608.7,269.3z"/>
	<path class="st27" d="M406,435.8c-17-8.4-32.1-10.8-44.5,3c-8,8.8-8.6,19.8-2.9,30.9c1.8,3.5,12.6,7.1,0.1,11.9
		c-9.1,3.5-11.5-1.2-14.2-7.7c-9.5-22.6,8-49.2,37.1-57.5C397.3,411.9,405.2,416.4,406,435.8z"/>
	<path class="st28" d="M492.6,581.7c-2.9-6.4-6.4-12.7-0.6-19.4c17.1-9.2,34.4-17.6,54.7-11.5c3,5,5.9,10,8.9,15
		c0.1,1.3,0.4,3.2-0.4,3.6C535.8,580.5,515.4,587.2,492.6,581.7z"/>
	<path class="st29" d="M277.4,539c-20.9,11-26,30.3-22.9,50.9c3.7,24.5,14.1,46.7,34.6,62.6c10.8,11.3,25,19.6,31.7,34.6
		c-1.4,1.4-2.8,2.8-4.3,4.2c-27.4-19.1-46.4-44.8-59.9-75.1c-3.3-7.4-4.1-16.2-11.1-21.7c-7.3-18.3,5-31.3,12.2-45.8
		c2.4-4.8,10.4-6.3,8-13.8C272.3,528.5,274.5,534.8,277.4,539z"/>
	<path class="st6" d="M383.6,437.3c10.9,0.3,18.4,5.1,18.6,17.1c0.2,13.7-9,20.4-20.7,20.3c-9.3,0-18.9-3.8-18.4-17.3
		C363.6,443.7,370,437.4,383.6,437.3z"/>
	<path class="st9" d="M320.8,687.1c-12.3-10-26.2-18.4-31.7-34.6c5.8-7.8-0.7-15.3-0.4-23c17.6,15.6,31,36.5,56.4,43.4
		C338.7,681.7,330.4,685.5,320.8,687.1z"/>
	<path class="st6" d="M276.2,425.6c12.4,0,20.2,4.8,20.5,16.8c0.3,13-7.4,21.6-19.8,21.7c-10.5,0.1-18.4-8.1-18.5-18.8
		C258.2,434.1,263.6,425.2,276.2,425.6z"/>
	<path class="st30" d="M753.9,270.4c-14.4-2.1-19,7-18.4,18.4c1.7,29.7,11.1,56.9,32.1,78.7c9.4,9.8,19.6,14.6,25.9-3.6
		c9.5,1.2,4,6.9,3.5,11.2c-0.2,1.2-0.3,2.5-0.1,3.7c-5.5,5.2-11.5,9.1-19.6,7.3c-5.7,1-10.6-1.3-14-5.2
		c-24.3-27.8-39.4-59.2-37.6-97.1c0.3-6.1,2.2-11.5,7.8-14.9c5.7-7.6,12.7-7.3,20.3-3.3c1.1,1,1.5,2.1,1.2,3.1
		C754.7,269.8,754.3,270.4,753.9,270.4z"/>
	<path class="st31" d="M534.1,530.6c-19.9,12.2-50.4,9.8-54.8,44.1c-15.8-15.4-20.7-33-25.4-52.3C477.7,560.1,507,527.3,534.1,530.6
		z"/>
	<path class="st32" d="M372.1,379.1c2.4,1.4,4.7,2.8,7.1,4.1c-20.1,9.6-41.2,16.9-61.9,25.1c-17.4,7-26.3,2-33-13.2
		c28.5-0.8,56.8-2.9,82.9-16.1C368.8,379,370.4,379.1,372.1,379.1z"/>
	<path class="st28" d="M472.6,527.8c-7.1-5-14.6-9.9-8.2-20.4c15.8-9.5,31.8-18.1,51.3-15.4c4.1,4.4,6.9,9.5,8.2,15.4
		c-4.1,13.8-18.1,10.7-27.3,15.6C489.4,526.9,480.8,527.3,472.6,527.8z"/>
	<path class="st33" d="M683.6,266c2.8-1.3,5.7-2.6,8.5-3.9c12.8,1.7,26.2-4,38.4,3.6c-4.2,12.4-4.2,25.2-4.1,38
		c-1.4,8.3-5,13.5-11.8,4.6c-9.1-11.8-16.8-24.2-31.5-30.5C677.7,275.6,676.7,269.7,683.6,266z"/>
	<path class="st34" d="M632.3,325.3c-10.6-30.4-1.6-57.1,17.6-80.6c11.8-14.4,38.1-9.4,53.5,8.4c-6.4,8.9-13.3,3.2-20.2,0.7
		c-31.5-9.3-45.6,2.7-50.1,43.1c-0.7,6.4-0.2,12.9-0.3,19.4C635.2,319.4,635.2,322.5,632.3,325.3z"/>
	<path class="st35" d="M492.6,581.7c21.2-4.6,43.1-6.1,63-15.8c5.9,8.3,10.9,15.4-5.9,16.9c-12,1.1-24,4.5-35.5,8.4
		C503.4,594.8,497,591.3,492.6,581.7z"/>
	<path class="st36" d="M723.2,303.8c0.3-13.1-2.5-26.8,7.3-38.1c1,1.1,2,2.2,3,3.3c-10.1,48.3,9.2,85.6,43.9,117.2
		c0,1.4,0.1,2.8,0.1,4.2c-14.4,3.7-21.5-7.2-27.8-16.1C734.9,353.3,723.4,330.5,723.2,303.8z"/>
	<path class="st37" d="M378.2,408.2c-20,6.1-31.8,18.3-40.7,37.1C333.6,404.8,344.6,394.7,378.2,408.2z"/>
	<path class="st38" d="M594.9,689.7c-7.9,1.7-10.1-1.7-11.8-5.2c-1.5-3.1-1.3-6.5,2.4-8.2c8.5-3.8,15-9.9,21.5-16.3
		c5.1-5,8.1-0.1,10.9,3.1c2.4,2.6,7.7,6.2,3.7,9.3C612.6,679.5,602.3,685.1,594.9,689.7z"/>
	<path class="st31" d="M453.6,504c6.8-31.6,24.6-40.7,51.1-29.1C487.9,483.7,466.6,482.8,453.6,504z"/>
	<path class="st39" d="M472.6,527.8c15.4-11,35.6-10.1,51.3-20.3c4,4.5,5.4,11.4-0.5,12.8C506.8,524.2,491.3,538.1,472.6,527.8z"/>
	<path class="st40" d="M515.7,492.1c-17.1,5-33.4,12.9-51.3,15.4c9.4-19.6,29.3-18.2,46.2-22.4C514.1,484.2,515.2,488.8,515.7,492.1
		z"/>
	<path class="st41" d="M591.3,659.4c-10.8-5-11.4-17.5-16.6-26.8c-1.5-2.7,3.1-6.3,7.6-7.8c9.6,5.3,14.3,15,18.4,24.5
		C601.6,651.1,592.8,660,591.3,659.4z"/>
	<path class="st42" d="M546.8,550.9c-18.2,3.8-36.5,7.7-54.7,11.5C508.6,543.6,533.4,538.4,546.8,550.9z"/>
	<path class="st43" d="M797.1,375.2c-0.9-3.8,0.7-8.4-3.5-11.2c-1-14.8-0.6-29.8-6.3-43.8C801.7,336.5,804,355,797.1,375.2z"/>
	<path class="st44" d="M753.9,270.4c0-1.6,0-3.1-0.1-4.7c13.1,8.8,24.4,19,27.5,35.5C772.2,290.9,763.1,280.6,753.9,270.4z"/>
	<path class="st45" d="M804.7,418.5c-5-11.2-14-21.9-4.3-34.9C802.5,395.1,810.6,406,804.7,418.5z"/>
	<path class="st41" d="M397.9,387.2v18.5c-6.2-3-11.9-5.7-18.7-9C385.8,393.3,391.5,390.4,397.9,387.2z"/>
	<path class="st46" d="M430.5,450.6c-8,5.5-12.5,8.7-17.4,12C411.2,449.4,411.2,449.4,430.5,450.6z"/>
	<path class="st47" d="M632.3,325.3c0.2-3,0.3-6,0.5-9c18.4,42,37.1,83.8,54.9,125.9c5.5,13.1,12.1,20.5,27,14.5
		c-4.9,9.8-21.1,5.9-23.3,19.1c-0.7,11,7.1,18.6,11,27.7c4.4,9.8,11,18.4,16.1,27.8c5.4,11.1,13.3,20.6,19.2,31.3
		c7.1,12.7,16.5,14.8,29.1,9.4c5.3-2.3,10.9-4.1,16.4-5.8c4.7-1.4,11.1-4.7,13.5,1.8c2.1,5.6-4,8.7-8.3,11.6
		c-10.3,7-23.2,7.6-33.7,13.9c5.5,7,10.9,14.1,16.4,21.2c-1.1,0.3-3,1.2-3.2,0.9c-21.7-32.4-47.1-17.8-72.3-5.7
		c-23.6,7.5-47.1,15-71.5,22.7c1.3-9.3,10.5-5.8,13.1-11.2c29.6-7.8,58.8-17,86.2-31c13.9,0.6,17.5-4,9.2-16.4
		c-10.2-15.3-19.5-31.1-29.3-46.7c-9.4-4.9-13.3-12.8-12.5-23.2c-5-10.4-10-20.8-15-31.3c1.3-1.4,2.7-2.7,4-4.1
		c16.1-1.8,10.5-11,6.2-19.1C665.1,409.5,646.6,368.3,632.3,325.3z"/>
	<path class="st15" d="M690.7,504.1c4.2,7.7,8.3,15.4,12.5,23.2c-17.5,19.6-70.7,26.3-90.7,11.3c-1.9-1.4-4.6-3.9-4.4-5.6
		c0.7-4.5,5.1-4.9,8.8-6.1C641.6,519.3,666.1,511.7,690.7,504.1z"/>
	<path class="st15" d="M102.2,305.8c2.2-14.8,11.6-17.3,18.1-21.6c38.8-25.5,77.9-50.4,122-66.3c15.5-5.6,21.5-1,23.4,14.4
		c1.2,9.5,4.4,18.8,6.7,28.2c0.9,3.8,2.1,8.4-1.8,10.6c-2.1,1.1-7,0.1-8.8-1.8c-29.2-31.3-57.6-8-85.2,2.2
		C152.2,280.6,128.9,293.3,102.2,305.8z"/>
	<path class="st48" d="M237.4,331.6c15.9-5.2,31.8-10.4,47.7-15.7c4.9-1.6,10.4-4.9,13.5,1.8c3.2,6.8-2.9,9.2-7.5,11.1
		c-42.4,17.8-81.4,43.1-126.1,55.6c-10.2,2.8-19.9,3-34-0.2c28-19.5,56.4-29,84.1-39.8C220.4,336.6,227.7,332,237.4,331.6z"/>
	<path class="st49" d="M237.4,331.6c-6.2,6.4-13.7,10.7-22.4,12.9c-13-0.2-24.6-3.1-29.3-17.3c-3.7-10.9,1.9-19.3,9.4-25.5
		c9.3-7.6,20.2-11.7,32.3-4.9C242.1,305.1,242.9,317.4,237.4,331.6z"/>
	<path class="st50" d="M435.3,595.8c-28.7-21.3-40.3-52.6-54.8-81.8c-5.5-11.1,1.1-18.3,10.5-23.4c5.6-3,11-2.4,11,5
		c-0.1,36.5,17.1,66.7,34.3,97C436.5,592.9,436,593.7,435.3,595.8z"/>
	<path class="st50" d="M190,596.5c9.4,10.2,20.1,14.5,33.5,13.1c10.8-1.1,15.3,5,14.9,15.3c0,1.3,0.3,2.7,0,3.9
		c-2.2,8.7,10.6,20.7-2.8,25.8c-12,4.6-18-8.7-23.9-16C201.9,626.4,191.2,614,190,596.5z"/>
	<path class="st21" d="M362.2,345c-10.5-6.3-19.5-14.2-27.4-23.4c0.5-0.5,1-1.1,1.5-1.6c17.3-1.7,23.8,9.1,27.3,23.5
		C363.1,343.9,362.7,344.5,362.2,345z"/>
	<path class="st1" d="M698.5,504.7c-3.9-6.5-7.5-13.2-11.7-19.5c-4-6.1-0.1-7.8,4.5-9.4c12.5-3.3,25.4-5.4,37.3-10.1
		c16.2-6.3,24.9-2.2,32.3,13.7c16,34,34.3,67,59.5,95.4c6,6.7,12.8,12.7,19.2,19.1c-14.6,7.6-30.4,4.8-45,2.7
		c-13.5-2-26.8-2.2-40.2-3c-1.9-9.9,7-7.3,11.3-9.4c9.6-4.5,20.3-6.7,30.8-17.4c-14.8,4.9-26.5,7.9-37.4,12.8
		c-10.8,4.8-16.9,1.1-21.9-8.1c-7.4-13.5-18.7-24.7-22.9-40c4.2-11.1,15.4-10.4,23.9-14.4c7.5-3.6,20.9-3.8,17.9-16.1
		c-3.3-13.2-14.7-8.6-24.4-6.4C720.4,497,710.2,503.5,698.5,504.7z"/>
	<path class="st51" d="M723.2,303.8c6.8,19.9,12.5,40.3,23.8,58.4c7.6,12.2,16.5,22.9,30.5,28.2c0,0-0.4,0.4-0.4,0.4
		c-15.4,27.2-49.7,36-71.8,18.3c-21.1-16.9-20.7-26.8,1.9-41.6c7.1-8.5,28.8-6.6,19.8-26.5c-9.6-21.3-23-2.2-34.5-2
		c-6.8,0.1-13.1,5.3-20.5,4.5c-9.3-5.4-7.1-11.4-0.1-16.4c5.2-3.7,11.4-5.7,16.8-6.9c-3.2-0.4-6.8,2-10.5,3.5
		c-12.7,5.4-18.3,0.1-18.8-12.5c-0.5-15.3-3.3-31.4,11.7-42.5c3.4-4.3,8.1-2.9,12.6-2.8c-1.6,3.6-3.5,9.1,1.6,9.6
		c19.1,1.6,24,17.4,32.2,30.1C722.2,313.2,722.1,306.8,723.2,303.8z"/>
	<path class="st52" d="M707.3,367.5c-3.5,9-22.3,11.9-9.7,27.5c12.7,15.8,29.5,23.5,45.3,16.6c12.3-5.4,24.7-10.9,34.3-20.9
		c5.7,0.3,6.7,2.9,3.2,7.1c-15,18.1-32.5,30.9-57.9,28.3c-23.2-2.4-33.4-19.8-44.5-36.5c-3.7-5.6-1.3-9.9,4.4-12.3
		C690.7,374.1,697.6,367.3,707.3,367.5z"/>
	<path class="st53" d="M671,268.8c-1.8,3.4-4.4,6.6-5.3,10.2c-3.4,14-5.7,30,1.4,41.5c3.6,5.9,18-5.2,28.1-6.4
		c3.1-0.3,6-2.3,9.6,0.3c-5.1,10.2-16.1,9.3-24.5,12.5c-8.7,3.4-14.3,6.6-8.3,16.5c-3.3,1.6-6.7,5.1-10.5,2
		C644.8,331.5,651.2,280.5,671,268.8z"/>
	<path class="st3" d="M715.3,337.2c3.2,0,5.4,2.3,6.5,5.5c1.7,5-0.2,8.8-4.8,11.1c-9.7,4.9-19.5,9.4-29,14.5
		c-6.4,3.5-9.5,0.4-12-4.9c-2.1-4.7-5.5-10.8,0.8-13.4C689,344.9,702,341.5,715.3,337.2z"/>
	<path class="st54" d="M363.5,343.4c-7.6-9.5-15-19.4-27.3-23.5c-21.4-29.2-25.1-64.2-32.6-97.9c-1.4-6.5,1.2-9.7,5.7-12.8
		c17-11.5,43.5-7.5,55,9.5c9,13.3,18.1,26.8,21.5,43c-15.3,12-18.1-3.3-24.4-11.1c-1.2-2.4-2-4.9-2.7-7.5c-3.5-9-7.3-17.6-19.6-11.5
		c-10.9,2.9-14.3,10.3-12.1,20.8c1.9,8.9,3.6,17.9,8,26c1.4,2.3,2.7,4.6,3.8,7c8.4,16.7,18.4,32,35.9,40.4c2.8,3.2,5,4,5.1-1.7
		c2.3-11.8,3.4-23.4-1-34.9c-1.9-9.3-9.4-20.5,7.6-23.7c4.7,14.6,10,29,13.9,43.8c2.5,9.5,6.8,20.7-3.2,28.5
		C387.4,345.4,376.2,350.4,363.5,343.4z"/>
	<path class="st11" d="M412,326.6c-8.2-25.7-15.9-49.4-23.2-73.2c-4.2-13.8-11.7-25.9-19.5-37.8c-2.6-4-8.6-8.1-2.5-13.2
		c6.9-5.7,8.5,2.5,11.4,5.8c20.5,23.5,24.2,53.6,31.5,82.1C412.6,301.2,417,312.5,412,326.6z"/>
	<path class="st55" d="M363.4,249.9c7.9,3.2,9.2,18.8,22.4,12c0.5,1.2,0.7,2.5,0.6,3.8c-12.7,6-4.3,15.3-3.6,23.3
		c5.7,13-2.5,25.9-0.2,38.9c-0.8,3,2.2,8.4-2.8,8.7c-4.3,0.3-4.3-4.9-4.9-8.4c-7.2-6.3-12.9-12-10.4-24c1.6-8-2.8-17.6-10.9-23.3
		c-1.3-1.2-2.3-2.5-3.1-4.1c3.4-8.3-1.5-16.3-1-24.6c0.7-1.7,2-2.8,3.8-3.2c2.6,0.4,4.7,1.6,6.2,3.8c1,1.5,1.2,3.4,2.7,4.5
		c-0.4-1.8-1.3-3.5-0.7-5.5C362.3,251.1,362.8,250.5,363.4,249.9z"/>
	<path class="st50" d="M320.7,539.7c-2.8,11.7,4.9,22.5,3.5,34.3c-0.4,3.6,1.4,8.5-3.6,10c-4.4,1.3-7.4-2.5-9.4-5.5
		c-8.7-12.7-13.7-26.3-7.3-41.6c2.8-6.6,6.9-14.6,15.1-12.3C327.8,527.1,318.6,534.5,320.7,539.7z"/>
	<path class="st15" d="M698.5,504.7c12.8-13.9,31.5-14,47.7-19.1c11.3-3.5,13.7,9.9,17.9,16.9c4.3,7.2-3.5,10-8.6,12.2
		c-13.5,5.9-27.3,11.2-41,16.7C706.9,523.9,703.1,514.1,698.5,504.7z"/>
	<path class="st56" d="M212.8,335.8c-14.8,0.3-20-6.9-19.7-15.7c0.5-13.8,12.5-17.8,23.4-18.3c8.7-0.4,17.1,7,16.2,15.8
		C231.3,330.1,220.8,335,212.8,335.8z"/>
	<path class="st57" d="M732.5,406.3c-13.7,0.3-24.6-6.3-24.1-18c0.6-13.2,15-18,25.8-23.7c2.3-1.2,26.6,25.5,25.1,27.7
		C752.6,401.7,743.7,407.3,732.5,406.3z"/>
	<path class="st58" d="M351.7,277.6c10.3-1.5,13.4,5.3,15.2,13.4c2.7,12.4,5.3,24.7,8,37.1c-23.1-4.9-32.5-22.3-38.8-42.5
		c9.1-5.6,8.7,2.3,10.3,7.3c0.3,2.6,3.6-1.6,1.3-0.2C344.4,286.4,343.7,280.8,351.7,277.6z"/>
	<path class="st59" d="M332,281.3c-7.9-9.3-8.5-21.3-10.9-32.3c-2.9-13.4,5.6-20.9,18.7-18.6c0.6,0.7,1.2,1.5,1.8,2.2
		c1,2.8,0.8,5.6-0.1,8.4c-5.1,9.2-2.8,18.5-1.3,28.1C341.1,274.4,346.1,285.1,332,281.3z"/>
	<path class="st60" d="M332,281.3c11.9-3.8,3.7-12.3,2.4-16.9c-2.9-10.2-2.4-18.6,4.8-26.4c3.5-1.5,5,0.6,6.1,3.4
		c-0.4,12.3-2.3,24.9,6.1,35.7c0,0,0.3,0.5,0.3,0.5c-7.9,8.7-0.6,16.1,3.5,24.1c-12.7,0.3-8-16.6-19.1-16.1
		C334.7,284.1,333.3,282.7,332,281.3z"/>
	<path class="st61" d="M339.8,230.3c9.4-10.7,16.1-7,23.6,12.8C352.2,244.9,345.9,237.9,339.8,230.3L339.8,230.3z"/>
	<path class="st62" d="M339.8,230.4c7.8,4.2,15.7,8.5,23.5,12.7c0,2.3,0.1,4.5,0.1,6.8c0,0-0.1,0.1-0.1,0.1c-3.9,3-7.8-3.7-11.7,0
		l-0.2,0.1c-6.2,0.7-9.4-1.3-7.7-8c-1.5-1.4-3-2.7-4.5-4.1C339.4,235.4,339.6,232.9,339.8,230.4z"/>
	<path class="st63" d="M382.6,327.8c-9.9-13,4.1-25.9,0.2-38.9C389.9,301.9,388.2,314.9,382.6,327.8z"/>
	<path class="st64" d="M343.8,242c2.6,2.7,5.1,5.4,7.7,8c-0.6,9,14.1,18.1-0.1,27.1C331.5,269.2,339.4,255.2,343.8,242z"/>
	<path class="st65" d="M379.7,303.4c-11.4-8.8-6.6-19.3-10.5-27.4C377.8,282.7,377.5,291.9,379.7,303.4z"/>
	<path class="st66" d="M351.6,249.9c3.9-12.4,7.8,1.8,11.7,0c-1,5.7,6,10.1,2.6,16.4C358.7,262.9,359.9,252.2,351.6,249.9z"/>
</g>
</svg>
