<?xml version="1.0" encoding="utf-8"?>
<!-- Generator: Adobe Illustrator 23.0.1, SVG Export Plug-In . SVG Version: 6.00 Build 0)  -->
<svg version="1.1" id="Layer_4" xmlns="http://www.w3.org/2000/svg" xmlns:xlink="http://www.w3.org/1999/xlink" x="0px" y="0px"
	 viewBox="0 0 1000 1000" style="enable-background:new 0 0 1000 1000;" xml:space="preserve">
<style type="text/css">
	.st0{fill:#48AE15;}
	.st1{fill:#26590D;}
	.st2{fill:#FDFDFD;}
	.st3{fill:#265A0D;}
	.st4{fill:#FC0000;}
	.st5{fill:#808080;}
	.st6{fill:#7F0000;}
	.st7{fill:#FCFCFC;}
	.st8{fill:#9AFC69;}
	.st9{fill:#183C07;}
	.st10{fill:#C3FCFC;}
	.st11{fill:#99FB67;}
	.st12{fill:#8EF05D;}
	.st13{fill:#7D0000;}
	.st14{fill:#90F25E;}
	.st15{fill:#FAFAFA;}
	.st16{fill:#F8F8F8;}
	.st17{fill:#95F763;}
	.st18{fill:#150000;}
	.st19{fill:#7F7F7F;}
	.st20{fill:#46AA14;}
	.st21{fill:#F6F6F6;}
	.st22{fill:#7E7E7E;}
	.st23{fill:#7C7C7C;}
	.st24{fill:#818181;}
	.st25{fill:#7A7A7A;}
	.st26{fill:#C9C9C9;}
	.st27{fill:#204C0B;}
	.st28{fill:#7BDB4B;}
	.st29{fill:#232D1F;}
	.st30{fill:#23520B;}
	.st31{fill:#8BED59;}
	.st32{fill:#153107;}
	.st33{fill:#122C06;}
	.st34{fill:#0B1A03;}
	.st35{fill:#0A1903;}
	.st36{fill:#C0FEFE;}
	.st37{fill:#141518;}
	.st38{fill:#D0D0D0;}
	.st39{fill:#003D7B;}
</style>
<g>
	<path d="M507.8,896.1c-16.5,27.7-32.1,31.1-59.8,21.1c-13.7-5-15.7-20.8-7.3-44.1c-14.8,4.7-28.6-0.8-40.6-7.4
		c-12-6.6-21-18.8-16.8-33.8c5.3-19.4,22.4-30.8,39.7-29.9c20.1,1.1,22.8-18.1,36.8-22.7c2.9-0.9,1.9-8.5,0.1-12.7
		c-5.7-12.8-17.1-20.7-26.4-30.3c-4.9-5.1-7.4,1.5-11.1,3.3c-23.2,11.4-42.8,28.6-66.3,39.6c-36.1,16.9-71.1,6.8-87.8-29
		c-5.7-12.2-14.5-17.4-25.6-21.4c-45.9-16.3-73.5-48.7-84.2-95.8c-2.7-11.7-4.6-23.6-5.9-35.5c-0.9-7.9-3.8-12.2-12-11.5
		c-31,2.5-41.1-8.8-32.7-39.2c3-10.7-1.2-14.2-9.2-16.8c-17.4-5.6-30.4-16-27.8-35.5c2.7-20.5,18.5-27.3,36.7-26.4
		c0.7-9.6-7.7-15.9-4.8-26.1c8.3-28.9,30.7-34.6,58-13.6c4.6,3.5,8.3,8.3,12.5,12.3c6.5,6.1,11.3,16.7,23.2,8.7
		c1.1-0.8,4.2-0.1,5.4,1c10.2,9.6,20.3,7.7,32.8,3.4c8.9-3,20.7-4.4,24.8,12.6c2.5,10.5,19.9,5.1,28.2,11.4
		c10.6,8.1,16.9,5,25.5-3.4c12.6-12.3,29.6-17.5,46.8-17c13.7,0.4,16.1-4.7,15.3-16.5c-1.5-23.8,2.6-47.1,5.6-70.7
		c4.3-34.2,27.7-47.4,55.2-57.8c11.7-4.4,23.7-8.2,35.3-12.8c22.3-8.9,29.8-33.7,24.2-64.2c-6-32.9-24.3-58.8-42.5-84.9
		c-7.6-10.9-10.2-20.4-0.8-30.3c9.3-9.7,20.1-15.7,33.9-7.4c3.7,2.2,8.4,3,12.1,5.2c24.7,14.7,24.6,14.8,40.9-9.9
		c0.4-0.5,0.6-1.1,1-1.6c8.7-10.4,14.9-27.8,31.2-23.5c18,4.8,25.8,20.7,26.4,39.9c0.5,15.6,6.6,31.8,23.1,31.8
		c10.5,0,23.2,0.9,33.6-3.7c12.5-5.5,24.5-3.7,30.9,6.2c7.6,11.7-2,22.2-11,29.4c-28.4,22.6-53.9,47.6-74.3,77.9
		c-7.5,11.1-13.9,22.6-18.7,34.8C567.7,334.7,545,358,505,359.1c-6.3,0.2-11.5,2.8-15.9,5.7c-28.4,18.5-35.2,26.5-13.9,58.1
		c18.9,28,47.2,43.6,74.3,61.1c3.2,2,7.2,3.5,9.1,6.5c16.6,25.3,39.7,18.3,61.8,11.9c12-3.5,22.9-13.6,23.4-25.6
		c1.5-38.1,27.3-53.7,56.9-65.4c59.8-23.6,116.8-52.3,169.9-88.7c0.5-0.4,0.9-1,1.5-1.2c11.9-4.2,24.1-17.4,36.2-4.1
		c11.4,12.5,7.8,27.5-2.4,39.9c-8.6,10.5-10.8,18.3,4.5,24.2c5.1,2,9.6,6.1,13.9,9.8c14.7,12.6,13.3,25.1-3.7,34.6
		c-9.4,5.2-18.6,11-28.4,15.1c-12.5,5.2-12.8,12-3.6,19.9c8.9,7.7,15.1,17.4,21.2,27c5.6,8.9,8.5,20.3,0.8,28.5
		c-6.9,7.4-17,9-28.2,5.3c-35-11.5-68.7-27.1-104.9-35.2c-11.1-2.5-22.4-4.2-33.6-5.9c-16.7-2.6-28,0.6-33.7,20.2
		c-7.3,25.2-21.7,47.8-34.3,71c-10,18.4-26.2,23.9-44.9,25.9c-26.7,2.8-53.4,5.3-80,7.9c-3.7,0.4-6.8-0.3-8.3,5.4
		c-6.2,23.5-19.5,44.6-23.9,69c-1,5.4-0.9,10.2,1.3,13.5c17.6,26.4,14.3,57.2,18.6,86.3c1.6,11.3-0.3,23.2,9.3,32
		c2.7,2.5,4.1,6.4,2.5,8.7c-13.5,19.3,4.4,28.7,12.3,41.6c7,11.5,16.3,23.6,7,37.8c-8.1,12.5-19.5,20.3-35.5,18.2
		C522,916.4,514.4,908.5,507.8,896.1z"/>
	<path class="st0" d="M308.6,513.6c-8.9,5.6-6.9,15.9-10.2,24.9c-24.2-10.1-48.5-18.4-78.1-14.2c6.4-7,11.3-10.8,17.5-7.5
		c14.8,7.8,19.6-1.4,23.7-12.7c8-8.5,19,2.2,27.4-4.3c7.2,3.7,12.7,10.2,21.9,0.4c25.7-27.5,59.1-31.9,94.6-28.1
		c6.9,0.7,14,0.1,21.7,0.1c-3.9-5.4-9.2-7.1-14-7.2c-21.4-0.4-24.7-12.2-21.9-30.4c3.3-21.7,5-43.7,7.3-65.6
		c1.5-14.1,8.9-23.6,21.2-30.5c12.5-7.1,25.6-12.7,39.1-17c64.7-20.5,57.6-46,51-92.2c-1.3-8.9-3.8-17.7-5.7-26.5
		c-1.2-22.6-8-44.2-11.9-66.4c17.1,9.3,34.2,18.1,51.1-0.2c0.7,21.5-6,42.7-1.7,59.3c-1.9-22.4,11.3-47.4,12.3-74.3
		c1.9-4,3.4-8.3,5.9-11.9c2.3-3.6,4.6-8.5,10.3-7.1c5.2,1.3,6.2,6.3,7.4,10.5c3.2,11.1,5.2,22.7,9,33.5
		c8.1,22.9,21.7,29.9,45.2,24.8c10.7-2.3,21.4-4.5,32-6.7c0.6,9.4-6.4,13.2-12.8,17.5c-39.3,26.8-72.4,59.1-92.8,103
		c-11.3,24.3-29.1,41.1-55.5,48.3c-21.1,5.7-39.4,16.7-55.6,31.3c-14.6,13.1-19.2,28.7-13.4,47.5c6.8,22.4,22,38.1,41.2,50.1
		c8.2,5.2,16.7,10,25.5,14.2c21.2,8.7,40.9,19.5,54.8,38.5c5.3,7.3,12.9,10.3,22.2,9.5c9.7-0.8,19.5-0.4,29.1-1.5
		c37.2-4.4,49.3-13.2,56-49.8c5-27.4,22.1-37.2,45.4-42.8c21.7-2.1,41.7-10.5,62.4-16.7c8.4-2.5,16.4-7.8,25.9-4.9
		c3.5,4.5,7.6,5.7,13.5,4.2c16.7-4.3,34.1-6.3,49.3-13.8c-18.3,5.8-36.9,13.3-57.2,12.7c-3.1-12.6,8.5-12.7,14.8-16
		c20.8-10.9,41.8-21.2,57.8-40.5c-18.6,8.2-33.2,21.7-51,29.5c-7.4,3.2-14.9,9.4-23.2,1.8c32.1-19.3,64.1-38.6,96.5-58.1
		c5.6,11.8-2.2,17.6-6.7,24.2c-13.6,20-11.9,27.1,8.8,40.4c6.5,4.2,17.2,5.3,15.6,17.2c-18.7,7.2-36.4,15.7-52.8,28
		c-15.3,11.4-35.4,11.7-54.3,12.6c-11.9,0-23.7,0-35.6,0.1c-4.5,0.3-9.1-0.1-13.7,0c-37.3,0.2-68.5,9.1-76.8,52.3
		c-1.2,6.3-4.9,12-7.7,17.9c-18.3,37.4-37.4,47.2-78.6,40.5c-16.1-2.6-32.1-6.5-47.1-12.4c-26.5-10.4-50.4-7.5-74.3,7.3
		c-23.7,14.6-50.4,20.6-77.6,24.5c-7.3,1-14.2,1.4-20.9-1.9c-16.7-18.7-36-32.8-62.7-33.8c15.3-2,30-3.4,42.9-11.7
		c8.2-5.2,14.1-11.5,9-22.1c11-14.2,29.9-10.4,45.4-20.2c-28-7.5-52.7-5.5-75.5,10.9C326.9,509.4,317.8,511.6,308.6,513.6z"/>
	<path class="st1" d="M808.4,445.8c23.9-1.8,47.1-5.1,66.1-22.1c11-9.8,25.3-11.9,39.4-13.6c-7.1,8.2-17.8,10-26.7,15.1
		c-25.1,14.4-27.5,27.2-8.7,49.1c7.5,8.7,15.1,17.3,18.4,30.5c-15.4,0.5-27.6-5.8-39.8-10.6c-40.5-16-81.6-28.9-125.6-31
		c-16.7-0.8-29.6,1-34.8,21c-6.5,25.1-19,48.2-31.4,71c-6.9,12.7-15.1,24.8-32.6,23c-29.1,0-58.3,0.4-86.2-9.9
		c-8.7-3.3-13.3,0.8-17.5,7.4c-4.1,6.3-5.1,15.1-13.6,18.1c-1.6-1.1-3.5-2-4.7-3.4c-26-31.2-51.7-26.9-65.9,11
		c-19.4,5.7-38.9,5.4-58.4,0.2c-4-7.6-8.1-15.1-12.1-22.7c28.7-4.9,59.2-5.6,83.9-21.8c34.9-22.9,69.7-24.5,106.6-8.6
		c22.9,9.8,46.4,8.7,70.4,6.3c12.1-1.2,18.4-9.5,23.5-18.3c6.8-11.7,12.5-24.2,17.4-36.9c20.5-53.2,26.4-46.5,76.1-53.7
		c5.7-0.8,11.7-0.1,17.5-0.1c17.5,6.5,36.3,1.7,56,7.1C819.3,448.6,810.5,456.2,808.4,445.8z"/>
	<path class="st2" d="M375.8,614c0.3,37.2-28.1,62.2-63.7,58c-37.8-4.6-66.8-34.7-69.6-72.3c-0.6-7.4,0.7-15.1,5.7-20.1
		c19.5-19.5,42.7-28,70.6-21.2c25.3,6.1,45.5,18.4,54.8,44C375.2,606.5,375.3,611.2,375.8,614z"/>
	<path class="st3" d="M500.2,476.2c-30.2-1-70.9-39.4-74.2-74.8c-2.9-31.3,20.3-44.3,41-58.3c10-6.8,22-11.4,33.8-14.4
		c26.1-6.7,42.5-23.4,53.4-46.9c20.8-44.9,54.9-77.8,95.5-104.7c5.4-3.6,11.6-6,13.9-12.8c7.1,11-2.4,16.9-8.6,20.8
		c-40.4,25.6-66.7,63.1-87,104.8c-13.9,28.5-29.6,49.9-65.4,51.8c-22.8,1.2-40.6,17.9-53.2,36.2c-11.4,16.5-2.2,33.7,7.2,48.8
		C468.4,445.6,486,459.5,500.2,476.2z"/>
	<path class="st2" d="M89.6,504.2c-3.6-19.5,10.3-18.3,22.2-18.1c7.1,0.1,15,3.6,19.5-3.8c4-6.6-2.1-12-5.4-17.4
		c-5.8-9.3-10.9-20-1.1-28.1c9.9-8.2,17.3,1.8,24.7,8.1c17.5,14.8,28.8,30.9,17.4,55c-2.6,5.5-1.5,12.7-2.1,19.1
		c0.3,19.7-16.2,43.4-35.9,51.5c-10.6-0.3-8.7-7.6-6.9-13.6c1.8-6.1,5-11.7,7.5-17.5c2.8-14.1-6-21.2-16.8-26.1
		C105.2,509.9,96.9,508.2,89.6,504.2z"/>
	<path class="st3" d="M226.5,652.5c16.3-1,29.5,1.8,44,13c44.5,34.5,100.6,17.2,112.9-32.3c14.4,2.8,17.7,11.9,11.1,30.8
		c-7.9,5.6-14.9,12.1-20,20.5c-17.3,28.5-67.8,45.6-101.4,34.6c8.6-6.8,7.1-13.8,1-21.4c-9.8-12.3-23-20.4-35-30.1
		C234.1,663.4,225.7,661.7,226.5,652.5z"/>
	<path class="st4" d="M367.1,710.9c15.7-20.2,30.6-39.6,57.8-47.8c23.6-7.1,28.4-31,32.1-53.3c4-24.3,12.3-30.1,30.5-23
		c11.4,20.5,0.7,39.1-4.9,58.2c-8.6,25.4-23.6,43.5-51.9,48.8c-12.1,2.2-20.2,13.4-30.8,19.4c-7.3,4.1-14.4,8.7-23.1,9.4
		C370.3,721.4,362.9,721,367.1,710.9z"/>
	<path class="st5" d="M465.6,855.5c-9.6-6.3-19-0.4-28.2,1c-10,1.5-19,2.2-27.3-4.3c11-14.5,27.5-16.9,43.7-20.2
		c22.5,10.1,44.6,18.2,70.6,12.3c13.7-3.1,36.2,37.3,28.7,49.8c-6,10-14.9,12.7-24.1,3.9c-3.6-3.4-5.4-8.7-8.3-13
		c-9.6-14.5-15.7-14.3-25.2,0.7c-2.1,3.3-3.4,7-5.5,10.3c-8.7,13.4-18.9,19.4-32.7,6.3c1.5-4.2,3.5-8.1,6.6-11.3
		C474.3,879.6,475.3,867.9,465.6,855.5z"/>
	<path class="st6" d="M477.2,645.2c7.6-18.7,11.9-38,10.3-58.3c21.6,11.4,26.3,31,24.2,52.9c-2.3,23.6-9.9,49.3-33.7,54.8
		c-30.3,7-53.2,25.2-79.4,38.3c-10,5-20.5,7.8-31.8,4.4c-0.4-0.1-0.7-1-0.6-1.6c0-0.6,0.5-1.2,0.7-1.8
		c24.5-16.9,47.2-36.9,76.6-45.5C464.2,682.3,475.4,667.9,477.2,645.2z"/>
	<path class="st7" d="M250.3,561.9c-11,9.7-17.8,21.3-16.1,36.5c0.7,6,0.6,10.7-7.5,6.9c-11.6-0.5-22,0.2-19,16.5
		c8.9,4.8,18.1,8.6,28.6,7.5c6.4-0.6,7.8,4.6,8.1,8.6c0.5,6.2-5.3,3.9-8.4,4.1c-33.9,1.6-69-30.2-71-64
		c-1.3-22.4,17.7-37.3,50.3-39.3c3.5-2.3,7.5-1.5,11.3-1.4c2.1,0.1,3.5,1.2,4.2,5c-8,8.1-20.2,5.1-30,9c-9.7,3.8-18.3,8.5-23.6,21.1
		c18.6-14.1,37.1-20.2,57.9-18.6C240.8,554.3,248.5,552.8,250.3,561.9z"/>
	<path class="st8" d="M797.6,410.7c-27.6,8.2-55.3,16.6-83,24.7c-3.9,1.1-12,6.4-7-5.2c30.7-14.6,61.4-29.2,92.2-43.8
		c26.9-3.1,45.5-22.8,68.2-34.2c5.5-2.7,10-7.7,19.7-7.8c-21.1,35.6-56.7,47.4-87.5,65.4C799.3,410.2,798.5,410.4,797.6,410.7z"/>
	<path class="st9" d="M394.5,664c-1.4-11.1,1.2-23.7-11.1-30.8c4.7-10.1,3.1-20.9,3.3-31.6c19.4-2.9,38.9-2.7,58.4-0.2
		c1.9,12.4-2.2,16.2-14.7,12.3c-5.1-1.6-10.5-5.7-16.7-2.9c0.1,1.2-0.2,3,0.3,3.3c9.7,4.8,23.7,8.6,22.3,20.8
		c-1.5,13.3-14.2,20.7-26.9,25C404.5,661.5,399.5,662.6,394.5,664z"/>
	<path class="st1" d="M449.6,730.2c-3.9-1.2-8.1-4-6.5-7.8c3.2-7.5,10.8-7.5,17.8-7.6c33.3-1.1,49.7,12.3,54.9,44.1
		c1.2,7.5,0.3,15.3,3.7,22.4c0,6.8,2.2,14.9-6.5,18.2c-11,4.1-17.5-4.6-24.9-10.1c-5.4-22-7.2-46-31.6-57.6
		C454.2,730.6,452.3,729.1,449.6,730.2z"/>
	<path class="st0" d="M226.5,652.5c14.7,11.4,29.4,22.6,44,34.1c5.6,4.4,9.6,10.2,13.2,16.4c7.4,12.9,3,17.2-10.5,16.1
		c-20.5-2.9-39.7-9-55.1-23.8c13.9-2.9,17.3-8.2,5.1-18.6c-8.3-7.1-15.4-15.5-23.7-22.6c-4.1-3.5-10.5-6.1-7.9-13.7
		C203.2,644.4,214.8,648.4,226.5,652.5z"/>
	<path class="st10" d="M250.3,561.9c-29.8-8.9-55.1-1.4-76.3,21.2c-4.3-26.4,11-38.4,52.4-41c-2.7-5.2-7.8-1.6-11.3-3.4
		c22.9-8.5,44.4-1.1,68.3,6C271.3,551,260.8,556.5,250.3,561.9z"/>
	<path class="st9" d="M515.6,593.8c2.4-6,4.5-12,7.2-17.9c5.5-12,13.3-17.9,27.3-12c19.8,8.5,41.4,7.7,62.3,10.1
		c7,0.8,14.2,0.2,20.5,4.1c-26.1,6.8-53.1,7.8-79.7,11.5c-12.7,1.8-8.6-10.1-12.5-17.8c-9.1,13.5-8.9,29.3-16.2,43.3
		C518.3,608.7,517.5,601,515.6,593.8z"/>
	<path class="st11" d="M331.9,501.1c13.8-19.7,35.5-17.3,55.4-19.1c5-0.5,10.2,1.2,15.3,2.3c5.7,1.3,15.5-2.4,15.6,6.4
		c0.1,6.6-9.3,7.6-15.4,9.4c-13,3.8-26.1,7.5-39.1,11.3c-2.5-1.4-4.9-2.8-7.4-4.1C348,506,338.8,508.1,331.9,501.1z"/>
	<path class="st12" d="M191.5,640.4c12.5,12,25.4,23.7,37.5,36.1c5.2,5.3,14.3,10.9,9.9,19.2c-5.4,10-13.7-1.5-20.9-0.3
		c-18.2-12.8-30.1-30.3-38-50.8C180.8,634.4,186.7,638.8,191.5,640.4L191.5,640.4z"/>
	<path class="st13" d="M348,745.6c-9.9,12.3-21.7,18.2-34.8,21.5c-12.1,3.1-32.7-15.6-31.1-27.6c0.8-5.9,5.5-4.9,8.8-4.1
		C308.9,739.7,328,737.2,348,745.6z"/>
	<path class="st14" d="M492.2,136.5c14,20.3,18,42.5,11.9,66.4c-8-17.5-17.8-33.9-28.7-49.8c-4.7-6.9-14.7-15.5-6.9-23.2
		C475.9,122.7,484.6,132.3,492.2,136.5z"/>
	<path class="st15" d="M187.4,531.2c-8,3.2-10.1-2.3-11.7-8.2c-4.7-18.3,0.8-35,13.1-47.7c9.8-10.2,17.1-4,18.5,9.1
		C206.3,502.3,203.9,519.8,187.4,531.2z"/>
	<path class="st16" d="M453.7,832c-12.6,11-29.1,13.5-43.7,20.2c-13.8-9.1-10.8-19.4-0.9-28.5C422.6,811.5,444.2,816,453.7,832z"/>
	<path class="st9" d="M519.5,781.3c-4.5-2.9-3.6-7.9-4.5-12.1c-6.2-30-19.2-53-54.1-54.3c10.8-5.4,23.5-5.8,33.9-12.7
		c8.1-5.3,10.1,2.7,12.3,7.5C517.5,732.3,520.7,756.4,519.5,781.3z"/>
	<path class="st16" d="M480.2,832.4c-5.8-2.6-12.7-4.1-17.3-8.1c-8.2-7.1-10.2-17.5-4.1-26.3c6.5-9.3,15.2-3.6,22.2,1
		c6.5,4.2,12.3,9.4,18.4,14.1C502.9,829.1,500.1,831.9,480.2,832.4z"/>
	<path class="st17" d="M553.9,121.3c8.7-3.9,11.2,0.5,7.9,7.4c-12.6,26-12.3,55.2-21.1,83.6c-5-26.5-10.9-51.6,2.6-76
		C546.8,131.3,550.3,126.3,553.9,121.3z"/>
	<path class="st18" d="M477.2,645.2c3.7,16.2-5.3,39.1-22.4,42.7c-29.2,6.2-49.2,26.7-73.9,39.7c-4.5,2.4-9.3,4.3-14,6.4
		c-1.2-1.2-2.5-2.3-3.7-3.4c-0.6-11.5,11.4-6.6,15.6-11.9c24.6-11,43.9-31.2,72-36.9C466.5,678.4,471.3,659.6,477.2,645.2z"/>
	<path class="st19" d="M480.2,832.4c9.7-3.1,20.7-4.9,19.3-19.2c5.7-1,11.6-1.4,17.1-3c5.9-1.8,11.5-3.9,14.8,3.6
		c3.5,7.9,0.5,14.2-6.4,18.1C510.3,839.8,495.2,838.6,480.2,832.4z"/>
	<path class="st20" d="M449.6,730.2c11-5,19.4,2.6,24.6,8.8c11.8,14.1,19,30.9,14,50.3c-4.8-4.1-11-6.8-11.2-14.7
		C476.4,754.6,464.2,741.6,449.6,730.2z"/>
	<path class="st21" d="M465.6,855.5c19.8,13.1,16.8,29.7-8.4,46.7c-6.2-8-5.6-16-0.6-24.4C460.8,870.9,465.4,864.1,465.6,855.5z"/>
	<path class="st22" d="M350.8,507.9c-2.5,5.9-34.7,28.7-39.6,27.2c-11-3.2-2.2-10.2-2.4-15.5C319.5,503.9,333.9,501.4,350.8,507.9z"
		/>
	<path class="st13" d="M378.8,718.5c-5.2,4-10.4,7.9-15.6,11.9c-8.7,4.1-17.5,7.8-27.3,3.3c-3-1.4-5.9-3.3-5.8-6.7
		c0.2-4.3,4.1-4.2,7.1-4.4c11.3-0.5,20.1-7.5,29.9-11.8C366.6,720.1,373.2,718.6,378.8,718.5z"/>
	<path class="st23" d="M128.9,570.6c14.7-15.3,29.8-30.3,35.9-51.5C173.1,544.4,153.2,573,128.9,570.6z"/>
	<path class="st24" d="M236.6,502.4c-12.3-9.2-12.2-21.2-9.9-33.2c1.5-7.7,8.4-9.6,15.2-7.8c8.6,2.3,3.2,7.8,2.1,12.2
		C241.7,482.8,239.3,492,236.6,502.4z"/>
	<path class="st25" d="M89.6,504.2c36.1,3.8,42,8.3,41.6,32c0,1.1-1.1,2.2-1.7,3.3c-1.8-11.9-11.2-16-20.5-21
		C102,514.6,92.4,513.8,89.6,504.2z"/>
	<path class="st22" d="M187.4,531.2c11.2-13.7,11-32.2,19.9-46.8C216.1,507.5,208,526.5,187.4,531.2z"/>
	<path class="st26" d="M207.5,621.9c-0.6-6.8-9.9-5.4-11.4-13.2c9.9-3.5,18.6-13.3,30.4-3.4C226.5,618.1,218.8,622.1,207.5,621.9z"
		/>
	<path class="st27" d="M327.3,770.2c18.1-3.3,26.6-27.2,52-22.7C362.1,760.4,345.8,767.7,327.3,770.2z"/>
	<path class="st28" d="M288.8,499.9c-6.5,18.1-18.7,0.1-27.4,4.3C263.8,488.5,265.2,488.3,288.8,499.9z"/>
	<path class="st29" d="M350.8,507.9c-15.6-1.9-30.3-0.2-42.1,11.8c-0.1-2-0.1-4-0.2-6.1c4.8-9.7,15.4-8.7,23.3-12.6
		c8.9-0.9,17.1,0.7,24.4,6.1C354.5,507.4,352.7,507.7,350.8,507.9z"/>
	<path class="st0" d="M191.6,640.5c-4,0.8-9-1.2-11.5,4.1c-6.3-5.6-4.1-13.6-4.6-21.5C180.9,628.8,186.2,634.7,191.6,640.5z"/>
	<path class="st30" d="M219.9,499.5c5.9,2.1,11.4,4.2,8.6,10.7c-0.7,1.6-4.9,3.3-6.6,2.6C214.8,509.8,221.1,504.1,219.9,499.5z"/>
	<path class="st31" d="M407.7,359.7c1.6,31.1,1.6,61.5,12.8,90.7c3.9,10.3-2.8,11.4-10.3,9.3c-8.4-2.3-13.6-9.2-14-17.1
		C394.8,414.3,399.4,386.7,407.7,359.7z"/>
	<path class="st32" d="M797.6,410.7c0.8-0.3,1.7-0.6,2.6-0.8c25-1.8,47.1-16.1,75.6-18.2c-12.1,14.4-26.6,16.1-39.7,19.7
		c-11.1,3.1-22.8,4.1-34.3,5.9C795.8,418.2,795.3,415.2,797.6,410.7z"/>
	<path class="st33" d="M568.5,238.5c4.9-20.6,15-38.4,30.3-53.2C595.9,207,581.3,222.2,568.5,238.5z"/>
	<path class="st34" d="M808.4,445.8c5.2,6,13.7,0.6,23.2,8.3c-23.2-4-43.6,6-61.7-8.4C782.8,445.8,795.6,445.8,808.4,445.8z"/>
	<path class="st35" d="M533,227.1c-6.1-14.2-10-28.8-6.9-44.4C535.1,196.3,529.8,212.5,533,227.1z"/>
	<path class="st36" d="M341.2,662.8c9.4-48.1-10.6-73.8-68.4-90.5c20-18.6,60-10.5,84.3,17.2C376.1,611.2,371,637.9,341.2,662.8z"/>
	<path class="st37" d="M289.1,620.6c7.7,5.3,18,8,19.7,19.4c-1.1,1.4-2.9,1.6-4.3,2.4c1.7-0.3,3.1-1.2,4.2-2.6
		c8.3,9.4,3.2,14.3-6.4,13.6c-10.3-0.8-20.9-3.6-28.5-12.1C282.5,637,279.9,624.4,289.1,620.6z"/>
	<path class="st38" d="M289.1,620.6c-4.7,7.2,3.1,23.6-15.3,20.6c-3.1-7.5-8.6-15.7-1.6-22.7C276.9,614,284,615.2,289.1,620.6z"/>
	<path class="st39" d="M308.7,639.8c-0.6,7.7-4.3,10.7-11.3,6.4c-3.5-2.1-5.9-6.6-2.9-9.8c6.2-6.7,9,4.3,14.4,3.6
		C308.8,640,308.7,639.8,308.7,639.8z"/>
</g>
</svg>
