<?xml version="1.0" encoding="utf-8"?>
<!-- Generator: Adobe Illustrator 23.0.1, SVG Export Plug-In . SVG Version: 6.00 Build 0)  -->
<svg version="1.1" id="Layer_4" xmlns="http://www.w3.org/2000/svg" xmlns:xlink="http://www.w3.org/1999/xlink" x="0px" y="0px"
	 viewBox="0 0 1000 1000" style="enable-background:new 0 0 1000 1000;" xml:space="preserve">
<style type="text/css">
	.st0{fill:#007F00;}
	.st1{fill:#008501;}
	.st2{fill:#4D4D4D;}
	.st3{fill:#A7A7A7;}
	.st4{fill:#91B0C4;}
	.st5{fill:#FDFDFD;}
	.st6{fill:#2B5260;}
	.st7{fill:#284D5A;}
	.st8{fill:#00C301;}
	.st9{fill:#2B515F;}
	.st10{fill:#2D2D2D;}
	.st11{fill:#008000;}
	.st12{fill:#B2F5F4;}
	.st13{fill:#00C201;}
	.st14{fill:#90AEC2;}
	.st15{fill:#B2F4F3;}
	.st16{fill:#4C4C4C;}
	.st17{fill:#91B0C3;}
	.st18{fill:#B1F0F1;}
	.st19{fill:#C0C0C0;}
	.st20{fill:#7F7F7F;}
	.st21{fill:#00FB7F;}
	.st22{fill:#E6E6E6;}
	.st23{fill:#464646;}
	.st24{fill:#808080;}
	.st25{fill:#162C34;}
	.st26{fill:#C3C3C3;}
	.st27{fill:#050809;}
	.st28{fill:#00F67B;}
	.st29{fill:#2C2C2C;}
	.st30{fill:#B5B5B5;}
	.st31{fill:#627885;}
	.st32{fill:#00FC7D;}
	.st33{fill:#00F876;}
	.st34{fill:#00F774;}
	.st35{fill:#060606;}
	.st36{fill:#0F0F0F;}
	.st37{fill:#FC0101;}
	.st38{fill:#1D0E0E;}
	.st39{fill:#2A0F0F;}
	.st40{fill:#13191C;}
	.st41{fill:#50616C;}
	.st42{fill:#0D1214;}
	.st43{fill:#2F1919;}
	.st44{fill:#2A4F5D;}
	.st45{fill:#7D0000;}
	.st46{fill:#FED8D8;}
	.st47{fill:#FCA9A9;}
	.st48{fill:#E42626;}
</style>
<g>
	<path d="M809.1,218.9c-4.2,29.9-17,56.3-33.5,81c-3.9,5.9-10.7,9.6-17.8,13.4c-44.4,23.4-86.9,49.8-117.7,91
		c-1.2,1.6-2.4,3.2-3.9,4.3c-17.7,12.8-25.8,27.4-11.7,48.4c2.6,4,2.4,13.2-0.5,16.9c-12.5,16.1-7.7,29.9,0.5,46
		c10.9,21.4,1,41.4-12.9,57c-16.1,18.2-39,24.6-62.6,19.2c-8.2-1.9-9.5-0.4-11.9,5.4c-22.4,55.7-67,91.2-114.1,124.3
		c-5.2,3.6-8.5,6.1-9.2,12.8c-5.3,50.5-42.5,75.9-91.3,61.2c-18.6-5.6-37.2-12.9-50-29.2c-5.2-6.6-10.7-10.4-18.6-2.6
		c17.3,12.1,33.7,25.1,48.6,40c14.4,14.4,19.9,32.1,21.4,51.2c1.8,24.1-7.9,34.1-30.9,43.5c-55.8,22.7-143.6-19.5-172.7-58.7
		C95.5,810.5,82,774,74.3,734.2c-8.2-42.5,14.2-71.9,54.3-69.9c16.3,0.9,30.5,7.1,38,23.8c4.4,9.7,7.1,20.9,16.1,27.4
		c5,3.6,7.3,17.2,17.7,7.6c7.8-7.2,17.6-12.3,9.3-27.8c-17-31.7-24.3-64.9-11.4-101.6c8.1-23.1,23.8-32.4,44.5-34.5
		c12.1-1.2,17.3-5.4,22.9-15.4c28.1-49.8,74.2-77.5,125.3-98.1c9.4-3.8,9.7-5.3,8.3-15.5c-4.6-33.9,5.8-60.1,53.5-74.9
		c21.8-6.8,40.4,1.1,59.1,10.3c3.6,1.8,5.3,8.1,11.1,3.6c15.8-12.1,30.2-4.5,43.6,4.3c9.4,6.2,15.1,4.5,22.4-3.5
		c29.2-32.3,66.7-56.5,90.1-94.4c2-3.2,4.5-6.2,5.8-9.6c13.8-39.1,43.4-58.7,82.4-65.8c9.9-1.8,19.4-7,29.9-4.9l-0.5-0.5
		c3.9,5.6,7.8,11.1,11.7,16.7C810.9,213.9,811,216.3,809.1,218.9z"/>
	<path class="st0" d="M797.4,195.4c-8.6-33.3-0.9-63.1,22.7-87.2c17.7-17.9,43.9-17.9,66.4-4.6c23.3,13.7,37.4,45.9,30.8,66.5
		c-5.4,16.9-26.6,27.1-44,21.3c-2.4-0.8-4.9-1.4-7-2.8c-20.4-13.2-40.1-17-59,2.8c-2.6,2.7-6,5.1-10.4,3.4
		C796.9,194.9,797.4,195.4,797.4,195.4z"/>
	<path class="st0" d="M809.1,218.9c-0.2-2.4-0.4-4.9-0.5-7.3c38.2-17.2,78.7-3.4,91,28.9c6.9,18-3.2,27.4-14.3,35.3
		c-11.7,8.3-25.1,15-39.5,1.9c-10.8-9.8-16.8-22.1-23-34.6C818.7,234.7,813.7,226.9,809.1,218.9z"/>
	<path class="st1" d="M793,125.7c1.8,6.2-2.4,11.5-4.9,17.2c-3.3,7.4-8.7,14.3-10.2,22.1c-1.5,7.9-0.1,19.3-7.8,21.2
		c-7.9,2-13.5-8.8-18.4-14.9c-18.7-23.7-17.4-55.7,8.7-66.7C778.7,96.9,793,105.4,793,125.7z"/>
	<path class="st2" d="M242.7,738.2c9.3,4.8,10,8.8,1.2,16.4c-17.9,15.4-23,35-14,57.6c7.1-9.6,16.5-9.5,26.1-5.4
		c13.3,5.6,24.9,14,33.6,25.7c6.5,8.7,10.5,18.4,4.2,28.8c-6.2,10.3-16.5,11.5-27.3,10.3c-5.2-0.6-10-2.7-15.2-2.8
		C178.5,855.9,115.4,784.5,112,711c-0.1-3.2-0.4-6.5-0.9-9.7c-0.3-9.9,4.3-16.7,13-20.9c8.4-2.1,13.8,4,20.1,7.4
		c10.2,19.1,21.3,37.6,32,56.5c4.5,7.9,7,16.3,7.1,25.3c0.1,2.4,0.1,4.8,0.2,7.1c5.1,5.1,5.7,11.6,6.2,18.3
		c-2.4,13.5,5.6,19.9,16.8,24.2c-4.9-2.5-10-5-8.5-11.9c10.9-15.6,12-35.5,22.2-51.4C225.7,747.5,229.3,736.5,242.7,738.2z"/>
	<path class="st3" d="M429.3,594.4c18,13.9,37,26.1,57.8,35.4c7.2,3.2,13.3,6.5,5.1,15.1c-5.7,5.9-8.7,18-20.4,7.1
		c-6.6-6.2-13.8-11.7-20.9-17.4c-2.7-2.2-5.1-7.2-9.3-2.4c-3.5,4,0,6.9,2.5,9.9c7.5,9.1,17.7,15,30.5,24.6
		c-4.4,2.9-8.8,4.5-11.4,7.6c-13.2,15.9-25.9,16.1-39.6,0.6c-2.8-3.2-6.6-10.9-12-4.6c-4.8,5.7,2.9,8.6,6.1,11.9
		c4.9,5.1,10.2,9.8,15.2,14.6c-10.7,14.4-21.6,16.9-36.6,6.5c-18-12.5-37-23.5-52.7-39.1c8.3-8.2,17.7-15,27.7-20.9
		c6.5-0.3,10.6,4.4,15.1,7.9c6.3,4.9,11.8,3.6,17.4-1.3c5.6-4.9,7.9-9.8,2.6-16.6c-4-5.1-7.4-10.7-6.7-17.8c0.5-2.7,1.9-4.9,3.5-7
		c3.5-3.8,6.1-8.3,10.3-11.4C419,596.7,424.2,595.7,429.3,594.4z"/>
	<path class="st4" d="M496.2,398.5c-25.6,42.9-19.7,69.8,23.2,105.7c3.4,4.4,4.6,9.1,1.9,14.3c-9.9,4.3-15.4-3.3-20.9-8.7
		c-19.6-19.2-34.8-41.3-42.7-67.9c-2-7.8-2.6-15.8-3.4-23.8c1.4,8.8,1.2,18,4,26.6c10.6,30,27.4,55.4,53.6,74.2c3.3,2.3,6,5,6,9.4
		c-4.2,12.2-9.5,23-25.7,18.9c-28-21.2-45.9-49.9-59.9-81.6c3.9-7.5,0.2-15.1,0-22.7C431.3,404,458.4,385,496.2,398.5z"/>
	<path class="st5" d="M305,593.7c-14.2-75.5-0.1-88,77.7-126.2c-6.2,23.4-5,45.3,0.5,66.9c-2.1,17-20.4,16-28.8,26.1
		c-7.3,5-14.5,10.2-21.3,15.9C322.6,580.3,318.6,594.8,305,593.7z"/>
	<path class="st6" d="M492.2,547.1c12.6-1.4,18.1-11.1,24.3-20.2c2.9-2.7,5.8-0.5,8.8,0.1c-2.4-2.1-7.8-2-5.8-7.6
		c0-5.1-0.1-10.2-0.1-15.3c8.5,5.4,16.5,12,27.4,11.7c6.7,3.5,14.1,2.1,21,1.5c14-1.1,24.7,3.5,29.2,17c4.4,13.3,1.8,25.5-9.9,34.9
		c-4.1,3.3-8.5,5.9-12.7,8.9c-27.5,11.6-46.3-7.5-67.1-19.2C501.7,555.9,497.1,551.1,492.2,547.1z"/>
	<path class="st7" d="M317.5,726c22.6,9.1,44.7,20.9,70.4,10.6c10.4-4.2,10.1,3.9,10,10.6c-0.1,18.7-20.2,35.2-44.8,38
		c-31.1,3.5-55-9.9-75.9-30.9c7.5-10.6,22-8.6,30.8-16.9c13.5,4,24.2,14.2,36.1,17.6c4.1,1.5,3-3.7,2.5-1.2c-0.1,0.6-0.4,0.8-1,0.6
		c-10.4-3.2-20.3-7.3-28.2-15.2C315.8,734.7,312.8,730.3,317.5,726z"/>
	<path class="st8" d="M433.4,586.2c-17.4-15.5-34.6-31.2-41.6-54.6c3.8-6.4,10.4-9.5,16.2-13.5c7.1-4.9,18.6-7.9,13-19.8
		c-5.3-11.3-6.7-28.1-26.3-24.9c-1.2,0.2-2.4-0.5-3.5-1.4c0.1-11.6,9.2-13.1,17.4-14.3c8.9-1.3,9.8,7.3,12.4,12.6
		c13,26.1,26.4,52,47.7,72.6C469.3,561.6,453.9,580.4,433.4,586.2z"/>
	<path class="st9" d="M788.7,215.2c7.6,5.2,2.9,11.5,1.4,17.4c-5,19.7-14.9,37.2-24.1,55.1c-2.5,4.9-6,8.5-10.9,10.6
		c-60.9,25.6-106.1,71.1-149.6,118.6c-10.6,11.6-20.3,15.4-31.5,1.6c28.7-15.2,50.3-38.8,72.3-61.7c23.1-24.1,48.9-44.7,75.9-64.1
		c23.1-16.7,42.4-36.4,54.3-62.6C779.2,223.8,782.5,218.2,788.7,215.2z"/>
	<path class="st10" d="M249.6,863.6c8.3,1.1,16.5,3.1,24.8,3.2c13.8,0.3,21-8.8,17.5-21.1c-6-21.4-40.3-40-61.9-33.6
		c7.5-36.4,8.1-37.1,37.1-14c17.5,13.9,35.5,28,39.8,53c3.7,22-0.5,33.6-22.1,37.3c-25.9,4.4-52.6,6.8-77.7-5.5
		c13-12.8,29.5-7.3,43.5-9.8c-2.9-2.2-10.2,3.2-13-4.1C239.3,862.3,246.4,867.4,249.6,863.6z"/>
	<path class="st11" d="M433.4,586.2c15.1-11.7,29.3-24.2,35.4-43.3c15.6,11.5,29.3,25.5,46.9,34.3c7.5,3.7,10.5,10.4,6.3,17.9
		c-5.2,9.5-11.5,1.7-16.2-1c-9-5.1-17.1-11.6-25.6-17.5c-3.5-2.4-6.7-8.2-11.3-3.1c-5.1,5.5,1.8,8,4.7,10.3
		c9.6,7.6,19.6,14.8,29.8,21.8c5.1,3.5,12.8,4.7,7,13.9c-5,8-10.3,10.3-19,5.2C471.4,612.9,450.7,602.1,433.4,586.2z"/>
	<path class="st12" d="M496.2,398.5c-12.1,1.3-24.2,2.6-36.3,4c-15.1,1.7-20.3,12.6-21.9,25.4c-1.3,10.1-1.8,20.5,2,30.5
		c3.2,8.5-2,8.1-7.7,7.2c-3.8-8.1-8.1-15.9-11.1-24.3c-7.2-19.9-9-40.1,8.9-55.3c18.2-15.4,39.1-22,62.8-11.7
		C510.8,382.2,511.2,383.4,496.2,398.5z"/>
	<path class="st4" d="M788.7,215.2c-13.1,32.6-32.2,60.1-62,80.1c-42.2,28.3-77.7,64.6-113.5,100.3c-10.9,10.8-21.7,22.7-39.1,22.8
		c-0.2-1.2-0.4-2.5-0.6-3.7c20.7-29.4,50.3-49.8,76-74c18.3-17.2,37.2-34,58-48.2c5.6-3.8,2.3-7.6,2.8-11.5
		c22.6-16.1,47.2-30,61.1-55.6c0.8-3.2,1-6.5,2.7-9.5C778.9,215.6,783.8,215.4,788.7,215.2z"/>
	<path class="st13" d="M296.6,609.1c8.9,26,27.5,45.6,44.2,66.4c-8.7,10.9-18,20.9-32.3,24.3c-22.2-20-34.3-44.8-35.2-74.8
		C282.3,621.4,284.6,608.1,296.6,609.1z"/>
	<path class="st14" d="M317.5,726c0.9,3.8,1.8,7.7,2.6,11.5c-21.1-0.1-32.8-15-45-29c-26.6-30.7-42.1-66-43.6-107
		c1.6-15.5,10.4-21.6,25.5-19.5C256.5,638.6,269.9,689.5,317.5,726z"/>
	<path class="st15" d="M257,581.9c-8.5,5.5-21.7,5.5-22.6,19.7c4.5,10.3-3,20.9,1.1,31.2c0,22.9,6.6,44.3,14.2,65.7
		c2.4,6.6,9.8,15.7-3.5,20.2c-27.4-34.1-45-71.2-32.7-116.4c5.5-20,20.4-30,38.4-27.9C257.2,575,258.5,577.3,257,581.9z"/>
	<path class="st16" d="M582.1,476.5c-25.4-18.8-39.8-45.3-50-74.2c-2.4-6.7-4.6-15.8,4.1-21c8.3-5,14.6,1.6,21.3,5
		c7.2,3.7,10.2,8.4,6.4,17.2c-6.6,15.5,2,25.8,14.2,34C593.5,452.9,594.8,465.4,582.1,476.5z"/>
	<path class="st17" d="M246.1,718.7c7.1-6.1,1.3-11.9-0.8-17.4c-8.4-22.3-15.9-44.8-14.4-69.1c2,0,4.5,0.6,4.9,2.3
		c10.4,42.9,37,74.2,70.8,100.6c1,0.8,1.5,2.1,2,3.3c-5.1,15.9-21.2,10.1-31.4,15.8C266.8,742.4,256.5,730.5,246.1,718.7z"/>
	<path class="st0" d="M308.5,699.8c10.2-8.8,19.2-19.4,32.3-24.3c21.5,12.7,39.5,30.6,63.5,40c-7.2,8.9-13.5,5.6-20.2,2.4
		c-12.4-6-22.9-14.5-33.9-22.6c-3.2-2.4-5.6-9.8-10.5-5c-6,5.9,2.4,8.6,5.1,12c7.5,10,18.2,16.2,29.7,22.3
		C355.6,734.7,329.1,724.2,308.5,699.8z"/>
	<path class="st18" d="M710.8,281.7c2.8,3.4,9.5,5.7,2.1,11.4c-49,37.7-92.5,81.6-139.5,121.5c-3.4-9.9,5.2-13.7,10.2-18.6
		c31.5-31.4,63.6-62.4,95.1-93.9c6.2-6.2,10.8-14,16.1-21.1c3.3-2.9,5.8-7.4,11.4-5.6C708.9,276.6,710.5,278.7,710.8,281.7z"/>
	<path class="st19" d="M124.2,680.4c-2.8,6.8-9.6,11.4-10.2,19.3c-0.9,16.8-1.6,33.5,3.6,49.9c3.1,19,8.3,37.5,14.6,55.7
		c2.2,6.3,10.1,15.9-4.1,19.7c-23.2-34.5-38.4-71.7-33.7-114.2C96.2,694,103,679.5,124.2,680.4z"/>
	<path class="st20" d="M128.1,825c8.7-7.4,0.5-14.1-1.6-20.3c-6-18.1-12.4-35.9-12.6-55.2c2.9-0.2,5.2,1,6.2,3.5
		c10.7,28.8,29.2,52.5,48.9,75.4c2.9,7,8.7,12.8,9.6,20.6c1,8.1,3.3,18.1-11.2,15.1C151.5,853.8,136.9,842.3,128.1,825z"/>
	<path class="st21" d="M391.3,471.9c12.7-8.6,20.5-7.1,27.6,8.5c15,32.8,15.5,33.2-27,51.1C385.8,511.7,384.4,491.8,391.3,471.9z"/>
	<path class="st22" d="M305,593.7c10.4-4.6,14.1-18.6,27.2-19.4c8.1,14.2,14.8,27.7,4.1,44.7c-6.1,9.8,6,23,18.1,22.1
		c5.8-0.5,13.3-8,16.6,3.5c-7.1,9.4-14.4,18.3-27.3,19.5C324.2,644.3,307.5,622.9,305,593.7z"/>
	<path class="st16" d="M167.3,864c10.4-1.7,9.5-8.5,6.5-15.5c-2.9-6.9-6.6-13.4-10-20.1c3.2-2.2,6.3-1.1,8.9,1
		c19.9,16,43,26.3,65.3,38.1c5.4,6,13.7,2,22.5,6.1c-19.6,3.4-36.6,6.3-53.6,9.2C192.5,879.4,178.5,874.6,167.3,864z"/>
	<path class="st20" d="M531,430.1c6.7,10.2,13.3,20.5,20,30.7c-0.6,18.8-12.8,31-31.5,31.5c-6.9-8.9-15.7-16.5-18.7-27.9
		C508.1,450.6,515.5,436.8,531,430.1z"/>
	<path class="st22" d="M351.6,558.7c7.5-12.1,23.7-12.8,31.6-24.3c11.3,23.1,28.6,41.6,46.1,59.9c-4.1,4.1-6.9,14.7-14.3,2.9
		c-9.4-2.7-14.9-11-22.9-15.7c-9.7-4.1-22.7,2.9-30.3-8.5C358.2,568.5,354,564.2,351.6,558.7z"/>
	<path class="st23" d="M519.4,492.3c14.8-6.2,26.2-15.9,31.5-31.5c10.2,14,22.9,24.5,40.3,29C565.5,513.2,545.3,513.7,519.4,492.3z"
		/>
	<path class="st24" d="M187.2,797.2c-3.7-6.4-4-13.4-3.6-20.5c6.5-7.6,13-15.2,19.5-22.8c8.8-1.2,11.5-9,16.1-14.8
		c4.3-5.4,7.9-11.6,15.5-13.1c2.6,4,5.3,8.1,7.9,12.1c-17.1,9.7-22.4,26.9-27.9,43.9c-3.3,10.2-4.6,21.6-15.9,27
		C190.6,809.4,186.9,805.3,187.2,797.2z"/>
	<path class="st25" d="M574.3,578.2c5-5.8,10.4-11.2,15-17.3c12.7-16.8,3-38.1-18.6-41.3c-8-1.2-16.8,2.8-23.9-3.7
		c10.2-1.2,20.5,1.1,30.6-3.5c6.8-3.1,13.8-12.7,22.4-4.1c8.5,8.5,13.1,19.8,12.3,31.6C610.9,558,594.2,573.9,574.3,578.2z"/>
	<path class="st26" d="M531,430.1c-9.7,11.8-17.5,25.3-30.3,34.3c-14.7-26.1-12.3-35.8,17.6-67.6C522.6,408.2,526.8,419.2,531,430.1
		z"/>
	<path class="st27" d="M710.8,281.7c-1.4-1.4-2.7-2.8-4.1-4.2c-5.2-8.1,1-13.7,4.3-19.9c5.7-7.8,9.2-17.5,19.2-21.5
		c14.1-9.8,29.2-16.3,47-13.2C763.1,251.6,740.4,270.5,710.8,281.7z"/>
	<path class="st28" d="M296.6,609.1c-10.1,1.8-8.3,21.2-23.3,15.8c0,0,0.1,0.2,0.1,0.2c-4.6-24.5-2.1-48.3,8.1-71.2
		c2.3-5.1,3.3-11.5,11.1-11.2C290.2,565.2,292.9,587.2,296.6,609.1z"/>
	<path class="st29" d="M582.1,476.5c9.8-14.1,0.1-26.3-3.9-39c16-2.1,26.7,1.3,28.9,20.6c1,9.1,1.7,17-4.9,22.6
		C594.8,487.1,588.3,480.5,582.1,476.5z"/>
	<path class="st10" d="M183.5,769.6c-12.2-27.7-30.2-52.5-39.1-81.8c13.4,9.2,14.3,27.3,26.7,37.3c2.4,2,3.3,6.3,5.8,7.6
		C195.6,742.2,191.4,755.5,183.5,769.6z"/>
	<path class="st13" d="M292.6,542.9c-14.7,17.8-17.1,39.4-19,61.1c-0.6,7-0.1,14.1-0.2,21.2c-11.3-31.9-3.3-68.6,21-95.1
		C296.8,534.9,293.1,538.7,292.6,542.9z"/>
	<path class="st30" d="M234.8,726.1c-8.4,10.4-16.6,21-25.3,31.1c-4.6,5.3-5.8,1.1-6.3-3.2c6.6-9.7,13.1-19.3,19.7-29
		C227.5,718,231.5,717.8,234.8,726.1z"/>
	<path class="st31" d="M777.2,222.9c-16.5,1.4-31.7,7.5-47,13.2c10.4-15.9,28.9-14.2,43.8-20.3C775.1,218.2,776.1,220.5,777.2,222.9
		z"/>
	<path class="st4" d="M711,257.6c-1.4,6.6-2.9,13.3-4.3,19.9c-4,1.2-7.9,2.3-11.9,3.5C699.3,272.6,701.8,262.7,711,257.6z"/>
	<path class="st8" d="M885.5,129.4c15.1,5.5,17,18.9,16.2,31.6c-1,17-17.2,22.1-35.3,12.5c-24.8-13.1-32.2-13.2-56.4-0.2
		c-2-7.7-3.6-14.6,2.7-21c15.2-16.7,33.8-23.4,56.1-19.3C874.8,134.2,880.5,132.9,885.5,129.4z"/>
	<path class="st32" d="M885.5,129.4c1.5,6.4-2.2,12-7.5,10.2c-24.6-8.6-44.7,2.9-65.4,12.8C832.5,113.2,856.4,105.6,885.5,129.4z"/>
	<path class="st8" d="M863,222.7c12.3,2.3,18.8,9.8,19.8,22.2c0.7,8.5-1.8,15.6-9.8,19.1c-7.5,3.3-15.2,2.7-21.1-4
		c-7.6-8.6-15.7-17-16.4-29.5C844.9,228.9,858.9,243,863,222.7z"/>
	<path class="st33" d="M863,222.7c4.7,6.3,4.3,11.9-2.4,16.6c-5.9,4.1-10.9,2.1-15.8-2c-2.9-2.5-6.2-4.4-9.3-6.6
		c-5.5-6.8-9-13.3,4.7-12.3C847.9,218.8,855.4,221.2,863,222.7z"/>
	<path class="st34" d="M758.4,154.4c-0.9-8.7-1.5-11.9-1.5-15c-0.1-6.6,0.5-13.1,7.5-16.5c1.3-0.6,4.3-0.2,5.1,0.8
		c4.8,6.6-3.4,9.9-4.4,15.2C764.3,142.5,762.2,145.8,758.4,154.4z"/>
	<path class="st35" d="M238.1,867.5c-28.8-5.3-50.6-23.9-74.2-39.1c-21.8-23.1-37.7-49.8-50-79c-4.5-16.6-8.4-33.2,0.1-49.7
		c5.1,26.3,7.5,53,21.8,77.2c26.4,44.6,63.5,74,113.8,86.7C246.9,868.3,242,866.6,238.1,867.5z"/>
	<path class="st36" d="M187.2,797.2c3,4.8,5.8,9.8,11.6,12c3.1,7.5,12.2,5.3,17.5,10.1C195.1,824.7,182.9,815.1,187.2,797.2z"/>
	<path class="st37" d="M406.2,611.6c-0.4,0.8-0.9,1.3-1.7,1.7c-7.3,2.3-3.1,9.1-5.2,13.4c-5.5,7.6-10.8,15.3-21.3,16.2
		c-6.8-4.7-13.4-6.2-21.3-1.6c-6,3.5-12.6,4.6-14.8-5c0.3-5.3,1.8-10.5,5.2-14.4c7.9-9.1,7.6-18.3,3-28.7
		c-3.2-7.2-4.6-14.8-0.3-22.3c4.4-4.4,8.5-2.8,12.4,0.8c5.6,4.2,8.7,11,15,14.4c9.2,2.8,18.6,4.7,28.1,6.2
		C416,598.2,407.6,605.1,406.2,611.6z"/>
	<path class="st38" d="M340.8,634.6c4.1,6.4,9.8,9.2,15.7,3.6c9.1-8.6,15.5-3.8,22.2,2.8c2.3,1,4.9,1.5,7.1,2.9
		c3.8,2.3,7.8,5.3,12.2,2.2c5.4-3.8,3.6-8.9,1.6-13.7c-1-2.4-1.4-4.9-1.6-7.4c-3.8-7.3-2.8-11.8,6.6-11.7c-1.9,3.5-2.9,6.5,0.9,10.1
		c10.4,9.8,15.5,19.2,0.8,31.2c-14.4,11.8-21.7,1.4-30.7-6.5c-1.4-1.3-3-2.4-4.5-3.6c-2.4-4.5-6-4.8-9.3-1.6
		c-10.2,9.8-18.2,5.9-25.7-3.4c-7.2-9.1-13.4-18.7-1.9-28.5c5.7-4.9,6.1-8.8,2.2-14.5c-4.5-6.7-4.7-14.5-4.2-22.2
		c3.5-8.9,11.7-11.9,19.4-15.5c7.3-0.2,8.4,6.8,12.2,10.6c1.6,2.2,1.3,4.2-0.7,5.9c-3.5-2.2-5.8-7.8-11.5-4.6
		c-2.4,2.3-3.6,5.5-5.3,8.3c1.2,16.5,5.7,33.4-5.1,48.6C341.1,629.9,341,632.2,340.8,634.6z"/>
	<path class="st39" d="M406.2,611.6c-2.9-5.4,10.5-16.4-5.9-17.2c-5.7-2-10.6-4.8-11.6-11.5c0.6-3,1.4-5.7,5.4-4.6
		c8.1,5.1,16.9,9.4,21,19C414.5,603.5,412.3,608.8,406.2,611.6z"/>
	<path class="st40" d="M519.5,519.5c5.6,4,11.2,7.9,18.1,12.8c-9.1,2.1-14.3-4.9-21.1-5.4c-28.4-21-52.1-45.3-59.9-81.4
		c-1.4-3.9,0.2-4.7,3.6-3.5C473.8,472.5,488.9,502,519.5,519.5z"/>
	<path class="st41" d="M460.2,442.1c-1.2,1.2-2.4,2.3-3.6,3.5c-6.5-8.7-3.2-18.1-0.7-27.7C457.3,426,458.8,434,460.2,442.1z"/>
	<path class="st42" d="M308.6,738.4c-39.2-25.7-66.9-59.8-77.7-106.2c1.2-10.2,2.3-20.4,3.5-30.6c9.2,6.5,3,16.2,4.7,24.2
		c10.3,49.5,37.4,86.5,81,111.6c7.3,9.4,20.2,10.3,30.3,19.6C332.7,756,321.5,745.2,308.6,738.4z"/>
	<path class="st43" d="M394.1,578.3c-1.3,1.4-2.6,2.8-4,4.2c-3.6,3.3-7.7,5.5-12.5,6.7c-0.1,0-0.6-0.5-0.6-0.7
		c0.2-0.6,0.6-1.1,0.9-1.6c-10.4,3.1-10.8-6.6-14.8-11.6c0.2-2,0.5-4,0.7-5.9c5.2,3.9,8.1,13.6,17.6,4.8
		C385.3,570.4,390.7,574,394.1,578.3z"/>
	<path class="st44" d="M758.9,235.9c-12.7,10.4-22.3,24.6-40,33.8C725,246.4,740.4,239.2,758.9,235.9z"/>
	<path class="st45" d="M398,624.9c4.5,6.9,17.5,11.1,6.8,22.9c-13.4,14.8-18.9,1.1-26-6.9C385.1,635.6,391.5,630.3,398,624.9z"/>
	<path class="st46" d="M340.8,634.6l-0.5-0.1c4.7-19.8,5.5-40.1,5.5-60.3c1.7-1.5,2.5-4.5,5.7-3.5c1.2,5.5-3.1,11.6,1.1,16.7
		C369.8,608.5,354.6,621.3,340.8,634.6z"/>
	<path class="st47" d="M377.9,586.9c1.7-8.1,7.9-3.6,12.2-4.4c3.4,4,6.8,7.9,10.2,11.9C392,594.2,382.4,598.1,377.9,586.9z"/>
	<path class="st48" d="M345.8,574.2c3.5,20.6,2.9,40.8-5.5,60.3c-3.9-3.7-8.1-10.4-4.3-13.1c15.9-11.3,9-23.2,3.7-36.1
		C337.8,580.8,338.3,574.8,345.8,574.2z"/>
</g>
</svg>
