<?xml version="1.0" encoding="utf-8"?>
<!-- Generator: Adobe Illustrator 23.0.1, SVG Export Plug-In . SVG Version: 6.00 Build 0)  -->
<svg version="1.1" id="Layer_4" xmlns="http://www.w3.org/2000/svg" xmlns:xlink="http://www.w3.org/1999/xlink" x="0px" y="0px"
	 viewBox="0 0 1000 1000" style="enable-background:new 0 0 1000 1000;" xml:space="preserve">
<style type="text/css">
	.st0{fill:#385E65;}
	.st1{fill:#1E363A;}
	.st2{fill:#302725;}
	.st3{fill:#132325;}
	.st4{fill:#8CADDE;}
	.st5{fill:#5F6F4C;}
	.st6{fill:#C9B698;}
	.st7{fill:#340531;}
	.st8{fill:#800080;}
	.st9{fill:#5E6E4B;}
	.st10{fill:#2F2725;}
	.st11{fill:#434C36;}
	.st12{fill:#0E0E0D;}
	.st13{fill:#394751;}
	.st14{fill:#74A29F;}
	.st15{fill:#38444D;}
	.st16{fill:#C4B395;}
	.st17{fill:#7F017F;}
	.st18{fill:#FC00FC;}
	.st19{fill:#213A3E;}
	.st20{fill:#1F353A;}
	.st21{fill:#394852;}
	.st22{fill:#050504;}
	.st23{fill:#080706;}
	.st24{fill:#75A4A1;}
	.st25{fill:#73A09D;}
	.st26{fill:#1F373B;}
	.st27{fill:#719D9A;}
	.st28{fill:#0C0D0E;}
	.st29{fill:#76A5A2;}
	.st30{fill:#719C99;}
	.st31{fill:#10120C;}
	.st32{fill:#75A5A2;}
	.st33{fill:#384751;}
	.st34{fill:#74A3A0;}
	.st35{fill:#050606;}
	.st36{fill:#FDFDFD;}
	.st37{fill:#FCFBF9;}
	.st38{fill:#161310;}
	.st39{fill:#C6B597;}
	.st40{fill:#606E4C;}
	.st41{fill:#F6F3EE;}
	.st42{fill:#050505;}
	.st43{fill:#5E6D4B;}
	.st44{fill:#C3B194;}
	.st45{fill:#C7B598;}
	.st46{fill:#EDEAE4;}
	.st47{fill:#606F4C;}
	.st48{fill:#5C6C4A;}
	.st49{fill:#434D36;}
</style>
<g>
	<path d="M813.9,385.6c13.8-8.3,25.1-18.9,40.3-22.3c29.4-6.6,71.3,29,78.6,52.8c2.9,9.5-4.3,16.5-10.6,23
		c-35.8,36.7-81.2,53.5-129.8,65.1c-40.5,9.6-77.7-5.2-115.9-12.3c-28.4-5.3-45.8,3.3-46.9,30.2c-0.9,23.2-4.6,46.2-4.2,69.3
		c0.9,56.6-9.6,111.3-25.2,165.1c-2.9,9.9-3.4,19.5-1.9,28.6c5.4,32.6-11.4,69.4-39.9,84.5c-20.6,10.9-41.7,20.3-64.7,24.5
		c-2.5,0.5-5.4,1.2-7.7,0.4c-38.5-12.7-71.1,10.7-106.2,17.7c-88.8,17.8-170.7,8.2-237.6-58c-42.4-42-62-96.2-63.7-155.6
		c-1.4-49.7,4.1-98.3,24.9-145.1c7.3-16.4,3.1-37.8,7.3-56.6c10.4-46.8,40.9-74.2,87.2-73.7c41,0.4,76.4-15.7,114.5-24.1
		c40.7-8.9,82.4-13.5,123.6-20.3c13-2.2,26-4.9,38.7-8.6c16.2-4.7,18.8-18.2,5.6-42.3c-13.3-24.3-24.5-48.7-32.3-75.7
		c-11-37.7-5.9-72.9,7.7-107.4c7-17.9,16.6-35,26.9-51.7c20.3-32.9,41.8-35,79.8-9.3c3.2,2.1,5.5,5.5,8.3,8.2
		c25.5,24.7,23.6,32.4,6.4,54.4c-11,14-2.6,16.8,7.2,17.3c32.9,1.6,60.8,15.9,86.8,33.6c10.1,6.9,14.3,5.3,22.6-1.6
		c28.6-23.7,48.8-21.8,73.3,2.2c13.4,13.1,15.4,39.6,0.3,63.4c-6,9.4-4.8,13.1,1.1,21.1C790.5,313.3,805.9,347.5,813.9,385.6z"/>
	<path class="st0" d="M109.1,762c-16.7-36.6-16.5-74.6-12.1-113.7c4.6-41.2,15-79.9,37.1-115c14.9-23.8,20.2-25.6,47.7-18.5
		c4.3,1.1,9,0.8,13.5,1.1c50.4,18.2,96.9,43.1,137.1,79c20.4,18.3,37.4,39.5,52.1,62.5c8,12.4,8.1,25.3,1.4,38.8
		c-6.4,12.9-14.2,24.9-23.6,35.5c-26.8,30.2-58.2,55.2-91.2,78.3c-1.8,0.5-3.7,0.6-5.6,0.1c-26.7-31.9-58.4-58.2-86.2-75.6
		c18.7,12.4,36.8,36.9,53.6,62.4c6.1,9.2,10,19.7,9,31.2c-0.4,1.9-1.1,3.7-2.1,5.3c-11.9,12.3-26.4,19.5-43.3,22
		c-1.9,0.1-3.8-0.2-5.7-0.5c-4.4-1.2-8.3-3.6-12-6.2c-5.2-3.8-12.5-7.9-10.5-14.8c2-7.1,9.9-3.2,15.4-3.5
		c16.1-0.8,21.3-7.8,15.2-22.7c-11-27-32-44.8-56.6-59c-2.4-1.8-4-4.2-4.9-7.1c-0.9-68.8,30.7-116.2,93.9-142.8
		c4.8-2,9.5-4.3,13.8-7.3c15.2-10.7,15.4-18.2,0.4-29.9c-20.2-15.8-43.3-26-67.5-34.1c-14.6-4.8-24.8-0.8-33,12.2
		c-18.8,29.8-28.1,62.7-33.6,96.9c-5.9,36.9-6.1,73.7,4,110.1c0.4,1.9,0.5,3.9,0.2,5.9C114.6,756.6,112.9,760,109.1,762z"/>
	<path class="st1" d="M269.6,808.7c24.8-25.5,55.9-43.8,80-70.2c11.4-12.5,21.2-25.8,30.1-40.3c10.1-16.5,7.3-31-2.8-45.1
		c-31-43.3-69.4-78.2-116.7-103c-21.7-11.4-43.3-22.9-65-34.3c50.9,10.7,96.6,32.4,135.3,67.3c51.8,46.5,97,98.7,133.4,158.3
		c5.3,8.7,10.9,17.7,12.6,28.2c6.2,28.3-7.9,49-27.3,65.9c-20,17.4-43.7,29.9-67,42.6c-12.6,6.9-22.3,1.7-31.2-7.4
		c9.5,9.8,7.6,18.1-4.1,23.3c-17.1,7.6-34.6,14.4-53.9,8.5l-0.1-0.1c-0.2-30.2-7.7-58.4-23.3-84.4
		C268.1,815.2,267.9,811.8,269.6,808.7z"/>
	<path class="st2" d="M562.5,734.4c10.4,16,15.4,34.2,19,52.4c6.4,32.9-12.3,54.4-37,71.3c-18.9,13-41,18.4-65.6,18.9
		c15.9-9.7,29.8-20.9,28-40.8c-2.9-31.8-9.9-62.9-26.8-90.5c-34.5-55.9-72.6-108.9-120.7-154.2c-52.7-49.6-114.3-82-185.7-94.2
		c-22.3-3.8-37,11.3-50.7,29.2c-2.1-10,1.5-16.5,5.4-22.9c18-21.4,41.8-24.7,67.6-21.6c9.5,0.6,18.2,3.9,26.8,7.8
		c12.5,9.4,29.7,8.2,41.8,18.5c-5.6-5-12.3-8.9-15.5-16.2c2.1-9.8,10.2-15.4,15.9-22.8c22.2-12.4,42.1,2.7,63.1,5.6
		c2.6,0.2,0.3-4.3,0.6-1.7c0.1,1.1-0.3,1.7-1.3,1.4c-21-4.6-39.9-14.5-59.2-23.3c-2.5-1.1-3.3-3.8-3-6.6c2.8-1.7,5.6-1.9,8.4,0.2
		c50.9,11.9,94.1,38.5,134.5,70.4c69.8,55.2,115.7,128.1,152.5,207.5C561.9,726.5,561.8,730.6,562.5,734.4
		c-11.3,0.9-13.5-8.6-16.6-15.8c-6.5-14.9-13.1-29.7-21.8-45.9c-7.8,24.1-19,43.5-49.4,40.4c31,43.7,47,90.4,43,143.6
		c16-3.9,28.7-13.9,39.5-25.7c15.2-16.8,17.4-36.3,10.1-58.1C563.2,760.8,553.1,748.5,562.5,734.4z"/>
	<path class="st0" d="M460.8,543.2c-40.9-36-83.6-69.5-132.9-93.6c10.1-8.1,18.6-0.4,26.7,3.7c13.6,6.9,26.9,9.7,40.9,2.5
		c42-21.6,83.2-44.7,122.5-71.5c-35.5,10.2-70.1,23.2-107.1,26.9c-30.9,3.2-61.6,8.6-92,15.3c-9.6,2.1-18.7,5.3-26.5,11.5
		c-7.9-1.9-15.8-3.8-27.6-6.7c30.6-15,59.7-20.7,89-24.9c39.7-5.7,79.9-8,118.8-19.3c13.8-4,26.9-9.5,39.9-15.2
		c8.5-3.7,17-6.3,26.4-4.4c35.5,12,51.9,38.8,37,70.4c-17.3,36.8-36.6,73.5-67.8,101.5C491.7,554.2,480.2,554.8,460.8,543.2z"/>
	<path class="st1" d="M460.8,543.2c30.2,7.4,44.1,1.5,65.7-30.3c13.8-20.3,26.4-41.3,39-62.4c18.4-30.7,12.5-55.5-17.4-76
		c-3.2-2.2-6.1-4.6-9.2-6.9c24.3-1.3,42.3,11.2,58.7,27c14.7,21.1,16.4,45.3,11.9,69c-10.6,55.3-23.2,110.1-38.7,164.2
		c-3.7,12.9-8.3,28.3-28,24.7c-9.6-5.6-12.6-16.4-17.5-25C507.5,596.4,481.5,571.8,460.8,543.2z"/>
	<path class="st3" d="M542.8,652.5c26.1-6.8,24.8-31.4,29.8-49.9c11.6-42.8,19-86.8,29.9-129.8c6.9-27.1-0.1-52.3-4.9-78.2
		c25.1,16.3,32.2,40.2,26,67.7c-10.4,46.3-12.4,93.3-14.4,140.5c-2,47.9-7.8,95.1-25.9,143.4C569.2,713.4,556,682.9,542.8,652.5z"/>
	<path class="st2" d="M766.6,492.4c-28.9-3.6-56.6-5.4-83-15.2c-6.5-2.4-13.7-4.6-10.6-12.9c3-7.7,4.2-21.6,16-18.4
		c60.4,16.3,100.8-19.2,142.7-52.5c27.2-21.6,55.7-14.6,76.8,16c6.2,8.9,5.8,14.7-1.8,21.6c-32.3,29.6-70,48.4-112.9,57
		C784.5,490,774.9,491.1,766.6,492.4z"/>
	<path class="st2" d="M515.7,211c-9.8,27.7-12,55.6-0.3,83.2c6.5,15.4-8.4,17.4-15,22.4c-7.3,5.4-9.7-4.9-12.9-9.9
		c-46.6-74.3-34-145.1,13-213.8c3.4-4.9,6.9-9.2,13.2-10.6c17.5-3.9,53.4,19.1,56.5,36.5c0.7,4,0,7.8-3.5,10.4
		c-1.8-0.7-4.4-1.6-5.5-0.4C541.1,153.4,524.1,179.8,515.7,211z"/>
	<path class="st4" d="M292.3,438c-4.1-11.3,5.5-10.6,11.4-12.5c29.7-9.6,60.7-13.9,91.4-17.4c41-4.7,80-15.3,118.6-29
		c5.1-1.8,10.5-5.9,16.6-1.8c0.5,8.3-6.3,10.7-11.5,14.1c-37.4,24.6-77.1,45.3-116.3,66.9c-16.5,9.2-32.7,10.1-49.4-0.5
		c-7.4-4.7-15.4-10.1-25.3-8.2C315.3,447.8,303.7,443.3,292.3,438z"/>
	<path class="st5" d="M797.2,386.5c8.7,11,1.3,17.7-6.4,24.4c-7.4,6.4-15.2,12.1-24.6,15.3c-19.7,8.6-39.2,8.6-52.3-10
		c-14.9-21.4-26.9-45-13.9-72.3c1.9-4,4.4-7.9,7.2-11.5c11.9-12.5,23.8-25.1,35.9-37.4c3.7-3.8,8.2-12,10.9,0.8
		c11.9,25.3,23.2,50.9,33.8,76.8C789.9,377.7,790.8,384.1,797.2,386.5z"/>
	<path class="st2" d="M761.9,227.4c-6.6,25.9-21.2,48.8-38.4,69.9c-17.7,21.7-40.2,38.4-62.5,55.2c-7.6,5.7-12.9,4.9-19.9-1.9
		c-24.7-23.9-24.5-29.8-7.1-61.7c19.8-36.3,46.6-65.1,81-87.4c9.5-6.2,19.2-8.7,28.8-1.3C752.4,206.8,762,213.1,761.9,227.4z"/>
	<path class="st3" d="M293.1,902.4c13,0.2,25.2-1.1,37.7-6.6c26-11.5,26.4-10.6,10.4-31.5c1.4-3.8,4.6-2.4,5.9-0.9
		c16.6,19,32.5,13.3,50.3,0.8c25.6-18.1,57.1-28.6,70.4-61c4.5-10.9,7.2-22,8.7-33.5c15.7,24.6,17.1,52,15.3,80
		c-0.5,7.9-7.5,10.3-13.3,12.6c-44.1,18.1-88.1,36.5-136.5,40.5C325.6,904,309.4,910.8,293.1,902.4z"/>
	<path class="st6" d="M582.4,178.9c27.5,4.4,54,10.9,74.4,31.9c-1,6.2-5.3,10.3-9.5,14.3c-16,15.5-28.4,33.5-38.9,53.2
		c-13.6,25.6-28.7,30.4-60.8,21.4c-16.2-4.6-24.4-19.2-24.1-44c0.4-27.2,12.5-49.9,28.3-70.9C560,174,571.6,177.9,582.4,178.9z"/>
	<path class="st7" d="M269.6,808.7c11.3,18.8,21.3,38.1,25.7,59.8c2.3,11.5,3.5,22.9-2.3,33.9c-43.5-2.4-84.7-10.9-117.2-43.1
		c0.9-12.2,11.1-4.1,16.1-7.4c1.2,0.1,2.4,0.1,3.7,0.2c16.6-1.8,37.3,5.2,43-19.9c0.2-1.3,0.4-2.5,0.7-3.8
		c7-9.5,15.1-17.5,27.3-19.7C267.6,808.6,268.6,808.6,269.6,808.7z"/>
	<path class="st8" d="M191.9,851.8c-5.4,2.5-10.7,4.9-16.1,7.4c-13.3-1.3-18.7-12.8-26-21.2c-19-22.3-32.8-47.7-40.8-76
		c1.1-2.4,2.2-4.8,3.3-7.2c15.4,14.2,17.7,35.7,28.3,48.1c-2.5-16.1-13.7-36.6,3.1-55.9c31.4,12.2,51.7,35.7,62.5,66.4
		c6.3,18-8.4,26.1-36.2,20C175.1,843.3,184.7,846.2,191.9,851.8z"/>
	<path class="st9" d="M582.4,178.9c-19.2-3.1-29,8.7-37.6,23.2c-11.5,19.3-18.9,39.8-17,62.5c1.2,14.8,5.7,29.1,23.1,31.4
		c17.9,2.4,37.4,9.2,49.6-13.1c8-14.6,14.8-30,26-42.8c9.3-10.7,17.6-22.2,30.4-29.3c11.3,3.5,18,7.1,5.3,18.7
		c-26.9,24.6-44.4,55.3-54.7,91.4c-21.8-8.1-43.8-16.9-68-16.5c-8.5,0.1-10.3-5.7-12.8-12.1c-16.2-40.8-3.3-76.6,20.2-109.6
		C555.5,170.3,569.9,174.9,582.4,178.9z"/>
	<path class="st10" d="M542.6,316.6c54.9-6.9,122.8,55.3,124.9,117.7c0.6,16.9-1.4,35.8-23,42.3c-2-4.2,0.6-7.3,2.3-10.7
		c14.3-29.1,9.4-61.3-13.3-87c-13.7,7.2,1.8,19.1-4.5,27.4c-10-8.9-20.5-17.5-30-26.9c-16.7-16.6-39.8-19-59.9-27.8
		c7.5-6.1,15.4-11.8,23.8-16.5c6.6-3.7,14-5.2,17.7-2.1c-5.9-1.7-15.6-4.2-25.1-7.2C550.2,324.2,543,324.9,542.6,316.6z"/>
	<path class="st11" d="M707.2,332.4c-6.7,19.2-10.5,38-2.2,58.3c13.2,32.1,24.9,39.6,61.1,35.5c-25.6,16.3-53,12.1-80.5,7.3
		c-6-1.1-5.5-6.2-6.3-10.5c-2.3-12-2.9-25.4-10.9-34.7c-14.8-17.4-7-25.6,9.4-34.2C688.5,348.5,697.5,339.7,707.2,332.4z"/>
	<path class="st12" d="M273.4,445.2c-2.8,0.2-5.6,0.3-8.4,0.5c-4.7,5.4-10.5,1.7-16,1.5c14.5,3,18.2,12.6,16.5,25.7
		c-2.9,8.2-7.9,14.5-15.7,18.6c-8.3,8.4-16.9,10.4-26.3,1.6c-9.7-2.7-19.4-5.5-29.1-8.2c-17.5-8.1-18.8-14.7-7.3-35.5
		c-19.6,3.4-35.7,12.3-44.1,31.9c-1.7,4-4.3,8.1-9.9,7.7c3.3-28,15-41,47.4-47.5C211.5,435.3,242.9,432.3,273.4,445.2z"/>
	<path class="st13" d="M628.9,406.2c-8-17.4-8-17.4,2.9-36.4c32.1,28,37.7,74.9,12.6,106.7c-3.2,1.1-6.5,3.9-9.5-0.4
		c-2.1-3-1.6-5.5,1.4-7.6C643.2,446.7,640.6,425.9,628.9,406.2L628.9,406.2z"/>
	<path class="st14" d="M542.6,316.6c14.7,5.7,31.5,6.2,45,18.7c-21.3-8-29.8,18.1-48.5,16.2c-3.2,0.1-6.6-0.5-9.6,0.4
		c-8.5,2.5-19.4,11.1-23.5-2.8c-3.4-11.3,1.2-23.6,14-28.5C526.9,317.8,535,317.8,542.6,316.6z"/>
	<path class="st14" d="M133.2,489c11.6-30.8,34-45.7,66.6-45.8c-20.2,20.4-20.9,26.2-5.3,41.7c-3.2,5.3-8.2,2.9-12.2,2.1
		c-18-3.5-32.9,1.5-45.5,14.5c-2.1,2.2-4.1,7.7-8.5,2.2C129.9,498.8,131.6,493.9,133.2,489z"/>
	<path class="st15" d="M515.7,211c-5-3.3-3.9-7.5-1.8-12c12.3-25.8,25-51.3,42.5-74c2-2.6,3.2-8.6,8.2-4.8c1.9,1.5,1.5,5.9,2.1,9
		C550.3,156.9,529.8,181.9,515.7,211z"/>
	<path class="st16" d="M797.2,386.5c-1.2,2.8-2.2,10.4-5.9,2.8c-14.7-30.3-30.2-60.3-37.4-93.6C776,322.4,789,353.3,797.2,386.5z"/>
	<path class="st10" d="M628.9,406.2c14.8,19.3,19.9,39.8,7.4,62.3C638.2,447.3,636.9,426.3,628.9,406.2z"/>
	<path class="st4" d="M112.8,750.8c-23-78.3-8.2-151.1,31.9-220.3c6.2-10.6,15.7-13,26.9-10c31.8,8.7,60.6,23.2,86.3,43.8
		c11.2,9,9.1,16.5-1,25.2c-15.7,13.3-35.9,17.8-52.8,29.1c-36.5,24.4-58.1,56.7-59.9,101.3c-0.3,7.7-2,15.4-3.1,23.1
		C132.3,748.1,122.7,750.2,112.8,750.8z"/>
	<path class="st17" d="M266.6,808.6c-8.1,7.9-16.5,15.6-27.3,19.7c-8.1-33.9-31.5-65.2-76.5-102.5
		C189.8,729.2,243.9,772.4,266.6,808.6z"/>
	<path class="st18" d="M112.8,750.8c7.2-10.6,17.2-11,28.3-7.7c0.9,1.2,1.9,2.5,2.8,3.7c-7.7,20.6,1.2,41.4,0.3,64.1
		c-17.4-16.7-24.4-36.6-31.7-56.3C112.6,753.4,112.8,752.1,112.8,750.8z"/>
	<path class="st19" d="M306.7,683.3c-5.3,14.5-11.9,26.4-31.6,21.2c-14.1-3.7-10.8,13.7-18.7,18c-2.4-22.2,2.1-26.9,24.8-25.8
		C285.8,696.9,289.4,694.8,306.7,683.3z"/>
	<path class="st20" d="M238.6,832.1c6.8,12.6,0.3,20.8-11,22.6c-10.3,1.7-21.9,4-32-2.7C211.6,849,224.4,839.2,238.6,832.1z"/>
	<path class="st13" d="M562.5,734.4c-1.1,12.2,3.9,23.1,8.2,33.8c18.1,45.2-7.8,70.6-37.6,87.9c-7,4-15.2,5.9-23.6,9.1
		c9.2-38.3,3.9-86.6-43.2-158.3c35.9,4.4,42.1-0.4,55.9-45.5c10.7,15.3,17.4,31.3,24.4,47C550.8,717.8,552.8,728.4,562.5,734.4
		C562.5,734.4,562.5,734.4,562.5,734.4z"/>
	<path class="st21" d="M427.7,647.7c-4.7-4.4-7.6-6.9-10.4-9.6c-10.5-10.4-23.2-20-14.1-37.7c6.2-12.2,37.5-29.3,49.7-25.1
		c11.2,3.8,18,14.3,25.2,23.4c2.6,3.3-0.2,5.6-4.2,6.1C432.7,610.5,432.7,610.6,427.7,647.7z"/>
	<path class="st22" d="M484.1,679.8c-23-0.5-44.5-22.1-42.2-43.2c1.6-15,13.7-19.2,27-19.4c21.7-0.3,40.3,17.4,37.9,37.7
		C505.4,667.8,501.2,681.2,484.1,679.8z"/>
	<path class="st23" d="M373.9,566.4c-14.3,2-25.8-4-35.4-14.9c-7.1-8.1-11.6-15.6-7.6-27.7c4.2-12.9,14.4-14.2,24.1-15.6
		c15.2-2.2,27.5,5.3,37.9,15.7c8.8,8.9,12.5,20.2,8.1,32C396.5,568.1,384.9,566.9,373.9,566.4z"/>
	<path class="st24" d="M265.6,472.8c-4.5-9.4-7.2-19.8-18.6-27.2c8,0,13,0,18.1,0c22.4,10.7,46.5,17.6,68.3,31.9
		C309.9,477.6,288.6,463.4,265.6,472.8z"/>
	<path class="st25" d="M223.6,493c9.3,7.9,17.5-1.2,26.3-1.6c11.2,4.2,15.5,16.5,25.4,23C258.7,505.4,237.8,507.8,223.6,493z"/>
	<path class="st26" d="M456.6,474.5c-0.1,4.2-1.8,7.6-6,8.4c-5.2,1.1-8.5-2.7-10.1-6.7c-1.9-4.8,2.4-6.5,6.1-7.2
		C451.1,468.4,455.6,468.4,456.6,474.5z"/>
	<path class="st13" d="M788.8,461c27.1-16.1,57.8-21.8,87.5-30.7c2.9-0.9,7.2-1.2,8.3,2.7c1.6,5.5-3.4,8-6.8,10.6
		c-25.2,19.2-54.1,30-84.8,36.8C788.1,474.7,785.8,468.5,788.8,461z"/>
	<path class="st13" d="M789.2,480.4c-38.3,10.5-74.5,1.5-110.3-13.1c34.4,1.3,68.5-0.4,102.2-6.2
		C788.4,465.6,792.4,471.5,789.2,480.4z"/>
	<path class="st27" d="M825.3,409.1c35.6-31.3,47.3-30.1,81.7,10c-16.2-7.4-28-14.7-41.5-18C851.3,397.6,839.9,406.4,825.3,409.1z"
		/>
	<path class="st28" d="M789.2,480.4c-2.7-6.4-5.4-12.9-8.1-19.3c-0.8-2.9-1.6-5.7-2.4-8.6c7.1-1.6,5.4,7.3,10.1,8.5
		c3.8,6,4.6,12.6,4.2,19.4C791.8,480.4,790.5,480.4,789.2,480.4z"/>
	<path class="st29" d="M464.4,210c-0.7-41.6,19.3-76,39-110.4c5.4-9.4,14.5-14.4,24.6-8.2c9.8,6,4.6,15.2,0.7,22.4
		c-12.3,22.8-25.4,45.3-37.8,68.1c-3.4,6.2-7.9,13.1-7.9,19.6c-0.1,14.1-8,14.5-18.1,13.4c-1.1-1-1.5-2.1-1.3-3.2
		C463.8,210.6,464.1,210,464.4,210z"/>
	<path class="st30" d="M464.4,210c0.2,1.7,0.3,3.3,0.5,5c10.4,4.8,14.3,11.5,14.7,24.2c0.7,18.4,6.8,36.6,9.3,55.2
		C476.2,267.6,461.5,241.5,464.4,210z"/>
	<path class="st31" d="M763.4,414.5c-11.1-24.8-22.1-50-41.7-73.7C745.7,351.7,755.8,369.9,763.4,414.5z"/>
	<path class="st32" d="M664.6,276.9c-0.5-4.6-16.7,0.8-6.4-11.2c18.1-21.1,36.6-41.6,59-58.4c7.5-5.6,15.2-8.8,22.1-0.5
		c7.7,9.1-1.5,14.2-6.7,18.9c-19.9,18.1-40.3,35.6-60.6,53.3C669,280.1,666.5,279.4,664.6,276.9z"/>
	<path class="st33" d="M751.3,231.2c-15.7,54.4-56.2,84-97.2,119.3C664.4,327.2,731.2,245.6,751.3,231.2z"/>
	<path class="st34" d="M667.3,285.5c-12.9,11.5-25.9,22.9-37.6,33.2c1.2-12.3,10.3-24.4,16.6-37.5c2.5-5.3,6.8-1.2,10.3-0.9
		C661.8,278.7,665.7,279.7,667.3,285.5z"/>
	<path class="st35" d="M667.3,285.5c-3.6-1.7-7.1-3.4-10.7-5.2c2.7-1.2,5.3-2.3,8-3.5c2.5,0.7,4.9,1.4,7.4,2.1
		c6.3,4.8,15.7,7,14.8,20.3C679.6,294.2,673.5,289.9,667.3,285.5z"/>
	<path class="st36" d="M584.1,183.9c7.4,2.4,17.5,5.1,27,8.9c26,10.6,27.5,23.7,5.3,41.1c-3.2,2.5-6.5,5.4-10.4,3.6
		c-15.8-7.3-31.9-13.8-49.3-16.4c-3.2-0.5-5.2-3.4-5.6-7.1C549.9,203,569.8,183,584.1,183.9z"/>
	<path class="st37" d="M551.2,233.9c9.7,7.2,12.6,14.7,4.2,25.7c-4.8,6.2-6.2,15-9.4,23.7c-12.5-26.5-11.3-37.7,4.7-52.7
		c1.3,0.5,1.8,1.2,1.5,2C551.9,233.4,551.6,233.9,551.2,233.9z"/>
	<path class="st38" d="M551.2,233.9c-0.4-1.1-0.6-2.2-0.6-3.3c25.5-1.5,41.6,4.3,57.4,22.9C587.3,245,570.6,235,551.2,233.9z"/>
	<path class="st39" d="M206.9,453.2c10.4-6.1,20.8-6.3,31.1,0.2c9.2,14.3,6.8,22.3-8.4,27.1c-7.5,2.4-15.1,2.9-22.8,0.5
		c-7.7-4.4-19.2-6.6-11.2-19.8c2.4,0.7,4.4,2.3,6.7,3.3c4.1,1.9,9.1,3.5,11.4-1.6C216,457.5,208.6,456.9,206.9,453.2z"/>
	<path class="st40" d="M206.8,481c8.1-0.4,16.1-0.2,23.9-4.1c11.1-5.6,11.2-13.7,7.3-23.5c11.9,1.4,16.8,9.2,15.8,20
		c-1.2,13.1-12.3,11.2-20.9,10.9C224.2,484,214.8,487.3,206.8,481z"/>
	<path class="st41" d="M206.9,453.2c5.3,2.2,14.3-3.3,15.7,6.9c0.9,7.2-4.8,10.6-10.5,12c-8.7,2-15.6-0.2-16.5-10.8
		C198,456.6,201.6,453.8,206.9,453.2z"/>
	<path class="st42" d="M563.9,783.1c0.4,13.9-3.7,26.6-18,28.5c-14,1.8-24.3-6.8-26.6-22.2c-0.9-5.7-2.9-11.3-3.7-17
		c-1.6-12.9-1.2-26,14.7-29.2c15-3,24.7,5.9,29.8,19.1C562.6,768.8,562.7,776.1,563.9,783.1z"/>
	<path class="st43" d="M484.7,632.4c14.9,7.8,16.1,21.1,7.9,32.3c-9.6,13.1-20.7,3.3-29.8-4c-5-4-9.4-9-9.9-16.1
		C463.8,641.5,477.4,645,484.7,632.4z"/>
	<path class="st44" d="M484.7,632.4c-4.7,18.2-9.8,20.1-31.8,12.3c-3.2-6.6-2.3-12.4,4.1-16.2C467.1,622.6,476.2,625.6,484.7,632.4z
		"/>
	<path class="st45" d="M367.3,519c7.3-1.2,11.1,4.3,15.6,8.3c5.9,22.2-2.2,29.2-27.9,24.2c-9.9-5.3-21.9-9.3-15.6-24.8
		C359,537.4,359.4,537.3,367.3,519z"/>
	<path class="st46" d="M367.3,519c4.2,8,6.6,16.4-4.9,19.5c-10.2,2.7-20.6,2.3-23-11.9C345.7,513,356.3,515.5,367.3,519z"/>
	<path class="st47" d="M355,551.4c16.2-0.1,31.1-1.7,27.9-24.2c9.4,6.5,16.9,16.5,8.6,25.7C380.9,564.7,366.9,560.2,355,551.4z"/>
	<path class="st48" d="M527.3,781.3c-1-2.3-2.7-4.6-3-7c-1.2-8.7-4.6-19.5,7.2-22.6c9.8-2.6,16.9,3.6,19.5,13.8
		c1.5,2.3,1.8,4.8,1.7,7.4c-0.4,7.2-0.3,15.1-8.4,18.1C535.4,794.3,531.6,786.9,527.3,781.3z"/>
	<path class="st49" d="M527.3,781.3c18.2,11.6,22,9.1,23.7-15.9c3.3,2.7,4.2,6.5,3.9,10.3c-0.7,9,3.7,21.4-8.9,24.3
		C532.2,803.3,529.7,791.4,527.3,781.3z"/>
</g>
</svg>
