<?xml version="1.0" encoding="utf-8"?>
<!-- Generator: Adobe Illustrator 23.0.1, SVG Export Plug-In . SVG Version: 6.00 Build 0)  -->
<svg version="1.1" id="Layer_4" xmlns="http://www.w3.org/2000/svg" xmlns:xlink="http://www.w3.org/1999/xlink" x="0px" y="0px"
	 viewBox="0 0 1000 1000" style="enable-background:new 0 0 1000 1000;" xml:space="preserve">
<style type="text/css">
	.st0{fill:#06CA0C;}
	.st1{fill:#FE0000;}
	.st2{fill:#FE0101;}
	.st3{fill:#020201;}
	.st4{fill:#FE0D0D;}
	.st5{fill:#0BFE0A;}
	.st6{fill:#B7FCF9;}
	.st7{fill:#91B0C4;}
	.st8{fill:#596E76;}
	.st9{fill:none;}
	.st10{fill:#92B1C5;}
	.st11{fill:#FEFEFE;}
	.st12{fill:#2B5260;}
	.st13{fill:#B4F7F6;}
	.st14{fill:#071509;}
	.st15{fill:#262718;}
	.st16{fill:#8DACBF;}
	.st17{fill:#F6FEF6;}
	.st18{fill:#0AFA09;}
	.st19{fill:#0AF509;}
	.st20{fill:#B4F6F5;}
	.st21{fill:#B5A66A;}
	.st22{fill:#90AFC3;}
	.st23{fill:#635148;}
	.st24{fill:#90AFC2;}
	.st25{fill:#ACE8EB;}
	.st26{fill:#AF9F68;}
	.st27{fill:#586D75;}
	.st28{fill:#800101;}
	.st29{fill:#242517;}
	.st30{fill:#5B7079;}
	.st31{fill:#13E512;}
	.st32{fill:#596D75;}
	.st33{fill:#152A31;}
	.st34{fill:#8D97A7;}
	.st35{fill:#2A505E;}
	.st36{fill:#EA0201;}
	.st37{fill:#EBF8EB;}
	.st38{fill:#0CED0C;}
	.st39{fill:#F6FCF6;}
	.st40{fill:#635247;}
	.st41{fill:#EFF8EF;}
	.st42{fill:#E6EFE6;}
	.st43{fill:#D1DDD1;}
	.st44{fill:#EDFEED;}
	.st45{fill:#5C4B44;}
	.st46{fill:#5D6C4A;}
	.st47{fill:#16F115;}
	.st48{fill:#1F393B;}
	.st49{fill:#B1EEEE;}
	.st50{fill:#546870;}
	.st51{fill:#162C33;}
	.st52{fill:#8EADC0;}
	.st53{fill:#840202;}
	.st54{fill:#F1FCF1;}
	.st55{fill:#0DED0C;}
	.st56{fill:#DFEFDF;}
	.st57{fill:#F4FCF4;}
	.st58{fill:#14EF14;}
	.st59{fill:#574841;}
	.st60{fill:#5E4D44;}
	.st61{fill:#7594A6;}
	.st62{fill:#10F40F;}
	.st63{fill:#1DDC1D;}
	.st64{fill:#162B33;}
	.st65{fill:#E3F9E3;}
	.st66{fill:#8CABBE;}
	.st67{fill:#EEF7EE;}
	.st68{fill:#F5FDF5;}
	.st69{fill:#11DC10;}
	.st70{fill:#8FADC1;}
	.st71{fill:#18E917;}
	.st72{fill:#BFB06F;}
	.st73{fill:#9E905D;}
	.st74{fill:#87A5B9;}
	.st75{fill:#E1181A;}
	.st76{fill:#B6A76A;}
	.st77{fill:#0CF20B;}
	.st78{fill:#0FE60E;}
	.st79{fill:#0DDE0D;}
	.st80{fill:#F0B2B2;}
	.st81{fill:#576B76;}
	.st82{fill:#0CEC0B;}
	.st83{fill:#17E316;}
	.st84{fill:#7A0202;}
	.st85{fill:#23404C;}
	.st86{fill:#93B2C6;}
	.st87{fill:#13DC13;}
	.st88{fill:#082310;}
	.st89{fill:#08EF07;}
	.st90{fill:#FEC1C1;}
	.st91{fill:#172E36;}
	.st92{fill:#E50302;}
	.st93{fill:#AB9D65;}
	.st94{fill:#B3D7B3;}
	.st95{fill:#97855C;}
	.st96{fill:#FDFEFD;}
	.st97{fill:#060E09;}
	.st98{fill:#111718;}
	.st99{fill:#111717;}
	.st100{fill:#4A5E64;}
	.st101{fill:#030303;}
	.st102{fill:#0A1D0D;}
	.st103{fill:#15E114;}
	.st104{fill:#2B332F;}
	.st105{fill:#2B3439;}
	.st106{fill:#D6FAD5;}
	.st107{fill:#E3E9E3;}
	.st108{fill:#E92427;}
	.st109{fill:#182B1E;}
	.st110{fill:#354247;}
	.st111{fill:#113216;}
	.st112{fill:#1B3B25;}
	.st113{fill:#F21C1D;}
	.st114{fill:#12E812;}
	.st115{fill:#14E213;}
	.st116{fill:#092D0B;}
	.st117{fill:#F11213;}
	.st118{fill:#F90506;}
	.st119{fill:#0E1113;}
	.st120{fill:#040A06;}
	.st121{fill:#071208;}
	.st122{fill:#050B06;}
	.st123{fill:#050C07;}
	.st124{fill:#070D08;}
	.st125{fill:#090D0F;}
	.st126{fill:#0B130E;}
	.st127{fill:#92B2C6;}
	.st128{fill:#53696F;}
	.st129{fill:#52656E;}
	.st130{fill:#4D5F66;}
	.st131{fill:#F00101;}
	.st132{fill:#C40202;}
	.st133{fill:#91B0C3;}
	.st134{fill:#F8FCF8;}
	.st135{fill:#F7090A;}
	.st136{fill:#EBFBEB;}
	.st137{fill:#DD1514;}
	.st138{fill:#240C0B;}
	.st139{fill:#270E0D;}
	.st140{fill:#19140F;}
	.st141{fill:#0CF70B;}
	.st142{fill:#F3FBF3;}
	.st143{fill:#57473F;}
	.st144{fill:#B2A468;}
	.st145{fill:#EFFEEF;}
	.st146{fill:#0EF70D;}
	.st147{fill:#D5E5D5;}
	.st148{fill:#0CF90B;}
	.st149{fill:#F7FDF7;}
	.st150{fill:#0CFA0B;}
	.st151{fill:#F8FDF8;}
	.st152{fill:#0CF80B;}
	.st153{fill:#F7FCF7;}
	.st154{fill:#F7FEF7;}
	.st155{fill:#EBF9EB;}
	.st156{fill:#0FEE0E;}
	.st157{fill:#DCE8DC;}
	.st158{fill:#E8F3E8;}
	.st159{fill:#12F211;}
	.st160{fill:#0DF60C;}
	.st161{fill:#29362E;}
	.st162{fill:#F0F8F0;}
	.st163{fill:#17DA16;}
</style>
<g>
	<path class="st0" d="M566.4,253.6c-31.1-66-83.4-108.5-150.4-135.3c24.8-0.6,48.5,5.9,72.6,8.6c37.8,4.3,75.1,15.8,113.7,6.1
		c32.8-8.3,43.8-20.5,46.1-53.9c0.3-3.6,0-7.2,0-16.5c11,17,19.8,29.1,26.9,42.2c3.3,6,7.7,10.7,12.5,14.4
		c25.2,19.4,35.4,17,64.8-10.3c32.7-30.4,66.5-59.6,97.4-92c-5.2,12.3-17.3,23.2-23.6,37c-15.5,33.7-35.7,65.4-43.5,102.4
		c-3.6,17.2-2.7,33.2,11.1,45.7c6.9,6.3,13.7,8.7,25.3,6.2c42-9,71.6-36.8,102.7-62.4c17-14,31.5-31,47.1-46.6
		c5.2-5.1,9.9-11.1,20.6-11.6c-16,23.7-29.9,46.8-46.4,67.9c-16.5,21.2-29.5,44.1-41.3,68c-17.7,35.8-8.7,61.3,25.7,82.3
		c24.4,14.9,51.4,23.8,75.9,38c0,1.3,0,2.6,0,3.9c-19.6,9.3-41.4,9.5-62,14.8c-55.4,14.3-68.8,75.4-52.5,115.3
		c7.1,17.4,14.4,34.6,24.4,51.1c-42.1-26.2-72.1-70.6-124.8-79.1c-6.3,2.2-13.1,1.3-19.4,3.4c-14.4,1.1-28.8,2.4-40.1-9.5
		c0.7-8.9,8.1-11.4,14.6-13.8c26.5-9.8,53.4-16.6,82.1-11.1c6.2,1.2,16.4,5.9,14.9-7.1c-4-36.5,14.1-60.4,44.4-79.6
		c-29.7-16.4-58.7-33.1-45.7-75.8c-29.6,2.6-60.2,9.5-83.9-15.8c-14.9-15.9-20.7-40.4-16.4-70.6C708,189.6,677.7,200.2,653,157
		c-15.5,38.9-42.1,50.2-80.4,39.7c9.2,20.8,10.6,40.8,13.1,60.6c1.1,8.7,4.1,18.3-5.7,24.8c-5.7-0.9-7-5.8-9.1-10
		C569.2,266,565.9,260.3,566.4,253.6z"/>
	<path d="M772.5,447.6C772.5,447.6,772.5,447.6,772.5,447.6C772.5,447.7,772.4,447.7,772.5,447.6c-0.1,0.7-0.3,1.3-0.6,1.8
		c0,0,0,0,0,0c-0.9,1.6-2.6,2.6-3.9,3.9c-0.7,0.7-1.3,1.4-1.6,2.3c-0.5,1.3-1,2.6-1.5,3.8c-0.6,1.4-1.3,2.8-2,4.1
		c-2.2,4.3-4.9,8.3-8.6,11.6c-0.1,0.1-0.1,0.2-0.2,0.2c-0.6,0.7-1.3,1.4-1.9,2.1C691.3,542.7,618.4,594,550.6,651
		c-9.9,8.3-21,10-32.7,7.7c-2.3-0.4-4.6-1-6.9-1.7c-0.3-0.1-0.6-0.2-0.9-0.3c-14.3-7.3-28.7-14.6-33-31.8c-0.2-0.7-0.3-1.4-0.5-2.1
		c-0.1-1.2-0.2-2.3-0.3-3.5c-1.9-28.4,14.3-48.2,35.9-62.7c22-14.8,37.6-33.2,46.7-57.5c6.5-17.3,17-28.9,35-36.2
		c27.3-11.2,48.9-29.4,52.9-61.5c1-8.2,6.6-12.1,12.6-16.1c5.6-3.8,13-4.8,17.6-10.4c0.1-0.1,0.1-0.2,0.2-0.2
		c0.1-0.1,0.2-0.2,0.3-0.3c1.8-8.8-3.2-12.6-10.8-14.2c-0.9-0.1-1.8,0-2.7,0.1c0.5,0.7,1,1.6,1.4,2.4c-7.4,4.2-14.8,8.4-26.3,15
		c6.3-10.8,14.2-14.9,15.9-22.9c0.9,0.1,1.8,0.4,2.6,0.6c0-0.8-0.1-1.7-0.3-2.6c-4-5.8-9.4-5.5-15.2-3.7c-0.1,0.1-0.2,0.1-0.4,0.2
		c-0.6,0.3-1.3,0.8-1.8,1.2c-2.3,1.8-3.9,4.2-5.6,6.5c-0.3,0.5-0.7,1-1.1,1.5c-0.5,0.7-1,1.4-1.5,2.1c-1.1,1.6-2.2,3.1-3.3,4.7
		c-0.1,0.2-0.3,0.4-0.4,0.6c-0.4,0.5-0.8,0.9-1.2,1.4C569.6,432.8,512,497.8,449.1,558c-17.4,16.6-24.1,18.5-43.4,8.1
		c-1.4-0.7-2.9-1.6-4.4-2.4c-0.1-0.1-0.2-0.2-0.3-0.3c-11.2-9.1-20.4-19.9-27.3-32.5c-0.5-0.9-1-1.9-1.5-2.9
		c-0.1-0.1-0.1-0.2-0.2-0.3c-4.3-10.1,0.1-18.8,4.5-27.6c29-57.8,68.8-108,110-157.1c24-28.6,45.7-60.6,84.1-72.4
		c1-0.3,2.1-0.6,3.2-0.9c0-6.4-3.1-11.5-7.3-16c-32.2,4.5-54.1,23.8-73.7,48.2c-29.8,37-60.3,73.5-88.4,111.9
		c-20.4,27.8-31,65.9-72.4,73.1c-2.1,0.4-3.6,3.5-5.5,5.3c-22,21.2-37.3,46.8-40.4,76.9c-1.6,16.2-8.9,13.5-19.6,11.9
		c7.8-10.7,9.9-23.3,6.7-34.5c-6.2-21,5.8-34.9,16.8-48.4c10.7-13,15.1-24.3,4-38.8c-2.9-3.8-3.6-9.3-5.3-14
		c-1.2-0.9-2.5-1.2-3.9-0.9c-0.3,0.1-0.6,0.1-1,0.3c0,0-0.1,0-0.1,0.1c-3.1,1.8-5.6,4.1-7.3,7.1c-0.3,0.4-0.5,0.9-0.7,1.4
		c-0.2,0.4-0.4,0.9-0.5,1.3c-0.4,1.8-0.5,3.7-0.2,5.5c0,0.1,0,0.2,0.1,0.4c0.1,0.7,0.3,1.5,0.5,2.2c9.9,21.7-11.7,31.6-18.2,47.1
		c-4.1,9.8-11.9-1.7-18.5-0.7c-0.4,0.1-0.8,0.2-1.2,0.3c-0.1,0-0.3,0.1-0.4,0.2c-1.2,0.3-2.2,0.9-3.1,1.6c-0.1,0.1-0.2,0.2-0.3,0.3
		c-0.4,0.4-0.8,0.8-1.2,1.3c-1.6,3.3-1.7,6.6-0.4,10c0.1,0.4,0.3,0.7,0.5,1.1c0.1,0.1,0.2,0.1,0.3,0.2c13.7,8.4,25.1,18,18.3,36.7
		c-1.7-28.1-7.9-34.7-28-29.6h0c-0.1,0-0.3,0.1-0.4,0.1c-0.6,1.1-0.9,2.3-0.7,3.5c0,0.1,0,0.3,0.1,0.4c0.1,0.4,0.2,0.9,0.4,1.3
		c0.6,0.4,1.1,0.8,1.7,1.3c0,0,0,0,0,0c1.6,1.3,2.9,2.6,4,4c0,0,0,0,0,0c5.1,6.5,5.8,14.3,3.7,23.4c-3,12.9-4.4,25.6,11,32.9
		c5.3,2.5,4.6,5.8,2.7,9.2c-0.7,1.2-1.5,2.3-2.3,3.5c-0.4,0.3-0.9,0.6-1.3,0.9c-14.4,9.2-26.6,1.5-38.9-6.1c-0.4-0.7-0.7-1.3-1-2
		c0,0,0,0,0,0c-1.2-2.9-1.7-5.9-1.7-8.9v0c-0.2-9.1,3-18.4,0-27.3c-0.5-0.2-1-0.3-1.4-0.4c-0.1,0-0.1,0-0.2,0
		c-5.1-1.1-8.1,0.9-10.4,3.8c-1.3,1.6-2.3,3.5-3.4,5.3c0,0,0,0,0,0c-1.2,2-2.4,4-4,5.4c-3,5.2-5,10.7-5.5,16.8c0,1.6,0,3.1,0.2,4.7
		c1.2-1.6,2.3-3.3,3.5-4.9c2.1,28.9,25.7,32.8,46.5,38.8c18.5,5.4,21.7,13.1,9.8,28.5c-8.7,11.2-21.2,17.2-34.2,18.1
		c-23.1,1.6-45.8,2.3-65.5,18.5c17.2-15.4,11.8-32.2,4.3-49.2c0.3-0.3,0.7-0.5,1-0.8c-0.1,0-0.2-0.1-0.3-0.1
		c-1.4-0.5-2.8-0.7-4.4-0.4c-0.2,0.1-0.4,0.2-0.6,0.3c-0.5,0.3-1.1,0.6-1.6,0.9h0c-5.4,3.3-8.1,8.5-9.4,14.8c0,0,0,0,0,0
		c0,0,0,0.1,0,0.1c0,0.4,0,0.8,0,1.2c0,0.1,0,0.2,0,0.3c0,0.5,0,1-0.1,1.4c0,0,0,0,0,0c-0.6,6.4-2.8,10.2-6.5,11.6
		c-2.6,1-6,0.7-10.2-0.7c-1-0.3-2-0.7-3-1.2c-12.2-5.4-22.5-12.5-25.1-26.8c-0.1-1.4-0.1-2.6,0.1-3.7c0.1-0.6,0.2-1.2,0.3-1.7
		c1.3-4.9,5.4-5.5,10.3-4.7c0,0,0,0,0,0c0.5,0.1,0.9,0.2,1.4,0.3c0.7,0.1,1.4,0.3,2.2,0.5c3.5,0.6,7,0.6,10.2-1c0,0,0,0,0.1,0l0,0
		c0.1,0,0.1-0.1,0.2-0.1c0.3-0.2,0.5-0.3,0.8-0.5c0,0,0.1-0.1,0.1-0.1c2.4-1.9,4-4.4,5.2-7.2c0.2-0.6,0.3-1.3,0.4-1.9
		c0-0.3,0.1-0.7,0.1-1c0.1-0.7,0-1.4,0-2.2c-0.1-0.4-0.2-0.7-0.3-1c-0.1-0.2-0.2-0.5-0.3-0.7c-1-2.5-2.8-4.5-5.2-6
		c-27.9-11.1-55.1,5-57.4,34.7c-1.6,21.2-4.7,35.5-27.2,40.3c-2.2,0.5-3.4,5-5.3,7.5c-17.1,22.5-6.1,60.2,21.2,72.4
		c6.3,2.8,18.4,4.2,13.4,13.9c-7.8,15.5,0.2,27.3,5.5,39.3c9.1,20.5,25.5,36.3,40.2,52.8c23.1,25.8,52.2,43.5,82.4,60.3
		c64.1,35.5,129.3,61.8,205.1,49.8c41.9-6.6,49.5-15.6,36.3-55.6c-0.5-1.6-1.3-2.1,0.7-2.7c1.2-0.3,2.6-1,3.7-0.6
		c39.7,12.4,80,19.7,121.4,11.4c24.4-4.9,48.4-13.2,59.5-38c17.7-39.4,13.5-80.5,6.8-121.8c-5.3-32.7-34.1-58.5-26.8-95
		c0.8-4-6-9.2-8.4-14.3c-3.8-7.9-5.5-16.9,2.7-22.6c14.7-10.2,27.5-22.7,41.5-33.6c48-37.3,95.4-75.2,138.2-118.6
		c14.7-15,25.9-30.9,30.1-51.4C783.8,447.3,778.6,443.9,772.5,447.6z M420.4,782.3c-1.5-3.7-6-7-9.9-8.6
		c-8.4-3.4-12.6-11.5-10.8-17.5c1.8-6.1,7.8-13.3,16.7-14c9.3-0.8,19.4-1,23.2,8.9c2.8,7.3,7.9,14.8,5.6,22.1
		c-0.2,7.8,2,17-5.3,18.2C433.6,792.4,424.3,792,420.4,782.3z M447.5,840.5c31.3-9.5,39-35.4,44.2-62.1c2.9-14.9,6.1-16.3,19.5-9.4
		c32,16.6,49.9,60.8,35.5,93.9c-7.2,16.4-24.1,20.7-38.4,19.1c-32.3-3.6-63.9-12.7-94.3-24.9c-1.9-0.8-2.9-3.8-6.1-8.3
		C423.4,847.1,435.4,844.2,447.5,840.5z M552.1,481.2c-2,1.8-3.5,3.4-5.9,0.6c-1.6-1.9-3.6-3.3-0.7-5.8c8.9-7.4,14.9-18.4,28.7-24.3
		C567.7,464.6,560.7,473.5,552.1,481.2z"/>
	<path class="st1" d="M288.4,445.3c-1.1,0-2.2,0-3.2,0c-7.5-2-11.8-7-13.8-14.3c0-1.8,0.8-3.3,2.1-4.6c26-29.9,52.2-59.6,77.9-89.7
		c24.9-29.1,48.6-59.3,74.1-87.8c8.6-9.6,13.7-22.8,28.3-27.3c-18,24-36.2,47.8-54,72C362.6,344.1,325.5,394.7,288.4,445.3z"/>
	<path class="st2" d="M188.3,570.4c-0.7,3.9-2.1,7.9-4.3,11.9c-1.6,5.1-3.3,10.3-5,15.4c-1.2,1.6-2.3,3.3-3.5,4.9
		c-11.6,16.3-23.3,32.6-34.9,48.9c0.1,0,0.2,0.1,0.3,0.1c-0.3,0.3-0.6,0.5-1,0.8c-1,0-2,0.1-3,0.4c-1-0.1-2-0.3-2.9-0.6h0
		c-9.5-2.6-12.9-11.8-18.2-19c0-0.4,0-0.8,0-1.2c0-0.3,0-0.6,0.1-0.9c0.2-2.5,0.9-4.8,1.9-7c2.6-5.7,7.2-10.5,10-16.2
		c0.6-1.2,1.1-2.4,1.4-3.7c5.5-12.7,21.5-18.6,22.6-34.3c8.3-8.8,16.7-17.7,25-26.5c1-0.7,2-1,3-0.8c0.1,0,0.2,0,0.3,0.1
		c0.6,0.2,1.1,0.6,1.7,1.1C187.6,552.7,189.9,561.4,188.3,570.4z"/>
	<path class="st3" d="M179.5,543.4c-0.9-0.1-1.8,0-2.7,0.3c-3.3-11.1,0.1-20.8,8.6-27.5c10.8-8.6,12.2-20.8,13.4-32.2
		c6.4-59.9,17.1-68.5,74.6-57.5c0,1.1,0,2.1-0.1,3.2c-1.8,5.2-2,11.4-8.1,14.1c-1.7,0.8-3.5,1.3-5.4,1.6c-31.9-1.4-37.9,4-40,36.3
		c-0.3,4.5-0.1,9-0.9,13.4c-0.9,4.7-2.7,9-5.2,13C202.6,520.2,192.6,533.2,179.5,543.4z"/>
	<path class="st4" d="M151.8,570.1c8.1,8.6-0.7,13.4-4.7,18.8c-4,5.5-9.3,10.2-14.1,15.2c-7.2,8.9-11.2,20.9-23.7,24.8
		c-3.5-1.2-3.6-4.3-4-7.2C124.4,607.7,134.9,586,151.8,570.1z"/>
	<path class="st5" d="M898.9,331.8c-15.4,10.3-33.3,14.7-41.4,31.6c-7.5,15.7-17.1,30.3-10.5,49.4c4.2,11.9-2.2,16.3-14.1,13
		c-36.7-10-70.3,0.8-103.1,16h0v0c-9.9,3.2-12.9-2.3-13.4-10.8c0.4-0.5,0.8-0.9,1.2-1.3c0,0,0,0,0.1-0.1
		c24.9-27.3,55.6-38.3,94.1-32.1c-9.1-20.1-10.1-39.3,10.9-55.6c-11.5-3-23-3.9-28.1-15c-4.6-10.1,0-20,2.2-30.8
		c-31.9,24.3-34.8,24.9-49.6,11c-7.6,14.6-7.6,35.5-31.7,36.7c-5.2,0.3-4.1,7.3-5.6,11.4c-4.6,12.6-5.5,27-17.3,36.2
		c-0.5,0-0.9,0-1.4,0c-0.1,0-0.2,0-0.3,0c-10.3-0.1-13-7.5-14.2-16.4c0-0.1,0-0.2,0-0.4c-1.8-6-6-9.7-11.6-11.9
		c-0.4-0.9-0.9-1.7-1.4-2.4h0c-1.6-2.3-3.7-3.9-6.4-4.8c-0.8-0.3-1.7-0.5-2.6-0.6c-3-4.3-7.9-3.6-12.2-4.4c0,0,0,0,0,0
		c-1,0.1-2,0.2-2.8,0.1c-5.8-0.4-7.8-4.7-8.3-10.6c0,0,0-0.1,0-0.1c0.1-0.2,0.2-0.4,0.3-0.6c9.2-16.9,26.2-21.8,43-26
		c9.5-2.4,17-3.3,17-16.1c-0.1-12.5,12.5-15.4,20.7-21.2c8-5.7,17.2-9.2,26.3-12.5c2.4-1-1.2-3.1,0.3-1c0.3,0.4-0.3,0.6-1.5,1.2
		c-4.8,2.4-10,2.9-15.1,3.4c-23,2.1-31.1-8.6-23.4-30.8c1-3,3.1-5.6,2.5-9.1c-34,16.7-34,16.7-43.3-6c-4,12.4-8.9,23.2-17.4,31.6
		c-10.4,10.3-20.6,9.5-30.6-1.3c-2.5,19.2-2.4,39-16.5,54.2c-0.2,0.2-0.3,0.3-0.5,0.5c-0.1,0.1-0.2,0.2-0.3,0.3
		c-15.2-2.3-17.1-12-13.9-24.5c0-0.2,0.1-0.3,0.1-0.5c4.4-31.9-1.3-62.1-17.2-94.3c45.1,19.5,74.4,6.4,90-39.1
		c12.5,17.3,21.2,36.7,43.2,35c18.8-1.4,34.9-12.3,51.8-23.1c-16.3,61.3,14.6,114.4,103.2,86.9c-10.1,19-13.9,37-0.2,54.3
		C862.1,316.5,880.1,322.5,898.9,331.8z"/>
	<path class="st6" d="M632.9,340.3c0.7,5.8,6.8,6.3,9.7,10.1c-1.9,3-3.9,6-5.9,9c-16.3,5.6-27.5-5.2-40-12.1
		c-14.1-10.5-23.1-26.3-37.9-35.9c-63,47.3-111.8,107.1-152.7,173.8c-7.3,13.5-15.9,26.2-24.2,39.1c-4,3.7-7.4,8.6-14,6.7
		c-8.1-14.3-0.5-26.3,6.1-38.1c36.2-65.6,82.5-123.8,131.7-179.9c18.6-21.2,36.5-42.6,67.9-43.3c1.8,3.9,3.6,7.9,5.4,11.8
		c3.8,8.1,1.2,20.1,13.8,22.8C601.7,321.3,620.2,327.6,632.9,340.3z"/>
	<path class="st6" d="M676.8,374.5c6.7,3.6,5.6,14.1,14.1,16c7.9,13.8,17.2,26.6,26.9,39.1c0.3,7.8,5.2,10.9,12,12
		c13.3,8.2,28,6.2,42.5,5.9c-1.1,3.1-2.2,6.2-3.2,9.3c-3.1,6.4-8.7,8.4-15.2,8.8c-5.9,0.3-11.8,0.2-17.7,0.1
		c-23.8,1-37.3-14.9-50.7-31c-3.8-4.6-4.5-12.9-13.4-11.7c-3.1,1.2-6.2,2.4-8.5,4.7C621,471.5,574.7,511.5,533,556.1
		c-19.1,20.5-37.6,41.3-52.3,65.2c-1.7,2.7-4.1,5.1-8,3.6c-6.8-24.8,10.7-58.5,36.1-72.2c23.7-12.7,39-32.3,47-58.7
		c4.7-15.6,13.8-29.5,32.8-33.7c25.8-5.8,46.8-34.8,52.9-63.7C645,380.4,661.9,377.1,676.8,374.5z"/>
	<path class="st7" d="M331.7,773.8c-39.6-13.1-62.3-6.8-82.2,22.9c-4.7,1.1-5.6-2.6-7-5.7c-1.1-3.2-2.2-6.3-4.5-8.8
		c-12.5-9.9-25.8-18.6-38-28.8c-6.1-5.6-15.2-9.3-12.7-20.2c8-8.6,16.8-16.2,26.2-23.2c5.5-4.1,11-8.1,15-9.8
		c-6.9,3.9-16.6,7.1-27.1,8.2c-17.7,1.9-34.3,6.8-48.4,18.6c-4.6,3.9-10.2,9.1-17.1,2.9c15.7-19.9,35.2-31.2,61.7-30.8
		c25.1,0.3,43.9-13.6,59.6-32.1c13-2.4,17.3-18.7,31.2-19.6c1.5,1,2.5,2.4,3.1,4.1c1.2,5.7,1.9,11.5,2.6,17.3
		c2.3,3.5,6.9,4.3,8.9,8.1c1.1,2.6,1.2,5.3,0.6,8c-2.5,5.7-6,9.7-13.1,7.7c-5.7-2.3-5.9-12-15.4-10.7c1.3,8.3,8.5,6.3,12.9,8.5
		c1.4,1,2.5,2.3,3.2,3.9c-0.6,7.5-4.3,14.4-4.4,22c-14.7,7.7-16.2-9.1-23.6-12.7c1.4,14.9-12.7,17.5-20.7,25c-2.6,1-5.2,1.3-7.9,0.8
		c-1.2,0.3-3.4-0.8-3.3-0.7c5.6,6.1,10.2,13.3,17.6,17.6c9.8,7.2,18.2,18.1,32.8,12.2c9.5-2.4,19.3-1,29.2-1.8
		c-0.1-6.6-6.1-8.1-8.7-12.1c-3.2-6.3-15.6-10-6-20.1c8.1,0.4,16.2-1.9,24.2,0.7c3.7,2.1,2.7,8.1,7.7,9.5c1-5.7-5-8.3-5.5-13.2
		c1.6-8.6,6.5-13.2,15.5-12.6c2.8,0.6,6.9,4.4,7.6,2.8c1.6-4-4.2-4.6-6.1-7.4c-3.3-8.6,4.7-12.5,7.6-18.6c2-3,4.2-5.9,7-8.2
		c5.4-3.9,10.1-3.1,13.9,2.4c2.3,6.1-2.8,15.8,8.5,17.5c6.6,0.2,15.2-3.8,16.3,7.8c-0.3,3.8-1.9,7.1-3.8,10.2
		c-4.2,6.1-9.7,10.8-15.7,15c-9.4,9.2-23.3,14.6-24.8,30.3c0.9,1.3,1.9,2.5,3,3.6c4.5,3.3,7.5,0.4,10.7-2.3
		c12.9-12.4,24.2-26.1,33.1-41.7c2.7-4.4,6.3-7.6,11.8-7.5c10.2,3.2,15.4,9.5,12.7,20.7c-22.9,15.2-39,38.1-60.8,54.6
		C347,789.1,341.5,777.3,331.7,773.8z"/>
	<path class="st8" d="M632.2,366.8c-58.5,71.1-121.7,137.7-187.7,201.7c-16.1,15.7-31.5,9.4-46.9-1.4c2.3-4.7,7-5.7,11.2-7.5
		c22.9-10.8,33.8-31.7,44.4-52.9c2.8-5.8,5.9-11.3,10.9-15.6c27.6-8,35.1-34.4,49.7-54.2c1.5-2,1.9-4.8,3-7.2c2.7-4.8,5.6-9.4,10-13
		c21.9-5.3,28.5-27,43-40.2c5.2-4.7,7.3-12.3,12.8-17.1C600.7,351.9,616.2,360.7,632.2,366.8z"/>
	<path class="st9" d="M546.7,863c-7.2,16.4-24.1,20.7-38.4,19.1c-32.3-3.6-63.9-12.7-94.3-24.9c-1.9-0.8-2.9-3.8-6.1-8.3
		c15.5-1.8,27.5-4.7,39.6-8.3c31.3-9.5,39-35.4,44.2-62.1c2.9-14.9,6.1-16.3,19.5-9.4C543.2,785.7,561.2,829.9,546.7,863z"/>
	<path class="st8" d="M757.8,476.6c-22.1,30.1-50.9,53.5-79.4,76.9c-40.6,33.4-81.8,66.3-122.5,99.6c-14.8,12.1-30.5,16.2-48.3,7.3
		c2.7-4.1,7.2-5.2,11.3-6.9c21.6-10.8,37.4-27.5,49.4-48c2.5-4.8,5.2-9.4,9.6-12.8c25.2-10.9,41.9-30.1,53.9-54.2
		c3.6-4.2,8.2-7.1,12.9-9.8c25.3-13.5,43.9-33.6,57.4-58.8C720.7,471.8,739.6,471.1,757.8,476.6z"/>
	<path class="st10" d="M644.1,532c-2.5,4.9-6.5,7.5-11.9,7.8c-14.6,0.9-21.7-10.3-29.3-19.3c-7.4-8.9-13.1-8.6-20.3-0.8
		c-3.5,3.8-7.3,7.2-11,10.9c-25.1,25.6-25,31.4,1.1,55.5c2.4,2.2,4.7,4.4,5.3,7.8c0.9,6.7-3.2,10.1-8.5,12.6
		c-15-0.6-24.4-11.2-33-21.1c-8-9.3-13.2-7.6-19.7,0.3c-3.3,4-6.2,8.2-9.1,12.4c-20,29.4-19.8,30.4,7.6,51.7
		c2.1,1.6,3.5,3.7,4.2,6.3c-2.4,6-7.8,3.2-12,4.1c-16.4-7.1-32-15-34.9-35.4c49.6-78.6,123.6-134.3,187.1-199.9
		c3.1-3.2,7.6-4.9,11.4-7.4c8.3,1.9,9.3,9.9,13.1,15.6c10,14.8,22.1,26.9,40.8,29.7c9.4,2.3,18.8,3.5,27.9-1.4
		c5.7-0.5,11.4-0.9,16.2-4.7c0.5,9.1-5.4,14.4-11.4,19.6c-20,4.5-39.5-1.2-59.1-3.3c-13.8-2-22.8-11.4-31-21.1
		c-6.3-7.4-10.7-7.4-17-0.7c-6.2,6.6-12.9,12.7-19.1,19.2c-18.9,19.8-23.6,20.6,1,46.8C636.9,522,643.8,524.3,644.1,532z"/>
	<path class="st9" d="M235.4,665c-8.7,11.2-21.2,17.2-34.2,18.1c-23.1,1.6-45.8,2.3-65.5,18.5c17.2-15.4,11.8-32.2,4.3-49.2
		c0.3-0.3,0.7-0.5,1-0.8c-0.1,0-0.2-0.1-0.3-0.1c11.6-16.3,23.3-32.6,34.9-48.9c1.2-1.6,2.3-3.3,3.5-4.9
		c2.1,28.9,25.7,32.8,46.5,38.8C244,641.8,247.3,649.6,235.4,665z"/>
	<path class="st11" d="M133.7,703.3c0.7-0.6,1.4-1.2,2-1.7C135.1,702.2,134.4,702.7,133.7,703.3z"/>
	<path class="st11" d="M141,651.6c-0.3,0.3-0.6,0.5-1,0.8c0.2-0.3,0.4-0.6,0.6-0.9C140.7,651.5,140.8,651.5,141,651.6z"/>
	<path class="st10" d="M632.2,366.8c-11,1.9-21.3-1.9-31.5-4.7c-7.3-2-13.4-2.4-19.5,2.1c-15.3,2.5-21.1-10.7-28.9-19
		c-9.3-10-15.9-10.1-25.4-0.6c-34,34-35.5,36-2.9,64.9c2.4,2.1,4.6,4.6,3.4,8.3c0.6,6.3-2.3,10.2-8.2,12.1
		c-15.7,0.2-23.4-12.4-33.1-21.4c-6.7-6.3-11-6.7-17.1,0.8c-8.6,10.6-17.4,20.9-24.8,32.5c-8.5,13.3-7.5,23.7,4.7,34.1
		c5.7,4.9,13.7,8.1,15.6,16.7c1.8,7.3-5.5,10.1-7.5,15.5c-10.2,1.7-14.6-6.7-19.9-12.3c-9.8-10.3-19.1-19.9-34.8-11.4
		c9-27.1,29.1-47,46.2-68.5c26.9-33.7,54.8-66.9,87.6-95.4c6.7-5.8,14.6-8,21.7-12.3c11.8,13.4,23.2,27.2,39.7,35.3
		c12.5,6.6,25.3,12.7,39.2,15.7C635.3,361.9,633.7,364.4,632.2,366.8z"/>
	<path class="st8" d="M331.7,773.8c11.3-0.9,17.5,10.6,28,11.6c14.8,31.2,54.6,40.2,77.9,17.7c23.6-22.7,16.8-54.1-14.1-64.9
		c-2.5-0.9-4.7-2.2-5.9-4.7c1-9.9-3.9-15.4-13.2-17.7c-4.5-3.8-11.7-3.3-14.8-9.3c-1.5-16.5-11.7,1.3-16-4
		c-0.9-6.7,0.3-12.8,5.4-17.6c15.9,11.2,32.2,21.8,47.6,33.6c17.4,13.4,37,21,59.9,24.6c-7.8,17-12.6,34.2-17.6,51.3
		c-7.2,24.4-26.1,34.2-49.6,37.2c-6.3,0.8-12.6-0.6-18.4,4.3c-4.8,4.1-4.6,18.1-13.1,12.3c-11.7-8-28.5-13.3-31.8-29.1
		C352.2,801.2,344.1,786.6,331.7,773.8z"/>
	<path class="st12" d="M347.5,499.4c2.2-5,7-4.8,13.3-6.3c-17.4,43.1,13.1,64.6,39.1,86.6c16.3,13.7,33.2,11,51.2-2.8
		c6.1-4.7,11.8-9.8,17.7-14.7c5.6,2.7,7,6.9,4.4,12.4c-20.9,37-18.3,56.6,10.8,82.1c1.2,3.9-1.4,4.9-4.3,5.6
		c-25.5-5-43.4-22.6-61.9-38.6c-31.9-27.7-63.4-56.1-76-98.8C338.8,515.2,345.2,507.7,347.5,499.4z"/>
	<path class="st13" d="M135.8,730c1.3,0,3.1,0.7,3.7,0.1c25.8-25.2,60.4-25.1,96.9-34.1c-18.5,15.1-30.8,30.8-49.6,38.8
		c-4,1.6-7.6-0.4-11.4-1c-17-2.3-24.2,6.4-19.7,23.8c7.8,12.4,7.7,23-7.1,30.1c-3.3,0.4-6.2-0.6-9.2-2.2c-5.1-2.9-7.8-13.1-15.5-7.3
		c-6.6,5-6.3,13.8-5.2,21.7c1.3,9.2,8.5,15.9,11,24.7c2.1,9.2,11.1,17.6,2.9,27.8c-7-2.8-10.4-9.3-15-14.6
		c-31.2-36.2-31.1-54.4,0.6-90.3C123.8,741.4,129.9,735.8,135.8,730z"/>
	<path class="st14" d="M125.4,823.5c-7.3-11.9-17.6-22.6-11.6-38.9c6.2-16.8,13.2-18.7,25.1-5.2c2.6,2.9,4.1,6.5,8.7,6.4
		c7.5,1.2,12.4,6.4,17.6,11.2c34.8,31.4,75.4,53.4,117.4,73.2c17,5.8,36.9,4.5,49.8,20.3c-1.4,1.1-2.8,2.3-4.3,3.4
		c-7.3,6.8-15.1,2.1-21.9-0.2C245.9,873.1,190.4,844,143,800.5c-3.8-3.5-6.6-14.9-15.7-5.8c5.1,19.8,20.1,31.3,35.5,42.3
		c33.3,23.8,68.9,43.8,106.7,59.7c6,2.5,14.8,2.6,14.8,12.5c-3.6,1.1-7.3,2.2-10.9,3.3c-0.6,0.8-1.1,1.5-1.7,2.3
		c-32.9-6.6-60.7-24.3-88.7-41.2C160.9,860.3,138.9,846.7,125.4,823.5z"/>
	<path class="st8" d="M551.2,687.6c-1.6,2.8-3,5.7-4.9,8.3c-32.6,45.1-71.7,51.6-120.6,7.9c-0.5-9-13.3-11-12.1-21.1
		c5.2-5.9,11.1-10.9,17.6-15.2c4-2.6,8.5-3.5,12.8-0.7c4.7,3.2,4.2,8.1,2.2,12.2c-4.5,9.2-2.8,15.7,5.9,21.4
		c8.4,5.4,15.7,4.6,23.2-1.2c2.6-2,5.2-3.9,8.2-5.2c9.2-4,17.2-0.3,22.7,6.3c7.1,8.6-3.4,11.7-7.1,16.5c14.6-13.2,14.1-17.2-5-24.4
		c-12.1-4.6-24.6-8-33.9-17.7c1.5-5.6-8-10.2-1.4-16.2c11.2-1.4,18.6,7.1,27.6,11.1c9.9,4.4,19.5,9.2,30.4,10.7
		c8.2,2.4,16.6,1.5,25,1.7C545.4,682.2,551.4,679.9,551.2,687.6z"/>
	<path class="st15" d="M171.7,894.7c23.1,5.8,41.9,20.3,62.2,31.5c47,25.8,96.2,36.5,149.3,31.1c-12,17.2-31.1,12.9-47.7,15.5
		c-7.3,1.1-15.3-2-22.1,3.2c-28.7,0.3-53.3-13.7-79.1-23.3c-16.2-6.1-31.4-14.9-47-22.4c2.8-7.8-1.7-13-6.3-18.4
		C176.7,906.9,169.7,903.1,171.7,894.7z"/>
	<path class="st16" d="M281.1,871.2c-50.9-18.6-96.3-45.6-133.5-85.5c11-7.6,11.5-16.8,4.4-27.3c8-4,11.6,3,16.3,6.7
		c15.1,12.1,29.9,24.7,46.4,35c16.4,10.2,16.4,10.3,24.9-8c1.2-2.5,3.1-4.1,5.8-4.4c1.4,3,2.7,6,4.1,9c-10.8,39.7-2.6,56,35.5,70.8
		C285.8,871,285.2,872.9,281.1,871.2z"/>
	<path class="st8" d="M273.3,912.5c15.7,8,32.4,13,49.2,18c17.5,5.2,24.3-1.1,25.6-17.8c0.4-5.1,2.1-10,3.6-16.7
		c10.6,5.5,20,11,29.8,15.4c12.2,5.4,8.9,16.2,9,25.3c0.2,10.5-8.7,11.7-16.5,12.6c-44.5,4.8-86.2-3.5-124.8-26.5
		c5.9-9,16.7-4.2,24.3-8.6L273.3,912.5z"/>
	<path class="st17" d="M284.3,909.2c-44.7-20.8-89.8-41-128.9-71.8c-14.6-11.6-29.1-23.3-33.9-42.7c8.6-9,14,0.1,18.3,4.5
		c42.6,43.8,95.5,70,151.8,90.8c11.6,4.3,23.8,6,35.4,10.2c11.5,4.2,15.2,11.2,7.2,21.9C316.5,921.7,301.2,912.4,284.3,909.2z"/>
	<path class="st18" d="M334.1,922.3c8.8-16.7-5.7-16.6-14.5-18.8C261.3,888.3,208.1,863,161,825.2c-9.5-7.7-17.9-16.8-27-25
		c-3.5-3.2-5.9-9.3-12.6-5.5c0.7-16,6.9-16.5,17.1-6.1c44.5,45.4,98.2,75.8,157.8,96.5c10.3,3.6,21.2,5.8,31.8,8.6
		C344.9,900.2,345.9,904.9,334.1,922.3z"/>
	<path class="st7" d="M273.4,914.3c-3.7,15.3-16.5,4.7-24.3,8.6c-41.2-19.6-81.9-40-116.5-70.4c2.5-10.9-7.3-18.6-7.3-28.9
		C168,864.8,219.4,891.7,273.4,914.3z"/>
	<path class="st19" d="M341,827.6c31.9,21.9,61.9,46.8,100.7,57.3c18.8,5.1,37.6,9.6,56.9,12.2c41.9,5.7,60.2-7.6,68.6-49.3
		c8.6,1.1,6.7,8.1,7.8,13.5c-0.4,7.5-0.9,15.1-3.6,22.3c-5.3,6.6-10.2,13.6-17.8,18c-12.5,5.9-25.6,10-39.4,11.6
		c-14.1-0.7-28.1-2.2-41.8-5.4c-13.8-2-26.6-7.3-39.7-11.6c-8.9-3.1-17.9-6-26.8-9.3c-13.8-7.3-27.2-15.1-39.8-24.4
		c-5.4-4.8-11.4-8.8-17.5-12.6c-6.6-7.6-21.9-8.3-18.9-23.6C333.7,824.6,337.4,826.3,341,827.6z"/>
	<path class="st20" d="M347.5,499.4c3.3,8.7-5,15.8-3.4,24.2c2.7,7.5,4.4,15.2,7,22.7c0.8,4.8,1.5,9.6-0.9,14.2
		c-1.6,2.3-4.3,4-6.3,1.9c-10.1-10.4-13.5-3.3-16.4,5.8c-3.2,10.1,3,20.1,0.3,30.2c-2.4,5.2-3.2,12.2-11.6,11.1
		c-15.8-14.1-14.2-31.9-10.2-49.8C311.7,534.1,326.2,514.4,347.5,499.4z"/>
	<path class="st21" d="M152,906.7c-33.9-25.1-65.2-52.4-82-92.6c-6.6-15.7-3.2-27.3,14.3-35.8c-3.1,26.1,7.6,46.2,21.6,65
		c10.1,17.7,29.2,26.6,41.8,41.8c4.1,4.9,9.8,8.7,11.9,14.9C161.9,906.9,159.4,909.9,152,906.7z"/>
	<path class="st22" d="M316.1,609.5c2.8-4,5.5-8,8.3-12c1.4-1.2,3-1.4,4.7-0.8c6,4.7,11.2,10.4,16.6,15.7c4.4,6.2,8.2,12.8,13,18.8
		c6.7,7.9,14,15.2,24.1,18.8c5.4,3.2,9.6,7.7,13.8,12.2c4.5,8.3,14.8,11.9,17.2,21.7c4.7,6.2,17.4,7.6,11.8,19.9
		C383.4,679,345.4,649.3,316.1,609.5z"/>
	<path class="st23" d="M152,906.7c6.1-1,7.6-3.1,2.5-8.1c-11.9-11.6-23.8-23.2-35.2-35.3c-5.5-5.8-13.4-10.4-13.4-20
		c21.9,17.1,43.9,34.2,65.8,51.4c6.3,7,12.8,13.8,18.9,21c5.3,6.1,8.4,12.2-3.4,14.5C175.3,922.6,161.5,917.8,152,906.7z"/>
	<path class="st24" d="M246.7,613.7c-0.6,4.6-1.5,10.1-7.7,8.4c-13.3-3.7-28.4-2.2-39.5-12.9c-0.9-21.4,8.2-41.6,7-63
		c1.4-5.8,4.5-9.8,10.9-10.2c8.8,0.4,12.7,4.9,11.5,13.8c-0.7,5.7-0.8,11.6-2.3,17.2c-4.3,15.5-0.8,27.8,13.8,36.2
		C244.1,605.2,248.1,608.1,246.7,613.7z"/>
	<path class="st25" d="M289.3,649c-6.7,5.8-13.3,11.6-20,17.3c-3.8,3.2-7.6,8-12.2,0.8c8.5-18.1,17.6-35.6,29.1-52.1
		c7.9-11.3,13.3-11.7,19.4,1c1.6,3.4,4.6,6.2,6.9,9.3c1.9,4.2-1.4,6.2-3.7,8.6c-1.2,1.2-2.5,2.3-3.8,3.5
		C299.5,640.7,297.7,649.3,289.3,649z"/>
	<path class="st26" d="M313.3,976c0.9-10.4,9.1-7.3,14.9-7.7c18.8-1.4,37.4-3.6,54.9-11c8.4,0.7,13.7-6.3,21.7-9.3
		c5,12.5,2.2,19.5-10.7,23.9C367.5,981.2,340.5,979.4,313.3,976z"/>
	<path class="st27" d="M246.7,613.7c-26.6-11.6-32.7-31.4-24.3-58c1.7-5.2,8.2-13.8-3.1-17.9c-0.1-2.1,1-3.2,3.1-3.3
		c20.3,3.4,17.1,17.2,13.9,31.1c-5.4,23.2-4.2,25,19.5,29.9C256.4,603.4,250,607.8,246.7,613.7z"/>
	<path class="st28" d="M222.4,534.5c-1,1.1-2.1,2.2-3.1,3.3c-3.4,2.3-9.2,2.1-8.4,8.5c-4.4,6.5-1.5,17.2-12,20.1
		c-5,5.3-10,10.6-15,15.9c3-13.5-1.7-26.1-4.4-38.9c6.9-14.8,18.5-25.5,30.8-35.6c9.3-6,17.7-6.6,24.2,4.1
		c-0.1,3.5-0.2,6.9-0.3,10.4c-0.9,1.7-2.4,2.5-4.3,2.2c-15.7-7.2-25.2-0.4-30.9,14.6c5.9-5,10.8-11.8,19.8-10.6
		c1.8,0.5,3.3,1.4,4.5,2.8C222.9,532.3,222.6,533.4,222.4,534.5z"/>
	<path class="st29" d="M276.1,460.3c10.5,7.9,10.9,16.4,2.4,26.2c-4.6,5.3-10.3,10.8-12.3,17.2c-5.8,18.8-15.8,17.1-28.5,7.6
		c-2-12.6,9.3-18.6,13.9-28c6.7-7.3,11.2-16.4,19.2-22.5C272.5,459.9,274.3,459.8,276.1,460.3z"/>
	<path class="st30" d="M585.5,451.6c-5.7-1.8-10.6-4.7-4.3-11.8c12.4-14.1,25.1-28,37.7-41.9c2.9-3.2,6.2-5,10-1.6
		c2.8,2.5,5.9,4.9,5.6,9.5C633.7,415.5,595.8,451.8,585.5,451.6z"/>
	<path class="st31" d="M570.7,863.7c-1.1-5.3,1.4-11.4-3.5-15.8c1-30.5-7.1-58.4-23.3-84.1c-4.6-7.3-8.5-14.6-2.9-23.2
		c11.6,0.7,10,13,16.3,18.4c3.5,6.1,9.4,5.8,15.2,5.6c0.7,0.5,1.4,1,2.1,1.5c-1.2,2.1-2.4,4.2-3.5,6.3c-0.5,12.7,2.7,24.7,7.4,36.4
		c1.9,11.6,1.3,23.3,1.3,35C578.4,851.3,581.4,860.7,570.7,863.7z"/>
	<path class="st32" d="M495.2,539.8c-8.5-7.3-0.5-11.5,3.5-15.6c10.6-10.6,21.7-20.6,32.7-30.8c2.8-2.6,5.4-6.2,9.9-3.1
		c3.4,2.3,5.3,5.5,5,9.9c-0.9,10.8-31.1,44.3-42,46c-1.4,0.2-3.2-1.8-4.8-2.8c2.9-10.2,12.6-14.8,18.5-21.8
		C510.3,526.9,505.5,536.7,495.2,539.8z"/>
	<path class="st33" d="M551.2,687.6c-11.9-3.6-24.8,4.8-36.4-2.9c-10.4-9.6-29.6-6.7-34.5-24.2c1.2-1.3,2.4-2.6,3.5-3.9
		c22.2,16.2,45.9,21.5,74.7,6.6C554.8,673.5,556.7,681.4,551.2,687.6z"/>
	<path class="st34" d="M304.7,632.8c2.6-2.6,5.2-5.1,7.8-7.7c7.8,7.8,15.5,15.7,23.3,23.5c1.1,0.9,1.5,1.8,1.4,2.9
		c-0.2,1.1-0.4,1.7-0.7,1.7c-13.2,4.9-19.5,20.1-34.1,22.9c-4.7-0.3-9.9,1.1-13.5-3.6c8.4-6.7,8.9-13.4,0.2-20.2
		c0-1.1,0.1-2.2,0.2-3.3C294.9,644,297,635.8,304.7,632.8c3.3,1.6,4.7,5.2,7.9,7.3C311.9,635.3,307.1,635.4,304.7,632.8z"/>
	<path class="st35" d="M120.9,726.6c-6.8,8.7-12.9,17.9-20.5,25.8c-3.4,3.5-4.3,13.6-11.7,9.4c-6.8-3.8-11-11.3-6.3-20.1
		c2.1-4,4.7-7.7,7.1-11.5C104,715.1,107.5,714.7,120.9,726.6z"/>
	<path class="st36" d="M254.3,484.5c-2.1,11.1-13.2,16.6-16.6,26.8c-1.1,0.1-2.2,0.2-3.2,0.5c-7.4-5.3-15.9-3.7-24.2-4.1
		c1.5-3.5,3-7,4.5-10.5c3.2-6.1,5.7-12.7,12.2-16.2C236.9,476,246.4,474.4,254.3,484.5z"/>
	<path class="st12" d="M66.2,691.7c2.6,2.5,5.3,5,7.9,7.5c8.7,22.4-2.1,42.2-23.6,43.2c-3.8-3.1-6.5-7-7.6-11.9
		C48.5,716.3,56.1,703.3,66.2,691.7z"/>
	<path class="st37" d="M367.1,859.5c13,8,26,16.1,39.1,24.1c1.2,3.7-0.6,5.7-3.9,6.9c-1.9,1.4-3.8,2.9-5.7,4.3
		c-14.2,2.3-23.7-5.5-32.2-15.1c-0.5-1.4-0.9-2.7-1.4-4.1C358.9,868.8,359.5,863.3,367.1,859.5z"/>
	<path class="st38" d="M341,827.6c-4.2,0.3-8.4,0.6-12.6,1c-5.3,4.5-10.7,3.6-16,0c-9.8,1.7-4.4,12.4-10.3,17.1
		c-9.7-8.4-12.4-17.6-3.2-27.9c8.2-9.2,18.1-8.7,27.7-2.5C331.9,818.6,336.3,823.5,341,827.6z"/>
	<path class="st39" d="M575.2,843.7c-0.5-12.8-0.9-25.6-1.4-38.5c-1.5-4.4-3.1-8.9,4.5-8.5c2.6,0.3,5.3,0.7,7.9,1
		c12.6,16.5,12.7,34,0.5,49.5l-0.9,0.5C580.1,851.8,577.2,848.9,575.2,843.7z"/>
	<path class="st40" d="M558.7,714.9c-11.2,11-27.8,17.8-27.9,37.1c0,3-1.7,4.9-4.9,4.2c-4.4-1.1-8.5-3-10.9-7.4
		c-2.7-5-0.5-8.6,3-11.9c10.8-10,21.7-20.1,32.5-30.1C554.4,708.3,557.1,711,558.7,714.9z"/>
	<path class="st41" d="M515.1,908.8c13.2-3.6,26.5-7.2,39.7-10.9c6.2,0.7,6.6,4,4,8.7c-0.2,1.2-0.2,2.3-0.1,3.5
		c-9,14.7-23,16.6-38.4,15.1c-1.6-1.2-3.1-2.4-4.7-3.6C511.8,917.5,512.7,913.2,515.1,908.8z"/>
	<path class="st42" d="M312.4,828.6c5.3,0,10.7,0,16,0c7.8,6.3,15.7,12.6,23.5,18.9c-3.5,6.6-8.1,11.7-16.1,12.2
		c-1.1-0.3-2.2-0.5-3.3-0.5c-9.4-1.9-17.1-6-20.1-16C312.4,838.4,312.4,833.5,312.4,828.6z"/>
	<path class="st43" d="M433.4,891.7c13.2,4,26.5,8,39.7,12c3.8,4.7,3.7,9.3-0.5,13.8c-2.1-0.2-4.3-0.5-6.4-0.7
		c-12,9.4-20.6,2-29.1-5.9c-2.6-2.3-0.7-8.8-7-7.7C426.5,898,430.1,894.9,433.4,891.7z"/>
	<path class="st44" d="M472.6,917.4c0.2-4.6,0.3-9.2,0.5-13.8c14,1.7,28,3.5,42,5.2c0.2,4.3,0.4,8.5,0.5,12.8c-1.2,1-2.4,2-3.6,2.9
		c-14.2,5-27.7,5-39.6-5.9L472.6,917.4z"/>
	<path class="st45" d="M34.9,738.6c10.3,7.1,18.2,18.9,33.3,16.2c3.6-0.6,6.4,1.8,5.3,5.9c-1.6,5.7-6.8,8.4-11.8,8.3
		c-14.4-0.4-25.4-7.6-33.5-19.4C31.4,746.4,30.9,741.1,34.9,738.6z"/>
	<path class="st46" d="M231,522.6c1.1,0.1,2.2,0,3.3-0.3c12.4,2.4,22.1,8.2,23.7,21.9c1.3,11.6,2,23.4-12,29.7
		c-0.4-40.7-0.4-40.7-22.6-42.5c0,0-1.2-1.3-1.2-1.3C222.8,524.7,226.4,523.1,231,522.6z"/>
	<path class="st47" d="M586.6,847.3c8.4-16.6,2.5-33-0.5-49.5c7.7-3.2,12.3-0.9,13.1,7.6c0.9,9.5,1.1,19.1,2.5,28.5
		C603.7,846.8,597.6,849.5,586.6,847.3z"/>
	<path class="st48" d="M261.4,823.2c0.2-2.3,0.5-4.6,0.7-7c4.2-2.5,9.2,0.1,13.5-2c4.1-2.8,6.8-6.9,9.8-10.7
		c2.4-3.3,3.7-7.2,5.8-10.7c4-4.3,8.8-7.5,14.5-9c1.8,0,3,0.8,3.6,2.5c0,9.3-1.1,17.6-10.9,22.7c-10.3,5.3-9.8,19-18.4,25.9
		C274.5,830.1,264.5,832.1,261.4,823.2z"/>
	<path class="st49" d="M198.9,566.4c4-6.7,8-13.4,12-20.1c1.5,21.9-2.4,42.9-11.4,62.9C188.2,595.1,198,580.7,198.9,566.4z"/>
	<path class="st50" d="M281.1,871.2c1.3-1.2,2.5-2.5,3.8-3.7c19.5,0,37.5,4.8,52.5,18c2.5,2.2,2.4,2.3-5,4.9
		C315.3,884,298.2,877.6,281.1,871.2z"/>
	<path class="st51" d="M50.6,742.5c20.6-7.5,24.8-23.9,23.6-43.2c11.4,5.8,20.1,12,5.9,24.4c-3.1,2.7-4.2,7.8-5.7,12
		C69.6,749.2,62.3,753.4,50.6,742.5z"/>
	<path class="st52" d="M409.8,563.1c-3.1,4-7.8,3.7-12.1,4.1c-12.8-9.7-20.9-23.3-29.6-36.3c3.5-2.5,7.1-5.1,10.6-7.6
		C387.3,537.9,403.9,546.4,409.8,563.1z"/>
	<path class="st53" d="M117.6,631.9c6.5,7,12.9,13.9,19.4,20.9c-3.1,5-6.2,9.9-9.4,14.9c-1.6,1-3.2,0.9-4.7-0.3
		c-6.2-7.1-13.1-13.7-17.6-22.2c-0.7-1.6-1-3.3-1.1-5c0.9-3.1,1-6.7,5.2-7.4C112,630.6,114.7,630.4,117.6,631.9z"/>
	<path class="st54" d="M335.8,859.7c5-4.5,8.5-11.1,16.1-12.2c6.1,2.8,11.6,6.2,15.2,12c-3.1,4.9-4.4,10.3-4.1,16.1
		c0,0-1.5-0.4-1.5-0.4l-1.6,0.2c-11,2.1-16.6-5.9-23.2-12.2C336.2,862.1,335.9,861,335.8,859.7z"/>
	<path class="st55" d="M588.7,851.8c8.2-0.7,13.7,4,11.4,11.2c-3.1,9.8,3.4,25.2-13.9,28.1c-4.4-1.4-6.5-4.7-7.3-9
		C580.2,871.4,578.7,859.8,588.7,851.8z"/>
	<path class="st56" d="M588.7,851.8c-2.1,10.6-4.2,21.2-6.3,31.7c-1.5,1.4-3.2,2.2-5.3,2.4c-3.1,0-5.8-0.9-7.7-3.6
		c0.4-6.2,0.9-12.4,1.3-18.6c1.5-6.7,3-13.3,4.5-20c3.5,1.3,7,2.7,10.5,4C586.7,849.1,587.7,850.5,588.7,851.8z"/>
	<path class="st57" d="M433.4,891.7c-1.1,3.8-2.2,7.6-3.3,11.5c-0.3,1.4-0.6,2.7-0.9,4.1c-11.4,4.9-20,1-26.6-8.8
		c-0.1-2.6-0.2-5.3-0.3-7.9c1.3-2.3,2.6-4.6,3.9-6.9C416.4,882.4,424.4,888.7,433.4,891.7z"/>
	<path class="st58" d="M520.3,925.3c13.2-4,26.8-7.1,38.4-15.1c7.7,6.6,9.8,13.2-2.4,15.9C544.5,928.7,532,936.2,520.3,925.3z"/>
	<path class="st59" d="M124.9,668.3c0.9-0.1,1.8-0.4,2.7-0.6c1.7,17.2-4.8,23.9-19.9,18.6c-16.3-5.8-30.8-14.5-32.9-34.4
		c1.9-3.1,4-5.9,8.3-3.5c5,6.4,5.9,15.7,14.1,19.9c1.4,0.9,2.8,1.9,4.1,2.8c6.6,3.8,13,11.7,20.1,0.6
		C122.2,670.2,123.5,669.2,124.9,668.3z"/>
	<path class="st60" d="M77.6,676.4c12.3,6.7,24.6,13.4,38.8,21.1c-15,9.8-25.4,5.1-34.4-6.9C78.5,686.6,73.7,682.8,77.6,676.4z"/>
	<path class="st61" d="M259.4,638.1c-4.2-27.5,0.8-35,27.7-41.8C276,610.8,265,622.7,259.4,638.1z"/>
	<path class="st62" d="M579.3,883.4c1,0,2,0.1,3,0.2c1.3,2.5,2.6,5,3.9,7.6c8.9,11.6-1.4,17.1-8.1,22.7c-8.4,7.1-10.1-1.5-12.9-6.8
		C565,896.2,571.7,889.5,579.3,883.4z"/>
	<path class="st63" d="M472.4,918.7c13.2,2,26.4,3.9,39.6,5.9c2.2,1.4,4.7,3.9,2.4,5.8C503.7,938.9,478,931.5,472.4,918.7z"/>
	<path class="st64" d="M120.9,726.6c-11.4-7-21.7-3.9-31.4,3.6c4.5-16.2,14.4-23.4,31-17.3C130.5,716.5,130.3,721.7,120.9,726.6z"/>
	<path class="st65" d="M578.3,796.8c-1.5,2.8-3,5.7-4.5,8.5c-2.5-10.8-17.3-20.5-2.7-32.7c2.7-0.9,5.5-1.7,8.2-2.6
		c6.6,5.2,10.6,11.2,6.8,19.9C584.7,793.6,578.3,791.6,578.3,796.8z"/>
	<path class="st66" d="M66.2,691.7c-2.5,16.1-13.3,27.2-23.2,38.8C41.7,710.7,50.1,696.7,66.2,691.7z"/>
	<path class="st67" d="M554.7,761.6c-4.6-7-9.1-14-13.7-21c2.8-5.6,7-9.7,12.6-12.5c7.7,1.7,11.1,6.4,9.7,14.3
		c0.2,1.3,0.4,2.6,0.5,3.9c0.6,1.5,0.7,3.1,0.1,4.6C561.5,755.1,559.1,759.2,554.7,761.6z"/>
	<path class="st68" d="M579.3,883.4c0,10.7-8.6,16.2-14,23.7c-2.2-0.1-4.4-0.2-6.5-0.4c-0.2-3.4-0.7-6.7-4-8.7
		c3.5-6.5,6.5-13.5,14.6-15.6C572.7,882.7,576,883,579.3,883.4z"/>
	<path class="st69" d="M437.1,910.8c9.7,1.8,18.7,7.6,29.1,5.9c3,7.6,5.1,15-7.8,11.1C449.2,925.1,436.8,925.8,437.1,910.8z"/>
	<path class="st70" d="M495.2,539.8c7.9-13.8,21.6-20.8,34.3-29.3c-6.8,13.9-17.9,23.8-30,32.9C498.1,542.2,496.7,541,495.2,539.8z"
		/>
	<path class="st71" d="M289.8,790.9c1.1,4.3,5.6,8.4,0.9,13.1c-11.5-0.2-12.7,7.2-12,16.2c-6.4,2-11.4-1.6-16.7-3.9
		c-0.3-1.1-0.4-2.2-0.1-3.4c4.4-11.1,8.6-22.3,21.8-26C286.6,787,289.2,787.5,289.8,790.9z"/>
	<path class="st72" d="M558.7,714.9c-4.7-0.7-7.4-3.4-8.1-8.1c3.6-5.1,7.2-10.3,10.9-15.4C561.2,699.6,583.7,711,558.7,714.9z"/>
	<path class="st73" d="M34.9,738.6c-0.5,4.7,1.1,10.6-6.6,10.9c-6.4-13.8-8.1-26.9,5.1-38.3C32.9,720.5,30.2,729.8,34.9,738.6z"/>
	<path class="st74" d="M261.4,823.2c6.2,4,17.2,0.4,18.7,11.8c-7.8-3.4-10.5,12-18.2,5.6C256.4,836,254.8,829.2,261.4,823.2z"/>
	<path class="st75" d="M379,684.9c2.7,7.3-0.3,12.8-5.4,17.6c-14.1-4-11.6-12.4-5.7-21.7c0.8-3,2.2-3.3,4.1-0.8
		C374.3,681.7,376.7,683.3,379,684.9z"/>
	<path class="st76" d="M77.6,676.4c1.5,4.8,2.9,9.5,4.4,14.3c-15.2-6.4-20.2-18.1-18.7-35.9C73.3,660.6,71.4,671.2,77.6,676.4z"/>
	<path class="st77" d="M364.4,879.7c10.7,5,21.5,10.1,32.2,15.1c-0.8,3.7-2,9.7-6.4,7.1C380.4,896.3,364.5,896.8,364.4,879.7z"/>
	<path class="st78" d="M402.6,898.5c8.9,2.9,17.7,5.8,26.6,8.8c3,17.1-7.2,8.6-13.2,6.5C408.9,911.3,399.9,909.8,402.6,898.5z"/>
	<path class="st79" d="M312.4,843.3c7.1,4.8,15,8.7,20.1,16c-1.5,6.9-5.6,8.4-10.3,3.4C317.1,857.3,303.4,855.8,312.4,843.3z"/>
	<path class="st80" d="M93.7,641.7c3.5-0.5,7-1,10.5-1.5c0,0,0.9,1.2,0.9,1.2c3.8,11.6,4,21.6-10.8,25.2c-9.4-3.6-8.1-11.5-7.6-19.1
		C87.9,644.3,90.1,642.1,93.7,641.7z"/>
	<path class="st9" d="M574.2,451.7c-6.5,12.9-13.5,21.8-22.1,29.5c-2,1.8-3.5,3.4-5.9,0.6c-1.6-1.9-3.6-3.3-0.7-5.8
		C554.5,468.6,560.4,457.6,574.2,451.7z"/>
	<path class="st81" d="M372,680c-1.4,0.3-2.7,0.5-4.1,0.8c-3.8-3.4-7.6-5.1-11.5-0.1c-5.7-1.1-8.9-5.3-11.9-9.7
		c-2.8-6-10.3-9.8-8.6-17.9c-0.1-1.5-0.1-2.9-0.2-4.4C347.8,659.1,359.9,669.6,372,680z"/>
	<path class="st82" d="M336.7,863.2c9.6,0.4,15.7,7.7,23.2,12.2c-1.8,3,1.5,11.7-5.9,8.1C345.9,879.6,335,876.3,336.7,863.2z"/>
	<path class="st83" d="M563.7,749.3c-0.2-1-0.2-2,0.1-3.1c6.8-0.9,14.1-7.2,18.8,4.8c3.9,9.9-0.6,12.6-8.1,15c0,0-0.4-0.5-0.4-0.5
		C569,761.3,565.4,756,563.7,749.3z"/>
	<path class="st84" d="M265.3,440.9c2.7-3.8,5.4-7.5,8.1-11.3c4,5.2,7.9,10.5,11.9,15.7c-2.6,2.6-5.1,5.2-7.7,7.8
		C268.4,454,267.1,447.2,265.3,440.9z"/>
	<path class="st85" d="M303.9,778.1c11.2-2.7,20.3,1.6,27.9,9.1c5,5,4.2,9.2-3.8,9.9l0,0c-1.3-12-9.1-12.8-18.6-10.8
		c-0.4-0.5-0.8-1.1-1.2-1.6C305.3,783.5,303.4,781.6,303.9,778.1z"/>
	<path class="st86" d="M303.9,778.1c1.4,2.2,2.9,4.4,4.3,6.7c-4.8,5.9-11.4,6.6-18.4,6.1c0,0-0.4,0.2-0.4,0.2c-1.7-2.4-3-4.9-2.4-8
		c1.1-3.1,4-4,6.5-5.3C297,777.9,300.4,778,303.9,778.1z"/>
	<path class="st87" d="M563.2,742.4c-3.2-4.8-6.5-9.5-9.7-14.3c6.8-8.5,12.2-4.7,16.8,2.2C575.8,738.7,568,739.8,563.2,742.4z"/>
	<path class="st88" d="M289.7,781.3c0.8,3.3,3.8,6.6-0.3,9.7c-17.6-3.3-16.2,17.1-27.4,21.8c-0.4-2.7-4.4-4.8-1.4-8.1
		C267.6,793.7,273.4,781.1,289.7,781.3z"/>
	<path class="st89" d="M586,789.8c-2.3-6.6-4.5-13.3-6.8-19.9c8.3-4,11.7,0.6,13.7,7.7C594.7,784,594.5,789.3,586,789.8z"/>
	<path class="st85" d="M289.7,781.3c-13.6,3-19.4,15.6-29.1,23.5c4.2-17.2,14.3-27.4,32.9-27.1C292.3,778.9,291,780.1,289.7,781.3z"
		/>
	<path class="st90" d="M117.6,631.9c-2.7,0.3-5.4,0.6-8.2,0.9c0-1.3,0-2.6,0-3.8c8.2-7.9,13.5-18.7,23.7-24.8
		C132.7,616.1,121.6,622,117.6,631.9z"/>
	<path class="st91" d="M473.1,574.5c-1.5-4.1-2.9-8.3-4.4-12.4c3.3-4.1,7-13.1,12-7.6C488.5,562.9,475.7,567.6,473.1,574.5z"/>
	<path class="st92" d="M265.3,440.9c4.1,4.1,8.1,8.2,12.2,12.3c-0.5,2.4-0.9,4.8-1.4,7.1c-1,0-2,0.1-2.9,0.5
		c-9.9,1-13.1-5.1-14.2-13.4c0.4-1.9,1.2-3.5,2.5-5C262.7,441.9,264,441.4,265.3,440.9z"/>
	<path class="st93" d="M93.7,641.7c-1.3,1-2.7,2-4,3c-2.1,2.4-4.5,4-7.9,3.4c-2.3,1.3-4.7,2.5-7,3.8
		C77.6,634.6,81.1,632.7,93.7,641.7z"/>
	<path class="st9" d="M665.2,362.6c-7.4,4.2-14.8,8.4-26.3,15c6.3-10.8,14.2-14.9,15.9-22.9c0.9,0.1,1.8,0.4,2.6,0.6
		c2.7,0.9,4.8,2.5,6.4,4.8h0C664.3,361,664.8,361.8,665.2,362.6z"/>
	<path class="st94" d="M328,797.1c1.3,4.3,8.8,3.9,7.2,11.2c-8.1-0.4-14.8-4.7-22.5-8.2C317.3,793,323,797.3,328,797.1
		C328,797.2,328,797.1,328,797.1z"/>
	<path class="st95" d="M261.5,442.4c0,0.7,0,1.4,0,2.1c-1.6,3.3-3.5,6.2-7.5,6.9c-2.3,0.4-4.7,0.2-7.1,0.7c-1.7,0.4-3.4,0.4-5,1.1
		c1.3,1.8,3.9,1.5,5.2,3.4c4.2,16.7-12.2,19.1-19.4,27.8c-4.3,4.3-8.6,8.6-12.9,12.9c0.2-8.3-0.3-16.7,0.8-24.9
		C219.5,441.6,230.6,434.6,261.5,442.4z"/>
	<path class="st11" d="M717.9,429.7c-16.1-8.1-24.9-21.3-26.9-39.1c10.9-16.8,14.8-35.7,16.1-54.7c35.9,10.9,26-26.8,40.9-37.3
		c8.1,19.1,10.6,19.8,27.6,7c9.1-6.9,18.1-13.9,28.6-22c-10.9,48.3-10.9,48.3,32.2,53.7c-11.1,9.1-24.5,14.7-25.9,30.4
		c-1.2,13.7,4,24.9,12.7,39C780.9,390.5,749,408.5,717.9,429.7z"/>
	<path class="st96" d="M632.9,340.3c-20.6-5-38.2-20.9-40-36.2c8.6-20.5,15.7-41.1,8.4-64.9c31.3,25.9,35.3,23.6,56.5-31
		c0.8,0.6,2.1,1.1,2.4,1.9c10.3,31.1,10.2,31,36.6,11.4c3.7-2.7,7.4-9.8,12.7-5c5,4.5-1.5,9.3-3.1,13.9c-1.7,4.9-4.9,9.3-6.3,14.2
		c-4,13.5,1.2,20,15.4,18.5c10.3-1.1,20.5-2.7,36-4.7c-18.2,10.6-32.1,19-46.3,26.9c-6,3.4-13.7,8.7-10.9,14.3
		c10.8,21.7-6.7,15.7-15.7,17C660.6,319.3,646.2,328.6,632.9,340.3z"/>
	<path class="st97" d="M409.8,563.1c-12.1-12-28.4-20.6-31.2-39.9c7.9-12.9,15.8-25.8,23.7-38.7c11-12.5,20.8-10.3,31.1,1.4
		c7.1,8.1,15.6,14.9,23.5,22.3C446.1,530.6,436,553.8,409.8,563.1z"/>
	<path class="st98" d="M597.5,343.7c-19.8-4.3-33.9-15.2-39.7-35.3c0.5-3.7,0.9-7.4,1.4-11.1C566.3,318,585.4,328,597.5,343.7z"/>
	<path class="st99" d="M725.9,465.9c-29.9-2.7-44.2-23.3-54.8-48.1c8.6-9.4,9.7,0.1,12.4,5c11.1,20.5,25.1,37,50.5,38.7
		C734.5,468.8,729.6,466.2,725.9,465.9z"/>
	<path class="st100" d="M725.9,465.9c3-0.9,6.6-0.7,8.1-4.4c6.3,0.1,12.7,0.1,19,0.2C745.3,471.9,735.9,470.5,725.9,465.9z"/>
	<path class="st101" d="M456.9,767.5c-3.4-23.4-12.5-31.8-37.4-33.8c-0.6-0.1-1.3-0.1-2-0.1c-25.9,9.9-40.5,32.4-57.9,51.9
		c-0.2,0.8-0.3,1.7-0.4,2.5c-1.4,10.1,0.2,19,11.1,23.8c18.9,8.3,38.3,12.6,58.4,4.7C446.9,809.2,459.7,786.6,456.9,767.5z
		 M440,791.4c-6.4,1-15.7,0.6-19.6-9.1c-1.5-3.7-6-7-9.9-8.6c-8.4-3.4-12.6-11.5-10.8-17.5c1.8-6.1,7.8-13.3,16.7-14
		c9.3-0.8,19.4-1,23.2,8.9c2.8,7.3,7.9,14.8,5.6,22.1C445.1,780.9,447.3,790.2,440,791.4z"/>
	<path class="st8" d="M233.9,727.1c2.8-0.2,5.5-0.4,8.3-0.6c28.8-20.9,28.8-20.9,51.8,8.5c2.8,3.6,6.1,6.6,9.4,9.7
		c3.7,3.8,10.7,5.4,8.7,14.3c-10.2,0.5-21.5-4.3-30.9,3.6c-17.9,12.5-23.9-7.9-35.5-12.8C243.4,741.3,229.9,738.8,233.9,727.1z"/>
	<path class="st102" d="M245.4,787.7c-10.4,32-10.7,32.4-39.5,12c-18.4-13.1-36-27.4-53.9-41.2c-9.3-8.8-4-15.3,2.4-22.9
		c11-13.2,21.5-7.5,32.4-0.8c5.4,5.2,10.9,10.5,16.3,15.7c0.6,3.5-1.5,4.7-4.4,5.3c-7.2-0.4-11-6.4-16.5-9.7
		c-5-3-10.2-10.1-16.2-1.2c15.2,22.4,38.6,34.3,60.6,47.7c3.5-0.1,4.6-3,6.1-5.4c2.4-3,3.8-7.7,9.3-5.9
		C243.1,783.4,244.3,785.6,245.4,787.7z"/>
	<path class="st103" d="M347.4,669.6c3,3.7,6,7.4,9,11.1c-1.5,1.9-3.1,3.7-4.6,5.6c-11.7,9.1-19.6,21.9-30.7,31.6
		c-13.1,11.5-19,10.5-30.3-5c0.1-12.3,19.8-12,17-26.3c8.2-9,24.9-2.5,30.3-16.7C341.2,668.5,344.2,664.6,347.4,669.6z"/>
	<path class="st104" d="M292,711.6c9.9,14.8,18.6,13.4,29.7,0.1c8.3-9.9,15.7-22.2,30.1-25.4c-0.2,7.5-8.2,10.2-10.2,16.5
		c1.1,2.9,0.3,5.2-2.2,7c-9.2,1.4-14,7.8-17.3,15.7l-0.6,0.2c-8.3,3.1-16.5,9.1-24.8,0c-6-1.1-9.5-4.7-10.8-10.7
		c-7.9-7.9-1.1-13.3,3.2-19.2C303.2,698.7,287.7,706.9,292,711.6z"/>
	<path class="st105" d="M286,715c3.6,3.6,7.2,7.1,10.8,10.7c-5.7,9.5,6.5,10.5,7.9,16.6c0.9,3.7-0.1,5.6-4.2,4.2
		c-1.5-1.1-3.3-2.1-4.6-3.5c-8.1-9-14.8-19.8-24.4-26.8c-12.9-9.6-16.7,14.4-29.4,10.4c2.9-3.4,5.2-8.3,8.9-9.9
		c11.3-4.9,15-10.7,0.1-22.5c18.6,3.6,21.3,19.1,32.7,23.3c0.4,0.1,1.1-0.3,1.5-0.7C285.7,716.3,285.7,715.6,286,715z"/>
	<path class="st106" d="M371.4,726.6c5.2-4.3,10.4-8.5,15.6-12.8c7.8-2,9.2,1.6,6.8,8c-1.8,4.8-5.7,8.4-8.2,12.9
		c-1.6,2.2-3.5,4.3-5.4,6.3c-5.9,6.8-12.4,13-18,20c-3.5,4.3-7.4,9.7-14.2,4.4l0,0.3c-6.5-7.7-1-12.8,4-17.9
		C358.6,740.9,365.9,734.6,371.4,726.6z"/>
	<path class="st107" d="M292,711.6c-8.1-4,5-11.7-2.8-15.8c0-1.4,0.1-2.8,0.1-4.2l0,0c6.4,1.4,9.2-2.6,11.5-7.5
		c1.2-1.7,2.8-2.4,4.8-2.3c2.9,1.2,5,2.7,3.4,6.3c4.3,13.6,0.9,18.6-11.8,18.3C295.5,706.4,293.7,709.8,292,711.6z"/>
	<path class="st108" d="M289.3,691.6c-4.3,1.1-8,4.7-12.8,3c-5.2-1.8-9.6-5-10.1-10.6c-0.6-6,4.2-9.6,9-11.1c6-1.9,9.9,2.6,12,7.4
		C288.9,683.7,288.7,687.8,289.3,691.6C289.3,691.6,289.3,691.6,289.3,691.6z"/>
	<path class="st109" d="M304.6,683.5c-1.3,0.2-2.6,0.4-3.9,0.6c0.5-2.7,1-5.4,1.5-8.1c12.3-6.1,15.6-25.2,33.6-23
		c2.6,6.4,11.2,8.6,11.5,16.5c-2.4,0.1-4.7,0.1-7.1,0.2C324.4,663.8,316.5,678.9,304.6,683.5z"/>
	<path class="st110" d="M300.5,746.4c1.4-1.4,2.8-2.8,4.2-4.2c6.6,4.9,13.4,9.6,19.7,20.3c-16.4,0-29.8,0-43.1,0
		c7.3-10.9,17.8-9,28.9-7.7C307,752,303.7,749.2,300.5,746.4z"/>
	<path class="st111" d="M199.7,753.9c1.1-1.1,2.3-2.3,3.4-3.4c13,10.2,25.9,20.5,38.9,30.7c-2.3,2.6-4.5,5.2-6.8,7.9
		C223.3,777.4,205,772.2,199.7,753.9z"/>
	<path class="st112" d="M379,736.2c0.3-0.9,0.8-1.5,1.8-1.8c6.9-3.3,8.9-13.4,18.3-13.3c-6.5,19.4-23.2,31.1-35.3,46.3
		c-5.2-6.2-0.7-10.4,3-14.7C371.2,747.5,377,743.3,379,736.2z"/>
	<path class="st113" d="M321.5,725.7c0,0,0.6-0.2,0.6-0.2c8.6-1.7,14.5,1.3,14.4,10.6c-0.1,4.5-3.9,9.4-9.1,8.2
		C315.6,741.7,320.1,733,321.5,725.7z"/>
	<path class="st114" d="M399,721.1c-7,3.2-9,13.2-18.3,13.3c3.4-4.6,6.7-9.2,10.2-13.7c4.3-5.5-0.2-5.9-3.9-6.9
		c0-2.7-0.4-5.6,2.6-7.3c6.4,0.7,14.7-1.5,14.8,9.3C402.6,717.6,400.8,719.3,399,721.1z"/>
	<path class="st115" d="M379,736.2c1.8,13.8-17.4,17.3-15.3,31.2c-6.4,8.5-11.8,9.1-15.7-1.9C363.5,761.2,367,744.2,379,736.2z"/>
	<path class="st116" d="M371.4,726.6c0.5,10.9-10.4,13.9-15,21.3c-3.5,5.7-11.3,9.1-8.5,17.8c-8.6-3.1-12.2-7.8-4.2-15.1
		C352.8,742.3,362.2,734.6,371.4,726.6z"/>
	<path class="st117" d="M339.4,709.8c0.7-2.3,1.5-4.6,2.2-7c7.1-0.6,12.8,1.5,13.9,9.2c0.6,4.1-2.9,7.2-6.8,7.9
		C340.8,721.5,339.1,716.4,339.4,709.8z"/>
	<path class="st118" d="M289.1,652.3c7.8-0.1,12.8,3.3,12.3,11.5c-0.5,7.5-5.8,9.5-12.5,8.8C282.8,665.7,292,659.1,289.1,652.3z"/>
	<path class="st119" d="M233.9,727.1c0.8,9.2,12.5,12.7,11.9,22.6c-13.4-6.4-18.3-18.4-24-35.9C228,720.6,230.9,723.8,233.9,727.1z"
		/>
	<path class="st120" d="M464.5,492.6c-3.4-1.9-6.9-3.5-10.1-5.7c-24.8-16.8-27.1-27.4-11.6-52.4c0.3-0.6,0.6-1.2,1-1.7
		c9.5-11.4,16.8-27.4,29-33.1c14.4-6.8,19.4,15.7,32.1,20.4c5.3,2,9.6,6.4,14.4,9.7c-5.4,27.2-25.8,44.5-42.5,64.2
		C472.8,498.7,468.7,492.9,464.5,492.6z"/>
	<path class="st121" d="M527.5,417.8c-42.7-36.2-42.2-36.4-3.3-76.5c13.1-13.5,21.4-15.2,32.3,1.4c5.9,9,15,15.9,24.7,21.4
		c-7,23.4-27.8,36.4-41.6,54.6C535.5,424.2,531.5,418.5,527.5,417.8z"/>
	<path class="st122" d="M578,594c-43.7-28.2-36.3-35.5-11.3-64.8c2.5-3,4.8-6.1,7.5-8.9c17.3-17.7,18.3-17.6,33.6,0.6
		c6.8,8.1,15.5,13.5,24.4,18.9c0.9,2.3,3.2,5.7,2.4,6.9c-12.3,18.5-28.6,33.3-45.4,47.5C585.6,597.2,581.7,593.8,578,594z"/>
	<path class="st123" d="M644.1,532c-44.4-33.9-44.5-35.8-5-75.3c3.2-3.2,6.6-6.3,9.6-9.7c8.4-9.5,14.4-12.4,22.9,1.6
		c6.1,10,17.8,16.5,27.1,24.6c6.7,7.9,0.1,12.4-4.4,17.6C680.1,507.7,667,525.8,644.1,532z"/>
	<path class="st124" d="M519.5,656.2c-38.4-19.9-40.2-26.7-15.6-61.3c4.1-5.8,8.6-11.4,12.9-17.1c6.2-8.3,12.4-8.5,18.5,0
		c9,12.4,22.3,19.7,34.1,28.8c0.5,1.1,1.9,2.9,1.5,3.4C556.6,628.4,544.3,649.3,519.5,656.2z"/>
	<path class="st125" d="M480.4,660.5c10.4,9.6,23.2,15.2,35.9,20.9c0.2,0.1,0,1.2-0.2,1.8c-0.3,0.6-0.8,1-1.2,1.5
		c-22.2-1.3-37.8-17.9-57.8-24.5c-19.4-2.7-30.8-18.1-44.1-29.6c-27-23.6-54.8-47.1-65.3-83.8c-2.1-7.6-6.3-14.8-3.7-23.1
		c18.4,45,52.7,76.7,88.9,107.2C447.5,643.1,464,651.5,480.4,660.5z"/>
	<path class="st126" d="M413.9,683.8c-8.5-4.5-15.8-10.4-19.9-19.4c-2.8-6.4,1.6-12.1,1.8-18.5c-5,1.1-7.7,6.4-13,6.5
		c-13.1-0.9-21.9-8.2-28.1-19.2c-4-12.8,1.7-20.4,13.2-25c0.9,0.1,1.9,0.1,2.8,0.2c1.4,1.2,2.2,2.8,2.6,4.6
		c0.2,7.3-7.5,13.7-2.2,21.4c14.1,10,15.3-7.2,22.9-10.8c1.7-0.8,3.4-1.1,5.3-1.1c22,14.6,43.1,30.3,61.8,49.1
		c12,9,26.3,13.5,39.7,19.7c19.5,9,19.9,12.1,2.1,25.2c-4.8,3.5-8.6,10.1-16.8,8.3c3.3-10.1,16.4-10.6,19.1-20.8
		c-9.1-9.5-17.9-10.7-27.9-0.4c-10.4,10.8-20.8,6-31.4-1c-10.4-6.9-9.9-14.7-3.8-23.9c2.1-3.2,4.8-7,0-9.9c-3.2-2-6.3,0.3-8.6,2.6
		C427.9,677.3,421.8,682,413.9,683.8z"/>
	<path class="st127" d="M461.1,671.8c-23.6-11.9-41.6-31.5-62.6-46.8c-8.2-3.7-16.8-6.7-22-14.9c-5.4-9.5-14.8-15.7-20.9-24.5
		c-4.4-6.4-12.2-11.9-8.3-21.6c0.2-5.8,0.3-11.5,0.5-17.3c26.3,47.5,67.3,81,109.3,113.4C456.7,664.6,465.3,666,461.1,671.8z"/>
	<path class="st126" d="M347.3,564c6.7,18.5,23.6,29.4,33.9,45.1c-3.3,2.7-6.7,2.8-10.1,0.3l-0.9-0.7c-4.6-2.7-9.9,0-14.6-2.1
		c-4.7-4.3-1-10.9-4.4-15.5c-3.9-4.3-7.5-4.2-10.7,0.8c-1.8,10.2,11.3,11.2,12,19.7c-2.2,3.9-5.3,4.6-9.1,2.3
		c-7-3.6-12.4-8.7-16.1-15.6c-2.5-7.4-0.4-14.2,3.2-20.4c6.3-10.9-3.6-9-8.4-11.2c3.5-6.6,5.3-16.5,13-17.4
		C342.9,548.2,341,560.6,347.3,564z"/>
	<path class="st128" d="M322.1,566.6c5.9,2.5,8.6-12.5,15.7-3c5.3,7.1,0.2,12.6-4,17.1c-4.9,5.2-6.2,11-6.6,17.5
		c-1-0.2-1.9-0.4-2.8-0.7C327.2,586.9,316.4,577.4,322.1,566.6z"/>
	<path class="st129" d="M353.7,605.7c5.2,2.3,13.6-12.8,16.4,3c-7.1,7-15.7,13-15.5,24.6c-3.4-6.7-10.8-11-11.3-19.4
		c3.9-0.4,7.3-1.5,8.3-6l0.3-1.7L353.7,605.7z"/>
	<path class="st130" d="M382.8,652.4c4.5-7.8,10.6-13.5,21.3-17.4c-0.5,12.4-7.4,20.3-10.1,29.4C388.5,662.1,383.8,659,382.8,652.4z
		"/>
	<path class="st131" d="M231,522.6c-0.3,5.6-6.4,4.2-8.8,7.4c-13.2-0.1-17.9,11-24.6,20c-10.1-13.4-2.2-22.1,7-28.4
		C212.6,516,222.7,509.3,231,522.6z"/>
	<path class="st132" d="M256,449.1c1.8-1.5,3.7-3.1,5.5-4.6c0.1,8.1,5.2,12.6,11.7,16.2c-7,7.3-8.6,18.9-18.8,23.7
		c-8.9-2.9-17.8-4.8-26.7-0.1c6.5-8.7,13-17.5,19.6-26.2C248.5,453.6,249.5,448.8,256,449.1z"/>
	<path class="st133" d="M587.5,442.8c6.6-6.4,13.2-12.7,21.5-20.8C606.7,435.1,597.5,439.3,587.5,442.8z"/>
	<path class="st134" d="M563.7,749.3c9.4,1.6,9.9,9,10.5,16.3c-8.8,9.7-16,11.7-19.5-4.1C554.9,755.5,558,751.5,563.7,749.3z"/>
	<path class="st135" d="M304.7,632.8c6.1-1.3,11.6-0.5,14.5,5.7c1.5,3.1,0.2,6.2-2.2,8.7c-2.3,2.4-4.9,4.1-8.3,2.8
		c-6.1-2.3-1.6-5.4-1.1-8.7C308,638.6,305.8,635.6,304.7,632.8L304.7,632.8z"/>
	<path class="st136" d="M278.8,820.2c-12.3-7.4-2.8-13.6,1.6-19.2c5.1-6.6,8.2-2.2,10.4,3.1C286.8,809.4,282.8,814.8,278.8,820.2z"
		/>
	<path class="st137" d="M92.6,664.1c13.7-2.3,6.3-16.3,12.5-22.7c7.6,8.2,17.9,14.5,19.8,26.9c-0.3,1.1-0.5,2.2-0.7,3.3
		c-8.8,14.6-17.7,4.7-26.6,0.1l0.2,0.1C95.3,669.8,91.6,668.5,92.6,664.1z"/>
	<path class="st138" d="M92.6,664.1c1.8,2.6,3.5,5.1,5.3,7.7c-13.6-2.3-15.6-12.6-16.1-23.8c2.6-1.1,5.3-2.3,7.9-3.4
		C88.8,651.4,87.1,658.3,92.6,664.1z"/>
	<path class="st139" d="M97.6,671.7c8.9,2.6,17.8,7.8,26.6-0.1C116.7,687.2,113,687.2,97.6,671.7z"/>
	<path class="st140" d="M256,449.1c-0.8,5-4.4,7.4-8.7,9c-5.8-0.7-11.7-1.5-21.2-2.7C237.7,449.5,245.3,442.6,256,449.1z"/>
	<path class="st141" d="M390.3,533.1c-1.2-10.9,17.8-46.8,26.4-46.6c11.8,0.2,16,13.4,24.9,19.2c3.5,2.3,7.9,5.1,4.4,10.8
		c-8.3,13.9-19.4,25.6-30.8,36.9c-2.6,2.6-5.7-1.3-8-3.5c-2.2-10.2,6.7-14.1,11.7-20.1c4.1-5,7-9.6,0.8-14.6
		c-5.5-4.5-9.1-0.5-12.8,3.4C401.8,523.9,399.4,532.4,390.3,533.1z"/>
	<path class="st142" d="M390.3,533.1c7.2-9.7,14.4-19.5,21.6-29.2c22,15.7,22,15.7,5.3,34.3c-3.4,3.8-6.6,7.8-10,11.7
		C400,545.9,394.6,540.1,390.3,533.1z"/>
	<path class="st9" d="M440,791.4c-6.4,1-15.7,0.6-19.6-9.1c-1.5-3.7-6-7-9.9-8.6c-8.4-3.4-12.6-11.5-10.8-17.5
		c1.8-6.1,7.8-13.3,16.7-14c9.3-0.8,19.4-1,23.2,8.9c2.8,7.3,7.9,14.8,5.6,22.1C445.1,780.9,447.3,790.2,440,791.4z"/>
	<path class="st29" d="M437.5,801.5c-24.7,17.7-53.9,14.5-71.3-8.3C386.8,817,412.1,797.6,437.5,801.5z"/>
	<path class="st143" d="M410.7,793.8c-14.3,12.8-26.1,2.6-36.6-5.5c-7.3-5.6-0.6-11,4.7-14.9C392.5,775.5,404,780.8,410.7,793.8z"/>
	<path class="st144" d="M410.7,793.8c-10.6-6.8-21.2-13.6-31.8-20.4c5.5-10.5,12.8-13.2,17.2-0.5
		C399.2,781.8,417.8,778.8,410.7,793.8z"/>
	<path class="st145" d="M228.3,800.9c-19.7-14.2-39.6-28.1-59-42.6c-4.6-3.4-12.5-5.7-9.7-14.5c7.5-8.2,14.2-3.4,20.2,1.8
		c13.8,11.9,28.4,22.6,42.9,33.4C229.7,784.2,238,790.7,228.3,800.9z"/>
	<path class="st146" d="M228.3,800.9c2.1-4.8,4.2-9.2-1.5-13.5c-18.9-14.3-37.7-28.9-56.5-43.3c-3.5-2.7-7.1-2.3-10.8-0.3
		c4.5-10.7,11.7-10.8,20-4.9c6.8,4.8,13.4,10,20.1,15.1c9.7,13.9,30.3,16.8,35.5,35.2C233,793.1,235,799.5,228.3,800.9z"/>
	<path class="st147" d="M304.6,683.5c3.7-4.3,7.9-8.3,11.1-13c8.1-11.8,16.1-12.1,24.7-0.8c0.8,25.3-21.7,11-31.4,18.4
		C307.5,686.6,306.1,685.1,304.6,683.5z"/>
	<path class="st148" d="M444.4,466c-6.9-4.3-4.7-9.8-1.5-15c3.7-6,7.6-12,11.8-17.7c21.6-29.8,27.2-30,50.5-2.4
		c2.2,2.6,4.4,5.2,2.5,8.5c-9.3,17-20.8,32.5-33.7,46.9c-2.4,2.6-5.9-0.4-8.4-2.6c-2.5-9.9,6.1-14.9,10-21.8
		c4.1-7.3,8.1-14.5-0.6-20.3c-8.6-5.7-10.4,4.2-14.5,8.1C455,455.1,452.8,463.6,444.4,466z"/>
	<path class="st149" d="M444.4,466c4.6-7.1,8.3-15,14-21c4.3-4.6,4.6-19.4,17.5-8.6c8.8,7.4,18.1,12.9,5.3,25.2
		c-6.4,6.2-10.4,14.8-15.5,22.3C456.6,480.2,448.9,475,444.4,466z"/>
	<path class="st150" d="M507.6,386.5c-5.8-3.2-6.8-7.5-2.7-12.7c3.6-4.6,7.5-9,11.4-13.2c22-23.6,33.2-22.6,52.6,3.9
		c3.1,4.3,2.1,6.8-0.7,9.9c-9.9,11.2-19.8,22.3-29.6,33.6c-5.3,6.1-8.8,2.7-12.2-1.9c-1.1-9.2,7.2-13.2,11.1-19.7
		c2.8-4.7,5.5-9.5,0.8-14.1c-5-4.9-9.4-1.6-13.6,2C519.4,378.9,515.4,385.5,507.6,386.5z"/>
	<path class="st151" d="M507.6,386.5c5.3-5.7,10.7-11.2,15.8-17.1c5-5.7,8.6-14.3,17.5-4c6.1,7.1,12.5,12.9,2.1,21.8
		c-6.3,5.4-11.1,12.6-16.5,18.9C517.1,402.5,511.5,395.4,507.6,386.5z"/>
	<path class="st152" d="M558.4,564.5c-7.2-12.1,5.3-17.1,10.1-23.6c6.6-9.1,15.5-25.8,23.4-22.9c11.1,4.1,18.6,18.6,30.4,25.8
		c2.7,1.6,2.2,4.7,0.1,6.6c-12.8,11.7-25.7,23.3-38.8,34.7c-0.5,0.4-3-1.6-4.6-2.6c0.2-10,7.6-16,13.2-23c3.1-3.9,4.7-7.9,0.6-12
		c-4.9-4.9-9-2.7-13.2,1.5C573.3,555.3,569,564.2,558.4,564.5z"/>
	<path class="st149" d="M558.4,564.5c6.1-6.5,11.9-13.4,18.5-19.3c4-3.5,5.9-15.6,15.3-5.5c6.2,6.7,16.4,11.9,4.2,22.6
		c-6.7,5.8-11.7,13.5-17.5,20.3C569.3,579.6,562.4,573.7,558.4,564.5z"/>
	<path class="st152" d="M622.9,502.1c-6.7-6.5-2.4-11.4,2.2-16.5c10.8-12.1,21.5-24.3,34.6-39.2c5.6,6.9,9.3,14.9,15.5,18.4
		c18.3,10.5,17.3,20.7,2.6,33.2c-8.4,7.2-16.2,15-24.2,22.6c-3.7,3.6-6.8,2.7-9.7-1.1c-1.7-10.3,7.9-14,12.2-20.8
		c3.4-5.2,6.4-10.5,0.5-15.5c-5.4-4.6-9.2,0.1-13.6,3C635.9,491,633.7,502.1,622.9,502.1z"/>
	<path class="st153" d="M622.9,502.1c5.4-6.2,10.2-13.3,16.6-18.5c4.7-3.9,5.9-18.6,17.9-6.9c9.1,8.8,13.7,15.8,1.7,25.7
		c-5.8,4.8-10.1,11.4-15.1,17.2C634.3,516.9,628.8,509.2,622.9,502.1z"/>
	<path class="st152" d="M499.3,633.5c-8.7-15.7,7-22.5,12.4-32.9c8.1-15.9,18.1-23,31.2-3.8c4.4,6.4,16.5,7.5,14.5,17.9
		c-1.9,10.1-30.5,31.3-39.2,30.8c-1.6-9.4,6.4-13.3,10.9-19c4.3-5.3,2.8-9.2-1.8-13.1c-5.4-4.6-7.7-0.1-10.6,3.3
		C511.5,622.7,508.5,631.3,499.3,633.5z"/>
	<path class="st154" d="M499.3,633.5c2.5-3.7,5.1-7.4,7.6-11.1c14.5-21,14.5-21,34.3-3.7c-7.6,8.9-15.3,17.8-23,26.7
		C510.6,643.5,503.4,641,499.3,633.5z"/>
	<path class="st155" d="M365.5,636.5c-7.9-10.1,2.3-15.6,5.9-22.7c11.5-4,14.5,3.7,16.8,12.3C384.3,637.6,377.4,642.6,365.5,636.5z"
		/>
	<path class="st156" d="M468.6,685.8c3.9,1.8,10.2,2,10.3,6.9c0.1,5.2-5.6,8.3-10,9.5c-10.4,3-18.5-0.3-21.9-11.6
		C454.1,688.3,461.1,685.9,468.6,685.8z"/>
	<path class="st157" d="M468.6,685.8c-6,6.8-11.7,15.3-21.6,4.9C450.6,672.1,450.6,672.1,468.6,685.8z"/>
	<path class="st158" d="M402.8,662.9c3.8-10.7,5.5-27.1,20.5-7.6C419.4,672.5,417.2,673.3,402.8,662.9z"/>
	<path class="st159" d="M402.8,662.9c11.2,9.4,15.8,0.8,20.5-7.6c3,2.8,9.6,3.5,7.1,9.6c-2.2,5.5-6.8,10.5-13,10.1
		C410.4,674.5,403.1,672.4,402.8,662.9z"/>
	<path class="st160" d="M365.5,636.5c11.4,2.4,16-6.3,21.6-13.3c2.3-0.6,4.2-0.2,5.4,2.1c4.3,11.2-5.9,14.5-11.7,18.4
		C374.3,648.1,369.5,641.4,365.5,636.5z"/>
	<path class="st161" d="M392.5,625.3c-1.8-0.7-3.6-1.4-5.4-2.1c-4.8-3.9-6.9-12.2-15.7-9.4c-0.1-1.5-0.2-3-0.3-4.5
		c3.4-0.1,6.8-0.2,10.1-0.3c5.7,5.3,11.5,10.6,17.2,15.9C396.5,625.1,394.5,625.2,392.5,625.3z"/>
	<path class="st162" d="M335.9,590.4c7.2-19,13.9-10.7,20.5,0.4c-1.3,6-4.3,11.9-10.7,11.4C340.2,601.7,335.3,597.5,335.9,590.4z"/>
	<path class="st163" d="M335.9,590.4c6.6,13.3,13.4,11.5,20.5,0.4c7.8,6.5-2.5,9.8-2.7,14.9c-1.1,0.3-1.8,1.1-2.1,2.1
		C339.8,607.9,333.1,603.5,335.9,590.4z"/>
</g>
</svg>
