<?xml version="1.0" encoding="utf-8"?>
<!-- Generator: Adobe Illustrator 23.0.1, SVG Export Plug-In . SVG Version: 6.00 Build 0)  -->
<svg version="1.1" id="Layer_4" xmlns="http://www.w3.org/2000/svg" xmlns:xlink="http://www.w3.org/1999/xlink" x="0px" y="0px"
	 viewBox="0 0 1000 1000" style="enable-background:new 0 0 1000 1000;" xml:space="preserve">
<style type="text/css">
	.st0{fill:#FEB515;}
	.st1{fill:#7D7489;}
	.st2{fill:#D1D9F0;}
	.st3{fill:#946000;}
	.st4{fill:#FDB615;}
	.st5{fill:#F1FEFE;}
	.st6{fill:#956100;}
	.st7{fill:#CADED2;}
	.st8{fill:#682000;}
	.st9{fill:#7D748A;}
	.st10{fill:#935F00;}
	.st11{fill:#D2DAF1;}
	.st12{fill:#FDE1C5;}
	.st13{fill:#FDE1C4;}
	.st14{fill:#FDB515;}
	.st15{fill:#936000;}
	.st16{fill:#672000;}
	.st17{fill:#956101;}
	.st18{fill:#956000;}
	.st19{fill:#FCE1C4;}
	.st20{fill:#FCE0C3;}
	.st21{fill:#F6B515;}
	.st22{fill:#FBE1C3;}
	.st23{fill:#F9E3C6;}
	.st24{fill:#F9B315;}
	.st25{fill:#FBE0C3;}
	.st26{fill:#915E00;}
	.st27{fill:#FAE0C2;}
	.st28{fill:#F9B416;}
	.st29{fill:#FAB515;}
	.st30{fill:#F6B417;}
	.st31{fill:#FAB415;}
	.st32{fill:#652000;}
	.st33{fill:#F7B214;}
	.st34{fill:#F4D7AD;}
	.st35{fill:#631F00;}
	.st36{fill:#5E1D00;}
	.st37{fill:#FC0000;}
	.st38{fill:#966100;}
	.st39{fill:#800100;}
	.st40{fill:#FC2C1C;}
	.st41{fill:#060400;}
	.st42{fill:#F6B214;}
	.st43{fill:#050300;}
	.st44{fill:#F5B114;}
	.st45{fill:#040200;}
	.st46{fill:#030100;}
	.st47{fill:#070500;}
	.st48{fill:#F8B415;}
	.st49{fill:#0D0A03;}
	.st50{fill:#F3DAB6;}
	.st51{fill:#FEFDFD;}
</style>
<g>
	<path d="M641.2,50.8c14.6,0.1,29.7-2,41.7,9.2c4,3.7,6.5,2.2,9.7-0.7c39.6-35.4,103.8-34.1,141,14.9c25,33,48.7,66.6,57.5,108.9
		c7.5,36.4,1.6,67-27.2,91.1c-13,10.9-13.6,18-0.2,29.6c28.6,24.8,26.4,59.3-8.1,96.3c-38.1,40.7-81.9,71.8-138.5,80.2
		c-19.1,2.8-17.4,11.8-8.5,23.3c25.4,32.8,40.7,70.1,51.6,109.7c2.3,8.2,3.6,17.6,3,24.3c-2,21.7,16.6,34.2,19.5,54.4
		c4.2,28.7-4.5,49-19.7,71.7c-15.4,23-29.1,49.1-35.5,75.8c-9.5,40.2-33.4,63.4-69.1,78.6c-18.7,7.9-39,9.1-58.3,14.5
		c-20.8,5.8-36.7,21.3-57.6,27c-50,13.6-99.2,18.1-151.8,10.9c-58.1-8-107.6-31.2-152.7-64.6C181.7,863.8,137.4,812,120,740.8
		c-4.6-19-18.1-35.6-24.6-54.4c-10-29.1-14.4-59.2-5.6-89.9c0.2-0.6-0.2-1.5,0.1-1.9c31.1-36.5,27.5-84.8,42.9-126.6
		c9.9-27,27.2-46.9,56.1-53.7c8.1-1.9,11.8-7.6,16.4-12.5c33.1-34.7,72.1-59.6,118.6-71.2c25.6-6.4,52-9.9,78.1-14
		c6.6-1.1,12.4-3.3,17-7.4c28.3-25.3,61.8-35.9,99.3-35.8c4.1,0,10.3,2.7,12-2.6c2-6.4-4.6-7.5-9-10c-7.7-4.2-15.4-8.6-22.3-14
		c-26.6-20.9-30.6-47-9.4-84.9c19.7-35.3,41.8-69.1,78-91C590.5,56.9,614.5,49.6,641.2,50.8z"/>
	<path class="st0" d="M625.1,117.4c9.9,9.7,13.4,24.7,26.5,31.8c11.9,3.1,21.4-0.4,29.2-10c5.3-6.5,11.5-12.2,17.5-18.1
		c20.5-20.1,38-22.4,59.4-3.4c29,25.8,55.4,54.3,66.2,93.4c6.8,19.4,0.6,36.1-20.8,49.4c-13.7,8.4-29,14.1-43.6,21.1
		c-11.8,5.6-12,11.4-1.4,19.3c14.5,10.9,28.5,22.5,42,34.6c9.5,8.5,14.4,19.2,5.4,30.9c-26.2,34.4-57,63.5-95.7,83.7
		c-17.5,9.1-30,7-38.5-12.5c-4.9-11.2-13.2-20.9-18.2-32.1c-6.2-13.9-13.7-10.9-22.1-3.3c-8.7,7.8-17.8,15.3-25.4,24.1
		c-9.6,11-19.5,11.3-30.6,3.6c-23.5-16.3-46.5-33-60.8-58.9c-1.9-8.7,3.7-14.5,8-20.7c9.6-13.7,18.8-27.5,25.5-42.9
		c5-11.5,7.1-23.2,3.1-35.5c0.3-6.4-2-11.8-6.1-16.6c-3.8-9.2-10.4-16.5-17.3-23.3c-15.6-15.3-17-32.9-9.1-51.9
		c11.5-27.8,29.5-50.3,55.8-65.6C596,101.5,604.8,102,625.1,117.4z"/>
	<path class="st0" d="M503.9,558.8c-59.8-26.7-99.7-70.5-115.9-134.6c-2.5-9.7,0.9-19.2,3.1-28.7c11-19.7,21.3-25.1,41-17.4
		c15.2,6,20.4-0.4,22.9-13.5c0.6-3.2,1.1-6.5,0.9-9.7c-0.9-25.1,12.7-40.1,34.8-48.6c10.5-4,19.9-9.5,28.5-16.7
		c4.4-1,10.1-3.5,6.7,5.2c-3.4,9-8.3,17.3-14.6,24.6c-25.4,41.6-19.3,72.8,20.8,104.1c14.9,11.6,31.1,21.4,48.4,28.8
		c19.7,8.4,32.9,22.1,32.8,43.8c-0.2,23.2-9.7,43-30.4,55.5c-13.5,8.2-28,13.2-44.4,11C526.9,561.1,515.2,561.3,503.9,558.8z"/>
	<path class="st1" d="M734.6,699.4c-46.1,35.9-97.1,58.6-156.7,58c-4.2-5.6-1.8-11.3,0.1-16.7c9.8-27.1,13.6-55.4,17.1-83.8
		c0.6-5.2,1.1-10.3,0.1-15.5c-3.7-18.4-4.8-39.6-26.7-45.9c-22-6.4-43.8-3.3-61.9,13c-33.5,30.3-58.4,66-69.6,110.4
		c-2,8.1-3.1,16.8-10.7,22.4c-33.7-6.8-34.4-7.1-18.7-35.6c25.2-45.8,55-88.1,95.6-122.1c6.4-5.4,12.2-6.2,19.5-4.8
		c64.2,11.8,116.3-8.6,157-59.1c16.3,15.4,21.8,36.6,28.4,56.6C721.3,616.2,728.1,657.8,734.6,699.4z"/>
	<path class="st2" d="M426.4,741.2c9.4-53.1,34.6-97.2,73.5-134.4c21.3-20.4,46.1-22.2,72.1-16.6c18.4,4,31.9,37.1,28.7,65
		c-4,34.9-10.1,69.2-22.8,102.2c-33.9,8.6-66.9-2-100.2-5.1C460.4,750.8,443.4,745.1,426.4,741.2z"/>
	<path class="st3" d="M593.2,770.5c42.1-2.4,80.1-18.6,117.5-36.2c1.2-0.6,2.5-1.2,3.6-0.7c25,11.3,25,11.3,44.9-9.3
		c1.8-1.9,4-3.1,6.6-1.5c-0.8,17.8-13.3,27.4-26.1,36.5c-53.4,37.4-114.8,53-177.9,56.9c-129.5,8.1-242.8-35.3-339.2-120.7
		c-55.8-49.4-82.8-113.6-82-188.7c0.3-25.3,9.3-46.9,30.9-61.8c5,5.3,2.5,11,0.8,16.5c-19.2,64.4,1.2,121.2,37.6,172.5
		c43.9,61.9,106.5,99.3,177.3,124.9c48.7,17.6,97.9,30.6,149.8,31.6C558,790.8,579,789.9,593.2,770.5z"/>
	<path class="st4" d="M593.2,770.5c0.2,16.5-12.1,20-24.4,22.4c-36.4,7-73.4,3-107.9-5.9c-69.8-18-137.8-41.8-195.7-88.1
		C200.9,647.5,162,583.6,159.5,499.6c-0.6-19.6,9.1-36.3,12.1-54.7c6-6.7,12.6-12.3,22.3-14c-13.8,61.7-23.1,122.4,16.6,178.5
		c19-10.5,24.7-31.1,35.3-47.7c31.2-49.3,67.1-93.8,118.1-124c2.9-1.7,5-4.1,6.5-7.1c12.5-1.1,6.5,9.4,9,14.5c1.8,5.2-2.3,7-5.6,8.4
		c-53.4,23.3-84.9,68.2-113.5,115.6c-9.7,16-19.9,31.8-28.1,48.7c-2.4,4.8-2.8,9.9-1.5,15.1c18.4,32.4,49.8,50.2,79.3,70.1
		c7.5,5.1,16.4,8.2,23.8,13.4c8.7,6.1,12.7,1.2,16.8-5.3c5.3,0.8,9.7,3.4,13.7,6.8c0.9,9.8,10.1,13.5,14.9,20.4
		C447.9,765.2,519,778.1,593.2,770.5z"/>
	<path class="st5" d="M202.8,440.8c13.6-35.5,42.2-56.7,73.3-74.3c37.8-21.4,79.6-30.3,124.9-33c-6,12.1-11.5,23.2-17.1,34.3
		c-8.8,6.2-19.5,6.9-29.4,9.8c-7.5,2.2-11.6,5-6.7,13.7c8.7,15.3,2.1,27.6-9.3,38c-26.8,24.4-55.1,47.4-77.8,76.1
		c-6.4,8.1-15.2,12.4-25.8,9.8c-10.8-2.6-12.6-12-14.9-20.8c-1.3-5-2.2-10.2-2.1-15.4c0.2-11.5-0.7-22-13.1-27.9
		C201.1,449.3,200.3,444.8,202.8,440.8z"/>
	<path class="st6" d="M835.1,195.8c-18.4-44.2-48.2-79.5-84.9-109.7c-16.5-13.6-34.4-12.1-55.3-3.1c36.5-40.2,79.9-40.4,110.3-12.8
		c36,32.7,60.6,72.6,69.9,121c2.8,8.2,3.3,16.5-1.7,23.9c-7.6,11.3-24.4,9.1-31.9-3.8C838.7,206.4,840.2,199.8,835.1,195.8z"/>
	<path class="st3" d="M437.2,918.6c-72.3-8.2-136.1-37.5-195.1-78.6c-19.1-23.1-43.9-40.4-63.7-62.8
		c-31.2-35.4-57.3-73.7-70.1-119.9c-4.5-16.1-2.3-32.3-2.5-48.4c0-3.9,1.4-7.8,6.8-7.5c-3.7,64.5,29.7,114.2,70.1,157.6
		c82.5,88.8,185.2,138,307.6,144.5c18.9,1,37.4-2.2,56.1-0.7c-1.8,11-11.5,10.7-19.1,12.8C497.7,923.6,467.4,920,437.2,918.6z"/>
	<path class="st7" d="M202.8,440.8c1.1,3.7,1.8,7.8,6.9,8.1c11.5,0.6,13.2,8.2,13,17.6c-0.2,10.4,0,20.5,3.3,30.7
		c5,15.5,16.6,21.1,26.3,9.2c25.8-32.1,58.7-56.3,87.5-85c15-15,6.7-28-6.9-40.4c17.3-8.2,33.3-14,51.1-13.3
		c-0.1,1.3-0.2,2.6-0.3,3.9c-2.3,28-13.9,46.3-40.1,62.9C289.7,468.5,252,520,219,574.3c-3,4.9-6,9.8-10.8,17.8
		C186.3,540.2,188.1,490.8,202.8,440.8z"/>
	<path class="st8" d="M503.9,558.8c26,1,51.9,3.2,75.9-11c19.4-11.5,27.8-29.5,28.7-50.1c0.8-19.9-10.6-33.1-29.7-41.1
		c-33.4-14-63.5-33-81.4-66.5c-14.9-27.8-10.7-49.7,13.8-70.7c0.1,0.6,0.3,1.3,0.2,1.9c-4.1,17.8-19.6,34.8-8.8,53.7
		c13.9,24.4,33.6,43.8,57.6,59.4c21.5,13.9,42,16.7,65.3,5c25.5-12.7,25.9-11.9,41.8,13.9c-18.7,15.9-38.7,30.8-45.7,56.3
		c-1.2,4.4-2.8,8.6-3.2,13.2c-0.8,11,3.1,14.5,13.7,9.2c6-3,11.4-9.5,19.5-5.3c-15.2,21-38.2,30.1-61.5,37.2
		C561.2,572.7,532.1,570,503.9,558.8z"/>
	<path class="st4" d="M414.9,506.9c2.4,2.8,4.9,5.7,7.3,8.5c8.6,46.2-23.3,86.8-71,90.7c-30.6-11-44.2-39.8-36.3-77
		c10.1,6.2,16.4,3.4,23.1-6.5c14.6-21.8,28.2-25.9,52.6-17.3C398.7,508.2,406.6,508.7,414.9,506.9z"/>
	<path class="st9" d="M230,848.4c23,7.5,40.8,24,61.7,35.2c74.3,39.6,153.8,52.9,236.9,50.3c8.4-0.3,16.8,0,28.9,0
		c-25.3,14.8-50.2,20.1-75.3,22.2c-16.2,1.4-32.5,10-49.1,1.6c-72.6-12.7-137.1-42.7-193-90.8C234.6,862.1,225.8,858.6,230,848.4z"
		/>
	<path class="st10" d="M374.7,797.2c21.2,5.9,42.5,11.5,63.5,17.7c14.9,4.4,23.3,25.7,15.6,41.8c-8,16.7-20.3,29-41,26.5
		c-28.7-3.5-55.3-13.7-80.7-27.3c-5.1-2.7-7.7-6.8-7.5-12.6C338.5,825,350.6,804.6,374.7,797.2z"/>
	<path class="st11" d="M230,848.4c10.7,17.7,28.5,27.8,44.7,39c48.5,33.8,101.7,56.7,160.4,66.2c0.5,0.1,1,0.4,1.5,0.6
		c-1.2,1.2-2.3,2.3-3.5,3.5c-118.4-2.5-261.7-97.1-282.7-188.1C171.7,801.3,204.3,821.2,230,848.4z"/>
	<path class="st3" d="M257.8,734.5c14.8,11.6,30.5,21.9,47,31.1c18.2,10.1,23.8,30.3,13.5,48.1c-10.2,17.7-27.3,21.8-45.9,10.2
		c-13.8-8.6-27.4-17.5-40.4-27.2c-12.7-9.4-19.9-22.1-17.4-38.7C230.7,753.2,242.4,740.5,257.8,734.5z"/>
	<path class="st12" d="M625.1,117.4c-32.7-12-52-5.6-79.9,27.1c-9.2,10.8-17.1,22.8-22.5,36.1c-7.1,17.5-7,33.1,8.1,47.7
		c7,6.8,18.6,13.3,13.8,27c-8.6-4.6-17.2-9-25.7-13.8c-25.1-14-28.5-22.4-21.1-50.5c11.3-42.7,40.6-73.1,71.3-102.1
		C580.7,78,599,81,609.1,93.3C615.2,100.7,619.8,109.3,625.1,117.4z"/>
	<path class="st13" d="M519.1,289.7c-1,13.1-11.4,16-21.2,19.5c-29.5,10.5-35.8,18.7-36.5,48.9c-0.2,8-2.1,15.5-5.6,22.4
		c-3.6,7.2-10.5,11.6-17.4,6.1c-19.8-15.8-33.3-3.6-47.3,8.9C400,329.1,447.7,289.7,519.1,289.7z"/>
	<path class="st14" d="M316.7,592.3c10,2.6,16.4,10.1,22.9,17.3c10.3,24.8,6.3,48.9-3.7,72.6c-3,7.1-6.3,14.4-16.1,13.9
		c-11.8-7-28.8-10.2-16.4-31.2c4.4-7.4-1.9-16-9.7-21c-7.5-4.9-14.8-3.8-21.7,1c-15.5,10.7-22.3,7.3-26-13.1
		C266.1,612.4,291.3,602.1,316.7,592.3z"/>
	<path class="st2" d="M734.6,699.4c-11.6-10.1-9.1-25-11.3-37.6c-8.6-49.3-21.8-97-43.5-142.2c6.3-11.7,11.6-12.4,19.8-0.6
		c30.6,43.6,44,93.1,51.2,144.7C752.7,677.8,745.5,690,734.6,699.4z"/>
	<path class="st15" d="M515.5,894.1c-6.5,0.1-13,0.4-19.5,0.4c-12.6,0-25-0.1-29.7-15.7c-5.3-17.5-6.6-34.2,6.2-49.4
		c5.5-6.6,13-5.1,19.9-4.8c22,1.2,44,2.8,66,4.3c12.6,12.6,11.9,30.7-2.4,44.6C544.7,884.4,531.4,892,515.5,894.1z"/>
	<path class="st8" d="M859.7,324.1c12.3,17.4,6.2,34.5-4.5,48.3c-36.2,46.7-81.4,80.4-141.7,90c28.9-15.3,53.4-36.2,76.2-58.9
		c14.6-14.5,29.4-29.5,33.7-51.1C834,341,851.7,338.7,859.7,324.1z"/>
	<path class="st8" d="M437.2,918.6c30.2,0,60.3-1.1,89.9-8.4c6.8-1.7,13.8-2.8,19.4-7.5c64.2-11.8,87.2-0.9,161.1-61.3
		c-0.2,20.8-14.3,39.7-42.2,53.8c-31,15.8-65.1,21.8-99.1,26c-41.2,5.1-82.7,3.2-124-0.1C440.6,921,438.9,919.5,437.2,918.6z"/>
	<path class="st16" d="M613.2,820c13-3.1,26.2-5.9,39.1-9.5c13-3.7,10.9,10.3,18.2,14.5c4.1-32.3,34.8-31.9,55-44.4
		c5.2-3.3,9.2,1.9,7.1,7.1c-10.5,25-25.8,46.9-49.3,60.8c-11.9,7-9.3-8-16.4-16.6c-3.8,36.7-25.7,50-57.6,50.4
		c0.5-7.7,10.3-11.5,8.4-20.3c13.7-7.2,9-17.9,5.4-28.3C623.8,826,616.2,824.7,613.2,820z"/>
	<path class="st17" d="M378.9,738.2c-10.7-2.8-20.7-6-15.5-20.7c12.9-38.1,34.1-71.5,58.9-102.8c13.5-12.1,23.2-27.6,37-39.5
		c5.4-4.6,9.7-10.5,17-12.4c6.6,2.3,13.2,4.6,19.2,10.9c-24.7,24.1-50.6,46.9-68.4,76.6C409.9,679,388.5,705.4,378.9,738.2z"/>
	<path class="st3" d="M230.5,632.8c-7.8-3.5-8.3-8.4-4.2-15.5c25.5-43.7,49.4-88.4,84.6-125.6c19.5-20.6,43.3-34.3,68.3-46.6
		c7.8,12.5,8.8,21.2-9.5,25.2c-9.3,2-19.7,5.9-25.6,15.3c-4.3,14.7-15,23.3-28,29.8c-18.1,11.1-27.5,29.9-39.5,46.2
		C260.1,584.6,248.8,611,230.5,632.8z"/>
	<path class="st18" d="M651.6,526.8c-5,2.8-9.9,6-15.1,8.2c-6.8,2.8-13.4,11.5-20.8,5.6c-5.7-4.5-3-13.6-2-20.4
		c3.8-25.3,27.4-61.6,53.6-66.9c4.3,10.6,22.2,13.9,19.3,26.5C682,499.7,668.8,515.2,651.6,526.8z"/>
	<path class="st19" d="M823.9,211.1c-16.7-31.4-36.7-60.6-63.3-84.5c-28.3-25.4-40.6-24.5-65.9,3.8c-5.2,5.8-9.6,12.2-15,17.8
		c-8.8,9.2-18.3,12.2-28,1c7.8-5.4,11.4-14,16.2-21.7c30.3-48.1,57.6-53.1,97.8-13.8c21.6,21.1,40.4,45.8,54.2,73.3
		C823.4,194.2,827.7,202.2,823.9,211.1z"/>
	<path class="st16" d="M835.1,195.8c5.2,1.3,6.1,6.2,8.2,10c4.2,7.7,9,14.9,19.2,12.4c9.7-2.4,12.6-10,12.4-19.2
		c-0.1-2.6,0.1-5.1,0.2-7.7c8.2,24.5-5.4,58.7-29.7,77.6c-8.3,6.5-20.9,7.7-24.8,19.6c-16.2,7.9-33.7,7.7-51.2,8.1
		c-4.9-2.4-8.5-5.2-1-8.8c6.4-3.1,13-5.6,19.5-8.3C829.1,263.3,839.5,244.9,835.1,195.8z"/>
	<path class="st6" d="M769.5,296.7c16.4-7.1,33.6-8.9,51.2-8.1c14.4,10.4,29.6,19.8,39.1,35.6c-1.2,23.3-21.9,21.8-36.2,28.3
		C814.2,325.4,790.1,312.7,769.5,296.7z"/>
	<path class="st15" d="M159.8,644.4c0.9,3,0.9,6.5,4.4,8.1c3.9,9.2-7.2,18-0.8,27.6c8.7-0.6,13.7-12.4,23.9-8.3
		c21.8,13.7,33.2,33.6,35.6,59c1.2,7.1,1.8,13.8-7.8,15.3c-0.8-8.2-3.4-5.3-7.7-1.9c-13,10.5-22.9,7.6-34.2-5.3
		c-19-21.8-20.7-48.1-24.1-74.3C146.6,654.7,149.9,647.9,159.8,644.4z"/>
	<path class="st20" d="M316.2,515.5c9.3-9.9,18.7-19.9,28-29.8c13.3,0.5,25.9-6.7,39.8-2.3c13.5,4.3,25.2,9.7,30.9,23.6
		c-5.5,8-11.3,9.9-21.1,5.1c-27.3-13.3-38.2-9.4-55.1,17.8c-3.5,5.7-7,11.5-14.1,11.5c-7.5,0.1-8.4-6.6-9.7-12.3
		C315.3,524.6,315.7,520,316.2,515.5z"/>
	<path class="st21" d="M112.7,601.3c-10.4,32.4-1.1,62.1,12.9,91.1c25.5,52.9,66.7,93.1,107.6,133.7c3.7,3.7,13,4.9,8.9,13.9
		c-55.3-37.7-98.7-85.6-126.3-147.2c-11.3-25.3-15.8-52-15-79.6c0.3-9,2.6-17.5,10.5-23.4C115.8,593.9,112.8,597.7,112.7,601.3z"/>
	<path class="st22" d="M424.4,617.5c-24.1,31.1-40.4,66.9-61,100.1c-6.7,2.4-10.8-0.2-13.1-6.6c17.6-45.5,44.9-85.2,75.3-122.8
		c10.8-1,12.2,5,9.3,13.3C432.8,607.6,429.5,613.2,424.4,617.5z"/>
	<path class="st23" d="M370.3,430.6c-0.4,7.5-5.7,11.6-11.2,15c-57,35.9-93.3,89.5-125.9,146.3c-5.2,9-10.2,18.1-22.7,17.5
		c29.9-51.4,61.1-101.9,105.5-142.6C332.2,451.9,349,437.9,370.3,430.6z"/>
	<path class="st18" d="M628.5,93.9C621,87,615.3,77.8,599.6,74c21.8-7.3,39.1-10.2,56.8-7.7c21.8,3.1,25.9,12.7,14.5,30.9
		c-3.4,5.5-7.1,10.8-10.6,16.2C643.8,116.5,637.5,103.1,628.5,93.9z"/>
	<path class="st10" d="M617,864c14,13.2-6.1,11.7-7.8,18.1c-26.4,6.8-30.1,3.5-27.6-24.7c2.1-23.8,9.7-32.9,31.6-37.4
		c16.2,1.1,16.2,1.1,12,12.2C613,840.4,614.6,852.1,617,864z"/>
	<path class="st24" d="M765.9,722.8c-3.2,4.6-6.3,9.4-9.8,13.9c-13,16.8-23.1,17.4-37.5,2.7c-2.1-2.2-5.2-3.4-7.8-5.1
		c18.4-16.3,42.3-27.1,50.5-56.1C770.5,694.5,770.9,708.4,765.9,722.8z"/>
	<path class="st10" d="M351.2,606.1c27.7-9.1,51.2-23,63.1-51.7c5.3-12.6,9.2-25.2,7.9-39c13.5,21.9,14.6,43.2-3.4,63.2
		c-8.5,9.5-13.5,22.7-25.5,28.3C379.6,613.3,365,615.4,351.2,606.1z"/>
	<path class="st25" d="M550.8,271.8c13.8,5.1,8.6,15.3,6.1,24.1c-8.3,28.3-27.1,50.7-42.7,75c-7-6.3-6.4-13.1-2.4-21
		C525,324,537.8,297.9,550.8,271.8z"/>
	<path class="st26" d="M319.8,696.2c22.8-25.1,21.5-55.8,19.8-86.5c20.3,23.8,16.6,50.2,8.5,77.1
		C343.1,703.3,334.7,709.5,319.8,696.2z"/>
	<path class="st27" d="M316.7,592.3c-2.4,2.9-4.2,7.7-7.2,8.5c-20.6,5.9-38.4,16.1-54.2,30.4c-1.8,1.6-6.1,0.5-9.2,0.6
		C254.5,597.2,284.3,578.4,316.7,592.3z"/>
	<path class="st28" d="M424.4,617.5c-0.8-9.8,21.9-18.6,1.2-29.3c6.3-13.8,18.4-22.5,28.9-32.4c9.7-9.2,14.3,5,21.7,7.1
		C459,581.1,441.7,599.3,424.4,617.5z"/>
	<path class="st29" d="M374.7,797.2c-2.8,3.5-4.9,8.8-8.4,10.1c-13.7,4.9-23,13.2-27.8,27.2c-1.9,5.4-7.2,9.1-13.8,9
		c-6.4-16.6-0.4-31.3,11.1-41.7C346.2,792.3,360.4,787.8,374.7,797.2z"/>
	<path class="st30" d="M159.8,644.4c-3.5,6.8-7.1,13.6-10.6,20.3c-10.1,10.7-17.2,10-20.7-5.2c-1.2-4.9-2.5-9.8-3.8-14.7
		c0.8-0.4,1.5-0.9,2.3-1.3c11.4,1.6,18.9-0.7,14.6-14.7c-1.2-6.9-4.4-13.2-6.4-20c1.4-7.3,3-14.4,11.1-17.4
		C149,609.5,163.5,624.6,159.8,644.4z"/>
	<path class="st31" d="M215.1,746.2c2.6-5.1,5.2-10.2,7.8-15.3c13.1-12.8,24.3-7.1,34.9,3.6c-5.8,12.4-32,26.6-43.2,23.5
		C214.8,754,214.9,750.1,215.1,746.2z"/>
	<path class="st32" d="M515.5,894.1c11-6.6,22.3-12.6,32.8-20c15.8-11.2,19.2-28.1,10.1-45.2c12.2,0.6,14.6,8.8,13.9,18.7
		C569.9,882.9,555.7,894.5,515.5,894.1z"/>
	<path class="st33" d="M187.2,671.9c-4.8,3-9.7,5.9-14.4,9.1c-4.2,2.8-6.4,11.6-13.3,6.7c-5.8-4.1-4.7-11.6-2.9-17.7
		c1.8-6,5-11.6,7.6-17.4C181.2,647.9,180.4,664.4,187.2,671.9z"/>
	<path class="st34" d="M146.2,591.4c-0.5,7.6-4.7,13-10.4,17.6c-1.7,1.3-3.6,1.4-5.5,0.4c-8.6-6.2-8.3-14.7-6-23.7
		c1.6-6.7,1.6-16.4,11.4-14.9C146.4,572.5,143.7,583.9,146.2,591.4z"/>
	<path class="st35" d="M628.5,93.9c10.3,6.9,19.9,15.1,31.7,19.5c-0.5,6.7-4.5,11.6-8.9,18.8C641.6,119.4,634.2,107.2,628.5,93.9z"
		/>
	<path class="st30" d="M124.4,585.6c-0.9,9.7,3.3,17.1,10,23.5c1.6,7.8-0.8,15.2-2.3,22.8c-1.5,4.6-3,9.2-6.9,12.5
		c0,0-0.6,0.4-0.6,0.4C118,625.1,119.1,605.4,124.4,585.6z"/>
	<path class="st36" d="M627.8,424.1c2.6-6.2,5.7-11.7,13.1-12.3c0.7-0.1,2.7,3.1,2.4,4C640.5,422.6,633.7,422.3,627.8,424.1z"/>
	<path class="st37" d="M581.5,280.9c-9-18.5-12.2-37.7-6.5-57.8c3.5-0.6,5,1.7,6.3,4.3c3,11.8,4,25.4,21.7,23.6
		c20.2-2,38.4-18.4,40.3-35.8c1-8.7-2.5-16.4-4.1-24.6c0.7-3.2,2.2-5.2,5.8-3.9c27.8,7,48.3,23.3,62.4,48
		c12.3,35.7-14.3,75.5-53.4,78.4C624.6,315.4,599.5,305.7,581.5,280.9z"/>
	<path class="st38" d="M718.8,261.4c8.7,35.4,5.5,69.3-15.7,99.5c-12.5,17.9-38.1,20.4-59.4,5.6c-20.9-14.5-37-33.9-46-58.3
		c8.3-5,13.1,1.9,18.5,5.7c42.1,30.1,80.5,16.6,94.7-33.4C712.7,274,713,266.5,718.8,261.4z"/>
	<path class="st39" d="M718.8,261.4c-1.5,23.2-7.6,44.1-26.1,60.2c-22.4,19.4-51,19.1-77.7-1.6c-5.5-4.3-9.2-11.1-17.3-11.6
		c-5.4-9.1-10.7-18.3-16.1-27.4c12.5,10.5,26.6,17.8,41.7,24.1c45.1,18.8,98.4-29,84.3-70.2C714.6,242.3,716.3,252,718.8,261.4z"/>
	<path class="st40" d="M645.1,186.8c-1.5,1.4-2.9,2.7-4.4,4.1c-27.3,0.7-44.6,18.7-62.4,36c-1.1-1.3-2.2-2.6-3.3-3.8
		C588.3,187.3,609.8,176.1,645.1,186.8z"/>
	<path class="st41" d="M363.8,568.7c-11.6-1.7-19.8-8.5-20.2-21.3c-0.3-12.8,7.5-21.5,20-22c13.7-0.6,22.1,8.7,21.9,21.9
		C385.5,559.5,377.5,567.3,363.8,568.7z"/>
	<path class="st31" d="M402.9,840.1c4.2-3.2,2-13.2,10.8-11.1c7.7,1.9,8.3,8.9,8.6,15.5c0.8,16.8-8.9,25.6-23.8,27.6
		c-11.5,1.6-19.3-3.1-11.7-16.7C389.9,848.1,396.4,844.1,402.9,840.1z"/>
	<path class="st41" d="M402.9,840.1c-1.5,9.2-9.3,11.8-16.1,15.4c-9.7-2.7-19.4-6.5-18.7-18.4c0.4-7.5,6.9-12.2,14.8-12.9
		C394.4,823.2,401,828.8,402.9,840.1z"/>
	<path class="st41" d="M265.8,789.4c-11.8,0.2-18.5-6.2-18-17.3c0.3-7.6,5.1-15.3,14.6-14.7c12.1,0.7,15.1,9.8,15.5,20.2
		C278,785.9,274.1,790,265.8,789.4z"/>
	<path class="st42" d="M265.8,789.4c5.7-2.2,9.1-6.8,12.1-11.8c9.8,2.3,12.8,8.4,7.6,16.8c-4.6,7.4-12,12.8-20.9,9.3
		C251.9,798.7,260.9,793.9,265.8,789.4z"/>
	<path class="st43" d="M531.4,859.2c-1.8,9.3-7.2,15.8-17,15.1c-9.6-0.8-15.2-7.2-14.6-17.3c0.5-9.4,6.4-14.2,15.4-13.9
		C525.1,843.4,530.4,849.2,531.4,859.2z"/>
	<path class="st44" d="M468.5,856.4c1.2-8.1,0.2-18.4,9.3-21.3c6.2-2,7.4,6.1,6.4,10.9c-1.8,9,0.4,22.1-9,25.1
		C467.6,873.5,470.1,862,468.5,856.4z"/>
	<path class="st45" d="M617,864c-12.8-17-10.1-27.6,8.2-31.9C637.9,851.7,636,858.8,617,864z"/>
	<path class="st46" d="M707.5,813.7c-0.4,6.2-0.5,12.5-6.9,12.8c-6.4,0.3-7.9-6.2-7.5-11c0.4-4.6,1.5-11.4,7.5-11.9
		C707.9,803,706.2,810.3,707.5,813.7z"/>
	<path class="st47" d="M183.8,719.1c-16-4.7-14-16.9-10.9-28.5c1.7-6.2,7.6-9.9,13.9-5.8c11.8,8,8.4,18.9,4.3,29.6
		C190,718.3,187.9,720.3,183.8,719.1z"/>
	<path class="st48" d="M183.8,719.1c2.4-1.5,4.8-3.1,7.2-4.6c3.8-0.8,7.8-6.6,11.3-0.4c2.5,4.5-0.1,8.5-3.6,11.7
		c-4.5,4-9.8,7-15.5,4.2C176.5,726.6,182.2,722.6,183.8,719.1z"/>
	<path class="st49" d="M129.2,632.2c-1.2-8.3-0.6-16.2,5.2-23c0,0,1.4-0.2,1.4-0.2c11.1,2.8,9.4,12.1,10.3,20.2
		c0.5,4.7-0.3,8.8-5.7,9.8C134.9,640,130.9,637.9,129.2,632.2z"/>
	<path class="st50" d="M129.2,632.2c7.3,8.1,12.9,6.8,16.9-3.1c5.1,8.3,1.3,14.9-4.8,20.2c-7.3,6.2-11.2-1.4-16.1-4.9
		C124.9,639.8,124,635,129.2,632.2z"/>
	<path class="st51" d="M578.3,226.9c17.5-32.2,31.5-40.3,62.4-36c16.2,14.3,9,29.1,0.3,43.3c-5.6,9-15,14.1-24.6,18.3
		C591.2,263.2,577.9,254.3,578.3,226.9z"/>
</g>
</svg>
