<?xml version="1.0" encoding="utf-8"?>
<!-- Generator: Adobe Illustrator 23.0.1, SVG Export Plug-In . SVG Version: 6.00 Build 0)  -->
<svg version="1.1" id="Layer_4" xmlns="http://www.w3.org/2000/svg" xmlns:xlink="http://www.w3.org/1999/xlink" x="0px" y="0px"
	 viewBox="0 0 1000 1000" style="enable-background:new 0 0 1000 1000;" xml:space="preserve">
<style type="text/css">
	.st0{fill:#6E3720;}
	.st1{fill:#FB9A7A;}
</style>
<g>
	<path class="st0" d="M344.5,590.8c-27.2,0.8-50.2-19.6-54.7-45.4c-2-11.4-2.5-22.2,2.7-32.5c3.6-7.3,10-12.4,16.7-16.7
		c4.9-3.1,8.3-7.8,11.6-12.1c9.8-13,32-17.5,44-3.3c6.9,8.3,16.4,9.9,25.6,12.3c12.4,3.3,21.1,10.2,23.4,23.3
		c1.3,7-2.3,12.9-5.9,18.6c-0.5,0.8-1,1.6-1.7,2.3c-5.6,5.2-9.4,11.1-11.1,18.8c-1.3,6.4-7.3,9.9-12.3,13.6c-1.9,1.4-3.1,2.9-4,5
		c-4.3,9.9-13,13.5-22.7,15.1C352,590.3,347.9,591.9,344.5,590.8z"/>
	<path class="st0" d="M657.9,593.8c-9.5-0.9-20.5-1.4-28.9-10.2c-0.4-0.5-1.1-0.8-1.3-1.4c-2.2-6.5-7.4-10.4-12.5-14.4
		c-4.6-3.7-7.6-8.5-8.1-14.6c-0.3-3.5-2.6-6-5.1-8.3c-5.4-5.1-9.1-11.2-11.4-18.4c-3-9.4,4.9-22.3,11.8-26
		c6.8-3.7,14.1-5.4,21.4-7.3c4.7-1.2,9-3,12.3-6.8c4.9-5.7,10.7-9.7,18.5-11.1c8.4-1.5,22.7,3.2,27.7,10.3
		c5.1,7.3,11.6,13,18.7,18.3c7.6,5.7,12.5,13.1,14,22.9c2.3,15.1-1,29-8.7,41.5c-8.2,13.4-20.2,22-36.3,24.5
		C666.4,593.4,663,593.6,657.9,593.8z"/>
	<path class="st1" d="M383.6,528c8.2,8.9,8.4,22,0.7,28.9c-6.6,5.9-12.4,12-17.7,19c-2.5,3.3-7.5,4.3-11.7,5
		c-12.2,2.1-24.1,1.5-34.5-6.2c-11.9-8.7-19.7-19.9-22.6-34.6c-1.8-9.4-0.3-17.8,5-25.6c2.7-4,6.9-6.3,10.4-9.4
		c3.7-3.2,7.1-6.4,10.2-10.2c4.2-5.2,9-9.9,15.4-12.2c8.5-3,16.5-0.8,21.5,6.4c5.1,7.3,12,9.4,19.8,11.1c4,0.8,8.1,2,11.9,3.7
		c15,7,15.7,18.4,5.4,30.1c-1.6,1.8-2.7,1-3.9-0.4C390.9,530.8,387.6,529.8,383.6,528z"/>
	<path class="st1" d="M620.4,531c-4.1,1.6-7.4,2.8-9.8,5.4c-1.2,1.3-2.2,2.2-4,0.5c-7.5-7.1-8.8-16.6-3-24.5
		c2.9-3.9,7.3-5.7,11.8-7.1c5.4-1.6,10.8-3.2,16.2-4.2c4.2-0.8,7.2-2.9,9.4-6.2c8.8-13.1,22.8-14.1,34.3-2.5
		c6.5,6.5,11.9,14.2,19.6,19.3c7.8,5.3,11.4,13,11.8,21.6c1.2,24.8-20.8,53.2-48.7,51.5c-6.4-0.4-12.7-1.4-18.6-4.4
		c-3.2-1.6-5.5-4-6.7-7.3c-1.5-3.7-3.6-6.9-7.4-8.5C613.3,559.2,610.3,540.9,620.4,531z"/>
</g>
</svg>
