<?xml version="1.0" encoding="utf-8"?>
<!-- Generator: Adobe Illustrator 23.0.1, SVG Export Plug-In . SVG Version: 6.00 Build 0)  -->
<svg version="1.1" id="Layer_4" xmlns="http://www.w3.org/2000/svg" xmlns:xlink="http://www.w3.org/1999/xlink" x="0px" y="0px"
	 viewBox="0 0 1000 1000" style="enable-background:new 0 0 1000 1000;" xml:space="preserve">
<style type="text/css">
	.st0{fill:#6E3720;}
	.st1{fill:#FB9A7A;}
</style>
<g>
	<path class="st0" d="M269.8,114.7c-3-2-5.8-1.9-8.3-2.3c-8.4-1.5-15.9-5.3-23.1-9.5c-4.6-2.7-6-8.2-6.8-13.2
		c-1.3-8.8,1.7-22,11.5-27.5c7.9-4.4,16.4-4.7,25-2.3c4.3,1.2,8.5,3,13.7,4.9c-4.7-5.2-9-9.2-11.8-14.6c-3.7-7.1-4-15.8,1.1-21.9
		c3.8-4.5,8.1-8.7,13.5-11.6c8.2-4.4,17.7-1,25.5,4.9c6.9,5.2,9.9,13.2,14.1,20.3c3.9,6.6,7,13.8,13.8,18.5c2.3,1.6,2.9,1,3.8-1.1
		c1.8-4.2,3.8-8.3,5.8-12.4c5.9-12,22.2-18.8,34.7-14.6c12.5,4.2,19.7,22.8,12,33.2c-9.2,12.5-11.7,26.7-13.6,41.4
		c-1.7,13.3-3.6,27-12.7,37.7c-7.3,8.6-16.5,14.6-28,16.7c-11,2.1-21.5,0.1-32.1-2.7c-10.7-2.8-21.1-0.6-31.2,3.4
		c-4,1.6-8.1,2.4-12.4,3.1c-12.4,2.1-23.4-11.2-25.2-23.2c-1.4-9.8,7.4-21,18.6-23.8C261.7,117.1,265.5,116,269.8,114.7z"/>
	<path class="st0" d="M719.9,61.2c5.6-1,10.3-3.9,15.9-4.8c10.4-1.8,20.1-0.9,27.2,7.2c8.2,9.4,8.7,23.5,2.5,33.4
		c-3,4.8-8.6,6-13.2,8.2c-5.9,2.9-12.4,4.8-19.1,5.3c-0.5,0-1,0.7-2,1.4c4.4,1.2,8.4,2.5,12.4,3.4c14.6,3.1,23.6,22.2,13,36
		c-10.4,13.7-18.1,13-30.9,8.2c-13.6-5.1-26.6-6-40.4-2.3c-17.4,4.7-33.1,1.6-47.2-10.5c-10-8.5-13.8-19.6-16.1-31.7
		c-2.5-13-3.1-26.4-7.7-39.1c-1.7-4.7-4.8-8.5-7.5-12.6c-6.1-9.2-5.2-18,2.2-26.4c11.1-12.8,24-11.4,36.1-2
		c6,4.7,9.2,10.7,12.1,17.3c1,2.3,1.4,6,3.8,6c2.5,0,5-2.5,6.8-4.9c5.8-7.8,10.1-16.4,14.8-24.8c5.1-9.2,13.1-14.5,23.2-16.7
		c3-0.7,6.2-0.1,8.9,1.3c10.1,5.1,17.6,12.5,19.7,24.2c0.6,3.3-0.9,6-2.4,8.6C728.6,51.5,725,56.8,719.9,61.2z"/>
	<path class="st1" d="M329.4,153.5c-7.7-0.1-15.2-1.7-22.4-3.4c-10.3-2.5-20-0.7-29.7,2.2c-2.8,0.8-5.6,1.4-8.3,2.3
		c-9.3,3.1-14.9,0.3-18.8-8.6c-2.8-6.4,2.1-18.6,12.2-21.1c9.3-2.3,18.6-4.6,27.4-8.6c1.7-0.8,4.2-1,4.1-3.5
		c-0.2-2.6-2.6-2.9-4.7-3.4c-12.3-2.7-24.8-4.6-36.8-8.8c-5.1-1.8-9.2-4.5-11.1-9.7c-3.7-10.1,5.1-23,15.9-23.5
		c9.5-0.4,17.8,3.5,26.3,6.9c4.7,1.9,9.4,4,14.1,6.1c1.6,0.7,3.2,1.2,4.4-0.2c1.8-2-0.7-2.7-1.5-3.8c-7.1-10.1-16.7-18.2-22.7-29.2
		c-3.6-6.6,1.6-17.4,9.2-21.9c5.8-3.4,14.7-0.9,18.9,5.4c5.3,8.2,10.2,16.6,15.7,24.6c4.2,6.1,8.9,11.7,15,16.3
		c3.1,2.4,5.3,1.7,7.7-0.2c4-3.1,5.8-7.7,7.4-12.3c3-9.1,9.3-14.8,17.7-18.5c5-2.2,11.7-0.2,15.6,5c4.3,5.7,5.3,9.6,1.5,14.8
		c-9.5,12.9-12.3,27.9-14.2,43.3c-1.2,9.5-1.7,19.4-7.1,27.7C356.6,144.2,345.2,152.6,329.4,153.5z"/>
	<path class="st1" d="M724.5,40.3c-0.7,4.4-4.1,9.2-7.7,13.7c-5.2,6.5-10.8,12.8-16.1,19.2c-0.9,1.1-3.3,1.8-1.9,3.8
		c1.3,1.8,3,1.1,4.8,0.3c8.1-3.5,16.2-7.1,24.4-10c8-2.9,16.4-5.3,24.4,0c5.9,4,8.2,10.5,8,17.1c-0.2,6.3-4.5,10.8-10.7,12.9
		c-9.4,3.2-19,5.5-28.8,7.2c-3.5,0.6-6.9,1.2-10.3,2.2c-1.4,0.4-3.3,0.8-3.6,2.9c-0.3,2.2,1.6,2.6,3,3.3c8.8,4.3,18.4,6.3,27.8,9.1
		c6.7,1.9,10.8,5.8,13.1,12.1c2.4,6.8-1,11.8-5.3,16.3c-2.7,3-6.4,3.9-10.2,2.6c-8.8-3-17.8-5.4-26.9-7c-6.5-1.2-12.7,1.1-19,2.1
		c-9.5,1.5-19.1,4.6-28.5,0.8c-16-6.3-27.2-17.3-30.2-35c-2.2-12.8-3.2-25.7-6.8-38.2c-1.9-6.5-5.5-12-9-17.4
		c-3.9-6-3.1-10.1,1.3-15.6c4.3-5.5,10.5-7,16.1-4.5c8.4,3.7,14.2,9.5,17.1,18.4c1.5,4.4,3.3,8.8,7.1,11.9c2.6,2.1,4.8,2.8,8,0.2
		c8.6-6.8,14.4-15.6,20.3-24.7c4.5-7,7.5-15.4,14.9-20.4c6.9-4.6,15-3,19.8,3.8C722.2,30.7,724.8,34.1,724.5,40.3z"/>
</g>
</svg>
