<?xml version="1.0" encoding="utf-8"?>
<!-- Generator: Adobe Illustrator 23.0.1, SVG Export Plug-In . SVG Version: 6.00 Build 0)  -->
<svg version="1.1" id="Layer_4" xmlns="http://www.w3.org/2000/svg" xmlns:xlink="http://www.w3.org/1999/xlink" x="0px" y="0px"
	 viewBox="0 0 1000 1000" style="enable-background:new 0 0 1000 1000;" xml:space="preserve">
<style type="text/css">
	.st0{fill:#6E3720;}
	.st1{fill:#FB9A7A;}
</style>
<g>
	<path class="st0" d="M269.6,109.9c-2.6-2.2-5.5-1.9-8.1-2.4c-8.4-1.5-15.9-5.4-23.1-9.5c-4.3-2.4-5.6-7.6-6.6-12.2
		c-1.9-8.7,1.4-23.7,12-29c7.8-3.9,16.2-4.3,24.6-1.7c4.2,1.3,8.2,2.9,13.5,4.8c-4.8-5.2-8.4-9.7-11.9-14.4
		c-5.9-8-3.1-15.1,0.9-21.6c3.5-5.6,8.8-10.3,15.3-12.8c9.1-3.5,16.7,0.4,23.8,5.6c6.9,5.1,9.9,13.1,14.1,20.2
		c3.9,6.7,7.1,13.8,13.8,18.5c2.2,1.5,2.9,1.3,3.9-0.9c1.9-4.3,3.8-8.7,5.9-12.9c5.8-11.5,22.2-18.3,34.5-14.3
		c12.7,4.2,20,23,12,33.5c-9.3,12.3-11.4,26.4-13.5,40.9c-1.9,13.1-3.4,26.5-12.5,37.3c-7.5,9-16.8,15-28.6,17.3
		c-10.9,2.1-21.2,0.2-31.6-2.7c-10.7-2.9-21.1-0.5-31.2,3.4c-4.3,1.6-8.7,2.5-13.3,3.3c-10.9,1.8-22.5-10.9-24.3-23.1
		c-1.5-9.8,7.4-21.1,18.5-23.9C261.6,112.3,265.4,111.1,269.6,109.9z"/>
	<path class="st0" d="M731.7,107.1c4.9,1.3,9.9,2.1,14.5,4c15,5.8,21.1,24.5,8,38.6c-9.2,9.9-16.4,9.5-28.7,4.8
		c-13.5-5.2-26.6-5.7-40.5-2c-17.3,4.6-32.8,1.4-46.8-10.5c-10-8.5-13.9-19.6-16.2-31.7c-2.5-13-3.1-26.4-7.7-39.1
		c-1.7-4.7-4.7-8.5-7.4-12.6c-6.3-9.3-5.1-18.2,2.3-26.8c11.1-12.7,24.2-10.9,35.8-1.8c6.2,4.8,9.5,10.9,12.3,17.7
		c0.9,2.1,1.3,5.5,3.6,5.7c2.2,0.2,4.6-2.1,6.1-4.1c3.7-4.9,7-10.1,10-15.5c3.8-6.9,6.8-14.6,13.5-19.5c12.8-9.6,22.2-9.9,33.2,0
		c5.1,4.6,9,9.7,10.2,16.8c0.5,3.1,0.4,5.6-1,8.2c-3.4,6.4-7.5,12.2-14.1,17.8c6.7-1.6,11.5-4.3,16.9-5.4
		c11.3-2.4,23.3,1.1,27.7,7.4c7.2,10.4,9,21.6,2.2,33c-3,5.1-9.1,6.1-13.9,8.6C745.4,103.9,738.5,104.8,731.7,107.1z"/>
	<path class="st1" d="M329.9,148.5c-8,0.1-15.7-1.5-23.1-3.2c-10-2.4-19.3-0.7-28.8,1.9c-3.1,0.8-6.2,1.6-9.2,2.7
		c-9.2,3-14.9,0.3-18.7-8.7c-2.7-6.4,2.1-18.6,12.3-21.1c9.3-2.3,18.6-4.6,27.4-8.6c1.6-0.8,4.2-1,4-3.5c-0.2-2.6-2.7-2.9-4.7-3.3
		c-12.3-2.7-24.8-4.7-36.8-8.8c-6.7-2.3-11.7-6.5-11.8-13.5c0-7.1,2.5-14.3,9.4-17.8c7.4-3.8,15.4-1.9,22.9,0.9
		c8.2,3.1,16.3,6.6,24.4,10.1c1.7,0.7,3.4,1.6,4.9-0.1c1.7-2-0.8-2.7-1.6-3.8c-7.1-10.1-16.7-18.2-22.7-29.3
		c-3.6-6.7,1.6-17.4,9.2-21.9c5.8-3.4,14.7-0.9,18.8,5.5c5.5,8.4,10.7,17.1,16.3,25.4c4.2,6.1,9,11.7,15.1,16.1
		c2.8,2.1,4.9,0.7,6.9-0.9c4-3.1,5.8-7.7,7.3-12.3c3-9,9.3-14.8,17.7-18.5c5-2.2,11.7-0.1,15.6,5.1c4.3,5.8,5.2,9.6,1.4,14.8
		c-9.4,12.9-12.3,27.9-14.2,43.3c-1.2,9.5-2,19.2-7,27.7C358.9,137,342.4,149.6,329.9,148.5z"/>
	<path class="st1" d="M724.7,33.6c-0.3,4.5-2.5,8.4-5.1,11.7c-6.2,8-12.9,15.6-19.3,23.4c-0.8,1-2.9,1.7-1.3,3.5
		c1.3,1.5,2.8,1,4.4,0.3c8.3-3.5,16.4-7.2,24.9-10.3c8.2-3,17-5.3,24.8,0.4c5.3,3.8,7.6,10.3,7.4,16.5c-0.2,5.8-3.6,10.4-9.6,12.6
		c-11.3,4.3-23.1,6.5-34.8,8.8c-2.2,0.4-4.3,1.1-6.5,1.7c-1.3,0.4-2.5,1-2.5,2.5c-0.1,1.6,1.1,2.1,2.3,2.7c5.7,3.1,12,4.5,18,6.5
		c3.9,1.3,8.1,2,12,3.2c6.6,1.9,12.7,10.1,12.5,16.6c-0.1,5-6.1,12.9-10.9,14.1c-5.7,1.5-10.5-2.1-15.8-3.3
		c-6.4-1.5-12.8-3.9-19.2-3.9c-7.1,0.1-14.4,1.5-21.3,3.2c-15.7,3.9-29.3,0.1-40.9-10.7c-8.7-8.1-12.7-18.6-14-30.3
		c-2-17.9-4.1-35.7-15.3-50.8c-5.4-7.3,0.9-16.1,9-19.8c2.8-1.3,5.5-1.1,8.3,0.2c8.4,3.8,14.7,9.5,17.7,18.5c1.5,4.4,3.3,8.8,6.9,12
		c2.7,2.3,5,3.1,8.4,0.3c8.4-6.8,14.3-15.4,20-24.4c4.6-7.2,7.6-15.7,15.2-20.7c6.5-4.4,15-2.8,19.5,3.6
		C722,25.5,724.8,28.9,724.7,33.6z"/>
</g>
</svg>
