<?xml version="1.0" encoding="utf-8"?>
<!-- Generator: Adobe Illustrator 23.0.1, SVG Export Plug-In . SVG Version: 6.00 Build 0)  -->
<svg version="1.1" id="Layer_4" xmlns="http://www.w3.org/2000/svg" xmlns:xlink="http://www.w3.org/1999/xlink" x="0px" y="0px"
	 viewBox="0 0 1000 1000" style="enable-background:new 0 0 1000 1000;" xml:space="preserve">
<style type="text/css">
	.st0{fill:#6E3720;}
	.st1{fill:#FB9A7A;}
</style>
<g>
	<path class="st0" d="M269.9,107c-3-2.2-5.8-2-8.4-2.5c-8.4-1.5-15.9-5.4-23.1-9.5c-4.6-2.6-6-8.2-6.8-13.2
		c-1.3-8.8,1.7-22,11.5-27.5c7.9-4.4,16.4-4.7,25-2.3c4.3,1.2,8.5,3,13.7,5c-4.7-5.2-9-9.2-11.7-14.6c-3.7-7.2-4-15.9,1.1-21.9
		c3.8-4.5,8.1-8.7,13.5-11.6c8.2-4.4,17.6-1.1,25.5,4.9C317,19,320,27,324.2,34.1c3.9,6.6,7.1,13.8,13.8,18.5c2.2,1.5,2.9,1.1,3.8-1
		c1.8-4.2,3.8-8.3,5.8-12.4c6-12,22.1-18.8,34.6-14.7c12.7,4.2,19.8,23.1,11.9,33.6c-9.3,12.3-11.5,26.4-13.4,40.9
		c-1.8,13.3-3.6,27-12.7,37.7c-7.3,8.6-16.5,14.6-28,16.8c-11,2.1-21.5,0.1-32.1-2.7c-10.9-2.9-21.4-0.4-31.7,3.5
		c-6.2,2.4-12.8,4.4-19.5,2.4c-8.9-2.7-17.9-13.9-17.4-24c0.6-10.4,5.4-19.7,20.6-23.3C263.1,108.7,266.2,107.9,269.9,107z"/>
	<path class="st0" d="M731.7,104.2c4.9,1.3,9.9,2.1,14.5,4c15,5.8,21.1,24.5,8,38.6c-9.2,9.9-16.4,9.5-28.7,4.8
		c-13.5-5.2-26.6-5.7-40.5-2c-17.3,4.6-32.8,1.4-46.8-10.5c-10-8.5-13.9-19.6-16.2-31.7c-2.5-13-3.1-26.4-7.7-39.1
		c-1.7-4.7-4.7-8.5-7.4-12.6c-6.3-9.3-5.1-18.2,2.3-26.8c11.1-12.7,24.2-10.9,35.8-1.8c6.2,4.8,9.5,10.9,12.3,17.7
		c0.9,2.1,1.3,5.5,3.6,5.7c2.2,0.2,4.6-2.1,6.1-4.1c3.7-4.9,7-10.1,10-15.5c3.8-6.9,6.8-14.6,13.5-19.5c12.8-9.6,22.2-9.9,33.2,0
		c5.1,4.6,9,9.7,10.2,16.8c0.5,3.1,0.4,5.6-1,8.2c-3.4,6.4-7.5,12.2-14.1,17.7c6.7-1.6,11.5-4.3,16.9-5.4
		c11.3-2.4,23.3,1.1,27.7,7.4c7.2,10.4,9,21.6,2.2,33c-3,5.1-9.1,6.1-13.9,8.6C745.4,100.9,738.5,101.8,731.7,104.2z"/>
	<path class="st1" d="M329.7,145.7c-7.9,0-15.5-1.7-22.9-3.4c-10-2.3-19.3-0.7-28.8,1.9c-3.1,0.9-6.2,1.6-9.2,2.7
		c-9.2,3-14.9,0.2-18.7-8.8c-2.7-6.3,2.2-18.5,12.4-21c9.3-2.3,18.6-4.6,27.4-8.7c1.6-0.8,4.3-1,3.9-3.6c-0.3-2.5-2.7-2.8-4.8-3.3
		c-12.1-2.7-24.5-4.5-36.3-8.7c-5.2-1.8-9.5-4.5-11.4-10c-2.7-7.4,1-13.5,5-18.7c4.2-5.4,10.9-5.2,17.4-4.3
		c12,1.7,22.1,8.4,33.2,12.3c1.8,0.6,3.8,2,5.3,0c1.6-2.2-1.1-2.9-2.1-4.1c-6.1-7.5-12.5-14.7-18.3-22.4c-8.3-10.9-7.1-19.1,5-28.1
		c5.4-4,15-1.3,19,4.8c5.5,8.4,10.6,17.1,16.3,25.4c4,5.8,8.6,11.1,14.3,15.6c3.5,2.7,5.8,1.9,8.4-0.4c3.7-3.2,5.4-7.6,6.9-12
		c3-9,9.3-14.8,17.8-18.5c4.9-2.2,11.8,0,15.6,5.2c4.3,5.8,5.1,9.6,1.3,14.8C376.8,65.5,374,80.3,372,95.5
		c-1.2,9.7-1.6,19.7-7.2,28.2C356.6,136.3,345.4,144.6,329.7,145.7z"/>
	<path class="st1" d="M724.6,32c-0.8,5-4.2,9.8-7.9,14.4c-5.4,6.6-11,13-16.5,19.6c-0.8,0.9-2.5,1.5-1.5,3.1
		c1.1,1.7,2.8,1.4,4.4,0.7c6.6-2.8,13.3-5.6,19.9-8.4c7.7-3.3,15.5-5.7,24.2-4.3c8,1.3,10.2,7.6,12.5,13.7c3,8.2-2.1,16.1-11.1,19.1
		c-11.9,3.9-24.2,5.8-36.3,8.7c-2.2,0.5-4.9,0.6-5.1,3.5c-0.1,2.7,2.7,2.9,4.5,3.7c8.5,3.8,17.6,5.8,26.5,8.4
		c6.8,2,10.9,6.1,12.9,12.8c2.1,7-1.7,11.7-6,16.1c-2.6,2.6-6.1,3.2-9.9,1.9c-7.9-2.6-15.9-4.6-24.1-6.4c-7.6-1.7-14.6,0.8-21.8,1.7
		c-8.6,1.1-17,3.8-25.7,1.4c-15.8-4.4-30.1-18.4-32.7-35.5c-1.9-12.8-3.1-25.7-6.7-38.3c-1.8-6.5-5.5-12-9-17.5
		c-3.9-6.1-3.2-10.1,1-15.7c4.3-5.6,10.7-7.2,16.5-4.5c8.1,3.7,13.9,9.5,16.8,18.1c1.5,4.5,3.4,9.1,7.4,12.3
		c2.5,1.9,4.6,2.6,7.7,0.1c8.5-6.9,14.5-15.5,20.3-24.7c4.4-7.1,7.4-15.5,14.9-20.4c7.6-5,14.7-3.4,20,4
		C724.1,25.7,724.6,27.1,724.6,32z"/>
</g>
</svg>
