<?xml version="1.0" encoding="utf-8"?>
<!-- Generator: Adobe Illustrator 23.0.1, SVG Export Plug-In . SVG Version: 6.00 Build 0)  -->
<svg version="1.1" id="Layer_4" xmlns="http://www.w3.org/2000/svg" xmlns:xlink="http://www.w3.org/1999/xlink" x="0px" y="0px"
	 viewBox="0 0 1000 1000" style="enable-background:new 0 0 1000 1000;" xml:space="preserve">
<style type="text/css">
	.st0{fill:#6E3720;}
	.st1{fill:#FB9A7A;}
</style>
<g>
	<path class="st0" d="M342.5,587.9c-26.5,0.9-50.4-19.1-54.7-45.7c-1.3-8.2-2.1-16.2-0.4-24.2c2.1-10.1,8.8-17.2,17-22.7
		c6.1-4.1,10.3-9.8,15-15.2c10.1-11.5,28.6-16.6,41-4.3c8.3,8.2,17.7,11.9,28.3,14.5c12.5,3,21,10.4,23.2,23.4
		c1.1,6.8-2.3,12.6-5.9,18.2c-0.5,0.8-1.1,1.6-1.8,2.2c-5.4,5.3-9.4,11.1-11,18.8c-1.3,6.3-7.2,10.1-12.3,13.6
		c-2.1,1.5-3.3,3.2-4.3,5.4c-4.4,9.8-13.1,13.3-22.8,14.9C349.9,587.4,346,588.7,342.5,587.9z"/>
	<path class="st0" d="M662.3,590.9c-9.5-0.7-19-1-27.3-6.8c-3-2.1-5.7-4.4-7-7.7c-1.4-3.6-3.8-6.2-6.8-8.2
		c-6.6-4.5-11.5-10.1-12.4-18.4c-0.4-3.3-2.4-5.4-4.6-7.5c-5.4-5.3-9.3-11.4-11.7-18.8c-2.9-8.9,4.8-22,11.5-25.7
		c6.9-3.8,14.4-5.6,21.8-7.5c4.7-1.2,9-3,12.3-6.8c4.8-5.6,10.4-9.6,18-10.9c11.3-2,20.6,2,27.7,10c6.1,6.8,12.2,13.2,19.5,18.7
		c7.3,5.5,12.1,13,13.5,22.7c2.3,15.1-1,28.9-8.8,41.5c-8.1,13.2-20.1,21.8-35.8,24.4C669,590.5,665.7,590.9,662.3,590.9z"/>
	<path class="st1" d="M382.5,525.7c8.8,8.1,6.8,27.2-5.7,33.1c-2.5,1.2-5.2,2.7-6.2,5.8c-2.4,7.7-8.3,11-15.6,12.8
		c-10.7,2.6-21.5,3-31.4-2.5c-15.3-8.5-24.7-21.3-27.9-38.9c-2.8-15.2,3.9-25.3,15.3-33.7c4.1-3,7.4-6.6,10.6-10.5
		c4.1-5,8.8-9.7,15-11.9c8.7-3.1,16.8-0.8,21.9,6.5c4.9,7,11.5,9.1,18.9,10.8c3.6,0.8,7.1,1.8,10.6,2.9c4,1.3,7.8,3.1,10.3,6.7
		c5.7,8,4.2,18-3.2,24.5c-1.6,1.4-2.5,0.7-3.6-0.5C389.1,528,385.8,526.9,382.5,525.7z"/>
	<path class="st1" d="M621.7,528.2c-3.5,1.5-6.9,2.6-9.2,5.3c-1.5,1.8-2.9,1.9-4.3-0.1c-1.5-2.1-3-4.2-4.3-6.3
		c-5.3-8.7-0.7-18,7.9-22.4c6.9-3.5,14.5-4.9,22-6.6c3.9-0.9,7-2.8,9.1-5.9c9.3-13.9,23.8-14.2,35.3-2c6.1,6.5,11.5,13.7,18.9,18.6
		c7.8,5.3,11.3,13,11.7,21.6c1.1,24.5-20.5,52.9-48.3,51.4c-6.5-0.3-13-1.4-19-4.4c-3.2-1.6-5.4-4.1-6.7-7.3
		c-1.5-3.9-4.1-6.7-7.8-8.8c-11.9-6.7-14.5-21.8-5.6-32C621.5,529.3,621.5,529,621.7,528.2z"/>
</g>
</svg>
