<?xml version="1.0" encoding="utf-8"?>
<!-- Generator: Adobe Illustrator 23.0.1, SVG Export Plug-In . SVG Version: 6.00 Build 0)  -->
<svg version="1.1" id="Layer_4" xmlns="http://www.w3.org/2000/svg" xmlns:xlink="http://www.w3.org/1999/xlink" x="0px" y="0px"
	 viewBox="0 0 1000 1000" style="enable-background:new 0 0 1000 1000;" xml:space="preserve">
<style type="text/css">
	.st0{fill:#6E3720;}
	.st1{fill:#FB9A7A;}
</style>
<g>
	<path class="st0" d="M336.7,577.1c-26.7,0.9-50.4-19.2-54.8-45.6c-1.4-8.2-2.1-16.2-0.4-24.2c2.1-10.1,8.8-17.3,17-22.8
		c6.1-4.1,10.3-9.8,15.1-15.1c10.1-11.5,28.6-16.6,41-4.4c8.3,8.2,17.6,11.9,28.3,14.5c12.5,3,21,10.4,23.3,23.4
		c1.2,6.8-2.3,12.6-5.8,18.2c-0.6,0.9-1.3,2-2,2.6c-5.6,5.1-9.2,10.9-10.8,18.4c-1.4,6.3-7.2,10.1-12.3,13.7
		c-2.1,1.5-3.3,3.1-4.3,5.4c-4.4,9.8-13.1,13.4-22.8,14.9C344.1,576.7,340.1,578,336.7,577.1z"/>
	<path class="st0" d="M669,577.2c-9.5-0.5-19-1.1-27.3-6.8c-2-1.4-4.5-3-5.2-4.9c-2.4-6.8-7.8-10.5-13-14.7c-4.9-3.9-7.2-9.4-8-15.2
		c-0.4-3-2-4.6-3.8-6.4c-5.6-5.6-9.9-11.7-12.3-19.5c-2.7-8.7,4.7-21.8,11.6-25.6c6.9-3.8,14.4-5.5,21.9-7.5
		c4.5-1.2,8.7-2.9,11.9-6.5c4.9-5.7,10.7-9.8,18.4-11.2c8.6-1.6,22.8,2.9,27.8,10c5.2,7.4,11.8,13.2,19,18.6
		c7.5,5.7,12.4,13.2,13.8,23.1c2.2,15.1-1.1,28.9-8.8,41.5c-8.2,13.2-20.1,21.8-35.9,24.3C675.7,576.8,672.4,577.4,669,577.2z"/>
	<path class="st1" d="M376.6,514.9c8.9,8.5,6.7,27.4-6,33.3c-2.3,1.1-4.9,2.5-5.8,5.5c-2.4,7.9-8.6,11.4-16,13
		c-11.2,2.5-22.5,2.8-32.7-3.4c-14.4-8.8-23.6-21.3-26.3-38.4c-1.4-9,0.4-16.8,5.2-24.2c2.6-4,6.9-6.3,10.4-9.3
		c3.7-3.2,7.1-6.5,10.2-10.3c3.9-5,8.6-9.4,14.5-11.8c8.4-3.3,16.6-1.7,22.4,6.2c5.1,7,11.8,9.2,19.4,10.9c4.5,1,9.2,2,13.2,4.1
		c14.6,7.7,14,18.6,4.2,29.8c-1.4,1.6-2.5,1.1-3.6-0.2C383.4,517.2,380,516.3,376.6,514.9z"/>
	<path class="st1" d="M629.2,514.3c-4.1,1.8-7.5,2.8-9.8,5.5c-1.8,2.2-3.2,1.5-4.6-0.4c-1.3-1.8-2.5-3.7-3.7-5.6
		c-5.8-8.8-1.1-18.4,7.5-22.8c6.9-3.5,14.5-4.9,22-6.6c4.1-1,7.2-3,9.4-6.2c8.8-13,22.7-14.1,34.3-2.4c6.5,6.5,11.9,14.2,19.6,19.3
		c7.9,5.3,11.3,13,11.7,21.6c1.1,24.4-20.4,52.9-48.3,51.5c-6.5-0.3-13-1.4-19-4.4c-3.2-1.6-5.4-4-6.7-7.3c-1.4-3.6-3.4-6.7-7-8.3
		C621.8,542.7,619.2,524.4,629.2,514.3z"/>
</g>
</svg>
