<?xml version="1.0" encoding="utf-8"?>
<!-- Generator: Adobe Illustrator 23.0.1, SVG Export Plug-In . SVG Version: 6.00 Build 0)  -->
<svg version="1.1" id="Layer_4" xmlns="http://www.w3.org/2000/svg" xmlns:xlink="http://www.w3.org/1999/xlink" x="0px" y="0px"
	 viewBox="0 0 1000 1000" style="enable-background:new 0 0 1000 1000;" xml:space="preserve">
<style type="text/css">
	.st0{fill:#6E3720;}
	.st1{fill:#FB9A7A;}
</style>
<g>
	<path class="st0" d="M303.8,503.7c-22.1-0.7-41.1-8.7-55.4-25.6c-6.6-7.7-9.8-17.4-11.3-27.8c-1.1-7.6-0.9-15.1,0.6-22.4
		c1.9-9,7.3-16.6,12.9-23.4c5.7-6.9,10.9-14.1,16-21.4c5.4-7.8,13.2-10.2,21.7-10.8c9.6-0.7,18.4,2,26.6,7.4c5,3.3,6.4,8.6,9.1,13.1
		c2,3.3,3.6,5,7.9,4.9c7.7-0.2,15.1,1.8,21.8,5.7c6.7,4,9.7,13.3,7.4,22.8c-1.6,6.9-3.6,13.5-9.3,18.3c-1.5,1.3-1.3,2.8-1.3,4.4
		c0,12.4-5.2,21.4-17.2,25.6c-2.3,0.8-2.2,2.3-2.3,4.1c-0.6,12.2-8.3,22-19.9,24.9C308.8,504.2,306.3,503.7,303.8,503.7z"/>
	<path class="st0" d="M698.2,502.9c-11.8,0.5-20.2-4.9-25.2-15.4c-1.2-2.5-2-5.5-1.9-8.2c0.2-3.7-1.2-5.3-4.5-6.6
		c-10.3-4.2-14.8-12.5-15.1-23.2c-0.1-3.1-0.7-5.3-2.9-7.7c-8-8.5-9.3-19.4-7.4-30.1c1.4-7.6,8.7-11,15.7-13.2
		c4.8-1.5,9.9-2.5,15.1-2c2.7,0.2,3.9-0.7,5-3.1c3.8-8.4,8.5-15.9,17.9-19.2c12.6-4.4,24.9-5,36.3,3.1c3.9,2.8,6,7.3,8.7,11.3
		c6.3,9.5,14.5,17.7,20.1,27.8c5.3,9.7,6.3,19.6,5.2,30.4c-1.1,9.7-3.9,18.4-9,26.7c-4.1,6.6-9.8,11.3-15.9,15.8
		c-10.4,7.8-22.6,11.1-35,13.5C702.8,503.3,700.5,502.9,698.2,502.9z"/>
	<path class="st1" d="M316.1,435.8c6.4,2.2,12.8,4.2,18.9,6.7c5.3,2.1,7.1,7.8,5,13.2c-4.6,11.7-12.4,13.1-25.2,10.8
		c-6.7-1.2-13.5-2.5-20.4-2.8c3.9,1.4,7.7,2.8,11.6,4.1c3.3,1.1,6.7,2,9.9,3.6c7.6,3.9,8.6,11.7,2.4,17.6c-5.6,5.2-12.2,7.1-19.6,6
		c-11.1-1.5-21.5-5.1-30.8-11.6c-15.6-11-23.6-26-22.6-45.2c0.5-9.3,5.7-16.8,11-24.2c6.2-8.5,13.1-16.5,18.5-25.7
		c3.8-6.5,11.1-8.5,18.2-7.4c10.1,1.6,19,5.5,23,16.3c0.9,2.5,0.7,3.3-1.6,4c-2.4,0.7-4.8,1.6-8,2.6c9.4,1.6,18,2.3,26.7,2.3
		c4.6,0,9.3,0.4,13.5,2.9c3.6,2.1,6,5.1,5.9,9.3c-0.1,3.5-0.4,7.1-1.6,10.4c-3.4,9.6-7,10.9-18.6,8.4
		C327,436,321.6,434.9,316.1,435.8z"/>
	<path class="st1" d="M707.1,462c-9.1,1.4-18.3,2.7-27.4,4.3c-5.7,1-10.2-1.3-13.7-4.9c-4-4.3-6.5-9.6-3.9-15.9
		c0.8-2,2.4-3.1,4.2-3.7c6.4-2.4,12.9-4.6,19.4-7c-7-1.1-13.8,1.1-20.6,1.9c-8,1-13.6-2.7-14.7-10.9c-0.2-1.6-0.4-3.1-0.8-4.7
		c-1.6-6.7,3.6-13.5,10.4-14.9c8-1.6,16.1-0.3,24.1-1.7c3.4-0.6,7-0.4,10.5-1.4c-0.2-1-1.2-0.5-1.8-0.9c-2.4-1.5-7.5-1.4-7.4-3.3
		c0.3-3.6,2.2-7.9,4.9-10.2c7.5-6.3,16-10.5,26.5-7.9c5.6,1.4,9.2,4.4,12,9.4c5.6,9.8,13.4,18,19.9,27.1c12.3,17.3,10.1,36.6-1.1,52
		c-12,16.5-29.2,24-49.4,24.8c-7.7,0.3-16.7-5.8-18.2-13c-0.9-4.2,0.1-7.5,4.2-9.7c6.4-3.5,13.6-4.6,20.2-7.5c1-0.4,2-0.8,3-1.3
		C707.4,462.4,707.2,462.2,707.1,462z"/>
</g>
</svg>
