<?xml version="1.0" encoding="utf-8"?>
<!-- Generator: Adobe Illustrator 23.0.1, SVG Export Plug-In . SVG Version: 6.00 Build 0)  -->
<svg version="1.1" id="Layer_4" xmlns="http://www.w3.org/2000/svg" xmlns:xlink="http://www.w3.org/1999/xlink" x="0px" y="0px"
	 viewBox="0 0 1000 1000" style="enable-background:new 0 0 1000 1000;" xml:space="preserve">
<style type="text/css">
	.st0{fill:#6E3720;}
	.st1{fill:#FB9A7A;}
</style>
<g>
	<path class="st0" d="M767.9,392.1c4.5,8,5.6,16.5,1.6,24.7c-5.3,10.8-17.9,18.4-31,14.9c-2.3-0.6-4.4-1.1-6.5,2.4
		c-8,13.4-20,15.5-33.5,11.7c-8.1-2.3-12-11.2-12.7-21.7c-0.3-4.5-1.6-8-4.6-11c-7.1-7.2-9.5-16.3-10.2-25.9
		c-1.6-21.3,6.2-38.8,22.3-52.6c2.7-2.4,5.8-4.6,9.1-6c5.5-2.5,10.1-6.3,14.1-10.5c6.2-6.7,19.5-7.2,26.9-3.8
		c8.3,3.8,12.4,11,12.6,20.2c0.1,2.6-0.8,5.8,0.5,7.6c1.1,1.5,4.6,1.3,7,2c9.3,3.1,16.6,8.5,17.8,18.9c1.3,11.7-1.2,22.3-12.6,28.7
		C768.2,391.8,768,392,767.9,392.1z"/>
	<path class="st0" d="M326,381.7c0.9,13.9-3.7,25.2-12.7,34.8c-1.5,1.6-2,3.1-1.9,5.2c0.3,6.4-1.7,12.2-4.9,17.6
		c-3.2,5.6-8.6,7.3-14.4,7.9c-12.5,1.2-22.2-3.2-28-14.7c-1.1-2.2-1.9-1.5-3.6-1c-15.5,4.4-30.7-5.3-34.2-18.2
		c-1.7-6.1-1.7-12.4,1.3-18.2c1.2-2.2,1.5-3.7-1-5c-11.7-5.9-14.2-27.3-7-36.8c4.5-5.9,10.7-8.8,17.7-10.1c3.1-0.6,4.3-1.6,3.9-4.9
		c-0.8-7.1,0.9-13.5,5.7-19.1c2.6-3,5.5-5,9.4-5.9c9.7-2.1,18.5-1.6,26,6.3c3.4,3.6,7.8,6.4,12.3,8.9c15.7,8.8,26.1,22.2,30.3,39.8
		C326,372.8,327.2,377.6,326,381.7z"/>
	<path class="st1" d="M706,338.1c-0.1,5.5,0.5,10.5,3,14.8c4.2,7.2,10.9,10.8,19,11.3c3.4,0.2,4.9,1.2,4.4,4.6
		c-0.4,3.1,0,6.5,1.5,8.9c3,4.7,0.6,5.2-3.1,6.6c-6.5,2.6-10.6,7.7-12,14.6c-0.4,2.3-0.9,2.1-3,1.8c-8.7-1.3-16.7,0.3-23.1,6.8
		c-2.1,2.2-2.9,1.7-4.6-0.8c-8.3-12.4-8.9-25.7-5-39.6C686.7,354.5,694.4,345.1,706,338.1z"/>
	<path class="st1" d="M745.7,389.6c9.6,0,17.5,6.9,16.8,15.3c-0.6,7.3-8.1,18.4-17.7,17.9c-9.1-0.4-17.8-9.3-17.3-19.1
		C728.2,394.6,731.3,389.7,745.7,389.6z"/>
	<path class="st1" d="M747.1,336.6c-1.1,13.1-5.4,17.9-14,18.7c-9.1,0.8-16.5-6.7-16.2-15.6c0.3-9.6,6.2-18.3,15.9-18.2
		C741,321.5,747,326.3,747.1,336.6z"/>
	<path class="st1" d="M741.2,368.4c0.1-9.7,5.3-16.4,13.5-15.7c10.1,0.8,17.7,5.1,17.7,15.2c0,8.4-7.4,17.8-14,17.9
		C749,385.9,741.2,378,741.2,368.4z"/>
	<path class="st1" d="M708.3,438.5c-8.8,0-14.2-6.3-13.9-16.3c0.2-6.9,7.2-13,14.8-13c9.9,0.1,16.5,6.1,16.5,14.9
		C725.5,431.9,717.6,438.5,708.3,438.5z"/>
	<path class="st1" d="M291.2,338c14.4,9.2,22.3,21.4,24.5,37.9c1.6,11.6-1,21.5-6.9,31.1c-1.5,2.5-2.4,2.5-4.3,0.6
		c-6.6-6.6-14.7-8.3-23.6-6.8c-2.1,0.3-2.2,0.2-2.7-1.7c-1.7-7.6-6-12.9-13.7-15.3c-2.5-0.8-4-1.5-2.1-4.6c1.9-3.2,2.4-6.9,2.2-10.7
		c-0.1-2.1,0-4.1,2.8-4.1C282.4,364.1,291.7,353.6,291.2,338z"/>
	<path class="st1" d="M251.9,422.9c-8.6,0.4-15.1-8.2-17.4-16.7c-1.3-5,4.1-13.1,10-15.7c9.1-4,21.5,0.8,24.2,9.4
		C272,410.3,262.8,422.9,251.9,422.9z"/>
	<path class="st1" d="M250,336.8c0-8.8,4.5-14.2,13-15.5c6.2-1,14.5,5,16.2,11.9c0.9,3.5,1.8,7.1,0.5,10.9
		c-2.3,6.6-9.1,11.7-15.8,11.4c-6.2-0.3-11.2-4.9-12.8-12.3C250.6,340.9,249.4,338.8,250,336.8z"/>
	<path class="st1" d="M255.9,368.9c0,9.2-8,17-17.2,16.8c-6.8-0.1-14.3-9.9-14-18.4c0.3-9.7,7.7-13.9,17.7-14.7
		C250.8,352,255.9,358.8,255.9,368.9z"/>
	<path class="st1" d="M288.5,438.5c-9.2,0-17.4-6.8-16.9-14.7c0.6-9.8,5.9-14.1,16.7-14.5c7.5-0.3,14.6,6.4,14.5,13.2
		C302.6,433,297.7,438.5,288.5,438.5z"/>
</g>
</svg>
