<?xml version="1.0" encoding="utf-8"?>
<!-- Generator: Adobe Illustrator 23.0.1, SVG Export Plug-In . SVG Version: 6.00 Build 0)  -->
<svg version="1.1" id="Layer_4" xmlns="http://www.w3.org/2000/svg" xmlns:xlink="http://www.w3.org/1999/xlink" x="0px" y="0px"
	 viewBox="0 0 1000 1000" style="enable-background:new 0 0 1000 1000;" xml:space="preserve">
<style type="text/css">
	.st0{fill:#6E3720;}
	.st1{fill:#FB9A7A;}
</style>
<g>
	<path class="st0" d="M796.2,298.3c1.6,3,5,4.2,7.4,6.6c14.5,14.8,6.7,36.2-7.2,42.6c-6.1,2.8-12.1,2.4-18.1,0.5
		c-3.8-1.1-7.8-1.6-11.9-4.9c0.8,4.8,1.2,8.6,1.2,12.5c0,10.3-6.6,18.3-17.9,20.5c-14.8,2.9-23.6-3.4-28.6-15.4
		c-3.9-9.2-11.3-14.2-19.1-19.2c-17.1-10.9-26.8-26.1-26.1-46.9c0.4-10.9,4.7-20.5,11.1-29.3c4.9-6.7,9.8-13.3,14.8-19.9
		c3.4-4.4,4.2-10.3,5.1-15.6c1.7-10,6.8-15.7,16.8-17.9c11.6-2.6,23.7,2.5,27.8,12.5c3.2,7.8,4.8,15.8,1.1,23.9
		c-1.2,2.7-0.4,3.4,2.1,4.5c5.2,2.2,9.6-0.8,14.4-1.5c5-0.8,9.8-3,14.7-3.4c10.9-0.8,23.2,5.1,26.7,19.6c2.3,9.5-0.7,17.5-5.5,25.1
		C803.2,296,799.1,296.4,796.2,298.3z"/>
	<path class="st0" d="M237.3,344c-21.5,9.2-31,6.1-38.7-3.8c-5-6.4-7.7-14-5.3-22.7c2.4-8.3,7.7-14.1,15.5-19.3
		c-11.9-2.8-15.1-12-16.1-21.1c-1.2-12.3,4.4-23.8,18.5-28.1c8.2-2.5,15.6,1,23.3,2.5c4.6,0.8,8.8,3.6,13.9,1.9
		c3.2-1.1,4.1-2,2.7-5.3c-4.2-10-1.8-19.6,4.1-27.8c7.3-10.2,18.1-9.6,28.8-6.8c6.7,1.7,11.1,6.2,11.9,13.3
		c1.6,14.3,10.5,24.8,18.6,35.6c5.1,6.9,9.4,14.1,11.9,22.5c5.4,18.5-2.7,40.5-17,51.3c-5.3,4.1-11,7.5-16.5,11.3
		c-5.3,3.6-8,9.3-10.8,15c-3.1,6.4-7.4,12-14.9,13.7c-8.8,2-17.2,1.1-24.3-4.9c-7.5-6.3-7.5-15-5.9-23.8
		C237.2,346.3,237.2,345.2,237.3,344z"/>
	<path class="st1" d="M729.3,220.7c7.7,0,11.2,3.1,14.3,10.3c2.8,6.5,2.3,12.7,0.6,19.1c-3.5,12.9,3.4,13.7,12.1,14.5
		c5.3,0.5,10.3-2,15.4-3.4c6.4-1.7,12.7-4.5,19.7-2.4c6.1,1.8,10.5,6.7,11.4,13.5c0.9,6.5-2.6,13.1-8.2,16
		c-6.5,3.3-13.2,4.8-20.4,2.9c-1.1-0.3-2.3,0-3.4-0.1c-1.2-0.1-2.4,0.3-2.8,1.5c-0.5,1.3,0.7,2.2,1.6,2.7c2.8,1.8,5.5,3.8,8.9,4.7
		c6.6,1.8,12.1,5.7,17.4,10c5.1,4.1,6.9,9.4,5.1,15.8c-1.1,4.1-2.8,8-5.5,11.1c-3.1,3.6-7.3,4.8-12.3,3.5
		c-10-2.6-17.8-8.7-25.1-15.5c-0.8-0.8-1.6-1.8-2.5-2.2c-1.3-0.7-2.7-2.1-4.4-0.6c-1.5,1.3-1.2,3.1-0.7,4.5c1.1,3.2,2.3,6.3,3.8,9.4
		c2.1,4.4,3.1,9.1,4.3,13.7c1.4,5.7-3.6,15.7-9.1,17.5c-8,2.6-13.7,0.9-17.6-6.3c-2.6-4.8-4.9-9.8-8.1-14.2
		c-4.1-5.7-10.2-9.3-16.1-12.8c-12.7-7.5-18.8-18.5-21.1-33.1c-2.4-15.2,5.6-25.2,13.4-36c5.9-8.1,12.9-15.7,15.4-25.8
		c0.6-2.5,1.3-4.9,1.7-7.4C718,224,721.9,220.7,729.3,220.7z"/>
	<path class="st1" d="M274.8,220.7c6.5,0,11.6,3.4,12.1,9.4c1.1,12,7.4,21.3,14.2,30.5c4,5.4,8.4,10.6,12,16.2
		c5.4,8.2,5.4,17.3,4,26.8c-2.1,14.5-9.9,24.5-22.5,31c-10.7,5.6-16.7,15.2-22,25.4c-3,5.7-7.1,8.8-13.4,8
		c-7-0.8-11.1-5.1-13.2-12.2c-1.8-6.1,1-11.3,2.4-16.7c1-3.8,2.9-7.5,4.5-11.1c0.9-2.2,2-4.6-0.2-6.1c-2.3-1.6-4.2,0.5-5.8,2
		c-7.3,6.8-14.9,13.2-24.9,16c-6.9,1.9-10.9,0.7-14.8-5.2c-5.6-8.4-6.3-17.1-1.6-22.2c3.8-4,8.3-7.1,13.1-9.8
		c4.6-2.6,10.2-3,14.3-6.6c1.3-1.1,3.6-1.7,2.9-3.8c-0.7-2-3.2-1.6-4.8-1.2c-4.3,1.1-8.5,0.8-12.9,0c-10.3-1.8-15-5.3-16.6-13.8
		c-2.2-11.5,6.6-21.1,18.7-19c7.7,1.3,15.2,3.8,22.7,5.9c4.6,1.3,9,0.2,13.2-1.4c4.1-1.5,5.5-5.4,4.1-10.6
		c-1.9-7.2-3.2-14.1,0.1-21.4C263.6,223.8,267.1,220.7,274.8,220.7z"/>
	<path class="st0" d="M733.3,340.6c3.1-6.7,5.2-7.3,10.8-2.9C740,337.4,736.9,339.1,733.3,340.6z"/>
	<path class="st0" d="M773.2,286.2c-6.9-1.6-9.4-4.3-5.7-12.8C767.3,278.5,768.5,282.6,773.2,286.2z"/>
	<path class="st0" d="M259.1,338.1c6.7-4.7,8.7-4.1,11.4,2.5C267,339.2,264,337.1,259.1,338.1z"/>
	<path class="st0" d="M231.5,285.8c3.6-3.3,5.4-7.1,4.8-12.8C239.3,282.1,238.2,284.9,231.5,285.8z"/>
</g>
</svg>
