<?xml version="1.0" encoding="utf-8"?>
<!-- Generator: Adobe Illustrator 23.0.1, SVG Export Plug-In . SVG Version: 6.00 Build 0)  -->
<svg version="1.1" id="Layer_4" xmlns="http://www.w3.org/2000/svg" xmlns:xlink="http://www.w3.org/1999/xlink" x="0px" y="0px"
	 viewBox="0 0 1000 1000" style="enable-background:new 0 0 1000 1000;" xml:space="preserve">
<style type="text/css">
	.st0{fill:#6E3720;}
	.st1{fill:#FB9A7A;}
</style>
<g>
	<path class="st0" d="M765,196c7.9,1.1,15.6,1.6,22.5,5.1c12.8,6.4,14.4,16,12.9,28.1c-0.8,6.7-3.5,12.9-9.4,16.9
		c-6.8,4.7-14.5,4.5-22.1,3.5c-5.4-0.7-10.8-2.2-16.9-3.6c3,4.5,7.4,6.5,10.5,10c10.8,12,10.5,31.6-9.4,39.1
		c-9.2,3.4-17.2,1.7-23.2-4.6c-13.5-14-29.9-21-48.5-25.3c-10.5-2.4-19.4-9.1-25.2-19.5c-10.2-18.1-7.9-36.2-1.2-54.4
		c3.2-8.6,5.3-17.5,7.1-26.5c0.9-4.6-0.9-9.2-1.9-13.6c-2.9-12.8,7.7-26.9,20.9-27.3c14.1-0.4,27.6,11.4,29.1,25.6
		c0.5,4.7,2,9.4,0.1,14.2c-0.7,1.7,0.2,3.7,1.4,4.8c1.3,1.2,2.7-0.4,3.9-0.9c10.7-4.2,19.2-11.6,28.3-18.2
		c7.9-5.7,17.3-6.2,26.3-4.5c9.3,1.8,13.4,9.9,16.1,18.4c1.3,4.2,1.1,8.6,1,12.9c-0.2,6.1-4.3,9.5-9.2,12.2
		C773.6,190.9,769.4,193.4,765,196z"/>
	<path class="st0" d="M247.8,241.9c-8,1-15.6,3-23.7,3.3c-20.6,0.7-27-17.5-24.5-31.9c2.1-12.2,9.4-17.9,22.2-20
		c4.3-0.7,8.5-2.2,14-1.9c-6.4-3.8-12.2-6.6-17.5-10.3c-3.3-2.4-4.9-5.4-5.2-8.6c-0.9-9.9,0.9-19.2,8-27.1
		c6.6-7.3,14.7-6.1,22.8-5.4c10.7,0.9,17.7,8.6,25.5,14.6c5.2,4,11.3,6.4,17.2,9c3.4,1.5,3.7-2.5,3.3-4.6c-2.6-11,1.1-20.3,7-29.2
		c5.6-8.4,13.6-12.5,23.5-10.6c9.1,1.7,16.2,7,19.7,16.1c1.3,3.3,1.4,6.8,0.2,9.9c-4.3,11.9-1.4,23.2,2.6,34.2
		c4.9,13.6,9.4,27.3,7.6,41.9c-1.6,12.6-6.6,23.5-17.3,31.5c-9.1,6.8-19.7,8.9-30.3,11.6c-8.8,2.2-16.2,6.7-23.1,12.6
		c-5.4,4.6-10,10.1-16.9,13.1c-5.9,2.5-11.2,1.9-16.6-0.3c-18.8-7.6-19.9-26.1-8.7-38.6C240.6,247.9,244.4,245.1,247.8,241.9z"/>
	<path class="st1" d="M773.3,241.2c-10.9-1.3-23-4.1-35.1-7.3c-1.4-0.4-2.8-0.6-4.1-1.2c-1.7-0.7-2.7,0.2-3.8,1.3
		c-1.4,1.4-0.2,2.2,0.5,3.3c4.4,6.8,11.4,11,17,16.4c3.4,3.2,7,6.2,9.5,10.2c6.5,10.5-2.1,22.5-12.8,24.2c-2.8,0.4-4.9-1.1-6.9-2.9
		c-5.3-4.8-10.6-9.4-16-14c-7.1-6.1-16-7.9-24.6-10.3c-8.4-2.3-16.8-4.9-23.7-10.2c-8.4-6.4-12.1-15.8-14.4-25.9
		c-2.3-10.2,1.3-19.3,4.6-28.5c3.7-10.5,5.6-21.3,7.2-32.3c0.6-3.9-0.6-7.7-1.4-11.4c-1.6-7.7,2.1-16.4,8.3-18.7
		c7.8-2.8,15.5,0.3,19.3,8.3c3.8,8.1,6.6,16.3,4.2,25.5c-0.9,3.4,0.4,6.8,2.2,9.7c1.6,2.5,3.8,3.8,7.4,2.5
		c12.9-4.7,24.7-11.5,35.7-19.6c4.9-3.6,9.9-7.4,16.5-6.9c5.7,0.4,10.1,2.6,12.4,8.3c1.3,3,2.1,6.1,2.7,9.2
		c1.1,5.7-2.8,8.9-6.8,11.8c-9.4,6.9-20.7,10.1-30.9,15.6c-1.6,0.8-4.6,1-3.8,3.4c0.6,2,3.1,2.5,5.4,2.5c8.8-0.2,17.5,0.5,26.2,0.9
		c12.9,0.5,21.2,7,23.6,19.5C793.7,233.7,786,241.2,773.3,241.2z"/>
	<path class="st1" d="M250.3,199.1c3.3,0,6.5,0.2,9.7-0.1c1.3-0.1,3.1-0.8,3.4-2.3c0.4-1.9-1.6-2.2-2.8-2.8
		c-7.1-3.3-14.4-6.4-21.4-9.8c-5.2-2.6-10.4-5.2-14.4-9.5c-1-1-1.9-2.2-2.5-3.5c-1.7-3.8,1.2-15.2,4.7-18.5
		c4.6-4.4,11.4-5.1,17.5-2.4c7,3.1,12.6,8.2,19,12.3c8.4,5.4,17.3,9.8,26.8,13c3.1,1.1,5.3-0.9,6.6-3.4c1.8-3.5,2-7,1.6-11.1
		c-1.3-11.1,1.2-21.5,9.6-29.6c4.1-4,10.8-4.3,16.2-1.3c4.4,2.4,8.4,11,6.7,16.5c-3.4,11.4-0.2,22.2,2,33.1
		c1.9,9.8,6.6,18.7,8.2,28.6c1.2,7.1-0.4,13.4-2.4,19.7c-5.5,17.3-19.5,24.2-35.6,27.9c-13.3,3.1-25,8.9-34.4,18.9
		c-2.4,2.6-5.2,4.9-8,7c-4.6,3.5-13.8,0-17.6-6.5c-4.4-7.7-3.6-14.2,3.1-20.8c6.1-6,12.7-11.5,19-17.2c1.4-1.3,2.9-2.6,3.7-4.5
		c0.4-1.1,2.3-1.7,0.9-3.3c-1.1-1.2-2.1-2.1-4.1-1.5c-8.2,2.2-16.4,4.5-24.7,6c-7.5,1.3-14.9,4.1-22.8,1.6c-6.2-1.9-11.6-9.7-10-16
		c3.4-13.8,6.7-16.4,21.3-19C236.2,199.4,243.3,198.3,250.3,199.1z"/>
</g>
</svg>
