<?xml version="1.0" encoding="utf-8"?>
<!-- Generator: Adobe Illustrator 23.0.1, SVG Export Plug-In . SVG Version: 6.00 Build 0)  -->
<svg version="1.1" id="Layer_4" xmlns="http://www.w3.org/2000/svg" xmlns:xlink="http://www.w3.org/1999/xlink" x="0px" y="0px"
	 viewBox="0 0 1000 1000" style="enable-background:new 0 0 1000 1000;" xml:space="preserve">
<style type="text/css">
	.st0{fill:#6E3720;}
	.st1{fill:#FB9A7A;}
</style>
<g>
	<path class="st0" d="M252.9,176.1c-8.9-1.9-17.6-1.5-25.9-4c-5.5-1.7-9.7-4.4-11.9-9.4c-4.5-10.4-5.4-20.9,1.7-30.8
		c4-5.6,9.9-7.4,16.2-8.9c7.6-1.7,14.9-0.3,23.1,1.5c-5-4.9-10.9-7.4-13.5-13.8c-4.8-11.9-2.7-22.4,7.7-31.2
		c9.4-8,17.7-8.6,29.2-1.4c7.2,4.5,11.9,11.5,17.4,17.8c4.5,5.2,8.3,11,14.3,14.9c4,2.6,5.2,0.6,6.1-2.8c0.9-3.5,1.8-7,2.9-10.5
		c3.9-11.8,14.3-22.8,29.2-21.4c8.1,0.8,12.8,6.1,17.6,11.5c5.9,6.6,4.6,14.4,1.7,21.5c-5.8,14.3-6.7,29.1-6.4,44.2
		c0.2,10.4-0.4,20.7-3.8,30.8c-4.1,11.9-22.3,28.8-36.8,29.2c-8,0.2-16,0.3-24-0.3c-7.8-0.5-15,1.9-22,5.1c-6,2.8-11.6,6.5-18,8.5
		c-10.5,3.4-18.1-1.7-24.2-9.9c-8.5-11.3-3.5-29.1,10-36.1C246.4,179.1,249.4,177.8,252.9,176.1z"/>
	<path class="st0" d="M734.8,125.8c3,0.7,5.7-0.6,8.4-1c9.4-1.7,17.9-0.1,25.9,5c5.5,3.4,8.1,8.7,8.9,14.5c1.2,9.3,0.5,18.6-7,25.8
		c-4.4,4.2-10.4,4.2-15.8,5.9c-5.7,1.7-11.8-0.3-17.5,2.5c2.8,1.3,5.7,2.4,8.4,3.9c12.3,6.7,17.3,18.4,13.5,31.8
		c-3.4,12-19.5,18.8-30.8,13.3c-9.2-4.5-17.9-10.1-28.3-11.9c-4.2-0.7-8.4-0.8-12.5-0.3c-23.7,3-41.2-2.7-54.5-25.5
		c-4.3-7.3-5-15.7-5.5-23.9c-0.4-7.5,0.1-15-0.1-22.4c-0.3-9.2-1.1-18.4-4.7-27.1c-1.8-4.3-2.9-9-3.9-13.6c-0.5-2.5-0.2-5.1,0.8-7.5
		c7.8-17.5,26.8-23.2,40.9-9.9c7,6.5,9.2,15,11.8,23.5c2,6.6,3.1,7.2,8.3,2.7c4.7-4,8.3-9,12.3-13.6c6.2-7.3,11.8-15.1,20.7-19.7
		c12.4-6.3,22.7-1.3,29.7,7.3c9.5,11.7,7.4,21.3,1.3,32.1C742.8,121.3,737.7,122.2,734.8,125.8z"/>
	<path class="st1" d="M260.5,166.9c-9.1,0.5-17.9-0.8-26.6-2c-7.8-1.1-13.7-8-13-15.4c0.8-9.3,4.7-16,13.6-17.9
		c10.2-2.1,19.3,1.7,28.8,3.4c4.2,0.8,8.4,1.9,12.7,2.6c1.6,0.3,3.9,0.8,4.9-1.1c1-2.2-1.3-3.2-2.6-4.1
		c-8.3-6.2-15.7-13.4-23.1-20.5c-11.7-11.1-4.8-26.4,7.6-29.3c5.3-1.2,9.5,1.1,13.1,4.4c6.2,5.7,11.4,12.3,17,18.6
		c5.7,6.4,11.6,12.9,19.5,16.9c5.1,2.6,7,1.9,10.1-3.3c2.6-4.4,2.8-9.5,4.5-14.1c1.7-4.5,3.4-8.9,6.4-12.8c4.1-5.3,9.7-7.6,16.1-7
		c6.8,0.7,10.1,5.7,11.6,11.9c1.2,4.9-1.4,9.1-3.2,13.3c-3.6,8.4-4.7,17.3-5.2,26.3c-0.4,8.6-0.1,17.2-0.1,25.9
		c0.1,18.4-9.4,31.1-24.9,39.2c-8,4.2-17.6,4.5-26.5,3.1c-13.2-2-24.7,2-35.9,8c-3.4,1.8-6.8,3.6-10.2,5.4c-1.7,0.9-3.4,0.9-5.1,0.1
		c-6.2-2.9-10.9-7.4-11.5-14.3c-0.6-6.8,3-11.8,9-15.2c9-5.1,18.3-9.4,27.5-14.1c1.5-0.8,3.8-1.2,3.2-3.6c-0.4-1.8-2-2.5-3.9-3.1
		C269.6,166.5,265,167.3,260.5,166.9z"/>
	<path class="st1" d="M729.6,168.9c-4.3,0.5-8.8-0.5-13.3,0.9c-2,0.6-3.8,1.1-4.3,3.2c-0.5,2.4,1.8,2.8,3.3,3.5
		c9.1,4.7,18.5,9,27.5,14.1c6,3.4,9.6,8.5,9,15.3c-0.7,6.9-5.3,11.4-11.5,14.3c-2.5,1.2-4.7,0.1-6.9-1c-8.5-4.1-16.2-9.7-25.8-11.5
		c-6.2-1.1-12.1-1.7-18.6-1c-10.5,1.1-21.9,1.3-30.8-5.3c-9.6-7.1-18.3-15.4-19.7-28.9c-1-9.4-0.6-18.8-0.7-28.2
		c-0.1-12.7-1.9-24.9-7.1-36.6c-3-6.6-0.7-15.2,4.4-18.6c5.4-3.6,14.4-2.4,19.6,2.5c6.7,6.4,8.9,15,11.2,23.5
		c1.2,4.6,2.8,9.5,7.4,10.4c4.4,0.9,8.7-2.6,11.7-5.7c5.5-5.6,11.6-10.6,16.4-16.9c3.3-4.4,7.3-8.2,11.1-12.2c8.9-9.3,16.4-8,23.2-2
		c7.5,6.6,7.7,16.8,0.2,24.4c-7.3,7.3-15.3,13.8-23,20.7c-1.4,1.3-4.4,2.1-3.2,4.6c1.1,2.2,3.8,1.3,5.8,0.9
		c10.3-2.1,20.6-4.8,31-6.3c6.7-1,14-0.4,18.6,5.6c4.6,6.1,6.4,13.1,2.7,20.7c-2.5,4.9-7.2,6.6-11.7,7.4
		C747.3,168.4,738.6,169.4,729.6,168.9z"/>
</g>
</svg>
