<?xml version="1.0" encoding="utf-8"?>
<!-- Generator: Adobe Illustrator 23.0.1, SVG Export Plug-In . SVG Version: 6.00 Build 0)  -->
<svg version="1.1" id="Layer_4" xmlns="http://www.w3.org/2000/svg" xmlns:xlink="http://www.w3.org/1999/xlink" x="0px" y="0px"
	 viewBox="0 0 1000 1000" style="enable-background:new 0 0 1000 1000;" xml:space="preserve">
<style type="text/css">
	.st0{fill:#7F7F7F;}
</style>
<g>
	<path d="M482.5,296.1c4.6,0.3,11.1,4.8,16.4,11.2c3.1,3.7,6.1,7.6,9,11.6c8.1,11.4,0.6,21.9-9.7,24c-9.2,1.9-17.4-1.8-23.6-10.4
		c-4.3-5.9-7.2-12.4-8.6-19.6C464.6,305.6,468.3,295.5,482.5,296.1z"/>
	<path d="M519.6,324.9c-0.2-7.3,0.7-13.9,3.9-19.9c3.1-5.8,7.1-7.3,13-5.1c17.1,6.5,19.2,25.6,10.5,38.1c-3.8,5.4-9.7,9.3-17.7,6.9
		c-4.2-1.3-6.2-4-7.6-7.6C519.8,333.1,519.1,328.8,519.6,324.9z"/>
	<path class="st0" d="M484.3,304.4c8.6,1.2,19.2,10.9,20.5,18.9c0.6,3.6-1.7,6.1-5,7.4c-3.2,1.2-5.1-0.5-6.5-3.2
		c-2-3.7-1.8-8.1-3.4-11.9C488.2,311.9,486.2,308.3,484.3,304.4z"/>
	<path class="st0" d="M535.8,306c10.5,4.3,13,12.5,11.9,21.1c-0.4,3.2-2.9,5.7-6.2,5.8c-3.6,0.2-4.5-3-5.3-5.8
		c-0.2-0.9-0.2-2-0.1-2.9C537.3,318.2,537.6,312.2,535.8,306z"/>
</g>
</svg>
