<?xml version="1.0" encoding="utf-8"?>
<!-- Generator: Adobe Illustrator 23.0.1, SVG Export Plug-In . SVG Version: 6.00 Build 0)  -->
<svg version="1.1" id="Layer_4" xmlns="http://www.w3.org/2000/svg" xmlns:xlink="http://www.w3.org/1999/xlink" x="0px" y="0px"
	 viewBox="0 0 1000 1000" style="enable-background:new 0 0 1000 1000;" xml:space="preserve">
<style type="text/css">
	.st0{fill:#7F7F7F;}
</style>
<g>
	<path d="M487.2,335.9c-9.1,0.3-14.3-5.4-19.2-11.1c-5.3-6.1-7.7-13.6-9-21.4c-0.9-5.3,1-10.1,5.5-13.5c4.6-3.5,9.7-2.2,14-0.1
		c12.9,6.2,22.4,15.8,26.2,30.1c1.4,5.4-3.5,13-10.1,14.8C492.1,335.3,489.5,336.8,487.2,335.9z"/>
	<path d="M526.8,291.9c6.7,1.1,11.3,5.9,15.3,11.9c9.8,14.9-1.9,30.5-14.2,33.9c-4.6,1.3-12.9-3-13.8-7.9c-1.8-10.7-3-21.4,2.6-31.6
		C518.6,294.5,521.4,291.9,526.8,291.9z"/>
	<path class="st0" d="M499,317c-0.5,3.4-2.1,6.3-5.6,7c-3.7,0.8-6.5-1.6-7.8-4.5c-3.2-7.1-3.9-15.1-7.7-22c-0.2-0.3,0-1,0.2-1.2
		c0.9-0.6,1.8-0.2,2.7,0.3c4.1,2.5,8.5,4.8,11.4,8.7c2,2.8,5,5,6.1,8.6C498.6,314.9,499.1,315.9,499,317z"/>
	<path class="st0" d="M529.3,316.9c0.1-5.4,2.1-10.7,0.1-16.2c-0.4-1.2,0.1-1.9,1.9-1.4c9.2,2.7,14,16.2,8.2,23.8
		c-1.4,1.8-3.3,3.4-5.7,2.8c-2.7-0.7-4.3-2.7-4.5-5.6C529.2,319.2,529.3,318.1,529.3,316.9z"/>
</g>
</svg>
