<?xml version="1.0" encoding="utf-8"?>
<!-- Generator: Adobe Illustrator 23.0.1, SVG Export Plug-In . SVG Version: 6.00 Build 0)  -->
<svg version="1.1" id="Layer_4" xmlns="http://www.w3.org/2000/svg" xmlns:xlink="http://www.w3.org/1999/xlink" x="0px" y="0px"
	 viewBox="0 0 1000 1000" style="enable-background:new 0 0 1000 1000;" xml:space="preserve">
<style type="text/css">
	.st0{fill:#7F7F7F;}
</style>
<g>
	<path d="M451.1,300.9c0.1-2.4,0.2-4,0.9-5.8c2.5-7,5.2-8.4,12.4-7c15.9,3.1,24.8,13.9,30.6,27.8c2.4,5.6-0.7,11.7-7,15.3
		c-10.1,5.7-13.2,5.6-23.5-3.1C456.2,321,451.8,311.3,451.1,300.9z"/>
	<path d="M505.6,313.8c0.6-7.5,0.4-13.4,3.2-18.9c4-8,8.5-9.8,15.6-4.7c6.8,4.8,12.6,10.8,12.7,20.1c0.1,11.1-6.4,20.1-17,23.5
		c-4.7,1.5-12.5-3.9-13.1-9.8C506.6,320,504.8,316.2,505.6,313.8z"/>
	<path class="st0" d="M469.7,294.8c9.4,3.2,15.4,9.4,20.5,16.8c2.2,3.2-0.6,5.1-2.5,6.8c-1.9,1.6-4.2,3.3-6.8,0.9
		c-1-1-2.1-1.9-2.6-3.4c-2-6.4-5.2-12.3-8.3-18.3C469.7,296.9,469.8,296.2,469.7,294.8z"/>
	<path class="st0" d="M519.6,293.9c4.9,1.2,7.6,4.2,10.4,7.1c4.1,4.3,3.6,9.4,2.1,14.4c-0.8,2.6-2.1,5.8-5.6,4.7
		c-3.2-1-5.2-3.8-3.6-7.3c2.4-5.6,1.1-10.5-1.5-15.5C520.8,296.4,520.4,295.4,519.6,293.9z"/>
</g>
</svg>
