<?xml version="1.0" encoding="utf-8"?>
<!-- Generator: Adobe Illustrator 23.0.1, SVG Export Plug-In . SVG Version: 6.00 Build 0)  -->
<svg version="1.1" id="Layer_4" xmlns="http://www.w3.org/2000/svg" xmlns:xlink="http://www.w3.org/1999/xlink" x="0px" y="0px"
	 viewBox="0 0 1000 1000" style="enable-background:new 0 0 1000 1000;" xml:space="preserve">
<style type="text/css">
	.st0{fill:#FEFEFE;}
	.st1{fill:#C0FEFE;}
</style>
<g>
	<path class="st0" d="M505.9,388.7c0.2,7.9-0.3,15.8-2.2,23.4c-1.9,7.6-5.9,14.5-13.1,18.6c-5.3,3-12.7,1-18.5-4
		c-16.9-14.4-25.3-34.1-33.5-53.8c-2.4-5.8-4.4-11.7-5.4-18c-1.7-10,2.6-21.7,10.5-27.9c6-4.8,11.3-10.2,19.1-12
		c7.4-1.7,15.1-2.7,22.2-0.1c7.8,2.8,12.4,9.1,13.8,17.5c0.9,5.1,2.4,10.2,3.1,15.3C503.7,361.3,505.8,374.9,505.9,388.7z"/>
	<path class="st0" d="M535.2,346.4c-1.5,22.8-3.1,45.7-10.7,67.6c-0.3,0.7-0.4,1.5-0.7,2.2c-1.1,2.7-2.4,6.4-5.2,6.3
		c-3.5-0.1-6-3.4-7.5-6.7c-2.1-4.8-2.9-10.2-3.1-15.3c-0.2-6.1-0.8-12.2-1.3-18.3c-1.3-14.6-0.9-29.1-0.7-43.7
		c0.1-5.6,0.5-11.4,2.9-16.8c1.9-4.1,4.5-5.4,8.8-3.8c14,5.2,16.5,10.8,17.4,23.6C535.3,343.1,535.2,344.8,535.2,346.4z"/>
	<path class="st1" d="M477.9,426c-7.2-5-11.7-12.2-16.4-19c-10.1-14.8-17.7-31-22.5-48.4c-3.2-11.6-1.4-22,7.6-30.3
		c8.3-7.6,28.7-14.8,39.3-7.7c0.4,0.3,0.7,0.6,1.5,1.3c-6.5,0.7-12.4,1.5-18.1,3.8c-14.2,5.8-20,16.2-18.5,31.3
		c1.4,14.1,7.3,26.5,12.4,39.3c3.6,9.1,8.2,17.7,13.4,25.9C477.3,423.3,478.3,424.3,477.9,426z"/>
	<path class="st1" d="M513,322.8c8.2-0.8,15,4.1,16.1,11.3c2.1,13.4,1.7,26.8-0.2,40.2c-1.2,8.6-2.9,17.2-4.5,25.8
		c-1.1,5.7-3.5,11-7.1,15.8c3-8.5,3.3-17.5,4.7-26.3c2.7-17.5,3.6-35.1,0.3-52.7c-0.7-3.8-2.3-7.4-5.4-10.2
		C515.6,325.7,514.4,324.4,513,322.8z"/>
</g>
</svg>
