<?xml version="1.0" encoding="utf-8"?>
<!-- Generator: Adobe Illustrator 23.0.1, SVG Export Plug-In . SVG Version: 6.00 Build 0)  -->
<svg version="1.1" id="Layer_4" xmlns="http://www.w3.org/2000/svg" xmlns:xlink="http://www.w3.org/1999/xlink" x="0px" y="0px"
	 viewBox="0 0 1000 1000" style="enable-background:new 0 0 1000 1000;" xml:space="preserve">
<style type="text/css">
	.st0{fill:#FEFEFE;}
	.st1{fill:#C0FEFE;}
</style>
<g>
	<path class="st0" d="M513.9,368.4c-0.8,14.7-1.2,28-4.5,40.6c-2.7,10.4-7.5,20.6-19.3,24.8c-3.1,1.1-5.4,0.3-7.6-0.8
		c-5.8-2.8-10.8-6.7-14.3-12.3c-9.7-15.8-18.5-32-22.2-50.4c-2.4-11.9-5.4-24,1.4-35.3c6.3-10.4,15.7-16.8,28-18.6
		c5.7-0.8,11.3-1.2,17.1-0.2c9.2,1.5,14,4.6,16.1,13.5c2.2,9.4,4.2,19,4.2,28.8C512.7,362.3,514.7,366,513.9,368.4z"/>
	<path class="st0" d="M512.6,406.1c1.4-16.8,1.8-33.6,3.8-50.4c1-8.7,1.4-17.5,3.1-26.1c1.2-6.2,4.8-8.6,11-6.7
		c13,4,16.6,14,15.3,26.3c-1.1,10.2-2,20.6-4.8,30.6c-4.3,15.3-6.9,31.1-15.5,45c-1.3,2.1-3.1,3.9-5.1,3.8c-2.6-0.1-4.5-2.3-5.4-4.9
		C513.1,418,512.2,412.1,512.6,406.1z"/>
	<path class="st1" d="M499.9,324.3c-5.7-0.6-11.2,0-16.5,1.2c-17.4,4.2-24,14.9-22.4,33.7c1.5,17.5,6.7,34,12.6,50.3
		c1.8,5,4.1,9.9,6.1,14.8c0.6,1.4,2,2.6,1,5c-3.9-5.5-8-10.5-11.1-16.1c-6.3-11.3-12.3-22.8-15.6-35.6c-1.8-7-4.7-13.8-6-21
		c-3.5-19.2,9.8-33.2,25.6-36.3c8.1-1.6,16.1-1.5,23.9,1.7c0.6,0.2,1.2,0.6,1.7,0.9C499.5,323.1,499.5,323.5,499.9,324.3z"/>
	<path class="st1" d="M522.9,328.7c8-3.6,14.3-0.2,16.1,8.1c2,9.1,1.1,18.1-0.2,27.1c-2.5,16.7-6.2,33.1-12.5,48.9
		c-1.5,3.7-3.1,7.3-6.3,10.1c2.8-8.6,5.7-17.1,7.7-26c3.2-14.4,6.1-28.8,6.5-43.7C534.4,343.4,531.3,335.1,522.9,328.7z"/>
</g>
</svg>
