<?xml version="1.0" encoding="utf-8"?>
<!-- Generator: Adobe Illustrator 23.0.1, SVG Export Plug-In . SVG Version: 6.00 Build 0)  -->
<svg version="1.1" id="Layer_4" xmlns="http://www.w3.org/2000/svg" xmlns:xlink="http://www.w3.org/1999/xlink" x="0px" y="0px"
	 viewBox="0 0 1000 1000" style="enable-background:new 0 0 1000 1000;" xml:space="preserve">
<style type="text/css">
	.st0{fill:#FEFEFE;}
	.st1{fill:#C0FEFE;}
</style>
<g>
	<path class="st0" d="M509.8,378.5c0,13.6-0.7,25-4.1,35.9c-2.1,6.7-5.7,12.6-12.4,16.3c-6.4,3.5-11.9,1.7-17.3-2
		c-9.4-6.6-15.1-16.2-20.8-25.8c-7.6-12.7-12.4-26.6-15.3-41c-1.3-6.7-2.9-13.5-1.7-20.7c1.4-8,6.3-12.9,11.7-18
		c9-8.6,20.4-11,32-12.7c6.7-1,15.2,4.4,19.3,11.4c4.5,7.7,5.5,16.3,6.2,24.6C508.6,357.9,510.1,369.3,509.8,378.5z"/>
	<path class="st0" d="M510.7,376.5c0-9-0.2-17.9,0.1-26.9c0.2-8,0.6-16,2.6-23.8c2.7-10.6,8.2-11.7,17.5-5.6
		c11.9,7.8,10.6,19.3,9.8,30.5c-0.5,6.9-1.4,13.9-2.5,20.9c-1.7,10.3-3.4,20.6-6.5,30.6c-2,6.4-3.5,13.1-7.4,18.8
		c-3.5,5.2-6.7,4.9-9.9-0.7c-2.6-4.5-3.6-9.5-3.7-14.6C510.7,396,510.7,386.2,510.7,376.5z"/>
	<path class="st1" d="M479.8,425.1c-4.7-3.1-7.5-7.6-10.5-11.9c-11-15.5-20.1-31.9-24.3-50.6c-1.8-8.1-4.6-16.3-0.3-24.7
		c6.6-13,17.3-19.7,31.4-21.5c10-1.3,12.5-0.9,18.5,3.3c-4.5,0.6-8.6,1.1-12.6,1.5c-14.2,1.7-28.8,17.2-25.6,35.3
		c4,22.7,12.4,43.6,22.1,64.2c0.5,1,1,2,1.5,3.1C480,424.1,479.9,424.5,479.8,425.1z"/>
	<path class="st1" d="M519.7,419.9c1.3-5.9,3.1-11.8,3.9-17.8c1.8-14.8,5.5-29.2,5.8-44.2c0.1-3.5,1.2-7,0.9-10.6
		c-1.1-13.3-0.6-15.5-10.7-23.4c5.3-2.9,13,0.5,15.3,7.2c2.4,7.1,1.2,14.5,0.9,21.7c-0.6,16.8-6,32.7-8.7,49.1
		C526,408.2,524.3,414.6,519.7,419.9z"/>
</g>
</svg>
