<?xml version="1.0" encoding="utf-8"?>
<!-- Generator: Adobe Illustrator 23.0.1, SVG Export Plug-In . SVG Version: 6.00 Build 0)  -->
<svg version="1.1" id="Layer_4" xmlns="http://www.w3.org/2000/svg" xmlns:xlink="http://www.w3.org/1999/xlink" x="0px" y="0px"
	 viewBox="0 0 1000 1000" style="enable-background:new 0 0 1000 1000;" xml:space="preserve">
<style type="text/css">
	.st0{fill:#FEFEFE;}
	.st1{fill:#00407F;}
</style>
<g>
	<path d="M485.3,398.9c-0.7-5.2,1.3-9.6,4.1-13.7c3.3-4.7,8.6-4.5,11.5,0.5c2.9,4.9,3.3,10.2,2.9,15.6c-0.3,4.1-1.2,8.1-1.9,12.1
		c-0.5,3-2.2,5.5-5,6.4c-2.7,0.8-4.7-1.3-6.5-3.1C485.3,411.7,485.9,405.1,485.3,398.9z"/>
	<path d="M523.4,396.9c0.2,5-0.2,10.3-1.8,15.6c-0.8,2.6-2.8,3.9-4.6,4.2c-2.1,0.4-4-1.3-4.8-3.7c-2.5-7.5-4.6-15-2.5-23.1
		c0.6-2.4,0-5,1-7.5c2.1-5.1,5.1-5.9,8.9-2.1C524.2,385,523.4,390.8,523.4,396.9z"/>
	<path class="st0" d="M501,394.7c0.1,1.9-0.1,3.7-2.6,3.7c-3.3,0-7.2-5.1-7.2-9c0-2.6,1-4.5,3.7-4.6
		C497.5,384.8,501.1,390.9,501,394.7z"/>
	<path class="st1" d="M496.1,416.8c-2.4,0-8-5.6-7.6-7.7c0.3-1.5,0.7-3.3,2.7-3.6c2.2-0.3,7.8,5.6,7.7,8
		C498.8,415.3,497.6,416.3,496.1,416.8z"/>
	<path class="st0" d="M521.4,390.3c0.5,2.5-0.6,4.4-2.7,5c-2.5,0.7-3.5-1.6-4.4-3.5c-0.1-0.1-0.3-0.2-0.3-0.4c-1.1-3-2.3-6,0.3-8.8
		c0.9-1,2.1-1.2,3-0.4C519.9,384.3,522.1,386.7,521.4,390.3z"/>
	<path class="st1" d="M511.7,405.2c-0.2-1.3,0.8-2.6,2.3-3.4c1.8-0.9,2.4,1,3.4,2c0.2,0.2,0.2,0.6,0.4,0.9c1.5,2.3,2.5,4.6,0.5,7.1
		c-0.6,0.8-1.4,1.6-2.4,0.8C513.6,410.9,511.8,408.8,511.7,405.2z"/>
</g>
</svg>
