<?xml version="1.0" encoding="utf-8"?>
<!-- Generator: Adobe Illustrator 23.0.1, SVG Export Plug-In . SVG Version: 6.00 Build 0)  -->
<svg version="1.1" id="Layer_4" xmlns="http://www.w3.org/2000/svg" xmlns:xlink="http://www.w3.org/1999/xlink" x="0px" y="0px"
	 viewBox="0 0 1000 1000" style="enable-background:new 0 0 1000 1000;" xml:space="preserve">
<style type="text/css">
	.st0{fill:#FEFEFE;}
	.st1{fill:#00407F;}
</style>
<g>
	<path d="M508.9,399c-0.7,8.2-1.6,16.2-7.3,22.9c-2,2.3-3.6,1.8-5.6,0.3c-4.2-3-4.5-7.9-5.2-12.2c-1.4-8.5-0.7-16.8,6-23.4
		c4.4-4.3,9.5-2.6,11.1,3.4C508.6,393,508.9,396,508.9,399z"/>
	<path d="M529.3,397.7c-0.5,7.1-1.2,14.1-5,20.4c-1,1.7-2.2,3.9-4.6,3.7c-2.4-0.2-3.2-2.5-3.9-4.4c-1-2.3-1.3-4.8-1.3-7.4
		c0.1-6.9,0.8-13.6,1.9-20.4c0.6-3.8,2.6-6.6,6.2-6.6c3.5,0,4.8,3.4,5.7,6.7C529.1,392.3,529.5,395,529.3,397.7z"/>
	<path class="st0" d="M506.8,396.8c0.2,2.8-0.3,5.6-2.7,6.3c-2.7,0.9-3.9-1.9-5.2-4c-1.7-2.8-2.9-5.5-1.1-8.8c1.7-3.2,4.1-3.8,6.1-1
		C505.6,391.5,507.3,393.9,506.8,396.8z"/>
	<path class="st1" d="M494.2,411.7c0-1.7,0.3-3.3,2.4-3.4c2-0.1,6.1,5.1,6.2,7.9c0.1,1.9-1.1,3.1-2.7,3.5
		C498.2,420.1,494.2,414.5,494.2,411.7z"/>
	<path class="st0" d="M527.3,394.7c0.4,2.3,0,5.1-2.8,5.5c-2.7,0.4-4.3-2.2-4.7-4.8c-0.4-2.6-1.3-5.3,1-7.6c0.9-0.9,1.6-0.9,2.9-0.4
		C527.1,388.8,527.4,391.4,527.3,394.7z"/>
	<path class="st1" d="M523.4,412.7c0,3.1-1.1,5.1-3.4,5c-2.7-0.1-3.5-2.3-3.4-4.8c0.1-2.3,0.6-5.3,2.9-5.3
		C522.4,407.7,522.8,411,523.4,412.7z"/>
</g>
</svg>
