<?xml version="1.0" encoding="utf-8"?>
<!-- Generator: Adobe Illustrator 23.0.1, SVG Export Plug-In . SVG Version: 6.00 Build 0)  -->
<svg version="1.1" id="Layer_4" xmlns="http://www.w3.org/2000/svg" xmlns:xlink="http://www.w3.org/1999/xlink" x="0px" y="0px"
	 viewBox="0 0 1000 1000" style="enable-background:new 0 0 1000 1000;" xml:space="preserve">
<style type="text/css">
	.st0{fill:#FEFEFE;}
	.st1{fill:#00407F;}
</style>
<g>
	<path d="M506.8,397.2c0.3,6.7-1.2,13.4-4.8,19.6c-3.2,5.5-6.9,5.8-10.2,0.3c-5.5-9.2-6.5-18.9-1.7-28.8c1.9-4,4.9-7.1,9.6-6.3
		c5.1,0.8,6.1,5.3,7,9.6C507.1,393.2,506.8,395.1,506.8,397.2z"/>
	<path d="M511.8,399.6c-0.4-5.8,0.6-11,2.1-16c0.7-2.5,2.2-5.5,5.2-5.5c2.8,0,4.9,2.2,6.3,4.6c3.2,5.6,3.6,11.8,2.7,18
		c-0.6,3.9-1.5,7.9-3.3,11.6c-1.5,3-3.8,6-7,5.4c-3.3-0.6-5.2-3.9-5.1-7.7C512.8,406.3,510.8,402.8,511.8,399.6z"/>
	<path class="st0" d="M504.9,394.6c-0.1,5.2-2.4,6.7-5.7,4.8c-3.2-1.8-5.5-9.1-4.1-12.3c1.4-3.3,3.6-3.2,5.5-1.2
		C503,388.6,504.5,391.9,504.9,394.6z"/>
	<path class="st1" d="M501,412.9c0,2.1-1,3.5-3,3.8c-1.7,0.3-5.7-5.8-5.8-8.3c0-1.4,0.3-2.7,1.9-2.9
		C496.4,405.2,500.9,410.1,501,412.9z"/>
	<path class="st0" d="M525.4,390.2c0,1.3,0,1.9,0,2.6c-0.2,2.4-2,3.9-3.8,4.4c-1.4,0.4-2.6-1.4-3.1-3.1c-0.1-0.4-0.5-0.8-0.8-1.2
		c-1.8-3.4-1.7-6.7,0.9-9.7c0.7-0.8,1.4-2.2,2.7-1.1C524,384.4,526.1,387,525.4,390.2z"/>
	<path class="st1" d="M516.8,403.5c3.6,1.3,5.7,3.5,5.5,7c-0.1,1.9-0.8,4.9-3.5,4.3c-3.5-0.8-4.3-4-4.2-7.3
		C514.7,405.8,515.2,404.2,516.8,403.5z"/>
</g>
</svg>
