<?xml version="1.0" encoding="utf-8"?>
<!-- Generator: Adobe Illustrator 23.0.1, SVG Export Plug-In . SVG Version: 6.00 Build 0)  -->
<svg version="1.1" id="Layer_4" xmlns="http://www.w3.org/2000/svg" xmlns:xlink="http://www.w3.org/1999/xlink" x="0px" y="0px"
	 viewBox="0 0 1000 1000" style="enable-background:new 0 0 1000 1000;" xml:space="preserve">
<style type="text/css">
	.st0{fill:#6E3720;}
	.st1{fill:#FB9A7A;}
</style>
<g>
	<path class="st0" d="M475.8,294.9c22.7,0.8,45.1,3.4,65.4,14.8c11.2,6.3,18.5,15.5,20.4,28.9c2.3,15.8-2.2,30.6-6.1,45.4
		c-3.4,12.8-8.3,25.2-14.5,37c-0.7,1.3-1.5,2.4-0.4,4c7.6,11.7,5,22.5-3.6,32.1c-4.6,5.1-4.5,11-4.6,16.6
		c-0.1,23.6-6.9,44.7-19.1,64.9c-10.1,16.7-21.4,32.9-29.2,51.1c-5.4,12.7-11.9,24.9-18.2,37.1c-4.6,8.9-9.8,17.4-18,23.6
		c-7.5,5.7-15.1,4-21.3-3.2c-9.6-11.3-12.4-25.1-15.3-38.8c-2.9-14.2-4.1-28.7-5.3-43.2c-1.2-14.9,1-29.4,2.2-44.1
		c0.6-6.9,1.1-13.7,2-20.6c0.9-6.7,1.8-13.4,1.9-20.1c0.4-17-3.3-32.9-11.3-48.2c-9.2-17.7-15.6-36.7-18.7-56.4
		c-2.9-18.7-0.3-37,12-52.3c7.8-9.7,18.1-16.5,30-20.6c12.1-4.2,24.5-6.4,37.3-7C466.2,295.5,471,294.9,475.8,294.9z"/>
	<path class="st1" d="M489.6,472.5c11-6.1,22-4.8,32.8-7.1c0.3,12.4-0.8,24.7-4.4,36.5c-4.6,15.1-12.4,28.9-20.2,42.5
		c-11.9,20.6-23.5,41.2-33,63.1c-4.2,9.7-9.2,19.1-15.3,27.9c-1.4,2.1-3,3.9-4.8,5.4c-5.4,4.4-9.9,3.4-13.3-2.8
		c-6.5-11.8-9.5-24.8-12.2-37.8c-2.1-10.1-2.4-20.4-3.3-30.7c-1.8-21.9,1.4-43.3,5-64.7c0.6-4,0.5-8,1-12
		c1.9-18.4,0.5-36.4-6.4-53.9c-5.7-14.4-12.7-28.4-17.3-43.2c-3.4-10.9-6.4-21.8-6.4-33.4c0-17.4,6.8-30.9,21.2-40.9
		c11.9-8.3,25.2-12.1,39.2-14.7c11.4-2.1,22.9-2.2,34.3-1.7c19.4,0.8,37.6,5.8,53.4,17.8c10.7,8.1,14.6,20.4,11.7,34.8
		c-3.3,16.7-8.3,32.8-14.4,48.7c-2.1,5.4-4.6,10.6-7.2,15.7c-1.1,2.2-1.5,4,0,6.1c8.4,11.4-0.6,26.7-14.6,28.1c-1,0.1-2,0.1-2.9,0
		c-9.4-1.2-15.9,2.3-20.2,10.9C491.5,468.3,490.9,469.7,489.6,472.5z"/>
</g>
</svg>
