<?xml version="1.0" encoding="utf-8"?>
<!-- Generator: Adobe Illustrator 23.0.1, SVG Export Plug-In . SVG Version: 6.00 Build 0)  -->
<svg version="1.1" id="Layer_4" xmlns="http://www.w3.org/2000/svg" xmlns:xlink="http://www.w3.org/1999/xlink" x="0px" y="0px"
	 viewBox="0 0 1000 1000" style="enable-background:new 0 0 1000 1000;" xml:space="preserve">
<style type="text/css">
	.st0{fill:#6E3720;}
	.st1{fill:#FB9A7A;}
</style>
<g>
	<path class="st0" d="M485.5,292.9c9.6,0.1,24.9,1,39,7.1c15,6.5,28.1,15.8,32.6,33c2.8,10.5,1.1,20.9-0.9,31.3
		c-3.4,17.9-9.6,35-15.4,52.1c-0.5,1.5-0.8,2.5,0,4c7,12.6,4.9,24.1-4.8,34.4c-1,1.1-1.8,2-1.8,3.7c0,14.8-2.1,29.3-4.8,43.8
		c-1,5.5-2.9,10.7-5.1,15.7c-6.7,15.3-15.7,29.3-24.6,43.3c-9.8,15.4-18.9,31-28.2,46.7c-6.6,11.2-13.2,22.4-20.6,33
		c-3.9,5.5-8.8,10.8-15.6,13.3c-6.8,2.5-14.8-1.7-19.4-9.2c-6.3-10.2-8.5-21.6-10.7-33.1c-2.8-15.1-4.3-30.2-3.7-45.5
		c0.4-12.5,2-24.8,3.6-37.2c1.8-14.5,4.9-28.9,6.4-43.5c1.9-17.6-1.4-33.4-9.8-48.7c-8-14.7-14.9-30-20.4-45.9
		c-1.7-4.9-2.5-10.1-3.2-15.3c-1.7-11.7-1.5-23.3,1.9-34.7c1.9-6.3,5.1-11.9,9.3-16.9c14.1-17.1,33.2-24.7,54.4-28.4
		C455.6,293.9,467.7,292.9,485.5,292.9z"/>
	<path class="st1" d="M479.3,303.7c11.6,1,25.5,0.3,38.3,5.9c11.2,4.9,21.9,10.6,27.8,22.4c4,8,2.3,16.1,1,24.1
		c-2,13.3-5.7,26.2-9.5,39.1c-2.1,7.2-5.1,14.2-7.8,21.2c-1.1,2.7-1.9,4.7,0.5,7.6c4.8,6,4.2,12.7,0.2,19.3
		c-3.5,5.7-8.1,9.2-14.9,8.8c-12.8-0.7-17.8,6.3-21.2,13.5c-0.4,0.9-1,1.9-0.2,2.7c1,1,1.6-0.4,2.4-0.8c6.6-4,14.3-2.9,21.4-4.7
		c5.2-1.3,5.1,1.1,5.1,4.9c0,24.3-7.8,46.3-19.7,67.1c-13.1,23-28.2,44.8-40.9,68c-7,12.8-14,25.8-24.5,36.2
		c-8.1,8-10.8,4.8-14.1-2.1c-7-14.7-10.6-30.1-11.5-46.4c-0.3-5.6-1.2-11.3-0.7-16.9c1.4-17,2.1-34,5.4-50.8
		c3.2-16,6.8-32.1,6.2-48.6c-0.5-12.7-3.7-24.7-8.6-36.2c-8.5-20-17.9-39.7-24.7-60.5c-4.7-14.2-3.4-28,3.9-40.8
		c6-10.6,15.8-17.5,27-22.3c14.2-6,28.9-9.2,44.3-9.9C468.9,304.3,473.1,303.8,479.3,303.7z"/>
</g>
</svg>
