<?xml version="1.0" encoding="utf-8"?>
<!-- Generator: Adobe Illustrator 23.0.1, SVG Export Plug-In . SVG Version: 6.00 Build 0)  -->
<svg version="1.1" id="Layer_4" xmlns="http://www.w3.org/2000/svg" xmlns:xlink="http://www.w3.org/1999/xlink" x="0px" y="0px"
	 viewBox="0 0 1000 1000" style="enable-background:new 0 0 1000 1000;" xml:space="preserve">
<style type="text/css">
	.st0{fill:#6E3720;}
	.st1{fill:#FB9A7A;}
</style>
<g>
	<path class="st0" d="M551.8,345.4c-0.3,20.2-4,39.8-10.3,59c-1.1,3.3-1.9,6.7-3.1,9.9c-0.7,2.1,0.7,3.3,1.4,4.8
		c3.8,8.3,5.9,16.6,2.4,25.7c-1.2,3.1-3.2,5.8-5.3,7.8c-3.2,3-3.3,6.6-2.4,9.8c2.3,8.1,0.2,16.1-0.5,24c-1.5,16.2-8.3,31-16,45.3
		c-6.5,11.9-14.1,23.2-21.3,34.8c-10.7,17.2-23.4,33.1-35.1,49.7c-4.7,6.6-9.7,13.1-15.2,19c-5.1,5.5-11,10.3-18.1,13.1
		c-6.7,2.7-14.2-0.6-18.2-7.2c-3.1-5.2-4.5-10.8-5.5-16.5c-2.6-14-4.6-28.2-3.8-42.5c0.7-12.7,1.8-25.5,3.5-38.2
		c1.9-14.5,5.1-28.8,6.3-43.5c0.5-6.7,1-13.4,1.8-20.1c1.3-12-3.1-22.6-9-32.5c-9.5-15.8-16.9-32.4-23.2-49.7
		c-3.8-10.5-6.2-21.3-7.6-32.2c-1.9-14.5,4.4-26.5,13-37.8c13-17,30.9-25.5,51-30.2c14.8-3.5,29.8-6.7,45-5.7
		c18.3,1.2,36.7,3.6,52.6,14.3c9.3,6.3,15,15.2,17.2,26.4C551.6,337.1,551.8,341.3,551.8,345.4z"/>
	<path class="st1" d="M495,469c7.9-6.8,17.3-6.3,26-8c2-0.4,2.4,1,2.4,2.6c0,17-2.3,33.6-9.4,49.3c-14.1,31.2-34.1,58.7-53.4,86.7
		c-7.5,10.9-15.7,21.1-23.9,31.4c-2.6,3.3-6.2,5.7-10.1,7.2c-3.9,1.5-6.6-0.3-8.9-3.7c-3.9-5.8-3.9-12.6-4.5-19
		c-1-10.1-2.6-20.2-2.2-30.4c0.7-17.7,2.9-35.2,5.5-52.7c2.1-14.3,5-28.4,5.5-43c0.3-9.2,1.7-18.3-1.2-27.3
		c-1.2-3.6-2.5-7.3-4.3-10.7c-6.5-12.9-13.4-25.7-19.8-38.7c-7.3-14.9-13-30.4-15.7-46.7c-1.3-8.1,1.7-16.3,6.2-23.3
		c12.7-19.8,31.5-30.3,54-35.2c11-2.4,22.2-4.3,33.3-4.5c21-0.4,41.3,3.6,58.2,17.5c6.6,5.4,8,13.5,8,21.5
		c0.1,24.5-4.7,48.1-14,70.8c-1.6,3.8-1.6,6.6,1.3,10c5,5.8,5.4,12.5,1.8,19.3c-3.3,6.2-9,7.7-15.4,8.1
		C504.8,450.7,497.6,457.4,495,469z"/>
</g>
</svg>
