<?xml version="1.0" encoding="utf-8"?>
<!-- Generator: Adobe Illustrator 23.0.1, SVG Export Plug-In . SVG Version: 6.00 Build 0)  -->
<svg version="1.1" id="Layer_4" xmlns="http://www.w3.org/2000/svg" xmlns:xlink="http://www.w3.org/1999/xlink" x="0px" y="0px"
	 viewBox="0 0 1000 1000" style="enable-background:new 0 0 1000 1000;" xml:space="preserve">
<style type="text/css">
	.st0{fill:#FB9A7A;}
	.st1{fill:#6E3720;}
	.st2{fill:#FEFEFE;}
	.st3{fill:#C0FEFE;}
	.st4{fill:#7F7F7F;}
	.st5{fill:#00407F;}
	.st6{fill:#004080;}
</style>
<g>
	<path class="st0" d="M539.1,476.6c-5.6,3.6-12.1,5.1-18.1,7.5c-21.8,8.5-43.8,16.6-65.8,24.8c-1.7-1.3-2.1-3.2-2.3-5.2
		c-1.1-10.8-5.3-20.7-9.8-30.5c-5.8-12.4-12.3-24.4-18.7-36.4c-9.5-17.9-16.6-36.7-22.3-56.1c-3-10.2-4.4-20.8-3.5-31.3
		c1.4-17.4,10.4-30.6,25.8-38.8c17.3-9.2,35.6-14.8,55.4-15c1.9,0,3.9-0.2,5.7,1c1.6,4.6,4.3,9,4,14.1c-6.5,2.4-13.2,4.2-19.5,7.4
		c-12.1,6.1-16.7,13.8-14.8,29.7c2.8,24.2,12.1,46.1,25.6,66.2c0.7,1.1,1.4,2.2,2.4,3.1c9.9,9.4,19.4,10.8,26.8-2.7
		c5.3-9.7,7.1-20.5,8.3-31.3c2.2-19.3,0.2-38.3-3.4-57.2c-0.1-0.5,0-1,0-1.5c0.4-1.9,2-2.3,3.4-3.2c5-3.1,6.4-7,5.2-12.7
		c-0.5-2.1-2.3-4.1-0.6-6.4c3.2-0.7,6-0.1,8.1,2.6c1.4,4.7,0.4,9.5,1.4,14.2c-4.1,16-5.6,32.4-7,48.7c-1.3,14.7-1.4,29.5,0.7,44.3
		c0.2,1.3,0.7,2.5,1.4,3.6c1.3,2,2.7,2.2,4.2,0.2c1.9-2.7,3.3-5.6,4.5-8.6c8.7-21.8,12.4-44.7,15-67.9c0.5-4.7-0.9-9-2.5-13.3
		c-0.7-1.8-1.8-3.5-1.5-5.6c0.7-2.3,2.4-3,4.6-2.9c3.5,0.9,5.3,3.6,6.8,6.6c2.8,5.8,3.7,11.9,3.1,18.5c-1.8,18.4-6.9,36-12.6,53.5
		c-1.7,5.3-4.4,10.1-6.9,15c-1.6,3.1-2.1,6.1-0.9,9.4c0.6,1.5,0.9,3.1,1.4,4.7c3.5,11.3-2.6,22.1-14.3,24.7
		c-5.9,1.3-11.8,2-17.9,0.7c-8.9-1.8-17.9-3.2-26.9-4.5c-9.4-1.4-20.5,3.4-24.8,10.8c2.8-0.4,5.3-0.9,7.7-1.8
		c10.5-4,21.1-2.8,31.7-0.8c6.9,1.3,13.8,2.3,20.7,3.2c1.8,0.2,3.6,0.6,5.3,0.1c5.1-1.4,8.1,1,10,5.3
		C536,467.2,539.7,471.1,539.1,476.6z"/>
	<path class="st1" d="M485.2,297c-23.7-1.1-45.6,5.6-65.4,17.8c-10.8,6.7-17.7,17.6-19.4,31c-2.3,17.7,2.8,34.1,8.2,50.7
		c7.7,23.9,20.4,45.3,31.5,67.6c5.6,11.2,11,22.4,13.5,34.9c0.6,3.3,1.1,6.6,1.7,9.9c-3,0.9-3-2-3.8-3.4
		c-7.7-15.1-14.9-30.5-22.8-45.5c-5.9-11.2-12.3-22.2-17.6-33.7c-7.6-16.5-14.4-33.5-17.2-51.5c-1.8-11.7-3.7-23.5-0.6-35.7
		c3.3-12.7,11.3-21.6,20.9-29.5c13.7-11.1,30.3-15.5,46.9-19.3c7.8-1.8,16-1.6,24.1-1.3C486.1,291.6,486.1,294.3,485.2,297z"/>
	<path class="st1" d="M539.1,476.6c-2.2-6.1-5.5-11.6-8.6-17.1c-0.7-1.3-1.6-1.6-2.7-1.3c-8.3,2.3-16.2-0.7-24.2-1.7
		c-7.3-1-14.5-2.7-21.9-3.1c-6.7-0.4-13,2.9-19.6,4.2c-2.1,0.4-4.3,1.1-6.8,1.7c3.3-8.6,10.3-11.6,17.8-13.8
		c9.9-2.9,19.3,1.2,28.9,2.5c9.2,1.3,18.2,3,27.5,0.4c9.1-2.5,15.2-12.9,11.8-21.7c-2.7-7.1-2.1-13.1,1.3-20.2
		c8.3-17.2,13.8-35.4,16-54.5c0.9-7.8,3.3-15.3,0.3-23.2c-1.6-4.2-3.4-7.9-7.2-10.5c0.6-3.4,2.8-5.4,5.8-6.7
		c5.8,5.7,9.9,12.1,11.5,20.3c1,5.5-0.1,10.7-0.8,15.7c-2.5,17.8-7,35.2-13.4,52.1c-1.7,4.6-3.9,9-6.3,13.3
		c-1.5,2.7-1.4,4.8,0.1,7.4c3.4,6.2,5.4,12.6,2.4,19.8c-1.3,3-3,5.4-5.5,7.1c-6.9,4.7-7.4,11.1-5.1,18.1
		C541.6,469.4,540.9,472.9,539.1,476.6z"/>
	<path d="M485.2,297c-1.2-2.7-1.2-5.3,0-8c1.5-7.8,4.1-9.5,11.6-8.8c8.9,0.8,14.3,6.6,19.7,12.7c3.4,2.5,6.1,5.4,6,10
		c2.1,5,4.3,9.7,1.1,15.3c-2,3.4-5.2,4.3-8.1,6.1c-6.8,4.4-15.6,2.2-21.7-5.5c-1.1-1.5-2.2-3-3.2-4.6c-0.7-1.1-1.5-2.2-1.3-3.7
		C487.8,306,485.2,301.9,485.2,297z"/>
	<path d="M557.5,311.5c-1.9,2.2-3.8,4.5-5.8,6.7c-1.5,0.3-2.9,0.8-4,2.1c-0.9,1.1-2.1,1.9-3.5,2.3c-1.8,0.6-3.6,1-5.5,1.5
		c-3.9,0.7-6.1-1.4-7.5-4.7c-2-4.7-0.6-9.7-1.2-14.5c-1.7-3.2-1-6.2,1-9c0.7-2.9,1.2-5.8,2.1-8.6c2-6,6.8-8.2,12.6-5.6
		c9.6,4.3,14.3,17.3,12.3,25.7C557.8,308.7,558,310.2,557.5,311.5z"/>
	<path class="st1" d="M531.1,295.8c-0.3,3-0.7,6-1,9c-2.4-1.3-5-1.7-7.6-2c-2-3.3-4-6.6-6-10C521.4,293.9,526.3,294.8,531.1,295.8z"
		/>
	<path class="st2" d="M489.3,310.4c0.7,1,1.3,2,2,3c-1.3,1.7-3.3,1.9-5.2,2.3c-5.2,1-9.9,3-14.7,5.2c-8.9,4-12.7,11-13.1,20.5
		c-0.3,6.9,1.4,13.6,3,20.2c4.7,19.1,12.2,37,24.2,52.8c0.2,0.3,0.4,0.5,1,0.7c-10.6-21.1-16.4-43.5-18.8-66.7
		c-1.6-15.2,9.2-29.4,24.2-31.6c0.8-0.1,1.6,0,2.3,0.5c5.2,8,12.8,8.8,21.3,6.9c2.5,8.7,3.3,17.6,4.1,26.6
		c0.7,7.4,1.3,14.9,0.8,22.3c-1,14.4-2.3,28.8-9.2,42c-4.3,8.1-10.2,12.3-16.6,10.6c-5.6-1.5-10.7-4.4-14.2-9.5
		c-10.9-16.3-19.6-33.6-23.8-52.8c-1.9-8.5-4.6-16.8-2.8-26.1c1.5-8,4.4-14.3,11.7-18.1C473.1,315.2,480.4,310.7,489.3,310.4z"/>
	<path class="st2" d="M544,321.5c1.3-0.4,2.5-0.8,3.8-1.2c1.2,3,2.3,6,3.6,8.9c2.6,6,1.1,12.1,0.3,18.1c-1.4,10-2.4,20.1-4.9,29.9
		c-3.5,13.8-6.8,27.8-14.3,40.2c-2,3.3-3.9,3.3-6-0.1c-2.9-4.8-2.7-10.3-2.9-15.4c-0.4-10.1-1-20.3,0.1-30.2
		c1.9-17.5,2.4-35.3,7.7-52.3c2.5,1.4,3.8,5.1,7.6,3.8c2.1-0.2,2.8,1.5,3.3,2.9c1.8,5.2,3.3,10.3,2.6,16.1
		c-1.2,9.1-1.5,18.3-2.6,27.5c-0.5,4-0.6,8.1-3.5,11.3c-3-1.4-1.9-4.2-2-6.4c-0.2-3.7,0.2-7.5-1.7-11c-1.6-2.9-3.1-3.1-5-0.4
		c-1.7,2.3-2.4,5-2.4,7.8c-0.1,5.9-0.1,11.7,0,17.6c0,1.9-0.1,4.3,2,5c2,0.6,3-1.4,4.1-2.8c0.6-0.8,1.3-1.5,2.5-1.2
		c1.4,1.8,0.7,3.7,0.1,5.5c-1.9,5.9-3.5,11.9-6,17.6c4.1-10,7.1-20.3,10-30.6c4.1-14.6,5.5-29.7,7-44.7c0.4-3.8-1.1-7.4-2.3-10.9
		C544.4,324.9,543.4,323.4,544,321.5z"/>
	<path class="st3" d="M494.2,317.3c-8.8,2.8-17.8,5.1-22.2,14.8c-3.6,7.8-3.3,15.7-2.2,23.7c1,7.2,2.5,14.3,4,21.4
		c2.8,13.1,8.3,25.2,13.6,37.3c0.6,1.2,1,2.5,2,4.8c-4.9-2.4-6.9-6-8.9-9.2c-12-18.8-19.6-39.3-23.3-61.3
		c-0.9-5.6-0.4-11.3,1.3-16.8c1.6-5.3,5.6-8.6,10.2-11.2c7-3.9,14.5-6.3,22.5-7.3C492.3,314.7,493.2,316,494.2,317.3z"/>
	<path class="st4" d="M502.2,286.7c9.4,4.7,14.3,11.7,18,19.5c1.4,3-1.9,4.1-3.9,5c-2.8,1.2-5.7-0.2-6-2.9
		C509.4,300.8,506.2,294.3,502.2,286.7z"/>
	<path class="st3" d="M544,321.5c6,8.9,4.8,18.8,3.6,28.6c-2,17.2-5.7,34-11.3,50.4c-1.7,4.9-3.9,9.4-6.5,13.8
		c1.3-8.5,5.4-16.1,6.3-24.7c-1.2-1.3-0.6-2.6,0-3.9c0.9-1.3,0.8-3,1.4-4.4c0.2-0.2,0.3-0.3,0.5-0.5c3.5-6.1,3.2-13,3.8-19.6
		c0.7-7,1.5-14.1,1.9-21.2c0.3-5.9-0.9-11.9-4.8-16.8C540.3,321.5,542.5,322.7,544,321.5z"/>
	<path class="st4" d="M545.7,286.3c9.4,7.7,11.3,14.5,5.2,23.2c-2.1,3-2.9,2.1-4.2-0.5c-0.7-1.3-1.2-2.6-0.7-3.7
		C549,299.1,547.5,292.9,545.7,286.3z"/>
	<path d="M501.8,383c0.2-6.7,0.4-11.9,3-16.7c1.6-2.9,3.9-5.2,7.5-4.9c3.8,0.3,5.8,3.8,5.8,6.5c-0.1,8.5,0,17.2-3,25.4
		c-0.7,2-1.7,4.6-4.6,4.1c-2.4-0.4-4.5-1.7-5.9-4.1C502.7,389.5,501.5,385.7,501.8,383z"/>
	<path d="M537.3,385.7c-0.9,1.1-1.3,2.4-1.2,3.9c-2,2.4-3,7-6.9,5.7c-3.7-1.3-2.9-5.7-2.7-9c0.3-6.9-1.1-13.9,1-20.7
		c0.9-2.8,2.2-6,5.3-6c3.1-0.1,3.7,3.3,4.5,5.9c1.7,5.1,0.5,10.2,0.8,15.3c0,0,0.1,0,0.1,0C537,382.3,538.1,384.1,537.3,385.7z"/>
	<path class="st2" d="M537.3,385.7c0.1-1.7-1-3.5,0.8-5C537.9,382.4,538.7,384.2,537.3,385.7z"/>
	<path class="st2" d="M516.6,372.3c0.1,2,0.3,3.9-1.6,4.5c-2.1,0.7-3.3-1.1-4.2-2.6c-1.1-1.7-1.9-3.6-2.7-5.5
		c-1.1-2.2,0.7-3.4,2.1-4.3c1.4-0.8,3.4-0.8,4.2,1.1C515.3,367.9,517.4,369.9,516.6,372.3z"/>
	<path class="st5" d="M511.7,391.7c-0.2,1.1,0.3,3.2-1.6,2.6c-3.8-1.1-5-4.7-6.1-8c-0.3-1-0.2-2.3,1.5-2.4
		C507.9,383.8,511.5,388.3,511.7,391.7z"/>
	<path class="st2" d="M536.1,370.1c-0.1,1.7,0.6,4.2-1.5,4.6c-2,0.4-3.4-1.4-3.5-3.7c0-0.4-0.5-0.8-0.6-1.2c-0.9-2.5,0-4.7,1.4-6.7
		c0.4-0.6,1.2-1.3,2-0.5c1.5,1.5,1.7,3.6,2.2,5.6C536.2,368.8,536.1,369.5,536.1,370.1z"/>
	<path class="st6" d="M533.2,388.4c0.1,2.2-0.2,4.1-2.2,4c-3.1-0.2-3.4-2.9-3.6-5.4c-0.1-1.9,0.2-5,2-4.7
		C532.2,382.8,532.4,386.4,533.2,388.4z"/>
</g>
</svg>
