<?xml version="1.0" encoding="utf-8"?>
<!-- Generator: Adobe Illustrator 23.0.1, SVG Export Plug-In . SVG Version: 6.00 Build 0)  -->
<svg version="1.1" id="Layer_4" xmlns="http://www.w3.org/2000/svg" xmlns:xlink="http://www.w3.org/1999/xlink" x="0px" y="0px"
	 viewBox="0 0 1000 1000" style="enable-background:new 0 0 1000 1000;" xml:space="preserve">
<style type="text/css">
	.st0{fill:#FB9A7A;}
	.st1{fill:#6E3720;}
	.st2{fill:#FEFEFE;}
	.st3{fill:#7F7F7F;}
	.st4{fill:#C0FEFE;}
	.st5{fill:#00407F;}
</style>
<g>
	<path class="st0" d="M539.1,476.6c-6.1,4.3-13.5,5.9-20.3,8.5c-21.1,8.2-42.4,15.9-63.6,23.8c-1.4-1.1-2-2.6-2.2-4.2
		c-2-17.8-10.4-33.1-18.7-48.4c-14.1-25.9-27.7-52-34-81.2c-1.9-8.8-2.7-17.6-1.6-26.6c2.6-20.9,15.9-32.8,33.9-40.6
		c14-6.1,29-8.6,44.1-10.2c2.2-0.2,4.6-0.3,6.7,0.6c1,0.6,1.7,1.5,1.9,2.6c0.9,4.9,2.8,9.5,4.9,14c0.4,0.9,0.6,1.8,0,2.8
		c-4.2,1.9-8.8,1.6-12.8,0.5c-5.7-1.5-9.7,0.6-13.7,4c-8.8,6.1-9.9,15.1-9.2,24.7c1.5,19.7,8.4,37.6,17.9,54.7
		c2.4,4.3,5,8.4,7.5,12.5c2,3.2,4.5,6,7.8,7.9c9.2,5.5,16.8,3.6,22.2-5.7c4.6-8,6.5-16.9,8.2-25.9c3.7-19.5,1.2-38.8-1.3-58.1
		c-0.2-1.6-0.7-3.2-0.3-4.8c0.4-1.5,1.6-2.3,2.8-3.2c6.1-4.7,6.7-7.1,4.1-14.5c-0.7-2-2.5-3.9-1.1-6.3c3.6-0.3,6.8,0.7,9.4,3.3
		c-0.3,5.6,1.2,11.3-0.1,16.9c-4.2,15.8-5.3,32-6.1,48.3c-0.7,12.7-1.2,25.3,0.3,38c0.4,3.4,0.2,7.7,4.4,8.3
		c3.6,0.5,4.6-3.6,5.7-6.3c7.8-18.1,12.2-37,14.4-56.5c0.5-4,0.9-8.1,1.5-12.1c0.8-5.3,0.4-10.4-1.8-15.3c-2.3-5.5-1.8-6.2,4.1-7.3
		c8,5.4,9.2,13.8,8.3,22c-2.5,22.3-7.7,43.9-18.4,63.8c-3.3,6.1-4.9,11.7-1.8,18.4c1.5,3.3,2.5,7.1,1.4,10.9
		c-2,7.1-6.4,11.6-13.7,13.9c-9.8,3.1-19.3,0.6-29-0.7c-5.8-0.8-11.5-2.2-17.3-2.8c-10.2-0.9-18.7,2.6-25.4,10.6
		c5-0.8,9.8-2.2,14.8-3.2c6.6-1.3,12.9-0.5,19.4,0.4c11.6,1.4,23,4.2,34.9,3.1c1.3-0.1,2.8,0.1,3.5,1.2
		C534.6,464,539,469.3,539.1,476.6z"/>
	<path class="st1" d="M483.3,298.9c-23.6,0.7-46.3,5.2-66,19c-9.5,6.7-15.2,16.6-17,28.6c-2.8,18.5,2.6,35.6,8.4,52.6
		c5,14.8,12,28.7,19.3,42.5c6.3,11.9,12.9,23.6,18.6,35.9c4.6,10,7.2,20.5,8.8,31.3c-2.4-0.7-2.4-0.7-3.6-3
		c-5.9-11.4-11.7-22.8-17.6-34.2c-8.7-16.9-17.6-33.7-26.2-50.6c-7.1-14-13-28.7-15-44.2c-1.7-13-4.2-26,0.3-39.4
		c4.9-14.7,14.5-24.8,27.6-32c14.2-7.7,29.2-12.8,45.6-13.5c6-0.3,11.9-2.4,18.1-1.7C485.9,293.3,485.2,296.2,483.3,298.9z"/>
	<path class="st1" d="M539.1,476.6c-2.2-6.1-5.5-11.6-8.6-17.1c-0.9-1.5-2-1.6-3.2-1.2c-6.6,2.2-13.1-0.1-19.5-0.8
		c-8.3-0.8-16.5-2.7-24.8-3.2c-9.4-0.5-18.3,2.4-27.1,5.6c0.3-6.7,9.3-11.2,15.6-13.6c10-3.8,19.5,0.5,29.2,1.5
		c9.8,1,19.4,3.8,29.4,0.7c9-2.8,14.6-11.6,11.7-20.4c-1.1-3.3-1.5-6.9-3.4-10c-1.2-2,0.2-3.4,1-4.9c7.1-13.4,12.9-27.2,16.5-41.9
		c2.2-9.3,4.3-18.7,5.3-28.2c0.9-8.1-0.8-16-7.7-21.8c0.6-3.5,3.4-5.8,5-8.7c10,8.5,12.6,19.1,10.9,32.1
		c-1.9,15.2-5.4,29.8-10.1,44.3c-2.5,7.6-5.1,15.3-9.3,22.2c-2.3,3.8-2.4,6.9-0.1,10.9c3.9,6.7,4.9,14,0.7,21.1
		c-2.2,3.8-5.5,6.7-9.1,9.2c-2.2,1.5-2.7,3-2.3,6C540.3,464.2,542.9,470.5,539.1,476.6z"/>
	<path d="M483.3,298.9c-0.3-3,0.7-5.8,1.1-8.7c5-8,14-9.3,21.9-3.1c2.5,2,4.9,4,7.4,6c4.6,2.2,7.3,5.9,8.8,10.6
		c0,3.1,2.2,5.4,3.1,8.2c2.2,6.9-0.6,10.6-6.7,14.2c-0.5,0.3-1,0.7-1.5,1c-5.3,4.1-11.9,4.2-18.3,0.3c-2.9-1.8-5.4-4-7.3-6.8
		c-0.6-1-1.5-1.9-1.7-3.2C486.7,311.7,485,305.3,483.3,298.9z"/>
	<path d="M558.7,312.4c0.2,4-3,6-5,8.7c-0.4,0.3-0.7,0.7-1.1,0.8c-3.1,0.7-3.6,2.5-2.1,5.1c-0.7,0.9-1.6,0.9-2.6,0.9
		c-2.3-0.5-4.6-0.6-6.9,0.1c-4.5,0.7-7.4-2-10.3-4.9c1.1-1,1-2.5,0.6-3.6c-1.5-4.3-0.8-8.5,0-12.8c-1.9-3.2-0.8-6.1,1-9
		c1-2.9,1.4-6,3-8.8c2.8-4.7,6.6-5.6,11.7-3.5C557.6,290,561.7,304.4,558.7,312.4z"/>
	<path class="st1" d="M532.1,297.8c-0.3,3-0.7,6-1,9c-2.9-1-5.8-2-8.7-3c-2.9-3.5-5.9-7.1-8.8-10.6
		C520.1,293.6,525.9,296.5,532.1,297.8z"/>
	<path class="st2" d="M492.1,319.2c6.4,8,12.7,12.6,25.3,8c2.2,15.2,4.6,30.4,3.9,45.7c-0.7,14.4-2.6,28.8-9.1,42.1
		c-3,6.1-7.3,11.3-14.3,11.6c-7.9,0.3-14.2-4-18.5-10.6c-9.1-13.9-16.9-28.6-21.7-44.6c-3.8-12.6-6.5-25.6-3.7-39
		c1.1-5,4.9-8.2,8.8-11.1c2.4-1.1,4.6-3,7.5-1.4c1.1,2.5-1.2,3.1-2.4,4c-8.5,5.7-10.7,13.9-9.5,23.4c3.1,25.6,12.1,48.7,28.1,69
		c-4.7-9.4-8.7-19.2-11.6-29.2c-3-10.1-4.9-20.5-6.6-31c-0.9-5.7-0.7-11.2,0.8-16.8c3.1-11.6,10-18.7,22.2-20.1
		C491.6,319.2,491.9,319.2,492.1,319.2z"/>
	<path class="st2" d="M547.9,326.8c0.9,0.1,1.7,0.1,2.6,0.2c4.3,4.5,3.7,10.2,3.1,15.5c-1.2,11-2.6,22-4.8,32.8
		c-3,14.3-6.7,28.4-13.5,41.5c-1,2-2.3,4.3-5,3.8c-2.6-0.4-4-2.4-4.7-5c-1.4-4.8-1.6-9.8-1.9-14.8c-0.9-13.3,0.4-26.6,1.1-39.9
		c0.7-12.8,2-25.6,6-38c1.9-0.4,2.8,0.9,4,2c1.8,1.7,3.9,2.4,6.4,2c2.9,0.3,2.8,2.7,3.3,4.7c1.2,5.4,1.3,10.8,0.6,16.4
		c-1.1,8.7-1.7,17.4-3.1,26c-0.3,1.7-0.2,3.6-1.8,4.9c-3.2-0.9-2-3.6-2.1-5.6c-0.1-3.3-0.3-6.5-2-9.4c-1.7-2.7-3.4-2.8-5.2-0.2
		c-0.9,1.3-1.6,2.8-1.9,4.4c-1.6,7-1.2,14.2-0.9,21.3c0.2,4.5,1.4,5,7.5,5c2,3.4-0.3,6.2-1.1,9.3c-0.6,2.7-1.6,5.3-2.8,7.8
		c8.7-19.8,15.6-48.1,16.9-69.4c0.2-3.3-0.1-6.5-0.7-9.7C547.3,330.6,546.4,328.6,547.9,326.8z"/>
	<path class="st1" d="M470.7,320.5c-2.7-1-5.1,1-7.7,0.8c4.3-3.4,8.1-7,14.7-4.3c3.6,1.5,8.3,0.3,12.5,0.3c0.9,0.3,1.5,0.9,1.9,1.8
		c0,0,0.2,0.1,0.2,0.1l-0.1,0.2c-4.6,0.8-9.2,1.2-13.7,1.9C475.9,321.9,473.1,322.4,470.7,320.5z"/>
	<path class="st3" d="M503.2,291.4c8.8,3.4,13.7,10.4,17.7,18.2c1.3,2.6-1.3,3.5-2.6,4.4c-1.7,1.3-3.9,2.7-6.1,0.5
		c-0.8-0.8-1.6-1.8-1.8-2.8C508.8,304.7,506.4,298,503.2,291.4z"/>
	<path class="st4" d="M547.9,326.8c3.2,9.9,1.1,19.7,0.3,29.6c-1.2,15-6.8,28.8-10.6,43.1c-1.5,5.7-4.2,11-7.6,15.9
		c1.1-7.2,4.6-13.7,5.1-20.9c0.2-5.5,0.9-10.9,4.1-15.6c2.1-8.7,2.8-17.6,3.7-26.5c0.7-6.5,2-13,0.1-19.6c-0.6-2-0.6-4.1-2.1-5.7
		C543.2,325.7,545.5,325.4,547.9,326.8z"/>
	<path class="st3" d="M546.9,290.7c8.8,6.4,10.8,12.8,6.9,20.4c-1,1.9-2.4,4.4-4.3,3.9c-2.5-0.7-3.4-3.8-2.5-6.1
		C549.3,302.8,549.2,296.9,546.9,290.7z"/>
	<path class="st4" d="M470.7,320.5c7.2,0,14.3-2,21.6-0.9c-4.6,2.3-10,2.3-13.9,6.3c-7.6,7.7-10,16.9-8.8,27.4
		c1.5,12.9,4.1,25.5,8.1,37.8c3.2,9.6,7.1,18.9,11.4,28.2c-6.2-3.9-9.5-10.1-13-16c-10.5-17.4-16.6-36.3-18.9-56.5
		C455.7,334.8,460.6,326.3,470.7,320.5z"/>
	<path d="M518.5,377.9c0.9,4.9-1.2,10.2-2.4,15.6c-0.6,2.7-2,4.7-4.9,4.9c-2.8,0.2-5-1.3-6.3-3.6c-3.5-6.1-3.6-12.8-2.7-19.5
		c0.4-2.9,0.9-5.9,2.7-8.4c1.9-2.7,4.2-5.2,7.9-4.5c3.7,0.7,5.3,3.8,5.7,7.3C518.7,372.2,518.5,374.6,518.5,377.9z"/>
	<path d="M539.2,378.9c-1,5.3-2.1,10.5-4.1,15.6c-5.5,3.6-7.6,2.4-8.2-3.1c-1-9.2-2.2-18.8,2.3-27.7c0.9-1.9,1.8-3.4,4.1-3.3
		c2.3,0.1,3,1.8,4,3.5C540.1,368.7,538.5,373.9,539.2,378.9z"/>
	<path class="st2" d="M516.6,373.6c-0.1,1.8,0.5,4.1-2.4,4.3c-2.2,0.2-6.4-5.5-6.4-8.6c0-2.4,1.3-3.9,3.7-4.1
		C514.6,365.1,516.6,368.5,516.6,373.6z"/>
	<path class="st5" d="M512.6,393.2c-0.2,1.3-0.9,2.2-2.5,2.2c-2,0-6.2-5.5-6.1-8.1c0-1.4,0.6-2.5,2.4-2.3
		C508.5,385.3,512.7,390.7,512.6,393.2z"/>
	<path class="st2" d="M537.1,371.6c-0.2,1.7,0.6,4.7-2.6,4.3c-3.2-0.5-4.2-3.5-4.3-6.6c-0.1-2.7,0.4-5.3,3.5-5.9
		C535.9,363,537.1,366.2,537.1,371.6z"/>
	<path class="st5" d="M530.4,382.8c2.2,2,3.5,4.3,3.7,7.1c0.1,2-1.3,3.6-3.2,3.5c-3.1-0.2-3.4-2.9-3.5-5.4
		C527.3,385.8,528.3,384,530.4,382.8z"/>
</g>
</svg>
