<?xml version="1.0" encoding="utf-8"?>
<!-- Generator: Adobe Illustrator 23.0.1, SVG Export Plug-In . SVG Version: 6.00 Build 0)  -->
<svg version="1.1" id="Layer_4" xmlns="http://www.w3.org/2000/svg" xmlns:xlink="http://www.w3.org/1999/xlink" x="0px" y="0px"
	 viewBox="0 0 1000 1000" style="enable-background:new 0 0 1000 1000;" xml:space="preserve">
<style type="text/css">
	.st0{fill:#FB9A7A;}
	.st1{fill:#6E3720;}
	.st2{fill:#FEFEFE;}
	.st3{fill:#7F7F7F;}
	.st4{fill:#C0FEFE;}
	.st5{fill:#004080;}
	.st6{fill:#00407F;}
</style>
<g>
	<path class="st0" d="M539.1,476.6c-6.1,4.3-13.5,5.9-20.3,8.5c-21.1,8.2-42.4,15.9-63.6,23.8c-1.4-1.1-1.7-2.8-2-4.3
		c-3.4-18.2-12.3-34.2-20.9-50.2c-11.8-22.3-24.8-44-31.5-68.6c-3.5-12.9-5.3-26.2-2.5-39.5c3-14.1,12-24.2,24.3-30.9
		c17.1-9.2,35.5-14.4,55.1-14.8c1.9,0,3.9-0.2,5.7,0.9c2.1,3.1,1.4,6.9,2.2,10.3c2.7,11.4,13,22.9,27.2,21.8c0.8-0.1,1.6,0,2.3,0.7
		c1,1.4,1.3,3,1.5,4.6c0.4,3.2-0.8,5-4.1,5.2c-3.2,0.2-6.5,0.5-9.7,0c-12.9-1.8-26,0-38.9-1.8c-5.6-0.8-6.8-2-5.2-7.5
		c1.2-4.3,3.1-8.2,6.9-10.9c-7.5,5.3-12,12.3-12,21.7c0.5,19.7,7.6,37.4,16.7,54.5c3,5.6,6.3,11,10.2,16c1.6,2,3.3,4,5.4,5.6
		c10,7.8,18.8,6,25-5c5.3-9.2,7.2-19.4,8.5-29.8c1.6-12.8,0.5-25.6-0.1-38.4c-0.1-4.7-1.6-9.3-1.5-14c0.2-1,0.8-1.7,1.5-2.4
		c6.9-6.2,7.6-11.3,2.8-19.6c-1.1-1.9-3.7-3.5-2.1-6.4c5.1-0.7,9.7,0.3,13.8,3.6c0.2,5.3,0.2,10.7-0.5,16c-2.9,7.4-4,15.1-4.5,22.9
		c-2.7,17.5-3.3,35.2-2.9,52.9c0.1,4.4,0.6,8.7,1.5,13c0.4,2.1,1.3,4.4,3.6,4.8c2.6,0.5,3.5-2,4.4-3.8c6.7-14.4,11.5-29.3,14-44.9
		c1.3-8.2,2.4-16.4,3.5-24.6c1.9-5.8-0.8-11.3-1.3-16.9c1.2-2.2,3.1-3,5.5-2.8c6.4,3.6,7.3,10,6.7,16.1c-1.5,16.2-4,32.2-10.1,47.5
		c-3,7.6-6.3,15-10.1,22.2c-2,3.7-2.7,7.2-0.8,11.1c0.7,1.3,0.9,2.8,1.2,4.2c2.7,10.3-0.3,16.7-10,21.4c-6.3,3-12.8,4.2-19.9,2.9
		c-10.7-1.9-21.5-3.7-32.3-4.7c-9.8-1-17.6,3-24.7,10.9c4.8-1,8.8-1.5,12.5-2.8c7.5-2.6,14.9-2.3,22.6-0.9c11.7,2,23.3,4.5,35.3,4.4
		c1.8,0,3.8,0.2,4.9,1.8C535.5,465.3,539.2,470.1,539.1,476.6z"/>
	<path class="st1" d="M483.3,301.9c-22.4-0.6-43.5,4.6-62.5,16.3c-17.9,11-24,27.4-21.8,48.6c2.9,27.5,15.3,51,28,74.6
		c10,18.6,20.5,37.1,26.5,57.6c0.9,3.2,1.2,6.6,1.7,9.9c-2.1,1.3-1.7-0.7-2.2-1.6c-12.3-19-21.4-39.8-33.1-59.1
		c-9.3-15.3-16.9-31.4-22.7-48.3c-3.7-10.9-5.6-22-6.9-33.4c-1.1-9.4-1.1-18.7,1.9-27.4c4.3-12.9,13.9-21.8,25.5-28.6
		c13.5-8,28.2-12.8,43.6-15.2c8.2-1.3,16.7-1.8,25.1-1C486.6,297.2,485.6,299.8,483.3,301.9z"/>
	<path class="st1" d="M539.1,476.6c-1.6-4.9-4.3-9.3-6.7-13.9c-1-1.9-2.5-2.9-5-2.8c-12,0.6-23.7-1.9-35.3-4.2
		c-8.9-1.8-17.1-0.8-25.5,1.5c-3.8,1.1-7.9,1.2-11.9,3.3c2.6-6.9,10.5-12.8,17.7-14.2c10.4-2,20.3,1.5,30.4,2.5
		c8.7,0.9,17.1,4.1,26,0.7c14.7-5.6,17.6-12.3,12.2-25.8c-1.7-4.2-1.5-7.3,0.6-11.1c7.9-14.6,14.1-29.9,17.2-46.2
		c1.5-8,2.8-16.1,3.4-24.3c0.5-5.7-0.8-11.2-5.8-15.1c0.6-3.5,3.4-5.8,5-8.7c8.7,7.3,10.3,16.4,9,27.4c-1.3,11.6-3.4,22.9-6.4,34.1
		c-3,11.4-7.2,22.5-12.9,32.9c-2,3.7-2.3,6.5-0.1,10.3c3.7,6.7,5,14,0.6,21.1c-2.2,3.5-5.1,6.6-8.4,8.7c-4.2,2.6-3.9,6-3.1,9.5
		C541.4,467.3,541.4,472,539.1,476.6z"/>
	<path d="M483.3,301.9c0.7-2.7,1.5-5.4,3.1-7.8c5.7-4.8,11.6-2.8,17.6-0.6c1.3,0.5,2.6,1.1,3.8,1.6c4.1,1.5,7,4.5,9.9,7.6
		c1,1.1,2.6,2.1,2,4.1c1.9,3.1,4.2,5.9,5.5,9.2c3.2,8.5,1.3,13.1-6.7,17.9c-1.2,1.2-2.5,1.1-3.9,0.2c-6.9,2.3-18-1.8-23-8
		C485.9,318.9,483,310.9,483.3,301.9z"/>
	<path d="M561.6,318.3c0.2,4-3,6-5,8.7c-1.6,0.7-3.1,1.5-4.7,2.2c-0.7,1.4-2,2.1-3.3,2.8c-8.7,3.6-11.6,3-15.7-3
		c-0.5-0.9-0.6-1.9-0.6-2.9c0.3-5.5-0.7-11.1,0.9-16.5c-1.7-2.9-0.7-5.5,1-8c0.4-0.8,0.9-1.6,1.2-2.5c1.9-6.1,6.2-8.1,12.5-6.2
		C559.4,296.5,564.6,309.4,561.6,318.3z"/>
	<path class="st1" d="M534.1,301.7c0.6,2.8-1.3,5.3-1,8c-4.5-1.1-8.8-3-13.5-2.9c-3.4-4.5-7.7-8-11.8-11.7
		C516.9,296.1,525.4,299.3,534.1,301.7z"/>
	<path class="st2" d="M520.4,348.6c0.5,9.5,1.8,19.1,1,28.6c-1.1,13.9-2.4,27.8-9.5,40.5c-7.5,13.2-17.7,12.5-28,4
		c-7.2-5.9-11.3-14.4-15.7-22.5c-6.7-12.2-11.7-25.1-14.4-38.7c-1-4.9-2-9.8-1.6-14.8c1.2-1,2.4-1.1,3.7-0.4
		c2.2,2.9,1.6,6.5,2.3,9.8c3.9,20.1,11.2,38.7,22.6,55.7c0.9,1.4,1.9,2.6,2.9,3.9c0.7,0.9,1.5,1.7,2.7,2.9
		c-5.9-13.6-12.1-26.5-15-40.7c-1.7-8.5-2.7-17-3.8-25.6c-0.3-2.1-0.4-4.3,2-5.5c8.9-1.9,17.7,0.5,26.5,0.6
		c5.9,0.1,11.9,0.7,17.9,0.7C516.2,347.1,518.6,346.9,520.4,348.6z"/>
	<path class="st2" d="M553.7,345.8c-1.5,18.9-4.4,37.5-11.1,55.4c-2.2,5.9-4.2,11.8-7.3,17.3c-1,1.8-1.9,3.4-4.3,3.3
		c-2.1-0.1-2.9-1.7-3.9-3.2c-2.5-3.9-2.4-8.4-2.6-12.6c-0.5-11-0.5-22.1,0-33.1c0.4-8.1,1.9-16.2,2.9-24.3
		c5.7-2.1,11.5-3.5,17.5-1.4c2.2,2.6,0.7,5.6,0.6,8.3c-0.4,7.2-1.4,14.4-2.7,21.5c-0.3,1.7-0.4,3.6-1.9,4.8c-3.2-0.9-2-3.7-2.1-5.6
		c-0.1-3.5-0.4-6.8-2.3-9.8c-1.9-3.1-3.9-3-5.8,0.2c-1.5,2.6-1.8,5.6-2,8.5c-0.3,5.4-0.3,10.7-0.1,16.1c0.2,5.6,1.2,6.1,6.2,3.6
		c0.7-0.4,1.5-0.6,2.3-0.3c1.7,4.6-1.1,8.5-2.3,12.5c-0.8,2.4-2.2,4.7-3,7.1c-0.2,0.6,0.8,0.2,0.1,0.2c-0.1,0-0.1-0.2,0-0.5
		c7.2-16.6,12.4-33.8,15-51.8c0.7-5.1,0.6-10.4,2.3-15.4C550.7,345.5,552,344.5,553.7,345.8z"/>
	<path class="st1" d="M456,345.9c-1.3-0.1-2.5-0.1-3.8-0.2c-0.1-11.8,6.3-20.9,17.9-25.1c-0.8,3.2-4.3,3.5-5.9,5.8
		c-1.2,1.7-2.3,3.5-3.2,5.4c-3.6,7.6-3,8.1,5.1,9.3c8.9,1.3,17.8,0.3,26.7,0.9c6,0.3,11.9,1.1,17.9,1c4.2,0,6.4-0.7,4.3-5.4
		c-0.4-1-0.3-2.2-0.4-3.4c1.3-0.1,2.6-0.1,3.9-0.2c0.9,4.9,2,9.7,2,14.7c-11.5,0.7-22.9-0.6-34.4-1.2c-5.8-0.3-11.5-0.8-17.3-0.6
		C464.4,348.3,460.2,347.4,456,345.9z"/>
	<path class="st1" d="M553.7,345.8c-1.5-0.6-2.4,1.2-3.9,1c-1.5,1.1-3.1,1.6-4.9,1c-5.9-1.1-11.6,1.4-17.5,0.8
		c0.5-7.7,0.8-15.5,4.8-22.5c1,0.3,1,1.2,1,2c1.6,3.2,0.4,6.4,0,9.5c-0.3,2.7,0.5,3.7,3.1,3.1c1.6-0.3,3.2-0.2,4.8-0.3
		c7.1-0.3,7.2-0.4,7-7.6c0-0.7,0.2-1.3,0.6-1.8c0.7-1.2,1.9-1.4,3.1-1.9C553.9,334.6,556.2,340,553.7,345.8z"/>
	<path class="st3" d="M501.8,298.9c6.9,1.3,18.4,12.2,19.5,18.1c0.5,3-1.9,3.9-3.9,4.8c-3.2,1.3-6.3-0.3-7.3-3
		C507.8,312.2,506.3,305.2,501.8,298.9z"/>
	<path class="st0" d="M548.8,331.1c3,10.3,2.7,10.7-8.3,10.7c-0.2,0-0.3,0-0.5,0c-2.9-1-6.7,2.6-8.1,0.3c-1.7-2.7,0.4-6.7,0.8-10.1
		c0.2-1.3,0.3-2.5,0.5-3.8C537.2,335.5,543.1,332.8,548.8,331.1z"/>
	<path class="st3" d="M548.2,297.9c8,3.2,13.6,13,7.2,22c-0.8,1.2-1.7,2.5-3.5,2.3c-1.9-0.2-2.1-1.9-2.7-3.1
		c-0.5-0.9-0.7-2.4-0.3-3.3C551.3,310,551.1,304.3,548.2,297.9z"/>
	<path class="st4" d="M456,345.9c4.3-0.8,8.5,0.4,12.7,1c1.3,20.6,5.1,40.6,14.1,59.3c2.2,4.5,4.1,9.1,6.5,14.3
		c-7.3-3.4-10.4-9.7-13.7-15.5c-9.7-16.7-16.5-34.6-19.5-53.9C455.9,349.5,456.1,347.6,456,345.9z"/>
	<path d="M519.5,377.2c-0.1,6.4-1.5,12.5-3.1,18.6c-0.5,2-1.5,4.5-4.3,4.6c-2.8,0.1-4.8-1.4-6.2-3.7c-5.7-9.5-5.1-19.1,0-28.6
		c1.5-2.7,4.1-4.4,7.1-3.7c4,0.9,5.6,4.3,6.4,8C519.8,373.9,519.5,375.6,519.5,377.2z"/>
	<path class="st4" d="M544.9,347.8c1.4-1.3,3.1-1.4,4.9-1c-1.5,24.4-7.1,47.7-18.7,69.4c1.1-7.5,5.4-14.1,5.9-21.8
		c-0.7-4.6-0.1-9,3.2-12.6c2.1-7.7,2.7-15.6,3.7-23.5C544.4,354.8,544.6,351.3,544.9,347.8z"/>
	<path d="M540.2,381.8c-1.1,4.2-2.1,8.4-3.2,12.6c-2.3,1.5-4.3,5-7.2,3.7c-2.9-1.4-2.6-5.1-2.5-8.2c0.2-6.9-0.7-13.8,0.9-20.6
		c0.3-1.1,0.5-2.1,1.1-3.1c1.1-1.8,2.2-4,4.5-3.9c2.2,0.1,3.4,2.1,4.4,4c1.3,2.5,2.1,5.2,2,8.1C539.9,377,540.1,379.4,540.2,381.8z"
		/>
	<path class="st2" d="M517.6,375.5c0,2.1,0.4,4.4-2.8,4.4c-2.7,0-5.8-4.2-6-8.1c-0.1-2.6,1-4.3,3.7-4.6
		C515.5,366.9,517.6,370.3,517.6,375.5z"/>
	<path class="st5" d="M512.7,394c0,1.5-0.2,3.1-2.1,3.2c-1.4,0.1-6.4-6.3-6.4-8.2c0-1.6,1-2.3,2.5-2.2
		C509.5,386.9,512.7,390.8,512.7,394z"/>
	<path class="st2" d="M538,373.8c-0.1,1.3,0.7,4.4-2.5,3.9c-3.2-0.4-4.2-3.5-4.3-6.5c-0.1-2.5,0.6-6,2.8-5.7
		C537.6,366.1,538.3,369.8,538,373.8z"/>
	<path class="st6" d="M531.4,384.9c2.3,1.3,3.1,3.9,3.7,6.2c0.6,2.2-0.9,4.1-3,4.2c-3,0.2-3.3-2.5-3.7-4.7
		C528,388.2,528.5,386,531.4,384.9z"/>
</g>
</svg>
