<?xml version="1.0" encoding="utf-8"?>
<!-- Generator: Adobe Illustrator 23.0.1, SVG Export Plug-In . SVG Version: 6.00 Build 0)  -->
<svg version="1.1" id="Layer_4" xmlns="http://www.w3.org/2000/svg" xmlns:xlink="http://www.w3.org/1999/xlink" x="0px" y="0px"
	 viewBox="0 0 1000 1000" style="enable-background:new 0 0 1000 1000;" xml:space="preserve">
<style type="text/css">
	.st0{fill:#FB9A7A;}
	.st1{fill:#6E3720;}
	.st2{fill:#FEFEFE;}
	.st3{fill:#7F7F7F;}
	.st4{fill:#C0FEFE;}
	.st5{fill:#00407F;}
</style>
<g>
	<path class="st0" d="M539.1,476.6c-6.9,4.5-14.9,6.5-22.4,9.5c-20,8.2-40.2,15.7-60.3,23.5c-0.4,0.2-1,0-1.4,0
		c-6.2-25.4-20.6-46.8-33.3-69.1c-10.7-18.8-20.6-38.1-25.7-59.3c-2.1-8.7-3.3-17.4-1.8-26.5c2.2-13.5,9.2-23.5,20.8-30.3
		c16.5-9.6,34.5-15,53.4-17.3c5.2-0.6,10.3-1,15.6-0.8c1.8,0,3.6-0.2,5.2,1c0.7,1.1-0.1,1.8-0.8,2.4c-6.3,6.2-7.4,13-2.8,20.4
		c6.1,9.8,14.2,16.8,26.7,16.3c1.7-0.1,3.6-0.1,5,1.4c2.6,8.7,3,17.5,2.5,26.5c-0.2,3.5-2.9,3.9-5.7,4c-8,0.3-15.9-0.8-23.8-1.2
		c-8.7-0.4-17.5-1.4-26.2-2.6c-3.1-0.4-5.2-1.6-6.1-4.7c-2.7-9.1-4.5-18.3-2.1-27.8c1.3-5.2,3.4-9.8,6.9-11.8
		c-8.6,5.5-11.1,15.1-9.8,26.1c0.7,6.6,2.8,13,4.2,19.5c5.2,17.3,14.2,32.5,25.8,46.3c3.3,5.6,8.8,3.9,13.7,4.4
		c2.2,0.2,4.7-1.9,6.6,1c0.4,0.6,1.3-0.5,1.9-0.9c1.7-1,3-2.5,4.3-4c6.7-8.3,8.6-18.4,10.6-28.5c0.8-4.3,1.4-8.7,1-13.1
		c0.3-11.1-0.8-22.1-1.7-33.1c0.2-2.5,2.2-3.4,3.8-4.7c5.2-4,5.8-7.2,2.7-13.1c-4.3-8.1-11.2-13.3-19.2-17.4
		c-3.1-1.5-3.1-1.5-3.3-3.9c0.9-0.5,1.8-0.7,2.8-0.6c9.7,1,19.1,3.1,28.3,6.4c1.2,0.4,2.2,1.3,2.9,2.5c0.3,5.3-0.8,10.4-2.6,15.3
		c-2.8,4-3.2,8.7-4,13.3c-2.2,11.9-2.4,24-3.4,36.1c-1.2,12.5-0.8,24.9,1.4,37.3c0.6,1.3,0.5,3.4,2.8,3.4c2.6,0,4.1-1.5,5.1-3.7
		c7.3-13.3,11-27.8,14.3-42.4c2.9-10.8,3.2-22,4.9-33c2.7-2.3,4.8-5.6,9.1-5.2c2,3.6,2.2,7.5,1.6,11.4
		c-3.5,23.7-10.2,46.3-21.8,67.4c-1.4,2.5-1.8,4.8-0.5,7.4c0.5,1,0.9,2.1,1.2,3.2c4.2,12.8-2.9,23.9-16.3,25.9
		c-6.2,0.9-12.2,1-18.4-0.3c-9.2-1.9-18.6-3.4-28-4.1c-10.2-0.8-19.4,1.7-26.4,10.7c4.7-1,9-2.1,13.2-3.1c7.6-1.8,15-1.7,22.7-0.5
		c12,2,24.1,3.9,36.3,3.3c1.3-0.1,2.8,0,3.6,1.1C535.5,465.4,539.2,470.2,539.1,476.6z"/>
	<path class="st1" d="M537,317.5c-10.8-5.1-22.2-7.2-34-7.9c-5,2-9.3-0.2-13.7-2c-25.3-0.9-49.1,4.8-71.4,16.7
		c-12.8,6.8-20.6,17.1-22.4,32c-1.6,13,1.4,25.2,5.5,37.1c8.4,24.6,22,46.6,35.1,68.8c6.4,10.9,12.1,22.3,16.7,34.2
		c1.6,4.2,2.6,8.6,2.3,13.2c-4.3-3.1-6.3-8-8.5-12.3c-7.5-14.4-17.2-27.3-25.2-41.3c-11.1-19.4-21.9-38.9-29.3-60
		c-2.7-7.8-3.4-16.1-4.5-24.3c-1.1-8.4-1.1-16.7,0.6-24.9c2.1-10.1,9.3-17,16.6-23.4c15.8-13.6,35.4-18.3,55.3-21.7
		c15.8-2.7,31.6-2.6,47.4-0.2c9.6,1.4,19.1,2.7,28.2,6c1.9,0.7,3.9,1.3,5.3,2.9C541,313.6,539.6,315.9,537,317.5z"/>
	<path class="st1" d="M539.1,476.6c-1.5-4.8-4.2-9-6.4-13.5c-1-2-2.3-2.8-5.1-2.4c-6.9,1-13.8-0.5-20.7-1.3
		c-8.6-1-17.1-3.1-25.7-3.2c-8.9-0.1-17.6,2.9-26.2,5.2c-0.4,0.1-0.9,0.1-1.4,0.1c5.1-11.2,20.3-15.5,31.4-13.8
		c11.2,1.7,22.4,4,33.7,5c7.3,0.6,15.1-0.2,21.2-5.9c7.3-6.7,7.5-12.1,2.8-22.6c-1.2-2.6-1.3-4.5,0.1-7
		c8.9-15.3,14.7-31.9,18.7-49.2c1.5-6.4,2.7-12.8,3.9-19.3c0.7-3.7-0.8-7.3-0.9-11c-0.1-3.9,1.1-7.5,3-10.9c6.1,5.6,7.1,13,6.6,20.6
		c-0.4,6.3-1.9,12.6-2.8,18.8c-1.5,10.5-5.3,20.4-8.9,30.4c-2.7,7.6-6.5,14.7-10.2,21.9c-1.1,2.1-1,3.5,0.1,5.5
		c3.1,5.6,5.5,11.2,3.4,18.1c-1.3,4.3-4.1,7.2-7.2,9.3c-6.1,4.1-10.9,8.1-7.8,16.5C541.9,470.8,540.6,473.9,539.1,476.6z"/>
	<path d="M567.5,327.1c0.2,4-1.2,7.5-3,10.9c-2.7,1.4-4.2,4.7-7.7,5c-1.2,1.6-2.8,2.4-4.6,2.8c-2,0.5-4.1,0.9-6.2,1.2
		c-7.1,0.7-11.1-2.1-13.1-9.1c-0.2-2,0.3-3.9,1.1-5.8c1-4.8,2-9.6,2.9-14.5c1.4-2.3,2.7-4.7,4.1-7c8.4-5.6,21.6,1.8,25.3,12
		C566.9,324,567.1,325.5,567.5,327.1z"/>
	<path class="st2" d="M522.4,381.8c-0.3,13.6-2.8,26.6-9.5,38.6c-0.8,1.5-1.7,2.7-3.2,3.5c-6.6,2.2-13.3,3.5-20.1,0.8
		c-5.1-6.3-7.3-14-10.5-21.2c-2.8-6.2-5-12.6-7-19.2c-0.5-1.7-1.8-3.7,0.4-5.3c10-0.6,20-0.3,29.9,1.9c2.7,2,1.8,5,1.9,7.6
		c0.1,4.4,1.2,8.3,4.5,11.3c2.9,2.6,5,2.4,7-1c1.8-3,2.2-6.4,2.6-9.8c0.3-2.5,0.5-5.2,1.9-7.5C521,381.3,521.7,381.2,522.4,381.8z"
		/>
	<path d="M489.2,307.6c4.8-0.7,9.1,2.1,13.7,2c5.9,2.6,11.4,5.8,16.3,10c4.9,4.1,8.2,9.3,9.9,15.4c1.2,4.5-2.3,7.3-5.6,9.7
		c-1,0.7-2.1,1.3-3.2,1.9c-1,1.2-2.3,1.3-3.8,1.1c-13.4,1.3-23.6-3.7-31-14.9c-3.6-5.5-5.1-11.3-3.3-18
		C483.4,310.9,486.7,309.8,489.2,307.6z"/>
	<path class="st1" d="M516.6,347.7c0.9-1.6,2.5-0.8,3.8-1.1c1.8,11.7,2.5,23.4,2,35.2c-0.6,0-1.2,0-1.8,0.1c-0.7,0.5-1.4,1-2.3,1.1
		c-2,0.2-4,0.1-6,0.3c-3.2-0.2-6.5,0.7-9.4-1.4c-10.4-0.7-20.8-1.4-31.1-2.1c-3.4,1-6.6-0.5-9.9-0.7c-2-0.4-4.1-0.7-5.7-2.2
		c-2.1-8.5-5.1-16.9-4.9-25.8c0.3-12.7,5.3-20.5,17.9-25.2c-1.8,1.9-2.7,3.4-4,4.2c-9.4,6.3-9.4,15.9-8.8,25.4
		c0.3,5,1.1,10.2,3.3,14.9c0.6,1.3,0.8,2.4,2.8,2.6c12.8,1,25.5,2.9,38.5,3c4.8,0.1,9.6,0.8,14.4,0.9c2.6,0.1,3.3-0.9,3.3-3.4
		C518.7,364.9,517.5,356.3,516.6,347.7z"/>
	<path class="st1" d="M552.7,344.8c1-1.4,2.8-1.1,4-1.9c-0.4,11-1.9,21.9-4.1,32.7c-0.1,0.6-0.6,1-1,1.5c-1,1-2.2,1.7-3.6,1.9
		c-1.3,0.3-2.6,0.7-3.9,1c-1.1,0.2-2.2,0.6-3.3,1c-4,2.1-8.4,1.3-12.7,1.8c-0.8-0.2-1.4-0.5-1.8-1.2c0.2-15.1,1.2-30.2,4.8-44.9
		c0.5-1.9,1.1-3.7,2.8-4.8c0,2,0,4.1,0,6.1c0.5,10.2-1.5,20.3-2.1,30.4c-0.4,5.6,0.3,6.4,5.8,5.5c10.9-1.9,10.9-1.9,12.3-13
		C550.8,355.5,549.9,349.8,552.7,344.8z"/>
	<path class="st2" d="M456.1,376.9c2.1-0.5,3.9,0.7,5.8,1.1c1.4,1,2,2.5,2.5,4c4.9,14.1,12.5,26.6,22,38c0.9,1.1,2.7,2.1,1.7,4.1
		c-2.2,1.3-3.8-0.5-5.6-1.2c-4.7-4-8.2-9.1-11.2-14.2C465.2,398.7,459.2,388.5,456.1,376.9z"/>
	<path class="st2" d="M526.4,381.7c0.6,0.1,1.2,0.1,1.9,0.2c1.9,2,1.2,4.6,1.3,6.9c0.1,1.4,0,2.9,0.1,4.4c0.7,6.7,1.9,7.3,7.7,4.1
		c0.2-0.1,0.6,0,0.9,0.1c1.2,1.6,0.8,3.4,0.2,5.1c-2.1,5.9-3.4,12-5.7,17.9c-1.3,1.6-2.8,1.7-4.5,0.6c-3.7-4.6-1.9-10.3-2.7-15.4
		c-1.1-7.1-0.3-14.6-0.3-21.9C525.4,382.9,525.6,382.1,526.4,381.7z"/>
	<path class="st2" d="M547.9,378.1c1.4,0.2,2.3-1.6,3.8-1c0.5,4.8-1.7,9.2-3,13.6c-3,10.1-5.4,20.5-11.7,29.4
		c-1.2,0.6-2.5,1.1-3.8,0.2c-0.7-3.9,1.7-7.1,2.9-10.4c3.5-9.6,7.7-18.9,10.1-28.9C546.5,379.9,547,378.9,547.9,378.1z"/>
	<path class="st1" d="M482.5,423c2-0.8,3.7,1.5,5.8,0.7c0.3-0.3,0.7-0.3,1,0c4.5,1.7,9.1,1.6,13.7,0.6c2.3-0.5,4.5-0.3,6.7-0.3
		c-1.1,1.8-2.5,3.5-4.5,4c-0.8,0.2-3.1,3.7-2.9-0.8c0-0.1-0.9-0.5-1.2-0.3c-3.1,1.3-6.7-0.5-9.1,0.3
		C486.9,428.7,485,425.9,482.5,423z"/>
	<path class="st1" d="M533.2,419.8c1.3,0.1,2.6,0.2,3.8,0.3c-0.4,3.8-4.1,2.9-6.2,4.1c-1,0.6-2.6-1.3-2.5-3.1c1.3-0.6,3,0.7,3.9-1
		C532.5,419.5,532.8,419.4,533.2,419.8z"/>
	<path class="st0" d="M552.7,344.8c-0.7,8-1.2,16-2.1,23.9c-0.2,2.3-1,4.2-4.2,4.7c-4.2,0.7-8.3,1.9-12.6,2.6
		c-2.6,0.4-4-0.6-3.6-3.4c1.1-9,0.8-18.2,2.7-27.2c0.5-2.5-0.9-5.2,1.1-7.4c2.5,6.8,6.8,9.2,13.5,7.3
		C549.4,344.7,551,344.9,552.7,344.8z"/>
	<path class="st3" d="M552.9,313.7c10.1,5.9,11.6,13.5,7.4,18.9c-1.2,1.5-2.5,4.2-5,3c-2.6-1.3-3-4.1-2.4-6.8
		C554.2,322.3,554.3,319.1,552.9,313.7z"/>
	<path class="st4" d="M489.3,423.7c-0.3,0-0.7,0-1,0c-12.3-13.1-21.1-28.3-26.4-45.6c3.4-0.1,6.7,0.6,9.8,1.7
		C476.5,394.9,482.8,409.3,489.3,423.7z"/>
	<path d="M518.5,381.9c0.7,0,1.4,0,2,0c-0.9,6.2-0.7,12.6-3.9,18.3c-2.3,4-4.8,4.2-8.4,1.2c-6.5-5.3-5.1-12.6-5.4-19.5
		c3.3,0,6.6,0,9.9,0C514.7,382.8,516.6,383.3,518.5,381.9z"/>
	<path class="st3" d="M501.8,314.4c8.8,2.1,14.5,7.4,19.5,13.5c1,1.3,3.7,3.7,0.9,5.7c-2.2,1.6-4.7,3.3-7.9,1.6
		c-1.5-0.8-3.1-1.6-3.5-3.1C509.3,325.7,505.6,320.4,501.8,314.4z"/>
	<path class="st2" d="M518.5,381.9c-1.9,3.7-3.8,1.5-5.8,0C514.7,381.9,516.6,381.9,518.5,381.9z"/>
	<path d="M538,397.4c-1.7,1.7-2.4,4.8-5.7,3.9c-2.9-0.7-2.7-3.4-3.4-5.6c-1.4-4.6-0.1-9.2-0.7-13.8c4.2-0.9,8.7-0.1,12.8-1.9
		c1.9,2.2,1.2,4.7,1,7.2C540.9,390.7,541.4,394.8,538,397.4z"/>
	<path class="st4" d="M538,397.4c1-3.2,1.9-6.5,2.9-9.7c1.7-2.6,0-6.4,3-8.6c1.4,0.2,2.4-1.6,3.9-1c-1.2,10.5-5.8,20-9.6,29.7
		c-1.6,4-3.4,8-5,12c-0.3,0.1-0.6,0.2-0.9,0.2c0.7-5.4,2.7-10.5,4.3-15.6C537.3,402.1,538.4,399.9,538,397.4z"/>
	<path class="st2" d="M543.9,379.1c-1.1,2.8-0.8,6.2-3,8.6c0-2.6,0.1-5.1,0.1-7.7C542,379.6,542.7,378.5,543.9,379.1z"/>
	<path class="st5" d="M507,389.7c3.2-0.2,7.6,6.2,6.4,9c-0.5,1.2-1.4,1.8-2.7,1.6c-2-0.3-6.1-6.3-5.8-8.4
		C505.2,390.5,506,389.9,507,389.7z"/>
	<path class="st5" d="M536.1,394.5c0,1.8-0.1,4.1-2.5,3.7c-2.9-0.4-3.2-3.1-3.3-5.6c-0.1-1.8,0-3.7,2.5-3.8
		C534.6,388.7,536.1,391.4,536.1,394.5z"/>
</g>
</svg>
