<?xml version="1.0" encoding="utf-8"?>
<!-- Generator: Adobe Illustrator 23.0.1, SVG Export Plug-In . SVG Version: 6.00 Build 0)  -->
<svg version="1.1" id="Layer_4" xmlns="http://www.w3.org/2000/svg" xmlns:xlink="http://www.w3.org/1999/xlink" x="0px" y="0px"
	 viewBox="0 0 1000 1000" style="enable-background:new 0 0 1000 1000;" xml:space="preserve">
<style type="text/css">
	.st0{fill:#FB9A7A;}
	.st1{fill:#6E3720;}
	.st2{fill:#FEFEFE;}
	.st3{fill:#808080;}
	.st4{fill:#7F7F7F;}
	.st5{fill:#C0FEFE;}
</style>
<g>
	<path class="st0" d="M539.1,476.6c-6.1,4.3-13.5,5.9-20.3,8.5c-21.1,8.2-42.4,15.9-63.6,23.8c-1.3-0.9-1.9-2.2-2.3-3.6
		c-4.4-15.9-13.2-29.7-21.8-43.5c-9.2-14.8-19.2-29-26.5-44.9c-6.7-14.7-12.6-29.6-14.1-45.9c-0.6-6.5-0.1-12.8,2.8-18.6
		c5.7-11.2,14-20.4,25.5-25.3c20-8.6,41-14.4,63-13.7c17.2,0.6,34.4,2.1,51.1,7.1c5.1,1.5,10.4,2.8,14.2,7c-1,3.9-5.4,4.1-7.6,6.6
		c-4.4,3.5-4.9,8.7-6.3,13.6c-0.7,2.3,0.7,5.7-2.9,6.9c-2-2.5-1.6-5.8-3.3-8.5c-5.2-8.3-13.1-12.9-22.1-15.7
		c-3.9-1.2-7.9-1.8-11.9-2.4c-8.2-1.3-14.2,5.3-11.4,13.2c3.4,9.7,10.9,15.5,20.4,18.6c4.2,1.4,8.5,1.9,13,0.9
		c1.7-0.4,3.6-0.6,5,0.9c1.3,3.2,1.6,6.6,1.8,10c0.4,10.1-0.7,20.1-2.1,30.1c-0.6,3.8-2.3,5.8-6.5,5.2c-14-2.1-28.1-2.8-41.8-6.6
		c-3.7-1-6.3-3-8-6.5c-5.2-10.8-9.2-21.9-10.4-33.8c-0.8-7.8,1.4-14.9,6-20.4c-7.1,6.2-8.5,15.2-6.7,25.3c2.3,13,7.7,24.8,13.4,36.5
		c3.1,6.3,7.3,11.9,11.7,17.4c2.4,3.2,5,6.3,8.1,8.6c-0.5-1.3-2.9-3.9,1.1-3.6c6.3,0.5,13,0,18.6,2.4c4.5,2,5.7-0.2,7.6-2.9
		c2.9-4,4.5-8.6,5.9-13.2c3.6-14.5,5.3-29.1,3.7-44.1c-0.2-1.6-0.4-3.2,0-4.8c1.3-3.1,4.4-4.3,6.8-6.3c0.7-0.6,1.4,0.1,1.9,0.8
		c1.2,5.7-0.6,11.2-1.2,16.8c-1.4,12.4-0.6,24.8-1.1,37.2c-0.2,3.5,0.9,6.8,0.9,10.2c0,1.6,0.2,3.2,1.4,4.4
		c3.4-2.5,9.4-1.5,10.2-7.5c2.3-4.7,4.4-9.5,6.3-14.4c4.6-13.1,7.7-26.5,9.4-40.2c0.1-1.1,0.3-2.3,0.8-3.3c2.7-2.8,5.9-4.4,9.8-4
		c1.1,1.6,0.7,3.4,0.5,5.2c-3.5,21.6-10.3,41.9-21.2,60.9c-1.4,2.5-1.7,4.7-0.4,7.3c5.5,11,5.2,16.6-9.3,24.5
		c-6.6,3.6-13.8,4.7-21.3,3.4c-10.4-1.9-20.8-3.6-31.3-4.9c-8.9-1.1-17.1,0.5-24.7,5.3c-1.6,1-3.2,2.1-4.2,4.4
		c6.8-1.3,13.3-2.4,19.8-3.3c10-1.4,19.7,0.5,29.6,1.6c8.2,0.9,16.3,2.8,24.7,2.5c1.3-0.1,2.8,0,3.6,1.1
		C536.1,466.9,539.7,470.9,539.1,476.6z"/>
	<path class="st1" d="M539.1,476.6c-1.3-4.5-4-8.4-5.9-12.6c-0.4-0.9-0.8-1.5-2.1-1.4c-15,0.9-29.6-3.7-44.5-4.4
		c-10.8-0.5-21.4,1.7-31.8,4.5c-0.6,0.2-1.2,0.2-2,0.3c2.7-6.1,11-11.7,17.4-12.8c13.9-2.3,27.1,1.1,40.5,3.6
		c11.4,2.1,21.9,1.6,31.4-6c6.8-5.4,8.4-8.7,4.1-16.7c-2.9-5.4-1.6-8.7,1.1-13.6c8.6-15.5,14.4-32.1,18-49.5
		c0.9-4.4,2.4-8.7,1.9-13.3c1.4-2.8,4.6-4.6,4.6-8.3c-0.1-6.1-3.1-10.6-8.1-13.6c-4.3-2.6-9.1-4.3-14.3-4c-1,0-2,0.2-2.7-0.7
		c-7.9-5.7-17.2-7.9-26.4-9.4c-13.8-2.2-27.7-4.3-41.7-4.1c-18,0.3-35.1,4.9-52,10.6c-11.1,3.7-19.5,10.5-26.9,19.5
		c-8.3,10-9.1,21-6.8,33.1c4.8,25.8,16.7,48.3,30.8,69.9c10.5,16.1,20.9,32.4,28.3,50.2c1.5,3.5,2.2,7.3,3.2,11
		c-2.1,0.8-2.3-1.1-3.1-2.2c-12.9-16.9-23.1-35.6-35.2-52.9c-12.2-17.5-21.8-36.3-29.5-56.1c-2-5.1-2.7-10.5-3.4-15.7
		c-1.2-9.5-2.2-19.1,0.7-28.6c2.6-8.4,7.5-14.6,14-20.5c16.5-15,37.2-18.9,57.8-23.3c12.9-2.8,26.1-2.5,39.1-1.7
		c18.1,1,36.1,3.4,52.9,10.7c11,4.8,21.8,10.4,27.5,22.3c3.2,6.8,2.2,13.5,1.1,20.1c-2.7,17.2-8.5,33.6-16.1,49.3
		c-1.8,3.8-4,7.5-6.4,11c-1.2,1.7-1.4,2.8-0.3,4.4c8.8,13.4,6.8,20.5-5.1,28.4c-5.9,3.9-5.7,9.7-7,15.2
		C541.4,471.9,541,474.5,539.1,476.6z"/>
	<path d="M530.3,354.4c-1.8,2.6-4,4.7-7,5.8c-1,1.2-2.3,1.3-3.8,1.1c-6.8,1.2-13.7,1.8-20.1-1.1c-8.7-4-16.2-9.5-19.3-19.2
		c-2.4-7.6,3.3-16.1,12-14.8c10.3,1.5,20.6,3.9,28.8,10.9C526.3,341.6,531,346.7,530.3,354.4L530.3,354.4z"/>
	<path d="M546.8,328c7.3-2.5,21.5,3.1,25,11.7c2.7,6.4,1.5,11.5-4.5,14.9c-2.4,2.3-5.9,2.1-8.6,3.9c-1.1,0.9-2.2,1.6-3.6,1.9
		c-0.3,0.1-0.6,0.2-0.9,0.3c-14.1,3.3-20.5-2.8-17.9-17.1c0.3-1.8,0.3-3.5,0.6-5.3c0.3-2,1.3-3.7,2.4-5.4
		C541.3,330.6,544.2,329.6,546.8,328z"/>
	<path class="st1" d="M519.5,361.4c0.9-1.6,2.5-0.8,3.8-1.1c0.9,6.9,1.8,13.8,1,20.7c-1.2,10.1-0.6,20.5-4.9,30.1
		c-1.2,1.1-2.6,1.2-4.1,1c-11.9-1.5-23.9-2.5-35.7-5.2c-3.4-0.5-6.6-1.5-10-2.3c-1.8-0.3-3.3-1.3-4.8-2.3
		c-6.7-12.7-12.4-25.7-14.5-40c-1.7-11.5,1.3-21.4,13.5-27.6c-1.6,2.1-2.7,3.6-3.9,5.1c-8.1,9.7-6.2,20.7-3.7,31.6
		c1.9,8,5.3,15.4,8.8,22.8c1.1,2.3,2.6,3.6,4.9,4.2c14.8,3.8,29.9,5.3,45.1,7c1.7,0.2,2.3,0.3,2.6-1.8c2-12.1,4-24.1,2-36.4
		C519.4,365.3,519.6,363.3,519.5,361.4z"/>
	<path class="st1" d="M555.7,359.4c0.7-1.4,1.9-0.9,3-0.9c-1.3,15.4-5,30.2-9.9,44.8c-1.6,1.3-3.2,2.7-5.3,3.2
		c-1.6,0.5-3,1.3-4.6,1.9c-3.8,0.7-7.3,3.3-11.5,1.7c-0.2-13.2-0.4-26.4,0.9-39.6c0.6-5.4,1.3-10.8,2-16.1c0,0-0.1,0.1-0.1,0.1
		c2.1-4.8,1.8-10.2,3.8-15c1.2-2.8,2.4-5.2,5.2-6.5c0.3,1.5,0,2.9-1.3,3.9c-4.1,20.1-5.6,40.3-5.4,60.8c0,3.6,1.2,4.4,4.8,3.6
		c6-1.4,9.7-4.7,11-10.8c1.8-8.1,3.7-16.1,4.9-24.3C553.6,363.8,553.9,361.3,555.7,359.4z"/>
	<path class="st2" d="M479.5,405.4c7,1.2,13.9,2.7,21,3.7c6.3,0.9,12.7,1.4,19,2c-1.3,4.5-2.9,8.9-5.9,12.7
		c-9.2,0.5-18.4,0.2-27.3-2.6c-3.2-3.9-4.9-8.6-7.1-13.1C478.8,407.3,478.7,406.3,479.5,405.4z"/>
	<path class="st1" d="M486.3,420c3.7,1.6,7.5,1.7,11.4,1.9c5.3,0.3,10.7,0.4,15.9,1.9c-1.7,3.3-4.9,4.9-8.3,6.5c0.7-1,1.4-2,2.3-3.4
		c-7.7-0.9-15.1-1.8-22.7-2.7c1,1.7,2,3.3,3.4,5.8c-5.3-3-9.1-6.2-11.7-10.9c0.7-1,1.8-1.1,2.9-1.1
		C481.8,418.4,484.3,418.4,486.3,420z"/>
	<path class="st2" d="M527.4,410.1c3.9-0.9,7.7-1.8,11.6-2.8c0.3,5.1-2.2,9.1-4.8,13c-1.9,1-3.7,2-5.8,0.5
		C528.1,417.3,527.7,413.7,527.4,410.1z"/>
	<path class="st2" d="M479.5,418.8c-1,0.1-1.9,0.2-2.9,0.3c-4.7-5-8.4-10.8-11.7-16.7c1.8-0.5,3.2,1,4.8,1.1
		C474.1,407.9,478.2,412.4,479.5,418.8z"/>
	<path class="st2" d="M543,405.4c1.9-0.7,3.9-1.4,5.8-2.1c-2.6,4.4-3.6,9.7-6.8,13.8c-1.2,1-2.4,2-4,1
		C537.5,413,540.1,409.2,543,405.4z"/>
	<path class="st1" d="M538.2,418c1.4,0.4,2.3-1.6,3.8-0.9c0.1,2.7-2.3,4.1-3.2,6.3c-0.3,0.6-0.6,0.9-1.7,0.4
		c-3.5-1.5-3.6-1.3-5.3,2.5c-2.1-1.2-3.2-3.1-3.4-5.4c1.9-0.4,3.9-0.8,5.8-1.1C535.2,418.4,536.4,417.7,538.2,418z"/>
	<path class="st3" d="M502.1,332.1c8.3,2,14.9,6,20.6,11.4c1.6,1.5,3.2,3.3,2.5,5.4c-0.7,2.3-3.5,2.3-5.4,2.5
		c-4.1,0.4-8.2-0.2-9.1-5.5C509.9,340.3,504.9,337.2,502.1,332.1z"/>
	<path class="st0" d="M555.7,359.4c-1.8,12-3.5,24-7.4,35.5c-1.2,3.6-3.2,5.3-6.4,6.3c-3.3,1.1-6.7,2-10.7,3.1
		c0.6-10.1-0.4-19.7,0.7-29.4c0.9-7.8,1-15.7,2.3-23.5c0.8-5,1.1-10.1,3.8-14.6c0.8,4.1-0.7,8-1.1,11.9c-0.8,9.1,5.9,13.2,14.5,11.1
		C552.9,359.6,554.2,359.5,555.7,359.4z"/>
	<path class="st4" d="M555.8,332.1c3.6,1,5.4,2.3,7.4,3.7c7.1,4.9,6.9,10.8-0.7,14.8c-1.5,0.8-2.8,1.5-4.4,0c-1.3-1.3-2.1-3-1.1-4.3
		C560.3,341.6,559.9,337.2,555.8,332.1z"/>
	<path class="st5" d="M479.5,418.8c-3.2-5.1-6.5-10.2-9.7-15.3c3.3,0.7,6.5,1.3,9.8,2c2.3,4.9,4.5,9.7,6.8,14.6
		C484,419.6,481.5,420.6,479.5,418.8z"/>
	<path class="st5" d="M538.2,418c-0.9,1.5-2.8,0.7-4,1.7c1.6-4.1,3.2-8.2,4.9-12.4c1.3-0.7,2.6-1.3,3.9-2
		C541.4,409.6,539.8,413.8,538.2,418z"/>
</g>
</svg>
