<?xml version="1.0" encoding="utf-8"?>
<!-- Generator: Adobe Illustrator 23.0.1, SVG Export Plug-In . SVG Version: 6.00 Build 0)  -->
<svg version="1.1" id="Layer_4" xmlns="http://www.w3.org/2000/svg" xmlns:xlink="http://www.w3.org/1999/xlink" x="0px" y="0px"
	 viewBox="0 0 1000 1000" style="enable-background:new 0 0 1000 1000;" xml:space="preserve">
<style type="text/css">
	.st0{fill:#FB9A7A;}
	.st1{fill:#6E3720;}
	.st2{fill:#7F7F7F;}
</style>
<g>
	<path class="st0" d="M539.1,476.6c-6.1,4.3-13.5,5.9-20.3,8.5c-21.1,8.2-42.4,15.9-63.6,23.8c-1.1-0.8-1.8-1.8-2.2-3.1
		c-4.1-14.6-12.6-27-20.5-39.6c-12.5-20.1-25.8-39.9-34.4-62.2c-4.3-11.1-7.6-22.4-8.6-34.4c-0.5-5.6,0.4-11.1,2.8-16.1
		c4.8-10.2,12.4-17.8,22.6-22.6c21.8-10.3,45.1-14.9,69-14.5c19,0.4,37.9,2.5,56.1,8.7c3.7,1.3,7.3,2.8,10.7,4.7
		c1.4,0.8,3.1,1.3,3.1,3.4c-0.5,0.6-1.3,1-2,1.2c-9.8,3.6-15.4,15.3-12,25.1c1.1,3.2,3.6,4.2,6.8,4.6c2.8,0.3,5.8-1.1,8.5,0.6
		c1.4,6.9-0.5,13.5-1.8,20.1c-1.3,6.7-3.8,13.1-6.2,19.5c-2.3,6-7.8,8-13.3,9.5c-3.2,0.9-3.8-1.8-3.8-4.2c-0.2-6.3-0.5-12.7,0.1-19
		c1.4-16.3,3.1-32.5,5.8-48.5c-1.4,4.1-1.2,8.8-2.9,13c-0.5,0.8-1.4,1.2-2,0.4c-4-5.6-9.8-9.5-13.8-15c-0.3-0.5,0-4.1-2.6-1.1
		c-0.7,0.8-2.4-0.5-3.5-1.1c-5.9-3.2-12.3-4.1-18.8-4.6c-4.5-0.3-8.9,0.7-11.2,5.3c-2.3,4.8-1.1,9.4,2.2,13.1
		c8.6,10.1,19.2,15.8,33,13.6c1.6-0.3,3.2-0.6,4.6,0.7c3.1,9.8,1.9,19.6,0.6,29.4c-0.7,4.8-1.4,9.7-2.8,14.3
		c-1.1,3.6-3.3,5.6-7.1,5.4c-12.9-0.7-25.5-3-37.7-7.1c-3.6-1.2-6.1-3.8-7.6-7.1c-6-12.9-11.4-25.9-13.2-40.1
		c-0.7-5.5,0-10.9,2.1-15.7c-6.7,9.7-4.7,20.1-1.1,30.5c6,17.5,14.6,33.7,26.1,47.3c-0.9-1.8-3.2-3.5-4.3-6c-1-2.4-0.5-3.8,2.4-3.5
		c0.6,0.1,1.3,0.2,1.9,0.3c9.3,2.6,18.7,3.9,28.3,5c5.5,0.6,6.1,1.9,4.1,6.9c8.8-17.5,13.4-35.8,10.3-55.5c-0.3-1.6-0.7-3.2-0.1-4.8
		c2.8-1.9,4.6-5.6,8.8-4.8c1,2.8-0.2,5.4-0.5,8.1c-1.8,16.1-3.8,32.2-1.6,48.5c0.3,2.1,0.7,4.1,1.6,6.2c0.6-4.4,2.8-6.4,7.4-7.4
		c2.1-0.4,3.1,0.2,3.3,2.4c5.4-10.8,9.2-22.2,12.6-33.6c2-6.7,1.8-13.8,3.6-20.6c2.7-2.7,5.9-3.6,9.6-2.9c1.3,1.7,1,3.7,0.7,5.6
		c-3,19.4-9.5,37.4-20.4,53.8c-1.9,2.9-2.2,5.5-0.8,8.6c5.7,12.4,3.2,20.3-13.5,25.5c-6.8,2.1-13.5,1.1-20.3,0.2
		c-10-1.3-20-2.4-30-3.4c-7.9-0.8-15.5,1-22.5,4.9c-2.1,1.2-3.9,2.7-5.5,4.8c2.3,0.2,3.9-0.7,5.6-1.2c10.6-3,21.2-4,32.2-2.2
		c12.5,2,25,4,37.7,4.1c1.2,0,2.5,0.1,3.1,1.1C536.3,467.5,539.9,471.2,539.1,476.6z"/>
	<path class="st1" d="M539.1,476.6c-1.2-4.2-3.7-7.8-5.5-11.7c-0.4-0.8-0.5-1.8-1.9-1.7c-13.9,1-27.3-2.1-40.9-4.1
		c-10-1.5-19.7-0.2-29.4,2.7c-2.7,0.8-5.5,1.5-8.9,2.4c0.9-4,3.5-6.3,6.2-7.8c8.9-5,18.2-7.4,28.6-5.3c6.6,1.3,13.4,1.6,20.1,2.1
		c4.6,0.3,9.2,1.5,13.8,1.7c9.4,0.6,18.3-1.3,25.1-8.5c4.6-4.9,2.4-10.7-0.1-15.2c-3.1-5.6-0.9-8.9,2-13.2
		c6.5-9.6,10.7-20.4,14.2-31.5c2.6-8.1,4.6-16.3,4.8-24.9c0.3-2,2.1-2.7,3.4-3.9c3.5-3.2,4.2-6.2,2-10.4c-2.8-5.5-7-9.6-13.2-11.4
		c-2.1-0.6-4.6-0.6-5.9-2.9c-9.6-6.7-20.7-9.2-31.8-11.4c-14.4-2.8-29-4.6-43.7-4c-22.8,0.9-45.1,5-65.3,15.8
		c-13.9,7.4-23.2,20.6-22.1,35.8c0.9,13.6,5.4,26.2,10.5,38.7c7.1,17.5,17.4,33.2,27.2,49.2c7.2,11.9,15.4,23.3,21.4,35.9
		c2.4,5.1,3.9,10.5,5.5,15.8c-1.8,1.5-2.3-0.7-2.7-1.3c-18.1-24.9-36.1-49.8-51.7-76.3c-9-15.3-15.5-31.8-18.8-49.4
		c-1.8-9.5-1.7-19.2,1.5-28.4c3.4-10,10.2-17.7,18.9-23.3c16.6-10.8,35.5-15.5,54.8-18.7c9.6-1.6,19.2-2.3,28.9-1.9
		c21,1.1,42,2.6,61.7,10.8c10.6,4.4,20.8,9.8,27.5,19.9c3.4,5,4.6,10.6,3.8,16.4c-1.7,12.4-5,24.5-9,36.3
		c-2.9,8.6-6.7,17.1-11.7,24.8c-2.5,3.9-4.2,7.5-0.7,12.2c6.9,9.4-0.1,19.7-8.6,25.9c-3.7,2.7-5.7,5.7-6.1,10.2
		C542.5,469.8,541.6,473.5,539.1,476.6z"/>
	<path d="M520.4,366.3c-7.1,1-14.3,1.8-21.1-1.1c-9.3-4.1-17.7-9.5-20.6-20.1c-1.8-6.5,4-13,11.6-12.9c8.7,0.1,17.3,1.5,24.6,6.9
		c1.5-1.6-1.5-2-0.3-3.6c4.9,7.6,13,12.1,17.6,19.9c1.5,2,0.7,3.6-1,4.9c-2.7,1.4-4.2,4.7-7.7,5
		C522.7,366.3,521.9,367.3,520.4,366.3z"/>
	<path class="st1" d="M520.4,366.3c1.1-0.3,2.1-0.7,3.2-1c0.6,4.6,1.7,9.2,1.8,13.8c0.2,15.6-3,30.6-10.1,44.6
		c-1.4,2.7-1.4,2.7-5.7,6c1.4-3.2,2.6-5.8,3.9-8.7c-12.7-1.8-25.2-2.9-37.7-7.1c2.2,5.2,5.9,8.7,8.9,13.2c-5.3-0.4-6.7-5-9-7.9
		c-11.8-15.1-20-32.1-25-50.5c-2.6-9.7-1.8-19.1,5.9-26.8c0.4-0.4,1-0.7,2.7-1.9c-8.4,14.1-4.6,26.9-0.2,39.7
		c2.4,6.8,4.7,13.6,7.9,20.1c1.9,4,4.8,7,9,8c11.8,3,23.6,5.8,35.9,6.3c3.4,0.1,5.1-1.2,5.8-4.3c2.4-10.8,4.3-21.8,3.9-32.9
		C521.3,373.3,520.8,369.8,520.4,366.3z"/>
	<path d="M553.6,332.9c6.1,1.6,12.1,3.1,16.6,8.2c7.2,8.1,6.7,13.5-2.9,20.4c-2.9,1-5.7,1.9-8.6,2.9c-1.4,1-2.7,1-4.1,0
		c-3.5,1.7-7.3,1-10.9,0.6c-2.3-0.3-4.5-2-5-4.6c-1.4-7.8-1-15.5,3.7-22.3C545,334.3,549.2,333.1,553.6,332.9z"/>
	<path class="st1" d="M554.6,364.4c1.4,0,2.7,0,4.1,0c-0.6,17.8-8.9,43.8-18.3,57.9c-1.4-1.9,1.1-3.6,0.4-5.5
		c-8.2,2.4-8.2,2.4-7.8,10.5c-3.2-1.1-3.6-4-4.1-6.4c-2.1-10.2-2.2-20.5-0.7-30.8c0.7-5,0.1-9.9,0.9-15c0.8-4.9,1.6-9.8,2.2-14.7
		c0.3-1.6,0.7-3.3,1-4.9c1.2-6.4,0-13.5,6.4-19.4c-3.1,13.2-4,25.5-5.5,37.8c-1.4,11.9-1.9,23.8-1.9,35.7c0,2.9,0.5,3.8,3.4,2.6
		c5.9-2.4,10.5-5.1,12.7-12.2C551,388.3,554.2,376.6,554.6,364.4z"/>
	<path class="st2" d="M502.7,338.7c8.4,1.8,15.7,5.8,21.4,12.4c1.7,1.9,1.9,3.8-1.8,4.5c-8.3,1.7-8.5,1.8-11.9-5.8
		c-0.9-2-2.2-3.9-3.6-5.6c-1.4-1.6-3.2-2.7-4.8-4C502.2,339.7,502.4,339.2,502.7,338.7z"/>
	<path class="st2" d="M558.2,338.1c3.9,1,6.2,2.9,8.3,5.2c4.1,4.4,3,9.5-2.4,12.3c-1.4,0.7-2.5,1.2-3.9,0c-1.2-1.1-2.3-2.5-1.4-3.8
		C561.8,347.3,560,343,558.2,338.1z"/>
</g>
</svg>
