<?xml version="1.0" encoding="utf-8"?>
<!-- Generator: Adobe Illustrator 23.0.1, SVG Export Plug-In . SVG Version: 6.00 Build 0)  -->
<svg version="1.1" id="Layer_4" xmlns="http://www.w3.org/2000/svg" xmlns:xlink="http://www.w3.org/1999/xlink" x="0px" y="0px"
	 viewBox="0 0 1000 1000" style="enable-background:new 0 0 1000 1000;" xml:space="preserve">
<style type="text/css">
	.st0{fill:#6E3720;}
	.st1{fill:#FB9A7A;}
</style>
<g>
	<path class="st0" d="M425.8,602.5c-26.9,0.9-50.6-19.2-54.9-45.6c-1.4-8.2-2.1-16.2-0.4-24.2c2.1-10.1,8.7-17.3,17-22.8
		c6.1-4.1,10.4-9.7,15.1-15.1c9.9-11.5,28.8-16.3,42.3-3.7c2,1.9,3.9,3.9,5.9,5.8c2.7,2.7,5.9,3.9,9.8,4.1c11.6,0.5,23,2.3,33.6,7.6
		c10.3,5.2,15.1,17.5,13.6,24.8c-3.3,16.3-12.9,22.4-24.4,23c-2.7,0.2-4.5,0.2-4.8,3.7c-0.9,9.5-6.8,15.9-14.4,20.9
		c-2.2,1.4-3.4,3.1-4.3,5.3c-4.4,9.8-13.1,13.4-22.8,14.9C432.9,602,429,603.6,425.8,602.5z"/>
	<path class="st1" d="M465.7,540c8.5,8.3,6.7,27.5-5.9,33.4c-2.5,1.2-5.2,2.7-6.2,5.8c-2.4,7.7-8.3,11-15.6,12.8
		c-10.7,2.6-21.5,3-31.3-2.5c-15.3-8.5-24.7-21.2-27.9-38.8c-2.8-15.3,4-25.6,15.6-34c3.9-2.9,7.1-6.5,10.2-10.2
		c4.4-5.3,9.3-10.5,16.3-12.3c9-2.3,17.3,0.6,22.2,8.4c3.7,5.9,9.1,7.6,15.4,8.2c7.7,0.7,15.4,0.9,22.8,3.1
		c5.4,1.6,10.3,3.9,13.8,8.9c3.9,5.6,3.5,10.7,0.5,16.2c-2.8,5.4-7.4,7.7-13.4,7.9c-3.6,0.1-6.8,0-9.6-3.2
		C471,541.9,468,541.2,465.7,540z"/>
</g>
</svg>
