<?xml version="1.0" encoding="utf-8"?>
<!-- Generator: Adobe Illustrator 23.0.1, SVG Export Plug-In . SVG Version: 6.00 Build 0)  -->
<svg version="1.1" id="Layer_4" xmlns="http://www.w3.org/2000/svg" xmlns:xlink="http://www.w3.org/1999/xlink" x="0px" y="0px"
	 viewBox="0 0 1000 1000" style="enable-background:new 0 0 1000 1000;" xml:space="preserve">
<style type="text/css">
	.st0{fill:#6E3720;}
	.st1{fill:#FB9A7A;}
</style>
<g>
	<path class="st0" d="M499,403.8c-0.8-14,12.1-30.9,27.8-34.4c6.6-1.4,13.1,0.3,19,3.2c2.3,1.1,2.8,0.2,4.3-1.1
		c10.3-9,22.1-11.3,35.1-7.6c4.1,1.2,8.3,2.4,11.5,5.3c1.9,1.7,3.8,1.3,5.6,0.8c12.3-3,21.5,2.4,29.1,11.1c4.6,5.3,6.9,12,8.2,18.9
		c1.5,8.2-4.4,19.6-11.8,23.9c-11,6.5-22.6,7.5-34.1,2.6c-4.7-2-8.3,0.1-12.2,0.6c-8.1,1.1-15.9,1.2-23.3-2.5
		c-2.7-1.4-4.5-1.3-7.2,0.3c-12.9,7.6-35.2,9.1-46.8-4C500.1,416.2,499,410.9,499,403.8z"/>
	<path class="st1" d="M608.8,419.9c-10.1-0.2-19.9-5.9-22.2-15.2c-1.5-6.2,0.6-11.4,3.8-15.8c9.2-12.8,24.3-13.8,33.4-1.2
		c4.3,5.9,7.7,11.6,6.1,19.2c-0.8,4.1-3,6.9-6.6,8.9C618.5,418.6,613.2,419.5,608.8,419.9z"/>
	<path class="st1" d="M528.2,421.9c-12.9,0-21.1-7.4-20.3-18.6c1-13.7,10.7-22.9,22.8-25.2c4-0.8,7.8,1.6,11.3,3.4
		c1.3,0.7,1,2.1,0.5,3.4c-4.3,10.4-1.7,20.1,3.4,29.4c1.1,2.1,0.8,2.7-1,3.7C539.6,420.8,534,421.9,528.2,421.9z"/>
	<path class="st1" d="M589.8,375.9c-10.3,8.2-12.9,18.8-11.3,30.8c0.3,1.9,0.4,4,1.3,6c2.6,5.2,2.4,5.5-3.4,6
		c-11.4,1.1-23.9-6.3-25.9-19.4c-1.2-7.6-0.7-14.1,4.2-20.3C561.3,371,579.4,367.8,589.8,375.9z"/>
</g>
</svg>
