<?xml version="1.0" encoding="utf-8"?>
<!-- Generator: Adobe Illustrator 23.0.1, SVG Export Plug-In . SVG Version: 6.00 Build 0)  -->
<svg version="1.1" id="Layer_4" xmlns="http://www.w3.org/2000/svg" xmlns:xlink="http://www.w3.org/1999/xlink" x="0px" y="0px"
	 viewBox="0 0 1000 1000" style="enable-background:new 0 0 1000 1000;" xml:space="preserve">
<style type="text/css">
	.st0{fill:#6E3720;}
	.st1{fill:#FB9A7A;}
</style>
<g>
	<path class="st0" d="M479.2,599.6c-27.3,0.8-50.2-19.9-54.6-45.3c-1.4-8.4-2.2-16.5-0.4-24.7c2.2-10.1,8.7-17.3,17.1-22.7
		c6-3.8,10.4-9.1,14.6-14.4c9.6-12.5,31-17.2,42.9-3.7c7.3,8.3,16.7,10.6,26.3,13.1c12.5,3.2,21.1,10.1,23.5,23.1
		c1.3,7-2.3,12.9-5.8,18.6c-0.5,0.8-1.1,1.6-1.8,2.3c-5.5,5.2-9.4,11.1-11.1,18.8c-1.3,6.3-7.3,10-12.3,13.6c-1.9,1.4-3.2,2.8-4.1,5
		c-4.3,9.9-13,13.5-22.7,15.2C486.9,599.2,482.7,600.4,479.2,599.6z"/>
	<path class="st1" d="M519.2,537.4c9,8.9,6.4,27.5-6,33.3c-2.3,1.1-4.9,2.5-5.8,5.5c-2.4,7.9-8.5,11.4-15.9,13.1
		c-10.5,2.4-21.2,2.8-30.9-2.6c-15.3-8.5-24.8-21.2-28-38.8c-2.8-15.3,3.9-25.6,15.5-34.1c3.9-2.9,7.2-6.4,10.2-10.2
		c3.9-5,8.6-9.4,14.5-11.8c8.4-3.3,16.6-1.8,22.4,6.1c5.1,7,11.8,9.3,19.4,10.9c3.6,0.8,7.1,1.8,10.6,3c3.8,1.3,7.5,3.1,10,6.5
		c5.8,8,4.5,17.5-3,24.5c-1.5,1.4-2.5,1.2-3.6-0.2C526,539.7,522.6,538.8,519.2,537.4z"/>
</g>
</svg>
