<?xml version="1.0" encoding="utf-8"?>
<!-- Generator: Adobe Illustrator 23.0.1, SVG Export Plug-In . SVG Version: 6.00 Build 0)  -->
<svg version="1.1" id="Layer_4" xmlns="http://www.w3.org/2000/svg" xmlns:xlink="http://www.w3.org/1999/xlink" x="0px" y="0px"
	 viewBox="0 0 1000 1000" style="enable-background:new 0 0 1000 1000;" xml:space="preserve">
<style type="text/css">
	.st0{fill:#6E3720;}
	.st1{fill:#730000;}
	.st2{fill:#FB9A7A;}
	.st3{fill:#FEFEFE;}
	.st4{fill:#7F7F7F;}
	.st5{fill:#C0FEFE;}
	.st6{fill:#010101;}
	.st7{fill:#00407F;}
</style>
<g>
	<path class="st0" d="M576.2,461.1c5.8-1.1,10.8,1.3,15.3,4.2c4.4,2.8,4.8,8.3,5.1,12.8c0.4,6.9-0.2,13.9-0.9,20.7
		c-0.9,8.7-2.4,17.3-3.8,25.9c-2.3,14.5-4.5,29.1-8.1,43.4c-2.7,10.8-4.3,21.9-4.6,33.1c-0.4,16.6-0.8,33.3-2.1,49.8
		c-0.6,7.2-0.5,14.6-2.6,21.8c-1.8,5.9-8,10-14,8.6c-8.1-1.8-14.8-6.3-20.8-11.8c-14.1-12.6-25.9-27.2-36-43
		c-9.9-15.7-16.8-32.8-19.2-51.6c-2.1-16-2.9-32-2.8-48.2c0-2.6,0.1-5,0.8-7.6c1.6-6.5-0.2-8.5-8.1-9.6
		c-20.9-2.9-39.7-11.2-57.4-22.3c-14.5-9-20.4-23.1-23.2-39.1c-2.8-15.9,2.5-30.3,7.8-44.8c3.1-8.5,7.1-16.5,12-24.1
		c0.4-0.6,1.2-1.1,1.7-1.6c3.6,1.2,4.7,4.3,5.5,7.5c-3.6,7.4-7.9,14.5-10.5,22.5c-2.2,6.7-4.1,13.4-6.2,20
		c-6.4,20.4,5.6,45.6,25.4,55.9c18.4,9.6,37.9,15.5,58.2,18.9c7.5,1.3,15,2.8,22.6,3.9c0.5,0.1,1,0.1,1.4,0.3
		c1.5,0.5,3.8,0.5,3.8,2.3c0,1.9-2.4,1.7-3.9,2.1c-3.5,0.9-7.1,0.6-10.7,0.9c-6.1,0.4-7.2,1.9-8.4,7.9c-1.7,9.1-0.4,18.2,0.3,27.2
		c0.8,10.5,1.6,21,3.9,31.4c5.9,26,17.6,48.8,36.2,68c6.4,6.7,11.9,14.2,19.8,19.4c0.8,0.5,1.5,1.2,2.4,1.7c2.4,1.4,4.9,3.3,7.7,1.9
		c2.7-1.3,2.2-4.5,2.3-7c1.1-18.6,1.5-37.3,2.1-56c0.7-21.3,3.9-42.3,8.8-63.1c4.7-19.9,6.6-40.4,9.5-60.7c0.4-3.1-0.1-6.2-1.1-9.1
		c-1.4-3.9-3.3-7.3-6.8-9.8C576.7,463.2,575.9,462.5,576.2,461.1z"/>
	<path class="st1" d="M576.2,461.1c3.8,3.1,7.8,6.1,8.8,11.4c-1.9,12.8-6.4,24.7-15.4,34c-6.8,7-15.7,9.2-25.2,6.3
		c-9.9-3-17.3-9-19.7-19.6c-1.4-6.1-2.7-12.1,0.7-18c0.3-0.4,0.8-0.7,1-1.1c5.4-10.9,14.7-16.5,26.1-19.2c4.8-1.1,8.8-4.8,14.1-4.6
		C567.6,455.7,572,458.3,576.2,461.1z"/>
	<path class="st0" d="M566.5,450.2c-7,3.8-14.7,5.9-22.1,8.6c-7.2,2.6-12.4,7.5-15.8,14.3c-0.5,1.1-1,2-2.3,2.3
		c-2.3-4.1-0.5-7.7,1.8-10.8c4.6-6.4,10.3-11.8,17.9-14.6c6.3-2.4,12.4-5.1,17.5-9.5c6.2-5.4,11-11.6,9.8-20.6
		c-1-7.5-5.8-11.9-12.6-13.2c-7.3-1.4-11.5-5.4-15-11.6c-9.7-16.8-21.1-32.3-35.2-45.9c-7.8-7.4-16.2-13-27-14.3
		c-0.8-0.1-1.6-0.4-2.2-0.9c-1.8-3.1-3.3-6.3-2.5-10c14,0.2,25.4,6.3,35.3,15.5c12,11.2,23.1,23.4,32.7,36.7
		c2.8,3.9,5.3,8.3,7.1,12.8c2,5.2,5.8,7.2,10.8,8.3c12.5,2.8,20.6,10.5,23.1,23c1.4,6.9-2.3,13-6.4,18.3
		C577.2,443.8,572.1,447.4,566.5,450.2z"/>
	<path d="M419.9,384.8c-1.6-2.3-3.3-4.6-4.9-6.9c-2.2-7.1-4.2-14.2-3.9-21.7c0.2-5.2,1.6-9.9,4-14.4c2.7-4.9,7.3-6.3,12.9-5.3
		c6.6,1.2,11.4,4.2,14.5,10.1c3.3,3.6,2.8,8.2,3.2,12.6c0,5.7-0.8,11.2-3.2,16.4c-1.6,2.3-2.8,4.8-4.5,7c-2.5,2.4-5.3,4.3-8.5,5.5
		C425.4,389.7,422.7,388.7,419.9,384.8z"/>
	<path d="M478.6,324.1c1,3.3,2,6.6,2.9,9.9c1.4,5.2-1.4,9.1-7.3,9.9c-4.7,0.6-9.3-0.8-14-1c-3.4-1.1-7.2-0.6-10.1-3.2
		c-3.1-1.7-6.4-3.1-9.2-5c-3.2-2.2-4.2-5-2.4-9.1c6.1-13.5,24-16.8,34.2-9.4C475.6,318.4,476.9,321.4,478.6,324.1z"/>
	<path class="st0" d="M450.2,339.8c3.4,0.3,6.8,0.7,9.9,2.1c0.3,1.3-0.4,2.2-1.2,3c-4.2,4.3-8.4,8.5-11.9,13.4
		c-0.6,0.8-1.4,1.4-2.5,1.2c0.1-4.4-1.3-8.6-2-12.9C445,344.3,447.6,342.1,450.2,339.8z"/>
	<path class="st2" d="M444.4,359.5c4.7-6.3,10.2-11.9,15.6-17.6c4.2-0.9,8.1,1.1,12.2,0.9c6.3-0.3,8.7-2.4,9.3-8.7
		c10.3-0.3,18.6,4.5,26,10.9c17.5,15.6,30.8,34.5,42.3,54.8c1.7,3,3.9,4,6.8,4.5c4.4,0.9,8.9,2.1,12.3,5c7.3,6.3,8.1,16.5,1.3,25.9
		c-6,8.3-14.7,12.5-24,16c-7.9,3-13.7,8.9-18.4,15.8c-1.6,2.4-1.6,5.5-1.5,8.4c-6.7,19.4,7.1,37.4,25.9,37.1
		c11.7-0.2,18.5-7.7,23.9-17.1c4.1-7.2,5.1-15.6,8.8-23c4.2,6.6,1.4,13.5,0.6,20.2c-1.5,12.7-3.4,25.4-5.6,38
		c-1.7,9.9-4,19.7-6.2,29.6c-2.7,12.1-4,24.4-4.6,36.8c-0.9,18.6-1.7,37.2-2.1,55.8c-0.1,4.3-0.5,8.7-0.8,13
		c-0.4,5.9-2.1,6.8-7.8,5.2c-4.9-1.4-8.6-4.7-11.9-7.9c-14.7-14.5-29.2-29.3-38.4-48.1c-7.8-16-13.9-32.7-15.2-50.8
		c-0.9-12-2.7-24-2.7-36.1c0-4,0.4-8.1,1-12c0.7-4.5,4.8-5,8.2-5.2c5.2-0.2,10.3-0.4,16.7-1.7c-10.6-1.9-20-3.7-29.5-5.3
		c-21.5-3.5-42.3-9.7-61.1-20.8c-14.2-8.4-21.7-21.5-24.4-37.9c-1.4-8.3,1-15.5,3-23c3.6-13.2,7.9-26.1,15.7-37.4
		c5.6,4,7.2,4,13.4-0.3c1.4-1,2.9-1.9,4.3-2.9c1.4,2.9-0.8,4.9-1.8,7.2c-3.9,9.5-6.1,19-2.7,29.3c2.5,7.6,7.2,13.5,12.9,18.6
		c8.7,7.6,18.7,13.1,30.1,15.4c14.8,3.1,29.8,5.3,45,2.4c10.8-2.1,17-8.4,17.5-18c0.3-6.3-2.4-11.7-6-16.6c-1.5-2.1-3.2-4.1-4.9-6.1
		c-1-1.2-2.7-2.7-1.3-4.2c1.1-1.2,2.7,0.2,3.9,1.1c3.8,2.7,7.9,4.6,12.3,5.8c2.1,0.5,4.6,1.9,6.5-0.1c2.1-2.1,0.6-4.6-0.1-6.8
		c-5.2-15.2-14.2-28-24.1-40.4c-5.8-7.2-12.6-13.2-19.8-18.6c-6.9-5.1-15-6.8-23.6-6.3c-9,0.5-14,9-9.1,16.7
		c1.6,2.5,3.3,4.8,4.7,7.4c1.3,2.4,0.5,3.7-2.2,3.7c-2,0-3.9-0.5-5.8-0.8c-8.9-1.3-17.5-1.6-25.1,4.4c-0.8,0.6-1.7,1-2.7,0.6
		C443.2,370.8,444.5,365.3,444.4,359.5z"/>
	<path class="st3" d="M441.2,376.1c10.6-9.9,23.2-7.3,36.2-4.9c-2.4-3.8-4.3-7.3-6.5-10.5c-5.5-8.1,1.5-17.9,11.1-18
		c11.6-0.2,21.3,3.8,29.9,11.3c14.5,12.7,25.6,27.9,34.3,45c2.1,4.1,3.6,8.6,5.1,13c1.7,4.9-0.7,7.1-5.8,6.3c-7-1.1-13-4.3-19-8.2
		c2.3,2.9,4.8,5.6,7,8.6c4.4,6.1,8.1,12.6,6.3,20.6c-2.2,9.9-8.9,15.5-19.2,16.8c-19.9,2.6-39.5,0.7-57.7-7.3
		c-16.8-7.3-30.1-19.1-32.7-38.7c-0.9-6.8,1.5-13.6,4-20.1c1.1-2.8,3.1-5.3,3.7-8.4C439,379.9,439.3,377.5,441.2,376.1z"/>
	<path class="st4" d="M440.4,351.8c-0.1,1.7,0.5,3.8-1.8,4.5c-2.2,0.6-4.4-0.3-5.6-2c-3.3-5-7.8-8.4-13.2-10.6
		c-2.2-0.9-1.5-2-0.1-3.1c3.3-2.5,6.8-2.1,10.4-0.8C435.6,341.7,440.4,347.2,440.4,351.8z"/>
	<path class="st4" d="M445.7,322.3c6.3-10.1,24.1-8,27.6,0.1c0.4,1,1.8,1.6,0.6,2.9c-0.9,1-2.1,1.2-3.1,0.8
		C462.9,322.8,454.5,321.9,445.7,322.3z"/>
	<path class="st5" d="M531.2,446.6c-6.4,4.6-13.7,5.2-20.9,5.4c-15.1,0.4-30-1.3-44-7.7c-15.3-7-26.7-17.7-31.3-34.4
		c-2.8-10.4,4.1-28.5,13.2-31.7c-1.8,3.9-3.7,7.2-4.8,10.8c-3.3,10.9,1,20,7.6,28.3c12.1,15.3,28.8,22.6,47.4,25.9
		C509.3,445.1,520.2,446.7,531.2,446.6z"/>
	<path d="M484,404.2c6.2,1.6,12.5,4.3,18.4,7.9c1.5,0.9,2.9,2,4.2,3.2c2.4,2.2,5,5.3,3.7,8.1c-1.6,3.5-5.8,5-9.9,4.3
		c-4.9-0.9-9.7-2.7-14-5.3c-2.9-1.8-6.2-3.3-8.4-6.2c-1.6-2.2-3.4-4.1-1.8-7.2C477.8,405.7,480.1,404.4,484,404.2z"/>
	<path class="st5" d="M504.9,362.1c-7-4.4-13.7-9.2-22-11c-2.8-0.6-5.5-0.1-9.2-1c3.4-3.4,6.9-4.6,10.9-4.4
		c8.8,0.4,16.2,4.7,22.7,10c6.2,5,11.4,11.1,17,16.8c0.7,0.7,1.1,1.6,1.1,2.6c-2.7,0.3-4-2-5.5-3.5
		C515.5,367.4,510,365.1,504.9,362.1z"/>
	<path class="st6" d="M504.9,362.1c6.9,0.7,11.7,5.2,16.6,9.4c1.3,1.2,2.6,2.4,3.9,3.6c-0.1,2,1.5,2.8,2.8,3.8c3.8,5.3,3.8,6,0,8.7
		c-3.7,0.8-6.5-1.5-9.1-3.1c-6.5-4.1-13.3-8-17.1-15.2C500.1,365.7,500.7,363.2,504.9,362.1z"/>
	<path class="st5" d="M528.2,387.6c4.1-2.9,0.5-5.8,0-8.7c4.7,3.2,6.6,8.6,9.7,13c4.4,6.2,7.3,13.1,9.2,20.6
		C540.8,404.2,534.5,395.9,528.2,387.6z"/>
	<path class="st3" d="M492.2,412.9c-0.6,3-4,3.3-6.7,3.9c-2.8,0.6-7.2-3.3-6.9-5.8c0.3-2.8,2-4.7,5-4.8
		C487.6,406.2,492.2,409.4,492.2,412.9z"/>
	<path class="st7" d="M503.1,418.9c1.8,0.2,4.8-0.6,4.5,2.5c-0.3,3.1-3.3,4.4-6.1,4.2c-2.2-0.1-6.1-0.2-5.8-2.8
		C495.9,419.5,499.7,418.9,503.1,418.9z"/>
	<path class="st3" d="M506.7,364.2c3.2,1.8,7.1,2.8,9.4,6c1.2,1.7,0.5,3.2-1.4,3.8c-3.1,1-9.7-3-10.6-6.2
		C503.5,365.5,504.5,364.4,506.7,364.2z"/>
	<path class="st7" d="M525.1,385.7c-2.8-0.7-5.5-2-6.4-5.3c-0.4-1.4,0.9-2.6,2.4-2.3c3.2,0.6,5.6,2.8,6.9,5.5
		C528.6,384.9,526.9,385.7,525.1,385.7z"/>
</g>
</svg>
