<?xml version="1.0" encoding="utf-8"?>
<!-- Generator: Adobe Illustrator 23.0.1, SVG Export Plug-In . SVG Version: 6.00 Build 0)  -->
<svg version="1.1" id="Layer_4" xmlns="http://www.w3.org/2000/svg" xmlns:xlink="http://www.w3.org/1999/xlink" x="0px" y="0px"
	 viewBox="0 0 1000 1000" style="enable-background:new 0 0 1000 1000;" xml:space="preserve">
<style type="text/css">
	.st0{fill:#6E3720;}
	.st1{fill:#730000;}
	.st2{fill:#FB9A7A;}
	.st3{fill:#FEFEFE;}
	.st4{fill:#7F7F7F;}
	.st5{fill:#C0FEFE;}
	.st6{fill:#00407F;}
</style>
<g>
	<path class="st0" d="M580.1,461.8c6.8-1.7,13.7,2.5,15.4,9.6c2,8.5,0.7,16.9-0.3,25.3c-0.2,2.1-0.4,4.1-0.5,6.2
		c-1,19.2-2.3,38.3-5.6,57.3c-5.2,30-15.5,58.5-25.1,87.3c-2.5,7.5-4.7,15.1-8.6,22c-2.6,4.6-6.3,8.1-11.2,10.1
		c-6.4,2.5-14.5-0.4-19.4-6.6c-14.5-19-23.9-40.3-30-63.4c-2.8-10.7-6.3-21.2-8-32.2c-1.4-9-3.4-17.8-3.6-27c-0.2-7.7-2.1-15.2-2-23
		c0.1-5.5,1.4-10.8,1.2-16.4c-0.1-3.2-1.1-4.8-4-6.1c-11.1-4.9-22.6-9.3-33.1-15.2c-15.7-8.8-29.9-19.8-40.1-35
		c-4.3-6.4-5.8-13.9-6.9-21.5c-3.5-22.9,8.1-40.6,19.5-58.5c4.6-7.2,10.2-13.5,16.5-19.2c2.3,2.9,3.7,6.2,3.5,10
		c-1.4,2.7-3.9,4.3-5.8,6.6c-10.4,12.7-19.1,26.4-22.9,42.5c-4,16.8,0.7,31.8,12,44.2c9.8,10.8,22.5,18.1,35.1,25.3
		c9.8,5.6,20.4,9.4,30.9,13.4c4,1.5,7.6,3.7,11.4,5.5c1,0.5,2.2,1.1,2.2,2.4c0,1.4-1.3,1.8-2.4,2.1c-3.8,0.9-4.7,3.6-5.4,7.1
		c-1.4,7.2,0,14.3,0.6,21.4c2.2,24.5,7,48.6,13.1,72.4c3.8,14.7,9.8,28.2,17,41.4c2.8,5.1,5.4,10.4,9.4,14.8
		c5.8,6.5,10.3,5.8,13.9-2.1c5.6-12.5,8.7-25.9,12.9-38.9c5.8-17.9,11.8-35.9,15.5-54.4c2.6-12.6,3.7-25.4,5-38.2
		c1.5-14.1,2.7-28.1,4.4-42.2c0.7-5.6,0.6-11-0.9-16.4C583.7,468.5,579.4,466.1,580.1,461.8z"/>
	<path class="st1" d="M580.1,461.8c1.2,3.4,4.3,6,4.8,9.7c-0.1,1.2-0.5,2.3-1.2,3.1c-7.6,9.3-13.9,19.7-22.6,28
		c-6.4,6.1-14.1,9.4-22.7,10c-5.6,0.4-10.7-1.8-14.2-6.2c-6.9-8.9-9-18.2-3.3-29.5c7.8-9.4,17.3-15.3,30-15.8
		c7.8-0.4,15.3-2.6,22.6-5.6c1.2-0.5,2.4-1.1,3.7-0.4C577.3,457.8,579.2,459.6,580.1,461.8z"/>
	<path class="st0" d="M577.2,455.1c-9.5,4.8-19.8,6.8-30.3,7.8c-7.5,0.7-14,3.6-19.3,9c-1.9,2-4,3.8-6,5.7c-2.4-2.8-0.4-5.3,0.9-7.5
		c5.5-9.3,14.1-14.1,24.5-16c4.5-0.8,9-1.3,13.4-2.4c8.9-2.1,14.8-8.1,18.7-15.9c3.2-6.5,1-13.2-4.9-17.6c-2-1.4-3.9-3.1-6.1-4
		c-5.4-2.3-7.9-6.7-9.8-12c-5.9-16.7-12.5-33.1-21.5-48.4c-3.6-6-7.5-11.7-12.5-16.7c-3.3-3.3-7.1-5.6-11.5-7.1
		c-1.7-0.6-3.6-0.6-4.7-2.3c-0.7-3.4-1.7-6.9-0.2-10.4c12.1,2.1,21.5,8.8,28.3,18.5c11.5,16.3,22,33.2,28.4,52.3
		c0.3,0.9,0.7,1.7,0.8,2.7c1.3,7.4,4.6,12.9,11.9,16.2c9.2,4.2,14.7,12.1,16.1,21.7c1.4,9.6-3.4,17.3-11,23.1
		C580.9,453.2,579,454.1,577.2,455.1z"/>
	<path d="M437.6,365.1c-0.9-3.3-3-6.2-3.1-9.7c-1.9-12-1.6-23.5,6.2-33.8c5.6-7.3,18.2-6,23.2,2.7c1.6,2.8,2.6,5.8,3.9,8.7
		c2.6,3.6,1.3,7.5,0.6,11.3c-0.8,5.7-2.7,10.9-6.4,15.3c-2.2,2.3-4.4,4.6-6.9,6.6c-2.5,1.8-5.2,3.3-8.2,3.9
		C442.6,370.8,439.8,369.3,437.6,365.1z"/>
	<path d="M507.9,317.3c1.1,3.6,0.8,7.3,1,10.9c-0.2,5.3-3.1,7.9-9.1,7.9c-5.1,0-9.7-1.8-14.2-3.9c-3.3-2-7.7-2.1-9.9-6
		c-2.9-1.9-5.8-3.7-8.1-6.4c-2.4-3-2.6-6.1-0.4-9.1c7-9.9,22.2-12.5,32.5-6C504.5,307.6,506.4,312.3,507.9,317.3z"/>
	<path class="st0" d="M475.7,326.1c3.2,1.6,6.4,3.3,9.6,4.9c0.3,0.9-0.2,1.6-0.9,2.1c-5,3.5-9.9,7.3-14.8,11c-0.8,0.6-1.7,1-2.7,0.7
		c1.1-3.9,0.9-7.9,0.8-11.9C469.5,329.7,473.5,328.9,475.7,326.1z"/>
	<path class="st2" d="M466.9,344.8c6.2-4.6,12.3-9.2,18.5-13.7c3.5,0.6,6.6,2.4,10.2,3.2c7.6,1.5,10.3,0.6,13.4-6
		c9.8,0.5,16,6.7,21.5,13.9c12.9,17.1,21.1,36.6,27.9,56.6c2.8,8.2,7.5,13.2,14.5,17.1c12.1,6.6,10.8,18.9,3,27.8
		c-7.5,8.4-17,10.2-27.1,11.5c-10.5,1.4-19.1,6.2-25,15.2c-1.4,2.1-2.9,4.4-2,7.2c-6.2,12.9-1,26.4,7.5,31.4
		c9.1,5.5,17.7,1.6,25.6-2.9c6.5-3.7,11.1-9.8,15.6-15.7c4.8-6.3,9.8-12.6,14.6-18.9c2.4,4.8,2.5,10,1.9,15c-2,15.3-3.3,30.7-4.8,46
		c-2.3,22-5.3,43.8-12.4,64.9c-5.8,17.4-10.7,35.2-16.3,52.7c-1.6,5.2-3.8,10.2-6.2,15.1c-3,6.2-7.7,7.1-12.6,2.3
		c-2.8-2.6-5.3-5.7-7.2-9c-6.8-11.8-13.7-23.8-17.9-36.8c-4.2-13.2-7.5-26.8-10.2-40.4c-3.5-17-5.8-34.1-7.2-51.4
		c-0.5-6.5-0.2-12.8,0.3-19.2c0.4-5.2,5.3-3.6,8.3-5.5c-6.8-4-14-7.4-21.4-9.9c-18.9-6.5-35.4-17-51.3-28.9
		c-14.8-11.1-21.1-26.2-21.2-43.8c-0.1-9.4,3.6-18.4,8.3-26.8c5.9-10.5,11.5-21.2,20.8-29.3c0.6-0.5,1.3-1,1.9-1.5
		c6,5.3,8.4,5.4,15.5,0.8c0.6-0.4,1.5-0.6,2.2-0.9c0.6,2.1-1.1,3.3-2.2,4.6c-13,16.1-12.5,37.8,0.7,53.8
		c9.5,11.5,21.6,18.5,35.2,23.6c9.9,3.8,20.2,6,30.7,7.5c13.1,1.8,22.9-4.8,24.5-17.1c0.8-6.2-2.1-11.7-4.1-17.4
		c-0.7-2-3.6-4.2-1.4-5.9c2.1-1.6,3.8,1.5,5.6,2.8c2,1.4,3.8,3.1,6,4.2c2.3,1.2,4.6,3,7.2,1.1c2.6-1.9,2.7-4.6,2.2-7.5
		c-1.2-6.9-3.2-13.7-5.6-20.2c-5-13.6-10.6-26.9-19.4-38.6c-6.8-8.9-14.1-16.6-25.9-18.2c-3.9-0.6-7.5,0-11,1.2
		c-3.7,1.3-5.5,5.1-4.8,9.6c0.5,3.6,2.2,6.8,3.7,10c0.7,1.4,1.9,3.1,0.5,4.5c-1.2,1.2-2.8,0.1-4.1-0.4c-2.9-1.2-5.8-2.1-8.8-3.1
		c-6.8-2.2-13.5-3.9-20.3,0.1c-1,0.6-2.2,0.7-3.2-0.1C463.7,355,466.4,350.4,466.9,344.8z"/>
	<path class="st3" d="M460.7,359.5c2.4-1,4.7-2.1,7.1-3c5.5-2.1,10.7,0.1,15.9,1.5c4.4,1.2,8.7,2.8,13.8,5.3c-1.7-3.4-3-5.8-4-8.2
		c-5.4-12.5-0.9-19.3,12.3-19.1c9.1,0.1,17.2,4,23.4,11c12.6,14.1,20.5,30.7,26.5,48.3c2.3,6.7,3.9,13.5,5.7,20.4
		c0.9,3.4-0.9,5.9-3.3,8.1c-2.3,2-4.2,0.4-6.2-0.5c-4.9-2.1-8.6-6-12.9-9.2c2.8,5.4,4.8,11,6.1,16.9c2.9,12.9-6.4,25.1-19.7,24.9
		c-15-0.2-29.2-4.4-42.9-10.2c-8.2-3.4-15.9-7.8-22.6-13.8c-17.7-16-24.4-39.4-9.6-61.1c1.4-2.1,3.3-4,5-5.9
		C457.1,363.2,458.9,361.3,460.7,359.5z"/>
	<path class="st4" d="M450.1,320.3c6.4-0.1,15.1,7.6,15.7,14.1c0.3,2.6-1.1,4.8-3.2,6.1c-2.4,1.3-3.8-0.9-4.7-2.4
		c-3.3-5.2-7.6-9.6-12-13.8c-0.5-0.5-1.6-1.1-1-1.9C446.2,320.9,448,320.2,450.1,320.3z"/>
	<path class="st4" d="M475.8,308.2c6-6.7,24.7-3.8,27.5,5.9c0.4,1.3,1,2.4-0.1,3.5c-0.8,0.8-1.7,0.9-2.7,0.5
		c-7.5-3.6-15.1-6.6-23.2-8.7C476.7,309.3,476.3,308.6,475.8,308.2z"/>
	<path class="st5" d="M535.3,448.8c-11.5,2.9-21.5,1.2-31.5-1.1c-13.1-3.1-25.3-8.6-35.8-17c-11.7-9.3-20-21.3-21.7-36.6
		c-1.3-11.5,5-19.8,13.3-26.7c2.4-2,4.9-4.2,8.1-4.8c0.4,0.4,0.9,0.9,1.3,1.3c-1.4,0.9-3,1.7-4.2,2.8c-10.9,9.8-10.3,20.7-5.4,32.8
		c5.6,13.8,16.9,22.6,28.5,31c9.7,7.1,21,10.6,32.4,13.8C525,445.7,529.6,447.1,535.3,448.8z"/>
	<path class="st5" d="M524.4,359.2c-7.5-8.3-16.6-14.3-27.5-17.7c8.5-4.2,16.9-2.5,25,5c12.7,11.8,21.5,26.1,27.2,42.5
		c2.8,7.9,5.4,15.9,7.1,24.1c0.3,1.6,0.4,3.2-0.2,5c-4-9.2-8-18.4-12.1-27.6c1.8-10-4.5-16.5-10-23.5
		C531.3,363.7,527,362.5,524.4,359.2z"/>
	<path d="M493.6,396.5c3.8-0.3,6.7,1.8,9.5,3.7c6,4,11.3,8.8,14.5,15.5c0.9,1.9,2,4-0.2,6.1c-2.2,2.1-4.7,4-7.6,3
		c-10.2-3.5-18.3-9.8-23.6-19.2C483.7,401.2,487.8,396.5,493.6,396.5z"/>
	<path d="M524.4,359.2c11,4.9,17.2,13.7,20.8,25c0.9,2.9,0.1,4.5-1.4,6.4c-2.5,0.4-4.7-0.3-6.5-2.1c-5.4-5.4-11-10.6-15.2-17.1
		C518.2,365.1,518.6,362.6,524.4,359.2z"/>
	<path class="st3" d="M494.5,398.4c3.6,0.1,8.7,4.2,8.3,7.1c-0.5,3.6-3.5,4.6-6.7,4.6c-3.9-0.1-7.1-3.8-6.8-7.6
		C489.5,399.1,491.6,398.2,494.5,398.4z"/>
	<path class="st6" d="M510.1,421.9c-3.1-0.1-6.5-1-6.6-3.8c-0.2-3,3.2-3.9,6.1-4.1c3.2-0.2,5.7,1.5,5.8,4.4
		C515.5,421.4,512.3,421.6,510.1,421.9z"/>
	<path class="st3" d="M523.4,365.6c-0.2-1.3,0.2-2.6,1.5-3.1c1.1-0.5,2.1-0.1,3,0.9c1.9,2.3,5.1,3.1,6.4,6.2
		c1.4,3.3,0.8,4.5-2.7,4.5C527.7,374,523.4,369.7,523.4,365.6z"/>
	<path class="st6" d="M543.7,385.9c-0.3,1.3-1.4,2.1-2.7,1.6c-2.7-1-5.4-2.3-5.8-5.7c-0.2-1.7,0.7-2.8,2.5-2.9
		C539.8,378.9,543.9,383.4,543.7,385.9z"/>
</g>
</svg>
