<?xml version="1.0" encoding="utf-8"?>
<!-- Generator: Adobe Illustrator 23.0.1, SVG Export Plug-In . SVG Version: 6.00 Build 0)  -->
<svg version="1.1" id="Layer_4" xmlns="http://www.w3.org/2000/svg" xmlns:xlink="http://www.w3.org/1999/xlink" x="0px" y="0px"
	 viewBox="0 0 1000 1000" style="enable-background:new 0 0 1000 1000;" xml:space="preserve">
<style type="text/css">
	.st0{fill:#6E3720;}
	.st1{fill:#FB9A7A;}
	.st2{fill:#730000;}
	.st3{fill:#FEFEFE;}
	.st4{fill:#7F7F7F;}
	.st5{fill:#808080;}
	.st6{fill:#C0FEFE;}
	.st7{fill:#00407F;}
</style>
<g>
	<path class="st0" d="M539.2,317.3c8.4,2.7,14,8.8,18.4,15.9c10.9,17.3,16.8,36.6,21.4,56.4c1.4,6.3,1.6,13,2.1,19.5
		c0.2,2.3,0.8,3.7,2.7,5.5c6.2,5.7,12.9,11,15.1,20c1.9,8.2,1,15.5-4.9,21.7c-2.5,2.6-2.8,4.7-1.1,7.8c4.7,8.5,4.7,17.6,3.1,27
		c-0.8,5-0.4,10.2-1,15.4c-1.2,9.9-1.1,19.9-2.2,29.8c-2,17.1-2.1,34.5-6,51.3c-2.8,12-8.7,23.1-14.6,33.9
		c-9.4,17.2-21.9,32.3-35.9,45.9c-6.3,6-13,11.4-22,13.6c-9.4,2.3-16.1-2-17.1-12.7c-1.7-18.9-2.6-37.9-3.1-56.9
		c-0.5-18.8-4-37.3-8-55.7c-2.8-12.7-5.8-25.5-5.5-38.7c0.1-3.2,1.2-6.3,1.2-9.5c0-3.5-1.3-5.5-4.1-7.4
		c-16.3-11.5-32.9-22.9-46.3-38.1c-7.8-8.8-15.8-17.5-21-28.3c-4.2-8.7-4.4-18-3.8-27.3c0.6-9.3,4-17.9,8.8-25.8
		c3.1-5.1,6.6-10.2,10.7-14.5c9.3-9.9,18.2-20.4,31-26.2c2.1,2.6,2.9,5.6,2.6,8.9c-3.6,4.7-8.8,7.6-13.2,11.5
		c-9.9,8.9-18.6,19-24.7,30.6c-9.5,18-6,35.3,6.1,51.1c12.9,17.1,29,30.6,46.9,42.2c6.4,4.2,12.5,8.8,18.5,13.5
		c2.3,1.8,4.6,3.5,0.8,6.2c-1.6,1.1-1.3,3.2-1.4,5c-0.4,9.7,1.1,19.1,2.8,28.6c1.8,9.9,3.9,19.8,5.9,29.7c2.6,13,3.4,26.1,3.8,39.3
		c0.4,14,1.7,27.9,1.3,41.9c-0.2,5.4,0.7,10.7,1.5,16c0.8,6.1,3,7.1,8.1,4c5.6-3.4,10.8-7.1,14.9-12.4c4.2-5.4,9.3-10,13.9-15
		c17.9-19.7,27.5-43.1,32-68.9c3.1-17.9,4.8-36.1,6.2-54.2c0.6-7.1,0.6-14.3,1.5-21.4c1.1-8.3-0.3-16.5-2.6-24.6
		c-0.7-3.3-2.6-4.7-6-4c-10.9,2.2-21.7,0.8-32.5-0.2c-7.4-0.7-13.9,2.7-20.5,5.5c-1.9,0.8-3.5,2.5-5.8,2c-1.7-2.7,0.4-4.4,1.9-5.7
		c9.1-7.9,19.3-13.1,32-11.1c8.8,1.4,17.2-0.1,25-4.4c11.7-6.4,13.5-20.7,2.7-28.5c-6.2-4.5-7.8-10-8.6-16.8
		c-2.3-19.4-6.1-38.4-13.9-56.4c-3.8-8.8-8.7-16.7-16.8-22.1c-1.1-0.7-2.1-1.5-2.7-2.8C536.3,323.5,536.9,320.2,539.2,317.3z"/>
	<path d="M459.1,348.5c-0.7-2.9-2.3-5.6-2.1-8.7c1.7-8.1,3-16.3,7.1-23.7c1.7-3.1,3.5-6.2,6.3-8.2c4.4-3.2,8.8-5.5,14.7-2.3
		c6.9,3.7,10.3,9,10.2,16.7c2.3,4.3-0.2,8.1-1,12.1c-2.7,6.4-7.3,11.3-12.3,15.9c-2.4,1.8-4.8,3.5-7.6,4.5
		c-4.5,1.6-8.8,1.4-12.7-1.5C460.1,352.1,458.9,350.7,459.1,348.5z"/>
	<path d="M539.2,317.3c-0.1,3.4-1.3,6.5-2.1,9.7c-0.2,3.8-3,5.3-5.9,6.7c-1.2,0.4-2.4,0.4-3.6,0c-4.9-2.2-9.8-4.5-14.1-7.7
		c-3.2-2.4-7-4.2-9.3-7.8c-2.2-2.5-4.3-5-5.8-8.1c-2.2-4.6-1-8.6,3.4-11.4c9-5.8,17.9-4.5,26.7,0.5
		C535.2,303.3,538,309.8,539.2,317.3z"/>
	<path class="st0" d="M504.1,318.3c3.6,1.7,6.4,4.6,9.6,6.9c0.3,1.7-1.1,2.3-2.2,2.8c-5.4,2.3-10.8,4.5-16.1,7
		c-0.7,0.3-1.6,0.4-2.3-0.2c0.6-4.2,2.1-8.3,2.1-12.6C498.2,320.9,501.1,319.6,504.1,318.3z"/>
	<path class="st1" d="M531.1,333c2.4-1.6,4.4-3.5,5.9-6c12,6.2,17.8,17.3,22.3,29.1c6.5,17,10.1,34.6,12,52.7c0.6,6,1.9,10.8,7.8,15
		c13.4,9.6,8.3,26.2-3.3,31.4c-8.4,3.8-16.8,5.8-26.1,3.9c-10.8-2.3-27.7,5.8-33.2,15.5c-1,3.5-3.5,6.2-4.5,9.6
		c-1.1,3.6-1.6,7.1,1.4,10c3.2,2.9,7,3.1,10.9,1.5c7.4-3.1,13.4-8.5,20.3-12.4c10.9-6.2,22.5-9.9,34.7-12.2c1.3-0.2,2.6-0.5,3.6,0.6
		c2.9,9.2,3.8,18.4,2.2,28c-1,5.9-0.7,11.9-1,17.9c-1.2,20.6-3.8,40.9-7.2,61.2c-1.6,9.5-5.3,18.4-8.8,27.3
		c-7.4,18.7-20,33.5-33.7,47.7c-6.2,6.5-12.2,12.7-20.2,16.8c-4.6,2.3-5.9,1.4-7.4-3.7c-1.4-4.9-1.7-10-1.6-14.8
		c0.1-14.9-1.1-29.8-1.4-44.7c-0.4-19.1-2.8-38-7.1-56.7c-3.3-14.4-5.9-29-5.5-43.9c0.1-3.2,0.5-5.5,4.7-5.8
		c-10.9-7.8-21.6-15.8-32.6-23.4c-18.6-13-35-28.3-44.6-49.1c-6.7-14.5-4.5-29,4.3-42.5c4.7-7.2,10-13.8,15.5-20.2
		c6-6.8,13.4-12.1,20.6-17.4c3.5,5.5,7,7.2,15.6,5.2c0.3,2-1.2,2.9-2.4,3.9c-4,3.2-6.9,7.3-9.9,11.4c-8,10.8-6.6,22.5-2,33.9
		c4.7,11.5,12.4,20.8,22,28.7c10.9,9,23.1,15.8,36.5,20.1c5.9,1.9,12,2.9,18.2,1.4c6.3-1.5,9.8-5.6,11.2-11.6
		c1.5-6.4,2-12.9-0.3-19.3c-0.5-1.3-1.5-3.1,0-4c1.6-0.9,2.5,0.9,3.5,1.9c2.3,2.5,4.6,5.1,7.3,7.2c1.7,1.4,3.4,3.6,5.9,2.7
		c2.7-0.9,2.8-3.7,3.3-6.1c1.4-6.2,0.7-12.3-0.2-18.4c-1.8-12.2-4-24.4-7.6-36.3c-3.6-11.9-9.5-22.4-19.8-29.9
		c-2-1.4-4.2-2.5-6.3-3.6C532.8,335.2,531.1,335,531.1,333z"/>
	<path class="st2" d="M583,471.7c-18.8,2.7-35.7,9.9-51,21.1c-4.6,3.4-9.6,7.1-16.3,4.4c-3.8-1.5-5.9-3.9-5.8-7.8
		c0.2-5.8,2.3-10.8,6.7-14.8c4.9-2,9.6-4.4,14.5-6.4c7.8-3.2,15.7-2.1,23.3-1c7.4,1,14.5,0.1,21.6-0.8
		C581.2,465.7,582.1,466,583,471.7z"/>
	<path class="st3" d="M531.1,333c19.3,7.8,27.5,24,32.2,42.8c3.2,12.6,5.1,25.5,6.9,38.3c0.7,4.8-0.6,9.6-2,14.2
		c-1.3,4.2-3.5,4.8-7.2,2.4c-5-3.3-8.9-7.8-12.9-12.3c2.7,6.8,2.8,13.5,1.9,20.7c-1.8,14.2-13,17.4-23.5,15.5
		c-16.6-2.9-30.7-10.9-43.8-21.2c-10.1-7.9-18.1-17.5-23.2-29.2c-6.1-14.2-6.2-27.9,4.9-40.4c3.2-3.6,6.9-6.6,10.2-10.2
		c2.2-1.3,4.4-2.6,6.6-4c9.9-6.1,19.3-3.2,28.5,1.7c1.4,0.8,2.5,2.1,4.1,2.6c0.1,0,0.3-0.1,0.5-0.1c-1.1-17.1,2.5-23,13.1-21
		C528.6,332.9,529.9,333,531.1,333z"/>
	<path class="st1" d="M527.4,332.9c-9.6,0.6-14,5.5-12,17.3c0.4,2.2,2.2,4.4,0.4,7.5c-10-9.4-21.4-12.6-34.5-8
		c4.2-4.7,8.7-9.2,11.8-14.9c6.6-3.7,14.1-5.5,20.6-9.6C518.2,327.8,522.8,330.3,527.4,332.9z"/>
	<path class="st4" d="M493.2,323.6c-0.3,2.6-0.9,5.9-4.6,6.4c-3.5,0.5-4.4-2.7-5.1-5.4c-1.3-4.9-3.9-9-6.8-13.1
		c-0.7-1-3-1.9-1.5-3.5c1.2-1.2,3-1.7,4.9-1.1c4.9,1.4,8.6,4.4,10.8,8.9C492,318,493.1,320.4,493.2,323.6z"/>
	<path class="st5" d="M534.2,312.8c0,1.1,0.1,2.2-1,3.1c-1.3,1.1-2.3,0-3-0.5c-6.6-5.1-13.3-10-20.9-13.4c-0.6-0.3-1.4-0.4-1.3-1.2
		c0.1-1.1,1-1.5,1.9-1.9c6-2.6,17.1,1.2,21.2,7.5C532.4,308.3,534.3,310.1,534.2,312.8z"/>
	<path class="st6" d="M536,449.9c-13.9-0.6-27.1-4.5-38.9-12c-14.9-9.4-26.3-21.8-32.5-38.7c-5.8-15.5-1.5-32.2,11.8-42
		c3.8-2.8,8.4-3.8,13.2-4.5c-0.5,2-2.2,2.5-3.3,3.1c-14.5,6.6-15.5,24.8-11.1,37.2c6.4,18.1,19.1,30.8,34.3,41.5
		C517.9,440.4,526.7,445.3,536,449.9z"/>
	<path d="M528.3,416.6c-0.1,3.5-4.6,6.7-8.1,5.1c-10.4-4.8-17.7-12.7-21.1-23.7c-0.9-2.8,0.8-5.4,3.2-7c2-1.4,4.3-2,6.6-0.3
		c8.4,6,15.3,13.2,18.8,23.2c0.2,0.6,0.5,1.2,0.6,1.8C528.4,415.9,528.3,416.3,528.3,416.6z"/>
	<path class="st6" d="M545.9,361.2c-5.9-9.2-12.4-17.8-23-22.6c3-1.8,5.6-1.8,8.5-0.8c9,3.1,14.6,10.1,19.2,17.7
		c4,6.6,7.8,13.5,8,21.6c-0.9,0.2-1.6-0.3-2-1C553.9,370.5,550,365.7,545.9,361.2z"/>
	<path d="M545.9,361.2c5.1,2.4,7.5,7,10.1,11.6c0.8,1.5,1,3.3,2.6,4.4c1,4.2,2.1,8.4,3.1,12.6c0.5,3.2,0.1,5.6-4.1,5
		c-9.7-6-14.5-15.4-17.5-25.9C539,365,541.6,362.1,545.9,361.2z"/>
	<path class="st6" d="M557.6,394.7c2.9-0.4,4-2.3,4.1-5c3.8,11.8,4.1,23.9,3,36.2C562.3,415.5,560,405.1,557.6,394.7z"/>
	<path class="st3" d="M509.1,405.3c-4.1-0.5-6.8-3-7.9-6.6c-0.8-2.6,1.1-4.7,3.7-5.8c2.8-1.2,5.2,0,6.7,2.1c1.5,2.1,4.6,4.1,3.5,7.1
		C514.3,404.3,511.7,405.3,509.1,405.3z"/>
	<path class="st7" d="M520.8,419c-3.7,0-5.9-1.8-7.7-4.2c-0.7-1-0.5-2.3,0.6-3c2.7-1.5,5.3-0.6,7.7,0.8c1.6,0.9,4.1,1.6,3.6,3.9
		C524.5,418.4,522.6,419.4,520.8,419z"/>
	<path class="st3" d="M543,367.6c0-1.9-0.1-3,1-3.8c1.5-1.3,2.6,0.3,3.3,0.8c2.9,1.9,4.6,5.1,6.2,8.1c0.7,1.2,0.6,2.9-0.8,3.9
		c-1.3,0.9-2.2,0.2-3.4-0.5C545.5,373.9,543.3,371.1,543,367.6z"/>
	<path class="st7" d="M559.5,389.4c0,1.4-0.2,2.7-1.8,3c-2.1,0.4-6.8-4.4-6.8-6.8c0-2.1,1.3-3.3,3.3-3.6
		C556.2,381.7,559.4,386.4,559.5,389.4z"/>
</g>
</svg>
