<?xml version="1.0" encoding="utf-8"?>
<!-- Generator: Adobe Illustrator 23.0.1, SVG Export Plug-In . SVG Version: 6.00 Build 0)  -->
<svg version="1.1" id="Layer_4" xmlns="http://www.w3.org/2000/svg" xmlns:xlink="http://www.w3.org/1999/xlink" x="0px" y="0px"
	 viewBox="0 0 1000 1000" style="enable-background:new 0 0 1000 1000;" xml:space="preserve">
<style type="text/css">
	.st0{fill:#FE0000;}
	.st1{fill:#32401C;}
	.st2{fill:#647E38;}
	.st3{fill:#4E4A30;}
	.st4{fill:#272518;}
	.st5{fill:#647F38;}
	.st6{fill:#9A925A;}
	.st7{fill:#9DC857;}
	.st8{fill:#9B925B;}
	.st9{fill:#F80000;}
	.st10{fill:#010101;}
	.st11{fill:#FEFEFE;}
	.st12{fill:#4F4A2C;}
	.st13{fill:#1A180E;}
</style>
<g>
	<path d="M570.4,440.8c-7.5-13.5-3.4-26.4,1.3-39.1c2.9-7.8,7.2-15,12.6-21.5c2.8-3.3,6-6.4,10.4-7c2.2-0.3,2.3-1.9,2.9-3.1
		c3.5-6.7,9.3-9.1,16.6-6.8c10.2,3.2,10.4,3.3,14.4-6.2c2.1-4.9,5.5-8.1,10.5-8.2c5.2-0.1,9.1,2.9,11.7,7.6c2.7,4.8,3,9.5,0.2,14.3
		c-0.7,1.3-1.9,2.5-1.5,4.4c2.1-0.5,2.2-2.2,2.8-3.5c6.6-13.9,14.4-27,26.2-37.1c2.3-1.9,4.6-4,7.2-5.4c6.8-3.7,17.2,0.9,20.1,8.6
		c2.9,7.9,2.4,15-2.7,22.3c-6.9,10-14.2,19.7-21.3,29.5c-1.7,2.3-1.6,3.5,0.4,5.2c1.9,1.7,3.8,3.6,5.5,5.5c6,6.7,6.7,13.1-0.8,18.2
		c-5.6,3.8-7.5,9.4-10.1,14.7c-5.4,11.3-10.1,22.9-15.2,34.3c-7.2,16.1-14,32.5-20.2,49.1c-2.1,5.7-4.6,11.2-5.4,17.5
		c-1.2,8.3-8.3,10.7-15.3,11.7c-16.3,2.4-32.3,0.4-47.2-7c-15.3-7.6-22.9-20.7-22.6-37.6c0.1-4.7-1.3-6.4-4.4-9
		c-4.3-3.6-8.4-7.5-9.8-13.7c-1.5-7,0.5-13.1,3.8-18.4C547.4,449.4,558.3,444.3,570.4,440.8z"/>
	<path class="st0" d="M709.5,286.4c11-15.1,21.5-29.5,31.9-43.9c0.3,0.2,0.7,0.3,1,0.5c-4.8,11-9.6,22-14.6,33.4c3.8,0,7.4,0,11.8,0
		c-12,13.8-23.4,26.9-34.9,40c3.3-10.5,9.9-19.4,14.1-29.9C715.9,286.4,713.2,286.4,709.5,286.4z"/>
	<path class="st0" d="M642,308.7c-7.7-15.9-15.3-31.6-22.9-47.3c0.3-0.2,0.5-0.4,0.8-0.6c7.4,9,14.7,18,22.1,27.1
		c1.9-2.8,3.8-5.6,6-8.9c6.4,17.1,12.7,33.8,19,50.4c-0.3,0.2-0.5,0.3-0.8,0.5c-6.1-9.6-12.2-19.3-18.4-29
		C645.9,303.5,644,306,642,308.7z"/>
	<path class="st0" d="M746.3,348.7c17.5-1.4,34.8-2.7,52-4c0.1,0.3,0.1,0.5,0.2,0.8c-5.6,1.7-11.2,3.5-16.9,5.1
		c-4.8,1.4-9.7,2.7-14.6,3.9c-2.6,0.6-1.4,1.8-0.8,3.2c1.3,2.6,4.2,4.3,4.7,7.4c-17.7,1.2-35.2-1.8-53.5-0.5c3.9-3.4,8.2-3,11.9-3.9
		c6-1.4,12-2.8,18-4c3.7-0.7,3.8-1.4,1.3-3.8C747.8,351.7,747.2,350.2,746.3,348.7z"/>
	<path class="st1" d="M664.9,436.4c-3.7,8.4-7.3,16.9-11,25.3c-8.5,18.9-17,37.8-24,57.3c-1.1,3.2-2,4.4-5.8,2.6
		c-10.9-5-22-9.5-33-14.2c-3.1-1.3-4.1-2.4-2.7-6.3c10.9-29.1,22.7-57.8,33.9-86.8c0.3-0.9,1.1-1.6,1.6-2.4c1.7,1.9,0.8,3.9,0.2,5.9
		c-1.4,4.1-2.2,8.3-3.4,12.5c-0.6,2.1,1.2,0.5,1.5,1.2c1,2.2-0.4,3.7-1.3,5.4c-8,15.2-13.7,31.2-16.6,48.2
		c-1.1,6.2,0.4,8.9,5.9,11.9c2.5,1.3,5,2.4,7.7,3c7.3,1.6,13-1.2,15.5-8.2c2.5-7,6.4-13.1,10.4-19.2c4.2-6.4,8-13.1,9.6-20.6
		c0.8-3.5-0.9-7.5,1.9-10.8C658.2,438.9,660.4,435.5,664.9,436.4z"/>
	<path class="st2" d="M622.1,431.6c-0.8,0.5-1.6,0.9-2.6,1.5c0.1-7.5,4-13.9,4.6-21c1.2-4.4,2.6-8.7,4.9-12.7c2.7-4,6.3-3.4,10-2
		c8.5,3,16.2,7.4,23.8,12.1c2.8,1.7,5.6,3.3,8.3,5.1c1.3,0.8,3.2,1.2,2.9,3.4c-3,6.1-6,12.3-9,18.4c-3.4,0.7-5.7,3.3-8.6,4.9
		c-3.2-8.1-8.7-13.5-17.5-15.5c-4.6-1-8.2,0-11.6,2.9C625.7,430,624.7,432.2,622.1,431.6z"/>
	<path class="st1" d="M575.7,500.7c8.9-7,15.3-15.3,18.3-25.9c1.3-4.6,2-9.5,2.6-14.2c0.8-6.6-2.9-11-8.1-14.4
		c-1.2-0.8-2.5-1.4-4.2-2.3c3.6-1.9,7-3.3,10.6-3.4c4.5-0.1,8.2-2,10.4-5.5c6.3-9.9,10.9-20.6,11.9-32.5c0.4-5-0.9-9.2-5-12.5
		c-1.8-1.5-3.8-3-4.9-5.9c7,1.3,13.3,2.9,19.3,5.9c1.8,0.9,2.2,1.7,1.4,3.7c-10.4,25.4-20.8,50.9-30.2,76.8
		c-3.4,9.3-6.9,18.5-10.4,27.7c-3.2,8.3-1.5,6.5-9.2,3.9C577.4,501.7,576.7,501.2,575.7,500.7z"/>
	<path class="st1" d="M582,530.2c-0.4-2.1-0.5-4.2-1.2-6.1c-2.3-5.9,1.5-9.8,4.2-14.2c1.1-1.8,2.3-0.3,3.3,0.1
		c11.3,4.9,22.5,9.9,33.7,14.9c1.8,0.8,4.4,1.2,3.9,4.2c-0.5,2.9-0.9,5.9-4.1,7.2c-3.2,1.3-6.5,2.3-9.9,1.8
		c-8.9-1.2-17.9-2.2-26.6-4.9c-1.2-0.4-2.5-0.8-3.3-1.9C581.5,530.9,581.5,530.6,582,530.2z"/>
	<path class="st3" d="M698.2,344.7c2,2.1,1,4.4-0.2,6.2C689.4,364,680.7,377,672,390c-0.9,1.4-1.6,2.4-3.6,0.9
		c-2.5-1.8-5.4-2.9-8.2-4.3c-1.6-2.1,0.1-3.7,0.9-5.3c4.7-11,11.4-20.7,18.8-30c2-2.5,3.4-5.2,2.7-8.5c1.2-1.8,2.4-3.7,4.9-3.9
		c0.3,0.4,0.4,0.9,0.6,1.3c5.2,7.5,1.7,14.1-2.1,20.7c-4.6,7.8-10.2,15.1-13.4,23.7c-0.2,0.6-0.8,1-0.5,1.7c-0.2,0.6,0.8-0.1,0.2,0
		c0.1-2.4,1.8-4.1,3-5.9C683,368.5,690.9,356.8,698.2,344.7z"/>
	<path class="st4" d="M590.9,436.6c-2.3,2.9-5.2,3.6-8.6,2c-3.9-1.8-7.2-4.2-7-8.9c0.3-12.1,3.3-23.6,9.4-34.1
		c2.1-3.7,3.9-7.8,7.1-10.9c1.6,0.4,2.4,1.5,2.5,3.1c0.8,3.9-0.6,7-3.1,10.2c-5.5,7-7.4,15.4-7.9,24.1c-0.1,2.4,0,4.9-2.5,6.4
		c4.8-2.6,7.7-7,10.2-11.6c2.8-5.4,4.3-11.2,5.1-17.2c0.3-1.8-0.1-4,1.8-5.3c4.1,3.5,3.2,8.2,2.6,12.5c-1.1,7.5-4.2,14.3-7.7,20.9
		C591.2,430.6,590.3,433.4,590.9,436.6z"/>
	<path class="st4" d="M578.2,478.6c-6.3,4.6-13.8,6.2-21.2,7.6c-5.9,1.1-12.6-8.6-10.7-15.3c2.8-9.9,9.6-15.7,19.1-18.6
		c0.6,2.9-3.8,4-2.6,7.1c-3.6,3.9-6.4,8.6-10.5,12.2c0.2,0.3,1.3,0.4,1.9,1.1c1.1,1,2.5,1.6,3.5,2.7c4.4,0.8,8.1-1.2,12-2.7
		c2.7-1.1,4.8-3.8,8.2-3.2c1,1.2,0.2,2.2-0.5,3C575.5,474.8,576,476.8,578.2,478.6z"/>
	<path class="st1" d="M582,530.2c0,0.4,0,0.7,0,1.1c-11.1-2.2-24.4-16.9-20.6-29.4c0.9-2.8,1.5-3.8,4.5-2.2c5.3,2.7,10.8,5,16.8,7.7
		C576.9,514.8,574.9,522.5,582,530.2z"/>
	<path class="st3" d="M590.9,436.6c-3.3-1.9-1.9-4.3-0.7-6.7c3.5-7.1,7.1-14,8.7-21.9c1-4.8,0.9-9.2-1.2-13.6
		c-2.1-1.8-3.1-4.3-3.9-6.9c-0.7-1-1.4-1.9-2.1-2.9c0.5-0.8,1.2-0.9,2-0.9c6.9,0.8,12.8,7.6,13.2,15.4c0.1,2,0.4,4.1-0.5,6.1
		c-1.2,10.2-6.6,18.6-11.9,27C593.5,433.8,592.1,435.2,590.9,436.6z"/>
	<path class="st3" d="M557.7,475.7c-1.5-0.3-3-0.7-4-2c0.6-0.8,1.5-1.3,2.4-1.5c11.2-2.6,19.6-9.5,27-17.8c0.6-0.7,1.3-1.4,2.4-1.5
		c6.3,3.9,7.2,10.6,2.4,17.9c-2.6,3.4-5.9,5.9-9.7,7.9c-4.4-0.1-4.6-2.4-2.7-5.5c0.7-1.2,1.7-2.2,2.6-3.3c-1.3-1.5-2.2,0.1-3.2,0.6
		c-4.8,2.5-9.6,5.1-15.1,5.8C559,476.2,558.3,476.3,557.7,475.7z"/>
	<path class="st5" d="M681.6,412.2c-0.3,0.9-0.9,1.6-1.9,1.8c-19.3-14.6-40.5-25.7-63.4-33.7c-2.5-0.9-5-1.4-7.4-2.4
		c-1.7-0.8-3.9-1.3-3.6-3.9c0.7-1.2,1.9-0.8,3-0.9c6.3-0.7,12.1,1.4,17.7,3.8c18.8,7.8,36.5,17.6,52.4,30.4
		C680,408.5,682.1,409.5,681.6,412.2z"/>
	<path class="st4" d="M682.6,342.8c4.3,3.2,0.5,5.9-1,8.1c-4.2,5.9-8.8,11.5-12.5,17.7c-3.5,5.8-6.7,11.7-8.9,18.1
		c-4.6-1.3-5.4-3.4-3.1-8c5.4-10.9,11.5-21.3,19.1-30.8C678,345.7,679.9,343.8,682.6,342.8z"/>
	<path class="st6" d="M698.2,344.7c0.2,1.5-0.3,2.9-1.1,4.2c-8.5,13.1-17,26.2-25.8,39.1c-0.2-5.5,2.8-9.7,5.2-14.1
		c4-7.3,9.3-13.9,12.4-21.8c1.3-3.3,1.4-5.7-0.9-8.3c-1.2-1.3-1.9-3-0.6-4.8C693.2,336,696.1,337.6,698.2,344.7z"/>
	<path class="st7" d="M681.6,412.2c-2.4-3.7-6.2-6.2-9.7-8.6c-15.1-10.3-30.9-19.3-47.8-26.5c-5.1-2.2-10.5-3.1-15.9-4
		c5.9-2.8,11.2,0.4,16.3,2.1c18,6.3,35.3,14.1,51,25.1C680.9,404,683.1,408.1,681.6,412.2z"/>
	<path class="st1" d="M605.3,374c3.6,4.5,9.3,4.1,14,5.9c18.2,7,35.8,15,51.7,26.4c3.1,2.3,5.8,5,8.8,7.6
		c-6.6-2.6-12.1-7.2-18.2-10.7c-15.9-9.3-32.5-17.2-50.4-21.9c-0.9-0.2-1.9-0.3-2.9-0.4C603.9,380.3,603,378.2,605.3,374z"/>
	<path class="st1" d="M674,418c-11-6.9-21.9-14.2-34.1-19c-3.9-1.5-7.4-2.1-11,0.4c0.4-1.4,0.7-2.8,1.2-4.2c0.8-2.5,2.4-3.3,4.9-2.1
		c13,6.6,26.3,12.5,38.4,20.8C675.1,415.2,675.9,416.3,674,418z"/>
	<path class="st4" d="M577.2,495c-6.4,3.3-9.5,2.4-13.2-3.7c-1.5-2.6-0.6-3.4,1.8-3.9c6.8-1.5,12.7-4.7,18.1-8.8
		c1,1.3,0.4,2.5-0.3,3.6C580.7,486,579.3,490.7,577.2,495z"/>
	<path class="st8" d="M587.9,470.7c2.4-6.4,3.3-12.6-2.8-17.7c-1.2-0.4-2.1-1.6-3.5-1.7c-2.4-0.9-5.3-0.3-7.4-2.2
		c8-4,15.7-0.6,18.6,6.6C594.9,461,593.4,466.3,587.9,470.7z"/>
	<path class="st3" d="M577.2,495c-0.2-4.4,1.9-8,4.1-11.5c1-1.6,2.6-2.9,2.7-5c2.4-2.1,4.8-4.3,7.8-6.9
		C589.7,481.8,584,488.8,577.2,495z"/>
	<path class="st3" d="M606.4,418.9c2.8-8,5.4-16,5.7-24.5c4,10.7,0.3,20.2-4.6,29.6C604.1,422.9,606.3,420.7,606.4,418.9z"/>
	<path class="st9" d="M632.6,368.3c-0.1-2.3,0.8-3.9,1.5-5.6c1.1-2.6,2.8-4.4,5.7-4.2c2.9,0.2,4.9,1.9,6.1,4.6
		c1.2,2.8,0.6,5.3-0.7,7.7c-0.8,1.5-1.6,0.5-2.6-0.1C639.6,368.9,636.5,367.2,632.6,368.3z"/>
	<path class="st3" d="M574.2,449.2c3.1-0.5,5.9,0.7,8.9,1.1c0.9,2-0.6,2.7-2,3c-5.9,1.1-11.3,3.4-16.7,5.9c-0.6,0.3-1.3,0.1-1.9-0.2
		c-2-0.2-2.1-1.1-0.9-2.5c1.3-1.4,2.6-2.8,3.9-4.3C568.3,450.8,570.8,448.8,574.2,449.2z"/>
	<path class="st8" d="M606.4,405.3c-0.2-9.6-3-17.5-12.7-21.5c5.8-2.1,13.9,3.6,14.6,10.6C608.7,398.1,608.2,401.8,606.4,405.3z"/>
	<path class="st4" d="M606.4,418.9c0.4,1.7-0.6,3.7,1.1,5c-3,5.3-4.6,11.7-12.6,13.9C599,431,602.7,425,606.4,418.9z"/>
	<path class="st8" d="M631.4,371.6c7.4-0.8,11.3,1.3,13.6,7C639.3,378.4,636.5,372.7,631.4,371.6z"/>
	<path d="M622.1,431.6c0.8-0.8,1.7-1.5,2.5-2.3c9.4-8.3,25.6-4.7,31,6.8c0.8,1.8,0.4,3.5,0.8,5.2c-1.1,2.8-1.7,5.6-1.3,8.8
		c0.4,3-0.9,6-2.2,8.8c-3.5,7.1-7.1,14.2-11.8,20.6c-2.4,3.3-4.1,7-5.4,10.8c-3.5,10.3-10.1,14-20.3,10.4c-5.6-2-12.4-3.8-12.6-11.6
		c-0.1-3.3,0.8-6.7,1.6-10c3.8-15.8,8.9-31.1,17.1-45.2C621.8,433.3,621.8,432.4,622.1,431.6z"/>
	<path class="st7" d="M636.2,402.6c8.8,1.9,16,6.9,23.3,11.4c0.8,0.5,1.6,1,2.4,1.6c8.1,5.4,8.3,6.3,2.8,14.5
		c-2.2,3.4-4.6,3.3-6.6-0.3c-0.2-0.4-0.6-0.9-0.6-1.3c-0.9-11.7-9.5-17.3-18-23C638.5,404.8,636.8,404.5,636.2,402.6z"/>
	<path class="st5" d="M620.7,528.6c-12.8,4.7-23,1.4-32.7-4.8c-0.9-0.6-1.6-1.6-2.1-2.6c-1-2.1-3.2-4.3-1-6.6c2-2.2,4.2-0.2,6.2,0.7
		c7.2,3.1,14.5,6.3,21.7,9.4C615.1,525.7,617.3,526.9,620.7,528.6z"/>
	<path d="M593.8,387.6c2.8,1.4,3.1,4.3,3.9,6.9c-0.7,12.5-3.9,23.9-13.1,33c-3,3-3.4,2.9-7.6-0.4c4.6,1.2,4.9-1.1,5-4.1
		c0.2-10.7,2.9-20.5,10.3-28.5c1.3-1.4,1.8-2.7,0.4-4.3C591.6,388.8,592.8,388.2,593.8,387.6z"/>
	<path d="M562.5,459c5.6-3.1,11.4-5.7,17.8-6.7c1.3-0.2,2.6-0.1,2.8-1.9c1.4,0.4,1.9,1.4,2,2.7c-7.7,11-17.8,18.5-31.4,20.6
		c-1.2-0.8-2.4-1.4-3.5-2.3c-0.6-0.5-0.5-1.5,0-2.2c0.2-0.3,1-0.6,1.1-0.5c3.1,3.8,3.2-0.6,3.7-1.7
		C556.6,463.3,560.2,461.8,562.5,459z"/>
	<path class="st10" d="M557.7,475.7c7.2-0.9,13.5-4.2,19.7-7.7c0.7-0.4,1.5-1.8,2.3-0.5c0.5,1-0.7,1.6-1.5,2.2
		c-6.3,3-12.3,6.8-19.4,7.6c-0.7,0.1-1.9,1-2-0.6C556.7,476.4,557.3,476,557.7,475.7z"/>
	<path class="st11" d="M644.1,369.1c-2.2-2.3-2.9-5.7-5.6-7.5c-0.7-0.5-0.6-1.1,0.1-1.5c0.5-0.3,1.1-0.7,1.7-0.6
		C644.1,360.1,646.2,365.3,644.1,369.1z"/>
	<path class="st12" d="M650.3,445.2c2.3,3,2.2,6.1,0.8,9.5c-5.1,12.5-12,23.9-21.1,33.9c-1.1,1.2-2.1,2.6-3.9,2.6
		c-4.3-1.8-5.5-3.7-4.7-8.1c0.9-5.2,3-10,5.8-14.4c2.5-4,4.4-8.3,5.6-12.9c1-5.9,1.7-11.7,0.2-17.6c5-0.8,8.5,3,12.8,4.2
		C647.4,443,648.8,444.2,650.3,445.2z"/>
	<path class="st4" d="M626,441.4c-4.4,11.1-8.7,22.3-13.3,33.3c-1.5,3.6-1.9,7.5-3,11.2c-0.7,2.2,0.9,3.3,2.4,4.2
		c3.8,2.2,7.9,3.6,12.2,4.7c3.1,0.8,4.7-1.7,6.8-3c-1,5.3-5.7,8.3-11.3,7c-2-0.5-4-1.2-6-2c-6.8-2.6-8.1-5.6-6.8-12.8
		c2.8-16.1,8.8-31,16-45.5c0.9-1.9,1.8-3.8,3.8-4.9C628.9,436.4,626.8,438.8,626,441.4z"/>
	<path class="st4" d="M631.4,440.3c0.2,15.3-6.9,27.5-16.6,38.5C619.4,465.6,623.4,452.1,631.4,440.3z"/>
	<path class="st4" d="M632.7,456c0.4,3.6-1.4,6.6-2.8,9.7c-2.5,5.4-5.7,10.5-7.2,16.5c-1,4.2-0.2,6.9,3.2,9.2
		c-5,0.7-8.7-2.3-12.8-4.2c-1.9-0.9-0.6-2.4,0.4-3.6c4.3-5,8.6-10,12.5-15.2C629.1,464.4,630,459.8,632.7,456z"/>
	<path class="st6" d="M631.8,428.7c2.7-2.6,5.6-0.6,8.1,0.1c5.3,1.5,9.8,4.5,12.8,9.4c0.8,1.3,1.1,2.5-0.2,3.4
		c-1.4,1.1-1.8-0.7-2.6-1.3c-1.5-1.2-2.9-2.5-4.4-3.8C641.4,433.2,635.6,432.6,631.8,428.7z"/>
	<path class="st3" d="M631.8,428.7c5,1.7,9.9,3.8,13.7,7.8c-0.9-0.3-1.8-0.6-2.7-0.9c-9.6-3.3-11.9-3.3-15.3,4.6
		c-0.2,0.5-1,0.8-1.5,1.2c-0.5-2.7,1-5.2,0.9-7.9C627.5,430.9,629.1,429.2,631.8,428.7z"/>
	<path class="st8" d="M650.3,445.2c-6-1.7-11.6-4.5-17.3-6.8c3-4.2,6.4-1,9.1,0.1C645.2,439.8,648.2,442.2,650.3,445.2z"/>
	<path class="st13" d="M594.5,395.4c-1.2,10-3.5,18.4-9.5,26.6C585.6,411.8,587.9,403.3,594.5,395.4z"/>
	<path class="st13" d="M555.7,470.7c5.1-9.8,13.3-13.2,22.3-15.4c0.7-0.2,1.4-0.1,1.6,0.6c0.4,0.9-0.3,1.6-1,2
		C571.9,463.1,565.1,468.2,555.7,470.7z"/>
</g>
</svg>
