<?xml version="1.0" encoding="utf-8"?>
<!-- Generator: Adobe Illustrator 23.0.1, SVG Export Plug-In . SVG Version: 6.00 Build 0)  -->
<svg version="1.1" id="Layer_4" xmlns="http://www.w3.org/2000/svg" xmlns:xlink="http://www.w3.org/1999/xlink" x="0px" y="0px"
	 viewBox="0 0 1000 1000" style="enable-background:new 0 0 1000 1000;" xml:space="preserve">
<style type="text/css">
	.st0{fill:#FE0000;}
	.st1{fill:#32401C;}
	.st2{fill:#647E38;}
	.st3{fill:#4E4A30;}
	.st4{fill:#272518;}
	.st5{fill:#647F38;}
	.st6{fill:#9A925A;}
	.st7{fill:#9DC857;}
	.st8{fill:#9B925B;}
	.st9{fill:#F80000;}
	.st10{fill:#010101;}
	.st11{fill:#FEFEFE;}
	.st12{fill:#4F4A2C;}
	.st13{fill:#1A180E;}
</style>
<g>
	<path d="M568.3,431c-7.4-13.8-3.2-27.2,2-40.4c2.9-7.3,7-14.1,12-20.2c2.7-3.4,6-6.4,10.4-7c2.3-0.3,2.2-1.9,2.9-3.2
		c3.5-6.7,9.3-9.1,16.7-6.7c10.2,3.2,10.4,3.3,14.4-6.2c2.1-4.9,5.5-8.1,10.5-8.2c5.1-0.1,9.1,2.9,11.7,7.6c2.6,4.8,3,9.4,0.3,14.3
		c-0.7,1.3-1.8,2.5-1.6,4.3c2.3,0.1,2.2-1.9,2.7-2.9c6.6-14.1,14.4-27.2,26.4-37.5c2.3-2,4.6-4,7.2-5.4c6.9-3.9,17.3,1,20.2,9
		c3,8,2.3,15.2-2.9,22.2c-7.1,9.5-13.5,19.4-20.8,28.8c-2.3,2.9-1.6,4.2,0.5,6.3c2.7,2.7,6,4.9,7.7,8.6c3,6.4,2.8,10.4-3.4,14.4
		c-5.8,3.7-7.6,9.4-10.1,14.7c-5.5,11.4-10.4,23.1-15.5,34.7c-7.1,16.2-14,32.4-20.1,49c-2.1,5.7-4.5,11.3-5.5,17.4
		c-1.3,8.5-8.5,10.6-15.4,11.6c-16.2,2.3-32,0.4-46.7-6.8c-15.3-7.5-23.1-20.5-22.9-37.4c0.1-4.7-1.1-6.8-4.5-9.5
		c-4.4-3.5-8.4-7.4-9.7-13.7c-1.3-6.9,0.4-13,3.8-18.3C545.7,439.7,556.4,434.4,568.3,431z"/>
	<path class="st0" d="M635.4,251.6c8.1,21.8,16,43.1,23.8,64.3c-0.3,0.1-0.5,0.3-0.8,0.4c-8-12.2-16-24.4-24.1-36.8
		c-2.3,3.5-4.5,7-6.9,10.8c-9.8-20.7-19.3-41-28.9-61.3c0.3-0.2,0.5-0.3,0.8-0.5c9.3,11.6,18.6,23.2,28,35
		C630,259.6,632.6,255.8,635.4,251.6z"/>
	<path class="st0" d="M753.3,206.6c-2.3,5.8-4.5,11.6-6.9,17.3c-3,7.3-6,14.5-9,21.8c-0.6,1.4-0.8,2,1.3,2.6c3.6,1.2,7.6,0,11,2.4
		c-14.3,16.2-28.6,32.5-43,48.9c-0.3-0.2-0.6-0.3-0.9-0.5c6.3-11.9,12.7-23.9,19.1-36c-3.7-0.7-6.9-2-11.6-1.2
		c13.4-19.2,26.2-37.6,38.9-55.9C752.6,206.3,752.9,206.4,753.3,206.6z"/>
	<path class="st0" d="M790.7,360.5c-22.4-0.7-44.5-1.5-66.5-2.2c0-0.2,0-0.4-0.1-0.6c12.7-2.7,25.5-5.6,38.3-7.9
		c4.2-0.8,3.1-2.4,1.5-4.2c-1.8-2-3.5-4-4.8-6.6c22.6-1.7,44.9-3.3,68.2-5c-3.5,2.6-7.1,2.9-10.2,3.9c-10,3.2-20.1,6.1-30.3,8.8
		c-2.9,0.8-2.9,1.9-1.6,4C787,353.7,789.6,356.3,790.7,360.5z"/>
	<path class="st1" d="M663,426.7c-3.7,8.4-7.3,16.9-11,25.3c-8.5,18.9-17,37.8-24,57.3c-1.1,3.2-2,4.4-5.8,2.6
		c-10.9-5-22-9.5-33-14.2c-3.1-1.3-4.1-2.4-2.7-6.3c10.9-29.1,22.7-57.8,33.9-86.8c0.3-0.9,1.1-1.6,1.6-2.4c1.7,1.9,0.8,4,0.1,5.9
		c-1.4,4.1-2.2,8.3-3.4,12.5c-0.6,2.1,1.3,0.4,1.5,1.2c1,2.2-0.4,3.7-1.3,5.4c-8,15.2-13.7,31.3-16.6,48.2
		c-1.1,6.2,0.4,8.9,5.9,11.9c2.5,1.3,5,2.4,7.7,3c7.3,1.6,13.1-1.2,15.6-8.2c2.5-7,6.4-13.1,10.4-19.2c4.2-6.4,8-13.1,9.6-20.6
		c0.8-3.5-0.9-7.5,1.9-10.8C656.3,429.1,658.5,425.7,663,426.7z"/>
	<path class="st2" d="M620.1,421.9c-0.8,0.5-1.6,0.9-2.6,1.5c0.1-7.5,4-13.9,4.6-21c1.2-4.4,2.6-8.7,4.9-12.7c2.7-4,6.3-3.3,10-2
		c8.5,3,16.2,7.4,23.8,12.1c2.8,1.7,5.6,3.3,8.3,5.1c1.2,0.8,3.2,1.2,2.9,3.4c-3,6.1-6,12.3-9,18.4c-3.4,0.7-5.7,3.3-8.6,4.9
		c-3.2-8.2-8.7-13.6-17.5-15.5c-4.6-1-8.2,0-11.6,2.9C623.8,420.2,622.7,422.4,620.1,421.9z"/>
	<path class="st1" d="M582,433.9c4.6-1.5,8-3.2,12.1-3.3c4-0.1,7.4-2.2,9.4-5.4c6.2-10,10.8-20.6,11.8-32.6c0.4-5-1-9.2-5-12.5
		c-1.8-1.5-3.9-2.9-4.7-5.9c6.7,1.4,13,2.8,18.8,5.7c1.8,0.9,2.7,1.6,1.7,4c-11.8,28.2-22.9,56.7-33.5,85.4
		c-2.3,6.4-4.8,12.7-7.1,19.1c-2.4,6.8-2.3,6.8-8.8,3.9c-0.9-0.4-1.7-0.9-3-1.5c7-4.2,10.7-10.8,14.8-17c5.3-8,5.2-17.2,6.1-26
		c0.5-5.1-3.7-8.7-8-11.4C585.3,435.6,584,435,582,433.9z"/>
	<path class="st1" d="M580.1,520.4c-0.4-2.1-0.5-4.2-1.2-6.1c-2.3-5.9,1.5-9.8,4.2-14.2c1.1-1.8,2.3-0.3,3.3,0.1
		c11.3,4.9,22.5,9.9,33.7,14.9c1.8,0.8,4.4,1.2,3.9,4.2c-0.5,2.9-0.9,5.9-4.1,7.2c-3.2,1.3-6.5,2.3-9.9,1.8
		c-8.9-1.2-17.9-2.2-26.6-4.9c-1.2-0.4-2.5-0.8-3.3-1.9C579.5,521.2,579.5,520.8,580.1,520.4z"/>
	<path class="st3" d="M680.7,333c1.2-1.8,2.4-3.7,4.9-3.9c0.3,0.4,0.4,0.9,0.6,1.3c5.2,7.5,1.7,14.1-2.1,20.6
		c-4.7,8-10.3,15.4-13.6,24.2c-0.2,0.4-0.5,0.8-0.2,1.3c-0.2,0.6,0.8-0.1,0.2,0c0.1-2.2,1.6-3.8,2.7-5.5c7.8-12,15.8-23.8,23.2-36
		c2,2.1,1,4.4-0.2,6.2c-8.6,13.1-17.4,26.1-26.1,39.1c-0.9,1.4-1.6,2.4-3.6,0.9c-2.5-1.8-5.4-2.9-8.2-4.3c-1.6-2.1,0.1-3.7,0.9-5.3
		c4.7-11,11.4-20.7,18.8-30C679.9,339,681.3,336.3,680.7,333z"/>
	<path class="st4" d="M588.9,426.9c-2.3,2.9-5.2,3.6-8.6,2c-3.9-1.8-7.2-4.1-7.1-8.9c0.3-12.1,3.3-23.6,9.4-34.1
		c2.1-3.7,3.9-7.8,7.1-10.9c1.6,0.4,2.4,1.5,2.5,3.1c0.8,3.9-0.6,7-3.1,10.2c-5.5,7-7.4,15.4-7.9,24.1c-0.1,2.4,0,4.9-2.5,6.4
		c4.8-2.6,7.7-7,10.2-11.6c2.9-5.4,4.3-11.2,5.1-17.2c0.3-1.8-0.1-4,1.8-5.4c4.1,3.5,3.2,8.2,2.6,12.5c-1.1,7.5-4.2,14.3-7.7,20.9
		C589.2,420.8,588.3,423.6,588.9,426.9z"/>
	<path class="st4" d="M576.2,468.8c-6.3,4.6-13.8,6.2-21.2,7.6c-5.9,1.1-12.6-8.6-10.7-15.3c2.8-9.9,9.6-15.7,19.2-18.6
		c0.6,2.9-3.9,4-2.6,7.1c-3.6,3.9-6.4,8.6-10.6,12.2c0.2,0.3,1.3,0.4,1.9,1.1c1.1,1,2.5,1.6,3.5,2.7c4.4,0.8,8.1-1.1,12-2.7
		c2.7-1.1,4.8-3.8,8.2-3.3c1,1.2,0.2,2.2-0.5,3C573.5,465,574.1,467,576.2,468.8z"/>
	<path class="st1" d="M580.1,520.4c0,0.4,0,0.7,0,1.1c-11.1-2.2-24.4-16.9-20.6-29.4c0.9-2.8,1.5-3.7,4.5-2.2
		c5.3,2.7,10.8,5,16.8,7.7C574.9,505,573,512.7,580.1,520.4z"/>
	<path class="st3" d="M591.9,377.8c-0.7-1-1.4-1.9-2.1-2.9c0.5-0.8,1.2-0.9,2-0.9c7,0.8,13.1,8,13.2,15.9c0,1.8,0.4,3.8-0.5,5.6
		c-1.2,10.2-6.6,18.6-11.9,27c-1,1.6-2.4,2.9-3.7,4.4c-3.3-1.9-1.9-4.3-0.7-6.7c3.5-7.1,7.1-14,8.7-21.9c1-4.8,0.9-9.2-1.2-13.6
		C593.7,382.9,592.7,380.4,591.9,377.8z"/>
	<path class="st3" d="M576.2,468.8c-4.4-0.1-4.6-2.4-2.7-5.5c0.7-1.2,1.7-2.2,2.6-3.3c-1.3-1.5-2.2,0-3.2,0.5
		c-4.8,2.5-9.6,5.1-15.1,5.8c-0.8,0.1-1.6,0.2-2.2-0.4c-1.5-0.3-3-0.7-4-2c0.6-0.8,1.5-1.3,2.4-1.5c11.2-2.6,19.6-9.5,27-17.8
		c0.6-0.7,1.3-1.4,2.4-1.5c6.3,3.9,7.2,10.6,2.4,17.9C583.3,464.3,580,466.9,576.2,468.8z"/>
	<path class="st5" d="M603.4,364.2c0.7-1.2,1.9-0.8,3-0.9c6.3-0.7,12.1,1.4,17.7,3.8c18.8,7.8,36.5,17.6,52.4,30.4
		c1.6,1.3,3.7,2.3,3.2,4.9c-0.3,0.9-0.9,1.6-1.9,1.8c-19.3-14.7-40.5-25.7-63.4-33.7c-2.5-0.9-5-1.4-7.4-2.4
		C605.3,367.3,603.1,366.8,603.4,364.2z"/>
	<path class="st4" d="M680.7,333c4.3,3.2,0.5,5.9-1,8.1c-4.2,5.9-8.8,11.5-12.5,17.7c-3.5,5.8-6.7,11.7-8.9,18.1
		c-4.6-1.3-5.4-3.4-3.1-8c5.4-10.9,11.5-21.3,19.1-30.8C676,335.9,678,334,680.7,333z"/>
	<path class="st6" d="M696.3,335c0.2,1.5-0.3,2.9-1.1,4.2c-8.5,13.1-17,26.2-25.8,39.1c-0.2-5.5,2.8-9.7,5.2-14.1
		c4-7.3,9.3-13.9,12.4-21.8c1.3-3.3,1.4-5.7-0.9-8.3c-1.2-1.3-1.9-3-0.6-4.8C691.3,326.2,694.1,327.8,696.3,335z"/>
	<path class="st7" d="M679.7,402.4c-2.4-3.7-6.2-6.2-9.7-8.6c-15.1-10.3-30.9-19.3-47.8-26.5c-5.1-2.2-10.5-3.1-15.9-4
		c5.9-2.8,11.2,0.4,16.3,2.1c18,6.3,35.3,14.1,51,25.1C678.9,394.3,681.2,398.3,679.7,402.4z"/>
	<path class="st1" d="M603.4,364.2c3.6,4.5,9.3,4.1,14,5.9c18.2,7,35.8,15,51.7,26.4c3.1,2.3,5.8,5.1,8.8,7.6
		c-6.6-2.6-12.1-7.2-18.2-10.7c-15.9-9.3-32.5-17.2-50.4-21.9c-0.9-0.2-1.9-0.3-2.9-0.4C602,370.5,601.1,368.4,603.4,364.2z"/>
	<path class="st1" d="M672,408.3c-11-6.9-21.9-14.2-34.1-19c-3.9-1.5-7.4-2.1-11,0.4c0.4-1.4,0.7-2.8,1.2-4.2
		c0.8-2.5,2.4-3.3,4.9-2.1c13,6.6,26.3,12.5,38.4,20.8C673.1,405.5,673.9,406.6,672,408.3z"/>
	<path class="st4" d="M575.3,485.3c-6.5,3.3-9.5,2.4-13.2-3.7c-1.5-2.6-0.6-3.4,1.8-3.9c6.8-1.5,12.7-4.7,18.1-8.8
		c1,1.3,0.4,2.5-0.3,3.6C578.8,476.3,577.4,480.9,575.3,485.3z"/>
	<path class="st8" d="M585.9,460.9c2.4-6.4,3.3-12.6-2.8-17.7c-1.2-0.4-2.1-1.6-3.5-1.7c-2.4-0.9-5.3-0.3-7.4-2.1
		c8-4,15.7-0.6,18.6,6.6C592.9,451.3,591.4,456.5,585.9,460.9z"/>
	<path class="st3" d="M575.3,485.3c-0.2-4.4,1.9-8,4.1-11.5c1-1.6,2.6-2.9,2.7-5c2.4-2.1,4.8-4.3,7.8-6.9
		C587.7,472,582.1,479,575.3,485.3z"/>
	<path class="st3" d="M604.4,409.1c1.5-5.5,4.3-10.7,4.5-16.6c0.1-2.7,0.5-5.3,1.3-7.9c3.9,10.6,0.2,20.2-4.7,29.5
		C602.2,413.2,604.3,410.9,604.4,409.1z"/>
	<path class="st9" d="M644.5,354.9c0,6.4-1.4,7.3-5.8,5c-1.1-0.6-2.3-1.1-3.5-1.5c-1.5-0.5-4.3,0.7-4.4-0.8
		c-0.2-2.8,1.2-5.7,3.4-7.6c1.4-1.3,3.4-1.9,5.7-0.7C643,350.8,644.4,353.1,644.5,354.9z"/>
	<path class="st3" d="M572.3,439.5c3.1-0.5,5.9,0.7,8.9,1.1c0.9,2.1-0.7,2.7-2,3c-5.9,1.1-11.3,3.4-16.7,5.9
		c-0.6,0.3-1.3,0.1-1.9-0.2c-2-0.2-2.1-1.1-0.9-2.5c1.3-1.4,2.6-2.8,3.9-4.3C566.3,441.1,568.9,439,572.3,439.5z"/>
	<path class="st8" d="M604.5,395.5c-0.2-9.6-3-17.5-12.7-21.5c5.8-2.1,13.9,3.6,14.6,10.6C606.8,388.4,606.2,392.1,604.5,395.5z"/>
	<path class="st4" d="M604.4,409.1c0.4,1.7-0.6,3.7,1.1,5c-3,5.3-4.6,11.7-12.6,13.9C597.1,421.2,600.8,415.2,604.4,409.1z"/>
	<path class="st8" d="M642.8,369c-5.3-0.7-8.3-5.8-13.5-7C636.9,361,641.1,363.2,642.8,369z"/>
	<path d="M620.1,421.9c0.8-0.8,1.7-1.5,2.5-2.3c9.4-8.3,25.6-4.7,31,6.8c0.8,1.8,0.4,3.5,0.8,5.2c-1.1,2.8-1.7,5.6-1.3,8.8
		c0.4,3-0.9,6-2.2,8.8c-3.5,7.1-7.1,14.2-11.8,20.6c-2.4,3.3-4.1,7-5.4,10.8c-3.5,10.3-10.1,14-20.3,10.4c-5.6-2-12.4-3.8-12.6-11.6
		c-0.1-3.3,0.8-6.7,1.6-10c3.8-15.8,8.9-31.1,17.1-45.2C619.8,423.5,619.9,422.6,620.1,421.9z"/>
	<path class="st7" d="M634.2,393.5c12,2.2,21,9.8,31,15.6c1.5,0.9,2.2,2.3,1.2,4.2c-1.2,2.3-2.2,4.7-3.5,6.9
		c-2.2,3.7-4.8,3.5-6.7-0.4c-0.8-1.7-1.5-3.6-1.7-5.5c-0.8-5.8-4.6-9.5-8.9-12.8C641.9,398.7,638,396.1,634.2,393.5z"/>
	<path class="st5" d="M618.6,518.8c-12.6,4.9-22.6,1.4-32.3-4.5c-1.3-0.8-2.1-2-2.7-3.4c-0.9-2-2.8-4.1-0.7-6.2
		c1.9-1.9,3.9-0.3,5.8,0.5c7.4,3.2,14.8,6.4,22.2,9.7C613.2,516,615.4,517.2,618.6,518.8z"/>
	<path d="M591.9,377.8c2.8,1.4,3.1,4.3,3.9,6.9c-0.7,12.5-3.9,23.9-13.1,33c-3,2.9-3.4,2.9-7.6-0.4c4.6,1.2,4.9-1.1,5-4.1
		c0.2-10.7,2.9-20.5,10.3-28.6c1.3-1.4,1.8-2.7,0.4-4.3C589.7,379,590.9,378.4,591.9,377.8z"/>
	<path d="M560.5,449.2c5.6-3.1,11.4-5.7,17.8-6.7c1.3-0.2,2.6-0.1,2.8-1.9c1.4,0.4,1.9,1.4,2,2.7c-7.7,11-17.8,18.5-31.4,20.6
		c-1.2-0.8-2.4-1.4-3.5-2.3c-0.6-0.5-0.5-1.5,0-2.2c0.2-0.3,1-0.6,1.1-0.5c3.1,3.8,3.2-0.6,3.7-1.7
		C554.6,453.5,558.3,452.1,560.5,449.2z"/>
	<path class="st10" d="M555.7,465.9c7.2-0.9,13.5-4.2,19.7-7.7c0.7-0.4,1.5-1.8,2.3-0.5c0.5,1-0.7,1.6-1.5,2.2
		c-6.3,3-12.3,6.8-19.4,7.6c-0.7,0.1-1.9,1-2-0.6C554.7,466.6,555.4,466.2,555.7,465.9z"/>
	<path class="st11" d="M643.6,356.2c0.2,1.3-0.2,2.5-1.3,2.8c-0.9,0.2-1.3-0.9-1.7-1.9c-0.8-1.9-2-3.6-3.6-4.9
		c-0.5-0.4-1.5-0.9-0.5-1.8c0.6-0.6,1.1-0.9,2.1-0.5C641.3,351.2,643,353.2,643.6,356.2z"/>
	<path class="st12" d="M630.8,446.2c1-5.9,1.7-11.7,0.2-17.6c5-0.7,8.5,3,12.8,4.2c1.7,0.4,3.1,1.6,4.5,2.6c2.3,3,2.2,6.1,0.8,9.5
		c-5.1,12.5-12,23.9-21.1,33.9c-1.1,1.2-2.1,2.6-3.9,2.6c-4.3-1.8-5.4-3.7-4.7-8.1c0.9-5.2,3-10,5.8-14.4
		C627.7,455.1,629.6,450.8,630.8,446.2z"/>
	<path class="st4" d="M624,431.6c-4.4,11.1-8.7,22.3-13.3,33.3c-1.5,3.6-1.9,7.5-3,11.2c-0.7,2.2,0.9,3.3,2.4,4.2
		c3.8,2.2,7.9,3.6,12.2,4.7c3.1,0.8,4.7-1.7,6.8-3c-1,5.3-5.7,8.3-11.3,7c-2-0.5-4-1.2-6-2c-6.8-2.6-8.1-5.6-6.8-12.8
		c2.8-16.1,8.8-31,16-45.6c0.9-1.9,1.8-3.8,3.8-4.9C627,426.7,624.8,429.1,624,431.6z"/>
	<path class="st4" d="M612.8,469c4.6-13.2,8.7-26.5,16.5-38.4C629.6,445.8,622.5,458,612.8,469z"/>
	<path class="st4" d="M630.8,446.2c0.4,3.6-1.4,6.6-2.8,9.7c-2.5,5.4-5.7,10.5-7.2,16.5c-1,4.2-0.2,6.9,3.2,9.2
		c-5,0.7-8.7-2.3-12.8-4.2c-1.9-0.9-0.6-2.4,0.4-3.6c4.3-5,8.6-10,12.5-15.2C627.1,454.7,628,450,630.8,446.2z"/>
	<path class="st6" d="M629.9,418.9c2.7-2.6,5.6-0.6,8.1,0.1c5.3,1.5,9.8,4.5,12.8,9.4c0.8,1.3,1.1,2.5-0.2,3.4
		c-1.4,1.1-1.8-0.7-2.6-1.3c-1.5-1.2-2.9-2.5-4.4-3.8C639.4,423.4,633.7,422.9,629.9,418.9z"/>
	<path class="st3" d="M629.9,418.9c5,1.7,9.9,3.8,13.7,7.8c-0.9-0.3-1.8-0.6-2.7-0.9c-9.6-3.3-11.9-3.3-15.3,4.6
		c-0.2,0.5-1,0.8-1.5,1.2c-0.5-2.7,1-5.2,0.9-7.9C625.6,421.1,627.1,419.4,629.9,418.9z"/>
	<path class="st8" d="M648.3,435.4c-6-1.7-11.6-4.5-17.3-6.8c3-4.2,6.4-1,9.1,0.1C643.3,430.1,646.2,432.4,648.3,435.4z"/>
	<path class="st13" d="M583.2,411.7c0.1-9.7,2.6-16.9,8.6-25.1C592,394.8,588.5,405.1,583.2,411.7z"/>
	<path class="st13" d="M554,461c4.3-9,14.3-15.2,24.6-15C571.4,453,563.7,457.8,554,461z"/>
</g>
</svg>
