<?xml version="1.0" encoding="utf-8"?>
<!-- Generator: Adobe Illustrator 23.0.1, SVG Export Plug-In . SVG Version: 6.00 Build 0)  -->
<svg version="1.1" id="Layer_4" xmlns="http://www.w3.org/2000/svg" xmlns:xlink="http://www.w3.org/1999/xlink" x="0px" y="0px"
	 viewBox="0 0 1000 1000" style="enable-background:new 0 0 1000 1000;" xml:space="preserve">
<style type="text/css">
	.st0{fill:#FE0000;}
	.st1{fill:#32401C;}
	.st2{fill:#647E38;}
	.st3{fill:#4E4A30;}
	.st4{fill:#272518;}
	.st5{fill:#647F38;}
	.st6{fill:#9A925A;}
	.st7{fill:#9DC857;}
	.st8{fill:#9B925B;}
	.st9{fill:#F80000;}
	.st10{fill:#010101;}
	.st11{fill:#FEFEFE;}
	.st12{fill:#4F4A2C;}
	.st13{fill:#1A180E;}
</style>
<g>
	<path d="M567.4,427.1c-7.4-13-3.5-25.8,1-38.3c2.9-8.1,7.4-15.6,13-22.4c2.7-3.3,5.9-6.4,10.5-6.9c2.2-0.3,2.1-2,2.8-3.2
		c3.3-6.4,9.3-8.9,16.3-6.7c0.3,0.1,0.7,0,1,0.1c9.7,3,9.8,3.1,13.6-6c2-4.8,5.3-8.3,10.4-8.5c5.6-0.2,9.7,3.1,12.4,8.1
		c2.5,4.7,2.5,9.2-0.1,13.8c-0.7,1.3-1.7,2.5-1.6,4.5c2.2-0.8,2.4-2.5,3-3.8c6.6-13.9,14.4-26.9,26.2-37.1c2.3-1.9,4.6-3.9,7.2-5.4
		c6.8-3.7,17.2,0.9,20,8.7c2.9,7.9,2.4,14.9-2.7,22.3c-6.9,10-14.1,19.7-21.3,29.5c-1.7,2.3-1.6,3.5,0.3,5.2
		c1.9,1.7,3.8,3.6,5.5,5.5c6,6.6,6.8,13-0.8,18.1c-5.6,3.8-7.5,9.4-10.1,14.7c-5.4,11.3-10.1,22.9-15.2,34.3
		c-7.3,16.1-14,32.4-20.2,49c-2.1,5.7-4.6,11.2-5.4,17.5c-1.1,8.3-8.2,10.9-15.2,11.8c-16.6,2.3-32.9,0.4-48-7.4
		c-14.9-7.7-22.2-20.6-22-37c0.1-4.9-1.3-6.8-4.7-9.4c-4.3-3.4-8.3-7.3-9.5-13.3c-1.4-7.3,0.4-13.7,4.4-19.5
		C545.5,435.4,556,430.6,567.4,427.1z"/>
	<path class="st0" d="M653.4,309.2c-8.7-13.5-17.3-26.9-26-40.4c-2.2,3.8-4.3,7.5-6.7,11.7c-11.3-22.6-22.3-44.7-33.4-66.8
		c0.4-0.2,0.8-0.5,1.2-0.7c10.3,12.6,20.7,25.1,31.2,37.9c3.2-3.4,5.8-7.4,8.8-12c8.9,23.8,17.5,47,26.2,70.2
		C654.2,309.1,653.8,309.2,653.4,309.2z"/>
	<path class="st0" d="M760,188.4c-6.4,15.2-12.9,30.3-19.5,45.9c5.1-0.5,9.8,1.7,15.8,0.9c-16.6,19-32.7,37.4-48.7,55.8
		c-0.3-0.2-0.6-0.3-0.9-0.5c7.3-13.6,14.7-27.2,22.3-41.2c-5,0-9.1,0-14.6,0c15.3-21.1,30-41.4,44.7-61.7
		C759.4,187.8,759.7,188.1,760,188.4z"/>
	<path class="st0" d="M766,335c24.8-2,49.5-4,74.2-6c0.1,0.3,0.2,0.6,0.3,0.9c-6.4,2-12.9,4-19.3,6c-8.4,2.6-16.8,5.4-25.3,7.7
		c-2.7,0.7-2.2,1.6-1.2,3.3c2.2,3.4,5.3,6.2,6.8,10.3c-25.3,1.2-50.3-1.9-75.4-1.6c7.8-1.7,15.6-3.5,23.4-5
		c7.1-1.4,14.3-2.7,21.5-3.9c3.6-0.6,2-2.7,1-3.9C769.8,340.3,767.2,338.4,766,335z"/>
	<path class="st1" d="M662,422.8c-3.7,8.4-7.3,16.9-11,25.3c-8.5,18.9-17,37.8-24,57.3c-1.1,3.2-2,4.4-5.8,2.6
		c-10.9-5-22-9.5-33-14.2c-3.1-1.3-4.1-2.4-2.7-6.3c10.9-29.1,22.7-57.8,33.9-86.8c0.3-0.9,1.1-1.6,1.6-2.4c1.7,1.9,0.8,3.9,0.1,5.9
		c-1.4,4.1-2.2,8.3-3.4,12.5c-0.6,2.1,1.3,0.4,1.5,1.2c1,2.2-0.4,3.7-1.3,5.4c-8,15.2-13.7,31.3-16.6,48.2
		c-1.1,6.2,0.4,8.9,5.9,11.9c2.5,1.3,5,2.4,7.7,3c7.3,1.6,13.1-1.2,15.6-8.2c2.5-7,6.4-13.1,10.4-19.2c4.2-6.4,8-13.1,9.6-20.6
		c0.8-3.5-0.9-7.5,1.9-10.8C655.3,425.2,657.5,421.8,662,422.8z"/>
	<path class="st2" d="M662,422.8c-3.4,0.7-5.7,3.3-8.6,4.9c-3.2-8.2-8.7-13.6-17.5-15.5c-4.6-1-8.2,0-11.6,2.9
		c-1.5,1.3-2.6,3.5-5.2,2.9c-0.8,0.5-1.6,0.9-2.6,1.5c0.1-7.5,4-13.9,4.6-21c1.2-4.4,2.6-8.7,4.9-12.7c2.7-4,6.3-3.3,10-2
		c8.5,3,16.2,7.4,23.8,12.1c2.8,1.7,5.6,3.3,8.3,5.1c1.2,0.8,3.2,1.2,2.9,3.4C668,410.5,665,416.6,662,422.8z"/>
	<path class="st1" d="M581.3,430c4.2-1.5,7.6-3.2,11.7-3.3c4-0.1,7.4-2.1,9.4-5.3c6.3-9.9,10.8-20.6,11.9-32.5
		c0.6-5.7-1.7-10-6-13.6c-1.4-1.2-3.2-2.2-3.5-4.9c6.7,1.2,13,2.8,18.9,5.8c1.7,0.9,2.3,1.6,1.4,3.7c-9.3,22.9-18.9,45.8-27.3,69
		c-4.1,11.4-8.5,22.7-12.8,34.1c-3.2,8.4-0.7,9.5-12.2,3.9c7.1-4.3,10.9-11.2,15.2-17.7c2.5-3.8,3.7-7.9,3.9-12.3c0-1,0-2,0.2-2.9
		C594.8,439.9,593.7,437.4,581.3,430z"/>
	<path class="st1" d="M579.1,516.5c-0.4-2.1-0.5-4.2-1.2-6.1c-2.3-5.9,1.5-9.8,4.2-14.2c1.1-1.8,2.3-0.3,3.3,0.1
		c11.3,4.9,22.5,9.9,33.7,14.9c1.8,0.8,4.4,1.2,3.9,4.2c-0.5,2.9-0.9,5.9-4.1,7.2c-3.2,1.3-6.5,2.3-9.9,1.8
		c-8.9-1.2-17.9-2.2-26.6-4.9c-1.2-0.4-2.5-0.8-3.3-1.9C578.6,517.3,578.6,516.9,579.1,516.5z"/>
	<path class="st3" d="M695.3,331.1c2,2.1,1,4.4-0.2,6.2c-8.6,13.1-17.4,26.1-26.1,39.1c-0.9,1.4-1.6,2.4-3.6,0.9
		c-2.5-1.8-5.4-2.9-8.2-4.3c-1.6-2.1,0.1-3.7,0.9-5.3c4.7-11,11.4-20.7,18.8-30c2-2.5,3.4-5.1,2.7-8.5c1.2-1.8,2.4-3.7,4.9-3.9
		c0.3,0.4,0.4,0.9,0.6,1.3c5.2,7.5,1.7,14.1-2.1,20.6c-4.7,8-10.3,15.4-13.6,24.2c-0.2,0.4-0.5,0.8-0.2,1.3c-0.2,0.6,0.8-0.1,0.2,0
		c0.1-2.2,1.6-3.8,2.7-5.5C679.9,355.1,687.9,343.3,695.3,331.1z"/>
	<path class="st4" d="M588,422.9c-2.3,2.9-5.2,3.6-8.6,2c-3.9-1.8-7.2-4.1-7.1-8.9c0.3-12.1,3.3-23.6,9.4-34.1
		c2.1-3.7,3.9-7.8,7.1-10.9c1.6,0.4,2.4,1.5,2.5,3.1c0.8,3.9-0.6,7-3.1,10.2c-5.5,7-7.4,15.4-7.9,24.1c-0.1,2.4,0,4.9-2.5,6.4
		c4.8-2.6,7.7-7,10.2-11.6c2.9-5.4,4.3-11.2,5.1-17.2c0.3-1.8-0.1-4,1.8-5.4c4.1,3.5,3.2,8.2,2.6,12.5c-1.1,7.5-4.2,14.3-7.7,20.9
		C588.3,416.9,587.3,419.7,588,422.9z"/>
	<path class="st4" d="M575.3,464.9c-6.3,4.6-13.8,6.2-21.2,7.6c-5.9,1.1-12.6-8.6-10.7-15.3c2.8-9.9,9.6-15.7,19.2-18.6
		c0.6,2.9-3.9,4-2.6,7.1c-3.6,3.9-6.4,8.6-10.6,12.2c0.2,0.3,1.3,0.4,1.9,1.1c1.1,1,2.5,1.6,3.5,2.7c4.4,0.8,8.1-1.1,12-2.7
		c2.7-1.1,4.8-3.8,8.2-3.3c1,1.2,0.2,2.2-0.5,3C572.5,461.1,573.1,463.1,575.3,464.9z"/>
	<path class="st1" d="M579.1,516.5c0,0.4,0,0.7,0,1.1c-11.1-2.2-24.4-16.9-20.6-29.4c0.9-2.8,1.5-3.7,4.5-2.2
		c5.3,2.7,10.8,5,16.8,7.7C573.9,501.1,572,508.8,579.1,516.5z"/>
	<path class="st3" d="M590.9,373.9c-0.7-1-1.4-1.9-2.1-2.9c0.5-0.8,1.2-0.9,2-0.9c7,0.8,13.1,8,13.2,15.9c0,1.8,0.4,3.8-0.5,5.6
		c-1.2,10.2-6.6,18.6-11.9,27c-1,1.6-2.4,2.9-3.7,4.4c-3.3-1.9-1.9-4.3-0.7-6.7c3.5-7.1,7.1-14,8.7-21.9c1-4.8,0.9-9.2-1.2-13.6
		C592.7,379,591.8,376.5,590.9,373.9z"/>
	<path class="st3" d="M554.7,462c-1.5-0.3-3-0.7-4-2c0.6-0.8,1.5-1.3,2.4-1.5c11.2-2.6,19.6-9.5,27-17.8c0.6-0.7,1.3-1.4,2.4-1.5
		c6.3,3.9,7.2,10.6,2.4,17.9c-2.6,3.4-5.9,5.9-9.7,7.9c-4.4-0.1-4.6-2.4-2.7-5.5c0.7-1.2,1.7-2.2,2.6-3.3c-1.3-1.5-2.2,0-3.2,0.5
		c-4.8,2.5-9.6,5.1-15.1,5.8C556.1,462.5,555.4,462.6,554.7,462z"/>
	<path class="st5" d="M678.7,398.5c-0.3,0.9-0.9,1.6-1.9,1.8c-19.3-14.7-40.5-25.7-63.4-33.7c-2.5-0.9-5-1.4-7.4-2.4
		c-1.7-0.8-3.9-1.3-3.6-3.9c0.7-1.2,1.9-0.8,3-0.9c6.3-0.7,12.1,1.4,17.7,3.8c18.8,7.8,36.5,17.6,52.4,30.4
		C677.1,394.8,679.2,395.8,678.7,398.5z"/>
	<path class="st4" d="M679.7,329.1c4.3,3.2,0.5,5.9-1,8.1c-4.2,5.9-8.8,11.5-12.5,17.7c-3.5,5.8-6.7,11.7-8.9,18.1
		c-4.6-1.3-5.4-3.4-3.1-8c5.4-10.9,11.5-21.3,19.1-30.8C675,332,677,330.1,679.7,329.1z"/>
	<path class="st6" d="M695.3,331.1c0.2,1.5-0.3,2.9-1.1,4.2c-8.5,13.1-17,26.2-25.8,39.1c-0.2-5.5,2.8-9.7,5.2-14.1
		c4-7.3,9.3-13.9,12.4-21.8c1.3-3.3,1.4-5.7-0.9-8.3c-1.2-1.3-1.9-3-0.6-4.8C690.3,322.3,693.2,323.9,695.3,331.1z"/>
	<path class="st7" d="M678.7,398.5c-2.4-3.7-6.2-6.2-9.7-8.6c-15.1-10.3-30.9-19.3-47.8-26.5c-5.1-2.2-10.5-3.1-15.9-4
		c5.9-2.8,11.2,0.4,16.3,2.1c18,6.3,35.3,14.1,51,25.1C678,390.4,680.2,394.4,678.7,398.5z"/>
	<path class="st1" d="M602.4,360.3c3.6,4.5,9.3,4.1,14,5.9c18.2,7,35.8,15,51.7,26.4c3.1,2.3,5.8,5.1,8.8,7.6
		c-6.6-2.6-12.1-7.2-18.2-10.7c-15.9-9.3-32.5-17.2-50.4-21.9c-0.9-0.2-1.9-0.3-2.9-0.4C601,366.6,600.1,364.5,602.4,360.3z"/>
	<path class="st1" d="M671,404.4c-11-6.9-21.9-14.2-34.1-19c-3.9-1.5-7.4-2.1-11,0.4c0.4-1.4,0.7-2.8,1.2-4.2
		c0.8-2.5,2.4-3.3,4.9-2.1c13,6.6,26.3,12.5,38.4,20.8C672.2,401.6,673,402.7,671,404.4z"/>
	<path class="st4" d="M574.3,481.4c-6.5,3.3-9.5,2.4-13.2-3.7c-1.5-2.6-0.6-3.4,1.8-3.9c6.8-1.5,12.7-4.7,18.1-8.8
		c1,1.3,0.4,2.5-0.3,3.6C577.8,472.3,576.4,477,574.3,481.4z"/>
	<path class="st8" d="M585,457c2.4-6.4,3.3-12.6-2.8-17.7c-1.2-0.4-2.1-1.6-3.5-1.7c-2.4-0.9-5.3-0.3-7.4-2.1c8-4,15.7-0.6,18.6,6.6
		C591.9,447.4,590.4,452.6,585,457z"/>
	<path class="st3" d="M574.3,481.4c-0.2-4.4,1.9-8,4.1-11.5c1-1.6,2.6-2.9,2.7-5c2.4-2.1,4.8-4.3,7.8-6.9
		C586.8,468.1,581.1,475.1,574.3,481.4z"/>
	<path class="st3" d="M603.4,405.2c2.8-8,5.4-16,5.7-24.5c4,10.7,0.3,20.2-4.6,29.6C601.2,409.2,603.3,407,603.4,405.2z"/>
	<path class="st9" d="M629.7,354.4c-0.1-2.1,0.8-3.7,1.5-5.4c1.1-2.6,2.8-4.4,5.7-4.2c2.9,0.2,4.9,1.9,6.1,4.6
		c1.2,2.8,0.6,5.3-0.7,7.7c-0.8,1.5-1.7,0.5-2.6-0.1C636.7,355.1,633.4,353.8,629.7,354.4z"/>
	<path class="st3" d="M571.3,435.5c3.1-0.5,5.9,0.7,8.9,1.1c0.9,2.1-0.7,2.7-2,3c-5.9,1.1-11.3,3.4-16.7,5.9
		c-0.6,0.3-1.3,0.1-1.9-0.2c-2-0.2-2.1-1.1-0.9-2.5c1.3-1.4,2.6-2.8,3.9-4.3C565.3,437.1,567.9,435.1,571.3,435.5z"/>
	<path class="st8" d="M603.5,391.6c-0.2-9.6-3-17.5-12.7-21.5c5.8-2.1,13.9,3.6,14.6,10.6C605.8,384.5,605.2,388.2,603.5,391.6z"/>
	<path class="st4" d="M603.4,405.2c0.4,1.7-0.6,3.7,1.1,5c-4.7,10.1-6.4,12-12.3,13.5C596.1,417.3,599.8,411.3,603.4,405.2z"/>
	<path class="st8" d="M627,357.8c9.1-0.6,13,1.5,14.9,7.3C636.4,364.4,633.4,359.1,627,357.8z"/>
	<path d="M619.1,418c0.8-0.8,1.7-1.5,2.5-2.3c9.4-8.3,25.6-4.7,31,6.8c0.8,1.8,0.4,3.5,0.8,5.2c-1.1,2.8-1.7,5.6-1.3,8.8
		c0.4,3-0.9,6-2.2,8.8c-3.5,7.1-7.1,14.2-11.8,20.6c-2.4,3.3-4.1,7-5.4,10.8c-3.5,10.3-10.1,14-20.3,10.4c-5.6-2-12.4-3.8-12.6-11.6
		c-0.1-3.3,0.8-6.7,1.6-10c3.8-15.8,8.9-31.1,17.1-45.2C618.8,419.6,618.9,418.7,619.1,418z"/>
	<path class="st7" d="M633.4,389.6c8.9,1.3,16.1,6.3,23.4,10.9c0.8,0.5,1.6,1,2.5,1.6c7.7,5.1,8,6.7,2.6,14.6
		c-2.2,3.1-4.5,3.1-6.3-0.2c-1-1.8-1.7-3.9-2-5.9c-0.8-6-4.7-9.8-9.2-13C640.7,394.8,637,392.2,633.4,389.6z"/>
	<path class="st5" d="M617.7,515c-12.7,4.7-23,1.4-32.7-4.8c-1-0.6-1.7-1.9-2.3-3c-1-1.9-2.9-4.1-0.8-6.2c2.1-2.2,4.2-0.2,6.2,0.6
		c7.2,3.1,14.5,6.3,21.7,9.4C612.1,512,614.4,513.3,617.7,515z"/>
	<path d="M590.9,373.9c2.8,1.4,3.1,4.3,3.9,6.9c-0.7,12.5-4,23.9-13,33.1c-2.3,2.3-4.4,3.3-7.3-0.3c4.4,1.1,4.7-1.2,4.7-4.2
		c0.2-10.7,2.9-20.5,10.3-28.6c1.3-1.4,1.8-2.7,0.4-4.3C588.7,375.1,589.9,374.5,590.9,373.9z"/>
	<path d="M559.6,445.3c5.6-3.1,11.4-5.7,17.8-6.7c1.3-0.2,2.6-0.1,2.8-1.9c1.4,0.4,1.9,1.4,2,2.7c-7.7,11-17.8,18.5-31.4,20.6
		c-1.2-0.8-2.4-1.4-3.5-2.3c-0.6-0.5-0.5-1.5,0-2.2c0.2-0.3,1-0.6,1.1-0.5c3.1,3.8,3.2-0.6,3.7-1.7
		C553.7,449.6,557.3,448.2,559.6,445.3z"/>
	<path class="st10" d="M554.7,462c7.2-0.9,13.5-4.2,19.7-7.7c0.7-0.4,1.5-1.8,2.3-0.5c0.5,1-0.7,1.6-1.5,2.2
		c-6.3,3-12.3,6.8-19.4,7.6c-0.7,0.1-1.9,1-2-0.6C553.8,462.7,554.4,462.3,554.7,462z"/>
	<path class="st11" d="M636.7,345.7c2.8,1,4.6,2.6,5.6,5.1c0.6,1.6,0.9,3.5-0.9,4.2c-1.5,0.6-1.7-1.5-2.2-2.5
		c-0.8-1.8-2.2-3.1-3.5-4.4c-0.4-0.4-1.1-0.8-0.3-1.5C635.8,346.2,636.3,345.9,636.7,345.7z"/>
	<path class="st12" d="M629.8,442.3c1-5.9,1.7-11.7,0.2-17.6c5-0.7,8.5,3,12.8,4.2c1.7,0.4,3.1,1.6,4.5,2.6c2.3,3,2.2,6.1,0.8,9.5
		c-5.1,12.5-12,23.9-21.1,33.9c-1.1,1.2-2.1,2.6-3.9,2.6c-4.3-1.8-5.4-3.7-4.7-8.1c0.9-5.2,3-10,5.8-14.4
		C626.7,451.2,628.6,446.9,629.8,442.3z"/>
	<path class="st4" d="M623,427.7c-4.4,11.1-8.7,22.3-13.3,33.3c-1.5,3.6-1.9,7.5-3,11.2c-0.7,2.2,0.9,3.3,2.4,4.2
		c3.8,2.2,7.9,3.6,12.2,4.7c3.1,0.8,4.7-1.7,6.8-3c-1,5.3-5.7,8.3-11.3,7c-2-0.5-4-1.2-6-2c-6.8-2.6-8.1-5.6-6.8-12.8
		c2.8-16.1,8.8-31,16-45.6c0.9-1.9,1.8-3.8,3.8-4.9C626,422.7,623.9,425.2,623,427.7z"/>
	<path class="st4" d="M628.3,425.7c1.6,11.4-5.2,27.3-17.3,40.3C616.4,451.9,620.5,438.5,628.3,425.7z"/>
	<path class="st4" d="M629.8,442.3c0.4,3.6-1.4,6.6-2.8,9.7c-2.5,5.4-5.7,10.5-7.2,16.5c-1,4.2-0.2,6.9,3.2,9.2
		c-5,0.7-8.7-2.3-12.8-4.2c-1.9-0.9-0.6-2.4,0.4-3.6c4.3-5,8.6-10,12.5-15.2C626.1,450.8,627,446.1,629.8,442.3z"/>
	<path class="st6" d="M628.9,415c2.7-2.6,5.6-0.6,8.1,0.1c5.3,1.5,9.8,4.5,12.8,9.4c0.8,1.3,1.1,2.5-0.2,3.4
		c-1.4,1.1-1.8-0.7-2.6-1.3c-1.5-1.2-2.9-2.5-4.4-3.8C638.4,419.5,632.7,418.9,628.9,415z"/>
	<path class="st3" d="M628.9,415c5,1.7,9.9,3.8,13.7,7.8c-0.9-0.3-1.8-0.6-2.7-0.9c-9.6-3.3-11.9-3.3-15.3,4.6
		c-0.2,0.5-1,0.8-1.5,1.2c-0.5-2.7,1-5.2,0.9-7.9C624.6,417.2,626.1,415.5,628.9,415z"/>
	<path class="st8" d="M647.3,431.5c-6-1.7-11.6-4.5-17.3-6.8c3-4.2,6.4-1,9.1,0.1C642.3,426.2,645.2,428.5,647.3,431.5z"/>
	<path class="st13" d="M591.5,381.9c-1.1,9.7-3.5,18-8.8,25.8C581.6,400.1,584.8,390.6,591.5,381.9z"/>
	<path class="st13" d="M552.7,457c5.1-9.8,13.3-13.2,22.3-15.4c0.6-0.2,1.3-0.1,1.6,0.6c0.4,0.9-0.4,1.6-1,2
		C568.9,449.4,562.1,454.5,552.7,457z"/>
</g>
</svg>
