<?xml version="1.0" encoding="utf-8"?>
<!-- Generator: Adobe Illustrator 23.0.1, SVG Export Plug-In . SVG Version: 6.00 Build 0)  -->
<svg version="1.1" id="Layer_4" xmlns="http://www.w3.org/2000/svg" xmlns:xlink="http://www.w3.org/1999/xlink" x="0px" y="0px"
	 viewBox="0 0 1000 1000" style="enable-background:new 0 0 1000 1000;" xml:space="preserve">
<style type="text/css">
	.st0{fill:#32401C;}
	.st1{fill:#647E38;}
	.st2{fill:#4E4A30;}
	.st3{fill:#272518;}
	.st4{fill:#647F38;}
	.st5{fill:#9A925A;}
	.st6{fill:#9DC857;}
	.st7{fill:#9B925B;}
	.st8{fill:#F80000;}
	.st9{fill:#010101;}
	.st10{fill:#FEFEFE;}
	.st11{fill:#4F4A2C;}
	.st12{fill:#1A180E;}
</style>
<g>
	<path d="M577.1,452.5c-7.5-13.9-3.1-27.5,2.2-40.8c2.9-7.2,7-13.8,11.8-19.8c2.7-3.4,6-6.4,10.4-7c2.3-0.3,2.2-1.9,2.9-3.2
		c3.5-6.7,9.3-9.1,16.7-6.7c10.2,3.2,10.4,3.3,14.4-6.3c2-4.7,5.3-7.9,10.1-8.2c5.4-0.3,9.5,2.8,12.2,7.6c2.7,4.8,2.9,9.5,0.2,14.3
		c-0.7,1.3-1.9,2.5-1.4,4.4c2-0.6,2.1-2.3,2.8-3.6c6.6-13.9,14.4-26.9,26.2-37.1c2.3-1.9,4.8-3.7,7.2-5.4c7-5.1,18.9,2.6,21.1,11.8
		c1.7,6.9,0.5,12.8-3.5,18.8c-6.8,10.3-14.2,20.1-21.6,30c-1.7,2.3-1.5,3.5,0.4,5.2c1.9,1.7,3.8,3.6,5.5,5.5
		c6,6.8,6.6,13.1-0.9,18.1c-5.6,3.8-7.5,9.4-10.1,14.7c-5.5,11.3-10.1,22.9-15.3,34.3c-7.2,16.1-14,32.5-20.2,49.1
		c-2.1,5.7-4.6,11.2-5.4,17.5c-1.2,8.3-8.3,10.7-15.3,11.7c-16.3,2.3-32.3,0.4-47.2-7c-15.3-7.6-22.9-20.7-22.6-37.6
		c0.1-4.6-1.2-6.4-4.4-9c-4.4-3.5-8.4-7.5-9.7-13.7c-1.5-6.9,0.4-13.1,3.8-18.4C554.3,461.1,565.2,456,577.1,452.5z"/>
	<path class="st0" d="M671.8,448.2c-3.7,8.4-7.3,16.9-11,25.3c-8.5,18.9-17,37.8-24,57.3c-1.1,3.2-2,4.4-5.8,2.6
		c-10.9-5-22-9.5-33-14.2c-3.1-1.3-4.1-2.4-2.7-6.3c10.9-29.1,22.7-57.8,33.9-86.8c0.3-0.9,1.1-1.6,1.6-2.4c1.7,1.9,0.8,3.9,0.2,5.9
		c-1.4,4.1-2.2,8.3-3.4,12.5c-0.6,2.1,1.2,0.5,1.5,1.2c1,2.2-0.4,3.7-1.3,5.4c-8,15.2-13.7,31.2-16.6,48.2
		c-1.1,6.2,0.4,8.9,5.9,11.9c2.5,1.3,5,2.4,7.7,3c7.3,1.6,13-1.2,15.5-8.2c2.5-7,6.4-13.1,10.4-19.2c4.2-6.4,8-13.1,9.6-20.6
		c0.8-3.5-0.9-7.5,1.9-10.8C665.1,450.6,667.3,447.2,671.8,448.2z"/>
	<path class="st1" d="M671.8,448.2c-3.4,0.7-5.7,3.3-8.6,4.9c-3.2-8.1-8.7-13.5-17.5-15.5c-4.6-1-8.2,0-11.6,2.9
		c-1.5,1.3-2.6,3.5-5.2,2.9c-0.8,0.5-1.6,0.9-2.6,1.5c0.1-7.5,4-13.9,4.6-21c1.2-4.4,2.6-8.7,4.9-12.7c2.7-4,6.3-3.4,10-2
		c8.5,3,16.2,7.4,23.8,12.1c2.8,1.7,5.6,3.3,8.3,5.1c1.3,0.8,3.2,1.2,2.9,3.4C677.8,435.9,674.8,442,671.8,448.2z"/>
	<path class="st0" d="M614.5,396.3c1-0.8,1.7-0.2,2.5,0c6,1.2,13.7,1.6,16.9,6.2c3.2,4.7-2.2,10.8-4.4,15.9
		c-12.9,30.7-24.3,62.1-35.8,93.3c-1.3,3.6-3,4.9-6.5,2.8c-1.4-0.8-2.9-1.4-4.8-2.3c7-4.2,10.7-10.8,14.9-17.1
		c5.3-8,5.2-17.2,6.1-26c0.5-5.1-3.7-8.7-8-11.4c-1.2-0.8-2.5-1.4-4.2-2.3c3.7-1.7,7.1-3.3,10.8-3.4c4.5-0.1,8.2-2,10.3-5.5
		c6.2-10,10.9-20.6,11.8-32.5c0.4-5-1-9.2-5-12.5C617.3,400.2,615.2,398.7,614.5,396.3z"/>
	<path class="st0" d="M588.8,541.9c-0.4-2.1-0.5-4.2-1.2-6.1c-2.3-5.9,1.5-9.8,4.2-14.2c1.1-1.8,2.3-0.3,3.3,0.1
		c11.3,4.9,22.5,9.9,33.7,14.9c1.8,0.8,4.4,1.2,3.9,4.2c-0.5,2.9-0.9,5.9-4.1,7.2c-3.2,1.3-6.5,2.3-9.9,1.8
		c-8.9-1.2-17.9-2.2-26.6-4.9c-1.2-0.4-2.5-0.8-3.3-1.9C588.3,542.7,588.3,542.3,588.8,541.9z"/>
	<path class="st2" d="M689.5,354.5c1.2-1.8,2.4-3.7,4.9-3.9c0.3,0.4,0.4,0.9,0.6,1.3c5.2,7.5,1.7,14.1-2.1,20.7
		c-4.6,7.8-10.2,15.1-13.4,23.7c-0.2,0.6-0.7,1-0.5,1.7c-0.2,0.6,0.8-0.1,0.2,0c0.1-2.4,1.8-4.1,3-5.9c7.6-11.9,15.6-23.5,22.9-35.6
		c2,2.1,1,4.4-0.2,6.2c-8.6,13.1-17.4,26.1-26.1,39.1c-0.9,1.4-1.6,2.4-3.6,0.9c-2.5-1.8-5.4-2.9-8.2-4.3c-1.6-2.1,0.1-3.7,0.9-5.3
		c4.7-11,11.4-20.7,18.8-30C688.7,360.5,690.1,357.8,689.5,354.5z"/>
	<path class="st3" d="M597.7,448.3c-2.3,2.9-5.2,3.6-8.6,2c-3.9-1.8-7.2-4.2-7-8.9c0.3-12.1,3.3-23.6,9.4-34.1
		c2.1-3.7,3.9-7.8,7.1-10.9c1.6,0.4,2.4,1.5,2.5,3.1c0.8,3.9-0.6,7-3.1,10.2c-5.5,7-7.4,15.4-7.9,24.1c-0.1,2.4,0,4.9-2.5,6.4
		c4.8-2.6,7.7-7,10.2-11.6c2.8-5.4,4.3-11.2,5.1-17.2c0.3-1.8-0.1-4,1.8-5.3c4.1,3.5,3.2,8.2,2.6,12.5c-1.1,7.5-4.2,14.3-7.7,20.9
		C598,442.3,597.1,445.1,597.7,448.3z"/>
	<path class="st3" d="M585,490.3c-6.3,4.6-13.8,6.2-21.2,7.6c-5.9,1.1-12.6-8.6-10.7-15.3c2.8-9.9,9.6-15.7,19.1-18.6
		c0.6,2.9-3.8,4-2.6,7.1c-3.6,3.9-6.6,8.4-10.5,12.3c0.1,0.2,1.2,0.3,1.9,1c1.1,1,2.5,1.6,3.5,2.7c4.4,0.8,8.1-1.2,12-2.7
		c2.7-1.1,4.8-3.8,8.2-3.2c1,1.2,0.2,2.2-0.5,3C582.3,486.5,582.9,488.5,585,490.3z"/>
	<path class="st0" d="M588.8,541.9c0,0.4,0,0.7,0,1.1c-11.1-2.2-24.4-16.9-20.6-29.4c0.9-2.8,1.5-3.8,4.5-2.2
		c5.3,2.7,10.8,5,16.8,7.7C583.7,526.5,581.8,534.2,588.8,541.9z"/>
	<path class="st2" d="M600.6,399.3c-0.7-1-1.4-1.9-2.1-2.9c0.5-0.8,1.2-0.9,2-0.9c6.9,0.8,12.8,7.6,13.2,15.4c0.1,2,0.4,4.1-0.5,6.1
		c-1.2,10.2-6.6,18.6-11.9,27c-1,1.6-2.4,2.9-3.7,4.4c-3.3-1.9-1.9-4.3-0.7-6.7c3.5-7.1,7.1-14,8.7-21.9c1-4.8,0.9-9.2-1.2-13.6
		C602.4,404.4,601.5,401.9,600.6,399.3z"/>
	<path class="st2" d="M564.5,487.4c-1.5-0.3-3-0.7-4-2c0.6-0.8,1.5-1.3,2.4-1.5c11.2-2.6,19.6-9.5,27-17.8c0.6-0.7,1.3-1.4,2.4-1.5
		c6.3,3.9,7.2,10.6,2.4,17.9c-2.6,3.4-5.9,5.9-9.7,7.9c-4.4-0.1-4.6-2.4-2.7-5.5c0.7-1.2,1.7-2.2,2.6-3.3c-1.3-1.5-2.2,0.1-3.2,0.6
		c-4.8,2.5-9.6,5.1-15.1,5.8C565.9,487.9,565.1,488,564.5,487.4z"/>
	<path class="st4" d="M688.5,423.9c-0.3,0.9-0.9,1.6-1.9,1.8C667.3,411,646.1,400,623.2,392c-2.5-0.9-5-1.4-7.4-2.4
		c-1.7-0.8-3.9-1.3-3.6-3.9c0.7-1.2,1.9-0.8,3-0.9c6.3-0.7,12.1,1.4,17.7,3.8c18.8,7.8,36.5,17.6,52.4,30.4
		C686.9,420.2,689,421.2,688.5,423.9z"/>
	<path class="st3" d="M689.5,354.5c4.3,3.2,0.5,5.9-1,8.1c-4.2,5.9-8.8,11.5-12.5,17.7c-3.5,5.8-6.7,11.7-8.9,18.1
		c-4.6-1.3-5.4-3.4-3.1-8c5.4-10.9,11.5-21.3,19.1-30.8C684.8,357.4,686.8,355.5,689.5,354.5z"/>
	<path class="st5" d="M705.1,356.4c0.2,1.5-0.3,2.9-1.1,4.2c-8.5,13.1-17,26.2-25.8,39.1c-0.2-5.5,2.8-9.7,5.2-14.1
		c4-7.3,9.3-13.9,12.4-21.8c1.3-3.3,1.4-5.7-0.9-8.3c-1.2-1.3-1.9-3-0.6-4.8C700.1,347.7,702.9,349.3,705.1,356.4z"/>
	<path class="st6" d="M688.5,423.9c-2.4-3.7-6.2-6.2-9.7-8.6c-15.1-10.3-30.9-19.3-47.8-26.5c-5.1-2.2-10.5-3.1-15.9-4
		c5.9-2.8,11.2,0.4,16.3,2.1c18,6.3,35.3,14.1,51,25.1C687.7,415.8,689.9,419.8,688.5,423.9z"/>
	<path class="st2" d="M598.1,484.1c-2.2,9.8-7,18-15.7,23.2c-4.9,3-10.7-0.2-12.1-5.6c-0.5-1.8,0.8-2.1,1.7-2.3
		C582.4,497.3,590.5,491.3,598.1,484.1z"/>
	<path class="st0" d="M612.2,385.7c3.6,4.5,9.3,4.1,14,5.9c18.2,7,35.8,15,51.7,26.4c3.1,2.3,5.8,5,8.8,7.6
		c-6.6-2.6-12.1-7.2-18.2-10.7c-15.9-9.3-32.5-17.2-50.4-21.9c-0.9-0.2-1.9-0.3-2.9-0.4C610.8,392,609.8,389.9,612.2,385.7z"/>
	<path class="st0" d="M680.8,429.7c-11-6.9-21.9-14.2-34.1-19c-3.9-1.5-7.4-2.1-11,0.4c0.4-1.4,0.7-2.8,1.2-4.2
		c0.8-2.5,2.4-3.3,4.9-2.1c13,6.6,26.3,12.5,38.4,20.8C681.9,427,682.7,428,680.8,429.7z"/>
	<path class="st7" d="M594.7,482.4c2.4-6.4,3.3-12.6-2.8-17.7c-1.2-0.4-2.1-1.6-3.5-1.7c-2.4-0.9-5.3-0.3-7.4-2.2
		c8-4,15.7-0.6,18.6,6.6C601.7,472.8,600.2,478,594.7,482.4z"/>
	<path class="st2" d="M613.2,430.6c2.7-8,5.6-15.9,5.7-24.5c4,10.7,0.4,20.2-4.6,29.6C610.9,434.6,613.1,432.4,613.2,430.6z"/>
	<path class="st8" d="M639,379.9c0.8-2.2,1.4-3.8,2-5.5c1-2.6,2.7-4.4,5.6-4.3c2.9,0.2,4.9,1.8,6.1,4.6c1.2,2.8,0.7,5.3-0.6,7.7
		c-0.8,1.4-1.6,0.7-2.6,0C646.5,380.5,643.3,379.2,639,379.9z"/>
	<path class="st2" d="M581.1,460.9c3.1-0.5,5.9,0.7,8.9,1.1c0.9,2-0.6,2.7-2,3c-5.9,1.1-11.3,3.4-16.7,5.9c-0.6,0.3-1.3,0.1-1.9-0.2
		c-2-0.2-2.1-1.1-0.9-2.5c1.3-1.4,2.6-2.8,3.9-4.3C575.1,462.5,577.6,460.5,581.1,460.9z"/>
	<path class="st7" d="M613.3,417c-0.2-9.6-3-17.5-12.7-21.5c5.8-2.1,13.9,3.6,14.6,10.6C615.5,409.9,615,413.6,613.3,417z"/>
	<path class="st3" d="M613.2,430.6c0.4,1.7-0.6,3.7,1.1,5c-3,5.3-4.6,11.7-12.6,13.9C605.9,442.7,609.5,436.7,613.2,430.6z"/>
	<path class="st7" d="M636.8,383.2c9.1-0.6,13.2,1.6,14.8,7.2C646.3,389.8,643.3,384.7,636.8,383.2z"/>
	<path d="M628.9,443.4c0.8-0.8,1.7-1.5,2.5-2.3c9.4-8.3,25.6-4.7,31,6.8c0.8,1.8,0.4,3.5,0.8,5.2c-1.1,2.8-1.7,5.6-1.3,8.8
		c0.4,3-0.9,6-2.2,8.8c-3.5,7.1-7.1,14.2-11.8,20.6c-2.4,3.3-4.1,7-5.4,10.8c-3.5,10.3-10.1,14-20.3,10.4c-5.6-2-12.4-3.8-12.6-11.6
		c-0.1-3.3,0.8-6.7,1.6-10c3.8-15.8,8.9-31.1,17.1-45.2C628.6,445,628.7,444.1,628.9,443.4z"/>
	<path class="st6" d="M642,414.1c10.1,2.2,17.2,7.2,24.6,11.7c0.8,0.5,1.6,1,2.5,1.6c7.9,5.2,8.1,6.6,2.7,14.6
		c-2.1,3.1-4.3,3.1-6.3-0.1c-0.3-0.5-0.8-1.1-0.8-1.7c-0.8-11.6-9.3-17.1-17.8-22.6C645.5,416.7,644.4,415.8,642,414.1z"/>
	<path class="st4" d="M626.9,540.1c-9.6,4.3-25.6,1.7-32.6-5c-0.9-0.9-1.5-2.1-2.1-3.2c-0.9-1.8-2.4-3.9-0.3-5.7
		c1.8-1.7,3.6-0.3,5.4,0.4c7.7,3.4,15.4,6.7,23,10.1C622.4,537.7,624.4,538.8,626.9,540.1z"/>
	<path d="M600.6,399.3c2.8,1.4,3.1,4.3,3.9,6.9c-0.7,12.5-4,23.9-13,33.1c-2.3,2.3-4.4,3.3-7.3-0.3c4.3,1.1,4.6-1.2,4.7-4.2
		c0.2-10.7,2.9-20.5,10.3-28.5c1.3-1.4,1.8-2.7,0.4-4.3C598.5,400.5,599.7,399.9,600.6,399.3z"/>
	<path d="M569.3,470.7c5.6-3.1,11.4-5.7,17.8-6.7c1.3-0.2,2.6-0.1,2.8-1.9c1.4,0.4,1.9,1.4,2,2.7c-7.7,11-17.8,18.5-31.4,20.6
		c-1.2-0.8-2.4-1.4-3.5-2.3c-0.6-0.5-0.5-1.5,0-2.2c0.2-0.3,1-0.6,1.1-0.5c3.1,3.8,3.2-0.6,3.7-1.7
		C563.4,475,567.1,473.5,569.3,470.7z"/>
	<path class="st9" d="M564.5,487.4c7.2-0.9,13.5-4.2,19.7-7.7c0.7-0.4,1.5-1.8,2.3-0.5c0.5,1-0.7,1.6-1.5,2.2
		c-6.3,3-12.3,6.8-19.4,7.6c-0.7,0.1-1.9,1-2-0.6C563.5,488.1,564.2,487.7,564.5,487.4z"/>
	<path class="st10" d="M651,380.7c-0.9-0.5-1.3-1.1-1.7-1.8c-0.7-1.6-1.5-3.1-2.8-4.3c-0.6-0.6-2.8-1.1-1.1-2.8
		c1.4-1.5,2.5,0.1,3.3,0.6c2.3,1.3,3.6,3.4,3.6,6.2C652.3,379.6,651.6,380,651,380.7z"/>
	<path class="st11" d="M657.1,456.9c2.3,3,2.2,6.1,0.8,9.5c-5.1,12.5-12,23.9-21.1,33.9c-1.1,1.2-2.1,2.6-3.9,2.6
		c-4.3-1.8-5.5-3.7-4.7-8.1c0.9-5.2,3-10,5.8-14.4c2.5-4,4.4-8.3,5.6-12.9c1-5.9,1.7-11.7,0.2-17.6c5-0.8,8.5,3,12.8,4.2
		C654.3,454.8,655.7,455.9,657.1,456.9z"/>
	<path class="st3" d="M632.8,453.1c-4.4,11.1-8.7,22.3-13.3,33.3c-1.5,3.6-1.9,7.5-3,11.2c-0.7,2.2,0.9,3.3,2.4,4.2
		c3.8,2.2,7.9,3.7,12.2,4.7c3.1,0.7,4.7-1.5,6.8-3.1c-1,5.5-5.8,8.5-11.3,7.1c-2-0.5-4-1.2-6-2c-6.8-2.6-8.1-5.6-6.8-12.8
		c2.8-16.1,8.8-31,16-45.5c0.9-1.9,1.8-3.8,3.8-4.9C635.8,448.1,633.6,450.6,632.8,453.1z"/>
	<path class="st3" d="M638.1,452.1c0.2,15.2-6.8,27.4-16.6,38.4C626.2,477.3,630.3,463.9,638.1,452.1z"/>
	<path class="st3" d="M639.6,467.7c0.4,3.6-1.4,6.6-2.8,9.7c-2.5,5.4-5.7,10.5-7.2,16.5c-1,4.2-0.2,6.9,3.2,9.2
		c-5,0.7-8.7-2.3-12.8-4.2c-1.9-0.9-0.6-2.4,0.4-3.6c4.3-5,8.6-10,12.5-15.2C635.9,476.2,636.8,471.5,639.6,467.7z"/>
	<path class="st5" d="M638.7,440.4c2.7-2.6,5.6-0.6,8.1,0.1c5.3,1.5,9.8,4.5,12.8,9.4c0.8,1.3,1.1,2.5-0.2,3.4
		c-1.4,1.1-1.8-0.7-2.6-1.3c-1.5-1.2-2.9-2.5-4.4-3.8C648.2,444.9,642.5,444.3,638.7,440.4z"/>
	<path class="st2" d="M638.7,440.4c5,1.7,9.9,3.8,13.7,7.8c-0.9-0.3-1.8-0.6-2.7-0.9c-9.6-3.3-11.9-3.3-15.3,4.6
		c-0.2,0.5-1,0.8-1.5,1.2c-0.5-2.7,1-5.2,0.9-7.9C634.4,442.6,635.9,440.9,638.7,440.4z"/>
	<path class="st7" d="M657.1,456.9c-6-1.7-11.6-4.5-17.3-6.8c3-4.2,6.4-1,9.1,0.1C652.1,451.6,655,453.9,657.1,456.9z"/>
	<path class="st12" d="M591.7,433.3c0.8-9.9,3.1-18.2,9-25.5C600.4,417.6,597.2,426.9,591.7,433.3z"/>
	<path class="st12" d="M563.3,481.9c2-8.2,14.4-13.5,21.6-14.9c0.6-0.1,1.5-0.1,1.5,0.7c0,0.5-0.3,1.2-0.7,1.7
		C582.2,473.7,569.8,480.6,563.3,481.9z"/>
</g>
</svg>
