<?xml version="1.0" encoding="utf-8"?>
<!-- Generator: Adobe Illustrator 23.0.1, SVG Export Plug-In . SVG Version: 6.00 Build 0)  -->
<svg version="1.1" id="Layer_4" xmlns="http://www.w3.org/2000/svg" xmlns:xlink="http://www.w3.org/1999/xlink" x="0px" y="0px"
	 viewBox="0 0 1000 1000" style="enable-background:new 0 0 1000 1000;" xml:space="preserve">
<style type="text/css">
	.st0{fill:#32401C;}
	.st1{fill:#647E38;}
	.st2{fill:#4E4A30;}
	.st3{fill:#272518;}
	.st4{fill:#647F38;}
	.st5{fill:#9A925A;}
	.st6{fill:#9DC857;}
	.st7{fill:#9B925B;}
	.st8{fill:#F80000;}
	.st9{fill:#010101;}
	.st10{fill:#FEFEFE;}
	.st11{fill:#4F4A2C;}
	.st12{fill:#1A180E;}
</style>
<g>
	<path d="M577.1,457.4c-7.3-13.5-3.3-26.6,1.7-39.6c2.9-7.5,7-14.4,12.1-20.7c2.8-3.5,6.1-6.7,10.8-7.3c2.2-0.3,2.1-2,2.8-3.3
		c3.3-6.4,9.3-8.9,16.3-6.6c0.5,0.1,1,0,1.5,0.1c9.3,2.9,9.3,3,12.8-5.7c2-4.9,5.3-8.7,10.7-8.9c5.7-0.2,9.7,3.2,12.4,8.2
		c2.5,4.7,2.5,9.2-0.2,13.9c-0.7,1.2-2.1,2.4-0.9,5c2.5-4.8,4.9-9,6.9-13.2c6.3-13.2,15.8-23.9,27.2-32.8c6.6-5.1,18.6-0.5,21.7,8.1
		c2.8,7.9,2.3,15-2.8,22.3c-6.8,9.9-14,19.5-21.1,29.1c-1.8,2.4-1.9,3.7,0.3,5.6c2,1.7,3.8,3.6,5.5,5.5c5.7,6.5,6.7,12.7-0.7,17.8
		c-5.6,3.8-7.6,9.3-10.1,14.6c-5.7,11.9-10.8,24-16.1,36c-6.9,15.8-13.6,31.6-19.5,47.8c-2.1,5.7-4.5,11.3-5.5,17.4
		c-1.3,8.4-8.4,10.6-15.4,11.6c-16.2,2.3-32,0.4-46.7-6.8c-15.3-7.5-23.1-20.5-22.9-37.4c0.1-4.8-1.2-6.8-4.6-9.5
		c-4.4-3.5-8.5-7.4-9.6-13.8c-1.2-7,0.5-13.2,4.2-18.7C554.8,465.8,565.5,460.9,577.1,457.4z"/>
	<path class="st0" d="M671.8,453c-3.7,8.4-7.3,16.9-11,25.3c-8.5,18.9-17,37.8-24,57.3c-1.1,3.2-2,4.4-5.8,2.6
		c-10.9-5-22-9.5-33-14.2c-3.1-1.3-4.1-2.4-2.7-6.3c10.9-29.1,22.7-57.8,33.9-86.8c0.3-0.9,1.1-1.6,1.6-2.4c1.7,1.9,0.8,3.9,0.2,5.9
		c-1.4,4.1-2.2,8.3-3.4,12.5c-0.6,2.1,1.2,0.5,1.5,1.2c1,2.2-0.4,3.7-1.3,5.4c-8,15.2-13.7,31.2-16.6,48.2
		c-1.1,6.2,0.4,8.9,5.9,11.9c2.5,1.3,5,2.4,7.7,3c7.3,1.6,13-1.2,15.5-8.2c2.5-7,6.4-13.1,10.4-19.2c4.2-6.4,8-13.1,9.6-20.6
		c0.8-3.5-0.9-7.5,1.9-10.8C665.1,455.5,667.3,452.1,671.8,453z"/>
	<path class="st1" d="M628.9,448.2c-0.8,0.5-1.6,0.9-2.6,1.5c0.1-7.5,4-13.9,4.6-21c1.2-4.4,2.6-8.7,4.9-12.7c2.7-4,6.3-3.4,10-2
		c8.5,3,16.2,7.4,23.8,12.1c2.8,1.7,5.6,3.3,8.3,5.1c1.3,0.8,3.2,1.2,2.9,3.4c-3,6.1-6,12.3-9,18.4c-3.4,0.7-5.7,3.3-8.6,4.9
		c-3.2-8.1-8.7-13.5-17.5-15.5c-4.6-1-8.2,0-11.6,2.9C632.6,446.6,631.5,448.8,628.9,448.2z"/>
	<path class="st0" d="M582.9,517.2c8.5-6.9,15.2-15.3,18.1-26.1c1.2-4.5,1.6-9.2,2.4-13.8c1.1-6.6-2.8-11-7.9-14.5
		c-1.2-0.8-2.6-1.4-4.3-2.3c3.5-2,6.9-3.3,10.5-3.4c4.7-0.2,8.5-2.1,10.7-5.8c6-9.7,10.4-20.1,11.6-31.6c0.6-5.3-0.8-9.9-5.2-13.4
		c-1.7-1.4-3.6-2.7-4.5-5.6c7,1.2,13.3,2.9,19.4,5.9c2.2,1.1,1.5,2.3,0.9,3.9c-8,20.1-16.6,40-24,60.4
		c-5.1,14.1-10.7,28.1-15.9,42.2C591.3,522.4,591.5,522.5,582.9,517.2z"/>
	<path class="st0" d="M588.8,546.8c-0.4-2.1-0.5-4.2-1.2-6.1c-2.3-5.9,1.5-9.8,4.2-14.2c1.1-1.8,2.3-0.3,3.3,0.1
		c11.3,4.9,22.5,9.9,33.7,14.9c1.8,0.8,4.4,1.2,3.9,4.2c-0.5,2.9-0.9,5.9-4.1,7.2c-3.2,1.3-6.5,2.3-9.9,1.8
		c-8.9-1.2-17.9-2.2-26.6-4.9c-1.2-0.4-2.5-0.8-3.3-1.9C588.3,547.5,588.3,547.2,588.8,546.8z"/>
	<path class="st2" d="M705.1,361.3c2,2.1,1,4.4-0.2,6.2c-8.6,13.1-17.4,26.1-26.1,39.1c-0.9,1.4-1.6,2.4-3.6,0.9
		c-2.5-1.8-5.4-2.9-8.2-4.3c-1.6-2.1,0.1-3.7,0.9-5.3c4.7-11,11.4-20.7,18.8-30c2-2.5,3.4-5.2,2.7-8.5c1.2-1.8,2.4-3.7,4.9-3.9
		c0.3,0.4,0.4,0.9,0.6,1.3c5.2,7.5,1.7,14.1-2.1,20.7c-4.6,7.8-10.2,15.1-13.4,23.7c-0.2,0.6-0.8,1-0.5,1.7c-0.2,0.6,0.8-0.1,0.2,0
		c0.1-2.4,1.8-4.1,3-5.9C689.8,385.1,697.8,373.4,705.1,361.3z"/>
	<path class="st3" d="M597.7,453.2c-2.3,2.9-5.2,3.6-8.6,2c-3.9-1.8-7.2-4.2-7-8.9c0.3-12.1,3.3-23.6,9.4-34.1
		c2.1-3.7,3.9-7.8,7.1-10.9c1.6,0.4,2.4,1.5,2.5,3.1c0.8,3.9-0.6,7-3.1,10.2c-5.5,7-7.4,15.4-7.9,24.1c-0.1,2.4,0,4.9-2.5,6.4
		c4.8-2.6,7.7-7,10.2-11.6c2.8-5.4,4.3-11.2,5.1-17.2c0.3-1.8-0.1-4,1.8-5.3c4.1,3.5,3.2,8.2,2.6,12.5c-1.1,7.5-4.2,14.3-7.7,20.9
		C598,447.2,597.1,450,597.7,453.2z"/>
	<path class="st3" d="M585,495.2c-6.3,4.6-13.8,6.2-21.2,7.6c-5.9,1.1-12.6-8.6-10.7-15.3c2.8-9.9,9.6-15.7,19.1-18.6
		c0.6,2.9-3.8,4-2.6,7.1c-3.6,3.9-6.4,8.6-10.5,12.2c0.2,0.3,1.3,0.4,1.9,1.1c1.1,1,2.5,1.6,3.5,2.7c4.4,0.8,8.1-1.2,12-2.7
		c2.7-1.1,4.8-3.8,8.2-3.2c1,1.2,0.2,2.2-0.5,3C582.3,491.4,582.9,493.4,585,495.2z"/>
	<path class="st0" d="M588.8,546.8c0,0.4,0,0.7,0,1.1c-11.1-2.2-24.4-16.9-20.6-29.4c0.9-2.8,1.5-3.8,4.5-2.2
		c5.3,2.7,10.8,5,16.8,7.7C583.7,531.4,581.8,539.1,588.8,546.8z"/>
	<path class="st2" d="M597.7,453.2c-3.3-1.9-1.9-4.3-0.7-6.7c3.5-7.1,7.1-14,8.7-21.9c1-4.8,0.9-9.2-1.2-13.6
		c-2.1-1.8-3.1-4.3-3.9-6.9c-0.7-1-1.4-1.9-2.1-2.9c0.5-0.8,1.2-0.9,2-0.9c6.9,0.8,12.8,7.6,13.2,15.4c0.1,2,0.4,4.1-0.5,6.1
		c-1.2,10.2-6.6,18.6-11.9,27C600.4,450.4,598.9,451.8,597.7,453.2z"/>
	<path class="st2" d="M585,495.2c-4.4-0.1-4.6-2.4-2.7-5.5c0.7-1.2,1.7-2.2,2.6-3.3c-1.3-1.5-2.2,0.1-3.2,0.6
		c-4.8,2.5-9.6,5.1-15.1,5.8c-0.8,0.1-1.6,0.2-2.2-0.4c-1.5-0.3-3-0.7-4-2c0.6-0.8,1.5-1.3,2.4-1.5c11.2-2.6,19.6-9.5,27-17.8
		c0.6-0.7,1.3-1.4,2.4-1.5c6.3,3.9,7.2,10.6,2.4,17.9C592.1,490.7,588.8,493.2,585,495.2z"/>
	<path class="st4" d="M688.5,428.8c-0.3,0.9-0.9,1.6-1.9,1.8c-19.3-14.6-40.5-25.7-63.4-33.7c-2.5-0.9-5-1.4-7.4-2.4
		c-1.7-0.8-3.9-1.3-3.6-3.9c0.7-1.2,1.9-0.8,3-0.9c6.3-0.7,12.1,1.4,17.7,3.8c18.8,7.8,36.5,17.6,52.4,30.4
		C686.9,425.1,689,426.1,688.5,428.8z"/>
	<path class="st3" d="M689.5,359.4c4.3,3.2,0.5,5.9-1,8.1c-4.2,5.9-8.8,11.5-12.5,17.7c-3.5,5.8-6.7,11.7-8.9,18.1
		c-4.6-1.3-5.4-3.4-3.1-8c5.4-10.9,11.5-21.3,19.1-30.8C684.8,362.3,686.8,360.4,689.5,359.4z"/>
	<path class="st5" d="M705.1,361.3c0.2,1.5-0.3,2.9-1.1,4.2c-8.5,13.1-17,26.2-25.8,39.1c-0.2-5.5,2.8-9.7,5.2-14.1
		c4-7.3,9.3-13.9,12.4-21.8c1.3-3.3,1.4-5.7-0.9-8.3c-1.2-1.3-1.9-3-0.6-4.8C700.1,352.6,702.9,354.2,705.1,361.3z"/>
	<path class="st6" d="M688.5,428.8c-2.4-3.7-6.2-6.2-9.7-8.6c-15.1-10.3-30.9-19.3-47.8-26.5c-5.1-2.2-10.5-3.1-15.9-4
		c5.9-2.8,11.2,0.4,16.3,2.1c18,6.3,35.3,14.1,51,25.1C687.7,420.6,689.9,424.7,688.5,428.8z"/>
	<path class="st0" d="M612.2,390.6c3.6,4.5,9.3,4.1,14,5.9c18.2,7,35.8,15,51.7,26.4c3.1,2.3,5.8,5,8.8,7.6
		c-6.6-2.6-12.1-7.2-18.2-10.7c-15.9-9.3-32.5-17.2-50.4-21.9c-0.9-0.2-1.9-0.3-2.9-0.4C610.8,396.9,609.8,394.8,612.2,390.6z"/>
	<path class="st0" d="M680.8,434.6c-11-6.9-21.9-14.2-34.1-19c-3.9-1.5-7.4-2.1-11,0.4c0.4-1.4,0.7-2.8,1.2-4.2
		c0.8-2.5,2.4-3.3,4.9-2.1c13,6.6,26.3,12.5,38.4,20.8C681.9,431.8,682.7,432.9,680.8,434.6z"/>
	<path class="st3" d="M584.1,511.6c-6.4,3.3-9.5,2.4-13.2-3.7c-1.5-2.6-0.6-3.4,1.8-3.9c6.8-1.5,12.7-4.7,18.1-8.8
		c1,1.3,0.4,2.5-0.3,3.6C587.6,502.6,586.2,507.3,584.1,511.6z"/>
	<path class="st7" d="M594.7,487.3c2.4-6.4,3.3-12.6-2.8-17.7c-1.2-0.4-2.1-1.6-3.5-1.7c-2.4-0.9-5.3-0.3-7.4-2.2
		c8-4,15.7-0.6,18.6,6.6C601.7,477.6,600.2,482.9,594.7,487.3z"/>
	<path class="st2" d="M584.1,511.6c-0.2-4.4,1.9-8,4.1-11.5c1-1.6,2.6-2.9,2.7-5c2.4-2.1,4.8-4.3,7.8-6.9
		C596.5,498.4,590.9,505.4,584.1,511.6z"/>
	<path class="st2" d="M613.2,435.5c2.8-8,5.4-16,5.7-24.5c4,10.7,0.3,20.2-4.6,29.6C610.9,439.5,613.1,437.3,613.2,435.5z"/>
	<path class="st8" d="M639.3,384.6c0.2-2.3,1.1-4.1,2-5.9c1.1-2.5,2.9-3.9,5.5-3.6c2.9,0.3,4.9,2.1,6,4.8c1.1,2.7,0.6,5.3-0.9,7.7
		c-0.8,1.2-1.5,0.5-2.3-0.1C646.6,385.3,643.2,384.1,639.3,384.6z"/>
	<path class="st2" d="M581.1,465.8c3.1-0.5,5.9,0.7,8.9,1.1c0.9,2-0.6,2.7-2,3c-5.9,1.1-11.3,3.4-16.7,5.9c-0.6,0.3-1.3,0.1-1.9-0.2
		c-2-0.2-2.1-1.1-0.9-2.5c1.3-1.4,2.6-2.8,3.9-4.3C575.1,467.4,577.6,465.4,581.1,465.8z"/>
	<path class="st7" d="M613.3,421.9c-0.2-9.6-3-17.5-12.7-21.5c5.8-2.1,13.9,3.6,14.6,10.6C615.5,414.7,615,418.4,613.3,421.9z"/>
	<path class="st3" d="M613.2,435.5c0.4,1.7-0.6,3.7,1.1,5c-3,5.3-4.6,11.7-12.6,13.9C605.9,447.6,609.5,441.6,613.2,435.5z"/>
	<path class="st7" d="M651.8,395.4c-5.7-0.8-8.6-5.9-14.4-7.2C645.7,387.4,649.6,389.5,651.8,395.4z"/>
	<path d="M628.9,448.2c0.8-0.8,1.7-1.5,2.5-2.3c9.4-8.3,25.6-4.7,31,6.8c0.8,1.8,0.4,3.5,0.8,5.2c-1.1,2.8-1.7,5.6-1.3,8.8
		c0.4,3-0.9,6-2.2,8.8c-3.5,7.1-7.1,14.2-11.8,20.6c-2.4,3.3-4.1,7-5.4,10.8c-3.5,10.3-10.1,14-20.3,10.4c-5.6-2-12.4-3.8-12.6-11.6
		c-0.1-3.3,0.8-6.7,1.6-10c3.8-15.8,8.9-31.1,17.1-45.2C628.6,449.9,628.7,449,628.9,448.2z"/>
	<path class="st6" d="M643,419.8c12,2.2,21,9.8,31,15.6c1.5,0.9,2.2,2.3,1.2,4.2c-1.3,2.4-2.3,5-3.8,7.3c-2,3.1-4.5,3-6.2-0.4
		c-1-1.8-1.6-3.9-1.9-5.9c-0.8-5.8-4.6-9.5-8.9-12.8C650.7,425,646.8,422.5,643,419.8z"/>
	<path class="st4" d="M626.9,545c-9.7,4.2-25.6,1.6-32.6-5.1c-0.9-0.9-1.5-2.1-2.1-3.2c-0.9-1.8-2.4-3.9-0.3-5.7
		c1.8-1.6,3.6-0.3,5.4,0.5c7.5,3.3,15.1,6.5,22.6,9.9C622.1,542.4,624.3,543.7,626.9,545z"/>
	<path d="M600.6,404.2c2.8,1.4,3.1,4.3,3.9,6.9c-0.7,12.5-4,23.9-13,33.1c-2.3,2.3-4.4,3.3-7.3-0.3c4.3,1.1,4.6-1.2,4.7-4.2
		c0.2-10.7,2.9-20.5,10.3-28.5c1.3-1.4,1.8-2.7,0.4-4.3C598.5,405.4,599.7,404.8,600.6,404.2z"/>
	<path d="M569.3,475.6c5.6-3.1,11.4-5.7,17.8-6.7c1.3-0.2,2.6-0.1,2.8-1.9c1.4,0.4,1.9,1.4,2,2.7c-7.7,11-17.8,18.5-31.4,20.6
		c-1.2-0.8-2.4-1.4-3.5-2.3c-0.6-0.5-0.5-1.5,0-2.2c0.2-0.3,1-0.6,1.1-0.5c3.1,3.8,3.2-0.6,3.7-1.7
		C563.4,479.9,567.1,478.4,569.3,475.6z"/>
	<path class="st9" d="M564.5,492.3c7.2-0.9,13.5-4.2,19.7-7.7c0.7-0.4,1.5-1.8,2.3-0.5c0.5,1-0.7,1.6-1.5,2.2
		c-6.3,3-12.3,6.8-19.4,7.6c-0.7,0.1-1.9,1-2-0.6C563.5,493,564.2,492.6,564.5,492.3z"/>
	<path class="st10" d="M652.6,384.2c0-0.2-0.5,0.8-1.4,1.1c-1.1,0.3-1.4-0.7-1.8-1.7c-0.7-1.9-2-3.5-3.6-5c-0.4-0.4-1.6-0.8-0.7-1.8
		c0.5-0.6,1.1-1.1,2-0.7C650.1,377.6,652,379.6,652.6,384.2z"/>
	<path class="st11" d="M639.6,472.6c1-5.9,1.7-11.7,0.2-17.6c5-0.8,8.5,3,12.8,4.2c1.7,0.4,3.1,1.6,4.5,2.6c2.3,3,2.2,6.1,0.8,9.5
		c-5.1,12.5-12,23.9-21.1,33.9c-1.1,1.2-2.1,2.6-3.9,2.6c-4.3-1.8-5.5-3.7-4.7-8.1c0.9-5.2,3-10,5.8-14.4
		C636.5,481.4,638.3,477.2,639.6,472.6z"/>
	<path class="st3" d="M632.8,458c-4.4,11.1-8.7,22.3-13.3,33.3c-1.5,3.6-1.9,7.5-3,11.2c-0.7,2.2,0.9,3.3,2.4,4.2
		c3.8,2.2,7.9,3.7,12.2,4.7c3.1,0.7,4.7-1.5,6.8-3.1c-1,5.5-5.8,8.5-11.3,7.1c-2-0.5-4-1.2-6-2c-6.8-2.6-8.1-5.6-6.8-12.8
		c2.8-16.1,8.8-31,16-45.5c0.9-1.9,1.8-3.8,3.8-4.9C635.8,453,633.6,455.4,632.8,458z"/>
	<path class="st3" d="M621.7,495.3c4.6-13.1,8.6-26.5,16.5-38.3C638.4,472.1,631.3,484.2,621.7,495.3z"/>
	<path class="st3" d="M639.6,472.6c0.4,3.6-1.4,6.6-2.8,9.7c-2.5,5.4-5.7,10.5-7.2,16.5c-1,4.2-0.2,6.9,3.2,9.2
		c-5,0.7-8.7-2.3-12.8-4.2c-1.9-0.9-0.6-2.4,0.4-3.6c4.3-5,8.6-10,12.5-15.2C635.9,481,636.8,476.4,639.6,472.6z"/>
	<path class="st5" d="M638.7,445.3c2.7-2.6,5.6-0.6,8.1,0.1c5.3,1.5,9.8,4.5,12.8,9.4c0.8,1.3,1.1,2.5-0.2,3.4
		c-1.4,1.1-1.8-0.7-2.6-1.3c-1.5-1.2-2.9-2.5-4.4-3.8C648.2,449.8,642.5,449.2,638.7,445.3z"/>
	<path class="st2" d="M638.7,445.3c5,1.7,9.9,3.8,13.7,7.8c-0.9-0.3-1.8-0.6-2.7-0.9c-9.6-3.3-11.9-3.3-15.3,4.6
		c-0.2,0.5-1,0.8-1.5,1.2c-0.5-2.7,1-5.2,0.9-7.9C634.4,447.5,635.9,445.8,638.7,445.3z"/>
	<path class="st7" d="M657.1,461.8c-6-1.7-11.6-4.5-17.3-6.8c3-4.2,6.4-1,9.1,0.1C652.1,456.4,655,458.8,657.1,461.8z"/>
	<path class="st12" d="M601.3,412c-1.1,9.9-3.5,18.3-9.4,26.6C592.3,428.3,594.8,420,601.3,412z"/>
	<path class="st12" d="M563.3,487.1c1.6-8.1,13.9-13.8,21.6-15.2c0.7-0.1,1.3-0.1,1.6,0.6c0.3,0.9-0.4,1.6-1,2
		C578.7,479.7,571.9,484.8,563.3,487.1z"/>
</g>
</svg>
