<?xml version="1.0" encoding="utf-8"?>
<!-- Generator: Adobe Illustrator 23.0.1, SVG Export Plug-In . SVG Version: 6.00 Build 0)  -->
<svg version="1.1" id="Layer_4" xmlns="http://www.w3.org/2000/svg" xmlns:xlink="http://www.w3.org/1999/xlink" x="0px" y="0px"
	 viewBox="0 0 1000 1000" style="enable-background:new 0 0 1000 1000;" xml:space="preserve">
<style type="text/css">
	.st0{fill:#32401C;}
	.st1{fill:#647E38;}
	.st2{fill:#4E4A30;}
	.st3{fill:#272518;}
	.st4{fill:#647F38;}
	.st5{fill:#9A925A;}
	.st6{fill:#9DC857;}
	.st7{fill:#9B925B;}
	.st8{fill:#F80000;}
	.st9{fill:#010101;}
	.st10{fill:#FEFEFE;}
	.st11{fill:#4F4A2C;}
	.st12{fill:#1A180E;}
</style>
<g>
	<path d="M657,409.3c1.7-3.2,3.1-5.4,4.1-7.8c5.8-13.1,13.9-24.6,24.7-34.1c2.1-1.9,4.4-3.8,6.8-5.1c6.9-3.9,17.3,1,20.3,9
		c2.9,8,2.3,15.2-2.9,22.3c-7.1,9.5-13.6,19.4-20.7,28.8c-1.9,2.5-2.2,3.9,0.2,5.9c1.9,1.6,3.5,3.4,5.2,5.2c6,6.5,6.9,13.1-0.6,18.2
		c-5.6,3.8-7.6,9.4-10.1,14.7c-5.4,11.3-10.1,22.9-15.2,34.3c-7.3,16.1-14,32.5-20.2,49c-2.1,5.7-4.6,11.2-5.4,17.5
		c-1.1,8.3-8.2,10.9-15.2,11.8c-16.7,2.3-32.9,0.4-48-7.4c-14.8-7.6-21.8-20.3-22-36.5c0-4.7-1-7.1-4.6-9.9
		c-4.3-3.3-8.1-7.3-9.5-13.3c-1.6-7.1,0.5-13.3,4-18.8c6.3-9.9,16.4-14.9,27.3-18.4c1.3-0.4,2.7,0.1,1.6-2.1
		c-6.9-13.6-2.4-26.5,2.6-39.2c2.8-7.2,6.9-13.8,11.8-19.8c2.4-3.1,5.5-5.9,9-6.8c3.1-0.7,4-2.5,5.1-4.6c2.6-4.8,9.4-7.8,14.6-6.4
		c0.3,0.1,0.5,0.5,0.8,0.5c3.5,0.9,7.2,3.1,10.4,2.4c3.5-0.7,3.3-5.7,4.7-8.8c2.1-4.7,5.5-7.8,10.3-7.9c4.9-0.1,8.8,2.5,11.5,7.1
		c3.1,5.1,3.4,9.9,0.5,15.1C657.2,405.3,655.9,406.3,657,409.3z"/>
	<path class="st0" d="M671.8,469.6c-3.7,8.4-7.3,16.9-11,25.3c-8.5,18.9-17,37.8-24,57.3c-1.1,3.2-2,4.4-5.8,2.6
		c-10.9-5-22-9.5-33-14.2c-3.1-1.3-4.1-2.4-2.7-6.3c10.9-29.1,22.7-57.8,33.9-86.8c0.3-0.9,1.1-1.6,1.6-2.4c1.7,1.9,0.8,3.9,0.2,5.9
		c-1.4,4.1-2.2,8.3-3.4,12.5c-0.6,2.1,1.2,0.5,1.5,1.2c1,2.2-0.4,3.7-1.3,5.4c-8,15.2-13.7,31.2-16.6,48.2
		c-1.1,6.2,0.4,8.9,5.9,11.9c2.5,1.3,5,2.4,7.7,3c7.3,1.6,13-1.2,15.5-8.2c2.5-7,6.4-13.1,10.4-19.2c4.2-6.4,8-13.1,9.6-20.6
		c0.8-3.5-0.9-7.5,1.9-10.8C665.1,472.1,667.3,468.7,671.8,469.6z"/>
	<path class="st1" d="M628.9,464.8c-0.8,0.5-1.6,0.9-2.6,1.5c0.1-7.5,4-13.9,4.6-21c1.2-4.4,2.6-8.7,4.9-12.7c2.7-4,6.3-3.4,10-2
		c8.5,3,16.2,7.4,23.8,12.1c2.8,1.7,5.6,3.3,8.3,5.1c1.3,0.8,3.2,1.2,2.9,3.4c-3,6.1-6,12.3-9,18.4c-3.4,0.7-5.7,3.3-8.6,4.9
		c-3.2-8.1-8.7-13.5-17.5-15.5c-4.6-1-8.2,0-11.6,2.9C632.6,463.2,631.5,465.4,628.9,464.8z"/>
	<path class="st0" d="M614.1,417.2c7.1,1.3,13.4,2.9,19.3,5.9c1.7,0.9,2.2,1.6,1.4,3.7c-9.3,22.9-18.9,45.8-27.3,69
		c-4.1,11.4-8.5,22.7-12.8,34.1c-3.2,8.4-0.7,9.5-12.2,3.9c7.1-4.3,10.9-11.2,15.2-17.7c2.5-3.8,3.7-7.9,3.9-12.3c0-1,0-2,0.2-2.9
		c2.8-14,1.8-16.5-10.4-23.9c3.4-1.8,6.8-3.2,10.4-3.3c4.5-0.1,8.2-2,10.4-5.5c6.3-9.9,10.9-20.6,11.9-32.5c0.4-5-0.9-9.2-4.9-12.5
		C617.3,421.7,615.4,420.2,614.1,417.2z"/>
	<path class="st0" d="M588.8,563.4c-0.4-2.1-0.5-4.2-1.2-6.1c-2.3-5.9,1.5-9.8,4.2-14.2c1.1-1.8,2.3-0.3,3.3,0.1
		c11.3,4.9,22.5,9.9,33.7,14.9c1.8,0.8,4.4,1.2,3.9,4.2c-0.5,2.9-0.9,5.9-4.1,7.2c-3.2,1.3-6.5,2.3-9.9,1.8
		c-8.9-1.2-17.9-2.2-26.6-4.9c-1.2-0.4-2.5-0.8-3.3-1.9C588.3,564.1,588.3,563.8,588.8,563.4z"/>
	<path class="st2" d="M689.5,376c1.2-1.8,2.4-3.7,4.9-3.9c0.3,0.4,0.4,0.9,0.6,1.3c5.2,7.5,1.7,14.1-2.1,20.7
		c-4.6,7.8-10.2,15.1-13.4,23.7c-0.2,0.6-0.7,1-0.5,1.7c-0.2,0.6,0.8-0.1,0.2,0c0.1-2.4,1.8-4.1,3-5.9c7.6-11.9,15.6-23.5,22.9-35.6
		c2,2.1,1,4.4-0.2,6.2c-8.6,13.1-17.4,26.1-26.1,39.1c-0.9,1.4-1.6,2.4-3.6,0.9c-2.5-1.8-5.4-2.9-8.2-4.3c-1.6-2.1,0.1-3.7,0.9-5.3
		c4.7-11,11.4-20.7,18.8-30C688.7,381.9,690.1,379.3,689.5,376z"/>
	<path class="st3" d="M597.7,469.8c-2.3,2.9-5.2,3.6-8.6,2c-3.9-1.8-7.2-4.2-7-8.9c0.3-12.1,3.3-23.6,9.4-34.1
		c2.1-3.7,3.9-7.8,7.1-10.9c1.6,0.4,2.4,1.5,2.5,3.1c0.8,3.9-0.6,7-3.1,10.2c-5.5,7-7.4,15.4-7.9,24.1c-0.1,2.4,0,4.9-2.5,6.4
		c4.8-2.6,7.7-7,10.2-11.6c2.8-5.4,4.3-11.2,5.1-17.2c0.3-1.8-0.1-4,1.8-5.3c4.1,3.5,3.2,8.2,2.6,12.5c-1.1,7.5-4.2,14.3-7.7,20.9
		C598,463.8,597.1,466.6,597.7,469.8z"/>
	<path class="st3" d="M585,511.8c-6.3,4.6-13.8,6.2-21.2,7.6c-5.9,1.1-12.6-8.6-10.7-15.3c2.8-9.9,9.6-15.7,19.1-18.6
		c0.6,2.9-3.8,4-2.6,7.1c-3.6,3.9-6.4,8.6-10.5,12.2c0.2,0.3,1.3,0.4,1.9,1.1c1.1,1,2.5,1.6,3.5,2.7c4.4,0.8,8.1-1.2,12-2.7
		c2.7-1.1,4.8-3.8,8.2-3.2c1,1.2,0.2,2.2-0.5,3C582.3,508,582.9,510,585,511.8z"/>
	<path class="st0" d="M588.8,563.4c0,0.4,0,0.7,0,1.1c-11.1-2.2-24.4-16.9-20.6-29.4c0.9-2.8,1.5-3.8,4.5-2.2
		c5.3,2.7,10.8,5,16.8,7.7C583.7,548,581.8,555.7,588.8,563.4z"/>
	<path class="st2" d="M600.6,420.8c-0.7-1-1.4-1.9-2.1-2.9c0.5-0.8,1.2-0.9,2-0.9c6.9,0.8,12.8,7.6,13.2,15.4c0.1,2,0.4,4.1-0.5,6.1
		c-1.2,10.2-6.6,18.6-11.9,27c-1,1.6-2.4,2.9-3.7,4.4c-3.3-1.9-1.9-4.3-0.7-6.7c3.5-7.1,7.1-14,8.7-21.9c1-4.8,0.9-9.2-1.2-13.6
		C602.4,425.8,601.5,423.3,600.6,420.8z"/>
	<path class="st2" d="M585,511.8c-4.4-0.1-4.6-2.4-2.7-5.5c0.7-1.2,1.7-2.2,2.6-3.3c-1.3-1.5-2.2,0.1-3.2,0.6
		c-4.8,2.5-9.6,5.1-15.1,5.8c-0.8,0.1-1.6,0.2-2.2-0.4c-1.5-0.3-3-0.7-4-2c0.6-0.8,1.5-1.3,2.4-1.5c11.2-2.6,19.6-9.5,27-17.8
		c0.6-0.7,1.3-1.4,2.4-1.5c6.3,3.9,7.2,10.6,2.4,17.9C592.1,507.3,588.8,509.8,585,511.8z"/>
	<path class="st4" d="M688.5,445.4c-0.3,0.9-0.9,1.6-1.9,1.8c-19.3-14.6-40.5-25.7-63.4-33.7c-2.5-0.9-5-1.4-7.4-2.4
		c-1.7-0.8-3.9-1.3-3.6-3.9c0.7-1.2,1.9-0.8,3-0.9c6.3-0.7,12.1,1.4,17.7,3.8c18.8,7.8,36.5,17.6,52.4,30.4
		C686.9,441.7,689,442.7,688.5,445.4z"/>
	<path class="st3" d="M689.5,376c4.3,3.2,0.5,5.9-1,8.1c-4.2,5.9-8.8,11.5-12.5,17.7c-3.5,5.8-6.7,11.7-8.9,18.1
		c-4.6-1.3-5.4-3.4-3.1-8c5.4-10.9,11.5-21.3,19.1-30.8C684.8,378.9,686.8,377,689.5,376z"/>
	<path class="st5" d="M705.1,377.9c0.2,1.5-0.3,2.9-1.1,4.2c-8.5,13.1-17,26.2-25.8,39.1c-0.2-5.5,2.8-9.7,5.2-14.1
		c4-7.3,9.3-13.9,12.4-21.8c1.3-3.3,1.4-5.7-0.9-8.3c-1.2-1.3-1.9-3-0.6-4.8C700.1,369.2,702.9,370.8,705.1,377.9z"/>
	<path class="st6" d="M688.5,445.4c-2.4-3.7-6.2-6.2-9.7-8.6c-15.1-10.3-30.9-19.3-47.8-26.5c-5.1-2.2-10.5-3.1-15.9-4
		c5.9-2.8,11.2,0.4,16.3,2.1c18,6.3,35.3,14.1,51,25.1C687.7,437.2,689.9,441.3,688.5,445.4z"/>
	<path class="st0" d="M612.2,407.2c3.6,4.5,9.3,4.1,14,5.9c18.2,7,35.8,15,51.7,26.4c3.1,2.3,5.8,5,8.8,7.6
		c-6.6-2.6-12.1-7.2-18.2-10.7c-15.9-9.3-32.5-17.2-50.4-21.9c-0.9-0.2-1.9-0.3-2.9-0.4C610.8,413.5,609.8,411.4,612.2,407.2z"/>
	<path class="st0" d="M680.8,451.2c-11-6.9-21.9-14.2-34.1-19c-3.9-1.5-7.4-2.1-11,0.4c0.4-1.4,0.7-2.8,1.2-4.2
		c0.8-2.5,2.4-3.3,4.9-2.1c13,6.6,26.3,12.5,38.4,20.8C681.9,448.4,682.7,449.5,680.8,451.2z"/>
	<path class="st3" d="M584.1,528.2c-6.4,3.3-9.5,2.4-13.2-3.7c-1.5-2.6-0.6-3.4,1.8-3.9c6.8-1.5,12.7-4.7,18.1-8.8
		c1,1.3,0.4,2.5-0.3,3.6C587.6,519.2,586.2,523.9,584.1,528.2z"/>
	<path class="st7" d="M594.7,503.9c2.4-6.4,3.3-12.6-2.8-17.7c-1.2-0.4-2.1-1.6-3.5-1.7c-2.4-0.9-5.3-0.3-7.4-2.2
		c8-4,15.7-0.6,18.6,6.6C601.7,494.2,600.2,499.5,594.7,503.9z"/>
	<path class="st2" d="M584.1,528.2c-0.2-4.4,1.9-8,4.1-11.5c1-1.6,2.6-2.9,2.7-5c2.4-2.1,4.8-4.3,7.8-6.9
		C596.5,515,590.9,522,584.1,528.2z"/>
	<path class="st2" d="M613.2,452.1c2.8-8,5.4-16,5.7-24.5c4,10.7,0.3,20.2-4.6,29.6C610.9,456.1,613.1,453.9,613.2,452.1z"/>
	<path class="st8" d="M639.4,401.4c0.2-2.3,0.9-4,1.7-5.7c1.1-2.6,2.9-4.4,5.8-4.1c2.9,0.3,4.9,2,6,4.8c1.1,2.7,0.6,5.3-0.9,7.7
		c-0.7,1.2-1.4,0.6-2.3,0C646.6,402,643.3,400.5,639.4,401.4z"/>
	<path class="st2" d="M581.1,482.4c3.1-0.5,5.9,0.7,8.9,1.1c0.9,2-0.6,2.7-2,3c-5.9,1.1-11.3,3.4-16.7,5.9c-0.6,0.3-1.3,0.1-1.9-0.2
		c-2-0.2-2.1-1.1-0.9-2.5c1.3-1.4,2.6-2.8,3.9-4.3C575.1,484,577.6,482,581.1,482.4z"/>
	<path class="st7" d="M613.3,438.5c-0.2-9.6-3-17.5-12.7-21.5c5.8-2.1,13.9,3.6,14.6,10.6C615.5,431.3,615,435,613.3,438.5z"/>
	<path class="st3" d="M613.2,452.1c0.4,1.7-0.6,3.7,1.1,5c-3,5.3-4.6,11.7-12.6,13.9C605.9,464.2,609.5,458.2,613.2,452.1z"/>
	<path class="st7" d="M651.9,412c-5.7-0.7-8.6-5.9-14.1-7.1C645.5,404,649.5,406,651.9,412z"/>
	<path d="M628.9,464.8c0.8-0.8,1.7-1.5,2.5-2.3c9.4-8.3,25.6-4.7,31,6.8c0.8,1.8,0.4,3.5,0.8,5.2c-1.1,2.8-1.7,5.6-1.3,8.8
		c0.4,3-0.9,6-2.2,8.8c-3.5,7.1-7.1,14.2-11.8,20.6c-2.4,3.3-4.1,7-5.4,10.8c-3.5,10.3-10.1,14-20.3,10.4c-5.6-2-12.4-3.8-12.6-11.6
		c-0.1-3.3,0.8-6.7,1.6-10c3.8-15.8,8.9-31.1,17.1-45.2C628.6,466.5,628.7,465.6,628.9,464.8z"/>
	<path class="st6" d="M642,435.6c9.9,2.1,17,7,24.4,11.5c1,0.6,1.9,1.2,2.8,1.9c7.3,4.9,7.7,7.2,2.3,14.6c-2.1,2.9-4.2,2.7-6.1-0.2
		c-0.4-0.7-1-1.4-1-2.2c-0.7-11.2-9-16.5-17.1-21.9C645.8,438.4,644.4,437.3,642,435.6z"/>
	<path class="st4" d="M627.3,561.9c-12.5,4.6-22.8,1.3-32.5-4.9c-1-0.6-1.7-1.9-2.3-3c-1-1.9-2.9-4.1-0.8-6.2
		c2.1-2.2,4.2-0.2,6.2,0.6c7.2,3.1,14.5,6.2,21.7,9.4C622,559,624.3,560.3,627.3,561.9z"/>
	<path d="M600.6,420.8c2.8,1.4,3.1,4.3,3.9,6.9c-0.7,12.5-4,23.9-13,33.1c-2.3,2.3-4.4,3.3-7.3-0.3c4.3,1.1,4.6-1.2,4.7-4.2
		c0.2-10.7,2.9-20.5,10.3-28.5c1.3-1.4,1.8-2.7,0.4-4.3C598.5,422,599.7,421.4,600.6,420.8z"/>
	<path d="M569.3,492.2c5.6-3.1,11.4-5.7,17.8-6.7c1.3-0.2,2.6-0.1,2.8-1.9c1.4,0.4,1.9,1.4,2,2.7c-7.7,11-17.8,18.5-31.4,20.6
		c-1.2-0.8-2.4-1.4-3.5-2.3c-0.6-0.5-0.5-1.5,0-2.2c0.2-0.3,1-0.6,1.1-0.5c3.1,3.8,3.2-0.6,3.7-1.7
		C563.4,496.5,567.1,495,569.3,492.2z"/>
	<path class="st9" d="M564.5,508.9c7.2-0.9,13.5-4.2,19.7-7.7c0.7-0.4,1.5-1.8,2.3-0.5c0.5,1-0.7,1.6-1.5,2.2
		c-6.3,3-12.3,6.8-19.4,7.6c-0.7,0.1-1.9,1-2-0.6C563.5,509.6,564.2,509.2,564.5,508.9z"/>
	<path class="st10" d="M652.1,398.1c0.4,2.4,0.1,3.4-0.9,3.7c-1.1,0.4-1.4-0.7-1.8-1.5c-0.8-1.7-1.7-3.3-3.2-4.7
		c-0.5-0.5-1.9-0.9-1.1-2.1c0.8-1.2,1.6-0.8,2.8-0.3C650.7,394.5,651.7,396.7,652.1,398.1z"/>
	<path class="st11" d="M657.1,478.4c2.3,3,2.2,6.1,0.8,9.5c-5.1,12.5-12,23.9-21.1,33.9c-1.1,1.2-2.1,2.6-3.9,2.6
		c-4.3-1.8-5.5-3.7-4.7-8.1c0.9-5.2,3-10,5.8-14.4c2.5-4,4.4-8.3,5.6-12.9c1-5.9,1.7-11.7,0.2-17.6c5-0.8,8.5,3,12.8,4.2
		C654.3,476.2,655.7,477.4,657.1,478.4z"/>
	<path class="st3" d="M632.8,474.6c-4.4,11.1-8.7,22.3-13.3,33.3c-1.5,3.6-1.9,7.5-3,11.2c-0.7,2.2,0.9,3.3,2.4,4.2
		c3.8,2.2,7.9,3.7,12.2,4.7c3.1,0.7,4.7-1.5,6.8-3.1c-1,5.5-5.8,8.5-11.3,7.1c-2-0.5-4-1.2-6-2c-6.8-2.6-8.1-5.6-6.8-12.8
		c2.8-16.1,8.8-31,16-45.5c0.9-1.9,1.8-3.8,3.8-4.9C635.8,469.6,633.6,472,632.8,474.6z"/>
	<path class="st3" d="M638.2,472.9c1.3,11-3.4,22.1-16.2,39C622.7,505.4,633.3,478.9,638.2,472.9z"/>
	<path class="st3" d="M639.6,489.2c0.4,3.6-1.4,6.6-2.8,9.7c-2.5,5.4-5.7,10.5-7.2,16.5c-1,4.2-0.2,6.9,3.2,9.2
		c-5,0.7-8.7-2.3-12.8-4.2c-1.9-0.9-0.6-2.4,0.4-3.6c4.3-5,8.6-10,12.5-15.2C635.9,497.6,636.8,493,639.6,489.2z"/>
	<path class="st5" d="M638.7,461.9c2.7-2.6,5.6-0.6,8.1,0.1c5.3,1.5,9.8,4.5,12.8,9.4c0.8,1.3,1.1,2.5-0.2,3.4
		c-1.4,1.1-1.8-0.7-2.6-1.3c-1.5-1.2-2.9-2.5-4.4-3.8C648.2,466.4,642.5,465.8,638.7,461.9z"/>
	<path class="st2" d="M638.7,461.9c5,1.7,9.9,3.8,13.7,7.8c-0.9-0.3-1.8-0.6-2.7-0.9c-9.6-3.3-11.9-3.3-15.3,4.6
		c-0.2,0.5-1,0.8-1.5,1.2c-0.5-2.7,1-5.2,0.9-7.9C634.4,464.1,635.9,462.4,638.7,461.9z"/>
	<path class="st7" d="M657.1,478.4c-6-1.7-11.6-4.5-17.3-6.8c3-4.2,6.4-1,9.1,0.1C652.1,473,655,475.4,657.1,478.4z"/>
	<path class="st12" d="M591.7,454.9c0.7-9.9,2.9-18.3,8.9-25.4C600.7,437.9,597.3,448.1,591.7,454.9z"/>
	<path class="st12" d="M563.1,503.8c2.3-8.8,14.8-14,21.8-15.3c0.6-0.1,1.4-0.1,1.5,0.8c0.2,0.9-0.5,1.5-1.1,2
		C578.7,496.4,571.9,501.3,563.1,503.8z"/>
</g>
</svg>
