<?xml version="1.0" encoding="utf-8"?>
<!-- Generator: Adobe Illustrator 23.0.1, SVG Export Plug-In . SVG Version: 6.00 Build 0)  -->
<svg version="1.1" id="Layer_4" xmlns="http://www.w3.org/2000/svg" xmlns:xlink="http://www.w3.org/1999/xlink" x="0px" y="0px"
	 viewBox="0 0 1000 1000" style="enable-background:new 0 0 1000 1000;" xml:space="preserve">
<style type="text/css">
	.st0{fill:#32401C;}
	.st1{fill:#647E38;}
	.st2{fill:#4E4A30;}
	.st3{fill:#272518;}
	.st4{fill:#647F38;}
	.st5{fill:#9DC857;}
	.st6{fill:#9A915A;}
	.st7{fill:#9B925B;}
	.st8{fill:#F80000;}
	.st9{fill:#FE0000;}
	.st10{fill:#010101;}
	.st11{fill:#FEFEFE;}
	.st12{fill:#4F4A2C;}
	.st13{fill:#9A925A;}
	.st14{fill:#1A180E;}
</style>
<g>
	<path d="M654.4,405c3-2.2,3.7-4.9,4.7-7.2c5.8-13,13.7-24.4,24.4-33.8c2.3-2,4.5-4.1,7.1-5.6c6.5-3.8,17,0.4,20,7.9
		c3.1,7.9,3.1,15.2-2.1,22.8c-6.9,10-14.2,19.7-21.3,29.5c-1.8,2.5-1.8,3.7,0.3,5.6c2,1.7,3.8,3.6,5.5,5.5
		c5.7,6.5,6.6,12.7-0.8,17.8c-5.6,3.8-7.6,9.3-10.1,14.6c-5.6,11.7-10.9,23.6-16,35.6c-6.8,16-13.7,31.9-19.6,48.2
		c-2.1,5.7-4.5,11.3-5.5,17.4c-1.3,8.4-8.5,10.6-15.4,11.6c-16.2,2.3-32,0.4-46.7-6.9c-15.3-7.5-23.1-20.5-22.9-37.4
		c0.1-4.8-1.2-6.8-4.6-9.5c-4.4-3.5-8.5-7.4-9.6-13.8c-1.2-7.2,0.5-13.4,4.4-19.1c7-10.2,17.6-14.8,29-18.5
		c-7.4-12.9-3.4-25.7,1.1-38.3c2.9-8.1,7.5-15.6,13-22.4c2.7-3.3,5.9-6.4,10.5-6.9c2.2-0.3,2.1-2,2.8-3.3c3.3-6.4,9.3-8.8,16.3-6.6
		c0.5,0.1,1,0,1.5,0.1c9.2,2.9,9.2,2.9,12.8-5.7c2-4.9,5.3-8.7,10.7-8.8c5.6-0.2,9.7,3.2,12.3,8.2c2.4,4.5,2.5,8.9,0,13.4
		C655.5,401.1,654.4,402.3,654.4,405z"/>
	<path class="st0" d="M669.8,465.7c-3.7,8.4-7.3,16.9-11,25.3c-8.5,18.9-17,37.8-24,57.3c-1.1,3.2-2,4.4-5.8,2.6
		c-10.9-5-22-9.5-33-14.2c-3.1-1.3-4.1-2.4-2.7-6.3c10.9-29.1,22.7-57.8,33.9-86.8c0.3-0.9,1.1-1.6,1.6-2.4c1.7,1.9,0.8,3.9,0.2,5.9
		c-1.4,4.1-2.2,8.3-3.4,12.5c-0.6,2.1,1.2,0.5,1.5,1.2c1,2.2-0.4,3.7-1.3,5.4c-8,15.2-13.7,31.2-16.6,48.2
		c-1.1,6.2,0.4,8.9,5.9,11.9c2.5,1.3,5,2.4,7.7,3c7.3,1.6,13-1.2,15.5-8.2c2.5-7,6.4-13.1,10.4-19.2c4.2-6.4,8-13.1,9.6-20.6
		c0.8-3.5-0.9-7.5,1.9-10.8C663.1,468.2,665.3,464.7,669.8,465.7z"/>
	<path class="st1" d="M669.8,465.7c-3.4,0.7-5.7,3.3-8.6,4.9c-3.2-8.1-8.7-13.5-17.5-15.5c-4.6-1-8.2,0-11.6,2.9
		c-1.5,1.3-2.6,3.5-5.2,2.9c-0.8,0.5-1.6,0.9-2.6,1.5c0.1-7.5,4-13.9,4.6-21c1.2-4.4,2.6-8.7,4.9-12.7c2.7-4,6.3-3.4,10-2
		c8.5,3,16.2,7.4,23.8,12.1c2.8,1.7,5.6,3.3,8.3,5.1c1.3,0.8,3.2,1.2,2.9,3.4C675.8,453.5,672.8,459.6,669.8,465.7z"/>
	<path class="st0" d="M580.3,530c7.1-4.3,10.8-10.9,15-17.1c5.3-8,5.2-17.2,6.1-26c0.5-5.1-3.8-8.7-8-11.4c-1.2-0.8-2.5-1.4-4.2-2.3
		c3.8-1.7,7.1-3.3,10.9-3.4c4.5-0.1,8.2-2.1,10.3-5.5c6.2-10,10.8-20.6,11.8-32.5c0.4-5-1.1-9.2-5-12.5c-1.7-1.5-3.8-2.9-4.6-5.9
		c6.7,1.4,13,2.8,18.8,5.8c1.8,0.9,2.6,1.7,1.6,4c-13,30.9-24.8,62.2-36.6,93.5c-1.6,4.2-3,8.5-4.5,12.8c-1.1,3-2.3,5.4-6.1,2.9
		C584.2,531.4,582.4,530.9,580.3,530z"/>
	<path class="st0" d="M586.9,559.5c-0.4-2.1-0.5-4.2-1.2-6.1c-2.3-5.9,1.5-9.8,4.2-14.2c1.1-1.8,2.3-0.3,3.3,0.1
		c11.3,4.9,22.5,9.9,33.7,14.9c1.8,0.8,4.4,1.2,3.9,4.2c-0.5,2.9-0.9,5.9-4.1,7.2c-3.2,1.3-6.5,2.3-9.9,1.8
		c-8.9-1.2-17.9-2.2-26.6-4.9c-1.2-0.4-2.5-0.8-3.3-1.9C586.4,560.2,586.4,559.9,586.9,559.5z"/>
	<path class="st2" d="M702.2,381c-8.4,12.8-16.9,25.5-25.3,38.3c-0.9,1.4-1.6,2.3-3.6,0.9c-2.5-1.8-5.4-2.9-8.1-4.3
		c-1.6-2.1,0.1-3.7,0.9-5.3c4.7-11,11.4-20.7,18.8-30c2-2.5,3.4-5.2,2.7-8.5c0.4-0.7,0.7-1.3,1.1-2c2.8-1.3,3.8,1.3,5.4,2.5
		c2.3,2.6,2.3,5.4,1.1,8.6c-2.4,6.1-5.8,11.6-9.4,17.1c-3.7,5.7-6.8,11.7-8.8,16.4c5.8-8.9,12.3-19.4,19.2-29.5c1.2-1.7,2-3.7,4-4.8
		C701,380.2,701.7,380.4,702.2,381z"/>
	<path class="st3" d="M595.8,465.9c-2.3,2.9-5.2,3.6-8.6,2c-3.9-1.8-7.2-4.2-7-8.9c0.3-12.1,3.3-23.6,9.4-34.1
		c2.1-3.7,3.9-7.8,7.1-10.9c1.6,0.4,2.4,1.5,2.5,3.1c0.8,3.9-0.6,7-3.1,10.2c-5.5,7-7.4,15.4-7.9,24.1c-0.1,2.4,0,4.9-2.5,6.4
		c4.8-2.6,7.7-7,10.2-11.6c2.8-5.4,4.3-11.2,5.1-17.2c0.3-1.8-0.1-4,1.8-5.3c4.1,3.5,3.2,8.2,2.6,12.5c-1.1,7.5-4.2,14.3-7.7,20.9
		C596.1,459.9,595.2,462.7,595.8,465.9z"/>
	<path class="st3" d="M583.1,507.9c-6.3,4.6-13.8,6.2-21.2,7.6c-5.9,1.1-12.6-8.6-10.7-15.3c2.8-9.9,9.6-15.7,19.1-18.6
		c0.6,2.9-3.8,4-2.6,7.1c-3.6,3.9-6.4,8.6-10.5,12.2c0.2,0.3,1.3,0.4,1.9,1.1c1.1,1,2.5,1.6,3.5,2.7c4.4,0.8,8.1-1.2,12-2.7
		c2.7-1.1,4.8-3.8,8.2-3.2c1,1.2,0.2,2.2-0.5,3C580.4,504.1,580.9,506.1,583.1,507.9z"/>
	<path class="st0" d="M586.9,559.5c0,0.4,0,0.7,0,1.1c-11.1-2.2-24.4-16.9-20.6-29.4c0.9-2.8,1.5-3.8,4.5-2.2
		c5.3,2.7,10.8,5,16.8,7.7C581.7,544.1,579.8,551.8,586.9,559.5z"/>
	<path class="st2" d="M598.7,416.9c-0.7-1-1.4-1.9-2.1-2.9c0.5-0.8,1.2-0.9,2-0.9c6.9,0.8,12.8,7.6,13.2,15.4c0.1,2,0.4,4.1-0.5,6.1
		c-1.2,10.2-6.6,18.6-11.9,27c-1,1.6-2.4,2.9-3.7,4.4c-3.3-1.9-1.9-4.3-0.7-6.7c3.5-7.1,7.1-14,8.7-21.9c1-4.8,0.9-9.2-1.2-13.6
		C600.5,421.9,599.6,419.4,598.7,416.9z"/>
	<path class="st2" d="M583.1,507.9c-4.4-0.1-4.6-2.4-2.7-5.5c0.7-1.2,1.7-2.2,2.6-3.3c-1.3-1.5-2.2,0.1-3.2,0.6
		c-4.8,2.5-9.6,5.1-15.1,5.8c-0.8,0.1-1.6,0.2-2.2-0.4c-1.5-0.3-3-0.7-4-2c0.6-0.8,1.5-1.3,2.4-1.5c11.2-2.6,19.6-9.5,27-17.8
		c0.6-0.7,1.3-1.4,2.4-1.5c6.3,3.9,7.2,10.6,2.4,17.9C590.2,503.4,586.9,505.9,583.1,507.9z"/>
	<path class="st4" d="M686.5,441.4c-0.3,0.9-0.9,1.6-1.9,1.8c-19.3-14.6-40.5-25.7-63.4-33.7c-2.5-0.9-5-1.4-7.4-2.4
		c-1.7-0.8-3.9-1.3-3.6-3.9c0.7-1.2,1.9-0.8,3-0.9c6.3-0.7,12.1,1.4,17.7,3.8c18.8,7.8,36.5,17.6,52.4,30.4
		C684.9,437.8,687,438.8,686.5,441.4z"/>
	<path class="st3" d="M687.5,372.1c4.3,3.2,0.5,5.9-1,8.1c-4.2,5.9-8.8,11.5-12.5,17.7c-3.5,5.8-6.7,11.7-8.9,18.1
		c-4.6-1.3-5.4-3.4-3.1-8c5.4-10.9,11.5-21.3,19.1-30.8C682.9,375,684.8,373.1,687.5,372.1z"/>
	<path class="st5" d="M686.5,441.4c-2.4-3.7-6.2-6.2-9.7-8.6c-15.1-10.3-30.9-19.3-47.8-26.5c-5.1-2.2-10.5-3.1-15.9-4
		c5.9-2.8,11.2,0.4,16.3,2.1c18,6.3,35.3,14.1,51,25.1C685.8,433.3,688,437.4,686.5,441.4z"/>
	<path class="st6" d="M700.2,381c-7.9,12.1-15.7,24.2-23.6,36.4c-0.4-5.7,2.5-10,5-14.6c4-7.3,9.2-13.9,12.3-21.8
		c1.3-3.2,1-5.5-0.7-8c-0.5-1.5-2.3-2.5-1.6-4.4c2.3-1.5,4.7-3.1,7.5-1c0.7,0.4,0.7,1.5,1.6,1.7c2.4,2.3,3,5.3,3,8.5
		C703.4,379.8,701,379.6,700.2,381z"/>
	<path class="st0" d="M610.2,403.3c3.6,4.5,9.3,4.1,14,5.9c18.2,7,35.8,15,51.7,26.4c3.1,2.3,5.8,5,8.8,7.6
		c-6.6-2.6-12.1-7.2-18.2-10.7c-15.9-9.3-32.5-17.2-50.4-21.9c-0.9-0.2-1.9-0.3-2.9-0.4C608.8,409.6,607.9,407.5,610.2,403.3z"/>
	<path class="st0" d="M678.8,447.3c-11-6.9-21.9-14.2-34.1-19c-3.9-1.5-7.4-2.1-11,0.4c0.4-1.4,0.7-2.8,1.2-4.2
		c0.8-2.5,2.4-3.3,4.9-2.1c13,6.6,26.3,12.5,38.4,20.8C680,444.5,680.8,445.6,678.8,447.3z"/>
	<path class="st3" d="M582.1,524.3c-6.4,3.3-9.5,2.4-13.2-3.7c-1.5-2.6-0.6-3.4,1.8-3.9c6.8-1.5,12.7-4.7,18.1-8.8
		c1,1.3,0.4,2.5-0.3,3.6C585.6,515.3,584.2,520,582.1,524.3z"/>
	<path class="st7" d="M592.8,500c2.4-6.4,3.3-12.6-2.8-17.7c-1.2-0.4-2.1-1.6-3.5-1.7c-2.4-0.9-5.3-0.3-7.4-2.2
		c8-4,15.7-0.6,18.6,6.6C599.7,490.3,598.3,495.6,592.8,500z"/>
	<path class="st2" d="M582.1,524.3c-0.2-4.4,1.9-8,4.1-11.5c1-1.6,2.6-2.9,2.7-5c2.4-2.1,4.8-4.3,7.8-6.9
		C594.6,511.1,588.9,518.1,582.1,524.3z"/>
	<path class="st2" d="M611.2,448.2c2.8-8,5.4-16,5.7-24.5c4,10.7,0.3,20.2-4.6,29.6C609,452.2,611.1,450,611.2,448.2z"/>
	<path class="st8" d="M637,397.5c0.8-2.2,1.4-3.8,2-5.5c1-2.6,2.7-4.4,5.6-4.3c2.9,0.2,4.9,1.8,6.1,4.6c1.2,2.8,0.7,5.3-0.6,7.7
		c-0.8,1.4-1.6,0.7-2.6,0C644.6,398.1,641.3,396.8,637,397.5z"/>
	<path class="st2" d="M579.1,478.5c3.1-0.5,5.9,0.7,8.9,1.1c0.9,2-0.6,2.7-2,3c-5.9,1.1-11.3,3.4-16.7,5.9c-0.6,0.3-1.3,0.1-1.9-0.2
		c-2-0.2-2.1-1.1-0.9-2.5c1.3-1.4,2.6-2.8,3.9-4.3C573.1,480.1,575.7,478.1,579.1,478.5z"/>
	<path class="st7" d="M611.3,434.6c-0.2-9.6-3-17.5-12.7-21.5c5.8-2.1,13.9,3.6,14.6,10.6C613.6,427.4,613,431.1,611.3,434.6z"/>
	<path class="st3" d="M611.2,448.2c0.4,1.7-0.6,3.7,1.1,5c-3,5.3-4.6,11.7-12.6,13.9C603.9,460.3,607.6,454.3,611.2,448.2z"/>
	<path class="st7" d="M634.8,400.8c9.1-0.7,13.2,1.6,14.7,7.2C644.3,407.4,641.3,402.2,634.8,400.8z"/>
	<path class="st9" d="M700.7,369.3c-0.7,0.4-1.5,0.8-2.2,1.3c0.2-1,0.4-2,0.6-2.9c1.3-1.9,0.4-5.1,3.7-5.8
		C702.7,364.4,702.2,367,700.7,369.3z"/>
	<path class="st9" d="M691.6,368.6c0.7,1.4,1.8,2.7,1.6,4.4c-1.8-0.6-2.4-3.1-4.6-2.9c-0.7-1.7-1.3-3.4-2-5.1
		C688,366.6,690.3,366.9,691.6,368.6z"/>
	<path class="st9" d="M700.2,381c-0.3-0.4-2-0.6-0.9-0.9c1.8-0.4,2.6-2.3,4.4-2.4c1.6,0.1,3.2,0.2,4.7,0.3c-2.6-0.1-3.6,3.3-6.3,2.9
		C701.5,381,700.9,381,700.2,381z"/>
	<path d="M627,460.9c0.8-0.8,1.7-1.5,2.5-2.3c9.4-8.3,25.6-4.7,31,6.8c0.8,1.8,0.4,3.5,0.8,5.2c-1.1,2.8-1.7,5.6-1.3,8.8
		c0.4,3-0.9,6-2.2,8.8c-3.5,7.1-7.1,14.2-11.8,20.6c-2.4,3.3-4.1,7-5.4,10.8c-3.5,10.3-10.1,14-20.3,10.4c-5.6-2-12.4-3.8-12.6-11.6
		c-0.1-3.3,0.8-6.7,1.6-10c3.8-15.8,8.9-31.1,17.1-45.2C626.6,462.6,626.7,461.7,627,460.9z"/>
	<path class="st5" d="M641.2,431.9c8.8,2,16,6.9,23.3,11.4c0.8,0.5,1.6,1,2.5,1.6c8,5.3,8.2,6.4,2.8,14.5c-2.2,3.3-4.6,3.2-6.6-0.4
		c-0.2-0.4-0.6-0.9-0.6-1.3c-0.9-11.7-9.5-17.3-18.1-22.9C643.3,434.1,641.7,433.8,641.2,431.9z"/>
	<path class="st4" d="M625.4,557.9c-12.6,4.9-22.6,1.4-32.3-4.5c-1.3-0.8-2.1-2-2.7-3.4c-0.9-2-2.8-4.1-0.7-6.2
		c1.9-1.9,3.9-0.3,5.8,0.6c7.4,3.2,14.8,6.4,22.2,9.7C620,555.1,622.3,556.3,625.4,557.9z"/>
	<path d="M598.7,416.9c2.8,1.4,3.1,4.3,3.9,6.9c-0.7,12.5-4,23.9-13,33.1c-2.3,2.3-4.4,3.3-7.3-0.3c4.3,1.1,4.6-1.2,4.7-4.2
		c0.2-10.7,2.9-20.5,10.3-28.5c1.3-1.4,1.8-2.7,0.4-4.3C596.5,418.1,597.7,417.5,598.7,416.9z"/>
	<path d="M567.4,488.3c5.6-3.1,11.4-5.7,17.8-6.7c1.3-0.2,2.6-0.1,2.8-1.9c1.4,0.4,1.9,1.4,2,2.7c-7.7,11-17.8,18.5-31.4,20.6
		c-1.2-0.8-2.4-1.4-3.5-2.3c-0.6-0.5-0.5-1.5,0-2.2c0.2-0.3,1-0.6,1.1-0.5c3.1,3.8,3.2-0.6,3.7-1.7
		C561.5,492.6,565.1,491.1,567.4,488.3z"/>
	<path class="st10" d="M562.5,505c7.2-0.9,13.5-4.2,19.7-7.7c0.7-0.4,1.5-1.8,2.3-0.5c0.5,1-0.7,1.6-1.5,2.2
		c-6.3,3-12.3,6.8-19.4,7.6c-0.7,0.1-1.9,1-2-0.6C561.6,505.7,562.2,505.3,562.5,505z"/>
	<path class="st11" d="M644.5,388.6c2.4,1.2,4.3,2.2,5.3,4.7c0.7,1.8,1.3,3.7-0.5,4.6c-1.8,0.8-1.9-1.7-2.4-2.7
		c-0.8-1.7-2.2-2.7-3.3-4c-0.3-0.4-1.2-0.7-0.5-1.5C643.6,389.2,644.1,388.9,644.5,388.6z"/>
	<path class="st12" d="M655.2,474.5c2.3,3,2.2,6.1,0.8,9.5c-5.1,12.5-12,23.9-21.1,33.9c-1.1,1.2-2.1,2.6-3.9,2.6
		c-4.3-1.8-5.5-3.7-4.7-8.1c0.9-5.2,3-10,5.8-14.4c2.5-4,4.4-8.3,5.6-12.9c1-5.9,1.7-11.7,0.2-17.6c5-0.8,8.5,3,12.8,4.2
		C652.3,472.3,653.7,473.5,655.2,474.5z"/>
	<path class="st3" d="M630.9,470.7c-4.4,11.1-8.7,22.3-13.3,33.3c-1.5,3.6-1.9,7.5-3,11.2c-0.7,2.2,0.9,3.3,2.4,4.2
		c3.8,2.2,7.9,3.7,12.2,4.7c3.1,0.7,4.7-1.5,6.8-3.1c-1,5.5-5.8,8.5-11.3,7.1c-2-0.5-4-1.2-6-2c-6.8-2.6-8.1-5.6-6.8-12.8
		c2.8-16.1,8.8-31,16-45.5c0.9-1.9,1.8-3.8,3.8-4.9C633.8,465.7,631.7,468.1,630.9,470.7z"/>
	<path class="st3" d="M619.6,508.1c4.7-13.2,8.7-26.7,16.6-38.5C636.4,484.9,629.4,497.1,619.6,508.1z"/>
	<path class="st3" d="M637.6,485.3c0.4,3.6-1.4,6.6-2.8,9.7c-2.5,5.4-5.7,10.5-7.2,16.5c-1,4.2-0.2,6.9,3.2,9.2
		c-5,0.7-8.7-2.3-12.8-4.2c-1.9-0.9-0.6-2.4,0.4-3.6c4.3-5,8.6-10,12.5-15.2C633.9,493.7,634.9,489.1,637.6,485.3z"/>
	<path class="st13" d="M636.7,458c2.7-2.6,5.6-0.6,8.1,0.1c5.3,1.5,9.8,4.5,12.8,9.4c0.8,1.3,1.1,2.5-0.2,3.4
		c-1.4,1.1-1.8-0.7-2.6-1.3c-1.5-1.2-2.9-2.5-4.4-3.8C646.2,462.5,640.5,461.9,636.7,458z"/>
	<path class="st2" d="M636.7,458c5,1.7,9.9,3.8,13.7,7.8c-0.9-0.3-1.8-0.6-2.7-0.9c-9.6-3.3-11.9-3.3-15.3,4.6
		c-0.2,0.5-1,0.8-1.5,1.2c-0.5-2.7,1-5.2,0.9-7.9C632.4,460.2,634,458.5,636.7,458z"/>
	<path class="st7" d="M655.2,474.5c-6-1.7-11.6-4.5-17.3-6.8c3-4.2,6.4-1,9.1,0.1C650.1,469.1,653,471.5,655.2,474.5z"/>
	<path class="st14" d="M599.3,424.8c-1,9.7-3.6,18-8.7,25.9C589.4,443.3,592.6,433.8,599.3,424.8z"/>
	<path class="st14" d="M560.5,500.2c5.5-10.5,14.1-13.9,24-15.2C578.3,492.2,570.5,496.8,560.5,500.2z"/>
</g>
</svg>
