<?xml version="1.0" encoding="utf-8"?>
<!-- Generator: Adobe Illustrator 23.0.1, SVG Export Plug-In . SVG Version: 6.00 Build 0)  -->
<svg version="1.1" id="Layer_4" xmlns="http://www.w3.org/2000/svg" xmlns:xlink="http://www.w3.org/1999/xlink" x="0px" y="0px"
	 viewBox="0 0 1000 1000" style="enable-background:new 0 0 1000 1000;" xml:space="preserve">
<style type="text/css">
	.st0{fill:#FE0000;}
	.st1{fill:#32401C;}
	.st2{fill:#647E38;}
	.st3{fill:#4E4A30;}
	.st4{fill:#272518;}
	.st5{fill:#1F1D13;}
	.st6{fill:#647F38;}
	.st7{fill:#9A925A;}
	.st8{fill:#9DC857;}
	.st9{fill:#9B925B;}
	.st10{fill:#F80000;}
	.st11{fill:#1A180E;}
	.st12{fill:#010101;}
	.st13{fill:#FEFEFE;}
	.st14{fill:#4F4A2C;}
</style>
<g>
	<path d="M710,377.1c-3.1,7.5-8.3,13.6-13,20.1c-3.8,5.3-7.7,10.4-11.7,15.6c-1.6,2.1-0.3,3.1,1,4.5c2.9,3.2,6.8,5.6,8.7,9.7
		c2.7,5.8,2,10.3-3.9,14c-5.8,3.6-7.5,9.4-10.1,14.7c-5.4,11.3-10.1,22.9-15.2,34.3c-7.3,16.1-14,32.4-20.2,49
		c-2.1,5.7-4.6,11.2-5.4,17.5c-1.1,8.3-8.2,10.9-15.2,11.8c-16.6,2.3-32.9,0.4-48-7.4c-14.8-7.6-21.8-20.3-22-36.5
		c-0.1-4.6-0.8-7.2-4.6-9.9c-4.3-3.1-7.9-7.2-9.5-12.8c-2-6.9,0.1-13.1,3.4-18.5c6.6-11,17.6-16.2,30.1-20c-3.4-5.5-4.7-11.7-4-18.3
		c1.6-14.5,7-27.6,15.8-39.3c3.5-4.7,7-9.4,13.6-10.3c0.8-0.1,1.4-2.2,2.1-3.4c3.1-5.9,9.3-8.4,15.7-6.4c1.6,0.5,3.3,0.9,5,1.3
		c7,1.6,7,1.6,9.3-5.2c0.9-2.7,2-5.3,4.2-7.3c4.5-4,10.4-4,15,0c5.9,5,7.3,12.1,4,19.1c-0.6,1.3-2,2.4-0.8,5.3
		c7.6-15.7,15-30.5,28.3-41.2c1.1,0.1,1.5,0.9,2.3,1.9c-0.8-1.5-1.5-2.7-0.4-3.9c1.5-1.3,3-2.7,4.7-3.7c4.3-2.7,8.7-2,13.1,0
		c0.3,1.6,1.2,2.2,2.8,1.8c5.2,4.7,6.6,11,7.2,17.6c1.5,1.8,1.3,3.2-1,4.1c-1.9,0.8-4,0.7-6,1.2c-0.6,0.3,0.5,0.7,0.1,0.2
		C706.9,375.7,708.5,375.6,710,377.1z"/>
	<path class="st0" d="M704.9,353.5c-1.4,1.2-2.9,2.4-4.9,4.2c0.9-2.5,1.5-4.2,2.1-6c-0.3-1.4,4.7-2.7,0.1-4.1
		c-1-0.3-0.6-0.7-0.2-1.3c3.1-4.1,6.2-8.3,10-13.4c-0.3,5-2.7,8-3.5,11.5c0.9,0.1,2,0.3,3.4,0.5C709.6,348,706.3,350,704.9,353.5z"
		/>
	<path class="st0" d="M710,377.1c-2.1-0.1-4.2-0.2-6.3-0.3c1.5-2.6,4.4-2.3,6.3-2.5c3-0.3,2.1-1.7,2.1-3.2
		c5.6,0.8,11.1-1.7,16.9-0.8c-0.9,2.1-3.1,1.4-4.5,2.4c-1.6,1.1-5.5-0.7-4.3,3.8c0.2,0.9-1.3,0.4-1.9,0.5
		C715.5,377.1,712.7,377.1,710,377.1z"/>
	<path class="st0" d="M684.4,355.5c-0.3,2.4,1.9,4.1,1.9,7.2c-1.6-2.1-2.7-3.7-3.9-5.3c-0.7-1.2-1.4-2.4-2.1-3.5
		c-1,0.6-1.5,4.1-3.2,0.5c-2.1-4.3-4.2-8.6-6.9-14.1c2.7,2,3.8,3.6,5,5.1c0.8,1,1.4,4.6,4.5,2c1.2-1,1.1,1,1.5,1.5
		C682.7,350.8,682.5,353.6,684.4,355.5z"/>
	<path class="st1" d="M668.8,458.9c-3.7,8.4-7.3,16.9-11,25.3c-8.5,18.9-17,37.8-24,57.3c-1.1,3.2-2,4.4-5.8,2.6
		c-10.9-5-22-9.5-33-14.2c-3.1-1.3-4.1-2.4-2.7-6.3c10.9-29.1,22.7-57.8,33.9-86.8c0.3-0.9,1.1-1.6,1.6-2.4c1.7,1.9,0.8,3.9,0.2,5.9
		c-1.4,4.1-2.2,8.3-3.4,12.5c-0.6,2.1,1.2,0.5,1.5,1.2c1,2.2-0.4,3.7-1.3,5.4c-8,15.2-13.7,31.2-16.6,48.2
		c-1.1,6.2,0.4,8.9,5.9,11.9c2.5,1.3,5,2.4,7.7,3c7.3,1.6,13-1.2,15.5-8.2c2.5-7,6.4-13.1,10.4-19.2c4.2-6.4,8-13.1,9.6-20.6
		c0.8-3.5-0.9-7.5,1.9-10.8C662.1,461.3,664.3,457.9,668.8,458.9z"/>
	<path class="st2" d="M626,454.1c-0.8,0.5-1.6,0.9-2.6,1.5c0.1-7.5,4-13.9,4.6-21c1.2-4.4,2.6-8.7,4.9-12.7c2.7-4,6.3-3.4,10-2
		c8.5,3,16.2,7.4,23.8,12.1c2.8,1.7,5.6,3.3,8.3,5.1c1.3,0.8,3.2,1.2,2.9,3.4c-3,6.1-6,12.3-9,18.4c-3.4,0.7-5.7,3.3-8.6,4.9
		c-3.2-8.1-8.7-13.5-17.5-15.5c-4.6-1-8.2,0-11.6,2.9C629.6,452.5,628.6,454.7,626,454.1z"/>
	<path class="st1" d="M579.9,523.1c8.5-6.9,15.3-15.3,18.1-26.1c1.2-4.5,1.6-9.2,2.4-13.8c1.1-6.6-2.8-11-7.9-14.5
		c-1.2-0.8-2.6-1.4-4.3-2.3c3.5-2,6.9-3.3,10.5-3.4c4.7-0.2,8.5-2.1,10.7-5.7c6-9.7,10.5-20.1,11.6-31.6c0.5-5.3-0.8-9.9-5.2-13.4
		c-1.7-1.4-3.6-2.7-4.5-5.6c7,1.1,13.3,2.9,19.4,5.9c2.2,1.1,1.6,2.2,0.9,3.9c-7.1,17.6-14.2,35.1-21,52.7
		c-6.4,16.6-12.7,33.3-18.8,49.9C588.4,528.3,588.5,528.3,579.9,523.1z"/>
	<path class="st1" d="M585.9,552.7c-0.4-2.1-0.5-4.2-1.2-6.1c-2.3-5.9,1.5-9.8,4.2-14.2c1.1-1.8,2.3-0.3,3.3,0.1
		c11.3,4.9,22.5,9.9,33.7,14.9c1.8,0.8,4.4,1.2,3.9,4.2c-0.5,2.9-0.9,5.9-4.1,7.2c-3.2,1.3-6.5,2.3-9.9,1.8
		c-8.9-1.2-17.9-2.2-26.6-4.9c-1.2-0.4-2.5-0.8-3.3-1.9C585.4,553.4,585.4,553,585.9,552.7z"/>
	<path class="st3" d="M702.2,367.2c2,2.1,1,4.4-0.2,6.2c-8.6,13.1-17.4,26.1-26.1,39.1c-0.9,1.4-1.6,2.4-3.6,0.9
		c-2.5-1.8-5.4-2.9-8.2-4.3c-1.6-2.1,0.1-3.7,0.9-5.3c4.7-11,11.4-20.7,18.8-30c2-2.5,3.4-5.2,2.7-8.5c1.2-1.8,2.4-3.7,4.9-3.9
		c0.3,0.4,0.4,0.9,0.6,1.3c5.2,7.5,1.7,14.1-2.1,20.7c-4.6,7.8-10.2,15.1-13.4,23.7c-0.2,0.6-0.7,1-0.5,1.7c-0.2,0.6,0.8-0.1,0.2,0
		c0.1-2.4,1.8-4.1,3-5.9C686.9,390.9,694.9,379.3,702.2,367.2z"/>
	<path class="st4" d="M594.8,459.1c-2.3,2.9-5.2,3.6-8.6,2c-3.9-1.8-7.2-4.2-7-8.9c0.3-12.1,3.3-23.6,9.4-34.1
		c2.1-3.7,3.9-7.8,7.1-10.9c1.6,0.4,2.4,1.5,2.5,3.1c0.8,3.9-0.6,7-3.1,10.2c-5.5,7-7.4,15.4-7.9,24.1c-0.1,2.4,0,4.9-2.5,6.4
		c4.8-2.6,7.7-7,10.2-11.6c2.8-5.4,4.3-11.2,5.1-17.2c0.3-1.8-0.1-4,1.8-5.3c4.1,3.5,3.2,8.2,2.6,12.5c-1.1,7.5-4.2,14.3-7.7,20.9
		C595.1,453,594.2,455.9,594.8,459.1z"/>
	<path class="st5" d="M582.1,501.1c-6.3,4.6-13.8,6.2-21.2,7.6c-5.9,1.1-12.5-8.7-10.7-15.3c2.8-9.9,9.6-15.7,19.2-18.6
		c0.7,3-4,4-2.6,7.2c-3.6,3.9-6.4,8.5-10.5,12.2c0.2,0.3,1.3,0.4,1.9,1.1c1.1,1,2.5,1.6,3.5,2.7c4.4,0.8,8.1-1.2,12-2.7
		c2.7-1.1,4.8-3.8,8.2-3.2c1,1.2,0.2,2.2-0.5,3C579.4,497.3,580,499.2,582.1,501.1z"/>
	<path class="st1" d="M585.9,552.7c0,0.4,0,0.7,0,1.1c-11.1-2.2-24.4-16.9-20.6-29.4c0.9-2.8,1.5-3.8,4.5-2.2
		c5.3,2.7,10.8,5,16.8,7.7C580.8,537.3,578.9,544.9,585.9,552.7z"/>
	<path class="st3" d="M594.8,459.1c-3.3-1.9-1.9-4.3-0.7-6.7c3.5-7.1,7.1-14,8.7-21.9c1-4.8,0.9-9.2-1.2-13.6
		c-2.1-1.8-3.1-4.3-3.9-6.9c-0.7-1-1.4-1.9-2.1-2.9c0.5-0.8,1.2-0.9,2-0.9c6.9,0.8,12.8,7.6,13.2,15.4c0.1,2,0.4,4.1-0.5,6.1
		c-1.2,10.2-6.6,18.6-11.9,27C597.4,456.3,596,457.6,594.8,459.1z"/>
	<path class="st3" d="M561.6,498.2c-1.5-0.3-2.9-0.7-3.9-2c0.6-0.8,1.4-1.4,2.4-1.6c11.2-2.6,19.6-9.5,27-17.9
		c0.6-0.7,1.3-1.4,2.4-1.5c6.3,3.9,7.2,10.6,2.4,17.9c-2.6,3.4-5.9,5.9-9.7,7.9c-4.4-0.2-4.7-2.4-2.7-5.6c0.7-1.2,1.7-2.2,2.6-3.3
		c-1.9-1.7-2.8,0.5-4,1.1C572.7,495.6,567.8,499.1,561.6,498.2z"/>
	<path class="st6" d="M609.2,396.4c0.7-1.2,1.9-0.8,3-0.9c6.3-0.7,12.1,1.4,17.7,3.8c18.8,7.8,36.5,17.6,52.4,30.4
		c1.6,1.3,3.7,2.3,3.2,4.9c-0.3,0.9-0.9,1.6-1.9,1.8c-19.3-14.6-40.5-25.7-63.4-33.7c-2.5-0.9-5-1.4-7.4-2.4
		C611.1,399.6,609,399.1,609.2,396.4z"/>
	<path class="st4" d="M686.5,365.2c4.3,3.2,0.5,5.9-1,8.1c-4.2,5.9-8.8,11.5-12.5,17.7c-3.5,5.8-6.7,11.7-8.9,18.1
		c-4.6-1.3-5.4-3.4-3.1-8c5.4-10.9,11.5-21.3,19.1-30.8C681.9,368.1,683.9,366.2,686.5,365.2z"/>
	<path class="st7" d="M702.2,367.2c0.2,1.5-0.3,2.9-1.1,4.2c-8.5,13.1-17,26.2-25.8,39.1c-0.2-5.5,2.8-9.7,5.2-14.1
		c4-7.3,9.3-13.9,12.4-21.8c1.3-3.3,1.4-5.7-0.9-8.3c-1.2-1.3-1.9-3-0.6-4.8C697.1,358.5,700,360,702.2,367.2z"/>
	<path class="st8" d="M685.6,434.6c-2.4-3.7-6.2-6.2-9.7-8.6c-15.1-10.3-30.9-19.3-47.8-26.5c-5.1-2.2-10.5-3.1-15.9-4
		c5.9-2.8,11.2,0.4,16.3,2.1c18,6.3,35.3,14.1,51,25.1C684.8,426.5,687,430.6,685.6,434.6z"/>
	<path class="st1" d="M609.2,396.4c3.6,4.5,9.3,4.1,14,5.9c18.2,7,35.8,15,51.7,26.4c3.1,2.3,5.8,5,8.8,7.6
		c-6.6-2.6-12.1-7.2-18.2-10.7c-15.9-9.3-32.5-17.2-50.4-21.9c-0.9-0.2-1.9-0.3-2.9-0.4C607.8,402.8,606.9,400.7,609.2,396.4z"/>
	<path class="st1" d="M677.9,440.5c-11-6.9-21.9-14.2-34.1-19c-3.9-1.5-7.4-2.1-11,0.4c0.4-1.4,0.7-2.8,1.2-4.2
		c0.8-2.5,2.4-3.3,4.9-2.1c13,6.6,26.3,12.5,38.4,20.8C679,437.7,679.8,438.8,677.9,440.5z"/>
	<path class="st4" d="M581.1,517.5c-6.4,3.3-9.5,2.4-13.2-3.7c-1.5-2.6-0.6-3.4,1.8-3.9c6.8-1.5,12.7-4.7,18.1-8.8
		c1,1.3,0.4,2.5-0.3,3.6C584.6,508.5,583.2,513.1,581.1,517.5z"/>
	<path class="st9" d="M591.8,493.2c2.5-6.4,3.2-12.6-2.8-17.7c-1.3-0.3-2.2-1.5-3.5-1.6c-2.4-0.9-5.3-0.3-7.4-2.2
		c8-4,15.7-0.6,18.6,6.6C598.8,483.5,597.3,488.7,591.8,493.2z"/>
	<path class="st3" d="M581.1,517.5c-0.2-4.4,1.9-8,4.1-11.5c1-1.6,2.6-2.9,2.7-5c2.4-2.1,4.8-4.3,7.8-6.9
		C593.6,504.2,587.9,511.2,581.1,517.5z"/>
	<path class="st3" d="M610.3,441.4c2.8-8,5.4-16,5.7-24.5c4,10.7,0.3,20.2-4.6,29.6C608,445.4,610.2,443.1,610.3,441.4z"/>
	<path class="st10" d="M650.4,387.4c0,6.1-1.4,7.1-5.5,5c-1.3-0.7-2.5-1.3-3.8-1.8c-1.5-0.6-4.3,0.8-4.4-0.9
		c-0.2-2.8,1.3-5.6,3.4-7.6c1.4-1.3,3.4-1.9,5.7-0.7C648.9,383.1,650.3,385.4,650.4,387.4z"/>
	<path class="st3" d="M578.1,471.7c3-0.5,5.9,0.7,8.8,1c0.7,1,0.4,2.2-0.6,2.4c-6.9,1.5-13,5.3-20,6.2c-1.6,0-2.2-0.6-1.1-2
		c1.3-1.6,2.8-3.1,4.2-4.6C572.2,473.3,574.7,471.2,578.1,471.7z"/>
	<path class="st9" d="M610.4,427.7c-0.2-9.6-3-17.5-12.7-21.5c5.8-2.1,13.9,3.6,14.6,10.6C612.6,420.6,612.1,424.3,610.4,427.7z"/>
	<path class="st4" d="M610.3,441.4c0.4,1.7-0.6,3.7,1.1,5c-4.7,10.1-6.4,12-12.3,13.5C603,453.5,606.6,447.4,610.3,441.4z"/>
	<path class="st9" d="M633.9,394c9.1-0.7,13.2,1.6,14.7,7.2C643.3,400.5,640.4,395.4,633.9,394z"/>
	<path d="M626,454.1c0.8-0.8,1.7-1.5,2.5-2.3c9.4-8.3,25.6-4.7,31,6.8c0.8,1.8,0.4,3.5,0.8,5.2c-1.1,2.8-1.7,5.6-1.3,8.8
		c0.4,3-0.9,6-2.2,8.8c-3.5,7.1-7.1,14.2-11.8,20.6c-2.4,3.3-4.1,7-5.4,10.8c-3.5,10.3-10.1,14-20.3,10.4c-5.6-2-12.4-3.8-12.6-11.6
		c-0.1-3.3,0.8-6.7,1.6-10c3.8-15.8,8.9-31.1,17.1-45.2C625.7,455.7,625.7,454.9,626,454.1z"/>
	<path class="st8" d="M639.1,424.9c9.9,2.1,17,7,24.4,11.5c1,0.6,1.9,1.2,2.8,1.9c7.3,4.9,7.7,7.2,2.3,14.6
		c-2.1,2.9-4.2,2.7-6.1-0.2c-0.4-0.7-1-1.4-1-2.2c-0.7-11.2-9-16.5-17.1-21.9C642.9,427.6,641.5,426.6,639.1,424.9z"/>
	<path class="st6" d="M623.4,550.3c-11.9,5.5-22.3,2.2-32.1-4.6c-1.1-0.8-1.7-2.3-2.3-3.6c-0.9-1.7-1.9-3.6,0-5.3
		c1.6-1.4,3.3-0.4,5,0.3C603.7,541.6,613.6,545.9,623.4,550.3z"/>
	<path d="M597.7,410.1c2.8,1.4,3.1,4.3,3.9,6.9c-0.7,12.5-4,23.9-13,33.1c-2.3,2.3-4.4,3.3-7.3-0.3c4.3,1.1,4.6-1.2,4.7-4.2
		c0.2-10.7,2.9-20.5,10.3-28.5c1.3-1.4,1.8-2.7,0.4-4.3C595.5,411.2,596.7,410.7,597.7,410.1z"/>
	<path class="st11" d="M566.4,481.3c5.7-2.9,11.4-5.7,17.8-6.6c1.3-0.2,2.6-0.2,2.8-1.9c1.5,0.3,2,1.4,2.1,2.7
		c-7.6,11.2-17.8,18.6-31.4,20.7c-1.2-0.8-2.4-1.4-3.5-2.4c-0.6-0.6-0.5-1.5,0-2.2c0.2-0.3,1-0.6,1.1-0.5c3.2,3.6,3.2-0.7,3.7-1.7
		C560.5,485.7,564.3,484.3,566.4,481.3z"/>
	<path class="st12" d="M561.6,498.2c7.2-1,13.5-4.2,19.7-7.7c0.7-0.4,1.5-1.8,2.3-0.5c0.5,1-0.7,1.6-1.5,2.2
		c-6.3,3-12.2,6.8-19.4,7.6c-0.7,0.1-1.8,1-2-0.6C560.6,498.9,561.2,498.5,561.6,498.2z"/>
	<path class="st13" d="M649.4,388.6c0.1,1.1-0.2,2.1-1.1,2.5c-1.2,0.4-1.5-0.7-1.8-1.5c-0.8-1.9-1.9-3.6-3.5-5
		c-0.5-0.4-1.6-0.8-0.8-1.8c0.6-0.8,1.2-1.1,2.4-0.6C647.4,383.5,648.9,385.7,649.4,388.6z"/>
	<path class="st14" d="M636.6,478.5c1-5.9,1.7-11.7,0.2-17.6c5-0.8,8.5,3,12.8,4.2c1.7,0.4,3.1,1.6,4.5,2.6c2.3,3,2.2,6.1,0.8,9.5
		c-5.1,12.5-12,23.9-21.1,33.9c-1.1,1.2-2.1,2.6-3.9,2.6c-4.3-1.8-5.5-3.7-4.7-8.1c0.9-5.2,3-10,5.8-14.4
		C633.6,487.3,635.4,483,636.6,478.5z"/>
	<path class="st4" d="M629.9,463.9c-4.4,11.1-8.7,22.3-13.3,33.3c-1.5,3.6-1.9,7.5-3,11.2c-0.7,2.2,0.9,3.3,2.4,4.2
		c3.8,2.2,7.9,3.6,12.2,4.7c3.1,0.8,4.7-1.7,6.8-3c-1,5.3-5.7,8.3-11.3,7c-2-0.5-4-1.2-6-2c-6.8-2.6-8.1-5.6-6.8-12.8
		c2.8-16.1,8.8-31,16-45.5c0.9-1.9,1.8-3.8,3.8-4.9C632.8,458.9,630.7,461.3,629.9,463.9z"/>
	<path class="st4" d="M618.7,501.1c4.6-13.2,8.6-26.6,16.5-38.3C635.5,478,628.4,490.1,618.7,501.1z"/>
	<path class="st4" d="M636.6,478.5c0.4,3.6-1.4,6.6-2.8,9.7c-2.5,5.4-5.7,10.5-7.2,16.5c-1,4.2-0.2,6.9,3.2,9.2
		c-5,0.7-8.7-2.3-12.8-4.2c-1.9-0.9-0.6-2.4,0.4-3.6c4.3-5,8.6-10,12.5-15.2C633,486.9,633.9,482.2,636.6,478.5z"/>
	<path class="st7" d="M635.7,451.2c2.7-2.6,5.6-0.6,8.1,0.1c5.3,1.5,9.8,4.5,12.8,9.4c0.8,1.3,1.1,2.5-0.2,3.4
		c-1.4,1.1-1.8-0.7-2.6-1.3c-1.5-1.2-2.9-2.5-4.4-3.8C645.3,455.7,639.5,455.1,635.7,451.2z"/>
	<path class="st3" d="M635.7,451.2c5,1.7,9.9,3.8,13.7,7.8c-0.9-0.3-1.8-0.6-2.7-0.9c-9.6-3.3-11.9-3.3-15.3,4.6
		c-0.2,0.5-1,0.8-1.5,1.2c-0.5-2.7,1-5.2,0.9-7.9C631.5,453.4,633,451.6,635.7,451.2z"/>
	<path class="st9" d="M654.2,467.7c-6-1.7-11.6-4.5-17.3-6.8c3-4.2,6.4-1,9.1,0.1C649.1,462.3,652.1,464.7,654.2,467.7z"/>
	<path class="st11" d="M588.8,444.1c0.7-9.9,3-18.3,8.9-25.5C597.7,427.5,594.3,437.5,588.8,444.1z"/>
</g>
</svg>
