<?xml version="1.0" encoding="utf-8"?>
<!-- Generator: Adobe Illustrator 23.0.1, SVG Export Plug-In . SVG Version: 6.00 Build 0)  -->
<svg version="1.1" id="Layer_4" xmlns="http://www.w3.org/2000/svg" xmlns:xlink="http://www.w3.org/1999/xlink" x="0px" y="0px"
	 viewBox="0 0 1000 1000" style="enable-background:new 0 0 1000 1000;" xml:space="preserve">
<style type="text/css">
	.st0{fill:#FE0000;}
	.st1{fill:#32401C;}
	.st2{fill:#647E38;}
	.st3{fill:#4E4A30;}
	.st4{fill:#272518;}
	.st5{fill:#647F38;}
	.st6{fill:#9A925A;}
	.st7{fill:#9DC857;}
	.st8{fill:#9B925B;}
	.st9{fill:#F80000;}
	.st10{fill:#010101;}
	.st11{fill:#FEFEFE;}
	.st12{fill:#4F4A2C;}
	.st13{fill:#1A180E;}
</style>
<g>
	<path d="M707.8,370.3c-8.1,11.2-16.2,22.4-24.3,33.6c-1.3,1.8-1,2.8,0.4,4.1c2,1.9,4,3.8,5.9,5.9c6.1,6.6,6.9,13.1-0.5,18.1
		c-5.6,3.8-7.6,9.4-10.1,14.7c-5.5,11.4-10.4,23.1-15.5,34.7c-7.1,16.2-14,32.5-20.1,49.1c-2.1,5.7-4.5,11.3-5.5,17.4
		c-1.3,8.5-8.5,10.5-15.4,11.6c-16.2,2.4-32,0.4-46.7-6.9c-15.3-7.5-23.1-20.5-22.9-37.4c0.1-4.8-1.2-6.8-4.6-9.5
		c-4.4-3.5-8.5-7.4-9.6-13.8c-1.2-7,0.5-13.1,4.2-18.7c6.9-10.4,17.6-15.3,29.2-18.9c-7.3-13.4-3.3-26.6,1.7-39.5
		c2.9-7.5,7-14.4,12.1-20.7c2.8-3.5,6.1-6.7,10.8-7.3c2.2-0.3,2.2-2,2.8-3.2c3.4-6.5,9.2-8.9,16.3-6.7c0.3,0.1,0.7,0,1,0.1
		c9.7,3,9.8,3.1,13.6-6c2-4.8,5.3-8.3,10.4-8.5c5.6-0.2,9.7,3.1,12.4,8.1c2.5,4.7,2.5,9.2-0.1,13.8c-0.7,1.3-1.7,2.5-1,4.4
		c7.2-14.2,14.9-28,26.5-39.1l-0.1,0.1c2.4-1.2,4.1-3.4,6.3-5c8.2-6,19.8-2.7,23.2,7c2.2,6.3,2.9,12.5-0.3,18.7L707.8,370.3z"/>
	<path class="st0" d="M707.7,370.4c5.4-1.1,10.9-2.2,16.3-3.2c1.4-0.3,3.2,0.6,3.9-1.1c0.6-1.5-1.7-2-2.1-3.6
		c10.6-1.1,21-2.2,31.4-3.3c-6,4-13,5-19.7,7.3c1,1.6,2.1,3.3,3.4,5.5c-11.4,0.2-22.3-0.6-33.2-1.7
		C707.8,370.3,707.7,370.4,707.7,370.4z"/>
	<path class="st0" d="M716.1,317.3c2.2,0,4.1,0,6.9,0c-7,8.1-13.6,15.7-20.2,23.4c-0.2-0.1-0.5-0.3-0.7-0.4c2.7-5.4,5.3-10.9,8-16.3
		c-1.3-1.4-2.9-0.3-4.9-1.2c6.3-8.7,12.6-17.2,18.8-25.8c0.2,0.1,0.5,0.2,0.7,0.3C721.8,304,719,310.5,716.1,317.3z"/>
	<path class="st0" d="M678.6,349.7c-4.5-5.3-7.5-11.6-11.2-17.3c-0.8,1.4-1.7,2.9-3,5.2c-4.9-9.8-9.6-19-14.2-28.2
		c0.3-0.2,0.6-0.4,0.9-0.6c4.1,5,8.1,10,12.3,15.2c2.2-0.4,2.1-3.2,4.2-4.4c3.7,10.2,8,20,10.9,30.3
		C678.5,349.8,678.6,349.7,678.6,349.7z"/>
	<path class="st1" d="M666.9,450.1c-3.7,8.4-7.3,16.9-11,25.3c-8.5,18.9-17,37.8-24,57.3c-1.1,3.2-2,4.4-5.8,2.6
		c-10.9-5-22-9.5-33-14.2c-3.1-1.3-4.1-2.4-2.7-6.3c10.9-29.1,22.7-57.8,33.9-86.8c0.3-0.9,1.1-1.6,1.6-2.4c1.7,1.9,0.8,3.9,0.2,5.9
		c-1.4,4.1-2.2,8.3-3.4,12.5c-0.6,2.1,1.2,0.5,1.5,1.2c1,2.2-0.4,3.7-1.3,5.4c-8,15.2-13.7,31.2-16.6,48.2
		c-1.1,6.2,0.4,8.9,5.9,11.9c2.5,1.3,5,2.4,7.7,3c7.3,1.6,13-1.2,15.5-8.2c2.5-7,6.4-13.1,10.4-19.2c4.2-6.4,8-13.1,9.6-20.6
		c0.8-3.5-0.9-7.5,1.9-10.8C660.2,452.5,662.4,449.1,666.9,450.1z"/>
	<path class="st2" d="M624,445.3c-0.8,0.5-1.6,0.9-2.6,1.5c0.1-7.5,4-13.9,4.6-21c1.2-4.4,2.6-8.7,4.9-12.7c2.7-4,6.3-3.4,10-2
		c8.5,3,16.2,7.4,23.8,12.1c2.8,1.7,5.6,3.3,8.3,5.1c1.3,0.8,3.2,1.2,2.9,3.4c-3,6.1-6,12.3-9,18.4c-3.4,0.7-5.7,3.3-8.6,4.9
		c-3.2-8.1-8.7-13.5-17.5-15.5c-4.6-1-8.2,0-11.6,2.9C627.7,443.7,626.6,445.9,624,445.3z"/>
	<path class="st1" d="M586,457.3c4.5-1.6,8-3.2,12-3.3c4-0.1,7.4-2.2,9.4-5.4c6.2-10,10.8-20.6,11.8-32.5c0.4-5-1-9.2-5-12.5
		c-1.8-1.5-3.7-3.1-5.1-6c7.1,1.4,13.3,2.9,19.1,5.8c2.3,1.1,2.5,2.1,1.5,4.5c-14.6,34.9-28.1,70.3-40.9,105.9
		c-1.3,3.6-3,4.9-6.5,2.8c-1.4-0.8-2.9-1.4-4.8-2.3c7-4.3,10.7-10.8,14.9-17.1c5.3-8,5.2-17.2,6.1-26c0.5-5.1-3.7-8.7-8-11.4
		C589.2,459,587.9,458.4,586,457.3z"/>
	<path class="st1" d="M584,543.9c-0.4-2.1-0.5-4.2-1.2-6.1c-2.3-5.9,1.5-9.8,4.2-14.2c1.1-1.8,2.3-0.3,3.3,0.1
		c11.3,4.9,22.5,9.9,33.7,14.9c1.8,0.8,4.4,1.2,3.9,4.2c-0.5,2.9-0.9,5.9-4.1,7.2c-3.2,1.3-6.5,2.3-9.9,1.8
		c-8.9-1.2-17.9-2.2-26.6-4.9c-1.2-0.4-2.5-0.8-3.3-1.9C583.4,544.6,583.4,544.2,584,543.9z"/>
	<path class="st3" d="M700.2,358.4c2,2.1,1,4.4-0.2,6.2c-8.6,13.1-17.4,26.1-26.1,39.1c-0.9,1.4-1.6,2.4-3.6,0.9
		c-2.5-1.8-5.4-2.9-8.2-4.3c-1.6-2.1,0.1-3.7,0.9-5.3c4.7-11,11.4-20.7,18.8-30c2-2.5,3.4-5.2,2.7-8.5c1.2-1.8,2.4-3.7,4.9-3.9
		c0.3,0.4,0.4,0.9,0.6,1.3c5.2,7.5,1.7,14.1-2.1,20.7c-4.6,7.8-10.2,15.1-13.4,23.7c-0.2,0.6-0.8,1-0.5,1.7c-0.2,0.6,0.8-0.1,0.2,0
		c0.1-2.4,1.8-4.1,3-5.9C684.9,382.1,692.9,370.5,700.2,358.4z"/>
	<path class="st4" d="M592.8,450.3c-2.3,2.9-5.2,3.6-8.6,2c-3.9-1.8-7.2-4.2-7-8.9c0.3-12.1,3.3-23.6,9.4-34.1
		c2.1-3.7,3.9-7.8,7.1-10.9c1.6,0.4,2.4,1.5,2.5,3.1c0.8,3.9-0.6,7-3.1,10.2c-5.5,7-7.4,15.4-7.9,24.1c-0.1,2.4,0,4.9-2.5,6.4
		c4.8-2.6,7.7-7,10.2-11.6c2.8-5.4,4.3-11.2,5.1-17.2c0.3-1.8-0.1-4,1.8-5.3c4.1,3.5,3.2,8.2,2.6,12.5c-1.1,7.5-4.2,14.3-7.7,20.9
		C593.2,444.2,592.2,447.1,592.8,450.3z"/>
	<path class="st4" d="M580.1,492.3c-6.3,4.6-13.8,6.2-21.2,7.6c-5.9,1.1-12.6-8.6-10.7-15.3c2.8-9.9,9.6-15.7,19.1-18.6
		c0.6,2.9-3.8,4-2.6,7.1c-3.6,3.9-6.4,8.6-10.5,12.2c0.2,0.3,1.3,0.4,1.9,1.1c1.1,1,2.5,1.6,3.5,2.7c4.4,0.8,8.1-1.2,12-2.7
		c2.7-1.1,4.8-3.8,8.2-3.2c1,1.2,0.2,2.2-0.5,3C577.4,488.5,578,490.4,580.1,492.3z"/>
	<path class="st1" d="M584,543.9c0,0.4,0,0.7,0,1.1c-11.1-2.2-24.4-16.9-20.6-29.4c0.9-2.8,1.5-3.8,4.5-2.2c5.3,2.7,10.8,5,16.8,7.7
		C578.8,528.5,576.9,536.1,584,543.9z"/>
	<path class="st3" d="M595.8,401.3c-0.7-1-1.4-1.9-2.1-2.9c0.5-0.8,1.2-0.9,2-0.9c6.9,0.8,12.8,7.6,13.2,15.4c0.1,2,0.4,4.1-0.5,6.1
		c-1.2,10.2-6.6,18.6-11.9,27c-1,1.6-2.4,2.9-3.7,4.4c-3.3-1.9-1.9-4.3-0.7-6.7c3.5-7.1,7.1-14,8.7-21.9c1-4.8,0.9-9.2-1.2-13.6
		C597.6,406.3,596.6,403.8,595.8,401.3z"/>
	<path class="st3" d="M580.1,492.3c-4.4-0.1-4.6-2.4-2.7-5.5c0.7-1.2,1.7-2.2,2.6-3.3c-1.3-1.5-2.2,0.1-3.2,0.6
		c-4.8,2.5-9.6,5.1-15.1,5.8c-0.8,0.1-1.6,0.2-2.2-0.4c-1.5-0.3-3-0.7-4-2c0.6-0.8,1.5-1.3,2.4-1.5c11.2-2.6,19.6-9.5,27-17.8
		c0.6-0.7,1.3-1.4,2.4-1.5c6.3,3.9,7.2,10.6,2.4,17.9C587.2,487.8,583.9,490.3,580.1,492.3z"/>
	<path class="st5" d="M607.3,387.6c0.7-1.2,1.9-0.8,3-0.9c6.3-0.7,12.1,1.4,17.7,3.8c18.8,7.8,36.5,17.6,52.4,30.4
		c1.6,1.3,3.7,2.3,3.2,4.9c-0.3,0.9-0.9,1.6-1.9,1.8c-19.3-14.6-40.5-25.7-63.4-33.7c-2.5-0.9-5-1.4-7.4-2.4
		C609.2,390.8,607,390.3,607.3,387.6z"/>
	<path class="st4" d="M684.6,356.4c4.3,3.2,0.5,5.9-1,8.1c-4.2,5.9-8.8,11.5-12.5,17.7c-3.5,5.8-6.7,11.7-8.9,18.1
		c-4.6-1.3-5.4-3.4-3.1-8c5.4-10.9,11.5-21.3,19.1-30.8C679.9,359.4,681.9,357.5,684.6,356.4z"/>
	<path class="st6" d="M700.2,358.4c0.2,1.5-0.3,2.9-1.1,4.2c-8.5,13.1-17,26.2-25.8,39.1c-0.2-5.5,2.8-9.7,5.2-14.1
		c4-7.3,9.3-13.9,12.4-21.8c1.3-3.3,1.4-5.7-0.9-8.3c-1.2-1.3-1.9-3-0.6-4.8C695.2,349.7,698.1,351.2,700.2,358.4z"/>
	<path class="st7" d="M683.6,425.8c-2.4-3.7-6.2-6.2-9.7-8.6c-15.1-10.3-30.9-19.3-47.8-26.5c-5.1-2.2-10.5-3.1-15.9-4
		c5.9-2.8,11.2,0.4,16.3,2.1c18,6.3,35.3,14.1,51,25.1C682.8,417.7,685.1,421.8,683.6,425.8z"/>
	<path class="st1" d="M607.3,387.6c3.6,4.5,9.3,4.1,14,5.9c18.2,7,35.8,15,51.7,26.4c3.1,2.3,5.8,5,8.8,7.6
		c-6.6-2.6-12.1-7.2-18.2-10.7c-15.9-9.3-32.5-17.2-50.4-21.9c-0.9-0.2-1.9-0.3-2.9-0.4C605.9,394,605,391.9,607.3,387.6z"/>
	<path class="st1" d="M675.9,431.7c-11-6.9-21.9-14.2-34.1-19c-3.9-1.5-7.4-2.1-11,0.4c0.4-1.4,0.7-2.8,1.2-4.2
		c0.8-2.5,2.4-3.3,4.9-2.1c13,6.6,26.3,12.5,38.4,20.8C677,428.9,677.8,430,675.9,431.7z"/>
	<path class="st4" d="M579.2,508.7c-6.4,3.3-9.5,2.4-13.2-3.7c-1.5-2.6-0.6-3.4,1.8-3.9c6.8-1.5,12.7-4.7,18.1-8.8
		c1,1.3,0.4,2.5-0.3,3.6C582.7,499.7,581.3,504.4,579.2,508.7z"/>
	<path class="st8" d="M589.8,484.4c2.4-6.4,3.3-12.6-2.8-17.7c-1.2-0.4-2.1-1.6-3.5-1.7c-2.4-0.9-5.3-0.3-7.4-2.2
		c8-4,15.7-0.6,18.6,6.6C596.8,474.7,595.3,480,589.8,484.4z"/>
	<path class="st3" d="M579.2,508.7c-0.2-4.4,1.9-8,4.1-11.5c1-1.6,2.6-2.9,2.7-5c2.4-2.1,4.8-4.3,7.8-6.9
		C591.7,495.4,586,502.4,579.2,508.7z"/>
	<path class="st3" d="M608.3,432.6c2.8-8,5.4-16,5.7-24.5c4,10.7,0.3,20.2-4.6,29.6C606.1,436.6,608.2,434.4,608.3,432.6z"/>
	<path class="st9" d="M634.5,381.7c0.1-2.1,0.9-3.8,1.7-5.5c1.1-2.6,2.9-4.4,5.8-4.1c2.9,0.3,4.9,2,6,4.8c1.1,2.7,0.6,5.3-0.9,7.7
		c-0.7,1.2-1.4,0.6-2.3,0C641.7,382.4,638.3,381.2,634.5,381.7z"/>
	<path class="st3" d="M576.2,462.9c3.1-0.5,5.9,0.7,8.9,1.1c0.9,2-0.6,2.7-2,3c-5.9,1.1-11.3,3.4-16.7,5.9c-0.6,0.3-1.3,0.1-1.9-0.2
		c-2-0.2-2.1-1.1-0.9-2.5c1.3-1.4,2.6-2.8,3.9-4.3C570.2,464.5,572.8,462.4,576.2,462.9z"/>
	<path class="st8" d="M608.4,418.9c-0.2-9.6-3-17.5-12.7-21.5c5.8-2.1,13.9,3.6,14.6,10.6C610.7,411.8,610.1,415.5,608.4,418.9z"/>
	<path class="st4" d="M608.3,432.6c0.4,1.7-0.6,3.7,1.1,5c-3,5.3-4.6,11.7-12.6,13.9C601,444.7,604.7,438.6,608.3,432.6z"/>
	<path class="st8" d="M631.9,385.2c8.9-0.7,12.9,1.3,15,7.2C641.3,391.9,638.4,386.4,631.9,385.2z"/>
	<path d="M624,445.3c0.8-0.8,1.7-1.5,2.5-2.3c9.4-8.3,25.6-4.7,31,6.8c0.8,1.8,0.4,3.5,0.8,5.2c-1.1,2.8-1.7,5.6-1.3,8.8
		c0.4,3-0.9,6-2.2,8.8c-3.5,7.1-7.1,14.2-11.8,20.6c-2.4,3.3-4.1,7-5.4,10.8c-3.5,10.3-10.1,14-20.3,10.4c-5.6-2-12.4-3.8-12.6-11.6
		c-0.1-3.3,0.8-6.7,1.6-10c3.8-15.8,8.9-31.1,17.1-45.2C623.7,446.9,623.8,446.1,624,445.3z"/>
	<path class="st7" d="M638.3,416.9c8.8,1.3,16,6.2,23.3,10.8c0.8,0.5,1.6,1,2.5,1.6c7.9,5.2,8.1,6.6,2.6,14.6
		c-2.1,3.1-4.5,3.2-6.3-0.1c-0.9-1.6-1.5-3.6-1.8-5.5c-1-6.2-4.8-10.4-9.8-13.8C645.3,422.1,641.8,419.5,638.3,416.9z"/>
	<path class="st5" d="M622.6,542.3c-12.8,4.7-23,1.4-32.7-4.8c-0.9-0.6-1.6-1.6-2.1-2.6c-1-2.1-3.2-4.3-1-6.6c2-2.1,4.2-0.2,6.2,0.7
		c7.2,3.1,14.5,6.3,21.7,9.4C617,539.4,619.3,540.6,622.6,542.3z"/>
	<path d="M595.8,401.3c2.8,1.4,3.1,4.3,3.9,6.9c-0.7,12.5-4,23.9-13,33.1c-2.3,2.3-4.4,3.3-7.3-0.3c4.3,1.1,4.6-1.2,4.7-4.2
		c0.2-10.7,2.9-20.5,10.3-28.5c1.3-1.4,1.8-2.7,0.4-4.3C593.6,402.4,594.8,401.9,595.8,401.3z"/>
	<path d="M564.5,472.7c5.6-3.1,11.4-5.7,17.8-6.7c1.3-0.2,2.6-0.1,2.8-1.9c1.4,0.4,1.9,1.4,2,2.7c-7.7,11-17.8,18.5-31.4,20.6
		c-1.2-0.8-2.4-1.4-3.5-2.3c-0.6-0.5-0.5-1.5,0-2.2c0.2-0.3,1-0.6,1.1-0.5c3.1,3.8,3.2-0.6,3.7-1.7
		C558.5,477,562.2,475.5,564.5,472.7z"/>
	<path class="st10" d="M559.6,489.3c7.2-0.9,13.5-4.2,19.7-7.7c0.7-0.4,1.5-1.8,2.3-0.5c0.5,1-0.7,1.6-1.5,2.2
		c-6.3,3-12.3,6.8-19.4,7.6c-0.7,0.1-1.9,1-2-0.6C558.7,490,559.3,489.7,559.6,489.3z"/>
	<path class="st11" d="M646,382.7c-2.2-2.1-2.6-5.5-5.3-7.2c-0.3-0.2-1.3-0.6-0.6-1.5c0.5-0.6,1.1-1.1,2-0.9
		C646.1,373.9,648.2,379,646,382.7z"/>
	<path class="st12" d="M652.2,458.9c2.3,3,2.2,6.1,0.8,9.5c-5.1,12.5-12,23.9-21.1,33.9c-1.1,1.2-2.1,2.6-3.9,2.6
		c-4.3-1.8-5.5-3.7-4.7-8.1c0.9-5.2,3-10,5.8-14.4c2.5-4,4.4-8.3,5.6-12.9c1-5.9,1.7-11.7,0.2-17.6c5-0.8,8.5,3,12.8,4.2
		C649.4,456.7,650.8,457.9,652.2,458.9z"/>
	<path class="st4" d="M627.9,455.1c-4.4,11.1-8.7,22.3-13.3,33.3c-1.5,3.6-1.9,7.5-3,11.2c-0.7,2.2,0.9,3.3,2.4,4.2
		c3.8,2.2,7.9,3.6,12.2,4.7c3.1,0.8,4.7-1.7,6.8-3c-1,5.3-5.7,8.3-11.3,7c-2-0.5-4-1.2-6-2c-6.8-2.6-8.1-5.6-6.8-12.8
		c2.8-16.1,8.8-31,16-45.5c0.9-1.9,1.8-3.8,3.8-4.9C630.9,450.1,628.8,452.5,627.9,455.1z"/>
	<path class="st4" d="M616.7,492.5c4.7-13.2,8.7-26.7,16.6-38.5C633.5,469.3,626.4,481.4,616.7,492.5z"/>
	<path class="st4" d="M634.7,469.7c0.4,3.6-1.4,6.6-2.8,9.7c-2.5,5.4-5.7,10.5-7.2,16.5c-1,4.2-0.2,6.9,3.2,9.2
		c-5,0.7-8.7-2.3-12.8-4.2c-1.9-0.9-0.6-2.4,0.4-3.6c4.3-5,8.6-10,12.5-15.2C631,478.1,631.9,473.4,634.7,469.7z"/>
	<path class="st6" d="M633.8,442.4c2.7-2.6,5.6-0.6,8.1,0.1c5.3,1.5,9.8,4.5,12.8,9.4c0.8,1.3,1.1,2.5-0.2,3.4
		c-1.4,1.1-1.8-0.7-2.6-1.3c-1.5-1.2-2.9-2.5-4.4-3.8C643.3,446.9,637.6,446.3,633.8,442.4z"/>
	<path class="st3" d="M633.8,442.4c5,1.7,9.9,3.8,13.7,7.8c-0.9-0.3-1.8-0.6-2.7-0.9c-9.6-3.3-11.9-3.3-15.3,4.6
		c-0.2,0.5-1,0.8-1.5,1.2c-0.5-2.7,1-5.2,0.9-7.9C629.5,444.6,631,442.8,633.8,442.4z"/>
	<path class="st8" d="M652.2,458.9c-6-1.7-11.6-4.5-17.3-6.8c3-4.2,6.4-1,9.1,0.1C647.2,453.5,650.1,455.9,652.2,458.9z"/>
	<path class="st13" d="M586.8,435.3c0.8-9.9,3-18.2,9-25.5C595.5,419.5,592.3,428.9,586.8,435.3z"/>
	<path class="st13" d="M558.2,484.3c2.3-8.8,14.7-14,21.8-15.3c0.6-0.1,1.4-0.1,1.5,0.7c0.2,0.9-0.5,1.5-1.1,2
		C573.8,476.8,567,481.7,558.2,484.3z"/>
</g>
</svg>
