<?xml version="1.0" encoding="utf-8"?>
<!-- Generator: Adobe Illustrator 23.0.1, SVG Export Plug-In . SVG Version: 6.00 Build 0)  -->
<svg version="1.1" id="Layer_4" xmlns="http://www.w3.org/2000/svg" xmlns:xlink="http://www.w3.org/1999/xlink" x="0px" y="0px"
	 viewBox="0 0 1000 1000" style="enable-background:new 0 0 1000 1000;" xml:space="preserve">
<style type="text/css">
	.st0{fill:#683420;}
	.st1{fill:#F49575;}
	.st2{fill:#F29474;}
	.st3{fill:#F69776;}
	.st4{fill:#96533A;}
	.st5{fill:#84472F;}
</style>
<g>
	<path class="st0" d="M515.6,503c-1.1-1-2.1-1.9-3.2-2.9c-2-1.8-2.5-3.7-0.4-5.8c1.9-1.8,4.1-2,6-0.3c2.7,2.5,5.4,4.9,6.8,8.5
		c1.1,2.8,1,5.2-1.6,6.7c-2.6,1.4-4.5-0.1-5.6-2.7C517,505.4,515.3,504.7,515.6,503c0.2-0.4,0.5-0.6,0.9-0.6c0.9,0.2,2-0.1,2.7,0.8
		c0.2,0.4,0.4,0.7,0.6,1.1c0.4,0.7,0.7,1.7,1.6,1.4c1.2-0.4,0.6-1.6,0.5-2.5c-0.2-0.6-0.4-1.2-0.6-1.8c-0.6-1.8-2.4-2.2-3.7-3.1
		c-0.3-0.3-0.6-0.6-0.9-0.9c-0.4-0.5-1-0.9-1.6-0.5c-0.8,0.4-0.4,1.1,0,1.6c0.5,0.6,1,1.1,1.3,1.9
		C516.5,501.5,516.3,502.3,515.6,503z"/>
	<path class="st1" d="M522.5,502.8c1.6,1.7,1.9,3.9-0.3,4.7c-2.7,1-3.6-1.2-3.6-3.6C519.5,502.2,520.8,501.7,522.5,502.8z"/>
	<path class="st2" d="M518.6,502.9c-0.7,0-1.3,1-2,0.1c-0.3-1.7-1.3-3.6,1.1-4.7c2.3-0.7,3.7,0.5,4.7,2.5
		C521.5,502.3,519.7,502,518.6,502.9z"/>
	<path class="st3" d="M515.5,499.7c-2.1,0.3-2.9-0.9-2.9-2.7c0-1.1,0.7-1.8,1.7-1.9c1.6-0.2,3.3-0.3,3.3,2.1
		C516.8,497.9,516.5,499,515.5,499.7z"/>
	<path class="st4" d="M518.6,502.9c0.6-1.8,2.3-1.8,3.7-2.1c0.1,0.7,0.2,1.3,0.2,2c-1.4,0.1-2.8,0.2-4,1.1
		C518.6,503.6,518.6,503.2,518.6,502.9z"/>
	<path class="st5" d="M515.5,499.7c0-1.4,1-2,2.1-2.5c0,0.4,0,0.8,0,1.1c-1.1,1.4-1.3,3-1.1,4.7c-0.3,0-0.7,0-1,0
		c0,0,0.1,0.1,0.1,0.1C515.6,501.9,515.5,500.8,515.5,499.7z"/>
</g>
</svg>
