<?xml version="1.0" encoding="utf-8"?>
<!-- Generator: Adobe Illustrator 23.0.1, SVG Export Plug-In . SVG Version: 6.00 Build 0)  -->
<svg version="1.1" id="Layer_4" xmlns="http://www.w3.org/2000/svg" xmlns:xlink="http://www.w3.org/1999/xlink" x="0px" y="0px"
	 viewBox="0 0 1000 1000" style="enable-background:new 0 0 1000 1000;" xml:space="preserve">
<style type="text/css">
	.st0{fill:#6E3720;}
	.st1{fill:#FA9A79;}
	.st2{fill:#FA9979;}
</style>
<g>
	<path class="st0" d="M549.8,470.1c0-7.9,2.5-10.9,9-12.1c5-0.9,12.4,2.9,14,7.9c1.2,4,2.9,7.4,6.2,10c1.5,1.2,2.3,3.2,2.2,5.1
		c-0.1,7.3,4.5,14.1,1.5,21.8c-1.8,4.6-5,7.2-9.3,7.6c-5,0.5-9.6-2-11.7-6.7c-2.6-5.8-4.1-12.2-4.9-18.6c-0.3-2.4-0.7-4.3-2.6-5.9
		C550.9,476.7,550,472.9,549.8,470.1z"/>
	<path class="st1" d="M571.3,490c4.8,0.2,8.6,3.6,8.4,7.6c-0.2,4-4.8,9.2-8.1,9.1c-3.7,0-7.8-5.3-7.7-9.7
		C564.2,492.3,566.8,489.8,571.3,490z"/>
	<path class="st1" d="M561.3,461.9c2.2,0.2,5,0.9,7,3.3c3.1,3.5,2.3,6.2-2.1,7.2c-2.3,0.5-4.5,1.3-5.9,3.1c-2.7,3.5-4,1.5-5.5-1.1
		C551.2,467.9,553.9,462,561.3,461.9z"/>
	<path class="st2" d="M559.9,485.2c0.1-5.2,4.5-9.6,9.4-9.5c4.5,0.1,8.7,4.5,9,9.3c0.1,2.1-0.2,3-2.6,2.1c-3.5-1.3-7-0.8-10.3,1
		c-1.2,0.7-2,2.7-3.6,1.7C560.1,488.8,560.3,486.7,559.9,485.2z"/>
</g>
</svg>
