<?xml version="1.0" encoding="utf-8"?>
<!-- Generator: Adobe Illustrator 23.0.1, SVG Export Plug-In . SVG Version: 6.00 Build 0)  -->
<svg version="1.1" id="Layer_4" xmlns="http://www.w3.org/2000/svg" xmlns:xlink="http://www.w3.org/1999/xlink" x="0px" y="0px"
	 viewBox="0 0 1000 1000" style="enable-background:new 0 0 1000 1000;" xml:space="preserve">
<style type="text/css">
	.st0{fill:#6E3720;}
	.st1{fill:#FB9A7A;}
</style>
<g>
	<path class="st0" d="M632.3,428.7c9.2-0.9,20.6,11.2,22.9,19.1c1.6,5.5,1.3,10.6-2.5,15.2c-1,1.2-1.3,2.4,0.2,4
		c5.9,6,5.8,13.5,4.8,21.1c-0.6,4.6-2.5,8.7-5.3,12.5c-0.7,0.9-1.5,2.1-1.1,3.5c2.3,8.9-2.5,15-8.5,20.2c-7.6,6.6-19.5,7.6-25.9,2.1
		c-8.9-7.7-12.7-17.4-6.6-30.3c1.3-2.7,2-5,1-8c-2.3-6.7-0.8-12.8,3.3-18.4c1.1-1.5,0.9-2.5,0-4.4c-6-12.5-4.4-28.2,7.7-34.4
		C625.5,429.4,628.9,428.5,632.3,428.7z"/>
	<path class="st1" d="M615.2,506.8c0.6-10.2,5.8-14.8,13.8-15.5c6.8-0.6,15.4,8.8,15.5,15.8c0.1,7.1-9.7,16.3-17.1,16.3
		C620.8,523.4,615.2,515.8,615.2,506.8z"/>
	<path class="st1" d="M617.2,452.6c1.3-9.5,2-13.4,10.2-16.1c7.1-2.4,15.9,1.6,19.7,8.9c2.3,4.4,3.3,8.7,0.1,13.1
		c-1.2,1.7-2.3,2.7-4.7,1.5c-6.2-3.3-12.5-2.8-18.3,1c-3.1,2-4.5,1-5.5-1.9C618,457,616.9,455,617.2,452.6z"/>
	<path class="st1" d="M648.1,494.8c-8.3-9.5-17.3-13.4-29.1-7.7c-3-6.6,2.6-17,7.4-19.4c7.9-3.9,15.3-2,20.4,3.1
		C652.2,476.3,653.5,487.8,648.1,494.8z"/>
</g>
</svg>
