<?xml version="1.0" encoding="utf-8"?>
<!-- Generator: Adobe Illustrator 23.0.1, SVG Export Plug-In . SVG Version: 6.00 Build 0)  -->
<svg version="1.1" id="Layer_4" xmlns="http://www.w3.org/2000/svg" xmlns:xlink="http://www.w3.org/1999/xlink" x="0px" y="0px"
	 viewBox="0 0 1000 1000" style="enable-background:new 0 0 1000 1000;" xml:space="preserve">
<style type="text/css">
	.st0{fill:#6E3720;}
	.st1{fill:#FB9A7A;}
</style>
<g>
	<path class="st0" d="M725.6,460.1c0,7-3.6,13.7-9.9,19c-2,1.6-3.1,3.2-1.9,6c6,14.2-2.6,35.5-16.6,43.2c-2.1,1.2-2.6,2.4-3,4.6
		c-1.9,11.7-14.3,21.3-25.8,22.8c-6.7,0.9-13,1.7-19.5-1.7c-14.3-7.6-18.7-20-14.5-34.7c2.3-8.1,6.6-14.7,12.8-20.1
		c2.4-2,1.1-4.7,1.9-7c3-8.9,5.9-17.6,14.6-22.8c1.7-1,1.3-2.7,1-4.3c-2.7-13.2,3.8-34.6,18.6-40.8c9.9-4.2,18.8-2.6,26.8,3.4
		C720.4,435.3,725.4,445.9,725.6,460.1z"/>
	<path class="st1" d="M659.9,546.9c-12.3,0-18.5-8.4-16.5-20.6c1.8-11.2,6.9-18.8,18.4-21.9c5.1-1.4,9.1,0.3,12.7,2.9
		c6,4.3,9.4,10.8,10,18.1c1,11.8-5.6,17.6-16.8,20.3C665,546.3,662.3,547.5,659.9,546.9z"/>
	<path class="st1" d="M692.5,431.6c11.2,0,20.4,8.5,23.4,19.9c2.4,9.1-1,16.8-7.4,20.5c-1.7,0.9-2.4,1.2-3.9-0.2
		c-7.8-7.5-17-10.6-27.8-8c-2.4,0.6-3.3-0.9-3.8-2.7c-2.9-9.9,7-26.7,17-29.2C691.1,431.6,692.3,431.7,692.5,431.6z"/>
	<path class="st1" d="M706.1,497.6c-1,6.8-3.2,14.4-10.1,19.9c-1.9,1.5-2.9,1.1-3.5-1c-3.6-12.3-17.3-21.5-30.1-21.4
		c-2.4,0-4.7,0.9-3.5-3.7c2.6-9.8,8.9-15.7,18-18.1c8.1-2.2,15.4,0.9,21.8,6.2C703.9,483.8,706,489.4,706.1,497.6z"/>
</g>
</svg>
