<?xml version="1.0" encoding="UTF-8"?>
<!-- Generator: Adobe Illustrator 23.0.1, SVG Export Plug-In . SVG Version: 6.00 Build 0)  -->
<svg version="1.1" id="Layer_4" xmlns="http://www.w3.org/2000/svg" xmlns:xlink="http://www.w3.org/1999/xlink" x="0px" y="0px" viewBox="0 0 1000 1000" style="enable-background:new 0 0 1000 1000;" xml:space="preserve">
<style type="text/css">
	.st0{fill:#FEFEFE;}
</style>
<g>
	<path d="M74.1,402.2c-21.9,0.2-35.9-10.2-39.2-30.4c-1.5-9.2,1.5-18.3,6.5-26.1c42.4-66.1,84.8-132.2,127.8-198   c7.8-11.9,19.7-19.5,34.8-17.5c18.1,2.3,26.5,15.8,31.6,31.4c8.5,25.8,12.3,52.7,18.3,79c6.1,26.4,11.3,52.9,17.4,79.3   c4.3,18.7-12.2,44.3-31.2,48.3c-47.6,10-95,20.8-142.5,31.1C90.1,401,82.2,401.3,74.1,402.2z"/>
	<path d="M502.9,974c-39,0-78,0.8-117-0.3c-26.4-0.7-40.8-17.3-37.6-39.3c1.9-13.4,10.8-24.2,20.1-33.6   c35.1-35.6,70.7-70.7,105.9-106.2c13.8-13.9,43.8-13.9,57.7,0.1c34.9,35.3,70.3,70.1,105.2,105.5c8.8,9,16.3,19.1,19.9,31.6   c4,14-4,32.4-17.5,37.4c-7.8,2.9-15.8,5-24.6,4.9C577.6,973.7,540.2,974,502.9,974z"/>
	<path d="M969.9,366.7c-1.3,24.2-17.3,37.9-43.8,34.5c-55.7-7.2-109.8-22.4-164.7-33.8c-18-3.7-32.3-29.1-28.3-47   c10.6-48,20.5-96.1,31.1-144.1c2-8.9,5-17.7,9.3-26c13.7-26.6,45-27.8,62.5-1.5c29.2,44,57.4,88.8,86.1,133.2   c13.5,21,26.8,42,40.5,62.9C967.3,352,967.8,360.2,969.9,366.7z"/>
	<path class="st0" d="M80.7,377.8c-15.4-0.3-20-8.1-13-21.3c23.4-44.4,53.3-84.6,79.6-127.2c10.1-16.4,20.7-32.5,31.3-48.6   c4-5.9,8.5-11.6,13.3-16.9c5.4-6,14.3-4.6,18.8,2.5c7.7,12.1,8,26.4,11.1,39.8c8.1,35.4,15.2,70.9,22.9,106.4   c3.4,15.6-5.2,31.4-20.7,34.9c-46.1,10.3-92.3,20.1-138.5,30.1C84,377.8,82.3,377.7,80.7,377.8z"/>
	<path class="st0" d="M502.4,948c-29.3,0-58.7-0.3-88,0.2c-9.3,0.1-18.3-1.5-27.4-2.3c-9-0.9-12.6-8.6-9.2-17.1   c1.8-4.3,4.3-7.9,7.6-11.2c32.1-32,64.4-63.8,96-96.3c11.3-11.6,31.9-11.6,43.4,0.2c31.3,32.3,63.4,63.8,95.3,95.6   c3.5,3.5,6.5,7.1,8.2,11.9c2.8,7.8,0.3,14.9-7.6,16.6c-6.7,1.4-13.6,2.3-20.4,2.3C567.7,948.1,535,948,502.4,948z"/>
	<path class="st0" d="M922.7,377.7c-18.1-3.8-37.1-7.7-56-11.8c-28.2-6.1-56.4-12.8-84.7-18.4c-13.8-2.8-26.3-18.8-22.5-35.2   c10.3-44.4,19.1-89.1,28.8-133.6c1-4.4,3.1-8.8,5.4-12.7c4.1-7.1,12.8-8.4,18.4-2.6c5,5.2,9.7,10.8,13.6,16.8   c35.3,54.4,70.4,109,105.4,163.6c3.5,5.4,6.4,11.4,8.5,17.5C942.7,370.7,935.4,377.8,922.7,377.7z"/>
</g>
</svg>