<?xml version="1.0" encoding="UTF-8"?>
<!-- Generator: Adobe Illustrator 23.0.1, SVG Export Plug-In . SVG Version: 6.00 Build 0)  -->
<svg version="1.1" id="Layer_4" xmlns="http://www.w3.org/2000/svg" xmlns:xlink="http://www.w3.org/1999/xlink" x="0px" y="0px" viewBox="0 0 1000 1000" style="enable-background:new 0 0 1000 1000;" xml:space="preserve">
<style type="text/css">
	.st0{fill:#FEFEFE;}
</style>
<g>
	<path d="M502.7,974c-39,0-78,0.9-117-0.3c-26.5-0.8-40.7-17.5-37.4-39.5c2-13.3,10.8-24.1,20.2-33.6   c35.2-35.5,70.6-70.7,105.9-106.1c13.8-13.9,42.9-14.1,56.8-0.2c35.6,35.6,71.3,71,106.6,106.9c8.3,8.5,15.4,18,18.7,30.1   c4.1,15-2.5,31.6-16.5,37.5c-7.7,3.2-15.7,5.4-24.4,5.3C578,973.8,540.3,974,502.7,974z"/>
	<path class="st0" d="M502.8,948c-31,0-62-0.3-93,0.2c-8,0.1-15.6-1.9-23.4-2.5c-8.4-0.6-11.8-8.5-8.7-16.6c1.7-4.4,4.1-8,7.4-11.3   c32.3-32.2,64.6-64.6,96.9-96.8c12.4-12.4,29.8-12.2,42.4,0.3c32.1,32,64.1,64.1,96.2,96.1c3.3,3.3,5.9,6.8,7.6,11.2   c3.3,8,0.2,15.6-8,17.1c-6.7,1.3-13.6,2.1-20.4,2.1C567.4,948.1,535.1,948,502.8,948z"/>
</g>
</svg>