<?xml version="1.0" encoding="UTF-8"?>
<!-- Generator: Adobe Illustrator 23.0.1, SVG Export Plug-In . SVG Version: 6.00 Build 0)  -->
<svg version="1.1" id="Layer_4" xmlns="http://www.w3.org/2000/svg" xmlns:xlink="http://www.w3.org/1999/xlink" x="0px" y="0px" viewBox="0 0 1000 1000" style="enable-background:new 0 0 1000 1000;" xml:space="preserve">
<style type="text/css">
	.st0{fill:#FEFEFE;}
</style>
<g>
	<path d="M619.8,328.3c13.9,0,27.7,0.2,41.6-0.1c4.9-0.1,10.2,5.1,10.1,10.3c-0.2,27.5-0.1,55-0.1,82.4c0,6.2-4.7,10.9-10.8,10.9   c-10.4,0-20.7-0.2-31.1,0.1c-4.8,0.1-10.1-5.1-10-10c0.4-9.7-0.2-19.5,0.2-29.2c0.3-7.2-3.8-11.6-11.4-11.2   c-10.1,0.5-20.2-0.1-30.3,0.2c-5.2,0.2-10.4-5.2-10.2-10.2c0.3-11.1,0.1-22.2,0.1-33.3c0-5.7,4.1-9.9,9.9-9.9   C591.8,328.2,605.8,328.3,619.8,328.3z"/>
	<path d="M619.4,671.7c-13.9,0-27.7,0-41.6,0c-5.8,0-9.9-4.1-9.9-9.9c0-10.5,0-21,0-31.5c0-5.5,4.2-9.6,9.8-9.7   c10.2,0,20.5-0.3,30.7,0.1c5.6,0.2,10-4.4,9.9-9.7c-0.3-10.7-0.1-21.5-0.1-32.2c0-5.8,4.1-9.9,9.9-9.9c11.2,0,22.5,0,33.7,0   c5.5,0,9.6,4.2,9.6,9.8c0,27.7-0.1,55.5,0.1,83.2c0,4.7-5,10-10.1,9.9C647.4,671.5,633.4,671.7,619.4,671.7z"/>
	<path d="M380.6,328.3c13.9,0,27.7,0,41.6,0c5.8,0,9.9,4.1,9.9,9.9c0,10.5,0,21,0,31.5c0,5.5-4.2,9.6-9.8,9.6   c-10.4,0-20.7,0.2-31.1-0.1c-5.2-0.2-9.6,4.4-9.5,9.3c0.3,10.9,0.1,21.7,0.1,32.6c0,5.8-4.1,9.9-9.9,9.9c-11.2,0-22.5,0-33.7,0   c-5.5,0-9.6-4.2-9.6-9.8c0-27.7,0.1-55.5-0.1-83.2c0-4.7,5-10,10.1-9.9C352.6,328.5,366.6,328.3,380.6,328.3z"/>
	<path d="M380.2,671.7c-13.9,0-27.7-0.2-41.6,0.1c-4.9,0.1-10.2-5-10.1-10.3c0.2-27.5,0.2-55,0-82.4c0-5.2,5.2-10.4,10.1-10.3   c11.1,0.3,22.2,0.1,33.3,0.1c5.7,0,9.9,4.1,9.9,9.9c0,10.9,0.2,21.7-0.1,32.6c-0.1,5,4.3,9.5,9.5,9.3c10.2-0.3,20.5,0.2,30.7-0.2   c5.2-0.2,10.4,5.2,10.3,10.1c-0.4,10.4-0.1,20.7-0.1,31.1c0,5.7-4.1,9.9-9.9,9.9C408.2,671.8,394.2,671.7,380.2,671.7z"/>
	<path class="st0" d="M660.1,379.9c0,10.1-0.2,20.3,0.1,30.4c0.3,9-4.2,10.1-10.8,10.9c-3.3,0.4-6.7,0.1-10.1,0.1   c-5.6,0-9.1-3.5-9.1-9.1c0-10.4-0.3-20.8,0.1-31.1c0.2-5-5.1-10.3-10.2-10.2c-10.7,0.4-21.5-0.1-32.2,0.2c-5.2,0.1-9.8-4.4-9.5-9.3   c0.3-4.6,0.1-9.2,0.1-13.9c0-5.6,3.5-9.1,9.1-9.1c21.2,0,42.5,0,63.7,0c5.3,0,8.9,3.6,8.9,8.9C660.1,358.4,660.1,369.2,660.1,379.9   z"/>
	<path class="st0" d="M660.9,620.3c0,10.6,0,21.2,0,31.9c0,5.6-3.5,9.1-9.1,9.1c-20.9,0-41.7-0.1-62.6,0.1c-7,0-10.4-4-10.7-10.6   c-0.2-3.5-0.1-7,0-10.5c0-5.3,3.6-8.9,8.9-8.9c10.5,0,21-0.2,31.5,0.1c4.8,0.1,10.1-5,10-10.1c-0.3-10.9-0.1-21.7-0.1-32.6   c0-5.7,3.5-9.2,9.1-9.2c4.7,0,9.5,0,14.2,0c5.3,0,8.9,3.6,8.9,8.9C660.9,599,660.9,609.7,660.9,620.3z"/>
	<path class="st0" d="M380.5,338.7c10.6,0,21.3,0.2,31.9-0.1c5-0.1,9.8,4.3,9.4,9.4c-0.3,3.9,0,7.7-0.1,11.6c0,5.6-3.5,9-9.2,9   c-10.4,0-20.7,0-31.1,0c-5.8,0-9.9,4.1-9.9,9.9c0,10.9-0.2,21.8,0.1,32.6c0.1,5-4.3,9.7-9.5,9.3c-4.6-0.3-9.2-0.1-13.9-0.1   c-5.4,0-9-3.5-9-8.8c0-21.4,0-42.7,0-64.1c0-5.1,3.6-8.7,8.7-8.8C358.7,338.7,369.6,338.7,380.5,338.7z"/>
	<path class="st0" d="M380.2,661.2c-10.6,0-21.2,0-31.9,0c-5.7,0-9.2-3.5-9.2-9.1c0-21.2,0-42.5,0-63.7c0-5.3,3.6-8.9,8.9-8.9   c4.7,0,9.5,0,14.2,0c5.6,0,9.1,3.5,9.1,9.2c0,10.9,0.2,21.8-0.1,32.6c-0.2,5,5.2,10.2,9.9,10.1c10.4-0.3,20.8,0.1,31.1-0.2   c5-0.1,9.8,4.3,9.4,9.4c-0.3,3.9,0,7.7-0.1,11.6c0,5.6-3.5,9-9.2,9C401.7,661.3,390.9,661.2,380.2,661.2z"/>
</g>
<image style="display:none;overflow:visible;" width="459" height="460" xlink:href="1.PNG" transform="matrix(0.75 0 0 0.75 327.875 327.5)">
</image>
</svg>