<?xml version="1.0" encoding="UTF-8"?>
<!-- Generator: Adobe Illustrator 23.0.1, SVG Export Plug-In . SVG Version: 6.00 Build 0)  -->
<svg version="1.1" id="Layer_4" xmlns="http://www.w3.org/2000/svg" xmlns:xlink="http://www.w3.org/1999/xlink" x="0px" y="0px" viewBox="0 0 1000 1000" style="enable-background:new 0 0 1000 1000;" xml:space="preserve">
<style type="text/css">
	.st0{fill:#FEFEFE;}
	.st1{fill:none;}
</style>
<g>
	<path d="M610.3,395.6c-28.1-30-63.7-45.1-104.4-46.6c-42.4-1.5-80.1,11.6-111.1,41.3c-30,28.8-45.2,64.9-45.8,105.9   C348,585.7,414,650.3,499.9,651.1c42.3-0.9,76.8-14.3,105.1-41.5c29.9-28.7,44.7-64.6,45.8-105.5   C651.9,462.9,638.8,426,610.3,395.6z M600,502.1c-0.9,52.1-45.8,99.9-104.1,97.8c-49.8-1.8-97.2-44.3-96-102.5   c1-52.4,45.5-96.9,99.9-97.6C553.3,400.2,601,444.9,600,502.1z"/>
	<path class="st0" d="M603,405.4c-26.7-28.8-60-44-99.2-45.2c-37.2-1.1-70.1,11.1-97.7,36.1c-29.4,26.7-44.8,60.4-45.9,100   c-1,37.3,11.2,70.3,36.5,97.9c26.6,29.1,60.1,44.6,99.4,45.5c81.9,1.8,143.3-62.8,143.8-139.8C639.6,463.1,625.7,430,603,405.4z    M399.9,497.4c1-52.4,45.5-96.9,99.9-97.6c53.5,0.3,101.2,45.1,100.2,102.3c-0.9,52.1-45.8,99.9-104.1,97.8   C446.2,598.1,398.8,555.6,399.9,497.4z"/>
	<path d="M504,388.7c-66.5-2-113.7,50.4-115.3,107.4c-1.8,66.3,50.4,113.6,107.6,115.1c65.4,1.8,114.8-50.5,115-111.2   C610.9,437.6,561.6,390.4,504,388.7z M496,599.9c-49.8-1.8-97.2-44.3-96-102.5c1-52.4,45.5-96.9,99.9-97.6   c53.5,0.3,101.2,45.1,100.2,102.3C599.1,554.2,554.2,602,496,599.9z"/>
	<path class="st1" d="M600,502.1c-0.9,52.1-45.8,99.9-104.1,97.8c-49.8-1.8-97.2-44.3-96-102.5c1-52.4,45.5-96.9,99.9-97.6   C553.3,400.2,601,444.9,600,502.1z"/>
</g>
</svg>