<?xml version="1.0" encoding="UTF-8"?>
<!-- Generator: Adobe Illustrator 23.0.1, SVG Export Plug-In . SVG Version: 6.00 Build 0)  -->
<svg version="1.1" id="Layer_4" xmlns="http://www.w3.org/2000/svg" xmlns:xlink="http://www.w3.org/1999/xlink" x="0px" y="0px" viewBox="0 0 1000 1000" style="enable-background:new 0 0 1000 1000;" xml:space="preserve">
<style type="text/css">
	.st0{fill:#FEFEFE;}
</style>
<g>
	<path d="M727.2,524.3c0,99.3,0.7,198.5-0.3,297.8c-0.4,39.3-14.2,73.1-49.6,95.9c-29.9,19.2-59.4,11.7-88.9,1.8   c-17.9-6-33-17.8-46.4-31.2c-90.5-90.5-181.5-180.5-271.3-271.6c-57.4-58.2-57.2-126.1-0.6-183.6c90.2-91.7,181.6-182.1,272.6-273   c23.5-23.5,52.2-36.4,85.1-40.3c47.6-5.7,87.2,35.4,96,79.5c3.7,18.4,3.5,36.7,3.5,55.2C727.2,344.5,727.2,434.4,727.2,524.3z"/>
	<path class="st0" d="M678.4,526.7c0,96.8-0.2,193.5,0.3,290.3c0.1,11.3-2.1,22.1-5.2,32.3c-9.3,30.2-34.3,38.7-67.5,24.8   c-14.4-6-26.3-15.4-37-26.1c-90.2-89.9-180.2-180-270.2-270.1c-29.3-29.3-29.2-77.2,0.1-106.6c90-90.1,179.9-180.3,270.4-269.9   c14-13.8,29.2-26.2,50.8-29.9c27.6-4.7,47.6,4.1,54.1,30.5c2.6,10.4,4.6,21.2,4.5,32.5C678.2,331.9,678.4,429.3,678.4,526.7z"/>
</g>
</svg>