<?xml version="1.0" encoding="UTF-8"?>
<!-- Generator: Adobe Illustrator 23.0.1, SVG Export Plug-In . SVG Version: 6.00 Build 0)  -->
<svg version="1.1" id="Layer_4" xmlns="http://www.w3.org/2000/svg" xmlns:xlink="http://www.w3.org/1999/xlink" x="0px" y="0px" viewBox="0 0 1000 1000" style="enable-background:new 0 0 1000 1000;" xml:space="preserve">
<style type="text/css">
	.st0{fill:#FEFEFE;}
</style>
<g>
	<path d="M424.7,373.6c13.9,0,27.7,0.2,41.6-0.1c5-0.1,10.3,5.1,10.2,10.2c-0.4,10.2-0.4,20.5,0,30.7c0.2,5.2-5.2,10.4-10.1,10.3   c-10.4-0.4-20.7-0.1-31.1-0.1c-5.6,0-9.1,3.5-9.1,9.1c0,10.9-0.2,21.7,0.1,32.6c0.2,5-5.1,10.3-10.2,10.1c-11-0.4-22-0.4-33,0   c-5.2,0.2-10.3-5.2-10.2-10.1c0.2-27.6,0.1-55.2,0.1-82.8c0-5.8,4.1-9.9,9.9-9.9C396.8,373.6,410.7,373.6,424.7,373.6z"/>
	<path class="st0" d="M424.5,384.1c10.7,0,21.5,0,32.2,0c5.6,0,9.1,3.5,9.1,9.1c0,4,0,8,0,12c0,5.3-3.6,8.8-9,8.9   c-10.4,0-20.8,0.3-31.1-0.1c-5.1-0.2-10.4,5.1-10.2,10.2c0.4,10.7-0.1,21.5,0.2,32.2c0.2,5.2-4.3,9.9-9.7,9.5   c-4.5-0.4-9-0.1-13.5-0.1c-5.7,0-9.2-3.4-9.2-9c0-21.2,0-42.5,0-63.7c0-5.3,3.6-8.9,8.9-9C403,384.1,413.8,384.1,424.5,384.1z"/>
</g>
</svg>