<?xml version="1.0" encoding="UTF-8"?>
<!-- Generator: Adobe Illustrator 23.0.1, SVG Export Plug-In . SVG Version: 6.00 Build 0)  -->
<svg version="1.1" id="Layer_4" xmlns="http://www.w3.org/2000/svg" xmlns:xlink="http://www.w3.org/1999/xlink" x="0px" y="0px" viewBox="0 0 1000 1000" style="enable-background:new 0 0 1000 1000;" xml:space="preserve">
<style type="text/css">
	.st0{fill:#FEFEFE;}
</style>
<g>
	<path d="M507.4,872.3c-71.2,0-142.4-0.7-213.6,0.4c-20.9,0.3-40.8-4.1-60.2-8.6c-44.9-10.3-66.5-42.8-67-103.7   c-1.2-155.2-5.5-310.7,1.7-465.6c3.8-81.6,10.6-96.9,100.2-108.9c60.4-8,123.7-8,184.8,5.1c38.7,8.3,55.5,31.6,63.5,72   c8.7,44,4.2,88,5.2,131.9c0.5,24.3,3.7,47.6,11.3,70.7c15,45.9,56.1,45.3,91.7,49.7c34.1,4.2,69.1,1.5,103.7,0.7   c25.5-0.5,49.6,6.2,73.4,13c20.3,5.8,35.4,20.9,40.2,42.1c18.7,81.6,19.3,163.5,0,245.1c-5.5,23.2-21.2,38-44.8,44.3   c-25.2,6.8-50.2,12.2-76.6,12C649.8,871.9,578.6,872.3,507.4,872.3z"/>
	<path class="st0" d="M243.3,528.2c0-62.3,0.4-124.6-0.1-186.9c-0.5-59.4,30.7-84,80.9-80.4c15.7,1.1,31.6,0.4,47.4,0.1   c46.5-0.9,72.2,22.5,73.2,72.6c1.3,63.3-0.6,126.6,0.6,189.8c1.3,64.9,4.8,68.2,69,69.6c61.3,1.3,122.6,0.5,183.9,0.2   c58.3-0.3,82.4,30.7,79.4,78.9c-1.1,16.7-0.4,33.6-0.1,50.4c0.7,44.3-21.4,71.6-70.7,72.1c-130.5,1.4-261.1,2.1-391.5-0.3   c-51.5-0.9-69.3-18-71.4-73.4C241.4,656.8,243.3,592.4,243.3,528.2z"/>
</g>
</svg>