<?xml version="1.0" encoding="UTF-8"?>
<!-- Generator: Adobe Illustrator 23.0.1, SVG Export Plug-In . SVG Version: 6.00 Build 0)  -->
<svg version="1.1" id="Layer_4" xmlns="http://www.w3.org/2000/svg" xmlns:xlink="http://www.w3.org/1999/xlink" x="0px" y="0px" viewBox="0 0 1000 1000" style="enable-background:new 0 0 1000 1000;" xml:space="preserve">
<style type="text/css">
	.st0{fill:#FEFEFE;}
	.st1{fill:none;}
</style>
<g>
	<path d="M530.5,104.2c-241.3-9.3-417.5,175-424.7,386.3c-8.6,252.6,189.9,420.7,405.6,423.2c236.7,1.9,395.2-185.1,404.8-386.6   C928.3,270.4,728.7,111.8,530.5,104.2z M761,513.7c-0.4,140.6-107.6,248-249.5,247.3c-140.1-0.7-243.7-107.4-247.4-248.7   C268.5,371.9,372.1,265,513,265C654,265,761.4,372.3,761,513.7z"/>
	<path class="st0" d="M526.6,142.4c-217.2-7.4-374.9,169.8-381.3,351.2C137.9,708,315.5,876.5,510.8,874.2   C712.9,876.1,871,707.3,877.5,524C885.2,306.4,707.7,148.6,526.6,142.4z M511.5,761c-140.1-0.7-243.7-107.4-247.4-248.7   C268.5,371.9,372.1,265,513,265C654,265,761.4,372.3,761,513.7C760.7,654.4,653.4,761.8,511.5,761z"/>
	<path d="M525.3,219.5c-180-6.9-301.1,129.9-305.9,279.7c-5.8,178.6,129.9,299.2,279.8,304.5c176,6.2,302.8-130.7,305.2-292   C800.8,344.8,676.1,225.3,525.3,219.5z M511.5,761c-140.1-0.7-243.7-107.4-247.4-248.7C268.5,371.9,372.1,265,513,265   C654,265,761.4,372.3,761,513.7C760.7,654.4,653.4,761.8,511.5,761z"/>
	<path class="st1" d="M761,513.7c-0.4,140.6-107.6,248-249.5,247.3c-140.1-0.7-243.7-107.4-247.4-248.7   C268.5,371.9,372.1,265,513,265C654,265,761.4,372.3,761,513.7z"/>
</g>
</svg>