<?xml version="1.0" encoding="UTF-8"?>
<!-- Generator: Adobe Illustrator 23.0.1, SVG Export Plug-In . SVG Version: 6.00 Build 0)  -->
<svg version="1.1" id="Layer_4" xmlns="http://www.w3.org/2000/svg" xmlns:xlink="http://www.w3.org/1999/xlink" x="0px" y="0px" viewBox="0 0 1000 1000" style="enable-background:new 0 0 1000 1000;" xml:space="preserve">
<style type="text/css">
	.st0{fill:#FE4D00;}
</style>
<g>
	<path d="M500.9,730c-121.7,0.3-232.2-103.6-226.8-237.3c4.5-112.2,101.6-221.7,237.4-216.5c112.1,4.3,221.7,101.6,216.2,237.6   C723.1,627.4,626.4,729.4,500.9,730z"/>
	<path class="st0" d="M501,694c-32-1.3-62.7-7.6-91.1-23c-4.1-2.2-6.2-3.7-3.3-8.5c21.3-35.8,42.5-71.6,63.8-107.4   c2-3.3,4.1-3,7.3-1.3c15.8,8.4,31.8,8.2,47.7,0.3c3.8-1.9,5-0.8,7.1,2.9c20.2,34.2,40.8,68.1,61.3,102.1c3.2,5.4,4.9,9.3-3.3,13.1   c-22.3,10.4-45,18.6-69.9,20C514.1,692.6,507.7,694.6,501,694z"/>
	<path class="st0" d="M624.7,504c-18.6,0-37.3-0.5-55.9,0.2c-7.6,0.3-11.4-1.6-12.5-9.1c-2.3-16.5-11.3-28.8-24.6-38.2   c-4.7-3.4-2.2-6.4-0.2-9.8c15.2-25.7,30.4-51.5,45.7-77.3c5.1-8.7,11.1-16.9,15.5-25.9c3.1-6.1,5.4-5.3,10.1-2.1   c34.3,23.9,61.5,53.4,75.9,93.6c7,19.4,12.9,38.8,13.4,59.7c0.2,7.9-2.5,9.2-9.6,9.1C663.3,503.7,644,504,624.7,504z"/>
	<path class="st0" d="M376.7,504c-18,0-35.9,0-53.9,0c-13.9,0-14.1,0-12.7-13.5c3.6-35.3,15.1-67.6,35.2-97.1   c14.8-21.6,34.9-37.2,55.3-52.7c3.1-2.3,5.1-2.6,7.9,2.1c20,34.3,40.6,68.2,61.3,102.1c4,6.5,3.3,11.3-3.1,15.3   c-13.8,8.5-20.3,21.8-22.4,37.1c-0.8,5.9-2.6,6.8-7.8,6.8C416.6,503.9,396.6,504,376.7,504z"/>
	<path class="st0" d="M540,502.9c-1.7,22.4-17.7,39-39.4,38.7c-22.2-0.4-38.2-17.1-38.2-38.5c0-22.4,17.3-39,39-38.7   C523.6,464.8,538.2,481.5,540,502.9z"/>
</g>
</svg>