<?xml version="1.0" encoding="UTF-8"?>
<!-- Generator: Adobe Illustrator 23.0.1, SVG Export Plug-In . SVG Version: 6.00 Build 0)  -->
<svg version="1.1" id="Layer_4" xmlns="http://www.w3.org/2000/svg" xmlns:xlink="http://www.w3.org/1999/xlink" x="0px" y="0px" viewBox="0 0 1000 1000" style="enable-background:new 0 0 1000 1000;" xml:space="preserve">
<style type="text/css">
	.st0{fill:#919191;}
</style>
<g>
	<path d="M500.9,730c-121.7,0.3-232.2-103.6-226.8-237.3c4.5-112.2,101.6-221.7,237.4-216.5c112.1,4.3,221.7,101.6,216.2,237.6   C723.1,627.4,626.4,729.4,500.9,730z"/>
	<path class="st0" d="M501,693.9c-32-1.3-62.7-7.6-91.3-22.9c-5.3-2.8-5.2-4.9-2.5-9.4c21.1-35.2,42-70.6,62.8-106   c2.4-4,4.6-3.5,8-1.7c15.5,8.3,31.2,7.9,46.9,0.4c2.9-1.4,4.9-2.1,7.4,2.2c20.2,34.6,40.9,68.9,61.7,103.3   c3.4,5.7,3.4,8.9-3.5,12.2c-22.2,10.7-45,18.8-70,20.1C514.1,692.5,507.7,694.9,501,693.9z"/>
	<path class="st0" d="M624.7,504c-19.6,0-39.3-0.1-58.9,0.1c-4.9,0-7.1-0.5-8.2-6.5c-3.1-16.9-11.1-31.2-25.8-41   c-4.2-2.8-2.4-5.8-0.5-9c8.7-14.5,17.3-29.2,25.9-43.7c11.8-19.9,24.1-39.6,35.4-59.7c3.5-6.3,5.7-5.4,10.8-2   c46.3,30.7,74.3,73.7,86.1,127.4c2,8.9,3,18.1,2.7,27.5c-0.2,5.9-2.2,7.1-7.6,7C664.6,503.8,644.7,504,624.7,504z"/>
	<path class="st0" d="M377,504c-20,0-40-0.2-59.9,0.1c-5.7,0.1-7.5-1.8-7.2-7.3c1.5-21.9,5.3-43.4,13.9-63.7   c11.2-26.6,26.5-50.6,48.3-69.9c9.3-8.2,19.5-15.5,29.4-23c2.6-1.9,4.6-1.8,6.7,1.9c20.4,34.9,41.1,69.6,62,104.2   c3.4,5.7,2.9,9.5-2.3,12.9c-14.9,9.5-22,23.6-23.7,40.7c-0.6,5.6-4.2,4.1-7.1,4.1C417,504.1,397,504,377,504z"/>
	<path class="st0" d="M540,503.1c-1.8,21.8-16.9,38.4-38.8,38.5c-21.4,0.1-38.4-15.8-38.8-38.2c-0.3-22.1,16.8-39.3,38.9-39   C523.6,464.7,538.3,481.6,540,503.1z"/>
</g>
</svg>