<?xml version="1.0" encoding="utf-8"?>
<!-- Generator: Adobe Illustrator 23.0.1, SVG Export Plug-In . SVG Version: 6.00 Build 0)  -->
<svg version="1.1" id="Layer_4" xmlns="http://www.w3.org/2000/svg" xmlns:xlink="http://www.w3.org/1999/xlink" x="0px" y="0px"
	 viewBox="0 0 1000 1000" style="enable-background:new 0 0 1000 1000;" xml:space="preserve">
<style type="text/css">
	.st0{fill:#000100;}
	.st1{fill:#870606;}
	.st2{fill:#06853D;}
	.st3{fill:#065A2A;}
	.st4{fill:#043F1D;}
	.st5{fill:#06C961;}
	.st6{fill:#054821;}
	.st7{fill:#06CB63;}
	.st8{fill:#049945;}
	.st9{fill:#DEDCA8;}
	.st10{fill:#7F7849;}
	.st11{fill:#C5C27C;}
	.st12{fill:#C5C27B;}
	.st13{fill:#F80606;}
	.st14{fill:#ED0606;}
	.st15{fill:#FEFEFE;}
</style>
<g>
	<path class="st0" d="M544.9,450.4c8.8,5,19.1,7.2,27.2,13.5c9.4,7.2,16,16.2,17.6,28.2c0.7,4.8-1.8,8.8-7.6,13.2
		c6.9,4.1,7.5,8.4,6.3,16.9c-1.2,8.8-5,15.9-14,19.1c-1.2,0.5-2.3,1.9-3.1,3c-8.1,10.9-19.3,15.2-32.4,17.3
		c-14.5,2.3-29.1,3.3-43.7,2.7c-15.9-0.7-31.7-2.6-45.5-11c-9-5.4-17.8-11.2-26.4-17.3c-6.8-4.8-9.8-16.8-7.4-24.1
		c1.5-4.5,5.1-5.6,9-7.3c-1.1-0.7-1.7-1.2-2.5-1.5c-8.3-3.1-10.9-7.6-9.4-15.8c3.2-16.6,16.7-29.6,33.4-32.3
		c4.5-0.7,8.9-1.9,13.3-2.9c1.9,4,0.1,8.2,0.7,12.2c-0.8,1.8-2.6,2.3-4.2,3.1c-9.8,3.5-17.7,9-19.8,20.1c-2,6.7-0.1,12.1,5.3,16.4
		c1.8,1.6,3.2,2,4.1-0.9c0.7-2.3,1.7-4.4,2.8-6.5c3.2-5.9,8.1-10.1,13.7-13.5c1.4-0.8,2.8-1.7,4.4-2.1c2.2-0.7,4.2-0.3,5.7,1.7
		c1.5,2,0.4,3.7-0.9,5.2c-4,4.6-7,9.7-8.3,15.8c-1.9,9-1.6,9.5,7.1,11.7c8.9,2.1,8.9,2.1,10-7.1c0.2-1.8,0.8-3.5,1.1-5.2
		c0.5-1.7,0.9-3.5,1.3-5.2c1-3.1,2.3-6,3.9-8.8c1.2-2.1,2.6-3.8,5.3-3.4c2.8,0.4,3.4,2.6,3.6,5c-0.5,7.7-1.1,15.4-1,23.2
		c0,3,0.7,4.7,4,4.5c4.9-0.1,9.7-0.1,14.6,0c3,0.4,4-1.2,4-3.9c0-4.5,0.1-8.9,0-13.4c-0.1-3.6-1.5-6.8-3-10
		c-0.9-1.9-1.9-3.9,0.2-5.7c0.7-0.4,1.4-0.5,2.2-0.4c7.3,2.5,11.1,8.4,14.1,15c1.6,4.1,2.4,8.4,2.8,12.7c0.2,1.8,0.4,3.3,2.7,2.9
		c3.2-0.4,6.4-1.4,9.5-2.1c2.6-0.6,3.8-2.1,3.3-4.9c-0.6-2.9-0.9-5.8-1.8-8.6c-0.7-2.9-1.8-5.5-3.8-7.7c-1.2-1.4-2.7-2.4-4.3-3.5
		c-0.4-0.3-0.8-0.6-1.1-0.9c-1.2-1.4-3-2.7-2.2-4.9c0.8-2.2,2.8-2.3,4.8-2.4c2.6,0.1,5.1,0.8,7.6,1.6c1.8,0.6,3.5,1.1,4.7-0.9
		c1.4-1.7,1.1-5.7,3.5-5c2.6,0.8,1.3,4.2,0.7,6.5c-0.4,1.9-0.5,3.6,1,5c3.1,3,4.9,6.7,6.3,10.8c0.5,1.5,1.1,3.6,3.1,3.1
		c2.4-0.5,2.4-2.8,2.2-4.8c-1.2-12.3-6.4-21.9-18.3-27c-2.4-1.7-5.4-2.5-7.1-5.2C545,459.7,543.4,454.9,544.9,450.4z"/>
	<path class="st1" d="M459.8,464.9c-1.5-4.2-0.7-8.5,0-12.7c6.5-12.5,17.5-17,30.9-18.7c12.1-1.5,23.8,0.1,35.6,2.1
		c8.5,1.4,13.4,7.1,17.7,13.9c0.2,0.4,0.6,0.7,1,1c1.1,4.8,1.5,9.7,0.1,14.5c1,1.6,0.1,3.3,0,4.9c-0.3,1.7-0.8,3.3-1.5,4.9
		c-0.9,1.5-2.1,2.7-3.5,3.9c-7.2,4.6-15,7.1-23.7,6.8c-0.6,0.1-1.3,0.1-1.9,0.2c-2.5,1.4-5.1,2.3-8,2.2c-9,0.5-17.7-1.9-26.5-2.9
		c-4.7-1.3-8.9-3.6-13.4-5.5c-2.8-1.8-5.5-3.7-6.7-7C459.2,469.9,458,467.4,459.8,464.9z"/>
	<path class="st2" d="M444.4,515.5c7.1,7.2,16.9,8.4,25.9,10.7c15.5,4,31.4,3.4,47.2,3c7.5-0.2,14.9-1.7,22.4-2.7
		c2.6,1.1,4.7,2.8,7.3,4c2,0.9,2.7,3,0.8,4.2c-6.3,4.1-8,11.3-11.9,17c-1.8-0.4-3.3,1.5-5.1,0.8c6.5-10.6,2-16.1-7.4-19.3
		c-7.6-2.5-14.5-1.6-20.6,3.9c-0.5,0.4-1.2,0.5-1.8,0.5c-3.6-1.9-7-4.1-10.9-5.2c-9.1,1.3-11.9,7-8.1,16.6c0.8,1.9,1.8,3.7,3,5.9
		c-4.8-0.6-9.2-1.1-13.2-3.2c-2.4-4-1.9-9-4.6-12.8c-1.7-4.9-5.3-8.4-8.3-12.4c-4.2-2.6-7.3,0.1-10.5,2.3c-2.4,1.6-2.6,3.9-1.3,6.4
		c-0.8,0.7-1.6,0.6-2.3-0.1C442.4,528.6,439.9,522.1,444.4,515.5z"/>
	<path class="st3" d="M466.8,478.5c4.3,1.7,8.5,3.4,12.8,5.1c4.8,3.4,5,8.2,4.2,13.3c-4.5,1.4-8.9-0.4-14.1-1.3
		c4.9,1.3,9,1.6,13.1,2.1c0.2,0.1,0.4,0.2,0.6,0.4c0,1.8-0.1,3.5-1.1,5.1c-1,3.7-3.6,6.1-6.8,7.8c-2.5,1.3-4.5,3.1-5.7,5.6
		c-9.5-2.9-9.5-2.9-7.8-12.7c1.1-6.4,4.2-11.8,8.4-16.6c1-1.1,3-1.9,1.6-3.9c-1.4-2-3.3-2.3-5.5-1.2c-7.1,3.4-12.8,8.5-17.2,15.1
		c-3.1-4.2-2.9-6.4,1-10.3c1.7,0.1,1.9-0.7,1.4-2.1C455.1,478.8,460.6,476.5,466.8,478.5z"/>
	<path class="st4" d="M501,537.1c2.6-1.8,4.8-4.2,7.9-5.4c5.2-2,10-2,14.6,1.4c-3.5,0.7-4,3.4-3.9,6.3c0.1,4.5-0.8,8.9-1.7,13.3
		c-0.5,2.5-1.6,3.1-3.9,3c-4.7-0.1-9.3-0.1-14-0.1C495.3,550.9,495.7,542.9,501,537.1z"/>
	<path class="st5" d="M542.9,474.6c-0.4-1.8,1-3.1,1.2-4.8c2.5-0.6,5.1-0.9,7.7-1.1c11,3.9,16.6,12.2,18.4,23.3
		c0.5,2.8,2.4,5.8,0.2,8.8c-0.9,1.3-1.7,3.1-3.4,3.1c-1.5,0-2.6-1.7-2.9-2.9c-1.3-5.6-3.7-10.5-8.3-14.3c-1.7-1.4-0.3-3.2,0.1-4.4
		c0.7-2.1,0.6-4,0.6-6.6c-1.1,2.3-2,4.1-2.8,5.8C549.7,479.9,546.3,477.2,542.9,474.6z"/>
	<path class="st2" d="M513.6,519.4c-5.2,0-10.3,0-15.5,0c-3.4-6.5-2.7-13.5-2.3-20.5c0.9-0.8,2-1.2,3.1-0.9
		c5.2,1.4,10.5-0.2,15.7,0.7C517,505.7,519,512.8,513.6,519.4z"/>
	<path class="st6" d="M536.1,551.7c2.1-6.5,4.2-12.9,10.5-16.9c2.2-1.4,2.8-2.8-0.5-3.7c-2.6-0.7-4.5-2.5-6-4.7
		c8.6-1.6,16.8-3.9,23.5-9.9c2.8,4.3,0.9,8.6,0,12.9c-0.3,0.8-0.9,1.4-1.8,1.7c-1.2-0.4-2.4-0.8-3.7-1.2c-5.3-1.6-6.5-1.1-7.6,4.3
		c-1.1,5-3.8,9.2-5.9,13.6C542.7,551.3,538.8,550.2,536.1,551.7z"/>
	<path class="st7" d="M444.4,515.5c-2.2,6.7-0.3,13.2,0.9,19.7c0.4,1.7-0.6,2.4-2,2.9c-7.3-4.7-9.1-12.7-11.6-20.2
		c-0.5-1.5-0.4-3.5,0.3-5.2c1-2.5,1.3-6,4.2-6.5c2.6-0.4,3.1,3,4.4,4.9C441.7,512.8,443.2,514.1,444.4,515.5z"/>
	<path class="st4" d="M516.5,485.3c7.9-2.2,16.3-3.1,23.4-7.8c1.4,1,2.1,2.2,1.2,3.9c-1.6,0.3-4-0.5-4.5,1.6
		c-0.6,2.5,2.7,3.2,3.4,5.3c0.9,1,1.1,2.2,0.7,3.5c-1.8,3.8-5.8,3.1-8.8,4.4c1.1,0.1,2.2-1.1,3.4,0c-0.6,3.4-2.5,4.8-5.9,4
		C526.9,493.6,522.5,488.8,516.5,485.3z"/>
	<path class="st2" d="M483.4,497.1c0.1-4.9-0.9-9.5-3.8-13.6c9,1.6,18,2.8,27.2,2.9c1.8,4.5,6.3,7.2,7.8,11.8
		c-0.5,0.2-1,0.3-1.5,0.2c-5.5,1-11,0.4-16.5-0.1c-2.6-2.2-1-5.7-2.3-8.3c-0.1-1.8-0.2-3.6-2.6-3.9c-2.2-0.3-3,1.2-3.8,2.9
		c-1.4,3-2.9,5.9-4.4,8.8c0,0,0.1,0,0.1,0c-0.4-0.2-0.5-0.4-0.4-0.6C483.1,497.2,483.2,497.1,483.4,497.1z"/>
	<path class="st8" d="M435.7,487.4c0.9-9.6,10-18.8,20.3-20.6c2.7,2.2,2.7,2.2,1.3,8.2c-1.5,3.5-3.4,6.7-6.8,8.6
		c-3.2-0.4-2.9-3.3-3.9-5.2c0,2,1.6,3.5,2,5.5c-0.1,0.5-0.4,0.9-0.8,1.2C444,487.2,440.3,489.7,435.7,487.4z"/>
	<path class="st9" d="M427.7,496.9c-6.4-2.3-6.5-2.3-4.9-8.7c3.2-12.6,11.6-20,23.7-23.3c2.2-0.6,4.5-2,7.1-0.8
		c-0.9,1-2.1,1.6-3.4,1.7c-11.3,3.8-17.1,12.4-20.3,23.3C429.2,491.7,429.6,494.7,427.7,496.9z"/>
	<path class="st4" d="M547.9,499c2.3,3.5,1.7,7.8,2.8,11.6c0.5,1.6-0.7,2.7-2.4,3.1c-4,1-8,2.5-12.2,2.8c-2.7-6.9,1.3-11.5,5.3-16.2
		C543.4,499,545.3,497.3,547.9,499z"/>
	<path class="st10" d="M526.3,523.6c-4-1.4-5.8-4.4-5.8-8.5c0-3.7-0.2-7.5,0-11.2c0.2-4.8-0.4-9.2-3.2-13.3
		c-1.8-2.6,0.1-1.7,1.3-1.1c8.2,8.4,10.9,18.5,9.7,29.9C528.2,520.9,527.8,522.5,526.3,523.6z"/>
	<path class="st11" d="M452.1,516.5c-3.8,2.7-3.6-1.1-3.7-2.7c-0.4-7.7,2.2-14.6,7.1-20.4c3.8-4.5,8.2-8.3,14.1-9.8
		c-1.5,4.6-5.7,7.1-8.3,11c-3.6,5.3-6.5,10.8-7.1,17.2C454,513.5,453.6,515.2,452.1,516.5z"/>
	<path class="st2" d="M542,501c-3.9,4.4-6.3,9.5-6,15.5c-2.3,0.4-4.1,1-4-2.8c0.2-4.6-1.3-9.1-2.7-13.6c2.5-0.5,4.5-1.7,5.8-3.9
		c1.9-1.4,3.7-3,6.3-1.9C543.3,496.4,543.5,498.6,542,501z"/>
	<path class="st7" d="M435.7,487.4c4.4,0.3,8.3-1.7,12.3-2.9c0.8,1.3,0.3,2.6-0.3,3.7c-2.2,4.2-3.1,8.8-4,13.4
		c-0.3,1.4,0.1,3.5-2.4,3.4C434.4,498.9,432.9,494,435.7,487.4z"/>
	<path class="st12" d="M542,485.4c-0.5-0.4-1.4-0.8-1.4-1.2c0-1.2,1.1-0.8,1.8-0.7c9,0.7,17,7.5,19.1,16.6c0.7,3.1,1.8,6.3,1,9.4
		c-0.5,1.8-0.7,4.3-3.7,4.1c-2.3-3-1.5-6.8-2.6-10.1C553.7,495.5,549.4,489.2,542,485.4z"/>
	<path class="st9" d="M572.3,477.4c2.4,1.7,3.2,4.2,3.7,7c-0.6,1.4,0.4,2.1,1.3,2.9c0.7,1.5,1.1,3.2,2.1,4.5
		c1.2,1.7,0.7,2.8-0.5,4.2c-1.4,1.5-3,1.2-4.5,0.9c-1.8-0.4-0.9-2.1-1-3.3c-0.6-7.3-3.6-13.6-8.3-19c-1.1-1.3-2.3-2.6-3.5-3.9
		c-0.5-0.7-0.6-1.3,0-2c3.2,2.2,7.6,3,9.6,6.9C570.9,476.6,571.1,477.4,572.3,477.4z"/>
	<path class="st10" d="M452.1,516.5c0.7-13.7,8.1-23.9,17.6-32.9c2,0.8,0.6,1.7,0,2.4c-6.9,7-10.3,15.5-10.6,25.3
		C458.8,515.7,454.9,515.4,452.1,516.5z"/>
	<path class="st10" d="M542,485.4c7.8,1.8,11.7,7.8,14.4,14.5c1.7,4.3,2.9,8.9,2.3,13.7c-6.3-0.1-6.2-5.2-6.6-9.2
		C551.3,496.5,548.3,490.1,542,485.4z"/>
	<path class="st3" d="M501,537.1c-2.4,6-4.7,12.1-1,18.5c-1.3,0-2.6,0-3.9,0.1c-2.4,0.1-3-0.7-2.4-3.2c1.1-4.7,0.4-9.6,0.4-14.5
		c0-2.7-1.9-4.3-3.9-5.7C494.4,532.4,498.4,533.2,501,537.1z"/>
	<path class="st11" d="M427.7,496.9c1.2-13.1,5.4-24.2,18.4-30c1.3-0.6,2.7-1.2,4.2-1c-8.6,5-15.7,11.1-17.3,21.6
		c-0.2,1.6-0.5,3.2-0.3,4.8C433.2,496.2,431.9,498,427.7,496.9z"/>
	<path class="st3" d="M562.5,530.2c0.2-4.5,1.6-9,1-13.6c0.2-0.6,0.2-1.3,0.5-1.8c1.4-1.9,1.4-6.1,4.3-5.5c2.6,0.6,2.6,4.4,3,7
		c0.1,0.5,0,1-0.1,1.4c-0.5,4-1.4,7.9-4.7,10.7C565.4,529.3,564.4,531,562.5,530.2z"/>
	<path class="st11" d="M486.2,522.3c-1.1,0.4-2.7,2.6-2.8-0.6c-0.3-10.9,1.1-21.5,5.8-31.5c1.2-2.4,1.4-2.3,2.7-0.1
		c-2.4,8.9-2.9,18.1-4.2,27.2C487.6,519.1,487.5,520.9,486.2,522.3z"/>
	<path class="st4" d="M467.8,538.1c3.3,3.9,3.8,8.7,4,13.6c-4.5-0.3-8.5-1-8.1-7.2c0.2-3-2-6-1.6-9.3
		C465.2,533.6,466.3,536.3,467.8,538.1z"/>
	<path class="st3" d="M494.3,490.2c1.7,2.4,2,5.1,1.8,7.9c0.4,0.2,0.5,0.4,0.4,0.6c-0.1,0.2-0.2,0.3-0.4,0.3
		c1.6,6.7,0.7,13.7,2,20.4c-4.1,0.8-5.6,0.2-5.2-5C493.6,506.4,493.4,498.3,494.3,490.2z"/>
	<path class="st11" d="M526.3,523.6c3.5-12.7-0.9-23.7-7.6-34.2c6.2,1.7,7.5,7.6,9.3,12.3c2.3,6,2.9,12.7,2.3,19.3
		C530.1,523.7,529.4,525.5,526.3,523.6z"/>
	<path class="st10" d="M457.1,529.3c3.6,5.2,3.7,11.5,4.8,17.4c0.2,1-0.1,1.1-1.9,1.2c-3.3-2.9-5.7-6.6-7.8-10.3
		C449.7,533.1,452.2,529.2,457.1,529.3z"/>
	<path class="st2" d="M441.3,505c2-6.9,2.8-14.2,6.7-20.5c0,0,0.4-0.2,0.4-0.2c2,0.1,3.2,0.8,2.7,3c-3.8,2.7-3,6.2-1.8,9.8
		c-1,3.5-3,6.6-3.3,11C444.1,506.9,442.7,505.9,441.3,505z"/>
	<path class="st2" d="M469.8,516.5c-0.4-2.6,0.1-4.4,3.1-5.5c3.9-1.5,7-4.4,9.4-7.9c-1.1,4-0.8,8.2-1.6,12.3
		c-0.6,3.3-1.6,3.7-4.4,2.7C474.2,517.2,472,517,469.8,516.5z"/>
	<path class="st10" d="M486.2,522.3c0.3-9.7,1.9-19.3,4.1-28.8c0.3-1.2,1.1-2.2,1.7-3.3c-1.2,8.5-0.6,17-0.9,25.5
		C491,518.8,489.1,521,486.2,522.3z"/>
	<path class="st9" d="M436.3,533.6c-6.5-3.3-10.4-8.5-11.4-15.7c-0.2-1.7-0.3-3.9,2.2-4.1c2.1-0.2,2.3,1.5,2.7,3.2
		C430.9,522.8,432.7,528.5,436.3,533.6z"/>
	<path class="st10" d="M491.1,535.1c2.2,5.7,1,11.6,0.7,17.4c-0.1,1-0.8,2.6-2.6,2.1c-2.6-3.8-4.2-8-4-12.7
		C485.4,538.3,486.5,535.1,491.1,535.1z"/>
	<path class="st4" d="M514.6,498c-3.5-3.2-7.6-6-7.8-11.5c2.7,0.2,5.1-1.7,7.8-1c-1.2,1.5-0.5,3,0.3,4.4c1.9,3.2,3,6.6,3.5,10.2
		C516.5,500.7,515.5,499.4,514.6,498z"/>
	<path class="st2" d="M541.1,481.3c-0.4-1.3-0.8-2.6-1.2-3.9c1-1,2-1.9,3-2.9c4.4,1.1,7.8,3.7,10.8,6.9c-0.4,2.9-1.8,3.2-4.4,2.2
		C546.7,482.6,543.9,482.1,541.1,481.3z"/>
	<path class="st10" d="M552.7,547.9c-1.6,1.6-4,1.5-5.2,0.5c-1.4-1.1,0.5-2.7,1.2-4c2-3.9,3.7-7.9,4.9-12.1c4,0.5,4.2,3.4,3.8,6.4
		C556.9,542.1,555.4,545.3,552.7,547.9z"/>
	<path class="st10" d="M523.4,553.7c-0.9,1.4-2.3,1.2-3.3,0.5c-1.1-0.8,0.2-1.7,0.4-2.5c1.2-3.7,2-7.4,1.9-11.2c0-1.7-0.4-3.7,2-4.3
		C530.2,541.7,529.9,547,523.4,553.7z"/>
	<path class="st3" d="M514.6,498c1.3,0.7,2.6,1.3,3.9,2c0,5-0.2,10,0.2,14.9c0.3,4.1-1.4,5.2-5,4.5c3.3-6.7,1-13.6,1-20.4
		c-0.3-0.2-0.4-0.4-0.3-0.6C514.4,498.1,514.5,498,514.6,498L514.6,498z"/>
	<path class="st11" d="M552.7,547.9c1-2.6,1.9-5.3,3.1-7.9c1.5-3.3,0.8-5.8-2.1-7.8c3.1-2.6,5.1,0.6,6.9,1.8
		c2.4,1.7,0.9,4.5-0.1,6.6C558.8,543.8,556.5,546.7,552.7,547.9z"/>
	<path class="st11" d="M523.4,553.7c0.2-0.6,0.1-1.4,0.5-1.8c4.4-5.1,4.2-10.3,0.6-15.7c5,0.6,7.3,4.6,7.4,8.5
		C532.1,549.6,528.2,552.5,523.4,553.7z"/>
	<path class="st7" d="M562.5,530.2c5-2.7,7-7.5,8.7-12.4c0.4,7.9-2.3,14.8-7.1,21.1c0.6-3.1,0.3-5.8-2.5-7.6
		C561.9,530.8,562.2,530.5,562.5,530.2z"/>
	<path class="st11" d="M491.1,535.1c-4.8,2-5.4,5.9-4.4,10.3c0.7,3.1,1.7,6.1,2.5,9.1c-4.6-3.3-5.8-8.5-6.6-13.5
		C481.9,536.8,486.8,533.7,491.1,535.1z"/>
	<path class="st11" d="M457.1,529.3c-5.2,2.2-6.1,4-3.5,8.6c1.9,3.5,4.3,6.7,6.4,10c-5.7-3.5-9.1-9-11.5-14.8
		c-1-2.5,2.3-3.4,4.1-4.5C454.1,527.7,456,526.3,457.1,529.3z"/>
	<path class="st11" d="M572.3,532.3c-1.1-1.5-1.2-1.5-0.8-2.7c1.5-4.2,1.9-8.6,1.7-13c-0.1-3.5,1.4-3.8,3.9-2
		c1.9,5.2-0.6,9.6-2.5,14.1C574.1,530,573,531,572.3,532.3z"/>
	<path class="st9" d="M572.3,532.3c2-5.8,4.6-11.5,4.9-17.8c3.2,1.6,2.2,4.7,1.7,6.8C577.9,525.6,576.4,529.8,572.3,532.3z"/>
	<path class="st3" d="M542,501c0.2-2.3-0.3-4.5-1.1-6.7c0.2-1.5,1.2-2.3,2.3-2.9c0.2,0,0.4-0.1,0.6-0.1c2.6,1.9,3.7,4.6,3.9,7.8
		C545.6,498.8,543.9,500.1,542,501z"/>
	<path class="st3" d="M467.8,538.1c-1.9-1.1-3.5-2.7-5.8-3c-1-2.9-2.1-5.8-3.1-8.7C463.1,529.3,466.6,532.8,467.8,538.1z"/>
	<path class="st7" d="M456.1,475.6c-0.3-2.9,2.6-5.9-0.1-8.8c1-1.2,2.3-1.8,3.8-1.9c0.4,2.6,0.8,5.2,1.2,7.7
		C460,474.6,458.5,475.9,456.1,475.6z"/>
	<path class="st8" d="M551.8,468.7c-2.4,1.7-4.8,2.8-7.7,1.1c-0.7-1.8,0.8-3.2,1-4.9C547.9,465.2,549.7,467.1,551.8,468.7z"/>
	<path class="st3" d="M443.4,538.1c0.7-1,1.3-1.9,2-2.9c0.6,0,1.1-0.1,1.7-0.1c1.3,2.2,2,4.7,4.8,7.3
		C447.7,541.8,445.5,539.9,443.4,538.1z"/>
	<path class="st9" d="M559.6,469.4c-2.2-1.3-4.4-2.6-6.7-3.9c2.4,0.4,5,0.1,6.7,2.2C560.2,468.3,560.1,468.9,559.6,469.4z"/>
	<path class="st3" d="M540.1,492.1c0-1.3,0-2.6,0-3.8c2,0.1,3.1,1.4,3.9,3c0,0,0,0,0,0C542.7,491.7,541.8,493.5,540.1,492.1z"/>
	<path class="st9" d="M577.3,487.3c-1.3,0.1-2.1-0.6-2.4-1.8c-0.2-0.8,0.5-1,1.1-1.1C576.4,485.3,576.8,486.3,577.3,487.3z"/>
	<path class="st9" d="M572.3,477.4c-0.2,0.4,0.1,1.7-0.8,1c-0.8-0.5-1.6-1.7-0.4-2.9C571.5,476.2,571.9,476.8,572.3,477.4z"/>
	<path class="st9" d="M559.6,469.4c0-0.6,0-1.2,0-1.7c0.7,0.2,1.7-0.2,1.9,1c0,0.7,0,1.3,0,2C560.9,470.2,560.2,469.8,559.6,469.4z"
		/>
	<path class="st13" d="M471.6,475.6c-6.8-2.4-7-3.6-5.9-10.7c1.8-12.1,8.3-19.1,20.2-21.3c2.7-0.5,5.5-0.9,8.1-1.1
		c9.2-0.6,18.4-0.3,27.6,1c6.8,1,11.3,4.8,14.3,10.9c1.8,3.7,3.2,7.4,3.9,11.4c0.8,4.1,0.5,8.2-4.6,9.8c-2.3,1-4.7,1.1-7.1,0.2
		c-0.6-0.2-1.3-0.3-1.9-0.5c-15.3-6.7-30.5-6.5-45.7,0.5C477.6,477.2,474.6,476.8,471.6,475.6z"/>
	<path class="st14" d="M471.6,475.6c6.8,0.6,12.7-2.5,18.7-4.5c9.1-3.1,18-3.2,27.1,0c5.8,2,11.5,4.4,17.8,4.5
		c-5.7,4.2-12.5,4.9-19.1,5.7c-9.2,1.1-18.6,2-27.9,0.2C482.3,480.4,476.5,479.3,471.6,475.6z"/>
	<path class="st2" d="M456.1,475.6c1.6-1,3.3-2,4.9-2.9c1.3,2.6,4.1,3.6,5.8,5.8c-5.9,0.1-11.2,1.3-14.6,6.8c-1.6,0.5-2.1-0.3-2-1.7
		C452.1,480.8,454.1,478.2,456.1,475.6z"/>
	<path class="st0" d="M483.4,497.1c0,0.3,0.1,0.6,0.1,0.9c-5.2,0.1-10.6,0.7-16.2-3.8C473.5,495.3,478.4,496.2,483.4,497.1z"/>
	<path class="st0" d="M450.2,483.5c0.4,0.9,0.9,1.6,2,1.7c0.6,1.2,1,2.3-1.1,2.1c-0.4-1.4-1.6-2.2-2.7-3c-3.6-4.6-3.7-4.8-1.7-9.1
		C448.1,478,447.8,481.3,450.2,483.5z"/>
	<path d="M514.7,498c0,0.3,0,0.6,0,1c-6.2,1.7-12.4,1.1-18.5,0c0-0.3,0-0.6,0-0.9C502.3,498.1,508.5,498,514.7,498z"/>
	<path d="M540.1,492.1c1.3-0.3,2.6-0.6,3.9-0.9c-0.7,1.4-1.7,2.3-3,3.1c-1.9,0.7-3.5,2.1-5.7,1.9c-1.7-0.3-3.3,1.7-5.4,0.3
		C533.4,495,536.7,493.5,540.1,492.1z"/>
	<path class="st15" d="M479.2,449.9c3.1-3.2,7.4-3.9,11.4-4.4c10.6-1.3,21.3-2.2,31.9,0.8c2.9,0.8,7.4,1.6,7.1,4.4
		c-0.3,3-4.7,1.4-7.2,1.3C507.9,451.5,493.5,450.6,479.2,449.9z"/>
	<path class="st1" d="M473.2,454.9c20,8.8,38.7,7.7,57.2,1.4C525.5,466.6,487.3,466.6,473.2,454.9z"/>
	<path class="st15" d="M467,471.5c-1-4.2,1.2-7.7,2.2-11.5c0.2-0.7,0.3-2,1.7-2c1.4-0.1,2,0.7,2.7,1.7
		C476.1,463.6,472.8,469.6,467,471.5z"/>
	<path class="st15" d="M534,457.1c1.7,4.9,4.2,8.2,4.1,12.3c0,1.6-0.4,3-2.2,3.2c-2.1,0.2-2.8-1.2-2.7-3.1
		C533.4,465.8,532.7,462.1,534,457.1z"/>
</g>
</svg>
