<?xml version="1.0" encoding="utf-8"?>
<!-- Generator: Adobe Illustrator 23.0.1, SVG Export Plug-In . SVG Version: 6.00 Build 0)  -->
<svg version="1.1" id="Layer_4" xmlns="http://www.w3.org/2000/svg" xmlns:xlink="http://www.w3.org/1999/xlink" x="0px" y="0px"
	 viewBox="0 0 1000 1000" style="enable-background:new 0 0 1000 1000;" xml:space="preserve">
<style type="text/css">
	.st0{fill:#F90000;}
	.st1{fill:#06853D;}
	.st2{fill:#06CB63;}
	.st3{fill:#049945;}
	.st4{fill:#043F1D;}
	.st5{fill:#DEDCA8;}
	.st6{fill:#054821;}
	.st7{fill:#065A2A;}
	.st8{fill:#7F7849;}
	.st9{fill:#C5C27C;}
	.st10{fill:#FE3A3A;}
</style>
<g>
	<path d="M544.9,450.4c8.8,5,19.1,7.2,27.2,13.5c9.4,7.2,16.2,16.2,17.6,28.2c0.7,5.9-2.4,10.3-7.7,13.1c7.1,4.3,7.6,8.5,6.5,17
		c-1.2,8.8-4.9,15.9-14,19.2c-1.4,0.5-2.5,2.1-3.5,3.3c-7.9,10.6-18.9,14.9-31.5,17c-14.7,2.4-29.4,3.4-44.2,2.7
		c-15.9-0.7-31.7-2.7-45.5-11c-9-5.4-17.8-11.3-26.4-17.3c-6.8-4.8-9.8-16.8-7.5-24c1.5-4.5,5.1-5.6,8.7-7.2
		c-0.2-0.4-0.3-0.8-0.5-0.8c-13.4-4.3-12.4-11.7-9.6-21.6c4.6-15.9,16.5-23.7,31.9-27.4c4.4-1,8.9-2,13.3-2.9
		c1.9,4,0.1,8.2,0.7,12.2c-0.8,1.8-2.6,2.3-4.2,3.1c-9.8,3.5-17.6,9-19.8,20c-2,6.7-0.2,12.1,5.2,16.4c2,1.6,3.4,1.9,4.2-1.1
		c0.6-2.2,1.6-4.2,2.7-6.3c3.2-5.9,8.1-10.1,13.7-13.5c1.4-0.9,2.8-1.7,4.3-2.2c2.4-0.7,4.5-0.4,6,1.8c1.4,2.1,0.1,3.7-1.2,5.2
		c-4.7,5.2-7.6,11.2-8.7,18.2c-0.3,1.8-0.5,3.5-0.3,5.3c1.3,3.5,4.7,2.9,7.3,3.6c9.4,2.5,9.4,2.4,10.6-7.1c0.2-1.8,0.8-3.4,1.1-5.2
		c0.5-1.7,0.8-3.5,1.4-5.3c1.1-3.4,2.5-6.7,4.5-9.7c1.2-1.7,2.9-2.7,5-2.1c2,0.6,2.7,2.2,3,4c0.3,2.1,0.3,4.2-0.1,6.3
		c-1.2,6.1-0.4,12.3-0.7,18.5c-0.1,2.5,1.1,3.6,3.5,3.6c5,0,10.1,0,15.1,0c2.9,0,4-1.6,4-4.3c0-4.2,0-8.5-0.1-12.7
		c0-3.7-1.4-6.9-3-10.1c-0.9-1.9-1.9-3.9,0.1-5.8c0.7-0.4,1.4-0.5,2.2-0.4c7.3,2.5,11.1,8.4,14.1,15c1.6,4.1,2.4,8.4,2.8,12.7
		c0.2,1.8,0.4,3.3,2.7,2.9c3.2-0.4,6.4-1.4,9.5-2.1c2.6-0.6,3.8-2.1,3.3-4.9c-0.6-2.9-0.9-5.8-1.8-8.6c-0.7-2.9-1.8-5.5-3.8-7.7
		c-1.2-1.4-2.8-2.4-4.3-3.5c-0.4-0.3-0.8-0.6-1.1-0.9c-1.3-1.4-3-2.7-2.1-5c0.9-2.1,2.9-2.2,4.9-2.3c2.5,0.1,4.8,0.7,7.1,1.5
		c3.1,1.2,4.9,0.4,5.9-2.8c0.4-1.3,0.6-3.8,2.8-3.1c1.7,0.6,1.6,2.9,1,4.3c-1.6,4.1,0.1,6.9,2.8,9.9c3.4,3.7,4.1,8.7,5.3,13.7
		c3.3-2.2,4.3-4.9,3.9-8.7c-1.4-11.9-6.9-20.7-18.1-25.7c-2.4-1.7-5.4-2.6-7.2-5.2C545,459.7,543.4,455,544.9,450.4z"/>
	<path class="st0" d="M459.8,464.8c-1.4-4.2-0.7-8.5,0-12.7c6.7-12.6,17.8-17.1,31.4-18.8c12-1.5,23.4,0.2,35.1,2.1
		c8.5,1.4,13.4,7.1,17.7,13.8c0.2,0.4,0.6,0.7,0.9,1c1.1,4.8,1.5,9.6,0.2,14.5c1,1.7,0.1,3.4,0,5.1c-0.6,3.4-2,6.3-4.7,8.5
		c-7.3,4.7-15.2,7.3-24,7c-0.6,0.1-1.2,0.1-1.8,0.2c-2.5,1.4-5.1,2.3-8,2.2c-9,0.5-17.7-2-26.6-2.9c-4.8-1.3-9.1-3.7-13.6-5.6
		C459.8,474.4,458,470.5,459.8,464.8z"/>
	<path class="st1" d="M444.4,515.5c7.1,7.2,16.9,8.4,25.9,10.7c15.5,4,31.4,3.4,47.2,3c7.5-0.2,14.9-1.7,22.4-2.7
		c2.6,1.1,4.7,2.8,7.3,4c2,0.9,2.7,3,0.8,4.2c-6.3,4.1-8,11.3-11.9,17c-1.8-0.4-3.3,1.5-5.1,0.8c4.3-8.4,4-12.5-1.4-16.4
		c-1.8-1.3-4-2-6-2.9c-7.6-2.5-14.5-1.6-20.6,3.9c-0.5,0.4-1.2,0.5-1.8,0.5c-3.6-1.9-7-4.1-10.9-5.2c-9.1,1.3-11.9,7-8.1,16.6
		c0.8,1.9,1.8,3.7,3,5.9c-4.8-0.6-9.2-1.1-13.2-3.2c-2.4-4-1.9-9-4.6-12.8c-1.7-4.9-5.3-8.4-8.3-12.4c-4.2-2.6-7.3,0.1-10.5,2.3
		c-2.4,1.6-2.6,3.9-1.3,6.4c-0.8,0.7-1.6,0.6-2.3-0.1C442.4,528.6,439.9,522.1,444.4,515.5z"/>
	<path class="st2" d="M479.5,483.6c9,1.6,18.1,2.8,27.3,2.9c2.4,3.1,3.8,6.9,7.1,9.4c0.8,0.6,1.6,1.8,0,2.6
		c-5.1,0.7-10.2,0.9-15.3,0c5.2,0.9,10.4,0.7,15.6-0.1c2.2-1.5,3.2,0.1,4.2,1.6c0.1,5.4,0,10.7,0.2,16.1c0.1,2.3-0.4,3.6-3.1,3.5
		c-6.8-0.2-13.6-0.1-20.5-0.1c-1.8,0-3.4,0-2-2.6c0.4-0.6,0.3-1.6,0.2-2.4c-0.3-8.1,0.3-16.1,1-24.2c0.1-1.6,0.2-3.4-1.9-3.9
		c-2-0.5-3.3,0.3-4.1,2.3c-1.4,3.2-3.1,6.2-4.7,9.2c-0.2-0.2-0.3-0.3-0.5-0.5c-0.2-0.4-0.4-0.9-0.5-1.3
		C482.1,491.8,479.9,487.9,479.5,483.6z"/>
	<path class="st3" d="M479.5,483.6c2.9,4.1,3.9,8.7,3.8,13.6c-4.6,0.6-9.1-0.7-12.4-1.4c-1.8-0.1-1.3,1-1.4,0.3
		c0-0.3,0.1-0.4,0.3-0.4c4.5,1.2,9.1,1.1,13.6,2.3c0,0-0.1-0.1-0.1-0.1c0.1,1.8,0.1,3.5-1.1,5c-2.7,7.4-8.8,9.9-16,10.8
		c-2,0.2-3.9-0.3-5.2-2c-0.3-9.3,2.9-17.3,8.9-24.3c1-1.2,3.6-1.9,2-4.2c-1.6-2.3-3.6-2.1-6-0.9c-6.9,3.5-12.5,8.4-16.7,14.8
		c-3.2-4.2-3-6.4,1-10.4c1.7,0.1,1.9-0.7,1.4-2.1c3.5-6,8.9-8.2,15.2-6.3C471.1,480.2,475.3,481.9,479.5,483.6z"/>
	<path class="st4" d="M501,537.1c2.6-1.8,4.8-4.2,7.9-5.4c5.2-2,10-2,14.6,1.4c-3.5,0.7-4,3.4-3.9,6.3c0.1,4.5-0.8,8.9-1.7,13.3
		c-0.5,2.5-1.6,3.1-3.9,3c-4.7-0.1-9.3-0.1-14-0.1C495.3,550.9,495.7,542.9,501,537.1z"/>
	<path class="st2" d="M540,477.4c2.2-2.1,3.6-4.7,4.1-7.7c2.5-0.5,5.1-0.9,7.7-1.1c11,4,16.2,12.4,18.7,23.3
		c1.4,6.2,0.5,10.7-5.5,14c-1.5-7-2.9-14.2-9.1-19c-1.3-1-0.9-2-0.4-3.3c0.8-2.4,1.9-4.8,0.9-7.5c-0.2,0.2-0.5,0.3-0.6,0.5
		c-2.7,7.4-2.7,7.4-10.1,5.7c-1.5-0.4-3.1-0.7-4.6-1.1C539.8,480.3,538.9,479.1,540,477.4z"/>
	<path class="st5" d="M453.6,464.1c-4.5,2.9-9.3,5.2-13.3,9c-5.4,5.3-7.2,11.7-7.7,18.9c-0.2,2.5,1,5.7-3.7,5.1
		c-5-0.6-7.7-2.8-7-6.5c1.7-8.1,5.8-14.7,12.3-19.9C439.9,466.2,446.5,464.5,453.6,464.1z"/>
	<path class="st5" d="M470.6,483.8c-5.6,6.5-9.9,13.4-11.1,21.9c-0.1,0.9-0.7,1.9-0.5,2.8c1,5-2.3,6.6-6.1,8.1
		c-3.7,1.5-4.7-0.2-4.7-3.5c0-8.1,2.9-15.2,8.5-21.1C460.5,488,464.8,484.7,470.6,483.8z"/>
	<path class="st6" d="M536.1,551.7c2.1-6.5,4.2-12.9,10.4-16.9c2.2-1.4,2.8-2.8-0.5-3.7c-2.6-0.7-4.5-2.5-6-4.7
		c8.5-1.6,16.8-3.9,23.5-10c2.8,4.3,0.9,8.6,0,12.9c-0.3,0.8-0.9,1.4-1.8,1.7c-1.2-0.4-2.4-0.8-3.7-1.2c-5.3-1.6-6.5-1.1-7.6,4.3
		c-1.1,5-3.8,9.2-5.9,13.6C542.7,551.3,538.8,550.2,536.1,551.7z"/>
	<path class="st5" d="M539.6,483.8c10.4-0.5,19.5,5.8,21.9,16.5c0.6,2.6,1.5,5.2,1.1,8c-0.4,2.5-0.6,5.6-4.1,5.3
		c-2.8-0.3-5.5-1.5-5.7-5.2c-0.2-3.1-0.6-6.3-1.5-9.3C549.2,492,547.2,489.5,539.6,483.8z"/>
	<path class="st2" d="M444.4,515.5c-2.2,6.7-0.3,13.2,0.9,19.7c0.4,1.7-0.6,2.4-2,2.9c-7.3-4.7-9.1-12.7-11.6-20.2
		c-0.5-1.5-0.4-3.5,0.3-5.2c1-2.5,1.3-6,4.2-6.5c2.6-0.4,3.1,3,4.4,4.9C441.7,512.8,443.2,514.1,444.4,515.5z"/>
	<path class="st5" d="M516.6,488.6c8.6,2.9,10.4,10.3,12.7,17.3c1.5,4.8,1,9.9,1.1,14.9c0,4-1.8,4.5-4.9,2.7
		c-3.1-1.8-5.1-4.3-4.9-8.2c0.1-2.1,0-4.2,0-6.3C520.4,502,521.9,494.8,516.6,488.6z"/>
	<path class="st2" d="M451.2,487.3c-4.1,2.6-3.1,6.2-1.9,9.9c-1,3.5-3.1,6.6-3.2,10.4c-8.5-2.8-14.4-12.2-10.4-20.2
		c3.8-2.2,8.1-2.8,12.3-3.8C450,484,451.4,484.9,451.2,487.3z"/>
	<path class="st3" d="M540,477.4c0.4,1.3,0.7,2.6,1.1,3.8c-1.6,0.4-4.1-0.5-4.6,1.6c-0.5,2.5,2.8,3.2,3.6,5.3c1.1,1.4,0.8,2.8,0,4.2
		c-2,3.2-5.7,2.6-8.1,3.6c-1.2,0.3-0.5,1.2-0.7,0.6c0-0.1,0.1-0.2,0.4-0.3c1.2-0.2,2.4-1.3,3.7-0.2c-0.6,3.4-2.5,4.8-5.9,3.9
		c-2.7-6.3-6.9-11.4-13-14.7c3.4-1.8,7.3-1.7,10.9-2.7C531.9,481.5,535.9,479.6,540,477.4z"/>
	<path class="st3" d="M448.4,484.3c-4.2,1.3-8.1,3.3-12.7,3.1c0.9-9.6,10-18.8,20.3-20.6c2.9,0.4,2.2,2.7,2.1,4.3
		c-0.5,5.1-2.8,9.4-7.1,12.4c-4,0.2-3.3-3.6-4.6-5.4C446.5,480.2,448.4,481.9,448.4,484.3z"/>
	<path class="st5" d="M483.5,523.7c-0.5-11.6,0.9-22.3,5.3-32.6c0.5-1.1,0.8-2.9,2.3-2.7c1.9,0.3,1.1,2.2,0.9,3.2
		c-1.3,8-0.6,16.1-1,24.1C490.9,519.8,487.9,522,483.5,523.7z"/>
	<path class="st2" d="M529.4,500.1c2.4-0.5,4.4-1.7,5.8-3.8c2.5-2,5.5-3,8-4.9c0.2,0,0.5-0.1,0.7-0.1c2.8,1.9,3.6,4.7,4,7.8
		c-6.5,3.3-10,8.6-10.8,15.8c-0.1,0.7-0.5,1.1-1,1.6c-1.2,0.2-2.4,0.3-3.8,0.5C532.5,511,531,505.5,529.4,500.1z"/>
	<path class="st3" d="M536.1,516.4c0.2-10,4.5-16.2,11.8-17.4c2.3,3.5,1.5,7.7,2.7,11.4c0.5,1.5-0.4,2.8-2.1,3.2
		C544.4,514.7,540.4,516.3,536.1,516.4z"/>
	<path class="st5" d="M553,464.8c12.4,3.8,21.4,10.9,25.1,23.7c0.4,1.3,1,2.6,1.6,3.9c0.7,1.4,0.1,2.4-0.8,3.4
		c-1.3,1.5-2.9,1.3-4.4,1.2c-1.8-0.1-1.1-1.6-1.2-2.6c-0.9-12-6.8-20.7-17-26.8C555.1,467,553.3,467,553,464.8z"/>
	<path class="st2" d="M461.1,511.8c9.3,2.6,15.8-1.9,21.2-8.8c-0.6,4.4-1.3,8.8-1.8,13.2c-0.2,1.6-0.6,2.7-2.3,2.2
		c-5.4-1.3-10.8-2.7-16.1-4.3C461.2,514,460.7,512.9,461.1,511.8z"/>
	<path class="st7" d="M501,537.1c-2.4,6-4.7,12.1-1,18.5c-1.3,0-2.6,0-3.9,0.1c-2.4,0.1-3-0.7-2.4-3.2c1.1-4.7,0.4-9.6,0.4-14.5
		c0-2.7-1.9-4.3-3.9-5.7C494.4,532.4,498.4,533.2,501,537.1z"/>
	<path class="st7" d="M562.5,530.2c0.2-4.5,1.6-9,1-13.6c0.2-0.6,0.2-1.3,0.5-1.8c1.4-1.9,1.4-6.1,4.3-5.5c2.6,0.6,2.6,4.4,3,7
		c0.1,0.5,0,1-0.1,1.4c-0.5,4-1.4,7.9-4.7,10.7C565.4,529.3,564.4,531,562.5,530.2z"/>
	<path class="st4" d="M467.8,538.1c3.3,3.9,3.8,8.7,4,13.6c-4.5-0.3-8.5-1-8.1-7.2c0.2-3-2-6-1.6-9.3
		C465.2,533.6,466.3,536.3,467.8,538.1z"/>
	<path class="st2" d="M450.1,483.5c2.7-3.5,6.1-6.6,6.6-11.4c0.2-1.9,1-3.8-0.7-5.4c1-1.2,2.3-1.8,3.8-1.9
		c-0.1,5.8,2.2,10.4,7.1,13.6c-5.9,0.2-11.4,1.2-14.7,7C450.6,485.7,450,485,450.1,483.5z"/>
	<path class="st8" d="M457.1,529.3c3.6,5.2,3.7,11.5,4.8,17.4c0.2,1-0.1,1.1-1.9,1.2c-3.3-2.9-5.7-6.6-7.8-10.3
		C449.7,533.1,452.2,529.2,457.1,529.3z"/>
	<path class="st5" d="M436.3,533.6c-6.2-2.3-11.8-10.3-11.6-16.4c0.1-1.8,0.2-3.4,2.4-3.4c1.8,0,2.2,1.3,2.5,2.9
		c0.6,3.1,1.5,6.1,2.7,9C433.4,528.4,435,530.9,436.3,533.6z"/>
	<path class="st8" d="M491.1,535.1c2.2,5.7,1,11.6,0.7,17.4c-0.1,1-0.8,2.6-2.6,2.1c-2.6-3.8-4.2-8-4-12.7
		C485.4,538.3,486.5,535.1,491.1,535.1z"/>
	<path class="st3" d="M518.4,500c-1.3-0.6-2.6-1.3-3.9-1.9l0.1,0.1c-3.3-3.4-7.7-6.1-7.8-11.7c2.7,0.2,5.1-1.8,7.8-1
		c-1.6,1.8-0.3,3.3,0.5,4.7C516.9,493.3,518,496.5,518.4,500z"/>
	<path class="st8" d="M552.7,547.9c-1.6,1.6-4,1.5-5.2,0.5c-1.4-1.1,0.5-2.7,1.2-4c2-3.9,3.7-7.9,4.9-12.1c4,0.5,4.2,3.4,3.8,6.4
		C556.9,542.1,555.4,545.3,552.7,547.9z"/>
	<path class="st8" d="M523.4,553.7c-0.9,1.4-2.3,1.2-3.3,0.5c-1.1-0.8,0.2-1.7,0.4-2.5c1.2-3.7,2-7.4,1.9-11.2c0-1.7-0.4-3.7,2-4.3
		C530.2,541.7,529.9,547,523.4,553.7z"/>
	<path class="st9" d="M552.7,547.9c1-2.6,1.9-5.3,3.1-7.9c1.5-3.3,0.8-5.8-2.1-7.8c3.1-2.6,5.1,0.5,6.9,1.8c2.4,1.7,0.9,4.5-0.1,6.6
		C558.8,543.8,556.5,546.7,552.7,547.9z"/>
	<path class="st9" d="M523.4,553.7c0.2-0.6,0.1-1.4,0.5-1.8c4.4-5.1,4.2-10.3,0.6-15.7c5,0.6,7.3,4.6,7.4,8.5
		C532.1,549.6,528.2,552.5,523.4,553.7z"/>
	<path class="st9" d="M491.1,535.1c-4.8,2-5.4,5.9-4.4,10.3c0.7,3.1,1.7,6.1,2.5,9.1c-4.6-3.3-5.8-8.5-6.6-13.5
		C481.9,536.8,486.8,533.7,491.1,535.1z"/>
	<path class="st2" d="M562.5,530.2c5-2.7,7-7.5,8.7-12.4c0.4,7.9-2.3,14.8-7.1,21.1c0.6-3.1,0.3-5.8-2.5-7.6
		C561.9,530.8,562.2,530.5,562.5,530.2z"/>
	<path class="st9" d="M457.1,529.3c-5.2,2.2-6.1,4-3.5,8.6c1.9,3.5,4.3,6.7,6.4,10c-5.7-3.5-9.1-9-11.5-14.8c-1-2.5,2.3-3.4,4.1-4.5
		C454.1,527.7,456,526.3,457.1,529.3z"/>
	<path class="st9" d="M572.3,532.3c-1.1-1.5-1.2-1.5-0.8-2.7c1.5-4.2,1.9-8.6,1.7-13c-0.1-3.5,1.4-3.8,3.9-2
		c1.9,5.2-0.6,9.6-2.5,14.1C574.1,530,573,531,572.3,532.3z"/>
	<path class="st5" d="M572.3,532.3c2-5.8,4.6-11.5,4.9-17.8c3.2,1.6,2.2,4.7,1.7,6.8C577.9,525.6,576.4,529.8,572.3,532.3z"/>
	<path class="st7" d="M467.8,538.1c-1.9-1.1-3.5-2.7-5.8-3c-1-2.9-2.1-5.8-3.1-8.7C463.1,529.3,466.6,532.8,467.8,538.1z"/>
	<path class="st3" d="M551.8,468.7c-2.4,1.7-4.8,2.8-7.7,1.1c-0.8-1.9,0.9-3.2,1-4.9C547.8,465.2,549.7,467.1,551.8,468.7z"/>
	<path class="st7" d="M443.4,538.1c0.7-1,1.3-1.9,2-2.9c0.6,0,1.1-0.1,1.7-0.1c1.2,2.2,2.5,4.5,4,7.2
		C447.7,541.8,445.5,539.9,443.4,538.1z"/>
	<path class="st2" d="M539.1,492.3c0.6-1.3,1.1-2.6,1-4.1c2,0.1,3.1,1.4,3.9,3c0,0,0.1-0.1,0.1-0.1
		C542.4,492,541.1,493.9,539.1,492.3z"/>
	<path class="st10" d="M500.3,482.5c-10.7,0.1-20.8-2-30.3-7.2c-4.1-2.2-5.3-4.6-4.5-9.7c2-12.2,8-19.8,20.4-21.9
		c2.7-0.5,5.5-0.9,8.1-1.1c9.4-0.6,18.8-0.4,28.1,1.1c6.7,1,11.1,4.9,13.8,10.9c1.3,2.8,2.4,5.6,3.2,8.6c3,10.7-1.7,12.7-9.3,15.2
		C520.3,481.5,510.3,482.3,500.3,482.5z"/>
	<path d="M514.5,498.1c-5.9,3.5-11.8,1.9-17.8,0.1C502.7,498.2,508.6,498.2,514.5,498.1C514.6,498.2,514.5,498.1,514.5,498.1z"/>
	<path d="M483.5,498.1c-5.2-0.1-10.6,0.6-16.2-3.8c6.2,1.1,11.1,2,16.1,2.9C483.4,497.5,483.4,497.8,483.5,498.1z"/>
	<path d="M450.1,483.5c0.7,0.6,1.4,1.3,2,1.9c0.5,1,1.1,2-0.9,1.9c-1-1-1.9-2-2.9-3c-2.1-2.8-4.7-5.4-1.5-9.2
		C447.7,478.1,448,481.1,450.1,483.5z"/>
	<path d="M539.1,492.3c1.6-0.4,3.3-0.7,4.9-1.1c-2,3.3-5.2,4.4-8.8,5.1c-1.7-0.4-3.2,1.6-5.3,0.4C532.5,494.1,536.7,495,539.1,492.3
		z"/>
	<path class="st0" d="M474.4,455.6c18.8,8,37.5,7,56.2,0.5C524.7,466.6,487.8,466.5,474.4,455.6z"/>
</g>
</svg>
