<?xml version="1.0" encoding="utf-8"?>
<!-- Generator: Adobe Illustrator 23.0.1, SVG Export Plug-In . SVG Version: 6.00 Build 0)  -->
<svg version="1.1" id="Layer_4" xmlns="http://www.w3.org/2000/svg" xmlns:xlink="http://www.w3.org/1999/xlink" x="0px" y="0px"
	 viewBox="0 0 1000 1000" style="enable-background:new 0 0 1000 1000;" xml:space="preserve">
<style type="text/css">
	.st0{fill:#6E3720;}
	.st1{fill:#6E3721;}
	.st2{fill:#FB9A7A;}
	.st3{fill:#FEFEFE;}
	.st4{fill:#C0FEFE;}
	.st5{fill:#7F7F7F;}
	.st6{fill:#FEFDFD;}
	.st7{fill:#FB9B7A;}
	.st8{fill:#ECE3DF;}
	.st9{fill:#E6E1E0;}
	.st10{fill:#F2E9E6;}
	.st11{fill:#F8F9F9;}
	.st12{fill:#020202;}
	.st13{fill:#020303;}
	.st14{fill:#FCF7F5;}
	.st15{fill:#FBFBFB;}
	.st16{fill:#003F7E;}
	.st17{fill:#003F7D;}
</style>
<g>
	<path class="st0" d="M545,313.4c12.5,11.3,13.6,25.9,11.9,41.2c-1.9,17.8-8,34.6-13.4,51.5c-1.2,3.8-2.2,7.7-3.9,11.3
		c-1.2,2.5,0.9,3.6,1.6,5c4.2,9.4,4.4,18.9-2.1,26.7c-5,6.1-5.2,12.6-5.5,19.4c-0.6,13.6-3.1,26.9-6.8,40
		c-3.4,11.8-9.6,22.3-15.6,33c-5.1,9.2-10.5,18.2-16.3,26.9c-4.1,6.2-8.5,12.2-12.3,18.6c-9.2,15.6-17.6,31.6-27.6,46.7
		c-3.8,5.7-8,10.8-13.2,15.3c-10.2,8.9-19.5,5.4-25.8-4.4c-5.4-8.5-7.8-18.2-9.6-28c-4.4-24.9-5.9-49.8-2.6-75.1
		c2.3-17.5,6.4-34.7,7.9-52.3c0.8-9.9,1.1-19.8-0.6-29.5c-1.7-9.9-6.9-18.6-11.2-27.5c-6.2-12.7-12.4-25.2-17.1-38.6
		c-5.9-16.8-7-33.6-2.7-50.7c3.6-14.5,13.1-24.8,25.6-32.8c9.6-6.1,20.1-10,30.9-12.6c7.8-1.9,15.9-3.5,24.1-2.9
		c0.5,3.4,0.7,6.7-0.4,10c-5.8,3.1-12.4,1.7-18.5,3.7c-10.5,3.4-21.6,5.9-30.8,12c-16,10.7-24.3,25-22.1,46.1
		c1.7,16.2,8,30.7,14.4,45.3c5.6,12.8,12.2,25.1,16.6,38.5c2.5,7.6,3.1,15.3,3.5,23c0.8,15.5-2,30.7-4.9,46
		c-5.1,26.9-8.7,53.9-4.6,81.4c1.9,12.7,5.7,24.7,10.9,36.3c3.2,7.2,6.9,7.5,12.4,1.6c8.1-8.6,14.2-18.6,19.8-28.8
		c10.2-18.3,20.4-36.6,32.3-53.9c10.8-15.6,18.8-32.7,26-50.2c5.1-12.5,5.7-26,5.4-39.4c0-1.7-0.8-2.2-2.5-2.1
		c-7.4,0.6-15.1-1-21.6,4.1c-0.8,0.7-2,1.3-3.1,0.5c-1.3-1-0.8-2.4-0.4-3.6c2-7.8,10.2-14.1,18.3-14c12.5,0.1,17.1-3.5,20-15.2
		c0.9-3.8,0.2-7.2-2-10.2c-2.6-3.5-2.2-6.7-0.8-10.5c7.1-19.2,13.5-38.7,17-58.9c1.8-10.4,2.3-20.7-3.9-30.1
		C543.3,322.1,542.4,317.3,545,313.4z"/>
	<path d="M459.8,304.8c0.5-3.3-1.2-6.9,0.9-10.1c3.1-7.4,12.5-6.5,20.9-3.2c1.6,0.6,3.1,1.7,4.6,2.5c5.1,2.1,8,6.7,11.5,10.6
		c4.6,6.4,9.3,12.8,6.8,21.5c-7.2,11.7-21.2,13.9-31.5,5c-1.6-1.4-3.1-2.8-4.6-4.3c-1.9-1.8-3.1-4.1-4.4-6.3
		c-0.9-1.7-1.7-3.4-2.4-5.2C460.4,311.9,458.1,308.7,459.8,304.8z"/>
	<path d="M545,313.4c-0.5,4.4,0,9-2.9,12.9c0.2,1.7-0.5,3.1-1.6,4.3c-1.7,1.4-3.6,2.7-5.2,4.3c-2.5,2-5.1,3.4-8.4,3.6
		c-6.2-0.2-11-2.6-13.4-8.7c-2-7.4-2.1-14.9-1.4-22.5c1-3.3,1.7-6.8,4.4-9.3c7-8.9,12.5-6.4,20.5,0.1
		C541.8,301.9,544,307.4,545,313.4z"/>
	<path class="st1" d="M516.6,297.9c-1.2,3.1-2.5,6.3-3.7,9.4c-5.6,0.7-10.7-1.3-16-2.6c-3.5-3.5-7-7.1-10.6-10.6
		C496.7,293,506.6,295.6,516.6,297.9z"/>
	<path class="st2" d="M539.9,329.8c0.7-1.2,1.5-2.4,2.2-3.6c7.4,8.1,6.4,18,5,27.3c-3.3,22-10.4,43.1-18.2,63.9
		c-0.9,2.5-1.2,4.3,0.7,6.5c7.8,9.5-0.1,24.7-9.1,28.2c-2.9,1.1-6,0-9,0.1c-9.4,0.2-16.3,6.2-17.8,15.8c4.7-1.1,7.9-5.5,13.5-5
		c4.6,0.4,9.6,0.7,14.5-1.1c1.1,19.5-1.9,37.7-10,55.4c-8.4,18.2-18.4,35.4-29.5,51.8c-11.8,17.3-20.5,36.3-31.7,53.9
		c-4.3,6.7-9,13-14.7,18.3c-5.4,5-8,4.2-11.4-2.3c-2.1-4.1-4-8.4-5.6-12.7c-5.9-16-7.8-32.7-7.9-49.6c-0.1-20.6,2.9-40.8,7.1-60.8
		c3.3-15.9,5-31.8,4.1-48c-0.7-12.6-5.4-24-10.3-35.2c-6.6-14.9-14-29.3-19.3-44.8c-3.7-10.8-5.7-21.8-5-32.8
		c0.7-11.3,6.4-20.8,14.6-29.1c7.5-7.6,17-10.7,26.4-14.4c10.1-4,20.5-6.6,31.5-6.7c0.2,3.7,2.1,7,3,10.6c-0.6,2.1-2.4,2.9-4.1,3.9
		c-5.3,3-9.8,6.8-13.6,11.7c-6.1,7.9-5.8,16.8-4.2,25.6c4.1,22.6,12.9,43.2,26.6,61.6c3.1,4.2,6.9,7.8,11.7,10.1
		c7.1,3.4,12.9,2.7,18-3.3c3.6-4.3,7-9,7.6-15c0.4-1.4,1.4-2.7,1.4-4.2c0.6-2,1-4.1,0.6-6.3c0.6-2.6,0.4-5.5,3.1-7.2
		c0.6,0,1,0.2,1.3,0.7c1.3,3.1,0.5,6.4,0.7,9.5c-0.1,1.5,0.2,3,0.3,4.5c-0.5,4.8,1.2,9,3.9,12.7c2.2,3,4.3,2.9,6.6-0.1
		c4.3-5.6,5.7-12.3,7.5-18.9c6-21.2,9.8-42.7,8.7-64.8C539,334,538.8,331.8,539.9,329.8z"/>
	<path class="st3" d="M509.8,392.6c-0.7,2.6-1.4,5.2-2.1,7.8c-0.4,0.3-0.8,0.2-1.3,0c-1-1-1.1-2.3-1-3.6c0.1-1,0.2-1.9,0.2-2.9
		c0-5.2-2.6-9.4-6-10c-3.4-0.6-7.8,3.1-9.1,8c-2.1,7.9-2.1,15.7,1.8,23.1c1,1.8,1.8,4.1,4.3,4c2.5-0.1,3.9-2,5.1-4
		c1.1-1.8,1.4-4,2.8-5.6c0.4-0.3,0.8-0.3,1.3-0.1c0.4,13.6-13.4,25.4-25.1,21.2c-8.1-2.9-13.4-9.5-17.7-16.6
		c-7.2-11.7-14-23.5-17.9-37.1c-2.9-10.1-5.6-19.9-6-30.5c-0.4-11.4,6.1-18.4,14.1-24.8c3-2.4,6.5-4.2,9.7-6.2
		c0.5,1.7,2.3,2.9,2.1,4.9c-1.8,2.2-4.7,2.9-6.9,4.4c-11.7,7.9-16.2,18.5-12.9,32.4c2.7,11.4,7.6,22.1,12.2,32.8
		c4.6,10.5,10.9,19.9,18.1,28.8c1.1,1.4,2.1,2.9,2.7,4.5c-9.2-17.4-15.9-35.6-21.1-54.6c-1.6-6-2.3-12.1-2.4-18.3
		c-0.2-10.9,5-18.8,14.3-24.2c2.9,1.2,4.5,4,6.9,5.8c9.7,7.3,22.1,2.8,28-5.9c1.6,0.9,2,2.6,2.1,4.1c0.7,8.3,2.8,16.5,3.6,24.8
		c0.2,10.4,1.7,20.8,1.5,31.3C510.8,388.3,511.5,390.7,509.8,392.6z"/>
	<path class="st4" d="M468.9,326.1c-3.1,4.5-8.3,7.2-10.7,12.4c-4.1,8.7-2.5,17.6-0.7,26.3c3.1,14.7,8.7,28.5,14.3,42.4
		c2.5,6.3,6,12,8.4,18.4c-5.9-5.6-10.6-12.1-15-18.9c-8-12.2-13-25.6-18.3-39.1c-2.6-6.7-3.4-13.4-4.3-20.2
		c-0.7-5.6,1.9-10.7,5.4-15.1c4.5-5.7,9.6-10.4,16.9-12.1C466.2,322.2,467.6,324.1,468.9,326.1z"/>
	<path class="st2" d="M508.7,355.3c-2.3-7.7-2.9-15.7-3.9-23.7c-0.2-1.9-0.7-3.8-1.1-5.7c2.2-7.2-1.9-12.7-5.2-18.4
		c-0.6-1-1.1-1.9-1.7-2.9c5.6-0.6,10.8,1.2,16,2.6c0.2,7.2-0.3,14.4,1.6,21.5c-1,7-1.2,14-1.7,21.1c-0.1,1.9-0.1,3.9-1.1,5.6
		C509.7,357.4,509.4,357.3,508.7,355.3z"/>
	<path class="st5" d="M498.3,316.4c-0.5,3.7-2,6.6-6,7.1c-3.5,0.5-7.8-2.7-7.6-6.5c0.3-6.2-3.4-10.7-5.6-15.8
		c-0.5-1.2-1.1-2.4,0-3.5c0.8-0.8,1.8-0.8,2.7-0.3c7.1,4.1,12.6,9.7,16.2,17.2C498.3,315,498.2,315.7,498.3,316.4z"/>
	<path class="st3" d="M510.8,354.3c0.6-6.9,1.2-13.8,1.9-20.7c0.2-1.7-0.3-3.7,1.7-4.7c1.8,6.6,7.3,8,13,9c2.1-0.8,3.3,0.4,3.4,2.1
		c0.9,14.7,1.1,29.3-3.8,43.5c-2,1.7-3.2-0.3-4.5-1.2c-3.9-2.5-5.9-2-7.6,2.4c-0.6,1.5-0.8,3.1-2,4.3c-0.4,0.2-0.9,0.3-1.3,0.3
		c-2.7-1.1-1.2-3.6-1.2-5c0.1-8-0.2-15.9-0.2-23.9C510.2,358.2,511.9,356.4,510.8,354.3z"/>
	<path class="st6" d="M539.9,329.8c2.1,23-1.2,45.3-7.2,67.4c-2.1,7.9-3.8,16.1-8.6,23.1c-3.2,4.7-6.2,5-9.1,0.1
		c-2.4-4.1-5.2-8.2-3.5-13.5c0.7,0.1,1.3,0.6,1.7,1.1c0.9,1.2,1.3,2.6,1.5,4.1c0.3,1.9,1.1,3.7,3.1,3.9c2.3,0.3,3.4-1.6,4.2-3.4
		c2.4-5.7,4-11.7,4.2-17.9c0.1-1.1-0.1-2.3,0.3-3.4c5.9-15.9,7.4-32.5,7.5-49.2c0-2.8,0.1-5.5,0.8-8.2
		C536.2,332.1,538,330.9,539.9,329.8z"/>
	<path class="st4" d="M535,333.9c1.2,8.5,0.3,17-0.3,25.5c-0.7,9.9-2.6,19.6-5.5,29.1c-0.3,1-1,2-1.5,3c-2.1-2.2-3-4.6-1.4-7.5
		c3.5-14.3,4.4-28.8,3.7-43.4c-0.1-2-1-2.5-2.5-2.8C529.9,336.5,532.5,335.2,535,333.9z"/>
	<path class="st5" d="M529.5,298.8c8.6,1.7,14.3,12.6,11,21.5c-1.2,3.2-3.1,5.7-6.6,5c-3.4-0.7-5-3.6-4.6-7
		C530.1,311.9,531,305.6,529.5,298.8z"/>
	<path class="st7" d="M510.8,354.3c1.7,7.9,0.1,15.9,0.5,23.9c0.2,3.5-0.8,7.1,0.3,10.5c0.8,1,0.2,2-0.1,3c-0.2,0.4-0.5,0.7-0.9,0.9
		c-0.3,0-0.6,0-0.9,0c-0.4-11.9-0.1-23.8-1.9-35.6c-0.1-0.5,0.5-1.1,0.8-1.7C510.4,357.1,510.5,355.5,510.8,354.3z"/>
	<path class="st8" d="M510.7,392.6c0.1-0.3,0.1-0.6,0.2-1c1.2-0.4,1.9,0.3,2.5,1.2c1,3.5,0.8,7-0.4,10.4c-0.6,0.6-1.3,0.6-2,0.1
		C510.9,399.7,510.8,396.2,510.7,392.6z"/>
	<path class="st9" d="M507,400.4c0.2,0,0.5,0,0.7,0c1.4,2.2,0.2,4-0.8,5.9c-0.4,0.3-0.8,0.3-1.2,0
		C505.2,404.1,504.3,401.8,507,400.4z"/>
	<path class="st10" d="M511,403.3c0.5,0,1,0,1.5,0c1.7,1.6,1.7,3.3,0,4.9c-0.3-0.4-0.6-0.8-0.9-1.2
		C510.9,405.8,510.5,404.7,511,403.3z"/>
	<path class="st11" d="M506,406.3c0.3,0,0.6,0,0.9,0c0.3,1.3,0.3,2.4-1.2,3c0,0-0.5,0-0.5,0C504,407.8,505,407,506,406.3z"/>
	<path class="st12" d="M506,406.3c-0.3,1-0.5,1.9-0.8,2.9c-0.4,3.1-2,5.7-3.7,8.2c-3.2,4.5-7.2,4.5-9.7-0.3
		c-3.9-7.4-4.9-15.3-3.1-23.6c0.7-3.3,1.8-6.3,4.6-8.6c5.3-4.3,10.2-2.9,12.8,3.4c1.7,4-0.6,8.2,0.9,12.1
		C506.7,402.3,506.3,404.3,506,406.3z"/>
	<path class="st13" d="M512.5,408.2c0.9-1.6,0.5-3.3,0-4.9c0-3.6,0.1-7.2,0.1-10.8c-0.8-1.3-0.8-2.6,0-3.9c0.1-0.5,0.2-0.9,0.4-1.4
		c3.1-11.2,6.8-10.4,13.3-3.3c0.5,2.5,0.9,5,1.4,7.5c0.1,7.3-1.5,14.3-4,21.1c-1.1,3-3,5.4-6,5.1c-2.6-0.2-3.7-3.1-4.1-5.8
		C513.4,410.7,512.9,409.5,512.5,408.2z"/>
	<path class="st14" d="M512.6,388.7c0,1.3,0,2.6,0,3.9c-0.6-0.3-1.2-0.6-1.8-0.9c0.3-1,0.5-1.9,0.8-2.9
		C511.9,388.7,512.2,388.7,512.6,388.7z"/>
	<path class="st15" d="M505,394.8c-0.2,1.9,0.3,4.8-2.8,5.6c-3.1,0.8-4.4-1.4-5.8-3.8c-1.4-2.6-3.6-4.8-2.4-8.2
		c0.6-1.9,1.7-3.1,3.4-3.7c1.9-0.7,3.3,0.7,4.5,2C503.7,389,505.6,391.2,505,394.8z"/>
	<path class="st16" d="M500.9,413.4c-0.1,1.5-0.7,2.7-1.8,3.3c-1.2,0.7-2.1-0.3-3.1-0.9c-0.5-0.3-0.9-0.9-1.2-1.5
		c-1.3-2.4-4.4-4.3-2.1-7.6c0.5-0.8,1.1-1.8,2.2-1.1C498,407.5,500.1,410,500.9,413.4z"/>
	<path class="st15" d="M525.6,390.9c-0.4,2.6-0.7,5.3-3.9,5.9c-3.2,0.6-3.7-2.2-4.8-4.3c-0.1-0.3-0.2-0.6-0.3-0.9
		c-0.9-3.1-0.8-6,1.4-8.5c0.7-0.8,2-0.8,3.1-0.2C524.3,384.8,525.1,387.8,525.6,390.9z"/>
	<path class="st17" d="M514.6,407.4c0.8-1.5-0.2-4,2.6-4.1c2.1-0.1,5.4,4.5,4.9,7c-0.4,1.7-0.7,4.5-3.3,4
		C515.4,413.6,515,410.3,514.6,407.4z"/>
</g>
</svg>
