<?xml version="1.0" encoding="utf-8"?>
<!-- Generator: Adobe Illustrator 23.0.1, SVG Export Plug-In . SVG Version: 6.00 Build 0)  -->
<svg version="1.1" id="Layer_4" xmlns="http://www.w3.org/2000/svg" xmlns:xlink="http://www.w3.org/1999/xlink" x="0px" y="0px"
	 viewBox="0 0 1000 1000" style="enable-background:new 0 0 1000 1000;" xml:space="preserve">
<style type="text/css">
	.st0{fill:#6E3720;}
	.st1{fill:#6E3821;}
	.st2{fill:#FB9A7A;}
	.st3{fill:#FEFEFE;}
	.st4{fill:#7F7F7F;}
	.st5{fill:#C0FEFE;}
	.st6{fill:#020202;}
	.st7{fill:#F8F9F9;}
	.st8{fill:#FBA284;}
	.st9{fill:#F2EFED;}
	.st10{fill:#F0E6E3;}
	.st11{fill:#020303;}
	.st12{fill:#FBA182;}
	.st13{fill:#FB9E7F;}
	.st14{fill:#DFFEFE;}
	.st15{fill:#FAFAFA;}
	.st16{fill:#004080;}
	.st17{fill:#F9F9F9;}
	.st18{fill:#003F7D;}
</style>
<g>
	<path class="st0" d="M551.7,319.4c7.2,6.9,10.1,15.4,10,25.3c-0.3,18.4-5,35.8-11.1,53c-2.5,7.1-5.7,13.9-8.9,20.7
		c-1.4,3-1.7,5.9-0.2,9.2c4.4,9.5,3.3,18.9-3.2,26.9c-3.9,4.8-6.1,9.4-6.2,15.8c-0.3,14.3-1.9,28.5-6.1,42.2
		c-1.7,5.5-4.6,10.6-7.4,15.6c-4.9,8.7-10.3,17.2-15.3,25.9c-9.6,16.9-18.8,34-27,51.6c-6.3,13.6-12.4,27.6-23,38.9
		c-2.2,2.4-4.6,4.6-7.2,6.4c-7.9,5.2-15.3,2.5-21.3-6.5c-8-11.9-10.8-25.5-13.8-39.1c-3.1-13.8-4.3-27.9-5.1-42.1
		c-1.3-24.9,3.7-49.1,5.7-73.7c1-12,1.5-23.9-1.6-35.6c-2.4-8.9-6.4-17.2-10.1-25.6c-4.2-9.6-8.6-19.1-11.6-29.1
		c-1.7-5.6-3.9-11-4.6-16.8c-2.1-15.4-3.1-30.7,3.2-45.6c6.6-15.5,17.9-25.9,33.5-31.8c7.2-2.8,14.3-6.1,22-7
		c13.6-1.6,27.3-4,41.1-2.2c0.3,0.5,0.3,0.9-0.1,1.3c-1,0.7-2.1,1-3.2,0.8c-6.1-0.9-10.1,1.8-13,6.9c-3.4,1.5-7,1.2-10.5,1.6
		c-13.6,1.8-27.2,4.8-38.9,12c-16.2,9.9-25.5,24.4-25.3,44.4c0.2,14.9,5.2,28.3,10.1,41.9c3.7,10.4,8.3,20.5,12.6,30.7
		c8.6,20.1,9.3,41,6.7,62.2c-2.7,22.8-6.4,45.4-5.5,68.5c0.6,17.1,2.6,34,8.2,50.3c1.9,5.5,3.4,11.2,5.9,16.5
		c0.7,1.5,1.4,2.9,2.3,4.3c3.9,5.7,7.4,6.1,12.1,0.9c4.6-5.1,8.6-10.6,11.7-16.7c5.1-9.8,9.4-20,13.9-30.1
		c5-11.2,11.5-21.5,17.4-32.1c9.2-16.6,18.9-33.1,26.6-50.4c5.4-12.2,5.9-25.6,6.5-38.8c0.1-2.8-1.6-2.9-3.9-2.7
		c-7.7,0.4-15.7-0.6-22.9,3.5c-1,0.6-2.3,0.7-3.1-0.4c-0.7-1-0.5-2.1-0.1-3.3c2.3-7.3,9.9-12.7,17.5-12.2c2.1,0.1,4.2,0.3,6.3,0.1
		c12.7-0.8,20.2-13.2,14.7-24.6c-1.9-4-1.5-7.3,0.2-11.1c7.3-15.7,13.5-31.8,17.2-48.7c1.9-8.8,4.8-17.6,4.1-26.9
		c-0.3-3.3-1-6.4-2.5-9.3C550,329.6,549.5,324.2,551.7,319.4z"/>
	<path d="M551.7,319.4c-0.3,5,0.3,10.1-2.8,14.5c0.6,2.9-2.1,3.8-3.4,5.5c-1.9,1.4-3.7,2.8-5.5,4.2c-2.1,1.5-4.4,2.4-7,2.3
		c-8.4-0.5-12.6-5.6-14.3-13.3c-0.2-7.4-1.4-14.8,1.3-22c1.1-2.6,1.9-5.3,4.3-7.1c3.8-2.7,7.7-5.2,12.6-2.7
		c6.3,3.2,11.1,7.9,13.5,14.6C550.9,316.7,550.5,318.3,551.7,319.4z"/>
	<path class="st1" d="M524.3,303.5c-1,2.4-2.1,4.9-3.1,7.3c-0.9,0.4-1.8,0.8-2.8,0.5c-7-2.6-14.5-3.4-21.7-5.6
		c-4.5-2.8-9.3-5.1-13.3-8.8c0-0.3,0-0.7,0-1c12.9,0.3,25.5,2.8,38,6C522.4,302.1,523.3,302.9,524.3,303.5z"/>
	<path class="st2" d="M544.8,338.8c1.3-1.6,2.6-3.2,4-4.9c5.3,5,4.2,11.7,3.4,17.6c-3.5,24.2-11.2,47.2-21.8,69.2
		c-1.5,3.1-1.4,5.9,0.2,9c6.7,12.9-2.7,27.2-17.4,26.6c-5.7-0.3-11.6-1-16,4.2c-2.5,3-4.7,6-5.7,10.3c8.7-6.2,18.8-3.9,28.2-5.2
		c2.7-0.4,2.8,1.3,2.7,2.8c-1,16-1.7,31.9-9.4,46.8c-10.7,20.7-21.9,40.9-33.4,61.2c-8.4,14.8-14.2,31-22,46.1
		c-3.9,7.4-8.2,15-15.8,19.8c-3.3,2.1-5.5,1.3-7.9-1.3c-4.5-4.7-6.4-10.8-8.4-16.6c-4.9-14-7.8-28.5-9.4-43.4
		c-2.6-25,0.2-49.6,3.5-74.3c2-15.5,3.3-31,1.1-46.8c-1.8-12.8-7.2-24.2-11.7-35.8c-4.6-11.8-9.4-23.4-13.4-35.5
		c-3.6-10.8-4.7-21.5-4-32.6c0.7-12.1,6.5-21.6,14.7-30c7.4-7.6,16.4-11.7,26.5-14.9c11.2-3.5,22.3-6.2,34-6.3
		c1.3,4.5,1.9,9,1.5,13.7c-4.6,3.9-9.9,6.8-14.5,10.7c-7,6.1-9.6,14.2-8.6,22.8c2.9,25.4,11.6,48.9,26.4,69.9
		c2.3,3.2,5.3,5.8,8.6,7.8c6,3.7,11.3,3,16.5-1.7c2.1-1.8,3.9-4,5.4-6.2c1.3-1.8,2.7-3.5,3.6-5.5c0.8-2.4,2.1-4.7,1.5-7.4
		c-0.1-0.7,0-1.3,0.3-1.9c1.3-1.9,1.7-4,2.2-6.2c1-3.5-1.3-8,3-10.5c0.5-0.1,1,0,1.4,0.3c1.7,4.4,0.2,9,0.5,13.5
		c0.3,5-0.5,10.1,1.2,15c0.9,2.7,1.8,6.3,5.2,6.4c3.2,0.1,5-3,5.9-5.8c5.6-16.4,11.6-32.8,14.4-50.1c1.6-9.5,2.9-18.9,3-28.6
		C544.1,340.2,544.4,339.5,544.8,338.8z"/>
	<path d="M467.6,318.3c-0.7-4.5-1.8-8.9-1-13.5c2.6-6.8,4.3-8,11.4-7.9c1.8,0,3.6,0,5.3,0c5.3,1.4,9.1,5.5,13.9,7.8
		c6.5,4.7,10.6,11.3,13.7,18.5c1.8,4.1,1.5,8.2-0.8,12.2c-4.7,5.8-10.6,8.6-18.1,8.6c-5.5,0-9.4-3-13.2-6.3c-2.3-2-4.6-4.1-6.3-6.7
		c-1.7-3.3-3.5-6.6-4.6-10.2C467.7,320.1,467.2,319.3,467.6,318.3z"/>
	<path class="st3" d="M544.8,338.8c1.3,8.5-0.4,16.9-1.4,25.3c-2.5,18.8-8.7,36.6-14.9,54.5c-1.4,4.2-3.6,8.8-7.8,8.8
		c-4.4,0-5.8-5.4-6.6-9.2c-1.7-7.3-0.7-14.8-0.7-22.2c0-1.8,0-3.5,0-5.3c-1.5-2.4-0.4-4.9-0.5-7.3c0-0.4,0.1-0.9,0.1-1.3
		c0.3-2.1,0.5-4.2,0.6-6.4c0-0.9,0-1.8,0.1-2.6c0.7-11.2,2.2-22.4,3.3-33.6c0.2-2.3,0.3-4.9,2.7-6.4c2.1,1.5,1.3,4.3,2.8,6.3
		c2.8,3.8,6.5,5.2,10.9,5.7c2.2,0.9,2.6,2.7,2.6,4.8c-0.2,12.5-1.3,24.8-4.7,36.9c-0.4,1.4-0.9,2.8-2.5,3.3
		c-1.4-0.3-2.2-1.3-2.9-2.4c-1-1.5-1.9-3.3-4.1-2.7c-2.5,0.6-3.7,2.7-3.9,5.1c-0.7,5.6-1.8,11.2-1.6,16.9c0.1,3.2-0.5,6.5,0.6,9.6
		c0.5,1.5,1.1,2.9,2.7,3.1c1.6,0.2,2.6-1,3.4-2.3c3-4.8,3.7-10.3,4.6-15.8c0.2-1.4,0.2-2.9,1.1-4.2c6.3-15.9,9.8-32.4,10.4-49.5
		c0.1-1.7-0.3-3.6,1.1-5.1C541.3,341,543,339.8,544.8,338.8z"/>
	<path class="st2" d="M519.6,333c-2.6,8.2-2.2,16.8-3.4,25.1c-0.7,4.9-1.1,9.9-1.7,14.9c-0.5,0.3-1,0.2-1.4-0.2
		c-0.7-0.7-1.1-1.6-1.2-2.6c-0.8-11.1-2.1-22.2-2.8-33.3c-0.1-0.8,0.2-1.6,0.5-2.4c3.8-7.7-0.9-13.5-4.3-19.6
		c-2.2-3.8-6.2-6.2-8-10.3c8,2,15.9,4,23.9,6.1c-1.3,5.8-2.4,11.5-1,17.5C520.6,329.8,519.9,331.4,519.6,333z"/>
	<path class="st4" d="M537.1,315.9c0-2.5-0.1-4.1,0-5.7c0.1-1.2-1.4-2.7-0.2-3.6c1.5-1.1,2.6,0.7,3.7,1.4c6.4,3.9,9.5,14.4,6.2,21.1
		c-1.2,2.4-3,4.6-6,3.9c-3.1-0.8-4.8-3.3-4.8-6.5C536,322.7,537.5,318.9,537.1,315.9z"/>
	<path class="st5" d="M540,342.7c0.5,19.4-3.2,37.9-10.8,55.7c-1.5-2.8-2.1-5.7-0.7-8.7c4-9.4,5-19.4,5.5-29.4
		c0.3-5.1,2.1-10.3-0.7-15.3C535.9,345.3,537.7,343.2,540,342.7z"/>
	<path class="st3" d="M509.6,334.7c2,9.2,2.1,18.6,3,27.9c0.3,3.4,0.5,6.9,0.7,10.4c0.4,1.1,0.4,2.4,0.7,3.5
		c-0.7,1.7-0.7,3.5-0.3,5.3c0,0.3,0,0.7,0,1c-0.4,2.6-1.1,5.1-0.6,7.8c-3.2,3-1.2,7.2-2.4,10.7c-1.1,0.4-1.8-0.2-2.3-1.1
		c-0.7-4-0.9-8.1-3.5-11.5c-1.9-2.5-3.8-3.1-6.5-1.1c-3.5,2.7-5,6.4-5.7,10.4c-1.1,6.2-0.8,12.3,1.3,18.3c1.3,3.8,3.7,6.1,8.1,4.9
		c0.5,0.1,0.9,0.3,1.2,0.7c-4.8,8.4-12.2,13.1-18.3,11.3c-6.2-1.8-11.2-5.8-14.8-11.1c-9.5-13.7-16.3-28.7-20.9-44.9
		c-2.4-8.2-4.6-16.4-5.3-24.8c-0.7-8.8,1.2-17.3,8.4-23.5c4.7-4.1,9.8-7.8,15.5-10.6c0.4,0.7,0.8,1.4,1.2,2.1
		c0.9,3.3-2.1,3.7-3.8,4.7c-4.4,2.6-8.4,5.4-11.4,9.7c-6.3,8.8-5.5,18.7-3,28.1c2.6,10,6.2,19.8,10.1,29.4c4,9.6,8.7,18.9,14.8,27.4
		c1.3,1.8,2.7,3.7,3.5,5.8c0,0.4,0.2,0.5,0.5,0.3c-0.3-0.1-0.5-0.3-0.6-0.7c-8.4-16.3-14.5-33.4-17.5-51.4
		c-1.7-10.1-4.5-20.4-1-30.8c1.7-5,4.5-8.9,8.6-12.1c1.3-1,2.6-2,4.3-0.7c5.4,6.2,10.5,13,20.1,12.8
		C500.2,342.7,505.4,339.6,509.6,334.7z"/>
	<path class="st6" d="M501.8,421.8c-2.8,2.7-5.5,0.9-7-1c-5.3-6.9-6.3-27.4,1.9-33.5c4.8-3.6,9.1-2.4,11,3.7c0.9,3,1.8,6.1,1.3,9.4
		c1.1,2.6,0.3,4.8-1.1,7c0,0.6-0.1,1.2-0.1,1.8c0.3,2.7-1.2,4.8-1.9,7.2C505,418.6,504.1,420.7,501.8,421.8z"/>
	<path class="st7" d="M505,416c0.9-2.3,1.8-4.5,2.7-6.8c1.9,2.9-0.9,5.1-1.2,7.7C505.7,417.1,505.3,416.7,505,416z"/>
	<path class="st8" d="M513,390.6c-2-2.8-0.2-5.3,0.6-7.8c-0.1,2.6-0.2,5.2-0.3,7.8C513.3,390.7,513,390.6,513,390.6z"/>
	<path class="st9" d="M507.9,407.4c0.1-2.4,1.5-4.6,1.1-7c0.5,0.3,1.1,0.6,1.6,0.9C509.8,403.4,510.9,406.3,507.9,407.4z"/>
	<path class="st10" d="M505,416c0.5,0.3,1,0.6,1.5,0.9c-0.8,1.9-1.7,3.7-3.4,5c-0.4,0-0.9-0.1-1.3-0.1
		C503,419.9,504.6,418.3,505,416z"/>
	<path class="st5" d="M479.5,426.8c-11.6-14.2-19.3-30.3-24.7-47.7c-1.8-5.9-4.6-11.7-5.9-17.7c-2.5-11.7-1.9-23.1,7.7-32.2
		c3.1-2.9,7.1-4.4,10.5-6.7c0.8-0.6,1.6-1,1.8-2c1.5,3.2,3.1,6.5,4.6,9.7c-6,2.2-9.4,6.8-11.5,12.6c-2.2,6.1-1.9,12.3-1,18.4
		c1.5,9.6,2.4,19.4,5.5,28.7c4,12.2,8.2,24.4,14,35.9C480.8,426.8,480.3,427,479.5,426.8z"/>
	<path class="st4" d="M491.3,320.2c-0.2-3.4-3.6-7-5.2-11.2c-0.6-1.5-1.8-3.3-0.8-4.4c1.1-1.3,3-0.1,4.3,0.7
		c6.3,3.8,11.1,9.2,14.8,15.5c1.8,3.1,0,8-3.4,9.5c-3.7,1.6-6.5,0-8.6-3.1C491.2,325.5,491,323.6,491.3,320.2z"/>
	<path class="st11" d="M528.6,389.7c0.9,2.8,0.7,5.8,0.7,8.7c-0.6,6.2-2,12.3-4.4,18.1c-1,2.4-2.7,5.1-5.4,4.9
		c-2.9-0.2-3.6-3.1-4-5.8c-1.2-9.3-0.1-18.6,1.7-27.7c0.5-2.4,2.3-4.3,4.4-4.7c2.1-0.4,4.3,1,5.2,3.4
		C527.1,387.7,528.6,388.3,528.6,389.7z"/>
	<path class="st12" d="M513.7,381.8c-1.3-1.9-1.3-3.9-0.1-5.8c0.3-0.3,0.6-0.3,0.9,0C514.4,378,514.8,380,513.7,381.8z"/>
	<path class="st13" d="M514.5,376c-0.3,0-0.6,0-0.9,0c-0.9-0.9-1.2-1.9-0.3-3c0.4,0,0.8,0.1,1.2,0.1C514.5,374,514.5,375,514.5,376z
		"/>
	<path class="st14" d="M479.5,426.8c0.3-0.3,0.7-0.7,1-1c0.9,0.7,1.4,1.7,0.4,2.3C479.9,428.7,479.6,427.6,479.5,426.8z"/>
	<path class="st15" d="M507.1,397.1c-0.3,2.7-0.7,5.2-3.1,5.9c-2.4,0.8-4.1-1.5-4.8-3.2c-0.9-2.3-3.3-4-2.7-6.9
		c0.5-2.3,1.7-4.4,3.9-4.9c2.5-0.7,4.2,1.6,5.3,3.4C506.6,393.1,506.7,395.4,507.1,397.1z"/>
	<path class="st16" d="M502.4,416.2c0.1,1.3-0.6,2.5-1.6,3.2c-1.4,1-2.4-0.2-3.4-1c-0.4-0.3-0.7-0.7-0.9-1.1
		c-1.3-2.4-4.4-4.2-2.4-7.5c0.6-1,1.4-2,2.7-1.2C499.6,410.3,501.8,412.6,502.4,416.2z"/>
	<path class="st17" d="M527.5,394.5c-0.4,2.3-0.5,5.2-3.4,5.7c-2.9,0.5-3.3-2.4-4.4-4.3c-0.1-0.1-0.1-0.3-0.1-0.5
		c-0.8-2.9-0.6-5.7,1.5-8c0.7-0.8,1.7-0.9,2.6-0.4C526.7,388.7,526.9,391.7,527.5,394.5z"/>
	<path class="st18" d="M516.8,412.1c0.3-2.5-0.4-5.6,2.3-5.1c2.5,0.5,4.7,2.8,4.5,6.1c-0.2,2.2-0.7,4.8-3.2,4.6
		C516.6,417.5,517.2,414,516.8,412.1z"/>
</g>
</svg>
