<?xml version="1.0" encoding="utf-8"?>
<!-- Generator: Adobe Illustrator 23.0.1, SVG Export Plug-In . SVG Version: 6.00 Build 0)  -->
<svg version="1.1" id="Layer_4" xmlns="http://www.w3.org/2000/svg" xmlns:xlink="http://www.w3.org/1999/xlink" x="0px" y="0px"
	 viewBox="0 0 1000 1000" style="enable-background:new 0 0 1000 1000;" xml:space="preserve">
<style type="text/css">
	.st0{fill:#6E3720;}
	.st1{fill:#FB9A7A;}
	.st2{fill:#7F7F7F;}
	.st3{fill:#FEFEFE;}
	.st4{fill:#C0FEFE;}
	.st5{fill:#00407F;}
</style>
<g>
	<path class="st0" d="M630,408.3c1.6,3.3,3.2,6.5,4.8,9.8c1.1,1.6,0.2,3.1-0.2,4.7c-1.9,6.9-1.4,13.8-1.2,20.8
		c0.2,5.6,3.5,9.2,7.3,12.6c-2.7,15.3-10.9,26.6-24.6,34.2c-16.9,9.4-34.3,17.4-53.3,21.8c-1.6,0.4-3.2,0.5-4.7,0.7
		c-7.1,0.9-11.5,4.9-15.3,10.9c-6.2,9.7-16.3,10.5-28,9c-2.6-0.3-3.9-0.4-5.3,2.1c-6.2,10.5-11.7,21.3-13.8,33.5
		c-0.5,2.8-1.1,5.6-1.5,8.4c-1.5,10.9,10.9,16.9,18.5,14.7c6.5-2,13.2-3.2,20.1-3.6c8.6-0.5,15.9,6.2,17.9,13.2
		c3.7,12.2,2.9,24.3-2,36c-4.3,10.2-10.7,18.9-19,26.2c-6.4,5.7-14.3,8.1-22.4,9.6c-15.5,2.8-30.9,0.7-45.9-3.8
		c-10.7-3.2-19.3-10-27.8-16.9c-8.6-7.1-16.3-15.1-22.9-24c-8.3-11.1-13.3-23.5-15.4-37.3c-1.5-9.6-2.4-19.2-1.8-28.9
		c1.3-22.3,4.8-44,13.5-64.9c11.6-27.9,27.2-53.5,43.4-78.9c5.8-9.1,11.1-18.5,17.3-27.2c11.2-15.6,23.1-30.9,39.6-41.3
		c11.3-7.2,23.7-9.1,37.1-7c20.2,3.2,35.9,14.4,51,26.9c2,1.6,4,3.1,6,4.7c-1.3,3.5-3.8,5.7-7.3,6.9c-8.9-5.4-16.9-12.1-25.4-18.1
		c-9.7-6.8-20.3-10-31.8-11c-10.2-0.9-18.7,3.3-26.8,8.7c-11.7,7.8-20.2,18.7-28.5,29.8c-17,22.8-30.6,47.5-44,72.5
		c-6.2,11.6-13,22.9-18.3,35c-7,16-11.8,32.6-13.9,50.1c-2.1,17-2,33.7,2.7,50.2c2,7,5.1,13.4,9,19.4c8.7,13.6,20.1,24.6,33.2,34
		c4.6,3.3,9.7,5.3,15,7c11.2,3.5,22.7,5.3,34.5,4.3c12.7-1,22.6-7.3,30.2-16.9c8.6-10.9,13.7-23.2,11.6-37.6
		c-1.3-8.4-6-11.7-14.5-9.8c-4.8,1.1-9.5,2.4-14.3,3.3c-18.1,3.4-31.8-10.1-29.3-28.2c2-14.1,6.4-27.1,13.3-39.5
		c4.2-7.5,3.5-10.4-2.3-17c-3.2-3.7-6.6-7.2-8.7-11.7c-0.7-1.4-1.9-3.1-0.6-4.5c1.4-1.4,3.1-0.1,4.5,0.6c7,3.6,13,8.6,18.6,14.1
		c2.4,2.3,4.6,4.6,7.8,5.7c8.2,2.8,13.5,2.1,18.4-5.3c5.2-7.9,12.2-10.9,21-13c20.6-4.7,39.9-13,57.7-24.4
		c13-8.3,16.7-21.1,15.9-35.5c-0.7-12.8-5.1-24.4-12.9-34.7c-0.8-1.1-2.2-2.2-0.9-3.8C620.5,405.4,625.5,405.7,630,408.3z"/>
	<path d="M630,408.3c-5.1-0.3-10-1.3-14.8-3c-8.2-0.5-20.1-10.7-21.4-18.5c-0.3-2-0.8-4.2,1.1-5.9c1.5-3,4.4-4.5,6.7-6.7
		c13.8-4.5,26.2-0.5,37.9,6.7c7.4,4.5,7.8,13.4,2.5,19.6C638.8,404.2,635.3,407.7,630,408.3z"/>
	<path d="M640.7,456.2c-7.1-1.4-8.4-7.2-8.7-12.8c-0.5-8.5-1-17.1,2.8-25.2c5.2-7.6,10.8-8,17.6-1.6c8.4,7.8,10.3,17.2,7.6,27.8
		c-1.6,6.2-7.9,7.2-12.7,9.7C645.3,455.1,642.9,455.5,640.7,456.2z"/>
	<path class="st1" d="M594.9,380.9c-1,7.7,2.4,13,8.7,17.2c3.8,2.6,7.5,5.3,11.7,7.2c10.2,11.9,15.5,25.9,15.5,41.5
		c0,15.6-6.3,27.9-20.7,35.9c-19.8,11-40.4,19.6-62.6,23.9c-5.8,1.1-7.3,5.5-10.3,9c-3.8,4.5-7.4,9.3-14.1,8.7
		c-5.5-0.5-10.5-2.1-14.6-6.5c-6.4-7-13.8-12.7-23.1-16.9c1.9,6.4,5.9,10.6,9.6,14.9c1,1.2,2.2,2.4,3.1,3.7
		c3.4,4.8,4.1,9.3,0.5,14.8c-8.2,12.7-12,27.1-14.2,42c-1.6,10.7,6.1,21.1,17.5,24.3c7.9,2.2,14.8-1.2,22.2-2.4
		c1.6-0.3,3.1-0.9,4.6-1.3c5.9-1.5,11.4,1.4,13.3,7.2c3.3,10.3,1.2,20.2-3,29.8c-4.5,10.5-11.7,19-21.5,24.7c-8.6,5-18,6.8-28.1,5.5
		c-7.9-1-15.9-1.6-23.7-3.9c-11.3-3.4-20.1-10.3-28.8-17.8c-11.6-10-20.6-22-27-35.8c-3.9-8.4-5.4-17.4-6.5-26.4
		c-2.3-17.6,0.9-35,4.1-52.1c1.7-9,5.2-17.8,8.7-26.4c4.5-11,9.9-21.6,15.8-31.9c11.6-20.3,22.6-41.1,35.1-60.8
		c7.8-12.3,16.4-24.1,26.3-35.1c6-6.7,12.7-12.2,20.2-16.9c15.7-10,31.9-7.8,47.3-0.2C573.3,363,584.3,371.9,594.9,380.9z"/>
	<path class="st2" d="M609.9,378.6c5.8-2.5,21.1,0.1,25,3.9c2,2,2.5,4.5,0.5,6.8c-1.8,2.1-4.5,3.4-6.6,1.1
		C623.7,385.1,617.1,382.3,609.9,378.6z"/>
	<path class="st2" d="M646.9,417.8c8.8,7.2,11.4,16.3,7.3,23c-0.9,1.5-2.1,3.5-3.9,3.3c-2.1-0.3-3.1-2.8-2.7-4.5
		C649.4,432.5,649.2,425.6,646.9,417.8z"/>
	<path class="st3" d="M505.9,470.4c-0.4-12.5,5.7-23,11.1-33.5c5.1-9.8,11-19.2,18.2-27.8c7.2-8.7,14.2-17.5,26.3-20.1
		c6.8-1.4,12.3,1.5,18.1,3.8c7.2,2.9,13.9,6.8,19.8,11.9c8.1,7,12.9,15.2,3.8,27.1c-17,22.3-38.4,38.9-63.6,50.6
		c-6.9,3.2-14.7,4.6-22.6,3.9C509.8,485.7,505.9,480,505.9,470.4z"/>
	<path class="st3" d="M625,452.3c0.1,9.7-5.5,16.2-12.9,20.8c-15.8,9.9-31.8,19.7-49.9,25.1c-7.5,2.2-15.1,4.4-22.7,6.4
		c-1.8,0.5-4.1,1-5.5-0.6c-1.6-1.8-0.8-3.9,0.2-5.9c2.9-5.6,7.8-9.4,12.7-13.2c18.4-14.1,37.8-26.7,58.6-37.1
		c2.7-1.4,5.6-2.5,8.5-3.5C620.6,442,625,445.2,625,452.3z"/>
	<path class="st4" d="M593.5,410.7c-4-1.7-7.5-3.5-11.3-4.8c-10-3.4-19-1.6-27.1,5.3c-15.1,12.8-26.7,28.5-36.4,45.6
		c-2.5,4.5-5.2,8.9-8.3,13.2c-0.8-4.9,1.2-9.2,2.7-13.6c5-14.9,12.3-28.6,22.3-40.6c5.3-6.3,10.4-12.8,17.2-17.7
		c9.5-6.8,18.4-7.1,29.2-0.1C586.7,401.1,592.1,403.8,593.5,410.7z"/>
	<path d="M564.1,450.2c2.4,0.2,4.6,2,5.8,5c1.1,2.8,0.3,5.6-1.9,7.4c-7.1,5.7-14.4,11.1-23.3,13.6c-4.3,1.2-7.2-1.2-6.6-5.3
		C539.3,461.9,553.8,449.9,564.1,450.2z"/>
	<path class="st4" d="M571.2,486.3c6.2-1.4,11-5.4,16.2-8.6c6.6-4.1,13-8.4,19.4-12.8c6.3-4.3,9.5-10.7,11.9-18
		c3.3,2.3,4.1,4.9,2.3,8.6c-3.8,8.1-10.2,13.6-17.5,18.3c-14.8,9.5-30.4,17.1-47,23c-5.9,2.1-12.2,2.8-18.4,4
		c7.6-4.6,16.7-5.6,24.4-10.2C564.6,487.2,567.3,485.5,571.2,486.3z"/>
	<path d="M571.2,486.3c-3.2,0.7-5.9,2.7-8.7,4.1c-0.9-0.1-1.8-0.3-2.8,0.2c-2.4,1.3-4.7,1.1-6.4-1.3c-1.7-2.5-0.2-4.7,1.4-6.4
		c6.2-6.4,13.9-10.8,21.7-14.8c2-1,4.7-1.2,6.6,1.1c2.1,2.5,0.3,4.4-0.7,6.5C580,480.7,574.7,482.5,571.2,486.3z"/>
	<path class="st3" d="M559.3,465.8c-1.5-0.5-1.9-1.8-1.7-3.4c0.4-3.8,4.6-8.7,7.3-8.2c2,0.4,3.6,1.5,3.4,3.9
		C568.1,460.7,562,466,559.3,465.8z"/>
	<path class="st5" d="M548.8,464.3c-0.1,0.8,0,1.2-0.1,1.4c-1.3,3-2.4,6.1-5.6,7.6c-0.9,0.4-1.7-0.7-2-1.6
		c-0.5-1.8,3.2-9.8,4.8-10.2C548.8,460.8,548,463.6,548.8,464.3z"/>
	<path class="st3" d="M582,472.2c0.1,2.4-6.8,9.4-8.7,9.1c-1.5-0.2-2.4-1.5-1.9-2.8c1.4-3.3,2.8-6.5,6.4-8.3
		C580.9,468.8,580.7,471.8,582,472.2z"/>
	<path class="st5" d="M564.2,481.3c0.1,2.5-4.2,7.6-6.3,7.7c-1.7,0.1-2.2-1.1-2.3-2.5c-0.2-2.9,3.5-7.1,6.3-7
		C563.2,479.6,564.1,480.2,564.2,481.3z"/>
</g>
</svg>
