<?xml version="1.0" encoding="utf-8"?>
<!-- Generator: Adobe Illustrator 23.0.1, SVG Export Plug-In . SVG Version: 6.00 Build 0)  -->
<svg version="1.1" id="Layer_4" xmlns="http://www.w3.org/2000/svg" xmlns:xlink="http://www.w3.org/1999/xlink" x="0px" y="0px"
	 viewBox="0 0 1000 1000" style="enable-background:new 0 0 1000 1000;" xml:space="preserve">
<style type="text/css">
	.st0{fill:#0E0E09;}
	.st1{fill:#0A0C06;}
	.st2{fill:#020302;}
	.st3{fill:#0D0806;}
	.st4{fill:#202812;}
	.st5{fill:#242915;}
	.st6{fill:#283316;}
	.st7{fill:#607A35;}
	.st8{fill:#1A1A0F;}
	.st9{fill:#4A462A;}
	.st10{fill:#2D371A;}
	.st11{fill:#4B5F2A;}
	.st12{fill:#789842;}
	.st13{fill:#17170E;}
	.st14{fill:#5E7735;}
	.st15{fill:#3C4023;}
</style>
<g>
	<path class="st0" d="M501.8,497c2-1.5,0.3-3.2,0-4.7c-0.3-1.5-1.7-3.1,0.7-3.9c1.7-0.6,3.6-0.5,4.3,1.7c0.7,2.1,2.1,3.7,4,4.9
		c-0.1,0.2-0.2,0.4-0.3,0.6c-0.6,0.9-1.5,1.7-2.5,2.2c-1.4,0.6-2.5,1.6-3.5,2.8c-0.5,0.5-1.1,0.8-1.7,0.8
		C500.2,500.5,502.5,498.4,501.8,497z"/>
	<path class="st1" d="M510.8,495.1c4.9,3.2,7.2,8.7,11,12.8c2.6,2.7,0.3,6-5.2,8.5c-1.2-1.5,0.3-2.3,0.9-3.3
		c0.7-0.9,1.5-1.8,1.2-3.1c-0.2-1-0.7-1.8-1.1-2.7c-0.7-1.2-1.7-2-2.7-2.8c-1.4-1.1-2.3-2.4-3-4.1c-0.3-0.5-0.7-1.1-1-1.7
		C510.4,497.6,509.6,496.4,510.8,495.1L510.8,495.1z"/>
	<path class="st2" d="M513.6,515.7c-3.9,1.2-6.9,1.1-7-4.2c0-0.6-1.3-1.1-1.9-1.7c0.2-0.8,0.6-1.3,1.3-1.6c0.9-0.3,1.8-0.3,2.7,0.3
		c0.9,3.6,0.9,3.6,4.8,3C514.4,512.9,514.7,514.3,513.6,515.7z"/>
	<path class="st3" d="M505.9,508.8c-0.4,0.3-0.7,0.7-1.1,1c-4.4-3.5-5.6-7.7-3-12.8c2.1,0.8-0.8,3.1,1.1,4c0.3,0.3,0.5,0.7,0.5,1.1
		C502.6,504.9,506.7,506,505.9,508.8z"/>
	<path class="st4" d="M513.6,515.7c0.1-1.3-1-2.7,0-4c0.3-0.3,0.6-0.6,1.1-0.7c0.6-0.1,1.3,0,1.9,0.2c0.9,0.5,1.3,1.6,2,2.3
		c-0.5,1.1-2,1.4-1.9,2.8C515.6,516.4,514.4,517.2,513.6,515.7z"/>
	<path class="st5" d="M514.7,511.7c-0.3,0-0.7,0-1,0c-2.2-0.6-1.7,4.3-4.3,2.3c-1.8-1.3-1.7-3.4-0.5-5.2c-2.5-1.8-4.9-3.7-5.9-6.8
		c0-0.3,0-0.7,0-1c0.3-0.3,0.6-0.6,1-1c0.5-0.5,1.1-0.6,1.8-0.5c1.5,0.6,2.4,1.8,3.5,2.8c0.5,0.4,0.9,0.9,1.4,1.4
		c1.8,1.9,3.9,3.6,4.6,6.2C515.3,510.6,515.2,511.2,514.7,511.7z"/>
	<path class="st6" d="M510.7,495.2c0.4,1.1,0.7,2.3,1.1,3.4c-0.7,2.2-2.5,0.8-3.8,1.2c-0.4-0.1-0.8-0.2-1.2-0.5
		c-0.6-1.1,0.2-1.6,0.9-2.1C508.8,496.7,509.1,495,510.7,495.2z"/>
	<path class="st7" d="M507.7,497.2c-0.3,0.6-0.6,1.3-0.9,1.9c0.3,0.8,0,1-0.8,0.8c-0.7,0-1.4,0.1-2.1,0.1
		C504.5,498.1,505.9,497.4,507.7,497.2z"/>
	<path class="st8" d="M514.7,509.8c-1.6-1.9-3.3-3.9-4.9-5.8c0.3-1,1-1.4,2-1.4c1.6-0.4,1.9,2.7,3.8,1.4c1.3,0.6,2.3,1.6,2.9,2.9
		C517.8,508.6,517.7,511.1,514.7,509.8z"/>
	<path class="st9" d="M515.6,503.9c0.1,0.8,0.5,1.9,0.2,2.3c-0.8,0.9-1.3-0.2-1.8-0.8c-0.8-0.8-1.5-1.6-2.3-2.5
		c-0.8-0.4-1.5-1-1.5-2c0-0.4,0.2-0.9,0.4-1.2c0.6-0.3,1.3-0.3,1.8,0.2C513.5,501.3,514.6,502.6,515.6,503.9z"/>
	<path class="st10" d="M514.7,509.8c2.2,0.2,2.6-2,3.9-3c0.3,1,0.7,1.9,1,2.9c0,2-0.8,2.9-2.8,2c-0.7,0-1.4,0-2.1,0
		C514.7,511.1,514.7,510.4,514.7,509.8z"/>
	<path class="st11" d="M516.7,511.8c1.3-0.1,2.3-0.8,2.8-2c2.2,2-0.7,2.6-1,3.9C517.3,513.6,516.6,513.1,516.7,511.8z"/>
	<path class="st12" d="M512.4,500c-0.5,0-1.1,0-1.6,0.1c-1.3,0.6-2.5,1.2-2.9-0.9c1.1-1.2,2.6-0.1,3.9-0.6
		C512,499,512.2,499.5,512.4,500z"/>
	<path class="st13" d="M502.9,502c0.5,0,1.3-0.1,1.4,0c0.7,2.2,1.7,3.9,4.3,4.1c0.1,0,0.1,1.8,0.2,2.7c-1,0-1.9,0-2.9,0
		C505.4,506.3,500.4,505.7,502.9,502z"/>
	<path class="st14" d="M507.9,499.1c0.7,1.2,1.9,0.8,2.9,0.9c-0.1,0.3-0.1,0.5-0.1,0.8c-0.4,0.9-0.7,1.9-1.9,2.1
		c-1.3-0.7-2.3-1.7-2.8-3.1c0.3-0.3,0.5-0.6,0.8-0.8C507.2,499.1,507.5,499.1,507.9,499.1z"/>
	<path class="st15" d="M508.8,503c0.3-1,1-1.7,1.9-2.1c0.3,0.7,0.7,1.4,1,2.1c-0.6,0.3-1.3,0.6-1.9,1
		C509.5,503.6,509.1,503.3,508.8,503z"/>
</g>
</svg>
