<?xml version="1.0" encoding="utf-8"?>
<!-- Generator: Adobe Illustrator 23.0.1, SVG Export Plug-In . SVG Version: 6.00 Build 0)  -->
<svg version="1.1" id="Layer_4" xmlns="http://www.w3.org/2000/svg" xmlns:xlink="http://www.w3.org/1999/xlink" x="0px" y="0px"
	 viewBox="0 0 1000 1000" style="enable-background:new 0 0 1000 1000;" xml:space="preserve">
<style type="text/css">
	.st0{fill:#010000;}
	.st1{fill:#303E1B;}
	.st2{fill:#647F38;}
	.st3{fill:#4E492B;}
	.st4{fill:#2F3C1A;}
	.st5{fill:#1A200F;}
	.st6{fill:#4D4930;}
	.st7{fill:#323F1C;}
	.st8{fill:#242216;}
	.st9{fill:#2E3B1A;}
	.st10{fill:#4C482F;}
	.st11{fill:#85A949;}
	.st12{fill:#8F8754;}
	.st13{fill:#080A04;}
	.st14{fill:#080805;}
	.st15{fill:#7C9D45;}
	.st16{fill:#0F0F08;}
	.st17{fill:#272518;}
	.st18{fill:#4A462D;}
	.st19{fill:#2B3718;}
	.st20{fill:#15190C;}
	.st21{fill:#877F4F;}
	.st22{fill:#E32E2E;}
	.st23{fill:#898251;}
	.st24{fill:#0E0F08;}
	.st25{fill:#403C27;}
	.st26{fill:#222115;}
	.st27{fill:#FED3D3;}
	.st28{fill:#413D28;}
	.st29{fill:#060704;}
	.st30{fill:#101408;}
	.st31{fill:#080905;}
	.st32{fill:#423F29;}
	.st33{fill:#9AC455;}
	.st34{fill:#242316;}
	.st35{fill:#090805;}
	.st36{fill:#19170F;}
	.st37{fill:#8B8351;}
	.st38{fill:#617B36;}
	.st39{fill:#070704;}
	.st40{fill:#111009;}
	.st41{fill:#3F3B26;}
	.st42{fill:#232115;}
	.st43{fill:#817A4B;}
	.st44{fill:#16140C;}
</style>
<g>
	<path class="st0" d="M532.3,458.9c-2-5.8-3.4-11.4-3-17.3c0.2-3.5,0.9-6.8,5.4-7.1c4.2-0.2,7.6,2.3,8.2,6.4
		c0.7,4.4,1.7,8.7,1.8,13.1c0.1,2.9,1.3,2.9,3.5,3c4.9,0.3,5.9,2.1,5.7,7.2c-0.1,2.7,1,5.5,2,8.1c4.4,11.7,7.5,23.9,13.9,34.8
		c1,1.7,0.7,4.3-0.2,6.6c-3.6,8.4-17.7,14.7-26.2,11.5c-0.2-0.1-0.3-0.1-0.5-0.2c-4-3.8-8.6-5.6-14.1-6.5c-5.6-0.9-5.1-7.9-4.2-13.6
		c0.2-1.3,0.9-2.7,1.5-3.9c0.8-1.5,0.6-2.2-1.1-3.1c-7.2-4.1-11.2-14.3-9.1-22.5c0.3-1.2,0.5-2.5,0.4-3.8c-0.2-1.7,0.3-3.9,1.3-4.4
		c4.2-1.9,4.4-5,3.7-8.8c-0.3-1.7,1.3-3.1,2.9-3.3c1.9-0.2,4.4-1,5.6,1.5C530.6,457.6,530.9,458.4,532.3,458.9z"/>
	<path class="st1" d="M556.6,490.2c0-0.9,0.1-1.9,0.1-2.8c3,6.4,6.2,12.6,7.8,19.5c-3.7,4.1-8.9,4.8-13.7,6c-1.3,0.4-2.8-0.3-4,1.3
		c-0.4,0.5-1.5,0-2.1-0.6c-0.3-0.4-0.6-0.8-0.7-1.3c-0.3-1.1-0.6-2.3-0.5-3.5c1.7-3.2,0.4-6.3-0.7-9.3c-0.4-1.3-1-2.5-1.7-3.6
		c-1.4-3.7-4.2-7.1-3.5-11.5c0.4-0.7,0.9-1.1,1.6-1.3c2.1,0.4,2,2.3,2.5,3.8c1.6,4.4,3.5,8.7,5.9,12.8c2.9,4.9,4.2,5.1,9.3,1.7
		c1.8-1.6,1.2-3.4,0.6-5.2C556.7,494.2,555.7,492.3,556.6,490.2z"/>
	<path class="st2" d="M539.2,483.4c-0.4,0.4-0.7,0.7-1.1,1.1c-3.7-1.7-3.1-6-5.5-8.5c-0.2-0.5-0.3-1-0.4-1.5
		c-0.5-3.5,1.4-5.6,4.4-6.8c4.2-1.7,8.6-2.9,13.3-2c1.1,1.2,1.1,2.6,1.1,4c-3.5,0-6.9-0.4-9.5,0.2c1.1-0.5,3-0.3,4.8,0.6
		c1.9,1,3.4,0.7,4.7-0.9c0.9,0.4,0.9,1.2,1,2c0.5,1.5,0.7,3,0.4,4.5c-1.6,1.7-3.5,0.5-5.3,0.7c-1.7,0.1-3.4,0.2-4.8,1.4
		C540.4,479.5,540.6,481.9,539.2,483.4z"/>
	<path class="st3" d="M553.6,481.4c0.7,2.9,1.5,5.9,2.2,8.8c0.7,3.1,3.7,6.2-0.4,9.1c-3.6,0.1-4-3.1-5.5-5.2c-1.7-2.3-1-5.8-3.5-7.7
		c-0.5-0.4-0.9-0.9-1.4-1.5c-0.8-1.3-2.1-2.5-1.3-4.3c0.3-0.3,0.7-0.5,1.1-0.6c1.8,0.2,3.4-0.6,5.1-1.1
		C551.9,478.8,553.2,479.5,553.6,481.4z"/>
	<path class="st4" d="M542.1,496.1c0.6,1,1.2,2,1.8,3c-0.9,1.3,0.1,3.3-1.8,4.2c-0.4,0.2-0.9,0.3-1.4,0.2c-0.5-0.1-0.9-0.4-1.2-0.7
		c-0.5-0.8-0.7-1.7-0.8-2.6c0.2-2.6-2.4-2.8-3.7-4c-1-0.3-3.5,0.2-1.9-1.8c3.1-3.9,1.6-7.8,0.9-11.8c-2.3-1.3-3.2-3.6-3.8-5.9
		c-1-2.2-3-1.9-4.9-2c-2.5-2-0.6-3.1,1-3.8c1.9-0.9,4.1-1.7,5.5,0.8c0.7,1.2,0.4,2.9,1.4,4.1l0-0.1
		C536.7,482.2,537.9,489.8,542.1,496.1z"/>
	<path class="st5" d="M533.3,475.6c-1.9-2.5-3-6.6-7.5-3.5c-1.1,0.8-0.7,1.6-0.3,2.4c-2.3-0.3-5,0.2-5.8-3.1
		c5.1-3.8,11.2-5.3,17-7.6c4.6-0.8,9.1-3.6,14-1.2c-0.3,0.4-0.5,0.7-0.9,1c-0.5,0.5-1.8-0.3-1.8,0.7c0,0.4,1.2,0.8,1.8,1.2
		c-3.9,0.9-7.8,1.7-11.7,2.7C534.4,469.2,532.3,471.4,533.3,475.6z"/>
	<path class="st6" d="M541.2,454.9c1.1,2.2,1.9,4.2-1.5,5.3c-3.2,1.1-4.5-0.9-4.6-3.2c-0.2-5.7-1.7-11.1-2.1-16.7
		c4.4,0.4,5,4,5.9,7.2C539.7,450,539.1,452.9,541.2,454.9z"/>
	<path class="st7" d="M565.4,508.7c2.4,2,1.6,4.2-0.3,5.6c-2.9,2.3-5.6,5.1-9.4,6.2c-2.9,0.6-4.9-0.2-5.3-3.4c3.1-1.9,7.5-0.1,10-4
		c-3.5,0.5-6.5,2.4-10,2.9c-0.5-0.1-0.8-0.4-1-0.9c0-0.3-0.1-0.8,0.1-0.9C554.5,511.4,559.4,508.5,565.4,508.7z"/>
	<path class="st8" d="M532.1,493c-3,4-4.9,4.1-7.6,0.3c-3.1-4.5-5.6-9.3-5.9-14.9c0.4-0.3,0.9-0.3,1.3-0.2c2.8,1,2.4,3.7,3.1,5.8
		c0.4,1.5,1,2.9,2,4.1c0.5,0.6,0.8,1.3,1.4,2.1c0.2-2.4-1.6-4.7-0.1-7.1c2.9,0,2.9,2.6,3.8,4.4C531,489.3,531.1,491.3,532.1,493z"/>
	<path class="st9" d="M550.8,516.5c0.6,2.6,2.6,3.4,4.9,4c-3.5,2.3-7.1,2.8-10.9,0.9c-1.5-0.7-3.7-1.2-3.6-3.4
		c0.1-2.1,2.6-1.4,3.7-2.5c1.7-2.4,3.4-1.5,5,0.1c0.3,0,0.5,0,0.8,0c0.2,0.2,0.3,0.4,0.3,0.6C551,516.4,550.9,516.5,550.8,516.5z"/>
	<path class="st8" d="M538.1,512.7c-2.3,2.1-4.6,5.6-8,2.5c-3.6-3.2-3.5-7.3-0.9-11.4c1.1,0.7,1.3,1.8,1.6,2.9
		c0.6,1.4-0.9,3.4,1.3,4.3c1.8-1.1,1.8-3,2.5-4.6c2.2-3.4,2.2-3.4,5,1.2c0.7,1.7,0.4,3.3-0.8,4.7
		C538.5,512.4,538.3,512.6,538.1,512.7z"/>
	<path class="st10" d="M519.6,478.6c-0.3,0-0.6-0.1-0.9-0.1c-0.3-1.6,0.6-2.3,2-2.7c2.5,0.5,5,1.2,7.2,2.5c3,3.4,4.5,7.5,4.2,12.1
		c0,0.9,0,1.8,0,2.7c-2.2-1-2.3-3.3-3.1-5.2c-0.7-1.6-0.6-3.6-2.6-4.4c-0.7,0-1.3-0.4-1.8-0.8C522.9,481.3,522,479,519.6,478.6z"/>
	<path class="st11" d="M550.6,462.7c-4.8,0.8-9.5,1.5-14.3,2.3c-2.3,0.1-4.2,1.8-6.6,1.3c-1.4-2.1,0.4-2,1.6-2.3
		c4.8-1.2,9.7-2.5,14.5-3.6C547.8,459.9,550.1,459.7,550.6,462.7z"/>
	<path class="st12" d="M541.2,454.9c-0.4,0.5-0.5,2.7-1.4,0.4c-0.9-2.2-1.4-4.6-1.7-6.9c-0.5-3.5-2.1-6.2-5.1-8.1
		c2.9-2.7,5.1-2.2,5.9,1.7C539.9,446.3,540.5,450.6,541.2,454.9z"/>
	<path class="st13" d="M549.9,515.6c-0.2,0.4-0.5,1.7-0.8,0.9c-1-2.8-2.6-1.4-4.2-1c-0.6-0.6-1.2-1.2-1.9-1.9
		c-0.1-1.7,0.7-1.6,1.9-0.9c2.6,0.6,5-0.5,7.3-1.3c4.1-1.4,8.2-3,12.3-4.6c0.3,0.6,0.6,1.2,0.9,1.8c-5,0.8-9.3,3.3-14,4.7
		C550.4,513.8,549.8,514.5,549.9,515.6z"/>
	<path class="st14" d="M554.7,499c4.2-2.5,0.5-5.9,1.1-8.8c0.3,0,0.5,0,0.8,0c0.9,2.4,1.8,4.8,2.6,7.2c0.7,1.9,0.3,3.5-1.6,4.5
		c-0.2,0-0.4-0.1-0.6-0.1c-2.3-0.2-4.4,1.7-6.8,0.8c-0.4-0.2-0.8-0.5-1.1-0.8c-0.8-1.2-1.4-2.5-0.3-3.9c0.6-0.4,1.2-0.5,1.9-0.3
		C551.8,498.8,553.1,499.3,554.7,499z"/>
	<path class="st5" d="M532.1,490.3c-1.7-4-2.4-8.3-4.9-11.9c-0.5-0.4-1.4-0.7-0.8-1.7c1.2-1.4,1.6,0.2,2.2,0.6
		c1.2,1,1.6,0.6,1.7-0.8c1.7,1.7,3,3.7,3.8,5.9c-0.3,0-0.7-0.1-1-0.1c-0.1,0.7-1.3-0.7-0.9,0.4c0.3,0.9,0.5,1.8,0.6,2.8
		c0.1,1.3,1.7,2.3,0.5,3.7C532.8,489.6,532.5,490,532.1,490.3z"/>
	<path class="st15" d="M529.1,465.8c2.5,0.3,4.7-1.5,7.2-0.8c-5.4,2.5-10.9,4.8-16.7,6.6c0.5-3.4,4.3-3.2,5.9-5.4
		C526.6,464.7,527.8,464.7,529.1,465.8z"/>
	<path class="st16" d="M545,480.5c-0.3,0-0.7,0-1-0.1c-0.1-0.2-0.3-0.4-0.4-0.6c-0.1-0.5,0-0.9,0.2-1.3c0.8-0.8,1.9-0.8,2.9-1.1
		c-1,0.3-2.1,0.3-3,1c-0.3,0.3-0.7,0.5-1.2,0.5c-0.7-0.2-1.2-0.6-1.3-1.4c3.3-3,6.9-2.7,10.7-1.1c1.3,0.7,1.6,2.4,3,3
		c0.7,0.5,1.1,1.2,0.8,1.9c-0.5,1-1.3,0.1-1.9,0.1c-1.3-0.6-2.1-2.3-3.9-1.8C548.1,480.1,546.7,480.8,545,480.5z"/>
	<path class="st17" d="M544.9,512.7c-0.8,0-1.5,0.1-1.9,0.9c-2.1,2-3.8,2.1-4.9-1c0,0,0,0,0,0c1.7-1.3,1-4,2.9-5.2
		c2.5,0.3,2,3.3,3.9,4.2C544.9,512.1,544.9,512.4,544.9,512.7z"/>
	<path class="st18" d="M530.2,506.7c-1.2-0.7-0.8-1.9-1-2.9c0.9-2.2,0.9-5.1,4-5.8c0.2,0.2,0.3,0.4,0.5,0.5
		C534.3,502,531.9,504.3,530.2,506.7z"/>
	<path class="st19" d="M554.7,479.5c-2,0.1-2.3-0.3-3-3c0-1.6,0.1-3.3,0.1-4.9C552.8,474.2,553.8,476.9,554.7,479.5z"/>
	<path class="st20" d="M529.1,465.8c-1.2,0.1-2.4,0.2-3.6,0.3c-0.1-0.8-0.1-1.6,0.6-2.2c1.1-1.4,2.9,0.1,4.1-0.9
		c1.6-0.9,0.7,0.6,1,1C530.5,464.6,529.8,465.2,529.1,465.8z"/>
	<path class="st21" d="M533.2,498c0.2-1,1.2-0.9,1.9-1.2c2.4-0.6,4.2-0.2,4.3,2.8c-1.2,1.7-2.7,0.8-4.2,0.4
		C534.3,499.7,533.8,498.8,533.2,498L533.2,498z"/>
	<path class="st22" d="M526.3,462.7c-1.8-1.2-3.2-2.6-0.7-4.5c0.7,0.8,1.8,0.9,2.7,1.3c2.4,1.9-1.4,1.3-1,2.5
		C527.1,462.3,526.8,462.6,526.3,462.7z"/>
	<path class="st23" d="M526.4,476.7c0.3,0.6,0.6,1.1,0.8,1.7c-2.4-0.5-4.5-1.3-6.5-2.6C522.7,475.2,524.6,475.6,526.4,476.7z"/>
	<path class="st24" d="M539.2,500c-0.2-2.6-2.2-2.8-4.1-3.1c0-0.2,0-0.5,0-0.7c3.1-0.3,5.3,0.3,4.9,4.1
		C539.7,500.4,539.4,500.3,539.2,500z"/>
	<path class="st25" d="M532.3,485.2c-0.6-1.6-1.2-3.2-1.9-5.1c1.7,0.1,1.7,1.9,2.7,2.3c0,1,0.1,1.9,0.1,2.9
		C532.8,485.8,532.5,485.8,532.3,485.2z"/>
	<path class="st26" d="M532.3,485.2c0.3,0.1,0.6,0.1,0.9,0.1c0.8,1.6,1.5,3.2,0.7,5c-0.3,0.6-0.9,0.4-0.4-0.1
		c0.1-0.1-0.1-0.6-0.2-0.9C532.9,487.9,532.6,486.6,532.3,485.2z"/>
	<path class="st27" d="M528.3,459.5c-1.2,0.2-2.6,0.9-2.7-1.3C526.8,457.9,528.1,457.6,528.3,459.5z"/>
	<path class="st28" d="M526.3,462.7c0.3-0.3,0.7-0.5,1-0.8c1,0.3,1.9,0.7,2.9,1c-1.1,1.3-2.7,0.9-4.1,0.9
		C526.2,463.5,526.3,463.1,526.3,462.7z"/>
	<path class="st29" d="M541.1,477.6c0.3,0.2,0.6,0.5,0.9,0.7c0.3,1.4,0.3,2.8,0.3,4.2c1.3,7,4.8,13.1,7.5,19.5l0,0
		c2.6,2.9,5.2-1.7,7.8,0c0,0,0,0,0,0c-4.8,4.4-7.5,4.2-10.7-1c-3.4-5.5-5.7-11.5-7.7-17.6C539.1,481.2,539,479,541.1,477.6z"/>
	<path class="st30" d="M542.1,496.1c-0.3,0.1-0.8,0.3-0.8,0.2c-3.2-6.7-6.4-13.5-8.1-20.8c2.8,2.3,3,6.1,4.8,8.9
		C538.5,488.6,541.1,492.1,542.1,496.1z"/>
	<path class="st31" d="M541.8,503c0.7-1.3,1.4-2.6,2.1-3.8c0.3,3.2,3.9,6.4,0,9.7C541.6,507.4,541.3,505.3,541.8,503z"/>
	<path class="st32" d="M541.8,503c0.7,1.9,1.4,3.9,2.1,5.8c0.3,1,0.6,2,1,2.9c-2.9,0.2-2.5-2.7-3.8-3.9c-1.6-1.6-1.3-3.2,0-4.9
		C541.3,502.9,541.6,502.9,541.8,503z"/>
	<path class="st33" d="M550.9,469.7c0,2.5-0.2,5-3.6,2.6c-2.5-1.8-5.5-1.4-8.3-2.1C542.9,469.5,546.7,465.9,550.9,469.7
		C550.9,469.7,550.9,469.7,550.9,469.7z"/>
	<path class="st34" d="M545.9,484.4c0.3,0.3,0.6,0.6,0.9,0.9c2.4,2.8,2.1,6.6,3.6,9.8c0.4,0.9-0.1,1.9-1.2,2.3
		c-3.1-2.1-3.2-5.8-4.7-8.7C544.4,487,543,485,545.9,484.4z"/>
	<path class="st35" d="M548.8,497c1.8-4.3-1.6-7.8-2-11.7c3.5,1.6,2.2,5.5,3.9,7.9c0.8,1.6,1.1,3.2,0,4.8c-0.6,0-1.3,0-1.9,0
		c-0.1-0.2-0.2-0.3-0.2-0.5C548.7,497.4,548.7,497.2,548.8,497z"/>
	<path class="st34" d="M550.7,498c0-1.6,0-3.2,0-4.8c1.6,1.7,1.8,4.4,4,5.8C553,500.4,551,502.7,550.7,498z"/>
	<path class="st36" d="M545.9,484.4c-1.9,1.3-0.5,2.6-0.1,3.9c-0.4,0.6-0.7,1.3-1.7,1.2c-1.4-1.6-1.6-3.6-2.1-5.5
		c0.2-1.4-0.6-3.4,1.9-3.5c0,0,0,0,0,0C543.6,482.3,545.5,482.9,545.9,484.4z"/>
	<path class="st37" d="M545,480.5c1.4-1,3-1.2,4.7-0.9C548.2,480.6,547,482.6,545,480.5z"/>
	<path class="st10" d="M539.2,500c0.3,0,0.6,0.1,0.8,0.2c0,0.9,0.1,1.9,0.1,2.8c0.1,1.7,1.6,3.7-0.9,4.9c-2-0.1-2-1.9-2.3-3.5
		c-0.7,1.1-1.2,1.8-1.7,2.5c-0.4-0.4-0.8-0.8-1-1.4c-0.5-2.3-0.6-4.5,0.9-6.4C536.5,499.4,537.9,499.7,539.2,500z"/>
	<path class="st0" d="M539.2,508c1.4-1.4,0.7-3.3,0.9-4.9c0.3-0.1,0.6-0.1,1-0.1c0,1.6,0,3.2,0,4.9c-1.2,1.5-0.7,4.1-3,4.9
		C538.4,511.1,538.8,509.6,539.2,508z"/>
	<path class="st38" d="M550.8,516.5c0-0.3-0.1-0.6-0.1-0.9c3.6-2.7,7.9-3.2,12.1-4.8C561.3,516.2,556.2,518.5,550.8,516.5z"/>
	<path class="st0" d="M525.4,482.4c0.3,0.3,0.6,0.7,1,1c0.3,1.5,0.7,3.1,1,4.6c0.3,1.4,0.6,2.7,1.1,5c-2.4-1.3-3.8-2.4-4-4.7
		c0.1-0.2,0.1-0.4,0.2-0.6c0-1.5-1-2.9-0.7-4.5C524.2,482.5,524.6,482,525.4,482.4z"/>
	<path class="st39" d="M525.4,482.4c-0.3,0.3-0.7,0.7-1,1c-0.5,0.3-1.1,0.3-1.5,0.7c-0.2,0.1-0.3,0.2-0.5,0.3
		c-1.7-1.6-0.4-4.6-2.9-5.8C522.6,478.2,524.1,480.2,525.4,482.4z"/>
	<path class="st39" d="M524.4,488.3c-1.8-0.7-2-2.2-1.9-3.9c0,0,0,0,0,0C524.9,484.8,525.1,486.3,524.4,488.3L524.4,488.3z"/>
	<path class="st40" d="M535.1,499.1c0,2.2,0,4.5,0,6.7c-0.5,2.5-1.3,4.9-2.9,6.9c-4.4-0.7-2-3.8-2-6c-0.3-3.4,3.4-5.3,3-8.7
		C533.8,498.4,534.5,498.7,535.1,499.1z"/>
	<path class="st41" d="M532.2,512.7c1-2.3,1.9-4.6,2.9-6.9c0,0.4,0.1,0.8,0.1,1.1C535.1,509.3,534.4,511.4,532.2,512.7z"/>
	<path class="st42" d="M542.9,484.2c0.5,1.8,0.7,3.6,2,5c2,2.6,2.4,6,3.9,8.8c0,0,0,0,0,0c0.3,1.3,0.7,2.6,1,3.9
		c-4.8-5.7-7.1-12.5-8.8-19.6C542.8,481.8,542.1,483.8,542.9,484.2z"/>
	<path class="st26" d="M557.6,502c-2.6-0.4-5.2,4.4-7.8,0c2,0.2,3.8-0.3,5.6-1.3C556.8,499.8,557.5,500.5,557.6,502z"/>
	<path class="st43" d="M542.7,478.3c2.3-1.6,4.6-2.6,7.7-0.6c-2.3,1.5-4.9,0.1-6.7,1.6C542.9,479.5,542.6,479.2,542.7,478.3z"/>
	<path class="st18" d="M542.7,478.3c0.3,0.3,0.7,0.6,1,0.9c0.1,0.4,0.2,0.8,0.3,1.2c-1.7,0.9-0.9,2.5-1.1,3.8
		c-0.6-0.6-1.2-1.2-1.8-1.8c0-1.4-0.4-3,0.9-4.1C542.2,478.3,542.5,478.4,542.7,478.3z"/>
	<path class="st14" d="M548.8,498.1c-2.3-2.5-3-5.7-3.9-8.8c0.3-0.3,0.7-0.6,1-1c1,2.9,2,5.8,3,8.7
		C548.8,497.4,548.8,497.7,548.8,498.1z"/>
	<path class="st44" d="M524.4,488.3c-0.2-1.6-0.7-2.9-2-3.9c0.1-0.7-0.4-1.7,0.5-2c0.3-0.1,1,0.7,1.4,1.1c0.5,1.3,1.1,2.6,1.5,4
		C526.5,489.4,525.2,488.4,524.4,488.3z"/>
</g>
</svg>
