<?xml version="1.0" encoding="utf-8"?>
<!-- Generator: Adobe Illustrator 23.0.1, SVG Export Plug-In . SVG Version: 6.00 Build 0)  -->
<svg version="1.1" id="Layer_4" xmlns="http://www.w3.org/2000/svg" xmlns:xlink="http://www.w3.org/1999/xlink" x="0px" y="0px"
	 viewBox="0 0 1000 1000" style="enable-background:new 0 0 1000 1000;" xml:space="preserve">
<style type="text/css">
	.st0{fill:#32401C;}
	.st1{fill:#637E38;}
	.st2{fill:#313F1C;}
	.st3{fill:#262518;}
	.st4{fill:#4E4A30;}
	.st5{fill:#262418;}
	.st6{fill:#4D4930;}
	.st7{fill:#968D57;}
	.st8{fill:#4D492F;}
	.st9{fill:#272518;}
	.st10{fill:#9AC455;}
	.st11{fill:#262417;}
	.st12{fill:#938B56;}
	.st13{fill:#49452D;}
	.st14{fill:#48442C;}
	.st15{fill:#4A462E;}
	.st16{fill:#908754;}
	.st17{fill:#F00404;}
	.st18{fill:#242217;}
	.st19{fill:#555033;}
	.st20{fill:#86AA4A;}
	.st21{fill:#F4BABA;}
	.st22{fill:#010100;}
	.st23{fill:#9CC756;}
	.st24{fill:#020201;}
	.st25{fill:#040302;}
	.st26{fill:#090806;}
	.st27{fill:#201E14;}
	.st28{fill:#4E4A2C;}
	.st29{fill:#252317;}
	.st30{fill:#918955;}
	.st31{fill:#8E8653;}
	.st32{fill:#19170D;}
	.st33{fill:#19170E;}
</style>
<g>
	<path d="M588.9,412.5c2.6-12.1,4-24.2,10.5-35.1c4.3-7.1,7.6-8.9,15-6.3c5.7,2,9.2,10.8,8.4,15.5c-1.6,9.5-5.6,18.3-7.8,27.6
		c-0.7,2.7,0,3.3,1.9,4.1c1.2,0.4,2.3,0.9,3.5,1.4c7.5,3.3,8.5,8.5,4,15.1c-2.5,3.7-2,8.5-2.3,12.9c-0.9,12.8-1.5,25.7-2.2,38.5
		c-0.5,9.3-0.5,18.6-1.7,27.8c-0.4,3.4,1,6.6,1.1,10c0.1,4.7-2.2,7.8-5.7,9.9c-5.6,3.3-11.7,5.9-18.3,7c-7.8,1.3-15.5,1.4-23.1-1
		c-9.7-3.2-15.6-10.2-18.4-19.9c-0.3-1.2,0.2-2.3-1.8-2.6c-20.1-3.4-17.1-23.3-8.3-33.2c2.3-2.6,5.8-4.7,7.5-7.3
		c1.6-2.4-3.4-4.7-4.6-7.9c-3.2-8.6-3-17.3-2.2-26c0.6-7,2.1-14.2,8.6-18.8c0.7-0.5,0.8-1.3,0.9-2.1c1.1-6.4,4.2-9.3,10.6-8.9
		c4.7,0.3,6.5-0.8,6.1-5.9c-0.4-5.7,3.7-9.8,8.6-9.8c6,0,9.6,3.5,9.8,9.7C588.9,409,588.9,410.7,588.9,412.5z"/>
	<path class="st0" d="M615.1,449.1c-1.1,17.1-2.3,34.1-3.4,51.2c-0.3,4.7-0.3,9.4-0.3,14.1c0,1.8-0.2,3.3-2.6,3.1
		c-9-0.6-17.9-1.2-26.9-1.8c-1.6-0.1-2.7-0.2-2.6-2.4c0.7-23.6,1.3-47.3,1.9-70.9c2.8,0.9,1.9,3.3,2.1,5.2c0.3,3.8-0.2,7.7,2.3,11
		c-0.2,5.2,0,10.4-0.5,15.6c-0.8,7.9,0.2,15.6,1.3,23.3c0.8,5.3,3.4,6.7,10.5,6.9c5.7,0.2,10.2-3.1,10-7.8c-0.3-8.3,2.8-16,3.6-24.1
		c0.4-4.3,1-8.4-0.8-12.4c-0.6-1.4-0.6-2.9-0.2-4.3C610.7,453,611.8,450.1,615.1,449.1z"/>
	<path class="st1" d="M584.9,457.9c-1.6,1-1.6,0-2-1.3c-1.5-4.7,0.1-9.7-1.7-14.3c0-2.5,0-5.1,0.1-7.6c0.7-2.3,1.8-4.4,4.5-4.3
		c10.4,0.3,20.8,0.8,30.5,5.2c-0.4,4.5-0.7,9.1-1.1,13.6c-1.6,2-3.2,4-4.8,6c-3.3-2.1-6.4-4.8-10.4-5.4c-4.7-0.7-9.1,0-11.8,4.7
		C587.3,455.8,586.5,457.3,584.9,457.9z"/>
	<path class="st2" d="M562.6,474.5c10.9-4,13.9-12.5,13.5-22.4c-0.4-9.3,0.2-19.5-13.5-22c1.7-0.9,2.1-1.2,2.5-1.2
		c4.3-0.4,9.3-2.2,12.8,0.1c3.8,2.6,1.3,7.9,1.1,11.9c-1,23.5-0.8,47-0.9,70.5c0,4.6-0.1,4.6-6.9,4.1c3.5-6.9,6.3-14,5.5-21.9
		c-0.3-3.4-1.4-6.6-1.7-10C574.5,478.8,570.2,476.1,562.6,474.5z"/>
	<path class="st0" d="M580.1,531.3c-0.4-1.2-0.9-2.4-1.3-3.6c-2.2-6,0-9.4,6.2-9.1c7.4,0.4,14.7,1,22.1,1.7c1.5,0.1,3.9-0.6,4.2,2.1
		c0.3,2.4,0.3,4.9-2.1,6.5c-2,1.3-4.1,2.7-6.5,3.1c-5.5,0.9-11,2.1-16.7,2.5c-1.7,0.1-2.7-0.6-3.9-1.3
		C581,533,580.3,532.3,580.1,531.3z"/>
	<path class="st3" d="M565.3,468.6c-1.3,3-3.5,3.7-6.7,3.1c-4-0.7-5.9-3.1-6.7-6.7c-2.2-10.5-2.3-21,0.8-31.5
		c1.7-0.4,2.9,0.3,3.5,1.9c0.4,1.9,1.2,3.7,0.4,5.7c-2.7,6.5-1.8,13,0.2,19.4c0.4,1.3,0.8,2.6,0.2,4c3.1-6.2,4.1-12.7,2.7-19.5
		c-0.3-1.4-0.4-2.9,0.4-4.2c3,0.3,3.6,1,4.3,4.6c1.1,5.6,1,11.2,0.2,16.8C564.2,464.4,564.1,466.6,565.3,468.6z"/>
	<path class="st4" d="M603.6,382.8c0.4-1.1,0.7-2.2,1.8-2.9c5.8,3,6.7,4.9,5.9,11.2c-1,6.7-3.2,13.2-3.6,20.1
		c-0.1,1.1-0.7,2.3,0.7,3c-0.5,5.3-0.5,5.3-8.8,3.9c-1.9-2.2-1.4-4.9-1.1-7.4c0.7-5.6,1.8-11.1,3.6-16.5
		C603.3,390.4,604.5,386.7,603.6,382.8z"/>
	<path class="st2" d="M580.1,531.3c0.9,0.4,1.6,1,1.9,2c-0.4,0.5-0.8,1.3-1.3,1.3c-7.1,0.6-16.6-5.6-18.8-12.2
		c-1.4-4.3-0.5-5.5,3.9-5c0.8,0.1,1.6,0.2,2.4,0.2c2.6,0.2,5.7-0.5,7.6,0.8c2.1,1.4,0.1,4.5,0.2,6.9
		C576.2,528.2,577.8,529.9,580.1,531.3z"/>
	<path class="st5" d="M567.3,499.9c-3.5,3.6-7.3,6.8-11.6,9.4c-4.5,2.7-11.2-0.9-11.8-6.2c-0.9-7.5,2.5-13,7.9-17.7
		c1.2,1.6,0.1,2.9-0.7,4.2c-1.2,2.1,1.5-0.5,1,0.8c0.2,3.5-2,6.2-3.4,9.1c-0.7,1.5-0.1,1.5,0.9,1.8c1,0.3,2,0.6,3.1,0.8
		c2.8,0.1,4.3-2,6.2-3.4c1.4-1.1,2.4-3.3,4.8-2.4C564.6,497.8,566,498.8,567.3,499.9z"/>
	<path class="st6" d="M555.8,435.4c-1-0.6-2-1.2-3-1.8c0.3-0.3,0.7-0.6,1-0.9c6.5-1.3,10.7,1.3,13.7,8.8c2,7.5,0.7,14.9-0.6,22.2
		c-0.3,1.7-1,3.3-1.6,5c-2.6-0.9-2.5-2.9-2.2-5.2c0.9-5.6,1.3-11.1,0.3-16.7c-0.4-2.3-0.4-4.9-2.9-6.3
		C558.3,439.3,556.8,437.6,555.8,435.4z"/>
	<path class="st7" d="M608.4,414.1c-0.7-0.3-1.6,2.8-1.9,0c-0.5-4.3,0.5-8.6,1.4-12.9c0.9-3.9,1.3-7.9,2.4-11.7
		c1.4-5-3.1-6.5-4.9-9.6c1.5-2.3,3.5-3.6,6.1-2c2.5,1.5,4.7,3.5,3.9,7.1C613,394.6,610.7,404.3,608.4,414.1z"/>
	<path class="st1" d="M620,429.6c-0.9,3.7-3.3,0.2-4.8,1c-16.2-4.8-32.8-6.6-49.7-5.5c-2.1,0.1-4.2,0.3-5.9-1.3
		c0.1-2.5,2.1-3.1,3.9-3.8c4.8,0.6,9.5-0.6,14.3-0.1c12.7,0.4,25.1,2.5,37.2,6.2C617.1,426.7,619,427.5,620,429.6z"/>
	<path class="st8" d="M567.3,499.9c-3.1,0.6-4.2-0.9-3.8-3.8c0-0.2,0-0.4,0-0.6c0.1-0.5,0.4-0.9,0.4-1.4c-0.1,0.3-0.3,0.5-0.6,0.8
		c-3.6,2.6-5.8,7.1-10.6,8c-1,0-2.1,0.2-2.8-0.8c6.9-5.6,11.3-13,15.3-20.8c0.1-0.2,0.5-0.3,0.9-0.4c5.7,1.9,7,4.8,5.2,11.4
		C570.9,495.4,568.5,497.3,567.3,499.9z"/>
	<path class="st9" d="M603.6,382.8c2.5,1.5,2,3.7,1.3,6c-2.7,9.6-6,19-5.4,29.2c-3.2,0.3-4.4-0.4-4.1-4.3
		C596.5,402.9,598,392.3,603.6,382.8z"/>
	<path class="st10" d="M620,429.6c-10.3-4.6-21.3-6.1-32.3-7.7c-3.5-0.5-7-0.7-10.6-1.1c-0.6-1.1,0.3-1.3,0.9-1.7
		c12.1-0.4,23.9,1.5,35.6,4.4C616.6,424.3,620.1,425.3,620,429.6z"/>
	<path class="st2" d="M559.6,423.8c16.1,0,32.3-0.4,48.1,3.9c2.6,0.7,5.4,0.8,7.5,3c-7.1-0.2-13.9-2.8-21-3.4
		c-10.1-0.7-20.2-2.4-30.3-0.5C561.6,427.2,558.6,428.4,559.6,423.8z"/>
	<path class="st2" d="M616.2,435.5c-8.9-1.4-17.5-4.1-26.6-4.2c-3.4,0-6.3,0.2-8.4,3.3c-0.3-6.2,0-6.7,5.9-5.9
		c8.4,1.2,17,1.4,25.2,3.8C613.9,433.1,616.6,432.5,616.2,435.5z"/>
	<path class="st11" d="M570.3,510.8c-0.7,1.4-1.7,2.5-3.1,3c-3.3,1.2-6.1-0.8-7.6-3c-1.3-1.9,1.9-2.7,3.1-3.3
		c3.4-1.7,4.4-5.7,7.6-7.4C571.8,503.6,570.3,507.2,570.3,510.8z"/>
	<path class="st12" d="M571.3,492.3c0.2-4.8-0.4-9.1-5.7-10.9c-1,0.1-1.9-0.4-2.9-0.2c-1.5-0.1-3.5,1.1-3.9-1.5
		c4.8-2.8,8.8-2.4,12.2,1C574,483.8,574.2,487.8,571.3,492.3z"/>
	<path class="st13" d="M570.3,510.8c-2.2-3.6,0.1-7.2,0-10.8c1-2.1,2.1-4.2,3.1-6.3C575.1,500,573.4,505.5,570.3,510.8z"/>
	<path class="st14" d="M571.2,453.1c0-6,0.1-12.1-2.1-17.9c5.3,6.1,5.1,13.4,4.1,20.8C571,456.1,571.1,454.6,571.2,453.1z"/>
	<path class="st15" d="M558.7,479.6c1.6,1.8,3.3,0.2,4.9,0.1c0.2,0.4,0.5,1.1,0.2,1.4c-4,3.1-7,7.4-12,9.1c-0.8,0.2-2.1,1.1-1.5-0.9
		c0.4-1.4,1-2.6,1.5-4C554,483.3,555.7,480.6,558.7,479.6z"/>
	<path class="st16" d="M567.5,441.4c-3.8-4.2-6.9-9.4-13.7-8.8c2.9-2.8,5.9-1.7,9-0.3C566.7,434.2,567.7,437.5,567.5,441.4z"/>
	<path class="st17" d="M585.1,408.4c1.2,2.3,0.7,3.6-2.2,3.2c-0.9-0.1-2,0-2.8-0.4c-1.3-0.5-3.4,2.4-3.8-0.5
		c-0.3-2.2-1.4-5.3,2.3-6.3C580.4,406.4,582.3,408,585.1,408.4z"/>
	<path class="st18" d="M571.2,453.1c0.7,1,1.3,2,2,3c-1.2,3.8,0,8.5-5.1,12C569.4,462.3,570.3,457.7,571.2,453.1z"/>
	<path class="st19" d="M575.2,416c5-4.8,8.4-1.7,12.7,0.3C583.3,417.9,579.7,415.5,575.2,416z"/>
	<path class="st20" d="M578.1,419.1c-0.3,0.6-0.6,1.1-0.9,1.7c-4.1,0.1-8.2,0.2-12.2,0.4c-1.1,0.1-1.4-0.3-1.5-1.2
		C568.3,419.1,573.2,418.5,578.1,419.1z"/>
	<path class="st21" d="M585.1,408.4c-0.3,0.9-1.1,2.3-1.7,1.4c-1.4-2-5.6-1.5-4.8-5.3C581.3,404.9,584,405.4,585.1,408.4z"/>
	<path class="st22" d="M584.9,457.9c4.4-12.3,14.2-10.9,22.6-6.6c1.6,0.8,1.7,2.7,2.8,3.8c-0.8,3.9,2.3,7,2.1,10.8
		c-0.3,6.8-1.5,13.5-3.2,20c-0.7,2.7-1,5.5-0.7,8.2c0.8,6.8-4.7,12.3-13.3,11.5c-7.7-0.7-9.3-2.5-10.4-10.2
		C582.9,483,583.4,470.4,584.9,457.9z"/>
	<path class="st23" d="M587.9,434.8c8.1-1.4,15.7,1.6,23.5,2.9c1.7,0.3,2.8,1.6,2.1,3.7c-0.8,2.3,1.1,5.6-2.4,6.7
		c-2.1,0.7-3.2-1-4.1-2.7c-3.6-7.3-10.9-7.9-17.5-9.9c-0.4-0.1-0.9-0.2-1.4-0.3C588.1,435.2,588,435,587.9,434.8z"/>
	<path class="st1" d="M589.3,521.5c4.9,0.3,9.9,0.6,14.8,1c1.6,0.1,2.7,0.5,1.3,2.3c-3.6,4.5-19.3,5.2-23.5,1
		c-0.9-0.9-2.2-1.8-1.6-3.2c0.7-1.7,2.1-1.5,3.7-1.3c1.7,0.2,3.5,0,5.3,0C589.3,521.4,589.3,521.4,589.3,521.5z"/>
	<path class="st24" d="M555.8,435.4c2.4,0.9,3.7,2.9,4.8,5.1c0,4.4,1.2,8.6,1.1,13c-0.1,4.1-2.1,7.5-3.2,11.1c-0.5,1.6-2,2.4-4.6,1
		c3.1-1,2.7-2.6,2-4.8c-2.3-6.5-3.6-13.4-0.1-19.8C557,438.7,553.3,437.1,555.8,435.4z"/>
	<path class="st25" d="M551.8,490.2c4-3.5,7.9-7,11.9-10.5c1,0.1,1.5,0.8,1.9,1.6c-3,8.5-7,16.4-15.6,20.7c-1.2-0.4-3,1.2-3.8-0.8
		c-0.9-2.1,1.9-1.4,2-2.3C548.6,495.7,550.8,493.2,551.8,490.2z"/>
	<path class="st26" d="M552.7,502.9c4.3-2.2,7.1-6,10.7-9c0.6,0.7,0.6,1.4,0,2.2c0,0,0,0,0,0c-3.1,1.9-5,5.3-8.4,6.9
		C554.2,503.5,553.5,504.1,552.7,502.9z"/>
	<path class="st27" d="M563.5,496.1c0-0.7,0-1.4,0-2.2c0.1-0.9,0.4-2.3,1.4-1.9c1.1,0.3,0.4,1.5,0,2.3
		C564.5,494.9,563.9,495.5,563.5,496.1z"/>
	<path class="st28" d="M606.4,459c2.6,1.3,3.6,3.5,3.5,6.3c-0.6,10.7-1.5,21.4-7.3,30.9c-3.8,1.2-5.5-0.9-6.1-4.2
		c-0.5-2.9-0.5-5.9,0.1-8.7c0.9-4,0.7-8.1,0.5-12.1c-0.7-3.3-1.9-6.4-3.2-9.5c0-0.2-0.1-0.5-0.1-0.7c0-0.7,0.1-1.3,0.1-2
		c2.5-1.3,4.9-0.3,7.4,0C603,459,604.7,459.6,606.4,459z"/>
	<path class="st11" d="M590.8,461.9c-1.3,11.3-2.9,22.7-0.9,34.1c0.2,1.4,0.6,2.4,2.1,2.9c4.8,1.9,10.6,0.7,14.1-3
		c-0.8,5.7-2.6,7-10.1,7.3c-5.1,0.2-7.1-1.5-8.1-6.8c-2.6-13.6-2.6-27.1,0.9-40.5C590.9,457.4,588.9,460.3,590.8,461.9z"/>
	<path class="st29" d="M590.8,489.2c0.3-6.9,0.6-13.9,1-20.8c0.2-2.6-0.4-5.5,2-7.6c0,0,0,0,0,0c5.1,8.7,3.1,17.6,0.6,26.4
		C594,488.7,593,490.5,590.8,489.2z"/>
	<path class="st9" d="M597.7,469.7c1.6,4.2,1.1,8.5,0.3,12.7c-0.6,3.1-0.4,6.1-0.4,9.1c0,3.2,1.8,4.6,4.9,4.7
		c-2.9,2.5-6.3,1.2-9.1,0.6c-3.6-0.8,0.3-3.7-0.6-5.6C595.4,484.2,596.2,476.9,597.7,469.7z"/>
	<path class="st25" d="M597.7,469.7c0.3,7.6-1.2,14.9-4.9,21.6c-2.4,1.1-1.9-0.7-2-2c1.9,0,2.4-1.5,2.7-2.9c2-8.5,3.3-16.9,0.2-25.4
		C596.9,463,596.9,466.5,597.7,469.7z"/>
	<path class="st30" d="M590.7,453.1c5.8-3.7,14.1-2.1,17.2,3.6c-2.5,0.3-4.4-0.9-6.4-1.6C598.1,453.5,594,455.6,590.7,453.1z"/>
	<path class="st4" d="M590.7,453.1c3.7,0,7.4,0.2,10.8,2c-1.4,0-2.9,0-4.3,0c-4.4,0.1-6.8,2.1-6.5,6.7c-3.5-1-1.1-4-2-5.9
		C589,454.7,589.4,453.6,590.7,453.1z"/>
	<path class="st31" d="M606.4,459c-4.2,2.2-8.4,0.6-12.5-0.1c2.1-3,5-1.9,7.6-1.4C603.2,457.8,604.8,458.5,606.4,459z"/>
	<path class="st32" d="M557.3,458.7c-2-6.1-2.2-11.6-0.5-17.2C559,445.2,559.4,453.5,557.3,458.7z"/>
	<path class="st33" d="M550.2,499.9c1.5-7.9,5-12.5,12.4-15.9C560.1,490.7,555.4,495.2,550.2,499.9z"/>
</g>
</svg>
