<?xml version="1.0" encoding="utf-8"?>
<!-- Generator: Adobe Illustrator 23.0.1, SVG Export Plug-In . SVG Version: 6.00 Build 0)  -->
<svg version="1.1" id="Layer_4" xmlns="http://www.w3.org/2000/svg" xmlns:xlink="http://www.w3.org/1999/xlink" x="0px" y="0px"
	 viewBox="0 0 1000 1000" style="enable-background:new 0 0 1000 1000;" xml:space="preserve">
<style type="text/css">
	.st0{fill:#6E3720;}
	.st1{fill:#FB9A7A;}
	.st2{fill:#FEFEFE;}
	.st3{fill:#C0FEFE;}
	.st4{fill:#7F7F7F;}
	.st5{fill:#2B5260;}
	.st6{fill:#E00000;}
	.st7{fill:#00407F;}
</style>
<g>
	<path class="st0" d="M617.2,320.3c7.4,8.4,10,17.7,5.4,28.4c-5.7,13.2-13.1,25.2-23,35.9c-7,7.6-14,15-22.4,21
		c-1.9,1.4-2,2.4-1.6,4.6c0.7,4.2,2.3,8.2,1.2,12.7c-1.9,8-8.9,9.8-15,12.4c-2.3,1-5.9-0.3-6.9,2.7c-0.7,2.2,0.6,5,0.9,7.5
		c2.1,16.9-0.6,32.4-12.2,45.4c-13.9,15.7-31.5,26.2-50.4,35c-28.1,13.2-57.7,21.2-87.6,28.4c-10.2,2.4-20.7,3.9-31.2,4.2
		c-15.5,0.5-17.4-9.5-15.6-20.5c3.4-20.6,14.2-37.6,25.9-54.2c12.4-17.6,25.7-34.4,41.5-49.1c6-5.6,7.3-11.4,4.7-19.3
		c-5.5-16.8-10.3-33.8-15.1-50.8c-4.4-15.3-6.6-31-5.5-46.9c0.6-9.1,0.7-18.4,4.6-27.1c4.8-10.5,11.7-18.5,22.8-22.9
		c14.2-5.6,28.9-8,44.1-7c19.8,1.4,39.4,4.1,58.1,11.6c1,2.8-0.2,5.1-1.8,7.2c-1.8,0.8-3.5,0.1-5.2-0.5c-15.6-5.2-31.8-6.3-48-8.4
		c-11.3-1.4-22.4-0.9-33.3,2.3c-9.4,2.8-17.6,7.5-23.1,16.1c-2.4,3.8-4.1,7.7-5,12.1c-3.8,17.6-1.9,35,2,52.2
		c4.7,21,11.2,41.5,15.9,62.4c2.1,9.5,4.3,19.1,2.4,29c-0.2,1-0.2,1.9-0.6,2.9c-0.6,1.7-1.6,2-2.8,0.6c-0.8-0.8-1.3-1.9-1.7-2.9
		c-2.4-5.3-2.3-5.2-6.3-1.3c-15.9,15.5-30.4,32.2-43.3,50.2c-8.4,11.8-15.2,24.6-19.8,38.5c-0.6,1.7-1,3.4-1.3,5.2
		c-1.2,7.6,2.2,11.1,9.8,10.1c31.9-3.9,62.2-13.6,92.1-25.1c20.5-7.8,39.7-17.8,56.4-32.3c15.1-13.1,20.4-29.6,17.2-49.1
		c-0.4-2.2-1.7-3.2-3.8-3.9c-15.6-4.9-31-10.8-47.6-11.9c-1.8-0.1-4.5-0.3-4.6-2.7c-0.1-2,2.2-3.2,4-3.8c8.2-2.8,16.5-3.5,25-1.5
		c9,2.2,17.4,6.4,26.6,8c5.7,1,11,0.6,16.2-1.7c3.4-1.5,5-4,4.9-7.6c0-0.6,0.2-1.4,0-1.9c-3.1-9.4,2.5-14.4,9-19.9
		c12.1-10.2,22.4-22.3,31.3-35.3c7.1-10.4,10.2-22.1,4.7-34.6C611,321.8,613.7,320.2,617.2,320.3z"/>
	<path d="M538,279.4c0.7-2.3,1.3-4.7,2-7c7.3-9,13.5-6,22.3-0.6c6.5,4,9.8,10.5,13.9,16.5c3.5,3.2,3.9,7.7,5.1,11.8
		c2.5,11.3-2.4,16.6-15.4,16.7c-10.3-1.1-19.5-4.2-24.5-14.4c-1-2.2-2.2-4.4-3.1-6.6c-0.5-1.4-0.8-2.9-1.2-4.3
		C536.7,287.4,534.1,283.1,538,279.4z"/>
	<path d="M617.2,320.3c-2.7,1.4-5.3,2.7-8,4.1c-1.3,1.5-3.1,1.7-4.9,2c-1.3,0.1-2.5,0.1-3.8,0.1c-3-0.3-6-1.2-8.9-2.1
		c-3.9-1.6-6.9-4.1-8.5-8.2c-0.8-4.5,1.7-8.2,2.8-12.2c1.7-2.9,2.3-6.5,5.7-8.2c1-2.6,3-4.5,5-6.3c4.2-3.9,10.4-4.4,15.2-1.2
		c7,4.5,11.8,18.3,9.2,26.1C620.3,316.7,618.4,318.2,617.2,320.3z"/>
	<path class="st0" d="M591.7,295.8c-1.5,2.7-3.1,5.3-4.6,8c-2.9-0.3-4.8-2.1-6.9-3.9c-1.3-3.9-2.7-7.8-4-11.7
		C581.3,290.8,586.5,293.3,591.7,295.8z"/>
	<path class="st1" d="M580.2,299.9c2.9,0.2,4.8,2.2,6.9,3.9c-0.2,4.4-3.6,8-3,12.6c0.4,2.4-1.2,3.9-2.3,5.7
		c-13.2,21.7-25.3,44-30.2,69.3c-0.4,2.2-0.8,4.5-0.2,6.8c1.2,4.3,5,5.7,8.1,2.7c11.3-10.8,22.4-21.7,30.6-35.1
		c3.6-6,7.2-12,10.1-18.3c2.7-5.8,4.8-11.8,3.4-18.3c-0.3-1.3-0.3-2.6,0.7-3.7c1.7,0,3-1.8,4.8-1c6.3,8.9,4,18,0.6,27.1
		c-3.8,10.2-11.2,18-18.2,25.9c-7.7,8.7-15,17.8-25,24.2c-3,2-2.4,5-2.2,7.9c0.1,1.1,0.7,2.2,0.8,3.2c0.8,10.9-9.1,17.3-21.4,14.8
		c-9.9-2.1-19.1-6.5-28.9-8.6c-9.5-2-18.7-1.2-27.3,4.8c5.5,1,10.9,2.3,16.4,2.8c9.4,0.9,18.1,3.9,26.7,7.5
		c3.4,1.4,6.9,2.7,10.7,2.6c2.8-0.1,2.8,2.2,3,3.6c2.5,14.2,1,28-7.1,40.2c-4.4,6.7-10.7,11.9-17.1,16.9c-19,14.7-40.8,24-63.2,32
		c-19.4,7-39.1,13.1-59.4,17c-7.4,1.4-14.8,2.6-22.3,3.5c-7.4,0.9-10.3-4.5-8.9-11.9c2-10.6,7.1-20.2,12.4-29.6
		c10.4-18.7,24.1-34.8,38.5-50.5c6.3-6.8,12.9-13.1,19.3-20.1c2.6,3.4,2.2,7.9,5.3,10.9c3.1-15.6-1.3-30.2-4.9-44.8
		c-4.4-17.8-9.5-35.5-13.8-53.4c-1.4-5.9-1.5-12.1-2.5-18.1c-1.8-11.2-0.4-22.1,1.9-33c2-9.7,7.7-17,15.9-21.9
		c13.3-7.9,27.8-9.8,43.2-8.1c13.1,1.4,26.2,2.6,39.1,5.2c5.8,1.2,11.4,3.2,17,4.9c-2.1,4.2,0.3,8.3,0.1,12.4
		c-3.3,2.1-6.7,0.5-9.9,0.1c-8.6-1.3-16.9,0-25.2,1.7c-7.6,1.6-11.2,7.8-13.6,14.7c-3.6,10.3-2.9,20.8-1.7,31.4
		c1.7,14.6,5,28.8,12.1,41.9c2.5,4.7,6.1,8.6,10.4,11.4c6.9,4.4,14.1,4.1,21.2-0.2c9.2-5.5,14.5-14.3,19.5-23.2
		c8.6-15,12.3-31.3,13.1-48.5c0.1-1.9-0.2-3.9,1.3-5.5c2.3-0.6,4.7,0.1,7.1-0.7c7.6-2.7,9.5-5.7,7.6-13.5
		C580,300.9,580.2,300.4,580.2,299.9z"/>
	<path class="st2" d="M565.4,315.6c0.7,22.8-5.8,43.6-17.8,62.6c-3.5,5.5-7.7,10.5-13.3,14.4c-14.3,9.9-27.2,3.8-34.7-9
		c-8.9-15.1-12.2-31.9-13.5-49.3c-0.7-9-0.2-17.5,2.1-26.2c2.7-10.3,10.6-16.3,21.1-17.3c9.7-0.9,19.2-0.6,28.8,1c1.8,1,0.5,2.7,1,4
		c-1.5,1.6-3.3,1-5,0.8c-6.8-0.8-13.5-1.7-20.4-1.2c-11.6,0.7-19.2,7.7-20.9,19.3c-3.2,21.5,2.7,53,13.4,69.2
		c-2.4-7.4-2.9-15.9-4.2-24.3c-2.1-13.5-1.7-26.9,1.9-40.1c4.5-16.8,22.2-24.9,38.3-17.7C547,311,555.6,314.3,565.4,315.6z"/>
	<path class="st3" d="M542.1,301.7c-5.3,0.3-10.5-1.6-16-0.7c-14.4,2.3-19.3,10.3-22.2,23.3c-3.7,16.7-1.1,33.1,1.4,49.6
		c0.8,5.1,2,10,3.3,16.1c-5.4-7.6-8.9-14.9-11.6-22.6c-4.9-13.7-6.5-28-6.6-42.4c0-6.9,0.5-14.1,4.5-20.6c4.5-7.2,11-10,19.1-10.4
		c8.5-0.4,16.8,1.1,25.1,1.9C540.6,297.6,541.7,299.4,542.1,301.7z"/>
	<path class="st4" d="M560.2,277.7c3,0.4,4.7,1.9,5.7,3.7c3.1,5.3,8.2,9.3,9.5,15.9c0.8,3.6,1.4,6.5-3.1,7.4c-5.1,1-9.4-1.4-8.6-5.6
		C565,291.5,562.6,285,560.2,277.7z"/>
	<path class="st2" d="M604.5,325.4c3.9,15.2-5.1,26.5-11.7,38.5c-8.1,14.7-20.1,25.9-31.8,37.6c-1.7,1.7-3.4,3.6-6.3,2.4
		c-3.1-1.3-4.9-3.7-4.9-7.1c0-6.3,1.9-12.3,3.7-18.3c6.6-21.3,16.6-41,29.2-59.5c0.5-0.8,0.9-1.7,1.4-2.6c2,2.9,4.4,5.5,7.7,7
		c4.1,2.8,4.7,7,3.7,11.2c-2.8,13.2-9.1,24.9-16.4,36.1c-0.9,1.3-1.9,2.7-3.9,2.5c-1.6-2-0.1-3.7,0.6-5.4c1.3-3,2.2-6.1,1.9-9.4
		c-0.2-2.2-0.7-4.3-2.9-5.2c-2.2-0.9-4.1,0.3-5.7,1.7c-3.2,2.7-5.2,6.2-6.3,10.1c-0.9,2.9-1.5,6-2.5,8.9c-0.8,2.6-0.8,5.2,1.2,7.3
		c2.2,2.3,4.1,0.1,6.2-0.5c0.5-0.1,0.9-0.2,1.4-0.1c0.9,0.8,0.9,1.8,0.3,2.6c-3.4,4.5-6.7,9-9.6,11.1c9.2-7.9,18-18.7,25.9-30.3
		c8-11.7,14.9-23.9,14.9-38.7C601.9,325.4,603.2,325.4,604.5,325.4z"/>
	<path class="st3" d="M600.6,325.4c2.6,8-0.7,15-3.8,21.9c-6.2,13.7-15.2,25.6-25.1,36.7c-4.3,4.8-8.3,9.9-14.9,13.7
		c2.6-5.5,7.2-8.3,9.8-12.5c0.9-1.5,2.9-2.2,2.7-4.4c0.8-3.5,2.4-6.3,5.8-7.8c2.8-1.2,3.7-3.9,5.1-6.2c5.5-9,10.1-18.4,13.3-28.5
		c1.7-5.3,1.2-10.2-1.8-14.8C594.7,324.1,597.7,324.7,600.6,325.4z"/>
	<path class="st4" d="M611.2,294.1c8.7,6.7,9.1,15.3,1.5,21.3c-2,1.6-4.2,3.2-6.9,0.9c-2.6-2.2-0.8-4.1,0.3-5.9
		C609,305.5,612,300.8,611.2,294.1z"/>
	<path d="M450.2,477.5c-1.3,1-2.5,2-3.8,3c-0.7-0.1-1.1-0.5-1.4-1.1c-0.1-0.4-0.1-0.8,0.1-1.2c0.2-1.1,0.8-2.3-1.1-2.2
		c-0.6,0.5-0.9,1.3-1.7,1.6c-1.8-3.5,0.2-5.9,6-6.9c0.7,0.2,1.1,0.7,1.3,1.3c0,0.4-0.1,0.8-0.4,1.1c-1.4,1.7,0.4,2.6,0.9,3.8
		C450,477.1,450.1,477.3,450.2,477.5z"/>
	<path class="st0" d="M449.2,472.7c-0.3-0.7-0.7-1.3-1-2c0.1-2-0.6-4.4,2.5-4.8c1.4-0.2,2.9,0.1,3.1,1.5c0.2,1.6,1.6,4-1.7,4.3
		c-0.5-0.6-0.3-1.4-0.8-2c-0.1,0.9,0.4,1.4,0.9,2c-0.3,1.1-1.1,1-1.9,1C449.9,473,449.6,473,449.2,472.7z"/>
	<path class="st0" d="M451.2,474.8c0.8,0.1,0.8,0.8,1,1.4c0.3,1.4,0.9,2.7,2.6,1.9c1.4-0.6,1.6-1.9,0.9-3.3
		c-0.3-0.6-0.8-1.1-0.9-1.8c3,1.2,3,3.6,1.4,5.5c-1.6,1.9-3.8,1.5-5.1-0.9C450.4,476.6,450.3,475.7,451.2,474.8z"/>
	<path class="st5" d="M445.3,479.4c0.4,0.4,0.7,0.8,1.1,1.1c0.3,1.1,1.6,2.2,0.5,3.5c-0.3,0.3-1.5,0.5-1.7,0.3
		c-1.1-1.3-1.7-2.8-0.8-4.5C444.6,479.2,444.9,479.1,445.3,479.4z"/>
	<path class="st6" d="M445.3,479.4c-0.3,0.1-0.6,0.2-1,0.3c-0.7-0.7-1.4-1.4-2.1-2.1c0.4-1-0.3-2.4,1.1-3c1.8,0.8,2.7,2.1,2,4.1
		C445.3,478.9,445.3,479.1,445.3,479.4z"/>
	<path d="M451.2,474.8c0,0.9,0,1.9,0,2.8c-0.3,0-0.7,0-1-0.1l0,0c-1.1-1.5-2.6-2.9-1-4.9l0,0c0.3,0,0.7,0,1,0
		C450.2,473.5,450.1,474.4,451.2,474.8z"/>
	<path d="M531.3,365.6c0.8-11.6,8.4-20.4,18-19.9c4.4,0.2,8.6,5.3,7.2,9.2c-2.4,6.6-5.4,13.1-9.7,18.7c-1.9,2.5-4.3,5.3-8,4.1
		c-4.7-1.5-6.4-5.7-7.4-10.2C531.1,366.9,531.3,366.3,531.3,365.6z"/>
	<path d="M575.1,373c-1.9,2.6-3.9,5.2-5.8,7.8c-2.4,1.5-4.7,4.7-7.9,2.2c-3-2.4-3.3-5.6-2-9.5c2.2-6.7,2.8-13.9,8.5-19.1
		c2.3-2.1,4.8-3.8,7.7-2.6c2.8,1.2,3.4,4.1,3.7,7.3C579.6,364.4,576.5,368.4,575.1,373z"/>
	<path class="st6" d="M449.2,472.6c-0.5,1.8,1.1,3.2,1,4.9c-3.1-0.5-2.7-3.4-4.2-5.4C447.5,472.3,448.4,472.5,449.2,472.6z"/>
	<path class="st6" d="M445.4,478.6c-0.7-1.4-1.4-2.7-2-4.1c2.6-2,2.5,0.8,3.3,1.8C447.9,478,446.9,478.5,445.4,478.6z"/>
	<path class="st1" d="M452.2,471.7c-2.3-0.1-3.4-1.2-2.6-3.4c0.3-0.9,1.1-1.8,2.3-1.1C454,468.5,453,470.1,452.2,471.7
		C452.1,471.7,452.2,471.7,452.2,471.7z"/>
	<path class="st2" d="M547.5,347.6c4.4,0.3,5.9,3.5,6,6.7c0.1,2.7-0.4,6.4-4.2,6.9c-2.4,0.4-5.2-4.7-5.3-9
		C543.8,349.5,545.2,348.1,547.5,347.6z"/>
	<path class="st7" d="M542,371c0.2,1.7-0.9,2.8-2.1,3.5c-1.6,1-2.2-0.7-3.2-1.4c-0.3-0.2-0.5-0.4-0.7-0.7c-1.3-2.6-4-4.9-1.8-8.3
		c0.6-0.9,1.1-2,2.6-1.4C538.7,363.4,542,368.6,542,371z"/>
	<path class="st2" d="M577.2,359.4c0,3.8-1,7.2-3.9,7.4c-2.6,0.1-3.6-3.2-4-6.1c-0.5-3.7,2.1-5.8,4.7-6
		C576.9,354.5,576.5,358,577.2,359.4z"/>
	<path class="st7" d="M560.6,375.8c0.1-2.2,0.5-5.3,2.9-5.2c2.7,0.1,3.7,3.1,3.9,5.8c0.2,2.4-1.1,4.4-3.4,4.3
		C561.4,380.5,560.3,378.4,560.6,375.8z"/>
</g>
</svg>
