<?xml version="1.0" encoding="utf-8"?>
<!-- Generator: Adobe Illustrator 23.0.1, SVG Export Plug-In . SVG Version: 6.00 Build 0)  -->
<svg version="1.1" id="Layer_4" xmlns="http://www.w3.org/2000/svg" xmlns:xlink="http://www.w3.org/1999/xlink" x="0px" y="0px"
	 viewBox="0 0 1000 1000" style="enable-background:new 0 0 1000 1000;" xml:space="preserve">
<style type="text/css">
	.st0{fill:#6E3720;}
	.st1{fill:#FB9A7A;}
	.st2{fill:#CBB89A;}
	.st3{fill:#E00000;}
	.st4{fill:#7F0000;}
	.st5{fill:none;}
	.st6{fill:#7898AB;}
	.st7{fill:#800000;}
	.st8{fill:#B0F3F2;}
	.st9{fill:#2B5260;}
	.st10{fill:#FEFEFE;}
	.st11{fill:#C0FEFE;}
	.st12{fill:#7F7F7F;}
	.st13{fill:#808080;}
	.st14{fill:#00407F;}
</style>
<g>
	<path class="st0" d="M636.6,403.4c-8.4,4.5-17.1,7.5-26.9,4.9c-1.6-0.4-3.4-0.2-5.1,0.8c-8.3,5.3-17.2,6.3-26.4,2.9
		c-3.5-1.3-6.8-0.6-9.7,0.3c-7.2,2.2-12.7-1-18.3-4.3c-4.6-2.8-8.8-6.2-13.1-11.1c0,2.5-0.1,3.9,0,5.3c0.7,14.4-0.7,28.8-1.2,43.2
		c-0.5,15.7-2.2,31.3-3.8,46.9c-0.8,8.2-2.8,16.3-3.7,24.5c-0.6,5.9,0.9,11.7,3.2,17.2c2.1,5.2,5.5,9.9,6.9,15.6
		c2.7,11.3-3.3,17.6-13.3,19.6c-18.5,3.8-37.4,1.9-56.1,2c-5,0-10.2-1-15.1-2c-9.1-1.9-15.6-12.8-13.2-21.9c0.7-2.6,1.4-5.2,2.7-7.5
		c5.9-10.2,5.8-21.1,3.2-32c-3.8-16.1-10.1-31.5-13.4-47.8c-2.2-10.7-3.9-21.6-4.6-32.6c-1.2-16.9,0-34.2-8.7-49.9
		c-6-10.8-10.8-22.2-16.7-33.1c-9.9-18.2-16.5-37.5-21.8-57.4c-2.5-9.6-4.8-19.7-4.3-29.7c0.9-16.8,7.3-31.3,21.1-41.9
		c14.3-11,30.5-17,48-20.1c7.8-1.4,15.5-2.4,23.5-1.8c1.8,2.7,2,5.7,1.2,8.8c-1.3,1.2-3,1.1-4.6,1.2c-18.7,1.1-36.5,5.3-53.3,14.1
		c-16,8.4-27.4,24-25.2,47c1.8,19.3,8.1,37.1,15.9,54.5c8.5,19,18,37.6,27.1,56.3c5,10.2,7.6,21.5,7.7,32.6
		c0.2,26.6,6.9,51.8,14.5,76.9c3.2,10.8,5.5,21.8,7,32.9c1,7.5-1.1,14.9-4.2,21.8c-1.1,2.5-2.6,4.9-3.6,7.5c-2.6,6.3-1,9.8,5.6,11.9
		c5.8,1.8,11.8,2.7,17.8,2.9c12.7,0.4,25.4,1,38-1.3c1.8-0.3,3.5-0.6,5.3-1.1c8.9-2.2,10.9-6.1,6.6-14.1
		c-7.4-13.7-8.9-28.1-5.6-43.1c1.7-7.9,1.7-15.9,2-23.8c0.9-22.9,3.5-45.7,3.2-68.7c-0.2-13.4-2.6-26.5-6.7-39.3
		c-1.3-3.9-3.2-5.6-7.8-5.2c-9.1,0.8-18.3-0.7-27-3.1c-11-3-21.5-2.5-32.2,0.7c-2.6,0.8-5.3,1.5-8.1,1.8c-2.9,0.3-3.6-1.1-2.4-3.5
		c1.7-3.2,4-5.9,7.1-7.9c7.7-4.9,16.1-5.9,24.9-4.8c8.9,1.1,17.8,2.3,26.6,3.9c4.9,0.9,9.7,0.2,14.5-0.8
		c9.8-2.1,14.9-13.2,11.8-20.7c-2.7-6.6-2.2-12.7,1-19.2c3.8-7.7,6.3-16.1,9.6-24c5.7-13.9,7.8-28.5,9.2-43.3
		c0.7-7.9-2.9-14.5-6.8-21c0.3-3.5,1.9-6.2,5.2-7.8c7.6,8.2,13,17.6,11.8,29.1c-1.6,14.8-4.8,29.3-9.2,43.6
		c-3.1,10.2-6.7,20.1-12,29.3c-1.7,2.9-0.6,5.3,0.2,8.1c5.7-8.9,13.7-14.9,23.1-18.7c7.9-3.2,16.1-3.3,24.2-0.5
		c7.7,2.7,15.7,3.1,23.7,2.9c13.3-0.3,22.5,5.5,27.5,18c0.7,1.8,0.1,4,1.8,5.3c1.5,1.9,1.3,4.2,1.1,6.4c-2.2,8.2,0.3,15.7,3.7,22.9
		c2.3,5,4.4,10,6,15.3c0.3,2,0.9,4,1,6.1c0.1,4.5-1,8.6-3.2,12.5C641.5,398.8,640.2,402.3,636.6,403.4z"/>
	<path d="M808.6,547.9c-2.3-16.5-19.9-23-32.1-21.1c-8.9,1.4-16.9,5.4-25.2,8.7c-1.2,0.5-2.3,1.3-3.2-0.3c-2.8-4.6-6.7-4.8-11.2-3.2
		c-2.3,0.8-3.2-0.2-3.9-2.5c-4.5-14.7-8.4-29.6-11.4-44.7c-0.4-1.9,0-2.3,1.8-2.8c3-0.8,6.4-1.2,8.2-4.2
		c6.8-11.6,11.2-23.8,7.1-37.4c-1.5-5.1-4.3-9.1-10.6-10.1c-3.4-0.5-6.7-0.5-10-0.6c-6.7-0.3-13.3,0.8-19.4-4.5
		c-5.5-4.6-13-6-20.1-7.3c-3.1-0.5-4.9-1.9-5.4-5c-1.4-9.9-2.9-19.8-4.3-29.6c-0.2-1.6,0.1-2.9,1.9-3.4c1.9-3.6,2.8-7.4,1.5-11.5
		c-0.2-0.2-0.3-0.3-0.5-0.3c0,0,0,0,0,0c-0.8-0.4-1.4,0.3-1.9,0.9c-3.4,4.7-8.3,6.1-13.7,7c-3.5,0.6-7.3-0.3-10.7,1.3
		c-0.3,0.2-0.7,0.4-1,0.6c0.3,2,0.6,4,1,5.9c0.4,0.3,0.8,0.5,1.2,0.7c2.6,1.2,5.5,0.6,8.2,0.4c5.7-0.5,5.9-0.4,6.7,5.4
		c0.9,6.1,1.7,12.2,2.6,18.3c1.2,8.1,1,8.2-6.9,9c-2.3,0.2-4.5,0.6-6.7,1c-3.6,0.6-5.1-0.8-5.5-4.3c-0.4-4.2-0.1-8.5-0.3-12.7
		c-0.1-1.8,0.4-4-1.6-5c-0.2-0.1-0.4-0.2-0.6-0.3c-2,2.3-4,4.7-6.1,7c0.4,2.4,0.4,4.7,0.9,7.1c0.7,3.6,0.8,7.6-0.3,11.1
		c-0.7,2.5-4.7,2.1-6.9,3.5c-1.2,0.7-2.5,1.4-3.5,2.4c-6.3,6.4-14,8.8-22.9,8.2c-5.2-0.3-10.4-0.1-15.6,0
		c-7.6,0.1-10.6,2.3-12.9,9.3c-2.3,6.9-1.7,14.2-0.9,21.1c0.9,7.6,3.2,15.4,12,18.3c1.6,0.5,1.1,1.6,1.5,2.6
		c4.7,11.6,4.8,23.9,5.6,36c0.9,13.8-1.7,27.3-4.8,40.7c-2.3,9.9,2.1,15.6,12.2,15.6c15.3,0.1,30.6-1.3,45.9-1.9
		c11.8-0.5,23.6,0.2,35.4,0.8c11,0.5,22.1,0.1,33.2,0.1c7.2,0,14.4,0.1,20.9-3.5c1.4-0.8,2.3,0.2,3.5,0.5c7.5,2.2,15.2,3.4,22.8,3.9
		c11.9,0.7,23.2-2.3,33.7-7.9C806.2,566,810.1,558.5,808.6,547.9z M745,554.6c1-0.1,2.2-0.7,3-1.4c9.4-8.9,22.1-10,33.6-14
		c4.2-1.5,11.5,3.6,13.2,8.2c1.3,3.5-1.8,9.7-5.8,12.2c-7.6,4.8-16.3,5.3-25.1,7c-6.3-1.1-12.8-2.1-19.3-3.4c-2.8-0.6-3-3.3-3.3-5.5
		C740.9,554.9,742.9,554.7,745,554.6z"/>
	<path class="st0" d="M670.8,379.9c0.3-3.9,0.7-7.9,1-11.8c-0.3-0.4-0.5-0.9-0.5-1.4c0-0.3,0-0.7,0.1-1c2.5-9,3.1-18,0.3-27
		c-1-5.2-1.5-10.4,0.5-15.5c3.8-9.8,10.9-16.4,20.8-19.5c9.5-2.9,18.9-5.6,28.1-9.5c16.1-6.8,30.4-1.6,43.1,8.9
		c4.7,3.9,9.6,7.8,13.2,13.2c5.2,7.8,7.6,16,8.8,25.2c1.6,11.9-0.7,22.9-6.4,33c-5.7,10-12.8,18.9-24.8,22.6c-3,0.9-5.2-1.2-7.9-0.2
		c-3.1,1.2-6.3,2.1-9.2,3.6c-4.7,2.5-9.3,3.9-14.6,1.9c-6.7-2.6-13-0.7-19.6,1.4c-13.6,4.5-25.4-1.7-30.9-14.2
		C671.6,386.6,671.5,383.2,670.8,379.9z"/>
	<path d="M470.6,202.3c-0.7-2.9-1.1-5.8-0.8-8.7c1.7-0.5,0.9-2.2,1.5-3.3c2.9-5.5,6.5-6.8,12.8-5.8c8.8,1.4,13.9,7.7,19.9,13
		c3.2,2.5,4.9,5.9,6.4,9.6c1.8,4.3,3.6,8.8,2.2,13.5c-1.6,5-4.7,8.7-10.1,10.2c-8.8,2.3-16.2,0-22-7c-1.5-1.8-2.8-3.8-4.3-5.6
		c-0.8-1.2-1.6-2.3-2.4-3.5C471.9,210.7,469,207,470.6,202.3z"/>
	<path d="M543.8,215.8c-1.6,2.3-3.2,4.6-4.7,6.9c-0.9,2.1-3,2.6-4.8,3.6c-1.2,0.6-2.5,1.1-3.8,1.6c-2.1,0.6-4.2,1.3-6.4,1.6
		c-4.4,0-6.9-2.6-8.5-6.3c-1.8-4.6-1.4-9.4-1.1-14.1c1.1-2.8,0-6.2,2.2-8.8c1.6-3.3,1.5-7.1,3.6-10.4c3.6-5.6,6.4-6.3,12.6-3.6
		c9.3,4.1,14.1,17.2,11.2,26C543.7,213.5,543.9,214.7,543.8,215.8z"/>
	<path d="M671.8,338.8c4.5,7.4,4.2,15.1,1.7,22.9c-0.6,1.8,0.2,4-1.5,5.4c-2.2-2-1.2-4.9-1.9-7.3c-0.3-0.9-0.4-1.9-0.5-2.9
		c-1.9-14-9.2-17.8-23.9-17.4c-3.6,0.1-7.2,2.1-10.9,0.3c0-2.3,0-4.6,0-6.9c8.4-1.6,16.9-2.7,25.4-0.8c3.6,0.8,6.1,3.7,9.1,5.7
		C670.1,338.4,670.7,339.2,671.8,338.8z"/>
	<path class="st0" d="M516.6,200.4c-0.3,2.9,0.7,6-1.1,8.7c-2.7,0.9-4.6-0.5-6.6-1.9c-0.5-3.9-4.1-6.1-5-9.7
		C508.2,198,512.6,198.5,516.6,200.4z"/>
	<path class="st1" d="M508.9,207.1c2.2,0.6,4.6,0.6,6.6,1.9c0.4,4.8-0.5,9.8,1.2,14.5c0.7,1.7,0.7,3.5,0.3,5.3
		c-3.1,16.9-5.2,33.9-6.3,51.2c-0.7,11.4,0,22.7,0.7,34c0.1,1.8,0.5,3.5,0.9,5.3c0.4,1.4,0.9,3,2.5,3.3c1.7,0.3,2.7-1,3.5-2.2
		c2-2.6,3.3-5.6,4.5-8.6c8.1-21.8,12.9-44.2,14.6-67.4c0.4-4.8-0.5-9.4-2.4-13.8c-0.7-1.6-1.8-3.2-1.1-5.1c1.3-1.6,3.3-1.9,5-2.9
		c6.1,8,8,16.5,7.2,26.9c-1.8,24.4-11.6,46.1-20.7,68.1c-1.5,3.7-0.6,6.7,0.6,9.7c2.5,6.2,2.1,12.1-0.7,17.9
		c-1.9,3.9-5.5,5.7-9.3,7.2c-7.2,2.8-14.4,1.9-21.8,0.7c-9.8-1.5-19.6-4-29.6-3.5c-10.2,0.5-19.1,4-24,14.3c7.3-1.1,14.1-3.3,21-4.8
		c7.1-1.5,13.7,0.1,20.4,1.5c8.6,1.8,17.4,3.2,26.2,3.5c1.4,0.1,3,0.1,4.3-0.5c3-1.3,4.6,0,5.6,2.7c3.8,10.6,6.2,21.4,7.4,32.7
		c0.8,7.5,1,14.9,0.7,22.3c-0.8,19.4-2.3,38.7-3,58.1c-0.5,12.5-2.8,24.9-3.6,37.4c-0.6,8.9,1.6,17.5,5.9,25.5
		c0.4,0.7,0.7,1.4,1.1,2.2c4.9,10,3.4,13.5-7.4,16.1c-15.7,3.9-31.6,3.4-47.6,2c-4.7-0.4-9.2-1.1-13.8-2.2
		c-7.9-1.8-10.3-6.5-6.9-13.9c2.9-6.4,5.9-12.6,7.3-19.7c1.4-7.3-0.4-14-1.7-20.9c-4-21.7-12.1-42.4-16.4-64.1
		c-1.6-8.1-2.4-16.3-2.6-24.4c-0.4-17.3-3.6-33.7-11.7-49.1c-10.4-19.6-19.9-39.7-28.4-60.1c-5.7-13.7-9.6-28-11-43.1
		c-1.2-11.9,1.1-22.5,7.1-32.6c4-6.7,10-11.2,16.7-14.8c9.7-5.1,19.3-10.4,30.2-12.2c10-1.6,19.8-4.4,30.1-3.3
		c0.3,4.5,2.7,8.3,4,12.4c-1.2,1.8-3.3,2-5.1,2.5c-7,1.9-13.4,5-19.4,8.9c-8.1,5.3-11.3,13.2-10.1,22.3
		c3.4,25.5,11.7,49.3,27.2,70.2c1.7,2.4,3.7,4.6,5.9,6.5c7.9,6.9,17.3,5.2,22.5-3.9c5.6-9.8,7.9-20.5,8.9-31.6
		c1.4-15.4,1.2-30.8-0.9-46.1c-0.4-3.1-1-6.1-1.6-9.1c-0.3-1.5-1.2-3.1,0-4.7C509.6,227.5,515.3,219.1,508.9,207.1z"/>
	<path class="st1" d="M609.8,385.7c-2.2,10.2-10.1,17.9-19.3,19.5c-3.8,0.6-7.3-0.6-10.6-2.5c-2.4-1.3-5-2.2-7.4-0.9
		c-7.8,4.2-14.1,1.3-20.2-3.5c-8.3-6.4-15.5-13.6-17.7-24.4c-2.9-13.9-0.1-27,6.3-39.4c5.1-9.8,12.4-16.7,23.6-18.7
		c8.5-1.5,16.6,1.3,24.7,2.9c1.8,0.3,3.6,1.1,5.2,0.6c4-1.3,7.9-0.4,11.9,0c13.2,1.5,20.5,11.3,17.8,24.3c-1.2,5.9-1.1,11.5,2.3,17
		c3.6,5.8,6.2,12.2,7.8,19.1c2.6,11.3-6.1,21.8-17.6,20.6c-2.6-0.3-4.9-1.1-4.4-4.8C612.6,392.3,611.5,389.2,609.8,385.7z"/>
	<path class="st2" d="M634.8,339.9c7-0.9,13.8-2.8,21.2-1.1c10.5,2.5,12.6,7.2,14.8,16.5c0.9,3.8,0.8,7.9,1.2,11.9
		c-0.1,0.3-0.1,0.7-0.2,1c-2.6,6.1-7.8,8-13.9,8.9c-4.5,0.7-8.9,1-13.4,0.9c-2.5-9.4-8.4-17.5-10.2-27.2
		C633.6,347,633.1,343.4,634.8,339.9z"/>
	<path class="st2" d="M645.5,383.8c4.1-0.3,8.3,0.4,12.5-0.9c2.1-0.7,3.8-0.4,4.3,3.1c1.3,8.6,2.8,17.2,3.6,25.9
		c0.5,5.8-0.5,7-6.6,6.9c-3,0-5.7,1.6-8.5,1c-2.2-0.4-4.6,2.4-5.8,0.5c-1.3-2.1-1.4-5.2-1.5-7.8c-0.2-4.7-0.1-9.4-0.1-14.1
		c0-0.8,0-1.6-0.9-2C643.8,392.2,645.9,388.3,645.5,383.8z"/>
	<path class="st3" d="M711,484.3c3.5,14,7.1,27.9,10.6,41.9c0.2,0.8,0.4,1.6,0.6,2.3c2.1,6.8,1.6,7.7-5.7,7.6
		c-12.3-0.1-24.5-0.7-36.8-1.1c-10.5-0.2-21.1-0.1-31.6,0.3c-11,0.5-22,0.8-33,2.1c-6.7,0.8-9.7-2.8-8.8-9.4
		c0.7-5.2,1.7-10.3,3.5-15.2c4.5-12.5,14.1-19.2,26.5-22.2c13.9-3.3,28-5.4,42.4-5.9c8.1-0.3,16.2-0.5,24.3-1.5
		C705.8,482.9,708.6,482.5,711,484.3z"/>
	<path class="st3" d="M605.5,444.5c22.2-1.9,44.6-1.5,66.8-2.3c14.6-0.6,29.1-0.4,43.7-0.7c10.1-0.2,12.7,2.2,10.8,12.9
		c-0.9,4.8-2.1,9.2-4.1,13.7c-1.4,3.3-3.7,4.5-6.8,3.7c-6.4-1.8-13.2,0.2-19.6-2c-13.8-2-27.8-1.7-41.6-3.4c-16.1-1.9-32,0.9-48,1.8
		c-4.3,0.3-8.4,0.2-12.3-1.9c-4.4-2.4-6.5-6.6-5.8-11.3c0.7-4.8,3.9-8.2,8.7-9.4C600.1,444.7,602.9,445.2,605.5,444.5z"/>
	<path class="st4" d="M711,484.3c-16.8,1-33.6,1.4-50.3,3.3c-10.5,1.2-21.1,2.9-31.1,6.7c-13.6,5.2-18.9,16.3-21.3,29.5
		c-0.2,1-0.1,2-0.3,2.9c-1.7,8,0.3,10.3,8.7,9.4c13.5-1.4,27.1-2,40.7-1.9c5.9,0,11.7,0,17.6,0c1.6,0,3.3-0.5,4.6,0.8
		c-16,0.7-32,1.2-47.9,2.2c-9.1,0.5-18.2,1.8-27.3,2.7c-1.6,0.2-3,0.1-2.7-2.2c2.1-13.9,0-27.7-2.6-41.3
		c-2.2-11.5-2.5-11.2,8.6-13.2c14-2.4,28-3.9,42.1-5c16.7-1.3,33.1,0.3,49.6,2c3,0.3,6.1,0.7,9.1,1C710.7,481.6,711,482.7,711,484.3
		z"/>
	<path class="st3" d="M696.4,550.7c3.7,0,7.5,0.4,11.2,0c7.1-0.6,13.7,1.3,20.4,3c2.8,0.7,3.5,3,3.4,5.1c-0.2,3.3-0.6,6.9-4.4,8.3
		c-5,1.8-10.4,1.8-15.7,2c-11.5,0.4-23.2,0.9-34.6-0.1c-14.6-1.2-29.2-0.2-43.8-0.9c-0.5-0.2-0.9-0.4-1.4-0.3
		c-2.7,0-5.5,0.1-6.1-3.3c-0.6-3.2,1.4-5.2,3.9-6.6c3.7-2.1,8-2.7,12.1-3.4c17.3-2.9,34.7-3.6,52.2-4.3
		C694.5,550.3,695.5,550.2,696.4,550.7z"/>
	<path class="st5" d="M789,559.6c-7.6,4.8-16.3,5.3-25.1,7c-6.3-1.1-12.8-2.1-19.3-3.4c-2.8-0.6-3-3.3-3.3-5.5
		c-0.4-2.8,1.6-3,3.8-3.1c1-0.1,2.2-0.7,3-1.4c9.4-8.9,22.1-10,33.6-14c4.2-1.5,11.5,3.6,13.2,8.2C796.1,550.9,793,557.1,789,559.6z
		"/>
	<path class="st3" d="M633.8,540.2c27.2-1.4,54.4-3.4,81.8-1.1c-1.1,4.7-1.1,4.7,0.7,9.8c-7.6-0.4-15.1-0.5-22.5-1.3
		c-7.6-0.8-15.1-1.1-22.6,0.1c-4.8,0.7-9.6,0.5-14.4,1c-12.2,1.2-24.4,1.6-36.7,2.3c-5.7,0.7-9-0.6-9.3-3.6
		c-0.3-2.7,2.5-4.6,8.1-5.3C623.9,541.4,628.9,540.5,633.8,540.2z"/>
	<path class="st4" d="M605.5,444.5c-2,1.7-4.6,0.9-6.9,1.6c-7.8,2.2-9.2,7.7-8.7,12.1c0.5,4.6,5.5,8.6,11.5,8.6
		c6.6,0,13.2-0.6,19.8-1.1c9.9-0.6,19.7-2.3,29.8-1.1c8.8,1,17.6,1.5,26.4,2.4c6.3,0.6,12.9,0.2,18.9,2.7c-5.7,1-11.3-0.8-16.9-0.9
		c-18-0.3-35.9,0.8-53.8,2.2c-10.5,0.8-21,2.8-31.5,4.6c-6.2,1-10.5-2.8-11.1-10.2c-0.4-4.7,0.5-9.4,1.2-14c0.5-3.1,2.8-5.3,5.9-5.8
		C595.2,444.6,600.3,443.8,605.5,444.5z"/>
	<path class="st6" d="M803.7,546.8c4.6,7.2-1.1,16.9-7.8,20.6c-13.2,7.4-27.1,8.9-41.7,6.5c-2.4-0.4-4.8,0-7.2-0.6
		c-4.2-1.1-6.6-2.7-4.4-7.4c7.3,1.8,14.8,3.6,22.4,3.4c10.9-0.3,21-3.2,29.8-10.1c5.1-4,4.5-14.8-1.3-18.9
		c-5.7-4.1-11.7-5.2-18.4-2.6c-7.8,3-15.9,5.5-23.7,8.5c-2.2,0.9-3.3,0.3-4.6-1.2c-1.8-2.1,0.5-3.1,1.5-3.8
		c4.6-3.2,9.8-5.2,15.3-6.2c-1.1,4.3-5.4,2.9-8.1,4.8c6.6-2.3,13.1-4.9,20-5.6c6-0.7,12.1-1,17.5,2.2c7.8,4.5,10.2,11.7,7.9,21.1
		C803.5,554.9,801.2,550.2,803.7,546.8z"/>
	<path class="st7" d="M696.4,550.7c-20.8,1.4-41.8,2.1-62.2,6.9c-1.2,0.3-2.5,0.7-3.7,1.2c-2.4,0.9-4.5,2.6-4.3,5.2
		c0.2,3.1,2.9,3.4,5.5,3.5c0.4,0,0.8,0.5,1.2,0.7c-9.2,0.7-18.3,1.6-27.5,2c-7.4,0.3-8.4-1.1-6.7-8.1c1.6-6.7,2.1-7.2,11-7.5
		c15.2-0.4,30.2-2.6,45.4-3.2c12.6-0.5,25.1-1.8,37.7-1.7C694,549.8,695.4,549.5,696.4,550.7z"/>
	<path class="st2" d="M628.1,434.5c9-10.4,56.9-13.2,68-4C673.3,430.6,651.2,435,628.1,434.5z"/>
	<path class="st8" d="M803.7,546.8c0.2,5.7,0.3,11.4-5.8,15.6c0.7-2.4,1.1-4.3,1.9-6.1c4.1-9.5-4.9-21.3-16.4-21.2
		c-7,0-13.7,1.3-20.4,3.3c-3,0.9-6.1,1.8-9.9,3c3.1-3.9,7.8-3.4,10.5-6.3c5-2.4,10.4-3.3,15.7-4.5
		C789.9,528.3,802.3,536.6,803.7,546.8z"/>
	<path class="st9" d="M738.8,536.2c4.4-0.1,6.1,2.1,4.3,5.6c-1.1,2.3-0.7,4,0.4,5.9c0.4,0.8,1.6,1.3,0.7,2.4
		c-0.7,0.9-1.8,0.8-2.7,0.6c-5.9-1.3-11.9-2.5-17.8-4c-1.6-0.4-3.8-0.9-3.8-3.1c-0.1-2.3,1.9-3.4,3.7-3.9
		C728.8,538.3,734.2,537.2,738.8,536.2z"/>
	<path class="st4" d="M633.8,540.2c-5.7,1.7-11.7,1.6-17.4,3.5c-2,0.7-4.8,0.7-4.7,3.2c0.1,2.5,2.8,3.3,5,3.8
		c1.1,0.3,2.3,0.1,3.4,0.2c-3.3,1.8-6.9,0.4-10.4,0.8c-0.8,0.1-1.6,0-2.4,0c-2.1,0.2-5,2.4-6.2,0.1c-1-1.9,0.1-4.9,0.5-7.4
		c0.4-2.5,3.1-2,4.4-2.1C615.3,542,624.5,539.7,633.8,540.2z"/>
	<path class="st1" d="M706.5,380.3c-1.3,3.7-1.9,7.2-0.4,10.6c0.9,2.2-0.2,3-2.2,3.6c-15.1,4.5-25.4-8.6-22.3-21.8
		c1.1-4.5,1.5-9.3,3.2-13.5c2.7-6.8,0.8-12.7-1.9-18.9c-1.7-3.9-2.9-7.9-1.7-12.5c1.9-7.3,6.8-11.5,13.4-13.2
		c11.4-2.9,22.3-6.7,32.9-11.8c9.9-4.7,18.6-0.1,26.6,4.8c10.5,6.5,17.2,16.4,21,28.1c4.9,14.9,1.1,28.4-7.7,40.9
		c-5.2,7.4-11.8,11.3-21.1,11.3c-3.3,0-6.6,2.4-9.7,3.9c-10.6,5.2-23.3,1.2-28.8-9.3C707.6,381.9,707.1,381.3,706.5,380.3z"/>
	<path class="st10" d="M501.9,229.7c2.7,8.2,3.4,16.6,4.1,25.1c0.5,6.6,1.3,13.3,0.8,19.8c-1.2,16-1.3,32.1-9.6,46.8
		c-5.9,10.4-17.2,12.6-25.6,4.1c-9.7-9.8-15.9-21.8-21.3-34.2c-5.7-13.2-9.4-27-11.4-41.1c-1.5-10.6,1-19.6,12.1-26.3
		c7.3-4.4,15.1-7.9,23.7-9.1c1.2,0.6,2.1,1.5,2,3c-1.4,1.6-3.5,1.7-5.3,2.2c-4.1,1.1-8.1,2.5-11.9,4.4c-12,6.1-15.8,12.5-14.5,27.9
		c1.3,16.3,7,31.3,14.1,45.8c4,8.1,7.8,16.4,14.8,23.2c-9.7-21.2-18-42.5-19.6-65.7c-1.1-15.9,5.3-28.8,22.1-33.2
		c1.5-0.4,2.9-0.5,4.2,0.3c3.6,3.1,6.8,6.6,12.2,7.4C496,230.4,498.9,230,501.9,229.7z"/>
	<path class="st11" d="M480.6,222.6c-17.1,3.1-26.5,13.9-24.8,34.6c2,23.6,10.9,44.7,20.2,65.9c0.2,0.4,0.2,0.9,0.4,1.9
		c-6.5-4.6-10.4-10.6-13.8-17c-7.8-14.6-14.5-29.7-17.6-46.1c-1.3-6.9-2.3-13.9-0.9-21.1c1.2-6.5,4.4-10.9,9.6-14.4
		c7-4.7,14.6-7.6,23-8.6C478.8,218.7,479.4,220.8,480.6,222.6z"/>
	<path class="st12" d="M488.3,192.8c2.4-0.8,3.6,0.4,4.9,1.2c6,3.8,9.8,9.4,12.9,15.6c1.3,2.6,0.6,4.4-1.5,5.8c-2.4,1.4-5,2.6-7.4,0
		c-0.7-0.8-1.6-1.8-1.7-2.8C494.3,205.6,492.3,198.9,488.3,192.8z"/>
	<path class="st10" d="M534.1,225.6c4.7,7.6,5.1,15.6,4.3,24.5c-1.8,21.3-6.9,41.8-14,61.8c-1.4,4.1-3.2,8.1-6.3,11.3
		c-2.8,3-4.7,2-6.4-1c-1.6-2.8-1.5-6-1.8-8.9c-2-16.4-0.9-32.9,0.7-49.3c1.1-11.7,2.9-23.3,5-34.8c0.4-1.9,0.7-3.8,1.1-5.7
		c1.8,2.9,4.1,5,7.7,5.1c3.8,1.4,4.6,4.7,5.2,8.1c1.6,8.3,1.4,16.7,0.2,25.1c-0.8,5.4-1.3,10.9-2.1,16.3c-0.3,2.2-0.5,4.6-2.5,6.1
		c-3-1.1-1.8-3.8-2-5.8c-0.2-3.4,0.1-6.8-1.4-10c-0.6-1.2-1-2.6-2.4-2.8c-1.7-0.2-2.5,1.3-3.3,2.4c-0.7,1.1-1.4,2.2-1.7,3.5
		c-1.9,8.4-1.8,16.8-0.2,25.1c0.4,2.2,1.7,3.1,3.9,2.1c1.2-0.5,2.1-1.6,3.6-1c1.7,3.7-0.9,6.9-1.5,10.3c-0.5,2.8-2.2,5.2-3,7.9
		c4.1-10.9,8.3-21.8,10.9-33.3c2.7-11.9,4.4-24,5.7-36.1c0.6-5.7-0.1-11.4-2.8-16.6c-0.5-1-1-2-0.7-3.2
		C531.6,226.3,532.8,226,534.1,225.6z"/>
	<path class="st11" d="M524.6,284.2c2.8-6.8,2.5-14.2,3.6-21.3c1.3-8.1,1.6-16.3,0.3-24.6c-0.6-3.7-2-6.7-4.1-9.6
		c1.6-1.8,4.1-0.6,5.9-2c5.2,6.3,5.6,13.8,4.7,21.2c-1.7,14.6-3.5,29.2-7.7,43.3c-2.8,9.4-5.9,18.8-11.3,27.3
		c1.4-7,4.4-13.6,5.4-20.7C520.6,292.8,521.6,288.3,524.6,284.2z"/>
	<path class="st13" d="M530.8,191.7c9.7,3.7,13.3,14.9,7.5,22.3c-0.9,1.1-1.9,3.3-3.7,2.4c-1.7-0.9-3.6-2.3-3.4-4.9
		c0.1-1.2,0.4-2.2,0.8-3.2C534,202.8,533.1,197.4,530.8,191.7z"/>
	<path class="st10" d="M710.4,496.7c1.8,11.5,4.8,22.5,8.7,33.2c0.6,1.5,1,2.7-0.4,3.8c-1.3,1-2.3,0-3.5-0.4
		c-3.4-1.2-3.7-4.2-4.2-6.9C709.1,516.6,710.3,506.6,710.4,496.7z"/>
	<path class="st10" d="M641.1,445.9c13.1-0.5,26.1-2.1,39.2-1.6c12,0.5,23.9-1.6,35.8-1c4.7,0.3,8.4,4.4,7.4,9
		c-0.6,2.7-1.4,5.4-2.3,8.7c-5.2-5.8-11.2-10.1-18.9-11.2c-3.3-0.5-6.6-1.6-9.8-1.5c-11.3,0.3-22.6-1.6-33.9-1.2
		C652.8,447.4,647,445.7,641.1,445.9z"/>
	<path class="st10" d="M710.5,543.3c-13.2-1.7-26.6-1.4-39.9-2.6C678.4,538.7,706.2,540.1,710.5,543.3z"/>
	<path d="M504.9,279c-0.3,6.3-1.6,12.5-2.8,18.7c-0.6,3.2-2.8,4.5-5.1,4.9c-2.4,0.5-4.6-1.3-5.7-3.6c-4.5-8.7-5.2-17.6-1.3-26.8
		c1.6-3.8,4.9-5.3,8.3-6.5c2.4-0.8,3.6,1.1,4.8,3C505,272,505,275.4,504.9,279z"/>
	<path d="M524.6,284.2c-1.1,4.5-2.1,9.1-3.2,13.6c-2,1.1-3.2,4.1-6.1,2.9c-2.6-1.1-2.3-3.7-2.8-6.1c-1.5-7.5-1.3-14.9,0.2-22.3
		c0.7-3.7,2.2-8.4,6.4-8.3c4.2,0.1,4.6,5.1,5.1,8.5C524.9,276.3,524.5,280.3,524.6,284.2z"/>
	<path class="st10" d="M502.9,277.3c-0.2,1.8,0.8,4.1-1.8,4.8c-2.4,0.7-3.7-1.5-4.5-3c-1.4-2.7-4.2-5.5-1.7-9
		c1.1-1.5,2.9-2.4,4.1-1.5C501.9,270.7,503.2,273.7,502.9,277.3z"/>
	<path class="st14" d="M490.2,291.5c0-1.2,0.1-2.3,1.2-3c1.4-0.8,2,0.5,2.8,1.1c0.3,0.2,0.5,0.5,0.7,0.7c2.3,2.2,3.9,4.8,2.7,8.1
		c-0.3,0.9-1.4,1.7-2.3,0.8C492.8,297.3,490.4,295.2,490.2,291.5z"/>
	<path class="st10" d="M522.5,275c-0.3,1.7,1,4.3-1.8,5.1c-2,0.6-2.7-1-3.3-2.6c-0.3-0.7-0.7-1.4-1-2.1c-0.2-0.6-0.5-1.2-0.6-1.8
		c-0.2-3.1,0.9-6.5,3.8-6.8c2.9-0.4,2,3.6,3,5.5C522.7,273.1,522.5,274.1,522.5,275z"/>
	<path class="st14" d="M519.5,293.1c0,2.4,0.1,4.7-2.3,4.5c-3.3-0.3-3.4-3.3-3.5-5.9c-0.1-2.1,0-5.4,2-5.1
		C518.6,287.2,519,290.9,519.5,293.1z"/>
</g>
</svg>
