<?xml version="1.0" encoding="utf-8"?>
<!-- Generator: Adobe Illustrator 23.0.1, SVG Export Plug-In . SVG Version: 6.00 Build 0)  -->
<svg version="1.1" id="Layer_4" xmlns="http://www.w3.org/2000/svg" xmlns:xlink="http://www.w3.org/1999/xlink" x="0px" y="0px"
	 viewBox="0 0 1000 1000" style="enable-background:new 0 0 1000 1000;" xml:space="preserve">
<style type="text/css">
	.st0{fill:#6E3720;}
	.st1{fill:#FB9A7A;}
	.st2{fill:#CBB89A;}
	.st3{fill:#E00000;}
	.st4{fill:#7F0000;}
	.st5{fill:none;}
	.st6{fill:#7898AB;}
	.st7{fill:#800000;}
	.st8{fill:#B0F3F2;}
	.st9{fill:#2B5260;}
	.st10{fill:#808080;}
	.st11{fill:#7F7F7F;}
	.st12{fill:#FEFEFE;}
	.st13{fill:#C0FEFE;}
	.st14{fill:#00407F;}
</style>
<g>
	<path class="st0" d="M636.6,403.4c-8.4,4.5-17.1,7.5-26.9,4.9c-1.6-0.4-3.4-0.2-5.1,0.8c-8.3,5.3-17.2,6.3-26.4,2.9
		c-3.5-1.3-6.8-0.6-9.8,0.3c-7.2,2.2-12.8-1-18.3-4.4c-4.5-2.8-9-6-13.1-11.4c0,3-0.1,4.6,0,6.1c0.7,14.3-0.7,28.5-1.2,42.7
		c-0.5,15.7-2.2,31.3-3.8,47c-0.8,8.2-2.8,16.3-3.7,24.5c-0.6,5.9,0.9,11.7,3.2,17.2c2.2,5.2,5.5,9.9,6.8,15.6
		c2.7,11.4-3.3,17.5-13,19.5c-18.7,3.9-37.7,2-56.6,2c-5,0-10.2-0.8-15.1-2.1c-11-2.9-17.4-15.2-11-27.7c4.2-8.1,6.1-16.5,5.4-25.3
		c-0.8-9.3-3.9-18.2-6.8-27.1c-5.4-16.9-10-34-11.8-51.7c-1-9.6-1.8-19.2-1.9-28.9c-0.1-9.8-2.3-19.2-6.6-28
		c-8-16.2-16.7-32.1-24-48.6c-7.7-17.3-14.5-35-17.2-54c-0.8-5.8-2.7-11.6-2.7-17.4c0-13.1,3.7-25.2,11.9-35.9
		c9.2-12.1,22.1-18.2,35.7-23.5c15.7-6.1,32.1-9.1,48.8-7.6c18.7,1.7,37.8,2.4,55.1,11.5c10.9,5.8,20,13.4,24.8,24.9
		c2.4,5.8,2.5,12.1,1.7,18.7c-1.4,10.4-3.5,20.6-6.1,30.7c-3.3,12.7-6.9,25.3-13.6,36.7c-1.8,3-2.9,6.2-0.6,9.6
		c5.6-8.8,13.5-14.7,23-18.5c7.9-3.2,16.1-3.3,24.2-0.5c7.7,2.7,15.7,3.1,23.7,2.9c13.3-0.3,22.5,5.5,27.5,18c0.7,1.8,0.1,4,1.8,5.3
		c1.5,1.9,1.3,4.2,1.1,6.4c-2.2,8.2,0.3,15.7,3.7,22.9c2.3,5,4.4,10,6,15.3c0.3,2,0.9,4,1,6.1c0.1,4.5-1,8.6-3.2,12.5
		C641.5,398.8,640.2,402.3,636.6,403.4z"/>
	<path d="M808.6,547.9c-2.3-16.5-19.9-23-32.1-21.1c-8.9,1.4-16.9,5.4-25.2,8.7c-1.2,0.5-2.3,1.3-3.2-0.3c-2.8-4.6-6.7-4.8-11.2-3.2
		c-2.3,0.8-3.2-0.2-3.9-2.5c-4.5-14.7-8.4-29.6-11.4-44.7c-0.4-1.9,0-2.3,1.8-2.8c3-0.8,6.4-1.2,8.2-4.2
		c6.8-11.6,11.2-23.8,7.1-37.4c-1.5-5.1-4.3-9.1-10.6-10.1c-3.4-0.5-6.7-0.5-10-0.6c-6.7-0.3-13.3,0.8-19.4-4.5
		c-5.5-4.6-13-6-20.1-7.3c-3.1-0.5-4.9-1.9-5.4-5.1c-1.4-9.9-2.9-19.8-4.3-29.6c-0.2-1.6,0.1-2.9,1.9-3.4c1.9-3.6,2.8-7.4,1.5-11.5
		c-0.2-0.2-0.3-0.3-0.5-0.3c0,0,0,0,0,0c-0.8-0.4-1.4,0.3-1.9,0.9c-3.4,4.7-8.3,6.1-13.7,7c-3.5,0.6-7.3-0.3-10.7,1.3
		c-0.3,0.2-0.7,0.4-1,0.6c0.3,2,0.6,4,1,5.9c0.4,0.3,0.8,0.5,1.2,0.7c2.6,1.2,5.5,0.6,8.2,0.4c5.7-0.5,5.9-0.4,6.7,5.4
		c0.9,6.1,1.7,12.2,2.6,18.3c1.2,8.1,1,8.2-6.9,9c-2.3,0.2-4.5,0.6-6.7,1c-3.6,0.6-5.1-0.8-5.5-4.3c-0.4-4.2-0.1-8.5-0.3-12.7
		c-0.1-1.8,0.4-4-1.6-5c-0.2-0.1-0.4-0.2-0.6-0.3c-2,2.3-4,4.7-6.1,7c0.4,2.4,0.4,4.7,0.9,7.1c0.7,3.6,0.8,7.6-0.3,11.1
		c-0.7,2.5-4.7,2.1-6.9,3.5c-1.2,0.7-2.5,1.4-3.5,2.4c-6.3,6.4-14,8.8-22.9,8.2c-5.2-0.3-10.4-0.1-15.6,0
		c-7.6,0.1-10.6,2.3-12.9,9.3c-2.3,6.9-1.7,14.2-0.9,21.1c0.9,7.6,3.2,15.4,12,18.3c1.6,0.5,1.1,1.6,1.5,2.6
		c4.7,11.6,4.8,23.9,5.6,36c0.9,13.8-1.7,27.3-4.8,40.7c-2.3,9.9,2.1,15.6,12.2,15.6c15.3,0.1,30.6-1.3,45.9-1.9
		c11.3-0.4,22.6,0.1,33.9,0.7c11.5,0.7,23.1,0.2,34.6,0.1c7.2,0,14.4,0.1,20.9-3.5c1.4-0.8,2.3,0.2,3.5,0.5
		c7.5,2.2,15.2,3.4,22.8,3.9c11.9,0.7,23.2-2.3,33.7-7.9C806.2,566,810.1,558.5,808.6,547.9z M744.9,554.6c1-0.1,2.3-0.6,3-1.3
		c9.4-9,22.1-10,33.5-14.1c4.2-1.5,11.4,3.4,13.3,8.1c1.4,3.3-1.6,9.9-5.6,12.3c-7.8,4.7-16.6,5.5-25.3,7c-6.3-1.1-12.8-2-19.1-3.3
		c-2.8-0.6-3.4-3.3-3.5-5.9C741.1,554.9,742.9,554.7,744.9,554.6z"/>
	<path class="st0" d="M670.8,379.9c0.3-3.9,0.7-7.9,1-11.8c-0.3-0.4-0.5-0.9-0.5-1.4c0-0.3,0-0.7,0.1-1c2.5-9,3.1-18,0.3-27
		c-1-5.2-1.5-10.4,0.5-15.5c3.8-9.8,10.9-16.4,20.8-19.5c9.5-2.9,18.9-5.6,28.1-9.5c16.1-6.8,30.4-1.6,43.1,8.9
		c4.7,3.9,9.6,7.8,13.2,13.2c5.2,7.8,7.6,16,8.8,25.2c1.6,11.9-0.7,22.9-6.4,33c-5.7,10-12.8,18.9-24.8,22.6c-3,0.9-5.2-1.2-7.9-0.2
		c-3.1,1.2-6.3,2.1-9.2,3.6c-4.7,2.5-9.3,3.9-14.6,1.9c-6.7-2.6-13-0.7-19.6,1.4c-13.6,4.5-25.4-1.7-30.9-14.2
		C671.6,386.6,671.5,383.2,670.8,379.9z"/>
	<path d="M464.6,186.6c-8.6,0.4-13-7.6-11.4-14.1c3.6-14.4,12-25.5,26.4-30.3c7.9-2.6,13.1,2.5,16.4,11.7c2.9,7.9-1.2,13.7-5.9,19.2
		C483.4,180.8,475.2,185.8,464.6,186.6z"/>
	<path d="M505.9,159.5c-0.6-2.8,0.4-5.7,2-8.3c2-3.2,4.8-4.6,8.6-3.4c9.3,2.9,17.6,7.9,24.3,14.8c7.5,7.8,4.6,13.4-2.7,17.6
		c-10.6,6.2-27.1-0.2-30.4-9.7C506.5,167,505.7,163.5,505.9,159.5z"/>
	<path d="M671.8,338.8c4.5,7.4,4.2,15.1,1.7,22.9c-0.6,1.8,0.2,4-1.5,5.4c-2.2-2-1.2-4.9-1.9-7.3c-0.3-0.9-0.4-1.9-0.5-2.9
		c-1.9-14-9.2-17.8-23.9-17.4c-3.6,0.1-7.2,2.1-10.9,0.3c0-2.3,0-4.6,0-6.9c8.4-1.6,16.9-2.7,25.4-0.8c3.6,0.8,6.1,3.7,9.1,5.7
		C670.1,338.4,670.7,339.2,671.8,338.8z"/>
	<path class="st1" d="M451.2,380c12.2-11,26-15.1,41.2-15.8c6.9-0.3,13.9,1,20.8-0.9c2-0.5,3.4,0.3,4.1,2.3
		c3.8,11.1,6.9,22.2,8.3,33.9c1.8,15.1-0.3,30.1-0.5,45.1c-0.2,11.2-1.2,22.5-1.9,33.8c-0.7,10.9-1.5,21.7-3.4,32.5
		c-1.6,9.4,0,18.9,4,27.9c1.6,3.5,3.6,6.8,4.8,10.5c1.5,4.6,0,7.3-3.9,9.6c-3.9,2.2-8.3,3-12.4,3.4c-18,1.7-36.1,2.6-53.9-1.7
		c-8.8-2.1-11.3-6.7-7.1-14.7c3.7-7,6.4-14.3,7.5-22.2c0.9-6-1.1-11.8-2.2-17.6c-4.2-21.8-12.3-42.7-16.5-64.5
		c-1.5-7.9-2.4-15.9-2.5-23.9c-0.3-17.5-3.6-34.1-11.8-49.6c-10.4-19.6-19.9-39.7-28.4-60.1c-5.7-13.6-9.4-27.8-10.9-42.6
		c-1.4-13.9,1.7-26,10.1-36.9c3.2-4.1,7.5-7,11.9-9.7c20-11.9,41.8-17.6,65-16.4c18.4,0.9,36.8,2.9,53.6,11.8
		c12.6,6.7,20.9,16.4,19.8,31.4c-1.3,17.7-5.4,34.8-12.5,51.1c-3.3,7.5-6.2,15.1-9.3,22.6c-1.3,3.1,0.4,5.7,1.2,8.3
		c4.4,14.2-1.9,23.7-16.5,26.1c-6.8,1.1-13.6,0.5-20.3,0.8c-17,0.7-29.5,8.6-37.7,23.5C451.5,378.3,451.4,378.8,451.2,380z"/>
	<path class="st1" d="M610.1,386.3c-3.4,8.9-7.9,16.2-18,18.5c-4.5,1-8.2,0-12-2c-2.4-1.2-5-2.3-7.4-1.1c-7.7,4.1-14.1,1.6-20.2-3.4
		c-7.4-6-14.5-12.2-17.2-22c-4.1-14.7-1.1-28.5,5.5-41.8c5-10,12.6-17,24-18.9c8.5-1.4,16.6,1.3,24.7,3c1.8,0.4,3.7,1,5.2,0.4
		c5.6-2,10.7,0.3,16.1,1c9.9,1.3,15.9,15,13.8,21.8c-2.1,7.1-1.6,13.4,2.3,19.7c3.4,5.5,5.7,11.4,7.2,17.8
		c2.7,11.4-5.5,21.6-17.3,20.8c-2.5-0.2-5.1-0.8-4.6-4.6C612.6,392.5,611.5,389.4,610.1,386.3z"/>
	<path class="st2" d="M634.8,339.9c7-0.9,13.8-2.8,21.2-1.1c10.5,2.5,12.6,7.2,14.8,16.5c0.9,3.8,0.8,7.9,1.2,11.9
		c-0.1,0.3-0.1,0.7-0.2,1c-2.6,6.1-7.8,8-13.9,8.9c-4.5,0.7-8.9,1-13.4,0.9c-2.5-9.4-8.4-17.5-10.2-27.2
		C633.6,347,633.1,343.4,634.8,339.9z"/>
	<path class="st2" d="M645.5,383.8c4.1-0.3,8.3,0.4,12.5-0.9c2.1-0.7,3.8-0.4,4.3,3.1c1.3,8.6,2.8,17.2,3.6,25.9
		c0.5,5.8-0.5,7-6.6,6.9c-3,0-5.7,1.6-8.5,1c-2.2-0.4-4.6,2.4-5.8,0.5c-1.3-2.1-1.4-5.2-1.5-7.8c-0.2-4.7-0.1-9.4-0.1-14.1
		c0-0.8,0-1.6-0.9-2C643.8,392.2,645.9,388.3,645.5,383.8z"/>
	<path class="st3" d="M711,484.3c3.5,14,7.1,27.9,10.6,41.9c0.2,0.8,0.4,1.6,0.6,2.3c2.1,6.8,1.6,7.7-5.7,7.6
		c-12.3-0.1-24.5-0.7-36.8-1.1c-10.5-0.2-21.1-0.1-31.6,0.3c-11,0.5-22,0.8-33,2.1c-6.7,0.8-9.7-2.8-8.8-9.4
		c0.7-5.2,1.7-10.3,3.5-15.2c4.5-12.5,14.1-19.2,26.5-22.2c13.9-3.3,28-5.4,42.4-5.9c8.1-0.3,16.2-0.5,24.3-1.5
		C705.8,482.9,708.6,482.5,711,484.3z"/>
	<path class="st3" d="M605.5,444.5c22.2-1.9,44.6-1.5,66.8-2.3c14.6-0.6,29.1-0.4,43.7-0.7c10.1-0.2,12.7,2.2,10.8,12.9
		c-0.9,4.8-2.1,9.2-4.1,13.7c-1.4,3.3-3.7,4.5-6.8,3.7c-6.4-1.8-13.2,0.2-19.6-2c-13.8-2-27.8-1.7-41.6-3.4c-16.1-1.9-32,0.9-48,1.8
		c-4.3,0.3-8.4,0.2-12.3-1.9c-4.4-2.4-6.5-6.6-5.8-11.3c0.7-4.8,3.9-8.2,8.7-9.4C600.1,444.7,602.9,445.2,605.5,444.5z"/>
	<path class="st4" d="M711,484.3c-16.8,1-33.6,1.4-50.3,3.3c-10.5,1.2-21.1,2.9-31.1,6.7c-13.6,5.2-18.9,16.3-21.3,29.5
		c-0.2,1-0.1,2-0.3,2.9c-1.7,8,0.3,10.3,8.7,9.4c13.5-1.4,27.1-2,40.7-1.9c5.9,0,11.7,0,17.6,0c1.6,0,3.3-0.5,4.6,0.8
		c-16,0.7-32,1.2-47.9,2.2c-9.1,0.5-18.2,1.8-27.3,2.7c-1.6,0.2-3,0.1-2.7-2.2c2.1-13.9,0-27.7-2.6-41.3
		c-2.2-11.5-2.5-11.2,8.6-13.2c14-2.4,28-3.9,42.1-5c16.7-1.3,33.1,0.3,49.6,2c3,0.3,6.1,0.7,9.1,1C710.7,481.6,711,482.7,711,484.3
		z"/>
	<path class="st3" d="M696.4,550.7c3.7,0,7.5,0.4,11.2,0c7.1-0.6,13.7,1.3,20.4,3c2.8,0.7,3.5,3,3.4,5.1c-0.2,3.3-0.6,6.9-4.4,8.3
		c-5,1.8-10.4,1.8-15.7,2c-11.5,0.4-23.2,0.9-34.6-0.1c-14.6-1.2-29.2-0.2-43.8-0.9c-0.5-0.2-0.9-0.4-1.4-0.3
		c-2.7,0-5.5,0.1-6.1-3.3c-0.6-3.2,1.4-5.2,3.9-6.6c3.7-2.1,8-2.7,12.1-3.4c17.3-2.9,34.7-3.6,52.2-4.3
		C694.5,550.3,695.5,550.2,696.4,550.7z"/>
	<path class="st5" d="M789.2,559.6c-7.8,4.7-16.6,5.5-25.3,7c-6.3-1.1-12.8-2-19.1-3.3c-2.8-0.6-3.4-3.3-3.5-5.9
		c-0.1-2.5,1.7-2.6,3.6-2.8c1-0.1,2.3-0.6,3-1.3c9.4-9,22.1-10,33.5-14.1c4.2-1.5,11.4,3.4,13.3,8.1
		C796.1,550.6,793.1,557.2,789.2,559.6z"/>
	<path class="st3" d="M633.8,540.2c27.2-1.4,54.4-3.4,81.8-1.1c-1.1,4.7-1.1,4.7,0.7,9.8c-7.6-0.4-15.1-0.5-22.5-1.3
		c-7.6-0.8-15.1-1.1-22.6,0.1c-4.8,0.7-9.6,0.5-14.4,1c-12.2,1.2-24.4,1.6-36.7,2.3c-5.7,0.7-9-0.6-9.3-3.6
		c-0.3-2.7,2.5-4.6,8.1-5.3C623.9,541.4,628.9,540.5,633.8,540.2z"/>
	<path class="st4" d="M605.5,444.5c-2,1.7-4.6,0.9-6.9,1.6c-7.8,2.2-9.2,7.7-8.7,12.1c0.5,4.6,5.5,8.6,11.5,8.6
		c6.6,0,13.2-0.6,19.8-1.1c9.9-0.6,19.7-2.3,29.8-1.1c8.8,1,17.6,1.5,26.4,2.4c6.3,0.6,12.9,0.2,18.9,2.7c-5.7,1-11.3-0.8-16.9-0.9
		c-18-0.3-35.9,0.8-53.8,2.2c-10.5,0.8-21,2.8-31.5,4.6c-6.2,1-10.5-2.8-11.1-10.2c-0.4-4.7,0.5-9.4,1.2-14c0.5-3.1,2.8-5.3,5.9-5.8
		C595.2,444.6,600.3,443.8,605.5,444.5z"/>
	<path class="st6" d="M803.7,546.8c4.6,7.2-1.1,16.9-7.8,20.6c-13.2,7.4-27.1,8.9-41.7,6.5c-2.4-0.4-4.8,0-7.2-0.6
		c-4.2-1.1-6.6-2.7-4.4-7.4c7.3,1.8,14.8,3.6,22.4,3.4c10.9-0.3,21-3.2,29.8-10.1c5.1-4,4.5-14.8-1.3-18.9
		c-5.7-4.1-11.7-5.2-18.4-2.6c-7.8,3-15.9,5.5-23.7,8.5c-2.2,0.9-3.3,0.3-4.6-1.2c-1.8-2.1,0.5-3.1,1.5-3.8
		c4.6-3.2,9.8-5.2,15.3-6.2c-1.1,4.3-5.4,2.9-8.1,4.8c6.6-2.3,13.1-4.9,20-5.6c6-0.7,12.1-1,17.5,2.2c7.8,4.5,10.2,11.7,7.9,21.1
		C803.5,554.9,801.2,550.2,803.7,546.8z"/>
	<path class="st7" d="M696.4,550.7c-20.8,1.4-41.8,2.1-62.2,6.9c-1.2,0.3-2.5,0.7-3.7,1.2c-2.4,0.9-4.5,2.6-4.3,5.2
		c0.2,3.1,2.9,3.4,5.5,3.5c0.4,0,0.8,0.5,1.2,0.7c-9.2,0.7-18.3,1.6-27.5,2c-7.4,0.3-8.4-1.1-6.7-8.1c1.6-6.7,2.1-7.2,11-7.5
		c15.2-0.4,30.2-2.6,45.4-3.2c12.6-0.5,25.1-1.8,37.7-1.7C694,549.8,695.4,549.5,696.4,550.7z"/>
	<path class="st2" d="M696.6,430.8c-17.7-1.1-34.2,2.8-51,3.1c-5.6,0.1-11.2,0.3-16.9,0.8C634,424.6,684.8,421.3,696.6,430.8z"/>
	<path class="st8" d="M803.7,546.8c0.2,5.7,0.3,11.4-5.8,15.6c0.7-2.4,1.1-4.3,1.9-6.1c4.1-9.5-4.9-21.3-16.4-21.2
		c-7,0-13.7,1.3-20.4,3.3c-3,0.9-6.1,1.8-9.9,3c3.1-3.9,7.8-3.4,10.5-6.3c5-2.4,10.4-3.3,15.7-4.5
		C789.9,528.3,802.3,536.6,803.7,546.8z"/>
	<path class="st9" d="M739.8,536c2.8,0.7,5.5,1.7,3.7,5.2c-1.3,2.5-1.4,4.6,0.3,6.7c1.8,2.3,0.2,3.1-1.6,2.8
		c-6.4-1.2-13-1.9-19.2-4.2c-1.3-0.5-2.9-0.9-3.1-2.7c-0.2-1.9,1.3-2.9,2.7-3.6C728,537.4,734.2,537.9,739.8,536z"/>
	<path class="st4" d="M633.8,540.2c-5.7,1.7-11.7,1.6-17.4,3.5c-2,0.7-4.8,0.7-4.7,3.2c0.1,2.5,2.8,3.3,5,3.8
		c1.1,0.3,2.3,0.1,3.4,0.2c-3.3,1.8-6.9,0.4-10.4,0.8c-0.8,0.1-1.6,0-2.4,0c-2.1,0.2-5,2.4-6.2,0.1c-1-1.9,0.1-4.9,0.5-7.4
		c0.4-2.5,3.1-2,4.4-2.1C615.3,542,624.5,539.7,633.8,540.2z"/>
	<path class="st1" d="M706.6,380.3c-1.4,3.6-2.1,6.9-0.6,10.3c1,2.3-0.1,3.2-2.3,3.9c-15.3,4.6-25.3-9.3-22.1-22
		c1.1-4.5,1.6-9.2,3.3-13.5c2.6-6.6,0.8-12.4-1.8-18.5c-1.7-4-3.1-8.2-1.7-13c2-7.5,7.1-11.4,14-13.2c11-2.8,21.7-6.5,32-11.5
		c9.9-4.8,18.7-0.4,26.7,4.6c11,6.9,18,17.3,21.6,29.8c4.3,14.6,0.3,27.4-8.2,39.4c-5.1,7.3-11.5,11.2-20.6,11.1
		c-3.8,0-7.2,2.6-10.6,4.3c-9.8,4.9-23,0.5-28.1-9.3C707.6,382.1,707.1,381.3,706.6,380.3z"/>
	<path class="st10" d="M475.4,149.9c4.3-3,7.9-5.1,12-0.9c4.1,4.1,5.7,11.1,3.2,15.2c-2.1,3.5-4.3,3.5-6.2,0c-0.5-0.9-1-2.1-1-3.1
		C483.5,155.6,481.1,151.9,475.4,149.9z"/>
	<path class="st11" d="M514.8,152c9.9,3.1,17.8,6.6,23.2,14.4c0.6,0.8,0.7,1.8,1.2,2.6c1.4,2.3,0.9,4.1-1.2,5.4
		c-2.1,1.3-4.2,0-5.1-1.5C528.1,165.4,522,159.2,514.8,152z"/>
	<path class="st12" d="M506.9,269.6c-0.2,16.9-1.5,31.7-6.8,46c-1.7,4.7-4.4,8.6-7.9,12c-6.1,5.9-18.2,3.5-24.1-4.5
		c-13.3-18.1-23.2-37.8-27.3-59.9c-1.2-6.6-2.4-13.3-1.7-20.4c1.1-10.9,7-17.2,16.2-21.6c9.1-4.3,18.3-7.4,28.7-5.3
		c13.2,2.6,17,6.6,19.7,20.1c1.1,5.8,2.1,11.7,2.2,17.7C506,259.5,507.4,265.4,506.9,269.6z"/>
	<path class="st12" d="M510.8,268.6c-0.1-14.1,2.5-27.8,4.9-41.5c0.7-4,3.4-6.8,7.5-7.2c5.4-0.6,9.2,2.5,11.9,6.9
		c4,6.3,4.5,13.4,3.8,20.5c-1.5,16.3-4.7,32.3-8.8,48.1c-2.3,8.7-4.5,17.4-9.3,25.2c-1.3,2.1-2.3,4.7-5.1,4.4
		c-2.5-0.3-3.4-2.8-3.9-5.1c-2.6-10.8-4-21.7-2.2-32.8c1.9,1.6,1.9,4,2.3,6.2c0.3,1.6,0.3,3.5,2.3,3.8c2.1,0.3,3.2-1.3,4-2.9
		c1.7-3.4,2.3-7.2,2.6-10.9c0.5-5.3,1.1-10.7-0.7-16c-1.7-4.8-3.1-4.9-6.4-1C513,267.3,512.5,268.7,510.8,268.6z"/>
	<path d="M510.8,268.6c0.2-0.2,0.6-0.3,0.7-0.5c1.2-2.8,2.5-6.5,5.8-6.1c4,0.5,4.6,5,5,8.2c0.8,7.8,0.3,15.6-2.1,23.2
		c-0.8,2.6-2.3,5.5-5.9,5.4c-2,0-3.6-1.4-3.5-3.2c0.1-3-1.4-5.6-1.3-8.4C509.9,280.9,509.5,274.7,510.8,268.6z"/>
	<path class="st12" d="M710.4,496.7c1.7,11.5,4.8,22.5,8.7,33.2c0.6,1.5,1,2.7-0.4,3.8c-1.3,1-2.3,0-3.5-0.4
		c-3.4-1.2-3.7-4.1-4.2-6.9C709.1,516.6,710.3,506.6,710.4,496.7z"/>
	<path class="st12" d="M721,460.8c-8.8-10.8-21-12.2-33.6-12.6c-15.4-0.5-30.8-1.3-46.2-2.5c11.3,0.3,22.4-1.6,33.7-1.5
		c13.7,0.2,27.5-0.6,41.2-0.8c5-0.1,8.8,4.5,7.3,9.2C722.5,455.2,723.2,458.1,721,460.8z"/>
	<path class="st12" d="M670.6,540.4c13.3,0.1,26.8-1.6,40,2.6C697.3,541.5,683.9,542,670.6,540.4z"/>
	<path class="st13" d="M476,324.7c-5.6-3-8.1-8.5-11.1-13.4c-9.2-14.7-15.4-30.6-18.9-47.6c-1.6-8-3.4-15.9-2-24.4
		c1.3-7.6,6.1-11.5,11.8-15c6.5-3.9,13.7-5.5,21.1-6.5c3.7-0.5,7,0.5,9.9,3.7c-4.8,1.4-9.4,2.7-14,3.9c-13,3.4-19,18.7-17.2,30
		c1.7,10.5,3.1,21,5.7,31.4C464.6,299.9,468.9,312.8,476,324.7z"/>
	<path d="M492.2,273.9c-0.2,6.5-1.6,12.8-2.8,19.2c-0.6,3-2.7,4.1-4.9,4.6c-2.4,0.6-4.7-1.2-5.8-3.4c-4.7-8.8-5.4-17.8-1.3-27.2
		c1.6-3.7,4.8-5,8-6.3c2.3-0.9,3.9,0.8,4.9,2.8C491.8,266.9,492.6,270.3,492.2,273.9z"/>
	<path class="st13" d="M520.9,223c8.5-0.6,14.9,6.8,15.2,16.8c0.2,5.2-1.4,10.2-2.1,15.3c-2.2,17.2-5.6,34.1-11.7,50.4
		c-1.8,4.8-3.9,9.5-6.6,14c2.7-10.1,5.4-20.2,8.1-30.3c3-11.3,4.9-22.6,5.7-34.3c0.6-8.8,0.7-17-3.4-25
		C524.9,227.4,522.6,225.8,520.9,223z"/>
	<path class="st12" d="M520.5,273.3c-0.3,1.6,1,4.3-2,4.9c-2.9,0.6-2.9-2.4-3.9-4c-0.6-0.9-1.1-1.9-1-3.1c0.2-2.9,1.2-6,4-6.2
		c2.6-0.2,1.9,3.4,2.8,5.2C520.8,271,520.5,272.1,520.5,273.3z"/>
	<path class="st14" d="M511.7,289.4c0-1.9-0.1-4.4,2.1-4.8c1.8-0.4,1.9,2.2,2.8,3.4c0.1,0.1,0.1,0.3,0.2,0.5
		c1.1,2.1,1.3,4.3,0.2,6.4c-0.5,0.9-1.7,1.3-2.5,0.8C512,294.3,511.7,291.9,511.7,289.4z"/>
	<path class="st12" d="M490.3,271.5c-0.3,2.6,0.7,5-1.9,5.7c-2.4,0.7-3.7-1.5-4.5-3c-1.5-2.6-4-5.4-1.8-8.8c0.9-1.5,2.6-2.6,4.1-1.7
		C489.4,265.6,490.1,268.9,490.3,271.5z"/>
	<path class="st14" d="M485.4,291.3c0,1.4-0.1,2.8-1.5,3.3c-1.3,0.5-2-0.8-2.8-1.5c-0.2-0.2-0.5-0.5-0.7-0.7
		c-2.2-2.1-3.6-4.6-2.6-7.7c0.3-0.9,1.2-1.8,2.2-1.1C482.7,285.5,485,287.8,485.4,291.3z"/>
</g>
</svg>
