<?xml version="1.0" encoding="utf-8"?>
<!-- Generator: Adobe Illustrator 23.0.1, SVG Export Plug-In . SVG Version: 6.00 Build 0)  -->
<svg version="1.1" id="Layer_4" xmlns="http://www.w3.org/2000/svg" xmlns:xlink="http://www.w3.org/1999/xlink" x="0px" y="0px"
	 viewBox="0 0 1000 1000" style="enable-background:new 0 0 1000 1000;" xml:space="preserve">
<style type="text/css">
	.st0{fill:#6E3720;}
	.st1{fill:#FB9A7A;}
	.st2{fill:#CBB89A;}
	.st3{fill:#E00000;}
	.st4{fill:#7F0000;}
	.st5{fill:none;}
	.st6{fill:#7898AB;}
	.st7{fill:#800000;}
	.st8{fill:#B0F3F2;}
	.st9{fill:#2B5260;}
	.st10{fill:#7F7F7F;}
	.st11{fill:#808080;}
	.st12{fill:#FEFEFE;}
	.st13{fill:#C0FEFE;}
	.st14{fill:#00407F;}
	.st15{fill:#004080;}
</style>
<g>
	<path class="st0" d="M636.6,403.4c-8.4,4.5-17.1,7.5-26.9,4.9c-1.6-0.4-3.4-0.2-5.1,0.8c-8.3,5.3-17.2,6.3-26.4,2.9
		c-3.5-1.3-6.8-0.6-9.8,0.3c-7.2,2.2-12.8-1-18.3-4.4c-4.5-2.8-9-6-13.1-11.4c0,3-0.1,4.6,0,6.1c0.7,14.3-0.7,28.5-1.2,42.7
		c-0.5,15.7-2.2,31.3-3.8,47c-0.8,8.2-3,16.3-3.6,24.5c-0.5,6,0.8,11.9,3.4,17.6c2.8,6.1,7.1,11.7,7.2,18.9
		c0.1,7.9-5.6,14.6-13.5,15.9c-18.8,3.2-37.8,1.7-56.7,1.8c-5,0-10.2-0.8-15.1-2.1c-11-2.9-17.3-15.2-11-27.7c4-7.8,6-15.8,5.4-24.4
		c-0.7-9.5-3.8-18.5-6.7-27.6c-5.4-17-10.1-34.3-11.9-52.2c-0.9-9.5-1.6-18.9-1.9-28.4c-0.4-11.3-2.4-22.4-7.7-32.6
		c-7.1-13.8-14.3-27.6-21.1-41.5c-8.5-17.4-15.7-35.3-18.7-54.4c-2-12.9-4.2-26-0.3-39.1c2-6.5,5.5-12.2,9.9-17.2
		c13.2-15,30.2-23.3,49.4-27.9c11.5-2.7,23.2-3.5,34.9-2.8c15.1,0.9,30.2,2.6,44.4,7.8c13.5,4.9,25.5,12.1,33.4,24.9
		c4.6,7.4,4.1,15.4,3.6,23.3c-1.1,14.9-5.9,29.1-10.5,43.2c-2.8,8.6-6.1,16.9-10.4,24.9c-0.6,1.1-1.3,2.4-1.3,3.5
		c0.1,1.1,0.9,2.5,1.8,3c0.8,0.5,1.4-0.9,2-1.6c8.7-10.6,19.6-17,33.5-17.6c7.1-0.3,13.6,3.1,20.5,4.2c4.7,0.7,9.3,0.7,14,0.6
		c13.2-0.1,22.6,5.2,27.9,17.7c0.8,1.9,0.2,4.2,1.9,5.8c1.5,1.9,1.3,4.2,1.1,6.4c-2.2,8.2,0.3,15.7,3.7,22.9c2.3,5,4.4,10,6,15.3
		c0.3,2,0.9,4,1,6.1c0.1,4.5-1,8.6-3.2,12.5C641.5,398.8,640.2,402.3,636.6,403.4z"/>
	<path d="M808.6,547.9c-2.3-16.5-19.9-23-32.1-21.1c-8.9,1.4-16.9,5.4-25.2,8.7c-1.2,0.5-2.3,1.3-3.2-0.3c-2.8-4.6-6.7-4.8-11.2-3.2
		c-2.3,0.8-3.2-0.2-3.9-2.5c-4.5-14.7-8.4-29.6-11.4-44.7c-0.4-1.9,0-2.3,1.8-2.8c3-0.8,6.4-1.2,8.2-4.2
		c6.8-11.6,11.2-23.8,7.1-37.4c-1.5-5.1-4.3-9.1-10.6-10.1c-3.4-0.5-6.7-0.5-10-0.6c-6.7-0.3-13.3,0.8-19.4-4.5
		c-5.5-4.6-13-6-20.1-7.3c-3.1-0.5-4.9-1.9-5.4-5.1c-1.4-9.9-2.9-19.8-4.3-29.6c-0.2-1.6,0.1-2.9,1.9-3.4c1.9-3.6,2.8-7.4,1.5-11.5
		c-0.2-0.2-0.3-0.3-0.5-0.3c0,0,0,0,0,0c-0.8-0.4-1.4,0.3-1.9,0.9c-3.4,4.7-8.3,6.1-13.7,7c-3.5,0.6-7.3-0.3-10.7,1.3
		c-0.3,0.2-0.7,0.4-1,0.6c0.3,2,0.6,4,1,5.9c0.4,0.3,0.8,0.5,1.2,0.7c2.6,1.2,5.5,0.6,8.2,0.4c5.7-0.5,5.9-0.4,6.7,5.4
		c0.9,6.1,1.7,12.2,2.6,18.3c1.2,8.1,1,8.2-6.9,9c-2.3,0.2-4.5,0.6-6.7,1c-3.6,0.6-5.1-0.8-5.5-4.3c-0.4-4.2-0.1-8.5-0.3-12.7
		c-0.1-1.8,0.4-4-1.6-5c-0.2-0.1-0.4-0.2-0.6-0.3c-2,2.3-4,4.7-6.1,7c0.4,2.4,0.4,4.7,0.9,7.1c0.7,3.6,0.7,7.6-0.3,11.1
		c-0.7,2.5-4.7,2.1-6.9,3.5c-1.2,0.7-2.5,1.4-3.5,2.4c-6.3,6.4-14,8.8-22.9,8.2c-5.2-0.3-10.4-0.1-15.6,0
		c-7.6,0.1-10.6,2.3-12.9,9.3c-2.3,6.9-1.7,14.2-0.9,21.1c0.9,7.6,3.2,15.4,12,18.3c1.6,0.5,1.1,1.6,1.5,2.6
		c4.7,11.6,4.8,23.9,5.6,36c0.9,13.8-1.7,27.3-4.8,40.7c-2.3,9.9,2.1,15.6,12.2,15.6c15.2,0,30.3-1.3,45.4-1.9
		c12.4-0.5,24.9,0,37.3,0.8c10.5,0.6,21.2,0.1,31.7,0.1c7.2,0,14.4,0.1,20.9-3.5c1.4-0.8,2.3,0.2,3.5,0.5c7.5,2.2,15.2,3.4,22.8,3.9
		c11.9,0.7,23.2-2.3,33.7-7.9C806.2,566,810.1,558.5,808.6,547.9z M745,554.6c1-0.1,2.2-0.7,3-1.4c9.4-8.9,22.1-10,33.6-14
		c4.2-1.5,11.5,3.6,13.2,8.2c1.3,3.5-1.8,9.7-5.8,12.2c-7.6,4.8-16.3,5.2-25,7c-6.4-1.1-12.9-2.1-19.5-3.4c-2.8-0.5-3-3.3-3.3-5.5
		C740.9,554.9,742.9,554.7,745,554.6z"/>
	<path class="st0" d="M670.8,379.9c0.3-3.9,0.7-7.9,1-11.8c-0.3-0.4-0.5-0.9-0.5-1.4c0-0.3,0-0.7,0.1-1c2.5-9,3.1-18,0.3-27
		c-1-5.2-1.5-10.4,0.5-15.5c3.8-9.8,10.9-16.4,20.8-19.5c9.5-2.9,18.9-5.6,28.1-9.5c16.1-6.8,30.4-1.6,43.1,8.9
		c4.7,3.9,9.6,7.8,13.2,13.2c5.2,7.8,7.6,16,8.8,25.2c1.6,11.9-0.7,22.9-6.4,33c-5.7,10-12.8,18.9-24.8,22.6c-3,0.9-5.2-1.2-7.9-0.2
		c-3.1,1.2-6.3,2.1-9.2,3.6c-4.7,2.5-9.3,3.9-14.6,1.9c-6.7-2.6-13-0.7-19.6,1.4c-13.6,4.5-25.4-1.7-30.9-14.2
		C671.6,386.6,671.5,383.2,670.8,379.9z"/>
	<path d="M467,181.6c-3.6,0.2-6.2-0.9-8.2-4.4c-6.4-11.3-3.7-21.8,2.1-32.1c2.7-4.8,5.9-9.5,11.1-12.1c2.6-1.3,5.1-1.5,8.1-0.4
		c9.6,3.5,14.1,11.3,12.1,21.2c-2.1,10.6-8.1,18.6-16.4,25C473.3,180.8,470.3,181.8,467,181.6z"/>
	<path d="M524.4,175.8c-10.7-1.1-21.2-8.4-23.3-20c-1.1-6.1,5-16.8,10.2-19.2c4.2-2,7.4,0,9.8,2.4c7.7,7.4,13.6,16.2,16.8,26.5
		c1,3.2-1.7,7.4-5.6,8.8C529.7,175.2,527.1,176,524.4,175.8z"/>
	<path d="M671.8,338.8c4.5,7.4,4.2,15.1,1.7,22.9c-0.6,1.8,0.2,4-1.5,5.4c-2.2-2-1.2-4.9-1.9-7.3c-0.3-0.9-0.4-1.9-0.5-2.9
		c-1.9-14-9.2-17.8-23.9-17.4c-3.6,0.1-7.2,2.1-10.9,0.3c0-2.3,0-4.6,0-6.9c8.4-1.6,16.9-2.7,25.4-0.8c3.6,0.8,6.1,3.7,9.1,5.7
		C670.1,338.4,670.7,339.2,671.8,338.8z"/>
	<path class="st1" d="M453.6,381.6c5.7-5.3,11.9-9.7,19-13.1c6-2.8,12.1-4.1,18.6-4.4c6.9-0.2,13.9,0.8,20.8-0.9
		c2.8-0.7,4.4,0.5,5.9,3.3c5,9.3,5.8,19.6,7.5,29.7c1.4,8.3,1.3,16.8,1,25.2c-0.8,19.4-2.3,38.7-3,58.1c-0.5,12.5-2.8,24.9-3.6,37.4
		c-0.6,8.9,1.7,17.5,5.9,25.5c0.4,0.7,0.7,1.4,1.1,2.2c4.9,9.9,3.3,13.4-7.5,16.1c-15.7,3.9-31.6,3.3-47.6,2
		c-4.7-0.4-9.2-1.1-13.8-2.2c-7.9-1.8-10.2-6.5-6.8-13.9c2.9-6.4,5.9-12.6,7.3-19.7c1.4-7.3-0.4-14-1.7-20.9
		c-4.1-21.7-12.1-42.4-16.4-64.1c-1.6-8.1-2.6-16.3-2.5-24.4c0.1-17.5-4.4-33.6-11.9-49.2c-9.1-19-19.3-37.4-27.1-57
		c-6-15.1-10.8-30.4-12.1-46.7c-1-12.4,0.7-24.1,8.1-34.1c6.3-8.5,15.4-14.2,25.1-18.3c17.2-7.3,35.3-11.1,54.1-9.9
		c18.4,1.2,36.8,3.4,53.5,12.2c12.8,6.7,21.3,18.5,18.9,35.3c-3.4,23.9-10.5,46.4-20.7,68.2c-1,2.1-1.1,3.9,0,5.9
		c4.2,7.4,3.6,15-0.4,22.2c-2.4,4.3-6.7,6.8-11.7,7.6c-7.6,1.2-15.2,0.9-22.8,1c-17.4,0.2-29.3,8.8-36.9,24.1
		C453.3,379.6,453,380.4,453.6,381.6z"/>
	<path class="st1" d="M610,386.2c-3.3,9-8,16.3-18.2,18.6c-4.3,1-8-0.1-11.6-2c-2.5-1.3-5.2-2.4-7.8-1c-7.6,4-13.7,1.4-19.7-3.4
		c-7.4-6-14.5-12.2-17.3-21.9c-4.2-14.7-1.2-28.5,5.4-41.8c5-10,12.5-17.1,23.9-19c8.5-1.4,16.6,1.3,24.7,3c1.9,0.4,4.1,1.1,5.7,0.4
		c4.8-1.9,9.4-0.4,13.8,0.5c12.1,2.5,17.7,11.7,15.2,24c-1.2,6-1,11.5,2.4,17c3.5,5.7,6.1,11.9,7.6,18.6
		c2.6,11.6-5.1,21.4-17.1,20.9c-2.8-0.1-5.3-1-4.8-4.9C612.6,392.1,611.5,389.1,610,386.2z"/>
	<path class="st2" d="M634.8,339.9c7-0.9,13.8-2.8,21.2-1.1c10.5,2.5,12.6,7.2,14.8,16.5c0.9,3.8,0.8,7.9,1.2,11.9
		c-0.1,0.3-0.1,0.7-0.2,1c-2.6,6.1-7.8,8-13.9,8.9c-4.5,0.7-8.9,1-13.4,0.9c-2.5-9.4-8.4-17.5-10.2-27.2
		C633.6,347,633.1,343.4,634.8,339.9z"/>
	<path class="st2" d="M645.5,383.8c4.1-0.3,8.3,0.4,12.5-0.9c2.1-0.7,3.8-0.4,4.3,3.1c1.3,8.6,2.8,17.2,3.6,25.9
		c0.5,5.8-0.5,7-6.6,6.9c-3,0-5.7,1.6-8.5,1c-2.2-0.4-4.6,2.4-5.8,0.5c-1.3-2.1-1.4-5.2-1.5-7.8c-0.2-4.7-0.1-9.4-0.1-14.1
		c0-0.8,0-1.6-0.9-2C643.8,392.2,645.9,388.3,645.5,383.8z"/>
	<path class="st3" d="M711,484.3c3.5,14,7.1,27.9,10.6,41.9c0.2,0.8,0.4,1.6,0.6,2.3c2.1,6.8,1.6,7.7-5.7,7.6
		c-12.3-0.1-24.5-0.7-36.8-1.1c-10.5-0.2-21.1-0.1-31.6,0.3c-11,0.5-22,0.8-33,2.1c-6.7,0.8-9.7-2.8-8.8-9.4
		c0.7-5.2,1.7-10.3,3.5-15.2c4.5-12.5,14.1-19.2,26.5-22.2c13.9-3.3,28-5.4,42.4-5.9c8.1-0.3,16.2-0.5,24.3-1.5
		C705.8,482.9,708.6,482.5,711,484.3z"/>
	<path class="st3" d="M605.5,444.5c22.2-1.9,44.6-1.5,66.8-2.3c14.6-0.6,29.1-0.4,43.7-0.7c10.1-0.2,12.7,2.2,10.8,12.9
		c-0.9,4.8-2.1,9.2-4.1,13.7c-1.4,3.3-3.7,4.5-6.8,3.7c-6.4-1.8-13.2,0.2-19.6-2c-13.8-2-27.8-1.7-41.6-3.4c-16.1-1.9-32,0.9-48,1.8
		c-4.3,0.3-8.4,0.2-12.3-1.9c-4.4-2.4-6.5-6.6-5.8-11.3c0.7-4.8,3.9-8.2,8.7-9.4C600.1,444.7,602.9,445.2,605.5,444.5z"/>
	<path class="st4" d="M711,484.3c-16.8,1-33.6,1.4-50.3,3.3c-10.5,1.2-21.1,2.9-31.1,6.7c-13.6,5.2-18.9,16.3-21.3,29.5
		c-0.2,1-0.1,2-0.3,2.9c-1.7,8,0.3,10.3,8.7,9.4c13.5-1.4,27.1-2,40.7-1.9c5.9,0,11.7,0,17.6,0c1.6,0,3.3-0.5,4.6,0.8
		c-16,0.7-32,1.2-47.9,2.2c-9.1,0.5-18.2,1.8-27.3,2.7c-1.6,0.2-3,0.1-2.7-2.2c2.1-13.9,0-27.7-2.6-41.3
		c-2.2-11.5-2.5-11.2,8.6-13.2c14-2.4,28-3.9,42.1-5c16.7-1.3,33.1,0.3,49.6,2c3,0.3,6.1,0.7,9.1,1C710.7,481.6,711,482.7,711,484.3
		z"/>
	<path class="st3" d="M696.4,550.7c3.7,0,7.5,0.4,11.2,0c7.1-0.6,13.7,1.3,20.4,3c2.8,0.7,3.5,3,3.4,5.1c-0.2,3.3-0.6,6.9-4.4,8.3
		c-5,1.8-10.4,1.8-15.7,2c-11.5,0.4-23.2,0.9-34.6-0.1c-14.6-1.2-29.2-0.2-43.8-0.9c-0.5-0.2-0.9-0.4-1.4-0.3
		c-2.7,0-5.5,0.1-6.1-3.3c-0.6-3.2,1.4-5.2,3.9-6.6c3.7-2.1,8-2.7,12.1-3.4c17.3-2.9,34.7-3.6,52.2-4.3
		C694.5,550.3,695.5,550.2,696.4,550.7z"/>
	<path class="st5" d="M789,559.6c-7.6,4.8-16.3,5.2-25,7c-6.4-1.1-12.9-2.1-19.5-3.4c-2.8-0.5-3-3.3-3.3-5.5c-0.4-2.8,1.6-3,3.8-3.1
		c1-0.1,2.2-0.7,3-1.4c9.4-8.9,22.1-10,33.6-14c4.2-1.5,11.5,3.6,13.2,8.2C796.1,550.9,793,557.1,789,559.6z"/>
	<path class="st3" d="M633.8,540.2c27.2-1.4,54.4-3.4,81.8-1.1c-1.1,4.7-1.1,4.7,0.7,9.8c-7.6-0.4-15.1-0.5-22.5-1.3
		c-7.6-0.8-15.1-1.1-22.6,0.1c-4.8,0.7-9.6,0.5-14.4,1c-12.2,1.2-24.4,1.6-36.7,2.3c-5.7,0.7-9-0.6-9.3-3.6
		c-0.3-2.7,2.5-4.6,8.1-5.3C623.9,541.4,628.9,540.5,633.8,540.2z"/>
	<path class="st4" d="M605.5,444.5c-2,1.7-4.6,0.9-6.9,1.6c-7.8,2.2-9.2,7.7-8.7,12.1c0.5,4.6,5.5,8.6,11.5,8.6
		c6.6,0,13.2-0.6,19.8-1.1c9.9-0.6,19.7-2.3,29.8-1.1c8.8,1,17.6,1.5,26.4,2.4c6.3,0.6,12.9,0.2,18.9,2.7c-5.7,1-11.3-0.8-16.9-0.9
		c-18-0.3-35.9,0.8-53.8,2.2c-10.5,0.8-21,2.8-31.5,4.6c-6.2,1-10.5-2.8-11.1-10.2c-0.4-4.7,0.5-9.4,1.2-14c0.5-3.1,2.8-5.3,5.9-5.8
		C595.2,444.6,600.3,443.8,605.5,444.5z"/>
	<path class="st6" d="M803.7,546.8c4.6,7.2-1.1,16.9-7.8,20.6c-13.2,7.4-27.1,8.9-41.7,6.5c-2.4-0.4-4.8,0-7.2-0.6
		c-4.2-1.1-6.6-2.7-4.4-7.4c7.3,1.8,14.8,3.6,22.4,3.4c10.9-0.3,21-3.2,29.8-10.1c5.1-4,4.5-14.8-1.3-18.9
		c-5.7-4.1-11.7-5.2-18.4-2.6c-7.8,3-15.9,5.5-23.7,8.5c-2.2,0.9-3.3,0.3-4.6-1.2c-1.8-2.1,0.5-3.1,1.5-3.8
		c4.6-3.2,9.8-5.2,15.3-6.2c-1.1,4.3-5.4,2.9-8.1,4.8c6.6-2.3,13.1-4.9,20-5.6c6-0.7,12.1-1,17.5,2.2c7.8,4.5,10.2,11.7,7.9,21.1
		C803.5,554.9,801.2,550.2,803.7,546.8z"/>
	<path class="st7" d="M696.4,550.7c-20.8,1.4-41.8,2.1-62.2,6.9c-1.2,0.3-2.5,0.7-3.7,1.2c-2.4,0.9-4.5,2.6-4.3,5.2
		c0.2,3.1,2.9,3.4,5.5,3.5c0.4,0,0.8,0.5,1.2,0.7c-9.2,0.7-18.3,1.6-27.5,2c-7.4,0.3-8.4-1.1-6.7-8.1c1.6-6.7,2.1-7.2,11-7.5
		c15.2-0.4,30.2-2.6,45.4-3.2c12.6-0.5,25.1-1.8,37.7-1.7C694,549.8,695.4,549.5,696.4,550.7z"/>
	<path class="st2" d="M628.1,434.5c9.3-10.4,57.2-13.2,68-4C673.3,430.6,651.1,435,628.1,434.5z"/>
	<path class="st8" d="M803.7,546.8c0.2,5.7,0.3,11.4-5.8,15.6c0.7-2.4,1.1-4.3,1.9-6.1c4.1-9.5-4.9-21.3-16.4-21.2
		c-7,0-13.7,1.3-20.4,3.3c-3,0.9-6.1,1.8-9.9,3c3.1-3.9,7.8-3.4,10.5-6.3c5-2.4,10.4-3.3,15.7-4.5
		C789.9,528.3,802.3,536.6,803.7,546.8z"/>
	<path class="st9" d="M744.4,539.8c-2.4,3.1-2.5,5.8-0.1,8.9c1.1,1.5-0.9,2.2-2.1,1.9c-6.6-1.4-13.4-1.8-19.6-4.5
		c-1.2-0.5-2.5-1-2.6-2.5c-0.1-1.7,1.1-2.8,2.4-3.4c5.7-2.8,12.1-3,18.2-4.1C742.6,535.9,743.6,537.9,744.4,539.8z"/>
	<path class="st4" d="M633.8,540.2c-5.7,1.7-11.7,1.6-17.4,3.5c-2,0.7-4.8,0.7-4.7,3.2c0.1,2.5,2.8,3.3,5,3.8
		c1.1,0.3,2.3,0.1,3.4,0.2c-3.3,1.8-6.9,0.4-10.4,0.8c-0.8,0.1-1.6,0-2.4,0c-2.1,0.2-5,2.4-6.2,0.1c-1-1.9,0.1-4.9,0.5-7.4
		c0.4-2.5,3.1-2,4.4-2.1C615.3,542,624.5,539.7,633.8,540.2z"/>
	<path class="st1" d="M706.6,380.3c-1.5,3.6-2,6.9-0.6,10.3c1,2.3-0.1,3.3-2.3,4c-15.3,4.6-25.3-9.1-22.1-21.9
		c1.1-4.5,1.6-9.3,3.3-13.5c2.6-6.7,0.8-12.4-1.8-18.5c-1.7-4.1-3-8.2-1.8-13c2-7.5,7-11.4,13.9-13.2c11-2.8,21.7-6.5,32-11.5
		c9.9-4.9,18.7-0.4,26.7,4.5c11,6.9,18,17.3,21.6,29.8c4.3,14.6,0.3,27.4-8.1,39.4c-5.1,7.3-11.5,11.2-20.6,11.1
		c-4,0-7.5,2.8-11,4.5c-9.2,4.6-22.6,0.2-27.5-9C707.7,382.4,707.2,381.5,706.6,380.3z"/>
	<path class="st10" d="M471.5,138.5c5.1-3.3,9.4-1.6,12.9,1c4.7,3.4,5.7,8.9,4.5,14.3c-0.7,3.2-0.7,8.3-5.2,8
		c-4.2-0.3-4-4.9-4.4-8.5C478.8,147.7,477.3,142.2,471.5,138.5z"/>
	<path class="st11" d="M515,139.8c4.3,1,6.4,3.6,8.1,6.1c3.1,4.6,5.9,9.5,8.3,14.5c1.5,3.1,0.8,5.7-1.7,7.1c-3,1.6-4.5-1.1-5.8-3.5
		c-0.9-1.7-1.3-3.6-1.7-5.4C520.6,152.4,519.1,146,515,139.8z"/>
	<path class="st12" d="M507,272.7c-0.4,14.8-1.6,27.3-5.2,39.4c-1.8,6-5,11.6-9.9,15.8c-5.6,4.8-14.4,3.9-20.7-1.7
		c-7.9-7.1-12.7-16.2-17-25.6c-5.3-11.5-10.3-23.2-13-35.7c-1.8-8.4-3.7-16.9-1.8-25.7c1.2-5.5,4.4-9.6,8.1-13.4
		c10-10.3,34.3-13.8,45.6-8.2c7.5,3.7,9.3,10.4,10.6,17.3c1.2,6.6,2,13.4,2,20.1C505.7,261.8,507.7,268.3,507,272.7z"/>
	<path class="st12" d="M509.9,272.5c0.4-15.5,2.4-30.7,5.9-45.8c0.7-3.2,2.3-6.7,6.4-6.9c5.4-0.3,9.3,2.5,11.9,6.9
		c4.8,8.1,5.3,16.7,4.2,26.1c-1.6,13.3-3.7,26.4-7.2,39.2c-2.8,10.2-6,20.4-11.4,29.7c-0.9,1.6-1.6,3.4-3.7,3.4
		c-2,0-2.7-1.9-3.7-3.3c-1.9-2.7-2.3-5.9-2.4-8.7c-0.5-11.3-1.9-22.6-1.1-34c0-0.6,0.5-1.1,0.8-1.7c1.8,1.4,1.4,3.5,1.4,5.4
		c0,3.3,0.3,6.4,0.9,9.6c0.3,1.6,0.3,3.5,2.3,3.8c2.1,0.3,3.2-1.3,4-2.9c1.6-3.2,2.2-6.8,2.5-10.3c0.6-5.6,1.2-11.3-0.7-16.8
		c-0.5-1.5-1.1-3.4-2.9-3.5c-1.7,0-2.4,1.9-3.5,3C511.9,267.7,513.1,271.4,509.9,272.5z"/>
	<path d="M509.9,272.5c1-2.7,1.7-5.6,3-8.1c0.8-1.6,2.1-3.6,4.2-3.6c2.6,0,3.4,2.4,4.1,4.2c2.2,6.2,1.7,12.7,0.8,19
		c-0.4,3.2-0.7,6.5-2.3,9.5c-1.3,2.3-2.6,4.8-5.7,4.2c-3-0.5-2.8-3.1-3.4-5.5c-1.2-5-0.4-9.9-1-14.9
		C509.7,275.7,509.8,274.1,509.9,272.5z"/>
	<path class="st12" d="M710.3,496.5c2.1,11.7,4.6,23.3,9.3,34.3c0.4,0.9,0.2,1.9-0.7,2.6c-1,0.9-1.9,0.7-3.1,0.3
		c-3.3-1.2-4.3-4-4.9-7C709.2,516.8,710.2,506.7,710.3,496.5z"/>
	<path class="st12" d="M641.3,446c13.1-0.4,26.1-2.2,39.2-1.7c11.8,0.5,23.5-1.6,35.4-1c5.1,0.3,8.8,4.4,7.8,9.1
		c-0.6,2.7-1.4,5.4-2.3,8.5c-5.3-5.7-11.3-10-19-11.2c-3.1-0.5-6.3-1.6-9.4-1.4c-10,0.5-20-1.7-30-1.1
		C655.7,447.8,648.6,445.3,641.3,446z"/>
	<path class="st12" d="M710.6,542.9c-13.4-1.4-26.7-1-40-2.5C684,540.3,697.4,538.9,710.6,542.9z"/>
	<path class="st13" d="M475,324.5c-9-9.7-15.7-20.8-20.8-33c-5.5-13.2-9-26.9-10.9-41.1c-2-15.3,10.2-30.2,26-31.6
		c5.1-0.4,10.2-2,15.3,0c1.6,0.6,3.3,1,4.8,2.7c-7,0.5-13.5,1.7-19.8,4.5c-11,4.8-15.6,19.2-14.6,28.5c1.4,12.9,3.9,25.5,7.7,37.9
		C466.2,303.2,470.3,313.9,475,324.5z"/>
	<path d="M490.3,273.2c-0.3,6.5-1.5,12.8-2.9,19.2c-0.6,2.9-2.9,3.9-5.1,4.4c-2.1,0.4-3.9-1.1-5.2-2.8c-4.8-6.3-5.5-21.6-1.4-28.5
		c1.8-3.1,4.8-4.6,8-5.6c2.2-0.7,3.6,0.9,4.6,2.7C490,265.9,490.6,269.4,490.3,273.2z"/>
	<path class="st13" d="M516,319.4c3.3-11.9,6.1-23.8,8.7-35.8c2.6-12.1,4.3-24.4,5.4-36.8c0.8-9-2.6-17.1-9.5-23.8
		c6.8,0,12,4.9,13.6,11.4c1.9,7.9,1,15.9-0.4,23.6c-2.3,13.1-4.3,26.4-8.4,39.2C522.9,304.9,519.6,312.2,516,319.4z"/>
	<path class="st12" d="M520.5,272.3c-0.3,1.7,1,4.4-2,4.9c-2.9,0.5-2.9-2.4-3.9-4c-0.6-0.9-1.1-1.9-1-3.1c0.2-2.9,1.2-6,4-6.2
		c2.6-0.2,1.9,3.4,2.8,5.3C520.8,270,520.5,271.1,520.5,272.3z"/>
	<path class="st14" d="M511.7,288.1c-0.2-1.6,0.1-3.9,1.7-4.4c2.3-0.7,2.4,2.1,3.2,3.4c1.3,2.2,1.6,4.5,0.3,6.8
		c-0.5,0.9-1.7,1.2-2.5,0.7C512,293.2,511.6,290.9,511.7,288.1z"/>
	<path class="st12" d="M488.3,271c-0.1,2.4,0.5,4.5-1.7,5.2c-2.2,0.8-3.3-1.2-4.3-2.5c-1.6-2.1-3.1-4.4-2.9-7.3
		c0.2-2.1,1.4-3.3,3.2-3.7c1.7-0.4,2.9,0.2,3.7,2.2C487.4,267.1,488.9,269.1,488.3,271z"/>
	<path class="st15" d="M475.6,285.9c-0.1-1.4,0-2.7,1.4-3.4c1.3-0.6,2,0.7,2.8,1.4c0.2,0.2,0.5,0.5,0.7,0.7c2.2,2.1,3.6,4.6,2.6,7.7
		c-0.3,0.9-1.2,1.9-2.2,1.1C478.3,291.6,475.9,289.4,475.6,285.9z"/>
</g>
</svg>
