<?xml version="1.0" encoding="utf-8"?>
<!-- Generator: Adobe Illustrator 23.0.1, SVG Export Plug-In . SVG Version: 6.00 Build 0)  -->
<svg version="1.1" id="Layer_4" xmlns="http://www.w3.org/2000/svg" xmlns:xlink="http://www.w3.org/1999/xlink" x="0px" y="0px"
	 viewBox="0 0 1000 1000" style="enable-background:new 0 0 1000 1000;" xml:space="preserve">
<style type="text/css">
	.st0{fill:#6E3720;}
	.st1{fill:#FB9A7A;}
	.st2{fill:#CBB89A;}
	.st3{fill:#E00000;}
	.st4{fill:#7F0000;}
	.st5{fill:none;}
	.st6{fill:#7898AB;}
	.st7{fill:#800000;}
	.st8{fill:#B0F3F2;}
	.st9{fill:#2B5260;}
	.st10{fill:#7F7F7F;}
	.st11{fill:#FEFEFE;}
	.st12{fill:#C0FEFE;}
	.st13{fill:#00407F;}
</style>
<g>
	<path class="st0" d="M636.6,403.4c-8.4,4.5-17.1,7.5-26.9,4.9c-1.6-0.4-3.4-0.2-5.1,0.8c-8.3,5.3-17.2,6.3-26.4,2.9
		c-3.5-1.3-6.8-0.6-9.8,0.3c-7.2,2.2-12.7-1-18.3-4.3c-4.6-2.8-8.8-6.2-13.1-11c0,2.6-0.1,4.2,0,5.7c0.7,14.3-0.7,28.5-1.2,42.7
		c-0.5,15.7-2.2,31.3-3.8,47c-0.8,8.2-2.8,16.3-3.7,24.5c-0.6,5.9,0.9,11.7,3.2,17.2c2.1,5.2,5.5,9.9,6.8,15.6
		c2.7,11.5-3.4,17.6-13,19.5c-18.6,3.9-37.7,2-56.6,2c-5,0-10.2-0.8-15.1-2.1c-11-2.8-17.4-15.1-11.1-27.6
		c4.2-8.3,6.3-16.8,5.3-25.8c-1-9.8-4.6-18.9-7.5-28.3c-4.9-16.3-9.6-32.8-11-50c-0.7-8-1.9-15.9-1.9-24c0.1-17-4.5-32.7-11.9-48
		c-11.8-24.3-23.6-48.6-31.6-74.5c-2.3-7.5-3-15.2-4.2-22.9c-1-6.5-1.8-13-2-19.6c-0.4-15.4,5.4-28.4,16-39.5
		c13-13.5,29.5-20,47.1-24.2c10.4-2.5,21.2-3.6,32-3c21.7,1.3,43.1,4.4,61.4,17.4c14.1,10.1,21.1,23.2,18.5,41.5
		c-2.5,17-6.8,33.5-11.4,49.9c-1.8,6.3-4.5,12.5-7.7,18.3c-2.4,4.4-2.9,8,0.1,12.1c0.7,0.9,0.9,2,1.5,3.2
		c4.2-5.9,9.6-10.2,15.6-13.8c9.7-5.8,19.9-7.1,30.6-3.7c7.6,2.5,15.3,3.1,23.2,2.9c13.2-0.4,22.6,5.2,27.9,17.6
		c0.8,1.9,0.2,4.2,1.9,5.8c1.5,1.9,1.3,4.2,1.1,6.4c-2.2,8.2,0.3,15.7,3.7,22.9c2.3,5,4.4,10,6,15.3c0.3,2,0.9,4,1,6.1
		c0.1,4.5-1,8.6-3.2,12.5C641.5,398.8,640.2,402.3,636.6,403.4z"/>
	<path d="M808.6,547.9c-2.3-16.5-19.9-23-32.1-21.1c-8.9,1.4-16.9,5.4-25.2,8.7c-1.2,0.5-2.3,1.3-3.2-0.3c-2.8-4.6-6.7-4.8-11.2-3.2
		c-2.3,0.8-3.2-0.2-3.9-2.5c-4.5-14.7-8.4-29.6-11.4-44.7c-0.4-1.9,0-2.3,1.8-2.8c3-0.8,6.4-1.2,8.2-4.2
		c6.8-11.6,11.2-23.8,7.1-37.4c-1.5-5.1-4.3-9.1-10.6-10.1c-3.4-0.5-6.7-0.5-10-0.6c-6.7-0.3-13.3,0.8-19.4-4.5
		c-5.5-4.6-13-6-20.1-7.3c-3.1-0.5-4.9-1.9-5.4-5.1c-1.4-9.9-2.9-19.8-4.3-29.6c-0.2-1.6,0.1-2.9,1.9-3.4c1.9-3.6,2.8-7.4,1.5-11.5
		c-0.2-0.2-0.3-0.3-0.5-0.3c0,0,0,0,0,0c-0.8-0.4-1.4,0.3-1.9,0.9c-3.4,4.7-8.3,6.1-13.7,7c-3.5,0.6-7.3-0.3-10.7,1.3
		c-0.3,0.2-0.7,0.4-1,0.6c0.3,2,0.6,4,1,5.9c0.4,0.3,0.8,0.5,1.2,0.7c2.6,1.2,5.5,0.6,8.2,0.4c5.7-0.5,5.9-0.4,6.7,5.4
		c0.9,6.1,1.7,12.2,2.6,18.3c1.2,8.1,1,8.2-6.9,9c-2.3,0.2-4.5,0.6-6.7,1c-3.6,0.6-5.1-0.8-5.5-4.3c-0.4-4.2-0.1-8.5-0.3-12.7
		c-0.1-1.8,0.4-4-1.6-5c-0.2-0.1-0.4-0.2-0.6-0.3c-2,2.3-4,4.7-6.1,7c0.4,2.4,0.4,4.7,0.9,7.1c0.7,3.6,0.8,7.6-0.3,11.1
		c-0.7,2.5-4.7,2.1-6.9,3.5c-1.2,0.7-2.5,1.4-3.5,2.4c-6.3,6.4-14,8.8-22.9,8.2c-5.2-0.3-10.4-0.1-15.6,0
		c-7.6,0.1-10.6,2.3-12.9,9.3c-2.3,6.9-1.7,14.2-0.9,21.1c0.9,7.6,3.2,15.4,12,18.3c1.6,0.5,1.1,1.6,1.5,2.6
		c4.7,11.6,4.8,23.9,5.6,36c0.9,13.8-1.7,27.3-4.8,40.7c-2.3,9.9,2.1,15.6,12.2,15.6c15,0,30-1.2,44.9-1.8c11.5-0.5,22.9,0,34.4,0.7
		c11.7,0.7,23.4,0.2,35.1,0.2c7.2,0,14.4,0.1,20.9-3.5c1.4-0.8,2.3,0.2,3.5,0.5c7.5,2.2,15.2,3.4,22.8,3.9
		c11.9,0.7,23.2-2.3,33.7-7.9C806.2,566,810.1,558.5,808.6,547.9z M744.9,554.6c1,0,2.2-0.6,3-1.3c9.4-9,22.1-10,33.5-14.1
		c4.2-1.5,11.4,3.5,13.3,8.1c1.3,3.4-1.7,9.8-5.7,12.2c-7.6,4.7-16.3,5.3-25.2,7c-6.1-1-12.7-2.1-19.2-3.3c-2.8-0.5-3.1-3.3-3.4-5.5
		C740.8,555.1,742.7,554.7,744.9,554.6z"/>
	<path class="st0" d="M670.8,379.9c0.3-3.9,0.7-7.9,1-11.8c-0.3-0.4-0.5-0.9-0.5-1.4c0-0.3,0-0.7,0.1-1c2.5-9,3.1-18,0.3-27
		c-1-5.2-1.5-10.4,0.5-15.5c3.8-9.8,10.9-16.4,20.8-19.5c9.5-2.9,18.9-5.6,28.1-9.5c16.1-6.8,30.4-1.6,43.1,8.9
		c4.7,3.9,9.6,7.8,13.2,13.2c5.2,7.8,7.6,16,8.8,25.2c1.6,11.9-0.7,22.9-6.4,33c-5.7,10-12.8,18.9-24.8,22.6c-3,0.9-5.2-1.2-7.9-0.2
		c-3.1,1.2-6.3,2.1-9.2,3.6c-4.7,2.5-9.3,3.9-14.6,1.9c-6.7-2.6-13-0.7-19.6,1.4c-13.6,4.5-25.4-1.7-30.9-14.2
		C671.6,386.6,671.5,383.2,670.8,379.9z"/>
	<path d="M496.1,141c-0.2,9.4-5.7,14-11.6,18.1c-5.7,4-11.8,6.8-18.6,8.4c-9,2.1-15.9-4.6-14-13.7c3.3-15.9,13.9-24.2,28.3-29.2
		c4.6-1.6,7.8,0.1,10.5,3.3C494.2,132.1,495.5,137.1,496.1,141z"/>
	<path d="M530.4,158.2c-7.9-0.3-15.8-1.1-23-4.8c-7.3-3.7-8.1-5.5-4.2-12.4c5.1-9.2,12.7-15.4,24.4-12.2c7.3,2,16.2,12.8,16.3,20.4
		c0.1,4.7-3.5,8.4-8.7,8.9C533.7,158.3,532,158.2,530.4,158.2z"/>
	<path d="M671.8,338.8c4.5,7.4,4.2,15.1,1.7,22.9c-0.6,1.8,0.2,4-1.5,5.4c-2.2-2-1.2-4.9-1.9-7.3c-0.3-0.9-0.4-1.9-0.5-2.9
		c-1.9-14-9.2-17.8-23.9-17.4c-3.6,0.1-7.2,2.1-10.9,0.3c0-2.3,0-4.6,0-6.9c8.4-1.6,16.9-2.7,25.4-0.8c3.6,0.8,6.1,3.7,9.1,5.7
		C670.1,338.4,670.7,339.2,671.8,338.8z"/>
	<path class="st1" d="M453.8,384.9c4.6-3.1,6.6-7.3,9.4-10.7c7.5-9.1,17.6-12.7,28.8-13.7c6.4-0.6,12.8-1.6,19.3-1.2
		c2.4,0.2,3.8,0.8,4.9,3c4.6,9.1,6.7,18.9,8.3,28.9c1.7,10,2.2,19.9,1.8,29.9c-0.8,19.5-2.3,39-3.1,58.5c-0.4,10.9-2,21.7-3.5,32.5
		c-1.5,11.2,1.2,22,6.6,32.1c5.4,10.1,3.7,13.7-7.4,16.4c-15.7,3.8-31.6,3.3-47.6,1.9c-4.5-0.4-8.9-1.1-13.3-2.1
		c-8.4-2-10.7-6.6-6.9-14.5c3-6.2,5.7-12.4,7.1-19.3c1.5-7.4-0.5-14-1.8-20.9c-4-21.7-12.3-42.4-16.3-64.1c-1.5-8-2.6-16.3-2.6-24.4
		c-0.1-19.8-4.9-38.6-13.6-56.1c-12.4-24.9-23.2-50.4-31.8-76.8c-2.6-8.1-3.4-16.6-4.7-25c-1.5-9.5-0.6-18.6,2.2-27.6
		c2.3-7.6,6.7-13.9,12.9-19.2c13.5-11.7,30-16.3,46.5-20.9c10.5-2.9,21.5-1.6,32.3-0.2c9,1.2,18.1,1.9,26.9,4.6
		c13,4,24.2,10.6,32,21.7c4.4,6.2,4.4,14.1,3.5,21.5c-1.3,11.4-2.5,22.9-5.8,34c-3.3,11.3-5.5,23.2-11.9,33.4
		c-3.5,5.5-3.5,10.7-1.3,16.2c2.7,6.7,3.5,12.9-1.9,18.8c-4.7,5.1-10.4,7.4-17.4,8c-13,1.1-26.4,1.5-37.7,9.6
		C459.4,365.4,455.8,374.2,453.8,384.9z"/>
	<path class="st1" d="M609.9,385.4c-2.3,10.5-10.1,18.3-19.4,19.8c-3.8,0.6-7.3-0.6-10.6-2.5c-2.4-1.3-5-2.2-7.4-0.9
		c-7.5,3.9-13.6,1.4-19.8-3.3c-8.5-6.5-15.8-13.8-18.1-24.6c-2.9-13.9-0.1-27,6.4-39.4c5.1-9.8,12.4-16.7,23.6-18.7
		c8.5-1.5,16.6,1.3,24.7,2.9c1.8,0.3,3.7,1.1,5.2,0.5c4.4-1.6,8.6-0.4,12.8,0.1c12.4,1.5,19.4,11.6,16.8,24.3
		c-1.2,5.9-1.1,11.5,2.3,17c3.6,5.8,6.2,12.2,7.8,19.1c2.6,11.2-6.1,21.8-17.6,20.6c-2.6-0.3-4.9-1.1-4.4-4.8
		C612.6,392.3,611.4,389.2,609.9,385.4z"/>
	<path class="st2" d="M634.8,339.9c7-0.9,13.8-2.8,21.2-1.1c10.5,2.5,12.6,7.2,14.8,16.5c0.9,3.8,0.8,7.9,1.2,11.9
		c-0.1,0.3-0.1,0.7-0.2,1c-2.6,6.1-7.8,8-13.9,8.9c-4.5,0.7-8.9,1-13.4,0.9c-2.5-9.4-8.4-17.5-10.2-27.2
		C633.6,347,633.1,343.4,634.8,339.9z"/>
	<path class="st2" d="M645.5,383.8c4.1-0.3,8.3,0.4,12.5-0.9c2.1-0.7,3.8-0.4,4.3,3.1c1.3,8.6,2.8,17.2,3.6,25.9
		c0.5,5.8-0.5,7-6.6,6.9c-3,0-5.7,1.6-8.5,1c-2.2-0.4-4.6,2.4-5.8,0.5c-1.3-2.1-1.4-5.2-1.5-7.8c-0.2-4.7-0.1-9.4-0.1-14.1
		c0-0.8,0-1.6-0.9-2C643.8,392.2,645.9,388.3,645.5,383.8z"/>
	<path class="st3" d="M711,484.3c3.5,14,7.1,27.9,10.6,41.9c0.2,0.8,0.4,1.6,0.6,2.3c2.1,6.8,1.6,7.7-5.7,7.6
		c-12.3-0.1-24.5-0.7-36.8-1.1c-10.5-0.2-21.1-0.1-31.6,0.3c-11,0.5-22,0.8-33,2.1c-6.7,0.8-9.7-2.8-8.8-9.4
		c0.7-5.2,1.7-10.3,3.5-15.2c4.5-12.5,14.1-19.2,26.5-22.2c13.9-3.3,28-5.4,42.4-5.9c8.1-0.3,16.2-0.5,24.3-1.5
		C705.8,482.9,708.6,482.5,711,484.3z"/>
	<path class="st3" d="M605.5,444.5c22.2-1.9,44.6-1.5,66.8-2.3c14.6-0.6,29.1-0.4,43.7-0.7c10.1-0.2,12.7,2.2,10.8,12.9
		c-0.9,4.8-2.1,9.2-4.1,13.7c-1.4,3.3-3.7,4.5-6.8,3.7c-6.4-1.8-13.2,0.2-19.6-2c-13.8-2-27.8-1.7-41.6-3.4c-16.1-1.9-32,0.9-48,1.8
		c-4.3,0.3-8.4,0.2-12.3-1.9c-4.4-2.4-6.5-6.6-5.8-11.3c0.7-4.8,3.9-8.2,8.7-9.4C600.1,444.7,602.9,445.2,605.5,444.5z"/>
	<path class="st4" d="M711,484.3c-16.8,1-33.6,1.4-50.3,3.3c-10.5,1.2-21.1,2.9-31.1,6.7c-13.6,5.2-18.9,16.3-21.3,29.5
		c-0.2,1-0.1,2-0.3,2.9c-1.7,8,0.3,10.3,8.7,9.4c13.5-1.4,27.1-2,40.7-1.9c5.9,0,11.7,0,17.6,0c1.6,0,3.3-0.5,4.6,0.8
		c-16,0.7-32,1.2-47.9,2.2c-9.1,0.5-18.2,1.8-27.3,2.7c-1.6,0.2-3,0.1-2.7-2.2c2.1-13.9,0-27.7-2.6-41.3
		c-2.2-11.5-2.5-11.2,8.6-13.2c14-2.4,28-3.9,42.1-5c16.7-1.3,33.1,0.3,49.6,2c3,0.3,6.1,0.7,9.1,1C710.7,481.6,711,482.7,711,484.3
		z"/>
	<path class="st3" d="M696.4,550.7c3.7,0,7.5,0.4,11.2,0c7.1-0.6,13.7,1.3,20.4,3c2.8,0.7,3.5,3,3.4,5.1c-0.2,3.3-0.6,6.9-4.4,8.3
		c-5,1.8-10.4,1.8-15.7,2c-11.5,0.4-23.2,0.9-34.6-0.1c-14.6-1.2-29.2-0.2-43.8-0.9c-0.5-0.2-0.9-0.4-1.4-0.3
		c-2.7,0-5.5,0.1-6.1-3.3c-0.6-3.2,1.4-5.2,3.9-6.6c3.7-2.1,8-2.7,12.1-3.4c17.3-2.9,34.7-3.6,52.2-4.3
		C694.5,550.3,695.5,550.2,696.4,550.7z"/>
	<path class="st5" d="M789.1,559.6c-7.6,4.7-16.3,5.3-25.2,7c-6.1-1-12.7-2.1-19.2-3.3c-2.8-0.5-3.1-3.3-3.4-5.5
		c-0.4-2.7,1.4-3.1,3.7-3.2c1,0,2.2-0.6,3-1.3c9.4-9,22.1-10,33.5-14.1c4.2-1.5,11.4,3.5,13.3,8.1
		C796.1,550.7,793,557.1,789.1,559.6z"/>
	<path class="st3" d="M633.8,540.2c27.2-1.4,54.4-3.4,81.8-1.1c-1.1,4.7-1.1,4.7,0.7,9.8c-7.6-0.4-15.1-0.5-22.5-1.3
		c-7.6-0.8-15.1-1.1-22.6,0.1c-4.8,0.7-9.6,0.5-14.4,1c-12.2,1.2-24.4,1.6-36.7,2.3c-5.7,0.7-9-0.6-9.3-3.6
		c-0.3-2.7,2.5-4.6,8.1-5.3C623.9,541.4,628.9,540.5,633.8,540.2z"/>
	<path class="st4" d="M605.5,444.5c-2,1.7-4.6,0.9-6.9,1.6c-7.8,2.2-9.2,7.7-8.7,12.1c0.5,4.6,5.5,8.6,11.5,8.6
		c6.6,0,13.2-0.6,19.8-1.1c9.9-0.6,19.7-2.3,29.8-1.1c8.8,1,17.6,1.5,26.4,2.4c6.3,0.6,12.9,0.2,18.9,2.7c-5.7,1-11.3-0.8-16.9-0.9
		c-18-0.3-35.9,0.8-53.8,2.2c-10.5,0.8-21,2.8-31.5,4.6c-6.2,1-10.5-2.8-11.1-10.2c-0.4-4.7,0.5-9.4,1.2-14c0.5-3.1,2.8-5.3,5.9-5.8
		C595.2,444.6,600.3,443.8,605.5,444.5z"/>
	<path class="st6" d="M803.7,546.8c4.6,7.2-1.1,16.9-7.8,20.6c-13.2,7.4-27.1,8.9-41.7,6.5c-2.4-0.4-4.8,0-7.2-0.6
		c-4.2-1.1-6.6-2.7-4.4-7.4c7.3,1.8,14.8,3.6,22.4,3.4c10.9-0.3,21-3.2,29.8-10.1c5.1-4,4.5-14.8-1.3-18.9
		c-5.7-4.1-11.7-5.2-18.4-2.6c-7.8,3-15.9,5.5-23.7,8.5c-2.2,0.9-3.3,0.3-4.6-1.2c-1.8-2.1,0.5-3.1,1.5-3.8
		c4.6-3.2,9.8-5.2,15.3-6.2c-1.1,4.3-5.4,2.9-8.1,4.8c6.6-2.3,13.1-4.9,20-5.6c6-0.7,12.1-1,17.5,2.2c7.8,4.5,10.2,11.7,7.9,21.1
		C803.5,554.9,801.2,550.2,803.7,546.8z"/>
	<path class="st7" d="M696.4,550.7c-20.8,1.4-41.8,2.1-62.2,6.9c-1.2,0.3-2.5,0.7-3.7,1.2c-2.4,0.9-4.5,2.6-4.3,5.2
		c0.2,3.1,2.9,3.4,5.5,3.5c0.4,0,0.8,0.5,1.2,0.7c-9.2,0.7-18.3,1.6-27.5,2c-7.4,0.3-8.4-1.1-6.7-8.1c1.6-6.7,2.1-7.2,11-7.5
		c15.2-0.4,30.2-2.6,45.4-3.2c12.6-0.5,25.1-1.8,37.7-1.7C694,549.8,695.4,549.5,696.4,550.7z"/>
	<path class="st2" d="M697,430.9c-13.1-1.1-24.7,1.1-36.4,1.9c-10.7,0.7-21.4,1.9-32.3,1.8C635.8,424.5,683.8,421.4,697,430.9z"/>
	<path class="st8" d="M803.7,546.8c0.2,5.7,0.3,11.4-5.8,15.6c0.7-2.4,1.1-4.3,1.9-6.1c4.1-9.5-4.9-21.3-16.4-21.2
		c-7,0-13.7,1.3-20.4,3.3c-3,0.9-6.1,1.8-9.9,3c3.1-3.9,7.8-3.4,10.5-6.3c5-2.4,10.4-3.3,15.7-4.5
		C789.9,528.3,802.3,536.6,803.7,546.8z"/>
	<path class="st9" d="M739.8,536c2.8,0.7,5.5,1.7,3.7,5.2c-1.3,2.5-1.4,4.6,0.3,6.7c1.8,2.3,0.2,3.1-1.6,2.8
		c-6.4-1.2-13-1.9-19.2-4.2c-1.3-0.5-2.9-0.9-3.1-2.7c-0.2-1.9,1.3-2.9,2.7-3.6C728,537.4,734.2,537.9,739.8,536z"/>
	<path class="st4" d="M633.8,540.2c-5.7,1.7-11.7,1.6-17.4,3.5c-2,0.7-4.8,0.7-4.7,3.2c0.1,2.5,2.8,3.3,5,3.8
		c1.1,0.3,2.3,0.1,3.4,0.2c-3.3,1.8-6.9,0.4-10.4,0.8c-0.8,0.1-1.6,0-2.4,0c-2.1,0.2-5,2.4-6.2,0.1c-1-1.9,0.1-4.9,0.5-7.4
		c0.4-2.5,3.1-2,4.4-2.1C615.3,542,624.5,539.7,633.8,540.2z"/>
	<path class="st1" d="M706.6,380.3c-1.5,3.8-1.8,7.3-0.5,10.7c0.9,2.3-0.4,2.9-2.3,3.5c-15.2,4.6-25.3-8.9-22.2-21.8
		c1.1-4.5,1.5-9.3,3.2-13.5c2.7-6.7,0.8-12.4-1.7-18.5c-1.7-4.1-3-8.2-1.8-13c1.9-7.5,7-11.5,13.9-13.3c11-2.8,21.7-6.5,32-11.5
		c9.9-4.9,18.7-0.5,26.7,4.5c10.9,6.8,17.9,17,21.6,29.3c4.5,14.9,0.5,28-8.3,40.3c-5.1,7.1-11.4,10.8-20.3,10.8
		c-3.8,0-7.2,2.6-10.6,4.3c-9.9,4.9-23,0.6-28.2-9.1C707.6,382.2,707.2,381.4,706.6,380.3z"/>
	<path class="st10" d="M474.8,131.4c8.3-6.3,16-2.2,17.4,9c0.2,1.4,0.1,2.9,0,4.4c-0.1,1.9-1.3,3-2.9,3.5c-1.7,0.6-2.8-0.8-3.5-2
		c-1-1.6-1.7-3.4-2.4-5.2C481.7,136.8,479.5,133,474.8,131.4z"/>
	<path class="st10" d="M517.8,132.2c9.6-1.2,19.6,8,22.1,16.3c0.3,1,0.3,2.3-0.7,3.1c-1.2,1.1-2.2,0.5-3.5,0c-2.2-0.9-4-2.6-5-4.4
		C527.9,141.4,524.6,136.1,517.8,132.2z"/>
	<path class="st11" d="M505.1,263.1c-0.5,18.2-1.3,33.1-7.1,47.2c-1.6,3.9-3.7,7.5-6.8,10.5c-5.9,5.8-10.8,5.3-17.6,1.8
		c-5.6-2.9-9.1-8.1-12-13.6c-9-17-17.2-34.2-20.8-53.3c-1.7-8.8-3.6-17.6-1.5-26.8c2-8.7,8.1-13.7,15.1-17.9
		c10.6-6.4,21.8-9.1,34.1-5.1c6.9,2.2,10.2,7.2,12.4,13.6c2.2,6.4,2.4,13.1,2.6,19.5C503.9,248.2,505.6,257.2,505.1,263.1z"/>
	<path class="st11" d="M507.7,283.7c0.1-22.1,1.6-44.1,6.7-65.7c0.9-3.9,1.5-7.7,6.1-8.9c3.3-0.8,9.4,2.7,11.6,6.7
		c4.5,8,5.4,16.3,4.3,25.6c-1.4,11.5-3,22.9-5.4,34.2c-2.8,13-6.6,25.8-12.2,38c-1.1,2.3-1.8,6.3-5.2,5.4c-3.6-0.9-4.4-4.8-5-8.2
		C507.4,301.8,507.9,292.8,507.7,283.7z"/>
	<path class="st11" d="M710.3,496.5c2,11.6,4.7,23,9,33.9c0.5,1.2,0.5,2.1-0.5,3c-1,0.9-1.9,0.7-3.1,0.3c-3.3-1.2-4.3-4-4.8-7
		C709.2,516.8,710.2,506.7,710.3,496.5z"/>
	<path class="st11" d="M721.3,461.2c-9-11.2-21.3-12.5-33.9-13c-15.4-0.6-30.8-1.4-46.2-2.5c9.6,0.3,19.1-1.9,28.8-1.4
		c15.4,0.7,30.7-1.4,46.1-1c4.7,0.1,8.2,3.8,7.6,8.3C723.2,454.7,722.2,457.6,721.3,461.2z"/>
	<path class="st11" d="M670.6,540.3c12.3-0.1,24.6-0.8,37,0.7c1.2,0.1,2.8,0.8,2.8,1.6c0,1.2-1.6,1.5-2.7,1.2
		C695.5,540.6,682.9,542.5,670.6,540.3z"/>
	<path class="st12" d="M488.7,210.5c-4.3,0.8-8.3,1.6-12.2,2.3c-12.8,2.3-18.8,10.7-21.4,22.7c-2.1,10,1.1,19.5,2.5,29.2
		c2.5,18.6,9.4,35.8,17.6,54c-5-3.5-8-7.3-10.1-11.1c-10.7-19.6-19.3-39.9-21.8-62.4c-0.4-4-1-8-0.6-12.1c1.1-10.3,6.6-17,16.1-20.5
		c8-3,15.7-7,24.7-4.5C485.2,208.5,486.8,209.1,488.7,210.5z"/>
	<path d="M488.3,266c-0.2,6.5-1.5,12.8-2.8,19.2c-0.6,3-2.7,4.1-4.9,4.6c-2.4,0.6-4.7-1.2-5.8-3.4c-4.7-8.8-5.4-17.8-1.3-27.2
		c1.6-3.7,4.8-5,8-6.3c2.3-0.9,3.9,0.8,4.9,2.8C487.9,259.1,488.8,262.4,488.3,266z"/>
	<path class="st12" d="M514.4,310.4c1.3-4.4,2.7-8.9,3.9-13.3c3.9-14.5,6.3-29.3,8.2-44.1c0.6-5,1-10,1.4-14.9
		c0.9-9.2-1.3-18-8.5-24.7c7.8-1.2,10.6,4.5,12.7,11.4c2.2,7.1,0.6,14.1-0.2,21.2c-1.7,15.7-4.4,31.3-9.6,46.3
		c-2.2,6.2-4.5,12.4-6.8,18.6C515.2,310.6,514.8,310.5,514.4,310.4z"/>
	<path d="M508.8,274.2c-0.1-5.6,0-11.1,2.9-16.1c1.1-2,2.3-4.2,4.8-4c2.3,0.2,3.3,2.6,3.8,4.5c2.4,9.6,1.5,19.2-1.8,28.5
		c-0.9,2.4-2.7,4.7-5.8,4c-2.5-0.6-2.6-3-3.1-5.3C508.8,281.8,508.9,278,508.8,274.2z"/>
	<path class="st11" d="M486.3,264.4c0,2.1,0.6,4.2-1.5,5c-2.3,0.9-3.8-1.3-4.6-2.7c-1.6-2.7-4.2-5.5-1.9-9.1c1-1.5,2.9-2.5,4.2-1.5
		C485.2,258.1,486.7,261.1,486.3,264.4z"/>
	<path class="st13" d="M481.5,283.5c0.1,1.4-0.1,2.8-1.4,3.3c-1.3,0.5-2-0.8-2.8-1.5c-0.2-0.2-0.5-0.5-0.7-0.7
		c-2.2-2.1-3.6-4.6-2.6-7.7c0.3-0.9,1.2-1.8,2.2-1.1C478.8,277.8,481.2,279.9,481.5,283.5z"/>
	<path class="st11" d="M519.5,265.5c-0.3,1.7,1,4.4-2,4.9c-2.9,0.5-2.9-2.4-3.9-4c-0.6-0.9-1.1-1.9-1-3.1c0.2-2.9,1.2-6,4-6.2
		c2.6-0.2,1.9,3.4,2.8,5.3C519.8,263.2,519.5,264.3,519.5,265.5z"/>
	<path class="st13" d="M510.7,281.3c-0.2-1.6,0.1-3.9,1.6-4.4c2.3-0.7,2.2,2.1,3.2,3.4c0.1,0.1,0.1,0.3,0.2,0.5
		c1.1,2.1,1.3,4.3,0.1,6.4c-0.5,0.9-1.7,1.2-2.5,0.7C511,286.4,510.7,284,510.7,281.3z"/>
</g>
</svg>
