<?xml version="1.0" encoding="utf-8"?>
<!-- Generator: Adobe Illustrator 23.0.1, SVG Export Plug-In . SVG Version: 6.00 Build 0)  -->
<svg version="1.1" id="Layer_4" xmlns="http://www.w3.org/2000/svg" xmlns:xlink="http://www.w3.org/1999/xlink" x="0px" y="0px"
	 viewBox="0 0 1000 1000" style="enable-background:new 0 0 1000 1000;" xml:space="preserve">
<style type="text/css">
	.st0{fill:#6E3720;}
	.st1{fill:#FB9A7A;}
	.st2{fill:#CBB89A;}
	.st3{fill:none;}
	.st4{fill:#E00000;}
	.st5{fill:#7F0000;}
	.st6{fill:#7898AB;}
	.st7{fill:#800000;}
	.st8{fill:#B0F3F2;}
	.st9{fill:#2B5260;}
	.st10{fill:#7F7F7F;}
	.st11{fill:#FEFEFE;}
	.st12{fill:#C0FEFE;}
	.st13{fill:#004080;}
	.st14{fill:#00407F;}
</style>
<g>
	<path class="st0" d="M646.8,383.8L646.8,383.8c-0.1-2-0.7-3.9-1-5.8c0-0.1,0-0.2,0-0.3c0-0.1-0.1-0.2-0.1-0.3
		c-1.6-5.2-3.6-10.1-5.9-15c-3.3-7-5.8-14.2-4-22.1c0-0.2,0.1-0.3,0.1-0.5c0-0.1,0.1-0.2,0.1-0.4c0.2-2.2,0.4-4.5-1.1-6.4
		c-1.7-1.4-1-3.6-1.8-5.3c-5-12.5-14.2-18.3-27.5-18c-8,0.2-15.9-0.4-23.7-2.8c-14.1-4.4-26.4-0.8-37.6,8.6c-3.5,3-6.4,6.5-9.9,10.1
		c-0.1-1.5,0-2.3-0.2-3.1c-1.5-5.3-4.7-10.4-5.3-15.5c-0.7-5.4,4.8-10,6.4-15.5c3.5-12.3,8.1-24.2,10.2-36.9
		c2.1-12.8,3.7-25.6,4.4-38.5c0.2-3.6-0.8-7.2-1.9-10.7c-3-9.7-9.6-16.8-17.4-22.8c-6.3-4.8-13.3-9.3-20.8-11.2
		c-18.3-4.5-36.8-7.5-55.9-5.3c-17.1,1.9-32.7,7.3-46.8,16.9c-11.6,7.9-20.3,18.6-24.5,32.1c-3.3,10.4-3.9,21.1-2.8,32.2
		c1.2,11.5,2.3,22.9,5.5,33.9c8,26.6,18.7,52.2,30.4,77.5c7.7,16.6,12.1,34.1,12.2,52.5c0.1,8.9,1.1,17.6,1.9,26.4
		c1.6,18.3,6.6,35.8,12,53.1c2.6,8.5,5.6,16.9,6.5,25.7c0.9,8.9-1.1,17.2-5.3,25.3c-6.4,12.5-0.1,24.8,11,27.7
		c4.9,1.3,10.1,2.1,15.1,2.1c18.9-0.1,38,1.8,56.6-2c9.7-2,15.7-8.1,13-19.5c-1.3-5.7-4.7-10.3-6.8-15.6c-2.3-5.5-3.8-11.3-3.2-17.2
		c0.8-8.2,2.8-16.3,3.7-24.5c1.6-15.6,3.3-31.3,3.8-47c0.4-14.2,1.9-28.5,1.2-42.7c-0.1-1.5,0-3.1,0-5.7c4.3,4.8,8.5,8.2,13,11
		c5.5,3.3,11.1,6.6,18.3,4.4c3-0.9,6.3-1.6,9.8-0.3c9.2,3.4,18.1,2.4,26.4-2.9c1.6-1,3.5-1.3,5.1-0.8c9.8,2.6,18.5-0.3,26.9-4.9
		c3.4-1,4.7-4.1,6.6-6.6c0-0.1,0.1-0.1,0.1-0.1c0.1-0.1,0.2-0.3,0.3-0.4c2-3.7,3.1-7.6,3.2-11.7C646.8,384.3,646.8,384,646.8,383.8z
		 M523,353c-3-3.7-0.6-6.2,2.5-9.2C524.6,347.3,523.8,350.2,523,353z"/>
	<path d="M808.6,547.9c-2.3-16.5-19.9-23-32.1-21.1c-8.9,1.4-16.9,5.4-25.2,8.7c-1.2,0.5-2.3,1.3-3.2-0.3c-2.8-4.6-6.7-4.8-11.2-3.2
		c-2.3,0.8-3.2-0.2-3.9-2.5c-4.5-14.7-8.4-29.6-11.4-44.7c-0.4-1.9,0-2.3,1.8-2.8c3-0.8,6.4-1.2,8.2-4.2
		c6.8-11.6,11.2-23.8,7.1-37.4c-1.5-5.1-4.3-9.1-10.6-10.1c-3.4-0.5-6.7-0.5-10-0.6c-6.7-0.3-13.3,0.8-19.4-4.5
		c-5.5-4.6-13-6-20.1-7.3c-3.1-0.5-4.9-1.9-5.4-5c-1.4-9.9-2.9-19.8-4.3-29.6c-0.2-1.6,0.1-2.9,1.9-3.4c1.9-3.6,2.8-7.4,1.5-11.5
		c-0.2-0.2-0.3-0.3-0.5-0.3c0,0,0,0,0,0c-0.8-0.4-1.4,0.3-1.9,0.9c-3.4,4.7-8.3,6.1-13.7,7c-3.5,0.6-7.3-0.3-10.7,1.3
		c-0.3,0.2-0.7,0.4-1,0.6c0.3,2,0.6,4,1,5.9c0.4,0.3,0.8,0.5,1.2,0.7c2.6,1.2,5.5,0.6,8.2,0.4c5.7-0.5,5.9-0.4,6.7,5.4
		c0.9,6.1,1.7,12.2,2.6,18.3c1.2,8.1,1,8.2-6.9,9c-2.3,0.2-4.5,0.6-6.7,1c-3.6,0.6-5.1-0.8-5.5-4.3c-0.4-4.2-0.1-8.5-0.3-12.7
		c-0.1-1.8,0.4-4-1.6-5c-0.2-0.1-0.4-0.2-0.6-0.3c-2,2.3-4,4.7-6.1,7c0.4,2.4,0.4,4.7,0.9,7.1c0.7,3.6,0.8,7.6-0.3,11.1
		c-0.7,2.5-4.7,2.1-6.9,3.5c-1.2,0.7-2.5,1.4-3.5,2.4c-6.3,6.4-14,8.8-22.9,8.2c-5.2-0.3-10.4-0.1-15.6,0
		c-7.6,0.1-10.6,2.3-12.9,9.3c-2.3,6.9-1.7,14.2-0.9,21.1c0.9,7.6,3.2,15.4,12,18.3c1.6,0.5,1.1,1.6,1.5,2.6
		c4.7,11.6,4.8,23.9,5.6,36c0.9,13.8-1.7,27.3-4.8,40.7c-2.3,9.9,2.1,15.6,12.2,15.6c15.3,0.1,30.6-1.3,45.9-1.9
		c11.8-0.5,23.6,0.2,35.4,0.8c11,0.5,22.1,0.1,33.2,0.1c7.2,0,14.4,0.1,20.9-3.5c1.4-0.8,2.3,0.2,3.5,0.5c7.5,2.2,15.2,3.4,22.8,3.9
		c11.9,0.7,23.2-2.3,33.7-7.9C806.2,566,810.1,558.5,808.6,547.9z M744.6,554.6c1.2-0.1,2.6-0.6,3.4-1.4c9.5-8.8,22.1-10,33.6-14
		c4.3-1.5,11.5,3.6,13.2,8.3c1.3,3.5-1.8,9.6-5.8,12.1c-7.6,4.8-16.3,5.3-25,7c-6.4-1.1-12.9-2.1-19.4-3.4c-2.8-0.6-3-3.3-3.3-5.6
		C740.9,555.3,742.5,554.7,744.6,554.6z"/>
	<path class="st0" d="M670.8,379.9c0.3-3.9,0.7-7.9,1-11.8c-0.3-0.4-0.5-0.9-0.5-1.4c0-0.3,0-0.7,0.1-1c2.5-9,3.1-18,0.3-27
		c-1-5.2-1.5-10.4,0.5-15.5c3.8-9.8,10.9-16.4,20.8-19.5c9.5-2.9,18.9-5.6,28.1-9.5c16.1-6.8,30.4-1.6,43.1,8.9
		c4.7,3.9,9.6,7.8,13.2,13.2c5.2,7.8,7.6,16,8.8,25.2c1.6,11.9-0.7,22.9-6.4,33c-5.7,10-12.8,18.9-24.8,22.6c-3,0.9-5.2-1.2-7.9-0.2
		c-3.1,1.2-6.3,2.1-9.2,3.6c-4.7,2.5-9.3,3.9-14.6,1.9c-6.7-2.6-13-0.7-19.6,1.4c-13.6,4.5-25.4-1.7-30.9-14.2
		C671.6,386.6,671.5,383.2,670.8,379.9z"/>
	<path d="M472,152.3c-6.2,0.5-12.5-1.1-18.1-4.6c-9.9-6.1-10.1-14.2-1.3-20.4c10.4-7.4,22.4-9.8,35.1-7.2
		c7.3,1.5,11.9,9.1,10.1,16.3c-2.8,10.7-9.1,15.6-20.4,15.9C475.7,152.4,474.1,152.3,472,152.3z"/>
	<path d="M524.2,152.3c-4.2,0.2-8.2-0.9-12-2.3c-8.3-3-10.6-13-4.6-20.3c5.4-6.6,12.7-9.8,21.2-8.6c7.9,1.1,12.7,6.5,15.7,13.6
		c1.4,3.4-1.8,10.9-6,13.5C534.1,151.1,529.4,152.5,524.2,152.3z"/>
	<path d="M671.8,338.8c4.5,7.4,4.2,15.1,1.7,22.9c-0.6,1.8,0.2,4-1.5,5.4c-2.2-2-1.2-4.9-1.9-7.3c-0.3-0.9-0.4-1.9-0.5-2.9
		c-1.9-14-9.2-17.8-23.9-17.4c-3.6,0.1-7.2,2.1-10.9,0.3c0-2.3,0-4.6,0-6.9c8.4-1.6,16.9-2.7,25.4-0.8c3.6,0.8,6.1,3.7,9.1,5.7
		C670.1,338.4,670.7,339.2,671.8,338.8z"/>
	<path class="st1" d="M454,387.9c5.6-4.5,8.8-9.8,12.5-14.5c8-10.2,18.1-16,30.8-17.9c3-0.5,6.3-0.3,9-1.2c4.7-1.6,6,0.7,8,4.1
		c7.2,12.9,9.6,26.9,11.4,41.4c1.9,15.1-0.3,30.1-0.5,45.1c-0.2,11.3-1.2,22.5-1.9,33.8c-0.7,10.9-1.6,21.7-3.4,32.5
		c-1.6,9.4,0,19,4.1,27.8c1.2,2.6,2.7,5.1,3.8,7.8c3.1,7.1,0.8,11.9-6.8,13.7c-5.6,1.3-11.3,2.8-17,2.9c-15.3,0.2-30.7,1.2-45.8-2.7
		c-8.5-2.2-10.9-6.6-7-14.5c3.6-7.1,6.4-14.3,7.6-22.2c0.9-6.3-1.1-12.1-2.2-18.1c-4.1-21.7-12.1-42.4-16.3-64.1
		c-1.7-8.5-2.6-17.2-2.6-25.9c0.1-14.9-1.6-29.7-6.3-43.7c-4.2-12.4-10-24.4-15.8-36.1c-9.4-18.9-14.9-39.2-21.9-59
		c-4.2-11.9-6.2-24.3-6.7-36.7c-0.5-11.1,1.8-21.9,7.5-31.9c8.4-14.6,22.3-21.8,37-27.8c11.4-4.7,23.3-7.5,35.7-6.8
		c17.2,1,34.4,2.5,49.9,10.9c9.8,5.3,18.8,12.3,22.6,23.4c3,8.7,1.6,18,0.3,26.9c-2,14.1-4.6,28.1-8.5,41.8
		c-2.1,7.3-4.1,14.6-8.1,21c-3.5,5.7-3.5,10.8-1.3,16.7c1.2,3.3,2.2,6.8,2.3,10.2c0.2,6.7-3.9,10.9-9.2,14.3c-6,3.8-12.9,5-19.7,5.5
		c-19.4,1.6-29.9,10.8-37.8,29.4C455.8,378.1,454.5,382.3,454,387.9z"/>
	<path class="st1" d="M610.1,386.1c-3.3,9.2-8.1,16.5-18.2,18.8c-4.3,1-8-0.1-11.6-1.9c-2.6-1.3-5.2-2.4-7.8-1.1
		c-7.5,3.9-13.7,1.5-19.7-3.3c-7.5-6-14.5-12.1-17.3-21.9c-4.2-14.9-1.2-28.8,5.6-42.2c5-9.9,12.4-16.7,23.6-18.6
		c8.5-1.5,16.6,1.2,24.7,2.9c2.6,0.5,5,0.7,7.6,0.1c14-3.4,28.4,7.2,28,20.7c-0.1,1.7-0.4,3.5-1,5.2c-2.1,6.2-0.1,11.6,2.9,16.9
		c3.1,5.4,5.6,11.1,7,17.3c2.7,12.3-4.5,21.8-16.9,21.5c-2.8-0.1-5.3-0.9-4.9-4.9C612.6,392.2,611.4,389.2,610.1,386.1z"/>
	<path class="st2" d="M634.8,339.9c7-0.9,13.8-2.8,21.2-1.1c10.5,2.5,12.6,7.2,14.8,16.5c0.9,3.8,0.8,7.9,1.2,11.9
		c-0.1,0.3-0.1,0.7-0.2,1c-2.6,6.1-7.8,8-13.9,8.9c-4.5,0.7-8.9,1-13.4,0.9c-2.5-9.4-8.4-17.5-10.2-27.2
		C633.6,347,633.1,343.4,634.8,339.9z"/>
	<path class="st2" d="M645.5,383.8c4.1-0.3,8.3,0.4,12.5-0.9c2.1-0.7,3.8-0.4,4.3,3.1c1.3,8.6,2.8,17.2,3.6,25.9
		c0.5,5.8-0.5,7-6.6,6.9c-3,0-5.7,1.6-8.5,1c-2.2-0.4-4.6,2.4-5.8,0.5c-1.3-2.1-1.4-5.2-1.5-7.8c-0.2-4.7-0.1-9.4-0.1-14.1
		c0-0.8,0-1.6-0.9-2C643.8,392.2,645.9,388.3,645.5,383.8z"/>
	<path class="st3" d="M525.6,343.9c-0.9,3.4-1.7,6.3-2.5,9.2C520,349.4,522.4,346.8,525.6,343.9z"/>
	<path class="st4" d="M711,484.3c3.5,14,7.1,27.9,10.6,41.9c0.2,0.8,0.4,1.6,0.6,2.3c2.1,6.8,1.6,7.7-5.7,7.6
		c-12.3-0.1-24.5-0.7-36.8-1.1c-10.5-0.2-21.1-0.1-31.6,0.3c-11,0.5-22,0.8-33,2.1c-6.7,0.8-9.7-2.8-8.8-9.4
		c0.7-5.2,1.7-10.3,3.5-15.2c4.5-12.5,14.1-19.2,26.5-22.2c13.9-3.3,28-5.4,42.4-5.9c8.1-0.3,16.2-0.5,24.3-1.5
		C705.8,482.9,708.6,482.5,711,484.3z"/>
	<path class="st4" d="M605.5,444.5c22.2-1.9,44.6-1.5,66.8-2.3c14.6-0.6,29.1-0.4,43.7-0.7c10.1-0.2,12.7,2.2,10.8,12.9
		c-0.9,4.8-2.1,9.2-4.1,13.7c-1.4,3.3-3.7,4.5-6.8,3.7c-6.4-1.8-13.2,0.2-19.6-2c-13.8-2-27.8-1.7-41.6-3.4c-16.1-1.9-32,0.9-48,1.8
		c-4.3,0.3-8.4,0.2-12.3-1.9c-4.4-2.4-6.5-6.6-5.8-11.3c0.7-4.8,3.9-8.2,8.7-9.4C600.1,444.7,602.9,445.2,605.5,444.5z"/>
	<path class="st5" d="M711,484.3c-16.8,1-33.6,1.4-50.3,3.3c-10.5,1.2-21.1,2.9-31.1,6.7c-13.6,5.2-18.9,16.3-21.3,29.5
		c-0.2,1-0.1,2-0.3,2.9c-1.7,8,0.3,10.3,8.7,9.4c13.5-1.4,27.1-2,40.7-1.9c5.9,0,11.7,0,17.6,0c1.6,0,3.3-0.5,4.6,0.8
		c-16,0.7-32,1.2-47.9,2.2c-9.1,0.5-18.2,1.8-27.3,2.7c-1.6,0.2-3,0.1-2.7-2.2c2.1-13.9,0-27.7-2.6-41.3
		c-2.2-11.5-2.5-11.2,8.6-13.2c14-2.4,28-3.9,42.1-5c16.7-1.3,33.1,0.3,49.6,2c3,0.3,6.1,0.7,9.1,1C710.7,481.6,711,482.7,711,484.3
		z"/>
	<path class="st4" d="M696.4,550.7c3.7,0,7.5,0.4,11.2,0c7.1-0.6,13.7,1.3,20.4,3c2.8,0.7,3.5,3,3.4,5.1c-0.2,3.3-0.6,6.9-4.4,8.3
		c-5,1.8-10.4,1.8-15.7,2c-11.5,0.4-23.2,0.9-34.6-0.1c-14.6-1.2-29.2-0.2-43.8-0.9c-0.5-0.2-0.9-0.4-1.4-0.3
		c-2.7,0-5.5,0.1-6.1-3.3c-0.6-3.2,1.4-5.2,3.9-6.6c3.7-2.1,8-2.7,12.1-3.4c17.3-2.9,34.7-3.6,52.2-4.3
		C694.5,550.3,695.5,550.2,696.4,550.7z"/>
	<path class="st3" d="M789,559.6c-7.6,4.8-16.3,5.3-25,7c-6.4-1.1-12.9-2.1-19.4-3.4c-2.8-0.6-3-3.3-3.3-5.6c-0.3-2.4,1.3-2.9,3.3-3
		c1.2-0.1,2.6-0.6,3.4-1.4c9.5-8.8,22.1-10,33.6-14c4.3-1.5,11.5,3.6,13.2,8.3C796.1,551,793,557.1,789,559.6z"/>
	<path class="st4" d="M633.8,540.2c27.2-1.4,54.4-3.4,81.8-1.1c-1.1,4.7-1.1,4.7,0.7,9.8c-7.6-0.4-15.1-0.5-22.5-1.3
		c-7.6-0.8-15.1-1.1-22.6,0.1c-4.8,0.7-9.6,0.5-14.4,1c-12.2,1.2-24.4,1.6-36.7,2.3c-5.7,0.7-9-0.6-9.3-3.6
		c-0.3-2.7,2.5-4.6,8.1-5.3C623.9,541.4,628.9,540.5,633.8,540.2z"/>
	<path class="st5" d="M605.5,444.5c-2,1.7-4.6,0.9-6.9,1.6c-7.8,2.2-9.2,7.7-8.7,12.1c0.5,4.6,5.5,8.6,11.5,8.6
		c6.6,0,13.2-0.6,19.8-1.1c9.9-0.6,19.7-2.3,29.8-1.1c8.8,1,17.6,1.5,26.4,2.4c6.3,0.6,12.9,0.2,18.9,2.7c-5.7,1-11.3-0.8-16.9-0.9
		c-18-0.3-35.9,0.8-53.8,2.2c-10.5,0.8-21,2.8-31.5,4.6c-6.2,1-10.5-2.8-11.1-10.2c-0.4-4.7,0.5-9.4,1.2-14c0.5-3.1,2.8-5.3,5.9-5.8
		C595.2,444.6,600.3,443.8,605.5,444.5z"/>
	<path class="st6" d="M803.7,546.8c4.6,7.2-1.1,16.9-7.8,20.6c-13.2,7.4-27.1,8.9-41.7,6.5c-2.4-0.4-4.8,0-7.2-0.6
		c-4.2-1.1-6.6-2.7-4.4-7.4c7.3,1.8,14.8,3.6,22.4,3.4c10.9-0.3,21-3.2,29.8-10.1c5.1-4,4.5-14.8-1.3-18.9
		c-5.7-4.1-11.7-5.2-18.4-2.6c-7.8,3-15.9,5.5-23.7,8.5c-2.2,0.9-3.3,0.3-4.6-1.2c-1.8-2.1,0.5-3.1,1.5-3.8
		c4.6-3.2,9.8-5.2,15.3-6.2c-1.1,4.3-5.4,2.9-8.1,4.8c6.6-2.3,13.1-4.9,20-5.6c6-0.7,12.1-1,17.5,2.2c7.8,4.5,10.2,11.7,7.9,21.1
		C803.5,554.9,801.2,550.2,803.7,546.8z"/>
	<path class="st7" d="M696.4,550.7c-20.8,1.4-41.8,2.1-62.2,6.9c-1.2,0.3-2.5,0.7-3.7,1.2c-2.4,0.9-4.5,2.6-4.3,5.2
		c0.2,3.1,2.9,3.4,5.5,3.5c0.4,0,0.8,0.5,1.2,0.7c-9.2,0.7-18.3,1.6-27.5,2c-7.4,0.3-8.4-1.1-6.7-8.1c1.6-6.7,2.1-7.2,11-7.5
		c15.2-0.4,30.2-2.6,45.4-3.2c12.6-0.5,25.1-1.8,37.7-1.7C694,549.8,695.4,549.5,696.4,550.7z"/>
	<path class="st2" d="M628.1,434.5c9.4-10.4,57.3-13.2,68-4C673.3,430.6,651.1,435,628.1,434.5z"/>
	<path class="st8" d="M803.7,546.8c0.2,5.7,0.3,11.4-5.8,15.6c0.7-2.4,1.1-4.3,1.9-6.1c4.1-9.5-4.9-21.3-16.4-21.2
		c-7,0-13.7,1.3-20.4,3.3c-3,0.9-6.1,1.8-9.9,3c3.1-3.9,7.8-3.4,10.5-6.3c5-2.4,10.4-3.3,15.7-4.5
		C789.9,528.3,802.3,536.6,803.7,546.8z"/>
	<path class="st9" d="M739,536.1c4.2,0.1,5.7,2.3,4.2,5.5c-1.2,2.4-1,4.3,0.5,6.3c2.2,3-0.4,3.2-2,2.8c-5.9-1.3-12.1-1.7-17.8-3.8
		c-1.7-0.6-4.1-0.9-4-3.5c0.1-2,1.9-2.9,3.5-3.6C728.6,537.4,734.5,538,739,536.1z"/>
	<path class="st5" d="M633.8,540.2c-5.7,1.7-11.7,1.6-17.4,3.5c-2,0.7-4.8,0.7-4.7,3.2c0.1,2.5,2.8,3.3,5,3.8
		c1.1,0.3,2.3,0.1,3.4,0.2c-3.3,1.8-6.9,0.4-10.4,0.8c-0.8,0.1-1.6,0-2.4,0c-2.1,0.2-5,2.4-6.2,0.1c-1-1.9,0.1-4.9,0.5-7.4
		c0.4-2.5,3.1-2,4.4-2.1C615.3,542,624.5,539.7,633.8,540.2z"/>
	<path class="st1" d="M706.1,379.3c0.2,3.7-1.5,5.8-1,8.3c1.3,6.6,0.7,7.2-5.9,7.9c-10.5,1-20.8-11-18.2-21.3
		c1.7-6.7,3.6-13.3,5.1-20c1.1-4.8-1.2-9.1-3-13.3c-2.5-6-3.4-11.8,0.1-17.9c2.5-4.5,6.5-7.2,10.9-8.2c12.1-2.8,23.5-7.3,34.8-12.3
		c4.7-2.1,9.3-1.9,13.6-0.4c14.6,5,24.8,14.9,31,29.1c6.5,15,4.5,29.2-3.9,42.7c-5,8.1-11.4,14.3-22,14c-4.2-0.1-7.8,2.7-11.6,4.5
		c-9.5,4.7-22.8,0.3-27.8-9.2C707.7,382.3,707.2,381.5,706.1,379.3z"/>
	<path class="st10" d="M463.2,126.5c8.4-2.9,15.6-4.7,23.1-2.4c3.1,0.9,5.3,3,6.5,6c0.8,2,0.8,4.1-1.2,5.7c-1.9,1.6-3.8,1.1-5.3-0.2
		C479.9,130.4,472.2,128.6,463.2,126.5z"/>
	<path class="st10" d="M523.4,125.5c7.8-0.9,15.3,3.9,17.3,10.5c0.5,1.8-0.2,2.8-1.4,3.8c-1.4,1.2-3,1.3-4.4,0.1
		c-1.3-1.2-2.9-2.4-3.6-3.9C529.8,131.9,527,128.8,523.4,125.5z"/>
	<path class="st11" d="M502.9,252.6c-0.5,11.8-0.1,28.2-4.9,44c-2.2,7.1-4.1,14.7-11.2,19c-3.9,2.3-7.4,2.1-11.4,0.1
		c-8.6-4.3-12.6-12.2-16.8-20c-9.4-17.6-15.2-36.4-19-55.9c-1.6-8.3-1.2-16.7,0-25c1.6-11.2,9.8-17,18.6-22c8-4.5,16.7-5.7,25.7-3.3
		c10,2.7,14.6,9.9,16.2,19.5C502.2,222.1,503.1,235.1,502.9,252.6z"/>
	<path class="st11" d="M505.9,272.8c-1.3-12.3,1.2-27.1,2.1-41.9c0.6-9.5,1.7-19.1,4.4-28.5c1-3.6,1.9-7.2,5.9-7.9
		c4.4-0.8,8.3,1.4,10.4,4.9c4.4,7.5,6.5,15.6,4.9,24.5c-1.2,7.1-1.4,14.4-2.4,21.6c-2.2,15.4-5.1,30.6-9.6,45.6
		c-1.8,5.9-3.7,11.6-6.8,17c-1.8,3.2-3.7,3.3-5.7,0.3c-2.4-3.7-3.2-8.1-3.3-12.4C505.7,289.1,505.9,282.2,505.9,272.8z"/>
	<path class="st11" d="M710.3,496.5c2,11.6,4.7,23,9,33.9c0.5,1.2,0.4,2.1-0.5,3c-1,0.9-1.9,0.7-3.1,0.2c-3.4-1.2-4.3-4-4.8-7
		C709.2,516.8,710.2,506.7,710.3,496.5z"/>
	<path class="st11" d="M721.3,461.4c-8.5-10.9-19.9-12.8-31.7-13.1c-11.1-0.3-22.2-1.2-33.4-1.3c-4.9,0-9.9-0.5-15.8-0.8
		c1.1-0.6,1.4-0.8,1.7-0.8c12.5,0.2,24.8-1.6,37.3-1c12.1,0.6,24.2-1.6,36.3-1c5.6,0.3,8.8,4.3,7.4,9.9
		C722.5,455.6,722,458.1,721.3,461.4z"/>
	<path class="st11" d="M710.6,542.9c-13.4-1.5-26.8-1-40.1-2.6C683.9,540.4,697.5,538.8,710.6,542.9z"/>
	<path class="st12" d="M473.1,309.8c-6.8-5.9-10.8-13.7-14.4-21.6c-6.3-13.5-11.1-27.6-13.8-42.3c-1.7-9.2-3.5-18.6-2.2-27.9
		c1.9-13.6,11.7-21.9,27.4-24.8c5.9-1.1,11.4-1.4,17.5,2.6c-6.4,0.8-11.9,1.5-17.1,3.5c-9.9,3.8-14.6,11.5-16.2,21.3
		c-2.4,14.5,1.3,28.5,4.2,42.5C461.8,279.1,467.4,294.4,473.1,309.8z"/>
	<path d="M488.3,258.3c-0.2,6.5-1.5,12.8-2.9,19.2c-0.6,3-2.8,4-4.9,4.6c-2.3,0.6-4.5-1.1-5.6-3c-5-9.1-5.7-18.5-1.4-28.1
		c1.5-3.3,4.8-4.6,7.8-5.8c2.3-0.8,3.9,0.8,4.9,2.9C488,251.3,488.7,254.7,488.3,258.3z"/>
	<path class="st12" d="M519.7,267.6c1.8-7,2.8-14.2,3.7-21.3c0.8-6.7,1.5-13.5,1.9-20.2c0.5-10.3-1.1-20-8.4-28.4
		c6.7,0.8,9.6,4.8,11.6,10.4c3.2,8.7,1.5,17.4,0.6,26c-1.8,18.3-5.6,36.3-10.6,54.1c-1.6,5.7-3.8,11.3-6.2,16.8
		c0.8-9.4,4.6-18.1,5.2-27.5c-1.2-1.3-0.9-2.7-0.2-4.1c1.1-1.3,0.9-3.1,1.4-4.6C519,268.1,519.3,267.8,519.7,267.6z"/>
	<path d="M518.5,273.4c-1.7,0.9-0.5,2.6-1,3.9c-1.1,1.3-2.1,2.8-3.3,3.9c-2.7,2.5-5.7,1-6.1-1.5c-1.4-10-3.2-20.2,1.5-30
		c1-2.1,2.2-4.4,4.6-4.3c2.8,0.1,3.5,2.8,4.3,5.1c2.1,5.6,0.4,11.5,1.2,17.2c-0.1,0.3-0.2,0.6-0.2,0.9
		C518.4,270,519.8,271.9,518.5,273.4z"/>
	<path class="st11" d="M486.3,256.4c-0.1,2.4,0.5,4.5-1.7,5.2c-2.2,0.7-3.3-1.3-4.2-2.6c-1.4-2-2.8-4.1-2.9-6.9c0-2.2,1.2-3.5,2.9-4
		c1.7-0.5,3.2-0.1,4.1,2.2C485.5,252.6,486.8,254.5,486.3,256.4z"/>
	<path class="st13" d="M481.5,275.7c0.1,1.4-0.1,2.8-1.5,3.3c-1.3,0.5-2-0.8-2.8-1.5c-0.2-0.2-0.5-0.5-0.7-0.7
		c-2.2-2.1-3.6-4.6-2.6-7.7c0.3-0.9,1.2-1.8,2.3-1C478.8,270,481.2,272.1,481.5,275.7z"/>
	<path class="st11" d="M518.5,273.4c0.6-1.6-0.9-3.6,1-4.9C519.3,270.1,520.3,272,518.5,273.4z"/>
	<path class="st11" d="M517.6,256.1c0,1.1,0,2.3,0,3.4c0,1.1-0.8,1.8-1.7,2.1c-1.2,0.4-2.3,0-2.9-1.1c-0.8-1.5-1.9-3-2.2-4.6
		c-0.6-3.3,0.6-7,3.6-7.4c3.1-0.5,2.3,3.7,3.1,5.8C517.8,254.8,517.6,255.5,517.6,256.1z"/>
	<path class="st14" d="M508.8,273.7c0-2.6,0.2-6,2.1-5.5c2.7,0.7,3.6,4.2,3.7,7.1c0.1,1.8,0,4.1-2.4,3.8
		C509,278.7,508.9,275.7,508.8,273.7z"/>
</g>
</svg>
