<?xml version="1.0" encoding="utf-8"?>
<!-- Generator: Adobe Illustrator 23.0.1, SVG Export Plug-In . SVG Version: 6.00 Build 0)  -->
<svg version="1.1" id="Layer_4" xmlns="http://www.w3.org/2000/svg" xmlns:xlink="http://www.w3.org/1999/xlink" x="0px" y="0px"
	 viewBox="0 0 1000 1000" style="enable-background:new 0 0 1000 1000;" xml:space="preserve">
<style type="text/css">
	.st0{fill:#6E3720;}
	.st1{fill:#FB9A7A;}
	.st2{fill:#CBB89A;}
	.st3{fill:#E00000;}
	.st4{fill:#7F0000;}
	.st5{fill:none;}
	.st6{fill:#7898AB;}
	.st7{fill:#800000;}
	.st8{fill:#B0F3F2;}
	.st9{fill:#2B5260;}
	.st10{fill:#7F7F7F;}
	.st11{fill:#FEFEFE;}
	.st12{fill:#C0FEFE;}
	.st13{fill:#00407F;}
</style>
<g>
	<path class="st0" d="M494.2,206c14.4,1.9,28.8,4.2,42.4,9.8c11.2,4.6,21,11,26.6,22.1c2.6,5.1,2.5,11,1.9,16.9
		c-1.9,19.3-8.4,37.4-15.3,55.9c5.2-1.7,9.3-4.1,14.1-5.3c9.9-2.4,18.4,2.2,27.6,3.6c4.6,0.7,9,0.5,13.5,0.4
		c13.2-0.2,22.6,5.2,27.9,17.7c0.8,1.9,0.2,4.2,1.9,5.8c1.5,1.9,1.3,4.2,1.1,6.4c-2.2,8.2,0.3,15.7,3.7,22.9c2.3,5,4.4,10,6,15.3
		c0.3,2,0.9,4,1,6.1c0.1,4.5-1,8.6-3.2,12.5c-2.1,2.6-3.3,6-7,7.2c-8.4,4.5-17.1,7.5-26.9,4.9c-1.6-0.4-3.4-0.2-5.1,0.8
		c-8.3,5.3-17.2,6.3-26.4,2.9c-3.5-1.3-6.8-0.6-9.8,0.3c-7.2,2.2-12.8-1-18.3-4.4c-4.5-2.8-9-6-13.1-11.4c0,3-0.1,4.6,0,6.1
		c0.7,14.3-0.7,28.5-1.2,42.7c-0.5,15.7-2.2,31.3-3.8,47c-0.8,8.2-2.8,16.3-3.7,24.5c-0.6,5.9,1,11.7,3.2,17.2
		c2.1,5.1,5.1,9.7,6.7,15.1c3.3,11.7-4,18.1-13.3,20c-16,3.3-32.2,1.7-48.3,2.1c-7.6,0.2-15.1-0.8-22.5-2.2
		c-11.2-2.2-18-14.9-11.4-27.8c4.2-8.1,6.1-16.5,5.3-25.3c-0.9-9.6-4.4-18.7-7.2-27.9c-4.3-14.4-8.5-28.8-10.5-43.8
		c-1.6-12.1-2.1-24.2-3.7-36.2c-1.2-9.5-5.9-17.6-10.6-25.6c-12.7-21.5-27.5-41.8-37.6-64.9c-5.7-13.1-10-26.5-11.6-40.9
		c-0.9-8.4-1.3-16.7,0.8-24.8c2.9-11.1,10.6-18.7,19.5-25.3c14.9-10.9,32.2-15.6,49.8-19.6c12.3-2.8,24.8-3.2,37.4-3
		c0.4-0.3,0.9-0.7,1.3-0.5c5.6,1.9,11.3,2.4,17.1,1.7C493.4,205.2,493.8,205.7,494.2,206z"/>
	<path d="M808.6,547.9c-2.3-16.5-19.9-23-32.1-21.1c-8.9,1.4-16.9,5.4-25.2,8.7c-1.2,0.5-2.3,1.3-3.2-0.3c-2.8-4.6-6.7-4.8-11.2-3.2
		c-2.3,0.8-3.2-0.2-3.9-2.5c-4.5-14.7-8.4-29.6-11.4-44.7c-0.4-1.9,0-2.3,1.8-2.8c3-0.8,6.4-1.2,8.2-4.2
		c6.8-11.6,11.2-23.8,7.1-37.4c-1.5-5.1-4.3-9.1-10.6-10.1c-3.4-0.5-6.7-0.5-10-0.6c-6.7-0.3-13.3,0.8-19.4-4.5
		c-5.5-4.6-13-6-20.1-7.3c-3.1-0.5-4.9-1.9-5.4-5c-1.4-9.9-2.9-19.8-4.3-29.6c-0.2-1.6,0.1-2.9,1.9-3.4c1.9-3.6,2.8-7.4,1.5-11.5
		c-0.2-0.2-0.3-0.3-0.5-0.3c0,0,0,0,0,0c-0.8-0.4-1.4,0.3-1.9,0.9c-3.4,4.7-8.3,6.1-13.7,7c-3.5,0.6-7.3-0.3-10.7,1.3
		c-0.3,0.2-0.7,0.4-1,0.6c0.3,2,0.6,4,1,5.9c0.4,0.3,0.8,0.5,1.2,0.7c2.6,1.2,5.5,0.6,8.2,0.4c5.7-0.5,5.9-0.4,6.7,5.4
		c0.9,6.1,1.7,12.2,2.6,18.3c1.2,8.1,1,8.2-6.9,9c-2.3,0.2-4.5,0.6-6.7,1c-3.6,0.6-5.1-0.8-5.5-4.3c-0.4-4.2-0.1-8.5-0.3-12.7
		c-0.1-1.8,0.4-4-1.6-5c-0.2-0.1-0.4-0.2-0.6-0.3c-2,2.3-4,4.7-6.1,7c0.4,2.4,0.4,4.7,0.9,7.1c0.7,3.6,0.8,7.6-0.3,11.1
		c-0.7,2.5-4.7,2.1-6.9,3.5c-1.2,0.7-2.5,1.4-3.5,2.4c-6.4,6.4-14,8.8-22.9,8.2c-5.2-0.3-10.4-0.1-15.6,0
		c-7.6,0.1-10.6,2.3-12.9,9.3c-2.3,6.9-1.7,14.2-0.9,21.1c0.9,7.6,3.2,15.4,12,18.3c1.6,0.5,1.1,1.6,1.5,2.6
		c4.7,11.6,4.8,23.9,5.6,36c0.9,13.8-1.7,27.3-4.8,40.7c-2.3,9.9,2.1,15.6,12.2,15.6c15.3,0.1,30.6-1.1,45.9-1.9
		c13.9-0.8,27.8,1,41.8,1c9,0,17.9,0,26.8,0c7.2,0,14.4,0.1,20.9-3.5c1.4-0.8,2.3,0.2,3.5,0.5c7.5,2.2,15.2,3.4,22.8,3.9
		c11.9,0.7,23.2-2.3,33.7-7.9C806.2,566,810.1,558.5,808.6,547.9z M745.1,554.6c0.9,0,1.9-0.5,2.5-1.2c9.4-9,22.1-10,33.5-14.3
		c4.3-1.6,11.9,3.5,13.7,8.3c1.2,3.3-1.7,9.8-5.4,12c-7.8,4.7-16.6,5.5-25.5,7c-6.1-1-12.5-1.9-18.9-3.1c-3-0.6-3.4-3.3-3.7-5.8
		C741,554.8,743,554.7,745.1,554.6z"/>
	<path class="st0" d="M670.8,379.9c0.3-3.9,0.7-7.9,1-11.8c-0.3-0.4-0.5-0.9-0.5-1.4c0-0.3,0-0.7,0.1-1c2.5-9,3.1-18,0.3-27
		c-1-5.2-1.5-10.4,0.5-15.5c3.8-9.8,10.9-16.4,20.8-19.5c9.5-2.9,18.9-5.6,28.1-9.5c16.1-6.8,30.4-1.6,43.1,8.9
		c4.7,3.9,9.6,7.8,13.2,13.2c5.2,7.8,7.6,16,8.8,25.2c1.6,11.9-0.7,22.9-6.4,33c-5.7,10-12.8,18.9-24.8,22.6c-3,0.9-5.2-1.2-7.9-0.2
		c-3.1,1.2-6.3,2.1-9.2,3.6c-4.7,2.5-9.3,3.9-14.6,1.9c-6.7-2.6-13-0.7-19.6,1.4c-13.6,4.5-25.4-1.7-30.9-14.2
		C671.6,386.6,671.5,383.2,670.8,379.9z"/>
	<path d="M494.2,206c-6.8,1.9-13.3,1.2-19.6-2c-6.1-4.3-11.2-9.6-15.4-15.8c-2-2.9-2.8-6-3-9.2c-0.6-7.6,7.8-13.7,16-11.9
		c9.4,2.1,18,5.9,25,12.3C506.6,188.2,509.6,196.3,494.2,206z"/>
	<path d="M550.8,185.3c-0.1,3.6-2.5,6.1-5.2,7.7c-7.3,4.2-14.6,8.6-22.7,11.2c-8.4,2.6-16-3.9-14.1-12.6
		c2.7-12.3,11.2-19.8,23.3-21.5C539.6,168.9,551,178.5,550.8,185.3z"/>
	<path d="M671.8,338.8c4.5,7.4,4.2,15.1,1.7,22.9c-0.6,1.8,0.2,4-1.5,5.4c-2.2-2-1.2-4.9-1.9-7.3c-0.3-0.9-0.4-1.9-0.5-2.9
		c-1.9-14-9.2-17.8-23.9-17.4c-3.6,0.1-7.2,2.1-10.9,0.3c0-2.3,0-4.6,0-6.9c8.4-1.6,16.9-2.7,25.4-0.8c3.6,0.8,6.1,3.7,9.1,5.7
		C670.1,338.4,670.7,339.2,671.8,338.8z"/>
	<path class="st1" d="M443.8,377.4c9.2-2.8,18.1-6.2,27.7-7.5c9.6-1.2,19.1-2.5,28.8-2.8c5.6-0.2,11.3,0.8,16.9-0.9
		c3.4-1,4.7,1.3,5.1,4c1.1,9.6,1.7,19.2,3.2,28.7c1.1,7.6,1.1,15.2,0.8,22.8c-0.8,19.2-2.3,38.4-3,57.6c-0.5,12-2.8,23.9-3.6,35.9
		c-0.7,9.9,1.4,19.5,6.6,28.2c0.6,1,1,2,1.4,3.1c3.3,7.4,1,12.1-6.8,13.9c-16.4,3.8-32.9,3.7-49.6,2.2c-4.7-0.4-9.2-1.2-13.8-2.2
		c-7.6-1.8-9.9-6.6-6.7-13.7c3-6.6,6.1-12.9,7.5-20.2c1.4-7.4-0.6-14-1.8-20.9c-4-21.7-12.2-42.4-16.3-64.1c-1.3-6.9-2.1-14-2.6-21
		c-1.2-19.6-8.4-37-19-53.2c-15.6-23.8-29.9-48.3-39-75.4c-6.5-19.3-6.8-38.2,7.7-54.7c5.5-6.2,12.8-9.8,20.3-12.6
		c12.9-4.9,26.1-8.9,39.8-10.6c10.5-1.3,21.1-1.8,31.9-0.5c7.9,0.9,16.1,0.9,24,2.3c15.6,2.6,31,5.7,43.6,16.2
		c7.1,6,9.9,14.2,8.6,23c-1.8,12.8-3.5,25.8-8.7,37.8c-4.4,10.1-8.9,20.3-14.6,29.8c-1.2,2-2.3,3.8-0.7,6.1c1,1.4-0.3,2.4-0.8,3.4
		c-3,7-6.6,13.9-7.3,21.8c-0.1,1.5-0.9,2.4-2.5,2.5c-6.9,0.7-13.8,1.2-20.6,2c-15,1.9-30.5,1.7-44.3,9.7
		C451.6,370.7,447.9,374.2,443.8,377.4z"/>
	<path class="st1" d="M610.1,386.2c-3.3,9.1-8.2,16.4-18.4,18.7c-4.3,1-8-0.1-11.6-2.1c-2.5-1.4-5.2-2.3-7.8-1
		c-7.3,3.8-13.3,1.5-19.3-3.3c-7.6-6.1-14.8-12.2-17.6-22.1c-4.2-14.7-1.1-28.5,5.5-41.8c5-10,12.5-17,23.9-18.9
		c8.5-1.4,16.6,1.2,24.7,3c1.8,0.4,3.7,1,5.2,0.4c4.4-1.8,8.6-0.3,12.9,0.2c12.2,1.5,19.4,11.9,16.7,23.9
		c-1.3,5.9-1.5,11.5,2.1,17.1c3.6,5.8,6.3,12.2,7.8,19c2.6,11.5-5.3,21.5-17.2,20.9c-2.8-0.2-5.2-1.1-4.7-5
		C612.7,392.1,611.3,389.1,610.1,386.2z"/>
	<path class="st2" d="M634.8,339.9c7-0.9,13.8-2.8,21.2-1.1c10.5,2.5,12.6,7.2,14.8,16.5c0.9,3.8,0.8,7.9,1.2,11.9
		c-0.1,0.3-0.1,0.7-0.2,1c-2.6,6.1-7.8,8-13.9,8.9c-4.5,0.7-8.9,1-13.4,0.9c-2.5-9.4-8.4-17.5-10.2-27.2
		C633.6,347,633.1,343.4,634.8,339.9z"/>
	<path class="st2" d="M645.5,383.8c4.1-0.3,8.3,0.4,12.5-0.9c2.1-0.7,3.8-0.4,4.3,3.1c1.3,8.6,2.8,17.2,3.6,25.9
		c0.5,5.8-0.5,7-6.6,6.9c-3,0-5.7,1.6-8.5,1c-2.2-0.4-4.6,2.4-5.8,0.5c-1.3-2.1-1.4-5.2-1.5-7.8c-0.2-4.7-0.1-9.4-0.1-14.1
		c0-0.8,0-1.6-0.9-2C643.8,392.2,645.9,388.3,645.5,383.8z"/>
	<path class="st3" d="M711,484.3c3.5,14,7.1,27.9,10.6,41.9c0.2,0.8,0.4,1.6,0.6,2.3c2.1,6.8,1.6,7.7-5.7,7.6
		c-12.3-0.1-24.5-0.7-36.8-1.1c-10.5-0.2-21.1-0.1-31.6,0.3c-11,0.5-22,0.8-33,2.1c-6.7,0.8-9.7-2.8-8.8-9.4
		c0.7-5.2,1.7-10.3,3.5-15.2c4.5-12.5,14.1-19.2,26.5-22.2c13.9-3.3,28-5.4,42.4-5.9c8.1-0.3,16.2-0.5,24.3-1.5
		C705.8,482.9,708.6,482.5,711,484.3z"/>
	<path class="st3" d="M605.5,444.5c22.2-1.9,44.6-1.5,66.8-2.3c14.6-0.6,29.1-0.4,43.7-0.7c10.1-0.2,12.7,2.2,10.8,12.9
		c-0.9,4.8-2.1,9.2-4.1,13.7c-1.4,3.3-3.7,4.5-6.8,3.7c-6.4-1.8-13.2,0.2-19.6-2c-13.8-2-27.8-1.7-41.6-3.4c-16.1-1.9-32,0.9-48,1.8
		c-4.3,0.3-8.4,0.2-12.3-1.9c-4.4-2.4-6.5-6.6-5.8-11.3c0.7-4.8,3.9-8.2,8.7-9.4C600.1,444.7,602.9,445.2,605.5,444.5z"/>
	<path class="st4" d="M711,484.3c-16.8,1-33.6,1.4-50.3,3.3c-10.5,1.2-21.1,2.9-31.1,6.7c-13.6,5.2-18.9,16.3-21.3,29.5
		c-0.2,1-0.1,2-0.3,2.9c-1.7,8,0.3,10.3,8.7,9.4c13.5-1.4,27.1-2,40.7-1.9c5.9,0,11.7,0,17.6,0c1.6,0,3.3-0.5,4.6,0.8
		c-16,0.7-32,1.2-47.9,2.2c-9.1,0.5-18.2,1.8-27.3,2.7c-1.6,0.2-3,0.1-2.7-2.2c2.1-13.9,0-27.7-2.6-41.3
		c-2.2-11.5-2.5-11.2,8.6-13.2c14-2.4,28-3.9,42.1-5c16.7-1.3,33.1,0.3,49.6,2c3,0.3,6.1,0.7,9.1,1C710.7,481.6,711,482.7,711,484.3
		z"/>
	<path class="st3" d="M696.4,550.7c3.7,0,7.5,0.4,11.2,0c7.1-0.6,13.7,1.3,20.4,3c2.8,0.7,3.5,3,3.4,5.1c-0.2,3.3-0.6,6.9-4.4,8.3
		c-5,1.8-10.4,1.8-15.7,2c-11.5,0.4-23.2,0.9-34.6-0.1c-14.6-1.2-29.2-0.2-43.8-0.9c-0.5-0.2-0.9-0.4-1.4-0.3
		c-2.7,0-5.5,0.1-6.1-3.3c-0.6-3.2,1.4-5.2,3.9-6.6c3.7-2.1,8-2.7,12.1-3.4c17.3-2.9,34.7-3.6,52.2-4.3
		C694.5,550.3,695.5,550.2,696.4,550.7z"/>
	<path class="st5" d="M789.4,559.5c-7.8,4.7-16.6,5.5-25.5,7c-6.1-1-12.5-1.9-18.9-3.1c-3-0.6-3.4-3.3-3.7-5.8
		c-0.3-2.8,1.8-2.9,3.8-3c0.9,0,1.9-0.5,2.5-1.2c9.4-9,22.1-10,33.5-14.3c4.3-1.6,11.9,3.5,13.7,8.3
		C796,550.8,793.1,557.3,789.4,559.5z"/>
	<path class="st3" d="M633.8,540.2c27.2-1.4,54.4-3.4,81.8-1.1c-1.1,4.7-1.1,4.7,0.7,9.8c-7.6-0.4-15.1-0.5-22.5-1.3
		c-7.6-0.8-15.1-1.1-22.6,0.1c-4.8,0.7-9.6,0.5-14.4,1c-12.2,1.2-24.4,1.6-36.7,2.3c-5.7,0.7-9-0.6-9.3-3.6
		c-0.3-2.7,2.5-4.6,8.1-5.3C623.9,541.4,628.9,540.5,633.8,540.2z"/>
	<path class="st4" d="M605.5,444.5c-2,1.7-4.6,0.9-6.9,1.6c-7.8,2.2-9.2,7.7-8.7,12.1c0.5,4.6,5.5,8.6,11.5,8.6
		c6.6,0,13.2-0.6,19.8-1.1c9.9-0.6,19.7-2.3,29.8-1.1c8.8,1,17.6,1.5,26.4,2.4c6.3,0.6,12.9,0.2,18.9,2.7c-5.7,1-11.3-0.8-16.9-0.9
		c-18-0.3-35.9,0.8-53.8,2.2c-10.5,0.8-21,2.8-31.5,4.6c-6.2,1-10.5-2.8-11.1-10.2c-0.4-4.7,0.5-9.4,1.2-14c0.5-3.1,2.8-5.3,5.9-5.8
		C595.2,444.6,600.3,443.8,605.5,444.5z"/>
	<path class="st6" d="M803.7,546.8c4.6,7.2-1.1,16.9-7.8,20.6c-13.2,7.4-27.1,8.9-41.7,6.5c-2.4-0.4-4.8,0-7.2-0.6
		c-4.2-1.1-6.6-2.7-4.4-7.4c7.3,1.8,14.8,3.6,22.4,3.4c10.9-0.3,21-3.2,29.8-10.1c5.1-4,4.5-14.8-1.3-18.9
		c-5.7-4.1-11.7-5.2-18.4-2.6c-7.8,3-15.9,5.5-23.7,8.5c-2.2,0.9-3.3,0.3-4.6-1.2c-1.8-2.1,0.5-3.1,1.5-3.8
		c4.6-3.2,9.8-5.2,15.3-6.2c-1.1,4.3-5.4,2.9-8.1,4.8c6.6-2.3,13.1-4.9,20-5.6c6-0.7,12.1-1,17.5,2.2c7.8,4.5,10.2,11.7,7.9,21.1
		C803.5,554.9,801.2,550.2,803.7,546.8z"/>
	<path class="st7" d="M696.4,550.7c-20.8,1.4-41.8,2.1-62.2,6.9c-1.2,0.3-2.5,0.7-3.7,1.2c-2.4,0.9-4.5,2.6-4.3,5.2
		c0.2,3.1,2.9,3.4,5.5,3.5c0.4,0,0.8,0.5,1.2,0.7c-9.2,0.7-18.3,1.6-27.5,2c-7.4,0.3-8.4-1.1-6.7-8.1c1.6-6.7,2.1-7.2,11-7.5
		c15.2-0.4,30.2-2.6,45.4-3.2c12.6-0.5,25.1-1.8,37.7-1.7C694,549.8,695.4,549.5,696.4,550.7z"/>
	<path class="st2" d="M628.1,434.5c9.4-10.4,57.3-13.2,68-4C673.3,430.6,651.1,435,628.1,434.5z"/>
	<path class="st8" d="M803.7,546.8c0.2,5.7,0.3,11.4-5.8,15.6c0.7-2.4,1.1-4.3,1.9-6.1c4.1-9.5-4.9-21.3-16.4-21.2
		c-7,0-13.7,1.3-20.4,3.3c-3,0.9-6.1,1.8-9.9,3c3.1-3.9,7.8-3.4,10.5-6.3c5-2.4,10.4-3.3,15.7-4.5
		C789.9,528.3,802.3,536.6,803.7,546.8z"/>
	<path class="st9" d="M739,536.2c4.3-0.1,5.9,2.1,4.2,5.6c-1.1,2.3-0.9,4.1,0.4,5.8c1.9,2.5,0.7,3.5-1.6,3.1
		c-6.3-1.2-12.7-1.9-18.8-4.1c-1.4-0.5-3.4-1-3.4-3c0-2.1,1.6-3,3.3-3.7C728.3,537.4,734.2,538,739,536.2z"/>
	<path class="st4" d="M633.8,540.2c-5.7,1.7-11.7,1.6-17.4,3.5c-2,0.7-4.8,0.7-4.7,3.2c0.1,2.5,2.8,3.3,5,3.8
		c1.1,0.3,2.3,0.1,3.4,0.2c-3.3,1.8-6.9,0.4-10.4,0.8c-0.8,0.1-1.6,0-2.4,0c-2.1,0.2-5,2.4-6.2,0.1c-1-1.9,0.1-4.9,0.5-7.4
		c0.4-2.5,3.1-2,4.4-2.1C615.3,542,624.5,539.7,633.8,540.2z"/>
	<path class="st1" d="M706.6,380.3c-1.4,3.6-2,6.8-0.6,10.2c0.9,2.2,0.1,3.3-2.3,4c-15.2,4.5-25.3-9-22.2-21.9
		c1.1-4.5,1.5-9.3,3.2-13.5c2.7-6.7,0.8-12.4-1.7-18.5c-1.7-4.1-3-8.2-1.8-13c1.9-7.5,7-11.5,13.9-13.2c11-2.8,21.7-6.5,32-11.5
		c9.9-4.9,18.7-0.4,26.7,4.5c10.7,6.6,17.7,16.8,21.4,28.9c4.6,15,0.8,28.3-8.2,40.8c-5.1,7.1-11.4,10.8-20.3,10.8
		c-3.8,0-7.2,2.6-10.6,4.3c-9.8,4.9-23,0.6-28.2-9.2C707.6,382.1,707.1,381.3,706.6,380.3z"/>
	<path class="st10" d="M472.1,173.3c9.2,1.5,17.7,3.8,24.1,10.8c1.9,2.1,4.2,4.4,2.2,7.1c-2.2,3.1-5.3,2-8,0.2
		c-0.7-0.4-1.4-0.8-2-1.4C482.9,184.6,478.6,177.9,472.1,173.3z"/>
	<path class="st10" d="M526.6,175.6c3-2.9,5.9-1.5,8.6-0.7c4.1,1.3,7.1,4.3,9.8,7.4c2.3,2.6,2.3,5.1-0.8,7.2c-3.1,2.1-4-0.5-5.4-2.5
		C535.5,182.6,533,177.1,526.6,175.6z"/>
	<path class="st11" d="M510.7,282.2c0,12.3-1.3,24.4-5.9,36c-0.5,1.2-0.8,2.5-2,3.2c-1.7,1-3.6,1.4-5.6,1.3
		c-8.7-0.3-17.3-0.8-25.9-2.5c-1.8-0.8-2.5-2.5-3.3-4c-5.2-10.3-9.1-21.1-12.2-32.1c-0.6-2.1-1.7-4.4,0.5-6.3
		c8.7,0.1,17.5-0.1,25.9,2.8c1.1,1.9-0.3,3.4-0.9,5c-3.2,7.9-3.1,15.8,0.4,23.6c1,2.3,2.4,4.7,5.2,4.4c2.9-0.3,4.2-2.9,4.6-5.6
		c1.2-7.5,3.2-15,1.9-22.7c-0.3-1.5-0.2-2.9,1.4-3.8C500.1,280.6,505.5,279.6,510.7,282.2z"/>
	<path class="st0" d="M510.7,282.2c-5.5,0-11,0-16.5,0.1c-1.4,0.7-2.9,0.1-4.3,0.3c-1.3,0-2.5,0-3.8,0c-1.3-0.1-2.7-0.1-3.7-1.2
		c-4.9-2.4-10.3-0.6-15.5-1.7c-3.4-0.7-7.1-1.5-10.8-1.1c-4.3,1.3-8.3-0.8-12.5-1c-1.8-0.4-3.6-0.7-5-2.1c-1-5.3-2.6-10.6-2.9-16
		c-0.9-16.1,5.4-26,23.2-29.5c-2.4,2.6-5.3,4-8.1,5.4c-8.7,4.3-10.3,18.5-10.2,25c0.2,9.3,4.6,12,13.6,12.7
		c11.6,0.8,23.3,2.8,35,3.5c4.3,0.3,8.6,1.1,13,1.1c3,0,3.7-1,3.8-3.9c0.3-7.6-0.6-15.2-1.5-22.7c-0.8-7.1-1.7-14.6-5.8-21
		c5.8,3.3,7.9,9,9,14.9C509.9,257.1,511.1,269.6,510.7,282.2z"/>
	<path class="st0" d="M514.7,282.2c2.3-17.4,2-35.4,9.4-51.8c0.6,0.1,1.2,0.2,1.8,0.3c-1.3,7.4-2.5,14.8-4,22.1
		c-1.4,6.8-1.2,13.7-2.4,20.6c-0.6,3.4,1.2,4.5,4.1,3.9c3.7-0.7,7.4-0.8,11-1.1c2.7-0.2,5-1.4,5.4-4.9c1-8.8,3.7-17.5,1.9-26.6
		c-0.9-4.7-3.2-8.7-6.1-13.1c6.1,1.1,7.7,5.8,9.4,9.8c2.1,4.9,1.8,10.3,1.1,15.7c-0.9,7.8-2.2,15.5-3.5,23.3c-1,1-2.2,1.3-3.5,1.4
		c-1.8,0.2-3.5,0.9-5.3,0.9c-2,0.1-4,0-6,0c-0.7,0-1.5,0-2.2,0.1c-1.2,0.3-2.4,0.6-3.6,0.7c-1,0.1-2,0.2-3.1,0.1
		C517.6,283.5,516,283.4,514.7,282.2z"/>
	<path class="st0" d="M470.7,319.2c10.7,0.8,21.4,2.5,32.2,2.2c-1.5,3.8-3.9,7-7.5,9.5c0.1-0.7-0.1-1.3,0.2-1.6
		c2.2-3.3,1.3-4.2-2.5-4.1c-8.3,0.3-16.5-2-24.9-2.4c-0.3,2.6,2.4,4.3,2.4,7.7c-4-4.4-8.8-7.3-10.5-12.8c0.7-1,1.8-1.1,2.8-1.1
		C465.5,317.1,468.7,316.5,470.7,319.2z"/>
	<path class="st11" d="M462.9,317.2c-1,0.1-1.9,0.2-2.9,0.3c-10.1-11.1-15.7-24.6-20.5-38.5c-0.4-1.2-0.6-2.4-1-3.7
		c1.7,0,3.4-0.2,4.8,1.1c2.4,1.8,2.8,4.7,3.6,7.2c3.2,9.7,8.7,18.3,13.8,27C461.9,312.7,464.2,314.4,462.9,317.2z"/>
	<path class="st11" d="M539.1,280.4c1.3-0.1,2.5-0.1,3.8-0.2c-2.5,13.3-7,26-12.7,38.2c-1.1,1.5-2.4,2.1-4.1,0.9
		c-1-1.8-0.2-3.5,0.4-5.1c3.5-10.2,7.8-20.2,10.4-30.7C537.3,282.3,538.1,281.3,539.1,280.4z"/>
	<path class="st11" d="M514.7,282.2c1.6,0,3.2,0,4.8,0.1c-0.2,6.2-2.2,12.3-1.6,18.6c0.2,2.7,0.6,5.4,0.7,8.1c0.2,4,2.3,5.3,5.8,5.3
		c1.4,2.8-0.3,4.6-1.9,6.5c-2.5,1.1-5,2.4-7.8,0.5C513,308.3,513.3,295.2,514.7,282.2z"/>
	<path class="st0" d="M514.7,321.3c2.6-0.4,5.2-0.8,7.7-1.1c1.2-0.9,2.3-2,3.9-1c1.4,0.5,2.6-0.1,3.8-0.7c-0.8,4-3.1,7-6.2,9.3
		c-1.3-1,2.1-3.3-1.3-3.6c-2.7-0.2-4.1,0.7-4.7,3.6C515.8,326.1,514.5,324.1,514.7,321.3z"/>
	<path class="st11" d="M710.4,496.7c1.7,11.6,4.7,22.7,8.9,33.6c0.5,1.4,0.6,2.5-0.5,3.4c-1,0.8-2,0.4-3.1,0
		c-3.5-1.2-4.1-4.2-4.7-7.1C709.2,516.7,710.2,506.7,710.4,496.7z"/>
	<path class="st11" d="M641.3,445.9c13-0.5,26-2.1,39.1-1.6c12,0.5,23.9-1.6,35.8-1c4.7,0.3,8.3,4.5,7.4,9.1
		c-0.6,2.7-1.4,5.4-2.3,8.7c-5.2-5.8-11.2-9.9-18.9-11.3c-3.1-0.6-6.4-1.3-9.4-1.3c-8.7,0-17.4-1.6-26.1-1.1
		C658.3,447.7,649.9,445.7,641.3,445.9z"/>
	<path class="st11" d="M710.6,542.9c-13.4-1.2-26.8-1.3-40.1-2.5C683.9,540.5,697.4,538.8,710.6,542.9z"/>
	<path class="st12" d="M462.9,317.2c-3.2-5.7-6.2-11.6-9.7-17.2c-4.6-7.3-7.1-15.5-9.8-23.5c4.4-0.3,8.6,0.8,12.7,2
		c2.5,12.4,7.2,24,12.4,35.4c0.8,1.7,1.5,3.5,2.2,5.3C468.3,317.5,465.1,319.4,462.9,317.2z"/>
	<path d="M482.4,281.3c1.3,0,2.7,0,4,0c0.3,2.5-1.4,5,0.2,7.5c1.1,1.7,1.8,4.6,4.2,3.7c2-0.7,1-3.4,0.8-5.2c-0.3-2-2.2-3.7-1.4-5.9
		c1.5-0.3,2.8,0.2,4,1c2.2,9.6,0.1,18.8-1.9,28.1c-0.6,3.1-2.8,4.4-5.2,4.8c-2.2,0.4-4.4-1.2-5.5-3.2
		C476.6,302.8,475.7,290.8,482.4,281.3z"/>
	<path class="st11" d="M490.2,281.3c2,3.3,3.5,6.6,3,10.6c-0.3,2.5-1.4,3.7-3.7,2.6c-4.3-1.9-5.9-9.5-3.1-13.3
		C487.6,281.3,488.9,281.3,490.2,281.3z"/>
	<path d="M524.4,314.4c-4.5,1.9-6.2,0.8-6.8-3.6c-1.2-7.8-1.4-15.5,0-23.3c0.4-2,1.4-3.5,2-5.2c1,0,2,0,3,0c0.7,2.5-1.5,5-0.1,7.5
		c0.6,1.1,0.8,2.8,2.4,2.7c1.7-0.2,1.2-1.9,1.4-3.1c0.3-2.7-1.6-5.3-0.8-8.1c0.7,0,1.4,0,2,0c2.8,1.6,3.1,4.4,3.2,7.2
		c0.2,3.9,0.1,7.8-0.1,11.7c-0.6,3.3-1.2,6.6-2.3,9.8C527.5,311.8,526.8,313.9,524.4,314.4z"/>
	<path class="st12" d="M524.4,314.4c2.8-2.8,3.4-6.5,3.9-10.2c0.2-1.3,0.5-2.4,1.2-3.5c0.8-4.7,1-9.5,2.3-14.2
		c0.5-1.9,0.9-3.8,2.4-5.1c1.6-0.3,3.3-0.7,4.9-1c-2.9,13.4-8.7,25.7-12.7,38.7c-1.4-0.2-2.4,1.6-3.9,1
		C523.1,318.2,523.7,316.3,524.4,314.4z"/>
	<path class="st11" d="M525.3,281.3c2.1,3.4,2.2,7.2,2,11c0,1.3-0.6,2.2-1.8,2.5c-1.4,0.4-2.3-0.4-3.1-1.7c-2.4-3.7-2.8-7.3,0-10.9
		C523.5,282,524.4,281.6,525.3,281.3z"/>
	<path class="st11" d="M534.2,281.4c-1.4,6.5-2.4,13.1-4.7,19.3c-0.8-6.5,1.3-13.2-2.1-19.4C529.7,281.3,531.9,281.4,534.2,281.4z"
		/>
	<path class="st13" d="M488.3,309c0,1.2-0.1,2.3-1.2,3c-1.4,0.9-2-0.4-2.8-1c-0.3-0.2-0.5-0.5-0.7-0.7c-2.3-2.2-3.9-4.7-2.8-8.1
		c0.3-0.9,1.3-1.7,2.3-0.9C485.7,303.2,488.1,305.4,488.3,309z"/>
	<path class="st13" d="M518.6,306.6c-0.1-1.8,0-3.2,0.8-4.5c0.5-0.7,0.8-1.3,1.8-0.8c2.1,1,4.1,8.3,2.7,10.1c-1.3,1.6-2.8,1.5-4-0.1
		C518.9,309.8,518.2,308.1,518.6,306.6z"/>
</g>
</svg>
