<?xml version="1.0" encoding="utf-8"?>
<!-- Generator: Adobe Illustrator 23.0.1, SVG Export Plug-In . SVG Version: 6.00 Build 0)  -->
<svg version="1.1" id="Layer_4" xmlns="http://www.w3.org/2000/svg" xmlns:xlink="http://www.w3.org/1999/xlink" x="0px" y="0px"
	 viewBox="0 0 1000 1000" style="enable-background:new 0 0 1000 1000;" xml:space="preserve">
<style type="text/css">
	.st0{fill:#6E3720;}
	.st1{fill:#FB9A7A;}
	.st2{fill:#E00000;}
	.st3{fill:#7F0000;}
	.st4{fill:#CBB89A;}
	.st5{fill:none;}
	.st6{fill:#7797AA;}
	.st7{fill:#FEFEFE;}
	.st8{fill:#B1F5F3;}
	.st9{fill:#2B5260;}
	.st10{fill:#C0FEFE;}
	.st11{fill:#7F7F7F;}
	.st12{fill:#00407F;}
</style>
<g>
	<path class="st0" d="M518.5,466.9c-5.5,4.9-9.1,11.3-13.4,17.2c-6.8,9.3-14.6,17.7-22.1,26.5c-11,12.8-22.5,25.2-33.8,37.8
		c-1.5,1.7-3,3.5-4.8,4.8c-10,6.9-16.6,6.9-23.5-5.6c-4-7.2-5.8-15-5.9-23.3c0-4.1-1.2-8.3-0.9-12.5c1-14.7,2.2-29.4,3.7-44.1
		c1.7-16.5,5.7-32.4,10.1-48.3c2.3-8.5,5.2-16.9,9.1-24.8c3.1-6.3-0.6-12-2.1-17.7c-5.7-21-12.9-41.6-17.5-62.9
		c-1.9-8.9-1.9-18.1-3.4-27.1c-1.5-8.7-0.2-17.3,0.1-25.9c0.7-19.3,7.8-35,24.3-46.2c10.8-7.4,22.6-10.9,35.3-12.6
		c7.2-1,14.3-2.2,21.5-1.8c7,0.4,13.9,1.7,20.8,2.6c1.4,0.2,2.9,0.1,4.3,0.1c1.1,3.3-0.2,6.2-1.6,9.1c-6.2,1.3-12.1-1.2-18.3-1.4
		c-20.5-0.9-40.1,1.7-57.8,13.5c-10.4,7-15,17.2-17.5,28.7c-3.5,15.9-0.7,31.7,1.5,47.4c3.2,23.6,10.8,46.2,17.4,69
		c0.1,0.5,0.3,0.9,0.5,1.4c4.2,11.6,4.5,22.9-0.1,34.7c-9.4,24.1-14.4,49.3-17.7,74.8c-2.5,19.1-2.5,38.3,1,57.3
		c0.6,3.3,1.1,7.2,5.1,8.2c3.6,1,5.7-2,7.7-4.3c22.1-25.3,45.9-49.2,65.4-76.8c2.4-3.5,4.8-7,7.5-10.3c1.2-1.5,2.1-3.4,4.4-3.5
		C522.7,456.7,523,461.3,518.5,466.9z"/>
	<path d="M625.1,545.4c-3.9-8.4-10.9-11.7-19.4-13.3c-3.6-0.7-8,0.5-10.7-2.5c-1.3-1.4-2.3-3-4.1-3.7c-2.2-0.8-2.3-2.2-1.8-4.1
		c1.9-7.8,4-15.5,5.5-23.4c0.6-3.2,1.3-4.9,4.9-3.4c1.1,0.4,2.4-0.2,3.6-0.8c6-2.8,9.5-7.9,12.2-13.5c3.9-8.2,2.1-13-6-17
		c-1.7-0.8-3.2-1.8-5.2-2.2c-1.2-0.2-2.5-1-3-2.6c-1.6-5-4.9-8.7-9.3-11.5c-1.2-0.8-3.5-1.7-2.5-4c2-4.8,2.8-10.1,5.4-14.7
		c3.3-2.8,4.9-6.5,5.7-10.6c0,0,0,0,0,0c0-0.1,0-0.1,0-0.2c0-0.1,0-0.2,0.1-0.3c-5.3,0-10.4-0.6-15.1-3.1c-0.5-0.3-1.2-0.3-1.8-0.1
		c-0.1,0-0.3,0.1-0.4,0.1c0,0-0.1,0-0.1,0.1c-1.3,1.1-1.8,2.4-1.5,4c0.1,0.2,0.1,0.3,0.2,0.5c0,0.1,0.1,0.2,0.2,0.3
		c0.8,1.1,2,1.8,3.3,2.1c3.3,0.9,4,2.7,2.7,5.8c-1.2,3-2.3,6.1-3.1,9.2c-1.1,4.4-3.6,3.7-6.6,2.4c-2.6-1.2-5.7-1.5-3.6-6
		c1.3-2.8,4-5.5,2.6-9.2c0,0,0,0,0,0c0-0.1-0.1-0.2-0.1-0.2c-2.6-0.3-4.7,0.9-6.6,2.5c-0.2,0.2-0.3,0.5-0.5,0.7c0.4,0,0.8,0,1.2,0
		c-1.6,7.8-6.5,10.1-14.2,11c-6.8,0.8-11-2.7-16.1-5.2c0.1-0.3,0.3-0.5,0.4-0.8c-0.1,0-0.2-0.1-0.2-0.2c-3.3-1.6-6.5-3.7-10.4-3
		c-0.2,0-0.3,0-0.5,0.1c-0.1,0-0.2,0.1-0.2,0.1c-8.1,3.4-11.2,10.4-13.3,18.2c-0.3,1.4-0.4,2.8,0.7,4c0,0,0,0.1,0.1,0.1
		c3.6,5.1,3.2,10.4,1,15.8c-2.8,11-7.9,20.6-15.1,29.4c-9.5,11.7-8.7,13.6,3.8,19.9c15.8,8.1,31.9,15.8,47.7,23.8
		c6.5,3.4,12.6,8.3,19.9,9.2c4.6,0.6,7.1,2.9,10,5.6c8.3,7.8,18.4,11.1,29.6,10.4C624.2,564.7,629.4,554.5,625.1,545.4z M610,543.1
		c3,0.6,5.7,2.2,6.2,5.7c0.7,4.5-1.4,5.9-10,5.9c-6-0.7-12.8-3.6-18.7-8.7c-1.2-1.1-1.9-2.3-1.5-3.8c0.6-2.1,2.4-1.1,3.6-1.1
		C596.5,540.8,603.3,541.7,610,543.1z"/>
	<path class="st0" d="M557.3,339.6c-2.2,3.5,0.2,11.6,4,12.9c3.9,1.3,6.9,4,9.8,6.5c4.3,3.6,9.1,6.3,13.8,9.2
		c4.8,2.9,7.3,12.7,4.9,19.5c0.6,1.6-0.1,2.8-0.7,4.1c-0.1,0.2-0.2,0.5-0.3,0.7c0,0.1-0.1,0.2-0.1,0.3c-2.2,4.8-3.5,9.7-3.5,15
		c0,2.4-0.2,4.8-1.8,6.7c-0.1,0.2-0.3,0.3-0.5,0.5c-0.3,1.3-0.6,2.5-1,3.8c0,0.2-0.1,0.5-0.1,0.7c-0.5,2.4-1.7,4.3-4.7,4.4h0
		c-2,1-4,2-6,3c-0.4,0-0.8,0-1.2,0c-5.5,0.1-10.3-1.5-14.9-4.7c-2.7-1.9-7.1-3-8.8,0.6c-1.5,3.1-3.4,6-4.9,9.1
		c-0.2,0.3-0.3,0.6-0.4,0.8c-3.6-0.9-6.6-3.8-10.7-3.1c-0.1-0.3-0.2-0.5-0.2-0.8c-0.7-3,1.9-4.8,3-7.1c2.7-5.5,2.6-5.5-2.7-8.1
		c-7.7-3.8-11.7-10.6-13.5-18.7c-1-4.4-1.9-9-1.2-13.5c0.4-2.6-0.5-4-3-4.6c-5.4-1.2-10.4-3.8-15.3-6.3c-9.7-4.8-19.8-5.9-30.4-4.4
		c-2.4,0.4-4.8,0.6-7.3,0.2c-1.3-0.2-2-0.6-2.3-1.2c0-0.1-0.1-0.1-0.1-0.2c-0.2-0.7,0.1-1.6,0.9-2.7c4.6-6.1,17.2-10.3,24.8-8.1
		c9.8,2.9,19.5,6.4,28.9,10.4c5.7,2.4,9.7,2.3,14.1-2.8c4.7-5.4,10.3-10,17.7-11.6c2.8-0.6,3-2.6,2.5-4.9c-0.9-4.2,0.5-7.6,3.1-10.8
		c12.6-15.7,22.1-33.2,29.4-52c1.9-4.8,3.4-9.8,4.5-14.9c1.4-7.3,0.3-13.9-4-19.9c0-0.2,0.1-0.4,0.2-0.6c0-0.1,0-0.1,0.1-0.2v0
		c1.2-3.4,4.3-4.6,7.5-5.6c9.2,9.5,8.9,20.7,5.5,32.3c-5.2,17.5-13.2,33.7-22.8,49.2C565.8,328.7,560.9,333.7,557.3,339.6z"/>
	<path class="st0" d="M594.6,428.8c1.5-3.9,3-7.7,5.9-10.9c-0.6-1.6,0.4-2.7,1.2-3.8c4.3-3.6,4.8-9.3,7.5-13.8
		c3.9-11.3,9.4-14.5,21.2-12.7c6.7,1.1,13.3,2.7,20.2,3.2c8.9,0.6,14.5,6.7,18.4,14.2c6.5,12.6,7.2,25.4-1.3,37.3
		c-6.2,8.7-14.9,15.8-26,14.2c-8.4-1.2-17.8-0.9-24.9-7.4c-2.2-2-4.7-2.7-7.8-3.1C600.7,445.1,594.1,439.3,594.6,428.8z"/>
	<path d="M518.4,212c0.1-3.1,1-6,2-9c4.3-8.8,11-8.7,19.8-2.1c4.5,3.4,7.6,8.3,10.6,13.1c2.8,3.5,4.2,7.5,5.1,11.8
		c0.1,0.3,0.1,0.6,0.2,1c2.2,12-0.2,15.9-11.8,19.4c-11.2,0.9-17.4-2.5-22.4-12.2c-0.7-1.9-1.4-3.8-2.2-5.6c-0.3-1-0.5-2-0.6-3
		C518.6,220.9,516,216.6,518.4,212z"/>
	<path d="M586.8,241.2c-2.3,2.2-4.9,4.2-7.7,5.7c-0.6,1.3-1.7,1.7-2.9,2.1c-1.4,0.3-2.9,0.5-4.3,0.9c-1.5,0.3-3,0.4-4.6,0.3
		c-4.2-0.3-7.1-2.4-8.6-6.4c-1.2-5.2,0.5-10.2,1.4-15.3c1.1-2.9,0.9-6.3,3.4-8.7c1.6-1.6,2-3.8,3.1-5.6c2.1-3.6,4.5-7.2,9.2-7.2
		c5,0,8.6,2.8,11.1,7c4.6,8,5.6,16.2,0.9,24.5C587.4,239.4,587.1,240.3,586.8,241.2z"/>
	<path d="M609.3,400.3c-0.3,5.8-2.7,10.6-6.8,14.7c-1.4-1.6-0.5-3.3-0.1-5c1.7-7.1-0.3-11.2-6.7-14.6c-2.5-1.3-5.6-1.6-7.7-3.7
		c0.7-1.3,1.3-2.7,2-4C598,389.4,605.9,391.5,609.3,400.3z"/>
	<path class="st0" d="M563.5,219.9c-0.7,2.9-1.4,5.8-2.1,8.7c-2.8,0.3-4.7-1.2-6.6-2.9c-1.3-3.9-2.7-7.8-4-11.7
		C555,216,559.3,217.9,563.5,219.9z"/>
	<path class="st1" d="M554.8,225.7c2.6,0.2,4.5,1.9,6.6,2.9c-0.9,5.1-2.3,10.1-1.8,15.4c0,1.7-0.6,3.2-1.3,4.6
		c-12,24.5-18.1,50.7-22.6,77.4c-0.5,2.9-0.4,5.9,0.3,8.7c0.4,1.7,0.4,3.9,2.4,4.5c2.1,0.5,3.1-1.5,4.2-2.8
		c4.7-5.7,8.5-11.8,12-18.3c7.9-14.8,14.8-30,19.8-46.1c2-6.6,3.4-13.2,1.4-20.1c-0.4-1.2-0.6-2.6,0.4-3.7c1-0.4,1.9-0.9,2.9-1.3
		c5.7,4.8,6.8,11.3,5.7,18c-3.4,19.6-12.6,36.8-22.9,53.6c-3.8,6.1-7.2,12.5-12.5,17.6c-2.6,2.6-3.4,6.1-1.9,9.8
		c0.9,2.3,0.9,4.9-2,5.3c-9.6,1.3-15.6,8-21.6,14.4c-2.4,2.5-4.4,3.1-7.4,1.9c-9.1-3.5-18.4-6.5-27.4-10.3
		c-12.8-5.4-22.8-1.4-32,7.9c3.4,0,6.3,0.4,9-0.1c11-2.1,21.3-0.7,31.5,4.1c5.6,2.7,11.1,5.9,17.4,6.8c2.6,0.4,2.8,1.5,2.5,4
		c-1.3,11.3,0.7,21.7,9.4,30c1.8,1.7,3.6,3,6.3,3.2c4.1,0.3,4.9,2.3,2.8,5.8c-2,3.5-3.7,7.1-5.5,10.6c-8.3,4.8-12,12.3-12.7,21.5
		c-11.7,15.6-22.9,31.7-35.9,46.4c-9,10.1-18.2,20.1-27.2,30.2c-5,5.5-9.8,11.1-14.8,16.7c-2,2.2-4.1,4.3-7.5,3.3
		c-3.4-1-4.6-4.1-5.2-7c-1.3-6.4-2.6-12.9-2.9-19.4c-0.5-9.6-0.7-19.2,0-28.8c0.8-10.7,2.9-21.2,4.5-31.8
		c2.9-18.9,8.3-37.1,14.3-55.2c1.6-4.7,3.5-9.4,4-14.3c0.7-6.4-1.6-12.6-3.4-18.7c-5.4-18.4-11.2-36.7-15.3-55.4
		c-2.1-9.8-3.8-19.8-4.6-29.9c-0.4-4.6-1.3-9.4-1.4-13.8c-0.3-15.9,1.5-31.8,12.8-44.2c8.1-8.9,19.3-14,31-16.7
		c9.5-2.2,19.3-3.7,29.2-3.2c7.9,0.4,15.6,1.3,23.3,3c0.6,4.5,1.3,9.1,1.9,13.6c-4.2,2.4-8.9,1.1-13.3,2.2c-2.8,0.7-5.7,1.3-8.6,1.8
		c-12.4,2.6-17.5,11.2-19.5,22.7c-2.1,11.8,0.7,23.3,1.9,34.9c1.4,13.2,4.8,25.9,9.7,38.2c1.5,3.9,3.8,7.2,6.7,10.1
		c6,6.2,13.1,6.5,19.4,0.7c5.2-4.8,9.4-10.5,12.1-17c7.2-17.4,12-35.3,13-54.2c0.3-5.3,1.1-10.7,1-16c0-1.3,0.3-2.6,1.2-3.6
		c1.3-0.5,2.6-1,3.9-1.6c7.3-3.1,9-6.8,7-14.6C554.6,228,554.8,226.8,554.8,225.7z"/>
	<path class="st2" d="M588.9,492.2c-1.8,8.2-3.6,16.5-5.6,24.7c-1.8,7.5-2.1,7.9-8.4,3.8c-10.5-6.8-21.9-12-32.9-17.7
		c-6.7-3.2-13.5-6.3-20.4-9.1c-4.4-1.7-4.8-4-2.3-8c6.5-10.1,15.4-13.7,27.1-11.4c14.2,2.8,26.7,9.9,39.8,15.6
		C587.3,490.5,588.3,491.2,588.9,492.2z"/>
	<path class="st2" d="M538.2,439.3c5.4,1,10.2,3.6,15,5.9c9,4.3,18.3,8.2,26.7,13.7c-1.6,1.6-3,0.2-4.4-0.4
		c-3.7-1.6-7.1-3.8-9.4-4.9c11.4,7.8,28,10.7,36.1,25.9c3.4-1.7,1.9-5.3,3.3-7.7c4,0.5,4.7,2.7,2.8,6c-0.7,1.2-1.5,2.4-2.3,3.6
		c-5.5,7.4-6.3,7.4-14.2,2.5c-2.3-1.4-4.7-2.6-6.8-4.4c-14.3-10.4-30.2-17.7-46.3-24.7c-1.9-0.8-3.9-1.7-5.6-3
		c-3-2.2-4.7-5.1-3.3-8.8C531.4,439.1,534.4,438.2,538.2,439.3z"/>
	<path class="st3" d="M588.9,492.2c-9.3-4-18.8-7.9-28-12.1c-6.6-3-13.5-4.4-20.5-5.4c-7.2-1-18.6,6.8-21.4,13.8
		c-0.9,2.4,0.6,3.2,2.3,4c5.4,2.5,10.9,5,16.3,7.7c1.6,0.8,3.4,1.2,4.5,2.7c-6.1-1.1-11.1-5.2-17-6.7c-0.8-0.2-1.5-0.7-2.2-1
		c-8.5-3.2-8.7-3.3-4.5-11c3.4-6.3,5.8-13,7.8-19.8c1-3.3,2.3-3.5,5.2-2.5c14.7,4.9,29.2,10.4,42.8,18c5.3,3,10.1,6.9,15.1,10.4
		C590,491,589.7,491.6,588.9,492.2z"/>
	<path class="st2" d="M548.8,518.5c7.8,3.7,15.6,7.5,23.5,11.2c2.9,1.4,4.6,4,6.9,6c1.9,1.7,0.4,3.4-0.4,4.8c-0.9,1.5-2,3.1-4.3,2.1
		c-1-0.4-2.2-0.6-3.2-1.1c-16.8-8.4-33.6-16.6-49.9-25.9c-1.2-1-3-1.8-2.2-3.8c0.8-2,2.6-2.2,4.5-2c7.6,0.6,14.1,4.4,21,7.1
		C546.2,517.4,547.5,517.9,548.8,518.5z"/>
	<path class="st4" d="M587.9,391.6c4.5,0.2,8.2,2.3,11.8,4.6c4.1,2.7,5.5,8.3,4.1,13.2c-0.5,1.8-0.9,3.7-1.3,5.5c-0.7,1-1.3,2-2,2.9
		c-4.6,1.9-8.9,1-13.2-1.2c-1.4-0.7-2.6-1.8-4.3-1.8C584.5,407.2,583.3,398.8,587.9,391.6z"/>
	<path class="st5" d="M570,426.9c-0.1,0.2-0.3,0.4-0.4,0.7c-3.8,1.3-7.4-0.3-10.9-1.8c-1.6-0.7-3.1-1.8-4.7-2.5
		c-4-1.7-5.7-1-7.8,2.8c-1.2,2.2-2,4.9-4.3,6.2c-0.2-0.1-0.3-0.3-0.5-0.4c1.6-3.1,3.4-6,4.9-9.1c1.8-3.6,6.1-2.5,8.8-0.6
		C559.7,425.4,564.5,427,570,426.9z"/>
	<path class="st5" d="M569.6,427.5c-1,1.7-1.8,3.6-2.6,5.5c-0.5,1.2-1.1,2.2-2.7,2.5c-8,1.4-15.7,1.8-22.6-3.3
		c2.4-1.3,3.1-4,4.3-6.2c2.1-3.8,3.9-4.5,7.8-2.8c1.6,0.7,3.1,1.8,4.7,2.5C562.2,427.3,565.8,428.8,569.6,427.5z"/>
	<path class="st5" d="M571.2,426.8c-1.6,7.8-6.5,10.1-14.2,11c-6.8,0.8-11-2.7-16.1-5.2c0.3-0.1,0.6-0.3,0.9-0.4
		c6.9,5.1,14.6,4.7,22.6,3.3c1.5-0.3,2.2-1.2,2.7-2.5c0.8-1.9,1.5-3.7,2.6-5.5C570.1,427.4,570.7,427.1,571.2,426.8z"/>
	<path class="st5" d="M541.8,432.2c-0.3,0.2-0.6,0.3-0.9,0.4c0.1-0.3,0.3-0.5,0.4-0.8C541.5,432,541.6,432.1,541.8,432.2z"/>
	<path class="st5" d="M571.2,426.8c-0.5,0.3-1.1,0.5-1.6,0.7c0.1-0.2,0.3-0.5,0.4-0.7C570.4,426.9,570.8,426.9,571.2,426.8z"/>
	<path class="st5" d="M606.1,554.7c-6-0.7-12.8-3.6-18.7-8.7c-1.2-1.1-1.9-2.3-1.5-3.8c0.6-2.1,2.4-1.1,3.6-1.1
		c6.9-0.3,13.7,0.7,20.4,2c3,0.6,5.7,2.2,6.2,5.7C616.9,553.3,614.8,554.7,606.1,554.7z"/>
	<path class="st3" d="M538.2,439.3c-3.7,0-7,1-7.7,5.1c-0.7,4,2.2,6,5.4,7.7c11.3,5.9,23.5,9.8,34.4,16.6
		c5.2,3.2,10.2,6.6,14.6,10.8c-5.2-1.7-9.6-5.2-14.4-7.7c-12.6-6.6-25.8-11.7-39.1-16.5c-9.2-3.3-10.1-5.6-4.8-13.5
		C530,436.9,531.8,436.5,538.2,439.3z"/>
	<path class="st2" d="M520.6,497.9c11.2,2.7,20.8,9,31.2,13.6c4.4,4,10,6,15.1,9c1.6,0.9,2.8,3.6,5.4,1.9c1.4-0.2,2.4,0.9,3.5,1.3
		c-0.9,1.3-1.6,2.7-2.7,3.8c-1.5,1.6-2.1-0.5-3.1-1c-16.3-8.9-32.9-17-50.1-24c-0.9-0.3-1.6-1-2.4-1.5c-0.8-0.7-1.8-1.6-1-2.7
		C517.6,496.7,519.2,497.5,520.6,497.9z"/>
	<path class="st4" d="M577.2,423.9c2.3-1.1,3.3-3.4,4.9-5.1c0.8,0.4,1.7,0.9,2.5,1.3c6.2,2.8,6.2,2.8,4.1,9.1
		c-0.8,2.2-1.7,4.4-2.4,6.6c-2.4,6.9-2.2,6.3-9.3,4.2c-5.6-1.7-5.6-3.6-3-7.9C575.4,429.6,576.1,426.6,577.2,423.9z"/>
	<path class="st6" d="M621.1,557.6c-1.2,4.8-5.7,4.6-8.8,4.7c-10.6,0.1-20.2-3-27.6-11c-0.9-0.9-3.1-1.8-1.7-3.4
		c1.4-1.6,2.9,0.7,3.7,1.4c5.4,4.4,11.3,7.6,18.1,9c4,0.8,7.7-0.2,11-2c5.1-2.9,4.4-10.6-1-14.1c-3.3-2.1-7.1-2.9-10.9-3
		c-3.4-0.1-6.6-1.2-10-1.1c-1,0-2,0.1-2-1.4c0-1.3,0.7-2.4,1.9-2.4c2,0,4.2-1,5.9,0.8c-0.9,1.1-2.1,0.5-3.2,0.5
		c4.7,0.7,9.4,1.2,14,2.3c9.4,2.2,13.1,9.1,9.7,18.2C619.6,557.5,620.6,557.2,621.1,557.6z"/>
	<path class="st3" d="M548.8,518.5c-6-0.8-11-4.5-16.8-5.9c-2.5-0.6-5.1-0.8-7.5-1.5c-1.6-0.4-3.3-1-4.4,0.7
		c-1.2,1.7,1.1,2.4,1.4,3.8c-4.6-2-9.2-3.7-13.6-6c-1.6-0.8-5.2-1.5-3.3-4.6c1.4-2.3,3.2-4.7,7-3.1c9.2,4.1,18.7,7.8,27.9,12
		C542.6,515.4,546.3,515.8,548.8,518.5z"/>
	<path class="st7" d="M605.5,471.8c1.9,4.4-0.7,7.4-3.5,10.9c-3.3-10.9-12.3-15.1-20.8-19.9c-6.5-3.6-13-7.3-19.3-11.3
		c6.5,1.4,11.5,6.3,18.1,7.4c1.8,1.5,3.7,2.6,6,3.1c1.6,0.6,3.2,1,4.7,1.8C595.6,466.5,600.5,469.2,605.5,471.8z"/>
	<path class="st4" d="M559.2,441.7c14.1,0.5,26.7,4.6,36.2,15.9C583.5,452,571.3,447.1,559.2,441.7z"/>
	<path class="st8" d="M621.1,557.6c-1.5,0.4-2.6,1.9-4.4,1.6c9.4-11.6,0.8-20.1-11.8-21.1c-3.4-0.3-6.5-1.2-9.6-3c1.4,0,2.8,0,4.3,0
		c3.3,0.4,6.6,0.8,9.9,1.3c7,1.1,11.4,5.2,13.9,11.6C625,551.8,622.9,554.7,621.1,557.6z"/>
	<path class="st9" d="M582,526.4c1.5,0.4,3.8,0.9,6,1.6c1.6,0.5,3.6,1.6,3.3,3c-0.4,2.2-1.8,4.3-3,6.3c-0.1,0.2-1.4-0.3-2.1-0.6
		c-3.5-1.5-5.6-4.7-8.3-7.2c-0.6-0.6-0.9-1.3-0.4-2.1C578.5,526.2,579.9,526.4,582,526.4z"/>
	<path class="st7" d="M572.2,522.5c0.1,0.9,1.5,1.5,0.8,2.5c-0.6,0.8-1.4,0.1-2.1-0.3c-6.1-4.5-12.8-8-19.4-11.7
		c-0.2-0.1-0.4-0.5-0.4-0.7c0-0.2,0.4-0.4,0.6-0.6c5.2,2.7,10.4,5.4,15.6,8.1C569,520.7,570.8,521.3,572.2,522.5L572.2,522.5z"/>
	<path class="st3" d="M520.6,497.9c-1.8,0.3-4.9-0.7-3.1,3.2c-1.5-0.5-3.1-0.9-4.6-1.5c-0.9-0.4-2.5-0.6-1.7-2.3
		c0.5-1.2,1.2-2.5,2.8-2.1C516.3,495.8,518.8,496.2,520.6,497.9z"/>
	<path class="st2" d="M572.3,522.5c-2-0.3-3.8-0.9-4.9-2.8C569.5,519.7,571.3,520.5,572.3,522.5z"/>
	<path class="st2" d="M590.7,463.9c-1.9,0.2-3.4-0.5-4.7-1.8C587.9,461.6,589.5,462.2,590.7,463.9z"/>
	<path class="st1" d="M561.3,410.7c-8.4,6.1-16,5.7-22.1-1.7c-0.7-0.9-1.5-1.6-2.8-1.7c-6.3-0.1-8.9-4.7-10.8-9.6
		c-6.6-17.1,5-32.4,16.2-37.7c8.1-3.9,15.5-3.3,22.3,2.7c3.7,3.3,7.9,5.4,12.3,7.5c6.8,3.3,12,10.7,5.5,19.4
		c-4.2,5.6-4.2,11.6-4.6,17.7c-0.2,2.8-0.6,5.4-1.7,7.9c-1.5,3.4-6.9,6.2-10.4,5.5c-4-0.8-5.1-3.1-3.9-7.2
		C561.5,412.7,561.3,411.7,561.3,410.7z"/>
	<path class="st1" d="M617.2,433.1c-2.6,0.7-3,2.7-3.8,4.1c-2.2,3.9-5,4.2-8.1,0.6c-3.8-4.4-4-11.9,0.2-16.4
		c5.1-5.5,8.8-11.3,10-19.1c1.1-7.4,7.4-10.1,14.8-7.8c5.4,1.7,11,2.4,16.5,2.8c9.9,0.7,16.9,6.1,19.1,15.8
		c2.8,12.3,0.9,23.6-9.3,32c-5.6,4.6-11.9,8.4-19.8,4.2c-2.1-1.1-4.6-1.5-7.4-0.6c-4.6,1.4-11.2-5.4-12.2-12
		C617.1,435.7,617.2,434.5,617.2,433.1z"/>
	<path class="st7" d="M543.9,245.3c0.4,20.1-2.3,39.8-8.2,59c-3.2,10.6-7.4,20.9-14.7,29.5c-11,13.1-22.9,9.5-30.6-5.5
		c-5.4-10.4-8-22-9.9-33.6c-1.7-10.3-3.5-20.7-3.8-31c-0.3-10.8,0.9-21.7,9.5-29.9c5.2-4.9,12.1-5.8,18.6-7.2
		c5-1.1,10.2-1.7,15.4-1.1c0.1,0.9,0.2,1.9,0.2,2.8c-3.1,2.2-6.8,1.9-10.3,2.3c-21,2.1-26.2,6.7-28.2,31.3
		c-0.7,8.7,0.8,17.8,2.4,26.6c2.5,13.8,5.2,27.5,11.8,38.9c-2.7-11.7-4.8-24.6-5.7-37.8c-0.6-9-1-17.8,0.2-26.7
		c0.6-4.5,1.3-9,3.3-13.2c5.4-11.5,15.4-17.3,28.3-16.6C527.1,241.9,534.1,246,543.9,245.3z"/>
	<path class="st10" d="M522.5,233.3c-2.4,1.6-5.2,1.5-7.8,2c-12.7,2.3-18.5,9.1-21.3,21c-3.9,16.4-1.9,33.1,0.3,49.6
		c1.2,9.1,3.3,18,5.2,27c-0.4,0.2-0.7,0.4-1.1,0.5c-2.1-4.2-4.5-8.2-6.2-12.5c-5.2-12.8-7.9-26.2-9.4-39.9
		c-0.6-5.3-0.8-10.6-1.5-15.9c-1.2-9.4,1.6-18.4,6.1-26.6c2.2-4.1,6.7-6,11.2-7.2c7.4-1.9,14.9-2.5,22.5-3
		C522.1,229.7,522.6,231.4,522.5,233.3z"/>
	<path class="st11" d="M537.9,206.4c4.3,0.6,5.3,4,7.1,6.6c2.7,3.8,4.7,7.9,6.2,12.3c0.8,2.3,1.2,4.5-0.9,6.1
		c-1.6,1.3-3.8,2.4-5.7,1.6c-2.3-0.9-3.6-3.3-3.5-5.9C541.3,220.3,539.8,213.6,537.9,206.4z"/>
	<path class="st7" d="M576.2,248.2c2.8,7.9,2.4,15.8-0.2,23.6c-6.5,19.9-14.9,39-26.1,56.8c-2.5,3.9-5.4,7.6-8.4,11.1
		c-2.7,3.1-4.8,2.5-6.1-1.5c-1.9-5.9-1.2-11.7-0.2-17.7c3.5-20.9,9.2-41.3,16.6-61.1c2-5.4,4.6-10.6,7.8-15.4
		c1.8,2.9,4.1,5.1,7.8,5.2c2.6,4.8,2.9,9.9,1.9,15c-2.1,10.3-5.2,20.3-8.7,30.2c-0.6,1.8-1.3,3.7-3.3,4.6c-2.4-1.1-1.7-3.2-1.4-5
		c0.4-2,0.3-3.8-0.2-5.7c-0.5-1.7-0.6-3.8-2.8-4c-2-0.2-3.3,1.3-4.3,2.8c-3.6,5.7-4.7,12.3-6.1,18.8c-0.4,1.9-0.8,3.8-1,5.7
		c-0.2,1.7,0.1,3.3,1.4,4.4c1.5,1.2,2.7-0.1,3.9-0.8c1-0.6,1.9-1.3,3.1-1c1.3,2.1-0.1,3.8-0.9,5.4c-1.7,3.5-3.8,6.8-5.1,9
		c11.4-18.4,21.4-38.9,27.1-61.3c1.3-5.1,2.7-10.1,0.8-15.3c-0.4-1.1-0.5-2.2,0.3-3.2C573.2,247.3,574.8,248.3,576.2,248.2z"/>
	<path class="st10" d="M572.2,248.9c4,8.8,0.5,17.1-1.9,25.4c-6.2,21.3-16.1,40.8-28.8,58.9c2-6.6,6.3-12.2,8.2-18.9
		c1.4-5.6,2.4-11.3,6.8-15.6c5.2-7.3,6-16.2,8.8-24.4c2.8-8.2,3.9-16.6,2-25.2C569,249.1,570.6,249,572.2,248.9z"/>
	<path class="st11" d="M580.2,214.1c7.9,7.5,9.4,15.3,1.9,22.6c-1,1-1.8,3.6-4.2,1.8c-2-1.5-2.1-3.6-1.4-5.7
		c0.8-2.4,2.2-4.5,2.8-7.1C580,222,580,218.4,580.2,214.1z"/>
	<path class="st7" d="M586.3,497c-2,8.4-3.7,15.3-5.3,22.2c-0.3,1.2-0.9,2.3-2.2,2.1c-1.2-0.2-1.6-1.3-1.7-2.5
		c-0.3-2.8,0.2-5.5,1.4-7.9C580.8,506.7,582.3,502,586.3,497z"/>
	<path d="M517.6,303c0.6-5.1,1.6-11.4,4.9-17.1c2-3.4,8.2-6.8,10.8-5.6c3.3,1.6,5.4,4.9,4.6,8.1c-1.5,6.2-2.2,12.7-5.4,18.4
		c-1.4,2.5-2.2,5.2-4.4,7.2c-3.6,3.2-6,2.9-8.5-1.1C518.7,311.4,517.6,307,517.6,303z"/>
	<path d="M556.6,298.8c-2.5,5.1-3.6,10.8-6.8,15.6c-0.5,0.4-1,0.7-1.5,1.1c-1.8,1.5-3.5,3.9-6.1,2.3c-2.4-1.5-2.6-4.4-2.1-7
		c1.3-6.6,2.5-13.2,4.8-19.6c1-2.8,2.3-5.6,4.8-7.5c3.5-2.7,5.6-1.8,7,2.3C558.1,290.4,556.8,294.6,556.6,298.8z"/>
	<path class="st7" d="M535.1,289.8c0,1.2,0.4,2.5-0.1,3.4c-0.7,1.4-0.8,3.6-3.1,3.6c-1.9,0-2.8-1.4-3.5-2.9c-0.5-1-0.6-2.1-1.1-3
		c-1.3-2.5-1.7-4.7,0.6-6.9c1.3-1.2,2.8-1.3,4-0.5C533.9,285,536,286.8,535.1,289.8z"/>
	<path class="st12" d="M526.4,309.2c-0.1,1.5,0.2,4.5-2,3.9c-3.5-1-5-4.2-4.8-8c0.1-1.6-0.4-3.5,1.8-3.9
		C523.4,300.7,526.4,305.5,526.4,309.2z"/>
	<path class="st7" d="M551.4,286.3c1.6-0.4,2.2,0.2,2.8,0.8c1.8,1.9,0.8,9.7-1.5,11.2c-0.4,0.2-1,0.6-1.3,0.4
		c-2.7-1.9-3.2-5.1-3.5-7.9C547.7,288.3,550.2,287.3,551.4,286.3z"/>
	<path class="st12" d="M547.9,310.7c0.2,1.8-0.5,4.2-2.9,4.3c-2.5,0.1-3.3-2.3-3-4.6c0.3-2.4,0.1-6.1,3.1-6.2
		C547.6,304.2,547.8,307.7,547.9,310.7z"/>
</g>
</svg>
