<?xml version="1.0" encoding="utf-8"?>
<!-- Generator: Adobe Illustrator 23.0.1, SVG Export Plug-In . SVG Version: 6.00 Build 0)  -->
<svg version="1.1" id="Layer_4" xmlns="http://www.w3.org/2000/svg" xmlns:xlink="http://www.w3.org/1999/xlink" x="0px" y="0px"
	 viewBox="0 0 1000 1000" style="enable-background:new 0 0 1000 1000;" xml:space="preserve">
<style type="text/css">
	.st0{fill:#6E3720;}
	.st1{fill:#FB9A7A;}
	.st2{fill:#CBB89A;}
	.st3{fill:#E00000;}
	.st4{fill:#7F0000;}
	.st5{fill:none;}
	.st6{fill:#7898AB;}
	.st7{fill:#800000;}
	.st8{fill:#B0F3F2;}
	.st9{fill:#2B5260;}
	.st10{fill:#7F7F7F;}
	.st11{fill:#FEFEFE;}
	.st12{fill:#C0FEFE;}
	.st13{fill:#00407F;}
</style>
<g>
	<path class="st0" d="M636.6,403.4c-8.4,4.5-17.1,7.5-26.9,4.9c-1.6-0.4-3.4-0.2-5.1,0.8c-8.3,5.3-17.2,6.3-26.4,2.9
		c-3.5-1.3-6.8-0.6-9.8,0.3c-7.2,2.2-12.7-1-18.3-4.3c-4.6-2.8-8.8-6.2-13.1-11c0,2.6-0.1,4.2,0,5.7c0.7,14.3-0.7,28.5-1.2,42.7
		c-0.5,15.7-2.2,31.3-3.8,47c-0.8,8.2-2.8,16.3-3.7,24.5c-0.6,5.9,0.9,11.7,3.2,17.2c2.1,5.2,5.5,9.9,6.8,15.6
		c2.7,11.5-3.4,17.6-13,19.5c-18.6,3.9-37.7,2-56.6,2c-5,0-10.2-0.8-15.1-2.1c-11-2.8-17.4-15.1-11.1-27.6
		c4.2-8.3,6.3-16.8,5.3-25.8c-1-9.8-4.6-18.9-7.5-28.3c-4.9-16.3-9.6-32.8-11-50c-0.7-8-1.9-15.9-1.9-24c0.1-17-4.5-32.7-11.9-48
		c-11.8-24.3-23.6-48.6-31.6-74.5c-2.3-7.5-3-15.2-4.2-22.9c-1-6.5-1.8-13-2-19.6c-0.4-15.4,5.4-28.4,16-39.5
		c13-13.5,29.5-20,47.1-24.2c10.4-2.5,21.2-3.6,32-3c21.7,1.3,43.1,4.4,61.4,17.4c14.1,10.1,21.1,23.2,18.5,41.5
		c-2.5,17-6.8,33.5-11.4,49.9c-1.8,6.3-4.5,12.5-7.7,18.3c-2.4,4.4-2.9,8,0.1,12.1c0.7,0.9,0.9,2,1.5,3.2
		c4.2-5.9,9.6-10.2,15.6-13.8c9.7-5.8,19.9-7.1,30.6-3.7c7.6,2.5,15.3,3.1,23.2,2.9c13.2-0.4,22.6,5.2,27.9,17.6
		c0.8,1.9,0.2,4.2,1.9,5.8c1.5,1.9,1.3,4.2,1.1,6.4c-2.2,8.2,0.3,15.7,3.7,22.9c2.3,5,4.4,10,6,15.3c0.3,2,0.9,4,1,6.1
		c0.1,4.5-1,8.6-3.2,12.5C641.5,398.8,640.2,402.3,636.6,403.4z"/>
	<path d="M808.6,547.9c-2.3-16.5-19.9-23-32.1-21.1c-8.9,1.4-16.9,5.4-25.2,8.7c-1.2,0.5-2.3,1.3-3.2-0.3c-2.8-4.6-6.7-4.8-11.2-3.2
		c-2.3,0.8-3.2-0.2-3.9-2.5c-4.5-14.7-8.4-29.6-11.4-44.7c-0.4-1.9,0-2.3,1.8-2.8c3-0.8,6.4-1.2,8.2-4.2
		c6.8-11.6,11.2-23.8,7.1-37.4c-1.5-5.1-4.3-9.1-10.6-10.1c-3.4-0.5-6.7-0.5-10-0.6c-6.7-0.3-13.3,0.8-19.4-4.5
		c-5.5-4.6-13-6-20.1-7.3c-3.1-0.5-4.9-1.9-5.4-5.1c-1.4-9.9-2.9-19.8-4.3-29.6c-0.2-1.6,0.1-2.9,1.9-3.4c1.9-3.6,2.8-7.4,1.5-11.5
		c-0.2-0.2-0.3-0.3-0.5-0.3c0,0,0,0,0,0c-0.8-0.4-1.4,0.3-1.9,0.9c-3.4,4.7-8.3,6.1-13.7,7c-3.5,0.6-7.3-0.3-10.7,1.3
		c-0.3,0.2-0.7,0.4-1,0.6c0.3,2,0.6,4,1,5.9c0.4,0.3,0.8,0.5,1.2,0.7c2.6,1.2,5.5,0.6,8.2,0.4c5.7-0.5,5.9-0.4,6.7,5.4
		c0.9,6.1,1.7,12.2,2.6,18.3c1.2,8.1,1,8.2-6.9,9c-2.3,0.2-4.5,0.6-6.7,1c-3.6,0.6-5.1-0.8-5.5-4.3c-0.4-4.2-0.1-8.5-0.3-12.7
		c-0.1-1.8,0.4-4-1.6-5c-0.2-0.1-0.4-0.2-0.6-0.3c-2,2.3-4,4.7-6.1,7c0.4,2.4,0.4,4.7,0.9,7.1c0.7,3.6,0.7,7.6-0.3,11.1
		c-0.7,2.5-4.7,2.1-6.9,3.5c-1.2,0.7-2.5,1.4-3.5,2.4c-6.3,6.4-14,8.8-22.9,8.2c-5.2-0.3-10.4-0.1-15.6,0
		c-7.6,0.1-10.6,2.3-12.9,9.3c-2.3,6.9-1.7,14.2-0.9,21.1c0.9,7.6,3.2,15.4,12,18.3c1.6,0.5,1.1,1.6,1.5,2.6
		c4.7,11.6,4.8,23.9,5.6,36c0.9,13.8-1.7,27.3-4.8,40.7c-2.3,9.9,2.1,15.6,12.2,15.6c15.7,0.1,31.3-1.3,46.9-1.9
		c19.5-0.7,38.9,1.7,58.3,0.9c3.1-0.1,6.2,0,9.3,0c7.2,0,14.4,0.1,20.9-3.5c1.4-0.8,2.3,0.2,3.5,0.5c7.5,2.2,15.2,3.4,22.8,3.9
		c11.9,0.7,23.2-2.3,33.7-7.9C806.2,566,810.1,558.5,808.6,547.9z M745,554.6c1,0,2.2-0.6,3-1.3c9.4-8.9,22.1-10,33.5-14.1
		c4.2-1.5,11.4,3.5,13.3,8.2c1.3,3.4-1.7,9.8-5.7,12.2c-7.6,4.7-16.3,5.4-25.2,7c-6.1-1-12.7-2.1-19.2-3.3c-2.9-0.6-3-3.3-3.4-5.5
		C740.8,555.1,742.8,554.7,745,554.6z"/>
	<path class="st0" d="M670.8,379.9c0.3-3.9,0.7-7.9,1-11.8c-0.3-0.4-0.5-0.9-0.5-1.4c0-0.3,0-0.7,0.1-1c2.5-9,3.1-18,0.3-27
		c-1-5.2-1.5-10.4,0.5-15.5c3.8-9.8,10.9-16.4,20.8-19.5c9.5-2.9,18.9-5.6,28.1-9.5c16.1-6.8,30.4-1.6,43.1,8.9
		c4.7,3.9,9.6,7.8,13.2,13.2c5.2,7.8,7.6,16,8.8,25.2c1.6,11.9-0.7,22.9-6.4,33c-5.7,10-12.8,18.9-24.8,22.6c-3,0.9-5.2-1.2-7.9-0.2
		c-3.1,1.2-6.3,2.1-9.2,3.6c-4.7,2.5-9.3,3.9-14.6,1.9c-6.7-2.6-13-0.7-19.6,1.4c-13.6,4.5-25.4-1.7-30.9-14.2
		C671.6,386.6,671.5,383.2,670.8,379.9z"/>
	<path d="M471.1,168c-6,0.5-12.3-1-18-4.4c-9.7-5.9-10.7-13.9-1.7-20.4c10.8-7.8,23.4-10,36.5-7.3c4.8,1,11,9.1,8.8,16.5
		c-3.1,10.6-9.2,15.5-20.6,15.7C474.7,168,473.2,168,471.1,168z"/>
	<path d="M523.2,168c-4.2,0.2-8.2-0.9-12-2.3c-8.3-3-10.6-13-4.5-20.3c5.4-6.6,12.7-9.7,21.2-8.6c7.9,1.1,12.7,6.5,15.7,13.6
		c1.4,3.4-1.9,10.9-6,13.5C533.1,166.7,528.4,168.1,523.2,168z"/>
	<path d="M671.8,338.8c4.5,7.4,4.2,15.1,1.7,22.9c-0.6,1.8,0.2,4-1.5,5.4c-2.2-2-1.2-4.9-1.9-7.3c-0.3-0.9-0.4-1.9-0.5-2.9
		c-1.9-14-9.2-17.8-23.9-17.4c-3.6,0.1-7.2,2.1-10.9,0.3c0-2.3,0-4.6,0-6.9c8.4-1.6,16.9-2.7,25.4-0.8c3.6,0.8,6.1,3.7,9.1,5.7
		C670.1,338.4,670.7,339.2,671.8,338.8z"/>
	<path class="st1" d="M453.7,385.1c4.9-3.6,6.9-7.7,9.8-11.2c7.4-8.9,17.4-12.5,28.4-13.5c6.2-0.6,12.5-1.5,18.9-1.2
		c3,0.1,4.6,1.1,5.9,3.8c4.2,8.9,6.3,18.4,7.9,28.1c1.6,10.1,2.3,20.2,1.8,30.4c-0.8,19.4-2.3,38.7-3.1,58.1
		c-0.5,12.5-2.8,24.9-3.6,37.4c-0.6,8.8,1.4,17.2,5.7,25c0.5,0.8,0.8,1.7,1.3,2.6c4.9,9.9,3.3,13.4-7.5,16.1
		c-15.7,3.9-31.6,3.3-47.6,2c-4.7-0.4-9.2-1.1-13.8-2.2c-7.9-1.8-10.2-6.5-6.8-13.9c2.9-6.4,5.9-12.6,7.3-19.7
		c1.4-7.3-0.4-14-1.7-20.9c-4.1-21.7-12.1-42.4-16.4-64.1c-1.6-7.9-2.5-16-2.5-23.9c0-20.5-5.1-39.9-14.1-57.9
		c-12.4-24.6-22.8-49.8-31.4-75.9c-2.7-8.1-3.3-16.6-4.6-25c-1.5-9.5-0.4-18.6,2.3-27.6c2.2-7.3,6.3-13.6,12.3-18.7
		c13.6-11.6,30.2-16.7,46.9-21.1c8.4-2.2,17.5-1.8,26.4-0.7c11.3,1.4,22.7,1.8,33.7,5.2c12.7,3.9,23.9,10.7,31.5,21.8
		c4.1,6.1,4.2,13.9,3.3,21.1c-1.3,11.4-2.5,22.9-5.8,34c-3.3,11.3-5.5,23.2-11.9,33.4c-3.5,5.6-3.2,10.8-1.3,16.7
		c4.8,14.9-3.4,25.3-19.2,26.4c-13,0.9-26.4,1.5-37.7,9.5C459.4,365.4,455.9,374.2,453.7,385.1z"/>
	<path class="st1" d="M610.1,386.2c-3.3,9.1-8.1,16.4-18.3,18.7c-4.3,1-8-0.1-11.6-2c-2.5-1.4-5.2-2.4-7.8-1
		c-7.6,4-13.7,1.3-19.7-3.4c-7.5-6-14.5-12.2-17.2-21.9c-4.2-14.7-1.2-28.5,5.4-41.8c5-10,12.5-17.1,23.9-19
		c8.5-1.4,16.6,1.2,24.7,3c2,0.4,4,1,5.7,0.4c6.3-2.2,12.2,0.1,17.9,1.7c7.6,2.1,13.9,13.5,11.7,21.1c-2.1,7.3-1.5,13.7,2.5,20.1
		c3.3,5.3,5.5,11.1,6.9,17.3c2.7,11.5-5.3,21.5-17.2,20.9c-2.8-0.1-5.2-1.1-4.7-5C612.6,392.1,611.3,389.1,610.1,386.2z"/>
	<path class="st2" d="M634.8,339.9c7-0.9,13.8-2.8,21.2-1.1c10.5,2.5,12.6,7.2,14.8,16.5c0.9,3.8,0.8,7.9,1.2,11.9
		c-0.1,0.3-0.1,0.7-0.2,1c-2.6,6.1-7.8,8-13.9,8.9c-4.5,0.7-8.9,1-13.4,0.9c-2.5-9.4-8.4-17.5-10.2-27.2
		C633.6,347,633.1,343.4,634.8,339.9z"/>
	<path class="st2" d="M645.5,383.8c4.1-0.3,8.3,0.4,12.5-0.9c2.1-0.7,3.8-0.4,4.3,3.1c1.3,8.6,2.8,17.2,3.6,25.9
		c0.5,5.8-0.5,7-6.6,6.9c-3,0-5.7,1.6-8.5,1c-2.2-0.4-4.6,2.4-5.8,0.5c-1.3-2.1-1.4-5.2-1.5-7.8c-0.2-4.7-0.1-9.4-0.1-14.1
		c0-0.8,0-1.6-0.9-2C643.8,392.2,645.9,388.3,645.5,383.8z"/>
	<path class="st3" d="M711,484.3c3.5,14,7.1,27.9,10.6,41.9c0.2,0.8,0.4,1.6,0.6,2.3c2.1,6.8,1.6,7.7-5.7,7.6
		c-12.3-0.1-24.5-0.7-36.8-1.1c-10.5-0.2-21.1-0.1-31.6,0.3c-11,0.5-22,0.8-33,2.1c-6.7,0.8-9.7-2.8-8.8-9.4
		c0.7-5.2,1.7-10.3,3.5-15.2c4.5-12.5,14.1-19.2,26.5-22.2c13.9-3.3,28-5.4,42.4-5.9c8.1-0.3,16.2-0.5,24.3-1.5
		C705.8,482.9,708.6,482.5,711,484.3z"/>
	<path class="st3" d="M605.5,444.5c22.2-1.9,44.6-1.5,66.8-2.3c14.6-0.6,29.1-0.4,43.7-0.7c10.1-0.2,12.7,2.2,10.8,12.9
		c-0.9,4.8-2.1,9.2-4.1,13.7c-1.4,3.3-3.7,4.5-6.8,3.7c-6.4-1.8-13.2,0.2-19.6-2c-13.8-2-27.8-1.7-41.6-3.4c-16.1-1.9-32,0.9-48,1.8
		c-4.3,0.3-8.4,0.2-12.3-1.9c-4.4-2.4-6.5-6.6-5.8-11.3c0.7-4.8,3.9-8.2,8.7-9.4C600.1,444.7,602.9,445.2,605.5,444.5z"/>
	<path class="st4" d="M711,484.3c-16.8,1-33.6,1.4-50.3,3.3c-10.5,1.2-21.1,2.9-31.1,6.7c-13.6,5.2-18.9,16.3-21.3,29.5
		c-0.2,1-0.1,2-0.3,2.9c-1.7,8,0.3,10.3,8.7,9.4c13.5-1.4,27.1-2,40.7-1.9c5.9,0,11.7,0,17.6,0c1.6,0,3.3-0.5,4.6,0.8
		c-16,0.7-32,1.2-47.9,2.2c-9.1,0.5-18.2,1.8-27.3,2.7c-1.6,0.2-3,0.1-2.7-2.2c2.1-13.9,0-27.7-2.6-41.3
		c-2.2-11.5-2.5-11.2,8.6-13.2c14-2.4,28-3.9,42.1-5c16.7-1.3,33.1,0.3,49.6,2c3,0.3,6.1,0.7,9.1,1C710.7,481.6,711,482.7,711,484.3
		z"/>
	<path class="st3" d="M696.4,550.7c3.7,0,7.5,0.4,11.2,0c7.1-0.6,13.7,1.3,20.4,3c2.8,0.7,3.5,3,3.4,5.1c-0.2,3.3-0.6,6.9-4.4,8.3
		c-5,1.8-10.4,1.8-15.7,2c-11.5,0.4-23.2,0.9-34.6-0.1c-14.6-1.2-29.2-0.2-43.8-0.9c-0.5-0.2-0.9-0.4-1.4-0.3
		c-2.7,0-5.5,0.1-6.1-3.3c-0.6-3.2,1.4-5.2,3.9-6.6c3.7-2.1,8-2.7,12.1-3.4c17.3-2.9,34.7-3.6,52.2-4.3
		C694.5,550.3,695.5,550.2,696.4,550.7z"/>
	<path class="st5" d="M789.1,559.6c-7.6,4.7-16.3,5.4-25.2,7c-6.1-1-12.7-2.1-19.2-3.3c-2.9-0.6-3-3.3-3.4-5.5
		c-0.4-2.7,1.5-3.1,3.7-3.2c1,0,2.2-0.6,3-1.3c9.4-8.9,22.1-10,33.5-14.1c4.2-1.5,11.4,3.5,13.3,8.2
		C796.1,550.8,793,557.1,789.1,559.6z"/>
	<path class="st3" d="M633.8,540.2c27.2-1.4,54.4-3.4,81.8-1.1c-1.1,4.7-1.1,4.7,0.7,9.8c-7.6-0.4-15.1-0.5-22.5-1.3
		c-7.6-0.8-15.1-1.1-22.6,0.1c-4.8,0.7-9.6,0.5-14.4,1c-12.2,1.2-24.4,1.6-36.7,2.3c-5.7,0.7-9-0.6-9.3-3.6
		c-0.3-2.7,2.5-4.6,8.1-5.3C623.9,541.4,628.9,540.5,633.8,540.2z"/>
	<path class="st4" d="M605.5,444.5c-2,1.7-4.6,0.9-6.9,1.6c-7.8,2.2-9.2,7.7-8.7,12.1c0.5,4.6,5.5,8.6,11.5,8.6
		c6.6,0,13.2-0.6,19.8-1.1c9.9-0.6,19.7-2.3,29.8-1.1c8.8,1,17.6,1.5,26.4,2.4c6.3,0.6,12.9,0.2,18.9,2.7c-5.7,1-11.3-0.8-16.9-0.9
		c-18-0.3-35.9,0.8-53.8,2.2c-10.5,0.8-21,2.8-31.5,4.6c-6.2,1-10.5-2.8-11.1-10.2c-0.4-4.7,0.5-9.4,1.2-14c0.5-3.1,2.8-5.3,5.9-5.8
		C595.2,444.6,600.3,443.8,605.5,444.5z"/>
	<path class="st6" d="M803.7,546.8c4.6,7.2-1.1,16.9-7.8,20.6c-13.2,7.4-27.1,8.9-41.7,6.5c-2.4-0.4-4.8,0-7.2-0.6
		c-4.2-1.1-6.6-2.7-4.4-7.4c7.3,1.8,14.8,3.6,22.4,3.4c10.9-0.3,21-3.2,29.8-10.1c5.1-4,4.5-14.8-1.3-18.9
		c-5.7-4.1-11.7-5.2-18.4-2.6c-7.8,3-15.9,5.5-23.7,8.5c-2.2,0.9-3.3,0.3-4.6-1.2c-1.8-2.1,0.5-3.1,1.5-3.8
		c4.6-3.2,9.8-5.2,15.3-6.2c-1.1,4.3-5.4,2.9-8.1,4.8c6.6-2.3,13.1-4.9,20-5.6c6-0.7,12.1-1,17.5,2.2c7.8,4.5,10.2,11.7,7.9,21.1
		C803.5,554.9,801.2,550.2,803.7,546.8z"/>
	<path class="st7" d="M696.4,550.7c-20.8,1.4-41.8,2.1-62.2,6.9c-1.2,0.3-2.5,0.7-3.7,1.2c-2.4,0.9-4.5,2.6-4.3,5.2
		c0.2,3.1,2.9,3.4,5.5,3.5c0.4,0,0.8,0.5,1.2,0.7c-9.2,0.7-18.3,1.6-27.5,2c-7.4,0.3-8.4-1.1-6.7-8.1c1.6-6.7,2.1-7.2,11-7.5
		c15.2-0.4,30.2-2.6,45.4-3.2c12.6-0.5,25.1-1.8,37.7-1.7C694,549.8,695.4,549.5,696.4,550.7z"/>
	<path class="st2" d="M628.1,434.5c9-10.4,56.9-13.2,68-4C673.3,430.6,651.2,435,628.1,434.5z"/>
	<path class="st8" d="M803.7,546.8c0.2,5.7,0.3,11.4-5.8,15.6c0.7-2.4,1.1-4.3,1.9-6.1c4.1-9.5-4.9-21.3-16.4-21.2
		c-7,0-13.7,1.3-20.4,3.3c-3,0.9-6.1,1.8-9.9,3c3.1-3.9,7.8-3.4,10.5-6.3c5-2.4,10.4-3.3,15.7-4.5
		C789.9,528.3,802.3,536.6,803.7,546.8z"/>
	<path class="st9" d="M739.7,536c2.8,0.7,5.5,1.7,3.7,5.2c-1.3,2.5-1.4,4.6,0.3,6.7c1.8,2.3,0.3,3.2-1.6,2.8
		c-6.6-1.3-13.4-1.8-19.7-4.4c-1.3-0.5-2.9-1.1-2.7-3c0.2-1.6,1.4-2.5,2.7-3.2C728,537.4,734.2,537.9,739.7,536z"/>
	<path class="st4" d="M633.8,540.2c-5.7,1.7-11.7,1.6-17.4,3.5c-2,0.7-4.8,0.7-4.7,3.2c0.1,2.5,2.8,3.3,5,3.8
		c1.1,0.3,2.3,0.1,3.4,0.2c-3.3,1.8-6.9,0.4-10.4,0.8c-0.8,0.1-1.6,0-2.4,0c-2.1,0.2-5,2.4-6.2,0.1c-1-1.9,0.1-4.9,0.5-7.4
		c0.4-2.5,3.1-2,4.4-2.1C615.3,542,624.5,539.7,633.8,540.2z"/>
	<path class="st1" d="M706.5,380.1c-1.2,3.8-1.9,7.2-0.4,10.7c0.9,2.1-0.1,3.1-2.1,3.7c-6.4,1.7-12.8,1.5-17.4-3.5
		c-4.5-4.9-7.2-10.9-5.1-18.1c1.3-4.4,1.6-9.2,3.3-13.5c2.7-6.8,1-12.8-1.9-18.9c-4.9-10.3-0.8-20.7,8.5-24.6c3-1.3,6-2.3,9.1-2.9
		c8.8-1.7,16.9-5.1,24.7-9.2c10.9-5.6,20.3-1.5,29.3,4.1c10.1,6.4,16.7,16,20.5,27.3c5.1,15.1,1.5,28.7-7.4,41.4
		c-5.2,7.4-11.7,11.4-21,11.4c-3.6,0-6.9,2.5-10.2,4.2c-10.2,5.1-23.1,0.8-28.4-9.3C707.6,382,707.2,381.4,706.5,380.1z"/>
	<path class="st10" d="M462.3,142.2c8.5-3.3,16.1-5,24-2.1c2.9,1,4.8,3.3,5.7,6.1c0.6,1.9,0.4,3.8-1.4,5.2c-1.7,1.3-3.4,1.1-4.9-0.1
		C479.1,146.3,471.4,144.1,462.3,142.2z"/>
	<path class="st10" d="M522.3,140.8c9-0.2,13.9,3.6,16.9,9.9c0.9,2,0.9,3.3-0.7,4.6c-1.9,1.5-3.6,1.3-5.1-0.4
		c-1.2-1.3-2.7-2.3-3.3-4.1C528.8,146.8,525.5,144.3,522.3,140.8z"/>
	<path class="st11" d="M505.1,263.1c-0.4,18.2-1.3,33.1-7.1,47.2c-1.6,3.9-3.7,7.5-6.8,10.5c-5.8,5.8-10.8,5.4-17.5,1.8
		c-4.3-2.3-7.5-5.9-10-10.3c-10.3-18-18.9-36.6-22.9-57c-1.7-8.4-3.4-17-1.5-25.8c1.9-9,8.1-14.1,15.2-18.4
		c10.4-6.3,21.4-9.1,33.6-5.2c7.2,2.2,10.6,7.2,12.9,13.8c2.1,6.4,2.5,13.1,2.6,19.5C503.9,248.2,505.7,257.2,505.1,263.1z"/>
	<path class="st11" d="M507.8,284.1c0.1-22.3,1.5-44.4,6.7-66.2c0.9-3.9,1.5-8.2,6.2-8.7c4.8-0.5,8.9,2.1,11.3,6.2
		c4.6,7.9,5.7,16.3,4.6,25.6c-1.4,11.5-3,22.9-5.4,34.2c-2.8,13.2-6.6,26.2-12.3,38.5c-1.1,2.3-1.8,6.2-5.2,5.4
		c-3.3-0.8-4.4-4.5-4.8-7.8C507.5,302.2,507.8,293.2,507.8,284.1z"/>
	<path class="st11" d="M710.4,496.6c2,11.6,4.7,23,9.1,33.9c0.5,1.2,0.4,2.2-0.5,3c-1,0.9-1.9,0.6-3.1,0.2c-3.2-1.1-4.3-3.8-4.8-6.5
		C709.2,517.1,710.2,506.9,710.4,496.6z"/>
	<path class="st11" d="M641.1,445.8c12.6-0.1,25.1-2.1,37.7-1.5c12.5,0.6,24.8-1.6,37.3-1c5,0.3,8.8,4.6,7.3,9.3
		c-0.8,2.6-0.2,5.5-2.3,8.1c-5-5.8-11.2-9.8-18.9-11.1c-3.1-0.6-6.3-1.4-9.4-1.3c-11.5,0.3-22.9-1.4-34.4-1.2
		C652.6,447.2,646.9,445.9,641.1,445.8z"/>
	<path class="st11" d="M710.5,542.9c-13.4-1.3-26.8-1.2-40.1-2.5C683.9,540.5,697.4,538.8,710.5,542.9z"/>
	<path class="st12" d="M488.5,210.6c-5.4,1-10.6,1.5-15.7,3.1c-6.6,2-11.3,6-14.5,12.1c-4.6,8.8-4.7,18-3,27.4
		c2.3,12.5,4.3,25.1,8.3,37.3c3.1,9.2,7.6,17.8,10.3,27.3c-3.8-3.3-7.3-6.9-9.7-11.3c-9.7-17.6-17-36-20.5-55.8
		c-1.3-7.1-2.4-14.4-0.4-21.6c1.5-5.3,3.7-10,8.8-12.8c9.7-5.2,19.4-10.6,31.1-8.1C485.3,208.4,487,209,488.5,210.6z"/>
	<path d="M488.3,266.2c-0.2,6.5-1.5,12.8-2.9,19.2c-0.6,2.9-2.8,4-5,4.5c-2.3,0.5-4.4-1.1-5.5-3.1c-4.9-9.1-5.6-18.5-1.3-28.1
		c1.5-3.3,4.8-4.7,7.9-5.7c2.4-0.8,3.8,0.9,4.8,3C488,259.3,488.7,262.6,488.3,266.2z"/>
	<path class="st12" d="M519.1,213.1c7.7-0.3,10.4,3,13,11.6c2,6.5,0.8,13.2,0,19.7c-1.3,10.4-2.3,20.8-4.9,31
		c-3.1,12-6.9,23.9-12.8,35c1.3-4.4,2.6-8.8,3.8-13.2c3.9-14.5,6.3-29.3,8.2-44.1c0.7-5.1,1.1-10.3,1.5-15.4
		C528.7,228.6,526.7,219.9,519.1,213.1z"/>
	<path d="M508.8,274.2c-0.2-5.8,0.1-11.4,3-16.6c1-1.7,2.2-3.9,4.6-3.7c2.4,0.3,3.4,2.6,3.8,4.4c2.5,9.6,1.5,19.2-1.8,28.5
		c-0.9,2.4-2.7,4.8-5.8,4c-2.9-0.7-2.6-3.3-3.2-5.7C508.7,281.5,509,277.9,508.8,274.2z"/>
	<path class="st11" d="M486.3,264.4c0,1.9,0.6,4.1-1.5,4.9c-2.3,1-3.7-1.2-4.6-2.7c-1.7-2.7-4.2-5.5-1.9-9.1c1-1.5,2.8-2.5,4.1-1.6
		C485.3,258,486.6,261,486.3,264.4z"/>
	<path class="st13" d="M481.5,283.6c0,1.2-0.1,2.3-1.2,3c-1.4,0.8-2-0.4-2.8-1.1c-0.3-0.2-0.5-0.5-0.7-0.7c-2.3-2.2-3.9-4.8-2.8-8.1
		c0.3-0.9,1.3-1.7,2.3-0.9C478.8,277.9,481.3,280,481.5,283.6z"/>
	<path class="st11" d="M519.5,265.6c-0.3,1.7,0.9,4.3-2.1,4.9c-2.7,0.5-2.6-2.3-3.7-3.7c-0.5-0.6-0.9-1.4-1-2.1
		c-0.4-3.3,0.6-7,3.6-7.5c3.2-0.5,2.3,3.7,3.2,5.8C519.8,263.6,519.5,264.6,519.5,265.6z"/>
	<path class="st13" d="M510.8,282.1c-0.1-1.8,0-3.2,0.8-4.5c0.5-0.8,0.9-1.2,1.9-0.8c2.1,1,4.1,8.3,2.6,10.1c-1.3,1.6-2.8,1.5-4-0.2
		C511.1,285.3,510.4,283.7,510.8,282.1z"/>
</g>
</svg>
