<?xml version="1.0" encoding="utf-8"?>
<!-- Generator: Adobe Illustrator 23.0.1, SVG Export Plug-In . SVG Version: 6.00 Build 0)  -->
<svg version="1.1" id="Layer_4" xmlns="http://www.w3.org/2000/svg" xmlns:xlink="http://www.w3.org/1999/xlink" x="0px" y="0px"
	 viewBox="0 0 1000 1000" style="enable-background:new 0 0 1000 1000;" xml:space="preserve">
<style type="text/css">
	.st0{fill:#6E3720;}
	.st1{fill:#FB9A7A;}
	.st2{fill:#CBB89A;}
	.st3{fill:#E00000;}
	.st4{fill:#7F0000;}
	.st5{fill:none;}
	.st6{fill:#7898AB;}
	.st7{fill:#800000;}
	.st8{fill:#B0F3F2;}
	.st9{fill:#2B5260;}
	.st10{fill:#7F7F7F;}
	.st11{fill:#FEFEFE;}
	.st12{fill:#C0FEFE;}
	.st13{fill:#00407F;}
</style>
<g>
	<path class="st0" d="M635.6,396.6c-8.4,4.5-17.1,7.5-26.9,4.9c-1.6-0.4-3.4-0.2-5.1,0.8c-8.3,5.3-17.2,6.3-26.4,2.9
		c-3.5-1.3-6.8-0.6-9.8,0.3c-7.2,2.2-12.7-1-18.3-4.4c-5-3.1-9.7-6.8-13.7-11.3c3.3,10.9,2.4,21.7,0.8,32.6
		c-1.6,11.1-2.1,22.3-3.1,33.5c-1.2,13.2-2.7,26.4-3.8,39.7c-0.4,5.5,0.6,11.2-0.3,16.6c-1,6.2-0.3,12,1.1,17.9
		c1.1,4.6,3.7,8.4,5.7,12.5c8.5,17.6-1,26.1-16.5,27.8c-15.5,1.7-31.1,1-46.6,0.9c-6.4,0-12.9-0.6-19-2.1
		c-11.1-2.6-17.4-15.1-11.1-27.6c4.1-8.1,6.4-16.5,5.3-25.3c-0.9-7-3-13.9-5-20.7c-5.6-19-11.1-37.9-13.4-57.7
		c-0.8-6.7-1.5-13.3-1.9-20.1c-0.8-13.5-2.3-26.8-9.2-39c-9.2-16.3-17.8-32.8-26.2-49.5c-7.3-14.5-13.6-29.6-16.9-45.6
		c-1.8-8.7-2.9-17.7-3.1-26.6c-0.3-12.6,4-24.4,12.5-33.5c15.3-16.5,34.8-25.5,56.9-29.2c8.4-1.4,16.9-2.5,25.4-1.8
		c20.1,1.6,40.4,2.4,58.7,12.7c15.4,8.6,25.1,20.8,24,39.2c-1,15.6-4.2,30.7-9.1,45.6c-3,9.3-5.6,18.7-10,27.5c-1,1.9,0.5,3,0.9,4.9
		c5.5-9.7,13.1-16.5,22.9-21c8.7-3.9,17.5-4.4,26.4-1.5c7.6,2.5,15.3,3.1,23.2,2.9c13.2-0.4,22.6,5.2,27.9,17.6
		c0.8,1.9,0.2,4.2,1.9,5.8c1.5,1.9,1.3,4.2,1.1,6.4c-2.2,8.2,0.3,15.7,3.7,22.9c2.3,5,4.4,10,6,15.3c0.3,2,0.9,4,1,6.1
		c0.1,4.5-1,8.6-3.2,12.5C640.5,392,639.3,395.4,635.6,396.6z"/>
	<path d="M808.7,548.1c-1.9-15.6-19.7-23.6-32.8-21.1c-8.6,1.6-16.3,5.4-24.4,8.3c-1.6,0.6-2.4,1.4-3.8-0.8
		c-2.4-3.8-6.4-4.4-10.2-2.9c-3.5,1.4-4.2-0.6-4.8-2.9c-3.6-13.5-7.6-26.9-10.3-40.6c-1-5.2-0.7-6.6,4.5-7.1
		c2.4-0.2,4.5-2.3,5.6-4.8c1.3-2.7,2.8-5.3,3.9-8.1c3.8-9.4,5.6-19.1,1.9-29c-1.7-4.4-4.2-7.7-9.4-8.9c-6.9-1.5-13.8-0.3-20.7-0.8
		c-1.4-0.1-2.9,0.6-4.1-0.7c-6.9-6.6-15.8-9.2-24.7-10.8c-4.9-0.9-6-3.4-6.4-7.3c-1.3-11-2.7-22-4.8-32.9c-0.3-1.8-0.8-4,1.8-4.9
		c1.9-3.6,2.8-7.4,1.5-11.4c-0.2-0.2-0.3-0.3-0.5-0.3l0,0c-0.8-0.4-1.4,0.3-1.9,0.9c-3.4,4.7-8.3,6.1-13.7,7
		c-3.5,0.6-7.3-0.3-10.7,1.3c-0.4,0.2-0.7,0.4-1,0.6c0.3,2,0.6,4,1,5.9c0.4,0.3,0.8,0.5,1.2,0.7c2.6,1.2,5.5,0.6,8.2,0.4
		c5.6-0.5,5.9-0.3,6.7,5.4c1.2,8.4,2.4,16.7,3.6,25.1c1.2,8.1,1,8.2-6.9,9c-2,0.2-3.9,0.6-5.8,0.8c-5.2,0.6-6.2,0-6.4-5.2
		c-0.3-6.2-1.4-12.3-1.3-18.5c0-1.8,0.5-4-1.6-5c-0.2-0.1-0.4-0.2-0.6-0.3c-2,2.4-4,4.7-6,7c1.1,6.3,0.8,12.7,1.9,19
		c0.7,3.8,0.9,7.7-5,8.5c-2,0.3-4.3,1.7-6,3.5c-6.1,6.3-13.7,8.6-22.4,8c-5.4-0.3-10.7-0.2-16.1,0c-7.4,0.1-10.2,2.2-12.5,9
		c-2.4,7.1-1.8,14.5-0.9,21.6c0.9,7.7,3.4,15.3,12.1,18.1c1.7,0.5,1,1.8,1.4,2.7c4.5,11.6,4.8,23.9,5.5,36.1
		c0.9,13.8-1.8,27.3-4.8,40.7c-2.2,9.4,2.1,15.3,11.5,15.4c15.5,0.1,30.9-1.3,46.4-1.8c10.5-0.4,21-0.3,31.5,0.7
		c8.1,0.8,16.3,0.4,24.4,0.1c11.6-0.4,23.5,2,34.5-3.8c0.9-0.5,1.8,0.4,2.7,0.7c7.4,2.3,15.1,3.5,22.8,4c12.2,0.7,23.8-2.3,34.6-8.3
		C806.2,565.6,809.9,558.4,808.7,548.1z M744.8,554.6c1,0,2.3-0.5,3-1.2c9.4-9,22.1-10,33.5-14.2c4.2-1.5,11.3,3.3,13.4,8
		c1.4,3.3-1.6,10-5.5,12.4c-7.8,4.7-16.6,5.5-25.3,7c-6.4-1.1-12.8-2-19.1-3.3c-3-0.6-3.4-3.4-3.6-5.9
		C741,555,742.8,554.7,744.8,554.6z"/>
	<path class="st0" d="M669.9,373.1c0.3-3.9,0.7-7.9,1-11.8c-0.3-0.4-0.5-0.9-0.5-1.4c0-0.3,0-0.7,0.1-1c2.5-9,3.1-18,0.3-27
		c-1-5.2-1.5-10.4,0.5-15.5c3.8-9.8,10.9-16.4,20.8-19.5c9.5-2.9,18.9-5.6,28.1-9.5c16.1-6.8,30.4-1.6,43.1,8.9
		c4.7,3.9,9.6,7.8,13.2,13.2c5.2,7.8,7.6,16,8.8,25.2c1.6,11.9-0.7,22.9-6.4,33c-5.7,10-12.8,18.9-24.8,22.6c-3,0.9-5.2-1.2-7.9-0.2
		c-3.1,1.2-6.3,2.1-9.2,3.6c-4.7,2.5-9.3,3.9-14.6,1.9c-6.7-2.6-13-0.7-19.6,1.4c-13.6,4.5-25.4-1.7-30.9-14.2
		C670.7,379.8,670.5,376.3,669.9,373.1z"/>
	<path d="M494.2,163.5c-0.2,9.2-5.5,13.8-11.2,17.9c-6,4.3-12.7,7.4-20,9c-8.3,1.8-14.9-5.5-13.1-14.1c3.3-15.9,13.9-24.2,28.3-29.2
		c4.6-1.6,7.8,0.1,10.5,3.3C492.2,154.6,493.6,159.5,494.2,163.5z"/>
	<path d="M528.2,180.7c-7.8-0.4-15.5-1.1-22.6-4.6c-7.5-3.7-8.3-5.6-4.3-12.8c4.2-7.5,9.9-13.4,19.4-12.8
		c11.2,0.7,19.3,10.2,21.1,20.5c0.9,5.2-3.4,9.4-9.3,9.7C531.1,180.7,529.7,180.7,528.2,180.7z"/>
	<path d="M670.8,331.9c4.5,7.4,4.2,15.1,1.7,22.9c-0.6,1.8,0.2,4-1.5,5.4c-2.2-2-1.2-4.9-1.9-7.3c-0.3-0.9-0.4-1.9-0.5-2.9
		c-1.9-14-9.2-17.8-23.9-17.4c-3.6,0.1-7.2,2.1-10.9,0.3c0-2.3,0-4.6,0-6.9c8.4-1.6,16.9-2.7,25.4-0.8c3.6,0.8,6.1,3.7,9.1,5.7
		C669.1,331.5,669.7,332.4,670.8,331.9z"/>
	<path class="st1" d="M449.4,380.1c6.4-6.3,13.3-10.7,20.8-14.2c4.8-2.3,9.8-3.1,14.8-3.5c8.5-0.7,17.2,1,25.7-0.9
		c1.5-0.4,1.7,1,2.5,1.8c5.6,6.3,8.2,14,10.2,22c3.1,12.5,3.7,25.3,2.8,38c-1.1,15.1-1.5,30.2-3.7,45.2c-0.6,4.3-0.4,8.7-0.9,13
		c-1.2,11.2-1.6,22.5-2.1,33.8c-0.4,10,1.5,19.5,6.6,28.2c0.6,1,1,2,1.4,3.1c3.2,7.4,1,12.1-6.9,13.9c-16.4,3.8-32.9,3.7-49.6,2.1
		c-4.5-0.4-8.9-1.1-13.3-2.1c-8.2-1.9-10.5-6.5-6.8-14.2c3.3-7,6.4-13.9,7.5-21.7c0.7-5,0-9.7-1.3-14.2
		c-6.1-20.4-11.9-40.8-16.4-61.6c-1.9-8.9-2.8-18.1-3.3-27.2c-0.9-17-3.2-33.4-11.8-48.6c-9.1-16.1-18-32.3-25.9-49
		c-8.9-18.5-15.7-37.7-18.3-58.4c-2.8-23.4,11.3-45.3,33.4-53.7c12-4.6,24.2-8.2,36.8-10.5c10.4-1.9,20.8-0.8,31.2,0.4
		c10.2,1.2,20.6,2.2,30,6.4c12.7,5.7,24,13.2,27.5,28.2c1.4,6.2,0.1,12.3-0.7,18.3c-2.1,15.4-5.9,30.5-11.5,45
		c-1.7,4.5-2.9,9.3-5.4,13.3c-3.1,5-2.2,9.1,0.2,13.9c6.1,12.4-3.4,23.6-13.2,25.4c-5.6,1-11.3,1.3-17.2,0.6
		c-19.3-2.4-35.2,6.5-43.5,25C449.2,378.2,449.4,378.7,449.4,380.1z"/>
	<path class="st1" d="M608.9,378.9c-2.2,10.2-10.1,17.9-19.3,19.5c-3.8,0.6-7.3-0.6-10.6-2.5c-2.4-1.3-5-2.2-7.4-0.9
		c-7.7,4.2-14,1.2-20.2-3.5c-8.3-6.4-15.5-13.7-17.7-24.4c-2.9-13.9-0.1-27,6.4-39.4c5.1-9.8,12.4-16.7,23.6-18.7
		c8.5-1.5,16.6,1.3,24.7,2.9c1.8,0.3,3.6,1.1,5.2,0.5c4-1.3,7.9-0.4,11.9,0c13.2,1.5,20.4,11.3,17.8,24.3c-1.2,5.9-1.1,11.5,2.3,17
		c3.6,5.8,6.2,12.2,7.8,19.1c2.6,11.3-6.1,21.8-17.6,20.6c-2.6-0.3-4.9-1.1-4.4-4.8C611.6,385.4,610.5,382.4,608.9,378.9z"/>
	<path class="st2" d="M633.8,333c7-0.9,13.8-2.8,21.2-1.1c10.5,2.5,12.6,7.2,14.8,16.5c0.9,3.8,0.8,7.9,1.2,11.9
		c-0.1,0.3-0.1,0.7-0.2,1c-2.6,6.1-7.8,8-13.9,8.9c-4.5,0.7-8.9,1-13.4,0.9c-2.5-9.4-8.4-17.5-10.2-27.2
		C632.7,340.2,632.1,336.6,633.8,333z"/>
	<path class="st2" d="M644.6,377c4.1-0.3,8.3,0.4,12.5-0.9c2.1-0.7,4-0.4,4.3,3.1c0.8,8.2,2.6,16.3,3.6,24.4c0.4,3,0.4,6.3,1.3,8.9
		c1.9,5.5-1.5,5.8-4.8,6.1c-5.1,0.6-10.1,0.9-15.1,2.1c-2,0.5-1.8-1.1-1.9-2.4c-1.1-7.9-1.9-15.9-2-23.9c0-1.6,0.9-3.6-0.8-5
		C642.8,385.4,644.9,381.5,644.6,377z"/>
	<path class="st3" d="M711,484.3c3.5,14,7.1,27.9,10.6,41.9c0.2,0.8,0.4,1.6,0.6,2.3c2.1,6.8,1.6,7.7-5.7,7.6
		c-12.3-0.1-24.5-0.7-36.8-1.1c-10.5-0.2-21.1-0.1-31.6,0.3c-11,0.5-22,0.8-33,2.1c-6.7,0.8-9.7-2.8-8.8-9.4
		c0.7-5.2,1.7-10.3,3.5-15.2c4.5-12.5,14.1-19.2,26.5-22.2c13.9-3.3,28-5.4,42.4-5.9c8.1-0.3,16.2-0.5,24.3-1.5
		C705.8,482.9,708.6,482.5,711,484.3z"/>
	<path class="st3" d="M605.5,444.5c22.2-1.9,44.6-1.5,66.8-2.3c14.6-0.6,29.1-0.4,43.7-0.7c10.1-0.2,12.7,2.2,10.8,12.9
		c-0.9,4.8-2.1,9.2-4.1,13.7c-1.4,3.3-3.7,4.5-6.8,3.7c-6.4-1.8-13.2,0.2-19.6-2c-13.8-2-27.8-1.7-41.6-3.4c-16.1-1.9-32,0.9-48,1.8
		c-4.3,0.3-8.4,0.2-12.3-1.9c-4.4-2.4-6.5-6.6-5.8-11.3c0.7-4.8,3.9-8.2,8.7-9.4C600.1,444.7,602.9,445.2,605.5,444.5z"/>
	<path class="st4" d="M711,484.3c-16.8,1-33.6,1.4-50.3,3.3c-10.5,1.2-21.1,2.9-31.1,6.7c-13.6,5.2-18.9,16.3-21.3,29.5
		c-0.2,1-0.1,2-0.3,2.9c-1.7,8,0.3,10.3,8.7,9.4c13.5-1.4,27.1-2,40.7-1.9c5.9,0,11.7,0,17.6,0c1.6,0,3.3-0.5,4.6,0.8
		c-16,0.7-32,1.2-47.9,2.2c-9.1,0.5-18.2,1.8-27.3,2.7c-1.6,0.2-3,0.1-2.7-2.2c2.1-13.9,0-27.7-2.6-41.3
		c-2.2-11.5-2.5-11.2,8.6-13.2c14-2.4,28-3.9,42.1-5c16.7-1.3,33.1,0.3,49.6,2c3,0.3,6.1,0.7,9.1,1C710.7,481.6,711,482.7,711,484.3
		z"/>
	<path class="st3" d="M696.4,550.7c3.7,0,7.5,0.4,11.2,0c7.1-0.6,13.7,1.3,20.4,3c2.8,0.7,3.5,3,3.4,5.1c-0.2,3.3-0.6,6.9-4.4,8.3
		c-5,1.8-10.4,1.8-15.7,2c-11.5,0.4-23.2,0.9-34.6-0.1c-14.6-1.2-29.2-0.2-43.8-0.9c-0.5-0.2-0.9-0.4-1.4-0.3
		c-2.7,0-5.5,0.1-6.1-3.3c-0.6-3.2,1.4-5.2,3.9-6.6c3.7-2.1,8-2.7,12.1-3.4c17.3-2.9,34.7-3.6,52.2-4.3
		C694.5,550.3,695.5,550.2,696.4,550.7z"/>
	<path class="st5" d="M789.3,559.5c-7.8,4.7-16.6,5.5-25.3,7c-6.4-1.1-12.8-2-19.1-3.3c-3-0.6-3.4-3.4-3.6-5.9
		c-0.2-2.4,1.5-2.8,3.5-2.8c1,0,2.3-0.5,3-1.2c9.4-9,22.1-10,33.5-14.2c4.2-1.5,11.3,3.3,13.4,8
		C796.1,550.5,793.2,557.2,789.3,559.5z"/>
	<path class="st3" d="M633.8,540.2c27.2-1.4,54.4-3.4,81.8-1.1c-1.1,4.7-1.1,4.7,0.7,9.8c-7.6-0.4-15.1-0.5-22.5-1.3
		c-7.6-0.8-15.1-1.1-22.6,0.1c-4.8,0.7-9.6,0.5-14.4,1c-12.2,1.2-24.4,1.6-36.7,2.3c-5.7,0.7-9-0.6-9.3-3.6
		c-0.3-2.7,2.5-4.6,8.1-5.3C623.9,541.4,628.9,540.5,633.8,540.2z"/>
	<path class="st4" d="M605.5,444.5c-2,1.7-4.6,0.9-6.9,1.6c-7.8,2.2-9.2,7.7-8.7,12.1c0.5,4.6,5.5,8.6,11.5,8.6
		c6.6,0,13.2-0.6,19.8-1.1c9.9-0.6,19.7-2.3,29.8-1.1c8.8,1,17.6,1.5,26.4,2.4c6.3,0.6,12.9,0.2,18.9,2.7c-5.7,1-11.3-0.8-16.9-0.9
		c-18-0.3-35.9,0.8-53.8,2.2c-10.5,0.8-21,2.8-31.5,4.6c-6.2,1-10.5-2.8-11.1-10.2c-0.4-4.7,0.5-9.4,1.2-14c0.5-3.1,2.8-5.3,5.9-5.8
		C595.2,444.6,600.3,443.8,605.5,444.5z"/>
	<path class="st6" d="M803.7,546.8c4.6,7.2-1.1,16.9-7.8,20.6c-13.2,7.4-27.1,8.9-41.7,6.5c-2.4-0.4-4.8,0-7.2-0.6
		c-4.2-1.1-6.6-2.7-4.4-7.4c7.3,1.8,14.8,3.6,22.4,3.4c10.9-0.3,21-3.2,29.8-10.1c5.1-4,4.5-14.8-1.3-18.9
		c-5.7-4.1-11.7-5.2-18.4-2.6c-7.8,3-15.9,5.5-23.7,8.5c-2.2,0.9-3.3,0.3-4.6-1.2c-1.8-2.1,0.5-3.1,1.5-3.8
		c4.6-3.2,9.8-5.2,15.3-6.2c-1.1,4.3-5.4,2.9-8.1,4.8c6.6-2.3,13.1-4.9,20-5.6c6-0.7,12.1-1,17.5,2.2c7.8,4.5,10.2,11.7,7.9,21.1
		C803.5,554.9,801.2,550.2,803.7,546.8z"/>
	<path class="st7" d="M696.4,550.7c-20.8,1.4-41.8,2.1-62.2,6.9c-1.2,0.3-2.5,0.7-3.7,1.2c-2.4,0.9-4.5,2.6-4.3,5.2
		c0.2,3.1,2.9,3.4,5.5,3.5c0.4,0,0.8,0.5,1.2,0.7c-9.2,0.7-18.3,1.6-27.5,2c-7.4,0.3-8.4-1.1-6.7-8.1c1.6-6.7,2.1-7.2,11-7.5
		c15.2-0.4,30.2-2.6,45.4-3.2c12.6-0.5,25.1-1.8,37.7-1.7C694,549.8,695.4,549.5,696.4,550.7z"/>
	<path class="st2" d="M696.9,430.9c-13-1.1-24.6,1.1-36.3,1.9c-10.7,0.7-21.3,1.7-32.4,1.9C636.3,424.4,684.2,421.4,696.9,430.9z"/>
	<path class="st8" d="M803.7,546.8c0.2,5.7,0.3,11.4-5.8,15.6c0.7-2.4,1.1-4.3,1.9-6.1c4.1-9.5-4.9-21.3-16.4-21.2
		c-7,0-13.7,1.3-20.4,3.3c-3,0.9-6.1,1.8-9.9,3c3.1-3.9,7.8-3.4,10.5-6.3c5-2.4,10.4-3.3,15.7-4.5
		C789.9,528.3,802.3,536.6,803.7,546.8z"/>
	<path class="st9" d="M739.3,536.1c3.9,0.1,5.4,2.3,3.9,5.5c-1,2.2-1,3.9,0.2,5.9c0.5,0.7,1.7,1.3,0.9,2.4c-0.6,0.9-1.7,1-2.6,0.8
		c-5.9-1.5-12.1-1.8-17.8-3.9c-1.6-0.6-3.8-0.9-4-3c-0.3-2.4,1.7-3.3,3.5-4.1C728.6,537.5,734.4,537.8,739.3,536.1z"/>
	<path class="st4" d="M633.8,540.2c-5.7,1.7-11.7,1.6-17.4,3.5c-2,0.7-4.8,0.7-4.7,3.2c0.1,2.5,2.8,3.3,5,3.8
		c1.1,0.3,2.3,0.1,3.4,0.2c-3.3,1.8-6.9,0.4-10.4,0.8c-0.8,0.1-1.6,0-2.4,0c-2.1,0.2-5,2.4-6.2,0.1c-1-1.9,0.1-4.9,0.5-7.4
		c0.4-2.5,3.1-2,4.4-2.1C615.3,542,624.5,539.7,633.8,540.2z"/>
	<path class="st1" d="M705.6,373.4c-1.3,3.7-2.1,7-0.5,10.5c1,2.1,0,3.2-2,3.8c-6.4,1.9-12.8,1.5-17.4-3.4c-4.6-4.9-7.3-10.9-5.2-18
		c1.5-5.1,2.5-10.3,4-15.3c1.8-6.1,0.1-11.6-2.5-17.1c-2.7-6-3.2-11.8,0.4-17.9c2.6-4.4,6.6-6.9,11-8c11.6-2.8,22.6-6.9,33.4-11.9
		c9.8-4.6,18.4-0.1,26.2,4.7c11,6.9,18,17.3,21.6,29.9c4.2,14.6,0.2,27.4-8.2,39.4c-5.1,7.3-11.6,11.1-20.6,11.1
		c-3.7,0-6.9,2.5-10.2,4.1c-10.2,5.1-23.2,0.9-28.5-9.1C706.6,375.2,706.1,374.4,705.6,373.4z"/>
	<path class="st10" d="M472.2,153.8c4.6-2.4,8.3-5.2,12.6-1.5c3.8,3.3,6.9,12.8,5.2,16.2c-1.3,2.7-3.9,3.1-5.7,0.7
		c-1.4-1.8-2.1-3.9-2.9-6C479.7,159.3,477.7,155.4,472.2,153.8z"/>
	<path class="st10" d="M515.8,154.6c10.1-1,19.9,8.4,22.2,16.4c0.3,1.1,0.2,2.3-0.8,3.1c-1,0.8-2,0.6-3.1,0.1
		c-2.2-0.9-4.1-2.5-5.1-4.3C526,164.1,522.7,158.6,515.8,154.6z"/>
	<path class="st11" d="M502,272.7c-0.4,13.2-1.7,26.3-5.2,39.1c-1.7,6.3-4.8,12.2-10.2,16c-6.9,4.8-16.9,1.6-23.3-6.6
		c-13.5-17.3-21.3-37.2-27.4-58c-1.4-4.9-1.8-10.1-2.3-15.2c-1.2-11.2,3.2-20.1,12.7-25.8c11.6-6.9,24.2-10.1,37.9-7.5
		c3.1,0.6,5.1,2.4,6.9,4.8c6,7.7,7.6,17,8.6,26.2C500.8,254.7,502.5,263.7,502,272.7z"/>
	<path class="st11" d="M504.9,290.5c-0.4-16.4,1.5-31.7,2-47c0.2-4.9,0.9-10,2-14.8c1.1-4.3,3.4-8.2,8.4-9c4.4-0.7,9.5,2,11.9,5.9
		c3.7,5.9,4.7,12.5,3.8,19.1c-1.5,10.3-1.5,20.8-3.8,31c-3.2,14.2-5.4,28.7-11.9,42c-1.2,2.4-2.5,5.8-5.6,5.2
		c-3.1-0.6-4.4-3.7-5.1-7C504.8,307.2,504.7,298.4,504.9,290.5z"/>
	<path class="st11" d="M710.4,496.7c1.9,11.5,4.8,22.5,8.7,33.3c0.6,1.6,1,2.7-0.5,3.8c-1.3,1-2.3,0-3.5-0.4
		c-3.3-1.2-3.7-4.2-4.2-6.9C709.1,516.5,710.3,506.5,710.4,496.7z"/>
	<path class="st11" d="M721.2,461.1c-9.1-11.3-21.5-12.5-34.3-12.9c-15.3-0.5-30.5-1.3-45.8-2.5c9.3,0.4,18.5-1.8,27.8-1.4
		c15.7,0.7,31.4-1.4,47.1-1c4.8,0.1,8.5,4.2,7.6,8.8C723,455,722.1,457.8,721.2,461.1z"/>
	<path class="st11" d="M710.6,542.9c-13.3-1.3-26.7-1.1-39.9-2.5C684,540.4,697.4,538.9,710.6,542.9z"/>
	<path class="st12" d="M484.2,219.3c-9.8-0.1-18.2,3.5-25.6,9.5c-7.5,6.1-9.3,14.5-8.4,23.7c0.9,8.8,2,17.7,4.5,26.2
		c3.4,11.5,7.1,22.9,12.4,33.7c1.8,3.6,3.6,7.2,5,11.1c-4.4-2.9-7.3-7.2-10.4-11.3c-11.7-15.2-17.6-33-22.3-51.3
		c-1.2-4.7-1.7-9.5-2.1-14.3c-0.6-8.9,2.2-15.9,10-20.6C458.9,219,470.6,213.7,484.2,219.3z"/>
	<path d="M489.3,272.9c0.2,5.9-1,11.7-2,17.5c-0.5,3-2.1,5.9-5.1,6.3c-2.9,0.4-5.3-2-6.6-4.7c-2.6-5.7-4.2-11.6-2.3-17.9
		c0.8-2.6,0.1-5.3,1.1-8c1.6-4,3.9-6.7,8.3-6.2c4.7,0.5,5.6,4.5,6.4,8.2C489.5,269.6,489.3,271.3,489.3,272.9z"/>
	<path class="st12" d="M519.7,282.2c2.2-9.1,3.3-18.4,3.6-27.7c0.2-4.9,1.7-9.7,0.7-14.9c-1.2-6.2-2.9-11.8-7.9-16.2
		c5.9-1.3,11.2,2.2,12.3,7.9c1.3,6.6,0.8,13.1,0.3,19.7c-0.9,10.6-2.1,21.2-4.2,31.6c-2.3,11.6-6.1,22.8-10.7,33.7
		c-0.2,0.5-0.7,1-1.7,2.2c1.3-9.3,4.8-17.2,5.5-25.6C516,288.9,517.1,285.4,519.7,282.2z"/>
	<path d="M519.7,282.2c-0.7,3.6-1.5,7.1-2.2,10.7c-0.8,0.2-0.7,1-1,1.4c-1.4,2-3.4,4-5.8,3.3c-2.5-0.7-3-3.4-2.8-5.9
		c0.4-5.8-1.7-11.5-1-17.3c0.3-2.8,0.5-5.7,1.2-8.4c0.7-2.7,3-5.2,5.6-5c2.5,0.1,3.9,3.1,4.7,5.5C520.2,271.6,519.2,277,519.7,282.2
		z"/>
	<path class="st11" d="M487.3,270.9c-0.1,1.8,0.6,4.1-2.3,4.4c-2.2,0.3-6.4-5.3-6.5-8.5c-0.1-2.4,1.2-3.9,3.6-4.2
		C485.2,262.4,487.3,265.8,487.3,270.9z"/>
	<path class="st13" d="M483.4,290.6c0,1.6-0.2,3.1-2.2,3.1c-2.3,0.1-6.5-5.3-6.6-8.3c-0.1-1.7,0.5-2.9,2.3-3.1
		C479.3,282.1,483.5,287.5,483.4,290.6z"/>
	<path class="st11" d="M517.6,271.9c-0.3,2.2,0.8,4.6-1.9,5.3c-1.7,0.5-5.2-4.6-5-7.3c0.2-2.2,0.7-5.3,3.1-5
		C518.2,265.3,517.1,269.5,517.6,271.9z"/>
	<path class="st13" d="M508.8,289.8c-0.1-2.6,0.3-5.2,1.9-5.1c3.1,0.3,3.6,3.7,4.6,6.1c0.9,2-0.8,3.5-2.5,4c-2.6,0.7-3-1.7-3.8-3.4
		C508.7,290.6,508.8,289.7,508.8,289.8z"/>
</g>
</svg>
