<?xml version="1.0" encoding="utf-8"?>
<!-- Generator: Adobe Illustrator 23.0.1, SVG Export Plug-In . SVG Version: 6.00 Build 0)  -->
<svg version="1.1" id="Layer_4" xmlns="http://www.w3.org/2000/svg" xmlns:xlink="http://www.w3.org/1999/xlink" x="0px" y="0px"
	 viewBox="0 0 1000 1000" style="enable-background:new 0 0 1000 1000;" xml:space="preserve">
<style type="text/css">
	.st0{fill:#6E3720;}
	.st1{fill:#FB9A7A;}
	.st2{fill:#CBB89A;}
	.st3{fill:#E00000;}
	.st4{fill:#7F0000;}
	.st5{fill:none;}
	.st6{fill:#7898AB;}
	.st7{fill:#800000;}
	.st8{fill:#B0F3F2;}
	.st9{fill:#2B5260;}
	.st10{fill:#7F7F7F;}
	.st11{fill:#FEFEFE;}
	.st12{fill:#C0FEFE;}
	.st13{fill:#00407F;}
</style>
<g>
	<path class="st0" d="M632.7,378c-8.4,4.5-17.1,7.5-26.9,4.9c-1.6-0.4-3.4-0.2-5.1,0.8c-8.3,5.3-17.2,6.3-26.4,2.9
		c-3.3-1.3-6.5-0.6-9.3,0.3c-6.5,2.2-12.3-0.1-17.1-3.3c-12.8-8.5-24-18.6-27.3-34.7c-0.2-0.9-0.6-1.7-1.3-1.9
		c-0.8-0.2-1.2,0.8-1.7,1.4c-2.3,2.4-2.5,4.7-0.8,7.7c4.8,8.4,9.5,16.8,13.8,25.5c5.8,11.9,7.9,24.3,5.7,37.6
		c-0.9,5.7-0.4,11.5-1,17.3c-1.3,12.1-2.2,24.2-3.9,36.2c-0.6,4.3-0.8,8.7-0.8,13c-0.2,8.6-0.5,17.2-1.5,25.6
		c-1.6,12.4,2.7,22.5,7.8,33.1c5.5,11.7,2.6,21.9-12.9,24.9c-18.3,3.5-36.8,1.6-55.2,1.9c-4.9,0.1-9.9-0.9-14.7-2
		c-9.7-2.2-15.6-12.5-13.3-22.2c0.9-3.6,2.6-6.7,4.1-10c3.2-7.1,3.6-14.6,3-22.4c-1.2-14.5-8.1-27.2-11.8-40.8
		c-3.9-14.1-6.7-28.4-8.3-42.9c-1.3-11.8-2.2-23.6-8.1-34.5c-9-16.4-19.4-31.9-28.7-48.1c-12.2-21.4-24.2-43-30.2-67.3
		c-3.7-14.8-5.2-29.6,0.7-44.1c3.6-9,9.5-16.5,17.2-22.4c11-8.4,22.6-15.6,36.1-19.6c7.2-2.1,14.3-4.2,21.8-4.6
		c4.8,1.3,9,4.6,9.5,7.5c-1.8,1.3-3.9,1.5-6,1.8c-21.7,3.8-41.6,11.5-58.5,26.2c-5.8,5-9.8,11.1-11.8,18.6
		c-4.3,15.6-0.7,30.4,4.4,44.9c8.9,25,22.5,47.6,36.7,69.8c8,12.5,15.7,25.1,22,38.5c4.3,9.1,4.8,18.9,5.8,28.5
		c1.8,17.4,5.6,34.3,10.4,51.1c3.5,12.2,8.6,23.8,10.5,36.5c1.4,9.2-0.3,17.8-3.9,26.1c-1,2.4-2.4,4.6-3.4,7c-2.7,6.5-1,10,5.9,12.1
		c5.5,1.7,11.2,2.5,16.8,2.7c13,0.5,26,1,38.9-1.3c1.9-0.3,3.8-0.7,5.7-1.2c8-2.2,10.3-6.1,6.2-13.2c-9.1-16-8-33.1-7-50.4
		c0.6-11,1.2-22.1,2.3-33.1c1.5-14.9,2.2-29.8,3.7-44.7c1.2-12.2-1.5-23.6-6.3-34.6c-3.1-7.2-6.6-14.2-11-20.6
		c-1.7-2.5-3.5-3.4-6.6-2.8c-5.5,1.2-11,0.8-16.5,0.2c-14.7-1.6-28.6,0.1-39.9,11.1c-1.6,1.5-3.8,4-5.8,2.6c-2.2-1.5,0-4.2,0.7-6.2
		c5.5-13.9,17.3-18.1,30.8-19.2c5.2-0.4,10.4,0,15.6,0.5c9.8,0.9,18.8-0.8,25.1-9.5c2.9-4.1,4.4-8.4,1.8-12.7
		c-5.3-8.7-3.4-16.6-0.4-25.8c5.5-17,8.4-34.8,8.8-52.8c0.1-4.4,1-8.7,1.1-13.1c0-11.2-4.9-19.2-14.6-24.6c-6.5-3.6-13.3-6-20.5-7.7
		c-4.4-1-9-1.3-13.1-3.7c-0.4-0.5-0.9-1.3-0.3-1.6c3.5-1.9,5.9-5.2,9.5-6.9c3.7,2.1,8,1.5,11.8,2.9c4.9,2.1,10.3,2.9,14.8,6
		c6.5,4.6,13,9.2,17.5,16c3.2,4.8,4.6,10.1,4.8,15.7c0.3,12.7-1.3,25.3-2.6,37.9c-1.5,14.2-4.9,27.7-10,40.9
		c-1.4,3.6,0.5,5.8,2.4,8.7c4.2-12.9,10.8-23.8,21.7-31.4c10.3-7.2,21.9-10,34.3-5.8c7.7,2.6,15.7,3.1,23.7,2.9
		c13.3-0.3,22.5,5.5,27.5,18c0.7,1.8,0.1,4,1.8,5.3c1.5,1.9,1.3,4.2,1.1,6.4c-2.2,8.2,0.3,15.7,3.7,22.9c2.3,5,4.4,10,6,15.3
		c0.3,2,0.9,4,1,6.1c0.1,4.5-1,8.6-3.2,12.5C637.6,373.5,636.3,376.9,632.7,378z"/>
	<path d="M808.6,547.9c-2.3-16.4-19.9-23-32.1-21.1c-8.9,1.4-16.9,5.4-25.2,8.7c-1.2,0.5-2.3,1.3-3.2-0.3c-2.8-4.6-6.7-4.7-11.3-3.2
		c-1.7,0.6-2.8,0.6-3.7-2c-4.7-14.8-8.4-29.9-11.6-45.1c-0.4-2,0.1-2.3,1.8-2.8c3-0.8,6.4-1.2,8.2-4.2c6.8-11.6,11.2-23.8,7.1-37.4
		c-1.5-5.1-4.3-9.1-10.6-10.1c-3.4-0.5-6.7-0.5-10-0.6c-6.8-0.3-13.3,0.8-19.4-4.5c-5.3-4.6-12.7-6.1-19.7-7.1
		c-4.1-0.6-5.8-2.7-6-6.1c-0.4-4.9-1.3-9.8-2-14.6c-2-12.6-4-25.3-5.8-38c-0.3-1.8-0.8-4,1.8-4.9c1.9-3.6,2.8-7.4,1.5-11.5
		c-0.2-0.1-0.3-0.3-0.5-0.3c0,0,0,0,0,0c-0.8-0.4-1.4,0.3-1.9,0.9c-3.4,4.7-8.3,6.1-13.7,7c-3.5,0.6-7.3-0.3-10.7,1.3
		c-0.4,0.2-0.7,0.4-1.1,0.6c0.3,2,0.7,3.9,1,5.9c0.4,0.3,0.8,0.5,1.2,0.7c2.8,1.3,5.8,0.8,8.7,0.3c4-0.7,5.7,0.6,6.2,4.5
		c1.6,13.5,4.2,26.9,6,40.5c1.6,12,1.6,12-10.4,13.8c-7.2,1.1-7.7,0.6-8.4-6.6c-1.1-12-2.3-23.9-3.8-35.8c-0.2-1.6,0.1-3.7-1.8-4.5
		c-0.2-0.1-0.4-0.2-0.6-0.2c-2,2.3-4,4.7-6,7c0.2,4.3,0.9,8.6,1.3,12.9c0.8,9.5,2.4,18.9,3.7,28.3c0.4,3.1-1.8,3.9-3.9,4.6
		c-2.7,0.9-5.3,1.9-7.4,4c-6,5.9-13.1,8.4-21.5,7.9c-5.5-0.3-11.1-0.1-16.6,0c-7.6,0.1-10.6,2.3-12.9,9.2
		c-2.3,6.9-1.7,14.2-0.9,21.1c0.9,7.6,3.2,15.4,12,18.3c1.6,0.5,1.1,1.6,1.5,2.5c4.7,11.6,4.8,23.9,5.6,36c1,13.8-1.7,27.3-4.8,40.7
		c-2.3,9.9,2,15.6,12.2,15.7c15.3,0.1,30.6-1.3,45.9-1.9c11.8-0.5,23.6,0.1,35.4,0.8c11.2,0.6,22.4,0.2,33.7,0.1c7,0,14,0,20.4-3.5
		c1.4-0.8,2.3,0.2,3.6,0.5c7.5,2.2,15.1,3.4,22.8,3.9c11.9,0.7,23.2-2.3,33.8-7.9C806.2,566,810.1,558.5,808.6,547.9z M745,554.6
		c1,0,2.2-0.6,3-1.3c9.4-8.9,22.1-10,33.6-14c4.2-1.5,11.5,3.5,13.2,8.2c1.3,3.4-1.8,9.7-5.7,12.2c-7.6,4.8-16.3,5.3-25.1,7
		c-6.3-1.1-12.8-2.1-19.3-3.4c-2.8-0.6-3-3.3-3.4-5.5C740.9,555,742.8,554.7,745,554.6z"/>
	<path class="st0" d="M666.9,354.5c0.3-3.9,0.7-7.9,1-11.8c-0.3-0.4-0.5-0.9-0.5-1.4c0-0.3,0-0.7,0.1-1c2.5-9,3.1-18,0.3-27
		c-1-5.2-1.5-10.4,0.5-15.5c3.8-9.8,10.9-16.4,20.8-19.5c9.5-2.9,18.9-5.6,28.1-9.5c16.1-6.8,30.4-1.6,43.1,8.9
		c4.7,3.9,9.6,7.8,13.2,13.2c5.2,7.8,7.6,16,8.8,25.2c1.6,11.9-0.7,22.9-6.4,33c-5.7,10-12.8,18.9-24.8,22.6c-3,0.9-5.2-1.2-7.9-0.2
		c-3.1,1.2-6.3,2.1-9.2,3.6c-4.7,2.5-9.3,3.9-14.6,1.9c-6.7-2.6-13-0.7-19.6,1.4c-13.6,4.5-25.4-1.7-30.9-14.2
		C667.7,361.2,667.6,357.8,666.9,354.5z"/>
	<path d="M483.2,190.4c-2.3,3.8-5.6,6.2-9.7,7.7c-6.7,4.1-21.3,3.6-27.2-1c-3.5-2-7-3.9-9.9-6.8c-2.8-9-1.6-13,6.9-17.9
		c10-5.7,20.9-8,32.4-5.5c7.1,1.6,11.5,7.5,10.5,14.6C485.8,184.6,485.3,187.9,483.2,190.4z"/>
	<path d="M509.8,199.3c-5.2-1.4-10.8-1.7-14.8-6c-5.9-7.1-1.5-15.9,4.7-20.5c10.5-7.8,24-6.2,30.3,4.1c4.8,7.8,1.8,17.1-7.1,20.4
		C518.7,198.8,514.3,199.5,509.8,199.3z"/>
	<path d="M667.9,313.4c4.5,7.4,4.2,15.1,1.7,22.9c-0.6,1.8,0.2,4-1.5,5.4c-2.2-2-1.2-4.9-1.9-7.3c-0.3-0.9-0.4-1.9-0.5-2.9
		c-1.9-14-9.2-17.8-23.9-17.4c-3.6,0.1-7.2,2.1-10.9,0.3c0-2.3,0-4.6,0-6.9c8.4-1.6,16.9-2.7,25.4-0.8c3.6,0.8,6.1,3.7,9.1,5.7
		C666.2,313,666.8,313.8,667.9,313.4z"/>
	<path class="st1" d="M446.4,197.1c9,2.9,18.1,2.5,27.2,1c5.6,1.4,11.2,2.8,16.8,4c9,1.9,17.1,5.7,24.2,11.3c6,4.7,9.1,11.4,8.8,19
		c-0.6,19.9-2.2,39.8-7,59.2c-1.8,7.2-3.9,14.2-6.7,21c-0.7,1.6-0.4,2.7,0.2,4c1,2,2.1,4,3,6.1c5.3,11.8-0.2,22.6-12.9,26.1
		c-5.7,1.6-11.1,1.8-17.1,1.1c-9.3-1.1-18.7-0.4-27.6,3.1c-9.4,3.7-13.6,11.5-16.7,20.9c5.8-3,9.6-7.9,15-10.8
		c9.8-5.2,20.3-5.3,30.7-4.4c6.5,0.6,12.8,1.1,19.1-0.6c1.7-0.5,2.6-0.4,3.5,1.1c11.1,17.2,20.9,35,19.4,56.3
		c-1,14.3-1.9,28.6-3.6,42.8c-0.9,8-1.8,16-2,24.1c-0.3,11.3-1.6,22.6-1.2,34c0.3,9.3,1.7,18.2,6.3,26.4c0.3,0.6,0.6,1.2,0.8,1.7
		c4.9,10,3.4,13.5-7.4,16.1c-15.7,3.9-31.6,3.4-47.6,2c-4.7-0.4-9.2-1.1-13.8-2.2c-7.9-1.8-10.2-6.5-6.9-13.9
		c3.1-6.7,6.1-13.2,7.4-20.7c1.4-7.7-0.4-14.8-2.3-21.7c-4-14.7-9.6-28.8-12.9-43.7c-2.5-11.4-5.3-22.8-5.7-34.6
		c-0.8-20.1-9.3-37.4-20.1-53.9c-12.5-19.2-24.7-38.7-34.8-59.3c-6.6-13.4-12.5-27.1-15-41.9c-2.9-16.6-1.6-32.8,11.8-45
		c14.5-13.2,32-21.2,51-25.6C435.6,199,441,198.2,446.4,197.1z"/>
	<path class="st1" d="M606.2,360.8c-3.5,9-7.9,16.2-18,18.6c-4.5,1-8.2,0-12-2c-2.4-1.2-5-2.3-7.4-1.1c-7.7,4.1-14.1,1.6-20.2-3.3
		c-7.4-6-14.5-12.2-17.2-22c-4.1-14.7-1.1-28.5,5.5-41.8c5-10,12.6-17,24-18.9c8.5-1.4,16.6,1.3,24.7,3c1.8,0.4,3.7,1,5.2,0.4
		c4.4-1.8,8.6-0.3,12.8,0.2c12.2,1.5,19.2,11.8,16.6,24c-1.3,5.9-1.4,11.5,2.2,17.1c3.7,5.8,6.2,12.2,7.8,19
		c2.6,11.4-5.6,21.6-17.3,20.8c-2.5-0.2-5.2-0.8-4.6-4.6C608.8,367.1,607.4,364.1,606.2,360.8z"/>
	<path class="st2" d="M641.6,358.4c4.1-0.3,8.3,0.4,12.5-0.9c2.1-0.7,3.9-0.4,4.3,3.1c1.2,9.7,3.1,19.4,4.6,29.1
		c1.3,8.5,2.2,17,3.6,25.5c0.4,2.4-0.2,2.5-2.2,2.9c-5.9,1.3-12,0.9-17.8,2.7c-1.2,0.4-2-0.1-2.2-1.7c-0.9-8.9-1.8-17.7-2.9-26.6
		c-0.9-7.2-0.6-14.5-2.8-21.6C639.9,366.8,642,362.9,641.6,358.4z"/>
	<path class="st2" d="M630.9,314.5c7-0.9,13.8-2.8,21.2-1.1c10.5,2.5,12.6,7.2,14.8,16.5c0.9,3.8,0.8,7.9,1.2,11.9
		c-0.1,0.3-0.1,0.7-0.2,1c-2.6,6.1-7.8,8-13.9,8.9c-4.5,0.7-8.9,1-13.4,0.9c-2.5-9.4-8.4-17.5-10.2-27.2
		C629.7,321.7,629.2,318,630.9,314.5z"/>
	<path class="st3" d="M711,484.3c3.5,14,7.1,27.9,10.6,41.9c0.2,0.8,0.4,1.6,0.6,2.3c2.1,6.8,1.6,7.7-5.7,7.6
		c-12.3-0.1-24.5-0.7-36.8-1.1c-10.5-0.2-21.1-0.1-31.6,0.3c-11,0.5-22,0.8-33,2.1c-6.7,0.8-9.7-2.8-8.8-9.4
		c0.7-5.2,1.7-10.3,3.5-15.2c4.5-12.5,14.1-19.2,26.5-22.2c13.9-3.3,28-5.4,42.4-5.9c8.1-0.3,16.2-0.5,24.3-1.5
		C705.8,482.9,708.6,482.5,711,484.3z"/>
	<path class="st3" d="M605.5,444.5c22.2-1.9,44.6-1.5,66.8-2.3c14.6-0.6,29.1-0.4,43.7-0.7c10.1-0.2,12.7,2.2,10.8,12.9
		c-0.9,4.8-2.1,9.2-4.1,13.7c-1.4,3.3-3.7,4.5-6.8,3.7c-6.4-1.8-13.2,0.2-19.6-2c-13.8-2-27.8-1.7-41.6-3.4c-16.1-1.9-32,0.9-48,1.8
		c-4.3,0.3-8.4,0.2-12.3-1.9c-4.4-2.4-6.5-6.6-5.8-11.3c0.7-4.8,3.9-8.2,8.7-9.4C600.1,444.7,602.9,445.2,605.5,444.5z"/>
	<path class="st4" d="M711,484.3c-16.8,1-33.6,1.4-50.3,3.3c-10.5,1.2-21.1,2.9-31.1,6.7c-13.6,5.2-18.9,16.3-21.3,29.5
		c-0.2,1-0.1,2-0.3,2.9c-1.7,8,0.3,10.3,8.7,9.4c13.5-1.4,27.1-2,40.7-1.9c5.9,0,11.7,0,17.6,0c1.6,0,3.3-0.5,4.6,0.8
		c-16,0.7-32,1.2-47.9,2.2c-9.1,0.5-18.2,1.8-27.3,2.7c-1.6,0.2-3,0.1-2.7-2.2c2.1-13.9,0-27.7-2.6-41.3
		c-2.2-11.5-2.5-11.2,8.6-13.2c14-2.4,28-3.9,42.1-5c16.7-1.3,33.1,0.3,49.6,2c3,0.3,6.1,0.7,9.1,1C710.7,481.6,711,482.7,711,484.3
		z"/>
	<path class="st3" d="M696.4,550.7c3.7,0,7.5,0.4,11.2,0c7.1-0.6,13.7,1.3,20.4,3c2.8,0.7,3.5,3,3.4,5.1c-0.2,3.3-0.6,6.9-4.4,8.3
		c-5,1.8-10.4,1.8-15.7,2c-11.5,0.4-23.2,0.9-34.6-0.1c-14.6-1.2-29.2-0.2-43.8-0.9c-0.5-0.2-0.9-0.4-1.4-0.3
		c-2.7,0-5.5,0.1-6.1-3.3c-0.6-3.2,1.4-5.2,3.9-6.6c3.7-2.1,8-2.7,12.1-3.4c17.3-2.9,34.7-3.6,52.2-4.3
		C694.5,550.3,695.5,550.2,696.4,550.7z"/>
	<path class="st5" d="M789,559.6c-7.6,4.8-16.3,5.3-25.1,7c-6.3-1.1-12.8-2.1-19.3-3.4c-2.8-0.6-3-3.3-3.4-5.5
		c-0.4-2.7,1.6-3,3.7-3.1c1,0,2.2-0.6,3-1.3c9.4-8.9,22.1-10,33.6-14c4.2-1.5,11.5,3.5,13.2,8.2C796.1,550.8,793,557.1,789,559.6z"
		/>
	<path class="st3" d="M633.8,540.2c27.2-1.4,54.4-3.4,81.8-1.1c-1.1,4.7-1.1,4.7,0.7,9.8c-7.6-0.4-15.1-0.5-22.5-1.3
		c-7.6-0.8-15.1-1.1-22.6,0.1c-4.8,0.7-9.6,0.5-14.4,1c-12.2,1.2-24.4,1.6-36.7,2.3c-5.7,0.7-9-0.6-9.3-3.6
		c-0.3-2.7,2.5-4.6,8.1-5.3C623.9,541.4,628.9,540.5,633.8,540.2z"/>
	<path class="st4" d="M605.5,444.5c-2,1.7-4.6,0.9-6.9,1.6c-7.8,2.2-9.2,7.7-8.7,12.1c0.5,4.6,5.5,8.6,11.5,8.6
		c6.6,0,13.2-0.6,19.8-1.1c9.9-0.6,19.7-2.3,29.8-1.1c8.8,1,17.6,1.5,26.4,2.4c6.3,0.6,12.9,0.2,18.9,2.7c-5.7,1-11.3-0.8-16.9-0.9
		c-18-0.3-35.9,0.8-53.8,2.2c-10.5,0.8-21,2.8-31.5,4.6c-6.2,1-10.5-2.8-11.1-10.2c-0.4-4.7,0.5-9.4,1.2-14c0.5-3.1,2.8-5.3,5.9-5.8
		C595.2,444.6,600.3,443.8,605.5,444.5z"/>
	<path class="st6" d="M803.7,546.8c4.6,7.2-1.1,16.9-7.8,20.6c-13.2,7.4-27.1,8.9-41.7,6.5c-2.4-0.4-4.8,0-7.2-0.6
		c-4.2-1.1-6.6-2.7-4.4-7.4c7.3,1.8,14.8,3.6,22.4,3.4c10.9-0.3,21-3.2,29.8-10.1c5.1-4,4.5-14.8-1.3-18.9
		c-5.7-4.1-11.7-5.2-18.4-2.6c-7.8,3-15.9,5.5-23.7,8.5c-2.2,0.9-3.3,0.3-4.6-1.2c-1.8-2.1,0.5-3.1,1.5-3.8
		c4.6-3.2,9.8-5.2,15.3-6.2c-1.1,4.3-5.4,2.9-8.1,4.8c6.6-2.3,13.1-4.9,20-5.6c6-0.7,12.1-1,17.5,2.2c7.8,4.5,10.2,11.7,7.9,21.1
		C803.5,554.9,801.2,550.2,803.7,546.8z"/>
	<path class="st7" d="M696.4,550.7c-20.8,1.4-41.8,2.1-62.2,6.9c-1.2,0.3-2.5,0.7-3.7,1.2c-2.4,0.9-4.5,2.6-4.3,5.2
		c0.2,3.1,2.9,3.4,5.5,3.5c0.4,0,0.8,0.5,1.2,0.7c-9.2,0.7-18.3,1.6-27.5,2c-7.4,0.3-8.4-1.1-6.7-8.1c1.6-6.7,2.1-7.2,11-7.5
		c15.2-0.4,30.2-2.6,45.4-3.2c12.6-0.5,25.1-1.8,37.7-1.7C694,549.8,695.4,549.5,696.4,550.7z"/>
	<path class="st2" d="M696.6,430.8c-17.8-1.1-34.2,2.8-51,3.1c-5.7,0.1-11.4,0.5-17.4,0.7C636.9,424.2,684.8,421.3,696.6,430.8z"/>
	<path class="st8" d="M803.7,546.8c0.2,5.7,0.3,11.4-5.8,15.6c0.7-2.4,1.1-4.3,1.9-6.1c4.1-9.5-4.9-21.3-16.4-21.2
		c-7,0-13.7,1.3-20.4,3.3c-3,0.9-6.1,1.8-9.9,3c3.1-3.9,7.8-3.4,10.5-6.3c5-2.4,10.4-3.3,15.7-4.5
		C789.9,528.3,802.3,536.6,803.7,546.8z"/>
	<path class="st9" d="M744.4,539.7c-2.7,3.3-2.1,6.2,0,9.4c0.7,1.1-1.1,1.8-2.2,1.6c-6.6-1.4-13.4-1.8-19.7-4.4
		c-1.2-0.5-2.5-0.9-2.7-2.5c-0.2-1.8,1-2.8,2.3-3.4c5.7-2.9,12.1-3,18.2-4.1C742.6,535.8,743.5,537.9,744.4,539.7z"/>
	<path class="st4" d="M633.8,540.2c-5.7,1.7-11.7,1.6-17.4,3.5c-2,0.7-4.8,0.7-4.7,3.2c0.1,2.5,2.8,3.3,5,3.8
		c1.1,0.3,2.3,0.1,3.4,0.2c-3.3,1.8-6.9,0.4-10.4,0.8c-0.8,0.1-1.6,0-2.4,0c-2.1,0.2-5,2.4-6.2,0.1c-1-1.9,0.1-4.9,0.5-7.4
		c0.4-2.5,3.1-2,4.4-2.1C615.3,542,624.5,539.7,633.8,540.2z"/>
	<path class="st1" d="M702.6,354.8c-1.2,3.8-1.9,7.2-0.4,10.7c0.9,2.1-0.1,3.1-2.1,3.7c-6.4,1.7-12.8,1.5-17.4-3.5
		c-4.5-4.9-7.2-10.9-5.1-18.1c1.3-4.4,1.6-9.2,3.3-13.5c2.7-6.8,1-12.8-1.9-18.9c-4.9-10.3-0.8-20.7,8.5-24.6c3-1.3,6-2.3,9.1-2.9
		c8.8-1.7,16.9-5.1,24.7-9.2c10.9-5.6,20.3-1.5,29.3,4.1c10.1,6.4,16.7,16,20.5,27.3c5.1,15.1,1.5,28.7-7.4,41.4
		c-5.2,7.4-11.7,11.4-21,11.4c-3.6,0-6.9,2.5-10.2,4.2c-10.2,5.1-23.1,0.8-28.4-9.3C703.7,356.6,703.3,356,702.6,354.8z"/>
	<path class="st10" d="M451.4,173.6c8.4-3.4,15.7-4.8,23.4-2.5c3.2,1,5.5,3.4,6.4,6.6c0.5,1.7,0.4,3.5-1.3,4.9
		c-1.6,1.3-3.2,1.4-4.8,0.2C468.5,177.8,460.7,175.1,451.4,173.6z"/>
	<path class="st10" d="M511.8,172.3c7.7-0.9,15.2,4,17.2,10.6c0.5,1.8-0.3,2.7-1.4,3.8c-1.3,1.2-2.8,1.2-4,0.4
		c-1.3-0.9-2.8-2-3.4-3.4C518.2,179.4,515.5,175.7,511.8,172.3z"/>
	<path class="st11" d="M488.3,276.4c-0.7,12.5-0.2,25.2-4.1,37.3c-5.4,16.7-17.9,18.4-30.5,7.6c-6.6-5.7-11.5-13.1-15.7-20.7
		c-9.2-16.7-18.3-33.8-19.6-53c-1-15,2-23.9,19.7-32.4c8.3-4,17-6.3,26.6-4.4c5.3,1.1,8.1,4.3,10.6,8.3c7.1,11.5,8.8,24.6,11,37.6
		C487.4,263.2,489.1,269.6,488.3,276.4z"/>
	<path class="st11" d="M490.2,246.8c0.6-7.8-0.6-16.4,0.9-25c0.7-4.1,0.9-8.1,5.6-9.7c4.1-1.4,10.8,1,13.5,4.6
		c3.6,4.7,6,10.1,6.2,15.9c0.3,6.3,0.6,12.6-0.4,18.9c-1,5.7-0.4,11.6-1.3,17.4c-2.4,15.7-3.6,31.6-9.9,46.4
		c-2.2,5.2-3.6,5.2-7.4,0.9c-1.9-2.1-2.7-4.8-3.2-7.4c-2.1-10.9-2.4-22.1-3.2-33.1C490.3,266.3,490.5,257,490.2,246.8z"/>
	<path class="st11" d="M710.4,496.7c2,11.5,4.7,23,9.1,33.9c0.5,1.2,0.4,2.2-0.6,3c-1,0.9-1.9,0.5-3.1,0.1c-3.6-1.3-4.2-4.4-4.8-7.5
		C709.2,516.4,710.3,506.6,710.4,496.7z"/>
	<path class="st11" d="M721,460.8c-8.9-10.9-21.2-12.2-34.1-12.6c-15.3-0.5-30.5-1.3-45.8-2.4c12.8-0.2,25.6-2,38.4-1.5
		c12.1,0.5,24.2-1.6,36.3-1c4.8,0.3,8.7,4.2,7.5,8.8C722.7,454.9,722.9,458,721,460.8z"/>
	<path class="st11" d="M710.6,542.9c-13.3-1.5-26.7-0.9-40-2.6C684,540.3,697.4,539,710.6,542.9z"/>
	<path class="st12" d="M467.6,216.8c-2.4,0-4.9-0.2-7.3,0c-16.7,1.5-28.9,19-26.2,35.7c4.1,24.8,14,47,27.2,68
		c0.2,0.2,0.1,0.6,0.3,1.5c-4.9-0.7-7.2-4.4-9.7-7.4c-15.5-18.9-24.8-40.8-29.9-64.5c-2.5-11.4,2.2-21.9,11.8-28.6
		c6.5-4.6,13.9-6.9,21.5-8.4C459.8,212.2,463.8,214.4,467.6,216.8z"/>
	<path d="M481.3,277.2c1,4.1-0.6,8.2-1,12.5c-0.3,2.8-2.1,5.7-5.2,6.1c-3.5,0.4-6.2-1.9-7.3-5c-3.1-8.4-4.3-17.2-1.9-26
		c0.9-3.4,3.3-5.8,7.1-5.9c3.8-0.2,5.4,2.2,6.7,5.5C481.3,268.4,481.7,272.6,481.3,277.2z"/>
	<path class="st12" d="M505.8,267.7c1.5-11.6,1.6-23.2,0.1-34.9c-0.8-6.4-3.6-11.6-8.3-16.1c4-1,7.6,0.4,10.1,3.6
		c3.6,4.7,5,10.3,5,15.9c0.2,21.2-1.8,42.3-6.9,63c-1.1,4.6-3.2,9.1-5.7,13.3c1.3-7.8,2.5-15.7,3.8-23.5
		C504,281.8,503.6,274.6,505.8,267.7z"/>
	<path d="M505.8,267.7c0.1,7.2,0.7,14.4-2,21.3c-2,1.7-2.7,6-6.2,4.7c-3-1.1-2.9-4.8-3.6-7.7c-1.1-4.8-0.6-9.8-1.7-14.6
		c-1-4.5,0.1-9.1,3.5-12.8c2.6-2.8,4.7-2,6.8,0.6C504.6,261.6,504.4,264.9,505.8,267.7z"/>
	<path class="st11" d="M473.4,261.6c1.5,1.1,3.7,1,4.3,3.4c0.6,2.5,3,4.8,1.3,7.5c-1.2,1.9-2.9,3-5.1,0.7c-1.9-2.1-4.2-3.9-4.1-7.2
		C469.7,263.4,471.1,262.2,473.4,261.6z"/>
	<path class="st13" d="M469.1,282.5c2.6-0.3,8.1,6.9,7.2,8.9c-0.4,0.9-1.2,1.5-2.3,1.5c-3.5,0.1-7.4-5.6-6.1-8.8
		C468.2,283.4,468.9,282.9,469.1,282.5z"/>
	<path class="st11" d="M502.9,268c0,2,0.1,4.9-2,4.2c-2.8-0.9-4.7-3.6-4.8-7c0-2.3,1-5.6,2.9-5.1C502.7,261,503.2,264.8,502.9,268z"
		/>
	<path class="st13" d="M495.1,284.5c0-2.5,0.5-4.5,2.5-4c3.3,0.8,3.8,4,4.2,6.8c0.3,1.8-1.3,3.7-2.7,3.3
		C495.9,289.8,496.2,286.2,495.1,284.5z"/>
</g>
</svg>
