<?xml version="1.0" encoding="utf-8"?>
<!-- Generator: Adobe Illustrator 23.0.1, SVG Export Plug-In . SVG Version: 6.00 Build 0)  -->
<svg version="1.1" id="Layer_4" xmlns="http://www.w3.org/2000/svg" xmlns:xlink="http://www.w3.org/1999/xlink" x="0px" y="0px"
	 viewBox="0 0 1000 1000" style="enable-background:new 0 0 1000 1000;" xml:space="preserve">
<style type="text/css">
	.st0{fill:#6E3720;}
	.st1{fill:#E00000;}
	.st2{fill:#CBB89A;}
	.st3{fill:#7F0000;}
	.st4{fill:none;}
	.st5{fill:#7898AB;}
	.st6{fill:#800000;}
	.st7{fill:#B0F3F2;}
	.st8{fill:#2B5260;}
	.st9{fill:#FB9A7A;}
	.st10{fill:#FEFEFE;}
	.st11{fill:#C0FEFE;}
	.st12{fill:#7F7F7F;}
	.st13{fill:#00407F;}
</style>
<g>
	<path d="M808.7,548.1c-1.9-15.5-19.6-23.6-32.8-21.1c-8.6,1.6-16.3,5.4-24.4,8.3c-1.6,0.6-2.5,1.4-3.8-0.8c-2.2-3.7-6.4-4.5-9.8-3
		c-4.1,1.8-4.8-0.7-5.4-3.2c-3.6-13.5-7.6-26.9-10.3-40.7c-0.8-4.2-1-6.1,3.7-6.4c2.4-0.1,4.4-1.5,5.5-3.4
		c7.2-12,11.7-24.5,6.9-38.6c-1.5-4.5-4.2-7.7-9.5-8.8c-7-1.5-13.8-0.3-20.7-0.8c-1.5-0.1-3.1,0.4-4.5-1c-5.5-5.3-12.5-8.3-19.7-9.5
		c-7.4-1.2-10.7-3.4-11.3-11.8c-1.1-15.1-4.2-30.1-6.5-45.2c-2-13-3.9-26-5.8-39c-0.3-1.8-0.8-4,1.8-4.9c1.9-3.6,2.8-7.4,1.5-11.5
		c-0.2-0.1-0.3-0.2-0.5-0.3c-0.6-0.3-1.2,0-1.6,0.6c-3.7,5.4-9.3,6.6-15.2,7.5c-3.4,0.5-7.1-0.6-10.2,1.3c-0.1,0-0.2,0.1-0.3,0.2
		c-0.1,0.1-0.3,0.2-0.4,0.3c-0.9,2.4-0.3,4.4,1.4,6.2c0,0,0,0,0,0c0,0,0.1,0,0.2,0.1c2.7,1.3,5.6,0.9,8.5,0.7c6.6-0.6,6.5-0.6,7.6,6
		c3.1,19.9,5.1,40,8.5,59.8c1.3,7.5,2.3,15.1,3.2,22.7c0.4,3.3-0.8,4.9-4.1,5.2c-3.1,0.3-6.1,0.8-9.2,1.2c-4.9,0.6-5.7,0-6.2-5
		c-2.3-20.4-4.8-40.7-7.2-61c-0.7-5.9-0.4-12-3.2-17.6c-0.3,0-0.5,0-0.8,0c-0.1,0-0.1,0-0.1,0c-3.9,0.4-5.2,3.5-6,7
		c0.7,4.9,1.6,9.7,2,14.6c0.8,9.4,2.3,18.7,3.1,28c1,11.5,3,22.9,4.8,34.4c0.5,3-1.6,4.2-3.6,4.8c-3,0.8-5.6,2-7.8,4.2
		c-6,5.9-13.2,8.2-21.6,7.7c-5.3-0.3-10.7-0.1-16.1,0c-7.9,0.1-11,2.2-13.2,9.4c-2.2,6.9-1.6,14.2-0.8,21.1
		c1,7.7,3.4,15.3,12.1,18.2c1.7,0.6,1,1.8,1.4,2.7c4.5,11.6,4.8,23.9,5.6,36.1c0.9,13.8-1.8,27.3-4.8,40.7
		c-2.2,9.6,2.1,15.4,12,15.4c15.3,0.1,30.6-1.3,45.9-1.8c10.7-0.4,21.3-0.1,32,0.7c10.4,0.8,20.8,0.2,31.2,0.2
		c9.1-0.1,18.3,0.9,26.8-3.6c1.2-0.6,2.1,0.2,3.1,0.5c7.4,2.3,15.1,3.5,22.8,4c12.2,0.7,23.8-2.3,34.6-8.3
		C806.2,565.6,809.9,558.4,808.7,548.1z M744.7,554.6c1.2-0.1,2.5-0.7,3.4-1.5c9.5-8.8,22.1-10,33.6-13.9c4.3-1.4,11.5,3.8,13.1,8.4
		c1.1,3.3-1.8,9.7-5.5,12c-7.8,4.7-16.6,5.5-25.7,7c-6.1-1.1-12.7-2.1-19.2-3.5c-2.7-0.6-3-3.3-3.2-5.6
		C741,555.1,742.7,554.8,744.7,554.6z"/>
	<path class="st0" d="M477.6,193.3c11.9,6.5,17.3,17.3,19.3,30c1.7,11.2,3.6,22.5,3,34c-0.7,15.2-1.1,30.4-4.8,45.2
		c-0.8,3.3,1.8,4.9,3.2,6.6c9,10.6,8.1,21.5,1.2,32.5c-1.5,2.5-1.5,3.6,0.2,5.7c4.7,5.6,9.4,11.3,13.5,17.3
		c7.7,11.2,13.3,23.3,16,36.7c3.8,18.5,5.7,37.2,4.7,56c-0.8,15-1.9,29.9-4.4,44.8c-2.2,12.8-2.7,26.1,5,38
		c2.2,3.5,3.9,7.3,4.4,11.4c1.3,10.3-3.8,15.4-13.9,17.8c-8.7,2.1-17.8,2.3-26.8,2.1c-14-0.3-28,0.3-42-1.7
		c-10.3-1.5-18-12-15.5-22.3c0.5-1.9,0.6-4,1.8-5.8c7.2-11.5,6.8-23.9,3.3-36.4c-5.2-18.9-11.4-37.4-15.6-56.5
		c-1.8-8-3.2-16-5.8-23.9c-3.7-11.2-11-19.8-17.7-29.1c-16.2-22.6-35.9-42.7-51.3-66c-11-16.7-19.8-34.4-24.9-53.9
		c-5.1-19.4-1.4-36.4,11.3-51.6c11.6-14,26.4-23.5,42.9-30.9c5.7-2.5,11.6-4.1,17.5-5.8c3.2,2.3,3.4,5.4,2.5,8.9
		c-3.1,3-7.3,3.4-11.1,4.7c-15.3,5.4-28.9,13.6-40.2,25.2c-11.5,11.7-17.7,25.6-14,42.5c2.3,10.7,5.5,21,10.7,30.7
		c12.7,24.1,29.6,45.1,46.9,65.9c12.2,14.8,24.4,29.7,33.8,46.5c3.2,5.7,6,11.6,7.3,18c5.4,26,12.4,51.6,19.6,77.1
		c3.6,12.8,2.1,24.7-3.8,36.3c-5.6,10.9-3.8,14.6,8.2,16.7c18.1,3.3,36.2,3.1,54.4,0c2.1-0.4,4.2-0.8,6.1-1.7c4.6-2.1,5.9-5,4.3-9.8
		c-0.6-1.7-1.4-3.3-2.2-4.9c-6.2-11.3-6.9-23.3-6-36c1.5-20.9,4.5-41.7,3.3-62.8c-0.8-15.3-2.1-30.6-6.1-45.4
		c-4.5-16.6-12.7-31.3-24.6-43.8c-1.4-1.4-2.8-2.2-4.8-1.7c-11.7,3.1-23.9,2.5-35.8,4.3c-9.6,1.4-18.2,4.9-26.2,10
		c-1.7,1.1-3.7,3.2-5.6,1.6c-1.8-1.5-0.4-4,0.3-5.9c4.6-11,13-16.5,24.8-17.6c10.7-1,21.4-1,32-2.9c3.3-0.6,6.3-1.6,9.2-3.2
		c6.1-3.5,9.2-10.1,8-17c-0.6-3.4-1.6-6.8-3.7-9.5c-4.3-5.5-4.1-11.3-3.1-17.9c3.5-23.4,4.7-46.9,0.4-70.4
		c-1.7-9.4-5.2-17.4-13.3-22.9C473.1,198.7,474.7,195.7,477.6,193.3z"/>
	<path class="st0" d="M633.9,334.8c-2,2.3-4,4.7-6.1,7c-8.4,4.5-17.1,7.5-26.9,4.9c-1.6-0.4-3.4-0.2-5.1,0.8
		c-8.3,5.3-17.2,6.4-26.4,2.9c-3.4-1.3-6.5-0.6-9.3,0.3c-6.5,2.1-12.2-0.1-17.2-3.3c-13.3-8.7-24.2-19.5-28-35.9
		c-2.5-11.2-1.1-21.8,3-32.2c3.1-8,7.2-15.6,13.2-21.8c7.9-8.2,17.6-13.3,29.2-14.4c4.4-0.4,8.6,0.9,12.7,2.1
		c7.6,2.3,15.3,3,23.2,2.8c13.2-0.4,22.6,5.2,27.8,17.6c0.8,1.9,0.2,4.2,1.9,5.8c1.5,1.9,1.3,4.2,1.1,6.4
		c-2.2,8.1,0.3,15.5,3.6,22.6c1.7,3.7,3.5,7.4,4.7,11.2c0.5,1.5,1.5,3,0.3,4.6c0.3,2,0.7,3.9,1,5.9
		C638.9,327.2,637.1,331.2,633.9,334.8z"/>
	<path class="st0" d="M662.1,318.4c0.3-3.9,0.7-7.9,1-11.8c-0.3-0.4-0.5-0.9-0.5-1.4c0-0.3,0-0.7,0.1-1c2.5-9,3.1-18,0.3-27
		c-1-5.2-1.5-10.4,0.5-15.5c3.8-9.8,10.9-16.4,20.8-19.5c9.5-2.9,18.9-5.6,28.1-9.5c16.1-6.8,30.4-1.6,43.1,8.9
		c4.7,3.9,9.6,7.8,13.2,13.2c5.2,7.8,7.6,16,8.8,25.2c1.6,11.9-0.7,22.9-6.4,33c-5.7,10-12.8,18.9-24.8,22.6c-3,0.9-5.2-1.2-7.9-0.2
		c-3.1,1.2-6.3,2.1-9.2,3.6c-4.7,2.5-9.3,3.9-14.6,1.9c-6.7-2.6-13-0.7-19.6,1.4c-13.6,4.5-25.4-1.7-30.9-14.2
		C662.8,325.1,662.7,321.6,662.1,318.4z"/>
	<path d="M404.4,196.1c-0.2-3-0.8-6-2.1-8.7c0.4-10.9,4.5-13.9,15.2-11.7c6.2,1.3,11.7,3.5,16.2,8.1c4.2,1.9,6.6,5.6,9.8,8.6
		c0.5,0.6,1,1.3,1.4,2c6.6,10,5.7,16.2-3.2,24.2c-8.7,5.2-15.4,4.5-24.4-2.6c-1.3-1-2.5-2.2-3.7-3.4c-1-1-1.8-2.1-2.6-3.2
		C408.1,205.3,405.1,201.3,404.4,196.1z"/>
	<path d="M477.6,193.3c-1.4,2.9-2.7,5.8-4.1,8.7c-0.1,1.7-1.5,2.5-2.4,3.7c-1.2,1.2-2.7,2.1-4.1,3.1c-1.1,0.8-2.3,1.5-3.5,2.1
		c-3.8,1.9-6.6,0.1-9.3-2.5c-4.2-4.3-4.8-10.1-6.2-15.5c0.1-3.2-1.2-6.3,0.1-9.5c0-3.2,0-6.5,0.1-9.7c0.3-8,5.9-11.2,13.8-8.2
		c9.3,3.6,15.3,14.5,15.5,22.8C477.6,190,477.6,191.7,477.6,193.3z"/>
	<path d="M663,277.2c4.5,7.4,4.2,15.1,1.7,22.9c-0.6,1.8,0.2,4-1.5,5.4c-2.2-2-1.2-4.9-1.9-7.3c-0.3-0.9-0.4-1.9-0.5-2.9
		c-1.9-14-9.2-17.8-23.9-17.4c-3.6,0.1-7.2,2.1-10.9,0.3c0-2.3,0-4.6,0-6.9c8.4-1.6,16.9-2.7,25.4-0.8c3.6,0.8,6.1,3.7,9.1,5.7
		C661.3,276.8,661.9,277.7,663,277.2z"/>
	<path class="st0" d="M448.1,183.5c1.3,3.2,1.2,6.6,1,10c-2.6,1.6-4.6,0.1-6.7-1.1c-3.4-2.4-6.1-5.5-8.8-8.6
		C438.4,183.7,443.3,183.6,448.1,183.5z"/>
	<path class="st1" d="M711,484.3c3.5,14,7.1,27.9,10.6,41.9c0.2,0.8,0.4,1.6,0.6,2.3c2.1,6.8,1.6,7.7-5.7,7.6
		c-12.3-0.1-24.5-0.7-36.8-1.1c-10.5-0.2-21.1-0.1-31.6,0.3c-11,0.5-22,0.8-33,2.1c-6.7,0.8-9.7-2.8-8.8-9.4
		c0.7-5.2,1.7-10.3,3.5-15.2c4.5-12.5,14.1-19.2,26.5-22.2c13.9-3.3,28-5.4,42.4-5.9c8.1-0.3,16.2-0.5,24.3-1.5
		C705.8,482.9,708.6,482.5,711,484.3z"/>
	<path class="st1" d="M605.5,444.5c22.2-1.9,44.6-1.5,66.8-2.3c14.6-0.6,29.1-0.4,43.7-0.7c10.1-0.2,12.7,2.2,10.8,12.9
		c-0.9,4.8-2.1,9.2-4.1,13.7c-1.4,3.3-3.7,4.5-6.8,3.7c-6.4-1.8-13.2,0.2-19.6-2c-13.8-2-27.8-1.7-41.6-3.4c-16.1-1.9-32,0.9-48,1.8
		c-4.3,0.3-8.4,0.2-12.3-1.9c-4.4-2.4-6.5-6.6-5.8-11.3c0.7-4.8,3.9-8.2,8.7-9.4C600.1,444.7,602.9,445.2,605.5,444.5z"/>
	<path class="st2" d="M633.9,334.8c1.1-4.1,3.2-8.1,2.9-12.6c4.2-0.3,8.3,0.4,12.5-0.9c2.2-0.7,4-0.3,4.3,3.1
		c0.8,8.2,2.5,16.3,3.7,24.5c1.3,8.8,2.5,17.6,3.7,26.5c1.4,9.6,2.7,19.2,4.1,28.8c0.5,3.6,0.7,7.3,1.6,10.8
		c0.6,2.4-0.2,2.5-2.2,2.9c-5.9,1.3-12.1,0.9-17.9,2.8c-1.3,0.4-2-0.2-2.1-1.7c-0.9-7.9-1.9-15.8-2.9-23.7
		c-1.3-10-2.6-19.9-3.8-29.9c-1.1-9.2-2-18.4-3-27.6C634.6,336.8,635.2,335.5,633.9,334.8z"/>
	<path class="st3" d="M711,484.3c-16.8,1-33.6,1.4-50.3,3.3c-10.5,1.2-21.1,2.9-31.1,6.7c-13.6,5.2-18.9,16.3-21.3,29.5
		c-0.2,1-0.1,2-0.3,2.9c-1.7,8,0.3,10.3,8.7,9.4c13.5-1.4,27.1-2,40.7-1.9c5.9,0,11.7,0,17.6,0c1.6,0,3.3-0.5,4.6,0.8
		c-16,0.7-32,1.2-47.9,2.2c-9.1,0.5-18.2,1.8-27.3,2.7c-1.6,0.2-3,0.1-2.7-2.2c2.1-13.9,0-27.7-2.6-41.3
		c-2.2-11.5-2.5-11.2,8.6-13.2c14-2.4,28-3.9,42.1-5c16.7-1.3,33.1,0.3,49.6,2c3,0.3,6.1,0.7,9.1,1C710.7,481.6,711,482.7,711,484.3
		z"/>
	<path class="st1" d="M696.4,550.7c3.7,0,7.5,0.4,11.2,0c7.1-0.6,13.7,1.3,20.4,3c2.8,0.7,3.5,3,3.4,5.1c-0.2,3.3-0.6,6.9-4.4,8.3
		c-5,1.8-10.4,1.8-15.7,2c-11.5,0.4-23.2,0.9-34.6-0.1c-14.6-1.2-29.2-0.2-43.8-0.9c-0.5-0.2-0.9-0.4-1.4-0.3
		c-2.7,0-5.5,0.1-6.1-3.3c-0.6-3.2,1.4-5.2,3.9-6.6c3.7-2.1,8-2.7,12.1-3.4c17.3-2.9,34.7-3.6,52.2-4.3
		C694.5,550.3,695.5,550.2,696.4,550.7z"/>
	<path class="st2" d="M626,278.4c7-0.9,13.8-2.8,21.2-1.1c10.5,2.5,12.6,7.2,14.8,16.5c0.9,3.8,0.8,7.9,1.2,11.9
		c-0.1,0.3-0.1,0.7-0.2,1c-2.6,6.1-7.8,8-13.9,8.9c-4.5,0.7-8.9,1-13.4,0.9c-2.5-9.4-8.4-17.5-10.2-27.2
		C624.8,285.5,624.3,281.9,626,278.4z"/>
	<path class="st4" d="M789.3,559.5c-7.8,4.7-16.6,5.5-25.7,7c-6.1-1.1-12.7-2.1-19.2-3.5c-2.7-0.6-3-3.3-3.2-5.6
		c-0.3-2.4,1.4-2.8,3.5-2.9c1.2-0.1,2.5-0.7,3.4-1.5c9.5-8.8,22.1-10,33.6-13.9c4.3-1.4,11.5,3.8,13.1,8.4
		C796,550.9,793,557.3,789.3,559.5z"/>
	<path class="st1" d="M633.8,540.2c27.2-1.4,54.4-3.4,81.8-1.1c-1.1,4.7-1.1,4.7,0.7,9.8c-7.6-0.4-15.1-0.5-22.5-1.3
		c-7.6-0.8-15.1-1.1-22.6,0.1c-4.8,0.7-9.6,0.5-14.4,1c-12.2,1.2-24.4,1.6-36.7,2.3c-5.7,0.7-9-0.6-9.3-3.6
		c-0.3-2.7,2.5-4.6,8.1-5.3C623.9,541.4,628.9,540.5,633.8,540.2z"/>
	<path class="st3" d="M605.5,444.5c-2,1.7-4.6,0.9-6.9,1.6c-7.8,2.2-9.2,7.7-8.7,12.1c0.5,4.6,5.5,8.6,11.5,8.6
		c6.6,0,13.2-0.6,19.8-1.1c9.9-0.6,19.7-2.3,29.8-1.1c8.8,1,17.6,1.5,26.4,2.4c6.3,0.6,12.9,0.2,18.9,2.7c-5.7,1-11.3-0.8-16.9-0.9
		c-18-0.3-35.9,0.8-53.8,2.2c-10.5,0.8-21,2.8-31.5,4.6c-6.2,1-10.5-2.8-11.1-10.2c-0.4-4.7,0.5-9.4,1.2-14c0.5-3.1,2.8-5.3,5.9-5.8
		C595.2,444.6,600.3,443.8,605.5,444.5z"/>
	<path class="st5" d="M803.7,546.8c4.6,7.2-1.1,16.9-7.8,20.6c-13.2,7.4-27.1,8.9-41.7,6.5c-2.4-0.4-4.8,0-7.2-0.6
		c-4.2-1.1-6.6-2.7-4.4-7.4c7.3,1.8,14.8,3.6,22.4,3.4c10.9-0.3,21-3.2,29.8-10.1c5.1-4,4.5-14.8-1.3-18.9
		c-5.7-4.1-11.7-5.2-18.4-2.6c-7.8,3-15.9,5.5-23.7,8.5c-2.2,0.9-3.3,0.3-4.6-1.2c-1.8-2.1,0.5-3.1,1.5-3.8
		c4.6-3.2,9.8-5.2,15.3-6.2c-1.1,4.3-5.4,2.9-8.1,4.8c6.6-2.3,13.1-4.9,20-5.6c6-0.7,12.1-1,17.5,2.2c7.8,4.5,10.2,11.7,7.9,21.1
		C803.5,554.9,801.2,550.2,803.7,546.8z"/>
	<path class="st6" d="M696.4,550.7c-20.8,1.4-41.8,2.1-62.2,6.9c-1.2,0.3-2.5,0.7-3.7,1.2c-2.4,0.9-4.5,2.6-4.3,5.2
		c0.2,3.1,2.9,3.4,5.5,3.5c0.4,0,0.8,0.5,1.2,0.7c-9.2,0.7-18.3,1.6-27.5,2c-7.4,0.3-8.4-1.1-6.7-8.1c1.6-6.7,2.1-7.2,11-7.5
		c15.2-0.4,30.2-2.6,45.4-3.2c12.6-0.5,25.1-1.8,37.7-1.7C694,549.8,695.4,549.5,696.4,550.7z"/>
	<path class="st2" d="M697,430.9c-13.1-1.1-24.7,1.1-36.4,1.9c-10.7,0.7-21.4,2-32.3,1.7C635.8,424.5,683.8,421.4,697,430.9z"/>
	<path class="st7" d="M803.7,546.8c0.2,5.7,0.3,11.4-5.8,15.6c0.7-2.4,1.1-4.3,1.9-6.1c4.1-9.5-4.9-21.3-16.4-21.2
		c-7,0-13.7,1.3-20.4,3.3c-3,0.9-6.1,1.8-9.9,3c3.1-3.9,7.8-3.4,10.5-6.3c5-2.4,10.4-3.3,15.7-4.5
		C789.9,528.3,802.3,536.6,803.7,546.8z"/>
	<path class="st8" d="M739.5,535.9c3.1,0.8,5.7,1.8,3.9,5.3c-1.3,2.5-1.3,4.5,0.3,6.7c1.8,2.3,0.1,3.1-1.6,2.8
		c-6.4-1.2-13-1.9-19.2-4.2c-1.3-0.5-2.9-0.9-3.1-2.7c-0.1-1.9,1.3-2.9,2.7-3.6C728,537.3,734.2,538.1,739.5,535.9z"/>
	<path class="st3" d="M633.8,540.2c-5.7,1.7-11.7,1.6-17.4,3.5c-2,0.7-4.8,0.7-4.7,3.2c0.1,2.5,2.8,3.3,5,3.8
		c1.1,0.3,2.3,0.1,3.4,0.2c-3.3,1.8-6.9,0.4-10.4,0.8c-0.8,0.1-1.6,0-2.4,0c-2.1,0.2-5,2.4-6.2,0.1c-1-1.9,0.1-4.9,0.5-7.4
		c0.4-2.5,3.1-2,4.4-2.1C615.3,542,624.5,539.7,633.8,540.2z"/>
	<path class="st9" d="M442.4,192.4c2.4-0.5,4.4,1.1,6.7,1.1c2.1,4.8,2,10.5,6.1,14.5c0.5,1,1,2.1,0.9,3.2
		c-1.1,16.1,2.1,31.7,5.2,47.3c2.4,12.3,5.3,24.4,9.1,36.4c1.3,4.2,2.8,8.3,5.1,12.1c0.8,1.4,1.7,3,3.7,2.6c1.7-0.4,2.1-2,2.4-3.4
		c0.6-2.5,1.1-5.1,1.3-7.7c1.4-23.1,1.9-46.1-2.6-69c-1.5-7.8-3.3-15.2-8.7-21.4c-0.8-0.9-1.3-1.9-1-3.1c1-1,2-2,3-3.1
		c7.1,2.4,10.9,8.1,12.6,14.7c4.1,15.5,6,31.4,4.9,47.4c-0.9,13.3-1.2,26.7-4.4,39.7c-0.4,1.8,0.3,2.6,1.1,3.9
		c2.6,4.1,5.1,8.1,6.5,12.8c3.7,13.4-5.1,22.1-16.8,24.2c-11.3,2-22.8,1.9-34.1,3c-10.1,1-20.5,5.5-24.2,22.1
		c4.6-2.6,9-4.9,13.3-7.5c6.7-4,14.2-4.7,21.6-5.9c11.2-1.8,22.8-0.9,33.9-4.3c1.7-0.5,2.4,0,3.3,0.9c11.7,12.9,20.7,27.5,25.5,44.2
		c2.5,8.7,3.8,17.8,4.8,26.9c1.6,13.9,2.4,27.8,1.7,41.6c-0.7,14.8-2.6,29.5-3.7,44.2c-0.7,10-0.1,20,4.5,29.3
		c1.3,2.6,2.7,5.1,3.8,7.8c2.8,6.7,0.6,11.5-6.4,13.2c-7.2,1.7-14.5,3.1-21.9,3.1c-13.9,0-27.8,0.8-41.4-2.9
		c-8.6-2.3-10.8-6.5-7.1-14.4c2.8-6.1,5.6-12.1,7.1-18.8c1.9-8.2-0.8-15.6-2.5-23.1c-3.9-17.3-10.2-34-13.5-51.5
		c-1.7-8.8-3.8-17.5-6.2-26.1c-3.5-12.3-10.8-22.5-18.1-32.7c-15.1-21.2-33.3-40-48.3-61.3c-13.4-19-26.1-38.3-31.1-61.8
		c-3.7-17,0.9-31.3,12-43.5c14.5-16,33.2-25.5,53.9-31.3c2.9,4.1,4.3,9,7.6,12.9c-4.5,4-10,6.5-14.5,10.5
		c-8.4,7.3-12.7,15.6-10.5,27c2,10.6,6.1,20.2,11.5,29.3c7.1,11.9,15,23.2,24.1,33.7c4,4.6,8.5,8.7,13.5,11.8
		c11.7,7.3,22.8,1.4,24.7-12.3c1.8-13.1,0-25.9-2.6-38.7c-3.5-17.1-8.3-33.8-16-49.5c-0.5-1-0.9-2.1-0.7-3.3
		c1.3-1.6,2.8-3.1,3.9-4.8c3.8-5.6,3.4-11.2-0.5-16.5C443.9,195.1,443.1,193.8,442.4,192.4z"/>
	<path class="st9" d="M601.2,324.8c-3.3,9-8.1,16.3-18.3,18.5c-4.3,1-8-0.2-11.6-2.1c-2.5-1.3-5.2-2.3-7.8-1
		c-7.3,3.8-13.3,1.5-19.3-3.3c-7.6-6.1-14.8-12.3-17.6-22.1c-4.2-14.7-1.1-28.5,5.5-41.8c5-10,12.5-17,24-18.9
		c8.5-1.4,16.6,1.3,24.7,3c1.8,0.4,3.7,1,5.2,0.4c4.4-1.8,8.6-0.3,12.8,0.2c12.2,1.5,19.3,11.9,16.7,23.9
		c-1.3,5.9-1.4,11.5,2.1,17.1c3.7,5.8,6.3,12.2,7.8,19c2.6,11.5-5.3,21.5-17.2,20.9c-2.9-0.2-5.1-1.2-4.7-5
		C603.8,330.6,602.8,327.5,601.2,324.8z"/>
	<path class="st9" d="M697.8,318.8c-1.5,3.8-1.8,7.3-0.5,10.7c0.9,2.3-0.4,2.9-2.3,3.5c-15.2,4.6-25.3-8.9-22.2-21.8
		c1.1-4.5,1.5-9.3,3.2-13.5c2.7-6.7,0.8-12.4-1.7-18.5c-1.7-4.1-3-8.2-1.8-13c1.9-7.5,7-11.5,13.9-13.3c11-2.8,21.7-6.5,32-11.5
		c9.9-4.9,18.7-0.5,26.7,4.5c10.9,6.8,17.9,17,21.6,29.3c4.5,14.9,0.5,28-8.3,40.3c-5.1,7.1-11.4,10.8-20.3,10.8
		c-3.8,0-7.2,2.6-10.6,4.3c-9.9,4.9-23,0.6-28.2-9.1C698.8,320.7,698.4,319.8,697.8,318.8z"/>
	<path class="st10" d="M441.4,217.6c5.7,8.3,8.5,18,11.5,27.4c3.1,9.8,5.6,19.7,7.3,29.9c2,11.9,3.8,23.9,1.6,36
		c-1.3,6.9-4.9,12.6-11.8,14.8c-6.5,2-12.5-0.8-17.4-4.9c-19.1-16.1-32.2-36.7-42.7-59c-3.6-7.7-6.1-16.4-4.6-25.2
		c2-12.4,11.6-18.7,21-25c1.7-1.1,3.5-2.3,5.7-2.5c0.7,0.9,1.5,1.9,2.2,2.8c-4.8,3.8-10.2,6.7-15,10.7c-7.3,6.1-10.2,13.3-8.8,22.8
		c1.5,9.3,4.9,17.8,9.5,26c7.1,12.9,15.9,24.5,25.5,35.6c3.9,4.4,8.8,7.7,13.3,12.3c-4.6-6.5-9.1-12.3-13-18.6
		c-4-6.4-7.9-12.7-11.1-19.5c-3.3-6.9-7.2-13.5-9.8-20.7c-3.1-8.9-6.5-17.8-3-27.5c2.8-8,7.5-14.3,15.3-18c3.6,0.5,4.9,4.4,8.7,5.1
		C431.5,221.1,436.5,220.7,441.4,217.6z"/>
	<path class="st11" d="M417.1,214.8c-1,2.5-3.6,3.2-5.4,4.8c-10.5,9.8-12.4,21.4-7.8,34.6c5.1,14.6,12.3,28.2,20.1,41.5
		c4.7,7.9,10,15.5,15.8,22.7c0.7,0.8,1,1.9,1.2,3.2c-6.1-3.9-11.7-8.4-16.5-13.8c-11.7-13.1-21.9-27.2-29.4-43.1
		c-4.6-9.7-8-19.8-5.5-30.9c0.6-2.7,1.8-5,3.5-6.8c6.1-6.3,12.4-12.4,21.1-15.1C415.4,212.5,416.4,213.5,417.1,214.8z"/>
	<path class="st12" d="M418.5,182c10.1,1.2,16.9,7.3,22.2,15.1c2,3-0.8,4.9-2.6,6.9c-2,2.3-3.8,0.4-5.5-0.5c-0.9-0.5-1.6-1.5-2-2.6
		C428.1,193.6,424.3,187.2,418.5,182z"/>
	<path class="st10" d="M470.6,205.1c8.7,8.2,10.4,19.1,11.9,30.2c1.8,13,3.7,25.9,2.8,39c-0.7,10.5-0.4,21-1.9,31.4
		c-0.1,0.9-0.7,1.8-0.8,2.7c-0.1,2.2-1.6,3.1-3.3,3.7c-2.3,0.7-3.3-1.4-4.1-2.7c-1.7-2.7-3.3-5.6-4.3-8.6
		c-5.6-17.2-9.6-34.9-13-52.7c-1.7-9-2.1-18.2-3.7-27.2c-0.8-4.4,0.9-8.6,1-13c2.5,2.3,5.2,3.8,8.6,1.9c3.3,1.5,4.3,4.7,5.7,7.6
		c3.8,8.4,4.8,17.5,6.3,26.4c0.7,4.5,1.6,8.9,2,13.5c0.2,1.9,0.3,3.9-0.7,5.7c-2.5,1.4-2.5-0.9-2.9-2.2c-0.9-2.9-1.7-5.9-3.7-8.4
		c-1-1.3-2.1-2.8-3.9-2.3c-1.7,0.5-2.1,2.3-2.3,4c-0.2,1.4-0.3,2.9-0.1,4.4c1.1,7.4,2.5,14.7,4.8,21.8c0.6,2,1.4,4.7,3.7,4.5
		c2.6-0.2,2.7-3.2,3.4-5.3c0.7-2.1-0.8-5,2.2-6.2c2.2,2.1,1.7,4.8,1.5,7.3c-0.4,7.8-0.5,15.5-1.4,20.6c3.1-24.3,1.9-51.1-3.1-77.8
		c-1.2-6.2-5.1-10.8-8.7-15.5C468,207,469.3,206,470.6,205.1z"/>
	<path class="st11" d="M476.5,263.8c-1.7-18.5-2.4-37.3-12.7-53.9c1-0.6,1.9-1.3,2.9-1.9c6.1,2.5,8.5,8.1,9.7,13.7
		c4,19.2,6.1,38.7,4.9,58.3c-0.5,8.6-0.1,17.4-3.7,26.8c-0.4-10.2,1.7-19.2,0.9-28.2c-0.1-1.7,0.6-3.6-0.8-5.1
		c-1.2-0.8-1.3-2.1-1.4-3.3c0-1.9-0.1-3.8,0-5.7C476.4,264.2,476.4,264,476.5,263.8z"/>
	<path class="st12" d="M459.6,170.1c11.7,4.5,15.6,14.8,11.6,23.3c-0.5,1.1-0.8,2.8-2.4,2.7c-1.5-0.1-2.4-1.4-2.9-2.9
		c-0.8-2.3-1.2-4.6-1-7.1C465.1,180.4,462.4,175.7,459.6,170.1z"/>
	<path class="st10" d="M710.4,496.7c2,11.6,4.7,23,9.1,33.9c0.5,1.2,0.4,2.2-0.6,3c-1,0.9-1.9,0.5-3.1,0.1c-3.6-1.3-4.2-4.4-4.8-7.5
		C709.2,516.4,710.3,506.6,710.4,496.7z"/>
	<path class="st10" d="M720.7,460.4c-8.4-10.4-20.7-11.8-33.3-12.2c-15.4-0.5-30.8-1.3-46.2-2.5c11.3,0.3,22.4-1.6,33.7-1.5
		c13.7,0.2,27.5-0.6,41.2-0.8c5-0.1,8.9,4.6,7.3,9.2C722.4,455.2,723.6,458.2,720.7,460.4z"/>
	<path class="st10" d="M710.6,543c-13.4-1.5-26.8-1-40.1-2.6C683.9,540.4,697.4,538.8,710.6,543z"/>
	<path d="M459,283.3c0,0.5,0,1,0,1.5c0,3.4,0,7.9-3.3,8.7c-3.3,0.8-6.3-2.2-8.5-5.5c-5.3-8.1-8.4-16.4-5.8-26.2
		c0.9-3.6,2.8-6.2,6.4-6.7c3.3-0.4,5.5,1.8,6.9,4.7C458.3,267.2,457.9,275.3,459,283.3z"/>
	<path d="M477.5,269.6c0.1,1.3,0.1,2.6,0.2,3.8c-0.5,4.2,0.6,8.6-2.9,12.1c-1.7,1.7-2.6,1.6-4.2,0c-2.7-2.8-3.2-6.3-4-9.8
		c-1.7-6.9-3.7-13.7-3.6-20.9c0-3,1.1-5.9,3.7-6.5c1.9-0.5,3.7,2.1,5.3,3.9c3,3.4,2.4,8,4.6,11.5c0,0-0.1-0.1-0.1-0.1
		C477.9,265.4,476.3,267.8,477.5,269.6z"/>
	<path class="st10" d="M477.5,269.6c-2-1.7-0.3-4-1.1-5.9C478.5,265.3,477.2,267.6,477.5,269.6z"/>
	<path class="st10" d="M455.1,268c0,1.7,0,3.4-2.3,3.4c-2.2,0-8.6-6.9-8.4-9.1c0.3-2.9,2.8-3.2,4.9-3.4
		C452.1,258.6,455.1,263.5,455.1,268z"/>
	<path class="st13" d="M448,280.3c3.5,0,8.2,5,7.9,8.2c-0.1,1.6-0.9,2.9-2.8,1.9c-3.1-1.5-5.5-3.9-7.1-6.9
		C444.6,280.9,446.5,280.6,448,280.3z"/>
	<path class="st10" d="M465.8,255.5c-0.1-1.6-0.4-3.6,1.4-4.3c1.9-0.7,2.8,1.4,3.7,2.5c1.6,1.9,2.2,4.4,2.7,6.9
		c0.3,1.5,0.2,3.2-1.4,3.8c-1.4,0.5-3-0.6-3.7-1.6C467.1,260.6,465.4,258.4,465.8,255.5z"/>
	<path class="st13" d="M474.6,280c0,1.9-0.1,4.2-1.7,3.8c-3.6-0.8-4.2-4.4-5-7.4c-0.4-1.5-0.1-4.1,1.9-3.6
		C473.2,273.8,473.5,277.5,474.6,280z"/>
</g>
</svg>
