<?xml version="1.0" encoding="utf-8"?>
<!-- Generator: Adobe Illustrator 23.0.1, SVG Export Plug-In . SVG Version: 6.00 Build 0)  -->
<svg version="1.1" id="Layer_4" xmlns="http://www.w3.org/2000/svg" xmlns:xlink="http://www.w3.org/1999/xlink" x="0px" y="0px"
	 viewBox="0 0 1000 1000" style="enable-background:new 0 0 1000 1000;" xml:space="preserve">
<style type="text/css">
	.st0{fill:#6E3720;}
	.st1{fill:#FB9A7A;}
	.st2{fill:#CBB89A;}
	.st3{fill:#E00000;}
	.st4{fill:#7F0000;}
	.st5{fill:none;}
	.st6{fill:#7898AB;}
	.st7{fill:#800000;}
	.st8{fill:#B0F3F2;}
	.st9{fill:#2B5260;}
	.st10{fill:#FEFEFE;}
	.st11{fill:#C0FEFE;}
	.st12{fill:#808080;}
	.st13{fill:#7F7F7F;}
	.st14{fill:#00407F;}
</style>
<g>
	<path class="st0" d="M629.8,351.6c-8.4,4.5-17.1,7.5-26.9,4.9c-1.6-0.4-3.4-0.2-5.1,0.8c-8.3,5.3-17.2,6.3-26.4,2.9
		c-3.5-1.3-6.8-0.6-9.8,0.3c-7,2.2-12.7-0.6-17.9-4.1c-10.6-7-19.7-15.6-25.1-29.2c0.2,10.2-2.8,17.8-9.6,23.5
		c-1.6,1.4-0.3,1.9,0.4,3c5.6,8.6,12.4,16.5,16.4,26.1c6,14.3,10.6,29,12.4,44.6c2.1,18.3-1.9,35.9-4.8,53.7
		c-1.3,8.3-2.8,16.7-3.3,25.1c-0.3,4.4-0.9,8.9-1.6,13.3c-0.9,6,0.8,12,3.1,17.7c2.1,5.1,5.1,9.7,6.7,15.1c3.3,11.7-4,18.1-13.3,20
		c-16,3.3-32.2,1.7-48.3,2.1c-7.6,0.2-15.1-0.8-22.5-2.2c-11.2-2.2-18-14.9-11.4-27.8c4.2-8.1,6.3-16.5,5.3-25.3
		c-0.9-7.3-2.5-14.7-4.8-21.7c-6.3-18.9-9.8-38.6-14.4-57.9c-3.7-15.8-10.3-30.2-19.1-43.6c-13.3-20.3-27.7-39.8-40.4-60.4
		c-10.6-17.4-19.3-36-23.5-56.2c-2.2-10.7-3.4-21.7,0.9-32.4c5.8-14.2,14.8-25.8,28-33.6c13.4-8,27.3-15.4,43-18.1
		c3.3-0.6,6.6-1.1,9.8-1.7c2.2,2.6,2.7,5.5,1.6,8.7c-1.3,1.6-3.3,1.9-5.2,2.3c-18.3,3.7-34.9,11.1-50,22.2
		c-15.6,11.5-20.3,27.5-18.8,46c1.1,14.3,7.6,26.8,13.7,39.4c10.9,22.3,25.2,42.5,39.5,62.7c11.6,16.4,22.1,33.4,28.9,52.4
		c4.3,12,6.5,24.5,8.8,37c1.2,6.6,2.9,13,5,19.4c3.6,10.5,5.7,21.4,8.1,32.2c2.1,9.8,0.1,19-3.9,28c-1,2.2-2.3,4.3-3.2,6.6
		c-2.6,6.3-0.9,9.8,5.7,11.9c5.6,1.8,11.5,2.6,17.3,2.8c12.7,0.5,25.4,1,38-1.1c1.6-0.3,3.2-0.6,4.8-0.9c10.1-2.3,12.1-6,7.3-15.2
		c-6.1-11.7-7.5-23.8-6.3-36.9c1.8-20.8,5.6-41.3,7.8-61.9c1.4-12.6,0-25.1-3.2-37.3c-4.3-15.9-10.4-31.2-21-44.2
		c-2.4-3-4.7-4.3-8.7-3.4c-6.4,1.5-13,1.3-19.4,0.4c-11-1.5-21.4-0.3-31.5,3.9c-4.2,1.7-8.5,3.4-12.8,4.7c-1.7,0.5-3.7,1.6-5,0
		c-1.6-1.8-0.1-3.8,0.8-5.4c3.9-7,9.9-11.6,17.6-13.6c8.6-2.2,17.4-2.5,26.2-1.2c9.2,1.3,17.9-0.7,26.4-3.5
		c8.2-2.7,15.7-14.2,8.9-23.9c-4.8-6.9-4.5-13.5-2-21.1c4.3-13.7,5.8-28,6.8-42.3c0.5-8.3,1.2-16.5,0.5-24.8
		c-0.8-8.7-3.8-16.4-10.2-22.6c0.1-3.7,1.7-6.8,4.2-9.5c17.6,12.2,19.3,29.9,16.6,49c-0.7,4.8-0.4,9.6-0.9,14.4
		c-1.2,14.3-3.6,28.3-7.9,42c-0.9,2.9-0.7,5.7,1,8.4c1.6,2.5,2.8,5.3,4.8,9c-0.6-6.1-2.3-10.9-1.9-15.9c1.1-16.1,7-30.2,17.9-42
		c7.6-8.3,17.4-13,28.9-14.1c4.4-0.4,8.6,0.9,12.6,2.1c7.6,2.3,15.3,3,23.2,2.8c13.2-0.4,22.6,5.2,27.8,17.6
		c0.8,1.9,0.2,4.2,1.9,5.8c1.5,1.9,1.3,4.2,1.1,6.4c-2.2,8.2,0.3,15.7,3.7,22.9c2.3,5,4.4,10,6,15.3c0.3,2,0.9,4,1,6.1
		c0.1,4.5-1,8.6-3.2,12.5C634.7,347.1,633.4,350.5,629.8,351.6z"/>
	<path d="M808.7,548.1c-1.9-15.5-19.7-23.6-32.8-21.1c-8.6,1.6-16.3,5.5-24.4,8.3c-1.4,0.5-2.2,1.7-3.5-0.3
		c-2.6-4.2-6.6-4.6-10.9-3.1c-2.2,0.8-3.2,0.4-4-2.2c-4.6-14.7-8.2-29.6-11.5-44.7c-0.8-3.8,2-3.4,3.3-3.5c3.3-0.3,5.7-1.9,7.1-4.3
		c5.2-9,8.7-18.6,8.2-29.2c-0.5-10.5-4.4-16.2-13.1-18.1c-3-0.7-6.2-0.2-9.2-0.3c-6.6-0.1-13,0.7-18.9-4.3c-5.6-4.7-13.3-6-20.6-7.5
		c-1.9-0.4-4.3-0.2-4.7-3.9c-1.5-13.2-3.9-26.3-5.6-39.5c-1.8-14.1-3.5-28.3-5.9-42.4c-0.3-1.7-0.2-3.3,1.9-3.9
		c1.9-3.6,2.8-7.4,1.5-11.5c-0.2-0.1-0.3-0.3-0.5-0.3c0,0,0,0,0,0c-0.8-0.4-1.4,0.3-1.9,0.9c-3.4,4.7-8.3,6.1-13.7,7
		c-3.5,0.6-7.3-0.3-10.7,1.3c-0.4,0.2-0.7,0.4-1.1,0.6c0.3,2,0.7,3.9,1,5.9c0.4,0.3,0.8,0.5,1.2,0.7c2.6,1.2,5.5,0.6,8.2,0.4
		c5.5-0.5,5.9-0.2,6.7,5.4c1.4,11.1,3,22.2,4.5,33.3c1.8,13.2,3.5,26.4,5.4,39.6c0.5,3.8-0.7,5.5-4.4,5.8c-3.2,0.2-6.5,0.7-9.7,1.2
		c-3.6,0.6-5.2-0.9-5.4-4.3c-0.2-4.4-0.8-8.7-1.3-13.1c-1.7-16.8-3.6-33.6-5.2-50.4c-0.2-2,0-4.6-2.3-5.8c-0.2-0.1-0.4-0.2-0.6-0.3
		c-2,2.3-4,4.7-6,7c0.6,7,1.6,13.9,2.2,20.9c0.6,5.8,1.3,11.7,2,17.5c1.2,9.8,2.4,19.5,3.7,29.3c0.4,3-1.9,3.7-3.7,4.3
		c-2.9,0.9-5.6,2-7.8,4.2c-6,5.9-13.3,8.2-21.6,7.7c-5.5-0.3-11.1-0.2-16.6,0c-7.4,0.1-10.3,2.2-12.6,9c-2.4,7.1-1.8,14.5-0.9,21.6
		c0.9,7.7,3.4,15.3,12.1,18.1c1.7,0.5,1,1.8,1.4,2.7c4.5,11.6,4.8,23.9,5.5,36.1c0.9,13.8-1.8,27.3-4.8,40.7
		c-2.2,9.6,2.1,15.4,12,15.4c15.3,0.1,30.6-1.3,45.9-1.9c11-0.4,22,0,33,0.7c10,0.7,20.2,0.2,30.3,0.1c9.1-0.1,18.3,0.9,26.8-3.6
		c1.2-0.6,2.1,0.2,3.1,0.5c7.4,2.3,15.1,3.5,22.8,4c12.2,0.7,23.8-2.3,34.6-8.3C806.2,565.6,809.9,558.4,808.7,548.1z M744.7,554.6
		c1.2-0.1,2.5-0.7,3.4-1.5c9.5-8.8,22.1-10.1,33.6-13.9c4.3-1.4,11.5,3.8,13.1,8.4c1.1,3.3-1.8,9.7-5.5,12
		c-7.8,4.7-16.6,5.5-25.7,7.1c-6.1-1.1-12.7-2.1-19.2-3.4c-2.7-0.6-3-3.3-3.2-5.6C741,555.1,742.7,554.8,744.7,554.6z"/>
	<path class="st0" d="M664,328.2c0.3-3.9,0.7-7.9,1-11.8c-0.3-0.4-0.5-0.9-0.5-1.4c0-0.3,0-0.7,0.1-1c2.5-9,3.1-18,0.3-27
		c-1-5.2-1.5-10.4,0.5-15.5c3.8-9.8,10.9-16.4,20.8-19.5c9.5-2.9,18.9-5.6,28.1-9.5c16.1-6.8,30.4-1.6,43.1,8.9
		c4.7,3.9,9.6,7.8,13.2,13.2c5.2,7.8,7.6,16,8.8,25.2c1.6,11.9-0.7,22.9-6.4,33c-5.7,10-12.8,18.9-24.8,22.6c-3,0.9-5.2-1.2-7.9-0.2
		c-3.1,1.2-6.3,2.1-9.2,3.6c-4.7,2.5-9.3,3.9-14.6,1.9c-6.7-2.6-13-0.7-19.6,1.4c-13.6,4.5-25.4-1.7-30.9-14.2
		C664.8,334.9,664.7,331.4,664,328.2z"/>
	<path d="M428.8,199.1c-0.4-2.9-0.8-5.8-1.2-8.7c0-1.6,0.9-2.9,1.2-4.5c0.9-4.8,6.2-8.2,10.7-7.1c7.9,2,15.7,4.4,21.4,10.8
		c4.5,1.8,6.4,6.1,9.1,9.6c1.7,3.1,3.5,6.3,3.7,9.9c0.4,6.8-3.2,11.2-8.7,14.4c-8.7,4.1-16.5,2.9-23.6-3.5c-1.4-1.6-3-3-4.3-4.7
		c-0.8-1.1-1.5-2.2-2.4-3.3C432.1,208,428.7,204.3,428.8,199.1z"/>
	<path d="M504,202.1c-0.8,3.2-1.7,6.3-4.1,8.7c-0.3,2.1-1.9,3-3.4,4c-1.2,0.7-2.4,1.3-3.6,1.9c-1.9,1-4.1,1.3-6.1,2
		c-3.6,0.8-6.1-1-8.2-3.5c-3.5-4.4-3.3-9.7-3.6-14.9c-0.7-3.4-1.5-6.7,0.5-9.9c0.5-3.3-0.1-6.6,0.9-9.9c1.8-5.7,6.5-9.3,11.9-7.4
		C497.7,176.2,507.8,191.6,504,202.1z"/>
	<path d="M665,287c4.5,7.4,4.2,15.1,1.7,22.9c-0.6,1.8,0.2,4-1.5,5.4c-2.2-2-1.2-4.9-1.9-7.3c-0.3-0.9-0.4-1.9-0.5-2.9
		c-1.9-14-9.2-17.8-23.9-17.4c-3.6,0.1-7.2,2.1-10.9,0.3c0-2.3,0-4.6,0-6.9c8.4-1.6,16.9-2.7,25.4-0.8c3.6,0.8,6.1,3.7,9.1,5.7
		C663.2,286.6,663.8,287.4,665,287z"/>
	<path class="st0" d="M475.5,190.3c0.4,3.3-0.6,6.8,1,10c-2.8,2.1-5.2,0.5-7.6-1c-2.6-3.2-5.3-6.5-7.9-9.7
		C465.8,188.5,470.6,190.9,475.5,190.3z"/>
	<path class="st1" d="M468.9,199.3c2.5,0.3,5.1,0.7,7.6,1c0,5.1,0,10.1,3.1,14.5c2.1,4.9,0.6,10.1,0,14.9c-1,8.8-0.3,17.5,0.4,26.2
		c1.1,13.9,2.4,27.8,4.9,41.5c1,5.3,2,10.5,4.6,15.3c0.7,1.3,1.3,2.9,3,3c2,0.1,2.6-1.7,3.3-3.1c1-1.7,1.6-3.6,2-5.5
		c2.5-12.3,4.3-24.6,4.6-37.2c0.2-8.8,1.3-17.5,1.1-26.3c-0.1-9.4-1.3-18.5-6.6-26.5c-0.6-0.9-1.2-2-0.9-3.2
		c1.3-1.1,2.6-2.2,3.9-3.2c9.4,6.3,11.4,16.3,11.6,26.3c0.5,24-1.8,47.8-9.3,70.9c-1,3.1-0.8,5.7,1.1,8.8c4,6.4,7.9,13,3.5,21.1
		c-3.9,7.2-10.3,9.8-17.7,11.8c-11.6,3.3-23.1,0.2-34.6,0.8c-9.6,0.6-18.4,2.8-25,10.4c-2.3,2.6-3.5,5.5-5,9.6
		c7-2.5,13.1-4.6,19.2-7c9.8-3.9,19.7-4.9,30.2-3.5c7.4,1,15.2,1.3,22.6-1c2.4-0.8,3.1-0.1,4.6,1.7c11.9,13.8,19,30.1,23.4,47.4
		c3.4,13.2,4.5,26.8,2.9,40.7c-1.9,15.8-4.9,31.4-6.2,47.2c-0.6,7.2-1.7,14.4-1.8,21.6c-0.1,8.4,1.5,16.6,5.7,24.1
		c0.3,0.6,0.6,1.2,0.9,1.7c5.4,11,3.4,15.8-8.6,17.9c-15.3,2.8-30.8,2.9-46.3,1.3c-4.7-0.5-9.2-1.1-13.8-2.2
		c-7.6-1.8-10.1-6.6-6.7-13.6c3.4-7.1,6.6-14.1,7.7-22.1c0.7-5-0.4-9.5-1.2-14.2c-2.4-14.9-7.9-29-11.4-43.6
		c-2.6-11-3.8-22.4-7-33.3c-4.5-15.1-10.8-29.5-19.4-42.8c-15.1-23.3-32.3-45.2-45.7-69.4c-7.8-14.1-15.7-28.5-19-44.5
		c-3.7-17.9-0.8-34.7,11.6-48.8c4-4.6,9.5-8.2,14.9-11.3c14.8-8.5,30.3-15.4,47.5-17.7c2,4.4,4.1,8.7,6.8,12.7
		c-1.1,2.1-3.2,2.6-5.2,3.4c-5.6,2.3-10.8,5.3-15.4,9.2c-7.5,6.3-10.4,14.3-9,23.9c2.1,14.8,8.5,27.9,15.6,40.8
		c6.1,11,12.9,21.5,21.7,30.5c3.9,4,8.1,7.5,13.9,8.6c5.1,1,9.3-0.5,12.4-4.8c3.1-4.3,4.8-9.2,5.7-14.4c4.4-24.1,0.9-47.6-5.7-70.8
		c-1.5-5.3-4.5-10.1-4.9-15.6C473.6,215.9,475.2,210.8,468.9,199.3z"/>
	<path class="st1" d="M603,334c-2.2,10.2-10.1,17.9-19.3,19.5c-3.8,0.6-7.3-0.6-10.6-2.5c-2.4-1.3-5-2.2-7.4-0.9
		c-7.8,4.2-14.1,1.3-20.2-3.5c-8.2-6.4-15.5-13.6-17.7-24.4c-2.9-13.9-0.1-27,6.3-39.4c5.1-9.8,12.4-16.7,23.6-18.7
		c8.5-1.5,16.6,1.3,24.7,2.8c1.8,0.3,3.6,1,5.2,0.6c3.9-1.1,7.5-0.5,11.4,0c14,1.8,20.9,10.7,18.1,24.8c-1.2,6.2-0.5,11.5,2.7,17
		c3.4,5.8,6,12,7.5,18.7c2.6,11.3-6,21.8-17.6,20.6c-2.6-0.3-4.9-1-4.5-4.8C605.8,340.6,604.6,337.5,603,334z"/>
	<path class="st2" d="M638.7,332.1c4.2-0.3,8.3,0.4,12.5-0.9c4.9-1.5,4.6,3,4.9,5.4c2.2,15.8,3.9,31.6,6,47.4
		c1.4,10.4,3.2,20.7,4.8,31.1c0.2,1.4,0.3,2.6-2,3c-6.1,1.1-12.4,0.9-18.4,2.7c-1.4,0.4-2-0.3-2.1-1.8c-0.9-9.1-1.9-18.1-2.9-27.2
		c-1.2-11.1-2.6-22.2-3.8-33.3c-0.5-4.7,0.3-9.5-2-14C637,340.5,639.1,336.5,638.7,332.1z"/>
	<path class="st2" d="M628,288.1c7-0.9,13.8-2.8,21.2-1.1c10.5,2.5,12.6,7.2,14.8,16.5c0.9,3.8,0.8,7.9,1.2,11.9
		c-0.1,0.3-0.1,0.7-0.2,1c-2.6,6.1-7.8,8-13.9,8.9c-4.5,0.7-8.9,1-13.4,0.9c-2.5-9.4-8.4-17.5-10.2-27.2
		C626.8,295.3,626.3,291.7,628,288.1z"/>
	<path class="st3" d="M711,484.3c3.5,14,7.1,27.9,10.6,41.9c0.2,0.8,0.4,1.6,0.6,2.3c2.1,6.8,1.6,7.7-5.7,7.6
		c-12.3-0.1-24.5-0.7-36.8-1.1c-10.5-0.2-21.1-0.1-31.6,0.3c-11,0.5-22,0.8-33,2.1c-6.7,0.8-9.7-2.8-8.8-9.4
		c0.7-5.2,1.7-10.3,3.5-15.2c4.5-12.5,14.1-19.2,26.5-22.2c13.9-3.3,28-5.4,42.4-5.9c8.1-0.3,16.2-0.5,24.3-1.5
		C705.8,482.9,708.6,482.5,711,484.3z"/>
	<path class="st3" d="M605.5,444.5c22.2-1.9,44.6-1.5,66.8-2.3c14.6-0.6,29.1-0.4,43.7-0.7c10.1-0.2,12.7,2.2,10.8,12.9
		c-0.9,4.8-2.1,9.2-4.1,13.7c-1.4,3.3-3.7,4.5-6.8,3.7c-6.4-1.8-13.2,0.2-19.6-2c-13.8-2-27.8-1.7-41.6-3.4c-16.1-1.9-32,0.9-48,1.8
		c-4.3,0.3-8.4,0.2-12.3-1.9c-4.4-2.4-6.5-6.6-5.8-11.3c0.7-4.8,3.9-8.2,8.7-9.4C600.1,444.7,602.9,445.2,605.5,444.5z"/>
	<path class="st4" d="M711,484.3c-16.8,1-33.6,1.4-50.3,3.3c-10.5,1.2-21.1,2.9-31.1,6.7c-13.6,5.2-18.9,16.3-21.3,29.5
		c-0.2,1-0.1,2-0.3,2.9c-1.7,8,0.3,10.3,8.7,9.4c13.5-1.4,27.1-2,40.7-1.9c5.9,0,11.7,0,17.6,0c1.6,0,3.3-0.5,4.6,0.8
		c-16,0.7-32,1.2-47.9,2.2c-9.1,0.5-18.2,1.8-27.3,2.7c-1.6,0.2-3,0.1-2.7-2.2c2.1-13.9,0-27.7-2.6-41.3
		c-2.2-11.5-2.5-11.2,8.6-13.2c14-2.4,28-3.9,42.1-5c16.7-1.3,33.1,0.3,49.6,2c3,0.3,6.1,0.7,9.1,1C710.7,481.6,711,482.7,711,484.3
		z"/>
	<path class="st3" d="M696.4,550.7c3.7,0,7.5,0.4,11.2,0c7.1-0.6,13.7,1.3,20.4,3c2.8,0.7,3.5,3,3.4,5.1c-0.2,3.3-0.6,6.9-4.4,8.3
		c-5,1.8-10.4,1.8-15.7,2c-11.5,0.4-23.2,0.9-34.6-0.1c-14.6-1.2-29.2-0.2-43.8-0.9c-0.5-0.2-0.9-0.4-1.4-0.3
		c-2.7,0-5.5,0.1-6.1-3.3c-0.6-3.2,1.4-5.2,3.9-6.6c3.7-2.1,8-2.7,12.1-3.4c17.3-2.9,34.7-3.6,52.2-4.3
		C694.5,550.3,695.5,550.2,696.4,550.7z"/>
	<path class="st5" d="M789.3,559.5c-7.8,4.7-16.6,5.5-25.7,7.1c-6.1-1.1-12.7-2.1-19.2-3.4c-2.7-0.6-3-3.3-3.2-5.6
		c-0.3-2.4,1.4-2.8,3.4-3c1.2-0.1,2.5-0.7,3.4-1.5c9.5-8.8,22.1-10.1,33.6-13.9c4.3-1.4,11.5,3.8,13.1,8.4
		C796,550.9,793,557.3,789.3,559.5z"/>
	<path class="st3" d="M633.8,540.2c27.2-1.4,54.4-3.4,81.8-1.1c-1.1,4.7-1.1,4.7,0.7,9.8c-7.6-0.4-15.1-0.5-22.5-1.3
		c-7.6-0.8-15.1-1.1-22.6,0.1c-4.8,0.7-9.6,0.5-14.4,1c-12.2,1.2-24.4,1.6-36.7,2.3c-5.7,0.7-9-0.6-9.3-3.6
		c-0.3-2.7,2.5-4.6,8.1-5.3C623.9,541.4,628.9,540.5,633.8,540.2z"/>
	<path class="st4" d="M605.5,444.5c-2,1.7-4.6,0.9-6.9,1.6c-7.8,2.2-9.2,7.7-8.7,12.1c0.5,4.6,5.5,8.6,11.5,8.6
		c6.6,0,13.2-0.6,19.8-1.1c9.9-0.6,19.7-2.3,29.8-1.1c8.8,1,17.6,1.5,26.4,2.4c6.3,0.6,12.9,0.2,18.9,2.7c-5.7,1-11.3-0.8-16.9-0.9
		c-18-0.3-35.9,0.8-53.8,2.2c-10.5,0.8-21,2.8-31.5,4.6c-6.2,1-10.5-2.8-11.1-10.2c-0.4-4.7,0.5-9.4,1.2-14c0.5-3.1,2.8-5.3,5.9-5.8
		C595.2,444.6,600.3,443.8,605.5,444.5z"/>
	<path class="st6" d="M803.7,546.8c4.6,7.2-1.1,16.9-7.8,20.6c-13.2,7.4-27.1,8.9-41.7,6.5c-2.4-0.4-4.8,0-7.2-0.6
		c-4.2-1.1-6.6-2.7-4.4-7.4c7.3,1.8,14.8,3.6,22.4,3.4c10.9-0.3,21-3.2,29.8-10.1c5.1-4,4.5-14.8-1.3-18.9
		c-5.7-4.1-11.7-5.2-18.4-2.6c-7.8,3-15.9,5.5-23.7,8.5c-2.2,0.9-3.3,0.3-4.6-1.2c-1.8-2.1,0.5-3.1,1.5-3.8
		c4.6-3.2,9.8-5.2,15.3-6.2c-1.1,4.3-5.4,2.9-8.1,4.8c6.6-2.3,13.1-4.9,20-5.6c6-0.7,12.1-1,17.5,2.2c7.8,4.5,10.2,11.7,7.9,21.1
		C803.5,554.9,801.2,550.2,803.7,546.8z"/>
	<path class="st7" d="M696.4,550.7c-20.8,1.4-41.8,2.1-62.2,6.9c-1.2,0.3-2.5,0.7-3.7,1.2c-2.4,0.9-4.5,2.6-4.3,5.2
		c0.2,3.1,2.9,3.4,5.5,3.5c0.4,0,0.8,0.5,1.2,0.7c-9.2,0.7-18.3,1.6-27.5,2c-7.4,0.3-8.4-1.1-6.7-8.1c1.6-6.7,2.1-7.2,11-7.5
		c15.2-0.4,30.2-2.6,45.4-3.2c12.6-0.5,25.1-1.8,37.7-1.7C694,549.8,695.4,549.5,696.4,550.7z"/>
	<path class="st2" d="M697,430.9c-13.1-1.2-24.7,1.1-36.4,1.9c-10.7,0.7-21.3,1.8-32.4,1.8C636.1,424.4,684.1,421.4,697,430.9z"/>
	<path class="st8" d="M803.7,546.8c0.2,5.7,0.3,11.4-5.8,15.6c0.7-2.4,1.1-4.3,1.9-6.1c4.1-9.5-4.9-21.3-16.4-21.2
		c-7,0-13.7,1.3-20.4,3.3c-3,0.9-6.1,1.8-9.9,3c3.1-3.9,7.8-3.4,10.5-6.3c5-2.4,10.4-3.3,15.7-4.5
		C789.9,528.3,802.3,536.6,803.7,546.8z"/>
	<path class="st9" d="M742.1,550.7c-6.8-1.4-13.1-2-19-4.2c-1.4-0.5-3.3-1-3.3-3.1c0.1-1.8,1.5-2.8,3-3.5c5.5-2.5,11.5-2.9,17.3-3.7
		c2.8-0.4,5,1.8,3.1,5.2c-1.2,2.3-1.2,4.2,0.3,6.3c0.5,0.7,1.7,1.5,0.4,2.4C743.4,550.6,742.3,550.6,742.1,550.7z"/>
	<path class="st4" d="M633.8,540.2c-5.7,1.7-11.7,1.6-17.4,3.5c-2,0.7-4.8,0.7-4.7,3.2c0.1,2.5,2.8,3.3,5,3.8
		c1.1,0.3,2.3,0.1,3.4,0.2c-3.3,1.8-6.9,0.4-10.4,0.8c-0.8,0.1-1.6,0-2.4,0c-2.1,0.2-5,2.4-6.2,0.1c-1-1.9,0.1-4.9,0.5-7.4
		c0.4-2.5,3.1-2,4.4-2.1C615.3,542,624.5,539.7,633.8,540.2z"/>
	<path class="st1" d="M699.8,328.5c-1.5,3.6-2,6.9-0.6,10.3c1,2.3-0.1,3.3-2.3,4c-15.3,4.6-25.3-9.2-22.1-21.9
		c1.1-4.5,1.6-9.2,3.3-13.5c2.6-6.7,0.8-12.4-1.8-18.5c-1.7-4.1-3-8.2-1.8-13c2-7.5,7-11.4,13.9-13.2c11-2.8,21.7-6.5,32-11.5
		c9.9-4.9,18.7-0.4,26.7,4.5c11,6.9,18,17.3,21.6,29.8c4.3,14.6,0.3,27.4-8.2,39.4c-5.1,7.3-11.5,11.2-20.6,11.1
		c-4,0-7.5,2.8-11,4.5c-9.2,4.6-22.6,0.2-27.5-9C700.9,330.7,700.4,329.7,699.8,328.5z"/>
	<path class="st10" d="M464.7,222.6c6.7,12.7,9.2,26.6,11.8,40.4c2,10.4,2.6,20.9,1.9,31.4c-0.7,9.1-1.3,18.2-5.6,26.7
		c-5.8,11.2-16,10.6-24.3,4.8c-7.1-5-12.6-11.8-17.3-18.7c-9.6-14.2-18.3-29.2-23.6-45.7c-2.4-7.5-4.4-15.2-2.8-23.2
		c2.1-10.1,9.3-15.8,17.5-20.6c4.2-2.4,8.7-4.2,13.2-5.8c1.2,0.6,2.1,1.5,2,3c-0.8,1.6-2.4,2.2-3.9,2.7c-6.4,2.1-11.2,6.4-16.4,10.3
		c-6.8,5-8.4,12-7.5,19.9c0.8,6.9,2.9,13.4,5.5,19.7c7.3,17.3,16.3,33.6,28.5,48c1.9,2.3,4.5,3.7,7.5,6.3
		c-9.7-14.1-16.2-28.6-22.4-43.4c-3.9-9.3-7-18.9-8.6-28.9c-2-12.6,5.7-26,17.6-30.7c1.2-0.5,2.5-0.9,3.7-0.1
		C448.4,225.1,456.2,226.2,464.7,222.6z"/>
	<path class="st11" d="M441.5,218.7c-16.7,6.1-24.4,19.8-18.1,40.3c6.8,22.1,16,43.1,29.1,62.3c0.4,0.7,0.7,1.4,1.6,3.1
		c-5.1-2.5-9-5.1-11.9-8.8c-14-17.5-24.8-36.7-31.7-58.1c-2.2-7-3.1-14.1-1.3-21.5c1-4,4-6.3,6.7-8.7c6.4-5.5,13.3-10.3,21.7-12.5
		C438.9,216.1,440.2,217.4,441.5,218.7z"/>
	<path class="st12" d="M445.8,186.4c9.8,2.7,15.1,9.2,20.1,16c2.2,3-0.2,4.5-2,5.9c-1.7,1.3-3.8,2.8-5.9,0.2
		c-0.6-0.8-1.6-1.4-1.8-2.2C454,199.4,450.8,192.9,445.8,186.4z"/>
	<path class="st10" d="M496.1,214c5.4,6.2,8.1,13.5,8.7,21.5c0.5,7.4,0.6,15-0.1,22.4c-0.4,4.4-0.6,8.7-0.8,13
		c-0.6,12.9-2.1,25.6-5.1,38.2c-0.8,3.5-1.8,8.7-6.2,8.9c-4,0.2-4.8-4.9-5.9-8c-3.1-8.5-4.2-17.4-5.2-26.4
		c-1.4-12.3-2.7-24.6-3.8-36.9c-0.8-8.9,0.9-17.7,1.3-26.6c0.1-1.7,0.3-3.5,0.6-5.2c2.1,2.1,4.4,3.6,7.6,2.9c2.8-0.2,3.8,2,5,3.9
		c3.2,5.1,4.3,10.9,4.8,16.7c0.8,9.8,1.1,19.7-0.1,29.5c-2,2.3-2.5,0-2.8-1.1c-0.8-2.9-1.9-5.5-3.6-7.9c-2-2.8-3.7-2.7-5.6,0.2
		c-1.6,2.5-1.4,5.3-1.2,8c0.6,6.6,1.2,13.2,2.6,19.7c1.1,5.2,1.3,5.2,6.7,4.2c0.7-0.1,1.2,0.1,1.6,0.7c1.5,6.3-0.8,12.2-1.2,16.6
		c3.1-11.4,4.5-24.7,4.8-38.1c0.2-8.6,1.4-17.1,1.2-25.8c-0.1-8.6-1.3-16.8-5.6-24.4c-0.7-1.2-1.6-2.5-1-4.1
		C493.8,214.6,495,214.5,496.1,214z"/>
	<path class="st11" d="M493.1,215.7c5.4,7.6,7.8,16.1,7.9,25.5c0.2,15.5-1.4,31-2.2,46.5c-0.5,8.4-2.4,16.8-6.3,24.7
		c0.5-7.2,1.1-14.3,1.6-21.5c0.4-7.5-0.4-15,2-22.3c-0.3-12.9,1.3-25.9-1.9-38.6c-1.2-4.7-2.8-9.2-6.9-12.4
		C489.2,217,491.1,216.4,493.1,215.7z"/>
	<path class="st13" d="M488,179c10.2,4,14.5,13.4,10.6,22.1c-0.6,1.2-0.9,2.9-2.8,3c-2.2,0.1-2.7-1.7-3.2-3.1
		c-0.9-2.6-2.1-5.2-0.7-8.3c1.1-2.5,0.5-5.4-1-7.9C489.9,183,489.1,181.2,488,179z"/>
	<path class="st10" d="M710.4,496.7c1.7,11.5,4.8,22.5,8.7,33.2c0.6,1.5,1,2.7-0.4,3.8c-1.3,1-2.3,0-3.5-0.4
		c-3.4-1.2-3.7-4.1-4.2-6.9C709.1,516.6,710.3,506.6,710.4,496.7z"/>
	<path class="st10" d="M721,460.9c-8.6-10.7-20.5-12.4-32.8-12.6c-10.8-0.2-21.6-1.1-32.4-1.3c-4.8-0.1-9.8-0.3-14.7-1.2
		c13.1-0.3,26.1-2,39.2-1.5c12,0.5,23.9-1.6,35.8-1c5,0.3,8.7,4.6,7.2,9.4C722.5,455.3,723,458.1,721,460.9z"/>
	<path class="st10" d="M670.6,540.4c13.4,0,26.9-1.5,40.1,2.4C697.3,541.9,683.9,541.6,670.6,540.4z"/>
	<path d="M476.5,284.8c0.5,3.4,0.1,6.8-1.2,9.9c-1.7,4.3-5.3,5.1-9,2.1c-5.4-4.4-6.2-10.7-7.2-16.9c-0.5-3-0.5-6.2,0-9.2
		c1.1-6.8,3.4-9.9,8.2-9.9c5.2,0,7.4,3.1,8.1,9.3C475.9,275,477.3,279.9,476.5,284.8z"/>
	<path d="M496,268.6c0,7.5,0.9,15.1-2,22.3c-5.3,4.5-7.2,3.8-8.7-3.4c-1.7-7.9-3-15.9-2.9-24c0-1.6-0.2-3.1,0.9-4.6
		c1.2-1.7,2.2-3.9,4.4-4c2.3-0.1,3.3,2.1,4.5,3.9C494.2,261.8,494.9,265.3,496,268.6z"/>
	<path class="st10" d="M473.6,272.2c0,2,0.3,4.1-2.7,4.1c-2.8,0-8-5.7-8.1-8.6c0-2.5,1.3-3.9,3.8-4.1
		C469.5,263.5,473.6,268.5,473.6,272.2z"/>
	<path class="st14" d="M464.1,284.4c2.7,0,8,6.5,7.5,9.2c-0.2,1.1-0.7,2.1-1.7,2.1c-2.8-0.2-4.5-2.3-6.2-4.3
		c-1.4-1.6-2.5-3.5-1.6-5.7C462.5,284.9,463.2,284.4,464.1,284.4z"/>
	<path class="st10" d="M485.2,263.4c0.3-2.4,0.7-4.8,2.8-5.3c2.1-0.5,2.1,2.4,3.1,3.6c0.3,0.3,0.6,0.8,0.6,1.2
		c0.3,2.7,2.8,5.2,0.4,8c-0.8,0.9-1.9,0.9-2.6,0.3C487,269.2,486,266.2,485.2,263.4z"/>
	<path class="st14" d="M489.7,290c-3.4-1-3.8-4-4.3-6.8c-0.3-1.5,0.6-4.1,2-3.6c2.8,1.1,5,3.6,5.5,6.7
		C493.3,288.4,491.6,289.5,489.7,290z"/>
</g>
</svg>
