<?xml version="1.0" encoding="utf-8"?>
<!-- Generator: Adobe Illustrator 23.0.1, SVG Export Plug-In . SVG Version: 6.00 Build 0)  -->
<svg version="1.1" id="Layer_4" xmlns="http://www.w3.org/2000/svg" xmlns:xlink="http://www.w3.org/1999/xlink" x="0px" y="0px"
	 viewBox="0 0 1000 1000" style="enable-background:new 0 0 1000 1000;" xml:space="preserve">
<style type="text/css">
	.st0{fill:#6E3720;}
	.st1{fill:#FB9A7A;}
	.st2{fill:#CBB89A;}
	.st3{fill:#FEFEFE;}
	.st4{fill:#C0FEFE;}
	.st5{fill:#E00000;}
	.st6{fill:#7F0000;}
	.st7{fill:none;}
	.st8{fill:#7898AB;}
	.st9{fill:#800000;}
	.st10{fill:#B0F3F2;}
	.st11{fill:#2B5260;}
	.st12{fill:#7F7F7F;}
	.st13{fill:#00407F;}
</style>
<g>
	<path class="st0" d="M634.7,372.1c-8.4,4.5-17.1,7.5-26.9,4.9c-1.6-0.4-3.4-0.2-5.1,0.8c-8.3,5.3-17.2,6.3-26.4,2.9
		c-3.5-1.3-6.8-0.6-9.8,0.3c-7.2,2.2-12.7-1-18.3-4.4c-4.8-2.9-9.1-6.5-12.9-10.8c-0.5-0.6-0.9-1.9-2.2-1.1
		c-1.3,0.9-0.7,1.7-0.1,2.9c3.4,7,7.1,13.8,9.6,21.1c3.1,9.3,5.1,18.9,6.3,28.7c2.3,18.8-3,36.5-7.8,54.3
		c-4,14.8-9.5,29.1-12.3,44.2c-1.2,6.2,0.6,12.3,3,18.1c2.1,5.2,5.5,9.9,6.8,15.6c2.6,11.3-3.2,17.5-13,19.5
		c-18.6,3.9-37.7,2-56.6,2c-5,0-10.2-0.8-15.1-2.1c-11-2.9-17.4-15.2-11-27.7c4.1-8,6.3-16.2,5.3-24.8c-1.5-12.6-4-25-7.3-37.3
		c-4.5-16.7-7.5-33.7-10.2-50.7c-3.5-21.8-10.2-42.5-21.1-62c-9.9-17.5-19-35.3-24.9-54.7c-4.1-13.7-7.9-27.3-8.9-41.7
		c-0.9-12.5,0-23.9,6.6-34.8c6-9.8,15-16,24.6-21.3c13.5-7.4,28.1-11.1,43.3-13c9.1-1.1,18.2-2.2,27.4-1.7c2,2.7,1.6,5.5,0.5,8.4
		c-1.6,1.9-3.8,1.5-5.9,1.6c-20.4,1.3-40.5,4.1-59.3,12.7c-17.6,8.1-28.8,25.3-26.5,46.6c2.9,26.8,12.8,51,24.1,74.8
		c4.2,8.8,8.6,17.5,13.4,26c9.9,17.7,15.7,36.8,18.7,56.7c3.7,25,9.4,49.5,14.6,74.2c1.9,9.1,4.2,18.4,2.1,28
		c-1.3,6-3.7,11.4-6.3,16.9c-4,8.3-2.3,12.3,6.7,14.1c19.7,4,39.4,4,59.1,0c9-1.8,11.1-6.1,6.7-14c-9.8-17.8-8.6-36-3.2-54.5
		c4.5-15.3,9-30.6,11.7-46.4c4.1-24.2-0.8-46.8-12.2-68.3c-1.7-3.3-3.8-5.1-7.7-4.1c-1.9,0.5-3.9,0.2-5.8-0.1
		c-6.9-1.2-13.9-1.8-20.7-3.6c-14-3.9-27.9-4.2-41.8-0.1c-1.9,0.6-4.6,1.7-5.9-0.3c-1.4-2.3,0.9-4.2,2.4-5.8c7-7.5,15.7-11,25.9-9.5
		c11.9,1.7,23.5,5.4,35.5,6.8c6.1,0.7,12,0.5,17.7-2.1c3-1.3,3.9-2.9,2.5-6c-2.9-6.1-3.9-12.7-4.6-19.4c-0.2-8.4,1.8-16.3,5-24
		c1.8-4.2,3.5-8.4,6.2-12.1c0.8-1.1,1.6-2.2,2.3-3.3c1.7-2.6,3.6-5.1,6-7.2c1.9-1.4,3.7-2.7,5.3-4.5c7.6-3.1,9.2-9.5,9.7-16.8
		c0.4-5.3,2-10.5,1.6-15.9c-0.4-5.8-2.5-11-6.5-15.3c0.6-4,3.7-5.8,6.8-7.5c8.3,7.6,12.1,17.1,10.8,28.2c-0.7,6.3-2,12.5-3.4,18.6
		c-0.4,1.9,0.2,2.3,1.4,1.9c6.1-2.4,11.5,0.6,17.1,1.8c5.4,1.1,10.8,2.6,16.5,2.3c19.9-1,29.2,4.5,35,23.4c1.5,1.9,1.3,4.2,1.1,6.4
		c-2.2,8.2,0.3,15.7,3.7,22.9c2.3,5,4.4,10,6,15.3c0.3,2,0.9,4,1,6.1c0.1,4.5-1,8.6-3.2,12.5C639.5,367.6,638.3,371,634.7,372.1z"/>
	<path d="M808.6,547.9c-2.1-15.7-19.6-23.2-32.5-20.9c-8.8,1.5-16.6,5.4-24.8,8.5c-1.2,0.5-2.3,1.3-3.2-0.3
		c-2.8-4.6-6.7-4.8-11.2-3.2c-2.3,0.8-3.2-0.2-3.9-2.5c-4.5-14.7-8.4-29.6-11.4-44.7c-0.4-1.9-0.1-2.4,1.7-2.8
		c3-0.7,6.4-1.1,8.2-4.2c6.9-11.9,11.5-24.3,6.7-38.2c-1.6-4.7-4.1-8.1-9.7-9.2c-7-1.4-13.8-0.3-20.7-0.8c-1.6-0.1-3.3,0.5-4.5-1.1
		c-1.8-2.5-4.6-3.3-7.1-4.7c-5.7-3.2-12-4.4-18.2-6c-1.4-0.4-4,0.3-4.3-2.6c-1.3-12.5-2.7-25-3.9-37.6c-0.8-8.1-1.1-16.2-2.9-24.1
		c-0.4-1.7-0.8-4,1.8-4.9c1.9-3.6,2.8-7.4,1.5-11.5c-0.2-0.2-0.3-0.3-0.5-0.3c0,0,0,0,0,0c-0.8-0.4-1.4,0.3-1.9,0.9
		c-3.4,4.7-8.3,6.1-13.7,7c-3.5,0.6-7.3-0.3-10.7,1.3c-0.4,0.2-0.7,0.4-1,0.6c0.3,2,0.7,4,1,5.9c0.4,0.3,0.8,0.5,1.2,0.7
		c2.6,1.2,5.4,0.6,8.2,0.4c5.5-0.5,5.9-0.3,6.6,5c2.3,17.9,3.5,35.8,5.5,53.7c0.3,2.9-0.9,4.3-3.6,4.6c-3.9,0.5-7.7,1-11.6,1.5
		c-2.8,0.4-3.8-0.9-4-3.5c-0.3-4.4-0.8-8.7-1-13.1c-0.6-11-0.7-22-2-33c-0.2-1.3-0.1-3-1.5-3.6c-0.2-0.1-0.4-0.2-0.7-0.2
		c-2,2.3-4,4.7-6.1,7c0,7.3,0.7,14.5,1.4,21.7c0.7,6.7,0,13.4,1.5,20.1c1.6,6.9,0.6,7.7-6,10.6c-1.7,0.8-3.5,1.5-4.9,2.9
		c-6,6.1-13.3,8.7-21.9,8.2c-5.5-0.3-11.1-0.1-16.6,0c-7.6,0.1-10.6,2.3-12.8,9.3c-2.3,6.9-1.7,14.2-0.9,21.1
		c0.9,7.6,3.2,15.4,12,18.2c1.6,0.5,1.1,1.6,1.5,2.6c4.7,11.6,4.8,23.9,5.6,36c0.9,13.8-1.7,27.3-4.8,40.7
		c-2.3,9.9,2.1,15.6,12.2,15.6c16,0.1,31.9-1.4,47.9-1.9c10.7-0.3,21.3,0.1,32,0.8c11.5,0.7,23.1,0.2,34.6,0.2
		c7.2,0,14.4,0.1,20.9-3.5c1.4-0.8,2.3,0.2,3.6,0.5c7.4,2.2,15.1,3.4,22.8,3.9c11.9,0.7,23.2-2.3,33.7-7.9
		C806.2,566,810,558.6,808.6,547.9z M744.8,554.6c1,0,2.3-0.5,3-1.2c9.4-9,22.1-10,33.5-14.2c4.3-1.6,12,3.6,13.6,8.4
		c1.1,3.3-1.8,9.7-5.5,11.9c-7.8,4.7-16.6,5.5-25.5,7c-6.2-1-12.6-2-19-3.2c-3-0.6-3.4-3.4-3.6-5.8C741,555,742.7,554.7,744.8,554.6
		z"/>
	<path class="st0" d="M668.9,348.7c0.3-3.9,0.7-7.9,1-11.8c-0.3-0.4-0.5-0.9-0.5-1.4c0-0.3,0-0.7,0.1-1c2.5-9,3.1-18,0.3-27
		c-1-5.2-1.5-10.4,0.5-15.5c3.8-9.8,10.9-16.4,20.8-19.5c9.5-2.9,18.9-5.6,28.1-9.5c16.1-6.8,30.4-1.6,43.1,8.9
		c4.7,3.9,9.6,7.8,13.2,13.2c5.2,7.8,7.6,16,8.8,25.2c1.6,11.9-0.7,22.9-6.4,33c-5.7,10-12.8,18.9-24.8,22.6c-3,0.9-5.2-1.2-7.9-0.2
		c-3.1,1.2-6.3,2.1-9.2,3.6c-4.7,2.5-9.3,3.9-14.6,1.9c-6.7-2.6-13-0.7-19.6,1.4c-13.6,4.5-25.4-1.7-30.9-14.2
		C669.7,355.4,669.6,351.9,668.9,348.7z"/>
	<path d="M477.4,208.1c0-2.9,0.1-5.8,0.1-8.7c1.8-4.8,4.6-9.2,10.2-8.8c5.7,0.4,11.5,1.7,16,6c2.8,2.7,5.4,5.6,8.1,8.4
		c4.3,2.5,6.1,6.7,8.1,10.9c3.7,11.4,0.2,19.2-9.8,21.8c-10,2.5-18.4-0.1-24.9-8.2c-1.1-1.6-2.2-3.1-3.4-4.7c-0.9-1.4-1.6-3-2.3-4.5
		C478.4,216.3,476.2,212.5,477.4,208.1z"/>
	<path d="M555.5,225.6c-1.8,2.7-4,5-6.7,6.7c-0.8,1.6-2.5,2.1-3.9,2.9c-1.6,0.6-3.2,1.1-4.9,1.4c-2,0.3-3.9,1-6,1
		c-4.3-0.3-7.1-2.5-8.6-6.5c-1.5-4.3-1.5-8.8-1.4-13.3c0.6-3,0.3-6.2,2.2-8.9c1-2.6,1.9-5.3,3.1-7.8c3.9-8.5,10.9-10.2,18.5-4.2
		c7.4,5.8,9.5,14.1,8.5,23.1C556.2,221.8,556,223.7,555.5,225.6z"/>
	<path d="M669.8,307.5c4.5,7.4,4.2,15.1,1.7,22.9c-0.6,1.8,0.2,4-1.5,5.4c-2.2-2-1.2-4.9-1.9-7.3c-0.3-0.9-0.4-1.9-0.5-2.9
		c-1.9-14-9.2-17.8-23.9-17.4c-3.6,0.1-7.2,2.1-10.9,0.3c0-2.3,0-4.6,0-6.9c8.4-1.6,16.9-2.7,25.4-0.8c3.6,0.8,6.1,3.7,9.1,5.7
		C668.1,307.1,668.7,307.9,669.8,307.5z"/>
	<path class="st0" d="M526.3,208.9c0.7,3.1-0.7,6-1,9c-2.7,0.9-4.6-0.5-6.6-1.9c-1.7-4-4.1-7.6-6.8-10.9
		C516.6,206.3,521.5,207.6,526.3,208.9z"/>
	<path class="st1" d="M518.7,215.9c2.2,0.6,4.6,0.6,6.6,1.9c0.1,4.5,0,9.1,1.2,13.6c0.8,1.8,0,3.5-0.5,5.2
		c-5.3,18.8-7.7,38.1-9,57.6c-0.6,8.9-1.5,17.8-0.2,26.7c0.6,4,1.8,7.5,3.5,11c0.8,7.4,2.2,14.6,5.5,21.3c1.3,2.8,0.2,3.1-1.8,4.4
		c-8.9,5.5-18.4,3.9-27.7,2.3c-10.1-1.8-20-4.4-30-6.3c-9.3-1.7-21.6,5.2-26.3,14.5c6.8-1.3,13.7-2.1,20.2-3.9
		c7.1-2,13.6,0.5,20.4,1.7c9.8,1.7,19.5,3.5,29.3,5.3c0.8,0.1,1.7,0.3,2.4,0c7-3,9.5,1.8,12.1,6.7c6.5,12.4,9.7,25.7,11.7,39.4
		c2.9,19.5-2.8,37.8-7.3,56.3c-2.3,9.5-6.1,18.5-7.8,28.2c-2.5,14.1-2.7,28,4.6,40.8c8,14.1,0.9,17-9.9,19.1
		c-13.5,2.7-27.1,2-40.7,1.7c-5.7-0.1-11.4-1.2-17-2.7c-8.4-2.2-10.8-6.7-6.9-14.6c3.3-6.8,6.6-13.5,7.3-21.3c0.3-3.1,0.2-5.9-0.2-9
		c-2.3-20.1-8.3-39.4-11.9-59.3c-2.1-11.5-4-23-5.9-34.5c-3.4-20.1-10.4-38.8-20.3-56.7c-9.9-18-18.8-36.6-25.6-56
		c-5.6-16-9.8-32.2-9.7-49.3c0.1-12.8,6-22.7,15.5-31.2c13.1-11.6,29.3-14.6,45.4-17.8c10.4-2.1,21-3.7,31.7-2.9
		c1,4.1,2,8.3,3.1,12.4c-1.4,2-3.6,2.1-5.6,2.4c-8.4,1.3-15.9,4.8-22.5,10c-7.2,5.7-10.4,13.5-9.5,22.4
		c2.4,25.8,10.9,49.4,26.3,70.3c1.2,1.6,2.5,3,4,4.3c10,8.7,20.7,7.1,27.4-4.3c6.4-10.8,9.4-22.8,10.7-35.1
		c0.8-7.2,1.2-14.5,1.2-21.9c-0.1-9.6-0.9-19.1-2.9-28.5c-0.3-1.3-0.8-2.5,0.2-3.7c7.8-1.5,12.1-8.5,10-16.1
		C519.4,218.9,519.7,217.3,518.7,215.9z"/>
	<path class="st1" d="M608.1,354.9c-3.4,9.2-8.2,16.5-18.4,18.7c-4.3,0.9-8-0.2-11.6-2.1c-2.4-1.3-5-2.3-7.4-1.1
		c-7.7,4.1-14.1,1.6-20.2-3.3c-7.4-6-14.5-12.2-17.2-22c-4.1-14.7-1.1-28.5,5.5-41.8c5-10,12.6-17,24-18.9c8.5-1.4,16.6,1.3,24.7,3
		c1.8,0.4,3.7,1,5.2,0.4c4.4-1.8,8.6-0.3,12.8,0.2c12.2,1.5,19.2,11.9,16.6,24c-1.3,5.9-1.4,11.5,2.2,17.1c3.6,5.8,6.2,12.2,7.8,19
		c2.6,11.4-5.5,21.6-17.3,20.8c-2.5-0.2-5.1-0.8-4.6-4.6C610.7,361.2,609.5,358.2,608.1,354.9z"/>
	<path class="st2" d="M643.6,352.6c4.2-0.3,8.3,0.4,12.5-0.9c2.2-0.7,3.7-0.1,4.4,3.1c1.4,6.9,1.7,13.9,2.5,20.9
		c1.5,12.5,2,25.2,3.9,37.7c0.3,2.2,1,4.6-3.2,4.8c-5.7,0.3-11.3,1.7-16.9,2.7c-1.7,0.3-2.4-0.3-2.3-2c0.5-5.5-1-10.9-1.1-16.4
		c-0.2-12.1-1.2-24.1-1.9-36.2c0-0.4-0.5-0.7-0.8-1.1C641.8,361,643.9,357.1,643.6,352.6z"/>
	<path class="st2" d="M632.9,308.6c7-0.9,13.8-2.8,21.2-1.1c10.5,2.5,12.6,7.2,14.8,16.5c0.9,3.8,0.8,7.9,1.2,11.9
		c-0.1,0.3-0.1,0.7-0.2,1c-2.6,6.1-7.8,8-13.9,8.9c-4.5,0.7-8.9,1-13.4,0.9c-2.5-9.4-8.4-17.5-10.2-27.2
		C631.7,315.8,631.1,312.2,632.9,308.6z"/>
	<path class="st3" d="M520.4,332c-3.6-2.1-4.2-5.6-4.9-9.4c-2.1-11.5-0.8-23,0.3-34.2c1.9-19.2,3.5-38.6,10.6-56.9
		c1.8,2.9,4.1,5,7.7,5.1c4.6,2.1,5.1,6.4,5.2,10.7c0.3,10.2-1.3,20.3-2.6,30.4c-0.7,5.3-1,10.6-3.5,15.5c0,1.4-0.5,2.4-1.9,2.8
		c-1.6-3.1-0.2-6.3-0.3-9.5c-0.2-3.3-0.4-6.4-1.6-9.5c-0.6-1.5-1.5-3.1-3.3-3.2c-1.8-0.1-2.8,1.5-3.5,2.9
		c-2.4,5.1-1.8,10.8-2.6,16.2c-0.3,2.2,0,4.5-0.1,6.8c-0.3,4.2,1,7.2,5.5,8.2C523,315.7,520.1,323.5,520.4,332z"/>
	<path class="st1" d="M544.8,234.4c1-1.2,2.4-1.8,4-2.1c7.9,5.7,8.4,14,7.7,22.5c-0.4,5.4-2.4,10.7-2.5,16c-0.1,5.1-2.5,7.6-6.7,9.4
		c-1.2,0.5-2.1,1.4-3.2,2.1c-1.6-1.9-0.6-4-0.3-6c1.1-6,2.2-12,3-18.1c0.9-6.9,0.3-13.5-1.7-20C544.8,236.9,544.3,235.7,544.8,234.4
		z"/>
	<path class="st4" d="M533.3,293c1.1-8.6,2.5-17.1,3.4-25.7c0.8-7.3,2-14.7,1.4-22.1c-0.3-3.2-1.6-6.2-3.8-8.7
		c2.1,0.2,3.7-1.7,5.9-1c5.6,3.2,6.7,8.8,6,14.3c-1.3,10.4-2.2,20.9-4.4,31.2c-0.4,2-1.5,3.5-2.5,5.2
		C537.2,288.5,535.2,290.8,533.3,293z"/>
	<path d="M525.3,307.7c-4.4,1.8-6.4-1.2-6.6-4.5c-0.5-8.5-0.2-17,1.8-25.3c0.1-0.5,0.1-1,0.3-1.4c1.3-2.1,2.4-5.2,5.3-4.9
		c2.8,0.3,4.4,3.1,5.1,5.8c1.5,6.1,1.7,12.2,0.2,18.4C529.3,299.8,527.3,303.8,525.3,307.7z"/>
	<path class="st3" d="M539.1,286.2c3-11.8,3.6-23.9,5.7-35.8c1-5.6-1.4-10.5-4.8-14.9c1.7-0.1,3-1.6,4.7-1.2
		c3.7,7.4,4.3,15,3.4,23.3c-0.9,8.3-2.9,16.4-4.1,24.6C543,284.3,541,285.1,539.1,286.2z"/>
	<path class="st5" d="M711,484.3c3.5,14,7.1,27.9,10.6,41.9c0.2,0.8,0.4,1.6,0.6,2.3c2.1,6.8,1.6,7.7-5.7,7.6
		c-12.3-0.1-24.5-0.7-36.8-1.1c-10.5-0.2-21.1-0.1-31.6,0.3c-11,0.5-22,0.8-33,2.1c-6.7,0.8-9.7-2.8-8.8-9.4
		c0.7-5.2,1.7-10.3,3.5-15.2c4.5-12.5,14.1-19.2,26.5-22.2c13.9-3.3,28-5.4,42.4-5.9c8.1-0.3,16.2-0.5,24.3-1.5
		C705.8,482.9,708.6,482.5,711,484.3z"/>
	<path class="st5" d="M605.5,444.5c22.2-1.9,44.6-1.5,66.8-2.3c14.6-0.6,29.1-0.4,43.7-0.7c10.1-0.2,12.7,2.2,10.8,12.9
		c-0.9,4.8-2.1,9.2-4.1,13.7c-1.4,3.3-3.7,4.5-6.8,3.7c-6.4-1.8-13.2,0.2-19.6-2c-13.8-2-27.8-1.7-41.6-3.4c-16.1-1.9-32,0.9-48,1.8
		c-4.3,0.3-8.4,0.2-12.3-1.9c-4.4-2.4-6.5-6.6-5.8-11.3c0.7-4.8,3.9-8.2,8.7-9.4C600.1,444.7,602.9,445.2,605.5,444.5z"/>
	<path class="st6" d="M711,484.3c-16.8,1-33.6,1.4-50.3,3.3c-10.5,1.2-21.1,2.9-31.1,6.7c-13.6,5.2-18.9,16.3-21.3,29.5
		c-0.2,1-0.1,2-0.3,2.9c-1.7,8,0.3,10.3,8.7,9.4c13.5-1.4,27.1-2,40.7-1.9c5.9,0,11.7,0,17.6,0c1.6,0,3.3-0.5,4.6,0.8
		c-16,0.7-32,1.2-47.9,2.2c-9.1,0.5-18.2,1.8-27.3,2.7c-1.6,0.2-3,0.1-2.7-2.2c2.1-13.9,0-27.7-2.6-41.3
		c-2.2-11.5-2.5-11.2,8.6-13.2c14-2.4,28-3.9,42.1-5c16.7-1.3,33.1,0.3,49.6,2c3,0.3,6.1,0.7,9.1,1C710.7,481.6,711,482.7,711,484.3
		z"/>
	<path class="st5" d="M696.4,550.7c3.7,0,7.5,0.4,11.2,0c7.1-0.6,13.7,1.3,20.4,3c2.8,0.7,3.5,3,3.4,5.1c-0.2,3.3-0.6,6.9-4.4,8.3
		c-5,1.8-10.4,1.8-15.7,2c-11.5,0.4-23.2,0.9-34.6-0.1c-14.6-1.2-29.2-0.2-43.8-0.9c-0.5-0.2-0.9-0.4-1.4-0.3
		c-2.7,0-5.5,0.1-6.1-3.3c-0.6-3.2,1.4-5.2,3.9-6.6c3.7-2.1,8-2.7,12.1-3.4c17.3-2.9,34.7-3.6,52.2-4.3
		C694.5,550.3,695.5,550.2,696.4,550.7z"/>
	<path class="st7" d="M789.3,559.5c-7.8,4.7-16.6,5.5-25.5,7c-6.2-1-12.6-2-19-3.2c-3-0.6-3.4-3.4-3.6-5.8c-0.2-2.5,1.5-2.8,3.5-2.9
		c1,0,2.3-0.5,3-1.2c9.4-9,22.1-10,33.5-14.2c4.3-1.6,12,3.6,13.6,8.4C796,551,793,557.3,789.3,559.5z"/>
	<path class="st5" d="M633.8,540.2c27.2-1.4,54.4-3.4,81.8-1.1c-1.1,4.7-1.1,4.7,0.7,9.8c-7.6-0.4-15.1-0.5-22.5-1.3
		c-7.6-0.8-15.1-1.1-22.6,0.1c-4.8,0.7-9.6,0.5-14.4,1c-12.2,1.2-24.4,1.6-36.7,2.3c-5.7,0.7-9-0.6-9.3-3.6
		c-0.3-2.7,2.5-4.6,8.1-5.3C623.9,541.4,628.9,540.5,633.8,540.2z"/>
	<path class="st6" d="M605.5,444.5c-2,1.7-4.6,0.9-6.9,1.6c-7.8,2.2-9.2,7.7-8.7,12.1c0.5,4.6,5.5,8.6,11.5,8.6
		c6.6,0,13.2-0.6,19.8-1.1c9.9-0.6,19.7-2.3,29.8-1.1c8.8,1,17.6,1.5,26.4,2.4c6.3,0.6,12.9,0.2,18.9,2.7c-5.7,1-11.3-0.8-16.9-0.9
		c-18-0.3-35.9,0.8-53.8,2.2c-10.5,0.8-21,2.8-31.5,4.6c-6.2,1-10.5-2.8-11.1-10.2c-0.4-4.7,0.5-9.4,1.2-14c0.5-3.1,2.8-5.3,5.9-5.8
		C595.2,444.6,600.3,443.8,605.5,444.5z"/>
	<path class="st8" d="M803.7,546.8c4.6,7.2-1.1,16.9-7.8,20.6c-13.2,7.4-27.1,8.9-41.7,6.5c-2.4-0.4-4.8,0-7.2-0.6
		c-4.2-1.1-6.6-2.7-4.4-7.4c7.3,1.8,14.8,3.6,22.4,3.4c10.9-0.3,21-3.2,29.8-10.1c5.1-4,4.5-14.8-1.3-18.9
		c-5.7-4.1-11.7-5.2-18.4-2.6c-7.8,3-15.9,5.5-23.7,8.5c-2.2,0.9-3.3,0.3-4.6-1.2c-1.8-2.1,0.5-3.1,1.5-3.8
		c4.6-3.2,9.8-5.2,15.3-6.2c-1.1,4.3-5.4,2.9-8.1,4.8c6.6-2.3,13.1-4.9,20-5.6c6-0.7,12.1-1,17.5,2.2c7.8,4.5,10.2,11.7,7.9,21.1
		C803.5,554.9,801.2,550.2,803.7,546.8z"/>
	<path class="st9" d="M696.4,550.7c-20.8,1.4-41.8,2.1-62.2,6.9c-1.2,0.3-2.5,0.7-3.7,1.2c-2.4,0.9-4.5,2.6-4.3,5.2
		c0.2,3.1,2.9,3.4,5.5,3.5c0.4,0,0.8,0.5,1.2,0.7c-9.2,0.7-18.3,1.6-27.5,2c-7.4,0.3-8.4-1.1-6.7-8.1c1.6-6.7,2.1-7.2,11-7.5
		c15.2-0.4,30.2-2.6,45.4-3.2c12.6-0.5,25.1-1.8,37.7-1.7C694,549.8,695.4,549.5,696.4,550.7z"/>
	<path class="st2" d="M696.9,430.5c-23.6,0-45.8,4.5-68.4,4C634.9,424.7,682.9,421.4,696.9,430.5z"/>
	<path class="st10" d="M803.7,546.8c0.2,5.7,0.3,11.4-5.8,15.6c0.7-2.4,1.1-4.3,1.9-6.1c4.1-9.5-4.9-21.3-16.4-21.2
		c-7,0-13.7,1.3-20.4,3.3c-3,0.9-6.1,1.8-9.9,3c3.1-3.9,7.8-3.4,10.5-6.3c5-2.4,10.4-3.3,15.7-4.5
		C789.9,528.3,802.3,536.6,803.7,546.8z"/>
	<path class="st11" d="M742.2,550.7c-6.9-1.4-13.1-2-19-4.2c-1.4-0.5-3.3-1-3.4-3c0-1.9,1.4-2.8,2.9-3.5c5.5-2.5,11.5-2.8,17.3-3.7
		c2.8-0.4,5.1,1.7,3.3,5.1c-1.2,2.3-1.2,4.2,0.2,6.3c0.5,0.7,1.6,1.3,0.6,2.4C743.4,550.9,742.4,550.7,742.2,550.7z"/>
	<path class="st6" d="M633.8,540.2c-5.7,1.7-11.7,1.6-17.4,3.5c-2,0.7-4.8,0.7-4.7,3.2c0.1,2.5,2.8,3.3,5,3.8
		c1.1,0.3,2.3,0.1,3.4,0.2c-3.3,1.8-6.9,0.4-10.4,0.8c-0.8,0.1-1.6,0-2.4,0c-2.1,0.2-5,2.4-6.2,0.1c-1-1.9,0.1-4.9,0.5-7.4
		c0.4-2.5,3.1-2,4.4-2.1C615.3,542,624.5,539.7,633.8,540.2z"/>
	<path class="st1" d="M704.2,348.5c0.2,3.3-1.5,5.4-1,7.9c1.3,6.5,0.8,7.2-5.9,7.8c-10.6,1-20.7-11-18.1-21.4
		c1.7-6.7,3.6-13.3,5.1-20c1-4.8-1.2-9.1-3.1-13.3c-2.6-6-3.3-11.8,0.1-17.9c2.6-4.5,6.6-7.2,10.9-8.2c12.1-2.8,23.5-7.3,34.8-12.3
		c4.7-2.1,9.3-1.9,13.6-0.4c18.7,6.8,30,20.1,33.9,39.7c3.1,15.3-3,27.6-12.2,38.9c-3.3,4-7.8,6.7-12.9,6.7
		c-5.6,0.1-10.3,2.2-15,4.6c-10.1,5.1-23,0.8-28.4-9.5C705.6,350.7,705.2,350.1,704.2,348.5z"/>
	<path class="st3" d="M509.7,236.5c4.5,15.7,4.4,31.7,3.2,47.9c-0.7,9.7-2.4,19.1-5.1,28.3c-1.9,6.4-4.6,12.5-8.8,17.6
		c-7.3,8.8-16.3,9.1-26.7,0.7c-5.4-4.4-9-10.5-12.3-16.6c-8.3-15.2-14.5-31.2-17.2-48.3c-1.2-7.8-2.7-15.8,0.8-23.7
		c4.1-9.4,12-13.8,20.7-17.8c5.2-2.4,10.8-2.8,16.3-4c1.2,1.1,1.8,2.4,2,4c-3.7,2.3-8.1,2.2-12.1,3.3c-4.1,1.2-8,2.6-11.7,4.7
		c-10,5.7-12.6,14.8-11.5,25.4c2.1,21.5,9.8,41,21,59.3c1,1.7,2,3.4,3.2,4.9c1.3,1.7,2.8,3.2,4.6,5c-9.2-20.3-15.3-41-17.9-62.8
		c-0.7-6.3,0-12.4,2.1-18.2c4.2-11.8,13.8-16.1,25.2-17.7c5.2,5.2,10.9,9.4,18.9,9C506.2,237.3,507.8,236.2,509.7,236.5z"/>
	<path class="st4" d="M485.4,228.4c-2.5,2.8-6.2,2.5-9.3,3.6c-9.7,3.3-14.7,10.4-16.1,20.1c-2.5,17.3,2.7,33.6,7.5,49.8
		c2.9,9.6,6.5,19,11.5,29.2c-7-4.7-10.6-10.7-14.1-16.6c-8-13.5-13.7-28-17-43.2c-1.5-7.1-2.8-14.3-1.8-22
		c1.5-12.4,9.9-17.8,19.9-21.4c5.2-1.9,10.8-3.6,16.6-3.3C483.9,225.5,485.4,226.4,485.4,228.4z"/>
	<path class="st12" d="M497.4,199.5c8.4,3.6,14.1,9.4,17.5,17.7c1.5,3.6,0.4,5.2-3,6.5c-3.7,1.4-6.3,0.4-7.2-3
		C502.5,213.6,501,206.3,497.4,199.5z"/>
	<path class="st12" d="M542.6,200.2c10.3,5.8,12.9,16,6,23.1c-1.2,1.2-2.3,3.3-4.4,1.9c-1.8-1.2-2.6-3.3-2.2-5.5
		c0.1-0.6,0.5-1.2,0.8-1.7C545.8,212.3,545.4,206.6,542.6,200.2z"/>
	<path class="st3" d="M530.3,283.1c-0.4,1.7,1,5.1-2.5,4.8c-3.2-0.3-4.2-3.4-4.3-6.5c-0.1-2.7,0.5-6,3.4-5.8
		C530.8,275.9,530.2,279.9,530.3,283.1z"/>
	<path class="st13" d="M519.4,300.1c0.9-1.9,0.2-5.6,3-5.7c2.7-0.1,3.8,3.1,3.9,5.8c0,2.4-0.4,5.4-3.5,5.2
		C520.1,305.3,519.9,302.4,519.4,300.1z"/>
	<path class="st3" d="M710.4,496.7c1.8,11.5,4.7,22.7,8.9,33.5c0.5,1.4,0.7,2.4-0.5,3.4c-1.2,1-2.2,0.2-3.5-0.2
		c-3.6-1.3-3.8-4.4-4.3-7.3C709.1,516.4,710.3,506.6,710.4,496.7z"/>
	<path class="st3" d="M641.2,446.2c8-0.2,15.8-2,23.7-1.7c17,0.5,34-1.3,51-1.1c5.3,0.1,8.8,4.4,7.3,9.6c-0.7,2.5-0.5,5.2-2.2,7.9
		c-9-11.1-21.6-12.3-34.5-12.7C671.4,447.7,656.3,446.9,641.2,446.2z"/>
	<path class="st3" d="M670.6,540.6c12.3-0.6,24.5-1.1,36.6,0.3c1.4,0.2,3.3,0.7,3.1,1.7c-0.3,1.8-2.5,1.5-3.7,1.1
		c-4.9-1.9-10-2-15-1.8C684.5,542.4,677.6,540,670.6,540.6z"/>
	<path d="M510.7,286.3c-1.1,5.2,0,12-3.8,18c-1.5,2.3-2.9,5.3-5.7,5.1c-2.7-0.2-4.7-2.5-6.3-5.2c-4.7-8.1-3.1-22.4,3-27.3
		c2.6-2.1,5.1-4.6,8.4-3.1c3.2,1.4,4.4,4.8,4.4,8.3C510.7,283.1,510.7,284,510.7,286.3z"/>
	<path class="st3" d="M508.8,284.8c0,2.1,0.2,4.4-3,4.3c-2.8-0.1-7.1-5.6-6.7-9.2c0.2-2.3,1.8-3.5,4.3-3.5
		C506.9,276.4,508.8,279.4,508.8,284.8z"/>
	<path class="st13" d="M502.9,302.4c0.1,2.3-0.3,4.4-2.3,4c-4-0.7-4.6-4.5-5.4-7.7c-0.4-1.6,0-3.9,2.1-3.5
		C501.2,296,502,299.6,502.9,302.4z"/>
</g>
</svg>
