<?xml version="1.0" encoding="utf-8"?>
<!-- Generator: Adobe Illustrator 23.0.1, SVG Export Plug-In . SVG Version: 6.00 Build 0)  -->
<svg version="1.1" id="Layer_4" xmlns="http://www.w3.org/2000/svg" xmlns:xlink="http://www.w3.org/1999/xlink" x="0px" y="0px"
	 viewBox="0 0 1000 1000" style="enable-background:new 0 0 1000 1000;" xml:space="preserve">
<style type="text/css">
	.st0{fill:#6E3720;}
	.st1{fill:#FB9A7A;}
	.st2{fill:#FEFEFE;}
	.st3{fill:#CBB89A;}
	.st4{fill:#C0FEFE;}
	.st5{fill:#00407F;}
	.st6{fill:#E00000;}
	.st7{fill:#7F0000;}
	.st8{fill:none;}
	.st9{fill:#7898AB;}
	.st10{fill:#800000;}
	.st11{fill:#B0F3F2;}
	.st12{fill:#2B5260;}
	.st13{fill:#808080;}
	.st14{fill:#7F7F7F;}
</style>
<g>
	<path class="st0" d="M640.5,402.4c-8.4,4.5-17.1,7.5-26.9,4.9c-1.6-0.4-3.4-0.2-5.1,0.8c-8.3,5.3-17.2,6.3-26.4,2.9
		c-3.5-1.3-6.7-0.3-9.8,0.3c-2.9,0.6-5.5,1.3-8.4,0c-1.4-0.6-2,0.1-2.5,1.8c-1.8,5.8-0.9,11.8-1.6,17.7c-1.6,14.1-4.9,27.7-9.6,41.1
		c-5.3,14.8-11.8,28.9-18.9,42.9c-3.2,6.3-2.6,12.9,0.3,19.3c2.4,5.2,5.5,9.9,6.9,15.6c2.7,11.5-3.4,17.6-13,19.5
		c-18.7,3.9-37.7,2-56.6,2c-5,0-10.2-0.8-15.1-2.1c-11-2.9-17.4-15.1-11-27.7c4-7.8,6.3-15.8,5.3-24.4c-1.3-12-3.6-23.8-6.1-35.6
		c-3.2-14.9-6.5-29.7-7.8-45.1c-1-11.4,0.7-22.5,0.4-33.8c-0.3-16.4-2.4-32.3-6.3-48.3c-4.2-17.2-8.7-34.5-9.5-52.4
		c-0.4-8.3-2.1-16.6-1.7-25c0.7-14.3,3.8-28.2,13.2-39.4c6.5-7.8,16-11.8,25.7-14.8c12-3.7,24.5-3.4,36.9-2.9
		c17.2,0.8,34,3.7,50.4,9.4c0.3,0.1,0.6,0.3,0.8,0.5c1.1,3.2,0.2,5.9-2.2,8.1c-2.2,0.7-4.2-0.3-6.1-1c-17.8-6-36.2-7.5-54.8-7.8
		c-10.3-0.1-20.3,2.2-29.8,6.6c-6.8,3.2-11.7,8.3-14.6,15.1c-6.1,14.2-7.7,29-6.7,44.4c1.5,23.1,7.3,45.2,13.5,67.3
		c3,10.6,3.9,21.4,4.3,32.3c0.4,9.4-0.3,18.8-0.7,28.3c-0.5,13.2,1.2,26.3,3.3,39.3c2.7,17.2,6.4,34.2,9.3,51.4
		c1.5,9.2-0.2,17.8-3.8,26.1c-1.1,2.7-2.7,5.2-3.8,7.9c-2.2,5.7-0.7,9,5,11c5.9,2.1,12.1,2.9,18.2,3.1c12.5,0.5,25,0.9,37.5-1.1
		c2.2-0.4,4.5-0.8,6.7-1.4c8-2.1,9.8-5.7,6.4-13.3c-2.1-4.7-4.6-9.3-5.9-14.4c-2.3-8.8-2-17.3,1.6-25.8c2.9-6.9,5.4-14,8.2-20.9
		c8.2-19.6,12.1-40.1,14-61.1c0.5-5.5,0.6-11,0.9-16.5c0.3-5.6-2.1-8.9-7.2-10.8c-9.6-3.5-18.9-7.8-28.1-12.3
		c-3.5-1.7-7.2-3.2-10.5-5.1c-10.2-5.9-21.5-7.2-32.9-7.8c-1.7-0.1-4.1,0.3-4.7-1.6c-0.7-2.2,1.5-3.3,3.1-4.4
		c3.6-2.5,7.7-3.3,12-3.5c11.3-0.6,21.3,3.8,31.2,8.5c7,3.3,13.8,7,21.5,10.5c-2.5-8.3-4.4-16-3.8-24c1.2-9.7,4.5-18.7,9-27.4
		c0.7-1.2,1.6-2.3,2.4-3.5c1.1-1.4,2-2.9,3-4.3c2-3.2,4.7-5.8,7.9-8c2.2-1.9,4.1-4,6.9-5.1c1.2-0.6,2.4-1.2,3.6-1.8
		c1.9-0.9,3.8-1.9,5.8-2.5c1.7-0.6,3.4-0.8,5.2-0.9c7.3-2.2,14.1,0.5,21,2.1c1.9,0.6,3.9,0.9,5.9,1.3c1.6,0.6,3.3,0.6,5.1,0.6
		c3.4-0.2,7.3,1.1,9.7-2.8c2.8-4.6,4.6-9.3,2.9-14.8c-0.9-2.8-2.7-5.2-3.2-8.1c2-2.8,4.8-4,8.2-4.3c8.2,9.4,8.6,19.8,3.7,30.8
		c-0.4,0.9-1.6,1.7,0.3,2.5c9.4,4.1,13.8,12.1,16.5,21.4c1.5,1.9,1.3,4.2,1.1,6.4c-2.2,8.2,0.3,15.7,3.7,22.9c2.3,5,4.4,10,6,15.3
		c0.3,2,0.9,4,1,6.1c0.1,4.5-1,8.6-3.2,12.5C645.4,397.9,644.1,401.3,640.5,402.4z"/>
	<path d="M808.7,548.1c-1.9-15.4-19.6-23.6-32.8-21c-8.6,1.6-16.3,5.5-24.4,8.3c-1.4,0.5-2.2,1.7-3.5-0.4c-2.6-4.2-6.6-4.6-10.9-3.1
		c-2.2,0.8-3.2,0.4-4-2.2c-4.6-14.7-8.2-29.6-11.5-44.6c-0.8-3.8,2-3.4,3.3-3.5c3.2-0.3,5.7-1.9,7.1-4.3c5.2-9,8.7-18.6,8.2-29.2
		c-0.5-10.5-4.4-16.1-13.1-18.1c-2.5-0.6-5.2-0.2-7.8-0.3c-7.4-0.2-14.7,1-21.3-4.7c-4.4-3.8-10.5-5.4-16.6-6.2
		c-2.1-0.3-3.7-1.3-4-4.5c-1-10.2-3.1-20.3-4.6-30.5c-0.3-1.8-0.8-4,1.8-4.9c1.9-3.6,2.8-7.4,1.5-11.5c-0.2-0.1-0.3-0.3-0.5-0.3h0
		c-0.8-0.4-1.4,0.3-1.9,0.9c-3.4,4.7-8.3,6.1-13.7,7c-3.5,0.6-7.3-0.3-10.7,1.3c-0.4,0.2-0.7,0.4-1.1,0.6c0.3,2,0.7,4,1,5.9
		c0.4,0.3,0.8,0.5,1.2,0.7c3.1,1.4,6.4,0.6,9.7,0.2c2.7-0.3,4.5,0.3,4.9,3.2c1.1,8.4,2.6,16.7,3.4,25.1c0.3,2.6-0.9,3.9-3.3,4.4
		c-3.5,0.8-7.1,0.9-10.6,1.6c-3.6,0.7-5.1-0.8-5.6-4.2c-0.6-4.4-0.1-8.8-0.4-13.1c-0.1-1.8,0.4-4-1.6-5c-0.2-0.1-0.4-0.2-0.6-0.3
		c-2,2.3-4,4.7-6,7c0.6,6.3,1.1,12.6,1.7,19.2c-6.7,0.4-13.3,2.9-18,7.6c-5.5,5.5-11.8,6.3-18.8,6.3c-5.5,0-11.1,0-16.6,0
		c-8.4,0-11.3,2-13.6,10.1c-2,6.9-1.5,14.1-0.5,21.1c1,7.7,3.7,14.8,12.1,17.6c1.4,0.5,0.8,1.5,1.1,2.3c4.7,11.6,4.8,23.9,5.7,36
		c1,13.9-1.7,27.6-4.8,41.2c-2.1,9.3,2.2,15.3,11.6,15.3c15,0.1,29.9-1.2,44.9-1.8c10.6-0.4,21.3-0.6,32,0.7
		c7.2,0.9,14.6,0.4,21.9,0.1c12.7-0.6,25.8,2.3,37.9-3.8c0.9-0.5,1.8,0.5,2.7,0.7c7.5,2.1,15.1,3.5,22.8,4
		c12.1,0.7,23.5-2.3,34.2-8.1C806.2,565.9,809.9,558.5,808.7,548.1z M744.8,554.6c1-0.1,2.3-0.5,3-1.3c9.4-9,22.1-10,33.5-14.2
		c4.2-1.5,11.3,3.3,13.4,8c1.4,3.3-1.6,10-5.5,12.3c-7.8,4.7-16.6,5.5-25.4,7c-6.3-1.1-12.7-2-19-3.3c-2.9-0.6-3.4-3.4-3.6-5.9
		C741.1,555,742.8,554.7,744.8,554.6z"/>
	<path class="st0" d="M674.7,379c0.3-3.9,0.7-7.9,1-11.8c-0.3-0.4-0.5-0.9-0.5-1.4c0-0.3,0-0.7,0.1-1c2.5-9,3.1-18,0.3-27
		c-1-5.2-1.5-10.4,0.5-15.5c3.8-9.8,10.9-16.4,20.8-19.5c9.5-2.9,18.9-5.6,28.1-9.5c16.1-6.8,30.4-1.6,43.1,8.9
		c4.7,3.9,9.6,7.8,13.2,13.2c5.2,7.8,7.6,16,8.8,25.2c1.6,11.9-0.7,22.9-6.4,33c-5.7,10-12.8,18.9-24.8,22.6c-3,0.9-5.2-1.2-7.9-0.2
		c-3.1,1.2-6.3,2.1-9.2,3.6c-4.7,2.5-9.3,3.9-14.6,1.9c-6.7-2.6-13-0.7-19.6,1.4c-13.6,4.5-25.4-1.7-30.9-14.2
		C675.5,385.7,675.4,382.2,674.7,379z"/>
	<path d="M541.9,237.4c0.7-2.6,1.4-5.2,2.1-7.8c8.5-7.5,20.3-5.5,27.9,4.9c2.7,3.7,5.5,7.2,7.3,11.5c3.5,2.7,3.6,6.8,4.4,10.7
		c2.4,11.7-1.3,16.6-13.7,18c-11.3-0.6-20.1-5.4-25.6-15.6c-0.8-2.1-1.5-4.3-2.2-6.4c-0.3-1-0.5-2.1-0.5-3.1
		C541,245.5,539.4,241.4,541.9,237.4z"/>
	<path d="M618.2,277.3c-2.3,2-5.2,2.8-8,4.1c-1.5,1.7-3.6,1.9-5.7,2.1c-1.3,0.1-2.6,0.1-3.9,0c-2.1-0.1-4-0.7-6-1
		c-4.6-0.9-7-4.1-8.5-8.2c-0.9-5.1,1.4-9.5,2.8-14.2c1.2-2.1,1.8-4.7,3.9-6.2c2.3-1,3.1-3.5,4.5-5.3c5.1-6.6,11.9-7.4,18.1-1.8
		C623.8,254.1,625.9,267.4,618.2,277.3z"/>
	<path d="M675.7,337.8c4.5,7.4,4.2,15.1,1.7,22.9c-0.6,1.8,0.2,4-1.5,5.4c-2.2-2-1.2-4.9-1.9-7.3c-0.3-0.9-0.4-1.9-0.5-2.9
		c-1.9-14-9.2-17.8-23.9-17.4c-3.6,0.1-7.2,2.1-10.9,0.3c0-2.3,0-4.6,0-6.9c8.4-1.6,16.9-2.7,25.4-0.8c3.6,0.8,6.1,3.7,9.1,5.7
		C674,337.4,674.6,338.2,675.7,337.8z"/>
	<path class="st0" d="M592.8,253.9c-0.5,2.2-1.4,4.3-3,5.9c-3.5,1.6-5.3-1.5-7.7-2.8c-0.2-3.9-1.3-7.5-2.9-10.9
		C584.2,247.9,588.4,251.1,592.8,253.9z"/>
	<path class="st1" d="M541.9,237.4c0.3,4.2-0.3,8.5,0.9,12.6c-1.2,0.6-2.6,0.6-3.8,0.3c-9.3-2-18.5,0.1-27.6,1.4
		c-8.9,1.3-16.5,10.5-18.8,20.8c-1.6,7-0.5,13.9-0.1,20.8c1.1,17.5,4.3,34.5,12.7,50.1c3,5.6,6.9,10.2,13.4,12
		c2.5,0.7,5.2-0.9,7.6,0.9c0,9.2,1.3,18.1,6,27.8c-10-4.9-18.4-9.4-27.1-13.4c-9.3-4.3-18.8-8.2-29.5-7.5
		c-5.5,0.3-10.3,1.9-14.6,6.6c5.1,0.7,9.7,0.6,14.2,1c8,0.8,15.4,2.7,22.5,6.3c13.9,7,28,13.5,42.5,19.2c3.8,1.5,5.8,3.9,5.8,8.3
		c0.1,24-3.4,47.4-10.9,70.1c-3.8,11.5-8.7,22.7-13.2,34c-4.2,10.5-2,20.4,2.1,30.3c1.1,2.5,2.5,4.9,3.6,7.4
		c3.3,7.4,1.1,12.2-6.8,13.9c-5.6,1.2-11.3,2.7-17,2.8c-15.3,0.2-30.7,1.2-45.8-2.7c-8.2-2.1-10.5-6.5-7-14.2
		c3.1-6.8,6.1-13.6,7.4-21.2c1.1-6.6-0.7-12.5-1.7-18.5c-2.8-17.8-6.8-35.5-9.3-53.4c-1.4-10-2.2-20.2-2.2-30.4c0-4.1,1-8,1.1-12
		c0.6-21.3-2.2-41.9-8.2-62.4c-5-17-8.4-34.4-9.7-52.3c-1.1-15.7,0.7-30.7,6.3-45.3c3.1-8.1,9-14,17.1-17.4
		c11.9-5,24.5-6.8,37.3-5.9C507.1,228.8,524.9,230.8,541.9,237.4z"/>
	<path class="st1" d="M613.7,384.8c-2.2,10.2-10.1,17.9-19.3,19.5c-3.8,0.6-7.3-0.6-10.6-2.5c-2.4-1.3-5-2.2-7.4-0.9
		c-7.8,4.2-14.1,1.3-20.2-3.5c-8.2-6.4-15.5-13.6-17.7-24.4c-2.9-13.9-0.1-27,6.3-39.4c5.1-9.8,12.4-16.7,23.6-18.7
		c8.5-1.5,16.6,1.3,24.7,2.8c1.8,0.3,3.6,1,5.2,0.6c3.9-1.1,7.5-0.5,11.4,0c14,1.8,20.9,10.7,18.1,24.8c-1.2,6.2-0.5,11.5,2.8,17
		c3.4,5.8,6,12,7.5,18.7c2.6,11.3-6.1,21.8-17.6,20.6c-2.6-0.3-4.9-1.1-4.5-4.8C616.5,391.3,615.4,388.3,613.7,384.8z"/>
	<path class="st2" d="M526.2,356.4c-8.9,2.4-15.3-1.4-19.9-8.7c-7.2-11.4-11.3-24-13.1-37.4c-1.1-8.3-2.3-16.5-2.8-24.9
		c-0.7-12.1,2.2-23,11.9-31.3c4.7-4.1,10.7-4.4,16.3-4.9c7.1-0.7,14.4-2.2,21.6-0.2c0.9,0.3,1.8,0.6,2.7,1c0.1,1,0.2,1.9,0.2,2.9
		c-1.4,1.6-3.2,1.1-5,0.9c-7.6-0.8-15.2-0.6-22.8,0.5c-9.7,1.4-14.9,7.1-17.4,16.1c-1.4,4.9-1.7,10-1.3,15
		c1.3,16.8,1.9,33.8,8.7,49.7c1.1,2.7,2.4,5.3,4.5,8.6c-2.6-10.8-3.9-20.7-4.7-30.7c-1-13.8,0.2-27.3,4.9-40.3
		c5.6-15.3,25.4-19,35-14c5.6,9.1,13.6,14.1,24.3,14.9c1,1,1.2,2.3,1.1,3.6c-0.8,8.2-2.1,16.3-4.4,24.3c-0.5,1.6-1.5,2.8-2.5,4.1
		c-2,0.8-3.9,1.5-5.9,2.3c-1,0.2-1.9-0.3-2.7-0.8c-6.2-3.3-10.3-2.3-13.9,3.7c-3.4,5.6-5.5,11.7-5.6,18.4
		C531.5,337.9,527.8,346.8,526.2,356.4z"/>
	<path class="st3" d="M638.7,338.9c7-0.9,13.8-2.8,21.2-1.1c10.5,2.5,12.6,7.2,14.8,16.5c0.9,3.8,0.8,7.9,1.2,11.9
		c-0.1,0.3-0.1,0.7-0.2,1c-2.6,6.1-7.8,8-13.9,8.9c-4.5,0.7-8.9,1-13.4,0.9c-2.5-9.4-8.4-17.5-10.2-27.2
		C637.5,346.1,637,342.4,638.7,338.9z"/>
	<path class="st3" d="M649.5,382.8c4.1-0.3,8.3,0.4,12.5-0.9c2.1-0.7,3.8-0.4,4.4,3.1c1.3,8.6,2.1,17.3,3.8,25.9
		c1.3,6.2-1.7,6.4-6.3,7.3c-3.8,0.8-7.6,0.1-11.3,1.6c-2,0.8-3.7,0.4-4.3-3.1c-1-5.7-0.3-11.3-0.8-16.8c-0.1-1.5,0.8-3.3-0.9-4.5
		C647.7,391.3,649.8,387.3,649.5,382.8z"/>
	<path class="st2" d="M587,274.3c2.1,2.9,3.4,6.7,7.8,7.1c2.2,2,2.5,4.6,2.2,7.2c-0.6,6.6-1.4,13.3-7.1,17.9
		c-2.6,0.3-4.8-0.8-7.2-1.5c-4.7-1.5-9.5-1.6-14.2-0.4c-0.5-1-0.3-1.9,0.2-2.8c4.4-8.8,8.7-17.6,14.9-25.4
		C584.4,275.3,585.1,273.9,587,274.3z"/>
	<path class="st1" d="M587,274.3c-8.2,8.9-13,19.8-18.5,30.3c-1.7,0.3-3.3,0.6-5,1c3.1-10.4,5.1-21.1,5.9-31.9
		c2.5-0.5,5.1-0.7,7.4-1.4c5.6-1.8,7.8-8.1,5.4-15.2c2.9,0,4.8,2.7,7.7,2.8C589.5,264.7,586.3,269.1,587,274.3z"/>
	<path class="st1" d="M604.5,282.4c2,0.3,3.7-1.7,5.8-1c4.6,6.1,6.6,12.5,3.2,20c-3.4,7.5-3.4,7.6-12.9,7.1
		c-0.5-1.2-0.1-2.2,0.4-3.2c3.3-6.6,5.1-13.5,3.2-21C604,283.6,604.2,283,604.5,282.4z"/>
	<path class="st4" d="M589.8,306.5c4.4-7.8,7.5-15.9,4.9-25.1c2.1-0.8,3.8,1.2,5.9,1c1.8,1.3,2.9,3.1,3,5.3
		c0.1,6.5-1.2,12.7-4.8,18.3c-0.7,1.1-1.6,2-3.1,1.7C593.7,307.5,591.5,308.1,589.8,306.5z"/>
	<path d="M535.3,329.1c-1.4-1.8-1.2-3.7-0.7-5.8c1.1-4.6,2.9-8.9,5.2-13c4.3-7.9,10.7-8.8,17.8-2.5c-1,0.6-2,1.2-2.9,1.7
		c-6.7-2.5-7.5-1.9-6.8,5.1c-3,2.1-5.5,4.6-7.6,7.7c-2.8-0.1-2.5,2.2-2.9,3.9C537.1,327.5,536.6,328.5,535.3,329.1z"/>
	<path class="st2" d="M595.6,307.7c6.2-7.5,8.4-15.9,5-25.3c1.3,0,2.6,0,3.9,0c4.3,9.5,0.5,17.8-3.9,26.1
		C598.9,308.3,597,309.4,595.6,307.7z"/>
	<path class="st2" d="M547.8,314.6c-2.1-2.4-3.4-5-0.2-7.2c2.9-2,5.3-1,7,2.1C551.8,310.5,550.2,313,547.8,314.6z"/>
	<path class="st5" d="M537.2,326.1c-0.9-1.3-1.8-2.7-0.2-4.1c1.1-1,2.2-1,3.2,0.3C539.1,323.5,539,325.5,537.2,326.1z"/>
	<path class="st6" d="M711,484.3c3.5,14,7.1,27.9,10.6,41.9c0.2,0.8,0.4,1.6,0.6,2.3c2.1,6.8,1.6,7.7-5.7,7.6
		c-12.3-0.1-24.5-0.7-36.8-1.1c-10.5-0.2-21.1-0.1-31.6,0.3c-11,0.5-22,0.8-33,2.1c-6.7,0.8-9.7-2.8-8.8-9.4
		c0.7-5.2,1.7-10.3,3.5-15.2c4.5-12.5,14.1-19.2,26.5-22.2c13.9-3.3,28-5.4,42.4-5.9c8.1-0.3,16.2-0.5,24.3-1.5
		C705.8,482.9,708.6,482.5,711,484.3z"/>
	<path class="st6" d="M605.5,444.5c22.2-1.9,44.6-1.5,66.8-2.3c14.6-0.6,29.1-0.4,43.7-0.7c10.1-0.2,12.7,2.2,10.8,12.9
		c-0.9,4.8-2.1,9.2-4.1,13.7c-1.4,3.3-3.7,4.5-6.8,3.7c-6.4-1.8-13.2,0.2-19.6-2c-13.8-2-27.8-1.7-41.6-3.4c-16.1-1.9-32,0.9-48,1.8
		c-4.3,0.3-8.4,0.2-12.3-1.9c-4.4-2.4-6.5-6.6-5.8-11.3c0.7-4.8,3.9-8.2,8.7-9.4C600.1,444.7,602.9,445.2,605.5,444.5z"/>
	<path class="st7" d="M711,484.3c-16.8,1-33.6,1.4-50.3,3.3c-10.5,1.2-21.1,2.9-31.1,6.7c-13.6,5.2-18.9,16.3-21.3,29.5
		c-0.2,1-0.1,2-0.3,2.9c-1.7,8,0.3,10.3,8.7,9.4c13.5-1.4,27.1-2,40.7-1.9c5.9,0,11.7,0,17.6,0c1.6,0,3.3-0.5,4.6,0.8
		c-16,0.7-32,1.2-47.9,2.2c-9.1,0.5-18.2,1.8-27.3,2.7c-1.6,0.2-3,0.1-2.7-2.2c2.1-13.9,0-27.7-2.6-41.3
		c-2.2-11.5-2.5-11.2,8.6-13.2c14-2.4,28-3.9,42.1-5c16.7-1.3,33.1,0.3,49.6,2c3,0.3,6.1,0.7,9.1,1C710.7,481.6,711,482.7,711,484.3
		z"/>
	<path class="st6" d="M696.4,550.7c3.7,0,7.5,0.4,11.2,0c7.1-0.6,13.7,1.3,20.4,3c2.8,0.7,3.5,3,3.4,5.1c-0.2,3.3-0.6,6.9-4.4,8.3
		c-5,1.8-10.4,1.8-15.7,2c-11.5,0.4-23.2,0.9-34.6-0.1c-14.6-1.2-29.2-0.2-43.8-0.9c-0.5-0.2-0.9-0.4-1.4-0.3
		c-2.7,0-5.5,0.1-6.1-3.3c-0.6-3.2,1.4-5.2,3.9-6.6c3.7-2.1,8-2.7,12.1-3.4c17.3-2.9,34.7-3.6,52.2-4.3
		C694.5,550.3,695.5,550.2,696.4,550.7z"/>
	<path class="st8" d="M789.2,559.5c-7.8,4.7-16.6,5.5-25.4,7c-6.3-1.1-12.7-2-19-3.3c-2.9-0.6-3.4-3.4-3.6-5.9
		c-0.2-2.5,1.6-2.7,3.6-2.8c1-0.1,2.3-0.5,3-1.3c9.4-9,22.1-10,33.5-14.2c4.2-1.5,11.3,3.3,13.4,8
		C796.1,550.5,793.2,557.2,789.2,559.5z"/>
	<path class="st6" d="M633.8,540.2c27.2-1.4,54.4-3.4,81.8-1.1c-1.1,4.7-1.1,4.7,0.7,9.8c-7.6-0.4-15.1-0.5-22.5-1.3
		c-7.6-0.8-15.1-1.1-22.6,0.1c-4.8,0.7-9.6,0.5-14.4,1c-12.2,1.2-24.4,1.6-36.7,2.3c-5.7,0.7-9-0.6-9.3-3.6
		c-0.3-2.7,2.5-4.6,8.1-5.3C623.9,541.4,628.9,540.5,633.8,540.2z"/>
	<path class="st7" d="M605.5,444.5c-2,1.7-4.6,0.9-6.9,1.6c-7.8,2.2-9.2,7.7-8.7,12.1c0.5,4.6,5.5,8.6,11.5,8.6
		c6.6,0,13.2-0.6,19.8-1.1c9.9-0.6,19.7-2.3,29.8-1.1c8.8,1,17.6,1.5,26.4,2.4c6.3,0.6,12.9,0.2,18.9,2.7c-5.7,1-11.3-0.8-16.9-0.9
		c-18-0.3-35.9,0.8-53.8,2.2c-10.5,0.8-21,2.8-31.5,4.6c-6.2,1-10.5-2.8-11.1-10.2c-0.4-4.7,0.5-9.4,1.2-14c0.5-3.1,2.8-5.3,5.9-5.8
		C595.2,444.6,600.3,443.8,605.5,444.5z"/>
	<path class="st9" d="M803.7,546.8c4.6,7.2-1.1,16.9-7.8,20.6c-13.2,7.4-27.1,8.9-41.7,6.5c-2.4-0.4-4.8,0-7.2-0.6
		c-4.2-1.1-6.6-2.7-4.4-7.4c7.3,1.8,14.8,3.6,22.4,3.4c10.9-0.3,21-3.2,29.8-10.1c5.1-4,4.5-14.8-1.3-18.9
		c-5.7-4.1-11.7-5.2-18.4-2.6c-7.8,3-15.9,5.5-23.7,8.5c-2.2,0.9-3.3,0.3-4.6-1.2c-1.8-2.1,0.5-3.1,1.5-3.8
		c4.6-3.2,9.8-5.2,15.3-6.2c-1.1,4.3-5.4,2.9-8.1,4.8c6.6-2.3,13.1-4.9,20-5.6c6-0.7,12.1-1,17.5,2.2c7.8,4.5,10.2,11.7,7.9,21.1
		C803.5,554.9,801.2,550.2,803.7,546.8z"/>
	<path class="st10" d="M696.4,550.7c-20.8,1.4-41.8,2.1-62.2,6.9c-1.2,0.3-2.5,0.7-3.7,1.2c-2.4,0.9-4.5,2.6-4.3,5.2
		c0.2,3.1,2.9,3.4,5.5,3.5c0.4,0,0.8,0.5,1.2,0.7c-9.2,0.7-18.3,1.6-27.5,2c-7.4,0.3-8.4-1.1-6.7-8.1c1.6-6.7,2.1-7.2,11-7.5
		c15.2-0.4,30.2-2.6,45.4-3.2c12.6-0.5,25.1-1.8,37.7-1.7C694,549.8,695.4,549.5,696.4,550.7z"/>
	<path class="st3" d="M697.1,430.9c-13.2-1.1-24.8,1.1-36.4,1.9c-10.7,0.7-21.4,1.9-32.3,1.8C635.6,424.5,683.6,421.4,697.1,430.9z"
		/>
	<path class="st11" d="M803.7,546.8c0.2,5.7,0.3,11.4-5.8,15.6c0.7-2.4,1.1-4.3,1.9-6.1c4.1-9.5-4.9-21.3-16.4-21.2
		c-7,0-13.7,1.3-20.4,3.3c-3,0.9-6.1,1.8-9.9,3c3.1-3.9,7.8-3.4,10.5-6.3c5-2.4,10.4-3.3,15.7-4.5
		C789.9,528.3,802.3,536.6,803.7,546.8z"/>
	<path class="st12" d="M738.8,536.2c4.4-0.1,6.1,2.1,4.4,5.6c-1.1,2.3-0.7,4,0.4,5.9c0.4,0.8,1.6,1.3,0.7,2.4
		c-0.7,0.9-1.8,0.8-2.7,0.7c-5.9-1.3-11.9-2.5-17.8-4c-1.6-0.4-3.8-0.9-3.8-3.1c-0.1-2.3,1.9-3.5,3.7-3.9
		C728.8,538.3,734.2,537.2,738.8,536.2z"/>
	<path class="st7" d="M633.8,540.2c-5.7,1.7-11.7,1.6-17.4,3.5c-2,0.7-4.8,0.7-4.7,3.2c0.1,2.5,2.8,3.3,5,3.8
		c1.1,0.3,2.3,0.1,3.4,0.2c-3.3,1.8-6.9,0.4-10.4,0.8c-0.8,0.1-1.6,0-2.4,0c-2.1,0.2-5,2.4-6.2,0.1c-1-1.9,0.1-4.9,0.5-7.4
		c0.4-2.5,3.1-2,4.4-2.1C615.3,542,624.5,539.7,633.8,540.2z"/>
	<path class="st1" d="M710.4,379.2c-1.2,3.8-1.9,7.2-0.4,10.7c0.9,2.1-0.1,3.1-2.1,3.7c-6.4,1.7-12.8,1.6-17.4-3.5
		c-4.4-4.9-7.3-10.9-5.1-18.1c1.3-4.4,1.6-9.2,3.3-13.5c2.7-6.8,1-12.8-1.9-18.9c-4.9-10.3-0.8-20.7,8.5-24.6c3-1.3,6-2.3,9.1-2.9
		c8.8-1.7,16.9-5.1,24.7-9.2c10.9-5.6,20.3-1.5,29.3,4.2c10.1,6.4,16.7,16,20.5,27.3c5.1,15.1,1.5,28.7-7.4,41.4
		c-5.2,7.4-11.7,11.4-21,11.3c-3.6,0-6.9,2.5-10.2,4.2c-10.2,5.1-23.1,0.8-28.4-9.3C711.5,381,711.1,380.4,710.4,379.2z"/>
	<path class="st4" d="M545,258.7c-7.2-0.8-14.3-1-21.4,1.7c-6.4,2.4-10.5,7.2-12.4,12.8c-5.5,16.3-6.3,33-3.7,50.1
		c1.2,7.8,2.9,15.5,4.2,24.4c-3-2.3-4.2-4.8-5.5-7.2c-5.2-9.7-7.8-20.2-9-31c-1.2-9.9-2.4-19.9-2.1-29.9c0.2-5.6,1.3-10.9,3.8-15.9
		c2.7-5.4,6.8-8.8,12.8-10.1c9.1-2,18.2-2.5,27.4-0.9c1.3,0.2,2.6,0.1,3.9,0.1C544.4,254.6,544.8,256.6,545,258.7z"/>
	<path class="st13" d="M564.7,234.6c7.4,5.2,10.5,12.6,13.5,20.1c1,2.4,2.6,5.2-1.2,7c-3.2,1.5-7.8,0-9.6-2.9
		c-0.9-1.5-1.4-3.1-0.9-4.6C568.6,247.5,565.7,241.3,564.7,234.6z"/>
	<path class="st14" d="M612.4,251.1c8.5,6.2,8.4,15.3,1.5,21.2c-1.7,1.5-3.9,3.1-6.1,1.6c-2.4-1.6-1.7-4.3-0.6-6.6
		C609.5,262.3,612.5,257.4,612.4,251.1z"/>
	<path class="st2" d="M710.4,496.7c1.8,11.6,4.7,22.7,8.9,33.6c0.5,1.4,0.6,2.5-0.5,3.4c-1,0.8-2,0.4-3.1,0
		c-3.5-1.2-4.1-4.2-4.7-7.1C709.2,516.6,710.2,506.7,710.4,496.7z"/>
	<path class="st2" d="M641.1,445.9c13.1-0.4,26.1-2.1,39.2-1.6c12,0.5,23.9-1.6,35.8-1c5,0.3,8.7,4.6,7.2,9.4
		c-0.8,2.6-0.3,5.4-2.2,8.1c-5-5.9-11.3-9.8-19-11.2c-3.1-0.6-6.3-1.4-9.4-1.3c-11.7,0.3-23.2-1.4-34.9-1.2
		C652.3,447.1,646.7,446.2,641.1,445.9z"/>
	<path class="st2" d="M710.6,542.9c-13.3-1.4-26.7-1-39.9-2.6C684,540.4,697.4,538.8,710.6,542.9z"/>
</g>
</svg>
