<?xml version="1.0" encoding="utf-8"?>
<!-- Generator: Adobe Illustrator 23.0.1, SVG Export Plug-In . SVG Version: 6.00 Build 0)  -->
<svg version="1.1" id="Layer_4" xmlns="http://www.w3.org/2000/svg" xmlns:xlink="http://www.w3.org/1999/xlink" x="0px" y="0px"
	 viewBox="0 0 1000 1000" style="enable-background:new 0 0 1000 1000;" xml:space="preserve">
<style type="text/css">
	.st0{fill:#6E3720;}
	.st1{fill:#FB9A7A;}
	.st2{fill:#FEFEFE;}
	.st3{fill:#CBB89A;}
	.st4{fill:#C0FEFE;}
	.st5{fill:#E00000;}
	.st6{fill:#7F0000;}
	.st7{fill:none;}
	.st8{fill:#7898AB;}
	.st9{fill:#800000;}
	.st10{fill:#B0F3F2;}
	.st11{fill:#2B5260;}
	.st12{fill:#7F7F7F;}
</style>
<g>
	<path class="st0" d="M576.1,442.5c-5.5-1-7.9,0.9-10,6.7c-7.3,20.3-17.5,39.3-27.8,58.2c-2.4,4.4-4.7,9-6.8,13.6
		c-2.2,5-1.5,9.9,0.8,14.7c2.2,4.5,4.8,8.8,6.1,13.8c2.9,11.7-3.6,17.7-12.8,19.6c-18.8,3.9-38,2-57.1,2.1c-4.7,0-9.5-1.1-14.2-1.9
		c-9.2-1.5-16.1-12.6-13.8-21.9c0.5-2,0.9-4.1,1.9-5.8c6.7-11.1,6.9-23,3.6-35c-4.5-16.1-8-32.3-9.7-48.9c-0.8-7.3-1.1-14.7-2-22
		c-3.2-23.6,3.9-45.7,9.2-68.1c3.4-14.2,5.1-28.4,5.8-43.1c0.9-19.3,2.5-38.8,11.8-56.4c4.5-8.6,9.7-17,19.3-21.1
		c10.2-4.3,21-5,31.6-3.5c20,2.9,38.6,10.6,56.3,20.3c8.8,4.8,17,10.9,25.4,16.4c-0.1,3-1.1,5.4-4.4,6.2c-8.5-4.1-16-10-24.6-13.9
		c-12.6-5.7-25.1-11.7-38.3-15.7c-8.6-2.6-17.3-3.8-26.4-3.1c-18.4,1.4-27.1,12.9-32.1,28.8c-3.6,11.4-4.9,23.3-5.4,35.1
		c-0.8,19.3-3.6,38.2-7.1,57c-1.4,7.5-3,15-4.5,22.5c-3.7,18.2-3.6,36.4-2.6,54.8c1.1,20.3,5.6,39.9,10.7,59.4
		c2.5,9.6,0.7,18.7-3,27.6c-1.1,2.6-2.5,4.9-3.6,7.5c-3,7.1-1.3,10.5,6.2,12.7c5.3,1.5,10.9,2.4,16.4,2.6
		c13.8,0.5,27.7,1.1,41.3-1.7c1.3-0.3,2.6-0.5,3.8-0.9c7.4-2.1,9.1-5.7,6-12.8c-0.4-1-0.9-2.1-1.5-3.1c-7.8-12.6-6.1-25.4,0-37.7
		c10.4-21,19.8-42.4,27.8-64.5c1.2-3.2,1.7-5.7-1.5-8.1c-12.8-10-24.1-21.8-36.8-32c-9.2-7.4-19.4-13.1-30.4-17.2
		c-1.9-0.7-5-1-4.9-3.2c0-2.7,3.3-2.5,5.4-3.2c4.4-1.4,8.7-0.2,12.9,1c8.5,2.4,15.9,6.7,22.2,12.8c3.8,3.6,8,6.6,12.1,10.9
		c-1.9-7.7-1.9-14.7-0.3-21.7c0.3-1.5,0.8-2.9,1.3-4.4c0.8-2.1,1.4-4.2,2.1-6.3c4.2-10.7,9.8-20.4,19.3-27.4
		c10.4-7.7,21.6-11.5,34.6-8.1c6.1,1.6,12.2,3.5,18.6,3.3c4.9,0,9.8-0.4,14.6,0.7c2.8,0.5,5.5,1.1,8,2.6c2.1,1.1,4,2.6,5.7,4.3
		c1.9,2,3.9,3.9,5.2,6.5c1.3,2.8,2.9,5.4,3.5,8.4c0.3,0.9,0.5,1.9,0.7,2.9c0.3,2.1,0.3,4.1,0,6.2c-2.1,8.1,0.5,15.4,3.8,22.6
		c2.3,5,4.5,10.1,6,15.4c0.3,2.1,1,4.1,1.1,6.3c0,2.5-0.1,5-2,7c-3.8,1.4-7.8,2.3-11.9,1.9c-0.8-0.8-0.9-1.8-0.6-2.7
		c2.7-8.3-0.6-15.6-3.9-23c-0.6-1.3-1.2-2.7-2-3.9c-4.2-6.5-5-13.2-3.3-20.9c2.3-10.3-4.1-19.2-14.4-21.3c-4.4-0.9-8.9-1.9-13.5-0.7
		c-2.2,0.6-4.5,0-6.7-0.5c-4.6-1.2-9.2-2.1-13.9-2.7c-10.7-1.4-20.2,1.4-27.1,10c-10.1,12.7-14.1,27.3-12,43.4
		c1.9,14.9,12.1,23.5,24.1,30.6c3.2,1.9,6.5,1.7,9.8,0.4c3.4-1.4,7-2.1,10.4-0.1c9.9,5.8,20.5,0.9,26.3-9.2c0.4-0.7,0.7-1.5,1.1-2.2
		c0.9-1.4,0.7-4.3,2.8-4c2.5,0.2,2.5,3.1,3,5.1c0.7,3,0.6,6.2,2.6,8.8c-1.3,4.3-4.8,5.8-8.6,6.8c-6.5,1.6-13.2,1.2-19.8,1
		C588.6,436.7,581.7,437.2,576.1,442.5z"/>
	<path d="M808.7,548.2c-1.9-16-19.9-23.6-32.7-21.2c-8.8,1.6-16.6,5.4-24.8,8.5c-1.2,0.5-2.2,1.2-3.1-0.4c-2.6-4.4-6.6-4.6-10.9-3.3
		c-2,0.6-3.1,0.9-4-2c-4.6-14.9-8.4-29.9-11.6-45.1c-0.9-4.1,2.5-2.9,3.7-3.1c3.7-0.7,6-2.7,7.5-5.9c1.2-2.4,2.6-4.7,3.5-7.2
		c4.5-12.2,6.8-24.3-1.9-35.9c-2.3-4.1-6.5-3.9-10.3-4.2c-4.7-0.4-9.4-0.1-14.1-0.1c-2.1,0-4.3-0.1-6.1-1.4
		c-6.7-4.9-14.2-7.8-22.1-9.7c-0.4-0.2-0.8-0.5-1-0.7c0,0.5-0.1,0.9-0.2,1.4c-3.5-2.2-3.8-5.6-1-8.7c0,0.4,0.1,0.8,0.2,1.2
		c0.3-0.7,0.6-1.4,0.9-2.1c0.1-3.6,2.2-7.2,0.2-10.8c-0.1,0-0.2-0.1-0.3-0.1c0,0,0,0,0,0c-0.8-0.2-1.3,0.2-1.8,0.8
		c-3.4,4.8-8.2,6.2-13.7,7.1c-3.5,0.6-7.4-0.3-10.7,1.3c-0.4,0.2-0.7,0.3-1,0.6c0.3,2,0.7,3.9,1,5.9c0.4,0.3,0.8,0.5,1.3,0.7
		c4.3,1.9,9.1-1,13.4,1.2c-3.4,1.6-6.9,2.2-10.5,2.6c-1.2,0.1-2.5,0.2-3.6,0.7c-0.6,0.3-1.1,0.8-1.5,1.5c-4.1,0-8,0.8-11.9,2
		c0,0-0.1,0-0.2,0c-5.3-1.4-13.1,1.8-17.2,7.1c0,0,0,0,0,0c-2.6,3.2-5.5,5.2-9.9,5.9c-8.5,1.4-17,0.2-25.5,0.8
		c-5.2,0.4-10.4,0.9-12.6,6.9c-2.8,7.1-2.4,14.6-1.7,21.8c0.8,8,2.4,16.3,11.5,19.5c1.7,0.6,1.8,1.8,2.3,3.1
		c4.4,11.7,4.7,24,5.5,36.1c0.9,13.8-1.8,27.3-4.8,40.7c-2.2,9.4,2.1,15.3,11.5,15.4c15.3,0.1,30.6-1.2,45.9-1.9
		c11.1-0.5,22.3,0,33.4,0.7c11.2,0.7,22.4,0.2,33.7,0.2c8,0,16,0.5,23.3-3.6c1.2-0.7,2.1,0.1,3.1,0.5c7.4,2.3,15.1,3.6,22.8,4
		c12.2,0.7,23.8-2.3,34.6-8.3C806.1,565.7,809.9,558.3,808.7,548.2z M744.8,554.6c1-0.1,2.3-0.5,3-1.3c9.4-9,22.2-10,33.5-14.2
		c4.2-1.5,11.4,3.3,13.4,8c1.4,3.3-1.6,10-5.5,12.3c-7.8,4.7-16.6,5.5-25.4,7c-6.3-1.1-12.7-2-19-3.3c-2.9-0.6-3.4-3.4-3.6-5.9
		C741.1,555,742.8,554.7,744.8,554.6z"/>
	<path class="st0" d="M788.7,403.8c-5.7,10-12.8,19-24.8,22.5c-2.6,0.8-4.8-0.8-6.9-0.3c-3.2,0.7-6.3,2.1-9.2,3.5
		c-4.2,2-8.5,3.6-13.3,3.2c-6.2-3.8-13-3-19.8-3c-5.2,0-10.1,0.2-14.8-3.8c-5.3-4.6-12.7-5.6-19.3-8c0.1-0.5,0.2-1,0.2-1.4
		c0.1-2-0.7-4-1-6v0c-0.1-0.4-0.1-0.8-0.2-1.2c0.3-3.9,0.7-7.9,1-11.8c0,0,0,0,0,0c-0.3-0.4-0.5-0.9-0.4-1.4c0-0.1,0-0.2,0-0.3v0
		c0-0.2,0-0.4,0.1-0.6c0.1-0.4,0.2-0.9,0.3-1.3c2.2-8.5,2.6-17.1,0-25.7c-1-5.2-1.5-10.4,0.5-15.5c3.8-9.8,10.9-16.4,20.8-19.5
		c9.5-2.9,18.9-5.6,28.1-9.5c16.1-6.8,30.4-1.6,43.1,8.9c4.7,3.9,9.6,7.8,13.2,13.2c5.2,7.8,7.5,16,8.8,25.2
		C796.7,382.7,794.4,393.7,788.7,403.8z"/>
	<path d="M590,286.2c1.3-2,2.5-4,3.8-6c10.4-6.8,18,0.8,24.5,9.4c3.9,5.1,5.6,11.1,7.7,16.9c2.3,3.5,2.6,7.5,2.4,11.5
		c-0.5,11.5-6.2,15.2-18.3,12.1c-5.4-2.3-10.6-4.9-14.7-9.2c-3.6-3.7-5.6-8.3-6.5-13.3c-0.3-2-0.9-4-1.1-6c-0.1-1.1-0.2-2.2-0.1-3.2
		C587.6,294.2,587,289.8,590,286.2z"/>
	<path d="M634.8,345.8c-1.7-1.4-3.4-2.7-5.1-4.1c-2.1-1.3-3-3.3-3-5.7c0.1-4.9,2.6-8.7,5.7-12.1c1.8-2.1,3.3-4.6,6.2-5.4
		c2.5-1.9,4.9-3.9,7.9-5c7.6-2.8,11.8,2,15.4,7.3c5.9,8.8,7.6,19.9,0.1,26.2c-1.2,1-2.6,1.8-3.9,2.6c-2.3,2.5-5.3,2.3-8.3,2
		c-1.7-0.3-3.4-0.8-5.2-1.1c-1.8-0.5-3.6-1.1-5.4-1.9C637.8,348,636.4,346.7,634.8,345.8z"/>
	<path d="M680.6,368.1c4.5,7.4,4.2,15.1,1.7,22.9c-0.6,1.8,0.2,4-1.5,5.4c-2.2-2-1.2-4.9-1.9-7.3c-0.3-0.9-0.4-1.9-0.5-2.9
		c-1.9-14-9.2-17.8-23.9-17.4c-3.6,0.1-7.2,2.1-10.9,0.3c0-2.3,0-4.6,0-6.9c2-2.7,5-2.2,7.8-2.4c3.3-0.3,6.6-1.9,9.8,0.3
		c6.3,0.6,12.2,2.3,16.9,6.9C678.8,367.8,679.5,368.5,680.6,368.1z"/>
	<path class="st0" d="M638.7,318.5c-1.7,1.9-3.3,3.9-5,5.8c-3.6-0.4-5-3.3-6.6-5.8c0.4-4-0.9-7.9-1.1-11.9
		C630.2,310.5,634.5,314.5,638.7,318.5z"/>
	<path class="st0" d="M661.2,360.2c-3.3,0.3-6.6,0.6-10,1c-1.6-3.3-3-6.7-2-10.5c3-0.1,6-0.1,9-1
		C658.9,353.3,661.5,356.4,661.2,360.2z"/>
	<path class="st1" d="M590,286.2c-0.4,4.2-0.9,8.4-1.3,12.6c-2.3,0.7-4.1-0.8-5.9-1.6c-8.4-3.6-16.7-7.1-25.9-8.2
		c-9.8-1.1-17.4,2.3-22.3,11c-4.8,8.5-6.4,18-7.8,27.5c-1.9,12.7-0.7,25.2,0.8,37.8c0.6,5.1,3.2,9.5,4.5,14.4
		c-0.4,6.5-1.7,13.1,0.1,19.6c0.5,1.7,0.6,3.4,1,5.7c-6.8-5.9-12.9-11.9-19.7-16.9c-10.1-7.5-21.1-12.8-34.3-8.3
		c0.8,2.1,2.8,1.7,4.2,2.3c1.6,0.7,3.4,0.9,5,1.6c11.2,5.4,21.7,11.6,31.2,19.8c11.5,9.9,22,20.9,34.2,29.9c1.9,1.4,1.7,2.5,1,4.5
		c-4.3,12.2-9.1,24.3-14.2,36.2c-5,11.7-11.1,22.8-16.1,34.5c-4.5,10.5-6.3,21.6,0.3,32.3c1.2,1.9,2.2,4,3,6
		c2.8,6.7,0.7,11.5-6.3,13.3c-7.2,1.8-14.5,3.1-21.9,3.1c-13.9,0-27.8,0.8-41.4-2.8c-8.8-2.3-11.1-6.7-7-14.8
		c3.3-6.6,6-13.3,7.2-20.8c0.8-4.9,0.2-9.5-0.9-13.8c-5.1-19.1-9.4-38.2-10.5-58c-0.5-8.6-0.6-17.1-0.7-25.7
		c-0.2-15.4,3.3-30.3,6.1-45.2c3.2-17,6.8-33.9,7.8-51.3c0.9-16.6,1.2-33.6,6.8-49.4c6.4-18.3,12.4-26,31.8-28.8
		c14.1-2,26.8,1.8,39.3,6.7c11.3,4.4,22.6,9.2,33.4,15C577.8,277.9,584.1,281.7,590,286.2z"/>
	<path class="st1" d="M641.5,421.8c-6.6,0.4-12,3.8-17.4,7.1c-2.2,0.1-3.2-0.7-3-3.1c0.3-3.6-0.6-7-2.2-10.2
		c-3.2,9.1-8,16.3-18.2,18.6c-4.3,1-8-0.1-11.6-2c-2.6-1.3-5.2-2.4-7.8-1.1c-7.5,4-13.7,1.5-19.7-3.4c-7.5-6-14.5-12.2-17.3-21.9
		c-4.3-14.7-1.2-28.5,5.4-41.8c5-10,12.5-17.1,23.9-19c8.5-1.4,16.6,1.3,24.7,3c1.9,0.4,4.1,1.1,5.7,0.4c4.8-1.9,9.4-0.4,13.8,0.5
		c12.1,2.5,17.7,11.7,15.2,24c-1.2,6-1.1,11.5,2.4,17c2.7,4.1,4.6,8.8,6.3,13.5C643.8,409.7,644.5,415.7,641.5,421.8z"/>
	<path class="st2" d="M589.7,307.6c1.6,2.9,2,6.2,3.7,9c3.8,6.3,10.4,8.8,16.1,12.4c1.5,4-0.4,7-3.1,9.7c-7.3,0.5-14-2.3-20.9-3.9
		c-7.5-1.7-14.4-0.3-21.2,2.7c-13.7,6-22.4,16.6-27.5,30.4c-0.3,0.8-1,1.5-1.6,2.2c-2.1-2.2-1.5-4.9-1.3-7.4
		c1.4-16.9,4.7-33.3,12.5-48.7c5.4-10.7,18.4-18.1,31.5-11.8C581.8,304.1,586.5,304.1,589.7,307.6z"/>
	<path class="st3" d="M643.6,369.2c7-0.9,13.8-2.8,21.2-1.1c10.5,2.5,12.6,7.2,14.8,16.5c0.9,3.8,0.8,7.9,1.2,11.9
		c-0.1,0.3-0.1,0.7-0.2,1c-2.6,6.1-7.8,8-13.9,8.9c-4.5,0.7-8.9,1-13.4,0.9c-2.5-9.4-8.4-17.5-10.2-27.2
		C642.4,376.3,641.9,372.7,643.6,369.2z"/>
	<path class="st4" d="M589.7,307.6c-4.3-1.5-8.6-2.7-12.8-4.6c-12.1-5.3-24.2,1.3-29,11c-6.6,13.4-10.6,27.3-11.9,42.1
		c-0.4,4.7-0.8,9.3-0.7,14c-0.1,2.1-0.6,4.1-1.9,5.9c-2.7-1.9-3.2-4.9-3.7-7.7c-4.6-21.9-2.4-43.3,5-64.2c1.3-3.7,3.4-7,6.4-9.6
		c4.8-4.3,10-6.7,16.9-5.1c9.4,2.1,18.5,4.9,27.1,9.4c1.5,0.8,2.8,1.6,3.8,3C589,303.7,590.5,305.5,589.7,307.6z"/>
	<path class="st2" d="M588.7,301.7c-8.8-3.8-17.3-7.9-26.7-10.1c-13.4-3.1-22.2,1.5-26.8,14.5c-3.7,10.3-4.8,21-6.1,31.8
		c-1.6,13.2,0.3,25.7,4.2,38.2c0.1,1.4-0.2,2.7-1.2,3.8c-3.7-3.1-4.8-7.8-5.5-12c-3.4-20.2-3.2-40.5,3-60.2c2.8-9,7.9-17,18.1-19.9
		c6.7-1.9,13.2,0.2,19.4,1.9c7.5,2.1,14.9,5.1,21.7,9.2C588.7,299.8,588.7,300.8,588.7,301.7z"/>
	<path class="st1" d="M606.4,338.7c0.9-3.3,2.9-6.2,3.1-9.7c2.3,0.3,4.7,0.9,7,1c7.2,0.2,10.2-3.3,10.5-11.6
		c2.2,1.9,4.4,3.9,6.6,5.8c-3,3.4-5.6,6.9-5.9,11.6c-1.4,1.9-3.6,2.7-5.6,3.7C617,338.2,611.6,339.2,606.4,338.7z"/>
	<path class="st3" d="M654.3,413.1c4.1-0.3,8.3,0.4,12.4-0.9c3.7-1.2,4.7,1.3,4.3,4.6c-5.6,1-11.6,2-17.7,3
		C654,417.6,654.6,415.4,654.3,413.1z"/>
	<path class="st1" d="M649.3,350.7c0.9,3.5,2.5,6.8,2,10.5c-2.6,0.1-5.2,0-7.7,1c-0.3-0.7-0.6-1.3-0.8-2c1-3.4-0.7-7.3,1.8-10.5
		C646.2,349.5,647.9,349.4,649.3,350.7z"/>
	<path class="st2" d="M644.5,349.8c0.1,3.6,0.1,7.2-1.8,10.5c0.1-3.3-2.7-5.5-3.1-8.6c-0.5-1.3-1-2.6,0.1-3.8
		C641.3,348.5,642.9,349.1,644.5,349.8z"/>
	<path class="st2" d="M622.1,339.7c1.2-2.2,3.2-3.4,5.6-3.7c-0.1,2.2,1.3,3.9,2,5.8C627.1,341.6,625,339.1,622.1,339.7z"/>
	<path class="st4" d="M639.7,347.8c0,1.3-0.1,2.6-0.1,3.8c-1.6-1.9-3.2-3.9-4.7-5.8C636.8,345.6,638.1,347.1,639.7,347.8z"/>
	<path class="st5" d="M711,484.3c3.5,14,7.1,27.9,10.6,41.9c0.2,0.8,0.4,1.6,0.6,2.3c2.1,6.8,1.6,7.7-5.7,7.6
		c-12.3-0.1-24.5-0.7-36.8-1.1c-10.5-0.2-21.1-0.1-31.6,0.3c-11,0.5-22,0.8-33,2.1c-6.7,0.8-9.7-2.8-8.8-9.4
		c0.7-5.2,1.7-10.3,3.5-15.2c4.5-12.5,14.1-19.2,26.5-22.2c13.9-3.3,28-5.4,42.4-5.9c8.1-0.3,16.2-0.5,24.3-1.5
		C705.8,482.9,708.6,482.5,711,484.3z"/>
	<path class="st5" d="M605.5,444.5c22.2-1.9,44.6-1.5,66.8-2.3c14.6-0.6,29.1-0.4,43.7-0.7c10.1-0.2,12.7,2.2,10.8,12.9
		c-0.9,4.8-2.1,9.2-4.1,13.7c-1.4,3.3-3.7,4.5-6.8,3.7c-6.4-1.8-13.2,0.2-19.6-2c-13.8-2-27.8-1.7-41.6-3.4c-16.1-1.9-32,0.9-48,1.8
		c-4.3,0.3-8.4,0.2-12.3-1.9c-4.4-2.4-6.5-6.6-5.8-11.3c0.7-4.8,3.9-8.2,8.7-9.4C600.1,444.7,602.9,445.2,605.5,444.5z"/>
	<path class="st6" d="M711,484.3c-16.8,1-33.6,1.4-50.3,3.3c-10.5,1.2-21.1,2.9-31.1,6.7c-13.6,5.2-18.9,16.3-21.3,29.5
		c-0.2,1-0.1,2-0.3,2.9c-1.7,8,0.3,10.3,8.7,9.4c13.5-1.4,27.1-2,40.7-1.9c5.9,0,11.7,0,17.6,0c1.6,0,3.3-0.5,4.6,0.8
		c-16,0.7-32,1.2-47.9,2.2c-9.1,0.5-18.2,1.8-27.3,2.7c-1.6,0.2-3,0.1-2.7-2.2c2.1-13.9,0-27.7-2.6-41.3
		c-2.2-11.5-2.5-11.2,8.6-13.2c14-2.4,28-3.9,42.1-5c16.7-1.3,33.1,0.3,49.6,2c3,0.3,6.1,0.7,9.1,1C710.7,481.6,711,482.7,711,484.3
		z"/>
	<path class="st5" d="M696.4,550.7c3.7,0,7.5,0.4,11.2,0c7.1-0.6,13.7,1.3,20.4,3c2.8,0.7,3.5,3,3.4,5.1c-0.2,3.3-0.6,6.9-4.4,8.3
		c-5,1.8-10.4,1.8-15.7,2c-11.5,0.4-23.2,0.9-34.6-0.1c-14.6-1.2-29.2-0.2-43.8-0.9c-0.5-0.2-0.9-0.4-1.4-0.3
		c-2.7,0-5.5,0.1-6.1-3.3c-0.6-3.2,1.4-5.2,3.9-6.6c3.7-2.1,8-2.7,12.1-3.4c17.3-2.9,34.7-3.6,52.2-4.3
		C694.5,550.3,695.5,550.2,696.4,550.7z"/>
	<path class="st7" d="M789.2,559.5c-7.8,4.7-16.6,5.5-25.4,7c-6.3-1.1-12.7-2-19-3.3c-2.9-0.6-3.4-3.4-3.6-5.9
		c-0.2-2.5,1.6-2.7,3.6-2.8c1-0.1,2.3-0.5,3-1.3c9.4-9,22.2-10,33.5-14.2c4.2-1.5,11.4,3.3,13.4,8
		C796.1,550.5,793.1,557.2,789.2,559.5z"/>
	<path class="st5" d="M633.8,540.2c27.2-1.4,54.4-3.4,81.8-1.1c-1.1,4.7-1.1,4.7,0.7,9.8c-7.6-0.4-15.1-0.5-22.5-1.3
		c-7.6-0.8-15.1-1.1-22.6,0.1c-4.8,0.7-9.6,0.5-14.4,1c-12.2,1.2-24.4,1.6-36.7,2.3c-5.7,0.7-9-0.6-9.3-3.6
		c-0.3-2.7,2.5-4.6,8.1-5.3C623.9,541.4,628.9,540.5,633.8,540.2z"/>
	<path class="st6" d="M605.5,444.5c-2,1.7-4.6,0.9-6.9,1.6c-7.8,2.2-9.2,7.7-8.7,12.1c0.5,4.6,5.5,8.6,11.5,8.6
		c6.6,0,13.2-0.6,19.8-1.1c9.9-0.6,19.7-2.3,29.8-1.1c8.8,1,17.6,1.5,26.4,2.4c6.3,0.6,12.9,0.2,18.9,2.7c-5.7,1-11.3-0.8-16.9-0.9
		c-18-0.3-35.9,0.8-53.8,2.2c-10.5,0.8-21,2.8-31.5,4.6c-6.2,1-10.5-2.8-11.1-10.2c-0.4-4.7,0.5-9.4,1.2-14c0.5-3.1,2.8-5.3,5.9-5.8
		C595.2,444.6,600.3,443.8,605.5,444.5z"/>
	<path class="st8" d="M803.7,546.8c4.6,7.2-1.1,16.9-7.8,20.6c-13.2,7.4-27.1,8.9-41.7,6.5c-2.4-0.4-4.8,0-7.2-0.6
		c-4.2-1.1-6.6-2.7-4.4-7.4c7.3,1.8,14.8,3.6,22.4,3.4c10.9-0.3,21-3.2,29.8-10.1c5.1-4,4.5-14.8-1.3-18.9
		c-5.7-4.1-11.7-5.2-18.4-2.6c-7.8,3-15.9,5.5-23.7,8.5c-2.2,0.9-3.3,0.3-4.6-1.2c-1.8-2.1,0.5-3.1,1.5-3.8
		c4.6-3.2,9.8-5.2,15.3-6.2c-1.1,4.3-5.4,2.9-8.1,4.8c6.6-2.3,13.1-4.9,20-5.6c6-0.7,12.1-1,17.5,2.2c7.8,4.5,10.2,11.7,7.9,21.1
		C803.5,554.9,801.2,550.2,803.7,546.8z"/>
	<path class="st9" d="M696.4,550.7c-20.8,1.4-41.8,2.1-62.2,6.9c-1.2,0.3-2.5,0.7-3.7,1.2c-2.4,0.9-4.5,2.6-4.3,5.2
		c0.2,3.1,2.9,3.4,5.5,3.5c0.4,0,0.8,0.5,1.2,0.7c-9.2,0.7-18.3,1.6-27.5,2c-7.4,0.3-8.4-1.1-6.7-8.1c1.6-6.7,2.1-7.2,11-7.5
		c15.2-0.4,30.2-2.6,45.4-3.2c12.6-0.5,25.1-1.8,37.7-1.7C694,549.8,695.4,549.5,696.4,550.7z"/>
	<path class="st3" d="M696.8,430.5c-23.5-0.1-45.7,4.6-68.3,4C635.2,424.6,683.2,421.4,696.8,430.5z"/>
	<path class="st10" d="M803.7,546.8c0.2,5.7,0.3,11.4-5.8,15.6c0.7-2.4,1.1-4.3,1.9-6.1c4.1-9.5-4.9-21.3-16.4-21.2
		c-7,0-13.7,1.3-20.4,3.3c-3,0.9-6.1,1.8-9.9,3c3.1-3.9,7.8-3.4,10.5-6.3c5-2.4,10.4-3.3,15.7-4.5
		C789.9,528.3,802.3,536.6,803.7,546.8z"/>
	<path class="st11" d="M739.1,536.1c4,0,5.7,2.2,4.2,5.3c-1.1,2.3-1.2,4.3,0.3,6.3c2.2,2.7,0.2,3.3-1.7,2.9
		c-6.3-1.2-12.7-1.8-18.8-4.1c-1.4-0.5-3.3-1-3.3-3.1c0-1.8,1.5-2.7,3-3.5C728.1,537.4,734.2,538,739.1,536.1z"/>
	<path class="st6" d="M633.8,540.2c-5.7,1.7-11.7,1.6-17.4,3.5c-2,0.7-4.8,0.7-4.7,3.2c0.1,2.5,2.8,3.3,5,3.8
		c1.1,0.3,2.3,0.1,3.4,0.2c-3.3,1.8-6.9,0.4-10.4,0.8c-0.8,0.1-1.6,0-2.4,0c-2.1,0.2-5,2.4-6.2,0.1c-1-1.9,0.1-4.9,0.5-7.4
		c0.4-2.5,3.1-2,4.4-2.1C615.3,542,624.5,539.7,633.8,540.2z"/>
	<path class="st7" d="M680.6,417.9c-3.5-2.2-3.8-5.6-1-8.7c-0.7,1.6-0.8,3.1-0.5,4.5v0c0,0.3,0.1,0.6,0.2,0.9c0,0,0,0,0,0
		C679.7,415.8,680.2,416.8,680.6,417.9z"/>
	<path class="st7" d="M680.8,416.5c-0.7-0.6-1.1-1.2-1.4-1.8c0,0,0,0,0,0c-0.1-0.3-0.2-0.6-0.2-0.9v0c-0.1-1.1,0.2-2.2,0.6-3.3
		C680.1,412.5,680.9,414.5,680.8,416.5z"/>
	<path class="st2" d="M679.2,413.8c0.1,0.3,0.1,0.6,0.2,0.9C679.3,414.4,679.2,414.1,679.2,413.8z"/>
	<path class="st7" d="M679.8,410.5c-0.5,1.1-0.8,2.2-0.6,3.3c-0.3-1.5-0.3-3,0.5-4.5C679.7,409.6,679.7,410,679.8,410.5L679.8,410.5
		z"/>
	<path class="st7" d="M680.8,416.5c0,0.5-0.1,0.9-0.2,1.4c-0.4-1.1-0.9-2.1-1.2-3.2C679.7,415.3,680.1,415.9,680.8,416.5z"/>
	<path class="st1" d="M715.4,409.6c-1.4,3.6-2,6.8-0.6,10.3c0.9,2.2,0.1,3.3-2.3,4c-15.2,4.5-25.3-9.1-22.2-21.9
		c1.1-4.5,1.5-9.3,3.2-13.5c2.7-6.7,0.8-12.4-1.7-18.5c-1.7-4.1-3-8.2-1.8-13c2-7.5,7-11.5,13.9-13.2c11-2.8,21.7-6.5,32-11.5
		c9.9-4.9,18.7-0.4,26.7,4.5c10.7,6.7,17.7,16.8,21.4,28.9c4.6,15,0.8,28.3-8.2,40.8c-5.1,7.1-11.4,10.8-20.3,10.8
		c-3.8,0-7.2,2.6-10.6,4.3c-9.8,4.9-23,0.6-28.2-9.2C716.4,411.4,715.9,410.6,715.4,409.6z"/>
	<path class="st12" d="M614.9,293.5c6.2,6.7,8.7,14.7,8,23.6c-0.2,2.9-3,3.6-5.6,3.1c-3.7-0.7-6.7-4.8-5.7-8.2
		C613.3,306,614.4,299.9,614.9,293.5z"/>
	<path class="st12" d="M659.1,322.7c2.4,3.5,3.2,6.7,3.8,9.7c1.4,6.5-4.2,12.2-10.8,11.4c-3.2-0.4-5.2-4.1-3-5.8
		C654.2,334.1,657.6,329.5,659.1,322.7z"/>
	<path class="st2" d="M710.4,496.7c1.8,11.5,4.7,22.7,8.9,33.6c0.5,1.4,0.7,2.5-0.5,3.4c-1.2,1-2.2,0.1-3.5-0.3
		c-3.5-1.1-3.8-4.1-4.3-6.8C709.1,516.7,710.2,506.7,710.4,496.7z"/>
	<path class="st2" d="M720.9,460.8c-8.7-10.8-20.9-12.1-33.6-12.5c-15.4-0.5-30.8-1.4-46.2-2.5c10,0.3,19.8-1.9,29.7-1.4
		c15.1,0.7,30.1-1.5,45.1-1c4.7,0.1,8.1,3.8,7.6,8.4c0,0.3,0,0.7-0.2,0.9C721.9,455,723.3,458.3,720.9,460.8z"/>
	<path class="st2" d="M670.5,540.3c13.4,0.1,26.9-1.6,40.1,2.6C697.2,541.6,683.8,541.9,670.5,540.3z"/>
</g>
</svg>
