<?xml version="1.0" encoding="utf-8"?>
<!-- Generator: Adobe Illustrator 23.0.1, SVG Export Plug-In . SVG Version: 6.00 Build 0)  -->
<svg version="1.1" id="Layer_4" xmlns="http://www.w3.org/2000/svg" xmlns:xlink="http://www.w3.org/1999/xlink" x="0px" y="0px"
	 viewBox="0 0 1000 1000" style="enable-background:new 0 0 1000 1000;" xml:space="preserve">
<style type="text/css">
	.st0{fill:#6E3720;}
	.st1{fill:#FB9A7A;}
	.st2{fill:#FEFEFE;}
	.st3{fill:#CBB89A;}
	.st4{fill:#C0FEFE;}
	.st5{fill:#E00000;}
	.st6{fill:#7F0000;}
	.st7{fill:none;}
	.st8{fill:#7898AB;}
	.st9{fill:#800000;}
	.st10{fill:#B0F3F2;}
	.st11{fill:#2B5260;}
	.st12{fill:#808080;}
	.st13{fill:#FEFEFD;}
</style>
<g>
	<path class="st0" d="M574.1,453.2c-6.6-3.1-8.5,2.4-10.4,6.3c-7.9,17-18.4,32.5-27,49c-3.3,6.4-4.2,13.5-5.4,20.5
		c-0.6,3.3,1.1,6.1,2.4,9.1c1.6,3.7,3.7,7.2,4.8,11.3c2.8,11.6-3.5,17.7-12.8,19.6c-18.8,3.9-38,2-57.1,2.1c-4.7,0-9.5-1.1-14.2-1.9
		c-9.2-1.6-16-12.6-13.8-22c0.8-3.4,2.2-6.6,3.8-9.6c4.3-8.5,5.3-17.5,2.5-26.4c-4.5-14.2-7.6-28.7-11.1-43c-0.8-3.4-0.8-7.1-1-10.5
		c-0.4-9.4-1.8-18.7-1.2-28.1c1.3-20.1,4.5-39.6,14.1-57.7c7.2-13.6,11.2-28.3,13.4-43.7c2.6-18.8,4.8-37.8,12.7-55.3
		c5.6-12.5,12.7-23.9,27.1-28.2c10.7-3.1,21.3-1.1,31.6,1.6c16.6,4.4,32,11.8,46.4,21.3c11.2,7.3,21.8,15.4,31.6,24.4
		c0,3-1.5,4.7-4.4,5.5c-4.6-1.3-7.5-5-11-7.9c-12.7-10.6-27.1-18.5-42-25.5c-9.9-4.6-19.8-9.1-30.8-10.3
		c-13.1-1.5-23.7,2.2-31.2,13.5c-3,4.5-5.6,9.2-7,14.4c-4.3,16.2-8.5,32.4-10.2,49.1c-1.2,11.6-5.5,22.4-9.5,33.2
		c-4.7,12.7-10.1,25.1-13.8,38.1c-4,14.1-5.1,28.6-4.4,43.4c1.1,22.6,6.4,44.3,12.7,65.9c2.8,9.7,0.8,19-3.1,28
		c-1.2,2.8-2.9,5.5-4,8.4c-2.2,5.7-0.6,8.9,5.1,11c5.7,2,11.8,2.8,17.7,3.1c14.1,0.6,28.3,1.2,42.3-1.9c1.3-0.3,2.5-0.5,3.8-0.9
		c6.6-2.1,8.8-5.8,5.6-11.8c-7.7-14.1-5.1-27.9-0.2-42c6.6-18.9,17.5-35.6,26-53.5c1.9-4,2.1-6.4-1.5-9.5
		c-8.6-7.3-14.4-16.4-18-27.3c-2.5-7.6-9.2-12.8-15.2-18c-7.6-6.5-16.7-10.7-25-16c-0.8-0.5-1.7-0.9-2.5-1.5
		c-1.2-0.8-2.8-1.6-2.2-3.3c0.5-1.4,2.1-1.4,3.4-1.4c9.3-0.5,17.7,2.3,25.3,7.4c4.6,3.1,9,6.4,12.3,11c0.6,0.9,1.3,1.8,2.8,2.4
		c1.1-6.8,3.3-13,5.9-19.1c1.1-2.2,2.1-4.4,3.3-6.5c2.6-3.5,4.7-7.3,7.4-10.8c8.3-8.2,17.6-14.4,29.6-15.4c3-0.2,5.9-0.5,8.7,0.4
		c10.7,3.2,21.6,4.8,32.7,4.2c5.4,0.8,10.8,1.6,15.2,5.2c5.9,4.9,9.6,11.2,11.4,18.6c0.2,0.5,0.2,1,0.3,1.5c0.2,2.1,0.2,4.1-0.1,6.2
		c-2.1,8.3,0.7,15.7,4.1,23c2.3,5,4.9,9.9,5.5,15.5c-2.4,4.3-6.5,3-10.2,3.2c-1.7-0.7-2.4-2.2-2.8-3.8c-1.6-6.5-4.8-12.4-7.9-18.3
		c-2.3-4.2-3.1-8.4-1.9-13.1c1.5-5.7,1.4-11.2-1.6-16.6c-2.4-4.2-5.6-7.2-10.3-8.2c-5.1-1.1-10.1-2.4-15.4-1.2
		c-2.2,0.5-4.5,0-6.8-0.5c-4.7-1.2-9.5-2.2-14.4-2.7c-10.4-1.2-19.6,1.4-26.3,9.7c-10.2,12.6-14.4,27.2-12.4,43.3
		c1.8,15.3,12.1,24.2,24.6,31.2c2,1.1,4.4,1.3,5.9,3.2C576.4,447.7,576.1,450.6,574.1,453.2z"/>
	<path d="M808.6,548.1c-2.1-16.3-20-23.3-32.4-21.2c-8.8,1.5-16.7,5.4-24.8,8.5c-1.7,0.7-2.5,1.2-3.7-0.9c-2.1-3.6-6.2-4.4-9.3-3.1
		c-4.4,1.8-5-0.2-6-3.5c-3.8-13.5-7.4-26.9-10.3-40.6c-0.8-3.7-0.8-5.7,3.4-5.9c2.6-0.1,4.8-1.4,6-3.5c6.3-10.6,10.8-21.8,8-34.5
		c1.7-3.5-0.5-6-2.1-8.7c-0.1-0.1-0.1-0.2-0.2-0.3c-0.1-0.1-0.2-0.3-0.2-0.4c-3.7-4.7-9-5.4-14.5-5.7c-0.3,0-0.5,0-0.8,0h-1.2
		c-1.5,0-2.9,0-4.4,0h0c-0.3,0-0.7,0-1,0c-3.8,0-7.8,1.1-11.3-1.5c-3.8-2.8-8.1-4.7-12.3-6.8c0,0-0.1,0-0.1,0
		c-0.2-0.1-0.4-0.2-0.7-0.2c-1.4-0.5-2.8-1-4.3-1.2c-3.3-0.6-4.8-2.1-4-5.7c0.4-1.7,0.7-3.5-0.8-4.8l-0.1-0.1h0
		c-0.7,0-1.3,0.3-1.6,0.9c-3.2,4.6-7.9,6.2-13.2,7.1c-3.8,0.7-7.9-0.3-11.6,1.5c-0.3,0.1-0.5,0.3-0.7,0.4c-2.5,3.7-6.7,1.6-9.9,2.9
		c-0.3,0-0.5-0.1-0.8-0.1c-6.7-0.8-12.2,2.3-17.7,5.7c-1.3,0.8-2.6,3.1-4.4,0.8c-1.9-2.4-3-1.1-3.7,0.9c-1.5,5-5.3,6.1-9.8,6.2
		c-4.5,0.1-9.1,0-13.6,0c-4.2,0-8.4-0.1-12.5,1.3c-4.5,1.6-6.2,3.8-6.5,8.6c0,0.1,0,0.3,0,0.4c-0.5,2.9-1.4,5.7-1.2,8.7c0,0,0,0,0,0
		c0,3.4-0.3,6.9,0.2,10.2c1.2,8.3,2.3,16.9,11.7,20.5c1.4,0.5,1.5,1.5,2,2.7c4.5,11.6,4.8,23.9,5.6,36c1,13.9-1.7,27.6-4.9,41.2
		c-2.2,9.3,2.3,15.2,11.7,15.3c16.3,0.2,32.5-1.5,48.8-1.9c20.4-0.5,40.8,1.6,61.3,0.9c8.9-0.3,18,0.9,26.3-3.7
		c1.2-0.6,2.1,0.3,3.1,0.6c7.4,2.1,15.1,3.5,22.8,3.9c12.1,0.7,23.5-2.3,34.2-8.1C806.2,565.9,810,558.5,808.6,548.1z M745,554.6
		c1,0,2.2-0.6,3-1.3c9.4-8.9,22.1-10,33.6-14c4.2-1.5,11.5,3.5,13.2,8.2c1.3,3.4-1.8,9.7-5.7,12.2c-7.6,4.8-16.3,5.3-25.1,7
		c-6.3-1.1-12.8-2.1-19.3-3.4c-2.8-0.6-3-3.3-3.4-5.5C740.9,555,742.8,554.7,745,554.6z"/>
	<path class="st0" d="M691.3,421c-3.4-0.8-7.6-0.7-9.8-2.8c-2.7-2.4,1-6.6,0.2-10c-0.3-0.4-0.5-0.9-0.5-1.4c0-0.3,0-0.7,0.1-1
		c2.5-9,3.1-18,0.3-27c-1-5.2-1.5-10.4,0.5-15.5c3.8-9.8,10.9-16.4,20.8-19.5c9.5-2.9,18.9-5.6,28.1-9.5c16.1-6.8,30.4-1.6,43.1,8.8
		c5,4.1,9.9,8.3,13.6,14c4.2,6.4,6.7,13.2,8,20.5c2.3,12.9,0.5,25.5-6.1,36.8c-5.8,9.9-12.8,19-24.9,22.5c-4,1.2-7.7-1.1-11.9,1.2
		c-4.1,2.2-8.5,5.1-13.6,5.3c0.1-3.3-2.1-5.8-3.1-8.7c8.3-2.5,15.4-8.1,24.5-8.5c8-0.4,12.6-6.1,16.8-12.1
		c20.2-28.9-0.7-63.8-26.7-70.9c-4.6-1.3-9-0.9-13.3,1.1c-10.2,4.6-20.7,8.4-31.6,11.3c-13,3.4-17,12.9-11.7,25.2
		c2.7,6.3,3.7,12.5,1.5,19.4C693.7,406.9,692.1,413.9,691.3,421z"/>
	<path d="M606.4,296.9c1.3-1.6,2.7-3.3,4-4.9c12.8-4.9,17.9,3.1,24.4,13c3.3,5,4.1,10.7,5.8,16.2c2.2,3.5,1.3,7.4,1.5,11.1
		c-0.2,1.9-0.1,3.9-0.7,5.8c-1.6,5.7-6.5,8.7-12.3,7.3c-2.4-0.6-4.6-1.4-6.8-2.4c-5.6-3-10.6-6.7-14.3-12c-3-4.2-4.7-8.8-5.3-13.8
		c-0.3-1.5-0.4-3.1-0.4-4.6c0-1.3,0-2.6,0.3-3.9C603.6,304.6,602.8,300,606.4,296.9z"/>
	<path d="M653.3,335.1c9.6-5.6,14.6-5.8,19.7,0.7c5.2,6.5,8.4,13.9,5.7,22.7c-1.5,4.8-4.9,7.4-9,9.5c-2.7,2.2-5.5,1-8.3,0.4
		c-1.7-0.3-3.3-0.9-4.9-1.5c-1.5-0.7-2.9-1.4-4.4-2.1c-2-1.1-4.2-2-6.1-3.2c-3.7-2.8-5.7-6.5-6.4-11c-0.2-4.7,3.2-7.3,6-10.3
		C648.1,338.5,649.7,335.3,653.3,335.1z"/>
	<path d="M681.6,378.8c4.5,7.4,4.2,15.1,1.7,22.9c-0.6,1.8,0.2,4-1.5,5.4c-2.2-2-1.2-4.9-1.9-7.3c-0.3-0.9-0.4-1.9-0.5-2.9
		c-1.9-14-9.2-17.8-23.9-17.4c-3.6,0.1-7.2,2.1-10.9,0.3c0-2.3,0-4.6,0-6.9c1.7-2.2,4.1-2.2,6.5-2.2c1.6,0,3.1-0.3,4.6-0.6
		c2.1-0.4,4.3-0.4,6.4-0.3c2.9,0.5,6,0.3,8.6,2.3C674.6,373.9,677.2,377.7,681.6,378.8z"/>
	<path class="st0" d="M653.3,335.1c-2.2,1.9-4.5,3.8-6.7,5.8c-3.5-1.5-4.7-4.6-5.9-7.8c0-4-0.1-8-0.1-11.9
		C644.9,325.8,649.1,330.5,653.3,335.1z"/>
	<path class="st0" d="M670.7,372.1c-3,0.4-5.8-0.8-8.7-1.1c-1-1.1-2-2.1-1-3.7c2.9,0.7,5.8,1.1,8.7,0.8
		C670.6,369.3,671.3,370.6,670.7,372.1z"/>
	<path class="st1" d="M606.4,296.9c-1,3.9-2,7.8-3.1,11.7c-2.6,0.6-4.2-1.2-6.2-2.3c-8.3-4.7-16.7-9.4-26.3-11.3
		c-10-2.1-17.7,1.3-22.4,10.3c-6,11.6-8.5,24.1-10.2,36.9c-1.2,9.6-1.3,19.1,0.5,28.6c0.3,1.8,0,3.5-0.7,5.2
		c-2,7.6-5.6,14.8-6.1,23.9c-11.3-15.5-24.8-25.1-45.4-23.7c8.9,5.3,16.6,9.9,24.4,14.5c8.9,5.3,15.3,13.3,21.9,21.1
		c1.1,1.3,1.3,3.6,1.8,5.4c3,11.3,10.8,19.3,19.2,26.6c2.2,1.9,2.1,2.7,1,4.8c-7.5,14.4-15,28.8-22.1,43.4
		c-4.9,10.1-8.6,20.7-10.2,31.9c-1.1,7.5,0.9,14.6,4.4,21.4c4.5,8.7,2.4,13-7.3,15.3c-16.1,3.8-32.3,3.5-48.6,2
		c-4.3-0.4-8.6-1.1-12.8-2.1c-8.8-2.1-11.1-6.6-7.1-14.8c3.3-6.6,6-13.3,7.2-20.8c0.8-4.9,0.4-9.6-0.9-13.8
		c-5.2-15.9-8.8-32.1-11.2-48.5c-2.1-14.3-2.2-28.7-0.6-43.3c2-18.2,9.8-34.4,15.7-51.3c4.2-11.8,9.4-23.3,10.9-35.7
		c1.6-13.1,4-25.9,7.1-38.7c2.5-10.1,5.3-19.9,11.4-28.8c7.1-10.3,21.3-14.2,31.9-12.5c22.6,3.8,41.5,15.6,60.7,26.8
		C591.9,284.2,598.3,291.6,606.4,296.9z"/>
	<path class="st1" d="M644.4,420.8c-8.4,1.8-16.6,4-22.8,10.9c-1.3-1.6-0.3-3.8-2.1-4.7c-1,6.5-3.3,8.5-10.5,8.6
		c-6.5,0.1-13,0-19.5,0c-6.6,0-12.1,1.7-14.2,8.9c-4.6-1.1-8.5-3.1-12.5-5.8c-11.4-7.8-19.2-18.2-19.5-32
		c-0.4-17.4,4.1-33.8,18.2-45.4c6.5-5.4,15-7.1,23.7-5.3c6.3,1.3,12.6,3.2,18.9,3c4.3-0.1,8.5-0.2,12.8,0.3
		c12.5,1.4,19.9,11.8,17.2,24c-1.3,5.9-1.5,11.5,2.1,17.1C640.1,406.6,642.7,413.6,644.4,420.8z"/>
	<path class="st2" d="M603.6,317.4c1,6,3.8,10.9,7.5,15.8c3.1,4,7.6,5.5,11,8.6c0.6,3.2-0.8,5.7-3.1,7.7
		c-11.3,1.2-22.3-0.9-33.1-3.8c-7.2-2-13.8-0.1-20.3,2.3c-7,2.6-12.2,7.8-17.8,12.5c-1.8-1.8-1.1-3.9-0.7-6
		c2.6-11.8,6.5-23.1,12.6-33.6c5.5-9.6,14.7-14,25.5-11.8C592.1,310.4,598.7,312.2,603.6,317.4z"/>
	<path class="st3" d="M644.6,379.9c7-0.9,13.8-2.8,21.2-1.1c10.5,2.5,12.6,7.2,14.8,16.5c0.9,3.8,0.8,7.9,1.2,11.9
		c-0.1,0.3-0.1,0.7-0.2,1c-2.6,6.1-7.8,8-13.9,8.9c-4.5,0.7-8.9,1-13.4,0.9c-2.5-9.4-8.4-17.5-10.2-27.2
		C643.4,387.1,642.9,383.5,644.6,379.9z"/>
	<path class="st4" d="M603.6,317.4c-6.2-2.7-12-6.1-18.9-7.2c-9.4-1.5-18.1,1.5-23,9.7c-7,11.6-11.2,24.3-13.9,37.6
		c-0.2,0.9,0,1.9,0,2.9c-2.1,3.4-3.9,7-6.8,9.8c-2.4-0.1-2.2-2.1-2.3-3.6c-0.5-20,1-39.6,10.4-57.8c5.9-11.5,13.5-14.9,26.1-11.9
		c9.3,2.3,17.4,6.9,25.3,12.3c1.2,0.8,2.2,1.9,2.8,3.3C603.5,314.1,603.5,315.7,603.6,317.4z"/>
	<path class="st2" d="M603.4,312.5c-6.5-4-12.6-8.6-19.8-11.3c-6.6-2.5-13.2-5.8-20.6-3.5c-9.2,2.8-12.7,10.7-15.8,18.5
		c-6.6,16.7-7.6,34.3-7.1,52c0,0.7,0.6,1.4,1,2.1c-0.4,2.2-1.5,4.1-2.9,5.8c-0.6-7.7-2.6-15.3-2-23.1c1.2-17.1,3.8-33.8,11.7-49.3
		c4.5-8.8,14.1-11.8,22-10.3c10.9,2,20.5,7.3,29.9,13c1.2,0.8,2.4,1.5,3.7,2.3C603.4,309.9,603.4,311.2,603.4,312.5z"/>
	<path class="st1" d="M619.1,349.5c1-2.6,2.1-5.1,3.1-7.7c2.8,1,5.6,2.2,8.5,2.9c5.5,1.3,9.7-3.6,10.1-11.5c2,2.6,3.9,5.2,5.9,7.8
		c-2.2,3.1-6.2,5.1-6.2,9.7c-1.9,2-4.2,3.2-6.8,3.9C629.3,351.4,624.1,350.6,619.1,349.5z"/>
	<path class="st2" d="M633.7,354.5c1.6-2.4,4.2-3.2,6.8-3.9c0.8,4.2,3.1,7.7,6.1,10.6c1.8,4.1,0.4,7.6-2.1,10.9
		C642.3,365.4,639,359.3,633.7,354.5z"/>
	<path class="st4" d="M644.5,372.1c0.7-3.6,1.4-7.3,2.1-10.9c2.2,0.4,4.1,1.5,5.8,2.9c1.8,2.9,1.1,5.4-1,7.7
		c-2.3,0.2-4.6,0.1-6.8,1.1C644.6,372.7,644.5,372.4,644.5,372.1z"/>
	<path class="st1" d="M691.3,421c-2-3.5-0.3-7,0.4-10.3c1.3-5.6,3.2-11.1,4.3-16.7c0.8-4.7-1.2-9.1-3.2-13.3
		c-4.9-10.4-1.1-20.9,8.8-24.9c3-1.2,6-2.5,9.1-3c8.2-1.3,15.9-4.4,22.9-8.3c11.2-6.2,21-2.8,30.2,3c10.9,6.9,17.9,17.3,21.6,29.9
		c4.2,14.6,0.3,27.4-8.2,39.4c-5.1,7.3-11.5,11.2-20.6,11.1c-3.6,0-7,2.3-10.2,4.1c-3.2,1.8-6.4,2.9-10.1,2.7
		c-3.6-4-8.4-4.9-13.5-5.1c-3.3-1.2-5-3.8-6.2-6.9c-0.6,2.3,0,4.7-0.9,6.9C705.6,432.1,699.1,424.8,691.3,421z"/>
	<path class="st5" d="M711,484.3c3.5,14,7.1,27.9,10.6,41.9c0.2,0.8,0.4,1.6,0.6,2.3c2.1,6.8,1.6,7.7-5.7,7.6
		c-12.3-0.1-24.5-0.7-36.8-1.1c-10.5-0.2-21.1-0.1-31.6,0.3c-11,0.5-22,0.8-33,2.1c-6.7,0.8-9.7-2.8-8.8-9.4
		c0.7-5.2,1.7-10.3,3.5-15.2c4.5-12.5,14.1-19.2,26.5-22.2c13.9-3.3,28-5.4,42.4-5.9c8.1-0.3,16.2-0.5,24.3-1.5
		C705.8,482.9,708.6,482.5,711,484.3z"/>
	<path class="st5" d="M605.5,444.5c22.2-1.9,44.6-1.5,66.8-2.3c14.6-0.6,29.1-0.4,43.7-0.7c10.1-0.2,12.7,2.2,10.8,12.9
		c-0.9,4.8-2.1,9.2-4.1,13.7c-1.4,3.3-3.7,4.5-6.8,3.7c-6.4-1.8-13.2,0.2-19.6-2c-13.8-2-27.8-1.7-41.6-3.4c-16.1-1.9-32,0.9-48,1.8
		c-4.3,0.3-8.4,0.2-12.3-1.9c-4.4-2.4-6.5-6.6-5.8-11.3c0.7-4.8,3.9-8.2,8.7-9.4C600.1,444.7,602.9,445.2,605.5,444.5z"/>
	<path class="st6" d="M711,484.3c-16.8,1-33.6,1.4-50.3,3.3c-10.5,1.2-21.1,2.9-31.1,6.7c-13.6,5.2-18.9,16.3-21.3,29.5
		c-0.2,1-0.1,2-0.3,2.9c-1.7,8,0.3,10.3,8.7,9.4c13.5-1.4,27.1-2,40.7-1.9c5.9,0,11.7,0,17.6,0c1.6,0,3.3-0.5,4.6,0.8
		c-16,0.7-32,1.2-47.9,2.2c-9.1,0.5-18.2,1.8-27.3,2.7c-1.6,0.2-3,0.1-2.7-2.2c2.1-13.9,0-27.7-2.6-41.3
		c-2.2-11.5-2.5-11.2,8.6-13.2c14-2.4,28-3.9,42.1-5c16.7-1.3,33.1,0.3,49.6,2c3,0.3,6.1,0.7,9.1,1C710.7,481.6,711,482.7,711,484.3
		z"/>
	<path class="st5" d="M696.4,550.7c3.7,0,7.5,0.4,11.2,0c7.1-0.6,13.7,1.3,20.4,3c2.8,0.7,3.5,3,3.4,5.1c-0.2,3.3-0.6,6.9-4.4,8.3
		c-5,1.8-10.4,1.8-15.7,2c-11.5,0.4-23.2,0.9-34.6-0.1c-14.6-1.2-29.2-0.2-43.8-0.9c-0.5-0.2-0.9-0.4-1.4-0.3
		c-2.7,0-5.5,0.1-6.1-3.3c-0.6-3.2,1.4-5.2,3.9-6.6c3.7-2.1,8-2.7,12.1-3.4c17.3-2.9,34.7-3.6,52.2-4.3
		C694.5,550.3,695.5,550.2,696.4,550.7z"/>
	<path class="st7" d="M789,559.6c-7.6,4.8-16.3,5.3-25.1,7c-6.3-1.1-12.8-2.1-19.3-3.4c-2.8-0.6-3-3.3-3.4-5.5
		c-0.4-2.7,1.6-3,3.7-3.1c1,0,2.2-0.6,3-1.3c9.4-8.9,22.1-10,33.6-14c4.2-1.5,11.5,3.5,13.2,8.2C796.1,550.8,793,557.1,789,559.6z"
		/>
	<path class="st5" d="M633.8,540.2c27.2-1.4,54.4-3.4,82.3-1.1c-2,3.5-1.4,6.4,0.6,9.7c-8-0.4-15.5-0.5-22.9-1.3
		c-7.6-0.8-15.1-1.1-22.6,0.1c-4.8,0.7-9.6,0.5-14.4,1c-12.2,1.2-24.4,1.6-36.7,2.3c-5.7,0.7-9-0.6-9.3-3.6
		c-0.3-2.7,2.5-4.6,8.1-5.3C623.9,541.4,628.9,540.5,633.8,540.2z"/>
	<path class="st6" d="M605.5,444.5c-2,1.7-4.6,0.9-6.9,1.6c-7.8,2.2-9.2,7.7-8.7,12.1c0.5,4.6,5.5,8.6,11.5,8.6
		c6.6,0,13.2-0.6,19.8-1.1c9.9-0.6,19.7-2.3,29.8-1.1c8.8,1,17.6,1.5,26.4,2.4c6.3,0.6,12.9,0.2,18.9,2.7c-5.7,1-11.3-0.8-16.9-0.9
		c-18-0.3-35.9,0.8-53.8,2.2c-10.5,0.8-21,2.8-31.5,4.6c-6.2,1-10.5-2.8-11.1-10.2c-0.4-4.7,0.5-9.4,1.2-14c0.5-3.1,2.8-5.3,5.9-5.8
		C595.2,444.6,600.3,443.8,605.5,444.5z"/>
	<path class="st8" d="M803.7,546.8c4.6,7.2-1.1,16.9-7.8,20.6c-13.2,7.4-27.1,8.9-41.7,6.5c-2.4-0.4-4.8,0-7.2-0.6
		c-4.2-1.1-6.6-2.7-4.4-7.4c7.3,1.8,14.8,3.6,22.4,3.4c10.9-0.3,21-3.2,29.8-10.1c5.1-4,4.5-14.8-1.3-18.9
		c-5.7-4.1-11.7-5.2-18.4-2.6c-7.8,3-15.9,5.5-23.7,8.5c-2.2,0.9-3.3,0.3-4.6-1.2c-1.8-2.1,0.5-3.1,1.5-3.8
		c4.6-3.2,9.8-5.2,15.3-6.2c-1.1,4.3-5.4,2.9-8.1,4.8c6.6-2.3,13.1-4.9,20-5.6c6-0.7,12.1-1,17.5,2.2c7.8,4.5,10.2,11.7,7.9,21.1
		C803.5,554.9,801.2,550.2,803.7,546.8z"/>
	<path class="st9" d="M696.4,550.7c-20.8,1.4-41.8,2.1-62.2,6.9c-1.2,0.3-2.5,0.7-3.7,1.2c-2.4,0.9-4.5,2.6-4.3,5.2
		c0.2,3.1,2.9,3.4,5.5,3.5c0.4,0,0.8,0.5,1.2,0.7c-9.2,0.7-18.3,1.6-27.5,2c-7.4,0.3-8.4-1.1-6.7-8.1c1.6-6.7,2.1-7.2,11-7.5
		c15.2-0.4,30.2-2.6,45.4-3.2c12.6-0.5,25.1-1.8,37.7-1.7C694,549.8,695.4,549.5,696.4,550.7z"/>
	<path class="st3" d="M697,430.9c-13.1-1.1-24.7,1.1-36.4,1.9c-10.7,0.7-21.4,1.9-32.3,1.8C635.8,424.5,683.8,421.4,697,430.9z"/>
	<path class="st10" d="M803.7,546.8c0.2,5.7,0.3,11.4-5.8,15.6c0.7-2.4,1.1-4.3,1.9-6.1c4.1-9.5-4.9-21.3-16.4-21.2
		c-7,0-13.7,1.3-20.4,3.3c-3,0.9-6.1,1.8-9.9,3c3.1-3.9,7.8-3.4,10.5-6.3c5-2.4,10.4-3.3,15.7-4.5
		C789.9,528.3,802.3,536.6,803.7,546.8z"/>
	<path class="st11" d="M739.3,536.1c3.9,0.1,5.5,2.3,4,5.4c-1.1,2.4-1,4.3,0.5,6.3c2.3,3-0.2,3.1-2,2.8c-6.1-1.1-12.2-2.5-18.3-4
		c-1.6-0.4-3.8-1-3.6-3.3c0.1-2,1.9-2.9,3.5-3.6C728.6,537.4,734.4,537.8,739.3,536.1z"/>
	<path class="st6" d="M633.8,540.2c-5.7,1.7-11.7,1.6-17.4,3.5c-2,0.7-4.8,0.7-4.7,3.2c0.1,2.5,2.8,3.3,5,3.8
		c1.1,0.3,2.3,0.1,3.4,0.2c-3.3,1.8-6.9,0.4-10.4,0.8c-0.8,0.1-1.6,0-2.4,0c-2.1,0.2-5,2.4-6.2,0.1c-1-1.9,0.1-4.9,0.5-7.4
		c0.4-2.5,3.1-2,4.4-2.1C615.3,542,624.5,539.7,633.8,540.2z"/>
	<path class="st0" d="M715.7,429.6c-2.1-3.1,0.1-6,0.4-9.8c1.9,4,4,7.1,6.6,9.8C720.4,429.6,718.1,429.6,715.7,429.6z"/>
	<path class="st12" d="M630.4,307.2c5.8,7.7,6.7,16.4,6.3,25.4c-0.1,1.5-1.1,2.2-2.6,2.3c-4.8,0.4-10.2-7.2-8-11.5
		C628.6,318.3,630.4,313.1,630.4,307.2z"/>
	<path class="st12" d="M672.2,340.8c2.3,3.5,2.8,7,3.5,10.4c1.2,6-6,11.8-11.9,9.9c-1.4-0.4-3.3-0.8-3.5-2.9c-0.1-1.7,0.6-3.6,2-4.1
		C668.2,351.9,670.2,346.7,672.2,340.8z"/>
	<path class="st13" d="M651.4,371.9c0.3-2.6,0.7-5.2,1-7.7c1.6,0.2,2.9,0.8,4,2c1.1,2,0.1,3.5-1,5
		C654.3,372.8,652.8,371.9,651.4,371.9z"/>
	<path class="st1" d="M655.4,371.2c-0.6-1.8,0.9-3.3,1-5c1.7-0.4,3,1.1,4.6,1.1c0.3,1.2,0.7,2.5,1,3.7
		C659.8,371,657.6,371.1,655.4,371.2z"/>
	<path class="st2" d="M710.3,496.5c2,11.6,4.7,23,9,33.9c0.5,1.2,0.5,2.1-0.5,3c-1,0.9-1.9,0.7-3.1,0.3c-3.4-1.2-4.3-4-4.8-7
		C709.2,516.8,710.2,506.7,710.3,496.5z"/>
	<path class="st2" d="M641.2,446.1c8.7,0,17.2-2.1,25.7-1.8c16.2,0.6,32.3-1.3,48.5-1c6,0.1,9,4.1,7.6,10.1c-0.6,2.4-0.6,4.9-2,7.5
		c-9.1-11.2-21.6-12.3-34.6-12.7C671.4,447.7,656.3,446.8,641.2,446.1z"/>
	<path class="st2" d="M670.6,540.4c13.3,0.1,26.8-1.6,40,2.6C697.3,541.5,683.9,542,670.6,540.4z"/>
</g>
</svg>
