<?xml version="1.0" encoding="utf-8"?>
<!-- Generator: Adobe Illustrator 23.0.1, SVG Export Plug-In . SVG Version: 6.00 Build 0)  -->
<svg version="1.1" id="Layer_4" xmlns="http://www.w3.org/2000/svg" xmlns:xlink="http://www.w3.org/1999/xlink" x="0px" y="0px"
	 viewBox="0 0 1000 1000" style="enable-background:new 0 0 1000 1000;" xml:space="preserve">
<style type="text/css">
	.st0{fill:#6E3720;}
	.st1{fill:#FB9A7A;}
	.st2{fill:#E00000;}
	.st3{fill:#800000;}
	.st4{fill:#CBB89A;}
	.st5{fill:none;}
	.st6{fill:#7F0000;}
	.st7{fill:#7898AB;}
	.st8{fill:#B3F7F5;}
	.st9{fill:#2B5260;}
	.st10{fill:#FEFEFE;}
	.st11{fill:#C0FEFE;}
	.st12{fill:#7F7F7F;}
	.st13{fill:#808080;}
</style>
<g>
	<path d="M820.2,537.7c-6-8.6-15-12.4-25.5-12.3c-12,0.2-23.2,4-34.2,8.4c-1.6,0.6-3.3,2.6-5.1,0.3c-3.8-4.9-9-4.4-14.1-3.4
		c-2.3,0.5-2.6-0.3-3.1-2.2c-4-15.3-7.9-30.7-12.1-45.9c-0.7-2.4-0.6-2.8,1.9-3.3c6.5-1.3,11.6-4.8,14.1-11.3
		c1.3-3.3,2.7-6.7,3.5-10.1c1.5-6.7,2.5-13.5,0.6-20.3c1.6-3.5-0.6-5.8-2.3-8.3c-0.1-0.1-0.2-0.3-0.3-0.4c0-0.1-0.1-0.1-0.1-0.2
		c-2.3-2.7-5.3-3.9-8.8-4.5c-5.6-1.1-11.2-0.6-16.8-0.6h-0.5c-0.4,0-0.7,0-1.1,0c-1.2,0-2.3,0-3.5,0c-0.1,0-0.3,0-0.4,0
		c-0.1,0-0.3,0-0.4,0c-2,0-3.9-0.2-5.5-1.6c-5.5-4.9-12.2-7.3-19.1-9.1c-0.1,0-0.2-0.1-0.3-0.1c0,0-0.1,0-0.1,0
		c-3.8-1-8.6,0-10.4-4.8c0-0.1-0.1-0.2-0.1-0.3c-0.1-0.2-0.1-0.4-0.2-0.6c-4.1,2.1-8.5,2.8-12.9,3.6c-4.5,0.8-9,0.9-13.4,1.8
		c-0.3,0.1-0.6,0.1-1,0.2h0c-3.6,0-7.2,0.8-10.8,1.3c-0.3,0.1-0.5,0.1-0.8,0.2c-0.1,0-0.2,0-0.3,0.1c-7.9,2-15.6,4.6-22,9.9
		c-0.2,0.1-0.3,0.3-0.5,0.4c-0.1,0.1-0.2,0.1-0.3,0.2c-0.6,0.5-1.2,0.9-1.9,1.3c-0.4,0.2-0.7,0.4-1.1,0.6c-0.5,0.2-0.9,0.4-1.4,0.5
		c-1.8,0.8-3.7,1.1-5.6,1.4c-9.5,1.5-19,0.7-28.5,0.7c-6.7,0-11.6,2.6-14.7,8.4c-0.1,0.2-0.2,0.4-0.3,0.6c0,0.1-0.1,0.2-0.1,0.2
		c-1,3.6-2.3,7.2-0.2,10.9c0.4,5.4-0.3,10.9,1,16.3c1.6,6.8,3.4,13.2,11.5,15.2c1.8,0.5,2.7,1.8,3.5,4c3.9,10.6,4.7,21.7,5.5,32.6
		c1.2,15.6-1.3,30.9-4.8,46c-2.5,10.9,1.8,16.6,12.7,16.6c17.3,0.1,34.5-1.3,51.8-1.8c11.4-0.4,22.9,0,34.4,0.6
		c17,0.9,34.2,0.3,51.2,0.2c4.9,0,9.8-0.8,14.3-2.9c1.5-0.7,2.8-1,4.5-0.6c13,3.3,25.9,5.7,39.6,3.8c11.2-1.6,21.7-4.2,30.5-11.3
		C825.7,560.3,826.6,547,820.2,537.7z M752.8,554.3c2-0.9,3.9-1.4,5.2-3.6c1.4-2.4,4.7-2.8,7.3-3.7c8.6-2.8,17.3-5.4,26-7.6
		c9-2.3,16.6,4.2,16.3,12.3c-0.2,5.3-4.1,7.7-8,9.4c-8.5,3.7-17.5,5-27.5,5.4c-5.8-1-12.4-0.8-18.9-2.8c-3.4-1.1-4.7-3.1-5.1-6
		C747.6,554,751,555.1,752.8,554.3z"/>
	<path class="st0" d="M561.6,438.6c-0.3,3.6-1.5,7-1.2,10.7c-3.2-1.5-2.7,1.8-3.2,2.9c-4.5,10.1-8.5,20.4-13.8,30.2
		c-5.3,9.7-10.4,19.5-16,29.1c-4.3,7.5-7,15.9-10,24c-4.4,11.4-11.5,20.8-22.3,27.1c-14,8.2-33.6-0.7-37.1-16.9
		c-4.1-18.5-11-36.2-15.5-54.6c-3.3-13.7-6.7-27.3-8.2-41.4c-1.1-9.8-2.3-19.5-1.7-29.3c1.3-20.2,5-39.8,13.4-58.5
		c5-11,11-21.3,16.8-31.8c5.5-10,8-21.2,10.6-32.3c2.5-10.5,4.7-21.1,9.2-30.8c6.7-14.3,14.2-28.6,29.8-35.8
		c5.3-2.4,10.8-3,16.4-2.4c15.1,1.5,29.4,6.2,42.6,13.7c11.6,6.6,23.1,13.3,32.9,22.6c5.7,5.4,11.8,10.4,17.7,15.5
		c-0.4,3.4-2.6,5.1-5.6,6c-4.1-2.1-7.3-5.4-10.6-8.5c-17.8-16.1-38-28.5-60.5-36.8c-19.6-7.2-37,0.6-47.4,20.6
		c-5.7,10.9-9.5,22.4-12.1,34.4c-3.8,17.7-9.3,34.8-17.8,51c-8.6,16.4-15.9,33.4-19.3,51.9c-3.1,17.1-3.7,34.1-1.8,51.4
		c2.6,24,9.8,46.8,16.8,69.6c2.3,7.3,4.6,14.7,5.8,22.2c1.7,10.7,16.6,12.8,22.4,6.2c5.2-5.9,10.6-11.7,13.2-19.2
		c5.7-16.4,14-31.5,21.7-46.9c5.9-11.6,11.3-23.5,16.2-35.5c1.5-3.7,1-6.3-1.9-9.1c-6.9-6.6-14.2-13-17.2-22.7
		c-2.2-7.2-3.9-14.6-2.4-22.1c1.2-6.2-1-10.5-5.6-14c-6.1-4.7-12.4-8.9-18.7-13.2c-0.9-0.6-1.9-1.2-2.8-2c-1.1-0.9-2.8-1.7-2.1-3.4
		c0.6-1.6,2.4-1.4,3.9-1.4c4.3,0,8.4,0.8,12.3,2.6c5.5,2.6,10.5,5.8,14.9,10c3.3,3.2,3.8,3.1,5.9-0.9c2.8-5.4,6.2-10.3,10.5-14.6
		c1.2-1.2,2.5-2.4,3.8-3.4c2.7-1.8,4.8-4.2,7.8-5.6c9.3-5.2,19.1-7.3,29.6-4.8c12.1,2.9,24.3,3.6,36.6,4.5c3.1,0.6,5.9,1.8,8.6,3.4
		c5.6,4.5,11,9.1,12.8,16.6c0.5,1.5,0.8,3,0.8,4.5c0.1,2.1,0.1,4.2,0.1,6.2c-0.9,11.1,4.2,20.6,8.3,30.4c0.8,1.9,2.4,3.6,1.1,5.9
		c-4,0.3-7.9,0.7-11.9,1c-4.8-7.5-8.7-15.5-11.6-23.9c-1.2-3.4,0.4-7.1,1-10.6c1.7-10.5-3.7-18.6-14-21c-4.9-1.1-9.8-1.7-14.9-1.1
		c-6.8,0.8-13.4-2-20.1-3c-6.7-1-12.8,0-19.1,2.3c-8.7,3.2-13.4,10.3-17,17.9c-5.1,10.7-7.5,22-5.2,34c2.2,11.4,10.1,18.1,19.1,24
		C557.9,435.1,560.7,435.8,561.6,438.6z"/>
	<path class="st0" d="M681.5,353.6c-0.5,0.4-0.9,0.8-1.4,1.1c0.2-0.3,0.5-0.6,0.8-0.8C681.1,353.8,681.3,353.7,681.5,353.6z"/>
	<path class="st0" d="M796.7,386c-0.5,21.8-14.3,41.7-32.6,47.8c-1.1,0.4-2.2,1-3.2,0.6c-5.7-2.5-10.1,0.8-14.7,3.1
		c0-3-1.8-5.3-3.1-7.8c0.2-0.3,0.3-0.7,0.5-1c2.3-3.8,6.5-4.5,10.4-5.1c19.3-2.8,33.5-22.2,30.3-41.6c-3.4-20.8-19.2-37.8-38.3-41.2
		c-2.7-0.5-5.1-0.3-7.6,0.7c-11.9,5-23.8,9.6-36.4,12.3c-6.4,1.4-11.3,4.8-13.4,11.4c-1.4,4.4-0.5,8.6,1.4,12.3
		c3.8,7.3,3.9,14.6,1.1,22.1c-1.5,4.3-1.6,9-3.9,13.1c-0.2,0.4-0.5,0.8-0.7,1.2c-1.5-0.7-3-1-4.7-0.9c-4.3,0.4-6.5-0.9-5.4-5.3
		c0.1-0.2,0.1-0.4,0.2-0.6c-1.5-1.7-0.8-3.5-0.1-5.2c0.4-0.9,0.8-1.8,1.1-2.7c0.3-0.7,0.5-1.4,0.7-2.1c0,0,0,0,0,0c0,0,0,0,0,0
		c0,0,0,0,0,0c1.9-6.7,1.3-13.5-1.6-20.3c0.3,0,0.5,0,0.8,0c0.8-2.5-0.9-4.6-1-7c-0.2-6.1,1.8-11.3,5-16.3c9-9.4,21-12.3,32.8-15.6
		c6.7-1.8,12.5-5.8,19.4-7.2c12.4-2.6,23.4-0.8,33.7,6.6c5,3.5,9.8,7,14.2,11.3C792.3,358.9,797,371.8,796.7,386z"/>
	<path d="M617.1,286.2c1.7-1.9,3.3-3.9,5-5.8c9.9-1.9,14.1,0.5,19.7,10.2c3.8,6.5,5.6,13.6,6.7,20.9c1.6,4.1,1.6,8.3,0.5,12.5
		c-3,11.2-9.3,13.6-21.1,8.1c-9.3-6.4-16.3-14.4-16.9-26.5c0-1.8,0-3.5,0.4-5.2c0.2-1,0.5-1.9,0.6-2.9
		C612.7,293.2,613.1,288.9,617.1,286.2z"/>
	<path d="M683.3,347.3c-0.5,2.1-1.2,4.1-1.7,6.2c0,0,0,0,0,0.1c0,0-0.1,0-0.1,0.1c-0.5,0.4-0.9,0.8-1.4,1.1
		c-2.2,1.8-4.5,3.6-7.2,4.7c0.1,0.3,0.2,0.5,0.3,0.8c-0.1,0-0.2,0.1-0.3,0.1c-0.1,0-0.2,0.1-0.4,0.1c-2.8,0.5-5.4,0-8-1
		c-0.1-0.1-0.2-0.1-0.3-0.2c-0.1,0-0.2-0.1-0.3-0.2c-1.6-0.7-3.1-1.5-4.6-2.3c-0.1-0.1-0.2-0.1-0.3-0.2c0,0-0.1,0-0.1,0
		c-1.1-0.6-2.2-1.1-3.3-1.7c-0.1-0.1-0.2-0.1-0.3-0.2c-0.2-0.1-0.4-0.2-0.6-0.3c-1.5-0.7-2.9-1.6-4.2-2.7c-0.1-0.1-0.2-0.2-0.3-0.3
		c-0.2-0.2-0.4-0.4-0.6-0.5c-3-2.6-5-5.7-5.2-9.8c0-0.1,0-0.2,0-0.3c0,0,0-0.1,0-0.1c0.2-4.9,3.5-7.7,7.1-10.3c0,0,0,0,0,0
		c0.2-0.1,0.4-0.3,0.6-0.4c2.3-1.7,3.8-4.6,7.2-4.8c11.1-6.4,17.4-4.8,22.8,5.5C684.9,336.3,684.7,341.7,683.3,347.3z"/>
	<path class="st0" d="M659.2,325.4c-2.2,1.9-4.5,3.8-6.7,5.8c-2.9-1.4-4-4-4.9-6.8c1.4-4.2,0.6-8.6,1-12.9
		C652.1,316.1,655.7,320.7,659.2,325.4z"/>
	<path class="st1" d="M686.6,414c1.6-7,2.9-14.1,4.9-20.9c1.4-4.7-0.1-8.4-1.8-12.4c-2.4-5.8-4.7-11.4-1.5-18
		c2.8-5.9,7.6-8.7,13.4-10c13.1-2.8,25.5-7.5,37.6-12.9c2.7-1.2,4.9-0.5,7.4,0c14.5,2.5,24.4,11.1,31.9,23.2
		c4.7,7.6,8.2,15.9,7.4,24.9c-1.3,14.8-7.3,27.2-20.9,34.8c-2.5,1.4-5.4,2.2-8.3,2.1c-5.3-0.1-9.6,2.1-13.7,5.1
		c-3.8-4.3-9-4.8-14.2-5c-3.7-0.2-7.4-0.1-11.1-0.1c-2-1.6-4.2-3.1-4.1-6.1c-0.3,2.1-0.1,4.5-2,6.1c-2.7,0.5-4.8-0.3-6.9-2.3
		C699.8,417.5,693.3,415.5,686.6,414z"/>
	<path class="st1" d="M561.6,438.6c-7.9-4.6-15.9-9.2-21.2-17c-4.9-7.4-6.9-15.6-5.6-24.6c1-7.3,2-14.6,5.4-21.2
		c2.1-4.1,4.4-8.3,7.5-11.7c8.2-8.8,18.4-12.1,30.5-9.8c5.3,1,10.7,1.9,16,2.9c5,1,9.9-1.2,15.2,0c11.1,2.6,14.5,3.1,18.9,15.6
		c1.6,4.5-0.3,8.6-0.9,12.8c-0.5,3.3-0.4,6.2,1.2,9.3c3.2,6.6,7.1,12.9,9,20.1c-7.8,2.6-15.6,5.1-22.3,10c-2.9-1.3-2.7,1.8-4,2.8
		c-3.7,3.3-8.5,2.4-12.8,2.8c-7.3,0.6-14.6,0.5-21.9,0.1C569.7,430.1,565.1,433.1,561.6,438.6z"/>
	<path class="st2" d="M714,481.3c4.5,16.3,9,32.6,13.6,49c0.6,2.3,0.7,3.5-2.5,4.1c-6.3,1.1-12.4,0.9-18.6,0.2
		c-5.4-0.6-11-0.3-16.5-0.3c-3.7,0-7.5-0.1-11.2-0.1c-12.2-0.2-24.3,0-36.5,0.4c-12,0.4-24,1-36,2c-7.5,0.6-10.8-3.6-9.4-11
		c0.8-4.3,1.4-8.7,3.2-12.8c5.5-12.8,14.5-21.4,28.4-24.3c16.4-3.4,32.9-6,49.7-6.5c9.1-0.3,18.2-0.4,27.2-1.5
		C708.4,479.9,711.3,479.5,714,481.3z"/>
	<path class="st2" d="M590.8,440.4c4.6-0.6,9.2-1.9,13.8-1.8c15.6,0.4,31.1-1.4,46.7-1.2c22.9,0.3,45.8-1.5,68.7-1
		c3.1,0.1,6,0.8,9.1,1.2c3.3,0.4,3.2,3.6,3.3,5.7c0.1,7.6-1.3,15-4.8,21.8c-1.2,2.3-3.3,3.9-5.9,3.6c-8.1-0.8-16.2-1.9-24.3-2.8
		c-10.6-1.2-21.2-2.1-31.9-2.5c-6.6-0.2-13.3-0.7-19.9-1.5c-10.3-1.2-20.4,0.5-30.6,1c-7.1,0.4-14.3,0.5-21.4,1.4
		c-3.6,0.4-7.1-0.5-10.4-2.2c-4.8-2.4-7.1-6.8-6.3-12c0.7-4.6,3.9-7.6,9.2-8.8C587.7,440.9,589.4,441.4,590.8,440.4z"/>
	<path class="st3" d="M714,481.3c-14.7,0.6-29.4,1.5-44.1,2.2c-14.8,0.7-29.6,3-43.8,6.9c-16.7,4.6-24.7,17.2-27.4,33.6
		c-1.5,9.3,1.3,12.3,10.9,11c9.6-1.4,19.3-1.4,29-1.8c11.7-0.5,23.4-0.1,35.1-0.1c1.7,0,3.6-0.6,5.1,0.8c-11,0.8-22,0.7-33,1.3
		c-17.1,1-34.2,1.2-51.1,3.6c-2.7,0.4-2.8-1.3-2.8-3.3c-0.2-8.1-0.1-16.2-0.7-24.3c-0.6-8.7-2.3-17.2-3.7-25.8
		c-0.6-3.6,0.2-3.9,3.4-4.3c10.7-1.3,21.3-3.1,32-4.5c4.3-0.6,8.7-0.9,13-1c9.9-0.2,19.7-1.9,29.6-1.2c15.4,1.2,30.9,1.5,46.3,3.8
		C713.6,478.8,713.9,479.8,714,481.3z"/>
	<path class="st2" d="M697.4,550.7c11.6,0.4,23.2-0.6,34.6,2.9c2.7,0.8,5.1,1.6,5.3,4.5c0.1,3.5-0.5,7.2-3.9,9.2
		c-1.7,1-3.8,1.8-5.8,1.9c-17.3,1.5-34.7,1.7-52,0.8c-9.1-0.5-18.1-0.3-27.2-0.7c-7.4-0.4-14.8-0.7-22.3-1.1
		c-0.5-0.2-0.9-0.3-1.4-0.4c-2.6-0.1-5.6-0.1-6.1-3.5c-0.6-3.7,1.9-5.7,5.1-6.8c6.2-2.1,12.6-3.3,19-4c16.9-1.9,33.9-2.8,50.9-3.3
		C694.8,550.3,696.1,550.1,697.4,550.7z"/>
	<path class="st4" d="M677.9,402.3c-1.2,1.5-1.2,3.2-1.2,4.9c-3.8,5-9.8,3.2-14.7,4.9c-4.1,1.4-8.5,0.2-12.5,1.8
		c-2.4-5.7-4.6-11.5-7.2-17c-2.9-6.1-3.9-12.4-3.6-19c1.9-2.6,4.9-2.1,7.5-2.7c5.7-1.2,11.3-0.7,16.8,0.8
		c9.6,2.5,16.4,12.4,15.3,22.4C678.2,399.7,678.5,401.1,677.9,402.3z"/>
	<path class="st5" d="M807.6,551.7c-0.2,5.3-4.1,7.7-8,9.4c-8.5,3.7-17.5,5-27.5,5.4c-5.8-1-12.4-0.8-18.9-2.8
		c-3.4-1.1-4.7-3.1-5.1-6c-0.5-3.7,2.9-2.6,4.7-3.4c2-0.9,3.9-1.4,5.2-3.6c1.4-2.4,4.7-2.8,7.3-3.7c8.6-2.8,17.3-5.4,26-7.6
		C800.4,537.1,808,543.5,807.6,551.7z"/>
	<path class="st2" d="M629.9,539.2c29.4-1.7,58.8-3.2,88.5-1.3c-0.3,2.1-0.8,3.8-0.6,5.4c0.2,1.7,1.1,3.2,2,5.5
		c-8.7-0.5-17.1-0.6-25.3-1.5c-8.6-0.9-17.3-1-25.7-0.1c-5.7,0.6-11.5,0.7-17.3,1.3c-13,1.4-26.1,1.6-39.1,2.3
		c-2.6,0.9-5.1,0.1-7.6-0.7c-1.6-0.5-2.8-1.7-2.9-3.5c-0.2-1.9,0.9-3.1,2.4-3.9c2-1.1,4.1-1.7,6.5-1.8
		C617.2,540.6,623.5,539.6,629.9,539.2z"/>
	<path class="st6" d="M590.8,440.4c-0.6,1.1-1.6,0.8-2.5,1.1c-7.6,2-10.7,5.5-10.1,11.4c0.5,5.4,5.1,9.7,11.9,9.8
		c7.9,0.1,15.8-0.7,23.7-1.1c11.1-0.5,22-2.3,33.3-1c9.7,1.1,19.6,1.7,29.4,2.3c7,0.4,14,1.1,20.8,2.9c-13.8-0.2-27.5-1.9-41.3-0.9
		c-21.5,1.4-43.2,0.8-64.4,5.7c-3.1,0.7-6.4,0.8-9.6,1.1c-7.1,0.8-11.2-4-11.6-11.2c-0.3-5.3,0-10.6,2.5-15.6
		c1.1-2.1,2.8-3.4,4.9-3.4C582.2,441.4,586.4,439.8,590.8,440.4z"/>
	<path class="st7" d="M818.4,546.8c2.7,6.8,1.4,12.7-4.1,17.3c-8.1,6.7-17.3,10.3-27.9,11.2c-11.9,0.9-23.7,0.7-35.4-2.2
		c-3.6-0.9-2.1-2.6-2-4.5c0.1-3.2,1.7-1.5,3.1-1.3c5.6,1.1,11.3,2.8,16.9,2.8c13.8,0,27.4-2.2,39-10.6c3.4-2.4,5.5-6.4,4.3-10.6
		c-1.8-6-5.3-11.1-11.9-12.7c-9.9-2.4-18.7,1.9-27.7,4.8c-4.5,1.5-9,3.2-13.5,4.7c-1.8,0.6-4.1,0.9-5.1-1.3c-0.9-2.1,1-3.6,2.4-4.3
		c5.4-2.7,10.8-5.4,17-5.9c-1.3,4.1-5.7,2.6-8.1,4.7c9.2-3.8,18.8-6,28.8-5.9c16.5,0.1,24.9,12,19.4,27.6c-0.2,0.4-0.5,0.9-0.4,1
		C816.9,557.5,816.3,551.7,818.4,546.8z"/>
	<path class="st6" d="M697.4,550.7c-21.4,1.3-42.9,1.8-64,6c-2.8,0.6-5.6,1.4-8.5,1.9c-3,0.6-5.5,2.2-5.5,5.3c0,3.1,3,3.3,5.4,3.7
		c0.4,0.1,0.8,0.5,1.2,0.7c-11.1,0.7-22.2,1.4-33.4,2.1c-4,0.3-6.4-0.1-5-5.6c2.3-8.9,1.8-9.2,11.1-10c11.3-0.9,22.6-1.2,33.9-2.1
		c13.1-1,26.2-1.3,39.2-2.2c7.6-0.5,15.2-0.3,22.8-0.7C695.7,549.8,696.7,549.8,697.4,550.7z"/>
	<path class="st4" d="M619.9,429.8c11.6-10.3,65.1-15.1,77.2-4.6c-1.5,1-3.1,0.5-4.6,0.5c-17.7-0.3-35.2,3-52.9,3.3
		C633.3,429.1,627,429.2,619.9,429.8z"/>
	<path class="st8" d="M818.4,546.8c0.5,6.4-0.2,12.3-6.7,16.4c0.7-2.6,0.9-5,1.9-7c4.5-10.2-7.2-21.9-17.2-22.1
		c-11.6-0.2-22.5,2.9-33.4,6.3c-0.4,0.1-0.9,0.3-2.5,0.7c2.3-2.7,4.7-3,6.5-4.2c2-1.3,4.7-1,6.5-2.8c10-3,19.9-6.3,30.7-2.8
		C811.2,533.7,817.3,539.5,818.4,546.8z"/>
	<path class="st9" d="M745.5,535.1c4.9,0.1,6.7,2.9,4.6,6.3c-1.4,2.2-0.6,3.9,0.5,5.8c1.4,2.4,0.6,4-2.2,3.4
		c-7.2-1.5-14.4-3.3-21.5-5.1c-1.4-0.4-3.3-1-3.3-3.1c0-1.9,1.6-2.2,2.9-2.9C732.7,536.2,739.8,536.9,745.5,535.1z"/>
	<path class="st6" d="M629.9,539.2c-6.4,0.9-12.9,1.7-19.3,2.9c-3,0.6-7.6,0.5-7.7,4.2c-0.1,3.9,4.7,3.4,7.5,4.4
		c0.6,0.2,1.3,0.1,1.9,0.2c-1.2,1.3-2.7,0.8-4.1,0.9c-4.8,0.3-9.6-0.5-14.4,0.9c-2.1,0.6-5.1,0.7-3.3-3.3c0.1-0.1,0.1-0.3,0.2-0.5
		c0.5-2.2-1-5.4,1-6.3c2.5-1.1,5.5-1.5,8.5-1.5C610.1,541,619.9,538.4,629.9,539.2z"/>
	<path class="st0" d="M711.8,424.7c0.4-2.3,0.8-4.6,1.3-7.6c1.3,3.2,4,4.7,4.7,7.6C715.9,424.7,713.8,424.7,711.8,424.7z"/>
	<path class="st0" d="M611.3,427.7c-0.3-2,1-3.6,1.3-5.3c1.7,0.1,1.3,2.2,2.7,2.6C614.3,426.3,613.3,427.8,611.3,427.7z"/>
	<path class="st1" d="M617.1,286.2c-1.8,3.7-3.9,7.3-4,11.6c-1.6,0.4-2.9-0.5-4-1.3c-6.4-5.1-14-8.2-21.2-11.8
		c-11.6-5.7-21.2-3.3-29,7.2c-9.7,13-14.1,28-15.5,43.9c-0.5,5.3-1.4,10.6-1.1,16c0.1,1.7-0.3,3.2-1.2,4.6
		c-4.7,5.5-9.2,11.2-11.9,18c-1.2,3-2.4,2.6-4.4,0.5c-6.6-7-14.3-12.4-24.1-14.2c-2.5-0.5-5.1-0.4-8.2,0.3c5.8,4,11.6,7.9,17.3,12
		c4.1,3,8.5,5.5,11.7,9.9c2.1,3,2.2,5.7,1.7,8.6c-2.2,14.6,1.2,27.4,11.5,38.1c2.4,2.5,4.5,5.2,7.3,7.2c4.7,3.3,3.9,6.7,2,11.4
		c-8.5,21.4-19.9,41.4-29.7,62.2c-3.5,7.4-6.3,15.1-9.5,22.6c-2.8,6.5-7.4,11.7-12.2,16.6c-8,8.1-21,4.2-24-6.7
		c-5.8-20.8-12.1-41.4-17.7-62.3c-3.1-11.6-4.4-23.6-5.8-35.5c-0.7-6.8-1-13.6-0.7-20.3c0.9-21.2,5.5-41.5,14.2-60.9
		c6-13.5,13.9-26.1,18.7-40.2c4.2-12.4,6.6-25.4,10-38c3.6-13.1,8.3-25.8,17.5-36c11.5-12.5,24.6-15.6,41.7-9.5
		c20.3,7.2,38.1,19,55.1,32C607.1,276.4,612,281.5,617.1,286.2z"/>
	<path class="st10" d="M612.1,305.7c0.7,11.4,7.6,18.8,15.9,25.4c1.2,2.2,0.1,4.2-0.9,5.9c-2.5,4.2-4.6,8.8-9,11.6
		c-2.7-1.1-5.6-1-8.5-0.8c-10.7,0.8-20.8-2.4-31.1-4.2c-8.8-1.5-16.5,0.2-24.2,3.9c-1.1,0.5-2.3,0.9-3.5,1.3
		c-0.7-1.1-0.5-2.2-0.1-3.3c5-14.8,10-29.4,20.5-41.6c5.9-6.9,13.2-9.4,21.7-7.6C600,297.6,606.9,300.1,612.1,305.7z"/>
	<path class="st11" d="M612.1,305.7c-3.2-1.6-6.3-3.3-9.5-4.8c-13.2-6.5-24.3-5.7-34,8.2c-7.2,10.4-11.5,22-15.7,33.7
		c-0.7,2-1.3,4-2,6c-2.6,1.2-3.7,4.4-6.8,4.9c-1.3-1.1-1.2-2.6-1.1-4c1.6-18.9,6-36.8,15.5-53.4c6.7-11.8,16.9-16,29.6-11.1
		c8.4,3.2,15.9,8.2,23.3,13.2c0.6,0.4,0.8,1,1,1.6C612.3,301.8,612.2,303.7,612.1,305.7z"/>
	<path class="st10" d="M612.4,299.9c-6.7-3.9-13.5-7.7-20.2-11.6c-4-2.4-8.5-3.2-12.9-4c-6.6-1.1-14.9,3.9-19,11.1
		c-8.9,15.7-14.4,32.4-15.4,50.5c-0.1,2.6-1.5,5-0.9,7.7c-0.7,1.2-1.6,2.2-2.9,2.9c-0.2-19.3,1.4-38.4,10.8-55.8
		c3.9-7.2,8.1-14.2,15.9-18.3c6.1-3.2,12.1-2.6,17.7-0.1c9.7,4.2,19.4,8.7,27.7,15.7C613.3,298.7,613.5,299.5,612.4,299.9z"/>
	<path d="M678.1,401.8C678.1,401.8,678,401.8,678.1,401.8c-0.1,0.2-0.1,0.3-0.2,0.5c0-1,0-2-0.1-3c-0.2-2.7-0.7-5.3-1.6-7.8
		c-4.1-12.4-7.9-13.5-21-15.4c-5.1-0.8-10.2,0.5-15.2,1.6c-0.4,0.1-0.9,0.2-1.3,0.3c0-2.3,0-4.6,0-6.9c0.3-0.3,0.7-0.6,1.1-0.9
		c2.9-1.9,6.5-1.2,9.6-2.2c0.1,0,0.3,0,0.5,0c0.2,0,0.3,0,0.5-0.1h0c1.5-0.2,3.1-0.2,4.7-0.1h0.1c0.2,0,0.3,0,0.5,0
		c2.7,0,5.4,0.1,8.1,0.9h0c0.2,0,0.5,0.1,0.7,0.1c3.4,0.6,6.3,2.3,9.1,4.2c0,0,0.1,0,0.1,0.1c0.1,0.1,0.2,0.1,0.3,0.2
		c-0.1,0.3-0.2,0.5-0.3,0.8c1,1.1,1.6,2.6,3.2,2.8c0.3,0,0.5,0,0.8,0C682.4,385.1,681.6,393.5,678.1,401.8z"/>
	<path class="st10" d="M645.3,340.8c0.1,4.1,2.5,6.9,5.1,9.7c0.1,6.6-2.6,12-7.8,15.9c-1.3,1-3,2-4.8,0.8
		c-1.3-7.2-7.1-11.1-11.8-15.8c-0.1-0.3-0.2-0.7-0.1-0.9C628.3,346.1,640.4,340.1,645.3,340.8z"/>
	<path class="st1" d="M645.3,340.8c-7.1,2.3-14,5-19.3,10.6c-2.7-0.7-4.9-3-7.9-2.9c3.4-5.8,8.6-10.5,9.9-17.5
		c2.3,0,3.9,1.7,6.2,2.1c7.6,1.4,11.8-1.2,13.3-8.8c1.7,2.2,3.8,4.1,4.9,6.8C649.1,333.7,645.6,336,645.3,340.8z"/>
	<path class="st11" d="M637.9,367.2c5.7-0.9,8.3-5.1,10.1-9.9c0.9-2.2,1.6-4.5,2.5-6.8c1.6,1.1,3.2,2.1,4.8,3.2
		c1.9,6.6-2,10.9-5.8,15.3c-3.3,2-7.3,0.7-10.7,2C638.5,369.8,638.2,368.5,637.9,367.2z"/>
	<path class="st5" d="M680.1,354.7c-0.8,0.9-1.5,1.9-2.1,2.9c-1.3,1.2-2.9,2.1-4.7,2.6c-0.1-0.3-0.2-0.5-0.3-0.8
		C675.6,358.3,677.9,356.6,680.1,354.7z"/>
	<path class="st5" d="M676.5,375.6c-0.8-0.9-1.7-1.7-2.6-2.4c1.3-4.4,1.1-8.8-0.7-13c1.9-0.5,3.4-1.4,4.7-2.6
		C674.8,363.1,675.1,369.3,676.5,375.6z"/>
	<path class="st5" d="M676.7,369.8c0.1,2.4,1.8,4.5,1,7c-0.4-0.4-0.7-0.8-1.1-1.2v0c-1.4-6.4-1.8-12.5,1.5-18
		c1.3-1.2,2.5-2.6,3.6-4.1l0,0C678.5,358.5,676.5,363.8,676.7,369.8z"/>
	<path class="st5" d="M676.8,376.9c-1.6-0.2-2.2-1.7-3.2-2.8c0.1-0.3,0.2-0.5,0.3-0.8c1,0.7,1.8,1.5,2.6,2.4v0
		C676.6,376,676.7,376.4,676.8,376.9C676.8,376.8,676.8,376.8,676.8,376.9z"/>
	<path class="st10" d="M673.3,360.2c1.8,4.3,2,8.6,0.7,13c-0.1,0.3-0.2,0.5-0.3,0.8c0-0.4-0.1-0.7-0.1-1c-0.5-4.2-0.8-8.5-0.6-12.7
		c0-0.3,0-0.6,0-0.8C673.1,359.7,673.2,360,673.3,360.2z"/>
	<path class="st5" d="M677.7,376.8c-0.3,0-0.6,0.1-0.8,0c0,0,0,0,0,0c-0.1-0.4-0.2-0.8-0.3-1.2C676.9,376,677.3,376.5,677.7,376.8z"
		/>
	<path class="st5" d="M681.6,353.5c-1.1,1.5-2.3,2.9-3.6,4.1c0.6-1,1.3-2,2.1-2.9c0.5-0.4,0.9-0.8,1.4-1.1
		C681.5,353.6,681.5,353.6,681.6,353.5z"/>
	<path class="st10" d="M681.7,353.4C681.7,353.5,681.6,353.5,681.7,353.4l-0.1,0.1c0,0-0.1,0-0.1,0.1
		C681.5,353.6,681.6,353.5,681.7,353.4C681.6,353.5,681.7,353.5,681.7,353.4z"/>
	<path class="st12" d="M638.9,295.6c4.8,6,4.6,12.5,5.7,18.6c0.2,1.1,0,2.3,0,3.4c0,3,0.5,6.5-3.4,7.5c-2.7,0.7-8.8-4.6-9.2-7.5
		c-0.1-0.7,0.1-1.6,0.5-2.2c2-2.9,4.1-5.7,5.2-9.1C638.7,303.1,638.7,299.8,638.9,295.6z"/>
	<path class="st13" d="M677.9,333.3c5.7,7.4,2.1,18.7-8.4,19.3c-2.3,0.1-4.3-0.4-5.2-2.6c-1-2.4,0.5-4.6,2.4-5.2
		C672.5,342.9,675,338,677.9,333.3z"/>
	<path class="st0" d="M673.9,373.3c-0.1,0.3-0.2,0.5-0.3,0.8c-3.4-1-5.9-4.2-9.7-4c-0.1-0.4-0.2-0.9-0.3-1.3
		c-0.6-3.2-1.1-6.4,0.2-9.6c0.1-0.2,0.2-0.5,0.3-0.7c2.9,0.4,5.7,1.4,8.7,1.2c0.1,0.3,0.2,0.5,0.3,0.8
		C675,364.5,675.2,368.8,673.9,373.3z"/>
	<path class="st1" d="M664.2,358.3c-0.1,3.9,1.5,7.8-0.2,11.7c-2.8-1.3-5.8-0.6-8.7-1c-0.6-5,2.4-9,3.9-13.4
		C660.9,356.3,662.8,356.9,664.2,358.3z"/>
	<path class="st10" d="M659.2,355.6c0.7,5-2.7,8.9-3.9,13.4c-1.9,0-3.9,0-5.8,0c1.9-5.1,6-9.4,5.8-15.3
		C656.6,354.3,657.9,355,659.2,355.6z"/>
	<path class="st10" d="M712.9,493.7c3.2,11.7,5.6,23.2,10,34.2c0.7,1.8,1.4,3.4-0.2,4.8c-1.8,1.6-3.8,0.3-5.3-0.6
		c-4.6-2.8-4-7.9-4.3-12C712.4,511.2,712.9,502.4,712.9,493.7z"/>
	<path class="st10" d="M726,457.5c-2.4-1.9-4.6-3.4-6.6-5.1c-6.3-5.4-13.9-6.3-21.7-7.1c-16.6-1.7-33.3-2.5-50-3.1
		c-4.4-0.2-8.9-0.4-13.8-1c2-1.2,3.8-0.6,5.5-0.7c18-1.2,36-0.4,53.9-1.2c8.7-0.4,17.4-0.5,26.1-0.7c6.6-0.1,10.5,5,8.8,11.4
		C727.6,452.3,726.8,454.6,726,457.5z"/>
	<path class="st10" d="M667.4,539.6c12.3,0.2,24.5-1.7,36.7,0.4c2.5,0.4,5.2-0.5,7.7,0.5c0.7,0.3,2.2,0.2,1.9,1.7
		c-0.2,1-1,1.5-2,1.8c-2,0.5-3.7-0.8-5.6-1c-8.6-1.1-17.2-2-25.9-1.9C675.9,541.1,671.8,539.2,667.4,539.6z"/>
</g>
</svg>
