<?xml version="1.0" encoding="utf-8"?>
<!-- Generator: Adobe Illustrator 23.0.1, SVG Export Plug-In . SVG Version: 6.00 Build 0)  -->
<svg version="1.1" id="Layer_4" xmlns="http://www.w3.org/2000/svg" xmlns:xlink="http://www.w3.org/1999/xlink" x="0px" y="0px"
	 viewBox="0 0 1000 1000" style="enable-background:new 0 0 1000 1000;" xml:space="preserve">
<style type="text/css">
	.st0{fill:#6E3720;}
	.st1{fill:#FB9A7A;}
	.st2{fill:#E00000;}
	.st3{fill:#7F0000;}
	.st4{fill:none;}
	.st5{fill:#CBB89A;}
	.st6{fill:#800000;}
	.st7{fill:#7A99AC;}
	.st8{fill:#2B5260;}
	.st9{fill:#B5FBF8;}
	.st10{fill:#FEFEFE;}
	.st11{fill:#C0FEFE;}
	.st12{fill:#7F7F7F;}
</style>
<g>
	<path d="M836,538.6c-4.5-6.8-10.5-11-18.8-12.4c-5.9-1-11.7-3.8-17.7-2.5c-11.5,2.4-22.8,5.5-33.6,10.4c-0.8,0.3-2,1.7-2.8,0
		c-3.1-6.2-8.2-5.3-13.6-4c-1.9,0.5-3.5,0.5-4.5-2.2c-5.8-15.6-10.5-31.5-14.7-47.5c-1-3.8,0.7-4.6,3.1-4.7
		c5.5-0.1,8.8-3.1,11.5-7.2c8.1-12.6,12.3-25.9,6.2-40.7c-0.3-3.5-2.8-5-5.3-6.5c-0.1-0.1-0.2-0.2-0.4-0.2c-0.3-0.2-0.6-0.4-0.9-0.6
		c-3.4-1.8-6.9-2.8-10.8-2.9c-5.5-0.2-11.1,0-16.6-0.1c-0.5,0-0.9,0-1.4,0.1c-0.3,0-0.7,0-1,0c-1.5,0-3.1,0-4.6-0.2h0
		c-0.3,0-0.6-0.1-0.9-0.2c-0.5-0.2-0.9-0.4-1.3-0.8c-6.6-6.5-14.8-9.1-23.6-10.6c-0.1,0-0.2,0-0.2,0c0,0,0,0-0.1,0
		c-3.9-1.1-9.1-0.5-10.2-5.8c-0.1-0.4-0.1-0.8-0.2-1.3c0-0.1,0-0.2,0-0.2c0-0.1-0.3-0.1-0.4-0.2c-2.5,2.5-4.6,5.2-8.6,5.5
		c-6.3,0.5-12.6,1.7-18.9,2.2c-0.1,0-0.3,0-0.4,0c-0.1,0-0.2,0-0.2,0c-3.8,0.7-7.7,1.2-11.5,1.7c-0.1,0-0.2,0-0.3,0
		c-0.1,0-0.3,0-0.4,0c-4.1,0.6-8.1,1.8-12.1,2.9c-4.6,1.3-8.3,5.4-13.7,4.1c-0.8-0.2-1.4,0.8-1.6,1.6c-1.4,5.2-5.5,6.3-10.1,7
		c-10.4,1.5-20.8,0.4-31.2,0.8c-5.1,0.2-10,0.7-13.8,4.4c-0.2,0.2-0.3,0.3-0.5,0.5c0,0,0,0,0,0c-4.1,7.2-6,14.7-3.1,22.9
		c0.1,11.7,2,22.3,15.3,26.5c0.9,0.3,2,1.5,2.2,2.4c1.8,7.5,4.5,15,4.8,22.5c0.5,11,2.1,22,0.5,33.2c-1.3,9.3-2.6,18.5-5.2,27.4
		c-2.5,8.6,2,17.4,12.2,16.8c9.8-0.6,19.7-0.2,29.5-0.7c12.1-0.6,24.2-1.2,36.4-1.3c12.3-0.1,24.6,0.5,36.9,0.9
		c16.3,0.5,32.5,0.2,48.8,0.1c6.8-0.1,13.7-0.6,20.1-3c1.8-0.7,3.1-0.8,5-0.2c9.3,2.9,19.1,3.4,28.7,4.1
		c16.2,1.3,31.2-2.9,45.7-10.4C838.5,565,843.5,550.1,836,538.6z M759,554.6c1.7-0.2,3.5-0.7,4.8-1.6c11.5-8.5,25.1-11,38.5-14
		c4.8-1.1,8.9-0.7,13.2,1.5c6.6,3.3,7.8,12.9,0.8,17.3c-8.3,5.2-17,8-26.6,8.6c-2.6,0.2-4.9,1.8-7.6,1c-7.9-1.1-16-1.4-23.8-3.9
		c-3-1-3.5-3.4-3.4-6C754.9,554.5,757,554.9,759,554.6z"/>
	<path class="st0" d="M645.6,407.1c-3.8,1.5-7.9,1.5-11.9,2c-5.4-7.2-8.8-15.5-12.3-23.7c-1.4-3.2,0.3-6.7,0.8-10.1
		c1.5-10.1-5.1-19.5-15.3-20.5c-12.8-1.2-25.4-2.8-38.1-4.5c-12.2-1.6-22.9,2.9-30.8,13.2c-7.5,9.8-10,21.2-10.1,33
		c-0.1,13.4,7.9,22.6,18.7,29.6c1.6,1,3.7,1.5,4.2,3.7c-4.3,6.9-4.1,14.7-4.1,22.4c-7,18.8-16.1,36.6-25.3,54.4
		c-6.8,13.2-13.6,26.4-21.9,38.8c-4.6,6.9-11.7,10.5-20.7,3.4c-11.7-9.3-18.9-21.8-24.7-35.1c-4.2-9.6-8.1-19.5-11.3-29.5
		c-3.4-10.5-6.1-21.3-7.4-32.3c-1.1-9.2-3.8-18.4-2.7-27.6c1.8-14.9,4.5-29.7,8-44.4c5.2-22,16.2-41.4,26.3-61.2
		c8.5-16.6,13.7-34.6,20.1-52c5.8-15.7,13.1-30.3,25.6-41.8c9.7-8.8,20.7-11.5,33.6-9.4c8.1,1.3,16.1,2.7,23.1,6.5
		c23.3,12.5,43.9,28.5,61.3,48.6c-0.9,3.2-3,4.9-6.3,5.2c-6.2-4.5-11.2-10.3-16.9-15.4c-11.8-10.6-24.3-20.2-38.3-27.6
		c-10.8-5.7-22.1-9.4-34.7-6.6c-5.6,1.2-10.5,3.6-14.3,7.8c-7.8,8.4-14.9,17-19.3,27.9c-3.9,9.7-7.8,19.3-10.5,29.4
		c-4.7,17.6-13.4,33.5-21.9,49.4c-6.6,12.4-11.9,25.3-15.3,38.9c-3.7,14.7-5.8,29.7-6.8,44.8c-2.6,37.9,9.6,72,27.9,104.3
		c1.9,3.4,4.3,6.5,7.2,9.2c4,3.8,6.9,3.4,10-1.2c2.3-3.5,4.8-7,6.7-10.8c11.5-23.5,24.5-46.3,33.7-70.9c1.9-5.2,2.9-10.7,4.6-15.9
		c0.8-2.5-0.3-4.2-2.1-6c-4-3.8-8.9-6.7-12-11.3c-10.4-15.6-12-32-4.5-49.1c1.5-3.3,1-5.3-1.8-7.5c-6.3-4.9-12.6-9.8-18.6-15
		c-1.2-1.1-3-2.1-2.4-3.9c0.6-1.8,2.7-1.6,4.3-1.5c7.5,0.3,13.7,3.8,19.4,8.2c6.5,5.1,6.4,5.3,12.4-0.6c3-3,6.5-5.4,10-7.8
		c1.5-0.9,3-1.5,4.5-2.3c2-1,4-2,6.1-2.7c7.2-2.8,14.6-3.6,22.1-1.3c2.6,0.8,5.3,1.5,7.9,1.9c4.2,0.9,8.5,1.7,12.8,1.6
		c2.7-0.1,5.5-0.1,8.2,0c1.1,0,2.1,0,3.2,0.2c2.2,0.6,4.5,0.8,6.8,1c2.4,0.6,4.9,1.1,7.1,2.1c6.9,3.3,11.6,8.6,14.4,15.7
		c0.5,1.7,0.9,3.4,1.3,5.1c0.3,2,0.3,4.1-0.1,6.1c-2.3,5.5-1.2,10.6,1.6,15.7c2.7,4.9,5.3,9.9,7.2,15.2
		C645.1,404,646.2,405.4,645.6,407.1z"/>
	<path class="st0" d="M794.5,394.3c-4.8,16.1-15,27.3-31,33c-1.5,0.5-3.5,0.9-4.7,0.3c-2.8-1.5-5.3-0.5-7.8,0.2c-2-2-3.9-4-5.9-6
		c0.1-0.3,0.2-0.5,0.3-0.7c1.7-3.6,5.6-3.8,8.8-4.2c23.3-2.8,38-27.1,28.7-48.9c-6.7-15.7-18-26.8-35.3-30.9
		c-5.2-1.3-10-0.8-14.7,1.4c-8,3.8-16.2,6.7-24.9,8.3c-5.6,1-11,2.9-15.8,6.1c-6.9,4.6-8.7,9.8-5.9,17.6c0.3,0.9,0.7,1.8,1.2,2.7
		c7.1,11.8,1.8,22.2-3.2,32.6h0c-0.2,0.4-0.4,0.9-0.6,1.3c-2-0.5-4-1.2-6.1-1.4c-3.6-0.3-5.9-1.3-3.9-5.5c0-0.1,0.1-0.2,0.1-0.2
		c0.1-0.5,0-1.1,0-1.7c0,0,0,0,0-0.1c0,0,0,0,0,0c0,0,0-0.1,0-0.2c0-0.2-0.1-0.3-0.1-0.5c-0.2-1.1-0.3-2.3,0.1-3.3c0,0,0-0.1,0-0.1
		c0.3-0.7,0.5-1.4,0.7-2.2c0,0,0,0,0,0c0,0,0,0,0,0c2-6.7,1-13.4-1.1-20c0-0.3-0.1-0.6-0.2-0.9c0.5,0.1,1,0,1.5-0.1
		c-1.5-1.9-0.6-4.3-1.2-6.8c-1,1.8-1.9,3.4-2.8,4.9c0,0.1,0.1,0.2,0.1,0.3c0,0,0,0-0.1,0c-3.4-1.1-6.4-2.8-8.9-5.3
		c-0.1-0.1-0.2-0.2-0.3-0.3c0,0,0,0,0,0c0,0,0,0,0,0c0.9-5.1,1.9-10.2,3.2-15.2c0,0,0,0,0,0c0.1,0,0.2-0.1,0.3-0.1
		c3-1,5.9-0.5,8.8,0.3c0.1,1.5-0.6,3.2-0.2,3.7c2-1.5,4.4-2.8,6.2-4.7c5.1-5,10.5-9.1,17.9-10.2c10.7-1.6,20.4-6.2,30.5-9.8
		c17.7-6.2,32.9-0.7,46.9,10.4c6,4.7,11.6,9.8,15.3,16.4C797.5,367.2,798.6,380.6,794.5,394.3z"/>
	<path d="M625.1,275.5c1.9-1.7,3.9-3.3,5.8-5c4-0.2,8.1-2.5,11.8,0.7c5.6,4.8,9.3,10.7,10.5,18c0.8,4.4,1.2,8.9,1.1,13.4
		c1.5,4.1-0.2,7.9-0.9,11.8c-4.4,10.6-10.6,12.5-21.9,6.6c-8.9-6-14.8-13.7-13.8-25.2c0-2,0.2-4.1,0.8-6c0.2-1.2,0.2-2.5,0.4-3.7
		C620.3,282.2,620.8,277.7,625.1,275.5z"/>
	<path d="M673.9,348.7c-2.9,1.5-5.8,0.9-8.7-0.2c-2.1,0.2-3.7-1.2-5.5-1.9c-1.4-0.7-2.8-1.4-4.1-2.1c-1.8-1.1-3.5-2.2-5.1-3.5
		c-3.2-2.8-4.7-6.3-4-10.6c1.1-5.2,5.6-7.4,9.1-10.6c2.5-1.5,4.4-4.1,7.6-4.3c2.4-0.7,4.7-1.5,7.2-2.1c7.9-1.8,11.4-0.2,14.3,7.4
		c2.3,5.9,3,12,0.3,18.3C682.6,344.2,679,347.3,673.9,348.7z"/>
	<path class="st0" d="M663.1,315.6c-2.2,1.6-4.5,3.2-6.7,4.8c-2.6-1.1-3.4-3.3-3.9-5.8c0.7-4,1.3-7.9,2-11.9
		C657.3,307,660.2,311.3,663.1,315.6z"/>
	<path class="st1" d="M683.7,407.1c1.6-5.5,2.9-11.2,5-16.5c2.3-5.8,0.9-10.8-1.7-15.9c-2.2-4.2-4.2-8.5-2.7-13.7
		c2-7,7.5-9.7,13.3-12.3c4.8-2.1,10-3.3,15.2-4.1c6.4-1,12.4-3.4,18-6.5c7.6-4.2,15.2-3.5,22.8-0.8c9.1,3.1,16.4,9,22.4,16.4
		c5.4,6.7,9.3,14,10.6,22.8c1.5,10-1.2,18.7-6.7,26.8c-3.5,5.1-7.9,9.2-13.6,12c-3.5,1.7-7,2.9-11.1,2.8c-3.8-0.1-7.2,1.4-10.1,3.8
		c-9.1-4.3-18.8-2.5-28.2-3c-2.8-1-4.3-3.2-5.3-6.3c-0.9,2.3-0.7,4.8-2.7,6.3C701.9,411.9,693.4,408.2,683.7,407.1z"/>
	<path class="st1" d="M550.8,429.8c-10.7-5.4-19.9-12.6-22.9-24.6c-3.7-14.9-0.3-29,8.4-41.5c9.9-14.2,24.2-17.1,40.1-13.7
		c7.9,1.7,15.8,2.5,23.9,2.8c5.9,0.2,12,0.4,17,5.2c6.7,6.6,7.6,14.2,5.2,22.5c-0.8,2.8-0.2,4.9,0.9,7.3c3.3,7.1,7.6,13.8,10.1,21.3
		c-8,1.3-15.7,3.5-22.5,8c-2.2,1.5-2.9,0.4-4-1.2c-0.7,4.9-4.9,8.3-9.6,9c-11.6,1.7-23.3,0.6-34.9,0.9
		C558.3,425.9,554.2,426.8,550.8,429.8z"/>
	<path class="st2" d="M716.7,478.6c3.3,10.6,6.8,21.2,9.8,31.9c2.2,7.5,5.1,14.7,6.4,22.7c-18.4,2.3-36.8-0.9-55.1-0.1
		c-11.7-1-23.3,0.3-35,0.4c-8.6,0.1-17.2,0.3-25.8,1c-6.3,0.6-12.6,0.7-19,1c-9.5,0.5-12.7-3.7-10.7-13c2.5-11.4,6.6-21.8,16.9-28.6
		c4.8-3.2,10.1-5.3,15.6-6.8c15.1-4.1,30.4-6.4,46.1-7.4c14.1-0.9,28.2-1.3,42.3-2.5C711.1,477,714.2,476.4,716.7,478.6z"/>
	<path class="st2" d="M589.9,434.7c1.9-1,4.1-1.1,6.2-1.1c24.7,0,49.3-0.7,74-1.3c18.3-0.4,36.6-0.2,55-0.7
		c9.1-0.2,13.7,2.1,11.6,13.2c-1.1,5.6-2.3,10.8-5.1,15.8c-1.5,2.8-3.5,5-6.8,4.1c-7.8-1.9-15.8,0.3-23.5-2
		c-13.8-1.8-27.8-2-41.6-3.3c-6.8-0.6-13.6-0.9-20.4-1.7c-10.9-1.1-21.7,0.7-32.6,1.1c-7.6,0.3-15.2,1.1-22.8,2.2
		c-5.3,0.8-10.4-0.8-14.6-4.3c-6.3-5.1-5.3-14.4,1.8-18.3C576.9,435.3,583.5,435.6,589.9,434.7z"/>
	<path class="st3" d="M716.7,478.6c-15.8,0.8-31.6,1.6-47.4,2.5c-12.1,0.8-24.1,1.8-36,4.3c-10.4,2.2-20.8,4.4-29.7,10.9
		c-7.6,5.5-11.1,13.2-13.7,21.6c-0.3,1.1-0.6,2.2-0.9,3.3c-2.8,11,0.8,14.9,12.2,12.8c3.1-0.6,6.1-0.6,9.1-0.8
		c20.7-1.3,41.5-0.9,62.3-0.9c1.7,0,3.6-0.6,5.1,0.8c-10.5-0.1-21.1,0.7-31.6,1.3c-17.5,1-35.2,0.7-52.6,3.6c-1.4,0.2-3,0.2-4.4,0
		c-2.6-0.4-5.6,2.7-7.2,0.3c-1.2-1.7,0-5,0-7.5c0.3-16.2-1.4-32.2-5.3-48c-0.8-3.2,0.7-4,2.9-4.2c13-1.3,25.7-4.5,38.8-5.1
		c12.7-0.6,25.4-2.7,38.1-2.6c15.8,0.1,31.6,1.3,47.2,3.6c3.3,0.5,6.8-0.1,10.1,1C715.5,476.1,716.9,476.5,716.7,478.6z"/>
	<path class="st2" d="M704.2,550.7c4.7,0,9.4,0.4,14.1,0c6.4-0.5,12.4,1.4,18.6,2.3c3.6,0.5,6.1,2.6,6.1,6c0,3.5-1.4,7-5.2,8.5
		c-2.1,0.8-4.2,1.6-6.4,1.8c-20.2,1.8-40.5,1.7-60.7,0.8c-16.9-0.8-33.7,0-50.5-0.8c-1.6-0.7-3.2-0.2-4.8-0.4
		c-2.2-0.3-4.2-0.8-4.8-3.4c-0.5-2.4,0.6-4.1,2.4-5.5c2.4-1.8,5.2-2.6,8-3.5c9.4-3.1,19.2-3.3,28.9-4c17.3-1.1,34.6-2.6,52-2.1
		C702.6,550.3,703.4,550.3,704.2,550.7z"/>
	<path class="st4" d="M816.3,557.8c-8.3,5.2-17,8-26.6,8.6c-2.6,0.2-4.9,1.8-7.6,1c-7.9-1.1-16-1.4-23.8-3.9c-3-1-3.5-3.4-3.4-6
		c0-2.9,2.1-2.6,4.1-2.8c1.7-0.2,3.5-0.7,4.8-1.6c11.5-8.5,25.1-11,38.5-14c4.8-1.1,8.9-0.7,13.2,1.5
		C822.1,543.8,823.3,553.4,816.3,557.8z"/>
	<path class="st5" d="M645.6,407.1c-3.8-7.8-7.7-15.7-11.4-23.5c-1.9-4-1.7-7.9,0.7-11.6c5.3-2.9,11.1-3,17-2.8
		c0.8,0,1.6,0.3,2.4,0.4c16.3,2.7,22.7,12.2,19.6,29c0,0,0.1-0.1,0.1-0.1c-1.6,5.6-5.8,6.8-11.1,7
		C657,405.6,651.4,407.7,645.6,407.1z"/>
	<path class="st2" d="M621.2,539.2c3.8-1.4,7.7-0.9,11.6-1c25.2-1,50.4-2.8,75.7-2.2c4.9,0.1,9.5,1.8,15,0.9
		c-2.3,4-2.2,7.4,1.7,11.1c-9-0.5-16.8-0.9-24.6-1.5c-11-1-22-1.2-32.9,0.1c-5.6,0.7-11.3,0.7-16.9,0.9c-16.3,0.5-32.4,3-48.7,3.2
		c-0.5,0-1-0.1-1.5-0.1c-0.5-0.1-1-0.1-1.4,0c-2.7,0.2-5.2-0.4-5.8-3.3c-0.6-3,2-4.3,4.2-5.1c3.7-1.3,7.5-1.9,11.4-2.2
		C613.1,539.8,617.1,539.7,621.2,539.2z"/>
	<path class="st3" d="M589.9,434.7c-5,1.6-10.4,1.8-15.4,3.8c-6.3,2.5-8.4,4.8-8.1,10c0.3,5.1,3.8,8.7,9.2,10.6
		c5.2,1.8,10.4,0.8,15.3-0.2c5.6-1.2,11.3-1,16.9-1.4c7.5-0.6,15.2-1.5,22.8-1.2c16,0.5,31.9,2.1,47.8,3.7
		c7.1,0.7,14.1,1.1,21.2,2.2c0.6,0.1,1.1,0.5,1.7,0.8c-17.2-1.1-34.4-1.5-51.5-0.7c-17.5,0.8-35.1,1-52.6,3.5
		c-9,1.3-18.2,2-27.3,3.1c-7.6,0.9-10.8-1.8-12-9.8c-0.8-5.1-0.2-10.4,1.3-15.3c1.1-3.7,3.4-6.3,7.7-7.1
		C574.5,434.9,582.1,434.2,589.9,434.7z"/>
	<path class="st6" d="M704.2,550.7c-11-0.5-22.1,0.4-33,1.3c-16.5,1.3-33.2,1.7-49.4,5.7c-2.5,0.6-4.8,1.8-7.2,2.8
		c-1.9,0.8-3.5,2-3.2,4.4c0.3,2.6,2.6,3.1,4.6,3.5c1.4,0.3,3-0.4,4.1,0.9c-12.1,0.7-24.2,1.5-36.3,2c-7.1,0.3-7.9-0.8-6.8-7.6
		c1.4-8.2,1.4-8.2,12.5-8.9c12.4-0.7,24.9-1.1,37.3-2c14-1.1,28.1-1.2,42.1-2.1c10.2-0.7,20.4-0.3,30.6-0.7
		C701.1,549.8,702.9,549.3,704.2,550.7z"/>
	<path class="st7" d="M755.9,570.3c-0.4-3.1,0.3-4.1,3.8-3c8.8,2.7,18,3.6,27.1,2.9c11.1-0.9,22.4-1.5,31.7-8.7
		c4-3.1,8.2-6.4,7.4-12.1c-1-6.9-7.7-12.9-13.7-14.4c-7.6-1.9-14.5,0.9-21.4,2.8c-8,2.1-15.8,4.6-23.6,7.4c-2.7,1-4.2,0.3-5.2-1.7
		c-1.2-2.3,0.8-3.6,2.6-4.4c10.3-4.7,21-8,32.2-9.9c7.5-1.3,14.7-0.7,21.8,1.2c4.7,1.2,8.8,3.6,10.4,8.8c-1.7,0.4-2.8-0.7-3.9-1.6
		c-8.2-6.1-17.2-8-27.2-6c-7.7,1.5-15.3,3.1-22.1,5.9c9.6-3,19.8-5.8,30.6-5.5c8.6,0.3,16,3.1,20.6,10.9c3,5.1,4.2,10.5,1.3,16.2
		c3.3-2.7,2.6-7.2,4.9-10.3c3,6.5-1.6,14.6-7.6,18c-11,6.3-22.6,10-35.4,9.6c-10,0.2-19.9-1.1-29.6-3.7
		C758.8,572.2,757,571.9,755.9,570.3z"/>
	<path class="st5" d="M612.5,424.8c16.9-11.5,71.4-14.4,86.6-4.9c-7,0.2-13.5,0.2-20,0.9c-15.9,1.7-31.9,2.8-47.9,4
		C625.4,425.1,619.5,424.8,612.5,424.8z"/>
	<path class="st8" d="M753,549.9c-7-1.9-15.1-1.3-22.2-5.3c-1.2-0.7-3.1-0.8-3-2.7c0.1-1.8,2-2,3.2-2.6c7-3.1,14.5-4,22-5
		c3.9-0.5,5.5,2.2,4.2,6c-0.6,1.6-2.1,3-0.6,4.9c0.8,1,2.8,1.7,1.6,3.5C757.1,550.4,755.3,549.6,753,549.9z"/>
	<path class="st9" d="M833.1,548.7c0.5,6.3-2.5,10.8-8,14.8c1.5-4.7,4.4-8.2,3.6-12.8c-2.1-11.3-10.6-17-21.7-17.5
		c-11-0.5-21.3,2.8-31.7,5.4c-0.9,0.2-1.9,0.3-3.9,0.6c8.4-6,17.3-7.2,26-8.9c4.7-0.9,9.4-1.3,14.3-0.2c6.7,1.5,12.4,4.4,17.3,9
		C831.2,542,833.3,544.8,833.1,548.7z"/>
	<path class="st3" d="M621.2,539.2c-5.9,0.9-11.9,1.9-17.8,2.8c-0.5,0.1-1,0-1.4,0.1c-2.9,1.1-7.3,1.1-7.6,4.7
		c-0.3,3.3,4.4,2.2,6.3,3.8c-1.5,1.2-3.3,1.2-5.1,1.1c-2.6,0-5.2-0.2-7.8,0.1c-8.4,1-9.3,0-6.6-8.2c0.9-2.7,3.6-2.3,5.3-2.4
		C598,540.7,609.5,538.1,621.2,539.2z"/>
	<path class="st8" d="M755.9,570.3c11.3,2.9,22.8,4.3,34.3,6c-4.2,1.9-8.6,1-12.8,0.7c-6.5-0.5-13-1.7-19.4-3
		C756.4,573.7,753.5,573.1,755.9,570.3z"/>
	<path class="st0" d="M708.9,418.8c0.6-2.8,0.9-5.7,2.5-8.4c1.8,2.9,3,6.1,5.5,8.4C714.2,418.8,711.5,418.8,708.9,418.8z"/>
	<path class="st1" d="M625.1,275.5c-2.2,3.3-4,6.9-5.2,10.7c-2.8,0.3-4.4-1.7-6.3-3.2c-6.9-5.6-14.7-9.6-23-12.5
		c-9.4-3.3-17.5-0.6-23.7,7.3c-13.2,16.8-20.2,36-22.7,57.1c-0.4,3.4-0.4,6.8-2.2,9.9c-5,4.7-11.2,8.1-14.9,14.2c-1,1.7-2,0.7-3-0.3
		c-4.7-4.1-9.5-8.1-15.4-10.6c-4.2-1.9-8.4-2.9-13.9-2c6.5,5.3,12.5,10.3,18.5,15.2c0.2,0.2,0.6,0.2,0.9,0.4
		c7.1,5.2,6.8,5.1,3.7,13.4c-6.3,16.7-4.1,32.6,6.3,47c3,4.2,7.8,7.2,11.9,10.5c1.7,1.4,2.6,2.3,2,5c-3.1,13.7-8.2,26.6-14.1,39.2
		c-7.5,16-15.7,31.7-23.8,47.5c-2.3,4.4-5,8.6-7.7,12.7c-4,6.1-8.1,6.4-12.9,0.7c-7.1-8.6-12.2-18.4-16.9-28.4
		c-8.4-18-12.8-37.2-17-56.3c-1.5-6.9-2.5-14.2-0.9-21.5c1.2-5.1,0.5-10.6,1.1-15.9c1.7-15,4.1-29.8,8.2-44.3
		c5.4-18.9,15.8-35.4,24.5-52.7c6.4-12.7,9.6-26.4,14.3-39.7c5-14.2,9.9-28.5,20.9-39.7c3.1-3.2,5.6-7.1,9.4-9.7
		c9.4-6.5,19.8-7.1,30.4-4.2c18.1,4.8,32.9,15.5,47,27.4C609.3,259.8,617.9,266.9,625.1,275.5z"/>
	<path class="st10" d="M619,295.9c-0.5,9.7,3.2,17.2,11.4,22.5c0.6,0.4,1,1.2,1.5,1.8c-3.2,10.2-9.1,18.2-18.6,23.4
		c-2.3,0.1-4.7,0.7-6.8-0.9c-0.5-0.4-0.9-0.9-1.3-1.4c-5.3-6.6-9.7-7.5-17.3-3.5c-2,1-3.6,2.8-6,3c-3.7,0.9-6.9-1.2-10.2-2
		c-7-1.8-13.5-0.5-20,1.9c-1-1.2-0.5-2.5-0.2-3.7c5.1-17.7,14.6-32.9,26.9-46.3c5.3-5.8,12.4-7.7,20.1-6.5
		C606.8,285.3,613.9,289,619,295.9z"/>
	<path class="st11" d="M619,295.9c-5.7-3.9-10.8-8.6-18-10.2c-9.8-2.1-17.7,1-24.4,8.8c-5.3,6.2-9.6,13-14,19.7
		c-5.3,8.1-8,17.3-10.8,26.4c-1.9,0.7-3.9,1.5-5.8,2.2c-1.5-1.3-1.1-2.9-1-4.5c2-21.4,9.7-40.6,23.1-57.5
		c7.5-9.5,17.6-13.9,29.5-6.9c8,4.7,16.2,8.9,22.3,16.1C618.7,291.8,619.4,294,619,295.9z"/>
	<path class="st10" d="M620,290c-8.2-5.2-15.7-11.3-24.4-15.8c-11.2-5.9-20.5-0.2-25.8,6.4c-11.9,14.7-19.5,31.5-22.7,50.2
		c-0.7,4-0.8,8-1.2,12c-1.1,1.1-2.3,1.8-3.9,1.9c1.2-24.3,8-46.6,22.7-66.3c3.4-4.6,7.6-8,13.1-9.9c6.3-2.2,12-0.1,17.6,2.4
		c8.9,3.8,17,9,24.4,15.2C620,287.4,620,288.7,620,290z"/>
	<path class="st10" d="M647.3,330.1c-0.4,4.2,1.1,7.8,4.1,10.6c-0.7,7.9-10.7,19.1-17.7,19.7c-3.1-6.2-7.5-11.2-13.6-14.7
		c5.6-7,13.2-11.4,21.3-14.7C643.2,330.3,645.1,328.6,647.3,330.1z"/>
	<path class="st1" d="M647.3,330.1c-10.4,2.8-18.7,9.4-27.2,15.7c-2.3-0.7-4.6-1.5-6.9-2.2c8-6.4,14-14.4,18.6-23.4
		c0.9,0.3,1.8,0.6,2.6,1c8.6,4,12.8,2.4,18-6.6c1.3,1.9,2.6,3.9,3.9,5.8C653.6,323.8,648.9,325.5,647.3,330.1z"/>
	<path d="M673.8,398.3c0,0.1,0,0.1,0,0.2c0-0.1,0-0.3,0-0.4c0-1.3,0-2.5,0-3.7c-0.4-6.2-2.1-12.1-5.3-17.7c-1.8-3.1-4.5-3.8-7.3-4.6
		c-8.1-2.1-16.2-2.4-24.3-0.1c-0.4,0.1-0.8,0-1.2,0c-0.2,0-0.5-0.1-0.7-0.1c0-2.3,0-4.5,0-6.7c0.2-0.3,0.5-0.5,0.8-0.7
		c1.2-1,2.8-1.2,4.3-1.4c0.4,0,0.7,0,1.1,0c0.8,0,1.5-0.1,2.2-0.2c0,0,0,0,0,0c2-0.3,4-0.8,6.1-0.9c0.1,0,0.2,0,0.3,0
		c0.3,0,0.6,0,0.9,0c3.8,0.1,7.8-0.8,11.1,1.9c0,0,0,0,0,0c0.1,0.1,0.3,0.2,0.4,0.3c3.5,0.7,6.2,2.8,8.7,5c0,0.1,0.1,0.2,0.1,0.3
		c0.6,1.1,1.4,1.5,2.4,1.7c0.5,0.1,1,0,1.5-0.1c0.1,1.6,0.1,3.2,0.8,4.7C679.4,383.6,675.6,390.8,673.8,398.3z"/>
	<path class="st11" d="M639.7,364.1c-1.7,0.1-3,1.7-4.8,1.1c-1.2-1.4-1-3.1-1.1-4.8c8.8-4,13.7-11.4,17.7-19.7
		c1.6,1.1,3.2,2.1,4.8,3.2c1.8,4.1-0.7,7.3-2.7,10.1C650.1,358.8,645.6,362.5,639.7,364.1z"/>
	<path d="M581.9,340.7c6.1-5.7,14.4-8.9,19.8-4.7c2.2,1.7,5.1,3.2,4.8,6.7c-1,0-2,0-3,0c-5-4.3-5-4.3-8.7,0
		C590.4,342.9,586,342.5,581.9,340.7z"/>
	<path class="st10" d="M594.8,342.7c-0.4-2.6,0.8-4.6,3.4-4.7c3-0.2,4.8,1.7,5.3,4.7C600.6,342.7,597.7,342.7,594.8,342.7z"/>
	<path class="st1" d="M662,364.2c-4.1-1.3-8.4-0.6-12.6-1c-0.3-1.1,0.1-2,0.8-2.6c4.5-4.1,5.9-10.3,9.9-14.7c1.8,0.7,3.6,1.3,5,2.7
		C665.4,354,664.2,359.2,662,364.2z"/>
	<path class="st4" d="M673,370c-0.5-0.4-1.1-0.7-1.8-0.8c0.8-0.5,1.3-1,1.5-1.6C672.8,368.3,672.9,369.1,673,370z"/>
	<path class="st4" d="M671.3,369.2c-0.1,0.1-0.3,0.2-0.4,0.2c0-0.1-0.1-0.2-0.1-0.3C670.9,369.2,671.1,369.2,671.3,369.2z"/>
	<path class="st4" d="M674.8,371c-0.5,0.1-1,0.1-1.5,0.1c-0.1-0.4-0.2-0.7-0.2-1.1C673.6,370.4,674.2,370.8,674.8,371z"/>
	<path class="st4" d="M673.3,371.1c-1-0.1-1.8-0.6-2.4-1.7c0.2-0.1,0.3-0.1,0.4-0.2c0.6,0.1,1.2,0.4,1.8,0.8
		C673.1,370.4,673.2,370.7,673.3,371.1z"/>
	<path class="st4" d="M674.8,371c-0.6-0.3-1.1-0.7-1.7-1c-0.2-0.9-0.3-1.7-0.3-2.4c-0.2,0.5-0.7,1.1-1.5,1.6c-0.2,0-0.4,0-0.5,0
		c0.9-1.5,1.8-3.1,2.8-4.9C674.2,366.8,673.2,369.1,674.8,371z"/>
	<path class="st12" d="M645.5,285.7c4.6,6.3,5.3,22,1.9,27.1c-0.8,1.2-1.7,1.8-3.2,1.5c-6.6-1.4-8.6-6.3-4.8-11.9
		C642.6,297.6,645.1,292.5,645.5,285.7z"/>
	<path class="st12" d="M680.7,323.4c1.9,5.5,2.5,9.6,0.8,13.8c-2.3,5.7-8.4,8.2-13.8,5.4c-2.8-1.4-4-3.5-0.9-6c1-0.8,2-1.7,3.2-2.1
		C674.7,332.5,678.9,330.1,680.7,323.4z"/>
	<path class="st10" d="M660.1,345.9c-2.1,6.7-5.9,12.3-10.7,17.3c-3.3,0-6.4,1.9-9.7,1c3.2-2.7,7.1-4.5,10.1-7.5
		c3.7-3.5,5.8-7.7,6.5-12.7C657.6,344.6,658.8,345.2,660.1,345.9z"/>
	<path class="st10" d="M716.4,491.7c2.1,7,4.5,14,6.2,21.1c1,4.4,2.9,8.3,4.5,12.4c0.9,2.3,3.3,4.6,0.1,6.7
		c-2.3,1.5-8.5-1.1-9.2-3.9c-1-3.8-1.8-7.8-2-11.7c-0.3-8.1-0.1-16.3-0.1-24.4C716,491.9,716.2,491.8,716.4,491.7z"/>
	<path class="st10" d="M629.5,437.1c14-1.9,27.9-2.5,41.9-2.6c16.8,0,33.6-0.6,50.5-0.9c7-0.1,11.9,3.8,11.4,8.7
		c0,0.3-0.3,0.6-0.3,0.9c-0.9,3.2-1.7,6.4-2.7,10.1c-11.7-12.2-26.7-13.5-41.9-13.8c-13.6-0.3-27.1-1.2-40.7-1.3
		C641.7,438.2,635.5,437.8,629.5,437.1z"/>
	<path class="st10" d="M717.4,541.5c-17.2,0-34.5-1.2-51.7-1.8C683,537.7,700.2,536.9,717.4,541.5z"/>
</g>
</svg>
