<?xml version="1.0" encoding="utf-8"?>
<!-- Generator: Adobe Illustrator 23.0.1, SVG Export Plug-In . SVG Version: 6.00 Build 0)  -->
<svg version="1.1" id="Layer_4" xmlns="http://www.w3.org/2000/svg" xmlns:xlink="http://www.w3.org/1999/xlink" x="0px" y="0px"
	 viewBox="0 0 1000 1000" style="enable-background:new 0 0 1000 1000;" xml:space="preserve">
<style type="text/css">
	.st0{fill:#6E3720;}
	.st1{fill:#FB9A7A;}
	.st2{fill:#E00000;}
	.st3{fill:#7F0000;}
	.st4{fill:none;}
	.st5{fill:#CBB89A;}
	.st6{fill:#7A99AC;}
	.st7{fill:#2B5260;}
	.st8{fill:#B5FBF8;}
	.st9{fill:#FEFEFE;}
	.st10{fill:#C0FEFE;}
	.st11{fill:#7F7F7F;}
	.st12{fill:#00407F;}
</style>
<g>
	<path d="M860.2,550.6c-1.2-10.1-7.3-17.9-16-23c-7-4.1-15.2-4.9-22.9-4.9c-15.6,0-30.4,4.5-44.8,10.5c-0.9,0.4-2.1,2.1-2.9,0.5
		c-3.1-6.4-9.1-6.4-14.1-5c-6.2,1.6-6.6-2.5-8.4-5.8c-0.2-0.4,0-1-0.2-1.4c-5.2-16.1-10.4-32.2-15.6-48.2c3.5-1.7,7.6-0.9,10.9-3.1
		c7.4-5,11.4-12.1,14-20.6c3.2-10.6,3.8-20.7-2.4-30.5c-1-3.2-3.5-4.9-6.3-6.2c-1.8-0.8-3.6-0.9-5.5-1.2c-0.4-0.1-0.8-0.1-1.2-0.2
		c-0.6-0.1-1.2-0.3-1.8-0.5c-8.1-0.7-16.2-0.2-24.3-0.3c-0.9,0.2-1.8,0.2-2.7,0.2c-0.7,0-1.3-0.1-2-0.3c-2.3-0.5-4.4-1.6-6.5-3.1
		c-0.1-0.1-0.3-0.2-0.4-0.3c-0.1-0.1-0.2-0.1-0.3-0.2c-8.2-5-17.1-7.6-26.5-8.9c-0.2,0-0.4-0.1-0.6-0.1c-0.1,0-0.2,0-0.3,0
		c-4.1-0.3-8.5-0.2-10.8-4.5c0,0,0,0,0-0.1c0,0,0-0.1,0-0.1c0,0,0,0,0,0c0,0-0.1-0.1-0.1-0.2c0,0,0,0,0,0c-9,4.3-18.8,5-28.5,5.7
		c-0.3,0-0.6,0-0.9,0.1h0c-4-0.3-7.9,0.9-11.8,1c-0.1,0-0.3,0-0.4,0c-0.2,0-0.3,0-0.5,0c-1.6,0.1-3.2,0.5-4.8,0.9
		c-5.6,1.5-11.2,3.3-16.8,4.6c-4.3,1-7.1,2.9-9.8,5.9c-3.1,3.2-6.8,4.9-11.5,5.4c-9.9,1.1-19.8,0.5-29.6,0.7
		c-4.9,0.1-9.7-0.1-14.5,1.2c-0.5,0.1-1.1,0.2-1.6,0.4c-0.3,0.1-0.5,0.2-0.7,0.2c-3.1,1.1-5.4,3.3-6.9,6.4c-0.1,0.1-0.1,0.3-0.2,0.4
		c0,0-0.1,0.1-0.1,0.2c-1.4,2.8-2.6,5.6-3,8.7c0,0.2,0,0.3,0,0.5c0,0.8,0,1.7-0.1,2.5c-0.1,3.7-0.3,7.4,0,11
		c0.4,4.5,0.4,9.1,3.4,12.9c3,6.2,7.6,10.5,14.5,12.1c1.6,0.4,2.5,1.6,3.2,3.6c3.6,10.7,5.2,21.7,6.8,32.8c1.5,10.8,0.9,21.4-1,32
		c-1.5,7.9-3.7,15.6-5.7,23.3c-1.8,6.7,1.3,14.2,6.6,15c3.3,0.5,6.5,1.4,9.9,1.2c10.6-0.7,21.3,0.4,32-0.9c9.4-1.1,19-0.5,28.6-0.8
		c15.3-0.5,30.8,0.4,46.1,0.3c28.9-0.2,58.2,4.1,86.8-3.5c0.9-0.2,2-0.2,2.9,0c16.2,4,32.5,6,49.3,3.9c13.9-1.7,27.5-4.2,39.3-11.9
		C856.1,565,861.1,558.8,860.2,550.6z M768.4,554.6c2.7-0.5,5.6-0.8,7.1-3.9c0.7-1.4,2.5-1.5,4-2c9.3-3.3,18.5-7,28.1-9
		c8-1.6,16.2-4.7,24.6-0.7c4.7,2.2,6.4,6.4,7.5,10.7c0.9,3.6-1.9,6-4.8,8c-6.8,4.6-14.8,6.1-22.5,7.6c-6,1.2-12.2,2.4-18.5,2.4
		c-8.5-1.1-17-2.2-25.5-3.4c-4-0.6-4.5-3.9-4.5-6.9C763.8,554.9,766.4,555,768.4,554.6z"/>
	<path class="st0" d="M528.3,434.5c-0.3,9.2,0,18.4,2,27.4c-4,11.3-8.1,22.5-12,33.8c-3.7,10.7-6.2,21.9-11.7,31.9
		c-2.6,4.8-5.5,9.5-11.5,11.5c-4.8,1.6-8.9,0.4-12.7-1.7c-8.3-4.6-14.3-12-19.3-19.7c-9.8-15-16.5-31.5-22.8-48.3
		c-7.7-20.7-10-42.2-8.7-64.1c0.8-13.5,4.7-26.4,9.9-38.9c7.3-17.6,16.8-34,26.1-50.5c6.4-11.4,10-24.2,14.7-36.3
		c7.5-19.4,16.1-38.3,28.9-54.7c6.8-8.8,14.8-17.2,25-22.5c10.1-5.2,20.7-5.3,31.5-2.2c16.9,4.9,31.3,13.8,44.5,25.5
		c10.8,9.5,19.4,20.9,29.2,31.2c-1.3,3.3-3.8,4.8-7.3,4.9c-2.7-1.9-4.6-4.6-6.5-7.2c-12.4-15.9-28-28.2-44.9-38.6
		c-9.9-6.1-21.1-9.6-33.1-6.7c-4.8,1.1-9.1,3.5-13.1,6.4c-13.8,9.8-22.5,23.7-30.4,38.2c-5.9,10.9-10.4,22.4-14.7,34
		c-8.3,22.7-19.7,43.9-30.2,65.6c-7.4,15.4-13.8,31.3-16.2,48.4c-1.7,12-1.6,23.9-0.3,35.9c2.5,23.7,12.3,44.6,23.2,65.3
		c3.1,5.9,5.8,12,10.6,16.9c0.8,0.8,1.4,1.8,2.2,2.6c6.5,6,11.7,8.4,16-3.2c9.6-26.3,20-52.3,27.7-79.2
		C525.3,438.1,525.1,435.2,528.3,434.5z"/>
	<path class="st0" d="M787.9,400c-7.4,10.5-16.8,17.8-30.1,19c-3.6-4.2-8.5-6-13.8-6.8c0.2-0.3,0.5-0.6,0.8-0.8
		c2.6-2.7,6.2-3.6,9.7-3.4c20.3,1.2,38-27.8,28.2-47.9c-8-16.4-20.5-26.4-38.3-30.1c-4.2-0.9-8.2-0.1-11.9,1.4
		c-12.1,4.7-24.3,9.2-37.3,11.2c-2.9,0.4-5.6,1.8-8,3.5c-5.3,3.6-7.2,9.4-4.9,15.3c0.6,1.5,1.2,3,2,4.4c4,6.9,4.3,13.9,0.2,20.8
		c-2.1,3.6-1.9,8.1-4,11.6c-0.2,0.4-0.5,0.7-0.7,1c-3.1,0.8-6-0.8-9.1-1c-2.9-0.2-1.3-3-1.8-4.7c0,0,0,0,0-0.1c0,0,0,0-0.1-0.1
		c0,0,0,0,0,0c0,0-0.1-0.1-0.1-0.2c-1.6-2.2-0.2-4.4,0.2-6.6c0.2-0.7,0.4-1.3,0.6-2c0.3-0.8,0.5-1.6,0.7-2.5v0
		c1.4-6.1,1.4-12.2-1.4-18.3c0-0.3,0-0.6-0.1-0.9c0.4,0.1,0.8,0.1,1.1,0.2c0.3-2.5-1.6-4.7-0.7-8c-1.8,2.1-3,3.6-4.3,5.1
		c0.1,0.1,0.2,0.2,0.2,0.4c-0.2,0.1-0.3,0.2-0.5,0.2c-4.5-1.2-9.5-1.1-13.5-4.2c0-0.1,0-0.2,0.1-0.2c0,0,0,0,0,0
		c0.7-1.7,2.2-2.5,3.5-3.5c4.7-3.4,7.4-7.9,8.1-13.7c0.2-1.4,0.2-2.8,1.3-3.7c0.1-0.1,0.3-0.2,0.4-0.3c0.2-0.1,0.4-0.2,0.7-0.3
		c2.9,0.2,5.8-0.1,8.4,1.7c1.1,2.3-1.3,4.2-0.5,6.7c5.4-4.1,10.4-8.5,16.5-11.3c4.3-2,8.6-3,13.2-3.5c7.9-0.9,15.2-4.2,22.6-6.6
		c20.1-6.5,36.9,0.2,52.7,12.1c8.5,6.4,15.4,14,18.6,24.2C801.5,373.8,796.8,387.5,787.9,400z"/>
	<path d="M634.9,261.8c2.2-1.6,4.5-3.2,6.7-4.8c8.8-1.7,16.8,4.6,18.7,13.7c1.3,6.3,0.2,12.3-0.3,18.4c0.4,4.7-1.3,8.8-3,13
		c-6.3,9.7-12.1,11.1-21.7,5.2c-8.1-7-12.6-15.5-11.3-26.5c0.5-1.9,0.9-3.7,1.5-5.6c0.4-1.1,0.8-2.2,1.3-3.3
		C629.2,268.2,630.2,263.5,634.9,261.8z"/>
	<path d="M673.7,336.9c-2.9,0.2-5.9,0.1-8.7-0.9c-1.8-0.4-3.6-1-5.3-2c-1.1-0.6-2.2-1.4-3.3-2.1c-1.9-1.3-3.4-2.9-5-4.5
		c-2.4-3.1-5-6-3.1-10.3c2-4.9,6.7-7,10.6-10c2.7-1.2,5.1-3.2,8.2-3.4c1.8-0.6,3.6-1,5.3-1.7c4.6-1.9,9.1-1.7,12.7,1.9
		c3.9,3.8,5,8.7,4.3,13.9C687.9,327.1,682.9,333.7,673.7,336.9z"/>
	<path class="st0" d="M667.1,303.7c-2.2,2-4.9,3.1-7.7,4c-2.2-1.5-2.9-3.6-3.1-6.1c1.3-4.2,2.5-8.4,3.8-12.6
		C662.3,293.9,664.7,298.8,667.1,303.7z"/>
	<path class="st1" d="M634.9,261.8c-3,3.2-5.1,6.9-7.1,10.7c-2.3,0.3-3.4-1.5-4.8-2.8c-6.8-6.1-14.3-11.1-22.8-14.7
		c-5.3-2.2-10.1-1.7-15,0.7c-6.7,3.1-11.9,8.1-16.1,13.9c-12.1,16.6-20.8,34.7-25.3,54.9c-0.7,3.3,0.5,6.5-0.4,9.6
		c-4.9,3.8-11.1,5.2-16,9c-2.1,1.6-4-0.4-5.1-2.3c-1.9-3.1-3.9-6-6.7-8.3c-4.1-3.5-8.7-5.6-15-4.8c4.8,3.5,8.4,7.3,12.2,11
		c1.6,1.6,3.1,3.3,4.3,5.3c2.4,3.7,2.4,6.8-0.7,10.5c-9.6,11.9-13.3,25.3-10.1,40.6c1.9,9.1,7,15.8,13.7,21.8
		c3.7,3.3,8.2,5.8,11.1,10c-0.9,2.6-1.9,5.1-2.8,7.7c-4.4,10.6-6.9,21.8-10.8,32.6c-6.9,19.1-13.7,38.2-21.3,57.1
		c-2.5,6.2-7,5.6-11.2,3.2c-5.5-3.2-9.3-8.1-12.4-13.3c-8.6-14.7-16.3-29.9-22.1-45.9c-4.3-11.6-6.2-23.7-7.4-36.1
		c-1.5-14.5,0-28.6,3.3-42.5c2.7-11.5,7.1-22.6,12.3-33.3c10.9-22.7,23-44.9,31.7-68.6c4.4-12.2,9.2-24.3,15.5-35.7
		c8.3-15,17.7-29.1,32.4-38.9c10.7-7.1,21.8-7.2,33.5-3.3c15.8,5.3,27.8,16.3,40.2,26.6C620.9,243.8,628,252.7,634.9,261.8z"/>
	<path class="st2" d="M721.5,474.7c3.6,11.7,7.3,23.4,10.9,35.1c2.2,7.3,4.4,14.7,6.7,22.5c-21,2.3-41.7-1.2-62.3-0.2
		c-5.7-0.8-11.3,0.1-17,0c-21.3-0.2-42.5,0.9-63.8,1.5c-4,0.1-8,1.3-12.1,0.9c-8.6-0.8-11.1-4.3-9.4-12.6
		c4.4-22.4,18.5-35.1,40.3-39.8c18.8-4,37.7-6.4,57-7.3c14.3-0.7,28.6-0.1,42.8-1.7C717,473,719.6,472.8,721.5,474.7z"/>
	<path class="st1" d="M679.8,399.3c0.7-4.6,1.4-9.2,3.7-13.3c3.7-6.6,3.5-13-0.2-19.6c-2.2-4-4.7-8-3.1-13.1
		c2.4-7.9,8.7-11.2,15.8-12.3c11.3-1.8,22.2-5.1,32.5-9.7c8.1-3.6,16-4,23.7-1c15.5,6,27.3,16.2,32.9,32.5
		c4.5,13.1,0.4,24.6-7.7,34.9c-6,7.7-13.8,11.9-23.8,11.4c-3.5-0.2-6.3,2.3-9.5,3c-8.7-0.1-17.5-0.2-26.2-0.3
		c-4.1-0.8-6.8-3.3-8.7-6.9c-1.2,0.8-1,2.5-2.2,3.1c-4.9-2.1-9.6-4.4-14.8-6C688.1,400.8,683.9,400.4,679.8,399.3z"/>
	<path class="st1" d="M626.8,401.3c-7.7,2.2-15.5,3.8-23.2,6.5c-4.4,1.6-7,4.4-9.9,7.1c-5,4.4-11.1,3.5-16.8,4
		c-8.2,0.7-16.6,0.3-24.9,0.1c-4.4-0.1-8.6,0.8-12.9,0.9c-9.8-1.8-15-9.2-19.7-16.8c-7.3-12-5.6-24.6-0.3-36.5
		c6.4-14.2,17.1-23.5,33.1-25.7c4.3-0.6,8.4,0.2,12.6,0.9c8.6,1.3,17.1,3.4,26.1,2.1c5-0.7,10.4,0.8,15.3,2.6
		c8.8,3.2,14.3,14.2,11.7,23c-1.4,4.7-1.2,8.8,1.6,13c2.7,4,4.7,8.6,6.7,13C627.1,397.2,628.5,399.1,626.8,401.3z"/>
	<path class="st2" d="M579.2,428.8c10.9-1.7,22-0.4,32.9-1.3c19.1-1.6,38.3,0.3,57.3-1c18.2-1.3,36.3-0.2,54.4-0.8
		c5.2-0.2,10.3,0.7,15.4,1c4,0.2,4.5,3.7,4.7,6.3c0.7,9.1-2.2,17.4-7.8,24.6c-2.3,2.9-5.8,2.8-9,2.3c-7.3-1.2-14.7-1.2-22.1-2
		c-10.8-0.8-21.7-1.5-32.5-2.1c-15.7-0.9-31.4-3.1-47.2-2.9c-17,0.2-34.1,1.3-51.1,2.5c-5.5,0.4-11.1,0.5-16.4-1.6
		c-6-2.4-9.1-6.8-8.5-12.2c0.6-6,4.8-9.7,11.2-11C566.9,429.4,573,429.5,579.2,428.8z"/>
	<path class="st0" d="M626.8,401.3c-1.4-6.7-4.8-12.7-8.4-18.2c-3.1-4.9-3.8-9.3-1.5-14.4c3.5-7.8-5.5-21.1-13.6-22
		c-6.1-0.7-12-2.3-18.5-1.2c-7.6,1.3-15.3-1.5-22.8-2.9c-10.1-1.9-18.8,0.6-26.8,6.1c-11,7.6-16.9,18.6-18.6,31.6
		c-2.5,18.8,6.9,31,22.5,39.5c-3.7,1.2-6.6,3.2-8,7c-8.5-5.6-16.5-11.7-21.9-20.6c-5-8.3-6-17.5-5-26.9c1.1-10.9,6-20.2,13.4-28.2
		c1.5-1.6,0.4-2.7-0.2-3.9c-3.1-6.9-9-11.3-14.4-16.1c-1.5-1.4-3.2-2.6-4.4-4.3c9.8-3,18.8,3.9,23.1,10.7c0.9,1.4,1.9,2.6,2.6,4.1
		c0.9,1.7,2.1,1.5,3.1,0.5c4.4-4.4,10.1-6,15.6-8.2c0.7-0.7,1.4-1.4,2.4-1.7c1-0.3,2-0.4,3.1-0.5c9.3-2.6,18.1,0.6,27.1,2.1
		c1.3,0.2,2.6,0.7,3.9,0.8c1.6,0,3.2,0.1,4.8,0.5c4.9,0.9,9.8,0.2,14.7,0.5c1.1,0,2.1,0.1,3.2,0.1c2.1,0,4.1,0.2,6.1,0.8
		c1.4,0.4,2.7,1,4.1,1.4c3.6,1.6,7.3,3.1,10.1,6.2c1.5,1.5,2.6,3.2,3.5,5.1c0.8,1.7,1.7,3.3,2.1,5.1c0.3,1.2,0.6,2.3,0.9,3.4
		c0.1,0.5,0.2,1,0.2,1.5c0.1,2,0.1,4,0.1,6c-0.1,6.5,1.5,12.5,4.3,18.2c1.9,3.9,4.1,7.7,5.6,11.8c0.6,1.6,1.7,3.2,0.6,5
		C635.4,399.8,631.2,401.9,626.8,401.3z"/>
	<path class="st3" d="M721.5,474.7c-20.2,0.6-40.5,0.7-60.6,2c-16.7,1.1-33.5,3-49.5,7.8c-23.3,7-31.1,17.2-36.1,40.8
		c-0.7,3.4,0.5,5.8,4.2,6.9c3.5,1.1,7.1,1.1,10.6,0.8c28.3-2.4,56.7-1.8,85-1.8c0.6,0,1.1,0.5,1.7,0.8c-13.9,0.5-27.8,1-41.8,1.3
		c-17.9,0.3-35.8,1.6-53.7,2.9c-3.7,0.3-7.4,0.8-11.1,0.8c-2,0-2.4-0.4-2.2-2.8c1.3-17.9-0.6-35.4-5.6-52.6c-1.7-6-1.8-5.9,4.1-7.3
		c12.4-2.8,25.1-3.7,37.8-4.8c17.4-1.5,34.8-3.1,52.2-2.7c14.5,0.4,29,1.3,43.5,2.7c5.8,0.6,11.6,0.1,17.4,0.9
		C720.3,471,721.5,472,721.5,474.7z"/>
	<path class="st2" d="M700.3,549.7c5.5,0,11.1,0.5,16.6,0c9.2-0.9,17.9,1.8,26.7,3.3c4,0.7,6.7,3.2,6.4,7.7
		c-0.2,4.1-5.2,7.9-10.3,8.7c-14.3,2.5-28.7,1.8-43.1,1.9c-7.8,0-15.7,0.5-23.4-0.1c-20.3-1.6-40.6-0.4-60.8-1
		c-2.5-0.9-5.2,0-7.7-0.6c-2-0.4-3.8-1.2-4.4-3.3c-0.7-2.1,0.4-3.8,1.8-5.3c2.1-2.2,5-3,7.8-3.8c7.9-2.1,16-2.6,24.1-3.6
		c20.2-2.4,40.4-3.5,60.6-4.3C696.4,549.3,698.4,549,700.3,549.7z"/>
	<path class="st4" d="M834.8,557.7c-6.8,4.6-14.8,6.1-22.5,7.6c-6,1.2-12.2,2.4-18.5,2.4c-8.5-1.1-17-2.2-25.5-3.4
		c-4-0.6-4.5-3.9-4.5-6.9c0-2.5,2.6-2.5,4.6-2.8c2.7-0.5,5.6-0.8,7.1-3.9c0.7-1.4,2.5-1.5,4-2c9.3-3.3,18.5-7,28.1-9
		c8-1.6,16.2-4.7,24.6-0.7c4.7,2.2,6.4,6.4,7.5,10.7C840.6,553.3,837.8,555.7,834.8,557.7z"/>
	<path class="st2" d="M612.4,538.2c10.5-0.4,21.1-0.4,31.5-1.4c19.3-1.9,38.5-1.4,57.7-1.7c8.7-0.1,17.5,0.3,26.4,1.4
		c-1.5,3.5-2.4,7.1,0.5,11.2c-4.8,0.2-9-0.7-13.2-0.6c-12.2,0.1-24.2-1.4-36.4-1.3c-13.4,0.2-26.9,1-40.3,1.3
		c-11.6,0.2-23.2,0.9-34.8,1.9c-5,0.4-9.9,0.8-14.9,0.7c-1.1-0.7-2.2,0-3.3,0c-2.7-0.1-4.9-1.1-5.2-4c-0.3-2.7,1.8-4.2,4.2-4.4
		c3.3-0.4,6.6-1.2,10-1.3C600.6,539.9,606.5,539.1,612.4,538.2z"/>
	<path class="st3" d="M579.2,428.8c-6.2,0.9-12.4,1.6-18.5,2.8c-6.7,1.3-10,5.4-9.9,11.4c0.1,4.9,3.5,8.5,9.6,10.1
		c5.4,1.4,10.9,1.5,16.3,0.3c0.6-0.1,1.3-0.3,1.9-0.3c16.3-0.7,32.7-2.1,49-1.8c15.6,0.3,31.2,1.7,46.8,3.4c9.3,1.1,18.7,1.3,28,2.2
		c1,0.1,2,0,2.7,0.8c-20.1-0.7-40.2-1.4-60.3-0.7c-18.7,0.6-37.4,1.6-56.1,3c-11.2,0.8-22.3,2.8-33.5,3.7c-7.7,0.6-14.4-2-14.2-12.7
		c0.1-4-0.1-8,0.7-12.1c1-5,4.2-7.5,8.5-8.1C559.8,429.4,569.4,428.1,579.2,428.8z"/>
	<path class="st5" d="M639.7,400.3c-2-5.9-4.9-11.4-7.7-17c-2.8-5.6-4.4-11.6-4.1-18c4.5-3.3,9.9-2.6,15-3.1
		c5.5-0.5,11,0.7,16.2,2.7c7.1,2.7,9.5,8.9,10.8,15.6c0.4,1.9,0.6,4.1,0.1,6.2c-0.4,2.3-0.8,4.6-1.2,6.9c-5.4,4-11.5,6.2-18.2,5.8
		C646.9,399.1,643.5,400.9,639.7,400.3z"/>
	<path class="st3" d="M700.3,549.7c-18.5,1.3-37,2.3-55.4,4.2c-11.6,1.2-23.4,1.7-34.8,4.7c-1.9,0.5-3.7,1.1-5.5,1.9
		c-2.2,1-4.1,2.9-3.7,5.2c0.4,2.3,3,3.2,5.3,3.6c2,0.4,4.2-0.7,6.1,0.9c-14.4,0.7-28.7,1.4-43.1,2.1c-3.3,0.2-6.8-0.6-7.5-4
		c-0.8-3.7,0.2-7.9,2.4-11c0.9-1.3,4.1-1.3,6.3-1.5c12.2-1.1,24.4-2.3,36.6-3c20.6-1.2,41.2-2.7,61.9-3.3c9.7-0.3,19.4-0.2,29.1-0.6
		C698.8,548.9,699.6,549.4,700.3,549.7z"/>
	<path class="st6" d="M840.8,532.4c9.1,3,12.5,10.4,13.5,18.9c0.7,5.9-3.2,9.9-7.8,13.3c-11.6,8.6-25,11.3-38.8,12.7
		c-12.9,0.8-25.6-0.9-38.1-4c-1.9-0.5-3.7-1.1-4.8-3c-0.4-1.9-0.1-3.1,2.4-2.7c6.8,1,13.7,1.4,20.3,2.9c7,1.6,13.8,0.7,20.6-0.2
		c8.6-1.2,17.3-2.6,25.2-6.8c1.1-0.6,2.2-1.3,3.3-2c4.7-3.1,9.3-6.4,8.1-13c-1.2-6.7-5.8-10.7-11.9-13.3c-9.6-4-18.9-1-28,1.5
		c-9,2.5-17.9,5.5-26.8,8.4c-1.1,0.4-2,1-3.2,0.8c-1.8-0.4-3.2-1.2-3.9-3c-0.8-2.2,1.1-3,2.3-3.6c4.7-2.3,9.6-4.1,14.8-5.1
		c0.2,2.8-2.1,2.6-3.1,3c12-3.1,24.9-6.1,38.2-6.1c4.9,0,9.6,1.1,14.1,3.4c9.7,5.1,14.6,14.7,9,25.2c4.3-2.9,5.8-6.5,4.7-11.8
		c-1-4.5-3.6-8-6.9-10.9C842.5,535.7,840.5,534.8,840.8,532.4z"/>
	<path class="st5" d="M604.2,417.9c15.2-11.3,79-14.5,94.5-5.3c-2.4,1.3-5,1.4-7.7,1.5c-17.4,0.3-34.8,1.6-52.3,2.1
		C627.6,416.5,616.4,418.2,604.2,417.9z"/>
	<path class="st7" d="M768.7,549.9c-8.8-0.6-16.9-1.6-24.9-3.3c-2.7-0.6-5.4-1-7.9-2.1c-3.2-1.4-3.1-3.8-0.1-5.6
		c5.7-3.4,12.4-3.2,18.6-4.7c1.9-0.4,3.8-0.8,5.7-1c5.6-0.5,8.1,2.6,6,7.7C764.7,544.4,767.4,546.3,768.7,549.9z"/>
	<path class="st8" d="M840.8,532.4c3.1,3.2,7.1,5.5,9.3,9.6c3.7,6.6,4.4,16.7-6,20.8c-0.9-1.4,0.2-2.6,0.8-3.6
		c7.7-12.8-3.1-23.5-14.2-26c-11.3-2.6-22.4,0.2-33.4,2.2c-5.5,1-10.9,2.3-16.8,3.6c2.3-2.6,5.7-2.6,7.4-5c2.1-1.4,4.4-2,6.9-1.9
		c7.4-2.2,15-3.3,22.6-4.5c4.2-0.7,8.3-0.1,12.4,0.7C833.5,529.7,837.1,531,840.8,532.4z"/>
	<path class="st3" d="M612.4,538.2c-6.2,2.4-12.9,1.7-19.3,2.8c-2.7,0.5-5.4,0.6-8.1,1.2c-1.6,0.4-3.7,0.9-3.8,3.2
		c-0.1,2.3,2.1,2.6,3.6,3.3c1.3,0.6,3-0.3,4.1,1c-6.7,2-13.8,0.8-20.6,2.1c-2.5,0.5-3-1.2-2.8-3.3c0.6-6.6,0.6-7.1,11.1-8.2
		C588.5,539.1,600.4,538.9,612.4,538.2z"/>
	<path class="st7" d="M764.8,570.2c13.9,4.8,28.3,6.3,42.9,7c-5.7,1.9-11.5,1-17.2,0.7c-7.6-0.4-15.2-1.8-22.8-2.8
		C764.7,574.8,762.4,573.8,764.8,570.2z"/>
	<path class="st9" d="M829.9,528.3c-10.7-0.4-21.3,0.9-31.7,3.6c-1.1,0.3-2.3,0.2-3.4,0.2c6.2-3.2,13.1-3.4,19.8-4.9
		C819.9,526.2,825,525.8,829.9,528.3z"/>
	<path class="st0" d="M707,408.2c-0.3-2,0.9-3.6,1.5-5.9c2.4,4.3,5.4,7.5,9.3,9.8C713.5,412.8,710,411.3,707,408.2z"/>
	<path d="M670.1,386.6c-0.2-0.6-0.3-1.3-0.5-1.9c-1-4.2-1.5-8.6-3.8-12.5c-1.5-2.5-3.2-4.9-6-5.8c-6.8-2.1-13.4-4.1-20.9-2.5
		c-3,0.7-6.3,1.1-9.6,1.2c-0.4,0-0.8,0-1.3,0.1c0-2.3,0-4.6,0-6.9c0.3-0.2,0.7-0.4,1-0.6c5.6-2.7,17.9-3.5,22.3-1.2c0,0,0,0,0.1,0
		c4.5,1.3,9.3,1.7,13.6,3.8c0.1,0.1,0.2,0.2,0.2,0.4c0.9,1.3,2.1,2,3.6,2.3c0.4,0.1,0.8,0.1,1.1,0.2
		C673.3,371,673.4,378.8,670.1,386.6z"/>
	<path class="st1" d="M651.3,356.6c-7.9-0.6-15.6,0.9-23.4,1.8c0-0.3,0.1-0.7,0.1-1c1.3-2,3.5-2.2,5.5-2.8c6-2,11.6-4.7,16.7-8.6
		c3.7-2.9,6.7-6,8.2-10.5c0.3-0.9,0.9-1.7,1.8-2.2c1.7,0.8,3.7,1.1,4.9,2.8c-1.7,4.5-1.3,9.6-4.8,13.7
		C657.7,352.7,654.8,354.9,651.3,356.6z"/>
	<path class="st4" d="M668.5,362c-0.9-0.7-1.8-1.3-2.9-1.5c1.3-0.7,2.2-1.5,2.2-3.3c-0.7,0,0.8-0.5,0.6-0.3
		C667.8,358.8,668.2,360.5,668.5,362z"/>
	<path class="st4" d="M665.6,360.5c-0.2,0.1-0.3,0.2-0.5,0.2c-0.1-0.1-0.2-0.2-0.2-0.4C665.1,360.4,665.4,360.5,665.6,360.5z"/>
	<path class="st4" d="M669.9,363.2c-0.4,0-0.8-0.1-1.1-0.2c0-0.4-0.1-0.7-0.2-1C669,362.4,669.4,362.8,669.9,363.2z"/>
	<path class="st4" d="M668.7,363.1c-1.5-0.3-2.7-1-3.6-2.3c0.2-0.1,0.3-0.2,0.5-0.2c1.1,0.3,2.1,0.8,2.9,1.5
		C668.6,362.4,668.7,362.7,668.7,363.1z"/>
	<path class="st4" d="M669.9,363.2c-0.4-0.4-0.9-0.8-1.3-1.2c-0.3-1.6-0.7-3.2-0.1-5c0.1-0.2-1.3,0.3-0.6,0.3c0,1.8-1,2.6-2.2,3.3
		c-0.2,0-0.5-0.1-0.7-0.1c1.3-1.5,2.5-3,4.3-5.1C668.3,358.5,670.2,360.7,669.9,363.2z"/>
	<path class="st9" d="M602.5,336.8c-0.9,0-1.9,0.1-2.8,0.1c-0.3-2.2,1.9-2.8,2.9-4.1c2-2.6,4.5-5,2.6-8.7c-1.9-3.6-5.3-4.8-9.1-4.3
		c-7.9,0.9-14.1,4.7-17.9,11.9c-0.6,1.1-1,2.4-2.1,3.2c-3,0.8-6-0.2-8.5-1.1c-6.6-2.5-13.2-1.5-19.8-0.9c-1.3-1.9,0-3.4,0.7-5
		c8-18.3,18.5-34.8,32.1-49.5c12.5-13.5,34.7-12.8,44.4,2c-1.1,10.6,3.4,19,10.7,26.2c-4.5,8.3-11.7,14.1-18.5,20.2
		C612.8,330.7,608.5,335,602.5,336.8z"/>
	<path class="st10" d="M625.1,280.3c-5.1-3.4-9.6-7.9-15.6-9.6c-11.1-3.2-20.6,0.6-27.9,8.8c-5.6,6.2-11.1,12.6-15.9,19.4
		c-7.4,10.5-12.3,22.3-17.7,33.9c-1,0.1-1.9,0.2-2.9,0.2c-1.2-1-1-2.3-0.7-3.6c5.3-24.2,14.8-46.4,31.7-65c2.2-2.4,4.8-4.5,7.6-6.1
		c5.4-3.1,11-4.8,17.2-2c10,4.6,19.2,10.1,26,19C625.5,276.8,626.7,279.1,625.1,280.3z"/>
	<path class="st9" d="M626.8,275.4c-6.5-4.8-12.4-10.3-19.5-14.4c-12.2-7.3-19-6.4-29.1,3.3c-11.3,10.8-18.7,24.3-24.5,38.7
		c-4,9.8-7,19.8-8.7,30.2c-0.3,1.1-1.2,0.9-2,0.7c-2.2-5.8-0.3-11.5,1.3-16.9c5.2-17.4,13.2-33.5,23.7-48.2c2.9-4,6.7-7.6,10.7-10.6
		c10.4-7.8,19-7.6,30.1-0.4c6.8,4.4,13.4,8.9,19,14.8C627.4,273.4,627.1,274.4,626.8,275.4z"/>
	<path class="st1" d="M602.5,336.8c11.2-8.1,21.8-16.7,30.4-27.7c0.8-1,1.9-1.7,2.9-2.5c1.9-0.3,2.6,1.6,4.1,2.1
		c6.7,2.5,11.2,0.6,16.3-7c1.6,1.7,2.6,3.8,3.1,6.1c-3.1,3.5-8.3,4.8-10.1,9.7c-1.1,0.7-1.9,1.7-3.2,2.2
		c-12.1,4.4-23.5,10.2-34.5,16.9c-1,0.6-2.2,0.6-3.1,1.3C606.6,336.7,604.5,337,602.5,336.8z"/>
	<path class="st11" d="M654.5,273.9c3.2,8,1.4,15.8-0.6,23.4c-0.5,1.9-1.2,5.4-5.2,3.6c-5-2.3-7-5-5.2-8.4
		C646.8,286.2,651.4,280.6,654.5,273.9z"/>
	<path class="st9" d="M608.5,337.7c8.8-7.4,19.4-11.5,29.6-16.4c3.6-1.7,7.5-2.7,11.2-4c-2,4.2,1.6,6.6,3.2,9.7
		c1.4,3.1-0.8,5.3-2.3,7.4c-6.3,8.3-15.1,12.5-25,15.1c-1.1-1.6-2.2-3.3-3.2-4.9c-1.5-4.7-5.1-6.1-9.7-5.9
		C611,338.5,609.7,338.1,608.5,337.7z"/>
	<path class="st10" d="M625.2,349.6c6.1-3.6,12.8-5.9,18.6-10.2c4.4-3.3,7-7.4,8.6-12.4c1.6,1.4,3.2,2.8,4.8,4.2
		c-0.4,6.5-5,10.4-9.4,14c-5.4,4.5-11.9,7.1-18.5,9.6c-0.8,0.3-1.6,0.3-2.3-0.4C626.5,352.9,625.8,351.2,625.2,349.6z"/>
	<path class="st11" d="M684.6,312.2c0,3,0.2,6.1,0,9.1c-0.5,6.4-8.4,11.6-14.5,9.7c-3.5-1-4.2-5.3-0.6-7.4
		C674.8,320.3,680.3,317.3,684.6,312.2z"/>
	<path class="st9" d="M627.1,354.5c10.4-4.1,20.9-8.1,27.3-18.2c1-1.6,1.9-3.4,2.8-5.1c1.4-0.1,1.7,1.7,2.9,1.9
		c-1.3,8.3-7.3,13-13.8,17c-5.6,3.4-11.8,5.9-18.3,7.3C627.6,356.5,626.5,355.8,627.1,354.5z"/>
	<path class="st9" d="M719.7,486.5c3.1,6.5,4.2,12.4,5.6,18c1.8,7.2,4.4,14.1,7.1,21c0.7,1.9,1.2,3.1-0.4,4.7
		c-1.5,1.4-2.6,0.8-4.3,0.2c-7.6-2.6-7.4-9.6-7.9-15.4C719.2,506,719.7,496.9,719.7,486.5z"/>
	<path class="st9" d="M621.9,430.1c0.8-0.2,1-0.3,1.1-0.3c13.3-0.4,26.5-1.2,39.8-1c21.3,0.3,42.5-0.9,63.7-1.4
		c11-0.2,14.9,7.2,11.1,17.1c-0.5,1.2-1,2.3-1.7,3.7c-7.9-6.6-16.7-11.4-26.9-13.1c-4.3-0.7-8.6-1.5-12.8-1.4
		c-17.4,0.3-34.7-1.1-52-1.4C637.1,432.2,629.5,433,621.9,430.1z"/>
	<path d="M576.1,334.9c0.9-11.3,18.4-19.2,25.6-15.6c5.5,2.7,7.3,7.4,3.1,12.9c-1.4,1.8-3.4,3.2-5.1,4.7c-5.2-0.3-10.5,1-15.7-0.8
		c-0.5-2.1,2.2-5.6-1.1-6.2c-2.6-0.5-2,3.4-3.2,5.2c-0.2,0.3-0.4,0.5-0.6,0.7C577.9,336.1,577.1,335.3,576.1,334.9z"/>
	<path class="st12" d="M579.1,335.8c0-1.3-0.3-2.7,0.2-3.8c0.8-2,1.6-5.2,4.1-4.3c2.4,0.8,3.3,3.7,1.9,6.5c-0.4,0.7-0.9,1.3-1.3,1.9
		C582.4,336,580.7,335.9,579.1,335.8z"/>
	<path d="M612.3,338.8c6-2.2,9.7,0.1,9.7,5.9C619.1,342,615.6,340.5,612.3,338.8z"/>
	<path class="st9" d="M721.3,541c-19.3-1.2-38.5-1.2-57.7-2.4C683,536.5,702.2,536.3,721.3,541z"/>
	<path class="st9" d="M600.4,321.3c2.6,0.8,4,3.1,4.1,6.2c0,3.3-3.9,6.8-7,6.5c-2.4-0.2-3.7-1.7-3.7-4.1
		C593.9,325.6,597,321.2,600.4,321.3z"/>
</g>
</svg>
