<?xml version="1.0" encoding="utf-8"?>
<!-- Generator: Adobe Illustrator 23.0.1, SVG Export Plug-In . SVG Version: 6.00 Build 0)  -->
<svg version="1.1" id="Layer_4" xmlns="http://www.w3.org/2000/svg" xmlns:xlink="http://www.w3.org/1999/xlink" x="0px" y="0px"
	 viewBox="0 0 1000 1000" style="enable-background:new 0 0 1000 1000;" xml:space="preserve">
<style type="text/css">
	.st0{fill:#6E3720;}
	.st1{fill:#FB9A7A;}
	.st2{fill:#E00000;}
	.st3{fill:#7F0000;}
	.st4{fill:none;}
	.st5{fill:#CBB89A;}
	.st6{fill:#7A99AC;}
	.st7{fill:#B4F8F6;}
	.st8{fill:#2B5260;}
	.st9{fill:#FEFEFE;}
	.st10{fill:#C0FEFE;}
	.st11{fill:#808080;}
	.st12{fill:#00407F;}
</style>
<g>
	<path d="M866.3,528.5c-14-8.1-29.7-9.8-45.6-6.7c-9.5,1.9-18.8,4.7-28,7.9c-2.6,0.9-6,3.1-8.6,0.7c-4.9-4.7-11.1-5.3-16.6-3.9
		c-6.4,1.7-7.7-0.9-9.3-6c-5.5-17.2-11.4-34.3-17.1-51.6c10.2-1.3,18.3-4.9,23.4-14.3c8-14.5,10.7-32-1.8-45.6
		c-1.4-3.2-4.4-3.4-7.2-4.1c-4.5-1.2-9.2-1.3-13.8-1.2h0c-0.7,0-1.3,0-2,0c0,0,0,0,0,0c-0.3,0-0.6,0-0.9,0c-3.3,0-6.5,0.2-9.8,0
		c-8-0.6-16-1.3-20.4-9.7c-1.2-2.2-2.8-2-4.1,0c-1.5,2.3-3.3,2-5.5,1.3c-7-2.4-14.3-3.7-21.6-5c-0.2,0-0.3-0.1-0.5-0.1
		c-0.1,0-0.1,0-0.2,0c-1.8-0.1-3.5-0.3-5.3-0.4c-3.9-0.3-4.9-2.2-4-5.8c1-3.8,1.7-7.6,2.8-11.3c1.8-6.3,0-11.7-3.4-16.9
		c-0.3-0.2-0.6-0.3-0.8-0.5c0,0.3,0,0.7,0,1c-4.2-1.4-7.4-4.8-11.8-5.7c0.4-0.3,0.8-0.5,1.2-0.7c-0.5-0.2-1.1-0.3-1.7-0.4
		c-5.9-2-11.9-2.6-18-1.9c0,0,0,0,0,0c-1.1,0.1-2.3,0.3-3.4,0.5c-0.2,0-0.4,0.1-0.6,0.1c-2.9,0.5-5.9,0.4-8.4,2.1
		c-0.1,0.1-0.2,0.1-0.3,0.2c-0.1,0.1-0.2,0.1-0.3,0.2c-1.2,2.2-1.2,4.4-0.1,6.6c0.2,0.2,0.3,0.3,0.5,0.4c0.2,0.1,0.3,0.2,0.5,0.3
		c1.4,0.8,3,0.3,4.6,0.1c6.9-1,13.7-1.1,20.8,0c8.3,1.3,12.1,6.2,14.2,13.4c2.7,9.4-1.1,15.7-10.8,17.4c-6,1.1-12.1,1.5-18.1,2.2
		c-0.2,0-0.4,0-0.6,0.1c-0.1,0-0.1,0-0.1,0c-3.7-0.1-7.2,0.9-10.8,1.2c-0.2,0-0.4,0-0.6,0c-0.1,0-0.1,0-0.2,0
		c-7,1-13.9,2.8-20.7,4.9c-1.9,0.6-3.8,1.4-5.7,0.5c-2.1-0.9-3,0.1-4.3,1.7c-4.7,5.6-10.4,9.4-18,10.3c-14,1.6-27.9,0.5-41.9,0.9
		c-0.5,0-1.1,0.1-1.6,0.1c-0.4,0-0.8,0.1-1.2,0.1h0c-3.8,0.4-7.6,1.2-11.1,2.9c-0.1,0.1-0.3,0.1-0.4,0.2c-0.1,0.1-0.3,0.2-0.4,0.3
		c-3.8,2.6-6.1,6.3-7.3,10.5c-3,10.4-2.6,20.7,1.3,30.8c0.2,0.2,0.3,0.5,0.5,0.8c0.1,0.2,0.3,0.4,0.4,0.6c2,3.6,2.7,8,7.2,9.8
		c3.1,1.3,6,3.5,9.4,3.7c3.1,0.2,3.6,2.4,4.1,4.4c4.6,19,6.6,38.2,5,57.8c-0.9,11.4-2.4,22.7-5,33.9c-1.9,8.3,3.2,16,11.6,16.3
		c12.1,0.4,24,2.1,36.1,2.2c10.3,0,20.7,0.4,31,0.6c25,0.3,49.9,0.8,74.9-0.4c19.8-1,39.7-1,59.5-2.1c6.8-0.4,13.2-1.1,19.1-4.5
		c1.7-1,3.2-0.9,4.7-0.4c9.6,3.1,19.6,4,29.4,4.7c20.7,1.4,41-0.9,60.5-8.7c8.2-3.3,15.8-7.8,19.5-16.3
		C883,547.8,876,534.2,866.3,528.5z M788.4,549.1c4-2.8,9.5-3.7,14.5-5.1c8.5-2.3,16.9-4.7,25.5-6.5c8-1.7,15.9-2.3,23.2,2.9
		c7.7,5.5,7.6,13.3-0.7,18.1c-8.1,4.7-17.1,6.9-26.4,7.9c-5.4,0.6-10.7,1.4-15.8,2.1c-11-1.5-21.8-2-32.3-4.9c-2.5-0.7-3-1.8-3-4
		c0-2.1,0.2-3.4,2.9-4.1C780.7,554.3,784.5,551.8,788.4,549.1z"/>
	<path class="st0" d="M511.9,456c2.5,3.5,3.6,7.8,6.8,10.9c-4.4,8.5-6.6,17.7-9.8,26.6c-2.2,6.2-4.1,12.6-5.8,18.9
		c-1.4,5.5-5.2,9.2-9.1,12.6c-4.7,4.1-9.8,2.3-13.9-0.9c-12.9-9.9-24.2-21.1-32.2-35.6c-5.5-10-10.6-20.1-14.2-31
		c-4-12-7.6-24-8.9-36.8c-1-10.1-2.3-20.2-1.7-30.3c1-17.3,3.5-34.5,11.9-50.1c5.8-10.8,13.2-20.6,21-30c10.1-12,17.2-25.8,25.3-39
		c9.5-15.7,17.6-32.2,28.7-46.9c9.9-13.1,21.2-24.7,34.8-33.6c12.3-8,26.2-9.4,40.6-4.4c12.7,4.4,23.4,11.4,33.5,20.3
		c8.1,7.1,14.8,15.2,21.7,23.2c4,4.6,6.8,10.2,10.1,15.4c-1.3,3.2-4,4-7.1,4c-4.1-3.6-6.7-8.4-9.8-12.7c-12-16.7-27-30.1-45.6-38.7
		c-13.8-6.4-27.3-5.7-40.4,4c-19.6,14.5-33.3,33.7-45.2,54.3c-14.6,25.3-30.1,49.8-47.3,73.4c-12.3,16.8-19.6,35.5-21.4,56.7
		c-1.9,21.8,4.1,41.9,9.5,62.3c4.4,16.3,11.7,31.4,22.1,44.8c5.2,6.7,10.6,13.2,17.1,18.6c5.1,4.2,8.1,3.5,9.8-2.9
		c4.2-16.1,10.8-31.4,15.9-47.2C508.8,459.6,509.1,456.9,511.9,456z"/>
	<path class="st0" d="M794.1,343.3c-4.8-8.2-12.2-13.4-19.7-18.5c-16.7-11.4-34.6-15.8-54.3-8.4c-4.7,1.8-9.2,4-14.3,4.9
		c-12.8,2.5-26.1,3.6-35.8,14.4c1.3-3.6,2.1-6.9,1.9-10.5c-2.4-2.6-5.6-3.2-9-3.2c-0.1,0.1-0.1,0.1-0.2,0.2c0,0-0.1,0.1-0.1,0.2v0
		c-0.5,0.7-0.7,1.5-0.8,2.3c-1.4,7.7-6,12.6-12.9,16c-4.4,2.1-9,3.6-13.5,5.6c-1.1,0.5-2.5,0.8-3.3,1.8c-0.3,0.4-0.4,0.8-0.5,1.5
		c4-0.9,8-1.2,12-0.8c3.5,0.3,6.9,1.3,10.4,1.9c0.4-0.3,0.8-0.5,1.2-0.7c2.5-1.6,5.1-3.2,8.2-5.2c-0.3-0.1,0-0.2,0.1-0.1
		c0.7-0.5,1.5-0.9,2.3-1.4c-3.5,4.9-0.4,8.5,0,12.2c0,0.3,0,0.7,0,1c5.2,7.6,3.3,15.4,1.2,23.4c-3.1,11.6-2.4,12.1,9.8,11.8
		c0.2-0.4,0.3-0.7,0.5-1.1c2.2-5,3.5-10.3,5.3-15.4c2-5.8,1.2-11.5-1.7-17c-1-1.9-1.7-3.8-2.2-5.9c-1.4-6.3,0.7-10.8,6.5-13.6
		c3.7-1.8,7.7-2.8,11.6-3.5c10.3-1.9,20.2-4.6,30-8.3c5-1.9,10.1-3.5,15.7-3c15.4,1.4,27.1,9.2,36.3,21.1
		c10.3,13.4,10.5,27.4,0.7,39.8c-6.4,8.1-14.6,13.2-25.1,14.4c-5.2,0.6-10.5,1.5-14.8,4.8c0,0,0,0,0,0c-0.5,0.4-1,0.8-1.5,1.3
		c8.4,0.2,16.9-0.3,24.5,4.1c12.9-3.2,22.3-11.1,29.2-22.1C800.8,373,802.9,358.4,794.1,343.3z"/>
	<path d="M643.7,249.1c2.2-1.3,4.5-2.5,6.7-3.8c1.3-0.2,2.6-0.2,3.7-0.6c4.1-1.3,6.8,0.1,9,3.8c5.5,9,5.9,18.3,2.2,28
		c-0.4,1-0.2,1.9-0.3,2.8c-0.4,4-2.2,7.4-4.4,10.6c-0.6,0.7-1.2,1.6-1.8,2.3c-5.2,6.6-10.1,7.5-17.5,3.4c-1.1-0.6-2.2-1.3-3.3-2.1
		c-7.4-7-10.1-15.4-7.2-25.4c0.6-1.8,0.9-3.8,1.7-5.5c0.5-1.1,1-2.1,1.5-3.1C636.3,255.1,639,251.1,643.7,249.1z"/>
	<path d="M672,325.3c-3-1-6-2-9-2.9c-1.7,0.5-2.9-0.6-4.2-1.4c-1.1-0.7-2.2-1.4-3.2-2.3c-1.6-1.6-2.8-3.5-4.3-5.2
		c-2.1-2.8-2.5-5.7-0.8-8.9c2.5-5,7.2-7.3,11.9-9.7c2.5-1,4.7-2.9,7.6-3c2.2,0.7,4.2-0.3,6-1c10.9-4.1,16.7,5.3,15.3,14
		C689.6,315.3,683.5,323.2,672,325.3z"/>
	<path class="st0" d="M670,291.9c-2,1.9-4.6,2.8-7,3.8c-1.8-1.8-3.3-3.9-2.8-6.7c2.1-3,2.4-7,4.9-9.9
		C667.6,283.1,667.7,288,670,291.9z"/>
	<path class="st1" d="M643.7,249.1c-2.9,3.6-6.9,6.3-8.8,10.7c-1.6-0.1-2.6-1.3-3.5-2.5c-5.2-6.8-12.1-11.3-19.4-15.2
		c-9.1-4.9-17.6-2.1-25.6,3.2c-6.9,4.5-12,11-17.2,17.1c-9.2,10.8-16.1,23.2-22.1,36c-4.1,8.7-4.8,17.8-0.8,26.8
		c-0.4,1.6-1.7,1.8-3,2c-4.7,0.6-9.3,1.5-13.8,2.9c-2.8,0.9-4.6,0.2-6.1-2.4c-3.4-6-8.2-10.4-15.2-13.1c3.5,4.3,6.9,8,9,12.7
		c2.8,6.1,2.7,6.2-2.4,10.5c-9.6,8-16.4,17.9-20.1,29.8c-2.4,7.9-0.9,15.5,2.3,22.8c3.7,8.4,9.5,15,17,20.3c1.5,1,3.7,1.7,3.5,4.1
		c-6.1,4.5-8,11.2-8.6,18.2c-0.7,7.8,0,15.5,3,22.9c-4.3,9.7-7.2,19.9-10.9,29.7c-3,7.9-5.3,16.1-7.9,24.2c-2.6,8.1-5.5,8-10.5,3.9
		c-6.8-5.6-12.4-12.2-17.8-19c-17.6-22.3-25-48.8-30.3-76.1c-1.3-6.5-2.8-12.9-2.8-19.5c-0.2-26.4,7.1-50.3,23.1-71.5
		c12.9-17,24.4-35,35.4-53.2c4.8-8,9.5-16,13.9-24.2c5.3-9.9,12.9-17.9,19.2-27.1c7.1-10.5,17.2-17.7,27.2-25
		c8.9-6.5,19-6.8,29.5-4.6c11.6,2.4,20.6,9.5,29.7,16.2c11.2,8.3,20.4,18.8,28.1,30.4C639.7,243.3,641.7,246.2,643.7,249.1z"/>
	<path class="st2" d="M725.5,470.8c10.2,18.2,16.8,37.7,21.4,58c0.3,1.2,0.4,2.2-1.3,2.4c-9.6,1.3-19.4,1.7-29,0.6
		c-6.2-0.7-12.2-0.4-18.3-0.6c-7.1-0.2-14.3-0.1-21.4-0.2c-7-1.1-13.9,0.2-20.9,0.1c-24.4-0.4-48.8,1-73.1,1.5
		c-4.5,0.1-9,1.2-13.6,0.9c-6.4-0.5-8.7-3.2-7.8-9.6c1.6-11.1,6.2-20.9,13.1-29.6c5.2-6.5,12.4-9.9,20.1-12.3
		c16.7-5.2,34-7.2,51.4-9c18.3-1.9,36.6-2.7,55-2.9c6-0.1,12-1.3,18-1.1C721.3,469.3,723.6,469.2,725.5,470.8z"/>
	<path class="st1" d="M676.9,391.5c-0.1-4.1,1.3-7.9,2.8-11.6c3.2-7.6,4-15-0.4-22.5c-1.9-3.2-2.7-6.7-2.2-10.6
		c1.1-8.3,7.7-10,14-11.8c7.4-2,15-3.2,22.4-5c5.9-1.5,11.3-4.2,17.2-5.9c10.9-3.2,20.9-1.3,30.5,3.9c10.8,5.8,19.1,14,24.2,25.2
		c7.4,16.2-0.7,33.1-16.3,42.5c-4.9,3-10.2,4.3-15.9,4.8c-5.2,0.4-10,3-14.9,4.7c-5.5,0-11,0.4-16.5-0.5
		c-7.2-1.1-12.8-3.9-15.2-11.8c-1.2,6.1-4.3,5.4-8.6,3.7C691.2,393.8,683.9,393.1,676.9,391.5z"/>
	<path class="st1" d="M622,393.4c-8.6,2.1-17.2,3.8-25.5,6.9c-2.1,0.8-1.8-1.9-3.4-2.1c0.5,2.4-0.8,3.5-2.6,5
		c-8,6.8-17.3,8.9-27.4,8.8c-10.6-0.1-21.1-0.1-31.7-0.1c-5.7-1.8-10.8-4.8-15-8.8c-8.6-8.2-13.6-18.1-10.9-30.6
		c3.2-15.1,9.6-28.1,24.2-35.1c6.9-3.3,14.6-4.2,22.4-3.3c5,0.6,10,1.4,14.9,2.3c4.3,0.8,8.6,0.8,13.1,0.4c7.9-0.7,15.6,1,22.8,4.2
		c6.7,3,11.3,11.4,9.4,18.6c-2.1,7.6,0,13.6,4.5,19.5c2.2,2.8,3.9,6,5.3,9.3C622.6,390.1,623.6,391.8,622,393.4z"/>
	<path class="st2" d="M559.6,423c13.9-1.8,27.9-0.3,41.8-1.3c22.6-1.6,45.2,0.2,67.7-1c22.3-1.2,44.7-1.9,67-1.8
		c1.5,0,3-0.1,4.4,0.2c10.7,2.3,12.6,6.1,9.3,18.8c-0.7,2.8-1.8,5.5-3,8c-4.4,8.9-8.7,10.8-18.4,8.5c-3.5-0.8-7.1-0.5-10.7-0.3
		c-5.2,0.3-10.3-1-15.4-1.2c-16-1.6-32-2.2-48-3.3c-11-0.7-22.1-1.8-33.1-1.7c-20,0.1-39.9,1.3-59.9,2.6c-6,0.4-12.1,0.6-17.9-1.3
		c-9.4-3.1-12.9-11.9-7.7-19.1c1.9-2.7,4.6-4,7.6-4.9C548.6,423.6,554.2,423.6,559.6,423z"/>
	<path class="st3" d="M725.5,470.8c-19.1,0.6-38.2,0.7-57.3,2c-22,1.4-44,3.4-65.5,8.7c-9.6,2.4-19.3,4.8-26.1,12.8
		c-7.9,9.2-12.4,19.9-14.1,31.9c-0.5,3.9,1.4,6.1,5.1,6c13.6-0.4,27.1-1.5,40.7-1.6c22.6-0.3,45.2,0,67.7,0c0.3,0,0.5,0.4,0.8,0.6
		c-15.4,0.6-30.8,1.1-46.2,1.2c-17,0.1-34,1-50.9,1.9c-8.5,0.5-16.9,1.8-25.4,2.8c-2.4,0.3-3.5-0.3-3.6-3.1
		c-0.4-18.2-3.2-36.2-4.9-54.4c-0.9-9.5-0.9-9.2,8.6-10c10.6-0.9,21.1-2.5,31.6-3.7c4-0.5,8.1-0.8,12-0.9c8.3-0.1,16.5-1.1,24.7-1.4
		c11.8-0.4,23.6-1.2,35.5-0.8c14.9,0.5,29.8,0.8,44.6,2.1c6.3,0.6,12.9,0,19.1,2.5C723.8,468.3,725,468.9,725.5,470.8z"/>
	<path class="st2" d="M702.2,549.7c8.3,0,16.6,0.5,24.9,0c9.2-0.6,17.8,2.1,26.5,4.1c2.7,0.6,4,3,4.1,5.4c0.2,3.2-0.5,6.2-3.7,8.3
		c-5.2,3.3-11.1,4.5-16.9,4.6c-7.6,0.1-15.1,1.2-22.7,1.2c-29.2,0-58.4,1.4-87.6,1.2c-6.7-0.1-13.5,0.9-20.3,0.6
		c-2.7-0.6-5.5-0.3-8.2-1.2c-3.6-1.2-6.7-3.1-7.2-7.1c-0.5-3.7,2.5-5.4,5-7.2c2.6-1.8,5.6-2.7,8.6-3.2c16.2-2.6,32.5-4.2,48.9-5.2
		c13.4-0.8,26.9-1.1,40.4-1.8C696.7,549.2,699.5,548.9,702.2,549.7z"/>
	<path class="st0" d="M622,393.4c-0.1-4.2-2.9-7.4-4.6-10.9c-1-2-2.2-3.9-3.7-5.6c-4.1-4.9-5.2-10.4-2.9-16.1
		c3-7.3-4.6-18.8-12.1-20.1c-7.7-1.3-15.1-3.7-23.2-2.1c-5.6,1.1-11.4-1.2-17-2.4c-9.5-1.9-18.9-1.5-27.8,2
		c-10.6,4.2-16.5,13.2-20.6,23.1c-3.2,7.7-5.8,15.8-3,24.3c2.6,8.1,6.7,15.3,14.6,19.6c3.5,1.9,6.6,4.4,9.9,6.7
		c-4.8,0.2-9.4,1.3-13.9,2.9c-7.5-5.5-14.9-11.1-19.4-19.6c-9.4-17.2-6.8-29.4,4.1-45.3c4.1-5.9,8.3-11.9,15-15.4
		c2.2-1.1,1-2.7,0.4-4.1c-2.5-6-6.5-11-10.8-15.9c-0.5-0.6-1-1.2-1.9-2.3c9.1,2.2,15.5,7,19.5,14.6c1.4,2.6,2.6,3,5,2
		c5.3-2.2,11.2-2.1,16.7-3.7c3-2.6,6.5-1.5,9.7-0.9c8.4,1.6,16.8,3.7,25.4,4.2c3.4,0.2,6.8,0,10.2,0c2.2,0.1,4.3,0.4,6.4,0.9
		c3.2,0.5,6.4,1,9.5,2c1.5,0.7,2.9,1.5,4.2,2.4c0.7,0.5,1.4,1,2.1,1.4c0.9,0.6,1.6,1.3,2.4,2.1c1.3,1.4,2.7,2.6,3.9,4.2
		c0.7,1.1,1.5,2.1,2.2,3.2c1,1.8,1.5,3.8,1.2,5.9c0,2.2,0,4.5,0,6.7c0.3,0.4,0.7,0.8,0.6,1.3c-1.4,8.6,2.9,15.5,6.7,22.6
		c1.8,3.4,4.8,6.6,3.4,11.1C629.9,392.1,626,394.1,622,393.4z"/>
	<path class="st4" d="M850.8,558.5c-8.1,4.7-17.1,6.9-26.4,7.9c-5.4,0.6-10.7,1.4-15.8,2.1c-11-1.5-21.8-2-32.3-4.9
		c-2.5-0.7-3-1.8-3-4c0-2.1,0.2-3.4,2.9-4.1c4.4-1.3,8.2-3.7,12.1-6.4c4-2.8,9.5-3.7,14.5-5.1c8.5-2.3,16.9-4.7,25.5-6.5
		c8-1.7,15.9-2.3,23.2,2.9C859.3,545.9,859.2,553.7,850.8,558.5z"/>
	<path class="st2" d="M619.2,536.3c37.8-1.1,75.7-3.8,113.6-0.9c-2,6.8-2,6.8,2.3,12.2c-6.9,1.2-13.5-0.9-20-1
		c-0.9,0-1.9-0.5-2.8-0.5c-11.7,0.3-23.3-1.5-34.9-1.1c-20.3,0.7-40.6,2.3-60.9,3.2c-11.4,0.5-22.8,1.8-34.3,1.8
		c-3.4,0.8-6.8,0.4-10.1-0.5c-2.1-0.6-4-1.9-4-4.3c-0.1-2.1,1.9-2.9,3.5-3.6c2.7-1.2,5.6-1.7,8.5-1.9
		C593.1,538.3,606.1,537.5,619.2,536.3z"/>
	<path class="st3" d="M559.6,423c-5.3,1.2-10.6,2.4-15.9,3.7c-5.8,1.4-9.5,5.6-9.5,10.7c0,3.8,5.4,9.9,10,10.7
		c6.7,1.3,13.5,1.9,20.2,0.3c0.6-0.2,1.3-0.2,1.9-0.1c11.7,0.7,23.3-1.1,35-1.2c7.3-0.1,14.6-1.3,21.8-0.7c18,1.4,36.1,1.6,54.1,3.7
		c8.3,1,16.7,0.8,24.8,3c-19.8-1.1-39.5-1.1-59.3-0.8c-18.1,0.3-36.3,0.6-54.3,2.1c-17,1.4-34,2.5-50.8,5.6
		c-5.9,1.1-11-2.5-12.5-8.5c-1.8-7.3-1.2-14.4,1.4-21.3c1.1-2.9,3.3-4.5,6.4-5.3C541.9,422.8,550.7,422.6,559.6,423z"/>
	<path class="st3" d="M702.2,549.7c-13.6,0.7-27.2,1.1-40.7,2.1c-19.9,1.6-39.9,2.7-59.5,6.7c-2.2,0.4-3.9,1.4-5.6,2.6
		c-2,1.4-4.7,2.4-4.4,5.3c0.3,3,2.6,4.8,5.4,5.8c3,1.1,6.1,2,9.1,2.9c-17,0.3-34,0.6-50.9-1.9c-2.1-0.3-4.1-1-6-1.6
		c-1.7-0.5-3-1.6-2.6-3.6c0.6-3.3,0.9-6.8,2.1-9.9c1-2.5,4-2.3,6.3-2.4c15.1-1,30.2-2.7,45.4-3.2c12.7-0.4,25.5-1.1,38.2-1.9
		c19.4-1.2,38.8-1.9,58.2-1.8C698.9,548.9,700.7,548.2,702.2,549.7z"/>
	<path class="st5" d="M633.9,392.5c-1.5-7.3-6.4-13.1-9.2-19.8c-2.1-5.1-3.1-9.9-1.5-15.2c4.1-0.6,8.1-1.4,12.2-1.7
		c7.7-0.7,15.6,0.1,22.1,4c6.8,4.1,11,18.2,5.1,26.1c-2.4,3.1-6.2,3.9-9.7,4.5C646.5,391.4,640.2,391.8,633.9,392.5z"/>
	<path class="st6" d="M871.1,544.9c6.5,7.4,0.2,16.7-6.5,21.3c-9.6,6.6-20.9,8.9-32.2,11c-4.3,0.8-8.6,0.9-13,1.1
		c-13.5,0.3-26.8-1.3-39.9-4.5c-2-0.5-4.1-1.1-5.1-3.4c0.2-1.3-0.9-3.1,2.4-2.3c11.4,2.8,23.1,4.8,34.7,4c14.8-1,29.7-2.6,43.1-10.8
		c11-6.8,11.5-16.3,0.9-23.7c-10.3-7.2-21.2-5.6-32.2-2.8c-12.1,3.1-24.2,6.5-36.3,9.9c-2.4,0.7-4.4-0.3-5.4-2
		c-1.3-2.3,0.8-3.6,2.5-4.4c8.4-3.7,17.2-6.4,26.4-7.9c0.3,1.6-0.9,2-1.9,2.4c-4.7,1.8-9.6,3.1-12.5,3.7c5.4-1.4,12.8-3.4,20.4-4.5
		c10.6-1.6,21.2-3,31.9-0.8c9.5,2,15.4,8,18.4,16.9c1.4,4.3-0.6,8.3-2.5,12.1c4.8-2.1,6.4-4.7,6.2-10.1
		C870.5,548.3,869.6,546.4,871.1,544.9z"/>
	<path class="st5" d="M595.3,410.7c18.1-12.2,89.7-15.1,105.6-4.6c-8.5,0.3-16.7,0.4-24.8,0.9c-18.6,1.1-37.2,2.9-55.9,3.4
		C611.9,410.7,603.6,410.6,595.3,410.7z"/>
	<path class="st7" d="M871.1,544.9c-0.2,2.4,1.3,4.6,1,7.1c-0.7,6.4-4.7,9.3-10.5,11c0.2-3,2.7-4.6,3.5-7c2-6-1.2-14.9-6.4-18.8
		c-9.1-7-19.6-6.3-30.1-5.6c-12.5,0.8-24.5,4.2-36.9,6.1c5.9-3.6,12.9-4.1,18.8-7.5c9.2-2.3,18.5-5,28-4.5
		c8.2,0.5,16.3,1.8,23.4,6.6C866.6,535.5,869,540,871.1,544.9z"/>
	<path class="st8" d="M778.7,548.6c-5.1,3-9.9,0.3-14.6,0c-6.5-0.5-12.9-2.3-19.4-3.7c-2.4-0.5-5.2-1.4-5.3-4.2
		c-0.1-3.1,2.9-3.8,5.4-4.6c7.4-2.3,15.2-2.3,22.8-3.8c2.3-0.5,4.4,0.2,6.6,1.2c2.8,1.4,3.9,2.5,1.1,5.2
		C772.4,541.7,773.1,543.5,778.7,548.6z"/>
	<path class="st1" d="M623.1,350.7c-1.6-1.6-1.2-4-2.1-5.9c0.6-2.1,2.5-2.3,4.1-2.9c5.8-2.5,11.9-4.1,17.6-6.9
		c5.8-2.9,10.9-6.3,13.9-12.2c0.6-1.1,1.3-2.3,2.7-2.5c1.2,0.7,2.4,1.4,3.7,2.1c0.2,8.3-4.1,13.9-10.8,18c-6.4,4-14,5.3-20.5,9.1
		C628.9,349.9,626,350.3,623.1,350.7z"/>
	<path class="st3" d="M619.2,536.3c-7.3,2.1-14.9,1.8-22.4,2.7c-7.8,1-15.7,1.4-23.4,3.1c-1.7,0.4-4.4,0.9-4.5,3
		c-0.1,2.1,2.4,2.7,4.2,3.5c2.9,1.3,6,1.2,9.1,1.3c-0.6,0.3-1.1,0.8-1.7,0.8c-8.9,0.3-17.8-0.4-26.7,1c-3.3,0.6-4.2-1.1-4-4.2
		c0.4-5.5,2.1-7.1,8.6-7.5c14.8-1.1,29.6-2.6,44.4-3.1C608.2,536.7,613.7,536.1,619.2,536.3z"/>
	<path class="st8" d="M774.4,570.3c8.3,4.1,17.5,4.4,26.5,5.8c6.1,1,12.4,1.4,18.5,2.1c-5.3,1.8-10.9,1.1-16.2,0.7
		c-9.1-0.8-18.2-1.1-27.1-3.7C772.9,574.3,771.4,573.2,774.4,570.3z"/>
	<path class="st4" d="M665,354.8c-2.9-1.8-5.8-3.6-9-4.7c2.9-1,6.3-3,7.5-4.3C662.8,349.4,663.1,351.3,665,354.8z"/>
	<path class="st9" d="M663.7,344.6c0,0-0.1,0.1-0.1,0.1c0,0,0.1,0,0.1,0c0,0,0.1,0,0.1,0C663.8,344.6,663.7,344.6,663.7,344.6z"/>
	<path class="st4" d="M656,350.1c-0.6,0.2-1.3,0.4-1.8,0.5c0.4-0.3,0.8-0.5,1.2-0.7C655.5,349.9,655.7,350,656,350.1z"/>
	<path class="st4" d="M665.9,356.3c-0.3-0.6-0.6-1.1-0.9-1.6c0.3,0.2,0.6,0.4,0.9,0.6C665.9,355.7,666,356,665.9,356.3z"/>
	<path class="st4" d="M665.9,356.3c-4.2-1.4-7.4-4.8-11.8-5.7c0.6-0.1,1.2-0.3,1.8-0.5c3.3,1,6.2,2.8,9,4.7h0
		C665.3,355.3,665.6,355.8,665.9,356.3z"/>
	<path class="st4" d="M665.9,355.3c-0.3-0.2-0.6-0.4-0.9-0.6h0c-1.9-3.4-2.2-5.4-1.5-9c-1.2,1.3-4.6,3.3-7.5,4.3
		c-0.2-0.1-0.4-0.1-0.7-0.2c2.5-1.6,5.1-3.2,8.2-5.2c0,0,0.1,0,0.1,0c0,0,0.1,0,0.1,0c0-0.1,0-0.1-0.1-0.2c0.7-0.5,1.5-0.9,2.3-1.4
		C662.4,348,665.6,351.6,665.9,355.3z"/>
	<path class="st9" d="M581,329.9c-8.9,0.1-17.4-2.5-26-4.2c-3.1-0.6-6-0.4-9-0.4c-6.2-9-4.1-18.2-0.1-26.9
		c6.9-15.1,15.2-29.4,26.8-41.7c4.1-4.4,8-9,12.9-12.2c13.1-8.6,21.7-8,33.7,0.4c5.9,4.2,11.8,8.5,15.6,14.9c-0.4,1-0.9,1.9-1.3,2.9
		c-2,0.4-3.1-1-4-2.3c-4-5.6-9.7-9.1-15.2-12.9c-8.4-5.8-17.8-4.9-26,2.2c-20.3,17.7-32.5,35.7-41.2,60.7
		c10.6-19.3,25-36.3,43.5-49.5c14-10.1,30.4-7.8,41,6.8c-1.1,6.3-2,12.6,1.9,18.3c1.6,2.3,3.3,4.6,4.9,6.9
		c-2.7,5.7-8.2,8.5-12.7,12.4c-9.2,8-19.8,14.1-30.3,20.3C591.2,328.2,586.1,329.1,581,329.9z"/>
	<path class="st10" d="M631.9,267.6c-4-2.7-7.2-6.5-11.6-8.8c-10.3-5.5-21.6-2.5-30,3.7c-13.9,10.3-25.2,23.1-35.3,37.1
		c-3.3,4.6-5.5,9.9-9,15.7c-0.7-6.8,1.8-12,4-16.7c9.2-20.1,22-37.7,39.5-51.5c9.2-7.2,18.5-6.5,28.1,0.7c5.8,4.4,11.2,9.2,16,14.7
		C632.4,264.1,633.6,266.4,631.9,267.6z"/>
	<path class="st1" d="M581,329.9c22.5-7.2,40.3-21.8,57.7-37.1c0.5,0.1,1.1,0,1.4,0.2c9.4,6,12.6,5.4,18.9-3.2
		c0.3-0.3,0.8-0.5,1.2-0.7c0.8,2.3,2.7,4.1,2.8,6.7c-4.3,2.4-8.9,4.5-11.6,9c-2.7,2-6.1,2-9.2,3.1c-14.4,5.1-28.7,10.4-41.9,18.2
		c-2.7,1.6-5.6,2.7-8.4,3.8C588.2,329.9,584.6,329.9,581,329.9z"/>
	<path class="st11" d="M661.5,262.1c2.1,9.1,0.2,17.2-4.6,24.8c-2.1,3.3-4.5,2.2-6.9,0.3c-2.4-1.9-4.1-4.7-1.7-7
		C653.9,275,658.1,268.9,661.5,262.1z"/>
	<path class="st9" d="M591.9,329.9c5.9-4.5,12.5-7.7,19.1-10.8c11.9-5.6,23.9-10.6,36.6-14c1.2-0.3,2.5-0.2,3.8-0.3
		c-1.5,3.1-1.1,6,1,8.6c0.1,4.6-3,7.6-6.2,9.9c-8.8,6.2-18.3,11.1-28.3,14.9c-0.9,0.4-1.9,0.4-2.8-0.2c-0.8-0.4-1.6-1-1.8-1.9
		c0.2-2.1,2.1-2.7,3.3-4c1.5-1.6,2.6-3.4,1.5-5.7c-1.2-2.4-3.2-3-5.7-2.5c-3.4,0.7-6.5,2.1-9.3,4.2c-1.7,1.3-3.8,1.9-5.6,2.9
		C595.7,330.6,593.8,330.3,591.9,329.9z"/>
	<path class="st10" d="M615.2,338c10.5-3.7,20.1-9.1,29.5-14.8c3.7-2.3,5.7-6.1,7.8-9.8c2,1.1,2.3,3.5,3.9,4.9
		c0.7,3.2-1.4,5.4-3.3,7.2c-9.7,8.7-21.4,13.5-34,16.4C617.8,340.6,616.5,339.3,615.2,338z"/>
	<path class="st9" d="M619.1,341.9c7.7-3.7,16-6.3,23.6-10.3c6-3.1,10.8-7.1,13.6-13.3c1,0.7,2,1.3,3,2
		c-4.1,10.4-12.9,15.1-22.6,18.7c-5.2,2-10.5,3.9-15.7,5.9C619.8,344.2,619,343.3,619.1,341.9z"/>
	<path class="st11" d="M687.1,300.6c0.7,9.6-5.6,18.7-14.8,17.8c-2.3-0.2-4.5-0.6-5.1-2.8c-0.7-2.6,1.5-4.1,3.5-4.4
		C677.7,310.4,682.1,305.9,687.1,300.6z"/>
	<path class="st9" d="M723.7,484.3c4.1,6.1,6.2,12.4,8.5,18.5c2.6,6.9,5.8,13.6,6.8,21c0.3,2.4,0.5,4.5-1.7,6
		c-2.2,1.5-4.1,0.1-5.8-0.9c-3-1.9-4.4-5.2-4.9-8.4c-1-6.6-1.9-13.3-1.9-20C724.8,495.2,723.3,490.2,723.7,484.3z"/>
	<path class="st9" d="M613.1,424.4c1.1-0.3,1.5-0.5,2-0.5c16.5-0.3,33-1,49.5-0.9c12.6,0.1,25.3-0.4,37.8-1.3
		c8.9-0.6,17.7-0.5,26.6-0.7c3.2-0.1,6.4,0.3,9.5,1.1c4.1,1.1,6,4.4,6.6,8.4c0.2,1.1,0.1,2.3-0.1,3.4c-2.2,9.8-2.1,9.6-10.3,4.4
		c-9.2-5.8-19.3-9-30.3-9.6c-22.3-1.3-44.5-1.8-66.9-2C629.6,426.6,621.7,425.2,613.1,424.4z"/>
	<path d="M597.6,331c4.3-4.2,9.4-7.2,15.3-8.6c2.7-0.7,4.8,0.5,6.3,3c1.8,3,0.6,5.2-1.3,7.2c-1.3,1.3-3,2.3-4.6,3.4
		c-0.7-0.1-1.6-0.1-2-0.9c0.5-2.3,3-2.9,4-4.7c0.6-1,1.2-2,0.1-3c-0.8-0.7-1.8-0.4-2.7,0c-2.4,1.2-3.6,3.7-5.3,5.5
		C604.3,331.9,601,331.3,597.6,331z"/>
	<path class="st9" d="M607.5,332.9c-0.2-4.4,3.5-5.7,6.3-7.6c1.3-0.8,2.3,0.3,3.4,1.2c1.4,1.2,0.7,2,0.1,3.3
		c-1.2,2.7-3.6,3.9-5.9,5.3C610.1,334.4,608.8,333.7,607.5,332.9z"/>
	<path class="st9" d="M726.8,539.3c-5.7,4.9-10.6,1.5-15.3,1.5c-4.9,0-9.8-1.6-14.7-1.5c-12.1,0.2-24.1-1.8-36.2-1.6
		C682.3,537.9,704,535.4,726.8,539.3z"/>
	<path d="M580.2,320.3c-5.1,0-8.1-3.9-6.6-8.5c2.4-7.3,8-11.4,14.9-13.9c2.8-1,5.8-2,8.7-1.9c3.6,0.1,6.6,2.2,7.9,5.8
		c1.3,3.6-0.7,6.5-2.9,8.4C595.6,315.7,587.9,318.7,580.2,320.3z"/>
	<path class="st9" d="M602.5,304.2c-0.1,3.8-5.1,8.6-8.5,8.2c-1.8-0.2-2.3-1.4-2.3-3.1c0.1-3.8,4-9.9,6.4-9.5
		C600.5,300.3,603,301,602.5,304.2z"/>
	<path class="st12" d="M582.9,308.3c0.4,3-0.3,5-1.8,6.5c-1,1-1.7,3.2-3.8,2.1c-1.7-0.9-2.3-2.6-2.1-4.5c0.4-3.2,2.4-5.6,4.9-6.8
		C583.6,303.8,582.6,307.3,582.9,308.3z"/>
</g>
</svg>
