<?xml version="1.0" encoding="utf-8"?>
<!-- Generator: Adobe Illustrator 23.0.1, SVG Export Plug-In . SVG Version: 6.00 Build 0)  -->
<svg version="1.1" id="Layer_4" xmlns="http://www.w3.org/2000/svg" xmlns:xlink="http://www.w3.org/1999/xlink" x="0px" y="0px"
	 viewBox="0 0 1000 1000" style="enable-background:new 0 0 1000 1000;" xml:space="preserve">
<style type="text/css">
	.st0{fill:#6E3720;}
	.st1{fill:#FB9A7A;}
	.st2{fill:#CBB89A;}
	.st3{fill:#E00000;}
	.st4{fill:#7F0000;}
	.st5{fill:none;}
	.st6{fill:#800000;}
	.st7{fill:#7A99AC;}
	.st8{fill:#2B5260;}
	.st9{fill:#B4F9F6;}
	.st10{fill:#FEFEFE;}
	.st11{fill:#C0FEFE;}
	.st12{fill:#7F7F7F;}
	.st13{fill:#00407F;}
</style>
<g>
	<path class="st0" d="M550.6,153.3c2.7,3.3,5.8,6.4,8,10.1c4,6.5,4.4,13.7,3.7,20.9c-1.7,19-6.9,37.3-13.6,55.1
		c-2,5.5-4.4,10.8-7.1,16c-1.5,2.9-1.6,4.9,0,7.8c6.4,12.3,4.2,21.8-6.9,30.5c-4.9,3.8-1.4,8-1.1,11.8c0.6,6.8,3.9,13.1,3.7,20.1
		c1.7-8.6,2.7-17.3,5.5-25.6c5.5-16.4,14.6-29.8,30.8-37.4c4.1-1.9,8.3-2.6,12.9-0.9c9.2,3.3,18.7,4.5,28.5,5.1
		c16,1,25.9,10.5,27.5,27.1c1.9,2.5,1.3,5.5,1.2,8.3c-2.1,8,0.1,15.4,3,22.6c2.7,6.8,5.5,13.4,6.7,20.7c0.2,2.4,0.9,4.7,1.1,7
		c0.4,4.8-0.5,9.5-2.1,14c-1.8,3.6-4.1,6.9-8,8.5c-4.4,3.5-9.2,6-14.6,7.4c-2.2,0.5-4.8,1.1-6.6-0.1c-4.1-2.7-7-0.9-10.4,1.4
		c-6.1,4.3-13,5.5-19.9,2.8c-4.5-1.7-8.7-2.2-13-0.7c-4.3,1.5-7.7,0.1-11.1-2c-12.2-7.3-20.7-17.7-25.7-30.9
		c-1.2-3.2-3.2-6.2-3.4-9.8c-2.2,7-1.7,14.2-2.4,21.2c-0.9,9.2-2.4,18.3-3.6,27.5c-1.1,8.5-2.9,16.9-4.2,25.4
		c-1.5,9.4-4.1,18.5-6.1,27.8c-3.2,15-7.6,29.6-12.5,44.1c-1.3,3.9-3.4,7.5-5.2,11.2c-1.6,3.2-5,4.4-8.3,3.4
		c-6-1.7-10.8-4.9-15.2-9.9c-20.5-23.4-29.8-52.2-40.7-80.4c-5.4-14-8.9-28.4-10.6-43.2c-1.2-10.7-2.6-21.4-2.2-32.2
		c0.5-14.4-3.9-27.3-11.3-39.7c-7.5-12.6-13.2-26.3-18.9-39.8c-2.8-6.7-5.2-13.5-7.8-20.3c-3.4-8.8-4.7-18.1-5.7-27.3
		c-1.1-9.6-1.9-19.4,0.7-29.1c1.7-6.4,4.3-12.2,8.1-17.5c9-12.3,21.7-19.1,35.7-24.2c15.3-5.5,30.7-9.5,47.1-8.2
		c1.9,2.3,1.5,4.8,0.5,7.4c-4,2.6-8.7,1.9-13.2,2.5c-17.5,2.3-34.1,7.3-49.2,16.5c-8.1,4.9-13.7,12.1-17.1,21.2
		c-6.1,16.4-2.9,32.5,1.6,48.4c6.8,23.9,17.6,46.2,29.1,68.1c7.8,15.1,10.7,31.2,11.5,48c1.3,25.9,4.7,51.5,14.5,75.8
		c7,17.4,13.4,35,22.9,51.2c3.2,5.5,6.7,10.7,11,15.5c1.6,1.8,3.3,3.6,5.5,4.7c2.1,1.1,3.7,0.7,4.9-1.5c1-1.7,1.7-3.5,2.3-5.4
		c10.2-33.2,18.2-66.9,22.8-101.3c1.5-11.4,2.3-23,3.1-34.5c0.9-13.4-1-26.6-3.5-39.7c-0.8-4-2.5-6.2-7-5.1c-2,0.5-4.2,0-6.3-0.3
		c-7.1-1.2-14.2-2-21.2-3.6c-12-2.8-23.6-1.1-35.1,2.5c-2.1,0.7-4.8,2.3-6.3,0.2c-1.4-2.1,1-4.2,2.5-5.8c7.5-8.4,16.8-12,28-10.5
		c10.5,1.5,20.9,3.1,31.3,4.9c5.6,1,10.7-0.2,15.5-3c7.7-4.5,10.8-10.6,7.4-18.9c-3.3-8.1-1.9-14.5,2.4-21.9
		c6.1-10.6,8.5-22.8,11.6-34.6c2.3-9.2,3.8-18.5,5-27.8c1.1-8.5-1.4-16.1-5.8-23.2C545.8,158.2,547.5,155.3,550.6,153.3z"/>
	<path d="M800.4,528.7c-6.2-9.7-20.2-13.1-29-9.7c-7.5,2.9-14.6,6.6-21.8,10c-1.8-4.9-5.6-7.1-10.9-5.2c-3.6,1.3-3.9-0.8-4.3-2.8
		c-3.5-16.8-6.9-33.6-10.5-50.4c-0.5-2.2-0.1-3.2,2.1-3.8c3.4-1,6.7-2.4,8.3-5.9c6.3-13.6,9.6-27.8,6.8-42.8
		c-1.4-7.4-7.2-11.8-14.9-11.8c-4.7,0-9.4,0-14.2,0c-1.5,0-2.8,0-3.9-1.3c-6.8-7.8-16-10.8-25.6-13.3c-1.4-0.3-2.8-0.6-2.8-2.1
		c0.1-2.9-1.3-5.5-1.2-8.5c0.2-5.6-1.6-11.1-1.5-16.6c0-5.3-2.7-10.5-0.4-15.8c2.1-4.2,2.7-8.6,1.6-13.3c-0.2-0.2-0.4-0.4-0.6-0.5
		c0,0,0,0,0,0c-1.2-0.6-1.8,0.8-2.3,1.5c-3.2,4.9-8.1,6.5-13.6,7.5c-2.7,0.5-5.7-0.3-8.3,1c-0.4,0.2-0.7,0.4-1.1,0.7
		c-0.6,2.4,1.1,4.5,1,6.9c0.4,0.3,0.9,0.6,1.3,0.8c2.3,1.1,4.8,0.7,7.1,0.3c3.9-0.7,5.3,1,5.7,4.6c0.9,8.1,1.9,16.1,2.8,24.2
		c0.9,7.7,2.2,8.5-7.2,9.2c-1.3,0.1-2.6,0.4-3.8,0.6c-5.1,0.6-5.9-0.1-6.3-5.3c-0.4-4.5,0-9.1-0.2-13.6c0-1.8,0.3-3.8-1-5.3
		c-0.2-0.2-0.3-0.4-0.6-0.6c-2.3,2.6-4.5,5.2-6.8,7.8c0.4,6.4,0.6,12.9,1.2,19.3c0.2,2.2-0.7,3.3-2.5,4c-5.7,2.1-9.9,6.2-14.2,10.3
		c-1.1,1.1-1.9,2.5-3.9,2.6c-8.6,0.5-17.2,1.4-25.9,1.8c-6.5,0.3-9.2,2.1-11.3,8.5c-3.5,10.4-2,20.9-0.6,31.3
		c0.9,6.4,2.9,12.7,10.1,15.3c1.2,0.4,0.9,1.9,1.3,2.9c3.9,10.4,4.8,21.4,5.5,32.1c1.3,19.7,0.2,39.4-4.3,58.8
		c-1.4,5.9,1,14.2,7.2,15.9c2.7,0.7,5.5,1.5,8.5,1.3c14.4-1.1,28.8-2.3,43.2-2.8c7.7-0.3,15.4,0.1,23.2,0.6
		c14.4,0.9,28.9,0.4,43.4,0.1c3.9-0.1,8.2-0.6,11.5-2.4c2.4-1.3,4-1.1,6.1-0.4c12.3,4.4,24.8,5.3,37.4,1.8c9-2.4,17.1-6.5,22.2-15
		C809.3,549.8,806.8,538.8,800.4,528.7z M745.3,550.6c1.3-0.3,2.7-1.2,3.6-2.2c8.2-9.5,20-11.6,31-15c3.9-1.2,8.2,1.3,10.7,4.9
		c2.4,3.5,3.4,7.2,1,11.5c-4.7,8.6-12.9,10.9-21.3,12.5c-2.7,0.5-5.5,2-8.1,1.1c-6.2,0.2-11.5-1.9-16.9-3.4c-2.9-0.8-2.8-4-3.1-6.6
		C741.8,550.5,743.6,551,745.3,550.6z"/>
	<path class="st0" d="M676.7,348.7c0.3-4.6,0.7-9.2,1-13.7c-0.9-0.9-0.9-2-0.8-3.1c1.3-9.4,3.9-18.8,0.5-28.3
		c-0.3-0.9-0.2-1.9,0.3-2.8c-0.2-5.4-1.3-10.5-0.1-16.1c2.9-13.7,11.3-22.4,24-26.2c8.7-2.7,16.6-7,24.9-10.4
		c9.7-3.9,18.7-3.5,27.4,2.4c14.9,10,25,23.6,29,41c5.8,24.7,1.4,47.7-14.1,68.1c-3.3,4.4-8.2,7-13.2,9.3c-0.5,0.3-1.5,0.5-1.8,0.2
		c-4.7-3.9-7.9,0-11.3,2.3c-6.9,4.7-14.1,6.5-21.7,1.7c-2.6-1.7-4.8-0.8-7.1,0.7c-6.9,4.5-14.1,5.4-21.7,2.1
		c-9.1-3.9-12.5-11.7-14.1-20.6C677.5,353,676.5,351,676.7,348.7z"/>
	<path d="M476.6,139.5c0-2.5,0-5,0-7.5c1.6-1.8,0.9-4.4,2.6-6.3c4.3-4.6,7.6-4.4,15.6-1.7c6.5,2.1,10.4,7.4,14.9,12
		c3.8,2.8,5.9,6.9,7.8,11.1c1.3,4.2,1.8,8.4,0.4,12.8c-1.5,4.5-4.6,7.2-8.9,8.9c-9.9,3.5-17.5,0.1-23.8-7.6c-1-1.6-2.2-3.1-3.3-4.6
		c-0.6-1-1.2-2.1-1.7-3.1C478.3,148.9,475.4,144.7,476.6,139.5z"/>
	<path d="M550.6,153.3c-1.6,2.6-3.2,5.2-4.7,7.9c-1.2,1.7-3,2.7-4.9,3.6c-1.3,0.5-2.6,0.9-4,1.3c-1.7,0.4-3.3,0.9-5.1,1.1
		c-4.2,0.1-7.3-1.8-9.4-5.4c-2.1-4.6-1.4-9.4-1.4-14.2c0.5-3,0.3-6.2,2.3-8.8c1.7-2.4,1.1-5.4,1.8-8.1c1.8-6.6,7.4-9.5,13.5-6.5
		C548.1,129,554,143.5,550.6,153.3z"/>
	<path d="M677.7,300.7c4.9,10.4,2.5,20.8,0.2,31.2c-2.2-2.5-1.7-5.8-2.2-8.8c-0.5-2.5-0.8-5.1-1.5-7.7
		c-3.1-11.2-11.6-16.2-23.1-13.6c-2.8,0.6-5.5,2.4-8.5,0.8c0-3,0-5.9,0-8.9c7.9-1.7,15.9-2.8,23.9-0.9
		C671.4,294.1,674,298.1,677.7,300.7z"/>
	<path class="st0" d="M523.5,138.8c0.4,3-0.8,5.8-1.1,8.7c-2.2,1.1-4,0.2-5.7-1.1c-2.3-3.5-4.6-7.1-6.9-10.6
		C514.5,136.1,518.9,137.6,523.5,138.8z"/>
	<path class="st1" d="M516.6,146.5c2.1-0.4,3.8,0.6,5.7,1.1c0.4,4.8-0.5,9.8,1.2,14.5c1,1.9,0.3,3.8-0.1,5.7
		c-5.3,25.3-7.2,50.8-6.3,76.5c0.2,4.5,0.7,9.1,2,13.5c0.4,1.4,1,3,2.6,3.2c1.7,0.3,2.5-1.3,3.3-2.4c3.4-4.9,5.1-10.5,7-16.1
		c6.7-19.3,9.9-39.4,12.3-59.6c0.5-4.6-0.7-9-2.2-13.3c-0.6-1.8-1.9-3.5-1.2-5.6c1.8-0.8,2.7-3,5-2.9c6.4,7.9,7.3,16.7,6.1,26.7
		c-2.1,17.3-6.6,33.9-11.9,50.4c-2,6.3-5.2,12.1-8.5,17.7c-1.3,2.2-1.2,4-0.3,6.3c1.9,5.2,4.8,10.2,3.3,16.1
		c-2.4,9.9-15.5,16-25.1,14.4c-11.4-1.9-22.7-4.5-34.1-5.5c-12-1-21.4,4.5-28.1,15.4c6.6-1.7,12.7-3.3,18.8-4.9
		c9.2-2.4,18.2,0.1,27.2,1.5c7.3,1.1,14.6,2.2,21.8,3.4c2.5,0.4,5.2-2.6,7.3-0.2c2.1,2.3,2.3,5.6,2.8,8.6c2.1,12.4,4.1,24.9,3,37.5
		c-1.7,20.1-3.7,40.2-7.3,60.2c-4.6,25.2-11.3,49.9-18.1,74.5c-0.5,1.7-1.1,3.3-1.9,4.9c-3.3,7.1-5.5,7.6-11.1,2
		c-9.1-9.1-15.5-20.1-20.8-31.7c-6.6-14.6-12.9-29.3-18.3-44.4c-5.7-15.9-8.6-32.4-10.5-49.2c-1.6-13.9-1.2-28-3.8-41.8
		c-1.4-7.2-3.4-14.3-6.7-21c-12.2-24.8-24.9-49.3-32.5-76.1c-2.6-9.2-4.9-18.6-4.4-27.9c1.2-23.7,8.9-37.2,33.3-47.6
		c16.1-6.8,32.9-10.8,50.4-11.2c1.2,4.7,2.5,9.4,4.7,13.8c-5.8,2.8-12.1,4.6-18,7.2c-12.5,5.6-17.7,15.2-16.3,28.9
		c2.4,22,10.2,41.9,21.4,60.7c3.8,6.4,8,12.7,15.2,16.1c6.6,3.1,10.8,2.2,15.6-3.3c6.6-7.7,9.3-17.1,11-26.8
		c3.6-20.7,2.7-41.4-1.2-62c-0.4-2-1.5-4-0.3-6.1c8.8-5.7,9.9-8.4,8-19.1C516.5,148.1,516.6,147.3,516.6,146.5z"/>
	<path class="st1" d="M619.6,354.3c-1.8,8.5-4.8,15.6-11.5,20.5c-4.3,3.1-8.9,4.1-13.8,1c-4-2.6-8-3.8-12.6-1
		c-1.9,1.2-4.4,1.9-6.9,0.4c-12.3-7.2-21.1-17.4-24.9-31.1c-3.7-13.2-1.9-26.5,2-39.3c3-9.8,7.9-18.7,15.9-25.5
		c7.6-6.4,16.3-6.8,25.2-3.7c5.6,1.9,10.8,2.6,16.8,1.9c14.5-1.7,26.9,11.5,23.5,25.6c-2.4,10.1-0.2,18.5,3.9,27.2
		c3.1,6.5,5,13.5,6.2,20.6c1.7,10.4-7.1,21-17.4,21c-2.5,0-4.3-1-4.1-4.1C622.3,363.4,621.7,359.1,619.6,354.3z"/>
	<path class="st2" d="M642.6,302.8c8.3-2.5,16.4-4.6,24.8,0c3.3,1.8,5.2,4.3,6.5,7.7c2.7,6.9,3.4,14.2,4,21.4c-0.1,1-0.1,2-0.2,3
		c-3.6,8.4-11.1,10-19,10.7c-2.1,0.2-4.2,0-6.3,0c-1.6-11.1-8.2-20.6-10.1-31.6C641.5,310.1,641.6,306.5,642.6,302.8z"/>
	<path class="st2" d="M653.4,352.6c3.7-0.3,7.3,0.5,11-0.9c1.8-0.7,3.3-0.4,3.8,2.6c1.3,7.2,1.6,14.5,2.7,21.8
		c0.6,3.6,0,7.6,1.3,10.9c2,4.9-1.1,5.3-4,5.6c-4.6,0.4-9.2,0.8-13.7,2c-1.7,0.5-1.9-0.6-2.3-2.1c-1.8-8.3-0.4-16.7-1.1-25.1
		C652.2,362.4,653.9,357.6,653.4,352.6z"/>
	<path class="st3" d="M713.7,469.8c2.6,7.2,3.2,14.9,4.9,22.3c2.5,10.7,4.6,21.5,6.8,32.3c0.5,2.4-0.1,3.9-2.8,4.5
		c-2.1,0.5-4.2,0.6-6.3,0.3c-10.6-1.5-21.3-0.7-31.8-2c-8.8-1.1-17.5,0.2-26.2,0.4c-11.2,0.2-22.3,1.1-33.5,2
		c-6.8,0.5-9.8-2.7-8.9-9.4c1.3-9.5,2.7-19,7.6-27.6c3.8-6.6,8.7-11.5,15.9-14.3c12-4.6,24.5-6.6,37.1-7.9c9.2-1,18.5-1,27.7-1.9
		C707.5,468.1,710.9,467.4,713.7,469.8z"/>
	<path class="st3" d="M620.2,422c19.4-0.6,38.7-2,58.1-2.4c11.3-0.3,22.6-0.2,34-0.7c3.8-0.2,7.3,1.1,11,1.3
		c4.8,0.3,6.5,3.4,6.2,7.8c-0.4,8-1.4,15.9-5.3,23.2c-1.2,2.2-2.5,3.5-4.9,2.9c-5.9-1.7-12.2,0-18.1-2c-13.1-1.9-26.3-3.2-39.6-4.5
		c-14.1-1.4-27.8,1.4-41.7,1.9c-3.1,0.1-6.2,0.4-9.2-0.1c-5.1-0.8-8.7-3.3-9.9-8.6c-1.2-5.4,0-10,4.5-13.5
		C609.6,423.8,614.9,423.1,620.2,422z"/>
	<path class="st4" d="M713.7,469.8c-23.4,0.9-46.7,1.5-69.4,8.2c-15.8,4.6-21.7,16.5-25.1,30.8c-0.9,4.1-1.5,8.2-2,12.4
		c-0.6,5.5,1.2,7.8,6.4,6.9c7.4-1.2,14.8-0.6,22.2-1.5c8.3-1,16.9-0.5,25.3-0.2c4.5,0.1,9-1.1,13.4,0.8c-16.4,1-32.9,1.9-49.3,3.1
		c-6.6,0.5-13.1,1.7-19.6,2.6c-2.4,0.3-3.3,0.3-3-2.9c0.8-7.7,0.7-15.4-0.1-23.2c-0.9-7.8-1.1-15.8-2.3-23.6c-0.4-3-0.9-6.1-1.7-9
		c-1-3.6,0.1-4.9,3.8-5.5c11.6-2,23-5.1,34.6-6.3c10.5-1.1,21.1-2.3,31.9-0.9c8.4,1.1,17.1,0.9,25.5,2.3c2.1,0.4,4.1,0.7,6.1,1.3
		C712.7,465.9,714.4,467.1,713.7,469.8z"/>
	<path class="st3" d="M700.3,545.8c4.2,0,8.5,0.5,12.7,0c6.1-0.7,11.3,1.9,16.7,3.7c3.1,1,4.1,3.7,3.6,6.6c-0.6,3.7-0.8,7.9-5.4,9.4
		c-4.6,1.5-9.5,1.6-14.2,1.8c-10.7,0.4-21.5,0.2-32.2,0.1c-4.2-0.1-8.3-0.7-12.5-1.1c-9.3-1-18.8,0.2-28.1-0.8
		c-2.9-0.3-5.8-0.4-6.7-3.6c-0.9-3.1,1.1-5.2,3.2-7.1c1.7-1.5,3.9-2.2,6.1-2.8c10.9-2.8,21.9-4.4,33.1-5.1
		C684.5,546.4,692.3,544.9,700.3,545.8z"/>
	<path class="st5" d="M791.6,549.8c-4.7,8.6-12.9,10.9-21.3,12.5c-2.7,0.5-5.5,2-8.1,1.1c-6.2,0.2-11.5-1.9-16.9-3.4
		c-2.9-0.8-2.8-4-3.1-6.6c-0.3-2.9,1.5-2.4,3.2-2.8c1.3-0.3,2.7-1.2,3.6-2.2c8.2-9.5,20-11.6,31-15c3.9-1.2,8.2,1.3,10.7,4.9
		C793,541.8,794,545.5,791.6,549.8z"/>
	<path class="st3" d="M647.5,533.3c4.1-1.4,8.3-0.9,12.4-1.1c14.6-0.7,29.1-1.1,43.7-1c5,0,9.9,0.5,15,1.5c-1.3,3.7-1.4,7.2,1,11.1
		c-6.1,0.4-11.8-0.7-17.4-1.1c-9.5-0.8-18.9-1.2-28.4,0.1c-4.3,0.6-8.6,0.4-13,0.9c-10.9,1.2-21.8,1.6-32.8,2.2
		c-1.1,0.7-2.2,0.1-3.3-0.2c-2-0.4-3.8-1.4-4.1-3.6c-0.4-2.4,1.3-3.9,3.2-4.9c4.1-2.2,8.7-2.2,13.1-3.1
		C640.4,533.5,644,534,647.5,533.3z"/>
	<path class="st6" d="M620.2,422c-4.7,1.7-9.5,3-13.6,6c-4.2,3.1-5.7,7.3-4.7,12.2c1.1,5.4,4.8,7.8,9.6,7.9c7.6,0,15.3-0.1,22.7-1.3
		c12.4-1.9,24.7-1,37.1,0c8.1,0.7,16,2.2,23.9,3.3c2.1,0.3,4.1,0.7,5.9,1.9c-7.5,0.7-14.8-1.1-22.3-0.9c-19.5,0.3-39,1-58.3,4.9
		c-5,1-10.2,1.4-15.3,2c-6.5,0.8-10-3.1-10.7-11.3c-0.5-6.2,0.7-12.2,2.2-18.2c1-4.1,4.7-4.9,7.9-5.4
		C609.8,422.3,615,422.3,620.2,422z"/>
	<path class="st4" d="M700.3,545.8c-19.2,1.9-38.6,2.9-57.4,7.8c-1.6,0.4-3.2,0.8-4.4,1.8c-1.9,1.6-4.1,3.4-3.4,6
		c0.7,2.7,3.6,2.6,6,3c7.9,1.4,15.8,0.7,23.8,0.9c1.4,0,3-0.4,4.1,0.8c-6.8,0-13.6,0.3-20.4,0.1c-11.2-0.2-22.2,1.6-33.3,1.9
		c-5.6,0.2-7.5-2.5-6.3-8c2-8.9,3.4-9.7,13.9-10.6c18.5-1.5,36.9-3.5,55.4-4.1C685.7,545.5,692.9,544.1,700.3,545.8z"/>
	<path class="st7" d="M792,526.3c6.5,2.3,8.2,8.4,9.6,14c4.4,18-8.7,28.2-22,31.9c-2.9,0.8-6,0.8-9,1.2c-9.6,0.1-19-0.6-27.4-6
		c-0.4-3.1,0.2-4.3,3.8-2.9c14.7,5.8,28.5,2.8,41.6-5.1c6.9-4.1,9.2-12.5,5.9-20.3c-3-7.3-10.2-11.4-18.2-9c-8,2.4-15,6.8-22.7,9.8
		c-1.9,0.8-3.7,2.1-5.5-0.3c-1.8-2.4,0-4,1.5-5.2c5-4.2,10.8-6.5,17.1-8c-1.4,4.8-6.6,3.8-9.1,6.2c5.5-2.7,11.5-4.9,18-5.9
		c14.4-2.2,25.3,8.3,23.3,22.8c-0.3,2.6-0.9,5.1-2,7.4c4.4-9,3-17.4-2.3-25.6C793.5,529.7,791.4,528.7,792,526.3z"/>
	<path class="st2" d="M697.8,405.7c-6.4,2.1-46.7,5.6-59.4,5.4C646.3,400.9,686.8,397.2,697.8,405.7z"/>
	<path class="st8" d="M739.7,529.3c4.2-0.1,6.2,2.1,4.7,5.1c-1.5,3-1.3,5.4,0.7,8.1c2.1,2.9-0.2,3.7-2.2,3.3c-6.5-1-13-2.5-18.7-6.1
		c-2.8-1.8-2-5.2,1.9-6.6C730.7,531.5,735.6,530.5,739.7,529.3z"/>
	<path class="st9" d="M792,526.3c5.9,5.9,9.1,12.9,8.7,21.3c-0.2,4.6-1.3,9.2-5.4,12.7c-0.7-2.4,0.6-4,1.1-5.7
		c2.9-10-0.4-20.7-7.9-25.3c-5.9-3.7-12-1.8-17.9-0.4c-5.9,1.3-11.4,3.9-17.8,6.2c4.1-4.5,9.7-5.3,13.6-8.8
		C775.1,522.2,783.5,521.3,792,526.3z"/>
	<path class="st4" d="M647.5,533.3c-6.3,1.6-13,1.5-19.1,3.7c-0.9,0.3-1.9,0.4-2.7,0.8c-2,0.8-4.2,1.6-4.2,4.1
		c0,2.1,2.4,2.3,3.9,3.1c0.8,0.5,1.8,0.7,2.7,1c-4.7,1.9-9.9-0.1-14.6,1.7c-0.4,0.2-1.3-0.3-1.7-0.7c-1.6-1.9,1.2-10.7,3.7-11.1
		C626.1,534.4,636.7,532.7,647.5,533.3z"/>
	<path class="st8" d="M743.2,567.4c9,2.7,18,5.2,27.4,6c-9.3,2.3-18.2-0.5-27.1-2.6C742.1,570.5,741.5,568.7,743.2,567.4z"/>
	<path class="st1" d="M710.6,349c-2.5,3-3.1,6.2-2.4,9.5c0.4,1.9,2.1,4.5,0.6,5.6c-2.5,1.7-5.8,2.8-9.1,1.9
		c-6.3-1.7-9.1-6.4-11.1-12.1c-3.6-10.3-1.1-20.3,1.5-30.2c1.3-5.2,1.3-10,0-15.1c-1-3.9-1.9-7.8-2.9-11.6
		c-2.6-9.6,1.2-19.9,10.6-23.4c11.4-4.1,22.2-9.1,32.8-14.7c8.3-4.4,15.5-0.4,22.3,4.1c7.8,5.1,12.4,12.9,16.2,21.1
		c4.4,9.5,7.7,19.5,7.3,30.1c-0.5,15.4-6.4,28.6-17.3,39.6c-2,2-4.5,3.3-6.8,3.2c-6.7-0.1-12,3.3-17.3,6.5c-3.3,2-6.4,2.1-9.6,0.5
		C718.7,360.9,712.6,356.9,710.6,349z"/>
	<path class="st10" d="M508.7,168c2.4,8.2,3.2,16.6,4.2,25.1c0.9,7.6,1.1,15.2,0.7,22.8c-0.7,14.1-1.9,28.3-8.7,41.1
		c-1.5,2.8-3.4,5.5-5.5,7.9c-6.4,7.1-18.3,5.1-25.3-4.1c-4.4-5.8-8.1-11.9-11.6-18.3c-7.8-14.2-13.2-29.3-15.9-45.2
		c-1.4-8.4-3.3-17.2,1.7-25.5c2.7-4.4,5.8-8.4,10.5-10.4c7.3-3.2,14.2-7.7,22.5-8c0.5,0.9,1.4,1.6,1.2,2.8c-1.1,1.9-3.2,2.1-5,2.6
		c-3.9,1-7.9,2.1-11.6,3.8c-11.7,5.3-16.6,14.8-15.2,27.6c1.4,12.4,5,24.1,9.9,35.5c5.1,11.9,10.1,24,19.2,34
		c-9.6-21.5-16.3-43.5-18.6-66.8c-1.7-17.2,6.7-30,24.3-32.8c2.8,1.6,4.4,4.4,7.1,6.1C497.8,169.5,503.1,169.1,508.7,168z"/>
	<path class="st11" d="M485.4,160.1c-3.6,3.2-8.6,3.3-12.6,6.1c-9,6.2-11.4,15.3-10.6,25.1c1.3,15.3,4.6,30.3,9.6,44.9
		c3.1,9,6.8,17.7,10.6,27.5c-5.7-4.1-9.1-9-11.8-14.1c-8.7-16-16.4-32.5-19.9-50.5c-1.2-6.1-2.2-12.3-1.1-18.7
		c1.9-10.7,8.6-16.7,18.3-20.1c4.7-1.6,9.6-2.7,14.5-4.1C483.9,157.2,485.4,158,485.4,160.1z"/>
	<path class="st12" d="M495.6,130.2c7.9,3.7,13.8,9.4,17.5,17.1c1.6,3.3-0.2,5.6-5.1,7.5c-3.4,1.3-4.5-0.8-5-3.4
		C501.5,144,498.1,137.3,495.6,130.2z"/>
	<path class="st10" d="M540.9,164c5.2,8.2,5.8,17.2,4,26.5c-2.1,11-2.6,22.3-5.9,33.1c-3.8,12.4-6,25.4-13.3,36.5
		c-1.1,1.6-1.8,3.8-4.2,3.4c-2.3-0.4-3.4-2.7-3.8-4.6c-0.9-5-1.9-10.1-2.1-15.2c-0.3-9.1-0.7-18.3,0.1-27.3
		c0.8-10.9,2-21.7,3.4-32.6c1-7.4,2.5-14.5,4.3-21.7c2.5,2.2,5,4.4,8.7,4.1c5.3,4.8,5.5,11.3,5.1,17.5c-0.6,10.2-1.3,20.3-3.4,30.3
		c-0.4,1.7-0.3,3.6-1.9,4.8c-2.5-0.5-1.9-2.7-2-4.3c-0.1-2.6-0.6-5.2-1.8-7.5c-0.6-1.2-0.9-3.1-2.7-3.1c-1.9,0.1-3.2,1.4-3.9,3.2
		c-1.2,3.1-1.3,6.3-1.6,9.5c-0.5,4.5-0.3,9.1-0.1,13.6c0.3,5.6,1.6,6.4,7.2,4.8c0.5-0.1,1,0,1.4,0.2c1.2,4.3-1.5,7.8-2.5,11.6
		c-0.5,2-1.5,3.9-1.9,5.4c2.6-6.9,5.2-14.4,7.7-21.9c4.6-14.1,6.5-28.8,8.6-43.4c0.9-6.3,0.3-12.7-2.7-18.5c-0.5-1-1.1-2-0.7-3.2
		C538.2,164.3,539.5,163.8,540.9,164z"/>
	<path class="st11" d="M531.4,218.7c2.2-7.3,3.1-14.8,3.5-22.3c0.4-7.2,2.3-14.3,0.4-21.7c-0.8-3-2.7-5.5-3.1-8.6c1.7,0,3-1.8,4.9-1
		c5.4,6.6,5.6,14.5,4.7,22.2c-2.3,18.7-5.8,37.3-12.5,55.1c-1.7,4.6-4,9.1-7,13.3c2-6.8,4-13.7,6-20.5
		C528.4,229.6,528.4,223.9,531.4,218.7z"/>
	<path class="st12" d="M538,129.2c8.9,4.6,14,18,5,24.8c-2.1,1.6-2.9,1.3-4-0.9c-0.8-1.5-1.2-3.1-0.7-4.7c0.8-3.1,2.2-6.1,1.8-9.4
		C539.5,136,538.7,132.9,538,129.2z"/>
	<path class="st10" d="M712.9,483.2c2.9,6.1,3.8,12.9,4.7,19.5c0.9,6.3,2.8,12.3,4.4,18.4c0.6,2.3,1.7,4.8-0.8,6
		c-2.7,1.3-4.1-1.5-5.2-3.3c-2.6-4.3-2.7-9.5-3-14.3C712.5,500.8,712.9,492,712.9,483.2z"/>
	<path class="st10" d="M646.9,424.3c6.2-1.1,12.5-1,18.7-1.2c17.9-0.8,35.9-1.9,53.9-1.2c4.1,0.1,8.2,5.7,7,10.4
		c-0.8,3.2-0.3,6.7-2.2,9.8c-2.8-2-4.1-5.5-7-7.5c-6.4-4.6-13.8-6.4-21.3-6.7c-8.4-0.3-16.7-1.2-25.1-1.3
		C662.8,426.5,654.9,424.8,646.9,424.3z"/>
	<path class="st10" d="M676.4,533.4c11.4,0.4,22.8-1.3,34.2,0.7c1.5,0.3,3.3,0.3,3.1,2.1c-0.2,2.1-2.3,2.2-3.9,1.8
		C698.9,535.2,687.4,536.4,676.4,533.4z"/>
	<path d="M494.1,223.6c0.3-3.9,0.8-7.8,2-11.6c1.8-5.5,5.3-8.5,9.2-7.9c3.2,0.5,6.9,5.6,6.3,10.1c-0.9,6.9-0.5,13.9-2.8,20.6
		c-0.9,2.8-2.3,6-5.2,6.2c-3.3,0.3-5.8-2.4-7-5.5C495.3,231.6,493.8,227.8,494.1,223.6z"/>
	<path d="M531.4,218.7c-0.9,5.5-0.7,11.3-3.2,16.5c-2.1,1.1-3.8,4.1-6.6,2.5c-2.5-1.4-3.1-4.3-3.1-7.1c0-7.4-0.3-14.8,1-22.2
		c0.6-3.3,2.7-5.6,5.8-6.2c3.4-0.7,3.2,2.9,4.4,4.7C532.1,210.6,530.9,214.8,531.4,218.7z"/>
	<path class="st10" d="M509.7,215.3c0.6,2.4-0.4,4.5-2.5,5.2c-1.9,0.6-2.9-1.7-4-3c-1.3-1.7-2.7-3.6-3.1-5.7
		c-0.5-2.4,1.8-3.7,3.6-4.6c2-1,4,0.3,4.7,2.2C509.1,211.3,510.4,213.2,509.7,215.3z"/>
	<path class="st13" d="M504.9,234.6c0.1,1.7-0.2,3.4-2.3,3.6c-2.1,0.2-6.3-5.3-6.4-8.4c-0.1-1.6,0.5-2.9,2.3-3.1
		C501,226.4,504.8,231.1,504.9,234.6z"/>
	<path class="st10" d="M529.3,214c-0.1,1.7,0.6,3.9-1.6,4.5c-1.8,0.5-2.4-1.8-3.7-2.7c-0.2-0.2-0.4-0.5-0.5-0.8
		c-1.7-3.1-1.4-6.1,0.3-8.9c0.4-0.6,1.1-1.5,2-0.9c2.7,1.7,3.2,4.5,3.5,7.4C529.3,213.1,529.3,213.5,529.3,214z"/>
	<path class="st13" d="M519.5,229.2c0.1-1.6-0.4-3.6,1.4-4.2c1.9-0.6,2.7,1.3,3.5,2.7c0.1,0.1,0.1,0.3,0.2,0.4
		c1,2.1,2.9,4.1,0.8,6.6c-0.7,0.8-1.4,2.1-2.8,1.2C520.4,234.3,519.4,232,519.5,229.2z"/>
</g>
</svg>
