<?xml version="1.0" encoding="utf-8"?>
<!-- Generator: Adobe Illustrator 23.0.1, SVG Export Plug-In . SVG Version: 6.00 Build 0)  -->
<svg version="1.1" id="Layer_4" xmlns="http://www.w3.org/2000/svg" xmlns:xlink="http://www.w3.org/1999/xlink" x="0px" y="0px"
	 viewBox="0 0 1000 1000" style="enable-background:new 0 0 1000 1000;" xml:space="preserve">
<style type="text/css">
	.st0{fill:#6E3720;}
	.st1{fill:#FB9A7A;}
	.st2{fill:#E00000;}
	.st3{fill:#7F0000;}
	.st4{fill:none;}
	.st5{fill:#800000;}
	.st6{fill:#CBB89A;}
	.st7{fill:#7A99AC;}
	.st8{fill:#B5FAF7;}
	.st9{fill:#2B5260;}
	.st10{fill:#FEFEFE;}
	.st11{fill:#C0FEFE;}
	.st12{fill:#004080;}
	.st13{fill:#7F7F7F;}
	.st14{fill:#00407F;}
</style>
<g>
	<path d="M895.3,549.3c-2.1-13.6-11.9-20.8-23.3-25.7c-12.5-5.3-25.9-5.1-39.1-3c-12.7,2-25,6.1-37.3,9.8c-2.3,0.7-3.6,0.8-4.9-1
		c-2.8-3.6-6.9-4.7-10.9-4.9c-3.3-0.1-4.4-1.7-5.5-4.2c-3.2-7.6-6.5-15.3-9.9-22.8c-5.1-11.1-11.9-21.3-17.7-32.1
		c4.6-1.9,9.4-1.5,13.2-4.3c9.6-7,15.6-16.3,17.4-28.2c2.2-14.6-1.8-23.9-13.6-30.7c-4.3-3.2-9.5-3-14.4-3.2
		c-4.9-0.1-9.9-0.1-14.8-0.1c-3.2,0-6.5,0-9.7,0.1H722c-2.5,0-4.9-0.1-6.9-1.8c-3.7-3-8.1-4.8-12.3-6.7c-0.1,0-0.3-0.1-0.4-0.1
		c-0.3-0.1-0.5-0.2-0.8-0.3c-8.7-2.8-17.6-4.7-26.7-5.7c-0.2,0-0.4,0-0.6-0.1c0,0-0.1,0-0.1,0c-3.9-0.9-7.9-1-11.4-1.7
		c2.8-5.3,3.4-11.3,4.8-17c1.4-5.7-0.5-10.8-4.4-15.1c-7.2-3.1-14.3-6.5-22.3-6.9c-0.5-0.5-1-0.9-1.6-1c-6.3-0.8-12.5,0.3-18.6,1.5
		c-3.5,0.7-4.1,3.7-3,6.9c0.2,0.3,0.5,0.6,0.7,0.8c0,0,0,0,0,0c1.2,0.9,2.7,0.7,4.1,0.5c3.4-0.5,6.8-0.6,10.1-1.1
		c6.4-0.9,12.6,0.6,18.5,2.8c6.4,2.5,11.5,12.2,10.5,18.8c-0.8,5.3-5.5,8.2-14.1,9.7c-5.4,1-11,0-16.3,1.7c0,0,0,0.1-0.1,0.1
		c0,0.1-0.1,0.2-0.1,0.3c-1.2,1.9-3.1,2.6-5.4,2.7c-2.3,0-4.5-0.1-6.8,0.2c0,0-0.1,0-0.1,0c-0.3,0.1-0.6,0.1-1,0.1
		c-7.7,1.1-15.5,1.5-23,3.7c-1.7,0.5-3.2,0.2-4.6-0.9c-1.6-1.3-2.3-0.7-3.3,0.9c-4.4,7.8-11.9,11.3-19.9,13.2
		c-5.8,1.4-12.2,2.3-18.3-0.3c-1.3-0.6-2.9-0.4-4.3,0.1c-5.6,1.7-11.3,1.6-17,1.5c-0.1,0-0.3,0-0.4,0c-0.3,0-0.7,0-1,0
		c-5.3-0.2-10.6,0-15.8,1.2c-0.5,0.1-1,0.2-1.5,0.3c-0.1,0-0.3,0.1-0.4,0.1c-5.7,1.3-10.3,4.4-12,10.3c-4.3,14.7-3,28.9,4.7,42.3
		l0.6,0.6c0.1,0.1,0.3,0.3,0.5,0.4c2.5,2.3,5.2,4.1,8.9,4c1.6,1.5,4,1.4,5.8,1.6c3.9,0.4,3.9,1.8,3,4.9c-4.5,14.8-6.5,30.1-6.8,45.5
		c-0.2,8.7,0.2,17.4,0.8,26.1c0.7,9.7,1.7,19.3,5.2,28.4c2,5.1,4.3,10.4,11.2,11.7c16.5,3.2,33.4,2.8,50,4.7
		c9.3,1,18.8,0.7,28.1,0.8c29.5,0.2,59.1,1.1,88.6-0.5c16.9-0.9,33.9-0.1,50.8-2c6.8-0.8,13.3-2.3,19.8-4.2c3.1-0.9,6-3.7,9.4-2.6
		c11.7,3.7,23.9,3.8,35.9,4.6c14.9,1,29.8-0.1,44.3-3.7c12.4-3.1,24.4-6.8,32.9-17.2C893,558.9,896.2,554.9,895.3,549.3z
		 M794.5,550.1c5.8-3.9,13-5.3,19.7-7.1c10-2.7,20-5.8,30.3-6.7c8.3-0.8,16.5-0.6,23,6.3c5.6,5.9,2.4,12.2-2.6,15.1
		c-9.3,5.4-19.4,7.8-30,8.7c-5.4,0.5-10.7,1.7-16.1,1.8c-11.6,0.2-23.1-2.4-34.5-3.9c-4.6-0.6-3.5-5.3-5.1-8.5
		C785.4,555.7,789.8,553.3,794.5,550.1z"/>
	<path class="st0" d="M502.1,459.9c2.5,2.3,5.8,3.4,8.7,5.1c-0.6,9.1-3.3,17.7-5.6,26.5c-1.5,5.6-2.8,11.3-5.6,16.5
		c-5.1,9.5-11.9,11.7-20.7,5.4c-8.1-5.9-16.1-12-23.4-19.1c-18-17.7-29.3-38.9-34.6-63.4c-2.9-13.4-4.6-26.9-6.1-40.6
		c-3.4-30.6,7.2-56.6,24.4-80.5c7.6-10.5,16.8-19.8,25.4-29.5c12.2-13.9,23.3-28.6,33.3-44.2c4.5-7,10-13.2,15.5-19.4
		c7.3-8.2,14.9-16.1,23.3-23.2c8.3-7,17-13.3,27.4-16.8c12.5-4.2,24.6-3.1,36.6,2.2c14.9,6.5,26,17.5,36.9,29.3
		c8.4,9.1,13.9,19.7,19.7,30.2c-2.3,1.8-4.6,3.8-7.9,3.5c-1.7-0.9-2.4-2.6-3.3-4.1c-7.9-14.2-18.4-26.4-30.3-37.4
		c-9.8-9.1-21.3-15.1-34.8-16c-8.5-0.6-16.2,2.6-23.5,6.8c-11.7,6.6-20.5,16.4-29.5,26c-14.6,15.5-25.8,33.5-38.5,50.3
		c-12.5,16.4-26.2,31.9-39.5,47.7c-13.9,16.3-21.5,35.2-25,56.3c-1.8,11.1,0.5,21.7,2.1,32.4c2.9,19.2,7.4,37.9,15.8,55.6
		c8.7,18.5,22.4,32.5,38.9,44c5.3,3.7,7.5,3.1,9.8-3c4.1-10.9,6.2-22.2,8.2-33.6C500.2,464.3,500.1,461.7,502.1,459.9z"/>
	<path class="st0" d="M527.4,407.1c-5.9,0.3-11.9,0.7-17.8,1c-12.4-5.8-20.8-15.1-24.7-28.4c-3.5-11.7-1-22.2,5.8-31.9
		c5.8-8.4,12.4-15.9,21.8-20.5c2.8-1.4,3.6-3.4,2.7-6.4c-0.9-3.1-2.3-6.1-3.3-9.2c-0.5-1.5-1.5-3.2,0.3-4.4c1.5-1,3.2-0.3,4.6,0.6
		c3.3,2.2,5.9,5.1,7.8,8.6c1.3,2.2,2.8,4.2,5.7,3.6c13-2.9,25.5,1,38.1,3.1c2.7,0.5,5.5,0.7,8.2,0.6c2.7,0,5.3-0.1,8,0
		c1.1,0.1,2.1,0.2,3.2,0.4c2.2,0.7,4.5,0.6,6.8,0.6c3.3,0.2,6.5,0.9,9.5,2.2c1.7,0.9,3.3,2,4.8,3.2c1.9,1.4,3.8,2.8,5.3,4.6
		c1.6,2.7,3.9,3.5,7,2.7c9.6-2.3,19.1-4.8,28.1-9.2c5.7-2.7,9.9-6.6,12.1-12.5c0.4-1.1,0.8-2.1,1.9-2.8c3.2-0.4,6.1,0.5,8.7,2.5
		c-3,14.4-13.4,21.6-26.2,26.2c-1.7,0.6-3.5,0.9-5.1,2c-5.7,0.4-11.5,0.8-17.2,1.1c-4.7,0.2-5.9,2.7-5.3,6.9
		c1.3,11.4,7.8,20.8,12.4,30.9c0.3,0.8,0.4,1.6,0.4,2.4c0.4,1.7,0.2,2.7-1.9,3.3c-3.4,0.9-6.7,0.3-10,0.4c-0.7-0.4-1.6-0.8-1.8-1.5
		c-2.8-7.4-7.9-13.4-12.1-20c-2-3.1-2-6.5-0.9-9.9c1.6-4.8,0.5-9.2-1.7-13.6c-2.1-4.1-5.1-6.6-9.6-7.5c-6.9-1.4-13.7-2.6-20.8-1.1
		c-3.6,0.8-7.1-0.3-10.6-0.9c-10.6-1.8-21-3.7-31.9-1c-14.2,3.5-22.8,12.7-27.7,25.7c-3.9,10.4-3.6,20.7,3.4,30.1
		c2.8,3.8,6.4,6.5,10.1,9c2.8,1.9,5.9,3.5,8.7,5.3C525.7,404.2,527.6,404.8,527.4,407.1z"/>
	<path class="st0" d="M673.9,385.6c-3.3-0.6-6.6-1.4-9.9-1.7c-2.4-0.2-2.5-1.2-1.9-3c0.9-2.6,1.2-5.4,2.2-7.8
		c3-7.9,2.5-15.3-1.3-22.6c-4.5-10.5,0.3-18.3,10.6-25.3c6.7-4.5,14.3-6.8,22.2-7.5c10.4-0.9,19.9-4.9,29.9-7.4
		c16.8-4.1,32.1-0.8,46.7,7.5c7.8,4.4,15,9.7,20.2,17.2c9.9,14.3,11.2,32.7-0.3,47.1c-5.1,6.4-11.2,11.2-17.8,15.7
		c-3.3,2.2-7.4,2.1-10.7,4.3c-13.4-2.9-26.9-1.7-40.4-1.8c-4,0-7.4-0.5-10.7-3.3c-3-2.5-7-3.8-10.6-5.6c-0.4-0.6-0.6-1.2-0.5-1.8
		c0.2-1.4,0.3-3.2,1.8-3.8c1.7-0.7,2.7,0.9,3.5,2c3.9,5.6,9.8,7.8,16,9.4c6.4,1.6,12.7,0.6,18.7-1.6c5.2-1.9,10.4-3.5,16.1-3.6
		c13.6-0.2,22.7-10,28.5-24.5c4.1-10.3-0.4-19.2-5.9-27.4c-6.4-9.5-15.6-15.3-26.5-18.8c-9.7-3.1-19.1-3.4-28.6,0.5
		c-10.3,4.3-21.1,6.6-32,8.4c-4.5,0.7-9,1.8-12.7,4.6c-5.2,3.9-7,8.6-3.4,14c6.1,9,5.2,17.6,0.9,26.7
		C676.2,378.9,676.4,382.8,673.9,385.6z"/>
	<path d="M649.6,241.3c2.8-0.6,4.6-3.5,7.8-3.1c6.7-2.3,11.2,0,13.6,6.3c3.5,8.8,1.5,17-2.2,25.1c-0.4,4.2-3,7.3-5.1,10.6
		c-8.2,11-12.8,11.7-23.7,3.6c-6.3-7.2-9.7-15-5.2-24.4c1-2.1,2-4.2,3.1-6.3c0.6-1,1.3-1.8,1.9-2.8
		C642.8,246.9,645.2,243.1,649.6,241.3z"/>
	<path d="M672,315.5c-3.1,0.2-5.8-1.4-8.7-2.1c-1.6,0.2-2.9-0.6-4.3-1.4c-1.6-1.2-2.9-2.7-4.4-4c-1.3-1.4-2.3-2.9-3.2-4.6
		c-1.7-3.5-1.3-6.7,1.1-9.8c3.2-3.9,7.9-5.4,12.1-7.7c2.7-0.8,5.2-2.7,8.3-1.9c3.1-0.6,6.1-1.6,9.2-1.8c8.5-0.7,12.4,6.3,9.8,15.4
		C689.1,307.4,682.1,313.5,672,315.5z"/>
	<path class="st0" d="M672.9,284.1c-2.7,1-5.3,2-8,2.9c-2.3-2.2-2.8-4.7-1.9-7.7c1.9-3.3,3.8-6.5,5.7-9.8
		C670.2,274.4,671.5,279.2,672.9,284.1z"/>
	<path class="st1" d="M663.1,279.3c0.6,2.6,1.2,5.1,1.9,7.7c-3.9,2.4-8.3,3.7-11.6,7c-6,2.9-12.7,4-19,6
		c-16.3,5.1-32.1,11.5-47,19.9c-3.5,2-7.2,3.7-11.1,5c-7.3,0.7-14.4-1.4-21.3-3.1c-8.7-2.1-17.2-1.6-25.8-0.4c-2.3,0.3-3,0-4-1.8
		c-2.3-3.9-4.7-7.8-8.4-10.5c-1.2-0.9-2.8-2.4-4.3-1.3c-1.5,1.2,0.6,2.4,0.9,3.7c0.9,3.7,2.6,7.2,3.7,10.9c0.9,3.1-0.2,4.1-2.5,5.1
		c-12.1,5.8-20,15.7-26.4,27.1c-8.5,15.1-0.3,36.3,11.4,45.3c3.4,2.6,6.8,5.3,10.1,7.9c-2.5,1.7-5.6,1.5-8.1,3.7
		c-5.1,4.3-5.9,10.4-6.2,16c-0.7,11.2,0.5,22.3,6.8,32.1c-2,13.6-4.7,27.1-9,40.2c-0.2,0.8-0.6,1.5-1,2.2c-2.9,6-4.5,6.4-10.2,2.6
		c-21.5-14.6-37.1-33.5-45.6-58.4c-5-14.8-8.5-29.8-10.6-45.2c-0.8-6.2-3-12.2-2.8-18.5c0.6-20.5,6.5-39.4,17.3-56.8
		c6.6-10.7,15.7-19.5,23.5-29.3c11.2-13.9,22.9-27.3,33.2-41.8c9.1-12.8,17.8-25.9,28.9-37.3c7.4-7.5,13.8-16,22.5-22
		c8.3-5.9,16.9-11.4,27.7-12.5c6.8-0.7,13.1,0.8,19.3,2.8c14.9,5.1,25.3,16.4,35.4,27.7c7.5,8.4,13.8,17.7,18.9,27.7
		c-3,3.2-6.1,6.5-9.1,9.7c-2,0.4-3-1-4-2.3c-4.3-5.8-10.1-10.1-15.8-14.5c-5.3-4.2-11.3-5.3-17.9-3.5c-11.1,2.9-19.8,9.9-27.5,17.8
		c-9.4,9.5-17.4,20.1-24.5,31.5c-3.4,5.5-6,11.2-7.1,17.5c-2.5,14.2,5.2,20.9,18.8,20.3c12.6-0.6,24.6-4.4,36-10
		c13.4-6.6,27.1-12.9,38.4-23c1.1-1,2.1-2.1,3.8-1.7c0.4,0.3,0.8,0.5,1.2,0.8C653.1,291.2,654.8,288.9,663.1,279.3z"/>
	<path class="st2" d="M732.5,467.7c13,17.1,20.6,37,28.2,56.8c0.9,2.3,0.1,3.5-2.2,3.8c-10.5,1.6-20.9,3.9-31.6,2.9
		c-17-1.6-34-0.6-51-1.1c-7-0.8-13.9,0-20.9,0.1c-18.5,0.1-37.1-0.5-55.6,0.7c-11.3,0.8-22.8-0.1-34,1.6c-0.3,0-0.4,0-0.5,0
		c-11.9,0.7-15.3-1.7-12.3-13.7c1.4-5.5,2.8-11,5.1-16.3c2.8-6.5,7.5-11.2,13.3-15.2c12.9-8.7,27.5-12.3,42.7-14.1
		c23.4-2.8,46.9-4,70.4-5.2c13.3-0.7,26.6-0.3,39.9-1.7C726.9,466,729.8,466.4,732.5,467.7z"/>
	<path class="st1" d="M673.9,385.6c0.4-4.7,1.9-9,3.8-13.3c3.1-7.3,3.7-14.1-1.4-21.2c-5.1-7-2.6-14.4,5.2-18.5
		c6.1-3.2,12.8-3.9,19.5-4.9c10.4-1.5,19.9-6,29.9-8.7c14.9-4,27.5,1.4,39.2,9.3c9.9,6.7,16,16.3,18.3,28.4
		c1.7,8.7-2.4,15.3-6.5,21.8c-6.4,10.1-15.4,15.7-27.8,15c-3.4-0.2-6.7,1-9.7,2.4c-11.8,5.4-23,4.2-34-2.3c-3-1.8-3.9-5.3-6.7-7.5
		c-0.5,1.8-1.1,3.6-1.6,5.3C692.8,389,683.5,386.6,673.9,385.6z"/>
	<path class="st1" d="M527.4,407.1c-4-3.5-8.9-5.6-13.3-8.5c-9.7-6.4-16.1-15-16-26.9c0.3-18.4,12.4-34.4,28.2-39.3
		c11.5-3.5,22.8-2.2,34.2,0c4.7,0.9,9.2,1.6,14.2,0.7c7.7-1.4,15.4,0.3,22.8,2.8c4.6,1.5,10.6,12.6,8.6,17.7c-3.3,8.3,0,14.2,5.1,20
		c3.7,4.3,5.6,9.7,7.8,14.8c-6.3,1.9-13,1.1-19.3,3c-1.8,0.6-3.9,0.4-5.5,1.3c-2.9,1.6-4.6,0.6-6.1-2.1c0.8,3.4-0.7,5.3-3.6,6.6
		c-2,0.9-4.1,1.8-5.8,3.2c-9.2,7.3-19.4,7.9-30.2,5.2c-1.1-0.3-2.4-0.4-3.4,0C539.4,407.9,533.4,407.2,527.4,407.1z"/>
	<path class="st2" d="M550.8,418.1c14.7-2,29.5-0.2,44.2-1.3c13.3-0.9,26.6-0.2,39.8-0.9c36-2,72.1-0.3,108.2-0.8
		c2.7,0,5.4,0.5,8.1,1.1c3.7,0.8,4.6,3.8,4.7,6.9c0.3,9.9-3.5,18.4-9.4,26.1c-2.5,3.3-6.6,3.3-10.2,2.9c-10.7-1.3-21.5-1.5-32.3-2.2
		c-0.6,0-1.2-0.4-1.8-0.6c-11-0.9-21.9-2-32.9-2.5c-17.7-0.8-35.3-1.5-53-2.7c-12.7-0.8-25.3,1.1-37.9,1.2
		c-14.9,0.2-29.8,3-44.7,0.4c-4.3-0.7-8.2-2-10.6-6.1c-3.9-6.8-1-14.6,6.7-18c5.6-2.5,11.7-2.6,17.6-3.1
		C548.6,418.4,549.8,418.7,550.8,418.1z"/>
	<path class="st3" d="M732.5,467.7c-13.1-0.1-26.3,0.7-39.4,1.3c-18.5,0.8-37.1,1.8-55.6,3.5c-15.3,1.4-30.5,2.6-45.4,6.7
		c-21,5.9-35,17.9-38.4,40.5c-1.6,10.9-1.1,12.3,10.3,11.4c35.4-2.6,70.8-1.7,106.2-1.8c1.9,0,3.9-0.7,5.6,0.8
		c-14.8,0.2-29.5,1.6-44.3,1.1c-17.3-0.6-34.6,1.8-51.9,2.1c-14.5,0.3-29,1.9-43.5,2.8c-8.8,0.6-8.7,0.5-8.8-8.4
		c-0.2-16.2,0.2-32.3,4.9-48c0.2-0.8,0.5-1.5,0.6-2.3c1.8-7.7,6.3-10.4,14.4-10.8c16.4-1,32.6-3.7,48.9-5.4
		c5.6-0.6,11.3-0.6,16.9-0.9c9.7-0.5,19.4-1.1,29.1-1.1c22,0.1,43.9,1.4,65.8,3.7c5.1,0.5,10.3,0.2,15.5,0.9
		C727,464.2,730.1,465,732.5,467.7z"/>
	<path class="st2" d="M694.4,549c15.2,1.2,30.5,0.1,45.6,1.1c7.2,0.5,14.3,2.9,21.6,4c3.7,0.6,3.3,3.2,2.8,5.8
		c-1.3,6.2-5.3,10-11,12.1c-5.6,2.1-11.5,2.7-17.4,3.2c-16.6,1.3-33.3,1.2-49.9,2.2c-23.4,1.3-46.7,0.4-70.1,0.5
		c-5,0-10.3-0.4-15.4-0.9c-4.8-1.1-9.9-1.4-14-5.1c-4.9-4.4-4.7-9.3,1-12.7c3-1.8,6.3-2.5,9.7-3c22.4-2.8,44.9-4.2,67.5-5.7
		C674.7,550,684.6,550.1,694.4,549z"/>
	<path class="st4" d="M864.9,557.7c-9.3,5.4-19.4,7.8-30,8.7c-5.4,0.5-10.7,1.7-16.1,1.8c-11.6,0.2-23.1-2.4-34.5-3.9
		c-4.6-0.6-3.5-5.3-5.1-8.5c6.3-0.1,10.7-2.5,15.3-5.7c5.8-3.9,13-5.3,19.7-7.1c10-2.7,20-5.8,30.3-6.7c8.3-0.8,16.5-0.6,23,6.3
		C873.1,548.5,869.9,554.8,864.9,557.7z"/>
	<path class="st2" d="M593.8,537.2c47.2-2.7,94.4-4.3,142.2-2.1c-2.1,4.1-2.4,7.9,1.4,11.6c-6.2,0.4-11.6-0.6-16.9-0.6
		c-16.2,0-32.4-2-48.6-1.1c-17.1,1-34.2,1.5-51.4,2.1c-13.5,0.5-27.1,1.4-40.6,1.8c-4.2,0.1-8.3,1.5-12.5,0.8
		c-1.5-0.5-3.2-0.5-4.7-1c-1.8-0.6-3.4-1.5-3.6-3.6c-0.2-2.1,1.3-3.2,3-4c3.3-1.6,6.9-1.6,10.5-2
		C579.6,538.4,586.7,537.5,593.8,537.2z"/>
	<path class="st5" d="M550.8,418.1c-5.9,1.3-11.9,2.4-17.8,3.8c-8.5,2-12.3,9.1-9.2,16.4c1.4,3.4,4.2,4.9,7.5,5.5
		c8.9,1.6,17.9,2.4,27,0.8c1-0.2,1.9-0.2,2.9-0.2c11-0.3,22.1,0.2,33-1.2c14.2-1.9,28.2,0.1,42.2,0.4c18,0.4,36.1,2.1,54.1,3.9
		c3.8,0.4,8.1-0.5,11.7,1.7c-18.1-1.1-36.3-1.1-54.5-1c-22.9,0.2-45.8,1.7-68.7,3.7c-9.8,0.8-19.6,1.6-29.4,2.2
		c-7.4,0.4-14.7,1.5-22,2.7c-8.6,1.5-16.6-4.8-16.9-13.5c-0.2-4.9,0.5-9.7,1.2-14.5c0.7-5,4.2-8,10.1-9
		C531.5,418.3,541.1,417.3,550.8,418.1z"/>
	<path class="st3" d="M694.4,549c-4.2,1.9-8.9,1.1-13.3,1.6c-15.1,1.6-30.3,1.9-45.3,3.3c-14.2,1.3-28.6,2-42.6,4.8
		c-4.1,0.8-8.4,2.3-8.8,7c-0.4,4.6,4.4,5.9,7.4,8c2.7,1.8,6.4,1,8.9,3.4c-13.6-0.4-27.1-1-40.6-2.6c-6.1-0.7-12.2-0.8-18.2-2.2
		c-6.5-1.5-10.8-6.5-11.9-13.2c-0.3-1.8-0.2-2.3,1.6-2.4c8.7-0.6,17.4-1.7,26.1-1.9c17-0.3,33.8-3.2,50.8-3.3
		c4.8,0,9.7-0.6,14.5-0.7c13.8-0.2,27.6-0.8,41.3-1.3C674.3,549.1,684.3,549.1,694.4,549z"/>
	<path class="st6" d="M630.9,384.9c-4.6-7.3-8-15.2-11.7-22.9c-1.6-3.3-1-6.9-1-10.4c4.4-0.6,8.8-1.5,13.2-1.7
		c13.2-0.5,27.7,1.2,31.1,18c2.1,10.1-3.7,13.8-13.4,15.9C643.2,385,637,384.9,630.9,384.9z"/>
	<path class="st7" d="M856.4,525.5c12.9-0.4,28.9,7.5,31.7,22.9c1,5.5-1.5,12.4-6.1,16c-9.5,7.4-20.9,9.7-32,12.6
		c-6.8,1.8-13.8,2.2-20.8,2.8c-14.3-1-28.5-2.1-42.4-5.6c-2.3-0.6-4.9-0.8-6.4-3.1c0.4-2.1,0.2-3.8,3.9-3.1
		c13.2,2.7,26.6,5,40.1,4.1c16.3-1.1,32.3-4.1,46.6-12.7c10.1-6.1,9.1-14-1.1-21.8c-6.9-5.3-15.1-6.8-24.3-5.8
		c-16.8,1.9-32.3,8.4-48.7,11.5c-0.8,0.1-1.6,0.4-2.3,0.5c-2.5,0.2-5.5-0.1-6.2-2.6c-0.6-2.3,2.3-3.3,4.1-4c6.2-2.4,12.2-5.6,19-6.1
		c-0.8,3.8-5.1,2.8-6.4,4.5c9.2-2,19-4.8,29.2-5.8c8.6-0.8,17.1-1.6,25.7,0.2c5.5,1.2,10.7,3.1,15,6.7c7.9,6.7,8.8,13.6,3.5,24.4
		c5-3.1,7-7.8,5.3-13.5c-3.1-10.5-10.6-16.3-20.8-19.3C860.7,527.9,857.7,528.6,856.4,525.5z"/>
	<path class="st6" d="M587.2,406.2c6-4.5,12-5.6,17.8-6.6c22.4-3.9,44.9-5.4,67.6-4.9c7.5,0.2,24.5,2.3,29.4,6.8c-2.3,0-4.2,0.1-6,0
		c-12-0.7-23.9,0.7-35.9,1.2c-12.2,0.4-24.5,1-36.6,2C611.9,405.6,600.2,406.4,587.2,406.2z"/>
	<path class="st8" d="M856.4,525.5c6.1,1.9,12.6,2.5,17.8,6.7c4.5,3.7,8.5,7.8,10.6,13.5c2.8,8-1.1,17-9.3,18.4
		c1.6-3.2,3.4-5.9,4.3-9c2.2-7.3-1.1-15.2-7.6-19.1c-9.7-5.9-20.5-6.6-31.4-5.7c-13.6,1.1-26.8,4.4-40.7,7.8c1.5-2.7,3.8-3,5.6-4
		c1.9-1.1,3.9-2,5.9-3c9-3.3,18.3-4.7,27.8-5.6C845,525,850.7,523.8,856.4,525.5z"/>
	<path class="st9" d="M785.6,547.5c-2.7,2.1-5.8,1.6-8.6,1.2c-8.2-1.1-16.6-1.6-24.7-3.8c-3.4-0.9-8.5-1.8-8.4-4.9
		c0-3.1,5.1-4.1,8.5-4.8c6.9-1.4,13.8-2.6,20.7-3.9c2.2-0.4,4.1,0.5,6.2,1c5.4,1.2,5.8,2,3,6.6C779.6,543.2,783,545.2,785.6,547.5z"
		/>
	<path class="st3" d="M593.8,537.2c-6.9,0.9-13.9,1.8-20.8,2.8c-3.3,0.5-6.6,1.3-9.9,1.9c-1.6,0.3-2.9,1.2-3.2,2.6
		c-0.4,1.9,1.6,2.2,2.8,2.8c1.5,0.8,3.2,1.5,4.7,2.2c-11,1-22.1,2.1-33.2,2.9c-1.9,0.1-5.1,1.9-5.9-2c-1.1-5.3,0.1-8.1,4.3-8.8
		c7.3-1.1,14.6-2,22-2.7C567.7,537.9,580.7,537.3,593.8,537.2z"/>
	<path class="st9" d="M780.4,571.2c12.6,3.6,25.5,5.6,38.5,7c3.4,0.3,6.8,1.2,10.2,1.8c-16.1,0.6-32.1-0.7-48-3.8
		C776.3,575.2,779.4,573.1,780.4,571.2z"/>
	<path class="st10" d="M576.2,325.1c7.8-5.4,16.2-9.7,24.8-13.6c15.6-7.1,31.8-12.9,48.5-17c1.2-0.3,2.5-0.2,3.8-0.4
		c-2.2,3-2.6,6.2-0.9,9.6c0.3,4.1-2.2,6.9-5.1,8.9c-11.6,7.8-24.8,11.9-38.2,15.5c-0.8,0.2-1.6,0-2.4-0.4c-1.4-2.3,0.8-2.7,2-3.4
		c2.2-1.4,4.5-2.5,6.4-4.3c1.3-1.2,2.8-2.6,2-4.5c-0.8-2-2.8-2.6-4.8-2.5c-3.1,0-6,1.3-8.8,2.5c-3.1,1.3-6.1,2.9-9.1,4.5
		c-0.8,0.5-1.5,0.9-2.3,1.2c-2.6,1.1-4.8,2.8-7.3,4C582,325.1,579.1,325.1,576.2,325.1z"/>
	<path class="st1" d="M659.2,311.4c1.6,0.2,2.9,0.9,4,2c-1.5,9.5-8.3,14-16.3,17.5c-8.4,3.6-17.2,5.7-26,8c-4,1-6.4,0-7.7-3.8
		c0.9-2.6,3.5-2.7,5.5-3.4c6.4-1.9,12.7-4,18.9-6.3c7.8-2.8,14.7-6.7,19.8-13.5C657.9,311.5,658.5,311.2,659.2,311.4z"/>
	<path class="st11" d="M606.4,327.1c4.6,0,9-1.5,13.1-3.3c7.9-3.4,16.2-5.5,23.7-10c4.4-2.6,7-6.1,9.2-10.3c1,1.3,1.9,2.6,2.9,3.9
		c1.1,1.7,0.1,3.1-0.8,4.4c-2.2,3.2-4.8,6.2-8.4,7.9c-10.9,5.1-22.2,9.1-34,11.5c-1.2,0.3-2.6,0.4-3.8-0.2c-1.3-1-2.7-2-4-3
		C604.5,326.7,605.2,326.5,606.4,327.1z"/>
	<path class="st10" d="M608.3,331.1c12.6-2.9,24.9-6.5,36.6-12c4.9-2.3,8.5-6.3,10.4-11.5c1.6,1,2.9,2.3,3.9,3.9
		c-5.6,9.7-15.2,13.3-25,16.7c-7,2.4-14,4.7-21,7C611.6,333.8,610,332.4,608.3,331.1z"/>
	<path d="M606.4,327.1c-0.8,0.1-1.7-0.1-2,1c-3.2-0.7-6.4-1.4-9.6-2.1c-0.2-2.3,2.1-4.9-1-6.8c4.9-3.4,10.3-5.5,15.9-7.3
		c1.3-0.4,2.9-0.5,4.3-0.3c2.3,0.3,4.4,1.5,5.2,3.7c0.6,1.9-0.9,3.5-2.2,4.9C613.9,323.4,609.7,324.6,606.4,327.1z"/>
	<path class="st12" d="M593.7,319.2c4.8,1.1,4.9,1.5,1,6.8c-2.3-0.1-4.8,1-7-0.8c0-2.8,2.4-3.4,4-4.7
		C592.4,320.1,593.1,319.6,593.7,319.2z"/>
	<path d="M591.8,320.5c-1.3,1.6-2.7,3.2-4,4.7c-0.9,0-1.9,0-2.8-0.1C586.5,322.6,588.8,321.1,591.8,320.5z"/>
	<path class="st10" d="M640.6,283.1c-18.5,16.1-40,26.9-63.4,33.6c-6.9,2-14.2,3.5-21.8,1.9c-13.2-2.8-14.6-12.3-12.9-21.8
		c2.4-13.6,11.1-23.8,18.9-34.2c7.1-9.5,15-18.6,25.1-25.3c8.4-5.5,16.9-10.7,27.8-7.8c4.6,1.2,7.7,4.4,11.4,7
		c5.7,4.1,10.1,9.4,14.8,14.5c0,1.1-0.9,1.6-1.7,2c-3.2,0.3-4.5-2.2-6-4.2c-15.5-19.4-28.3-18.9-47.4-3.8
		c-15.4,12.3-26.3,28.2-35.4,45.4c-1.1,2.1-2.1,4.4-3.6,6.3c8.2-10,15.9-20.3,25.8-28.9c7.4-6.4,15-12.5,23.2-17.8
		c7.7-5,16.3-6.8,25.2-4.1c6.7,2.1,12.4,5.8,15.3,12.8C631.9,268.1,634.5,275.9,640.6,283.1z"/>
	<path class="st11" d="M635.8,258.9c-11.8-14.8-27.2-17.1-43.8-5.1c-9.9,7.1-19.5,14.5-27.7,23.4c-6.7,7.2-13.1,14.7-19.1,23.2
		c-0.1-2.7,0.8-4.6,1.7-6.5c7.8-16.1,17.7-30.9,30.5-43.5c5.8-5.8,12.3-10.9,19.9-14.4c11.8-5.5,19-4,29.7,4.9
		c4.4,3.6,6.9,9.1,11.7,12.2C638.4,255.3,637.2,257.1,635.8,258.9z"/>
	<path class="st13" d="M666.6,255.4c0,7.9-2.4,15-5.9,21.6c-1.5,2.9-4.3,4.3-7.6,1.6c-3.2-2.7-3.9-6.1-0.8-8.5
		C657.9,266,662.3,260.8,666.6,255.4z"/>
	<path class="st13" d="M688,293.4c-0.3,10.8-7.5,16.5-16.4,16.1c-1.8-0.1-3.8-0.8-4.4-2.5c-0.6-1.8,1.6-2.6,2.6-3.7
		c0.6-0.7,1.6-1,2.5-1.4c2.8-1,5.8-1.4,8.6-2.8C683.8,297.8,685.2,294.8,688,293.4z"/>
	<path class="st10" d="M728.5,478c11.3,12,19,25.9,22.3,42c0.3,1.2,0.3,2.4-0.9,3c-1.8,1-3.5,2.1-5.8,1.1c-4.8-2.1-7-5.6-8-10.7
		C733.8,501.5,732.1,489.5,728.5,478z"/>
	<path class="st10" d="M607.4,419.3c1.1-0.2,1.7-0.4,2.2-0.4c19.8,0.5,39.5-1.6,59.3-1c23.2,0.7,46.4-1.6,69.6-1
		c8.3,0.2,12.8,5.9,10.8,14c-2.4,9.2-2.2,8.9-9.8,3.6c-6.9-4.9-15-7.5-23.3-8.7c-17.1-2.4-34.3-2.4-51.5-3.2
		c-10.7-0.5-21.4,0.2-32-0.9C624.5,420.9,616.1,421.4,607.4,419.3z"/>
	<path class="st10" d="M658.8,536.1c18,0,36.1-0.4,54.1,0.3c4.4,0.2,9.3-0.3,13.7,1.7c0.9,0.4,1.9,0.9,1.9,1.9c-0.1,1.4-1.4,1-2.3,1
		c-6.6,0.3-13.1-0.6-19.6-1.7c-1.3-0.2-2.6-0.3-3.9-0.2c-12,0.7-23.9-1.1-35.9-1C664.1,538.1,661.6,536.6,658.8,536.1z"/>
	<path class="st10" d="M613,314.5c1.6-0.1,3,0.2,3.2,2.1c0.2,2.5-5.8,6.9-8.9,6.7c-1.5-0.1-2.6-0.6-2.7-2.1
		C604.5,318.6,609.9,314.4,613,314.5z"/>
	<path d="M569.4,295.9c0.5-6.5,5.6-10.8,10.9-14.6c3-2.1,6.6-3.4,10.2-4.4c4.9-1.4,7.7,0.8,10.1,4.2c2.5,3.5-0.3,5.8-2.5,8.1
		c-5.9,6.2-13.1,10.3-21,13.1C573,303.7,569.3,300.9,569.4,295.9z"/>
	<path class="st10" d="M598.6,283.1c0,3.1-5.6,10-7.6,9.7c-1.8-0.3-3.2-1.6-3.1-3.6c0.1-4.1,3.7-10.4,5.7-9.8
		C595.9,280,598,281.1,598.6,283.1z"/>
	<path class="st14" d="M579,291.8c-0.5,1.3-1.1,3.5-2.1,5.4c-0.6,1.2-1.5,2.9-3.3,2.1c-1.7-0.8-2.8-2.4-2.2-4.4
		c0.7-2.1,1.5-4.3,3.2-5.9c0.9-0.8,1.6-2.4,3.1-1.6C579.2,288.2,579.1,289.6,579,291.8z"/>
</g>
</svg>
