<?xml version="1.0" encoding="utf-8"?>
<!-- Generator: Adobe Illustrator 23.0.1, SVG Export Plug-In . SVG Version: 6.00 Build 0)  -->
<svg version="1.1" id="Layer_4" xmlns="http://www.w3.org/2000/svg" xmlns:xlink="http://www.w3.org/1999/xlink" x="0px" y="0px"
	 viewBox="0 0 1000 1000" style="enable-background:new 0 0 1000 1000;" xml:space="preserve">
<style type="text/css">
	.st0{fill:#6E3720;}
	.st1{fill:#FB9A7A;}
	.st2{fill:#E00000;}
	.st3{fill:#7F0000;}
	.st4{fill:none;}
	.st5{fill:#800000;}
	.st6{fill:#7A99AC;}
	.st7{fill:#CBB89A;}
	.st8{fill:#2B5260;}
	.st9{fill:#B5FAF8;}
	.st10{fill:#FEFEFE;}
	.st11{fill:#FDFEFE;}
	.st12{fill:#C0FEFE;}
	.st13{fill:#7F7F7F;}
	.st14{fill:#00407F;}
</style>
<g>
	<path d="M906,548.3c-4-11.6-11.8-19.9-22.8-24.6c-15.8-6.7-32.3-5.9-48.8-2.9c-10.6,1.9-21.2,4.5-31.4,8.2
		c-1.7,0.6-4.2,2.5-5.8,0.9c-3.6-3.3-9.3-5.1-9.1-11.5c0-1.3,0.2-2.7-0.1-3.9c-5.2-19.7-14.4-36.8-31.1-49.2
		c-0.7-0.6-1.8-1.6-1.7-2.2c0.3-1.1,1.6-1.2,2.8-1.3c4.1-0.4,7.7-2.3,10.3-5.2c8.1-9.1,13.1-19.7,13.8-31.9
		c0.8-13.4-4.6-21.1-18.4-27.4c-3.1-2.2-6.7-2.2-10.2-2.3c-6.6-0.1-13.3-0.2-19.9,0c-0.8,0-1.6,0-2.5,0.1c-2.3,0.1-4.5,0.1-6.7-0.1
		c-4.5-0.4-8.8-1.5-12.9-4c-3.2-1.9-7-3-10.6-4.3c0,0-0.1,0-0.1,0c-0.3-0.1-0.5-0.2-0.8-0.3c-9-3.3-18.4-4.7-27.7-6.5
		c-0.1,0-0.3,0-0.4-0.1c0,0-0.1,0-0.1,0c-5.2-0.3-10.8,0-10.6-7.8c0-0.1-0.1-0.1-0.2-0.2c0,0-0.1-0.1-0.1-0.1c0,0,0,0,0,0
		c-6.9,5-14.9,6.7-23.1,7.5c-3,0.3-6.1-0.5-9,1c0,0-0.1,0-0.1,0c0,0,0,0-0.1,0.1c-1.3,1.9-3.1,3.1-5.6,2.9c-2.4-0.2-4.8,0.4-7.2,0.9
		c-0.1,0-0.2,0-0.3,0c-0.3,0-0.5,0-0.8,0c-7.6,0.3-15,1.8-22.5,3c-4,0.7-8.9-1.4-11.1,4c-9.3,4.3-17.2,12-28.5,11.1
		c-0.1,0-0.2,0-0.3,0.1c-0.6,0.2-1.3,0.2-1.9,0.3c-1.3,0.1-2.7,0-4.1,0c-4.9,0.1-9.8,0.1-14.8,0l-5.4,0c0,0,0,0,0,0
		c-6.4-0.1-12.8-0.1-19.3,0.1c-0.7,0.1-1.4,0.3-2.1,0.5c-0.1,0-0.3,0.1-0.5,0.1c-0.4,0.1-0.8,0.2-1.2,0.2
		c-12.7,0.7-17.1,11-17.9,19.5c-0.8,7.8-0.2,15.5,1.8,23.2c2.1,8.1,5.8,14.8,14.2,17.8c3,1.1,2.7,2.6,0.9,4.6
		c-3,3.2-5.5,6.8-7.5,10.7c-3.6,6.8-5.5,14.2-7,21.6c0,0.2-0.1,0.4-0.1,0.5c-0.1,0.3-0.1,0.6-0.2,0.9c-0.3,3.1-1,6.2,1,9.1
		c1.8,3.8,1.2,8.1,1.9,12.2c2.7,14.9,6.3,29.6,14,42.7c3.7,6.4,8.1,12.6,15.4,15.9c10.2,4.6,21.4,5.3,32.2,7.2
		c14.4,2.5,29.1,2.4,43.7,2.9c33.9,1.2,67.9-0.6,101.8-0.8c0.5,0,1,0,1.5,0c15-1.6,30.1-1.6,44.9-4c7.1-1.1,14.3-1.8,21.1-4.7
		c6.6-2.9,13.4-4.8,21-2.9c12.5,3.2,25.5,3.6,38.3,4.6c10.9,0.9,21.7-1,32.4-2.8c12.9-2.2,25.3-6,36.8-12.5
		c5.4-3.1,8.6-7.8,11.3-12.9C905.9,554.3,907,551.3,906,548.3z M799.5,549.8c3.6-3,8.4-3.2,12.7-4.6c10.4-3.3,21-6.5,31.7-8.5
		c9.3-1.8,18.9-3.2,28,1.7c4.3,2.3,7.7,5.7,7.8,10.6c0.2,4.8-3.4,7.8-7.8,9.7c-10.6,4.6-21.5,7.6-33.1,8.9c-5,0.6-9.9,0.7-15.7,0.9
		c-10.7-0.3-22.1-0.9-33.3-3.9c-2.4-0.7-3.8-1.3-3.9-4.3c0-2.9,0.4-5.1,3.5-5.4C793.6,554.5,796.5,552.3,799.5,549.8z"/>
	<path class="st0" d="M488.4,502.1c-0.1,3.2-0.1,6.5-0.2,9.7c-8,0.2-13.7-4.6-19.3-9.3c-15.1-12.8-28-27.6-38.6-44.3
		c-6.1-9.6-9.2-20.4-12.2-31.1c-4.3-15.5-6.7-31.3-5.9-47.4c0.9-18.7,2-37.6,11.6-54.5c5.2-9.1,11.6-17.4,18.2-25.5
		c9.3-11.4,18.5-22.9,28.1-33.9c9.8-11.2,18.5-23.2,28.2-34.5c9.3-10.8,18.5-21.8,28.5-31.9c12.6-12.7,26.8-23.7,44-29.4
		c6.6-2.2,13.6-3.6,21-2c14,3.1,25.7,10.1,36.5,19.4c7.4,6.4,14.1,13.2,19.5,21.1c5.1,7.5,9.9,15.4,13.2,24c-1.1,3.3-4,3.4-6.8,3.7
		c-2-0.5-2.7-2.2-3.5-3.8c-5.7-10.6-12.4-20.7-20.5-29.6c-10.3-11.4-21.8-21.4-38-24c-6.8-1.1-13.2-0.5-19.7,1.7
		c-14,4.7-24.9,13.9-35.3,23.8c-16.4,15.6-30.7,33.1-44.9,50.7c-12.7,15.8-26.4,30.9-39,46.8c-8,10.1-15.5,20.5-21.7,31.8
		c-5.6,10.2-6.5,21.7-7.8,33c-2.7,24.6,2.1,48.2,9.7,71.4c4.8,14.5,13.2,26.7,22.9,38.2c6,7.1,12.7,13.4,20,19.2
		C480.4,498,485.2,498.7,488.4,502.1z"/>
	<path class="st0" d="M553.8,403.5c-0.9,1-2,0.8-3.2,0.8c-15,0-29.9-0.1-44.9-0.1c-22.6-10-34.4-31-23.5-54.1
		c6.1-13,15.7-22.6,28.6-28.8c2.8-1.4,5-2.8,4.3-6.6c-0.5-2.7,1.4-3.3,3.7-2.9c1.9,0.4,3.8,1,5.3,2.3c3,2.7,6.2,3.1,10,2.2
		c2.7-0.6,5.5-0.5,8.2,0c7.7,1.4,15.4,2.6,23.1,3.4c7.8,0.3,15.6-0.8,23.4,0.8c1.2,0.3,2.5,0.3,3.8,0.6c0.5,0.1,0.9,0.2,1.4,0.4
		c2,0.6,4.1,1,5.9,2c2.5,1.3,4.9,2.6,7.3,4.2c2.8,2.9,6.1,3.1,9.9,2.5c10.2-1.5,19.9-4.7,29.5-8.3c7.5-2.8,12.3-8.2,15.3-15.5
		c3.5-0.4,6.4,1,9.1,3.1c-2.1,3.1-2.5,6.9-4.8,10.2c-7,10-17.7,12.7-28.3,16.1c-7.4,2.4-15.2,2.8-22.7,4.9c-0.2,0.1-0.4,0.3-0.6,0.5
		c0.2,0.2,0.4,0.4,0.6,0.6c1.4,1.5,1.3,3.4,1.2,5.2c-1.8,6.8,0.4,12.5,4.1,18.2c3.2,5,7.5,9.4,8.4,15.6c0.4,2.9-0.8,4.1-3.8,3.8
		c-3-0.3-6.1,0-9,0.8c-1.5-1.1-2.3-2.7-3.1-4.3c-2.9-6.2-6.2-12.2-10.2-17.7c-2.2-3-2.9-6.1-1.7-9.6c3.9-11.7-3.2-18.9-13.8-21.1
		c-7-1.4-13.8-2.6-21.2-1.8c-7.4,0.8-14.7-2.7-22.1-3c-27-1.2-47,11.6-49.2,38.4c-0.9,11.2,5.2,19.8,14.2,26.2
		c2.1,1.5,4.4,2.7,6.6,4.2c6.7,4.6,13.9,6.3,21.7,3.5C543.5,398.2,548.7,400.1,553.8,403.5z"/>
	<path class="st0" d="M671.7,380.9c-0.5,0-1-0.1-1.5-0.1c-9.6-0.1-9.6-0.1-9.2-8.8c-0.5-0.6-0.7-1.3-0.6-2.1
		c0.4-2.1,0.6-4.1,1.3-6.1c1.7-4.4,2.1-8.7-0.3-13c-0.7-1.2-1.1-2.7-0.4-4.2c-3.4-8.9-0.7-15.4,6.9-21.2c8.1-6.2,17.4-8.7,26.9-10.9
		c8-1.8,15.8-4.1,23.6-6.6c15.3-5,30.5-3.4,45.3,3.1c7.3,3.2,14.5,6.5,20.6,11.5c8.1,6.6,14.1,14.8,15.5,25.9
		c1.5,11.5-0.3,21.8-7.7,30.8c-7.1,8.7-16.2,14.3-27,17.3c-0.6,0.2-1.3,0.1-1.5,0.9c-14.1-1.6-28.2-0.6-42.3-0.9
		c-2.9,0-5.1-1.9-7.6-2.9c-4.6-1.9-9.2-3.8-13.8-5.7c-0.2-2.1,0.1-4.1,2.2-5c1.7-0.7,3,1,4.2,2c5.9,5.2,12.9,8.1,20.7,9.1
		c3.1,0.4,6.1,0.1,9-1.2c5.7-2.5,11.6-4.1,17.9-4.5c15.3-1,25.1-9.9,31.3-23.1c4.6-9.7,1.5-19.4-4.2-27.2
		c-11.3-15.6-27.6-22.4-46.6-21.9c-8.1,0.2-15.5,4.6-23.4,6.8c-6.1,1.7-12.3,3.2-18.6,3.8c-6.1,0.6-11.8,2.2-16.1,7.1
		c-3.2,3.7-4.3,7.6-1.8,12.1c0.5,1,0.9,2.1,1.5,3c4.1,6.3,4.7,12.7,0.7,19.3C674.6,372,674.9,377.2,671.7,380.9z"/>
	<path d="M654.3,235.4c2.5-0.6,4.8-1.6,6.9-3c13.6-0.9,15.3,7.8,14.4,18.2c-0.4,5.2-2.1,10.3-4.6,15c-0.4,4.1-3.8,6.5-5.6,9.8
		c-8.5,8.7-15,9.4-23.6,2.6c-6.9-7.2-8-15.4-4.2-24.5c1-1.9,2-3.8,3.2-5.6c0.8-1.1,1.5-2.3,2.4-3.3
		C646.8,241.4,649.1,236.7,654.3,235.4z"/>
	<path d="M671,309.7c-3.2-0.3-6-1.4-8.7-3.1c-1.4,0.2-2.5-0.5-3.5-1.4c-1.1-1-2.2-2.1-3.3-3.1c-1.4-1.5-3-2.8-4.1-4.6
		c-1.5-2.9-1.4-5.7,0.2-8.5c3.9-4.6,8.8-7.7,14.5-9.6c2.6-0.5,4.9-2.6,7.8-1.2c3.1-0.6,6.1-1.5,9.2-1.8c7.5-0.6,12.4,6.6,9.7,14.6
		C689.3,301.5,682.9,308.8,671,309.7z"/>
	<path d="M661.1,346.6c5.2,7.8,3.2,15.6,0.2,23.4c-2-1.8-1.7-4.5-2.2-6.8c-1.8-7.7-6.7-12-14-14c-6.9-1.8-13.8-1.6-20.8-0.8
		c-3,0.4-6.1,1.2-8.9-0.9c0-1.9,0-3.8,0-5.7c12.2-2.2,24.3-3.4,36.4,0.7C654.9,343.8,657.6,346.3,661.1,346.6z"/>
	<path class="st0" d="M673.9,278.2c-2.6,0.7-5.2,1.4-7.8,2.1c-1.9-1.7-2.4-3.6-1.1-5.9c1.4-3.3,3.8-6,6-8.9
		C673.1,269.5,672.7,274,673.9,278.2z"/>
	<path class="st1" d="M665,274.4c0.4,2,0.8,3.9,1.1,5.9c-5.2,2-9.6,5.3-13.8,8.8c-1,0.9-2.3,1.1-3.6,1.3
		c-24.9,3.5-47.6,13.6-70.1,24.2c-4.7,2.2-9.2,4.8-14.1,6.5c-7.9-1.3-15.7-2.7-23.7-3.7c-2.6-0.3-5.4-0.4-8.2,0.5
		c-2.9,0.9-6.1,0.9-8.3-2.1c-0.6-0.8-1.7-1.5-2.8-1.8c-1.8-0.5-3.6-2.4-5.3-1.1c-1.3,1,0.3,3,0.6,4.4c0.4,1.9-0.2,2.5-1.7,3.2
		c-7.3,3.1-13.4,8-19.7,12.7c-14.7,11.1-20.4,36.8-10.9,52.4c3.2,5.3,8.3,9.1,13.3,12.6c2.7,1.9,5.5,3.8,8,5.9
		c-1.8,1.9-4.3,0.8-6.4,1.3c-8.6,2.3-11.8,9.2-12.7,16.6c-1.2,10.3-0.2,20.7,3.8,30.6c3,7.3,9.3,10,16.5,12.4
		c-6.2,7.1-11.9,14.2-14.6,23.1c-1.4,4.6-2.6,9.3-3.9,13.9c-11.5-3-19.5-11.1-27.2-19.2c-7.4-7.8-14-16.3-19.7-25.5
		c-7.4-12.1-11.4-25.4-14.5-39c-2.8-12-5.6-24.2-4.9-36.6c0.8-14.4,1-29,5.9-42.8c3-8.5,8.6-15.7,13.6-23.2
		c9.6-14.3,20.6-27.6,32-40.3c14-15.6,26.2-32.7,40.4-48.1c7.8-8.5,15.3-17.1,23.7-25c11.8-11.2,24.5-21.4,41.1-24.8
		c11.3-2.3,21.6,0.4,31.3,6.2c17.2,10.3,28.9,25.7,38.8,42.6c1.8,3,3.6,6,5.4,9c-3.6,3.3-7.1,6.6-10.7,9.9c-2.1,0.2-2.7-1.6-3.6-2.8
		c-3.6-4.5-7.5-8.5-12.1-11.9c-10.9-8-18.3-8.6-31.1-1.4c-6.9,3.9-13.4,8.5-19.6,13.6c-11.9,9.9-21.5,21.6-29.7,34.6
		c-2.9,4.6-4.4,9.8-5,15.1c-0.9,7.5,2.9,12.8,10.3,14.8c8.4,2.2,16.8,0.9,25.1-0.8c22-4.4,40.7-15.9,59.5-27.2c1.6-1,3-2.6,5.2-2
		c7.2,5.4,14.6,5.5,20.2-1C663.4,275.5,664.3,275,665,274.4z"/>
	<path class="st2" d="M728.6,465.7c19.6,7,32.8,20.5,41.2,39.3c2.4,5.4,3,11,4.5,16.5c0.5,1.8,0.7,3.7-2.5,3.9
		c-11.5,0.8-22.5,5.1-34.1,4.8c-20.9-0.5-41.8-0.8-62.8-1.1c-6.8-0.8-13.6-0.5-20.4-0.3c-17.2,0.5-34.5,0.2-51.6,1.1
		c-14.9,0.8-29.9,0.7-44.8,1.6c-12.4,0.8-15.1-3.3-12.1-15.4c4.4-17.4,14.5-29.7,31.6-36.2c17.3-6.6,35.3-8.9,53.4-10.7
		c21.3-2.1,42.8-2.6,64.2-3.7c9.7-0.5,19.4-1.7,29.2-0.8C725.8,465,727.2,465.2,728.6,465.7z"/>
	<path class="st1" d="M671.7,380.9c0.9-5.9,3-11.4,5.6-16.8c1.8-3.6,1.9-7,0-10.6c-1.1-2-2.1-4-3.1-6c-3.9-7.9-1.7-14.4,6.2-18.8
		c5.1-2.9,10.7-3,16.2-3.8c10.1-1.5,19.9-4.6,29.4-8.4c7.8-3,15.7-3,23.2-0.7c11.8,3.6,23.4,8.1,31.1,18.7
		c9.8,13.6,11.5,26.6,1.1,39.8c-7.8,9.9-17.5,15-30.1,15.3c-4.9,0.1-9.5,1.6-13.8,3.9c-6.4,3.4-12.6,2-18.6-0.1
		c-6-2.1-12-4.7-15.8-10.3c-2.4,0.9-1.3,3.7-3.1,4.7c-8.9-2.8-18-5.1-27.3-6.1C672.4,381.7,672.1,381.2,671.7,380.9z"/>
	<path class="st1" d="M553.8,403.5c-1-0.1-2.2,0.2-2.9-0.3c-5.7-4.5-11.8-2.1-17.5-0.6c-5.6,1.4-10.4,0-15.1-2.7
		c-3.7-2.2-7.8-3.9-11.1-6.6c-13.2-10.8-17.4-24.3-10.8-40.4c6.7-16.4,19.9-23.2,36.5-25.9c10-1.6,19,1.6,28.5,2.7
		c1.8,0.2,3.7,0.8,5.3,0.3c7.9-2.5,15.3,0.4,22.7,2.2c10.3,2.4,16.9,10,13.1,20.9c-1.5,4.3-0.5,7.5,2.1,11.1
		c4.9,6.6,8.8,13.8,11.5,21.5c-8.3,0.1-16.4,1.9-24.6,3.2c-0.2,0-0.3,0.1-0.4,0.2c-2.3,1.6-5.5-1.1-8,2.6c-1.8,2.8-6.7,3.3-9.8,5.5
		C567.4,401.4,561.3,404.4,553.8,403.5z"/>
	<path class="st2" d="M549.9,415.2c11.9-2.3,23.9-0.4,35.9-1.1c26.9-1.6,53.9,0.1,80.8-1.2c26-1.2,51.9-0.2,77.9-0.7
		c3.2-0.1,6.4,0.3,9.5,1.1c4.5,1.1,6.3,4.7,5.7,8.9c-1.1,7.2-3,14.2-7.3,20.5c-4.1,6.1-9.7,7.4-15.9,6.4c-5.7-0.9-11.3-0.8-16.9-0.7
		c-4.9,0.1-9.6-1.1-14.4-1.2c-10.5-1-21-1.7-31.5-2.3c-11-0.6-22-1.6-33-2.3c-20.6-1.3-41.1-1.8-61.8,0c-15.4,1.3-30.8,2-46.2,1.3
		c-5.6-0.3-10.9-1.8-15.4-5.3c-6.4-5-6.3-11.8,0.3-16.7c4.8-3.6,10.3-5.3,16.3-5.7C539.2,415.6,544.6,415.9,549.9,415.2z"/>
	<path class="st3" d="M728.6,465.7c-11.2-0.2-22.3,0.8-33.5,1.3c-17.9,0.7-35.8,1.5-53.7,2.9c-20.5,1.5-41,3.9-60.8,10.4
		c-20.4,6.8-30.7,21.5-34.6,41.6c-0.9,4.8,1.7,8.4,7,8.2c15-0.6,30.1-0.2,45.1-1.7c1.3-0.1,2.6-0.1,3.9-0.1c22.6,0,45.2,0,67.8,0
		c1.7,0,3.6-0.6,5.1,0.8c-14.6,0.4-29.2,0.5-43.8,1.2c-15.8,0.8-31.7,1.2-47.5,2.1c-15.4,0.8-30.9,1.6-46.3,3.8
		c-8.9,1.3-17.8,2.5-26.7,4.1c-2.2,0.4-3.3,0.4-3.9-1.9c-2.7-11.3-4.5-22.5-3.3-34.4c0.9-8.6,3.6-16.1,7.7-23.2
		c3.9-6.8,9.5-12.5,17.5-14.5c5.4-1.4,11.1-1.8,16.7-2.4c12.6-1.4,25.3-2.6,38-3.8c4.8-0.5,9.7-0.6,14.5-0.8
		c6.9-0.4,13.8-1.5,20.8-1.3c7.1,0.1,14.2-1.3,21.3-1c17,0.8,34,0.9,50.9,2.2c11.2,0.8,22.6,0.9,33.4,4.6
		C725.8,464.3,727.4,464.5,728.6,465.7z"/>
	<path class="st2" d="M724.7,549.7c15.1-0.7,29.8,1.9,44.4,5c3.7,0.8,4.6,4.1,1.9,7.8c-3.4,4.6-8.1,7.5-13.5,8.7
		c-10.8,2.3-21.6,4-32.7,5.1c-22.3,2.3-44.7,2.8-67.1,4.1c-19.7,1.2-39.2-1.5-58.7-0.4c-1.4,0.1-2.8-0.7-4.1-1.1
		c-3.5-1.2-7.1-2.4-10.3-4.5c-3.1-2-5.7-4.5-5.4-8.6c0.3-3.9,3.5-5.1,6.5-6.6c7.7-3.7,16-4.1,24.3-4.9c20.7-2,41.5-2.8,62.3-4.3
		c16.1-1.1,32.1-0.5,48.2-0.8C721.8,549.3,723.3,549.1,724.7,549.7z"/>
	<path class="st4" d="M879.7,548.9c0.2,4.8-3.4,7.8-7.8,9.7c-10.6,4.6-21.5,7.6-33.1,8.9c-5,0.6-9.9,0.7-15.7,0.9
		c-10.7-0.3-22.1-0.9-33.3-3.9c-2.4-0.7-3.8-1.3-3.9-4.3c0-2.9,0.4-5.1,3.5-5.4c4.1-0.4,7-2.5,9.9-5.1c3.6-3,8.4-3.2,12.7-4.6
		c10.4-3.3,21-6.5,31.7-8.5c9.3-1.8,18.9-3.2,28,1.7C876.1,540.7,879.5,544.1,879.7,548.9z"/>
	<path class="st2" d="M592.8,536.3c4.1-1.4,8.3-0.8,12.5-1.2c16-1.2,32.1-0.1,48.1-1.1c23.2-1.5,46.4-0.4,69.6-0.6
		c4.9-0.1,9.9,1,15.4,0.8c-1.9,4.9-1.2,8.9,2.4,12.6c-10.8-2.2-21.6,0.3-32.2-1.5c-0.6-0.1-1.3-0.3-1.9-0.3
		c-10.4,0.6-20.7-1.4-31-0.9c-14.5,0.7-29,1.4-43.5,2.1c-11.6,0.5-23.2,1.2-34.8,1.9c-10.9,0.6-21.8,2.3-32.8,1.7
		c-2.8,0.1-5.5,0-8.1-1.1c-1.5-0.7-3-1.5-3.1-3.4c-0.1-1.9,1.3-2.9,2.8-3.6c3.2-1.6,6.7-2.3,10.3-2.9
		C575.1,537.2,584,536.7,592.8,536.3z"/>
	<path class="st5" d="M724.7,549.7c-4.1,0-8.1,0.2-12.2,0.1c-16.7-0.4-33.3,1.7-49.9,2.1c-14.2,0.4-28.4,1.3-42.4,3
		c-11.4,1.3-23.3,0.7-34.1,5.8c-2.6,1.2-5.9,1.9-5.9,5.6c0,3.4,2.3,5.5,5.1,7.2c3.1,1.9,7,2.6,9.5,5.6c-13,0.7-25.8-1.4-38.6-2.6
		c-8.1-0.8-16-1.5-23.7-4.1c-5.6-1.9-10.4-4.6-14.2-9.4c-2.5-3.2-0.5-3.5,1.6-3.9c4.4-0.9,8.8-1.8,13.3-2.3c9.3-0.9,18.7-1,28-2.1
		c17-2,34.2-2,51.2-3.7c6.6-0.7,13.2-0.3,19.9-0.9c9.7-0.9,19.5-0.2,29.1-1.3c10.6-1.2,21.1-1.1,31.6-0.6c9.9,0.5,19.8,0.7,29.6,0.8
		C723.3,548.9,724,549.4,724.7,549.7z"/>
	<path class="st3" d="M549.9,415.2c-4.9,1.8-10.2,0.6-15.3,1.7c-5.4,1.1-10.8,2.4-15.5,5.3c-7.3,4.5-7.2,11.8,0.2,16.2
		c4.2,2.5,8.9,3.8,13.8,4c14.8,0.7,29.5-0.5,44.2-1.1c11-0.5,21.9-2.3,32.9-1.7c19.2,1.1,38.4,1.4,57.5,3.6c9.1,1,18.3,1.9,27.5,2.2
		c3.3,0.1,6.7,0.6,9.8,1.8c-13.3,0.4-26.5-1.3-39.7-1.6c-14.3-0.3-28.5-1.1-42.8,0.6c-6.6,0.8-13.2,0.6-19.9,0.9
		c-16,0.9-31.8,2.4-47.7,4c-9.2,0.9-18.3,1.4-27.5,2c-4.9,0.3-9.7,1.5-14.9,0.3c-6.1-1.3-9-4.6-9.5-10.4c-0.6-6-0.2-12,1.3-17.8
		c1.6-6.3,6.9-8.3,12.5-9.1C527.8,414.7,538.8,414.8,549.9,415.2z"/>
	<path class="st6" d="M785.3,570.2c0.9-1.1,0.3-3.2,3.5-2.2c10.2,3.4,20.9,4.4,31.5,5c7.9,0.4,16-0.8,24-1.8
		c11.3-1.4,22.1-4.5,32.2-9.8c4.8-2.5,9.2-5.4,9.1-11.2c-0.1-6.2-3.7-10.9-8.8-14c-7.8-4.8-16.2-5.2-25.3-4.2
		c-16.8,1.8-32.5,7.2-48.6,11.5c-0.9,0.2-1.9,0.5-2.8,0.5c-2.8,0.1-5.9-0.6-6.8-3.2c-0.9-2.8,2.7-3.6,4.3-4.3
		c6.9-2.8,14.1-4.9,21.4-6.4c8.2-1.7,16.3-4.4,24.8-4.7c0.1,2.2-1.8,2.1-3,2.4c-11.1,1.9-21.8,5.8-31,7.7
		c11.9-2.8,25.7-5.2,39.7-6.9c9.9-1.2,19.4-0.2,28.5,4.3c12.1,6.1,15.6,15.3,10.2,27.7c7.7-8.1,7.7-14.9-0.2-22.7
		c-3.4-3.3-7.1-6.2-11.5-8.1c-1.5-0.7-3.6-0.9-3.5-3.4c10.8,0.7,21.7,10.6,23.4,21.4c1.6,10.1-1.2,14.9-10.4,20
		c-11.4,6.2-23.4,9.6-36.3,10.5c-5.6,0.4-11,2.4-16.6,1.7c-11.9-0.9-23.9-1-35.7-3.4C792.8,575.6,788,574.8,785.3,570.2z"/>
	<path class="st7" d="M615.3,347.7c7.6,0.1,15-1.7,22.6-1c8.1,0.7,15.6,2.6,20.2,10.2c2.5,4,3,8.6,3.2,13.2c-0.1,0.7-0.1,1.3-0.2,2
		c-3.7,5.9-10.1,6.3-15.9,7.8c-5.3,1.3-10.8,1.2-16.2,1.2c-4.5-8.6-11.4-15.7-14.3-25.3C613.8,352.7,615.4,350.4,615.3,347.7z"/>
	<path class="st7" d="M704,397.4c-7.3-0.3-14.1,1.1-20.9,1.2c-15.6,0.2-31.3,0.9-46.9,1.9c-11.4,0.8-22.8,1.4-34.2,2.1
		c-6.7,0.4-13.4,0.6-20.7,0.8c7.1-6.6,15.8-7.5,24-8.7c20.6-2.9,41.3-4.8,62.1-3.8C679.5,391.5,692.2,390.4,704,397.4z"/>
	<path class="st3" d="M592.8,536.3c-4.8,1.6-9.8,0.9-14.6,1.7c-6.9,1.1-13.9,2.1-20.6,4.2c-1.4,0.4-3.5,0.8-3.5,2.8
		c0.1,1.9,2.1,2.2,3.6,2.7c2.2,0.8,4.5,1.3,6.8,2c-5.7,2.4-11.8,0.8-17.7,1.9c-9.5,1.8-19.1,2.5-28.7,3.8c-3.9,0.6-10.1-6-8.8-9.8
		c0.4-1.3,2-1.3,3.2-1.7c9-2.8,18.2-3.9,27.5-4.7c15.9-1.4,31.8-3.1,47.8-3C589.6,536.1,591.2,536.2,592.8,536.3z"/>
	<path class="st8" d="M790.7,547.4c-1.7,2.2-4,2.8-6.5,2.3c-10.6-1.9-21.2-3.7-31.7-5.9c-1.9-0.4-4.9-0.1-5.3-3.2
		c-0.5-3.4,2.5-3.8,4.6-4.7c6.5-2.7,13.5-2.8,20.3-3.4c3.5-0.3,7-1.4,10.6-1.1c5.5,0.4,7.3,3.2,4.1,7.6
		C783,544.1,788.9,544.7,790.7,547.4z"/>
	<path class="st9" d="M873.1,526.3c5.4,3.1,11,5.7,15.6,10.2c9.9,9.7,8.4,20.1-3.4,28c0.6-3.8,3-6.5,3.7-10
		c1.5-7.7-1.9-15.4-8.6-19.2c-12.3-7-25.2-6.9-38.5-4.6c-12.1,2.1-24.3,4.2-36.5,5.9c8.4-3.7,17.1-6.1,26-8.3c4.1-1,8.5-1,12.4-3
		C853.6,523.1,863.4,523.1,873.1,526.3z"/>
	<path class="st8" d="M785.3,570.2c7.5,5,16.1,5.6,24.6,7c7.7,1.2,15.6,0.8,23.1,2.8c-16.9,0.5-33.7-0.2-50.3-5.2
		C783.6,573.3,784.5,571.8,785.3,570.2z"/>
	<path class="st10" d="M564.5,321.1c5.8-4.8,12.7-7.5,19.4-10.4c11.7-5.2,23.3-10.9,35.6-14.5c10.8-3.1,21.3-7.2,32.8-7
		c-1.3,2.9-1.4,5.7,0.1,8.6c0,4-3.3,5.9-5.9,7.7c-6,4.2-12.7,7.1-19.7,9.4c-0.9,0.3-1.9,0.4-2.8-0.1c-0.6-0.6-0.6-1.4-0.7-2.3
		c-0.4-4.3-2.3-6.3-6.2-5.1c-10,3.1-20.3,6-27.3,14.8C581.4,320.2,572.9,321.9,564.5,321.1z"/>
	<path class="st1" d="M659.2,304.6c1,0.7,2,1.3,3.1,2c-1.2,9.2-7.8,13.5-15.4,16.7c-9.8,4.1-19.9,6.9-30.3,8.6
		c-4,0.6-7.8,0.7-10.1-3.6c0.6-2.1,2.6-2.2,4.2-2.7c7-2.1,14-4,21.1-5.8c9.5-2.3,18-6.4,24.6-13.8
		C657,305.1,657.9,304.2,659.2,304.6z"/>
	<path d="M589.8,322.2c-0.3-3.6,2.4-5.4,4.7-6.6c6.9-3.5,13.7-7.2,21.3-9.3c3-0.8,5.3-0.6,7.5,1.3c2.2,1.9,1.8,4.5,0.6,6.9
		c-2.8,5.3-8.5,6.2-13.1,8.8c-3.7,0.8-7.3,2.7-11.2,1.2c-1.9-1-4.2-0.6-5.9-2.2c1.5-1.5,4-1.4,5.5-2.9c0.7-0.7,1.6-1.4,1.1-2.4
		c-0.6-1.1-1.7-0.4-2.6-0.2c-2.7,0.9-3.4,3.2-4,5.6C592.5,322.3,591.1,322.2,589.8,322.2z"/>
	<path class="st11" d="M599.6,324.4c3.9-0.7,7.7-1.4,11.6-2.2c7.9-2.8,16-5.1,23.9-7.7c7.3-2.4,14.1-5.6,19.1-11.7
		c0.5-0.6,1.2-1,2.1-1.2c1.2,0.7,2.2,1.6,2.9,2.9c-8.1,10.6-19.6,14.9-32.1,17.8c-7,1.6-13.8,3.9-20.7,5.9
		C603.8,327.6,601.9,325.6,599.6,324.4z"/>
	<path class="st10" d="M642.6,277.2c-12.4,8.2-25.2,15.6-38.7,21.8c-14,6.5-28.6,10.6-44.2,10.5c-4,0-8.1-0.6-11.6-2.8
		c-4.4-2.8-7.6-6.2-7.3-12.1c0.5-10,5.2-17.9,10.7-25.9c12-17.3,27.1-31,45.4-41.2c14.7-8.2,22.6-5.7,35.4,5
		c4.3,3.6,8.1,7.8,11.2,12.6c-0.6,1-1.3,1.9-1.9,2.9c-2.3-0.5-3.4-2.3-4.7-4c-3.2-4.1-7-7.7-10.8-11.2c-7.1-6.5-15.2-6.4-23.7-3
		c-6.3,2.5-11.5,6.7-16.5,11.1c-12.3,10.8-24.6,21.8-33.4,35.9c-2.3,3.6-4.3,7.2-5.6,11.7c5.2-7.2,11.1-13.5,16.7-20
		c1-1.2,2.1-2.6,4-2.1c3.2,8.8,5.5,9.5,13.9,4.2c4-2.5,7.5-5.6,11.2-8.4c5.5-4.3,5.8-6.7,1.7-12.5c-0.5-0.7-0.9-1.3-0.9-2.2
		c7.1-8.8,21.8-12.1,32.1-6.9c5.5,2.8,11.4,5.5,13.2,12.3C635.4,261.8,635.8,270,642.6,277.2z"/>
	<path class="st12" d="M638.8,253c-11.7-14.6-26.8-19.4-45-5.1c-0.4,0.6-0.9,1-1.5,1.1c-10.4,1.2-17,7.6-22.2,15.9
		c-0.6,0.9-1.1,2-2.5,1.8c-5.8,5.4-10.9,11.4-15.8,17.7c-1.9,2.5-4,4.8-6.8,8.2c1.3-9.7,6.3-16.2,11-22.6
		c10.4-14.3,23.9-25.5,37.5-36.4c4.4-3.5,9.8-5.9,15.5-6.8c6.9-1,13.2,0.5,18.4,5.6c5.1,5,10.2,10,14.4,15.8
		C640.7,249.8,639.7,251.4,638.8,253z"/>
	<path class="st13" d="M671,249.3c-0.1,8.8-4.2,15.6-8.6,22.3c-1.2,1.7-3.2,3.3-5.3,2.6c-2.5-0.9-4-3.2-4.6-5.8
		c-0.6-2.5,1.2-3.6,3.1-4.8C661.5,260,665.7,254.4,671,249.3z"/>
	<path class="st12" d="M656.3,301.7c-2.6,5-6.9,8.1-11.8,10.3c-10.7,4.7-21.6,8.7-33.3,10.3c4-2.9,9-4.5,12.7-7.9
		c10.7-3.5,21.4-6.9,28.5-16.6C653.7,299.1,655,300.4,656.3,301.7z"/>
	<path class="st13" d="M689.9,288c-3.1,7.2-4.7,13.9-12.7,16.1c-3.9,1-7.4,1-9.9-2.2c-1.3-1.6,3.5-6.3,7.5-6.8
		C680.3,294.5,684.5,291.5,689.9,288z"/>
	<path class="st10" d="M732.9,475.8c9.9,4.9,17.5,12.1,22.6,21.7c3,5.5,5.9,11.1,6.5,17.6c0.3,3.1,1.4,5.8-2.4,6.9
		c-3.6,1.1-6.7,0-8.7-3.2c-1.9-3.2-2.5-6.9-2.8-10.4C746.9,495.6,741,485.2,732.9,475.8z"/>
	<path class="st10" d="M604.4,416.2c1.4-0.1,2-0.2,2.6-0.2c30.2-1,60.3-0.5,90.5-1.2c14.2-0.4,28.5-0.4,42.7-0.7
		c4.9-0.1,9.5,0.4,11.9,5.8c2.5,5.7-0.6,10.5-2.4,15.4c-0.7,2-2.6,0.4-3.5-0.3c-10.8-8.6-23.5-11.7-36.9-13.2
		c-12.3-1.4-24.8-1.2-37.1-2.1c-10.7-0.7-21.4,0.4-32-0.9C628.5,417.3,616.7,419.5,604.4,416.2z"/>
	<path class="st10" d="M657.9,536.4c13.7,0.5,27.2-2.2,40.8-1.2c9.1,0.7,18.2,1.9,27.3,2c1.5,0,4.3,0.4,4.2,1.9
		c-0.2,2.7-2.9,2-4.7,1.8c-15.8-1.8-31.7-2.1-47.6-3.1C671.2,537.4,664.4,537.8,657.9,536.4z"/>
	<path class="st10" d="M618.4,309.6c1.7-0.1,3.3,0,3.6,2.2c0.3,1.7-6.5,6.6-9.1,6.6c-1.5,0-2.4-0.7-2.6-2.3
		C610.2,313.9,615.4,309.7,618.4,309.6z"/>
	<path class="st14" d="M593.8,322.3c-1.2-3.7,2.9-8.6,6.7-7.7c2.3,0.5,2.7,2.2,1.2,4C599.7,321.2,597.1,322.7,593.8,322.3
		C593.7,322.2,593.8,322.3,593.8,322.3z"/>
	<path d="M567.5,266.7c3.1-5.8,7.4-10.4,12.6-14.5c4.3-3.4,8.8-3.9,13.7-4.3c6.7,5.9,6.5,10.9-0.7,15.7c-4.9,3.3-9.4,7.3-14.7,10.3
		C572.6,277.3,565.5,274.6,567.5,266.7z"/>
	<path class="st10" d="M595.7,255.1c0.1,3.1-4.4,8.8-7.3,9.3c-1.7,0.3-2.4-0.8-2.4-2.1c-0.1-3.5,0.8-6.8,2.8-9.8
		c1-1.6,2.7-2.1,4.2-1.4C594.6,251.8,596,253,595.7,255.1z"/>
	<path class="st14" d="M577.2,265.2c0.2,2.4-1.6,4.7-4.1,6.7c-1,0.8-2,0.2-2.4-0.7c-1.2-3.1-0.2-6,1.4-8.7c0.7-1.1,1.7-2.8,3.3-2.4
		C577.5,260.6,577.1,262.6,577.2,265.2z"/>
</g>
</svg>
