<?xml version="1.0" encoding="utf-8"?>
<!-- Generator: Adobe Illustrator 23.0.1, SVG Export Plug-In . SVG Version: 6.00 Build 0)  -->
<svg version="1.1" id="Layer_4" xmlns="http://www.w3.org/2000/svg" xmlns:xlink="http://www.w3.org/1999/xlink" x="0px" y="0px"
	 viewBox="0 0 1000 1000" style="enable-background:new 0 0 1000 1000;" xml:space="preserve">
<style type="text/css">
	.st0{fill:#6E3720;}
	.st1{fill:#FB9A7A;}
	.st2{fill:#E00000;}
	.st3{fill:#7F0000;}
	.st4{fill:none;}
	.st5{fill:#CBB89A;}
	.st6{fill:#7A99AC;}
	.st7{fill:#2B5260;}
	.st8{fill:#B5FBF8;}
	.st9{fill:#FEFEFE;}
	.st10{fill:#C0FEFE;}
	.st11{fill:#7F7F7F;}
	.st12{fill:#00407F;}
</style>
<g>
	<path d="M911,551.7c-0.9-11.8-6.7-20.8-17.4-26.3c-17.2-8.9-35.2-8.9-53.7-5.5c-12.5,2.3-24.4,7-36.8,9.9c-3.8,0.9-4.5-1.2-5-3.1
		c-1.1-4.9-1.7-10-2.2-15.1c-1.5-15.2-8.6-27.6-19.3-38c-4.9-4.8-10.4-9.1-16.8-12.1c3.5-2.2,7.1-3.3,9.9-6.1
		c8.2-8.2,12.9-17.9,14.9-29.4c2.3-13.4-6-30.8-22.8-30.7c-2.1-2.3-5-2.2-7.7-2.3c-6.5-0.1-13-0.3-19.5,0.1
		c-8.6,0.5-16.7-0.4-24.2-5.2c-2.9-1.9-6.3-2.6-9.5-3.9c-0.1,0-0.3-0.1-0.4-0.2c-0.1-0.1-0.3-0.1-0.4-0.1
		c-9.1-2.8-18.4-4.7-27.8-6.1c0,0-0.1,0-0.2,0c-0.1,0-0.1,0-0.2,0c-4.7-0.5-10.3,1.1-12.7-4.6c-0.1-0.3-0.2-0.6-0.3-0.9
		c0-0.1-0.1-0.2-0.1-0.3c-6.4,3.1-13.2,4.8-20.4,5.4c-3.8,0.3-7.8-0.2-11.5,1.1c-0.1,0.1-0.2,0.1-0.3,0.2c-3.9,2.3-8.3,1.9-12.6,2.3
		c-0.1,0-0.3,0-0.4,0.1c-0.3,0.1-0.5,0.1-0.8,0.1c-1.4,0.2-2.7,0.3-4.1,0.5c-8,1.3-16.2,1.8-23.8,4.8c-0.2,0.1-0.4,0.2-0.6,0.3
		c-0.5,0.2-0.9,0.4-1.3,0.7c-0.3,0.2-0.6,0.3-0.9,0.4c-5.7,2.7-11.2,5.8-16.4,9.4c-3.3,2.3-7.1,4-11,2.8c-10-2.9-19.9-2.4-29.8,0
		c-0.1,0-0.2,0-0.3,0.1c-1.3,0-2.6,0-3.9,0.1c-5.4,0.3-10.7,1-16,1.2c-0.6,0.1-1.1,0.2-1.7,0.3c-0.2,0-0.4,0.1-0.6,0.1
		c-3.5,0.7-7.1,1.3-10.6,2.3c-4.2,1.2-7.1,3.8-9,7.6c-7.5,15.3-2.4,41.3,11.8,50.7c2.6,1.7,2.9,2.7,0.7,5.1
		c-7.2,7.8-12.6,16.6-14.1,27.2c0,0.3-0.1,0.6-0.1,0.9c0,0.3-0.1,0.7-0.1,1c0.1,3.2-1.7,6.3,0.3,9.5c0.6,7.6,1.1,15.3,2,22.9
		c1.8,16.3,7.6,30.4,20.6,40.9c8.7,7,17.5,13.7,28.9,16.3c13.7,3.1,27.6,4.6,41.5,5.5c17.5,1.1,35,3,52.5,3.1
		c13.7,0.1,27.5,0.4,41.3-0.6c14-1,28-1.2,42-2.1c13.4-0.9,26.8-1.4,40-4.1c6.9-1.4,14.6-1,20.4-5c6.2-4.3,12-3.3,18.3-1.5
		c0.9,0.3,1.8,0.6,2.7,0.7c7.2,0.9,14.5,2.5,21.7,2.7c6.4,0.2,12.9,2.1,19.3,1.1c10.4-1.6,20.9-1.7,31.3-3.7
		c14.6-2.8,28.4-7.2,39.9-16.7C907.7,562.1,911.5,557.6,911,551.7z M793.4,561.2c2.1-9.1,8.3-12.4,16.4-14.4
		c12.9-3.2,25.8-6.6,38.6-10.1c8-2.2,16-3.2,24.2-0.6c5.7,1.8,11.9,8.3,12.1,13.9c0.1,4.3-3.8,6.1-6.5,7.4c-11.1,5.2-22.5,9.7-35,10
		c-5.1,0.1-10.2,1.9-13.1,1.3c-12.9-0.7-23.6-1.3-34.1-3.2C793.2,565,792.6,564.7,793.4,561.2z"/>
	<path class="st0" d="M482.3,496c0.7,3.4-1.3,6.6-1,10c-12-5.6-22.5-13.5-31.3-23.3c-9.6-10.6-19.2-21.4-25.6-34.4
		c-7.1-14.4-10.9-29.9-13.4-45.7c-1.4-9.2-2.4-18.5-1.9-27.9c1.1-18.7,2.1-37.6,11.7-54.5c5.4-9.4,12.3-17.7,18.9-26.3
		c14-18,30.4-33.7,45.5-50.6c10.9-12.1,20.2-25.7,31.9-37.1c14.3-14,29.3-27.6,48.2-35.7c15.2-6.5,30.4-7.7,46-0.1
		c15.9,7.7,27.5,19.8,38.1,33.6c6.3,8.2,9.9,17.6,14.6,26.5c-1.9,3.6-5.3,3.3-8.6,3.5c-2.3-1.6-2.9-4.2-4-6.6
		c-7.5-15.8-18-29.5-31.8-40.1c-17.8-13.6-36.7-15.8-56.8-4.1c-17.6,10.2-32,23.8-45.6,38.6c-15.9,17.4-30.2,36.2-47.1,52.7
		c-15.9,15.5-28.9,33.4-40.4,52.5c-4.4,7.2-6.1,15.4-7.4,23.6c-1.5,9.3-2.2,18.8-2.1,28.1c0.1,15.8,3.9,31.2,7.9,46.5
		c5.7,21.5,18.2,38.6,33.1,54.4c4.2,4.5,9.2,8.3,14.5,11.5C478.2,492.4,480.9,493.4,482.3,496z"/>
	<path class="st0" d="M525.5,401.3c-7.2,0-14.2,1.6-21.4,1.2c-22.7-9.2-36-29.8-24.7-53.2c9.8-20.2,25.7-31.8,48.6-34.4
		c12-1.3,23.2,1.6,34.8,3.1c9.4,0.2,18.8-0.9,28,1.2c2.3,0.6,4.6,1.1,6.8,2.1c0.9,0.4,1.8,0.9,2.7,1.3c6.5,5.5,13.6,4.9,21.1,2.5
		c6.2-2,12.7-2.9,19-4.5c8.9-2.3,16.5-6.2,20.2-15.2c0.3-0.8,0.9-1.4,1.5-1.9c3.4,0,6.6,0.6,9,3.2c-1,7.4-6.3,12.1-11.5,16.4
		c-8.7,7.2-19.5,9.1-30.2,10.8c-4.4,0.7-8.8,1.2-13.1,2.1c-1.6,0.3-4.1,1.1-1.8,3.7c1.3,1.6,1.3,3.4,1.1,5.3
		c-1.5,4.8-0.6,9.1,1.7,13.5c2.7,5.1,5.9,10.1,8.3,15.4c0.7,1.6,1.8,3.1,1.6,5c-1.8,2.9-4.8,2.5-7.5,2.7c-1.8,0.2-3.6,0-5.3-0.1
		c-2.1-0.8-2.6-2.8-3.6-4.4c-2.9-5.1-5.7-10.3-9.2-15c-2.5-3.4-3.3-6.8-2.4-11c2.3-11.7-1.4-17.4-13-20.1
		c-6.7-1.6-13.4-2.6-20.3-1.1c-3.9,0.8-7.8-0.3-11.6-1c-9.3-1.8-18.5-3-28.1-1.7c-14.4,1.9-28.7,13.6-32.6,27.8
		c-5.2,18.8,1.4,27.1,15.3,37.2c4.3,3.1,9,6,14.4,6.9C524.2,399.5,525.4,399.7,525.5,401.3z"/>
	<path class="st0" d="M672,378.8c-4,0.7-8-0.3-11.8-1c-4.3-0.8,0.3-4-1-5.8c-1.2-1.4-0.6-2.8,0-4.2c2.8-7.1,5.2-14.2,0-21.3
		c-0.4-0.5-0.4-1.2-0.1-1.9c0.7-2.2-0.8-4-0.9-6.1c-0.5-8,5.4-12.2,10.6-16.2c7.8-6,17.1-9.1,26.8-9.7c8.9-0.6,16.9-4.1,25.3-6.3
		c23.6-6,44.3-0.3,63.3,14.2c9.7,7.4,15.9,17,17.4,28.9c1.1,9.1-2.3,17.4-7.5,24.9c-4.8,6.8-11.4,11.6-18.3,15.8
		c-4.1,2.5-9.2,3.4-13.9,5.1c-11.9-1.8-23.9-0.6-35.8-0.8c-3.7-0.1-6.9-0.8-10.2-2.5c-5.1-2.6-10.5-4.8-15.7-7.3
		c0-2,0.3-4.2,2.3-4.9c2-0.6,2.9,1.6,4.2,2.7c7.7,6.9,16.9,9.9,27,8c9.4-1.8,18.6-4.4,27.9-6.4c12.2-2.7,21.2-11.1,25.1-23.1
		c3.5-10.7-0.7-20.5-8.1-28.2c-15.9-16.5-35.1-22.2-57.3-14.9c-8.4,2.7-16.8,4.9-25.5,6.2c-6.4,0.9-12.8,2.5-18.4,6.1
		c-5.1,3.3-6.8,7.2-3.6,11.9C682.4,355.2,676.4,366.8,672,378.8z"/>
	<path d="M655.4,233.5c2.9-1,5.8-2,8.7-3c11.5,0.2,16.1,6.5,13.2,17.6c-1.2,4.7-2.7,9.2-4.7,13.6c-1.1,4.8-4.9,7.9-7.4,11.7
		c-8.2,8-15,8.2-23.5,0.6c-7.2-7.2-6.6-15.2-2.3-23.6c1.1-1.8,1.9-3.8,3.3-5.5c0.7-0.9,1.5-1.6,2.2-2.5
		C647.7,238.6,650.8,235.1,655.4,233.5z"/>
	<path d="M671,306.7c-3-1-6-2-9-2.9c-1.2,0.4-2.1-0.1-3.1-0.6c-1.3-0.9-2.3-2-3.4-3.1c-1.7-1.6-3.1-3.4-4.1-5.5
		c-2-3.9-0.6-7.1,2.1-10c3.3-3.7,8-5.3,12.2-7.6c3-0.8,5.7-3.2,9.1-1.8c3.4,0.8,6.5-1.2,9.9-1c6.2,0.4,10.3,4.8,9.5,11.1
		C692.7,298.6,681.7,306.3,671,306.7z"/>
	<path d="M659.1,344.7c6.8,7.5,4.6,15.4,1.2,23.4c-2.2-2.4-2-5.7-2.9-8.6c-2.3-7-7.1-10.8-14-12.6c-7.9-2.1-15.7-1.7-23.6-0.4
		c-1.9,0.3-3.9,0.9-5.5-0.7c0-2,0-4,0-5.9c4.7-0.4,9.4-1.5,14-1.7c10.3-0.6,20.5,0,29.3,6.6C658,344.9,658.6,344.7,659.1,344.7z"/>
	<path class="st0" d="M674.9,275.3c-3,1-6,2-9,2.9c-1.4-1.7-2-3.6-0.9-5.7c1.9-4.1,5.2-7.2,7.7-10.8
		C673.4,266.2,675.1,270.6,674.9,275.3z"/>
	<path class="st1" d="M665,272.5c0.2,1.9,1.5,3.7,0.9,5.7c-3.9,2.4-8.3,3.7-11.6,7.1c-1.7,0.9-3.6,1.5-5.5,1.8
		c-25.8,4.5-50,13.7-73.9,24.1c-4.8,2.1-8.5,5.9-13.3,8.1c-17.2-4.2-34.7-6.1-51.3,1.3c-18,8-30.5,21.8-33.4,41.6
		c-1.7,11.7,2.6,22.2,12.8,29.9c4.7,3.6,9.8,6.6,14.4,10.4c-2.7,1.6-5.8,1.1-8.6,1.9c-8.7,2.2-12.4,6.3-14,15.2
		c-2.1,11.3,0.2,21.8,5,31.8c2.8,5.7,7.6,9.8,13.7,12.8c-8.9,9.2-16.2,18.9-17.8,31.9c-13.2-5.8-22.9-15.9-31.9-26.7
		c-6.3-7.7-12.1-15.8-16.3-24.9c-6.2-13.3-9.9-27.3-12.3-41.8c-1.4-8.6-3.5-17.1-2.9-25.8c1.1-14.4,1.1-29,6-42.8
		c3-8.5,8.6-15.7,13.6-23.2c12.4-18.2,27.2-34.3,42.8-49.8c13-12.9,23.4-28.3,36-41.6c16.3-17.3,33.5-33.5,56.2-42.6
		c9-3.6,17.7-3.2,26.7-0.8c15.1,4.1,26.3,13.4,35.6,25.6c5.1,6.8,11.1,12.9,14.7,20.8c1.7,3.6,3.1,7.4,4.7,11
		c-3,3.5-7.5,5.5-9.8,9.7c-3.4-1.8-4.6-5.7-7.5-8.1c-3-2.5-5.7-5.3-8.7-7.8c-9.3-7.9-19.5-8.1-29.5-2.7c-13.1,7-24.8,16-34.7,27.2
		c-5.8,6.6-11.7,13-16.7,20.3c-3.6,5.2-5.9,10.8-6.2,17.2c-0.3,6.8,2.5,11.2,9,13.4c4.5,1.5,9.1,2.1,13.9,1.7
		c16.3-1.4,31.4-6.6,46-13.6c9.8-4.8,19.7-9.2,28.4-16c0.9-0.7,1.9-1.2,3.1-1.2C649.2,278.9,655.4,281.5,665,272.5z"/>
	<path class="st2" d="M737.4,465.7c22.1,13,38.9,29.8,40.5,57.4c-10.5,1.7-21.1,4-31.5,6.7c-5.5,1.4-11.7,1.1-17.5,0.2
		c-7-1-13.9-0.6-20.8-0.7c-10.7-0.2-21.5-0.1-32.2-0.2c-1.6-0.7-3.2-0.3-4.8-0.3c-18.7,0-37.4-0.5-56,0.1c-20.1,0.7-40.3,1-60.3,2.6
		c-1.6,0.1-3.2,0.2-4.9,0.1c-5.6-0.6-8.6-4-8-9.5c2.2-20.8,18.9-40.7,38.1-45.6c19.2-4.9,38.6-6.9,58.3-8.4
		c22.5-1.7,45.1-2.4,67.6-3.5C716.3,464.1,727,463.2,737.4,465.7z"/>
	<path class="st1" d="M672,378.8c0.3-6.2,2.8-11.8,4.5-17.6c1.4-4.8,1.2-9-1.5-13.2c-0.9-1.3-1.4-2.9-2.1-4.3
		c-3.4-6.9-1.8-11.2,4.9-15.1c8.3-4.7,17.7-5.4,26.7-7.1c6.5-1.2,12.7-3.3,18.9-5.4c20.6-7,45.3,1.6,58.1,18
		c7.5,9.7,11.5,21.2,4.2,33.1c-6.9,11.3-16.5,19.2-30.6,19.6c-5.5,0.2-10.5,2.5-15.7,4.1c-14.4,4.3-26.4,0.8-36.7-10.5
		c-0.7,1.5-0.8,3.6-2.4,4.6C690.7,382.9,681.4,380.8,672,378.8z"/>
	<path class="st1" d="M525.5,401.3c-9.6-1.7-17.3-7.1-24.5-13.2c-9.9-8.3-13.1-19-9.4-31.2c4.7-15.3,13.9-26.8,30.3-30.4
		c10.7-2.3,21.4-1.3,32,1.1c4.5,1,8.9,1.6,13.7,0.8c8.6-1.4,17.4,0.1,25.4,3.8c7.1,3.2,9.8,10.2,7.3,19.5c-1,3.8-0.5,6.6,1.6,9.4
		c4.9,6.4,8.7,13.4,12.2,20.6c-5.7,1-11.5,2.1-17.2,3c-4,0.6-8.1,1.2-11.9,2.8c-1.3-1-1.5,0.5-2.2,1c-6.3,3.3-12.4,6.8-18.3,10.8
		c-5.4,3.6-11.6,2.5-17.2,1c-5.1-1.4-9.7-1.7-14.8,0.1C530.5,401.2,528,401.9,525.5,401.3z"/>
	<path class="st2" d="M547.9,413.2c8-1.8,16.1-0.8,24.2-1.1c31.2-1.3,62.3-0.1,93.5-1.2c26-0.9,51.9-0.2,77.9-0.7
		c4-0.1,7.9,0.9,11.8,2c4.4,1.3,7.4,6,6.4,10.3c-1.7,7.6-3.8,15.2-8.9,21.4c-2.1,2.5-4.8,4.2-7.8,4.2c-7.1,0-14.2,1-21.2-1
		c-15-1.6-30-2.4-45-3.4c-20.6-1.4-41.2-2-61.8-3.5c-8.1-0.6-16.2-0.7-24.4,0.3c-8.4,1-16.9,0.5-25.3,1.2c-10,0.8-20.1,1.2-30.1,2
		c-7.4,0.6-14.6-0.4-21.2-4.1c-8.2-4.7-8.7-13.3-1.1-19c5.9-4.4,12.9-6,20.1-6.5C539.2,413.8,543.6,413.7,547.9,413.2z"/>
	<path class="st3" d="M737.4,465.7c-2.8,0-5.5,0.2-8.3,0.1c-16.1-0.7-32.1,0.9-48.2,1.2c-16.5,0.2-32.9,1.5-49.4,2.9
		c-18.1,1.5-36.3,3.6-53.8,8.8c-10.5,3.1-18,10.3-24.7,18.7c-5.9,7.4-8.1,16-10,24.9c-1,4.8,1.9,8.5,6.7,7.9
		c10.2-1.4,20.4,0.2,30.5-1.7c0.6-0.1,1.3-0.1,1.9-0.1c20.6,0.3,41.2-2.1,61.8-0.8c9.7,0.6,19.4,0.6,29.2,0.8c1,0,2,0,2.7,0.8
		c-0.2,0-0.3,0-0.5,0.1c-19.3,0.4-38.6,0.6-57.9,1.1c-15.2,0.4-30.4,1-45.6,2c-14.1,0.9-28.3,2.3-42.3,3.9
		c-8.5,0.9-16.8,2.5-25.2,3.9c-1.9,0.3-2.9,1-3.5-1.8c-3.9-19.5-4.8-38.7,4.7-57.1c4.8-9.3,12.7-14.6,22.8-16.2
		c16.5-2.6,33.2-3.9,50-5.1c17.6-1.2,35.2-2,52.7-3.1c8.4-0.5,16.9-1.1,25.2-0.6c17.2,1.1,34.5,1.4,51.6,3.6
		c8.6,1.1,17.3,1.1,25.7,4C735,464.3,736.3,464.6,737.4,465.7z"/>
	<path class="st2" d="M704.2,549.7c5.2,0,10.4,0.2,15.6,0.1c17.3-0.5,34.3,2,51.3,5c2.4,0.4,4.1,1.1,2.5,4.5c-2.6,5.6-7,9-12.5,10.7
		c-8.4,2.6-17.1,4-25.8,5.2c-10.6,1.5-21.2,3.2-31.8,4.6c-7.5,1-15,1.9-22.5,2.2c-15.2,0.6-30.5,2.3-45.7,0.8
		c-11.3-1.1-22.7,0.8-33.8-1.7c-7.8-1.5-14.9-4.6-20.8-9.9c-2.2-2-4.8-3.9-4-7.3c0.8-3.3,3.9-4.1,6.8-4.9
		c12.6-3.4,25.6-5.2,38.5-6.4c25.7-2.4,51.5-3.1,77.3-3.2C701,549.3,702.6,549,704.2,549.7z"/>
	<path class="st4" d="M884.7,550c0.1,4.3-3.8,6.1-6.5,7.4c-11.1,5.2-22.5,9.7-35,10c-5.1,0.1-10.2,1.9-13.1,1.3
		c-12.9-0.7-23.6-1.3-34.1-3.2c-2.6-0.5-3.3-0.8-2.5-4.2c2.1-9.1,8.3-12.4,16.4-14.4c12.9-3.2,25.8-6.6,38.6-10.1
		c8-2.2,16-3.2,24.2-0.6C878.3,537.8,884.5,544.3,884.7,550z"/>
	<path class="st2" d="M607.5,535.3c44-2.2,88-3.1,132.5-1c-1.7,4-4.7,8,0.7,12.5c-5.6-0.1-10.1,0.8-14.7-0.6
		c-0.7-0.2-1.6-0.2-2.4-0.2c-23,0.2-46.1-2.2-69.1-0.8c-13.5,0.8-26.9,0-40.3,0.9c-13,0.8-26.1,1.5-39.1,2
		c-5.1,0.2-10.3,0.9-15.4,0.7c-1.7-0.7-3.5-0.3-5.3-0.3c-2.2-0.1-4.4-0.4-4.9-3c-0.5-2.5,1.5-3.8,3.4-4.7c4-1.8,8.4-2.1,12.7-2.6
		C579.5,536.6,593.5,535.9,607.5,535.3z"/>
	<path class="st3" d="M704.2,549.7c-14.1-0.3-28.2,0.6-42.3,1.4c-18.9,1-38,1.8-56.7,5.3c-7.4,1.4-14.9,2.4-22.3,4.2
		c-2.3,0.5-4.9,1.3-5.3,3.6c-0.5,2.3,1.8,4,3.4,5.5c5.9,5.5,13.5,7.9,20.6,11.4c-21.2,0.1-42.2-1.8-62.9-6.1
		c-9.5-2-17.8-7.3-25.3-15.3c6.5-1.1,12.1-2.1,17.7-2.9c15.8-2.2,31.7-3.2,47.7-4.1c14.4-0.8,28.7-1.3,43.1-1.9
		c25.6-1.1,51.2-2.1,76.8-1.8C700.5,548.9,702.5,548.1,704.2,549.7z"/>
	<path class="st3" d="M547.9,413.2c-7.3,2.1-15,1.2-22.2,3.7c-4.6,1.6-9.2,3.3-12.5,7c-4,4.4-3.3,9.8,1.6,13.3
		c7.2,5.1,15.5,6.1,23.7,4.9c5.9-0.9,11.9-0.9,17.8-1.3c8.7-0.6,17.4-1.8,26.2-1.3c5.9,0.4,11.6-1,17.4-1.1
		c17.3-0.4,34.6,1.8,51.9,2.1c14,0.3,28.1,1.3,42,3c10,1.2,20.2,0.7,30.1,3.6c-16.8-0.9-33.5-2.3-50.3-2.6
		c-14.6-0.3-29.2-1.2-43.8,0.7c-1.4,0.2-2.9,0.1-4.4,0.1c-16.9-0.3-33.7,1.3-50.5,2.1c-17.4,0.9-34.7,3-52,4.8
		c-2.7,0.3-5.4,1-8.2,0.9c-10.1-0.1-15.4-4.6-16.5-14.5c-0.7-5.9,0.6-11.6,2.7-17.1c2.2-5.7,8.1-5.6,12.8-6.4
		C524.9,413.4,536.4,412.7,547.9,413.2z"/>
	<path class="st5" d="M614.3,345.7c4.4-0.6,8.8-1.3,13.2-1.7c8.1-0.8,15.9,0.5,23,4.3c7.8,4.2,9.1,11.9,9.9,19.8
		c-0.9,1.2-1.3,2.5-1.2,3.9c-4.6,4.3-10.4,5.3-16.4,6c-5.2,0.6-10.5,0.9-15.7,1c-4.4-8.2-8.9-16.2-13.1-24.5
		C612.6,351.8,612.7,348.6,614.3,345.7z"/>
	<path class="st6" d="M865.3,530.1c-14.8,0.6-28.9,4.6-43,8.5c-6.7,1.9-13.3,4.1-20,6.1c-2.6,0.8-5.1-0.2-6.1-2.5
		c-1-2.4,0.7-4.1,3.1-5.2c9.9-4.6,20.5-6.9,30.9-9.4c10.7-2.6,21.7-4.9,32.8-4c9.9,0.8,20.2,1.3,28.6,7.7c6.9,5.3,14.6,17,10.9,25.2
		c-1.9,4.1-4.8,7.3-8.7,9.3c-13.1,6.8-26.8,11.5-41.8,12.5c-3,0.2-6,0.8-9.1,1c-17,1.3-33.7-0.2-50.2-4.5c-2.1-0.5-4.5-1-5.6-3.5
		c0.9-2.5,2.7-2.4,4.9-2c13.9,2.6,27.8,4.4,42,3.9c17-0.7,33.5-3.6,48.4-12.5c4.4-2.6,9.4-5.7,8.8-10.8c-0.6-5.7-3.6-11.2-9.4-14.2
		c-1.4-0.7-2.7-1.6-4.1-2.4c0.9-1,2-0.9,3.1-0.7c11.2,2.5,17.2,14.1,12.7,24.6c-0.6,1.3-1.3,2.6-1.9,4c8-3.9,10.2-11.9,5.3-19.1
		c-3.7-5.4-8.4-9.4-14.6-11.7c-10.7-4-21.6-5.2-33-3.4c-13.2,2-26.1,5.1-37.1,8.9c14.4-3.6,30.5-7.1,47.1-7.8
		C861.5,528,864.2,527.1,865.3,530.1z"/>
	<path class="st5" d="M704.6,396.5c-5.6,0-11-0.1-16.4,0c-10.7,0.3-21.3,0.3-32,1.1c-10.9,0.8-21.9,1-32.7,2
		c-14.3,1.3-28.5,2-43.6,1.8c2.7-2.8,5.5-4,8.5-4.8c9.4-2.4,18.8-4.1,28.5-5.1c17.2-1.9,34.3-3.6,51.5-2.5
		c12.1,0.7,24.6,0.7,35.8,6.7C704.3,395.7,704.4,395.8,704.6,396.5z"/>
	<path class="st3" d="M607.5,535.3c-1.9,1.6-4.1,0.7-6.1,0.8c-15.3,0.6-30.5,1.7-45.5,4.9c-0.8,0.2-1.6,0.3-2.3,0.6
		c-1.6,0.7-3.7,1.5-3.3,3.6c0.4,1.9,2.5,2.3,4.3,2.6c1.7,0.3,3.6-0.6,5.1,0.9c-16.2,1.1-32.4,3-48.4,6c-2,0.4-3.5,0.2-4.8-1.7
		c-1.5-2.3-3.5-4.4-3.2-7.3c0.1-1.2,1.5-1.4,2.7-1.7c11-2.4,22.1-4,33.4-4.9c17.2-1.3,34.4-2.7,51.6-3.8
		C596.4,534.9,601.9,535.3,607.5,535.3z"/>
	<path class="st7" d="M792.6,547.4c-4.6,2.8-9.1,0.9-13.4,0.4c-8.9-1.1-17.9-1.8-26.4-4.8c-2.4-0.8-6.1-1.2-6.2-3.8
		c-0.1-3.4,3.9-3.9,6.5-4.6c10.1-2.7,20.4-4.5,30.9-4.4c6.1,0.1,7.9,2.7,5,7.8C786.3,542.7,790.6,544.3,792.6,547.4z"/>
	<path class="st8" d="M865.3,530.1c-6.6-2.3-13.1-0.5-19.6,0.4c-12.8,1.7-25.5,4.5-38.2,7.3c6.8-4.7,14.6-6.3,22.4-8.5
		c9-2.6,18.3-4.2,27.5-4.4c14.8-0.4,28.9,2.1,39.6,14.7c7.2,8.5,3.6,18.9-4.7,23.6c-0.8,0.5-1.7,0.8-3.6,1.7
		c3.3-7.8,9.1-15,3.1-22.8c-3.4-4.5-7.9-8.1-14-8.6C873.6,532.2,869.5,531.2,865.3,530.1z"/>
	<path class="st7" d="M787.1,571.3c8.1,3.9,17,4.8,25.8,5.8c9.9,1.1,19.9,2.4,30,2.2c-7.9,1.6-15.9,2.5-23.9,1.7
		c-10.7-1-21.5-1.3-31.8-4.7c-1.2-0.4-2.4-0.6-3.4-1.6C784.5,573.1,785.7,572.1,787.1,571.3z"/>
	<path class="st0" d="M582.9,388.6c0.1-1.1,0.2-2.1,0.4-3.6c0.8,1.1,1.3,1.9,1.8,2.7C584.3,387.9,583.6,388.2,582.9,388.6z"/>
	<path class="st9" d="M561.6,319.2c5.5-7.2,13.8-9.7,21.6-13c18-7.7,36.5-14,55.5-18.5c5.1-1.2,10.3-2.5,15.6-2.4
		c-2.6,2.8-3.8,5.9-1.9,9.6c0.4,1.5-0.4,2.6-1.4,3.4c-7,5.9-14.8,9.9-24,10.9c-4.1-3.5-8.6-3.6-13.6-2.1c-5.2,1.5-10,3.6-14.9,5.8
		c-3.5,1.6-5.9,3.8-6.9,7.5C581.6,318.7,571.6,319.7,561.6,319.2z"/>
	<path class="st1" d="M659.2,302.6c0.9,0.4,1.9,0.8,2.8,1.2c-2.5,10.1-9.9,15-19.2,17.4c-10.5,2.6-20.9,5.5-31.7,7.3
		c-2.2,0.4-3.5,0.3-5.2-1c-2-1.6-4.3-2.7-6.4-4c4.5-2.5,9.6-2.4,14.5-3.3c9.1-1.6,18-4.3,26.8-7c5-1.6,9.1-4.9,13.3-8
		C655.7,304,656.9,302.2,659.2,302.6z"/>
	<path d="M591.6,320.3c-2.2-3.7,0.6-5.4,3-6.7c7-4,14.6-7.1,22.5-8.8c3.9-0.8,7.7-0.1,10,3.8c0.9,4.3-3,5.4-5.1,7.7
		c-7.6,4-15.5,6.8-24.3,6.1C595.7,321.5,593.4,321.7,591.6,320.3z"/>
	<path class="st9" d="M597.7,322.4c8.6-0.3,16.4-3.7,24.2-6.9c3.6-2.1,7.7-2.4,11.5-3.7c7-2.3,13.6-5.2,19.1-10.4
		c1-1,2.1-2.1,3.8-1.6c1.2,0.7,2.2,1.6,2.9,2.9c-12.4,12.4-28.7,15.5-44.9,18.6c-4.9,0.9-9.7,2.4-14.7,2.1
		C598.9,323.1,597.9,323.5,597.7,322.4z"/>
	<path class="st9" d="M642.7,273.4c-3.7,4.1-8.5,7-13.3,9.4c-15.9,8.2-31.6,16.8-49.4,20.3c-8.4,1.6-16.9,3.6-25.8,1.7
		c-10-2.2-15-9.4-13-19.4c1.5-7.8,5.9-13.8,10.5-19.8c12.5-16.5,27.1-30.9,45.2-40.9c16.6-9.2,24.8-6,36.9,4.5c4.6,4,9.4,8,11.8,14
		c-0.7,0.7-1.3,1.3-2,2c-2.7,0-3.2-2.3-4.3-4c-3.2-4.8-7.2-8.8-11.7-12.2c-7.4-5.5-15.5-5.1-23.6-1.7c-6.9,2.9-13.3,6.7-19,11.6
		c-3.1,2.6-6.8,4.2-9.9,6.8c-3.2,2.6-5.5,5.8-7.9,9c-4,4.5-7.8,9.1-11.4,13.9c-3.5,4.6-6.9,9.3-9,14.6c5.9-7.6,12.9-14.3,20.8-20
		c11.1,0.1,23.9-8.9,28.8-20.5c12.9-10.9,33.6-11.2,44.4,7.4c-1,2.9-2.4,5.8-2.9,8.8C636.8,264.5,638.5,269.4,642.7,273.4z"/>
	<path class="st10" d="M584,238.4c8.2-7.4,17.4-12.8,28.3-14.7c7.1-1.2,13.3,1.5,18.7,6.3c5,4.4,9,9.6,12.7,15.1
		c-1,1.6-2,3.2-2.9,4.9c-1.7-1.5-3.6-2.8-5-4.6c-9.8-12.5-26.8-10.7-38.1-2.9c-0.3,0.2-0.5,0.4-0.8,0.5
		C593.9,238,588.6,239,584,238.4z"/>
	<path class="st11" d="M671.3,246.5c1,9.5-2.5,17.2-9.2,23.4c-2.1,1.9-4.9,2.8-7.1-0.3c-1.8-2.6-2.7-5.2,0.4-7.5
		C661.3,257.6,667.7,253.6,671.3,246.5z"/>
	<path class="st10" d="M656.3,299.7c-9.6,9.4-21.3,14.1-34.4,15.7c1.3-2.6,4.8-3.6,5.2-6.8c9.4-2.8,18.8-5.7,25.3-13.7
		C653.7,296.5,655,298.1,656.3,299.7z"/>
	<path class="st11" d="M690.2,286.5c-3.1,9.3-8.8,14.4-16,14.2c-2.7-0.1-6.6-0.1-6.7-2.9c-0.1-2.7,3.3-4.6,6.4-4.8
		C679.9,292.5,684.5,288.4,690.2,286.5z"/>
	<path class="st9" d="M737.7,474.7c6.6,3,12.4,7.2,16.7,12.8c6.1,7.9,11.1,16.4,12.6,26.7c0.5,3.3,1.1,5.8-2.5,6.9
		c-3.5,1-6.6,0-8.6-3.4c-1.8-3.1-2.4-6.7-2.7-9.9C751.9,494.8,746,484.4,737.7,474.7z"/>
	<path class="st9" d="M603,415.5c5.2,0.3,10.2-1.3,15.3-1.5c30-1.2,60.1-0.5,90.1-1.2c9.5-0.2,19.1-0.3,28.6-0.8
		c3.6-0.2,7,0.7,10.4,1.3c5.4,1,8.3,5.5,7.5,11c0,0.3-0.1,0.7-0.2,0.9c-1.3,3.3-1.9,8.2-4.3,9.6c-2.4,1.3-5.5-3.1-8.4-4.8
		c-8.6-5.2-18-8.1-28.1-9.2c-18.6-1.9-37.3-2.3-55.9-3.2c-11-0.5-22,0.2-33-0.8C617.7,416.2,610.4,416.2,603,415.5z"/>
	<path class="st9" d="M654.9,535.6c15.9-2,67.4,0.1,76.8,3.1c-3.7,3.9-8.4,2.8-12.1,2.1c-5.9-1.3-11.8-0.7-17.7-1.4
		c-11.6-1.5-23.4-1.5-35.1-2.2C663.2,536.8,659.5,536.2,654.9,535.6z"/>
	<path class="st9" d="M620.3,307.6c1.7-0.1,3.4,0,3.6,2.1c0.1,1.4-6.8,6.5-8.8,6.7c-2,0.1-2.9-1-2.8-2.9
		C612.3,310.7,616.4,307.7,620.3,307.6z"/>
	<path class="st12" d="M597,320.2c-1.5-0.2-2.2-1.3-2.2-2.9c0-2.2,5-6,7.5-5.7c1.3,0.1,2.1,0.8,2.1,2.2
		C604.3,316,599.4,320.3,597,320.2z"/>
	<path d="M584,238.4c0.9-0.2,1.9-0.2,2.7-0.5c6.1-1.8,7.9-0.9,10.1,5.2c-0.2,5.4-3.7,8.7-7.6,11.5c-4.1,3-8,6.5-12.9,8.4
		c-3,1.2-5.8,2.1-8.9,0.5c-4-2.8-4.1-3.7-0.9-9.7C570.4,246.6,577.1,242.4,584,238.4z"/>
	<path class="st10" d="M566.5,253.9c-0.4,3.3-2.7,6.8,0.9,9.7c-1.8,3.5-5.5,4.9-8.1,7.6c-4.8,4.9-10,9.6-14.1,15.2
		C548.9,273.3,557.9,263.7,566.5,253.9z"/>
	<path class="st9" d="M593.7,244.8c-0.1,3.5-4.5,8.4-7.4,8.2c-1.8-0.1-2.4-1.3-2.3-3c0-3.7,4-10,6.4-9.6
		C592.7,240.7,594,242.3,593.7,244.8z"/>
	<path class="st12" d="M575.2,253.1c0.3,1.6-0.5,3-1.3,4.4c-1,1.7-1.7,4.7-4.1,3.8c-2.5-0.9-1.6-3.9-1.1-6c0.3-1.4,1.1-2.6,1.9-3.8
		c0.7-1,1.4-2.4,2.9-2.1C575.3,249.8,575.2,251.5,575.2,253.1z"/>
</g>
</svg>
