<?xml version="1.0" encoding="utf-8"?>
<!-- Generator: Adobe Illustrator 23.0.1, SVG Export Plug-In . SVG Version: 6.00 Build 0)  -->
<svg version="1.1" id="Layer_4" xmlns="http://www.w3.org/2000/svg" xmlns:xlink="http://www.w3.org/1999/xlink" x="0px" y="0px"
	 viewBox="0 0 1000 1000" style="enable-background:new 0 0 1000 1000;" xml:space="preserve">
<style type="text/css">
	.st0{fill:#6E3720;}
	.st1{fill:#FB9A7A;}
	.st2{fill:#CBB89A;}
	.st3{fill:#E00000;}
	.st4{fill:#7F0000;}
	.st5{fill:none;}
	.st6{fill:#7A99AC;}
	.st7{fill:#B3F7F5;}
	.st8{fill:#2B5260;}
	.st9{fill:#FEFEFE;}
	.st10{fill:#C0FEFE;}
	.st11{fill:#7F7F7F;}
	.st12{fill:#00407F;}
	.st13{fill:#004080;}
</style>
<g>
	<path class="st0" d="M638.6,396.6c-8.3,4.4-16.8,7.4-26.4,4.9c-1.1-0.3-2.6-0.4-3.7,0.5c-9.1,6.7-19,6.1-29.1,3
		c-1.5-0.5-2.7-0.6-4.1-0.1c-13.9,4.7-24.5-2.9-31.9-11.6c-1.8-2.1-3.7-4-5.8-6.5c-0.9,4.3-0.9,8.3-1.1,12.1
		c-0.5,9.1-2.2,18.1-3.3,27.1c-1.1,9.1-3,18.1-4.6,27.2c-1.6,9.4-4.2,18.5-6.1,27.8c-3.1,15.3-7.8,30.2-12.7,45.1
		c-1.2,3.7-3,7.3-5.1,10.7c-2.1,3.4-5.6,4.3-9.3,3.1c-5.8-1.9-10.2-5.4-14.5-10.1c-10.8-11.7-17.8-25.5-24.3-39.7
		c-6.2-13.4-11.1-27.5-16.3-41.3c-5.1-13.6-8.4-27.6-10.2-41.8c-1.3-10.2-2.2-20.4-2.3-30.8c-0.1-14.9-4.1-28.6-11.4-41.7
		c-14-25.1-26.6-51-33.7-79.1c-3.2-12.6-5.4-25.4-4.5-38.4c1-14,7.5-25.4,18.3-34.7c13.9-12.1,30.5-18,47.9-21.6
		c8.5-1.8,17.5-2.7,26.3-2.3c0.8,2.7,1.3,5.5,0.1,8.2c-4,1.8-8.3,1.1-12.5,1.7c-16.1,2.3-31.4,6.9-45.9,14.4
		c-17.8,9.2-27.9,29.1-24.6,48.9c3.7,22.8,11.1,44.5,21.3,65.2c7.4,15,15.3,29.9,22,45.2c5.2,11.7,7.2,24.3,7.8,37
		c0.9,19.2,2.5,38.4,8,56.9c8.2,27.5,18.6,54.2,33.9,78.7c2.4,3.9,5.4,7.4,8.6,10.6c4.8,4.8,7.6,4.3,9.8-2.1
		c3-8.6,5.4-17.4,7.8-26.2c6.9-25.5,12.6-51.2,15.8-77.4c1.8-14.7,3.7-29.4,3.2-44.2c-0.4-13.1-2.8-25.9-7.6-38.1
		c-2.6-6.6-2.8-6.2-9.9-6.6c-8.5-0.4-16.8-2.3-25.1-3.9c-12.3-2.4-24.2-1.4-36.1,2.3c-1.9,0.6-4.4,2.2-5.8,0c-1.2-1.9,0.6-4,1.9-5.7
		c6.5-8.3,15.2-11.3,25.4-10.4c9.6,0.9,19,2.7,28.4,4.7c5.5,1.2,11,1,16.4-0.5c10.7-2.8,15.9-12.5,11.5-22.7
		c-2.6-6-2.1-10.8,0.8-16.5c10.7-21.5,17.3-44.2,19.1-68.2c0.6-7.6-2.5-14.3-7.2-20.3c0-4.1,2.5-6.3,6-7.6
		c10.2,8.1,12.2,18.6,10.9,31.1c-1.6,15.6-5,30.6-10,45.3c-2.8,8.4-5.9,16.7-10.4,24.3c-1.4,2.3-1.3,4.2-0.1,6.6
		c1.8,3.6,4,7.1,4.8,11.3c1.6,8.1-2,17.9-9.2,21.6c-3.9,1.9-4.9,3.7-2.3,7.5c1.5,2.1,2,4.9,2.9,7.1c3.7-19.3,14-33.5,32.6-40.7
		c6.7-2.6,14-2.2,21,0.2c8,2.8,16.3,2.9,24.6,3c8.1,0.1,15.9,1.7,21.4,8.7c3.6,4.6,5.3,10,6.4,15.6c1.6,1.9,1.3,4.2,1.1,6.4
		c-1.6,6.7-0.5,13,2.3,19.3c3.1,6.8,5.7,13.7,7.5,20.9c0.3,2.1,0.9,4.1,1,6.2c0.3,4.2-0.1,8.4-2.1,12.2
		C644.6,391.7,642.5,395,638.6,396.6z"/>
	<path d="M802.3,533.3c-5.1-7.5-19-10-27-8.4c-8.2,1.6-15.7,5.1-23.3,8.3c-1.3,0.6-2.5,1.5-3.7-0.2c-2.8-4.1-7.1-4.1-11.3-3.6
		c-2.2,0.3-3.1-0.3-3.6-2.4c-3.5-14.8-7.1-29.6-10.8-44.4c-0.8-3.1-0.7-4.9,3.1-5.1c3.1-0.2,5-2.3,6.7-4.8
		c7.7-11.3,8.9-23.8,6.8-36.8c-1.3-8.2-6-12-14.4-12c-5.5,0-11.1,0-16.6,0c-1.5,0-2.8,0.1-4-1.2c-6.3-6.9-14.5-9.9-23.3-11.5
		c-4.6-0.8-6-3.3-6.3-7.9c-0.7-9-2.4-17.9-3.6-26.8c-0.1-1.1-1-2.6,0.8-3.4c2.1-3.3,2.1-6.8,1.4-10.5c-0.1-0.1-0.3-0.2-0.4-0.3l0,0
		c-0.4-0.3-0.9-0.3-1.3,0c-6.8,5.1-14.6,6.6-22.8,6.8c-0.4,0-0.8,0.1-1.1,0.3c-0.4,0.2-0.7,0.5-1,0.7c0.3,2,0.6,3.9,1,5.9
		c0.4,0.3,0.8,0.5,1.3,0.7c2.9,1.3,6.1,0.7,9.1,0.2c3.5-0.5,5.3,0.6,5.6,4.1c0.8,8.4,1.7,16.8,2.6,25.1c0.3,2.8-1,3.9-3.5,4.2
		c-3,0.4-6.1,0.8-9.2,1.2c-5,0.7-5.9,0-6.3-5.3c-0.3-3.9,0-7.8-0.2-11.7c-0.1-1.8,0.3-3.7-0.9-5.2c-0.2-0.2-0.4-0.4-0.6-0.6
		c-2.3,2.6-4.5,5.2-6.8,7.8c0.4,2.2,0.3,4.4,0.9,6.6c2.2,8.3,0.2,12-7.4,15.7c-1.9,0.9-3.6,1.9-5.1,3.5c-5.2,5.5-11.6,7.8-19.2,7.4
		c-5.5-0.3-11.1-0.3-16.6,0c-6.2,0.4-12.4,2.2-13.2,10.1c-1,9.2-1.2,18.1,0.8,27.1c1.3,6,4,10.7,10,12.7c2.3,0.8,2.6,2.8,3,4.3
		c2.5,12.1,4.3,24.4,5,36.8c0.8,14.6-2.1,28.9-5,43.1c-1.8,9.1,2.4,15.1,11.5,15.2c15.5,0.1,30.9-1.1,46.4-2
		c12.6-0.7,25.2,0.9,37.8,1c10.8,0.1,21.5,0,32.2,0c6.1,0,12-0.7,17.6-3.3c0.9-0.4,1.8-0.8,2.7-0.4c4,1.7,8.3,1.9,12.3,3
		c10.6,2.9,21,1.8,31.2-0.5c8.3-1.8,16.3-5.6,20.9-13C810.8,553.5,810.5,545.5,802.3,533.3z M742.5,554.1c3.8-0.4,5.7-3.4,8.5-5
		c9.4-5.3,19.5-9.4,30-11.9c5-1.2,10.7,3.7,13,9.2c2.2,5.4-1,9.5-6.9,13.1c-7.2,4.3-15.5,5-23.2,6.1c-6.4-0.4-12.2-2.1-17.9-3.7
		c-2.4-0.6-3.5-2.6-4.5-4.6C740.8,555.9,741.2,554.2,742.5,554.1z"/>
	<path class="st0" d="M671.8,373.1c-0.1-3.6,0.2-7.3,1-10.8c-1.6-2.1-0.3-4.1,0.1-6.1c1.4-7.6,4.1-15.2,0.5-22.9
		c-0.5-1-0.5-2.2,0.3-3.2c-7.9-18.9,11.5-37.7,26.2-39c7.9-0.7,14.5-5.3,21.5-8.3c14.5-6.3,27.4-2.4,39.2,6.1
		c9.3,6.7,17.1,15,21.5,25.9c4,9.7,5.4,19.6,4.1,30.2c-1.4,11.6-5.6,21.7-12,31c-4.8,7.1-11.6,11.7-19.7,14.5
		c-2.6,0.9-4.6-1.5-7-0.6c-3.1,1.1-6.3,2-9.2,3.7c-5.8,3.5-11.9,4-18.2,1.2c-3.4-1.5-6.6-0.8-10,0.7c-6.7,2.8-13.6,4.1-20.9,2.2
		c-7.1-1.9-15.9-11.4-16.4-18.9C672.8,376.7,672.1,375,671.8,373.1z"/>
	<path d="M470.6,166.1c-0.4-2.7-1.7-5.3,0-8c1.6-8.2,4.7-10,12.7-8.8c8.4,1.3,14.4,5.7,18.8,12.7c4,2.3,5.4,6.6,7.8,10.1
		c0.9,1.8,1.5,3.6,2.1,5.5c2.6,8.4-0.6,14.2-9.9,17.5c-9.2,3.2-16.5-0.1-22.7-6.8c-1.2-1.7-2.3-3.6-3.4-5.4
		c-0.7-1.3-1.5-2.4-2.3-3.6C472,175.1,468.6,171.2,470.6,166.1z"/>
	<path d="M544,181.6c-2,2.3-4,4.5-6,6.8c-0.7,1.6-2.4,2-3.7,2.8c-1.2,0.6-2.5,1.1-3.8,1.6c-1.8,0.6-3.7,1-5.6,1.5
		c-4.2,0.5-6.4-2.2-8.3-5.2c-2.1-4.9-1.3-10-1.4-15.1c0-3.2-0.4-6.5,2.2-9c0.6-5.2-0.2-10.9,5.8-14c5.3-2.7,11.9-0.6,15.8,5.1
		c4.8,7.2,7.4,14.8,4.9,23.5C543.8,180.2,544,180.9,544,181.6z"/>
	<path d="M673.8,330c4.4,8.8,2.7,17.6,0.2,26.4c-2.3-2.6-2.1-6-2.6-9.1c-2.1-13.7-10-18.7-25.2-17.3c-3.1,0.3-6.3,1.9-9.4,0.1
		c0-2.3,0-4.6,0-6.9c8.8-1.3,17.6-3.3,26.5-0.1C667.5,324.6,670.1,328,673.8,330z"/>
	<path class="st0" d="M517.5,165c-0.9,2.9-0.9,6-1,9c-3.1,1.2-5.5,0-7.7-2c-2.3-3.3-4.5-6.6-6.8-9.9C507.2,163,512.3,164,517.5,165z
		"/>
	<path class="st1" d="M508.8,171.9c2.6,0.7,5.1,1.4,7.7,2c0.4,5.1-0.5,10.3,1.1,15.4c-0.5,7.8-3,15.3-4,23
		c-2.2,17.8-3.8,35.6-3.4,53.5c0.1,5,0.7,10.1,1.5,15c0.4,2.7,0.9,6.2,4.2,6.4c2.7,0.2,3.5-3.1,4.5-5.2c5.1-10.8,8.3-22.3,11.2-33.8
		c3.2-12.5,4.9-25.2,5.9-38c0.4-5.6,0.1-11.1-2.6-16.2c-0.6-1.1-1.3-2.3-0.9-3.7c1-1.2,2.4-1.8,4-2.1c7.1,6.6,8.8,14.7,8.1,24.3
		c-1.3,16.3-5.6,31.8-10.9,47.1c-2.5,7.1-5.2,14.2-9,20.7c-2.3,3.8-2.9,7.4-0.6,11c7.8,12.1-1,27.5-18.8,27.9
		c-8,0.2-15.5-2.5-23.3-3.3c-8.8-1-17.3-3.8-26.5-0.9c-7.5,2.4-11.8,7.1-15.8,13.9c7.8-1.7,14.8-3.9,22-5.1c8.3-1.3,15.9,1,23.8,1.7
		c6.7,0.6,13.2,2.2,19.8,3.4c0.6,0.1,1.4,0.2,1.9,0c6.8-3.1,8.7,2,10.6,6.6c3.7,9.2,5.7,18.9,7.1,28.8c1,7.3,1.5,14.6,0.7,21.8
		c-1.7,16.4-2.8,32.9-5.5,49.3c-4,23.7-9.3,47-15.9,70.1c-2.1,7.3-3.5,14.9-7.1,21.9c-1.5,2.9-3,3.2-5.7,1.8c-5.6-2.8-9-8-12.3-12.8
		c-12.7-18.5-20.2-39.6-28.5-60.3c-7.1-17.8-10.7-36.4-12.9-55.4c-1.3-10.9-0.9-21.9-2.7-32.7c-1.7-10.3-3.7-20.3-8.5-29.8
		c-9.2-18.2-18.2-36.6-26.5-55.2c-7.7-17.3-13.4-35.4-15.5-54.2c-1.8-16.6,3.9-31.1,17.3-41.7c13.8-10.9,30.2-15.8,47.2-19.1
		c6.6-1.3,13.3-2.6,20.1-1.9c0.1,4.9,2.7,8.9,4,13.4c-1.3,2-3.6,2.1-5.6,2.6c-5.1,1.3-9.9,3.2-14.5,5.6
		c-10.4,5.6-16.1,15.8-14.5,27.5c2.3,18,7.7,35.2,16.2,51.3c3.3,6.3,6.7,12.6,11.3,18.2c3.4,4.1,7.5,7.2,12.5,8.9
		c4.1,1.4,7.6,0.5,10.6-2.7c5.1-5.5,8.4-11.9,10.3-19.1c4.3-16.5,5.4-33.2,3.9-50.2c-0.8-9.2-2.6-18.3-3-27.6
		c9.3-3.9,11.2-8.3,7.9-18.2C509.4,174.7,509.2,173.3,508.8,171.9z"/>
	<path class="st1" d="M612.6,376.4c-1.5,7.6-5.4,12.6-9.8,17.3c-4.4,4.7-11.8,5.8-17.6,2.8c-4.4-2.3-8.6-4.1-13.4-0.5
		c-1.7,1.3-4.3,1.9-6.8,0.5c-11.9-6.7-22.6-14.7-26-28.7c-4.2-17.2-0.4-33.2,8.8-48.1c6.2-10,15-15.4,26.7-14.8
		c5.8,0.3,11.6,2.3,17.3,3.9c3.6,1,6.9,0.5,10.4,0.1c16.1-1.8,27,10.6,24.2,25.5c-1.3,6.6-1.3,12,2.2,17.8c4,6.6,6.3,13.9,7.9,21.5
		c1.9,9.2-7.3,20.3-16.7,19.7c-2.4-0.1-4.8-0.7-4.8-4.5C615.1,385.2,614.5,381.3,612.6,376.4z"/>
	<path class="st2" d="M636.8,330.1c6.4-0.3,12.4-2.4,19.2-1.3c11.2,1.8,15.2,8.9,16.9,18.6c0.5,3,0.8,6,1.1,9
		c-0.4,2-0.8,3.9-1.2,5.9c-7.3,7.4-16.7,8.2-26.3,7.8c-2.5-7.9-5.3-15.6-8.6-23.2C635.6,341.6,634.5,335.9,636.8,330.1z"/>
	<path class="st2" d="M647.5,376c4.2-0.3,8.3,0.4,12.5-0.9c4.8-1.5,4.7,3,4.9,5.4c0.9,9.2,1.5,18.5,3,27.6c0.3,1.7,0.1,2.7-2.3,3.2
		c-5.8,1.3-11.7,0.9-17.4,2.7c-1.6,0.5-1.5-0.9-1.8-2.1c-1.8-7.7-0.4-15.5-1.1-23.2C647,384.6,647.9,380.4,647.5,376z"/>
	<path class="st3" d="M711.8,480.6c3.9,15.4,7.8,30.9,11.7,46.3c1.5,6,0.5,7-5.8,7.3c-5.9,0.3-11.6-0.9-17.4-1
		c-6.2-0.1-12.4-0.1-18.5-0.2c-10.9-0.2-21.7,0-32.6,0.4c-10.5,0.4-21.1,0.9-31.6,2c-6.2,0.6-9.1-2.7-8.4-8.9c0.4-3.2,1-6.4,1.6-9.6
		c2.8-14.4,11.1-23.8,25.1-28.4c10.9-3.7,22.1-5.3,33.4-6.5c12.3-1.2,24.6-1.6,36.9-2.7C708.3,479.1,710.2,479.2,711.8,480.6z"/>
	<path class="st3" d="M624.1,437.6c15.5-0.9,31.1-0.8,46.6-1.3c14.7-0.5,29.5-0.8,44.2-0.8c2.4,0,4.7,0.1,7.1,0.8
		c4.9,1.5,7.3,3.9,6.4,8.8c-1,5.1-1.2,10.4-3.5,15.3c-3,6.4-3.8,7.6-10.4,6.1c-5.7-1.3-11.6-0.1-17.2-1.9c-13.5-2-27.1-2.1-40.6-3.4
		c-16-1.6-31.7,0.8-47.6,1.9c-3.1,0.2-6.2-0.1-9.1-1.2c-5.6-2.1-7.8-5.2-7.6-10.5c0.2-5.6,3.3-9.6,8.7-10.9
		C608.6,438.7,616.4,438.2,624.1,437.6z"/>
	<path class="st4" d="M711.8,480.6c-12.4,1-24.8,1.5-37.1,2.6c-8.7,0.7-17.4,1.5-25.9,3.3c-8.5,1.8-16.8,4.2-24.2,9.4
		c-7.3,5.2-10.1,12.8-12.2,20.8c-0.7,2.8-0.9,5.7-1.5,8.6c-1.6,7.2,0.6,9.7,7.9,9c13.2-1.4,26.4-2,39.7-1.9c6.7,0,13.3,0,20,0
		c1.1,0,2.3-0.2,3.2,0.8c-15.5,0.7-31,1-46.5,2.2c-8.3,0.6-16.7,0.8-24.9,2.6c-4.6,1-5.2,0.2-4.9-4.5c0.7-11.5-0.6-22.9-2.3-34.3
		c-0.8-5.4-2-10.7-3.1-16.1c-0.3-1.6-0.2-2.5,1.6-2.7c12-1.2,23.7-4.1,35.8-5c10.5-0.8,20.9-2.5,31.4-1.7c13.1,0.9,26.4,1,39.4,3.6
		C710.3,477.8,711.3,478.7,711.8,480.6z"/>
	<path class="st3" d="M697.4,549.7c5.4,0,10.7,0.5,16,0c5.7-0.5,10.7,1.7,15.8,3.4c2.2,0.7,3.4,2.5,3.2,4.8
		c-0.4,3.6-1.6,6.9-5.2,8.6c-2.6,1.2-5.4,1.9-8.3,1.9c-14.1,0-28.3,0.7-42.3-0.2c-12.6-0.9-25.2-0.5-37.8-0.6
		c-2.6,1-5.2,0.1-7.6-0.4c-3.9-0.8-4.9-4.2-2.3-7.4c2-2.5,4.9-3.6,7.9-4.5c8.6-2.7,17.5-3.5,26.3-4.1c10.1-0.7,20.3-2.1,30.5-1.7
		C694.8,549.4,696.1,549.1,697.4,549.7z"/>
	<path class="st5" d="M787.1,559.5c-7.2,4.3-15.5,5-23.2,6.1c-6.4-0.4-12.2-2.1-17.9-3.7c-2.4-0.6-3.5-2.6-4.5-4.6
		c-0.7-1.4-0.3-3.1,1-3.2c3.8-0.4,5.7-3.4,8.5-5c9.4-5.3,19.5-9.4,30-11.9c5-1.2,10.7,3.7,13,9.2
		C796.2,551.8,793.1,555.9,787.1,559.5z"/>
	<path class="st3" d="M644.6,538.2c18.2-1.4,36.5-2.2,54.7-2c4.6,0.1,9.2,0.9,13.8,1.6c1.4,0.2,3.4,0.1,2,2.9
		c-1.2,2.2,0.9,4.2,2,7.2c-7.4-1.7-14.4-0.5-21.3-1.3c-8.2-1-16.4-1.2-24.6,0.1c-5.4,0.9-11,0.6-16.4,0.8
		c-11.9,0.5-23.8,2.3-35.7,2.2c-2.6,0-5.2-0.5-5.3-3.6c-0.1-2.8,2.3-3.9,4.5-4.3c7.6-1.6,15.2-2.6,22.9-3.2
		C642.4,538.5,643.5,538.8,644.6,538.2z"/>
	<path class="st4" d="M624.1,437.6c-7.2,1.4-14.6,1.6-21.7,3.7c-5.2,1.6-8.1,4.5-8.6,9.2c-0.6,6.8,3.3,11.3,11.4,11.2
		c10.8-0.2,21.6-1.3,32.3-2.3c4.5-0.4,8.9-0.5,13.5,0.1c7,0.8,14.2,0.7,21.3,1.4c8.4,0.8,17,1,25.1,3.7c-5.7,1-11.3-0.8-16.9-0.9
		c-16.7-0.3-33.3,1-49.9,2.3c-10.3,0.8-20.8,1.6-31,4.5c-7.6,2.2-12.7-1.6-13.5-9.6c-0.5-5,0.3-10,1.2-14.9c0.9-4.3,4.8-5.9,8.4-6.2
		C605.1,438.9,614.5,437,624.1,437.6z"/>
	<path class="st4" d="M697.4,549.7c-20.3,0.9-40.5,2.2-60.4,6.9c-3.9,0.9-8.6,2.4-8.5,6.6c0.1,4,5.4,2.9,8.3,4.1
		c0.6,0.2,1.3,0.1,1.9,0.2c-0.7,0.3-1.4,0.8-2.2,0.8c-9.9-0.1-19.7,0.3-29.6,1c-5.9,0.4-6.7-0.9-5.6-6.7c0.2-1.1,0-2.3,0.2-3.4
		c0.5-2.6,1.3-4.3,4.8-4.6c16.8-1.3,33.6-3.2,50.5-3.9c11.9-0.5,23.8-1.9,35.7-1.8C694.3,548.9,696,548.3,697.4,549.7z"/>
	<path class="st6" d="M802.8,544.9c3.7,9.4,0,18.3-9.3,23.7c-6.5,3.8-13.5,5.3-20.9,5.8c-8.7,0.8-17.2-0.6-25.5-3
		c-1.8-0.5-3.8-1.1-4.8-3c-0.4-3.1,0.3-4.1,3.8-3c6.9,2.1,14,3.5,21.2,3c8.9-0.6,17.6-2.3,24.9-8.3c7.6-6.3,7.2-12.2,1.7-20.5
		c-0.8-1.2-1.9-2.2-2.8-3.3c2.3-1.4,3.7,0.5,4.9,1.8c5.7,5.8,5.9,12.6,3.8,19.3C802.2,553.9,800.3,548.8,802.8,544.9z"/>
	<path class="st2" d="M697.9,425c-12.4-1-23.3,1.1-34.4,1.9c-11,0.7-22,2-33.3,1.8C637.9,418.7,685.1,415.7,697.9,425z"/>
	<path class="st7" d="M802.8,544.9c0.3,6.3-0.2,12.4-5.7,17.7c5.7-16.5,0.7-23.9-6.1-26.5c-1.6-0.6-3.2-1.3-4.9-1.9
		c-5.3-1.7-10.1,0.5-15.1,1.6c-4.6,1-8.9,2.8-13.4,4.2c-1.5,0.5-3.6,1.5-4.4-0.1c-1-2,1.6-2.3,2.7-3.3c0.6-0.5,1.3-1,1.9-1.5
		c7-3.4,14.5-5.7,21.9-6.2C790.7,528.2,799.4,531.3,802.8,544.9z"/>
	<path class="st8" d="M738.4,534.2c4.7,0,6.4,2.1,4.8,5.4c-1.3,2.7-1.3,4.8,0.7,7.1c0.5,0.6,1.4,1.7,0.6,2.6
		c-0.4,0.5-1.5,0.5-2.3,0.4c-6-1.1-12-1.9-17.8-3.9c-1.9-0.7-4.5-1.4-4.5-3.8c0-1.9,2.2-3,3.8-4C728.7,535,734.2,535.6,738.4,534.2z
		"/>
	<path class="st4" d="M644.6,538.2c-7.3,1.3-14.5,2.5-21.8,3.8c-0.9,0.2-1.9,0.2-2.8,0.6c-2,0.8-5.1,0.6-5.3,3.4
		c-0.2,2.6,3,2.5,4.5,3.7c-4.3,2.3-9.3,0.2-13.7,2c-0.4,0.2-1.3-0.3-1.6-0.7c-1.4-1.8,1.5-9.7,3.7-9.7
		C619.9,540.8,632.1,537.7,644.6,538.2z"/>
	<path class="st6" d="M757.8,535.1c-0.6,2.2-3.2,2.6-4.8,4.8c6.1-1.8,11.6-3.8,17.3-5c5.2-1.1,10.5-3.2,15.8-0.7
		c-12.2,0.3-22.9,5.5-33.8,10c-1.5,0.6-3.2,3.1-4.8,0.4c-1.3-2.2,0.1-4,1.9-5.3C751.9,537.4,754.7,535.9,757.8,535.1z"/>
	<path class="st8" d="M742.2,568.3c9.8,3.6,19.9,5.6,30.3,6c-3.8,1.8-7.9,1-11.8,0.7c-5.7-0.4-11.4-1.1-16.9-2.8
		C741.7,571.6,740.2,570.7,742.2,568.3z"/>
	<path class="st1" d="M707.5,372.3c-1.2,3.9-2,7.3-0.5,10.8c0.9,2.1-0.4,3-2.1,3.8c-8.8,4.2-19.5-1.6-22.5-11.5
		c-1.9-6.3,0.7-11.8,2.3-17.3c3.3-11,3.3-21.4-1.7-31.7c-4-8.3,1.8-16.4,8-19.7c7.6-4,16.2-5,23.9-8.7c5.2-2.5,10.5-4.9,15.9-6.8
		c8.5-3,16.1,0.9,22.6,5.3c15.7,10.7,23.1,26.5,23.6,45.2c0.3,10.5-5,19.7-10.9,28.3c-4.4,6.4-10.1,10.1-18,10
		c-4.4,0-7.7,2.9-11.5,4.7c-10.1,4.9-22.1,1.1-27.4-8.9C708.8,374.8,708.3,373.8,707.5,372.3z"/>
	<path class="st9" d="M501.9,194.2c3.1,6.3,3.1,13.4,3.7,20.1c0.9,9.5,2,19,1.1,28.6c-1.2,13.7-2.3,27.5-8.7,40.2
		c-1.4,2.8-3.3,5.2-5.2,7.5c-4.8,5.9-8.6,6.6-15.7,3.6c-8.7-3.7-13.2-11.4-17.8-19c-9.6-15.7-15.2-32.9-19.4-50.6
		c-1.9-8.2-1.8-16.3,0.9-24.2c3-8.9,10.7-12.9,18.6-16.5c4.8-2.2,10-3.4,15.2-4.4c1.2,0.6,2.1,1.5,2,3c-1.2,1.6-3,1.8-4.7,2.3
		c-2.3,0.7-4.7,1.2-7.1,1.9c-16.2,5.1-22.3,14.5-19.9,31.4c2.6,18.4,9.1,35.5,17.9,51.9c2.8,5.2,5.6,10.2,9,13.6
		c-10.1-20.3-16.2-43-17.7-66.6c-1-16.4,8.7-26.5,23.1-30.1c0.8-0.2,1.6,0,2.3,0.5C485.9,193.5,492.9,197.1,501.9,194.2z"/>
	<path class="st10" d="M479.6,187.4c-10.9,2.9-19.6,8.1-23.2,19.7c-2,6.6-0.9,13.2,0,19.7c2,15.3,5.9,30.1,11.4,44.5
		c2.2,5.8,5.4,11,7.3,17c-3.9-2.8-6.9-6.5-9.3-10.4c-9.8-15.9-16.4-33.1-20.8-51.1c-1.9-7.7-2.3-15.6-0.6-23.5
		c2-9,8.3-13.6,16.3-16.5c5.2-1.9,10.5-3.3,15.9-4.2C477.5,184.2,479.5,185.3,479.6,187.4z"/>
	<path class="st11" d="M488.6,156.6c9.1,3.4,14,10.5,17.9,18.6c0.8,1.6,0.5,3.3-1,4.3c-1.6,1.2-3.1,2.9-5.6,1.6
		c-2-1-3.8-2.2-4.2-4.3C494.2,169.8,491.7,163.2,488.6,156.6z"/>
	<path class="st9" d="M534.1,190.4c5,5.9,5.5,12.9,4.9,20.1c-1.1,14.2-3,28.4-7,42.1c-3.5,11.9-6.3,24.2-13.1,35
		c-2.3,3.6-3.8,2.4-5.9,0.3c-2.3-2.4-2.9-5.5-3.1-8.4c-0.9-12.4-1.8-24.7-0.4-37.2c1-8.6,1-17.4,2.2-25.9c1.3-9.1,1.7-18.5,5.8-27
		c2.5,1.5,3.8,5.2,7.7,4c4.1,2.8,4.8,7.5,4.9,11.6c0.6,16.5-0.7,33-4.7,49.1c-0.2,0.8-0.7,1.5-1.4,1.9c-3.1-1.2-1.8-3.7-1.6-5.7
		c0.5-5.2,1.2-10.3-0.3-15.4c-0.5-1.8-1-4.3-3.3-4.2c-2,0-3.2,2-4,3.8c-1.3,2.8-1.8,5.9-1.8,9c0,5.5-0.8,11,0.5,16.5
		c0.4,1.5,0.3,3.6,2.3,3.9c1.7,0.3,3-0.9,4-2.3c0.7-0.9,1.1-2,2.6-1.8c1.6,2,0.7,4,0.1,6c-1.5,5.1-3.5,10-5.3,14.1
		c9.4-20.1,13.5-42.3,15.8-65c0.8-8.2-0.3-15.7-2.9-23.2C531.6,191.2,532.8,190.8,534.1,190.4z"/>
	<path class="st10" d="M523.4,255.8c2.6-5.4,3-11.4,3.8-17.2c1.1-8.1,1.5-16.4,2.1-24.6c0.6-7.3-1.1-14.1-4-20.7
		c1.3-1.7,3.5-0.5,5-1.7c4.8,6.2,5.5,13.1,4.3,20.6c-1.4,9.2-1.9,18.6-3.5,27.8c-2.7,15.2-6.9,30-15.1,43.3
		c1.2-8.1,5.8-15.3,6.4-23.6C521.4,258.1,521,256.6,523.4,255.8z"/>
	<path class="st11" d="M531.8,155.1c8.2,6.4,10.6,12.7,8.2,20.6c-0.8,2.6-2.3,6-5.1,5.5c-2.8-0.6-3.4-4.5-2.4-7
		C534.7,168,534.1,162.1,531.8,155.1z"/>
	<path class="st9" d="M710.9,492.8c3,11.3,4,23,9.3,33.6c1.2,2.4,1,5-1.6,6.3c-2.4,1.2-4.2-0.9-5.4-2.6c-2.1-3-1.9-6.7-2.1-10.1
		C710.6,510.9,710.9,501.8,710.9,492.8z"/>
	<path class="st9" d="M722.2,457.5c-7.5-9.9-17.5-12-28.2-13.2c-11.9-1.4-23.7-1.6-35.6-2.1c-5.4-0.2-11.1,0.1-16.5-2.3
		c0.5-0.2,0.7-0.4,1-0.4c13.9,0.6,27.8-1.6,41.7-1c9.7,0.4,19.3-1.4,29-1c8.8,0.4,12.1,4.3,10.1,12.8
		C723.2,452.3,722.8,454.5,722.2,457.5z"/>
	<path class="st9" d="M671.4,538.4c12.1-0.1,24.2-1.1,36.2,0.8c1.4,0.2,4.2,0.2,4.1,2.1c-0.1,2.2-2.7,1.9-4.4,1.7
		C695.3,541.1,683.2,541.4,671.4,538.4z"/>
	<path d="M504.9,240.5c-0.7,6.9-0.9,13.2-2.2,19.3c-0.6,3-1,7.8-5.7,7.6c-4-0.2-6.5-3.9-7.5-7.3c-2.2-7.3-1.9-14.8-0.1-22.3
		c0.8-3.3,6.3-7.7,8.6-7.4C501.7,231,504.9,236.1,504.9,240.5z"/>
	<path d="M523.4,255.8c-1.8,0.9-0.5,2.6-1,3.9c-1,0.3-0.7,1.2-1,1.9c-0.9,2.5-3.1,3.9-5.5,3.8c-2.3,0-2.9-2.1-3.4-4.4
		c-1.7-8.6-1.1-17.1,0.2-25.7c0.4-2.8,2.7-4.9,4.9-6.3c2.8-1.8,3.8,0.8,4.9,2.8c3,5.6,2,11.6,1.5,17.4
		C523.9,251.3,523.7,253.6,523.4,255.8z"/>
	<path class="st9" d="M502.9,241.9c0,2,0.6,4.2-1.5,5c-2.1,0.9-3.1-1.2-4.4-2.3c-2-1.7-3.1-4.1-3.8-6.4c-0.7-2.2,1.7-3.4,3.1-4.4
		c2-1.4,3.1,0.7,4.3,1.9C502.6,237.5,503.2,239.7,502.9,241.9z"/>
	<path class="st12" d="M490.2,257.8c0-2.3,0.6-4.3,2.6-3.7c3.4,0.9,5,3.8,5.2,7.3c0.1,1.5-0.4,3.4-2.2,2.9
		C492.4,263.5,490.5,260.9,490.2,257.8z"/>
	<path class="st9" d="M522.4,240.4c-0.3,1.5,0.8,5-2.1,4.4c-2.8-0.6-4.8-3.6-4.7-7c0.1-2.8,1.6-6.6,4-5.9
		C522.8,232.7,522.5,236.9,522.4,240.4z"/>
	<path class="st13" d="M519.4,257.4c0.4,2.7-0.6,4.4-2.4,4.9c-2.2,0.6-2.2-1.8-3.1-3c-0.2-0.2-0.3-0.6-0.2-0.9
		c0.4-2.4-1.4-6.4,1.5-6.8C518.6,251.2,518.4,255.6,519.4,257.4z"/>
</g>
</svg>
