<?xml version="1.0" encoding="utf-8"?>
<!-- Generator: Adobe Illustrator 23.0.1, SVG Export Plug-In . SVG Version: 6.00 Build 0)  -->
<svg version="1.1" id="Layer_4" xmlns="http://www.w3.org/2000/svg" xmlns:xlink="http://www.w3.org/1999/xlink" x="0px" y="0px"
	 viewBox="0 0 1000 1000" style="enable-background:new 0 0 1000 1000;" xml:space="preserve">
<style type="text/css">
	.st0{fill:#6E3720;}
	.st1{fill:#FB9A7A;}
	.st2{fill:#CBB89A;}
	.st3{fill:#E00000;}
	.st4{fill:#7F0000;}
	.st5{fill:none;}
	.st6{fill:#7898AB;}
	.st7{fill:#800000;}
	.st8{fill:#B0F3F2;}
	.st9{fill:#2B5260;}
	.st10{fill:#FEFEFE;}
	.st11{fill:#C0FEFE;}
	.st12{fill:#7F7F7F;}
	.st13{fill:#00407F;}
</style>
<g>
	<path class="st0" d="M636.6,403.4c-8.4,4.5-17.1,7.5-26.9,4.9c-1.6-0.4-3.4-0.2-5.1,0.8c-8.3,5.3-17.2,6.3-26.4,2.9
		c-3.5-1.3-6.8-0.6-9.8,0.3c-7.2,2.2-12.8-1-18.3-4.4c-4.6-2.8-9-6-12.7-11c0.6,8.2,1.2,15.4-0.2,22.7c-0.9,4.9-0.4,9.9-1,14.9
		c-1.7,14.4-3.2,28.9-4.8,43.3c-1.2,10.8-1.3,21.9-2.4,32.7c-1.1,10.7,1,20.1,5.6,29.3c1.5,3.1,3.1,6.1,3.9,9.6
		c2.7,11.5-3.4,17.6-13,19.5c-18.7,3.9-37.7,2-56.6,2c-5,0-10.2-0.8-15.1-2.1c-11-2.8-17.4-15.1-11-27.7c4-7.8,6.1-15.8,5.4-24.4
		c-0.6-7.4-2-14.8-4.3-21.9c-3.3-10.4-7.2-20.6-10.1-31c-2.7-9.9-4.2-20.2-5.2-30.5c-1.6-15.8-1.3-31.9-5.7-47.5
		c-2.2-7.7-6.2-14.5-9.7-21.6c-9.8-19.8-20.2-39.5-27.4-60.5c-3.4-9.9-5.9-20-6.9-30.5c-0.4-4.3-1.7-8.5-1.8-12.7
		c-0.4-12.2,2-23.8,9.5-33.7c10.3-13.5,24-22.2,39.9-27.2c9.3-3,18.9-5.4,28.8-5.9c4.8-0.2,9.6-1,14.4-0.6c1.8,2.7,2,5.7,1.2,8.8
		c-5.7,2.3-11.8,1.4-17.7,2.1c-18.9,2.2-36.3,8.5-51,20.4c-12,9.6-16.3,23.4-14.6,38.5c2.9,25,11.7,48.3,22.6,70.8
		c7,14.5,14.9,28.5,21,43.5c4.4,10.9,5.8,22.4,6.5,33.9c1.4,23.8,5.2,47.2,13,69.8c3.7,10.6,6.4,21.5,8.7,32.5
		c1.9,9.2-0.2,17.8-3.7,26.1c-1.1,2.5-2.5,4.9-3.6,7.5c-2.4,6.1-0.8,9.5,5.5,11.6c5.6,1.8,11.5,2.6,17.3,2.9c13,0.5,26,1,38.9-1.3
		c1.9-0.3,3.8-0.7,5.7-1.2c8-2.2,10.2-6.1,6.2-13.3c-8.6-15.4-8-31.8-7-48.5c0.8-14,2.1-27.9,3.3-41.8c1.2-13.4,1.9-26.9,2.7-40.4
		c1-16.3-3-31.9-8.5-47.2c-0.7-1.8-1.8-3.1-3.9-2.9c-8.9,0.8-17.5-1.5-26-3.3c-13.6-3-26.8-2.1-40,1.9c-1.9,0.6-4.5,2.1-5.8-0.1
		c-1.1-1.9,1.1-3.9,2.4-5.4c7.6-8.5,17.3-11.9,28.5-10.7c9.5,1.1,19,2.9,28.4,4.7c6,1.2,11.7,0,17.2-2c7.2-2.6,12.1-12.7,9.1-20.3
		c-2.9-7.4-2.3-13.8,1.2-20.9c9-18.1,13.3-37.6,16.9-57.4c2-10.6,0.3-20-6.3-28.5c0.2-3.8,2.8-5.5,6-6.7c9.8,8.4,12.7,18.5,11,31.5
		c-2.4,19.5-8,37.9-14,56.4c-1.6,4.8-3.8,9.3-5.9,13.9c-0.8,1.7-1.8,3.6-0.1,4.7c2.4,1.7,2-1.5,2.9-2.4c9-9.1,19.2-15.5,32.4-16.2
		c4.4-0.2,8.4,1.5,12.6,2.4c5.6,1.3,11.1,2.8,16.9,2.5c20-1,29.3,4.6,35.1,23.4c1.5,1.9,1.3,4.2,1.1,6.4c-2.2,8.2,0.3,15.7,3.7,22.9
		c2.3,5,4.4,10,6,15.3c0.3,2,0.9,4,1,6.1c0.1,4.5-1,8.6-3.2,12.5C641.5,398.8,640.2,402.3,636.6,403.4z"/>
	<path d="M808.6,547.9c-2.3-16.5-19.9-23-32.1-21.1c-8.9,1.4-16.9,5.4-25.2,8.7c-1.2,0.5-2.3,1.3-3.2-0.3c-2.8-4.6-6.7-4.8-11.2-3.2
		c-2.3,0.8-3.2-0.2-3.9-2.5c-4.5-14.7-8.4-29.6-11.4-44.7c-0.4-1.9,0-2.3,1.8-2.8c3-0.8,6.4-1.2,8.2-4.2
		c6.8-11.6,11.2-23.8,7.1-37.4c-1.5-5.1-4.3-9.1-10.6-10.1c-3.4-0.5-6.7-0.5-10-0.6c-6.7-0.3-13.3,0.8-19.4-4.5
		c-5.5-4.6-13-6-20.1-7.3c-3.1-0.5-4.9-1.9-5.4-5c-1.4-9.9-2.9-19.8-4.3-29.6c-0.2-1.6,0.1-2.9,1.9-3.4c1.9-3.6,2.8-7.4,1.5-11.5
		c-0.2-0.2-0.3-0.3-0.5-0.3c0,0,0,0,0,0c-0.8-0.4-1.4,0.3-1.9,0.9c-3.4,4.7-8.3,6.1-13.7,7c-3.5,0.6-7.3-0.3-10.7,1.3
		c-0.3,0.2-0.7,0.4-1,0.6c0.3,2,0.6,4,1,5.9c0.4,0.3,0.8,0.5,1.2,0.7c2.6,1.2,5.5,0.6,8.2,0.4c5.7-0.5,5.9-0.4,6.7,5.4
		c0.9,6.1,1.7,12.2,2.6,18.3c1.2,8.1,1,8.2-6.9,9c-2.3,0.2-4.5,0.6-6.7,1c-3.6,0.6-5.1-0.8-5.5-4.3c-0.4-4.2-0.1-8.5-0.3-12.7
		c-0.1-1.8,0.4-4-1.6-5c-0.2-0.1-0.4-0.2-0.6-0.3c-2,2.3-4,4.7-6.1,7c0.4,2.4,0.4,4.7,0.9,7.1c0.7,3.6,0.8,7.6-0.3,11.1
		c-0.7,2.5-4.7,2.1-6.9,3.5c-1.2,0.7-2.5,1.4-3.5,2.4c-6.3,6.4-14,8.8-22.9,8.2c-5.2-0.3-10.4-0.1-15.6,0
		c-7.6,0.1-10.6,2.3-12.9,9.3c-2.3,6.9-1.7,14.2-0.9,21.1c0.9,7.6,3.2,15.4,12,18.3c1.6,0.5,1.1,1.6,1.5,2.6
		c4.7,11.6,4.8,23.9,5.6,36c0.9,13.8-1.7,27.3-4.8,40.7c-2.3,9.9,2.1,15.6,12.2,15.6c15.3,0.1,30.6-1.3,45.9-1.9
		c11.8-0.5,23.6,0.2,35.4,0.8c11,0.5,22.1,0.1,33.2,0.1c7.2,0,14.4,0.1,20.9-3.5c1.4-0.8,2.3,0.2,3.5,0.5c7.5,2.2,15.2,3.4,22.8,3.9
		c11.9,0.7,23.2-2.3,33.7-7.9C806.2,566,810.1,558.5,808.6,547.9z M744.6,554.6c1.2-0.1,2.6-0.6,3.4-1.4c9.5-8.8,22.1-10,33.6-14
		c4.3-1.5,11.5,3.6,13.2,8.3c1.3,3.5-1.8,9.6-5.8,12.1c-7.6,4.8-16.3,5.3-25,7c-6.4-1.1-12.9-2.1-19.4-3.4c-2.8-0.6-3-3.3-3.3-5.6
		C740.9,555.3,742.5,554.7,744.6,554.6z"/>
	<path class="st0" d="M670.8,379.9c0.3-3.9,0.7-7.9,1-11.8c-0.3-0.4-0.5-0.9-0.5-1.4c0-0.3,0-0.7,0.1-1c2.5-9,3.1-18,0.3-27
		c-1-5.2-1.5-10.4,0.5-15.5c3.8-9.8,10.9-16.4,20.8-19.5c9.5-2.9,18.9-5.6,28.1-9.5c16.1-6.8,30.4-1.6,43.1,8.9
		c4.7,3.9,9.6,7.8,13.2,13.2c5.2,7.8,7.6,16,8.8,25.2c1.6,11.9-0.7,22.9-6.4,33c-5.7,10-12.8,18.9-24.8,22.6c-3,0.9-5.2-1.2-7.9-0.2
		c-3.1,1.2-6.3,2.1-9.2,3.6c-4.7,2.5-9.3,3.9-14.6,1.9c-6.7-2.6-13-0.7-19.6,1.4c-13.6,4.5-25.4-1.7-30.9-14.2
		C671.6,386.6,671.5,383.2,670.8,379.9z"/>
	<path d="M470.6,202.3c-0.7-2.9-1.1-5.8-0.8-8.7c0.9-1.8,1.6-3.7,2.7-5.3c3.9-5.3,8.4-5.7,15.6-2.8c6.3,2.5,9.7,8.2,14.8,12
		c4.3,2.4,5.7,7,7.8,11c0.9,2.7,1.9,5.5,2.1,8.4c0.4,5.6-3,10.2-9.9,13.4c-8.9,2.5-17,2-22.9-6.4c-1.4-1.9-3.1-3.6-4.2-5.8
		c-0.5-1-1.1-2.1-1.6-3.1C472.6,210.9,469.6,207.1,470.6,202.3z"/>
	<path d="M544,216.7c-1.8,2.1-3.4,4.4-6,5.8c-0.3,2.1-2.1,2.8-3.5,3.9c-1.3,0.9-2.9,1.4-4.4,2c-1.4,0.5-2.8,1-4.2,1.2
		c-4.3,0.2-7.2-1.9-9.3-5.4c-2-4.7-1.3-9.6-1.4-14.5c0.1-2.9-0.8-6,1.4-8.6c2-2.1,0.7-5,1.8-7.5c4.5-10.7,10-11.7,18.7-4.3
		c7.2,6.1,9.5,14.6,6.9,24.1C543.8,214.4,544,215.6,544,216.7z"/>
	<path d="M671.8,338.8c4.5,7.4,4.2,15.1,1.7,22.9c-0.6,1.8,0.2,4-1.5,5.4c-2.2-2-1.2-4.9-1.9-7.3c-0.3-0.9-0.4-1.9-0.5-2.9
		c-1.9-14-9.2-17.8-23.9-17.4c-3.6,0.1-7.2,2.1-10.9,0.3c0-2.3,0-4.6,0-6.9c8.4-1.6,16.9-2.7,25.4-0.8c3.6,0.8,6.1,3.7,9.1,5.7
		C670.1,338.4,670.7,339.2,671.8,338.8z"/>
	<path class="st0" d="M516.7,201.1c-0.1,3-0.1,6-0.2,8.9c-2.7,1-5,0.4-6.7-2c-2.3-3.5-4.6-7.1-6.9-10.6
		C507.7,198,512.4,198.8,516.7,201.1z"/>
	<path class="st1" d="M509.8,208c2.2,0.7,4.5,1.4,6.7,2c0.4,4.8-0.5,9.7,1.1,14.4c-1.2,9.2-3.1,18.2-4,27.4
		c-1.7,15.5-3.5,31-3.4,46.6c0,5.5,1,11,1.4,16.5c0.1,2.1,0.7,4.2,2,5.9c1.6,2.2,3.4,2.4,5.1,0.2c2.1-2.7,3.4-5.9,4.6-9.1
		c7.6-21.1,11.9-42.9,14.3-65.1c0.7-6.2,0-12.3-2.8-18.1c-0.5-1-0.9-2.1-0.6-3.3c1.3-1,2.6-2,4-3.1c7.2,6,9.7,14.4,8.6,23
		c-2.3,18.8-6.9,37.1-13.5,54.9c-1.9,5.1-4.2,10.1-6.8,14.9c-1.7,3.1-2,5.8-0.5,9c3,6.3,3.6,12.4,0.4,19.2c-2.1,4.5-5.1,7.5-9.5,8.9
		c-7.1,2.2-14.3,2.5-21.8,0.8c-8.4-1.9-17-3.6-25.5-4.3c-10.3-0.9-22.9,4-28.6,15.3c9.7-2.7,19.2-6.1,29.2-5.5
		c9.4,0.5,18.7,2.8,28,4.1c5,0.7,10,2.8,15.2,0.8c2.3-0.9,3.2,1,3.9,2.7c3.4,8.7,5.7,17.6,7.4,26.8c1.3,7.2,2.7,14.3,1.9,21.6
		c-1.7,16-2,32.1-3.6,48.2c-1.1,10.5-2.4,21.2-2.4,31.9c0,5.4-0.7,10.9-0.9,16.4c-0.3,12.3,1.6,23.9,7.7,34.9
		c4.4,7.9,1.8,12.6-7.1,14.7c-0.9,0.2-1.8,0.7-2.7,0.9c-15.4,2.5-30.8,2.8-46.3,1.2c-4.5-0.5-8.9-1.1-13.3-2.1
		c-7.9-1.8-10.3-6.5-6.9-13.9c3.3-7,6.4-13.8,7.6-21.7c0.7-4.9,0-9.4-0.9-13.8c-3-14.2-7.8-28-11.9-41.9c-3.6-12-5.9-24.2-7.3-36.7
		c-1.8-15.4-1.5-31.2-5.7-46.3c-1.8-6.5-4.3-12.8-7.2-18.8c-8.4-17.4-17.8-34.2-25.1-52.2c-6.5-15.9-11.1-32.3-13.8-49.3
		c-1.6-9.9,0.2-18.9,3.7-27.7c4-10,11.9-16.6,21.2-21.5c13.8-7.4,28.2-13,44.2-13.8c5-0.3,10-0.8,15-0.7c1.6,4.2,3.2,8.4,4.8,12.6
		c-1.7,1.8-4.1,1.9-6.3,2.4c-4.1,1-8.1,2.3-11.9,4.3c-13.6,6.9-17.8,14.8-16.4,30c2,22.4,10.4,42.5,21.4,61.7c3,5.2,6.9,9.8,12,13.3
		c7.4,5.1,14,4.1,19.7-3c4.5-5.6,7-12.1,8.2-19.1c3.1-16.8,4.2-33.8,2.6-50.9c-0.6-6.6-1.1-13.3-2.4-19.8c-0.3-1.4-0.5-2.9,0.5-4.2
		c2.3-1.9,5.1-2.9,6.9-5.5c2.9-4.2,2-8.5,0.6-12.7C510,210.1,509.8,209.1,509.8,208z"/>
	<path class="st1" d="M610,386.4c-3.3,9-8.1,16.3-18.3,18.6c-4.3,1-8-0.2-11.6-2.1c-2.5-1.3-5.2-2.3-7.8-0.9
		c-7.3,3.8-13.3,1.5-19.3-3.3c-7.7-6.1-14.8-12.3-17.6-22.2c-4.2-14.7-1.1-28.5,5.5-41.8c5-10,12.6-17,24-18.9
		c8.5-1.4,16.6,1.3,24.7,3c1.8,0.4,3.7,1,5.2,0.4c4.4-1.8,8.6-0.3,12.8,0.2c12.2,1.5,19.3,11.9,16.7,24c-1.3,5.9-1.4,11.5,2.1,17.1
		c3.7,5.8,6.2,12.2,7.8,19c2.6,11.5-5.4,21.5-17.2,20.8c-2.9-0.2-5.1-1.2-4.7-5.1C612.5,392.1,611.6,389,610,386.4z"/>
	<path class="st2" d="M634.8,339.9c7-0.9,13.8-2.8,21.2-1.1c10.5,2.5,12.6,7.2,14.8,16.5c0.9,3.8,0.8,7.9,1.2,11.9
		c-0.1,0.3-0.1,0.7-0.2,1c-2.6,6.1-7.8,8-13.9,8.9c-4.5,0.7-8.9,1-13.4,0.9c-2.5-9.4-8.4-17.5-10.2-27.2
		C633.6,347,633.1,343.4,634.8,339.9z"/>
	<path class="st2" d="M645.5,383.8c4.1-0.3,8.3,0.4,12.5-0.9c2.1-0.7,3.8-0.4,4.3,3.1c1.3,8.6,2.8,17.2,3.6,25.9
		c0.5,5.8-0.5,7-6.6,6.9c-3,0-5.7,1.6-8.5,1c-2.2-0.4-4.6,2.4-5.8,0.5c-1.3-2.1-1.4-5.2-1.5-7.8c-0.2-4.7-0.1-9.4-0.1-14.1
		c0-0.8,0-1.6-0.9-2C643.8,392.2,645.9,388.3,645.5,383.8z"/>
	<path class="st3" d="M711,484.3c3.5,14,7.1,27.9,10.6,41.9c0.2,0.8,0.4,1.6,0.6,2.3c2.1,6.8,1.6,7.7-5.7,7.6
		c-12.3-0.1-24.5-0.7-36.8-1.1c-10.5-0.2-21.1-0.1-31.6,0.3c-11,0.5-22,0.8-33,2.1c-6.7,0.8-9.7-2.8-8.8-9.4
		c0.7-5.2,1.7-10.3,3.5-15.2c4.5-12.5,14.1-19.2,26.5-22.2c13.9-3.3,28-5.4,42.4-5.9c8.1-0.3,16.2-0.5,24.3-1.5
		C705.8,482.9,708.6,482.5,711,484.3z"/>
	<path class="st3" d="M605.5,444.5c22.2-1.9,44.6-1.5,66.8-2.3c14.6-0.6,29.1-0.4,43.7-0.7c10.1-0.2,12.7,2.2,10.8,12.9
		c-0.9,4.8-2.1,9.2-4.1,13.7c-1.4,3.3-3.7,4.5-6.8,3.7c-6.4-1.8-13.2,0.2-19.6-2c-13.8-2-27.8-1.7-41.6-3.4c-16.1-1.9-32,0.9-48,1.8
		c-4.3,0.3-8.4,0.2-12.3-1.9c-4.4-2.4-6.5-6.6-5.8-11.3c0.7-4.8,3.9-8.2,8.7-9.4C600.1,444.7,602.9,445.2,605.5,444.5z"/>
	<path class="st4" d="M711,484.3c-16.8,1-33.6,1.4-50.3,3.3c-10.5,1.2-21.1,2.9-31.1,6.7c-13.6,5.2-18.9,16.3-21.3,29.5
		c-0.2,1-0.1,2-0.3,2.9c-1.7,8,0.3,10.3,8.7,9.4c13.5-1.4,27.1-2,40.7-1.9c5.9,0,11.7,0,17.6,0c1.6,0,3.3-0.5,4.6,0.8
		c-16,0.7-32,1.2-47.9,2.2c-9.1,0.5-18.2,1.8-27.3,2.7c-1.6,0.2-3,0.1-2.7-2.2c2.1-13.9,0-27.7-2.6-41.3
		c-2.2-11.5-2.5-11.2,8.6-13.2c14-2.4,28-3.9,42.1-5c16.7-1.3,33.1,0.3,49.6,2c3,0.3,6.1,0.7,9.1,1C710.7,481.6,711,482.7,711,484.3
		z"/>
	<path class="st3" d="M696.4,550.7c3.7,0,7.5,0.4,11.2,0c7.1-0.6,13.7,1.3,20.4,3c2.8,0.7,3.5,3,3.4,5.1c-0.2,3.3-0.6,6.9-4.4,8.3
		c-5,1.8-10.4,1.8-15.7,2c-11.5,0.4-23.2,0.9-34.6-0.1c-14.6-1.2-29.2-0.2-43.8-0.9c-0.5-0.2-0.9-0.4-1.4-0.3
		c-2.7,0-5.5,0.1-6.1-3.3c-0.6-3.2,1.4-5.2,3.9-6.6c3.7-2.1,8-2.7,12.1-3.4c17.3-2.9,34.7-3.6,52.2-4.3
		C694.5,550.3,695.5,550.2,696.4,550.7z"/>
	<path class="st5" d="M789,559.6c-7.6,4.8-16.3,5.3-25,7c-6.4-1.1-12.9-2.1-19.4-3.4c-2.8-0.6-3-3.3-3.3-5.6c-0.3-2.4,1.3-2.9,3.3-3
		c1.2-0.1,2.6-0.6,3.4-1.4c9.5-8.8,22.1-10,33.6-14c4.3-1.5,11.5,3.6,13.2,8.3C796.1,551,793,557.1,789,559.6z"/>
	<path class="st3" d="M633.8,540.2c27.2-1.4,54.4-3.4,81.8-1.1c-1.1,4.7-1.1,4.7,0.7,9.8c-7.6-0.4-15.1-0.5-22.5-1.3
		c-7.6-0.8-15.1-1.1-22.6,0.1c-4.8,0.7-9.6,0.5-14.4,1c-12.2,1.2-24.4,1.6-36.7,2.3c-5.7,0.7-9-0.6-9.3-3.6
		c-0.3-2.7,2.5-4.6,8.1-5.3C623.9,541.4,628.9,540.5,633.8,540.2z"/>
	<path class="st4" d="M605.5,444.5c-2,1.7-4.6,0.9-6.9,1.6c-7.8,2.2-9.2,7.7-8.7,12.1c0.5,4.6,5.5,8.6,11.5,8.6
		c6.6,0,13.2-0.6,19.8-1.1c9.9-0.6,19.7-2.3,29.8-1.1c8.8,1,17.6,1.5,26.4,2.4c6.3,0.6,12.9,0.2,18.9,2.7c-5.7,1-11.3-0.8-16.9-0.9
		c-18-0.3-35.9,0.8-53.8,2.2c-10.5,0.8-21,2.8-31.5,4.6c-6.2,1-10.5-2.8-11.1-10.2c-0.4-4.7,0.5-9.4,1.2-14c0.5-3.1,2.8-5.3,5.9-5.8
		C595.2,444.6,600.3,443.8,605.5,444.5z"/>
	<path class="st6" d="M803.7,546.8c4.6,7.2-1.1,16.9-7.8,20.6c-13.2,7.4-27.1,8.9-41.7,6.5c-2.4-0.4-4.8,0-7.2-0.6
		c-4.2-1.1-6.6-2.7-4.4-7.4c7.3,1.8,14.8,3.6,22.4,3.4c10.9-0.3,21-3.2,29.8-10.1c5.1-4,4.5-14.8-1.3-18.9
		c-5.7-4.1-11.7-5.2-18.4-2.6c-7.8,3-15.9,5.5-23.7,8.5c-2.2,0.9-3.3,0.3-4.6-1.2c-1.8-2.1,0.5-3.1,1.5-3.8
		c4.6-3.2,9.8-5.2,15.3-6.2c-1.1,4.3-5.4,2.9-8.1,4.8c6.6-2.3,13.1-4.9,20-5.6c6-0.7,12.1-1,17.5,2.2c7.8,4.5,10.2,11.7,7.9,21.1
		C803.5,554.9,801.2,550.2,803.7,546.8z"/>
	<path class="st7" d="M696.4,550.7c-20.8,1.4-41.8,2.1-62.2,6.9c-1.2,0.3-2.5,0.7-3.7,1.2c-2.4,0.9-4.5,2.6-4.3,5.2
		c0.2,3.1,2.9,3.4,5.5,3.5c0.4,0,0.8,0.5,1.2,0.7c-9.2,0.7-18.3,1.6-27.5,2c-7.4,0.3-8.4-1.1-6.7-8.1c1.6-6.7,2.1-7.2,11-7.5
		c15.2-0.4,30.2-2.6,45.4-3.2c12.6-0.5,25.1-1.8,37.7-1.7C694,549.8,695.4,549.5,696.4,550.7z"/>
	<path class="st2" d="M697,430.9c-13.1-1.1-24.7,1.1-36.4,1.9c-10.7,0.7-21.3,1.9-32.3,1.8C636,424.5,684,421.4,697,430.9z"/>
	<path class="st8" d="M803.7,546.8c0.2,5.7,0.3,11.4-5.8,15.6c0.7-2.4,1.1-4.3,1.9-6.1c4.1-9.5-4.9-21.3-16.4-21.2
		c-7,0-13.7,1.3-20.4,3.3c-3,0.9-6.1,1.8-9.9,3c3.1-3.9,7.8-3.4,10.5-6.3c5-2.4,10.4-3.3,15.7-4.5
		C789.9,528.3,802.3,536.6,803.7,546.8z"/>
	<path class="st9" d="M739,536.2c4.1-0.1,5.8,2,4.4,5.2c-1,2.3-1.4,4.3,0.2,6.3c2,2.4,0.6,3.4-1.6,3c-6.3-1.2-12.7-1.9-18.8-4.1
		c-1.4-0.5-3.4-1-3.4-3c0-2.1,1.7-2.9,3.3-3.7C728.4,537.4,734.2,538,739,536.2z"/>
	<path class="st4" d="M633.8,540.2c-5.7,1.7-11.7,1.6-17.4,3.5c-2,0.7-4.8,0.7-4.7,3.2c0.1,2.5,2.8,3.3,5,3.8
		c1.1,0.3,2.3,0.1,3.4,0.2c-3.3,1.8-6.9,0.4-10.4,0.8c-0.8,0.1-1.6,0-2.4,0c-2.1,0.2-5,2.4-6.2,0.1c-1-1.9,0.1-4.9,0.5-7.4
		c0.4-2.5,3.1-2,4.4-2.1C615.3,542,624.5,539.7,633.8,540.2z"/>
	<path class="st1" d="M706.6,380.3c-1.5,3.8-1.9,7.3-0.5,10.7c0.9,2.3-0.4,2.9-2.3,3.5c-15.2,4.6-25.3-8.9-22.2-21.8
		c1.1-4.5,1.5-9.3,3.2-13.5c2.7-6.7,0.8-12.4-1.7-18.5c-1.7-4.1-3-8.2-1.8-13c1.9-7.5,7-11.5,13.9-13.3c11-2.8,21.7-6.5,32-11.5
		c9.9-4.9,18.7-0.5,26.7,4.5c10.9,6.8,17.9,17,21.6,29.3c4.5,14.9,0.5,28-8.3,40.3c-5.1,7.1-11.4,10.8-20.3,10.8
		c-3.8,0-7.2,2.6-10.6,4.3c-9.9,4.9-23,0.6-28.2-9.1C707.6,382.2,707.2,381.4,706.6,380.3z"/>
	<path class="st10" d="M502.8,229.5c3.7,16,4.7,32.3,3.8,48.6c-0.7,12.8-1.4,25.7-6.6,37.8c-1.8,4.1-4.2,7.6-7.1,10.9
		c-5.3,6-12.7,5.3-18.9,1.3c-7.4-4.7-12.2-11.9-16.1-19.5c-7.6-14.6-14.4-29.6-17-45.9c-1.6-9.7-3.8-19.8,1-29.5
		c4.8-9.6,14.1-12.8,23.1-16.1c3.2-1.2,6.7-2.4,10.3-2.1c0.5,0.9,1.4,1.6,1.2,2.8c-1,1.8-2.9,2-4.6,2.4c-3.9,0.7-7.5,2.1-11.1,3.6
		c-12.7,5.4-17.3,11.2-16,27.8c1.9,24.1,11.5,45.5,24.5,65.6c1,1.5,2.2,2.8,3.7,4.1c-4.8-9.4-8.2-19.2-11.4-29.1
		c-3.2-9.9-5.2-20.1-6.2-30.5c-0.6-6.8-0.9-13.5,0.3-20.4c1.9-10.9,14.8-18,24.6-18.6c4.7,6.9,9.7,8.7,18.4,7
		C500.2,229.3,501.5,229.5,502.8,229.5z"/>
	<path class="st11" d="M480.6,222.6c-3.4,1.4-6.8,3-10.3,4.2c-10.9,3.7-14,12.6-14,22.7c0,18.3,3.9,35.9,10.4,52.9
		c2.9,7.5,5.4,15.1,10.6,22.7c-8.9-4.2-12-11.8-15.7-18.6c-7.9-14.5-14.6-29.6-16.8-46.2c-0.9-6.7-2.1-13.3-0.6-20.2
		c1.6-7.5,5.8-12.2,12.4-15.6c6.4-3.3,13.2-5.2,20.2-6.6C477.9,219.3,479.2,221,480.6,222.6z"/>
	<path class="st12" d="M488.7,191.7c9,3.4,13.9,10.5,17.8,18.5c1,2.1,0.2,3.9-1.6,5c-1.9,1.1-3.9,2.7-6.1,0.8c-1.2-1-2.7-2-2.9-3.8
		C495.1,204.9,491.3,198.6,488.7,191.7z"/>
	<path class="st10" d="M534.1,225.6c5.5,6.7,5.8,14.8,4.8,22.5c-1.9,14.4-3.4,29-7.7,43c-3,9.8-5.1,19.9-10.1,29
		c-1.2,2.2-2.4,5.3-5.4,4.8c-2.8-0.5-4.5-3.2-4.9-6.1c-2-12.3-2.8-24.6-1.3-37c0.7-5.6,0.7-11.3,1.3-16.9c1.5-13,2.1-26.2,5.8-38.9
		c0.2-0.6,0.6-1,1-1.6c2.5,2.3,5,4.5,8.7,4.2c3.8,3.5,4,8.3,4.3,12.9c0.5,8.6-0.7,17.1-1.4,25.6c-0.5,6.1-1.3,12.2-2.6,18.3
		c-0.4,2-0.6,4.2-2.5,5.6c-2.8-1.1-1.7-3.4-1.5-5.3c0.4-5.3,1.1-10.6-0.4-15.9c-0.5-1.8-1-4.3-3.3-4.2c-2,0-3.2,2-4.1,3.8
		c-1.3,2.7-1.8,5.5-1.8,8.5c-0.1,4-0.1,8.1,0,12.1c0,8.7,0.8,9.3,8.6,7.6c1.6,2,0.6,4,0.1,6c-0.3,1.1-0.7,2.2-1.1,3.2
		c-1.2,3.2-2.6,6.3-3.3,8.1c8.9-20.4,13.6-41,15.8-64.9c0.7-8,0.5-15.5-2.9-22.8C531,225.8,533.2,227,534.1,225.6z"/>
	<path class="st11" d="M523.4,291c3.2-5.6,2.9-12.1,3.8-18.2c1.3-9.1,1.4-18.3,2.2-27.5c0.5-5.8-1.3-11.2-3-16.6
		c1.1-0.9,2.4-1.3,3.8-1.2c5.4,5,5.4,11.6,4.8,18c-1.1,12.9-2.7,25.7-5.7,38.2c-3,12.1-6.6,24-13.7,36.1c1.2-8.5,5.5-14.8,5.8-22.1
		C520.3,295,520.3,292.5,523.4,291z"/>
	<path class="st12" d="M532.1,191c8.5,5.7,11.1,15.1,6.8,22.2c-0.9,1.5-2.2,3.9-4.2,3.2c-2.1-0.7-3.6-3.1-3.2-5.4
		c0.6-3.2,2.8-6.2,2.6-9.6C533.9,198.2,532.9,195,532.1,191z"/>
	<path class="st10" d="M710.3,496.5c2.1,11.7,4.6,23.3,9.2,34.3c0.4,0.9,0.2,1.9-0.6,2.7c-1,0.9-1.9,0.8-3.1,0.4
		c-3.3-1.1-4.4-4-4.9-6.9C709.2,516.8,710.2,506.7,710.3,496.5z"/>
	<path class="st10" d="M641.2,446.1c7.9-0.2,15.5-1.9,23.2-1.7c17.2,0.4,34.3-1.3,51.4-1.1c5.3,0.1,8.7,4.4,7.4,9.6
		c-0.6,2.5-1.2,5.1-1.9,8.3c-9.4-11.7-22.2-12.7-35.3-13.1C671.1,447.7,656.2,446.8,641.2,446.1z"/>
	<path class="st10" d="M670.6,540.6c12.3-0.5,24.5-1.1,36.7,0.4c1.4,0.2,3.3,0.7,3.1,1.8c-0.3,1.8-2.5,1.5-3.7,1
		c-4.9-1.9-10-2-15-1.8C684.5,542.4,677.6,540,670.6,540.6z"/>
	<path d="M487.1,284.8c1.7-5.9,0.8-12.6,6.5-17.2c4.3-3.5,8.5-2.4,10.4,2.8c2.5,7-0.3,13.8-0.7,20.7c-0.1,3.2-0.6,6.4-3.1,9.1
		c-2.9,3.3-5.3,2.6-7.9,0C487.9,296,488.3,290.3,487.1,284.8z"/>
	<path d="M523.4,291c-1.3,2.1-1.6,4.5-1.9,6.8c-2,1.1-3.2,4.2-6.1,2.9c-2.7-1.1-3.5-4-3.4-6.4c0.2-7.4-1-14.8,0.7-22.2
		c1-4.1,2.9-8.3,6.7-8.1c4.2,0.3,4.8,5.4,5,9.1C524.7,279.1,524.6,285.1,523.4,291z"/>
	<path class="st10" d="M502.9,277.8c-0.2,1.7,0.7,4.3-2.5,4.4c-2.5,0.1-6.2-5.3-6.3-8.7c-0.1-2.8,0.8-4.7,3.9-4.9
		C500.7,268.4,503,272.5,502.9,277.8z"/>
	<path class="st13" d="M498,296.2c0,1.5,0,3.1-1.9,3.4c-1.7,0.3-5.7-5.4-5.9-8.2c-0.1-1.6,0.2-3,2.2-3.1
		C494.2,288.3,498,293.8,498,296.2z"/>
	<path class="st10" d="M522.5,274.8c-0.5,1.8,1.1,5.5-2.1,5.1c-2.7-0.3-4.8-3.5-4.8-6.9c0-2.9,1.5-6.5,3.9-6
		C522.7,267.6,522.5,271.6,522.5,274.8z"/>
	<path class="st13" d="M513.7,291.1c0.2-1.7-0.7-4.1,1.6-4.6c2.3-0.5,2.5,2.1,3.3,3.5c1.3,2.2,1.7,4.6,0.3,6.9
		c-0.6,0.9-1.7,1.2-2.6,0.6C513.9,296,513.6,293.7,513.7,291.1z"/>
</g>
</svg>
