<?xml version="1.0" encoding="utf-8"?>
<!-- Generator: Adobe Illustrator 23.0.1, SVG Export Plug-In . SVG Version: 6.00 Build 0)  -->
<svg version="1.1" id="Layer_4" xmlns="http://www.w3.org/2000/svg" xmlns:xlink="http://www.w3.org/1999/xlink" x="0px" y="0px"
	 viewBox="0 0 1000 1000" style="enable-background:new 0 0 1000 1000;" xml:space="preserve">
<style type="text/css">
	.st0{fill:#6E3720;}
	.st1{fill:#FB9A7A;}
	.st2{fill:#CBB89A;}
	.st3{fill:#FEFEFE;}
	.st4{fill:#C0FEFE;}
	.st5{fill:#00407F;}
	.st6{fill:#E00000;}
	.st7{fill:#7F0000;}
	.st8{fill:none;}
	.st9{fill:#7898AB;}
	.st10{fill:#800000;}
	.st11{fill:#B0F3F2;}
	.st12{fill:#2B5260;}
	.st13{fill:#7F7F7F;}
</style>
<g>
	<path class="st0" d="M577,265.6c5.2,6.6,9.9,13.4,8.9,22.3c-0.6,5.2-1.7,10.4-4,15c-1.7,3.3,0,4.1,2.3,4.6c5.1,1,10.2,2.4,15.6,2.1
		c20-1,29.3,4.6,35.1,23.3c1.5,1.9,1.3,4.2,1.1,6.4c-2.2,8.2,0.3,15.7,3.7,22.9c2.3,5,4.4,10,6,15.3c0.3,2,0.9,4,1,6.1
		c0.1,4.5-1,8.6-3.2,12.5c-2.1,2.6-3.3,6-7,7.2c-8.4,4.5-17.1,7.5-26.9,4.9c-1.6-0.4-3.4-0.2-5.1,0.8c-8.3,5.3-17.2,6.4-26.4,2.9
		c-3.3-1.3-6.5-0.6-9.3,0.3c-6.3,2-11.6-0.2-16.7-3.1c-7.8-4.3-14.1-10.5-20.1-17.8c-0.9,4.6,0.9,8.2,2.5,11.8
		c3.3,7.5,6.7,14.9,8.6,23c1.8,8.1,2.5,16,1,24.2c-0.9,5-0.4,10.2-0.9,15.4c-1.6,15.4-4.8,30.4-8.6,45.3c-1.5,5.7-2.5,11.5-3.2,17.3
		c-0.5,4.7,1.9,9,3.9,13c1.8,3.4,3.2,6.9,3.7,10.7c1.3,10.2-5,15.4-14,17.2c-16.1,3.4-32.5,1.7-48.8,2.1c-7.4,0.2-14.8-0.8-22-2.2
		c-11.1-2.2-17.4-14.3-11.8-27.4c1.3-2.9,3-5.5,3.9-8.6c2.5-8.3-0.9-15.5-3.8-22.9c-5.3-13.3-12.1-26-15.9-40
		c-3.5-12.4-6.4-24.9-6.7-37.9c-0.2-12.7-3.2-24.7-7.7-36.6c-7.2-19-16.3-37.3-22.8-56.6c-4.1-12.3-8.5-24.6-10.3-37.4
		c-2.5-18-2-36,8.6-52c4.2-6.3,11-9.5,17.5-13c10.9-5.8,22.7-8.5,35-9.6c6.8-0.6,13.7-1.1,20.6-1.5c12.1-0.7,24.2,1.7,36.1,3.6
		c1.1,3.2,0.1,5.8-1.9,8.3c-5.3,1.2-10.4-0.6-15.4-1.3c-11.8-1.6-23.4,0.2-35,0.7c-7.5,0.4-14.8,1.7-22.1,3.6
		c-19.5,5.1-33,21.2-33.2,41.4c-0.1,8.9,1.7,17.8,3.7,26.5c5.4,23.6,14.8,45.8,23.9,68.1c5.5,13.4,11.6,26.6,13.5,41.1
		c1,7.9,1.2,15.9,2.2,23.8c2.9,22.2,10.7,42.9,20,63c2.5,5.4,4.2,10.9,5.2,16.7c1.2,7.1,0.8,13.9-3,20.3c-1,1.7-1.8,3.5-2.5,5.3
		c-2.7,6.6-1.1,10,5.8,12.1c5.3,1.6,10.9,2.5,16.3,2.7c14.1,0.6,28.3,1.2,42.3-1.8c1.8-0.4,3.5-0.7,5.2-1.4
		c5.2-2.1,7.3-5.5,4.7-10.3c-6.7-12.2-5.6-24.6-3.4-37.5c3.9-22.3,6.3-44.8,8.4-67.3c0.4-4.1-0.1-8.1-0.7-12.1
		c-1.7-10.7-5.2-20.8-9.4-30.7c-1-2.5-2.4-4.4-5.5-4.8c-7-0.8-13.7-2.7-20.3-5c-8.1-2.9-16.4-5.4-24.7-7.8c-7.6-2.3-15.2-3.6-23.1-2
		c-3.2,0.6-6.5,0.3-9.7,0.2c-1.3-0.1-2.9-0.1-3.4-1.4c-0.7-1.5,0.6-2.7,1.6-3.8c1.5-1.7,3.3-3.2,5.5-4c6.5-2.4,13-3.8,20.1-2.6
		c10.8,1.8,21,5.6,31.4,8.9c7.3,2.3,14.5,5,22.2,5.7c1.1,0.1,2.3,0.3,3.4,0.3c5.6,0,6.5-1.2,4.9-6.6c-2-7.1-3.4-14.3-2.3-21.7
		c1-6.8,3.2-13.2,5.8-19.5c0.6-1.3,1.3-2.5,1.9-3.8c1.2-2.4,2.8-4.6,4.2-6.8c1.7-2.3,3-4.8,4.9-6.8c1.1-1,2.1-2.1,3.3-3
		c1-0.7,2.1-1.3,2.9-2.2c1.1-1,2.1-2.1,3.4-3c2.6-1.4,5.2-2.6,7.7-4c1.7-0.8,3.5-1.5,5.3-2c6.5,0.3,9.1-3.6,11-9.3
		c2.9-8.6,1.6-16.2-3.1-23.5C570.3,268.3,573.4,266.6,577,265.6z"/>
	<path d="M808.6,547.9c-2.3-16.5-19.9-23-32.1-21.1c-8.9,1.4-16.9,5.4-25.2,8.7c-1.2,0.5-2.3,1.3-3.2-0.3c-2.8-4.6-6.7-4.8-11.2-3.2
		c-2.3,0.8-3.2-0.2-3.9-2.5c-4.5-14.7-8.4-29.6-11.4-44.7c-0.4-1.9,0-2.3,1.8-2.8c3-0.8,6.4-1.2,8.2-4.2
		c6.8-11.6,11.2-23.8,7.1-37.4c-1.5-5.1-4.3-9.1-10.6-10.1c-3.4-0.5-6.7-0.5-10-0.6c-6.7-0.3-13.3,0.8-19.4-4.5
		c-5.4-4.6-13-6-20.1-7.3c-3.1-0.5-4.9-1.9-5.4-5c-1.4-9.9-2.9-19.8-4.3-29.6c-0.2-1.6,0.1-2.9,1.9-3.4c1.9-3.6,2.8-7.4,1.5-11.5
		c-0.2-0.2-0.3-0.3-0.5-0.3c0,0,0,0,0,0c-0.8-0.4-1.4,0.3-1.9,0.9c-3.4,4.7-8.3,6.1-13.7,7c-3.5,0.6-7.3-0.3-10.7,1.3
		c-0.3,0.2-0.7,0.4-1,0.6c0.3,2,0.6,4,1,5.9c0.4,0.3,0.8,0.5,1.2,0.7c2.6,1.2,5.5,0.6,8.2,0.4c5.7-0.5,5.9-0.4,6.7,5.4
		c0.9,6.1,1.7,12.2,2.6,18.3c1.2,8.1,1,8.2-6.9,9c-2.3,0.2-4.5,0.6-6.7,1c-3.6,0.6-5.1-0.8-5.5-4.3c-0.4-4.2-0.1-8.5-0.3-12.7
		c-0.1-1.8,0.4-4-1.6-5c-0.2-0.1-0.4-0.2-0.6-0.3c-2,2.3-4,4.7-6.1,7c0.4,2.4,0.4,4.7,0.9,7.1c0.7,3.6,0.8,7.6-0.3,11.1
		c-0.7,2.5-4.7,2.1-6.9,3.5c-1.2,0.7-2.5,1.4-3.5,2.4c-6.3,6.4-14,8.8-22.9,8.2c-5.2-0.3-10.4-0.1-15.6,0
		c-7.6,0.1-10.6,2.3-12.9,9.3c-2.3,6.9-1.7,14.2-0.9,21.1c0.9,7.6,3.2,15.4,12,18.3c1.6,0.5,1.1,1.6,1.5,2.6
		c4.7,11.6,4.8,23.9,5.6,36c0.9,13.8-1.7,27.3-4.8,40.7c-2.3,9.9,2.1,15.6,12.2,15.6c15.3,0.1,30.6-1.3,45.9-1.9
		c12.1-0.5,24.2,0.1,36.4,0.8c10.7,0.6,21.5,0.1,32.2,0.1c7.2,0,14.4,0.1,20.9-3.5c1.4-0.8,2.3,0.2,3.5,0.5
		c7.5,2.2,15.2,3.4,22.8,3.9c11.9,0.7,23.2-2.3,33.7-7.9C806.2,566,810.1,558.5,808.6,547.9z M745,554.6c1,0,2.2-0.6,3-1.4
		c9.4-8.9,22.1-10,33.6-14c4.2-1.5,11.5,3.6,13.2,8.2c1.3,3.4-1.8,9.7-5.7,12.2c-7.6,4.8-16.4,5.2-24.9,7c-6.4-1.1-13-2.1-19.5-3.4
		c-2.8-0.5-3-3.3-3.4-5.5C740.9,555,742.8,554.7,745,554.6z"/>
	<path class="st0" d="M670.8,379.9c0.3-3.9,0.7-7.9,1-11.8c-0.3-0.4-0.5-0.9-0.5-1.4c0-0.3,0-0.7,0.1-1c2.5-9,3.1-18,0.3-27
		c-1-5.2-1.5-10.4,0.5-15.5c3.8-9.8,10.9-16.4,20.8-19.5c9.5-2.9,18.9-5.6,28.1-9.5c16.1-6.8,30.4-1.6,43.1,8.9
		c4.7,3.9,9.6,7.8,13.2,13.2c5.2,7.8,7.6,16,8.8,25.2c1.6,11.9-0.7,22.9-6.4,33c-5.7,10-12.8,18.9-24.8,22.6c-3,0.9-5.2-1.2-7.9-0.2
		c-3.1,1.2-6.3,2.1-9.2,3.6c-4.7,2.5-9.3,3.9-14.6,1.9c-6.7-2.6-13-0.7-19.6,1.4c-13.6,4.5-25.4-1.7-30.9-14.2
		C671.6,386.6,671.5,383.2,670.8,379.9z"/>
	<path d="M495,237.4c0.7-2.7,1.3-5.3,2-8c4.4-9.8,12.8-7.7,22.9-1.8c5,2.9,8.7,7.4,12.3,11.9c4.9,2.9,5.8,8.3,7.8,12.9
		c2.5,10.4-1.9,16.4-13.5,18.4c-4.2-0.2-8.4-1.1-12.5-2c-5.2-1.2-9.2-4.1-11.8-8.7c-1.4-2.2-2.8-4.5-4-6.9c-0.6-1.1-1-2.2-1.5-3.4
		C496,245.7,493.7,241.8,495,237.4z"/>
	<path d="M577,265.6c-2.6,2-5.1,3.9-7.7,5.9c-1.3,1.4-3.2,1.5-4.9,2c-1.5,0.2-3,0.3-4.5,0.4c-2,0.6-4.1,0.8-6.2,0.8
		c-5.2,0-8.6-2.6-10.6-7.3c-1.2-4.6,0.5-8.9,1.4-13.3c1-3.2,1.4-6.6,4.3-8.8c1.7-0.7,1.1-2.5,1.7-3.7c5.2-10.6,11.5-10,19.7-3.7
		C579.7,245.2,581.3,254.8,577,265.6z"/>
	<path d="M671.8,338.8c4.5,7.4,4.2,15.1,1.7,22.9c-0.6,1.8,0.2,4-1.5,5.4c-2.2-2-1.2-4.9-1.9-7.3c-0.3-0.9-0.4-1.9-0.5-2.9
		c-1.9-14-9.2-17.8-23.9-17.4c-3.6,0.1-7.2,2.1-10.9,0.3c0-2.3,0-4.6,0-6.9c8.4-1.6,16.9-2.7,25.4-0.8c3.6,0.8,6.1,3.7,9.1,5.7
		C670.1,338.4,670.7,339.2,671.8,338.8z"/>
	<path class="st0" d="M548.9,245.3c-1,2.9-2,5.8-3.1,8.7c-2.8,1.1-4.7-0.6-6.7-2c-2.5-4.1-3.8-8.8-6.9-12.5
		C538,240.6,543.3,243.5,548.9,245.3z"/>
	<path class="st1" d="M539.1,252c2.6-0.5,4.3,1.8,6.7,2c-0.8,4.5-2.4,8.9-1.7,13.6c0.2,1.9-0.5,3.5-1.2,5.1
		c-10.1,23-16.9,47-20.8,71.8c-0.6,3.8,0.5,7.4,0.4,11.2c-0.4,8.8,0.4,17.4,4,25.5c1.1,2.4,0.3,3-1.8,3.7c-6,2.1-11.8,0.6-17.5-1
		c-12.2-3.4-24.1-7.5-36.3-11.1c-8.2-2.4-16.5-3.8-25-0.8c-5.5,1.9-6.7,2.2-11.1,7.9c6.3,0.2,12.1-0.3,18-0.7
		c12.8-1,24.4,4.6,36.4,8.2c9.6,2.9,19,7,29.2,7.3c1.7,0,2.2,1.1,2.7,2.2c6.6,14.4,12.4,29.1,11.9,45.2c-0.3,11.2-1.8,22.4-3.5,33.5
		c-1.6,10.5-2.7,21-4.1,31.5c-0.8,5.5-2.1,11-2.7,16.6c-0.7,6.3,0.2,12.5,2.7,18.4c0.3,0.7,0.7,1.5,1,2.2c5.2,10.6,3.6,14.5-7.9,17
		c-15.4,3.4-31.1,3.1-46.7,1.7c-4.7-0.4-9.2-1.1-13.8-2.2c-8.2-1.9-10.3-6.4-6.9-14.2c2.4-5.7,6.4-10.8,6.1-17.6
		c-0.3-8.2-2.2-15.8-5.6-23.2c-7.9-17.2-15-34.7-18.7-53.3c-1.9-9.6-2.6-19.4-3.3-29.2c-0.6-9.4-3.1-18.5-6.6-27.4
		c-8.3-21.2-17.8-41.8-24.8-63.5c-4.5-14-8-28.2-9.7-43c-1.5-13.4,1.5-25.1,9.7-35.1c7-8.6,16.8-13.7,27.9-15.8
		c8.5-1.6,17.1-3.2,25.8-2.9c3.6,0.1,7-1,10.6-1.1c11-0.2,21.9,0.9,32.6,3.1c1,4.2,1.9,8.4,2.9,12.6c-4.8,2.7-10.2,0.8-15.2,2.1
		c-2.9,0.8-6.1,1-9.1,1.5c-15.9,2.9-21.8,11.8-20.8,28.2c0.7,12.3,2.9,24.5,6.6,36.3c3.5,11.1,8.1,21.8,15.9,30.4
		c11.3,12.5,25.3,10.9,34.6-3.3c7.6-11.6,12.3-24.3,14-38.1c1.4-11.4,3.1-22.9,1.6-34.4c-0.2-1.2,0-2.3,0.9-3.2
		c3.3-0.6,6.2-1.7,9.1-3.7C540.7,262.2,540.1,257.2,539.1,252z"/>
	<path class="st1" d="M610,386.1c-3.3,9.7-8.6,16.8-18.9,19c-4,0.8-7.7-0.4-11.1-2.3c-2.4-1.3-5-2.3-7.4-1
		c-7.7,4.1-14.1,1.6-20.2-3.4c-7.4-6-14.5-12.2-17.2-22c-4-14.7-1.1-28.5,5.6-41.8c5-10,12.6-17,24-18.9c8.3-1.4,16.3,1.3,24.3,2.9
		c2.8,0.5,5.2,0.7,8,0.1c14-3.3,28.4,7.6,27.8,21c-0.1,1.7-0.4,3.5-1,5.2c-2.1,6.2,0.1,11.6,3.1,16.9c3.2,5.6,5.6,11.5,7.1,17.8
		c2.7,11.4-5.6,21.7-17.3,20.7c-2.5-0.2-5.1-0.8-4.6-4.6C612.7,392.5,611.5,389.4,610,386.1z"/>
	<path class="st2" d="M634.8,339.9c7-0.9,13.8-2.8,21.2-1.1c10.5,2.5,12.6,7.2,14.8,16.5c0.9,3.8,0.8,7.9,1.2,11.9
		c-0.1,0.3-0.1,0.7-0.2,1c-2.6,6.1-7.8,8-13.9,8.9c-4.5,0.7-8.9,1-13.4,0.9c-2.5-9.4-8.4-17.5-10.2-27.2
		C633.6,347,633.1,343.4,634.8,339.9z"/>
	<path class="st3" d="M522.5,355.6c-3.6-5.8-1.8-11.9-0.8-17.8c2.9-18.7,9.4-36.6,14.9-54.6c1.7-5.6,4.9-10.5,7.4-15.7
		c2.3,3.5,5,6.3,9.6,6c3.2,3,3.3,7.1,3.2,10.8c-0.3,9.9-3.4,19-9,27.2c-0.7,1.1-1.5,2.2-2.8,2.7c-1.8-1.3-1.4-3.5-2.1-5.3
		c-1.8-4-4.8-4.7-7.9-1.6c-2.2,2.1-3.2,4.9-3.7,7.8c-1.2,6.8-2.9,13.6-2.7,20.7C526.5,342.5,524.5,349,522.5,355.6z"/>
	<path class="st2" d="M645.5,383.8c4.1-0.3,8.3,0.4,12.5-0.9c2.1-0.7,3.8-0.4,4.3,3.1c1.3,8.6,2.8,17.2,3.6,25.9
		c0.5,5.8-0.5,7-6.6,6.9c-3,0-5.7,1.6-8.5,1c-2.2-0.4-4.6,2.4-5.8,0.5c-1.3-2.1-1.4-5.2-1.5-7.8c-0.2-4.7-0.1-9.4-0.1-14.1
		c0-0.8,0-1.6-0.9-2C643.8,392.2,645.9,388.3,645.5,383.8z"/>
	<path class="st1" d="M564.4,272.6c1.4-1.3,3.1-1.2,4.9-1.1c9.4,10.6,5.6,21.6,0.7,31.6c-1.8,3.6-6,2.3-9.3,2.6
		c-1.1-2,0.1-3.8,0.9-5.5c3.6-8.2,6.2-16.4,2.5-25.3C563.7,274.1,563.8,273.3,564.4,272.6z"/>
	<path class="st4" d="M547.9,311.7c1.5-5.9,4.5-11.3,6.3-17.2c2.2-7.2,1.6-13.9-0.4-20.9c1.9-0.4,4.1,0.3,5.9-1
		c3.3,4.7,4.7,9.8,3.5,15.5c-1.4,6.9-2.5,14-7.4,19.6C553.3,309.5,550.7,310.8,547.9,311.7z"/>
	<path d="M528.5,335.9c-2.8-4-0.6-8.1,0-12c0.6-4.6,0.9-9.4,3-13.8c1.7-3.4,4.1-6.9,8.1-6.2c4.4,0.8,5.1,5.1,5.4,9
		c0,0.5,0.1,1,0.1,1.5c-0.6,1.2-1.4,2.1-2.9,2c-0.8-1-0.4-2.2-0.5-3.3c-0.2-1.6-0.4-3.6-2.6-3.3c-1.8,0.3-2.3,2.1-2.3,3.9
		c0,2.3,2.2,3.6,2.3,5.8c-1.6,2.2-3.1,4.5-4.7,6.7c-5.2-0.1-3.6,4-4.2,6.8C529.6,333.9,529,334.9,528.5,335.9z"/>
	<path class="st3" d="M555.7,307.7c1.5-5.2,3.7-10.2,5.4-15.4c2.2-7-0.1-13.2-1.5-19.7c1.6,0,3.2,0,4.9,0
		c6.3,11.9,0.7,22.4-3.7,33.1C559.3,306.9,557.5,307.2,555.7,307.7z"/>
	<path class="st3" d="M539,319.5c-3.1-2.4-5.2-5.1-2.8-9.1c0.8-1.3,1.7-2.8,3.6-2.7c2.3,0.1,2.5,2.3,3.1,3.8c0.6,1.5,0.4,3.4-0.7,5
		C541.4,317.7,540.4,318.7,539,319.5z"/>
	<path class="st5" d="M530.1,333c-1.6-1.7-1.1-3.8-0.6-5.5c0.7-2.4,2.1-4.9,4.8-1.3C532.9,328.4,531.5,330.7,530.1,333z"/>
	<path class="st6" d="M711,484.3c3.5,14,7.1,27.9,10.6,41.9c0.2,0.8,0.4,1.6,0.6,2.3c2.1,6.8,1.6,7.7-5.7,7.6
		c-12.3-0.1-24.5-0.7-36.8-1.1c-10.5-0.2-21.1-0.1-31.6,0.3c-11,0.5-22,0.8-33,2.1c-6.7,0.8-9.7-2.8-8.8-9.4
		c0.7-5.2,1.7-10.3,3.5-15.2c4.5-12.5,14.1-19.2,26.5-22.2c13.9-3.3,28-5.4,42.4-5.9c8.1-0.3,16.2-0.5,24.3-1.5
		C705.8,482.9,708.6,482.5,711,484.3z"/>
	<path class="st6" d="M605.5,444.5c22.2-1.9,44.6-1.5,66.8-2.3c14.6-0.6,29.1-0.4,43.7-0.7c10.1-0.2,12.7,2.2,10.8,12.9
		c-0.9,4.8-2.1,9.2-4.1,13.7c-1.4,3.3-3.7,4.5-6.8,3.7c-6.4-1.8-13.2,0.2-19.6-2c-13.8-2-27.8-1.7-41.6-3.4c-16.1-1.9-32,0.9-48,1.8
		c-4.3,0.3-8.4,0.2-12.3-1.9c-4.4-2.4-6.5-6.6-5.8-11.3c0.7-4.8,3.9-8.2,8.7-9.4C600.1,444.7,602.9,445.2,605.5,444.5z"/>
	<path class="st7" d="M711,484.3c-16.8,1-33.6,1.4-50.3,3.3c-10.5,1.2-21.1,2.9-31.1,6.7c-13.6,5.2-18.9,16.3-21.3,29.5
		c-0.2,1-0.1,2-0.3,2.9c-1.7,8,0.3,10.3,8.7,9.4c13.5-1.4,27.1-2,40.7-1.9c5.9,0,11.7,0,17.6,0c1.6,0,3.3-0.5,4.6,0.8
		c-16,0.7-32,1.2-47.9,2.2c-9.1,0.5-18.2,1.8-27.3,2.7c-1.6,0.2-3,0.1-2.7-2.2c2.1-13.9,0-27.7-2.6-41.3
		c-2.2-11.5-2.5-11.2,8.6-13.2c14-2.4,28-3.9,42.1-5c16.7-1.3,33.1,0.3,49.6,2c3,0.3,6.1,0.7,9.1,1C710.7,481.6,711,482.7,711,484.3
		z"/>
	<path class="st6" d="M696.4,550.7c3.7,0,7.5,0.4,11.2,0c7.1-0.6,13.7,1.3,20.4,3c2.8,0.7,3.5,3,3.4,5.1c-0.2,3.3-0.6,6.9-4.4,8.3
		c-5,1.8-10.4,1.8-15.7,2c-11.5,0.4-23.2,0.9-34.6-0.1c-14.6-1.2-29.2-0.2-43.8-0.9c-0.5-0.2-0.9-0.4-1.4-0.3
		c-2.7,0-5.5,0.1-6.1-3.3c-0.6-3.2,1.4-5.2,3.9-6.6c3.7-2.1,8-2.7,12.1-3.4c17.3-2.9,34.7-3.6,52.2-4.3
		C694.5,550.3,695.5,550.2,696.4,550.7z"/>
	<path class="st8" d="M789,559.6c-7.6,4.8-16.4,5.2-24.9,7c-6.4-1.1-13-2.1-19.5-3.4c-2.8-0.5-3-3.3-3.4-5.5c-0.4-2.7,1.6-3,3.8-3.1
		c1,0,2.2-0.6,3-1.4c9.4-8.9,22.1-10,33.6-14c4.2-1.5,11.5,3.6,13.2,8.2C796.1,550.8,793,557.1,789,559.6z"/>
	<path class="st6" d="M633.8,540.2c27.2-1.4,54.4-3.4,81.8-1.1c-1.1,4.7-1.1,4.7,0.7,9.8c-7.6-0.4-15.1-0.5-22.5-1.3
		c-7.6-0.8-15.1-1.1-22.6,0.1c-4.8,0.7-9.6,0.5-14.4,1c-12.2,1.2-24.4,1.6-36.7,2.3c-5.7,0.7-9-0.6-9.3-3.6
		c-0.3-2.7,2.5-4.6,8.1-5.3C623.9,541.4,628.9,540.5,633.8,540.2z"/>
	<path class="st7" d="M605.5,444.5c-2,1.7-4.6,0.9-6.9,1.6c-7.8,2.2-9.2,7.7-8.7,12.1c0.5,4.6,5.5,8.6,11.5,8.6
		c6.6,0,13.2-0.6,19.8-1.1c9.9-0.6,19.7-2.3,29.8-1.1c8.8,1,17.6,1.5,26.4,2.4c6.3,0.6,12.9,0.2,18.9,2.7c-5.7,1-11.3-0.8-16.9-0.9
		c-18-0.3-35.9,0.8-53.8,2.2c-10.5,0.8-21,2.8-31.5,4.6c-6.2,1-10.5-2.8-11.1-10.2c-0.4-4.7,0.5-9.4,1.2-14c0.5-3.1,2.8-5.3,5.9-5.8
		C595.2,444.6,600.3,443.8,605.5,444.5z"/>
	<path class="st9" d="M803.7,546.8c4.6,7.2-1.1,16.9-7.8,20.6c-13.2,7.4-27.1,8.9-41.7,6.5c-2.4-0.4-4.8,0-7.2-0.6
		c-4.2-1.1-6.6-2.7-4.4-7.4c7.3,1.8,14.8,3.6,22.4,3.4c10.9-0.3,21-3.2,29.8-10.1c5.1-4,4.5-14.8-1.3-18.9
		c-5.7-4.1-11.7-5.2-18.4-2.6c-7.8,3-15.9,5.5-23.7,8.5c-2.2,0.9-3.3,0.3-4.6-1.2c-1.8-2.1,0.5-3.1,1.5-3.8
		c4.6-3.2,9.8-5.2,15.3-6.2c-1.1,4.3-5.4,2.9-8.1,4.8c6.6-2.3,13.1-4.9,20-5.6c6-0.7,12.1-1,17.5,2.2c7.8,4.5,10.2,11.7,7.9,21.1
		C803.5,554.9,801.2,550.2,803.7,546.8z"/>
	<path class="st10" d="M696.4,550.7c-20.8,1.4-41.8,2.1-62.2,6.9c-1.2,0.3-2.5,0.7-3.7,1.2c-2.4,0.9-4.5,2.6-4.3,5.2
		c0.2,3.1,2.9,3.4,5.5,3.5c0.4,0,0.8,0.5,1.2,0.7c-9.2,0.7-18.3,1.6-27.5,2c-7.4,0.3-8.4-1.1-6.7-8.1c1.6-6.7,2.1-7.2,11-7.5
		c15.2-0.4,30.2-2.6,45.4-3.2c12.6-0.5,25.1-1.8,37.7-1.7C694,549.8,695.4,549.5,696.4,550.7z"/>
	<path class="st2" d="M696.6,430.8c-17.8-1.1-34.2,2.8-51,3.1c-5.7,0.1-11.4,0.5-17.4,0.7C636.9,424.2,684.8,421.3,696.6,430.8z"/>
	<path class="st11" d="M803.7,546.8c0.2,5.7,0.3,11.4-5.8,15.6c0.7-2.4,1.1-4.3,1.9-6.1c4.1-9.5-4.9-21.3-16.4-21.2
		c-7,0-13.7,1.3-20.4,3.3c-3,0.9-6.1,1.8-9.9,3c3.1-3.9,7.8-3.4,10.5-6.3c5-2.4,10.4-3.3,15.7-4.5
		C789.9,528.3,802.3,536.6,803.7,546.8z"/>
	<path class="st12" d="M744.4,539.8c-2.4,3.1-2.5,5.8-0.1,8.9c1.1,1.5-0.9,2.2-2.1,1.9c-6.6-1.4-13.4-1.8-19.6-4.5
		c-1.2-0.5-2.5-1-2.6-2.5c-0.1-1.7,1.1-2.8,2.4-3.4c5.7-2.8,12.1-3,18.2-4.1C742.6,535.9,743.6,537.9,744.4,539.8z"/>
	<path class="st7" d="M633.8,540.2c-5.7,1.7-11.7,1.6-17.4,3.5c-2,0.7-4.8,0.7-4.7,3.2c0.1,2.5,2.8,3.3,5,3.8
		c1.1,0.3,2.3,0.1,3.4,0.2c-3.3,1.8-6.9,0.4-10.4,0.8c-0.8,0.1-1.6,0-2.4,0c-2.1,0.2-5,2.4-6.2,0.1c-1-1.9,0.1-4.9,0.5-7.4
		c0.4-2.5,3.1-2,4.4-2.1C615.3,542,624.5,539.7,633.8,540.2z"/>
	<path class="st1" d="M706.5,380.1c-1.2,3.8-2,7.2-0.4,10.7c0.9,2,0,3.1-2,3.7c-6.4,1.8-12.8,1.5-17.4-3.5
		c-4.5-4.9-7.3-10.9-5.1-18.1c1.3-4.3,1.6-8.9,3.2-13c2.7-7.1,1.1-13.3-2-19.8c-4.7-10-0.4-20.3,8.2-24c3.3-1.4,6.6-2.8,10-3.3
		c8.2-1.4,15.8-4.5,22.9-8.3c11.6-6.3,21.4-2.5,31,3.7c9.9,6.5,16.3,15.9,20.1,27c5.2,15.1,1.5,28.7-7.4,41.4
		c-5.2,7.4-11.7,11.5-21,11.4c-3.6,0-6.9,2.5-10.2,4.1c-10.2,5.1-23.2,0.8-28.4-9.3C707.6,382.1,707.2,381.4,706.5,380.1z"/>
	<path class="st3" d="M526.3,269.7c2.5,18.6,0.2,37-5.1,54.8c-3.1,10.2-7.7,20-15.6,28c-8.7,8.7-20.9,7.3-28.6-0.1
		c-10.6-10.2-15.8-23.5-20-37.4c-3.3-10.7-5-21.6-5.6-32.6c-1-17,4.1-26.8,22.5-30.2c7.9-1.4,15.9-2.8,24-2.1
		c0.5,0.9,1.4,1.6,1.2,2.8c-4.9,2.7-10.5,0.9-15.7,2.2c-2.2,0.6-4.5,0.7-6.7,1c-14.8,2.2-19.6,10-20.1,24.3
		c-0.4,12.2,2.1,24.3,6.4,35.8c4,10.8,7.6,21.9,15.4,30.7c-4-9.8-6.9-20.1-8.4-30.7c-1.3-9.3-2.4-18.7-2.6-28.1
		c-0.1-4.1,0.7-8.1,1.9-12c4.5-15.5,20.9-20.8,33.5-17.2C507.8,268.5,517.6,268,526.3,269.7z"/>
	<path class="st4" d="M502.8,258.8c-5.7-0.3-11.3,0.4-16.8,1.9c-9.8,2.6-13.8,9.9-16.3,18.8c-2.3,8.2-0.4,16.5,0.2,24.6
		c0.7,10.5,2.6,20.8,5.7,30.9c1.7,5.3,3.7,10.6,5.8,16.7c-7.3-6.1-11.1-13.6-14.4-21.3c-4.8-11.2-8.9-22.5-10.6-34.7
		c-1.2-9-2.6-18,0.7-26.9c2.5-6.7,6.9-11.2,14.1-12.9c9.2-2.1,18.5-3.3,27.9-3C500.3,254.8,501.5,256.8,502.8,258.8z"/>
	<path class="st13" d="M517.2,232.5c7.5,2.2,17.7,14.2,17.9,20.5c0.1,3.2-2.8,3.5-4.9,4.4c-2.8,1-5,0.4-6.6-2.2
		c-1.5-2.6-0.6-5.4-1.2-8C521.4,242.3,519.8,237.6,517.2,232.5z"/>
	<path class="st13" d="M566,239.9c10.6,6.1,11.9,16.3,3.7,22.8c-1.2,0.9-2.6,2.5-4.1,1.4c-1.6-1.1-2.8-3.3-2-5.1
		C566.4,253.1,568.9,247.2,566,239.9z"/>
	<path class="st3" d="M710.4,496.7c2,11.6,4.7,23,9.1,33.9c0.5,1.2,0.3,2.2-0.7,3c-1,0.8-1.9,0.5-3.1,0.1c-3.4-1.2-4.2-4.1-4.7-7.1
		C709.2,516.7,710.2,506.7,710.4,496.7z"/>
	<path class="st3" d="M721.3,461.4c-8.5-10.9-20-12.8-31.8-13.1c-11.1-0.3-22.2-1.2-33.4-1.3c-4.9,0-9.9-0.5-15.1-0.8
		c0.3-0.4,0.4-0.7,0.5-0.7c8.9-0.4,17.7-1.2,26.6-1c15.9,0.4,31.7-1.5,47.5-1.1c5.7,0.1,8.8,4.3,7.3,9.9
		C722.5,455.7,722,458.1,721.3,461.4z"/>
	<path class="st3" d="M710.6,542.9c-13.3-1.5-26.7-1-40-2.6C684,540.4,697.4,538.8,710.6,542.9z"/>
	<path d="M500,320c1.3-6.1,1.7-13.8,10-17.3c3.5-1.5,7-1.6,9.8,1c2.5,2.3,3.1,5.4,2.2,9.1c-1.2,4.7-1.9,9.5-4.2,13.9
		c-2.2,4.3-4.5,8.4-9.9,8.2c-4-0.2-7.3-5.7-7.8-11.8C500,322.4,500,321.8,500,320z"/>
	<path class="st3" d="M519.5,312.5c0.6,2-0.5,3.7-2.3,4.6c-1.9,0.9-2.5-1.5-3.7-2.4c-0.9-0.7-1.6-1.4-1.9-2.7
		c-0.5-1.8-2.8-3.2-1.2-5.5c1.3-1.9,3.3-2.2,5.2-1.7c2.4,0.6,3.2,2.9,3.9,5C519.7,310.5,519.5,311.4,519.5,312.5z"/>
	<path class="st5" d="M510.7,329.2c-0.1,1.7-0.8,2.8-2.6,2.7c-2.2-0.1-5.4-5.1-5.1-8c0.1-1.5,0.8-2.5,2.4-2.6
		C507.4,321.2,510.9,326.3,510.7,329.2z"/>
</g>
</svg>
