<?xml version="1.0" encoding="utf-8"?>
<!-- Generator: Adobe Illustrator 23.0.1, SVG Export Plug-In . SVG Version: 6.00 Build 0)  -->
<svg version="1.1" id="Layer_4" xmlns="http://www.w3.org/2000/svg" xmlns:xlink="http://www.w3.org/1999/xlink" x="0px" y="0px"
	 viewBox="0 0 1000 1000" style="enable-background:new 0 0 1000 1000;" xml:space="preserve">
<style type="text/css">
	.st0{fill:#6E3720;}
	.st1{fill:#FB9A7A;}
	.st2{fill:#FEFEFE;}
	.st3{fill:#CBB89A;}
	.st4{fill:#C0FEFE;}
	.st5{fill:#E00000;}
	.st6{fill:#7F0000;}
	.st7{fill:none;}
	.st8{fill:#7898AB;}
	.st9{fill:#800000;}
	.st10{fill:#B0F3F2;}
	.st11{fill:#2B5260;}
	.st12{fill:#7F7F7F;}
	.st13{fill:#00407F;}
</style>
<g>
	<path class="st0" d="M590.9,293.9c4.4,3.3,8.1,7.3,9.2,12.8c0.6,2.7,2,3.1,4.3,2.9c4.8-0.3,9.6,0.1,14,2.1
		c8.5,3.8,13.6,10.5,15.6,19.6c0.1,0.6,0.6,1.1,0.9,1.6c1.5,1.9,1.3,4.2,1.1,6.4c-2.2,8.2,0.3,15.7,3.7,22.9c2.3,5,4.4,10,6,15.3
		c0.3,2,0.9,4,1,6.1c0.1,4.5-1,8.6-3.2,12.5c-2.1,2.6-3.3,6-7,7.2c-8.4,4.5-17.1,7.5-26.9,4.9c-1.6-0.4-3.4-0.2-5.1,0.8
		c-8.3,5.3-17.2,6.3-26.4,2.9c-3.3-1.2-6.5-0.6-9.3,0.3c-6.3,2-11.9,0.1-16.6-3.2c-4-2.8-7.1-2.3-11.3-1c-4.5,1.5-4.5,3.2-3,7.2
		c2.7,7.4,4.2,15.2,5.1,23.1c0.8,6.9,1.3,13.9,0.9,20.8c-1,16.7-2.2,33.4-6.3,49.8c-1.8,7.4-2.2,15.1-3.5,22.6
		c-1.2,6.6,2.8,11.9,4.3,17.9c3,11.7-3.6,17.7-12.7,19.6c-18.8,3.9-38,2-57.1,2.1c-4.7,0-9.5-1.1-14.2-1.9
		c-9-1.5-16.6-12.5-13.7-21.5c3.8-12.2,0.7-23-5.2-33.2C426,498,419,480.5,415,461.8c-2.2-10.4-3.1-20.9-2.9-31.5
		c0.4-20.1-5.1-38.9-12.7-57.2c-6.6-15.9-12.8-32-16.4-48.8c-2.2-10.5-3.2-21.3-3-32c0.2-12.4,2.9-24.5,11.2-34.1
		c5.4-6.3,13-10.2,20.9-12.9c13.4-4.6,27.4-6.6,41.5-5.8c19.4,1.1,38.5,4,57.2,9.6c0.6,3.4-0.6,6.1-3.2,8.3c-2.2,0.3-4.2-0.3-6.2-1
		c-11.2-4.1-22.9-4.9-34.5-5.7c-10.5-0.7-21-1.7-31.6-0.2c-11.5,1.6-22.2,4.6-31.4,12.1c-3.7,3-6,6.7-7.8,11
		c-4.2,10.3-3.6,20.9-2.6,31.7c2.2,24,10.8,46.2,19.2,68.4c7,18.6,11.9,37.4,11.9,57.4c0,23.8,8.1,45.6,17.5,67
		c3.2,7.1,6.4,14.3,9.3,21.5c3.6,8.9,4.4,17.9,1.1,27.1c-2.8,7.9-0.9,11.2,7.3,12.9c19.8,4,39.8,4.1,59.6-0.1
		c8.2-1.7,10-5.3,6.9-13.1c-3.4-8.3-3-16.7-2.6-25.4c1.2-22.7,7.1-45,6.3-67.9c-0.4-12.4-1.8-24.7-5.9-36.5
		c-0.8-2.4-1.7-4.5-4.6-5.1c-12.7-2.6-24.6-7.5-36.2-13.1c-14-6.7-28.7-9.3-43.9-10.2c-1-0.1-2-0.1-2.9-0.3
		c-1.1-0.3-2.4-0.3-2.6-1.7c-0.2-1.3,0.7-2.1,1.6-2.8c2.6-2.1,5.7-2.9,8.9-3.7c12.8-3,24.5,0.6,36,5.5c8.4,3.6,16.5,7.8,25.1,10.8
		c8.2,2.9,16.5,5.1,25.3,3.1c4.5-1,4.7-1.5,1.8-5.1c-8.9-11.1-12.1-23.9-11-37.9c0.7-2.7,0.8-5.6,1.8-8.3c2.1-5.9,4.1-11.9,7.2-17.5
		c1.7-2.5,3.4-4.9,5-7.4c2.3-3.9,6-6.5,9.3-9.4c6.9-5.8,14.9-8.9,23.8-9.8c2.6-0.3,5.1-0.3,7.6,0.5c1.4,0.3,2.8,0.7,4.2,1.1
		c2.3,0,5.1,2.8,6.5,0.4c1.3-2.1-1.6-4.1-3-6c-0.7-0.9-1.4-1.8-0.8-3C585.5,295.3,587.7,293.3,590.9,293.9z"/>
	<path d="M808.6,547.9c-2.3-16.5-19.9-23-32.1-21.1c-8.9,1.4-16.9,5.4-25.2,8.7c-1.2,0.5-2.3,1.3-3.2-0.3c-2.8-4.6-6.7-4.8-11.2-3.2
		c-2.3,0.8-3.2-0.2-3.9-2.5c-4.5-14.7-8.4-29.6-11.4-44.7c-0.4-1.9,0-2.3,1.8-2.8c3-0.8,6.4-1.2,8.2-4.2
		c6.8-11.6,11.2-23.8,7.1-37.4c-1.5-5.1-4.3-9.1-10.6-10.1c-3.4-0.5-6.7-0.5-10-0.6c-6.7-0.3-13.3,0.8-19.4-4.5
		c-5.5-4.6-13-6-20.1-7.3c-3.1-0.5-4.9-1.9-5.4-5c-1.4-9.9-2.9-19.8-4.3-29.6c-0.2-1.6,0.1-2.9,1.9-3.4c1.9-3.6,2.8-7.4,1.5-11.5
		c-0.2-0.2-0.3-0.3-0.5-0.3c0,0,0,0,0,0c-0.8-0.4-1.4,0.3-1.9,0.9c-3.4,4.7-8.3,6.1-13.7,7c-3.5,0.6-7.3-0.3-10.7,1.3
		c-0.3,0.2-0.7,0.4-1,0.6c0.3,2,0.6,4,1,5.9c0.4,0.3,0.8,0.5,1.2,0.7c2.6,1.2,5.5,0.6,8.2,0.4c5.7-0.5,5.9-0.4,6.7,5.4
		c0.9,6.1,1.7,12.2,2.6,18.3c1.2,8.1,1,8.2-6.9,9c-2.3,0.2-4.5,0.6-6.7,1c-3.6,0.6-5.1-0.8-5.5-4.3c-0.4-4.2-0.1-8.5-0.3-12.7
		c-0.1-1.8,0.4-4-1.6-5c-0.2-0.1-0.4-0.2-0.6-0.3c-2,2.3-4,4.7-6.1,7c0.4,2.4,0.4,4.7,0.9,7.1c0.7,3.6,0.8,7.6-0.3,11.1
		c-0.7,2.5-4.7,2.1-6.9,3.5c-1.2,0.7-2.5,1.4-3.5,2.4c-6.3,6.4-14,8.8-22.9,8.2c-5.2-0.3-10.4-0.1-15.6,0
		c-7.6,0.1-10.6,2.3-12.9,9.3c-2.3,6.9-1.7,14.2-0.9,21.1c0.9,7.6,3.2,15.4,12,18.3c1.6,0.5,1.1,1.6,1.5,2.6
		c4.7,11.6,4.8,23.9,5.6,36c0.9,13.8-1.7,27.3-4.8,40.7c-2.3,9.9,2.1,15.6,12.2,15.6c15.3,0.1,30.6-1.3,45.9-1.9
		c11.8-0.5,23.6,0.2,35.4,0.8c11,0.5,22.1,0.1,33.2,0.1c7.2,0,14.4,0.1,20.9-3.5c1.4-0.8,2.3,0.2,3.5,0.5c7.5,2.2,15.2,3.4,22.8,3.9
		c11.9,0.7,23.2-2.3,33.7-7.9C806.2,566,810.1,558.5,808.6,547.9z M744.9,554.6c1-0.1,2.3-0.6,3-1.3c9.4-9,22.1-10,33.5-14.1
		c4.2-1.5,11.4,3.3,13.3,8.1c1.4,3.3-1.6,9.9-5.5,12.3c-7.8,4.7-16.6,5.5-25.4,7c-6.3-1.1-12.7-2-19-3.3c-2.9-0.6-3.4-3.3-3.5-5.9
		C741.1,554.9,742.9,554.7,744.9,554.6z"/>
	<path class="st0" d="M670.8,379.9c0.3-3.9,0.7-7.9,1-11.8c-0.3-0.4-0.5-0.9-0.5-1.4c0-0.3,0-0.7,0.1-1c2.5-9,3.1-18,0.3-27
		c-1-5.2-1.5-10.4,0.5-15.5c3.8-9.8,10.9-16.4,20.8-19.5c9.5-2.9,18.9-5.6,28.1-9.5c16.1-6.8,30.4-1.6,43.1,8.9
		c4.7,3.9,9.6,7.8,13.2,13.2c5.2,7.8,7.6,16,8.8,25.2c1.6,11.9-0.7,22.9-6.4,33c-5.7,10-12.8,18.9-24.8,22.6c-3,0.9-5.2-1.2-7.9-0.2
		c-3.1,1.2-6.3,2.1-9.2,3.6c-4.7,2.5-9.3,3.9-14.6,1.9c-6.7-2.6-13-0.7-19.6,1.4c-13.6,4.5-25.4-1.7-30.9-14.2
		C671.6,386.6,671.5,383.2,670.8,379.9z"/>
	<path d="M507.7,256.9c1-2.7,2-5.3,2.9-8c6.1-7.4,10.5-6.9,17.5-3.4c7.3,3.7,13.7,8.7,17.7,16.1c0.5,1,1.7,0.9,2,1.8
		c3.1,3.2,4.3,7.3,6,11.2c2.8,9.3-1.8,16-11.4,16.6c-1.3,0.1-2.6,0.1-3.8,0c-10.5-0.5-19.3-4.1-25.3-13.3c-1.1-1.6-1.6-3.5-2.5-5.2
		c-0.9-1.5-1.7-3-2.3-4.6C507.8,264.5,505.5,260.9,507.7,256.9z"/>
	<path d="M590.9,293.9c-2.6,1.1-4.9,3.1-8,3.1c-1,2.1-3,2-4.8,2.1c-1.3,0.1-2.6,0-4,0c-2.9,0.1-5.8-0.1-8.6-0.9
		c-3.5-0.9-6.2-2.7-8-5.9c-2.2-4.7-0.2-9.1,1.1-13.6c1.6-2.7,2.3-6,4.9-8.1c1.8-1.6,2.2-4,4-5.7c6.1-6,8.8-6.7,16.2-2.2
		c6.4,3.9,11,9.5,12,17.3C596.4,285.4,594.4,290,590.9,293.9z"/>
	<path d="M671.8,338.8c4.5,7.4,4.2,15.1,1.7,22.9c-0.6,1.8,0.2,4-1.5,5.4c-2.2-2-1.2-4.9-1.9-7.3c-0.3-0.9-0.4-1.9-0.5-2.9
		c-1.9-14-9.2-17.8-23.9-17.4c-3.6,0.1-7.2,2.1-10.9,0.3c0-2.3,0-4.6,0-6.9c8.4-1.6,16.9-2.7,25.4-0.8c3.6,0.8,6.1,3.7,9.1,5.7
		C670.1,338.4,670.7,339.2,671.8,338.8z"/>
	<path class="st0" d="M563.5,270.7c-0.8,2.8-2.1,5.3-3.8,7.7c-2.9-0.2-5.2-1.6-6.9-4c-1.7-3.6-4-6.9-4.9-10.8
		C553.3,265.4,558.5,267.8,563.5,270.7z"/>
	<path class="st1" d="M507.7,256.9c0.6,3.9,1.3,7.8,1.9,11.6c-1.4,1.3-3.1,0.6-4.6,0.5c-9.3-0.7-18.5,0.3-27.6,1.8
		c-10.1,1.7-15,8.3-17,17.6c-2.4,11.4-0.3,22.6,1.8,33.8c2.2,12.1,7.2,23.3,12.7,34.2c4.2,8.3,11.6,13.4,20.6,14.8
		c8.7,1.3,15-3.9,20.5-10c2-2.2,3-5.5,6.6-5.9c-0.8,15.4,2.6,29.4,13.7,40.7c1.8,1.8,1.9,2.5-0.9,3.4c-11.2,3.4-21.9,1.2-32.3-3
		c-10.7-4.3-21.2-9.2-31.9-13.4c-9.8-3.8-20-4.5-30.2-1.2c-2.6,0.8-5.1,1.8-7.2,4.4c7.6,0.8,14.6,2,21.7,2.3
		c10.3,0.4,19.1,5,28.3,8.7c12.5,5,24.5,11.2,38,12.9c1.8,0.2,2.1,1.6,2.4,2.7c3.1,9.5,5.1,19.1,6.2,29.1
		c2.3,20.2-1.4,39.7-3.8,59.5c-1.4,11-2.7,22.1-2.2,33.3c0.2,4.6,2.3,8.6,3.8,12.8c2.3,6.7,0.2,11.2-6.6,12.8
		c-7.2,1.7-14.5,3.1-21.9,3.1c-13.9,0-27.8,0.8-41.4-2.9c-8.2-2.2-10.6-5.8-7.6-13.6c4.3-10.7,2.4-20.8-2.2-30.7
		c-6.7-14.4-12.7-29.1-18.3-43.9c-3.9-10.3-6.2-21.2-6.4-32.4c-0.4-25.6-5.7-50.1-15.5-73.9c-7.1-17.4-13.4-35.3-15.7-54.3
		c-0.7-5.6-1.5-11.2-1.8-16.7c-0.6-11.1,1.3-22.1,8.7-30.8c6.1-7.2,14.8-11.1,24.1-13.3c16.1-3.9,32.2-2.6,48.4-1.3
		c11.3,0.9,22.2,3.1,33,6.2C506,256.1,506.8,256.6,507.7,256.9z"/>
	<path class="st1" d="M610.1,385.8c-3.4,10-8.7,17.2-19,19.3c-4,0.8-7.7-0.4-11.1-2.3c-2.4-1.3-5-2.3-7.4-1
		c-7.7,4.2-14.1,1.5-20.2-3.4c-7.2-5.9-14.3-11.9-17-21.6c-4.2-14.9-1.3-28.8,5.5-42.2c5-9.8,12.3-16.7,23.6-18.7
		c8.5-1.5,16.6,1.3,24.7,2.8c2.8,0.5,5.2,0.7,8,0c14-3.3,28.4,7.7,27.7,21.1c-0.1,1.7-0.4,3.5-1,5.2c-2.2,6.3,0.1,11.6,3.1,16.9
		c3.2,5.6,5.6,11.5,7.1,17.8c2.7,11.3-5.8,21.7-17.4,20.7c-2.5-0.2-5.1-0.9-4.5-4.7C612.7,392.4,611.3,389.3,610.1,385.8z"/>
	<path class="st2" d="M522.6,355.4c-4,3.9-6.8,8.8-11.4,12.3c-12.8,9.6-21.7,4.7-31.3-2.6c-6.4-4.8-8.1-12.3-11.2-18.9
		c-7.5-16.1-10.9-33.3-10.5-51c0.2-7.7,2.3-14.9,8-20.6c4.1-4.1,9.5-5.1,14.6-5.7c9.6-1,19.3-2.7,28.9-0.3c0.7,1.3,1.5,2.5,2.2,3.8
		c-3.3,2-6.7,0.5-9.9,0c-8.4-1.4-16.6,0.1-24.6,2.2c-6,1.5-9.7,5.5-11.3,11.6c-3.8,14.9-1.3,29.5,2.9,43.8
		c3.1,10.6,7.6,20.8,13.7,30.7c-2.1-3.7-2.8-7.4-3.6-11c-0.7-3.7-1.4-7.4-2-11c-2-14.2-3.8-28.3-0.9-42.6c1.8-9,6.5-15.1,15.3-17.8
		c7.4-2.3,14.9-3.4,22.4-0.8c3.2,2.3,4.8,6,8.3,8.2c5,3,10.4,3.9,16,4.8c2.3,1.6,2.6,4.1,2.4,6.5c-0.8,9-1,18.1-4.4,26.6
		c-1.6,2.2-2.1,5.1-4.7,6.7c-1.1-0.7-1.1-1.9-1.5-3c-1.8-4.9-5.5-6.6-10.4-4.8c-7.9,3-13.2,13.7-10.8,21.7c2,6.5,6.3,8.2,12.1,4.9
		c1.1-0.6,2-1.7,3.5-1.1C523.1,350.1,524.1,353,522.6,355.4z"/>
	<path class="st3" d="M634.8,339.9c7-0.9,13.8-2.8,21.2-1.1c10.5,2.5,12.6,7.2,14.8,16.5c0.9,3.8,0.8,7.9,1.2,11.9
		c-0.1,0.3-0.1,0.7-0.2,1c-2.6,6.1-7.8,8-13.9,8.9c-4.5,0.7-8.9,1-13.4,0.9c-2.5-9.4-8.4-17.5-10.2-27.2
		C633.6,347,633.1,343.4,634.8,339.9z"/>
	<path class="st3" d="M645.5,383.8c4.1-0.3,8.3,0.4,12.5-0.9c2.1-0.7,3.8-0.4,4.3,3.1c1.3,8.6,2.8,17.2,3.6,25.9
		c0.5,5.8-0.5,7-6.6,6.9c-3,0-5.7,1.6-8.5,1c-2.2-0.4-4.6,2.4-5.8,0.5c-1.3-2.1-1.4-5.2-1.5-7.8c-0.2-4.7-0.1-9.4-0.1-14.1
		c0-0.8,0-1.6-0.9-2C643.8,392.2,645.9,388.3,645.5,383.8z"/>
	<path class="st1" d="M536.1,323.3c1-8.7,2-17.4,3-26.1c0.3-2.4-0.1-4.8-1-7.1c3.6-0.3,7.4,0.3,10.7-1.6c4.7-2.7,5.9-7.4,4-14.2
		c2.3,1.4,5,2,6.9,4c-0.4,4.5-3.6,8.8-1.3,13.6c-4.3,7.6-9,14.9-13.4,22.4C542,317.4,538.4,319.8,536.1,323.3z"/>
	<path d="M524.4,347.7c-3.8,2.7-7.2,6.6-12.7,3c-3.2-2.1-4.3-5.3-4.6-8.3c-1.1-9.8,3.8-17.8,12.7-21.6c6.3-2.7,11.3,1.6,11.6,9.3
		C529,335.9,526.7,341.8,524.4,347.7z"/>
	<path class="st2" d="M545,314.5c2.9-8.4,7.4-15.9,13.4-22.4c1.7,2.5,3.9,4.4,7,5c2.9,1.7,4.6,4,2.9,7.5c-5.1,1.8-10.7,1.8-15.5,4.9
		C550.3,311.1,547.4,312.4,545,314.5z"/>
	<path class="st1" d="M578.1,298c1.6-0.4,3.4,0.2,4.8-1c1.7,2.6,4.8,4.2,5.5,7.7c0.6,2.7,1,4.5-2.8,3.1c-1.8-0.7-3.7-0.8-5.6-1.2
		C578.7,303.8,576.8,301.3,578.1,298z"/>
	<path class="st4" d="M568.3,304.5c-0.1-2.8-1.1-5.3-2.9-7.5c2.8,1.2,5.9,0.6,8.8,1c2.1,2.1,3.6,4.4,2,7.5
		C573.7,304.1,570.9,305,568.3,304.5z"/>
	<path class="st2" d="M576.2,305.5c-0.7-2.5-1.3-5-2-7.5c1.3,0,2.6,0,3.9,0c0.5,2.9,2.4,5.4,1.9,8.5
		C578.7,306.2,577.5,305.8,576.2,305.5z"/>
	<path class="st5" d="M711,484.3c3.5,14,7.1,27.9,10.6,41.9c0.2,0.8,0.4,1.6,0.6,2.3c2.1,6.8,1.6,7.7-5.7,7.6
		c-12.3-0.1-24.5-0.7-36.8-1.1c-10.5-0.2-21.1-0.1-31.6,0.3c-11,0.5-22,0.8-33,2.1c-6.7,0.8-9.7-2.8-8.8-9.4
		c0.7-5.2,1.7-10.3,3.5-15.2c4.5-12.5,14.1-19.2,26.5-22.2c13.9-3.3,28-5.4,42.4-5.9c8.1-0.3,16.2-0.5,24.3-1.5
		C705.8,482.9,708.6,482.5,711,484.3z"/>
	<path class="st5" d="M605.5,444.5c22.2-1.9,44.6-1.5,66.8-2.3c14.6-0.6,29.1-0.4,43.7-0.7c10.1-0.2,12.7,2.2,10.8,12.9
		c-0.9,4.8-2.1,9.2-4.1,13.7c-1.4,3.3-3.7,4.5-6.8,3.7c-6.4-1.8-13.2,0.2-19.6-2c-13.8-2-27.8-1.7-41.6-3.4c-16.1-1.9-32,0.9-48,1.8
		c-4.3,0.3-8.4,0.2-12.3-1.9c-4.4-2.4-6.5-6.6-5.8-11.3c0.7-4.8,3.9-8.2,8.7-9.4C600.1,444.7,602.9,445.2,605.5,444.5z"/>
	<path class="st6" d="M711,484.3c-16.8,1-33.6,1.4-50.3,3.3c-10.5,1.2-21.1,2.9-31.1,6.7c-13.6,5.2-18.9,16.3-21.3,29.5
		c-0.2,1-0.1,2-0.3,2.9c-1.7,8,0.3,10.3,8.7,9.4c13.5-1.4,27.1-2,40.7-1.9c5.9,0,11.7,0,17.6,0c1.6,0,3.3-0.5,4.6,0.8
		c-16,0.7-32,1.2-47.9,2.2c-9.1,0.5-18.2,1.8-27.3,2.7c-1.6,0.2-3,0.1-2.7-2.2c2.1-13.9,0-27.7-2.6-41.3
		c-2.2-11.5-2.5-11.2,8.6-13.2c14-2.4,28-3.9,42.1-5c16.7-1.3,33.1,0.3,49.6,2c3,0.3,6.1,0.7,9.1,1C710.7,481.6,711,482.7,711,484.3
		z"/>
	<path class="st5" d="M696.4,550.7c3.7,0,7.5,0.4,11.2,0c7.1-0.6,13.7,1.3,20.4,3c2.8,0.7,3.5,3,3.4,5.1c-0.2,3.3-0.6,6.9-4.4,8.3
		c-5,1.8-10.4,1.8-15.7,2c-11.5,0.4-23.2,0.9-34.6-0.1c-14.6-1.2-29.2-0.2-43.8-0.9c-0.5-0.2-0.9-0.4-1.4-0.3
		c-2.7,0-5.5,0.1-6.1-3.3c-0.6-3.2,1.4-5.2,3.9-6.6c3.7-2.1,8-2.7,12.1-3.4c17.3-2.9,34.7-3.6,52.2-4.3
		C694.5,550.3,695.5,550.2,696.4,550.7z"/>
	<path class="st7" d="M789.2,559.6c-7.8,4.7-16.6,5.5-25.4,7c-6.3-1.1-12.7-2-19-3.3c-2.9-0.6-3.4-3.3-3.5-5.9
		c-0.1-2.5,1.7-2.7,3.6-2.8c1-0.1,2.3-0.6,3-1.3c9.4-9,22.1-10,33.5-14.1c4.2-1.5,11.4,3.3,13.3,8.1
		C796.1,550.6,793.1,557.2,789.2,559.6z"/>
	<path class="st5" d="M633.8,540.2c27.2-1.4,54.4-3.4,81.8-1.1c-1.1,4.7-1.1,4.7,0.7,9.8c-7.6-0.4-15.1-0.5-22.5-1.3
		c-7.6-0.8-15.1-1.1-22.6,0.1c-4.8,0.7-9.6,0.5-14.4,1c-12.2,1.2-24.4,1.6-36.7,2.3c-5.7,0.7-9-0.6-9.3-3.6
		c-0.3-2.7,2.5-4.6,8.1-5.3C623.9,541.4,628.9,540.5,633.8,540.2z"/>
	<path class="st6" d="M605.5,444.5c-2,1.7-4.6,0.9-6.9,1.6c-7.8,2.2-9.2,7.7-8.7,12.1c0.5,4.6,5.5,8.6,11.5,8.6
		c6.6,0,13.2-0.6,19.8-1.1c9.9-0.6,19.7-2.3,29.8-1.1c8.8,1,17.6,1.5,26.4,2.4c6.3,0.6,12.9,0.2,18.9,2.7c-5.7,1-11.3-0.8-16.9-0.9
		c-18-0.3-35.9,0.8-53.8,2.2c-10.5,0.8-21,2.8-31.5,4.6c-6.2,1-10.5-2.8-11.1-10.2c-0.4-4.7,0.5-9.4,1.2-14c0.5-3.1,2.8-5.3,5.9-5.8
		C595.2,444.6,600.3,443.8,605.5,444.5z"/>
	<path class="st8" d="M803.7,546.8c4.6,7.2-1.1,16.9-7.8,20.6c-13.2,7.4-27.1,8.9-41.7,6.5c-2.4-0.4-4.8,0-7.2-0.6
		c-4.2-1.1-6.6-2.7-4.4-7.4c7.3,1.8,14.8,3.6,22.4,3.4c10.9-0.3,21-3.2,29.8-10.1c5.1-4,4.5-14.8-1.3-18.9
		c-5.7-4.1-11.7-5.2-18.4-2.6c-7.8,3-15.9,5.5-23.7,8.5c-2.2,0.9-3.3,0.3-4.6-1.2c-1.8-2.1,0.5-3.1,1.5-3.8
		c4.6-3.2,9.8-5.2,15.3-6.2c-1.1,4.3-5.4,2.9-8.1,4.8c6.6-2.3,13.1-4.9,20-5.6c6-0.7,12.1-1,17.5,2.2c7.8,4.5,10.2,11.7,7.9,21.1
		C803.5,554.9,801.2,550.2,803.7,546.8z"/>
	<path class="st9" d="M696.4,550.7c-20.8,1.4-41.8,2.1-62.2,6.9c-1.2,0.3-2.5,0.7-3.7,1.2c-2.4,0.9-4.5,2.6-4.3,5.2
		c0.2,3.1,2.9,3.4,5.5,3.5c0.4,0,0.8,0.5,1.2,0.7c-9.2,0.7-18.3,1.6-27.5,2c-7.4,0.3-8.4-1.1-6.7-8.1c1.6-6.7,2.1-7.2,11-7.5
		c15.2-0.4,30.2-2.6,45.4-3.2c12.6-0.5,25.1-1.8,37.7-1.7C694,549.8,695.4,549.5,696.4,550.7z"/>
	<path class="st3" d="M628,434.5c9.6-10.5,57.6-13.2,68-4C673.3,430.6,651.1,435,628,434.5z"/>
	<path class="st10" d="M803.7,546.8c0.2,5.7,0.3,11.4-5.8,15.6c0.7-2.4,1.1-4.3,1.9-6.1c4.1-9.5-4.9-21.3-16.4-21.2
		c-7,0-13.7,1.3-20.4,3.3c-3,0.9-6.1,1.8-9.9,3c3.1-3.9,7.8-3.4,10.5-6.3c5-2.4,10.4-3.3,15.7-4.5
		C789.9,528.3,802.3,536.6,803.7,546.8z"/>
	<path class="st11" d="M739,536.2c4.1-0.1,5.9,2.1,4.4,5.2c-1.1,2.3-1.3,4.3,0.2,6.3c2,2.5,0.6,3.4-1.6,3
		c-6.3-1.2-12.7-1.9-18.8-4.1c-1.4-0.5-3.4-1-3.4-3c0-2.1,1.7-2.9,3.3-3.7C728.4,537.4,734.2,538,739,536.2z"/>
	<path class="st6" d="M633.8,540.2c-5.7,1.7-11.7,1.6-17.4,3.5c-2,0.7-4.8,0.7-4.7,3.2c0.1,2.5,2.8,3.3,5,3.8
		c1.1,0.3,2.3,0.1,3.4,0.2c-3.3,1.8-6.9,0.4-10.4,0.8c-0.8,0.1-1.6,0-2.4,0c-2.1,0.2-5,2.4-6.2,0.1c-1-1.9,0.1-4.9,0.5-7.4
		c0.4-2.5,3.1-2,4.4-2.1C615.3,542,624.5,539.7,633.8,540.2z"/>
	<path class="st1" d="M706.1,379.7c0.2,3.3-1.5,5.4-1,8c1.3,6.5,0.7,7.2-5.9,7.8c-10.6,1-20.8-11-18.1-21.3c1.7-6.7,3.6-13.3,5.1-20
		c1.1-4.8-1.2-9.1-3-13.3c-2.6-6-3.4-11.8,0.1-17.9c2.5-4.5,6.6-7.2,10.9-8.2c12.1-2.8,23.5-7.3,34.8-12.3c4.7-2.1,9.3-1.9,13.6-0.4
		c18.7,6.8,30,20.1,33.9,39.7c3.1,15.3-3,27.6-12.2,38.9c-3.4,4.2-8.1,6.7-13.3,6.8c-5.5,0.1-9.9,2.3-14.5,4.6
		c-10.2,5.1-23,0.8-28.4-9.4C707.6,382,707.1,381.3,706.1,379.7z"/>
	<path class="st4" d="M513.8,277.3c-8.9,0.2-17.8-0.5-26.2,3.8c-5.8,2.9-8.7,7.7-9.9,13.6c-3.3,15.9-1.4,31.7,1.4,47.5
		c1.3,7.6,2.7,15.2,5.9,22.3c-2.8-1.9-4.7-4.6-6.2-7.5c-6.5-12.6-12.2-25.4-14.3-39.5c-1.5-10.4-2.8-20.7,0.1-31.2
		c2.2-8.3,7.5-11.8,15.1-13.8c10.8-2.7,21.4-1.9,32.1,0C513,273.8,513.3,275.6,513.8,277.3z"/>
	<path class="st12" d="M531.6,254.2c7.8,4.8,12.9,11.9,16.5,20c2.3,5.2-2.6,4.7-5.3,5.6c-3.3,1.1-8.4-2.8-7.5-5.8
		c2-6.5-0.9-11.8-3.2-17.4C531.9,255.9,531,255.3,531.6,254.2z"/>
	<path class="st12" d="M582.9,267.6c5.5,3,8.4,7.4,8.6,12.5c0.2,4.7-3.1,8.1-7.7,10.1c-1.8,0.8-3.2,1.2-4.7-0.5
		c-1.5-1.7-1.7-4-0.4-5.3C583.2,279.8,583.2,274.2,582.9,267.6z"/>
	<path class="st2" d="M522.2,323.2c3.6,0.1,7.4,3.5,7,6.9c-0.3,2.7-1.3,5.5-4.6,5.7c-2.3,0.2-6.2-6.6-6.1-9.9
		C518.7,323.5,520.2,323.1,522.2,323.2z"/>
	<path class="st13" d="M509.8,341.4c0-1.8,0.3-3.3,2.5-3.4c2.1-0.1,5.3,5,5.3,8.5c0,1.4-0.3,2.7-1.9,2.9
		C513.4,349.7,509.8,344.7,509.8,341.4z"/>
	<path class="st2" d="M710.3,496.5c2.1,11.7,4.6,23.3,9.2,34.3c0.4,0.9,0.2,1.9-0.6,2.7c-1,0.9-1.9,0.8-3.1,0.4
		c-3.3-1.1-4.4-4-4.9-6.9C709.2,516.8,710.2,506.7,710.3,496.5z"/>
	<path class="st2" d="M641.3,445.9c13-0.4,26-2.1,39.1-1.6c12,0.5,23.9-1.6,35.8-1c4.7,0.3,8.6,4.6,7.2,9.1
		c-0.8,2.7-0.4,5.7-2.4,8.3c-5-5.5-11-9.7-18.7-10.9c-3.1-0.5-6.3-1.6-9.4-1.5c-9.7,0.5-19.3-1.6-29-1.1
		C656.3,447.7,648.9,445.5,641.3,445.9z"/>
	<path class="st2" d="M670.6,540.4c13.4,0,26.8-1.5,40,2.4C697.3,541.9,683.9,541.7,670.6,540.4z"/>
</g>
</svg>
