<?xml version="1.0" encoding="utf-8"?>
<!-- Generator: Adobe Illustrator 23.0.1, SVG Export Plug-In . SVG Version: 6.00 Build 0)  -->
<svg version="1.1" id="Layer_4" xmlns="http://www.w3.org/2000/svg" xmlns:xlink="http://www.w3.org/1999/xlink" x="0px" y="0px"
	 viewBox="0 0 1000 1000" style="enable-background:new 0 0 1000 1000;" xml:space="preserve">
<style type="text/css">
	.st0{fill:#6E3720;}
	.st1{fill:#FB9A7A;}
	.st2{fill:#CBB89A;}
	.st3{fill:#FEFEFE;}
	.st4{fill:#C0FEFE;}
	.st5{fill:#E00000;}
	.st6{fill:#7F0000;}
	.st7{fill:none;}
	.st8{fill:#7898AB;}
	.st9{fill:#800000;}
	.st10{fill:#B0F3F2;}
	.st11{fill:#2B5260;}
	.st12{fill:#7F7F7F;}
	.st13{fill:#808080;}
	.st14{fill:#00407F;}
</style>
<g>
	<path class="st0" d="M581.1,272.4c11.7,10.3,11.7,22.7,6.1,35.7c8.7,3,17.7,0.6,26.5,2.3c7.4,1.4,12.3,5.5,16.3,11.4
		c2.3,3.4,3.5,7.4,4.9,11.2c1.5,1.9,1.3,4.2,1.1,6.4c-2.2,8.2,0.3,15.7,3.7,22.9c2.3,5,4.4,10,6,15.3c0.3,2,0.9,4,1,6.1
		c0.1,4.5-1,8.6-3.2,12.5c-2.1,2.6-3.3,6-7,7.2c-8.4,4.5-17.1,7.5-26.9,4.9c-1.6-0.4-3.4-0.2-5.1,0.8c-8.3,5.3-17.2,6.3-26.4,2.9
		c-3.5-1.3-6.8-0.6-9.8,0.3c-7,2.2-12.5-0.8-17.9-4.1c-4.9-2.9-9.4-6.7-13.3-11.1c-0.7-0.8-1.2-2.1-2.7-1.5
		c-1.9,0.9-0.6,2.3-0.3,3.3c2.7,11.9,5.4,23.7,8.3,35.5c0.4,1.6,0.4,3.2,0.4,4.8c-0.7,24.8-3.5,49.3-10.1,73.2
		c-2.8,10.1-4,20.2,2.8,29.6c2.9,4.1,3.8,9,3.4,14.1c-0.5,7.1-7.5,11.7-14,13c-13.4,2.7-27,1.8-40.5,2.1c-10,0.2-20-0.4-29.8-2.1
		c-10.6-1.8-18.7-14.2-12.3-26.9c4.5-8.9,3.9-16.5-0.6-25.1c-10.1-19.4-18-39.7-22.6-61.1c-2.2-10.3-4.3-20.8-2.5-31.8
		c1.9-11-2.5-21.3-6-31.6c-5.5-16-13.2-31-19-46.9c-4.7-12.9-8.5-26.1-10-39.9c-0.8-7.7-1.8-15.3-1.9-23
		c-0.4-25.7,14.9-40.9,37.8-47.9c17.5-5.3,35.3-6.2,53.3-5.5c10.1,0.4,20.1,2.5,30,4.9c1.2,2.8,0.5,5.4-0.8,7.9
		c-1.7,1.1-3.5,0.5-5.2,0.1c-18.6-4.3-37.3-4.2-56.2-1.5c-6.5,0.9-12.8,2.2-19.1,4c-22.1,6.4-30.4,26.2-28.3,46.4
		c2.8,27.5,12,53.2,22.6,78.5c5.9,14.3,12.1,28.5,13.6,44.1c1,9.5,1.4,19.1,2.1,28.7c1.6,21.2,9,40.5,18.1,59.4
		c3.1,6.4,6.7,12.7,8.9,19.5c2.2,6.7,2,13.1-1.6,19.3c-1.3,2.3-2.5,4.6-3.3,7c-2,5.4-0.5,8.7,5,10.7c5.9,2.1,12.1,2.9,18.2,3.2
		c12.7,0.5,25.4,1,38-1.1c2.4-0.4,4.8-0.9,7.2-1.5c7.2-2.1,8.9-5.6,6-12.4c-0.3-0.6-0.5-1.2-0.8-1.8c-6.1-9.8-7.1-20.3-4.9-31.5
		c2.7-13.7,4.4-27.6,6-41.5c2.6-22.7,1.9-45.1-4.7-67.1c-0.7-2.4-1.5-4.7-4.5-5.1c-11.1-1.5-21.3-5.9-31.5-10.2
		c-12.9-5.4-26.1-7.7-40-7.3c-2.8,0.1-5.5,0.2-8.3-0.2c-1.1-0.2-2.4-0.2-2.8-1.6c-0.3-1.3,0.7-2.1,1.6-2.8c2.8-2.3,5.8-4.2,9.4-5.1
		c7.9-1.9,15.7-2.2,23.6,0c9.3,2.5,18.2,6.2,27,9.9c7.9,3.3,16.2,4.9,24.6,5.6c5.9,0.5,6.6-0.6,4.4-6.1c-4.9-12.4-5.8-24.9-1.1-37.6
		c2-4.7,3.6-9.7,6.1-14.2c2.4-3.3,4.5-6.8,7-10.1c2-2.4,4.5-4.2,6.9-6.1c0.8-0.7,1.6-1.5,2.4-2.3c2.4-1.8,5.2-2.9,7.8-4.3
		c2.6-1.3,5.2-2.4,8.1-2.9c1.9-0.1,3.8-0.4,5.7-0.8c0.6-0.1-0.2-0.1,0.5-0.1c8.2-0.4,11-4.4,9.8-12.8c-0.7-5-3.9-8.8-5.6-13.3
		C574.8,274.4,577.7,273,581.1,272.4z"/>
	<path d="M808.6,547.9c-2.3-16.5-19.9-23-32.1-21.1c-8.9,1.4-16.9,5.4-25.2,8.7c-1.2,0.5-2.3,1.3-3.2-0.3c-2.8-4.6-6.7-4.8-11.2-3.2
		c-2.3,0.8-3.2-0.2-3.9-2.5c-4.5-14.7-8.4-29.6-11.4-44.7c-0.4-1.9,0-2.3,1.8-2.8c3-0.8,6.4-1.2,8.2-4.2
		c6.8-11.6,11.2-23.8,7.1-37.4c-1.5-5.1-4.3-9.1-10.6-10.1c-3.4-0.5-6.7-0.5-10-0.6c-6.7-0.3-13.3,0.8-19.4-4.5
		c-5.5-4.6-13-6-20.1-7.3c-3.1-0.5-4.9-1.9-5.4-5c-1.4-9.9-2.9-19.8-4.3-29.6c-0.2-1.6,0.1-2.9,1.9-3.4c1.9-3.6,2.8-7.4,1.5-11.5
		c-0.2-0.2-0.3-0.3-0.5-0.3c0,0,0,0,0,0c-0.8-0.4-1.4,0.3-1.9,0.9c-3.4,4.7-8.3,6.1-13.7,7c-3.5,0.6-7.3-0.3-10.7,1.3
		c-0.3,0.2-0.7,0.4-1,0.6c0.3,2,0.6,4,1,5.9c0.4,0.3,0.8,0.5,1.2,0.7c2.6,1.2,5.5,0.6,8.2,0.4c5.7-0.5,5.9-0.4,6.7,5.4
		c0.9,6.1,1.7,12.2,2.6,18.3c1.2,8.1,1,8.2-6.9,9c-2.3,0.2-4.5,0.6-6.7,1c-3.6,0.6-5.1-0.8-5.5-4.3c-0.4-4.2-0.1-8.5-0.3-12.7
		c-0.1-1.8,0.4-4-1.6-5c-0.2-0.1-0.4-0.2-0.6-0.3c-2,2.3-4,4.7-6.1,7c0.4,2.4,0.4,4.7,0.9,7.1c0.7,3.6,0.8,7.6-0.3,11.1
		c-0.7,2.5-4.7,2.1-6.9,3.5c-1.2,0.7-2.5,1.4-3.5,2.4c-6.3,6.4-14,8.8-22.9,8.2c-5.2-0.3-10.4-0.1-15.6,0
		c-7.6,0.1-10.6,2.3-12.9,9.3c-2.3,6.9-1.7,14.2-0.9,21.1c0.9,7.6,3.2,15.4,12,18.3c1.6,0.5,1.1,1.6,1.5,2.6
		c4.7,11.6,4.8,23.9,5.6,36c0.9,13.8-1.7,27.3-4.8,40.7c-2.3,9.9,2.1,15.6,12.2,15.6c15.3,0.1,30.6-1.3,45.9-1.9
		c11.8-0.5,23.6,0.2,35.4,0.8c11,0.5,22.1,0.1,33.2,0.1c7.2,0,14.4,0.1,20.9-3.5c1.4-0.8,2.3,0.2,3.5,0.5c7.5,2.2,15.2,3.4,22.8,3.9
		c11.9,0.7,23.2-2.3,33.7-7.9C806.2,566,810.1,558.5,808.6,547.9z M745,554.6c1,0,2.2-0.6,3-1.3c9.4-8.9,22.1-10,33.6-14.1
		c4.2-1.5,11.4,3.5,13.3,8.2c1.3,3.4-1.7,9.8-5.7,12.2c-7.6,4.7-16.3,5.4-25.2,7c-6.1-1-12.7-2.1-19.2-3.3c-2.9-0.6-3-3.3-3.4-5.5
		C740.8,555.1,742.8,554.7,745,554.6z"/>
	<path class="st0" d="M670.8,379.9c0.3-3.9,0.7-7.9,1-11.8c-0.3-0.4-0.5-0.9-0.5-1.4c0-0.3,0-0.7,0.1-1c2.5-9,3.1-18,0.3-27
		c-1-5.2-1.5-10.4,0.5-15.5c3.8-9.8,10.9-16.4,20.8-19.5c9.5-2.9,18.9-5.6,28.1-9.5c16.1-6.8,30.4-1.6,43.1,8.9
		c4.7,3.9,9.6,7.8,13.2,13.2c5.2,7.8,7.6,16,8.8,25.2c1.6,11.9-0.7,22.9-6.4,33c-5.7,10-12.8,18.9-24.8,22.6c-3,0.9-5.2-1.2-7.9-0.2
		c-3.1,1.2-6.3,2.1-9.2,3.6c-4.7,2.5-9.3,3.9-14.6,1.9c-6.7-2.6-13-0.7-19.6,1.4c-13.6,4.5-25.4-1.7-30.9-14.2
		C671.6,386.6,671.5,383.2,670.8,379.9z"/>
	<path d="M499.9,242.3c0.2-2.6-0.1-5.3,1.1-7.8c6-10.3,15.3-7.6,24.7-1.3c5,3.4,9.1,7.7,12.4,12.8c3,3.2,4.4,7.2,5.8,11.2
		c2.8,11.5-0.2,15.7-13.3,18.4c-10.4,0.7-18.4-3.6-24.5-11.7c-1.5-2.2-2.8-4.5-4-6.9c-0.6-1.1-1.1-2.2-1.5-3.4
		C500,249.8,497.7,246.2,499.9,242.3z"/>
	<path d="M581.1,272.4c-2.3,2.1-5,3.6-7.9,4.8c-1.1,1.6-2.9,1.9-4.6,2.3c-1.5,0.2-3,0.4-4.4,0.8c-1.8,0.4-3.6,0.4-5.4,0.3
		c-5-0.4-8.8-2.4-10.7-7.4c-1-4.6,0.4-9,1.3-13.5c1-2.6,1.3-5.6,3.5-7.6c1.2-2.1,2.4-4.3,3.8-6.4c5.2-7.7,10.4-8.7,17.7-3
		c4.4,3.5,7.8,7.8,9.8,13.3C586.1,262.1,584.8,267.4,581.1,272.4z"/>
	<path d="M671.8,338.8c4.5,7.4,4.2,15.1,1.7,22.9c-0.6,1.8,0.2,4-1.5,5.4c-2.2-2-1.2-4.9-1.9-7.3c-0.3-0.9-0.4-1.9-0.5-2.9
		c-1.9-14-9.2-17.8-23.9-17.4c-3.6,0.1-7.2,2.1-10.9,0.3c0-2.3,0-4.6,0-6.9c8.4-1.6,16.9-2.7,25.4-0.8c3.6,0.8,6.1,3.7,9.1,5.7
		C670.1,338.4,670.7,339.2,671.8,338.8z"/>
	<path class="st0" d="M552.8,252.1c-0.7,2.6-1.4,5.2-2.1,7.8c-3.3,0.8-5.7-0.5-7.7-3c-1.7-3.6-4-6.9-4.9-10.8
		C543.4,247,548.1,249.6,552.8,252.1z"/>
	<path class="st1" d="M543,256.8c2.6,1,5.1,2,7.7,3c-1.1,4.5-2.2,8.9-1.7,13.6c0.2,1.7-0.3,3.2-1.1,4.6
		c-9.4,16.9-15.1,35.2-19.6,53.9c-0.9,3.9-2.1,7.8-2.8,11.8c-1,5.2-2.9,10.2-3,15.5c-0.2,9.8,2.3,19.9,7.3,29.2
		c-13.6,2.6-25.9-1.4-38.1-6.5c-9.9-4.2-19.9-8.5-30.6-9.6c-9.3-0.9-18.6,0.7-26.3,8.2c1.9,0.1,3.4,0.4,4.9,0.2
		c19.9-1.6,38.5,3.3,56.6,11.3c7.3,3.2,14.9,6,23,6.3c2.2,0.1,2.7,1.6,3.1,3.1c3.6,15.8,8,31.6,6.9,48c-0.9,13-1.6,26-3.5,38.9
		c-1.7,11.4-3.8,22.8-5.1,34.2c-0.6,5.7,0.8,11.2,3.3,16.3c1.3,2.8,2.9,5.4,4.1,8.2c2.8,6.7,0.7,11.5-6.3,13.2
		c-7.2,1.8-14.5,3.1-21.9,3.1c-13.9,0-27.8,0.8-41.4-2.8c-8.6-2.3-11.7-7-7-14.3c8-12.6,5.7-24.1-0.8-36.2
		c-8.3-15.2-15.1-31.2-19.2-48.1c-2-8.3-3.4-16.8-3.4-25.2c-0.1-23-5.5-44.7-14.7-65.7c-9.8-22.5-18.2-45.4-21.8-69.9
		c-1.4-10-2.6-19.7,0.1-29.6c3.5-12.7,11.3-21.5,23.5-26.3c9.4-3.7,19.4-5.2,29.5-6.2c4.9-0.5,9.9-0.8,14.8-1.4
		c6.7-0.7,13.6,0.1,20.3,0.9c6.8,0.8,13.5,2.5,20.2,3.8c0.6,3.9,1.3,7.8,1.9,11.6c-4.8,2.6-10.2,0.9-15.2,2.1c-4.4,1-9,1.6-13.4,2.6
		c-11.3,2.6-17,9.5-17.7,21.4c-1.5,24.1,5.9,45.9,17.4,66.6c3.1,5.6,8.3,9.6,14,12.5c6.6,3.4,12.6,1.9,18.2-2.5
		c7-5.6,12-12.9,15.4-21c4.9-11.6,7.4-23.9,8.5-36.4c0.6-7.1,1.7-14.2,0.3-21.4c-0.2-1.2,0.1-2.3,1-3.1c3-0.9,6.4-1.3,8.9-2.9
		c3.7-2.5,6.3-6.1,4.2-11C542.8,259.3,543.1,258.1,543,256.8z"/>
	<path class="st1" d="M610,386.3c-3.3,9-8.1,16.3-18.3,18.6c-4.3,1-8-0.1-11.6-2c-2.5-1.4-5.2-2.4-7.8-1c-7.6,4-13.7,1.3-19.7-3.4
		c-7.5-6-14.5-12.2-17.3-21.9c-4.2-14.7-1.2-28.5,5.4-41.8c5-10,12.5-17.1,23.9-19c8.5-1.4,16.6,1.2,24.7,3c2,0.4,4,1,5.7,0.4
		c6.3-2.2,12.2,0.1,17.9,1.7c7.6,2.1,13.9,13.5,11.7,21.1c-2.1,7.3-1.5,13.7,2.4,20.1c3.3,5.3,5.5,11.1,6.9,17.3
		c2.7,11.5-5.2,21.5-17.1,20.9c-2.8-0.1-5.2-1.1-4.8-5C612.6,392.1,611.5,389,610,386.3z"/>
	<path class="st2" d="M634.8,339.9c7-0.9,13.8-2.8,21.2-1.1c10.5,2.5,12.6,7.2,14.8,16.5c0.9,3.8,0.8,7.9,1.2,11.9
		c-0.1,0.3-0.1,0.7-0.2,1c-2.6,6.1-7.8,8-13.9,8.9c-4.5,0.7-8.9,1-13.4,0.9c-2.5-9.4-8.4-17.5-10.2-27.2
		C633.6,347,633.1,343.4,634.8,339.9z"/>
	<path class="st2" d="M645.5,383.8c4.1-0.3,8.3,0.4,12.5-0.9c2.1-0.7,3.8-0.4,4.3,3.1c1.3,8.6,2.8,17.2,3.6,25.9
		c0.5,5.8-0.5,7-6.6,6.9c-3,0-5.7,1.6-8.5,1c-2.2-0.4-4.6,2.4-5.8,0.5c-1.3-2.1-1.4-5.2-1.5-7.8c-0.2-4.7-0.1-9.4-0.1-14.1
		c0-0.8,0-1.6-0.9-2C643.8,392.2,645.9,388.3,645.5,383.8z"/>
	<path class="st3" d="M525.5,343.8c-0.5-9.3,2.6-18.1,5.2-26.7c3.7-11.9,7.4-23.8,13.3-34.9c1.6-3,3.3-5.8,5-8.8
		c2.2,3.7,5.4,5.7,9.6,6c4.3,7.9,2.4,21.6-3.9,29c-2.6,1.3-5.1,2.7-7.7,4c-5.6-2-8.5-0.6-11.5,5.2c-2.1,3.9-1.7,8.6-4,12.5
		C529.4,334.6,527.4,339.2,525.5,343.8z"/>
	<path class="st1" d="M568.3,278.5c1.6-0.4,3.2-0.9,4.8-1.3c5.6,6.5,8.5,13.9,5.8,22.5c-1,3.1-2,6.6-6.8,5c-1.2-0.4-2.6-0.1-3.9-0.2
		c-0.9-1.2-0.6-2.5-0.2-3.7c2.3-6.4,2.1-12.7,0-19.1C567.8,280.6,567.5,279.5,568.3,278.5z"/>
	<path class="st4" d="M554.7,308.4c4.3-9.3,6.1-18.8,3.9-29c1.9-0.1,3.9-0.2,5.8-0.2c2.5,1.6,2.6,4.4,2.8,6.8
		c0.8,7-0.1,13.7-4.7,19.4C559.9,306.5,557.3,307.5,554.7,308.4z"/>
	<path class="st3" d="M562.5,305.5c3-8.6,5.6-17.2,1.9-26.3c1.1-1.7,2.6-0.7,4-0.7c4.1,8.7,3.6,17.4,0,26.1
		C566.6,306.1,564.5,305.7,562.5,305.5z"/>
	<path d="M531.4,330c0.8-6.7,1.3-13.5,7-18.3c3.1-2.6,6.1-3.5,8.6,0.7c-0.6,0.7-1.3,1.3-1.9,2c-4.9-1.1-5.3,3-6.9,5.8
		C536.2,323.7,534.3,327.2,531.4,330z"/>
	<path class="st3" d="M538.2,320.2c-0.5-2.1,0.1-4.1,1.4-5.7c1.7-2.2,3.6-3.2,5.5-0.1C542.8,316.4,540.5,318.3,538.2,320.2z"/>
	<path class="st5" d="M711,484.3c3.5,14,7.1,27.9,10.6,41.9c0.2,0.8,0.4,1.6,0.6,2.3c2.1,6.8,1.6,7.7-5.7,7.6
		c-12.3-0.1-24.5-0.7-36.8-1.1c-10.5-0.2-21.1-0.1-31.6,0.3c-11,0.5-22,0.8-33,2.1c-6.7,0.8-9.7-2.8-8.8-9.4
		c0.7-5.2,1.7-10.3,3.5-15.2c4.5-12.5,14.1-19.2,26.5-22.2c13.9-3.3,28-5.4,42.4-5.9c8.1-0.3,16.2-0.5,24.3-1.5
		C705.8,482.9,708.6,482.5,711,484.3z"/>
	<path class="st5" d="M605.5,444.5c22.2-1.9,44.6-1.5,66.8-2.3c14.6-0.6,29.1-0.4,43.7-0.7c10.1-0.2,12.7,2.2,10.8,12.9
		c-0.9,4.8-2.1,9.2-4.1,13.7c-1.4,3.3-3.7,4.5-6.8,3.7c-6.4-1.8-13.2,0.2-19.6-2c-13.8-2-27.8-1.7-41.6-3.4c-16.1-1.9-32,0.9-48,1.8
		c-4.3,0.3-8.4,0.2-12.3-1.9c-4.4-2.4-6.5-6.6-5.8-11.3c0.7-4.8,3.9-8.2,8.7-9.4C600.1,444.7,602.9,445.2,605.5,444.5z"/>
	<path class="st6" d="M711,484.3c-16.8,1-33.6,1.4-50.3,3.3c-10.5,1.2-21.1,2.9-31.1,6.7c-13.6,5.2-18.9,16.3-21.3,29.5
		c-0.2,1-0.1,2-0.3,2.9c-1.7,8,0.3,10.3,8.7,9.4c13.5-1.4,27.1-2,40.7-1.9c5.9,0,11.7,0,17.6,0c1.6,0,3.3-0.5,4.6,0.8
		c-16,0.7-32,1.2-47.9,2.2c-9.1,0.5-18.2,1.8-27.3,2.7c-1.6,0.2-3,0.1-2.7-2.2c2.1-13.9,0-27.7-2.6-41.3
		c-2.2-11.5-2.5-11.2,8.6-13.2c14-2.4,28-3.9,42.1-5c16.7-1.3,33.1,0.3,49.6,2c3,0.3,6.1,0.7,9.1,1C710.7,481.6,711,482.7,711,484.3
		z"/>
	<path class="st5" d="M696.4,550.7c3.7,0,7.5,0.4,11.2,0c7.1-0.6,13.7,1.3,20.4,3c2.8,0.7,3.5,3,3.4,5.1c-0.2,3.3-0.6,6.9-4.4,8.3
		c-5,1.8-10.4,1.8-15.7,2c-11.5,0.4-23.2,0.9-34.6-0.1c-14.6-1.2-29.2-0.2-43.8-0.9c-0.5-0.2-0.9-0.4-1.4-0.3
		c-2.7,0-5.5,0.1-6.1-3.3c-0.6-3.2,1.4-5.2,3.9-6.6c3.7-2.1,8-2.7,12.1-3.4c17.3-2.9,34.7-3.6,52.2-4.3
		C694.5,550.3,695.5,550.2,696.4,550.7z"/>
	<path class="st7" d="M789.1,559.6c-7.6,4.7-16.3,5.4-25.2,7c-6.1-1-12.7-2.1-19.2-3.3c-2.9-0.6-3-3.3-3.4-5.5
		c-0.4-2.7,1.5-3.1,3.7-3.2c1,0,2.2-0.6,3-1.3c9.4-8.9,22.1-10,33.6-14.1c4.2-1.5,11.4,3.5,13.3,8.2
		C796.1,550.8,793,557.1,789.1,559.6z"/>
	<path class="st5" d="M633.8,540.2c27.2-1.4,54.4-3.4,81.8-1.1c-1.1,4.7-1.1,4.7,0.7,9.8c-7.6-0.4-15.1-0.5-22.5-1.3
		c-7.6-0.8-15.1-1.1-22.6,0.1c-4.8,0.7-9.6,0.5-14.4,1c-12.2,1.2-24.4,1.6-36.7,2.3c-5.7,0.7-9-0.6-9.3-3.6
		c-0.3-2.7,2.5-4.6,8.1-5.3C623.9,541.4,628.9,540.5,633.8,540.2z"/>
	<path class="st6" d="M605.5,444.5c-2,1.7-4.6,0.9-6.9,1.6c-7.8,2.2-9.2,7.7-8.7,12.1c0.5,4.6,5.5,8.6,11.5,8.6
		c6.6,0,13.2-0.6,19.8-1.1c9.9-0.6,19.7-2.3,29.8-1.1c8.8,1,17.6,1.5,26.4,2.4c6.3,0.6,12.9,0.2,18.9,2.7c-5.7,1-11.3-0.8-16.9-0.9
		c-18-0.3-35.9,0.8-53.8,2.2c-10.5,0.8-21,2.8-31.5,4.6c-6.2,1-10.5-2.8-11.1-10.2c-0.4-4.7,0.5-9.4,1.2-14c0.5-3.1,2.8-5.3,5.9-5.8
		C595.2,444.6,600.3,443.8,605.5,444.5z"/>
	<path class="st8" d="M803.7,546.8c4.6,7.2-1.1,16.9-7.8,20.6c-13.2,7.4-27.1,8.9-41.7,6.5c-2.4-0.4-4.8,0-7.2-0.6
		c-4.2-1.1-6.6-2.7-4.4-7.4c7.3,1.8,14.8,3.6,22.4,3.4c10.9-0.3,21-3.2,29.8-10.1c5.1-4,4.5-14.8-1.3-18.9
		c-5.7-4.1-11.7-5.2-18.4-2.6c-7.8,3-15.9,5.5-23.7,8.5c-2.2,0.9-3.3,0.3-4.6-1.2c-1.8-2.1,0.5-3.1,1.5-3.8
		c4.6-3.2,9.8-5.2,15.3-6.2c-1.1,4.3-5.4,2.9-8.1,4.8c6.6-2.3,13.1-4.9,20-5.6c6-0.7,12.1-1,17.5,2.2c7.8,4.5,10.2,11.7,7.9,21.1
		C803.5,554.9,801.2,550.2,803.7,546.8z"/>
	<path class="st9" d="M696.4,550.7c-20.8,1.4-41.8,2.1-62.2,6.9c-1.2,0.3-2.5,0.7-3.7,1.2c-2.4,0.9-4.5,2.6-4.3,5.2
		c0.2,3.1,2.9,3.4,5.5,3.5c0.4,0,0.8,0.5,1.2,0.7c-9.2,0.7-18.3,1.6-27.5,2c-7.4,0.3-8.4-1.1-6.7-8.1c1.6-6.7,2.1-7.2,11-7.5
		c15.2-0.4,30.2-2.6,45.4-3.2c12.6-0.5,25.1-1.8,37.7-1.7C694,549.8,695.4,549.5,696.4,550.7z"/>
	<path class="st2" d="M628,434.5c9.6-10.5,57.6-13.2,68-4C673.3,430.6,651.1,435,628,434.5z"/>
	<path class="st10" d="M803.7,546.8c0.2,5.7,0.3,11.4-5.8,15.6c0.7-2.4,1.1-4.3,1.9-6.1c4.1-9.5-4.9-21.3-16.4-21.2
		c-7,0-13.7,1.3-20.4,3.3c-3,0.9-6.1,1.8-9.9,3c3.1-3.9,7.8-3.4,10.5-6.3c5-2.4,10.4-3.3,15.7-4.5
		C789.9,528.3,802.3,536.6,803.7,546.8z"/>
	<path class="st11" d="M738.8,536.2c4.4-0.1,6.1,2.1,4.4,5.6c-1.1,2.3-0.7,4,0.4,5.9c0.4,0.8,1.6,1.3,0.7,2.4
		c-0.7,0.9-1.8,0.8-2.7,0.6c-5.9-1.3-11.9-2.5-17.8-4c-1.6-0.4-3.8-0.9-3.8-3.1c-0.1-2.3,1.9-3.5,3.7-3.9
		C728.8,538.3,734.2,537.2,738.8,536.2z"/>
	<path class="st6" d="M633.8,540.2c-5.7,1.7-11.7,1.6-17.4,3.5c-2,0.7-4.8,0.7-4.7,3.2c0.1,2.5,2.8,3.3,5,3.8
		c1.1,0.3,2.3,0.1,3.4,0.2c-3.3,1.8-6.9,0.4-10.4,0.8c-0.8,0.1-1.6,0-2.4,0c-2.1,0.2-5,2.4-6.2,0.1c-1-1.9,0.1-4.9,0.5-7.4
		c0.4-2.5,3.1-2,4.4-2.1C615.3,542,624.5,539.7,633.8,540.2z"/>
	<path class="st1" d="M706.6,380.3c-1.4,3.6-2,6.8-0.6,10.2c0.9,2.2,0.1,3.3-2.3,4c-15.2,4.5-25.3-9-22.2-21.9
		c1.1-4.5,1.5-9.3,3.2-13.5c2.7-6.7,0.8-12.4-1.7-18.5c-1.7-4.1-3-8.2-1.8-13c1.9-7.5,7-11.5,13.9-13.2c11-2.8,21.7-6.5,32-11.5
		c9.9-4.9,18.7-0.4,26.7,4.5c10.7,6.6,17.7,16.8,21.4,28.9c4.6,15,0.8,28.3-8.2,40.8c-5.1,7.1-11.4,10.8-20.3,10.8
		c-3.8,0-7.2,2.6-10.6,4.3c-9.8,4.9-23,0.6-28.2-9.2C707.6,382.1,707.1,381.3,706.6,380.3z"/>
	<path class="st3" d="M530.3,274.6c2.5,20.5-0.8,40.4-7.8,59.6c-3.6,10-9.5,18.6-18.5,24.7c-7.2,4.9-14.3,4.1-21.4-0.8
		c-9.7-6.6-14.3-16.4-18.5-26.5c-4.6-11.1-8.5-22.6-9.5-34.6c-0.8-9.1-1.7-18.4,2-27.3c3.1-7.4,9.2-11,16.7-12.5
		c9.5-1.9,18.9-3.9,28.7-3.2c0.5,0.9,1.4,1.6,1.2,2.8c-5,2.6-10.5,1.3-15.7,2.3c-4.3,0.8-8.7,1-12.9,2.3
		c-7.3,2.2-11.8,6.9-13.7,14.5c-1.7,6.8-1.2,13.5-0.3,20.3c2.5,17.8,7.6,39.4,20.1,54.6c-3.2-9-5.8-17.9-7.6-26.9
		c-1.8-9.2-2.8-18.6-2.7-28.1c0-4.8,0.7-9.4,1.7-14c1.8-9.1,7.4-15.2,16.2-17.8c6-1.8,12.1-4.2,18.5-1.2
		C512.6,270.5,520.3,274.9,530.3,274.6z"/>
	<path class="st4" d="M506.7,262.7c-9.3-0.1-18.3,0.7-26.2,6.7c-3.8,2.9-5.7,6.6-6.8,10.9c-3.2,12-2,24.1-0.5,36.1
		c1.7,13.2,6.2,25.6,9.7,38.4c-6.4-7.1-11.9-14.8-15.2-23.8c-5.1-13.6-8.7-27.6-9.4-41.9c-0.9-21.3,5.5-28.9,26.8-31.2
		c5.9-0.6,11.9-1.6,17.9-1.1C504.2,258.8,505.5,260.7,506.7,262.7z"/>
	<path class="st12" d="M521.8,237.7c9.3,3.4,13.6,11.1,17.1,19.4c1.4,3.3-2.2,6.3-6.2,5.5c-3.5-0.7-6.2-2.9-6.2-6.4
		C526.4,249.6,524.3,243.8,521.8,237.7z"/>
	<path class="st13" d="M571.8,247.4c8.5,4.3,10.7,15.3,4.2,21.8c-1.6,1.7-3.5,2.8-5.9,1.3c-2.8-1.9-2.1-4.5-1.2-6.8
		c1.5-3.7,3.5-7.1,3.4-11.3C572.3,250.6,570.4,249.2,571.8,247.4z"/>
	<path class="st3" d="M710.4,496.7c1.8,11.6,4.7,22.8,8.9,33.6c0.5,1.4,0.6,2.5-0.6,3.4c-1,0.8-2,0.3-3.1-0.1
		c-3.5-1.2-4.1-4.2-4.6-7.1C709.2,516.6,710.2,506.6,710.4,496.7z"/>
	<path class="st3" d="M641.3,445.9c13-0.5,26-2.1,39.1-1.6c12,0.5,23.9-1.6,35.8-1c4.7,0.3,8.7,4.6,7.3,9c-0.9,2.7-0.3,5.7-2.5,8.3
		c-4.9-5.4-10.9-9.5-18.5-10.9c-3.1-0.6-6.4-1.3-9.4-1.3c-8.9,0.1-17.7-1.6-26.6-1.2C658,447.7,649.8,445.7,641.3,445.9z"/>
	<path class="st3" d="M710.6,543c-13.4-1.5-26.8-1-40.1-2.6C683.9,540.4,697.4,538.8,710.6,543z"/>
	<path d="M502.9,326.4c-0.2-7.5,1.8-13.5,7.4-17.8c3.2-2.5,6.7-4.4,10.8-1.7c3.6,2.3,5.3,7.1,3.8,11.4c-1.9,5.8-4.1,11.4-6.9,16.8
		c-1.3,2.6-3.3,4.9-6,4.5c-2.8-0.4-5.8-1.7-7.2-4.7C503.5,332,502.5,329,502.9,326.4z"/>
	<path class="st3" d="M522.5,315.7c0.3,2.8-0.4,5-3.4,5.5c-2.8,0.5-6.6-4.7-6.4-8.7c0.1-2.7,1.7-4.1,4.4-3.9
		C521.6,308.9,522.1,312.3,522.5,315.7z"/>
	<path class="st14" d="M513.8,334.8c0,0-0.3,1.3-1.7,1.9c-1.2,0.5-2.1-0.1-3-0.9c-2.2-2.2-4.5-4.3-4.2-7.8c0.2-2.2,1.6-3.6,3.6-2.3
		C511.1,327.5,513.5,329.8,513.8,334.8z"/>
</g>
</svg>
