<?xml version="1.0" encoding="utf-8"?>
<!-- Generator: Adobe Illustrator 23.0.1, SVG Export Plug-In . SVG Version: 6.00 Build 0)  -->
<svg version="1.1" id="Layer_4" xmlns="http://www.w3.org/2000/svg" xmlns:xlink="http://www.w3.org/1999/xlink" x="0px" y="0px"
	 viewBox="0 0 1000 1000" style="enable-background:new 0 0 1000 1000;" xml:space="preserve">
<style type="text/css">
	.st0{fill:#7F7F7F;}
</style>
<g>
	<path d="M511.4,337.9c-12.6-0.3-22.3-5.4-30.8-13.2c-3.5-3.2-7.6-5.4-9.2-11c-2.9-10,3.7-15.2,12.7-14.8c9.1,0.4,18.2,2.2,26.1,6.9
		c5.7,3.4,11.4,6.9,15.2,12.6c4.5,6.7,1.4,15.8-6.4,18.1C516.4,337.4,513.6,338.8,511.4,337.9z"/>
	<path d="M554.1,308.6c8.8,0.8,17.3,2.7,23.9,10.1c5.8,6.4,5.2,11.2-2.5,15.5c-7.1,4.1-15,5.4-22.9,6.7c-3.6,0.6-7,1.3-10.7,0.1
		c-4.9-1.6-8.4-5.3-7.8-10.4c0.5-3.9,1.5-7.7,2.6-11.4C538.8,312.7,545.3,308.9,554.1,308.6z"/>
	<path class="st0" d="M488.9,305.1c9.8-0.2,18.8,2.4,26.8,8.1c2.3,1.7,5.3,4,2.9,7.5c-2.1,3.1-7.1,3.2-10.3,0.5
		c-2.8-2.4-4.3-5.8-7.5-8C496.9,310.6,492.7,308.3,488.9,305.1z"/>
	<path class="st0" d="M547.6,315c10.2-4,23.6,1,27.6,8.5c0.8,1.6,1.4,2.9,0.5,4.4c-0.9,1.6-2.6,1.2-4,1.1c-2.2-0.2-4.5-0.5-6.1-2.3
		C560.8,321.5,555.3,317.3,547.6,315z"/>
</g>
</svg>
