<?xml version="1.0" encoding="utf-8"?>
<!-- Generator: Adobe Illustrator 23.0.1, SVG Export Plug-In . SVG Version: 6.00 Build 0)  -->
<svg version="1.1" id="Layer_4" xmlns="http://www.w3.org/2000/svg" xmlns:xlink="http://www.w3.org/1999/xlink" x="0px" y="0px"
	 viewBox="0 0 1000 1000" style="enable-background:new 0 0 1000 1000;" xml:space="preserve">
<style type="text/css">
	.st0{fill:#7F7F7F;}
</style>
<g>
	<path d="M592.8,239.8c0.8,3-0.5,6.8-1.3,10.5c-1.5,7.5-8.8,11.3-16.4,9c-13.6-4.1-17-15.2-15.3-27c1.1-7.8,3.2-15.8,9.9-21.4
		c4.4-3.7,7.3-3.7,11.6-0.1C590.5,218.1,592.8,228,592.8,239.8z"/>
	<path d="M627,251.6c0,11.4-9.6,21.7-20.8,21.7c-4.2,0-8.4-1.3-11.6-4.5c-2.4-2.4-3.3-4.9-2-8.6c3.3-9.6,9.2-17.5,16.6-23.9
		c5.3-4.6,11.7-4.8,14.9,2.9C625.9,243.8,627,246.9,627,251.6z"/>
	<path class="st0" d="M583.4,221.3c5.8,6.7,6.8,14.7,6.3,22.9c-0.2,3.7-3.4,5-6.7,4.6c-3.6-0.4-5.4-3.5-4.2-7
		C581.1,235.2,583.7,228.7,583.4,221.3z"/>
	<path class="st0" d="M621.6,242.8c1.6,3.5,1.6,7.1,1.5,10.7c-0.1,5.3-4.1,10.3-9.1,11.8c-1.5,0.5-2.4,0-3.4-1
		c-1.2-1.2-1-2.3-0.6-3.9c0.8-3.1,4.4-3.1,5.4-5.9c0.8-2.1,2.5-3.8,3.3-5.8C619.6,246.7,620.1,244.6,621.6,242.8z"/>
</g>
</svg>
