<?xml version="1.0" encoding="utf-8"?>
<!-- Generator: Adobe Illustrator 23.0.1, SVG Export Plug-In . SVG Version: 6.00 Build 0)  -->
<svg version="1.1" id="Layer_4" xmlns="http://www.w3.org/2000/svg" xmlns:xlink="http://www.w3.org/1999/xlink" x="0px" y="0px"
	 viewBox="0 0 1000 1000" style="enable-background:new 0 0 1000 1000;" xml:space="preserve">
<style type="text/css">
	.st0{fill:#7F7F7F;}
	.st1{fill:#808080;}
</style>
<g>
	<path d="M546.2,206.2c9.2-0.1,15.5,6,21.5,12.5c4.7,5,7.4,11.2,9.1,17.8c1.3,5,0.1,8.9-4.4,11.5c-12.2,7.1-20,4.4-29.3-6.4
		c-5.8-6.7-6.8-15.1-7.7-23.3C534.6,211.3,540.2,205.1,546.2,206.2z"/>
	<path d="M616.2,265.9c0.8,7.6-2.9,11.4-11.1,11.3c-10.9-0.1-20.8-3.7-28.9-11.1c-4.3-3.9-4-6.6,0.1-10.9c5.1-5.4,11.6-8.8,18.7-8.9
		C606.4,246.3,616.8,250.8,616.2,265.9z"/>
	<path class="st0" d="M551.7,214.3c3.6-0.9,5.9,0.1,7.9,2c4.7,4.5,8.7,9.5,11.8,15.2c1.3,2.5,1.4,4.6-1,6.4
		c-2.4,1.8-4.8,1.7-6.9-0.2c-0.9-0.8-1.8-1.9-2.2-3.1C558.8,227.5,556.4,220.6,551.7,214.3z"/>
	<path class="st1" d="M589.4,250.5c5.5-1.3,9.8-0.2,13.8,0.9c3.7,1,6.7,3.5,8.2,7.5c0.7,1.9,1.8,3.7-0.2,5.2c-2,1.5-3.8-0.1-5.1-1.3
		C601.3,258.2,597.1,252.9,589.4,250.5z"/>
</g>
</svg>
