<?xml version="1.0" encoding="utf-8"?>
<!-- Generator: Adobe Illustrator 23.0.1, SVG Export Plug-In . SVG Version: 6.00 Build 0)  -->
<svg version="1.1" id="Layer_4" xmlns="http://www.w3.org/2000/svg" xmlns:xlink="http://www.w3.org/1999/xlink" x="0px" y="0px"
	 viewBox="0 0 1000 1000" style="enable-background:new 0 0 1000 1000;" xml:space="preserve">
<style type="text/css">
	.st0{fill:#7F7F7F;}
</style>
<g>
	<path d="M614.2,260.6c0.8,4.8-0.5,10.1-2.1,14.9c-4.1,12.2-13.5,15.3-24,6.3c-6.2-5.3-9.1-11.6-7.1-20.2c2-8.5,4.2-16.7,10.9-23
		c6.4-6.1,13.1-5.3,17.5,2.5C612.1,246,614.8,252.6,614.2,260.6z"/>
	<path d="M646.5,280.1c-0.4,11.3-6.6,21.8-19,23.5c-6.2,0.8-12.2-1.2-17.2-5.3c-3-2.5-3.9-5.5-1.6-9.2c5.5-8.9,12.6-16.2,21.7-21.3
		c6.9-3.9,11.9-1.7,14.6,5.9C646,275.9,646.2,278.5,646.5,280.1z"/>
	<path class="st0" d="M607,248.2c3.8,7.7,4.4,15.5,2.4,23.5c-0.5,2.1-0.9,4.6-3.9,4.7c-2.4,0.1-4.4-0.7-5.8-2.8
		c-1.6-2.4-1.2-4.7,0.3-6.7C604,261.4,605.3,255,607,248.2z"/>
	<path class="st0" d="M641,274.4c1.2,3.7,2.1,6.7,1.5,9.8c-1,5.2-7.8,11.6-13.2,12.5c-1,0.2-1.9,0.1-2.6-0.7c-0.9-1-0.7-2-0.2-3.1
		c0.7-1.5,1.6-2.9,2.9-3.8C634.7,285.6,638.6,280.9,641,274.4z"/>
</g>
</svg>
