<?xml version="1.0" encoding="utf-8"?>
<!-- Generator: Adobe Illustrator 23.0.1, SVG Export Plug-In . SVG Version: 6.00 Build 0)  -->
<svg version="1.1" id="Layer_4" xmlns="http://www.w3.org/2000/svg" xmlns:xlink="http://www.w3.org/1999/xlink" x="0px" y="0px"
	 viewBox="0 0 1000 1000" style="enable-background:new 0 0 1000 1000;" xml:space="preserve">
<style type="text/css">
	.st0{fill:#7F7F7F;}
</style>
<g>
	<path d="M542.9,229.6c-6.3-0.6-12.5-3.6-15.3-10.4c-3.8-9-5.5-18.4-3.3-28.2c1.2-5,3.6-9.2,8.3-10.8c5.1-1.8,9.7,0.9,13.4,4.3
		c7.8,6.8,10,16.5,12.4,25.9c0.7,2.7,1.8,5.4,0.8,8.4C556.7,226.4,552.5,229,542.9,229.6z"/>
	<path d="M571.1,235.4c-7.9,0-10.4-4-9-12.1c1.5-8.8,5.4-16.3,10.1-23.5c5.2-8.1,11.2-8.4,16.8-0.6c5.8,8,6.3,19.2,1.7,27.7
		C588.3,231.3,580.3,235.2,571.1,235.4z"/>
	<path class="st0" d="M542.6,189.3c9.3,5.6,11.7,14.1,13,23.1c0.4,2.4-1.1,4.1-3.6,4.3c-3,0.3-5.7-0.1-7.3-3.3
		c-0.8-1.6-1.1-3.2-0.7-4.7C546.1,202.5,544.4,196.5,542.6,189.3z"/>
	<path class="st0" d="M585.2,200.4c7.1,9.8,6.4,13.5,2.6,21.4c-0.9,1.9-2.5,3.2-4.5,4.2c-1.3,0.6-2.4,0.9-3.5-0.2
		c-1.1-1-2.1-2-1.4-3.8c0.6-1.5,0.8-3.3,1.8-4.4C584.4,212.7,584.3,206.7,585.2,200.4z"/>
</g>
</svg>
