<?xml version="1.0" encoding="utf-8"?>
<!-- Generator: Adobe Illustrator 23.0.1, SVG Export Plug-In . SVG Version: 6.00 Build 0)  -->
<svg version="1.1" id="Layer_4" xmlns="http://www.w3.org/2000/svg" xmlns:xlink="http://www.w3.org/1999/xlink" x="0px" y="0px"
	 viewBox="0 0 1000 1000" style="enable-background:new 0 0 1000 1000;" xml:space="preserve">
<style type="text/css">
	.st0{fill:#7F7F7F;}
</style>
<g>
	<path d="M526.5,304.8c-8.1,0.4-13.9-3.7-18.9-9.5c-7.2-8.3-10.4-17.6-7.5-28.4c1.6-5.9,7.2-8.3,13.4-7.1
		c18.7,3.5,27,17.1,32.3,33.3c1.6,5-1.9,9.2-8.3,10.5C533.9,304.3,530.2,304.4,526.5,304.8z"/>
	<path d="M550.8,296.6c1.1-8,2.9-16.5,6.9-24.2c2.7-5.3,9.7-7.1,15.7-4.2c8.7,4.2,12.7,12,14.4,20.9c1,5.3-4.6,13.1-10,14.6
		c-5.6,1.6-11.2,2.9-16.9,3.9C555.1,308.5,550.7,303.8,550.8,296.6z"/>
	<path class="st0" d="M521.9,268.9c9.1,3.8,14.9,10.7,18.8,19.5c0.8,1.7-0.2,2.8-1.3,3.8c-4.1,3.6-10.6,1.7-11.8-3.9
		C526.1,281.7,524.3,275.3,521.9,268.9z"/>
	<path class="st0" d="M573.8,272.9c2.2,2.4,3.6,4.1,5.2,5.8c5.6,5.9,4.4,14.3-2.7,18.1c-1,0.5-2.1,1.8-3.4,0.2
		c-1.1-1.3-3.2-2.2-2.5-4.4c1.1-3.1,3.4-5.7,3.8-9.2C574.7,280.2,572.5,277.3,573.8,272.9z"/>
</g>
</svg>
