<?xml version="1.0" encoding="utf-8"?>
<!-- Generator: Adobe Illustrator 23.0.1, SVG Export Plug-In . SVG Version: 6.00 Build 0)  -->
<svg version="1.1" id="Layer_4" xmlns="http://www.w3.org/2000/svg" xmlns:xlink="http://www.w3.org/1999/xlink" x="0px" y="0px"
	 viewBox="0 0 1000 1000" style="enable-background:new 0 0 1000 1000;" xml:space="preserve">
<style type="text/css">
	.st0{fill:#7F7F7F;}
</style>
<g>
	<path d="M553.2,335.9c-15.1-1.2-28.6-7.5-38.2-20.8c-3.8-5.2-3.8-11.8,0-17c3.5-4.7,10.7-8.2,17-6.5c14.4,4,25.5,11.8,32.2,25.2
		c1.7,3.4,3.2,7.3,1.6,11.3C563.5,334.1,560.7,335.9,553.2,335.9z"/>
	<path d="M589.2,342.7c-6,0.3-9.8-0.9-13.5-2.1c-3.6-1.2-8.1-5.6-7.4-11.1c1.1-9,2.4-17.9,12.1-21.8c15.7-6.3,26.9-1.6,32.5,14.8
		c1.7,5.2-2,12.1-7.7,15.5C599.7,341.4,593.5,342.2,589.2,342.7z"/>
	<path class="st0" d="M541.7,298.6c9.4,4.7,15.5,11.1,18.3,20.5c0.9,2.9-0.1,3.5-2.6,4.3c-7.4,2.4-11.5-1.2-10.8-8.8
		C547.2,309.2,543.9,304.6,541.7,298.6z"/>
	<path class="st0" d="M593.7,309.4c9.6,4,14.1,11.8,11.8,18.1c-1.6,4.3-5.3,5.9-9.3,6.4c-3.3,0.4-5.1-2.3-4.1-5.4
		c0.1-0.3,0.4-0.5,0.5-0.8C595.7,322.2,598,316.6,593.7,309.4z"/>
</g>
</svg>
