<?xml version="1.0" encoding="utf-8"?>
<!-- Generator: Adobe Illustrator 23.0.1, SVG Export Plug-In . SVG Version: 6.00 Build 0)  -->
<svg version="1.1" id="Layer_4" xmlns="http://www.w3.org/2000/svg" xmlns:xlink="http://www.w3.org/1999/xlink" x="0px" y="0px"
	 viewBox="0 0 1000 1000" style="enable-background:new 0 0 1000 1000;" xml:space="preserve">
<style type="text/css">
	.st0{fill:#7F7F7F;}
</style>
<g>
	<path d="M501,351.3c-0.1-7.6,4.7-10.9,11.3-9.8c20.4,3.4,34.2,16.4,46.6,31.4c4.7,5.7,3.2,10.9-3.3,14.4c-6.4,3.5-13,2.6-19.1-0.1
		c-12.8-5.6-23.9-13.5-31.7-25.5C502.5,358.2,501.5,354.4,501,351.3z"/>
	<path d="M603.1,407.1c-8.2-1.9-18.7-0.9-28.3-5.5c-4.8-2.3-8.6-5.3-8.3-10.8c0.3-5.8,2.7-10.8,8.2-14c4.7-2.8,9.2-3,14.5-1.9
		c13.4,2.7,23.3,9.9,30.4,21.4c2.7,4.3,0.7,6.4-2.9,8C612.9,406.1,609.1,407.4,603.1,407.1z"/>
	<path class="st0" d="M521.9,350c7.4,1,13.8,4,19.2,9c3.6,3.4,8,5.9,10.6,10.4c1.5,2.7,0.9,3.6-1.6,4.8c-4.4,2.1-8.4,0-10.2-3
		C535.2,363.1,529.3,356.1,521.9,350z"/>
	<path class="st0" d="M584.5,378.4c12.2,1.2,22.3,6,28.7,16.7c1,1.6,1.8,3.3-0.2,5.2c-1.8,1.7-3.2,0.7-4.8,0
		c-2.3-0.9-4.3-2.4-5.6-4.4C597.9,388.6,591.9,382.9,584.5,378.4z"/>
</g>
</svg>
