<?xml version="1.0" encoding="utf-8"?>
<!-- Generator: Adobe Illustrator 23.0.1, SVG Export Plug-In . SVG Version: 6.00 Build 0)  -->
<svg version="1.1" id="Layer_4" xmlns="http://www.w3.org/2000/svg" xmlns:xlink="http://www.w3.org/1999/xlink" x="0px" y="0px"
	 viewBox="0 0 1000 1000" style="enable-background:new 0 0 1000 1000;" xml:space="preserve">
<style type="text/css">
	.st0{fill:#7F7F7F;}
</style>
<g>
	<path d="M485.4,251c-9.5,0.5-14.5-6.1-19.5-12.4c-3.7-4.7-6-10.1-7.5-16c-2.5-9.9,4-16.1,14.2-14.9c9,1.1,16.4,5,22.5,10.8
		c5,4.8,9.7,10.5,10.6,18c0.6,4.5-1.8,8.2-5.5,10.4C495.7,249.6,490.7,250.9,485.4,251z"/>
	<path d="M508.7,225c0.7-4.8,1.2-10.2,2.3-15.4c0.9-4.5,7.3-7.6,12.4-6.4c13.3,3.3,23.3,19.9,13.4,33.8c-4,5.7-16.6,9.6-21.6,7.4
		c-3.8-1.6-4.4-5-5.2-7.9C509,233,509.1,229.2,508.7,225z"/>
	<path class="st0" d="M478,214.2c8.2,3,15.2,7.4,20.2,14.7c1.8,2.6,2.5,4.8-1.1,6.5c-3.2,1.5-6.4,3.8-8.8-1.1
		C484.9,227.6,481.8,220.8,478,214.2z"/>
	<path class="st0" d="M524.4,208.4c3.5,1.3,5.6,3.6,7.8,5.9c4.6,4.8,4.9,11.7,0.8,16.8c-0.9,1.2-2.1,1.8-3.3,0.9
		c-1.6-1.2-4.2-2.7-3.1-4.9C529.6,220.4,526.4,214.6,524.4,208.4z"/>
</g>
</svg>
