<?xml version="1.0" encoding="utf-8"?>
<!-- Generator: Adobe Illustrator 23.0.1, SVG Export Plug-In . SVG Version: 6.00 Build 0)  -->
<svg version="1.1" id="Layer_4" xmlns="http://www.w3.org/2000/svg" xmlns:xlink="http://www.w3.org/1999/xlink" x="0px" y="0px"
	 viewBox="0 0 1000 1000" style="enable-background:new 0 0 1000 1000;" xml:space="preserve">
<style type="text/css">
	.st0{fill:#808080;}
</style>
<g>
	<path d="M521.2,352.6c-11.1-0.6-20.8-4.7-29-12.3c-3.5-3.3-7.1-6.5-9.8-10.6c-1.9-2.9-2.6-6-2.9-9.3c-0.7-6.8,7.9-9.7,13.7-8.8
		c13.4,2.1,25.5,7.5,36.4,15.6c2.6,1.9,5.2,4.1,6.9,6.8c4.2,6.5,3,11.5-3.5,15.6C529.5,351.8,525.5,352.8,521.2,352.6z"/>
	<path d="M562.1,359.3c-4.4,0.6-8.3-0.9-12.2-2.3c-5.2-1.8-6.5-5.7-5.1-12.4c2.1-10.5,11.4-17.2,20.1-16.5
		c11.5,0.9,21.7,4.2,28.3,14.6c2.8,4.5,1.5,9.3-3.5,11.3c-6.3,2.5-12.8,4.5-19.7,4.4C567.3,358.4,564.8,360.1,562.1,359.3z"/>
	<path class="st0" d="M499.3,317.1c11.4,2.2,20.8,4.9,27.9,12.5c1.6,1.7,4.5,3.4,1.7,6.3c-2.5,2.6-5.4,3.9-8.9,1.8
		c-2.7-1.6-3.7-4.8-6-6.9C509.3,326.6,504.9,322.3,499.3,317.1z"/>
	<path class="st0" d="M560.3,332.5c9.4-1.1,17.8,0.4,24.4,7.5c1.5,1.6,2.5,3.3,3.4,5.2c0.6,1.3,1.3,2.4,0.1,3.5
		c-1.3,1.1-2.8,2.4-4.7,1.7c-1.8-0.7-3.9-1.4-4.9-2.9C573.8,340.8,567.9,335.8,560.3,332.5z"/>
</g>
</svg>
