<?xml version="1.0" encoding="utf-8"?>
<!-- Generator: Adobe Illustrator 23.0.1, SVG Export Plug-In . SVG Version: 6.00 Build 0)  -->
<svg version="1.1" id="Layer_4" xmlns="http://www.w3.org/2000/svg" xmlns:xlink="http://www.w3.org/1999/xlink" x="0px" y="0px"
	 viewBox="0 0 1000 1000" style="enable-background:new 0 0 1000 1000;" xml:space="preserve">
<style type="text/css">
	.st0{fill:#7F7F7F;}
</style>
<g>
	<path d="M476.4,285.1c12.8,1.1,24.9,4.1,34.5,13.4c7.6,7.4,4.9,18.4-5.2,21.8c-6.6,2.3-13.2,3.1-19.8,0c-8.6-4-17.4-7.6-22.9-16
		c-1.9-2.9-2.6-6-2.9-9.3c-0.4-4.2,1.2-6.9,5.7-7.9C469.2,286.2,472.6,284.8,476.4,285.1z"/>
	<path d="M541.7,288.1c8.7,0.3,16.4,2.8,22.3,9.7c3.3,3.9,3.5,7.2-0.1,10.9c-6.5,6.7-14.8,9.9-23.7,11.6c-3.6,0.7-6.9,3-11,1.5
		c-6.2-2.2-9.4-6.3-8.5-12.7c1-7.3,3.1-14.1,10.3-18.1C534.3,289,537.8,288,541.7,288.1z"/>
	<path class="st0" d="M476.2,289.7c10.6-1.7,19.3,3,27.9,8c2.1,1.2,4.4,3.8,1.5,6.8c-2.6,2.7-6,4.7-8.6,1.2
		C491.5,298.4,484,294,476.2,289.7z"/>
	<path class="st0" d="M532.4,294.6c10.3-5.2,23.2-2.2,27.1,5.9c0.8,1.7,2.1,3.6,0.3,5.3c-1.6,1.5-3.7,1-5.5,0.6
		c-2.1-0.5-3.5-2.2-5-3.7C544.5,298,539.2,295.4,532.4,294.6z"/>
</g>
</svg>
