<?xml version="1.0" encoding="utf-8"?>
<!-- Generator: Adobe Illustrator 23.0.1, SVG Export Plug-In . SVG Version: 6.00 Build 0)  -->
<svg version="1.1" id="Layer_4" xmlns="http://www.w3.org/2000/svg" xmlns:xlink="http://www.w3.org/1999/xlink" x="0px" y="0px"
	 viewBox="0 0 1000 1000" style="enable-background:new 0 0 1000 1000;" xml:space="preserve">
<style type="text/css">
	.st0{fill:#7F7F7F;}
</style>
<g>
	<path d="M513.5,215.8c-11.8-0.2-15.9-5.1-21.3-16.8c-2-4.3-2.9-8.9-3.8-13.5c-1-5.1,1.6-14.5,7.5-16.6c2-0.7,3.5-0.9,5.8-0.2
		c9.8,2.9,16,9.7,20.8,18.1c2.3,4.1,4.5,8.2,5.6,12.8c1.3,5.3-0.7,10.5-5.5,13.2C519.4,214.7,515.8,215.8,513.5,215.8z"/>
	<path d="M562.5,196.4c-0.9,9.6-5.1,14.4-14.3,17.5c-7.5,2.5-10.7,2.1-13.5-2c-1.6-2.4-2.6-5.4-2.3-8c1-7.6,1.1-15.4,4.4-22.6
		c5.7-12.5,14.1-9.4,20.3-1.4C560.8,184.6,562,190.7,562.5,196.4z"/>
	<path class="st0" d="M506.1,176.5c10.4,4.6,14.6,12.5,17.2,21.3c1,3.2-2.3,4.7-4.7,5.1c-3.1,0.5-5.6-1.7-5.7-4.6
		C512.5,190.8,510.5,183.9,506.1,176.5z"/>
	<path class="st0" d="M549.2,177.6c10.1,8.7,12.3,18.8,4.6,25.9c-2,1.9-3,1.7-4.2-0.8c-1-1.9-1.3-4-0.6-5.6
		C552,191,552.2,184.7,549.2,177.6z"/>
</g>
</svg>
