<?xml version="1.0" encoding="utf-8"?>
<!-- Generator: Adobe Illustrator 23.0.1, SVG Export Plug-In . SVG Version: 6.00 Build 0)  -->
<svg version="1.1" id="Layer_4" xmlns="http://www.w3.org/2000/svg" xmlns:xlink="http://www.w3.org/1999/xlink" x="0px" y="0px"
	 viewBox="0 0 1000 1000" style="enable-background:new 0 0 1000 1000;" xml:space="preserve">
<style type="text/css">
	.st0{fill:#7F7F7F;}
</style>
<g>
	<path d="M500.5,322.3c9.8,1.1,20.4,4.4,29.5,11.9c5.6,4.6,11.9,8.4,15.4,15.3c2.7,5.5,1.3,10-4,13.1c-7.3,4.2-14.8,3.2-22,0.5
		c-11.4-4.3-20.4-12.2-28.4-21.2c-2.4-2.7-3.1-6.5-3.5-10.1C486.6,325,490,322.3,500.5,322.3z"/>
	<path d="M574.1,374.9c-3.3-0.2-6.6-0.2-10-0.7c-12.2-2-13.3-10.2-9.5-19.6c3.5-8.6,13.9-11.2,22.8-9.6c9.1,1.6,17.1,5.4,23.1,12.8
		c1.4,1.8,2.6,3.6,3.4,5.6c1.2,2.8,0.6,5.3-2.6,6.7c-4.6,2.2-9.3,3.8-14.4,3.9C582.7,374.1,578.5,375.8,574.1,374.9z"/>
	<path class="st0" d="M507.4,328.3c11.2,1,19.9,7.1,27.9,14.3c1.8,1.6,4.2,3.7,1.8,6.5c-2.1,2.5-4.5,2.8-7.6,1.3
		c-3.6-1.7-5.5-5-7.6-7.9c-3.5-5-8.4-8.2-13-11.9C508.2,330,507.2,329.5,507.4,328.3z"/>
	<path class="st0" d="M569.8,349.3c11-1.1,19.7,3,26.9,10.8c1.7,1.8,3.2,4.3,0.7,6.8c-2.5,2.6-4.7,0.9-6.8-0.5
		c-1.1-0.7-1.9-1.8-2.8-2.7C582.4,358.2,577.4,352.3,569.8,349.3z"/>
</g>
</svg>
