<?xml version="1.0" encoding="utf-8"?>
<!-- Generator: Adobe Illustrator 23.0.1, SVG Export Plug-In . SVG Version: 6.00 Build 0)  -->
<svg version="1.1" id="Layer_4" xmlns="http://www.w3.org/2000/svg" xmlns:xlink="http://www.w3.org/1999/xlink" x="0px" y="0px"
	 viewBox="0 0 1000 1000" style="enable-background:new 0 0 1000 1000;" xml:space="preserve">
<style type="text/css">
	.st0{fill:#7F7F7F;}
</style>
<g>
	<path d="M539,376c-6.4-0.7-12.7-2.1-18.4-5.3c-10.2-5.8-20-12.3-25.3-23.4c-1.2-2.6-1.8-5.3-2.2-8.1c-0.9-6.1,4.5-9.9,10.8-8.7
		c7.9,1.6,15.8,3,22.6,7.5c9.2,6,18.3,12.2,24.7,21.4c4.4,6.3,2.9,11.3-4,14.6C544.6,375.1,542.1,376.4,539,376z"/>
	<path d="M587.5,388.6c-6.1,0.3-11.9-0.6-17.7-1.9c-5.2-1.2-9.5-3.8-11.1-9.1c-1.3-4.3,3.9-13.7,7.8-16.4c10.5-7.2,24-2.2,32.7,3.2
		c5,3.1,8.6,7.5,11.1,12.7c2.4,5,0.7,8.5-4.5,9.5C599.7,387.9,593.6,389.1,587.5,388.6z"/>
	<path class="st0" d="M513.5,337.9c7.6-0.4,12.6,3.7,17.7,6.5c4.5,2.5,9.6,4.7,12.1,9.8c1,2.1,3.1,4.4,0.5,6.5
		c-2.8,2.3-5.9,2-8.9-0.1c-3-2.2-4.1-5.7-6.3-8.5c-3.7-4.8-8.3-8.4-13.1-11.9C515,339.8,514.6,339.1,513.5,337.9z"/>
	<path class="st0" d="M576.7,361.7c11.1,1.2,21.7,3.3,27.7,14.2c1,1.9,1.7,3.7-0.1,5.7c-2.1,2.3-3.8,0.7-5.6-0.2
		c-1.3-0.6-2.5-1.5-3.5-2.5C589.5,372.8,584.8,365.5,576.7,361.7z"/>
</g>
</svg>
