<?xml version="1.0" encoding="utf-8"?>
<!-- Generator: Adobe Illustrator 23.0.1, SVG Export Plug-In . SVG Version: 6.00 Build 0)  -->
<svg version="1.1" id="Layer_4" xmlns="http://www.w3.org/2000/svg" xmlns:xlink="http://www.w3.org/1999/xlink" x="0px" y="0px"
	 viewBox="0 0 1000 1000" style="enable-background:new 0 0 1000 1000;" xml:space="preserve">
<style type="text/css">
	.st0{fill:#7F7F7F;}
</style>
<g>
	<path d="M617.2,259.5c-0.5,7.5-0.6,15.1-4.9,21.8c-3.8,5.9-14.3,9.8-21.7,2.4c-6-6-7.2-12.1-6-20.3c1-7.3,2.8-13.8,7-19.7
		c3.4-4.8,10.5-8.8,14.9-7.3c5.6,1.9,8.1,7,9.6,12.1C617,252,618,255.7,617.2,259.5z"/>
	<path d="M628.1,305.9c-3.1-0.7-7.1-1.3-10.8-2.6c-6.1-2.3-8.4-7.6-5.3-13.3c5.2-9.5,13.4-15.8,23-20.5c4.2-2.1,7.1-0.3,9.6,2.7
		c5.8,7.1,3.7,14.8,0.8,22.2C642.4,301.8,636.5,305.1,628.1,305.9z"/>
	<path class="st0" d="M610.7,249.9c3.2,7.9,3.4,15.1,1.5,22.4c-0.7,2.7-2.2,5.4-5.1,5.8c-2.4,0.3-4.5-1.4-5.6-3.8
		c-0.4-1-1.1-1.7-0.4-3C604.9,264.6,607.8,257.6,610.7,249.9z"/>
	<path class="st0" d="M642.8,277.8c4.2,9.4-4.2,22.4-13.3,21.9c-2.1-0.1-2.9-1.4-2.3-3.3c0.6-1.7,1.4-3.5,3.1-4.2
		C636.3,289.5,639.9,284.6,642.8,277.8z"/>
</g>
</svg>
