<?xml version="1.0" encoding="utf-8"?>
<!-- Generator: Adobe Illustrator 23.0.1, SVG Export Plug-In . SVG Version: 6.00 Build 0)  -->
<svg version="1.1" id="Layer_4" xmlns="http://www.w3.org/2000/svg" xmlns:xlink="http://www.w3.org/1999/xlink" x="0px" y="0px"
	 viewBox="0 0 1000 1000" style="enable-background:new 0 0 1000 1000;" xml:space="preserve">
<style type="text/css">
	.st0{fill:#7F7F7F;}
</style>
<g>
	<path d="M456.8,208c-8.1-0.2-13.8-3.3-18.7-7.9c-5.8-5.4-10.6-11.5-12.4-19.7c-2-9.1,4.3-16.4,13.5-14.3c11.8,2.6,22,8.3,29.2,18.5
		c3.2,4.5,5,9.5,2,14C467.1,203.6,462.4,207.8,456.8,208z"/>
	<path d="M481.9,154.3c6.8,0.7,12.1,5,16.2,11.6c8.8,14.5,0,25.5-12,31c-3.1,1.4-7.4-1.4-9.6-6c-4.1-8.5-5.3-17.8-5.7-27
		C470.6,158,474.8,154.4,481.9,154.3z"/>
	<path class="st0" d="M441.6,171.5c9.1,2.5,16,5.5,21.3,11.5c3.3,3.7,3.5,6.3,0,8.7c-3.3,2.3-6,2.3-8.1-1.9
		C451.6,183.5,447,178,441.6,171.5z"/>
	<path class="st0" d="M484,159.3c9.9,4,14,11.6,11.4,20.2c-1.2,3.9-2.5,3.5-4.7,1.1c-1.1-1.2-2.6-2.9-2.2-4.1c2-6.1-2.7-10.1-4.4-15
		C483.9,160.9,483.3,160.4,484,159.3z"/>
</g>
</svg>
