<?xml version="1.0" encoding="utf-8"?>
<!-- Generator: Adobe Illustrator 23.0.1, SVG Export Plug-In . SVG Version: 6.00 Build 0)  -->
<svg version="1.1" id="Layer_4" xmlns="http://www.w3.org/2000/svg" xmlns:xlink="http://www.w3.org/1999/xlink" x="0px" y="0px"
	 viewBox="0 0 1000 1000" style="enable-background:new 0 0 1000 1000;" xml:space="preserve">
<style type="text/css">
	.st0{fill:#7F7F7F;}
</style>
<g>
	<path d="M553.7,235.7c-0.5-2.7,0.3-5.8,1-8.9c2-8,10.4-11.2,17.4-6.8c11.7,7.4,18,18.1,19.7,31.7c0.7,5.6-4,11.2-10.2,13
		c-12.9,3.8-26.8-7.8-27-19.5C554.4,242.3,553.7,239.3,553.7,235.7z"/>
	<path d="M615.3,251c7.1-1.1,11,5.1,11.7,10.2c1.3,9.1-1.4,14.3-9.7,18.5c-4.1,2-8.3,3.7-13,3.5c-12.5-0.4-16.6-9.3-12.8-19.8
		c2.6-7.1,7.6-10.7,14.7-11.4C609.2,251.8,612.2,250.2,615.3,251z"/>
	<path class="st0" d="M574.4,226.3c7.4,5.9,11.8,13.4,13.5,22.5c0.7,3.8-1.3,6.2-4.5,6.8c-3.4,0.6-6-1.8-7-4.8
		c-0.7-2-1.3-4.2-1.3-6.6C575.3,238.3,575.6,232.3,574.4,226.3z"/>
	<path class="st0" d="M613.8,254.9c6.4,0,10.3,4.1,10.2,10.3c-0.1,2.7-1.3,4.4-3.9,2.8c-4.3-2.8-8.2-6-12.2-9.3
		c-1.1-0.9-0.8-2.1,0.8-3C610.5,254.7,612.2,255,613.8,254.9z"/>
</g>
</svg>
