<?xml version="1.0" encoding="utf-8"?>
<!-- Generator: Adobe Illustrator 23.0.1, SVG Export Plug-In . SVG Version: 6.00 Build 0)  -->
<svg version="1.1" id="Layer_4" xmlns="http://www.w3.org/2000/svg" xmlns:xlink="http://www.w3.org/1999/xlink" x="0px" y="0px"
	 viewBox="0 0 1000 1000" style="enable-background:new 0 0 1000 1000;" xml:space="preserve">
<style type="text/css">
	.st0{fill:#7F7F7F;}
</style>
<g>
	<path d="M551.5,391.6c-13.2,0-22.8-4.8-31-12.4c-6.2-5.7-12.9-11.2-16.4-19.3c-1.9-4.3-3-8.6-0.9-13.1c1.5-3.2,4-4.6,7.3-4
		c13.5,2.6,24.7,9.6,35.3,17.9c5,4,9.6,8.2,13,13.8c2.3,3.8,5.3,7.4,2.7,12.1C559,391.2,554.3,391.3,551.5,391.6z"/>
	<path d="M605.1,410.3c-10.1-1.1-20.3-1.8-30-5.8c-9.7-4-7.9-17.9-1.8-22.2c4.9-3.4,9.9-4.9,16.4-3.6c12.4,2.6,22.2,8.3,29.7,18.5
		c1.9,2.6,3.5,5.5,2.4,8.3c-1.1,2.6-4.3,3.2-7.2,3.8C611.5,409.9,608.4,410.4,605.1,410.3z"/>
	<path class="st0" d="M523.4,351.3c6.6,1.1,11,4.4,15.3,8c5,4.1,11.3,6.9,14.6,12.9c1.9,3.5,1,5.2-3,5.7c-3.3,0.5-6.1-0.6-8-3.3
		c-3.8-5.3-7.6-10.6-11.3-16C529,355.9,525.5,355.1,523.4,351.3z"/>
	<path class="st0" d="M587.5,382.2c11.7,1.9,21.5,7.3,28.3,17.4c1,1.4,0.7,3-0.7,4.4c-1.4,1.4-2.5,1.4-4.3,0.5
		c-3.7-1.8-7.1-3.5-9.1-7.4C598.4,390.9,593.4,386.3,587.5,382.2z"/>
</g>
</svg>
