<?xml version="1.0" encoding="utf-8"?>
<!-- Generator: Adobe Illustrator 23.0.1, SVG Export Plug-In . SVG Version: 6.00 Build 0)  -->
<svg version="1.1" id="Layer_4" xmlns="http://www.w3.org/2000/svg" xmlns:xlink="http://www.w3.org/1999/xlink" x="0px" y="0px"
	 viewBox="0 0 1000 1000" style="enable-background:new 0 0 1000 1000;" xml:space="preserve">
<style type="text/css">
	.st0{fill:#7F7F7F;}
</style>
<g>
	<path d="M609.5,255.7c-0.5,3.9-0.5,9.6-2.2,14.8c-2.8,8.5-10,12.6-19.6,7.9c-11-5.4-13.8-12-11.9-24.7c1.2-8,3-15.7,9.6-21
		c8.7-6.9,11.6-7.5,17.9,1.8C607.2,240.4,609.4,246.8,609.5,255.7z"/>
	<path d="M621.6,296c-5.6-0.5-10.5-1.7-14.8-4.4c-2.5-1.6-3.9-4-2.7-7.8c3-9,10.5-13.9,16.8-20c1.5-1.5,3.5-3.1,5.5-4.4
		c7.1-4.4,10.7-0.2,13.2,5c3.4,7.2,1.5,14-1.9,20.6C634.3,292.1,628.5,295.2,621.6,296z"/>
	<path class="st0" d="M601.2,241.6c4,7.6,5.7,15.4,3.2,23.6c-1.5,4.8-6.8,5.8-10.3,2.2c-1.2-1.2-1.7-2.2-0.8-3.8
		C597.2,256.7,599.4,249.3,601.2,241.6z"/>
	<path class="st0" d="M635.8,265.7c4.5,10.4-1.5,20-9.3,23.5c-3.4,1.6-4.4,0.3-4.4-2.9c0-1.9,0.7-3.6,2.1-4.7
		C629.3,277.7,633.6,273.2,635.8,265.7z"/>
</g>
</svg>
