<?xml version="1.0" encoding="utf-8"?>
<!-- Generator: Adobe Illustrator 23.0.1, SVG Export Plug-In . SVG Version: 6.00 Build 0)  -->
<svg version="1.1" id="Layer_4" xmlns="http://www.w3.org/2000/svg" xmlns:xlink="http://www.w3.org/1999/xlink" x="0px" y="0px"
	 viewBox="0 0 1000 1000" style="enable-background:new 0 0 1000 1000;" xml:space="preserve">
<style type="text/css">
	.st0{fill:#7F7F7F;}
</style>
<g>
	<path d="M611.4,257.2c0.9,4-0.8,9-2.4,13.7c-3.4,10.6-14.9,12.1-24,5.1c-6.9-5.4-7.7-12.4-6.3-20.6c1.4-8.7,4.1-16.6,10.4-22.7
		c6.2-6,12.7-5.4,16.9,1.5C610.3,241.1,611.2,248.3,611.4,257.2z"/>
	<path d="M623.1,296.8c-3.5,0.4-6.4-0.4-8.9-1.6c-10.6-5.1-10.9-9.4-3.6-18.5c4.1-5,8.9-9.4,13.7-13.8c3.3-3.1,7.8-4.1,12-2.8
		c4.3,1.3,5.7,5.1,6.3,9.6c1.7,13.1-3.7,22.6-15.5,26.6C625.5,296.9,624,296.4,623.1,296.8z"/>
	<path class="st0" d="M603.5,241.6c5.4,8.9,4.7,17.5,2.7,25.9c-0.7,2.8-3.8,3.7-6.7,2.4c-3.7-1.7-4.6-4.7-3.2-8.3
		c1.7-4.1,4.8-7.5,5.9-11.9C602.8,247.4,603.9,245.2,603.5,241.6z"/>
	<path class="st0" d="M638,268.5c4.3,10.4,0.1,19.4-9.4,22.1c-1.7,0.5-3.6,1-4.9-0.7c-1.6-2,0-3.8,1.2-5.1c2.4-2.5,5.6-4.5,7.8-7.2
		C634.8,275.2,636.1,271.9,638,268.5z"/>
</g>
</svg>
