<?xml version="1.0" encoding="utf-8"?>
<!-- Generator: Adobe Illustrator 23.0.1, SVG Export Plug-In . SVG Version: 6.00 Build 0)  -->
<svg version="1.1" id="Layer_4" xmlns="http://www.w3.org/2000/svg" xmlns:xlink="http://www.w3.org/1999/xlink" x="0px" y="0px"
	 viewBox="0 0 1000 1000" style="enable-background:new 0 0 1000 1000;" xml:space="preserve">
<style type="text/css">
	.st0{fill:#7F7F7F;}
</style>
<g>
	<path d="M544.6,383.8c-12-1.1-22.5-5.6-31.3-13.7c-6.4-5.8-12.1-12.2-14.8-20.6c-1.2-3.6-0.8-7.4,1.8-10.3c2.6-3,6.1-2.4,9.7-1.8
		c17.5,3.2,30.8,13.1,42.8,25.4c2.8,2.9,4.7,6.6,5.5,10.2c1,4.2-2.6,6.8-6,8.8C549.9,383.3,547.4,384,544.6,383.8z"/>
	<path d="M599.3,399.5c-9.1-0.1-16.8-1.5-24.4-3.3c-4.9-1.2-10.3-3-11.4-9.2c-1-5.7,3.4-13.7,8.8-16.9c3.8-2.2,7.4-3,12-2.1
		c10.5,2.1,19.9,5.7,27.4,13.7c2.4,2.5,3.8,5.5,5.1,8.5c1.6,3.8-0.9,6.4-4.3,7.1C607.8,398.3,603.1,400.4,599.3,399.5z"/>
	<path class="st0" d="M517.7,344.6c6.7,0.4,10.8,3.5,15,5.9c5.6,3.2,10.6,7.2,14.9,12.1c1.3,1.5,3.2,3.3,1.5,5.5
		c-1.5,1.8-3.9,2.6-6.2,1.8c-2.6-0.9-5.4-1.8-6.8-4.3C531.8,357.8,526.2,350.9,517.7,344.6z"/>
	<path class="st0" d="M581.9,372.2c13.6-0.5,21.8,6.5,28.3,16.2c0.8,1.2,2.1,2.8,0.4,4.3c-1.5,1.4-3.4,1.2-5,0.4
		c-2.5-1.3-5.5-2.5-6.9-5C594.8,381.4,588.7,377.2,581.9,372.2z"/>
</g>
</svg>
