<?xml version="1.0" encoding="utf-8"?>
<!-- Generator: Adobe Illustrator 23.0.1, SVG Export Plug-In . SVG Version: 6.00 Build 0)  -->
<svg version="1.1" id="Layer_4" xmlns="http://www.w3.org/2000/svg" xmlns:xlink="http://www.w3.org/1999/xlink" x="0px" y="0px"
	 viewBox="0 0 1000 1000" style="enable-background:new 0 0 1000 1000;" xml:space="preserve">
<style type="text/css">
	.st0{fill:#7F7F7F;}
</style>
<g>
	<path d="M529.3,246.2c0-10.6,4.1-13.7,12.9-11.9c15.8,3.2,23.4,14.8,28.9,28.2c2.4,5.8-3.2,13-10.1,14.8
		c-13.9,3.7-23.6-6.4-28.7-17.6C530.2,255.1,529.7,249.8,529.3,246.2z"/>
	<path d="M597.9,301.8c-8.9-0.6-17.8-4.8-26.6-9.4c-3.6-1.9-3.7-6.3-0.5-10.2c8.1-9.9,21.4-14.3,33.8-6.8c5.1,3.1,7.4,10.3,6.3,16.7
		C609.4,301.1,606.4,301.6,597.9,301.8z"/>
	<path class="st0" d="M545.7,240.3c5.3,0.5,8.5,3.6,11.4,6.9c2.7,3,5,6.2,7.5,9.4c2.2,2.9,3.1,5.8-0.8,8.1c-3.1,1.8-6.4,0.7-8.1-3.2
		c-1.3-3-2-6.4-3.4-9.4C550.4,248.2,548.1,244.5,545.7,240.3z"/>
	<path class="st0" d="M584.9,275.8c7-1.5,12.5,0.5,17.7,3.5c1.9,1.1,3.6,2.6,4,5.1c0.3,1.5,1.6,3.2,0,4.3c-1.3,1-3-0.3-3.9-1.2
		C597.5,283,592,278.9,584.9,275.8z"/>
</g>
</svg>
