<?xml version="1.0" encoding="utf-8"?>
<!-- Generator: Adobe Illustrator 23.0.1, SVG Export Plug-In . SVG Version: 6.00 Build 0)  -->
<svg version="1.1" id="Layer_4" xmlns="http://www.w3.org/2000/svg" xmlns:xlink="http://www.w3.org/1999/xlink" x="0px" y="0px"
	 viewBox="0 0 1000 1000" style="enable-background:new 0 0 1000 1000;" xml:space="preserve">
<style type="text/css">
	.st0{fill:#7F7F7F;}
</style>
<g>
	<path d="M456.1,211c-9.6-0.4-16.4-5.4-21.9-11.8c-3.9-4.5-7.3-9.3-8.5-15.5c-1.9-9.3,4.1-16.5,13.4-14.5
		c11.9,2.5,22.1,8.2,29.4,18.5c3.2,4.5,5,9.6,1.9,14.1C467,206.6,462.4,210.9,456.1,211z"/>
	<path d="M470.7,168.4c-0.1-9.3,7.2-13.9,16.1-9.9c9.2,4,13.7,12,15,21.4c1,7.3-9.3,19.4-16.7,20.2c-4.5,0.5-7.3-3-9-6.7
		C472.5,185.4,471.7,176.8,470.7,168.4z"/>
	<path class="st0" d="M442.6,175.3c8.5,1.6,15.5,5.1,21,11.3c2.8,3.1,2.3,5.8-0.7,8c-2.9,2.2-5.7,2.6-7.9-1.4
		C451.6,186.8,447.5,180.8,442.6,175.3z"/>
	<path class="st0" d="M483.3,162.1c10.5,3.9,14.9,11.8,12,20.3c-0.4,1.2-0.4,2.8-1.9,3c-1.5,0.2-2.2-1.3-3-2.2
		c-0.8-0.9-2.1-2.4-1.9-3.2C490.6,173.1,485.1,168.4,483.3,162.1z"/>
</g>
</svg>
