<?xml version="1.0" encoding="utf-8"?>
<!-- Generator: Adobe Illustrator 23.0.1, SVG Export Plug-In . SVG Version: 6.00 Build 0)  -->
<svg version="1.1" id="Layer_4" xmlns="http://www.w3.org/2000/svg" xmlns:xlink="http://www.w3.org/1999/xlink" x="0px" y="0px"
	 viewBox="0 0 1000 1000" style="enable-background:new 0 0 1000 1000;" xml:space="preserve">
<style type="text/css">
	.st0{fill:#7F7F7F;}
</style>
<g>
	<path d="M468,271.4c11,0.9,21.6,2.6,29.8,11c3.9,3.9,5.3,8.4,3.2,13.8c-2.1,5.5-6,9-11.5,10.3c-14.6,3.5-25.8-3.3-35.7-12.7
		c-7.2-6.8-5.9-17.3,2.1-20.6C459.6,271.8,463.8,271.2,468,271.4z"/>
	<path d="M507.8,289.2c0-14,12.7-23.5,26.5-20.3c5,1.2,9.3,2.9,12.5,6.9c3.3,4,3.5,7.8,0.1,11.6c-7.9,8.8-18.1,13.4-29.6,15.2
		c-5.4,0.8-8.6-3.1-9.5-10.5C507.7,291.2,507.8,290.2,507.8,289.2z"/>
	<path class="st0" d="M464.7,276.7c8.9-2.3,16.7-0.6,24.1,2.9c2.3,1.1,4.3,3.4,4.2,6.1c-0.1,2.6-2.6,3.9-4.9,4.9
		c-2.8,1.2-4.5-0.9-6.2-2.5C477,283.4,471.3,279.9,464.7,276.7z"/>
	<path class="st0" d="M516.9,274.9c8.2-2.8,15.1-3.8,21.9,0.4c1.6,1,3,2.1,3.9,3.6c1,1.8,2.3,3.8,0.2,5.7c-1.8,1.7-3.6,1.5-5.6,0.3
		C531.1,281.2,525.4,276.8,516.9,274.9z"/>
</g>
</svg>
