<?xml version="1.0" encoding="utf-8"?>
<!-- Generator: Adobe Illustrator 23.0.1, SVG Export Plug-In . SVG Version: 6.00 Build 0)  -->
<svg version="1.1" id="Layer_4" xmlns="http://www.w3.org/2000/svg" xmlns:xlink="http://www.w3.org/1999/xlink" x="0px" y="0px"
	 viewBox="0 0 1000 1000" style="enable-background:new 0 0 1000 1000;" xml:space="preserve">
<style type="text/css">
	.st0{fill:#808080;}
	.st1{fill:#7F7F7F;}
</style>
<g>
	<path d="M444.3,166c12.1,0.1,20.9,6.7,28.2,15.4c2,2.3,4.1,4.6,5.4,7.7c2.1,5.2,1.8,9-2.5,12.6c-8.9,7.5-20.2,9.3-30-0.8
		c-5.5-5.7-10.1-11.8-12.3-19.4c-1.3-4.5-1.2-9.1,2.3-13C437.9,165.8,441,165.8,444.3,166z"/>
	<path d="M479.7,168.3c0-1.9-0.4-4,0.1-5.8c1.8-6.3,6.2-7.9,12.9-6.4c9.3,2.1,16.4,14.4,17,21.8c0.7,7.9-9.4,20.1-17.4,21.3
		c-3.1,0.5-9.1-4-9.8-7.8C481.1,183.7,479.6,176.1,479.7,168.3z"/>
	<path class="st0" d="M449.6,172.3c9,0.8,15.6,5.3,21.1,11.8c2.1,2.5,3.3,5.3-0.1,7.9c-3.4,2.5-6.8,1.8-8.7-2
		C458.6,183.5,455.4,177.1,449.6,172.3z"/>
	<path class="st1" d="M490.5,160.2c12.2,3.3,14.1,11.9,13.3,19.6c-0.2,2.2-0.8,4.6-3.7,4.7c-3.1,0.1-3.5-2.5-3.9-4.6
		c-0.8-3.4-0.9-6.9-1.8-10.3C493.5,166.6,492,163.6,490.5,160.2z"/>
</g>
</svg>
