<?xml version="1.0" encoding="utf-8"?>
<!-- Generator: Adobe Illustrator 23.0.1, SVG Export Plug-In . SVG Version: 6.00 Build 0)  -->
<svg version="1.1" id="Layer_4" xmlns="http://www.w3.org/2000/svg" xmlns:xlink="http://www.w3.org/1999/xlink" x="0px" y="0px"
	 viewBox="0 0 1000 1000" style="enable-background:new 0 0 1000 1000;" xml:space="preserve">
<style type="text/css">
	.st0{fill:#7F7F7F;}
</style>
<g>
	<path d="M529.3,225.7c0-10.5,4.1-13.7,12.9-11.9c15.8,3.2,23.4,14.8,28.9,28.3c2.4,5.8-3.2,12.9-10.1,14.8
		c-13.9,3.8-23.6-6.4-28.7-17.6C530.2,234.6,529.7,229.3,529.3,225.7z"/>
	<path d="M597.9,281.3c-8.9-0.6-17.8-4.8-26.6-9.4c-3.6-1.9-3.7-6.3-0.5-10.2c8.1-9.9,21.4-14.3,33.8-6.8c5.1,3.1,7.4,10.3,6.3,16.7
		C609.4,280.6,606.4,281.1,597.9,281.3z"/>
	<path class="st0" d="M545.5,219.7c5.5,0.5,8.7,3.6,11.6,6.8c2.7,3,5.1,6.1,7.4,9.4c3,4.2,2.6,6.2-1.2,8.2c-3.1,1.6-6.2,0.3-7.9-3.7
		c-1.3-3.2-1.9-6.7-3.5-9.8C550.1,227.1,547.8,223.9,545.5,219.7z"/>
	<path class="st0" d="M584.9,255.3c7-1.5,12.5,0.5,17.7,3.5c1.9,1.1,3.6,2.6,4,5.1c0.3,1.5,1.6,3.2,0,4.3c-1.3,1-3-0.3-3.9-1.2
		C597.5,262.5,592,258.4,584.9,255.3z"/>
</g>
</svg>
