<?xml version="1.0" encoding="utf-8"?>
<!-- Generator: Adobe Illustrator 23.0.1, SVG Export Plug-In . SVG Version: 6.00 Build 0)  -->
<svg version="1.1" id="Layer_4" xmlns="http://www.w3.org/2000/svg" xmlns:xlink="http://www.w3.org/1999/xlink" x="0px" y="0px"
	 viewBox="0 0 1000 1000" style="enable-background:new 0 0 1000 1000;" xml:space="preserve">
<style type="text/css">
	.st0{fill:#7F7F7F;}
</style>
<g>
	<path d="M464.2,226.6c-6.4,0.4-11.2-4.6-15.7-9.4c-5.1-5.4-8.9-11.9-10.8-19.1c-2.2-7.9,2.8-14.1,11.2-14.6
		c7.5-0.4,13.7,3.2,19.6,7.1c5.1,3.4,9.3,7.8,12.9,12.8c3.3,4.5,4.8,11.8-0.7,16.7C476.2,224.2,471.3,226.5,464.2,226.6z"/>
	<path d="M485.3,188.7c0.8-12.4,7-16.6,17.8-12.3c10.2,4,17.6,20.6,10.7,30.1c-3.6,4.9-8.2,8.5-13.5,10.8c-3.9,1.8-7.7-0.6-10.1-4.4
		c-2.9-4.6-3.1-9.9-3.8-15C486.1,194.6,485.6,191.1,485.3,188.7z"/>
	<path class="st0" d="M455.7,190.6c8,2.7,16.2,4.5,21.4,12.3c2.5,3.8,0.9,5.7-1.7,7.6c-2.9,2.2-5.6,1.7-7.7-1.5
		C463.7,203,460.5,196.3,455.7,190.6z"/>
	<path class="st0" d="M498.9,179.2c9.6,3.5,14.7,12.7,12,20.9c-0.7,2.2-1.6,4.3-4.1,3.8c-2.4-0.5-4.2-3.2-3.6-5.1
		C505.2,191.5,501.9,185.6,498.9,179.2z"/>
</g>
</svg>
