<?xml version="1.0" encoding="utf-8"?>
<!-- Generator: Adobe Illustrator 23.0.1, SVG Export Plug-In . SVG Version: 6.00 Build 0)  -->
<svg version="1.1" id="Layer_4" xmlns="http://www.w3.org/2000/svg" xmlns:xlink="http://www.w3.org/1999/xlink" x="0px" y="0px"
	 viewBox="0 0 1000 1000" style="enable-background:new 0 0 1000 1000;" xml:space="preserve">
<style type="text/css">
	.st0{fill:#7F7F7F;}
</style>
<g>
	<path d="M461.7,219.1c-12-1.7-20-7.1-25.3-16.6c-2.6-4.6-4.8-9.2-4.7-14.6c0.1-8.7,5.1-12.3,13.7-11.4c8.7,0.9,15,5.3,21,10.9
		c3,2.8,6.5,4.9,8.8,8.6c5.6,8.9,1.9,19.1-8.6,21.5C464.6,218.1,462.7,219.5,461.7,219.1z"/>
	<path d="M508.8,186.7c0,9.7-8.9,20.8-16.5,22.3c-3.6,0.7-9.6-3.7-10.7-8.5c-1.6-6.9-3.1-13.9-4-20.9c-0.6-4.9,1.8-11.2,6.3-12.8
		c4-1.5,10.7-0.5,14.2,2.7C503.6,174.7,508.5,180.2,508.8,186.7z"/>
	<path class="st0" d="M447.8,183c9.8,1.3,17.5,5.7,23.1,13.9c1.7,2.5,0.3,4.2-1.1,5.5c-1.5,1.5-3.7,2.8-6.1,1
		c-0.8-0.6-1.6-1.2-2.1-2.1C457.6,194.8,453.6,188.3,447.8,183z"/>
	<path class="st0" d="M490.2,170.7c9.4,3.3,15.4,11.7,13.4,18.4c-0.6,2-1,5.3-3.6,5c-2.7-0.4-5.3-3.6-4.6-6
		C497.3,181.2,493.2,176.6,490.2,170.7z"/>
</g>
</svg>
