<?xml version="1.0" encoding="utf-8"?>
<!-- Generator: Adobe Illustrator 23.0.1, SVG Export Plug-In . SVG Version: 6.00 Build 0)  -->
<svg version="1.1" id="Layer_4" xmlns="http://www.w3.org/2000/svg" xmlns:xlink="http://www.w3.org/1999/xlink" x="0px" y="0px"
	 viewBox="0 0 1000 1000" style="enable-background:new 0 0 1000 1000;" xml:space="preserve">
<style type="text/css">
	.st0{fill:#7F7F7F;}
</style>
<g>
	<path d="M487.2,208c-8.3,0-13.5-5.4-18.1-11.2c-4.2-5.4-7.3-11.6-8.9-18.4c-2.3-9.8,4.9-17.1,14.7-14.7c14,3.4,23,12.1,27,25.7
		C505,200.3,498.5,208.1,487.2,208z"/>
	<path d="M536.2,182c0.5,9.5-8.7,19.2-18,21.1c-3.9,0.8-8.9-3.2-10.1-8.4c-2-8.7-1.7-17.5,0.6-26c2.7-10,9.8-12.2,17.8-6
		C532.6,167.6,535.9,174.1,536.2,182z"/>
	<path class="st0" d="M478.1,169.9c10,2.5,14.9,9.4,19.4,16.6c0.8,1.3,2.5,2.9,0.4,4.6c-1.8,1.5-3.7,2.9-6.1,2c-1.9-0.7-4-1.7-4.5-4
		C485.6,182.3,483.2,175.9,478.1,169.9z"/>
	<path class="st0" d="M521.4,164.2c4.2,3.4,7.5,7.4,9.8,12.2c1.7,3.5,0.7,6.8-0.5,10.1c-0.7,1.9-1.9,4.4-4.3,3.6
		c-2.6-0.8-4.6-3.5-3.5-6.1C525.7,177.1,523.3,170.9,521.4,164.2z"/>
</g>
</svg>
