<?xml version="1.0" encoding="utf-8"?>
<!-- Generator: Adobe Illustrator 23.0.1, SVG Export Plug-In . SVG Version: 6.00 Build 0)  -->
<svg version="1.1" id="Layer_4" xmlns="http://www.w3.org/2000/svg" xmlns:xlink="http://www.w3.org/1999/xlink" x="0px" y="0px"
	 viewBox="0 0 1000 1000" style="enable-background:new 0 0 1000 1000;" xml:space="preserve">
<style type="text/css">
	.st0{fill:#FEFEFE;}
	.st1{fill:#C0FEFE;}
</style>
<g>
	<path class="st0" d="M525.5,269.5c10.3,0.2,20.1,2.7,29,7.9c5.3,3.2,6.8,9.1,5.9,14.6c-2.4,15.9-6.3,31.4-13,46.3
		c-6,13.1-13.6,25-22.7,36c-2.6,3.1-5.8,5.5-9.2,7.6c-7.7,4.7-15.2-0.3-20.1-6.5c-3.8-4.9-5.2-10.9-5.8-16.7
		c-1.1-10.9-2.6-21.8-2.1-32.7c0.6-13.1,2.4-26.1,7.2-38.2c3.7-9.4,10.3-16.7,21.9-17.4C519.4,270.2,522.4,269.5,525.5,269.5z"/>
	<path class="st0" d="M533.1,384.8c0.6-9.5,4-17,7-24.6c7.3-18.6,17.6-35.7,27.3-53c2.1-3.7,4.7-7.2,7.5-10.3
		c4.9-5.4,9.9-4.6,13.9,1.6c3.3,5.1,2.8,10.4,1.7,15.9c-2.3,10.9-8.4,20-13.7,29.4c-7,12.2-16.4,22.6-25,33.5
		c-3.1,4-7.4,7.2-11.5,10.3c-1.2,0.9-2.9,2.8-5,1.6C533.2,387.9,532.8,385.9,533.1,384.8z"/>
	<path class="st1" d="M550,280.4c-1.7,1.3-3.3,0.9-4.8,0.6c-25.3-4-35.5,5.5-40.9,28.3c-3.8,16.4-5.8,33.2-5.3,50.2
		c0.1,4.4,1.9,8.6,0.6,13.5c-4.3-5.1-5.2-11.2-6.1-17c-1.3-8.5-2.3-17.1-2.1-25.6c0.3-13.5,2.1-26.8,6.6-39.6
		c4.7-13.5,17.1-20.3,31.2-17.6C536.5,274.5,543.8,275.4,550,280.4z"/>
	<path class="st1" d="M538.8,383.2c8.9-12.3,18.7-22.8,25.7-35.3c5.7-10.2,12.6-19.8,15.9-31.1c1.6-5.4,2.4-10.8,0.4-16.2
		c-0.4-1-1.1-2.3,0.1-3.1c1.4-0.9,2.5,0.2,3.3,1.2c2.9,3.4,4.2,7.2,3.3,11.7c-1.9,9.7-6,18.6-11.5,26.7
		c-10.1,14.9-19.9,30-32.6,42.9C542.3,381,541.5,382.5,538.8,383.2z"/>
</g>
</svg>
