<?xml version="1.0" encoding="utf-8"?>
<!-- Generator: Adobe Illustrator 23.0.1, SVG Export Plug-In . SVG Version: 6.00 Build 0)  -->
<svg version="1.1" id="Layer_4" xmlns="http://www.w3.org/2000/svg" xmlns:xlink="http://www.w3.org/1999/xlink" x="0px" y="0px"
	 viewBox="0 0 1000 1000" style="enable-background:new 0 0 1000 1000;" xml:space="preserve">
<style type="text/css">
	.st0{fill:#FEFEFE;}
	.st1{fill:#C0FEFE;}
</style>
<g>
	<path class="st0" d="M497.1,327c0.7-20.4,2.6-40.6,11.8-59.3c2.7-5.4,6.2-10.5,10.9-14.4c5.5-4.5,12.1-4.7,18.7-4.1
		c9,0.8,17.4,3.5,25.4,8.2c9.3,5.4,13.4,13.8,10,25.9c-4.5,15.6-12.2,29.7-20.8,43.3c-4.2,6.6-9,12.8-14.1,18.6
		c-6.3,7.3-14.3,12.6-23.8,15c-4.3,1.1-10.5-2.2-13.2-6.7c-3.5-5.7-4.3-12.2-4.8-18.6C496.9,332.2,497.1,329.6,497.1,327z"/>
	<path class="st0" d="M604.5,294.3c-0.3,8.4-3.6,15.8-8.6,22.2c-9.8,12.7-20.4,24.9-32.1,35.9c-6.2,5.9-12.1,12.4-20.3,15.7
		c-1.9,0.8-3.5,2.9-6,0.9c-2.3-1.9-1-3.9-0.5-6.1c1.9-8.9,6.9-16.2,11.2-23.9c6.9-12.3,14.3-24.3,23.1-35.3
		c5-6.3,10.4-12.2,15.7-18.2c2.7-3.1,5.5-5.3,10.4-3.5c4.9,1.8,6.1,5.6,7.1,9.8C604.6,292.7,604.5,293.5,604.5,294.3z"/>
	<path class="st1" d="M571.4,271.3c-7.5-5-14.3-9-22.8-10c-10.8-1.2-19.3,2.2-24.5,11.7c-8.5,15.6-12.6,32.7-16.3,49.8
		c-1.8,8.4-2.4,17-3.6,25.7c-1.6-1.3-2-3.1-2.4-5c-2.5-10.9-2-21.8,0-32.8c2.7-14.8,5-29.7,11.7-43.5c5-10.3,12.5-15.4,24-14.3
		c7.1,0.7,14.3,1.1,20.9,4.1C564.5,259.7,569.8,263.3,571.4,271.3z"/>
	<path class="st1" d="M543.4,363.3c1.6-3.7,4.7-4.6,6.7-6.7c13.8-14.4,27.3-29,38.4-45.6c2.3-3.5,4-7.4,5.7-11.3
		c2.2-5.2,2.1-10.4-1-15.6c4.6,0.6,7,3.3,7.4,7.9c0.5,6.5-1.8,12.4-5.5,17.3c-8.9,12.1-17.7,24.5-28.7,34.8
		C559.3,350.7,552.6,357.8,543.4,363.3z"/>
</g>
</svg>
