<?xml version="1.0" encoding="utf-8"?>
<!-- Generator: Adobe Illustrator 23.0.1, SVG Export Plug-In . SVG Version: 6.00 Build 0)  -->
<svg version="1.1" id="Layer_4" xmlns="http://www.w3.org/2000/svg" xmlns:xlink="http://www.w3.org/1999/xlink" x="0px" y="0px"
	 viewBox="0 0 1000 1000" style="enable-background:new 0 0 1000 1000;" xml:space="preserve">
<style type="text/css">
	.st0{fill:#FEFEFE;}
	.st1{fill:#C0FEFE;}
</style>
<g>
	<path class="st0" d="M537.5,229.5c10.4-0.2,19.9,2.9,29,7.8c7.2,3.9,10.6,18.6,7.3,29.2c-3.7,11.5-9.4,22.1-15.1,32.6
		c-6.2,11.5-14.9,21.1-24.2,30.2c-3.1,3.1-6.7,5.4-10.3,7.7c-12.7,7.9-23.5-0.9-25.2-13.9c-2.7-20.9,0.3-41.3,6.3-61.4
		c2.2-7.5,4.5-14.8,9.4-21C521.7,231.7,526.3,229.5,537.5,229.5z"/>
	<path class="st0" d="M605.5,274.8c-0.8,8.3-3.9,15.6-9.3,21.9c-8.5,10-16.1,20.8-25.9,29.8c-7.9,7.3-15.9,14.4-24.6,20.7
		c-0.8,0.6-1.6,1-2.5,1.3c-1.5,0.6-3,2-4.8,0.1c-1.4-1.5-1.6-2.9-1-4.8c4.1-13.5,11.2-25.4,19.1-36.9c10.4-15.1,20.8-30.2,33.8-43.2
		c3.6-3.6,8.7-3.3,11.6,1C604,267.7,605.5,271.1,605.5,274.8z"/>
	<path class="st1" d="M571.3,251.3c-5.6-5.9-11.2-8.9-18-10.2c-12.3-2.3-20.8,3.1-27.3,12.6c-8.8,12.8-13.1,27.5-16.1,42.5
		c-2,10.1-4.3,20.2-4.6,30.6c-3.6-6.4-4.6-13.5-4.1-20.4c0.8-12.3,2.4-24.5,5.6-36.4c2.2-8,4.6-15.9,8.5-23.3
		c5.5-10.6,16.3-15.8,28-13.8c6.9,1.2,13.8,1.9,19.8,6.1C567,241.8,569.7,245.3,571.3,251.3z"/>
	<path class="st1" d="M543.5,342.7c5.2-5.2,10.1-10.8,15.8-15.5c11-9.2,19.5-20.4,27.1-32.3c3.5-5.4,7.7-10.5,9.5-16.9
		c1.3-4.4,0.6-8.5-1.3-13.6c4.6,2.4,6.8,5,7,9.2c0.4,6.8-1.9,12.7-6,18c-9.5,12.2-19.2,24.2-30.7,34.5c-6.7,6-13.7,11.6-20.6,17.3
		C544,343.2,543.7,342.9,543.5,342.7z"/>
</g>
</svg>
