<?xml version="1.0" encoding="utf-8"?>
<!-- Generator: Adobe Illustrator 23.0.1, SVG Export Plug-In . SVG Version: 6.00 Build 0)  -->
<svg version="1.1" id="Layer_4" xmlns="http://www.w3.org/2000/svg" xmlns:xlink="http://www.w3.org/1999/xlink" x="0px" y="0px"
	 viewBox="0 0 1000 1000" style="enable-background:new 0 0 1000 1000;" xml:space="preserve">
<style type="text/css">
	.st0{fill:#FEFEFE;}
	.st1{fill:#C0FEFE;}
</style>
<g>
	<path class="st0" d="M548.7,372.7c-1,11.2-4.6,25.2-10.3,39c-5.5,13.4-11.7,26.2-20.8,37.5c-4.7,5.8-10.7,10.2-18,11.6
		c-5.1,1-9.3-2.1-12.1-6.3c-5.2-7.6-7.3-16.3-8-25.4c-0.8-10.2-2.6-20.5-1.8-30.8c1-12.3,1.5-24.7,6.7-36.3
		c3.6-8,10.1-12.8,18.5-14.2c12.2-2.1,24.3-1.2,35.7,4.5C545.8,356,549.2,361.2,548.7,372.7z"/>
	<path class="st0" d="M535.2,454.2c-3.4,1.6-6.6,3.5-10.5,4.4c1.7-10.9,6.2-20.9,10.2-31c5.9-14.6,12.3-29.1,19.9-42.9
		c3-5.5,6.3-11,12-14.5c3-1.8,5.7-1.9,8.1,1c6,7.1,8.3,15.1,3.4,25.9c-8.6,19-20.2,36.1-32.6,52.7c-1.3,1.8-3.4,2.4-5.5,2.4
		c-1.9-2.2,0-3.6,1.1-5.1c6.7-9.1,13.5-18.2,19.1-28.1c5.3-9.5,10.8-18.9,13.2-29.7c0.9-4.2,0.6-8-1.6-11.8
		c2.6,7.6,0.7,14.6-2.6,21.5c-8.5,18.3-18.7,35.6-30.7,51.8C537.6,452.2,536.1,452.9,535.2,454.2z"/>
	<path class="st1" d="M535.2,454.2c1.4-4.2,4.3-7.6,6.7-11.1c10.6-15.1,19.2-31.2,27-47.8c3.3-7.2,3.4-14.4-1.4-21.8
		c4.3-0.3,6.1,1.9,7.3,4.8c2.8,6.4,1,12.5-1.4,18.4c-7.5,19-18.4,36-31.3,51.7c-0.9,1.1-2.1,2.1-2.1,3.7
		C538.8,453.7,537.1,454.2,535.2,454.2z"/>
	<path class="st1" d="M541.7,360.1c-5.7-0.9-11.5-1.8-17.2-2.6c-12.1-1.5-22,5.3-27.1,19.1c-3.6,9.6-5.3,19.7-6.2,29.9
		c-0.6,7.2-1.4,14.5-1.9,21.8c-0.5,7.9,1.1,15.8,1.5,24.1c-3-1.3-3.8-4-4.3-6.4c-3.6-16-6.3-32-4.3-48.6c1.1-9,1-18.2,3.4-26.9
		c2.3-8.3,5.8-16.4,15.4-18.4c5.6-1.2,11.6-2,17.4-1.3C526.9,351.7,534.9,354.6,541.7,360.1z"/>
</g>
</svg>
