<?xml version="1.0" encoding="utf-8"?>
<!-- Generator: Adobe Illustrator 23.0.1, SVG Export Plug-In . SVG Version: 6.00 Build 0)  -->
<svg version="1.1" id="Layer_4" xmlns="http://www.w3.org/2000/svg" xmlns:xlink="http://www.w3.org/1999/xlink" x="0px" y="0px"
	 viewBox="0 0 1000 1000" style="enable-background:new 0 0 1000 1000;" xml:space="preserve">
<style type="text/css">
	.st0{fill:#FEFEFE;}
	.st1{fill:#C0FEFE;}
</style>
<g>
	<path class="st0" d="M520.6,245.6c-0.3,17.8-2.3,35.3-9,51.9c-2.6,6.6-5.9,12.8-13.1,16.3c-4.1,2-7.5,1.7-11.3,0.1
		c-6.2-2.7-10.5-7.3-13.7-13.3c-9.1-17.3-16.3-35.3-18.5-54.9c-0.8-6.7-2.9-13.3-1.1-20.3c2.3-9,6.1-16.4,15.1-20.5
		c11.8-5.5,24-7.2,36.7-4.7c5,1,8.4,3.8,9.9,9c2.1,6.9,3.7,13.7,4,20.9C520,235.3,520.4,240.4,520.6,245.6z"/>
	<path class="st0" d="M519.4,292.7c1.2-13.7,2.1-27.3,4.8-40.8c2.1-10.5,2.9-21.3,6-31.7c0.6-2,1.4-3.9,1.9-5.8
		c1.8-7.6,6.8-9.5,12.9-4.7c7.9,6.3,10.7,14,9,24.5c-2.4,14.4-6,28.5-10.3,42.3c-3.2,10.1-6.5,20.5-12.6,29.4
		c-1.6,2.4-3.6,6.2-6.8,5.3c-2.9-0.8-3.4-4.7-4-8C519.7,299.7,519.6,296.2,519.4,292.7z"/>
	<path class="st1" d="M508.1,205.6c-9.2,1.7-17.8,1.9-25.8,5.8c-7,3.5-10,9.4-11.6,16.4c-1.3,5.4-0.7,10.8-0.2,16.4
		c0.9,11,2.3,21.9,4.6,32.7c2.1,10.1,5.8,19.9,9.5,29.7c-4.4-3.3-6.9-8-9.5-12.6c-9.7-17.6-15.1-36.4-17.4-56.4
		c-0.6-5-0.5-9.7,0.9-14.4c3.8-12.8,13.9-17.7,25.8-20C492.3,201.8,500.2,201,508.1,205.6z"/>
	<path class="st1" d="M525.4,305.1c2.6-7.3,5.3-14.6,7.9-21.9c5.9-16.1,10-32.6,11.2-49.6c0.6-8.3,0.3-17.5-9.2-22.9
		c8.7,0,12.1,3.4,13.6,11.2c2.6,14-1.5,27-5.3,40.1c-4.1,13.9-8.9,27.5-15.6,40.4c-0.6,1.1-1.2,2.2-1.8,3.4
		C526,305.5,525.7,305.3,525.4,305.1z"/>
</g>
</svg>
