<?xml version="1.0" encoding="utf-8"?>
<!-- Generator: Adobe Illustrator 23.0.1, SVG Export Plug-In . SVG Version: 6.00 Build 0)  -->
<svg version="1.1" id="Layer_4" xmlns="http://www.w3.org/2000/svg" xmlns:xlink="http://www.w3.org/1999/xlink" x="0px" y="0px"
	 viewBox="0 0 1000 1000" style="enable-background:new 0 0 1000 1000;" xml:space="preserve">
<style type="text/css">
	.st0{fill:#FEFEFE;}
	.st1{fill:#C0FEFE;}
</style>
<g>
	<path class="st0" d="M528.3,359.6c-0.9,20-2.5,40-9.8,58.9c-3.5,9-8.4,17.2-15.8,23.6c-3.9,3.4-7.8,3.7-12.7,1.7
		c-9.9-4.2-13.9-12.9-17.3-22c-5.4-14.1-9.3-28.5-10-43.8c-0.4-8-1.1-15.9,0.1-23.9c1.6-10.7,7.4-17.8,17.4-21.2
		c12.3-4.2,24.8-5.3,37.5-1.9c4.9,1.3,7.6,4.5,8.6,9.1C527.8,346.5,528.9,353,528.3,359.6z"/>
	<path class="st0" d="M521.5,434.5c0.9-16.4,4-32.1,8.2-47.6c3.4-12.6,6.7-25.3,11.3-37.5c0.6-1.6,1.1-3.3,2-4.8
		c2.2-3.2,4.8-4.7,8.9-2.8c7.8,3.7,11.5,13.1,10,21.7c-2.3,13.9-6.1,27.4-11.2,40.5c-5,12.8-11.3,25-19.1,36.4
		c-1.3,1.8-3.2,4-5.3,3.6c-2.2-0.4-3.5-2.7-4.3-5.3C521.6,437.2,521.7,435.7,521.5,434.5z"/>
	<path class="st1" d="M487.1,438c-5.1-2.9-7-7.5-8.8-11.9c-8.2-20.4-12.9-41.5-12.4-63.5c0.2-8.4,2.1-16.4,8.9-22.4
		c4.4-3.9,10-5.2,15.5-6.6c9.8-2.5,19.1-0.9,28,3.9c-5.2-1.4-10.3,0.2-15.4,0.4c-12.7,0.6-22.3,8.7-24.2,21.2
		c-2.2,14.5-1.3,29.1,0.4,43.6C480.4,414.6,483.7,426,487.1,438z"/>
	<path class="st1" d="M526.7,438.3c1.8-4,3.3-8.1,5.3-11.9c10.6-19.9,16.3-41.3,20.5-63.2c1-5.1-1-9.9-3.3-14.5
		c-0.6-1.1-1.8-1.9-1.4-3.4c6.8,0.8,10.3,5.4,10.8,14.2c0.4,7.2-1.2,14.3-3.4,21c-6.6,20.1-14.5,39.6-26.9,57
		c-0.3,0.4-0.6,0.7-0.9,1C527.1,438.5,526.9,438.4,526.7,438.3z"/>
</g>
</svg>
