<?xml version="1.0" encoding="utf-8"?>
<!-- Generator: Adobe Illustrator 23.0.1, SVG Export Plug-In . SVG Version: 6.00 Build 0)  -->
<svg version="1.1" id="Layer_4" xmlns="http://www.w3.org/2000/svg" xmlns:xlink="http://www.w3.org/1999/xlink" x="0px" y="0px"
	 viewBox="0 0 1000 1000" style="enable-background:new 0 0 1000 1000;" xml:space="preserve">
<style type="text/css">
	.st0{fill:#FEFEFE;}
	.st1{fill:#C0FEFE;}
</style>
<g>
	<path class="st0" d="M511.8,381.4c-0.6,12.9-1,25.8-7,37.7c-1.5,2.9-3.6,5.7-5.8,8.1c-6.9,7.6-12.1,6.6-20.2,1.4
		c-8.4-5.4-11.8-14.7-16.9-22.6c-10.3-15.7-16.6-33.2-19.2-51.5c-1.4-10.1,0.2-20.6,10.1-27.7c9.6-6.9,20.1-11.1,31.7-11.1
		c13.4,0,17.7,4.3,21.1,16.9c3.1,11.4,4.6,23.1,5.2,34.9C511.2,372.1,511.6,376.7,511.8,381.4z"/>
	<path class="st0" d="M513.5,384.9c1.2-15,1.6-31.9,3.9-48.6c0.4-3.1,0.5-6.4,1.3-9.4c2.1-8.3,8.8-10.2,15.2-4.4
		c5.6,5.1,8,12,7.9,19.2c-0.1,12.1-1.7,24.1-3.5,36.2c-1.8,12.1-5.2,23.7-9,35.2c-1.1,3.3-3,6.2-4.6,9.3c-1.8,3.3-3.3,2.8-5.5,0.7
		c-1.8-1.8-2.3-3.9-2.8-6.4C514.5,406.8,513.8,396.7,513.5,384.9z"/>
	<path class="st1" d="M495.8,322c-7.5,0.7-13.5,2.9-19.7,4.8c-13.1,4.1-17.4,12.7-16.9,26.2c0.4,10.3,2,20.6,5.1,30.6
		c3.6,11.7,8.6,22.7,13.9,33.7c1.3,2.7,2.7,5.5,4.6,9.4c-6.7-4.5-10.4-10-13.8-15.4c-9.8-15.4-17.3-31.9-21.2-49.9
		c-2-9.1-3.4-18.5,2.4-26.8c6.2-8.7,15.8-11.9,25.7-14.3C482.4,318.8,488.7,319,495.8,322z"/>
	<path class="st1" d="M521,419.3c4.2-10.1,5.8-20,7.5-29.8c2.1-11.8,3.1-23.8,3.5-35.7c0.2-4.4,2-8.7,0.9-13
		c-1.8-7.2,0.3-7.5-9.5-16.7c5.1-1.4,9.1,0.3,11.8,5.4c3.4,6.3,4.1,13.1,3.4,20.3c-1.3,12.4-2.7,24.8-5.5,37
		c-2.2,9.3-3.6,18.9-7.8,27.6C524.4,416,523.8,417.8,521,419.3z"/>
</g>
</svg>
