<?xml version="1.0" encoding="utf-8"?>
<!-- Generator: Adobe Illustrator 23.0.1, SVG Export Plug-In . SVG Version: 6.00 Build 0)  -->
<svg version="1.1" id="Layer_4" xmlns="http://www.w3.org/2000/svg" xmlns:xlink="http://www.w3.org/1999/xlink" x="0px" y="0px"
	 viewBox="0 0 1000 1000" style="enable-background:new 0 0 1000 1000;" xml:space="preserve">
<style type="text/css">
	.st0{fill:#FEFEFE;}
	.st1{fill:#C0FEFE;}
</style>
<g>
	<path class="st0" d="M514.5,207c7.6,1.3,15.5,0.4,22.8,3.9c4.5,2.2,6.4,5.8,7.6,10.3c1.9,7.2,0.9,14.4-0.1,21.5
		c-2,13.3-5.1,26.3-9.6,39c-4.1,11.8-9.4,22.8-17.6,32.2c-3.6,4.1-8.2,7.1-13.3,9.1c-3.3,1.3-6.2-0.8-8.7-2.7
		c-5-3.9-8.3-9.2-10.3-15.2c-3.7-11.3-6.5-22.8-7-34.8c-0.3-7-2.2-14-1.8-21c0.7-11.6,2.2-23.1,10.3-32.4c4.8-5.5,11.3-7.5,18.1-8.6
		C508.1,207.7,511.2,206,514.5,207z"/>
	<path class="st0" d="M579.1,244.7c0.3,8.6-4.1,15.5-7.3,22.6c-7.2,16.4-16.3,31.8-27,46.2c-2.2,3-4.7,5.7-7.1,8.5
		c-1.4,1.6-3.1,3.6-5.1,2.8c-2.4-1-3.4-3.6-3.4-6.4c0-6.1,1.5-12.1,3.2-17.8c6.2-21.3,12.9-42.5,23.2-62.3c1.2-2.4,2.6-4.7,4.4-6.8
		c4.9-5.7,14.3-4.3,17,2.9C578.3,237.7,579.6,241.3,579.1,244.7z"/>
	<path class="st1" d="M538,218.6c-2.5-0.3-5.1-0.4-7.6-1.1c-7.1-1.9-14-0.2-20.6,1.8c-9.5,2.9-13.9,10.7-15.3,19.7
		c-2.6,16-4.3,32-2.6,48.4c0.9,8.3,0.8,16.7,1.7,25c-5.1-5.7-6.7-12.8-8.1-19.8c-2.9-14.5-4.8-29.2-4-44c0.4-8.4,1.4-16.8,5.4-24.5
		c2.4-4.5,5.5-8.1,10.3-9.9C511.3,209,525,209.7,538,218.6z"/>
	<path class="st1" d="M566.6,230.3c7.4,3.3,9.9,9.7,8,17.9c-3.4,15.1-10.9,28.4-18.4,41.6c-5.9,10.3-12.9,20.1-21.5,28.5
		c4-7.3,9.1-13.9,13.3-21.1c9.2-16.1,16.4-33,20.7-51.1C570,241.1,570.2,235.9,566.6,230.3z"/>
</g>
</svg>
