<?xml version="1.0" encoding="utf-8"?>
<!-- Generator: Adobe Illustrator 23.0.1, SVG Export Plug-In . SVG Version: 6.00 Build 0)  -->
<svg version="1.1" id="Layer_4" xmlns="http://www.w3.org/2000/svg" xmlns:xlink="http://www.w3.org/1999/xlink" x="0px" y="0px"
	 viewBox="0 0 1000 1000" style="enable-background:new 0 0 1000 1000;" xml:space="preserve">
<style type="text/css">
	.st0{fill:#FEFEFE;}
	.st1{fill:#C0FEFE;}
</style>
<g>
	<path class="st0" d="M521.5,361.5c0,19.3-1.4,36.6-6,53.5c-2.3,8.3-6.6,16-13.3,21.6c-7.2,6-18.9,4.3-24.1-4.3
		c-9.7-15.7-16.7-32.5-20.1-50.8c-1.5-8.4-2.9-16.7-2.7-25.2c0.1-6,1.3-11.8,4.7-17.1c4-6.2,9.9-9.7,16.3-11.8
		c9.1-3,18.4-5.7,28.5-3.4c12.4,2.8,14.6,6.7,15.7,16.9C521.1,348.4,522.4,355.8,521.5,361.5z"/>
	<path class="st0" d="M555.6,356.3c-1.7,13.2-4.8,28.4-10.2,43c-4.2,11.5-7.6,23.4-14.4,33.8c-1.5,2.4-3.9,5.1-7,4.1
		c-2.6-0.9-3.1-3.9-3.7-6.8c-2.2-11.9,0.8-23.5,1.9-35.2c1.5-15.5,5.4-30.5,9-45.6c1.2-5.1,1.7-10.7,5.5-14.9
		c3.3-3.6,6.3-3.7,9.9-0.4C552.5,339.6,555.9,346.1,555.6,356.3z"/>
	<path class="st1" d="M485,432.5c-6.4-5.4-10.2-12.3-13.3-19.7c-6.9-16.4-11.4-33.5-12.5-51.2c-1-16.6,3-26.9,21.5-31.7
		c10-2.6,20-4.3,30.4,1.6c-5.1,1.2-9.7,0.6-14.1,1.3c-20.8,3.3-24.4,11.8-25.1,29.1c-0.8,22.2,2.4,44,11.3,64.6
		C484,428.4,484.4,430.5,485,432.5z"/>
	<path class="st1" d="M526.2,429.7c3.1-10,7.8-19.4,10.6-29.5c4-14.2,7.8-28.4,9-43.2c0.6-7,0.3-14.1-6.3-19.1
		c5.6-1.4,10.1,2.6,11.3,9c2,11.3-1,22.2-3.5,33c-2.7,11.7-6.9,23-11.2,34.2C533.7,419.8,529.9,424.7,526.2,429.7z"/>
</g>
</svg>
