<?xml version="1.0" encoding="utf-8"?>
<!-- Generator: Adobe Illustrator 23.0.1, SVG Export Plug-In . SVG Version: 6.00 Build 0)  -->
<svg version="1.1" id="Layer_4" xmlns="http://www.w3.org/2000/svg" xmlns:xlink="http://www.w3.org/1999/xlink" x="0px" y="0px"
	 viewBox="0 0 1000 1000" style="enable-background:new 0 0 1000 1000;" xml:space="preserve">
<style type="text/css">
	.st0{fill:#FEFEFE;}
	.st1{fill:#C0FEFE;}
</style>
<g>
	<path class="st0" d="M504.9,261.2c-1.6,12.9-1.3,26-7.5,38.4c-6.7,13.5-17.6,11.1-25.9,4.2c-7.2-5.9-12.5-13.7-17.2-21.6
		c-8.4-14.3-15.5-29.2-19.1-45.6c-3.8-17.6,1-27.8,16.6-36.7c8.7-5,18.2-7.3,28.1-7.5c7.7-0.2,11.7,3.1,14.6,10.4
		c6.3,15.5,8.5,31.8,9.4,48.3C504.1,254.4,505.6,257.7,504.9,261.2z"/>
	<path class="st0" d="M507.6,253.4c0.1-8.6-1.1-17.1-0.9-25.7c0.2-8.4,0.9-16.6,2.1-24.9c1.1-7.9,7.9-10.9,14.3-6.2
		c5.7,4.2,8.9,9.9,10.2,17.1c1.8,10.2-0.5,20.1-1,30.1c-0.8,14.8-4.3,29.1-8,43.4c-0.8,3.2-2.3,6.2-3.8,9.1
		c-2.3,4.6-4.8,4.6-7.6,0.1c-2.4-3.9-2.5-8.5-3-12.8C508.7,273.6,508.3,263.5,507.6,253.4z"/>
	<path class="st1" d="M486.4,198.6c-4.5,2.2-9.2,1.5-13.6,2.5c-14.5,3.6-24,13.4-21.9,31.5c2.9,24.3,12.2,46.3,24.8,67
		c0.6,1,1.7,2,0.9,3.8c-5.2-2.9-8-7.8-11.3-12.3c-12.4-16.9-22-35-26.6-55.7c-4.1-18.5,4.8-29.8,20-35.2
		C467.6,197,476.7,194.5,486.4,198.6z"/>
	<path class="st1" d="M516.9,295.3c1.8-9.6,3.8-18.5,5-27.6c2.6-19.1,4.5-38.3-0.3-57.4c-1.2-4.6-2.9-9-7.8-11.3
		c4.8-1.2,9.3,0.9,11.8,5.5c3,5.6,3.2,11.8,3.6,17.9c1.7,24.6-4.6,47.9-11.2,71.1C518,294.1,517.5,294.4,516.9,295.3z"/>
</g>
</svg>
