<?xml version="1.0" encoding="utf-8"?>
<!-- Generator: Adobe Illustrator 23.0.1, SVG Export Plug-In . SVG Version: 6.00 Build 0)  -->
<svg version="1.1" id="Layer_4" xmlns="http://www.w3.org/2000/svg" xmlns:xlink="http://www.w3.org/1999/xlink" x="0px" y="0px"
	 viewBox="0 0 1000 1000" style="enable-background:new 0 0 1000 1000;" xml:space="preserve">
<style type="text/css">
	.st0{fill:#FEFEFE;}
	.st1{fill:#C0FEFE;}
</style>
<g>
	<path class="st0" d="M507,391.1c-0.4,10.3-1.7,19.4-6.4,27.6c-4,6.9-10.1,11.9-20.3,6.7c-10-5.2-16.2-13.9-22.9-22.2
		c-7.4-9.3-13.7-19.5-18.4-30.3c-5-11.6-8.8-23.7-4.6-36.8c2.3-7.3,8.1-10.9,13.2-15.3c8.6-7.4,19.4-9.6,30.3-11
		c7.7-1,11.7,2,15,12.3c4.9,14.8,9.3,29.8,11.1,45.5C505,375.6,506.3,383.8,507,391.1z"/>
	<path class="st0" d="M532.3,359.3c-1.3,11.1-1.6,23.9-3.8,36.6c-0.9,5.1-1.6,10.3-3,15.3c-0.7,2.4-2,4.3-4.2,4.7
		c-2.4,0.4-3.6-1.9-4.6-3.7c-4.2-7.2-5.9-15.3-6.9-23.5c-1.8-15.6-3.5-31.2-4.2-46.9c-0.4-9.3-1.2-18.5,0.1-27.8
		c0.6-4.3,3.2-5.1,6.5-4c11.1,3.6,16.6,9.4,18,22.8C531.2,341,532.1,349.3,532.3,359.3z"/>
	<path class="st1" d="M477.4,316.5c-5.3,2.7-10.7,5.3-16,8c-8.2,4.3-14.3,16.3-12.5,24.9c5.4,25.8,15.6,49.4,32.4,70.2
		c-2.7-0.3-8.3-4.2-11.9-8.2c-14.3-16.2-24.6-34.5-31.2-55.1c-3.3-10.5-2.8-20.7,5.9-28.2C453.4,320,464.4,315.2,477.4,316.5z"/>
	<path class="st1" d="M520.5,408.7c0.4-6.3,0.5-12.6,1.1-18.8c1.2-13.6,2.2-27.1,1.8-40.8c-0.2-6.3-1-12.6-2.1-18.8
		c-1.1-6-4.5-11-9.8-15.7c5.3,0,8.1,2,10.6,5c4.6,5.5,5.9,12.3,6.1,19.1c0.2,7.4,0.5,14.9-0.6,22.3c-1,6.7-0.1,13.6-1.2,20.4
		c-1.5,9.2-1.8,18.5-4.7,27.4C521.3,408.8,520.9,408.8,520.5,408.7z"/>
</g>
</svg>
