<?xml version="1.0" encoding="utf-8"?>
<!-- Generator: Adobe Illustrator 23.0.1, SVG Export Plug-In . SVG Version: 6.00 Build 0)  -->
<svg version="1.1" id="Layer_4" xmlns="http://www.w3.org/2000/svg" xmlns:xlink="http://www.w3.org/1999/xlink" x="0px" y="0px"
	 viewBox="0 0 1000 1000" style="enable-background:new 0 0 1000 1000;" xml:space="preserve">
<style type="text/css">
	.st0{fill:#FEFEFE;}
	.st1{fill:#C0FEFE;}
</style>
<g>
	<path class="st0" d="M480.2,420.5c2-14.9,1.4-30.6,7.1-45.2c4.4-11.3,10.8-19.8,24.7-21c12.2-1.1,23.5-0.3,33.7,6.6
		c11.4,7.7,10.9,11.1,8.7,21.2c-3,14.2-7.7,27.9-14.4,40.9c-6.1,11.7-13,22.9-21.7,32.8c-3.8,4.3-8.8,7.3-13.9,9.9
		c-4.6,2.3-8.8,0.8-12.6-2.5c-6-5.3-8.3-12.3-9.3-19.7C481.5,435.8,481,428.3,480.2,420.5z"/>
	<path class="st0" d="M543,452c-5,2.1-10,4.2-16.1,6.7c5.4-12.6,9.8-24.4,16-35.3c6.6-11.5,13.1-23.1,20.4-34.2
		c2.2-3.3,5-5.9,7.9-8.5c3.4-3.1,8.1-1.7,10.8,2.8c4.1,6.8,4.8,13.6,1.4,21.1c-6.9,15.3-17.2,28.4-26.6,42c-1.5,2.2-4.3,2.4-6.9,2.7
		c-1.5-2.6,0.5-4.2,1.9-5.9c9.4-11.9,17.7-24.4,24.5-38c2.8-5.6,4.2-11.6,1-17.7c1.6,6.3-0.2,12-2.8,17.5
		c-7.1,14.8-15,29.1-25.5,41.9C547.3,449.1,545.2,450.7,543,452z"/>
	<path class="st1" d="M543,452c10.5-13,19.5-27,27-42c4.2-8.4,9.1-16.7,3-27.1c6.3,1.5,7.9,5.2,8.1,9.9c0.4,7.7-2.8,14.2-6.6,20.5
		c-7,11.5-13.7,23.1-23,33c-0.7,0.8-1.1,2-1.6,3C547.9,451.1,545.5,451.7,543,452z"/>
	<path class="st1" d="M548.3,368.1c-5.8-1.7-11.5-2.6-17.2-3.4c-9.4-1.3-17.1,1-23.3,8.7c-8.6,10.8-10.9,23.8-13.6,36.6
		c-2.9,14-3.2,28.3-3.1,42.6c0,1,0.5,2.2-0.9,3.6c-2.6-6.4-4-12.8-4.8-19.3c-2.3-19.9-0.6-39.6,5-58.7c4.6-15.6,13.1-23.3,32.1-20.9
		c6.7,0.8,13.7,0.6,19.4,5.1C544.2,364.1,546.2,366.1,548.3,368.1z"/>
</g>
</svg>
