<?xml version="1.0" encoding="utf-8"?>
<!-- Generator: Adobe Illustrator 23.0.1, SVG Export Plug-In . SVG Version: 6.00 Build 0)  -->
<svg version="1.1" id="Layer_4" xmlns="http://www.w3.org/2000/svg" xmlns:xlink="http://www.w3.org/1999/xlink" x="0px" y="0px"
	 viewBox="0 0 1000 1000" style="enable-background:new 0 0 1000 1000;" xml:space="preserve">
<style type="text/css">
	.st0{fill:#FEFEFE;}
	.st1{fill:#C0FEFE;}
</style>
<g>
	<path class="st0" d="M487.3,351.2c0.2-13.9,1.9-27.7,6.6-40.8c3.8-10.8,10.5-18,23.1-19.7c12.2-1.6,23.4,0.6,34.3,5.3
		c6.7,2.9,10.3,8.9,9.2,16c-2.3,15.3-5.7,30.3-12.2,44.6c-4.1,8.9-8.4,17.7-14.1,25.7c-5.2,7.3-10.5,14.5-18,19.7
		c-5.3,3.6-11.9,2.5-17.4-2.3c-6.3-5.5-8.6-13-9.4-20.7C488.5,369.8,487.1,360.6,487.3,351.2z"/>
	<path class="st0" d="M533.2,404.4c0.5-8.3,3.8-15.8,6.8-23.5c7.3-18.8,17.7-35.9,27.4-53.4c2-3.6,4.6-6.9,7.3-10
		c5-5.6,10.1-4.8,14.2,1.7c3.2,5.1,2.6,10.3,1.5,15.9c-2.3,10.9-8.5,19.9-13.8,29.4c-6.8,12.1-16.2,22.3-24.7,33.2
		c-3.2,4.1-7.7,7.3-11.9,10.5c-1.2,0.9-2.8,2.9-5,1.5C533.1,408.3,533,406.4,533.2,404.4z"/>
	<path class="st1" d="M550,301c-1.7,1.3-3.3,0.8-4.8,0.6c-25.3-4-35.5,5.5-40.9,28.3c-3.8,16.4-5.8,33.2-5.3,50.2
		c0.1,4.4,1.9,8.6,0.6,13.5c-4.3-5-5.2-11.2-6.1-17c-1.3-8.5-2.3-17.1-2.1-25.6c0.3-13.5,2.1-26.8,6.6-39.6
		c4.7-13.5,17.1-20.3,31.2-17.6C536.5,295.1,543.8,295.9,550,301z"/>
	<path class="st1" d="M539.6,402c5.1-6.4,9.5-11.9,13.8-17.4c10.6-13.5,19-28.3,26-43.8c2.7-6.1,3.9-13.1,1.4-19.9
		c-0.4-1-1-2.3,0.4-3c1.3-0.6,2.2,0.3,2.9,1.2c3.1,3.5,4.3,7.4,3.4,12.1c-2.6,12.6-8.9,23.3-16.1,33.5
		c-7.3,10.3-14.3,20.9-22.7,30.3C546.3,397.4,544.4,400.6,539.6,402z"/>
</g>
</svg>
