<?xml version="1.0" encoding="utf-8"?>
<!-- Generator: Adobe Illustrator 23.0.1, SVG Export Plug-In . SVG Version: 6.00 Build 0)  -->
<svg version="1.1" id="Layer_4" xmlns="http://www.w3.org/2000/svg" xmlns:xlink="http://www.w3.org/1999/xlink" x="0px" y="0px"
	 viewBox="0 0 1000 1000" style="enable-background:new 0 0 1000 1000;" xml:space="preserve">
<style type="text/css">
	.st0{fill:#FEFEFE;}
	.st1{fill:#C0FEFE;}
</style>
<g>
	<path class="st0" d="M491.2,288.9c0.3,8.5-0.8,16.5-5.4,23.9c-3.1,5-7.6,6.1-12.7,5.5c-5.6-0.6-10.6-3-15.1-6.4
		c-8.1-6.2-14.3-14.1-21-21.8c-8.5-9.8-15.2-20.7-20.5-32.4c-3.4-7.5-5.9-15.5-3.4-23.9c2.2-7.3,7.8-12.5,13.5-17.2
		c8.3-6.8,17.7-11.5,28.9-11.7c7.4-0.1,12,3.1,15.6,9.5c8.8,15.7,14.2,32.7,17.9,50.1C490.6,272.5,491.7,280.8,491.2,288.9z"/>
	<path class="st0" d="M515.9,262.5c-1.7,11.6-0.9,23.5-3.2,35.2c-0.5,2.6-1.4,5.5-4.2,5.8c-3.1,0.3-5.2-2.1-6.3-5
		c-6.5-17.3-11.5-35.1-14-53.5c-1.6-11.7-3.9-23.3-3.9-35.2c0-6.1,3.4-9.2,9.4-8.6c5.9,0.6,10.2,3.2,13.2,8.7
		c4.8,8.8,6.1,18.2,6.7,27.9C514.2,246,515.1,254.2,515.9,262.5z"/>
	<path class="st1" d="M470.6,313.8c-9.3-2.6-16.1-8.7-22.4-15.5c-12.1-13.1-21.2-28.2-28.8-44.3c-3-6.4-4.4-13.1-2.7-20.3
		c0.7-3.1,2.4-5.5,4.3-7.5c9.3-9.5,19.8-16.7,33.7-17.3c2-0.1,3.9,0.2,6.3,1.6c-6.2,1.9-12,3.4-17.3,6.3
		c-10.1,5.5-15.4,14.5-14.1,24.5c1.5,11.3,6.1,21.4,11.5,31.3C449.3,287.6,459.5,301,470.6,313.8z"/>
	<path class="st1" d="M489.1,205.4c3.9-2.4,7.2-0.9,10.2,1.5c7.7,6.1,8.7,15.3,10.3,24c2.2,11.5,2.8,23.2,2,34.9
		c-0.7,9.7-0.4,19.4-2.8,28.9c-0.3,1-0.1,2.3-2,3c0-4.3-0.4-8.5,0.1-12.6c2.4-20.7-1-41-4.9-61.2C500.3,214.8,498.4,212,489.1,205.4
		z"/>
</g>
</svg>
