<?xml version="1.0" encoding="utf-8"?>
<!-- Generator: Adobe Illustrator 23.0.1, SVG Export Plug-In . SVG Version: 6.00 Build 0)  -->
<svg version="1.1" id="Layer_4" xmlns="http://www.w3.org/2000/svg" xmlns:xlink="http://www.w3.org/1999/xlink" x="0px" y="0px"
	 viewBox="0 0 1000 1000" style="enable-background:new 0 0 1000 1000;" xml:space="preserve">
<style type="text/css">
	.st0{fill:#FEFEFE;}
	.st1{fill:#C0FEFE;}
</style>
<g>
	<path class="st0" d="M453.1,304.4c-0.2-5.6,0.7-11.1,2.6-16.4c3.3-9,11.1-13,19.1-15.9c9-3.2,18.4-4.8,28.1-2.6
		c8.3,1.9,13.5,7.7,14.6,18.2c1.1,10.1,2.3,20.2,1.8,30.3c-0.8,16-2.2,32-7.5,47.4c-1.7,4.9-4.1,9.3-7.2,13.2
		c-9.9,12.4-21.5,7.3-28.8-2.3c-11.1-14.5-16.3-31.5-19.7-49.2C454.5,319.6,453.5,312,453.1,304.4z"/>
	<path class="st0" d="M518.6,365.7c0.6-16.9,2.3-33.7,5.7-50.3c2-10.1,3.2-20.3,6.9-30c1.4-3.6,2.1-7.5,6.8-8.1
		c5.4-0.7,8.5,3,10.8,6.7c4.6,7.4,5.6,15.4,3.9,24.1C549,326.3,544,344,537,361.1c-2.4,5.9-4.2,12.3-8.7,17.3
		c-1.7,1.9-3.6,4.2-6.4,3.1c-2.6-1-3-4-3.3-6.5C518.3,371.9,518.6,368.8,518.6,365.7z"/>
	<path class="st1" d="M508.8,277.4c-7.5-0.3-13.4,0.4-19.3,1.6c-14.4,2.9-20.5,12.4-20.5,25.6c0,24.3,4,48.1,13.6,70.6
		c0.2,0.6,0.3,1.2,0.7,2.3c-2.8-0.3-3.7-2.2-4.8-3.8c-7.9-11.3-12.1-24.3-16.4-37.3c-3.5-10.8-4.8-21.8-4.9-33
		c-0.1-17.6,9.2-27.7,26.6-30c6.6-0.9,12.9-0.7,19.2,1C504.6,274.8,506.2,275.4,508.8,277.4z"/>
	<path class="st1" d="M526.1,371.9c4.3-10.7,7.5-21.8,10.1-32.9c2.9-12.5,5.7-25,7.4-37.7c1-7.2-0.5-14.6-8.3-19.5
		c5.6-1.2,8.3,1.9,10.4,5.3c2.8,4.4,3.6,9.4,3,14.5c-2.9,24.6-10.1,47.9-22,69.6C526.6,371.5,526.3,371.7,526.1,371.9z"/>
</g>
</svg>
