<?xml version="1.0" encoding="utf-8"?>
<!-- Generator: Adobe Illustrator 23.0.1, SVG Export Plug-In . SVG Version: 6.00 Build 0)  -->
<svg version="1.1" id="Layer_4" xmlns="http://www.w3.org/2000/svg" xmlns:xlink="http://www.w3.org/1999/xlink" x="0px" y="0px"
	 viewBox="0 0 1000 1000" style="enable-background:new 0 0 1000 1000;" xml:space="preserve">
<style type="text/css">
	.st0{fill:#FEFEFE;}
	.st1{fill:#C0FEFE;}
</style>
<g>
	<path class="st0" d="M505.9,335.5c1.7-22.6,5.4-44.7,16.2-64.9c3.4-6.3,7.4-12.5,13.1-16.9c5.9-4.6,12.6-6.3,20.5-4.8
		c9.3,1.8,18.1,4.1,25.5,10.4c10,8.6,12.6,20.2,5.9,32.5c-8.6,15.7-18.6,30.4-31,43.1c-7.4,7.5-15.4,14.6-25.5,19.1
		c-16,7.2-24.3-4.9-24.6-16.1C505.8,337.1,505.9,336.3,505.9,335.5z"/>
	<path class="st0" d="M617.2,300.8c-0.8,6-2.7,12-6.9,16.9c-13.6,16.1-29.3,30-46.8,41.8c-5.4,3.7-11.3,6.9-17.6,9
		c-3.5,1.2-4.8-0.6-5-3.7c-0.3-4.5,2.7-7.6,5-11c10.5-15.3,22.5-29.3,34.9-43.1c6.4-7,13-13.7,20.6-19.3c2.5-1.9,5-4.8,8.9-2.8
		C615.2,291.2,617.1,295.3,617.2,300.8z"/>
	<path class="st1" d="M583.9,271.3c-6.3-4.8-12.3-8-19.4-9.1c-9.4-1.5-17,1.4-22.7,8.8c-14.9,19.3-22.5,41.9-28.1,65.2
		c-0.7,2.8-0.9,5.7-2.5,8.7c-3.2-10.3-0.7-20.1,0.7-29.7c2.7-17.8,8.1-34.7,17.7-50.2c4.7-7.7,16.4-15,26.4-12.6
		c9,2.2,17.6,4.1,23.9,11.5C581.6,265.9,583,267.9,583.9,271.3z"/>
	<path class="st1" d="M549.5,361.2c5.3-3.9,10.7-7.6,15.9-11.7c15.4-11.9,28.8-25.7,39.9-41.5c3.3-4.7,6.2-10.2,1.8-16.2
		c4.9,0,7.7,3.4,7,8.4c-0.7,4.7-2.3,9.4-5.3,12.9c-16.3,19.1-34.4,36.2-56.9,48c-0.6,0.3-1.2,0.5-1.8,0.7
		C549.9,361.7,549.7,361.5,549.5,361.2z"/>
</g>
</svg>
