<?xml version="1.0" encoding="utf-8"?>
<!-- Generator: Adobe Illustrator 23.0.1, SVG Export Plug-In . SVG Version: 6.00 Build 0)  -->
<svg version="1.1" id="Layer_4" xmlns="http://www.w3.org/2000/svg" xmlns:xlink="http://www.w3.org/1999/xlink" x="0px" y="0px"
	 viewBox="0 0 1000 1000" style="enable-background:new 0 0 1000 1000;" xml:space="preserve">
<style type="text/css">
	.st0{fill:#FEFEFE;}
	.st1{fill:#C0FEFE;}
</style>
<g>
	<path class="st0" d="M467.8,374.1c-0.8-7,1.2-14.3,3.1-21.5c1.5-5.9,6.1-10.1,11.3-12.5c12-5.6,24.6-8,37.8-4.1
		c14.9,4.4,17.3,15.9,15.6,28.5c-1.4,10.7-3,21.4-5.4,31.9c-4,17.8-10.3,34.5-23.1,48.2c-9.5,10.2-19.7,5.8-25-3.9
		c-7.2-13-11-27.2-12.5-41.9C468.8,390.7,467.6,382.8,467.8,374.1z"/>
	<path class="st0" d="M568.4,368c0,10.1-4.1,18.6-7.3,27.3c-6.7,18.3-15.7,35.5-27.6,51c-1.8,2.4-4.3,6-7.7,4.3
		c-3.4-1.6-3.2-5.1-2.7-9.1c2.9-23.4,10.3-45.5,17.9-67.6c2.4-6.9,5.6-13.4,9-19.8c1.5-2.9,4.2-5.1,7.9-4.5c5.2,0.9,7.9,5,9.2,9.4
		C567.9,362,569.1,365.2,568.4,368z"/>
	<path class="st1" d="M486.8,440.7c-4.2-5.3-6.5-11.1-8.3-17.1c-3.7-12.3-5.1-25-6-37.8c-0.6-7.8-1.1-15.4,0.1-23.2
		c1.8-12.1,8.4-19.8,20.1-22.7c13.8-3.5,25.4-2.1,34.4,4.6c-5-1-10.1-1.1-15.1-0.7c-14.2,1.2-21.5,4.1-26.1,18.9
		c-1.3,4.3-1.8,8.9-2.4,13.4c-2.7,21.3,0.1,42.3,3.8,63.2C487.2,439.6,487.1,439.9,486.8,440.7z"/>
	<path class="st1" d="M528.2,444.6c5.2-10,10-19.4,14.9-28.8c7.7-14.6,12.5-30.2,16.2-46.3c1.4-6-1.8-10.6-4.9-15.4
		c8.3,1.8,11.7,7.7,9.9,17c-5.2,26.5-16.3,50.1-33.3,71.1C530.3,443,530.2,444.2,528.2,444.6z"/>
</g>
</svg>
