<?xml version="1.0" encoding="utf-8"?>
<!-- Generator: Adobe Illustrator 23.0.1, SVG Export Plug-In . SVG Version: 6.00 Build 0)  -->
<svg version="1.1" id="Layer_4" xmlns="http://www.w3.org/2000/svg" xmlns:xlink="http://www.w3.org/1999/xlink" x="0px" y="0px"
	 viewBox="0 0 1000 1000" style="enable-background:new 0 0 1000 1000;" xml:space="preserve">
<style type="text/css">
	.st0{fill:#FEFEFE;}
	.st1{fill:#C0FEFE;}
</style>
<g>
	<path class="st0" d="M505.9,308.4c-0.3,11.5-0.6,23.1-6.1,33.5c-6.2,11.9-14.3,11.8-25,5.5c-7.4-4.4-10.9-12.2-15.9-18.7
		c-10-13.2-17.7-27.7-22.8-43.4c-3.1-9.6-4.8-19.6,1.3-28.9c5.1-7.8,12.5-13.2,21-16.7c7.7-3.2,15.7-5.8,24.4-3.4
		c4.1,1.1,6.6,3.4,8.7,6.8c4.8,8,7.5,16.7,9.3,25.7C503.3,281.8,506.1,294.9,505.9,308.4z"/>
	<path class="st0" d="M533.4,270.2c-1,22.7-2.8,43.4-8.1,63.5c-0.8,3.2-2.4,7.4-5.6,7.6c-2.9,0.2-4.9-3.6-6.1-6.7
		c-2.4-6.1-3.1-12.6-3.8-19c-1.7-15.4-2.2-30.8-3.3-46.2c-0.6-8.6,0.3-17,0.5-25.5c0.1-3.7,2-6.6,5.7-8.1c4.2-1.7,7.6,0.1,10.5,2.6
		c5.3,4.5,8.5,10.4,9,17.3C532.5,261.2,534.2,266.6,533.4,270.2z"/>
	<path class="st1" d="M480.8,345.4c-6.3-1-9.4-4.7-12.2-8.3c-13.1-16.9-23.9-35.2-29.6-56c-2.5-9.1-3.8-18.9,3.5-26.8
		c8.6-9.2,24.8-17.7,39.7-12.6c-6,1.7-12,2.9-17.7,5.3c-10.4,4.3-15.5,19.6-14.1,28.7c3.3,21.2,11.2,40.5,22.5,58.6
		C475.1,337.9,477.7,341.1,480.8,345.4z"/>
	<path class="st1" d="M519.3,334.7c1.9-13.8,3.3-27.6,4.4-41.4c1-12.8,0.8-25.2-2.3-37.6c-1.5-6-3.8-11.8-9.8-15.1
		c3.3-2.3,6.1-1.3,8.6,0.9c3.4,2.9,5.8,6.6,6.8,11c2.6,10.8,2.5,21.7,1.8,32.8c-0.7,10.4-2,20.6-3.3,30.8
		C524.5,322.7,522.5,328.9,519.3,334.7z"/>
</g>
</svg>
