<?xml version="1.0" encoding="utf-8"?>
<!-- Generator: Adobe Illustrator 23.0.1, SVG Export Plug-In . SVG Version: 6.00 Build 0)  -->
<svg version="1.1" id="Layer_4" xmlns="http://www.w3.org/2000/svg" xmlns:xlink="http://www.w3.org/1999/xlink" x="0px" y="0px"
	 viewBox="0 0 1000 1000" style="enable-background:new 0 0 1000 1000;" xml:space="preserve">
<style type="text/css">
	.st0{fill:#FEFEFE;}
	.st1{fill:#C0FEFE;}
</style>
<g>
	<path class="st0" d="M489.2,324.1c1-13.5,1.4-27.1,5.1-40.2c3.3-11.9,8.6-22.8,22.1-26.3c15.6-4,30.4-1.3,43.4,8
		c6.6,4.7,6.2,12.6,4.6,20.1c-5.5,26.1-17.8,48.8-33.6,69.8c-3.1,4.1-6.9,8-11,11c-9.5,6.7-17,4-24.5-6.3c-3.6-5-4.3-11.3-4.6-17.2
		C490.1,336.7,488.8,330.4,489.2,324.1z"/>
	<path class="st0" d="M594.7,297.3c-0.7,9.7-4.4,18.2-9.8,26.2c-10.3,15.4-20.9,30.4-33.8,43.7c-3.4,3.5-7.5,6.4-11.9,8.6
		c-3.9,2-6.5,0.2-6-4.5c0.8-6.6,2.8-13,5.4-19c9.9-22.3,22.3-43.1,36.1-63.2c2.5-3.7,5.9-8.7,11.7-6.7c5.8,1.9,7.6,7.2,8.3,12.8
		C594.8,296,594.7,296.7,594.7,297.3z"/>
	<path class="st1" d="M500.5,359.7c-4-5.8-4.2-12-5.3-18c-3.6-19.8-1.6-39.4,4.1-58.5c3.5-12,9.7-22.2,23.4-23.8
		c11.6-1.3,22.7,1.5,33,9.4c-3.8,1.4-6.6-0.1-9.2-0.5c-22.2-3.3-30.9,4.7-37.1,22.1c-6.2,17.4-9.1,35.8-9.4,54.4
		C499.9,349.5,501.9,354.2,500.5,359.7z"/>
	<path class="st1" d="M538.6,371.1c3.8-4.7,7.3-9.7,11.3-14.2c12.5-14,23-29.3,31.4-46.1c3.3-6.5,4.5-13.5,3.1-20.8
		c-0.2-1.3-0.9-2.7,0.6-3.4c1.5-0.7,2.5,0.5,3.3,1.5c4.5,5.4,4.3,11.4,1.6,17.4c-7.8,17.3-19.1,32.3-31.3,46.7
		c-5,5.8-10.3,11.2-15.7,16.6c-1.1,1.1-2.3,2.1-3.4,3.1C539.2,371.6,538.9,371.3,538.6,371.1z"/>
</g>
</svg>
