<?xml version="1.0" encoding="utf-8"?>
<!-- Generator: Adobe Illustrator 23.0.1, SVG Export Plug-In . SVG Version: 6.00 Build 0)  -->
<svg version="1.1" id="Layer_4" xmlns="http://www.w3.org/2000/svg" xmlns:xlink="http://www.w3.org/1999/xlink" x="0px" y="0px"
	 viewBox="0 0 1000 1000" style="enable-background:new 0 0 1000 1000;" xml:space="preserve">
<style type="text/css">
	.st0{fill:#FEFEFE;}
	.st1{fill:#C0FEFE;}
</style>
<g>
	<path class="st0" d="M489.5,283.6c0.5,5.4-0.9,10.7-2.5,15.6c-3.9,11.9-12.4,13.5-23.2,9.5c-5.7-2.1-10-6.3-14.3-10.1
		c-17.4-15.4-30.1-34.1-39-55.5c-4.3-10.4-1.7-19.3,6-27.3c8.3-8.7,17.4-15.7,29.7-18c6.3-1.2,11.6,0.5,15.6,4.9
		c10.1,11.1,15.4,24.8,19.7,39c2.5,8.2,5.3,16.2,6.2,24.8C488.3,272.1,488.9,277.8,489.5,283.6z"/>
	<path class="st0" d="M511.8,256c-1.3,10.3-0.5,23.1-2.9,35.6c-0.9,4.9-3.2,3.5-5.6,2.1c-3.2-1.9-4.5-5.4-5.7-8.6
		c-6.7-17.7-11.7-35.9-15.1-54.6c-1.8-9.9-3.6-19.7-3.8-29.8c-0.2-6.8,3.6-9.5,10.2-8.1c9.3,1.9,13.3,9,16,16.6
		c3.5,10,5.1,20.5,6.2,31.1C511.3,244.8,511.6,249.2,511.8,256z"/>
	<path class="st1" d="M467.5,306.5c-3.4-2-7.1-3.7-10.1-6.2c-17.7-14.5-31.5-32.2-40.5-53.3c-8.2-19.2-3.3-25.3,9.9-35.4
		c4.6-3.5,9.5-6.8,15.1-8.8c3.6-1.3,7.1-2.3,11.3,0c-4.9,1.6-9.4,3.3-13.5,6c-12.7,8.3-17.6,21.3-11.3,37.1
		c7,17.4,17.5,32.4,29,46.9c3.5,4.4,7.1,8.7,10.7,13C467.9,306,467.7,306.3,467.5,306.5z"/>
	<path class="st1" d="M504.9,288.6c0-5.5,0-10.9,0-16.4c0.1-19.1-2.5-37.8-6.8-56.3c-1.2-5.1-3.4-9.8-6.6-14
		c-1.8-2.3-4.2-3.9-7.9-4.8c4.6-3,7.5-1.2,10.2,1.2c6.7,5.7,8.2,13.9,9.7,21.8c2.8,14,5.4,28.1,4.2,42.5
		C507,271.3,507.5,280.1,504.9,288.6z"/>
</g>
</svg>
