<?xml version="1.0" encoding="utf-8"?>
<!-- Generator: Adobe Illustrator 23.0.1, SVG Export Plug-In . SVG Version: 6.00 Build 0)  -->
<svg version="1.1" id="Layer_4" xmlns="http://www.w3.org/2000/svg" xmlns:xlink="http://www.w3.org/1999/xlink" x="0px" y="0px"
	 viewBox="0 0 1000 1000" style="enable-background:new 0 0 1000 1000;" xml:space="preserve">
<style type="text/css">
	.st0{fill:#FEFEFE;}
	.st1{fill:#C0FEFE;}
</style>
<g>
	<path class="st0" d="M495.3,294.9c-0.4,9.9-1.7,18.2-7,25.5c-3,4.1-9.3,6.5-14.3,5.5c-12.9-2.4-20.5-12-28.4-20.9
		c-6.7-7.6-12.5-16-17.9-24.5c-5.2-8.1-8.4-17.2-10.7-26.6c-3.2-12.6,3.9-20.7,12.1-28c6.6-5.9,14-10.3,23.1-12.3
		c9.4-2,20.8,2,25.9,12c7.3,14.5,11.8,29.8,14.2,45.9C493.5,279.7,494.4,287.9,495.3,294.9z"/>
	<path class="st0" d="M520.6,262.6c-0.3,15.6-1.7,29.6-4.1,43.5c-0.5,3-2.1,5.9-5.1,6.3c-2.8,0.4-4.7-1.9-6-4.6
		c-4.6-9-6.1-18.9-8.1-28.5c-3.9-18.5-6.5-37.1-6-56.1c0.1-3,0.5-6.1,1.3-8.9c0.8-2.8,2.9-4.6,5.8-5.1c4.6-0.7,8.7,0.9,11.5,4.5
		c3.2,4.1,5.4,8.8,6.8,13.9C520,239.5,519.8,251.8,520.6,262.6z"/>
	<path class="st1" d="M470.9,320.4c-8.2-5-16.2-10-22.3-17.6c-9.6-12.1-19.2-24.3-24.6-38.9c-6.6-17.9-3.9-31.2,15.5-41.3
		c5.3-2.7,10.8-4.5,16.5-5.5c3.1-0.6,6,0,9.4,1.9c-5.3,2.4-10.7,2.6-15.5,4.7c-14.5,6.4-19.3,22.5-13.7,36.9
		c8.1,20.7,18.6,40,32.9,57C469.9,318.4,470.4,319.4,470.9,320.4z"/>
	<path class="st1" d="M510.4,307.3c0.2-7.8,0.6-15.8,1.7-23.5c1.4-9.8-0.2-19.4-0.7-29.1c-0.3-6.3-1.3-12.6-2.7-18.7
		c-1.7-7.7-3.1-15.7-10.8-20.3c-0.5-0.3-1-1-1-1.5c0.1-0.9,1-1.1,1.9-1.2c5-0.5,7.8,2.5,10.2,6.2c3.6,5.5,4.7,11.7,5.5,18
		c1.3,9.6,2.9,19.3,2,29C515.4,280,515.4,294,510.4,307.3z"/>
</g>
</svg>
