<?xml version="1.0" encoding="utf-8"?>
<!-- Generator: Adobe Illustrator 23.0.1, SVG Export Plug-In . SVG Version: 6.00 Build 0)  -->
<svg version="1.1" id="Layer_4" xmlns="http://www.w3.org/2000/svg" xmlns:xlink="http://www.w3.org/1999/xlink" x="0px" y="0px"
	 viewBox="0 0 1000 1000" style="enable-background:new 0 0 1000 1000;" xml:space="preserve">
<style type="text/css">
	.st0{fill:#FEFEFE;}
	.st1{fill:#C0FEFE;}
</style>
<g>
	<path class="st0" d="M472.5,389.8c1.6-8.2,0.7-17.9,3.9-27.2c4.4-12.8,12.9-19.4,26.4-21c8.5-1,16.5-0.1,24.7,1.2
		c7.9,1.2,14.5,8.9,14.5,17.2c-0.2,16.8-3.3,33.2-9.1,48.9c-4.6,12.3-9.1,24.6-17.1,35.2c-4.1,5.4-9.3,9.2-15.4,11.6
		c-3.9,1.5-7.3-0.9-10.4-3.4c-8.4-6.6-10.9-16.3-13.2-25.8C474,414.9,473.1,402.9,472.5,389.8z"/>
	<path class="st0" d="M524.4,451c0.8-11.1,4.1-22.2,8-33c6.2-17.4,13.3-34.4,21.4-51c0.6-1.3,1.5-2.4,2.3-3.6
		c4.2-6.2,11.3-5.7,15.3,0.9c4.1,6.8,5.1,14,2.4,21.4c-7,18.9-15.8,36.9-27.7,53.1c-1.8,2.4-3.5,4.9-5.4,7.3
		c-2.9,3.8-6.3,6.9-10.8,8.9C524.6,457.3,524.4,457.4,524.4,451z"/>
	<path class="st1" d="M490.5,447.8c-3.8-1.7-4.9-4.4-5.8-7.1c-4.2-12-6.1-24.4-7.3-37.1c-1.2-12.4-0.4-24.6,1.7-36.7
		c2.2-12.3,9.7-19.1,21.8-21.8c12.5-2.8,23.5,0.5,34.1,7.1c-2.7-0.4-5.4-0.8-8.1-1.3c-11.4-2.1-22-1.2-30.6,7.7
		c-5.2,5.4-6.9,12.4-8,19.5c-2,12.7-2.8,25.5-1.9,38.3C487.1,426.7,487.5,437.1,490.5,447.8z"/>
	<path class="st1" d="M530.4,449.8c4.1-6.5,8.3-13,12.4-19.5c8.4-13.4,15.4-27.6,20.2-42.6c3.2-9.9,5-8-2-24.2
		c6.6,0,11.6,8.5,10.1,14.6c-1.4,5.5-2.8,11.1-5.2,16.2c-7.4,16.1-15.6,31.8-26,46.2c-2.5,3.5-5.6,6.7-8.4,10
		C531.1,450.3,530.8,450.1,530.4,449.8z"/>
</g>
</svg>
