<?xml version="1.0" encoding="utf-8"?>
<!-- Generator: Adobe Illustrator 23.0.1, SVG Export Plug-In . SVG Version: 6.00 Build 0)  -->
<svg version="1.1" id="Layer_4" xmlns="http://www.w3.org/2000/svg" xmlns:xlink="http://www.w3.org/1999/xlink" x="0px" y="0px"
	 viewBox="0 0 1000 1000" style="enable-background:new 0 0 1000 1000;" xml:space="preserve">
<style type="text/css">
	.st0{fill:#FEFEFE;}
	.st1{fill:#C0FEFE;}
</style>
<g>
	<path class="st0" d="M597.8,273.6c-0.6,9-4.2,16.2-8.8,23.2c-12.3,18.7-27.4,34.6-45.4,47.7c-5.4,3.9-11.6,6.6-18.1,7.8
		c-7.6,1.4-15.6-3.9-17.8-13.6c-2-8.9,0.4-17.2,2.4-25.4c4.6-19,12.7-36.6,23.8-52.8c8.1-11.9,17.3-15.9,34.4-11.4
		c8.2,2.2,15.1,6.5,21.7,11.2C594.4,263.7,597.2,268.4,597.8,273.6z"/>
	<path class="st0" d="M621.1,305.5c-0.8,6.1-3.1,12.4-9.7,17.6c-7.7,6-14.6,13-22.3,19c-11.4,8.9-23.9,16.1-36.9,22.2
		c-3.4,1.6-7.8,4.2-10.9,0.4c-3-3.7,1-6.8,2.8-10c1.6-3,4.2-5.3,6.4-7.7c8.5-9.4,17-18.7,26.3-27.3c8.8-8.1,17.2-16.9,27.2-23.6
		c0.7-0.4,1.3-0.8,2-1.2C615.4,289.7,621.1,293.1,621.1,305.5z"/>
	<path class="st1" d="M594.4,274.2c-6.7-6.5-14.1-10.6-23-12.6c-9.3-2.2-16.7,1.2-23.1,7.1c-9.8,9-16.2,20.6-21.9,32.5
		c-5.7,12-9.7,24.7-13.7,37.6c-2.5-4.8-2.8-6.2-0.8-16.3c4.6-23.2,13.8-44.6,27.8-63.7c4.1-5.7,10.9-8,17.3-7.5
		c13.5,1,25.9,5.6,34.8,16.9c0.6,0.8,1.1,1.6,1.4,2.5C593.7,271.8,594.1,273,594.4,274.2z"/>
	<path class="st1" d="M611.1,294.6c5.9,3,7.1,6.1,5.7,11.7c-1.9,7.3-6.7,12.6-12.2,17.2c-16.6,13.8-33.5,27.2-53.2,36.5
		c-1.4,0.7-2.9,1.3-4.7,1.2c4-2.6,7.9-5.2,11.9-7.7c13.4-8.4,26-17.7,37.7-28.3c5.4-4.9,11.2-9.4,14.4-16.2
		C612.6,304.8,614.8,300.5,611.1,294.6z"/>
</g>
</svg>
