<?xml version="1.0" encoding="utf-8"?>
<!-- Generator: Adobe Illustrator 23.0.1, SVG Export Plug-In . SVG Version: 6.00 Build 0)  -->
<svg version="1.1" id="Layer_4" xmlns="http://www.w3.org/2000/svg" xmlns:xlink="http://www.w3.org/1999/xlink" x="0px" y="0px"
	 viewBox="0 0 1000 1000" style="enable-background:new 0 0 1000 1000;" xml:space="preserve">
<style type="text/css">
	.st0{fill:#FEFEFE;}
	.st1{fill:#C0FEFE;}
</style>
<g>
	<path class="st0" d="M489.3,280.6c0.7,5.4-0.7,10.7-2.3,15.6c-3.8,11.8-12.2,13.7-23.1,9.5c-5.6-2.1-10-6.2-14.4-10.1
		c-17.4-15.4-30.1-34-39-55.4c-4.3-10.4-1.7-19.2,5.8-27.4c9.2-10.2,20.4-16.6,33.7-19.4c4.8-1,8.4,1.1,11.3,4.8
		c11.5,14.8,18,32,23.1,49.9C487.5,258.8,488.3,269.7,489.3,280.6z"/>
	<path class="st0" d="M511.9,252.3c-1.4,11.1-0.6,23.8-3,36.3c-0.9,4.9-3.2,3.5-5.6,2.1c-3.2-1.9-4.5-5.4-5.7-8.6
		c-6.7-17.7-11.7-35.9-15.2-54.6c-1.7-9.1-3-18.2-3.8-27.4c-0.4-4.1-0.2-8.2,4.6-10c4.8-1.8,9.2-0.4,12.8,2.6
		c7.5,6.3,9.8,15.3,11.8,24.3C510.1,228.2,511.6,239.4,511.9,252.3z"/>
	<path class="st1" d="M455.6,198.9c-6.6,1.8-12.6,4.1-18,8.3c-11.6,9.1-15,20.9-9.4,35.3c6.9,17.7,17.6,32.8,29.2,47.4
		c3.4,4.3,7,8.5,10,13.6c-3.5-2.2-7.4-3.9-10.5-6.6c-18.4-15.3-32.4-34-41.4-56.2c-4.4-10.9-2.8-21.6,7.8-29.2
		C433.2,204.5,442.4,196.9,455.6,198.9z"/>
	<path class="st1" d="M483.7,192.7c7.8-0.5,13.4,3.8,16.3,11.6c3.8,10.6,5.3,21.7,6.9,32.8c2.3,16.2,0.3,32.3-1.9,48.4
		c0-2.6,0-5.2,0-7.7c0-2.6,0-5.2,0-7.8c0.1-19.4-2.3-38.5-6.9-57.3C496,204.7,492.2,197.6,483.7,192.7z"/>
</g>
</svg>
