<?xml version="1.0" encoding="utf-8"?>
<!-- Generator: Adobe Illustrator 23.0.1, SVG Export Plug-In . SVG Version: 6.00 Build 0)  -->
<svg version="1.1" id="Layer_4" xmlns="http://www.w3.org/2000/svg" xmlns:xlink="http://www.w3.org/1999/xlink" x="0px" y="0px"
	 viewBox="0 0 1000 1000" style="enable-background:new 0 0 1000 1000;" xml:space="preserve">
<style type="text/css">
	.st0{fill:#FEFEFE;}
	.st1{fill:#C0FEFE;}
</style>
<g>
	<path class="st0" d="M491.2,275.4c0,6.8-0.7,12.8-2,18.8c-3.5,17.1-18.7,17.5-29,9.1c-17.5-14.3-30.2-32.6-40.7-52.4
		c-4.7-8.9-7.6-18.8-4.4-28.9c2.9-9.3,10.5-14.9,18.4-19.9c5.8-3.6,12.2-5.9,19-6.9c6.3-0.9,15.8,5,20.1,11.9
		c9.5,15.3,13.8,32.4,16.6,49.9C490.3,263.4,491.2,269.8,491.2,275.4z"/>
	<path class="st0" d="M515.8,241.9c-1.5,16.5-1.4,32.2-4.2,47.7c-0.3,1.7-0.3,4.4-2.3,4.9c-2.1,0.6-3.7-1.3-5.1-2.8
		c-5.5-6-7.1-13.7-9-21.1c-4.1-16.5-7.4-33.1-9-50c-0.6-6.9-3-13.6-1.1-20.8c0.9-3.4,1.2-6.2,5.1-7.6c4.9-1.7,8.9-0.4,12.4,2.5
		c6.2,5.1,8.2,12.6,10,20C514.9,223.9,514.6,233.4,515.8,241.9z"/>
	<path class="st1" d="M470,303.8c-10.2-4.7-17.9-12.3-24.6-20.5c-10.1-12.3-18.9-25.7-24.2-40.9c-5.4-15.5-5.2-22.1,9.9-34.8
		c3.3-2.8,6.8-5,10.7-6.7c6.1-2.6,11.6-2.5,19.5,0.7c-6.5,1.7-12.5,3.3-18,6.3c-9.8,5.3-13.7,13.6-11.8,24.6
		c4.1,23,15.5,42.4,29.9,60.3c1.5,1.9,3.1,3.7,4.6,5.6C467.3,300.3,468.7,302.1,470,303.8z"/>
	<path class="st1" d="M507.2,288.6c-0.6-10.8,1.5-21.6,0.6-32.4c-1.5-16.6-1.7-33.4-8-49.2c-2-5-4.2-10-10.7-11.1
		c5.5-2.3,9.5-1.1,12.7,3.1c5.1,6.7,6.9,14.6,7.8,22.7c1.3,11.4,2.8,22.9,2,34.4C510.9,267,510.6,278,507.2,288.6z"/>
</g>
</svg>
