<?xml version="1.0" encoding="utf-8"?>
<!-- Generator: Adobe Illustrator 23.0.1, SVG Export Plug-In . SVG Version: 6.00 Build 0)  -->
<svg version="1.1" id="Layer_4" xmlns="http://www.w3.org/2000/svg" xmlns:xlink="http://www.w3.org/1999/xlink" x="0px" y="0px"
	 viewBox="0 0 1000 1000" style="enable-background:new 0 0 1000 1000;" xml:space="preserve">
<style type="text/css">
	.st0{fill:#FEFEFE;}
	.st1{fill:#C0FEFE;}
</style>
<g>
	<path class="st0" d="M515.6,370.8c0.3,15.7-0.1,29.7-3.9,43.2c-2.7,9.5-7,17.9-17.2,21.9c-3.2,1.2-5.6,0-8.2-0.9
		c-8.4-3-13.5-9.6-17.5-17.1c-9.2-17.6-16.5-35.7-18.8-55.7c-0.8-6.8-0.7-13.4,0.4-20c1.3-8.2,7.5-12.5,14.3-15.8
		c6.8-3.4,14.2-5,21.8-6c4.2-0.5,8.3-1.4,12.7-0.2c7.3,2,12.5,7,13.5,14.6C514.3,347.3,516.6,359.8,515.6,370.8z"/>
	<path class="st0" d="M517.4,407.9c0.5-15.6,1.7-31.4,3.9-47.2c1.3-9.1,2.6-18.2,5-27.1c0.1-0.5,0.1-1,0.3-1.4
		c3.4-8.4,8.6-9.4,15.2-2.9c7.7,7.6,7.8,17.4,6.7,27c-1.6,14.5-4.3,28.8-8.6,42.7c-2.9,9.3-6.2,18.5-11,27.1
		c-1.3,2.4-3.6,4.7-6.5,4.2c-2.7-0.5-3.3-3.4-4.1-5.9C516.8,419.1,518.1,413.6,517.4,407.9z"/>
	<path class="st1" d="M502.5,325.3c-9.3,1-18,2.9-26,7.9c-8.4,5.3-12.3,15.6-11.2,26.6c1.1,10.3,2.5,20.6,4.9,30.7
		c2.9,12.3,7.3,24.2,12,36c0.3,0.7,1,1.3,0.1,2.7c-7.4-8.6-13.7-17.6-17.8-28.1c-5.2-13.3-9.3-27-11.1-41.2
		c-0.9-6.7-0.6-13.3,1.4-19.7c0.9-3,2.5-5.8,5.2-7.5c12.2-7.8,25.4-11.2,39.8-8.3C500.8,324.6,501.6,325,502.5,325.3z"/>
	<path class="st1" d="M530.9,329.2c9.4,1,13.9,9.3,13.8,19.8c-0.1,11.6-2,23.2-4.7,34.6c-3.3,13.9-7.2,27.6-15.2,40.7
		c0-3.7,1.2-6.4,2-9.1c0.9-3,1.7-5.9,2.6-8.9c4.8-15.2,7.4-30.8,8.7-46.7c0.4-4.7,1.6-9.4,0.6-14C537.5,339.9,536.6,334,530.9,329.2
		z"/>
</g>
</svg>
