<?xml version="1.0" encoding="utf-8"?>
<!-- Generator: Adobe Illustrator 23.0.1, SVG Export Plug-In . SVG Version: 6.00 Build 0)  -->
<svg version="1.1" id="Layer_4" xmlns="http://www.w3.org/2000/svg" xmlns:xlink="http://www.w3.org/1999/xlink" x="0px" y="0px"
	 viewBox="0 0 1000 1000" style="enable-background:new 0 0 1000 1000;" xml:space="preserve">
<style type="text/css">
	.st0{fill:#FEFEFE;}
	.st1{fill:#C0FEFE;}
</style>
<g>
	<path class="st0" d="M504.9,329.1c1.2-16.4,4.3-32.3,10.7-47.5c5-11.9,10.1-23.8,19.6-32.9c5.8-5.6,12.8-7.2,21.1-5.9
		c9.5,1.5,17.8,5,26,9.6c9.3,5.3,13.2,11.2,10.2,23.1c-2.5,9.9-8.5,17.5-14.1,25.5c-7.9,11.5-16.2,22.9-27.1,31.8
		c-8.4,6.9-16.9,13.8-28.2,16c-6.1,1.2-10.5-0.2-14-5.3C506.8,340.1,504.9,333.5,504.9,329.1z"/>
	<path class="st0" d="M618.2,296.3c-0.5,7.4-3.7,13.1-8.2,17.9c-17.8,19-38.1,34.8-61.3,46.7c-2.4,1.2-5.3,4.1-8.1,1.4
		c-2.8-2.8-1.1-6,0.3-9.2c2.9-6.7,8.2-11.8,12.7-17.2c7.6-8.9,14.3-18.7,23.2-26.3c9-7.7,16.9-16.7,26.9-23.1
		c5.1-3.3,7.1-2.9,10.8,2.4C616.3,291.3,618,293.7,618.2,296.3z"/>
	<path class="st1" d="M510.4,336.3c-3.4-6-1.2-11.5-0.5-16.8c2.4-16.6,6.6-32.7,13.9-47.9c3.3-6.9,7.8-13.3,13.1-18.7
		c5.2-5.4,11.7-8.7,20.1-7c12.3,2.6,23,7.7,30.7,18c0.4,0.5,0.9,0.9,0.3,2.1c-4.8-3.1-9.8-5.9-15.2-8c-16.2-6.3-28.5,2-36.1,14.4
		c-8.3,13.4-15,27.6-20.4,42.5C513.8,321.7,512.9,328.8,510.4,336.3z"/>
	<path class="st1" d="M607.8,287.2c6.1,2.7,7.8,6.1,6.5,11.4c-1.1,4.8-3.9,8.6-6.9,12.2c-14.1,16.9-31.3,30.1-50.5,40.5
		c-3.5,1.9-6.8,4.5-11.7,5.9c2.6-3.5,5.8-5,8.6-6.7c18.6-11.1,34-26.1,48.6-41.8C607.6,303.3,611.2,296.3,607.8,287.2z"/>
</g>
</svg>
