<?xml version="1.0" encoding="utf-8"?>
<!-- Generator: Adobe Illustrator 23.0.1, SVG Export Plug-In . SVG Version: 6.00 Build 0)  -->
<svg version="1.1" id="Layer_4" xmlns="http://www.w3.org/2000/svg" xmlns:xlink="http://www.w3.org/1999/xlink" x="0px" y="0px"
	 viewBox="0 0 1000 1000" style="enable-background:new 0 0 1000 1000;" xml:space="preserve">
<style type="text/css">
	.st0{fill:#FEFEFE;}
	.st1{fill:#00407F;}
</style>
<g>
	<path d="M528.3,355.6c-2.8,8.1-6.1,17.4-14.1,24c-1.9,1.6-4.1,1.4-6,0c-2.9-2.1-3.7-5.3-3.2-8.5c1.3-7,4.8-13.2,8.1-19.3
		c1.9-3.5,5.8-4.7,9.7-5.1C526.2,346.4,528.4,349.5,528.3,355.6z"/>
	<path d="M555.6,357.3c0.1,9.5-9.8,24.1-17.5,27c-3.4,1.3-4.7-0.7-3.8-3.3c3.1-8.8,6-17.9,11.9-25.4c1.6-2.1,3.9-3.8,6.6-3
		C555.3,353.4,555.4,356,555.6,357.3z"/>
	<path class="st0" d="M526.8,355.5c-1.2,3-1.3,7.6-4.6,7.5c-4-0.2-3-5-3.5-7.9c-0.5-2.8,0.4-5.3,3.8-5.3
		C526.4,349.7,525.5,353.3,526.8,355.5z"/>
	<path class="st1" d="M513.7,372.7c0,2.1,0,4.8-2.5,5c-2.5,0.2-2.8-2.6-3.3-4.6c-0.1-0.3-0.1-0.7,0-1c0.6-2.3-1.6-6.4,2.1-6.3
		C512.9,365.8,513.8,369.6,513.7,372.7z"/>
	<path class="st0" d="M545.9,363.5c0.8-3,1.7-6,4.5-7.8c0.8-0.5,1.9-0.4,2.6,0.5c2,2.9-0.2,5.2-1,7.8c-0.6,2-1.4,4.1-3.3,3.9
		C546.9,367.7,545.4,365.9,545.9,363.5z"/>
	<path class="st1" d="M535.8,382.9c1.1-3.4,1.7-6,2.7-8.5c0.4-1,1.3-2.2,2.4-2c1.4,0.2,1.9,1.8,1.9,2.9
		C542.9,379.4,540.6,381.7,535.8,382.9z"/>
</g>
</svg>
