<?xml version="1.0" encoding="utf-8"?>
<!-- Generator: Adobe Illustrator 23.0.1, SVG Export Plug-In . SVG Version: 6.00 Build 0)  -->
<svg version="1.1" id="Layer_4" xmlns="http://www.w3.org/2000/svg" xmlns:xlink="http://www.w3.org/1999/xlink" x="0px" y="0px"
	 viewBox="0 0 1000 1000" style="enable-background:new 0 0 1000 1000;" xml:space="preserve">
<style type="text/css">
	.st0{fill:#FEFEFE;}
	.st1{fill:#00407F;}
</style>
<g>
	<path d="M516.6,420.2c-0.2,6.6-3.7,13.6-8.1,19.8c-4.1,5.7-10.9,3.9-12.9-3.7c-1.9-7.3-2.7-14.9,1.4-22.1c2.9-5.1,7.1-7.9,11.6-7
		C512.9,408.1,516.6,413.4,516.6,420.2z"/>
	<path d="M540.1,422.9c-0.8,7.8-2.8,15.2-8.7,20.8c-1.5,1.4-3.3,3.1-5.4,2.3c-2.1-0.8-3.5-3-3.4-5.4c0.3-8.1,1.3-16.1,3.9-23.8
		c1.1-3.2,3.2-5.9,6.8-5.7c3.7,0.2,4.8,3.5,5.9,6.6C539.8,419.5,540.1,421.1,540.1,422.9z"/>
	<path class="st0" d="M513.7,420.4c0.5,1.9-0.8,3.3-2.4,4.1c-1.5,0.8-3,0.3-4.3-1c-2.5-2.4-3.5-5.6-4.9-8.6
		c-0.6-1.3,0.1-2.8,1.3-3.9c1.3-1.2,2.3-1.1,3.8-0.3C510.5,412.6,513.6,416.8,513.7,420.4z"/>
	<path class="st1" d="M497.9,427.9c1.5-0.2,2.3,0.5,2.9,1.2c0.8,1,1.6,2.1,2,3.3c0.9,2.4,3.7,4.6,1,7.4c-1.1,1.1-2.5,0.7-3.4-0.5
		c-2.2-3.1-5.5-5.8-4-10.2C496.7,428.5,497.6,428.1,497.9,427.9z"/>
	<path class="st0" d="M538.1,422.2c0,2.3-0.6,4.9-2.9,5.4c-2.6,0.5-4.1-1.9-4.9-4.3c-0.2-0.6-0.5-1.1-0.7-1.7
		c-1.2-3.4,0.5-6.1,3.2-7.1c3.4-1.3,3.8,2.1,4.8,4.4C538.1,419.9,538,421,538.1,422.2z"/>
	<path class="st1" d="M531,438.9c0.6,3.7-1.3,4.7-3.2,5.1c-2.1,0.4-3-1.4-3.4-3.2c-0.1-0.5-0.1-1,0-1.5c0.5-2.3-1.5-6.3,2.3-6.3
		C530.5,432.9,530,437.4,531,438.9z"/>
</g>
</svg>
