<?xml version="1.0" encoding="utf-8"?>
<!-- Generator: Adobe Illustrator 23.0.1, SVG Export Plug-In . SVG Version: 6.00 Build 0)  -->
<svg version="1.1" id="Layer_4" xmlns="http://www.w3.org/2000/svg" xmlns:xlink="http://www.w3.org/1999/xlink" x="0px" y="0px"
	 viewBox="0 0 1000 1000" style="enable-background:new 0 0 1000 1000;" xml:space="preserve">
<style type="text/css">
	.st0{fill:#004080;}
	.st1{fill:#FEFEFE;}
	.st2{fill:#00407F;}
</style>
<g>
	<path d="M496.8,444c1.6-6.6,2.1-13.8,9.3-18.3c3.8-2.4,7.3-2.3,10.7-0.6c3.5,1.7,5.8,5.4,5.5,9.4c-0.8,9.2-5.4,16.8-12.5,22.5
		c-4.3,3.5-9.8,1.2-11.5-4C497.5,450.2,497.4,447.3,496.8,444z"/>
	<path d="M530.3,456.2c-2.8,0.7-3.1,0.7-2.9-1.5c0.6-6.3,2.2-12.4,5.9-17.6c1.9-2.8,4.6-4.8,8.5-2.6c3.5,2,5.7,6.7,4.9,10.4
		c-1.3,6.4-5.8,8.5-11.5,9.3C533.5,454.7,530.8,452.7,530.3,456.2z"/>
	<path class="st0" d="M530.3,456.2c-1.4-1-1.3-2.3-0.2-3.2c2.1-1.6,3.4,0.7,5.1,1.3C533.6,454.9,531.9,455.5,530.3,456.2z"/>
	<path class="st1" d="M519.6,436.5c-0.2,2.8-1.7,4.9-4.3,5.5c-2.4,0.6-3.5-1.9-4.4-3.5c-1.2-2.2-1.6-4.7-2.6-6.9
		c-0.8-1.7-0.1-2.6,0.9-3.8c1.2-1.3,2.6-1.3,4-0.9C516.5,427.8,519.8,432.8,519.6,436.5z"/>
	<path class="st2" d="M507.8,452c0.1,1.9,0,3-1.2,3.6c-1.4,0.8-2-0.5-2.8-1.2c-2.8-2.1-3.7-5.2-4.6-8.2c-0.4-1.3-0.2-2.6,1.1-3.4
		c1.4-0.8,2.4-0.1,3.4,0.9C506.5,446,507.1,449.3,507.8,452z"/>
	<path class="st1" d="M544.1,444.8c0.4,2.4-1.8,5.4-4.1,5c-3-0.4-4.7-3.7-4.9-7.3c-0.1-3.3,1.8-5.9,4.3-5.8
		C543.2,436.9,543.8,440.6,544.1,444.8z"/>
</g>
</svg>
