<?xml version="1.0" encoding="utf-8"?>
<!-- Generator: Adobe Illustrator 23.0.1, SVG Export Plug-In . SVG Version: 6.00 Build 0)  -->
<svg version="1.1" id="Layer_4" xmlns="http://www.w3.org/2000/svg" xmlns:xlink="http://www.w3.org/1999/xlink" x="0px" y="0px"
	 viewBox="0 0 1000 1000" style="enable-background:new 0 0 1000 1000;" xml:space="preserve">
<style type="text/css">
	.st0{fill:#00407F;}
	.st1{fill:#FEFEFE;}
</style>
<g>
	<path d="M478.5,249.2c0,1.3-0.1,2.6,0,3.9c0.3,2.8-1.6,3.7-3.6,5c-2.3,1.5-3.8,0.1-5.2-0.9c-6.6-4.6-12.2-20.4-9.6-28.1
		c1.2-3.7,4.1-7,8.1-7.3c3.4-0.3,5.3,2.8,6.5,6C477.3,234.8,478.2,241.9,478.5,249.2z"/>
	<path d="M493.1,243.2c-2.4-7.6-6.3-15-3.8-23.4c1.5-4.8,3.7-5.2,7.5-1.7c4.8,4.4,5,10.7,5.9,16.5c0.6,3.6,2.1,7.1,0.5,11.2
		c-1.1,2.8-1.8,6.1-4.9,6c-3.1-0.1-4.2-3.4-4.3-6.5c0.3-0.2,0.6-0.2,0.9-0.2c1.4,0.3,2.5,3.2,3.9,1.3c1.4-1.8-0.6-3.6-1.9-4.9
		C494.6,239.2,494.4,242.6,493.1,243.2z"/>
	<path class="st0" d="M493.1,243.2c0.3-1.6-0.5-4.2,1.7-4.5c2.4-0.3,3.7,2.3,4.9,4c1.1,1.5,2.1,3.4,0.6,5.3
		c-0.9,1.2-2.2,1.3-3.4,0.3c-1-0.9-1.9-2.1-2.9-3.1C493,245,493.2,244,493.1,243.2z"/>
	<path class="st1" d="M474.6,234.3c0.1,1.7-0.6,2.8-2.4,3c-2.3,0.2-8.6-5.8-8.3-8.2c0.3-2.4,2-4.1,4.3-4.4
		C470.7,224.4,474.6,230.7,474.6,234.3z"/>
	<path class="st0" d="M475.4,252.9c-0.1,1.9-1.7,2.2-3.4,1.9c-3.8-0.7-5.6-3.7-6.9-6.8c-0.7-1.6,0.6-2.7,2.4-2.8
		C469.7,245.2,475.2,250.3,475.4,252.9z"/>
	<path class="st1" d="M500,228c0.1,1.5,0,3.1-1.9,3.4c-2.4,0.4-7.1-5.1-6.8-8.1c0.2-1.7,0.6-4,2.9-4.4C496.1,218.6,500,225,500,228z
		"/>
</g>
</svg>
