<?xml version="1.0" encoding="utf-8"?>
<!-- Generator: Adobe Illustrator 23.0.1, SVG Export Plug-In . SVG Version: 6.00 Build 0)  -->
<svg version="1.1" id="Layer_4" xmlns="http://www.w3.org/2000/svg" xmlns:xlink="http://www.w3.org/1999/xlink" x="0px" y="0px"
	 viewBox="0 0 1000 1000" style="enable-background:new 0 0 1000 1000;" xml:space="preserve">
<style type="text/css">
	.st0{fill:#FEFEFE;}
	.st1{fill:#00407F;}
</style>
<g>
	<path d="M493.1,435c1.3-7.4,2-15.1,9.7-19.4c3.4-1.9,6.7-2.3,9.8,0c3.8,2.7,6,6.7,4.8,11.2c-1.6,6.2-3.5,12.2-7.5,17.6
		c-6.1,8.1-11.2,4.6-14.8-1.1C493.6,440.8,492.7,438,493.1,435z"/>
	<path d="M541,431.3c0.2,9.3-4.5,15.8-10.8,21.3c-3.2,2.8-7.6,1-7.7-3.6c-0.1-9.2,1.6-18.3,6.5-26.3c2.9-4.7,8.8-3.6,10.7,1.6
		C540.6,426.7,541.6,429.1,541,431.3z"/>
	<path class="st0" d="M514.7,426.2c0.1,2.8-1.2,5.7-3.6,6.1c-2.2,0.4-4.7-1.3-5.3-4.3c-0.4-2-1.6-3.7-2.2-5.6
		c-0.6-1.8-0.8-2.9,0.6-4.2c1.5-1.5,3-1.4,4.8-0.6C511.8,418.9,514.6,423,514.7,426.2z"/>
	<path class="st1" d="M504.9,443.2c-0.2,2.9-1.9,3.4-4.1,2.9c-0.3-0.1-0.7-0.2-0.8-0.5c-2.1-2.9-5.5-5.3-4.5-9.5
		c0.3-1.2,1.6-3.1,3.2-2.1C502,436.2,504,439.5,504.9,443.2z"/>
	<path class="st0" d="M539,430c0.3,4.2-0.6,6.7-3.9,6.4c-4.4-0.4-4.2-4.4-4.7-7.6c-0.5-3.3,1.8-6,4.3-5.7
		C539,423.5,538.5,428,539,430z"/>
	<path class="st1" d="M524.4,446.5c-0.3-2.1,0.4-4.6,2.7-4.7c2.8-0.1,3.7,2.8,4,5.2c0.3,2.4-1.3,4-3.7,4.1
		C524.3,451.2,524.4,448.9,524.4,446.5z"/>
</g>
</svg>
