<?xml version="1.0" encoding="utf-8"?>
<!-- Generator: Adobe Illustrator 23.0.1, SVG Export Plug-In . SVG Version: 6.00 Build 0)  -->
<svg version="1.1" id="Layer_4" xmlns="http://www.w3.org/2000/svg" xmlns:xlink="http://www.w3.org/1999/xlink" x="0px" y="0px"
	 viewBox="0 0 1000 1000" style="enable-background:new 0 0 1000 1000;" xml:space="preserve">
<style type="text/css">
	.st0{fill:#FEFEFE;}
	.st1{fill:#00407F;}
</style>
<g>
	<path d="M479.5,235.7c0,0.5,0,1,0,1.5c0.2,3.7,0,7.9-4,8.7c-3.8,0.8-7.7-1.8-9.4-5.3c-3.9-7.8-6.3-16.1-4-24.9
		c0.8-3.1,3-5.4,6.4-5.6c2.8-0.1,4.8,1.5,6.3,4.1C478.7,220.9,478.6,228.4,479.5,235.7z"/>
	<path d="M491.2,230.6c-1.6-6.5-3.2-12.9-4.9-19.3c-0.4-1.4,0.9-2.3,1-3.6c0.3-2.3,2-3.9,3.9-4.4c2.4-0.6,3.7,1.8,4.7,3.5
		c3.2,5.5,3.9,11.8,5.1,17.9c0.6,3.2,1.5,6.4,0,9.6c-1,2-1.6,4.7-4.1,4.8c-2.7,0.1-3.7-2.4-5-4.4c-0.9-1.4-0.4-2.8-0.7-4.2
		c2.3-0.6,2.3,1.7,3.4,2.7c0.7,0.6,1.5,1.5,2.4,0.8c0.9-0.7,0.4-1.8,0-2.7C495.7,228.3,494.1,228.2,491.2,230.6z"/>
	<path class="st0" d="M475.6,221.4c0,1.9,0.3,4.1-2.6,4.1c-2.5,0-8.2-5.5-8-8c0.1-2.5,2-4.1,4.2-4.6
		C471.4,212.5,475.5,218,475.6,221.4z"/>
	<path class="st1" d="M468.4,233.4c2.6,0.1,7,4.7,7.1,7c0,1.8-0.9,2.7-2.7,2.6c-2.6-0.1-7.1-4.8-6.9-7.3
		C466.1,234,467.3,233.4,468.4,233.4z"/>
	<path class="st0" d="M492.5,206.1c1.3,1.2,3.1,2.2,3.7,4.4c0.7,2.7,4.1,6.1,0.4,7.8c-3.4,1.7-4.7-2.7-6.2-5.1
		C488.8,210.7,490.1,206.2,492.5,206.1z"/>
	<path class="st1" d="M491.2,230.6c0-1.6-0.1-3.7,2-3.8c2.8-0.2,4,2.2,5.1,4.4c0.8,1.5,1.2,3.1-0.2,4.4c-1.3,1.3-2.6,0.6-3.8-0.5
		c-1.5-1.3-1.4-3.6-3.3-4.6C491.1,230.5,491.2,230.6,491.2,230.6z"/>
</g>
</svg>
