<?xml version="1.0" encoding="utf-8"?>
<!-- Generator: Adobe Illustrator 23.0.1, SVG Export Plug-In . SVG Version: 6.00 Build 0)  -->
<svg version="1.1" id="Layer_4" xmlns="http://www.w3.org/2000/svg" xmlns:xlink="http://www.w3.org/1999/xlink" x="0px" y="0px"
	 viewBox="0 0 1000 1000" style="enable-background:new 0 0 1000 1000;" xml:space="preserve">
<style type="text/css">
	.st0{fill:#FEFEFE;}
	.st1{fill:#00407F;}
	.st2{fill:#004080;}
</style>
<g>
	<path d="M536.1,335.6c1.4-6,4.2-11.6,9-15.9c3.4-3,7.1-5.5,11.6-6.9c3.2-0.9,5.3,0.4,7.1,2.5c1.7,2,2.4,4.5,0.6,6.9
		c-5.4,7.3-11.4,14.1-19.4,18.8C540,344.1,536.1,341.7,536.1,335.6z"/>
	<path d="M582,329.4c-1,6-5.1,10.9-9.5,15.3c-3.3,3.3-7.7,5.3-12,7.3c-2.5,1.2-4.4,0-6.1-1.3c-1.8-1.3-0.6-3.2,0.3-4.2
		c6-6.3,10.1-14.4,17.7-19.2c1.3-0.9,2.6-1.6,4.1-2.2C580,323.7,582.1,325.1,582,329.4z"/>
	<path class="st0" d="M552.7,324.9c-0.1-2.5,1.1-4.6,2.1-6.7c0.8-1.7,2.2-3.9,4.4-2.4c1.6,1.1,4.5,2.3,2.8,5.7c-1,1.9-1.2,4.2-3,5.8
		c-1.1,1-2.1,2.5-3.6,1.7C553.8,328.2,552.4,327,552.7,324.9z"/>
	<path class="st1" d="M545,333.6c0.1,1.9-1,4-2.9,5.6c-1,0.8-1.9,0.4-2.5-0.5c-1.5-2.1-1.9-4.3-0.6-6.8c0.9-1.7,0.8-4.9,3.5-4.4
		C544.4,328,544.9,330.7,545,333.6z"/>
	<path class="st0" d="M571.3,336.5c0.1-1.8,0.1-2.8,0.8-3.9c1.7-2.7,3.9-6.4,6.9-4.7c3.2,1.8,0.3,4.9-1.4,7.2
		c-0.6,0.7-0.8,1.7-1.5,2.3c-1,0.9-1.6,2.9-3.4,2.1C571.1,338.9,571.1,337.3,571.3,336.5z"/>
	<path class="st2" d="M565.5,344.1c-0.9,3.5-2.9,5.7-6.2,6.3c-1.8,0.3-2.8-1.1-2.5-2.7c0.5-3.3,3.1-5.3,5.8-6.5
		C563.8,340.6,565,342.7,565.5,344.1z"/>
</g>
</svg>
