<?xml version="1.0" encoding="utf-8"?>
<!-- Generator: Adobe Illustrator 23.0.1, SVG Export Plug-In . SVG Version: 6.00 Build 0)  -->
<svg version="1.1" id="Layer_4" xmlns="http://www.w3.org/2000/svg" xmlns:xlink="http://www.w3.org/1999/xlink" x="0px" y="0px"
	 viewBox="0 0 1000 1000" style="enable-background:new 0 0 1000 1000;" xml:space="preserve">
<style type="text/css">
	.st0{fill:#FEFEFE;}
	.st1{fill:#00407F;}
</style>
<g>
	<path d="M503.9,397.4c-0.1,4.8,0.2,8.5-1,12.1c-0.7,2.2-1.5,4.6-3.6,5.3c-2.3,0.8-4.1-1.1-5.7-2.7c-6.6-6.4-9.4-20.2-5.7-28.5
		c1.5-3.3,3.8-5.9,7.5-5.6c4.7,0.4,6.3,4.4,7.3,8.2C504,390.3,504.2,394.4,503.9,397.4z"/>
	<path d="M524.6,393.6c-0.5,3.3-0.9,7-1.5,10.5c-0.4,2.4-1.6,4.9-4.3,4.8c-2.2-0.1-3.4-2.2-4.3-4.5c-1.6-4.3-1.9-8.9-2.8-13.3
		c-0.7-3.4-0.7-6.9-1-10.4c-0.1-1-0.2-2,0.1-2.9c0.9-2.4,2.2-5.1,4.7-5.6c2.7-0.5,3.8,2.2,5,4.2
		C523.8,381.7,523.9,387.5,524.6,393.6z"/>
	<path class="st0" d="M501,390.9c0.1,1.1,0.1,2.7-1.4,3.4c-1.6,0.8-2.7-0.3-3.7-1.5c-1.6-2-3.9-3.3-5-5.8c-0.7-1.6-0.8-2.5,0.3-3.8
		c1.3-1.4,3-2.1,4.3-1.1C498.3,384.1,501.1,386.5,501,390.9z"/>
	<path class="st1" d="M492,401.6c2.7-0.2,8.5,6.6,7.7,9c-0.3,0.9-1,1.5-2.2,1.3c-2.2-0.4-7.2-5.7-7.2-7.9
		C490.3,402.7,490.9,401.9,492,401.6z"/>
	<path class="st0" d="M521.5,384.4c0.1,1.1-0.1,2.2-1.1,2.9c-1.5,1-2.5-0.4-3.3-1c-2-1.4-2.7-3.8-3.3-6.1c-0.6-2.3,0.5-4.4,2.5-5.1
		c2-0.7,2.3,1.8,2.9,3.1C520.1,380.2,521.8,382,521.5,384.4z"/>
	<path class="st1" d="M516.8,395.7c2.8,1.4,3.8,4.2,4.5,6.9c0.5,1.7-1.4,3.7-2.6,3.3c-3-1-3.6-4.1-4-6.9
		C514.5,397.5,514.9,396.1,516.8,395.7z"/>
</g>
</svg>
