<?xml version="1.0" encoding="utf-8"?>
<!-- Generator: Adobe Illustrator 23.0.1, SVG Export Plug-In . SVG Version: 6.00 Build 0)  -->
<svg version="1.1" id="Layer_4" xmlns="http://www.w3.org/2000/svg" xmlns:xlink="http://www.w3.org/1999/xlink" x="0px" y="0px"
	 viewBox="0 0 1000 1000" style="enable-background:new 0 0 1000 1000;" xml:space="preserve">
<style type="text/css">
	.st0{fill:#FEFEFE;}
	.st1{fill:#00407F;}
</style>
<g>
	<path d="M474.9,236.9c-1.3,3.9-0.4,9.5-5.2,10.9c-4.6,1.3-7.5-3.1-9.7-6.5c-4.4-6.8-7.3-14.2-4.9-22.5c1-3.3,3.4-6.1,6.8-6.6
		c3-0.4,4.8,2.2,6.4,4.7C472.4,223,472.9,230,474.9,236.9z"/>
	<path d="M498.1,229c-0.2,3.8,0.1,6.3-1,8.8c-0.8,1.7-1.6,3-3.6,3.4c-2.2,0.3-3.4-1.1-4.2-2.6c-3-6.2-4.8-12.9-5.9-19.6
		c-0.5-2.8-1.7-5.5-1.1-8.5c0.5-2.3,1.5-4.4,3.7-5.3c2.1-0.9,3.1,1.3,4.3,2.5C496.7,213.9,497.4,222.1,498.1,229z"/>
	<path class="st0" d="M469.8,224.8c-0.6,1.6-0.5,3.5-3.4,2.1c-2.5-1.2-4.8-2.6-6.4-4.8c-1.1-1.5-3.2-3-0.7-5.2
		c2.2-1.9,3.9-2.6,6.3,0C467.8,219.2,469.2,221.7,469.8,224.8z"/>
	<path class="st1" d="M470.5,243.2c0,1.2-1,1.7-2.5,1.8c-2.8,0.3-7.7-3.9-8-6.8c-0.1-1.5,0.5-2.5,2-2.8
		C464.3,235.1,470.2,240.3,470.5,243.2z"/>
	<path class="st0" d="M487.3,208.1c1.8-0.2,2.5,0.9,3.1,1.7c0.9,1.3,1.6,2.7,2.2,4.1c0.9,2.1,3.2,4.8,0.2,6.2
		c-2.8,1.3-4.9-1.7-6.3-3.8c-1.5-2.4-2.5-5.3-0.2-7.9C486.7,208.1,487.3,208.1,487.3,208.1z"/>
	<path class="st1" d="M490.3,227.7c2.3,1,3.6,3,4.6,5.2c0.7,1.5,2.1,3.1,0.3,4.8c-0.8,0.7-1.3,1.8-2.8,1.2c-2.3-1-4.9-7.3-3.9-9.6
		C488.8,228.4,489.3,227.9,490.3,227.7z"/>
</g>
</svg>
