<?xml version="1.0" encoding="utf-8"?>
<!-- Generator: Adobe Illustrator 23.0.1, SVG Export Plug-In . SVG Version: 6.00 Build 0)  -->
<svg version="1.1" id="Layer_4" xmlns="http://www.w3.org/2000/svg" xmlns:xlink="http://www.w3.org/1999/xlink" x="0px" y="0px"
	 viewBox="0 0 1000 1000" style="enable-background:new 0 0 1000 1000;" xml:space="preserve">
<style type="text/css">
	.st0{fill:#FEFEFE;}
	.st1{fill:#00407F;}
</style>
<g>
	<path d="M532.2,341.4c-0.7,6.2-4.3,11.9-7.9,17.6c-1.8,2.8-4.1,5.2-6.9,7c-3.9,2.4-6.8,1.3-8.7-3c-1.5-3.6-1.4-7.3,0.1-10.6
		c3.2-7.1,5.2-15.3,13.8-18.4C527.9,332.1,532.1,335.1,532.2,341.4z"/>
	<path d="M535.1,367.8c2.5-9.8,6.3-19.7,15.2-26.8c1-0.8,2.7-2.2,4.3-0.8c1.7,1.5,3.4,3.4,2.9,5.7c-2.4,11-6.9,20.6-18.2,25.3
		C536.2,372.6,535.2,372,535.1,367.8z"/>
	<path class="st0" d="M530.4,341.5c-0.2,0.8-0.3,1.6-0.6,2.3c-1,2.5-1.2,6-4.5,6.6c-1.4,0.3-2.4-1.8-3-3.7c-1.2-4-1.3-7.5,2.2-10.3
		c1-0.8,2.7-0.9,3.6,0C529.5,337.7,530.6,339.3,530.4,341.5z"/>
	<path class="st1" d="M510.7,356.5c0.4-1.6-0.8-5,2.2-4.5c3,0.5,3.7,3.9,3.7,7c0,2.3-0.7,5.1-2.8,4.7
		C510.3,363.2,510.8,359.6,510.7,356.5z"/>
	<path class="st0" d="M546.7,351.2c0.8-3.1,1.7-6.1,4.4-8.1c1.2-0.9,2.3-0.1,3.4,0.9c2.8,2.7,0.7,5.4,0,8c-0.6,2-1.5,4.7-4.3,4.4
		C547.3,356.1,547.4,353.3,546.7,351.2z"/>
	<path class="st1" d="M543.9,363.4c-0.5,2.7-1.8,5.5-5.1,6.3c-1,0.3-2-1.3-1.6-2.4c1.1-2.9,1.1-6.8,4.8-7.6
		C543.8,359.4,543.9,361.5,543.9,363.4z"/>
</g>
</svg>
