<?xml version="1.0" encoding="utf-8"?>
<!-- Generator: Adobe Illustrator 23.0.1, SVG Export Plug-In . SVG Version: 6.00 Build 0)  -->
<svg version="1.1" id="Layer_4" xmlns="http://www.w3.org/2000/svg" xmlns:xlink="http://www.w3.org/1999/xlink" x="0px" y="0px"
	 viewBox="0 0 1000 1000" style="enable-background:new 0 0 1000 1000;" xml:space="preserve">
<style type="text/css">
	.st0{fill:#FEFEFE;}
	.st1{fill:#00407F;}
	.st2{fill:#004080;}
</style>
<g>
	<path d="M498,228.4c0.7,5.1-1.1,9.7-1.9,14.3c-0.7,3.6-5.2,5.2-8.2,3.2c-2.2-1.5-3.6-3.5-4.5-6c-2.9-7.9-3.9-15.9-0.5-23.9
		c1.4-3.4,4-5.3,7.8-5c4.1,0.3,5.6,3.7,6.3,6.8C497.6,221.3,498.9,224.9,498,228.4z"/>
	<path d="M508.9,227.1c-0.2-4.5,0.1-8.5,0.8-12.5c0.5-2.4,2.1-3.9,3.9-4.5c2.2-0.8,3.1,1.4,4.1,3.2c5.5,9.4,4.8,19.1,1.4,28.9
		c-0.9,2.6-3,4.2-5.4,3.7c-2.5-0.4-3.9-3-3.9-5.4C509.8,235.8,507.9,231.3,508.9,227.1z"/>
	<path class="st0" d="M496.1,222.4c-0.1,2.4-1.2,4-3.7,4.1c-2.1,0.1-6.4-6.3-6.1-9c0.3-2.4,1.7-3.8,4.2-3.6
		C493.3,214,496.2,218.6,496.1,222.4z"/>
	<path class="st1" d="M485.2,233.6c3,0,7.4,5.5,7,8.2c-0.3,1.4-0.9,2.7-2.6,2c-3.3-1.4-5.7-3.7-6.1-7.5
		C483.3,234.8,484.1,233.9,485.2,233.6z"/>
	<path class="st0" d="M518.6,222.5c0,0.4,0.3,2.4-1.6,2.9c-1.7,0.5-2.6-1.3-3.3-2.4c-1.5-2.5-3.1-5.2-1.3-8.3
		c0.5-0.9,1.7-2.5,2.5-1.7C517.3,215.1,518.7,218,518.6,222.5z"/>
	<path class="st2" d="M517.6,240.1c0,2-0.3,4.1-1.9,3.6c-3.7-1.1-4.5-4.6-4.9-8c-0.1-1.5,0.5-3.6,2.1-3
		C516.2,234,516.6,237.6,517.6,240.1z"/>
</g>
</svg>
