<?xml version="1.0" encoding="utf-8"?>
<!-- Generator: Adobe Illustrator 23.0.1, SVG Export Plug-In . SVG Version: 6.00 Build 0)  -->
<svg version="1.1" id="Layer_4" xmlns="http://www.w3.org/2000/svg" xmlns:xlink="http://www.w3.org/1999/xlink" x="0px" y="0px"
	 viewBox="0 0 1000 1000" style="enable-background:new 0 0 1000 1000;" xml:space="preserve">
<style type="text/css">
	.st0{fill:#FEFEFE;}
	.st1{fill:#00407F;}
</style>
<g>
	<path d="M499,398.6c0-9.9,6.9-19.6,15-21.7c5.9-1.5,11.3,2.7,10.3,8.8c-1.2,7.8-4.2,15.1-9.7,21c-4.3,4.6-6.1,4.4-10.6,0.1
		C501.4,404.4,499.6,401.5,499,398.6z"/>
	<path d="M548.9,388.8c-2.4,8.1-2.9,16.4-9.2,22.3c-2.5,2.3-4.9,4.3-8.3,2c-2.9-1.9-3-4.2-2.3-7.7c1.2-5.8,2.9-11.5,4.2-17.3
		c0.9-4.4,4.5-6,8.1-7.1C544.9,379.9,549.3,384.9,548.9,388.8z"/>
	<path class="st0" d="M521.5,387.6c0.9,3-1.4,4.5-4,4.8c-2.8,0.4-6.9-5.8-6.8-9.7c0.1-3,2.5-3.6,4.6-3.7
		C518.6,378.8,521.5,383,521.5,387.6z"/>
	<path class="st1" d="M511.7,404.2c0,1.4-0.4,2.6-2,2.8c-2.4,0.2-7.7-5.8-7.7-8.5c0-1.7,0.7-2.8,2.5-2.9
		C507.2,395.5,511.7,400.9,511.7,404.2z"/>
	<path class="st0" d="M538,390.2c0.6-2.9,1.2-6.1,4.7-6.2c2.1-0.1,4.7,2.3,4,4.5c-0.9,2.8,0.2,7.7-4.4,7.8
		C539.3,396.3,538.5,393,538,390.2z"/>
	<path class="st1" d="M534.4,411.2c-1.9-1.2-4.3-2.3-4.1-5.2c0.2-2.3,1.4-5.2,3.6-5.1c3.1,0.2,3.5,3.8,4,6.3
		C538.4,409.3,536.7,410.5,534.4,411.2z"/>
</g>
</svg>
