<?xml version="1.0" encoding="utf-8"?>
<!-- Generator: Adobe Illustrator 23.0.1, SVG Export Plug-In . SVG Version: 6.00 Build 0)  -->
<svg version="1.1" id="Layer_4" xmlns="http://www.w3.org/2000/svg" xmlns:xlink="http://www.w3.org/1999/xlink" x="0px" y="0px"
	 viewBox="0 0 1000 1000" style="enable-background:new 0 0 1000 1000;" xml:space="preserve">
<style type="text/css">
	.st0{fill:#FEFEFE;}
	.st1{fill:#00407F;}
	.st2{fill:#004080;}
</style>
<g>
	<path d="M500.9,240.5c1-5.2,0.4-10.8,3-15.7c1.7-3.1,4.2-6.5,8-5.8c4.3,0.7,6.6,4.8,6.5,8.9c-0.1,8-1.6,15.9-4.6,23.5
		c-0.9,2.2-2.2,4.5-4.5,4.4c-2.9-0.2-5.2-2.2-6.4-5C501.5,247.4,500.7,244.1,500.9,240.5z"/>
	<path d="M541.2,230.9c-0.7,6.7-1.5,13.7-4.6,20.2c-1.3,2.7-3.3,4.1-6,3.6c-2.8-0.5-3.3-3.2-3.2-5.7c0.2-8.4,1.2-16.8,3-25
		c0.7-3.1,3.3-5,6.2-5.2c3-0.2,3,2.7,3.8,5C541.1,226.3,540.6,228.4,541.2,230.9z"/>
	<path class="st0" d="M516.7,231c0.5,1.7-0.8,3.8-2.5,4.1c-1.8,0.3-3.8-0.7-4.5-3.2c-0.7-2.6-2.7-4.7-1-7.9c1.6-2.9,3.1-3.1,5-0.8
		C515.3,225.2,516.7,227.6,516.7,231z"/>
	<path class="st1" d="M502.9,244.7c0-1.5,0.1-3,2-3.2c2.5-0.3,5.7,4.1,5.8,7.8c0,1.5,0,3.1-1.8,3.4C507,253,502.9,247.4,502.9,244.7
		z"/>
	<path class="st0" d="M539.1,229.4c-0.3,1.7,0.8,5.2-2.1,4.7c-2.8-0.5-3.8-3.8-3.8-7c0-2.5,0.5-4.6,3.1-5.3
		C537.7,221.4,539.1,225,539.1,229.4z"/>
	<path class="st2" d="M529.3,246.2c0.2-1.7-0.6-5,1.9-4.5c2.9,0.6,3.6,4.1,3.9,6.9c0.2,1.8-0.5,3.5-2.6,3.1
		C529.5,251.2,529.1,248.8,529.3,246.2z"/>
</g>
</svg>
