<?xml version="1.0" encoding="utf-8"?>
<!-- Generator: Adobe Illustrator 23.0.1, SVG Export Plug-In . SVG Version: 6.00 Build 0)  -->
<svg version="1.1" id="Layer_4" xmlns="http://www.w3.org/2000/svg" xmlns:xlink="http://www.w3.org/1999/xlink" x="0px" y="0px"
	 viewBox="0 0 1000 1000" style="enable-background:new 0 0 1000 1000;" xml:space="preserve">
<style type="text/css">
	.st0{fill:#FEFEFE;}
	.st1{fill:#00407F;}
</style>
<g>
	<path d="M503.9,448.6c0-10.1,4.7-17,11.6-20c6-2.6,13.2,2.9,13.8,9.1c0.6,6.9-7.4,20.4-13.7,23.3c-4.4,2-9.1,0.2-10.3-4.3
		C504.5,453.9,503.3,451.1,503.9,448.6z"/>
	<path d="M542,452c-2.1,1.1-4.1,2.1-6.3,3.3c-1-6.9,4.1-14.6,10.3-15.8c4.8-0.9,5.9,2.9,7.3,6c1.1,2.3,0.2,3.7-2.5,3.6
		c-1.8-1.3-1.1-5.1-4.1-4.8c-3.3,0.3-3.1,3.6-3.7,6.1C542.8,451,542.5,451.5,542,452z"/>
	<path class="st0" d="M542,452c0-1.4-0.3-3,0.1-4.3c0.8-2.5,1.6-5.7,5-5.2c3.7,0.5,3.7,3.7,3.7,6.6C548,450.5,545.1,451.5,542,452z"
		/>
	<path class="st0" d="M526.4,440.8c-0.2,3.1-1.9,4.7-4.3,5.4c-2.3,0.8-3.3-1-4.2-2.9c-1.3-2.7-1.9-5.6-2.4-8.5c-0.3-1.9,1-3,2.3-3.9
		c1.6-1,2.6,0.2,3.7,1.2C524.2,434.6,525.9,437.5,526.4,440.8z"/>
	<path class="st1" d="M513.7,455.2c0,1.6,0.1,3.5-2.2,3.6c-2.7,0.1-5.7-5.3-5.6-9.7c0-1.5-0.1-3.1,1.8-3.5
		C509.8,445.2,513.7,451.6,513.7,455.2z"/>
</g>
</svg>
