<?xml version="1.0" encoding="utf-8"?>
<!-- Generator: Adobe Illustrator 23.0.1, SVG Export Plug-In . SVG Version: 6.00 Build 0)  -->
<svg version="1.1" id="Layer_4" xmlns="http://www.w3.org/2000/svg" xmlns:xlink="http://www.w3.org/1999/xlink" x="0px" y="0px"
	 viewBox="0 0 1000 1000" style="enable-background:new 0 0 1000 1000;" xml:space="preserve">
<style type="text/css">
	.st0{fill:#FEFEFE;}
	.st1{fill:#00407F;}
</style>
<g>
	<path d="M536.5,323.2c4.4,0.1,7.5,3.3,6.4,7.2c-2.9,9.8-8.1,18.1-16.8,23.7c-4.4,2.8-10.3-1.1-9.3-6.3c1.8-9.7,6.5-18,15.1-23.5
		C533.3,323.4,535,322.9,536.5,323.2z"/>
	<path d="M563.5,336c0,4.5-2.5,8.1-5,11.5c-3.6,4.9-6.8,10.4-13,13c-1.6,0.7-3.1,1.4-4.4,0.3c-1.7-1.3-0.9-2.9-0.3-4.8
		c3-9.5,7.3-18,15.5-24.2c1.3-0.9,2.2-2.5,4.1-1.4C562.1,331.3,563.5,333.8,563.5,336z"/>
	<path class="st0" d="M540,331.9c-1.1,2.2,0.1,7.3-4.5,7.7c-3.1,0.2-3.2-3.6-3.2-6.4c0-3-0.3-6.5,3.8-6.9
		C539,326,540.2,328.1,540,331.9z"/>
	<path class="st1" d="M525.5,347.9c0.1,1.4-0.3,4.2-3,4.2c-2.3,0-2.8-2.8-2.9-4.9c-0.1-2.7-0.2-6.7,2.7-6.8
		C525.5,340.3,525.3,344.2,525.5,347.9z"/>
	<path class="st0" d="M561.5,336.7c-0.1,4.1-3.1,9.2-5.4,9c-3.2-0.3-2.3-2.9-2.4-4.8c-0.2-4.1,2.2-6.7,5.7-7.6
		C561.3,332.7,561.6,335,561.5,336.7z"/>
	<path class="st1" d="M548.9,353.1c-0.4,2.4-1,5.4-4.2,5.9c-1.3,0.2-3-1.6-2.5-3.5c0.7-2.8,1.5-6.1,4.8-6.5
		C549,348.7,548.8,351.2,548.9,353.1z"/>
</g>
</svg>
