<?xml version="1.0" encoding="utf-8"?>
<!-- Generator: Adobe Illustrator 23.0.1, SVG Export Plug-In . SVG Version: 6.00 Build 0)  -->
<svg version="1.1" id="Layer_4" xmlns="http://www.w3.org/2000/svg" xmlns:xlink="http://www.w3.org/1999/xlink" x="0px" y="0px"
	 viewBox="0 0 1000 1000" style="enable-background:new 0 0 1000 1000;" xml:space="preserve">
<style type="text/css">
	.st0{fill:#00407F;}
	.st1{fill:#FEFEFE;}
</style>
<g>
	<path d="M558.6,324.4c0.3,3.3-2.1,5.2-3.9,7.4c-4.3,5.3-8.2,11-14.4,14.2c-1.9,1-3.9,2.8-6.1,1.1c-2.3-1.8-3.3-4.3-2.9-7.2
		c1.1-7.2,4.6-13.2,10.5-17.5c2.8-2.1,5.5-4.8,9.4-5C556.1,317.1,558.7,319.5,558.6,324.4z"/>
	<path d="M554.7,344.6c4.3-6.7,9-13,16.3-16.8c1.8-0.9,3.2-1.1,4.8,0.3c1.6,1.4,1.7,2.9,1,4.8c-3.6,9.8-10.5,16.7-19.2,22.1
		c-2.4,1.5-4.8,1.9-6.8-0.3c-2.1-2.2-0.7-4.3,0.9-6.2c1.5,0.8,1.3,3.7,3.8,3c1.8-0.5,2.3-2.1,2.7-3.7
		C558.8,344.8,556.4,345.2,554.7,344.6z"/>
	<path class="st0" d="M554.7,344.6c1.5,0,2.4-3,4.1-1c1.7,2.1,1.1,4.5-0.1,6.8c-0.9,1.8-2.1,3.3-4.4,3.1c-3.1-0.4-2.3-2.9-2.6-4.8
		C551.7,346.6,553.2,345.6,554.7,344.6z"/>
	<path class="st1" d="M546.9,327.8c-0.5-2,0.1-4,1.4-5.3c1.3-1.4,2.6-4.6,5.3-2.6c2.2,1.6,3.8,4,2.7,7.1c-0.8,2.3-2.8,3.9-4.5,5.5
		c-0.9,0.9-2,0.8-3,0C547.2,331.3,546.5,329.8,546.9,327.8z"/>
	<path class="st0" d="M533.1,338.9c0.9-2.3,0.7-6.2,3.8-6.4c2.7-0.2,3.1,3.2,3.1,5.6c0,2.8-1.1,5.8-3.7,6.1
		C533.7,344.5,533.4,341.4,533.1,338.9z"/>
	<path class="st1" d="M565.2,339.5c0.5-5.3,3.2-7.6,6.6-9.3c0.9-0.4,1.9-0.3,2.6,0.6c0.9,1,0.9,2,0.3,3.1c-1.2,2.4-2.4,4.8-4.6,6.6
		c-1,0.9-2,1.8-3.4,1.2C565.6,341,565.2,339.8,565.2,339.5z"/>
</g>
</svg>
