<?xml version="1.0" encoding="utf-8"?>
<!-- Generator: Adobe Illustrator 23.0.1, SVG Export Plug-In . SVG Version: 6.00 Build 0)  -->
<svg version="1.1" id="Layer_4" xmlns="http://www.w3.org/2000/svg" xmlns:xlink="http://www.w3.org/1999/xlink" x="0px" y="0px"
	 viewBox="0 0 1000 1000" style="enable-background:new 0 0 1000 1000;" xml:space="preserve">
<style type="text/css">
	.st0{fill:#FEFEFE;}
	.st1{fill:#00407F;}
</style>
<g>
	<path d="M474.9,233.7c-1.1,4.2-0.4,9.8-5,11.1c-4.6,1.3-7.5-3.2-9.9-6.8c-4.4-6.9-7.3-14.2-4.7-22.6c1-3.2,3.4-5.8,6.6-6.3
		c3-0.5,4.8,2.1,6.5,4.6C472.4,219.9,472.9,227,474.9,233.7z"/>
	<path d="M498.1,226.4c-0.1,3.7,0,6-0.9,8.3c-0.7,1.8-1.5,3.1-3.5,3.5c-2.3,0.4-3.6-1.1-4.4-2.9c-3-6.1-4.6-12.6-5.8-19.2
		c-0.5-2.6-1.5-5.2-1.1-8c0.4-2.6,1.4-4.8,3.6-5.8c2.3-1.1,3.4,1.4,4.6,2.7C496.8,211.3,497.5,219.5,498.1,226.4z"/>
	<path class="st0" d="M463.8,210.9c1.6,2,3.6,3.9,4.5,6.2c0.8,1.9,2.3,4,1.1,6.4c-0.1,0.1-0.2,0.2-0.3,0.3c-1.9,2-3.1-0.3-4.5-0.9
		c-3.3-1.5-6.2-3.8-6.2-7.6C458.3,213.6,461.1,212.8,463.8,210.9z"/>
	<path class="st1" d="M462.3,232.5c2.5,0,8,5.1,8.2,7.3c0.1,1.7-1,2.2-2.4,2.3c-2.8,0.2-7.7-3.9-7.9-6.8
		C459.9,233.5,460.8,232.6,462.3,232.5z"/>
	<path class="st0" d="M485.4,209.1c-0.1-1.6-0.2-3.4,1.8-4c1.9-0.6,2.9,1.1,3.9,2.3c0.7,1,1.1,2.2,1.6,3.4c1,2.1,3.2,4.7,0.4,6.3
		c-2.6,1.5-4.5-1.4-6-3.2C485.9,212.7,485,211,485.4,209.1z"/>
	<path class="st1" d="M490.3,224.8c2.3,1,3.6,3,4.6,5.2c0.7,1.5,2.1,3.1,0.3,4.8c-0.8,0.7-1.3,1.8-2.8,1.2c-2.3-1-4.9-7.3-3.9-9.6
		C488.8,225.5,489.3,224.9,490.3,224.8z"/>
</g>
</svg>
