<?xml version="1.0" encoding="utf-8"?>
<!-- Generator: Adobe Illustrator 23.0.1, SVG Export Plug-In . SVG Version: 6.00 Build 0)  -->
<svg version="1.1" id="Layer_4" xmlns="http://www.w3.org/2000/svg" xmlns:xlink="http://www.w3.org/1999/xlink" x="0px" y="0px"
	 viewBox="0 0 1000 1000" style="enable-background:new 0 0 1000 1000;" xml:space="preserve">
<style type="text/css">
	.st0{fill:#FEFEFE;}
	.st1{fill:#00407F;}
</style>
<g>
	<path d="M493.1,417.4c0.3-7.2,2.8-12.5,7.8-16.4c5.1-3.9,13.2,0.3,13.6,7.7c0.4,8.4-1.6,16.7-6.9,23.6c-3.7,4.8-9.8,3.5-11.9-2.7
		C494.3,425.5,493.8,421,493.1,417.4z"/>
	<path d="M537.2,415c0.3,5-1.1,10.8-4.1,16.1c-1.4,2.4-2.5,5.7-6,5.3c-3.8-0.5-5.1-4.3-5.3-7.1c-0.5-8.4,0.5-16.7,3.6-24.7
		c1.1-2.9,3.4-4.3,6.3-4.2c2.9,0.1,3.5,2.9,4.5,4.9C537.5,408.1,537,411,537.2,415z"/>
	<path class="st0" d="M511.8,410.9c-0.1,2.9-0.8,5.1-2.7,5.9c-2.3,1-3.9-0.8-5.2-2.4c-0.5-0.6-0.8-1.3-1.1-2c-1-2.8-3.3-5.6-0.7-8.7
		c0.8-1,1.5-1.7,3.2-0.7C508.6,405.1,511.2,407.5,511.8,410.9z"/>
	<path class="st1" d="M496.1,424.4c0-1.5,0.1-3,2.1-3.2c2.6-0.2,6.7,5.4,6.7,9c0,1.5-0.1,3-2.1,3.2
		C500.2,433.6,496.1,427.9,496.1,424.4z"/>
	<path class="st0" d="M535.2,411.7c-0.3,2.3,0.8,4.9-2.5,5.2c-2.6,0.2-6.7-4.9-6.3-8.3c0.3-2.4,1.6-5.5,4.1-5.2
		C535.3,404.1,534.7,408.6,535.2,411.7z"/>
	<path class="st1" d="M530.3,429.4c0.2,2.4-0.7,5-2.8,4.8c-3.2-0.4-4.1-3.6-4-6.7c0-1.9-0.4-4.6,2.3-4.4
		C529.2,423.3,529.8,426.5,530.3,429.4z"/>
</g>
</svg>
