<?xml version="1.0" encoding="utf-8"?>
<!-- Generator: Adobe Illustrator 23.0.1, SVG Export Plug-In . SVG Version: 6.00 Build 0)  -->
<svg version="1.1" id="Layer_4" xmlns="http://www.w3.org/2000/svg" xmlns:xlink="http://www.w3.org/1999/xlink" x="0px" y="0px"
	 viewBox="0 0 1000 1000" style="enable-background:new 0 0 1000 1000;" xml:space="preserve">
<style type="text/css">
	.st0{fill:#FEFEFE;}
	.st1{fill:#00407F;}
</style>
<g>
	<path d="M500,447.2c0.2-9.9,5.4-17.7,12.7-19.9c3.8-1.2,7.4-0.6,10.1,2.3c2.7,2.9,4.5,6.1,2.9,10.8c-2.3,6.4-5.1,12.3-9.9,17.1
		c-5.7,5.8-11.9,3.5-13.8-2.6C501.1,452,500.4,449.1,500,447.2z"/>
	<path d="M541,453c-3.1,1.2-6.1,2.4-9.2,3.7c-1.2-7.7,3.6-17.3,9.6-18.9c3.8-1,6.4,0.7,7.3,4.2c0.8,3.1,3.6,7.1-1.9,9
		c-1.3-1.5-0.2-3.1-0.4-4.6c-0.2-2.2-0.6-4.5-3.4-4.3c-2.7,0.2-3.5,2.4-3.5,4.9C539.7,449.1,541.5,450.8,541,453z"/>
	<path class="st0" d="M541,453c-1.7-2.9-4.1-5.4-2.1-9.3c1.3-2.6,3-3.7,5.6-3.2c2.7,0.5,2.8,2.9,3.3,5.1c0.4,2-0.7,3.6-1,5.5
		C544.9,451.7,543,452.3,541,453z"/>
	<path class="st0" d="M522.5,438.4c0.1,3.2-1.2,5.7-3.6,6.7c-2.7,1.1-3.7-1.7-4.7-3.6c-1-1.9-2-3.9-2.9-5.9
		c-0.9-1.8-0.8-3.3,0.8-4.8c1.5-1.5,2.9-1.3,4.8-0.6C520.7,431.9,521.9,435.1,522.5,438.4z"/>
	<path class="st1" d="M510.7,454c0,1.8,0,3.8-2.5,3.9c-2.5,0.1-6.2-6.1-6.3-10c0-2.1,0.6-3.5,3-3.5
		C507.2,444.4,510.7,450.3,510.7,454z"/>
</g>
</svg>
