<?xml version="1.0" encoding="utf-8"?>
<!-- Generator: Adobe Illustrator 23.0.1, SVG Export Plug-In . SVG Version: 6.00 Build 0)  -->
<svg version="1.1" id="Layer_4" xmlns="http://www.w3.org/2000/svg" xmlns:xlink="http://www.w3.org/1999/xlink" x="0px" y="0px"
	 viewBox="0 0 1000 1000" style="enable-background:new 0 0 1000 1000;" xml:space="preserve">
<style type="text/css">
	.st0{fill:#FEFEFE;}
	.st1{fill:#00407F;}
</style>
<g>
	<path d="M501.9,286.1c0.1,3.5,0.3,7.1-1,10.4c-1,2.7-1.8,6-5.1,6.8c-3.2,0.7-5.9-1.1-7.8-3.4c-4.3-5.3-5.5-11.7-4.2-18.3
		c0.4-2.1,0.7-4.3,1.4-6.4c1.4-4.4,3.8-7.1,8.4-6.7c4.4,0.4,6.1,3.8,7.4,7.6C502.1,279.5,501.9,282.8,501.9,286.1z"/>
	<path d="M525.3,283.8c0.6,3.9-0.2,7.8-0.9,11.7c-0.7,3.4-2.9,6.1-6.3,6.1c-3.1-0.1-3.9-3.2-4.4-6c-1-6.3-2.2-12.6-1.9-19
		c0.2-3.5,1-7,3.8-9.4c2.7-2.3,5.1-2.3,6.9,1.2C525,273.2,525.8,278.3,525.3,283.8z"/>
	<path class="st0" d="M489.1,275c-0.3-2.3,1.1-3.5,2.6-4.3c1.6-0.8,2.7,0.5,3.6,1.6c0.1,0.1,0.2,0.2,0.3,0.3c3,2.5,4.1,5.8,2.8,9.4
		c-0.5,1.3-2.1,3-3.9,1.9C491.4,282,490.1,278.6,489.1,275z"/>
	<path class="st1" d="M496.1,296.9c-0.2,3.1-1.4,3.9-3.3,3.8c-3.1-0.1-6.5-3.7-6.5-6.7c0-2.3,1.3-3.1,3.4-2.9
		C492.9,291.4,496.3,295.1,496.1,296.9z"/>
	<path class="st0" d="M523.4,277.7c0.2,1.4,0,2.7-1.3,3.3c-1.6,0.8-2.7-0.3-3.7-1.4c-0.7-0.8-1.5-1.5-2-2.6c-1.3-3-0.5-8,1.8-8.3
		c3.6-0.5,3.4,2.8,4.4,4.9C523.2,275,523.6,276.3,523.4,277.7z"/>
	<path class="st1" d="M514.6,292.7c0-2.4,0-4.8,2.5-4.4c3.6,0.6,4.3,4.1,5.1,6.9c0.5,1.9-1.4,3.7-3.1,3.4
		C515.7,298.1,515,295.1,514.6,292.7z"/>
</g>
</svg>
