<?xml version="1.0" encoding="utf-8"?>
<!-- Generator: Adobe Illustrator 23.0.1, SVG Export Plug-In . SVG Version: 6.00 Build 0)  -->
<svg version="1.1" id="Layer_4" xmlns="http://www.w3.org/2000/svg" xmlns:xlink="http://www.w3.org/1999/xlink" x="0px" y="0px"
	 viewBox="0 0 1000 1000" style="enable-background:new 0 0 1000 1000;" xml:space="preserve">
<style type="text/css">
	.st0{fill:#FEFEFE;}
	.st1{fill:#00407F;}
</style>
<g>
	<path d="M576.2,308.9c0.5,1.6-0.4,3.3-1.3,4.3c-5.8,6-11.4,12.1-18.9,16.1c-2.2,1.2-4.3,3.2-6.8,0.7c-2.4-2.4-3.4-5.6-1.9-8.4
		c4.5-8.8,11-15.9,20.4-19.5C572.4,300.3,576.2,303.6,576.2,308.9z"/>
	<path d="M567.1,344.7c-4.8,0.1-6.2-2-4.6-5.5c3.3-7.1,10.1-11,15-16.8c2-2.4,4.5-3.8,7.5-4.7c1.9-0.6,3.3-0.7,4.8,0.9
		c1.5,1.6,1.2,2.9,0.5,4.8c-2.4,6.9-8.1,10.8-13.1,15.4C573.9,341.7,570.2,343.7,567.1,344.7z"/>
	<path class="st0" d="M573.2,309.2c0,3.4-3.9,9.2-6.3,9.1c-2.9-0.1-2.5-2.3-2.5-4.2c0.1-4.6,3.1-9.8,5.5-9.4
		C572.2,305.1,573.4,306.8,573.2,309.2z"/>
	<path class="st1" d="M556.7,320.4c0,3.3-1.8,5.4-3.9,7.1c-0.7,0.6-1.6,0.6-2.1-0.2c-1.4-2.2-1-4.6-0.3-6.9c0.6-1.9,0.9-4.7,3.4-4.6
		C556.1,316,556.2,318.7,556.7,320.4z"/>
	<path class="st0" d="M587.9,322.8c-1.1,3.6-3,6.9-6.2,8.7c-2.1,1.2-3.8-1.3-3.5-3c0.8-3.5,2.4-6.9,6.3-8.1
		C586.5,319.9,587.7,320.8,587.9,322.8z"/>
	<path class="st1" d="M569.4,333c2.1,0.2,3,1.3,2.7,3c-0.5,3.2-2,5.9-5.4,6.6c-2,0.4-2.5-1.6-2.3-3.4
		C564.7,335.9,567.3,334.5,569.4,333z"/>
</g>
</svg>
