<?xml version="1.0" encoding="utf-8"?>
<!-- Generator: Adobe Illustrator 23.0.1, SVG Export Plug-In . SVG Version: 6.00 Build 0)  -->
<svg version="1.1" id="Layer_4" xmlns="http://www.w3.org/2000/svg" xmlns:xlink="http://www.w3.org/1999/xlink" x="0px" y="0px"
	 viewBox="0 0 1000 1000" style="enable-background:new 0 0 1000 1000;" xml:space="preserve">
<style type="text/css">
	.st0{fill:#FEFEFE;}
	.st1{fill:#00407F;}
</style>
<g>
	<path d="M543.9,287.4c0.8-5.5,3-10.8,6.9-15.3c2.8-3.2,5.6-6.5,9.7-8.5c2.8-1.4,4.9-0.8,7,0.8c2.1,1.7,3.8,4.3,2.7,6.7
		c-3.9,8.7-8.8,16.9-16.6,22.7C548.8,297.4,544.1,294.2,543.9,287.4z"/>
	<path d="M589.9,280.5c-1.5,7.1-4.9,13.2-9.7,18.5c-2.2,2.5-4.3,5.2-7.5,6.8c-2.1,1-3.9,1.4-5.8-0.1c-2-1.6-1.6-3.2-0.7-5.5
		c3.5-8.8,8.9-16.3,15.5-23c1.5-1.5,3.5-2.5,5.6-1.5C589.3,276.5,590.3,278.2,589.9,280.5z"/>
	<path class="st0" d="M567.6,271.9c-1.1,2.5-0.8,7.3-4.8,7.2c-4.4-0.1-3.2-4.7-3.2-7.7c0.1-2.6,0.3-5.8,4.1-5.6
		C567.1,265.9,567,269,567.6,271.9z"/>
	<path class="st1" d="M546.8,286.2c0.1-1.1,0-2.4,0.4-3.3c0.4-0.9,1.4-1.9,2.4-2.2c1.3-0.4,1.9,0.9,2.3,2c0.4,1,0.8,2.1,0.8,3.2
		c0.1,2.7,0.2,6.6-2.9,6.6C547,292.5,546.8,288.8,546.8,286.2z"/>
	<path class="st0" d="M580.1,286.4c0-0.6-0.1-1.3,0-1.9c0.7-2.7,2.4-4.6,5-5.8c1.3-0.6,2,0,2.4,0.8c1.2,2.4,0.2,4.6-1,6.7
		c-0.4,0.7-0.6,1.6-1.1,2c-1.3,0.9-1.9,3.5-4,2.6C579.5,289.9,580.1,287.9,580.1,286.4z"/>
	<path class="st1" d="M575.2,297.9c-0.9,2.2-0.4,5.9-4.1,6.4c-1.7,0.2-2.8-1.8-2.8-3.9c0.1-3.3,1.6-5.7,4.9-6.2
		C575.1,294,575.2,296,575.2,297.9z"/>
</g>
</svg>
