<?xml version="1.0" encoding="utf-8"?>
<!-- Generator: Adobe Illustrator 23.0.1, SVG Export Plug-In . SVG Version: 6.00 Build 0)  -->
<svg version="1.1" id="Layer_4" xmlns="http://www.w3.org/2000/svg" xmlns:xlink="http://www.w3.org/1999/xlink" x="0px" y="0px"
	 viewBox="0 0 1000 1000" style="enable-background:new 0 0 1000 1000;" xml:space="preserve">
<style type="text/css">
	.st0{fill:#FEFEFE;}
	.st1{fill:#004080;}
	.st2{fill:#00407F;}
</style>
<g>
	<path d="M511,405c-0.6,7.3-1.2,13.3-4.2,18.7c-2.8,5-6.4,5.5-10.1,1.3c-5.2-5.9-8.2-22.2-2.1-30.2c1.9-2.5,4.9-4.4,8.2-3.9
		c3.5,0.6,6,3.3,6.8,6.6C510.3,400.3,511.5,403.2,511,405z"/>
	<path d="M533.3,403c-0.2,7.4-1.7,12.9-3.9,18.4c-1.1,2.8-3.2,4.2-5.7,4.3c-2.7,0.1-3.4-2.6-3.7-4.8c-1.4-8.6-2.7-17.3-0.5-26
		c0.9-3.3,3-5.7,6.4-6.1c3.8-0.4,4.4,3,5.5,5.6C532.8,397.5,533.7,400.9,533.3,403z"/>
	<path class="st0" d="M507.8,403.8c0.1,1.8,0.3,3.6-1.6,4.3c-1.6,0.7-2.6-0.7-3.6-1.7c-1.4-1.5-3.1-2.8-4.3-4.5
		c-1.5-2.2-2.2-4.8,0.7-6.7c2.7-1.7,5.2-0.3,6.6,1.8C506.9,398.9,508.5,401.2,507.8,403.8z"/>
	<path class="st1" d="M502,424.7c-3.8,0-8.8-6.8-7.7-9.7c0.7-1.9,2.1-2.5,3.8-1.3c2.7,1.9,4.4,4.7,5.6,7.7
		C504.4,423.5,503.1,424.3,502,424.7z"/>
	<path class="st0" d="M531.6,400.5c0.1,2.3-1.2,3.7-2.7,4.5c-1.7,0.9-2.6-1.1-3.3-2.1c-2.1-2.9-4.6-5.8-2.1-9.7
		c1.2-1.8,2.9-2.6,4.2-0.6C529.3,395,530.4,397.9,531.6,400.5z"/>
	<path class="st2" d="M520.6,417.3c-0.2-2.8,0.9-5,2.9-4.8c2.6,0.3,3.5,3,3.8,5.5c0.3,2.2-0.8,4.5-2.7,4.4
		C521.6,422.3,521.1,419.2,520.6,417.3z"/>
</g>
</svg>
