<?xml version="1.0" encoding="utf-8"?>
<!-- Generator: Adobe Illustrator 23.0.1, SVG Export Plug-In . SVG Version: 6.00 Build 0)  -->
<svg version="1.1" id="Layer_4" xmlns="http://www.w3.org/2000/svg" xmlns:xlink="http://www.w3.org/1999/xlink" x="0px" y="0px"
	 viewBox="0 0 1000 1000" style="enable-background:new 0 0 1000 1000;" xml:space="preserve">
<style type="text/css">
	.st0{fill:#FEFEFE;}
	.st1{fill:#00407F;}
</style>
<g>
	<path d="M551.8,307.8c-0.7-1.7,0.4-3.4,1.1-4.8c3.6-7.7,9-13.7,17.1-16.9c2.9-1.2,5.9-2,8.3,0.8c2.5,2.9,2.6,6.1,0.3,9.1
		c-5,6.7-10.7,12.9-17.6,17.5C555.3,317.2,551.7,314.8,551.8,307.8z"/>
	<path d="M598.6,306.9c-0.1,2.6-3.3,5.8-6,9c-4,4.8-9.1,8.4-14.6,11.3c-2,1.1-3.8,1.6-5.6-0.4c-1.6-1.7-1.3-3.3-0.2-5.2
		c4.9-8.7,10.8-16.4,20-20.9C596.4,298.7,598.7,300.3,598.6,306.9z"/>
	<path class="st0" d="M573.1,288c3.4,0.1,4.9,1.5,5,4.1c0,3-4.3,8.9-6.4,8.6c-3.3-0.5-3.5-3.1-3.4-5.8
		C568.5,291.3,569.8,288.6,573.1,288z"/>
	<path class="st1" d="M560.5,304.8c0.3,3.1-0.8,5.3-2.9,7.1c-1,0.8-1.8,0.2-2.5-0.5c-2.1-2.2-1.5-4.6-0.7-7.2c0.6-1.9,1.2-4.3,3.4-4
		C560.1,300.4,560.9,302.7,560.5,304.8z"/>
	<path class="st0" d="M587.9,310.7c-0.1-3.8,3-7.9,6.1-7.9c1.8,0,2.7,0.9,2.6,2.7c-0.1,2-5.3,9.1-6.7,8.9
		C587.8,314.1,587.8,312.4,587.9,310.7z"/>
	<path class="st1" d="M581.1,319.5c-0.5,2.7-1.9,5.4-4.8,6.3c-1.4,0.5-3.1-1.4-2.9-3.1c0.5-3.2,2.7-5.8,5.5-6.8
		C580.9,315.1,581,317.6,581.1,319.5z"/>
</g>
</svg>
