<?xml version="1.0" encoding="utf-8"?>
<!-- Generator: Adobe Illustrator 23.0.1, SVG Export Plug-In . SVG Version: 6.00 Build 0)  -->
<svg version="1.1" id="Layer_4" xmlns="http://www.w3.org/2000/svg" xmlns:xlink="http://www.w3.org/1999/xlink" x="0px" y="0px"
	 viewBox="0 0 1000 1000" style="enable-background:new 0 0 1000 1000;" xml:space="preserve">
<style type="text/css">
	.st0{fill:#00407F;}
	.st1{fill:#FEFEFE;}
</style>
<g>
	<path d="M509.2,419.9c6.6,0.1,12.1,5.6,11.2,11.1c-1.6,9.4-5.5,17.7-14,23.1c-2.2,1.4-3.8,1.1-5.5-0.6c-2.8-3-4.4-6.6-4.7-10.6
		c-0.4-5.9,0.9-11.6,3.7-16.9C502.2,421.9,506,420.3,509.2,419.9z"/>
	<path d="M528.4,455.1c-2.4,0.4-4.7-1.6-3.9-4c2-5.7,2.1-12.1,5.7-17.3c0.1-0.1,0-0.4,0.1-0.5c2.4-2.8,4.8-6.6,8.8-5.4
		c3.8,1.1,4.8,5.2,4.8,9c0.1,7.8-2.4,13.8-10.7,16c-0.1-0.1-0.3-0.1-0.4-0.2c-1.7-0.5-1.7-3.8-3.8-2.9
		C526.7,451,529.2,453.4,528.4,455.1z"/>
	<path class="st0" d="M528.4,455.1c-0.6-0.8-1.4-1.4-1.7-2.3c-0.8-2.3,0.2-4.4,2.1-5.2c1.6-0.7,2.6,1.2,3.3,2.7
		c0.4,0.9,0.7,1.7,1,2.6C531.7,453.8,530.3,455,528.4,455.1z"/>
	<path class="st1" d="M516.5,432.4c0.5,2.5,0.1,5.1-2.3,5.8c-2,0.6-3.9-1.2-5.1-2.9c-1.6-2.3-3.1-4.8-4.1-7.4
		c-0.9-2.3,0.5-4.4,2.7-4.9c3.2-0.8,6.3,0.5,7.7,3.5C516.2,428.2,517.3,430.2,516.5,432.4z"/>
	<path class="st0" d="M500.3,438.5c3.6,1,4.7,4.1,6.1,7c1.2,2.4,0,4.4-1.5,6.1c-0.9,1-1.7,0.2-2.5-0.4c-3-2.8-4.3-6.3-4.2-10.3
		C498.1,439.5,499.1,438.9,500.3,438.5z"/>
	<path class="st1" d="M542,439.1c0.6,2.2-0.4,4.5-2.7,5.1c-2.8,0.6-4.1-1.9-5.1-4.1c-0.3-0.7-0.6-1.4-0.8-2.1
		c-0.8-2.9,1.3-7.1,3.8-7.2c3.2-0.1,3.9,2.8,4.7,5.1C542.2,436.7,542,437.8,542,439.1z"/>
</g>
</svg>
