<?xml version="1.0" encoding="utf-8"?>
<!-- Generator: Adobe Illustrator 23.0.1, SVG Export Plug-In . SVG Version: 6.00 Build 0)  -->
<svg version="1.1" id="Layer_4" xmlns="http://www.w3.org/2000/svg" xmlns:xlink="http://www.w3.org/1999/xlink" x="0px" y="0px"
	 viewBox="0 0 1000 1000" style="enable-background:new 0 0 1000 1000;" xml:space="preserve">
<style type="text/css">
	.st0{fill:#FEFEFE;}
	.st1{fill:#00407F;}
</style>
<g>
	<path d="M483.4,256.8c0,2,0,2.6,0,3.3c-0.3,3.4-0.9,6.7-4.8,7.9c-3.1,1-5.1-1.4-7.2-3.1c-3.1-2.5-4.2-6.1-5.1-9.8
		c-1.3-5.6-1.7-11,0.3-16.6c1.3-3.5,3.5-5.4,6.7-5.8c3.3-0.5,4.9,2,6.2,4.8C482.6,243.9,482.3,251.1,483.4,256.8z"/>
	<path d="M507.9,248.1c0.1,3.9-0.5,7.6-2,11.1c-1.9,4.4-4,4.6-6.9,1c-3.1-3.9-2.6-8.9-3.9-13.4c-0.9-3-1.4-6.1-1.9-9.2
		c-0.6-3.5,0.7-6.6,2.7-9.3c1.5-2.2,3.1-2.2,5.2-0.2C506.8,233.6,507,241,507.9,248.1z"/>
	<path class="st0" d="M479.5,244.2c0.1,1.6,0.1,3.4-2,3.7c-2.3,0.3-7.7-5.8-7.7-8.9c0-2.3,1.4-3.6,3.6-3.7
		C476.6,235.3,479.5,239.7,479.5,244.2z"/>
	<path class="st1" d="M471.6,255.1c2.5,0,7.9,5.8,7.8,8.1c0,0.5-0.2,1-0.4,1.3c-0.8,1-1.8,1.3-3,0.8c-3.2-1.4-5.6-3.8-6.9-7
		c-0.5-1.3,0.7-2,1.5-2.7C470.9,255.3,471.4,255.2,471.6,255.1z"/>
	<path class="st0" d="M503,242.1c-3-0.8-4.5-3-6-5.6c-1.4-2.4-0.6-4.1,0.6-6c0.2-0.4,0.8-0.9,1.1-0.9c2.2,0.5,3.8,2.1,4.2,4
		c0.4,2.7,4.2,5.1,1,8.1C503.6,242,503.2,242,503,242.1z"/>
	<path class="st1" d="M498,253.4c0.1-2.2,0.1-4.7,2.1-4c2.8,0.9,4.5,3.6,4.7,6.8c0.1,1.8-0.4,3.8-2.4,3.4
		C499,258.9,498.2,256,498,253.4z"/>
</g>
</svg>
