<?xml version="1.0" encoding="utf-8"?>
<!-- Generator: Adobe Illustrator 23.0.1, SVG Export Plug-In . SVG Version: 6.00 Build 0)  -->
<svg version="1.1" id="Layer_4" xmlns="http://www.w3.org/2000/svg" xmlns:xlink="http://www.w3.org/1999/xlink" x="0px" y="0px"
	 viewBox="0 0 1000 1000" style="enable-background:new 0 0 1000 1000;" xml:space="preserve">
<style type="text/css">
	.st0{fill:#FEFEFE;}
	.st1{fill:#00407F;}
</style>
<g>
	<path d="M507.8,399.9c-0.8,5.2-0.3,10.7-2.8,15.6c-2.6,5.1-4.7,5.2-9.1,1.8c-7.9-6.2-8.9-20.8-5.7-28.4c1.6-3.8,3.9-7.5,8.5-7
		c4.6,0.5,7,4.5,7.9,8.5C507.2,393.5,508.8,396.6,507.8,399.9z"/>
	<path d="M517.6,408.3c-2.8-7.9-3.2-16-2.8-24.2c0.1-2.8,2.1-5.5,5.2-6.1c3.4-0.7,4.1,2.4,5.3,4.6c0.7,1.4,0.9,3,1.4,4.5
		c-2.4,0.3-2.6-2-3.8-3.1c-0.7-0.7-1.4-1.3-2.5-0.9c-1,0.4-1.3,1.3-1.4,2.3c-0.2,1.9,0.4,3.5,1.6,4.9c1.6,1.8,3.2,2.1,4.4-0.5
		c0.4-1,0.5-2.2,1.6-2.9c3,7.6,2.6,15.3-0.1,22.9c-0.9,2.6-1.9,6-5.7,5.2c-3.3-0.8-3-4-3.2-6.7c0.7-0.4,1.2-0.1,1.7,0.3
		c1.1,0.7,2.3,2.7,3.4,0.7c1.1-1.9-0.2-3.7-1.8-5c-0.8-0.6-1.5-0.3-1.9,0.6C518.5,406,518.7,407.4,517.6,408.3z"/>
	<path class="st0" d="M504.9,395.4c0,3.5-0.9,5-4.1,3.4c-3.2-1.6-5.5-4.1-7.2-7.2c-0.9-1.7-0.6-3.2,0.9-4.7c1.7-1.8,3.1-0.9,4.6-0.1
		C502.6,388.8,504.1,392.2,504.9,395.4z"/>
	<path class="st1" d="M493.9,405.5c3.1-0.2,8.7,6.6,7.9,9.4c-0.3,1.2-0.9,2-2.3,1.9c-2.8-0.3-7.7-6.7-7.2-9.4
		C492.5,406.3,493.1,405.6,493.9,405.5z"/>
	<path class="st0" d="M526.5,386.9c-0.2,2.6,0.4,6.1-3.2,6.5c-3.1,0.4-4.5-2.8-5.4-5.2c-0.9-2.5-1-5.8,2.1-7.1
		c3.1-1.3,3.7,1.9,5.1,3.7c0.5,0.7,0.4,2,1.6,2.1C526.7,387,526.5,386.9,526.5,386.9z"/>
	<path class="st1" d="M517.6,408.3c0-0.3,0-0.7,0-1c0.3-1.8-0.8-4.1,1.2-5.4c1.5-1.1,2.3,0.6,3.2,1.4c2,1.9,3.1,4.3,2.3,7
		c-0.6,1.9-2.2,2.4-3.8,1.1c-1.1-0.9-1.9-2.1-2.9-3.1C517.5,408.2,517.6,408.3,517.6,408.3z"/>
</g>
</svg>
