<?xml version="1.0" encoding="utf-8"?>
<!-- Generator: Adobe Illustrator 23.0.1, SVG Export Plug-In . SVG Version: 6.00 Build 0)  -->
<svg version="1.1" id="Layer_4" xmlns="http://www.w3.org/2000/svg" xmlns:xlink="http://www.w3.org/1999/xlink" x="0px" y="0px"
	 viewBox="0 0 1000 1000" style="enable-background:new 0 0 1000 1000;" xml:space="preserve">
<style type="text/css">
	.st0{fill:#FEFEFE;}
	.st1{fill:#00407F;}
</style>
<g>
	<path d="M543.1,241c-2.1,8.8-4.4,17.7-10.6,24.7c-3.9,4.4-6.6,3.6-9.3-1.7c-3.9-7.6,0-14.3,2.1-21.3c1.1-3.8,3.8-6.3,6.9-8.2
		c2-1.2,4.3-3.5,6.9-1.4C541.6,235,543.5,237.4,543.1,241z"/>
	<path d="M566.5,245.6c-1.6,9.1-4,17.8-11,24.5c-1.5,1.4-3.3,3.5-5.8,1.8c-2.4-1.6-2-3.8-1.5-6.4c1.5-7.9,3.4-15.6,7.1-22.8
		c1.6-3.1,4-5.1,7.1-4.2C565.5,239.3,566.6,242.4,566.5,245.6z"/>
	<path class="st0" d="M541.1,242.6c0.4,1.1-0.8,2.3-1,3.7c-0.4,2.2-1.5,3.7-3.7,3.6c-2.2,0-2.7-2.4-3-3.8c-0.3-1.6-1-3-1.1-4.6
		c-0.2-2.7-0.1-5.4,3.2-6.1c3.4-0.7,4.2,2.2,5.4,4.4C541.2,240.5,541,241.4,541.1,242.6z"/>
	<path class="st1" d="M530.3,261.1c0,1.6,0.4,3.6-1.5,4.2c-1.9,0.5-2.7-1.3-3.4-2.7c-1.1-2-2.2-3.9-1.9-6.3c0.1-1.4,0.4-2.6,1.8-3
		c1.5-0.5,2.6,0.5,3.2,1.6C529.6,256.6,530.4,258.7,530.3,261.1z"/>
	<path class="st0" d="M564.5,245.5c-0.1,1.4-0.3,2.7-0.7,4.1c-0.7,2.1-1.5,4.6-3.6,3.9c-2.3-0.7-3.8-3.4-3.4-6.2
		c0.3-2.5,2-4.7,4-5.6C564.5,240,564.5,243,564.5,245.5z"/>
	<path class="st1" d="M555.7,263.5c-0.1,3.1-0.2,6.2-2.9,6.6c-2.4,0.4-3.3-2.3-3-4.6c0.3-2.4,0-5.9,3.1-6.2
		C555.1,259,555.9,261.8,555.7,263.5z"/>
</g>
</svg>
