<?xml version="1.0" encoding="utf-8"?>
<!-- Generator: Adobe Illustrator 23.0.1, SVG Export Plug-In . SVG Version: 6.00 Build 0)  -->
<svg version="1.1" id="Layer_4" xmlns="http://www.w3.org/2000/svg" xmlns:xlink="http://www.w3.org/1999/xlink" x="0px" y="0px"
	 viewBox="0 0 1000 1000" style="enable-background:new 0 0 1000 1000;" xml:space="preserve">
<style type="text/css">
	.st0{fill:#6E3720;}
	.st1{fill:#FB9A7A;}
</style>
<g>
	<path class="st0" d="M579.2,442c2.7,1.2,4.7-0.5,6.8-0.5c23.6-0.4,45.3,4.1,63.6,20.9c9.4,8.6,14.8,19.1,19.5,30.4
		c3.8,9.1,6.6,18.4,8.9,27.9c1.3,5.3,0,9.9-2.8,13.4c-7,8.6-16.3,13.9-27.4,15.9c-15.1,2.7-29.6-0.5-43.9-4.4
		c-7.2-2-13.5-1-20.2,1.9c-10,4.4-20.8,6.2-31.5,8.2c-14.9,2.7-30.1,3.8-45.2,2.8c-24.7-1.6-48.6-6.5-68.3-22.9
		c-11.7-9.7-19.6-22.4-22.7-37.7c-2.8-14-3.3-28.1-2.8-42.3c0.6-16.1,1.4-32.1,3-48.1c1.5-15.3,2.6-30.7,8.6-45.2
		c9.3-22.2,25-35.9,49.5-39.2c16.5-2.2,32.5-0.2,48.2,4.6c16.3,5,30.9,13.5,44.8,23.2c12.3,8.5,21.9,19.1,29.2,32.2
		c7.7,13.7,5,26.1-2.9,38.3C589.2,428.4,585,435.7,579.2,442z"/>
	<path class="st1" d="M444.6,463.4c3.7,1.1,7.1,0.8,10.4,1.1c9.4,0.8,16,6,22.3,12.2c3,2.9,6.2,5.7,9.4,8.4c1.7,1.5,1.8,2.5,0.2,4.3
		c-3.3,4-6.8,8-9.9,14c7.1-5.5,13.1-10.1,19.1-14.7c17-12.9,35.9-22.6,55.8-30c20.5-7.6,41.8-10.1,62.7-0.1
		c11.3,5.4,20.7,13,27.7,23.8c6.7,10.4,13.4,20.7,18,32.3c5.1,12.5-1.8,23.4-15.2,25.5c-9.6,1.5-18.3-2-27.4-3.4
		c-9.8-1.6-19.4-4.8-29.2-5.3c-13.8-0.7-27.4,3-37.4,12.5c-5.2,5-10.6,4.6-15.8,5.5c-17.7,3.1-35.2,0.3-52.4-4.6
		c-14.7-4.2-27.6-11.6-38.4-22.1c-10.4-10.1-16.9-22.1-17.9-37.2c-1.4-21.3-0.9-42.5-0.6-63.8c0.2-16,0.8-32.3,4.9-47.9
		c5.5-20.8,17.3-36.3,39.6-41.5c9.8-2.3,19.6-1.5,29.3-0.4c16.3,1.9,31.4,7.8,45.6,15.8c11.6,6.6,22.9,13.8,32.3,23.3
		c7.2,7.3,12.2,16.1,13.9,26.4c1.2,7.6-3.4,13.5-6.7,19.7c-4.7,8.8-11,16.5-17.3,24.2c-2.4,2.9-5.4,4.6-8.9,5.5
		c-11.6,3.2-22.8,7.4-33.7,12.6c-9.1,4.4-17.5,10.1-24.9,17.1c-2.7,2.6-4.5,2.7-7.5-0.1c-6.4-6-12.3-12.9-20.6-16.6
		c-7.8-3.5-15.6-4.7-23.6-0.3C446.9,460.7,445.8,461.9,444.6,463.4z"/>
</g>
</svg>
