<?xml version="1.0" encoding="utf-8"?>
<!-- Generator: Adobe Illustrator 23.0.1, SVG Export Plug-In . SVG Version: 6.00 Build 0)  -->
<svg version="1.1" id="Layer_4" xmlns="http://www.w3.org/2000/svg" xmlns:xlink="http://www.w3.org/1999/xlink" x="0px" y="0px"
	 viewBox="0 0 1000 1000" style="enable-background:new 0 0 1000 1000;" xml:space="preserve">
<style type="text/css">
	.st0{fill:#6E3720;}
	.st1{fill:#FB9A7A;}
</style>
<g>
	<path class="st0" d="M587.6,440.4c13.3,0,25.6,0.8,37.4,4.6c12,3.9,21.6,11.4,30.1,20.9c12.5,13.9,18.5,30.7,23.7,48.1
		c4.2,14.1,1.6,17.1-10.5,25.8c-7.7,5.6-16.4,9.8-26,10.9c-7.2,0.8-14.3-1.1-21.4-2.4c-7.5-1.3-14.9-3.4-22.4-4.2
		c-6.7-0.7-13.1,2.1-19.4,4.3c-11.4,3.9-22.7,7.3-34.9,8.6c-12.6,1.3-25.1,2.3-37.6,1.5c-23.3-1.4-45.8-6.2-65.5-19.9
		c-16.2-11.2-24.8-26.5-27.2-45.9c-1.9-14.7,0.6-29.1,2-43.5c1-9.9,1.6-19.8,3-29.6c2.9-20.2,5.3-40.5,13.6-59.5
		c3.2-7.5,6.9-14.7,12.2-20.8c7.1-8.4,16.4-13.8,27.1-15.8c29.6-5.4,57.2,1.1,82.6,16.5c11.6,7,22.4,15.4,32,24.8
		c10.9,10.5,19.4,23,19.8,38.9c0.3,10.4-4.8,19.2-11.2,27.1C592.8,433.7,590.5,436.7,587.6,440.4z"/>
	<path class="st1" d="M443,464c9.4-0.9,17.2,1,24.3,5.1c7.8,4.5,13.6,11.4,19.9,17.6c1.3,1.3,0.1,1.9-0.6,2.7
		c-3.7,4.8-7.4,9.6-10.9,14.7c6.4-3.3,11.6-8.4,17.5-12.6c17.3-12.5,34.7-24.9,55.4-31.4c9.9-3.1,20.2-4.9,30.5-6.2
		c8.4-1,16.9-1.6,25,0.6c13.7,3.7,25.7,10.5,34.5,22.3c7.4,9.9,14.8,19.7,20.2,31c2,4.3,3.5,8.6,4.1,13.2c1.1,7.8-4.5,11.4-9.9,15.1
		c-6.9,4.7-14.2,4.1-21.8,2.6c-14.3-2.9-28.5-6.2-42.8-8.3c-7.5-1.1-14.9,1.6-21.8,5c-7.5,3.7-14.6,8.2-22.3,11.4
		c-10,4.2-20.5,5.3-31.5,4.2c-11.7-1.2-23.1-3.6-34.3-7.1c-10.5-3.3-20.1-8.5-28.6-15.4c-7-5.7-13-12.2-17.7-20.1
		c-4.8-7.9-6.9-16.4-7.2-25.1c-0.8-16.8,1.3-33.5,2.4-50.3c1-14.8,3.5-29.3,6.1-43.8c2.6-14.1,6.5-27.9,14.8-39.7
		c5.6-8,13.5-13.5,23.1-16.6c17.2-5.6,33.7-2,50.2,2.3c16.7,4.3,31.3,12.8,44.7,23.7c7.7,6.3,15.4,12.7,21,21.1
		c5,7.4,8.6,15.5,9.1,24.5c0.3,5.3-2,9.9-4.7,14.4c-4.4,7.3-9.7,14-15.1,20.5c-2.3,2.8-5.1,4.1-8.5,5c-15.7,4-31,9.1-45.5,16.6
		c-9,4.6-17.4,10.3-24.8,17.3c-2.5,2.4-3.4,1.4-5.2-0.4c-6-5.6-11.8-11.4-18.8-15.9C464.1,455.3,453.5,455.7,443,464z"/>
</g>
</svg>
