<?xml version="1.0" encoding="utf-8"?>
<!-- Generator: Adobe Illustrator 23.0.1, SVG Export Plug-In . SVG Version: 6.00 Build 0)  -->
<svg version="1.1" id="Layer_4" xmlns="http://www.w3.org/2000/svg" xmlns:xlink="http://www.w3.org/1999/xlink" x="0px" y="0px"
	 viewBox="0 0 1000 1000" style="enable-background:new 0 0 1000 1000;" xml:space="preserve">
<style type="text/css">
	.st0{fill:#6E3720;}
	.st1{fill:#FB9A7A;}
</style>
<g>
	<path class="st0" d="M566.5,514.8c-28-0.6-52.1-8-74.3-21.9c-11.1-6.9-22.8-13.2-31.4-23.1c-14.8-17-25.5-36.5-30.2-58.9
		c-4-18.9-0.7-37.1,3.4-55.4c4.2-18.7,7.8-37.5,12.4-56c3.3-13.3,7.4-26.4,13.1-39c4.4-9.7,9.1-19.2,15.1-27.9
		c8.9-12.8,21-21,36.5-23.6c23.8-4,44.1,5.4,64.2,16.1c11.4,6.1,20.7,14.7,29.2,23.9c11,12,21.6,24.6,27.4,40.4
		c5.8,15.9,2.9,33.1-8.3,43.3c-6.6,6-13.8,11.4-20.8,17c-9.8,7.9-20.4,14.5-31.7,20c-1.1,0.6-2.3,1-3.5,1.4
		c-6.1,2.1-10.6,5.3-11.2,12.5c-0.3,3.1-1.9,6.2-4.5,8.1c-4.4,3.2-2.7,6.3-0.7,9.8c5.6,9.2,11.1,18.5,18.1,26.7
		c8.2,9.6,15,20.6,24.8,28.8c7.7,6.4,14.4,13.6,19.9,22c6.8,10.3,1.1,27.7-12.1,31c-6.2,1.6-12.4,3.2-18.6,3.5
		C577.2,513.8,571,515.5,566.5,514.8z"/>
	<path class="st1" d="M464.8,356.1c5.4,2.3,10.2,4.2,14.9,6.3c8.2,3.6,14,9.8,19.6,16.6c6.3,7.7,12.9,15.5,22.9,18.7
		c4,1.3,8.1,2,12.3,1.7c2.2-0.2,3.5,0.6,4.5,2.6c6.5,13.6,16,25.1,25.8,36.4c8.4,9.7,16.8,19.3,26.3,27.9c5.5,5,10.5,10.2,14.7,16.4
		c6.2,9.4-0.1,15.4-7.5,18.1c-5.7,2.1-11.8,3-17.8,3.9c-13.9,2.1-27.7,1-41.3-1.9c-22.9-5-42.4-16.4-60.8-30.6
		c-14.5-11.2-23.8-26-31.5-41.9c-4.4-9-6.1-19.1-7.5-29.2c-2.6-19,2.3-37,6.1-55.2c5-23.8,10.3-47.5,18.2-70.6
		c5-14.9,11.9-28.8,20.9-41.5c7.8-10.9,19.4-15.5,32.3-17.2c19.7-2.7,36.3,6,52.8,14.6c17.2,8.9,28.7,24.1,40.6,38.8
		c5.7,7,10.4,14.4,13,23.3c4.8,16.6-0.7,29.3-13.5,39.7c-11.2,9.1-22.9,17.6-34.9,25.5c-4.9,3.2-10.2,5.5-15.6,7.5
		c-4.8,1.7-7.9,4.2-9.6,9.5c-3.6,11-7.4,14.3-18.9,13.9c-5.5-0.2-10.3-3.1-15-6.1c-4.9-3.2-7.4-8.3-10.9-12.6
		c-8.1-9.9-17.3-18-31.3-17.3C470.2,353.6,469.9,353.7,464.8,356.1z"/>
</g>
</svg>
