<?xml version="1.0" encoding="utf-8"?>
<!-- Generator: Adobe Illustrator 23.0.1, SVG Export Plug-In . SVG Version: 6.00 Build 0)  -->
<svg version="1.1" id="Layer_4" xmlns="http://www.w3.org/2000/svg" xmlns:xlink="http://www.w3.org/1999/xlink" x="0px" y="0px"
	 viewBox="0 0 1000 1000" style="enable-background:new 0 0 1000 1000;" xml:space="preserve">
<style type="text/css">
	.st0{fill:#6E3720;}
	.st1{fill:#FB9A7A;}
</style>
<g>
	<path class="st0" d="M428.6,376.8c0.6-19.2,2.9-38.2,3.4-57.4c0.2-9.1,0.3-18.3,1.4-27.4c3.2-26.1,7.9-51.8,22.7-74.2
		c9-13.6,21.9-21.1,38.4-22.6c32.1-2.9,59.7,8,85.2,26.4c12.4,8.9,23.3,19.3,31.4,32c7.6,11.9,11.9,25.3,7,39.8
		c-1.5,4.5-4.2,8.6-7.3,12.2c-11,12.8-23.2,24.3-35.6,35.7c-2.2,2-4.8,3.6-7.3,5.4c-3.6,2.6-7.6,4.8-10.7,7.8
		c-3.5,3.3-1.2,8.3-2.7,12.4c-1.9,5.3-5.2,9.1-9.9,11.8c-2.3,1.4-3,2.6-1.3,5c19.7,28.3,36.5,58.5,56.4,86.7
		c6.1,8.6,10.3,18,12.5,28.4c2.3,11.1-7.4,22.4-19.9,22.7c-17,0.4-33.3-2.9-48.7-9.9c-20.5-9.4-38.7-22.7-56.9-35.9
		c-8.7-6.3-17.2-12.9-24.7-20.4c-12.7-12.5-25.4-25.4-29.2-43.8C430.6,400.1,428.3,388.6,428.6,376.8z"/>
	<path class="st1" d="M455,345.1c4.7,2.1,9.2,2.2,13.5,3.8c13.9,5,25.3,13.7,36.1,23.4c7.2,6.5,15.3,11.2,25.3,11.5
		c2.8,0.1,3.2,2.4,4.3,4c10.8,16.9,21.4,33.9,32.3,50.7c9.7,14.9,19.6,29.7,29.3,44.6c3.2,5,5.8,10.3,6.7,16.3
		c1.1,7.2-3.9,13.1-11.7,13.3c-8.7,0.2-17.2-1.6-25.7-3.5c-17.3-3.9-31.8-13.2-46.4-22.7c-20.4-13.3-40.1-27.5-56.8-45.5
		c-13.4-14.4-21.8-30.8-23.7-50.8c-1.7-18.5,0.4-36.7,2.1-55c1-10.9,1.2-21.9,2.1-32.8c1.8-23.2,3.7-46.6,13.9-67.9
		c4.8-10.1,10.9-20,21.7-25.6c5.7-2.9,11.6-4.9,17.7-5.6c25.6-3.2,48.2,5.9,69.9,18.1c7.3,4.1,13.8,9.3,20.3,14.5
		c2,1.6,3.5,3.8,5,5.9c3.8,5,7.6,10,11.5,14.8c4.9,6,7.4,13.1,8.6,20.6c1.2,7.8-1.1,15.3-5.9,21.3c-15.8,19.7-34.7,36.3-55.3,51
		c-4,2.9-3,6.9-3.8,10.4c-2.3,9.6-10.8,15-20.6,12.9c-10.9-2.4-18.8-9.2-26.9-16.2c-7.4-6.4-14.3-13.3-24.7-15.2
		C467.2,340.2,461.2,340.9,455,345.1z"/>
</g>
</svg>
