<?xml version="1.0" encoding="utf-8"?>
<!-- Generator: Adobe Illustrator 23.0.1, SVG Export Plug-In . SVG Version: 6.00 Build 0)  -->
<svg version="1.1" id="Layer_4" xmlns="http://www.w3.org/2000/svg" xmlns:xlink="http://www.w3.org/1999/xlink" x="0px" y="0px"
	 viewBox="0 0 1000 1000" style="enable-background:new 0 0 1000 1000;" xml:space="preserve">
<style type="text/css">
	.st0{fill:#6E3720;}
	.st1{fill:#FB9A7A;}
</style>
<g>
	<path class="st0" d="M548,447.5c13.1-3.6,25.6-6.4,38.7-6.2c15.7,0.2,29.4,5.8,41.9,14.9c15.4,11.2,23,27.4,28.8,44.9
		c3,8.9,5.2,17.9,6.6,27.1c1.2,7.6-2.3,13.8-7.9,18c-11,8.2-23.4,10.7-37.3,7.9c-11.3-2.3-21.8-6.2-32.3-10.5c-1.5-0.6-2.4-0.8-4,0
		c-10.3,5.2-21.2,9.1-32.5,11.3c-5.6,1.1-11.3,2.1-17,2.5c-7.6,0.5-15.1,1.6-22.7,1.1c-19.5-1.3-38.6-4.1-55.6-14.6
		c-10-6.2-17.9-14.4-24.2-24.6c-9.1-14.8-11.9-31.1-14.5-47.7c-2-12.7-5-25.2-6.6-38c-1.6-12.5-3.8-24.9-4.3-37.6
		c-0.3-7.2-1.2-14.5-0.6-21.8c0.9-11.3,1.9-22.6,7.4-33.2c4.4-8.4,10.5-14.9,18.4-19.6c12.1-7.2,25.5-10.7,39.6-12.1
		c24.1-2.4,46.2,3.7,67.9,13c10.9,4.7,21.9,9.6,30.8,17.5c9.7,8.6,17.6,18.8,16.3,33c-1,10.6-4.6,20.6-9.1,30.2
		c-5.6,11.8-12.6,22.7-19.4,33.7C554.2,440.6,550,442.8,548,447.5z"/>
	<path class="st1" d="M546.5,543.2c3.7,0.6,6.8-2,10.8-1c-4.9,3.7-10.6,4.6-15.9,5.4c-9.4,1.4-18.9,2.7-28.4,2.1
		c-19.4-1.1-37.9-5.8-53.7-17.2c-8.6-6.2-14.7-15.2-20.3-24.4c-7.8-12.9-10.2-27.2-13.1-41.4c-2.9-13.9-5.8-27.9-7.6-42
		c-1.6-12.6-3.4-25.1-4.4-37.8c-0.8-11.4,0.3-22.3,3-33.3c2-8,6.2-14.7,12.5-19.6c11-8.4,23.1-13.7,37.4-14.9
		c14-1.2,27.7-0.6,41.3,2.3c19.5,4.2,37.8,11.7,53.4,24.2c6.7,5.4,11.8,13.2,14.3,21.9c1.6,5.4-0.3,11-2,16
		c-5.5,16.3-13.8,31.4-23,45.9c-3.9,6.1-9.4,11-13.1,17.2c-2.8,4.6-6.6,6.6-11.1,8.5c-9.5,4-18.2,9.6-25.8,16.5
		c-1.9,1.7-3.1,1.4-4.9,0.2c-5.9-4.1-11.8-8.4-18-12c-12.8-7.6-22.4-8.6-32.8,3.6c1.1,0.9,2.5,0.7,3.6,0.4
		c11.2-2.9,20.4,1.5,29.2,7.7c3.5,2.5,6.7,5.7,10.4,7.8c2.6,1.5,2.1,2.9,0.9,4.6c-2.1,3.2-4.4,6.2-6.4,9.6c5.6-2.4,10.2-6.3,14.7-10
		c15.6-12.7,33.5-21.1,52.5-26.6c15.6-4.5,32.1-6.3,48-0.5c11.2,4.1,20.5,11.7,28,20.9c10.5,12.9,15.8,28.4,20.1,44.3
		c1.1,4.1,2.8,8.6,0.8,13.2c-3.3,7.7-10.1,9.3-17.3,10.2c-5.2,0.7-10.1-1.3-15-2.8c-10.1-3.1-20.1-6.5-30.3-9.2
		C569.5,528.9,557.1,533.3,546.5,543.2z"/>
</g>
</svg>
