<?xml version="1.0" encoding="utf-8"?>
<!-- Generator: Adobe Illustrator 23.0.1, SVG Export Plug-In . SVG Version: 6.00 Build 0)  -->
<svg version="1.1" id="Layer_4" xmlns="http://www.w3.org/2000/svg" xmlns:xlink="http://www.w3.org/1999/xlink" x="0px" y="0px"
	 viewBox="0 0 1000 1000" style="enable-background:new 0 0 1000 1000;" xml:space="preserve">
<style type="text/css">
	.st0{fill:#6E3720;}
	.st1{fill:#FB9A7A;}
</style>
<g>
	<path class="st0" d="M474,247c23.9,1.3,47.6,4,69,15.8c13.1,7.2,23,17.6,27,32.5c1.7,6.2-0.9,12.3-2.2,18.4
		c-4.8,21.7-13.1,42.2-23.6,61.7c-1.9,3.5-2.1,6.7-0.8,10.3c3.8,10.2,4.1,19.9-4.5,28.1c-1.9,1.8,0,3.2,0.7,4.2
		c10.6,15.4,20.1,31.4,29.2,47.7c9.5,16.9,17.7,34.4,25.7,51.9c7.5,16.3,13.2,33.4,19.8,50.1c1.7,4.3,3,8.7,3.6,13.2
		c1.5,10.2-2.7,14.9-14.7,15.7c-11.2,0.7-22.1-2.1-32.6-6c-13.9-5.1-26.7-12.3-39.6-19.4c-13.2-7.2-25.9-15.3-38.2-24
		c-7-4.9-13.1-10.7-19.6-16c-5-4-10.1-8-14.5-12.6c-12.9-13.3-25.6-26.8-29.4-45.9c-0.6-3-1.5-6-1.4-8.9c0.6-11.6-3.1-22.3-6.4-33.1
		c-6.6-21.6-14.8-42.6-21.7-64c-4.7-14.6-7.8-29.6-9.3-45.1c-1.4-14.3,0.5-27.5,7.1-40.1c4-7.7,10.8-12.8,17.5-17.7
		c11.7-8.6,25-13.3,39.5-14.9C460.9,248.2,467.3,246.8,474,247z"/>
	<path class="st1" d="M446,421.8c6.4-2,13.1-0.3,19.6-1.6c7.2-1.5,14.3,1.2,21.5,2.1c8.1,1,16.2,0.8,24.3,0.2
		c3.7-0.3,7.3-1,10.9-1.6c2.7-0.4,4.7,0.6,6.3,2.8c10.6,14.5,20.4,29.5,29.1,45.3c9.3,16.9,17.9,34.2,25.8,51.8
		c8.6,19.1,17.9,37.9,23.2,58.4c1.6,6.1-0.9,9.7-8.1,8.7c-8.7-1.3-17.2-3.3-25.4-6.7c-30.9-12.6-58.8-30-84.6-51
		c-15.9-12.8-30.6-26.7-42.3-43.5c-3.8-5.4-6.8-11.6-6.7-18.3c0.1-14.6-3.8-28.3-8.2-41.8c-6.2-19-13.6-37.6-20.3-56.5
		c-4.3-12-7.6-24.1-10.2-36.5c-2.7-13.1-4.3-26.6,0.7-39.5c2.5-6.5,6-12.5,11.9-17.2c6.8-5.5,13.2-11.3,21.6-14.1
		c9-3,18.2-4.8,27.6-6.1c19-2.5,37.5,0.6,55.6,6c12.7,3.8,24.8,9.2,34.2,18.9c6.6,6.8,8.8,14.9,7.4,24.7
		c-3.1,22.4-11.8,42.6-22.3,62.1c-4.1,7.6-4.8,13.9-2.6,22c3.8,14.2-1.5,17.2-12,20.1c-8.1,2.2-16.8,3.3-25.4,2.4
		c-7.9-0.8-15.7-1.8-23.6-1.7C460.9,411.4,455,412.8,446,421.8z"/>
</g>
</svg>
