<?xml version="1.0" encoding="utf-8"?>
<!-- Generator: Adobe Illustrator 23.0.1, SVG Export Plug-In . SVG Version: 6.00 Build 0)  -->
<svg version="1.1" id="Layer_4" xmlns="http://www.w3.org/2000/svg" xmlns:xlink="http://www.w3.org/1999/xlink" x="0px" y="0px"
	 viewBox="0 0 1000 1000" style="enable-background:new 0 0 1000 1000;" xml:space="preserve">
<style type="text/css">
	.st0{fill:#6E3720;}
	.st1{fill:#FB9A7A;}
	.st2{fill:#730000;}
</style>
<g>
	<path class="st0" d="M610.6,526.7c-0.6,8.3,0.5,15.6-3.3,21.5c-7.1,11-20.5,14.5-32.8,4.3c-4.1-3.4-8.2-6.7-12.1-10.2
		c-3.1-2.7-5.3-0.8-7.6,1c-8.8,6.8-18.1,12.6-29.1,15.4c-17.7,4.4-33.6,1.1-48.3-9.5c-9.1-6.5-15.1-15.2-19.5-25.5
		c-6.6-15.6-14.3-30.6-24.6-44.3c-19.2-25.2-39-50.1-51.6-79.6c-3.9-9.2-6.1-18.9-7.7-28.7c-1.6-10-1.2-19.7,1.9-29.3
		c2.1-6.3,6.4-11,10.5-15.7c12.3-13.9,28.4-21.6,45.3-28.2c13.4-5.2,27.3-6.9,41.5-8c16-1.3,31.4,0.7,46.4,6.1
		c13.5,4.8,24.1,13.6,27.7,27.7c2.4,9.3,4.1,19.1,1.7,29c-1.1,4.3-0.4,8.9-0.8,13.5c-1.3,13.4-4.1,26.3-8.1,39
		c-0.8,2.6-0.4,4.5,1.3,6.9c3.8,5.3,7,10.9,5,18.1c-0.7,2.6,2.3,1.6,3.4,1.4c10-1.6,19.4,0.3,27.8,5.3c7.6,4.5,13.7,11.2,18.1,19
		c6.9,12,10.4,25.1,11.8,38.8C608.6,505.7,609.6,516.9,610.6,526.7z"/>
	<path class="st1" d="M499.9,460.1c0.5,1.8-1.6,2.3-1.8,4.2c1.5,0,2.5-0.6,3.6-1.5c11.4-10.3,24.9-16.7,39.7-20.5
		c17.4-4.4,35.4,2.9,44.1,19.6c6.3,12,9.6,24.7,11.2,38c0.9,7.6,2.8,15.1,3.7,22.7c0.8,6.6,0,13.3-2.4,19.5
		c-2.9,7.5-11.7,9-18.3,2.9c-6.4-5.9-13.1-11.5-19.5-17.4c-6.3-5.8-13.7-7.2-21.5-3.3c-2,1-4,2-6,3.6c6.3,0.4,12.5,0.8,18.5,4.5
		c-8.8,5.9-15.5,14.1-25.9,16.8c-15.1,3.8-28.6,1.5-41.2-8.4c-8.1-6.5-13.7-14.6-17.9-23.5c-12.3-25.7-29-48.3-45.8-71
		c-15.3-20.6-28.8-42.4-35.9-67.6c-6.1-21.6-0.8-38.5,16.6-52.7c13.7-11.1,29.4-17.7,46-22.2c9.1-2.5,18.7-2.8,28.1-3.9
		c10.8-1.3,21.3-0.5,31.5,2.4c11.2,3.2,22,8,28.6,18.8c3.5,5.7,4.7,12.1,4.7,18.4c0,22.7-1.3,45.3-9.5,66.9
		c-0.7,1.9-0.9,3.5,0.5,5.7c2.8,4.4,5.1,9.2,6,14.6c0.7,4.2-1,7.1-5.1,8.5c-6.1,2.1-11.9,4.9-16.6,9.5c-1.9,1.9-3.9,2.3-6.2,1.9
		c-10.4-1.9-20.7-3.9-31.1-6c-8.9-1.9-17.3,2-21.1,10.3c-1.1,2.4-1.8,5-2.7,7.6c1.3,1.2,1.2,3,1.6,4.5c1.6,5.2,4.8,7.2,10.2,6.5
		c5.4-0.7,10.3-2.8,14.9-5.4c4.8-2.7,9.9-3.9,15.3-4.3C497.6,459.2,498.9,458.9,499.9,460.1z"/>
	<path class="st2" d="M499.9,460.1c-7.6,0.7-15,2.2-21.6,6.4c-4,2.5-8.6,3.4-13,4.2c-6.8,1.2-11.3-4.2-11-12.6
		c2.2-1.6,4.4-3.3,6.6-4.9c5.5-3.8,11.6-4.4,18-2.7c6.7,1.8,13.5,3.4,20.1,5.2c1.2,0.3,3-0.2,3.4,1.3
		C502.8,458.6,501.1,459.3,499.9,460.1z"/>
</g>
</svg>
