<?xml version="1.0" encoding="utf-8"?>
<!-- Generator: Adobe Illustrator 23.0.1, SVG Export Plug-In . SVG Version: 6.00 Build 0)  -->
<svg version="1.1" id="Layer_4" xmlns="http://www.w3.org/2000/svg" xmlns:xlink="http://www.w3.org/1999/xlink" x="0px" y="0px"
	 viewBox="0 0 1000 1000" style="enable-background:new 0 0 1000 1000;" xml:space="preserve">
<style type="text/css">
	.st0{fill:#6E3720;}
	.st1{fill:#FB9A7A;}
</style>
<g>
	<path class="st0" d="M492.1,239.3c23.5,0.1,44.4,6,64.3,15.9c13.2,6.6,25.8,14.1,35.8,25.1c8,8.9,13.6,19.2,15.1,31.1
		c0.8,6.3-1.2,12.6-3.7,18.5c-5.9,13.4-15.4,24.3-24.3,35.8c-7,9-14.9,16.9-23,24.8c-2,2-1.3,4.1-1.5,6.3
		c-0.9,7.8-1.4,15.6-8.2,21.2c-3.3,2.7-7.2,4.1-11.1,4.8c-3,0.6-3.4,2-3.1,4.3c1.5,10.9,1.3,21.8,0,32.7c-0.6,5.1-0.7,10.3-0.9,15.4
		c-0.7,13.9-3.1,27.6-4.9,41.4c-2.2,16.9-7.7,33-10.7,49.6c-1.4,7.7-1.7,15.7-1.3,23.7c0.2,3.5-0.6,6.9-1.8,10.2
		c-4.3,11.4-13,12.2-21.9,8.2c-12.4-5.5-20.7-15.4-26.9-27c-9.2-17.5-18-35.2-24.9-53.8c-4.4-12-7.7-24.4-10.2-36.9
		c-2.8-14.2-5.9-28.6-5-43.2c0.7-11.8,2.7-23.5,3.6-35.3c0.4-4.6,0.5-9.3-0.4-14c-1.3-6.5-0.7-13.2-1.1-19.7
		c-0.5-9.5-1.5-19-1.4-28.6c0.1-4.4-1.1-8.9-0.9-13.5c0.7-15.2,1.7-30.3,4.6-45.3c2.1-10.6,6.1-20,11.9-28.6
		c8.3-12.2,20.5-18.6,34.9-21.2C481.2,240.1,487.1,238.6,492.1,239.3z"/>
	<path class="st1" d="M479.8,408.2c9.2-0.4,16.5,2.9,23.5,7.6c4.8,3.2,9.4,6.7,15.5,7.2c1.5,0.1,2.6,1.2,2.8,3.3
		c1.3,11.6,1.5,23.2,0,34.8c-0.1,1-0.1,1.9-0.1,2.9c0.1,29.1-4.4,57.6-12.1,85.6c-3.4,12.2-3.8,24.8-3.5,37.4
		c0.1,4.6-0.1,9.8-4.4,12.1c-4.5,2.3-8.5-1.4-12.2-3.9c-10.7-7.2-16.4-18.4-22.5-29.1c-11.4-20.2-19.1-42-25.7-64.1
		c-4.1-13.8-5.3-28.3-6.8-42.7c-1.2-11.3-0.1-22.3,0.6-33.3c0.7-11.2,0.9-22.4,0.6-33.5c-0.4-14.9-0.9-29.7-2-44.6
		c-1.6-22.2-0.2-44,6.4-65.3c5-16.3,15.3-27.8,31.9-32.5c8.2-2.3,16.7-2.3,25.3-1.4c9.1,0.9,18.2,2.1,27,4.6
		c15.6,4.6,30.3,11.3,43.9,20.2c4.2,2.7,8.7,4.9,12.5,8c9.9,8.3,17.3,18.2,17.3,32c0,3.8-1.1,7.4-2.5,10.7
		c-6.9,15.9-17.2,29.6-28.1,43c-6,7.4-13.4,13-20,19.7c-1.4,1.5-2.6,2.9-2.1,5.1c1.8,8.1-1,15-7.2,19.5c-6.8,4.9-14.6,4.6-22.4,1
		c-5.7-2.7-10.5-6.9-16.1-9.6C491.5,399.2,485.6,400.6,479.8,408.2z"/>
</g>
</svg>
