<?xml version="1.0" encoding="utf-8"?>
<!-- Generator: Adobe Illustrator 23.0.1, SVG Export Plug-In . SVG Version: 6.00 Build 0)  -->
<svg version="1.1" id="Layer_4" xmlns="http://www.w3.org/2000/svg" xmlns:xlink="http://www.w3.org/1999/xlink" x="0px" y="0px"
	 viewBox="0 0 1000 1000" style="enable-background:new 0 0 1000 1000;" xml:space="preserve">
<style type="text/css">
	.st0{fill:#6E3720;}
	.st1{fill:#FB9A7A;}
</style>
<g>
	<path class="st0" d="M552.2,505.9c-24.2-0.5-46.4-6.9-67-20c-20-12.7-34.7-29.7-45.3-50.6c-5.6-10.9-8.4-22.6-9.4-35.1
		c-2.1-26.7,2.6-52.4,9.4-77.9c4.2-15.7,8.1-31.4,14.1-46.6c7.3-18.3,15.8-36,28.3-51.3c7.8-9.5,18.2-15.7,30.8-17.5
		c16.3-2.3,31.5,2,46.4,7.4c14.8,5.4,27.4,14.5,38,25.7c12.4,13,24.3,26.7,31.8,43.3c4.7,10.4,8.4,21,5.3,32.7
		c-2.8,10.5-9.4,18.6-17.7,25.1c-13.2,10.4-27.5,19.3-42.8,26.4c-4.7,2.2-9.5,4.2-14.3,6.3c-0.9,0.4-2.2,0.5-2.5,1.2
		c-2.7,5.8-5.6,11.5-8.4,17.2c-1.5,3.2,0.5,7.7,2.3,11.3c8.8,17.5,22.2,30.4,39,40.1c8,4.6,16,9.2,21.4,17.2
		c8.4,12.5,6.6,23.5-6.3,31.6c-12.1,7.6-25.6,11.2-39.9,12.5C561.2,505.5,556.7,505.7,552.2,505.9z"/>
	<path class="st1" d="M462.4,347.1c4.8,3.5,10.2,5.4,15.1,8.5c7.9,5,12.7,12.7,18.5,19.4c6.2,7.1,11.1,15.4,20.1,19.7
		c6.6,3.2,13.3,5.1,20.4,2.6c2.8-1,3.1-0.1,3.8,2.4c4.1,15.2,12.9,27.2,24.4,37.8c8.6,7.8,18.4,13.4,28.2,19.2
		c3.4,2,6.7,4.6,9.4,7.5c8,8.9,6.2,17.2-4.9,22.6c-8.7,4.2-18,6.6-27.5,8.1c-5.7,0.9-11.5,1.8-17.2,1.9c-8.4,0.2-16.5-2-24.6-3.8
		c-20.6-4.6-38.4-14.8-53.4-29.1c-14.3-13.7-25.5-30-31.1-49.2c-3.9-13.3-4.6-27-3.3-41c1.8-19.6,5.6-38.7,11.2-57.4
		c7.5-25.4,15.1-50.8,29-73.6c5.9-9.7,13.8-17.9,23.7-23.5c7.8-4.4,16.7-5.3,25.3-4.2c18.1,2.3,34.3,10,49.4,20.1
		c8.7,5.9,15.2,13.9,22.1,21.6c6.3,7,11.6,14.9,16.7,22.9c4.8,7.6,8,15.9,9.2,24.6c1.5,10.8-4,19.5-11.8,26.3
		c-15.9,13.7-33.9,24.3-53,32.9c-1.5,0.7-3,1.2-4.4,1.8c-4.8,1.9-8.3,4.5-10,10c-3.9,12.7-18.7,16.4-28.9,9.3
		c-8.2-5.7-14.3-12.9-19.8-20.8c-5.3-7.6-11-14.7-20.3-17.6C473.1,344.6,467.7,343.9,462.4,347.1z"/>
</g>
</svg>
