<?xml version="1.0" encoding="utf-8"?>
<!-- Generator: Adobe Illustrator 23.0.1, SVG Export Plug-In . SVG Version: 6.00 Build 0)  -->
<svg version="1.1" id="Layer_4" xmlns="http://www.w3.org/2000/svg" xmlns:xlink="http://www.w3.org/1999/xlink" x="0px" y="0px"
	 viewBox="0 0 1000 1000" style="enable-background:new 0 0 1000 1000;" xml:space="preserve">
<style type="text/css">
	.st0{fill:#6E3720;}
	.st1{fill:#FB9A7A;}
</style>
<g>
	<path class="st0" d="M530.4,244.3c-0.2,17.9-1.7,32.8-5,47.6c-0.4,1.9,0.3,3.8,1.4,4.9c2.7,2.7,3.7,6.3,5.5,9.4
		c5.1,8.7,2.8,16.6-2.7,23.8c-2.7,3.6-2.7,5.9-0.3,9.7c6.1,9.7,9.7,20.5,10.8,32.1c0.8,8,2.2,15.9,1.8,24
		c-1.2,23.3-6.1,45.5-19.5,65.2c-13.5,19.9-30,36.4-51.7,47.2c-9.5,4.8-19.7,7.6-30.4,8.6c-7.2,0.6-14.3,2.2-21.5,1.8
		c-8.9-0.6-17.7-1.5-26-5.1c-10.9-4.7-15.3-20.6-8.4-31.1c6.4-9.9,14.2-18.6,22.3-27c12.5-12.9,19.1-28.6,22.9-45.7
		c0.9-4.3-0.9-8.9-2.3-13c-5.3-15.9-12.9-30.6-24.4-43.1c-10.1-11.1-19.8-22.7-28.1-35.1c-10.4-15.6-18.1-32.7-21.1-51.3
		c-1.5-9.6,1.4-18.9,5.1-27.9c6.4-15.6,18.7-25.5,32.3-33.9c16.3-10.1,33.9-16.7,53.2-19c10.5-1.3,21.1-2.1,31.6-2.5
		c13.9-0.5,27.1,3.2,38.9,10.7c8.3,5.3,12.2,13.9,13.4,23.3C529.3,227.5,531,237.2,530.4,244.3z"/>
	<path class="st1" d="M444.6,360.7c6.2-3.3,11.3-5.7,16-8.5c7.7-4.6,16.3-5.8,24.9-6.3c9.6-0.6,19.3-0.7,28.6-3.5
		c2.6-0.8,3.3,0.7,4.2,2c4.3,5.9,6.8,12.6,8.4,19.7c2.4,11,5.3,22.1,4.3,33.3c-2,23.9-9,46-24.2,65.2
		c-10.8,13.6-22.6,25.8-37.3,35.2c-7.9,5.1-16.7,7.4-25.7,8.8c-8.5,1.4-17.2,2.7-26,2.2c-5-0.3-9.9-0.7-14.7-2
		c-13.1-3.5-15.5-12.2-7.5-23.1c3.5-4.7,7.6-8.8,11.9-12.8c12.4-11.5,21.4-25.2,27.3-41c6.2-16.5,5.8-32.9-1.6-49
		c-6.9-14.9-16.8-27.6-27.3-40.1c-13.7-16.4-27.6-32.6-36.2-52.6c-6.4-14.9-9.1-29.9-2.7-45.6c4-9.7,11.2-16.4,19.1-22.6
		c10-7.8,20.9-14.4,32.8-18.9c10.2-3.9,21-5.7,31.8-6.8c8.5-0.9,17-2.4,25.5-1.9c10.4,0.6,20.6,1.7,29.9,7.6
		c7,4.5,10.7,10.9,12.2,18.3c2.4,12.5,4,25.2,3.1,38c-1,13-1.6,26-4.5,38.7c-0.6,2.4,0,4.3,1.4,5.8c2.3,2.4,3.5,5.4,4.9,8.3
		c4,8,1.5,16.1-6.1,20.6c-6.2,3.7-13.1,5.3-20.1,6.1c-9.9,1.2-19.9,1.5-29.7,3.2c-7.9,1.3-14,6.3-18.3,13.1
		C447.6,354.4,446.5,357,444.6,360.7z"/>
</g>
</svg>
