<?xml version="1.0" encoding="utf-8"?>
<!-- Generator: Adobe Illustrator 23.0.1, SVG Export Plug-In . SVG Version: 6.00 Build 0)  -->
<svg version="1.1" id="Layer_4" xmlns="http://www.w3.org/2000/svg" xmlns:xlink="http://www.w3.org/1999/xlink" x="0px" y="0px"
	 viewBox="0 0 1000 1000" style="enable-background:new 0 0 1000 1000;" xml:space="preserve">
<style type="text/css">
	.st0{fill:#6E3720;}
	.st1{fill:#FB9A7A;}
</style>
<g>
	<path class="st0" d="M530.4,236.5c-0.3,16.4-1.9,31.8-5.3,46.9c-0.6,2.6,0.3,3.8,1.5,5.4c9.1,12.4,11.2,22.2,0.3,36.2
		c-2.2,2.9-2.6,5.3-0.7,8.9c6,11.4,7.7,23.9,9.2,36.6c1.6,14.1-0.5,27.7-3.2,41.3c-2.8,14-10.3,25.6-19.1,36.6
		c-6.2,7.7-13.5,14.4-21,20.6c-8.2,6.7-17.7,11.6-27.7,15.3c-11.5,4.2-23.1,7.6-35.5,8c-8,0.2-15.9,1.9-24,1.7
		c-10-0.3-19.9-2.2-27.9-8c-7.6-5.5-12-12.8-5.9-25.6c4.7-9.9,11.7-17.9,20.8-23.9c16.2-10.7,23.7-26.3,26.3-44.8
		c2.9-20.7-4.2-38.4-17.2-54c-12.7-15.1-24-31.2-33-48.7c-6.4-12.4-10-25.6-11.2-39.5c-1.2-13.4,4.9-24.3,12.8-34.4
		c8.7-11.2,20.3-18.7,32.3-25.7c13.3-7.8,27.9-12.4,43.2-14.7c8.4-1.3,16.9-2.6,25.4-1.8c12.3,1.2,24.9,1.6,36.2,7.1
		c11.1,5.4,18.1,14.4,21,26.7C529.7,216.8,529.9,227.1,530.4,236.5z"/>
	<path class="st1" d="M445.4,350.3c5.2-2.2,9.4-5.5,14.2-7.7c10.3-4.7,21.3-4.6,32.1-5.6c6.7-0.6,13.4-1.4,19.9-3
		c2.5-0.6,3.7-0.1,4.7,2.2c4.3,10.1,7,20.6,8,31.5c0.3,3.7,1.1,7.3,1.2,11c0.5,22.2-4.4,42.6-18.6,60.3
		c-13.1,16.2-28.4,28.9-48.1,36.6c-16.9,6.6-34.4,8.9-52.2,9.5c-7,0.3-13.9-1.5-20.4-4.6c-10.4-4.9-10.1-11.9-3.7-20.7
		c4.9-6.7,11.3-11.8,18.2-16.3c11.2-7.4,17-18.7,22.1-30.5c4-9.4,5.7-19.4,5.9-29.5c0.4-16.8-5.5-31.8-15.5-45.1
		c-7-9.4-14.9-18.1-21.6-27.7c-12.5-18-23.4-37-27-58.9c-1.4-8.8,2.1-17,6.5-24.7c10-17.5,27.1-26,44-34.6c10.3-5.3,21.5-8.2,33-9.6
		c17.2-2.2,34.6-2.3,51,3.9c10.7,4,17.8,12.2,19.5,24.3c1.4,10,2.9,20.1,2.9,30.2c-0.1,15-1.5,29.9-5.2,44.4c-0.6,2.6-0.2,4.4,1,6.3
		c1.3,2,2.7,4,4,6c5.3,7.8,3.5,16.6-4.3,22.2c-5,3.6-10.6,5.2-16.5,5.9c-11.8,1.4-23.8,1.4-35.4,4
		C455.9,332.2,446.2,340.4,445.4,350.3z"/>
</g>
</svg>
