<?xml version="1.0" encoding="utf-8"?>
<!-- Generator: Adobe Illustrator 23.0.1, SVG Export Plug-In . SVG Version: 6.00 Build 0)  -->
<svg version="1.1" id="Layer_4" xmlns="http://www.w3.org/2000/svg" xmlns:xlink="http://www.w3.org/1999/xlink" x="0px" y="0px"
	 viewBox="0 0 1000 1000" style="enable-background:new 0 0 1000 1000;" xml:space="preserve">
<style type="text/css">
	.st0{fill:#6E3720;}
	.st1{fill:#FB9A7A;}
</style>
<g>
	<path class="st0" d="M464.4,172.9c11.4-0.2,22.8-0.1,33.7,3.9c11.8,4.4,19.4,13.4,23.2,25c5.1,15.3,6.5,31.3,5.9,47.3
		c-0.4,10.2-0.9,20.5-3.5,30.4c-0.8,3.2,1,5.1,2.5,6.7c10.4,11.1,7.7,23.4,1.1,35.5c-1.3,2.3-1.8,3.9-0.5,6.4
		c7.7,14.5,10.2,30.2,9.3,46.3c-1.2,20-9.2,37.5-21.1,53.6c-16.4,22.3-39,35.8-64.2,45.1c-7.9,2.9-16.6,4.3-25.3,4.4
		c-5.6,0.1-11.2,1.2-16.9,1.1c-18.6-0.2-35.7-5.8-51.5-15c-5.8-3.4-11-8.1-14.1-14.2c-3.1-6-0.4-11.7,2.5-17.1
		c4.2-7.8,10.9-12.6,18.7-16.4c13-6.3,26-12.8,36.3-23.2c4.8-4.8,9.2-10.1,12.4-16.3c5.7-11.1,4-22.2-4.7-31.1
		c-8.1-8.4-16.7-16.3-24.2-25.2c-7.9-9.4-14.1-19.9-20.5-30.3c-7.2-11.5-11.3-24-12.8-37.3c-1-8.4,1.9-16.3,5.2-24
		c6.1-13.8,17-23.3,28.9-31.8c12.8-9.2,26.3-16.9,41.9-20.4C439.1,173.5,451.7,172.6,464.4,172.9z"/>
	<path class="st1" d="M447.4,351.3c5.2-3.3,10.2-6.2,14.9-9.5c5.8-3.9,12.2-5.3,19-5.9c10.2-0.9,20.5-1.5,30.3-5
		c3.2-1.2,4.6-0.2,6.1,2.5c7.4,13.4,9.8,27.1,7.2,42.6c-2.7,15.9-8.2,29.9-17.9,42.4c-7.4,9.5-15.6,18.5-25.3,25.9
		c-14.8,11.3-31.3,18.7-49.5,22.2c-21.4,4.1-42.2,2.7-61.9-7.4c-5.3-2.7-10.8-4.9-15.1-9.4c-5.6-5.8-4.2-8.6,0.5-15.7
		c1.6-2.4,4.1-4,6.7-5.4c9.8-5.1,20.2-9.3,29.6-15.3c14.8-9.5,26.1-22.1,32.6-38.4c4.4-11,2.3-22.1-5.3-31.1
		c-9-10.6-19.4-20-28.3-30.7c-10.3-12.4-18.3-26.3-24.9-41.1c-3-6.8-5.5-13.7-5.8-21.2c-0.4-11.5,5.2-20.6,12-29.1
		c8.1-10.1,19.1-16.5,29.6-23.5c12.8-8.5,26.8-13.2,42.1-14.9c10.5-1.2,20.9-2,31.4-1.8c13.3,0.3,24.9,4,32.9,15.7
		c3.6,5.2,5.1,11.1,6,17c2.1,12.4,3.9,24.9,3,37.5c-0.6,9.9-0.8,20-3.3,29.7c-1.4,5.6,2.3,8.1,4.5,11.5c7.6,11.8,2.2,25.7-11.6,29.3
		c-11.7,3-23.7,4.1-35.5,5.7C459.7,329.7,448.3,340,447.4,351.3z"/>
</g>
</svg>
