<?xml version="1.0" encoding="utf-8"?>
<!-- Generator: Adobe Illustrator 23.0.1, SVG Export Plug-In . SVG Version: 6.00 Build 0)  -->
<svg version="1.1" id="Layer_4" xmlns="http://www.w3.org/2000/svg" xmlns:xlink="http://www.w3.org/1999/xlink" x="0px" y="0px"
	 viewBox="0 0 1000 1000" style="enable-background:new 0 0 1000 1000;" xml:space="preserve">
<style type="text/css">
	.st0{fill:#6E3720;}
	.st1{fill:#FB9A7A;}
	.st2{fill:#730000;}
</style>
<g>
	<path class="st0" d="M644.6,535.1c1.5,12.3-9,19.1-19.3,22.6c-11.4,3.9-21.5-0.2-31.5-4.5c-5.8-2.5-11.3-5.8-16.8-8.9
		c-2-1.1-3.6-1-5.6,0c-10.5,5.2-20.9,10.8-32.5,12.8c-14.1,2.5-28.1,3.5-42.5,0.8c-11.7-2.1-22.4-6.2-32.6-12
		c-10.7-6.1-18.5-15-25.2-25c-10.9-16.3-18-34.3-23.9-52.9c-6.6-20.9-13-41.9-17.8-63.3c-2.5-11-3.5-22.3-4.6-33.6
		c-1.1-11,0.8-21.2,5.2-30.9c6.8-15,19.2-24,34.1-30.1c15.2-6.2,31-10,47.4-9.2c21.4,1.1,42.6,4.9,62,14.6
		c11.5,5.8,22,13.5,28.2,25.6c4.1,8,3.4,16.3,1.8,24.7c-3.9,20.2-12.1,38.8-21.2,57.1c-1.6,3.2-3.2,6.6-5.4,9.5
		c-2.4,3.2-0.8,6.1-0.2,9.1c0.3,1.7,1.6,1.5,3.3,1c6.4-1.7,12.9-3.7,19.5-4c8.9-0.4,17.9,0.8,26.3,4c10.9,4.1,19.8,10.9,27.4,20
		c12.4,15,17.1,32.9,21,51.2C643,520.7,644.7,527.5,644.6,535.1z"/>
	<path class="st1" d="M493.1,475.7c-1.5,2.3-2.8,4.7-5,6.4c0.3,0.3,0.5,0.7,0.8,1c3.4-2.4,6.9-4.8,10.3-7.2
		c15.8-11.6,33.1-20.5,52.4-24.3c13.7-2.7,27.8-2.8,40.4,4.7c12.4,7.4,20.8,18.6,26.1,32c4.5,11.5,8.4,23.2,11.2,35.2
		c1.2,5.2,2.7,10.5,0.7,16.1c-2.8,7.8-8.5,10.9-16.6,9c-4.6-1.1-8.7-3-12.9-5c-9.8-4.7-19.1-10.8-29.8-13.4
		c-11.1-2.7-20.1,2.7-30.4,8.3c6.5,1.9,11.5-1.3,16.8,0.1c-7.3,5.2-15,8.6-23.6,10.5c-20,4.4-38.5,0.2-56.4-8.7
		c-9.5-4.7-16.1-12.7-22.8-20.4c-19.7-22.5-26.3-50.9-35.3-78.2c-5-15.2-10.5-30.3-13.9-45.9c-2.9-13.7-5.5-27.6-2.5-41.6
		c3.2-14.8,12.6-25.3,25.7-32.5c12.4-6.8,26-9.4,40-11.1c22.2-2.7,42.4,4.5,62.9,10.8c8.2,2.5,15.5,6.4,21.5,12.4
		c8.1,8,12.4,17.5,10,29.6c-5.1,25.6-15.2,49.2-27.5,72c-1.1,2.1-1.2,4.1-0.5,6c1.3,3.2,0.1,4.4-3,5.6c-9.7,3.9-19.3,8.2-26.4,16.4
		c-1.8,2-3.2,1.4-5,0.5c-7.5-3.8-15-7.2-22.7-10.6c-13.4-5.9-24.8-1.7-31.1,10c1.6,1.8,3.6,1,5.4,0.9c14.2-1,26.9,4.1,39.5,9.7
		C492.3,473.9,492.9,474.6,493.1,475.7z"/>
	<path class="st2" d="M493.1,475.7c-11.7-5.5-23.6-10.1-36.7-10.8c-1.9-0.1-3.7-0.2-5.7,0.6c-1.9,0.8-4.3,0.7-4.2-2.6
		c11.1-5.7,21.8-4.2,32.3,1.9c4.5,2.6,9.2,4.8,13.9,7C495,473,495,474.2,493.1,475.7z"/>
</g>
</svg>
