<?xml version="1.0" encoding="utf-8"?>
<!-- Generator: Adobe Illustrator 23.0.1, SVG Export Plug-In . SVG Version: 6.00 Build 0)  -->
<svg version="1.1" id="Layer_4" xmlns="http://www.w3.org/2000/svg" xmlns:xlink="http://www.w3.org/1999/xlink" x="0px" y="0px"
	 viewBox="0 0 1000 1000" style="enable-background:new 0 0 1000 1000;" xml:space="preserve">
<style type="text/css">
	.st0{fill:#6E3720;}
	.st1{fill:#FB9A7A;}
</style>
<g>
	<path class="st0" d="M492.3,224.6c25.8,0,46.9,7,67.1,17.8c12.1,6.5,24,13.3,33.6,23.1c6,6.1,11.4,12.8,14.4,21.1
		c5.4,14.6,3,28.3-5.2,40.9c-8.3,12.7-18.2,24.3-28.4,35.5c-4.6,5.1-10.3,9.2-15.5,13.7c-2.4,2.1-3.6,4.3-3.8,7.8
		c-0.6,9.5-2.4,18.9-12.3,23.6c-2.4,1.1-5.1,1.6-7.7,2c-1.6,0.2-2.6,0.5-2.2,2.3c2.2,10.8,1.9,21.9,3.8,32.8
		c0.2,1.1,0.1,2.3,0.1,3.4c0.1,18.5,0.3,37-1.1,55.4c-0.8,10.8-2.7,21.5-3.7,32.3c-0.7,7.4,0.1,14.8,1.3,22.1c1,6,1,11.9-0.9,17.6
		c-2.8,8.4-10.7,10.3-19,8.5c-11.6-2.6-20.1-10.6-27.1-19.5c-16.2-20.4-29.5-42.8-40.3-66.4c-8.8-19.2-15.9-39.1-18.8-60.4
		c-1.3-9.6-2.7-19.3-1.5-28.8c1.5-12.6,2.2-25.1,1.6-37.7c-0.7-13.6-1-27.2-0.8-40.8c0.3-20.3,1.8-40.6,6.9-60.3
		c5.3-20.1,17.7-34.3,37.4-42C478.1,225.3,486.5,225.1,492.3,224.6z"/>
	<path class="st1" d="M478.9,393.3c8.4,0.7,15.6,2.4,22,8.1c4.3,3.8,9.4,7.3,15.6,8.2c4.2,0.6,5.7,3.6,5.9,7.1
		c0.5,9.8,2.4,19.4,3.2,29.2c0.9,11.3,2.4,22.6,1.6,33.8c-0.9,13.3-1.6,26.6-3.5,39.9c-1.4,10-2,20.2-0.6,30.4
		c0.8,5.7,1.4,11.6,1.2,17.4c-0.2,6.9-3,8.6-9.6,6.9C502,571,494,561.7,486.5,552c-14.5-18.6-25.7-39.3-35-60.8
		c-7.5-17.3-13.3-35.3-16.1-54.2c-2.2-14.8-1.1-29.4-0.2-44.3c1-16.1,0.9-32.4-0.3-48.7c-0.8-10.3-0.8-20.7,0.4-31.1
		c0.9-7.5,0.8-15.1,2.2-22.6c2.3-12.8,5-25.5,12.7-36.4c7.8-11.1,18.1-18.3,32-19.8c18.4-1.9,36.1,1.4,53.1,8
		c19.9,7.8,38,18.9,53.9,33.1c7,6.3,11,14.7,12.1,24c1,8.2-3.6,15.2-7.4,22c-7.6,13.6-18.1,25-28.1,36.6
		c-4.9,5.7-11.2,10.2-17.1,14.9c-3,2.4-3.8,4.4-3.3,8.5c1.7,13-9.4,22.4-21.6,20.5c-6.9-1.1-12.7-4.9-18.3-9.1
		c-2.3-1.7-4.8-3.2-7.4-4.5C490.6,384.4,484.7,385.9,478.9,393.3z"/>
</g>
</svg>
