<?xml version="1.0" encoding="utf-8"?>
<!-- Generator: Adobe Illustrator 23.0.1, SVG Export Plug-In . SVG Version: 6.00 Build 0)  -->
<svg version="1.1" id="Layer_4" xmlns="http://www.w3.org/2000/svg" xmlns:xlink="http://www.w3.org/1999/xlink" x="0px" y="0px"
	 viewBox="0 0 1000 1000" style="enable-background:new 0 0 1000 1000;" xml:space="preserve">
<style type="text/css">
	.st0{fill:#6E3720;}
	.st1{fill:#FB9A7A;}
</style>
<g>
	<path class="st0" d="M610,572.3c-17-0.3-33.8-1.8-50.6-4.8c-27.2-4.8-53.3-12.9-78.7-23.8c-12.3-5.3-24-11.7-34.6-19.6
		c-7.6-5.7-12.7-14.2-16.4-23.2c-3-7.3-4-15.1-3.9-22.9c0.2-10.5-1.9-20.6-5.2-30.4c-5.3-15.5-8.4-31.5-11.3-47.5
		c-2.3-12.8-3.6-25.9-2.8-38.8c0.8-13.1,0.9-26.4,5.1-39.2c6.7-20.3,21-31.8,40.8-36.7c12.9-3.2,26.4-4.2,39.8-3
		c25.6,2.2,48.8,11.7,69.8,26.3c10,6.9,18,15.2,23.2,26.6c5.1,11.2,3.3,21.3-1.5,31.4c-6.9,14.6-15,28.6-24,42
		c-4.1,6.2-9.7,11-14.3,16.8c-1.8,2.2-2.7,3.7-1.7,6.7c1,2.8,1.1,6,1,9c-0.1,2.1,1.4,2.5,2.5,3c13.4,6,25.5,14,37.2,22.8
		c0.6,0.5,1.2,1.1,1.8,1.6c18.3,17.3,36.4,34.8,53.8,53c7.4,7.8,15.8,15.1,19.1,26c2.1,7-0.3,14.1-6.6,17.7
		c-6.6,3.7-13.8,5.5-21.3,5.9C624.1,571.7,617.1,572.9,610,572.3z"/>
	<path class="st1" d="M446.9,439.5c3.4,0,6.8,0.2,10.1,0c15.1-0.9,29.2,3.3,43.1,8.8c7.7,3.1,15.3,6.6,23.5,8.3
		c5.5,1.1,11.3,1.4,15.8-3.2c1.2-1.2,2.3-1.2,3.9-0.5c9.7,4.5,18.8,9.9,26.7,17.1c11.6,10.6,23,21.4,34.4,32.2
		c12.2,11.4,23.8,23.5,35.8,35.2c3.1,3,5.5,6.7,7.6,10.5c2.7,5,1.6,7.6-3.3,10.6c-3.9,2.4-8.3,2.5-12.5,3.1
		c-12.8,1.7-25.7,1.3-38.5-0.6c-6.8-1-13.8-1.3-20.6-2c-11.7-1.2-23-4.2-34.2-7.2c-22-5.9-43.5-13.4-64-23.4
		c-6.6-3.2-13.2-6.9-18.8-11.6c-13.3-11.3-18.4-26.6-19.4-43.7c-0.5-9-2.9-17.7-5.8-26.2c-5.1-14.9-8.3-30.1-10.9-45.6
		c-2.7-16.5-4.3-33-3.6-49.6c0.4-9.9,1-20,4.7-29.3c6.2-15.5,18-25.8,34.2-29c23.2-4.6,46.4-3.1,68.8,5.6
		c15.6,6.1,30.5,13.8,43.2,24.8c12.3,10.6,15.3,23.5,8.3,39.1c-7.8,17.5-17.3,34.1-29,49.3c-2.1,2.7-4.3,5.5-6.8,7.5
		c-5.2,4.3-5.6,8.8-3.7,14.7c1.3,4,0.4,8.3-2.7,11.3c-3.2,3-7.1,3.2-11.1,1c-2.1-1.1-4.5-1.6-6.8-2.4c-11.6-4.1-23.1-8.6-34.9-12
		c-10.8-3.1-21.7-2.4-31.4,4.4c-0.7,0.5-1.2,1-1.8,1.6C447,438.4,447.1,438.8,446.9,439.5z"/>
</g>
</svg>
