<?xml version="1.0" encoding="utf-8"?>
<!-- Generator: Adobe Illustrator 23.0.1, SVG Export Plug-In . SVG Version: 6.00 Build 0)  -->
<svg version="1.1" id="Layer_4" xmlns="http://www.w3.org/2000/svg" xmlns:xlink="http://www.w3.org/1999/xlink" x="0px" y="0px"
	 viewBox="0 0 1000 1000" style="enable-background:new 0 0 1000 1000;" xml:space="preserve">
<style type="text/css">
	.st0{fill:#6E3720;}
	.st1{fill:#FB9A7A;}
</style>
<g>
	<path class="st0" d="M568,443.8c11.6-0.5,22.9-3.2,34.8-1.8c13.6,1.7,25.8,5.9,36.7,14c6.4,4.7,10.8,11.3,15.7,17.4
		c9.9,12.2,14.6,26.8,19.1,41.4c2.3,7.4,3.2,15.5-2.8,21.7c-5.9,6.2-13.3,10.7-21.8,13.1c-13.2,3.8-26.3,1.3-39.3-1.4
		c-5.6-1.1-11-2.9-16.5-4.3c-2.9-0.7-5.6,0.7-8.4,1.5c-11.2,3.1-22,7.8-33.7,9.4c-6.5,0.9-12.9,2-19.4,2.6c-7.7,0.6-15.4,1.5-23.2,1
		c-23.4-1.5-45.9-5.6-65.7-19.4c-11.1-7.7-18.2-18-22.7-30.4c-3.7-10-5.7-20.3-6.2-31.2c-0.5-9.4,0.1-18.8-0.8-28.1
		c-1.8-17.7-1.1-35.4-0.7-53c0.4-16.2,3.4-32.1,10.5-47c5.1-10.9,13.5-18.2,23.7-24c8.2-4.6,17.2-6.1,26.4-7.2
		c30.1-3.6,56.5,6.6,82,21c6.1,3.4,12.5,6.7,17.4,11.5c11.2,10.8,23.2,21.9,23.2,39c0,12.2-5.8,22.9-12.7,32.7
		C578.6,429.8,573.2,436.8,568,443.8z"/>
	<path class="st1" d="M496.7,478.2c-8.1-5.7-14.5-13.5-23.4-17.9c-8.2-4.1-16.6-4.6-25-0.4c-1.1,0.5-1.9,1.2-2.5,2.5
		c7,1.3,14.2,1.3,20.6,5.1c7.6,4.7,14,10.7,20.9,16.2c2,1.6,1.4,2.7,0.1,4.3c-3,3.9-5.9,7.9-9.2,12.4c4.1-0.3,6.1-3.5,8.4-5.4
		c18.2-15.5,39-26.7,60.9-35.6c13.2-5.3,27.5-8.1,42-7.2c11.4,0.7,21.6,5,31.1,11.5c18.3,12.4,27.3,31.2,36,50.3
		c2.2,4.9,4.4,10.9,1.4,16.8c-3.2,6.4-9.2,8.5-15.5,10.3c-9.6,2.6-18.3-1.1-27.3-3.5c-10.2-2.7-20.5-5.5-31-6.1
		c-11-0.6-21.8,2.3-29.9,9.9c-6.6,6.2-14,6.8-22.1,7.7c-9.2,1.1-18.3,0.8-27.5-0.2c-15.5-1.6-30.2-5.5-43.8-13.2
		c-9-5.1-17.3-11.1-23-20c-6.1-9.6-10-20-11.2-31.4c-1.9-17.4-2-34.8-3.1-52.2c-1.4-22.2-0.3-44.1,4.2-65.8
		c2-9.8,6.3-18.7,13.5-25.6c7.2-6.9,16.5-10.4,26.2-12.4c24.7-5.2,47.8,1.5,69.9,11.6c14.1,6.5,27.7,14.5,38.3,26.4
		c6.5,7.2,11.5,15.1,11.2,25.3c-0.2,7.2-3.6,13.4-7.2,19.2c-7.5,11.9-14.5,24.2-23.7,35.1c-3.2,3.8-7.9,3.7-11.8,5.3
		c-11.4,4.6-23.2,8.4-33.4,15.8C505.9,470.4,501.3,474.4,496.7,478.2z"/>
</g>
</svg>
