<?xml version="1.0" encoding="utf-8"?>
<!-- Generator: Adobe Illustrator 23.0.1, SVG Export Plug-In . SVG Version: 6.00 Build 0)  -->
<svg version="1.1" id="Layer_4" xmlns="http://www.w3.org/2000/svg" xmlns:xlink="http://www.w3.org/1999/xlink" x="0px" y="0px"
	 viewBox="0 0 1000 1000" style="enable-background:new 0 0 1000 1000;" xml:space="preserve">
<style type="text/css">
	.st0{fill:#6E3720;}
	.st1{fill:#FB9A7A;}
	.st2{fill:#730000;}
</style>
<g>
	<path class="st0" d="M618.2,534.9c0.2,5.2,0.3,11.9-4.7,17.1c-8.9,9.3-20,9.8-31.3,3.2c-5.7-3.3-11-7.7-16-12
		c-2.4-2.1-3.8-2.1-6-0.4c-7.6,5.7-15.7,10.9-24.8,13.8c-21.6,7-42.4,4.9-61.3-8.1c-7.6-5.2-14.1-12-18.1-20.6
		c-10.5-22.4-24.1-43.1-37.4-63.9c-11.7-18.3-21.7-37.4-28.9-58c-4.5-12.8-6.4-26.1-8-39.5c-1.1-9.5,0.3-18.2,3.7-26.9
		c3.6-9.3,10.5-16,17.9-22.1c13.5-11.1,29.9-16.3,46.5-20.1c10.8-2.5,22-3.2,33.4-1.7c9.3,1.2,18.8,1.3,28.1,3.3
		c17.1,3.6,32.2,10.9,42.8,25.3c5.9,7.9,5.1,17.4,4.3,26.5c-0.8,8.5-1.9,17-3.6,25.5c-2.1,10.6-4.7,20.9-9.2,30.8
		c-2,4.3-3.7,8.7-5.6,13c-0.5,1.1-0.5,1.7,0.3,2.8c1.4,1.9,2.9,4.1,3.2,6.3c0.9,5.7,5.1,5.2,8.6,4.4c8.4-1.9,16.2,0.1,23.6,3.1
		c20,8.2,30.5,24.4,35.5,44.8c3.3,13.3,5.4,26.8,6,40.6C617.5,525.7,618.1,529.6,618.2,534.9z"/>
	<path class="st1" d="M498,464c-0.9,1.6-1.8,3.3-3.3,6c6.3-4.5,11.4-8.7,17-12.2c13.4-8.4,27.8-14.3,43.8-14.3
		c16.4,0,28.3,8,36,22.4c8.2,15.2,12.4,31.5,14.2,48.5c0.7,6.6,2,13,1.9,19.7c-0.1,3.9-1.1,7.3-2.9,10.5c-2.4,4.2-6.7,5.7-11.4,4.3
		c-8.4-2.4-13.9-9-20.5-14c-6-4.6-11.5-9.7-19.5-10.9c-7.5-1.2-12.7,3.1-18.5,6.4c6.1,0.6,11.9,1,18,3.2c-9.1,8-18.7,14-30.7,16.2
		c-16.7,3-30.8-2.4-43.4-12.5c-6.5-5.2-10.6-12.8-14.8-20.1c-12.3-21.2-25-42.2-38.7-62.6c-14.5-21.6-24.8-45.3-32-70.2
		c-3.4-11.9-4.8-24.2-1.2-36.5c4.2-14.4,14.2-23.8,26.9-30.6c20.5-11,42.6-15.4,65.7-13.7c16.2,1.2,32.2,3.4,46.8,11.6
		c15.4,8.6,20.2,18,17.8,37c-2.1,16.8-5.4,33.1-11,49.1c-0.8,2.3-1.4,4.7-2.6,6.7c-4.8,8.1-5.8,16.2-1.3,24.7
		c1.5,2.7,1.4,4.1-2.4,4.8c-7.6,1.4-13.8,5.8-19.3,11.1c-1.8,1.7-3.1,2.2-5.9,1.6c-9.5-2.2-18.7-5.6-28.3-7.4
		c-13.8-2.6-23.1,2.3-26.2,17c0.6,0.6,0.8,1.3,1.1,2.1c1.6,5.7,4.4,7.6,10.3,6.7c5-0.8,9.8-2,14.6-3.5c5-1.6,10.2-1.8,15.3-2.6
		C495.1,462.5,496.8,462.5,498,464z"/>
	<path class="st2" d="M498,464c-10-0.5-19.4,2.9-28.9,5.1c-2.6,0.6-5.4,1.8-7.9,1.5c-6-0.9-10.1-2-8.8-10.6c2.2-1.4,4.4-2.8,6.4-4.3
		c8.5-6.1,17.1-2.4,25.6-0.4c4.4,1,8.6,2.9,12.9,4.3C500.6,460.6,500.9,462,498,464z"/>
</g>
</svg>
