<?xml version="1.0" encoding="utf-8"?>
<!-- Generator: Adobe Illustrator 23.0.1, SVG Export Plug-In . SVG Version: 6.00 Build 0)  -->
<svg version="1.1" id="Layer_4" xmlns="http://www.w3.org/2000/svg" xmlns:xlink="http://www.w3.org/1999/xlink" x="0px" y="0px"
	 viewBox="0 0 1000 1000" style="enable-background:new 0 0 1000 1000;" xml:space="preserve">
<style type="text/css">
	.st0{fill:#6E3720;}
	.st1{fill:#FB9A7A;}
</style>
<g>
	<path class="st0" d="M491.4,179.5c15.7,0.6,30.7,4.7,45.4,10.7c16.9,6.9,33.4,14.2,45.7,28.5c7.1,8.3,13.2,17.3,13.1,28.8
		c0,7.5-2.7,14.5-5.8,21.3c-8.5,18.7-20,35.5-34.3,50.2c-4.2,4.3-6.3,8.4-4,15c2.2,6.5-2.5,16.9-8.5,20.4c-3.3,1.9-3.4,3.6-2.4,7.2
		c4.9,17,11.8,33.3,17.4,50c8.6,25.8,15.4,52,22,78.3c1.3,5.4,2.3,10.9,2.9,16.4c1,8.9-0.8,17.5-6.2,24.9c-2.8,3.8-9.7,5.8-14.8,4.6
		c-8.9-2.2-16.6-6.8-24.2-11.6c-14.6-9.1-27.3-20.5-40-31.9c-16.6-15-30-32.6-42.8-50.7c-12.1-17.1-20.7-35.8-24.7-56.4
		c-2-10.1-2.6-20.5-4.2-30.8c-1.9-12.1-4-24.1-6.4-36.1c-2.2-11-3.5-22-4.4-33.1c-1-11.7-2.6-23.4-1.8-35.2
		c1-13.1,1.3-26.3,8.6-38.2c10-16.2,23.3-26.8,42.7-29.3C473.4,181.3,482.3,180,491.4,179.5z"/>
	<path class="st1" d="M449.5,342.7c2.3,0,4.2,0.4,6-0.1c9.6-2.3,18.5-0.1,27.1,3.7c5.3,2.3,10.7,4.5,15.7,7.3
		c8.8,4.8,18.1,7.4,28,7.6c2.9,0.1,3.5,1.9,4.2,3.8c5.4,14,10.9,28,16.2,42.1c10.2,27.3,17.5,55.5,24.7,83.7
		c1.7,6.6,2.8,13.5,3.6,20.3c0.7,6.1-3.5,15.6-10,16.9c-4.6,0.9-8.6-1.2-12.3-3.2c-10.1-5.6-19.7-11.9-28.5-19.5
		c-6.2-5.3-13.1-9.9-19-15.5c-5.7-5.4-10.8-11.6-15.9-17.6c-8.1-9.6-16.3-19-23.5-29.3c-12.5-17.6-21.6-36.5-25.5-58
		c-4.9-26.8-7.9-53.9-12.7-80.6c-2.1-11.4-2.9-22.9-4-34.4c-0.7-8-2-16.1-1.6-24.1c0.6-11.9,2.8-23.5,9.8-33.7
		c7.7-11.3,17.9-18.5,31.6-20.6c7.8-1.2,15.6-2.7,23.4-2.9c16.7-0.3,32.6,3.8,48,10.4c13.5,5.8,26.7,12.2,37.7,22
		c7,6.3,13,14.1,14.2,23.9c0.7,5.8-2,11.6-4.4,17c-7.5,17.3-17.9,33-28.9,48.2c-2.8,3.9-6.2,7.5-9.7,10.8c-2.7,2.5-3.3,5.3-2.4,8.3
		c4.6,15.6-8.3,24-21.7,21.8c-13-2.2-23.4-9.5-35.1-14.2c-14.7-5.9-20.9-4.9-34,4.3C450.1,341.3,450,341.9,449.5,342.7z"/>
</g>
</svg>
