<?xml version="1.0" encoding="utf-8"?>
<!-- Generator: Adobe Illustrator 23.0.1, SVG Export Plug-In . SVG Version: 6.00 Build 0)  -->
<svg version="1.1" id="Layer_4" xmlns="http://www.w3.org/2000/svg" xmlns:xlink="http://www.w3.org/1999/xlink" x="0px" y="0px"
	 viewBox="0 0 1000 1000" style="enable-background:new 0 0 1000 1000;" xml:space="preserve">
<style type="text/css">
	.st0{fill:#6E3720;}
	.st1{fill:#FB9A7A;}
</style>
<g>
	<path class="st0" d="M473,172.7c14.6,1.4,29.4,0.6,43.5,5.9c11.4,4.3,21.5,10.4,28.6,20.5c5.1,7.1,5.7,15.8,4.4,24
		c-1,6.4-0.9,12.8-1.4,19.2c-1.4,15.6-5,30.6-11,45c-1.5,3.7-3.8,7.1-0.7,11.3c8.4,11.5,6.3,22.2-3.1,32c-1.5,1.6-1.7,2.7-1.1,4.9
		c2.2,8.6,5.2,16.9,6.2,25.8c1.2,11,2.1,21.9,1,33.1c-1.4,13.8-3.7,27.3-9,40.2c-5.5,13.5-12.7,25.8-22.3,36.9
		c-7.5,8.6-15.9,16-25,22.3c-12,8.5-25.4,14.5-40.2,17.2c-9.8,1.7-19.6,3.3-29.6,2.7c-7.5-0.5-14.7-2.2-19.7-8.8
		c-6.2-8.2-3.7-16.6-0.6-24.8c3.1-8.5,9.2-15.1,14.5-22.2c8.7-11.8,14-25.1,17.4-39.1c2.5-10.5,3.5-21.2,3-32
		c-0.8-19.7-7.1-37.5-18.2-53.8c-13-19.2-23-40.1-31.1-61.8c-3.2-8.6-3.4-18.4-4.7-27.7c-1.5-10.4,0.4-19.9,5.7-28.2
		c6.2-9.7,14.1-18.1,24.5-24c14.4-8.3,29.4-14.6,46.1-16.4C457.7,173.9,465.3,172.6,473,172.7z"/>
	<path class="st1" d="M446.2,346c10.4-3.9,20.2-6.2,30.1-7.9c1.9-0.3,3.9-0.1,5.8,0.1c12.2,1.6,24.4,4,36.8,0.9
		c3.4-0.9,3.8,1.8,4.5,3.8c2.4,7.1,4,14.5,4.9,22c0.7,5.7,2.4,11.4,2,17.2c-1.8,25.3-7.2,49.4-21.4,70.9
		c-11.9,18-27.6,31.8-46.8,41.4c-11,5.5-22.6,8.8-35,9.6c-5.3,0.3-10.4,1-15.8-0.1c-10.9-2.1-14.5-8.8-9.9-18.9
		c3.1-6.8,8-12.4,12.2-18.4c10.7-15.6,19.3-32.1,21.1-51.4c0.7-7.7,1.8-15.3,1.9-23.1c0.4-23.2-6.2-44-19.1-63.4
		c-12.4-18.6-23.1-38.3-29.8-59.7c-4.1-13.2-6.6-27-3.7-40.8c2.1-10.3,8.6-18.6,16.9-24.7c11.6-8.6,24.3-15.4,38.8-18.2
		c15.7-3,31.4-4.5,47.5-3c12,1.1,23.5,2.7,34.4,8.1c17.4,8.6,20.1,19.4,17.9,38.5c-0.8,7.5-1.2,15.1-2.4,22.5
		c-2,13.6-3.6,27.4-10.4,39.7c-1.2,2.2-1.4,4-0.2,6.3c2.4,4.4,3.5,9.3,4.6,14.1c1.4,6.2-6.2,15.1-13.8,17.6
		c-8.3,2.8-16.4,1-24.7,0.4c-8.9-0.7-18-3.1-26.9-0.3C457.1,331.9,450.6,337.1,446.2,346z"/>
</g>
</svg>
