<?xml version="1.0" encoding="utf-8"?>
<!-- Generator: Adobe Illustrator 23.0.1, SVG Export Plug-In . SVG Version: 6.00 Build 0)  -->
<svg version="1.1" id="Layer_4" xmlns="http://www.w3.org/2000/svg" xmlns:xlink="http://www.w3.org/1999/xlink" x="0px" y="0px"
	 viewBox="0 0 1000 1000" style="enable-background:new 0 0 1000 1000;" xml:space="preserve">
<style type="text/css">
	.st0{fill:#6E3720;}
	.st1{fill:#FB9A7A;}
</style>
<g>
	<path class="st0" d="M503.9,213.8c9.9,0.8,19.7,3,29.6,5.5c20.3,5.1,36.5,17.2,52.6,29.5c12.3,9.4,21.4,21.4,28.4,35.1
		c7.2,14.2,6.1,27.3-4,39.9c-8.3,10.3-17.1,20.2-26.6,29.3c-6.4,6.2-13.2,12.3-20.9,16.7c-5.2,3-7.8,6.6-8.2,12.3
		c-0.7,10.6-6.2,16.9-16.9,18.5c-1.2,0.2-2.6,0.6-2.1,3.5c2.1,12.8,8.2,24.2,12.5,36.2c6.5,18.1,13.7,35.9,19.9,54.1
		c4.2,12.3,10.2,23.8,15.3,35.7c6.4,15.1-2.1,28.6-14.2,32c-5.5,1.6-11,0.1-16.2-0.8c-19.8-3.4-37.5-12.2-54.2-23
		c-19.5-12.6-33.5-30.5-45.8-49.9c-6.4-10.2-12.9-20.3-16.7-31.8c-3.5-10.6-5.4-21.4-6.9-32.5c-1.3-9.7-1.1-19.4-0.7-29.1
		c0.8-17.1,1.2-34.2,2-51.3c0.9-19.5,2.3-39,5.8-58.2c3-16.1,8-31.6,16.4-45.7c7.2-12.2,19-18.5,31.8-22.8
		C490.8,214.9,497.2,213.9,503.9,213.8z"/>
	<path class="st1" d="M473.5,380.3c4.9,2.4,9.7,3,14.3,4.1c6.5,1.7,12.2,4.7,17.3,8.9c5.2,4.3,10.9,7.5,17.4,8.8
		c2.3,0.5,3,1.5,3.4,3.2c4.1,17.7,12,34.1,18.2,51c6,16.4,12.1,32.7,18.4,49c4,10.3,9.3,20,12.7,30.6c3.3,10.2-2.8,18-14.1,16.7
		c-14.4-1.7-28-6.4-41.1-12.7c-20-9.7-36-23.9-48.4-42.3c-8.1-12-17.2-23.2-23-36.6c-5.6-13-9.3-26.4-10.5-40.7
		c-0.9-11.5-0.9-23-0.6-34.5c0.5-20.2,1.4-40.4,2.9-60.5c1.4-19.3,3.6-38.7,9.7-57.2c5.9-17.8,13.8-34.4,33-42
		c7.7-3.1,15.7-4.1,23.7-3.3c7.8,0.8,15.5,2,23.1,4.1c13.8,3.9,25.9,10.8,37.1,19.5c5.5,4.2,11.2,8.1,16.5,12.5
		c9.7,7.9,16.4,18,22.7,28.5c6.2,10.3,4.2,20-2.7,29.5c-10,13.6-21.4,25.9-33.7,37.4c-4.8,4.5-10.3,8.3-15.8,11.7
		c-4.3,2.6-6.5,5.9-7.3,10.8c-2.1,14-15.2,20.4-28.1,14.6c-6.2-2.8-10-8.5-16.1-11.3C493.1,375.8,483.7,373.9,473.5,380.3z"/>
</g>
</svg>
