<?xml version="1.0" encoding="utf-8"?>
<!-- Generator: Adobe Illustrator 23.0.1, SVG Export Plug-In . SVG Version: 6.00 Build 0)  -->
<svg version="1.1" id="Layer_4" xmlns="http://www.w3.org/2000/svg" xmlns:xlink="http://www.w3.org/1999/xlink" x="0px" y="0px"
	 viewBox="0 0 1000 1000" style="enable-background:new 0 0 1000 1000;" xml:space="preserve">
<style type="text/css">
	.st0{fill:#6E3720;}
	.st1{fill:#FB9A7A;}
	.st2{fill:#730000;}
</style>
<g>
	<path class="st0" d="M475,297.7c22.7,1.3,45,3.9,65.1,15c9.1,5,17.2,11.6,22.5,21c3.3,5.9,3.3,12.4,2.6,18.7
		c-1.5,12.7-4.4,25.2-8.2,37.5c-3.7,12.2-8.9,23.6-14.6,34.9c-1.2,2.3,1,12.1,3,13.4c0.9,0.5,1.8-0.2,2.6-0.3
		c14-1.6,28-2.5,41.2,4.3c14.4,7.4,23.7,18.9,30,33.7c6.2,14.5,8.8,29.7,11.3,44.9c1.3,7.6,2.6,15.6,0.3,23.4
		c-1.7,5.8-5.4,9.8-10.6,12.4c-9,4.4-18.1,3.9-27.1-0.2c-7.5-3.4-14.7-7.5-21.3-12.4c-2.1-1.5-3.5-1.4-5.8-0.4
		c-10.2,4.7-19.6,11-30.8,13.5c-24.1,5.5-46.9,2.2-68.1-10.6c-9.8-5.9-15.8-15.7-21-25.6c-9.2-17.4-19.4-34.2-27.6-52
		c-9.6-20.9-19.2-41.9-26.1-64c-2.2-7-2.7-14.3-3.9-21.5c-0.9-5-1.1-10.2-1.7-15.2c-0.9-7.3,0.5-14.6,2.4-21.8
		c5.1-19.6,19-30.3,36.5-38C441.6,301.5,458.2,298.5,475,297.7z"/>
	<path class="st1" d="M495.1,469.8c-1.2,2.3-4.1,3.8-3.7,7.5c4.8-3.5,9.1-7.1,13.7-10.4c12.5-8.8,26.4-14.9,41.1-18.1
		c13.7-3,27.8-3,39.7,6c10.9,8.2,17.8,19.4,22.6,32.2c5.1,13.7,8.3,27.9,11.5,42.1c2.1,9.1-3.6,18.7-12.1,20.3
		c-5.5,1.1-10.2-1.8-14.8-4.7c-7.4-4.6-14.6-9.3-22.1-13.6c-10.9-6.3-22.5-5-33.5,3.6c6.3,0.9,12.6-0.8,18.5,1.7
		c-13.7,8.1-27.9,14.3-44,14.1c-14.9-0.2-27.5-6.8-39-15.7c-13.5-10.5-20.1-25.9-28.7-40c-14.5-23.6-24.5-49.4-35.2-74.8
		c-6.7-15.9-11.2-32.5-12.9-50c-1.3-12.8,0.4-24.3,7.5-34.9c6.5-9.8,16.4-15.4,26.9-19.7c15.4-6.3,31.6-9.9,48.4-8.9
		c19.4,1.1,38.6,4,56.3,12.7c11.4,5.6,19.1,14.6,21.3,27.4c1,5.9-1,11.9-2,17.7c-3.9,21-11.1,40.8-21.4,59.4c-1.6,2.9-1.6,5.3-0.2,8
		c0.4,0.7,0.8,1.4,1,2.2c2.2,6.7,2,7-4.9,9.3c-7.7,2.6-14.5,6.9-20.4,12.4c-2.8,2.6-5.2,2.3-8.3,1c-8.8-3.8-17.4-8-26.9-10.2
		c-7.8-1.8-23.4,4-24.1,15.3c5.5,4.6,12.1,5.2,18.8,5.3c7.5,0.2,15-0.3,22.4,1C492.2,468.5,493.8,468.5,495.1,469.8z"/>
	<path class="st2" d="M495.1,469.8c-12.1-1.9-24.4,0.1-36.5-2.1c-3.7-0.7-8.2-0.5-9.2-5.8c0.2,0,0.4,0,0.5-0.1
		c16.2-10.7,30.5-2.8,45.1,4.3C497.7,467.5,495.5,468.6,495.1,469.8z"/>
</g>
</svg>
