<?xml version="1.0" encoding="utf-8"?>
<!-- Generator: Adobe Illustrator 23.0.1, SVG Export Plug-In . SVG Version: 6.00 Build 0)  -->
<svg version="1.1" id="Layer_4" xmlns="http://www.w3.org/2000/svg" xmlns:xlink="http://www.w3.org/1999/xlink" x="0px" y="0px"
	 viewBox="0 0 1000 1000" style="enable-background:new 0 0 1000 1000;" xml:space="preserve">
<style type="text/css">
	.st0{fill:#6E3720;}
	.st1{fill:#FB9A7A;}
</style>
<g>
	<path class="st0" d="M466.4,175.9c9.1-0.9,18.3,0.3,27.2,2c8.2,1.5,14.6,6.8,20,13.2c8.3,9.8,10.5,21.7,11.8,33.9
		c0.9,8.1,2.3,16.3,1.8,24.5c-0.7,11.1-0.9,22.3-3.8,33.2c-0.7,2.8,1.1,4.8,2.6,6.4c10.6,11.2,7.7,23.6,1.2,35.5
		c-1.4,2.5-1.6,4.2-0.3,6.8c6.5,12.5,9.6,26,9,40c-0.7,19.2-6.2,36.9-16.7,53.3c-14.9,23.2-35.1,39.7-60.3,50.1
		c-10,4.1-20.7,6.5-31.7,7.7c-15.4,1.8-30.4,0.7-45.2-3.2c-9.7-2.6-19.3-6-27-13.3c-8.8-8.3-7.2-18.5-1.3-27.5
		c6.1-9.3,15.9-14.1,25-19.5c14.9-9,26.2-21,34.7-36c6.6-11.7,3.3-26.3-5.4-35.1c-9.8-9.9-20.3-19.1-28.4-30.5
		c-10.7-15.1-21.3-30.2-26.4-48.5c-5.6-20.4-0.9-37.9,13.4-53.1c16.6-17.7,36.4-30.3,60-36.5c6-1.6,12.2-2.3,18.4-2.7
		C452.1,176.3,459.2,175.3,466.4,175.9z"/>
	<path class="st1" d="M447.5,354c6.2-3.8,12.3-7.4,18.4-11.3c4.7-3,10-3.3,15.2-3.8c10.2-1.1,20.5-1.5,30.3-5
		c3.5-1.3,4.9-0.2,6.5,2.6c6.3,11.9,9.2,24,7.9,37.9c-1.5,16.5-7.5,30.8-16,44.3c-13.5,21.6-32.4,37.3-55.9,47
		c-10.1,4.1-21,6.7-32,8c-17.9,2.1-34.7-2.2-51.2-8.2c-3.9-1.4-7.6-3.8-10.1-7.2c-3.9-5.5-0.9-14.3,6-19.6
		c4.9-3.8,10.3-6.5,15.5-9.6c17.6-10.3,32.1-23.7,40.4-42.7c6.4-14.7,6.4-28.9-5.1-42.1c-7.4-8.6-15.9-16.1-23.3-24.7
		c-11.6-13.6-20.5-28.7-27.9-44.8c-3-6.5-5.3-13.1-5.7-20.2c-0.7-11.6,4.9-21,11.9-29.7c8.1-10.1,19.1-16.5,29.6-23.5
		c14.5-9.6,30.5-14.4,47.8-15.9c13.1-1.2,26.1-1.6,39,1.2c13.9,3,21.9,12.5,24.8,25.8c3.2,14.5,5.1,29.2,4.1,44.2
		c-0.7,9.3-1.2,18.7-3.2,27.7c-1.2,5.5,2.1,8.1,4.3,11.5c8,12.4,2.4,25.7-12.2,29.6c-11.5,3-23.3,4-35.1,5.6
		C459.5,332.6,447.7,343.5,447.5,354z"/>
</g>
</svg>
