<?xml version="1.0" encoding="utf-8"?>
<!-- Generator: Adobe Illustrator 23.0.1, SVG Export Plug-In . SVG Version: 6.00 Build 0)  -->
<svg version="1.1" id="Layer_4" xmlns="http://www.w3.org/2000/svg" xmlns:xlink="http://www.w3.org/1999/xlink" x="0px" y="0px"
	 viewBox="0 0 1000 1000" style="enable-background:new 0 0 1000 1000;" xml:space="preserve">
<style type="text/css">
	.st0{fill:#6E3720;}
	.st1{fill:#FB9A7A;}
</style>
<g>
	<path class="st0" d="M421.8,476.2c0.1-13.3,2.8-25.6,4.7-38.1c1-6.8,1.9-13.5,0.5-20.5c-1.2-6.1-0.7-12.5-0.9-18.8
		c-0.4-9.5-1.2-19-1.5-28.6c-0.2-6.6-1.2-13.2-0.6-19.8c1.1-12.9,1.8-25.7,4.3-38.5c2.1-10.9,6.2-20.8,12.3-29.5
		c8.2-11.7,20.2-18.1,34.2-20.7c6.3-1.2,12.6-2.2,19.1-2c17.6,0.5,34.6,3.8,51,10.7c14.3,6,27.8,13.3,39.7,23
		c12.3,9.9,20.9,22.8,22.5,38.7c1.2,12.3-4.8,23.1-11.8,32.9c-11.7,16.5-24.4,32.2-39.3,46.1c-1.9,1.8-1.2,3.8-1.4,5.8
		c-0.8,7.4-1,15-7.3,20.5c-3.5,3.1-7.7,5-12.3,5.8c-2.7,0.5-3.2,1.9-2.8,4.1c2.2,10.8-0.4,21.4-0.8,32c-0.4,9.5-2.3,18.7-3.3,28.1
		c-1.6,14.6-4.8,29-9.1,43.2c-4,13.3-8.7,26.4-11.2,40.1c-1,5.3-0.6,10.9-1.2,16.4c-0.6,6.3-1.2,12.6-4.6,18.3
		c-3,5-8.2,7.4-13.7,6.2c-11.6-2.5-18.9-10.3-25.7-19.3c-15.5-20.6-23.5-44.6-31.1-68.7c-3.7-11.8-5.1-24.2-6.9-36.4
		C423.2,496.7,422.1,486.2,421.8,476.2z"/>
	<path class="st1" d="M479.8,428.7c9-0.5,16.3,2.8,23.1,7.3c4.9,3.3,9.6,7,15.9,7.5c1,0.1,2.5,0.6,2.7,2.3
		c0.8,5.4,1.6,10.8,0.4,16.3c-1.1,5.4-0.8,10.9-1.2,16.4c-1.5,19.4-3.3,38.7-8.1,57.6c-3.9,15.3-9.9,30.1-12.9,45.7
		c-1.3,7.1-1.7,14.3-2.7,21.5c-0.7,4.9-0.5,10-2.3,14.7c-1,2.7-2.5,3.7-5.6,2.7c-10.5-3.4-16.9-11.1-22.7-19.8
		c-8.8-13.2-14.6-27.8-19.7-42.7c-4.7-13.6-8-27.6-10.3-41.8c-1.7-10.3-3.5-20.5-4.5-30.9c-0.8-8-0.5-16.1,1-24.2
		c2.4-13,4.5-26.1,3.5-39.3c-0.8-11.9-1.3-23.8-2-35.8c-0.7-12.2-2.2-24.5-1.7-36.8c0.7-19.8,2.2-39.7,11.8-57.5
		c7-12.9,18.2-20.7,33.3-22.5c21.5-2.5,41.7,2,61.5,9.8c14.6,5.7,28,13.5,40.6,22.6c10.7,7.7,17.7,18.2,17.7,32.2
		c0,3.9-1.2,7.6-2.8,11.1c-7,16.1-17.5,29.8-28.5,43.3c-5.8,7.1-13.1,12.5-19.3,19c-1.6,1.7-2.5,3.3-2.1,5.6
		c2.2,12.3-6.1,22.3-18.5,22.5c-6.4,0.1-11.8-2.7-17.1-5.8c-3.4-2.1-6.7-4.4-10.2-6.3C491.6,419.5,485.5,421.1,479.8,428.7z"/>
</g>
</svg>
