<?xml version="1.0" encoding="utf-8"?>
<!-- Generator: Adobe Illustrator 23.0.1, SVG Export Plug-In . SVG Version: 6.00 Build 0)  -->
<svg version="1.1" id="Layer_4" xmlns="http://www.w3.org/2000/svg" xmlns:xlink="http://www.w3.org/1999/xlink" x="0px" y="0px"
	 viewBox="0 0 1000 1000" style="enable-background:new 0 0 1000 1000;" xml:space="preserve">
<style type="text/css">
	.st0{fill:#6E3720;}
	.st1{fill:#FB9A7A;}
</style>
<g>
	<path class="st0" d="M581.6,528.3c-26.1,0.1-49.8-5.2-71.9-16.7c-16.7-8.7-33.7-17.5-47.7-30.1c-17-15.2-29-33.9-33.4-57
		c-2.6-13.5-1.6-26.7,0-40.1c3.6-30.6,10.9-60.5,17.6-90.5c4.2-19.2,11.1-37.3,20.7-54.2c7.3-12.9,17.3-23.9,32.2-28.2
		c9.2-2.7,18.8-2.7,28.5-1.6c15.1,1.8,28.7,7.5,41.8,14.7c10.4,5.8,19.8,13.1,29.2,20.5c10.2,8.1,17,18.6,23.1,29.5
		c5.2,9.4,9.3,19.5,10.2,30.4c0.7,8.9-2.7,16.6-8.5,23.5c-12.9,15.1-28.6,26.8-45.3,37.3c-3.7,2.4-7.7,4.5-11.8,6.1
		c-5.6,2.3-8.6,6.2-9.5,12c-1.2,8.4-6.4,13.2-14.3,15.3c-3.1,0.8-1.9,2.4-1,3.7c5.3,8.1,10.6,16.1,16.2,24c12,17,24.3,33.7,36,50.9
		c6.4,9.3,12.5,18.9,15.3,30.3c1.3,5.3-1.3,11.1-5.3,14.1C596.7,527.7,588.8,528.9,581.6,528.3z"/>
	<path class="st1" d="M470,365.8c6.2,2.8,12.2,5.5,18.2,8.2c7.5,3.4,13.6,8.3,18.6,14.9c5.3,6.9,12.6,10.9,21.1,12.4
		c1.5,0.3,2.6,0.6,3.4,2.1c8,15.8,19.4,29.4,29.1,44.1c9.1,13.6,19.1,26.6,28.1,40.2c4,6.1,8.2,12.3,10.1,19.6
		c1.6,6.3-1.5,10.5-8,11.3c-24.8,2.7-48.4-1.4-70.5-12.9c-19-9.9-37.3-21-53.4-35c-10.5-9.1-18.1-21.3-23.4-34.4
		c-5.3-13.2-7.7-26.9-6.9-41c0.6-9.9,2.3-19.7,4.2-29.5c3.3-17.6,6.4-35.2,10.4-52.7c4.6-19.8,9.6-39.5,17.8-58.2
		c4.2-9.5,10.3-18.2,17.5-25.8c6.1-6.4,13.9-9.5,22.7-10.3c24.9-2.1,46.6,6.6,66.5,20.4c17.2,11.9,32.8,25.4,40.8,45.6
		c2.5,6.2,5.3,12.4,6.4,19c0.8,4.9-1.4,9.4-3.4,13.8c-3.8,8.5-11.4,13.5-17.8,19.5c-9.8,9.3-21,16.9-32.5,23.9
		c-4.1,2.5-8.4,4.9-12.8,6.7c-3.5,1.5-5.2,4.1-6.5,7.2c-0.9,2.4-1.8,4.8-2.7,7.2c-3,7.5-8.6,10.8-16.5,9.4
		c-7.1-1.3-13.1-4.8-18.5-9.6c-5.5-5-9.6-11.5-16.6-14.9C487.4,363,479,362,470,365.8z"/>
</g>
</svg>
