<?xml version="1.0" encoding="utf-8"?>
<!-- Generator: Adobe Illustrator 23.0.1, SVG Export Plug-In . SVG Version: 6.00 Build 0)  -->
<svg version="1.1" id="Layer_4" xmlns="http://www.w3.org/2000/svg" xmlns:xlink="http://www.w3.org/1999/xlink" x="0px" y="0px"
	 viewBox="0 0 1000 1000" style="enable-background:new 0 0 1000 1000;" xml:space="preserve">
<style type="text/css">
	.st0{fill:#6E3720;}
	.st1{fill:#FB9A7A;}
	.st2{fill:#730000;}
</style>
<g>
	<path class="st0" d="M398.4,375.2c-0.5-8.8,1-19.6,4.1-30c2.4-8.4,8.3-14.8,14.6-20.4c15.7-13.9,35.1-17,55-19.3
		c23.4-2.7,44.6,4.6,65.7,12.4c14.1,5.1,26.6,13.1,35.5,25.6c5.3,7.6,6.6,15.9,5.1,25.4c-2.2,13.5-6.7,26-13,37.9
		c-6.3,11.9-13.4,23.3-20.3,34.8c-0.9,1.5-1.8,2.9-0.7,4.3c1,1.3,2.3-0.1,3.5-0.5c7.5-2.5,15.3-2.5,23-3.9
		c7.9-1.4,15.8-1.2,23.7,0.8c9.5,2.4,18.3,6.3,25.7,12.6c16.7,14.3,25.6,33.2,31.2,54c1.8,6.7,3.3,13.5,4.5,20.3
		c1.4,7.5-1.4,14.3-7.6,19.1c-7.9,6-16.8,9.9-26.9,9.2c-10-0.7-19.4-4.3-28.6-8.1c-1.6-0.7-3.2-1.5-4.6-2.4
		c-6.6-4.1-12.8-2.4-19.1,0.9c-12.5,6.4-26,8.4-39.8,9.9c-8.4,0.9-16.8,0.9-25.2,0.7c-12.1-0.3-23.8-3.2-35-7.8
		c-8-3.3-15.5-7.5-21.8-13.3c-5.7-5.2-9.7-12.1-14.1-18.5c-12.3-17.8-15.9-38.6-21.1-58.9c-3.5-13.8-6.7-27.6-9.5-41.6
		c-1.6-8.1-1.9-16.5-3.3-24.6C398.4,388.3,398.5,382.9,398.4,375.2z"/>
	<path class="st1" d="M491.1,478.6c-0.9,3.8-5.1,5.7-5.6,10.3c4.1-0.9,6.2-4.4,9.1-6.6c14.9-11.2,30.7-20.2,48.7-25.6
		c10.8-3.2,21.6-4.6,32.8-4.6c12.3,0.1,22.4,4.7,31.9,12.5c12.7,10.4,19,24.4,24.8,38.9c3,7.5,6,15.1,7.4,23.3
		c2.2,13-7.6,22.3-20.9,19.8c-12.1-2.2-22.5-8.3-33.6-12.8c-16.1-6.6-31.5-1.8-41.6,8c4.8-1,9.2-2,14.9-3.2
		c-7.1,5.4-14.2,7.7-21.4,9c-8.5,1.6-17.2,2.6-26,2.2c-16.6-0.8-32.5-4.6-46.3-14.1c-9.8-6.8-17.3-16.3-23.7-26.4
		c-8.9-14-13.2-29.9-17.5-45.6c-4.9-17.9-8.9-36-12.6-54.2c-2.6-12.4-4.6-25.1-4-37.8c0.6-12.5,2.1-25,10.5-35.4
		c5.5-6.8,12.7-11.4,20.4-14.8c13.9-6.2,28.7-8.3,43.7-7.8c16.4,0.6,32,6,47.6,11.1c11.4,3.7,21.5,9.1,30,17.6
		c8.8,8.7,11.3,18.8,8.4,30.8c-4.2,17.2-12.2,32.6-20.6,48.1c-3.3,6.1-7.2,11.7-11.5,17.2c-1.7,2.1-2.3,4.5-1.2,7.2
		c1,2.5,0.3,3.8-2.8,4.8c-10.7,3.3-20.4,8.7-28.5,16.5c-2.5,2.4-4.1,3-7.2,0.8c-6.6-4.6-13.2-9.1-20.5-12.5
		c-11.5-5.5-22.7-3.6-30.3,7.8c4.6,0.8,9.1-0.7,13.8,0C471.5,465,481.2,472.1,491.1,478.6z"/>
	<path class="st2" d="M491.1,478.6c-5.5-1.8-10.1-5.3-15.1-8.2c-8-4.6-16.4-6.9-25.7-6.7c-1.6,0-3.6,1.1-4.9-0.9
		c13-4.7,24.2-0.6,34.7,7.1c3.2,2.4,6.7,4.3,10.1,6.5C491,477,492.3,477.3,491.1,478.6z"/>
</g>
</svg>
