<?xml version="1.0" encoding="utf-8"?>
<!-- Generator: Adobe Illustrator 23.0.1, SVG Export Plug-In . SVG Version: 6.00 Build 0)  -->
<svg version="1.1" id="Layer_4" xmlns="http://www.w3.org/2000/svg" xmlns:xlink="http://www.w3.org/1999/xlink" x="0px" y="0px"
	 viewBox="0 0 1000 1000" style="enable-background:new 0 0 1000 1000;" xml:space="preserve">
<style type="text/css">
	.st0{fill:#6E3720;}
	.st1{fill:#FB9A7A;}
</style>
<g>
	<path class="st0" d="M478.2,192.4c10.5-0.4,21.2-0.6,30.9,3.2c14.4,5.6,23.9,16.2,26.1,32.4c1,7.2,2.3,14.3,1.9,21.5
		c-1,17.4-2.6,34.7-7.1,51.5c-1,3.6,0.5,5.7,2,7.7c7.9,11,8.4,19.1-0.6,30.6c-2.3,3-2.1,5.6-0.2,8.5c7.4,11.2,12.5,23.6,14.3,36.8
		c1.2,8.8,1.5,17.8,0.7,26.9c-1.3,13.9-3.4,27.4-7.1,40.8c-4.2,14.8-11.1,28.5-18.3,42.1c-6.1,11.4-13.2,22.3-22.6,31.1
		C487.1,535.8,474,543.7,460,550c-5.8,2.6-11.8,4.2-17.8,4.5c-13.3,0.6-22.2-6.7-23.2-20.9c-0.5-8,0.9-15.8,3.6-23.5
		c3.8-10.9,6.3-22.1,7.3-33.8c1-13,3-25.9,2.6-38.9c-0.4-12.7-0.9-25.7-4.9-37.8c-3.1-9.1-8.6-17.2-14.3-25.1
		c-12-16.7-24.6-33.1-36-50.3c-9.2-14-16.7-28.6-20.4-45c-3.5-15.8-0.4-30.1,9.9-43c18.2-23,43.8-33.1,70.7-40.6
		c6.5-1.8,13.7-1.2,20.5-2.3C464.7,192.2,471.4,192.5,478.2,192.4z"/>
	<path class="st1" d="M443.8,367.6c9.1-5.2,17.5-8.8,26.3-11.3c5.7-1.7,11.6-2.6,17.5-2.7c8.5-0.2,17.1,0.4,25.5-2
		c0.2,0,0.3,0,0.5,0c2.8,0.5,4.8-4.3,7.6-1.4c1.8,1.9,2.9,4.6,4.1,7c5.6,10.7,9.9,21.8,10.9,34.1c2.1,27.2-3.6,52.9-14.7,77.5
		c-6.2,13.8-13.2,27-22,39.4c-5.5,7.9-12.6,13.9-20,19.3c-7.6,5.6-16,10.1-24.6,14.1c-3.8,1.8-7.9,2.8-12,3.1
		c-10.6,1-14.7-8.9-13.8-16.4c1-8.4,4.5-16,6.8-23.9c3.6-12.8,4.8-25.8,5.6-39c0.6-9.5,2-19,1.8-28.5c-0.3-13.1-0.9-26.4-4.9-39.1
		c-3.7-11.7-10.5-21.9-17.8-31.7c-9.3-12.5-19.8-24.1-28.7-36.8c-9.7-13.9-19.4-28.2-24.2-44.7c-5.3-18.3-2.9-35.7,11.2-49.5
		c11.1-10.8,24.7-18.2,39-24.3c13.9-6,28.5-8,43.6-8.9c13.6-0.8,27.1-1.4,40.5,1.2c12.1,2.3,24.4,16.7,24.7,29.8
		c0.2,7.4,1,14.9,0.6,22.3c-0.8,15.1-2.2,30.1-6.9,44.6c-1.4,4.5-1.6,8.1,1.6,11.9c2.1,2.4,3.5,5.4,5.2,8.1
		c2.6,4.1,0.6,7.8-1.3,11.3c-4.4,8.1-12.5,9.9-20.6,11.7c-12.7,3-25.9,1.9-38.7,4.8C455.8,350,448.6,356.2,443.8,367.6z"/>
</g>
</svg>
