<?xml version="1.0" encoding="utf-8"?>
<!-- Generator: Adobe Illustrator 23.0.1, SVG Export Plug-In . SVG Version: 6.00 Build 0)  -->
<svg version="1.1" id="Layer_4" xmlns="http://www.w3.org/2000/svg" xmlns:xlink="http://www.w3.org/1999/xlink" x="0px" y="0px"
	 viewBox="0 0 1000 1000" style="enable-background:new 0 0 1000 1000;" xml:space="preserve">
<style type="text/css">
	.st0{fill:#6E3720;}
	.st1{fill:#FB9A7A;}
</style>
<g>
	<path class="st0" d="M559.9,444.4c5.7-0.7,11.2-1.3,16.7-2.2c14.9-2.3,29.3-0.2,43.1,5.3c7.2,2.9,13.9,7,19.9,12
		c4.6,3.8,7.8,8.9,10.9,13.9c10.2,15.9,16.8,33.2,20.3,51.7c1,5.2-0.7,10.5-4.6,14.1c-11.6,10.6-24.9,16.3-41.3,13.8
		c-11.7-1.7-22.6-5.9-34-8.6c-2.5-0.6-4.6-0.6-6.9,0.5c-13.9,6.4-28.6,9.9-43.8,11.8c-9.6,1.3-19.2,2.3-28.9,1.8
		c-23.4-1.3-45.9-5.6-65.7-19.3c-11.2-7.8-18.3-18.2-22.8-30.8c-4.5-12.5-6.9-25.3-8-38.5c-1-13.2-2.7-26.4-3.8-39.6
		c-0.9-10.3-1-20.6-2.1-30.8c-1.7-15.8,0.9-30.9,4.8-45.9c3.4-13.4,12.9-22.8,24.6-29.7c10.8-6.4,22.6-8.7,35-9.6
		c5.3-0.4,10.6-0.8,15.9-0.8c14.9-0.1,28.7,4.3,42.5,9.5c17.3,6.6,33.1,15.4,46.1,28.8c8.6,8.9,14.5,19.4,12.9,32.1
		c-1.4,10.9-5.8,21-11.4,30.4c-5.6,9.6-11.7,18.8-18.6,27.6C560.3,442.5,560.2,443.4,559.9,444.4z"/>
	<path class="st1" d="M443.1,465.2c13.8-5.7,23.9-0.1,33.4,7.9c3.7,3.1,7.1,6.6,10.8,9.7c1.8,1.5,1.6,2.9,0.4,4.5
		c-2.4,3.2-4.8,6.4-7.5,10c1.9,0.2,2.8-0.6,3.9-1.4c14.4-11.7,29.5-22.2,46.5-29.7c13.8-6,27.8-11.2,43.2-12.4
		c11.5-0.9,22.2-0.3,33.1,3.8c14.6,5.5,24.2,16.3,31.5,29.2c5,8.8,9.3,18,13.1,27.4c5.8,14.4,3.5,22.4-10.7,28.2
		c-6.7,2.7-13.1,1.1-19.3-0.9c-12.5-3.9-25-8.1-38-9.9c-10.9-1.5-21.4,1.5-30.6,7.8c-2,1.4-4.7,2.4-5.6,5.2c4.2-1,8.4-1.9,12.5-2.9
		c-5,4.5-11.5,4.7-17.4,5.8c-7.7,1.4-15.6,2.5-23.5,2.2c-22.1-0.8-43.3-5.5-62.2-17.7c-14.8-9.6-23-23.7-27.1-40.6
		c-2.7-11.4-3.5-23.1-4.9-34.7c-1.6-13.1-3.7-26.1-4.7-39.2c-0.9-12.2-3.2-24.4-2.1-36.7c1.2-12.8,3.9-25.3,10.5-36.7
		c2.9-5.1,7.8-8.5,12.2-11.5c8.5-5.8,18.2-9.1,28.9-9.6c5.6-0.3,11.3-0.7,16.9-0.8c14.1-0.4,27.4,3.4,40.2,8.7
		c13.2,5.5,26.3,11.5,37.4,20.7c9.5,7.9,17.8,16.9,17,30.7c-0.3,4.4-1.4,8.6-3.2,12.5c-8,17.8-17.9,34.5-30.4,49.5
		c-3.1,3.7-6.9,5.2-10.9,7.2c-13,6.6-26.5,12.5-37,23.1c-2.9,3-4.4,0-5.8-1.1c-6.1-5-12.2-9.9-19-13.9
		C463.8,453.1,452,453.6,443.1,465.2z"/>
</g>
</svg>
