<?xml version="1.0" encoding="utf-8"?>
<!-- Generator: Adobe Illustrator 23.0.1, SVG Export Plug-In . SVG Version: 6.00 Build 0)  -->
<svg version="1.1" id="Layer_4" xmlns="http://www.w3.org/2000/svg" xmlns:xlink="http://www.w3.org/1999/xlink" x="0px" y="0px"
	 viewBox="0 0 1000 1000" style="enable-background:new 0 0 1000 1000;" xml:space="preserve">
<style type="text/css">
	.st0{fill:#6E3720;}
	.st1{fill:#FB9A7A;}
</style>
<g>
	<path class="st0" d="M566,510.7c-30.5,0.4-57-10.7-81.9-27.1c-13.9-9.1-25.9-20.4-35.1-33.8c-8.7-12.7-15.4-26.9-18.2-42.4
		c-1.8-9.6-3.5-19.3-2.8-29.1c0.7-10.6,3-21.1,5.1-31.5c3.4-16.7,6.6-33.5,10.5-50.2c3-12.9,8.1-25.2,12.5-37.7
		c4.9-13.8,11.9-26.3,20.9-37.6c7.9-9.9,18.4-16.4,31.4-18.4c16-2.4,30.8,2,45.5,7.3c13.7,5,25.5,13.3,36.9,22.2
		c18.4,14.2,30.7,32.8,38.6,54.4c3,8.2,4.8,16.6,1.8,25.5c-1.6,4.6-4.4,8.1-7.4,11.5c-6.9,7.9-15,14.5-23.5,20.7
		c-13.1,9.6-26.5,18.4-41.2,25.4c-3.6,1.7-3.1,5.6-4.2,8.5c-1.4,3.7-2.2,7.8-5.8,10c-1.8,1.1-0.6,1.6-0.3,2.6
		c2.6,8.2,8,14.7,12.8,21.6c9.5,13.6,19,27.3,31.3,38.7c6.1,5.7,12.5,11.2,17.6,17.8c5.6,7.2,8.9,15.2,5.8,24.4
		c-2.9,8.7-10.8,12.1-18.7,14C587.2,510,576.5,510.1,566,510.7z"/>
	<path class="st1" d="M459.3,345.3c4.4,2.1,8.6,4.5,13.1,6.1c9.7,3.5,15.1,11.7,21.7,18.6c6.9,7.3,12.1,16.3,21.9,20.8
		c6.5,3,13.2,3.8,20.2,3.6c2.1-0.1,3.1,0.3,3.9,2.2c7.7,18.6,20.6,33.5,33.9,48.2c6.7,7.4,13.6,14.7,21.3,21.2
		c4.3,3.6,7.5,8.3,10.5,13.2c5.7,9.5,0.6,14.8-6.3,17.5c-6.6,2.6-13.7,3.2-20.6,4.4c-10.7,1.8-21.3,0.6-31.9-0.1
		c-10-0.7-19.6-3.8-28.6-7.9c-15.6-7.2-30.5-15.6-43.6-27.2c-19-16.8-29.9-38-35.1-62.1c-3.8-17.6-2-35.5,1.8-53.1
		c3.9-18.3,7.2-36.7,11.8-54.8c5.9-23.2,13.5-45.8,28.1-65.3c10.1-13.5,23.1-21.1,40.1-19.4c19.4,1.9,37.1,8.9,53.4,20
		c19.9,13.5,34,31.7,44.1,53c3.4,7.3,5.3,15.8,3.2,24.3c-1.6,6.6-6.3,11.2-11.1,15.5c-12.3,11.1-25.4,21.1-39.4,30
		c-5.3,3.4-11.1,5.7-16.8,8.3c-3.2,1.5-5.7,3.4-6.9,6.8c-0.8,2.2-2.1,4.4-3.1,6.5c-4.4,8.8-12.2,11.7-21.3,7.8
		c-6.8-3-12-7.8-17.1-13.4c-8.2-9-14.9-19.7-26.6-25.1C472.9,341.6,466.1,340.4,459.3,345.3z"/>
</g>
</svg>
