<?xml version="1.0" encoding="utf-8"?>
<!-- Generator: Adobe Illustrator 23.0.1, SVG Export Plug-In . SVG Version: 6.00 Build 0)  -->
<svg version="1.1" id="Layer_4" xmlns="http://www.w3.org/2000/svg" xmlns:xlink="http://www.w3.org/1999/xlink" x="0px" y="0px"
	 viewBox="0 0 1000 1000" style="enable-background:new 0 0 1000 1000;" xml:space="preserve">
<style type="text/css">
	.st0{fill:#6E3720;}
	.st1{fill:#FB9A7A;}
</style>
<g>
	<path class="st0" d="M474.3,216.7c14.9,0.1,27.8,0.2,40.1,4.1c15,4.8,28.6,12.2,33.5,28.8c2.5,8.5,2.4,17.3,1.2,26.2
		c-0.9,6.8-1.2,13.7-2.2,20.5c-1.6,11.7-4,23.1-8.6,33.9c-1.1,2.6-0.9,4.8,0.5,7.4c1.6,3,3,6.2,4.4,9.4c3.5,8.3,1.2,15.1-4.7,20.7
		c-3.1,3-3,5.1-0.8,8.3c6.1,9,8.4,19.3,10.1,29.8c2.8,17-1.5,33.3-3.8,49.9c-4,28.5-13.8,55.4-21.8,82.8c-3.9,13.2-8.9,25.9-15.5,38
		c-7.4,13.5-18.4,14.5-28.6,3.3c-3.3-3.6-5.8-7.9-8.4-12.1c-15-24.6-23-51.8-29.4-79.6c-3.8-16.8-6-33.8-7.9-50.9
		c-2.4-22-9.9-42.3-22.1-61c-14.1-21.4-27.2-43.4-34.5-68.3c-4.3-14.8-3.9-29.6,1.9-43.5c4.6-11.1,13.4-19.2,23.6-26.2
		c13.8-9.5,28.4-16.7,44.8-19.4C456,217.4,466.2,216,474.3,216.7z"/>
	<path class="st1" d="M443.4,386.8c10.5-3.3,20-7.2,30.2-8.5c5.2-0.6,10.4-0.5,15.5-0.3c6.4,0.3,12.8,1.3,19.2,1.8
		c4.7,0.4,9.3-0.5,13.8-1.8c3-0.9,4.8-0.2,6.5,3.1c6.4,12.2,10.8,25.1,9.3,38.8c-1.5,13.3-2.4,26.8-5.6,40
		c-7.8,32.2-16,64.2-26.4,95.7c-2.2,6.5-4.9,12.9-8.8,18.7c-3.2,4.6-7,5.3-10.8,1.1c-7.3-8.1-11.8-17.9-16.4-27.7
		c-3.5-7.5-7-15.2-9.6-23c-3.4-10.1-5.8-20.6-8.7-30.9c-4-14.1-5.5-28.6-7.2-43.1c-2.9-23.7-6.8-47.4-18.5-68.7
		c-6.5-11.9-14.4-23.1-21.3-34.9c-8.8-15.1-17.2-30.4-20.5-47.9c-4.5-23.9,4.1-43.1,25.4-56.1c9.7-6,19.8-11.4,31-14
		c6.2-1.5,12.7-1.8,19-2.6c10.3-1.4,20.8-1.6,31.1-0.8c13.1,1,26.2,2.6,37.2,11.2c7.4,5.8,12.2,13.1,12.4,22.8
		c0.4,14.9-1.7,29.5-3.7,44.2c-1.4,10.6-4.3,20.7-8.2,30.5c-0.6,1.5-0.3,2.4,0.3,3.5c1.2,2.3,2.2,4.6,3.5,6.9
		c5.4,9.7,0.6,17.1-7,21.5c-8.2,4.7-17.4,4.3-26.4,3.4c-1.7-0.2-3.5-0.4-5.3-0.5c-4.8-0.2-9.7-0.3-14.5-0.7
		c-11.5-1-21.9,2.6-30.7,10.3C445.8,380.7,445.1,383.6,443.4,386.8z"/>
</g>
</svg>
